<svg xmlns="http://www.w3.org/2000/svg" viewBox="0 0 58.84 58.84"><defs><style>.cls-1{fill:#fff;}</style></defs><title>Ресурс 25clock</title><g id="Слой_2" data-name="Слой 2"><g id="Layer_1" data-name="Layer 1"><circle class="cls-1" cx="29.42" cy="29.42" r="28.68"/><path d="M0,29.42A29.42,29.42,0,0,1,29.42,0h0A29.42,29.42,0,0,1,58.84,29.42h0A29.42,29.42,0,0,1,29.42,58.84h0A29.42,29.42,0,0,1,0,29.42Zm1.48,0A28,28,0,0,0,29.42,57.36h0A28,28,0,0,0,57.36,29.42h0A28,28,0,0,0,29.42,1.48h0A28,28,0,0,0,1.48,29.42Z"/><circle class="cls-1" cx="29.21" cy="29.24" r="26.12"/><path d="M6.16,29.2A23.16,23.16,0,0,1,29.31,6h0A23.15,23.15,0,0,1,52.47,29.2h0A23.15,23.15,0,0,1,29.31,52.35h0A23.15,23.15,0,0,1,6.16,29.2Zm7-16.18A22.81,22.81,0,0,0,6.44,29.2h0a22.8,22.8,0,0,0,6.7,16.17h0a22.8,22.8,0,0,0,16.18,6.7h0a22.8,22.8,0,0,0,16.18-6.7h0a22.79,22.79,0,0,0,6.7-16.17h0A22.8,22.8,0,0,0,45.49,13h0a22.8,22.8,0,0,0-16.18-6.7h0A22.8,22.8,0,0,0,13.14,13Z"/><path d="M3.08,29.34A26.18,26.18,0,0,1,29.27,3.15h0A26.19,26.19,0,0,1,55.45,29.34h0A26.18,26.18,0,0,1,29.27,55.52h0A26.18,26.18,0,0,1,3.08,29.34ZM10.95,11A25.83,25.83,0,0,0,3.36,29.34h0a25.83,25.83,0,0,0,7.59,18.32h0a25.84,25.84,0,0,0,18.32,7.59h0a25.83,25.83,0,0,0,18.32-7.59h0a25.82,25.82,0,0,0,7.59-18.32h0A25.82,25.82,0,0,0,47.59,11h0A25.82,25.82,0,0,0,29.27,3.43h0A25.83,25.83,0,0,0,10.95,11Z"/><path d="M29.71,6.17V3.23h-.47V6.18Z"/><path d="M29.47,55.28V52.33H29v3Z"/><path d="M6.25,29H3.3v.47H6.25C6.25,29.34,6.25,29.18,6.25,29Z"/><path d="M9.58,17.42,7,15.95l-.24.41,2.56,1.47Z"/><path d="M18.36,9,16.9,6.4l-.41.24L18,9.19Z"/><path d="M41.21,9.51l1.66-2.43-.39-.27L40.81,9.25Z"/><path d="M49.62,18.25,52.27,17l-.21-.42-2.65,1.29Z"/><path d="M52.37,29.82h2.94v-.47H52.36C52.37,29.5,52.37,29.66,52.37,29.82Z"/><path d="M49,41.23l2.5,1.56.25-.4-2.5-1.56Z"/><path d="M40,49.69l1.55,2.5.4-.25-1.55-2.51Z"/><path d="M17.52,49.08l-1.62,2.46.4.26,1.62-2.46Z"/><path d="M9,40.14,6.42,41.59l.23.41,2.57-1.45Z"/><path d="M40.15,5.66l-1.23,2.7c0,.09.17,0,.17.13h0l1.24-2.75Z"/><path d="M19.78,50.09,18.46,53l.18.08L20,50.16C19.91,50.12,19.84,50.12,19.78,50.09Z"/><path d="M36.82,7.51l.9-2.92-.19-.06-.86,2.85C36.73,7.42,36.78,7.43,36.82,7.51Z"/><path d="M22,50.91,21,54l.19.06,1-3.09Z"/><path d="M34.65,6.84S35.23,4,35.23,4l-.19,0-.61,2.83,0,.07A.71.71,0,0,1,34.65,6.84Z"/><path d="M24.43,51.71l-.66,3.14.19,0,.68-3.18C24.58,51.7,24.5,51.72,24.43,51.71Z"/><path d="M32,6.53h0l.32-3.17-.2,0-.3,3a.51.51,0,0,1,.13.17Z"/><path d="M26.87,52l-.33,3.26.2,0L27,52.14C27,52.13,26.93,52,26.87,52Z"/><path d="M8.35,19.76,5.5,18.49l-.08.18,2.8,1.26C8.25,19.87,8.32,19.82,8.35,19.76Z"/><path d="M50.26,38.67c0,.06,0,.17,0,.23l2.7,1.21.08-.18Z"/><path d="M7.49,22l-3-1-.06.19,3.07,1C7.48,22.13,7.47,22.06,7.49,22Z"/><path d="M51.18,36.48c0,.06-.07.12-.08.18l2.87.88.06-.19Z"/><path d="M6.86,24.3l-3-.66,0,.19,3.07.63C6.88,24.4,6.84,24.36,6.86,24.3Z"/><path d="M51.85,34l-.05.18,3,.64,0-.19Z"/><path d="M6.52,26.65l-3.15-.3,0,.2,3.14.32C6.48,26.79,6.51,26.71,6.52,26.65Z"/><path d="M52.13,31.53c.41.24,0,.17,0,.2l3.12.31,0-.2Z"/><path d="M52.24,27.46l3-.26,0-.2-3.09.28C52.17,27.34,52.23,27.39,52.24,27.46Z"/><path d="M6.42,31.34l-3.1.26,0,.2,3.1-.26C6.43,31.48,6.42,31.41,6.42,31.34Z"/><path d="M51.88,24.74l2.95-.61,0-.19-2.94.62C51.85,24.63,51.88,24.68,51.88,24.74Z"/><path d="M6.82,33.78l-3.1.67,0,.19L6.83,34C6.82,33.93,6.83,33.84,6.82,33.78Z"/><path d="M51.34,22.58l2.93-.91-.06-.19-3,.92C51.28,22.46,51.31,22.51,51.34,22.58Z"/><path d="M7.44,36.18l-3,.95.06.19,3-.92C7.48,36.33,7.47,36.24,7.44,36.18Z"/><path d="M8.2,38.11,5.3,39.38l.08.18,2.89-1.23C8.24,38.27,8.23,38.17,8.2,38.11Z"/><path d="M50.49,20.28,53.3,19l-.08-.18-2.81,1.22C50.78,20.15,50.48,20.21,50.49,20.28Z"/><path d="M48.12,16.13l2.47-1.68-.11-.16L48,16C48,16,48.08,16.07,48.12,16.13Z"/><path d="M10.42,42.37l-2.6,1.76.11.16,2.63-1.77C10.52,42.46,10.46,42.42,10.42,42.37Z"/><path d="M46.82,14.24l2.26-2-.13-.15-2.29,2C46.69,14.19,46.78,14.18,46.82,14.24Z"/><path d="M45,12.58l2-2.28-.15-.13-2,2.27C44.93,12.49,45,12.53,45,12.58Z"/><path d="M11.94,44.13,9.45,46.28l.13.15L12,44.34S12,44.16,11.94,44.13Z"/><path d="M13.56,46l-2.09,2.22.15.14,2.14-2.27C13.72,46,13.61,46,13.56,46Z"/><path d="M43.36,11.09l1.83-2.43L45,8.55l-1.81,2.38C43.26,11,43.37,11,43.36,11.09Z"/><path d="M15.47,47.54,13.6,50l.16.12,1.85-2.43C15.56,47.65,15.52,47.58,15.47,47.54Z"/><path d="M26.95,6.31s.07,0,.1.07L26.8,3.26l-.2.13.28,3Z"/><path d="M31.17,52l.27,3.32.2,0-.24-3.29Z"/><path d="M33.6,51.74l.64,3.2.19,0-.62-3.21Z"/><path d="M24.73,6.66l-.59-2.93-.19,0,.63,3A.34.34,0,0,1,24.73,6.66Z"/><path d="M22.53,7.26l-.84-2.77-.19.06.82,2.67C22.38,7.18,22.47,7.28,22.53,7.26Z"/><path d="M35.72,51.2l1,3.21.19-.06-1-3.13C35.89,51.24,35.78,51.18,35.72,51.2Z"/><path d="M20.2,8.12,19.06,5.43l-.18.08L20,8.13C20.08,8.11,20.14,8.14,20.2,8.12Z"/><path d="M38.07,50.44l1.28,3,.18-.08-1.24-3C38.22,50.4,38.13,50.41,38.07,50.44Z"/><path d="M16.22,10.22,14.5,7.76l-.16.11,1.75,2.52C16.14,10.36,16.16,10.26,16.22,10.22Z"/><path d="M42.1,48.2,44,50.95l.16-.11-1.87-2.7C42.23,48.18,42.16,48.16,42.1,48.2Z"/><path d="M14.24,11.62,12.3,9.44l-.15.13,2,2.24C14.18,11.77,14.19,11.66,14.24,11.62Z"/><path d="M44.42,46.43l-.18.12,2.2,2.5.15-.13Z"/><path d="M12.41,13.56,10.22,11.5l-.14.14,2.24,2.08C12.36,13.67,12.37,13.62,12.41,13.56Z"/><path d="M46.09,45c0,.06-.06.06-.1.12l2.22,2.17.14-.15Z"/><path d="M10.88,15.48,8.55,13.75l-.12.16,2.36,1.77C10.82,15.62,10.85,15.53,10.88,15.48Z"/><path d="M47.63,43.09c0,.05-.14.13-.18.18l2.62,1.93.12-.16Z"/><path d="M45.77,23.32h2.44v.49H45.38v-.24A20.06,20.06,0,0,0,47,20.91,4.44,4.44,0,0,0,47.5,19a2.33,2.33,0,0,0-.24-1.16.74.74,0,0,0-1.29-.1,1.71,1.71,0,0,0-.29.91h-.15a2.48,2.48,0,0,1,.19-.89,1.92,1.92,0,0,1,.48-.74.94.94,0,0,1,.64-.26,1.06,1.06,0,0,1,.89.54,2.39,2.39,0,0,1,.37,1.36,4.41,4.41,0,0,1-.53,2A16,16,0,0,1,45.77,23.32Z"/><path d="M27.53,13.18V8.5c0-.16,0-.24-.07-.24l-.11,0a1.5,1.5,0,0,1-.56.19V8.3a3.69,3.69,0,0,0,1.17-1.16h.15v6a1.28,1.28,0,0,0,.1.61.48.48,0,0,0,.41.14v.18H27v-.18c.21,0,.35,0,.42-.15A1.27,1.27,0,0,0,27.53,13.18Z"/><path d="M29.64,13.52h2.44V14H29.24v-.24a19.72,19.72,0,0,0,1.64-2.66,4.39,4.39,0,0,0,.48-1.87,2.3,2.3,0,0,0-.25-1.15.74.74,0,0,0-.66-.42.75.75,0,0,0-.62.33,1.7,1.7,0,0,0-.29.91H29.4a2.54,2.54,0,0,1,.19-.9,1.89,1.89,0,0,1,.48-.74A.93.93,0,0,1,30.71,7a1.06,1.06,0,0,1,.89.55A2.4,2.4,0,0,1,32,8.92a4.41,4.41,0,0,1-.53,2A16.05,16.05,0,0,1,29.64,13.52Z"/><path d="M49.11,29.66v-.2a1.69,1.69,0,0,0,1.52-1.73,1.45,1.45,0,0,0-.24-.85.73.73,0,0,0-.6-.35.68.68,0,0,0-.46.19,1.26,1.26,0,0,0-.33.53l-.14-.08a1.45,1.45,0,0,1,.44-.76,1.05,1.05,0,0,1,.72-.28,1,1,0,0,1,.86.44,1.71,1.71,0,0,1,.34,1.09,1.93,1.93,0,0,1-.22.92,1.68,1.68,0,0,1-.65.66v0a1.51,1.51,0,0,1,.81.68,2.37,2.37,0,0,1,.29,1.2A2.5,2.5,0,0,1,51,32.68a1.33,1.33,0,0,1-1.12.59,1.27,1.27,0,0,1-.66-.17,2.16,2.16,0,0,1-.58-.58l.11-.14a1.37,1.37,0,0,0,1,.56,1,1,0,0,0,.78-.4,1.69,1.69,0,0,0,.31-1.06,2.47,2.47,0,0,0-.33-1.28,1,1,0,0,0-.87-.57Z"/><path d="M48,40.24H46.79v2.35h-.52V40.24h-2V40l2.41-4.54h.15v4.2H48Zm-3.29-.56h1.56V36.77Z"/><path d="M39.5,43.34H37.64l0,2.42a2,2,0,0,1,.39,0,1.37,1.37,0,0,1,1.14.55,2.15,2.15,0,0,1,.42,1.36,2.36,2.36,0,0,1-.43,1.45,1.3,1.3,0,0,1-1.08.58,1.53,1.53,0,0,1-1.34-1l.13-.11a1.14,1.14,0,0,0,1,.68,1,1,0,0,0,.8-.44,1.75,1.75,0,0,0,.32-1.08,1.58,1.58,0,0,0-.34-1,1.13,1.13,0,0,0-.91-.41l-.33,0,.07-3.62h2.1Z"/><path d="M30.59,44.46v.2a2.92,2.92,0,0,0-1.76,1.25,4.91,4.91,0,0,0-.76,2.47,1.6,1.6,0,0,1,1.22-.75,1.15,1.15,0,0,1,1,.54,2.4,2.4,0,0,1,.38,1.4A2.32,2.32,0,0,1,30.19,51a1.34,1.34,0,0,1-1.11.58,1.39,1.39,0,0,1-1.2-.76,3.56,3.56,0,0,1-.48-1.92,5,5,0,0,1,.9-3A3.25,3.25,0,0,1,30.59,44.46ZM30,49.79a2.24,2.24,0,0,0-.28-1.19.85.85,0,0,0-.74-.45,1.25,1.25,0,0,0-1,.58v.08a4.46,4.46,0,0,0,.3,1.81c.2.44.47.66.8.66a.71.71,0,0,0,.62-.42A2.15,2.15,0,0,0,30,49.79Z"/><path d="M17.25,43.66h-.15l.26-1.75h.15a.24.24,0,0,0,.27.23h2.73v.23l-1.7,6.69H18.2l1.92-6.26H18a.42.42,0,0,0-.35.15A3.14,3.14,0,0,0,17.25,43.66Z"/><path d="M13.32,40.28a2.05,2.05,0,0,1-.42,1.31,1.31,1.31,0,0,1-2.06.06,1.8,1.8,0,0,1-.39-1.21,2,2,0,0,1,.25-1,3.21,3.21,0,0,1,.83-.89,2.17,2.17,0,0,1-.7-.81,2.34,2.34,0,0,1-.24-1.07A1.92,1.92,0,0,1,11,35.45a1.17,1.17,0,0,1,1-.47,1.14,1.14,0,0,1,.92.45,1.69,1.69,0,0,1,.37,1.11,2,2,0,0,1-.86,1.63A2.84,2.84,0,0,1,13.32,40.28Zm-2.4,0a1.86,1.86,0,0,0,.29,1.06.84.84,0,0,0,.71.42.76.76,0,0,0,.63-.34,1.35,1.35,0,0,0,.25-.85,2.31,2.31,0,0,0-1.13-1.84A1.7,1.7,0,0,0,10.92,40.3Zm.12-4a1.55,1.55,0,0,0,.26.85,4.31,4.31,0,0,0,.88.89,1.55,1.55,0,0,0,.57-1.35,2,2,0,0,0-.25-1,.74.74,0,0,0-.65-.4.7.7,0,0,0-.58.3A1.2,1.2,0,0,0,11,36.29Z"/><path d="M7.78,33.24V33a2.69,2.69,0,0,0,1.76-1.22,4.78,4.78,0,0,0,.77-2.5,1.6,1.6,0,0,1-1.22.75,1.15,1.15,0,0,1-1-.54,2.38,2.38,0,0,1-.38-1.39,2.26,2.26,0,0,1,.45-1.43,1.34,1.34,0,0,1,1.11-.58,1.38,1.38,0,0,1,1.2.75A3.56,3.56,0,0,1,11,28.79a5,5,0,0,1-.9,3A3.22,3.22,0,0,1,7.78,33.24Zm.55-5.32a2.2,2.2,0,0,0,.28,1.19.85.85,0,0,0,.74.45,1.24,1.24,0,0,0,1-.64,4.54,4.54,0,0,0-.3-1.83c-.2-.44-.47-.66-.81-.66a.72.72,0,0,0-.63.42A2.09,2.09,0,0,0,8.33,27.92Z"/><path d="M11,23.57V18.88c0-.16,0-.24-.07-.24l-.11,0a1.5,1.5,0,0,1-.56.19v-.2a3.68,3.68,0,0,0,1.17-1.16h.15v6a1.28,1.28,0,0,0,.09.61.48.48,0,0,0,.42.14v.18H10.46v-.18c.21,0,.35,0,.41-.15A1.25,1.25,0,0,0,11,23.57Z"/><path d="M15.77,21.07a7.09,7.09,0,0,1-.22,1.85,3.11,3.11,0,0,1-.63,1.26,1.15,1.15,0,0,1-.86.46,1.17,1.17,0,0,1-.87-.46,3.11,3.11,0,0,1-.63-1.27A7.13,7.13,0,0,1,12.34,21a6.85,6.85,0,0,1,.22-1.83A3.12,3.12,0,0,1,13.19,18a1.06,1.06,0,0,1,1.74,0,3.2,3.2,0,0,1,.62,1.26A7.06,7.06,0,0,1,15.77,21.07Zm-.65,0a8.24,8.24,0,0,0-.27-2.4c-.18-.57-.44-.86-.78-.86s-.6.29-.79.86A8.11,8.11,0,0,0,13,21.07a8.08,8.08,0,0,0,.28,2.39c.19.57.45.86.79.86s.6-.28.78-.84A8.21,8.21,0,0,0,15.12,21.07Z"/><path d="M18,15.6V10.91c0-.16,0-.24-.07-.24l-.11,0a1.47,1.47,0,0,1-.56.19v-.2a3.65,3.65,0,0,0,1.16-1.16h.15v6a1.21,1.21,0,0,0,.1.61c.06.09.2.14.41.14v.18H17.5v-.18q.32,0,.41-.15A1.26,1.26,0,0,0,18,15.6Z"/><path d="M19.92,15.6V10.91c0-.16,0-.24-.07-.24l-.11,0a1.46,1.46,0,0,1-.56.19v-.2a3.68,3.68,0,0,0,1.16-1.16h.15v6a1.26,1.26,0,0,0,.09.61.49.49,0,0,0,.42.14v.18H19.41v-.18a.48.48,0,0,0,.42-.15A1.27,1.27,0,0,0,19.92,15.6Z"/><path d="M39.74,15.79V11.1c0-.16,0-.24-.07-.24l-.11,0a1.52,1.52,0,0,1-.56.19v-.2a3.68,3.68,0,0,0,1.17-1.16h.15v6a1.27,1.27,0,0,0,.09.61q.1.14.42.14v.18H39.23v-.18c.21,0,.35,0,.42-.15A1.25,1.25,0,0,0,39.74,15.79Z"/><path d="M21.8,19.63a2.16,2.16,0,0,0,0-2.7,2,2,0,0,0-2.41-.65c-.19.08-5.48-5.9-5.64-5.76s4.65,6.49,4.53,6.7A2.16,2.16,0,0,0,21,20.28l.12-.07,7,8.45A1.21,1.21,0,0,0,28.25,30a1.14,1.14,0,0,0,1.36.37c.08,0,1.9,2,2.75,2.86a.37.37,0,1,0,.14-.12c-.68-1-2.32-3.18-2.26-3.27a1.22,1.22,0,0,0-1.56-1.72l-7-8.4Z"/><path d="M29.67,20a2.16,2.16,0,0,0,1.68-2.11,2,2,0,0,0-1.44-2c-.19-.06-.46-8-.67-8s-.56,8-.79,8A2.16,2.16,0,0,0,28.63,20l.14,0v8.09A1.22,1.22,0,0,0,28,29.25a1.15,1.15,0,0,0,.81,1.15c.08,0,.19,2.74.3,4a.36.36,0,0,0-.28.35.37.37,0,1,0,.46-.35c.12-1.21.24-3.92.34-4a1.22,1.22,0,0,0-.1-2.32V20Z"/></g></g></svg>