<svg xmlns="http://www.w3.org/2000/svg" viewBox="0 0 210.04 137.27"><defs><style>.cls-1{fill:none;}.cls-2{fill:#edcee2;}.cls-3{fill:#dc9bc0;}.cls-4{fill:#f3e0ec;}.cls-5{fill:#e1a9b6;}.cls-6{fill:#d990b9;}.cls-7{fill:#c9478e;}.cls-8{fill:#e1abca;}.cls-9{fill:#e1a7a7;}.cls-10{fill:#ce629b;}.cls-11{fill:#d37698;}.cls-12{fill:#fff;}.cls-13{fill:#b86b95;}.cls-14{fill:#c8ac4a;}.cls-15{fill:#e0bd16;}.cls-16{fill:#f7dd65;}.cls-17{fill:#cbd1d0;}.cls-18{fill:#aab8be;}.cls-19{fill:#e5f2fc;}.cls-20{fill:#ffec00;}.cls-21{fill:#733d8a;}.cls-22{fill:#5e3373;}.cls-23{fill:#1e1e1c;}</style></defs><title>Ресурс 10clock2</title><g id="Слой_2" data-name="Слой 2"><g id="Layer_2" data-name="Layer 2"><path class="cls-1" d="M26.85,96.69c.17.45.32.9.51,1.33-.09-.3-.19-.59-.31-.88S26.91,96.84,26.85,96.69Z"/><path class="cls-1" d="M58.11,44.71c1.07,0,2.15.1,3.23.06s2.41-.19,3.61-.29A50.75,50.75,0,0,0,58.11,44.71Z"/><path class="cls-1" d="M13.17,102.53a12.48,12.48,0,0,0,2.27.41,12.29,12.29,0,0,0,3.94-.59A30,30,0,0,1,13.17,102.53Z"/><path class="cls-1" d="M15.87,44.41c1.32-.27,2.61-.64,3.9-1A34.77,34.77,0,0,0,13.3,45C14.17,44.76,15,44.58,15.87,44.41Z"/><path class="cls-1" d="M10.9,66.53c.19-.23.37-.46.55-.71l-.1-.13C11.19,66,11,66.24,10.9,66.53Z"/><path class="cls-1" d="M19.57,75.55a5.63,5.63,0,0,0,2.69,1.58,5.88,5.88,0,0,1-1.69-.87Z"/><path class="cls-1" d="M27.9,42.52a26,26,0,0,0,3.62-.13,9.37,9.37,0,0,0,2.82-1.09,34.85,34.85,0,0,1-4.6,1Z"/><path class="cls-1" d="M9.89,62.25c.15.25.3.51.46.75.36.53.76,1,1.17,1.53h0l-.81-1.08C10.43,63.05,10.16,62.65,9.89,62.25Z"/><path class="cls-1" d="M196.26,132.35a9.37,9.37,0,0,0,1.72-.63l-.79.26Z"/><path class="cls-1" d="M199.61,118.39a3.23,3.23,0,0,1,1.41.24A2,2,0,0,0,199.61,118.39Z"/><path class="cls-1" d="M12.39,115.79a39.1,39.1,0,0,1,7.7,1.59,19.92,19.92,0,0,0-4.33-1.31A27.43,27.43,0,0,0,12.39,115.79Z"/><path class="cls-1" d="M185.68,128.75a10.54,10.54,0,0,0,2.08,1.9l-1.28-1.14C186.19,129.27,185.93,129,185.68,128.75Z"/><path class="cls-2" d="M9.62,101.92h-.2l.74,0h0Z"/><path class="cls-2" d="M50.31,116.86c-.78-.18-1.55-.39-2.32-.61l-.4-.1-.61-.22a39.91,39.91,0,0,1-7.76-3.43c-.19.24-.38.47-.58.69a4.73,4.73,0,0,1-4.62,1.5c-1.7-.25-3.66-.64-4.83-2.08A10.81,10.81,0,0,1,27.06,107a8.56,8.56,0,0,1,1.22-5.3c-.24-.44-.48-.88-.7-1.33-.48.11-1,.21-1.44.35l-1.65.45a2.25,2.25,0,1,1-1.72.44c-.94.23-1.89.45-2.84.62l-.53.08a12.29,12.29,0,0,1-3.94.59,12.48,12.48,0,0,1-2.27-.41l-1-.05a5.7,5.7,0,0,1,3,3.46,8,8,0,0,1,2.39,2.46c1.11,1.94.57,4.2-2,6-1.53,1.09-3,.31-4.67.09s-5.24.69-5.15-2c.05-1.5,1.42-2.85,2.63-3.78a19.89,19.89,0,0,1-4.4-2.66c-1.85-2.1,0-2.67,2.5-2.55a31.73,31.73,0,0,1,5.35.84l.43.13a8.46,8.46,0,0,0-1.71-2.12L9,102.31c-1.4,0-9.58-.62-7.57,2.46,1.35,2.06,4,2.75,6.13,3.76.16.08,0,.2-.07.25-1.35.71-4.5,3.35-3.94,5.19.74,2.42,6,1.59,8,1.74l.83.09a27.43,27.43,0,0,1,3.37.28,19.92,19.92,0,0,1,4.33,1.31c2,.62,4,1.34,6.05,2.12,2.32-.13,4.7-.12,7-.11,4.06,0,8.13.11,12.19.17a65.18,65.18,0,0,0,12.1-1.29l2-.37a2.24,2.24,0,0,1-.05-.5A29.09,29.09,0,0,1,50.31,116.86Zm-21.69,1.93A2.51,2.51,0,1,1,31,116.14,2.52,2.52,0,0,1,28.62,118.79Z"/><path class="cls-2" d="M39.54,112.07l-.06.08a36.72,36.72,0,0,0,4.59,2.29c-.57-.32-1.15-.65-1.75-.93C41.38,113.06,40.45,112.58,39.54,112.07Z"/><path class="cls-2" d="M11.72,102.52a.29.29,0,0,1-.16-.08l-.44,0A8.74,8.74,0,0,1,13,104.74a11,11,0,0,1,1.69.85A4.45,4.45,0,0,0,11.72,102.52Z"/><path class="cls-3" d="M192.1,133.22a4.92,4.92,0,0,0,2.16-.15,13.48,13.48,0,0,1-3.89-.5A5.76,5.76,0,0,0,192.1,133.22Z"/><path class="cls-3" d="M201,118.63a3.23,3.23,0,0,0-1.41-.24,2.49,2.49,0,0,0-.68.25,5.1,5.1,0,0,1,1.9.36c3.55,1.58.34,6-1.92,7h0l0,0h0l-.08,0c-3.84,1.06-5.81-.8-6.9-3.53a41.08,41.08,0,0,1-6.9,5.16,9.29,9.29,0,0,0,.75,1c.25.26.51.52.79.77l1.28,1.14a11.32,11.32,0,0,0,2.9,1.46,9.93,9.93,0,0,0,5.6.22l.93-.36.79-.26a9.14,9.14,0,0,0,4.66-5.17,7.85,7.85,0,0,0,.46-5A5.55,5.55,0,0,0,201,118.63Z"/><path class="cls-3" d="M196.47,126a5.32,5.32,0,0,0,1.7-.2,5.73,5.73,0,0,0,.65-.33,4.17,4.17,0,0,1-.45.17A6.75,6.75,0,0,1,196.47,126Z"/><path class="cls-3" d="M201.89,129.66a6.62,6.62,0,0,0,.63-1,11,11,0,0,1-1.53,1.79A4,4,0,0,0,201.89,129.66Z"/><path class="cls-4" d="M86,40.38q-1.17,1.73-2.26,3.53a.26.26,0,0,1-.22.1,1.15,1.15,0,0,1-.69-.19l-.25-.23c-1.25.15-1.6-.61-2-1.88l-.36-.34a2.86,2.86,0,1,1-.38-1.31l.2-.23c-.28-1.47.48-1.7,1.73-2.36a23.19,23.19,0,0,1-2.38-4A54.65,54.65,0,0,0,73.26,42c-.51.85-1,1.73-1.5,2.62,3.89.54,8,1.55,11,4.19a.85.85,0,0,1,.44.15c1.06,1.09,2.06,2.23,3,3.39L87,52.2q.82-2.35,1.84-4.61a2.18,2.18,0,0,1,1.89-3.88c.27-.51.56-1,.84-1.51A7.83,7.83,0,0,1,86,40.38Z"/><path class="cls-4" d="M145.9,11.55h.54l.19-.06A3,3,0,0,0,146,10.1,6.81,6.81,0,0,0,145.9,11.55Z"/><path class="cls-4" d="M76.91,124.74a6.07,6.07,0,0,0,.53.81,5,5,0,0,0-.21-.89Z"/><path class="cls-4" d="M70.08,125.79a5,5,0,0,0,.39,2.09,3.86,3.86,0,0,0,.35-2.09Z"/><path class="cls-4" d="M202.73,45.21c-3-6.8-6.52-13.41-12-18.59A64,64,0,0,0,173,14.23c-7.3-3.22-14.85-6-22.8-7a93.12,93.12,0,0,0-23.4.26c-1.26.16-2.52.37-3.77.59l.11.25a2.31,2.31,0,0,1,1.1,2.38l.17.38a.09.09,0,0,1,0,.12.36.36,0,0,1-.12.06l-.14,0c-.67,2.5-2.08,1.28-4.76,1.8q-2.93,1.18-5.76,2.57c-1.37.74-2.72,1.51-4,2.31s-2.8,1.77-4.15,2.72l.09.06c.06.06-.18.13-.35.12l-1,.73a8.71,8.71,0,0,1,3,2.6,60.82,60.82,0,0,1,5-3.5,2,2,0,1,1,2.32-1.38,60.42,60.42,0,0,1,9.34-4.28,2.75,2.75,0,0,1-.08-.51,2.64,2.64,0,0,1,5.12-1.05,60.87,60.87,0,0,1,14.47-2,11.59,11.59,0,0,0-.75-.9c-.12-.12.35-.06.44,0a10.68,10.68,0,0,1,.72.86h.63a2.06,2.06,0,0,0,0-.56c0-.17.42,0,.48.09a3.74,3.74,0,0,0,.33.49h.24a6.41,6.41,0,0,1,.13-1.88c0-.14.37,0,.43.06A2.83,2.83,0,0,1,147,11.39c1.41-.29,3,0,4.26-.22a16.21,16.21,0,0,1,6,.08,29,29,0,0,1,6,1.44,22.24,22.24,0,0,1,5.51,2.93,10.76,10.76,0,0,1,1.63,1.74c.78.37,1.54.76,2.3,1.16l-.17-.16c-.17-.14.33-.18.42-.13.79.41,1.57.82,2.39,1.17.24.1-.23.21-.34.16-.45-.19-.89-.4-1.32-.62l.13.16a61,61,0,0,1,16,12.81A4.09,4.09,0,0,1,193,35.67c0,.06,0,.11,0,.16a60.8,60.8,0,0,1,5.27,64.63,4,4,0,1,1-4.06,6.68,61.09,61.09,0,0,1-4.29,5.45,7.13,7.13,0,0,1,1.19,1.67c.05.1-.41,0-.47-.1a6.46,6.46,0,0,0-.91-1.35q-1.34,1.51-2.79,2.92a6,6,0,0,1,1.19,2.1c0,.15-.34,0-.38,0a16.82,16.82,0,0,1-1.62-1.31,61,61,0,0,1-9.49,7.35,3,3,0,1,1-4.52,2.71s0-.1,0-.15a60.82,60.82,0,0,1-49.24,2.8,2.77,2.77,0,1,1-5-2.12,61,61,0,0,1-18.44-13.74,2.24,2.24,0,1,1-2.62-3.08,61,61,0,0,1-4-5.59,29.45,29.45,0,0,1-5,3.89c-.94.58-1.91,1.11-2.9,1.61a10.17,10.17,0,0,1,.67,8.22,8,8,0,0,1-1.45,2.68c.15.09.29.19.45.28s-.3.22-.41.16l-.28-.17a9.72,9.72,0,0,1-4,2.48c-.66.23-1.34.43-2,.62a4.28,4.28,0,0,0,1.08,1c.28.17-.17.15-.3.08a4.56,4.56,0,0,1-1.09-1,4.74,4.74,0,0,1,.33,1.54c0,.17-.37,0-.43-.05a4.84,4.84,0,0,1-1-1.25l-2,.46a22.44,22.44,0,0,1-2.9.47,19.69,19.69,0,0,0,1,2.25c.07.12-.41.15-.48,0a14.69,14.69,0,0,1-.83-1.92,3,3,0,0,1-.64,2.21.4.4,0,0,1-.48,0,4.51,4.51,0,0,1-.62-2.54c-.2,0-.41,0-.6-.05a9.75,9.75,0,0,1-5.14-2.44c-.3-.29-.58-.61-.86-.92a11.61,11.61,0,0,0-.44,2.95c0,.15-.5.16-.5,0a12.33,12.33,0,0,1,.56-3.38l0,0a4.93,4.93,0,0,1-2.13,1.46c-.06,0-.43.05-.37-.09a5.13,5.13,0,0,1,1.51-2.08.47.47,0,0,1,.29,0c-.17-.18-.33-.37-.51-.54a8,8,0,0,1-1.77-2.22A69.11,69.11,0,0,1,44.19,120c-6.05-.17-12.25-.44-18.3,0-4.89.32-2.85,3.85-.08,5.38,2.33,1.29,4.87,1.75,7.37,2.6.1,0,.25.12.11.23a16.8,16.8,0,0,0-4.66,5.05c-.66,1.29-1.57,4.46,1.87,3.47a27.75,27.75,0,0,1,2.87-.68c6.6-1.14,13-.34,19.62.31a60.28,60.28,0,0,0,12.62,0c3.36-.37,6.68-1,10-1.28a123,123,0,0,1,18.79.24c7.84.52,15.68.22,23.52.5,8.36.3,16.71.23,25.07.28s16.34-.33,24.39-2.3c7.09-1.74,14.18-4,20.11-8.39,11.25-8.3,16.46-21.27,19.63-34.48a59.57,59.57,0,0,0,1.06-23.69C207.09,59.82,205.81,52.06,202.73,45.21ZM36.87,131.83c-.09.05-.42,0-.45-.1s0-.1,0-.15c-1.55,1.78-6.17,6.39-7.59,3.5-.45-.92,1.79-3,2.3-3.59.69-.8,2.74-1.38,2.92-2.17.55-2.45-5.07-3.61-6.47-4.26-1.1-.52-3.16-2.52-1.57-3.55.84-.55,2.2.44,3.09.47.7,0,1.34.07,2,.09a6.37,6.37,0,0,1,3.72.89,14,14,0,0,0-2.24-2.81c-.13-.12.34-.11.44,0a15.74,15.74,0,0,1,2.59,3.35c.08.13.13.26.2.39,1.81,2,2.59,5,1.06,7.12,0,.2.1.32.14.27,2.52-2.68,1.43-9.93-2.3-11.15-.32-.11,0-.23.16-.17C38.83,121.23,40.64,129.5,36.87,131.83Zm11.31-8.49a.59.59,0,1,1-.07-1.19.59.59,0,0,1,.07,1.19ZM54.6,130a2.78,2.78,0,1,1,2.61-2.94A2.78,2.78,0,0,1,54.6,130Zm32.87-.21a2,2,0,1,1,1.87-2.1A2,2,0,0,1,87.47,129.78Zm1.66-9a2.18,2.18,0,1,1,2.05-2.31A2.19,2.19,0,0,1,89.13,120.8Zm2.58-9a2.12,2.12,0,1,1,2-2.24A2.12,2.12,0,0,1,91.71,111.77ZM99.91,133a2.52,2.52,0,1,1,2.36-2.66A2.52,2.52,0,0,1,99.91,133ZM107,126a2.25,2.25,0,1,1,2.11-2.38A2.25,2.25,0,0,1,107,126Zm78.23-1.34a2.25,2.25,0,1,1,2.12-2.38A2.25,2.25,0,0,1,185.23,124.64Zm7-5a2.65,2.65,0,1,1,2.49-2.8A2.65,2.65,0,0,1,192.27,119.63Zm10.32-22.88a1.19,1.19,0,1,1,1.12-1.26A1.19,1.19,0,0,1,202.59,96.76Z"/><path class="cls-4" d="M60.67,123a6.09,6.09,0,0,0,1.63-1.36l-.33-.35A5.09,5.09,0,0,0,60.67,123Z"/><path class="cls-4" d="M186.28,116.39c.26.22.53.44.8.65.84.63.18-.33-.37-1.06Z"/><path class="cls-5" d="M146.62,11.51l-.19.06h.2Z"/><path class="cls-5" d="M168.78,15.62a22.24,22.24,0,0,0-5.51-2.93,29,29,0,0,0-6-1.44,16.21,16.21,0,0,0-6-.08c-1.25.22-2.85-.08-4.26.22,0,.06,0,.13,0,.19a60.51,60.51,0,0,1,23.32,5.78A10.76,10.76,0,0,0,168.78,15.62Z"/><path class="cls-5" d="M29.32,103.44a6.07,6.07,0,0,1-.54-.82l-.09-.2-.41-.7a8.56,8.56,0,0,0-1.22,5.3,10.81,10.81,0,0,0,2.13,5.58c1.17,1.44,3.13,1.83,4.83,2.08a4.73,4.73,0,0,0,4.62-1.5c.2-.22.39-.46.58-.69a37.57,37.57,0,0,1-4.68-3.17A24.53,24.53,0,0,1,29.32,103.44Z"/><path class="cls-5" d="M32.88,106.88l-.39-.38a29.51,29.51,0,0,0,7,5.65l.06-.08c-.78-.44-1.54-.9-2.28-1.41A28.58,28.58,0,0,1,32.88,106.88Z"/><path class="cls-5" d="M64.48,116.12q1.74-.33,3.48-.75c-.83.16-1.66.32-2.46.5Z"/><path class="cls-5" d="M69.4,115.59a64.6,64.6,0,0,1-10,1.82,2.24,2.24,0,0,0,.05.5s0,.08,0,.12a2.39,2.39,0,0,0,.12.35,8,8,0,0,0,1.77,2.22c.18.17.34.36.51.54.12,0,.22.05.15.12l0,0,.33.35.56-.6h0l0,0c.07-.07.51-.11.46.05-.14.43-.26.86-.38,1.29.28.31.56.63.86.92A9.75,9.75,0,0,0,69,125.69c.2,0,.4,0,.6.05,0-.09,0-.19,0-.28s-.12-.05-.11-.09a3.86,3.86,0,0,0,.1-.66c0-.14.5-.12.5,0,0,.34,0,.7,0,1h.73c0-.3,0-.6,0-.87s.44-.09.49,0a8.39,8.39,0,0,1,.39.84,22.44,22.44,0,0,0,2.9-.47l2-.46c-.13-.22-.25-.45-.37-.67h0a3.8,3.8,0,0,0-.25-.5c-.09-.17.38-.06.44.05.18.35.36.7.56,1.05l.32-.08c-.16-.47-.37-.93-.57-1.38-.06-.13.4,0,.46.08.27.37.53.75.82,1.11.69-.19,1.38-.39,2-.62a9.72,9.72,0,0,0,4-2.48c-.7-.4-1.37-.84-2-1.29a2,2,0,0,1,.08,1.25c0,.12-.32.12-.41.1a1.84,1.84,0,0,1-1.49-1.81c0-.16.5-.19.5-.07a1.62,1.62,0,0,0,1,1.53,2.66,2.66,0,0,0-.37-1.51c-.06-.12.39-.16.46-.11.85.56,1.68,1.14,2.56,1.66a8,8,0,0,0,1.45-2.68,10.17,10.17,0,0,0-.67-8.22A73.34,73.34,0,0,1,69.4,115.59Z"/><path class="cls-5" d="M62.59,121.93l0-.12-.08.08Z"/><path class="cls-5" d="M83.31,110.11c-.66.31-1.3.68-1.93,1.05,1.1-.46,2.18-1,3.23-1.5l0-.07C84.14,109.75,83.72,109.92,83.31,110.11Z"/><path class="cls-4" d="M50.3,64.94a3.62,3.62,0,0,1-.81-.41,1.75,1.75,0,0,0,2.15.63,5.28,5.28,0,0,0,.59-.2A3.08,3.08,0,0,1,50.3,64.94Z"/><path class="cls-4" d="M66.67,80.88a2.82,2.82,0,0,0,2.62.22h0a4.46,4.46,0,0,1-1,.11A4.27,4.27,0,0,1,66.67,80.88Z"/><path class="cls-4" d="M52,77.88a2.82,2.82,0,0,0,2.62.22h0a4.46,4.46,0,0,1-1,.11A4.27,4.27,0,0,1,52,77.88Z"/><path class="cls-4" d="M52.72,70.7a4.36,4.36,0,0,0-.45.21,4.57,4.57,0,0,1,1.4-.22,4.29,4.29,0,0,1,2,.48A2.84,2.84,0,0,0,52.72,70.7Z"/><path class="cls-4" d="M50.11,45.93l.42-.15c.45-.14.9-.25,1.35-.37-.63.14-1.25.29-1.87.48Z"/><path class="cls-4" d="M67.38,73.7a4.36,4.36,0,0,0-.45.21,4.56,4.56,0,0,1,1.4-.22,4.29,4.29,0,0,1,2,.48A2.84,2.84,0,0,0,67.38,73.7Z"/><path class="cls-4" d="M47.59,116.14l.4.1-1-.32Z"/><path class="cls-4" d="M73.15,62.51a8.12,8.12,0,0,1,2.62,3.67,3,3,0,0,1-.09,2,2.3,2.3,0,0,0,.4-1.46,5.53,5.53,0,0,0-1.67-3.13A6.05,6.05,0,0,0,73.15,62.51Z"/><path class="cls-4" d="M28.78,102.62a6.07,6.07,0,0,0,.54.82c-.22-.33-.43-.67-.64-1Z"/><path class="cls-4" d="M87.93,97.47a5.9,5.9,0,0,1-4.33,2.83,4.22,4.22,0,0,1-4.82-2.21,20,20,0,0,1-1.86-5.3c-1.68,0-1.57-4.18-1.26-5.28a5.44,5.44,0,0,1,4.59-3.86,9.18,9.18,0,0,1,4.38.05,61.11,61.11,0,0,1-1.08-11.36c0-.32,0-.63,0-.95a36.58,36.58,0,0,1-3-7.14A21,21,0,0,0,79.34,60a17.27,17.27,0,0,1-1.26-3c-.07-.26.87-.08.95.2.62,2.18,1.69,4.13,2.25,6.36a33.19,33.19,0,0,0,2.22,5.81l.12.26a60.6,60.6,0,0,1,3.14-16.82c-1.35.17-2.7.4-4,.59-.25,0-1.11-.42-.58-.49,1.06-.15,2.18-.35,3.33-.52-.56-.64-1.12-1.28-1.71-1.91a.82.82,0,0,1-.48-.17C79.94,46,74,45.07,68.93,44.68c-1.3-.1-2.63-.17-4-.21s-2.4.24-3.61.29-2.16,0-3.23-.06a31.49,31.49,0,0,0-6,1.21l-1,.33a5.76,5.76,0,0,0,.68.13c.68.08.16.43-.26.39-3.38-.38-4.92-2.78-7.35-4.83-2.79-2.35-6.37-1.54-9.85-.63a9.37,9.37,0,0,1-2.82,1.09,26,26,0,0,1-3.62.13c-2.67.27-5.43.5-8.14.91-1.29.34-2.58.71-3.9,1-.83.17-1.7.35-2.56.57l-.26.08c-2.49.92-5.8,2.25-6.17,5.28a12.6,12.6,0,0,0,.6,5.28,32.82,32.82,0,0,0,2.41,6.63c.27.4.54.8.83,1.19l.81,1.08.12-.19c-.13,0-.25-.07-.2-.13.28-.29.56-.57.85-.85.09-.09.56,0,.47.1-.32.48-.63,1-.94,1.44l.14.17.52-.82c.07-.11.53,0,.49.08a11.6,11.6,0,0,0-.48,1.37,21.26,21.26,0,0,1,2.09,2.8c1.25,2.1,2.2,4.23,3.93,6,.31.32.67.69,1.05,1.05l1,.71a5.88,5.88,0,0,0,1.69.87,2.84,2.84,0,0,0,2.15-.51,17.12,17.12,0,0,0,2.33-2,60.18,60.18,0,0,0,4.74-4.59,64.49,64.49,0,0,0,3.81-5.32c2.64-4,4.93-7.56,5.06-12.5,0-.29,1-.29,1,0C41.19,58,38,62.31,34.87,66.9a31.63,31.63,0,0,1-5.43,6.23c-1.49,1.27-2.91,3.22-4.76,4a5.07,5.07,0,0,1-1.06.31,22,22,0,0,0,0,3.63,56.51,56.51,0,0,0,3.25,15.6c.07.15.14.3.2.46s.21.58.31.88A36.58,36.58,0,0,0,30,103.13a23.85,23.85,0,0,0,2.52,3.36l.39.38a28.58,28.58,0,0,0,4.38,3.79c.74.51,1.51,1,2.28,1.41s1.84,1,2.79,1.44c.6.28,1.17.61,1.75.93,1,.42,2,.8,3.05,1.13,5.87,1.89,11.6,1.65,17.36.55l1-.25c.8-.19,1.63-.34,2.46-.5q1.48-.36,3-.76a82.08,82.08,0,0,0,10.45-3.44c.63-.38,1.27-.75,1.93-1.05.41-.19.83-.36,1.25-.52l0,.07a34.31,34.31,0,0,0,4.85-3,27.05,27.05,0,0,0,3-2.62,60.76,60.76,0,0,1-4-7.69C88.31,96.75,88.12,97.12,87.93,97.47ZM80.4,77.12A1.79,1.79,0,1,1,78.72,79,1.79,1.79,0,0,1,80.4,77.12ZM79.8,51a1.79,1.79,0,1,1-1.68,1.89A1.79,1.79,0,0,1,79.8,51ZM12.31,54.78a2.38,2.38,0,1,1,2.24-2.52A2.38,2.38,0,0,1,12.31,54.78ZM27.16,71.09c-1.27,1-2.79,2.62-4.44,3-3,.77-5.92-1.54-6.79-4.37,0-.16.45-.16.48,0a6,6,0,0,0,2.46,3.43c3.07,1.93,5.22,0,7.22-1.64a44.15,44.15,0,0,0,5.84-5.8c.1-.12.56,0,.48.07A40.46,40.46,0,0,1,27.16,71.09Zm6.12-8.81a15.73,15.73,0,0,1-3.92,4.81,11.74,11.74,0,0,1-5.53,2.72,10,10,0,0,1-6.32-1.47c-2-1.29-3.75-3.34-2.39-5.78a12.36,12.36,0,0,1,4.29-4c1.69-1,3.52-1.86,4.9-2.87a24.65,24.65,0,0,1,4.94-2.81H29s-.39-.09-.33-.2A11.22,11.22,0,0,1,30,51a21.94,21.94,0,0,1-2.18,1.19c-.12.05-.56-.15-.38-.23,1.19-.53,2.25-1.28,3.4-1.89.1-.05.56.06.44.2a25,25,0,0,0-2,2.38,8.52,8.52,0,0,1,2-.39.77.77,0,0,1,.23.07,4.17,4.17,0,0,1,.48,0l0,0a4.48,4.48,0,0,1,3.06,4.46A11.69,11.69,0,0,1,33.28,62.28ZM34.14,49a2.32,2.32,0,1,1,2.18-2.45A2.32,2.32,0,0,1,34.14,49Zm37.08-2.47a2.78,2.78,0,1,1-2.61,2.94A2.78,2.78,0,0,1,71.22,46.58Zm3.66,11A2.71,2.71,0,1,1,72,55,2.71,2.71,0,0,1,74.88,57.58Zm-2,19.88c-.3,5.63-9.46,5.46-9.16-.1S72.62,71.9,72.92,77.45Zm.13,10a2.58,2.58,0,1,1-2.73-2.43A2.58,2.58,0,0,1,73,87.48ZM56.9,46.4a1.92,1.92,0,1,1-1.81,2A1.92,1.92,0,0,1,56.9,46.4Zm1.36,28.05c-.3,5.63-9.46,5.46-9.16-.1S58,68.9,58.25,74.45ZM48.72,62.83a3.43,3.43,0,0,1,0-.35A5.72,5.72,0,0,1,53,59a2.15,2.15,0,0,1,2.61,2.14,4.73,4.73,0,0,1-4.24,4.38c-1.68,0-2.81-.93-2.71-2.51C48.71,62.94,48.72,62.88,48.72,62.83ZM42.87,64a2.25,2.25,0,1,1-2.11,2.38A2.25,2.25,0,0,1,42.87,64Zm.72,21.15a1.59,1.59,0,1,1-1.68-1.49A1.59,1.59,0,0,1,43.59,85.14ZM34.34,97.78a2.32,2.32,0,1,1,2.18-2.45A2.31,2.31,0,0,1,34.34,97.78Zm-.43-10.62c-2.62.26-5.32-.22-7.08-2.68a6.32,6.32,0,0,1-.43-6.18,10.07,10.07,0,0,1,4.2-4.77c1.94-1.09,4.43-1.59,6.32-.15L39,74.81c1.69,2.68,2.59,5.14,1,8.25A7.31,7.31,0,0,1,33.91,87.16ZM74.35,97.78a4.88,4.88,0,0,0-.92-.45c1,1.62-1.25,5.64-2.19,7.14-1.43,2.31-4,5.07-6.74,6.13a3.38,3.38,0,0,1-3,1c-3.56-.22-6.54-3.45-9.93-4.37s-7.27-1-10.38-2.71c-2.69-1.47-3.14-3.57-2.43-5.71a4.21,4.21,0,0,1,.3-.78,17.26,17.26,0,0,1,5.11-5.93,29.16,29.16,0,0,0,4.51-12.07c0-.3,1-.24,1,0a28.51,28.51,0,0,1-3,9.73l-.58,1,.44-.24h0l0,0,.14-.05.08,0a10.46,10.46,0,0,1,3.76-1c.21,0,.42,0,.63,0l.53,0h0c.24,0,.49,0,.73,0l.63,0,.5.06c.31,0,.63.09.94.16l.21,0a14.55,14.55,0,0,1,1.88.53,14.06,14.06,0,0,1,1.3.57C60.47,92,63.32,93.62,64.75,96A13.66,13.66,0,0,1,66,107.2a18.52,18.52,0,0,1-.83,2.39,10.74,10.74,0,0,0,2.15-1.66,19.32,19.32,0,0,0,3.63-4.66c.69-1.27,2.66-4.32,1.76-5.81a1.4,1.4,0,0,0-.38-.39,4.2,4.2,0,0,0-.86,0c-.27,0-1-.27-.38-.37a5,5,0,0,1,.77-.07,4.19,4.19,0,0,1,.56,0,10.15,10.15,0,0,1,1.31.05,2.13,2.13,0,0,1,1.63,1C75.47,97.91,74.52,98,74.35,97.78Zm.22-28.31a2.34,2.34,0,0,1-2.32.05,2.84,2.84,0,0,1-.94-1.11,5.14,5.14,0,0,1-.57-.64c-.9-1.43-1.93-5,.49-5.74,1.59-.47,3,.78,4,1.91,1.31,1.54,2.06,3.76.13,5.15A2.56,2.56,0,0,1,74.57,69.47ZM77,106.93a1.52,1.52,0,1,1,1.43-1.61A1.52,1.52,0,0,1,77,106.93Zm13.07-4.28a3,3,0,0,1-5.92.49,1.59,1.59,0,1,1,0-.89,3,3,0,0,1,5.88.4Z"/><path class="cls-4" d="M43.3,40.44c-1.7-1-4-.81-6.1-.32a7.74,7.74,0,0,0-1,.34,12.69,12.69,0,0,1,4.5-.63c2.77.24,4.48,2.19,6.32,3.91A20,20,0,0,0,43.3,40.44Z"/><path class="cls-4" d="M5.91,51.51a7.06,7.06,0,0,1,.16-1.3,5.07,5.07,0,0,0-.17,1.18S5.91,51.47,5.91,51.51Z"/><path class="cls-4" d="M62.64,111.06a5.91,5.91,0,0,1-2.32-.08A3.36,3.36,0,0,0,63,111l-.21,0Z"/><path class="cls-6" d="M57.42,104.24v-.11A.84.84,0,0,0,57.42,104.24Z"/><path class="cls-6" d="M53.59,89.57c.31,0,.63.09.94.16C54.22,89.66,53.91,89.61,53.59,89.57Z"/><path class="cls-6" d="M54.74,89.77a15,15,0,0,1,2.57.83l.62.28a14.06,14.06,0,0,0-1.3-.57A14.55,14.55,0,0,0,54.74,89.77Z"/><path class="cls-6" d="M47.34,91c-3.37,1.8-12.14,9.75-6.09,13.07,4.63,2.54,10.34,1.92,15,4.71A21.88,21.88,0,0,0,60.32,111a5.91,5.91,0,0,0,2.32.08l.14,0,.31-.09a2.1,2.1,0,0,0,.58-.53,8.92,8.92,0,0,0,1.18-3,13.87,13.87,0,0,0,.28-8.64C62.74,91.9,54,88.06,47.34,91Zm-.46,12.32a2.43,2.43,0,0,1-1.83-1.76c-.88-.62-.35-2.31.34-3,1.2-1.16,3.13-.39,3.79,1C50,101.31,49.19,103.87,46.88,103.34ZM60.62,107l-.06,0c-.07,0-.14,0-.21,0l-.19,0a2.25,2.25,0,0,1-1.05-.14,2.94,2.94,0,0,1-2.32-3.26c0-.07.15-.07.27,0a2.37,2.37,0,0,1,.31-.67,2.54,2.54,0,0,1,1.94-1.24,2.94,2.94,0,0,1,3.07,2.67A2.44,2.44,0,0,1,60.62,107Z"/><path class="cls-6" d="M57.28,104.6a2.78,2.78,0,0,0,.45,1.12,2.58,2.58,0,0,1-.33-1.09Z"/><path class="cls-6" d="M46.69,90.52a12.93,12.93,0,0,1,3.85-1,10.46,10.46,0,0,0-3.76,1Z"/><path class="cls-6" d="M52.47,89.47l.63,0Z"/><path class="cls-6" d="M46,102.57a1.52,1.52,0,0,0,1.57.55,1.87,1.87,0,0,0,.94-.55,2.19,2.19,0,0,1-1,.36A2.1,2.1,0,0,1,46,102.57Z"/><path class="cls-6" d="M51.17,89.47l.56,0h0Z"/><path class="cls-7" d="M45.59,99.07a4.16,4.16,0,0,0-.52,1.53A2,2,0,0,1,46,99.42c.11-.07.57.08.4.19a1.84,1.84,0,0,0-.94,1.93s0,0,.09,0c.28.06.25.24,0,.2a2.37,2.37,0,0,0,.44.8,2.1,2.1,0,0,0,1.48.36,2.19,2.19,0,0,0,1-.36,2.58,2.58,0,0,0,.36-2.68C48.28,98.51,46.58,97.54,45.59,99.07Z"/><path class="cls-7" d="M60.56,107l.06,0-.27.06C60.42,107,60.49,107,60.56,107Z"/><path class="cls-7" d="M59.62,101.95a2.36,2.36,0,0,0-1.76,1.14,4.39,4.39,0,0,0-.43,1v.11c0,.1,0,.18.08.22l.08.14h0s-.1,0-.17,0a2.58,2.58,0,0,0,.33,1.09,2.34,2.34,0,0,0,2.19,1.12,2.23,2.23,0,0,0,2-2C62,103.61,61.22,101.74,59.62,101.95Z"/><path class="cls-7" d="M59.11,106.92a2.25,2.25,0,0,0,1.05.14,2.37,2.37,0,0,1-.51,0A3.84,3.84,0,0,1,59.11,106.92Z"/><path class="cls-8" d="M36.92,73.38c-1.89-1.44-4.38-.94-6.32.15a10.07,10.07,0,0,0-4.2,4.77,6.32,6.32,0,0,0,.43,6.18c1.76,2.46,4.47,2.94,7.08,2.68A7.31,7.31,0,0,0,40,83.06c1.6-3.11.71-5.57-1-8.25Z"/><path class="cls-8" d="M80.25,83.65a5.44,5.44,0,0,0-4.59,3.86c-.31,1.09-.42,5.28,1.26,5.28a20,20,0,0,0,1.86,5.3,4.22,4.22,0,0,0,4.82,2.21,5.9,5.9,0,0,0,4.33-2.83c.19-.34.38-.72.56-1.11A60.4,60.4,0,0,1,84.63,83.7,9.18,9.18,0,0,0,80.25,83.65Z"/><circle class="cls-9" cx="70.47" cy="87.63" r="2.58" transform="translate(-5.08 4.34) rotate(-3.4)"/><circle class="cls-9" cx="42" cy="85.23" r="1.59" transform="translate(-4.96 2.63) rotate(-3.38)"/><circle class="cls-9" cx="43" cy="66.24" r="2.25" transform="translate(-3.79 2.62) rotate(-3.35)"/><circle class="cls-9" cx="57.01" cy="48.32" r="1.92" transform="translate(-2.72 3.4) rotate(-3.34)"/><circle class="cls-9" cx="71.38" cy="49.35" r="2.78" transform="translate(-2.76 4.26) rotate(-3.35)"/><circle class="cls-9" cx="79.9" cy="52.77" r="1.79" transform="translate(-2.99 4.83) rotate(-3.4)"/><circle class="cls-9" cx="72.17" cy="57.73" r="2.71" transform="translate(-3.27 4.35) rotate(-3.38)"/><circle class="cls-9" cx="80.5" cy="78.9" r="1.79" transform="translate(-4.52 4.89) rotate(-3.38)"/><path class="cls-9" d="M87,99.85a3,3,0,0,0-2.74,2.4,1.58,1.58,0,1,0,0,.89A3,3,0,1,0,87,99.85Z"/><circle class="cls-9" cx="34.21" cy="95.46" r="2.32" transform="translate(-5.5 2.15) rotate(-3.34)"/><path class="cls-9" d="M79.48,40.6v0h0a.08.08,0,0,1,0-.08l.39-.45a2.84,2.84,0,1,0,.38,1.31l-.75-.71A.11.11,0,0,1,79.48,40.6Z"/><path class="cls-9" d="M87.84,45.9a2.17,2.17,0,0,0,1,1.69C89.4,46.27,90,45,90.7,43.71a2.18,2.18,0,0,0-2.87,2.2Z"/><path class="cls-9" d="M112.5,16.81a2,2,0,0,0-.3,3.92q1.14-.71,2.32-1.38a2,2,0,0,0-2-2.54Z"/><path class="cls-9" d="M126.26,11.76a2.65,2.65,0,0,0-2.49,2.8,2.75,2.75,0,0,0,.08.51q2.47-.89,5-1.56A2.64,2.64,0,0,0,126.26,11.76Z"/><path class="cls-9" d="M189.81,31.92c1.12,1.26,2.2,2.56,3.21,3.91,0-.06,0-.11,0-.16A4.09,4.09,0,0,0,189.81,31.92Z"/><path class="cls-9" d="M198.3,100.46a60.9,60.9,0,0,1-4.06,6.68,4,4,0,1,0,4.06-6.68Z"/><circle class="cls-9" cx="192.12" cy="116.99" r="2.65" transform="translate(-6.57 11.54) rotate(-3.38)"/><circle class="cls-9" cx="99.76" cy="130.53" r="2.52" transform="translate(-7.53 6.11) rotate(-3.38)"/><path class="cls-9" d="M185,120.15a2.25,2.25,0,1,0,2.38,2.11A2.25,2.25,0,0,0,185,120.15Z"/><path class="cls-9" d="M176.65,123.87q-2.2,1.38-4.51,2.57s0,.1,0,.15a3,3,0,1,0,4.52-2.71Z"/><path class="cls-9" d="M95.21,112.62a2.24,2.24,0,0,0,4.29.77c-.91-1-1.78-2-2.62-3.08A2.24,2.24,0,0,0,95.21,112.62Z"/><circle class="cls-9" cx="89" cy="118.62" r="2.18" transform="translate(-6.8 5.42) rotate(-3.36)"/><circle class="cls-9" cx="48.15" cy="122.75" r="0.59" transform="translate(-7.18 3.06) rotate(-3.39)"/><circle class="cls-9" cx="54.44" cy="127.22" r="2.78" transform="translate(-7.37 3.41) rotate(-3.36)"/><circle class="cls-9" cx="76.96" cy="105.41" r="1.52" transform="translate(-6.12 4.75) rotate(-3.4)"/><circle class="cls-9" cx="87.35" cy="127.8" r="1.99" transform="matrix(1, -0.06, 0.06, 1, -7.36, 5.36)"/><circle class="cls-9" cx="91.59" cy="109.65" r="2.12" transform="translate(-6.24 5.53) rotate(-3.34)"/><path class="cls-9" d="M24.48,101.19a2.21,2.21,0,0,0-.48,0,2.26,2.26,0,1,0,.48,0Z"/><circle class="cls-9" cx="28.47" cy="116.28" r="2.51" transform="translate(-6.79 1.88) rotate(-3.37)"/><circle class="cls-9" cx="12.17" cy="52.4" r="2.38" transform="translate(-3.01 0.79) rotate(-3.31)"/><circle class="cls-9" cx="34" cy="46.74" r="2.32" transform="translate(-2.69 2.08) rotate(-3.37)"/><path class="cls-5" d="M32,52.28l0,0a4.17,4.17,0,0,0-.48,0c.06,0,.11.07.1.13-.31.93-1.39,2.77.53,2.41.13,0,.55.2.38.23-.51.1-1.64.29-1.92-.38s.19-1.53.46-2.2c-.6.07-1.15.36-1.76.4a24.65,24.65,0,0,0-4.94,2.81c-1.37,1-3.21,1.83-4.9,2.87a12.36,12.36,0,0,0-4.29,4c-1.36,2.44.36,4.49,2.39,5.78a10,10,0,0,0,6.32,1.47,11.74,11.74,0,0,0,5.53-2.72,15.73,15.73,0,0,0,3.92-4.81,11.69,11.69,0,0,0,1.78-5.54A4.48,4.48,0,0,0,32,52.28ZM23.48,66.65a4.05,4.05,0,0,1-1.12-.93,3.65,3.65,0,0,1,0,1.33c0,.17-.4.13-.49.05-.54-.47-1.93-2.12-1.26-2.89.1-.12.56-.06.48,0-.5.56.21,1.65.8,2.32a9.89,9.89,0,0,0-.83-3.1c0-.11.45-.18.5,0a5.14,5.14,0,0,0,2.29,3.08C24.06,66.61,23.6,66.71,23.48,66.65Zm7.66-7.43a10.78,10.78,0,0,1-3.65-.8A7.25,7.25,0,0,1,27.78,60s0,.07-.11.08a8.92,8.92,0,0,1,.49,1.47c0,.12-.34.08-.38.07-.65-.23-3.52-3.1-2-3.07.3,0,.28.21,0,.2-.13,0,.68,1.28.75,1.36a6.52,6.52,0,0,0,1.07,1.09,8.67,8.67,0,0,0-.47-1.32,2.49,2.49,0,0,1-1.27-2c0-.16.43-.08.49,0A8.57,8.57,0,0,1,27.14,59c-.06-.28-.14-.55-.2-.84,0-.12.34-.08.38-.07A11.73,11.73,0,0,0,31,59C31.23,59,31.48,59.21,31.14,59.22Z"/><path class="cls-10" d="M48.7,63s0-.1,0-.15S48.71,62.94,48.7,63Z"/><path class="cls-10" d="M49.23,62.65a2.61,2.61,0,0,0,.26,1.89,3.62,3.62,0,0,0,.81.41,3.08,3.08,0,0,0,1.93,0,4.31,4.31,0,0,0,1.23-.73c1-.88,2.08-2.37,1.65-3.81C54.16,57.3,49.78,60.83,49.23,62.65Z"/><path class="cls-10" d="M71.31,68.41a2.84,2.84,0,0,0,.94,1.11,2.34,2.34,0,0,0,2.32-.05A3.41,3.41,0,0,1,71.31,68.41Z"/><path class="cls-10" d="M73.15,62.51,73,62.41a1.77,1.77,0,0,0-2.55,1.11,5.21,5.21,0,0,0,.81,4.27c.93,1.27,2.89,2.21,4.12.82a3.71,3.71,0,0,0,.33-.45,3,3,0,0,0,.09-2A8.12,8.12,0,0,0,73.15,62.51Z"/><path class="cls-11" d="M36.44,126.35c.06.79.08,1.57.11,2.35a21.88,21.88,0,0,0,.33,2.29c1.54-2.14.76-5.13-1.06-7.12A6.91,6.91,0,0,1,36.44,126.35Z"/><path class="cls-11" d="M34.82,123a6.37,6.37,0,0,0-3.72-.89c-.69,0-1.33-.06-2-.09-.88,0-2.25-1-3.09-.47-1.59,1,.47,3,1.57,3.55,1.4.66,7,1.81,6.47,4.26-.18.79-2.23,1.37-2.92,2.17-.51.59-2.75,2.66-2.3,3.59,1.42,2.89,6-1.71,7.59-3.5-.49-2.45.22-5.7-1.09-7.85Z"/><path class="cls-11" d="M13,104.74a5.61,5.61,0,0,1,.55,1.48,15.48,15.48,0,0,1,.26,3.72c0,.6-.55,3.45.46,2.12,1.12-1.49,1.23-4.27.42-6.47A11,11,0,0,0,13,104.74Z"/><path class="cls-11" d="M15.25,105.93c1,2.55.76,5.71-1.34,7-.09.06-.45,0-.46-.13-.22-1.93.21-4-.2-5.88a8.37,8.37,0,0,0-.88-2.38l-.43-.13a31.73,31.73,0,0,0-5.35-.84c-2.47-.12-4.36.44-2.5,2.55a19.89,19.89,0,0,0,4.4,2.66c-1.22.93-2.58,2.28-2.63,3.78-.09,2.65,3.4,1.75,5.15,2s3.14,1,4.67-.09c2.53-1.81,3.07-4.07,2-6A8,8,0,0,0,15.25,105.93Z"/><path class="cls-5" d="M104.13,21.62a76.25,76.25,0,0,0-9.33,8h0l-.08.07-.92.95q-1.48,1.63-2.93,3.3-.76.94-1.52,1.9a.27.27,0,0,1-.12.07Q87.57,38.11,86,40.38a7.83,7.83,0,0,0,5.52,1.82,61.08,61.08,0,0,1,10.27-13.31,3.57,3.57,0,0,1-.44-.25c-.27-.18.17-.17.29-.08a2.75,2.75,0,0,0,.32.17l1.07-1-.17-.13c-.14-.12.07-.14.16-.12l.22.05c1.25-1.15,2.56-2.24,3.91-3.28A8.71,8.71,0,0,0,104.13,21.62Z"/><circle class="cls-9" cx="106.87" cy="123.74" r="2.25" transform="translate(-7.07 6.47) rotate(-3.36)"/><path class="cls-9" d="M117.39,129a2.78,2.78,0,0,0,5.51.29c-1.69-.64-3.34-1.34-5-2.12A2.76,2.76,0,0,0,117.39,129Z"/><circle class="cls-9" cx="202.52" cy="95.57" r="1.19" transform="translate(-5.25 12.03) rotate(-3.36)"/><path class="cls-12" d="M53.67,70.7a4.57,4.57,0,0,0-1.4.22,3.89,3.89,0,0,0-2.19,3.54A4.47,4.47,0,0,0,52,77.88a4.27,4.27,0,0,0,1.67.33,4.46,4.46,0,0,0,1-.11,4.28,4.28,0,0,0,1.16-.68,2.17,2.17,0,1,1,1.35-2.27,4.92,4.92,0,0,0,.11-.79,4.56,4.56,0,0,0-1.58-3.18A4.29,4.29,0,0,0,53.67,70.7Z"/><path class="cls-12" d="M68.34,73.7a4.56,4.56,0,0,0-1.4.22,3.89,3.89,0,0,0-2.19,3.54,4.47,4.47,0,0,0,1.92,3.42,4.27,4.27,0,0,0,1.67.33,4.46,4.46,0,0,0,1-.11,4.28,4.28,0,0,0,1.16-.68,2.17,2.17,0,1,1,1.35-2.27,4.92,4.92,0,0,0,.11-.79,4.56,4.56,0,0,0-1.58-3.18A4.29,4.29,0,0,0,68.34,73.7Z"/><path class="cls-13" d="M80.09,39.83c.62-.72,1.25-1.44,1.89-2.15l-.16-.21C80.57,38.13,79.81,38.36,80.09,39.83Z"/><path class="cls-13" d="M81,42.09l-.4-.38c.39,1.27.74,2,2,1.88L81,42.11Z"/><path class="cls-13" d="M82.53,38.37c-.68.77-1.37,1.53-2,2.31l2.63,2.48c.49-.86,1-1.7,1.53-2.54A23,23,0,0,1,82.53,38.37Z"/><path class="cls-13" d="M120.5,12.59s0,0,0,0,0,0,0,.05l-1.14.46c2.67-.52,4.08.7,4.76-1.8-1.22.33-2.43.73-3.63,1.19Z"/><path class="cls-13" d="M123.11,8.34l.56,1.22,0,0,.5,1.12A2.31,2.31,0,0,0,123.11,8.34Z"/><path class="cls-13" d="M120.38,8.65a24.51,24.51,0,0,1,1.89,2.65l.69-.23a1.11,1.11,0,0,0,.41-.19c-.19-.3-.9-1.85-1.29-2.71C121.51,8.31,120.94,8.47,120.38,8.65Z"/><path class="cls-14" d="M107.75.8A23.06,23.06,0,0,0,98.41.63q.74,0,1.48-.05h.8l.63,0h.23a23,23,0,0,1,4.08.62,22.78,22.78,0,0,1,5.33,2A23.49,23.49,0,0,1,120.18,12l.27-.11.83-.3c.3-.24.46-.48.32-.69A23.25,23.25,0,0,0,107.75.8Z"/><path class="cls-15" d="M89.35,3.48C80.05,8.74,75,20.14,78.54,30.49A23,23,0,0,0,83,38.42c.76.86,1.48,2.26,2.48,1.19l.14-.19c-7.66-7.18-9.57-19.3-3.33-28.08a22,22,0,0,1,23.09-8.7,21.28,21.28,0,0,1,13.28,10l1.18-.47C113.69,1.81,100.13-2.62,89.35,3.48Z"/><path class="cls-15" d="M101.32.61l-.63,0Z"/><path class="cls-15" d="M103.12.79c-.52-.07-1-.13-1.57-.17C102.07.66,102.59.73,103.12.79Z"/><path class="cls-15" d="M103.12.79l.86.13Z"/><path class="cls-15" d="M104,.92l.31.06Z"/><path class="cls-15" d="M105.63,1.25c-.45-.11-.9-.18-1.35-.27A23.73,23.73,0,0,1,111,3.3,22.78,22.78,0,0,0,105.63,1.25Z"/><path class="cls-15" d="M99.89.58h0Z"/><path class="cls-16" d="M105.19,2.81C95.35.56,84.64,5.55,80.73,15a21.38,21.38,0,0,0,4.8,23.88c.11.1.3,0,.52-.18q1.17-1.65,2.41-3.23a17.16,17.16,0,0,1-4.23-6.87l-1.42-.38-.07-.09.47-1.06c.05-.12.31-.11.41-.09l.19,0a16.79,16.79,0,0,1,3.43-14.27c4.08-5,10.87-6.84,17-5.46a16.09,16.09,0,0,1,10,7.12h0c.3-.13.72-.25,1.16-.39q1-.47,2-.9a1,1,0,0,0,.14-1.41A20.79,20.79,0,0,0,105.19,2.81Z"/><path class="cls-17" d="M103.94,7.51c-8.29-1.86-17.2,3-19.46,11.34a17.64,17.64,0,0,0-.26,8.28c1.38.21,2.93.19,3.8-1,.52-.71,1-1.46,1.43-2.21,1.11-1.89,2.14-3.82,3.13-5.77.87-1.71,1.75-3.43,2.51-5.2.41-.95.21-1.17-1-1.49-.75-.2-1.5-.38-2.26-.51l-.13-.1.4-.8c.05-.1.27-.11.36-.1a19.81,19.81,0,0,0,8-.29,3.19,3.19,0,0,1,1.42.26l.07.09q-2.35,4.17-4.64,8.37c-1.56,2.88-3.85,6.06-4.67,9.27,0,1,.6,1.38,1.36,1.66q2.25-2.28,4.68-4.37A48.8,48.8,0,0,1,106.36,19c1-.62,2-1.2,3.09-1.75l.62-.37c1.15-.66,2.31-1.28,3.49-1.88.19-.38.1-.89-.49-1.66A16.19,16.19,0,0,0,103.94,7.51Z"/><path class="cls-17" d="M87.42,27a1.2,1.2,0,0,0,.35-.27,3.45,3.45,0,0,1-.74.4A3.21,3.21,0,0,0,87.42,27Z"/><path class="cls-17" d="M84.67,28.76A14.18,14.18,0,0,0,85.62,31a16.88,16.88,0,0,0,3.09,4.23q1.81-2.26,3.78-4.38c-.52-.07-1.15-.31-2.21-.59Z"/><path class="cls-18" d="M99.19,10.11a21.83,21.83,0,0,1-3.49.32c-.8,0-3-.5-3.39.21-.07.13,2.68.78,3.29,1.08s.06,1.06-.13,1.48a107.32,107.32,0,0,1-5.3,10.33,10.09,10.09,0,0,1-2.4,3.2,1.2,1.2,0,0,1-.35.27,3.21,3.21,0,0,1-.39.13,4.82,4.82,0,0,1-2.29.27c-1.5-.13-1-.44-1.44.61-.09.21.48.24.8.33l5.14,1.37,3.45.92,1.07-1.11a2.08,2.08,0,0,0-.54-.21c-.75-.4-1.11-.73-1.1-1.61v0h0c.74-2.9,2.77-5.77,4.18-8.37q2.43-4.48,4.93-8.91C101.76,9.45,99.65,10,99.19,10.11Z"/><path class="cls-19" d="M196.61,72.11q0-2.51-.25-5l-2.63.28-.05-.5,2.63-.28q-.27-2.49-.75-4.91l-2.61.56-.1-.49,2.61-.55q-.52-2.45-1.25-4.81l-2.57.83-.15-.48L194,56q-.77-2.38-1.75-4.66l-2.49,1.11-.2-.46,2.49-1.11q-1-2.29-2.23-4.46L185.14,49a46.79,46.79,0,0,1,.1,46.74l4.6,2.62q1.22-2.17,2.23-4.45l-2.48-1.11.2-.46,2.48,1.11q1-2.27,1.75-4.65l-2.55-.83.15-.48,2.56.83q.74-2.36,1.26-4.81l-2.6-.55.1-.49,2.61.55c.33-1.61.57-3.25.75-4.91l-2.63-.28.05-.5,2.63.28q.24-2.45.25-5H191.7v-.5Z"/><path class="cls-19" d="M144.31,112.57a1.69,1.69,0,0,0-1.77,1.87,1.78,1.78,0,0,0,1.79,2c1.19,0,1.68-1,1.68-2A1.66,1.66,0,0,0,144.31,112.57Z"/><polygon class="cls-19" points="181.14 93.05 181.14 89.18 178.38 93.05 181.14 93.05"/><path class="cls-19" d="M113.67,29.66l1.75,2.41-.4.29-1.75-2.41q-2,1.5-3.86,3.19l2,2.18-.37.33-2-2.18c-.55.51-1.09,1-1.62,1.56s-1.27,1.32-1.88,2L107.68,39l-.33.37-2.13-1.92q-1.64,1.88-3.11,3.91L104.4,43l-.29.4-2.28-1.65q-1.44,2-2.69,4.22L104,49.06A47.06,47.06,0,0,1,120.9,32l-3.06-5.12Q115.69,28.17,113.67,29.66Z"/><path class="cls-19" d="M184.66,43.4l-.29-.4,2.28-1.66q-1.46-2-3.1-3.91l-2.12,1.91-.33-.37,2.13-1.92c-.62-.69-1.25-1.37-1.9-2s-1.06-1-1.6-1.54l-2,2.17-.37-.33,2-2.18Q177.5,31.47,175.5,30l-1.75,2.41-.4-.29,1.75-2.41q-2-1.48-4.18-2.77l-3.1,4.81-.42-.27,3.08-4.79q-2.16-1.26-4.44-2.31l-1.25,2.81-.46-.2,1.25-2.81q-2.28-1-4.67-1.83l-1,3-.47-.15,1-3q-2.37-.77-4.84-1.32L155,23.88l-.49-.1.66-3.08q-2.44-.52-5-.79L149.83,23l-.5-.05.33-3.14q-2.48-.25-5-.26V25.5h-.5V19.59q-2.54,0-5,.26l.33,3.14-.5.05-.33-3.13q-2.52.28-5,.79l.65,3.08-.49.1-.65-3.07q-2.47.54-4.85,1.32l1,3-.47.15-1-3q-2.39.8-4.67,1.83l1.25,2.81-.46.2-1.25-2.81q-2.28,1.05-4.45,2.31l3.06,5.12a46.83,46.83,0,0,1,63.55,16.76l4.72-2.58q-1.24-2.16-2.67-4.19Z"/><path class="cls-19" d="M104.21,96.15l-5,2.61q1.24,2.16,2.67,4.18l2.27-1.65.29.4-2.27,1.65q1.46,2,3.11,3.9l2.12-1.91.33.37-2.13,1.92c.61.68,1.23,1.35,1.88,2s1.07,1.05,1.62,1.56L111,109l.37.33-2,2.17q1.85,1.68,3.85,3.18l1.74-2.39.4.29L113.68,115q2,1.48,4.16,2.76l2.71-5.16A47.05,47.05,0,0,1,104.21,96.15Z"/><path class="cls-19" d="M144.63,119.26v5.82q2.54,0,5-.26l-.33-3.12.5-.05.33,3.11q2.52-.28,5-.79l-.65-3.06.49-.1.65,3q2.47-.54,4.84-1.32l-1-2.94.47-.15,1,2.93q2.39-.8,4.67-1.83l-1.24-2.79.46-.2,1.24,2.78q2.28-1.05,4.44-2.31l-2.7-4.68.43-.25,2.7,4.68q2.15-1.28,4.17-2.77l-1.74-2.39.4-.29,1.74,2.39q2-1.5,3.85-3.18l-1.94-2.16.37-.33,1.94,2.16c.55-.51,1.1-1,1.63-1.57s1.26-1.31,1.87-2l-2.12-1.91.33-.37,2.11,1.91q1.64-1.88,3.11-3.9l-2.27-1.65.29-.4,2.26,1.64q1.44-2,2.68-4.2L185,96.13A46.82,46.82,0,0,1,144.63,119.26Z"/><path class="cls-19" d="M113.25,49.51c-1.3,0-1.75,1.53-1.75,3.36s.45,3.36,1.75,3.36S115,54.7,115,52.87,114.55,49.51,113.25,49.51Z"/><path class="cls-19" d="M109.88,89.49a1.35,1.35,0,1,0,1.43,1.33A1.27,1.27,0,0,0,109.88,89.49Z"/><path class="cls-19" d="M118.27,118q2.16,1.26,4.45,2.32l1.24-2.79.46.2-1.25,2.79q2.28,1,4.67,1.83l1-2.94.48.15-1,2.94q2.37.77,4.84,1.32l.65-3,.49.1-.65,3.06q2.44.51,5,.79l.32-3.11.5.05-.33,3.11q2.47.25,5,.26v-5.83A46.61,46.61,0,0,1,121,112.87Z"/><path class="cls-19" d="M144.6,26.07a46.35,46.35,0,1,0,32.77,13.58A46.2,46.2,0,0,0,144.6,26.07ZM163.43,35h.24a1.81,1.81,0,0,0,1.92-1.44h.76v8.05h-1.08V35.57h-1.84Zm-23.57-6.39h.24A1.81,1.81,0,0,0,142,27.18h.76v8.05H141.7v-6h-1.84Zm-14.18,6.51h.24a1.81,1.81,0,0,0,1.92-1.44h.76v8.05h-1.08V35.69h-1.84Zm-19.8,15.15h.24A1.81,1.81,0,0,0,108,48.84h.76v8.05h-1.08V50.84h-1.84Zm-2.72,25.95a2.34,2.34,0,0,1-2.5-2h1a1.42,1.42,0,0,0,1.54,1.15c1.68,0,2-1.72,2-3h0a2.4,2.4,0,0,1-2,.85,2.5,2.5,0,0,1-2.59-2.71,2.62,2.62,0,0,1,2.76-2.84c1.38,0,2.89.49,2.89,4.17C106.2,75.69,104.41,76.22,103.16,76.22Zm6.72,20.94a2.43,2.43,0,0,1-2.72-2.52,2.09,2.09,0,0,1,1.47-2.08,1.84,1.84,0,0,1-1.17-1.77,2.43,2.43,0,0,1,4.84,0,1.84,1.84,0,0,1-1.16,1.77,2.09,2.09,0,0,1,1.46,2.08A2.43,2.43,0,0,1,109.88,97.17Zm3.36-40c-.6,0-2.82-.14-2.82-4.27s2.22-4.27,2.82-4.27,2.82.14,2.82,4.27S113.84,57.14,113.25,57.14Zm9.84-15.39H122V35.69h-1.84v-.56h.24a1.81,1.81,0,0,0,1.92-1.44h.76Zm6,62.83a11.46,11.46,0,0,0-2.24,3.62,12.92,12.92,0,0,0-.88,3.7H124.8a13.23,13.23,0,0,1,1-3.61,12.71,12.71,0,0,1,2.24-3.53h-4.82v-.91h5.88Zm15.21,12.69c-1.77,0-2.88-.93-2.88-4.17,0-4.3,2.33-4.37,3-4.37a2.34,2.34,0,0,1,2.49,2h-1a1.41,1.41,0,0,0-1.54-1.15c-1.68,0-2,1.72-2,3h0a2.4,2.4,0,0,1,2-.85,2.49,2.49,0,0,1,2.59,2.7A2.62,2.62,0,0,1,144.29,117.26ZM150,34.33v.91h-5.33l3.69,35A2.77,2.77,0,0,1,146.42,73l-.06.36L125.89,83.87l17-14.94,1.68-33.69h0c0-1.94,1.16-2.68,2.73-3.67.67-.42,1.65-.94,1.65-2.17a1.47,1.47,0,0,0-1.62-1.55,1.54,1.54,0,0,0-1.67,1.6v.3h-1.06v-.24a2.47,2.47,0,0,1,2.76-2.57A2.38,2.38,0,0,1,150,29.38c0,1.5-.71,2-2.59,3.18-1.09.69-1.54,1.17-1.69,1.76Zm14.62,77.11a2.45,2.45,0,0,1-2.71-2.3H163a1.55,1.55,0,0,0,1.65,1.44c.54,0,1.87-.1,1.87-2a1.68,1.68,0,0,0-1.77-1.9,2,2,0,0,0-1.58.7h-1l.57-4.25H167v.91h-3.55l-.32,2.38a2.59,2.59,0,0,1,1.81-.61,2.48,2.48,0,0,1,2.52,2.75A2.64,2.64,0,0,1,164.62,111.44ZM183.49,94h-1.27v1.86h-1.08V94h-3.79V93l3.79-5.28h1.09V93h1.27Zm2.72-25.54c2.24,0,2.55,1.58,2.55,2.21a1.8,1.8,0,0,1-1.32,1.78v0a1.88,1.88,0,0,1,1.55,2A2.48,2.48,0,0,1,186.22,77a2.53,2.53,0,0,1-2.82-2.7h1c0,.1,0,.18,0,.27a1.63,1.63,0,0,0,1.68,1.57,1.6,1.6,0,0,0,1.83-1.7,1.37,1.37,0,0,0-1.47-1.45h-.83v-.87H186c.34,0,1.76,0,1.76-1.39,0-.64-.32-1.4-1.59-1.4-.38,0-1.58.06-1.57,1.83h-1A2.41,2.41,0,0,1,186.21,68.41Zm-5.49-19.89a1.54,1.54,0,0,0-1.67,1.6v.3H178v-.24a2.47,2.47,0,0,1,2.76-2.57c1.65,0,2.7.89,2.7,2.44s-.71,2-2.59,3.19c-1.09.69-1.54,1.17-1.69,1.76h4.26v.91H178c0-1.94,1.16-2.68,2.72-3.67.67-.43,1.65-.94,1.65-2.18A1.46,1.46,0,0,0,180.72,48.52Z"/><path class="cls-19" d="M109.88,93a1.5,1.5,0,0,0-1.68,1.58,1.68,1.68,0,1,0,3.36,0A1.5,1.5,0,0,0,109.88,93Z"/><path class="cls-19" d="M92.13,72.59q0,2.51.25,5L95,77.28l.05.5-2.64.28c.18,1.66.42,3.3.75,4.91l2.62-.56.1.49-2.61.55q.52,2.45,1.26,4.81l2.57-.83.15.48-2.57.83q.77,2.38,1.75,4.66L99,92.29l.2.46-2.49,1.11q1,2.3,2.24,4.47l5-2.61a46.6,46.6,0,0,1-6.2-23.12Z"/><path class="cls-19" d="M103.27,68.55c-1.19,0-1.68,1-1.68,2a1.66,1.66,0,0,0,1.7,1.83,1.69,1.69,0,0,0,1.77-1.86A1.78,1.78,0,0,0,103.27,68.55Z"/><path class="cls-19" d="M96.67,50.83l2.5,1.11-.2.46-2.5-1.12q-1,2.28-1.75,4.66l2.57.84-.15.47-2.58-.84q-.74,2.36-1.26,4.81l2.62.56-.1.49-2.62-.56c-.33,1.61-.57,3.25-.75,4.91l2.64.28-.05.5-2.64-.28q-.24,2.45-.25,5h5.63a46.61,46.61,0,0,1,6-22.6l-4.86-3.11Q97.67,48.55,96.67,50.83Z"/><path class="cls-20" d="M144.37,12A60.32,60.32,0,1,0,187,29.68,60.13,60.13,0,0,0,144.37,12ZM194.54,55.8l.15.48h0q.75,2.38,1.27,4.86H196l.1.49h0q.49,2.44.76,5h.07l.05.5h-.07q.24,2.48.25,5h.08v.5h-.08q0,2.54-.25,5h.07l-.05.5h-.07q-.27,2.52-.76,5h.05l-.1.49h-.06q-.53,2.48-1.27,4.87h0l-.15.47h0q-.78,2.4-1.77,4.7h0l-.2.46h0A53.37,53.37,0,0,1,181.67,110a52.4,52.4,0,0,1-74.6,0,53.33,53.33,0,0,1-12.83-21.1h0l-.15-.48h0q-.75-2.38-1.27-4.86h0l-.1-.49h0q-.5-2.44-.76-5h-.07l-.05-.5h.07q-.24-2.48-.25-5h-.07v-.5h.07q0-2.54.25-5h-.06l.05-.5h.06q.27-2.52.76-5h0l.1-.49h0q.53-2.48,1.27-4.86h0l.15-.47h0a53.32,53.32,0,0,1,12.84-21.11,52.4,52.4,0,0,1,74.6,0,53.32,53.32,0,0,1,12.84,21.13Z"/><path class="cls-19" d="M140.1,28.62h-.24v.57h1.84v6h1.08V27.18H142A1.81,1.81,0,0,1,140.1,28.62Z"/><path class="cls-21" d="M140.1,28.62h-.24v.57h1.84v6h1.08V27.18H142A1.81,1.81,0,0,1,140.1,28.62Z"/><path class="cls-19" d="M147.43,32.57c1.87-1.2,2.59-1.68,2.59-3.18a2.38,2.38,0,0,0-2.69-2.44,2.47,2.47,0,0,0-2.76,2.57v.24h1.06v-.3a1.54,1.54,0,0,1,1.67-1.6,1.47,1.47,0,0,1,1.62,1.55c0,1.23-1,1.75-1.65,2.17-1.56,1-2.74,1.73-2.73,3.67h0l0-.47,0,.47H150v-.91h-4.26C145.89,33.74,146.34,33.26,147.43,32.57Z"/><path class="cls-21" d="M147.43,32.57c1.87-1.2,2.59-1.68,2.59-3.18a2.38,2.38,0,0,0-2.69-2.44,2.47,2.47,0,0,0-2.76,2.57v.24h1.06v-.3a1.54,1.54,0,0,1,1.67-1.6,1.47,1.47,0,0,1,1.62,1.55c0,1.23-1,1.75-1.65,2.17-1.56,1-2.74,1.73-2.73,3.67h0l0-.47,0,.47H150v-.91h-4.26C145.89,33.74,146.34,33.26,147.43,32.57Z"/><path class="cls-19" d="M120.4,35.13h-.24v.56H122v6.05h1.08V33.69h-.76A1.81,1.81,0,0,1,120.4,35.13Z"/><path class="cls-21" d="M120.4,35.13h-.24v.56H122v6.05h1.08V33.69h-.76A1.81,1.81,0,0,1,120.4,35.13Z"/><path class="cls-19" d="M125.92,35.13h-.24v.56h1.84v6.05h1.08V33.69h-.76A1.81,1.81,0,0,1,125.92,35.13Z"/><path class="cls-21" d="M125.92,35.13h-.24v.56h1.84v6.05h1.08V33.69h-.76A1.81,1.81,0,0,1,125.92,35.13Z"/><path class="cls-19" d="M106.12,50.28h-.24v.56h1.84v6.05h1.08V48.84H108A1.81,1.81,0,0,1,106.12,50.28Z"/><path class="cls-21" d="M106.12,50.28h-.24v.56h1.84v6.05h1.08V48.84H108A1.81,1.81,0,0,1,106.12,50.28Z"/><path class="cls-19" d="M113.25,48.6c-.6,0-2.82.14-2.82,4.27s2.22,4.27,2.82,4.27,2.82-.14,2.82-4.27S113.84,48.6,113.25,48.6Zm0,7.63c-1.3,0-1.75-1.53-1.75-3.36s.45-3.36,1.75-3.36S115,51,115,52.87,114.55,56.23,113.25,56.23Z"/><path class="cls-21" d="M113.25,48.6c-.6,0-2.82.14-2.82,4.27s2.22,4.27,2.82,4.27,2.82-.14,2.82-4.27S113.84,48.6,113.25,48.6Zm0,7.63c-1.3,0-1.75-1.53-1.75-3.36s.45-3.36,1.75-3.36S115,51,115,52.87,114.55,56.23,113.25,56.23Z"/><path class="cls-19" d="M103.31,67.69a2.62,2.62,0,0,0-2.76,2.84,2.5,2.5,0,0,0,2.59,2.71,2.4,2.4,0,0,0,2-.85h0c0,1.26-.28,3-2,3a1.42,1.42,0,0,1-1.54-1.15h-1a2.34,2.34,0,0,0,2.5,2c1.25,0,3-.54,3-4.37C106.2,68.18,104.69,67.69,103.31,67.69Zm0,4.68a1.66,1.66,0,0,1-1.7-1.83c0-1,.49-2,1.68-2a1.78,1.78,0,0,1,1.79,2A1.69,1.69,0,0,1,103.29,72.37Z"/><path class="cls-21" d="M103.31,67.69a2.62,2.62,0,0,0-2.76,2.84,2.5,2.5,0,0,0,2.59,2.71,2.4,2.4,0,0,0,2-.85h0c0,1.26-.28,3-2,3a1.42,1.42,0,0,1-1.54-1.15h-1a2.34,2.34,0,0,0,2.5,2c1.25,0,3-.54,3-4.37C106.2,68.18,104.69,67.69,103.31,67.69Zm0,4.68a1.66,1.66,0,0,1-1.7-1.83c0-1,.49-2,1.68-2a1.78,1.78,0,0,1,1.79,2A1.69,1.69,0,0,1,103.29,72.37Z"/><path class="cls-19" d="M111.14,92.56a1.84,1.84,0,0,0,1.16-1.77,2.43,2.43,0,0,0-4.84,0,1.84,1.84,0,0,0,1.17,1.77,2.09,2.09,0,0,0-1.47,2.08,2.72,2.72,0,0,0,5.43,0A2.09,2.09,0,0,0,111.14,92.56Zm-2.68-1.74a1.43,1.43,0,1,1,1.42,1.36A1.27,1.27,0,0,1,108.46,90.83Zm1.42,5.48a1.62,1.62,0,0,1-1.68-1.71,1.68,1.68,0,0,1,3.36,0A1.62,1.62,0,0,1,109.88,96.3Z"/><path class="cls-21" d="M111.14,92.56a1.84,1.84,0,0,0,1.16-1.77,2.43,2.43,0,0,0-4.84,0,1.84,1.84,0,0,0,1.17,1.77,2.09,2.09,0,0,0-1.47,2.08,2.72,2.72,0,0,0,5.43,0A2.09,2.09,0,0,0,111.14,92.56Zm-2.68-1.74a1.43,1.43,0,1,1,1.42,1.36A1.27,1.27,0,0,1,108.46,90.83Zm1.42,5.48a1.62,1.62,0,0,1-1.68-1.71,1.68,1.68,0,0,1,3.36,0A1.62,1.62,0,0,1,109.88,96.3Z"/><path class="cls-19" d="M123.19,104.75H128a12.71,12.71,0,0,0-2.24,3.53,13.23,13.23,0,0,0-1,3.61H126a12.92,12.92,0,0,1,.88-3.7,11.46,11.46,0,0,1,2.24-3.62v-.74h-5.88Z"/><path class="cls-21" d="M123.19,104.75H128a12.71,12.71,0,0,0-2.24,3.53,13.23,13.23,0,0,0-1,3.61H126a12.92,12.92,0,0,1,.88-3.7,11.46,11.46,0,0,1,2.24-3.62v-.74h-5.88Z"/><path class="cls-19" d="M144.46,111.71a2.4,2.4,0,0,0-2,.85h0c0-1.26.27-3,2-3a1.41,1.41,0,0,1,1.54,1.15h1a2.34,2.34,0,0,0-2.49-2c-.71,0-3,.07-3,4.37,0,3.23,1.11,4.17,2.88,4.17a2.62,2.62,0,0,0,2.76-2.84A2.49,2.49,0,0,0,144.46,111.71Zm-.13,4.68a1.78,1.78,0,0,1-1.79-2,1.69,1.69,0,0,1,1.77-1.87,1.66,1.66,0,0,1,1.7,1.83C146,115.42,145.52,116.4,144.33,116.4Z"/><path class="cls-21" d="M144.46,111.71a2.4,2.4,0,0,0-2,.85h0c0-1.26.27-3,2-3a1.41,1.41,0,0,1,1.54,1.15h1a2.34,2.34,0,0,0-2.49-2c-.71,0-3,.07-3,4.37,0,3.23,1.11,4.17,2.88,4.17a2.62,2.62,0,0,0,2.76-2.84A2.49,2.49,0,0,0,144.46,111.71Zm-.13,4.68a1.78,1.78,0,0,1-1.79-2,1.69,1.69,0,0,1,1.77-1.87,1.66,1.66,0,0,1,1.7,1.83C146,115.42,145.52,116.4,144.33,116.4Z"/><path class="cls-19" d="M165,105.83a2.59,2.59,0,0,0-1.81.61l.32-2.38H167v-.91H162.7l-.57,4.25h1a2,2,0,0,1,1.58-.7,1.68,1.68,0,0,1,1.77,1.9c0,1.89-1.33,2-1.87,2a1.55,1.55,0,0,1-1.65-1.44h-1.06a2.45,2.45,0,0,0,2.71,2.3,2.64,2.64,0,0,0,2.89-2.86A2.48,2.48,0,0,0,165,105.83Z"/><path class="cls-21" d="M165,105.83a2.59,2.59,0,0,0-1.81.61l.32-2.38H167v-.91H162.7l-.57,4.25h1a2,2,0,0,1,1.58-.7,1.68,1.68,0,0,1,1.77,1.9c0,1.89-1.33,2-1.87,2a1.55,1.55,0,0,1-1.65-1.44h-1.06a2.45,2.45,0,0,0,2.71,2.3,2.64,2.64,0,0,0,2.89-2.86A2.48,2.48,0,0,0,165,105.83Z"/><path class="cls-19" d="M182.22,87.76h-1.09L177.34,93V94h3.79v1.86h1.08V94h1.27V93h-1.27ZM181.14,93h-2.76l2.76-3.87Z"/><path class="cls-21" d="M182.22,87.76h-1.09L177.34,93V94h3.79v1.86h1.08V94h1.27V93h-1.27ZM181.14,93h-2.76l2.76-3.87Z"/><path class="cls-19" d="M187.44,72.43v0a1.8,1.8,0,0,0,1.32-1.78c0-.63-.31-2.21-2.55-2.21a2.41,2.41,0,0,0-2.6,2.7h1c0-1.77,1.19-1.83,1.57-1.83,1.27,0,1.59.76,1.59,1.4,0,1.38-1.41,1.39-1.76,1.39h-.32v.88h.83A1.37,1.37,0,0,1,188,74.39a1.6,1.6,0,0,1-1.83,1.7,1.63,1.63,0,0,1-1.68-1.57c0-.09,0-.17,0-.27h-1a2.53,2.53,0,0,0,2.82,2.7A2.48,2.48,0,0,0,189,74.46,1.88,1.88,0,0,0,187.44,72.43Z"/><path class="cls-21" d="M187.44,72.43v0a1.8,1.8,0,0,0,1.32-1.78c0-.63-.31-2.21-2.55-2.21a2.41,2.41,0,0,0-2.6,2.7h1c0-1.77,1.19-1.83,1.57-1.83,1.27,0,1.59.76,1.59,1.4,0,1.38-1.41,1.39-1.76,1.39h-.32v.88h.83A1.37,1.37,0,0,1,188,74.39a1.6,1.6,0,0,1-1.83,1.7,1.63,1.63,0,0,1-1.68-1.57c0-.09,0-.17,0-.27h-1a2.53,2.53,0,0,0,2.82,2.7A2.48,2.48,0,0,0,189,74.46,1.88,1.88,0,0,0,187.44,72.43Z"/><path class="cls-19" d="M180.85,53.23c1.88-1.2,2.59-1.68,2.59-3.19s-1-2.44-2.7-2.44A2.47,2.47,0,0,0,178,50.18v.24H179v-.3a1.54,1.54,0,0,1,1.67-1.6,1.46,1.46,0,0,1,1.62,1.54c0,1.23-1,1.75-1.65,2.18-1.56,1-2.74,1.72-2.72,3.67h5.45V55h-4.26C179.31,54.41,179.76,53.92,180.85,53.23Z"/><path class="cls-21" d="M180.85,53.23c1.88-1.2,2.59-1.68,2.59-3.19s-1-2.44-2.7-2.44A2.47,2.47,0,0,0,178,50.18v.24H179v-.3a1.54,1.54,0,0,1,1.67-1.6,1.46,1.46,0,0,1,1.62,1.54c0,1.23-1,1.75-1.65,2.18-1.56,1-2.74,1.72-2.72,3.67h5.45V55h-4.26C179.31,54.41,179.76,53.92,180.85,53.23Z"/><path class="cls-19" d="M163.66,35h-.24v.56h1.84v6.05h1.08V33.57h-.76A1.81,1.81,0,0,1,163.66,35Z"/><path class="cls-21" d="M163.66,35h-.24v.56h1.84v6.05h1.08V33.57h-.76A1.81,1.81,0,0,1,163.66,35Z"/><path class="cls-22" d="M142.84,70.36l.07-1.42-17,14.94,20.47-10.55.06-.36a2.69,2.69,0,0,1-.81.14A2.76,2.76,0,0,1,142.84,70.36Z"/><path class="cls-21" d="M144.61,34.76l0,.47-1.68,33.69-.07,1.42a2.76,2.76,0,0,0,2.77,2.74,2.69,2.69,0,0,0,.81-.14,2.77,2.77,0,0,0,1.93-2.74l-3.69-35Z"/><path class="cls-23" d="M202.2,41.84c-3.28-6.56-6.84-12.26-12.38-17.16A64.64,64.64,0,0,0,173,13.55,86.93,86.93,0,0,0,152.49,7.1c-6.75-1.15-13.71-1-20.52-.51a82.7,82.7,0,0,0-9.21,1.12,1.05,1.05,0,0,0-.7-.1c-.69.16-1.38.35-2.06.56A23.71,23.71,0,0,0,107.9.62,24,24,0,0,0,95.78.95a23.55,23.55,0,0,0-8,3c-10.15,6.14-13,18.71-8.69,28.77a58.05,58.05,0,0,0-8.22,11.72l-.27,0a50.06,50.06,0,0,0-18.74,1c-.45.12-.91.23-1.35.37l-.42.15-.1,0a11,11,0,0,1-3-2.15c-1.84-1.71-3.55-3.66-6.32-3.91a12.69,12.69,0,0,0-4.5.63l-1.63.48a57.88,57.88,0,0,1-9.68,1.54c-5.11.59-11.06,1-15.59,3.68a6.28,6.28,0,0,0-3.19,4.06,7.06,7.06,0,0,0-.16,1.3c-.09,2.22.72,4.67,1.5,7.1a19.38,19.38,0,0,0,3.52,6.55l.11.14A12.51,12.51,0,0,0,10,67.52c0,.14.42.14.49.08a8.58,8.58,0,0,0,1.28-1.41l.1.14a8.12,8.12,0,0,0,0,3.47c0,.13.52.16.48,0a7.72,7.72,0,0,1-.09-2.9c1.34,1.92,2.45,3.9,3.76,5.9,1.5,2.27,3.87,4.63,6.57,4.74-.4,5.28.75,10.94,2.2,15.75A45.12,45.12,0,0,0,27.38,100c-.9.25-1.85.41-2.64.63-2,.55-3.95,1-6,1.38-2.65.49-5.45.1-8.16-.07l0,0c-.09-.07-.47-.11-.42,0h0l-.74,0H9.25c-2.61-.06-6.26-.67-8.56.89-2.8,1.91,3.73,5,4.77,5.41.58.25,1.33.26.6.74a10.78,10.78,0,0,0-2,1.88c-.72.8-2.3,2.94-1,4s2.89,1.11,4.4,1.19a76.11,76.11,0,0,1,8.94.7,42.09,42.09,0,0,1,8.62,2.88c-1,.1-2.49.38-2.89,1.24-1.78,3.85,5.59,6.09,8,6.73.13,0,2.08.67,2,.7-.36.28-.7.59-1,.89a22.45,22.45,0,0,0-2.41,2.55c-.79,1-2.53,3.41-1.4,4.75.94,1.12,2.24.88,3.54.55a43.36,43.36,0,0,1,13.31-1.14c7.28.44,14.23,1.6,21.54.87,3.94-.39,7.8-1.15,11.76-1.39a112.89,112.89,0,0,1,12.89.14c15.54.84,31.12,1,46.69,1,7.58,0,15.11.23,22.64-.8a82.51,82.51,0,0,0,19.79-5.2,40.91,40.91,0,0,0,4.66-2.27,10.83,10.83,0,0,0,6.27,4.37,13.48,13.48,0,0,0,3.89.5,11.72,11.72,0,0,0,3.33-.52,9.06,9.06,0,0,0,3.4-2.07,11,11,0,0,0,1.53-1.79c2-2.87,2.61-6.66.34-9.44-1.05-1.29-3.21-1.2-4.69-.57-.86.13-1.53.52-1.52,1.28a.91.91,0,0,0,.31,1v0h0l0,0c.15.13,1.07.09.91-.19-1.12-1.95,1.83-2,2.87-.93a2.63,2.63,0,0,1,.51,2.07,4.61,4.61,0,0,1-2.48,3.45,5.73,5.73,0,0,1-.65.33,5.32,5.32,0,0,1-1.7.2c-2.17-.13-3.31-1.92-4-4a48.74,48.74,0,0,0,10.66-15.65,94,94,0,0,0,6.19-20.79c1.37-7.68.5-15.4-.92-23C207.09,55.29,205.48,48.4,202.2,41.84ZM122.08,8.17c.39.86,1.11,2.41,1.29,2.71a1.11,1.11,0,0,1-.41.19l-.69.23a24.51,24.51,0,0,0-1.89-2.65C120.94,8.47,121.51,8.31,122.08,8.17ZM107.75.8A23.25,23.25,0,0,1,121.6,10.95c.14.22,0,.45-.32.69l-.83.3-.27.11A23.56,23.56,0,0,0,101.55.63h-.23l-.63,0h-.8q-.74,0-1.48.05A23.06,23.06,0,0,1,107.75.8ZM78.54,30.49C75,20.14,80.05,8.74,89.35,3.48c10.78-6.1,24.34-1.67,30.46,8.72l-1.18.47a21.28,21.28,0,0,0-13.28-10,22,22,0,0,0-23.09,8.7c-6.24,8.78-4.33,20.9,3.33,28.08l-.14.19c-1,1.07-1.72-.33-2.48-1.19A23,23,0,0,1,78.54,30.49Zm10.71-.78L84.1,28.34c-.32-.09-.89-.12-.8-.33.47-1.05-.06-.75,1.44-.61A4.82,4.82,0,0,0,87,27.13a3.45,3.45,0,0,0,.74-.4,10.09,10.09,0,0,0,2.4-3.2,107.32,107.32,0,0,0,5.3-10.33c.19-.42.74-1.17.13-1.48s-3.35-1-3.29-1.08c.36-.71,2.59-.22,3.39-.21a21.83,21.83,0,0,0,3.49-.32c.46-.07,2.58-.66,2.06.26q-2.5,4.44-4.93,8.91c-1.41,2.6-3.44,5.48-4.18,8.38h0v0c0,.88.35,1.21,1.1,1.61a2.08,2.08,0,0,1,.54.21L92.7,30.62Zm3.25,1.14q-2,2.12-3.78,4.38A16.88,16.88,0,0,1,85.62,31a14.18,14.18,0,0,1-.95-2.23l5.61,1.49C91.34,30.53,92,30.77,92.49,30.84Zm.13-3.2c.83-3.21,3.11-6.39,4.67-9.27s3.08-5.59,4.64-8.37l-.07-.09a3.19,3.19,0,0,0-1.42-.26,19.81,19.81,0,0,1-8,.29c-.09,0-.31,0-.36.1l-.4.8.13.1c.76.13,1.51.31,2.26.51,1.2.33,1.4.54,1,1.49-.76,1.77-1.64,3.48-2.51,5.2-1,2-2,3.88-3.13,5.77-.45.76-.92,1.5-1.43,2.21-.87,1.19-2.41,1.22-3.8,1a17.64,17.64,0,0,1,.26-8.28c2.26-8.39,11.17-13.2,19.46-11.34a16.19,16.19,0,0,1,9.13,5.83c.59.77.68,1.28.49,1.66-1.18.6-2.34,1.22-3.49,1.88l-.62.37c-1,.55-2.08,1.13-3.09,1.75a48.8,48.8,0,0,0-7.71,5.93Q96.22,27,94,29.3C93.22,29,92.61,28.64,92.62,27.64Zm11.66-20.3c-6.16-1.38-13,.45-17,5.46a16.79,16.79,0,0,0-3.43,14.27l-.19,0c-.1,0-.36,0-.41.09l-.47,1.06.07.09,1.42.38a17.16,17.16,0,0,0,4.23,6.87q-1.25,1.58-2.41,3.23c-.23.19-.41.28-.52.18A21.35,21.35,0,0,1,80.73,15C84.64,5.55,95.35.56,105.19,2.81a20.79,20.79,0,0,1,12.43,8.92,1,1,0,0,1-.14,1.41q-1,.44-2,.9c-.44.14-.86.26-1.16.39h0A16.09,16.09,0,0,0,104.28,7.33ZM84.65,40.63c-.53.83-1,1.68-1.53,2.54L80.5,40.68c.66-.78,1.35-1.55,2-2.31A23,23,0,0,0,84.65,40.63ZM10.9,66.53c.14-.29.29-.56.45-.84l.1.13C11.28,66.06,11.09,66.3,10.9,66.53ZM27.35,98c-.18-.44-.34-.89-.51-1.33a56.51,56.51,0,0,1-3.25-15.6,22,22,0,0,1,0-3.63,5.07,5.07,0,0,0,1.06-.31c1.85-.79,3.27-2.73,4.76-4a31.63,31.63,0,0,0,5.43-6.23C38,62.31,41.19,58,41.34,52.23c0-.28-1-.29-1,0-.12,4.94-2.42,8.52-5.06,12.5a64.49,64.49,0,0,1-3.81,5.32,60.18,60.18,0,0,1-4.74,4.59,17.12,17.12,0,0,1-2.33,2,2.84,2.84,0,0,1-2.15.51,5.63,5.63,0,0,1-2.69-1.58c-.39-.36-.74-.73-1.05-1.05-1.73-1.78-2.68-3.91-3.93-6a21.26,21.26,0,0,0-2.09-2.8A11.6,11.6,0,0,1,13,64.32c0-.11-.42-.18-.49-.08l-.52.82-.14-.17c.3-.48.62-1,.94-1.44.09-.14-.38-.19-.47-.1-.29.28-.57.56-.85.85-.05.05.07.11.2.13l-.12.19h0c-.41-.5-.81-1-1.17-1.53-.17-.24-.32-.49-.46-.75a32.82,32.82,0,0,1-2.41-6.63,12.6,12.6,0,0,1-.6-5.28c.37-3,3.69-4.36,6.17-5.28L13.3,45a34.77,34.77,0,0,1,6.46-1.55c2.71-.41,5.47-.64,8.14-.91l1.84-.2a34.85,34.85,0,0,0,4.6-1c3.48-.91,7.06-1.72,9.85.63,2.43,2,4,4.45,7.35,4.83.43,0,.94-.31.26-.39a5.76,5.76,0,0,1-.68-.13l1-.33a31.49,31.49,0,0,1,6-1.21,50.75,50.75,0,0,1,6.84-.23c1.34,0,2.67.11,4,.21,5.1.38,11,1.31,14.35,5.65a.82.82,0,0,0,.48.17c.58.63,1.15,1.26,1.71,1.91-1.15.18-2.27.37-3.33.52-.52.08.33.53.58.49,1.34-.19,2.69-.42,4-.59a60.6,60.6,0,0,0-3.14,16.82l-.12-.26a33.19,33.19,0,0,1-2.22-5.81c-.57-2.23-1.63-4.18-2.25-6.36-.08-.29-1-.46-.95-.2a17.27,17.27,0,0,0,1.26,3,21,21,0,0,1,1.21,4.25,36.58,36.58,0,0,0,3,7.14c0,.32,0,.63,0,.95A61.11,61.11,0,0,0,84.63,83.7,60.37,60.37,0,0,0,92.47,104a27.05,27.05,0,0,1-3,2.62,34.31,34.31,0,0,1-4.85,3c-1.05.54-2.14,1-3.23,1.5a82.08,82.08,0,0,1-10.45,3.44q-1.49.4-3,.76-1.74.42-3.48.75c-5.75,1.1-11.48,1.34-17.36-.55-1-.33-2-.71-3.05-1.13a36.72,36.72,0,0,1-4.59-2.29,29.51,29.51,0,0,1-7-5.65A23.85,23.85,0,0,1,30,103.13,36.58,36.58,0,0,1,27.35,98ZM187,29.68A60.32,60.32,0,1,1,144.37,12,60.12,60.12,0,0,1,187,29.68ZM145.9,11.55A6.81,6.81,0,0,1,146,10.1a3,3,0,0,1,.64,1.41v.05h-.74ZM186.71,116c.55.73,1.21,1.69.37,1.06-.27-.21-.54-.42-.8-.65ZM11.56,102.44a.29.29,0,0,0,.16.08,4.45,4.45,0,0,1,3,3.07c.81,2.19.7,5-.42,6.47-1,1.33-.47-1.52-.46-2.12a15.48,15.48,0,0,0-.26-3.72,5.61,5.61,0,0,0-.55-1.48,8.74,8.74,0,0,0-1.89-2.33Zm187.17,23.64.08,0h0l0,0h0c2.27-1,5.48-5.43,1.92-7a5.1,5.1,0,0,0-1.9-.36,2.49,2.49,0,0,1,.68-.25,2,2,0,0,1,1.41.24,5.55,5.55,0,0,1,2.08,2.93,7.85,7.85,0,0,1-.46,5,9.14,9.14,0,0,1-4.66,5.17,9.37,9.37,0,0,1-1.72.63,9.93,9.93,0,0,1-5.6-.22,11.32,11.32,0,0,1-2.9-1.46,10.54,10.54,0,0,1-2.08-1.9,9.29,9.29,0,0,1-.75-1,41.08,41.08,0,0,0,6.9-5.16C192.92,125.28,194.9,127.14,198.73,126.08Zm8.44-35.19c-3.17,13.2-8.38,26.18-19.63,34.48-5.94,4.38-13,6.65-20.11,8.39-8,2-16.14,2.35-24.39,2.3s-16.71,0-25.07-.28c-7.84-.28-15.68,0-23.52-.5A123,123,0,0,0,75.66,135c-3.36.29-6.69.9-10,1.28a60.28,60.28,0,0,1-12.62,0c-6.6-.65-13-1.46-19.62-.31a27.75,27.75,0,0,0-2.87.68c-3.45,1-2.54-2.18-1.87-3.47a16.8,16.8,0,0,1,4.66-5.05c.14-.11,0-.2-.11-.23-2.5-.85-5-1.31-7.37-2.6-2.77-1.53-4.81-5.06.08-5.38,6-.39,12.25-.13,18.3,0a69.11,69.11,0,0,0,15.38-1.59,2.39,2.39,0,0,1-.12-.35s0-.08,0-.12l-2,.37a65.18,65.18,0,0,1-12.1,1.29c-4.06-.06-8.13-.13-12.19-.17-2.32,0-4.69,0-7,.11-2-.78-4-1.51-6.05-2.12a39.1,39.1,0,0,0-7.7-1.59l-.83-.09c-2-.14-7.25.69-8-1.74-.56-1.84,2.59-4.48,3.94-5.19.09,0,.22-.17.07-.25-2.11-1-4.78-1.7-6.13-3.76-2-3.08,6.17-2.5,7.57-2.46l1.65.08a8.46,8.46,0,0,1,1.71,2.12,8.37,8.37,0,0,1,.88,2.38c.4,1.9,0,3.94.2,5.88,0,.14.37.18.46.13,2.1-1.25,2.31-4.4,1.34-7a5.7,5.7,0,0,0-3-3.46l1,.05a30,30,0,0,0,6.21-.19l.53-.08c1-.18,1.9-.39,2.84-.62a2.23,2.23,0,0,1,1.25-.47,2.21,2.21,0,0,1,.48,0l1.65-.45c.48-.13,1-.24,1.44-.35.23.45.46.89.7,1.33l.41.7c.2.34.42.68.64,1a24.53,24.53,0,0,0,5.22,5.89,37.57,37.57,0,0,0,4.68,3.17A39.91,39.91,0,0,0,47,115.93l1,.32c.77.23,1.54.43,2.32.61a29.09,29.09,0,0,0,9.07.55,64.6,64.6,0,0,0,10-1.82A73.34,73.34,0,0,0,85,110.23c1-.5,2-1,2.9-1.61a29.45,29.45,0,0,0,5-3.89,61,61,0,0,0,4,5.59c.84,1.05,1.71,2.08,2.62,3.08a61,61,0,0,0,18.44,13.74c1.61.78,3.27,1.48,5,2.12a60.82,60.82,0,0,0,49.24-2.8q2.32-1.19,4.51-2.57a61,61,0,0,0,9.49-7.35,16.82,16.82,0,0,0,1.62,1.31s.43.15.38,0a6,6,0,0,0-1.19-2.1q1.44-1.41,2.79-2.92a6.46,6.46,0,0,1,.91,1.35c.07.14.53.2.47.1a7.13,7.13,0,0,0-1.19-1.67A60.79,60.79,0,0,0,193,35.83c-1-1.35-2.09-2.65-3.21-3.91a61,61,0,0,0-16-12.81l-.13-.16c.44.22.87.42,1.32.62.12.05.59-.06.34-.16-.81-.35-1.6-.76-2.39-1.17-.09,0-.59,0-.42.13l.17.16c-.76-.4-1.52-.79-2.3-1.16a60.51,60.51,0,0,0-23.32-5.78c0-.07,0-.13,0-.19A2.83,2.83,0,0,0,146,9.72c-.06,0-.39-.2-.43-.06a6.41,6.41,0,0,0-.13,1.88h-.24a3.74,3.74,0,0,1-.33-.49c-.05-.1-.51-.26-.48-.09a2.06,2.06,0,0,1,0,.56h-.63a10.68,10.68,0,0,0-.72-.86c-.09-.09-.56-.15-.44,0a11.59,11.59,0,0,1,.75.9,60.87,60.87,0,0,0-14.47,2q-2.57.67-5,1.56a60.42,60.42,0,0,0-9.34,4.28q-1.18.66-2.32,1.38a60.82,60.82,0,0,0-5,3.5c-1.35,1-2.65,2.13-3.91,3.28l-.22-.05c-.09,0-.29,0-.16.12l.17.13-1.07,1a2.75,2.75,0,0,1-.32-.17c-.13-.09-.56-.1-.29.08a3.57,3.57,0,0,0,.44.25A61.08,61.08,0,0,0,91.55,42.2c-.29.5-.57,1-.84,1.51C90,45,89.4,46.27,88.81,47.59q-1,2.26-1.84,4.61l-.79.11c-1-1.16-2-2.3-3-3.39a.85.85,0,0,0-.44-.15c-3-2.64-7.06-3.65-11-4.19.49-.89,1-1.77,1.5-2.62a54.65,54.65,0,0,1,6.19-8.45,23.19,23.19,0,0,0,2.38,4l.16.21c-.64.71-1.27,1.42-1.89,2.15l-.2.23-.39.45a.08.08,0,0,0,0,.08h0v0a.11.11,0,0,0,0,.07l.75.71.36.34.4.38v0l1.58,1.47.25.23a1.15,1.15,0,0,0,.69.19.26.26,0,0,0,.22-.1q1.08-1.8,2.26-3.53,1.53-2.27,3.22-4.41a.27.27,0,0,0,.12-.07q.75-1,1.52-1.9,1.45-1.67,2.93-3.3l.92-.95.08-.07h0a76.25,76.25,0,0,1,9.33-8l1-.73c.17,0,.41-.06.35-.12l-.09-.06q2-1.42,4.15-2.72c1.3-.79,2.65-1.57,4-2.31q2.83-1.39,5.76-2.57l1.14-.46s0,0,0-.05,0,0,0,0l0-.08c1.2-.45,2.41-.85,3.63-1.19l.14,0a.36.36,0,0,0,.12-.06.09.09,0,0,0,0-.12l-.17-.38-.5-1.12,0,0-.56-1.22L123,8.09c1.25-.22,2.51-.43,3.77-.59a93.12,93.12,0,0,1,23.4-.26c8,1,15.51,3.78,22.8,7a64,64,0,0,1,17.77,12.39c5.47,5.18,8.94,11.79,12,18.59s4.35,14.61,5.5,22A59.57,59.57,0,0,1,207.17,90.89Z"/><path class="cls-23" d="M73.69,96.66a10.15,10.15,0,0,0-1.31-.05,4.19,4.19,0,0,0-.56,0,5,5,0,0,0-.77.07c-.6.1.11.39.38.37a4.2,4.2,0,0,1,.86,0,1.4,1.4,0,0,1,.38.39c.91,1.49-1.07,4.54-1.76,5.81a19.32,19.32,0,0,1-3.63,4.66,10.74,10.74,0,0,1-2.15,1.66A18.52,18.52,0,0,0,66,107.2,13.66,13.66,0,0,0,64.75,96c-1.43-2.41-4.27-4-6.82-5.16l-.62-.28a15,15,0,0,0-2.57-.83l-.21,0c-.31-.07-.63-.11-.94-.16l-.5-.06-.63,0c-.25,0-.49,0-.73,0l-.56,0c-.21,0-.42,0-.63,0a12.93,12.93,0,0,0-3.85,1l-.14.05,0,0h0l-.44.24.58-1a28.51,28.51,0,0,0,3-9.73c0-.26-1-.33-1,0a29.16,29.16,0,0,1-4.51,12.07,17.26,17.26,0,0,0-5.11,5.93,4.21,4.21,0,0,0-.3.78c-.71,2.14-.26,4.23,2.43,5.71,3.1,1.7,7,1.8,10.38,2.71s6.37,4.15,9.93,4.37a3.38,3.38,0,0,0,3-1c2.78-1.06,5.31-3.82,6.74-6.13.93-1.51,3.19-5.53,2.19-7.14a4.88,4.88,0,0,1,.92.45c.17.25,1.12.13,1-.09A2.13,2.13,0,0,0,73.69,96.66Zm-10,13.74a2.1,2.1,0,0,1-.58.53l-.31.09.21,0a3.36,3.36,0,0,1-2.67,0,21.88,21.88,0,0,1-4.12-2.19c-4.62-2.79-10.33-2.18-15-4.71C35.2,100.76,44,92.81,47.34,91c6.67-3,15.4.88,17.79,7.77a13.87,13.87,0,0,1-.28,8.64A8.92,8.92,0,0,1,63.67,110.4Z"/><path class="cls-23" d="M45.39,98.59c-.69.67-1.22,2.37-.34,3a2.43,2.43,0,0,0,1.83,1.76c2.31.53,3.12-2,2.3-3.75C48.52,98.2,46.59,97.43,45.39,98.59Zm3.1,4a1.87,1.87,0,0,1-.94.55,1.52,1.52,0,0,1-1.57-.55,2.37,2.37,0,0,1-.44-.8c.26,0,.3-.14,0-.2,0,0-.05,0-.09,0a1.84,1.84,0,0,1,.94-1.93c.17-.1-.29-.25-.4-.19a2,2,0,0,0-.94,1.17,4.16,4.16,0,0,1,.52-1.53c1-1.53,2.7-.56,3.26.82A2.58,2.58,0,0,1,48.49,102.57Z"/><path class="cls-23" d="M59.31,101.72A2.54,2.54,0,0,0,57.38,103a2.37,2.37,0,0,0-.31.67c-.12,0-.25,0-.27,0a2.94,2.94,0,0,0,2.32,3.26,3.84,3.84,0,0,0,.54.13,2.37,2.37,0,0,0,.51,0l.19,0,.27-.06a2.44,2.44,0,0,0,1.76-2.6A2.94,2.94,0,0,0,59.31,101.72Zm2.57,3.13a2.23,2.23,0,0,1-2,2,2.34,2.34,0,0,1-2.19-1.12,2.78,2.78,0,0,1-.45-1.12l.12,0c.08,0,.15,0,.17,0h0l-.08-.14c-.06,0-.08-.11-.08-.22a.84.84,0,0,1,0-.11,4.39,4.39,0,0,1,.43-1,2.36,2.36,0,0,1,1.76-1.14C61.22,101.74,62,103.61,61.89,104.85Z"/><path class="cls-23" d="M21.62,63.44c-.05-.15-.54-.08-.5,0a9.89,9.89,0,0,1,.83,3.1c-.59-.67-1.3-1.76-.8-2.32.07-.08-.38-.14-.48,0-.67.76.71,2.42,1.26,2.89.09.08.46.11.49-.05a3.65,3.65,0,0,0,0-1.33,4.05,4.05,0,0,0,1.12.93c.12.06.58,0,.43-.12A5.14,5.14,0,0,1,21.62,63.44Z"/><path class="cls-23" d="M31,59a11.73,11.73,0,0,1-3.7-.9s-.41-.05-.38.07c.06.29.14.56.2.84a8.57,8.57,0,0,0-.84-1.21c-.06-.07-.5-.16-.49,0a2.49,2.49,0,0,0,1.27,2,8.67,8.67,0,0,1,.47,1.32,6.52,6.52,0,0,1-1.07-1.09c-.06-.07-.87-1.36-.75-1.36.29,0,.31-.19,0-.2-1.5,0,1.38,2.84,2,3.07,0,0,.41,0,.38-.07a8.92,8.92,0,0,0-.49-1.47c.06,0,.11,0,.11-.08a7.25,7.25,0,0,0-.29-1.57,10.78,10.78,0,0,0,3.65.8C31.48,59.21,31.23,59,31,59Z"/><path class="cls-23" d="M31.57,52.42c0-.05,0-.09-.1-.12a.77.77,0,0,0-.23-.07,8.52,8.52,0,0,0-2,.39,25,25,0,0,1,2-2.38c.12-.14-.34-.25-.44-.2-1.14.61-2.21,1.36-3.4,1.89-.18.08.26.28.38.23A21.94,21.94,0,0,0,30,51a11.22,11.22,0,0,0-1.34,1.71c-.06.11.28.19.33.2h.29c.61,0,1.16-.32,1.76-.4-.27.67-.74,1.53-.46,2.2s1.41.48,1.92.38c.17,0-.25-.25-.38-.23C30.18,55.19,31.26,53.36,31.57,52.42Z"/><path class="cls-23" d="M31.93,65.7a44.15,44.15,0,0,1-5.84,5.8c-2,1.65-4.16,3.58-7.22,1.64a6,6,0,0,1-2.46-3.43c0-.13-.53-.12-.48,0,.87,2.84,3.76,5.14,6.79,4.38,1.65-.42,3.18-2,4.44-3a40.46,40.46,0,0,0,5.25-5.32C32.49,65.67,32,65.58,31.93,65.7Z"/><path class="cls-23" d="M53,59a5.72,5.72,0,0,0-4.28,3.51,3.43,3.43,0,0,0,0,.35s0,.1,0,.15c-.1,1.58,1,2.53,2.71,2.51a4.73,4.73,0,0,0,4.24-4.38A2.15,2.15,0,0,0,53,59Zm.41,5.26a4.31,4.31,0,0,1-1.23.73,5.28,5.28,0,0,1-.59.2,1.75,1.75,0,0,1-2.15-.63,2.61,2.61,0,0,1-.26-1.89c.54-1.82,4.93-5.35,5.87-2.22C55.54,61.87,54.47,63.36,53.46,64.24Z"/><path class="cls-23" d="M71.23,62c-2.42.71-1.39,4.3-.49,5.74a5.14,5.14,0,0,0,.57.64,3.41,3.41,0,0,0,3.26,1.06,2.56,2.56,0,0,0,.79-.38c1.93-1.4,1.17-3.62-.13-5.15C74.27,62.82,72.83,61.56,71.23,62Zm4.45,6.12a3.71,3.71,0,0,1-.33.45c-1.22,1.39-3.19.45-4.12-.82a5.21,5.21,0,0,1-.81-4.27A1.77,1.77,0,0,1,73,62.41l.18.11a6.05,6.05,0,0,1,1.26,1,5.53,5.53,0,0,1,1.67,3.13A2.3,2.3,0,0,1,75.68,68.15Z"/><path class="cls-23" d="M62.89,121l0,0h0l-.56.6A6.09,6.09,0,0,1,60.67,123a5.09,5.09,0,0,1,1.3-1.71l0,0c.08-.07,0-.11-.15-.12a.47.47,0,0,0-.29,0,5.13,5.13,0,0,0-1.51,2.08c-.06.15.31.11.37.09a4.93,4.93,0,0,0,2.13-1.46l.08-.08,0,.12a12.33,12.33,0,0,0-.56,3.38c0,.14.5.12.5,0a11.61,11.61,0,0,1,.44-2.95c.11-.43.24-.86.38-1.29C63.4,120.89,63,120.92,62.89,121Z"/><path class="cls-23" d="M71.28,124.92c-.05-.1-.49-.15-.49,0s0,.57,0,.87a3.86,3.86,0,0,1-.35,2.09,5,5,0,0,1-.39-2.09c0-.35,0-.7,0-1,0-.15-.49-.17-.5,0a3.86,3.86,0,0,1-.1.66s0,.07.11.09,0,.19,0,.28a4.51,4.51,0,0,0,.62,2.54.4.4,0,0,0,.48,0,3,3,0,0,0,.64-2.21,14.69,14.69,0,0,0,.83,1.92c.07.13.55.1.48,0a19.69,19.69,0,0,1-1-2.25A8.39,8.39,0,0,0,71.28,124.92Z"/><path class="cls-23" d="M79,125.48a4.28,4.28,0,0,1-1.08-1c-.29-.36-.55-.74-.82-1.11-.06-.08-.51-.21-.46-.08.2.46.41.91.57,1.38a5,5,0,0,1,.21.89,6.07,6.07,0,0,1-.53-.81c-.19-.35-.37-.7-.56-1.05-.06-.11-.53-.23-.44-.05a3.8,3.8,0,0,1,.25.5h0c.12.23.24.45.37.67a4.84,4.84,0,0,0,1,1.25c.06,0,.43.22.43.05a4.74,4.74,0,0,0-.33-1.54,4.56,4.56,0,0,0,1.09,1C78.84,125.63,79.29,125.65,79,125.48Z"/><path class="cls-23" d="M84.22,121.12c-.87-.52-1.71-1.1-2.56-1.66-.07,0-.51,0-.46.11a2.66,2.66,0,0,1,.37,1.51,1.62,1.62,0,0,1-1-1.53c0-.12-.49-.09-.5.07a1.84,1.84,0,0,0,1.49,1.81c.09,0,.37,0,.41-.1a2,2,0,0,0-.08-1.25c.67.45,1.34.89,2,1.29l.28.17c.12.06.58-.07.41-.16S84.37,121.21,84.22,121.12Z"/><path class="cls-23" d="M34.87,119.94c-.21-.07-.49.06-.16.17,3.74,1.22,4.82,8.47,2.3,11.15,0,0-.09-.07-.14-.27a21.88,21.88,0,0,1-.33-2.29c0-.79-.05-1.57-.11-2.35a6.91,6.91,0,0,0-.62-2.48c-.06-.13-.12-.27-.2-.39A15.74,15.74,0,0,0,33,120.13c-.1-.09-.58-.09-.44,0A14,14,0,0,1,34.82,123l.48.77c1.31,2.15.6,5.41,1.09,7.85,0,0,0,.1,0,.15s.36.16.45.1C40.64,129.5,38.83,121.23,34.87,119.94Z"/><path class="cls-23" d="M49.09,74.35c-.3,5.56,8.86,5.73,9.16.1C58,68.9,49.4,68.69,49.09,74.35Zm8.05.79a2.17,2.17,0,1,0-1.35,2.27,4.28,4.28,0,0,1-1.16.68h0A2.82,2.82,0,0,1,52,77.88a4.47,4.47,0,0,1-1.92-3.42,3.89,3.89,0,0,1,2.19-3.54,4.36,4.36,0,0,1,.45-.21,2.84,2.84,0,0,1,3,.47,4.56,4.56,0,0,1,1.58,3.18A4.92,4.92,0,0,1,57.14,75.14Z"/><path class="cls-23" d="M63.76,77.35c-.3,5.56,8.86,5.73,9.16.1C72.62,71.9,64.06,71.69,63.76,77.35Zm8.05.79a2.17,2.17,0,1,0-1.35,2.27,4.28,4.28,0,0,1-1.16.68h0a2.82,2.82,0,0,1-2.62-.22,4.47,4.47,0,0,1-1.92-3.42,3.89,3.89,0,0,1,2.19-3.54,4.36,4.36,0,0,1,.45-.21,2.84,2.84,0,0,1,3,.47,4.56,4.56,0,0,1,1.58,3.18A4.92,4.92,0,0,1,71.81,78.14Z"/><path class="cls-23" d="M196.86,67.09h.07l-.05-.5h-.07q-.27-2.52-.76-5h0l-.1-.49h-.05q-.52-2.48-1.27-4.86h0l-.15-.48h0a53.32,53.32,0,0,0-12.84-21.13,52.4,52.4,0,0,0-74.6,0A53.32,53.32,0,0,0,94.23,55.79h0l-.15.47h0q-.75,2.38-1.27,4.86h0l-.1.49h0q-.5,2.44-.76,5h-.06l-.05.5h.06q-.24,2.48-.25,5h-.07v.5h.07q0,2.54.25,5h-.07l.05.5h.07q.27,2.52.76,5h0l.1.49h0q.53,2.47,1.27,4.86h0l.15.48h0A53.33,53.33,0,0,0,107.07,110a52.4,52.4,0,0,0,74.6,0,53.37,53.37,0,0,0,10.85-15.92h0l.2-.46h0q1-2.3,1.77-4.7h0l.15-.47h0q.75-2.39,1.27-4.87H196l.1-.49H196q.5-2.44.76-5h.07l.05-.5h-.07q.24-2.47.25-5h.08v-.5h-.08Q197.1,69.57,196.86,67.09ZM122.73,24.32,124,27.13l.46-.2-1.25-2.81q2.28-1,4.67-1.83l1,3,.47-.15-1-3q2.37-.77,4.85-1.32l.65,3.07.49-.1-.65-3.08q2.44-.51,5-.79l.33,3.13.5-.05-.33-3.14q2.48-.25,5-.26V25.5h.5V19.59q2.55,0,5,.26L149.33,23l.5.05.33-3.13q2.52.28,5,.79l-.66,3.08.49.1.65-3.07q2.47.55,4.84,1.32l-1,3,.47.15,1-3q2.39.8,4.67,1.83l-1.25,2.81.46.2L166,24.33q2.28,1.05,4.44,2.31l-3.08,4.79.42.27,3.1-4.81q2.16,1.29,4.18,2.77l-1.75,2.41.4.29L175.5,30q2,1.5,3.86,3.19l-2,2.18.37.33,2-2.17c.54.5,1.08,1,1.6,1.54s1.28,1.34,1.9,2L181.09,39l.33.37,2.12-1.91q1.64,1.88,3.1,3.91L184.37,43l.29.4,2.27-1.65q1.43,2,2.67,4.19l-4.72,2.58a46.83,46.83,0,0,0-63.55-16.76l-3.06-5.12Q120.44,25.38,122.73,24.32Zm-20.9,17.41,2.28,1.65.29-.4-2.28-1.66q1.46-2,3.11-3.91l2.13,1.92.33-.37L105.55,37c.61-.68,1.24-1.36,1.88-2s1.07-1,1.62-1.56l2,2.18.37-.33-2-2.18q1.85-1.68,3.86-3.19L115,32.36l.4-.29-1.75-2.41q2-1.48,4.17-2.77L120.9,32A47.06,47.06,0,0,0,104,49.06L99.13,46Q100.38,43.78,101.82,41.73ZM92.38,67.13l2.64.28.05-.5-2.64-.28c.18-1.66.42-3.3.75-4.91l2.62.56.1-.49-2.62-.56q.52-2.45,1.26-4.81l2.58.84.15-.47-2.57-.84q.77-2.38,1.75-4.66L99,52.4l.2-.46-2.5-1.11q1-2.28,2.22-4.44l4.86,3.11a46.61,46.61,0,0,0-6,22.6H92.13Q92.14,69.58,92.38,67.13Zm4.29,26.72,2.49-1.11-.2-.46-2.49,1.11q-1-2.27-1.75-4.66l2.57-.83-.15-.48-2.57.83q-.74-2.36-1.26-4.81l2.61-.55-.1-.49L93.19,83c-.33-1.61-.57-3.25-.75-4.91l2.64-.28-.05-.5-2.64.28q-.24-2.45-.25-5h5.62A46.6,46.6,0,0,0,104,95.71l-5,2.61Q97.69,96.15,96.67,93.85Zm17,21.16,1.74-2.39-.4-.29-1.74,2.39q-2-1.5-3.85-3.18l2-2.17L111,109l-1.95,2.16c-.55-.51-1.09-1-1.62-1.56s-1.27-1.32-1.88-2l2.13-1.92-.33-.37-2.12,1.91q-1.64-1.87-3.11-3.9l2.27-1.65-.29-.4-2.27,1.65q-1.43-2-2.67-4.18l5-2.61a47.05,47.05,0,0,0,16.33,16.47l-2.71,5.16Q115.69,116.49,113.68,115Zm30.44,10.07q-2.54,0-5-.26l.33-3.11-.5-.05-.32,3.11q-2.52-.28-5-.79l.65-3.06-.49-.1-.65,3q-2.47-.54-4.84-1.32l1-2.94-.48-.15-1,2.94q-2.39-.8-4.67-1.83l1.25-2.79-.46-.2-1.24,2.79q-2.29-1.05-4.45-2.32l2.71-5.16a46.61,46.61,0,0,0,23.15,6.38Zm-32.3-19.89a46.35,46.35,0,1,1,32.77,13.57A46.2,46.2,0,0,1,111.82,105.19Zm75.08-2.24-2.26-1.64-.29.4,2.27,1.65q-1.46,2-3.11,3.9l-2.11-1.91-.33.37,2.12,1.91c-.61.68-1.23,1.35-1.87,2s-1.08,1.06-1.63,1.57L177.75,109l-.37.33,1.94,2.16q-1.85,1.68-3.85,3.18l-1.74-2.39-.4.29,1.74,2.39q-2,1.48-4.17,2.77l-2.7-4.68-.43.25,2.7,4.68q-2.16,1.26-4.44,2.31l-1.24-2.78-.46.2,1.24,2.79q-2.28,1-4.67,1.83l-1-2.93-.47.15,1,2.94q-2.37.77-4.84,1.32l-.65-3-.49.1.65,3.06q-2.44.51-5,.79l-.33-3.11-.5.05.33,3.12q-2.47.25-5,.26v-5.82A46.82,46.82,0,0,0,185,96.13l4.6,2.62Q188.34,100.92,186.91,102.95Zm9.71-30.34q0,2.51-.25,5l-2.63-.28-.05.5,2.63.28c-.18,1.66-.42,3.3-.75,4.91l-2.61-.55-.1.49,2.6.55q-.52,2.45-1.26,4.81l-2.56-.83-.15.48,2.55.83q-.77,2.38-1.75,4.65l-2.48-1.11-.2.46,2.48,1.11q-1,2.29-2.23,4.45l-4.6-2.62a46.79,46.79,0,0,0-.1-46.74l4.72-2.58q1.22,2.17,2.23,4.46L189.6,52l.2.46,2.49-1.11q1,2.27,1.75,4.66l-2.56.83.15.48,2.57-.83q.74,2.36,1.25,4.81l-2.61.55.1.49,2.61-.56q.49,2.42.75,4.91l-2.63.28.05.5,2.63-.28q.24,2.45.25,5H191.7v.5Z"/></g></g></svg>