<svg xmlns="http://www.w3.org/2000/svg" viewBox="0 0 84.47 103.22"><defs><style>.cls-1{fill:#fff;}</style></defs><title>Ресурс 2clock</title><g id="Слой_2" data-name="Слой 2"><g id="Layer_1" data-name="Layer 1"><circle cx="42.01" cy="36.08" r="27.5"/><path d="M71.08,92.25a2.84,2.84,0,0,1-.62-1.57A4.57,4.57,0,0,1,70.62,89a6.11,6.11,0,0,1,1.64-2.79c1.61-1.53,3.76-2.09,5.63-2.9a8.94,8.94,0,0,0,2.76-1.73A6.35,6.35,0,0,0,82.2,79a8.06,8.06,0,0,0-.78-6.1,11.45,11.45,0,0,0-2.74-3.44,8.3,8.3,0,0,0-1.76-1.19,8.73,8.73,0,0,0-2.06-.64,8,8,0,0,0-2.15-.11,3.8,3.8,0,0,0-1.91.66,2.4,2.4,0,0,0-.94,1.69,2.43,2.43,0,0,0,.69,1.91,3.32,3.32,0,0,0,4.35.43,5.52,5.52,0,0,0,2.22-4.26,7.42,7.42,0,0,0-1.22-4.77,9,9,0,0,0-3.64-3.3,13.6,13.6,0,0,0-7.8-.93,29.7,29.7,0,0,0-3.91.8,22.64,22.64,0,0,0-3.76,1.4,21.91,21.91,0,0,0-3.48,2,16.35,16.35,0,0,0-2.87,2.65,20.23,20.23,0,0,0-3.81,6.92,21.34,21.34,0,0,0-1,8.39,24.7,24.7,0,0,0,.49,3.29,11.07,11.07,0,0,0,.59,1.82c.21.47.39.76.34.8s-.26-.19-.54-.67a8.13,8.13,0,0,1-.79-2.1,20.5,20.5,0,0,1-.47-3.12,23.74,23.74,0,0,1-.06-3.67,24.82,24.82,0,0,1,1.46-7,25.14,25.14,0,0,1,1.75-3.72,17.65,17.65,0,0,1,3.5-4.62,19,19,0,0,1,5-3.25c.37-.17.75-.32,1.14-.47a15,15,0,0,1,1.67-.51q.83-.2,1.67-.33a21.71,21.71,0,0,1,3.37-.29,15.59,15.59,0,0,1,6.48,1.25,10.6,10.6,0,0,1,4.17,3.27,10.89,10.89,0,0,1,1.34,2.33,7.68,7.68,0,0,1,.58,2.64,6.89,6.89,0,0,1-1.61,5,4.26,4.26,0,0,1-2.36,1.29,3.77,3.77,0,0,1-2.61-.59,3.18,3.18,0,0,1-1.48-2.33,3.12,3.12,0,0,1,1-2.56,4.79,4.79,0,0,1,2.49-1.1,9.42,9.42,0,0,1,2.66,0,9,9,0,0,1,2.6.69,11.52,11.52,0,0,1,2.28,1.45A11.79,11.79,0,0,1,83.7,73a9.69,9.69,0,0,1,.43,1.21,8.42,8.42,0,0,1,.24,3.65A7.84,7.84,0,0,1,83,81.24a7.2,7.2,0,0,1-2.72,2.28,16.79,16.79,0,0,1-3.05,1.08c-1.92.53-3.6,1-4.83,2.23A5.29,5.29,0,0,0,71.06,89a3.26,3.26,0,0,0,.16,2.65,2.3,2.3,0,0,0,1,.89,2.51,2.51,0,0,0,2.29-.19,1.07,1.07,0,0,0,.52-.93,1.09,1.09,0,0,0-.47-.81.86.86,0,0,0-.89,0s0-.11.18-.21a.77.77,0,0,1,.74-.05,1.31,1.31,0,0,1,.72.84,1.3,1.3,0,0,1-.35,1.27,2.76,2.76,0,0,1-2.49.62A2.55,2.55,0,0,1,71.08,92.25Z"/><path d="M13.39,92.13A2.84,2.84,0,0,0,14,90.56a4.65,4.65,0,0,0-.17-1.65,6.09,6.09,0,0,0-1.64-2.8C10.6,84.59,8.45,84,6.58,83.22a8.88,8.88,0,0,1-2.76-1.72,6.36,6.36,0,0,1-1.55-2.62,8,8,0,0,1,.79-6.1,11.4,11.4,0,0,1,2.74-3.44,8.29,8.29,0,0,1,1.76-1.19,8.69,8.69,0,0,1,2.05-.64,8,8,0,0,1,2.15-.11,3.8,3.8,0,0,1,1.9.65,2.4,2.4,0,0,1,.94,1.69,2.44,2.44,0,0,1-.69,1.91,3.32,3.32,0,0,1-4.35.43,5.52,5.52,0,0,1-2.22-4.26A7.44,7.44,0,0,1,8.57,63a9,9,0,0,1,3.64-3.3,13.6,13.6,0,0,1,7.8-.93,29.72,29.72,0,0,1,3.91.8A22.67,22.67,0,0,1,27.67,61a22.08,22.08,0,0,1,3.48,2A16.51,16.51,0,0,1,34,65.64a20.26,20.26,0,0,1,3.81,6.92,21.36,21.36,0,0,1,1,8.39,24.64,24.64,0,0,1-.49,3.29,10.79,10.79,0,0,1-.6,1.82c-.2.47-.38.76-.33.8s.26-.19.54-.67a8.21,8.21,0,0,0,.79-2.1A20.51,20.51,0,0,0,39.21,81a23.67,23.67,0,0,0,.06-3.67A24.11,24.11,0,0,0,36.06,66.6,17.59,17.59,0,0,0,32.55,62a18.93,18.93,0,0,0-5-3.25c-.37-.17-.75-.32-1.14-.47a15,15,0,0,0-1.68-.51c-.55-.13-1.11-.25-1.67-.33a21.77,21.77,0,0,0-3.37-.29,15.61,15.61,0,0,0-6.48,1.25A10.6,10.6,0,0,0,9,61.63,10.92,10.92,0,0,0,7.68,64a7.74,7.74,0,0,0-.58,2.64,6.9,6.9,0,0,0,1.62,5,4.25,4.25,0,0,0,2.36,1.29,3.79,3.79,0,0,0,2.61-.59A3.18,3.18,0,0,0,15.17,70a3.13,3.13,0,0,0-1-2.56,4.84,4.84,0,0,0-2.49-1.1,9.39,9.39,0,0,0-2.65,0,9,9,0,0,0-2.6.69,11.26,11.26,0,0,0-2.28,1.46A11.79,11.79,0,0,0,.77,72.89,10.34,10.34,0,0,0,.34,74.1,8.43,8.43,0,0,0,.1,77.75a7.82,7.82,0,0,0,1.4,3.36,7.19,7.19,0,0,0,2.72,2.28,16.88,16.88,0,0,0,3,1.08c1.92.53,3.6,1,4.83,2.23a5.25,5.25,0,0,1,1.31,2.21,3.27,3.27,0,0,1-.16,2.65,2.3,2.3,0,0,1-1,.89A2.52,2.52,0,0,1,10,92.26a1.07,1.07,0,0,1-.52-.93,1.08,1.08,0,0,1,.47-.81.85.85,0,0,1,.89,0s0-.11-.18-.21a.77.77,0,0,0-.74-.05,1.29,1.29,0,0,0-.37,2.11A2.76,2.76,0,0,0,12,93,2.53,2.53,0,0,0,13.39,92.13Z"/><path d="M32.79,10.35a3.12,3.12,0,0,0,1.13-2.5A4.83,4.83,0,0,0,33,5.3a9.4,9.4,0,0,0-1.83-1.92,10.09,10.09,0,0,0-1.44-.94,7.53,7.53,0,0,1,1.12-.81A7.81,7.81,0,0,1,33.15.75,9,9,0,0,1,38.06,1,13.6,13.6,0,0,1,44.18,6,29.42,29.42,0,0,1,46.27,9.2a8.39,8.39,0,0,1,2.58.59c-.19-.41-.39-.82-.63-1.21s-.6-1-.93-1.43a21.68,21.68,0,0,0-2.15-2.62A15.62,15.62,0,0,0,39.73.77,10.6,10.6,0,0,0,34.48.08a10.92,10.92,0,0,0-2.6.67,7.74,7.74,0,0,0-2.3,1.43l-.13.12c-.21-.11-.41-.23-.63-.31a11.24,11.24,0,0,0-2.64-.61,11.8,11.8,0,0,0-5.52.67,10.33,10.33,0,0,0-1.17.54A8.43,8.43,0,0,0,16.72,5,7.82,7.82,0,0,0,15.3,8.33a7.2,7.2,0,0,0,.27,3.54,16.84,16.84,0,0,0,1.36,2.93c1,1.75,1.79,3.29,1.79,5a5.25,5.25,0,0,1-.66,2.48,3.27,3.27,0,0,1-2,1.73A2.31,2.31,0,0,1,14.73,24a2.52,2.52,0,0,1-1.47-1.77,1.06,1.06,0,0,1,.3-1,1.08,1.08,0,0,1,.91-.23c.59.13.55.67.61.65s.06-.1,0-.28a.77.77,0,0,0-.48-.57,1.29,1.29,0,0,0-1.77,1.21,2.76,2.76,0,0,0,1.3,2.21,2.53,2.53,0,0,0,1.58.38,2.84,2.84,0,0,0,1.55-.65,4.65,4.65,0,0,0,1.06-1.27,6.1,6.1,0,0,0,.85-3.13c0-2.22-1.14-4.15-1.86-6.05a8.88,8.88,0,0,1-.7-3.18,6.37,6.37,0,0,1,.79-2.94,8,8,0,0,1,4.91-3.7,11.4,11.4,0,0,1,4.38-.45,9.39,9.39,0,0,1,1.68.32,6.18,6.18,0,0,0-1.3,3.39,4.25,4.25,0,0,0,.73,2.59,3.79,3.79,0,0,0,2.25,1.45A3.18,3.18,0,0,0,32.79,10.35ZM27.4,7.78a5.36,5.36,0,0,1,1.23-4.24l.17,0a8.68,8.68,0,0,1,1.89,1,8,8,0,0,1,1.59,1.46,3.79,3.79,0,0,1,.86,1.82,2.4,2.4,0,0,1-.55,1.85,2.44,2.44,0,0,1-1.84.84A3.33,3.33,0,0,1,27.4,7.78Z"/><path d="M70.92,20.8a1.31,1.31,0,0,0-1.11-.07.77.77,0,0,0-.48.57c0,.18,0,.28,0,.28s0-.51.61-.65a1.08,1.08,0,0,1,.91.23,1.06,1.06,0,0,1,.3,1A2.52,2.52,0,0,1,69.71,24a2.31,2.31,0,0,1-1.32.08,3.27,3.27,0,0,1-2-1.73,5.25,5.25,0,0,1-.66-2.48c0-1.72.82-3.27,1.79-5a16.83,16.83,0,0,0,1.36-2.93,7.2,7.2,0,0,0,.27-3.54A7.82,7.82,0,0,0,67.72,5,8.43,8.43,0,0,0,64.95,2.6a10.32,10.32,0,0,0-1.17-.54,11.8,11.8,0,0,0-5.52-.67A11.24,11.24,0,0,0,55.62,2c-.23.09-.42.21-.63.31l-.13-.12A7.74,7.74,0,0,0,52.56.76,10.92,10.92,0,0,0,50,.08a10.6,10.6,0,0,0-5.25.69,15.62,15.62,0,0,0-5.42,3.76,21.68,21.68,0,0,0-2.15,2.62c-.33.46-.63.94-.93,1.43s-.39.74-.57,1.11c.19-.06.37-.13.57-.19a8.65,8.65,0,0,1,2-.29A29.39,29.39,0,0,1,40.26,6,13.6,13.6,0,0,1,46.38,1,9,9,0,0,1,51.29.75a7.81,7.81,0,0,1,2.34.87,7.54,7.54,0,0,1,1.12.81,10.08,10.08,0,0,0-1.44.94A9.4,9.4,0,0,0,51.48,5.3a4.83,4.83,0,0,0-1,2.55,3.12,3.12,0,0,0,1.13,2.5,3.18,3.18,0,0,0,2.71.58,3.79,3.79,0,0,0,2.25-1.45,4.25,4.25,0,0,0,.73-2.59A6.18,6.18,0,0,0,56,3.48a9.39,9.39,0,0,1,1.69-.32,11.4,11.4,0,0,1,4.38.45A8,8,0,0,1,67,7.32a6.37,6.37,0,0,1,.79,2.94,8.88,8.88,0,0,1-.7,3.18c-.72,1.9-1.83,3.84-1.86,6.05a6.09,6.09,0,0,0,.85,3.13,4.65,4.65,0,0,0,1.06,1.27,2.84,2.84,0,0,0,1.55.65,2.53,2.53,0,0,0,1.58-.38,2.76,2.76,0,0,0,1.3-2.21A1.3,1.3,0,0,0,70.92,20.8ZM57,7.78a3.33,3.33,0,0,1-3.35,2.81,2.44,2.44,0,0,1-1.84-.84,2.4,2.4,0,0,1-.55-1.85,3.79,3.79,0,0,1,.86-1.82,8,8,0,0,1,1.59-1.46,8.68,8.68,0,0,1,1.89-1l.17,0A5.36,5.36,0,0,1,57,7.78Z"/><path d="M30.25,59.73l6.85,6.77H40l.2,2.9-.73,2.69c-.73-.17-1.45-.66-2.2-.5s-1.06,2.76-.83,4.31l.1.7a4.85,4.85,0,0,0,.78,1.91,2.17,2.17,0,0,0,.89.64,8.66,8.66,0,0,0,2.21.65s0,.06,0,.09a1.89,1.89,0,0,0,.53,1.3,1.13,1.13,0,0,0-.53.86,22.85,22.85,0,0,0,1.07,5.34,1.89,1.89,0,1,0,1.49,0A22.76,22.76,0,0,0,44,82.06a1.11,1.11,0,0,0-.45-.8,1.89,1.89,0,0,0,.61-1.38s0-.05,0-.08a8.8,8.8,0,0,0,2.25-.66,2.12,2.12,0,0,0,.89-.64,4.83,4.83,0,0,0,.78-1.91l.1-.7c.23-1.55-.2-4.18-.83-4.31-.81-.17-1.57.42-2.35.54h-.06l-.75-2.74.2-2.91h2.94l7.1-6.69,5.28-6.6-14.09,8-4.82,0L24.89,53Z"/><path d="M44.86,98.92c.52.05,2.38.13,4.12.17a27.57,27.57,0,0,0,3.9-.1l1.93-.43,1.63-.35c.23-.06,1.15-.16,2-.23a15.31,15.31,0,0,1,1.81-.08.65.65,0,0,1,.3.18,1.22,1.22,0,0,1,.15.45,2.37,2.37,0,0,0,.18.58,1,1,0,0,0,.3.35,1.11,1.11,0,0,0,.45.1.69.69,0,0,0,.43-.15,1.72,1.72,0,0,0,.1-.88,4.43,4.43,0,0,0-.15-1,1.89,1.89,0,0,0-.3-.43A9.15,9.15,0,0,0,59.24,97a32.16,32.16,0,0,0-3.37.23c-.58.1-1.28.24-1.56.33s-.66.18-.85.23-.69.11-1.11.15-2,.06-3.54,0l-3.37,0a2.19,2.19,0,0,1-1.06-.33,3.91,3.91,0,0,1-.8-.78,3.41,3.41,0,0,1-.4-1.41,2,2,0,0,1,.15-1.16c.12-.11.29-.25.38-.3a.6.6,0,0,1,.25-.1c.06,0,.1.15.1.33a1.61,1.61,0,0,1-.08.5,2.36,2.36,0,0,1-.18.33.28.28,0,0,0,.08.33,9.64,9.64,0,0,0,2.29.33l2.62.18c.28,0,.72,0,1,0a5,5,0,0,0,.78-.1.88.88,0,0,0,.45-.3.73.73,0,0,1,.35-.28.91.91,0,0,0,.38-.25,1.26,1.26,0,0,0,.23-.53c0-.18.39-.33.8-.33a4.68,4.68,0,0,1,1.05.1l.66.23a1.21,1.21,0,0,1,.48.3,1.44,1.44,0,0,0,.65.3,6.35,6.35,0,0,0,1.48,0L58.28,95a.47.47,0,0,1,.35.15,1.35,1.35,0,0,0,.35.3,33.41,33.41,0,0,0,4.2.18,26.61,26.61,0,0,1,4.27.23,4.84,4.84,0,0,0,1.28.35H69a12.45,12.45,0,0,0,1.58.13,1.58,1.58,0,0,0,.7-.23,2.71,2.71,0,0,0,.45-.43,1.08,1.08,0,0,1,.81-.15,3.09,3.09,0,0,0,1.16-.1,1.73,1.73,0,0,0,.68-.38,2.54,2.54,0,0,0,.28-.58.66.66,0,0,0,0-.53,1.62,1.62,0,0,0-.55-.3,7.54,7.54,0,0,0-.78-.23c-.19,0-1.19-.2-2.21-.35s-3.17-.44-4.78-.63h-.6a12.78,12.78,0,0,0,0-1.61,6.92,6.92,0,0,0-.23-1.43c-.08-.21-.37-.8-.63-1.31s-.62-1.2-.81-1.53a4.64,4.64,0,0,1-.4-1,9.57,9.57,0,0,1,0-1.41c0-.57.11-1,.2-1a3,3,0,0,1,.45.13,2.52,2.52,0,0,0,.71.1,6.42,6.42,0,0,0,.78-.05.6.6,0,0,0,.45-.4.75.75,0,0,0,0-.5.73.73,0,0,1-.1-.35,1.69,1.69,0,0,1,0-.38,4.45,4.45,0,0,1,.18-.45.51.51,0,0,0-.12-.53,6.07,6.07,0,0,0-.73-.58c-.26-.18-.66-.46-.88-.63s-.56-.4-.75-.53a2.92,2.92,0,0,0-.85-.33,3.64,3.64,0,0,0-.93,0,3,3,0,0,0-.65.15,1.46,1.46,0,0,1-.5.1,1.23,1.23,0,0,1-.55-.18.81.81,0,0,0-.56-.1.87.87,0,0,0-.4.25.94.94,0,0,0-.12.45,2.09,2.09,0,0,0,0,.45c0,.1.09.3.15.46a2.88,2.88,0,0,1,.13.48,1.54,1.54,0,0,1-.12.58,2.28,2.28,0,0,0-.15.7v.88c0,.3,0,.76.05,1s.07.6.1.78a6,6,0,0,0,.15.65,2.54,2.54,0,0,1,.1.63,1.09,1.09,0,0,1-.28.6,2.87,2.87,0,0,1-1.06.53c-.43.12-1.17.36-1.66.53s-1.09.35-1.36.4A7.55,7.55,0,0,1,54,88a6,6,0,0,1-1.36-.18,7.22,7.22,0,0,1-1-.48,3.16,3.16,0,0,1-.73-.53,2.84,2.84,0,0,0-.5-.45,1.72,1.72,0,0,0-.75-.28,5,5,0,0,0-.8,0c-.22,0-.73.12-1.13.2a10.1,10.1,0,0,0-1.13.3,6,6,0,0,0-1.33,1.18,18.69,18.69,0,0,0-1.36,1.68c-.23.36-.68,1.07-1,1.59a8.26,8.26,0,0,0-.75,1.71,11.54,11.54,0,0,0-.2,2.24,5.84,5.84,0,0,0,.28,2,3.34,3.34,0,0,0,.7.88c.24.19.55.48.7.63A2.72,2.72,0,0,0,44.86,98.92Z"/><path d="M39.22,99c-.53.05-2.38.13-4.12.17a27.55,27.55,0,0,1-3.9-.1l-1.93-.43-1.63-.35c-.24-.06-1.15-.16-2-.23A14.69,14.69,0,0,0,23.78,98a.63.63,0,0,0-.3.17,1.23,1.23,0,0,0-.15.45,2.28,2.28,0,0,1-.18.58,1,1,0,0,1-.3.35,1.07,1.07,0,0,1-.45.1.7.7,0,0,1-.43-.15,1.72,1.72,0,0,1-.1-.88,4.19,4.19,0,0,1,.15-1,1.79,1.79,0,0,1,.3-.43,9,9,0,0,1,2.51-.15,31.82,31.82,0,0,1,3.37.22c.58.1,1.28.25,1.56.33l.85.23c.19,0,.69.11,1.11.15s2,.06,3.54.05l3.37,0a2.18,2.18,0,0,0,1.05-.33,3.88,3.88,0,0,0,.8-.78,3.4,3.4,0,0,0,.4-1.41,2,2,0,0,0-.15-1.16,3.89,3.89,0,0,0-.38-.3.58.58,0,0,0-.25-.1c-.05,0-.1.15-.1.33a1.66,1.66,0,0,0,.07.5,2.7,2.7,0,0,0,.18.33.28.28,0,0,1-.07.33,9.68,9.68,0,0,1-2.29.33L35.3,96c-.28,0-.72,0-1,0a4.89,4.89,0,0,1-.78-.1.87.87,0,0,1-.45-.3.73.73,0,0,0-.35-.28.92.92,0,0,1-.38-.25,1.24,1.24,0,0,1-.23-.53c0-.18-.39-.33-.8-.33a4.56,4.56,0,0,0-1.05.1l-.65.23a1.17,1.17,0,0,0-.48.3,1.45,1.45,0,0,1-.65.3,6.16,6.16,0,0,1-1.48,0l-1.21-.08a.47.47,0,0,0-.35.15,1.38,1.38,0,0,1-.35.3,33.13,33.13,0,0,1-4.2.18,26.26,26.26,0,0,0-4.27.23,4.87,4.87,0,0,1-1.28.35H15a12.05,12.05,0,0,1-1.58.13,1.6,1.6,0,0,1-.71-.23,2.66,2.66,0,0,1-.45-.43,1.08,1.08,0,0,0-.8-.15,3.18,3.18,0,0,1-1.16-.1,1.72,1.72,0,0,1-.68-.38,2.42,2.42,0,0,1-.28-.58.66.66,0,0,1,0-.53,1.57,1.57,0,0,1,.55-.3,7.4,7.4,0,0,1,.78-.23c.19,0,1.19-.2,2.21-.35s3.17-.44,4.78-.63h.6a13.91,13.91,0,0,1,0-1.61,6.83,6.83,0,0,1,.23-1.43c.09-.21.37-.79.63-1.31s.62-1.2.8-1.53a4.69,4.69,0,0,0,.4-1,9.93,9.93,0,0,0,.05-1.41c0-.57-.11-1-.2-1a3.14,3.14,0,0,0-.45.12,2.49,2.49,0,0,1-.7.1,6.48,6.48,0,0,1-.78-.05.6.6,0,0,1-.45-.4.75.75,0,0,1,0-.5.75.75,0,0,0,.1-.35,1.67,1.67,0,0,0,0-.38,3.84,3.84,0,0,0-.18-.45.52.52,0,0,1,.13-.53,6.06,6.06,0,0,1,.73-.58c.26-.18.66-.46.88-.63s.56-.4.75-.53a3,3,0,0,1,.85-.33,3.62,3.62,0,0,1,.93-.05,2.89,2.89,0,0,1,.65.15,1.51,1.51,0,0,0,.5.1,1.23,1.23,0,0,0,.55-.18.79.79,0,0,1,.55-.1.82.82,0,0,1,.4.25.92.92,0,0,1,.13.45,2,2,0,0,1-.05.45c0,.09-.1.3-.15.45a2.91,2.91,0,0,0-.12.48,1.55,1.55,0,0,0,.13.58,2.28,2.28,0,0,1,.15.7v.88c0,.3,0,.76,0,1s-.07.6-.1.78a5.18,5.18,0,0,1-.15.65,2.62,2.62,0,0,0-.1.63,1.08,1.08,0,0,0,.28.6,2.88,2.88,0,0,0,1.05.53c.43.13,1.18.36,1.66.53s1.09.35,1.36.4a7.82,7.82,0,0,0,1.38.07,6.15,6.15,0,0,0,1.36-.18,7.35,7.35,0,0,0,1-.48,3.18,3.18,0,0,0,.73-.53,2.87,2.87,0,0,1,.5-.45,1.74,1.74,0,0,1,.75-.28,5.22,5.22,0,0,1,.8,0c.22,0,.73.12,1.13.2a9.53,9.53,0,0,1,1.13.3,5.9,5.9,0,0,1,1.33,1.18,17.89,17.89,0,0,1,1.36,1.68c.24.36.67,1.07,1,1.58a8.12,8.12,0,0,1,.75,1.71,11.62,11.62,0,0,1,.2,2.24,5.91,5.91,0,0,1-.28,2,3.47,3.47,0,0,1-.7.88c-.24.19-.55.47-.7.63A2.69,2.69,0,0,1,39.22,99Z"/><ellipse cx="42.07" cy="99.73" rx="32.33" ry="3.49"/><circle cx="24.72" cy="96.25" r="1.06"/><circle cx="60.16" cy="96.42" r="1.06"/><circle class="cls-1" cx="41.96" cy="36.66" r="24.53"/><path d="M20.11,36.57A21.87,21.87,0,0,1,42,14.7h0A21.87,21.87,0,0,1,63.84,36.57h0A21.87,21.87,0,0,1,42,58.43h0A21.87,21.87,0,0,1,20.11,36.57ZM26.7,21.29a21.54,21.54,0,0,0-6.33,15.28h0A21.53,21.53,0,0,0,26.7,51.84h0A21.54,21.54,0,0,0,42,58.17h0a21.54,21.54,0,0,0,15.28-6.33h0a21.54,21.54,0,0,0,6.33-15.28h0a21.54,21.54,0,0,0-6.33-15.28h0A21.54,21.54,0,0,0,42,15h0A21.54,21.54,0,0,0,26.7,21.29Z"/><path d="M17.21,36.7A24.73,24.73,0,0,1,41.93,12h0A24.73,24.73,0,0,1,66.66,36.7h0A24.73,24.73,0,0,1,41.93,61.43h0A24.73,24.73,0,0,1,17.21,36.7Zm7.43-17.3a24.39,24.39,0,0,0-7.17,17.3h0A24.39,24.39,0,0,0,24.63,54h0a24.39,24.39,0,0,0,17.3,7.17h0A24.39,24.39,0,0,0,59.24,54h0A24.39,24.39,0,0,0,66.4,36.7h0a24.39,24.39,0,0,0-7.17-17.3h0a24.39,24.39,0,0,0-17.3-7.17h0a24.39,24.39,0,0,0-17.3,7.17Z"/><path d="M21.11,36.65A20.82,20.82,0,0,1,41.93,15.82h0A20.82,20.82,0,0,1,62.76,36.65h0A20.82,20.82,0,0,1,41.93,57.47h0A20.82,20.82,0,0,1,21.11,36.65Zm6.28-14.54a20.5,20.5,0,0,0-6,14.54h0a20.49,20.49,0,0,0,6,14.54h0a20.5,20.5,0,0,0,14.54,6h0a20.5,20.5,0,0,0,14.54-6h0a20.5,20.5,0,0,0,6-14.54h0a20.5,20.5,0,0,0-6-14.54h0a20.5,20.5,0,0,0-14.54-6h0a20.5,20.5,0,0,0-14.54,6Z"/><path d="M34.11,36.69a7.82,7.82,0,0,1,7.82-7.82h0a7.82,7.82,0,0,1,7.82,7.82h0a7.82,7.82,0,0,1-7.82,7.82h0a7.82,7.82,0,0,1-7.82-7.82Zm2.36-5.46a7.7,7.7,0,0,0-2.26,5.46h0a7.7,7.7,0,0,0,2.26,5.46h0a7.7,7.7,0,0,0,5.46,2.26h0a7.7,7.7,0,0,0,5.46-2.26h0a7.7,7.7,0,0,0,2.26-5.46h0a7.7,7.7,0,0,0-2.26-5.46h0A7.7,7.7,0,0,0,41.93,29h0a7.7,7.7,0,0,0-5.46,2.26Z"/><circle cx="41.92" cy="36.66" r="1.23"/><path d="M42.05,15.93V12h-.19v3.89Z"/><path d="M41.86,57.3v4h.19v-4Z"/><path d="M60.22,27l3.43-1.83L63.56,25l-3.43,1.83Z"/><path d="M23.74,46.33l-3.6,1.93.09.17,3.59-1.92Z"/><path d="M52.46,18.79l1.86-3.23-.16-.09-1.87,3.24Z"/><path d="M31.63,54.59l-2,3.55.16.09,2.06-3.57Z"/><path d="M51.4,55l1.92,3.58.16-.09-1.91-3.56Z"/><path d="M32,18.38l-1.78-3.33-.17.09,1.79,3.34Z"/><path d="M24.07,26.36l-3.45-2-.09.16,3.45,2Z"/><path d="M59.75,46.9l-.1.16,3.55,2,.09-.16Z"/><path d="M21.37,36.57H17.28v.19h4.1C21.38,36.69,21.37,36.63,21.37,36.57Z"/><path d="M62.48,36.57c0,.06,0,.12,0,.19h4v-.19Z"/><path d="M51.4,20c.34-.61.39-.71.25-.84l-.06-.05a.25.25,0,0,1,.09-.14l.34.21.35.18a.25.25,0,0,1-.08.15l-.08,0c-.18-.06-.24,0-.58.65l-1.15,2.06c-.34.61-.38.7-.24.83l.06.06a.24.24,0,0,1-.09.14L49.86,23l-.36-.18a.24.24,0,0,1,.08-.15l.08,0c.19.05.24,0,.58-.64Z"/><path d="M58.42,27.12c.61-.34.71-.4.65-.59l0-.08a.24.24,0,0,1,.15-.08c.07.15.11.24.18.36s.12.2.21.33a.25.25,0,0,1-.14.09l-.05-.06c-.12-.15-.22-.1-.83.25l-2.06,1.16c-.61.35-.69.4-.64.58l0,.08a.25.25,0,0,1-.15.08c-.07-.15-.11-.24-.18-.35s-.12-.21-.21-.34a.24.24,0,0,1,.14-.09l.06.06c.13.14.22.1.83-.24Z"/><path d="M58.94,28.06c.61-.34.71-.4.64-.59l0-.08a.25.25,0,0,1,.15-.08c.07.15.11.24.18.36s.12.2.21.33a.25.25,0,0,1-.14.09L59.91,28c-.12-.15-.22-.1-.84.25L57,29.44c-.61.34-.69.4-.64.58l0,.08a.24.24,0,0,1-.15.08c-.07-.14-.11-.24-.18-.35s-.13-.21-.21-.34A.24.24,0,0,1,56,29.4l.06.06c.13.14.22.1.83-.24Z"/><path d="M60.87,35.49c.7,0,.82,0,.85-.19v-.08a.24.24,0,0,1,.17,0c0,.16,0,.27,0,.4s0,.24,0,.4a.25.25,0,0,1-.17,0v-.08c0-.19-.15-.19-.85-.19H58.51c-.7,0-.8,0-.84.19l0,.08a.25.25,0,0,1-.17,0c0-.16,0-.27,0-.4s0-.24,0-.4a.24.24,0,0,1,.17,0l0,.08c0,.19.14.19.84.19Z"/><path d="M60.87,36.57c.7,0,.82,0,.85-.19v-.08a.24.24,0,0,1,.17,0c0,.16,0,.27,0,.4s0,.24,0,.39a.24.24,0,0,1-.17,0V37c0-.19-.15-.19-.85-.19H58.51c-.7,0-.8,0-.84.19l0,.08a.24.24,0,0,1-.17,0c0-.16,0-.27,0-.39s0-.24,0-.4a.24.24,0,0,1,.17,0l0,.08c0,.19.14.19.84.19Z"/><path d="M60.87,37.64c.7,0,.82,0,.85-.19v-.08a.24.24,0,0,1,.17,0c0,.16,0,.27,0,.4s0,.24,0,.4a.25.25,0,0,1-.17,0V38.1c0-.19-.15-.19-.85-.19H58.51c-.7,0-.8,0-.84.19l0,.08a.25.25,0,0,1-.17,0c0-.16,0-.27,0-.4s0-.24,0-.4a.24.24,0,0,1,.17,0l0,.08c0,.19.14.19.84.19Z"/><path d="M41.52,21.16a.21.21,0,0,1,0,.17l-.4,0-.41,0a.26.26,0,0,1,0-.17l.09,0c.07,0,.11,0,.11-.09a.91.91,0,0,0-.07-.29c-.14-.4-.32-1-.46-1.33-.09.23-.32.95-.45,1.41a.94.94,0,0,0,0,.21s0,.07.09.09l.09,0a.22.22,0,0,1,0,.17l-.34,0-.33,0a.19.19,0,0,1,0-.17l.08,0c.17,0,.28-.33.38-.59,0-.11.26-.69.43-1.22a.49.49,0,0,0,0-.13.66.66,0,0,0,0-.15l-.48-1.43c-.11-.31-.17-.45-.28-.5l-.1,0a.25.25,0,0,1,0-.17l.37,0,.36,0a.22.22,0,0,1,0,.17h-.09a.1.1,0,0,0-.1.09,1.56,1.56,0,0,0,.1.37c.11.32.29.91.41,1.21.08-.21.37-1.15.43-1.35a1,1,0,0,0,0-.22s0-.07-.1-.09l-.08,0a.21.21,0,0,1,0-.17l.34,0,.31,0a.23.23,0,0,1,0,.17h-.08c-.1,0-.21.22-.34.56s-.26.73-.41,1.17a.65.65,0,0,0,0,.13.53.53,0,0,0,0,.17l.54,1.58c.11.31.19.42.29.44Z"/><path d="M41.86,17.94c0-.7,0-.82-.19-.85h-.08a.25.25,0,0,1,0-.17l.4,0,.39,0a.25.25,0,0,1,0,.17h-.08c-.19,0-.19.15-.19.85V20.3c0,.7,0,.8.19.84l.08,0a.25.25,0,0,1,0,.17l-.39,0-.4,0a.24.24,0,0,1,0-.17l.08,0c.19,0,.19-.14.19-.84Z"/><path d="M42.93,17.94c0-.7,0-.82-.19-.85h-.08a.25.25,0,0,1,0-.17l.4,0,.39,0a.24.24,0,0,1,0,.17h-.08c-.19,0-.19.15-.19.85V20.3c0,.7,0,.8.19.84l.08,0a.24.24,0,0,1,0,.17l-.39,0-.4,0a.24.24,0,0,1,0-.17l.08,0c.19,0,.19-.14.19-.84Z"/><path d="M59.08,45c.61.35.71.4.83.26l.05-.06a.25.25,0,0,1,.14.09c-.09.13-.15.22-.22.34s-.11.21-.18.35a.25.25,0,0,1-.15-.08l0-.08c.07-.18,0-.24-.64-.6l-2-1.19c-.61-.35-.69-.4-.83-.26l-.06.06a.25.25,0,0,1-.14-.09c.09-.13.15-.22.22-.33s.12-.21.18-.36a.24.24,0,0,1,.15.08l0,.08c-.05.19,0,.24.63.59Z"/><path d="M58.85,46c.36.12.5.15.6.05l0,0a.2.2,0,0,1,.14.09,2.32,2.32,0,0,0-.18.28,3.71,3.71,0,0,0-.18.34.21.21,0,0,1-.15-.08v0c0-.12,0-.16,0-.19s-.4-.16-.88-.33L56,45.29c.33.31.85.77,1.12,1l1.13,1a1.48,1.48,0,0,0,.21.15s.1,0,.18-.06l0,0a.21.21,0,0,1,.14.09,2.44,2.44,0,0,0-.18.28,2.48,2.48,0,0,0-.14.28.24.24,0,0,1-.15-.08l0-.09c0-.07,0-.15-.12-.26s-.63-.61-1.14-1.08l-.62-.56c-.46-.42-1.05-.93-1.33-1.16a0,0,0,0,1,0,0l0,0c.26.11.57.22.84.32Z"/><path d="M51.43,53.28c.24.29.35.39.49.35l.06,0a.2.2,0,0,1,.07.15l-.3.14-.33.2a.21.21,0,0,1-.09-.14l0,0c.09-.09.09-.13.07-.18s-.26-.34-.59-.74c-.5-.6-1-1.2-1.5-1.79.12.43.34,1.09.44,1.44l.46,1.44a1.34,1.34,0,0,0,.1.24s.08.07.19,0l.06,0a.21.21,0,0,1,.07.15l-.3.14-.26.17a.24.24,0,0,1-.09-.14l.08-.06c.06,0,.06-.14,0-.28-.07-.32-.22-.85-.42-1.51l-.24-.8c-.18-.6-.42-1.34-.55-1.68a0,0,0,0,1,0,0H49c.17.23.37.48.55.7Z"/><path d="M43.5,55.89c.07.37.12.51.26.54h.06a.2.2,0,0,1,0,.17l-.33,0-.39,0a.21.21,0,0,1,0-.17h0c.12,0,.15-.07.15-.13s-.06-.42-.16-.93c-.15-.77-.29-1.53-.45-2.29-.1.44-.23,1.12-.31,1.47s-.24,1.2-.3,1.49a1.4,1.4,0,0,0,0,.26s0,.1.14.13h.06a.21.21,0,0,1,0,.17l-.33,0-.31,0a.24.24,0,0,1,0-.17h.1c.08,0,.12-.09.17-.23.09-.31.21-.85.36-1.53l.17-.82c.13-.61.28-1.38.33-1.73l0,0,0,0c0,.28.09.6.15.88Z"/><path d="M41.26,55.58c0,.7,0,.82.19.85h.08a.25.25,0,0,1,0,.17l-.4,0-.39,0a.24.24,0,0,1,0-.17h.08c.19,0,.19-.15.19-.85V53.22c0-.7,0-.8-.19-.84l-.08,0a.24.24,0,0,1,0-.17l.39,0,.4,0a.24.24,0,0,1,0,.17l-.08,0c-.19,0-.19.14-.19.84Z"/><path d="M34.24,54.53c-.12.36-.15.5-.05.6l0,0a.2.2,0,0,1-.09.14,2.25,2.25,0,0,0-.28-.18l-.34-.18a.21.21,0,0,1,.08-.15h0c.12,0,.16,0,.19,0s.16-.4.33-.88c.26-.74.52-1.47.76-2.2-.31.33-.77.85-1,1.12l-1,1.14a1.39,1.39,0,0,0-.16.21s0,.1.06.18l0,0a.21.21,0,0,1-.09.14l-.28-.18-.28-.14a.25.25,0,0,1,.08-.15l.09,0c.07,0,.15,0,.26-.12s.61-.63,1.08-1.14l.56-.62c.42-.46.93-1.05,1.16-1.33h0l0,0c-.11.26-.22.57-.32.84Z"/><path d="M32.45,53.13c-.35.61-.41.71-.26.83l.06.05a.24.24,0,0,1-.09.14l-.34-.22-.35-.18a.24.24,0,0,1,.08-.15l.08,0c.18.07.24,0,.6-.64l1.19-2c.35-.61.39-.69.26-.83l-.06-.06a.24.24,0,0,1,.09-.14l.33.22.36.18a.24.24,0,0,1-.08.15l-.08,0c-.19-.05-.24,0-.59.63Z"/><path d="M31.52,52.59c-.35.61-.4.71-.26.83l.06.05a.24.24,0,0,1-.09.14l-.34-.22-.35-.18a.25.25,0,0,1,.08-.15l.08,0c.18.06.24,0,.59-.64l1.19-2c.35-.61.39-.69.26-.83l-.06-.06a.24.24,0,0,1,.09-.14l.33.22.36.18a.24.24,0,0,1-.08.15l-.08,0c-.19-.05-.24,0-.59.63Z"/><path d="M26.49,48.24c-.29.24-.4.34-.36.48l0,.06a.2.2,0,0,1-.15.07,2.16,2.16,0,0,0-.13-.3,3.43,3.43,0,0,0-.2-.33.21.21,0,0,1,.14-.08l0,0c.09.09.13.1.18.07s.35-.25.75-.57c.61-.48,1.22-1,1.82-1.46l-1.45.41L25.69,47a1.47,1.47,0,0,0-.24.09s-.07.07,0,.19l0,.06a.21.21,0,0,1-.15.07,2.36,2.36,0,0,0-.13-.3,2.53,2.53,0,0,0-.16-.26.24.24,0,0,1,.14-.08l.06.08c0,.06.14.07.28,0,.32-.06.85-.2,1.52-.39l.8-.22c.6-.17,1.35-.39,1.69-.5l0,0a.08.08,0,0,1,0,.05c-.23.16-.49.36-.72.54Z"/><path d="M25.72,46.11c-.62.32-.72.38-.66.56l0,.08a.24.24,0,0,1-.15.07c-.06-.15-.11-.25-.17-.36s-.11-.21-.2-.34a.24.24,0,0,1,.14-.08l0,.06c.12.15.22.1.84-.22l2.1-1.09c.62-.32.7-.37.66-.56l0-.08a.24.24,0,0,1,.15-.07c.06.15.11.25.16.36s.12.21.2.35a.24.24,0,0,1-.14.08l-.05-.06c-.13-.15-.21-.11-.84.22Z"/><path d="M25.23,45.16c-.62.32-.72.38-.66.56l0,.08a.24.24,0,0,1-.15.07c-.06-.15-.11-.25-.17-.37s-.11-.21-.2-.34a.25.25,0,0,1,.14-.08l0,.06c.12.15.22.11.84-.22l2.1-1.09c.62-.32.7-.37.66-.56l0-.08a.25.25,0,0,1,.15-.07c.06.15.1.25.16.36s.12.21.2.35a.24.24,0,0,1-.14.08l-.05-.06c-.13-.15-.21-.11-.84.22Z"/><path d="M24.73,44.2c-.62.32-.72.38-.66.56l0,.08a.24.24,0,0,1-.15.07c-.06-.15-.11-.25-.17-.36s-.11-.21-.2-.34a.24.24,0,0,1,.14-.08l0,.06c.12.15.22.1.84-.22l2.1-1.09c.62-.32.7-.37.66-.56l0-.08a.25.25,0,0,1,.15-.07c.06.15.11.25.16.36s.12.21.2.35a.24.24,0,0,1-.14.08l-.06-.06c-.13-.15-.21-.11-.84.22Z"/><path d="M28.81,28.12a.21.21,0,0,1,.14.09c-.09.12-.16.22-.22.33a3.86,3.86,0,0,0-.19.36.27.27,0,0,1-.15-.08l0-.09c0-.07,0-.11,0-.14a.93.93,0,0,0-.29-.09c-.42-.09-1-.22-1.38-.29.15.19.65.76,1,1.11a1,1,0,0,0,.16.14s.08,0,.12,0l.06-.06a.23.23,0,0,1,.14.09,3.12,3.12,0,0,0-.19.29,2.53,2.53,0,0,0-.15.29.19.19,0,0,1-.15-.08l0-.08c.05-.17-.13-.41-.31-.63s-.46-.57-.83-1a.47.47,0,0,0-.1-.09l-.15,0-1.47-.32c-.32-.07-.47-.09-.57,0l-.09.06a.26.26,0,0,1-.14-.09c.09-.12.15-.21.21-.31a2.86,2.86,0,0,0,.17-.32.22.22,0,0,1,.15.08l0,.08a.1.1,0,0,0,0,.13,1.56,1.56,0,0,0,.36.1c.33.07.94.22,1.25.27-.14-.18-.8-.91-.94-1.06a1,1,0,0,0-.17-.15s-.09,0-.13,0l-.06.06s-.13-.05-.14-.09a2.76,2.76,0,0,0,.19-.28,2.16,2.16,0,0,0,.14-.27.23.23,0,0,1,.15.08l0,.07c0,.09.08.29.31.58s.49.6.8,1l.09.09a.5.5,0,0,0,.17.05l1.63.35c.32.07.46,0,.52,0Z"/><path d="M35,22.47a.21.21,0,0,1,.09.14l-.35.2-.34.24a.27.27,0,0,1-.09-.14l.07-.07c.06-.05.07-.09,0-.13a.9.9,0,0,0-.21-.21c-.33-.27-.78-.64-1.09-.89,0,.24.23,1,.37,1.43a.93.93,0,0,0,.08.2s.06,0,.12,0l.08,0a.23.23,0,0,1,.09.14l-.3.17-.27.19a.19.19,0,0,1-.1-.14l.06-.06c.12-.12.07-.43,0-.7,0-.11-.15-.72-.28-1.26a.5.5,0,0,0,0-.13l-.11-.11-1.16-1c-.25-.21-.38-.29-.5-.27h-.11A.26.26,0,0,1,31,20l.32-.18a2.79,2.79,0,0,0,.29-.21s.08.09.09.14l-.07.06a.1.1,0,0,0,0,.12,1.58,1.58,0,0,0,.28.26c.26.21.73.62,1,.81,0-.22-.3-1.17-.36-1.37a.94.94,0,0,0-.08-.21s-.08,0-.13,0l-.08,0a.21.21,0,0,1-.08-.14l.3-.16.25-.18a.23.23,0,0,1,.09.14l-.06.05c-.07.07-.06.3,0,.66s.17.76.27,1.21a.58.58,0,0,0,0,.12.51.51,0,0,0,.13.12l1.29,1.05c.26.21.38.25.48.22Z"/><path d="M33.6,19.56c-.37-.59-.44-.69-.62-.62l-.07,0a.24.24,0,0,1-.08-.14l.35-.2.32-.23a.24.24,0,0,1,.09.14l-.06.05c-.14.13-.09.23.29.82l1.26,2c.37.6.43.67.61.61l.08,0a.25.25,0,0,1,.08.14l-.35.19-.33.23a.24.24,0,0,1-.09-.14l.06-.06c.13-.14.09-.22-.28-.82Z"/><path d="M23.14,38c-.7,0-.82,0-.85.19v.08a.24.24,0,0,1-.17,0c0-.16,0-.27,0-.4s0-.24,0-.39a.25.25,0,0,1,.17,0v.08c0,.19.15.19.85.19H25.5c.7,0,.8,0,.84-.19l0-.08a.25.25,0,0,1,.17,0c0,.16,0,.27,0,.39s0,.24,0,.4a.24.24,0,0,1-.17,0l0-.08c0-.19-.14-.19-.84-.19Z"/><path d="M26.36,35.19a.22.22,0,0,1,.17,0c0,.15,0,.27,0,.4a3.86,3.86,0,0,0,0,.41.27.27,0,0,1-.17,0l0-.09c0-.07,0-.11-.09-.11a.91.91,0,0,0-.29.07c-.4.14-1,.32-1.33.46.23.09.95.32,1.41.45l.21,0s.07,0,.09-.09l0-.09a.22.22,0,0,1,.17,0,3.08,3.08,0,0,0,0,.34,2.66,2.66,0,0,0,0,.33.19.19,0,0,1-.17,0l0-.08c0-.17-.33-.28-.59-.38-.11,0-.69-.26-1.22-.43l-.13,0-.15,0-1.43.48c-.31.11-.45.17-.5.28l0,.1a.26.26,0,0,1-.17,0c0-.15,0-.25,0-.37a2.88,2.88,0,0,0,0-.36.22.22,0,0,1,.17,0v.09a.1.1,0,0,0,.09.1,1.57,1.57,0,0,0,.37-.1c.32-.11.91-.29,1.21-.41-.21-.08-1.15-.37-1.35-.43l-.22,0s-.07,0-.09.11l0,.08a.21.21,0,0,1-.17,0,2.75,2.75,0,0,0,0-.34,2.17,2.17,0,0,0,0-.31.23.23,0,0,1,.17,0v.08c0,.1.22.21.56.34l1.17.41.13,0a.52.52,0,0,0,.17,0l1.58-.54c.31-.11.42-.19.44-.29Z"/><path d="M42.32,28.76a1.09,1.09,0,0,0-.73-1l-.8-3.28,0,3.36a1.1,1.1,0,0,0,.14,2l.32,3.9,0,2.07.3,1.88L42.07,44l.35-1.27L43,43.89l-.51-6.25V35.69l-.31-2-.32-3.9A1.09,1.09,0,0,0,42.32,28.76Zm-1,.84a.78.78,0,1,1,.71-.84A.78.78,0,0,1,41.35,29.61Z"/><path d="M36.69,26.16a1.09,1.09,0,0,0-1.08-.53l-2.66-3.5L35,26a1.08,1.08,0,0,0-.07,1.23,1.1,1.1,0,0,0,1.07.53l3.62,6L41,36.43l1.54,2.28,4.69,7.8-.54-1.77L48,46.05l-4.69-7.8L42,35.77l-1.64-2.44-3.65-6.06A1.09,1.09,0,0,0,36.69,26.16Zm-.49,1.2a.78.78,0,1,1,.27-1.07A.78.78,0,0,1,36.21,27.37Z"/></g></g></svg>