<svg xmlns="http://www.w3.org/2000/svg" viewBox="0 0 80.22 121.05"><defs><style>.cls-1{fill:#fff;}</style></defs><title>Ресурс 35clock</title><g id="Слой_2" data-name="Слой 2"><g id="Layer_1" data-name="Layer 1"><path d="M3.75,10.71V9.52l2.14-.43A42.42,42.42,0,0,1,2.93,0,42.7,42.7,0,0,1,0,9.1l2.3.48v1.18a2.21,2.21,0,0,0,0,4.14V16H3.75v-1a2.21,2.21,0,0,0,0-4.23Z"/><path d="M48.91,50.17V49.4l1.38-.28a27.29,27.29,0,0,1-1.9-5.84,27.36,27.36,0,0,1-1.88,5.85l1.48.31v.76a1.42,1.42,0,0,0,0,2.66v.7h.93v-.67a1.42,1.42,0,0,0,0-2.72Z"/><path d="M74.37,34l-.31,1.48H73.3a1.42,1.42,0,0,0-2.66,0h-.1a7.26,7.26,0,0,1,0,.93h.11a1.42,1.42,0,0,0,2.72,0h.76l.28,1.38a27.12,27.12,0,0,1,5.84-1.9A27.36,27.36,0,0,1,74.37,34Z"/><path d="M47.88,109.65v.76l-1.38.28a27.35,27.35,0,0,1,1.9,5.84,27.44,27.44,0,0,1,1.88-5.85l-1.48-.31v-.76a1.42,1.42,0,0,0,0-2.66v-.7h-.93v.67a1.42,1.42,0,0,0,0,2.72Z"/><rect x="2.3" y="15.85" width="1.45" height="105.2"/><rect x="3.23" y="35.57" width="68.65" height="1.44"/><rect x="36.61" y="-10.22" width="1.44" height="72.11" transform="translate(2.59 55.05) rotate(-74.75)"/><path d="M4.57,80.89a4.33,4.33,0,0,0,3.48,1.76h.14a4.47,4.47,0,0,0,3.24-1.17,3.57,3.57,0,0,0,1.06-2.55,3.41,3.41,0,0,0-.8-2.23,3,3,0,0,0-2.3-1H9.3a2.74,2.74,0,0,0-2,.72,2.21,2.21,0,0,0-.64,1.56A1.9,1.9,0,0,0,8,79.85l.92.24-.6-.74,0-.07,0-.08-.08,0a.73.73,0,0,1-.31-.66,1.2,1.2,0,0,1,.31-.79,1.29,1.29,0,0,1,1-.38h0a1.49,1.49,0,0,1,1.12.49,1.65,1.65,0,0,1,.39,1.1,2,2,0,0,1-.6,1.42A2.67,2.67,0,0,1,8.16,81H8.08a3,3,0,0,1-2.29-1.07,4.37,4.37,0,0,1-.92-2.87s0-.08,0-.13a10.17,10.17,0,0,1,2.91-6.39c.28-.24.57-.46.88-.67a9.7,9.7,0,0,1,2-1.08,11.07,11.07,0,0,1,1.92-.54l.21,0a6.66,6.66,0,0,1,.67,0c2.13,0,3.47,1.16,3.67,2.86a4.38,4.38,0,0,1,0,.44,2.14,2.14,0,0,1-2.06,2.37,1.47,1.47,0,0,1-1.54-1.38,1.06,1.06,0,0,1,0-.22A1.15,1.15,0,0,1,14.67,71a.67.67,0,0,1,.58.24l0,.07.08,0,.07,0,.83.6-.35-1a1.86,1.86,0,0,0-1.8-1.15,2.23,2.23,0,0,0-1.54.61,2.53,2.53,0,0,0-.72,1.87,4.34,4.34,0,0,0,0,.44,3.11,3.11,0,0,0,3.21,2.8,3.59,3.59,0,0,0,2.51-1,4.12,4.12,0,0,0,1.16-3,6.46,6.46,0,0,0,0-.71,4.31,4.31,0,0,0-1.8-3.13,6,6,0,0,0-3.5-1c-.28,0-.57,0-.86,0a8.6,8.6,0,0,0-3,.91,12,12,0,0,0-2.5,1.75A10,10,0,0,0,5.69,71a15.52,15.52,0,0,0-1.2,1.9,7.49,7.49,0,0,0-.84,2.2.15.15,0,0,0,0,0c0,.12-.06.26-.08.42a2.51,2.51,0,0,0,0,.38h0c0,.22-.06.45-.08.66a2.26,2.26,0,0,0,0,.27,1.08,1.08,0,0,0,0,.15A6.42,6.42,0,0,0,4.57,80.89Z"/><path d="M48.71,62a4.32,4.32,0,0,0,2.76,2.75l.13,0a4.48,4.48,0,0,0,3.45-.1,3.58,3.58,0,0,0,1.79-2.1,3.42,3.42,0,0,0-.07-2.37,3,3,0,0,0-1.86-1.7l-.08,0a2.75,2.75,0,0,0-2.12.07,2.21,2.21,0,0,0-1.09,1.29A1.9,1.9,0,0,0,52.29,62l.8.51-.34-.88,0-.08,0-.09-.06-.06a.72.72,0,0,1-.09-.73,1.21,1.21,0,0,1,.53-.66A1.3,1.3,0,0,1,54.15,60h0a1.5,1.5,0,0,1,.92.81,1.67,1.67,0,0,1,0,1.16,2,2,0,0,1-1,1.17,2.67,2.67,0,0,1-2,.05l-.08,0a3,3,0,0,1-1.84-1.72,4.36,4.36,0,0,1,0-3l0-.12A10.18,10.18,0,0,1,55,53.12a11,11,0,0,1,1-.36,9.55,9.55,0,0,1,2.2-.42,11.16,11.16,0,0,1,2,.07l.21,0a6.36,6.36,0,0,1,.65.17c2,.67,2.94,2.18,2.6,3.85,0,.15-.07.29-.11.43a2.14,2.14,0,0,1-2.69,1.62,1.47,1.47,0,0,1-1-1.79,1.36,1.36,0,0,1,.05-.21,1.2,1.2,0,0,1,.65-.77,1.22,1.22,0,0,1,.84,0,.68.68,0,0,1,.48.41l0,.08.06.06.05.06.6.82,0-1a1.86,1.86,0,0,0-1.36-1.65,2.21,2.21,0,0,0-1.66.11,2.51,2.51,0,0,0-1.26,1.56,4.17,4.17,0,0,0-.11.43,3.11,3.11,0,0,0,2.18,3.66A3.6,3.6,0,0,0,63,60a4.11,4.11,0,0,0,2-2.53,7,7,0,0,0,.18-.69,4.33,4.33,0,0,0-.75-3.53,6,6,0,0,0-3-2.06c-.27-.09-.55-.16-.83-.22a8.7,8.7,0,0,0-3.09,0,12,12,0,0,0-2.91.89,10.21,10.21,0,0,0-1.83,1.07,15.46,15.46,0,0,0-1.73,1.43,7.49,7.49,0,0,0-1.47,1.83l0,0c-.06.11-.14.24-.21.37a2.44,2.44,0,0,0-.16.35h0c-.1.2-.2.4-.29.61a2.17,2.17,0,0,0-.11.24l0,.15A6.44,6.44,0,0,0,48.71,62Z"/><path d="M48.85,104.06a1.6,1.6,0,0,0,1,1l0,0a1.66,1.66,0,0,0,1.28,0,1.33,1.33,0,0,0,.66-.78,1.26,1.26,0,0,0,0-.88,1.12,1.12,0,0,0-.69-.63h0a1,1,0,0,0-.78,0,.82.82,0,0,0-.41.48.71.71,0,0,0,.25.82l.3.19-.12-.33v-.06l0,0a.26.26,0,0,1,0-.27.44.44,0,0,1,.2-.25.48.48,0,0,1,.4,0h0a.55.55,0,0,1,.34.3.62.62,0,0,1,0,.43.73.73,0,0,1-.37.43,1,1,0,0,1-.76,0h0a1.13,1.13,0,0,1-.68-.64,1.61,1.61,0,0,1,0-1.12l0,0a3.76,3.76,0,0,1,1.76-1.92l.38-.14a3.71,3.71,0,0,1,.82-.16,4.47,4.47,0,0,1,.74,0h.08l.24.07a1.23,1.23,0,0,1,1,1.43,1.31,1.31,0,0,1,0,.16.79.79,0,0,1-1,.6.55.55,0,0,1-.39-.66.37.37,0,0,1,0-.08.44.44,0,0,1,.24-.29.45.45,0,0,1,.31,0,.24.24,0,0,1,.18.15v0l0,0,0,0,.22.3v-.38a.69.69,0,0,0-.5-.61.8.8,0,0,0-.61,0,.93.93,0,0,0-.47.58c0,.05,0,.1,0,.16a1.15,1.15,0,0,0,.81,1.35,1.33,1.33,0,0,0,1-.07,1.54,1.54,0,0,0,.76-.94c0-.08,0-.17.07-.26a1.59,1.59,0,0,0-.28-1.31,2.23,2.23,0,0,0-1.12-.76l-.31-.08a3.22,3.22,0,0,0-1.15,0,4.64,4.64,0,0,0-1.08.33,3.58,3.58,0,0,0-.68.4,5.47,5.47,0,0,0-.64.53,2.73,2.73,0,0,0-.54.68h0l-.08.14a.69.69,0,0,0-.06.13h0l-.11.23,0,.09,0,.05A2.39,2.39,0,0,0,48.85,104.06Z"/><path d="M47.83,104.1a1.6,1.6,0,0,1-1,1l0,0a1.66,1.66,0,0,1-1.28,0,1.33,1.33,0,0,1-.67-.78,1.27,1.27,0,0,1,0-.88,1.12,1.12,0,0,1,.69-.63h0a1,1,0,0,1,.79,0,.82.82,0,0,1,.41.48.7.7,0,0,1-.25.82l-.29.19.12-.33v-.06l0,0a.27.27,0,0,0,0-.27.44.44,0,0,0-.2-.25.48.48,0,0,0-.4,0h0a.55.55,0,0,0-.34.3.6.6,0,0,0,0,.43.74.74,0,0,0,.37.43,1,1,0,0,0,.76,0h0a1.12,1.12,0,0,0,.68-.64,1.61,1.61,0,0,0,0-1.12l0,0a3.77,3.77,0,0,0-1.76-1.92l-.39-.13a3.53,3.53,0,0,0-.82-.16,3.92,3.92,0,0,0-.74,0h-.08l-.24.06a1.23,1.23,0,0,0-1,1.43c0,.06,0,.11,0,.16a.8.8,0,0,0,1,.6.55.55,0,0,0,.38-.66.34.34,0,0,0,0-.08.44.44,0,0,0-.24-.29.46.46,0,0,0-.31,0,.25.25,0,0,0-.18.15v0l0,0,0,0-.22.31v-.38a.69.69,0,0,1,.5-.61.83.83,0,0,1,.62,0,.93.93,0,0,1,.47.58,1.27,1.27,0,0,1,0,.16,1.15,1.15,0,0,1-.81,1.36,1.33,1.33,0,0,1-1-.07,1.53,1.53,0,0,1-.76-.94c0-.08,0-.17-.07-.26a1.61,1.61,0,0,1,.28-1.31,2.24,2.24,0,0,1,1.12-.76l.31-.08a3.21,3.21,0,0,1,1.15,0,4.45,4.45,0,0,1,1.08.33,3.89,3.89,0,0,1,.68.4,5.81,5.81,0,0,1,.64.53,2.77,2.77,0,0,1,.55.68h0l.07.14a.75.75,0,0,1,.06.13h0l.11.23,0,.09,0,.06A2.38,2.38,0,0,1,47.83,104.1Z"/><path d="M7.94,67.15a4.33,4.33,0,0,0,3.88-.42l.11-.08A4.45,4.45,0,0,0,14,63.9a3.57,3.57,0,0,0-.5-2.71,3.43,3.43,0,0,0-1.89-1.43,3,3,0,0,0-2.49.38l-.07,0a2.74,2.74,0,0,0-1.28,1.69,2.19,2.19,0,0,0,.31,1.66,1.89,1.89,0,0,0,2.15.87l.9-.3-.9-.29-.07,0-.08,0H10a.72.72,0,0,1-.62-.39,1.19,1.19,0,0,1-.18-.83,1.27,1.27,0,0,1,.62-.86l0,0a1.5,1.5,0,0,1,1.21-.21,1.66,1.66,0,0,1,.92.71,2,2,0,0,1,.27,1.52A2.66,2.66,0,0,1,11,65.29l-.07,0a3,3,0,0,1-2.5.35,4.34,4.34,0,0,1-2.33-1.9L6,63.68A10.14,10.14,0,0,1,5,56.74a10.27,10.27,0,0,1,.37-1,9.64,9.64,0,0,1,1.06-2,11,11,0,0,1,1.31-1.5l.15-.15c.18-.15.36-.28.54-.4,1.79-1.15,3.54-.92,4.63.4.1.12.18.24.26.36a2.14,2.14,0,0,1-.43,3.11,1.47,1.47,0,0,1-2-.31,1.23,1.23,0,0,1-.13-.17A1.15,1.15,0,0,1,11,53.37a.67.67,0,0,1,.62-.11l.08,0h.17l1,0-.82-.61a1.85,1.85,0,0,0-2.14,0,2.22,2.22,0,0,0-1,1.36,2.51,2.51,0,0,0,.42,2,3.73,3.73,0,0,0,.26.36,3.11,3.11,0,0,0,4.22.6,3.58,3.58,0,0,0,1.56-2.21,4.11,4.11,0,0,0-.69-3.18,6.17,6.17,0,0,0-.42-.58,4.32,4.32,0,0,0-3.22-1.64,6.06,6.06,0,0,0-3.5,1.05c-.24.16-.47.33-.69.51a8.66,8.66,0,0,0-2,2.38A12.07,12.07,0,0,0,3.8,56.16a10.06,10.06,0,0,0-.31,2.1,15.28,15.28,0,0,0,0,2.25A7.49,7.49,0,0,0,4,62.8l0,0c0,.12.1.25.16.39a2.5,2.5,0,0,0,.17.34h0c.1.21.19.41.29.6a2.39,2.39,0,0,0,.12.23l.08.13A6.44,6.44,0,0,0,7.94,67.15Z"/><path d="M9.86,46.33a4.33,4.33,0,0,0,2.25,3.19l.12.06a4.47,4.47,0,0,0,3.41.49,3.58,3.58,0,0,0,2.13-1.75A3.41,3.41,0,0,0,18.11,46a3,3,0,0,0-1.54-2l-.07,0a2.74,2.74,0,0,0-2.1-.3,2.2,2.2,0,0,0-1.3,1.08,1.9,1.9,0,0,0,.29,2.3l.7.64-.18-.93a.67.67,0,0,1,0-.08v-.09l-.05-.07a.72.72,0,0,1,0-.73,1.19,1.19,0,0,1,.64-.56,1.28,1.28,0,0,1,1.06.13l0,0a1.51,1.51,0,0,1,.77,1,1.65,1.65,0,0,1-.17,1.15,2,2,0,0,1-1.2,1,2.67,2.67,0,0,1-2-.3l-.07,0a3,3,0,0,1-1.52-2,4.34,4.34,0,0,1,.53-3L12,43a10.16,10.16,0,0,1,5.57-4.28,10.56,10.56,0,0,1,1.09-.18,9.73,9.73,0,0,1,2.24,0,10.93,10.93,0,0,1,2,.42L23,39c.22.09.42.18.61.28,1.87,1,2.52,2.65,1.9,4.25-.06.14-.12.27-.19.4A2.14,2.14,0,0,1,22.42,45a1.47,1.47,0,0,1-.71-1.94,1.09,1.09,0,0,1,.09-.2,1.16,1.16,0,0,1,1.6-.54.69.69,0,0,1,.4.49v.08l.05.07,0,.07.45.91.14-1a1.86,1.86,0,0,0-1-1.86,2.21,2.21,0,0,0-1.65-.18,2.5,2.5,0,0,0-1.51,1.31,3.23,3.23,0,0,0-.18.4,3.11,3.11,0,0,0,1.52,4,3.59,3.59,0,0,0,2.69.29,4.11,4.11,0,0,0,2.45-2.14,7,7,0,0,0,.3-.65,4.35,4.35,0,0,0-.12-3.61A6.05,6.05,0,0,0,24.32,38c-.25-.13-.52-.25-.78-.36a8.74,8.74,0,0,0-3-.58,12,12,0,0,0-3,.37,10.13,10.13,0,0,0-2,.74,15.45,15.45,0,0,0-2,1.11,7.42,7.42,0,0,0-1.77,1.55l0,0c-.08.1-.17.21-.27.33a2.46,2.46,0,0,0-.22.31h0l-.38.55a2.29,2.29,0,0,0-.15.22l-.07.14A6.43,6.43,0,0,0,9.86,46.33Z"/><path d="M27.53,40.9a4.31,4.31,0,0,0,.23,3.89l.07.12a4.47,4.47,0,0,0,2.64,2.21,3.57,3.57,0,0,0,2.73-.37,3.4,3.4,0,0,0,1.52-1.82,3,3,0,0,0-.26-2.51l0-.08A2.76,2.76,0,0,0,32.81,41a2.21,2.21,0,0,0-1.67.23,1.9,1.9,0,0,0-1,2.11l.26.91.34-.89,0-.07,0-.08v-.09a.73.73,0,0,1,.42-.6,1.2,1.2,0,0,1,.84-.14,1.27,1.27,0,0,1,.83.67l0,0a1.5,1.5,0,0,1,.15,1.22,1.65,1.65,0,0,1-.75.89,2,2,0,0,1-1.53.2,2.66,2.66,0,0,1-1.56-1.32l0-.07A3,3,0,0,1,29,41.47a4.35,4.35,0,0,1,2-2.24l.11-.06a10.17,10.17,0,0,1,7-.72,10.28,10.28,0,0,1,1,.42A9.6,9.6,0,0,1,41,40a10.85,10.85,0,0,1,1.44,1.38l.14.16c.13.19.26.37.37.56,1.06,1.85.74,3.58-.62,4.61L42,47a2.14,2.14,0,0,1-3.08-.58,1.47,1.47,0,0,1,.41-2l.18-.12a1.15,1.15,0,0,1,1.65.39.68.68,0,0,1,.08.63l0,.07v.09a.74.74,0,0,1,0,.08l-.1,1,.65-.79a1.86,1.86,0,0,0,.08-2.13,2.22,2.22,0,0,0-1.31-1,2.51,2.51,0,0,0-2,.32l-.37.25a3.11,3.11,0,0,0-.8,4.18A3.61,3.61,0,0,0,39.51,49a4.11,4.11,0,0,0,3.21-.53c.2-.12.4-.25.6-.4a4.34,4.34,0,0,0,1.79-3.13,6,6,0,0,0-.88-3.54,8.11,8.11,0,0,0-.48-.72,8.67,8.67,0,0,0-2.27-2.09,12,12,0,0,0-2.77-1.28,10.05,10.05,0,0,0-2.08-.42,16,16,0,0,0-2.25-.08,7.52,7.52,0,0,0-2.32.39l0,0-.4.14a2.68,2.68,0,0,0-.35.15h0l-.62.26-.24.11-.13.08A6.43,6.43,0,0,0,27.53,40.9Z"/><path d="M36.37,49.39a4.32,4.32,0,0,0-2.43,3s0,.09,0,.13A4.46,4.46,0,0,0,34.4,56a3.57,3.57,0,0,0,2.28,1.55A3.41,3.41,0,0,0,39,57.2a3,3,0,0,0,1.48-2s0-.05,0-.08a2.74,2.74,0,0,0-.3-2.1,2.21,2.21,0,0,0-1.4-.95A1.9,1.9,0,0,0,36.7,53l-.42.85.84-.43.07,0,.09,0,.05-.07a.73.73,0,0,1,.71-.17,1.2,1.2,0,0,1,.72.46,1.27,1.27,0,0,1,.17,1.05.31.31,0,0,1,0,0,1.5,1.5,0,0,1-.71,1,1.66,1.66,0,0,1-1.15.16,2,2,0,0,1-1.27-.88,2.68,2.68,0,0,1-.28-2s0,0,0-.08a3,3,0,0,1,1.51-2,4.37,4.37,0,0,1,3-.32l.13,0a10.16,10.16,0,0,1,5.68,4.14c.17.32.33.66.48,1A9.7,9.7,0,0,1,47,57.76a10.92,10.92,0,0,1,.14,2c0,.09,0,.17,0,.21,0,.23-.06.45-.1.66-.45,2.08-1.84,3.16-3.54,3l-.43-.07a2.13,2.13,0,0,1-1.9-2.49,1.47,1.47,0,0,1,1.66-1.23l.21,0a1.19,1.19,0,0,1,.84.56,1.21,1.21,0,0,1,.13.83.67.67,0,0,1-.36.52l-.07,0-.05.07-.06.06-.75.69,1-.15a1.86,1.86,0,0,0,1.49-1.53,2.22,2.22,0,0,0-.29-1.63,2.5,2.5,0,0,0-1.69-1.08l-.44-.06a3.11,3.11,0,0,0-3.39,2.57,3.6,3.6,0,0,0,.48,2.67,4.11,4.11,0,0,0,2.75,1.75c.23,0,.46.08.71.1a4.33,4.33,0,0,0,3.43-1.13,6,6,0,0,0,1.71-3.23c.06-.28.1-.57.13-.85a8.7,8.7,0,0,0-.3-3.07,12,12,0,0,0-1.21-2.8,10.19,10.19,0,0,0-1.27-1.7,15.85,15.85,0,0,0-1.62-1.56,7.41,7.41,0,0,0-2-1.26l0,0-.39-.16a2.42,2.42,0,0,0-.36-.12h0l-.63-.22-.25-.08-.15,0A6.42,6.42,0,0,0,36.37,49.39Z"/><path d="M17.39,34.59a4.31,4.31,0,0,0,1.88-3.42s0-.09,0-.13a4.47,4.47,0,0,0-1.06-3.28,3.59,3.59,0,0,0-2.51-1.14,3.43,3.43,0,0,0-2.26.72,3,3,0,0,0-1.12,2.26.65.65,0,0,0,0,.08,2.75,2.75,0,0,0,.65,2,2.2,2.2,0,0,0,1.54.7,1.89,1.89,0,0,0,1.94-1.26l.27-.91L16,30.8l-.07,0-.08,0,0,.08a.72.72,0,0,1-.67.29,1.19,1.19,0,0,1-.78-.33,1.27,1.27,0,0,1-.35-1,.22.22,0,0,1,0,0,1.5,1.5,0,0,1,.53-1.11,1.65,1.65,0,0,1,1.11-.35,2,2,0,0,1,1.4.65,2.67,2.67,0,0,1,.62,2s0,.05,0,.08a3,3,0,0,1-1.14,2.25,4.38,4.38,0,0,1-2.9.82h-.13A10.18,10.18,0,0,1,7.17,31a10.56,10.56,0,0,1-.64-.9,9.73,9.73,0,0,1-1-2A10.88,10.88,0,0,1,5,26.2C5,26.11,5,26,5,26a6.15,6.15,0,0,1,0-.67c.09-2.12,1.28-3.42,3-3.56a3.55,3.55,0,0,1,.44,0,2.14,2.14,0,0,1,2.3,2.13,1.47,1.47,0,0,1-1.43,1.49H9.07a1.15,1.15,0,0,1-1.19-1.21.68.68,0,0,1,.26-.57l.07,0,0-.08,0-.07.62-.81-1,.32a1.85,1.85,0,0,0-1.21,1.76,2.2,2.2,0,0,0,.56,1.56A2.52,2.52,0,0,0,9.15,27h.44a3.11,3.11,0,0,0,2.91-3.11,3.59,3.59,0,0,0-.92-2.54,4.1,4.1,0,0,0-3-1.27c-.23,0-.47,0-.72,0a4.34,4.34,0,0,0-3.19,1.69,6,6,0,0,0-1.14,3.47c0,.29,0,.57,0,.86a8.64,8.64,0,0,0,.81,3A12,12,0,0,0,6,31.67a10.22,10.22,0,0,0,1.54,1.46,15.39,15.39,0,0,0,1.86,1.27,7.43,7.43,0,0,0,2.17.91h0l.42.09a2.82,2.82,0,0,0,.38.06h0l.66.11a2.4,2.4,0,0,0,.27,0h.16A6.43,6.43,0,0,0,17.39,34.59Z"/><path d="M36.87,30.12a4.32,4.32,0,0,0-.89-3.8l-.09-.1a4.47,4.47,0,0,0-3-1.74,3.57,3.57,0,0,0-2.63.83,3.42,3.42,0,0,0-1.2,2,3,3,0,0,0,.68,2.43l.05.07a2.75,2.75,0,0,0,1.83,1.06,2.2,2.2,0,0,0,1.61-.51,1.89,1.89,0,0,0,.6-2.24l-.41-.85-.18.93,0,.08,0,.08,0,.09a.72.72,0,0,1-.31.66,1.19,1.19,0,0,1-.8.28,1.28,1.28,0,0,1-.93-.52l0,0a1.49,1.49,0,0,1-.35-1.18,1.65,1.65,0,0,1,.59-1,2,2,0,0,1,1.48-.45,2.68,2.68,0,0,1,1.77,1l.05.06a3,3,0,0,1,.65,2.44,4.34,4.34,0,0,1-1.6,2.55l-.1.08a10.16,10.16,0,0,1-6.77,1.88,9.91,9.91,0,0,1-1.08-.25,9.58,9.58,0,0,1-2.09-.81,10.75,10.75,0,0,1-1.65-1.12L21.91,32q-.25-.24-.46-.49c-1.35-1.64-1.34-3.4-.16-4.65a4.06,4.06,0,0,1,.32-.3,2.14,2.14,0,0,1,3.14.06,1.47,1.47,0,0,1-.07,2.06l-.16.15a1.15,1.15,0,0,1-1.69-.1.68.68,0,0,1-.19-.6l0-.08,0-.08a.31.31,0,0,1,0-.08l-.07-1-.51.88a1.86,1.86,0,0,0,.27,2.12,2.21,2.21,0,0,0,1.46.79,2.52,2.52,0,0,0,1.9-.65c.1-.09.21-.19.32-.3a3.11,3.11,0,0,0,.09-4.26,3.59,3.59,0,0,0-2.39-1.28,4.11,4.11,0,0,0-3.08,1.06,7,7,0,0,0-.52.49,4.32,4.32,0,0,0-1.24,3.39,6,6,0,0,0,1.47,3.34c.18.22.38.43.59.63a8.66,8.66,0,0,0,2.59,1.68,12.05,12.05,0,0,0,2.94.79,10.34,10.34,0,0,0,2.12.06,15.92,15.92,0,0,0,2.23-.3A7.6,7.6,0,0,0,33,34.54l0,0,.37-.21a2.5,2.5,0,0,0,.32-.21h0l.56-.36.22-.15.12-.1A6.41,6.41,0,0,0,36.87,30.12Z"/><path d="M73.79,38.69a4.31,4.31,0,0,0-3.41-1.9h-.14a4.46,4.46,0,0,0-3.29,1,3.56,3.56,0,0,0-1.15,2.5,3.4,3.4,0,0,0,.71,2.26,3,3,0,0,0,2.25,1.13h.09a2.75,2.75,0,0,0,2-.64,2.2,2.2,0,0,0,.7-1.54,1.9,1.9,0,0,0-1.26-2l-.9-.27.56.76,0,.07,0,.08.08,0a.72.72,0,0,1,.29.67,1.2,1.2,0,0,1-.34.78,1.28,1.28,0,0,1-1,.34h0a1.5,1.5,0,0,1-1.11-.53,1.66,1.66,0,0,1-.34-1.11A2,2,0,0,1,68.25,39a2.66,2.66,0,0,1,2-.61h.08a3,3,0,0,1,2.24,1.16,4.36,4.36,0,0,1,.81,2.9s0,.09,0,.13a10.17,10.17,0,0,1-3.16,6.28,10.21,10.21,0,0,1-.9.63,9.7,9.7,0,0,1-2,1,11,11,0,0,1-1.94.47l-.21,0c-.23,0-.46,0-.67,0-2.13-.1-3.42-1.3-3.55-3,0-.15,0-.3,0-.44A2.14,2.14,0,0,1,63,45.31a1.47,1.47,0,0,1,1.48,1.43,1.12,1.12,0,0,1,0,.22,1.19,1.19,0,0,1-.41.92,1.22,1.22,0,0,1-.8.27.69.69,0,0,1-.57-.27l0-.07-.08,0-.07,0-.8-.63.31,1a1.84,1.84,0,0,0,1.75,1.22,2.21,2.21,0,0,0,1.56-.55,2.52,2.52,0,0,0,.79-1.84,4,4,0,0,0,0-.44,3.11,3.11,0,0,0-3.1-2.93,3.6,3.6,0,0,0-2.55.91,4.12,4.12,0,0,0-1.28,3,6.94,6.94,0,0,0,0,.72,4.32,4.32,0,0,0,1.68,3.2A6,6,0,0,0,64.4,52.5c.28,0,.57,0,.86,0a8.62,8.62,0,0,0,3-.8A12.08,12.08,0,0,0,70.81,50a10.42,10.42,0,0,0,1.47-1.53,15.89,15.89,0,0,0,1.28-1.85,7.4,7.4,0,0,0,.92-2.16.19.19,0,0,0,0,0c0-.12.07-.26.09-.41a2.11,2.11,0,0,0,.06-.38h0c0-.22.08-.44.11-.66,0-.06,0-.15,0-.26s0-.1,0-.15A6.41,6.41,0,0,0,73.79,38.69Z"/><path d="M48,99.81h-.1v6.87h.93v-7A3.38,3.38,0,0,1,48,99.81Z"/><path d="M48.5,64.92l.41,0V53.5H48V65A5,5,0,0,1,48.5,64.92Z"/><circle cx="48.41" cy="82.43" r="18.11"/><circle class="cls-1" cx="48.35" cy="82.54" r="16"/><path d="M32.2,82.56A16.13,16.13,0,0,1,48.33,66.43h0A16.13,16.13,0,0,1,64.47,82.56h0A16.13,16.13,0,0,1,48.33,98.7h0A16.14,16.14,0,0,1,32.2,82.56ZM37,71.27a15.91,15.91,0,0,0-4.68,11.29h0A15.91,15.91,0,0,0,37,93.85h0a15.91,15.91,0,0,0,11.29,4.68h0a15.92,15.92,0,0,0,11.29-4.68h0A15.91,15.91,0,0,0,64.3,82.56h0a15.91,15.91,0,0,0-4.68-11.29h0A15.91,15.91,0,0,0,48.33,66.6h0A15.91,15.91,0,0,0,37,71.27Z"/><circle cx="48.32" cy="82.53" r="0.8"/><path d="M48.41,69V66.47h-.12V69Z"/><path d="M48.41,98.53V96h-.12v2.54Z"/><path d="M60.26,76.25,62.5,75l-.06-.11-2.24,1.2Z"/><path d="M36.46,88.84,34.11,90.1l.06.11L36.52,89Z"/><path d="M55.2,70.87l1.21-2.11-.11-.06-1.22,2.12Z"/><path d="M41.61,94.23l-1.33,2.31.11.06,1.34-2.33Z"/><path d="M54.51,94.48l1.25,2.34.11-.06-1.24-2.32Z"/><path d="M41.88,70.61l-1.16-2.17-.11.06,1.17,2.18Z"/><path d="M36.68,75.81l-2.25-1.29-.06.11,2.25,1.3Z"/><path d="M60,89.22l-.06.1,2.31,1.33.06-.11Z"/><path d="M34.92,82.47H32.25v.12h2.68Z"/><path d="M61.74,82.47s0,.08,0,.12h2.63v-.12Z"/><path d="M58,79h1.43v.29H57.78v-.14a11.54,11.54,0,0,0,1-1.56,2.58,2.58,0,0,0,.28-1.1,1.39,1.39,0,0,0-.14-.68.44.44,0,0,0-.39-.25.44.44,0,0,0-.37.19,1,1,0,0,0-.17.54h-.08a1.45,1.45,0,0,1,.11-.52,1.14,1.14,0,0,1,.28-.43.55.55,0,0,1,.38-.15.62.62,0,0,1,.52.32,1.41,1.41,0,0,1,.21.8,2.6,2.6,0,0,1-.31,1.16A9.44,9.44,0,0,1,58,79Z"/><path d="M47.06,73V70.28c0-.09,0-.14,0-.14l-.06,0a.82.82,0,0,1-.33.11v-.12a2.16,2.16,0,0,0,.68-.68h.09V73a.77.77,0,0,0,.06.36.29.29,0,0,0,.24.08v.11h-.93v-.11q.19,0,.24-.08A.72.72,0,0,0,47.06,73Z"/><path d="M48.24,73.29h1.43v.29H48v-.14a11.55,11.55,0,0,0,1-1.56,2.57,2.57,0,0,0,.28-1.1,1.38,1.38,0,0,0-.14-.68.44.44,0,0,0-.76-.05,1,1,0,0,0-.17.54H48.1a1.45,1.45,0,0,1,.11-.53,1.12,1.12,0,0,1,.28-.43.55.55,0,0,1,.38-.15.62.62,0,0,1,.52.32,1.4,1.4,0,0,1,.21.8,2.59,2.59,0,0,1-.31,1.16A9.34,9.34,0,0,1,48.24,73.29Z"/><path d="M60,82.72V82.6a1,1,0,0,0,.89-1,.85.85,0,0,0-.14-.5.42.42,0,0,0-.35-.2.41.41,0,0,0-.27.11.75.75,0,0,0-.19.31l-.08,0a.85.85,0,0,1,.26-.45.61.61,0,0,1,.42-.16.62.62,0,0,1,.5.25,1,1,0,0,1,.2.64,1.12,1.12,0,0,1-.13.54,1,1,0,0,1-.38.39h0a.9.9,0,0,1,.47.4,1.39,1.39,0,0,1,.17.7,1.47,1.47,0,0,1-.26.9.79.79,0,0,1-.66.35.71.71,0,0,1-.39-.1,1.25,1.25,0,0,1-.34-.34l.06-.08a.81.81,0,0,0,.57.33.56.56,0,0,0,.46-.24,1,1,0,0,0,.18-.62,1.47,1.47,0,0,0-.19-.75.58.58,0,0,0-.51-.33Z"/><path d="M59.32,88.92H58.6V90.3h-.3V88.92H57.1v-.12l1.42-2.67h.09v2.46h.72Zm-1.93-.33h.91V86.89Z"/><path d="M54.33,90.75H53.24l0,1.42.23,0a.8.8,0,0,1,.67.32,1.27,1.27,0,0,1,.25.8,1.38,1.38,0,0,1-.25.85.76.76,0,0,1-.63.34.9.9,0,0,1-.79-.57l.08-.06a.67.67,0,0,0,.56.4.57.57,0,0,0,.47-.26,1,1,0,0,0,.19-.63.93.93,0,0,0-.2-.61.66.66,0,0,0-.53-.24l-.19,0,0-2.12h1.23Z"/><path d="M49.1,91.4v.12a1.72,1.72,0,0,0-1,.73,2.89,2.89,0,0,0-.44,1.45.94.94,0,0,1,.71-.44.67.67,0,0,1,.57.32,1.39,1.39,0,0,1,.22.82,1.36,1.36,0,0,1-.26.85.79.79,0,0,1-.65.34.82.82,0,0,1-.7-.45A2.08,2.08,0,0,1,47.24,94a3,3,0,0,1,.52-1.78A1.91,1.91,0,0,1,49.1,91.4Zm-.32,3.12a1.3,1.3,0,0,0-.16-.69.49.49,0,0,0-.43-.26.74.74,0,0,0-.56.34v0A2.58,2.58,0,0,0,47.8,95q.18.39.47.39a.41.41,0,0,0,.36-.25A1.25,1.25,0,0,0,48.78,94.53Z"/><path d="M41.28,90.93h-.09l.16-1h.09a.2.2,0,0,0,.06.11l.1,0h1.6v.14l-1,3.92h-.36L43,90.43H41.69a.25.25,0,0,0-.21.09A2,2,0,0,0,41.28,90.93Z"/><path d="M38.79,89.32a1.19,1.19,0,0,1-.25.77.75.75,0,0,1-.61.31.74.74,0,0,1-.6-.28,1.05,1.05,0,0,1-.23-.71,1.14,1.14,0,0,1,.15-.59,1.8,1.8,0,0,1,.48-.52,1.28,1.28,0,0,1-.41-.48,1.37,1.37,0,0,1-.14-.63,1.13,1.13,0,0,1,.22-.72.68.68,0,0,1,.56-.28.67.67,0,0,1,.54.26,1,1,0,0,1,.22.65,1.17,1.17,0,0,1-.5,1A1.65,1.65,0,0,1,38.79,89.32Zm-1.41,0a1.08,1.08,0,0,0,.17.62.49.49,0,0,0,.42.25.45.45,0,0,0,.37-.2.8.8,0,0,0,.15-.5,1.35,1.35,0,0,0-.66-1.08A1,1,0,0,0,37.38,89.34ZM37.46,87a.89.89,0,0,0,.15.5,2.48,2.48,0,0,0,.51.52.9.9,0,0,0,.33-.79,1.13,1.13,0,0,0-.15-.61.44.44,0,0,0-.38-.23.41.41,0,0,0-.34.18A.7.7,0,0,0,37.46,87Z"/><path d="M35.71,84.81V84.7a1.57,1.57,0,0,0,1-.72,2.83,2.83,0,0,0,.45-1.47.94.94,0,0,1-.72.44.67.67,0,0,1-.57-.32,1.39,1.39,0,0,1-.23-.81A1.33,1.33,0,0,1,36,81a.79.79,0,0,1,.65-.34.81.81,0,0,1,.7.44,2.09,2.09,0,0,1,.27,1.12A3,3,0,0,1,37.05,84,1.88,1.88,0,0,1,35.71,84.81ZM36,81.7a1.29,1.29,0,0,0,.17.7.5.5,0,0,0,.43.26.72.72,0,0,0,.56-.38A2.64,2.64,0,0,0,37,81.21c-.12-.26-.28-.39-.47-.39a.42.42,0,0,0-.37.25A1.24,1.24,0,0,0,36,81.7Z"/><path d="M37.59,79.14V76.39c0-.09,0-.14,0-.14l-.06,0a.86.86,0,0,1-.33.11v-.12a2.15,2.15,0,0,0,.68-.68h.09v3.55a.74.74,0,0,0,.06.36c0,.05.12.08.24.08v.11h-.93v-.11c.12,0,.21,0,.24-.08A.74.74,0,0,0,37.59,79.14Z"/><path d="M40.41,77.67a4.15,4.15,0,0,1-.13,1.08,1.83,1.83,0,0,1-.37.74.62.62,0,0,1-1,0,1.82,1.82,0,0,1-.37-.74,4.24,4.24,0,0,1-.13-1.1,4,4,0,0,1,.13-1.07,1.83,1.83,0,0,1,.37-.74.69.69,0,0,1,.51-.27.68.68,0,0,1,.51.27,1.84,1.84,0,0,1,.36.74A4.14,4.14,0,0,1,40.41,77.67Zm-.38,0a4.87,4.87,0,0,0-.16-1.41c-.11-.34-.26-.5-.46-.5s-.35.17-.46.51a6.11,6.11,0,0,0,0,2.81q.16.5.46.5c.2,0,.35-.16.46-.49A4.81,4.81,0,0,0,40,77.67Z"/><path d="M41.72,74.47V71.72c0-.09,0-.14,0-.14l-.06,0a.86.86,0,0,1-.33.11V71.6a2.16,2.16,0,0,0,.68-.68h.09v3.55a.76.76,0,0,0,.06.36.29.29,0,0,0,.24.08V75h-.93v-.11c.13,0,.21,0,.24-.08A.74.74,0,0,0,41.72,74.47Z"/><path d="M42.84,74.47V71.72c0-.09,0-.14,0-.14l-.06,0a.86.86,0,0,1-.33.11V71.6a2.15,2.15,0,0,0,.68-.68h.09v3.55a.72.72,0,0,0,.06.36c0,.05.12.08.24.08V75h-.93v-.11c.13,0,.21,0,.24-.08A.76.76,0,0,0,42.84,74.47Z"/><path d="M54.47,74.58V71.83c0-.09,0-.14,0-.14l-.06,0a.84.84,0,0,1-.33.11v-.12a2.11,2.11,0,0,0,.68-.68h.09v3.55a.73.73,0,0,0,.06.36q.06.08.24.08v.11h-.93V75a.28.28,0,0,0,.24-.08A.74.74,0,0,0,54.47,74.58Z"/><path d="M50.52,76.09l.09-.26.51.06a9.91,9.91,0,0,1,0-2.23,9.89,9.89,0,0,1-1.31,1.8l.48.27L50.2,76a.52.52,0,0,0-.3.92l-.08.24.32.1.08-.23a.51.51,0,0,0,.31-.94Z"/><path d="M47.66,84.45l.24.09,2.38-7.3-.54-.18-2.38,7.31Z"/><path d="M50.07,91.74l.06.27-.47.21a10,10,0,0,1,1.12,1.92A9.88,9.88,0,0,1,51,91.92h-.55l-.06-.27a.52.52,0,0,0-.21-.94l-.05-.25-.33.07.05.24a.51.51,0,0,0,.21,1Z"/><path d="M47.8,80.66l-.25,0,2.15,9.92.56-.12-2.15-9.93Z"/><path d="M58.68,73a.58.58,0,0,1-.12-.41h0v0h0a.5.5,0,0,1,.49-.42h.11a.4.4,0,0,1,.25.14h0a.37.37,0,0,1,.08.27h0v0h0a.32.32,0,0,1-.22.26h0l-.21.05.09,0h.09a.44.44,0,0,0,.43-.4h0s0,0,0-.05h0a.69.69,0,0,0,0-.1h0a.13.13,0,0,0,0,0h0a1.52,1.52,0,0,0,0-.28h0a1.35,1.35,0,0,0-.13-.3h0l-.08-.13h0a1.5,1.5,0,0,0-.82-.5h-.07a.59.59,0,0,0-.41.09h0a.4.4,0,0,0-.17.27h0v0h0a.42.42,0,0,0,0,.18h0l.07-.2a.32.32,0,0,1,.34-.2h0a.38.38,0,0,1,.22.13h0a.46.46,0,0,1,.08.34h0v0h0a.49.49,0,0,1-.2.32h0a.54.54,0,0,1-.37.09h0a.56.56,0,0,1-.34-.2h0a.7.7,0,0,1-.13-.52h0v0h0v0h0A.67.67,0,0,1,58,70.9h0a1,1,0,0,1,.61-.12h.07l.09,0h.06l.06,0h0a1.14,1.14,0,0,1,.32.16h0a2.21,2.21,0,0,1,.27.21h0a1.57,1.57,0,0,1,.22.24h0a1.91,1.91,0,0,1,.23.4h0a1.32,1.32,0,0,1,.09.46h0a.86.86,0,0,1,0,.13h0s0,.06,0,.09h0a.92.92,0,0,1-.2.44h0a.68.68,0,0,1-.52.23h-.18a.63.63,0,0,1-.39-.22Zm.44-.8h-.06a.42.42,0,0,0-.41.35h0v0h0a.49.49,0,0,0,.1.35h0a.54.54,0,0,0,.34.19h.16a.6.6,0,0,0,.45-.21h0a.81.81,0,0,0,.18-.39h0s0-.05,0-.08h0a1.15,1.15,0,0,0,0-.12h0a1.23,1.23,0,0,0-.09-.43h0a1.76,1.76,0,0,0-.21-.38h0a1.54,1.54,0,0,0-.21-.22h0l-.26-.2h0a1.14,1.14,0,0,0-.3-.15h0l-.05,0h-.06l-.09,0h-.06A.92.92,0,0,0,58,71h0l0,0,0,0a.59.59,0,0,0-.28.41h0v0h0v0h0a.62.62,0,0,0,.11.46h0a.49.49,0,0,0,.29.17h0a.46.46,0,0,0,.31-.08h0a.4.4,0,0,0,.16-.26h0v0h0a.36.36,0,0,0-.07-.27h0a.29.29,0,0,0-.17-.1h0a.23.23,0,0,0-.25.14h0a.15.15,0,0,1,.14-.06h0a.22.22,0,0,1,.12.07h0a.23.23,0,0,1,.05.18h0a0,0,0,0,1,0,0h0v0h0a.27.27,0,0,1-.1.17h0a.28.28,0,0,1-.2,0h0a.35.35,0,0,1-.2-.12h0a.44.44,0,0,1-.08-.33h0v0h0a.48.48,0,0,1,.21-.32h0a.68.68,0,0,1,.46-.1h.08a1.57,1.57,0,0,1,.87.53h0l.09.14h0a1.52,1.52,0,0,1,.13.31h0a1.58,1.58,0,0,1,.05.3h0a.16.16,0,0,1,0,0h0s0,.07,0,.11h0v.06h0a.52.52,0,0,1-.51.47h-.11a.35.35,0,0,1-.31-.38h0v0h0a.26.26,0,0,1,.26-.22h.06a.21.21,0,0,1,.14.08h0a.23.23,0,0,1,0,.15h0v0h0a.14.14,0,0,1-.07.1h0a.23.23,0,0,0,.16-.19h0v0h0a.28.28,0,0,0-.06-.21h0a.31.31,0,0,0-.2-.11h0Zm0,.25h0a.17.17,0,0,0-.18.15h0a.25.25,0,0,0,.12.24h0l.16-.18h0v0h0a.05.05,0,0,0,0,0h0a.13.13,0,0,0,0-.09h0a.11.11,0,0,0-.08,0h0ZM58,71.73a.25.25,0,0,0,.15.09h0a.19.19,0,0,0,.14,0h0a.17.17,0,0,0,.07-.12h0a.14.14,0,0,0,0-.12h0a.13.13,0,0,0-.07,0h0a.08.08,0,0,0-.06,0h0v0h0l-.19.13,0,.06Z"/><path d="M62.07,79.91a.57.57,0,0,1,.15-.4h0l0,0h0a.5.5,0,0,1,.65,0h0l.05,0h0l0,0h0a.4.4,0,0,1,.12.26h0A.37.37,0,0,1,63,80h0l0,0h0a.31.31,0,0,1-.33.08h0l-.2-.08.05.07h0l0,0h0l0,0h0a.43.43,0,0,0,.58-.07h0l0,0h0l.06-.08h0v0h0a1.54,1.54,0,0,0,.13-.26h0a1.43,1.43,0,0,0,.07-.31h0c0-.05,0-.11,0-.15h0a1.51,1.51,0,0,0-.37-.88h0l0,0h0a.6.6,0,0,0-.38-.17h0a.39.39,0,0,0-.29.12h0l0,0h0a.43.43,0,0,0-.09.15h0l.18-.12a.32.32,0,0,1,.39,0h0l0,0h0a.36.36,0,0,1,.1.23h0a.46.46,0,0,1-.13.32h0l0,0h0a.49.49,0,0,1-.35.14h0a.55.55,0,0,1-.35-.14h0l0,0h0a.56.56,0,0,1-.16-.36h0a.7.7,0,0,1,.2-.5h0l0,0h0l0,0h0a.67.67,0,0,1,.54-.19h0a1,1,0,0,1,.56.26h0l0,0h0l0,0h0l.06.07h0l0,0h0l0,0h0a1.13,1.13,0,0,1,.16.32h0a2.25,2.25,0,0,1,.09.32h0a1.58,1.58,0,0,1,0,.32h0a1.82,1.82,0,0,1-.05.46h0a1.36,1.36,0,0,1-.2.43h0l-.08.1h0l-.06.07h0a.91.91,0,0,1-.42.23h0a.69.69,0,0,1-.56-.12h0l-.09-.07h0l-.05,0h0a.64.64,0,0,1-.18-.41Zm.83-.38,0,0h0a.41.41,0,0,0-.54,0h0l0,0h0a.5.5,0,0,0-.13.35h0a.55.55,0,0,0,.16.35h0l0,0h0l.08.06h0a.61.61,0,0,0,.49.1h0a.81.81,0,0,0,.38-.21h0l.06-.06h0l.08-.09h0a1.22,1.22,0,0,0,.18-.4h0a1.73,1.73,0,0,0,.05-.44h0a1.62,1.62,0,0,0,0-.3h0a2.05,2.05,0,0,0-.09-.31h0a1.08,1.08,0,0,0-.15-.3h0l0,0h0l0,0h0l-.06-.07h0l0,0h0a.91.91,0,0,0-.51-.24h0v0a.6.6,0,0,0-.47.16h0l0,0h0v0h0a.62.62,0,0,0-.18.44h0a.5.5,0,0,0,.13.31h0l0,0h0a.47.47,0,0,0,.3.12h0a.41.41,0,0,0,.29-.12h0l0,0h0a.36.36,0,0,0,.11-.26h0a.29.29,0,0,0-.08-.18h0l0,0h0a.24.24,0,0,0-.29,0h0a.15.15,0,0,1,.15,0h0a.21.21,0,0,1,.06.13h0a.23.23,0,0,1-.06.17h0a.27.27,0,0,1-.18.07h0a.28.28,0,0,1-.19-.08h0l0,0h0a.33.33,0,0,1-.09-.22h0a.44.44,0,0,1,.13-.31h0l0,0h0a.5.5,0,0,1,.36-.14h0a.69.69,0,0,1,.43.19h0l0,0h0a1.58,1.58,0,0,1,.39.94h0a1.38,1.38,0,0,1,0,.17h0a1.53,1.53,0,0,1-.08.33h0a1.73,1.73,0,0,1-.13.27h0l0,0h0l-.06.08h0l0,0h0a.52.52,0,0,1-.69.08h0l-.05,0h0l0,0h0a.35.35,0,0,1,0-.49h0a.26.26,0,0,1,.34,0h0l0,0h0l0,0h0a.21.21,0,0,1,.06.15h0a.21.21,0,0,1-.05.15h0a.15.15,0,0,1-.11,0h0a.23.23,0,0,0,.24-.06h0l0,0h0a.29.29,0,0,0,.07-.2h0a.31.31,0,0,0-.1-.21h0l0,0Zm-.15.19,0,0h0a.17.17,0,0,0-.23,0h0a.25.25,0,0,0,0,.26h0l.23-.05h.05l0,0h0a.14.14,0,0,0,0-.09h0a.12.12,0,0,0,0-.09h0Zm-.48-1.21a.26.26,0,0,0,.07.16h0a.19.19,0,0,0,.13.06h0a.17.17,0,0,0,.12-.05h0a.15.15,0,0,0,0-.12h0a.13.13,0,0,0,0-.08h0a.07.07,0,0,0-.06,0h-.29a.25.25,0,0,0,0,.07Z"/><path d="M43.89,69h0a.68.68,0,0,1-.33-.52h0a.85.85,0,0,1,0-.28h0a1.07,1.07,0,0,1,.13-.32h0v0h0l0,0h0l.06-.08h0l0,0h0l0,0h0a1.17,1.17,0,0,1,.28-.22h0a2.24,2.24,0,0,1,.3-.15h0a1.53,1.53,0,0,1,.31-.1h0a2,2,0,0,1,.46,0h0l.22,0h0l.24.08h0l.12.06h0a.93.93,0,0,1,.38.42h0a.68.68,0,0,1,0,.42h0a.76.76,0,0,1,0,.14h0l-.05.1h0a.65.65,0,0,1-.41.32h0a.55.55,0,0,1-.26,0h0a.6.6,0,0,1-.17-.07h0a.51.51,0,0,1-.25-.55h0a.46.46,0,0,1,0-.11h0l0-.06h0a.42.42,0,0,1,.26-.2h0a.39.39,0,0,1,.16,0h0l.11,0h0a.31.31,0,0,1,.16.33h0l0,.21.08-.1h0l0-.05h0l0-.09h0a.46.46,0,0,0-.26-.5h0l-.08,0h0l-.2-.06h0l-.08,0h0a1.4,1.4,0,0,0-.32,0h0l-.15,0h0A1.46,1.46,0,0,0,44,68h0v0h0a.76.76,0,0,0-.09.21h0a.48.48,0,0,0,0,.19h0a.4.4,0,0,0,.19.28h0l.13.05h0l-.15-.15a.3.3,0,0,1-.08-.29h0a.35.35,0,0,1,0-.11h0a.35.35,0,0,1,.23-.17h0a.37.37,0,0,1,.18,0h0a.51.51,0,0,1,.16.07h0a.49.49,0,0,1,.23.33h0a.53.53,0,0,1,0,.21h0a.53.53,0,0,1-.07.17h0a.57.57,0,0,1-.35.26h0a.63.63,0,0,1-.29,0h0a.82.82,0,0,1-.24-.1Zm0-.09h0a.79.79,0,0,0,.22.09h0a.5.5,0,0,0,.25,0h0a.49.49,0,0,0,.3-.22h0a.49.49,0,0,0,.06-.14h0a.43.43,0,0,0,0-.17h0a.41.41,0,0,0-.2-.28h0l-.13-.05h0a.32.32,0,0,0-.14,0h0a.28.28,0,0,0-.17.13h0a.29.29,0,0,0,0,.08h0a.22.22,0,0,0,.05.21h0v0h0a.14.14,0,0,1,0-.1h0a.16.16,0,0,1,0-.06h0a.21.21,0,0,1,.12-.1h.11l.08,0h0a.27.27,0,0,1,.13.18h0a.26.26,0,0,1,0,.11h0a.32.32,0,0,1,0,.09h0a.34.34,0,0,1-.21.15h0a.37.37,0,0,1-.17,0h0L44,68.76h0a.49.49,0,0,1-.23-.34h0a.59.59,0,0,1,0-.23h0a.77.77,0,0,1,.1-.23h0v0h0a1.55,1.55,0,0,1,.88-.61h0l.16,0h0a1.42,1.42,0,0,1,.34,0h0l.08,0h0l.21.06h0l.09,0h0A.55.55,0,0,1,46,68h0a.53.53,0,0,1,0,.1h0l0,.06h0a.37.37,0,0,1-.4.2h0l-.1,0h0a.26.26,0,0,1-.13-.28h0l0-.06h0l0,0h0a.21.21,0,0,1,.15-.11h.09l.07,0h0a.14.14,0,0,1,.08.11h0v0h0a.24.24,0,0,0-.12-.24h0l-.08,0h0a.27.27,0,0,0-.12,0h0a.33.33,0,0,0-.21.16h0l0,.06h0l0,.09h0a.42.42,0,0,0,.21.45h0l.15.06h0a.48.48,0,0,0,.22,0h0a.56.56,0,0,0,.35-.28h0l0-.09h0a.73.73,0,0,0,0-.13h0a.61.61,0,0,0,0-.37h0a.86.86,0,0,0-.35-.37h0l-.11-.06h0l-.22-.07h0l-.2,0h0a1.82,1.82,0,0,0-.44,0h0a1.41,1.41,0,0,0-.29.09h0l-.29.15h0a1.09,1.09,0,0,0-.26.21h0l0,0h0l0,0h0l-.06.08h0l0,0h0v0h0a1,1,0,0,0-.12.3h0a.76.76,0,0,0,0,.25h0a.59.59,0,0,0,.29.45Zm.37-.54a.14.14,0,0,0-.08.06h0v0h0s0,0,0,0h0v0h0l0,.23h.06a.25.25,0,0,0,.16-.12h0a.22.22,0,0,0,0-.07h0a.17.17,0,0,0,0-.07h0a.17.17,0,0,0-.09-.12h0l-.06,0h-.06ZM45.49,68a.13.13,0,0,0-.09.07h0v0h0l0,0h0a.17.17,0,0,0,.09.19h0l.07,0h0a.26.26,0,0,0,.19,0h0l-.09-.22h0v0h0s0,0,0,0h0l0,0h-.05Z"/><path d="M51.1,68.49v0h0a.68.68,0,0,1,0-.61h0a.85.85,0,0,1,.16-.23h0a1.07,1.07,0,0,1,.28-.21h.06l.09,0h0l.05,0h0l.06,0h0a1.14,1.14,0,0,1,.36,0h0l.34,0h0a1.54,1.54,0,0,1,.31.08h0a1.87,1.87,0,0,1,.41.21h0l.17.14h0a1.2,1.2,0,0,1,.16.19h0l.07.11h0a.92.92,0,0,1,.11.55h0a.67.67,0,0,1-.18.38h0l-.12.1h0l-.1.06h0a.65.65,0,0,1-.51.06h0A.57.57,0,0,1,52.6,69h0a.58.58,0,0,1-.11-.15h0a.5.5,0,0,1,.07-.6h0l.08-.07h0l.06,0h0a.42.42,0,0,1,.33,0h0a.36.36,0,0,1,.14.09h0a.34.34,0,0,1,.07.09h0a.31.31,0,0,1,0,.36h0l-.14.16.12,0h0l.05,0h0l.07-.06h0a.46.46,0,0,0,0-.56h0l0-.08h0l0,0h0l-.14-.16h0l-.06-.05h0a1.39,1.39,0,0,0-.27-.18h0l-.14-.06h0a1.46,1.46,0,0,0-1,.06h0a.69.69,0,0,0-.18.14h0a.49.49,0,0,0-.11.16h0a.4.4,0,0,0,0,.34h0a.5.5,0,0,0,.08.12h0l0,0h0l0-.21a.3.3,0,0,1,.08-.28h0l.09-.07h0a.35.35,0,0,1,.28,0h0a.38.38,0,0,1,.16.09h0a.54.54,0,0,1,.1.14h0a.48.48,0,0,1,0,.41h0a.47.47,0,0,1-.11.17h0a.63.63,0,0,1-.14.11h0a.58.58,0,0,1-.44,0h0a.63.63,0,0,1-.24-.15h0a1,1,0,0,1-.16-.21Zm.07-.06v0h0a.76.76,0,0,0,.14.19h0a.52.52,0,0,0,.21.13h0a.49.49,0,0,0,.37,0h0a.49.49,0,0,0,.12-.09h0a.49.49,0,0,0,.09-.14h0a.41.41,0,0,0,0-.34h0A.4.4,0,0,0,52,68h0a.3.3,0,0,0-.12-.07h0a.29.29,0,0,0-.22,0h0l-.07.06h0a.22.22,0,0,0-.06.2h0v0h0a.14.14,0,0,1,0-.09h0l.05,0h0a.23.23,0,0,1,.15,0h0a.2.2,0,0,1,.09.05h0l0,.07h0a.27.27,0,0,1,0,.22h0a.25.25,0,0,1-.06.09h0l-.08.06h0a.34.34,0,0,1-.26,0h0a.37.37,0,0,1-.15-.09h0a.57.57,0,0,1-.1-.14h0a.49.49,0,0,1,0-.41h0a.55.55,0,0,1,.12-.19h0a.8.8,0,0,1,.2-.15h0a1.55,1.55,0,0,1,1.07-.07h0l.15.07h0a1.44,1.44,0,0,1,.29.19h0l.06.06h0l.15.16h0l0,0h0l.05.09h0a.55.55,0,0,1-.05.66h0l-.08.07h0l-.06,0h0a.37.37,0,0,1-.45,0h0l-.06-.08h0a.25.25,0,0,1,0-.31h0l0,0h0l0,0h0a.21.21,0,0,1,.18,0h0l.08,0h0l0,.05h0a.15.15,0,0,1,0,.13h0v0h0a.23.23,0,0,0,0-.27h0l-.06-.07h0a.27.27,0,0,0-.11-.06h0a.32.32,0,0,0-.26,0h0l-.05,0h0l-.07.06h0a.42.42,0,0,0-.06.5h0a.57.57,0,0,0,.09.13h0a.5.5,0,0,0,.19.11h0a.57.57,0,0,0,.45-.06h0l.09-.05h0l.1-.09h0a.59.59,0,0,0,.16-.33h0a.85.85,0,0,0-.11-.5h0L53.48,68h0a1.24,1.24,0,0,0-.15-.18h0l-.16-.13h0a1.69,1.69,0,0,0-.39-.2h0a1.37,1.37,0,0,0-.29-.07h0l-.33,0h0a1,1,0,0,0-.33,0h0l-.06,0h0l0,0h0l-.09,0h-.05a1,1,0,0,0-.26.19h0a.79.79,0,0,0-.15.21h0l0,0,0,0a.6.6,0,0,0,0,.54Zm.6-.27a.14.14,0,0,0-.1,0h0l0,0h0l0,0h0v0h0l-.09.22.06,0h0a.26.26,0,0,0,.19,0h0l.06,0h0l0-.06h0a.17.17,0,0,0,0-.15h0l0-.05h0l-.05,0Zm1.23.3a.13.13,0,0,0-.11,0h0l0,0h0a.17.17,0,0,0,0,.21h0l0,.06h0a.25.25,0,0,0,.18.07h0l0-.24h0v0h0a.06.06,0,0,0,0-.05h0l0,0h0l0,0Z"/><path d="M37.64,73.1h0a.68.68,0,0,1-.55-.27h0a.89.89,0,0,1-.13-.25h0a1.08,1.08,0,0,1-.05-.34h0v0h0a.28.28,0,0,1,0,0h0v-.1h0a.2.2,0,0,1,0-.05h0v-.06h0A1.13,1.13,0,0,1,37,71.6h0a2.19,2.19,0,0,1,.18-.29h0a1.37,1.37,0,0,1,.21-.24h0a1.83,1.83,0,0,1,.38-.27h0l.2-.09h0l.25-.06h.13a.91.91,0,0,1,.54.16h0a.67.67,0,0,1,.25.34h0a.73.73,0,0,1,0,.15h0a1.1,1.1,0,0,1,0,.11h0a.66.66,0,0,1-.18.48h0a.56.56,0,0,1-.22.13h0a.57.57,0,0,1-.18,0h0a.51.51,0,0,1-.5-.34h0a.82.82,0,0,1,0-.11h0a.69.69,0,0,1,0-.07h0a.4.4,0,0,1,.12-.31h0a.34.34,0,0,1,.14-.08h0l.12,0h0a.31.31,0,0,1,.31.2h0l.08.2a.41.41,0,0,0,0-.12h0s0,0,0-.06h0a.42.42,0,0,0,0-.09h0A.46.46,0,0,0,38.4,71h-.12l-.2.05h0l-.07,0h0a1.46,1.46,0,0,0-.28.16h0l-.12.09h0a1.45,1.45,0,0,0-.41.92h0v0h0a.76.76,0,0,0,0,.23h0a.54.54,0,0,0,.09.17h0a.4.4,0,0,0,.31.14h0l.14,0h0l-.21-.05a.3.3,0,0,1-.21-.21h0a.4.4,0,0,1,0-.12h0a.37.37,0,0,1,.11-.26h0a.38.38,0,0,1,.16-.09h0a.54.54,0,0,1,.17,0h0a.49.49,0,0,1,.37.16h0a.51.51,0,0,1,.1.18h0a.55.55,0,0,1,0,.18h0a.57.57,0,0,1-.17.41h0a.62.62,0,0,1-.24.15h0a.78.78,0,0,1-.26,0Zm0-.08h0a.76.76,0,0,0,.24,0h0a.55.55,0,0,0,.21-.13h0a.49.49,0,0,0,.14-.35h0a.52.52,0,0,0,0-.15h0a.43.43,0,0,0-.08-.15h0a.4.4,0,0,0-.31-.14h0l-.14,0h0a.31.31,0,0,0-.12.07h0a.28.28,0,0,0-.08.2h0a.28.28,0,0,0,0,.09h0a.22.22,0,0,0,.15.15h0a.13.13,0,0,1-.06-.08h0a.2.2,0,0,1,0-.06h0a.21.21,0,0,1,.06-.15h0a.17.17,0,0,1,.09-.06h.1a.26.26,0,0,1,.2.08h0a.27.27,0,0,1,.05.09h0a.32.32,0,0,1,0,.1h0a.34.34,0,0,1-.1.24h0a.37.37,0,0,1-.15.09h0l-.17,0h0a.49.49,0,0,1-.37-.17h0a.57.57,0,0,1-.11-.2h0a.8.8,0,0,1,0-.25h0v0h0a1.54,1.54,0,0,1,.44-1h0l.13-.1h0A1.35,1.35,0,0,1,38,71h0l.08,0h0l.21-.05h.14a.55.55,0,0,1,.56.35h0a.47.47,0,0,1,0,.11h0v.07h0a.37.37,0,0,1-.24.38h0l-.1,0h0a.26.26,0,0,1-.26-.18h0a.22.22,0,0,1,0-.06h0a.13.13,0,0,1,0,0h0a.22.22,0,0,1,.07-.17h0l.08,0h.07a.14.14,0,0,1,.12.05h0a.24.24,0,0,0-.23-.14h-.09a.32.32,0,0,0-.11.07h0a.32.32,0,0,0-.09.24h0s0,0,0,.06h0a.55.55,0,0,0,0,.09h0a.42.42,0,0,0,.41.28h0l.16,0h0a.49.49,0,0,0,.19-.11h0a.57.57,0,0,0,.16-.42h0a.81.81,0,0,0,0-.1h0a.67.67,0,0,0,0-.13h0a.59.59,0,0,0-.22-.3h0a.84.84,0,0,0-.49-.14h-.12L38,70.8h0l-.19.08h0a1.76,1.76,0,0,0-.36.26h0a1.37,1.37,0,0,0-.2.23h0a2.06,2.06,0,0,0-.17.28h0A1,1,0,0,0,37,72h0V72h0a.41.41,0,0,0,0,.05h0s0,.06,0,.1h0v0h0v0h0a1,1,0,0,0,0,.32h0a.75.75,0,0,0,.12.22h0l0,0,0,0a.6.6,0,0,0,.48.24Zm0-.66a.13.13,0,0,0,0,.09h0v0h0l0,0h0l.15.18.05,0h0a.27.27,0,0,0,.08-.18h0a.25.25,0,0,0,0-.07h0a.17.17,0,0,0,0-.06h0a.18.18,0,0,0-.13-.06h-.07l-.05,0Zm.84-.95a.13.13,0,0,0,0,.11h0a.2.2,0,0,0,0,0h0a.18.18,0,0,0,0,0h0a.17.17,0,0,0,.17.12h.08a.26.26,0,0,0,.15-.13h0l-.19-.14h0a.06.06,0,0,0,0,0h0l0,0Z"/><path d="M34.19,79.81h0a.68.68,0,0,1-.61,0h0a.84.84,0,0,1-.23-.17h0a1.05,1.05,0,0,1-.2-.28h0v0h0v0h0l0-.09h0l0-.05h0l0-.06h0a1.19,1.19,0,0,1,0-.36h0a2.25,2.25,0,0,1,0-.34h0a1.61,1.61,0,0,1,.09-.31h0a1.86,1.86,0,0,1,.23-.4h0l.15-.17h0a1.22,1.22,0,0,1,.2-.16h0l.12-.06h0a.9.9,0,0,1,.56-.09h0a.67.67,0,0,1,.38.2h0a.65.65,0,0,1,.09.12h0l.05.1h0a.66.66,0,0,1,0,.51h0a.58.58,0,0,1-.14.22h0a.67.67,0,0,1-.15.1h0a.51.51,0,0,1-.59-.09h0L34,78.25h0l0-.06h0a.41.41,0,0,1,0-.33h0a.35.35,0,0,1,.09-.14h0l.1-.07h0a.32.32,0,0,1,.36,0h0l.16.15a.43.43,0,0,0,0-.12h0l0-.05h0l-.06-.07h0a.46.46,0,0,0-.56-.06h0l-.08,0h0l0,0h0l-.16.13h0l-.05.06h0a1.36,1.36,0,0,0-.19.26h0l-.07.14h0a1.47,1.47,0,0,0,0,1h0v0h0a.72.72,0,0,0,.13.19h0a.49.49,0,0,0,.16.11h0a.4.4,0,0,0,.34,0h0l.12-.08h0l0,0h0l-.21,0a.3.3,0,0,1-.28-.09h0l-.07-.1h0a.36.36,0,0,1,0-.28h0a.38.38,0,0,1,.1-.15h0a.58.58,0,0,1,.14-.1h0a.49.49,0,0,1,.41,0h0a.51.51,0,0,1,.17.12h0a.53.53,0,0,1,.1.15h0a.57.57,0,0,1,0,.44h0a.61.61,0,0,1-.16.24h0a.84.84,0,0,1-.22.15Zm-.06-.07h0a.75.75,0,0,0,.2-.13h0a.51.51,0,0,0,.13-.21h0a.49.49,0,0,0,0-.37h0a.56.56,0,0,0-.09-.12h0a.42.42,0,0,0-.14-.1h0a.41.41,0,0,0-.34,0h0l-.12.08h0a.28.28,0,0,0-.08.12h0a.28.28,0,0,0,0,.22h0l.05.07h0a.22.22,0,0,0,.2.07h0a.13.13,0,0,1-.09,0h0l0-.05h0a.23.23,0,0,1,0-.16h0a.19.19,0,0,1,.06-.09h0l.07,0h0a.27.27,0,0,1,.22,0h0l.09.06h0l.06.08h0a.33.33,0,0,1,0,.26h0a.35.35,0,0,1-.1.14h0a.55.55,0,0,1-.14.1h0a.5.5,0,0,1-.41,0h0a.61.61,0,0,1-.18-.13h0a.82.82,0,0,1-.14-.21h0v0h0a1.55,1.55,0,0,1,0-1.07h0l.08-.15h0a1.46,1.46,0,0,1,.2-.28h0l.06-.06h0l.17-.14h0l0,0h0l.09-.05h0a.55.55,0,0,1,.66.08h0l.07.08h0l0,.06h0a.37.37,0,0,1-.06.44h0l-.09.06h0a.25.25,0,0,1-.31,0h0l0,0h0l0,0h0a.21.21,0,0,1,0-.18h0a.21.21,0,0,1,0-.07h0l.06,0h0a.14.14,0,0,1,.14,0h0a.23.23,0,0,0-.27,0h0l-.08.05h0a.28.28,0,0,0-.07.11h0a.34.34,0,0,0,0,.26h0l0,.05h0l.06.08h0a.42.42,0,0,0,.49.08h0a.47.47,0,0,0,.13-.09h0a.49.49,0,0,0,.12-.18h0a.57.57,0,0,0,0-.45h0l0-.09h0l-.08-.11h0a.59.59,0,0,0-.33-.17h0a.84.84,0,0,0-.51.08h0l-.11.06h0a1.26,1.26,0,0,0-.18.15h0l-.14.16h0a1.72,1.72,0,0,0-.21.38h0a1.44,1.44,0,0,0-.08.29h0a2.13,2.13,0,0,0,0,.32h0a1,1,0,0,0,0,.33h0l0,.05h0l0,0h0l0,.09h0v0h0v0h0a1.07,1.07,0,0,0,.18.26h0a.84.84,0,0,0,.2.15h0l0,0,0,0a.6.6,0,0,0,.54,0Zm-.25-.61a.15.15,0,0,0,0,.1h0l0,0H34l.21.1,0-.06h0a.26.26,0,0,0,0-.2h0l0-.06h0l-.06,0h0A.16.16,0,0,0,34,79h0l-.05,0h0a.11.11,0,0,0,0,.05Zm.35-1.21a.14.14,0,0,0,0,.12h0v0h0l0,0h0a.17.17,0,0,0,.21,0h0l.06,0h0a.26.26,0,0,0,.08-.18h0l-.23,0h-.1l0,0h0l0,0Z"/><path d="M34.82,87.34v0h0a.68.68,0,0,1-.52.32h0a.81.81,0,0,1-.28,0h0a1,1,0,0,1-.32-.14h0l0,0h0l-.08-.06h0l0,0h0l0,0h0a1.18,1.18,0,0,1-.22-.29h0a2.35,2.35,0,0,1-.15-.3h0a1.81,1.81,0,0,1-.09-.31h0A1.83,1.83,0,0,1,33,86h0a1.32,1.32,0,0,1,0-.22h0a1.15,1.15,0,0,1,.08-.24h0l.06-.12h0a.93.93,0,0,1,.42-.38h0A.67.67,0,0,1,34,85h0l.14.05h0l.1.05h0a.65.65,0,0,1,.31.41h0a.58.58,0,0,1,0,.26h0a.6.6,0,0,1-.07.17h0a.51.51,0,0,1-.55.24h0l-.1,0h0l-.06,0h0a.41.41,0,0,1-.2-.26h0a.36.36,0,0,1,0-.16h0a.34.34,0,0,1,0-.11h0a.31.31,0,0,1,.33-.15h0l.21,0-.09-.08h0l-.05,0h0l-.09,0h0a.46.46,0,0,0-.51.25h0l0,.08h0v0h0c0,.07,0,.13-.06.2h0l0,.08h0a1.39,1.39,0,0,0,0,.32h0a1.36,1.36,0,0,0,0,.15h0a1.45,1.45,0,0,0,.56.84h0a.72.72,0,0,0,.21.09h0a.48.48,0,0,0,.19,0h0a.4.4,0,0,0,.28-.18h0a.46.46,0,0,0,.06-.13h0a.15.15,0,0,0,0,0h0l-.15.15a.3.3,0,0,1-.29.07h0l-.11,0h0a.36.36,0,0,1-.17-.23h0a.38.38,0,0,1,0-.18h0a.48.48,0,0,1,.07-.16h0a.49.49,0,0,1,.34-.23h0a.51.51,0,0,1,.21,0h0a.54.54,0,0,1,.17.07h0a.57.57,0,0,1,.26.36h0a.63.63,0,0,1,0,.29h0a.8.8,0,0,1-.1.24Zm-.09,0h0a.75.75,0,0,0,.1-.22h0a.53.53,0,0,0,0-.25h0a.49.49,0,0,0-.22-.3h0l-.14-.06h0a.46.46,0,0,0-.17,0h0a.41.41,0,0,0-.28.19h0a.49.49,0,0,0-.06.13h0a.3.3,0,0,0,0,.14h0a.28.28,0,0,0,.13.18h0l.08,0h0a.22.22,0,0,0,.21,0h0a.13.13,0,0,1-.1,0h0l-.06,0h0a.22.22,0,0,1-.09-.13h0a.17.17,0,0,1,0-.1h0a.24.24,0,0,1,0-.08h0a.26.26,0,0,1,.18-.12h.11l.09,0h0a.33.33,0,0,1,.15.21h0a.39.39,0,0,1,0,.17h0a.57.57,0,0,1-.07.16h0a.49.49,0,0,1-.34.22h0a.62.62,0,0,1-.23,0h0a.79.79,0,0,1-.23-.1h0a1.55,1.55,0,0,1-.59-.89h0c0-.05,0-.11,0-.17h0a1.51,1.51,0,0,1,0-.34h0l0-.08h0c0-.07,0-.14.07-.21h0v0h0l0-.09h0a.55.55,0,0,1,.6-.29h0l.1,0h0l.06,0h0a.37.37,0,0,1,.19.41h0a.3.3,0,0,1,0,.1h0a.26.26,0,0,1-.29.12h0l-.06,0h0l0,0h0a.22.22,0,0,1-.11-.15h0a.23.23,0,0,1,0-.09h0a.18.18,0,0,1,0-.06h0a.14.14,0,0,1,.11-.07h0a.23.23,0,0,0-.24.12h0a.26.26,0,0,0,0,.08h0a.28.28,0,0,0,0,.13h0a.34.34,0,0,0,.16.21h0l.05,0h0l.09,0h0a.42.42,0,0,0,.46-.2h0a.5.5,0,0,0,.06-.14h0a.5.5,0,0,0,0-.22h0a.57.57,0,0,0-.27-.36h0l-.09,0h0l-.13,0h0a.58.58,0,0,0-.37,0h0a.83.83,0,0,0-.38.34h0l-.06.11h0a1.08,1.08,0,0,0-.08.22h0a1.31,1.31,0,0,0,0,.2h0a1.74,1.74,0,0,0,0,.44h0a1.47,1.47,0,0,0,.09.29h0a2.37,2.37,0,0,0,.14.29h0a1,1,0,0,0,.2.26h0l0,0h0l0,0h0l.08.06h0l0,0h0a1,1,0,0,0,.29.13h0a.74.74,0,0,0,.25,0h0v0a.59.59,0,0,0,.46-.28Zm-.54-.38a.15.15,0,0,0,.06.08h.12l.23,0a.54.54,0,0,0,0-.07h0a.25.25,0,0,0-.11-.16h0l-.07,0h-.07a.17.17,0,0,0-.12.08h0a.16.16,0,0,0,0,.06h0a.14.14,0,0,0,0,.06Zm-.35-1.21a.14.14,0,0,0,.07.09h0l0,0h0a.17.17,0,0,0,.19-.08h0a.23.23,0,0,0,0-.07h0a.25.25,0,0,0,0-.19h0l-.22.09h0s0,0,0,0h0l0,0h0a.17.17,0,0,0,0,.05Z"/><path d="M39,93.49v0h0a.68.68,0,0,1-.31.53h0a.85.85,0,0,1-.26.11h0a1,1,0,0,1-.34,0H38l-.1,0H37.8a1.13,1.13,0,0,1-.33-.15h0a2.42,2.42,0,0,1-.27-.2h0a1.54,1.54,0,0,1-.23-.23h0a1.84,1.84,0,0,1-.24-.39h0a1.29,1.29,0,0,1-.07-.21h0a1.11,1.11,0,0,1,0-.25h0a1.31,1.31,0,0,1,0-.13h0a.92.92,0,0,1,.2-.53h0a.68.68,0,0,1,.36-.23h0l.15,0h.11a.66.66,0,0,1,.47.22h0a.55.55,0,0,1,.12.23h0a.55.55,0,0,1,0,.18h0a.51.51,0,0,1-.37.47h-.18a.41.41,0,0,1-.3-.14h0a.37.37,0,0,1-.08-.15h0a.35.35,0,0,1,0-.12h0a.31.31,0,0,1,.22-.29h0l.21-.06-.12,0h-.15a.47.47,0,0,0-.33.46h0s0,.06,0,.09h0a.15.15,0,0,1,0,0h0c0,.07,0,.14,0,.21h0L37,93h0a1.39,1.39,0,0,0,.14.29h0l.09.13h0a1.44,1.44,0,0,0,.88.48h0a.77.77,0,0,0,.23,0h0a.5.5,0,0,0,.17-.08h0a.4.4,0,0,0,.16-.3h0a.44.44,0,0,0,0-.14h0v0h0l-.07.2a.3.3,0,0,1-.22.2h-.12a.37.37,0,0,1-.25-.13h0a.39.39,0,0,1-.08-.16h0a.52.52,0,0,1,0-.17h0a.49.49,0,0,1,.19-.36h0a.52.52,0,0,1,.19-.09h0a.53.53,0,0,1,.18,0h0a.56.56,0,0,1,.39.2h0a.6.6,0,0,1,.13.25h0a.83.83,0,0,1,0,.26Zm-.09,0v0h0a.79.79,0,0,0,0-.24h0a.54.54,0,0,0-.11-.22h0a.49.49,0,0,0-.34-.17H38.3a.43.43,0,0,0-.16.07h0a.41.41,0,0,0-.16.3h0a.41.41,0,0,0,0,.14h0a.32.32,0,0,0,.06.13h0a.29.29,0,0,0,.19.09h.09a.22.22,0,0,0,.16-.14h0a.13.13,0,0,1-.08.06h-.06a.23.23,0,0,1-.14-.07h0a.2.2,0,0,1-.05-.09h0a.22.22,0,0,1,0-.08h0a.06.06,0,0,1,0,0h0a.26.26,0,0,1,.1-.19h0l.1,0h.1a.34.34,0,0,1,.23.12h0a.38.38,0,0,1,.08.15h0a.51.51,0,0,1,0,.17h0a.49.49,0,0,1-.2.36h0a.59.59,0,0,1-.2.09h0a.78.78,0,0,1-.25,0h0a1.55,1.55,0,0,1-.94-.51h0L37,93.32h0a1.42,1.42,0,0,1-.14-.31h0l0-.08h0a2,2,0,0,1,0-.22h0a.18.18,0,0,1,0,0h0a.8.8,0,0,1,0-.1h0a.55.55,0,0,1,.39-.54h.18a.37.37,0,0,1,.36.27h0a.3.3,0,0,1,0,.1h0a.25.25,0,0,1-.19.24h-.1a.23.23,0,0,1-.17-.08h0a.22.22,0,0,1,0-.08h0a.2.2,0,0,1,0-.07h0a.14.14,0,0,1,.06-.12h0v0h0a.23.23,0,0,0-.16.22h0a.29.29,0,0,0,0,.09h0a.27.27,0,0,0,.06.11h0a.33.33,0,0,0,.24.11h.16A.42.42,0,0,0,38,92.4h0a.48.48,0,0,0,0-.16h0a.49.49,0,0,0-.1-.2h0a.57.57,0,0,0-.41-.19h-.1l-.13,0h0a.59.59,0,0,0-.31.2h0a.85.85,0,0,0-.18.48h0s0,.08,0,.12h0a1.22,1.22,0,0,0,0,.23h0a1.55,1.55,0,0,0,.06.2h0a1.85,1.85,0,0,0,.23.38h0a1.49,1.49,0,0,0,.21.22h0a2.28,2.28,0,0,0,.27.19h0a1,1,0,0,0,.3.14h.12l.09,0h.06a.93.93,0,0,0,.32,0h0a.8.8,0,0,0,.24-.1h0l0,0,0,0a.59.59,0,0,0,.27-.46Zm-.65-.09a.12.12,0,0,0,.09,0h0l0,0h0v0h0l.19-.13,0-.05h0a.25.25,0,0,0-.17-.09h-.07l-.07,0h0a.17.17,0,0,0-.07.13h0a.18.18,0,0,0,0,.06h0a.12.12,0,0,0,0,.05Zm-.88-.9a.13.13,0,0,0,.1,0h.07a.17.17,0,0,0,.13-.16h0a.25.25,0,0,0,0-.08h0a.25.25,0,0,0-.12-.16h0l-.15.18h0v0h0s0,0,0,0h0a.11.11,0,0,0,0,0h0l0,0Z"/><path d="M46,96.7v0h0a.69.69,0,0,1,0,.62h0a.86.86,0,0,1-.16.23h0a1.06,1.06,0,0,1-.27.21h0l0,0h0l-.09,0h0l-.05,0h0l-.06,0h0a1.2,1.2,0,0,1-.36.05h0l-.34,0h0a1.52,1.52,0,0,1-.32-.07h0a1.91,1.91,0,0,1-.41-.2h0l-.17-.14h0a1.24,1.24,0,0,1-.17-.19h0l-.07-.11h0a.93.93,0,0,1-.12-.55h0a.67.67,0,0,1,.18-.38h0l.12-.1h0l.09-.06h0a.65.65,0,0,1,.51-.07h0a.56.56,0,0,1,.22.13h0a.61.61,0,0,1,.11.14h0a.51.51,0,0,1-.06.6h0l-.09.07h0l-.06,0h0a.42.42,0,0,1-.33,0h0a.36.36,0,0,1-.14-.08h0a.38.38,0,0,1-.07-.09h0a.32.32,0,0,1,0-.36h0l.14-.16-.12,0h0l-.05,0h0l-.07.06h0a.46.46,0,0,0,0,.56h0l.05.08h0l0,0h0l.14.15h0l.06.05h0a1.57,1.57,0,0,0,.27.17h0l.14.06h0a1.46,1.46,0,0,0,1-.08h0a.7.7,0,0,0,.18-.14h0a.5.5,0,0,0,.1-.16h0a.4.4,0,0,0,0-.34h0a.39.39,0,0,0-.08-.11h0l0,0h0l.05.21a.3.3,0,0,1-.08.29h0l-.09.07h0a.37.37,0,0,1-.28,0h0a.39.39,0,0,1-.16-.09h0a.52.52,0,0,1-.1-.14h0a.5.5,0,0,1,0-.41h0a.54.54,0,0,1,.11-.18h0a.62.62,0,0,1,.14-.11h0a.57.57,0,0,1,.44,0h0a.6.6,0,0,1,.25.14h0a.83.83,0,0,1,.16.21Zm-.07.06v0h0a.79.79,0,0,0-.14-.19h0a.56.56,0,0,0-.21-.12h0a.49.49,0,0,0-.37,0h0a.49.49,0,0,0-.12.09h0a.46.46,0,0,0-.09.15h0A.41.41,0,0,0,45,97h0a.5.5,0,0,0,.09.12h0a.31.31,0,0,0,.12.07h0a.28.28,0,0,0,.21,0h0l.07-.05h0a.22.22,0,0,0,.06-.21h0a.13.13,0,0,1,0,.09h0l0,0h0a.21.21,0,0,1-.15,0h0a.19.19,0,0,1-.09-.05h0L45.17,97h0a.26.26,0,0,1,0-.22h0a.28.28,0,0,1,.06-.09h0l.08-.06h0a.34.34,0,0,1,.26,0h0a.4.4,0,0,1,.15.09h0a.52.52,0,0,1,.1.14h0a.49.49,0,0,1,0,.41h0a.57.57,0,0,1-.12.19h0a.77.77,0,0,1-.2.15h0a1.54,1.54,0,0,1-1.07.08h0l-.15-.07h0a1.48,1.48,0,0,1-.29-.18h0l-.06-.05h0l-.15-.16h0l0,0h0l-.05-.09h0a.54.54,0,0,1,0-.66h0l.08-.07h0l.06,0h0a.37.37,0,0,1,.45,0h0l.06.08h0a.25.25,0,0,1,0,.31h0l0,0h0l0,0h0a.22.22,0,0,1-.18,0h0l-.07,0h0l0-.05h0a.15.15,0,0,1,0-.13h0v0h0a.24.24,0,0,0,0,.27h0l.06.07h0a.26.26,0,0,0,.11.06h0a.33.33,0,0,0,.26,0h0l.05,0h0l.07-.06h0a.42.42,0,0,0,0-.5h0a.46.46,0,0,0-.1-.12h0a.53.53,0,0,0-.19-.11h0a.57.57,0,0,0-.45.06h0l-.08.05h0l-.1.09h0a.59.59,0,0,0-.16.34h0a.83.83,0,0,0,.11.5h0l.06.1h0a1.21,1.21,0,0,0,.15.18h0l.16.13h0a1.77,1.77,0,0,0,.39.19h0a1.48,1.48,0,0,0,.3.07h0l.33,0h0a1,1,0,0,0,.33,0h0l.06,0h0l0,0h0l.09,0h.05a1,1,0,0,0,.25-.19h0A.8.8,0,0,0,46,97.3h0l0,0,0,0a.6.6,0,0,0,0-.54Zm-.6.28a.13.13,0,0,0,.09,0h0l0,0h0a0,0,0,0,0,0,0h0v0h0l.09-.22-.06,0h0a.26.26,0,0,0-.19,0h0l-.06,0h0a.17.17,0,0,0,0,.06h0a.17.17,0,0,0,0,.15h0l0,0h0l.06,0Zm-1.23-.29a.13.13,0,0,0,.11,0h0l0,0h0a.17.17,0,0,0,0-.21h0l0-.06h0a.26.26,0,0,0-.19-.07h0l0,.24h0v0h0a.06.06,0,0,0,0,.05h0l0,0h0l0,0Z"/><path d="M53,96h0a.68.68,0,0,1,.33.52h0a.81.81,0,0,1,0,.28h0a1,1,0,0,1-.13.32h0v0h0l0,0h0l-.06.08h0l0,0h0l0,0h0a1.09,1.09,0,0,1-.28.23h0l-.3.16h0a1.72,1.72,0,0,1-.31.1h0a1.81,1.81,0,0,1-.46,0h0l-.22,0h0l-.24-.08h0l-.12-.06h0a.92.92,0,0,1-.38-.41h0a.68.68,0,0,1,0-.42h0a.94.94,0,0,1,0-.14h0l.05-.1h0a.64.64,0,0,1,.4-.32h0a.56.56,0,0,1,.26,0h0a.56.56,0,0,1,.17.07h0a.5.5,0,0,1,.25.55h0a.55.55,0,0,1,0,.11h0l0,.06h0a.41.41,0,0,1-.26.2h0a.34.34,0,0,1-.16,0h0l-.11,0h0a.31.31,0,0,1-.16-.33h0l0-.21a.45.45,0,0,0-.08.1h0l0,.05h0A.39.39,0,0,0,51,97h0a.46.46,0,0,0,.26.5h0l.08,0h0l.2.06h.08a1.36,1.36,0,0,0,.32,0h0l.15,0h0A1.46,1.46,0,0,0,53,97h0v0h0a.7.7,0,0,0,.09-.21h0a.52.52,0,0,0,0-.19h0a.41.41,0,0,0-.19-.28h0l-.13-.05h0l.15.15a.31.31,0,0,1,.08.29h0a.43.43,0,0,1,0,.11h0a.37.37,0,0,1-.23.17h0a.38.38,0,0,1-.18,0h0a.53.53,0,0,1-.16-.07h0a.49.49,0,0,1-.23-.33h0a.52.52,0,0,1,0-.21h0a.62.62,0,0,1,.07-.17h0a.56.56,0,0,1,.35-.26h0a.61.61,0,0,1,.28,0h0A.91.91,0,0,1,53,96Zm0,.08h0a.83.83,0,0,0-.22-.09h0a.55.55,0,0,0-.25,0h0a.48.48,0,0,0-.3.23h0a.48.48,0,0,0-.06.14h0a.46.46,0,0,0,0,.17h0a.41.41,0,0,0,.2.28h0l.13.06h0a.3.3,0,0,0,.15,0h0a.27.27,0,0,0,.17-.13h0a.26.26,0,0,0,0-.08h0a.22.22,0,0,0-.05-.21h0v0h0a.13.13,0,0,1,0,.1h0a.2.2,0,0,1,0,.06h0a.22.22,0,0,1-.12.1h0a.18.18,0,0,1-.11,0h0l-.08,0h0a.27.27,0,0,1-.12-.18h0a.32.32,0,0,1,0-.11h0a.3.3,0,0,1,0-.09h0a.33.33,0,0,1,.21-.16h0a.37.37,0,0,1,.17,0h0a.54.54,0,0,1,.16.06h0a.49.49,0,0,1,.23.34h0a.6.6,0,0,1,0,.23h0a.76.76,0,0,1-.09.23h0v0h0a1.54,1.54,0,0,1-.88.61h0l-.16,0h0a1.53,1.53,0,0,1-.34,0h0l-.08,0h0l-.21-.06h0l-.09,0h0a.54.54,0,0,1-.3-.59h0a.4.4,0,0,1,0-.1h0l0-.06h0a.37.37,0,0,1,.4-.2h0l.1,0h0a.26.26,0,0,1,.13.28h0a.18.18,0,0,1,0,.06h0l0,0h0a.21.21,0,0,1-.15.11h-.09l-.06,0h0a.14.14,0,0,1-.08-.11h0v0h0a.24.24,0,0,0,.12.24h0l.09,0h.13a.33.33,0,0,0,.21-.16h0l0-.05h0l0-.09h0a.42.42,0,0,0-.21-.45h0l-.15-.06h0a.47.47,0,0,0-.22,0h0a.56.56,0,0,0-.35.28h0l0,.09h0a.55.55,0,0,0,0,.13h0a.58.58,0,0,0,0,.37h0a.84.84,0,0,0,.35.37h0l.11.06h0l.22.08h0l.2,0h0a1.74,1.74,0,0,0,.44,0h0a1.54,1.54,0,0,0,.29-.09h0l.29-.15h0a1.07,1.07,0,0,0,.26-.21h0l0,0h0l0,0h0l.06-.08h0l0,0h0v0h0a1,1,0,0,0,.12-.3h0a.75.75,0,0,0,0-.25h0A.59.59,0,0,0,53,96.1Zm-.37.54a.13.13,0,0,0,.07-.06h0v0h0a0,0,0,0,0,0,0h0v0h0l0-.23h-.06a.25.25,0,0,0-.16.11h0l0,.07h0a.18.18,0,0,0,0,.07h0a.17.17,0,0,0,.09.12h0l.06,0h.06ZM51.43,97a.13.13,0,0,0,.09-.07h0v0h0l0,0h0a.17.17,0,0,0-.09-.19h0l-.07,0h0a.26.26,0,0,0-.19,0h0l.1.22h0v0h0s0,0,0,0h0l0,0h.05Z"/><path d="M59,92.23h0a.68.68,0,0,1,.52.33h0a.81.81,0,0,1,.1.26h0a1,1,0,0,1,0,.34h0v0h0a.19.19,0,0,1,0,0h0l0,.09h0a.43.43,0,0,1,0,.05h0l0,.06h0a1.12,1.12,0,0,1-.16.32h0a2.38,2.38,0,0,1-.21.27h0a1.52,1.52,0,0,1-.24.22h0a1.87,1.87,0,0,1-.4.23h0l-.21.06h0a1.07,1.07,0,0,1-.25,0H58a.92.92,0,0,1-.52-.21h0A.67.67,0,0,1,57.3,94h0a.75.75,0,0,1,0-.15h0a.72.72,0,0,1,0-.11h0a.65.65,0,0,1,.23-.46h0a.57.57,0,0,1,.23-.11h0a.58.58,0,0,1,.18,0h0a.5.5,0,0,1,.46.39h0a.48.48,0,0,1,0,.11h0s0,0,0,.07h0a.42.42,0,0,1-.15.29h0a.35.35,0,0,1-.15.07H58a.32.32,0,0,1-.28-.23h0l-.06-.21a.4.4,0,0,0,0,.12h0s0,0,0,.06h0a.48.48,0,0,0,0,.09h0a.46.46,0,0,0,.45.34h.12l.21,0h0l.07,0h0a1.36,1.36,0,0,0,.3-.13h0L58.9,94h0a1.46,1.46,0,0,0,.51-.87h0v0h0a.7.7,0,0,0,0-.23h0a.51.51,0,0,0-.08-.18h0a.4.4,0,0,0-.29-.17h-.19l.2.07a.3.3,0,0,1,.19.23h0a.32.32,0,0,1,0,.12h0a.38.38,0,0,1-.13.25h0a.39.39,0,0,1-.16.08h-.18a.49.49,0,0,1-.35-.2h0a.5.5,0,0,1-.08-.19h0a.6.6,0,0,1,0-.18h0a.57.57,0,0,1,.21-.39h0a.62.62,0,0,1,.26-.12h0a.8.8,0,0,1,.26,0Zm0,.09h0a.76.76,0,0,0-.24,0h0a.54.54,0,0,0-.22.11h0a.48.48,0,0,0-.17.33h0a.5.5,0,0,0,0,.15h0a.44.44,0,0,0,.07.16h0a.4.4,0,0,0,.3.17h.15a.32.32,0,0,0,.13-.06h0a.28.28,0,0,0,.1-.19h0a.26.26,0,0,0,0-.09h0a.22.22,0,0,0-.14-.17h0a.12.12,0,0,1,.05.08h0a.22.22,0,0,1,0,.06h0A.22.22,0,0,1,59,93h0a.18.18,0,0,1-.09,0h-.1a.27.27,0,0,1-.19-.11h0a.31.31,0,0,1,0-.1h0a.32.32,0,0,1,0-.1h0a.34.34,0,0,1,.12-.23h0a.41.41,0,0,1,.16-.07h0a.48.48,0,0,1,.17,0h0a.49.49,0,0,1,.35.21h0a.63.63,0,0,1,.09.21h0a.81.81,0,0,1,0,.25h0v0h0a1.55,1.55,0,0,1-.54.93h0l-.14.09h0a1.46,1.46,0,0,1-.31.13h0l-.08,0h0l-.22,0h-.14a.55.55,0,0,1-.52-.41h0a.41.41,0,0,1,0-.11h0a.51.51,0,0,1,0-.07h0a.37.37,0,0,1,.28-.35h.1a.26.26,0,0,1,.24.2h0a.24.24,0,0,1,0,.06h0a.21.21,0,0,1,0,0h0a.21.21,0,0,1-.09.16h0l-.08,0h-.07a.15.15,0,0,1-.12-.07h0A.24.24,0,0,0,58,94h.09A.3.3,0,0,0,58.2,94h0a.32.32,0,0,0,.12-.24h0a.41.41,0,0,0,0-.06h0a.52.52,0,0,0,0-.09h0a.42.42,0,0,0-.38-.32h-.16a.49.49,0,0,0-.2.09h0a.57.57,0,0,0-.2.4h0a.72.72,0,0,0,0,.1h0a.54.54,0,0,0,0,.13h0a.59.59,0,0,0,.19.32h0a.83.83,0,0,0,.48.19h.12l.23,0h0l.2-.06h0a1.79,1.79,0,0,0,.38-.22h0a1.42,1.42,0,0,0,.22-.21h0a2.38,2.38,0,0,0,.2-.26h0a1.1,1.1,0,0,0,.15-.3h0l0-.05h0a.25.25,0,0,0,0-.05h0l0-.09h0v0h0v0h0a1,1,0,0,0,0-.32h0a.79.79,0,0,0-.09-.24h0l0,0,0,0a.6.6,0,0,0-.46-.29Zm-.11.65a.13.13,0,0,0,0-.08h0a.08.08,0,0,0,0,0h0a0,0,0,0,0,0,0h0l-.13-.2-.06,0h0a.26.26,0,0,0-.09.17h0a.28.28,0,0,0,0,.07h0a.18.18,0,0,0,0,.07h0a.17.17,0,0,0,.13.07h.07l.06,0Zm-.93.85a.13.13,0,0,0,.05-.1h0v0h0a.26.26,0,0,0,0,0h0a.17.17,0,0,0-.16-.13h-.08a.25.25,0,0,0-.16.11h0l.18.16h0s0,0,0,0h0l0,0Z"/><path d="M62.43,85.19h0a.69.69,0,0,1,.61,0h0a.82.82,0,0,1,.23.17h0a1.07,1.07,0,0,1,.2.28h0v0h0l0,0h0l0,.09h0l0,.05h0l0,.06h0a1.08,1.08,0,0,1,0,.36h0a2.54,2.54,0,0,1,0,.34h0a1.77,1.77,0,0,1-.08.31h0a1.92,1.92,0,0,1-.22.41h0a1.37,1.37,0,0,1-.14.17h0a1.21,1.21,0,0,1-.2.16h0l-.11.07h0a.93.93,0,0,1-.55.11h0a.67.67,0,0,1-.38-.19h0l-.1-.12h0l-.06-.1h0a.65.65,0,0,1-.05-.51h0a.56.56,0,0,1,.13-.22h0a.55.55,0,0,1,.15-.11h0a.5.5,0,0,1,.59.08h0l.07.09h0l0,.06h0a.41.41,0,0,1,0,.33h0a.37.37,0,0,1-.09.14h0l-.1.07h0a.31.31,0,0,1-.36,0h0L62,87.16a.42.42,0,0,0,0,.12h0l0,.05h0l.06.07h0a.46.46,0,0,0,.56,0h0l.08,0h0l0,0h0l.16-.14h0l.05-.06h0a1.38,1.38,0,0,0,.18-.27h0l.07-.14h0a1.45,1.45,0,0,0,0-1h0v0h0a.75.75,0,0,0-.13-.19h0a.53.53,0,0,0-.16-.11h0a.41.41,0,0,0-.34,0h0l-.12.08h0l0,0h0l.21,0a.31.31,0,0,1,.28.09h0a.37.37,0,0,1,.07.09h0A.36.36,0,0,1,63,86h0a.37.37,0,0,1-.1.15h0a.48.48,0,0,1-.14.1h0a.49.49,0,0,1-.41,0h0a.48.48,0,0,1-.17-.12h0A.56.56,0,0,1,62.1,86h0a.57.57,0,0,1,0-.44h0a.61.61,0,0,1,.15-.24h0a.85.85,0,0,1,.21-.15Zm.06.07h0a.86.86,0,0,0-.19.14h0a.54.54,0,0,0-.13.21h0a.48.48,0,0,0,0,.37h0a.44.44,0,0,0,.09.12h0a.43.43,0,0,0,.14.1h0a.4.4,0,0,0,.34,0h0l.12-.08h0a.31.31,0,0,0,.08-.12h0a.28.28,0,0,0,0-.21h0l-.05-.07h0a.22.22,0,0,0-.2-.07h0a.13.13,0,0,1,.09,0h0l0,0h0a.22.22,0,0,1,0,.16h0a.19.19,0,0,1-.05.09h0l-.07,0h0a.27.27,0,0,1-.22,0h0L62.39,86h0a.32.32,0,0,1-.06-.08h0a.34.34,0,0,1,0-.26h0a.37.37,0,0,1,.09-.15h0a.52.52,0,0,1,.14-.1h0a.49.49,0,0,1,.41,0h0a.56.56,0,0,1,.19.13h0a.7.7,0,0,1,.15.21h0v0h0a1.56,1.56,0,0,1,0,1.07h0l-.07.15h0a1.51,1.51,0,0,1-.19.28h0L63,87.3h0l-.16.15h0l0,0h0l-.09.05h0a.54.54,0,0,1-.66-.06h0L62,87.37h0l0-.06h0a.37.37,0,0,1,0-.45h0l.08-.06h0a.25.25,0,0,1,.31,0h0l0,0h0l0,0h0a.22.22,0,0,1,0,.18h0a.21.21,0,0,1,0,.07h0l-.05,0h0a.15.15,0,0,1-.14,0h0a.24.24,0,0,0,.27,0h0l.07-.05h0a.24.24,0,0,0,.07-.11h0a.32.32,0,0,0,0-.26h0l0-.05h0l-.06-.07h0a.42.42,0,0,0-.49-.06h0a.52.52,0,0,0-.13.09h0a.5.5,0,0,0-.12.19h0a.56.56,0,0,0,.05.45h0l.05.09h0l.08.1h0a.59.59,0,0,0,.33.17h0a.85.85,0,0,0,.5-.1h0l.11-.06h0l.18-.15h0a1.23,1.23,0,0,0,.13-.16h0a1.8,1.8,0,0,0,.21-.39h0a1.41,1.41,0,0,0,.08-.3h0a2.1,2.1,0,0,0,0-.32h0a1.07,1.07,0,0,0,0-.33h0l0-.06h0l0,0h0l0-.09h0v0h0v0h0a1,1,0,0,0-.19-.26h0a.78.78,0,0,0-.21-.15h0l0,0,0,0a.6.6,0,0,0-.54,0Zm.26.61a.13.13,0,0,0,0-.09h0l0,0h-.08l-.21-.1,0,.06h0a.26.26,0,0,0,0,.19h0l0,.06h0l.06,0h0a.17.17,0,0,0,.15,0h0l0,0h0a.1.1,0,0,0,0-.05Zm-.32,1.22a.13.13,0,0,0,0-.11h0v0h0l0,0h0a.17.17,0,0,0-.21,0h0l-.06,0h0a.25.25,0,0,0-.07.18h0l.23,0h.1l0,0h0l0,0Z"/></g></g></svg>