<svg xmlns="http://www.w3.org/2000/svg" viewBox="0 0 133.98 93.52"><defs><style>.cls-1{fill:#fff;}.cls-2{fill:#231f20;}</style></defs><title>Ресурс 12clock</title><g id="Слой_2" data-name="Слой 2"><g id="Layer_1" data-name="Layer 1"><rect class="cls-1" x="5.87" y="68.53" width="121.85" height="16.52"/><rect x="5.75" y="69.57" width="121.84" height="14.07"/><polygon points="0 61.5 0 65.76 2.77 68.66 131.02 68.66 133.98 65.76 133.98 61.5 0 61.5"/><polygon points="0 90.69 0 87 2.77 84.49 131.02 84.49 133.98 87 133.98 90.69 0 90.69"/><polygon points="4.58 90.69 4.58 92.32 4.64 93.43 7.04 93.43 7.1 92.32 7.1 90.69 4.58 90.69"/><polygon points="126.11 90.78 126.11 92.41 126.16 93.53 128.57 93.53 128.63 92.41 128.63 90.78 126.11 90.78"/><circle cx="66.8" cy="48.82" r="26.46"/><path class="cls-1" d="M39.75,48.82a27,27,0,0,1,27-27h0a27,27,0,0,1,27,27h0a27,27,0,0,1-27,27h0a27,27,0,0,1-27-27Zm8.74-18.3a25.8,25.8,0,0,0-7.58,18.3h0a25.8,25.8,0,0,0,7.58,18.3h0A25.8,25.8,0,0,0,66.8,74.7h0a25.79,25.79,0,0,0,18.3-7.58h0a25.79,25.79,0,0,0,7.58-18.3h0a25.79,25.79,0,0,0-7.58-18.3h0a25.79,25.79,0,0,0-18.3-7.58h0a25.8,25.8,0,0,0-18.3,7.58Z"/><path d="M18.75,31.75l.57-.6.4-.44a3,3,0,0,1,.64-.51l.8-.44.73-.4,1-.55c.2-.11.52-.3.71-.42l1.21-.81c.19-.13.49-.35.67-.5l1.38-1.15c.18-.15.46-.39.62-.55l.6-.57a3.33,3.33,0,0,0,.51-.65l.25-.45a3.59,3.59,0,0,0,.3-.77l.14-.59a.49.49,0,0,0-.18-.54.57.57,0,0,1-.24-.55l0-.31a1.6,1.6,0,0,0-.15-.78l-.13-.25a3.1,3.1,0,0,0-.49-.66l-.3-.29a1.5,1.5,0,0,1-.37-.61,1.41,1.41,0,0,1,.08-.7v0a.57.57,0,0,0-.15-.62.53.53,0,0,1-.13-.61l0-.09a.3.3,0,0,0-.24-.45l-.12,0c-.23,0-.29-.2-.15-.36s.07-.25-.15-.21l-.5.11c-.22,0-.28-.05-.13-.23a5.71,5.71,0,0,1,.81-.79,2.35,2.35,0,0,0,.5-.42c.15-.17.1-.28-.13-.23l-.43.08c-.22,0-.31-.08-.19-.27l.43-.68.46-.69.64-1c.13-.19.32-.51.43-.71L29,9.66c.11-.2.28-.53.38-.74L30.33,7a7.63,7.63,0,0,1,.41-.72l.66-1a3.92,3.92,0,0,1,.54-.63l.8-.73c.17-.15.46-.39.64-.53L33.87,3l.68-.48.26-.17c.19-.13.25-.32.13-.42a1.26,1.26,0,0,1-.3-.56,2.8,2.8,0,0,1,0-.79l0-.42c0-.23.15-.26.29-.08L35,.2a1.7,1.7,0,0,0,.56.47,2.63,2.63,0,0,0,.58.18.84.84,0,0,0,.57-.24l.17-.16c.17-.16.34-.14.38,0a1.6,1.6,0,0,0,.17.45,1,1,0,0,0,.51.2h0l.77.12a2.08,2.08,0,0,1,.7.29l.24.16a2.15,2.15,0,0,1,.55.6l.35.61c.11.2.31.52.43.71l.38.58a4.89,4.89,0,0,1,.38.74l.35.9a1.8,1.8,0,0,0,.48.65l.59.46a5,5,0,0,1,.59.58l.64.76a2.56,2.56,0,0,1,.4.71l0,.1a2.71,2.71,0,0,1,.1.81l0,.49a.84.84,0,0,1-.36.6,3.81,3.81,0,0,0-.58.42.88.88,0,0,1-.66.17l-.66-.1a1.36,1.36,0,0,1-.69-.37h0a2.83,2.83,0,0,0-.64-.51L41,10.5a6.75,6.75,0,0,0-.75-.34l-.65-.24-.78-.28-.42-.15a.25.25,0,0,0-.36.27l0,.21a2.39,2.39,0,0,0,.23.78l.59,1.12a4,4,0,0,0,.48.68A7.78,7.78,0,0,1,40.45,14a9.11,9.11,0,0,0,.83,1.4,3,3,0,0,0,.57.59l.69.51.67.49,1,.68a2.74,2.74,0,0,1,.57.59l.22.33a1.73,1.73,0,0,1,.25.76l0,.33c0,.23,0,.6,0,.83v.68a.54.54,0,0,0,.41.5l.18,0a1.24,1.24,0,0,0,.77-.12l.35-.2c.2-.12.53-.29.74-.38l.74-.33.77-.32.12,0a5.08,5.08,0,0,1,.8-.22l.11,0A2.73,2.73,0,0,1,51,20a1.34,1.34,0,0,1,.62.35l.25.26a1.63,1.63,0,0,1,.37.71l0,.24a2.67,2.67,0,0,1,0,.82l-.2,1.07a2.78,2.78,0,0,0,0,.82l.21,1.17a5.19,5.19,0,0,1,.06.83v.13a1.08,1.08,0,0,1-.3.67l-.58.55L50.17,29a6.27,6.27,0,0,1-.63.54l-.83.61a.23.23,0,0,1-.4-.17l-.23-1.48a.91.91,0,0,1,.23-.7l.41-.41a1,1,0,0,1,.71-.26h.07c.23,0,.42-.1.43-.26a3.93,3.93,0,0,1,.14-.7h0c.07-.22.18-.58.26-.79l.17-.48a3,3,0,0,0,.14-.81v-.38c0-.23,0-.57,0-.75a.6.6,0,0,0-.38-.45.81.81,0,0,0-.67.14l-.11.09a3.81,3.81,0,0,1-.56.37c-.13.06-.11.23,0,.37a1.54,1.54,0,0,1,.49,1.32h0a1.55,1.55,0,0,1-.3.74l-.14.16a2.27,2.27,0,0,0-.38.72l-.88,3.15a1.33,1.33,0,0,1-.46.63l-2.16,1.45a3.62,3.62,0,0,1-.74.36l-.1,0-.79.26-.3.1c-.22.07-.36,0-.32-.28L43.21,30a.57.57,0,0,1,.49-.44l.21,0a2.17,2.17,0,0,1,.73.08.72.72,0,0,0,.55,0,3.74,3.74,0,0,0,.48-.38l.49-.44a1.37,1.37,0,0,0,.35-.61l.54-2a1.54,1.54,0,0,0,0-.72c-.05-.18-.25-.2-.43-.06l-2.25,1.76a1.38,1.38,0,0,1-.74.25h-.38a1,1,0,0,0-.67.33L41.2,29.41l-.51.66L39.16,32a4.73,4.73,0,0,1-.58.59l-2.36,2c-.17.15-.47.37-.67.49l-2.75,1.79-.68.47-1.79,1.3a3.12,3.12,0,0,0-.58.59l-.29.41a1.55,1.55,0,0,0-.25.75v.44a2.81,2.81,0,0,0,.13.81l.06.18a1.66,1.66,0,0,1,0,.8l-.17.71a1.81,1.81,0,0,1-.39.71l-1.3,1.35L27,46l-1.37,1.56a6.81,6.81,0,0,1-.59.58l-1.89,1.61a2.47,2.47,0,0,0-.5.64l-.16.32a2.71,2.71,0,0,0-.23.79L22,54.22a2.24,2.24,0,0,0,.09.81l.65,1.9a7.8,7.8,0,0,0,.31.77l.33.69a5.21,5.21,0,0,0,.42.71l.36.49a3.91,3.91,0,0,0,.57.6.69.69,0,0,1,.21.66l-.17.59a.47.47,0,0,1-.52.33l-1.3-.24a.46.46,0,0,1-.38-.46.5.5,0,0,0-.2-.49,1,1,0,0,1-.4-.47l-.19-.42a.76.76,0,0,0-.59-.4l-.37,0a.37.37,0,0,1-.35-.43l.08-.48a2.7,2.7,0,0,0,0-.82l-.32-1.45c0-.22-.14-.59-.19-.81L19.4,53c-.06-.22-.15-.58-.2-.81l-.24-1c-.05-.22-.16-.58-.24-.79L18.57,50a.75.75,0,0,1,.12-.68,4.64,4.64,0,0,1,.59-.54l.35-.26a1.21,1.21,0,0,0,.41-.65l.28-1.54a1.12,1.12,0,0,0-.16-.75L19,44c-.13-.19-.34-.5-.46-.7l-1.06-1.71a5.37,5.37,0,0,1-.37-.74l-.35-.9c-.08-.21-.23-.56-.33-.76l-.5-1c-.1-.2-.25-.22-.33,0a1.38,1.38,0,0,0,0,.74l.17.65a6.06,6.06,0,0,0,.27.78l.65,1.45c.09.21.25.55.36.75l.69,1.36a5.71,5.71,0,0,1,.31.77,5.12,5.12,0,0,1,.21,1l-.4,2.55c0,.22-.09.22-.13,0l-.35-2.28c0-.23-.08-.22-.09,0L17,49c0,.23,0,.6-.07.83,0,0-.12,1-.17,1.37s-.73,2.14-.73,2.14c-.08.21-.13.2-.11,0L16.18,51c0-.23,0-.23-.07,0l-1,3.55a3.32,3.32,0,0,1-.34.75l-.68,1.06a1.66,1.66,0,0,1-.6.52l-1.13.51a3.84,3.84,0,0,1-.79.24l-.49.08a3,3,0,0,1-.82,0l-1.9-.3c-.23,0-.23-.12,0-.18L9.9,56.8a1.18,1.18,0,0,0,.61-.47l.23-.39a5,5,0,0,0,.35-.75l.49-1.4a4.57,4.57,0,0,0,.18-.81s.3-2.56.33-2.74-.17-2.95-.17-2.95c0-.23-.06-.6-.1-.83l-.37-2c0-.22-.09-.6-.12-.82l-.18-1.7a3.58,3.58,0,0,1,0-.82l.23-1.24a2.82,2.82,0,0,1,.29-.77l.47-.78a3.3,3.3,0,0,1,.52-.63l.3-.27c.17-.15.46-.39.65-.53l.29-.21a2.26,2.26,0,0,1,.75-.33l.18,0a5.4,5.4,0,0,1,.71-.1.6.6,0,0,0,.45-.41l.27-.77a4,4,0,0,1,.37-.74l.64-1a5.41,5.41,0,0,1,.52-.64Z"/><path d="M114.56,31.75l-.57-.6-.4-.44a3.06,3.06,0,0,0-.64-.51l-.8-.44-.73-.4-1-.55c-.2-.11-.52-.3-.71-.42l-1.21-.81c-.19-.13-.49-.35-.67-.5l-1.38-1.15c-.18-.15-.46-.39-.62-.55l-.6-.57a3.32,3.32,0,0,1-.51-.65l-.25-.45a3.7,3.7,0,0,1-.31-.77l-.14-.59a.49.49,0,0,1,.18-.54.57.57,0,0,0,.24-.55l0-.31a1.62,1.62,0,0,1,.15-.78l.13-.25a3,3,0,0,1,.49-.66l.3-.29a1.5,1.5,0,0,0,.37-.61,1.46,1.46,0,0,0-.08-.7v0a.56.56,0,0,1,.15-.62.53.53,0,0,0,.13-.61l0-.09a.3.3,0,0,1,.24-.45l.12,0c.23,0,.29-.2.15-.36s-.08-.25.15-.21l.5.11c.23,0,.28-.05.13-.23a5.82,5.82,0,0,0-.81-.79,2.31,2.31,0,0,1-.5-.42c-.15-.17-.1-.28.13-.23l.43.08c.23,0,.31-.08.18-.27l-.43-.68-.46-.69-.64-1c-.13-.19-.32-.51-.43-.71l-.45-.83c-.11-.2-.28-.53-.38-.74L103,7a7.6,7.6,0,0,0-.41-.72l-.66-1a3.77,3.77,0,0,0-.54-.63l-.8-.73c-.17-.15-.46-.39-.64-.53L99.45,3l-.68-.48-.26-.17c-.19-.13-.25-.32-.13-.42a1.29,1.29,0,0,0,.31-.56,2.8,2.8,0,0,0,0-.79l0-.42c0-.23-.16-.26-.29-.08L98.33.2a1.7,1.7,0,0,1-.56.47,2.65,2.65,0,0,1-.58.18.84.84,0,0,1-.57-.24L96.46.46c-.17-.16-.34-.14-.38,0a1.61,1.61,0,0,1-.17.45,1,1,0,0,1-.51.2h0l-.77.12a2.08,2.08,0,0,0-.7.29l-.24.16a2.14,2.14,0,0,0-.55.6l-.35.61c-.11.2-.31.52-.43.71L92,4.21a5.08,5.08,0,0,0-.38.74l-.35.9a1.79,1.79,0,0,1-.48.65L90.19,7a4.89,4.89,0,0,0-.6.58L89,8.3a2.47,2.47,0,0,0-.4.71l0,.1a2.51,2.51,0,0,0-.1.81l0,.49a.84.84,0,0,0,.36.6,3.58,3.58,0,0,1,.58.42.89.89,0,0,0,.66.17l.66-.1a1.36,1.36,0,0,0,.69-.37h0a2.8,2.8,0,0,1,.65-.51l.22-.12a6.85,6.85,0,0,1,.76-.34l.65-.24.78-.28.42-.15a.25.25,0,0,1,.36.27l0,.21a2.4,2.4,0,0,1-.23.78l-.59,1.12a4,4,0,0,1-.47.68A7.77,7.77,0,0,0,92.86,14a8.83,8.83,0,0,1-.82,1.4,3,3,0,0,1-.57.59l-.69.51-.67.49-1,.68a2.75,2.75,0,0,0-.57.59l-.22.33a1.76,1.76,0,0,0-.25.76l0,.33c0,.23,0,.6,0,.83v.68a.54.54,0,0,1-.41.5l-.18,0a1.25,1.25,0,0,1-.77-.12l-.35-.2c-.2-.12-.53-.29-.74-.38l-.74-.33-.77-.32-.12,0a5,5,0,0,0-.8-.22l-.11,0a2.75,2.75,0,0,0-.74,0,1.33,1.33,0,0,0-.61.35l-.25.26a1.63,1.63,0,0,0-.37.71l0,.24a2.61,2.61,0,0,0,0,.82l.2,1.07a2.71,2.71,0,0,1,0,.82L81,25.48a5,5,0,0,0-.06.83v.13a1.09,1.09,0,0,0,.29.67l.58.55L83.15,29a6.24,6.24,0,0,0,.63.54l.83.61a.23.23,0,0,0,.4-.17l.24-1.48a.92.92,0,0,0-.23-.7l-.41-.41a1,1,0,0,0-.71-.26h-.07c-.23,0-.42-.1-.43-.26a3.6,3.6,0,0,0-.14-.7h0c-.07-.22-.18-.58-.26-.79l-.17-.48a3.09,3.09,0,0,1-.14-.81v-.38c0-.23,0-.57,0-.75a.6.6,0,0,1,.38-.45.81.81,0,0,1,.67.14l.11.09a4,4,0,0,0,.56.37c.13.06.11.23,0,.37A2,2,0,0,0,84,24a1.93,1.93,0,0,0-.1.74h0a1.54,1.54,0,0,0,.3.74l.14.16a2.33,2.33,0,0,1,.38.72l.88,3.15a1.29,1.29,0,0,0,.46.63l2.16,1.45A3.63,3.63,0,0,0,89,32l.1,0,.79.26.3.1c.22.07.36,0,.32-.28L90.11,30a.57.57,0,0,0-.49-.44l-.21,0a2.18,2.18,0,0,0-.73.08.73.73,0,0,1-.55,0,3.72,3.72,0,0,1-.48-.38l-.49-.44a1.35,1.35,0,0,1-.35-.61l-.54-2a1.52,1.52,0,0,1,0-.72c.05-.18.25-.2.43-.06l2.25,1.76a1.38,1.38,0,0,0,.74.25h.38a1,1,0,0,1,.67.33l1.38,1.77.51.66L94.15,32a4.61,4.61,0,0,0,.58.59l2.36,2c.18.15.48.37.67.49l2.75,1.79.69.47,1.79,1.3a3.19,3.19,0,0,1,.58.59l.29.41a1.55,1.55,0,0,1,.25.75v.44a2.84,2.84,0,0,1-.13.81l-.06.18a1.68,1.68,0,0,0,0,.8l.17.71a1.79,1.79,0,0,0,.39.71l1.3,1.35.56.61,1.37,1.56a7.25,7.25,0,0,0,.59.58l1.89,1.61a2.45,2.45,0,0,1,.5.64l.16.32a2.74,2.74,0,0,1,.23.79l.29,2.75a2.26,2.26,0,0,1-.09.81l-.64,1.9c-.07.22-.21.56-.31.77l-.33.69a5.22,5.22,0,0,1-.42.71l-.36.49a4.07,4.07,0,0,1-.57.6.68.68,0,0,0-.21.66l.17.59a.47.47,0,0,0,.52.33l1.3-.24a.46.46,0,0,0,.38-.46.51.51,0,0,1,.2-.49,1.05,1.05,0,0,0,.4-.47l.2-.42a.76.76,0,0,1,.59-.4l.37,0a.37.37,0,0,0,.35-.43l-.08-.48a2.64,2.64,0,0,1,0-.82l.32-1.45c0-.22.13-.59.19-.81l.59-2.23.2-.81.25-1c.05-.22.16-.58.24-.79l.14-.38a.75.75,0,0,0-.11-.68,4.6,4.6,0,0,0-.6-.54l-.35-.26a1.2,1.2,0,0,1-.41-.65L113,46.38a1.14,1.14,0,0,1,.17-.75L114.31,44c.13-.19.34-.5.46-.7l1.06-1.71a5.26,5.26,0,0,0,.37-.74l.35-.9c.08-.21.23-.56.33-.76l.5-1c.1-.2.25-.22.33,0a1.35,1.35,0,0,1,0,.74l-.17.65a5.92,5.92,0,0,1-.28.78l-.65,1.45c-.09.21-.25.55-.36.75l-.69,1.36a5.46,5.46,0,0,0-.31.77,5.13,5.13,0,0,0-.21,1l.4,2.55c0,.22.09.22.13,0l.35-2.28c0-.23.08-.22.09,0l.2,3.13c0,.23,0,.6.07.83,0,0,.12,1,.17,1.37s.73,2.14.73,2.14c.08.21.13.2.11,0L117.13,51c0-.23,0-.23.07,0l1,3.55a3.45,3.45,0,0,0,.34.75l.68,1.06a1.64,1.64,0,0,0,.6.52l1.13.51a3.8,3.8,0,0,0,.79.24l.48.08a3.05,3.05,0,0,0,.82,0l1.9-.3c.23,0,.23-.12,0-.18l-1.55-.44a1.2,1.2,0,0,1-.61-.47l-.23-.39a4.81,4.81,0,0,1-.35-.75l-.49-1.4a4.57,4.57,0,0,1-.19-.81s-.3-2.56-.33-2.74.17-2.95.17-2.95c0-.23.06-.6.1-.83l.37-2c0-.22.1-.6.12-.82l.18-1.7a3.38,3.38,0,0,0,0-.82l-.23-1.24a2.76,2.76,0,0,0-.29-.77l-.47-.78a3.34,3.34,0,0,0-.53-.63l-.3-.27c-.17-.15-.46-.39-.65-.53l-.29-.21a2.3,2.3,0,0,0-.74-.33l-.19,0a5.36,5.36,0,0,0-.71-.1.6.6,0,0,1-.44-.41L117,35a4.22,4.22,0,0,0-.37-.74l-.64-1a5.44,5.44,0,0,0-.53-.64Z"/><circle class="cls-1" cx="66.92" cy="49.13" r="21.7"/><path d="M47.62,48.83A19.34,19.34,0,0,1,67,29.49h0A19.34,19.34,0,0,1,86.3,48.83h0A19.34,19.34,0,0,1,67,68.17h0A19.34,19.34,0,0,1,47.62,48.83Zm5.83-13.51a19.05,19.05,0,0,0-5.6,13.51h0a19.05,19.05,0,0,0,5.6,13.51h0A19.05,19.05,0,0,0,67,67.94h0a19.05,19.05,0,0,0,13.51-5.6h0a19,19,0,0,0,5.6-13.51h0a19,19,0,0,0-5.6-13.51h0A19.05,19.05,0,0,0,67,29.72h0a19.05,19.05,0,0,0-13.51,5.6Z"/><path d="M45,48.95A21.88,21.88,0,0,1,66.92,27.07h0A21.88,21.88,0,0,1,88.8,48.95h0A21.88,21.88,0,0,1,66.92,70.82h0A21.88,21.88,0,0,1,45,48.95Zm6.57-15.3a21.57,21.57,0,0,0-6.34,15.3h0a21.58,21.58,0,0,0,6.34,15.3h0a21.58,21.58,0,0,0,15.3,6.34h0a21.58,21.58,0,0,0,15.3-6.34h0a21.58,21.58,0,0,0,6.34-15.3h0a21.57,21.57,0,0,0-6.34-15.3h0a21.57,21.57,0,0,0-15.3-6.34h0a21.57,21.57,0,0,0-15.3,6.34Z"/><path d="M48.5,48.9A18.42,18.42,0,0,1,66.92,30.48h0A18.42,18.42,0,0,1,85.34,48.9h0A18.42,18.42,0,0,1,66.92,67.32h0A18.42,18.42,0,0,1,48.5,48.9ZM54.06,36A18.14,18.14,0,0,0,48.73,48.9h0a18.13,18.13,0,0,0,5.33,12.86h0a18.13,18.13,0,0,0,12.86,5.33h0a18.13,18.13,0,0,0,12.86-5.33h0A18.13,18.13,0,0,0,85.11,48.9h0A18.14,18.14,0,0,0,79.78,36h0a18.13,18.13,0,0,0-12.86-5.33h0A18.13,18.13,0,0,0,54.06,36Z"/><circle cx="66.91" cy="48.91" r="1.08"/><path d="M67,30.57V27.14h-.17v3.45Z"/><path d="M66.86,67.17v3.53H67V67.18Z"/><path d="M83.09,40.39l3-1.62L86,38.62l-3,1.62Z"/><path d="M50.83,57.47l-3.18,1.7.08.15,3.18-1.7Z"/><path d="M76.23,33.11l1.65-2.86-.14-.08L76.08,33Z"/><path d="M57.81,64.77,56,67.91l.14.08L58,64.83Z"/><path d="M75.3,65.11,77,68.28l.14-.08-1.68-3.15Z"/><path d="M58.17,32.74,56.59,29.8l-.15.08,1.58,3Z"/><path d="M51.12,39.8l-3-1.75-.08.14L51,40Z"/><path d="M82.68,58l-.09.14,3.14,1.81.08-.14Z"/><path d="M48.73,48.83H45.11V49h3.63C48.74,48.94,48.73,48.88,48.73,48.83Z"/><path d="M85.1,48.83c0,.06,0,.11,0,.17h3.56v-.17Z"/><polygon points="63.5 65.32 63.7 65.36 67.58 46.5 67.38 46.46 63.5 65.32"/><path d="M66.57,50.47c0,.83.29,1.49.54,1.47s.41-.7.36-1.53v-.15l-.89.05S66.57,50.42,66.57,50.47Z"/><polygon points="66.05 39.16 66.26 36.93 66.72 39.12 66.05 39.16"/><path d="M67.35,39.61a.57.57,0,0,0-.49,0l-.07,0a.65.65,0,0,0,0-.16c0-.3-.23-1.36-.45-1.35s-.37,1.1-.35,1.4a.76.76,0,0,0,0,.17l-.06,0a.56.56,0,0,0-.48,0,1.28,1.28,0,0,0-.6.92A2.84,2.84,0,0,0,65,42.13c.16.43.51.86.88.85a.63.63,0,0,0,.43-.2l.06,1.09h0a.38.38,0,0,0-.17.37.46.46,0,0,0,.1.26c-.16,0-.27.12-.26.2s.12.15.27.17c-.15,0-.24.11-.24.2s.09.13.22.16a1,1,0,0,0,0,.23l.29,5.07.89-.05-.3-5.07a.85.85,0,0,0,0-.22c.12,0,.2-.11.2-.18s-.12-.15-.27-.17c.15,0,.24-.12.24-.2s-.12-.15-.27-.17a.45.45,0,0,0,.06-.27.38.38,0,0,0-.22-.35h0l-.07-1.19a.63.63,0,0,0,.52.22c.38,0,.67-.5.78-.95A2.85,2.85,0,0,0,68,40.46,1.29,1.29,0,0,0,67.35,39.61Zm-1,2.24c-.11-.14-.25-.2-.39-.07a.44.44,0,0,0-.12.42c0,.14.17.13.27.12.06.23-.27.16-.34.13-.6-.23-.77-1.25-.52-1.91a.49.49,0,0,1,.54-.36c.22,0,.36.23.5.43Zm1,.48c-.07,0-.39.15-.36-.09.1,0,.22,0,.25-.15a.44.44,0,0,0-.17-.4c-.19-.13-.36,0-.43.23l-.07-1.25c.13-.25.25-.53.5-.59a.49.49,0,0,1,.58.29C68,41,67.94,42,67.37,42.32Z"/><path class="cls-1" d="M81.11,48.31h-1v-1h1v.11a.64.64,0,0,0,0,.17.1.1,0,0,0,.07.06h2.05l.16,0a.07.07,0,0,0,.05,0s0-.08,0-.17v-.11h.87v1h-.87a.83.83,0,0,0,0-.3s-.1-.05-.24-.05h-2a.11.11,0,0,0-.08,0,.24.24,0,0,0,0,.12v0A1.27,1.27,0,0,1,81.11,48.31Z"/><path class="cls-2" d="M80.06,47.25h1.12v.18a.71.71,0,0,0,0,.14h0l0,0H83.4s0-.07,0-.16h0v-.18h1v1.13h-1v-.07a1.65,1.65,0,0,0,0-.25H81.2a.19.19,0,0,0,0,.08h0v0c0,.06,0,.11,0,.16h0v.06H80.06V47.25Zm.13.13v.86h.87s0-.05,0-.08h0v0a.33.33,0,0,1,0-.15h0a.17.17,0,0,1,.12-.08h2c.14,0,.23,0,.29.08h0a.6.6,0,0,1,0,.27h.75v-.86h-.74v0c0,.1,0,.15,0,.19h0a.14.14,0,0,1-.1.1h0l-.18,0H81.18a.16.16,0,0,1-.11-.1h0a.63.63,0,0,1,0-.19h0v0Z"/><path class="cls-1" d="M81.11,49.58h-1v-1h1v.11a.62.62,0,0,0,0,.17.1.1,0,0,0,.07.06h2.05l.16,0a.08.08,0,0,0,.05-.05,1.7,1.7,0,0,0,0-.17v-.11h.87v1h-.87a.85.85,0,0,0,0-.3s-.1-.05-.24-.05h-2a.11.11,0,0,0-.08,0,.25.25,0,0,0,0,.12v0A1.29,1.29,0,0,1,81.11,49.58Z"/><path class="cls-2" d="M80.06,48.52h1.12v.18a.7.7,0,0,0,0,.14h0l0,0H83.4s0-.07,0-.16h0v-.18h1v1.13h-1v-.07a1.63,1.63,0,0,0,0-.25H81.23l0,0h0a.19.19,0,0,0,0,.08h0v0c0,.06,0,.11,0,.16h0v.06H80.06V48.52Zm.13.14v.86h.87s0-.05,0-.08h0v0a.32.32,0,0,1,0-.15h0a.17.17,0,0,1,.12-.08h2c.14,0,.23,0,.29.08h0a.6.6,0,0,1,0,.27h.75v-.86h-.74v0c0,.09,0,.15,0,.19h0a.14.14,0,0,1-.1.1h0a.6.6,0,0,1-.18,0H81.18a.16.16,0,0,1-.11-.1h0a.61.61,0,0,1,0-.19h0v0Z"/><path class="cls-1" d="M81.11,50.85h-1v-1h1V50a.65.65,0,0,0,0,.17.09.09,0,0,0,.07.06h2.05l.16,0a.07.07,0,0,0,.05,0s0-.08,0-.17v-.11h.87v1h-.87a.85.85,0,0,0,0-.3s-.1-.05-.24-.05h-2a.11.11,0,0,0-.08,0,.25.25,0,0,0,0,.12v0A1.31,1.31,0,0,1,81.11,50.85Z"/><path class="cls-2" d="M80.06,49.78h1.12V50a.7.7,0,0,0,0,.14h0l0,0H83.4s0-.07,0-.16h0v-.18h1v1.13h-1v-.07a1.62,1.62,0,0,0,0-.25H81.2a.21.21,0,0,0,0,.09h0v0c0,.06,0,.11,0,.15h0v.06H80.06V49.78Zm.13.13v.86h.87s0-.05,0-.08h0v0a.33.33,0,0,1,0-.15h0a.17.17,0,0,1,.12-.08h2c.14,0,.23,0,.29.08h0a.6.6,0,0,1,0,.27h.75v-.86h-.74v0c0,.09,0,.15,0,.19h0a.13.13,0,0,1-.1.1h0a.59.59,0,0,1-.18,0H81.18a.16.16,0,0,1-.11-.1h0a.62.62,0,0,1,0-.19h0v0Z"/><path class="cls-1" d="M79.51,42l-.9.42-.42-.9.9-.42,0,.09v0a.54.54,0,0,0,.09.15.09.09,0,0,0,.09,0l.18-.07,1.68-.79.14-.09a.07.07,0,0,0,0-.07,1.53,1.53,0,0,0-.06-.16l0-.1.79-.37.42.9-.79.37a.79.79,0,0,0-.15-.25s-.12,0-.24.05l-1.63.77-.16.09a.1.1,0,0,0,0,.07.28.28,0,0,0,0,.12v0Z"/><path class="cls-2" d="M78.1,41.49l1-.48,0,.06,0,.09v0a.56.56,0,0,0,.07.12h0l.16-.07h0l1.68-.79.12-.07h0l-.06-.15h0l-.08-.16.91-.43.48,1-.9.43,0-.06a1.43,1.43,0,0,0-.12-.22h0l-.14.06h0l-1.63.77-.15.08h0l0,0h0a.21.21,0,0,0,0,.08h0v0l.06.14h0l-.06,0,.06,0,0,.06-1,.48-.48-1Zm.17.07.37.78.79-.37,0-.07h0v0a.32.32,0,0,1,0-.15h0a.17.17,0,0,1,.07-.12h0l.17-.1h0l1.63-.77c.13-.06.21-.09.3,0h0a.59.59,0,0,1,.15.22h0l.68-.32L82,39.81l-.67.32,0,0,.07.18h0a.14.14,0,0,1,0,.13h0a.53.53,0,0,1-.15.1h0l-1.68.79a.83.83,0,0,1-.19.07h0a.16.16,0,0,1-.14,0h0a.63.63,0,0,1-.1-.16h0v0l-.78.37Z"/><path class="cls-1" d="M80.05,43.15l-.9.42-.42-.9.9-.42,0,.09v0a.58.58,0,0,0,.08.15.1.1,0,0,0,.09,0l.18-.07,1.68-.79.14-.09a.07.07,0,0,0,0-.07l-.06-.16,0-.1.79-.37.42.9-.79.37a.81.81,0,0,0-.15-.26s-.11,0-.24.05l-1.63.77L80,42.8a.11.11,0,0,0,0,.08A.32.32,0,0,0,80,43v0Z"/><path class="cls-2" d="M78.64,42.64l1-.48,0,.06,0,.09v0a.6.6,0,0,0,.07.13h0l.17-.07h0l1.68-.79.12-.07h0l-.06-.15h0l-.08-.16.9-.43.48,1-.9.43,0-.06A1.5,1.5,0,0,0,82,42h0l-.14.05h0l-1.63.77-.15.08h0s0,0,0,0h0A.23.23,0,0,0,80,43h0v0l.06.14h0l-.06,0,.06,0,0,.06-1,.47-.48-1Zm.17.07.37.78.79-.37,0-.07h0v0a.31.31,0,0,1,0-.15h0a.16.16,0,0,1,.07-.12h0l.17-.1h0l1.63-.77c.13-.06.21-.09.3-.05h0a.58.58,0,0,1,.15.23h0l.67-.32L82.53,41l-.67.32,0,0a1.56,1.56,0,0,1,.07.18h0a.14.14,0,0,1,0,.13h0a.66.66,0,0,1-.16.1h0l-1.68.79-.19.08h0a.16.16,0,0,1-.14,0h0a.66.66,0,0,1-.1-.16h0v0l-.78.37Z"/><path class="cls-1" d="M74.76,36.62l-.45.88-.89-.45.45-.88.09,0h0l.16.06a.1.1,0,0,0,.09,0l.1-.16.85-1.66a.61.61,0,0,0,.06-.15.07.07,0,0,0,0-.07l-.15-.09-.1-.05.4-.77.89.45-.4.78a.81.81,0,0,0-.28-.11s-.1.07-.16.19l-.82,1.61a1.09,1.09,0,0,0-.07.17.1.1,0,0,0,0,.09.26.26,0,0,0,.1.07h0Z"/><path class="cls-2" d="M73.34,37.08l.51-1,.06,0,.09,0h0l.13.05h0a.79.79,0,0,0,.09-.15h0l.85-1.66a.5.5,0,0,0,.05-.13h0s0,0,0,0h0L75,34.18h0l-.16-.08.46-.89,1,.51-.45.89-.06,0-.23-.1h0l0,0h0a.7.7,0,0,0-.08.13h0l-.82,1.61a1,1,0,0,0-.07.16h0s0,0,0,0h0l.07,0h0l.14.08h0l0,.05,0-.05.05,0-.51,1-1-.52Zm.18-.05.77.39.4-.77-.07,0h0a.31.31,0,0,1-.12-.09h0a.17.17,0,0,1,0-.14h0a1,1,0,0,1,.08-.18h0l.82-1.61c.07-.13.11-.2.21-.22h0a.58.58,0,0,1,.25.09h0l.34-.66-.76-.39L75,34l0,0,.16.1h0a.14.14,0,0,1,0,.13h0a.54.54,0,0,1-.06.17h0l-.85,1.66a1.08,1.08,0,0,1-.11.18h0a.17.17,0,0,1-.14.05h0a.57.57,0,0,1-.18-.07h0l-.4.77Z"/><path class="cls-1" d="M65.73,32.2c-.11,0-.17,0-.17.08a.18.18,0,0,0,0,.06l0,.07,0,.09.19.56.17-.54,0-.12,0-.07v-.06q0-.08-.18-.08v-.87h.7v.87h-.14a.39.39,0,0,0-.19.24l-.31.79.41,1,.06.13a.29.29,0,0,0,.07.12.32.32,0,0,0,.15,0h0v1h-.78v-1l.19,0s0,0,0-.08a.3.3,0,0,0,0-.09l0-.08-.27-.74-.24.73,0,.08a.45.45,0,0,0,0,.09s0,.07,0,.08l.18,0v1H65v-1H65a.29.29,0,0,0,.14,0,.24.24,0,0,0,.08-.11l0-.1.4-1-.34-.89a.29.29,0,0,0,0-.09l0-.09a.36.36,0,0,0-.21,0v-.87h.7Z"/><path class="cls-2" d="M65.82,35.61V34.5H66a.06.06,0,0,0,0,0h0a.24.24,0,0,0,0-.06h0l0-.08-.21-.55-.17.55,0,.08a.27.27,0,0,0,0,.07h0s0,0,0,0h0l.16,0h.06v1.12h-.92V34.49h.22a.23.23,0,0,0,.05-.08h0l0-.1.39-1-.34-.88,0-.07h0l0-.07h0a.51.51,0,0,0-.17,0H65v-1h.83v1h-.17a.15.15,0,0,0,0,0h0l0,.07,0,.09.12.36.11-.34,0-.11,0-.08v0h-.17v-1h.84v1h-.18s-.1.08-.15.21h0l-.3.77.4,1,.06.13a.25.25,0,0,0,0,.09h.21v1.12Zm.13-.12h.65v-.87a.31.31,0,0,1-.15,0h0a.34.34,0,0,1-.1-.15h0l-.06-.14-.41-1.06.32-.81a.45.45,0,0,1,.24-.28h.09v-.75H66v.75c.09,0,.17,0,.18.14h0a.51.51,0,0,1,0,.07h0l0,.08,0,.11-.23.73-.25-.76,0-.09,0-.07a.22.22,0,0,1,0-.07h0c0-.09.08-.13.17-.14h0v-.75H65.1v.75a.32.32,0,0,1,.21.08h0l0,.08h0a.34.34,0,0,1,0,.09h0l.35.92-.41,1,0,.1a.33.33,0,0,1-.1.14h0a.35.35,0,0,1-.16,0h0v.87h.65v-.87l-.15,0h0a.14.14,0,0,1-.08-.14h0a.48.48,0,0,1,0-.1h0l0-.08.3-.92.34.92,0,.08a.42.42,0,0,1,0,.1h0a.14.14,0,0,1-.08.14h0l-.15,0h0v.87Zm-.22-3.29v0Z"/><path class="cls-1" d="M67.83,34.56v1h-1v-1h.11l.17,0a.09.09,0,0,0,.06-.07.78.78,0,0,0,0-.19V32.42a.59.59,0,0,0,0-.16.07.07,0,0,0,0,0h-.29v-.87h1v.87a.87.87,0,0,0-.3,0s-.05.1-.05.24v1.81a1.18,1.18,0,0,0,0,.19.1.1,0,0,0,0,.07l.12,0h.17Z"/><path class="cls-2" d="M66.76,35.61V34.49h.32s0,0,0,0h0a.86.86,0,0,0,0-.18h0V32.42a.47.47,0,0,0,0-.15h0s0,0,0,0h-.34v-1h1.13v1h-.32a.09.09,0,0,0,0,0h0a.82.82,0,0,0,0,.15h0v1.81a1.22,1.22,0,0,0,0,.17h0s0,0,0,0h.26v0h.06v1.11Zm.13-.13h.86v-.87h-.11a.33.33,0,0,1-.15,0h0a.16.16,0,0,1-.08-.12h0a.92.92,0,0,1,0-.2h0V32.46c0-.14,0-.23.08-.29h0a.58.58,0,0,1,.27,0h0v-.75H66.9v.74h.24a.14.14,0,0,1,.1.09h0a.75.75,0,0,1,0,.18h0v1.86a1.2,1.2,0,0,1,0,.21h0a.17.17,0,0,1-.1.11h0a.68.68,0,0,1-.19,0h0v.87Z"/><path class="cls-1" d="M69.09,34.56v1h-1v-1h.11l.17,0a.09.09,0,0,0,.06-.07.93.93,0,0,0,0-.19V32.42a.55.55,0,0,0,0-.16.07.07,0,0,0,0,0H68.1v-.87h1v.87a.88.88,0,0,0-.3,0s-.05.1-.05.24v1.81a.92.92,0,0,0,0,.19.09.09,0,0,0,0,.07l.12,0h.17Z"/><path class="cls-2" d="M68,35.61V34.49h.32l0,0h0a.89.89,0,0,0,0-.18h0V32.42a.49.49,0,0,0,0-.15h0s0,0,0,0H68v-1h1.13v1h-.32a.09.09,0,0,0,0,0h0a.76.76,0,0,0,0,.15h0v1.81a1,1,0,0,0,0,.17h0s0,0,0,0h.26v0h.06v1.11Zm.14-.13H69v-.87h-.1a.34.34,0,0,1-.15,0h0a.17.17,0,0,1-.08-.12h0a.93.93,0,0,1,0-.2h0V32.46c0-.14,0-.23.08-.29h0a.58.58,0,0,1,.27,0h0v-.75h-.86v.74h.24a.14.14,0,0,1,.1.09h0a.64.64,0,0,1,0,.18h0v1.86a1.06,1.06,0,0,1,0,.21h0a.16.16,0,0,1-.1.11h0a.68.68,0,0,1-.19,0h0v.87Z"/><path class="cls-1" d="M79.56,55.71l-.83-.54.54-.83.83.54-.05.08v0a.58.58,0,0,0-.08.15.09.09,0,0,0,0,.09l.15.11,1.56,1,.15.08a.08.08,0,0,0,.07,0l.1-.14.06-.1.73.48-.54.83L81.54,57a.76.76,0,0,0,.14-.26s-.06-.1-.17-.18l-1.51-1-.16-.09a.11.11,0,0,0-.09,0,.31.31,0,0,0-.08.09v0Z"/><path class="cls-2" d="M79.26,54.25l.94.61,0,.06-.05.08h0a.57.57,0,0,0-.07.13h0s0,0,0,0h0l.14.11h0l1.56,1,.13.07h0l.1-.13h0l.1-.15.84.55-.62.95L81.45,57l0-.06a1.54,1.54,0,0,0,.12-.21h0l0,0h0l-.12-.09h0l-1.51-1-.15-.09h0a.19.19,0,0,0-.06.07h0v0l-.09.13h0l0,0,0,0,0,0-.93-.61.62-.95Zm0,.18-.47.72.73.48,0-.07h0v0a.3.3,0,0,1,.1-.11h0a.17.17,0,0,1,.14,0h0l.17.1h0l1.51,1c.12.08.19.13.2.23h0a.61.61,0,0,1-.12.25h0l.62.41.47-.72-.62-.41,0,0-.12.15h0a.14.14,0,0,1-.13,0h0a.67.67,0,0,1-.16-.08h0l-1.56-1-.17-.13h0a.16.16,0,0,1,0-.14h0a.6.6,0,0,1,.09-.17h0l0,0-.73-.47Z"/><path class="cls-1" d="M80.95,57.91l.73.48-.43.66-.73-.48.07-.13c0-.08,0-.16-.13-.26l-2.38-2,.29-.44,2.73,1.47a.39.39,0,0,0,.21.06s.09-.06.16-.15l.73.48-.44.67L81,57.79l0,0a.45.45,0,0,0,.08-.16s0-.05-.06-.08h0l-.07,0-.08,0-2.1-1.06,0,0,1.77,1.52.08.06.05,0,0,0s.07,0,.08,0a.47.47,0,0,0,.11-.14Z"/><path class="cls-2" d="M78.33,55.66l2.78,1.5a.34.34,0,0,0,.17.05h0s.06,0,.12-.12h0l0-.05.83.54-.51.78-.84-.55,0-.06,0,0a.61.61,0,0,0,.07-.12h0l0,0h0l-.07,0-.07,0-1.73-.87,1.46,1.25.09.07,0,0,0,0h0a.59.59,0,0,0,.08-.11h0l0,0,.05,0,0,.06,0-.06-.05,0,0-.06.84.55-.51.78-.83-.55,0-.05.06-.12h0s0-.1-.11-.19h0L78,56.2l.35-.54Zm3,1.68a.43.43,0,0,1-.25-.06h0l-2.68-1.44-.22.33,2.34,2a.32.32,0,0,1,.15.34h0l0,.07h0l.63.41.36-.55L81,58a.44.44,0,0,1-.11.13h0a.14.14,0,0,1-.16,0h0l0,0-.05,0L80.51,58,78.7,56.41l0,0,.05-.08,2.15,1.09.07,0,.07,0h0a.15.15,0,0,1,.09.14h0a.45.45,0,0,1-.08.16h0l.62.41.36-.55-.63-.41a.32.32,0,0,1-.16.13Z"/><path class="cls-1" d="M74.64,63.75l.42.77-.7.38-.42-.76.12-.08c.06-.06.06-.15,0-.29l-1.15-2.9.46-.25,1.72,2.59a.38.38,0,0,0,.16.15.38.38,0,0,0,.21-.06l.42.77-.7.38-.42-.77h0a.48.48,0,0,0,.15-.1s0-.06,0-.1v0l0-.07,0-.07-1.35-1.92,0,0,.84,2.18,0,.09,0,.07,0,0s0,.06.07.05a.51.51,0,0,0,.16-.07Z"/><path class="cls-2" d="M73.4,60.53l1.75,2.63a.4.4,0,0,0,.12.13h0a.39.39,0,0,0,.17-.05h0l.06,0,.48.87-.82.45-.48-.88.06,0h0l.12-.08h0v0h0l0-.07,0-.07-1.11-1.58.69,1.79,0,.1,0,.06,0,0v0h0l.12-.06h0l0,0,0,.06-.06,0,.06,0,0-.06.06,0,.48.88-.82.45-.48-.87.05,0L74,64h0s0-.09,0-.22h0l-1.17-2.95.56-.31Zm1.83,2.89a.44.44,0,0,1-.19-.18h0l-1.68-2.54L73,60.9l1.13,2.84a.32.32,0,0,1,0,.37h0l-.07,0h0l.36.66.58-.32-.35-.65a.5.5,0,0,1-.16.06h0a.14.14,0,0,1-.13-.09h0l0,0,0-.07,0-.1-.86-2.23.05,0,.08,0,1.38,2,0,.07,0,.07v0a.16.16,0,0,1,0,.17h0a.43.43,0,0,1-.14.11h0l.36.65.58-.32-.36-.66a.34.34,0,0,1-.21,0Z"/><path class="cls-1" d="M67.81,65.61v.87H67v-.87h.14c.08,0,.13-.1.15-.25l.38-3.09h.52l.27,3.09a.36.36,0,0,0,.07.21.41.41,0,0,0,.21.05v.87H68v-.87h0a.49.49,0,0,0,.18,0s0,0,0-.1v-.18L67.93,63h0l-.31,2.32v.22s0,.07,0,.08a.45.45,0,0,0,.17,0Z"/><path class="cls-2" d="M68.26,62.19l.27,3.15a.37.37,0,0,0,0,.17h0a.42.42,0,0,0,.17,0h.07v1h-.93v-1h.24s0,0,0,0h0v-.17l-.22-1.92-.25,1.9v.22a.07.07,0,0,0,0,0h.17v.06h0v-.06h.07v1h-.93v-1h.19s.08-.06.1-.2h0l.38-3.15Zm.22,3.41a.43.43,0,0,1-.08-.25h0l-.26-3h-.4l-.37,3c0,.15-.07.27-.21.3h-.08v.75h.66v-.75a.39.39,0,0,1-.16,0h0a.14.14,0,0,1-.08-.14h0v-.23l.31-2.37H68l.27,2.39v.19a.15.15,0,0,1-.07.15h0a.38.38,0,0,1-.17,0h0v.75h.66v-.75a.35.35,0,0,1-.2-.07Z"/><path class="cls-1" d="M65.88,63.25v-1h1v1h-.11l-.17,0a.1.1,0,0,0-.06.07,1,1,0,0,0,0,.19v1.86a.54.54,0,0,0,0,.16.07.07,0,0,0,0,.05h.29v.87h-1v-.87a.85.85,0,0,0,.3,0s.05-.1.05-.24V63.54a.82.82,0,0,0,0-.18.1.1,0,0,0,0-.08.26.26,0,0,0-.12,0h-.17Z"/><path class="cls-2" d="M66.94,62.19v1.12h-.32l0,0h0a.91.91,0,0,0,0,.18h0v1.86a.5.5,0,0,0,0,.14h0s0,0,0,0h.34v1H65.81v-1h.32s0,0,0,0h0a.77.77,0,0,0,0-.15h0V63.54a1,1,0,0,0,0-.17h0s0,0,0,0h-.26v0h-.06V62.19Zm-.13.13h-.86v.87h.1a.31.31,0,0,1,.15,0h0a.16.16,0,0,1,.08.12h0a1,1,0,0,1,0,.2h0v1.81c0,.14,0,.23-.08.29h0a.59.59,0,0,1-.27,0h0v.75h.86v-.75h-.24a.15.15,0,0,1-.1-.1h0a.63.63,0,0,1,0-.18h0V63.53a1,1,0,0,1,0-.21h0a.16.16,0,0,1,.1-.11h0a.59.59,0,0,1,.19,0h0v-.87Z"/><path class="cls-1" d="M59.67,64.05l-.45.75-.68-.41.45-.75.13.06c.08,0,.16,0,.25-.14l1.92-2.45.44.27-1.37,2.78a.38.38,0,0,0-.05.22s.07.09.16.16l-.45.75-.68-.41.45-.75h0a.45.45,0,0,0,.16.08s.05,0,.08-.07h0l0-.07,0-.08,1-2.13,0,0-1.46,1.82-.06.09,0,.06,0,0a.08.08,0,0,0,0,.09.51.51,0,0,0,.14.1Z"/><path class="cls-2" d="M61.83,61.36l-1.4,2.84a.4.4,0,0,0,0,.17h0a.4.4,0,0,0,.13.12h0l.05,0-.52.85-.79-.48.52-.85.06,0h0l.13.07h0l0,0h0L60,64l0-.07.81-1.76-1.2,1.5-.06.09,0,.05,0,0v0h0l.11.08h0l0,0,0,.05-.06,0,.06,0,0-.05.06,0-.52.86-.79-.48.51-.85.05,0,.12.06h0s.1,0,.19-.12h0l2-2.5.55.33Zm-1.57,3a.41.41,0,0,1,.06-.26h0l1.34-2.73-.34-.21-1.89,2.41c-.1.12-.2.19-.33.15h0l-.08,0h0l-.39.64.56.34.39-.64a.38.38,0,0,1-.13-.1h0a.14.14,0,0,1,0-.16h0l0,0,0-.05.06-.09,1.5-1.87,0,0,.08,0-1,2.19,0,.08,0,.08h0s-.07.1-.14.1h0a.4.4,0,0,1-.16-.07h0l-.38.64.57.34.39-.64a.33.33,0,0,1-.13-.16Z"/><path class="cls-1" d="M59.24,61l.51-.85.85.52-.52.85L60,61.5h0a.49.49,0,0,0-.15-.07.09.09,0,0,0-.09,0l-.11.16-1,1.59a.62.62,0,0,0-.07.15.07.07,0,0,0,0,.07l.14.1.1.06-.45.75-.85-.52.45-.75a.82.82,0,0,0,.27.13s.1-.06.17-.18l.93-1.55a.94.94,0,0,0,.09-.17.1.1,0,0,0,0-.09.29.29,0,0,0-.09-.08h0Z"/><path class="cls-2" d="M60.7,60.68l-.58,1-.06,0-.08,0h0l-.13-.06h0l-.1.15h0l-1,1.59a.58.58,0,0,0-.06.13h0l.13.09h0l.15.09-.52.86-1-.58L58,63l.06,0,.22.12h0l0,0h0L58.4,63h0l.93-1.54a1,1,0,0,0,.08-.15h0s0,0,0,0h0l-.07-.05h0l-.13-.09h0l0,0,0,0,0,0,.58-1,1,.58Zm-.18,0-.74-.44-.45.74.07,0h0a.32.32,0,0,1,.11.1h0a.17.17,0,0,1,0,.14h0a1.18,1.18,0,0,1-.09.17h0L58.51,63c-.08.12-.12.19-.22.21h0a.6.6,0,0,1-.25-.11h0l-.38.64.74.44.39-.63,0,0-.15-.11h0a.14.14,0,0,1,0-.13h0a.74.74,0,0,1,.08-.17h0l1-1.59a1.23,1.23,0,0,1,.12-.17h0a.17.17,0,0,1,.14,0h0a.72.72,0,0,1,.18.08h0l.45-.74Z"/><path class="cls-1" d="M58.15,60.38l.51-.85.85.51-.51.85-.08,0h0l-.15-.07a.1.1,0,0,0-.09,0,1,1,0,0,0-.11.16l-1,1.59a.54.54,0,0,0-.07.15.07.07,0,0,0,0,.07l.14.1.1.06-.45.75-.85-.52.45-.74a.84.84,0,0,0,.27.13s.1-.06.17-.18l.93-1.55a1.15,1.15,0,0,0,.09-.16.12.12,0,0,0,0-.09.27.27,0,0,0-.09-.08h0Z"/><path class="cls-2" d="M59.61,60,59,61l-.06,0-.08,0h0l-.13-.06h0a.89.89,0,0,0-.1.15h0l-1,1.59a.51.51,0,0,0-.06.13h0l.13.09h0l.15.09-.52.85-1-.58.52-.86.06,0,.22.12h0l0,0h0a.81.81,0,0,0,.08-.12h0l.94-1.55a1,1,0,0,0,.08-.15h0s0,0,0,0h0l-.07-.06h0l-.13-.09h0l0,0,0,0,0,0,.58-1,1,.58Zm-.18,0-.74-.45-.45.74.07,0h0a.3.3,0,0,1,.12.1h0a.16.16,0,0,1,0,.14h0a.94.94,0,0,1-.09.18h0l-.94,1.54c-.08.12-.12.19-.22.21h0a.6.6,0,0,1-.25-.11h0l-.39.64.73.45.39-.64,0,0-.15-.11h0a.13.13,0,0,1,0-.13h0a.64.64,0,0,1,.08-.17h0l1-1.59a1.17,1.17,0,0,1,.12-.17h0a.16.16,0,0,1,.14,0h0a.56.56,0,0,1,.18.08h0l0,0,.45-.74Z"/><path class="cls-1" d="M53.06,58.22l-.75.44-.4-.69.75-.44.08.12c.06.06.15.06.29,0l2.86-1.23.26.45-2.54,1.79a.22.22,0,0,0-.08.38l-.76.44-.4-.69.75-.44v0a.57.57,0,0,0,.11.15s.06,0,.1,0h0l.07,0,.07,0L55.4,57l0,0-2.16.9-.09,0-.07,0,0,0S53,58,53,58a.54.54,0,0,0,.07.16Z"/><path class="cls-2" d="M56.25,56.89l-2.59,1.82a.37.37,0,0,0-.13.13h0a.37.37,0,0,0,.06.16h0l0,.06-.86.5-.47-.8.87-.5,0,.06v0a.65.65,0,0,0,.08.12h0l0,0h0l.07,0,.07,0L55,57.19l-1.77.74-.1,0-.06,0,0,0,0,0h0a.64.64,0,0,0,.06.12h0l0,0-.06,0,0-.06,0,.06.06,0,0,.06-.87.5-.47-.8.86-.5,0,.05.08.11h0s.09,0,.22,0h0l2.92-1.25.32.56ZM53.41,58.8a.42.42,0,0,1,.17-.2h0l2.49-1.75-.2-.34-2.81,1.2a.31.31,0,0,1-.37,0h0l0-.07h0L52,58l.33.57.64-.37a.44.44,0,0,1-.06-.15h0A.14.14,0,0,1,53,57.9h0l0,0,.07,0,.1,0,2.21-.92,0,.05,0,.08-1.93,1.43-.07,0-.07,0h0a.16.16,0,0,1-.17,0h0a.43.43,0,0,1-.11-.14h0l-.65.37.33.57.65-.38a.35.35,0,0,1,0-.2Z"/><path class="cls-1" d="M54.13,55.36l.86-.5.5.86-.86.5,0-.08v0a.64.64,0,0,0-.1-.14.1.1,0,0,0-.09,0l-.17.09L52.61,57a.49.49,0,0,0-.13.1.07.07,0,0,0,0,.07l.08.15.05.1-.75.44-.5-.86.75-.44a.84.84,0,0,0,.17.24s.12,0,.23-.08l1.56-.91.15-.1a.1.1,0,0,0,0-.08.26.26,0,0,0,0-.11v0Z"/><path class="cls-2" d="M55.58,55.75l-1,.56,0-.06,0-.08h0L54.44,56h0l-.16.08h0L52.64,57l-.12.08h0l.07.14h0l.09.16-.86.5-.57-1,.87-.5,0,.06a1.55,1.55,0,0,0,.14.21h0l.14-.06h0L54,55.75l.14-.1h0s0,0,0,0h0a.23.23,0,0,0,0-.08h0v0l-.07-.14h0l.06,0-.06,0,0-.05,1-.56.57,1Zm-.18-.05L55,55l-.75.44,0,.07h0v0a.33.33,0,0,1,.05.14h0a.16.16,0,0,1-.06.13h0l-.16.11h0l-1.56.91c-.13.07-.2.11-.29.07h0a.53.53,0,0,1-.17-.21h0l-.64.37.43.74.64-.37,0,0-.08-.17h0a.14.14,0,0,1,0-.13h0a.58.58,0,0,1,.15-.11h0L54.19,56l.19-.09h0a.16.16,0,0,1,.14,0h0a.6.6,0,0,1,.12.16h0l0,0,.75-.44Z"/><path class="cls-1" d="M53.5,54.26l.86-.5.5.86-.86.5,0-.08v0a.6.6,0,0,0-.1-.14.09.09,0,0,0-.09,0l-.17.09L52,55.89l-.13.1a.07.07,0,0,0,0,.07,1.1,1.1,0,0,0,.08.15l.06.1-.76.44-.5-.86.75-.44a.82.82,0,0,0,.17.24s.12,0,.24-.08l1.56-.91.15-.1a.09.09,0,0,0,0-.08.23.23,0,0,0,0-.11v0Z"/><path class="cls-2" d="M54.95,54.65l-1,.56,0-.06,0-.08h0a.55.55,0,0,0-.08-.12h0l-.16.08h0L52,56l-.12.08h0l.07.14h0l.09.16-.86.5-.57-1,.86-.5,0,.06a1.62,1.62,0,0,0,.14.21h0l.13-.06h0l1.56-.91.14-.1h0s0,0,0,0h0a.26.26,0,0,0,0-.08h0v0l-.07-.14h0l.06,0-.06,0,0-.06,1-.56.57,1Zm-.18-.05-.43-.74-.75.44,0,.07h0v0a.3.3,0,0,1,.05.15h0a.17.17,0,0,1-.06.13h0l-.16.11h0l-1.56.91c-.12.07-.2.11-.29.08h0a.61.61,0,0,1-.17-.21h0l-.64.37.43.75.64-.38,0,0-.08-.17h0a.15.15,0,0,1,0-.13h0a.72.72,0,0,1,.14-.11h0l1.61-.93a.83.83,0,0,1,.19-.09h0a.16.16,0,0,1,.15,0h0A.63.63,0,0,1,54,55h0v0l.75-.43Z"/><path class="cls-1" d="M52.86,53.17l.86-.5.5.86-.86.5,0-.08v0a.52.52,0,0,0-.1-.14.1.1,0,0,0-.09,0l-.17.09-1.61.93a.51.51,0,0,0-.13.1.07.07,0,0,0,0,.07l.08.15.06.1-.75.44-.5-.86.75-.44a.81.81,0,0,0,.17.24s.12,0,.24-.07l1.56-.91.15-.1a.09.09,0,0,0,0-.08.23.23,0,0,0,0-.11v0Z"/><path class="cls-2" d="M54.31,53.55l-1,.57,0-.06,0-.08h0a.63.63,0,0,0-.08-.12h0l-.16.08h0l-1.61.93-.12.08h0l.07.14h0l.09.16-.87.5-.57-1,.87-.5,0,.06a1.65,1.65,0,0,0,.14.21h0l.13-.07h0l1.56-.91.14-.1h0l0,0h0a.21.21,0,0,0,0-.08h0v0l-.07-.14h0l.06,0-.06,0,0-.05,1-.56.57,1Zm-.18-.05-.43-.75-.75.44,0,.07h0v0a.31.31,0,0,1,.05.15h0a.16.16,0,0,1-.06.13h0l-.16.11h0l-1.56.91c-.13.07-.2.11-.3.08h0a.63.63,0,0,1-.17-.21h0l-.64.37.43.74.64-.37,0,0a1.13,1.13,0,0,1-.08-.17h0a.14.14,0,0,1,0-.13h0a.65.65,0,0,1,.15-.11h0l1.61-.93.19-.09h0a.16.16,0,0,1,.14,0h0a.6.6,0,0,1,.11.15h0v0l.75-.43Z"/><path class="cls-1" d="M52.46,49.31h1v1h-1V50.2a.66.66,0,0,0,0-.17.1.1,0,0,0-.07-.06H50.33l-.16,0a.07.07,0,0,0-.05,0s0,.08,0,.17v.11h-.87v-1h.87a.84.84,0,0,0,0,.3s.1.05.24.05h2a.11.11,0,0,0,.08,0,.3.3,0,0,0,0-.12v0C52.45,49.41,52.46,49.36,52.46,49.31Z"/><path class="cls-2" d="M53.52,50.38H52.4V50.2a.8.8,0,0,0,0-.14h0l0,0H50.17s0,.07,0,.16h0v.18h-1V49.25h1v.07a1.64,1.64,0,0,0,0,.25h2.17l0,0h0a.2.2,0,0,0,0-.08h0v0c0-.06,0-.11,0-.16h0v-.06h1.12v1.13Zm-.13-.14v-.86h-.87s0,.05,0,.08h0v0a.28.28,0,0,1,0,.15h0a.16.16,0,0,1-.12.08h-2c-.14,0-.23,0-.29-.08h0a.6.6,0,0,1,0-.27h-.75v.86H50v0A1.32,1.32,0,0,1,50,50h0a.14.14,0,0,1,.09-.1h0a.6.6,0,0,1,.18,0h2.07a.17.17,0,0,1,.11.1h0a.6.6,0,0,1,0,.19h0v0Z"/><path class="cls-1" d="M50.1,48.38c0,.11,0,.16.08.16h.05l.07,0,.09,0L51,48.3l-.54-.17-.12,0-.07,0h-.05c-.05,0-.08.06-.08.18h-.87v-.7h.87a.84.84,0,0,0,0,.14.41.41,0,0,0,.25.19l.79.31,1-.41.14-.06a.29.29,0,0,0,.12-.08.31.31,0,0,0,0-.15v0h1v.78h-1a.74.74,0,0,0,0-.19s0,0-.08,0l-.09,0-.08,0-.74.27.73.24.08,0h.09a.07.07,0,0,0,.08,0,.75.75,0,0,0,0-.19h1v.79h-1v0a.29.29,0,0,0,0-.14.27.27,0,0,0-.11-.08l-.1,0-1-.4-.9.34-.08,0-.08,0a.4.4,0,0,0-.05.21h-.87v-.7Z"/><path class="cls-2" d="M53.52,48.29H52.4v-.06a1.09,1.09,0,0,0,0-.16H52.3l-.08,0-.55.2.55.18.08,0h.09a.77.77,0,0,0,0-.17h0V48.3h1.12v.92H52.4v-.12a.28.28,0,0,0,0-.11h0L52.3,49h0l-.1,0-1-.39-.88.34-.07,0h0l-.07,0h0a.39.39,0,0,0,0,.17h0v.06h-1v-.83h1v.07a.21.21,0,0,0,0,.09h0l.07,0,.09,0,.37-.12-.34-.11-.11,0-.07,0h0a.26.26,0,0,0,0,.1h0v.07h-1v-.84h1v.07a.55.55,0,0,0,0,.12h0s.08.1.21.15h0l.77.3,1-.4.13-.06.09-.05h0a.34.34,0,0,0,0-.11h0v-.1h1.12v.92Zm-.13-.13v-.65h-.87a.31.31,0,0,1,0,.15h0a.34.34,0,0,1-.15.1h0l-.13.06-1.06.42-.81-.32a.46.46,0,0,1-.28-.24h0a.31.31,0,0,1,0-.09h-.75v.57H50c0-.09,0-.17.14-.18h.07l.08,0,.11,0,.73.24-.76.25-.09,0-.08,0-.07,0h0c-.09,0-.13-.08-.14-.17h-.75V49H50a.32.32,0,0,1,.08-.21h0l.08,0h0l.09,0h0l.92-.35,1,.41.1,0a.31.31,0,0,1,.14.1h0a.34.34,0,0,1,0,.16h.87v-.65h-.87a.5.5,0,0,1,0,.15h0a.13.13,0,0,1-.13.08h0l-.11,0h0l-.08,0-.92-.3.92-.34.08,0,.1,0h0a.14.14,0,0,1,.14.08h0a.66.66,0,0,1,0,.15h.87Zm-3.29.23h0Z"/><path class="cls-1" d="M58.2,34.43c-.1.05-.13.1-.11.15l0,0,.05.05.07.07.43.41-.1-.56v-.12l0-.07,0-.05s-.09,0-.19,0l-.4-.77.62-.33L59,34l-.12.08a.41.41,0,0,0-.06.31l.09.84.85.73.11.09a.28.28,0,0,0,.12.07.32.32,0,0,0,.14,0l0,0,.46.88-.7.36-.46-.88.16-.11a.09.09,0,0,0,0-.09l-.06-.07-.06-.06-.58-.52.13.76v.09a.29.29,0,0,0,0,.08s0,.05.07,0l.18-.07.46.88-.7.37-.46-.88,0,0a.3.3,0,0,0,.12-.09.26.26,0,0,0,0-.13v-.12l-.11-1.08-.72-.63-.07-.06-.08-.05a.37.37,0,0,0-.21.05l-.4-.77.62-.33Z"/><path class="cls-2" d="M59.86,37.42l-.52-1,.06,0,.13-.09h0v0h0l0-.05h0l-.06-.05-.44-.4.1.57v.08l0,.07h0l.15-.06h0l.06,0,.52,1-.82.43-.52-1,.06,0,0,0,.09-.06h0a.18.18,0,0,0,0-.09h0v-.11l-.11-1.05-.71-.62-.06,0h0l-.06,0h0a.43.43,0,0,0-.16.05h0l-.06,0L57.08,34l.74-.39.44.83,0,.06-.06,0-.07.05h0l0,0h0l.05.05.07.07.28.27-.06-.35v-.12l0-.07v0h0l-.1,0h0l-.06,0-.46-.89.74-.39.46.89-.06,0-.1.06h0a.35.35,0,0,0,0,.25h0l.09.82.83.72.11.09a.23.23,0,0,0,.09.06h0l.1,0h0l.09,0,.52,1-.82.42Zm.06-.17.57-.3-.4-.77a.31.31,0,0,1-.15,0h0a.31.31,0,0,1-.16-.08h0L59.67,36l-.86-.75-.1-.87a.45.45,0,0,1,.08-.37h0l.07,0h0l-.34-.66-.5.26.35.66c.09,0,.17,0,.22,0h0a.34.34,0,0,1,0,.07h0l0,.08,0,.12.13.76-.58-.55-.07-.07-.05-.05a.18.18,0,0,1,0-.06h0c0-.08,0-.15.08-.2h0l-.35-.66-.5.26.35.66a.33.33,0,0,1,.22,0h0l.08.05h0l.08.07h0l.74.65.11,1.1v.12a.34.34,0,0,1,0,.17h0a.36.36,0,0,1-.13.11h0l.4.77.58-.3-.4-.77-.14,0h0a.14.14,0,0,1-.13-.08h0a.4.4,0,0,1,0-.1h0v-.09l-.16-1,.73.66.06.06.07.08h0a.14.14,0,0,1,0,.16h0l-.12.09h0l.4.77ZM58.2,34.43l0-.06,0,.06Z"/><path class="cls-1" d="M61.15,35.55l.46.88-.88.46L60.26,36l.09,0h0l.14-.09a.1.1,0,0,0,0-.09,1.25,1.25,0,0,0-.08-.17L59.59,34a.58.58,0,0,0-.09-.14.06.06,0,0,0-.07,0l-.16.07-.1.05-.4-.77.88-.46.4.77a.86.86,0,0,0-.25.16s0,.12.06.24l.84,1.6a1.11,1.11,0,0,0,.1.16.11.11,0,0,0,.08,0l.11,0h0Z"/><path class="cls-2" d="M60.7,37l-.52-1,.06,0,.09,0h0l.12-.08h0a0,0,0,0,0,0,0h0a.71.71,0,0,0-.07-.16h0L59.53,34a.61.61,0,0,0-.08-.12h0s0,0,0,0h0l-.15.07h0l-.16.08-.46-.89,1-.52.46.89-.06,0a1.22,1.22,0,0,0-.21.13h0a.14.14,0,0,0,0,0h0a.83.83,0,0,0,.06.14h0l.84,1.6.09.15h0l0,0h0l.08,0h0l.14-.07h0l0,.06,0-.06.06,0,.52,1-1,.53Zm.06-.18.76-.4-.4-.77-.07,0h0a.31.31,0,0,1-.15,0h0a.16.16,0,0,1-.13-.07h0a1.14,1.14,0,0,1-.1-.17h0l-.84-1.6c-.06-.13-.1-.21-.07-.3h0a.57.57,0,0,1,.22-.16h0l-.35-.66-.76.4.34.66,0,0,.17-.08h0a.14.14,0,0,1,.13,0h0a.61.61,0,0,1,.1.15h0l.86,1.65a1,1,0,0,1,.08.19h0a.16.16,0,0,1,0,.15h0a.59.59,0,0,1-.16.11h0l.4.77Z"/><path class="cls-1" d="M52.26,40.48c-.06.1-.06.16,0,.18l.05,0,.07,0,.1,0,.58.12-.38-.42-.08-.1-.06-.05,0,0s-.1,0-.16.11l-.75-.44.35-.61.75.44a.85.85,0,0,0-.06.13.4.4,0,0,0,.12.29l.53.66,1.11.17.14,0a.32.32,0,0,0,.14,0,.32.32,0,0,0,.09-.12l0,0,.86.5-.39.68-.86-.5a.87.87,0,0,0,.08-.17s0,0,0-.07l-.08,0h-.08l-.78-.13.52.57.06.07.07.05a.07.07,0,0,0,.09,0,.73.73,0,0,0,.11-.15l.86.5-.4.68-.86-.5,0,0a.28.28,0,0,0,0-.14.26.26,0,0,0-.05-.12l-.07-.09-.67-.85-.95-.15h-.19s-.09.06-.15.16l-.75-.44.35-.6Z"/><path class="cls-2" d="M55.26,42.12l-1-.56,0-.06.07-.14h0l-.06,0h-.08l-.58-.1.38.42.05.06.05,0h0l.09-.13h0l0-.06,1,.56-.46.8-1-.56,0-.06,0,0a.26.26,0,0,0,0-.1h0a.18.18,0,0,0,0-.09h0L53.81,42l-.66-.83L52.23,41h-.15a.43.43,0,0,0-.11.13h0l0,.05-.86-.5.42-.72.81.47.05,0,0,.06a.21.21,0,0,0,0,.09h0l.07,0,.09,0,.38.08-.24-.27-.07-.09-.06-.05,0,0h0a.31.31,0,0,0-.06.08h0l0,.06-.87-.5.42-.72.87.5,0,.06-.05.1h0a.36.36,0,0,0,.1.24h0l.51.64,1.08.17.15,0h.1a.4.4,0,0,0,.06-.09h0l0-.09,1,.56-.46.79Zm-.51.63.33-.57-.75-.44a.63.63,0,0,1-.09.12h0a.13.13,0,0,1-.16,0h0L54,41.8h0l-.06-.07L53.29,41l1,.17h.08l.1,0h0a.14.14,0,0,1,.08.14h0a.65.65,0,0,1-.05.14h0l.75.44.33-.56-.75-.43a.34.34,0,0,1-.1.11h0a.36.36,0,0,1-.18,0h0l-.15,0-1.13-.17-.54-.68a.46.46,0,0,1-.13-.35h0l0-.08h0L52,39.4l-.28.49.65.38c.06-.07.13-.12.21-.08h0l.05,0h0l.06.06.07.09.52.57-.78-.16-.1,0-.07,0-.07,0h0c-.08,0-.07-.13,0-.21h0l-.65-.37-.28.49.65.37a.32.32,0,0,1,.17-.14h.2l1,.15.69.87L54,42a.31.31,0,0,1,.07.16h0a.33.33,0,0,1-.05.16h0l.75.43Zm-2.49-2.26-.05,0,.05,0Z"/><path d="M68.43,51.15c.55.62,1.14,1,1.33.83s-.11-.8-.67-1.42l-.1-.11-.67.59Z"/><polygon points="57.7 38.85 56.49 36.98 58.21 38.4 57.7 38.85"/><path d="M59,38.41a.56.56,0,0,0-.38.31l0,.08a.7.7,0,0,0-.09-.13c-.2-.22-1-.93-1.19-.78s.39,1.09.59,1.32l.13.12H58a.59.59,0,0,0-.35.33,1.29,1.29,0,0,0,.1,1.09,2.84,2.84,0,0,0,1,1.08,1.17,1.17,0,0,0,1.22.12.62.62,0,0,0,.22-.43l.72.81h0a.38.38,0,0,0,.09.4.46.46,0,0,0,.23.15c-.1.12-.14.25-.08.32s.18,0,.32,0c-.09.12-.12.24-.07.3s.16,0,.27,0a.9.9,0,0,0,.13.19l3.36,3.8.67-.59-3.37-3.8a.93.93,0,0,0-.17-.15c.07-.11.09-.21,0-.27s-.18,0-.32,0c.09-.12.12-.24.07-.3s-.19,0-.32,0a.46.46,0,0,0-.12-.25.38.38,0,0,0-.39-.14h0l-.79-.89A.64.64,0,0,0,61,41a1.16,1.16,0,0,0,0-1.23,2.84,2.84,0,0,0-1-1.12A1.29,1.29,0,0,0,59,38.41Zm.62,2.36c-.17,0-.32,0-.35.18a.44.44,0,0,0,.17.41c.12.08.21,0,.28-.07.19.15-.11.29-.19.31-.61.19-1.38-.5-1.59-1.18a.49.49,0,0,1,.2-.62.82.82,0,0,1,.66,0Zm1.07-.24c0,.07-.21.36-.33.15.07-.06.16-.14.1-.27a.44.44,0,0,0-.38-.21c-.23,0-.27.23-.2.45l-.83-.94c-.05-.28-.13-.57,0-.77a.49.49,0,0,1,.64-.13C60.37,39.09,61,39.94,60.7,40.53Z"/><rect x="66.64" y="46.44" width="0.9" height="5.06" transform="translate(-15.61 56.71) rotate(-41.47)"/></g></g></svg>