<svg xmlns="http://www.w3.org/2000/svg" viewBox="0 0 58.87 112.04"><defs><style>.cls-1{fill:#fff;}</style></defs><title>Ресурс 27clock</title><g id="Слой_2" data-name="Слой 2"><g id="Layer_1" data-name="Layer 1"><path d="M54.53,69.71c0,2.13-11.31,3.86-25.26,3.86S4,71.84,4,69.71,15.71,56.86,29.67,56.86,54.53,67.58,54.53,69.71Z"/><path d="M23.81,78.86l0-.13,0,.13a5.25,5.25,0,0,0,1.39.19,5,5,0,0,0,4.3-2.63l.05-.09-.07-.08a1.61,1.61,0,0,1-.3-.47v0a1.69,1.69,0,0,1-.32-.51l-.06-.14-.13.07a1.49,1.49,0,0,1-.31.12l-.06,0,0,0a4.49,4.49,0,0,1-1.89,1.83,3.82,3.82,0,0,1-1.43.3,2.33,2.33,0,0,1-2.41-2.21,1,1,0,0,1,.86-1.09c.14,0,.28.13.39.35a1.75,1.75,0,0,1,.17.74.68.68,0,0,1,0,.3l.21.17a1.72,1.72,0,0,0,.7-1.31A1.47,1.47,0,0,0,23.33,73a1.82,1.82,0,0,0-1.14.43,2.75,2.75,0,0,0-1,2.07A3.69,3.69,0,0,0,23.81,78.86Z"/><path d="M24.35,85.42l0-.13a2.5,2.5,0,0,1,.5-.9h0a1.34,1.34,0,0,1-.26,0h0l0,0a3.58,3.58,0,0,1-1.94.82A3,3,0,0,1,21.44,85a1.86,1.86,0,0,1-1.15-2.34.8.8,0,0,1,1-.57c.11,0,.18.18.19.38a1.4,1.4,0,0,1-.09.6.54.54,0,0,1-.12.21l.1.19a1.37,1.37,0,0,0,.9-.78,1.17,1.17,0,0,0-.69-1.5,1.47,1.47,0,0,0-1,0,2.2,2.2,0,0,0-1.32,1.27,3,3,0,0,0,1,3.24l.07-.09-.06.09a4,4,0,0,0,1,.55,3.74,3.74,0,0,0,2.69,0,2.54,2.54,0,0,1,.47-.81Z"/><path d="M34.17,85.44l0-.13a2.51,2.51,0,0,0-.49-.9h0a1.19,1.19,0,0,0,.26,0h0l0,0a3.59,3.59,0,0,0,1.94.82,3.08,3.08,0,0,0,1.15-.19,1.86,1.86,0,0,0,1.15-2.34.8.8,0,0,0-1-.57c-.1,0-.17.18-.19.38a1.43,1.43,0,0,0,.09.6.54.54,0,0,0,.12.21l-.1.19a1.38,1.38,0,0,1-.9-.78,1.17,1.17,0,0,1,.69-1.5,1.45,1.45,0,0,1,1,0,2.18,2.18,0,0,1,1.32,1.27,2.94,2.94,0,0,1-1,3.24l-.06-.09.06.09a4.14,4.14,0,0,1-1,.55,3.73,3.73,0,0,1-2.69,0,2.52,2.52,0,0,0-.47-.81Z"/><path d="M23.82,95.17l.08-.07-.08.07a4.2,4.2,0,0,1-.62-.94,4,4,0,0,1,.42-4l0-.07.08,0a1.26,1.26,0,0,0,.44.05h0a1.37,1.37,0,0,0,.48.05h.12v.12a1.15,1.15,0,0,0,0,.26v0l0,0a3.58,3.58,0,0,0-.67,2,3.11,3.11,0,0,0,.27,1.14,1.87,1.87,0,0,0,2.43,1,.8.8,0,0,0,.5-1c0-.1-.19-.16-.39-.16a1.42,1.42,0,0,0-.6.13.55.55,0,0,0-.2.14L26,93.88a1.39,1.39,0,0,1,.71-1,1.18,1.18,0,0,1,1.55.58,1.45,1.45,0,0,1,.08,1,2.2,2.2,0,0,1-1.16,1.42A3,3,0,0,1,23.82,95.17Z"/><path d="M0,90c0,.09,0,.17,0,.26a7.2,7.2,0,0,0,.23,1,5.49,5.49,0,0,0,.5,1.34,15.43,15.43,0,0,0,1,1.47,8.5,8.5,0,0,0,2.42,2,12.29,12.29,0,0,0,4,1.36c.41.07.83.13,1.25.17s1,.07,1.54.07c9.57,0,18.46-8.53,18.69-21.89v-.06H28.53v.06c-.39,12.73-9,20.66-17.43,20.66a15.17,15.17,0,0,1-5.16-1,8,8,0,0,1-1.52-.77A7.46,7.46,0,0,1,2.6,93a5.89,5.89,0,0,1-1.24-4,6.81,6.81,0,0,1,.19-1.24,4.17,4.17,0,0,1,4-3.25h.23c1.71.25,2.33,1.32,2.33,2.25S7.64,88.32,7,88.32a1,1,0,0,1-.37-.07.47.47,0,0,1-.17-.41,1.61,1.61,0,0,1,.18-.68.77.77,0,0,1,.24-.31l.09,0v-.12H7l-.07,0A1.34,1.34,0,0,0,5.64,88,1.26,1.26,0,0,0,7,89.24l.29,0A2.39,2.39,0,0,0,9.2,86.74a3.11,3.11,0,0,0-.84-2.17,4,4,0,0,0-2.93-1.29,4.9,4.9,0,0,0-2.82.94,6.08,6.08,0,0,0-2,2.26A6.9,6.9,0,0,0,0,90Z"/><path d="M9.09,86.05A7.23,7.23,0,0,0,15.2,90a10.3,10.3,0,0,0,2.63-.19,12,12,0,0,0,3.93-1.61,8.64,8.64,0,0,0,1-.66,15.87,15.87,0,0,0,2.67-2.29,15.63,15.63,0,0,0,2.1-2.85,15.16,15.16,0,0,0,1.38-3.26,28,28,0,0,0,.74-3.57c0-.14.06-.29.07-.44V75l-1.42.43v0A17.36,17.36,0,0,1,27.61,79a14,14,0,0,1-1.53,3.21A18.51,18.51,0,0,1,24,85,10.43,10.43,0,0,1,21.33,87c-1.86,1-4,1.92-6.2,1.63a7.53,7.53,0,0,1-2-.49,6.26,6.26,0,0,1-2.64-2.41,4.52,4.52,0,0,1-.44-.86,4.3,4.3,0,0,1-.26-1.46,3.86,3.86,0,0,1,1.6-3.14A3.1,3.1,0,0,1,13,79.79a2,2,0,0,1,2,1.81.87.87,0,0,1-.61.88h0c-.39,0-.72-.71-.72-1.09a.42.42,0,0,1,0-.13l.05-.06-.07-.09a.18.18,0,0,0-.09.09,1.52,1.52,0,0,0-.4,1,1.2,1.2,0,0,0,1.22,1.17,1.46,1.46,0,0,0,1.1-.54A2.27,2.27,0,0,0,16,81.39a3,3,0,0,0-2.72-2.75l-.43,0c-2.83,0-4.36,2.54-4.36,5A5.26,5.26,0,0,0,9.09,86.05Z"/><path d="M15.92,105.32l0,.11c.08.32.17.64.25,1a7.32,7.32,0,0,0,2.21,3.7,9.68,9.68,0,0,0,1.71,1.08,6.17,6.17,0,0,0,4.08.58,4.42,4.42,0,0,0,1.5-.57A5.56,5.56,0,0,0,27.91,109a4.2,4.2,0,0,0,.38-1.71,4.29,4.29,0,0,0-.26-1.45,3.15,3.15,0,0,0-2.81-2,2.26,2.26,0,0,0-1.84.95,1.57,1.57,0,0,0-.31.91,1.2,1.2,0,0,0,1.19,1.21,1.44,1.44,0,0,0,1.15-.65.22.22,0,0,0,.08-.13l-.11,0-.05.08a.74.74,0,0,1-.39.08c-.42,0-1-.18-1-.49a1,1,0,0,1,1.08-.87A2.09,2.09,0,0,1,27,107a3.59,3.59,0,0,1-.19,1.1A4.07,4.07,0,0,1,23,110.58a5.72,5.72,0,0,1-4.28-2.09,7.23,7.23,0,0,1-1.52-3.38,10.85,10.85,0,0,1,0-2.52,10.46,10.46,0,0,1,.47-2.34A14.56,14.56,0,0,1,19.77,96a14.84,14.84,0,0,1,1.77-2l.11-.1H19.87l0,0a16.29,16.29,0,0,0-3.69,7.14A10,10,0,0,0,15.92,105.32Z"/><path d="M34.81,79l0-.13,0,.13a5.18,5.18,0,0,1-1.39.19,5,5,0,0,1-4.3-2.63l-.05-.09.07-.08a1.65,1.65,0,0,0,.3-.46v0a1.67,1.67,0,0,0,.32-.51l.06-.14.13.07a1.4,1.4,0,0,0,.31.12l.06,0,0,0a4.49,4.49,0,0,0,1.9,1.83,3.79,3.79,0,0,0,1.42.3,2.33,2.33,0,0,0,2.41-2.21,1,1,0,0,0-.85-1.09c-.14,0-.28.13-.4.35a1.79,1.79,0,0,0-.17.74.68.68,0,0,0,.05.3l-.21.17a1.73,1.73,0,0,1-.7-1.31,1.47,1.47,0,0,1,1.48-1.43,1.81,1.81,0,0,1,1.14.43,2.73,2.73,0,0,1,1,2.07A3.69,3.69,0,0,1,34.81,79Z"/><path d="M34.8,95.36l-.08-.07.08.07a4.17,4.17,0,0,0,.62-.94,4,4,0,0,0-.42-4l0-.07-.08,0a1.28,1.28,0,0,1-.44.06h0a1.33,1.33,0,0,1-.48.05h-.12v.12a1.2,1.2,0,0,1,0,.26v0l0,0a3.6,3.6,0,0,1,.67,2,3.12,3.12,0,0,1-.27,1.14,1.87,1.87,0,0,1-2.43,1,.8.8,0,0,1-.5-1c0-.1.19-.16.39-.17a1.43,1.43,0,0,1,.6.14.56.56,0,0,1,.2.14l.19-.09a1.38,1.38,0,0,0-.71-1,1.18,1.18,0,0,0-1.55.58,1.45,1.45,0,0,0-.08,1,2.19,2.19,0,0,0,1.16,1.42A3,3,0,0,0,34.8,95.36Z"/><path d="M58.58,90.21c0,.09,0,.17,0,.26a7.4,7.4,0,0,1-.24,1,5.47,5.47,0,0,1-.5,1.34,15.61,15.61,0,0,1-1,1.47,8.55,8.55,0,0,1-2.42,2,12.29,12.29,0,0,1-4,1.36c-.42.07-.83.13-1.25.17s-1,.07-1.55.07C38,97.9,29.07,89.37,28.84,76V76h1.26V76c.4,12.73,9,20.66,17.43,20.66a15.11,15.11,0,0,0,5.16-1,7.82,7.82,0,0,0,1.52-.77A7.48,7.48,0,0,0,56,93.23a5.89,5.89,0,0,0,1.24-4A6.76,6.76,0,0,0,57.07,88a4.17,4.17,0,0,0-4-3.25h-.23C51.15,85,50.53,86.1,50.53,87S51,88.5,51.61,88.5a1,1,0,0,0,.36-.07.47.47,0,0,0,.17-.41,1.59,1.59,0,0,0-.18-.68.77.77,0,0,0-.24-.31h-.09v-.12h0l.07,0A1.34,1.34,0,0,1,53,88.19a1.26,1.26,0,0,1-1.34,1.24l-.29,0a2.38,2.38,0,0,1-1.93-2.48,3.11,3.11,0,0,1,.84-2.17,4,4,0,0,1,2.93-1.29,4.88,4.88,0,0,1,2.82.94,6.08,6.08,0,0,1,2,2.26A6.92,6.92,0,0,1,58.58,90.21Z"/><path d="M49.53,86.23a7.23,7.23,0,0,1-6.12,3.91A10.27,10.27,0,0,1,40.78,90a12,12,0,0,1-3.93-1.61,8.44,8.44,0,0,1-1-.67,15.54,15.54,0,0,1-4.78-5.14,15,15,0,0,1-1.38-3.26,28.26,28.26,0,0,1-.74-3.57c0-.14-.06-.29-.07-.44v-.09l1.41.43v0A17.52,17.52,0,0,0,31,79.23a13.91,13.91,0,0,0,1.54,3.21,18.57,18.57,0,0,0,2.08,2.71,10.43,10.43,0,0,0,2.67,2.08c1.86,1,4,1.92,6.2,1.63a7.54,7.54,0,0,0,2-.49A6.27,6.27,0,0,0,48.14,86a4.63,4.63,0,0,0,.44-.86,4.28,4.28,0,0,0,.26-1.46,3.86,3.86,0,0,0-1.59-3.14A3.11,3.11,0,0,0,45.63,80a2,2,0,0,0-2,1.81.87.87,0,0,0,.61.87h0c.39,0,.72-.71.72-1.09a.35.35,0,0,0,0-.13l-.05-.06.07-.09a.19.19,0,0,1,.09.09,1.51,1.51,0,0,1,.4,1,1.2,1.2,0,0,1-1.22,1.17,1.45,1.45,0,0,1-1.1-.54,2.29,2.29,0,0,1-.52-1.42,3,3,0,0,1,2.72-2.75l.43,0c2.83,0,4.36,2.54,4.36,5A5.25,5.25,0,0,1,49.53,86.23Z"/><path d="M34.52,12.48l0,.13a2.5,2.5,0,0,1-.5.9h0a1.33,1.33,0,0,1,.26,0h0l0,0a3.58,3.58,0,0,1,1.94-.82,3,3,0,0,1,1.15.19,1.86,1.86,0,0,1,1.15,2.34.8.8,0,0,1-1,.57c-.11,0-.18-.18-.19-.38a1.4,1.4,0,0,1,.09-.6.54.54,0,0,1,.13-.21l-.1-.19a1.37,1.37,0,0,0-.9.78,1.17,1.17,0,0,0,.69,1.5,1.47,1.47,0,0,0,1,0,2.2,2.2,0,0,0,1.32-1.27,3,3,0,0,0-1-3.24l-.07.09.06-.09a4,4,0,0,0-1-.55,3.74,3.74,0,0,0-2.69,0,2.54,2.54,0,0,1-.47.81Z"/><path d="M24.7,12.46l0,.13a2.51,2.51,0,0,0,.49.9h0a1.18,1.18,0,0,0-.26,0h0l0,0a3.59,3.59,0,0,0-1.94-.82,3.08,3.08,0,0,0-1.15.19,1.86,1.86,0,0,0-1.15,2.34.8.8,0,0,0,1,.57c.1,0,.17-.18.19-.38a1.42,1.42,0,0,0-.09-.6.55.55,0,0,0-.12-.21l.1-.19a1.38,1.38,0,0,1,.9.78,1.17,1.17,0,0,1-.69,1.5,1.45,1.45,0,0,1-1,0,2.18,2.18,0,0,1-1.32-1.27,2.94,2.94,0,0,1,1-3.24l.06.09-.06-.09a4.14,4.14,0,0,1,1-.55,3.74,3.74,0,0,1,2.69,0,2.52,2.52,0,0,0,.47.81Z"/><path d="M35.05,2.73,35,2.8l.08-.07a4.2,4.2,0,0,1,.62.94,4,4,0,0,1-.42,4l0,.07-.08,0a1.26,1.26,0,0,0-.44-.05h0a1.37,1.37,0,0,0-.48-.05h-.12V7.52a1.15,1.15,0,0,0,0-.26v0l0,0a3.57,3.57,0,0,0,.67-2A3.11,3.11,0,0,0,34.46,4,1.87,1.87,0,0,0,32,3a.8.8,0,0,0-.5,1c0,.1.19.16.39.16a1.42,1.42,0,0,0,.6-.13.56.56,0,0,0,.2-.14l.19.09a1.39,1.39,0,0,1-.71,1,1.18,1.18,0,0,1-1.55-.58,1.45,1.45,0,0,1-.08-1A2.2,2.2,0,0,1,31.74,2,3,3,0,0,1,35.05,2.73Z"/><path d="M58.83,7.87c0-.09,0-.17,0-.26a7.2,7.2,0,0,0-.23-1,5.49,5.49,0,0,0-.5-1.34,15.46,15.46,0,0,0-1-1.47,8.5,8.5,0,0,0-2.42-2,12.29,12.29,0,0,0-4-1.36C50.16.35,49.74.3,49.32.26s-1-.07-1.54-.07c-9.57,0-18.46,8.53-18.69,21.89v.06h1.25v-.06c.39-12.73,9-20.66,17.43-20.66a15.17,15.17,0,0,1,5.16,1,8,8,0,0,1,1.52.77,7.47,7.47,0,0,1,1.82,1.66,5.89,5.89,0,0,1,1.24,4,6.81,6.81,0,0,1-.19,1.24,4.17,4.17,0,0,1-4,3.25h-.23c-1.71-.25-2.33-1.32-2.33-2.25s.46-1.47,1.08-1.47a1,1,0,0,1,.37.07.47.47,0,0,1,.17.41,1.61,1.61,0,0,1-.18.68.77.77,0,0,1-.24.31l-.09,0v.12h0l.07,0A1.34,1.34,0,0,0,53.24,9.9,1.26,1.26,0,0,0,51.9,8.66l-.29,0a2.39,2.39,0,0,0-1.93,2.48,3.11,3.11,0,0,0,.84,2.17,4,4,0,0,0,2.93,1.29,4.9,4.9,0,0,0,2.82-.94,6.08,6.08,0,0,0,2-2.26A6.9,6.9,0,0,0,58.83,7.87Z"/><path d="M49.78,11.85a7.23,7.23,0,0,0-6.12-3.91A10.31,10.31,0,0,0,41,8.13a12,12,0,0,0-3.93,1.61,8.64,8.64,0,0,0-1,.66,15.88,15.88,0,0,0-2.67,2.29,15.63,15.63,0,0,0-2.1,2.85,15.16,15.16,0,0,0-1.38,3.26,28,28,0,0,0-.74,3.57c0,.14-.06.29-.07.44v.09l1.42-.43v0a17.35,17.35,0,0,1,.73-3.58,14,14,0,0,1,1.53-3.21,18.51,18.51,0,0,1,2.08-2.71,10.42,10.42,0,0,1,2.67-2.08c1.86-1,4-1.92,6.2-1.63a7.52,7.52,0,0,1,2,.49,6.26,6.26,0,0,1,2.64,2.41,4.52,4.52,0,0,1,.44.86,4.3,4.3,0,0,1,.26,1.46,3.86,3.86,0,0,1-1.6,3.14,3.1,3.1,0,0,1-1.62.52,2,2,0,0,1-2-1.81.87.87,0,0,1,.61-.87h0c.39,0,.72.71.72,1.09a.42.42,0,0,1,0,.13l-.05.06.07.09a.18.18,0,0,0,.09-.09,1.52,1.52,0,0,0,.4-1,1.2,1.2,0,0,0-1.22-1.17,1.46,1.46,0,0,0-1.1.54,2.27,2.27,0,0,0-.52,1.42,3,3,0,0,0,2.72,2.75l.43,0c2.83,0,4.36-2.54,4.36-5A5.26,5.26,0,0,0,49.78,11.85Z"/><path d="M24.07,2.55l.08.07-.08-.07a4.17,4.17,0,0,0-.62.94,4,4,0,0,0,.42,4l0,.07.08,0a1.28,1.28,0,0,1,.44-.06h0a1.34,1.34,0,0,1,.48-.05h.12V7.34a1.21,1.21,0,0,1,0-.26V7l0,0a3.6,3.6,0,0,1-.67-2,3.12,3.12,0,0,1,.27-1.14,1.87,1.87,0,0,1,2.43-1,.8.8,0,0,1,.5,1c0,.1-.19.16-.39.17a1.43,1.43,0,0,1-.6-.14.57.57,0,0,1-.2-.14l-.19.09a1.38,1.38,0,0,0,.71,1,1.18,1.18,0,0,0,1.55-.58,1.45,1.45,0,0,0,.08-1,2.19,2.19,0,0,0-1.16-1.42A3,3,0,0,0,24.07,2.55Z"/><path d="M.29,7.69c0-.09,0-.17,0-.26a7.41,7.41,0,0,1,.24-1,5.46,5.46,0,0,1,.5-1.34,15.65,15.65,0,0,1,1-1.47,8.55,8.55,0,0,1,2.42-2,12.29,12.29,0,0,1,4-1.36C9,.17,9.38.11,9.8.07s1-.07,1.55-.07C20.92,0,29.8,8.53,30,21.89V22H28.78v-.06c-.4-12.73-9-20.66-17.43-20.66a15.11,15.11,0,0,0-5.16,1A7.82,7.82,0,0,0,4.67,3,7.48,7.48,0,0,0,2.85,4.68a5.89,5.89,0,0,0-1.24,4A6.75,6.75,0,0,0,1.8,9.88a4.17,4.17,0,0,0,4,3.25H6c1.71-.25,2.33-1.32,2.33-2.25S7.89,9.41,7.27,9.4a1,1,0,0,0-.36.07.47.47,0,0,0-.17.41,1.59,1.59,0,0,0,.18.68.78.78,0,0,0,.24.31h.09V11h0l-.07,0A1.34,1.34,0,0,1,5.89,9.72,1.26,1.26,0,0,1,7.23,8.48l.29,0A2.38,2.38,0,0,1,9.45,11a3.11,3.11,0,0,1-.84,2.17,4,4,0,0,1-2.93,1.29,4.88,4.88,0,0,1-2.82-.94,6.08,6.08,0,0,1-2-2.26A6.92,6.92,0,0,1,.29,7.69Z"/><path d="M9.34,11.67a7.23,7.23,0,0,1,6.12-3.91,10.26,10.26,0,0,1,2.63.19A12,12,0,0,1,22,9.56a8.45,8.45,0,0,1,1,.67,15.67,15.67,0,0,1,2.67,2.29,15.51,15.51,0,0,1,2.1,2.85,15,15,0,0,1,1.38,3.26,28.24,28.24,0,0,1,.74,3.57c0,.14.06.29.07.44v.09l-1.41-.43v0a17.53,17.53,0,0,0-.73-3.58,13.91,13.91,0,0,0-1.54-3.21,18.58,18.58,0,0,0-2.08-2.71,10.43,10.43,0,0,0-2.67-2.08c-1.86-1-4-1.92-6.21-1.63a7.55,7.55,0,0,0-2,.49,6.27,6.27,0,0,0-2.64,2.41,4.63,4.63,0,0,0-.44.86A4.28,4.28,0,0,0,10,14.27a3.86,3.86,0,0,0,1.59,3.14,3.11,3.11,0,0,0,1.62.51,2,2,0,0,0,2-1.81.87.87,0,0,0-.61-.87h0c-.39,0-.72.71-.72,1.09a.35.35,0,0,0,0,.13l.05.06-.07.09a.19.19,0,0,1-.09-.09,1.51,1.51,0,0,1-.4-1,1.2,1.2,0,0,1,1.22-1.17,1.45,1.45,0,0,1,1.1.54,2.29,2.29,0,0,1,.52,1.42,3,3,0,0,1-2.72,2.75l-.43,0c-2.83,0-4.36-2.54-4.36-5A5.25,5.25,0,0,1,9.34,11.67Z"/><path d="M42.7,105.5l0,.11c-.08.32-.17.64-.25,1a7.3,7.3,0,0,1-2.21,3.7,9.52,9.52,0,0,1-1.71,1.08,6.16,6.16,0,0,1-4.08.58,4.43,4.43,0,0,1-1.5-.57,5.57,5.57,0,0,1-2.21-2.21,4.24,4.24,0,0,1-.38-1.71,4.33,4.33,0,0,1,.26-1.45,3.16,3.16,0,0,1,2.81-2,2.26,2.26,0,0,1,1.84.94,1.58,1.58,0,0,1,.32.91A1.2,1.2,0,0,1,34.37,107a1.44,1.44,0,0,1-1.14-.65.23.23,0,0,1-.08-.13l.11,0,.05.08a.71.71,0,0,0,.38.08c.42,0,1-.18,1-.48a1,1,0,0,0-1.08-.87,2.09,2.09,0,0,0-2,2.19,3.57,3.57,0,0,0,.19,1.1,4.07,4.07,0,0,0,3.82,2.46,5.73,5.73,0,0,0,4.29-2.09,7.21,7.21,0,0,0,1.52-3.38,11,11,0,0,0,0-2.52,10.45,10.45,0,0,0-.47-2.34,14.68,14.68,0,0,0-2.09-4.23,15.16,15.16,0,0,0-1.77-2l-.11-.1h1.78l0,0a16.4,16.4,0,0,1,3.69,7.14A10,10,0,0,1,42.7,105.5Z"/><rect x="28.13" y="79.45" width="2.29" height="29.02"/><ellipse cx="29.23" cy="75.46" rx="3.92" ry="2.15"/><circle class="cls-1" cx="29.04" cy="40.78" r="24.61"/><path d="M38.35,26.22l-.47.79-1-.58.47-.79.09.06h0l.17.08a.09.09,0,0,0,.09,0,.78.78,0,0,0,.1-.15l.88-1.49a.47.47,0,0,0,.06-.14.07.07,0,0,0,0-.07l-.16-.11-.11-.07.41-.7,1,.58-.41.7a1.2,1.2,0,0,0-.3-.15s-.1.05-.17.16l-.86,1.45a.82.82,0,0,0-.08.15.1.1,0,0,0,0,.09.36.36,0,0,0,.11.08h0Z"/><path d="M44.12,32.56,43.3,33l-.52-1,.82-.42.05.1v0a.85.85,0,0,0,.1.16.1.1,0,0,0,.09,0l.16-.07L45.54,31a.43.43,0,0,0,.13-.09.07.07,0,0,0,0-.07l-.08-.18-.06-.11.72-.37.52,1-.72.37a1.17,1.17,0,0,0-.18-.29s-.11,0-.23.05l-1.49.77-.15.09a.09.09,0,0,0,0,.08.38.38,0,0,0,0,.13v0Z"/><path d="M44.78,33.84l-.82.42-.52-1,.82-.42.05.1v0a.79.79,0,0,0,.1.16.1.1,0,0,0,.09,0l.16-.07,1.54-.79a.4.4,0,0,0,.13-.09.07.07,0,0,0,0-.07l-.08-.18-.06-.11.72-.37.52,1-.72.37a1.21,1.21,0,0,0-.18-.29s-.11,0-.23,0l-1.49.77-.15.09a.1.1,0,0,0,0,.08.37.37,0,0,0,0,.13v0Z"/><path d="M46.2,39.82h-.92V38.69h.92v.13a.82.82,0,0,0,0,.19.1.1,0,0,0,.06.07h1.91l.15,0a.07.07,0,0,0,0-.06s0-.09,0-.2v-.13h.81v1.13h-.81a1.12,1.12,0,0,0,0-.34s-.1-.06-.22-.06H46.29a.1.1,0,0,0-.07.05.37.37,0,0,0,0,.13v0Q46.2,39.75,46.2,39.82Z"/><path d="M46.2,41.27h-.92V40.13h.92v.13a.82.82,0,0,0,0,.19.1.1,0,0,0,.06.07h1.91l.15,0a.07.07,0,0,0,0-.06s0-.09,0-.2v-.13h.81v1.13h-.81a1.12,1.12,0,0,0,0-.34s-.1-.06-.22-.06H46.29a.1.1,0,0,0-.07.06.37.37,0,0,0,0,.13v0C46.2,41.16,46.2,41.22,46.2,41.27Z"/><path d="M46.2,42.71h-.92V41.58h.92v.13a.82.82,0,0,0,0,.19.09.09,0,0,0,.06.07h1.91l.15,0a.07.07,0,0,0,0-.06s0-.09,0-.2v-.13h.81v1.13h-.81a1.13,1.13,0,0,0,0-.34s-.1-.06-.22-.06H46.29a.1.1,0,0,0-.07.05.37.37,0,0,0,0,.13v0Q46.2,42.64,46.2,42.71Z"/><path d="M27.53,21.42c-.12,0-.19,0-.19.07a.18.18,0,0,0,0,.05l0,.07,0,.09.21.52.2-.5.05-.11,0-.07v-.05s-.07-.07-.2-.07v-.81h.8v.81h-.16a.4.4,0,0,0-.22.23l-.35.73.46,1,.07.12a.24.24,0,0,0,.09.11.41.41,0,0,0,.17,0h0v.92h-.89v-.92l.21,0a.07.07,0,0,0,0-.07.26.26,0,0,0,0-.08l0-.07-.31-.69-.27.68,0,.08a.29.29,0,0,0,0,.08.07.07,0,0,0,0,.07l.21,0v.92h-.9v-.92h.06a.39.39,0,0,0,.16,0,.23.23,0,0,0,.09-.1l.05-.1.46-.94-.39-.83a.26.26,0,0,0,0-.08L27,21.47a.5.5,0,0,0-.25,0v-.81h.79Z"/><path d="M29.92,23.61v.92H28.79v-.92h.32a.1.1,0,0,0,.07-.06.88.88,0,0,0,0-.18V21.63a.46.46,0,0,0,0-.15.07.07,0,0,0-.06,0h-.33v-.81h1.13v.81a1.12,1.12,0,0,0-.34,0s-.06.1-.06.22v1.68a.72.72,0,0,0,0,.17.09.09,0,0,0,.05.07l.13,0h.2Z"/><path d="M31.37,23.61v.92H30.23v-.92h.32a.1.1,0,0,0,.07-.06.81.81,0,0,0,0-.18V21.63a.44.44,0,0,0,0-.15.07.07,0,0,0-.06,0h-.32v-.81h1.13v.81a1.13,1.13,0,0,0-.34,0s-.06.1-.06.22v1.68a.85.85,0,0,0,0,.17.1.1,0,0,0,.05.07l.13,0h.2Z"/><path d="M26.87,42l-6,2-.35-1.08,6-2,0,.1v0a.19.19,0,0,0,.16.15,1.3,1.3,0,0,0,.43-.07l1.16-.36,11.29-3.65,1-.34a.82.82,0,0,0,.29-.15.42.42,0,0,0,0-.21l0-.12,5.3-1.71.35,1.08-5.3,1.71c-.06-.18-.15-.27-.26-.27a10.29,10.29,0,0,0-1.48.42l-11,3.54-1.12.37a2.05,2.05,0,0,0-.45.2c-.07.05-.09.11-.07.16v0A.33.33,0,0,1,26.87,42Z"/><path d="M31.76,40.74l4.6.91-.22,1.11-4.6-.91,0-.11v0a.22.22,0,0,0,0-.2.77.77,0,0,0-.3-.13l-.88-.19-8.62-1.7L21,39.39a.49.49,0,0,0-.25,0,.53.53,0,0,0-.09.18l0,.13-4-.8.22-1.11,4,.79c0,.19,0,.31.06.36a5.54,5.54,0,0,0,1.1.28l8.37,1.65.86.15a1.19,1.19,0,0,0,.36,0,.14.14,0,0,0,.11-.12v0A.47.47,0,0,1,31.76,40.74Z"/><path d="M44.18,48.88l-.76-.53.64-.93.76.53-.06.09v0a.82.82,0,0,0-.1.17.1.1,0,0,0,0,.09l.14.11,1.42,1a.43.43,0,0,0,.13.07.07.07,0,0,0,.07,0l.12-.15.07-.11.67.46-.64.93L46,50.13a1.18,1.18,0,0,0,.17-.29s0-.1-.15-.18l-1.38-1-.15-.09a.1.1,0,0,0-.09,0,.38.38,0,0,0-.09.1v0Z"/><path d="M45.28,51.14l.67.46-.51.74-.67-.46.08-.14c0-.08,0-.18-.09-.27l-2.12-2L43,49l2.54,1.38a.31.31,0,0,0,.21,0,.5.5,0,0,0,.18-.18l.67.46-.51.74L45.38,51l0,0a.72.72,0,0,0,.1-.18s0-.06-.05-.09h0l-.07,0-.07,0-2-1,0,0,1.57,1.51.08.06,0,0,0,0s.06,0,.08,0a.69.69,0,0,0,.12-.15Z"/><path d="M38,57.86l.42.7-.78.46-.42-.7.13-.09c.07-.06.08-.16,0-.29l-1.11-2.69.51-.3,1.74,2.31a.31.31,0,0,0,.17.13.53.53,0,0,0,.23-.09l.42.7-.78.46-.42-.7,0,0a.77.77,0,0,0,.17-.12s0-.06,0-.1h0l0-.06,0-.07-1.37-1.71,0,0,.8,2,0,.09,0,.07,0,0a.07.07,0,0,0,.07,0l.18-.09Z"/><path d="M29.81,60v.81h-.91V60h.16c.09,0,.15-.1.17-.23l.43-2.87h.59l.31,2.87a.3.3,0,0,0,.08.2.5.5,0,0,0,.24,0v.81H30V60h0l.2,0s0,0,0-.09V59.7l-.3-2.17h0l-.35,2.15v.21s0,.06,0,.07l.2,0Z"/><path d="M27.62,57.78v-.92h1.13v.92h-.13l-.19,0a.09.09,0,0,0-.07.06.73.73,0,0,0,0,.18v1.73a.43.43,0,0,0,0,.15.08.08,0,0,0,.06,0h.32v.81H27.62V60A1.25,1.25,0,0,0,28,60s.06-.1.06-.22V58a.78.78,0,0,0,0-.17.1.1,0,0,0-.05-.07l-.13,0h-.2Z"/><path d="M20.6,58.1l-.37.72-.8-.41.37-.72.15.06c.09,0,.17,0,.26-.13l1.69-2.36.53.27-1,2.7a.31.31,0,0,0,0,.21.52.52,0,0,0,.2.15l-.37.72-.8-.41.37-.72,0,0,.19.08s.05,0,.08-.06h0l0-.07,0-.07L21.84,56l0,0-1.29,1.75,0,.08,0,.06,0,0s0,.06,0,.09l.17.1Z"/><path d="M19.64,55.15l.42-.82,1,.52-.42.82-.1-.05h0l-.18-.07a.1.1,0,0,0-.09,0,.83.83,0,0,0-.09.15l-.79,1.54a.46.46,0,0,0-.05.14.07.07,0,0,0,0,.07l.17.1.12.06-.37.72-1-.52.37-.72a1.12,1.12,0,0,0,.31.13s.1-.06.16-.17l.77-1.49a.75.75,0,0,0,.07-.16.1.1,0,0,0,0-.09.37.37,0,0,0-.11-.08h0Z"/><path d="M18.36,54.49l.42-.82,1,.52-.42.82-.1,0h0l-.18-.07a.09.09,0,0,0-.09,0,.76.76,0,0,0-.09.15l-.79,1.54a.44.44,0,0,0-.05.14.07.07,0,0,0,0,.07l.17.1.12.06-.37.72-1-.52.37-.72a1.15,1.15,0,0,0,.31.13s.1-.06.15-.17l.77-1.49a.78.78,0,0,0,.07-.16.1.1,0,0,0,0-.09.38.38,0,0,0-.11-.08h0Z"/><path d="M13.25,51.36l-.68.43L12.08,51l.68-.44.1.13c.06.07.16.07.29,0l2.66-1.18.32.5-2.26,1.8a.32.32,0,0,0-.12.17.55.55,0,0,0,.09.23l-.68.43-.49-.76.69-.43,0,0a.73.73,0,0,0,.12.16s.06,0,.1,0h0l.06,0,.06,0,1.67-1.41,0,0-2,.86-.08,0-.07,0,0,0s0,0,0,.07a.64.64,0,0,0,.09.17Z"/><path d="M13.93,48.33l.78-.5.61,1-.78.49-.06-.09v0a.77.77,0,0,0-.12-.15.1.1,0,0,0-.09,0l-.16.08L12.64,50a.48.48,0,0,0-.12.1.07.07,0,0,0,0,.07l.1.17.07.11L12,50.9l-.61-1,.69-.43a1.17,1.17,0,0,0,.2.27s.11,0,.22-.07l1.42-.9.14-.1a.1.1,0,0,0,0-.08A.39.39,0,0,0,14,48.5v0Z"/><path d="M13.15,47.11l.78-.49.61,1-.78.5L13.7,48v0a.81.81,0,0,0-.12-.15.1.1,0,0,0-.09,0l-.16.08-1.46.93a.4.4,0,0,0-.12.1.07.07,0,0,0,0,.07l.09.17.07.11-.68.44-.61-1,.69-.43a1.26,1.26,0,0,0,.2.27s.11,0,.22-.07l1.42-.9.14-.1a.1.1,0,0,0,0-.08.34.34,0,0,0-.06-.12v0Z"/><path d="M12.38,45.89l.78-.5.61,1-.78.5-.06-.09v0a.82.82,0,0,0-.11-.15.1.1,0,0,0-.09,0l-.16.08-1.46.93a.42.42,0,0,0-.12.1.08.08,0,0,0,0,.07l.1.17.07.11-.68.43-.61-1,.68-.44a1.16,1.16,0,0,0,.2.27s.11,0,.22-.07l1.42-.9.14-.1a.1.1,0,0,0,0-.08.36.36,0,0,0-.06-.12v0Z"/><path d="M22,24.6l.52.76-.93.64L21,25.25l.09-.06h0l.15-.12a.1.1,0,0,0,0-.09.74.74,0,0,0-.09-.15l-1-1.43a.41.41,0,0,0-.1-.11.08.08,0,0,0-.07,0l-.17.1-.11.07-.46-.67.93-.64.46.67a1.23,1.23,0,0,0-.27.21s0,.11.08.22l.95,1.38a.75.75,0,0,0,.11.13.1.1,0,0,0,.09,0l.12-.06,0,0Z"/><path d="M18.69,24.2c-.1.07-.14.13-.11.17l0,0,.06,0,.08.05.47.31-.12-.52,0-.12,0-.07,0,0s-.1,0-.21.05l-.46-.67L19,23l.46.67-.12.1a.4.4,0,0,0-.05.31l.13.8.93.54.13.07a.25.25,0,0,0,.13,0,.44.44,0,0,0,.15-.08l0,0,.52.76-.73.5-.52-.76.17-.14a.07.07,0,0,0,0-.08l-.06-.05-.07,0-.64-.39.16.71,0,.08a.25.25,0,0,0,0,.08.07.07,0,0,0,.08,0l.19-.1.52.76-.74.51-.52-.76,0,0a.37.37,0,0,0,.12-.11.25.25,0,0,0,0-.13v-.11l-.15-1-.79-.47-.08,0-.09,0a.49.49,0,0,0-.23.1L17.57,24l.66-.45Z"/><path d="M12.26,31.26c-.06.11-.07.18,0,.2h.22l.56.05-.35-.4L12.59,31,12.54,31l0,0s-.1,0-.16.14l-.72-.38L12,30l.72.38-.06.15a.4.4,0,0,0,.1.3l.49.65,1.07,0h.14a.26.26,0,0,0,.14,0,.41.41,0,0,0,.1-.14l0,0,.82.43-.41.79-.82-.43a1.12,1.12,0,0,0,.08-.2.07.07,0,0,0,0-.07l-.08,0h-.08l-.75,0,.48.55.05.06.06.05a.07.07,0,0,0,.08,0,1,1,0,0,0,.12-.18l.82.43-.42.79-.82-.43,0,0a.4.4,0,0,0,.06-.16.24.24,0,0,0,0-.13l-.06-.09-.62-.84-.92,0H12a.5.5,0,0,0-.16.2l-.72-.38.37-.7Z"/><path d="M11.87,41.26h.92v1.13h-.92v-.13a.8.8,0,0,0,0-.19A.09.09,0,0,0,11.8,42H9.89l-.15,0a.08.08,0,0,0,0,.06s0,.09,0,.2v.13H8.87V41.26h.81a1.24,1.24,0,0,0,0,.34s.1.06.22.06h1.85a.1.1,0,0,0,.07-.05.37.37,0,0,0,0-.13v0C11.87,41.36,11.87,41.31,11.87,41.26Z"/><path d="M9.68,40.2c0,.13,0,.19.07.19h0l.07,0,.09,0,.52-.22-.5-.2-.11,0-.07,0h0c-.05,0-.07.07-.07.2H8.87v-.8h.81a1.1,1.1,0,0,0,0,.16.4.4,0,0,0,.23.22l.73.35,1-.46.13-.07a.26.26,0,0,0,.11-.09.42.42,0,0,0,0-.17v0h.92V40h-.92a1.17,1.17,0,0,0,0-.21.07.07,0,0,0-.07,0l-.08,0-.07,0-.69.31.68.27.08,0,.08,0a.07.07,0,0,0,.07,0,1.16,1.16,0,0,0,0-.21h.92v.9h-.92V41a.39.39,0,0,0,0-.16.25.25,0,0,0-.1-.09l-.1-.05-.94-.46-.83.39-.08,0-.08.05a.47.47,0,0,0,0,.24H8.87V40.2Z"/><path d="M7.23,40.6A21.87,21.87,0,0,1,29.1,18.73h0A21.87,21.87,0,0,1,51,40.6h0A21.87,21.87,0,0,1,29.1,62.46h0A21.87,21.87,0,0,1,7.23,40.6Zm6.59-15.28A21.54,21.54,0,0,0,7.49,40.6h0a21.54,21.54,0,0,0,6.33,15.28h0A21.54,21.54,0,0,0,29.1,62.2h0a21.53,21.53,0,0,0,15.28-6.33h0A21.54,21.54,0,0,0,50.7,40.6h0a21.54,21.54,0,0,0-6.33-15.28h0A21.54,21.54,0,0,0,29.1,19h0a21.54,21.54,0,0,0-15.28,6.33Z"/><path d="M29.05,14.5A26.23,26.23,0,1,0,55.28,40.73,26.23,26.23,0,0,0,29.05,14.5Zm0,3.26a23,23,0,1,1-16.24,6.73A22.89,22.89,0,0,1,29.05,17.76Z"/><path d="M8.23,40.68A20.83,20.83,0,0,1,29.05,19.85h0A20.82,20.82,0,0,1,49.88,40.68h0A20.83,20.83,0,0,1,29.05,61.5h0A20.83,20.83,0,0,1,8.23,40.68Zm6.28-14.54a20.5,20.5,0,0,0-6,14.54h0a20.49,20.49,0,0,0,6,14.54h0a20.49,20.49,0,0,0,14.54,6h0a20.5,20.5,0,0,0,14.54-6h0a20.5,20.5,0,0,0,6-14.54h0a20.5,20.5,0,0,0-6-14.54h0a20.5,20.5,0,0,0-14.54-6h0a20.49,20.49,0,0,0-14.54,6Z"/><path d="M13.31,40.8A15.78,15.78,0,0,1,29.09,25h0A15.78,15.78,0,0,1,44.88,40.8h0A15.78,15.78,0,0,1,29.09,56.58h0A15.78,15.78,0,0,1,13.31,40.8Zm4.76-11a15.53,15.53,0,0,0-4.57,11h0a15.53,15.53,0,0,0,4.57,11h0a15.53,15.53,0,0,0,11,4.56h0a15.53,15.53,0,0,0,11-4.56h0a15.53,15.53,0,0,0,4.57-11h0a15.53,15.53,0,0,0-4.57-11h0a15.53,15.53,0,0,0-11-4.56h0a15.53,15.53,0,0,0-11,4.56Z"/><path d="M29.17,20v-3.9H29V20Z"/><path d="M29,61.31v4h.19v-4Z"/><path d="M47.44,31l3.33-1.78-.09-.16-3.33,1.78Z"/><path d="M10.87,50.35,7.26,52.28l.09.16,3.57-1.91Z"/><path d="M39.55,22.87l1.89-3.29-.16-.09L39.4,22.75Z"/><path d="M18.8,58.54l-2.09,3.62.16.09L19,58.63Z"/><path d="M19.21,22.51l-1.83-3.42-.16.09,1.84,3.44Z"/><path d="M38.49,58.95l1.95,3.64.16-.09-1.93-3.62Z"/><path d="M11.22,30.41l-3.47-2-.09.16,3.48,2Z"/><path d="M46.92,51l-.1.16,3.5,2,.09-.16Z"/><path d="M8.25,40.59H4.4v.19H8.26C8.26,40.72,8.25,40.66,8.25,40.59Z"/><path d="M49.63,40.59l0,.19h4v-.19Z"/><circle cx="29.08" cy="40.7" r="1.35"/><path d="M26.84,48.2H27l.08,0,.19-.07.08,0,.12,0H28l.1,0,.08,0,.12.06.07,0,.16.07.08,0,.08,0,.08,0,.17,0h.18l.08,0,0,0,.07,0,0,0s0,0,0,0l-.11,0-.08,0-.1,0-.06,0L28.91,48s0,0,0,0h0l.07,0h0l.06,0h.06a0,0,0,0,0,0,0,.07.07,0,0,0,0,0s0,0,0,0l.07,0h0l.07,0h.07l.07,0s0,0,0,0l0,0s0,0,0,0h0s0,0,0,0,0,0,0,0h0l.08,0h.19s0,0,0,0l-.05,0h0l-.07,0h0l-.07,0h0l-.08,0-.21,0s0,0,0,0l.08,0,.07,0h0l.08,0h.08s0,0,0,0l0-.06s0,0,0,0h.07s0,0,0,0l0,0s0,0,0,0h.37l.07,0,.05,0s0,0,0,0l-.06,0-.07,0h0l-.07,0,0,0s0,0,0,0h.63l.05,0a0,0,0,0,0,0,0l0,0s0,0,0,0H31s0,0,0,0,0,0,0,0h.05l.08,0,.06,0a.07.07,0,0,1,0,.05v0a0,0,0,0,0,0,0h.07a.06.06,0,0,1,0,.05h0a0,0,0,0,0,0,0h.09l.06,0a.08.08,0,0,0,0-.06v-.07s0,0,0,0l0,0a.21.21,0,0,1,0,.08h0s0,.05,0,.07,0,0,0,0h.07s0,0,0,0h0a.14.14,0,0,0,0,.06v.07a.18.18,0,0,0,0,.07.11.11,0,0,0,0,.06h0l.05.06,0,0,0,.07h0l0,.06.12.13.05.06.07.09,0,.07.06.09,0,.07v0a.43.43,0,0,1,0,.08v0a.14.14,0,0,1,0,.08v0l0,0a.06.06,0,0,0,0,.05h0a0,0,0,0,1,0,0l-.06,0,0-.05L32,48.26l-.07,0s0,0,0,0v0a.27.27,0,0,1,0,.08v0a0,0,0,0,1,0,0l0,0a.07.07,0,0,1,0-.06v-.09a.09.09,0,0,0,0-.06l-.07,0-.12-.09-.07,0-.06,0-.08,0-.11,0-.06,0,0,0a.1.1,0,0,0-.07,0h0a.1.1,0,0,0-.06,0L31,48a.17.17,0,0,0,0,.07v.25s0,.06,0,.08l0,.16s0,.06,0,.08v.18a.18.18,0,0,0,0,.08v0a.22.22,0,0,1,0,.08v.1a.25.25,0,0,1,0,.08v0l0,.08,0,.12a.19.19,0,0,1,0,.06l-.08.08a.09.09,0,0,0,0,.07v.14a.38.38,0,0,1,0,.08v.22l0,.21a.58.58,0,0,0,0,.08v.08a.35.35,0,0,0,0,.08l0,.06a.35.35,0,0,1,0,.08v.09a.46.46,0,0,1,0,.08v.11a.32.32,0,0,0,0,.08l0,.2,0,.08,0,.07,0,.08.06.15a.11.11,0,0,0,.05.05l.07,0,.07,0,0,0a.14.14,0,0,1,0,.06l0,.16a0,0,0,0,1,0,0H31l-.07,0-.09-.07a.1.1,0,0,1,0-.07v0a0,0,0,0,0,0,0l0,0a.06.06,0,0,1-.06,0l-.05-.06a.14.14,0,0,1,0-.07v-.22a.43.43,0,0,0,0-.08l-.07-.22a.44.44,0,0,1,0-.08V51a.28.28,0,0,0,0-.08l0-.06,0-.07,0-.18,0-.07h0a.07.07,0,0,0-.06,0h-.31l-.15,0h-.19l-.08,0-.16-.06-.06,0,0-.05a.13.13,0,0,1,0-.07v0a.73.73,0,0,0,0-.08v-.14a.07.07,0,0,1,0-.06h.06l.07,0,.06.05,0,0a.12.12,0,0,1,0,.06.32.32,0,0,1,0,.07h0a0,0,0,0,0,0,.05,0,0,0,0,0,0,0v0a.05.05,0,0,1,0,0l.07,0,.06,0,.07,0H30l.13,0a0,0,0,0,0,0,0l-.07-.2A.16.16,0,0,0,30,50l0,0,0-.06-.06-.13a.08.08,0,0,0-.06,0h-.37l-.22.06-.08,0-.09,0h-.29l-.14,0-.08,0-.12,0-.08,0-.05,0a.05.05,0,0,0-.06,0l-.11.17,0,.06L28,50l-.06.05-.05,0a.12.12,0,0,0,0,.06v0a.27.27,0,0,0,0,.08l0,.08a.28.28,0,0,0,0,.07l.16.23,0,.06.11.13,0,.07,0,0,0,.06.1.08.06.05.1.09.05.06h0a0,0,0,0,1,0,.06l0,0-.07,0h-.19a.06.06,0,0,1-.05,0l0-.1,0-.07v0a.08.08,0,0,0-.06,0h0l-.06,0s0,0,0,0v0l0-.07L28,51l0-.07-.11-.16,0-.06-.18-.22-.06-.06-.09-.07a.17.17,0,0,1,0-.07h0a0,0,0,0,0,0,0l-.12,0-.08,0-.15,0-.08,0h0l-.06.05h0a.16.16,0,0,0,0,.07l0,.22v.08l-.05.43a.27.27,0,0,1,0,.08h0l0,.06-.11.09-.06.05-.07.07-.07,0-.2.07a0,0,0,0,1,0,0v-.17a.12.12,0,0,1,0-.07l.06,0,.13,0a.07.07,0,0,0,.05,0v0a.09.09,0,0,0,0-.07h0a0,0,0,0,1,0-.06l.08-.09,0-.07h0a.43.43,0,0,0,0-.08v-.24s0-.06,0-.08l0-.27a.69.69,0,0,1,0-.08v-.11a.46.46,0,0,1,0-.08h0a0,0,0,0,1,0,0h.35L27,50l.06-.05,0-.06,0-.06a.19.19,0,0,0,0-.08h0a.16.16,0,0,0,0-.07L27,49.48l0-.07v0l0-.08-.09-.17,0-.07,0-.08a.27.27,0,0,1,0-.08v-.16l0-.18s0,0,0,0,0,0,0,0v.08s0,0,0,0l0-.06a.06.06,0,0,0,0,0,.07.07,0,0,0-.05,0,.12.12,0,0,0,0,.06s0,.17,0,.17,0,0,0,0v0s0,0,0,0v.05a.14.14,0,0,0,0,.08h0a.15.15,0,0,1,0,.08l0,.09a.24.24,0,0,1,0,.07l-.06.07s0,0,0,0v-.09s0-.06,0-.08v0a.15.15,0,0,0,0-.07,0,0,0,0,0-.05,0h0a.1.1,0,0,0,0,.07v.09a.35.35,0,0,0,0,.08v0a.41.41,0,0,1,0,.08v.08s0,0,0,0l0-.09,0-.08,0-.15a.07.07,0,0,0,0,0s0,0,0,0l0-.05a.16.16,0,0,0,0-.07h0s0,0,0,0l0,0a.14.14,0,0,0,0,.07l0,.11a.32.32,0,0,1,0,.08l0,.07a.15.15,0,0,1-.05.06l-.08.05s0,0,0,0l.08-.12a.22.22,0,0,0,0-.07l0-.14s0,0,0,0l-.12.12a.13.13,0,0,0,0,.07l0,.16a.08.08,0,0,1,0,.06l0,0-.07,0,0,0s0,0,0,0l0-.19v-.08l0-.11s0,0,0,0l-.11.07-.06.06,0,.07,0,.07,0,.1,0,.06-.06.06-.07,0-.06,0s0,0,0,0l.09-.09,0-.07,0-.07s0,0,0,0l-.05,0-.07,0h-.11l-.08,0,0,0-.06,0,0,0s0,0,0,0l0-.08a.13.13,0,0,1,0-.06l.08,0,.07,0,0,0a.15.15,0,0,0,0-.06l0,0a0,0,0,0,0,0,0h-.11a.09.09,0,0,0-.07,0l0,.06,0,.07,0,0,0,.07-.09.23s0,0,0,0l0-.19a.35.35,0,0,1,0-.08l0-.1,0-.07.06-.1A0,0,0,0,0,25,49l0,0-.06-.05h0a.09.09,0,0,0-.06,0l-.07,0-.06,0-.05.06h0a.12.12,0,0,1-.06,0h-.14l-.07,0,0,0-.07,0,0,0s0,0,0,0h.11l.07,0,0,0,.06-.06,0,0a.08.08,0,0,0,0-.07h0s0,0,0,0a0,0,0,0,0,.06,0l0,0,.06,0h.19l.07,0,0,0,.06,0s0,0,0,0h0a0,0,0,0,1,0,0h.08a.05.05,0,0,0,.05,0l.05,0,.11,0a.07.07,0,0,0,0,0,.07.07,0,0,0,0-.06h0l-.06,0s0,0,0,0l.07,0h.08l.06,0h0l.07,0h0l.07,0,.09,0,.08,0,.18,0h.44l.13,0,.08,0Z"/></g></g></svg>