<svg xmlns="http://www.w3.org/2000/svg" viewBox="0 0 54.34 83.5"><defs><style>.cls-1{fill:#fff;}.cls-2{fill:none;}</style></defs><title>Ресурс 4clock</title><g id="Слой_2" data-name="Слой 2"><g id="Layer_1" data-name="Layer 1"><path d="M28,75,26.89,52.75h0l.39-3.37h.24l.73,3.32h0l1.11,22.27L28,75Zm.24-.26.92,0L28.06,52.87l-.6-2.72-.32,2.75,1.09,21.85Z"/><path d="M26.25,75.18,25.14,52.91h0l.39-3.37h.24l.73,3.32h0l1.11,22.27-1.42.07Zm.24-.26.92,0L26.31,53l-.6-2.72-.32,2.75,1.09,21.85Z"/><path d="M25.15,82.43a4.43,4.43,0,0,1-.49-6.25h0a4.43,4.43,0,0,1,6.25-.49h0a4.43,4.43,0,0,1,.49,6.25h0a4.43,4.43,0,0,1-6.25.49Zm.32-.37a3.94,3.94,0,0,0,2.87.93h0A3.92,3.92,0,0,0,31,81.62h0A3.93,3.93,0,0,0,32,78.76h0a3.94,3.94,0,0,0-1.37-2.69h0a3.92,3.92,0,0,0-2.87-.93h0A3.93,3.93,0,0,0,25,76.5h0a3.94,3.94,0,0,0-.93,2.87h0a3.93,3.93,0,0,0,1.37,2.69Z"/><path d="M26.33,81.07A2.59,2.59,0,0,1,26,77.41h0a2.6,2.6,0,0,1,3.66-.29h0A2.59,2.59,0,0,1,30,80.79h0a2.59,2.59,0,0,1-3.66.29Zm.19-.22a2.3,2.3,0,0,0,1.68.55h0a2.3,2.3,0,0,0,1.57-.8h0a2.3,2.3,0,0,0,.55-1.68h0a2.31,2.31,0,0,0-.8-1.57h0a2.29,2.29,0,0,0-1.68-.55h0a2.3,2.3,0,0,0-1.57.8h0a2.31,2.31,0,0,0-.55,1.68h0a2.3,2.3,0,0,0,.8,1.57Z"/><circle class="cls-1" cx="27.28" cy="27.38" r="26.58"/><circle class="cls-2" cx="27.17" cy="27.17" r="26.42"/><path d="M0,27.16A27.17,27.17,0,0,1,27.17,0h0A27.17,27.17,0,0,1,54.33,27.16h0A27.17,27.17,0,0,1,27.17,54.33h0A27.17,27.17,0,0,1,0,27.16Zm1.5,0A25.7,25.7,0,0,0,27.17,52.83h0A25.7,25.7,0,0,0,52.83,27.16h0A25.7,25.7,0,0,0,27.17,1.5h0A25.7,25.7,0,0,0,1.5,27.16Z"/><path d="M25.6,12.95h.22a.34.34,0,0,0,.31-.15.89.89,0,0,0,.1-.47v-1.4a2.17,2.17,0,0,0,0-.33.4.4,0,0,0-.07-.17.36.36,0,0,0-.31-.15h-.16V10.2l.33,0a1.23,1.23,0,0,0,.27-.1,1.68,1.68,0,0,0,.27-.17h.1V12.4q0,.54.4.54h.2V13H25.6Z"/><path d="M29.33,11.82,29.18,13H27.56a1.08,1.08,0,0,1,.16-.49,4.17,4.17,0,0,1,.53-.65l.26-.29,0,0,0,0a1.39,1.39,0,0,0,.18-.37,1.5,1.5,0,0,0,.05-.42,1.15,1.15,0,0,0-.13-.61.42.42,0,0,0-.38-.21.57.57,0,0,0-.34.11.75.75,0,0,0-.24.3,1,1,0,0,0-.09.41c0,.16,0,.25.08.25s0,0,0-.07a.75.75,0,0,1,0-.11.5.5,0,0,1,.1-.2.21.21,0,0,1,.16-.06.22.22,0,0,1,.14,0,.32.32,0,0,1,.1.14.58.58,0,0,1,0,.2.57.57,0,0,1,0,.23.4.4,0,0,1-.12.16.26.26,0,0,1-.17.06.33.33,0,0,1-.28-.17.83.83,0,0,1-.11-.45,1.21,1.21,0,0,1,0-.32.94.94,0,0,1,.13-.28.77.77,0,0,1,.69-.33.91.91,0,0,1,.36.07.79.79,0,0,1,.28.2.88.88,0,0,1,.18.3,1.1,1.1,0,0,1,.06.38,1,1,0,0,1-.14.53,1,1,0,0,1-.13.18,2.58,2.58,0,0,1-.44.32,2.61,2.61,0,0,0-.58.44l-.15.18h1a.49.49,0,0,0,.21,0,.26.26,0,0,0,.11-.13,1.32,1.32,0,0,0,.07-.29l0-.15Z"/><path d="M43,27.19h0a1.08,1.08,0,0,1,.35.12.79.79,0,0,1,.22.18.72.72,0,0,1,.13.24.91.91,0,0,1,0,.29.89.89,0,0,1-.12.47.84.84,0,0,1-.35.32,1.16,1.16,0,0,1-.52.11,1.11,1.11,0,0,1-.33,0,.77.77,0,0,1-.26-.13.65.65,0,0,1-.16-.23.7.7,0,0,1-.06-.29A.49.49,0,0,1,42,28a.22.22,0,0,1,.18-.11.2.2,0,0,1,.18.1.49.49,0,0,1,0,.42.42.42,0,0,1-.1.14.16.16,0,0,0-.06.11c0,.07,0,.12.13.17a.76.76,0,0,0,.33.07.46.46,0,0,0,.41-.18,1,1,0,0,0,.12-.61,1.24,1.24,0,0,0-.14-.63.41.41,0,0,0-.35-.18l-.21,0h-.08c-.06,0-.09,0-.09-.08s0-.08.1-.08h.1l.18,0a.35.35,0,0,0,.22-.06.37.37,0,0,0,.12-.2,1.53,1.53,0,0,0,0-.38,1.92,1.92,0,0,0,0-.25,1.24,1.24,0,0,0,0-.2A.51.51,0,0,0,43,25.9a.34.34,0,0,0-.3-.15.61.61,0,0,0-.22,0,.46.46,0,0,0-.16.1.19.19,0,0,0-.06.13.11.11,0,0,0,0,.06l.06.06a.31.31,0,0,1,.1.12.43.43,0,0,1,0,.18.41.41,0,0,1-.07.24.2.2,0,0,1-.17.1.21.21,0,0,1-.18-.11.47.47,0,0,1-.07-.26.74.74,0,0,1,.1-.39.69.69,0,0,1,.29-.26.91.91,0,0,1,.42-.09.88.88,0,0,1,.42.1.68.68,0,0,1,.28.28.94.94,0,0,1,.06.71.63.63,0,0,1-.13.22.66.66,0,0,1-.28.17Z"/><path d="M40.79,33.46h.12v2.08h.46v.36h-.46v.17a.63.63,0,0,0,.1.38.32.32,0,0,0,.27.13h.07v.08H40v-.08h.07a.45.45,0,0,0,.25-.06.35.35,0,0,0,.14-.19,1,1,0,0,0,0-.33v-.11h-1v-.36Zm-.28.58-.92,1.51h.92Z"/><path d="M34.88,39.24v.05a1.48,1.48,0,0,1-.15.26,1.06,1.06,0,0,1-.19.19,1,1,0,0,1-.31.16,1.25,1.25,0,0,1-.37.05,2,2,0,0,1-.42,0l-.09.91a1.77,1.77,0,0,1,.35-.25.75.75,0,0,1,.32-.06,1,1,0,0,1,.31,0,.84.84,0,0,1,.25.12.81.81,0,0,1,.2.21,1,1,0,0,1,.13.29,1.18,1.18,0,0,1,0,.33,1,1,0,0,1-.18.6.93.93,0,0,1-.82.4,1.06,1.06,0,0,1-.32,0,.78.78,0,0,1-.25-.13.6.6,0,0,1-.16-.21.66.66,0,0,1-.06-.27.47.47,0,0,1,.07-.28.22.22,0,0,1,.19-.11.2.2,0,0,1,.13,0,.31.31,0,0,1,.09.13.47.47,0,0,1,0,.18.38.38,0,0,1-.14.31.13.13,0,0,0-.06.09s0,.09.13.14a.65.65,0,0,0,.28.06.45.45,0,0,0,.42-.23,1.44,1.44,0,0,0,.13-.71,1.67,1.67,0,0,0-.06-.48.63.63,0,0,0-.18-.3.4.4,0,0,0-.28-.1.57.57,0,0,0-.2,0,.77.77,0,0,0-.19.11,1.85,1.85,0,0,0-.21.19h-.05l.16-1.7.19.07a2,2,0,0,0,.52.06h.26l.24,0Z"/><path d="M26.78,41.92v.47h0a.59.59,0,0,1,.54-.43.6.6,0,0,1,.37.13.86.86,0,0,1,.27.35,1.18,1.18,0,0,1,.1.49,1.27,1.27,0,0,1-.11.53.91.91,0,0,1-.3.38.73.73,0,0,1-.43.13.68.68,0,0,1-.35-.09.91.91,0,0,1-.29-.27,1.53,1.53,0,0,1-.17-.34,2.37,2.37,0,0,1-.11-.43,3,3,0,0,1,0-.48,2.69,2.69,0,0,1,.08-.67,1.63,1.63,0,0,1,.24-.53,1.08,1.08,0,0,1,.33-.33.75.75,0,0,1,.39-.12.56.56,0,0,1,.31.09.66.66,0,0,1,.23.25.75.75,0,0,1,.08.35.47.47,0,0,1-.07.26.2.2,0,0,1-.17.11.21.21,0,0,1-.18-.1.41.41,0,0,1-.07-.25.42.42,0,0,1,0-.18.37.37,0,0,1,.12-.13s.07-.07.07-.11a.15.15,0,0,0,0-.1.35.35,0,0,0-.13-.08.46.46,0,0,0-.17,0,.43.43,0,0,0-.41.28A2.09,2.09,0,0,0,26.78,41.92Zm0,.89v.29a1.7,1.7,0,0,0,0,.44.56.56,0,0,0,.14.27.31.31,0,0,0,.23.09.3.3,0,0,0,.29-.23.66.66,0,0,0,.05-.19,4.73,4.73,0,0,0,0-.6,2.7,2.7,0,0,0,0-.42.65.65,0,0,0-.09-.25.25.25,0,0,0-.22-.12.34.34,0,0,0-.23.09.6.6,0,0,0-.16.26A1.17,1.17,0,0,0,26.78,42.8Z"/><path d="M20.44,39.22v.08l0,.1c-.1.23-.17.42-.24.59s-.11.33-.16.48-.09.33-.13.53-.12.6-.16.9,0,.32,0,.47h-.5a3,3,0,0,1,.09-.46c.05-.17.1-.32.15-.44q.23-.59.59-1.3l.18-.36h-.95a.43.43,0,0,0-.24.06.36.36,0,0,0-.13.2,2.25,2.25,0,0,0-.07.43h-.05l.1-1.28Z"/><path d="M13,34.75a1,1,0,0,1-.36-.35,1,1,0,0,1-.11-.48,1.06,1.06,0,0,1,.1-.48.72.72,0,0,1,.29-.31.89.89,0,0,1,.45-.11.69.69,0,0,1,.61.29.67.67,0,0,1,.1.21.86.86,0,0,1,0,.25A.82.82,0,0,1,14,34a.66.66,0,0,1-.14.22,1.2,1.2,0,0,1-.25.2,1.31,1.31,0,0,1,.38.29.92.92,0,0,1,.21.6,1.07,1.07,0,0,1,0,.3.85.85,0,0,1-.12.25.92.92,0,0,1-.8.37,1.24,1.24,0,0,1-.41-.07.78.78,0,0,1-.31-.18.68.68,0,0,1-.19-.5.81.81,0,0,1,.06-.32.72.72,0,0,1,.19-.25A1.64,1.64,0,0,1,13,34.75Zm.07,0a1,1,0,0,0-.18.2.73.73,0,0,0-.1.23,1.32,1.32,0,0,0,0,.3q0,.69.6.7a.63.63,0,0,0,.31-.08.56.56,0,0,0,.22-.21.6.6,0,0,0,.08-.3.49.49,0,0,0-.09-.31l-.09-.1-.3-.2L13.35,35l-.1-.05-.07,0-.07,0Zm.55-.37a.71.71,0,0,0,.16-.27,1.23,1.23,0,0,0,0-.37.86.86,0,0,0-.12-.51.42.42,0,0,0-.37-.17.59.59,0,0,0-.29.07.47.47,0,0,0-.19.19.58.58,0,0,0-.07.29.61.61,0,0,0,0,.18.47.47,0,0,0,.07.15l.09.09a2.69,2.69,0,0,0,.46.27Z"/><path d="M12,27.49V27h0a.8.8,0,0,1-.22.32.49.49,0,0,1-.31.1.59.59,0,0,1-.29-.07.77.77,0,0,1-.24-.21,1,1,0,0,1-.16-.31,1.19,1.19,0,0,1-.06-.37,1.25,1.25,0,0,1,.11-.53.89.89,0,0,1,.3-.37.74.74,0,0,1,.43-.13.7.7,0,0,1,.49.2,1.34,1.34,0,0,1,.34.57,2.67,2.67,0,0,1,.12.83,2.16,2.16,0,0,1-.31,1.21,1.09,1.09,0,0,1-.33.33.74.74,0,0,1-.39.12.57.57,0,0,1-.5-.26.71.71,0,0,1-.13-.41.5.5,0,0,1,.07-.27.2.2,0,0,1,.17-.11.22.22,0,0,1,.18.1.48.48,0,0,1,0,.43.33.33,0,0,1-.11.13.15.15,0,0,0-.08.11.18.18,0,0,0,.1.14.46.46,0,0,0,.24.06.43.43,0,0,0,.4-.28A1.93,1.93,0,0,0,12,27.49Zm-.4-2a.32.32,0,0,0-.31.22.93.93,0,0,0,0,.19,1.27,1.27,0,0,0,0,.14c0,.06,0,.14,0,.23s0,.18,0,.25a2.76,2.76,0,0,0,0,.36.85.85,0,0,0,.06.23.27.27,0,0,0,.26.18.34.34,0,0,0,.3-.17.73.73,0,0,0,.11-.28,2.35,2.35,0,0,0,0-.44,2.5,2.5,0,0,0,0-.52.65.65,0,0,0-.13-.3A.29.29,0,0,0,11.59,25.49Z"/><path d="M12.46,20.41h.22a.34.34,0,0,0,.31-.15.89.89,0,0,0,.1-.47v-1.4a2.16,2.16,0,0,0,0-.33.4.4,0,0,0-.07-.17.36.36,0,0,0-.31-.15h-.16v-.08l.33,0a1.25,1.25,0,0,0,.27-.1,1.69,1.69,0,0,0,.27-.17h.1v2.53q0,.54.4.54h.2v.08H12.46Z"/><path d="M15.33,20.55a.65.65,0,0,1-.47-.21,1.47,1.47,0,0,1-.34-.59,2.63,2.63,0,0,1-.12-.82,2.67,2.67,0,0,1,.12-.82,1.52,1.52,0,0,1,.33-.59.63.63,0,0,1,.46-.22.53.53,0,0,1,.2,0,.7.7,0,0,1,.2.13,1.06,1.06,0,0,1,.18.2,1.71,1.71,0,0,1,.24.55,2.82,2.82,0,0,1,.08.71,3.05,3.05,0,0,1,0,.45,2.25,2.25,0,0,1-.1.4,1.67,1.67,0,0,1-.16.34,1.11,1.11,0,0,1-.21.25A.59.59,0,0,1,15.33,20.55Zm-.42-1.92v.58a3.35,3.35,0,0,0,.1,1q.1.31.3.31.4,0,.4-1.16v-.6q0-.26,0-.48a2.84,2.84,0,0,0,0-.33q-.08-.53-.36-.53a.26.26,0,0,0-.23.13,1,1,0,0,0-.13.4A5.09,5.09,0,0,0,14.91,18.63Z"/><path d="M17.65,15h.22a.34.34,0,0,0,.31-.15.89.89,0,0,0,.1-.47v-1.4a2.15,2.15,0,0,0,0-.33.4.4,0,0,0-.07-.17.36.36,0,0,0-.31-.15h-.16V12.2l.33,0a1.22,1.22,0,0,0,.27-.1,1.68,1.68,0,0,0,.27-.17h.1v2.53q0,.54.4.54h.2V15H17.65Z"/><path d="M19.68,15h.22a.34.34,0,0,0,.31-.15.89.89,0,0,0,.1-.47v-1.4a2.17,2.17,0,0,0,0-.33.4.4,0,0,0-.07-.17.36.36,0,0,0-.31-.15h-.16V12.2l.34,0a1.24,1.24,0,0,0,.27-.1,1.69,1.69,0,0,0,.27-.17h.1v2.53q0,.54.4.54h.2V15H19.68Z"/><path d="M34.2,15.09h.22a.34.34,0,0,0,.31-.15.89.89,0,0,0,.1-.47v-1.4a2.17,2.17,0,0,0,0-.33.4.4,0,0,0-.07-.17.36.36,0,0,0-.31-.15h-.16v-.08l.33,0a1.24,1.24,0,0,0,.27-.1,1.69,1.69,0,0,0,.27-.17h.1v2.53q0,.54.4.54h.2v.08H34.2Z"/><path d="M41.57,19.87l-.15,1.21H39.79a1.09,1.09,0,0,1,.16-.49,4.14,4.14,0,0,1,.53-.65l.26-.29,0,0,0,0a1.4,1.4,0,0,0,.18-.37,1.51,1.51,0,0,0,.05-.42,1.15,1.15,0,0,0-.13-.61.42.42,0,0,0-.38-.21.57.57,0,0,0-.34.11.75.75,0,0,0-.24.3,1,1,0,0,0-.09.41q0,.25.08.25s0,0,0-.07a.77.77,0,0,1,0-.11.5.5,0,0,1,.1-.2.22.22,0,0,1,.3,0,.31.31,0,0,1,.1.14.58.58,0,0,1,0,.2.57.57,0,0,1,0,.23.4.4,0,0,1-.12.16.27.27,0,0,1-.17.06.33.33,0,0,1-.28-.17.83.83,0,0,1-.11-.45,1.22,1.22,0,0,1,0-.32.94.94,0,0,1,.13-.28.77.77,0,0,1,.69-.33.91.91,0,0,1,.36.07.79.79,0,0,1,.28.2.89.89,0,0,1,.18.3,1.1,1.1,0,0,1,.06.38,1,1,0,0,1-.14.53.92.92,0,0,1-.13.18,2.52,2.52,0,0,1-.44.32,2.62,2.62,0,0,0-.58.44l-.15.18h1a.48.48,0,0,0,.21,0,.26.26,0,0,0,.12-.13,1.32,1.32,0,0,0,.07-.29l0-.15Z"/><path d="M7.87,27.2a19.4,19.4,0,0,1,19.4-19.4h0a19.4,19.4,0,0,1,19.4,19.4h0a19.39,19.39,0,0,1-19.4,19.39h0A19.39,19.39,0,0,1,7.87,27.2Zm5.82-13.57A19.13,19.13,0,0,0,8.07,27.2h0a19.13,19.13,0,0,0,5.62,13.57h0a19.12,19.12,0,0,0,13.57,5.62h0a19.13,19.13,0,0,0,13.57-5.62h0A19.13,19.13,0,0,0,46.45,27.2h0a19.13,19.13,0,0,0-5.62-13.57h0A19.14,19.14,0,0,0,27.26,8h0a19.14,19.14,0,0,0-13.57,5.62Z"/><path d="M27.35,10.23V7.86h-.15v2.38Z"/><path d="M27.21,44.24v2.24h.15V44.23Z"/><path d="M42.23,19.24l2.07-1.09-.06-.1-2.06,1.09Z"/><path d="M12.18,34.92l-2,1.36,0,.12,2-1.35Z"/><path d="M36,12.23l1-1.64-.08,0-1,1.63Z"/><path d="M18.88,41.66,17.58,44l.1.06L19,41.72Z"/><path d="M35.25,9.59l-.13-.06-.49,1.08.13.06Z"/><path d="M19.25,44.74l.13.06.46-1-.13-.07Z"/><path d="M33.11,8.76l-.14,0-.35,1.13.14,0Z"/><path d="M21.4,45.56l.14,0,.33-1.05-.14,0Z"/><path d="M31.27,8.34l-.14,0-.23,1.11.14,0Z"/><path d="M23.19,46.1l.14,0L23.57,45l-.14,0Z"/><path d="M29.23,8l-.15,0L29,9.14h.15Z"/><path d="M25.24,46.42l.15,0,.11-1.15-.15,0Z"/><path d="M9.66,19.17l-.06.13,1.12.51.06-.13Z"/><path d="M44.8,35.18l.06-.13-1-.44-.06.13Z"/><path d="M8.83,21.31l0,.14,1.16.36.05-.14Z"/><path d="M45.62,33l0-.14-1-.32-.05.15Z"/><path d="M8.4,23.15l0,.15,1.14.24s0-.09,0-.14Z"/><path d="M46.16,31.24l0-.14-1.1-.23,0,.14Z"/><path d="M8.08,25.19l0,.15,1.16.12s0-.1,0-.15Z"/><path d="M46.53,29.2l0-.15-1.18-.12s0,.1,0,.15Z"/><path d="M46.52,25.61v-.15l-1.14.1s0,.1,0,.15Z"/><path d="M8,28.88V29l1.16-.1s0-.1,0-.15Z"/><path d="M46.19,23.34l0-.14-1.11.23,0,.14Z"/><path d="M8.37,31.15l0,.14,1.14-.24s0-.09,0-.14Z"/><path d="M45.78,21.52l0-.14-1.13.35,0,.14Z"/><path d="M8.9,33l0,.14L10,32.78,10,32.64Z"/><path d="M9.62,34.91l.06.14,1-.45-.06-.13Z"/><path d="M45.06,19.58,45,19.44l-1.08.48L44,20Z"/><path d="M43.33,16.38l-.08-.12-1,.68.09.12Z"/><path d="M11.34,38l.08.12.91-.62-.09-.12Z"/><path d="M41.93,14.56l-.1-.11-.91.79.1.11Z"/><path d="M40.44,13.1l-.11-.1-.77.85.11.1Z"/><path d="M12.69,39.85l.1.11.88-.77-.1-.11Z"/><path d="M14.08,41.17l.11.1.73-.77-.11-.1Z"/><path d="M39.06,11.89l-.12-.09-.71.94.12.09Z"/><path d="M15.66,42.51l.12.09.65-.85-.12-.09Z"/><path d="M25.74,8h-.15l.09,1.15h.15Z"/><path d="M28.67,46.48h.15l-.09-1.15h-.15Z"/><path d="M30.95,46.17l.14,0L30.87,45l-.14,0Z"/><path d="M23.47,8.28l-.14,0,.23,1.14.14,0Z"/><path d="M21.65,8.79l-.14,0,.32,1.06.14,0Z"/><path d="M32.78,45.77l.14,0-.34-1.13-.14,0Z"/><path d="M19.7,9.49l-.13.06.44,1,.13-.06Z"/><path d="M34.73,45.07l.13-.06-.46-1.07-.14.05Z"/><path d="M16.38,11.32l-.12.08.64.93.12-.09Z"/><path d="M38.17,43.21l.12-.09-.67-1-.12.09Z"/><path d="M14.52,12.7l-.11.1.79.89.11-.1Z"/><path d="M40,41.8l.11-.1-.78-.89-.11.1Z"/><path d="M13.15,14l-.1.11.89.83.1-.11Z"/><path d="M41.32,40.53l.1-.11-.87-.81-.1.11Z"/><path d="M11.91,15.65l-.09.12.88.66.09-.12Z"/><path d="M42.67,39l.09-.12-1-.71-.09.12Z"/><path d="M19.29,12.18l-1.21-2-.11.05,1.21,2Z"/><path d="M35.2,42.24l1.11,1.88.1,0-1.1-1.87Z"/><path d="M12.9,18.87l-2.36-1.33-.06.11L12.84,19Z"/><path d="M42,35.73l-.06.09,2,1.11.05-.09Z"/><path d="M10.42,27.1H7.93v.15h2.5S10.42,27.15,10.42,27.1Z"/><path d="M44.09,27.1s0,.1,0,.15h2.47V27.1Z"/><circle cx="27.11" cy="27.04" r="0.59"/><circle cx="27.65" cy="73.42" r="2.19"/><polygon points="26.3 24.01 26.1 24.08 32.05 41.04 32.25 40.97 26.3 24.01"/><polygon points="32.24 40.95 33.08 43.66 32.04 41.01 32.24 40.95"/><path d="M6.49,27.11A20.82,20.82,0,0,1,27.31,6.29h0A20.82,20.82,0,0,1,48.14,27.11h0A20.83,20.83,0,0,1,27.31,47.94h0A20.82,20.82,0,0,1,6.49,27.11Zm6.28-14.54a20.5,20.5,0,0,0-6,14.54h0a20.5,20.5,0,0,0,6,14.54h0a20.5,20.5,0,0,0,14.54,6h0a20.5,20.5,0,0,0,14.54-6h0a20.5,20.5,0,0,0,6-14.54h0a20.5,20.5,0,0,0-6-14.54h0a20.5,20.5,0,0,0-14.54-6h0a20.49,20.49,0,0,0-14.54,6Z"/><path d="M2.11,27.11A25.07,25.07,0,0,1,27.19,2h0A25.07,25.07,0,0,1,52.26,27.11h0A25.07,25.07,0,0,1,27.19,52.19h0A25.07,25.07,0,0,1,2.11,27.11ZM9.68,9.61A24.68,24.68,0,0,0,2.42,27.11h0A24.68,24.68,0,0,0,9.68,44.62h0a24.69,24.69,0,0,0,17.51,7.25h0a24.69,24.69,0,0,0,17.51-7.25h0a24.68,24.68,0,0,0,7.25-17.51h0A24.68,24.68,0,0,0,44.69,9.61h0A24.68,24.68,0,0,0,27.19,2.35h0A24.68,24.68,0,0,0,9.68,9.61Z"/><path d="M15.27,27.34a12,12,0,0,1,12-12h0a12,12,0,0,1,12,12h0a12,12,0,0,1-12,12h0a12,12,0,0,1-12-12ZM18.89,19a11.83,11.83,0,0,0-3.47,8.39h0a11.82,11.82,0,0,0,3.47,8.39h0a11.82,11.82,0,0,0,8.39,3.47h0a11.82,11.82,0,0,0,8.39-3.47h0a11.82,11.82,0,0,0,3.47-8.39h0A11.83,11.83,0,0,0,35.67,19h0a11.82,11.82,0,0,0-8.39-3.47h0A11.82,11.82,0,0,0,18.89,19Z"/><path d="M5.18,15.8a2.27,2.27,0,0,1,2.27-2.27h0A2.27,2.27,0,0,1,9.71,15.8h0a2.27,2.27,0,0,1-2.27,2.26h0A2.27,2.27,0,0,1,5.18,15.8Zm.5,0a1.77,1.77,0,0,0,1.77,1.76h0A1.77,1.77,0,0,0,9.21,15.8h0A1.77,1.77,0,0,0,7.45,14h0A1.77,1.77,0,0,0,5.68,15.8Z"/><path d="M3.18,20.42a2.27,2.27,0,0,1,2.27-2.27h0a2.27,2.27,0,0,1,2.27,2.27h0a2.27,2.27,0,0,1-2.27,2.26h0a2.27,2.27,0,0,1-2.27-2.26Zm.5,0a1.77,1.77,0,0,0,1.77,1.76h0a1.77,1.77,0,0,0,1.77-1.76h0a1.77,1.77,0,0,0-1.77-1.77h0a1.77,1.77,0,0,0-1.77,1.77Z"/><path d="M2.31,25.36a2.27,2.27,0,0,1,2.27-2.27h0a2.27,2.27,0,0,1,2.27,2.27h0a2.27,2.27,0,0,1-2.27,2.26h0a2.27,2.27,0,0,1-2.27-2.26Zm.5,0a1.77,1.77,0,0,0,1.77,1.76h0a1.77,1.77,0,0,0,1.77-1.76h0A1.77,1.77,0,0,0,4.57,23.6h0a1.77,1.77,0,0,0-1.77,1.77Z"/><path d="M2.37,30.55a2.27,2.27,0,0,1,2.27-2.27h0A2.27,2.27,0,0,1,6.9,30.55h0a2.27,2.27,0,0,1-2.27,2.26h0a2.27,2.27,0,0,1-2.27-2.26Zm.5,0a1.77,1.77,0,0,0,1.77,1.76h0A1.77,1.77,0,0,0,6.4,30.55h0a1.77,1.77,0,0,0-1.77-1.77h0a1.77,1.77,0,0,0-1.77,1.77Z"/><path d="M3.68,35.36a2.27,2.27,0,0,1,2.27-2.27h0a2.27,2.27,0,0,1,2.27,2.27h0a2.27,2.27,0,0,1-2.27,2.26h0a2.27,2.27,0,0,1-2.27-2.26Zm.5,0a1.77,1.77,0,0,0,1.77,1.76h0a1.77,1.77,0,0,0,1.77-1.76h0A1.77,1.77,0,0,0,5.95,33.6h0a1.77,1.77,0,0,0-1.77,1.77Z"/><path d="M6,39.8a2.27,2.27,0,0,1,2.27-2.27h0a2.27,2.27,0,0,1,2.27,2.27h0a2.27,2.27,0,0,1-2.27,2.26h0A2.27,2.27,0,0,1,6,39.8Zm.5,0a1.77,1.77,0,0,0,1.77,1.76h0A1.77,1.77,0,0,0,10,39.8h0A1.77,1.77,0,0,0,8.26,38h0A1.77,1.77,0,0,0,6.5,39.8Z"/><path d="M9.31,43.61a2.27,2.27,0,0,1,2.27-2.27h0a2.27,2.27,0,0,1,2.27,2.27h0a2.27,2.27,0,0,1-2.27,2.26h0a2.27,2.27,0,0,1-2.27-2.26Zm.5,0a1.77,1.77,0,0,0,1.77,1.76h0a1.77,1.77,0,0,0,1.77-1.76h0a1.77,1.77,0,0,0-1.77-1.77h0a1.77,1.77,0,0,0-1.77,1.77Z"/><path d="M13.5,46.8a2.27,2.27,0,0,1,2.27-2.27h0A2.27,2.27,0,0,1,18,46.8h0a2.27,2.27,0,0,1-2.27,2.26h0A2.27,2.27,0,0,1,13.5,46.8Zm.5,0a1.77,1.77,0,0,0,1.77,1.76h0a1.77,1.77,0,0,0,1.77-1.76h0A1.77,1.77,0,0,0,15.76,45h0A1.77,1.77,0,0,0,14,46.8Z"/><path d="M18.43,48.92a2.27,2.27,0,0,1,2.27-2.27h0A2.27,2.27,0,0,1,23,48.92h0a2.27,2.27,0,0,1-2.27,2.26h0a2.27,2.27,0,0,1-2.27-2.26Zm.5,0a1.77,1.77,0,0,0,1.77,1.76h0a1.77,1.77,0,0,0,1.77-1.76h0a1.77,1.77,0,0,0-1.77-1.77h0a1.77,1.77,0,0,0-1.77,1.77Z"/><path d="M23.37,49.86a2.27,2.27,0,0,1,2.27-2.27h0a2.27,2.27,0,0,1,2.27,2.27h0a2.27,2.27,0,0,1-2.27,2.26h0a2.27,2.27,0,0,1-2.27-2.26Zm.5,0a1.77,1.77,0,0,0,1.77,1.76h0a1.77,1.77,0,0,0,1.77-1.76h0a1.77,1.77,0,0,0-1.77-1.77h0a1.77,1.77,0,0,0-1.77,1.77Z"/><path d="M28.52,49.73a2.27,2.27,0,0,1,2.27-2.27h0A2.27,2.27,0,0,1,33,49.73h0A2.27,2.27,0,0,1,30.78,52h0a2.27,2.27,0,0,1-2.27-2.26Zm.5,0a1.77,1.77,0,0,0,1.77,1.76h0a1.77,1.77,0,0,0,1.77-1.76h0A1.77,1.77,0,0,0,30.78,48h0A1.77,1.77,0,0,0,29,49.73Z"/><path d="M33.81,48.24A2.27,2.27,0,0,1,36.07,46h0a2.27,2.27,0,0,1,2.27,2.27h0a2.27,2.27,0,0,1-2.27,2.26h0a2.27,2.27,0,0,1-2.27-2.26Zm.5,0A1.77,1.77,0,0,0,36.07,50h0a1.77,1.77,0,0,0,1.77-1.76h0a1.77,1.77,0,0,0-1.77-1.77h0a1.77,1.77,0,0,0-1.77,1.77Z"/><path d="M38.5,45.61a2.27,2.27,0,0,1,2.27-2.27h0A2.27,2.27,0,0,1,43,45.61h0a2.27,2.27,0,0,1-2.27,2.26h0a2.27,2.27,0,0,1-2.27-2.26Zm.5,0a1.77,1.77,0,0,0,1.77,1.76h0a1.77,1.77,0,0,0,1.77-1.76h0a1.77,1.77,0,0,0-1.77-1.77h0A1.77,1.77,0,0,0,39,45.61Z"/><path d="M42.31,42.11a2.27,2.27,0,0,1,2.27-2.27h0a2.27,2.27,0,0,1,2.27,2.27h0a2.27,2.27,0,0,1-2.27,2.26h0a2.27,2.27,0,0,1-2.27-2.26Zm.5,0a1.77,1.77,0,0,0,1.77,1.76h0a1.77,1.77,0,0,0,1.77-1.76h0a1.77,1.77,0,0,0-1.77-1.77h0a1.77,1.77,0,0,0-1.77,1.77Z"/><path d="M8.12,11.74a2.27,2.27,0,0,1,2.27-2.27h0a2.27,2.27,0,0,1,2.27,2.27h0A2.27,2.27,0,0,1,10.39,14h0a2.27,2.27,0,0,1-2.27-2.26Zm.5,0a1.77,1.77,0,0,0,1.77,1.76h0a1.77,1.77,0,0,0,1.77-1.76h0A1.77,1.77,0,0,0,10.39,10h0a1.77,1.77,0,0,0-1.77,1.77Z"/><path d="M12,8.49a2.27,2.27,0,0,1,2.27-2.27h0a2.27,2.27,0,0,1,2.27,2.27h0a2.27,2.27,0,0,1-2.27,2.26h0A2.27,2.27,0,0,1,12,8.49Zm.5,0a1.77,1.77,0,0,0,1.77,1.76h0A1.77,1.77,0,0,0,16,8.49h0a1.77,1.77,0,0,0-1.77-1.77h0A1.77,1.77,0,0,0,12.5,8.49Z"/><path d="M16.31,6.11a2.27,2.27,0,0,1,2.27-2.27h0a2.27,2.27,0,0,1,2.27,2.27h0a2.27,2.27,0,0,1-2.27,2.26h0a2.27,2.27,0,0,1-2.27-2.26Zm.5,0a1.77,1.77,0,0,0,1.77,1.76h0a1.77,1.77,0,0,0,1.77-1.76h0a1.77,1.77,0,0,0-1.77-1.77h0a1.77,1.77,0,0,0-1.77,1.77Z"/><path d="M21.31,4.61a2.27,2.27,0,0,1,2.27-2.27h0a2.27,2.27,0,0,1,2.27,2.27h0a2.27,2.27,0,0,1-2.27,2.26h0a2.27,2.27,0,0,1-2.27-2.26Zm.5,0a1.77,1.77,0,0,0,1.77,1.76h0a1.77,1.77,0,0,0,1.77-1.76h0a1.77,1.77,0,0,0-1.77-1.77h0a1.77,1.77,0,0,0-1.77,1.77Z"/><path d="M26.18,4.36a2.27,2.27,0,0,1,2.27-2.27h0a2.27,2.27,0,0,1,2.27,2.27h0a2.27,2.27,0,0,1-2.27,2.26h0a2.27,2.27,0,0,1-2.27-2.26Zm.5,0a1.77,1.77,0,0,0,1.77,1.76h0a1.77,1.77,0,0,0,1.77-1.76h0A1.77,1.77,0,0,0,28.45,2.6h0a1.77,1.77,0,0,0-1.77,1.77Z"/><path d="M31.25,5.3A2.27,2.27,0,0,1,33.51,3h0A2.27,2.27,0,0,1,35.78,5.3h0a2.27,2.27,0,0,1-2.27,2.26h0A2.27,2.27,0,0,1,31.25,5.3Zm.5,0a1.77,1.77,0,0,0,1.77,1.76h0A1.77,1.77,0,0,0,35.28,5.3h0a1.77,1.77,0,0,0-1.77-1.77h0A1.77,1.77,0,0,0,31.75,5.3Z"/><path d="M35.93,7.17A2.27,2.27,0,0,1,38.2,4.91h0a2.27,2.27,0,0,1,2.27,2.27h0A2.27,2.27,0,0,1,38.2,9.44h0a2.27,2.27,0,0,1-2.27-2.26Zm.5,0A1.77,1.77,0,0,0,38.2,8.94h0A1.77,1.77,0,0,0,40,7.17h0A1.77,1.77,0,0,0,38.2,5.41h0a1.77,1.77,0,0,0-1.77,1.77Z"/><path d="M40.06,10.11a2.27,2.27,0,0,1,2.27-2.27h0a2.27,2.27,0,0,1,2.27,2.27h0a2.27,2.27,0,0,1-2.27,2.26h0a2.27,2.27,0,0,1-2.27-2.26Zm.5,0a1.77,1.77,0,0,0,1.77,1.76h0a1.77,1.77,0,0,0,1.77-1.76h0a1.77,1.77,0,0,0-1.77-1.77h0a1.77,1.77,0,0,0-1.77,1.77Z"/><path d="M43.49,13.92a2.27,2.27,0,0,1,2.27-2.27h0A2.27,2.27,0,0,1,48,13.92h0a2.27,2.27,0,0,1-2.27,2.26h0a2.27,2.27,0,0,1-2.27-2.26Zm.5,0a1.77,1.77,0,0,0,1.77,1.76h0a1.77,1.77,0,0,0,1.77-1.76h0a1.77,1.77,0,0,0-1.77-1.77h0A1.77,1.77,0,0,0,44,13.92Z"/><path d="M45.93,18.42a2.27,2.27,0,0,1,2.27-2.27h0a2.27,2.27,0,0,1,2.27,2.27h0a2.27,2.27,0,0,1-2.27,2.26h0a2.27,2.27,0,0,1-2.27-2.26Zm.5,0a1.77,1.77,0,0,0,1.77,1.76h0A1.77,1.77,0,0,0,50,18.42h0a1.77,1.77,0,0,0-1.77-1.77h0a1.77,1.77,0,0,0-1.77,1.77Z"/><path d="M47.43,23.3A2.27,2.27,0,0,1,49.7,21h0A2.27,2.27,0,0,1,52,23.3h0a2.27,2.27,0,0,1-2.27,2.26h0a2.27,2.27,0,0,1-2.27-2.26Zm.5,0a1.77,1.77,0,0,0,1.77,1.76h0a1.77,1.77,0,0,0,1.77-1.76h0a1.77,1.77,0,0,0-1.77-1.77h0a1.77,1.77,0,0,0-1.77,1.77Z"/><path d="M47.68,28.24A2.27,2.27,0,0,1,49.95,26h0a2.27,2.27,0,0,1,2.27,2.27h0a2.27,2.27,0,0,1-2.27,2.26h0a2.27,2.27,0,0,1-2.27-2.26Zm.5,0A1.77,1.77,0,0,0,49.95,30h0a1.77,1.77,0,0,0,1.77-1.76h0a1.77,1.77,0,0,0-1.77-1.77h0a1.77,1.77,0,0,0-1.77,1.77Z"/><path d="M46.93,33.3A2.27,2.27,0,0,1,49.2,31h0a2.27,2.27,0,0,1,2.27,2.27h0a2.27,2.27,0,0,1-2.27,2.26h0a2.27,2.27,0,0,1-2.27-2.26Zm.5,0a1.77,1.77,0,0,0,1.77,1.76h0A1.77,1.77,0,0,0,51,33.3h0a1.77,1.77,0,0,0-1.77-1.77h0a1.77,1.77,0,0,0-1.77,1.77Z"/><path d="M45,37.92a2.27,2.27,0,0,1,2.27-2.27h0a2.27,2.27,0,0,1,2.27,2.27h0a2.27,2.27,0,0,1-2.27,2.26h0A2.27,2.27,0,0,1,45,37.92Zm.5,0a1.77,1.77,0,0,0,1.77,1.76h0A1.77,1.77,0,0,0,49,37.92h0a1.77,1.77,0,0,0-1.77-1.77h0a1.77,1.77,0,0,0-1.77,1.77Z"/><path d="M21,32.6a.63.63,0,1,0,.89-.05A.63.63,0,0,0,21,32.6Zm.86.79a.54.54,0,1,1,0-.76A.54.54,0,0,1,21.81,33.39Z"/><path d="M22.11,32.25A.63.63,0,1,0,23,32.2.63.63,0,0,0,22.11,32.25ZM23,33a.54.54,0,1,1,0-.76A.54.54,0,0,1,23,33Z"/><path d="M21.21,31.38a.63.63,0,1,0,.89-.05A.63.63,0,0,0,21.21,31.38Zm.86.79a.54.54,0,1,1,0-.76A.54.54,0,0,1,22.07,32.17Z"/><polygon points="36.4 16.85 38.6 15.38 37.14 17.59 36.4 16.85"/><path d="M37.49,19.72a1.41,1.41,0,0,0-.91-.93,1,1,0,1,0-1.31-1.25,1.4,1.4,0,0,0-1-.91,1.65,1.65,0,0,0-1.7.56,1.67,1.67,0,0,0-.32,1.56l.09.22a1.75,1.75,0,0,0,.76.78c.21.14.38.42.1.6l-.17.08L33,20.37a.2.2,0,0,0-.28.29l0,0-.89.91a.13.13,0,1,0-.18.19l-.09.09a.16.16,0,0,0-.21,0,.16.16,0,0,0,0,.22l.1.1-3.08,3.16.5.51L32,22.67l.08.08a.16.16,0,0,0,.22,0,.15.15,0,0,0,0-.19l.09-.09a.13.13,0,1,0,.18-.19l.89-.91,0,0a.2.2,0,1,0,.28-.29l-.05-.05.08-.18c.17-.29.46-.13.6.08a1.75,1.75,0,0,0,.8.74l.22.08A1.67,1.67,0,0,0,37,21.43,1.65,1.65,0,0,0,37.49,19.72Zm-.55-.23a.65.65,0,0,0-.34-.13.46.46,0,0,0-.36.18s-.23-.31-.26-.26l0,0,.1-.06C36.43,19,36.73,19.28,36.94,19.49Zm-.46.43c0-.06,0-.11,0-.14a.22.22,0,0,1,.25.13.28.28,0,0,1-.27.37A1.34,1.34,0,0,0,36.48,19.92Zm-.41.38-.17-.1a.65.65,0,0,1-.2-.33.5.5,0,0,1,0-.14s0-.14,0-.14a.75.75,0,0,1,.35.46S36.06,20.29,36.07,20.3Zm-.28-2.89a.61.61,0,1,1,0,.87A.61.61,0,0,1,35.79,17.41Zm-.66.91a1.13,1.13,0,0,0,.12-.24,1,1,0,0,0,.28.49,1,1,0,0,0,.47.26,1.16,1.16,0,0,0-.23.12c-.09.06-.18.18-.29.17a1.69,1.69,0,0,0-.48,0,1.73,1.73,0,0,0,0-.47C35,18.5,35.08,18.4,35.14,18.31Zm-.44-.81a.66.66,0,0,0-.14-.33c.21.2.51.5.34.81l-.06.11,0,0s-.23-.3-.27-.25A.46.46,0,0,0,34.69,17.5Zm-.21.9-.14,0-.14,0a.66.66,0,0,1-.33-.19l-.11-.16s.22,0,.25,0A.75.75,0,0,1,34.49,18.4Zm-.34-1a.21.21,0,0,1,.13.25c0,.08-.08.05-.14,0a1.33,1.33,0,0,0-.35,0A.28.28,0,0,1,34.14,17.35ZM33,18a.89.89,0,0,0-.2.42l0,.17,0,.17a.33.33,0,0,0,0-.1l-.05-.17a1.15,1.15,0,0,1,0-.46.88.88,0,0,1,.1-.3,1.41,1.41,0,0,1,.92-.69c.08,0,.19,0,.26,0l-.19.1a.53.53,0,0,0-.26.4s0,.24,0,.25A.81.81,0,0,0,33,18Zm.22.39a.53.53,0,0,1,.19-.16c-.06,0,.24.39.29.42l.06,0s-.15.18-.17.19a.27.27,0,0,1-.41-.1A.34.34,0,0,1,33.2,18.37Zm0,.92a1.54,1.54,0,0,0,.24.08.57.57,0,0,0,.37-.09.79.79,0,0,0,.33-.47s.19,0,.21,0a.71.71,0,0,0,.28,0,.56.56,0,0,1-.23.51.89.89,0,0,1-.6.21A1.16,1.16,0,0,1,33.18,19.29Zm1,.88c-.18.18-.39.27-.46.2s0-.29.19-.47.39-.27.46-.2S34.39,20,34.21,20.18Zm.63.13a.56.56,0,0,0-.08.37,1.56,1.56,0,0,0,.09.24,1.16,1.16,0,0,1-.27-.6.89.89,0,0,1,.19-.6.56.56,0,0,1,.51-.24.71.71,0,0,0,0,.28s0,.22,0,.21A.79.79,0,0,0,34.84,20.31Zm.54.62a.27.27,0,0,1-.12-.41s.17-.19.19-.18l0,.06c0,.05.41.33.43.28a.52.52,0,0,1-.15.19A.35.35,0,0,1,35.38,20.93Zm1.74-.51a1.41,1.41,0,0,1-.67.94.84.84,0,0,1-.3.11,1.15,1.15,0,0,1-.46,0l-.17,0a.33.33,0,0,0-.1,0l.17,0,.17,0a.9.9,0,0,0,.41-.21.81.81,0,0,0,.22-.41c0-.05.21,0,.25,0a.53.53,0,0,0,.39-.27l.1-.19C37.09,20.23,37.13,20.34,37.12,20.42Z"/><rect x="21.03" y="28.2" width="9.42" height="0.72" transform="translate(-12.67 26.86) rotate(-45.44)"/><circle cx="21.57" cy="32.86" r="0.32"/><circle cx="22.74" cy="32.82" r="0.32"/><circle cx="21.5" cy="31.67" r="0.32"/><circle cx="22.25" cy="32.06" r="0.32"/><path d="M31.76,27.8a.51.51,0,1,0-.5-.52A.51.51,0,0,0,31.76,27.8Zm0-.94a.43.43,0,0,1,.43.44.44.44,0,0,1-.44.43.44.44,0,1,1,0-.87Z"/><path d="M30.94,27.27a.51.51,0,1,0-.5-.52A.51.51,0,0,0,30.94,27.27Zm0-.94a.43.43,0,0,1,.43.44.44.44,0,1,1-.43-.44Z"/><path d="M30.88,28.28a.51.51,0,1,0-.5-.52A.51.51,0,0,0,30.88,28.28Zm0-.94a.44.44,0,1,1-.44.43A.43.43,0,0,1,30.91,27.34Z"/><polygon points="15.81 26.71 13.74 26.14 15.87 25.87 15.81 26.71"/><path d="M17,24.53a1.15,1.15,0,0,0-.09,1,.81.81,0,0,0-.36-.11.83.83,0,1,0-.1,1.65.82.82,0,0,0,.39-.07,1.14,1.14,0,0,0-.06,1.07,1.33,1.33,0,0,0,1.24.75,1.35,1.35,0,0,0,1.13-.63l.09-.17a1.42,1.42,0,0,0,.08-.88c0-.2.06-.45.32-.37l.14.06v.08a.16.16,0,0,0,.32,0v0l1,.06c0,.07,0,.12.1.13s.1,0,.11-.11h.1c0,.07,0,.14.1.14s.11-.06.12-.14v-.12l3.56.22,0-.57-3.57-.22v-.09a.13.13,0,0,0-.1-.15c-.05,0-.1,0-.11.11h-.1a.13.13,0,0,0-.1-.13c-.06,0-.1.05-.12.12l-1-.06v0a.16.16,0,0,0-.32,0v.06l-.15,0c-.27,0-.32-.21-.27-.41a1.41,1.41,0,0,0,0-.88l-.07-.18a1.35,1.35,0,0,0-1-.76A1.33,1.33,0,0,0,17,24.53Zm.15.46a.53.53,0,0,0,.1.27.38.38,0,0,0,.3.13s-.07.3,0,.3h0l-.09,0C17.1,25.57,17.12,25.23,17.14,25Zm.51.05s0,.08-.1.05a.17.17,0,0,1-.06-.22.22.22,0,0,1,.37,0S17.66,25,17.64,25Zm.45.05,0,.16a.53.53,0,0,1-.1.29l-.08.09-.1.06a.6.6,0,0,1,.1-.45S18.09,25.11,18.09,25.1Zm-1.63,1.69a.5.5,0,1,1,.53-.46A.5.5,0,0,1,16.46,26.79Zm.9-.08-.21.06a.82.82,0,0,0,.15-.43.81.81,0,0,0-.09-.42l.19.08c.08,0,.21,0,.25.09a1.37,1.37,0,0,0,.24.3,1.43,1.43,0,0,0-.27.27C17.57,26.72,17.45,26.7,17.37,26.71Zm-.26.7a.53.53,0,0,0-.13.26c0-.23,0-.58.32-.64l.1,0h0s-.06.3,0,.3A.37.37,0,0,0,17.1,27.41Zm.66-.34.09.07.06.09a.54.54,0,0,1,.06.3l0,.15s-.12-.14-.13-.16A.6.6,0,0,1,17.76,27.07Zm-.46.76a.17.17,0,0,1,.08-.21c.06,0,.08,0,.1.07a1.13,1.13,0,0,0,.18.22A.22.22,0,0,1,17.3,27.83Zm1,.38a.72.72,0,0,0,.36-.1l.12-.07.11-.08a.27.27,0,0,0,0,.07l-.08.13a.93.93,0,0,1-.26.27.71.71,0,0,1-.24.1,1.14,1.14,0,0,1-.91-.2s-.09-.13-.15-.15l.16.06a.43.43,0,0,0,.38,0s.14-.13.18-.11A.66.66,0,0,0,18.3,28.21Zm.13-.34a.43.43,0,0,1-.2,0s.11-.35.11-.4v-.06a.82.82,0,0,1,.21,0,.22.22,0,0,1,.15.31A.28.28,0,0,1,18.42,27.87ZM19,27.4a1.21,1.21,0,0,0-.08-.19.45.45,0,0,0-.25-.18.64.64,0,0,0-.46,0s-.08-.14-.08-.15a.59.59,0,0,0-.17-.15.45.45,0,0,1,.43-.13.72.72,0,0,1,.44.26A1,1,0,0,1,19,27.4Zm0-1.1c.21,0,.37.09.37.18s-.18.15-.39.13-.37-.09-.36-.18S18.79,26.29,19,26.3Zm-.25-.46a.45.45,0,0,0,.27-.15,1.22,1.22,0,0,0,.1-.18.94.94,0,0,1-.23.48.72.72,0,0,1-.47.2A.45.45,0,0,1,18,26a.6.6,0,0,0,.19-.13s.12-.12.1-.14A.64.64,0,0,0,18.75,25.84Zm.1-.65a.22.22,0,0,1-.19.29.83.83,0,0,1-.21,0l0-.06s0-.43-.06-.41a.41.41,0,0,1,.2,0A.28.28,0,0,1,18.84,25.19Zm-1.23-.8a1.14,1.14,0,0,1,.93-.08.69.69,0,0,1,.22.13.92.92,0,0,1,.23.29l.06.13a.3.3,0,0,0,0,.08l-.1-.09-.11-.08a.73.73,0,0,0-.35-.14.66.66,0,0,0-.37.08S18,24.6,18,24.57a.43.43,0,0,0-.37-.1l-.17,0C17.51,24.51,17.56,24.42,17.61,24.39Z"/><rect x="26.54" y="23.14" width="0.58" height="7.62" transform="translate(-1.9 51.85) rotate(-86.05)"/><circle cx="31.59" cy="27.28" r="0.26" transform="translate(-10.15 27.16) rotate(-40.64)"/><circle cx="30.96" cy="26.58" r="0.26" transform="translate(-9.85 26.63) rotate(-40.72)"/><circle cx="30.9" cy="27.95" r="0.26" transform="translate(-10.75 26.92) rotate(-40.72)"/><circle cx="30.75" cy="27.29" r="0.26" transform="translate(-10.36 26.67) rotate(-40.72)"/><circle cx="25.84" cy="76.66" r="0.71"/><circle cx="27.43" cy="75.87" r="0.71"/><circle cx="29.1" cy="76.03" r="0.71"/><circle cx="30.48" cy="76.97" r="0.71"/><circle cx="31.21" cy="78.42" r="0.71"/><circle cx="31.13" cy="80.05" r="0.71"/><circle cx="30.27" cy="81.47" r="0.71"/><circle cx="28.73" cy="82.3" r="0.71"/><circle cx="26.96" cy="82.19" r="0.71"/><circle cx="25.56" cy="81.25" r="0.71"/><circle cx="24.82" cy="79.72" r="0.71"/><circle cx="24.9" cy="78.06" r="0.71"/><rect x="24.88" y="56.63" width="4.12" height="1.67" transform="translate(-3.51 1.78) rotate(-3.56)"/></g></g></svg>