<svg xmlns="http://www.w3.org/2000/svg" viewBox="0 0 79.39 100.58"><defs><style>.cls-1{fill:#fff;}</style></defs><title>Ресурс 36clock</title><g id="Слой_2" data-name="Слой 2"><g id="Layer_1" data-name="Layer 1"><path d="M42.19,0C34.35,0,27.87,5.46,27.85,12.39s6.5,12.37,14.33,12.39S56.5,19.32,56.52,12.39,50,0,42.19,0ZM34.13,18.85A8.55,8.55,0,0,1,31,12.36a8.54,8.54,0,0,1,3.15-6.49,12.3,12.3,0,0,1,15.48,0,8.54,8.54,0,0,1,3.15,6.49,8.55,8.55,0,0,1-3.15,6.49,12.3,12.3,0,0,1-15.48,0Z"/><circle cx="41.94" cy="22.6" r="4.19"/><path d="M9.81,96.22c1,.89,4.13-1,7.06-4.24l-3.66-3.34C10.32,92,8.8,95.33,9.81,96.22Z"/><path d="M66.44,100.51c1.15-.68-.83-6.39-3-10.18l-4.31,2.45C61.4,96.55,65.28,101.19,66.44,100.51Z"/><ellipse cx="39.7" cy="61.74" rx="39.45" ry="37.99"/><path class="cls-1" d="M0,61.75C0,40.64,17.77,23.52,39.7,23.52h0c21.92,0,39.69,17.11,39.69,38.22h0C79.39,82.85,61.62,100,39.7,100h0C17.77,100,0,82.85,0,61.75ZM12,35A36.94,36.94,0,0,0,.48,61.75h0A37,37,0,0,0,12,88.44h0A39.86,39.86,0,0,0,39.7,99.5h0A39.87,39.87,0,0,0,67.42,88.44h0a37,37,0,0,0,11.48-26.7h0A36.94,36.94,0,0,0,67.42,35h0A39.85,39.85,0,0,0,39.7,24h0A39.85,39.85,0,0,0,12,35Z"/><circle class="cls-1" cx="39.52" cy="64.46" r="32.48"/><circle cx="12.15" cy="58.72" r="0.43"/><circle cx="11.68" cy="61.62" r="0.44"/><circle cx="11.98" cy="69.67" r="0.44"/><circle cx="11.58" cy="66.4" r="0.44"/><path d="M6.59,64.19A32.81,32.81,0,0,1,39.4,31.38h0A32.81,32.81,0,0,1,72.21,64.19h0A32.81,32.81,0,0,1,39.4,97h0A32.81,32.81,0,0,1,6.59,64.19Zm1.16,0A31.69,31.69,0,0,0,39.4,95.84h0A31.69,31.69,0,0,0,71.05,64.19h0A31.69,31.69,0,0,0,39.4,32.54h0A31.69,31.69,0,0,0,7.75,64.19Z"/><path d="M10.55,64.43A28.72,28.72,0,0,1,39.27,35.71h0A28.72,28.72,0,0,1,68,64.43h0A28.72,28.72,0,0,1,39.27,93.15h0A28.72,28.72,0,0,1,10.55,64.43Zm8.63-20.1a28.33,28.33,0,0,0-8.32,20.1h0a28.33,28.33,0,0,0,8.32,20.09h0a28.33,28.33,0,0,0,20.09,8.32h0a28.33,28.33,0,0,0,20.1-8.32h0a28.33,28.33,0,0,0,8.32-20.09h0a28.33,28.33,0,0,0-8.32-20.1h0A28.33,28.33,0,0,0,39.27,36h0a28.33,28.33,0,0,0-20.09,8.32Z"/><circle cx="39.25" cy="64.38" r="1.42"/><circle cx="36.65" cy="36.76" r="0.44"/><circle cx="41.69" cy="36.8" r="0.44"/><circle cx="44.56" cy="37.16" r="0.44"/><circle cx="50.51" cy="39.08" r="0.43"/><circle cx="55.12" cy="41.73" r="0.44"/><circle cx="57.62" cy="43.66" r="0.44"/><circle cx="59.87" cy="45.98" r="0.44"/><circle cx="61.91" cy="48.48" r="0.44"/><circle cx="64.77" cy="53.64" r="0.44"/><circle cx="65.75" cy="56.14" r="0.44"/><circle cx="66.37" cy="58.94" r="0.44"/><circle cx="66.77" cy="61.84" r="0.44"/><circle cx="47.61" cy="37.99" r="0.44"/><circle cx="28.08" cy="39.12" r="0.44"/><circle cx="30.59" cy="38.03" r="0.44"/><circle cx="23.69" cy="41.55" r="0.44"/><circle cx="20.97" cy="43.55" r="0.44"/><circle cx="18.72" cy="45.83" r="0.43"/><circle cx="16.58" cy="48.34" r="0.44"/><circle cx="14.04" cy="52.95" r="0.44"/><circle cx="12.98" cy="55.81" r="0.44"/><circle cx="33.56" cy="37.23" r="0.44"/><circle cx="41.68" cy="92.05" r="0.44"/><circle cx="36.56" cy="91.92" r="0.44"/><circle cx="33.79" cy="91.51" r="0.44"/><circle cx="27.69" cy="89.6" r="0.44"/><circle cx="23.05" cy="86.82" r="0.44"/><circle cx="20.73" cy="85.02" r="0.44"/><circle cx="18.31" cy="82.63" r="0.44"/><circle cx="16.18" cy="79.76" r="0.44"/><circle cx="13.8" cy="75.33" r="0.44"/><circle cx="12.71" cy="72.64" r="0.44"/><circle cx="30.7" cy="90.79" r="0.44"/><circle cx="50.12" cy="89.89" r="0.44"/><circle cx="47.63" cy="90.74" r="0.44"/><circle cx="54.5" cy="87.5" r="0.44"/><circle cx="56.99" cy="85.61" r="0.44"/><circle cx="59" cy="83.91" r="0.44"/><circle cx="61.19" cy="81.35" r="0.44"/><circle cx="64.13" cy="76.37" r="0.44"/><circle cx="65.2" cy="73.61" r="0.44"/><circle cx="66.12" cy="70.46" r="0.43"/><circle cx="66.65" cy="66.93" r="0.44"/><circle cx="44.73" cy="91.56" r="0.44"/><rect x="38.51" y="36.54" width="1.24" height="2.32"/><rect x="38.51" y="90.04" width="1.24" height="2.32"/><rect x="51.44" y="86.84" width="1.23" height="2.32" transform="translate(-31.35 28.86) rotate(-24.05)"/><polygon points="25.61 88.95 24.6 88.24 25.94 86.34 26.95 87.05 25.61 88.95"/><rect x="14.53" y="76.94" width="2.32" height="1.23" transform="translate(-34.08 16.04) rotate(-27.54)"/><rect x="61.31" y="77.77" width="1.23" height="2.32" transform="translate(-38.31 74.8) rotate(-49.53)"/><rect x="64.9" y="63.94" width="2.32" height="1.23"/><rect x="11.26" y="63.43" width="2.32" height="1.23"/><rect x="51.25" y="40.43" width="2.32" height="1.23" transform="translate(-11.23 60.57) rotate(-55.12)"/><rect x="25.67" y="39.81" width="1.23" height="2.32" transform="translate(-17.58 19.86) rotate(-31.62)"/><rect x="15.22" y="50.19" width="1.23" height="2.32" transform="translate(-36.68 39.95) rotate(-60.61)"/><polygon points="61.85 52.54 61.34 51.42 63.45 50.45 63.96 51.57 61.85 52.54"/><path d="M43.67,69.78l.53.57c-.11.12-.17.19-.16.21l.49.52,0,.3a2.22,2.22,0,0,0-.81.47,2.18,2.18,0,0,0,2.83,3.3,2.22,2.22,0,0,0,.36.53c.82.88,3.65,2.49,4.53,1.67s-.52-3.76-1.34-4.64a2.17,2.17,0,0,0-.48-.39A2.18,2.18,0,1,0,46,70l-.34,0-.47-.5s-.1,0-.22.15l-.53-.56s-.05,0-.11.06L44.2,69a.39.39,0,0,0-.44-.47l-.14-.15c0-.06.08-.1.07-.11l-.5-.54s-.05,0-.11.06l-.57-.61c0-.06.07-.1.06-.11l-.5-.54s-.05,0-.11.06l-.15-.16a.29.29,0,0,0-.36-.39L41.38,66l-.56.52.08.08a.29.29,0,0,0,.36.39l.15.16c0,.05-.07.09-.06.1l.5.54s0,0,.11-.05l.57.61s-.06.09-.06.09L43,69s0,0,.1-.05l.13.14a.41.41,0,0,0,.1.35.41.41,0,0,0,.34.12l.1.11C43.69,69.73,43.67,69.77,43.67,69.78Zm2,4.19a.78.78,0,1,1,0-1.11A.78.78,0,0,1,45.68,74Zm1.74-3.74a.78.78,0,1,1,0,1.11A.78.78,0,0,1,47.42,70.24Zm.5,3.34a.78.78,0,1,1,0,1.11A.79.79,0,0,1,47.91,73.58Z"/><rect x="38.19" y="59.86" width="0.77" height="7.43" transform="translate(-32.98 43.31) rotate(-42.94)"/><path d="M34.56,75l-.27.73c-.15,0-.25-.07-.26-.05l-.25.67-.29.1a2.15,2.15,0,0,0-.79-.51,2.18,2.18,0,0,0-1.7,4,2.15,2.15,0,0,0-.31.56c-.43,1.13-.62,4.38.51,4.8s3.14-2.14,3.56-3.26a2.22,2.22,0,0,0,.13-.61,2.18,2.18,0,0,0,1.37-4.12,2.14,2.14,0,0,0-.89-.14l-.17-.3.24-.65s-.08-.07-.24-.13l.27-.72s0,0-.1-.08l.05-.13a.42.42,0,0,0,.27-.24.42.42,0,0,0,0-.36l.07-.18c.08,0,.12,0,.13,0l.26-.69s0,0-.1-.08l.29-.78c.07,0,.12,0,.12,0l.26-.68s0,0-.1-.08l.08-.2a.32.32,0,0,0,.25-.19.32.32,0,0,0-.06-.31l0-.1L36.19,71l0,.1a.32.32,0,0,0-.25.19.32.32,0,0,0,.06.3l-.08.2c-.07,0-.11,0-.12,0l-.26.69s0,0,.09.07l-.3.78c-.07,0-.11,0-.11,0l-.26.68s0,0,.09.07l-.07.19a.39.39,0,0,0-.23.61l-.05.14C34.61,75,34.57,75,34.56,75ZM31.7,78.65a.78.78,0,1,1,1-.46A.78.78,0,0,1,31.7,78.65Zm4.12-.1a.79.79,0,1,1-1,.46A.79.79,0,0,1,35.82,78.55ZM33,80.48a.79.79,0,1,1-1,.46A.79.79,0,0,1,33,80.48Z"/><polygon points="36.9 71.28 36.18 71.01 40.44 59.7 41.16 59.97 36.9 71.28"/><rect x="32.89" y="51.78" width="0.58" height="18.87" transform="translate(-36.42 63.2) rotate(-63.17)"/><path d="M51.05,42.91v4.71h-1V44h-.34v-.08Z"/><path d="M58.95,50.57a2.31,2.31,0,0,1,.44-.19,1.36,1.36,0,0,1,.38,0,1.33,1.33,0,0,1,.83.26,1,1,0,0,1,.34.85,4.71,4.71,0,0,1-.14,1,18.61,18.61,0,0,1-.59,1.93H61V55H58.95a14.79,14.79,0,0,0,.74-2.2,5.8,5.8,0,0,0,.22-1.3.48.48,0,0,0-.14-.39.51.51,0,0,0-.34-.11.83.83,0,0,0-.48.15Z"/><path d="M62.07,62.16a1.61,1.61,0,0,1,.49-.08,1.52,1.52,0,0,1,.94.31,1.08,1.08,0,0,1,.42.92,1.09,1.09,0,0,1-.7,1.07,1.49,1.49,0,0,1,.52.39,1.06,1.06,0,0,1,.23.68,1.15,1.15,0,0,1-.24.73,1.46,1.46,0,0,1-.71.47,3.75,3.75,0,0,1-1,.16v-.65A1.18,1.18,0,0,0,62.7,66a.61.61,0,0,0,.22-.51.67.67,0,0,0-.23-.56,1.08,1.08,0,0,0-.62-.19v-.52a1.1,1.1,0,0,0,.43-.08.62.62,0,0,0,.29-.29,1,1,0,0,0,.11-.45.66.66,0,0,0-.17-.52.58.58,0,0,0-.4-.14l-.26,0Z"/><path d="M58.89,74.34h.63V77H60v.58h-.52V79h-.93V77.63H57V77.3Zm-.31,1.73-.64,1h.64Z"/><path d="M49.66,81.57h1.89v.61h-.88v1.47a1.74,1.74,0,0,1,.6.45,1,1,0,0,1,.2.66,1.3,1.3,0,0,1-.21.72,1.53,1.53,0,0,1-.46.44,2.21,2.21,0,0,1-.67.29,2.14,2.14,0,0,1-.52.06v-.66a1.12,1.12,0,0,0,.52-.2.79.79,0,0,0,.31-.66.71.71,0,0,0-.21-.55,1.06,1.06,0,0,0-.56-.25Z"/><path d="M40,84.45l.6.51a5.27,5.27,0,0,0-.64.61,4.54,4.54,0,0,0-.51.7,2.44,2.44,0,0,1,.82.65,1.37,1.37,0,0,1,.27.85,1.51,1.51,0,0,1-.2.77,1.22,1.22,0,0,1-.5.5,1.3,1.3,0,0,1-.6.15,1.29,1.29,0,0,1-.63-.17,1.22,1.22,0,0,1-.49-.55,1.71,1.71,0,0,1-.19-.75A3.2,3.2,0,0,1,38.52,86,5.73,5.73,0,0,1,40,84.45Zm-.89,2.5a1.71,1.71,0,0,0-.16.76.89.89,0,0,0,.31.76.73.73,0,0,0,.29-.68.88.88,0,0,0-.44-.84Z"/><path d="M26.76,81.28h1.89L27.79,86l-1-.08.72-4h-.77Z"/><path d="M18.12,76.17a1.2,1.2,0,0,1-.57-1.05,1.34,1.34,0,0,1,.32-.89,1.08,1.08,0,0,1,.86-.39,1.31,1.31,0,0,1,.59.15,1,1,0,0,1,.46.46,1.38,1.38,0,0,1,.17.68,1.2,1.2,0,0,1-.57,1,1.72,1.72,0,0,1,.46.48,1.16,1.16,0,0,1,.15.61,1.38,1.38,0,0,1-.34.92,1.1,1.1,0,0,1-.89.41,1.3,1.3,0,0,1-.59-.15A1.1,1.1,0,0,1,17.7,78a1.37,1.37,0,0,1-.19-.7,1.18,1.18,0,0,1,.16-.63A1.58,1.58,0,0,1,18.12,76.17Zm.63-1.65a1,1,0,0,0,0,1.27.73.73,0,0,0,.25-.61,1.1,1.1,0,0,0-.07-.41A.58.58,0,0,0,18.75,74.52Zm0,2a.82.82,0,0,0-.24.66.77.77,0,0,0,.24.64A.73.73,0,0,0,19,77.2.83.83,0,0,0,18.75,76.55Z"/><path d="M15.15,66.92l-.59-.51a4.78,4.78,0,0,0,1.16-1.31,2.49,2.49,0,0,1-.82-.64,1.34,1.34,0,0,1-.29-.86,1.5,1.5,0,0,1,.19-.76,1.18,1.18,0,0,1,.5-.5,1.27,1.27,0,0,1,1.24,0,1.2,1.2,0,0,1,.49.56,1.76,1.76,0,0,1,.18.75,2.9,2.9,0,0,1-.29,1.18,5.07,5.07,0,0,1-.9,1.32A5.25,5.25,0,0,1,15.15,66.92Zm.9-2.51a1.54,1.54,0,0,0,.16-.74.89.89,0,0,0-.31-.76c-.19.1-.29.32-.29.67a.88.88,0,0,0,.43.83Z"/><path d="M18.37,51.54v4.71h-1V52.59H17v-.08Z"/><path d="M18.88,53.92a3,3,0,0,1,.55-2,1.07,1.07,0,0,1,1.58,0,3,3,0,0,1,.55,2,2.91,2.91,0,0,1-.54,2,1,1,0,0,1-.76.35,1.08,1.08,0,0,1-.81-.34A2.89,2.89,0,0,1,18.88,53.92Zm1.35-1.66a.66.66,0,0,0-.17.25,2.35,2.35,0,0,0-.09.61c0,.51,0,.87,0,1.07A3.65,3.65,0,0,0,20,55.26a.74.74,0,0,0,.2.31.85.85,0,0,0,.16-.27,2.45,2.45,0,0,0,.08-.58c0-.47,0-.81,0-1a4.31,4.31,0,0,0-.1-1.07A1,1,0,0,0,20.23,52.27Z"/><path d="M27.66,42.63v4.71h-1V43.68h-.35V43.6Z"/><path d="M29.42,42.63v4.71h-1V43.68h-.35V43.6Z"/><path d="M38.73,39.58v4.71h-1V40.63h-.34v-.08Z"/><path d="M39.22,39.83a2.21,2.21,0,0,1,.44-.2,1.36,1.36,0,0,1,.38,0,1.33,1.33,0,0,1,.84.26,1,1,0,0,1,.34.84,4.79,4.79,0,0,1-.14,1.05,19.32,19.32,0,0,1-.59,1.93h.8v.62H39.22a14.66,14.66,0,0,0,.74-2.2,5.88,5.88,0,0,0,.22-1.3A.49.49,0,0,0,40,40.4a.51.51,0,0,0-.34-.11.84.84,0,0,0-.48.15Z"/></g></g></svg>