<svg xmlns="http://www.w3.org/2000/svg" viewBox="0 0 72.72 64.69"><defs><style>.cls-1{fill-rule:evenodd;}.cls-2{fill:#fff;}.cls-3{fill:none;}</style></defs><title>Ресурс 11clock</title><g id="Слой_2" data-name="Слой 2"><g id="Layer_1" data-name="Layer 1"><path class="cls-1" d="M59.75,47.69a1.71,1.71,0,0,0-.55.9h0a1.84,1.84,0,0,0-.06.44,1.51,1.51,0,1,0,1.5-1.68,1.35,1.35,0,0,0-.39.06c5-4.66,12.66.14,10.81,7.84-1.48,6.16-8.15,7.09-12.71,3.64-7.08-5.37-13-18.73-25.78-13.64C43.41,42.1,50.08,54,57,60c5.65,4.86,12.94,3.51,15.25-3.84C75.08,47,64.7,40.37,59.75,47.69Z"/><path d="M44.76,51A12.36,12.36,0,0,0,43,50.35a3.69,3.69,0,0,0-1.51-.09,2.83,2.83,0,0,0-.95.42c.29-.2.61-.54.88-.76a4.36,4.36,0,0,1,1-.74,4.81,4.81,0,0,1,1.11-.36,5.14,5.14,0,0,1,2.71.27,12.55,12.55,0,0,1,2.52,1.34c.35.23.71.58.72.87l-.5-.19c-.59-.21-1.19-.45-1.79-.68a14.74,14.74,0,0,0-1.56-.51L45,49.77c-.25-.05-.46-.07-.72-.11l-.76-.07a5.65,5.65,0,0,1,.76.12,9.77,9.77,0,0,1,1.14.35c.46.16.91.36,1.38.54s.89.35,1.33.49a8.63,8.63,0,0,0,1.16.29l.2,0a.37.37,0,0,1-.21.2,1.92,1.92,0,0,1-.58.16,6.49,6.49,0,0,1-2-.16A11.85,11.85,0,0,1,44.76,51Z"/><path d="M38.35,51.28a4.92,4.92,0,0,1-.44-1.11A1.94,1.94,0,0,1,38,49.11a2.92,2.92,0,0,1,.49-.78c-.22.26-.57.57-.81.81a6,6,0,0,0-.8.9,4.39,4.39,0,0,0-.44.87,2.56,2.56,0,0,0,0,1.86,4.86,4.86,0,0,0,1,1.47.87.87,0,0,0,.76.3c0-.08-.09-.2-.14-.31-.14-.37-.32-.74-.48-1.11a5.89,5.89,0,0,1-.34-1c0-.14-.06-.28-.08-.42a4,4,0,0,1,0-.49c0-.14,0-.35,0-.52a2.7,2.7,0,0,0,0,.51,4,4,0,0,0,.23.73c.11.29.25.57.38.85a8,8,0,0,1,.34.83,3.89,3.89,0,0,1,.17.75c0,.05,0,.1,0,.14a.56.56,0,0,0,.21-.2,1.68,1.68,0,0,0,.21-.45,3.25,3.25,0,0,0,0-1.38A4.59,4.59,0,0,0,38.35,51.28Z"/><path d="M49.82,47.08A4.81,4.81,0,0,1,49.39,46a1.94,1.94,0,0,1,.05-1.05,3,3,0,0,1,.5-.78c-.22.26-.58.57-.81.81a5.79,5.79,0,0,0-.8.9,4.46,4.46,0,0,0-.44.87,2.56,2.56,0,0,0,0,1.86,4.83,4.83,0,0,0,1,1.47.87.87,0,0,0,.76.3c0-.08-.09-.2-.13-.31-.14-.37-.32-.74-.48-1.11a6,6,0,0,1-.34-1c0-.14-.06-.28-.08-.42a4.52,4.52,0,0,1,0-.49c0-.14,0-.35,0-.53a2.66,2.66,0,0,0,0,.51,4,4,0,0,0,.22.73c.11.29.25.57.38.85a8,8,0,0,1,.34.83,3.72,3.72,0,0,1,.17.76s0,.09,0,.13a.56.56,0,0,0,.21-.2,1.75,1.75,0,0,0,.21-.45,3.24,3.24,0,0,0,0-1.38A4.58,4.58,0,0,0,49.82,47.08Z"/><path d="M34.09,51.31a4.74,4.74,0,0,0,.44-1.11,1.92,1.92,0,0,0-.06-1.05,3.1,3.1,0,0,0-.49-.78c.22.26.57.57.81.81a6.11,6.11,0,0,1,.8.9A4.54,4.54,0,0,1,36,51a2.56,2.56,0,0,1,0,1.86,4.88,4.88,0,0,1-1,1.47.87.87,0,0,1-.76.3c0-.08.09-.2.13-.31.14-.36.32-.74.48-1.11a6,6,0,0,0,.34-1c0-.14.06-.28.08-.42a4,4,0,0,0,0-.49c0-.14,0-.35,0-.53a2.52,2.52,0,0,1,0,.51A3.83,3.83,0,0,1,35,52c-.11.29-.25.56-.38.85a7.8,7.8,0,0,0-.33.83,3.51,3.51,0,0,0-.17.75s0,.09,0,.14a.54.54,0,0,1-.21-.2,1.75,1.75,0,0,1-.21-.45,3.25,3.25,0,0,1,0-1.38A4.68,4.68,0,0,1,34.09,51.31Z"/><path class="cls-1" d="M14.38,58.72C9.83,62.17,3.15,61.24,1.67,55.08c-1.85-7.7,5.82-12.51,10.8-7.84a1.31,1.31,0,0,0-.39-.06,1.69,1.69,0,0,0,0,3.36,1.6,1.6,0,0,0,1.5-1.68,1.82,1.82,0,0,0-.06-.43h0A1.7,1.7,0,0,0,13,47.5C8,40.18-2.36,46.86.49,55.94c2.31,7.35,9.6,8.7,15.25,3.84,6.9-5.93,13.57-17.87,24.42-14.7C27.37,40,21.46,53.35,14.38,58.72Z"/><path d="M28,50.8a12.91,12.91,0,0,1,1.78-.64,3.74,3.74,0,0,1,1.51-.09,2.86,2.86,0,0,1,.95.42,11.21,11.21,0,0,1-.88-.76,4.49,4.49,0,0,0-1-.74,4.84,4.84,0,0,0-1.11-.36,5.13,5.13,0,0,0-2.71.27A12.39,12.39,0,0,0,24,50.25c-.35.23-.71.58-.72.87l.5-.19c.59-.21,1.19-.45,1.79-.68a14.64,14.64,0,0,1,1.57-.51l.64-.15c.25-.05.46-.08.72-.11l.76-.07a5.65,5.65,0,0,0-.76.12,9.89,9.89,0,0,0-1.14.35c-.46.16-.91.36-1.38.54s-.89.35-1.33.49a8.54,8.54,0,0,1-1.16.29l-.2,0a.37.37,0,0,0,.21.2,1.83,1.83,0,0,0,.57.16,6.35,6.35,0,0,0,2-.15A11.69,11.69,0,0,0,28,50.8Z"/><path d="M22.91,47a4.7,4.7,0,0,0,.41-1.12,1.92,1.92,0,0,0-.08-1.05,3,3,0,0,0-.51-.76c.22.25.59.56.83.79a5.85,5.85,0,0,1,.82.88,4.42,4.42,0,0,1,.46.86,2.56,2.56,0,0,1,.05,1.86,4.78,4.78,0,0,1-1,1.49.86.86,0,0,1-.75.32c0-.08.08-.2.12-.32.13-.37.3-.74.45-1.12a6.23,6.23,0,0,0,.31-1c0-.14.05-.28.07-.43a4.54,4.54,0,0,0,0-.49c0-.14,0-.35,0-.53a2.56,2.56,0,0,1,0,.52,4.23,4.23,0,0,1-.2.73c-.11.29-.24.57-.36.86a7.61,7.61,0,0,0-.31.83,3.64,3.64,0,0,0-.15.76,1.27,1.27,0,0,0,0,.14.52.52,0,0,1-.22-.19,1.69,1.69,0,0,1-.22-.45,3.27,3.27,0,0,1-.08-1.38A4.76,4.76,0,0,1,22.91,47Z"/><path class="cls-1" d="M18.77,54.49A11.26,11.26,0,0,1,29.7,51.16a7,7,0,0,1,1.22.46,9,9,0,0,1,2.55,1.75c2.6,2.59,2.45,8.32-2,9.21-1.9.41-4.54-1.27-3.61-3.66A1.34,1.34,0,1,1,30.28,60c.24-.2-.62-1.49-1.23-1.22-1.61,1.24,1.49,4.37,4,1.46a4.62,4.62,0,0,0-.54-5.95A7.17,7.17,0,0,0,30.75,53a8,8,0,0,0-4.82-.71,11.47,11.47,0,0,0-4.14,1.6c-.18.12-2,1.55-1.92,1.58Z"/><path class="cls-1" d="M53.69,54.39a11.26,11.26,0,0,0-10.93-3.33,7.2,7.2,0,0,0-1.22.46A9.09,9.09,0,0,0,39,53.28c-2.59,2.59-2.44,8.32,2,9.21,1.9.41,4.54-1.27,3.61-3.66A1.34,1.34,0,1,0,42.19,60c-.24-.2.62-1.49,1.23-1.23,1.61,1.24-1.49,4.38-4,1.46a4.62,4.62,0,0,1,.54-5.95,7.16,7.16,0,0,1,1.78-1.38,8,8,0,0,1,4.82-.71,11.38,11.38,0,0,1,4.13,1.6c.18.11,2,1.55,1.92,1.58Z"/><path d="M69.55,63.58c0,.61-.91,1.11-2,1.11H5.71c-1.12,0-2-.5-2-1.11h0c0-.61.91-1.11,2-1.11H67.52c1.12,0,2,.5,2,1.11Z"/><ellipse cx="36.54" cy="41.99" rx="20.6" ry="2.96"/><circle cx="36.52" cy="20.82" r="18.28"/><circle class="cls-2" cx="36.57" cy="20.86" r="17.28"/><path d="M18.9,20.78A17.73,17.73,0,0,1,36.63,3h0A17.73,17.73,0,0,1,54.37,20.78h0A17.73,17.73,0,0,1,36.63,38.51h0A17.73,17.73,0,0,1,18.9,20.78Zm.63,0a17.12,17.12,0,0,0,17.1,17.1h0a17.12,17.12,0,0,0,17.1-17.1h0a17.12,17.12,0,0,0-17.1-17.1h0a17.12,17.12,0,0,0-17.1,17.1Z"/><circle class="cls-2" cx="36.58" cy="20.88" r="15.39"/><path d="M21,20.91A15.52,15.52,0,0,1,36.56,5.39h0A15.52,15.52,0,0,1,52.08,20.91h0A15.52,15.52,0,0,1,36.56,36.43h0A15.52,15.52,0,0,1,21,20.91ZM25.7,10a15.31,15.31,0,0,0-4.5,10.86h0a15.31,15.31,0,0,0,4.5,10.86h0a15.31,15.31,0,0,0,10.86,4.5h0a15.3,15.3,0,0,0,10.86-4.5h0a15.31,15.31,0,0,0,4.5-10.86h0A15.31,15.31,0,0,0,47.42,10h0a15.3,15.3,0,0,0-10.86-4.5h0A15.31,15.31,0,0,0,25.7,10Z"/><path d="M40.58,19.57,27.77,25.19v0l-2.07.52-.06-.14,1.78-1.17v0l12.81-5.62.36.81Zm-.21-.08L40.15,19,27.58,24.47l-1.46,1L27.8,25l12.58-5.51Z"/><path d="M42.78,19.2a1.34,1.34,0,0,1-1.71.81h0a1.34,1.34,0,0,1-.81-1.72h0A1.34,1.34,0,0,1,42,17.49h0a1.34,1.34,0,0,1,.81,1.72Zm-.14,0a1.19,1.19,0,0,0,0-.91h0a1.18,1.18,0,0,0-.67-.61h0a1.19,1.19,0,0,0-.91,0h0a1.2,1.2,0,0,0-.61.68h0a1.19,1.19,0,0,0,0,.91h0a1.19,1.19,0,0,0,.68.61h0a1.19,1.19,0,0,0,.91,0h0a1.19,1.19,0,0,0,.61-.68Z"/><path d="M39.22,28h0l.12,1.54-.15,0-.78-1.33h0l-3-9.66.85-.27,3,9.66Zm-3.14-9.46-.55.17,3,9.42.64,1.1L39,27.95l-3-9.42Zm2.41,9.61-.08,0,.08,0Z"/><path d="M36.7,17.48a1.34,1.34,0,0,1-1.46,1.21h0A1.34,1.34,0,0,1,34,17.22h0A1.34,1.34,0,0,1,35.49,16h0a1.34,1.34,0,0,1,1.21,1.46Zm-.15,0a1.19,1.19,0,0,0-.27-.87h0a1.19,1.19,0,0,0-.81-.43h0a1.19,1.19,0,0,0-.87.27h0a1.19,1.19,0,0,0-.43.81h0a1.19,1.19,0,0,0,.27.87h0a1.19,1.19,0,0,0,.81.43h0a1.19,1.19,0,0,0,.87-.27h0a1.19,1.19,0,0,0,.43-.81Z"/><path d="M35.18,20.87a1.34,1.34,0,0,1,1.34-1.34h0a1.34,1.34,0,0,1,1.34,1.34h0a1.34,1.34,0,0,1-1.34,1.34h0a1.34,1.34,0,0,1-1.34-1.34Zm.15,0a1.19,1.19,0,0,0,.35.84h0a1.19,1.19,0,0,0,.84.35h0a1.19,1.19,0,0,0,.84-.35h0a1.19,1.19,0,0,0,.35-.84h0a1.19,1.19,0,0,0-.35-.84h0a1.19,1.19,0,0,0-.84-.35h0a1.19,1.19,0,0,0-.84.35h0a1.19,1.19,0,0,0-.35.84Z"/><circle cx="36.55" cy="20.88" r="0.77"/><circle cx="35.15" cy="5.95" r="0.24"/><circle cx="37.87" cy="5.97" r="0.24"/><circle cx="39.42" cy="6.17" r="0.24"/><circle cx="42.64" cy="7.21" r="0.24"/><circle cx="45.13" cy="8.64" r="0.24"/><circle cx="46.48" cy="9.68" r="0.24"/><circle cx="47.7" cy="10.94" r="0.24"/><circle cx="48.8" cy="12.29" r="0.24"/><circle cx="50.34" cy="15.07" r="0.24"/><circle cx="50.87" cy="16.43" r="0.24"/><circle cx="51.21" cy="17.94" r="0.24"/><circle cx="51.42" cy="19.51" r="0.24"/><circle cx="41.07" cy="6.62" r="0.24"/><circle cx="30.52" cy="7.23" r="0.24"/><circle cx="31.87" cy="6.64" r="0.24"/><circle cx="28.14" cy="8.54" r="0.24"/><circle cx="26.67" cy="9.62" r="0.24"/><circle cx="25.46" cy="10.86" r="0.24"/><circle cx="24.3" cy="12.21" r="0.24"/><circle cx="22.93" cy="14.7" r="0.24"/><circle cx="22.36" cy="16.25" r="0.24"/><circle cx="21.91" cy="17.82" r="0.24"/><circle cx="21.65" cy="19.39" r="0.24"/><circle cx="33.48" cy="6.21" r="0.24"/><circle cx="37.87" cy="35.83" r="0.24"/><circle cx="35.1" cy="35.76" r="0.24"/><circle cx="33.6" cy="35.54" r="0.24"/><circle cx="30.31" cy="34.51" r="0.24"/><circle cx="27.8" cy="33.01" r="0.24"/><circle cx="26.54" cy="32.03" r="0.24"/><circle cx="25.24" cy="30.74" r="0.24"/><circle cx="24.08" cy="29.19" r="0.24"/><circle cx="22.8" cy="26.8" r="0.24"/><circle cx="22.21" cy="25.34" r="0.24"/><circle cx="21.82" cy="23.74" r="0.24"/><circle cx="21.6" cy="21.97" r="0.24"/><circle cx="31.93" cy="35.15" r="0.24"/><circle cx="42.43" cy="34.67" r="0.24"/><circle cx="41.08" cy="35.12" r="0.24"/><circle cx="44.79" cy="33.37" r="0.24"/><circle cx="46.14" cy="32.35" r="0.24"/><circle cx="47.23" cy="31.43" r="0.24"/><circle cx="48.41" cy="30.05" r="0.24"/><circle cx="50" cy="27.36" r="0.24"/><circle cx="50.57" cy="25.87" r="0.24"/><circle cx="51.07" cy="24.17" r="0.24"/><circle cx="51.36" cy="22.26" r="0.24"/><circle cx="39.51" cy="35.57" r="0.24"/><path class="cls-3" d="M36.72,12.55a.44.44,0,0,1,0,.13.45.45,0,0,1-.06.22l0,0,.49-.2-.47-.19Z"/><path class="cls-3" d="M35.84,11.26c-.41,0-.74.24-.74.53a.46.46,0,0,0,.19.36,1.28,1.28,0,0,1,1.07,0,.47.47,0,0,0,.22-.37C36.58,11.5,36.25,11.26,35.84,11.26Z"/><path class="cls-3" d="M34.93,12.48l-.14-.12a.86.86,0,0,0-.43-.11.62.62,0,0,0-.64.37v.15a.62.62,0,0,0,.64.38.75.75,0,0,0,.59-.25.46.46,0,0,1-.06-.22A.45.45,0,0,1,34.93,12.48Z"/><path class="cls-3" d="M36.25,13.24a1.32,1.32,0,0,1-.85,0,.5.5,0,0,0-.3.42c0,.29.33.53.74.53s.74-.24.74-.53A.51.51,0,0,0,36.25,13.24Z"/><path d="M36,6.25a.59.59,0,0,1,.59-.59h0a.59.59,0,0,1,.59.59h0a.59.59,0,0,1-.59.59h0A.59.59,0,0,1,36,6.25Zm.16,0a.43.43,0,0,0,.43.43h0A.43.43,0,0,0,37,6.25h0a.43.43,0,0,0-.43-.43h0a.43.43,0,0,0-.43.43Z"/><path d="M43.16,8.13a.59.59,0,0,1,.59-.59h0a.59.59,0,0,1,.59.59h0a.59.59,0,0,1-.59.59h0a.59.59,0,0,1-.59-.59Zm.16,0a.43.43,0,0,0,.43.43h0a.43.43,0,0,0,.43-.43h0a.43.43,0,0,0-.43-.43h0a.43.43,0,0,0-.43.43Z"/><path d="M48.83,13.83a.59.59,0,0,1,.59-.59h0a.59.59,0,0,1,.59.59h0a.59.59,0,0,1-.59.59h0a.59.59,0,0,1-.59-.59Zm.16,0a.43.43,0,0,0,.43.43h0a.43.43,0,0,0,.43-.43h0a.43.43,0,0,0-.43-.43h0a.43.43,0,0,0-.43.43Z"/><path d="M50.64,20.9a.59.59,0,0,1,.59-.59h0a.59.59,0,0,1,.59.59h0a.59.59,0,0,1-.59.59h0a.59.59,0,0,1-.59-.59Zm.16,0a.43.43,0,0,0,.43.43h0a.43.43,0,0,0,.43-.43h0a.43.43,0,0,0-.43-.43h0a.43.43,0,0,0-.43.43Z"/><path d="M48.31,28.72a.59.59,0,0,1,.59-.59h0a.59.59,0,0,1,.59.59h0a.59.59,0,0,1-.59.59h0a.59.59,0,0,1-.59-.59Zm.16,0a.43.43,0,0,0,.43.43h0a.43.43,0,0,0,.43-.43h0a.43.43,0,0,0-.43-.43h0a.43.43,0,0,0-.43.43Z"/><path d="M42.87,33.74a.59.59,0,0,1,.59-.59h0a.59.59,0,0,1,.59.59h0a.59.59,0,0,1-.59.59h0a.59.59,0,0,1-.59-.59Zm.16,0a.43.43,0,0,0,.43.43h0a.43.43,0,0,0,.43-.43h0a.43.43,0,0,0-.43-.43h0a.43.43,0,0,0-.43.43Z"/><path d="M36,35.61a.59.59,0,0,1,.59-.59h0a.59.59,0,0,1,.59.59h0a.59.59,0,0,1-.59.59h0a.59.59,0,0,1-.59-.59Zm.16,0a.43.43,0,0,0,.43.43h0a.43.43,0,0,0,.43-.43h0a.43.43,0,0,0-.43-.43h0a.43.43,0,0,0-.43.43Z"/><path d="M28.54,33.55a.59.59,0,0,1,.59-.59h0a.59.59,0,0,1,.59.59h0a.59.59,0,0,1-.59.59h0a.59.59,0,0,1-.59-.59Zm.16,0a.43.43,0,0,0,.43.43h0a.43.43,0,0,0,.43-.43h0a.43.43,0,0,0-.43-.43h0a.43.43,0,0,0-.43.43Z"/><path d="M23.13,28a.59.59,0,0,1,.59-.59h0a.59.59,0,0,1,.59.59h0a.59.59,0,0,1-.59.59h0a.59.59,0,0,1-.59-.59Zm.16,0a.43.43,0,0,0,.43.43h0a.43.43,0,0,0,.43-.43h0a.43.43,0,0,0-.43-.43h0a.43.43,0,0,0-.43.43Z"/><path d="M21.3,20.77a.59.59,0,0,1,.59-.59h0a.59.59,0,0,1,.59.59h0a.59.59,0,0,1-.59.59h0a.59.59,0,0,1-.59-.59Zm.16,0a.43.43,0,0,0,.43.43h0a.43.43,0,0,0,.43-.43h0a.43.43,0,0,0-.43-.43h0a.43.43,0,0,0-.43.43Z"/><path d="M23.31,13.68a.59.59,0,0,1,.59-.59h0a.59.59,0,0,1,.59.59h0a.59.59,0,0,1-.59.59h0a.59.59,0,0,1-.59-.59Zm.16,0a.43.43,0,0,0,.43.43h0a.43.43,0,0,0,.43-.43h0a.43.43,0,0,0-.43-.43h0a.43.43,0,0,0-.43.43Z"/><path d="M28.83,8.14a.59.59,0,0,1,.59-.59h0a.59.59,0,0,1,.59.59h0a.59.59,0,0,1-.59.59h0a.59.59,0,0,1-.59-.59Zm.16,0a.43.43,0,0,0,.43.43h0a.43.43,0,0,0,.43-.43h0a.43.43,0,0,0-.43-.43h0a.43.43,0,0,0-.43.43Z"/><path d="M35.82,7.52H36a0,0,0,0,1,0,0v2a.15.15,0,0,0,0,.12.2.2,0,0,0,.12,0h.09a0,0,0,0,1,0,0V9.9H35.17V9.72a0,0,0,0,1,0,0h.18l0,0,0,0a.27.27,0,0,0,0-.07V8.28a1,1,0,0,0,0-.12.13.13,0,0,0,0-.06l-.06,0h-.17V7.91a0,0,0,0,1,0,0h0a.62.62,0,0,0,.24-.06,1.13,1.13,0,0,0,.36-.29h0Zm0,.07a1.22,1.22,0,0,1-.35.28.75.75,0,0,1-.26.07V8q.19,0,.23.07a.49.49,0,0,1,0,.22V9.54a.39.39,0,0,1,0,.09.14.14,0,0,1,0,.07l-.07,0h-.13v.1h1v-.1h0a.27.27,0,0,1-.17,0A.2.2,0,0,1,36,9.54v-2Z"/><path d="M36.53,9.88v0h0a2.06,2.06,0,0,1,.15-.3A3.53,3.53,0,0,1,37,9L37.12,9l.07-.08a2.53,2.53,0,0,0,.23-.33.72.72,0,0,0,.1-.37.61.61,0,0,0,0-.15.33.33,0,0,0-.06-.13.26.26,0,0,0-.1-.09.32.32,0,0,0-.15,0l-.1,0-.08,0,0,.06a.16.16,0,0,0,0,.08.08.08,0,0,0,0,0V8l0,0,0,.05h0l0,0,0,0v0a.15.15,0,0,1,0,0,.18.18,0,0,1,0,0v0A.3.3,0,0,1,37,8.5a.19.19,0,0,1-.14.05h-.09a.33.33,0,0,1-.15-.11.36.36,0,0,1-.07-.24.44.44,0,0,1,0-.08.49.49,0,0,1,0-.08.7.7,0,0,1,.25-.35.88.88,0,0,1,.57-.16.83.83,0,0,1,.55.2.62.62,0,0,1,.24.5.63.63,0,0,1-.14.4,2.21,2.21,0,0,1-.3.32L37.62,9l-.09.07-.19.15-.29.25h.61l.12,0a.26.26,0,0,0,.11-.08l0,0,0,0h.16a0,0,0,0,1,0,0L38,9.89v0H36.54Zm.07,0H38l.1-.48H38a.36.36,0,0,1-.15.14.45.45,0,0,1-.17,0H37a0,0,0,0,1,0,0v0h0l.31-.28.2-.16L37.56,9l.07-.05a2.65,2.65,0,0,0,.32-.31.58.58,0,0,0,.15-.39.56.56,0,0,0-.22-.45.76.76,0,0,0-.5-.18.83.83,0,0,0-.51.14.65.65,0,0,0-.24.3.56.56,0,0,0,0,.08.51.51,0,0,0,0,.08.3.3,0,0,0,.05.19.26.26,0,0,0,.11.09h.09l.07,0,0,0,0,0V8.3a.21.21,0,0,0,0,0l0,0V8.14l0,0,0-.06a.16.16,0,0,1,0-.07A.25.25,0,0,1,37,7.8a.31.31,0,0,1,.22-.08.37.37,0,0,1,.18,0,.36.36,0,0,1,.12.11.44.44,0,0,1,.06.13.71.71,0,0,1,0,.15v0a.78.78,0,0,1-.1.38,2.16,2.16,0,0,1-.22.33l-.08.1-.08.09a3.34,3.34,0,0,0-.36.48A2.15,2.15,0,0,0,36.59,9.85Z"/><path d="M43.11,9.06h.2a0,0,0,0,1,0,0v2a.15.15,0,0,0,0,.12.2.2,0,0,0,.13,0h.09a0,0,0,0,1,0,0v.17a0,0,0,0,1,0,0H42.47v-.19a0,0,0,0,1,0,0h.18l0,0,0,0a.27.27,0,0,0,0-.07V9.82c0-.05,0-.09,0-.12a.11.11,0,0,0,0-.06l-.06,0h-.17V9.46a0,0,0,0,1,0,0h0a.62.62,0,0,0,.24-.06,1.13,1.13,0,0,0,.36-.29h0Zm0,.07a1.22,1.22,0,0,1-.35.28.74.74,0,0,1-.26.07v0c.13,0,.21,0,.23.07a.49.49,0,0,1,0,.22v1.26a.41.41,0,0,1,0,.09.14.14,0,0,1,0,.07l-.07,0h-.13v.1h1v-.1h0a.28.28,0,0,1-.17,0,.2.2,0,0,1-.06-.17v-2Z"/><path d="M46.74,15.85v0h0a2.07,2.07,0,0,1,.15-.3,3.44,3.44,0,0,1,.37-.49l.07-.08.07-.08a2.45,2.45,0,0,0,.23-.33.72.72,0,0,0,.1-.37.58.58,0,0,0,0-.15.33.33,0,0,0-.06-.13.28.28,0,0,0-.1-.09.32.32,0,0,0-.15,0l-.1,0-.08,0,0,.06a.17.17,0,0,0,0,.08v0l0,0,0,.05h0l0,0,0,0v0a.2.2,0,0,1,0,0,.17.17,0,0,1,0,0v0a.3.3,0,0,1-.07.11.19.19,0,0,1-.14.05H47a.34.34,0,0,1-.15-.11.36.36,0,0,1-.07-.24.44.44,0,0,1,0-.08l0-.08a.7.7,0,0,1,.25-.35.88.88,0,0,1,.57-.16.83.83,0,0,1,.55.2.62.62,0,0,1,.24.5.63.63,0,0,1-.14.4,2.15,2.15,0,0,1-.3.32l-.09.07-.09.07-.19.15-.29.25h.61l.12,0a.27.27,0,0,0,.11-.08l0,0,0,0h.16a0,0,0,0,1,0,0l-.11.54v0H46.75Zm.07,0h1.36l.1-.48h-.05a.37.37,0,0,1-.15.14.45.45,0,0,1-.17,0H47.2a0,0,0,0,1,0,0v0h0l.31-.28.2-.16.06-.05.07-.05a2.69,2.69,0,0,0,.32-.31.58.58,0,0,0,.14-.39.56.56,0,0,0-.22-.45.76.76,0,0,0-.5-.18.83.83,0,0,0-.51.14.65.65,0,0,0-.24.3l0,.08a.5.5,0,0,0,0,.08.31.31,0,0,0,.05.19.27.27,0,0,0,.11.09h.09l.07,0,0,0,0,0v-.09a.16.16,0,0,0,0,0l0,0v-.08l0,0,0-.06a.15.15,0,0,1,0-.07.26.26,0,0,1,.08-.19.31.31,0,0,1,.22-.08.37.37,0,0,1,.18,0,.37.37,0,0,1,.12.11.44.44,0,0,1,.06.13.64.64,0,0,1,0,.15v0a.78.78,0,0,1-.1.38,2.31,2.31,0,0,1-.22.33l-.08.1-.08.09a3.34,3.34,0,0,0-.36.48A2.09,2.09,0,0,0,46.81,15.82Z"/><path d="M49.06,21v-.2a0,0,0,0,1,0,0h0l.22,0a.4.4,0,0,0,.15-.06.28.28,0,0,0,.09-.12.47.47,0,0,0,0-.18.34.34,0,0,0,0-.17.24.24,0,0,0-.09-.09l0,0h0l-.07,0h-.16l-.06,0v0h0a.22.22,0,0,0,0,0v0l0,.06a.39.39,0,0,1,0,.08.21.21,0,0,1,0,.12l-.07.07-.06,0h-.11l-.05,0,0,0a.29.29,0,0,1-.06-.08.26.26,0,0,1,0-.12.49.49,0,0,1,.19-.38.92.92,0,0,1,.61-.17.89.89,0,0,1,.35.06A.66.66,0,0,1,50,20l.05.07,0,.07a.52.52,0,0,1,0,.11.53.53,0,0,1,0,.1.48.48,0,0,1-.12.31.57.57,0,0,1-.31.19.66.66,0,0,1,.36.23.69.69,0,0,1,.14.35s0,0,0,0,0,0,0,0a.71.71,0,0,1-.22.5.87.87,0,0,1-.66.23,1.2,1.2,0,0,1-.42-.06.72.72,0,0,1-.26-.15L48.66,22l0-.07a.53.53,0,0,1-.06-.24.41.41,0,0,1,0-.19.28.28,0,0,1,.09-.11h0l.09,0h.06a.25.25,0,0,1,.17.06.2.2,0,0,1,.07.15.36.36,0,0,1,0,.12l0,.08h0l0,0a.08.08,0,0,0,0,0v0a.21.21,0,0,0,.09.07.36.36,0,0,0,.16,0,.34.34,0,0,0,.29-.13.51.51,0,0,0,.1-.32.45.45,0,0,0-.15-.39.68.68,0,0,0-.4-.11h0Zm.07,0a.71.71,0,0,1,.42.14.52.52,0,0,1,.16.43.58.58,0,0,1-.12.37.4.4,0,0,1-.34.15h0A.45.45,0,0,1,49,22a.16.16,0,0,1-.09-.14.13.13,0,0,1,0-.05l0,0v0h0v0l0-.06a.26.26,0,0,0,0-.09.15.15,0,0,0,0-.06l0,0-.05,0h-.12l-.07,0h0a.21.21,0,0,0-.07.08.34.34,0,0,0,0,.16.45.45,0,0,0,0,.1.5.5,0,0,0,0,.11l0,.06,0,.06a.66.66,0,0,0,.24.14,1.16,1.16,0,0,0,.4.06A.82.82,0,0,0,50,22a.65.65,0,0,0,.21-.44h0v0a.07.07,0,0,0,0,0,.61.61,0,0,0-.14-.34.6.6,0,0,0-.38-.2h0v-.08h0a.5.5,0,0,0,.32-.16.43.43,0,0,0,.12-.29.45.45,0,0,0,0-.09.4.4,0,0,0,0-.1l0-.06,0-.06a.57.57,0,0,0-.2-.13.85.85,0,0,0-.33-.06.87.87,0,0,0-.53.13.45.45,0,0,0-.19.29.2.2,0,0,0,0,0v0a.21.21,0,0,0,0,.09l0,.05.06,0H49l0,0,0,0a.14.14,0,0,0,0-.08.28.28,0,0,0,0,0v0h0v-.12a.11.11,0,0,1,.07-.1.42.42,0,0,1,.16,0h.1l.1,0h0a.34.34,0,0,1,.11.12.4.4,0,0,1,0,.2.57.57,0,0,1,0,.21.36.36,0,0,1-.11.14.39.39,0,0,1-.16.07l-.22,0Z"/><path d="M47.84,27.9v.22h-.31v.27a.22.22,0,0,0,0,.1s.06,0,.14,0h.13a0,0,0,0,1,0,0v.19H46.64a0,0,0,0,1,0,0v-.17a0,0,0,0,1,0,0h.21l0,0h0a.09.09,0,0,0,0,0,.37.37,0,0,0,0-.06v-.27H46a0,0,0,0,1,0,0v-.18h0L47,26.44h.57a0,0,0,0,1,0,0v1.41h.31A0,0,0,0,1,47.84,27.9Zm-.07,0h-.31V26.49H47l-.9,1.44v.14H47a0,0,0,0,1,0,0v.33a.17.17,0,0,1,0,0v0l0,0a.15.15,0,0,1-.07,0H46.7v.1h1.06v-.1h-.07c-.11,0-.17,0-.19-.06a.28.28,0,0,1,0-.14v-.3a0,0,0,0,1,0,0h.31Zm-1.52-.05h0l.65-1H47a0,0,0,0,1,0,0V27.9a0,0,0,0,1,0,0h-.71v0Zm.08,0h.59v-.94Z"/><path d="M42,31.71H41.8a0,0,0,0,1,0,0l.1-1.25v0h1l0,0,0,0h.15a0,0,0,0,1,0,0l-.09.46v0h-.91l0,.5,0,0,0,0,.14,0,.13,0h.05a1.19,1.19,0,0,1,.29.06.84.84,0,0,1,.26.14.75.75,0,0,1,.2.25.74.74,0,0,1,.08.34s0,0,0,.07a.45.45,0,0,1,0,.07.79.79,0,0,1-.26.44.89.89,0,0,1-.62.2,1.34,1.34,0,0,1-.31,0,.8.8,0,0,1-.25-.1.58.58,0,0,1-.17-.19.49.49,0,0,1-.06-.25.47.47,0,0,1,0-.13A.36.36,0,0,1,41.7,32a.26.26,0,0,1,.09-.08.24.24,0,0,1,.12,0,.25.25,0,0,1,.18.07.26.26,0,0,1,.07.2.21.21,0,0,1,0,.09l0,.07,0,0,0,0h0v0a.09.09,0,0,0,0,0s0,.05.06.07l.14,0h0a.34.34,0,0,0,.3-.13.61.61,0,0,0,.11-.28v0s0,0,0-.05a1,1,0,0,0,0-.2.5.5,0,0,0-.07-.16.37.37,0,0,0-.11-.11.27.27,0,0,0-.15,0,.35.35,0,0,0-.19.05.33.33,0,0,0-.12.14v0Zm0-.07a.4.4,0,0,1,.36-.21.34.34,0,0,1,.19,0,.36.36,0,0,1,.13.14.52.52,0,0,1,.07.18,1,1,0,0,1,0,.21s0,.06,0,.09v.09a.64.64,0,0,1-.14.28.4.4,0,0,1-.33.12h-.12L42,32.52a.12.12,0,0,1-.06-.11.2.2,0,0,1,0-.07l0-.05h0l0-.06a.17.17,0,0,0,0-.09A.2.2,0,0,0,42,32a.18.18,0,0,0-.13,0l-.09,0-.07.06a.39.39,0,0,0-.06.21.43.43,0,0,0,.05.22.5.5,0,0,0,.15.16.79.79,0,0,0,.23.1,1.26,1.26,0,0,0,.3,0,.82.82,0,0,0,.57-.18.72.72,0,0,0,.24-.39v-.07a.44.44,0,0,0,0-.07.68.68,0,0,0-.07-.31.66.66,0,0,0-.18-.22.74.74,0,0,0-.26-.14,1,1,0,0,0-.3,0l-.16,0-.18.08H42a0,0,0,0,1,0,0l0-.58v0H43l.08-.4h0l0,0,0,0-.06,0H42l-.09,1.18Z"/><path d="M36.14,33l.13-.07.14,0,.11,0h.1a.62.62,0,0,1,.49.21.81.81,0,0,1,.18.56.76.76,0,0,1-.24.59,1,1,0,0,1-.68.22h-.13l-.14,0a.8.8,0,0,1-.39-.31,1.36,1.36,0,0,1-.18-.79,2,2,0,0,1,0-.2,1.71,1.71,0,0,1,0-.22,1.41,1.41,0,0,1,.06-.21,1.17,1.17,0,0,1,.09-.2,1,1,0,0,1,.3-.33.85.85,0,0,1,.49-.13.88.88,0,0,1,.28,0,.63.63,0,0,1,.2.11.49.49,0,0,1,.11.13.39.39,0,0,1,0,.15v0a.23.23,0,0,1-.07.18.25.25,0,0,1-.18.07.23.23,0,0,1-.23-.25v-.07a.08.08,0,0,1,0,0v0h0a.06.06,0,0,0,0,0l-.09,0h-.08a.3.3,0,0,0-.25.23A1.92,1.92,0,0,0,36.14,33Zm0,.08h0v0s0,0,0,0v0a1.74,1.74,0,0,1,.08-.49.35.35,0,0,1,.3-.26h.17l.07,0a.11.11,0,0,1,0,.07h0v0h0v0h0v0a.08.08,0,0,0,0,0,.17.17,0,0,0,0,.13.16.16,0,0,0,.11,0,.19.19,0,0,0,.14-.05.17.17,0,0,0,.05-.13.39.39,0,0,0,0,0v0l0-.09L37,32.22a.55.55,0,0,0-.18-.1.8.8,0,0,0-.26,0,.79.79,0,0,0-.45.12.88.88,0,0,0-.28.31,1.17,1.17,0,0,0-.09.2,1.37,1.37,0,0,0-.05.22,1.57,1.57,0,0,0,0,.2c0,.06,0,.13,0,.19a1.31,1.31,0,0,0,.16.75.72.72,0,0,0,.36.29l.14,0h.13a.89.89,0,0,0,.63-.2.7.7,0,0,0,.22-.54.74.74,0,0,0-.17-.51.57.57,0,0,0-.44-.18h-.12l-.19,0a.67.67,0,0,0-.17.09h0Zm.31,1.17a.27.27,0,0,1-.17-.05.34.34,0,0,1-.1-.13.67.67,0,0,1-.05-.19,1.74,1.74,0,0,1,0-.22.79.79,0,0,1,.1-.47.3.3,0,0,1,.24-.12h.09l.08,0,.07.06a.53.53,0,0,1,.08.18,1.25,1.25,0,0,1,0,.3.76.76,0,0,1-.1.46.31.31,0,0,1-.21.13h0Zm0-.07h.09a.29.29,0,0,0,.13-.14.83.83,0,0,0,.06-.37,1.11,1.11,0,0,0,0-.28.44.44,0,0,0-.07-.16.2.2,0,0,0-.09-.07l-.1,0h0a.24.24,0,0,0-.16.11.76.76,0,0,0-.07.41,1.43,1.43,0,0,0,0,.21.66.66,0,0,0,0,.17.26.26,0,0,0,.08.11A.21.21,0,0,0,36.42,34.2Z"/><path d="M30.58,32.77H30a0,0,0,0,1,0,0,2.12,2.12,0,0,1,0-.34,3,3,0,0,1,.1-.35,3.49,3.49,0,0,1,.68-1.18h-.76a.22.22,0,0,0-.12.08l0,0,0,0h-.16a0,0,0,0,1,0,0l.11-.57v0h1.39a0,0,0,0,1,0,0v.2h0l0,.06,0,.06a3.75,3.75,0,0,0-.19.39l-.1.25a3.58,3.58,0,0,0-.12.35q0,.16-.07.31t0,.3q0,.16,0,.33v0Zm0-.07c0-.11,0-.21,0-.31s0-.19,0-.28,0-.22.08-.33.07-.23.13-.37l.11-.26a3.68,3.68,0,0,1,.21-.4l0-.05,0-.05v-.16H29.91l-.09.5h0l0,0,0,0a.3.3,0,0,1,.15-.11l.21,0H31v0h0a3.07,3.07,0,0,0-.42.56,3.51,3.51,0,0,0-.3.65,2.84,2.84,0,0,0-.09.32,2.16,2.16,0,0,0,0,.31Z"/><path d="M25.28,27.26A1.19,1.19,0,0,1,25,27a.52.52,0,0,1,.09-.75.9.9,0,0,1,.58-.17.93.93,0,0,1,.31,0,.74.74,0,0,1,.23.13.53.53,0,0,1,.14.18.5.5,0,0,1,0,.21.42.42,0,0,1,0,.08.46.46,0,0,1,0,.09.56.56,0,0,1-.12.19.59.59,0,0,1-.23.14l.06,0,.05,0a1.3,1.3,0,0,1,.31.25.49.49,0,0,1,.12.34.66.66,0,0,1-.24.49.93.93,0,0,1-.66.22,1,1,0,0,1-.37-.06.73.73,0,0,1-.26-.16.62.62,0,0,1-.12-.15.69.69,0,0,1-.07-.16v-.08a.41.41,0,0,1,0-.07.71.71,0,0,1,0-.07v-.07a.65.65,0,0,1,.13-.25A.76.76,0,0,1,25.28,27.26Zm.09,0a0,0,0,0,1,0,0h0a.72.72,0,0,0-.29.19.6.6,0,0,0-.13.23.42.42,0,0,0,0,.07s0,0,0,.07a.46.46,0,0,0,0,.07V28a.55.55,0,0,0,.06.14.65.65,0,0,0,.34.28.91.91,0,0,0,.34.06.87.87,0,0,0,.59-.18.63.63,0,0,0,.24-.4v0s0,0,0,0a.45.45,0,0,0-.08-.27.92.92,0,0,0-.24-.22l-.11-.07L26,27.21h0v-.06h0a.54.54,0,0,0,.24-.12.47.47,0,0,0,.12-.17.39.39,0,0,0,0-.08.31.31,0,0,0,0-.08.43.43,0,0,0,0-.19.51.51,0,0,0-.13-.16.66.66,0,0,0-.21-.12.86.86,0,0,0-.29,0,.81.81,0,0,0-.54.16.45.45,0,0,0-.07.67,1.11,1.11,0,0,0,.27.23h0Zm.44.28h0a.84.84,0,0,1,.2.19.43.43,0,0,1,.09.26.33.33,0,0,1,0,.14.32.32,0,0,1-.09.11l-.14.07-.17,0a.49.49,0,0,1-.32-.12.42.42,0,0,1-.14-.34.56.56,0,0,1,.08-.28,1,1,0,0,1,.2-.24h0Zm0,.05-.25-.17a.81.81,0,0,0-.17.21.51.51,0,0,0-.06.24.36.36,0,0,0,.12.29.41.41,0,0,0,.27.1l.15,0,.11-.06A.24.24,0,0,0,26,28a.36.36,0,0,0-.08-.22.8.8,0,0,0-.19-.18Zm0-.5h0l-.06,0-.07,0a.9.9,0,0,1-.2-.19.4.4,0,0,1-.09-.26.26.26,0,0,1,0-.13.25.25,0,0,1,.08-.09l.07,0,.08,0h.08a.45.45,0,0,1,.28.1.32.32,0,0,1,.12.27.41.41,0,0,1-.09.25.63.63,0,0,1-.19.18h0Zm0-.07a.58.58,0,0,0,.16-.15.36.36,0,0,0,.08-.2h0a.26.26,0,0,0-.1-.22.37.37,0,0,0-.24-.08h0l-.07,0-.07,0a.17.17,0,0,0-.06.06.2.2,0,0,0,0,.1.35.35,0,0,0,.09.23.9.9,0,0,0,.19.17l0,0Z"/><path d="M24.5,20.94a.75.75,0,0,1-.2.09l-.21,0H24a.57.57,0,0,1-.52-.24.94.94,0,0,1-.16-.53.74.74,0,0,1,.25-.61.93.93,0,0,1,.6-.2.77.77,0,0,1,.72.32,1.56,1.56,0,0,1,.19.82c0,.07,0,.14,0,.21a1.65,1.65,0,0,1,0,.22,1.45,1.45,0,0,1-.06.21,1.16,1.16,0,0,1-.09.2.93.93,0,0,1-.3.33.85.85,0,0,1-.49.13.87.87,0,0,1-.28,0,.62.62,0,0,1-.2-.11.52.52,0,0,1-.1-.11.38.38,0,0,1-.05-.12v0s0,0,0,0a.25.25,0,0,1,.07-.18.25.25,0,0,1,.19-.07h0l.05,0a.27.27,0,0,1,.09.08.24.24,0,0,1,0,.15v.15h0l0,0h.08a.31.31,0,0,0,.32-.21A1.67,1.67,0,0,0,24.5,20.94Zm0-.08h0a0,0,0,0,1,0,0v.05s0,0,0,0a1.68,1.68,0,0,1-.1.51.36.36,0,0,1-.37.23.26.26,0,0,1-.15,0,.11.11,0,0,1-.06-.09v0h0v0a.11.11,0,0,0,0,0v0a.19.19,0,0,0,0-.12l-.07-.05h-.06a.19.19,0,0,0-.14.05.18.18,0,0,0-.05.13.22.22,0,0,0,0,0v0a.3.3,0,0,0,0,.09l.08.08a.52.52,0,0,0,.18.1.82.82,0,0,0,.26,0,.8.8,0,0,0,.46-.12.85.85,0,0,0,.27-.3,1,1,0,0,0,.09-.2A1.71,1.71,0,0,0,25,21a1.52,1.52,0,0,0,0-.21c0-.07,0-.13,0-.19a1.46,1.46,0,0,0-.19-.78.72.72,0,0,0-.67-.3.85.85,0,0,0-.56.18.68.68,0,0,0-.22.56.84.84,0,0,0,.15.49A.51.51,0,0,0,24,21a1,1,0,0,0,.25,0,.71.71,0,0,0,.23-.11h0Zm-.32-1.17h.06l.08,0,0,0,0,0a.48.48,0,0,1,.09.18,1.11,1.11,0,0,1,0,.32.83.83,0,0,1-.08.44.3.3,0,0,1-.18.14h-.15l-.08,0,0,0,0,0a.41.41,0,0,1-.09-.16,1,1,0,0,1,0-.28v-.07a.83.83,0,0,1,.1-.48A.29.29,0,0,1,24.21,19.69Zm0,.07h0a.24.24,0,0,0-.17.1.8.8,0,0,0-.09.43v.07a.88.88,0,0,0,0,.26.34.34,0,0,0,.07.13l0,0,0,0,.05,0h.15a.26.26,0,0,0,.12-.13.88.88,0,0,0,.05-.37,1.09,1.09,0,0,0,0-.3.43.43,0,0,0-.08-.15h0l-.08,0Z"/><path d="M25.44,13.78h.2a0,0,0,0,1,0,0v2a.15.15,0,0,0,0,.11.2.2,0,0,0,.12,0h.09a0,0,0,0,1,0,0v.19H24.79V16a0,0,0,0,1,0,0H25l0,0,0,0a.26.26,0,0,0,0-.07V14.54c0-.05,0-.09,0-.12a.12.12,0,0,0,0-.06l-.06,0h-.17a0,0,0,0,1,0,0v-.11a0,0,0,0,1,0,0h0a.63.63,0,0,0,.24-.06,1.12,1.12,0,0,0,.36-.29h0Zm0,.07a1.2,1.2,0,0,1-.35.28.75.75,0,0,1-.26.07v0c.13,0,.2,0,.23.07a.51.51,0,0,1,0,.22V15.8a.41.41,0,0,1,0,.09.14.14,0,0,1,0,.07L25,16h-.13v.1h1V16h0a.28.28,0,0,1-.17,0,.21.21,0,0,1-.06-.17v-2Z"/><path d="M27.13,13.78a.75.75,0,0,1,.58.21,1.18,1.18,0,0,1,.27.46,1.43,1.43,0,0,1,.07.3c0,.1,0,.18,0,.24a2.4,2.4,0,0,1,0,.24,1.55,1.55,0,0,1-.06.29l0,.1,0,.1a.91.91,0,0,1-.28.34.8.8,0,0,1-.5.14.76.76,0,0,1-.59-.21,1.19,1.19,0,0,1-.27-.47,1.61,1.61,0,0,1-.06-.3c0-.1,0-.18,0-.24s0-.14,0-.24a1.55,1.55,0,0,1,.06-.28l0-.11,0-.11a.91.91,0,0,1,.28-.34A.81.81,0,0,1,27.13,13.78Zm0,.07a.75.75,0,0,0-.46.13.88.88,0,0,0-.26.31l0,.11,0,.11a1.38,1.38,0,0,0-.05.27c0,.09,0,.16,0,.23a2,2,0,0,0,0,.23,1.63,1.63,0,0,0,.05.27,1.13,1.13,0,0,0,.25.45.7.7,0,0,0,.55.21.74.74,0,0,0,.46-.13.9.9,0,0,0,.26-.31l0-.1,0-.1a1.53,1.53,0,0,0,.05-.27,1.91,1.91,0,0,0,0-.46,1.42,1.42,0,0,0-.06-.27,1.17,1.17,0,0,0-.25-.45A.69.69,0,0,0,27.13,13.84Zm0,.13a.29.29,0,0,1,.3.26,2.86,2.86,0,0,1,.06.57v.3s0,.09,0,.13,0,.09,0,.14a1.66,1.66,0,0,1-.08.44.3.3,0,0,1-.56,0,1.61,1.61,0,0,1-.08-.44s0-.09,0-.14,0-.09,0-.13v-.3a2.89,2.89,0,0,1,.06-.57A.29.29,0,0,1,27.13,14Zm0,.07c-.15,0-.23.09-.26.28a5.84,5.84,0,0,0,0,.68v.19a2.75,2.75,0,0,0,0,.52c0,.16.11.24.25.24s.22-.08.25-.24a2.68,2.68,0,0,0,0-.52V15a5.48,5.48,0,0,0,0-.68C27.36,14.14,27.27,14,27.13,14Z"/><path d="M29.44,9.15h.2a0,0,0,0,1,0,0v2a.15.15,0,0,0,0,.12.2.2,0,0,0,.12,0h.09a0,0,0,0,1,0,0v.19H28.79a0,0,0,0,1,0,0v-.17a0,0,0,0,1,0,0H29l0,0,0,0a.27.27,0,0,0,0-.07V9.91c0-.05,0-.09,0-.12a.13.13,0,0,0,0-.06L29,9.7h-.17a0,0,0,0,1,0,0V9.54a0,0,0,0,1,0,0h0a.62.62,0,0,0,.24-.06,1.13,1.13,0,0,0,.36-.29h0Zm0,.07a1.23,1.23,0,0,1-.35.28.76.76,0,0,1-.26.07v0c.13,0,.21,0,.23.07a.49.49,0,0,1,0,.22v1.26a.36.36,0,0,1,0,.09.13.13,0,0,1,0,.07l-.07,0h-.13v.1h1v-.1h0a.27.27,0,0,1-.17,0,.2.2,0,0,1-.06-.17v-2Z"/><path d="M30.86,9.15h.2a0,0,0,0,1,0,0v2a.15.15,0,0,0,0,.12.2.2,0,0,0,.12,0h.09a0,0,0,0,1,0,0v.19H30.21v-.19a0,0,0,0,1,0,0h.18l0,0,0,0a.32.32,0,0,0,0-.07V9.91a1,1,0,0,0,0-.12.11.11,0,0,0,0-.06l-.06,0H30.2V9.54a0,0,0,0,1,0,0h0a.62.62,0,0,0,.24-.06,1.14,1.14,0,0,0,.36-.29h0Zm0,.07a1.22,1.22,0,0,1-.35.28.76.76,0,0,1-.26.07v0c.13,0,.2,0,.23.07a.49.49,0,0,1,0,.22v1.26a.36.36,0,0,1,0,.09.13.13,0,0,1,0,.07l-.07,0h-.13v.1h1v-.1h0a.28.28,0,0,1-.17,0,.2.2,0,0,1-.06-.17v-2Z"/><circle cx="47.2" cy="37.74" r="1.86"/><circle cx="25.78" cy="37.73" r="1.86"/><circle cx="38.2" cy="1.86" r="1.86"/><circle cx="34.76" cy="1.89" r="1.86"/></g></g></svg>