<svg xmlns="http://www.w3.org/2000/svg" viewBox="0 0 62.03 143.26"><defs><style>.cls-1{fill-rule:evenodd;}.cls-2{fill:#fff;}</style></defs><title>Ресурс 31clock</title><g id="Слой_2" data-name="Слой 2"><g id="Layer_1" data-name="Layer 1"><path d="M61.36,46.3A29.56,29.56,0,1,0,31.8,75.86,29.56,29.56,0,0,0,61.36,46.3ZM6.63,45.61A25.23,25.23,0,1,1,31.86,70.83,25.23,25.23,0,0,1,6.63,45.61Z"/><path d="M33.86.4a2.87,2.87,0,0,0-1.38,2.68,3.55,3.55,0,0,0,.3,1.16,3.86,3.86,0,0,0,2.77,2.15c3.24.61,6.45,0,8.72,2.26a4.75,4.75,0,0,1,1,1.44,5.57,5.57,0,0,1-.26,5.1,2.67,2.67,0,0,0-.25.28l-.08.1v.07a3.7,3.7,0,0,1-1.36,1,4.1,4.1,0,0,1-.82.27,3.19,3.19,0,0,1-3.35-1.13l-.06-.12a2.85,2.85,0,0,1-.25-1.59,1.39,1.39,0,0,1,.84-1.1,1.85,1.85,0,0,1,.3-.11,1.1,1.1,0,0,1,1.17.4l.05.07.08,0a.13.13,0,0,1,.07.07,1.09,1.09,0,0,1,0,.57c0,.11-.05.22-.08.3l0,.11v.06a.23.23,0,0,0,0,.05.37.37,0,0,0,0,.2.4.4,0,0,0,.38.23.41.41,0,0,0,.13,0c.17-.1.13-.11.16-.14s.14-.23.34-.59l0-.07v-.08A2.12,2.12,0,0,0,42.12,13a2.07,2.07,0,0,0-2.43-1.15,2.92,2.92,0,0,0-.54.18,2.37,2.37,0,0,0-1.38,1.72,3.76,3.76,0,0,0,1.79,3.86,4.51,4.51,0,0,0,4.06.12A5.6,5.6,0,0,0,45.79,16h0l.67-1.13v0a1.75,1.75,0,0,0,.09-.28,6.15,6.15,0,0,0-.13-4.69,7.14,7.14,0,0,0-5.62-4c-1.06-.15-2.64-.13-4.06-.34s-2.62-.67-3-1.59a2.5,2.5,0,0,1-.16-1.31,1.77,1.77,0,0,1,1.05-1.39l.28-.1H35a3.37,3.37,0,0,1,.49,0,1.35,1.35,0,0,1,1.1.68l.08.15a1.5,1.5,0,0,1,.07.19.78.78,0,0,1-.39.94l-.09,0a2.61,2.61,0,0,1-.6.14l.62-.37-.05-.12A1.45,1.45,0,0,0,36,2.3.77.77,0,0,0,35.41,2a.82.82,0,0,0-.35.08,1.09,1.09,0,0,0-.57.67,1,1,0,0,0,0,.73A1.15,1.15,0,0,0,35,4a1.62,1.62,0,0,0,.62.23,1.8,1.8,0,0,0,.9-.11l.13-.05a2.16,2.16,0,0,0,.5-.32,2.48,2.48,0,0,0,.51-.62,1.76,1.76,0,0,0,.14-1.52l-.05-.12a2.27,2.27,0,0,0-.36-.55A2.77,2.77,0,0,0,36.76.4a2.72,2.72,0,0,0-.61-.28,2.94,2.94,0,0,0-2.08.17Zm1.72,2.78h0l0,0,0,0Z"/><path d="M59.79,29.48a3,3,0,0,0,.86-1.9,2.31,2.31,0,0,0-.38-1.39,2.26,2.26,0,0,0-.4-.53l-.1-.09a1.75,1.75,0,0,0-1.47-.38,2.52,2.52,0,0,0-.76.27,2.32,2.32,0,0,0-.47.37l-.09.11a1.83,1.83,0,0,0-.41.81,1.67,1.67,0,0,0,0,.66,1.15,1.15,0,0,0,.32.55,1,1,0,0,0,.67.29,1.08,1.08,0,0,0,.82-.31.84.84,0,0,0,.19-.3.77.77,0,0,0-.06-.62,1.5,1.5,0,0,0-.28-.36l-.1-.09-.55.45a2.62,2.62,0,0,1,.33-.52l.06-.07a.78.78,0,0,1,1-.05l.16.13.12.13a1.34,1.34,0,0,1,.27,1.27,3.24,3.24,0,0,1-.19.45l0,.08h0a2,2,0,0,1-.19.23,1.77,1.77,0,0,1-1.67.53,2.5,2.5,0,0,1-1.18-.59c-.73-.68-.77-2-.49-3.37s.83-2.89,1-3.94a7.14,7.14,0,0,0-1.88-6.63A6.16,6.16,0,0,0,50.57,13a2.12,2.12,0,0,0-.29,0h0L49,13.2h0a5.58,5.58,0,0,0-2.41,1.45,4.5,4.5,0,0,0-1.24,3.87,3.78,3.78,0,0,0,3,3,2.38,2.38,0,0,0,2.09-.73,3.05,3.05,0,0,0,.36-.45,2.08,2.08,0,0,0-.27-2.68,2.11,2.11,0,0,0-1-.53l-.08,0h-.08c-.41.07-.55.09-.67.13s0,0-.18.11a.37.37,0,0,0-.08.11.4.4,0,0,0,.09.44.36.36,0,0,0,.18.1h.22l.31,0a1.08,1.08,0,0,1,.54.19.15.15,0,0,1,0,.09v.09l0,.07a1.1,1.1,0,0,1,0,1.24,2,2,0,0,1-.2.25,1.39,1.39,0,0,1-1.31.42,2.84,2.84,0,0,1-1.41-.77l-.1-.1A3.19,3.19,0,0,1,46.91,16a4.08,4.08,0,0,1,.53-.69,3.71,3.71,0,0,1,1.43-.93l.06,0,.12,0a2.35,2.35,0,0,0,.35-.15,5.57,5.57,0,0,1,4.9,1.46,4.72,4.72,0,0,1,1,1.41c1.36,2.89-.28,5.71-.79,9a3.85,3.85,0,0,0,1.1,3.33,3.55,3.55,0,0,0,1,.67,2.86,2.86,0,0,0,3-.4Zm-2.22-2.39,0,.05,0,0h0A0,0,0,0,1,57.57,27.09Z"/><path d="M31.73.57A2.94,2.94,0,0,0,29.66.29,2.74,2.74,0,0,0,29,.53a2.79,2.79,0,0,0-.61.51,2.28,2.28,0,0,0-.39.53L28,1.69a1.77,1.77,0,0,0,0,1.52,2.5,2.5,0,0,0,.47.65,2.22,2.22,0,0,0,.48.35l.13.06a1.82,1.82,0,0,0,.9.16,1.61,1.61,0,0,0,.63-.2,1.15,1.15,0,0,0,.45-.46A1,1,0,0,0,31.18,3a1.09,1.09,0,0,0-.53-.7.81.81,0,0,0-.34-.09.78.78,0,0,0-.58.23,1.47,1.47,0,0,0-.26.37L29.4,3l.59.41a2.54,2.54,0,0,1-.59-.17l-.09,0a.78.78,0,0,1-.34-1A1.41,1.41,0,0,1,29.05,2l.09-.15a1.34,1.34,0,0,1,1.14-.62,3.26,3.26,0,0,1,.49.05h.09l.28.12a1.77,1.77,0,0,1,1,1.45,2.5,2.5,0,0,1-.24,1.3c-.45.9-1.66,1.29-3.1,1.42s-3,0-4.07.11a7.13,7.13,0,0,0-5.84,3.67,6.15,6.15,0,0,0-.4,4.68,1.74,1.74,0,0,0,.07.29v0l.61,1.17h0a5.6,5.6,0,0,0,2.07,1.9,4.5,4.5,0,0,0,4.06.11,3.76,3.76,0,0,0,2-3.76A2.37,2.37,0,0,0,26,12a3,3,0,0,0-.53-.22,2.08,2.08,0,0,0-2.49,1,2.13,2.13,0,0,0-.24,1.07V14l0,.07c.19.37.24.51.31.61s0,0,.16.15a.35.35,0,0,0,.13,0,.4.4,0,0,0,.4-.2.37.37,0,0,0,0-.2.19.19,0,0,0,0-.05v-.06l0-.11a3.09,3.09,0,0,1-.06-.3,1.09,1.09,0,0,1,0-.57.14.14,0,0,1,.07-.07l.08,0,.06-.07a1.1,1.1,0,0,1,1.19-.33l.29.13a1.39,1.39,0,0,1,.77,1.14,2.84,2.84,0,0,1-.34,1.57l-.07.12a3.19,3.19,0,0,1-3.4.93,4.21,4.21,0,0,1-.81-.32,3.71,3.71,0,0,1-1.3-1.11v-.07l-.07-.1a2.5,2.5,0,0,0-.24-.29,5.57,5.57,0,0,1,0-5.11,4.74,4.74,0,0,1,1.07-1.38C23.47,6.22,26.64,7,29.91,6.57a3.86,3.86,0,0,0,2.89-2,3.57,3.57,0,0,0,.37-1.14A2.87,2.87,0,0,0,31.94.7Zm-1.67,2.8,0,0,0,0h0Z"/><path d="M4.57,28.44a2.86,2.86,0,0,0,3,.57,3.56,3.56,0,0,0,1-.62,3.85,3.85,0,0,0,1.28-3.27c-.32-3.28-1.8-6.19-.28-9a4.7,4.7,0,0,1,1.1-1.35,5.57,5.57,0,0,1,5-1.18,2.41,2.41,0,0,0,.34.17l.12,0,.06,0a3.7,3.7,0,0,1,1.37,1,4.07,4.07,0,0,1,.5.71,3.2,3.2,0,0,1-.14,3.53l-.1.09a2.85,2.85,0,0,1-1.45.69,1.39,1.39,0,0,1-1.29-.5,2.13,2.13,0,0,1-.19-.26,1.1,1.1,0,0,1,0-1.24l.05-.07,0-.09A.15.15,0,0,1,15,17.6a1.07,1.07,0,0,1,.55-.15h.53a.36.36,0,0,0,.18-.09.4.4,0,0,0,.11-.43.37.37,0,0,0-.07-.11c-.14-.13-.15-.1-.18-.12s-.26-.07-.67-.16l-.08,0-.09,0a2.13,2.13,0,0,0-1,.47,2.08,2.08,0,0,0-.42,2.66,3,3,0,0,0,.33.47,2.38,2.38,0,0,0,2,.84,3.77,3.77,0,0,0,3.2-2.81,4.5,4.5,0,0,0-1-3.93,5.56,5.56,0,0,0-2.32-1.59h0l-1.27-.32h0a1.9,1.9,0,0,0-.29,0,6.16,6.16,0,0,0-4.46,1.45,7.14,7.14,0,0,0-2.26,6.52c.15,1.06.62,2.56.81,4s.09,2.7-.68,3.34a2.48,2.48,0,0,1-1.21.53,1.77,1.77,0,0,1-1.63-.62,1.82,1.82,0,0,1-.18-.24h0l0-.08a3.21,3.21,0,0,1-.16-.46,1.34,1.34,0,0,1,.34-1.25l.13-.12.16-.12a.78.78,0,0,1,1,.11l.06.08a2.56,2.56,0,0,1,.3.54l-.53-.49-.1.09a1.51,1.51,0,0,0-.3.34.78.78,0,0,0-.09.62.83.83,0,0,0,.17.32,1.09,1.09,0,0,0,.8.36,1,1,0,0,0,.69-.25,1.15,1.15,0,0,0,.35-.54,1.66,1.66,0,0,0,0-.66,1.83,1.83,0,0,0-.36-.84l-.09-.11a2.33,2.33,0,0,0-.45-.39,2.52,2.52,0,0,0-.74-.31,1.75,1.75,0,0,0-1.49.29l-.1.08a2.24,2.24,0,0,0-.43.5,2.7,2.7,0,0,0-.36.71,2.75,2.75,0,0,0-.1.66,3,3,0,0,0,.75,1.95ZM6.76,26h0l0,0,0-.05Z"/><path class="cls-1" d="M26.19,115.19a.93.93,0,0,1-.84-1L29.18,75a.93.93,0,0,1,1-.83h0a.93.93,0,0,1,.84,1l-3.83,39.21a.93.93,0,0,1-1,.83Z"/><path d="M26.61,112.21a6.26,6.26,0,1,1,6.84-5.63A6.27,6.27,0,0,1,26.61,112.21Z"/><ellipse class="cls-2" cx="31.68" cy="45.7" rx="24.63" ry="24.5"/><path d="M40.17,32l-.58-.35,0-.08a.37.37,0,0,0,.28-.12,2.62,2.62,0,0,0,.34-.47L41.44,29l.2-.34a1,1,0,0,0,.08-.2.33.33,0,0,0,0-.27l0-.08.58.35,0,.08a.36.36,0,0,0-.28.12,1.15,1.15,0,0,0-.14.16l-.2.31-1.19,1.93-.19.33a1.11,1.11,0,0,0-.08.21.34.34,0,0,0,0,.27Zm-.29-.46-.08.05.27.17v-.1a.51.51,0,0,1,0-.13.54.54,0,0,1,.06-.12l0-.06,0,0,0,0,1.47-2.4,0,0,0,0,0-.05.08-.11.1-.08.12-.08-.3-.19v.14a.58.58,0,0,1,0,.12.7.7,0,0,1-.06.12l-.05.08,0,0-1.47,2.4,0,0-.05.08-.08.11Z"/><path d="M46,38.13l-.29-.61.08,0a.36.36,0,0,0,.3,0,2.48,2.48,0,0,0,.54-.21l2.05-1,.35-.18a.84.84,0,0,0,.17-.13.33.33,0,0,0,.13-.24l.08,0,.29.61-.08,0a.36.36,0,0,0-.3,0l-.2.06-.34.15-2.05,1-.34.18-.19.13a.34.34,0,0,0-.12.24Zm0-.54h-.1l.14.29.06-.08.09-.09.12-.07.06,0h0l0,0,2.54-1.21,0,0h0l.06,0,.13,0h.27l-.15-.32-.09.11-.08.09L49,36.2l-.09,0,0,0-2.54,1.21,0,0-.09,0-.13,0Z"/><path d="M46.3,38.85,46,38.24l.08,0a.36.36,0,0,0,.3,0,2.48,2.48,0,0,0,.54-.21l2.05-1,.35-.18a.84.84,0,0,0,.17-.13.33.33,0,0,0,.13-.24l.08,0,.29.61-.08,0a.36.36,0,0,0-.3,0l-.2.06-.34.15-2.05,1-.34.18-.19.13a.34.34,0,0,0-.12.24Zm0-.54h-.1l.14.29.06-.08.09-.09.12-.07.06,0h0l0,0,2.54-1.21,0,0h0l.06,0,.13,0h.27l-.15-.32-.09.11-.08.09-.12.07-.09,0,0,0L46.7,38.19l0,0-.09,0-.13,0Z"/><path d="M47.9,45.22v-.68H48a.36.36,0,0,0,.25.17,2.55,2.55,0,0,0,.57,0h2.67l.21,0a.33.33,0,0,0,.22-.16H52v.68h-.09a.36.36,0,0,0-.25-.17l-.21,0h-3l-.22,0a.34.34,0,0,0-.22.16Zm.24-.48-.09,0V45l.09,0,.12,0h3.38l.12,0,.13.06v-.36l-.13.06-.12,0H48.26Z"/><path d="M47.9,46v-.68H48a.36.36,0,0,0,.25.17,2.55,2.55,0,0,0,.57,0h2.67l.21,0a.33.33,0,0,0,.22-.16H52V46h-.09a.36.36,0,0,0-.25-.17l-.21,0h-3l-.22,0A.34.34,0,0,0,48,46Zm.24-.48-.09,0v.32l.09,0,.12,0h3.38l.12,0,.13.06v-.36l-.13.06-.12,0H48.26Z"/><path d="M47.9,46.82v-.68H48a.36.36,0,0,0,.25.17,2.48,2.48,0,0,0,.57,0h2.67l.21,0a.34.34,0,0,0,.22-.16H52v.68h-.09a.36.36,0,0,0-.25-.17l-.21,0h-3l-.22,0a.33.33,0,0,0-.21.16Zm.24-.48-.09,0v.32l.09,0,.12,0h3.38l.12,0,.13.06v-.36l-.13.06-.12,0H48.26Z"/><path d="M31.25,28.94,31,27.75l-.25,1a1.64,1.64,0,0,0-.06.41c0,.23.07.37.22.4v.09H30.3v-.09a.37.37,0,0,0,.12-.15l.09-.22.08-.22.06-.2v0l.28-1-.26-1.09v0l0-.06-.06-.25a3.52,3.52,0,0,0-.13-.45.31.31,0,0,0-.13-.17V25.5H31v.09a.16.16,0,0,0-.13.07.43.43,0,0,0,0,.21,1.61,1.61,0,0,0,.05.35l.21.87.2-.69a1.92,1.92,0,0,0,.09-.49c0-.19-.06-.29-.17-.32V25.5h.52v.09a.35.35,0,0,0-.11.12,1.61,1.61,0,0,0-.12.26c0,.11-.08.22-.12.33l0,.13-.22.77.37,1.52a5.45,5.45,0,0,0,.17.6.37.37,0,0,0,.14.21v.09h-.7v-.09l.11,0a.16.16,0,0,0,.05-.08.6.6,0,0,0,0-.15A1.32,1.32,0,0,0,31.25,28.94Zm-.82.52h.21a1.06,1.06,0,0,1,0-.27s0-.08,0-.16A2.67,2.67,0,0,1,30.44,29.45Zm.87,0h.3l-.06-.16s0-.12-.06-.21l-.1-.4-.54-2.23a2.64,2.64,0,0,1-.09-.55.64.64,0,0,1,.06-.28h-.35a1.46,1.46,0,0,1,.09.2c0,.08.06.2.1.39l.07.27v.1h0l.55,2.3c0,.06,0,.12,0,.18a1.34,1.34,0,0,1,0,.17A1,1,0,0,1,31.31,29.45Zm.28-3.84h-.21a.56.56,0,0,1,.07.28s0,.06,0,.12A2.71,2.71,0,0,1,31.58,25.61Z"/><path d="M32.58,29.61H31.9v-.09a.36.36,0,0,0,.17-.25,2.55,2.55,0,0,0,0-.57V26.42c0-.19,0-.32,0-.4a.91.91,0,0,0,0-.21.33.33,0,0,0-.16-.22V25.5h.68v.09a.36.36,0,0,0-.17.25,1.07,1.07,0,0,0,0,.21c0,.09,0,.21,0,.37v2.27c0,.16,0,.29,0,.39a1,1,0,0,0,0,.22.34.34,0,0,0,.16.22Zm-.48-.24,0,.09h.32l0-.09a.6.6,0,0,1,0-.12.63.63,0,0,1,0-.14V29a.28.28,0,0,1,0,0V26.1s0,0,0,0V26a.62.62,0,0,1,0-.14.56.56,0,0,1,0-.12l.06-.13H32l.06.13a.66.66,0,0,1,0,.12.64.64,0,0,1,0,.14s0,.05,0,.1V29s0,.08,0,.1a.65.65,0,0,1,0,.14A.59.59,0,0,1,32.1,29.37Z"/><path d="M33.38,29.61H32.7v-.09a.36.36,0,0,0,.17-.25,2.55,2.55,0,0,0,0-.57V26.42c0-.19,0-.32,0-.4a.91.91,0,0,0,0-.21.33.33,0,0,0-.16-.22V25.5h.68v.09a.35.35,0,0,0-.17.25,1.06,1.06,0,0,0,0,.21c0,.09,0,.21,0,.37v2.27c0,.16,0,.29,0,.39a1.09,1.09,0,0,0,0,.22.34.34,0,0,0,.16.22Zm-.48-.24,0,.09h.32l0-.09a.5.5,0,0,1,0-.12.56.56,0,0,1,0-.14V26a.55.55,0,0,1,0-.14.47.47,0,0,1,0-.12l.06-.13h-.36l.06.13a.57.57,0,0,1,0,.12A.64.64,0,0,1,33,26s0,.05,0,.1V29s0,.08,0,.1a.65.65,0,0,1,0,.14A.71.71,0,0,1,32.89,29.37Z"/><path d="M46,53.06l.38-.56.08.05a.36.36,0,0,0,.11.28,2.54,2.54,0,0,0,.46.35l1.89,1.26.34.21a.88.88,0,0,0,.2.08.34.34,0,0,0,.27,0l.08.05-.38.56-.08-.05a.36.36,0,0,0-.11-.28l-.16-.14-.3-.21-1.89-1.26-.33-.21-.21-.09a.35.35,0,0,0-.27,0Zm.47-.27,0-.08-.18.26h.1l.13,0,.12.07.05,0,0,0,0,0L49,54.73l0,0,0,0,.05,0,.11.08.07.11.07.12.2-.3-.14,0-.12,0-.12-.07-.08-.05,0,0-2.34-1.56,0,0L46.65,53l-.11-.08Z"/><path d="M48.45,55.42l-2.34-1.08,1.61,1.49a3.06,3.06,0,0,0,.36.3,1,1,0,0,0,.34.16.38.38,0,0,0,.27,0l.08.05-.31.47-.07,0a.57.57,0,0,0-.09-.21,1.93,1.93,0,0,0-.22-.27l-.41-.4-2.25-2.09v0l3,1.38a5.47,5.47,0,0,0,.58.24.38.38,0,0,0,.26,0l.08.05L49,56l-.08-.05v0a.2.2,0,0,0,0-.18.55.55,0,0,0-.18-.17Zm-2.87-1.57.28.26,2.61,1.21a2.37,2.37,0,0,1,.3.17l.13.1a.82.82,0,0,1,.11.14l.19-.28a1.83,1.83,0,0,1-.37-.11l-.21-.09-.18-.08Zm2.87,2.73.15-.22a.91.91,0,0,1-.23,0,1.26,1.26,0,0,1-.24-.12l.2.2Z"/><path d="M41.14,62.79l-1.47-2.11.64,2.1a2.89,2.89,0,0,0,.17.44,1,1,0,0,0,.21.31.38.38,0,0,0,.25.1l0,.08-.51.25,0-.08a.6.6,0,0,0,0-.23,1.88,1.88,0,0,0-.05-.34c0-.15-.09-.33-.15-.55l-.89-2.93h0l1.91,2.71a4.69,4.69,0,0,0,.38.5.38.38,0,0,0,.23.13l0,.08-.63.31,0-.08h0a.2.2,0,0,0,.09-.16.54.54,0,0,0-.07-.24A2,2,0,0,0,41.14,62.79ZM39.45,60l.11.37,1.64,2.36a2.45,2.45,0,0,1,.18.3,1,1,0,0,1,.06.16.91.91,0,0,1,0,.17l.3-.15a1.8,1.8,0,0,1-.26-.28l-.14-.18-.11-.16Zm1.11,3.8.24-.12a.86.86,0,0,1-.18-.15,1.16,1.16,0,0,1-.14-.22,2.5,2.5,0,0,1,.07.27A1.28,1.28,0,0,1,40.56,63.79Z"/><path d="M32.7,65.09l-.4-2.54L32,64.72a3.08,3.08,0,0,0,0,.47,1,1,0,0,0,.06.37.38.38,0,0,0,.18.2v.09h-.56v-.09a.6.6,0,0,0,.13-.19,2.07,2.07,0,0,0,.1-.33q.05-.23.11-.56l.48-3h0l.53,3.27a4.81,4.81,0,0,0,.12.62.38.38,0,0,0,.15.22v.09h-.71v-.09h0a.2.2,0,0,0,.15-.1.56.56,0,0,0,0-.25A2,2,0,0,0,32.7,65.09Zm-.29-3.26-.06.38.45,2.84a2.24,2.24,0,0,1,0,.35.9.9,0,0,1,0,.17.84.84,0,0,1-.05.17h.33a1.84,1.84,0,0,1-.11-.37l0-.22,0-.19Zm-.67,3.9H32a.84.84,0,0,1-.09-.22,1.27,1.27,0,0,1,0-.27,2.65,2.65,0,0,1-.06.27A1.4,1.4,0,0,1,31.74,65.74Z"/><path d="M30.83,61.75h.68v.09a.36.36,0,0,0-.17.25,2.55,2.55,0,0,0,0,.57v2.27c0,.19,0,.32,0,.4a.92.92,0,0,0,0,.21.34.34,0,0,0,.16.22v.09h-.68v-.09a.36.36,0,0,0,.17-.25,1.07,1.07,0,0,0,0-.21c0-.09,0-.21,0-.37V62.66c0-.16,0-.29,0-.39a1.07,1.07,0,0,0,0-.22.34.34,0,0,0-.16-.22Zm.48.24,0-.09H31l0,.09a.56.56,0,0,1,0,.12.57.57,0,0,1,0,.14v.07a.25.25,0,0,1,0,0v2.91a.37.37,0,0,1,0,0v.06a.57.57,0,0,1,0,.14.52.52,0,0,1,0,.12l-.06.13h.36l-.06-.13a.65.65,0,0,1,0-.12.63.63,0,0,1,0-.14s0-.05,0-.1V62.34s0-.08,0-.1a.64.64,0,0,1,0-.14A.73.73,0,0,1,31.31,62Z"/><path d="M22.79,62.89l1-2.37-1.44,1.65a3,3,0,0,0-.29.37,1,1,0,0,0-.15.35.38.38,0,0,0,0,.26l0,.08-.48-.3,0-.08a.6.6,0,0,0,.21-.1,2,2,0,0,0,.26-.23l.39-.42,2-2.31h0l-1.3,3a5,5,0,0,0-.23.59.38.38,0,0,0,0,.26l-.05.08-.6-.38,0-.08h0a.2.2,0,0,0,.18,0,.55.55,0,0,0,.17-.19A2,2,0,0,0,22.79,62.89ZM24.29,60l-.25.29L22.9,62.91a2.33,2.33,0,0,1-.16.31l-.1.13-.13.11.28.18a1.79,1.79,0,0,1,.1-.37l.08-.21.07-.18Zm-2.65,2.94.22.14a.85.85,0,0,1,0-.23A1.22,1.22,0,0,1,22,62.6l-.2.2Z"/><path d="M23,59.06l.57.36-.05.08a.36.36,0,0,0-.28.12,2.54,2.54,0,0,0-.34.46L21.69,62l-.2.34a.9.9,0,0,0-.08.2.33.33,0,0,0,0,.27l0,.08-.57-.36.05-.08a.36.36,0,0,0,.28-.12,1.12,1.12,0,0,0,.14-.16l.2-.3L22.69,60l.2-.33a1.11,1.11,0,0,0,.09-.21.34.34,0,0,0,0-.27Zm.28.46.08-.05-.27-.17v.1a.6.6,0,0,1,0,.13.55.55,0,0,1-.06.12l0,.06,0,0,0,0-1.5,2.38,0,0,0,0,0,.05-.08.11-.1.08-.12.07.3.19,0-.14a.64.64,0,0,1,0-.12l.07-.12.05-.08,0,0L23,59.84l0,0,.05-.08.08-.11Z"/><path d="M22.33,58.64l.57.36-.05.08a.36.36,0,0,0-.28.12,2.52,2.52,0,0,0-.34.46L21,61.59l-.2.34a.94.94,0,0,0-.08.2.33.33,0,0,0,0,.27l0,.08-.57-.36,0-.08a.36.36,0,0,0,.28-.12l.14-.16.2-.31L22,59.53c.09-.14.15-.25.2-.33A1.1,1.1,0,0,0,22.3,59a.34.34,0,0,0,0-.27Zm.28.46.08-.05-.27-.17V59a.55.55,0,0,1,0,.13.61.61,0,0,1-.06.12l0,.06,0,0,0,0-1.5,2.38,0,0,0,0,0,.05-.08.11-.1.08-.12.07.3.19v-.14a.62.62,0,0,1,0-.12.71.71,0,0,1,.07-.12l.05-.08,0,0,1.5-2.38,0,0,.05-.08.08-.11Z"/><path d="M15.67,56.45l2-1.62-2,.79a3.26,3.26,0,0,0-.42.2,1,1,0,0,0-.29.24.37.37,0,0,0-.08.25l-.08,0-.28-.49.08,0a.59.59,0,0,0,.23,0,1.94,1.94,0,0,0,.34-.08l.54-.19,2.86-1.1v0l-2.57,2.1a5.14,5.14,0,0,0-.47.42.39.39,0,0,0-.12.24l-.08,0-.35-.61.08,0,0,0a.19.19,0,0,0,.16.08.55.55,0,0,0,.24-.09A2,2,0,0,0,15.67,56.45Zm2.67-1.89L18,54.7l-2.23,1.81a2.35,2.35,0,0,1-.28.2l-.15.07-.17,0,.17.29a1.68,1.68,0,0,1,.26-.28l.17-.15.15-.12Zm-3.71,1.38.13.23a.87.87,0,0,1,.14-.19,1.2,1.2,0,0,1,.21-.16l-.27.09Z"/><path d="M17.63,53.15l.34.58-.08,0a.36.36,0,0,0-.3,0,2.59,2.59,0,0,0-.52.25l-2,1.14-.34.21a.89.89,0,0,0-.16.14.33.33,0,0,0-.11.25l-.08,0-.34-.58.08,0a.36.36,0,0,0,.3,0l.2-.08.32-.17,2-1.14.33-.21a1,1,0,0,0,.17-.15.34.34,0,0,0,.11-.25Zm0,.54h.1l-.16-.27-.05.08-.08.1-.11.08-.06,0,0,0,0,0-2.43,1.41,0,0,0,0-.05,0-.12.06-.13,0h-.14l.18.31.08-.12.08-.1.11-.08.09,0,0,0,2.43-1.41,0,0,.09,0,.12-.06Z"/><path d="M17.23,52.46l.34.59-.08,0a.36.36,0,0,0-.3,0,2.47,2.47,0,0,0-.52.25l-2,1.14-.34.21a.83.83,0,0,0-.16.14.33.33,0,0,0-.11.25l-.08,0-.34-.59.08,0a.36.36,0,0,0,.3,0l.2-.08.32-.18,2-1.14.33-.2a1,1,0,0,0,.17-.15.35.35,0,0,0,.11-.25Zm0,.54h.1l-.16-.27-.05.08-.08.1L17,53l-.06,0,0,0,0,0-2.43,1.41,0,0,0,0-.05,0-.12.06-.13,0h-.14l.18.31.08-.12.08-.1.12-.08.08-.05,0,0,2.43-1.41,0,0,.09,0,.12-.06Z"/><path d="M16.83,51.77l.34.59-.08,0a.36.36,0,0,0-.3,0,2.6,2.6,0,0,0-.52.25l-2,1.14L14,54a.93.93,0,0,0-.16.14.33.33,0,0,0-.11.25l-.08,0-.34-.58.08,0a.35.35,0,0,0,.3,0l.2-.08.32-.18,2-1.14.33-.2a1.11,1.11,0,0,0,.17-.15.34.34,0,0,0,.11-.25Zm0,.54H17L16.8,52l-.05.08-.08.1-.11.08-.06,0,0,0,0,0L14,53.78l0,0,0,0-.05,0-.12.06-.13,0h-.14l.18.31.08-.12.08-.1.12-.08L14,53.9l0,0,2.43-1.41,0,0,.09,0,.12-.06Z"/><path d="M15.74,46.25v.68h-.09a.36.36,0,0,0-.25-.17,2.53,2.53,0,0,0-.57,0H12.15l-.21,0a.33.33,0,0,0-.22.16h-.09v-.68h.09a.36.36,0,0,0,.25.17l.21,0h3l.22,0a.34.34,0,0,0,.22-.16Zm-.24.48.09,0v-.32l-.09,0-.12,0H12l-.12,0-.13-.06v.36l.13-.06.12,0h3.39Z"/><path d="M15.06,45.21l-1.19.29,1,.25a1.64,1.64,0,0,0,.41.06c.23,0,.37-.07.4-.22h.09v.57h-.09a.38.38,0,0,0-.15-.12L15.28,46l-.22-.08-.2-.06h0l-1-.28-1.09.26h0l-.06,0-.25.06a3.63,3.63,0,0,0-.45.14.31.31,0,0,0-.17.13h-.09v-.69h.09a.16.16,0,0,0,.07.13.44.44,0,0,0,.21,0,1.56,1.56,0,0,0,.35-.05l.87-.2-.69-.2a1.93,1.93,0,0,0-.49-.09c-.19,0-.29.06-.32.17h-.09v-.52h.09a.35.35,0,0,0,.12.11l.26.12.33.12.13,0,.77.22L14.84,45a5.17,5.17,0,0,0,.6-.17.38.38,0,0,0,.21-.14h.09v.7h-.09a.26.26,0,0,0,0-.11.16.16,0,0,0-.08-.05l-.15,0A1.34,1.34,0,0,0,15.06,45.21Zm.52.82v-.21a1,1,0,0,1-.27,0h-.16A2.51,2.51,0,0,1,15.58,46Zm0-.87v-.3l-.16.06-.21.06-.4.1-2.23.54a2.62,2.62,0,0,1-.55.09.64.64,0,0,1-.28-.06V46l.2-.09.39-.1.27-.07h.11l2.3-.55.18,0,.17,0Zm-3.84-.28v.22A.56.56,0,0,1,12,45h.12A2.6,2.6,0,0,1,11.74,44.88Z"/><path d="M17.34,37.42,16.18,37l.68.72a1.61,1.61,0,0,0,.31.27c.2.12.35.13.46,0l.08,0-.3.48-.08,0a.38.38,0,0,0-.07-.18l-.14-.19L17,38l-.14-.16,0,0L16.08,37,15,36.65h0l-.06,0-.25-.08a3.43,3.43,0,0,0-.45-.12.31.31,0,0,0-.21,0l-.08,0,.36-.58.08,0a.16.16,0,0,0,0,.15.45.45,0,0,0,.16.14,1.52,1.52,0,0,0,.33.14l.84.29L15.22,36a1.93,1.93,0,0,0-.37-.34c-.16-.1-.28-.1-.36,0l-.08,0,.28-.44.08,0a.35.35,0,0,0,0,.16,1.64,1.64,0,0,0,.15.24l.22.28.09.1.53.59,1.48.49a5.06,5.06,0,0,0,.6.17.38.38,0,0,0,.25,0l.08,0-.37.6-.08,0a.24.24,0,0,0,0-.11.15.15,0,0,0,0-.09l-.12-.09A1.3,1.3,0,0,0,17.34,37.42Zm0,1,.11-.17a1,1,0,0,1-.25-.11L17.07,38A2.58,2.58,0,0,1,17.35,38.39Zm.46-.74L18,37.4l-.17,0-.21-.05-.4-.12L15,36.46a2.58,2.58,0,0,1-.52-.22.64.64,0,0,1-.21-.2l-.19.3.22,0,.38.12.26.09h.11l2.24.75.17.07.15.07A1.05,1.05,0,0,1,17.81,37.65Zm-3.11-2.27-.12.18a.56.56,0,0,1,.28.09l.1.07A2.51,2.51,0,0,1,14.69,35.38Z"/><path d="M23.78,31.76l-.59.33,0-.08a.36.36,0,0,0,0-.3,2.58,2.58,0,0,0-.25-.52l-1.12-2-.2-.34a.91.91,0,0,0-.14-.16.33.33,0,0,0-.25-.11l0-.08.59-.33,0,.08a.36.36,0,0,0,0,.3,1.07,1.07,0,0,0,.08.2l.17.32,1.12,2c.08.14.15.25.2.33a1.1,1.1,0,0,0,.14.17.34.34,0,0,0,.25.11Zm-.54,0v.1l.28-.16-.08-.05-.1-.08a.53.53,0,0,1-.08-.11l0-.06,0,0,0,0L21.8,28.9l0,0,0,0,0-.05a.63.63,0,0,1-.06-.12.56.56,0,0,1,0-.13v-.14l-.31.18.12.08.1.08.08.12,0,.08,0,0,1.39,2.45,0,0,0,.09a.43.43,0,0,1,.08.25Z"/><path d="M24.35,30.66l-.84-.89.25,1a1.58,1.58,0,0,0,.15.39c.12.2.24.28.39.24l0,.08-.5.28,0-.08a.39.39,0,0,0,0-.19,2.31,2.31,0,0,0,0-.24c0-.09,0-.17,0-.24l0-.21v0l-.27-1-.76-.82,0,0,0,0-.18-.19a3.5,3.5,0,0,0-.34-.33.31.31,0,0,0-.19-.08l0-.08.6-.34,0,.08a.16.16,0,0,0-.08.13.42.42,0,0,0,.07.2,1.54,1.54,0,0,0,.22.28l.6.65-.17-.7A1.92,1.92,0,0,0,23,28c-.09-.16-.19-.23-.31-.19l0-.08.45-.26,0,.08a.33.33,0,0,0,0,.16,1.44,1.44,0,0,0,0,.28c0,.12,0,.23.06.35l0,.13.19.77,1.07,1.13a5.24,5.24,0,0,0,.45.43.37.37,0,0,0,.23.11l0,.08-.61.35,0-.08a.26.26,0,0,0,.07-.09.15.15,0,0,0,0-.1.51.51,0,0,0-.06-.14A1.32,1.32,0,0,0,24.35,30.66Zm-.46.85.18-.1a1,1,0,0,1-.17-.22l-.07-.14A2.64,2.64,0,0,1,23.9,31.51Zm.76-.43.26-.15-.14-.11-.16-.15-.29-.3L22.76,28.7a2.71,2.71,0,0,1-.35-.44.67.67,0,0,1-.09-.27l-.31.17.17.13.28.29.19.2,0,0,0,0h0l1.61,1.73.12.14.1.14A1,1,0,0,1,24.65,31.08ZM23,27.61l-.19.11a.57.57,0,0,1,.2.21l.05.11A2.62,2.62,0,0,1,23,27.61Z"/><path d="M7.11,45.73A24.73,24.73,0,0,1,31.84,21h0A24.73,24.73,0,0,1,56.57,45.73h0A24.73,24.73,0,0,1,31.84,70.46h0A24.73,24.73,0,0,1,7.11,45.73Zm7.43-17.3a24.39,24.39,0,0,0-7.17,17.3h0A24.39,24.39,0,0,0,14.54,63h0a24.39,24.39,0,0,0,17.3,7.17h0A24.38,24.38,0,0,0,49.14,63h0a24.39,24.39,0,0,0,7.17-17.3h0a24.39,24.39,0,0,0-7.17-17.3h0a24.39,24.39,0,0,0-17.3-7.17h0a24.4,24.4,0,0,0-17.3,7.17Z"/><path d="M11,45.67A20.82,20.82,0,0,1,31.84,24.85h0A20.82,20.82,0,0,1,52.66,45.67h0A20.83,20.83,0,0,1,31.84,66.5h0A20.82,20.82,0,0,1,11,45.67ZM17.3,31.13a20.49,20.49,0,0,0-6,14.54h0a20.49,20.49,0,0,0,6,14.54h0a20.5,20.5,0,0,0,14.54,6h0a20.51,20.51,0,0,0,14.54-6h0a20.5,20.5,0,0,0,6-14.54h0a20.5,20.5,0,0,0-6-14.54h0a20.5,20.5,0,0,0-14.54-6h0a20.49,20.49,0,0,0-14.54,6Z"/><path d="M32,25v-3.9h-.19V25Z"/><path d="M31.77,66.31v4H32v-4Z"/><path d="M50.22,36l3.33-1.78-.09-.17-3.33,1.78Z"/><path d="M13.78,55.66l-3.61,1.93.09.16,3.57-1.91Z"/><path d="M42.34,27.87l1.89-3.29-.16-.09-1.88,3.26Z"/><path d="M21.15,63.29l-2.08,3.62.16.09,2.09-3.62Z"/><path d="M22,27.51l-1.83-3.42-.17.09,1.84,3.44Z"/><path d="M41.28,63.95l1.95,3.64.17-.09-1.93-3.62Z"/><path d="M14,35.41l-3.47-2-.09.16,3.48,2Z"/><path d="M49.71,56l-.1.16,3.5,2,.09-.16Z"/><path d="M11,45.59H7.19v.19H11C11,45.72,11,45.66,11,45.59Z"/><path d="M52.41,45.59c0,.06,0,.13,0,.19h4v-.19Z"/><circle cx="31.88" cy="23.04" r="0.73"/><circle cx="31.8" cy="68.43" r="0.73"/><circle cx="20.24" cy="65.15" r="0.73"/><circle cx="11.99" cy="56.7" r="0.73"/><circle cx="12.12" cy="34.45" r="0.73"/><circle cx="20.9" cy="25.76" r="0.73"/><circle cx="54.52" cy="45.66" r="0.73"/><circle cx="9.1" cy="45.69" r="0.73"/><circle cx="43.26" cy="26.11" r="0.73"/><circle cx="51.87" cy="35.03" r="0.73"/><circle cx="51.44" cy="57.09" r="0.73"/><circle cx="42.33" cy="65.78" r="0.73"/><path d="M29.27,54.9l0-.05h0l.05-.06,0,0,.06-.06,0,0,.06-.05,0,0,.07,0,.07,0,.08,0h.49l.08,0h0l.08,0h0l.08,0h.11l.06,0,0,0,0,0h0s0,0,0,0h0s0,0,0,0,0,0,0,0h0s0,0,0,0h0a.15.15,0,0,0,0-.06h0s0,0,0,0,0,0,0,0h0s0,0,0,0H31s0,0,0,0l-.08,0s0,0,0,0H31s0,0,0,0l0,0s0,0,0,0H31s0,0,0,0l-.11,0s0,0,0,0L31,54s0,0,0,0l-.06,0s0,0,0,0h.13s0,0,0,0l-.08,0s0,0,0,0h0l0,0,0,0h0s0,0,0,0h0s0,0,0,0,0,0,0,0,0,0,0,0h.21s0,0,0,0l-.11,0-.07,0s0,0,0,0h.15s0,0,0,0l0,0-.14-.09s0,0,0,0l.13,0,.08,0h.14s0,0,0,0l-.09,0-.07,0-.08,0s0,0,0,0h.27s0,0,0,0l-.09-.05-.06-.05,0,0s0,0,0,0h0l.07,0h0s0,0,0,0l0-.06s0,0,0,0,.14.1.13.08l-.1-.12s0,0,0,0l.08,0,.07,0s0,0,0,0l-.06-.06s0,0,0,0l.08,0,.07,0h0s0,0,0,0l-.1-.09s0,0,0,0l.11,0s0,0,0,0h0l0-.07v0a.35.35,0,0,1,0-.08v-.05s0,0,0,0l0,0,.05.06L32,53l0,0,.07,0h.07l.08,0h.33a.1.1,0,0,0,.07,0l.06-.07,0-.07,0-.08s0,0,0,0v0a.29.29,0,0,1,0,.08v0a.38.38,0,0,1,0,.08v0l0,.07,0,.07v0a.15.15,0,0,0,0,.07.26.26,0,0,0,0,.08h0l0,.08h0l0,.06,0,0a.13.13,0,0,1,0,.07h0v.1s0,.06,0,.08v0a.27.27,0,0,0,0,.08l.05.13,0,.08,0,.12,0,.08,0,.08,0,.07a.13.13,0,0,1,0,.07h0a.31.31,0,0,1,0,.08v0l0,.08v0l0,.07h0l-.05.06h0l0,0,0,0-.07,0-.07,0h0l-.05,0a.15.15,0,0,1,0-.06h0a.36.36,0,0,0,0-.08h0l0-.07h0l-.06-.05h0l-.07,0h0l-.06,0-.05,0s0,0,0,0v.12s0,.06,0,.08v.17a.56.56,0,0,0,0,.08V55a.23.23,0,0,0,0,.08l0,.07,0,.07,0,.09,0,.07,0,0,0,.08v0l0,.08v.05a.78.78,0,0,1,0,.08v0a.46.46,0,0,1,0,.08v0a.14.14,0,0,0,0,.08l0,.07,0,.07.05.1,0,.07.05.1,0,.07.05.07.05.06.05,0,.06.05,0,0,.05.06,0,0,0,.07v0l0,.08,0,.07,0,.08.06.14,0,.07.07.11,0,.06.06.06a.11.11,0,0,1,0,.07v.06a.12.12,0,0,0,0,.07l0,0,.05.06,0,0a.2.2,0,0,1,0,.07v0l0,.08a.32.32,0,0,1,0,.08v.06a.07.07,0,0,1,0,.06l-.06,0-.06,0,0,0-.06-.05v0l0-.07h0a.26.26,0,0,1,0-.06.07.07,0,0,1,0-.05h0a.07.07,0,0,0,0-.07h0a.2.2,0,0,0,0-.07l-.1-.1a.15.15,0,0,1,0-.07v0l0-.08-.08-.16,0-.08L33,57.28l0-.07,0,0-.05-.06L32.85,57,32.79,57l-.05-.06-.06-.06,0,0-.07,0-.15-.09-.07,0-.1-.08-.07,0-.1-.06a.08.08,0,0,0-.07,0h0l-.08,0h0a0,0,0,0,0,0,0h0l.05.06.09.08.06.05.12.09.06.05,0,0,0,.05,0,.06,0,.06a.15.15,0,0,1,0,.07.27.27,0,0,1,0,.07l0,0a.2.2,0,0,0,0,.08l0,.18a.25.25,0,0,0,0,.08.14.14,0,0,1,0,.07.12.12,0,0,1,0,.06h0a.09.09,0,0,1-.07,0,.1.1,0,0,0-.07,0l-.05,0-.07,0H31.9l0-.05h0a.1.1,0,0,1,0-.06l0,0a.07.07,0,0,0,0,0,.05.05,0,0,1,0,0h0l0,0,0,0h0l.05,0s0,0,0,0h0l0-.08v0a.11.11,0,0,0,0-.06l0-.06v0l0-.07,0,0L32,57,31.9,57l-.07,0-.09-.05-.07,0-.06,0-.07,0,0,0-.06-.05,0,0-.06-.06,0,0-.06,0-.07,0h-.11l-.17,0h-.12a0,0,0,0,0,0,0v.07l0,.08,0,.06a.26.26,0,0,0,0,.08v.1a.47.47,0,0,0,0,.08v.23a.37.37,0,0,0,0,.08h0l0,.07h0l.05.06h0l0,.05,0,.05h0l.06,0,0,0,.06.06,0,.06.05.06.06.05.05,0,.05.06,0,.07a.17.17,0,0,1,0,.07.34.34,0,0,1,0,.08,0,0,0,0,1,0,0h-.26A.12.12,0,0,1,31,58.1v0A.2.2,0,0,1,31,58,.1.1,0,0,0,31,58l0-.05-.07-.09,0-.06,0-.07,0,0,0-.07,0-.06,0-.07,0,0a.11.11,0,0,0-.06,0h-.05l-.07,0,0,0-.05-.06-.1-.14,0-.07v0a.24.24,0,0,0,0-.07L30,56.78,30,56.72l0,0,0-.07-.1-.14,0-.07,0-.08,0-.07-.06-.07-.05-.06L29.48,56,29.42,56l-.06-.06-.05-.06-.05-.07,0-.07,0,0,0-.08v0l0-.08,0-.1a.28.28,0,0,1,0-.08v-.07s0,0,0,0l0,.05,0,.06-.05.06-.05.06-.05.06s0,0,0,0l.13-.2s0,0,0,0l-.08,0-.07,0-.13.08a1.77,1.77,0,0,0-.16.14l-.05.06v0a.17.17,0,0,0,0,.08v.06a.16.16,0,0,1,0,.08.79.79,0,0,1-.08.11l-.07,0-.05.06,0,.07,0,.07,0,0s0,0,0,0l0-.12,0-.07.14-.22s0,0,0,0l-.12.15,0,.07-.05.11s0,0,0,0v-.14a.15.15,0,0,1,0-.07l.06-.08,0-.07,0-.13,0-.08.15-.31s0,0,0,0l-.06.05-.11.18s0,0,0,0h0a.2.2,0,0,1,0-.08l.09-.17,0-.07,0,0s0,0,0,0l-.23.26s0,0,0,0a.21.21,0,0,1,0-.08l0-.08,0-.07.08-.09.06-.05.11-.08.07,0,.07,0,.08,0h.47Z"/><path class="cls-2" d="M30,56.18s0,0,0,0l0,0,.07,0h0l.07,0,0,0a.1.1,0,0,1,0,.07v.11a.45.45,0,0,1,0,.08l0,.12s0,0,0,0l-.13-.25,0-.07,0-.05,0-.08Z"/><path class="cls-1" d="M31.8,46.75a.28.28,0,0,1-.25-.3V33.73a.28.28,0,0,1,.25-.3h0a.28.28,0,0,1,.25.3V46.45a.28.28,0,0,1-.25.3Z"/><circle cx="31.82" cy="45.72" r="0.63"/><path d="M32.16,31.14A2,2,0,0,1,31.89,30c0-.15,0-.29,0-.44s0-.56,0-.84a11.7,11.7,0,0,0-.05-1.2s0-.21,0-.21a13.68,13.68,0,0,0-.1,2.38,2.81,2.81,0,0,1-.2,1.43c-.1.16-.25.22-.36.38a1.66,1.66,0,0,0-.24.58,2,2,0,0,0,0,.4c0,.76.42,1.38.94,1.38s.94-.62.94-1.38a1.9,1.9,0,0,0-.14-.72A3.15,3.15,0,0,0,32.16,31.14Z"/><path class="cls-1" d="M33.79,45.66a.23.23,0,0,1-.22.25H24.17a.23.23,0,0,1-.22-.25h0a.23.23,0,0,1,.22-.24h9.39a.23.23,0,0,1,.22.24Z"/><path d="M21.81,45.2a1.54,1.54,0,0,1-1.17.4H19.35a8.22,8.22,0,0,0-1.2.08s-.21,0-.21.06a9.37,9.37,0,0,0,2.38.15,2,2,0,0,1,1.43.29c.16.15.22.37.38.53a1.38,1.38,0,0,0,1,.41,1.38,1.38,0,1,0-.72-2.56C22.14,44.71,22,45,21.81,45.2Z"/><path d="M48.46,99.41a2.87,2.87,0,0,0-2.76,1.21,3.53,3.53,0,0,0-.49,1.09,3.85,3.85,0,0,0,.81,3.41c2.13,2.51,5,4.06,5.35,7.24a4.74,4.74,0,0,1-.14,1.74,5.57,5.57,0,0,1-3.42,3.8,2.45,2.45,0,0,0-.37.06l-.12,0,0,0a3.7,3.7,0,0,1-1.71,0,4.15,4.15,0,0,1-.81-.31,3.19,3.19,0,0,1-1.89-3l0-.13a2.84,2.84,0,0,1,.8-1.39,1.39,1.39,0,0,1,1.34-.32,1.94,1.94,0,0,1,.3.11,1.1,1.1,0,0,1,.66,1v.09l0,.08a.14.14,0,0,1,0,.1,1.08,1.08,0,0,1-.36.44l-.25.18-.09.06,0,0,0,0a.38.38,0,0,0-.1.18.4.4,0,0,0,.16.42.37.37,0,0,0,.12.05c.19,0,.18,0,.21,0l.64-.25.08,0,.06-.06a2.13,2.13,0,0,0,.54-1A2.07,2.07,0,0,0,45.78,112a3,3,0,0,0-.54-.2,2.37,2.37,0,0,0-2.16.47,3.76,3.76,0,0,0-1,4.13A4.51,4.51,0,0,0,45.13,119a5.58,5.58,0,0,0,2.81,0h0l1.23-.46,0,0a1.76,1.76,0,0,0,.24-.17,6.16,6.16,0,0,0,2.85-3.73A7.14,7.14,0,0,0,50.45,108c-.73-.79-2-1.76-2.94-2.82S45.9,103,46.17,102a2.49,2.49,0,0,1,.7-1.12,1.77,1.77,0,0,1,1.7-.42l.28.1h0l.07,0a3.38,3.38,0,0,1,.4.29,1.35,1.35,0,0,1,.43,1.23,1.33,1.33,0,0,1,0,.17,1.5,1.5,0,0,1-.07.19.78.78,0,0,1-.89.48l-.09,0a2.57,2.57,0,0,1-.55-.27l.71.1,0-.13a1.45,1.45,0,0,0,.06-.45.77.77,0,0,0-.28-.56.82.82,0,0,0-.32-.16,1.09,1.09,0,0,0-.87.16,1,1,0,0,0-.42.6,1.15,1.15,0,0,0,0,.64,1.62,1.62,0,0,0,.34.57,1.81,1.81,0,0,0,.77.48l.13,0a2.2,2.2,0,0,0,.59.07,2.49,2.49,0,0,0,.79-.16,1.77,1.77,0,0,0,1.06-1.09l0-.13a2.24,2.24,0,0,0,.07-.66,2.75,2.75,0,0,0-.11-.79,2.7,2.7,0,0,0-.29-.6,3,3,0,0,0-1.72-1.17ZM48,102.65h0a.16.16,0,0,1,0-.05.32.32,0,0,1,0,.06Z"/><path d="M40.62,115.74A2.87,2.87,0,0,0,37.86,117a3.53,3.53,0,0,0-.49,1.09,3.85,3.85,0,0,0,.81,3.41c2.13,2.51,5,4.06,5.35,7.24a4.74,4.74,0,0,1-.14,1.74,5.57,5.57,0,0,1-3.42,3.8,2.46,2.46,0,0,0-.37.06l-.12,0,0,0a3.7,3.7,0,0,1-1.71,0,4.14,4.14,0,0,1-.81-.31A3.19,3.19,0,0,1,35,131l0-.13a2.84,2.84,0,0,1,.8-1.39,1.39,1.39,0,0,1,1.34-.32,1.94,1.94,0,0,1,.3.11,1.1,1.1,0,0,1,.66,1v.09l0,.08a.14.14,0,0,1,0,.1,1.08,1.08,0,0,1-.36.44l-.25.18-.09.06,0,0,0,0a.38.38,0,0,0-.1.18.4.4,0,0,0,.16.42.37.37,0,0,0,.12.05c.19,0,.18,0,.21,0l.64-.25.08,0,.06-.06a2.13,2.13,0,0,0,.54-1,2.07,2.07,0,0,0-1.17-2.42,3,3,0,0,0-.54-.2,2.37,2.37,0,0,0-2.16.47,3.76,3.76,0,0,0-1,4.13,4.51,4.51,0,0,0,3.08,2.65,5.58,5.58,0,0,0,2.81,0h0l1.23-.46,0,0a1.76,1.76,0,0,0,.24-.17A6.16,6.16,0,0,0,44.48,131a7.14,7.14,0,0,0-1.86-6.64c-.73-.79-2-1.76-2.94-2.82s-1.61-2.17-1.34-3.14a2.48,2.48,0,0,1,.7-1.12,1.77,1.77,0,0,1,1.7-.42l.28.1h0l.07,0a3.39,3.39,0,0,1,.4.29,1.35,1.35,0,0,1,.43,1.22,1.27,1.27,0,0,1,0,.17,1.46,1.46,0,0,1-.07.19.78.78,0,0,1-.89.48l-.09,0a2.58,2.58,0,0,1-.55-.27l.71.1,0-.13a1.45,1.45,0,0,0,.06-.45.77.77,0,0,0-.28-.56.81.81,0,0,0-.32-.16,1.09,1.09,0,0,0-.87.16,1,1,0,0,0-.42.6,1.15,1.15,0,0,0,0,.64,1.63,1.63,0,0,0,.34.57,1.82,1.82,0,0,0,.77.48l.13,0a2.2,2.2,0,0,0,.59.07,2.49,2.49,0,0,0,.79-.16,1.77,1.77,0,0,0,1.06-1.09l0-.13a2.23,2.23,0,0,0,.07-.66,2.75,2.75,0,0,0-.11-.79,2.7,2.7,0,0,0-.29-.6,2.94,2.94,0,0,0-1.72-1.17ZM40.21,119h0a.17.17,0,0,1,0-.05.31.31,0,0,1,0,.06Z"/><path d="M13.29,99.69a3,3,0,0,0-1.72,1.18,2.62,2.62,0,0,0-.29.6,2.68,2.68,0,0,0-.11.79,2.24,2.24,0,0,0,.07.66l0,.13a1.76,1.76,0,0,0,1.06,1.09,2.49,2.49,0,0,0,.79.16,2.29,2.29,0,0,0,.59-.07l.13,0a1.82,1.82,0,0,0,.77-.48,1.65,1.65,0,0,0,.34-.57,1.15,1.15,0,0,0,0-.64,1,1,0,0,0-.42-.6,1.08,1.08,0,0,0-.87-.16.8.8,0,0,0-.32.16.77.77,0,0,0-.28.56,1.45,1.45,0,0,0,.06.45l0,.13.71-.1a2.55,2.55,0,0,1-.55.27l-.09,0a.78.78,0,0,1-.9-.49,1,1,0,0,1-.06-.19,1.1,1.1,0,0,1,0-.17,1.35,1.35,0,0,1,.43-1.22,3.18,3.18,0,0,1,.4-.29l.07,0h0l.28-.1a1.77,1.77,0,0,1,1.7.42,2.5,2.5,0,0,1,.7,1.12c.27,1-.36,2.07-1.34,3.13s-2.21,2-2.94,2.82a7.14,7.14,0,0,0-1.86,6.64,6.16,6.16,0,0,0,2.85,3.73,1.75,1.75,0,0,0,.24.17l0,0,1.23.46h0a5.56,5.56,0,0,0,2.81,0,4.5,4.5,0,0,0,3.08-2.65,3.77,3.77,0,0,0-1-4.13,2.37,2.37,0,0,0-2.16-.47,3.16,3.16,0,0,0-.54.2A2.07,2.07,0,0,0,15,114.63a2.14,2.14,0,0,0,.54,1l.06.06.08,0c.39.15.52.21.64.25s0,0,.21,0a.36.36,0,0,0,.12-.05.4.4,0,0,0,.16-.42.36.36,0,0,0-.1-.18l0,0,0,0-.09-.06-.25-.18a1.07,1.07,0,0,1-.36-.44.14.14,0,0,1,0-.1l0-.08v-.09a1.1,1.1,0,0,1,.66-1l.3-.11a1.39,1.39,0,0,1,1.34.33,2.85,2.85,0,0,1,.8,1.39l0,.13a3.19,3.19,0,0,1-1.89,3,4.19,4.19,0,0,1-.81.31,3.7,3.7,0,0,1-1.71,0l0,0-.13,0a2.41,2.41,0,0,0-.37-.06,5.57,5.57,0,0,1-3.42-3.8,4.79,4.79,0,0,1-.14-1.74c.35-3.18,3.22-4.73,5.35-7.24a3.85,3.85,0,0,0,.81-3.41,3.56,3.56,0,0,0-.5-1.09,2.86,2.86,0,0,0-2.76-1.21Zm.64,3.2s0,0,0-.06a.12.12,0,0,1,0,.05h0Z"/><path d="M48,71.48a2.87,2.87,0,0,0-2.76,1.21,3.53,3.53,0,0,0-.49,1.09,3.85,3.85,0,0,0,.81,3.41c2.13,2.51,5,4.06,5.35,7.24a4.74,4.74,0,0,1-.14,1.74A5.57,5.57,0,0,1,47.35,90,2.44,2.44,0,0,0,47,90l-.12,0,0,0a3.7,3.7,0,0,1-1.71,0,4.14,4.14,0,0,1-.81-.31,3.19,3.19,0,0,1-1.89-3l0-.13a2.84,2.84,0,0,1,.8-1.39,1.39,1.39,0,0,1,1.34-.32,1.92,1.92,0,0,1,.3.11,1.1,1.1,0,0,1,.66,1v.09l0,.08a.14.14,0,0,1,0,.1,1.08,1.08,0,0,1-.36.44L45,87l-.09.06,0,0,0,0a.37.37,0,0,0-.1.18.4.4,0,0,0,.16.42.37.37,0,0,0,.12.05c.19,0,.18,0,.21,0l.64-.25.08,0,.06-.06a2.13,2.13,0,0,0,.54-1,2.07,2.07,0,0,0-1.17-2.42,3,3,0,0,0-.54-.2,2.37,2.37,0,0,0-2.16.47,3.76,3.76,0,0,0-1,4.13,4.51,4.51,0,0,0,3.08,2.65,5.58,5.58,0,0,0,2.81,0h0l1.23-.46,0,0a1.76,1.76,0,0,0,.24-.17,6.16,6.16,0,0,0,2.85-3.73A7.14,7.14,0,0,0,50,80.07c-.73-.79-2-1.76-2.94-2.82s-1.61-2.17-1.34-3.14A2.48,2.48,0,0,1,46.4,73a1.77,1.77,0,0,1,1.7-.42l.28.1h0l.07,0a3.39,3.39,0,0,1,.4.29,1.35,1.35,0,0,1,.43,1.22,1.27,1.27,0,0,1,0,.17,1.46,1.46,0,0,1-.07.19.78.78,0,0,1-.89.48l-.09,0a2.57,2.57,0,0,1-.55-.27l.71.1,0-.13a1.45,1.45,0,0,0,.06-.45.77.77,0,0,0-.28-.56.81.81,0,0,0-.32-.16,1.09,1.09,0,0,0-.87.16,1,1,0,0,0-.42.6,1.15,1.15,0,0,0,0,.64,1.63,1.63,0,0,0,.34.57,1.82,1.82,0,0,0,.77.48l.13,0a2.2,2.2,0,0,0,.59.07A2.49,2.49,0,0,0,49.2,76a1.77,1.77,0,0,0,1.06-1.09l0-.13a2.23,2.23,0,0,0,.07-.66,2.75,2.75,0,0,0-.11-.79,2.7,2.7,0,0,0-.29-.6,2.94,2.94,0,0,0-1.72-1.17Zm-.41,3.24h0a.17.17,0,0,1,0-.05.31.31,0,0,1,0,.06Z"/><path d="M8.33,84.15a2.87,2.87,0,0,0-2.76,1.21,3.53,3.53,0,0,0-.49,1.09,3.85,3.85,0,0,0,.81,3.41c2.13,2.51,5,4.06,5.35,7.24a4.74,4.74,0,0,1-.14,1.74,5.57,5.57,0,0,1-3.42,3.8,2.44,2.44,0,0,0-.37.06l-.12,0,0,0a3.7,3.7,0,0,1-1.71,0,4.15,4.15,0,0,1-.81-.31,3.19,3.19,0,0,1-1.89-3l0-.13a2.84,2.84,0,0,1,.8-1.39A1.39,1.39,0,0,1,4.9,97.6l.3.11a1.1,1.1,0,0,1,.66,1v.09l0,.08a.14.14,0,0,1,0,.1,1.08,1.08,0,0,1-.36.44l-.25.18-.09.06,0,0,0,0A.37.37,0,0,0,5,100a.4.4,0,0,0,.16.42.38.38,0,0,0,.12.06c.19,0,.18,0,.21,0l.64-.25.08,0,.06-.06a2.13,2.13,0,0,0,.54-1,2.07,2.07,0,0,0-1.17-2.42,3,3,0,0,0-.54-.2A2.37,2.37,0,0,0,3,97a3.76,3.76,0,0,0-1,4.13A4.51,4.51,0,0,0,5,103.77a5.59,5.59,0,0,0,2.81,0h0l1.23-.46,0,0a1.76,1.76,0,0,0,.24-.17,6.16,6.16,0,0,0,2.85-3.73,7.14,7.14,0,0,0-1.86-6.64c-.73-.79-2-1.76-2.94-2.82S5.77,87.74,6,86.78a2.49,2.49,0,0,1,.7-1.12,1.77,1.77,0,0,1,1.7-.42l.28.1h0l.07,0a3.38,3.38,0,0,1,.4.29,1.35,1.35,0,0,1,.43,1.23,1.33,1.33,0,0,1,0,.17,1.51,1.51,0,0,1-.07.19.78.78,0,0,1-.89.48l-.09,0A2.57,2.57,0,0,1,8,87.45l.71.1,0-.13A1.45,1.45,0,0,0,8.78,87a.77.77,0,0,0-.28-.56.82.82,0,0,0-.32-.16,1.09,1.09,0,0,0-.87.16,1,1,0,0,0-.42.6,1.15,1.15,0,0,0,0,.64,1.62,1.62,0,0,0,.34.57A1.81,1.81,0,0,0,8,88.7l.13,0a2.2,2.2,0,0,0,.59.07,2.49,2.49,0,0,0,.79-.16,1.77,1.77,0,0,0,1.06-1.09l0-.13a2.24,2.24,0,0,0,.07-.66,2.75,2.75,0,0,0-.11-.79,2.7,2.7,0,0,0-.29-.6A3,3,0,0,0,8.57,84.2ZM7.92,87.4h0a.16.16,0,0,1,0-.05.32.32,0,0,1,0,.06Z"/><path d="M10.76,81.3a9.09,9.09,0,0,0,.77.8A7.57,7.57,0,0,1,8,84c-1,.26-2.61.39-4,.74s-2.54.93-2.84,1.88a2.47,2.47,0,0,0,0,1.32,1.76,1.76,0,0,0,1.19,1.28l.29.07H2.7a3.37,3.37,0,0,0,.49,0,1.35,1.35,0,0,0,1-.79l.07-.16a1.32,1.32,0,0,0,0-.2.78.78,0,0,0-.48-.9l-.09,0a2.69,2.69,0,0,0-.61-.08l.65.31,0,.13a1.58,1.58,0,0,1-.2.41.77.77,0,0,1-.54.32.79.79,0,0,1-.36,0A1.07,1.07,0,0,1,2,87.64a1,1,0,0,1,0-.73,1.13,1.13,0,0,1,.37-.52A1.61,1.61,0,0,1,3,86.1a1.8,1.8,0,0,1,.91,0l.13,0a2.18,2.18,0,0,1,.53.27,2.45,2.45,0,0,1,.57.57,1.77,1.77,0,0,1,.29,1.49l0,.13a2.23,2.23,0,0,1-.3.59,2.8,2.8,0,0,1-.53.6,2.61,2.61,0,0,1-.57.34,3,3,0,0,1-2.09,0l-.23-.09A2.87,2.87,0,0,1,0,87.56a3.53,3.53,0,0,1,.19-1.18A3.85,3.85,0,0,1,2.73,84C5.68,83.09,8.71,83.28,10.76,81.3Z"/><path d="M51.28,82.15a9.67,9.67,0,0,1-.77.8A7.56,7.56,0,0,0,54,84.85c1,.26,2.61.39,4,.74s2.54.93,2.84,1.88a2.48,2.48,0,0,1,0,1.32,1.76,1.76,0,0,1-1.19,1.28l-.29.07h-.09a3.39,3.39,0,0,1-.49,0,1.35,1.35,0,0,1-1-.79l-.07-.16a1.33,1.33,0,0,1,0-.2.78.78,0,0,1,.48-.9l.09,0a2.68,2.68,0,0,1,.61-.08l-.65.31,0,.13a1.41,1.41,0,0,0,.2.41.77.77,0,0,0,.54.32.85.85,0,0,0,.36,0,1.08,1.08,0,0,0,.64-.61,1,1,0,0,0,0-.73,1.17,1.17,0,0,0-.37-.52,1.61,1.61,0,0,0-.6-.29,1.83,1.83,0,0,0-.91,0L58,87a2.22,2.22,0,0,0-.53.27,2.47,2.47,0,0,0-.57.57,1.76,1.76,0,0,0-.29,1.49l0,.13A2.23,2.23,0,0,0,57,90a2.73,2.73,0,0,0,.52.6,2.7,2.7,0,0,0,.57.34,3,3,0,0,0,2.09,0l.23-.09A2.87,2.87,0,0,0,62,88.4a3.54,3.54,0,0,0-.19-1.18,3.86,3.86,0,0,0-2.55-2.41C56.35,83.94,53.32,84.12,51.28,82.15Z"/><path d="M31.88,143.08A.43.43,0,0,1,32,143c-.12.07,0-.07.14-.15a.4.4,0,0,1,.09-.1.43.43,0,0,1,.32-.28,7.59,7.59,0,0,0-.88-.71c-.89-.6-2.31-1.27-3.5-2.09s-2.06-1.75-2-2.75a2.47,2.47,0,0,1,.42-1.25,1.76,1.76,0,0,1,1.56-.79l.3,0h0l.08,0a3.47,3.47,0,0,1,.45.19,1.35,1.35,0,0,1,.69,1.1c0,.05,0,.12,0,.17a1.43,1.43,0,0,1,0,.2.78.78,0,0,1-.76.67h-.1a2.77,2.77,0,0,1-.6-.14l.71-.06s0-.07,0-.13a1.44,1.44,0,0,0,0-.46.77.77,0,0,0-.39-.48.82.82,0,0,0-.35-.09,1.08,1.08,0,0,0-.81.35,1,1,0,0,0-.28.68,1.16,1.16,0,0,0,.16.62,1.64,1.64,0,0,0,.46.48,1.83,1.83,0,0,0,.86.3h.14a2.24,2.24,0,0,0,.59-.06,2.5,2.5,0,0,0,.73-.34,1.76,1.76,0,0,0,.79-1.3s0-.09,0-.13a2.24,2.24,0,0,0-.08-.66,2.73,2.73,0,0,0-.28-.74,2.77,2.77,0,0,0-.42-.52,3,3,0,0,0-1.95-.76h-.25a2.87,2.87,0,0,0-2.41,1.8,3.53,3.53,0,0,0-.24,1.17,3.86,3.86,0,0,0,1.55,3.15c1.71,1.27,3.61,2.1,5,3.33A.45.45,0,0,1,31.88,143.08Z"/><path d="M13.81,70.73a3,3,0,0,0-1.72,1.18,2.58,2.58,0,0,0-.29.6,2.67,2.67,0,0,0-.11.79,2.24,2.24,0,0,0,.07.66l0,.13a1.76,1.76,0,0,0,1.06,1.09,2.48,2.48,0,0,0,.79.16,2.29,2.29,0,0,0,.59-.07l.13,0a1.8,1.8,0,0,0,.77-.48,1.65,1.65,0,0,0,.34-.57,1.15,1.15,0,0,0,0-.64,1,1,0,0,0-.42-.6,1.1,1.1,0,0,0-.87-.16.85.85,0,0,0-.32.16.78.78,0,0,0-.28.56,1.46,1.46,0,0,0,.06.45l0,.13.71-.1a2.64,2.64,0,0,1-.55.27l-.09,0a.78.78,0,0,1-.9-.48,1.16,1.16,0,0,1-.06-.19,1.1,1.1,0,0,1,0-.17,1.35,1.35,0,0,1,.43-1.22,3.39,3.39,0,0,1,.4-.29l.07,0h0l.28-.1a1.77,1.77,0,0,1,1.7.42,2.49,2.49,0,0,1,.7,1.12c.27,1-.36,2.07-1.34,3.13s-2.21,2-2.94,2.82A7.14,7.14,0,0,0,10.2,85.9,6.16,6.16,0,0,0,13,89.63a2,2,0,0,0,.24.17l0,0,1.23.46h0a5.58,5.58,0,0,0,2.81,0,4.5,4.5,0,0,0,3.08-2.65,3.77,3.77,0,0,0-1-4.13A2.37,2.37,0,0,0,17.26,83a3,3,0,0,0-.54.2,2.07,2.07,0,0,0-1.17,2.42,2.12,2.12,0,0,0,.54.95l.06.06.08,0c.39.15.52.21.64.25a.36.36,0,0,0,.21,0,.39.39,0,0,0,.12-.06.4.4,0,0,0,.16-.42.35.35,0,0,0-.1-.18l0,0,0,0-.09-.06L16.83,86a1.08,1.08,0,0,1-.36-.44.14.14,0,0,1,0-.1l0-.08v-.09a1.1,1.1,0,0,1,.66-1l.3-.11a1.39,1.39,0,0,1,1.34.33,2.85,2.85,0,0,1,.8,1.39l0,.13a3.2,3.2,0,0,1-1.89,3,4.2,4.2,0,0,1-.81.31,3.72,3.72,0,0,1-1.71,0l0,0-.13,0a2.42,2.42,0,0,0-.37-.06,5.57,5.57,0,0,1-3.42-3.8,4.77,4.77,0,0,1-.14-1.74c.35-3.18,3.22-4.73,5.35-7.24A3.85,3.85,0,0,0,17.3,73a3.54,3.54,0,0,0-.5-1.09A2.87,2.87,0,0,0,14,70.67Zm.64,3.2s0,0,0-.06a.13.13,0,0,1,0,.05h0Z"/><path d="M53.68,84.8A3,3,0,0,0,52,86a2.61,2.61,0,0,0-.29.6,2.68,2.68,0,0,0-.11.79,2.24,2.24,0,0,0,.07.66l0,.13a1.76,1.76,0,0,0,1.06,1.09,2.49,2.49,0,0,0,.79.16,2.29,2.29,0,0,0,.59-.07l.13,0a1.82,1.82,0,0,0,.77-.48,1.64,1.64,0,0,0,.34-.57,1.15,1.15,0,0,0,0-.64,1,1,0,0,0-.42-.6,1.08,1.08,0,0,0-.87-.16.8.8,0,0,0-.32.16.77.77,0,0,0-.28.56,1.45,1.45,0,0,0,.06.45l0,.13.71-.1a2.56,2.56,0,0,1-.55.27l-.09,0a.78.78,0,0,1-.9-.49,1,1,0,0,1-.06-.19,1.12,1.12,0,0,1,0-.17,1.35,1.35,0,0,1,.43-1.22,3.19,3.19,0,0,1,.4-.29l.07,0h0l.28-.1a1.77,1.77,0,0,1,1.7.42,2.5,2.5,0,0,1,.7,1.12c.27,1-.36,2.07-1.34,3.13s-2.21,2-2.94,2.82A7.14,7.14,0,0,0,50.07,100a6.16,6.16,0,0,0,2.85,3.73,1.76,1.76,0,0,0,.24.17l0,0,1.23.46h0a5.56,5.56,0,0,0,2.81,0,4.5,4.5,0,0,0,3.08-2.65,3.77,3.77,0,0,0-1-4.13,2.37,2.37,0,0,0-2.16-.47,3.15,3.15,0,0,0-.54.2,2.07,2.07,0,0,0-1.17,2.42,2.14,2.14,0,0,0,.54,1l.06.06.08,0c.39.15.52.21.64.25s0,0,.21,0a.37.37,0,0,0,.12-.05.4.4,0,0,0,.16-.42.36.36,0,0,0-.1-.18l0,0,0,0-.09-.06-.25-.18a1.07,1.07,0,0,1-.36-.44.14.14,0,0,1,0-.1l0-.08v-.09a1.1,1.1,0,0,1,.66-1l.3-.11a1.39,1.39,0,0,1,1.34.33,2.85,2.85,0,0,1,.8,1.39l0,.13a3.19,3.19,0,0,1-1.89,3,4.19,4.19,0,0,1-.81.31,3.7,3.7,0,0,1-1.71,0l0,0-.13,0a2.4,2.4,0,0,0-.37-.06,5.58,5.58,0,0,1-3.42-3.8A4.79,4.79,0,0,1,51,97.71c.35-3.18,3.22-4.73,5.35-7.24a3.85,3.85,0,0,0,.81-3.41,3.56,3.56,0,0,0-.5-1.09,2.86,2.86,0,0,0-2.76-1.21Zm.64,3.2s0,0,0-.06a.13.13,0,0,1,0,.05h0Z"/><path d="M21.18,115.64a3,3,0,0,0-1.72,1.18,2.61,2.61,0,0,0-.29.6,2.68,2.68,0,0,0-.11.79,2.24,2.24,0,0,0,.07.66l0,.13a1.76,1.76,0,0,0,1.06,1.09,2.49,2.49,0,0,0,.79.16,2.29,2.29,0,0,0,.59-.07l.13,0a1.82,1.82,0,0,0,.77-.48,1.65,1.65,0,0,0,.34-.57,1.15,1.15,0,0,0,0-.64,1,1,0,0,0-.42-.6,1.08,1.08,0,0,0-.87-.16.8.8,0,0,0-.32.16.77.77,0,0,0-.28.56,1.45,1.45,0,0,0,.06.45l0,.13.71-.1a2.56,2.56,0,0,1-.55.27l-.09,0a.78.78,0,0,1-.9-.49,1,1,0,0,1-.06-.19,1.12,1.12,0,0,1,0-.17,1.35,1.35,0,0,1,.43-1.22,3.19,3.19,0,0,1,.4-.29l.07,0h0l.28-.1a1.77,1.77,0,0,1,1.7.42,2.5,2.5,0,0,1,.7,1.12c.27,1-.36,2.07-1.34,3.13s-2.21,2-2.94,2.82a7.14,7.14,0,0,0-1.86,6.64,6.16,6.16,0,0,0,2.85,3.73,1.75,1.75,0,0,0,.24.17l0,0,1.23.46h0a5.56,5.56,0,0,0,2.81,0,4.5,4.5,0,0,0,3.08-2.65,3.77,3.77,0,0,0-1-4.13,2.37,2.37,0,0,0-2.16-.47,3.16,3.16,0,0,0-.54.2,2.07,2.07,0,0,0-1.17,2.42,2.14,2.14,0,0,0,.54,1l.06.06.08,0c.39.15.52.21.64.25s0,0,.21,0a.37.37,0,0,0,.12-.05.4.4,0,0,0,.16-.42.36.36,0,0,0-.1-.18l0,0,0,0-.09-.06-.25-.18a1.07,1.07,0,0,1-.36-.44.14.14,0,0,1,0-.1l0-.08v-.09a1.1,1.1,0,0,1,.66-1l.3-.11a1.39,1.39,0,0,1,1.34.33,2.85,2.85,0,0,1,.8,1.39l0,.13a3.19,3.19,0,0,1-1.89,3,4.19,4.19,0,0,1-.81.31,3.7,3.7,0,0,1-1.71,0l0,0-.13,0a2.42,2.42,0,0,0-.37-.06,5.58,5.58,0,0,1-3.42-3.8,4.79,4.79,0,0,1-.14-1.74c.35-3.18,3.22-4.73,5.35-7.24a3.85,3.85,0,0,0,.81-3.41,3.56,3.56,0,0,0-.5-1.09,2.86,2.86,0,0,0-2.76-1.21Zm.64,3.2s0,0,0-.06a.13.13,0,0,1,0,.05h0Z"/><path d="M37.73,135.78a2.87,2.87,0,0,0-2.41-1.8h-.25a3,3,0,0,0-1.95.76,2.29,2.29,0,0,0-.7,1.26,2.22,2.22,0,0,0-.08.65s0,.09,0,.13a1.76,1.76,0,0,0,.79,1.3,2.5,2.5,0,0,0,.73.34,2.23,2.23,0,0,0,.59.06h.14a1.81,1.81,0,0,0,.86-.3,1.6,1.6,0,0,0,.46-.48,1.17,1.17,0,0,0,.16-.62,1,1,0,0,0-.28-.68,1.08,1.08,0,0,0-.81-.35.88.88,0,0,0-.35.09.77.77,0,0,0-.39.48,1.42,1.42,0,0,0,0,.45c0,.06,0,.11,0,.13l.71.06a2.66,2.66,0,0,1-.6.14h-.1a.78.78,0,0,1-.76-.67,1.45,1.45,0,0,1,0-.2c0-.06,0-.12,0-.18a1.35,1.35,0,0,1,.69-1.1,3.22,3.22,0,0,1,.45-.19l.08,0h0l.3,0a1.76,1.76,0,0,1,1.56.79,2.48,2.48,0,0,1,.42,1.25c0,1-.81,1.93-2,2.75s-2.61,1.48-3.5,2.09c-.17.11-.33.24-.49.37a9.93,9.93,0,0,1,.93.79c1.36-1,3-1.81,4.53-2.94A3.86,3.86,0,0,0,38,137,3.52,3.52,0,0,0,37.73,135.78Z"/></g></g></svg>