<svg xmlns="http://www.w3.org/2000/svg" viewBox="0 0 110.72 116.82"><defs><style>.cls-1{fill:#249346;}.cls-2{fill:#dad91e;}.cls-3{fill:#c9d127;}.cls-4{fill:#fff9d1;}.cls-5{fill:#166630;}.cls-6{fill:#105829;}.cls-7{fill:#9abc40;}.cls-8{fill:#aac33d;}.cls-9{fill:#1e1e1c;}</style></defs><title>Ресурс 5clock2</title><g id="Слой_2" data-name="Слой 2"><g id="Layer_2" data-name="Layer 2"><path class="cls-1" d="M56.41.48a4,4,0,0,0-5,3.85q3.92-.14,7.84.07A4.26,4.26,0,0,0,56.41.48Z"/><path class="cls-1" d="M55.36.1A4.42,4.42,0,0,0,51,4.35l.48,0a4,4,0,0,1,5-3.85A4.26,4.26,0,0,1,59.27,4.4l.51,0A4.42,4.42,0,0,0,55.36.1Z"/><path class="cls-1" d="M5.8,114.48v1.89H18.11V114.3h-7C9.56,114.3,7.59,114.56,5.8,114.48Z"/><path class="cls-1" d="M18.11,116.37H5.8v-1.89l-.49,0v2.14H18.59V114.3h-.49Z"/><path class="cls-1" d="M91.84,114.36v2h12.31v-1.9c-1.9.06-3.9-.16-5.67-.16C96.29,114.3,94.05,114.42,91.84,114.36Z"/><path class="cls-1" d="M104.15,116.37H91.84v-2l-.49,0v2.25h13.28v-2.15l-.49,0Z"/><path class="cls-2" d="M72.59,6.59A78.33,78.33,0,0,0,52.35,4.81c-6,.21-12.22.75-17.94,2.68-1.69.57-5.58,1.84-6.85,4H82.25C80.78,8.45,75.23,7.2,72.59,6.59Zm3.36,3.23a1.54,1.54,0,0,1-1.2,1A16.16,16.16,0,0,1,70.5,10c-1.75-.45-3.38-1.14-4.14-1.2s-4.55-.07-3.87-1.43,3.79-1.05,5-.94c.45,0,1.86.22,3.43.44a20.29,20.29,0,0,1,3.37.8C75.75,8.18,76.54,8.77,75.95,9.83Z"/><path class="cls-1" d="M51.43,4.33c0,.06,0,.12,0,.18s0,.06,0,.08c1.13,0,2.27-.06,3.44-.06q2.25,0,4.4.1s0-.05,0-.08,0-.1,0-.15Q55.36,4.19,51.43,4.33Z"/><path class="cls-1" d="M59.27,4.4s0,.1,0,.15,0,.05,0,.08l.5,0s0-.08,0-.13,0-.07,0-.1Z"/><path class="cls-1" d="M51.43,4.33l-.48,0c0,.06,0,.12,0,.18s0,.05,0,.08l.5,0s0-.06,0-.08S51.44,4.39,51.43,4.33Z"/><path class="cls-2" d="M60.27,4.68l-.49,0-.5,0q-2.15-.1-4.4-.1c-1.16,0-2.31,0-3.44.06l-.5,0-.51,0c-11.87.56-21.26,3.31-23.33,6.82h.44c1.27-2.12,5.16-3.39,6.85-4C40.13,5.57,46.35,5,52.35,4.81A78.33,78.33,0,0,1,72.59,6.59c2.64.61,8.19,1.85,9.66,4.86h.4C80.64,8,71.69,5.34,60.27,4.68Z"/><path class="cls-3" d="M73.51,21.21q1.84.83,3.6,1.82l0-.05q-1.74-1-3.58-1.88Z"/><path class="cls-3" d="M77.54,23.28q1,.59,2,1.24c-.65-.44-1.31-.87-2-1.28Z"/><path class="cls-3" d="M36.8,21.56l1-.44,0,0Z"/><path class="cls-3" d="M96.71,12.45c-3.31-1.32-7.9-.6-11.35-.6H17.45A7.51,7.51,0,0,0,10,19.43V90.26a1.78,1.78,0,0,1,.44.56c.69,1.46.35,2.85.24,4.39a7.68,7.68,0,0,0,1,4.58,4.94,4.94,0,0,1,0-.91c.32-6,9.53-6.11,9.85,0-.19,3.55-3.72,5-6.5,4.4a9.57,9.57,0,0,0,6.6,1.36c1.15-.16,3.1-.33,3.53,1.17a8.34,8.34,0,0,1,.26,3.24h60c-.19-1.53-.15-3.31,1-3.88,2.24-1.1,4.64.12,7-.62a10.33,10.33,0,0,0,3-1.51c-3,1.11-6.93-.24-6.73-4.13.32-6,9.53-6.11,9.85,0,0,.16,0,.32,0,.47a8.31,8.31,0,0,0,.55-1.53c.58-2.43-.65-5.5,1.17-7.41V24.84C101.12,20.4,101.88,14.51,96.71,12.45Zm-82.33,6.1c.61-1.46-1-1.75.16-2.87s1.51.69,3,.08.46-2.37,2-2.37.57,1.8,2,2.4,1.87-1.23,3-.12-.88,1.61,0,2.94c1,1.49,2.53.5,2.53,2.08s-1.84.64-2.45,2.1,1.21,1.95.1,3.07-1.64-.79-3.1-.19S21.14,28,19.56,28s-.65-1.56-2.11-2.16-2.09,1.34-3.21.22.83-1.75.23-3.21-2.24-.53-2.24-2.11S13.78,20,14.38,18.56ZM92.09,85.27A43.08,43.08,0,0,1,25,92.48a43.62,43.62,0,0,1-5.16-56.74A43.23,43.23,0,0,1,95.92,44l0,.11.21.54a43.64,43.64,0,0,1-4.09,40.59ZM99.84,20.7c0,1.58-1.84.64-2.45,2.1s1.21,1.95.1,3.07-1.64-.79-3.1-.19S93.9,28,92.32,28s-.65-1.56-2.11-2.16S88.12,27.14,87,26s.83-1.75.23-3.21S85,22.28,85,20.7s1.56-.68,2.17-2.14-1-1.75.16-2.87,1.51.69,3,.08.46-2.37,2-2.37.57,1.8,2,2.4,1.87-1.23,3-.12-.88,1.61,0,2.94C98.27,20.12,99.84,19.12,99.84,20.7Z"/><path class="cls-3" d="M60.43,17.65c1.35.15,2.68.35,4,.62l0-.22q-2-.42-4-.65Z"/><path class="cls-3" d="M46.85,18l0,.18q2-.39,4-.61l0-.22Q48.82,17.62,46.85,18Z"/><path class="cls-3" d="M51.38,17.57c1.33-.12,2.67-.19,4-.2v-.25q-2,0-4,.22Z"/><path class="cls-3" d="M64.91,18.38q2,.43,3.9,1l.06-.18Q66.95,18.6,65,18.16Z"/><path class="cls-3" d="M55.9,17.38c1.36,0,2.71.08,4,.21l0-.25q-2-.2-4.06-.22Z"/><path class="cls-3" d="M42.45,19.23l0,.11q1.92-.6,3.91-1l0-.18C45,18.45,43.73,18.81,42.45,19.23Z"/><path class="cls-3" d="M38.2,20.88l0,0q1.85-.79,3.79-1.42l0-.11Q40,20,38.2,20.88Z"/><path class="cls-3" d="M69.28,19.57q1.93.63,3.77,1.44l.05-.12q-1.84-.83-3.77-1.49Z"/><path class="cls-2" d="M49.35,11.45H27.55l-.12.2H82.32c0-.07,0-.14-.08-.2Z"/><path class="cls-2" d="M82.25,11.45c0,.06,0,.13.08.2h.44l-.12-.2Z"/><path class="cls-2" d="M27,11.65h.44l.12-.2h-.44Z"/><path class="cls-3" d="M93.92,11.65H17.18a7.7,7.7,0,0,0-7.7,7.7V89.93a2.14,2.14,0,0,1,.5.33V19.43a7.51,7.51,0,0,1,7.47-7.57H85.36c3.45,0,8-.72,11.35.6,5.17,2.06,4.41,7.95,4.41,12.39V90.37l.14-.15a2.07,2.07,0,0,1,.36-.26V19.35A7.7,7.7,0,0,0,93.92,11.65Z"/><path class="cls-3" d="M69.47,109H25.35c0,.07,0,.13,0,.2h60l0-.2Z"/><path class="cls-4" d="M22.47,80.85,18.38,83q1,1.75,2.16,3.4L22.37,85l.29.4L20.83,86.8Q22,88.44,23.33,90L25,88.42l.34.37-1.72,1.55q1.35,1.52,2.83,2.9l1.57-1.76.37.33-1.58,1.76Q28.35,95,30,96.18l1.4-1.95.41.29-1.4,2q1.62,1.2,3.35,2.25l2.19-4.22A39.17,39.17,0,0,1,22.47,80.85Z"/><path class="cls-4" d="M12.55,61.23q0,2,.2,4l2.14-.23.05.5-2.14.23q.22,2,.62,4l2.12-.46.11.49-2.12.46q.42,2,1,3.92l2.08-.68.16.48-2.08.68q.63,1.94,1.42,3.79l2-.91.21.46-2,.91q.83,1.87,1.81,3.64l4.09-2.13a39,39,0,0,1-5.11-19.18Z"/><path class="cls-4" d="M27.17,75.25c-1.1,0-1.39.63-1.39,1.09a1.25,1.25,0,0,0,1.39,1.18,1.25,1.25,0,0,0,1.39-1.18C28.56,75.88,28.27,75.25,27.17,75.25Z"/><path class="cls-4" d="M29.95,45.22c-1.07,0-1.45,1.06-1.45,2.32s.37,2.32,1.45,2.32,1.44-1.06,1.44-2.32S31,45.22,29.95,45.22Z"/><path class="cls-4" d="M21.71,58.37a1.29,1.29,0,0,0-1.39,1.38A1.25,1.25,0,0,0,21.72,61a1.28,1.28,0,0,0,1.46-1.29A1.34,1.34,0,0,0,21.71,58.37Z"/><path class="cls-4" d="M27.17,72.82c-1,0-1.18.64-1.18.92,0,.5.32.94,1.18.94s1.18-.44,1.18-.94C28.35,73.46,28.21,72.82,27.17,72.82Z"/><path class="cls-4" d="M16.31,43.06l2,.91-.2.46-2-.91q-.79,1.86-1.42,3.8l2.09.68-.16.48-2.08-.68q-.6,1.92-1,3.91l2.13.46-.1.49-2.12-.46q-.4,2-.61,4l2.14.23-.05.5-2.14-.23q-.19,2-.2,4h4.56A39,39,0,0,1,22,42l-3.94-2.54Q17.13,41.21,16.31,43.06Z"/><path class="cls-4" d="M55.59,95a1.28,1.28,0,0,0-1.46,1.29,1.34,1.34,0,0,0,1.48,1.35A1.29,1.29,0,0,0,57,96.23,1.26,1.26,0,0,0,55.59,95Z"/><path class="cls-4" d="M95.92,44l0,.11Z"/><path class="cls-4" d="M12.3,65.83l-.05-.5h0q-.19-2-.21-4.09h0v-.5q0-2.07.21-4.09h0l.05-.5a44.56,44.56,0,0,1,7.51-20.41A43.62,43.62,0,0,0,25,92.48,44.56,44.56,0,0,1,12.31,65.83Z"/><path class="cls-4" d="M98.26,51.62l.1.49h0q.4,2,.62,4h0l.05.5h0q.19,2,.2,4.09h0l0,.5q0,2.07-.21,4.09h0l-.05.5h0q-.22,2.06-.62,4.06h0l-.1.49h0a44.52,44.52,0,0,1-6.16,14.89,43.64,43.64,0,0,0,4.09-40.59A44.52,44.52,0,0,1,98.26,51.62Z"/><path class="cls-4" d="M88.94,36.94l-.3-.4,1.84-1.35Q89.3,33.54,88,32l-1.71,1.55-.34-.37,1.71-1.56q-1.35-1.52-2.82-2.91l-1.57,1.76-.37-.33,1.58-1.77Q83,27,81.34,25.8l-1.41,2-.41-.29,1.41-2c-.46-.34-.92-.66-1.39-1q-1-.65-2-1.24L75,27.18A39.15,39.15,0,0,1,89.11,41.11L92.93,39q-1-1.76-2.16-3.41Z"/><path class="cls-4" d="M98.74,60.75q0-2-.2-4l-2.13.22-.05-.5,2.13-.22q-.22-2-.61-4l-2.11.45-.1-.49,2.11-.45q-.42-2-1-3.92l-2.07.68L94.53,48l2.07-.68q-.63-1.94-1.42-3.79l-2,.9L93,44l2-.91q-.82-1.86-1.81-3.63l-3.82,2.1a39.23,39.23,0,0,1,.08,38.86l3.72,2.13q1-1.76,1.8-3.62L93,78l.21-.46,2,.9q.79-1.85,1.42-3.79L94.52,74l.16-.47,2.06.68q.6-1.92,1-3.92l-2.11-.45.1-.49,2.11.45q.4-2,.62-4l-2.13-.22.05-.5,2.13.22c.13-1.33.2-2.68.21-4h-4v-.5Z"/><path class="cls-4" d="M34.16,99q1.75,1,3.59,1.89l1-2.28.46.2-1,2.29q1.84.83,3.77,1.49l.78-2.41.48.15-.78,2.41q1.92.63,3.91,1.08l.53-2.5.49.1-.53,2.51q2,.42,4,.65l.27-2.55.5.05-.27,2.56q2,.2,4,.22v-4.77a38.26,38.26,0,0,1-19-5.3Z"/><path class="cls-4" d="M30.36,25.48l1.42,2-.41.29-1.41-2Q28.35,27,26.85,28.37l1.58,1.78-.37.33-1.57-1.77Q25,30.1,23.66,31.62l1.72,1.57-.34.37L23.33,32Q22,33.52,20.82,35.17l1.84,1.35-.3.4-1.84-1.35Q19.37,37.24,18.35,39l3.94,2.54A39.18,39.18,0,0,1,36.21,27.41l-2.48-4.18Q32,24.27,30.36,25.48Z"/><path class="cls-4" d="M55.83,22.52A38.53,38.53,0,1,0,94.05,61,38.42,38.42,0,0,0,55.83,22.52ZM71.38,30.4h.2a1.48,1.48,0,0,0,1.59-1h.62V35H72.9V30.78H71.38ZM58.06,25.62c-.85,0-1.38.45-1.38,1.1v.21H55.8v-.17c0-.5.26-1.77,2.28-1.77,1.35,0,2.22.62,2.22,1.68s-.59,1.37-2.14,2.2c-.9.47-1.27.81-1.4,1.21h3.51v.63h-4.5c0-1.34,1-1.85,2.25-2.53.55-.29,1.36-.65,1.36-1.5C59.4,26,58.85,25.62,58.06,25.62ZM54.79,58.75l14.32-23L59.35,59.57l12.8,12.65-16-9.31,0-1.29-.28-.12A2.1,2.1,0,0,1,54.79,58.75ZM40.22,30.82h.2c.8,0,1.49-.39,1.59-1h.63v5.56h-.89V31.21H40.22ZM23.87,45.75h.2a1.47,1.47,0,0,0,1.59-1h.63v5.56h-.9V46.14H23.87ZM21.62,63.67a1.93,1.93,0,0,1-2.06-1.39h.8a1.19,1.19,0,0,0,1.27.79c1.39,0,1.62-1.18,1.62-2.06h0a2.17,2.17,0,0,1-1.62.59,1.9,1.9,0,0,1-2.14-1.87c0-1.15.83-2,2.28-2,1.14,0,2.39.34,2.39,2.88S22.65,63.67,21.62,63.67Zm5.55,14.45c-1.54,0-2.24-.79-2.24-1.74a1.49,1.49,0,0,1,1.21-1.44,1.29,1.29,0,0,1-1-1.22c0-.58.39-1.49,2-1.49s2,.92,2,1.49a1.29,1.29,0,0,1-1,1.22,1.49,1.49,0,0,1,1.21,1.44C29.42,77.33,28.71,78.12,27.17,78.12Zm2.78-27.63c-.49,0-2.33-.1-2.33-2.95s1.84-2.95,2.33-2.95,2.33.1,2.33,2.95S30.44,50.49,29.95,50.49Zm8.12-15.1h-.89V31.21H35.65v-.39h.2a1.48,1.48,0,0,0,1.59-1h.63ZM43,88.17a8.11,8.11,0,0,0-2.58,5.05h-1a8.25,8.25,0,0,1,.8-2.49,8.76,8.76,0,0,1,1.86-2.44h-4v-.63H43Zm8.91-62h.2a1.47,1.47,0,0,0,1.58-1h.63v5.56h-.9V26.55H51.92Zm3.65,72c-1.46,0-2.38-.64-2.38-2.88,0-3,1.92-3,2.5-3a1.92,1.92,0,0,1,2.06,1.39H57a1.19,1.19,0,0,0-1.27-.79c-1.39,0-1.62,1.18-1.61,2.06h0a2.18,2.18,0,0,1,1.62-.59,1.9,1.9,0,0,1,2.14,1.87C57.86,97.39,57,98.2,55.57,98.2Zm16.79-4.37c-1.72,0-2.17-1-2.24-1.59H71a1.21,1.21,0,0,0,1.36,1,1.34,1.34,0,0,0,1.55-1.37,1.29,1.29,0,0,0-1.46-1.31,1.8,1.8,0,0,0-1.3.49h-.84l.47-2.94h3.59v.63H71.43l-.26,1.64a2.41,2.41,0,0,1,1.5-.42,1.87,1.87,0,0,1,2.08,1.9C74.74,93,74,93.83,72.36,93.83ZM90.19,58.27c1.85,0,2.11,1.09,2.11,1.52A1.3,1.3,0,0,1,91.2,61v0a1.38,1.38,0,0,1,1.28,1.4c0,1.09-1,1.72-2.28,1.72-1.95,0-2.3-1.11-2.33-1.86h.85l0,.18a1.24,1.24,0,0,0,1.39,1.08c1.37,0,1.51-.82,1.51-1.18,0-.61-.48-1-1.21-1h-.69v-.6H90c.28,0,1.45,0,1.45-1,0-.44-.27-1-1.31-1a1.16,1.16,0,0,0-1.29,1.26H88C88,59.65,88.16,58.27,90.19,58.27ZM85.65,44.54c-.84,0-1.38.44-1.38,1.1v.21H83.4v-.17c0-.5.25-1.77,2.28-1.77,1.36,0,2.22.62,2.22,1.69s-.59,1.37-2.14,2.2c-.9.47-1.27.81-1.4,1.22h3.52v.63h-4.5c0-1.34,1-1.85,2.25-2.53.55-.29,1.35-.65,1.35-1.5C87,44.91,86.45,44.54,85.65,44.54ZM82.87,75.28,86,71.63h.9v3.65h1v.63h-1v1.29H86V75.91H82.87Z"/><polygon class="cls-4" points="86 75.28 86 72.61 83.72 75.28 86 75.28"/><path class="cls-4" d="M55.9,100.07v4.76c1.36,0,2.72-.08,4-.22l-.27-2.55.5-.05.27,2.55c1.35-.15,2.69-.37,4-.65l-.53-2.5.49-.1.52,2.5q2-.45,3.91-1.08l-.77-2.41.48-.15.77,2.4q1.92-.66,3.77-1.49l-1-2.29.46-.2,1,2.28Q75.38,100,77.12,99l-2.2-3.86.43-.25,2.2,3.85q1.74-1,3.37-2.25l-1.4-2,.41-.29,1.4,1.94q1.61-1.22,3.11-2.59l-1.57-1.75.37-.33,1.56,1.75q1.48-1.38,2.82-2.9L85.91,88.8l.34-.37L87.95,90q1.33-1.53,2.51-3.18l-1.83-1.34.29-.4,1.83,1.33q1.16-1.65,2.17-3.42l-3.72-2.14A38.68,38.68,0,0,1,55.9,100.07Z"/><path class="cls-4" d="M73.51,21.21l-1,2.17-.46-.2,1-2.18q-1.84-.8-3.77-1.44l-.73,2.24-.48-.15.73-2.25q-1.91-.6-3.9-1l-.49,2.29-.49-.1.49-2.3c-1.31-.27-2.64-.47-4-.62L60.19,20l-.5-.05.24-2.33c-1.33-.13-2.68-.2-4-.21V22h-.5V17.37c-1.36,0-2.7.07-4,.2l.24,2.34-.5.05-.24-2.35q-2,.21-4,.61l.49,2.34-.49.1-.49-2.34q-2,.42-3.91,1l.75,2.32-.48.15L42,19.5q-1.94.63-3.79,1.42l1,2.26-.46.2-1-2.26-1,.44c-.9.44-1.78.91-2.64,1.42l2.48,4.19A38.41,38.41,0,0,1,74.79,27l-.18-.11L77.11,23Q75.36,22,73.51,21.21Z"/><path class="cls-4" d="M52.12,26.16h-.2v.39h1.52v4.18h.9V25.16H53.7A1.47,1.47,0,0,1,52.12,26.16Z"/><path class="cls-5" d="M52.12,26.16h-.2v.39h1.52v4.18h.9V25.16H53.7A1.47,1.47,0,0,1,52.12,26.16Z"/><path class="cls-4" d="M58.17,28.88c1.55-.83,2.14-1.16,2.14-2.2S59.44,25,58.09,25c-2,0-2.28,1.27-2.28,1.77v.17h.87v-.21c0-.66.53-1.1,1.38-1.1s1.34.37,1.34,1.07c0,.85-.8,1.21-1.36,1.5-1.29.68-2.26,1.19-2.25,2.53h4.5v-.63H56.78C56.9,29.69,57.27,29.35,58.17,28.88Z"/><path class="cls-5" d="M58.17,28.88c1.55-.83,2.14-1.16,2.14-2.2S59.44,25,58.09,25c-2,0-2.28,1.27-2.28,1.77v.17h.87v-.21c0-.66.53-1.1,1.38-1.1s1.34.37,1.34,1.07c0,.85-.8,1.21-1.36,1.5-1.29.68-2.26,1.19-2.25,2.53h4.5v-.63H56.78C56.9,29.69,57.27,29.35,58.17,28.88Z"/><path class="cls-4" d="M35.85,30.82h-.2v.39h1.52v4.18h.89V29.82h-.63A1.48,1.48,0,0,1,35.85,30.82Z"/><path class="cls-5" d="M35.85,30.82h-.2v.39h1.52v4.18h.89V29.82h-.63A1.48,1.48,0,0,1,35.85,30.82Z"/><path class="cls-4" d="M40.41,30.82h-.2v.39h1.52v4.18h.89V29.82H42C41.91,30.43,41.21,30.82,40.41,30.82Z"/><path class="cls-5" d="M40.41,30.82h-.2v.39h1.52v4.18h.89V29.82H42C41.91,30.43,41.21,30.82,40.41,30.82Z"/><path class="cls-4" d="M24.07,45.75h-.2v.39h1.52v4.18h.9V44.76h-.63A1.47,1.47,0,0,1,24.07,45.75Z"/><path class="cls-5" d="M24.07,45.75h-.2v.39h1.52v4.18h.9V44.76h-.63A1.47,1.47,0,0,1,24.07,45.75Z"/><path class="cls-4" d="M29.95,44.59c-.49,0-2.33.1-2.33,2.95s1.84,2.95,2.33,2.95,2.33-.1,2.33-2.95S30.44,44.59,29.95,44.59Zm0,5.27c-1.07,0-1.45-1.06-1.45-2.32s.37-2.32,1.45-2.32,1.44,1.06,1.44,2.32S31,49.86,29.95,49.86Z"/><path class="cls-5" d="M29.95,44.59c-.49,0-2.33.1-2.33,2.95s1.84,2.95,2.33,2.95,2.33-.1,2.33-2.95S30.44,44.59,29.95,44.59Zm0,5.27c-1.07,0-1.45-1.06-1.45-2.32s.37-2.32,1.45-2.32,1.44,1.06,1.44,2.32S31,49.86,29.95,49.86Z"/><path class="cls-4" d="M21.74,57.77c-1.44,0-2.28.81-2.28,2A1.9,1.9,0,0,0,21.6,61.6,2.17,2.17,0,0,0,23.22,61h0c0,.87-.23,2.06-1.62,2.06a1.19,1.19,0,0,1-1.27-.79h-.8a1.93,1.93,0,0,0,2.06,1.39c1,0,2.51-.37,2.51-3S22.88,57.77,21.74,57.77Zm0,3.23a1.25,1.25,0,0,1-1.4-1.26,1.29,1.29,0,0,1,1.39-1.38,1.34,1.34,0,0,1,1.48,1.35A1.28,1.28,0,0,1,21.72,61Z"/><path class="cls-5" d="M21.74,57.77c-1.44,0-2.28.81-2.28,2A1.9,1.9,0,0,0,21.6,61.6,2.17,2.17,0,0,0,23.22,61h0c0,.87-.23,2.06-1.62,2.06a1.19,1.19,0,0,1-1.27-.79h-.8a1.93,1.93,0,0,0,2.06,1.39c1,0,2.51-.37,2.51-3S22.88,57.77,21.74,57.77Zm0,3.23a1.25,1.25,0,0,1-1.4-1.26,1.29,1.29,0,0,1,1.39-1.38,1.34,1.34,0,0,1,1.48,1.35A1.28,1.28,0,0,1,21.72,61Z"/><path class="cls-4" d="M28.21,74.94a1.29,1.29,0,0,0,1-1.22c0-.58-.39-1.49-2-1.49s-2,.92-2,1.49a1.29,1.29,0,0,0,1,1.22,1.49,1.49,0,0,0-1.21,1.44c0,1,.71,1.74,2.24,1.74s2.25-.79,2.25-1.74A1.49,1.49,0,0,0,28.21,74.94ZM26,73.74c0-.29.14-.92,1.18-.92s1.18.64,1.18.92c0,.5-.32.94-1.18.94S26,74.25,26,73.74Zm1.18,3.78a1.25,1.25,0,0,1-1.39-1.18c0-.46.29-1.09,1.39-1.09s1.39.63,1.39,1.09A1.25,1.25,0,0,1,27.17,77.52Z"/><path class="cls-5" d="M28.21,74.94a1.29,1.29,0,0,0,1-1.22c0-.58-.39-1.49-2-1.49s-2,.92-2,1.49a1.29,1.29,0,0,0,1,1.22,1.49,1.49,0,0,0-1.21,1.44c0,1,.71,1.74,2.24,1.74s2.25-.79,2.25-1.74A1.49,1.49,0,0,0,28.21,74.94ZM26,73.74c0-.29.14-.92,1.18-.92s1.18.64,1.18.92c0,.5-.32.94-1.18.94S26,74.25,26,73.74Zm1.18,3.78a1.25,1.25,0,0,1-1.39-1.18c0-.46.29-1.09,1.39-1.09s1.39.63,1.39,1.09A1.25,1.25,0,0,1,27.17,77.52Z"/><path class="cls-4" d="M38.15,88.29h4a8.76,8.76,0,0,0-1.86,2.44,8.25,8.25,0,0,0-.8,2.49h1A8.11,8.11,0,0,1,43,88.17v-.51H38.15Z"/><path class="cls-5" d="M38.15,88.29h4a8.76,8.76,0,0,0-1.86,2.44,8.25,8.25,0,0,0-.8,2.49h1A8.11,8.11,0,0,1,43,88.17v-.51H38.15Z"/><path class="cls-4" d="M55.72,94.38a2.18,2.18,0,0,0-1.62.59h0c0-.87.22-2.06,1.61-2.06A1.19,1.19,0,0,1,57,93.7h.79a1.92,1.92,0,0,0-2.06-1.39c-.59,0-2.5,0-2.5,3,0,2.24.92,2.88,2.38,2.88s2.29-.81,2.29-2A1.9,1.9,0,0,0,55.72,94.38Zm-.11,3.23a1.34,1.34,0,0,1-1.48-1.35A1.28,1.28,0,0,1,55.59,95,1.26,1.26,0,0,1,57,96.23,1.29,1.29,0,0,1,55.61,97.61Z"/><path class="cls-5" d="M55.72,94.38a2.18,2.18,0,0,0-1.62.59h0c0-.87.22-2.06,1.61-2.06A1.19,1.19,0,0,1,57,93.7h.79a1.92,1.92,0,0,0-2.06-1.39c-.59,0-2.5,0-2.5,3,0,2.24.92,2.88,2.38,2.88s2.29-.81,2.29-2A1.9,1.9,0,0,0,55.72,94.38Zm-.11,3.23a1.34,1.34,0,0,1-1.48-1.35A1.28,1.28,0,0,1,55.59,95,1.26,1.26,0,0,1,57,96.23,1.29,1.29,0,0,1,55.61,97.61Z"/><path class="cls-4" d="M72.67,90a2.41,2.41,0,0,0-1.5.42l.26-1.64h2.93V88.1H70.78L70.31,91h.84a1.8,1.8,0,0,1,1.3-.49,1.29,1.29,0,0,1,1.46,1.31,1.34,1.34,0,0,1-1.55,1.37,1.21,1.21,0,0,1-1.36-1h-.88c.08.63.52,1.59,2.24,1.59s2.38-.87,2.38-2A1.87,1.87,0,0,0,72.67,90Z"/><path class="cls-5" d="M72.67,90a2.41,2.41,0,0,0-1.5.42l.26-1.64h2.93V88.1H70.78L70.31,91h.84a1.8,1.8,0,0,1,1.3-.49,1.29,1.29,0,0,1,1.46,1.31,1.34,1.34,0,0,1-1.55,1.37,1.21,1.21,0,0,1-1.36-1h-.88c.08.63.52,1.59,2.24,1.59s2.38-.87,2.38-2A1.87,1.87,0,0,0,72.67,90Z"/><path class="cls-4" d="M86.9,71.63H86l-3.13,3.65v.63H86v1.29h.89V75.91h1v-.63h-1ZM86,75.28H83.72L86,72.61Z"/><path class="cls-5" d="M86.9,71.63H86l-3.13,3.65v.63H86v1.29h.89V75.91h1v-.63h-1ZM86,75.28H83.72L86,72.61Z"/><path class="cls-4" d="M91.2,61v0A1.3,1.3,0,0,0,92.3,59.8c0-.44-.26-1.52-2.11-1.52-2,0-2.16,1.38-2.15,1.86h.82a1.16,1.16,0,0,1,1.29-1.26c1,0,1.31.52,1.31,1,0,1-1.17,1-1.45,1h-.27v.6h.69c.74,0,1.21.39,1.21,1,0,.36-.14,1.18-1.51,1.18a1.24,1.24,0,0,1-1.39-1.08l0-.18h-.85c0,.75.39,1.86,2.33,1.86,1.32,0,2.28-.63,2.28-1.72A1.38,1.38,0,0,0,91.2,61Z"/><path class="cls-5" d="M91.2,61v0A1.3,1.3,0,0,0,92.3,59.8c0-.44-.26-1.52-2.11-1.52-2,0-2.16,1.38-2.15,1.86h.82a1.16,1.16,0,0,1,1.29-1.26c1,0,1.31.52,1.31,1,0,1-1.17,1-1.45,1h-.27v.6h.69c.74,0,1.21.39,1.21,1,0,.36-.14,1.18-1.51,1.18a1.24,1.24,0,0,1-1.39-1.08l0-.18h-.85c0,.75.39,1.86,2.33,1.86,1.32,0,2.28-.63,2.28-1.72A1.38,1.38,0,0,0,91.2,61Z"/><path class="cls-4" d="M85.77,47.8c1.55-.83,2.14-1.16,2.14-2.2s-.86-1.69-2.22-1.69c-2,0-2.28,1.27-2.28,1.77v.17h.87v-.21c0-.66.54-1.1,1.38-1.1S87,44.91,87,45.6c0,.85-.8,1.21-1.35,1.5-1.29.68-2.26,1.2-2.25,2.53h4.5V49H84.37C84.49,48.6,84.86,48.27,85.77,47.8Z"/><path class="cls-5" d="M85.77,47.8c1.55-.83,2.14-1.16,2.14-2.2s-.86-1.69-2.22-1.69c-2,0-2.28,1.27-2.28,1.77v.17h.87v-.21c0-.66.54-1.1,1.38-1.1S87,44.91,87,45.6c0,.85-.8,1.21-1.35,1.5-1.29.68-2.26,1.2-2.25,2.53h4.5V49H84.37C84.49,48.6,84.86,48.27,85.77,47.8Z"/><path class="cls-4" d="M71.57,30.4h-.2v.39H72.9V35h.89V29.4h-.62A1.48,1.48,0,0,1,71.57,30.4Z"/><path class="cls-5" d="M71.57,30.4h-.2v.39H72.9V35h.89V29.4h-.62A1.48,1.48,0,0,1,71.57,30.4Z"/><path class="cls-6" d="M58.83,60.83a2.06,2.06,0,0,1-2.68.78l0,1.29,16,9.31L59.35,59.57Z"/><path class="cls-5" d="M55.88,61.5l.28.12a2.06,2.06,0,0,0,2.68-.78l.52-1.26,9.76-23.81-14.32,23A2.1,2.1,0,0,0,55.88,61.5Z"/><path class="cls-2" d="M109.73,97.07c0-3.17-.14-6.71-4.35-7-2.17-.08-4.52.46-4.26,3a12.36,12.36,0,0,1,.07,3.31,10.1,10.1,0,0,1-2,4.82,10.65,10.65,0,0,1-8.51,4c-1.76-.1-4.5-.43-4.33,2.18a12.06,12.06,0,0,0,.34,3.3,4.69,4.69,0,0,0,4.73,3.15h14.29c4.48,0,4-4.71,4-7.66Zm-.41,4.39c-.05.81-1.4,11.1-3.36,9.24l-.12-.12c-.8-.94-.08-3.2,0-4.28a25.86,25.86,0,0,0-.25-6.85A16.21,16.21,0,0,0,104,94.71c-.32-.62-2-2.52-1.62-3.15s2.85-.37,3.4-.1C109.66,93.47,109.56,97.73,109.32,101.46Z"/><path class="cls-1" d="M91.84,114.36c2.21.06,4.45-.06,6.64-.06,1.77,0,3.77.22,5.67.16v-.38H91.84Z"/><path class="cls-1" d="M104.15,114.47l.49,0v-.36h-.49Z"/><path class="cls-1" d="M91.36,114.34l.49,0v-.27h-.49Z"/><path class="cls-3" d="M100,97.79a8.31,8.31,0,0,1-.55,1.53,4.47,4.47,0,0,1-.93,2.18,9.87,9.87,0,0,0,2.31-6.36c0-1.47-.59-3.09.33-4.31v-.45C99.3,92.29,100.54,95.35,100,97.79Z"/><path class="cls-3" d="M93.35,104.52c-2.36.73-4.76-.48-7,.62-1.17.57-1.21,2.35-1,3.88h.62c-.08-1.09-.35-2.52.32-3.36,1.1-1.4,3.16-.61,4.61-.61A9.88,9.88,0,0,0,98.06,102,5.1,5.1,0,0,1,96.33,103,10.33,10.33,0,0,1,93.35,104.52Z"/><path class="cls-3" d="M101.12,90.37v.45a2.72,2.72,0,0,1,.5-.5V90a2.07,2.07,0,0,0-.36.26Z"/><path class="cls-3" d="M85.33,109l0,.2H86c0-.07,0-.13,0-.2Z"/><path class="cls-2" d="M105.6,89.84c-1,0-2.42-.27-3.48.19a2.23,2.23,0,0,0-.42.24l-.08.06a2.72,2.72,0,0,0-.5.5c-.93,1.22-.33,2.83-.33,4.31a9.87,9.87,0,0,1-2.31,6.36,4.5,4.5,0,0,1-.42.46A9.88,9.88,0,0,1,90.88,105c-1.46,0-3.51-.79-4.61.61-.67.85-.4,2.27-.32,3.36,0,.07,0,.13,0,.2s0,.14,0,.2,0,0,0,.06a4.62,4.62,0,0,0,4.62,4.62h15a4.62,4.62,0,0,0,4.62-4.62v-15A4.62,4.62,0,0,0,105.6,89.84Zm.08,24H91.39a4.69,4.69,0,0,1-4.73-3.15,12.06,12.06,0,0,1-.34-3.3c-.17-2.61,2.57-2.27,4.33-2.18a10.65,10.65,0,0,0,8.51-4,10.1,10.1,0,0,0,2-4.82,12.36,12.36,0,0,0-.07-3.31c-.26-2.58,2.09-3.12,4.26-3,4.2.31,4.35,3.85,4.35,7v9.16C109.73,109.17,110.17,113.88,105.68,113.88Z"/><path class="cls-2" d="M20.29,105.22a10.21,10.21,0,0,1-9.42-4.88c-1.27-2.27-1.16-4.06-1-6.58.09-1.67-.08-3.67-2.34-3.76C6.68,90,5.85,90,5,90,.41,90.39,1,95,1,98.13v9.1c0,3,.37,6.65,4.41,6.65H19.91c3.1,0,4.21-2.31,4.36-4.87.05-.91.37-2.81-.43-3.5C22.65,104.48,21.5,105.13,20.29,105.22Zm2.06,2.57c-.13,3-5.13,3.33-7.35,3.22-2.69-.13-6.6-.94-8.12-3.46A12.22,12.22,0,0,1,5.6,99.73c.26-2,.25-5.6,2.25-6.78.91,1.32.5,2.81.48,4.29A7.45,7.45,0,0,0,10,102.38a14.43,14.43,0,0,0,7.62,4.05c1.15.23,3.28-.77,4.22-.26C22.37,106.46,22.38,107.2,22.35,107.78Z"/><path class="cls-1" d="M5.8,114.48c1.79.08,3.76-.18,5.27-.18h7v-.21H5.8Z"/><path class="cls-1" d="M18.11,114.3h.49v-.21h-.49Z"/><path class="cls-1" d="M5.31,114.46l.49,0v-.39H5.31Z"/><path class="cls-3" d="M21.55,104.61a9.57,9.57,0,0,1-6.6-1.36,4.82,4.82,0,0,1-1.67-.72A10,10,0,0,0,19.84,105c1.41,0,3.36-1,4.47.34.71.84.51,2.47.45,3.63h.58a8.34,8.34,0,0,0-.26-3.24C24.66,104.28,22.7,104.45,21.55,104.61Z"/><path class="cls-3" d="M10.66,95.22c.11-1.54.45-2.93-.24-4.39a1.78,1.78,0,0,0-.44-.56V91a2.72,2.72,0,0,1,.2.43c.63,1.82-.45,4.22.08,6.24a9.76,9.76,0,0,0,2,3.76,3.93,3.93,0,0,1-.59-1.64A7.68,7.68,0,0,1,10.66,95.22Z"/><path class="cls-3" d="M9.48,90.4A2.17,2.17,0,0,1,10,91v-.74a2.14,2.14,0,0,0-.5-.33Z"/><path class="cls-3" d="M24.76,109.22h.56c0-.07,0-.13,0-.2h-.58C24.76,109.09,24.76,109.15,24.76,109.22Z"/><path class="cls-2" d="M19.84,105a10,10,0,0,1-6.56-2.52,3.87,3.87,0,0,1-1.06-1.09,9.76,9.76,0,0,1-2-3.76c-.54-2,.55-4.42-.08-6.24A2.72,2.72,0,0,0,10,91a2.17,2.17,0,0,0-.5-.61,2.25,2.25,0,0,0-.5-.32c-1.13-.52-2.7-.24-3.86-.24A4.62,4.62,0,0,0,.5,94.46v15a4.61,4.61,0,0,0,4.33,4.59c.1,0,.19,0,.29,0h15a4.61,4.61,0,0,0,4.61-4.49s0-.08,0-.13,0-.17,0-.26,0-.13,0-.2c.06-1.16.26-2.79-.45-3.63C23.2,104.07,21.25,105,19.84,105Zm4.43,4c-.15,2.56-1.26,4.87-4.36,4.87H5.4c-4,0-4.41-3.67-4.41-6.65v-9.1C1,95,.41,90.39,5,90,5.85,90,6.68,90,7.51,90c2.26.09,2.43,2.09,2.34,3.76-.13,2.52-.25,4.31,1,6.58a10.21,10.21,0,0,0,9.42,4.88c1.21-.09,2.36-.74,3.55.3C24.65,106.21,24.33,108.1,24.28,109Z"/><path class="cls-7" d="M21.85,106.18c-.94-.51-3.07.49-4.22.26A14.43,14.43,0,0,1,10,102.38a7.45,7.45,0,0,1-1.68-5.14c0-1.48.43-3-.48-4.29-2,1.18-2,4.76-2.25,6.78a12.22,12.22,0,0,0,1.28,7.82c1.52,2.52,5.43,3.33,8.12,3.46,2.22.11,7.22-.21,7.35-3.22C22.38,107.2,22.37,106.46,21.85,106.18Z"/><path class="cls-7" d="M105.73,91.46c-.55-.28-3-.64-3.4.1s1.3,2.54,1.62,3.15a16.21,16.21,0,0,1,1.68,4.73,25.86,25.86,0,0,1,.25,6.85c-.12,1.08-.84,3.34,0,4.28l.12.12c2,1.86,3.31-8.43,3.36-9.24C109.56,97.73,109.66,93.47,105.73,91.46Z"/><path class="cls-8" d="M74.25,7.68a20.29,20.29,0,0,0-3.37-.8c-1.57-.22-3-.4-3.43-.44-1.17-.11-4.27-.44-5,.94s3.2,1.37,3.87,1.43,2.39.75,4.14,1.2a16.16,16.16,0,0,0,4.25.82,1.54,1.54,0,0,0,1.2-1C76.54,8.77,75.75,8.18,74.25,7.68Z"/><path class="cls-7" d="M97.31,18.62c-.85-1.33,1.15-1.83,0-2.94s-1.53.72-3,.12-.45-2.4-2-2.4-.58,1.77-2,2.37-1.85-1.2-3-.08.45,1.41-.16,2.87S85,19.12,85,20.7s1.64.65,2.24,2.11S85.88,24.9,87,26s1.75-.83,3.21-.22S90.74,28,92.32,28s.6-1.68,2.06-2.28,2,1.3,3.1.19-.7-1.61-.1-3.07,2.45-.52,2.45-2.1S98.27,20.12,97.31,18.62Z"/><path class="cls-7" d="M24.55,18.62c-.85-1.33,1.15-1.83,0-2.94s-1.53.72-3,.12-.45-2.4-2-2.4-.58,1.77-2,2.37-1.85-1.2-3-.08.45,1.41-.16,2.87-2.17.56-2.17,2.14,1.64.65,2.24,2.11S13.12,24.9,14.23,26s1.75-.83,3.21-.22S18,28,19.56,28s.6-1.68,2.06-2.28,2,1.3,3.1.19-.7-1.61-.1-3.07,2.45-.52,2.45-2.1S25.5,20.12,24.55,18.62Z"/><path class="cls-1" d="M17.58,94.82a4,4,0,0,0-5,4,4.31,4.31,0,0,0,2.88,4.07c2.83.78,4.84-1.51,5-4A4.31,4.31,0,0,0,17.58,94.82Z"/><path class="cls-3" d="M11.6,98.88a4.94,4.94,0,0,0,0,.91l.17.29A10.56,10.56,0,0,0,15,103.25c2.78.64,6.31-.85,6.5-4.4C21.13,92.77,11.92,92.86,11.6,98.88Zm4.93,4.41A4.43,4.43,0,1,1,21,98.86,4.43,4.43,0,0,1,16.53,103.29Z"/><path class="cls-3" d="M11.81,100.08l-.17-.29a3.93,3.93,0,0,0,.59,1.64,10.14,10.14,0,0,0,1.06,1.09,4.82,4.82,0,0,0,1.67.72A10.56,10.56,0,0,1,11.81,100.08Z"/><path class="cls-2" d="M13.28,102.53a10.14,10.14,0,0,1-1.06-1.09A3.87,3.87,0,0,0,13.28,102.53Z"/><path class="cls-1" d="M16.53,94.44A4.43,4.43,0,1,0,21,98.86,4.43,4.43,0,0,0,16.53,94.44Zm-1.05,8.47a4.31,4.31,0,0,1-2.88-4.07,4,4,0,0,1,5-4,4.31,4.31,0,0,1,2.88,4.07C20.32,101.4,18.31,103.69,15.48,102.91Z"/><path class="cls-1" d="M95.58,94.82a4,4,0,0,0-5,4,4.31,4.31,0,0,0,2.88,4.07c2.83.78,4.84-1.51,5-4A4.31,4.31,0,0,0,95.58,94.82Z"/><path class="cls-3" d="M89.6,98.88c-.21,3.89,3.76,5.24,6.73,4.13l.49-.38a4.48,4.48,0,1,1,1.5-1.51,9,9,0,0,0,1.09-1.81c0-.15,0-.31,0-.47C99.13,92.77,89.92,92.86,89.6,98.88Z"/><path class="cls-3" d="M96.82,102.64l-.49.38A5.1,5.1,0,0,0,98.06,102c.14-.15.29-.3.42-.46a4.47,4.47,0,0,0,.93-2.18,9,9,0,0,1-1.09,1.81A4.42,4.42,0,0,1,96.82,102.64Z"/><path class="cls-2" d="M98.48,101.49c-.13.16-.28.31-.42.46A4.5,4.5,0,0,0,98.48,101.49Z"/><path class="cls-1" d="M94.53,94.44A4.4,4.4,0,1,0,99,98.86,4.43,4.43,0,0,0,94.53,94.44Zm-1.05,8.47a4.31,4.31,0,0,1-2.88-4.07,4,4,0,0,1,5-4,4.31,4.31,0,0,1,2.88,4.07C98.32,101.4,96.31,103.69,93.48,102.91Z"/><path class="cls-9" d="M50.46,4.37l.49,0a4.42,4.42,0,0,1,8.83.08l.48,0h0C59.9-1.49,51-1.45,50.46,4.37Z"/><path class="cls-9" d="M55.36.1A4.42,4.42,0,0,0,51,4.35l.48,0a4,4,0,0,1,5-3.85A4.26,4.26,0,0,1,59.27,4.4l.51,0A4.42,4.42,0,0,0,55.36.1Z"/><path class="cls-9" d="M18.59,116.59H5.31v-2.14l-.49-.06v2.08c0,.26.51.34.69.34H18.74a.65.65,0,0,0,.24,0h0c.06,0,.1,0,.1-.09V114.3h-.49Z"/><path class="cls-9" d="M18.11,116.37H5.8v-1.89l-.49,0v2.14H18.59V114.3h-.49Z"/><path class="cls-9" d="M104.64,116.59H91.36v-2.25l-.49,0v2.16c0,.26.51.34.69.34h13.22a.65.65,0,0,0,.24,0h0c.06,0,.1,0,.1-.09v-2.3l-.49,0Z"/><path class="cls-9" d="M104.15,116.37H91.84v-2l-.49,0v2.25h13.28v-2.15l-.49,0Z"/><path class="cls-9" d="M77.07,7.52c-5.31-2-11.16-2.7-16.79-3.07,0,0,0,0,0,.06s0,.12,0,.18C71.69,5.34,80.64,8,82.65,11.45h.45C82,9.42,79,8.25,77.07,7.52Z"/><path class="cls-9" d="M27.2,10.53a5,5,0,0,0-.71.93h.62c2.06-3.5,11.46-6.26,23.33-6.82,0,0,0-.06,0-.08s0-.12,0-.18A84.34,84.34,0,0,0,39.76,5.54C35.6,6.27,30.27,7.34,27.2,10.53Z"/><path class="cls-9" d="M51.43,4.33c0,.06,0,.12,0,.18s0,.06,0,.08c1.13,0,2.27-.06,3.44-.06q2.25,0,4.4.1s0-.05,0-.08,0-.1,0-.15Q55.36,4.19,51.43,4.33Z"/><path class="cls-9" d="M60.26,4.45l-.48,0s0,.07,0,.1,0,.08,0,.13l.49,0c0-.06,0-.12,0-.18s0,0,0-.06Z"/><path class="cls-9" d="M60.26,4.45l-.48,0s0,.07,0,.1,0,.08,0,.13l.49,0c0-.06,0-.12,0-.18s0,0,0-.06Z"/><path class="cls-9" d="M50.46,4.37c0,.06,0,.12,0,.18s0,.06,0,.08l.51,0s0-.05,0-.08,0-.12,0-.18Z"/><path class="cls-9" d="M50.46,4.37c0,.06,0,.12,0,.18s0,.06,0,.08l.51,0s0-.05,0-.08,0-.12,0-.18Z"/><path class="cls-9" d="M59.27,4.4s0,.1,0,.15,0,.05,0,.08l.5,0s0-.08,0-.13,0-.07,0-.1Z"/><path class="cls-9" d="M59.27,4.4s0,.1,0,.15,0,.05,0,.08l.5,0s0-.08,0-.13,0-.07,0-.1Z"/><path class="cls-9" d="M51.43,4.33l-.48,0c0,.06,0,.12,0,.18s0,.05,0,.08l.5,0s0-.06,0-.08S51.44,4.39,51.43,4.33Z"/><path class="cls-9" d="M51.43,4.33l-.48,0c0,.06,0,.12,0,.18s0,.05,0,.08l.5,0s0-.06,0-.08S51.44,4.39,51.43,4.33Z"/><path class="cls-9" d="M60.27,4.68l-.49,0-.5,0q-2.15-.1-4.4-.1c-1.16,0-2.31,0-3.44.06l-.5,0-.51,0c-11.87.56-21.26,3.31-23.33,6.82h.44c1.27-2.12,5.16-3.39,6.85-4C40.13,5.57,46.35,5,52.35,4.81A78.33,78.33,0,0,1,72.59,6.59c2.64.61,8.19,1.85,9.66,4.86h.4C80.64,8,71.69,5.34,60.27,4.68Z"/><path class="cls-9" d="M9.23,17.4A13.31,13.31,0,0,0,9,21.18V89.74a3,3,0,0,1,.5.19V19.35a7.7,7.7,0,0,1,7.7-7.7h9.18l.12-.2H17.22A8.21,8.21,0,0,0,9.23,17.4Z"/><path class="cls-9" d="M25.32,109.22c0,.13,0,.26-.06.38,7.54,0,15.1-.18,22.61-.18H85.39l0-.2Z"/><path class="cls-9" d="M90.82,11.45H83.1c0,.06.06.13.09.2H93.92a7.7,7.7,0,0,1,7.7,7.7V90a2.62,2.62,0,0,1,.5-.23V27.16c0-3.13.42-6.64-.25-9.74C100.69,11.92,95.33,11.45,90.82,11.45Z"/><path class="cls-9" d="M49.35,11.45H27.55l-.12.2H82.32c0-.07,0-.14-.08-.2Z"/><path class="cls-9" d="M82.65,11.45l.12.2h.43c0-.07-.06-.14-.09-.2Z"/><path class="cls-9" d="M82.65,11.45l.12.2h.43c0-.07-.06-.14-.09-.2Z"/><path class="cls-9" d="M26.37,11.65H27l.12-.2h-.62Z"/><path class="cls-9" d="M26.37,11.65H27l.12-.2h-.62Z"/><path class="cls-9" d="M82.25,11.45c0,.06,0,.13.08.2h.44l-.12-.2Z"/><path class="cls-9" d="M82.25,11.45c0,.06,0,.13.08.2h.44l-.12-.2Z"/><path class="cls-9" d="M27,11.65h.44l.12-.2h-.44Z"/><path class="cls-9" d="M27,11.65h.44l.12-.2h-.44Z"/><path class="cls-9" d="M93.92,11.65H17.18a7.7,7.7,0,0,0-7.7,7.7V89.93a2.14,2.14,0,0,1,.5.33V19.43a7.51,7.51,0,0,1,7.47-7.57H85.36c3.45,0,8-.72,11.35.6,5.17,2.06,4.41,7.95,4.41,12.39V90.37l.14-.15a2.07,2.07,0,0,1,.36-.26V19.35A7.7,7.7,0,0,0,93.92,11.65Z"/><path class="cls-9" d="M69.47,109H25.35c0,.07,0,.13,0,.2h60l0-.2Z"/><path class="cls-9" d="M99,56.66h0l-.05-.5h0q-.22-2.05-.62-4h0l-.1-.49a44.52,44.52,0,0,0-2.08-6.94L96,44.14l0-.11a43.23,43.23,0,0,0-76.1-8.3,44.56,44.56,0,0,0-7.51,20.41l-.05.5h0q-.19,2-.21,4.09v.5h0q0,2.07.21,4.09h0l.05.5h0A44.56,44.56,0,0,0,25,92.48a43.08,43.08,0,0,0,67.11-7.2,44.52,44.52,0,0,0,6.16-14.89h0l.1-.49h0q.4-2,.62-4.06h0l.05-.5h0q.19-2,.21-4.09l0-.5h0Q99.23,58.68,99,56.66ZM77.57,23.24c.68.41,1.33.84,2,1.28.47.32.93.64,1.39,1l-1.41,2,.41.29,1.41-2Q83,27,84.45,28.39l-1.58,1.77.37.33,1.57-1.76q1.48,1.39,2.82,2.91l-1.71,1.56.34.37L88,32q1.32,1.53,2.51,3.18l-1.84,1.35.3.4,1.83-1.34q1.16,1.65,2.16,3.41l-3.82,2.1A39.15,39.15,0,0,0,75,27.18l2.5-3.9ZM36.8,21.56l.95-.47,0,0,1,2.26.46-.2-1-2.26,0,0Q40,20,42,19.38l0,.11.75,2.31.48-.15-.75-2.32,0-.11c1.28-.42,2.58-.78,3.91-1.08l0,.18.49,2.34.49-.1-.49-2.34,0-.18q2-.42,4-.65l0,.22L51.12,20l.5-.05-.24-2.34,0-.23q2-.2,4-.22V22h.5V17.12q2.06,0,4.06.22l0,.25-.24,2.33.5.05.24-2.32,0-.25q2,.23,4,.65l0,.22-.49,2.3.49.1.49-2.29,0-.22q2,.45,3.91,1.08l-.06.18-.73,2.25.48.15.73-2.24.06-.18q1.93.66,3.77,1.49l-.05.12-1,2.18.46.2,1-2.17.05-.12Q75.4,22,77.14,23l0,.05-2.49,3.89.18.11a38.41,38.41,0,0,0-38.15.13L34.16,23C35,22.47,35.9,22,36.8,21.56Zm-16.27,14,1.84,1.35.3-.4-1.84-1.35Q22,33.52,23.33,32L25,33.55l.34-.37-1.72-1.57q1.35-1.52,2.82-2.9l1.57,1.77.37-.33-1.58-1.78Q28.35,27,30,25.78l1.41,2,.41-.29-1.42-2q1.63-1.2,3.37-2.25l2.48,4.18A39.18,39.18,0,0,0,22.29,41.56L18.35,39Q19.36,37.24,20.53,35.58ZM12.75,56.69l2.14.23.05-.5L12.8,56.2q.22-2,.61-4l2.12.46.1-.49-2.12-.46q.42-2,1-3.91l2.08.68.16-.48-2.09-.68q.63-1.94,1.42-3.8l2,.91.2-.46-2-.91q.82-1.85,1.8-3.61L22,42a39,39,0,0,0-4.94,18.74H12.55Q12.56,58.69,12.75,56.69Zm3.56,22.22,2-.91-.21-.46-2,.91q-.79-1.85-1.42-3.79L16.78,74l-.16-.48-2.08.68q-.6-1.92-1-3.92l2.12-.46-.11-.49-2.12.46q-.4-2-.62-4l2.14-.23-.05-.5-2.14.23q-.19-2-.2-4h4.56a39,39,0,0,0,5.11,19.18l-4.09,2.13Q17.14,80.78,16.32,78.91ZM30.37,96.48l1.4-2-.41-.29L30,96.18Q28.35,95,26.86,93.59l1.58-1.76-.37-.33-1.57,1.76q-1.48-1.38-2.83-2.9l1.72-1.55L25,88.42,23.33,90Q22,88.44,20.83,86.8l1.84-1.35-.29-.4-1.83,1.34q-1.15-1.65-2.16-3.4l4.1-2.14A39.17,39.17,0,0,0,35.92,94.51l-2.19,4.22Q32,97.68,30.37,96.48Zm25,8.35q-2,0-4-.22l.27-2.56-.5-.05-.27,2.55q-2-.23-4-.65l.53-2.51-.49-.1-.53,2.5q-2-.45-3.91-1.08l.78-2.41-.48-.15L42,102.58q-1.93-.66-3.77-1.49l1-2.29-.46-.2-1,2.28Q35.9,100,34.16,99l2.19-4.22a38.26,38.26,0,0,0,19,5.3ZM17.61,61A38.22,38.22,0,1,1,55.83,99.57,38.42,38.42,0,0,1,17.61,61ZM90.75,86.39l-1.83-1.33-.29.4,1.83,1.34Q89.27,88.45,87.95,90l-1.7-1.55-.34.37,1.71,1.55q-1.35,1.52-2.82,2.9L83.24,91.5l-.37.33,1.57,1.75Q82.94,95,81.32,96.18l-1.4-1.94-.41.29,1.4,2q-1.63,1.2-3.37,2.25l-2.2-3.85-.43.25L77.12,99q-1.75,1-3.59,1.89l-1-2.28-.46.2,1,2.29q-1.84.83-3.77,1.49l-.77-2.4-.48.15.77,2.41q-1.92.63-3.91,1.08l-.52-2.5-.49.1.53,2.5c-1.31.28-2.65.5-4,.65L60.17,102l-.5.05.27,2.55c-1.33.14-2.68.21-4,.22v-4.76A38.68,38.68,0,0,0,89.19,80.84L92.92,83Q91.91,84.74,90.75,86.39Zm8-25.15c0,1.36-.08,2.71-.21,4l-2.13-.22-.05.5,2.13.22q-.22,2-.62,4l-2.11-.45-.1.49,2.11.45q-.42,2-1,3.92l-2.06-.68-.16.47,2.07.68q-.63,1.93-1.42,3.79l-2-.9L93,78l2,.91q-.82,1.86-1.8,3.62l-3.72-2.13a39.23,39.23,0,0,0-.08-38.86l3.82-2.1q1,1.77,1.81,3.63L93,44l.2.46,2-.9q.79,1.85,1.42,3.79L94.53,48l.16.48,2.07-.68q.6,1.92,1,3.92l-2.11.45.1.49,2.11-.45q.39,2,.61,4l-2.13.22.05.5,2.13-.22q.19,2,.2,4h-4v.5Z"/><path class="cls-9" d="M106.51,89.68l-.68-.05a10.9,10.9,0,0,0-3.7.12V90c1.06-.46,2.46-.19,3.48-.19a4.62,4.62,0,0,1,4.62,4.62v15a4.62,4.62,0,0,1-4.62,4.62h-.48v.31a10.71,10.71,0,0,0,1.32-.19c3.5-.78,4.27-3.48,4.27-6.64v-11C110.72,93.62,110.26,90,106.51,89.68Z"/><path class="cls-9" d="M86,109.48s0,0,0-.06h-.58c.09.58.2,1.1.28,1.47.49,2.17,2.67,3.27,4.69,3.42l.51,0v-.23h-.28A4.62,4.62,0,0,1,86,109.48Z"/><path class="cls-9" d="M91.84,114.36c2.21.06,4.45-.06,6.64-.06,1.77,0,3.77.22,5.67.16v-.38H91.84Z"/><path class="cls-9" d="M104.64,114.45l.49,0v-.31h-.49Z"/><path class="cls-9" d="M104.64,114.45l.49,0v-.31h-.49Z"/><path class="cls-9" d="M90.87,114.32l.49,0v-.25h-.49Z"/><path class="cls-9" d="M90.87,114.32l.49,0v-.25h-.49Z"/><path class="cls-9" d="M104.15,114.47l.49,0v-.36h-.49Z"/><path class="cls-9" d="M104.15,114.47l.49,0v-.36h-.49Z"/><path class="cls-9" d="M91.36,114.34l.49,0v-.27h-.49Z"/><path class="cls-9" d="M91.36,114.34l.49,0v-.27h-.49Z"/><path class="cls-9" d="M100,97.79a8.31,8.31,0,0,1-.55,1.53,4.47,4.47,0,0,1-.93,2.18,9.87,9.87,0,0,0,2.31-6.36c0-1.47-.59-3.09.33-4.31v-.45C99.3,92.29,100.54,95.35,100,97.79Z"/><path class="cls-9" d="M93.35,104.52c-2.36.73-4.76-.48-7,.62-1.17.57-1.21,2.35-1,3.88h.62c-.08-1.09-.35-2.52.32-3.36,1.1-1.4,3.16-.61,4.61-.61A9.88,9.88,0,0,0,98.06,102,5.1,5.1,0,0,1,96.33,103,10.33,10.33,0,0,1,93.35,104.52Z"/><path class="cls-9" d="M101.62,90.33l.08-.06a2.23,2.23,0,0,1,.42-.24v-.28a2.62,2.62,0,0,0-.5.23Z"/><path class="cls-9" d="M101.62,90.33l.08-.06a2.23,2.23,0,0,1,.42-.24v-.28a2.62,2.62,0,0,0-.5.23Z"/><path class="cls-9" d="M85.36,109.22l0,.2H86c0-.06,0-.13,0-.2Z"/><path class="cls-9" d="M85.36,109.22l0,.2H86c0-.06,0-.13,0-.2Z"/><path class="cls-9" d="M101.12,90.37v.45a2.72,2.72,0,0,1,.5-.5V90a2.07,2.07,0,0,0-.36.26Z"/><path class="cls-9" d="M101.12,90.37v.45a2.72,2.72,0,0,1,.5-.5V90a2.07,2.07,0,0,0-.36.26Z"/><path class="cls-9" d="M85.33,109l0,.2H86c0-.07,0-.13,0-.2Z"/><path class="cls-9" d="M85.33,109l0,.2H86c0-.07,0-.13,0-.2Z"/><path class="cls-9" d="M105.6,89.84c-1,0-2.42-.27-3.48.19a2.23,2.23,0,0,0-.42.24l-.08.06a2.72,2.72,0,0,0-.5.5c-.93,1.22-.33,2.83-.33,4.31a9.87,9.87,0,0,1-2.31,6.36,4.5,4.5,0,0,1-.42.46A9.88,9.88,0,0,1,90.88,105c-1.46,0-3.51-.79-4.61.61-.67.85-.4,2.27-.32,3.36,0,.07,0,.13,0,.2s0,.14,0,.2,0,0,0,.06a4.62,4.62,0,0,0,4.62,4.62h15a4.62,4.62,0,0,0,4.62-4.62v-15A4.62,4.62,0,0,0,105.6,89.84Zm.08,24H91.39a4.69,4.69,0,0,1-4.73-3.15,12.06,12.06,0,0,1-.34-3.3c-.17-2.61,2.57-2.27,4.33-2.18a10.65,10.65,0,0,0,8.51-4,10.1,10.1,0,0,0,2-4.82,12.36,12.36,0,0,0-.07-3.31c-.26-2.58,2.09-3.12,4.26-3,4.2.31,4.35,3.85,4.35,7v9.16C109.73,109.17,110.17,113.88,105.68,113.88Z"/><path class="cls-9" d="M6.22,89.59l-1,0-.18,0c-3.28.32-5,2.56-5,5.82v10.75c0,3.2-.26,6.46,3.37,7.84a6.51,6.51,0,0,0,1.45.34v-.34A4.61,4.61,0,0,1,.5,109.47v-15a4.62,4.62,0,0,1,4.62-4.62c1.16,0,2.73-.28,3.86.24v-.34A9,9,0,0,0,6.22,89.59Z"/><path class="cls-9" d="M20.13,114.09H19.08v.21H20c3,0,4.76-2.14,5.25-4.7h-.52A4.61,4.61,0,0,1,20.13,114.09Z"/><path class="cls-9" d="M5.8,114.48c1.79.08,3.76-.18,5.27-.18h7v-.21H5.8Z"/><path class="cls-9" d="M4.82,114.06v.34l.49.06v-.37H5.12C5,114.09,4.92,114.07,4.82,114.06Z"/><path class="cls-9" d="M4.82,114.06v.34l.49.06v-.37H5.12C5,114.09,4.92,114.07,4.82,114.06Z"/><path class="cls-9" d="M18.59,114.3h.49v-.21h-.49Z"/><path class="cls-9" d="M18.59,114.3h.49v-.21h-.49Z"/><path class="cls-9" d="M18.11,114.3h.49v-.21h-.49Z"/><path class="cls-9" d="M18.11,114.3h.49v-.21h-.49Z"/><path class="cls-9" d="M5.31,114.46l.49,0v-.39H5.31Z"/><path class="cls-9" d="M5.31,114.46l.49,0v-.39H5.31Z"/><path class="cls-9" d="M21.55,104.61a9.57,9.57,0,0,1-6.6-1.36,4.82,4.82,0,0,1-1.67-.72A10,10,0,0,0,19.84,105c1.41,0,3.36-1,4.47.34.71.84.51,2.47.45,3.63h.58a8.34,8.34,0,0,0-.26-3.24C24.66,104.28,22.7,104.45,21.55,104.61Z"/><path class="cls-9" d="M10.66,95.22c.11-1.54.45-2.93-.24-4.39a1.78,1.78,0,0,0-.44-.56V91a2.72,2.72,0,0,1,.2.43c.63,1.82-.45,4.22.08,6.24a9.76,9.76,0,0,0,2,3.76,3.93,3.93,0,0,1-.59-1.64A7.68,7.68,0,0,1,10.66,95.22Z"/><path class="cls-9" d="M9,90.08a2.25,2.25,0,0,1,.5.32v-.47a3,3,0,0,0-.5-.19Z"/><path class="cls-9" d="M9,90.08a2.25,2.25,0,0,1,.5.32v-.47a3,3,0,0,0-.5-.19Z"/><path class="cls-9" d="M24.75,109.47s0,.08,0,.13h.52c0-.13,0-.25.06-.38h-.56C24.76,109.3,24.75,109.39,24.75,109.47Z"/><path class="cls-9" d="M24.75,109.47s0,.08,0,.13h.52c0-.13,0-.25.06-.38h-.56C24.76,109.3,24.75,109.39,24.75,109.47Z"/><path class="cls-9" d="M9.48,90.4A2.17,2.17,0,0,1,10,91v-.74a2.14,2.14,0,0,0-.5-.33Z"/><path class="cls-9" d="M9.48,90.4A2.17,2.17,0,0,1,10,91v-.74a2.14,2.14,0,0,0-.5-.33Z"/><path class="cls-9" d="M24.76,109.22h.56c0-.07,0-.13,0-.2h-.58C24.76,109.09,24.76,109.15,24.76,109.22Z"/><path class="cls-9" d="M24.76,109.22h.56c0-.07,0-.13,0-.2h-.58C24.76,109.09,24.76,109.15,24.76,109.22Z"/><path class="cls-9" d="M19.84,105a10,10,0,0,1-6.56-2.52,3.87,3.87,0,0,1-1.06-1.09,9.76,9.76,0,0,1-2-3.76c-.54-2,.55-4.42-.08-6.24A2.72,2.72,0,0,0,10,91a2.17,2.17,0,0,0-.5-.61,2.25,2.25,0,0,0-.5-.32c-1.13-.52-2.7-.24-3.86-.24A4.62,4.62,0,0,0,.5,94.46v15a4.61,4.61,0,0,0,4.33,4.59c.1,0,.19,0,.29,0h15a4.61,4.61,0,0,0,4.61-4.49s0-.08,0-.13,0-.17,0-.26,0-.13,0-.2c.06-1.16.26-2.79-.45-3.63C23.2,104.07,21.25,105,19.84,105Zm4.43,4c-.15,2.56-1.26,4.87-4.36,4.87H5.4c-4,0-4.41-3.67-4.41-6.65v-9.1C1,95,.41,90.39,5,90,5.85,90,6.68,90,7.51,90c2.26.09,2.43,2.09,2.34,3.76-.13,2.52-.25,4.31,1,6.58a10.21,10.21,0,0,0,9.42,4.88c1.21-.09,2.36-.74,3.55.3C24.65,106.21,24.33,108.1,24.28,109Z"/><path class="cls-9" d="M11.6,98.88a4.94,4.94,0,0,0,0,.91l.17.29A10.56,10.56,0,0,0,15,103.25c2.78.64,6.31-.85,6.5-4.4C21.13,92.77,11.92,92.86,11.6,98.88Zm4.93,4.41A4.43,4.43,0,1,1,21,98.86,4.43,4.43,0,0,1,16.53,103.29Z"/><path class="cls-9" d="M11.81,100.08l-.17-.29a3.93,3.93,0,0,0,.59,1.64,10.14,10.14,0,0,0,1.06,1.09,4.82,4.82,0,0,0,1.67.72A10.56,10.56,0,0,1,11.81,100.08Z"/><path class="cls-9" d="M11.81,100.08l-.17-.29a3.93,3.93,0,0,0,.59,1.64,10.14,10.14,0,0,0,1.06,1.09,4.82,4.82,0,0,0,1.67.72A10.56,10.56,0,0,1,11.81,100.08Z"/><path class="cls-9" d="M13.28,102.53a10.14,10.14,0,0,1-1.06-1.09A3.87,3.87,0,0,0,13.28,102.53Z"/><path class="cls-9" d="M13.28,102.53a10.14,10.14,0,0,1-1.06-1.09A3.87,3.87,0,0,0,13.28,102.53Z"/><path class="cls-9" d="M16.53,94.44A4.43,4.43,0,1,0,21,98.86,4.43,4.43,0,0,0,16.53,94.44Zm-1.05,8.47a4.31,4.31,0,0,1-2.88-4.07,4,4,0,0,1,5-4,4.31,4.31,0,0,1,2.88,4.07C20.32,101.4,18.31,103.69,15.48,102.91Z"/><path class="cls-9" d="M89.6,98.88c-.21,3.89,3.76,5.24,6.73,4.13l.49-.38a4.48,4.48,0,1,1,1.5-1.51,9,9,0,0,0,1.09-1.81c0-.15,0-.31,0-.47C99.13,92.77,89.92,92.86,89.6,98.88Z"/><path class="cls-9" d="M96.82,102.64l-.49.38A5.1,5.1,0,0,0,98.06,102c.14-.15.29-.3.42-.46a4.47,4.47,0,0,0,.93-2.18,9,9,0,0,1-1.09,1.81A4.42,4.42,0,0,1,96.82,102.64Z"/><path class="cls-9" d="M96.82,102.64l-.49.38A5.1,5.1,0,0,0,98.06,102c.14-.15.29-.3.42-.46a4.47,4.47,0,0,0,.93-2.18,9,9,0,0,1-1.09,1.81A4.42,4.42,0,0,1,96.82,102.64Z"/><path class="cls-9" d="M98.48,101.49c-.13.16-.28.31-.42.46A4.5,4.5,0,0,0,98.48,101.49Z"/><path class="cls-9" d="M98.48,101.49c-.13.16-.28.31-.42.46A4.5,4.5,0,0,0,98.48,101.49Z"/><path class="cls-9" d="M94.53,94.44A4.4,4.4,0,1,0,99,98.86,4.43,4.43,0,0,0,94.53,94.44Zm-1.05,8.47a4.31,4.31,0,0,1-2.88-4.07,4,4,0,0,1,5-4,4.31,4.31,0,0,1,2.88,4.07C98.32,101.4,96.31,103.69,93.48,102.91Z"/></g></g></svg>