<svg xmlns="http://www.w3.org/2000/svg" viewBox="0 0 76.48 102.26"><defs><style>.cls-1{fill:#fff;}.cls-2{fill-rule:evenodd;}</style></defs><title>Ресурс 29clock</title><g id="Слой_2" data-name="Слой 2"><g id="Layer_1" data-name="Layer 1"><path d="M39.27,83.66a.12.12,0,0,0,0,0c0,.21-.1.42-.13.64a3.16,3.16,0,0,0-.07.56q-.08.52-.15,1c0,.12,0,.24,0,.36-.15,4.34,2.11,8.35,6.57,8.51,8.27.29,8.07-9.58,2.19-9.79C42.79,84.85,43,90.47,46,90.57a.88.88,0,1,0-.49-.17c-1.45-.53-1.18-3.88,1.74-3.78,4,.14,3.83,6.82-1.82,6.63-3.19-.11-5.46-2.77-5.31-6.84a16.14,16.14,0,0,1,4.79-10.14c.46-.38.93-.73,1.42-1.06a15.71,15.71,0,0,1,3.16-1.67,17.63,17.63,0,0,1,3.05-.81c.12,0,.24-.06.36-.07,4.06-.39,6.84,1.71,7.15,4.89.54,5.63-6.11,6.25-6.5,2.22-.28-2.9,3.06-3.38,3.67-2a.88.88,0,1,0,.2.48c-.29-3-5.91-2.91-5.45,1.91.57,5.86,10.43,5.45,9.64-2.78-.43-4.44-4.57-6.45-8.89-6a12.85,12.85,0,0,0-4.41,1.29,18,18,0,0,0-3.79,2.57,15.1,15.1,0,0,0-2.14,2.34,24.06,24.06,0,0,0-1.86,2.85A11.08,11.08,0,0,0,39.27,83.66Z"/><path d="M37.32,84.71a.13.13,0,0,1,0,0c0,.21,0,.43.06.65a3,3,0,0,1,0,.56q0,.53,0,1.06c0,.12,0,.24,0,.36-.31,4.33-3,8.08-7.44,7.75-8.25-.6-7-10.39-1.13-10,4.83.35,4,5.91,1,5.69a.87.87,0,1,1,.51-.12c1.5-.37,1.58-3.74-1.33-4-4-.29-4.54,6.38,1.1,6.78,3.18.23,5.72-2.17,6-6.23a16.15,16.15,0,0,0-3.68-10.59q-.63-.63-1.3-1.21a15.75,15.75,0,0,0-3-2,17.25,17.25,0,0,0-3-1.14,3.57,3.57,0,0,0-.35-.11c-4-.82-7,1-7.63,4.1-1.14,5.54,5.41,6.87,6.23,2.9.59-2.85-2.68-3.69-3.44-2.35a.88.88,0,1,1-.25.46c.61-3,6.19-2.26,5.21,2.48-1.19,5.76-10.95,4.31-9.28-3.8.9-4.37,5.23-5.92,9.49-5a12.79,12.79,0,0,1,4.24,1.75,17.72,17.72,0,0,1,3.49,3,15.12,15.12,0,0,1,1.88,2.55,24.35,24.35,0,0,1,1.54,3A11.06,11.06,0,0,1,37.32,84.71Z"/><path d="M74.24,28.42h0L74,28.14a2.18,2.18,0,0,0-.23-.22l-.44-.4-.15-.14c-2-1.47-4.53-1.73-6,.28-2.8,3.71,1.81,6.81,3.8,4.17,1.64-2.17-1-3.87-2-2.52a.5.5,0,1,0,.24-.17c.71-.5,2.17.71,1.18,2-1.37,1.82-4.38-.44-2.47-3,1.08-1.43,3-1.62,4.87-.24a9.09,9.09,0,0,1,3.12,5.48,9.94,9.94,0,0,1,0,1,8.77,8.77,0,0,1-.25,2A9.73,9.73,0,0,1,75,38.08c0,.06-.05.13-.08.19-1.13,2-3,2.6-4.56,1.72-2.77-1.57-.91-4.84,1.08-3.72,1.43.81.57,2.5-.28,2.33a.5.5,0,1,0-.48-.74.5.5,0,0,0,.19.68c1.48.84,3.25-1.79.88-3.13-2.88-1.63-5.88,3-1.83,5.34,2.19,1.24,4.45,0,5.65-2.15a7.27,7.27,0,0,0,.83-2.45,10.13,10.13,0,0,0,0-2.57A8.2,8.2,0,0,0,76,31.84a13.09,13.09,0,0,0-.71-1.78A6.22,6.22,0,0,0,74.24,28.42Z"/><path d="M2.24,28.3h0L2.5,28a2.18,2.18,0,0,1,.23-.22l.44-.4.15-.14c2-1.47,4.53-1.73,6,.28,2.8,3.72-1.81,6.81-3.8,4.17-1.64-2.17,1-3.88,2-2.52A.5.5,0,1,1,7.37,29c-.71-.5-2.17.71-1.18,2,1.37,1.82,4.38-.44,2.47-3-1.08-1.43-3-1.62-4.87-.24A9.09,9.09,0,0,0,.66,33.31a9.94,9.94,0,0,0,0,1,8.72,8.72,0,0,0,.25,2A9.74,9.74,0,0,0,1.49,38c0,.06.05.13.08.19,1.13,2,3,2.6,4.56,1.72C8.91,38.31,7,35,5.06,36.16c-1.43.81-.57,2.5.28,2.33a.5.5,0,1,1,.48-.74.5.5,0,0,1-.19.68c-1.48.84-3.25-1.78-.88-3.13,2.88-1.63,5.88,3,1.83,5.34-2.19,1.24-4.45,0-5.65-2.15A7.29,7.29,0,0,1,.1,36a10.09,10.09,0,0,1,0-2.57,8.2,8.2,0,0,1,.38-1.74,13,13,0,0,1,.71-1.78A6.2,6.2,0,0,1,2.24,28.3Z"/><path d="M43.13,1.17h0l.36.21a2.35,2.35,0,0,1,.3.21l.55.38.19.13c2.12,1.79,3,4.58,1.2,6.75-3.41,4-8-.3-5.56-3.17,2-2.36,4.54.17,3.3,1.64a.55.55,0,1,1,.13-.3c.37-.91-1.33-2.23-2.54-.8-1.67,2,1.58,4.74,3.91,2,1.32-1.55,1-3.76-.95-5.44A10.3,10.3,0,0,0,37.21.68c-.37.06-.74.13-1.11.22a10.16,10.16,0,0,0-2.14.77,11.11,11.11,0,0,0-1.7,1.09l-.19.14c-1.92,1.75-2.13,4-.76,5.47,2.42,2.67,5.58-.2,3.84-2.12-1.25-1.38-2.91,0-2.5.89a.56.56,0,0,1,1-.45.56.56,0,1,1-.83.76C31.49,6,33.94,3.42,36,5.7c2.53,2.78-1.9,7.27-5.45,3.36-1.91-2.11-1.09-4.92,1-6.79A8.11,8.11,0,0,1,34,.74,11.31,11.31,0,0,1,36.88.06a9.63,9.63,0,0,1,2,0A15.36,15.36,0,0,1,41,.39,7.11,7.11,0,0,1,43.13,1.17Z"/><path d="M37.08,95.41c0,.25.44.47,1,.47h0c.55,0,1-.19,1-.44l.36-22.39c0-.25-.44-.46-1-.47h0c-.55,0-1,.19-1,.44Z"/><polygon points="13.92 68.92 38.18 65.48 62.38 69.94 37.92 73.92 13.92 68.92"/><polygon points="13.91 98.19 38.02 93.82 62.38 97.35 38.09 102.26 13.91 98.19"/><path class="cls-1" d="M22.9,70c.16-.14,15.05-3.19,15.05-3.19l15.33,2.75-15.34,3Z"/><circle cx="38.03" cy="40.72" r="30"/><circle class="cls-1" cx="38.14" cy="41.01" r="26.61"/><path d="M13.89,41.1A24.31,24.31,0,0,1,38.2,16.79h0A24.32,24.32,0,0,1,62.52,41.1h0A24.31,24.31,0,0,1,38.2,65.42h0A24.31,24.31,0,0,1,13.89,41.1Zm7.3-17a24,24,0,0,0-7,17h0a24,24,0,0,0,7,17h0a24,24,0,0,0,17,7h0a24,24,0,0,0,17-7h0a24,24,0,0,0,7-17h0a24,24,0,0,0-7-17h0a24,24,0,0,0-17-7h0a24,24,0,0,0-17,7Z"/><path d="M15.86,41.09a22.3,22.3,0,0,1,22.3-22.3h0a22.3,22.3,0,0,1,22.3,22.3h0a22.3,22.3,0,0,1-22.3,22.3h0a22.3,22.3,0,0,1-22.3-22.3Zm6.73-15.57a22,22,0,0,0-6.45,15.57h0a22,22,0,0,0,6.45,15.57h0a22,22,0,0,0,15.57,6.45h0a22,22,0,0,0,15.57-6.45h0a22,22,0,0,0,6.45-15.57h0a22,22,0,0,0-6.45-15.57h0a22,22,0,0,0-15.57-6.45h0a22,22,0,0,0-15.57,6.45Z"/><path d="M38.32,18.91V16.86h-.18v2.06Z"/><path d="M38.13,63.21v2.07h.18V63.2Z"/><path d="M57.68,30.74l1.87-1-.05-.1-1.86,1Z"/><path d="M18.83,51.87l-1.89,1.05L17,53l1.87-1Z"/><path d="M49.32,22l1.07-1.75-.09,0L49.23,22Z"/><path d="M27,60.18,25.82,62l.09,0,1.22-1.86Z"/><path d="M47.32,20.89l.9-1.9-.1,0-.9,1.9Z"/><path d="M29.31,61.35l-.91,1.9.09,0,.9-1.89Z"/><path d="M45.16,20.13l.68-2-.1,0-.69,2Z"/><path d="M31.49,62.16l-.64,2,.1,0,.64-2Z"/><path d="M43.06,19.56l.47-2.06-.11,0-.47,2.05Z"/><path d="M33.58,62.79l-.49,2,.11,0,.49-2Z"/><path d="M40.67,19.06l.22-2h-.15l-.22,2Z"/><path d="M35.9,63.09l-.24,2.12h.11L36,63.11Z"/><path d="M18,32.23l-2-1,0,.1,2,1Z"/><path d="M58.34,50.08l0,.09,1.93.94,0-.1Z"/><path d="M17.14,34.4l-2.07-.68,0,.1,2.07.68Z"/><path d="M59.19,47.64s0,.1,0,.13l2.06.66,0-.1Z"/><path d="M16.54,36.52l-2-.5,0,.11,2,.5Z"/><path d="M59.76,45.56l0,.11,2.18.51,0-.11Z"/><path d="M16.19,38.83l-2-.24v.12l2.06.24S16.19,38.87,16.19,38.83Z"/><path d="M60.12,43.18s0,.06,0,.09,0,0,0,0l2.25.3v-.14Z"/><path d="M60.15,38.93l2.26-.2v-.1l-2.27.2Z"/><path d="M16.19,43.35,14,43.57l.08.13,2.07-.22S16.19,43.39,16.19,43.35Z"/><path d="M59.78,36.64l2.16-.45,0-.1-2.14.45S59.78,36.61,59.78,36.64Z"/><path d="M16.47,45.47l-1.95.43,0,.1,1.94-.43S16.47,45.5,16.47,45.47Z"/><path d="M59.29,34.58l2-.62v-.11l-2.07.64Z"/><path d="M17,47.61l-1.92.62,0,.09L17,47.7Z"/><path d="M17.78,49.81l-1.88.85,0,.1,1.88-.85Z"/><path d="M58.64,32.67l2-.83-.06-.11-2,.85Z"/><path d="M56.46,28.75l1.89-1.27-.06-.09-1.89,1.27Z"/><path d="M20.05,53.79l-1.69,1.13.06.08,1.69-1.13Z"/><path d="M54.86,26.7l1.73-1.5-.07-.08-1.72,1.49Z"/><path d="M53.29,25l1.42-1.63-.07-.07-1.42,1.62Z"/><path d="M21.59,55.68l0,0L19.93,57l.07.07,1.62-1.4Z"/><path d="M23,57.36l-1.37,1.49.07.07,1.36-1.48Z"/><path d="M51.34,23.31l1.34-1.64-.08-.06-1.35,1.65Z"/><path d="M24.87,58.74l-1.22,1.61.08.06L25,58.8Z"/><path d="M36.12,19.08l-.24-2.14h-.12L36,19.1Z"/><path d="M40.49,63.07l.18,2.14h.11l-.18-2.14Z"/><path d="M42.46,62.76l.44,2.12.1,0-.44-2.12Z"/><path d="M33.78,19.43l-.41-2.05-.1,0,.41,2Z"/><path d="M31.55,20.07l-.64-2-.1,0,.65,2Z"/><path d="M44.54,62.25l.66,2.14.1,0-.66-2.14Z"/><path d="M29.51,20.81l-.86-1.9-.1,0,.86,1.9Z"/><path d="M46.71,61.46l.92,2,.1,0-.92-2.05Z"/><path d="M25.39,23l-1.2-1.7-.08.06L25.3,23Z"/><path d="M50.68,59.35l1.26,1.82.09-.06-1.26-1.82Z"/><path d="M23.72,24.42l-1.44-1.64-.09.08,1.44,1.62Z"/><path d="M52.5,57.83l-.09.06,1.44,1.66.09-.06Z"/><path d="M21.88,26.11l-1.56-1.43-.07.07,1.57,1.45Z"/><path d="M54.24,56.23s0,.07-.05.08l1.69,1.49.07-.05Z"/><path d="M20.33,28l-1.61-1.26-.06.08,1.62,1.26Z"/><path d="M55.83,54.39s0,.05-.12,0l1.8,1.36.13,0Z"/><path d="M27.38,21.62,26.46,20l-.08,0,.93,1.62Z"/><path d="M48.73,60.52l1.05,2,.09,0-1-1.94Z"/><path d="M19,30.07,17.21,29l0,.09L19,30.16Z"/><path d="M57.15,52.34l-.06.09,2,1.16.05-.09Z"/><path d="M16,41H14v.18H16C16,41.09,16,41,16,41Z"/><path d="M60.27,41c0,.06,0,.12,0,.18h2.11V41Z"/><circle cx="38.17" cy="41.06" r="1.33"/><ellipse cx="38.19" cy="11.32" rx="3.62" ry="2.7"/><ellipse cx="38.19" cy="15.59" rx="1.19" ry="0.5"/><ellipse cx="38.2" cy="66.54" rx="1.19" ry="0.5"/><ellipse cx="12.69" cy="41.04" rx="0.5" ry="1.19"/><ellipse cx="63.61" cy="41.04" rx="0.5" ry="1.19"/><ellipse cx="60.47" cy="29.06" rx="0.39" ry="1.19" transform="translate(-6.62 28.71) rotate(-25.37)"/><ellipse cx="50.99" cy="19.21" rx="0.39" ry="1.19" transform="translate(8 52.69) rotate(-58.56)"/><ellipse cx="16.06" cy="53.63" rx="0.39" ry="1.19" transform="translate(-21.41 12.04) rotate(-25.34)"/><ellipse cx="16.17" cy="28.33" rx="1.19" ry="0.39" transform="translate(-16.44 27.57) rotate(-58.95)"/><ellipse cx="25.92" cy="18.88" rx="1.19" ry="0.39" transform="translate(-5.86 14.6) rotate(-28.41)"/><ellipse cx="60.09" cy="54.1" rx="1.19" ry="0.39" transform="translate(-17.23 77.74) rotate(-59)"/><ellipse cx="50.04" cy="63.58" rx="1.19" ry="0.39" transform="translate(-24.21 31.43) rotate(-28.39)"/><ellipse cx="25.37" cy="63.03" rx="0.39" ry="1.19" transform="translate(-41.64 51.83) rotate(-58.59)"/><path class="cls-2" d="M37.64,44.08c-.16,0-.27-.13-.25-.21l1.42-6.35c0-.08.16-.12.32-.09h0c.16,0,.27.13.25.21L38,44c0,.08-.16.12-.32.09Z"/><path class="cls-2" d="M41.82,25.39c-.16,0-.28-.09-.27-.12l.53-2.35s.14,0,.29,0h0c.16,0,.28.09.27.12l-.53,2.35s-.14,0-.3,0Z"/><polygon points="41.26 22.72 43.39 18.33 43.44 23.21 41.26 22.72"/><polygon class="cls-1" points="41.9 22.78 43.21 19.05 42.8 22.98 41.9 22.78"/><path d="M41.69,30.42h0a.65.65,0,0,0,0-.1.38.38,0,0,0,0-.08l-.06-.16,0-.05A1.16,1.16,0,0,0,40,29.35c-1.17.59-.38,1.95.45,1.52s.22-1.11-.21-.89a.14.14,0,1,0,.13.25.14.14,0,0,0,0-.26c.24,0,.46.45,0,.66-.57.29-1.06-.65-.26-1.06a.93.93,0,0,1,1.26.54,2.56,2.56,0,0,1,.11,1.77c0,.08-.07.17-.12.26a2.5,2.5,0,0,1-.31.47,2.64,2.64,0,0,1-.36.35l0,0a.93.93,0,0,1-1.37-.13c-.51-.74.37-1.34.73-.81s-.16.7-.36.55a.14.14,0,0,0,.13,0,.14.14,0,1,0-.16-.23.14.14,0,0,0,0,.19c.27.4,1-.05.61-.68s-1.87,0-1.12,1.13a1.17,1.17,0,0,0,1.7.15,2.05,2.05,0,0,0,.51-.52A2.82,2.82,0,0,0,41.6,32a2.23,2.23,0,0,0,.12-.49,3.59,3.59,0,0,0,0-.54A1.78,1.78,0,0,0,41.69,30.42Z"/><path d="M38.68,33.89h0l.07-.07.07-.06.13-.11,0,0a1.16,1.16,0,0,1,1.69.2c.72,1.1-.64,1.88-1.15,1.1s.36-1.07.62-.67a.14.14,0,0,1,0,.19.14.14,0,0,1-.19,0,.14.14,0,0,1,0-.19.14.14,0,0,1,.13,0c-.19-.15-.62.16-.37.54.35.54,1.24,0,.75-.79a.93.93,0,0,0-1.36-.16,2.57,2.57,0,0,0-1,1.48c0,.09,0,.19,0,.28a2.38,2.38,0,0,0,0,.57,2.68,2.68,0,0,0,.14.48l0,.05a.93.93,0,0,0,1.25.57c.81-.39.35-1.34-.23-1.07-.42.2-.21.69,0,.66a.14.14,0,0,1-.11-.08.14.14,0,0,1,.07-.19.14.14,0,0,1,.12.25c-.43.21-.88-.56-.19-.9s1.59,1,.41,1.54a1.17,1.17,0,0,1-1.54-.72,2,2,0,0,1-.18-.7,2.78,2.78,0,0,1,0-.73,2.29,2.29,0,0,1,.14-.48,3.37,3.37,0,0,1,.23-.49A1.73,1.73,0,0,1,38.68,33.89Z"/><path d="M40.44,25.84h0l.08-.07.07-.06.13-.11,0,0a1.17,1.17,0,0,1,1.69.2c.71,1.1-.64,1.88-1.15,1.1s.36-1.07.62-.67a.14.14,0,0,1,0,.19.14.14,0,0,1-.15-.23.13.13,0,0,1,.13,0c-.19-.15-.62.16-.37.54.35.54,1.24,0,.75-.79a.93.93,0,0,0-1.36-.16,2.56,2.56,0,0,0-1,1.48c0,.09,0,.19,0,.28a2.6,2.6,0,0,0,0,.57,2.92,2.92,0,0,0,.14.48l0,.05a.93.93,0,0,0,1.25.57c.81-.39.35-1.34-.23-1.07-.42.2-.21.69,0,.66a.13.13,0,0,1-.1-.08.14.14,0,1,1,.19.07c-.43.21-.88-.56-.18-.9s1.59,1,.41,1.54a1.17,1.17,0,0,1-1.55-.72,2.06,2.06,0,0,1-.19-.7,3,3,0,0,1,0-.73,2.42,2.42,0,0,1,.14-.48,3.84,3.84,0,0,1,.23-.49A1.73,1.73,0,0,1,40.44,25.84Z"/><path class="cls-2" d="M35.13,38.87c.09-.13.22-.21.29-.16l5.46,3.54c.07,0,.06.19,0,.33h0c-.09.13-.21.21-.29.16L35.1,39.2c-.07,0-.06-.19,0-.33Z"/><path class="cls-2" d="M47.62,47c.09-.13.18-.23.2-.21l2,1.31s0,.14-.11.27h0c-.09.13-.18.23-.2.21l-2-1.31s0-.14.11-.28Z"/><polygon points="50.32 47.4 53.7 50.91 49.11 49.27 50.32 47.4"/><polygon class="cls-1" points="50.05 47.98 53.09 50.5 49.54 48.76 50.05 47.98"/><path d="M43,45.13h.42c.68-.08,1.26-.53,1.18-1.23-.15-1.3-1.69-1-1.59-.11.09.76,1,.59.91.12a.14.14,0,1,0-.28,0,.14.14,0,0,0,.15.12.15.15,0,0,0,.11-.07c0,.24-.58.28-.64-.18-.07-.64,1-.76,1.08.13.06.5-.3.92-.95,1a2.56,2.56,0,0,1-1.7-.51l-.2-.2a2.48,2.48,0,0,1-.34-.45,2.8,2.8,0,0,1-.2-.46l0-.05A.93.93,0,0,1,41.49,42c.87-.22,1.13.81.51,1-.45.11-.6-.4-.4-.53a.13.13,0,0,0,0,.13.14.14,0,0,0,.17.1.14.14,0,0,0-.07-.27c-.47.12-.32,1,.43.81.9-.23.6-1.77-.67-1.44a1.17,1.17,0,0,0-.73,1.54A2,2,0,0,0,41,44a2.8,2.8,0,0,0,.49.53,2.26,2.26,0,0,0,.42.28,3.69,3.69,0,0,0,.49.22A1.79,1.79,0,0,0,43,45.13Z"/><path d="M47.67,45.55h0l0,.1a.71.71,0,0,1,0,.08l.05.16,0,.05A1.17,1.17,0,0,1,47,47.46c-1.28.29-1.54-1.25-.63-1.46.75-.17.87.71.41.82a.14.14,0,0,1-.17-.11.14.14,0,0,1,.27-.06.13.13,0,0,1,0,.13c.21-.12.07-.64-.38-.54-.63.14-.4,1.18.48,1A.93.93,0,0,0,47.62,46a2.56,2.56,0,0,0-1-1.44l-.25-.12a2.45,2.45,0,0,0-.54-.17,3,3,0,0,0-.5,0h-.06c-.64.06-1,.47-1,1,.08.89,1.14.79,1.08.15,0-.46-.58-.44-.63-.2a.14.14,0,1,1,.14.21.14.14,0,0,1-.15-.13c0-.48.83-.63.9.13.08.93-1.46,1.16-1.58-.15-.07-.71.52-1.14,1.21-1.2a2.06,2.06,0,0,1,.72.07,2.81,2.81,0,0,1,.67.29,2.5,2.5,0,0,1,.4.3,3.8,3.8,0,0,1,.37.39A1.68,1.68,0,0,1,47.67,45.55Z"/><path d="M35.84,22.9v-3h-.49v-.12h1.33l.31,0a1.36,1.36,0,0,0,.4-.11V22.9h.49V23H35.35V22.9Z"/><path d="M47.55,25.62v-3h-.49v-.12h1.33l.31,0a1.39,1.39,0,0,0,.4-.11v3.31h.49v.13H47.06v-.12Z"/><path d="M41.25,21.77h.15a3,3,0,0,1-.16.55,1.3,1.3,0,0,1-.26.42,1.09,1.09,0,0,1-.38.26,1.43,1.43,0,0,1-.53.09,3.17,3.17,0,0,1-.58-.06l-.42-.09a2.54,2.54,0,0,0-.42-.06q-.4,0-.49.21H38a2.14,2.14,0,0,1,.17-.56,1.72,1.72,0,0,1,.25-.39,2,2,0,0,1,.28-.25l.17-.13.22-.15a4.09,4.09,0,0,0,.44-.34A1,1,0,0,0,39.8,21a.79.79,0,0,0,.09-.38,1,1,0,0,0-.16-.6.55.55,0,0,0-.47-.22.61.61,0,0,0-.51.22h.12a.57.57,0,0,1,.39.14.5.5,0,0,1,.16.38.59.59,0,0,1-.64.62.69.69,0,0,1-.5-.18.58.58,0,0,1-.18-.43.78.78,0,0,1,.12-.4,1,1,0,0,1,.47-.35,2.53,2.53,0,0,1,1-.15,4.79,4.79,0,0,1,.56,0,1.82,1.82,0,0,1,.43.1,1.1,1.1,0,0,1,.54.34.79.79,0,0,1,.16.48.87.87,0,0,1-.12.47,1,1,0,0,1-.32.31,1.7,1.7,0,0,1-.39.17l-.54.12-.61.16a2,2,0,0,0-.46.2,1,1,0,0,0-.33.3l.05,0A1.9,1.9,0,0,1,39.78,22h.48l.32,0,.31,0A.32.32,0,0,0,41.25,21.77Z"/><path d="M29.42,26v-3h-.49V22.8h1.33l.31,0a1.35,1.35,0,0,0,.4-.11V26h.49v.13H28.93V26Z"/><path d="M26.62,26v-3h-.49V22.8h1.33l.31,0a1.35,1.35,0,0,0,.4-.11V26h.49v.13H26.13V26Z"/><path d="M57.3,32.22h.15a2.87,2.87,0,0,1-.16.55,1.28,1.28,0,0,1-.26.42,1.11,1.11,0,0,1-.38.26,1.44,1.44,0,0,1-.53.09,3.1,3.1,0,0,1-.58-.06l-.42-.09a2.49,2.49,0,0,0-.41-.07q-.4,0-.49.21h-.14a2.14,2.14,0,0,1,.17-.56,1.69,1.69,0,0,1,.25-.39,1.86,1.86,0,0,1,.28-.25l.16-.13.22-.15a4.14,4.14,0,0,0,.44-.34,1,1,0,0,0,.24-.32.8.8,0,0,0,.09-.38,1,1,0,0,0-.17-.6.55.55,0,0,0-.47-.22.61.61,0,0,0-.51.22h.12a.57.57,0,0,1,.39.14.49.49,0,0,1,.16.38.59.59,0,0,1-.64.62.68.68,0,0,1-.5-.18.58.58,0,0,1-.18-.43.77.77,0,0,1,.12-.4,1,1,0,0,1,.47-.35,2.54,2.54,0,0,1,1-.15,4.8,4.8,0,0,1,.56,0,1.84,1.84,0,0,1,.43.1,1.1,1.1,0,0,1,.54.34.78.78,0,0,1,.16.48.86.86,0,0,1-.12.47,1,1,0,0,1-.32.31,1.61,1.61,0,0,1-.39.17l-.54.13-.61.16a2.1,2.1,0,0,0-.46.2,1,1,0,0,0-.33.31l.05,0a1.9,1.9,0,0,1,1.18-.36h.48l.32,0,.31,0A.32.32,0,0,0,57.3,32.22Z"/><path d="M58.43,41.1v0a1.56,1.56,0,0,1,.58.11,1,1,0,0,1,.44.32.77.77,0,0,1,.16.48.72.72,0,0,1-.51.71,3.71,3.71,0,0,1-1.32.2,3,3,0,0,1-.75-.08,1.43,1.43,0,0,1-.49-.21.8.8,0,0,1-.24-.27.76.76,0,0,1,0-.16.48.48,0,0,1,0-.12.74.74,0,0,1,.07-.31.6.6,0,0,1,.23-.25.74.74,0,0,1,.4-.1.72.72,0,0,1,.49.16.51.51,0,0,1,.19.41.49.49,0,0,1-.18.41.75.75,0,0,1-.45.13.71.71,0,0,0,1.08,0,1.46,1.46,0,0,0,.13-.66v-.28c0-.29-.12-.44-.36-.44h-.18l-.1,0h-.09c-.08,0-.12,0-.12-.09s0-.08.12-.08h.09l.1,0h.18c.24,0,.36-.15.36-.44v-.34a1.14,1.14,0,0,0-.1-.5c-.07-.14-.22-.21-.45-.21a.62.62,0,0,0-.42.13.49.49,0,0,1,.43.53.5.5,0,0,1-.17.4.77.77,0,0,1-.48.14.64.64,0,0,1-.47-.17.54.54,0,0,1-.18-.41.59.59,0,0,1,.12-.34.89.89,0,0,1,.46-.29,3,3,0,0,1,1-.12,4.06,4.06,0,0,1,.76.06,1.32,1.32,0,0,1,.58.25.63.63,0,0,1,.23.52Q59.45,41,58.43,41.1Z"/><path d="M54.68,52.27v-.76H53.11v-.12L55.21,49h1v2.35h.46v.13h-.46v.76h.46v.13H54.22v-.12Zm0-2.43-1.38,1.55h1.38Z"/><path d="M46.51,58.17h-.16l.21-1.8a4.16,4.16,0,0,0,1.14.15,6.29,6.29,0,0,0,.71,0l.39-.07a1.33,1.33,0,0,1,.29,0,.06.06,0,0,1,.06.06.62.62,0,0,1-.09.28,1.09,1.09,0,0,1-.13.16l-.19.16a1.92,1.92,0,0,1-.6.26,3.61,3.61,0,0,1-1,.11h-.58l-.08.64a2.32,2.32,0,0,1,1.19-.3,2.87,2.87,0,0,1,.94.14A1.53,1.53,0,0,1,49,58a1.05,1.05,0,0,1,.25.22.91.91,0,0,1,.2.57.84.84,0,0,1-.23.63,1.32,1.32,0,0,1-.64.33,4.36,4.36,0,0,1-1,.09,2.92,2.92,0,0,1-.94-.12,1.45,1.45,0,0,1-.29-.14.57.57,0,0,1-.18-.16.64.64,0,0,1-.13-.36.67.67,0,0,1,.18-.48.73.73,0,0,1,.51-.18,1.08,1.08,0,0,1,.44.11.45.45,0,0,1,.24.46.49.49,0,0,1-.18.41.73.73,0,0,1-.46.14.41.41,0,0,0,.24.17,1.33,1.33,0,0,0,.3,0,.64.64,0,0,0,.44-.13A.59.59,0,0,0,48,59.3a1.38,1.38,0,0,0,0-.19,1.69,1.69,0,0,0,0-.21v-.14a.74.74,0,0,0-.24-.65.86.86,0,0,0-.51-.16A1.25,1.25,0,0,0,46.51,58.17Z"/><path d="M37.93,59.77v.84a2.09,2.09,0,0,1,.83-.18,1.46,1.46,0,0,1,.57.1.88.88,0,0,1,.39.32.91.91,0,0,1,.15.53.82.82,0,0,1-.26.65,1.4,1.4,0,0,1-.65.31,3.34,3.34,0,0,1-.71.08,1.66,1.66,0,0,1-1.16-.35,1.61,1.61,0,0,1-.5-.75c0-.13-.05-.25-.07-.36a1.93,1.93,0,0,1,0-.29,2,2,0,0,1,.18-.87,1.42,1.42,0,0,1,.59-.64,2.06,2.06,0,0,1,1.06-.24,2.54,2.54,0,0,1,.86.11.86.86,0,0,1,.4.27.53.53,0,0,1,0,.69.59.59,0,0,1-.46.17.81.81,0,0,1-.47-.12.38.38,0,0,1-.17-.33.54.54,0,0,1,.12-.36.42.42,0,0,1,.35-.16.64.64,0,0,0-.42-.12.53.53,0,0,0-.38.12.52.52,0,0,0-.15.27A1.57,1.57,0,0,0,37.93,59.77ZM38.45,62V61c0-.19-.09-.29-.26-.29s-.25.1-.25.29V62c0,.19.08.29.25.29S38.45,62.2,38.45,62Z"/><path d="M26.6,56.29h.13l0,.15c0,.12,0,.18.1.18a.4.4,0,0,0,.19-.1,1.33,1.33,0,0,1,.31-.16l.2,0h.26a1.61,1.61,0,0,1,.36,0l.37.1.35.09a1.14,1.14,0,0,0,.28,0,.73.73,0,0,0,.39-.08.48.48,0,0,0,.17-.17h.15a6,6,0,0,0-.48.76,4.8,4.8,0,0,0-.28.64L29,58a1.72,1.72,0,0,0,0,.25,3.41,3.41,0,0,0,0,.47,2.32,2.32,0,0,1-.05.54.71.71,0,0,1-.22.4.73.73,0,0,1-.52.16,1.17,1.17,0,0,1-.44-.08.66.66,0,0,1-.31-.23.62.62,0,0,1-.11-.37.85.85,0,0,1,.14-.47,1.79,1.79,0,0,1,.3-.36l.45-.37.42-.33.23-.21.07-.07.1-.13,0,0a1.54,1.54,0,0,1-.83.22h-.2l-.22,0-.2-.05-.27-.06-.2,0c-.3,0-.44.17-.44.5h-.13Z"/><path d="M20.64,50.37v0c-.68-.09-1-.36-1-.79a.75.75,0,0,1,.11-.38.93.93,0,0,1,.46-.34,3.24,3.24,0,0,1,1.93,0,.91.91,0,0,1,.46.35.78.78,0,0,1,.11.38c0,.43-.34.69-1,.79v0a1.64,1.64,0,0,1,.34,0,1.54,1.54,0,0,1,.3.09.93.93,0,0,1,.23.13,1.17,1.17,0,0,1,.17.18.8.8,0,0,1,.13.44q0,.91-1.69.91t-1.69-.91a.82.82,0,0,1,.11-.41.88.88,0,0,1,.38-.32,1.54,1.54,0,0,1,.32-.11A1.48,1.48,0,0,1,20.64,50.37Zm.77-.37v-.92c0-.19-.09-.29-.25-.29s-.26.1-.26.29V50c0,.19.09.29.26.29S21.41,50.19,21.41,50Zm0,1.75V50.7c0-.19-.09-.29-.25-.29s-.26.09-.26.29v1.05c0,.19.09.29.26.29S21.41,51.94,21.41,51.75Z"/><path d="M18.63,41.93v-.84a2.08,2.08,0,0,1-.83.18,1.61,1.61,0,0,1-.43-.06A1.07,1.07,0,0,1,17,41a.78.78,0,0,1-.24-.3,1,1,0,0,1-.09-.42.82.82,0,0,1,.27-.66,1.36,1.36,0,0,1,.64-.31,3.4,3.4,0,0,1,.71-.08,1.83,1.83,0,0,1,1,.22,2.09,2.09,0,0,1,.32.25,1.15,1.15,0,0,1,.21.29,2,2,0,0,1,.21.56c0,.09,0,.16,0,.23s0,.13,0,.19a2.78,2.78,0,0,1,0,.49,1.66,1.66,0,0,1-.23.55,1.49,1.49,0,0,1-.57.5,2.09,2.09,0,0,1-1,.21,2.16,2.16,0,0,1-1.11-.2.58.58,0,0,1-.31-.48.54.54,0,0,1,.06-.26.5.5,0,0,1,.21-.2.76.76,0,0,1,.37-.08.78.78,0,0,1,.49.14.42.42,0,0,1,.17.34.51.51,0,0,1-.13.35.5.5,0,0,1-.4.15.78.78,0,0,0,.48.12c.24,0,.4-.07.46-.21A1.19,1.19,0,0,0,18.63,41.93Zm-.51-2.25v1.06c0,.19.09.29.25.29s.26-.1.26-.29V39.69c0-.19-.09-.29-.26-.29S18.12,39.5,18.12,39.69Z"/><path d="M20.24,32.69v-3h-.49v-.12h1.32l.31,0a1.33,1.33,0,0,0,.4-.11v3.31h.49v.12H19.75v-.12Z"/><path d="M23.83,29.3l.29,0,.3.07a1.65,1.65,0,0,1,.54.29,1.45,1.45,0,0,1,.41.55,2,2,0,0,1,.16.81,2,2,0,0,1-.15.81,1.6,1.6,0,0,1-.17.3,1.33,1.33,0,0,1-.23.25,1.69,1.69,0,0,1-.55.3,2,2,0,0,1-.58.09,1.78,1.78,0,0,1-.85-.21,1.54,1.54,0,0,1-.61-.6,2.1,2.1,0,0,1,0-1.88,1.53,1.53,0,0,1,.61-.6A1.77,1.77,0,0,1,23.83,29.3Zm-.26.41v2.67c0,.19.09.29.26.29s.25-.1.25-.29V29.71c0-.19-.08-.29-.25-.29S23.57,29.51,23.57,29.71Z"/><path class="cls-2" d="M40.59,38.58c.09.09,0,.31-.14.48L27.2,52.31c-.17.17-.39.24-.48.14h0c-.09-.09,0-.3.14-.48L40.12,38.72c.17-.17.39-.24.48-.14Z"/><circle class="cls-1" cx="38.17" cy="41.05" r="0.74"/><circle cx="38.17" cy="41.06" r="0.36"/></g></g></svg>