<svg xmlns="http://www.w3.org/2000/svg" viewBox="0 0 108.35 70.61"><defs><style>.cls-1{fill:#fff;}</style></defs><title>Ресурс 38clock</title><g id="Слой_2" data-name="Слой 2"><g id="Layer_1" data-name="Layer 1"><path d="M64.74,13.3s-.06-.05-.07-.1a0,0,0,0,1,0,0l1-.76a0,0,0,0,1,0,0s0,0,0,.07-.06,2.6-.07,3.65,0,3,0,3.05.05.11.1.13l.28.07a.16.16,0,0,1,0,.12,0,0,0,0,1,0,0l-.59,0c-.25,0-.48,0-.64,0s0,0,0,0,0-.11,0-.12l.32-.08a.11.11,0,0,0,.07-.12c0-.15,0-2.2,0-2.87s0-2.51,0-3c0-.08,0-.15-.07-.13Z"/><path d="M72.23,27.54h.28a4.69,4.69,0,0,0,1-.15.22.22,0,0,0,.13-.15l.22-.71a0,0,0,0,1,0,0s.07.07.06.11l-.13,1.13c0,.06,0,.08-.06.08s-.44,0-1.06,0h-.82a.11.11,0,0,1-.11-.1.73.73,0,0,1,0-.16.18.18,0,0,1,0-.06,9.38,9.38,0,0,0,1.55-4.74c0-1-.28-1.61-.65-1.61s-.58.41-.74.9c0,0,0,0,0,0a.31.31,0,0,1-.05-.23c.21-.72.61-1.13,1.06-1.13s1,.77,1,1.92a10.25,10.25,0,0,1-1.43,4.5,3.78,3.78,0,0,1-.25.4Z"/><path d="M76.27,35.13l.21,0a1.71,1.71,0,0,1,.91,1.75c0,1.26-.61,2-1.37,2a1,1,0,0,1-.75-.39c0-.07,0-.23,0-.23h0a.75.75,0,0,0,.61.32c.49,0,.92-.56.92-1.63,0-.79-.32-1.69-1.09-1.72,0,0-.05,0-.05-.14s0,0,0,0c.73-.19,1-.91,1-1.75,0-.69-.23-1.24-.63-1.24s-.55.34-.72.82c0,0,0,0,0,0s-.08-.14-.06-.22c.18-.58.55-1,1-1,.63,0,1,.67,1,1.56A2,2,0,0,1,76.46,35a.75.75,0,0,1-.19.1Z"/><path d="M74.88,47.11s0,.13,0,.13l-.57,0c0,.54,0,1.05,0,1.5,0,.1,0,.11.06.13l.22.07s0,.07,0,.12,0,0,0,0a3.24,3.24,0,0,0-.45,0c-.25,0-.42,0-.61,0,0,0,0,0,0,0s0-.1,0-.12l.31-.08s.06,0,.06-.12c0-.43,0-1.07,0-1.48l-1.47,0c-.09,0-.15,0-.19-.18a1.18,1.18,0,0,1,0-.19.45.45,0,0,1,0,0c.48-1.33,1.11-3.2,1.58-4.61.05-.15.11-.2.22-.2a1.61,1.61,0,0,1,.35,0s0,0,0,.06c0,.52-.06,4.51-.07,4.81l.61.06s0,0,0,0Zm-2.27-.27.25,0a9.32,9.32,0,0,0,1,.1c0-.46,0-3.14,0-3.31s0-.77,0-1.14h0l-.17.67c-.29,1.1-.64,2.3-.88,3.1,0,.13-.1.32-.16.48Z"/><path d="M64,57.63a.75.75,0,0,1-.66-.33.27.27,0,0,1,0-.21h0a.72.72,0,0,0,.59.26c.5,0,1-.58,1-1.74s-.57-1.93-1.4-1.85c0,0,0,0,0-.11,0-.54.17-2.7.2-3,0,0,0-.07.05-.07l.7.05.91,0s0,0,0,0,0,.17-.05.17c-.27,0-1,.21-1.32.31-.06,0-.08.06-.09.15-.06.34-.18,1.49-.23,1.94,1.11-.11,1.76.72,1.76,2.2,0,1.26-.58,2.21-1.43,2.21Z"/><path d="M52,57.46a3.08,3.08,0,0,1,.11-.41c.13-.46.4-.94.8-.94.61,0,.92.94.92,2.13,0,1.37-.44,2.51-1.21,2.51s-1.14-.9-1.14-2.59A8.16,8.16,0,0,1,52,54.87a3.13,3.13,0,0,1,1.18-1.48s.1,0,.1.07a.05.05,0,0,1,0,0A3.73,3.73,0,0,0,52.41,55,8.94,8.94,0,0,0,52,57c0,.08,0,.26,0,.44Zm.69,3.1c.43,0,.61-.95.61-2.21,0-1.09-.22-1.86-.56-1.86s-.61.65-.71,1.62a2.39,2.39,0,0,0,0,.27c0,1.34.29,2.18.67,2.18Z"/><path d="M40.23,50.92a1.17,1.17,0,0,1-.28,0,6.18,6.18,0,0,0-1-.14c-.07,0-.11.11-.12.18l-.28,1s0,0,0,0a.11.11,0,0,1-.08-.08l.09-1.27s0-.07.05-.07h.91l1.15,0s0,0,0,0a1,1,0,0,1,.06.3.52.52,0,0,1,0,.16c-.38,1.53-1.16,4.9-1.58,6.5,0,.07-.06.11-.12.11s-.16,0-.15-.1c.37-1.89.79-4.08,1.2-6.1,0-.14.06-.31.1-.46Z"/><path d="M31.62,45.57l.19.09a2,2,0,0,1,.7,1.72c0,1.07-.5,2-1.31,2-.66,0-1.2-.63-1.2-1.75a2.43,2.43,0,0,1,.7-1.84l.19-.12v0l-.16-.11A1.88,1.88,0,0,1,30.16,44c0-1.06.56-1.86,1.17-1.86s1,.69,1,1.67a2.09,2.09,0,0,1-.61,1.6.5.5,0,0,1-.13.09Zm-.34,3.59c.45,0,.72-.74.72-1.68s-.37-1.75-.73-1.75-.73.78-.73,1.84.34,1.6.73,1.6Zm0-3.68c.37,0,.58-.8.58-1.6,0-1-.22-1.52-.58-1.52s-.63.64-.63,1.59.34,1.53.62,1.53Z"/><path d="M29.58,35a4,4,0,0,1-.1.43c-.14.44-.4.79-.79.79-.53,0-.91-.85-.91-2.07s.46-2.43,1.2-2.43,1.11,1,1.11,2.66a7.87,7.87,0,0,1-.59,3.28A2.41,2.41,0,0,1,28.33,39s-.1,0-.1-.08a.05.05,0,0,1,0,0,2.65,2.65,0,0,0,.9-1.32,8.23,8.23,0,0,0,.41-2.08c0-.08,0-.25,0-.45Zm-.67-3.09c-.37,0-.61.89-.61,2.13s.22,1.83.58,1.83.58-.52.67-1.47c0-.07,0-.18,0-.31,0-1.22-.24-2.19-.64-2.19Z"/><path d="M30.22,21.88s-.06,0-.07-.1a0,0,0,0,1,0,0l1-.76s0,0,0,0,0,0,0,.07-.06,2.61-.07,3.65,0,3,0,3.05.05.11.1.13l.28.07a.16.16,0,0,1,0,.12,0,0,0,0,1,0,0L31,28c-.25,0-.48,0-.64,0s0,0,0,0a.17.17,0,0,1,0-.12l.32-.08a.11.11,0,0,0,.07-.12c0-.15,0-2.2,0-2.87s0-2.51,0-3c0-.08,0-.15-.08-.13Z"/><path d="M33.15,28.14c-.71,0-1.08-1.36-1.08-3.23,0-2.28.48-3.94,1.27-3.94s1.07,1.47,1.07,3.29c0,2.11-.36,3.88-1.25,3.88Zm-.55-3.27c0,1.82.23,3.08.64,3.08s.64-1.6.64-3.59c0-1.8-.16-3.2-.6-3.2s-.68,1.55-.68,3.69Z"/><path d="M39,13.28s-.06,0-.07-.1a0,0,0,0,1,0,0l1-.76a0,0,0,0,1,0,0s0,0,0,.07S40,15,40,16.07s0,3,0,3.05.05.11.1.13l.28.07a.16.16,0,0,1,0,.12,0,0,0,0,1,0,0l-.59,0c-.25,0-.48,0-.64,0s0,0,0,0,0-.11,0-.12l.32-.08a.12.12,0,0,0,.07-.12c0-.15,0-2.2,0-2.86s0-2.51,0-3c0-.08,0-.15-.07-.13Z"/><path d="M40.69,13.28s-.06,0-.07-.1a0,0,0,0,1,0,0l1-.76a0,0,0,0,1,0,0s0,0,0,.07-.06,2.6-.07,3.65,0,3,0,3.05.05.11.1.13l.28.07a.16.16,0,0,1,0,.12,0,0,0,0,1,0,0l-.59,0c-.25,0-.48,0-.64,0,0,0,0,0,0,0s0-.11,0-.12l.32-.08a.12.12,0,0,0,.07-.12c0-.15,0-2.2,0-2.86s0-2.51,0-3c0-.08,0-.15-.08-.13Z"/><path d="M50.9,10.43s-.06,0-.07-.09a0,0,0,0,1,0,0l1-.76a0,0,0,0,1,0,0s0,0,0,.07-.06,2.61-.07,3.65,0,3,0,3.05.05.11.1.13l.28.07a.16.16,0,0,1,0,.12,0,0,0,0,1,0,0l-.59,0c-.25,0-.48,0-.64,0s0,0,0,0,0-.1,0-.12l.32-.08a.12.12,0,0,0,.07-.12c0-.15,0-2.2,0-2.87s0-2.51,0-3c0-.08,0-.15-.07-.13Z"/><path d="M53,16.36h.28a4.57,4.57,0,0,0,1-.15.21.21,0,0,0,.13-.15l.22-.71a0,0,0,0,1,0,0s.07.07.06.11l-.13,1.13c0,.06,0,.08-.06.08s-.43,0-1.06,0h-.82a.11.11,0,0,1-.11-.09.75.75,0,0,1,0-.17.16.16,0,0,1,0-.06,9.38,9.38,0,0,0,1.55-4.74c0-1-.28-1.61-.65-1.61s-.58.41-.74.9c0,0,0,0,0,0a.31.31,0,0,1-.05-.24c.21-.72.61-1.12,1.06-1.12s1,.77,1,1.92a10.25,10.25,0,0,1-1.43,4.5,3.85,3.85,0,0,1-.25.4Z"/><path d="M87.23,37.84a1.94,1.94,0,0,1-1.94-1.93V32.58a1.94,1.94,0,0,1,1.94-1.94h0a1.94,1.94,0,0,1,1.93,1.94v3.33a1.94,1.94,0,0,1-1.93,1.93Z"/><path d="M102.13,36.82c-1.07,0-1.94-.61-1.94-1.37V33.09c0-.75.87-1.37,1.94-1.37h0c1.07,0,1.93.61,1.93,1.37v2.36c0,.75-.87,1.37-1.93,1.37Z"/><path d="M92.62,37.94A1.93,1.93,0,0,1,90.69,36V32.67a1.94,1.94,0,0,1,1.94-1.94h0a1.94,1.94,0,0,1,1.93,1.94V36a1.93,1.93,0,0,1-1.93,1.94Z"/><path d="M90.17,37a1.76,1.76,0,0,1-1.94-1.5V32.93a1.76,1.76,0,0,1,1.94-1.5h0a1.76,1.76,0,0,1,1.94,1.5v2.58A1.76,1.76,0,0,1,90.17,37Z"/><path d="M89.2,37.5c-.39,0-.7-.81-.7-1.8V32.59c0-1,.31-1.8.7-1.8h0c.39,0,.7.81.7,1.8V35.7c0,1-.31,1.8-.7,1.8Z"/><path d="M89.25,37.63c-.39,0-.7-.81-.7-1.8V32.71c0-1,.31-1.8.7-1.8h0c.39,0,.7.81.7,1.8v3.11c0,1-.31,1.8-.7,1.8Z"/><path d="M95.53,26.74a2.58,2.58,0,0,1,.71-.25c1-.19,2.68.2,2.68,1.5a7.17,7.17,0,0,1-.82,2.43,11.35,11.35,0,0,0-.69,2.68A9.32,9.32,0,0,0,97.79,37a12.6,12.6,0,0,1,1.05,3.38c0,1.47-1.71,2-3,1.59-1.67-.59-2.35-2.65-2.65-4.22A14.8,14.8,0,0,1,93,34.67C93.12,32,92.66,28.21,95.53,26.74Z"/><ellipse cx="99.87" cy="34.27" rx="3.07" ry="5.93"/><path d="M108.35,34.22c0-7.38-3.3-13.37-7.38-13.37s-7.38,6-7.38,13.37,3.3,13.37,7.38,13.37S108.35,41.6,108.35,34.22Zm-11.21,0c0-5.62,1.08-10.19,4.18-10.19s4.25,4.57,4.25,10.19-1.05,10.44-4.16,10.44S97.14,39.84,97.14,34.22Z"/><path d="M87,35.17A34.62,34.62,0,1,0,52.34,69.8,34.62,34.62,0,0,0,87,35.17Zm-64.1-.81A29.55,29.55,0,1,1,52.41,63.92,29.55,29.55,0,0,1,22.86,34.37Z"/><path d="M16.76,35.29c0,19.47-3.76,35.32-8.38,35.32S0,54.77,0,35.29,3.74,0,8.38,0,16.76,15.82,16.76,35.29Z"/><ellipse cx="17.27" cy="34.99" rx="0.96" ry="5.72"/><path d="M47.94,23.38l.09,0a.42.42,0,0,0,.16-.48h0a.33.33,0,0,0-.18-.18.28.28,0,0,0-.2,0h0a.24.24,0,0,0-.13.31l0,.06a.24.24,0,0,1-.14-.14.33.33,0,0,1,0-.11.57.57,0,0,1,0-.19.64.64,0,0,1,.36-.33h0l.14,0a1,1,0,0,1,1.16.69l.05.15A1.29,1.29,0,0,1,49,24.26c-.13.18-.28.37-.42.57l.58-.14.19-.26a1.65,1.65,0,0,0,.28-1.5l-.06-.17h0a1.41,1.41,0,0,0-1.6-.93l-.22.07,0,0a1,1,0,0,0-.22.14.89.89,0,0,0-.31,1,.68.68,0,0,0,.27.31A.49.49,0,0,0,47.94,23.38Z"/><path d="M50.48,27l.1,0a.67.67,0,0,0-.38-.34.44.44,0,0,0-.17,0,.52.52,0,0,0-.38.16.42.42,0,0,0-.11.28h0a.36.36,0,0,0,.28.37h0a.26.26,0,0,0,.27-.25h0a.23.23,0,0,0-.09-.19.23.23,0,0,1,.15.1.33.33,0,0,1,.08.21v0a.75.75,0,0,1,0,.15.71.71,0,0,1-.38.4,1,1,0,0,1-.42.08h0a1.15,1.15,0,0,1-1-.65,1.54,1.54,0,0,1-.15-.44,1.42,1.42,0,0,1,0-.3,1.29,1.29,0,0,1,0-.26,1.51,1.51,0,0,1,.27-.62h0l0,0-.42-.09a2.06,2.06,0,0,0-.27.7,1.83,1.83,0,0,0,0,.3,2,2,0,0,0,0,.36,1.9,1.9,0,0,0,.21.59,1.53,1.53,0,0,0,1.28.84h0a1.44,1.44,0,0,0,.58-.12,1.09,1.09,0,0,0,.26-.16,1,1,0,0,0,.37-.76.76.76,0,0,0-.06-.32Z"/><path d="M49.06,23.45l.1,0a.67.67,0,0,0-.38-.34.45.45,0,0,0-.17,0,.51.51,0,0,0-.38.15.43.43,0,0,0-.11.28h0a.36.36,0,0,0,.28.37h0a.26.26,0,0,0,.27-.25h0a.22.22,0,0,0-.09-.18.23.23,0,0,1,.15.09.34.34,0,0,1,.08.21v0a.79.79,0,0,1,0,.15.71.71,0,0,1-.38.4,1,1,0,0,1-.41.08h0a1.15,1.15,0,0,1-1-.65,1.57,1.57,0,0,1-.15-.44,1.37,1.37,0,0,1,0-.3,1.27,1.27,0,0,1,0-.26,1.49,1.49,0,0,1,.27-.62h0l0,0-.42-.1a2.09,2.09,0,0,0-.27.7,1.78,1.78,0,0,0,0,.3,2.1,2.1,0,0,0,0,.36,1.84,1.84,0,0,0,.21.59,1.52,1.52,0,0,0,1.28.84h0a1.49,1.49,0,0,0,.58-.12,1.15,1.15,0,0,0,.26-.16,1,1,0,0,0,.37-.76.73.73,0,0,0-.06-.32Z"/><path d="M47.88,21.58l.1,0a.68.68,0,0,0,0-.51.47.47,0,0,0-.09-.15.52.52,0,0,0-.37-.16.42.42,0,0,0-.28.11h0a.36.36,0,0,0-.07.45h0l0,0a.26.26,0,0,0,.36,0h0a.23.23,0,0,0,.07-.19.23.23,0,0,1,0,.18.36.36,0,0,1-.1.2l0,0-.13.08a.72.72,0,0,1-.56,0,1,1,0,0,1-.35-.24h0a1.15,1.15,0,0,1-.19-1.14,1.5,1.5,0,0,1,.21-.42,1.26,1.26,0,0,1,.2-.23,1.3,1.3,0,0,1,.21-.16,1.51,1.51,0,0,1,.64-.23h0l-.22-.37a2.08,2.08,0,0,0-.7.29,1.77,1.77,0,0,0-.24.19,2,2,0,0,0-.24.27,1.91,1.91,0,0,0-.28.55,1.52,1.52,0,0,0,.28,1.5h0a1.44,1.44,0,0,0,.49.34,1.14,1.14,0,0,0,.3.08,1,1,0,0,0,.81-.26.77.77,0,0,0,.19-.26Z"/><path d="M51.28,32.66l.1,0a.68.68,0,0,0,0-.51.48.48,0,0,0-.1-.14.53.53,0,0,0-.38-.14.43.43,0,0,0-.27.13h0a.36.36,0,0,0,0,.46h0l0,0a.26.26,0,0,0,.36,0h0a.23.23,0,0,0,.06-.2.24.24,0,0,1,0,.17.35.35,0,0,1-.09.2l0,0-.13.08a.72.72,0,0,1-.55,0,1,1,0,0,1-.36-.22h0a1.15,1.15,0,0,1-.25-1.13,1.65,1.65,0,0,1,.19-.43,1.36,1.36,0,0,1,.18-.24,1.25,1.25,0,0,1,.2-.17,1.55,1.55,0,0,1,.62-.26h0L50.63,30a2.12,2.12,0,0,0-.68.33,2,2,0,0,0-.23.2,2.21,2.21,0,0,0-.23.28,1.94,1.94,0,0,0-.25.57,1.53,1.53,0,0,0,.36,1.49h0a1.42,1.42,0,0,0,.5.31,1,1,0,0,0,.3.07,1,1,0,0,0,.79-.3.74.74,0,0,0,.18-.27Z"/><path d="M49,28.09l0-.1a.67.67,0,0,1,.36.37.49.49,0,0,1,0,.17.52.52,0,0,1-.14.38.42.42,0,0,1-.28.13h0a.36.36,0,0,1-.38-.26h0v0a.26.26,0,0,1,.23-.28h0a.23.23,0,0,1,.19.08.24.24,0,0,0-.1-.15.35.35,0,0,0-.21-.07h0l-.15,0a.71.71,0,0,0-.38.41,1,1,0,0,0-.06.42h0a1.16,1.16,0,0,0,.7.92,1.58,1.58,0,0,0,.45.13,1.46,1.46,0,0,0,.3,0l.26,0a1.51,1.51,0,0,0,.6-.31h0l0,0c0,.14.07.28.12.41a2,2,0,0,1-.69.31,1.65,1.65,0,0,1-.3,0,1.87,1.87,0,0,1-.36,0,1.91,1.91,0,0,1-.6-.18,1.53,1.53,0,0,1-.91-1.23h0a1.45,1.45,0,0,1,.09-.58,1.14,1.14,0,0,1,.14-.27,1,1,0,0,1,.74-.41.74.74,0,0,1,.32,0Z"/><path d="M48.5,26.18l.07-.08h0l-.07.08a.69.69,0,0,0,.5.14.51.51,0,0,0,.44-.35.41.41,0,0,0,0-.3h0a.36.36,0,0,0-.41-.21h0a.26.26,0,0,0-.13.34h0A.23.23,0,0,0,49,26a.23.23,0,0,1-.18,0,.32.32,0,0,1-.16-.15v0a.73.73,0,0,1,0-.15.71.71,0,0,1,.17-.53,1,1,0,0,1,.34-.25h0a1.16,1.16,0,0,1,1.14.17,1.61,1.61,0,0,1,.33.33,1.39,1.39,0,0,1,.16.26,1.1,1.1,0,0,1,.08.25,1.52,1.52,0,0,1,0,.68h0l0,.1,0,.1h0a5.52,5.52,0,0,1-.64,1.13,1.65,1.65,0,0,0-.22,1.51l.07.17h0a1.41,1.41,0,0,0,1.63.87l.22-.08,0,0a1,1,0,0,0,.22-.15.89.89,0,0,0,.27-1,.69.69,0,0,0-.28-.3.49.49,0,0,0-.46,0l-.09.05a.42.42,0,0,0-.14.49h0a.33.33,0,0,0,.19.17.27.27,0,0,0,.2,0h0a.24.24,0,0,0,.11-.32l0-.06a.24.24,0,0,1,.14.14.31.31,0,0,1,0,.11.55.55,0,0,1,0,.19.64.64,0,0,1-.35.34h0l-.14,0a1,1,0,0,1-1.18-.65l-.06-.15A1.3,1.3,0,0,1,50.51,28a4.51,4.51,0,0,0,.7-1.23,2,2,0,0,0,0-1,2.07,2.07,0,0,0-.1-.29,2,2,0,0,0-.18-.31,1.9,1.9,0,0,0-.44-.44A1.52,1.52,0,0,0,49,24.46h0a1.45,1.45,0,0,0-.47.36,1.11,1.11,0,0,0-.17.26,1,1,0,0,0,0,.85A.8.8,0,0,0,48.5,26.18Z"/><rect x="46.68" y="11.67" width="0.72" height="10.59" transform="translate(-2.89 14.24) rotate(-16.71)"/><polygon points="45.18 12.02 45.04 10.3 45.87 11.81 45.18 12.02"/><rect x="51.59" y="30.1" width="0.72" height="5.83" transform="matrix(0.96, -0.29, 0.29, 0.96, -7.32, 16.41)"/><path d="M64.68,33.26a.56.56,0,0,0,0,.1.42.42,0,0,0,.43.27h0a.35.35,0,0,0,.22-.13.29.29,0,0,0,.05-.2h0a.24.24,0,0,0-.27-.2l-.07,0a.24.24,0,0,1,.17-.1h.11a.53.53,0,0,1,.18.07.64.64,0,0,1,.24.43h0a.74.74,0,0,1,0,.15,1,1,0,0,1-.95,1l-.16,0a1.3,1.3,0,0,1-1.11-.53c-.15-.17-.29-.36-.45-.54q0,.3,0,.59l.21.24a1.65,1.65,0,0,0,1.39.63l.18,0h0a1.41,1.41,0,0,0,1.28-1.33,1,1,0,0,0,0-.23v0a1,1,0,0,0-.08-.25.89.89,0,0,0-.88-.53.67.67,0,0,0-.37.19A.5.5,0,0,0,64.68,33.26Z"/><path d="M60.61,34.88l0,.1A.68.68,0,0,0,61,34.7a.44.44,0,0,0,.07-.16.52.52,0,0,0-.06-.4.43.43,0,0,0-.25-.17h0a.36.36,0,0,0-.42.18h0v0a.26.26,0,0,0,.18.32h0a.23.23,0,0,0,.2,0,.23.23,0,0,1-.13.13.35.35,0,0,1-.22,0h0l-.14-.07a.71.71,0,0,1-.3-.47,1,1,0,0,1,0-.42h0a1.15,1.15,0,0,1,.86-.78,1.62,1.62,0,0,1,.47,0,1.48,1.48,0,0,1,.3,0,1.29,1.29,0,0,1,.24.09,1.51,1.51,0,0,1,.54.41h0l0,0,.19-.39A2,2,0,0,0,62,32.6l-.29-.1a2.3,2.3,0,0,0-.36-.06,1.85,1.85,0,0,0-.62.06,1.53,1.53,0,0,0-1.12,1h0a1.44,1.44,0,0,0,0,.59,1.12,1.12,0,0,0,.09.29,1,1,0,0,0,.65.54.73.73,0,0,0,.32,0Z"/><path d="M64.35,34.33l0,.1a.67.67,0,0,0,.42-.29.48.48,0,0,0,.07-.16.52.52,0,0,0-.06-.4.42.42,0,0,0-.25-.17h0a.36.36,0,0,0-.42.18h0v0a.26.26,0,0,0,.18.32h0a.23.23,0,0,0,.2,0,.22.22,0,0,1-.13.13.33.33,0,0,1-.22,0h0L64,34a.71.71,0,0,1-.3-.47,1,1,0,0,1,0-.42h0a1.16,1.16,0,0,1,.86-.78,1.65,1.65,0,0,1,.47,0,1.27,1.27,0,0,1,.54.13,1.52,1.52,0,0,1,.54.41h0l0,0,.19-.39a2.11,2.11,0,0,0-.62-.43l-.29-.1a2,2,0,0,0-.36-.06,1.83,1.83,0,0,0-.62.06,1.52,1.52,0,0,0-1.12,1h0a1.44,1.44,0,0,0,0,.59,1.11,1.11,0,0,0,.09.29,1,1,0,0,0,.65.54.71.71,0,0,0,.32,0Z"/><path d="M66.44,33.62l-.06.09a.68.68,0,0,0,.5.1.5.5,0,0,0,.16-.05.52.52,0,0,0,.25-.32.42.42,0,0,0,0-.3h0a.36.36,0,0,0-.43-.18h0a.26.26,0,0,0-.11.35h0a.23.23,0,0,0,.17.12.23.23,0,0,1-.18,0,.35.35,0,0,1-.17-.14v0a.74.74,0,0,1,0-.15.71.71,0,0,1,.13-.54,1,1,0,0,1,.32-.28h0a1.15,1.15,0,0,1,1.15.08,1.57,1.57,0,0,1,.35.31,1.25,1.25,0,0,1,.18.25,1.23,1.23,0,0,1,.1.24,1.51,1.51,0,0,1,.07.67h0v0l.41-.13A2.1,2.1,0,0,0,69,33a1.66,1.66,0,0,0-.13-.28,2,2,0,0,0-.21-.3,1.94,1.94,0,0,0-.47-.41A1.53,1.53,0,0,0,66.7,32h0a1.45,1.45,0,0,0-.44.39,1.07,1.07,0,0,0-.15.27,1,1,0,0,0,.06.85.76.76,0,0,0,.21.25Z"/><path d="M54.87,34.31l-.06.09a.68.68,0,0,0,.51.08.48.48,0,0,0,.16-.07.51.51,0,0,0,.23-.34.42.42,0,0,0-.06-.3h0a.36.36,0,0,0-.43-.15h0l0,0a.26.26,0,0,0-.09.35h0a.23.23,0,0,0,.17.11.24.24,0,0,1-.18,0,.34.34,0,0,1-.18-.13v0a.75.75,0,0,1-.05-.15.71.71,0,0,1,.1-.55,1,1,0,0,1,.3-.3h0a1.15,1.15,0,0,1,1.16,0,1.63,1.63,0,0,1,.37.29,1.35,1.35,0,0,1,.19.24,1.28,1.28,0,0,1,.12.24,1.52,1.52,0,0,1,.11.67h0v0l.4-.15a2,2,0,0,0-.3-1,2.06,2.06,0,0,0-.22-.28,1.88,1.88,0,0,0-.5-.38,1.53,1.53,0,0,0-1.53,0h0a1.42,1.42,0,0,0-.42.42,1.09,1.09,0,0,0-.14.28,1,1,0,0,0,.11.84.74.74,0,0,0,.22.23Z"/><path d="M59.85,33.21l.09.06a.67.67,0,0,1-.44.26.49.49,0,0,1-.17,0,.51.51,0,0,1-.34-.22.42.42,0,0,1-.06-.3h0a.36.36,0,0,1,.34-.31h0a.26.26,0,0,1,.22.29h0a.24.24,0,0,1-.12.17.24.24,0,0,0,.17-.06.36.36,0,0,0,.11-.19v0a.68.68,0,0,0,0-.15.71.71,0,0,0-.3-.47A1,1,0,0,0,59,32.1h0a1.16,1.16,0,0,0-1.06.46,1.57,1.57,0,0,0-.23.41,1.42,1.42,0,0,0-.09.29,1.31,1.31,0,0,0,0,.26,1.52,1.52,0,0,0,.16.66h0l0,0h-.43a2.09,2.09,0,0,1-.14-.74,2,2,0,0,1,0-.3,2,2,0,0,1,.1-.35,1.81,1.81,0,0,1,.31-.54,1.52,1.52,0,0,1,1.41-.59h0a1.45,1.45,0,0,1,.55.22,1.2,1.2,0,0,1,.23.2,1,1,0,0,1,.22.82.76.76,0,0,1-.12.3Z"/><path d="M61.82,33.14l.06.09h0l-.06-.09a.68.68,0,0,0-.26.45.51.51,0,0,0,.23.51.42.42,0,0,0,.3.05h0a.36.36,0,0,0,.3-.35h0v0a.26.26,0,0,0-.29-.21h0a.23.23,0,0,0-.16.12A.24.24,0,0,1,62,33.5a.33.33,0,0,1,.19-.12h.18a.71.71,0,0,1,.47.29,1,1,0,0,1,.17.39h0a1.16,1.16,0,0,1-.44,1.07,1.69,1.69,0,0,1-.4.24,1.42,1.42,0,0,1-.29.09l-.26,0a1.54,1.54,0,0,1-.66-.14h0l-.09,0-.09-.05h0a5.44,5.44,0,0,1-.94-.89,1.65,1.65,0,0,0-1.41-.57l-.18,0h0A1.41,1.41,0,0,0,57,35.2a1.07,1.07,0,0,0,0,.23v0a1,1,0,0,0,.09.25.89.89,0,0,0,.9.49.69.69,0,0,0,.36-.2.5.5,0,0,0,.13-.44.5.5,0,0,0,0-.1.41.41,0,0,0-.44-.25h0a.32.32,0,0,0-.21.14.27.27,0,0,0,0,.2h0a.24.24,0,0,0,.28.18l.06,0a.22.22,0,0,1-.16.11h-.11a.54.54,0,0,1-.18-.07.63.63,0,0,1-.25-.42h0a.74.74,0,0,1,0-.15,1,1,0,0,1,.91-1l.16,0a1.3,1.3,0,0,1,1.14.49,4.55,4.55,0,0,0,1,1,2,2,0,0,0,1,.24l.3,0a1.85,1.85,0,0,0,.35-.1,1.88,1.88,0,0,0,.53-.32A1.52,1.52,0,0,0,63.39,34h0a1.43,1.43,0,0,0-.23-.54,1.07,1.07,0,0,0-.21-.23,1,1,0,0,0-.82-.21A.86.86,0,0,0,61.82,33.14Z"/><rect x="65.75" y="33.69" width="6.56" height="0.72" transform="translate(-1.75 3.8) rotate(-3.11)"/><polygon points="72.28 33.52 73.34 33.83 72.32 34.24 72.28 33.52"/><rect x="52.47" y="34.49" width="4.81" height="0.72" transform="translate(-1.79 3) rotate(-3.08)"/><path d="M21.48,35a31,31,0,0,1,31-31h0a31,31,0,0,1,31,31h0a31,31,0,0,1-31,31h0a31,31,0,0,1-31-31ZM30.8,13.27a30.61,30.61,0,0,0-9,21.71h0a30.6,30.6,0,0,0,9,21.71h0a30.59,30.59,0,0,0,21.71,9h0a30.59,30.59,0,0,0,21.71-9h0a30.6,30.6,0,0,0,9-21.71h0a30.61,30.61,0,0,0-9-21.71h0a30.6,30.6,0,0,0-21.71-9h0a30.6,30.6,0,0,0-21.71,9Z"/><circle class="cls-1" cx="52.05" cy="49.98" r="11.4"/><path d="M60.37,44.54s0,0,0,0h0l.34.29h0s0,0,0,0l-.77.35-.65.31s0,0,0,0l0,.1,0,0h0l-.1-.21-.12-.22s0,0,0,0h0l.07.1a0,0,0,0,0,0,0l.6-.3.63-.32s0,0,0,0Z"/><path d="M59.56,46.2c-.12-.25.1-.52.49-.71s.91-.24,1,0-.13.53-.51.71-.88.27-1,0Zm.59-.53c-.38.18-.6.39-.53.54s.44.06.86-.15.64-.38.57-.54-.44-.08-.89.14Z"/><path d="M59.93,53.48l-.06.09a3.62,3.62,0,0,0-.21.34.09.09,0,0,0,0,.07l.08.17s0,0,0,0h0l-.18-.2a0,0,0,0,1,0,0l.25-.33.19-.25a0,0,0,0,1,0,0h0a1.68,1.68,0,0,0,.52,1.15c.19.14.36.14.45,0a.35.35,0,0,0,0-.36,0,0,0,0,1,0,0,.05.05,0,0,1,.06,0,.45.45,0,0,1,0,.49.39.39,0,0,1-.59,0,1.83,1.83,0,0,1-.5-1.08.93.93,0,0,1,0-.14Z"/><path d="M59.11,54.45c.17-.22.51-.15.86.11s.62.7.44.95-.53.13-.86-.13-.64-.66-.43-.93Zm.74.28c-.34-.26-.63-.36-.72-.23s.15.42.52.7.63.4.73.26-.13-.43-.53-.73Z"/><path d="M52.66,59.25h-.08a.4.4,0,0,1-.35-.41.53.53,0,0,1,.83-.37s0,.05,0,.05h0a.38.38,0,0,0-.24-.07.35.35,0,0,0-.36.38.4.4,0,0,0,.43.4s0,0,0,0,0,0,0,0a.4.4,0,0,0-.39.41.26.26,0,0,0,.24.29.34.34,0,0,0,.28-.19h0s0,0,0,.05a.42.42,0,0,1-.38.23.35.35,0,0,1-.38-.36.44.44,0,0,1,.31-.39l.07,0Z"/><path d="M51.6,58.36c.28,0,.42.32.42.75s-.19.92-.5.92-.42-.34-.42-.77.14-.91.49-.91Zm.22.76c0-.42-.09-.71-.25-.71s-.25.37-.25.83.06.75.23.75.27-.37.27-.86Z"/><path d="M44.4,54.5h0l.12.18.31-.17s0,0,0,0l0-.08s0,0,0,0h0l.08.15.13.2a0,0,0,0,1,0,0h0L45,54.64a0,0,0,0,0,0,0l-.29.18.3.49a.08.08,0,0,1,0,.09l0,0h0l-1.24,0a.09.09,0,0,1-.09-.05l-.06-.12s0,0,0,0l1-.55-.11-.21s0,0,0,0Zm.4.79,0-.09-.17-.34-.66.4-.23.13h0l.17,0,.8-.08h.14Z"/><path d="M44.54,53.78c.14.24-.06.53-.43.75s-.89.31-1,0,.08-.54.44-.75.85-.34,1,0Zm-.54.58c.36-.22.57-.45.49-.58s-.45,0-.84.21-.61.43-.52.58.45,0,.88-.21Z"/><path d="M44.52,46.22a.39.39,0,0,1-.19.19s0,0,0,0h0a.36.36,0,0,0,.16-.17.37.37,0,0,0-.18-.52c-.26-.14-.5,0-.64.27,0,0,0,0,0,0l-.59-.4s0,0,0,0l.14-.24.17-.31h0s0,0,0,0-.15.38-.18.49,0,0,0,0l.36.29c.18-.39.47-.52.78-.36a.52.52,0,0,1,.19.73Z"/><path d="M45.08,45.19c-.13.24-.48.22-.86,0s-.72-.6-.58-.87.5-.2.87,0,.73.55.57.85ZM44.31,45c.37.2.67.26.75.12s-.21-.39-.62-.61-.69-.3-.77-.15.19.41.63.64Z"/><path d="M51.29,40.88l0-.1a.36.36,0,0,1,.31-.22c.24,0,.36.22.36.5s-.17.58-.47.58-.44-.21-.44-.6a1.28,1.28,0,0,1,.24-.77,1,1,0,0,1,.46-.34,0,0,0,0,1,0,0h0a1,1,0,0,0-.35.34,1.46,1.46,0,0,0-.17.48s0,.06,0,.1Zm.27.72c.17,0,.24-.22.24-.52s-.08-.43-.22-.43-.24.15-.28.38a.28.28,0,0,0,0,.06c0,.31.11.51.26.51Z"/><path d="M52.6,41.65c-.28,0-.42-.32-.42-.75s.19-.92.5-.92.42.34.42.77-.14.91-.49.91Zm-.22-.76c0,.43.09.72.25.72s.25-.37.25-.84-.06-.75-.23-.75-.27.36-.27.86Z"/><path d="M41.2,50A10.88,10.88,0,0,1,52.08,39.09h0A10.88,10.88,0,0,1,63,50h0A10.88,10.88,0,0,1,52.08,60.85h0A10.88,10.88,0,0,1,41.2,50Zm3.27-7.61A10.74,10.74,0,0,0,41.32,50h0a10.73,10.73,0,0,0,3.15,7.61h0a10.72,10.72,0,0,0,7.61,3.15h0a10.72,10.72,0,0,0,7.61-3.15h0A10.73,10.73,0,0,0,62.84,50h0a10.74,10.74,0,0,0-3.15-7.61h0a10.73,10.73,0,0,0-7.61-3.15h0a10.73,10.73,0,0,0-7.61,3.15Z"/><path d="M52.13,39.76v-.64H52v.64Z"/><path d="M52,60.11v.67h.08v-.68Z"/><path d="M56.7,42.12l.83-1.45-.07,0-.83,1.43Z"/><path d="M47.57,57.81l-.92,1.6.07,0,.92-1.6Z"/><path d="M56.56,40.1l-.07,0-.27.6.07,0Z"/><path d="M47.59,59.81l.08,0,.26-.57-.07,0Z"/><path d="M55.36,39.63l-.08,0-.2.63.08,0Z"/><path d="M48.79,60.27l.08,0,.19-.59-.08,0Z"/><path d="M54.33,39.39h-.08l-.13.62h.08Z"/><path d="M49.8,60.57l.08,0L50,60l-.08,0Z"/><path d="M53.18,39.21H53.1l-.06.64h.08Z"/><path d="M50.94,60.75H51l.06-.64H51Z"/><path d="M42.2,45.47l0,.08.63.28,0-.07Z"/><path d="M42.79,44.43l0,.07.59.35,0-.07Z"/><path d="M61.92,54.45l0-.08-.55-.25,0,.07Z"/><path d="M41.74,46.67l0,.08.65.21,0-.08Z"/><path d="M62.38,53.25l0-.08L61.83,53l0,.08Z"/><path d="M41.5,47.7l0,.08.64.13,0-.08Z"/><path d="M62.68,52.24l0-.08L62.08,52l0,.08Z"/><path d="M41.32,48.85v.08L42,49v-.08Z"/><path d="M62.89,51.09V51l-.66-.07s0,.06,0,.08Z"/><path d="M62.88,49.09V49l-.64.05s0,.06,0,.08Z"/><path d="M41.3,50.92V51l.65-.06s0-.06,0-.08Z"/><path d="M62.7,47.81l0-.08-.62.13,0,.08Z"/><path d="M41.48,52.19l0,.08.64-.14,0-.08Z"/><path d="M62.47,46.79l0-.08-.63.2,0,.08Z"/><path d="M41.78,53.21l0,.08.59-.19,0-.08Z"/><path d="M42.18,54.3l0,.08.58-.25,0-.08Z"/><path d="M42.61,55.2l0,.07.56-.29,0-.07Z"/><path d="M62.06,45.7l0-.08-.61.26,0,.08Z"/><path d="M61.09,43.91l0-.07-.55.38,0,.07Z"/><path d="M61.55,44.85l0-.08-.59.32,0,.07Z"/><path d="M43.15,56l0,.07.51-.35,0-.06Z"/><path d="M60.31,42.88l-.05-.06-.51.45.06.06Z"/><path d="M59.47,42.07,59.41,42l-.43.48.06.05Z"/><path d="M43.9,57.07l.05.06.49-.43-.06-.06Z"/><path d="M44.69,57.81l.06.06.41-.43-.06-.06Z"/><path d="M58.7,41.38l-.07,0-.4.53.07,0Z"/><path d="M45.57,58.56l.07,0,.36-.48-.07,0Z"/><path d="M51.23,39.19h-.08l.05.65h.08Z"/><path d="M52.87,60.79H53l-.05-.65h-.08Z"/><path d="M54.15,60.61l.08,0L54.1,60H54Z"/><path d="M50,39.36l-.08,0L50,40h.08Z"/><path d="M48.93,39.65l-.08,0,.18.6.08,0Z"/><path d="M55.17,60.39l.08,0-.19-.63-.08,0Z"/><path d="M47.84,40l-.08,0,.25.58.07,0Z"/><path d="M56.27,60l.08,0-.26-.6-.08,0Z"/><path d="M46,41.06l-.07,0,.36.52.07-.05Z"/><path d="M58.2,59l.07,0-.37-.54-.07.05Z"/><path d="M44.93,41.84l-.06.06.44.5.06-.05Z"/><path d="M59.21,58.16l.06-.05-.44-.5-.06.06Z"/><path d="M44.16,42.56l-.06.06.5.47.05-.06Z"/><path d="M60,57.45l.06-.06-.49-.46-.06.06Z"/><path d="M43.47,43.5l0,.07.49.37,0-.07Z"/><path d="M60.72,56.56l0-.06-.53-.4,0,.06Z"/><path d="M61.29,55.63l0-.06-.53-.4,0,.06Z"/><path d="M47.75,42l-.81-1.51-.07,0L47.68,42Z"/><path d="M56.23,58l.86,1.6.07,0L56.31,58Z"/><path d="M42.93,49.91h-1.7V50h1.7S42.93,49.94,42.93,49.91Z"/><path d="M61.13,49.91s0,.06,0,.08H62.9v-.08Z"/><circle cx="49.5" cy="51.7" r="0.33"/><circle cx="52.07" cy="49.95" r="0.59"/><rect x="48.84" y="48.62" width="10.08" height="0.29" transform="translate(-18.02 38.18) rotate(-33.77)"/><polygon points="57.98 45.87 59.39 45.1 58.14 46.1 57.98 45.87"/><path d="M40.58,50A11.49,11.49,0,0,1,52.07,38.48h0A11.49,11.49,0,0,1,63.56,50h0A11.49,11.49,0,0,1,52.07,61.45h0A11.49,11.49,0,0,1,40.58,50Zm3.45-8a11.34,11.34,0,0,0-3.33,8h0A11.33,11.33,0,0,0,44,58h0a11.33,11.33,0,0,0,8,3.33h0a11.33,11.33,0,0,0,8-3.33h0a11.32,11.32,0,0,0,3.33-8h0a11.33,11.33,0,0,0-3.33-8h0a11.33,11.33,0,0,0-8-3.33h0a11.34,11.34,0,0,0-8,3.33Z"/><path d="M63.32,11.17l2-4.37-.21-.1-2,4.38Z"/><path d="M41.78,58.41,39.7,63l.21.1L42,58.52Z"/><path d="M60.39,10.18l1.48-4.7-.22-.07-1.48,4.71Z"/><path d="M44.63,59.56l-1.5,4.79.22.07,1.5-4.77Z"/><path d="M57.94,9.47l1-4.68-.23,0-1,4.67Z"/><path d="M55.17,9l.48-4.76-.23,0L54.94,9Z"/><path d="M29,24.2l-4.61-2.08-.1.21,4.61,2.08Z"/><path d="M76.06,45.45l-.11.21,4.61,2.08.1-.21Z"/><path d="M27.91,27.08,23,25.55l-.07.22,4.87,1.53Z"/><path d="M77.19,42.61c0,.08,0,.21,0,.29l4.69,1.42.07-.22Z"/><path d="M27.17,29.51l-4.84-1,0,.23,4.81,1Z"/><path d="M77.81,40.17l-.07.22,5,1.05,0-.23Z"/><path d="M26.69,32.25l-4.88-.49,0,.23,4.9.49C26.69,32.41,26.69,32.33,26.69,32.25Z"/><path d="M78.22,37.42c0,.05,0,.1,0,.15v.09l5.12.51,0-.23Z"/><path d="M78.24,32.89l5.08-.45,0-.23-5.1.45C78.21,32.73,78.23,32.81,78.24,32.89Z"/><path d="M26.79,37.22l-5,.45,0,.23,5-.45C26.81,37.38,26.8,37.3,26.79,37.22Z"/><path d="M77.81,29.85l5-1,0-.23-4.94,1C77.81,29.69,77.81,29.77,77.81,29.85Z"/><path d="M27.17,40.27l-4.88,1,0,.23,4.86-1C27.19,40.43,27.18,40.35,27.17,40.27Z"/><path d="M77.31,27.4l4.82-1.52-.07-.23-4.84,1.52Z"/><path d="M27.9,42.7l-4.76,1.5.07.22L28,42.91Z"/><path d="M28.72,45.37,24.28,47.3l.09.22,4.45-1.94Z"/><path d="M76.31,24.82l4.67-2-.09-.22-4.63,2Z"/><path d="M74.2,20.4l4-2.73-.13-.19-4,2.74Z"/><path d="M31,49.6,27,52.28l.13.2,3.94-2.69Z"/><path d="M72.25,18,76,14.75l-.15-.18-3.7,3.23Z"/><path d="M70.27,16.09l3.32-3.67-.17-.16-3.29,3.64Z"/><path d="M33.11,52l-.1-.11-3.81,3.33.15.18,3.82-3.33Z"/><path d="M34.83,53.7l-3.41,3.62.17.16L35,53.89Z"/><path d="M68.4,14.4l3-3.92-.19-.14-3,4Z"/><path d="M36.84,55.64l-2.9,3.83.19.14L37,55.77Z"/><path d="M50.46,9.08l-.39-4.87-.23,0,.39,4.89Z"/><path d="M47.38,9.38l-.94-4.67-.23,0,.94,4.66Z"/><path d="M44.9,10,43.52,5.52l-.22.07,1.39,4.54Z"/><path d="M59.83,59.76l1.5,4.92.22-.07-1.5-4.92Z"/><path d="M42.27,11,40.41,6.65l-.22.09,1.86,4.37Z"/><path d="M62.41,58.8l2,4.75.22-.09-2-4.77Z"/><path d="M37.85,13.55l-2.74-4-.19.13,2.74,4Z"/><path d="M67.1,56.44l2.85,4.14.19-.13-2.85-4.13Z"/><path d="M35.41,15.51l-3.28-3.73-.18.16,3.28,3.73Z"/><path d="M69.68,54.38l-.2.13,3.36,3.82.18-.16Z"/><path d="M33.55,17.22l-3.61-3.38-.16.17,3.65,3.41Z"/><path d="M71.37,52.59c0,.07-.07.17-.12.23L75,56.3l.16-.17Z"/><path d="M31.81,19.4,28,16.5l-.14.19,3.87,2.91Z"/><path d="M73.14,50.47l-.15.19,4.15,3.12.14-.19Z"/><circle cx="52.46" cy="34.92" r="1.7"/><path class="cls-1" d="M52.3,3.85A30.75,30.75,0,1,0,83.05,34.6,30.75,30.75,0,0,0,52.3,3.85ZM31.65,14A29.2,29.2,0,1,1,23.09,34.6,29.11,29.11,0,0,1,31.65,14Z"/><circle cx="27.68" cy="20.18" r="0.7"/><circle cx="23.34" cy="35.08" r="0.7"/><circle cx="27.22" cy="49.24" r="0.7"/><circle cx="37.3" cy="60.12" r="0.7"/><circle cx="38.24" cy="9.51" r="0.7"/><circle cx="52.57" cy="5.48" r="0.7"/><circle cx="67.41" cy="9.93" r="0.7"/><circle cx="78.08" cy="20.7" r="0.7"/><circle cx="81.99" cy="35.08" r="0.7"/><circle cx="77.66" cy="49.98" r="0.7"/><circle cx="66.37" cy="60.64" r="0.7"/><ellipse class="cls-1" cx="2.7" cy="35.34" rx="1.25" ry="8.78"/></g></g></svg>