<svg xmlns="http://www.w3.org/2000/svg" viewBox="0 0 91.87 217.29"><defs><style>.cls-1{fill:#fff;}</style></defs><title>Ресурс 17clock</title><g id="Слой_2" data-name="Слой 2"><g id="Layer_1" data-name="Layer 1"><circle cx="36.84" cy="91.27" r="1.4"/><path d="M91.87,34.94h-.08l-14.49-3-.89,1.5h-.87a1.85,1.85,0,0,0-3.19,0H3.65a2,2,0,0,0-1.6-.92A2.27,2.27,0,0,0,0,34.93a2.27,2.27,0,0,0,2.06,2.44,2,2,0,0,0,1.6-.92h68.7a1.84,1.84,0,0,0,3.19,0h.84L77.31,38l14.49-3h.08Z"/><path d="M47.65,42.26C46.17,37.4,40.81,34,36.17,36.12c-3,1.34-5.51,4-7.81,7.12a16,16,0,0,1-5.78,4.54c-4.22,1.81-8,.51-9.45-2.79-2.61-5.84,4.33-8.79,6.2-4.6,1.35,3-2.07,4.67-3.24,3.36a1,1,0,0,0,.93.07,1,1,0,0,0,.51-1.3A1,1,0,0,0,16.2,42a1,1,0,0,0-.51,1.31c1.4,3.12,7.41,1.09,5.17-3.91-2.72-6.08-13.19-2.27-9.37,6.28,2.06,4.61,7.24,5.35,11.74,3.42a13.2,13.2,0,0,0,2-1.1c-4.52,7.47-8.67,16.07-15,19.6a.56.56,0,0,1,0,.11,10.17,10.17,0,0,1,.16,2.42c12.44-5.54,17.06-28.49,26.42-32.66,4-1.78,8.58,1.09,9.85,5.27a6.32,6.32,0,0,1-4.21,7.88,5.05,5.05,0,0,1-6.3-3.37,4,4,0,0,1,2.7-5,3.23,3.23,0,0,1,4,2.16,2.58,2.58,0,0,1-1.72,3.23,2.07,2.07,0,0,1-2.58-1.38s0-.06,0-.09a1.59,1.59,0,0,0,1.33.75,1.61,1.61,0,0,0,0-3.23,1.59,1.59,0,0,0-1.53,1.18,1.9,1.9,0,0,0-.17,1.5,2.42,2.42,0,0,0,3,1.61,3,3,0,0,0,2-3.76,3.77,3.77,0,0,0-4.71-2.52,4.72,4.72,0,0,0-3.14,5.88,5.89,5.89,0,0,0,7.35,3.93A7.37,7.37,0,0,0,47.65,42.26Z"/><path d="M63.7,77.34c5.07-.41,9.48-4.94,8.44-9.92-.67-3.22-2.69-6.22-5.3-9.14a16,16,0,0,1-3.21-6.61c-.87-4.51,1.2-7.91,4.73-8.65,6.27-1.31,7.67,6.1,3.18,7-3.23.68-4.12-3-2.6-3.88a1,1,0,0,0-.27.89,1,1,0,0,0,1.16.77,1,1,0,0,0,.79-1.18,1,1,0,0,0-1.17-.77c-3.35.7-2.64,7,2.72,5.88,6.52-1.36,5-12.4-4.14-10.48-4.95,1-6.76,5.93-5.84,10.75a13.14,13.14,0,0,0,.65,2.19c-6.33-6-13.86-11.89-16-18.85h-.11A10.15,10.15,0,0,1,44.39,35C47.16,48.37,68.6,57.76,70.69,67.8c.89,4.27-2.89,8.15-7.24,8.5a6.32,6.32,0,0,1-6.8-5.79,5.05,5.05,0,0,1,4.63-5.44,4,4,0,0,1,4.35,3.71,3.24,3.24,0,0,1-3,3.48,2.59,2.59,0,0,1-2.79-2.37,2.06,2.06,0,0,1,1.9-2.23h.09a1.59,1.59,0,0,0-1,1.14,1.61,1.61,0,1,0,2.32-1.06,1.92,1.92,0,0,0-1.43-.49,2.42,2.42,0,0,0-2.21,2.6,3,3,0,0,0,3.25,2.77,3.77,3.77,0,0,0,3.46-4.06,4.71,4.71,0,0,0-5.08-4.32,5.89,5.89,0,0,0-5.4,6.35A7.37,7.37,0,0,0,63.7,77.34Z"/><path d="M11.73,21.25a2.43,2.43,0,0,0-.91-1.89v-1l1.54-1.09L9.32.09v0l-3,17.19,1.5,1.06v1a2.41,2.41,0,0,0,0,3.78V74.89H6.82v142.4h4.9V74.89h-.9V23.14A2.42,2.42,0,0,0,11.73,21.25Z"/><path d="M17.58,70.73A19.37,19.37,0,0,1,36.95,51.37h0A19.37,19.37,0,0,1,56.32,70.73h0A19.37,19.37,0,0,1,36.95,90.1h0A19.37,19.37,0,0,1,17.58,70.73Zm1.67,0a17.72,17.72,0,0,0,17.7,17.7h0a17.72,17.72,0,0,0,17.7-17.7h0A17.73,17.73,0,0,0,36.95,53h0a17.72,17.72,0,0,0-17.7,17.7Z"/><circle class="cls-1" cx="36.89" cy="70.85" r="16.38"/><path d="M22.3,70.78a14.6,14.6,0,0,1,14.6-14.6h0a14.6,14.6,0,0,1,14.6,14.6h0a14.6,14.6,0,0,1-14.6,14.6h0a14.6,14.6,0,0,1-14.6-14.6Zm4.4-10.2a14.37,14.37,0,0,0-4.23,10.2h0A14.37,14.37,0,0,0,26.7,81h0a14.38,14.38,0,0,0,10.2,4.23h0A14.4,14.4,0,0,0,47.11,81h0a14.39,14.39,0,0,0,4.23-10.2h0a14.39,14.39,0,0,0-4.23-10.2h0a14.39,14.39,0,0,0-10.2-4.23h0a14.38,14.38,0,0,0-10.2,4.23Z"/><path d="M20.36,70.87A16.51,16.51,0,0,1,36.87,54.36h0A16.51,16.51,0,0,1,53.39,70.87h0A16.52,16.52,0,0,1,36.87,87.39h0A16.51,16.51,0,0,1,20.36,70.87Zm5-11.56a16.29,16.29,0,0,0-4.79,11.56h0a16.29,16.29,0,0,0,4.79,11.56h0a16.29,16.29,0,0,0,11.56,4.78h0a16.29,16.29,0,0,0,11.55-4.78h0a16.3,16.3,0,0,0,4.79-11.56h0a16.29,16.29,0,0,0-4.79-11.56h0a16.28,16.28,0,0,0-11.55-4.79h0a16.29,16.29,0,0,0-11.56,4.79Z"/><path d="M23,70.83A13.91,13.91,0,0,1,36.87,56.93h0A13.91,13.91,0,0,1,50.78,70.83h0A13.91,13.91,0,0,1,36.87,84.74h0A13.91,13.91,0,0,1,23,70.83Zm4.2-9.71a13.68,13.68,0,0,0-4,9.71h0a13.68,13.68,0,0,0,4,9.71h0a13.68,13.68,0,0,0,9.71,4h0a13.69,13.69,0,0,0,9.71-4h0a13.7,13.7,0,0,0,4-9.71h0a13.69,13.69,0,0,0-4-9.71h0a13.7,13.7,0,0,0-9.71-4h0a13.68,13.68,0,0,0-9.71,4Z"/><path d="M38.43,65.88s0,0,0,.06a5.14,5.14,0,0,1,3.31,3.21h.07A5.24,5.24,0,0,0,38.43,65.88Z"/><path d="M35.24,65.9a5.24,5.24,0,0,0-3.31,3.26l.06,0A5.12,5.12,0,0,1,35.25,66Z"/><path d="M41.79,72.43a5.17,5.17,0,0,1-3.36,3.35s0,0,0,.06a5.23,5.23,0,0,0,3.42-3.4Z"/><path d="M35.24,75.76A5.14,5.14,0,0,1,32,72.41h-.07a5.23,5.23,0,0,0,3.35,3.4S35.24,75.78,35.24,75.76Z"/><circle cx="36.86" cy="70.84" r="0.82"/><path d="M37,57V54.4h-.13V57Z"/><path d="M36.82,84.62v2.66H37V84.63Z"/><path d="M49.08,64.41l2.29-1.23-.06-.11L49,64.3Z"/><path d="M24.72,77.3l-2.4,1.29.06.11,2.4-1.29Z"/><path d="M43.9,58.91l1.24-2.16L45,56.69l-1.25,2.17Z"/><path d="M30,82.82l-1.36,2.37.11.06,1.37-2.38Z"/><path d="M43.2,83.08l1.28,2.39.11-.06L43.32,83Z"/><path d="M30.26,58.64l-1.19-2.22-.11.06,1.19,2.23Z"/><path d="M24.94,64l-2.3-1.32-.06.11,2.31,1.33Z"/><path d="M48.77,77.68l-.07.11,2.37,1.36.06-.11Z"/><path d="M23.14,70.78H20.41v.13h2.74S23.14,70.82,23.14,70.78Z"/><path d="M50.6,70.78s0,.09,0,.13h2.69v-.12Z"/><path d="M36,57.8v0a2.67,2.67,0,0,1-.11.57c-.11.38-.2.7-.28,1s-.14.46-.19.61v.23l0,.28.2-.4c.14-.46.25-.8.32-1h0l-.05,2.11a1.35,1.35,0,0,1-.07.49l0,0v.21l.12,0,.13-.07.26-.15,0,0,0-4.11-.35.32ZM38.28,61v-.06H38.2c-.15.05-.1.11-.16.22a.44.44,0,0,1-.09.18.93.93,0,0,1-.13-.25c-.1-.23-.24-.38-.44-.38h0c.06-.12.14-.27.24-.44l.32-.57a2.36,2.36,0,0,0,.27-1.1,1.26,1.26,0,0,0-.18-.72.55.55,0,0,0-.44-.28c-.2,0-.35.17-.47.43a1.52,1.52,0,0,0-.17.68,1,1,0,0,0,0,.11c0,.33.1.55.32.57a.49.49,0,0,0,.29-.26v-.21h-.08c-.12,0-.2-.09-.2-.43s.15-.6.23-.59.1,0,.16.17a1.3,1.3,0,0,1,.08.48,2.62,2.62,0,0,1,0,.46l-.06.25-.07.23-.14.42-.25.69a5.71,5.71,0,0,0-.29.92l0,.09c0,.12.06.22.17.22s.15-.19.17-.39a1.57,1.57,0,0,1,0-.37c0-.07,0-.07,0-.07s0,0,0,.06a1.37,1.37,0,0,1,.1.3c.09.27.17.44.35.45s.22-.11.34-.27a.85.85,0,0,0,.18-.49Z"/><path d="M49.84,71.12a.69.69,0,0,0-.2-.22l-.16-.08a1.37,1.37,0,0,0,.43-1.07,1.23,1.23,0,0,0-.13-.62.46.46,0,0,0-.42-.25c-.38,0-.58.37-.6,1,0,.35.07.58.29.6s.31-.15.32-.3v-.07l0-.06H49.2c-.05,0-.12-.09-.12-.35s.12-.48.17-.48.09,0,.14.2a2,2,0,0,1,.08.58,1.46,1.46,0,0,1-.11.6.3.3,0,0,1-.28.21H49v.27h.08c.29,0,.45.24.45.87s-.09.84-.2.89h-.1s-.09,0-.14-.11A.66.66,0,0,1,49,72.4a1,1,0,0,1,.11-.43l0,0,0,0v-.12l0,0a.32.32,0,0,0-.18-.06.27.27,0,0,0-.24.18,1,1,0,0,0-.07.4c0,.49.21.8.55.8a.68.68,0,0,0,.58-.42,1.7,1.7,0,0,0,.22-.86A1.38,1.38,0,0,0,49.84,71.12Z"/><path d="M48.09,76.49a.17.17,0,0,0-.1,0,5.53,5.53,0,0,1,.16-1,.31.31,0,0,0,0-.11v-.07l0-.2-.17.25a8.45,8.45,0,0,0-.21.82l-.17.79a.9.9,0,0,1-.22-.19l.08-.22.09-.29a6.14,6.14,0,0,0,.15-.66,3.65,3.65,0,0,0,.06-.58c0-.43-.16-.72-.48-.72h-.08v.18a2.77,2.77,0,0,1,.09.83l0,.52-.05.52c0,.12,0,.22-.06.29h-.24l0,0a.5.5,0,0,0-.07.16l0,.16c0,.13.05.24.18.25s.22-.1.31-.25a1.78,1.78,0,0,0,.28.23c-.08.59-.13,1.06-.15,1.42v.09h.21l.16,0,.1,0,.06,0v-.06c0-.54,0-1,0-1.25a.49.49,0,0,0,.27-.24.87.87,0,0,0,.09-.39v-.1A.21.21,0,0,0,48.09,76.49Zm-.1.35v.06a.51.51,0,0,1,0,.2c0-.1,0-.2,0-.29l0,0Z"/><path d="M42.85,79.86a.46.46,0,0,0-.22.05l0-.27,0-.71c0-.06,0-.06,0-.07l.12.12a.57.57,0,0,0,.21.17h0c.18,0,.3-.24.42-.55v-.15l-.16,0c-.06.16-.12.21-.14.22l-.1-.12a.35.35,0,0,0-.25-.16.25.25,0,0,0-.2.1v-.16h-.23v.95l0,.51c0,.21,0,.37,0,.47a.49.49,0,0,0-.08.28.55.55,0,0,0,0,.13s0,.09.1.1.17-.23.18-.46l.08,0c.07,0,.17.07.28.28a1.72,1.72,0,0,1,.16.78,2.72,2.72,0,0,1-.08.78c-.06.16-.12.2-.2.21a.36.36,0,0,1-.16-.13.78.78,0,0,1-.08-.35l0-.28,0-.07,0,0a.19.19,0,0,0-.18-.23.26.26,0,0,0-.23.15.75.75,0,0,0-.08.35,1.2,1.2,0,0,0,.14.59.47.47,0,0,0,.42.29h0c.24,0,.41-.19.54-.5a2.66,2.66,0,0,0,.2-1.05,1.59,1.59,0,0,0-.19-.86A.59.59,0,0,0,42.85,79.86Z"/><path d="M37.54,81.9c-.07-.2-.2-.33-.38-.33a.46.46,0,0,0-.33.19V81.6a5.69,5.69,0,0,1,.09-1c.06-.34.16-.45.21-.44s0,0,.07.09a1,1,0,0,1,0,.32,2,2,0,0,1,0,.33l0,.1h.11a.29.29,0,0,0,.26-.18.79.79,0,0,0,.08-.35.77.77,0,0,0-.12-.43.37.37,0,0,0-.29-.19c-.32,0-.5.34-.63.9a8.23,8.23,0,0,0-.16.85,6.76,6.76,0,0,0-.05.84,4.35,4.35,0,0,0,0,.64,3.77,3.77,0,0,0,.12.52c.09.3.26.49.5.49s.38-.19.48-.48a2.92,2.92,0,0,0,.16-1A2.2,2.2,0,0,0,37.54,81.9Zm-.39,1.92h0s-.16-.14-.21-.58a9.19,9.19,0,0,1-.08-1.08A.35.35,0,0,1,37,82c.05,0,.13.06.18.27a3.26,3.26,0,0,1,.08.77,2.49,2.49,0,0,1-.05.56C37.18,83.8,37.15,83.81,37.15,83.81Z"/><path d="M31.52,78.13l0-.19-.13.2a1.35,1.35,0,0,1-.14.45h0l-.12-.14c-.1-.13-.18-.22-.31-.23a.25.25,0,0,0-.17.1v-.24h-.21l-.11,1.6h.2l.06-.48h0a1.77,1.77,0,0,1,.06-.35l0-.06a.81.81,0,0,1,.13.12c.09.09.13.14.23.15a.37.37,0,0,0,.17,0,22,22,0,0,0-.7,3.32v.15l.31-.15.19-.11,0,0v0a35.74,35.74,0,0,1,.52-3.84l0-.11Z"/><path d="M26.83,76.67a2.44,2.44,0,0,0-.27-.55,1.7,1.7,0,0,0,.34-1,1.22,1.22,0,0,0-.15-.62.48.48,0,0,0-.88.05,2.17,2.17,0,0,0-.18.8,1.88,1.88,0,0,0,.09.52,2.61,2.61,0,0,0,.24.47,1.92,1.92,0,0,0-.43,1.2,1.29,1.29,0,0,0,.18.65.52.52,0,0,0,.45.28h0a.59.59,0,0,0,.53-.39,1.92,1.92,0,0,0,.18-.84A1.79,1.79,0,0,0,26.83,76.67Zm-.54,1.47a.55.55,0,0,1-.11-.19,1.93,1.93,0,0,1-.14-.73,1.69,1.69,0,0,1,.05-.46,1,1,0,0,1,.08-.18,2,2,0,0,1,.42,1.1c0,.33-.09.47-.21.51ZM26.2,74.6h0s.11.05.18.22a1.53,1.53,0,0,1,.11.58,1.22,1.22,0,0,1-.1.49,2.5,2.5,0,0,1-.2-.36,1.76,1.76,0,0,1-.12-.55.59.59,0,0,1,.06-.3C26.17,74.61,26.2,74.6,26.2,74.6Z"/><path d="M25.34,70.17a3.94,3.94,0,0,0-.1-.53c-.1-.33-.25-.53-.48-.54a.41.41,0,0,0-.31.14,1.12,1.12,0,0,0-.19.37,3.24,3.24,0,0,0-.16,1,2.35,2.35,0,0,0,.12.73.4.4,0,0,0,.36.3.65.65,0,0,0,.31-.15l.05-.05v.1a5.63,5.63,0,0,1-.09,1,.74.74,0,0,1-.22.46.55.55,0,0,1-.12-.37l0-.38v-.09h-.09c-.21,0-.3.23-.35.55s.17.59.46.59h0c.13,0,.22-.1.33-.25a2,2,0,0,0,.26-.66,7.45,7.45,0,0,0,.14-.74,7.28,7.28,0,0,0,0-.83A6.21,6.21,0,0,0,25.34,70.17Zm-.86,0a3.29,3.29,0,0,1,.07-.61.58.58,0,0,1,0-.13h0s.16.13.22.54c0,.15.05.31.07.49s0,.37,0,.59-.13.12-.16.12S24.5,70.91,24.48,70.19Z"/><path d="M25.74,63.53v0a2.54,2.54,0,0,1-.11.57c-.11.38-.2.7-.28,1s-.14.46-.19.61v.23l0,.28.2-.4c.15-.45.25-.8.32-1h0l-.05,2.1a1.57,1.57,0,0,1-.07.5l0,0v.21l.11,0,.13-.07.26-.15,0,0,0-4.11-.35.32Zm2.09.23c-.11-.25-.24-.41-.43-.41l-.09,0h0c-.24.11-.38.43-.49.93,0,.25-.08.5-.1.76s0,.51,0,.75a4.75,4.75,0,0,0,.06.82,1.83,1.83,0,0,0,.18.54c.14.24.28.38.46.39s.26-.17.35-.41a4.59,4.59,0,0,0,.2-.88,6.4,6.4,0,0,0,.08-.95v-.11A3.81,3.81,0,0,0,27.83,63.76Zm-.14,2.07c0,.8-.1,1.26-.18,1.29l0,0s-.05,0-.1-.13a2.53,2.53,0,0,1-.18-.7c0-.31-.08-.65-.09-1V65c0-.83.1-1.31.23-1.41h0s.09.06.15.3a5,5,0,0,1,.18,1.16c0,.08,0,.19,0,.33Z"/><path d="M30.14,59.47v0a2.65,2.65,0,0,1-.1.57c-.11.38-.2.7-.28,1s-.14.46-.19.61v.23l0,.28.2-.4c.14-.45.25-.8.32-1h0l0,2.11a1.61,1.61,0,0,1-.07.5l0,0v.21l.12,0,.13-.07.26-.15,0,0,0-4.11-.35.32Zm1.64,0,0,0v0a2.46,2.46,0,0,1-.1.57c-.11.38-.2.7-.28,1l-.19.61v.23l0,.28.2-.4c.15-.45.25-.8.32-1v0l-.05,2.11a1.57,1.57,0,0,1-.07.5l0,0v.21l.11,0,.13-.07.26-.15,0,0,0-4.11Z"/><path d="M42.86,59.34l0,0v0a2.7,2.7,0,0,1-.11.57c-.11.38-.2.7-.28,1s-.14.46-.19.61v.23l0,.28.2-.41c.14-.46.25-.8.32-1h0l-.05,2.11a1.49,1.49,0,0,1-.07.5l0,0v.21l.11,0,.13-.07.26-.15,0,0,0-4.11Z"/><path d="M48.05,66.11,48,66H48c-.14.05-.09.11-.16.22a.5.5,0,0,1-.09.18.87.87,0,0,1-.14-.25c-.09-.23-.24-.38-.44-.38h0c.06-.12.14-.27.24-.44l.32-.57a2.38,2.38,0,0,0,.27-1.1,1.23,1.23,0,0,0-.18-.72.53.53,0,0,0-.44-.28c-.2,0-.35.17-.47.42a1.53,1.53,0,0,0-.17.68s0,.07,0,.11c0,.33.1.55.32.57a.49.49,0,0,0,.29-.26V64h-.08c-.12,0-.2-.09-.2-.43s.15-.6.23-.59.1,0,.15.17a1.31,1.31,0,0,1,.08.48,2.49,2.49,0,0,1,0,.46c0,.05,0,.14-.06.25l-.07.23-.14.42-.25.69a5.09,5.09,0,0,0-.29.92l0,.09c0,.12.06.23.17.23s.15-.19.17-.39a1.59,1.59,0,0,1,0-.37c0-.07,0-.07,0-.07s0,0,.05.06a1.34,1.34,0,0,1,.1.31c.09.27.17.44.35.45s.22-.11.34-.27a.83.83,0,0,0,.18-.49Z"/><path d="M34.79,72.84a1.5,1.5,0,0,1-.38.32h0l-.14.15.12,0,.14,0,.19,0,.07.22.05.14.05.12.14-.15v0a1.53,1.53,0,0,1,.28-.41l.19-.22L35,72.64Z"/><path d="M45.33,62.94v0l0,0,.27-.58.44-.9a2.46,2.46,0,0,1,.31-.49l0,0h0l.93-1.37-1.25,1h0l0,0a2.49,2.49,0,0,1-.46.35l-.85.52-.55.33,0,0h0l-.07.05,0,0-.17.23.42-.17.94-.56h0L44,62.72l.47.43,1.15-1.33h0c-.11.23-.27.55-.47,1l-.12.43.21-.19,0,0Z"/><rect x="33" y="67.56" width="13.45" height="0.65" transform="matrix(0.67, -0.74, 0.74, 0.67, -37.23, 51.63)"/><path d="M34.75,69.07a1.54,1.54,0,0,1-.36-.35v0l-.17-.12,0,.12s0,.07,0,.15,0,.14,0,.19l-.21.1-.13.07-.11.06.17.12h0a1.49,1.49,0,0,1,.45.23l.24.17.38-.52Z"/><path d="M42.94,76.4h0l0,0,.61.2.94.34a2.64,2.64,0,0,1,.53.25l0,0h0l1.47.77L45.4,76.89h0l0,0a2.47,2.47,0,0,1-.4-.42l-.62-.79L44,75.14l0,0,0,0L43.85,75l-.05,0-.25-.14.21.4c.29.38.5.67.66.87h0L43,75l-.38.52,1.45,1h0l-1-.35-.45-.07.21.19,0,0Z"/><polygon points="34.58 69.76 34.96 69.23 43.04 75.06 42.66 75.58 34.58 69.76"/></g></g></svg>