<svg xmlns="http://www.w3.org/2000/svg" viewBox="0 0 53.78 77.72"><defs><style>.cls-1{fill-rule:evenodd;}.cls-2{fill:#fff;}</style></defs><title>Ресурс 13clock</title><g id="Слой_2" data-name="Слой 2"><g id="Layer_1" data-name="Layer 1"><path d="M30.66,71.83c.16-.16.32-.31.48-.45a17.83,17.83,0,0,1-8.92-10.05c-.1-.26-.18-.53-.26-.8a14.06,14.06,0,0,1,8.8-17.15l.62-.2a11,11,0,0,1,9.17,1.44,11.63,11.63,0,0,1,4.31,5.73l.05.19a8.5,8.5,0,0,1-5.31,10.37l-.39.12a6.52,6.52,0,0,1-8-4.1c0-.08-.06-.17-.09-.28a5,5,0,0,1,3.12-6l.2-.06a3.62,3.62,0,0,1,1.19-.14,3.9,3.9,0,0,1,1.13.33A4,4,0,0,1,39,53.25l0,.12a2.8,2.8,0,0,1,.08.9,2.73,2.73,0,0,1-.2.62,2.67,2.67,0,0,1-1.51,1.4l-.13,0a1.84,1.84,0,0,1-2.22-1,2.28,2.28,0,1,0-1.09-3.92,3.87,3.87,0,0,0-1.67,1.79,3.93,3.93,0,0,0-.24,2.6,1.32,1.32,0,0,0,0,.18,4.79,4.79,0,0,0,2.6,3,4.7,4.7,0,0,0,3,.32l.32-.08a5.29,5.29,0,0,0,3.34-2.87,5.23,5.23,0,0,0,.46-1.63,5.39,5.39,0,0,0-.14-2.4c0-.11-.06-.21-.1-.32a6.4,6.4,0,0,0-3.36-3.68A6.31,6.31,0,0,0,36,47.7a6.43,6.43,0,0,0-2.21.11l-.47.12A7.49,7.49,0,0,0,28.56,52a7.67,7.67,0,0,0-.45,5.12c0,.12.06.22.08.31a9.74,9.74,0,0,0,5.29,6.12,9.46,9.46,0,0,0,6.06.65l.67-.17a11,11,0,0,0,6.92-6,11.24,11.24,0,0,0,.65-7.53l-.12-.41c-.05-.18-.11-.37-.17-.54l-.15-.45a13.67,13.67,0,0,0-5.23-6.76,15,15,0,0,0-2.3-1.32,14.06,14.06,0,0,0-9-1c-.35.08-.68.16-1,.26a16.34,16.34,0,0,0-10.33,8.89,16.75,16.75,0,0,0-1,11.22c.05.22.11.44.17.64A21.77,21.77,0,0,0,29,74,10.9,10.9,0,0,1,30.66,71.83Z"/><path d="M9.63,43A4.44,4.44,0,0,0,9,39.87c-1.13-1.89-2.55-2.4-3.8-2.2a3.92,3.92,0,0,0-1,.31A3,3,0,1,1,.62,42.5a3,3,0,0,1-.33-.6,2.78,2.78,0,0,1-.23-1.84,5.13,5.13,0,0,1,1.65-2.72,6.25,6.25,0,0,1,3.13-1.55c2-.32,4.14.38,5.76,3.09a7.06,7.06,0,0,1,1,2.51A22.81,22.81,0,0,0,9.63,43Z"/><path d="M14.73,42.81a4.44,4.44,0,0,1,.67-3.12c1.13-1.89,2.55-2.4,3.8-2.2a3.94,3.94,0,0,1,1,.31,3,3,0,1,0,3.53,4.51,3,3,0,0,0,.33-.6,2.77,2.77,0,0,0,.23-1.84,5.12,5.12,0,0,0-1.65-2.72,6.23,6.23,0,0,0-3.13-1.55c-2-.33-4.14.38-5.76,3.09a7,7,0,0,0-.95,2.51A23.14,23.14,0,0,1,14.73,42.81Z"/><path class="cls-1" d="M11.52,67.54l1.86,1.76,2.55,2.18a10.63,10.63,0,0,1,5.6-1.15L20.59,67l-1.64-4.28-1.8-4.14-1.76-3.85-1.3-3.34-.67-2.73.26-1.85-.58.44-.71.64-.78.82-.76,1-.8,1.13-.73,1.33-.56,1.43-.51,1.56-.34,1.65-.13,1.65.12,1.79.38,1.77L9,63.89l1.07,1.82Z"/><ellipse cx="28.93" cy="73.64" rx="18.2" ry="4.08"/><ellipse cx="12.22" cy="46.16" rx="6.22" ry="4.92"/><ellipse cx="33.87" cy="38.72" rx="9.79" ry="2.46"/><ellipse cx="36.82" cy="67.05" rx="2.97" ry="3.16"/><path d="M33.35,0A20.42,20.42,0,1,0,53.78,20.42,20.43,20.43,0,0,0,33.35,0Z"/><circle class="cls-2" cx="33.21" cy="20.3" r="17.69"/><path d="M17.61,20.27A15.68,15.68,0,0,1,33.28,4.59h0A15.68,15.68,0,0,1,49,20.27h0A15.68,15.68,0,0,1,33.28,35.95h0A15.68,15.68,0,0,1,17.61,20.27Zm4.72-11a15.45,15.45,0,0,0-4.54,11h0a15.44,15.44,0,0,0,4.54,11h0a15.44,15.44,0,0,0,11,4.54h0a15.44,15.44,0,0,0,11-4.54h0a15.43,15.43,0,0,0,4.54-11h0a15.44,15.44,0,0,0-4.54-11h0a15.44,15.44,0,0,0-11-4.54h0a15.44,15.44,0,0,0-11,4.54Z"/><path d="M15.52,20.37A17.73,17.73,0,0,1,33.25,2.64h0A17.73,17.73,0,0,1,51,20.37h0A17.73,17.73,0,0,1,33.25,38.1h0A17.73,17.73,0,0,1,15.52,20.37ZM20.85,8a17.49,17.49,0,0,0-5.14,12.4h0a17.49,17.49,0,0,0,5.14,12.4h0a17.49,17.49,0,0,0,12.4,5.14h0a17.49,17.49,0,0,0,12.4-5.14h0a17.48,17.48,0,0,0,5.14-12.4h0A17.48,17.48,0,0,0,45.66,8h0a17.48,17.48,0,0,0-12.4-5.14h0A17.49,17.49,0,0,0,20.85,8Z"/><path d="M33.48,4.68v-2h-.21v2Z"/><path d="M41.31,6.93l1.17-1.61-.17-.13L41.14,6.81Z"/><path d="M24.06,35.35l1.12-1.65L25,33.58l-1.12,1.65Z"/><path d="M47.18,13.2l1.74-1L48.82,12l-1.74,1Z"/><path d="M17.51,28.06l1.82-.8-.09-.2-1.83.81Z"/><path d="M23.71,5.62l1.15,1.63L25,7.13,23.88,5.5Z"/><path d="M41.12,33.78l1.07,1.68.18-.12L41.3,33.66Z"/><path d="M17.56,12.31l1.79.88.09-.19-1.79-.88Z"/><path d="M47.18,27.56l1.79.88.1-.19-1.79-.88Z"/><path d="M17.68,20.27h-2v.21h2C17.68,20.41,17.68,20.34,17.68,20.27Z"/><path d="M50.87,20.27h-2v.21h2C50.87,20.41,50.87,20.34,50.87,20.27Z"/><path d="M33.36,37.93v-2h-.21v2Z"/><circle cx="33.23" cy="20.34" r="0.97"/><path class="cls-1" d="M37.73,19.9c0,.21,0,.38-.12.39L31,20.95c-.09,0-.17-.16-.19-.36h0c0-.21,0-.38.12-.39l6.57-.66c.09,0,.17.15.19.36Z"/><path d="M46.58,19l-1.7-.19,0,0a2.09,2.09,0,0,0-.52-.24,3.73,3.73,0,0,0-.66-.14c-.2,0-.38-.08-.43-.18a.56.56,0,0,0-.23-.27,1.91,1.91,0,0,0-1.08-.14,2.27,2.27,0,0,0-1.07.38c-.43.3-.25.7-.77,1l-.45.19h0l-2.21.22.08.76,2.21-.22.47.09c.57.17.47.59,1,.8a2.3,2.3,0,0,0,1.13.16,1.93,1.93,0,0,0,1-.35.58.58,0,0,0,.17-.31c0-.11.2-.2.39-.27l.38-.15a3.1,3.1,0,0,0,.55-.32.72.72,0,0,0,.23-.26Zm-3.26.85a1,1,0,0,1-.37,0,.34.34,0,0,1,.12.22c0,.25-.27.48-.65.52s-.71-.13-.74-.38a.34.34,0,0,1,.06-.22,1,1,0,0,1-.33.09c-.38,0-.71-.13-.74-.38s.26-.48.65-.52a1,1,0,0,1,.34,0,.33.33,0,0,1-.09-.19c0-.25.26-.48.65-.52s.71.13.74.38a.33.33,0,0,1-.05.2,1,1,0,0,1,.33-.09c.38,0,.71.13.74.38S43.7,19.78,43.32,19.81Z"/><path class="cls-1" d="M28.3,16.4c.13-.16.31-.24.4-.16l7.2,5.68c.09.08.07.27-.06.43h0c-.13.17-.31.24-.4.16l-7.21-5.68c-.09-.08-.06-.27.07-.43Z"/><path d="M21.29,10.92l1.09,1.31a.29.29,0,0,1,0,0,2.07,2.07,0,0,0,.21.53,3.74,3.74,0,0,0,.37.56c.12.16.22.32.18.43a.57.57,0,0,0,0,.35,1.9,1.9,0,0,0,.68.85,2.26,2.26,0,0,0,1,.47c.52.08.66-.33,1.23-.16l.45.18h0l1.75,1.38.47-.6L27,14.89l-.27-.4c-.29-.52.07-.75-.13-1.24a2.31,2.31,0,0,0-.7-.9,1.93,1.93,0,0,0-1-.46.59.59,0,0,0-.34.1c-.1.06-.28,0-.46-.08l-.38-.15a3.1,3.1,0,0,0-.62-.15.71.71,0,0,0-.35,0Zm2.93,1.65a1,1,0,0,1,.25.28.34.34,0,0,1,.07-.24c.15-.2.53-.16.83.07s.42.59.27.79a.35.35,0,0,1-.2.12,1,1,0,0,1,.29.16c.3.24.42.59.26.79s-.53.16-.83-.07a1.07,1.07,0,0,1-.23-.25.33.33,0,0,1-.07.2c-.16.2-.53.16-.83-.07s-.42-.59-.26-.79a.32.32,0,0,1,.17-.11,1,1,0,0,1-.3-.16c-.3-.24-.42-.59-.26-.79S23.92,12.34,24.23,12.57Z"/><path d="M40.11,10.25c.15-.05.19-.1.2-.3s0-.5,0-1.37c0-.5,0-.66,0-.73a.11.11,0,0,0-.07-.09l-.13,0s-.06,0-.06-.07a.09.09,0,0,1,.06-.07.88.88,0,0,0,.32-.14l.11-.09s0,0,0,0,0,.2,0,.54,0,1.31,0,1.87c0,.32,0,.37.19.44a.1.1,0,0,1,.08.08s0,.05-.07.05l-.29,0-.41,0s-.07,0-.07,0S40,10.28,40.11,10.25Z"/><path d="M45,15.73a.17.17,0,0,1,0-.11,9,9,0,0,0,.48-.87,2.55,2.55,0,0,0,.31-1c0-.41-.16-.58-.35-.58a.45.45,0,0,0-.37.29c0,.07-.05.1-.06.1s0,0,0-.07a.37.37,0,0,1,0-.16c.14-.32.32-.5.54-.5s.48.37.48.8a2,2,0,0,1-.24.83c-.17.31-.34.62-.54,1a0,0,0,0,0,0,0,3.71,3.71,0,0,0,.69,0c.09,0,.14-.06.21-.18s0-.08.06-.08,0,.06,0,.15a2.16,2.16,0,0,0-.09.42,0,0,0,0,1,0,0l-.76,0H45A.06.06,0,0,1,45,15.73Z"/><path d="M48,19.53a.8.8,0,0,1-.1.4,1.3,1.3,0,0,1-.18.24s0,0,0,0a.6.6,0,0,1,.36.3,1,1,0,0,1,.08.43,1.42,1.42,0,0,1-.43,1,.7.7,0,0,1-.44.2.28.28,0,0,1-.3-.23.35.35,0,0,1,0-.11c0-.06.06-.09.08-.09s0,0,.07.07a.36.36,0,0,0,.3.17.34.34,0,0,0,.25-.14,1.1,1.1,0,0,0,.19-.64,1.07,1.07,0,0,0-.11-.51.28.28,0,0,0-.27-.16.51.51,0,0,0-.23.08s0,0,0,0a.27.27,0,0,1,0-.12l.15-.13a.69.69,0,0,0,.29-.59c0-.26-.13-.46-.29-.46s-.23.08-.33.26-.05.08-.06.08,0,0,0-.07a.91.91,0,0,1,.17-.35.46.46,0,0,1,.37-.22C47.83,18.94,48,19.31,48,19.53Z"/><path d="M45.69,26.87s0,0,0,0h0a1.07,1.07,0,0,1,.27,0v0a.36.36,0,0,1,0,.18.79.79,0,0,0-.26,0h0c0,.06,0,.28,0,.39,0,.32,0,.35.16.39s.07,0,.07.07,0,.06-.07.06l-.28,0-.31,0s-.08,0-.08-.06,0-.06.08-.07.17-.14.18-.37,0-.34,0-.37,0-.06,0-.06a6.5,6.5,0,0,0-.8,0,0,0,0,0,1-.05,0,.67.67,0,0,1,.08-.21l.82-1.75.18-.38h.1v0a.14.14,0,0,1,0,.05l-.8,1.7a3.69,3.69,0,0,0-.15.35h0a6,6,0,0,0,.64,0v-.54a3.69,3.69,0,0,1,0-.45h0a.35.35,0,0,1,.19-.08h0c0,.07,0,.3,0,.51Z"/><path d="M40.54,32.75a1,1,0,0,1-.67.37H39.8s0,0,0,0a.15.15,0,0,1,.06-.09.88.88,0,0,0,.74-.93.82.82,0,0,0-.3-.68,1.59,1.59,0,0,0-.48-.23.26.26,0,0,1,0-.11,5.47,5.47,0,0,1,.15-.81A.52.52,0,0,1,40,30a2.41,2.41,0,0,1,.72-.17s0,0,0,0a.51.51,0,0,1-.15.37l-.57.06s0,0,0,0l-.06.3s0,.06,0,.07a2.14,2.14,0,0,1,.6.35,1.12,1.12,0,0,1,.32.82A1.32,1.32,0,0,1,40.54,32.75Z"/><path d="M33.67,33.91a1.25,1.25,0,0,1-.27.84.46.46,0,0,1-.37.2c-.37,0-.6-.45-.6-1.11A2.78,2.78,0,0,1,33.16,32a1,1,0,0,1,.49-.32.05.05,0,0,1,.06.05s0,0-.06.08a1.73,1.73,0,0,0-.5.5,2.74,2.74,0,0,0-.46,1.52c0,.45.16,1,.44,1a.22.22,0,0,0,.16-.08.89.89,0,0,0,.15-.57c0-.43-.16-.65-.35-.65a.57.57,0,0,0-.22.1s0,0,0,0a.19.19,0,0,1,0-.1.69.69,0,0,1,.17-.17.35.35,0,0,1,.19-.08C33.53,33.17,33.67,33.52,33.67,33.91Z"/><path d="M26.22,30.13h.16s0,0,.05,0a.33.33,0,0,1,0,.09c0,.1-.43,1.28-.64,2l-.3,1c0,.05,0,.07,0,.07s-.08-.06-.08-.09a.4.4,0,0,1,0-.11c.28-.87.59-1.8.81-2.53,0,0,0,0,0,0a4.9,4.9,0,0,0-.63,0l-.18,0c-.08,0-.11.08-.19.24s0,.1-.06.1,0,0,0-.06a1.1,1.1,0,0,1,0-.18,2.61,2.61,0,0,0,.06-.38.26.26,0,0,1,0-.11s0,0,0,0a2.33,2.33,0,0,0,.48,0C25.94,30.15,26.15,30.13,26.22,30.13Z"/><path d="M21.51,25.89a.76.76,0,0,1-.16.48,2,2,0,0,1-.2.23,0,0,0,0,0,0,0,1.39,1.39,0,0,1,.4.88.94.94,0,0,1-.22.61.49.49,0,0,1-.37.18c-.37,0-.54-.39-.54-.7a.88.88,0,0,1,.21-.58l.19-.24a0,0,0,0,0,0,0,1.61,1.61,0,0,1-.24-.34,1,1,0,0,1-.11-.47.86.86,0,0,1,.16-.54.49.49,0,0,1,.38-.22C21.28,25.19,21.51,25.48,21.51,25.89Zm-.22,1.77a1.16,1.16,0,0,0-.37-.78s0,0,0,0a1.21,1.21,0,0,0-.24.7,1.1,1.1,0,0,0,.1.43.35.35,0,0,0,.26.19C21.18,28.17,21.29,27.94,21.29,27.66Zm-.62-1.85a1,1,0,0,0,.35.73s0,0,0,0a1,1,0,0,0,.14-.22,1.36,1.36,0,0,0,.09-.47c0-.1-.08-.54-.32-.54S20.67,25.48,20.67,25.81Z"/><path d="M20,19.64a3,3,0,0,1-.74,1.92c-.16.16-.26.21-.36.21s-.06,0-.06-.05,0,0,0,0a2,2,0,0,0,.52-.64,3.05,3.05,0,0,0,.33-1.36,1.57,1.57,0,0,0-.21-.86.27.27,0,0,0-.2-.1c-.19,0-.32.31-.32.59,0,.46.16.69.38.69a.29.29,0,0,0,.18-.08s0,0,0,0a.33.33,0,0,1,0,.08.28.28,0,0,1-.05.1.45.45,0,0,1-.3.18c-.27,0-.44-.34-.44-.77a1.18,1.18,0,0,1,.32-.87.51.51,0,0,1,.31-.13C19.77,18.53,20,19.11,20,19.64Z"/><path d="M20.28,15.61c.15-.05.19-.1.2-.3s0-.5,0-1.37c0-.5,0-.66,0-.73a.11.11,0,0,0-.07-.09l-.14,0s-.06,0-.06-.07a.1.1,0,0,1,.06-.07.88.88,0,0,0,.32-.14l.11-.09s0,0,0,0,0,.2,0,.54,0,1.31,0,1.87c0,.32,0,.37.2.44a.1.1,0,0,1,.08.09s0,.05-.07.05l-.29,0-.41,0s-.08,0-.08,0S20.21,15.64,20.28,15.61Z"/><path d="M22.67,14.22a2.27,2.27,0,0,1-.34,1.43.38.38,0,0,1-.28.13c-.45,0-.62-.89-.62-1.49a2.1,2.1,0,0,1,.36-1.41.37.37,0,0,1,.28-.13C22.55,12.75,22.67,13.72,22.67,14.22Zm-.83-1.15a2.94,2.94,0,0,0-.15,1.16c0,.52.1,1.42.41,1.42.1,0,.19-.2.2-.23a4.1,4.1,0,0,0,.12-1.18A2.41,2.41,0,0,0,22.18,13,.22.22,0,0,0,22,12.9C22,12.9,21.9,12.94,21.84,13.08Z"/><path d="M24.88,10.6c.15-.05.19-.1.2-.3s0-.5,0-1.37c0-.5,0-.66,0-.73A.11.11,0,0,0,25,8.11l-.14,0s-.06,0-.06-.07a.09.09,0,0,1,.06-.07.88.88,0,0,0,.32-.14l.11-.09s0,0,0,0,0,.2,0,.54,0,1.31,0,1.87c0,.32,0,.37.2.44a.1.1,0,0,1,.08.08s0,.05-.07.05l-.29,0-.41,0s-.08,0-.08,0S24.81,10.63,24.88,10.6Z"/><path d="M26.34,10.6c.15-.05.19-.1.2-.3s0-.5,0-1.37c0-.5,0-.66,0-.73a.11.11,0,0,0-.07-.09l-.13,0S26.3,8,26.3,8a.1.1,0,0,1,.06-.07.88.88,0,0,0,.32-.14l.11-.09s0,0,0,0,0,.2,0,.54,0,1.31,0,1.87c0,.32,0,.37.2.44a.1.1,0,0,1,.08.08s0,.05-.07.05l-.29,0-.41,0s-.08,0-.08,0S26.27,10.63,26.34,10.6Z"/><path d="M32.34,8.38c.15-.05.19-.1.2-.3s0-.5,0-1.37c0-.5,0-.66,0-.73a.11.11,0,0,0-.07-.09l-.14,0s-.06,0-.06-.07a.1.1,0,0,1,.06-.07.88.88,0,0,0,.32-.14l.11-.09s0,0,0,0,0,.2,0,.54,0,1.31,0,1.87c0,.32,0,.37.2.44a.1.1,0,0,1,.08.08s0,.05-.07.05l-.29,0-.41,0s-.08,0-.08,0S32.27,8.41,32.34,8.38Z"/><path d="M33.48,8.46a.17.17,0,0,1,0-.11A9.12,9.12,0,0,0,34,7.48a2.55,2.55,0,0,0,.31-1c0-.41-.16-.58-.35-.58a.45.45,0,0,0-.37.29c0,.07-.05.1-.06.1s0,0,0-.07a.36.36,0,0,1,0-.16c.14-.32.32-.5.54-.5s.48.37.48.8a2,2,0,0,1-.24.83c-.17.31-.34.62-.54,1a0,0,0,0,0,0,0,3.7,3.7,0,0,0,.69,0c.09,0,.14-.06.21-.18s0-.08.06-.08,0,.06,0,.15a2.19,2.19,0,0,0-.09.42,0,0,0,0,1,0,0l-.76,0h-.3A.06.06,0,0,1,33.48,8.46Z"/><path d="M31.12,24.14h0l-.19,0a1.65,1.65,0,0,0-1.25.24v0a1.51,1.51,0,0,0,0-.63h0a1.63,1.63,0,0,0-1.11-1.21,2,2,0,0,0-.66-.12,2,2,0,0,0-.38,0l-.32.08a2.22,2.22,0,0,0-.69.41h0a1.12,1.12,0,0,0-.39.15,1.2,1.2,0,0,0-.25.22,1.53,1.53,0,0,0-.3.54,1.23,1.23,0,0,1-.56.47l-.16.06a1.09,1.09,0,0,1-1.37-.45.83.83,0,0,1-.06-.15h0a.69.69,0,0,1,0-.53A.6.6,0,0,1,23.6,23l.11-.06a.25.25,0,0,1,.21,0h-.07a.26.26,0,0,0-.16.32h0a.29.29,0,0,0,.14.16.36.36,0,0,0,.27,0h0a.45.45,0,0,0,.28-.46.57.57,0,0,0,0-.11A.53.53,0,0,0,24,22.6a.72.72,0,0,0-.44,0,1,1,0,0,0-.58.93,1,1,0,0,0,0,.28v0a1.21,1.21,0,0,0,.1.23,1.51,1.51,0,0,0,1.87.65h0l.18-.07a1.63,1.63,0,0,0,.37-.22,1.79,1.79,0,0,0,.48,1,2,2,0,0,0,.53.4,1.9,1.9,0,0,0,.36.14,1.71,1.71,0,0,0,.32.07,2.21,2.21,0,0,0,1.11-.15,5,5,0,0,0,1.2-.93,1.39,1.39,0,0,1,1.26-.4l.17,0a1.09,1.09,0,0,1,.87,1.15.78.78,0,0,1,0,.16h0a.68.68,0,0,1-.31.42.58.58,0,0,1-.2.05H31.2A.25.25,0,0,1,31,26.2l.07,0a.26.26,0,0,0,.32-.17h0a.29.29,0,0,0,0-.22.35.35,0,0,0-.21-.17h0a.45.45,0,0,0-.5.22l0,.1a.53.53,0,0,0,.09.49.73.73,0,0,0,.36.25,1,1,0,0,0,1-.43,1.1,1.1,0,0,0,.13-.25v0a1.26,1.26,0,0,0,0-.25A1.52,1.52,0,0,0,31.12,24.14Zm-2.86,1.27h0l-.1,0-.1,0a1.6,1.6,0,0,1-.72.08,1.31,1.31,0,0,1-.27,0,1.36,1.36,0,0,1-.3-.13,1.63,1.63,0,0,1-.4-.3A1.24,1.24,0,0,1,26,23.92l0,0h0a1.09,1.09,0,0,1,.21-.37.76.76,0,0,1,.53-.26H27a.36.36,0,0,1,.19.14.25.25,0,0,1,0,.19.25.25,0,0,0-.16-.15h0a.27.27,0,0,0-.34.19v0h0a.38.38,0,0,0,.29.4h0a.44.44,0,0,0,.32,0,.56.56,0,0,0,.28-.33.53.53,0,0,0,0-.18.72.72,0,0,0-.23-.5A.79.79,0,0,0,27.2,23a.75.75,0,0,1,.16-.09,1.26,1.26,0,0,1,.27-.08,1.38,1.38,0,0,1,.32,0,1.64,1.64,0,0,1,.5.08,1.24,1.24,0,0,1,.85.9h0a1.08,1.08,0,0,1,0,.45.76.76,0,0,1-.36.48l-.15.06h0a.36.36,0,0,1-.23,0,.25.25,0,0,1-.13-.15.25.25,0,0,0,.21.06h0a.27.27,0,0,0,.21-.32v0h0a.38.38,0,0,0-.44-.23h0a.44.44,0,0,0-.28.17.56.56,0,0,0-.1.42.5.5,0,0,0,.06.17.72.72,0,0,0,.43.35l0-.11,0,.11a.84.84,0,0,0,.2,0A2.26,2.26,0,0,1,28.27,25.41Z"/><path d="M34.55,25.75a1.28,1.28,0,0,0,0,.25v0a1.1,1.1,0,0,0,.13.25,1,1,0,0,0,1,.43.73.73,0,0,0,.36-.25.53.53,0,0,0,.09-.49l0-.1a.45.45,0,0,0-.5-.22h0a.35.35,0,0,0-.21.17.29.29,0,0,0,0,.22h0a.26.26,0,0,0,.32.17l.07,0a.25.25,0,0,1-.16.13h-.12a.58.58,0,0,1-.2-.05.68.68,0,0,1-.31-.42h0a.78.78,0,0,1,0-.16,1.09,1.09,0,0,1,.87-1.15l.17,0a1.39,1.39,0,0,1,1.26.4,4.94,4.94,0,0,0,1.2.93,2.21,2.21,0,0,0,1.11.15,1.71,1.71,0,0,0,.32-.07,1.9,1.9,0,0,0,.36-.14,2,2,0,0,0,.53-.4,1.79,1.79,0,0,0,.48-1,1.63,1.63,0,0,0,.37.22l.18.07h0a1.51,1.51,0,0,0,1.87-.65,1.21,1.21,0,0,0,.1-.23v0a1,1,0,0,0,0-.28,1,1,0,0,0-.58-.93.72.72,0,0,0-.44,0,.53.53,0,0,0-.35.35.57.57,0,0,0,0,.11.45.45,0,0,0,.28.46h0a.35.35,0,0,0,.27,0,.29.29,0,0,0,.14-.16h0A.26.26,0,0,0,43,23h-.07a.25.25,0,0,1,.21,0l.11.06a.6.6,0,0,1,.13.16.69.69,0,0,1,0,.53h0a.84.84,0,0,1-.06.15,1.09,1.09,0,0,1-1.37.45l-.16-.06a1.23,1.23,0,0,1-.56-.47,1.53,1.53,0,0,0-.3-.54,1.19,1.19,0,0,0-.25-.22,1.12,1.12,0,0,0-.39-.15h0a2.22,2.22,0,0,0-.69-.41l-.31-.08a2,2,0,0,0-.38,0,2,2,0,0,0-.66.12,1.63,1.63,0,0,0-1.11,1.21h0a1.52,1.52,0,0,0,0,.63v0a1.65,1.65,0,0,0-1.25-.24l-.19,0h0A1.52,1.52,0,0,0,34.55,25.75Zm3.61-.6a.84.84,0,0,0,.2,0l0-.11,0,.11a.72.72,0,0,0,.43-.35.5.5,0,0,0,.06-.17.56.56,0,0,0-.1-.42.44.44,0,0,0-.28-.17h0a.38.38,0,0,0-.44.23h0v0a.27.27,0,0,0,.21.32h0a.25.25,0,0,0,.21-.06.25.25,0,0,1-.13.15.36.36,0,0,1-.23,0h0l-.15-.06a.76.76,0,0,1-.36-.48,1.08,1.08,0,0,1,0-.45h0a1.24,1.24,0,0,1,.85-.9,1.64,1.64,0,0,1,.5-.08,1.38,1.38,0,0,1,.32,0,1.26,1.26,0,0,1,.27.08.75.75,0,0,1,.16.09.79.79,0,0,0-.16.08.72.72,0,0,0-.23.5.53.53,0,0,0,0,.18.56.56,0,0,0,.28.33.44.44,0,0,0,.32,0h0a.38.38,0,0,0,.29-.4h0v0a.27.27,0,0,0-.34-.19h0a.25.25,0,0,0-.16.15.25.25,0,0,1,0-.19.36.36,0,0,1,.19-.14h.19a.76.76,0,0,1,.53.26,1.09,1.09,0,0,1,.21.37h0l0,0a1.24,1.24,0,0,1-.36,1.19,1.62,1.62,0,0,1-.4.3,1.36,1.36,0,0,1-.3.13,1.31,1.31,0,0,1-.27,0,1.6,1.6,0,0,1-.72-.08l-.1,0-.1,0h0A2.26,2.26,0,0,1,38.16,25.15Z"/></g></g></svg>