<svg xmlns="http://www.w3.org/2000/svg" viewBox="0 0 50.26 204.13"><defs><style>.cls-1{fill:#fff;}</style></defs><title>Ресурс 8clock</title><g id="Слой_2" data-name="Слой 2"><g id="Layer_1" data-name="Layer 1"><path d="M12.16,147.16c0,.45-.75.82-1.67.82h-4c-.92,0-1.67-.37-1.67-.82h0c0-.45.75-.82,1.67-.82h4c.92,0,1.67.37,1.67.82Z"/><path d="M12.11,79.39c0,.45-.75.82-1.66.82h-4c-.92,0-1.67-.37-1.67-.82h0c0-.45.75-.82,1.67-.82h4c.92,0,1.66.37,1.66.82Z"/><path d="M12.69,110.28a2,2,0,0,0-1-1.74c.26-.14.43-.33.43-.54,0-.45-.75-.81-1.66-.81h-4c-.92,0-1.67.37-1.67.81,0,.21.16.39.42.54a2,2,0,0,0,.26,3.61c-.41.15-.68.39-.68.65,0,.45.75.82,1.67.82h4c.92,0,1.66-.37,1.66-.82,0-.27-.27-.51-.69-.66A2,2,0,0,0,12.69,110.28Z"/><path d="M3.74,32s2.07,0,4.62,0h0C10.92,32,13,32,13,32v1.2s-2.07,0-4.62,0h0c-2.55,0-4.62,0-4.62,0Z"/><path d="M14.28,201.57h-.16l-1.65-6.9.42-7a.25.25,0,0,0-.15-.24c.27-.14.44-.31.44-.49s-.39-.54-1-.68a1.16,1.16,0,0,0,.66-1,1.25,1.25,0,0,0-.85-1.05.75.75,0,0,0,.31-.56c0-.55-.79-1-1.76-1H6.27c-1,0-1.76.45-1.76,1a.74.74,0,0,0,.31.56A1.25,1.25,0,0,0,4,185.31a1.16,1.16,0,0,0,.67,1c-.58.15-1,.39-1,.68s.16.35.43.48c-.18.08-.19.18-.19.26l.42,7-1.65,6.89H2.5c-.15,0-.28.57-.28,1.28s.12,1.28.28,1.28H14.28c.15,0,.28-.58.28-1.28S14.43,201.57,14.28,201.57Z"/><path d="M3.71,32.24a.38.38,0,0,0,.46.26h0a.37.37,0,0,0,.33-.41L1.66,17.83a.37.37,0,0,0-.46-.26h0A.38.38,0,0,0,.88,18Z"/><path d="M13.11,32.28a.38.38,0,0,1-.46.26h0a.38.38,0,0,1-.33-.41l2.84-14.26a.37.37,0,0,1,.46-.26h0a.38.38,0,0,1,.33.41Z"/><path d="M10.35,32.27a.38.38,0,0,1-.42.31h0a.38.38,0,0,1-.38-.37l1.09-14.5a.37.37,0,0,1,.42-.31h0a.37.37,0,0,1,.37.37Z"/><path d="M6.32,32.15a.38.38,0,0,0,.42.31h0a.38.38,0,0,0,.38-.37L6,17.6a.37.37,0,0,0-.42-.31h0a.37.37,0,0,0-.37.37Z"/><path d="M12.69,48a2,2,0,0,0-1-1.74c.26-.14.43-.33.43-.54,0-.39-.55-.71-1.29-.79V42.64a4.41,4.41,0,0,0-.07-.75c.32,0,.34-.06.34-.09l-.18-1.32c.22-.11.36-.25.36-.41a.48.48,0,0,0-.29-.37l.86-1.58A8.63,8.63,0,0,0,10.11,38H9.18V37.2c.73-.2,1.18-.64,1.18-1s-.79-5.76-2-5.76-2,5.21-2,5.75.5.91,1.31,1.09V38h-1a8.65,8.65,0,0,0-1.73.09l.87,1.6a.46.46,0,0,0-.26.36c0,.15.12.29.33.4L5.69,41.8s0,.07.33.09a4.34,4.34,0,0,0-.07.75V44.9c-.7.1-1.22.41-1.22.78,0,.21.16.39.42.54a2,2,0,0,0,.26,3.61c-.41.15-.68.39-.68.65s.52.69,1.22.78V182.51c0,1.82,1.09,3.29,2.43,3.29s2.43-1.47,2.43-3.29V51.27c.74-.08,1.29-.41,1.29-.79s-.27-.51-.69-.66A2,2,0,0,0,12.69,48Z"/><path d="M50.26,46.19a47.28,47.28,0,0,1-6.59-1.94l.74.87c-1.29-.19-2.57-.41-3.83-.64a18.56,18.56,0,0,1-4.26-1.8c-1.76-.86-3.43-1.88-5.08-2.88A40.05,40.05,0,0,1,25.46,34l.27,2.85a14.37,14.37,0,0,0-5.27-1.3,8.41,8.41,0,0,0-6.8,2.5,6.22,6.22,0,0,0-1.05,5.69,4.71,4.71,0,0,0,2.51,3.15,3.28,3.28,0,0,0,1.82.13,6.14,6.14,0,0,0,3.74-1.49,3.75,3.75,0,0,0,.75-3.94,2.64,2.64,0,1,0-4.71,2.38,4.23,4.23,0,0,0,1.07,1,1.31,1.31,0,0,1-1,.94c-.12.11-2.18.46-3.1-2.54a5.12,5.12,0,0,1,.88-4.69c1.22-1.45,3.53-2.2,6-2.08a12.82,12.82,0,0,1,4.83,1.2l-2.52,1.56a33.83,33.83,0,0,1,5.83.62A3.14,3.14,0,0,0,28,40a3.47,3.47,0,0,0-2.15,1.36,2,2,0,0,0-.2,2.14,3.07,3.07,0,0,0,1.3,1.17,8.75,8.75,0,0,0,1,.42l.73.29c2.14.76,2.92,1.17,3.15,1.65s.31-.85-.31-1.43c0,0,.33-.13.37-.33s-.35-.43-.64-.47-1.68.07-2.11-.24.31-.48.64-.81.25-.46-.17-.62-.21-.62-.77-.81a1.41,1.41,0,0,0-1.49.21,4.26,4.26,0,0,0-.91,1.4l-.11-.1a1.63,1.63,0,0,1-.51-1.64,2.78,2.78,0,0,1,1.05-1.41,3.2,3.2,0,0,1,2.78-.52,4,4,0,0,1,1.1.48l0,0c1.66,1,3.37,2,5.16,2.92a18.93,18.93,0,0,0,4.57,1.9c1.27.23,2.55.44,3.85.64l-.86.7A47.35,47.35,0,0,1,50.26,46.19Zm-20.67-6,.21,0,.18.11A3.57,3.57,0,0,0,29.59,40.16Z"/><rect x="40.8" y="45.49" width="0.58" height="3.78"/><circle cx="21.96" cy="45.22" r="0.91"/><rect x="21.67" y="45.56" width="0.58" height="2.73"/><path d="M48.2,47a.9.9,0,0,0-.86.67c-.89-.41-4.07-.72-7.87-.72H19.73c-4.49,0-8.13.43-8.13,1s3.64,1,8.13,1H39.46c3.8,0,7-.31,7.87-.72a.9.9,0,0,0,.87.69.91.91,0,0,0,0-1.82Z"/><rect x="10.06" y="42.15" width="2.32" height="0.58"/><path d="M14,14.87l-3.25-3.21H9.37l-.09-1.38L9.63,9c.35.08.69.31,1,.24s.5-1.31.39-2l0-.33a2.27,2.27,0,0,0-.37-.91,1,1,0,0,0-.42-.31,4.13,4.13,0,0,0-1-.31s0,0,0,0a.9.9,0,0,0-.25-.62.54.54,0,0,0,.25-.41,10.89,10.89,0,0,0-.51-2.54.9.9,0,1,0-.71,0,10.77,10.77,0,0,0-.51,2.53.53.53,0,0,0,.21.38.89.89,0,0,0-.29.65.28.28,0,0,0,0,0,4.14,4.14,0,0,0-1.07.31,1,1,0,0,0-.43.31,2.32,2.32,0,0,0-.37.91l0,.33c-.11.74.09,2,.39,2S6.61,9,7,9H7l.35,1.3-.09,1.38H5.88L2.51,14.83,0,18l7.45.39H9.29L16.54,18Z"/><circle cx="31.1" cy="68.61" r="14.65"/><circle class="cls-1" cx="31.06" cy="68.7" r="12.95"/><path d="M19.52,68.65A11.55,11.55,0,0,1,31.06,57.1h0A11.55,11.55,0,0,1,42.61,68.65h0A11.54,11.54,0,0,1,31.06,80.19h0A11.55,11.55,0,0,1,19.52,68.65ZM23,60.58a11.37,11.37,0,0,0-3.34,8.07h0A11.37,11.37,0,0,0,23,76.71h0a11.37,11.37,0,0,0,8.07,3.34h0a11.37,11.37,0,0,0,8.07-3.34h0a11.37,11.37,0,0,0,3.34-8.07h0a11.37,11.37,0,0,0-3.34-8.07h0a11.37,11.37,0,0,0-8.07-3.34h0A11.37,11.37,0,0,0,23,60.58Z"/><path d="M18,68.72A13.06,13.06,0,0,1,31,55.66h0A13.06,13.06,0,0,1,44.1,68.72h0A13.06,13.06,0,0,1,31,81.77h0A13.06,13.06,0,0,1,18,68.72Zm3.92-9.14a12.88,12.88,0,0,0-3.79,9.14h0a12.88,12.88,0,0,0,3.79,9.14h0A12.88,12.88,0,0,0,31,81.64h0a12.88,12.88,0,0,0,9.14-3.78h0A12.88,12.88,0,0,0,44,68.72h0a12.88,12.88,0,0,0-3.79-9.14h0A12.88,12.88,0,0,0,31,55.8h0a12.88,12.88,0,0,0-9.14,3.78Z"/><path d="M20,68.69a11,11,0,0,1,11-11h0a11,11,0,0,1,11,11h0a11,11,0,0,1-11,11h0a11,11,0,0,1-11-11ZM23.36,61a10.82,10.82,0,0,0-3.18,7.68h0a10.82,10.82,0,0,0,3.18,7.68h0A10.83,10.83,0,0,0,31,79.55h0a10.82,10.82,0,0,0,7.68-3.18h0a10.82,10.82,0,0,0,3.18-7.68h0A10.83,10.83,0,0,0,38.72,61h0A10.82,10.82,0,0,0,31,57.83h0A10.83,10.83,0,0,0,23.36,61Z"/><circle cx="31.04" cy="68.69" r="0.65"/><path d="M31.1,57.75V55.69H31v2.06Z"/><path d="M31,79.59v2.1h.1V79.6Z"/><path d="M40.7,63.61l1.81-1,0-.09-1.81,1Z"/><path d="M21.43,73.8l-1.9,1,0,.09,1.9-1Z"/><path d="M36.6,59.26l1-1.71-.09,0-1,1.71Z"/><path d="M25.6,78.16,24.52,80l.08.05L25.7,78.2Z"/><path d="M36,78.37l1,1.89.09,0-1-1.88Z"/><path d="M25.82,59l-.94-1.76-.09,0,.94,1.76Z"/><path d="M21.61,63.26l-1.82-1,0,.09,1.82,1.05Z"/><path d="M40.45,74.1l-.05.08,1.87,1.08,0-.09Z"/><path d="M20.18,68.64H18v.1h2.16S20.18,68.68,20.18,68.64Z"/><path d="M41.89,68.64v.1H44v-.1Z"/><path d="M38.87,65.83H40v.23H38.69v-.11a9.35,9.35,0,0,0,.78-1.26,2.1,2.1,0,0,0,.23-.89,1.11,1.11,0,0,0-.12-.55.35.35,0,0,0-.61,0,.8.8,0,0,0-.14.43h-.07a1.2,1.2,0,0,1,.09-.42.92.92,0,0,1,.23-.35.44.44,0,0,1,.3-.12.5.5,0,0,1,.42.26,1.14,1.14,0,0,1,.17.65,2.1,2.1,0,0,1-.25.94A7.58,7.58,0,0,1,38.87,65.83Z"/><path d="M30,61V58.78c0-.08,0-.11,0-.11l-.05,0a.71.71,0,0,1-.27.09v-.09a1.75,1.75,0,0,0,.55-.55h.07V61a.59.59,0,0,0,0,.29s.1.07.2.07v.09h-.76v-.09c.1,0,.17,0,.2-.07A.58.58,0,0,0,30,61Z"/><path d="M31,61.21h1.16v.23H30.78v-.11a9.42,9.42,0,0,0,.78-1.26,2.09,2.09,0,0,0,.23-.89,1.11,1.11,0,0,0-.12-.55.35.35,0,0,0-.61,0,.81.81,0,0,0-.14.43h-.07a1.16,1.16,0,0,1,.09-.42.91.91,0,0,1,.23-.35.44.44,0,0,1,.3-.12.5.5,0,0,1,.42.26,1.14,1.14,0,0,1,.17.65,2.09,2.09,0,0,1-.25.94A7.54,7.54,0,0,1,31,61.21Z"/><path d="M40.46,68.84v-.09a.81.81,0,0,0,.72-.82.69.69,0,0,0-.12-.4.34.34,0,0,0-.29-.16.32.32,0,0,0-.22.09.6.6,0,0,0-.16.25l-.07,0a.7.7,0,0,1,.21-.36.5.5,0,0,1,.34-.13.5.5,0,0,1,.41.21.81.81,0,0,1,.16.52.91.91,0,0,1-.11.44.8.8,0,0,1-.31.31h0a.72.72,0,0,1,.38.33,1.12,1.12,0,0,1,.14.57,1.19,1.19,0,0,1-.21.72.64.64,0,0,1-.53.28.59.59,0,0,1-.31-.08,1,1,0,0,1-.28-.28l.05-.07a.65.65,0,0,0,.46.27.45.45,0,0,0,.37-.19.8.8,0,0,0,.15-.5,1.18,1.18,0,0,0-.16-.61.47.47,0,0,0-.41-.27Z"/><path d="M39.93,73.87h-.58V75h-.24V73.87h-1v-.1l1.15-2.16h.07v2h.58Zm-1.56-.27h.74V72.22Z"/><path d="M35.9,75.34H35l0,1.15.19,0a.65.65,0,0,1,.54.26,1,1,0,0,1,.2.65,1.12,1.12,0,0,1-.21.69.62.62,0,0,1-.51.28.73.73,0,0,1-.64-.46l.06-.05a.54.54,0,0,0,.46.32.46.46,0,0,0,.38-.21.83.83,0,0,0,.15-.51.75.75,0,0,0-.16-.5.53.53,0,0,0-.43-.19h-.16l0-1.72h1Z"/><path d="M31.67,75.87V76a1.39,1.39,0,0,0-.84.59,2.34,2.34,0,0,0-.36,1.18.76.76,0,0,1,.58-.36.54.54,0,0,1,.46.26,1.13,1.13,0,0,1,.18.66,1.1,1.1,0,0,1-.21.69.63.63,0,0,1-.52.28.66.66,0,0,1-.57-.36,1.69,1.69,0,0,1-.23-.91,2.41,2.41,0,0,1,.42-1.44A1.54,1.54,0,0,1,31.67,75.87ZM31.4,78.4a1.07,1.07,0,0,0-.13-.56.4.4,0,0,0-.35-.21.6.6,0,0,0-.46.28v0a2.1,2.1,0,0,0,.14.86c.1.21.22.31.38.31a.34.34,0,0,0,.3-.2A1,1,0,0,0,31.4,78.4Z"/><path d="M25.33,75.49h-.07l.13-.83h.07s0,.08.05.09l.08,0h1.3v.11l-.81,3.18h-.3l.91-3h-1a.2.2,0,0,0-.17.07A1.56,1.56,0,0,0,25.33,75.49Z"/><path d="M23.32,74.19a1,1,0,0,1-.2.62.62.62,0,0,1-1,0,.85.85,0,0,1-.19-.57.94.94,0,0,1,.12-.48,1.49,1.49,0,0,1,.39-.42,1,1,0,0,1-.33-.39,1.13,1.13,0,0,1-.12-.51.91.91,0,0,1,.18-.58.55.55,0,0,1,.45-.22.54.54,0,0,1,.44.21.8.8,0,0,1,.17.53.94.94,0,0,1-.41.78A1.34,1.34,0,0,1,23.32,74.19Zm-1.14,0a.87.87,0,0,0,.14.5.4.4,0,0,0,.34.2.36.36,0,0,0,.3-.16.65.65,0,0,0,.12-.4,1.1,1.1,0,0,0-.54-.87A.81.81,0,0,0,22.18,74.2Zm.06-1.9a.71.71,0,0,0,.13.4,2,2,0,0,0,.42.42.73.73,0,0,0,.27-.64.93.93,0,0,0-.12-.5.35.35,0,0,0-.31-.19.33.33,0,0,0-.27.14A.56.56,0,0,0,22.24,72.3Z"/><path d="M20.83,70.54v-.09a1.28,1.28,0,0,0,.84-.58A2.28,2.28,0,0,0,22,68.68a.76.76,0,0,1-.58.36.55.55,0,0,1-.46-.26,1.12,1.12,0,0,1-.18-.66,1.09,1.09,0,0,1,.21-.68.65.65,0,0,1,.53-.27.65.65,0,0,1,.57.36,1.7,1.7,0,0,1,.22.91,2.38,2.38,0,0,1-.43,1.44A1.52,1.52,0,0,1,20.83,70.54ZM21.09,68a1.06,1.06,0,0,0,.13.56.4.4,0,0,0,.35.21.59.59,0,0,0,.45-.3,2.13,2.13,0,0,0-.14-.87q-.14-.31-.38-.31a.34.34,0,0,0-.3.2A1,1,0,0,0,21.09,68Z"/><path d="M22.35,66V63.73c0-.08,0-.11,0-.11l-.05,0a.68.68,0,0,1-.27.09v-.09a1.75,1.75,0,0,0,.55-.55h.07V66a.59.59,0,0,0,0,.29s.1.07.2.07v.09h-.76v-.09c.1,0,.17,0,.2-.07A.58.58,0,0,0,22.35,66Z"/><path d="M24.63,64.76a3.3,3.3,0,0,1-.1.88,1.48,1.48,0,0,1-.3.6.55.55,0,0,1-.41.22.56.56,0,0,1-.42-.22,1.47,1.47,0,0,1-.3-.6,3.35,3.35,0,0,1-.11-.89,3.28,3.28,0,0,1,.11-.87,1.49,1.49,0,0,1,.3-.6.5.5,0,0,1,.83,0,1.51,1.51,0,0,1,.29.6A3.28,3.28,0,0,1,24.63,64.76Zm-.31,0a3.93,3.93,0,0,0-.13-1.14c-.09-.27-.21-.41-.37-.41s-.29.14-.37.41a4.94,4.94,0,0,0,0,2.27c.09.27.21.41.37.41s.28-.13.37-.4A3.92,3.92,0,0,0,24.32,64.76Z"/><path d="M25.69,62.17V59.94c0-.08,0-.11,0-.11l-.05,0a.69.69,0,0,1-.27.09v-.09a1.74,1.74,0,0,0,.55-.55H26v2.87a.59.59,0,0,0,0,.29s.1.07.2.07v.09h-.76v-.09c.1,0,.17,0,.2-.07A.6.6,0,0,0,25.69,62.17Z"/><path d="M26.6,62.17V59.94c0-.08,0-.11,0-.11l-.05,0a.69.69,0,0,1-.27.09v-.09a1.75,1.75,0,0,0,.55-.55h.07v2.87a.6.6,0,0,0,0,.29s.1.07.2.07v.09h-.76v-.09c.1,0,.17,0,.2-.07A.59.59,0,0,0,26.6,62.17Z"/><path d="M36,62.25V60c0-.08,0-.11,0-.11l-.05,0a.69.69,0,0,1-.27.09v-.09a1.74,1.74,0,0,0,.55-.55h.07v2.87a.58.58,0,0,0,0,.29s.1.07.2.07v.09h-.76v-.09c.1,0,.17,0,.2-.07A.61.61,0,0,0,36,62.25Z"/><path d="M26,72.7a.88.88,0,1,0,1.24-.07A.89.89,0,0,0,26,72.7Zm1.2,1.1a.75.75,0,1,1-.06-1.06A.75.75,0,0,1,27.21,73.81Z"/><path d="M35.86,63.74a.86.86,0,0,0-1.47.57.76.76,0,0,0-.1-.13.85.85,0,0,0-1.21.06,1.69,1.69,0,0,0-.44,1.25c0,.42,0,.83-.05,1.25l0,0s0,.08,0,.12a1.39,1.39,0,0,1,0,.17h.05l.26,0L34,67a1.9,1.9,0,0,0,1.34-.43.86.86,0,0,0,.06-1.21l-.15-.11a.86.86,0,0,0,.57-.25A.87.87,0,0,0,35.86,63.74Zm-1.35,1a.85.85,0,0,0,.13.18.86.86,0,0,0,.19.14.94.94,0,0,0-.6.28A.94.94,0,0,0,34.51,64.79Zm.39,1.64a1.42,1.42,0,0,1-1,.32l-.89,0H32.8c0-.39,0-.77.05-1.16a1.26,1.26,0,0,1,.33-.93.61.61,0,1,1,.86.86.61.61,0,1,1,.86.86Zm.7-1.76a.47.47,0,1,1,0-.67A.47.47,0,0,1,35.6,64.67Z"/><polygon points="32.72 67.03 32.55 66.87 27.11 72.64 27.29 72.81 32.72 67.03"/><polygon points="26.17 74 26 73.84 25.48 74.4 25.64 74.56 26.17 74"/><circle cx="32.65" cy="66.96" r="0.26"/><ellipse cx="26.3" cy="73.67" rx="0.25" ry="0.28"/><path d="M33.89,72.46a.86.86,0,0,0,1.25-.11,1,1,0,0,0-.1-1.3.86.86,0,0,0-1.24.11A1,1,0,0,0,33.89,72.46ZM35,71.17A.82.82,0,0,1,35,72.29a.73.73,0,0,1-1.06.09.82.82,0,0,1-.09-1.11A.73.73,0,0,1,35,71.17Z"/><path d="M27.18,64.76a.93.93,0,0,0,0,1.28.84.84,0,0,0,.57.25l-.13.11a.93.93,0,0,0,.09,1.26,1.63,1.63,0,0,0,1.26.43l1.25,0,0,0h.12l.17,0v-.06a1.49,1.49,0,0,1,0-.27l-.08-1.19A2.06,2.06,0,0,0,30,65.2a.8.8,0,0,0-1.32.13.92.92,0,0,0-.27-.59A.84.84,0,0,0,27.18,64.76Zm1.08,1.39a.87.87,0,0,0,.17-.15.94.94,0,0,0,.14-.2,1,1,0,0,0,.29.63A.92.92,0,0,0,28.25,66.16Zm1.63-.45a1.55,1.55,0,0,1,.34,1l.06.93s0,.22,0,.22l-1.16,0a1.22,1.22,0,0,1-.94-.32.69.69,0,0,1-.06-.95.62.62,0,0,1,.91,0,.7.7,0,0,1-.07-.95A.62.62,0,0,1,29.89,65.71ZM28.11,65a.51.51,0,0,1,0,.7.46.46,0,0,1-.67,0,.51.51,0,0,1,0-.7A.46.46,0,0,1,28.11,65Z"/><path d="M30.52,68.23l3.29,3.1.16-.18L30.65,68A1.24,1.24,0,0,1,30.52,68.23Z"/><polygon points="35.11 72.22 34.95 72.41 35.52 72.94 35.68 72.76 35.11 72.22"/><ellipse cx="30.47" cy="68.06" rx="0.26" ry="0.27" transform="matrix(1, -0.02, 0.02, 1, -1.58, 0.73)"/><ellipse cx="34.89" cy="72.12" rx="0.25" ry="0.28"/><path d="M39,52.71l-.27,1.07a.86.86,0,0,0,.56,1.07l.28.07a.86.86,0,0,0,1-.68l.27-1.07a.86.86,0,0,0-.56-1.07L40,52A.86.86,0,0,0,39,52.71Zm.47.34c.07-.29.29-.49.47-.44l.12,0c.19,0,.28.32.21.61l-.16.65c-.07.29-.29.49-.47.44l-.12,0c-.19,0-.28-.32-.21-.61Z"/><path d="M39.84,49.62l-.27,1.07a.86.86,0,0,0,.56,1.07l.28.07a.86.86,0,0,0,1-.68l.27-1.07A.86.86,0,0,0,41.13,49l-.28-.07A.86.86,0,0,0,39.84,49.62Zm.47.34c.07-.29.29-.49.47-.44l.12,0c.19,0,.28.32.21.61l-.16.65c-.07.29-.29.49-.47.44l-.12,0c-.19,0-.28-.32-.21-.61Z"/><path d="M39.72,52.71a.32.32,0,0,0,.24.38h0a.32.32,0,0,0,.39-.22L40.8,51a.32.32,0,0,0-.24-.38h0a.32.32,0,0,0-.39.22Z"/><path d="M38.59,55.89a.32.32,0,0,0,.17.42h0a.32.32,0,0,0,.42-.16l.75-1.71a.32.32,0,0,0-.17-.42h0a.32.32,0,0,0-.42.16Z"/><path d="M40.44,49.71c0,.09.06.22.23.29h0c.16.07.33.06.37,0l.42-1c0-.09-.06-.22-.23-.29h0c-.17-.07-.33-.06-.37,0Z"/><path d="M22.5,52.41l-.29,0a.86.86,0,0,0-.74,1l.08,1.1a.86.86,0,0,0,.87.85l.29,0a.86.86,0,0,0,.74-1l-.07-1.1A.86.86,0,0,0,22.5,52.41Zm.39,1.76c0,.3-.12.55-.31.57h-.13c-.19,0-.37-.22-.39-.52l0-.66c0-.3.12-.55.31-.57h.13c.19,0,.37.22.39.52Z"/><path d="M22.26,49.22l-.29,0a.86.86,0,0,0-.74,1l.08,1.1a.86.86,0,0,0,.87.85l.29,0a.86.86,0,0,0,.74-1l-.08-1.1A.86.86,0,0,0,22.26,49.22ZM22.65,51c0,.3-.12.55-.31.57h-.13c-.19,0-.37-.22-.39-.52l0-.66c0-.3.12-.55.31-.57h.13c.19,0,.37.22.39.52Z"/><path d="M22.71,53.13a.32.32,0,0,1-.3.33h0a.32.32,0,0,1-.34-.29l-.13-1.87a.32.32,0,0,1,.3-.33h0a.32.32,0,0,1,.35.29Z"/><path d="M23.26,56.46a.32.32,0,0,1-.24.38h0a.32.32,0,0,1-.39-.23l-.43-1.82a.32.32,0,0,1,.24-.38h0a.32.32,0,0,1,.39.23Z"/><path d="M22.48,50.07c0,.11-.14.21-.33.23h0c-.19,0-.35,0-.36-.15L21.7,49c0-.11.14-.21.33-.23h0c.19,0,.35,0,.36.15Z"/></g></g></svg>