<svg xmlns="http://www.w3.org/2000/svg" viewBox="0 0 110.99 188.31"><defs><style>.cls-1{fill:#fff;}.cls-2{fill-rule:evenodd;}</style></defs><title>Ресурс 6clock</title><g id="Слой_2" data-name="Слой 2"><g id="Layer_1" data-name="Layer 1"><circle cx="22.47" cy="116.94" r="16.74"/><path d="M68.91,178.77c0-.79-2-1.43-4.36-1.43s-4.36.64-4.36,1.43c0,.27.23.52.62.73a.63.63,0,0,0-.16.4c0,.27.21.52.57.74a.73.73,0,0,0-.23.5c0,.31.25.59.66.83a.72.72,0,0,0-.25.51c0,.35.34.66.88.9a.8.8,0,0,0-.16.46c0,.39.34.74.87,1a.67.67,0,0,0-.23.46.87.87,0,0,0,.57.7.65.65,0,0,0-.08.29.8.8,0,0,0,.38.63.36.36,0,0,0-.08.21c0,.22.22.4.55.5a.66.66,0,0,0,0,.14.49.49,0,1,0,1,0,.67.67,0,0,0,0-.14c.33-.09.55-.28.55-.5a.34.34,0,0,0-.06-.18.82.82,0,0,0,.43-.67.67.67,0,0,0-.08-.29.87.87,0,0,0,.56-.7.67.67,0,0,0-.24-.48c.51-.24.84-.58.84-1a.78.78,0,0,0-.18-.48c.5-.23.82-.53.82-.87a.7.7,0,0,0-.23-.48c.45-.24.72-.53.72-.85a.73.73,0,0,0-.22-.49c.38-.22.6-.48.6-.75a.65.65,0,0,0-.18-.43C68.71,179.26,68.91,179,68.91,178.77Z"/><circle cx="22.18" cy="60.46" r="3.76"/><circle cx="22.41" cy="53.43" r="3.76"/><path d="M36.13,74.32C36.13,69.57,30.06,62,22.51,62S8.78,69.57,8.78,74.32A5.78,5.78,0,0,0,9.45,77h26A5.75,5.75,0,0,0,36.13,74.32Z"/><path d="M6.54,80.63c3.36,6.53,7.79,2.49,7.79,2.49,0,2.23-.61,2.1-.61,2.1,2.31.93,3.07-.56,3.24-2.36,0-.17-.28-.49-.36-.64a6.07,6.07,0,0,1-.41-2.6c0-.93-.12-1.83-.18-2.76a2.85,2.85,0,0,1,0-.7c0-.17.16-.41.12-.58l0-.06-.07.13s-2,4.78-6.42,4.93c0,0-3.44-.14-3.25-3.36.1-1.73,1.32-.9,1.57-.65a1.93,1.93,0,0,1,.42,1.89c-.41,1,.45-.45.45-.45-.22-2.87-1.92-2.86-1.92-2.86C4.13,75.53,6.54,80.63,6.54,80.63Z"/><path d="M37.73,80.32c-3.36,6.53-7.79,2.49-7.79,2.49,0,2.23.61,2.1.61,2.1-2.31.93-3.07-.56-3.24-2.36,0-.17.28-.49.36-.65a6,6,0,0,0,.41-2.6c0-.93.12-1.83.18-2.76a2.85,2.85,0,0,0,0-.7c0-.17-.16-.41-.12-.58l0-.06.07.13s2,4.78,6.42,4.93c0,0,3.43-.14,3.25-3.36-.1-1.73-1.32-.9-1.57-.65a1.93,1.93,0,0,0-.42,1.89c.41,1-.45-.45-.45-.45.22-2.87,1.92-2.86,1.92-2.86C40.14,75.22,37.73,80.32,37.73,80.32Z"/><path d="M22.33,72.53c3.55,0,6.43.5,6.43,1.13V99.21c0,.62-2.88,1.13-6.43,1.13h0c-3.55,0-6.43-.5-6.43-1.13V73.66c0-.62,2.88-1.13,6.43-1.13Z"/><path d="M110,35.06s-1.4-.44-1.81,1.59c0,0,.59,1.3.34.44a1.1,1.1,0,0,1,.49-1.27c.23-.12,1.3-.41,1.25.87-.09,2.39-3,1.62-3,1.62-3.64-1.23-4.95-5.21-4.95-5.21a8.46,8.46,0,0,0-.41-.87A17.08,17.08,0,0,0,91.61,21.68c-11.22-4.39-21.38.86-26,10.78A36.77,36.77,0,0,0,62,24c.52-2.39,1.86-5.74,5.31-7.35,0,0,4.57-1.75,6.14,2.58.84,2.32-1.22,1.92-1.69,1.73a2.76,2.76,0,0,1-1.61-2.24c-.05-1.59-.34.84-.34.84,1.9,3.64,4.11,2.67,4.11,2.67,3.45-2.07-2.57-7.4-2.57-7.4-8.07-6.67-11.59,1.11-11.59,1.11-1.31-2.89-.38-3.1-.38-3.1-2.92.07-3.55,1.7-3.24,3.64a38,38,0,0,0-28.8-11.1,29.46,29.46,0,0,0-10,2.29c-2.27-.44-4.72-1.27-6.09-2.84,0,0-2-2.81,2.84-3.85,2.6-.56,2.17.73,2,1a3.3,3.3,0,0,1-2.5,1c-1.79.06.94.19.94.19,4.07-1.24,3-2.59,3-2.59-2.36-2.1-8.29,1.72-8.29,1.72C1.72,7.46,10.5,9.52,10.5,9.52,7.26,10.38,7,9.8,7,9.8c.09,1.62,1.57,2.08,3.44,2-.39.32-.79.65-1.16,1A28.24,28.24,0,0,0,.1,36.19,24,24,0,0,0,6.29,50.36a25.06,25.06,0,0,0,3.35,3.08,23.37,23.37,0,0,0,13.74,5.09h.79c.58,0,1.17,0,1.76,0a19,19,0,0,0,11.79-4.86A18.46,18.46,0,0,0,40.87,50c0,.18,0,.36,0,.54s0,.44,0,.67a9,9,0,0,0,2.21,5.37,9.62,9.62,0,0,0,1.23,1.18,8.79,8.79,0,0,0,5.11,2h.94A7.24,7.24,0,0,0,54.89,58a7,7,0,0,0,2.44-5.34c0-.15,0-.3,0-.44a6.08,6.08,0,0,0-1.49-3.63A6.19,6.19,0,0,0,55.2,48l.23-.05a2.68,2.68,0,0,0,2.05-3.46s-.82-2.18-2-1.33c0,0-.66.57.24,1.41,0,0,.85.11.33,0a.65.65,0,0,1-.49-.65.49.49,0,0,1,.83-.36c1.18.79-.1,2-.1,2a5.26,5.26,0,0,1-4.19.88,5,5,0,0,0-2.08.07l0,.06a4.91,4.91,0,0,0-2.2,1.09,4.82,4.82,0,0,0-1.67,3.66c0,.1,0,.2,0,.31A4.14,4.14,0,0,0,46.49,53a4,4,0,0,0,.75,1.26,4.12,4.12,0,0,0,2.88,1.42h.21a3.46,3.46,0,0,0,1.51-.34,3.35,3.35,0,0,0,.93-.57,3.4,3.4,0,0,0,1.18-2.58c0-.07,0-.15,0-.21a3,3,0,0,0-.74-1.8,3.08,3.08,0,0,0-2.33-1.07h-.12a2.52,2.52,0,0,0-1.56.61,2.47,2.47,0,0,0-.81,1.36,1.43,1.43,0,0,0-.15.63A1.47,1.47,0,1,0,51,51,1.19,1.19,0,0,1,52,52.2s0,0,0,.09a1.72,1.72,0,0,1-.59,1.18,1.25,1.25,0,0,1-.92.34h-.08a2.57,2.57,0,0,1-2.34-1.53,2.32,2.32,0,0,1-.13-.76c0-.05,0-.1,0-.13a3.19,3.19,0,0,1,3.17-3h.19a4.2,4.2,0,0,1,4,4.19c0,.08,0,.17,0,.26A5.47,5.47,0,0,1,49.85,58h-.12a7.49,7.49,0,0,1-4.31-1.64,7.24,7.24,0,0,1-.81-.8,7,7,0,0,1-1.72-4.61c0-.14,0-.28,0-.42a9,9,0,0,1,9-8.51l.54,0A11.51,11.51,0,0,1,63,51.16c0,.94.07,1.88.12,2.82.18,4,.45,7.95.57,11.92v0H58.24c-.13-.85-.37-1.43-.66-1.43s-.41.35-.55.89a2.85,2.85,0,1,0,0,3.93c.14.55.33.89.55.89s.51-.54.65-1.35h5.52c0,2.11,0,5.22,0,8.94-.89-1.91-2.12-3.26-3.92-3.15l0,.08c.08.3.35.51.62.85a6.27,6.27,0,0,0,.64,2.31C59.69,77.35,56.48,81,56.48,81c1.12,1.33,2.86.11,5.47.27a2.38,2.38,0,0,1,1.14.37,3.34,3.34,0,0,0-.44.58,3.24,3.24,0,0,0-4.09,3.12,3.22,3.22,0,0,0,.12.87,3.32,3.32,0,0,0,0,4.65,3.14,3.14,0,0,0-.11.84,3.24,3.24,0,0,0,4.14,3.11,3.35,3.35,0,0,0,.75.86c-.87,1.41-2.78,3.79-5.87,3.9,0,0-3.44-.14-3.25-3.36.1-1.73,1.32-.9,1.57-.65a1.93,1.93,0,0,1,.42,1.89c-.41,1,.45-.45.45-.45-.22-2.87-1.92-2.86-1.92-2.86-2.8.38-.39,5.48-.39,5.48,3.36,6.53,7.79,2.49,7.79,2.49,0,2.23-.61,2.1-.61,2.1a2.83,2.83,0,0,0,1.72.23q-.06,1.19-.12,2.38c-.09,1.92-.16,3.83-.17,5.75h0v51.69H58.24c-.13-.85-.37-1.43-.66-1.43s-.41.35-.55.89a2.85,2.85,0,1,0,0,3.93c.14.55.33.89.55.89s.51-.54.65-1.35H63v10.38h3.2V167.24h.6a2.85,2.85,0,0,0,4.77,0h.33a4.71,4.71,0,0,0,.25.8,6.66,6.66,0,0,0-.05.84,5.71,5.71,0,0,0,.43,2.29c.29.63.67.95,1,.95A.77.77,0,0,0,74,172c.27,1,.75,1.61,1.3,1.61s1-.67,1.31-1.66c.33-.07.66-.38.91-.93a5.69,5.69,0,0,0,.44-2.29s0,0,0,0a4.64,4.64,0,0,0,.85-3,4.82,4.82,0,0,0-.79-2.91c0-.13,0-.26,0-.38a5.7,5.7,0,0,0-.43-2.28c-.29-.63-.67-.95-1-.95h0c-.28-.84-.73-1.39-1.23-1.39s-1,.65-1.3,1.62a.77.77,0,0,0-.39-.12c-.38,0-.76.32-1,.95a5.7,5.7,0,0,0-.43,2.29,7.31,7.31,0,0,0,.06.87,4.55,4.55,0,0,0-.29.92h-.2a2.83,2.83,0,0,0-5,0h-.49V128.64c4.63,8.55,13.87,12.88,24,8.92,12-4.68,13.26-18.35,7-25.9A6.88,6.88,0,0,0,96,109.54s-2.58-2.54-2-5.77c0,0,.61-2.45,2.54-1.58,1,.46.34,1.16.15,1.28a1,1,0,0,1-1.21-.13c-.57-.53.2.43.2.43,1.77.49,2-.73,2-.73.2-2.11-3.26-1.53-3.26-1.53a3.85,3.85,0,0,0-3,5c.07.27.16.53.26.8,0,.09.08.18.12.28a15.35,15.35,0,0,0-6.95-1.08,3.22,3.22,0,0,0-2,.24h0a3.15,3.15,0,0,0-.72.45A3.29,3.29,0,1,0,86,107c13.83,2.29,17.65,20.88,3.81,27.53a13.9,13.9,0,0,1-10.29.88c4.55,1.05,9.2-.44,10.46-5.1a7.55,7.55,0,0,0-.21-5.19,4.64,4.64,0,0,0-.22-1.06,4.94,4.94,0,0,1,.34-4.21s1.07-1.38,2-.3c.52.58-.11.83-.26.85A.71.71,0,0,1,91,120c-.21-.49,0,.33,0,.33,1,.81,1.49.1,1.49.1.71-1.28-1.64-1.87-1.64-1.87a2.66,2.66,0,0,0-3.28,2.36c0,.19,0,.38-.06.58a4.11,4.11,0,0,0,.12,1.19c-2.75-1.66-6.72-.86-7.7,2.78-1.41,5.23,4.77,6.38,5.65,3.12a1,1,0,1,0-.31.5c-.94,1.44-4.53.29-3.68-2.86,1.18-4.37,8.4-2.44,6.75,3.66-.93,3.44-4.4,5.24-8.79,4a17.29,17.29,0,0,1-8.43-6l.19.12a7.73,7.73,0,0,0,.71.36A3.73,3.73,0,0,0,77.19,126s1.1-3.43-.93-3.5c0,0-1.2.1-1,2,0,0,.78.9.37.26a1.12,1.12,0,0,1,.07-1.24c.14-.18.91-.79,1.19.32.52,2.06-1.9,2.37-1.9,2.37-3.14.18-5.14-2.76-5.14-2.76A6.29,6.29,0,0,0,68.38,122a15.23,15.23,0,0,1-.19-5.92c.84-4.48,4-6.82,7.47-6.16,6.21,1.17,4.81,8.51.36,7.67-3.2-.6-2.68-4.34-1-4.56a1,1,0,1,0,.58-.07c-3.32-.62-5,5.44.36,6.44,6.32,1.19,9-9,.59-11.08A5.17,5.17,0,0,0,77,108a2.46,2.46,0,0,0-.35-3.8s-1.94-1.54-2.43-.31c0,0-.2.76,1,1.12,0,0,.75-.25.25-.16a.8.8,0,0,1-.77-.36c-.08-.14-.3-.76.46-.65,1.43.2,1.08,1.76,1.08,1.76a4,4,0,0,1-2.89,2.46,4.14,4.14,0,0,0-.81.33c-3,.94-5.1,4-5.77,7.5a12.65,12.65,0,0,0-.2,2.06,81.59,81.59,0,0,1,0-13.58,2.13,2.13,0,0,0,2.42.16s-.66.13-.61-2.1c0,0,4.42,4,7.79-2.49,0,0,2.41-5.1-.39-5.49,0,0-1.7,0-1.91,2.86,0,0,.85,1.49.45.45a1.94,1.94,0,0,1,.42-1.89c.25-.25,1.47-1.08,1.57.65.19,3.22-3.25,3.36-3.25,3.36-3.1-.11-5-2.5-5.88-3.91a3.34,3.34,0,0,0,1.17-1.18,3.24,3.24,0,0,0,2.94-3.23s0,0,0,0a3.32,3.32,0,0,0,.14-5.9,3.17,3.17,0,0,0,0-.38,3.21,3.21,0,0,0-2.11-3,4.83,4.83,0,0,0,1.86-1.94c.88-1.91,0-3.94,1.29-4.88a6.15,6.15,0,0,1,1.86-.85,1.16,1.16,0,0,0,.91.67c.56,0,1-.67,1.31-1.66.33-.07.66-.38.91-.94A5.68,5.68,0,0,0,78,70.34s0,0,0,0a4.64,4.64,0,0,0,.85-3A4.83,4.83,0,0,0,78,64.39c0-.13,0-.25,0-.38a5.69,5.69,0,0,0-.43-2.28c-.29-.63-.67-.95-1-.95h0c-.28-.84-.73-1.39-1.23-1.39S74.25,60,74,61a.77.77,0,0,0-.39-.12c-.38,0-.76.31-1,.95a5.7,5.7,0,0,0-.43,2.29,7.33,7.33,0,0,0,.06.87,4.52,4.52,0,0,0-.29.92h-.2a2.83,2.83,0,0,0-5,0h0c0-1.93-.07-3.8-.1-5.58a9.55,9.55,0,0,0,.52-1.21s1.27-4.57,5.3-6.43c0,0,3.17-1.25,3.4,1.38a1,1,0,0,1-1.36,1.13,1.12,1.12,0,0,1-.62-1.33c.25-1-.36.53-.36.53.55,2.18,2.11,1.51,2.11,1.51,2.52-1.4-.31-4.49-.31-4.49-2.65-2.62-6-.93-7.58.8-.26.28-.51.57-.75.87s-.29.39-.42.59c0-5.73,0-10,.22-11.78,1.47-12.4,12.81-22.67,24.45-17.07,14.56,7,10.54,26.57-4,29a3.39,3.39,0,1,0-4.12-.23,3.33,3.33,0,0,0,.76.48h0a3.39,3.39,0,0,0,2.16.25c10.2.66,16.37-7.09,16.87-15.4l.31.32c1.5,1.39,4.5,2.54,6.75-.11C109.9,39.14,112.29,36,110,35.06ZM66.8,68.87a2.85,2.85,0,0,0,4.77,0h.33a4.71,4.71,0,0,0,.25.8,6.67,6.67,0,0,0-.05.84,5.71,5.71,0,0,0,.43,2.29c.29.63.67.95,1,.95a.76.76,0,0,0,.41-.13c0,.12.07.24.11.35a9.41,9.41,0,0,0-7.16,4.94c-.07-3.44-.15-6.82-.21-10Zm-31.58-17a16.52,16.52,0,0,1-11.07,4.29,22.31,22.31,0,0,1-13-4.58A21.06,21.06,0,0,1,3.21,34.31,26.61,26.61,0,0,1,30.79,8.7a33.55,33.55,0,0,1,32.3,32.37c-3.79-5.57-7.15-11.3-10.95-16-8.71-10.73-23.7-14-31.89-5.32a12.85,12.85,0,0,0-.87,1,5,5,0,0,0-.12-1.23c-.05-.22-.11-.44-.18-.65a3.06,3.06,0,0,0-4-2.18s-2.45,1-1.41,2.39c0,0,.69.73,1.6-.34,0,0,.08-1-.05-.37a.75.75,0,0,1-.71.59.56.56,0,0,1-.46-.93c.85-1.39,2.29,0,2.29,0a6,6,0,0,1,1.2,4.74,5.72,5.72,0,0,0,0,1.66,10.08,10.08,0,0,0-.2,4.15A12.27,12.27,0,0,0,15,37a10.46,10.46,0,0,0,.91,3.48A10.32,10.32,0,0,0,25.09,47a8.46,8.46,0,0,0,4.18-.92,8.37,8.37,0,0,0,2.29-1.47,8.26,8.26,0,0,0,2.25-3.39l.05.08a3.06,3.06,0,0,0,4.49.95s2.05-1.69.68-2.69c0,0-.87-.5-1.44.78,0,0,.2,1,.16.34a.75.75,0,0,1,.52-.77c.17,0,.92-.08.7.77-.42,1.57-2.2.63-2.2.63a6,6,0,0,1-2.5-4.21,5.75,5.75,0,0,0-.84-2.22l0,0a7.3,7.3,0,0,0-1-1.39,7.38,7.38,0,0,0-5.85-2.43,5.91,5.91,0,0,0-2.72.83,2,2,0,0,0-2.21,1l-.29-.06A10.88,10.88,0,0,1,20.18,30a10,10,0,0,1,.72-.73,10.15,10.15,0,0,1,7.22-2.63A13,13,0,0,1,40.67,40.15,16.54,16.54,0,0,1,35.22,51.84ZM19.35,33.78a2,2,0,0,0-.27,1.7,2.12,2.12,0,0,0,0,3,2.05,2.05,0,0,0,.53,2,2.07,2.07,0,0,0,2,.52,2.12,2.12,0,0,0,3.64,0,2.06,2.06,0,0,0,1.88-2.06.17.17,0,0,0,0,0,2.12,2.12,0,0,0,.09-3.76,2.27,2.27,0,0,0,0-.24,2.06,2.06,0,0,0-.19-.86,4.63,4.63,0,0,1,4.44,4.8,6.07,6.07,0,0,1-2,4.29,6.24,6.24,0,0,1-1.27.88,6.23,6.23,0,0,1-2.07.47,8.46,8.46,0,0,1-6.7-2.79,8.31,8.31,0,0,1-1.38-2.07,7.87,7.87,0,0,1-.52-3.12,10.17,10.17,0,0,1,1-4A14.72,14.72,0,0,0,19.35,33.78Zm32.32,6.11h-.43a10.79,10.79,0,0,0-6.76,2.61,10.63,10.63,0,0,0-1,1,18.86,18.86,0,0,0,.3-5.21,15.71,15.71,0,0,0-1.23-4.89,7,7,0,0,0-.5-1.38s-1.8-3.15-.37-6.09c0,0,1.25-2.2,2.87-.84.87.72,0,1.21-.2,1.27a1,1,0,0,1-1.13-.45c-.41-.67.08.46.08.46,1.58,1,2.15-.16,2.15-.16.76-2-2.73-2.35-2.73-2.35a3.83,3.83,0,0,0-4.21,3.92,16.24,16.24,0,0,0-11.73-4.17,12.61,12.61,0,0,0-6.63,2.28,10.15,10.15,0,0,1,2-4.12c6-7.56,19.56-4.18,26.79,3.82,4.7,5.2,8.32,12.19,12.94,18.72A14,14,0,0,0,51.67,39.89Z"/><path d="M39.74,104.72c-.14-.56-1.18-3.14-3.83-3.07a10.61,10.61,0,0,0-2.49.28c-.31-.2-.52-.3-.52-.3,1.73-.62,2,0,2,0-1.54-4.94-7-1-7-1a12.43,12.43,0,0,1,2.51-1.74c2.82-1.86-1.51-.14-1.51-.14A9.21,9.21,0,0,1,23,100a2.9,2.9,0,0,1-.49-.1,1,1,0,0,1-.07-.21,3.13,3.13,0,0,1-.51.15,11.41,11.41,0,0,1-6.55-.49s-5-1.08-1.56.31a15.78,15.78,0,0,1,3,1.31s-6.44-2.87-7.15,1.53l-1-.13c-2.64-.26-3.87,2.23-4,2.78A9.29,9.29,0,0,0,4.24,108s1.63-.51,2.48-.71a9.53,9.53,0,0,0,2.11-.75,4.2,4.2,0,0,0,1.56,3.55s3.42,3,5,.44c0,0,.79-1.58-1.65-2.2,0,0-1.72.58-.61.35a1.29,1.29,0,0,1,1.49.67c.11.27.28,1.52-1.3,1.37-3-.29-1.48-3.51-1.48-3.51C14,103.16,19.22,102,19.22,102a11.81,11.81,0,0,0,3.13-1.43s0,0,0,.06a11.69,11.69,0,0,0,3.58,1.33,12.74,12.74,0,0,1,8,4.67s2.08,3.22-.58,3.88a1.15,1.15,0,0,1-1.51-1.28,1.08,1.08,0,0,1,1.22-.88c1.08.11-.64-.3-.64-.3-2.12.95-1,2.51-1,2.51,2.08,2.49,4.57-1.06,4.57-1.06a4.8,4.8,0,0,0,.82-3.05c.26.1.52.19.79.28.83.26,2.42.87,2.42.89A9.29,9.29,0,0,0,39.74,104.72Zm-28-2.2a6.55,6.55,0,0,0-.54.39,6.3,6.3,0,0,0-1.39-.34A3,3,0,0,1,11.78,102.52Zm-3.31,1.79a3.5,3.5,0,0,0-1.91,1.43c0-.05,0-.62,1.45-1.58a6.91,6.91,0,0,1,2.81-.89,8.67,8.67,0,0,0-.69.69A9.32,9.32,0,0,0,8.47,104.31ZM36,103.55c-.35-.13-.65-.23-.91-.31a9.28,9.28,0,0,0-.93-.81,6.28,6.28,0,0,1,2.31,1c1.4,1.06,1.33,1.63,1.33,1.69A3.5,3.5,0,0,0,36,103.55Z"/><path d="M38.53,134.94c-.14-.56-1.18-3.14-3.83-3.07a10.61,10.61,0,0,0-2.49.28c-.31-.2-.52-.3-.52-.3,1.73-.62,2,0,2,0a3.07,3.07,0,0,0-2.47-2.44,13,13,0,0,1-6.71,2.69l.13,0a12.74,12.74,0,0,1,8,4.67s2.08,3.22-.58,3.88a1.15,1.15,0,0,1-1.51-1.28,1.08,1.08,0,0,1,1.22-.88c1.08.11-.64-.3-.64-.3-2.12.95-1,2.51-1,2.51,2.08,2.49,4.57-1.06,4.57-1.06a4.8,4.8,0,0,0,.82-3.05c.26.1.52.19.79.28.83.26,2.42.87,2.42.89A9.32,9.32,0,0,0,38.53,134.94Zm-3.76-1.17c-.35-.13-.65-.23-.91-.31a9.28,9.28,0,0,0-.93-.81,6.28,6.28,0,0,1,2.31,1c1.4,1.06,1.33,1.63,1.33,1.69A3.5,3.5,0,0,0,34.77,133.77Z"/><path d="M18.89,131.65a11.06,11.06,0,0,0,1.06-.4,12.67,12.67,0,0,1-4.56-2.08l-.38-.11s-5-1.08-1.56.31a15.74,15.74,0,0,1,3,1.31s-6.44-2.87-7.15,1.53l-1-.13c-2.64-.26-3.87,2.23-4,2.78a9.26,9.26,0,0,0-.39,2.85s1.63-.51,2.48-.71a9.52,9.52,0,0,0,2.11-.75A4.2,4.2,0,0,0,10,139.8s3.42,3,5,.44c0,0,.79-1.58-1.65-2.2,0,0-1.72.58-.61.35a1.29,1.29,0,0,1,1.49.66c.11.27.28,1.52-1.3,1.37-3-.29-1.48-3.51-1.48-3.51C13.71,132.83,18.89,131.65,18.89,131.65Zm-9.09,2a9.24,9.24,0,0,0-1.66.36,3.5,3.5,0,0,0-1.91,1.43c0-.05,0-.62,1.45-1.58a6.91,6.91,0,0,1,2.81-.89A8.6,8.6,0,0,0,9.79,133.62Zm1.11-1a6.3,6.3,0,0,0-1.39-.34,3,3,0,0,1,1.93-.05A6.48,6.48,0,0,0,10.9,132.58Z"/><path d="M29.58,136.15a20,20,0,0,1-1.4-1.75,13.38,13.38,0,0,1-2.3-3.47l-.24-.05a12.22,12.22,0,0,0-2-.22l-.16-.11a5,5,0,0,1-.61.08l0,0a13.37,13.37,0,0,0-1.42.11h-.15l.05-.13-.21,0-.23.16a12.44,12.44,0,0,0-2.81.33,13.22,13.22,0,0,1-1.76,2.46,16.79,16.79,0,0,1-2,3c-2.31,3.36,1.67-.58,1.67-.58A13.39,13.39,0,0,1,18,134c-2.55,3.53-1,9.21-.63,10.31a23.75,23.75,0,0,0,2.63,5s.9-3.22,1.44-4.79a26.27,26.27,0,0,0,.93-3.43,27,27,0,0,0,1,3c.62,1.55,1.68,4.7,1.66,4.72a23.87,23.87,0,0,0,2.39-5.14c.31-1,1.3-5.45-.24-8.84.26.26.51.53.76.83C27.89,135.65,32.06,139.4,29.58,136.15Zm-7.83-3.82-.08.16a24.5,24.5,0,0,0-1.9,4.72,11.53,11.53,0,0,0-.19,5.08c0-.09-.68-.93-.38-4.63a17.47,17.47,0,0,1,1.49-5.44,8.43,8.43,0,0,1,1.09-.42C21.77,131.94,21.76,132.12,21.75,132.32ZM25,141.75a11.47,11.47,0,0,0-.43-5.07,24.64,24.64,0,0,0-2.12-4.63l-.14-.25a9.73,9.73,0,0,1,1.41.56,16.52,16.52,0,0,1,1.43,4.73C25.65,140.79,25.06,141.66,25,141.75Z"/><circle class="cls-1" cx="22.47" cy="116.75" r="15.71"/><path d="M8.48,116.69a14,14,0,0,1,14-14h0a14,14,0,0,1,14,14h0a14,14,0,0,1-14,14h0a14,14,0,0,1-14-14Zm4.22-9.78a13.79,13.79,0,0,0-4.05,9.78h0a13.79,13.79,0,0,0,4.05,9.78h0a13.8,13.8,0,0,0,9.78,4.05h0a13.79,13.79,0,0,0,9.78-4.05h0a13.79,13.79,0,0,0,4.05-9.78h0a13.79,13.79,0,0,0-4.05-9.78h0a13.8,13.8,0,0,0-9.78-4.05h0a13.8,13.8,0,0,0-9.78,4.05Z"/><path d="M6.62,116.77a15.84,15.84,0,0,1,15.83-15.84h0a15.84,15.84,0,0,1,15.84,15.84h0a15.84,15.84,0,0,1-15.84,15.84h0A15.84,15.84,0,0,1,6.62,116.77Zm4.76-11.08a15.62,15.62,0,0,0-4.59,11.08h0a15.62,15.62,0,0,0,4.59,11.08h0a15.62,15.62,0,0,0,11.08,4.59h0a15.63,15.63,0,0,0,11.08-4.59h0a15.62,15.62,0,0,0,4.59-11.08h0a15.62,15.62,0,0,0-4.59-11.08h0a15.62,15.62,0,0,0-11.08-4.59h0a15.61,15.61,0,0,0-11.08,4.59Z"/><path d="M9.12,116.74A13.34,13.34,0,0,1,22.45,103.4h0a13.34,13.34,0,0,1,13.34,13.34h0a13.34,13.34,0,0,1-13.34,13.34h0A13.34,13.34,0,0,1,9.12,116.74Zm4-9.31a13.13,13.13,0,0,0-3.86,9.31h0a13.13,13.13,0,0,0,3.86,9.31h0a13.13,13.13,0,0,0,9.31,3.86h0a13.12,13.12,0,0,0,9.31-3.86h0a13.13,13.13,0,0,0,3.86-9.31h0a13.13,13.13,0,0,0-3.86-9.31h0a13.13,13.13,0,0,0-9.31-3.86h0a13.13,13.13,0,0,0-9.31,3.86Z"/><circle cx="22.45" cy="116.74" r="0.79"/><path d="M22.53,103.47V101h-.12v2.49Z"/><path d="M22.41,130v2.55h.12V130Z"/><path d="M34.16,110.58l2.2-1.17-.06-.11-2.19,1.17Z"/><path d="M10.8,122.94,8.5,124.17l.06.11,2.3-1.23Z"/><path d="M29.19,105.3l1.19-2.07-.1-.06-1.19,2.08Z"/><path d="M15.86,128.23l-1.31,2.27.1.06L16,128.28Z"/><path d="M28.52,128.48l1.23,2.29.11-.06-1.22-2.28Z"/><path d="M16.12,105,15,102.91l-.11.06L16,105.1Z"/><path d="M11,110.15l-2.21-1.27-.06.1L11,110.26Z"/><path d="M33.87,123.31l-.06.1,2.27,1.31.06-.1Z"/><path d="M9.29,116.69H6.67v.12H9.29S9.29,116.73,9.29,116.69Z"/><path d="M35.61,116.69s0,.08,0,.12H38.2v-.12Z"/><path d="M32,113.27h1.41v.28H31.72v-.14a11.17,11.17,0,0,0,.95-1.53,2.55,2.55,0,0,0,.28-1.08,1.34,1.34,0,0,0-.14-.67.42.42,0,0,0-.38-.24.43.43,0,0,0-.36.19,1,1,0,0,0-.17.52h-.08a1.49,1.49,0,0,1,.11-.51,1.14,1.14,0,0,1,.28-.42.54.54,0,0,1,.37-.15.61.61,0,0,1,.51.32,1.4,1.4,0,0,1,.21.78,2.53,2.53,0,0,1-.31,1.14A9,9,0,0,1,32,113.27Z"/><path d="M21.21,107.42v-2.7c0-.09,0-.14,0-.14l-.06,0a.85.85,0,0,1-.32.11v-.11a2.14,2.14,0,0,0,.67-.67h.08v3.48a.73.73,0,0,0,.05.35.28.28,0,0,0,.24.08v.1h-.91v-.1c.12,0,.2,0,.24-.08A.71.71,0,0,0,21.21,107.42Z"/><path d="M22.36,107.67h1.41V108H22.13v-.14a11,11,0,0,0,.94-1.53,2.52,2.52,0,0,0,.28-1.08,1.34,1.34,0,0,0-.14-.67.43.43,0,0,0-.74-.05,1,1,0,0,0-.17.52h-.08a1.45,1.45,0,0,1,.11-.51,1.1,1.1,0,0,1,.28-.42.54.54,0,0,1,.37-.15.61.61,0,0,1,.51.32,1.39,1.39,0,0,1,.21.78,2.54,2.54,0,0,1-.31,1.14A9.05,9.05,0,0,1,22.36,107.67Z"/><path d="M33.87,116.92v-.11a1,1,0,0,0,.88-1,.82.82,0,0,0-.14-.49.41.41,0,0,0-.35-.2.4.4,0,0,0-.27.11.71.71,0,0,0-.19.3l-.08,0a.85.85,0,0,1,.25-.44.61.61,0,0,1,.42-.16.6.6,0,0,1,.49.25,1,1,0,0,1,.2.63,1.1,1.1,0,0,1-.13.53,1,1,0,0,1-.38.38h0a.87.87,0,0,1,.46.4,1.34,1.34,0,0,1,.17.69,1.43,1.43,0,0,1-.25.88.77.77,0,0,1-.65.34.71.71,0,0,1-.38-.1,1.2,1.2,0,0,1-.33-.33l.06-.08a.8.8,0,0,0,.56.32.55.55,0,0,0,.45-.23,1,1,0,0,0,.18-.61,1.43,1.43,0,0,0-.19-.74.57.57,0,0,0-.5-.33Z"/><path d="M33.24,123h-.7v1.35h-.3V123H31.06v-.12l1.39-2.61h.08v2.42h.7Zm-1.89-.32h.9V121Z"/><path d="M28.34,124.81H27.27l0,1.39.23,0a.79.79,0,0,1,.65.32,1.24,1.24,0,0,1,.25.78,1.36,1.36,0,0,1-.25.84.75.75,0,0,1-.62.33.89.89,0,0,1-.77-.56l.08-.06a.66.66,0,0,0,.55.39.56.56,0,0,0,.46-.25,1,1,0,0,0,.19-.62.91.91,0,0,0-.19-.6.66.66,0,0,0-.53-.23l-.19,0,0-2.08h1.21Z"/><path d="M23.21,125.45v.11a1.69,1.69,0,0,0-1,.72,2.85,2.85,0,0,0-.44,1.43.92.92,0,0,1,.7-.43.66.66,0,0,1,.56.31,1.38,1.38,0,0,1,.22.8,1.34,1.34,0,0,1-.26.83.77.77,0,0,1-.64.34.8.8,0,0,1-.69-.44,2.06,2.06,0,0,1-.27-1.11,2.92,2.92,0,0,1,.51-1.75A1.88,1.88,0,0,1,23.21,125.45Zm-.32,3.07a1.27,1.27,0,0,0-.16-.68.48.48,0,0,0-.42-.26.72.72,0,0,0-.55.34v0a2.51,2.51,0,0,0,.18,1c.11.25.27.38.46.38a.41.41,0,0,0,.36-.24A1.23,1.23,0,0,0,22.89,128.52Z"/><path d="M15.53,125h-.09l.15-1h.08c0,.06,0,.1.06.11l.09,0h1.57v.13l-1,3.85h-.36l1.1-3.6H15.93a.25.25,0,0,0-.2.09A2,2,0,0,0,15.53,125Z"/><path d="M13.09,123.41a1.17,1.17,0,0,1-.24.75.75.75,0,0,1-1.18,0,1,1,0,0,1-.23-.69,1.13,1.13,0,0,1,.15-.58,1.8,1.8,0,0,1,.48-.51,1.28,1.28,0,0,1-.4-.47,1.35,1.35,0,0,1-.14-.61,1.11,1.11,0,0,1,.21-.7.67.67,0,0,1,.55-.27.66.66,0,0,1,.53.26,1,1,0,0,1,.21.64,1.14,1.14,0,0,1-.49.94A1.63,1.63,0,0,1,13.09,123.41Zm-1.38,0a1.06,1.06,0,0,0,.17.61.48.48,0,0,0,.41.24.44.44,0,0,0,.37-.19.78.78,0,0,0,.15-.49,1.33,1.33,0,0,0-.65-1.06A1,1,0,0,0,11.71,123.43Zm.07-2.31a.85.85,0,0,0,.15.49,2.42,2.42,0,0,0,.5.52.89.89,0,0,0,.33-.77,1.11,1.11,0,0,0-.14-.6.43.43,0,0,0-.37-.23.4.4,0,0,0-.33.17A.7.7,0,0,0,11.78,121.12Z"/><path d="M10.07,119v-.11a1.54,1.54,0,0,0,1-.7,2.77,2.77,0,0,0,.44-1.44.92.92,0,0,1-.7.43.66.66,0,0,1-.56-.31A1.36,1.36,0,0,1,10,116a1.32,1.32,0,0,1,.26-.83.78.78,0,0,1,.64-.33.79.79,0,0,1,.69.43,2,2,0,0,1,.27,1.1,2.89,2.89,0,0,1-.52,1.75A1.86,1.86,0,0,1,10.07,119Zm.32-3.06a1.27,1.27,0,0,0,.16.68.48.48,0,0,0,.43.26.71.71,0,0,0,.55-.37,2.54,2.54,0,0,0-.17-1.05c-.11-.25-.27-.38-.46-.38a.42.42,0,0,0-.36.24A1.2,1.2,0,0,0,10.39,115.93Z"/><path d="M11.91,113.42v-2.7c0-.09,0-.14,0-.14l-.06,0a.85.85,0,0,1-.32.11v-.11a2.12,2.12,0,0,0,.67-.67h.08v3.48a.72.72,0,0,0,.06.35.28.28,0,0,0,.24.08v.1h-.92v-.1c.12,0,.2,0,.24-.08A.74.74,0,0,0,11.91,113.42Z"/><path d="M14.68,112a3.93,3.93,0,0,1-.13,1.06,1.81,1.81,0,0,1-.36.73.66.66,0,0,1-.5.26.67.67,0,0,1-.5-.26,1.83,1.83,0,0,1-.36-.73A4.17,4.17,0,0,1,12.7,112a3.9,3.9,0,0,1,.13-1.05,1.76,1.76,0,0,1,.36-.72.67.67,0,0,1,.5-.26.66.66,0,0,1,.5.26,1.8,1.8,0,0,1,.36.73A3.91,3.91,0,0,1,14.68,112Zm-.38,0a4.72,4.72,0,0,0-.16-1.38q-.16-.49-.45-.49c-.19,0-.35.17-.45.5a4.78,4.78,0,0,0-.16,1.37,4.63,4.63,0,0,0,.16,1.38c.11.33.26.5.45.5s.35-.16.45-.49A4.64,4.64,0,0,0,14.3,112Z"/><path d="M16,108.83v-2.7c0-.09,0-.14,0-.14l-.06,0a.86.86,0,0,1-.33.11V106a2.1,2.1,0,0,0,.67-.67h.09v3.48a.73.73,0,0,0,.05.35c0,.05.12.08.24.08v.1h-.92v-.1c.12,0,.2,0,.24-.08A.72.72,0,0,0,16,108.83Z"/><path d="M17.07,108.83v-2.7c0-.09,0-.14,0-.14L17,106a.86.86,0,0,1-.32.11V106a2.12,2.12,0,0,0,.67-.67h.09v3.48a.75.75,0,0,0,.05.35c0,.05.12.08.24.08v.1h-.92v-.1c.12,0,.2,0,.24-.08A.73.73,0,0,0,17.07,108.83Z"/><path d="M28.48,108.94v-2.7c0-.09,0-.14,0-.14l-.06,0a.84.84,0,0,1-.32.11v-.11a2.15,2.15,0,0,0,.67-.67h.08v3.48a.73.73,0,0,0,.06.35c0,.05.12.08.24.08v.1h-.92v-.1c.12,0,.2,0,.24-.08A.74.74,0,0,0,28.48,108.94Z"/><path class="cls-2" d="M15.53,120.83c.44.28.36.75.07.87s-.41,0-.39-.37a.36.36,0,0,0,.19.54c.61.15.92-.83.15-1.22-1-.47-1.39.92-1.68,1.9a1.91,1.91,0,0,1-.12.38,2.18,2.18,0,0,1-.15.35l.22,0C14.21,122.37,14.47,120.3,15.53,120.83Z"/><path class="cls-2" d="M15.94,122.31c-.35-.09-.36-.32-.24-.48s.67-.18.81.33c.2,1.17-1.86.81-2.82.92a1.58,1.58,0,0,1-.11.2h0c.67-.17,3.32.33,3.11-1.1-.15-.85-1.18-.84-1.21-.21A.36.36,0,0,0,15.94,122.31Z"/><path class="cls-2" d="M24.7,113.56c-.14-.5.24-.8.53-.69s.3.28,0,.53a.36.36,0,0,0,.23-.53c-.35-.52-1.24,0-.94.8.41,1,1.65.26,2.52-.26a1.76,1.76,0,0,1,.35-.2,1.89,1.89,0,0,1,.35-.16l-.18-.13C26.7,113.32,25.11,114.67,24.7,113.56Z"/><path class="cls-2" d="M26.54,115.16c.32-.17.49,0,.5.19s-.38.58-.82.3c-.93-.73.84-1.85,1.48-2.57a1.62,1.62,0,0,1-.06-.22h0c-.38.58-2.69,2-1.57,2.9.69.53,1.44-.17,1-.66A.36.36,0,0,0,26.54,115.16Z"/><polygon points="27.78 113.04 27.63 112.84 15.88 121.43 16.03 121.63 27.78 113.04"/><path class="cls-2" d="M25.35,121c.22-.47.7-.45.85-.18s0,.41-.32.43a.36.36,0,0,0,.52-.25c.08-.62-.93-.82-1.24,0-.34,1,1.09,1.27,2.09,1.44a1.84,1.84,0,0,1,.4.07,2,2,0,0,1,.37.1,1.53,1.53,0,0,1-.06-.22C27,122.12,25,122.11,25.35,121Z"/><path class="cls-2" d="M26.77,120.41c0,.36-.27.4-.44.3s-.26-.65.22-.84c1.13-.34,1,1.75,1.26,2.69l.21.08h0c-.25-.64-.07-3.34-1.47-2.95-.83.26-.69,1.28-.06,1.23A.36.36,0,0,0,26.77,120.41Z"/><path class="cls-2" d="M20.51,116.48c-.48.2-.82-.14-.75-.44s.24-.33.52-.1a.36.36,0,0,0-.55-.16c-.47.41.14,1.23.91.83,1-.53.05-1.67-.57-2.47a1.76,1.76,0,0,1-.24-.32,2.06,2.06,0,0,1-.2-.32l-.11.2C20,114.52,21.55,115.93,20.51,116.48Z"/><path class="cls-2" d="M21.87,114.46c-.21-.3-.07-.48.13-.52s.63.31.4.78c-.61,1-1.94-.61-2.74-1.15l-.21.08h0c.62.31,2.29,2.43,3.07,1.2.44-.75-.35-1.41-.78-1A.36.36,0,0,0,21.87,114.46Z"/><rect x="22.68" y="112.27" width="0.26" height="9.58" transform="translate(-73.89 47.25) rotate(-43.15)"/></g></g></svg>