<svg xmlns="http://www.w3.org/2000/svg" viewBox="0 0 189.18 164.84"><defs><style>.cls-1{fill:#fff;}</style></defs><title>Ресурс 14clock</title><g id="Слой_2" data-name="Слой 2"><g id="Layer_1" data-name="Layer 1"><ellipse cx="42.13" cy="113.2" rx="25.64" ry="61.5" transform="translate(-59.32 47.66) rotate(-36.72)"/><circle cx="111.33" cy="61.79" r="61.11" transform="translate(-14.85 78.83) rotate(-36.72)"/><circle class="cls-1" cx="111.55" cy="61.59" r="54.85" transform="translate(-14.69 78.92) rotate(-36.72)"/><path d="M161.53,8.74a14.41,14.41,0,1,0,18.91-7.57A14.41,14.41,0,0,0,161.53,8.74Zm24.39,10.81A12.3,12.3,0,1,1,179.45,3.4,12.29,12.29,0,0,1,185.91,19.55Z"/><path d="M145.61,57.76l0-1.18h.17a.67.67,0,0,0,.47.28,4.75,4.75,0,0,0,1,0l4.14-.1c.34,0,.58,0,.72,0a1.54,1.54,0,0,0,.38-.08.63.63,0,0,0,.39-.29h.17l0,1.18h-.17a.68.68,0,0,0-.47-.28,2.08,2.08,0,0,0-.38,0h-.67l-4.14.1c-.3,0-.53,0-.7,0a1.66,1.66,0,0,0-.4.08.6.6,0,0,0-.39.29Zm.42-.85-.16-.07v.55l.16-.08.22-.09a1,1,0,0,1,.25,0h.27l5.13-.12h.27a1,1,0,0,1,.25,0,1,1,0,0,1,.22.08l.24.1,0-.62-.23.11-.21.09-.25,0h-.27l-5.13.13h-.52Z"/><path d="M142.57,76.52l.5-1.07.15.08a.66.66,0,0,0,.29.46,5,5,0,0,0,.92.51l3.75,1.76c.31.15.53.24.66.29a1.66,1.66,0,0,0,.38.1.59.59,0,0,0,.47-.08l.15.07-.5,1.07-.15-.07a.66.66,0,0,0-.29-.46,2.41,2.41,0,0,0-.32-.21l-.6-.3-3.76-1.75-.64-.28a2.05,2.05,0,0,0-.4-.11.61.61,0,0,0-.48.08Zm.75-.57-.11-.14-.23.5h.18a.82.82,0,0,1,.23,0l.23.09.11,0,.05,0,.08,0,4.65,2.17.08,0,.06,0,.11,0a.91.91,0,0,1,.22.12.92.92,0,0,1,.16.17l.16.2.27-.56h-.49a1.32,1.32,0,0,1-.24-.09l-.16-.08-.09,0-4.64-2.18-.08,0-.16-.08a1.26,1.26,0,0,1-.22-.12A1,1,0,0,1,143.32,76Z"/><path d="M142,77.78l.5-1.07.15.07a.68.68,0,0,0,.29.46,5.35,5.35,0,0,0,.92.51l3.76,1.75c.31.14.53.24.66.29a1.93,1.93,0,0,0,.37.1.62.62,0,0,0,.48-.09l.15.07-.5,1.07-.15-.07a.67.67,0,0,0-.29-.46,2.58,2.58,0,0,0-.32-.21l-.6-.3-3.76-1.75c-.27-.13-.49-.22-.64-.28a2.1,2.1,0,0,0-.4-.11.61.61,0,0,0-.47.09Zm.75-.58-.11-.13-.23.5h.17l.23,0,.23.09.11,0,.06,0,.08,0L147.92,80l.09,0,.06,0,.11,0a1.35,1.35,0,0,1,.22.12,1.2,1.2,0,0,1,.16.17l.16.2L149,80h-.49l-.24-.09-.16-.08-.08,0-4.65-2.18-.08,0-.17-.07-.22-.12Z"/><path d="M132.41,88.41l.94-.71.1.13a.69.69,0,0,0,0,.55,5.11,5.11,0,0,0,.58.88l2.5,3.29c.21.27.36.46.45.56a1.84,1.84,0,0,0,.29.26.6.6,0,0,0,.47.14l.1.14-.94.71-.1-.13a.65.65,0,0,0,0-.54,2.22,2.22,0,0,0-.19-.33c-.09-.13-.21-.32-.39-.54l-2.51-3.29a7,7,0,0,0-.44-.55,1.6,1.6,0,0,0-.3-.28.6.6,0,0,0-.46-.14Zm.94-.16,0-.17-.44.34.16.07a1,1,0,0,1,.2.13.65.65,0,0,1,.16.18l.07.1,0,0,.06.07,3.1,4.09.05.08,0,.05.07.09a1.52,1.52,0,0,1,.13.21,1,1,0,0,1,.07.22l.05.25.49-.38-.22-.12-.2-.12a1.05,1.05,0,0,1-.17-.19l-.11-.14-.05-.08-3.1-4.08-.06-.08-.11-.14a1.38,1.38,0,0,1-.14-.21A1.07,1.07,0,0,1,133.35,88.26Z"/><path d="M131.31,89.26l.94-.71.1.14a.68.68,0,0,0,0,.54,5.65,5.65,0,0,0,.58.88l2.51,3.3c.21.27.36.46.46.56a1.6,1.6,0,0,0,.29.26.64.64,0,0,0,.46.15l.1.13-.94.71-.1-.13a.67.67,0,0,0,0-.55,2.88,2.88,0,0,0-.19-.33l-.39-.54-2.51-3.3c-.18-.24-.33-.42-.44-.55a1.88,1.88,0,0,0-.3-.28.62.62,0,0,0-.46-.15Zm.93-.16,0-.17-.44.33.15.08a1.15,1.15,0,0,1,.2.13.86.86,0,0,1,.16.18l.08.1,0,0,.06.07,3.1,4.08.06.08,0,.05.07.09a1.83,1.83,0,0,1,.13.21,1,1,0,0,1,.07.23l.06.25.49-.37-.22-.12a1,1,0,0,1-.2-.12,1.13,1.13,0,0,1-.17-.19l-.11-.14-.06-.07-3.1-4.08-.06-.07-.11-.15a1.33,1.33,0,0,1-.14-.21A1.1,1.1,0,0,1,132.24,89.09Z"/><path d="M130.2,90.09l.94-.71.1.14a.67.67,0,0,0,0,.54,5.21,5.21,0,0,0,.58.88l2.5,3.3c.21.27.36.46.46.56a1.7,1.7,0,0,0,.29.26.6.6,0,0,0,.46.15l.1.14-.94.71-.1-.14a.65.65,0,0,0,0-.54,2.39,2.39,0,0,0-.19-.33c-.09-.13-.21-.31-.39-.54l-2.51-3.29c-.18-.24-.33-.42-.44-.55a1.74,1.74,0,0,0-.3-.28.57.57,0,0,0-.46-.14Zm.94-.16,0-.17-.44.33.15.08a1,1,0,0,1,.2.13.92.92,0,0,1,.17.18l.07.1,0,0,.06.07,3.1,4.09.06.08,0,.05.07.09a1.32,1.32,0,0,1,.13.21,1.08,1.08,0,0,1,.07.22l.05.25.5-.38-.23-.11-.2-.12a1.17,1.17,0,0,1-.16-.19l-.11-.15-.06-.07-3.1-4.09-.06-.07-.11-.15a1.1,1.1,0,0,1-.14-.21A1,1,0,0,1,131.14,89.94Z"/><path d="M139,39.65l1.44-1.7-1.66.69a3.2,3.2,0,0,0-.66.36c-.34.25-.46.5-.35.74l-.14.1L137,39l.13-.1a.61.61,0,0,0,.34,0l.41-.1.41-.13.36-.13.08,0,1.8-.74,1.32-1.55,0,0,.08-.09.3-.36a7.29,7.29,0,0,0,.52-.68.54.54,0,0,0,.11-.35l.14-.1.72,1-.14.1a.28.28,0,0,0-.24-.11.8.8,0,0,0-.34.18,3,3,0,0,0-.47.46l-1.05,1.23,1.22-.48a3.64,3.64,0,0,0,.82-.41c.27-.2.37-.4.28-.59l.14-.1.54.73-.14.1a.58.58,0,0,0-.29,0,3,3,0,0,0-.5.11L143,37l-.22.08-1.35.53-1.83,2.17a10.45,10.45,0,0,0-.69.89.69.69,0,0,0-.15.42l-.14.1-.73-1,.14-.1a.39.39,0,0,0,.18.1.28.28,0,0,0,.18,0,1,1,0,0,0,.24-.14A2.64,2.64,0,0,0,139,39.65Zm-1.61-.58.21.29A1.94,1.94,0,0,1,138,39l.24-.17A4.49,4.49,0,0,1,137.4,39.07Zm.91,1.21.31.42.17-.26c0-.08.13-.18.23-.31l.48-.58,2.7-3.18a5.18,5.18,0,0,1,.72-.73,1.33,1.33,0,0,1,.47-.23L143,34.9a2.34,2.34,0,0,1-.21.35c-.08.11-.24.3-.46.56l-.32.39-.06.07,0,.05,0,0v0l-2.78,3.27-.23.25-.23.2A1.83,1.83,0,0,1,138.3,40.28Zm5.9-3.8-.23-.3a1,1,0,0,1-.34.4l-.18.11A5,5,0,0,1,144.2,36.48Z"/><path d="M139.41,42.23l-.71-.94.14-.1a.65.65,0,0,0,.54,0,4.77,4.77,0,0,0,.88-.57l3.32-2.48c.27-.2.46-.35.57-.45a1.55,1.55,0,0,0,.26-.29.6.6,0,0,0,.15-.46l.14-.1.71.95-.14.1a.63.63,0,0,0-.54,0,1.82,1.82,0,0,0-.34.18l-.55.39-3.32,2.48c-.24.18-.42.33-.55.44a1.8,1.8,0,0,0-.28.3.59.59,0,0,0-.15.46Zm-.15-.94-.17,0,.33.44.09-.16a1.19,1.19,0,0,1,.12-.19,1.35,1.35,0,0,1,.18-.16l.1-.08,0,0,.07-.05L144.14,38l.08-.06.05,0,.09-.07a1.08,1.08,0,0,1,.21-.13,1,1,0,0,1,.22-.06l.25-.05-.37-.5-.12.23a1.25,1.25,0,0,1-.12.19,1.13,1.13,0,0,1-.19.16l-.14.11-.07.05-4.12,3.07-.07.05-.15.11-.2.13Z"/><path d="M140.24,43.34l-.71-.95.14-.1a.65.65,0,0,0,.54,0,5,5,0,0,0,.88-.57l3.32-2.48c.27-.2.46-.35.57-.45a1.58,1.58,0,0,0,.26-.28.62.62,0,0,0,.15-.46l.14-.1.7.95-.14.1a.66.66,0,0,0-.54,0,2.07,2.07,0,0,0-.34.19c-.13.08-.31.21-.55.39L141.36,42c-.24.18-.42.32-.55.43a2,2,0,0,0-.28.3.61.61,0,0,0-.15.46Zm-.15-.94-.17,0,.33.45.08-.16a1,1,0,0,1,.12-.19,1,1,0,0,1,.18-.16l.1-.07,0,0,.07-.05L145,39.14l.07-.05.05,0,.09-.07a1,1,0,0,1,.21-.13l.22-.06.25-.05-.37-.5-.12.23a1.2,1.2,0,0,1-.12.19,1.1,1.1,0,0,1-.19.16l-.14.11-.08.06L140.74,42l-.07.05-.15.11a1.07,1.07,0,0,1-.21.13Z"/><path d="M116.59,96l1.18-.08v.17a.66.66,0,0,0-.26.47,4.53,4.53,0,0,0,0,1.05l.26,4.13c0,.34,0,.58.07.72a1.62,1.62,0,0,0,.09.38.61.61,0,0,0,.31.38v.17l-1.18.07v-.17a.67.67,0,0,0,.27-.48,2.49,2.49,0,0,0,0-.38c0-.16,0-.38,0-.67l-.26-4.13c0-.3,0-.53-.06-.7a2,2,0,0,0-.09-.4.63.63,0,0,0-.31-.37Zm.86.39.07-.16-.55,0,.09.15a1.31,1.31,0,0,1,.1.22,1,1,0,0,1,0,.25V97a.4.4,0,0,1,0,.06v.09l.33,5.12v.09s0,.05,0,.07v.12a.92.92,0,0,1,0,.24,1.08,1.08,0,0,1-.07.23l-.09.24.62,0-.12-.22-.09-.21a1.33,1.33,0,0,1,0-.25s0-.1,0-.18v-.09l-.33-5.12V97c0-.08,0-.14,0-.18a1.91,1.91,0,0,1,0-.25A1.14,1.14,0,0,1,117.45,96.39Z"/><path d="M115.93,102.17l-1-4.59-.34,4a6.27,6.27,0,0,0,0,.85,1.89,1.89,0,0,0,.14.67.7.7,0,0,0,.33.35v.17l-1,.06v-.17a1.15,1.15,0,0,0,.19-.36,3.76,3.76,0,0,0,.14-.61c0-.28.08-.62.12-1l.48-5.57h0l1.3,5.9a9.73,9.73,0,0,0,.28,1.11.74.74,0,0,0,.29.38l0,.17-1.23.08v-.17h0a.35.35,0,0,0,.24-.2,1.07,1.07,0,0,0,0-.46A4,4,0,0,0,115.93,102.17Zm-.88-5.9L115,97l1.1,5.12a4.19,4.19,0,0,1,.1.63,1.75,1.75,0,0,1,0,.3,1.26,1.26,0,0,1-.07.31l.58,0a3.11,3.11,0,0,1-.24-.66l-.1-.4c0-.07,0-.19-.08-.34Zm-.71,7.18.46,0a1.67,1.67,0,0,1-.19-.38,2.33,2.33,0,0,1-.08-.48c0,.22,0,.39-.07.51A2.56,2.56,0,0,1,114.34,103.45Z"/><path d="M95,98.62l1.72-4.37-2.49,3.13a6,6,0,0,0-.5.7,2,2,0,0,0-.25.64.66.66,0,0,0,.08.47l-.09.15-.85-.49.08-.14a1,1,0,0,0,.36-.19,3.89,3.89,0,0,0,.46-.43q.29-.31.67-.79l3.49-4.36,0,0-2.2,5.63a9.52,9.52,0,0,0-.38,1.09.68.68,0,0,0,0,.47l-.09.15L94,99.66l.09-.15,0,0a.36.36,0,0,0,.31,0,1,1,0,0,0,.29-.36A3.67,3.67,0,0,0,95,98.62Zm2.54-5.4-.43.54L95.2,98.64a4.51,4.51,0,0,1-.27.57,1.77,1.77,0,0,1-.17.25,1.55,1.55,0,0,1-.24.22l.5.29a3.3,3.3,0,0,1,.16-.68c0-.07.08-.2.14-.39l.13-.33ZM93,98.8l.4.23a1.56,1.56,0,0,1,.05-.42,2.43,2.43,0,0,1,.2-.45c-.14.17-.25.3-.34.38A2.81,2.81,0,0,1,93,98.8Z"/><path d="M80.09,87l3.46-3.17-3.61,1.72a5.52,5.52,0,0,0-.74.41,2,2,0,0,0-.51.46.73.73,0,0,0-.13.46l-.14.09-.55-.81.14-.09a1.13,1.13,0,0,0,.41,0,3.47,3.47,0,0,0,.6-.19c.26-.1.59-.25,1-.42l5-2.39,0,0-4.43,4.1a9.12,9.12,0,0,0-.82.81.67.67,0,0,0-.19.44l-.15.1-.69-1,.14-.1,0,0a.35.35,0,0,0,.3.11,1.08,1.08,0,0,0,.42-.19A4,4,0,0,0,80.09,87Zm4.65-3.74-.63.29-3.86,3.54a4.4,4.4,0,0,1-.49.39,1.37,1.37,0,0,1-.57.24l.32.48a3.37,3.37,0,0,1,.45-.54l.3-.29.25-.24Zm-6.55,3,.26.38a1.78,1.78,0,0,1,.24-.35A2.47,2.47,0,0,1,79,86a4.29,4.29,0,0,1-.47.19A2.62,2.62,0,0,1,78.18,86.32Z"/><path d="M83.33,80.93l.66,1-.14.1a.64.64,0,0,0-.54,0,4.81,4.81,0,0,0-.91.53L79,84.85c-.29.19-.48.33-.59.42a1.89,1.89,0,0,0-.28.28.61.61,0,0,0-.17.45l-.14.09-.66-1,.14-.1a.67.67,0,0,0,.54,0,2.13,2.13,0,0,0,.34-.17l.56-.36,3.44-2.32c.25-.17.44-.31.57-.41a2.22,2.22,0,0,0,.3-.29.62.62,0,0,0,.17-.45Zm.11.94.17,0-.31-.46-.09.15a1.13,1.13,0,0,1-.14.19,1.18,1.18,0,0,1-.19.15l-.1.07-.05,0-.08.05-4.25,2.87-.08.05-.05,0-.1.07a1.13,1.13,0,0,1-.21.12,1,1,0,0,1-.23.06l-.25,0,.35.51.13-.22a1.42,1.42,0,0,1,.13-.19,1,1,0,0,1,.2-.15l.15-.11.08,0,4.25-2.87.07,0,.15-.1.22-.12A1,1,0,0,1,83.43,81.87Z"/><path d="M71.67,68.48l4.56-1.11-4-.24a5.86,5.86,0,0,0-.85,0,1.91,1.91,0,0,0-.67.16.69.69,0,0,0-.34.34l-.17,0-.09-1,.17,0a1.06,1.06,0,0,0,.37.19,4,4,0,0,0,.62.12c.28,0,.63.06,1,.09l5.58.34v0L72,68.89a9.94,9.94,0,0,0-1.11.32.69.69,0,0,0-.38.29l-.17,0-.11-1.23.16,0v0a.37.37,0,0,0,.21.24,1,1,0,0,0,.46,0A3.84,3.84,0,0,0,71.67,68.48Zm5.88-1-.7,0-5.09,1.24a5.05,5.05,0,0,1-.62.11,1.35,1.35,0,0,1-.3,0,1.51,1.51,0,0,1-.32-.06l.05.58a3.41,3.41,0,0,1,.65-.25l.4-.11.34-.08Zm-7.2-.52,0,.46a1.87,1.87,0,0,1,.38-.2,2.4,2.4,0,0,1,.48-.1L70.74,67A2.68,2.68,0,0,1,70.35,66.93Z"/><path d="M77.46,64.69l.11,1.17-.17,0a.63.63,0,0,0-.48-.26,4.72,4.72,0,0,0-1,0L71.74,66,71,66.1a1.9,1.9,0,0,0-.37.1.62.62,0,0,0-.37.32H70.1L70,65.36h.17a.68.68,0,0,0,.48.25,2.1,2.1,0,0,0,.38,0l.67,0,4.13-.38c.3,0,.53-.05.7-.09a1.83,1.83,0,0,0,.4-.11.59.59,0,0,0,.37-.31Zm-.36.88.16.06,0-.55-.16.09-.21.1-.25,0h-.27l-5.11.46H70.7l-.23-.06-.24-.09.05.62.22-.13.2-.1L71,66h.27l5.11-.46h.27a.85.85,0,0,1,.25,0A1.07,1.07,0,0,1,77.09,65.56Z"/><path d="M77.33,63.31l.11,1.17-.17,0a.66.66,0,0,0-.48-.25,5.49,5.49,0,0,0-1.05,0l-4.12.37c-.34,0-.58.06-.72.09a1.69,1.69,0,0,0-.38.1.62.62,0,0,0-.37.31l-.17,0L69.87,64,70,64a.63.63,0,0,0,.48.26,2.19,2.19,0,0,0,.38,0c.15,0,.38,0,.66,0l4.13-.37.7-.08a2,2,0,0,0,.4-.11.6.6,0,0,0,.37-.32Zm-.36.88.17.06,0-.55-.15.09a.92.92,0,0,1-.21.1,1,1,0,0,1-.24,0H76.2l-5.11.46h-.52l-.22-.06-.24-.08.06.62.22-.13.21-.1a1.16,1.16,0,0,1,.25,0l.18,0h.09l5.11-.46h.09l.18,0h.25A1,1,0,0,1,77,64.18Z"/><path d="M73.62,47.75l4.55,1.16-3.42-2.08a6.25,6.25,0,0,0-.75-.4,1.91,1.91,0,0,0-.67-.17.69.69,0,0,0-.46.14l-.16-.06.38-.9.15.06a1.19,1.19,0,0,0,.24.34,3.86,3.86,0,0,0,.49.4c.23.17.52.35.87.57l4.77,2.91,0,0-5.86-1.47A8.42,8.42,0,0,0,72.62,48a.7.7,0,0,0-.47.08L72,48l.48-1.14.16.07v0a.36.36,0,0,0,.07.31,1,1,0,0,0,.39.24A3.61,3.61,0,0,0,73.62,47.75Zm5.67,1.84-.59-.36-5.07-1.29a4.85,4.85,0,0,1-.61-.19,1.78,1.78,0,0,1-.27-.14l-.25-.21-.22.53A3.13,3.13,0,0,1,73,48l.4.09.34.09Zm-6.11-3.83-.18.43a1.57,1.57,0,0,1,.42,0,2.25,2.25,0,0,1,.47.14L73.48,46A3.15,3.15,0,0,1,73.19,45.75Z"/><path d="M80.51,47.11l-.46,1.09-.16-.07a.68.68,0,0,0-.3-.45,5.36,5.36,0,0,0-.94-.47L74.84,45.6l-.67-.26a1.68,1.68,0,0,0-.38-.08.61.61,0,0,0-.48.1l-.15-.07.46-1.09.16.07a.65.65,0,0,0,.3.45,2,2,0,0,0,.33.2l.61.28,3.82,1.6c.28.12.5.2.66.25a1.84,1.84,0,0,0,.4.1.61.61,0,0,0,.48-.11Zm-.73.61.12.13.21-.51h-.41l-.24-.08-.11,0-.06,0-.09,0-4.73-2-.09,0-.06,0-.1,0L74,44.94a1.36,1.36,0,0,1-.17-.16l-.17-.19-.24.57h.48a1.69,1.69,0,0,1,.24.09l.17.07.08,0,4.73,2,.09,0,.17.08.22.11A1.12,1.12,0,0,1,79.78,47.72Z"/><path d="M81.05,45.83l-.46,1.09-.15-.07a.67.67,0,0,0-.31-.45,4.44,4.44,0,0,0-.94-.47l-3.82-1.61c-.31-.13-.54-.22-.67-.26a1.73,1.73,0,0,0-.38-.08.59.59,0,0,0-.47.11L73.69,44l.46-1.09.16.07a.64.64,0,0,0,.31.45,2.06,2.06,0,0,0,.32.2l.61.27,3.82,1.61.66.25a1.71,1.71,0,0,0,.4.09.61.61,0,0,0,.47-.1Zm-.73.6.12.13.22-.51h-.41L80,46l-.11,0-.06,0-.09,0-4.73-2-.09,0-.06,0-.1,0-.22-.11a1.37,1.37,0,0,1-.17-.16l-.17-.19-.24.57h.49l.24.08.17.07.09,0,4.73,2,.08,0,.16.07a1,1,0,0,1,.22.11A1.23,1.23,0,0,1,80.32,46.44Z"/><path d="M81.59,44.55l-.45,1.09L81,45.57a.65.65,0,0,0-.3-.45,5.08,5.08,0,0,0-.94-.47L75.91,43c-.31-.13-.54-.22-.68-.26a1.8,1.8,0,0,0-.38-.09.62.62,0,0,0-.47.1l-.16-.06.45-1.09.16.07a.65.65,0,0,0,.31.45,2.06,2.06,0,0,0,.33.2c.14.07.34.16.61.27l3.82,1.61c.28.12.49.2.65.25a1.73,1.73,0,0,0,.4.09.61.61,0,0,0,.48-.11Zm-.73.6.12.13.21-.51H81a1.07,1.07,0,0,1-.24,0l-.23-.08-.12,0-.05,0-.09,0-4.73-2-.09,0-.06,0-.11,0-.22-.11a1.15,1.15,0,0,1-.17-.16L74.75,42l-.24.57H75l.24.08.16.07.09,0,4.73,2,.09,0,.17.07.22.11A1.28,1.28,0,0,1,80.86,45.15Z"/><path d="M90.18,34.73l-.94.71-.11-.13a.66.66,0,0,0,0-.54,4.87,4.87,0,0,0-.58-.88L86,30.58c-.2-.27-.36-.46-.45-.57a1.55,1.55,0,0,0-.29-.26.63.63,0,0,0-.46-.15l-.1-.13.94-.71.1.13a.66.66,0,0,0,0,.54,2,2,0,0,0,.18.34c.09.13.22.31.39.54l2.5,3.3c.18.24.33.42.44.54a2.34,2.34,0,0,0,.3.28.63.63,0,0,0,.46.14Zm-.93.16,0,.17.44-.33-.16-.08-.19-.12a1.18,1.18,0,0,1-.16-.19l-.07-.1,0,0L89,34.11,85.94,30l-.06-.08,0-.05-.07-.09a1.32,1.32,0,0,1-.14-.21,1.71,1.71,0,0,1-.07-.23l-.05-.25-.49.37.22.12.2.12.17.19.11.15.06.07,3.1,4.09.05.07.11.15a1.12,1.12,0,0,1,.14.21A1.37,1.37,0,0,1,89.25,34.88Z"/><path d="M90.89,32.65l-1.71-1.43.7,1.66a3,3,0,0,0,.36.66c.25.34.5.46.75.35l.1.14-.79.6-.1-.13a.67.67,0,0,0,0-.34c0-.12-.06-.26-.11-.41a3.92,3.92,0,0,0-.14-.41L89.82,33l0-.08L89,31.11,87.47,29.8l0,0-.09-.08-.36-.3a6,6,0,0,0-.69-.51.56.56,0,0,0-.36-.11l-.1-.13,1-.73.1.14a.28.28,0,0,0-.11.24.79.79,0,0,0,.18.35,3,3,0,0,0,.46.46l1.24,1-.49-1.21a3.6,3.6,0,0,0-.41-.81c-.21-.27-.4-.36-.59-.28l-.1-.13.73-.55.1.13a.67.67,0,0,0,0,.3,3.07,3.07,0,0,0,.12.5c.06.2.13.41.21.61l.08.22.54,1.35L91,32.07a10.66,10.66,0,0,0,.9.68.71.71,0,0,0,.43.15l.1.14-1,.74-.1-.13a.45.45,0,0,0,.1-.18.27.27,0,0,0,0-.18,1,1,0,0,0-.14-.24A2.69,2.69,0,0,0,90.89,32.65Zm-.57,1.61.29-.22a1.9,1.9,0,0,1-.35-.36l-.16-.24A4.75,4.75,0,0,1,90.33,34.26Zm1.21-.92L92,33l-.27-.17c-.08-.05-.18-.13-.31-.23l-.59-.47-3.2-2.68a5,5,0,0,1-.74-.71,1.29,1.29,0,0,1-.23-.47l-.49.37a3,3,0,0,1,.35.2l.56.46.39.32.07.05.05,0,0,0,0,0,3.3,2.75.25.23.2.22A2.44,2.44,0,0,1,91.54,33.35Zm-3.85-5.87-.3.23a1,1,0,0,1,.41.34,1.34,1.34,0,0,1,.12.18A5.66,5.66,0,0,1,87.69,27.48Z"/><path d="M107.27,26.34l-.71-2.11L106.29,26a3.11,3.11,0,0,0,0,.75c0,.42.19.65.45.69l0,.17-1,.1,0-.17a.64.64,0,0,0,.17-.29c0-.11.08-.25.13-.41a4.19,4.19,0,0,0,.1-.43l.07-.37,0-.08.3-1.93-.65-1.93a.54.54,0,0,0,0-.06l0-.11-.15-.44a7.69,7.69,0,0,0-.31-.8.6.6,0,0,0-.25-.28l0-.17,1.2-.12,0,.17a.3.3,0,0,0-.22.15.78.78,0,0,0,0,.39,2.76,2.76,0,0,0,.15.64l.5,1.54.23-1.29a3.76,3.76,0,0,0,.07-.91c0-.34-.15-.52-.36-.54v-.17l.91-.09,0,.16a.61.61,0,0,0-.18.24,2.79,2.79,0,0,0-.16.48c-.05.2-.1.42-.14.63s0,.16,0,.23l-.25,1.43.91,2.69a9.51,9.51,0,0,0,.4,1.05.71.71,0,0,0,.28.36l0,.17-1.22.12,0-.17a.4.4,0,0,0,.18-.1.29.29,0,0,0,.08-.16,1.17,1.17,0,0,0,0-.27A2.43,2.43,0,0,0,107.27,26.34Zm-1.33,1.08.35,0a1.87,1.87,0,0,1-.11-.49s0-.15,0-.29A5,5,0,0,1,105.95,27.42Zm1.51-.14.52,0-.14-.28a3.86,3.86,0,0,1-.14-.36l-.25-.71-1.32-4a5.2,5.2,0,0,1-.26-1,1.29,1.29,0,0,1,.05-.52l-.61.06a2.06,2.06,0,0,1,.18.36c.05.13.14.36.25.68l.17.47,0,.08,0,.06v0s0,0,0,0l1.36,4.07c0,.1.06.22.09.33a2,2,0,0,1,.06.29A2,2,0,0,1,107.45,27.27Zm-.19-7-.38,0a1.05,1.05,0,0,1,.16.5,1.2,1.2,0,0,1,0,.22A4.44,4.44,0,0,1,107.27,20.25Z"/><path d="M125.53,30.61l-1.13-.34.05-.16a.64.64,0,0,0,.41-.34,5,5,0,0,0,.38-1l1.21-4c.1-.32.16-.56.19-.69a1.68,1.68,0,0,0,0-.39.6.6,0,0,0-.16-.46l.05-.16,1.13.35,0,.16a.67.67,0,0,0-.42.35,2,2,0,0,0-.16.34c-.06.15-.13.36-.21.64l-1.21,4c-.09.28-.15.51-.19.68a2,2,0,0,0-.05.41.61.61,0,0,0,.15.46Zm-.67-.67-.12.13.53.16,0-.18a1.09,1.09,0,0,1,0-.23,1.3,1.3,0,0,1,.05-.24l0-.12v-.06l0-.09,1.5-4.91,0-.09,0-.06,0-.11a1.18,1.18,0,0,1,.09-.23,1,1,0,0,1,.14-.18l.17-.19-.6-.18,0,.25a.74.74,0,0,1,0,.47s0,.1-.05.17l0,.09-1.5,4.91,0,.09-.05.17a1.08,1.08,0,0,1-.09.23A1.35,1.35,0,0,1,124.85,29.95Z"/><path d="M127.62,30l.15-2.22-.93,1.54a3.08,3.08,0,0,0-.32.68c-.13.41-.07.68.15.81l0,.16-1-.29,0-.16a.67.67,0,0,0,.27-.2l.27-.33.26-.35.21-.32,0-.07,1-1.67.14-2v-.06s0,0,0-.12l0-.47a7.44,7.44,0,0,0,0-.85.57.57,0,0,0-.12-.36l.05-.16,1.15.35,0,.16a.28.28,0,0,0-.26.06.83.83,0,0,0-.17.34,2.85,2.85,0,0,0-.11.65l-.12,1.61.7-1.11a3.5,3.5,0,0,0,.42-.81c.1-.32.06-.54-.12-.64l0-.16.87.27,0,.16a.57.57,0,0,0-.25.15,2.93,2.93,0,0,0-.34.39c-.13.17-.26.35-.38.53l-.13.19-.77,1.23-.19,2.83a9,9,0,0,0,0,1.13.65.65,0,0,0,.13.44l-.05.17L127,31.08l.05-.16a.46.46,0,0,0,.2,0,.3.3,0,0,0,.13-.12,1,1,0,0,0,.11-.26A2.8,2.8,0,0,0,127.62,30Zm-1.64.49.35.11a1.94,1.94,0,0,1,.09-.5l.09-.27A4.59,4.59,0,0,1,126,30.46Zm1.45.44.5.15c0-.1,0-.21,0-.32s0-.23,0-.39c0-.4,0-.66,0-.75l.3-4.17a5,5,0,0,1,.15-1,1.28,1.28,0,0,1,.24-.46l-.59-.18a2.19,2.19,0,0,1,0,.4c0,.14,0,.38,0,.73l0,.5a.79.79,0,0,0,0,.09s0,.06,0,.07a.18.18,0,0,1,0,0v0l-.31,4.28a2.29,2.29,0,0,1,0,.33,2.26,2.26,0,0,1-.06.29A1.84,1.84,0,0,1,127.43,30.91Zm2.51-6.56-.36-.11a1.06,1.06,0,0,1,0,.53,1.87,1.87,0,0,1-.07.2A5.1,5.1,0,0,1,129.94,24.35Z"/><polygon points="148.34 32.44 145.96 35.73 149.79 34.38 148.34 32.44"/><polygon points="129.03 18.14 128.55 22.18 131.24 19.13 129.03 18.14"/><polygon points="104.68 15.11 106.31 18.83 107.09 14.84 104.68 15.11"/><polygon points="74.31 90.79 76.69 87.5 72.86 88.85 74.31 90.79"/><polygon points="92.74 104.87 93.2 100.83 90.52 103.89 92.74 104.87"/><polygon points="117.63 108.42 116.11 104.65 115.22 108.62 117.63 108.42"/><polygon points="82.24 24.79 85.53 27.18 84.18 23.34 82.24 24.79"/><polygon points="67.83 43.91 71.87 44.33 68.79 41.68 67.83 43.91"/><polygon points="64.72 67.85 68.45 66.25 64.47 65.44 64.72 67.85"/><polygon points="138.44 100.13 137.09 96.3 140.38 98.68 138.44 100.13"/><polygon points="138.52 100.17 137.17 96.34 140.46 98.72 138.52 100.17"/><polygon points="153.45 82.69 150.38 80.02 154.42 80.47 153.45 82.69"/><polygon points="158.16 57.68 154.19 56.82 157.94 55.27 158.16 57.68"/><path d="M81.35,118.09c-1.32,1-9.52-7.79-18.31-19.57S48.2,76.4,49.52,75.42,59,83.18,67.81,95,82.67,117.11,81.35,118.09Z"/><path d="M169.68,25.82c-2.19,1.63-4.78,1.85-5.8.49l-3.16-4.24c-1-1.36-.07-3.78,2.12-5.41h0c2.18-1.63,4.78-1.85,5.79-.49l3.16,4.24c1,1.36.06,3.78-2.12,5.41Z"/><path d="M175.84,24a4.1,4.1,0,0,1-5.7-1l-4.33-5.8a4.09,4.09,0,0,1,.67-5.75h0a4.1,4.1,0,0,1,5.7,1l4.33,5.8a4.09,4.09,0,0,1-.67,5.75Z"/><path d="M164.43,29.21c-.84.63-2.28.11-3.22-1.15l-2.93-3.93c-.94-1.26-1-2.79-.18-3.42h0c.84-.63,2.28-.11,3.22,1.15l2.93,3.93c.94,1.26,1,2.79.18,3.42Z"/><ellipse class="cls-1" cx="25.93" cy="124.95" rx="2.65" ry="9.81" transform="translate(-69.56 40.3) rotate(-36.72)"/><path d="M83,23.69a47.47,47.47,0,0,1,66.43,9.67h0a47.47,47.47,0,0,1-9.67,66.43h0A47.47,47.47,0,0,1,73.3,90.12h0A47.47,47.47,0,0,1,83,23.69Zm35.15-8.43a46.84,46.84,0,0,0-34.85,8.83h0A46.83,46.83,0,0,0,64.87,55h0A46.82,46.82,0,0,0,73.7,89.82h0a46.81,46.81,0,0,0,30.89,18.4h0a46.82,46.82,0,0,0,34.85-8.83h0a46.83,46.83,0,0,0,18.4-30.89h0A46.83,46.83,0,0,0,149,33.65h0a46.84,46.84,0,0,0-30.89-18.4Z"/><path d="M153.63,52.4l4-.81,0-.2-4,.81Z"/><path d="M69.29,71.46l-4,.8,0,.19,4-.8C69.31,71.59,69.3,71.53,69.29,71.46Z"/><path d="M152.3,48.13l4-1.3-.07-.2-4,1.31Z"/><path d="M70.57,75.8,66.7,77.13l.07.18L70.62,76Z"/><path d="M150.74,44.18l3.77-1.66-.1-.2L150.66,44Z"/><path d="M72,79.82l-3.74,1.61.09.19L72.13,80Z"/><path d="M148.72,39.87l3.44-2L152,37.6l-3.43,2Z"/><path d="M74.25,83.81l-3.6,2.09.11.19L74.36,84Z"/><path d="M101.63,19.74l-.85-4.26-.2,0,.85,4.25Z"/><path d="M120.94,103.49l-.2,0,.9,4.09.19-.05Z"/><path d="M97.26,21l-1.35-4-.19.07,1.34,4Z"/><path d="M93.23,22.49l-1.55-3.72-.2.1L93,22.57Z"/><path d="M129.55,100.67l-.2.08,1.74,4,.2-.09Z"/><path d="M125.2,102.16l-.21.06,1.28,4.17.21-.08Z"/><path d="M89.22,24.63l-2-3.49-.19.12,2,3.51Z"/><path d="M133.69,98.46l-.14.1-.08.06,2.16,3.87.23-.14Z"/><path d="M140.37,93.55l3,3.29.15-.14-3-3.31Z"/><path d="M82.28,30l-2.94-3.17-.18.16,2.94,3.17Z"/><path d="M143.53,90.29l3.22,2.85.13-.15-3.2-2.83Z"/><path d="M79.14,32.82,76.2,30.27l-.13.14L79,33Z"/><path d="M146.18,87.12l3.55,2.54.12-.16-3.56-2.55Z"/><path d="M76.39,36.13l-3.22-2.29-.11.15,3.24,2.31Z"/><path d="M73.89,39.93l-3.53-2-.1.18,3.54,1.95Z"/><path d="M148.4,83.87l3.79,2.21.1-.17-3.76-2.19Z"/><path d="M152,75.88l4.19,1.47.07-.2-4.19-1.48Z"/><path d="M70.31,48.14l-3.74-1.32-.06.19,3.75,1.32C70.27,48.27,70.3,48.21,70.31,48.14Z"/><path d="M153.34,71l4.37,1,0-.21-4.34-.95Z"/><path d="M154.17,66.54l4.21.33,0-.2-4.18-.33Z"/><path d="M69.14,52.76l0-.12-4.07-.91,0,.19,4.08.91A.36.36,0,0,1,69.14,52.76Z"/><path d="M68.22,57l-3.93-.4,0,.19,3.91.39C68.18,57.12,68.2,57.06,68.22,57Z"/><path d="M154.54,61.53l4.12.18v-.2l-4.15-.18C154.52,61.4,154.53,61.47,154.54,61.53Z"/><path d="M68.19,61.46l-3.94,0v.19l3.95,0C68.19,61.59,68.19,61.53,68.19,61.46Z"/><path d="M143.39,32.77l3.07-2.88-.15-.17-3.08,2.89Z"/><path d="M79.64,91,76.5,93.73l.13.15,3.13-2.77Z"/><path d="M82.78,93.93l-2.66,3.28.16.13,2.66-3.27Z"/><path d="M140.1,29.52l2.73-3-.15-.13-2.72,3Z"/><path d="M136.51,26.77,139,23.38l-.17-.13-2.45,3.4Z"/><path d="M85.87,96.27,83.3,99.8l.16.12L86,96.39Z"/><path d="M133,24.44l2-3.57-.18-.11-2,3.56Z"/><path d="M89.43,98.81l-2.13,3.83.18.11,2.14-3.84Z"/><path d="M124.79,20.5l1.27-3.86-.19-.07-1.27,3.86Z"/><path d="M97.36,102.56,96,106.65l.19.07,1.38-4.09Z"/><path d="M120.54,19.6l.89-4.28-.2,0-.89,4.28Z"/><path d="M101.86,103.64l-.2-.07-1,4.48.21,0Z"/><path d="M115.77,18.69l.42-4.11-.19,0-.43,4.15Z"/><path d="M111,18.48l.09-4h-.2l-.09,4Z"/><path d="M111.13,104.83h-.2l0,4.4h.2Z"/><path d="M106.25,104.29l-.2,0-.42,4.38.2,0Z"/><circle cx="111.37" cy="61.63" r="2.6" transform="translate(-14.75 78.81) rotate(-36.71)"/><path d="M143.25,101.41l.38.61c.07.11.1.17.18.1a5.65,5.65,0,0,0,.5-.71l.07-.08a.06.06,0,0,1,.08,0s0,.07,0,.11-.73,1.43-.85,1.71a.52.52,0,0,1-.11.17c-.05,0-.1,0-.13,0s-.26-.53-.7-1.24l-.54-.85c-.29-.43-.54-.82-.69-1s-.19-.18-.38-.08a4.22,4.22,0,0,0-.38.25.06.06,0,0,1-.08,0s0-.06.06-.11l.91-.68.91-.73c.06,0,.1-.06.12,0a.05.05,0,0,1,0,.08c-.06,0-.33.27-.41.37a.28.28,0,0,0-.05.4c.11.22.36.61.65,1Z"/><path d="M158.48,81.81l.59.41c.11.07.16.11.21,0a5.61,5.61,0,0,0,.18-.86.4.4,0,0,1,0-.1.06.06,0,0,1,.08,0,.13.13,0,0,1,0,.11s-.09,1.6-.09,1.9a.52.52,0,0,1,0,.2c0,.06-.09,0-.13,0s-.45-.38-1.14-.86l-.83-.56c-.44-.29-.82-.54-1-.64s-.24-.09-.38.08a4.25,4.25,0,0,0-.24.38.06.06,0,0,1-.08,0s0-.06,0-.12c.25-.46.47-.83.56-1s.34-.65.55-1c0-.07.07-.1.1-.08a.05.05,0,0,1,0,.08,5.12,5.12,0,0,0-.23.5.29.29,0,0,0,.11.39c.19.15.57.41,1,.69Z"/><path d="M154.62,83.64a1.63,1.63,0,0,1,2.5-.4,2.18,2.18,0,0,1,.93,2.95c-.67,1.21-1.76.84-2.46.33C154.49,85.74,154.05,84.67,154.62,83.64Zm3.3,2.27c.26-.46,0-1.12-1-1.84-.78-.53-1.78-.84-2.14-.18-.27.49.19,1.2,1,1.81S157.55,86.58,157.92,85.91Z"/><path d="M120,109.65c.05,0,.1,0,.09.07s-.07.1-.13.15c-1,.74-2.38,1.69-2.46,2.84-.07.86.52,1,.87,1a1.33,1.33,0,0,0,.75-.25,1,1,0,0,0,.33-.54c0-.06,0-.11.1-.11s.05,0,.06.09,0,.5,0,.66,0,.07-.09.11a3.54,3.54,0,0,1-1.28.3c-1.23.09-1.7-.39-1.65-1,.08-1.05,1.6-2.08,2.5-2.71,0,0,0,0,0,0l-.46,0c-.12,0-.92.08-1.18.12a.91.91,0,0,0-.8.54c0,.07,0,.09-.09.09s-.05,0,0-.1a5.77,5.77,0,0,1,.23-.79c.06-.15.17-.17.6-.21Z"/><path d="M94.69,107.16s.07.07,0,.1-.11,0-.2.06c-1.22.14-2.91.25-3.55,1.2a.77.77,0,0,0,.26,1.27A1.32,1.32,0,0,0,92,110a1,1,0,0,0,.56-.3.1.1,0,0,1,.14,0s0,.05,0,.11-.25.43-.34.56,0,.06-.14,0a3.63,3.63,0,0,1-1.26-.39c-1.1-.54-1.27-1.2-.9-1.72.6-.87,2.44-1,3.53-1.06,0,0,0,0,0,0l-.42-.21c-.1,0-.83-.4-1.08-.49a.91.91,0,0,0-1,.06c-.05,0-.09.05-.12,0s0-.07,0-.11a5.8,5.8,0,0,1,.6-.56c.13-.1.23-.07.62.12Z"/><path d="M114.28,110c1.34-.11,1.66,1.09,1.61,1.86a2.29,2.29,0,0,1-2,2.38c-1.38.1-1.62-1-1.54-1.86A2.27,2.27,0,0,1,114.28,110Zm-.27,4c.52,0,1-.63,1.06-1.86.06-.93-.18-1.93-.93-1.88-.55,0-.94.81-1,1.86S113.25,114.06,114,114Z"/><path d="M74.8,93.76c0,.1,0,.14-.06.17a4.18,4.18,0,0,1-.62.28c-.06,0-.11,0-.14,0s0-.07,0-.09c.31-.16.43-.61,0-1.16a1.24,1.24,0,0,0-1.56-.57c-.65.33-.38,1.1-.22,1.4s.09.2.05.22-.09,0-.14-.07c-.23-.22-.91-.73-1.48-.46-.21.1-.48.46-.05,1s.81.67,1.1.53c.06,0,.09,0,.11,0s0,0,0,.08a4,4,0,0,1-.46.27s-.07,0-.15,0a4.2,4.2,0,0,1-.91-.91c-.8-1.08-.44-1.5-.21-1.61.48-.22,1.25.21,1.49.39h0c-.22-.45-.36-1.17.22-1.46s1.73,0,2.53,1.1A3,3,0,0,1,74.8,93.76Z"/><path d="M63.58,69.51c0,.1-.07.11-.14.11a4.45,4.45,0,0,1-.68-.08c-.06,0-.1,0-.11-.08s0-.06.07-.05c.35,0,.68-.3.61-1s-.41-1.25-1-1.29-.89.75-.91,1.09c0,.18,0,.21-.07.21s-.07-.05-.08-.13c-.08-.31-.41-1.09-1-1.15-.23,0-.64.15-.57.86.05.55.35,1,.67,1,.07,0,.09,0,.09.07s0,0-.07,0a3.4,3.4,0,0,1-.54,0s-.07,0-.11-.11a4.22,4.22,0,0,1-.31-1.25c-.13-1.33.39-1.52.64-1.49.53.05,1,.82,1.07,1.1h0c0-.5.28-1.19.94-1.14s1.47.91,1.61,2.24A3,3,0,0,1,63.58,69.51Z"/><path d="M71.58,89.22c.81,1.08-.07,1.93-.76,2.27a2.4,2.4,0,0,1-3.14-.55c-.82-1.11,0-1.86.79-2.22A2.39,2.39,0,0,1,71.58,89.22ZM68,91c.31.42,1,.49,2.16,0,.84-.41,1.58-1.1,1.13-1.71-.33-.44-1.2-.39-2.14.06S67.53,90.35,68,91Z"/><path d="M64.52,45.52c0,.08-.09.14-.14.11a.3.3,0,0,1-.07-.17c0-.07-1-4.05-1-4.14a.37.37,0,0,1,0-.23c0-.05.06,0,.11,0l.63.52,1.38,1.1.23-.48a1.54,1.54,0,0,0,.09-.32,0,0,0,0,1,.08,0,1.47,1.47,0,0,1,.22.32.22.22,0,0,1,0,.21l-.26.55a4.92,4.92,0,0,0,.53.38c.14.08.23.1.36-.08a2.17,2.17,0,0,0,.15-.27s0,0,.07,0,0,.06,0,.13c-.16.35-.37.73-.43.87s-.22.52-.38.85c0,.07-.06.09-.09.07a.06.06,0,0,1,0-.08c0-.06.09-.2.13-.3a.37.37,0,0,0-.11-.47c-.18-.17-.38-.31-.51-.41Zm-.75-3.2v0c.07.26.56,2.06.66,2.42l.67-1.41Z"/><path d="M78.54,24.67c-.07,0-.15.08-.17,0a.27.27,0,0,1,0-.18c0-.07,1-4.05,1-4.13a.39.39,0,0,1,.11-.2c.05,0,.08,0,.1,0s.17.43.31.76l.7,1.61.43-.31A1.37,1.37,0,0,0,81.3,22a0,0,0,0,1,.08,0,1.45,1.45,0,0,1,0,.38c0,.07,0,.11-.12.18l-.49.36a5.48,5.48,0,0,0,.29.58c.08.14.16.2.36.1a2.31,2.31,0,0,0,.25-.16s.06,0,.07,0,0,.06-.07.11l-.78.56-.74.58c-.06,0-.09.05-.11,0a.06.06,0,0,1,0-.08l.25-.21A.37.37,0,0,0,80.5,24a6.16,6.16,0,0,0-.26-.61Zm.84-3.17h0c-.06.26-.47,2.09-.56,2.45L80.06,23Z"/><path d="M67.94,40.93c-.58,1.22-1.71.8-2.31.33a2.51,2.51,0,0,1-.94-3.1c.59-1.25,1.62-.84,2.28-.28A2.52,2.52,0,0,1,67.94,40.93Zm-3.12-2.48c-.23.47,0,1.17,1,2,.73.58,1.67.95,2,.26.24-.5-.2-1.27-1-1.93S65.14,37.76,64.81,38.45Z"/><path d="M102.4,14.47c-.11,0-.13-.07-.12-.19a4.87,4.87,0,0,1,.07-.69s0-.1.08-.11.06,0,.05.08c0,.57.4.64.87.56A1.36,1.36,0,0,0,104.55,13c.07-.86-1.08-1-1.61-1-.08,0-.13,0-.11-.09l.3-1.45c0-.05.06-.08.14-.09l1.68-.29a2.51,2.51,0,0,0,.39-.08l.14,0c.05,0,.07,0,.06.09a4.68,4.68,0,0,1-.17.71.11.11,0,0,1-.08.08s0,0,0-.07,0-.28-.57-.19l-1.25.21-.16.68c1,0,2.21.19,2.11,1.12-.06.72-.78,1.62-2.34,1.9A1.82,1.82,0,0,1,102.4,14.47Z"/><path d="M159.35,55.57c0-.11.07-.13.19-.12a5.4,5.4,0,0,1,.69.06c.05,0,.1,0,.11.08s0,.06-.08.06c-.57,0-.64.41-.55.88a1.35,1.35,0,0,0,1.2,1.17c.87.06,1-1.1,1-1.63,0-.08,0-.13.08-.11l1.46.27c.06,0,.08.06.09.13l.32,1.68a2.7,2.7,0,0,0,.09.39,1,1,0,0,1,0,.14c0,.06,0,.06-.09.06a5.27,5.27,0,0,1-.71-.16.11.11,0,0,1-.08-.08s0,0,.06,0,.28,0,.18-.58l-.23-1.24-.68-.15c.06,1-.15,2.21-1.09,2.13-.72,0-1.64-.75-1.93-2.31A1.83,1.83,0,0,1,159.35,55.57Z"/><path d="M140.13,100.76c.11,0,.14,0,.19.11a5,5,0,0,1,.26.64c0,.05,0,.11,0,.13s-.06,0-.09,0c-.24-.52-.65-.38-1-.09a1.36,1.36,0,0,0-.5,1.59c.34.8,1.43.39,1.89.12.07,0,.12,0,.14,0l.42,1.43c0,.05,0,.1-.08.14l-1.35,1a2.49,2.49,0,0,0-.3.26l-.1.1s-.06,0-.09-.05a4.54,4.54,0,0,1-.19-.7.11.11,0,0,1,0-.11s.06,0,.07,0,.15.24.59-.1l1-.77-.17-.67c-.87.51-2,.87-2.39,0-.28-.66-.08-1.8,1.18-2.77A1.83,1.83,0,0,1,140.13,100.76Z"/><path d="M82.66,23c-.12,0-.15,0-.19-.11a5.33,5.33,0,0,1-.25-.64c0-.06,0-.11,0-.14s.06,0,.09.05c.23.53.65.39,1,.11a1.36,1.36,0,0,0,.53-1.59c-.33-.8-1.42-.42-1.88-.15-.07,0-.12,0-.14,0L81.48,19c0-.05,0-.1.08-.14l1.37-1a3.09,3.09,0,0,0,.31-.25l.11-.09s.06,0,.09.05a4.52,4.52,0,0,1,.17.71.1.1,0,0,1,0,.11s-.05,0-.07,0-.14-.25-.6.09l-1,.75.16.68c.88-.49,2-.83,2.39,0,.27.67,0,1.8-1.23,2.75A1.88,1.88,0,0,1,82.66,23Z"/><path d="M90.64,105.24c.07.09.06.13,0,.22a5.26,5.26,0,0,1-.46.51s-.09.06-.13,0,0,0,0-.1c.37-.44.05-.75-.38-1a1.35,1.35,0,0,0-1.65.26c-.57.66.28,1.45.73,1.74.07,0,.1.08,0,.13l-1.09,1a.14.14,0,0,1-.17,0L86,107.34a3,3,0,0,0-.36-.16l-.13-.05c-.05,0,0,0,0-.11a5.13,5.13,0,0,1,.55-.47.1.1,0,0,1,.11,0s0,0,0,.08-.15.24.36.49l1.14.56.53-.45c-.84-.55-1.68-1.44-1.06-2.15.47-.55,1.58-.86,3-.17A1.86,1.86,0,0,1,90.64,105.24Z"/><path d="M63.06,65.55c0,.11-.08.12-.19.1a4.62,4.62,0,0,1-.68-.12c-.05,0-.1,0-.1-.09s0-.06.09-.05c.57.08.67-.35.62-.83A1.36,1.36,0,0,0,61.7,63.3c-.86-.13-1.09,1-1.1,1.54,0,.08,0,.13-.09.11l-1.43-.4c-.05,0-.08-.07-.08-.14l-.17-1.7a2.55,2.55,0,0,0-.06-.39c0-.08,0-.12,0-.14s0-.06.1-.05a4.59,4.59,0,0,1,.69.21.1.1,0,0,1,.07.09s0,0-.07,0-.28,0-.23.56l.12,1.26.67.21c0-1,.34-2.18,1.26-2,.71.11,1.57.89,1.73,2.46A1.81,1.81,0,0,1,63.06,65.55Z"/><path d="M127.73,16.34c-.08-.08-.07-.13,0-.22a5,5,0,0,1,.4-.56s.08-.07.12-.05,0,0,0,.1c-.32.48,0,.76.48.92a1.35,1.35,0,0,0,1.61-.44c.49-.72-.44-1.41-.92-1.65-.07,0-.11-.07-.06-.13l1-1.12s.09,0,.16,0l1.61.58a2.59,2.59,0,0,0,.38.11l.14,0c.06,0,.05,0,0,.11a4.57,4.57,0,0,1-.49.53.1.1,0,0,1-.11,0s0,0,0-.08.12-.25-.41-.44l-1.19-.43-.47.51c.9.45,1.83,1.24,1.29,2-.4.6-1.47,1-3,.51A1.86,1.86,0,0,1,127.73,16.34Z"/><path d="M130.92,17.59c-.08-.08-.07-.13,0-.22a5.28,5.28,0,0,1,.4-.56s.09-.07.12-.06,0,0,0,.1c-.32.48,0,.76.48.92a1.36,1.36,0,0,0,1.62-.44c.49-.72-.44-1.41-.92-1.65-.07,0-.1-.08-.06-.13l1-1.12s.09,0,.16,0l1.61.57a3.28,3.28,0,0,0,.38.12l.14,0c.05,0,.05,0,0,.1a4.43,4.43,0,0,1-.49.54.1.1,0,0,1-.11,0s0,0,0-.08.12-.25-.41-.45l-1.19-.43-.47.51c.9.45,1.83,1.24,1.29,2-.41.6-1.47,1-3,.51A1.88,1.88,0,0,1,130.92,17.59Z"/><path d="M107.74,13.64c-1.33.23-1.58-.94-1.51-1.7a2.63,2.63,0,0,1,2.08-2.54c1.36-.23,1.58.84,1.47,1.7A2.64,2.64,0,0,1,107.74,13.64Zm.39-4c-.51.09-1,.71-1.09,1.94-.09.94.11,1.9.85,1.78.55-.09,1-.89,1.06-1.93S108.88,9.54,108.13,9.66Z"/><path d="M148.66,28.65c1-.36,2.7.11,4,1.18a.57.57,0,0,1,.12.11s0,.07,0,.09-.14-.05-.22-.1a4.14,4.14,0,0,0-3.45-.58c-.59.22-1,.74-.6,1.29a1.15,1.15,0,0,0,1.37.38c.71-.25.71-.78.44-1.14a1.6,1.6,0,0,0-.25-.27l-.12-.11a0,0,0,0,1,0-.06.15.15,0,0,1,.12,0,2.38,2.38,0,0,1,.72.65c.58.78.25,1.34-.2,1.5a2.23,2.23,0,0,1-2.37-1C147.66,29.81,147.74,29,148.66,28.65Z"/><path d="M150.69,33.87c-.81-1.08.13-1.79.86-2a2.74,2.74,0,0,1,3.24.77c.82,1.11-.06,1.75-.88,2A2.77,2.77,0,0,1,150.69,33.87Zm3.78-1.31c-.31-.42-1.07-.55-2.24-.15-.89.31-1.68.89-1.23,1.49.33.44,1.24.47,2.23.14S154.92,33.16,154.47,32.56Z"/><path class="cls-1" d="M98,90.33a15,15,0,1,1,3.07-21.06A15,15,0,0,1,98,90.33Z"/><path d="M101,82.64s0,0,0,0,0,0,0,0l0,.58a.06.06,0,0,1,0,0s0,0,0,0-.7-.4-1-.54l-.83-.44s0,0-.06,0L99,82.4h0a0,0,0,0,1,0,0l.15-.27.14-.3h0a.05.05,0,0,1,0,0l0,.16a0,0,0,0,0,0,.05l.79.39.83.41s.05,0,.06,0Z"/><path d="M98.62,83.1c.17-.33.63-.3,1.14,0s1,.77.78,1.14-.66.28-1.16,0-1-.71-.77-1.12Zm1,.21c-.5-.26-.89-.33-1-.14s.29.51.83.79.91.38,1,.17-.27-.53-.86-.83Z"/><path d="M89.43,91h.14a4.37,4.37,0,0,0,.53-.07.11.11,0,0,0,.07,0l.11-.22h0s0,0,0,0l-.05.35a0,0,0,0,1,0,0h-.55l-.42,0a.07.07,0,0,1-.06,0v-.07a2.23,2.23,0,0,0,.74-1.49c0-.32-.16-.49-.35-.48a.46.46,0,0,0-.37.29h0a.07.07,0,0,1,0-.07.6.6,0,0,1,.53-.37.52.52,0,0,1,.53.57,2.42,2.42,0,0,1-.68,1.41l-.12.13Z"/><path d="M91.11,91c-.37,0-.57-.39-.6-1s.2-1.22.6-1.24.57.43.59,1-.14,1.2-.6,1.22Zm-.33-1c0,.56.16.94.36.93s.31-.51.29-1.11-.12-1-.35-1-.33.49-.31,1.15Z"/><path d="M79.15,84.77l.05.09a.54.54,0,0,1-.15.7.63.63,0,0,1-.92-.19A.65.65,0,0,1,78,85s.06,0,.06,0h0a.52.52,0,0,0,.11.31.46.46,0,0,0,.69.08.53.53,0,0,0,.09-.77s0,0,0,0,0,0,0,0a.53.53,0,0,0,.74.09.34.34,0,0,0,.11-.49.45.45,0,0,0-.42-.15h0s0-.06,0-.06a.56.56,0,0,1,.54.22.46.46,0,0,1-.08.69.58.58,0,0,1-.66,0l-.08-.06Z"/><path d="M79,86.58c-.22-.29,0-.7.47-1s1.12-.53,1.36-.2,0,.71-.48,1-1.07.57-1.34.2Zm.64-.83c-.45.33-.69.66-.56.83s.59,0,1.08-.4.74-.65.61-.84-.6,0-1.12.4Z"/><path d="M77.79,73.25s0,0,0,0l.1-.27-.42-.19s0,0-.05,0l-.06.09s0,0,0,0,0,0,0,0a2.19,2.19,0,0,0,.1-.21c0-.12.08-.2.11-.29h0a0,0,0,0,1,0,0l0,.15a0,0,0,0,0,0,0l.43.16.28-.7a.11.11,0,0,1,.09-.07h.07c.28.38.69.9,1,1.29a.12.12,0,0,1,0,.13,1.34,1.34,0,0,1-.08.16h0L77.94,73l-.13.28h0Zm.52-1.05-.06.12c-.08.15-.18.35-.22.46l.95.38.32.14h0l-.16-.16c-.25-.27-.53-.57-.71-.78l-.1-.13Z"/><path d="M76.92,73.68c.14-.34.6-.36,1.13-.14s1,.69.88,1.07-.63.34-1.15.13-1-.63-.86-1.05Zm1,.12c-.52-.21-.92-.25-1-.05s.33.49.89.72.94.3,1,.09-.31-.51-.92-.76Z"/><path d="M87.12,67.78a.49.49,0,0,1-.35,0s0-.07,0-.07h0a.45.45,0,0,0,.31,0,.48.48,0,0,0,.41-.6c-.05-.38-.38-.54-.79-.46,0,0,0,0,0,0s0-.83,0-.94,0,0,0,0l.36,0,.46-.06h0s0,.05,0,.06-.51.14-.66.19,0,0,0,.05,0,.47,0,.61c.56-.11.93.09,1,.54a.69.69,0,0,1-.63.79Z"/><path d="M88.65,67.55c-.36.05-.61-.33-.7-.9s.07-1.23.47-1.29.61.37.69.92,0,1.21-.46,1.28Zm-.43-1c.08.55.26.92.47.89s.25-.53.16-1.14-.22-1-.45-.93-.28.53-.18,1.18Z"/><path d="M97.78,70.5l.13,0a.47.47,0,0,1,.48.16c.19.25.05.55-.24.77a.68.68,0,0,1-1,0c-.21-.28-.13-.64.29-.95a1.67,1.67,0,0,1,1-.35,1.26,1.26,0,0,1,.73.21.06.06,0,0,1,0,.06h0a1.28,1.28,0,0,0-.63-.1,1.85,1.85,0,0,0-.64.19l-.12.07Zm-.55.85c.13.18.42.08.73-.16s.39-.43.29-.57-.35-.13-.62,0l-.07,0c-.33.25-.45.52-.33.67Z"/><path d="M98,72.5c-.22-.29,0-.7.46-1s1.12-.53,1.36-.2,0,.71-.48,1-1.07.57-1.34.2Zm.63-.83c-.45.33-.69.66-.56.83s.59,0,1.08-.39.74-.66.61-.84-.59,0-1.12.4Z"/><path d="M80.49,66.78a14.36,14.36,0,0,1,20.1,2.93h0a14.36,14.36,0,0,1-2.92,20.1h0a14.37,14.37,0,0,1-20.1-2.93h0a14.36,14.36,0,0,1,2.93-20.1Zm10.63-2.55A14.17,14.17,0,0,0,80.58,66.9h0A14.17,14.17,0,0,0,75,76.25h0A14.17,14.17,0,0,0,77.69,86.8h0A14.18,14.18,0,0,0,87,92.37h0a14.17,14.17,0,0,0,10.55-2.67h0a14.17,14.17,0,0,0,5.57-9.34h0a14.18,14.18,0,0,0-2.67-10.55h0a14.17,14.17,0,0,0-9.35-5.57Z"/><path d="M101,76.91l2.2-.1V76.7l-2.18.1S101,76.87,101,76.91Z"/><path d="M77.22,79.71,74.81,80v.11l2.41-.29A1,1,0,0,1,77.22,79.71Z"/><path d="M103.07,75.24l0-.1-.86.19s0,.07,0,.11Z"/><path d="M75.12,81.31l0,.11.81-.18,0-.11Z"/><path d="M102.61,73.61l0-.1-.83.29,0,.1Z"/><path d="M75.57,82.95l0,.1.77-.27s0-.07,0-.1Z"/><path d="M102.05,72.32l0-.1-.76.36,0,.1Z"/><path d="M76.06,84.25l0,.1.78-.36,0-.1Z"/><path d="M101.34,71l-.06-.1-.73.44.06.09Z"/><path d="M76.77,85.61l.06.09.73-.44-.05-.09Z"/><path d="M86,64.29l-.11,0,.2.89.11,0Z"/><path d="M92.11,92.24l.11,0L92,91.44l-.11,0Z"/><path d="M84.41,64.75l-.1,0,.29.85.11,0Z"/><path d="M93.74,91.79l.1,0L93.58,91l-.11,0Z"/><path d="M83.13,65.31l-.1,0,.36.78.1,0Z"/><path d="M95,91.31l.1,0-.35-.75-.1,0Z"/><path d="M81.77,66l-.09.06.44.74.09-.06Z"/><path d="M96.42,90.62l.09-.05-.45-.75-.09.06Z"/><path d="M98.55,89l.08-.07-.56-.63L98,88.4Z"/><path d="M79.57,67.63l-.08.07.58.64.08-.07Z"/><path d="M99.75,87.83l.07-.08-.63-.55-.07.08Z"/><path d="M78.36,68.84l-.07.08.65.57L79,69.4Z"/><path d="M100.65,86.78l.06-.09-.71-.51-.07.09Z"/><path d="M77.52,70l-.07.09.67.48.06-.09Z"/><path d="M76.69,71.23l-.05.1.72.41.05-.1Z"/><path d="M101.49,85.49l.05-.1-.76-.43,0,.1Z"/><path d="M102.61,83l0-.1-.84-.29s0,.07,0,.1Z"/><path d="M75.6,73.64l0,.1.77.26,0-.1Z"/><path d="M103.08,81.41l0-.1-.87-.19s0,.07,0,.11Z"/><path d="M103.28,79.88v-.11l-.85-.08s0,.07,0,.11Z"/><path d="M75.11,75.25l0,.11.85.18s0-.07,0-.11Z"/><path d="M74.95,76.66v.11l.78.09s0-.08,0-.11Z"/><path d="M103.36,78.34v-.11h-.88s0,.07,0,.11Z"/><path d="M74.85,78.19v.11h.79a.86.86,0,0,0,0-.11Z"/><path d="M99.82,68.88l-.07-.08-.64.56.07.09Z"/><path d="M78.26,87.67l.07.08.64-.56-.07-.09Z"/><path d="M79.45,88.89l.08.07.56-.62L80,88.26Z"/><path d="M98.63,67.66l-.08-.07-.57.64.08.08Z"/><path d="M97.52,66.81l-.09-.06-.49.66.09.06Z"/><path d="M80.5,89.8l.09.06.52-.7L81,89.09Z"/><path d="M96.24,66l-.09-.06-.42.72.09,0Z"/><path d="M81.77,90.64l.1.06.43-.75-.1-.05Z"/><path d="M93.69,64.81l-.1,0-.27.8.1,0Z"/><path d="M84.4,91.86l.11,0,.28-.83-.11,0Z"/><path d="M92,64.32l-.11,0-.18.86.11,0Z"/><path d="M86,92.31l.1,0,.18-.86-.11,0Z"/><path d="M90.67,64.07h-.11l-.1.9h.11Z"/><path d="M87.39,92.55h.11l.1-.88h-.12Z"/><path d="M89.14,64.07H89v.82h.11Z"/><path d="M88.92,92.65H89v-.88h-.11Z"/><path d="M94.14,67.38l1-2-.1,0-1,2.05Z"/><path d="M83.87,89l-1,2.17.1,0,1-2.15Z"/><path d="M81.91,68.56l-1.34-1.79-.09.06,1.34,1.8Z"/><path d="M96.28,87.83l-.09.06,1.4,1.87.09-.06Z"/><circle cx="91.02" cy="74.69" r="0.44" transform="translate(-23.98 49.42) rotate(-26.98)"/><path d="M88.36,78.63a.79.79,0,1,1,1.06.34A.79.79,0,0,1,88.36,78.63Z"/><polygon points="91.06 75.05 90.74 74.87 84.21 86.47 84.54 86.65 91.06 75.05"/><polygon points="84.55 86.64 83.35 88.38 84.22 86.45 84.55 86.64"/><path d="M80,66.12a15.17,15.17,0,0,1,21.22,3.09h0a15.17,15.17,0,0,1-3.08,21.23h0a15.17,15.17,0,0,1-21.23-3.09h0A15.17,15.17,0,0,1,80,66.12Zm11.23-2.69A15,15,0,0,0,80.1,66.25h0a15,15,0,0,0-5.88,9.87h0A15,15,0,0,0,77,87.25h0a14.94,14.94,0,0,0,9.87,5.88h0a15,15,0,0,0,11.14-2.82h0a15,15,0,0,0,5.87-9.87h0a15,15,0,0,0-2.82-11.14h0a15,15,0,0,0-9.87-5.88Z"/><polygon points="77.87 87.18 78.7 86.04 77.36 86.51 77.87 87.18"/><polygon points="100.25 69.39 99.41 70.53 100.75 70.06 100.25 69.39"/><polygon points="90.9 92.51 90.37 91.19 90.06 92.58 90.9 92.51"/><polygon points="102.24 83.71 100.83 83.6 101.92 84.49 102.24 83.71"/><polygon points="75.89 72.95 77.3 73.06 76.2 72.17 75.89 72.95"/><polygon points="87.06 64.22 87.67 65.5 87.89 64.1 87.06 64.22"/><path d="M116.65,34.1c-.69,2.37-.08,4.64,1.37,5.06s3.19-1.16,3.88-3.53a53.93,53.93,0,0,0,.3-6.59l.17-4.79-2.43,4.13A54,54,0,0,0,116.65,34.1Z"/><polygon points="123.9 18.62 124.09 18.68 111.98 60.14 111.79 60.08 123.9 18.62"/><ellipse cx="112.47" cy="57.98" rx="5.14" ry="0.52" transform="translate(25.65 150.03) rotate(-73.94)"/><path d="M126.56,45.83c-1.91,1.58-2.67,3.79-1.7,5s3.29.83,5.19-.75A54.35,54.35,0,0,0,134,44.76l2.83-3.87-4.33,2.05A54.21,54.21,0,0,0,126.56,45.83Z"/><polygon points="141.24 37.09 141.37 37.24 115.82 58.38 115.69 58.22 141.24 37.09"/><ellipse cx="115.84" cy="58.19" rx="5.14" ry="0.52" transform="translate(-10.38 87.72) rotate(-39.84)"/><circle class="cls-1" cx="111.34" cy="61.66" r="0.88" transform="translate(-14.79 78.65) rotate(-36.65)"/><ellipse cx="162.82" cy="23.8" rx="1.21" ry="5.23" transform="matrix(0.8, -0.6, 0.6, 0.8, 18.08, 102.08)"/></g></g></svg>