<svg xmlns="http://www.w3.org/2000/svg" viewBox="0 0 85.86 159.35"><defs><style>.cls-1{fill-rule:evenodd;}.cls-2{fill:#fff;}</style></defs><title>Ресурс 7clock</title><g id="Слой_2" data-name="Слой 2"><g id="Layer_1" data-name="Layer 1"><rect x="40.5" y="25.83" width="1.87" height="27.46"/><path d="M42.45,26.08c0,.27-.31.48-.69.48h-.66c-.38,0-.69-.21-.69-.48h0c0-.26.31-.48.69-.48h.66c.38,0,.69.21.69.48Z"/><path d="M25.57,37c-.88,5.47,5.7,6.16,6.32,2.27.49-3-2.79-3.46-3.46-1.85l.11-.06c.56-.8,2.62-.31,2.32,1.56-.43,2.68-4.86,2-4.25-1.76.34-2.11,2.29-3.39,5-3a10.8,10.8,0,0,1,6.34,4c.21.34.41.68.59,1a10.4,10.4,0,0,1,.85,2.24,11.71,11.71,0,0,1,.29,2.09,2.34,2.34,0,0,1,0,.25c-.08,2.73-1.71,4.4-3.84,4.34-3.79-.11-3.65-4.59-.93-4.51,1.88.05,2,2.14,1.11,2.56l-.09.11c1.7-.37,1.86-3.66-1.18-3.75-3.94-.12-4.49,6.47,1,6.63,3,.09,4.67-2.5,4.75-5.41a8.66,8.66,0,0,0-.49-3,12.11,12.11,0,0,0-1.39-2.73,10.18,10.18,0,0,0-1.37-1.62A16.63,16.63,0,0,0,35.54,35a7.44,7.44,0,0,0-2.06-1.13h0l-.41-.14a2.19,2.19,0,0,0-.37-.09L32,33.4l-.24-.06C28.9,32.88,26,34,25.57,37Z"/><path d="M31.62,33.36l-.32-.17a10.47,10.47,0,0,1-2-1.37,11.86,11.86,0,0,1-1.41-1.57c0-.07-.11-.13-.15-.2-1.46-2.3-1.06-4.6.74-5.75,3.19-2,5.59,1.75,3.3,3.21-1.58,1-2.84-.66-2.36-1.5a.76.76,0,0,1,0-.13c-1.2,1.26.52,4.07,3.08,2.44,3.32-2.12.08-7.88-4.59-4.9-2.52,1.61-2.46,4.68-.9,7.14a8.61,8.61,0,0,0,2.11,2.24A11.4,11.4,0,0,0,31.32,34C31.41,33.8,31.51,33.58,31.62,33.36Z"/><path d="M34.54,34.91h0a2.63,2.63,0,0,1,.63.16.66.66,0,0,1,.14.12h.07l.17,0c-1.66-1.64-1.86-3.7-.64-5.23,2.37-3,5.85-.15,4.16,2-1.18,1.48-2.93.28-2.71-.68a.74.74,0,0,1,0-.12c-.74,1.57,1.79,3.7,3.7,1.32,2.46-3.08-2.46-7.49-5.93-3.16a4.34,4.34,0,0,0-.2,5.19A2.23,2.23,0,0,1,34.54,34.91Z"/><path class="cls-1" d="M39.25,20.69c.53.35.55.6.1.7-.84.05-.52.73.15.91s.91,1.66.87,3.14l.84.32.08.23.26-.1.05,0v0l.9-.35c0-1.48.11-2.87.87-3.14s1-.86.15-.91c-.45-.1-.43-.35.1-.7,1.18.2,1.61-.83.81-1.73a1,1,0,0,0-.59-1.18.71.71,0,0,0-.45-.7c1-2,1-3.07.1-3.34a1.59,1.59,0,0,0-1.26.27c-.18-1-.47-1.6-.79-1.6s-.6.6-.78,1.54a1.61,1.61,0,0,0-1.29-.29c-.87.28-.87,1.36.1,3.34a.71.71,0,0,0-.45.7A1,1,0,0,0,38.44,19C37.64,19.86,38.07,20.89,39.25,20.69Zm3.43-5.33a5.69,5.69,0,0,1-.24,1c0-.41,0-.81-.06-1.18C42.55,15.2,42.67,15.27,42.68,15.37Zm-2.16-.32c0,.39-.06.81-.07,1.25a5.71,5.71,0,0,1-.26-1C40.21,15.18,40.35,15.11,40.52,15.05Z"/><path d="M57.75,34.43c-4.63,3-8-2.67-4.66-4.84,2.54-1.67,4.3,1.13,3.11,2.4,0,0,0-.08,0-.12.5-.84-.79-2.52-2.37-1.48-2.27,1.49.18,5.24,3.35,3.16,1.78-1.18,2.16-3.48.66-5.76a10.81,10.81,0,0,0-6.27-4.13c-.39-.06-.79-.09-1.18-.11a10.58,10.58,0,0,0-2.39.14,11.72,11.72,0,0,0-2,.6l-.23.09c-2.46,1.19-3.32,3.36-2.39,5.29,1.65,3.41,5.68,1.45,4.49-1-.82-1.69-2.77-.93-2.79,0l-.06.12c-.36-1.7,2.57-3.19,3.9-.46,1.72,3.55-4.07,6.75-6.48,1.77-1.3-2.69.36-5.28,3-6.55a8.57,8.57,0,0,1,3-.8,12.06,12.06,0,0,1,3.06.15,10,10,0,0,1,2,.59,16.23,16.23,0,0,1,2.06,1,7.45,7.45,0,0,1,1.87,1.41l0,0c.1.1.2.21.3.32a2.28,2.28,0,0,1,.24.29l.45.55c0,.06.11.12.15.19C60.15,29.71,60.25,32.79,57.75,34.43Z"/><path d="M83.92,35.67c-4.63,3-8-2.67-4.66-4.84,2.54-1.67,4.3,1.13,3.11,2.4,0,0,0-.08,0-.12.5-.84-.79-2.52-2.37-1.48-2.27,1.49.18,5.24,3.35,3.16,1.78-1.18,2.16-3.48.66-5.76a10.82,10.82,0,0,0-6.27-4.13c-.39-.05-.79-.09-1.18-.11a10.53,10.53,0,0,0-2.39.14,11.68,11.68,0,0,0-2,.6l-.23.09C69.45,26.8,68.59,29,69.52,30.9c1.65,3.41,5.68,1.45,4.49-1-.82-1.69-2.77-.93-2.79,0l-.06.12c-.36-1.7,2.57-3.2,3.9-.46,1.72,3.55-4.06,6.75-6.48,1.77-1.3-2.69.36-5.28,3-6.55a8.58,8.58,0,0,1,3-.8,12,12,0,0,1,3.06.15,10,10,0,0,1,2,.59,16.17,16.17,0,0,1,2.06,1,7.39,7.39,0,0,1,1.87,1.41l0,0,.3.32a2.11,2.11,0,0,1,.24.29l.45.55a1.81,1.81,0,0,1,.15.19C86.31,30.95,86.42,34,83.92,35.67Z"/><path d="M58.59,27.43l.28.22a10.43,10.43,0,0,0,2.06,1.23,11.68,11.68,0,0,0,2,.64l.24.06c2.7.39,4.64-.92,4.94-3,.55-3.75-3.88-4.38-4.28-1.7-.27,1.86,1.77,2.32,2.33,1.54l.12-.07c-.65,1.61-3.92,1.2-3.48-1.81.57-3.9,7.15-3.3,6.35,2.18-.43,3-3.27,4.16-6.15,3.74a8.61,8.61,0,0,1-2.91-1,11.4,11.4,0,0,1-2-1.45C58.27,27.8,58.43,27.62,58.59,27.43Z"/><path d="M56,25.39h0a2.64,2.64,0,0,0-.41-.51.57.57,0,0,0-.16-.08l0-.06-.09-.14c2.18.84,4.14.17,5-1.56,1.72-3.37-2.27-5.4-3.5-3-.86,1.68.95,2.78,1.73,2.19l.12,0c-1.13,1.32-4.11-.12-2.72-2.83,1.8-3.51,7.84-.82,5.32,4.11a4.35,4.35,0,0,1-4.66,2.31A2.21,2.21,0,0,0,56,25.39Z"/><path d="M9.65,50.51h0a1.67,1.67,0,0,0,.33.25l.12,0,0,0,.08.08a2.41,2.41,0,0,0-2.88,1.74c-.55,2.36,2.23,3,2.63,1.32.28-1.18-1-1.58-1.41-1.1l-.07,0c.5-1,2.57-.56,2.12,1.34-.58,2.46-4.74,1.71-3.93-1.74a2.78,2.78,0,0,1,2.54-2.15A1.46,1.46,0,0,0,9.65,50.51Z"/><path d="M18.26,50.5h0a1.65,1.65,0,0,1-.39.15h-.12l0,0-.1.05a2.41,2.41,0,0,1,2.29,2.47c-.12,2.42-3,2.27-2.89.53.06-1.21,1.41-1.24,1.66-.66l.06,0c-.2-1.09-2.32-1.25-2.41.7-.13,2.52,4.08,3,4.26-.58a2.78,2.78,0,0,0-1.84-2.77A1.4,1.4,0,0,1,18.26,50.5Z"/><path d="M76.8,24.57h0a2.65,2.65,0,0,0-.54-.36.57.57,0,0,0-.18,0l-.05,0L75.89,24c2.33.14,4-1.09,4.32-3,.62-3.74-3.79-4.46-4.24-1.79-.31,1.87,1.75,2.37,2.31,1.57l.11-.06c-.68,1.6-4,1.13-3.45-1.87.65-3.89,7.22-3.16,6.31,2.31a4.35,4.35,0,0,1-3.74,3.61A2.27,2.27,0,0,0,76.8,24.57Z"/><path d="M43.48,154.76s0,0,0,0V68.28a7.49,7.49,0,0,0-.75-3.48h.75s0-1.41,0-1.56.23-.25.33-.4,0-.31-.07-.52.23-.56,0-.86a3.48,3.48,0,0,0,.33-.26,1.94,1.94,0,0,0,.18-.41,11.07,11.07,0,0,0,.22-2.59,1.61,1.61,0,0,1,.33-1c.2-.25.49-.51.34-.82s-1.2-.69-1.76-.86c.18.06.37-.42.38-.48s-.13-.34-.3-.5l.11-1,.14-.31c0-.07.48.06.54.07a2.42,2.42,0,0,0,.7,0c.06,0,.09-.52.09-.55l.54.23s.18-1.8.18-1.82a1.33,1.33,0,0,1-.23.17l-.24.14c-.23,0-.27-.2-.32-.32-.12-.3-1.73.14-2-.24-.13-.17,0-.43.07-.64.36-.08.61-.27.61-.49s-.31-.45-.73-.52a.56.56,0,0,0,0-.22.67.67,0,0,0-.23-.48c.51,0,.92-.25.92-.53s-.45-.54-1-.54H40.2c-.56,0-1,.24-1,.54s.45.54,1,.54h0a.67.67,0,0,0-.23.48.61.61,0,0,0,0,.2c-.47,0-.83.27-.83.53s.27.43.65.5c.09.21.19.46.06.63-.29.38-1.89-.06-2,.24-.05.12-.1.33-.33.32l-.24-.14a1.27,1.27,0,0,1-.23-.17s.18,1.82.18,1.82l.54-.23s0,.54.09.55a2.43,2.43,0,0,0,.71,0c.07,0,.5-.15.54-.07l.14.31.11,1c-.18.15-.31.29-.3.5s.19.54.38.48c-.56.18-1.54.41-1.76.86s.13.57.33.82a1.59,1.59,0,0,1,.34,1,11.17,11.17,0,0,0,.22,2.59,1.87,1.87,0,0,0,.18.41,3.25,3.25,0,0,0,.32.26c-.21.29.12.56,0,.86s-.21.31-.07.52.34.21.33.4,0,1.56,0,1.56h.75a7.48,7.48,0,0,0-.75,3.48v86.48c-4.47.34-7.83,1.77-7.83,3.49a1.66,1.66,0,0,0,.48,1.1H50.79a1.65,1.65,0,0,0,.48-1.1C51.27,156.54,47.93,155.11,43.48,154.76Z"/><path d="M42.31,53.2V14h0a14.49,14.49,0,0,0-4.47-9.75h0A15,15,0,0,0,27.7,0h0a12.2,12.2,0,0,0-1.64.11h0A13.93,13.93,0,0,0,16.1,6h0a16.48,16.48,0,0,0-2.47,6.11h0a29.32,29.32,0,0,0-.2,3.76h0c0,1.17,0,2.31,0,3.45H15c0-1.16,0-2.31,0-3.45h0a27.86,27.86,0,0,1,.19-3.57h0A15.1,15.1,0,0,1,17.36,6.8h0a12.47,12.47,0,0,1,8.91-5.21h0a10.74,10.74,0,0,1,1.44-.09h0a13.49,13.49,0,0,1,9.11,3.84h0a13.08,13.08,0,0,1,4,8.67h0V53.2h1.49Z"/><path d="M14.79,26.76a.46.46,0,0,1-.5.38h0a.46.46,0,0,1-.51-.38v-5.3a.46.46,0,0,1,.51-.38h0a.46.46,0,0,1,.5.38Z"/><path d="M72.41,38.41a.49.49,0,0,1-.5.47h0a.49.49,0,0,1-.51-.47V32a.49.49,0,0,1,.51-.47h0a.49.49,0,0,1,.5.47Z"/><path d="M61.31,37.83a.6.6,0,0,1-.51.66h0a.6.6,0,0,1-.51-.66V28.75a.6.6,0,0,1,.51-.66h0a.6.6,0,0,1,.51.66Z"/><path d="M3.88,35.46c-.06.17,4.67,15.28,4.67,15.28l5.93,1,4.69-1.12L24.28,35.3,14.4,32.75Z"/><path class="cls-2" d="M5,36.33l8.89-2.7s.07,17.3-.1,17.35a30.76,30.76,0,0,1-4.7-.68C9.08,50.14,5,36.33,5,36.33Z"/><polygon class="cls-2" points="14.56 50.95 18.68 50.15 23.31 35.89 14.6 33.71 14.56 50.95"/><path d="M0,33.51c2.14-.11,2.86-.09,4.58-.92s3.09-2.47,4.59-3.74c2-1.73,4.75-2.68,7.25-1.4a24.9,24.9,0,0,1,4.33,3.33,8.13,8.13,0,0,0,3.4,1.6,16.22,16.22,0,0,0,1.8.31c.41.05,1.53.36,1.88.17a17.13,17.13,0,0,0-2,1.28c-.22.16-1.33,1.21-1.59,1.16l-10.13-1.6L3.88,35.46s-.6-.58-.67-.64a8.41,8.41,0,0,0-2.64-1C0,33.68.57,33.55,0,33.51Z"/><circle cx="14.19" cy="20.72" r="2.02"/><circle cx="14.3" cy="26.17" r="1.46"/><circle cx="14.06" cy="53.14" r="1.46"/><path d="M8.47,48c-.19,1.19,1.24,1.34,1.38.49.11-.66-.61-.75-.76-.4h0c.12-.18.57-.07.51.34-.09.58-1.06.43-.93-.38a.86.86,0,0,1,1.09-.65,2.36,2.36,0,0,1,1.38.88l.13.23a2.32,2.32,0,0,1,.18.49,2.58,2.58,0,0,1,.06.46.27.27,0,0,1,0,.06c0,.59-.37,1-.84.95-.83,0-.79-1-.2-1,.41,0,.43.47.24.56l0,0c.37-.08.41-.8-.26-.82-.86,0-1,1.41.23,1.45.65,0,1-.54,1-1.18a1.89,1.89,0,0,0-.1-.66,2.67,2.67,0,0,0-.3-.6,2.25,2.25,0,0,0-.3-.35,3.66,3.66,0,0,0-.38-.32,1.64,1.64,0,0,0-.45-.25h0l-.09,0-.08,0-.15,0H9.82A1.07,1.07,0,0,0,8.47,48Z"/><path d="M19.39,47.81c.19,1.19-1.24,1.34-1.38.5-.11-.66.61-.75.76-.4h0c-.12-.17-.57-.07-.51.34.09.58,1.06.43.93-.38a.86.86,0,0,0-1.09-.65,2.37,2.37,0,0,0-1.38.88l-.13.23a2.33,2.33,0,0,0-.19.49,2.65,2.65,0,0,0-.06.46s0,0,0,.05c0,.59.37,1,.84.95.83,0,.79-1,.2-1-.41,0-.43.47-.24.56l0,0c-.37-.08-.41-.8.26-.82.86,0,1,1.41-.23,1.45a1.08,1.08,0,0,1-1-1.18,1.88,1.88,0,0,1,.11-.66,2.62,2.62,0,0,1,.3-.6,2.19,2.19,0,0,1,.3-.35,3.3,3.3,0,0,1,.38-.32,1.62,1.62,0,0,1,.45-.25h0l.09,0,.08,0L18,47H18A1.07,1.07,0,0,1,19.39,47.81Z"/><path d="M18.27,59.26c-2,2.44-4.83-.16-3.37-1.9C16,56,17.46,57.28,17,58.17a.36.36,0,0,0,0-.07c.14-.54-.85-1.26-1.55-.42-1,1.2,1,2.86,2.37,1.19.79-.95.62-2.28-.59-3.29a6.22,6.22,0,0,0-4.14-1.24q-.34.05-.67.13a6.33,6.33,0,0,0-1.3.47,6.72,6.72,0,0,0-1,.67L10,55.7C8.82,56.76,8.71,58.1,9.54,59c1.47,1.61,3.37-.14,2.31-1.29-.73-.8-1.68-.06-1.53.48a.36.36,0,0,0,0,.08c-.48-.88.89-2.19,2.07-.9,1.54,1.68-1.13,4.4-3.28,2-1.16-1.27-.67-3,.56-4.11a5,5,0,0,1,1.51-.93A7,7,0,0,1,12.88,54a6,6,0,0,1,1.22,0,9.18,9.18,0,0,1,1.3.2,4.35,4.35,0,0,1,1.27.47h0l.22.13a1.33,1.33,0,0,1,.18.12l.33.23.12.08C18.81,56.26,19.38,57.94,18.27,59.26Z"/><path d="M18.72,48.6h0l.08.07h0l0,0a.61.61,0,0,0-.73.44c-.14.59.56.76.66.33s-.25-.4-.35-.27h0c.13-.25.65-.14.53.34s-1.19.43-1-.44a.7.7,0,0,1,.64-.54Z"/><path d="M9.13,48.77h0L9,48.83H9l0,0a.6.6,0,0,1,.72.44c.14.59-.56.76-.66.33s.25-.4.35-.28h0c-.12-.25-.65-.14-.53.34s1.19.43,1-.44a.7.7,0,0,0-.64-.54Z"/><circle cx="65.9" cy="48.31" r="12.28"/><circle class="cls-2" cx="65.86" cy="48.38" r="10.85"/><path d="M54.91,48.4A10.94,10.94,0,0,1,65.85,37.45h0A10.94,10.94,0,0,1,76.79,48.4h0A10.94,10.94,0,0,1,65.85,59.34h0A10.94,10.94,0,0,1,54.91,48.4Zm3.29-7.65A10.79,10.79,0,0,0,55,48.4h0A10.79,10.79,0,0,0,58.19,56h0a10.79,10.79,0,0,0,7.66,3.17h0A10.79,10.79,0,0,0,73.5,56h0a10.79,10.79,0,0,0,3.17-7.65h0a10.79,10.79,0,0,0-3.17-7.65h0a10.79,10.79,0,0,0-7.65-3.17h0a10.79,10.79,0,0,0-7.66,3.17Z"/><path d="M61.65,48.32a4.24,4.24,0,0,1,4.24-4.24h0a4.24,4.24,0,0,1,4.24,4.24h0a4.24,4.24,0,0,1-4.24,4.24h0a4.24,4.24,0,0,1-4.24-4.24Zm1.28-3a4.17,4.17,0,0,0-1.23,3h0a4.16,4.16,0,0,0,1.23,3h0a4.17,4.17,0,0,0,3,1.23h0a4.18,4.18,0,0,0,3-1.23h0a4.18,4.18,0,0,0,1.22-3h0a4.18,4.18,0,0,0-1.22-3h0a4.18,4.18,0,0,0-3-1.23h0a4.17,4.17,0,0,0-3,1.23Z"/><circle cx="65.84" cy="48.38" r="0.54"/><path d="M65.9,39.2V37.48h-.08v1.72Z"/><path d="M65.9,59.24V57.52h-.08v1.72Z"/><path d="M73.93,44.11l1.52-.81,0-.07L73.9,44Z"/><path d="M57.8,52.65l-1.59.85,0,.07,1.59-.85Z"/><path d="M70.5,40.47,71.33,39l-.07,0-.83,1.43Z"/><path d="M61.29,56.31l-.9,1.57.07,0,.91-1.58Z"/><path d="M70,56.48l.85,1.59L71,58l-.84-1.58Z"/><path d="M61.47,40.29l-.79-1.47-.07,0,.79,1.48Z"/><path d="M57.94,43.82l-1.52-.88,0,.07,1.53.88Z"/><path d="M73.73,52.91l0,.07,1.57.9,0-.07Z"/><path d="M56.75,48.34H54.94v.08h1.81S56.75,48.36,56.75,48.34Z"/><path d="M74.94,48.34s0,.06,0,.08h1.78v-.08Z"/><path d="M72.41,46h1v.19H72.25v-.09A8.14,8.14,0,0,0,72.91,45a1.74,1.74,0,0,0,.19-.74.91.91,0,0,0-.1-.46.29.29,0,0,0-.26-.17.3.3,0,0,0-.25.13.68.68,0,0,0-.11.36h-.06a1,1,0,0,1,.08-.35.78.78,0,0,1,.19-.29.37.37,0,0,1,.25-.1.42.42,0,0,1,.35.22,1,1,0,0,1,.15.54,1.74,1.74,0,0,1-.21.79A6.23,6.23,0,0,1,72.41,46Z"/><path d="M65,41.93V40.07C65,40,65,40,65,40l0,0a.57.57,0,0,1-.22.08V40a1.45,1.45,0,0,0,.46-.46h.06v2.4a.52.52,0,0,0,0,.24.19.19,0,0,0,.17.06v.07h-.63v-.07c.09,0,.14,0,.17-.06A.51.51,0,0,0,65,41.93Z"/><path d="M65.78,42.11h1v.19H65.63v-.1a8.08,8.08,0,0,0,.65-1.06,1.76,1.76,0,0,0,.19-.74.92.92,0,0,0-.1-.46.29.29,0,0,0-.26-.17.3.3,0,0,0-.25.13.68.68,0,0,0-.12.36h-.06a1,1,0,0,1,.08-.36.75.75,0,0,1,.19-.29.37.37,0,0,1,.25-.1.42.42,0,0,1,.35.22,1,1,0,0,1,.14.54,1.75,1.75,0,0,1-.21.79A6.35,6.35,0,0,1,65.78,42.11Z"/><path d="M73.74,48.5v-.08a.67.67,0,0,0,.61-.69.57.57,0,0,0-.1-.34.29.29,0,0,0-.24-.14.26.26,0,0,0-.18.08.51.51,0,0,0-.13.21l-.06,0a.59.59,0,0,1,.18-.3.42.42,0,0,1,.63.06.67.67,0,0,1,.14.43.78.78,0,0,1-.09.37.66.66,0,0,1-.26.26h0a.59.59,0,0,1,.32.27.93.93,0,0,1,.12.48,1,1,0,0,1-.17.61.53.53,0,0,1-.45.23.48.48,0,0,1-.26-.07.86.86,0,0,1-.23-.23l0-.06a.55.55,0,0,0,.39.22.38.38,0,0,0,.31-.16.68.68,0,0,0,.12-.42,1,1,0,0,0-.13-.51.4.4,0,0,0-.34-.23Z"/><path d="M73.3,52.71h-.48v.93h-.21v-.93h-.81v-.08l1-1.81h.06v1.67h.48ZM72,52.49h.62V51.33Z"/><path d="M69.92,53.95h-.74l0,1,.16,0a.54.54,0,0,1,.45.22.86.86,0,0,1,.17.54.94.94,0,0,1-.17.58.52.52,0,0,1-.43.23.62.62,0,0,1-.54-.39l.05,0a.45.45,0,0,0,.38.27.39.39,0,0,0,.32-.17.7.7,0,0,0,.13-.43.63.63,0,0,0-.13-.42.45.45,0,0,0-.36-.16H69l0-1.44h.84Z"/><path d="M66.37,54.39v.08a1.16,1.16,0,0,0-.7.5,2,2,0,0,0-.3,1,.64.64,0,0,1,.49-.3.46.46,0,0,1,.39.22,1,1,0,0,1,.15.55.93.93,0,0,1-.17.58.53.53,0,0,1-.44.23.55.55,0,0,1-.48-.3,1.41,1.41,0,0,1-.19-.77A2,2,0,0,1,65.46,55,1.31,1.31,0,0,1,66.37,54.39Zm-.22,2.12A.88.88,0,0,0,66,56a.33.33,0,0,0-.29-.18.5.5,0,0,0-.38.23v0a1.74,1.74,0,0,0,.12.72c.08.18.19.26.32.26a.28.28,0,0,0,.25-.17A.85.85,0,0,0,66.15,56.51Z"/><path d="M61.06,54.07H61l.11-.7h.06a.14.14,0,0,0,0,.08h1.16v.09l-.68,2.66h-.25l.76-2.49h-.86a.16.16,0,0,0-.14.06A1.2,1.2,0,0,0,61.06,54.07Z"/><path d="M59.38,53a.81.81,0,0,1-.17.52.52.52,0,0,1-.82,0,.71.71,0,0,1-.16-.48.78.78,0,0,1,.1-.4,1.27,1.27,0,0,1,.33-.35.86.86,0,0,1-.28-.32,1,1,0,0,1-.1-.42.76.76,0,0,1,.15-.49.46.46,0,0,1,.38-.19.46.46,0,0,1,.37.18.68.68,0,0,1,.15.44.79.79,0,0,1-.34.65A1.12,1.12,0,0,1,59.38,53Zm-1,0a.74.74,0,0,0,.11.42.34.34,0,0,0,.28.17.31.31,0,0,0,.25-.13.55.55,0,0,0,.1-.34.92.92,0,0,0-.45-.73A.68.68,0,0,0,58.42,53Zm0-1.59a.59.59,0,0,0,.1.34,1.7,1.7,0,0,0,.35.36.61.61,0,0,0,.23-.54.77.77,0,0,0-.1-.42.29.29,0,0,0-.26-.16.28.28,0,0,0-.23.12A.48.48,0,0,0,58.47,51.4Z"/><path d="M57.29,49.92v-.08a1.07,1.07,0,0,0,.7-.49,1.9,1.9,0,0,0,.31-1,.64.64,0,0,1-.49.3.46.46,0,0,1-.39-.22.93.93,0,0,1-.15-.55.91.91,0,0,1,.18-.57.54.54,0,0,1,.44-.23.55.55,0,0,1,.47.3,1.4,1.4,0,0,1,.19.76,2,2,0,0,1-.36,1.21A1.28,1.28,0,0,1,57.29,49.92Zm.22-2.12a.89.89,0,0,0,.11.47.34.34,0,0,0,.3.18.49.49,0,0,0,.38-.25,1.82,1.82,0,0,0-.12-.73c-.08-.17-.19-.26-.32-.26a.29.29,0,0,0-.25.17A.83.83,0,0,0,57.51,47.81Z"/><path d="M58.57,46.08V44.21c0-.06,0-.1,0-.1l0,0a.56.56,0,0,1-.22.08v-.08a1.46,1.46,0,0,0,.46-.46h.06v2.4a.5.5,0,0,0,0,.24s.08.06.16.06v.07h-.63v-.07c.09,0,.14,0,.17-.06A.52.52,0,0,0,58.57,46.08Z"/><path d="M60.47,45.08a2.91,2.91,0,0,1-.08.73,1.27,1.27,0,0,1-.25.5.46.46,0,0,1-.34.18.47.47,0,0,1-.35-.18,1.22,1.22,0,0,1-.25-.5,2.83,2.83,0,0,1-.09-.74,2.7,2.7,0,0,1,.09-.73,1.24,1.24,0,0,1,.25-.5.47.47,0,0,1,.35-.18.46.46,0,0,1,.35.18,1.3,1.3,0,0,1,.25.5A2.9,2.9,0,0,1,60.47,45.08Zm-.26,0a3.33,3.33,0,0,0-.11-1q-.11-.34-.31-.34t-.31.35a4.19,4.19,0,0,0,0,1.9c.08.23.18.34.31.34s.24-.11.31-.34A3.21,3.21,0,0,0,60.21,45.08Z"/><path d="M61.37,42.91V41c0-.06,0-.09,0-.09l0,0a.58.58,0,0,1-.22.08V41a1.46,1.46,0,0,0,.46-.46h.06v2.4a.47.47,0,0,0,0,.24s.08.06.16.06v.07h-.63v-.07c.09,0,.14,0,.16-.06A.46.46,0,0,0,61.37,42.91Z"/><path d="M62.12,42.91V41c0-.06,0-.09,0-.09l0,0a.56.56,0,0,1-.22.08V41a1.49,1.49,0,0,0,.46-.46h.06v2.4a.5.5,0,0,0,0,.24s.08.06.16.06v.07h-.63v-.07c.08,0,.14,0,.16-.06A.48.48,0,0,0,62.12,42.91Z"/><path d="M70,43V41.12c0-.06,0-.1,0-.1l0,0a.6.6,0,0,1-.22.08V41a1.46,1.46,0,0,0,.46-.46h.06V43a.49.49,0,0,0,0,.24s.08.06.16.06v.07H69.8v-.07c.09,0,.14,0,.17-.06A.51.51,0,0,0,70,43Z"/><rect x="64.73" y="48.09" width="5.8" height="0.52" transform="translate(-2.12 3.12) rotate(-2.6)"/><polygon points="70.51 47.88 71.44 48.17 70.54 48.55 70.51 47.88"/><rect x="64.57" y="42.65" width="0.52" height="6.7" transform="translate(-12.84 29.1) rotate(-23.08)"/><polygon points="63.21 43.06 63.1 41.95 63.82 42.8 63.21 43.06"/></g></g></svg>