<svg xmlns="http://www.w3.org/2000/svg" viewBox="0 0 138.6 185.14"><defs><style>.cls-1{fill:#9d4a91;}.cls-2{fill:#87197d;}.cls-3{fill:#ac98c6;}.cls-4{fill:#856aa8;}.cls-5{fill:#9277af;}.cls-6{fill:#896ba8;}.cls-7{fill:#fff;}.cls-8{fill:#c9d127;}.cls-9{fill:#8e006e;}.cls-10{fill:#740059;}.cls-11{fill:#c30079;}.cls-12{fill:#aa007b;}.cls-13{fill:#a8007b;}.cls-14{fill:#1e1e1c;}</style></defs><title>Ресурс 7clock2</title><g id="Слой_2" data-name="Слой 2"><g id="Layer_2" data-name="Layer 2"><path class="cls-1" d="M35.27,165.83c.3-.42.6-.84.91-1.26l-.17-.09Q35.64,165.17,35.27,165.83Z"/><path class="cls-1" d="M28.94,170.5c-.82-1.46,1.07-5.2,3-8.42-.91-.58-1.82-1.17-2.71-1.79a48.8,48.8,0,0,1-.41,6.3,88.83,88.83,0,0,1-3.3,14.24c2.31-3.72,4.63-7.42,7-11.06C31.14,171.43,29.8,172,28.94,170.5Z"/><path class="cls-2" d="M28.94,170.5c.86,1.52,2.2.93,3.65-.72a24.56,24.56,0,0,0,2.68-3.94q.37-.66.74-1.35c-1.38-.75-2.72-1.56-4-2.4C30,165.3,28.11,169,28.94,170.5Z"/><path class="cls-1" d="M108.9,160.76c-.79.55-1.59,1.09-2.41,1.6,1.89,3.16,3.65,6.72,2.85,8.14-1.5,2.66-4.47-1.13-6.93-5.76l-.64.34c3.93,5.5,7.53,11.24,11.11,17a84.39,84.39,0,0,1-3.61-15.26A55.16,55.16,0,0,1,108.9,160.76Z"/><path class="cls-2" d="M102.42,164.74c2.47,4.63,5.43,8.42,6.93,5.76.8-1.42-1-5-2.85-8.14Q104.5,163.62,102.42,164.74Z"/><path class="cls-3" d="M112.83,149.74a55.52,55.52,0,0,0,4.93-4.86,21,21,0,0,0,1.58-2.06A64.38,64.38,0,0,1,112.83,149.74Z"/><path class="cls-3" d="M91.36,39A68.66,68.66,0,0,0,1.43,112.47c2.86,22.78,17.17,43.35,38,53.35a68.79,68.79,0,0,0,67.55-4.64,68.83,68.83,0,0,0,28.77-73.6C130.14,65.22,113.33,46.37,91.36,39Zm-64,13.77a17.38,17.38,0,0,1,2.36-2c1.15-.8,3.1-2.12,4.56-1.33-1.35,1.88-3.52,2.8-5.51,3.84-.36.19-1.88,1.38-2.21.9S27.14,53,27.36,52.81ZM135,110.46l0,.55c0,.69-.09,1.39-.19,2.08l.19-2.08a39.33,39.33,0,0,0-1.5-11.83c.07,1.2.11,2.41.11,3.63a63.2,63.2,0,0,1-6.8,28.57c1.15-1.19,2.51-2.12,3.28,0s-1,4.51-2.2,6.17c-2.1,2.82-4.25,5.61-6.49,8.33l-.52.63a63.15,63.15,0,0,1-5.82,6.25,32.91,32.91,0,0,1-4.5,3.29c-5.1,3.29-9.83,6.86-15.5,9.37-3,1.31-6,2.94-9.31,3.15.84-1.4,4-2.39,5.36-3.31,4.24-2.79,8.34-5.19,12.49-8.26l2.93-2.18a63.26,63.26,0,0,1-24.72,10.46c-3.5,4.5-9.06,5.15-14.6,4.75-3-.22-5.83-.52-8.61-.93a17.36,17.36,0,0,1-4.22-.47A65,65,0,0,1,43,165.39c-1.06-.44-2.09-.93-3.11-1.44a62.93,62.93,0,0,1-6.33-3.2l-.7-.34c-2.62-1.16-6.7-3.19-8.42-6a64.61,64.61,0,0,1-12-13.48c-.75-1.12-1.52-2.24-2.26-3.37-.39-.59-2.58-4.15-1.54-4.71.41-.22,1.52.79,1.94,1,.9.52,1.72,1.21,2.6,1.77,1.21.78,2.46,1.5,3.72,2.2A63.49,63.49,0,0,1,9.13,84.13C5.23,91.59,4.4,100,5.22,108.41A115.28,115.28,0,0,0,7.61,121c.4,1.88,1.73,3.88,1.5,5.85-1-.12-1.8-2.15-2.15-2.88A46.4,46.4,0,0,1,2.6,98.52c.47-4.2,1.52-8.88,3.88-12.61l.37-2.23a5.62,5.62,0,0,1-.92,2.05c-.65-4.91,2.62-10,5.28-13.82a61.11,61.11,0,0,1,11.13-11.7c.34-.29,1.19-1.1,2.13-1.83A63.94,63.94,0,0,1,39.92,46.75,26,26,0,0,1,42,43.61c2.75-2.71,7.14-4,10.81-5a40.16,40.16,0,0,1,11.14-1.86c3.13,0,6.55-.72,9.66-.09,2.09.43,4.35.53,6.45,1.09l-.43-.27c3.27.29,14.68,1.52,14.88,6.68a64,64,0,0,1,30.26,26.49c.06-1.94,2.19-1.48,3.16-.53,1.37,1.34,2.18,3.54,2.83,5.29,1.46,4,2.07,8.14,3,12.23C135.71,95.58,136.36,102.43,135,110.46Z"/><path class="cls-3" d="M9.78,82.17q.83-2.41,1.84-4.73a37.17,37.17,0,0,0-4.16,7.08A14.51,14.51,0,0,1,9.78,82.17Z"/><path class="cls-4" d="M16.86,137.82c-1.26-.7-2.51-1.42-3.72-2.2-.88-.56-1.7-1.25-2.6-1.77-.42-.24-1.53-1.24-1.94-1-1,.56,1.15,4.13,1.54,4.71.75,1.13,1.51,2.25,2.26,3.37a64.61,64.61,0,0,0,12,13.48,5.4,5.4,0,0,1-.77-2.08c-.39-2.8,1.35-3,3.24-2.74A64.08,64.08,0,0,1,16.86,137.82Z"/><path class="cls-4" d="M59.85,165.62c.58,1,1,2.12.48,2.81a2.37,2.37,0,0,1-1.81.7c2.78.41,5.65.72,8.61.93,5.54.4,11.11-.25,14.6-4.75a63.19,63.19,0,0,1-21.88.31Z"/><path class="cls-4" d="M39.84,163.95c-2.11-1.06-4.18-2.2-6.33-3.2A62.93,62.93,0,0,0,39.84,163.95Z"/><path class="cls-5" d="M26.87,149.58c-1.9-.28-3.63-.07-3.24,2.74a5.4,5.4,0,0,0,.77,2.08c1.72,2.83,5.8,4.86,8.42,6l.7.34c2.15,1,4.22,2.14,6.33,3.2,1,.51,2,1,3.11,1.44a65,65,0,0,0,11.35,3.27,17.36,17.36,0,0,0,4.22.47,2.37,2.37,0,0,0,1.81-.7c.49-.68.1-1.8-.48-2.81A63.43,63.43,0,0,1,26.87,149.58Z"/><path class="cls-6" d="M126.74,131.39a63.79,63.79,0,0,1-7.4,11.44,21,21,0,0,1-1.58,2.06,55.52,55.52,0,0,1-4.93,4.86,64.2,64.2,0,0,1-6.38,5.11L103.53,157c-4.15,3.07-8.25,5.47-12.49,8.26-1.39.92-4.51,1.91-5.36,3.31,3.29-.21,6.35-1.84,9.31-3.15,5.67-2.5,10.41-6.08,15.5-9.37a32.91,32.91,0,0,0,4.5-3.29,63.15,63.15,0,0,0,5.82-6.25l.52-.63c2.23-2.72,4.39-5.51,6.49-8.33,1.23-1.66,3-3.94,2.2-6.17S127.89,130.2,126.74,131.39Z"/><path class="cls-5" d="M134.93,111l-.19,2.08C134.84,112.4,134.9,111.71,134.93,111Z"/><path class="cls-5" d="M130.76,75.4c-.64-1.76-1.45-4-2.83-5.29-1-.95-3.11-1.41-3.16.53a63.16,63.16,0,0,1,8.66,28.55,39.33,39.33,0,0,1,1.5,11.83l0-.55c1.37-8,.72-14.88-1.17-22.83C132.83,83.55,132.21,79.37,130.76,75.4Z"/><path class="cls-6" d="M11.21,71.91c-2.66,3.78-5.92,8.91-5.28,13.82a5.62,5.62,0,0,0,.92-2.05l-.37,2.23a16.82,16.82,0,0,1,1-1.39,37.17,37.17,0,0,1,4.16-7.08A63.83,63.83,0,0,1,24.48,58.38c-.95.73-1.79,1.55-2.13,1.83A61.11,61.11,0,0,0,11.21,71.91Z"/><path class="cls-6" d="M73.61,36.65c-3.11-.64-6.53.12-9.66.09A40.16,40.16,0,0,0,52.8,38.59c-3.66,1-8.06,2.31-10.81,5a26,26,0,0,0-2.07,3.14,63.14,63.14,0,0,1,26.44-7.44,1.17,1.17,0,0,1,0-.13c.86-1.86,6.15-1.84,7.68-1.93a40.83,40.83,0,0,1,6.12.58l-.14-.09C78,37.18,75.7,37.08,73.61,36.65Z"/><path class="cls-5" d="M79.63,37.48l.43.27.14.09a40.83,40.83,0,0,0-6.12-.58c-1.53.09-6.82.07-7.68,1.93a1.17,1.17,0,0,0,0,.13c1.18-.07,2.37-.11,3.57-.11a63.25,63.25,0,0,1,24.58,4.94C94.31,39,82.9,37.77,79.63,37.48Z"/><polygon class="cls-7" points="108.39 124.49 108.39 120.44 105.5 124.49 108.39 124.49"/><path class="cls-7" d="M33.86,120.77a1.41,1.41,0,1,0,1.49,1.4A1.33,1.33,0,0,0,33.86,120.77Z"/><path class="cls-7" d="M37.38,78.94c-1.36,0-1.83,1.6-1.83,3.51S36,86,37.38,86s1.83-1.6,1.83-3.51S38.74,78.94,37.38,78.94Z"/><path class="cls-7" d="M37.81,58.18l1.83,2.52-.4.29-1.83-2.52q-2.1,1.58-4,3.35l2,2.28-.37.33-2-2.27q-1.92,1.78-3.68,3.75l2.23,2-.34.37-2.23-2q-1.73,2-3.26,4.1l2.39,1.74-.29.4L25.43,70.8q-1.52,2.14-2.83,4.43l5.1,3.26a49.35,49.35,0,0,1,17.7-17.85L42.2,55.27Q39.93,56.62,37.81,58.18Z"/><path class="cls-7" d="M26.94,98.86c-1.24,0-1.76,1-1.76,2.08A1.74,1.74,0,0,0,27,102.86a1.77,1.77,0,0,0,1.85-2A1.86,1.86,0,0,0,26.94,98.86Z"/><path class="cls-7" d="M42.62,150.61q2.27,1.33,4.68,2.44l1.3-2.93.46.2-1.31,2.93q2.39,1.08,4.9,1.93l1-3.09.47.16-1,3.09q2.49.82,5.09,1.39l.68-3.21.49.1-.68,3.21q2.56.54,5.21.84l.34-3.27.5.05-.34,3.27q2.6.27,5.27.28v-6.12a48.7,48.7,0,0,1-24.23-6.7Z"/><path class="cls-7" d="M70.17,54.42a48.49,48.49,0,1,0,48.49,48.49A48.55,48.55,0,0,0,70.17,54.42Zm19.69,9.36h.25a1.9,1.9,0,0,0,2-1.5h.8V70.7H91.79V64.37H89.86ZM73,56.29A1.61,1.61,0,0,0,71.25,58v.32H70.14V58A2.59,2.59,0,0,1,73,55.34c1.72,0,2.82.94,2.82,2.55S75.1,60,73.14,61.22c-1.14.72-1.61,1.23-1.77,1.84h4.45v1h-5.7c0-2,1.21-2.8,2.85-3.84.7-.44,1.72-1,1.72-2.27A1.52,1.52,0,0,0,73,56.29ZM50.39,63.9h.25a1.89,1.89,0,0,0,2-1.51h.8v8.43H52.31V64.49H50.39ZM29.67,79.75h.25a1.89,1.89,0,0,0,2-1.5h.8v8.42H31.6V80.34H29.67Zm-2.85,27.14a2.45,2.45,0,0,1-2.61-2.11h1A1.49,1.49,0,0,0,26.84,106c1.75,0,2.06-1.79,2-3.12h0a2.5,2.5,0,0,1-2.06.89,2.61,2.61,0,0,1-2.71-2.84A2.74,2.74,0,0,1,27,98c1.44,0,3,.52,3,4.36C30,106.33,28.14,106.89,26.83,106.89Zm7,21.91A2.54,2.54,0,0,1,31,126.16,2.2,2.2,0,0,1,32.55,124a1.92,1.92,0,0,1-1.22-1.85,2.23,2.23,0,0,1,2.53-2.26,2.23,2.23,0,0,1,2.53,2.26A1.92,1.92,0,0,1,35.17,124a2.2,2.2,0,0,1,1.53,2.18A2.54,2.54,0,0,1,33.86,128.8Zm3.52-41.87c-.62,0-2.95-.14-2.95-4.46S36.75,78,37.38,78s3,.15,3,4.47S38,86.92,37.38,86.92Zm10.29-16.1H46.54V64.49H44.61V63.9h.25a1.9,1.9,0,0,0,2-1.51h.79Zm6.26,65.72a12.14,12.14,0,0,0-2.33,3.78,13.43,13.43,0,0,0-.93,3.87h-1.2a13.66,13.66,0,0,1,1-3.78,13.39,13.39,0,0,1,2.35-3.7h-5v-.95h6.15ZM65.21,57.09h.26a1.89,1.89,0,0,0,2-1.5h.79V64H67.14V57.69H65.21Zm4.63,92.72c-1.85,0-3-1-3-4.36,0-4.5,2.43-4.57,3.18-4.57a2.44,2.44,0,0,1,2.61,2.1h-1a1.48,1.48,0,0,0-1.61-1.2c-1.76,0-2.06,1.79-2,3.12h0A2.52,2.52,0,0,1,70,144a2.61,2.61,0,0,1,2.71,2.83A2.74,2.74,0,0,1,69.84,149.81Zm21.27-6.09a2.56,2.56,0,0,1-2.84-2.4h1.11a1.63,1.63,0,0,0,1.73,1.5c.57,0,2-.11,2-2.08a1.76,1.76,0,0,0-1.85-2,2.1,2.1,0,0,0-1.65.74H88.51l.59-4.44h4.55v1H89.94l-.34,2.49a2.71,2.71,0,0,1,1.9-.64,2.59,2.59,0,0,1,2.64,2.88A2.75,2.75,0,0,1,91.11,143.73Zm-17-37.37-1.26-1.23a2.79,2.79,0,0,1-1,.22,2.89,2.89,0,0,1-3-2.8l1-37.26,4.5,35.26,23.49,2.21Zm36.73,19.08h-1.32v1.95h-1.14v-1.95h-4v-.95l4-5.53h1.15v5.53h1.32Zm2.85-26.72c2.34,0,2.67,1.65,2.67,2.32A1.9,1.9,0,0,1,115,102.9v0a2,2,0,0,1,1.63,2.13,2.6,2.6,0,0,1-2.9,2.6,2.65,2.65,0,0,1-2.95-2.82h1.08c0,.1,0,.18,0,.28a1.7,1.7,0,0,0,1.76,1.64,1.67,1.67,0,0,0,1.92-1.78,1.43,1.43,0,0,0-1.54-1.52h-.87v-.91h.34c.36,0,1.84,0,1.84-1.46,0-.66-.34-1.45-1.66-1.45-.39,0-1.65.06-1.63,1.91h-1A2.52,2.52,0,0,1,113.7,98.72Zm-5.75-20.81a1.61,1.61,0,0,0-1.74,1.67v.31H105.1v-.25A2.58,2.58,0,0,1,108,77c1.72,0,2.82.93,2.82,2.55s-.75,2.08-2.71,3.33c-1.14.72-1.61,1.23-1.76,1.84h4.45v.95h-5.71c0-2,1.22-2.8,2.86-3.84.7-.45,1.72-1,1.72-2.28A1.53,1.53,0,0,0,107.95,77.91Z"/><path class="cls-7" d="M70.19,151.9V158q2.67,0,5.27-.28l-.34-3.27.5-.05.34,3.27q2.65-.29,5.21-.84l-.68-3.21.49-.1.68,3.2q2.59-.57,5.08-1.39l-1-3.09.48-.15,1,3.08q2.51-.85,4.91-1.93l-1.3-2.93.46-.2,1.3,2.92q2.4-1.11,4.67-2.43l-2.82-4.91.43-.25,2.82,4.9q2.26-1.35,4.39-2.91l-1.82-2.5.4-.29,1.81,2.49q2.1-1.57,4-3.34l-2-2.25.37-.33,2,2.25q1.92-1.78,3.67-3.74l-2.21-2,.33-.37,2.21,2q1.72-2,3.26-4.1l-2.37-1.72.29-.4,2.37,1.72q1.51-2.13,2.82-4.41l-4.83-2.76A49,49,0,0,1,70.19,151.9Z"/><path class="cls-7" d="M15.27,103.07q0,2.64.27,5.22l2.77-.3.05.5-2.77.29q.28,2.62.8,5.16l2.75-.59.1.49-2.75.59Q17,117,17.82,119.5l2.69-.88.15.47L18,120q.81,2.5,1.85,4.89l2.61-1.16.2.46L20,125.32q1.07,2.41,2.36,4.7l5.3-2.74a48.69,48.69,0,0,1-6.5-24.2Z"/><path class="cls-7" d="M112.07,72.55l-.29-.4,2.38-1.73q-1.53-2.13-3.26-4.1l-2.22,2-.33-.37,2.22-2q-1.75-2-3.67-3.75l-2,2.27-.37-.33,2-2.27q-1.94-1.77-4-3.35L100.66,61l-.4-.29,1.83-2.52q-2.12-1.56-4.39-2.92l-3.24,5L94,60l3.23-5Q95,53.7,92.6,52.59l-1.31,2.94-.46-.2,1.31-2.95q-2.4-1.08-4.91-1.93l-1,3.11-.47-.15,1-3.11q-2.49-.82-5.09-1.39L81,52.13,80.5,52l.69-3.23Q78.63,48.26,76,48l-.35,3.3-.5-.05.35-3.3q-2.61-.27-5.29-.28v6.21h-.5V47.62q-2.67,0-5.27.28l.35,3.3-.5.05L63.92,48q-2.65.29-5.21.84L59.4,52l-.49.1-.68-3.23q-2.59.57-5.1,1.39l1,3.11-.47.15-1-3.11q-2.51.85-4.9,1.92l1.31,3-.46.2-1.31-3Q44.9,53.69,42.63,55l3.21,5.38A49,49,0,0,1,112.3,77.93l5-2.71Q116,73,114.45,70.82Z"/><path class="cls-7" d="M33.86,124.45a1.57,1.57,0,0,0-1.76,1.65,1.76,1.76,0,1,0,3.51,0A1.57,1.57,0,0,0,33.86,124.45Z"/><path class="cls-7" d="M124.6,102.59c0-1.75-.1-3.49-.26-5.21l-2.76.29-.05-.5,2.76-.29q-.28-2.62-.8-5.17l-2.74.58-.1-.49,2.74-.59c-.36-1.71-.81-3.4-1.33-5.05l-2.69.88-.15-.47,2.7-.88q-.81-2.5-1.85-4.89L117.45,82l-.2-.46,2.62-1.17q-1.07-2.4-2.35-4.69l-5,2.7a48.92,48.92,0,0,1,.11,48.9l4.83,2.75q1.28-2.28,2.35-4.68l-2.61-1.16.2-.46,2.61,1.16q1-2.39,1.85-4.89l-2.69-.87.15-.48,2.68.87q.78-2.48,1.33-5.06l-2.74-.58.1-.49,2.74.58c.34-1.69.61-3.42.8-5.16l-2.76-.29.05-.5,2.76.29q.25-2.58.27-5.22h-5.15v-.5Z"/><path class="cls-7" d="M69.87,144.91a1.78,1.78,0,0,0-1.85,2,1.86,1.86,0,0,0,1.88,2c1.24,0,1.76-1,1.76-2.08A1.75,1.75,0,0,0,69.87,144.91Z"/><path class="cls-7" d="M20,80.33l2.63,1.17-.2.46-2.63-1.17q-1,2.39-1.85,4.89l2.7.88-.15.47-2.7-.88q-.78,2.48-1.33,5.05l2.75.59-.1.49-2.75-.59q-.52,2.54-.8,5.16l2.78.29-.05.5-2.78-.29q-.25,2.58-.26,5.22h5.91a48.69,48.69,0,0,1,6.28-23.64l-5.1-3.26Q21.08,77.93,20,80.33Z"/><path class="cls-7" d="M27.93,127.71l-5.3,2.74q1.31,2.27,2.81,4.39l2.38-1.72.29.4-2.38,1.73q1.54,2.13,3.27,4.1l2.22-2,.33.37-2.22,2q1.75,2,3.68,3.75l2-2.25.37.33-2,2.26q1.94,1.77,4,3.35l1.82-2.5.4.29-1.82,2.5q2.11,1.55,4.37,2.9L45,144.94A49.38,49.38,0,0,1,27.93,127.71Z"/><path class="cls-8" d="M69.93,39.71A63.21,63.21,0,0,0,10.45,81.76l0,0-.1.16A63.1,63.1,0,1,0,69.93,39.71Zm50.39,40.43.2.46h0q1,2.41,1.86,4.94h0l.15.47h0q.79,2.5,1.34,5.1h.06l.1.49H124q.52,2.57.81,5.22h.09l.05.5h-.08q.25,2.6.27,5.26h.1v.5h-.1q0,2.66-.27,5.27h.09l-.05.5h-.09q-.28,2.64-.81,5.21H124l-.1.49h-.06q-.56,2.6-1.35,5.11h0l-.15.48h0q-.82,2.53-1.87,4.94h0l-.2.46h0a54.95,54.95,0,0,1-100.73,0h0l-.2-.46h0q-1-2.41-1.87-4.94h0l-.15-.47h0q-.79-2.5-1.34-5.11h-.06l-.1-.49h.06q-.52-2.57-.81-5.21H15l-.05-.5H15q-.25-2.6-.27-5.27h-.09v-.5h.09q0-2.67.27-5.27H15l.05-.5h.07q.28-2.65.81-5.21h-.05l.1-.49h0q.55-2.6,1.34-5.1h0l.15-.47h0a55,55,0,0,1,102.83-5.38Z"/><path class="cls-7" d="M65.47,57.09h-.26v.59h1.93V64h1.13V55.59h-.79A1.89,1.89,0,0,1,65.47,57.09Z"/><path class="cls-9" d="M65.47,57.09h-.26v.59h1.93V64h1.13V55.59h-.79A1.89,1.89,0,0,1,65.47,57.09Z"/><path class="cls-7" d="M73.14,61.22c2-1.25,2.71-1.76,2.71-3.33S74.75,55.34,73,55.34A2.59,2.59,0,0,0,70.14,58v.25h1.11V58A1.61,1.61,0,0,1,73,56.29a1.52,1.52,0,0,1,1.69,1.61c0,1.29-1,1.83-1.72,2.27-1.64,1-2.87,1.81-2.85,3.84h5.7v-1H71.36C71.52,62.45,72,61.94,73.14,61.22Z"/><path class="cls-9" d="M73.14,61.22c2-1.25,2.71-1.76,2.71-3.33S74.75,55.34,73,55.34A2.59,2.59,0,0,0,70.14,58v.25h1.11V58A1.61,1.61,0,0,1,73,56.29a1.52,1.52,0,0,1,1.69,1.61c0,1.29-1,1.83-1.72,2.27-1.64,1-2.87,1.81-2.85,3.84h5.7v-1H71.36C71.52,62.45,72,61.94,73.14,61.22Z"/><path class="cls-7" d="M44.86,63.9h-.25v.59h1.93v6.33h1.13V62.4h-.79A1.9,1.9,0,0,1,44.86,63.9Z"/><path class="cls-9" d="M44.86,63.9h-.25v.59h1.93v6.33h1.13V62.4h-.79A1.9,1.9,0,0,1,44.86,63.9Z"/><path class="cls-7" d="M50.64,63.9h-.25v.59h1.92v6.33h1.14V62.4h-.8A1.89,1.89,0,0,1,50.64,63.9Z"/><path class="cls-9" d="M50.64,63.9h-.25v.59h1.92v6.33h1.14V62.4h-.8A1.89,1.89,0,0,1,50.64,63.9Z"/><path class="cls-7" d="M29.93,79.75h-.25v.59H31.6v6.33h1.14V78.24h-.8A1.89,1.89,0,0,1,29.93,79.75Z"/><path class="cls-9" d="M29.93,79.75h-.25v.59H31.6v6.33h1.14V78.24h-.8A1.89,1.89,0,0,1,29.93,79.75Z"/><path class="cls-7" d="M37.38,78c-.62,0-2.95.15-2.95,4.47s2.33,4.46,2.95,4.46,3-.14,3-4.46S38,78,37.38,78Zm0,8c-1.36,0-1.83-1.6-1.83-3.51s.47-3.51,1.83-3.51,1.83,1.6,1.83,3.51S38.74,86,37.38,86Z"/><path class="cls-9" d="M37.38,78c-.62,0-2.95.15-2.95,4.47s2.33,4.46,2.95,4.46,3-.14,3-4.46S38,78,37.38,78Zm0,8c-1.36,0-1.83-1.6-1.83-3.51s.47-3.51,1.83-3.51,1.83,1.6,1.83,3.51S38.74,86,37.38,86Z"/><path class="cls-7" d="M27,98a2.74,2.74,0,0,0-2.89,3,2.61,2.61,0,0,0,2.71,2.84,2.5,2.5,0,0,0,2.06-.89h0c0,1.33-.29,3.12-2,3.12a1.49,1.49,0,0,1-1.61-1.21h-1a2.45,2.45,0,0,0,2.61,2.11c1.31,0,3.18-.56,3.18-4.57C30,98.47,28.43,98,27,98Zm0,4.9a1.74,1.74,0,0,1-1.78-1.92c0-1.06.52-2.08,1.76-2.08a1.86,1.86,0,0,1,1.88,2A1.77,1.77,0,0,1,27,102.86Z"/><path class="cls-9" d="M27,98a2.74,2.74,0,0,0-2.89,3,2.61,2.61,0,0,0,2.71,2.84,2.5,2.5,0,0,0,2.06-.89h0c0,1.33-.29,3.12-2,3.12a1.49,1.49,0,0,1-1.61-1.21h-1a2.45,2.45,0,0,0,2.61,2.11c1.31,0,3.18-.56,3.18-4.57C30,98.47,28.43,98,27,98Zm0,4.9a1.74,1.74,0,0,1-1.78-1.92c0-1.06.52-2.08,1.76-2.08a1.86,1.86,0,0,1,1.88,2A1.77,1.77,0,0,1,27,102.86Z"/><path class="cls-7" d="M35.17,124a1.92,1.92,0,0,0,1.22-1.85,2.23,2.23,0,0,0-2.53-2.26,2.23,2.23,0,0,0-2.53,2.26A1.92,1.92,0,0,0,32.55,124,2.2,2.2,0,0,0,31,126.16a2.54,2.54,0,0,0,2.84,2.63,2.54,2.54,0,0,0,2.84-2.63A2.2,2.2,0,0,0,35.17,124Zm-2.8-1.81a1.49,1.49,0,1,1,1.49,1.42A1.33,1.33,0,0,1,32.37,122.17Zm1.49,5.73a1.7,1.7,0,0,1-1.76-1.79,1.57,1.57,0,0,1,1.76-1.65,1.57,1.57,0,0,1,1.76,1.65A1.69,1.69,0,0,1,33.86,127.89Z"/><path class="cls-9" d="M35.17,124a1.92,1.92,0,0,0,1.22-1.85,2.23,2.23,0,0,0-2.53-2.26,2.23,2.23,0,0,0-2.53,2.26A1.92,1.92,0,0,0,32.55,124,2.2,2.2,0,0,0,31,126.16a2.54,2.54,0,0,0,2.84,2.63,2.54,2.54,0,0,0,2.84-2.63A2.2,2.2,0,0,0,35.17,124Zm-2.8-1.81a1.49,1.49,0,1,1,1.49,1.42A1.33,1.33,0,0,1,32.37,122.17Zm1.49,5.73a1.7,1.7,0,0,1-1.76-1.79,1.57,1.57,0,0,1,1.76-1.65,1.57,1.57,0,0,1,1.76,1.65A1.69,1.69,0,0,1,33.86,127.89Z"/><path class="cls-7" d="M47.78,136.72h5a13.39,13.39,0,0,0-2.35,3.7,13.66,13.66,0,0,0-1,3.78h1.2a13.43,13.43,0,0,1,.93-3.87,12.14,12.14,0,0,1,2.33-3.78v-.77H47.78Z"/><path class="cls-9" d="M47.78,136.72h5a13.39,13.39,0,0,0-2.35,3.7,13.66,13.66,0,0,0-1,3.78h1.2a13.43,13.43,0,0,1,.93-3.87,12.14,12.14,0,0,1,2.33-3.78v-.77H47.78Z"/><path class="cls-7" d="M70,144a2.52,2.52,0,0,0-2.06.89h0c0-1.32.29-3.12,2-3.12A1.48,1.48,0,0,1,71.6,143h1a2.44,2.44,0,0,0-2.61-2.1c-.74,0-3.18.07-3.18,4.57,0,3.38,1.16,4.36,3,4.36a2.74,2.74,0,0,0,2.89-3A2.61,2.61,0,0,0,70,144Zm-.13,4.9a1.86,1.86,0,0,1-1.88-2,1.78,1.78,0,0,1,1.85-2,1.75,1.75,0,0,1,1.79,1.92C71.65,147.89,71.14,148.91,69.9,148.91Z"/><path class="cls-9" d="M70,144a2.52,2.52,0,0,0-2.06.89h0c0-1.32.29-3.12,2-3.12A1.48,1.48,0,0,1,71.6,143h1a2.44,2.44,0,0,0-2.61-2.1c-.74,0-3.18.07-3.18,4.57,0,3.38,1.16,4.36,3,4.36a2.74,2.74,0,0,0,2.89-3A2.61,2.61,0,0,0,70,144Zm-.13,4.9a1.86,1.86,0,0,1-1.88-2,1.78,1.78,0,0,1,1.85-2,1.75,1.75,0,0,1,1.79,1.92C71.65,147.89,71.14,148.91,69.9,148.91Z"/><path class="cls-7" d="M91.5,137.85a2.71,2.71,0,0,0-1.9.64l.34-2.49h3.72v-1H89.11l-.59,4.44h1.06a2.1,2.1,0,0,1,1.65-.74,1.76,1.76,0,0,1,1.85,2c0,2-1.4,2.08-2,2.08a1.63,1.63,0,0,1-1.73-1.5H88.27a2.56,2.56,0,0,0,2.84,2.4,2.75,2.75,0,0,0,3-3A2.59,2.59,0,0,0,91.5,137.85Z"/><path class="cls-9" d="M91.5,137.85a2.71,2.71,0,0,0-1.9.64l.34-2.49h3.72v-1H89.11l-.59,4.44h1.06a2.1,2.1,0,0,1,1.65-.74,1.76,1.76,0,0,1,1.85,2c0,2-1.4,2.08-2,2.08a1.63,1.63,0,0,1-1.73-1.5H88.27a2.56,2.56,0,0,0,2.84,2.4,2.75,2.75,0,0,0,3-3A2.59,2.59,0,0,0,91.5,137.85Z"/><path class="cls-7" d="M109.53,119h-1.15l-4,5.53v.95h4v1.95h1.14v-1.95h1.32v-.95h-1.32Zm-1.14,5.53H105.5l2.89-4Z"/><path class="cls-9" d="M109.53,119h-1.15l-4,5.53v.95h4v1.95h1.14v-1.95h1.32v-.95h-1.32Zm-1.14,5.53H105.5l2.89-4Z"/><path class="cls-7" d="M115,102.92v0a1.9,1.9,0,0,0,1.38-1.86c0-.67-.33-2.32-2.67-2.32a2.52,2.52,0,0,0-2.72,2.82h1c0-1.86,1.24-1.91,1.63-1.91,1.33,0,1.66.79,1.66,1.45,0,1.44-1.48,1.46-1.84,1.46h-.34v.91H114a1.43,1.43,0,0,1,1.54,1.52,1.67,1.67,0,0,1-1.92,1.78,1.7,1.7,0,0,1-1.76-1.64c0-.1,0-.18,0-.28h-1.08a2.65,2.65,0,0,0,2.95,2.82,2.6,2.6,0,0,0,2.9-2.6A2,2,0,0,0,115,102.92Z"/><path class="cls-9" d="M115,102.92v0a1.9,1.9,0,0,0,1.38-1.86c0-.67-.33-2.32-2.67-2.32a2.52,2.52,0,0,0-2.72,2.82h1c0-1.86,1.24-1.91,1.63-1.91,1.33,0,1.66.79,1.66,1.45,0,1.44-1.48,1.46-1.84,1.46h-.34v.91H114a1.43,1.43,0,0,1,1.54,1.52,1.67,1.67,0,0,1-1.92,1.78,1.7,1.7,0,0,1-1.76-1.64c0-.1,0-.18,0-.28h-1.08a2.65,2.65,0,0,0,2.95,2.82,2.6,2.6,0,0,0,2.9-2.6A2,2,0,0,0,115,102.92Z"/><path class="cls-7" d="M108.09,82.84c2-1.25,2.71-1.76,2.71-3.33S109.71,77,108,77a2.58,2.58,0,0,0-2.89,2.68v.25h1.11v-.31a1.61,1.61,0,0,1,1.74-1.67,1.53,1.53,0,0,1,1.7,1.61c0,1.29-1,1.83-1.72,2.28-1.64,1-2.86,1.8-2.86,3.84h5.71v-.95h-4.45C106.48,84.07,107,83.56,108.09,82.84Z"/><path class="cls-9" d="M108.09,82.84c2-1.25,2.71-1.76,2.71-3.33S109.71,77,108,77a2.58,2.58,0,0,0-2.89,2.68v.25h1.11v-.31a1.61,1.61,0,0,1,1.74-1.67,1.53,1.53,0,0,1,1.7,1.61c0,1.29-1,1.83-1.72,2.28-1.64,1-2.86,1.8-2.86,3.84h5.71v-.95h-4.45C106.48,84.07,107,83.56,108.09,82.84Z"/><path class="cls-7" d="M90.12,63.78h-.25v.59h1.92V70.7h1.13V62.28h-.8A1.9,1.9,0,0,1,90.12,63.78Z"/><path class="cls-9" d="M90.12,63.78h-.25v.59h1.92V70.7h1.13V62.28h-.8A1.9,1.9,0,0,1,90.12,63.78Z"/><path class="cls-10" d="M68.9,102.55a2.89,2.89,0,0,0,3,2.8,2.79,2.79,0,0,0,1-.22l-1.65-1.61,2.75-3,.49,0-4.5-35.26Z"/><polygon class="cls-9" points="73.95 100.5 71.21 103.52 72.86 105.13 74.12 106.36 97.94 102.75 74.45 100.54 73.95 100.5"/><path class="cls-11" d="M73.62,24.62v.62c.63,0,1.26.07,1.89.11V21.92L73.62,22Z"/><path class="cls-11" d="M73.46,6.73l0,.05a2.44,2.44,0,0,0,1.39-.05,3.69,3.69,0,0,1-.68.06A3.8,3.8,0,0,1,73.46,6.73Z"/><path class="cls-11" d="M74.91,6.82a4.17,4.17,0,0,1-1.58.07,45.41,45.41,0,0,1-8.85,7.75c-2.88,1.91-5.89,3.62-8.93,5.27q-3.07,1.66-6.18,3.27s2.15-.06,2.69-.09l3.4-.23c7.12-.5,14.24-1.17,21.38-1.38a204.21,204.21,0,0,1,21.82.64C89.93,18.12,81.23,14.13,74.91,6.82Zm-6.13,6.54c-.53.58-1,1.11-1.48,1.71A13.49,13.49,0,0,1,63.12,19c-1,.51-2.59,1.4-3.73,1-.2-1.14,2-2.28,2.77-2.76,2.61-1.71,4.82-4.48,7.7-5.71C69.84,11.47,69,13.14,68.78,13.36Zm13.71,1.22c1.64,1.14,4,1.61,5.51,2.87.82.7.25,1.08-.61,1.3.13.55-.72.81-1.55,1-.42.1-.83.18-1.11.27a8.58,8.58,0,0,1-6.17-.29,8.68,8.68,0,0,1-4.94-5.32c-.37-1.28-1.42-5.36,1.29-4.48A6.94,6.94,0,0,1,77,11.39C78.39,11.1,81.43,13.85,82.49,14.58Z"/><path class="cls-12" d="M85.66,19l-.6,0a7.46,7.46,0,0,1-3.84-.27c-1.31-.62-7.25-6.22-4.36-7.36l.14,0a6.94,6.94,0,0,0-2.08-1.45c-2.71-.88-1.66,3.2-1.29,4.48a8.68,8.68,0,0,0,4.94,5.32,8.58,8.58,0,0,0,6.17.29c.28-.09.69-.17,1.11-.27.83-.19,1.67-.45,1.55-1A11.21,11.21,0,0,1,85.66,19Z"/><path class="cls-2" d="M82.49,14.58c-1.06-.74-4.1-3.48-5.49-3.19l-.14,0c-2.89,1.14,3,6.74,4.36,7.36a7.46,7.46,0,0,0,3.84.27l.6,0a11.21,11.21,0,0,0,1.73-.25c.86-.22,1.42-.6.61-1.3C86.52,16.19,84.14,15.72,82.49,14.58Z"/><path class="cls-7" d="M59.38,19.94c1.14.43,2.71-.47,3.73-1a13.49,13.49,0,0,0,4.18-3.89c.48-.6.95-1.13,1.48-1.71.2-.22,1.06-1.89,1.07-1.89-2.88,1.23-5.09,4-7.7,5.71C61.42,17.66,59.18,18.8,59.38,19.94Z"/><path class="cls-13" d="M77.41,4.69c0,.08-.06.17-.1.25C77.35,4.86,77.37,4.78,77.41,4.69Z"/><path class="cls-13" d="M74.13,0a4,4,0,0,0-3.66,3.68A2.59,2.59,0,0,0,70.84,5a3.23,3.23,0,0,1-.19-1.32c.24-4.35,6.69-4.32,7,0A3.86,3.86,0,0,0,74.13,0Z"/><path class="cls-13" d="M73.28.68a3.19,3.19,0,0,0-2.14,3A3.6,3.6,0,0,0,72.9,6.58a4.11,4.11,0,0,0,.56.15,3.8,3.8,0,0,0,.67.06,3.69,3.69,0,0,0,.68-.06L75,6.67a3.25,3.25,0,0,0,2.14-3C77,1.88,75.4-.15,73.28.68Z"/><path class="cls-13" d="M77.6,3.79a3.81,3.81,0,0,1-.1.63A2.77,2.77,0,0,0,77.6,3.79Z"/><path class="cls-11" d="M129.07,47a78.22,78.22,0,0,0-17.44-12,94.55,94.55,0,0,0-41.56-9.47,95.44,95.44,0,0,0-36,6.88,79.7,79.7,0,0,0-16.16,8.83A86.61,86.61,0,0,0,11,46.87c-1.76,1.56-3.95,3-5.22,5-1,1.64-1.56,3.75.45,5a21.09,21.09,0,0,0,3.28,1.73c3.54,1.34,6.07-1.64,8.09-4A69.33,69.33,0,0,1,31.12,42.12a67.48,67.48,0,0,1,32.6-11.9,69.06,69.06,0,0,1,36,6.73,67.67,67.67,0,0,1,14.86,9.76,61.58,61.58,0,0,1,7,7.08c2.27,2.76,4.15,6.64,8.47,5.76,3-.61,6.14-3.4,4.46-6.71C133.18,50.42,131.05,48.81,129.07,47ZM23.79,41.61a66.11,66.11,0,0,0-9.33,6.14,38.06,38.06,0,0,0-4.11,3.8A19.06,19.06,0,0,0,9,53.48c-.06.09-1.3,1.5-1.4,1C7,50.78,13.13,46.84,15.52,45c3.8-2.93,10.39-8.36,15.67-7.62C29.77,39.38,25.92,40.43,23.79,41.61ZM131.85,57.07c-.09.09-.17.17-.27.26a2.7,2.7,0,0,1-1.51.77c-1.53.73-2.71.63-4.22-1s-2.25-3.48-3.47-5.12c-1.45-2-3.34-3.4-4.92-5.24A49.52,49.52,0,0,0,99.1,32.82a33.62,33.62,0,0,0-6.34-2.38c-1.23-.29-3.88-.86-4.38-2.22,1.82-.09,3.83.86,5.58,1.33,3,.79,6.33.9,9.11,2.08s5.86,2.42,8.68,3.83a64.89,64.89,0,0,1,15.84,10.78c2.08,2,4.45,3.62,6.25,5.88S133.79,55.83,131.85,57.07Z"/><path class="cls-12" d="M127.59,46.25a64.89,64.89,0,0,0-15.84-10.78c-2.83-1.41-5.78-2.6-8.68-3.83S96.91,30.34,94,29.55c-1.75-.47-3.75-1.43-5.58-1.33.5,1.36,3.15,1.93,4.38,2.22a33.62,33.62,0,0,1,6.34,2.38,49.52,49.52,0,0,1,18.35,13.87c1.58,1.84,3.47,3.29,4.92,5.24,1.22,1.65,2.09,3.59,3.47,5.13s2.69,1.77,4.22,1a2,2,0,0,1-1.07-.24c-1.7-.86-2.57-3.57-3.42-5.09a41.72,41.72,0,0,0-5-7.1c-3.43-4-7-6.36-11.25-9.3l3.36,2.16a127.14,127.14,0,0,1,14.14,9.59c2,1.49,4.52,3.09,5.48,5.51.57,1.43.55,2.42-.44,3.43,1.94-1.24,3.77-2.7,2-4.94S129.67,48.21,127.59,46.25Z"/><path class="cls-2" d="M126.8,48.13a127.14,127.14,0,0,0-14.14-9.59l-3.36-2.16c4.22,2.94,7.82,5.32,11.25,9.3a41.72,41.72,0,0,1,5,7.1c.84,1.52,1.71,4.23,3.42,5.09a2,2,0,0,0,1.07.24,2.7,2.7,0,0,0,1.51-.77c.1-.09.18-.17.27-.26,1-1,1-2,.44-3.43C131.33,51.22,128.78,49.62,126.8,48.13Z"/><path class="cls-7" d="M10,82l-.24.2a14.51,14.51,0,0,0-2.32,2.35,16.82,16.82,0,0,0-1,1.39C4.12,89.64,3.08,94.32,2.6,98.52A46.4,46.4,0,0,0,7,124c.36.73,1.19,2.75,2.15,2.88.23-2-1.11-4-1.5-5.85a115.28,115.28,0,0,1-2.39-12.64c-.81-8.38,0-16.82,3.91-24.28.39-.76.81-1.5,1.27-2.24l.1-.16,0,0Z"/><path class="cls-7" d="M29.72,50.83a17.38,17.38,0,0,0-2.36,2c-.22.22-1.06,1.08-.8,1.44s1.85-.72,2.21-.9c2-1,4.15-2,5.51-3.84C32.83,48.71,30.87,50,29.72,50.83Z"/><path class="cls-7" d="M15.52,45C13.13,46.84,7,50.78,7.63,54.44c.1.55,1.34-.87,1.4-1a19.06,19.06,0,0,1,1.31-1.93,38.06,38.06,0,0,1,4.11-3.8,66.11,66.11,0,0,1,9.33-6.14c2.13-1.19,6-2.23,7.4-4.24C25.91,36.63,19.32,42.06,15.52,45Z"/><path class="cls-14" d="M110.34,48.49a70.22,70.22,0,0,0-61-10.69C28.45,43.87,11.52,60.15,4.06,80.48c-7.71,21-4.23,45,8.55,63.21a67.8,67.8,0,0,0,15.65,15.87A55.11,55.11,0,0,1,27.8,167a98.54,98.54,0,0,1-4.38,17.23c-.09.28.79.57.95.32C28.49,178,32.54,171.33,37,165A70.85,70.85,0,0,0,66,173a68.59,68.59,0,0,0,35.21-7.63c4.47,6.29,8.5,12.89,12.6,19.47.11.17,1,.44.92.15a105.85,105.85,0,0,1-4.37-17.23,49.59,49.59,0,0,1-.49-7.68,68.4,68.4,0,0,0,28.76-56A69.84,69.84,0,0,0,110.34,48.49ZM35.27,165.83a24.56,24.56,0,0,1-2.68,3.94c-2.42,3.64-4.73,7.34-7,11.06a88.83,88.83,0,0,0,3.3-14.24,48.8,48.8,0,0,0,.41-6.3c.89.62,1.79,1.21,2.71,1.79,1.32.84,2.67,1.65,4,2.4l.17.09C35.87,165,35.57,165.41,35.27,165.83Zm77.62,16.26c-3.58-5.76-7.17-11.5-11.11-17l.64-.34q2.08-1.12,4.08-2.38c.81-.51,1.61-1.05,2.41-1.6a55.16,55.16,0,0,0,.38,6.07A84.39,84.39,0,0,0,112.88,182.09Zm24.77-78.16a69.52,69.52,0,0,1-30.72,57.25,68.79,68.79,0,0,1-67.55,4.64c-20.79-10-35.09-30.58-38-53.35A68.66,68.66,0,0,1,91.36,39c22,7.34,38.78,26.19,44.34,48.55A69.13,69.13,0,0,1,137.65,103.93Z"/><path class="cls-14" d="M124.77,70.64A64,64,0,0,0,94.51,44.15a63.25,63.25,0,0,0-24.58-4.94c-1.2,0-2.39,0-3.57.11a63.14,63.14,0,0,0-26.44,7.44,64.07,64.07,0,0,0-28.3,30.69q-1,2.32-1.84,4.73L10,82l.43-.21a66.68,66.68,0,1,1,0,.14c-.46.73-.88,1.48-1.27,2.24a63.49,63.49,0,0,0,7.73,53.69,64.08,64.08,0,0,0,10,11.76,63.45,63.45,0,0,0,79.59,5.27,63.79,63.79,0,0,0,20.28-23.46,63.2,63.2,0,0,0,6.8-28.57c0-1.22,0-2.43-.11-3.63A63.16,63.16,0,0,0,124.77,70.64Z"/><path class="cls-14" d="M124.83,97.33h.08l-.05-.5h-.09q-.28-2.65-.81-5.22H124l-.1-.49h-.06q-.55-2.6-1.34-5.1h0l-.15-.47h0q-.82-2.53-1.86-4.94h0l-.2-.46h0A55,55,0,0,0,17.49,85.52h0l-.15.47h0q-.79,2.5-1.34,5.1h0l-.1.49h.05q-.52,2.57-.81,5.21H15l-.05.5H15q-.25,2.6-.27,5.27h-.09v.5h.09q0,2.67.27,5.27H15l.05.5h.07q.28,2.65.81,5.21h-.06l.1.49H16q.55,2.6,1.34,5.11h0l.15.47h0q.82,2.53,1.87,4.94h0l.2.46h0a54.95,54.95,0,0,0,100.73,0h0l.2-.46h0q1-2.42,1.87-4.94h0l.15-.48h0q.79-2.5,1.35-5.11h.06l.1-.49H124q.52-2.56.81-5.21h.09l.05-.5h-.09q.25-2.6.27-5.27h.1v-.5h-.1Q125.09,99.93,124.83,97.33ZM47.3,52.58l1.31,3,.46-.2-1.31-3q2.39-1.08,4.9-1.92l1,3.11.47-.15-1-3.11q2.5-.82,5.1-1.39l.68,3.23.49-.1-.68-3.23q2.56-.54,5.21-.84l.35,3.3.5-.05-.35-3.3q2.6-.26,5.27-.28v6.21h.5V47.62q2.68,0,5.29.28l-.35,3.3.5.05L76,48q2.65.3,5.21.84L80.5,52l.49.1.69-3.23q2.59.57,5.09,1.39l-1,3.11.47.15,1-3.11q2.51.85,4.91,1.93l-1.31,2.95.46.2,1.31-2.94Q95,53.7,97.26,55L94,60l.42.27,3.24-5q2.27,1.36,4.39,2.92l-1.83,2.52.4.29,1.82-2.51q2.1,1.58,4,3.35l-2,2.27.37.33,2-2.27q1.92,1.79,3.67,3.75l-2.22,2,.33.37,2.22-2q1.72,2,3.26,4.1l-2.38,1.73.29.4,2.38-1.73q1.51,2.13,2.81,4.41l-5,2.71A49,49,0,0,0,45.84,60.4L42.63,55Q44.9,53.69,47.3,52.58ZM25.43,70.8l2.39,1.73.29-.4-2.39-1.74q1.54-2.13,3.26-4.1l2.23,2,.34-.37-2.23-2q1.75-2,3.68-3.75l2,2.27.37-.33-2-2.28q1.94-1.77,4-3.35L39.24,61l.4-.29-1.83-2.52q2.12-1.56,4.38-2.91l3.21,5.38A49.35,49.35,0,0,0,27.7,78.49l-5.1-3.26Q23.91,72.94,25.43,70.8Zm-9.9,26.56,2.78.29.05-.5-2.78-.29q.28-2.62.8-5.16l2.75.59.1-.49-2.75-.59q.55-2.57,1.33-5.05l2.7.88.15-.47L18,85.68q.81-2.5,1.85-4.89L22.44,82l.2-.46L20,80.33q1.06-2.39,2.34-4.66l5.1,3.26a48.69,48.69,0,0,0-6.28,23.64H15.27Q15.28,99.93,15.54,97.36Zm4.49,28,2.62-1.16-.2-.46-2.61,1.16q-1-2.39-1.85-4.89l2.69-.88-.15-.47-2.69.88Q17,117,16.49,114.44l2.75-.59-.1-.49-2.75.59q-.52-2.54-.8-5.16l2.77-.29-.05-.5-2.77.3q-.25-2.58-.27-5.22h5.91a48.69,48.69,0,0,0,6.5,24.2L22.38,130Q21.1,127.74,20,125.32Zm17.79,22.13,1.82-2.5-.4-.29-1.82,2.5q-2.1-1.58-4-3.35l2-2.26-.37-.33-2,2.25q-1.92-1.78-3.68-3.75l2.22-2-.33-.37-2.22,2q-1.73-2-3.27-4.1l2.38-1.73-.29-.4-2.38,1.72q-1.51-2.13-2.81-4.39l5.3-2.74A49.38,49.38,0,0,0,45,144.94l-2.84,5.42Q39.94,149,37.82,147.46ZM69.68,158q-2.67,0-5.27-.28l.34-3.27-.5-.05-.34,3.27q-2.64-.29-5.21-.84l.68-3.21-.49-.1-.68,3.21q-2.59-.57-5.09-1.39l1-3.09-.47-.16-1,3.09q-2.51-.85-4.9-1.93l1.31-2.93-.46-.2-1.3,2.93q-2.4-1.11-4.68-2.44l2.84-5.42a48.7,48.7,0,0,0,24.23,6.7Zm-48-55.1A48.49,48.49,0,1,1,70.17,151.4,48.55,48.55,0,0,1,21.68,102.91Zm92.75,32-2.37-1.72-.29.4,2.37,1.72q-1.54,2.13-3.26,4.1l-2.21-2-.33.37,2.21,2q-1.75,2-3.67,3.74l-2-2.25-.37.33,2,2.25q-1.94,1.77-4,3.34l-1.81-2.49-.4.29,1.82,2.5q-2.12,1.56-4.39,2.91l-2.82-4.9-.43.25,2.82,4.91q-2.27,1.33-4.67,2.43l-1.3-2.92-.46.2,1.3,2.93q-2.4,1.08-4.91,1.93l-1-3.08-.48.15,1,3.09q-2.49.81-5.08,1.39l-.68-3.2-.49.1.68,3.21q-2.57.54-5.21.84l-.34-3.27-.5.05.34,3.27q-2.6.26-5.27.28V151.9a49,49,0,0,0,42.22-24.2l4.83,2.76Q115.94,132.72,114.42,134.86Zm10.18-31.77q0,2.64-.27,5.22l-2.76-.29-.05.5,2.76.29c-.19,1.75-.46,3.47-.8,5.16l-2.74-.58-.1.49,2.74.58q-.55,2.57-1.33,5.06l-2.68-.87-.15.48,2.69.87q-.81,2.5-1.85,4.89l-2.61-1.16-.2.46,2.61,1.16q-1.07,2.4-2.35,4.68l-4.83-2.75a48.92,48.92,0,0,0-.11-48.9l5-2.7q1.28,2.28,2.35,4.69l-2.62,1.17.2.46,2.61-1.17q1,2.39,1.85,4.89l-2.7.88.15.47,2.69-.88c.52,1.65,1,3.34,1.33,5.05l-2.74.59.1.49,2.74-.58q.52,2.54.8,5.17l-2.76.29.05.5,2.76-.29c.17,1.71.25,3.45.26,5.21h-5.15v.5Z"/><path class="cls-14" d="M121.3,40.13C110.78,32.9,98.44,28.54,85.91,26.46A95.55,95.55,0,0,0,76,25.38V21.9a207.47,207.47,0,0,1,23.88.72,1.14,1.14,0,0,0,.49-.12c.15-.06.25-.12.21-.18s0-.05-.11-.07c-9-4.12-18.16-8.13-24.7-15.73a3.24,3.24,0,0,0,1.53-1.57c0-.08.07-.16.1-.25s.07-.17.1-.27a3.81,3.81,0,0,0,.1-.63s0-.07,0-.11,0,0,0,0c-.28-4.29-6.73-4.32-7,0A3.23,3.23,0,0,0,70.84,5a2.88,2.88,0,0,0,1.73,1.69c-6.82,7.55-15.82,12.1-24.81,16.74-.33.17.08.32.26.3,8.37-.5,16.73-1.27,25.1-1.7v3.21c-1.16,0-2.32-.07-3.48-.07a97.82,97.82,0,0,0-37.9,7.58A79.5,79.5,0,0,0,15,42.44c-2.37,1.79-4.53,3.81-6.8,5.71-2,1.64-4.23,3.57-4.38,6.3-.1,1.84,2,2.81,3.37,3.48,1.85.92,3.35,1.65,5.44,1.38s3.74-2.08,5-3.51c2.27-2.51,4.44-5.05,6.91-7.38A67.28,67.28,0,0,1,66.12,30.5a67.2,67.2,0,0,1,40.25,10.78,63.29,63.29,0,0,1,14.71,13.13c1.37,1.67,2.46,4,4.54,4.87a9.18,9.18,0,0,0,5,.67c4.45-.57,6.66-5.07,3.79-8.66C130.9,46.93,125.87,43.27,121.3,40.13ZM71.14,3.69a3.19,3.19,0,0,1,2.14-3c2.12-.83,3.74,1.2,3.84,3a3.25,3.25,0,0,1-2.14,3l-.17.05a2.44,2.44,0,0,1-1.39.05l0-.05a4.11,4.11,0,0,1-.56-.15A3.6,3.6,0,0,1,71.14,3.69ZM55.46,22.84l-3.4.23c-.54,0-2.73.11-2.69.09q3.11-1.6,6.18-3.27c3-1.64,6-3.36,8.93-5.27a45.41,45.41,0,0,0,8.85-7.75,4.17,4.17,0,0,0,1.58-.07c6.32,7.32,15,11.31,23.75,15.28a204.21,204.21,0,0,0-21.82-.64C69.7,21.67,62.58,22.34,55.46,22.84Zm20.05-.92v3.43c-.63,0-1.26-.08-1.89-.11V22Zm54.44,37.63c-4.32.88-6.2-3-8.47-5.76a61.58,61.58,0,0,0-7-7.08,67.67,67.67,0,0,0-14.86-9.76,69.06,69.06,0,0,0-36-6.73,67.48,67.48,0,0,0-32.6,11.9A69.33,69.33,0,0,0,17.59,54.55c-2,2.39-4.55,5.37-8.09,4a21.09,21.09,0,0,1-3.28-1.73c-2-1.23-1.48-3.34-.45-5,1.27-2,3.46-3.44,5.22-5a86.61,86.61,0,0,1,6.9-5.57A79.7,79.7,0,0,1,34,32.46a95.44,95.44,0,0,1,36-6.88,94.55,94.55,0,0,1,41.56,9.47,78.22,78.22,0,0,1,17.44,12c2,1.77,4.11,3.38,5.34,5.8C136.09,56.15,132.93,58.94,129.95,59.55Z"/></g></g></svg>