<svg xmlns="http://www.w3.org/2000/svg" viewBox="0 0 134.91 131.06"><defs><style>.cls-1{fill:none;}.cls-2{fill:#01a4e3;}.cls-3{fill:#79bfed;}.cls-4{fill:#bddef7;}.cls-5{fill:#fff8c4;}.cls-6{fill:#2c3686;}.cls-7{fill:#29226d;}.cls-8{fill:#1e1e1c;}</style></defs><title>Ресурс 9clock2</title><g id="Слой_2" data-name="Слой 2"><g id="Layer_2" data-name="Layer 2"><path class="cls-1" d="M119,13.74c-.41-.26-1-.58-1.56-.9Z"/><path class="cls-1" d="M19.85,11.35l.14-.07,0-.07A.39.39,0,0,1,19.85,11.35Z"/><path class="cls-1" d="M6.39,20.22l.05,0,0-.08A.17.17,0,0,1,6.39,20.22Z"/><path class="cls-1" d="M84.37,120.51l.89.08-.9-.09Z"/><path class="cls-1" d="M20,130.71h0Z"/><path class="cls-1" d="M120.22,14.45l.05,0s0-.06,0-.07Z"/><path class="cls-2" d="M114.69,130.3c-.09-2-2.31-3.35-3.94-4.15a42.22,42.22,0,0,0-9.48-3.09,131.41,131.41,0,0,0-16-2.47l-.89-.08a2.2,2.2,0,0,1,.34,1c-.19,2-2.94,2.81-4.49,3.32a39.56,39.56,0,0,1-11.89,1.61A45,45,0,0,1,55.26,125c-1.34-.4-5.26-1.41-5.07-3.45a2.19,2.19,0,0,1,.32-.94,125,125,0,0,0-14.84,2c-4.3.88-9.1,1.85-12.84,4.29-1,.67-2.4,1.67-2.58,3,0,.34-.24.61-.23.76h0c0,.09.09.14.32.14h94C115,130.85,114.6,131,114.69,130.3Z"/><path class="cls-2" d="M20,130.33a2.14,2.14,0,0,0,.05.37c0-.16.19-.43.23-.76.18-1.34,1.55-2.33,2.58-3,3.73-2.44,8.54-3.4,12.84-4.29a125,125,0,0,1,14.84-2l.07-.11C32.69,122,20,125.84,20,130.33Z"/><path class="cls-2" d="M85.27,120.58a131.41,131.41,0,0,1,16,2.47,42.22,42.22,0,0,1,9.48,3.09c1.63.8,3.85,2.11,3.94,4.15-.09.67.28.55-.38.55h-94c-.23,0-.31-.05-.32-.14,0,.08,0,.16,0,.25h94.79a2.47,2.47,0,0,0,.09-.62C114.94,125.92,102.66,122.15,85.27,120.58Z"/><path class="cls-3" d="M77.3,119.74a11.52,11.52,0,0,0,2.45-1.4h0A13.61,13.61,0,0,1,77.3,119.74Z"/><path class="cls-3" d="M80.13,118.45c-3.42,2.58-9.24,3.27-12.67,3.32a22.6,22.6,0,0,1-10.65-2.24,15.7,15.7,0,0,1-1.89-1.17c-1.93.55-4.39,1.51-4.23,3.13.19,2,3.32,2.91,4.9,3.33a43,43,0,0,0,10.12,1.37,48.33,48.33,0,0,0,12.4-1c1.79-.43,5.88-1.21,6.11-3.6C84.06,119.84,81.78,118.94,80.13,118.45Z"/><path class="cls-2" d="M84.06,120.48a1.69,1.69,0,0,1,.41,1c0,2.65-7.62,4.79-17,4.79s-17-2.15-17-4.79a1.62,1.62,0,0,1,.32-.92l-.25,0a2.19,2.19,0,0,0-.32.94c-.2,2,3.73,3.05,5.07,3.45a45,45,0,0,0,13.08,1.41,39.56,39.56,0,0,0,11.89-1.61c1.55-.51,4.3-1.34,4.49-3.32a2.2,2.2,0,0,0-.34-1Z"/><path class="cls-2" d="M50.52,120.62l.25,0,.09-.12-.27,0Z"/><path class="cls-3" d="M79.73,118.34h0l.12-.09h0Z"/><path class="cls-3" d="M84.05,120.47l-.15-.17a8.78,8.78,0,0,0-3.66-1.95l-.11.09c1.65.49,3.93,1.39,4.09,3.1-.23,2.39-4.32,3.16-6.11,3.6a48.33,48.33,0,0,1-12.4,1,43,43,0,0,1-10.12-1.37c-1.58-.42-4.71-1.31-4.9-3.33-.15-1.62,2.3-2.58,4.23-3.13l-.07,0a9.09,9.09,0,0,0-3.84,2l-.16.18-.09.12a1.62,1.62,0,0,0-.32.92c0,2.65,7.62,4.79,17,4.79s17-2.15,17-4.79a1.69,1.69,0,0,0-.41-1Z"/><path class="cls-4" d="M68.47,113.69a.21.21,0,0,1,.08-.09h0Z"/><path class="cls-4" d="M79.14,113l-.07,0a102.19,102.19,0,0,1-10.69.71l-.12,0s0,0-.08,0c-2.47.06-5,0-7.42-.21-.48,0-2.36.15-2.92-.26-1.75-.18-3.48-.42-5.2-.71a3.78,3.78,0,0,0-.1,1.05c.32,6.1,9.42,7.88,14.11,7.94a28.09,28.09,0,0,0,10.64-1.82,13.61,13.61,0,0,0,2.43-1.4l.13-.09.06,0a6.12,6.12,0,0,0,2.44-4.56,5.9,5.9,0,0,0-.17-1.11C81.18,112.7,80.16,112.85,79.14,113Z"/><path class="cls-4" d="M59.27,113.29l-1.1-.09A6.06,6.06,0,0,0,59.27,113.29Z"/><path class="cls-4" d="M57.63,113.14l.05,0,0,0Z"/><path class="cls-4" d="M78,113l-.51.06Z"/><path class="cls-3" d="M77.3,119.74a24.22,24.22,0,0,1-9.84,1.93c-5.09,0-9.58-1.33-12.33-3.38l-.21.06a15.7,15.7,0,0,0,1.89,1.17,22.6,22.6,0,0,0,10.65,2.24c3.43-.05,9.25-.74,12.67-3.32l-.39-.11A11.52,11.52,0,0,1,77.3,119.74Z"/><path class="cls-3" d="M54.85,118.3l.07,0,.21-.06-.08-.05Z"/><path class="cls-3" d="M79.74,118.34l.39.11.11-.09-.38-.12Z"/><path class="cls-4" d="M82.2,112.53a5.9,5.9,0,0,1,.17,1.11,6.12,6.12,0,0,1-2.44,4.56l.09-.06a5.87,5.87,0,0,0,2.6-4.51,4.37,4.37,0,0,0-.17-1.14Z"/><path class="cls-4" d="M52.55,113.62a3.78,3.78,0,0,1,.1-1.05l-.19,0a4.38,4.38,0,0,0-.16,1.09,5.89,5.89,0,0,0,2.64,4.54l.11.08.08.05c2.75,2,7.24,3.38,12.33,3.38a24.22,24.22,0,0,0,9.84-1.93,28.09,28.09,0,0,1-10.64,1.82C62,121.49,52.87,119.72,52.55,113.62Z"/><path class="cls-3" d="M54.08,106.66A50.64,50.64,0,0,1,43,102.08,51.43,51.43,0,0,1,18.19,41.48l-1.52-2.76L8.8,24.44l-2-3.63-.35-.64-.05,0c-.31.89-5.16,5.19-5.89,6L4.38,56.86,7.07,78.11l.86,6.81C8.07,86,8,87.17,8.7,88a73,73,0,0,0,30,20.82,75.67,75.67,0,0,0,10.36,2.92c1.84.37,3.69.71,5.55,1,.51.07,2.59.06,3,.45h0l-1.08-2Z"/><path class="cls-4" d="M57.66,113.14l0,0-.05,0c-1.69-.17-3.34-.4-5-.66l0,.08c1.72.29,3.46.53,5.2.71a.45.45,0,0,1-.14-.12Z"/><path class="cls-4" d="M52.46,112.54l.19,0,0-.08-.19,0Z"/><path class="cls-3" d="M6.45,20.17l.35.64,2,3.63,7.87,14.28,1.52,2.76,0-.06L6.48,20.14Z"/><path class="cls-3" d="M49.11,111.74a75.67,75.67,0,0,1-10.36-2.92A73,73,0,0,1,8.7,88c-.73-.83-.64-2-.78-3.08l-.86-6.81L4.38,56.86.5,26.23c.73-.83,5.58-5.13,5.89-6a54.23,54.23,0,0,0-6.14,6L8,87.51a72.25,72.25,0,0,0,44.23,24.9l.24,0,.19,0c1.62.26,3.27.49,5,.66-.37-.39-2.45-.38-3-.45C52.8,112.44,51,112.11,49.11,111.74Z"/><path class="cls-3" d="M54.22,106.8l-.07-.13-.06,0,2.5,4.53,1.08,2h.06l-.42-.76Z"/><path class="cls-2" d="M19.85,11.35c-.84.85-6.3,3.86-7,4.32s-6.16,4.12-6,4.42L8,22.2,18.36,41A51.2,51.2,0,0,1,26.58,25.4L20,11.27Z"/><path class="cls-2" d="M54.63,106.81l1.21,2.2,1.94,3.52.36.65,0,0,1.1.09c.9,0,2,0,2.24,0,2.07.11,4.14.19,6.22.15l-2.34-5A50.5,50.5,0,0,1,54.63,106.81Z"/><path class="cls-4" d="M68.1,113.71l-.3-.09h-.49c-2.77,0-5.44-.12-8-.34a6.06,6.06,0,0,1-1.1-.09h0c0,.07-.25.08-.3.08h0c.56.4,2.43.22,2.92.26,2.46.18,4.95.27,7.42.21,0,0,.07,0,.08,0H68.1Z"/><path class="cls-4" d="M57.71,113.15a.45.45,0,0,0,.14.12h0s.26,0,.3-.08l-.23,0Z"/><path class="cls-3" d="M54.15,106.67l.07.13,3.08,5.58.42.76.22,0-3.54-6.44Z"/><path class="cls-3" d="M6.48,20.14,18.21,41.42l.08-.23L6.62,20Z"/><path class="cls-2" d="M61.51,113.34c-.21,0-1.34,0-2.24,0,2.6.22,5.27.34,8,.34h.48l-.06-.13C65.66,113.53,63.58,113.45,61.51,113.34Z"/><path class="cls-2" d="M12.86,15.67c.69-.46,6.14-3.46,7-4.32A73.54,73.54,0,0,0,6.74,19.92L6.62,20,18.29,41.19l.08-.23L8,22.2,6.87,20.09C6.7,19.79,12.29,16,12.86,15.67Z"/><path class="cls-2" d="M57.78,112.53,55.84,109l-1.21-2.2-.24-.07,3.54,6.44.23,0h0l0,0Z"/><path class="cls-3" d="M67.37.2A105.88,105.88,0,0,0,28.82,7.43c-.77.31-8.45,3.61-8.39,3.73l.17.36,1,2.18L26.89,25A51.5,51.5,0,0,1,47.56,9.33a50.73,50.73,0,0,1,52.19,7.16l3.32-10.14c0-.17-9.34-2.81-10.19-3A110.22,110.22,0,0,0,67.37.2Z"/><path class="cls-3" d="M65.9,108.5l1.59,3.39.61,1.32,1.54-4.71c-.62,0-1.25,0-1.88,0S66.52,108.52,65.9,108.5Z"/><path class="cls-2" d="M20,11.26l0,0,6.6,14.13,0,0L23.19,18Z"/><path class="cls-2" d="M65.39,108.48l2.34,5h0l-2.34-5Z"/><path class="cls-4" d="M67.79,113.62h0l.3.09h.14a.5.5,0,0,1-.21-.1Z"/><path class="cls-2" d="M20,11.26,23.19,18l3.42,7.33.13-.17-6.56-14Z"/><path class="cls-2" d="M65.65,108.49h-.21l2.34,5h0l.06.13H68a.09.09,0,0,1,0-.08Z"/><path class="cls-3" d="M20.3,11.11l-.12.06,6.56,14,.16-.2L21.62,13.71l-1-2.18-.17-.36c-.06-.12,7.62-3.43,8.39-3.73A105.88,105.88,0,0,1,67.37.2,110.22,110.22,0,0,1,92.88,3.33c.85.21,10.15,2.84,10.19,3l0-.06A107.58,107.58,0,0,0,67.31.1,105.13,105.13,0,0,0,20.3,11.11Z"/><path class="cls-3" d="M67.48,111.89,65.9,108.5h-.25l2.35,5h0l.1-.31Z"/><path class="cls-2" d="M119,13.74l-1.56-.9c-1.45-.79-3.15-1.61-3.56-1.82a101.09,101.09,0,0,0-10.39-4.47l-3.36,10.28A52,52,0,0,1,112.5,31.69l.6-1.45L118.63,17l1.09-2.61C119.76,14.26,119.48,14,119,13.74Z"/><path class="cls-2" d="M68.5,113.6h0c.66-.49,5.21-.34,5.89-.39.3,0,2-.05,3.11-.16L78,113c.36-.05.61-.11.64-.19l.22-.53,1.44-3.47.87-2.08a50.57,50.57,0,0,1-11.06,1.76Z"/><path class="cls-4" d="M78.71,112.92,78,113l-.51.06c-2.9.32-5.89.51-9,.55a.21.21,0,0,0-.08.09l0-.09h0v0l-.19.09h0l.12,0A102.19,102.19,0,0,0,79.07,113l.07,0h-.05A.78.78,0,0,1,78.71,112.92Z"/><path class="cls-4" d="M68.25,113.71h0Z"/><path class="cls-3" d="M99.75,16.48h0l0-.12,3.11-9.49.17-.53h0Z"/><path class="cls-3" d="M68.1,113.21h0l0-.09.39-1.2,1.12-3.43h0Z"/><path class="cls-4" d="M68.27,113.67s0,0,0,0a0,0,0,0,1,0,0h0l.19-.09v0h-.25Z"/><path class="cls-4" d="M68.24,113.6H68a.5.5,0,0,0,.21.1h0a0,0,0,0,0,0,0s0,0,0,0Z"/><path class="cls-2" d="M68,113.61h0l0-.08A.09.09,0,0,0,68,113.61Z"/><path class="cls-3" d="M103.07,6.35h0l-.17.53-3.11,9.49,0,.12.2.17,3.37-10.29-.24-.08Z"/><path class="cls-3" d="M68.53,111.92l-.39,1.2,0,.09h0l-.1.31h0l0,.08h.19l1.67-5.11h-.26Z"/><path class="cls-2" d="M81.23,106.71l-.87,2.08-1.44,3.47-.22.53c0,.08-.28.14-.64.19l.66-.07s0,0,0-.07l2.56-6.14Z"/><path class="cls-2" d="M119.72,14.36,118.63,17,113.1,30.24l-.6,1.45h0l7.26-17.43a.11.11,0,0,1,.07-.06l-.8-.46C119.48,14,119.76,14.26,119.72,14.36Z"/><path class="cls-2" d="M68.55,113.6c3.11,0,6.1-.24,9-.55-1.16.11-2.8.13-3.11.16C73.76,113.26,69.2,113.11,68.55,113.6Z"/><path class="cls-2" d="M103.32,6.37,100,16.66l.21.17,3.36-10.28A101.09,101.09,0,0,1,113.91,11c.42.21,2.11,1,3.56,1.82a91.12,91.12,0,0,0-13.92-6.39Z"/><path class="cls-2" d="M68.23,113.6h.27l1.68-5.12-.27,0Z"/><path class="cls-3" d="M97.35,98.39l.19-.13h0Z"/><path class="cls-3" d="M86.58,104.37l-.93.37Z"/><path class="cls-3" d="M88.77,103.43l.38-.19-.38.17Z"/><path class="cls-3" d="M83.8,105.41l.27-.1-.28.09Z"/><path class="cls-3" d="M92.36,101.58l.71-.39h0Z"/><path class="cls-3" d="M87.78,103.87l.54-.23h0Z"/><path class="cls-3" d="M95.67,99.56l-.73.47Z"/><path class="cls-3" d="M93.5,100.94l.16-.1-.17.1Z"/><path class="cls-3" d="M83.22,105.6l.1,0h0Z"/><path class="cls-3" d="M91.36,102.14l-1.18.61Z"/><path class="cls-3" d="M126.85,19.27c-.56-.44-6.1-4.17-6.58-4.79l-.05,0h0l-.91,2.18L114.16,29l-1.36,3.26a51.69,51.69,0,0,1,3.65,8.53h0l.15.47h0q.73,2.31,1.24,4.71h0l.1.49h0q.48,2.36.74,4.8h.06l.05.5h-.06q.23,2.39.24,4.85H119v.5H119q0,2.46-.25,4.85h.06l-.05.5h-.06q-.26,2.44-.75,4.8h0l-.1.49h0q-.51,2.4-1.24,4.71h0l-.15.47h0a51.66,51.66,0,0,1-34.6,33.62l-.47,1.12-1.74,4.17-.4,1A38,38,0,0,1,83.7,112a72.6,72.6,0,0,0,34.55-16.39,77.17,77.17,0,0,0,6.56-6.43c.66-.73,1.78-1.5,1.91-2.52l.64-5L130,60.76l4.38-34.21A55,55,0,0,0,126.85,19.27Z"/><path class="cls-4" d="M79.21,112.85l-.05.13h0c1-.13,2-.29,3.06-.46,0,0,0-.07,0-.11C81.19,112.58,80.21,112.72,79.21,112.85Z"/><path class="cls-4" d="M82.16,112.42s0,.07,0,.11l.25,0,0-.11Z"/><path class="cls-4" d="M78.71,112.92a.78.78,0,0,0,.38.08h.07l.05-.13-.29,0Z"/><path class="cls-2" d="M78.68,112.85s0,0,0,.07l.22,0,2.61-6.26-.3.08Z"/><path class="cls-2" d="M119.76,14.26,112.5,31.69l.15.28L120,14.31l-.17-.1A.11.11,0,0,0,119.76,14.26Z"/><path class="cls-3" d="M120.27,14.48c.48.63,6,4.35,6.58,4.79a55,55,0,0,1,7.56,7.27L130,60.76l-2.68,20.91-.64,5c-.13,1-1.25,1.79-1.91,2.52a77.17,77.17,0,0,1-6.56,6.43A72.6,72.6,0,0,1,83.7,112a38,38,0,0,0-4.47.76l.4-1,1.74-4.17.47-1.12-.3.08-2.61,6.26.29,0c1-.13,2-.27,2.95-.43l.25,0,.25,0a72,72,0,0,0,44.25-25.18l7.75-60.59A60.89,60.89,0,0,0,120.27,14.48Z"/><path class="cls-3" d="M112.65,32l.15.28L114.16,29l5.15-12.37.91-2.18-.21-.13Z"/><path class="cls-5" d="M28.77,80l-4.89,2.53q1.2,2.09,2.59,4l2.19-1.59.29.4-2.19,1.59q1.42,2,3,3.78l2-1.84.33.37-2,1.84q1.61,1.8,3.39,3.45l1.87-2.08.37.33-1.88,2.08Q35.64,96.5,37.58,98l1.68-2.3.4.29L38,98.26q1.94,1.43,4,2.67l2.62-5A45.84,45.84,0,0,1,28.77,80Z"/><path class="cls-5" d="M19.08,40.76A51.79,51.79,0,0,1,47.56,9.33,51.5,51.5,0,0,0,26.89,25l-.16.2-.13.17,0,0A51.2,51.2,0,0,0,18.36,41l-.08.23-.08.23,0,.06A51.43,51.43,0,0,0,43,102.08,51.86,51.86,0,0,1,19.08,72.92h0l-.15-.47h0q-.73-2.31-1.24-4.71h0l-.1-.49h0q-.48-2.37-.74-4.8h-.05l-.05-.5h.05q-.23-2.4-.25-4.86h-.06v-.5h.06q0-2.46.25-4.86h-.05l.05-.5h0q.26-2.44.74-4.81h0l.1-.49h0q.51-2.4,1.24-4.7h0l.15-.48Z"/><path class="cls-5" d="M42.43,101.18q2.09,1.22,4.31,2.25l1.21-2.7.46.2-1.21,2.7q2.21,1,4.52,1.77l.93-2.85.48.15-.93,2.85q2.3.75,4.68,1.28l.63-3,.49.1-.63,3q2.36.5,4.79.77l.32-3,.5.05-.32,3q2.4.24,4.86.26V102.4a45.2,45.2,0,0,1-22.46-6.21Z"/><path class="cls-5" d="M21.45,36,23.88,37l-.2.46-2.42-1.08q-1,2.2-1.7,4.51l2.49.81-.15.47-2.49-.81q-.72,2.28-1.22,4.65l2.54.54-.1.49-2.54-.54c-.32,1.56-.56,3.15-.73,4.75l2.56.27-.05.5-2.56-.27q-.23,2.37-.24,4.8h5.45a45.2,45.2,0,0,1,5.82-21.92l-4.71-3Q22.43,33.75,21.45,36Z"/><path class="cls-5" d="M17,57.09q0,2.43.25,4.8l2.56-.27.05.5-2.56.27q.26,2.41.74,4.75l2.53-.54.1.49-2.53.54c.34,1.58.75,3.13,1.23,4.66l2.48-.81L22,72l-2.49.81q.75,2.3,1.7,4.51l2.41-1.07.2.46-2.41,1.07q1,2.22,2.17,4.33l4.89-2.53a45.19,45.19,0,0,1-6-22.43Z"/><path class="cls-5" d="M34.28,76.91a1.46,1.46,0,0,0-1.63,1.53,1.63,1.63,0,1,0,3.26,0A1.46,1.46,0,0,0,34.28,76.91Z"/><path class="cls-5" d="M34.28,73.49a1.31,1.31,0,1,0,1.39,1.29A1.23,1.23,0,0,0,34.28,73.49Z"/><path class="cls-5" d="M38,15.41l1.69,2.33-.4.29-1.69-2.32q-1.94,1.45-3.73,3.08l1.89,2.1-.37.33-1.88-2.09q-1.77,1.65-3.39,3.45l2.06,1.85-.33.37L29.76,23c-1.06,1.21-2.06,2.47-3,3.78l2.2,1.6-.29.4-2.2-1.59q-1.4,2-2.61,4.08l4.71,3A45.83,45.83,0,0,1,45,17.69l-3-5Q39.93,14,38,15.41Z"/><path class="cls-5" d="M27.85,53.16c-1.15,0-1.63.95-1.63,1.93a1.61,1.61,0,0,0,1.65,1.77,1.64,1.64,0,0,0,1.72-1.81A1.73,1.73,0,0,0,27.85,53.16Z"/><path class="cls-5" d="M67.7,95.9A1.64,1.64,0,0,0,66,97.71a1.73,1.73,0,0,0,1.74,1.9c1.15,0,1.63-.95,1.63-1.93A1.62,1.62,0,0,0,67.7,95.9Z"/><path class="cls-5" d="M106.88,28.75l-.29-.4,2.2-1.6q-1.41-2-3-3.78l-2,1.84-.33-.37,2-1.85q-1.61-1.8-3.38-3.45l-1.88,2.09-.37-.33,1.88-2.09Q99.9,17.18,98,15.72L96.28,18l-.4-.29,1.68-2.32q-2-1.44-4-2.69l-3,4.65-.42-.27,3-4.64Q91,11.27,88.8,10.24L87.59,13l-.46-.2L88.34,10q-2.2-1-4.51-1.77l-.93,2.87L82.42,11l.93-2.87q-2.3-.75-4.69-1.28L78,9.8l-.49-.1.63-3c-1.57-.33-3.18-.59-4.8-.77l-.32,3-.5-.05.32-3Q70.48,5.64,68,5.63v5.74h-.5V5.63q-2.46,0-4.85.26l.32,3-.5.05-.32-3q-2.44.27-4.8.77l.63,3-.49.1-.63-3q-2.39.53-4.69,1.28L53.12,11l-.48.15-.93-2.87Q49.4,9,47.19,10l1.21,2.72-.46.2-1.21-2.72q-2.21,1-4.3,2.24l3,5a45.45,45.45,0,0,1,61.69,16.28l4.57-2.5q-1.2-2.09-2.59-4.06Z"/><path class="cls-5" d="M37.54,34.67c-1.26,0-1.7,1.49-1.7,3.26s.44,3.26,1.7,3.26,1.7-1.49,1.7-3.26S38.8,34.67,37.54,34.67Z"/><path class="cls-5" d="M68,11.93a45,45,0,1,0,45,45A45,45,0,0,0,68,11.93ZM86.25,20.6h.23a1.76,1.76,0,0,0,1.86-1.39h.73V27H88V21.15H86.25ZM63.38,14.4h.24A1.76,1.76,0,0,0,65.48,13h.74v7.82H65.16V14.95H63.38Zm-33,21h.23A1.76,1.76,0,0,0,32.49,34h.74v7.82H32.18V36H30.39ZM27.75,60.61a2.28,2.28,0,0,1-2.42-2h.94a1.38,1.38,0,0,0,1.49,1.12c1.63,0,1.91-1.67,1.9-2.89h0a2.33,2.33,0,0,1-1.91.83,2.42,2.42,0,0,1-2.51-2.63,2.54,2.54,0,0,1,2.68-2.76c1.34,0,2.81.48,2.81,4C30.7,60.09,29,60.61,27.75,60.61Zm6.53,20.33a2.35,2.35,0,0,1-2.64-2.45,2,2,0,0,1,1.42-2,1.79,1.79,0,0,1-1.13-1.72,2.07,2.07,0,0,1,2.35-2.1,2.07,2.07,0,0,1,2.35,2.1,1.79,1.79,0,0,1-1.13,1.72,2,2,0,0,1,1.42,2A2.36,2.36,0,0,1,34.28,80.94Zm3.27-38.86c-.58,0-2.74-.13-2.74-4.15s2.16-4.14,2.74-4.14,2.74.13,2.74,4.14S38.12,42.08,37.54,42.08Zm9.55-14.94H46V21.26H44.25v-.55h.24a1.76,1.76,0,0,0,1.86-1.4h.74Zm5.81,61a11.11,11.11,0,0,0-2.17,3.51,12.5,12.5,0,0,0-.86,3.59H48.76a12.87,12.87,0,0,1,.94-3.51,12.34,12.34,0,0,1,2.18-3.43H47.2v-.88H52.9Zm14.77,12.32c-1.72,0-2.8-.9-2.8-4,0-4.17,2.26-4.24,2.95-4.24a2.27,2.27,0,0,1,2.42,2h-.94A1.38,1.38,0,0,0,67.81,93c-1.63,0-1.91,1.67-1.9,2.89h0a2.34,2.34,0,0,1,1.91-.82,2.42,2.42,0,0,1,2.51,2.62A2.54,2.54,0,0,1,67.68,100.45ZM59.8,76.13l5.71-19.91-.06-.08-13.19-29H51.4V25.22l-.26-.58.26.4V21.26H49.62v-.55h.23a1.76,1.76,0,0,0,1.87-1.4h.74v7.32l17.7,26.91a2.65,2.65,0,0,1,.27,1.91l.56,1.3ZM73.22,19.94v.88h-5.3c0-1.89,1.13-2.6,2.65-3.56.65-.41,1.6-.92,1.6-2.11a1.42,1.42,0,0,0-1.57-1.5A1.49,1.49,0,0,0,69,15.2v.29h-1v-.23a2.4,2.4,0,0,1,2.68-2.49,2.31,2.31,0,0,1,2.61,2.37c0,1.46-.7,1.93-2.51,3.09-1.06.67-1.5,1.14-1.64,1.71ZM87.41,94.8a2.38,2.38,0,0,1-2.63-2.23h1A1.51,1.51,0,0,0,87.41,94c.53,0,1.82-.1,1.82-1.93a1.63,1.63,0,0,0-1.72-1.84,1.94,1.94,0,0,0-1.53.68H85l.55-4.12h4.23v.89H86.32L86,89.94a2.52,2.52,0,0,1,1.76-.59A2.41,2.41,0,0,1,90.22,92,2.56,2.56,0,0,1,87.41,94.8Zm18.32-17H104.5v1.81h-1V77.83H99.77v-.88l3.67-5.13h1.06v5.13h1.23ZM108.37,53c2.18,0,2.48,1.53,2.48,2.15a1.75,1.75,0,0,1-1.29,1.73v0a1.83,1.83,0,0,1,1.51,2,2.41,2.41,0,0,1-2.69,2.41,2.46,2.46,0,0,1-2.74-2.62h1c0,.09,0,.17,0,.26a1.58,1.58,0,0,0,1.63,1.52,1.55,1.55,0,0,0,1.77-1.66,1.33,1.33,0,0,0-1.43-1.41h-.81v-.85h.32c.33,0,1.71,0,1.71-1.35,0-.62-.31-1.35-1.54-1.35-.37,0-1.53.05-1.52,1.78h-1A2.34,2.34,0,0,1,108.37,53ZM103,33.71a1.49,1.49,0,0,0-1.62,1.55v.29h-1v-.23a2.4,2.4,0,0,1,2.68-2.49,2.31,2.31,0,0,1,2.62,2.37c0,1.46-.69,1.93-2.51,3.09-1.06.67-1.5,1.14-1.64,1.71h4.13v.88h-5.29c0-1.89,1.12-2.6,2.65-3.56.65-.41,1.6-.91,1.6-2.11A1.42,1.42,0,0,0,103,33.71Z"/><polygon class="cls-5" points="103.45 76.94 103.45 73.19 100.77 76.94 103.45 76.94"/><path class="cls-5" d="M68,102.4V108q2.45,0,4.85-.26l-.32-3,.5-.05.32,3q2.43-.27,4.8-.77l-.63-3,.49-.1.63,3q2.33-.52,4.58-1.25l.1,0-.92-2.85.48-.15.92,2.84.28-.09c.53-.18,1.05-.37,1.57-.57l.93-.37,1.2-.5.53-.24-1.2-2.69.46-.2,1.2,2.68.38-.17,1-.5,1.18-.61,1-.55.7-.4-2.61-4.53.43-.25,2.61,4.53.17-.1c.43-.26.85-.53,1.28-.81l.73-.47q.85-.57,1.68-1.17l.19-.13L95.86,96l.4-.29L97.94,98q1.93-1.45,3.72-3.08L99.8,92.81l.37-.33L102,94.55q1.77-1.64,3.38-3.45l-2-1.84.33-.37,2,1.84q1.59-1.81,3-3.78l-2.19-1.59.29-.4L109,86.54q1.39-2,2.6-4.06l-4.45-2.54A45.51,45.51,0,0,1,68,102.4Z"/><path class="cls-5" d="M118.47,56.6q0-2.43-.24-4.8l-2.55.27-.05-.5,2.55-.27q-.26-2.41-.73-4.75l-2.53.54-.1-.49,2.53-.54q-.51-2.37-1.22-4.66l-2.48.81-.15-.47,2.48-.81q-.75-2.3-1.7-4.5l-2.41,1.08-.2-.46L114.07,36q-1-2.22-2.16-4.32l-4.57,2.49a45.42,45.42,0,0,1,.1,45.37L111.89,82q1.18-2.09,2.16-4.31l-2.4-1.07.2-.46,2.4,1.07c.63-1.47,1.21-3,1.7-4.5L113.48,72l.15-.47,2.48.8q.72-2.29,1.23-4.66l-2.53-.53.1-.49,2.52.53q.48-2.34.74-4.75l-2.55-.27.05-.5,2.55.27c.15-1.58.24-3.18.25-4.8H113.7v-.5Z"/><path class="cls-5" d="M63.62,14.4h-.24v.55h1.79v5.87h1.05V13h-.74A1.76,1.76,0,0,1,63.62,14.4Z"/><path class="cls-6" d="M63.62,14.4h-.24v.55h1.79v5.87h1.05V13h-.74A1.76,1.76,0,0,1,63.62,14.4Z"/><path class="cls-5" d="M70.73,18.23c1.82-1.16,2.51-1.63,2.51-3.09a2.31,2.31,0,0,0-2.61-2.37,2.4,2.4,0,0,0-2.68,2.49v.23h1V15.2a1.49,1.49,0,0,1,1.62-1.55,1.42,1.42,0,0,1,1.57,1.5c0,1.2-.95,1.7-1.6,2.11-1.52,1-2.66,1.68-2.65,3.56h5.3v-.88H69.09C69.23,19.37,69.66,18.9,70.73,18.23Z"/><path class="cls-6" d="M70.73,18.23c1.82-1.16,2.51-1.63,2.51-3.09a2.31,2.31,0,0,0-2.61-2.37,2.4,2.4,0,0,0-2.68,2.49v.23h1V15.2a1.49,1.49,0,0,1,1.62-1.55,1.42,1.42,0,0,1,1.57,1.5c0,1.2-.95,1.7-1.6,2.11-1.52,1-2.66,1.68-2.65,3.56h5.3v-.88H69.09C69.23,19.37,69.66,18.9,70.73,18.23Z"/><path class="cls-5" d="M44.49,20.71h-.24v.55H46v5.87h1V19.32h-.74A1.76,1.76,0,0,1,44.49,20.71Z"/><path class="cls-6" d="M44.49,20.71h-.24v.55H46v5.87h1V19.32h-.74A1.76,1.76,0,0,1,44.49,20.71Z"/><path class="cls-5" d="M49.85,20.71h-.23v.55H51.4V25l1.05,1.6V19.32h-.74A1.76,1.76,0,0,1,49.85,20.71Z"/><path class="cls-6" d="M49.85,20.71h-.23v.55H51.4V25l1.05,1.6V19.32h-.74A1.76,1.76,0,0,1,49.85,20.71Z"/><polygon class="cls-5" points="51.4 27.14 52.27 27.14 51.4 25.22 51.4 27.14"/><polygon class="cls-6" points="51.4 27.14 52.27 27.14 51.4 25.22 51.4 27.14"/><path class="cls-5" d="M30.63,35.42h-.23V36h1.79v5.88h1.05V34h-.74A1.76,1.76,0,0,1,30.63,35.42Z"/><path class="cls-6" d="M30.63,35.42h-.23V36h1.79v5.88h1.05V34h-.74A1.76,1.76,0,0,1,30.63,35.42Z"/><path class="cls-5" d="M37.54,33.79c-.58,0-2.74.13-2.74,4.14s2.16,4.15,2.74,4.15,2.74-.13,2.74-4.15S38.12,33.79,37.54,33.79Zm0,7.41c-1.26,0-1.7-1.49-1.7-3.26s.44-3.26,1.7-3.26,1.7,1.49,1.7,3.26S38.8,41.2,37.54,41.2Z"/><path class="cls-6" d="M37.54,33.79c-.58,0-2.74.13-2.74,4.14s2.16,4.15,2.74,4.15,2.74-.13,2.74-4.15S38.12,33.79,37.54,33.79Zm0,7.41c-1.26,0-1.7-1.49-1.7-3.26s.44-3.26,1.7-3.26,1.7,1.49,1.7,3.26S38.8,41.2,37.54,41.2Z"/><path class="cls-5" d="M27.89,52.32a2.54,2.54,0,0,0-2.68,2.76,2.42,2.42,0,0,0,2.51,2.63,2.33,2.33,0,0,0,1.91-.83h0c0,1.23-.27,2.89-1.9,2.89a1.38,1.38,0,0,1-1.49-1.12h-.94a2.28,2.28,0,0,0,2.42,2c1.22,0,2.95-.52,2.95-4.25C30.7,52.8,29.24,52.32,27.89,52.32Zm0,4.54a1.61,1.61,0,0,1-1.65-1.77c0-1,.48-1.93,1.63-1.93a1.73,1.73,0,0,1,1.74,1.9A1.64,1.64,0,0,1,27.87,56.87Z"/><path class="cls-6" d="M27.89,52.32a2.54,2.54,0,0,0-2.68,2.76,2.42,2.42,0,0,0,2.51,2.63,2.33,2.33,0,0,0,1.91-.83h0c0,1.23-.27,2.89-1.9,2.89a1.38,1.38,0,0,1-1.49-1.12h-.94a2.28,2.28,0,0,0,2.42,2c1.22,0,2.95-.52,2.95-4.25C30.7,52.8,29.24,52.32,27.89,52.32Zm0,4.54a1.61,1.61,0,0,1-1.65-1.77c0-1,.48-1.93,1.63-1.93a1.73,1.73,0,0,1,1.74,1.9A1.64,1.64,0,0,1,27.87,56.87Z"/><path class="cls-5" d="M35.5,76.47a1.79,1.79,0,0,0,1.13-1.72,2.07,2.07,0,0,0-2.35-2.1,2.07,2.07,0,0,0-2.35,2.1,1.79,1.79,0,0,0,1.13,1.72,2,2,0,0,0-1.42,2,2.35,2.35,0,0,0,2.64,2.45,2.36,2.36,0,0,0,2.64-2.45A2,2,0,0,0,35.5,76.47Zm-2.6-1.69a1.39,1.39,0,1,1,1.38,1.32A1.23,1.23,0,0,1,32.9,74.78Zm1.38,5.32a1.57,1.57,0,0,1-1.63-1.66,1.46,1.46,0,0,1,1.63-1.53,1.46,1.46,0,0,1,1.63,1.53A1.57,1.57,0,0,1,34.28,80.1Z"/><path class="cls-6" d="M35.5,76.47a1.79,1.79,0,0,0,1.13-1.72,2.07,2.07,0,0,0-2.35-2.1,2.07,2.07,0,0,0-2.35,2.1,1.79,1.79,0,0,0,1.13,1.72,2,2,0,0,0-1.42,2,2.35,2.35,0,0,0,2.64,2.45,2.36,2.36,0,0,0,2.64-2.45A2,2,0,0,0,35.5,76.47Zm-2.6-1.69a1.39,1.39,0,1,1,1.38,1.32A1.23,1.23,0,0,1,32.9,74.78Zm1.38,5.32a1.57,1.57,0,0,1-1.63-1.66,1.46,1.46,0,0,1,1.63-1.53,1.46,1.46,0,0,1,1.63,1.53A1.57,1.57,0,0,1,34.28,80.1Z"/><path class="cls-5" d="M47.2,88.3h4.68a12.34,12.34,0,0,0-2.18,3.43,12.87,12.87,0,0,0-.94,3.51h1.11a12.5,12.5,0,0,1,.86-3.59,11.11,11.11,0,0,1,2.17-3.51v-.71H47.2Z"/><path class="cls-6" d="M47.2,88.3h4.68a12.34,12.34,0,0,0-2.18,3.43,12.87,12.87,0,0,0-.94,3.51h1.11a12.5,12.5,0,0,1,.86-3.59,11.11,11.11,0,0,1,2.17-3.51v-.71H47.2Z"/><path class="cls-5" d="M67.84,95.06a2.34,2.34,0,0,0-1.91.82h0c0-1.23.27-2.89,1.9-2.89a1.38,1.38,0,0,1,1.49,1.12h.94a2.27,2.27,0,0,0-2.42-2c-.69,0-2.95.07-2.95,4.24,0,3.14,1.08,4,2.8,4a2.54,2.54,0,0,0,2.68-2.76A2.42,2.42,0,0,0,67.84,95.06Zm-.12,4.54A1.73,1.73,0,0,1,66,97.71,1.64,1.64,0,0,1,67.7,95.9a1.62,1.62,0,0,1,1.65,1.78C69.35,98.66,68.87,99.61,67.72,99.61Z"/><path class="cls-6" d="M67.84,95.06a2.34,2.34,0,0,0-1.91.82h0c0-1.23.27-2.89,1.9-2.89a1.38,1.38,0,0,1,1.49,1.12h.94a2.27,2.27,0,0,0-2.42-2c-.69,0-2.95.07-2.95,4.24,0,3.14,1.08,4,2.8,4a2.54,2.54,0,0,0,2.68-2.76A2.42,2.42,0,0,0,67.84,95.06Zm-.12,4.54A1.73,1.73,0,0,1,66,97.71,1.64,1.64,0,0,1,67.7,95.9a1.62,1.62,0,0,1,1.65,1.78C69.35,98.66,68.87,99.61,67.72,99.61Z"/><path class="cls-5" d="M87.77,89.35a2.52,2.52,0,0,0-1.76.59l.31-2.31h3.45v-.89H85.55L85,90.87h1a1.94,1.94,0,0,1,1.53-.68A1.63,1.63,0,0,1,89.23,92c0,1.83-1.29,1.93-1.82,1.93a1.51,1.51,0,0,1-1.61-1.4h-1a2.38,2.38,0,0,0,2.63,2.23A2.56,2.56,0,0,0,90.22,92,2.41,2.41,0,0,0,87.77,89.35Z"/><path class="cls-6" d="M87.77,89.35a2.52,2.52,0,0,0-1.76.59l.31-2.31h3.45v-.89H85.55L85,90.87h1a1.94,1.94,0,0,1,1.53-.68A1.63,1.63,0,0,1,89.23,92c0,1.83-1.29,1.93-1.82,1.93a1.51,1.51,0,0,1-1.61-1.4h-1a2.38,2.38,0,0,0,2.63,2.23A2.56,2.56,0,0,0,90.22,92,2.41,2.41,0,0,0,87.77,89.35Z"/><path class="cls-5" d="M104.5,71.81h-1.06l-3.67,5.13v.88h3.69v1.81h1V77.83h1.23v-.88H104.5Zm-1,5.13h-2.68l2.68-3.75Z"/><path class="cls-6" d="M104.5,71.81h-1.06l-3.67,5.13v.88h3.69v1.81h1V77.83h1.23v-.88H104.5Zm-1,5.13h-2.68l2.68-3.75Z"/><path class="cls-5" d="M109.57,56.93v0a1.75,1.75,0,0,0,1.29-1.73c0-.61-.3-2.15-2.48-2.15a2.34,2.34,0,0,0-2.52,2.62h1c0-1.72,1.15-1.78,1.52-1.78,1.23,0,1.54.74,1.54,1.35,0,1.34-1.37,1.35-1.71,1.35h-.32v.85h.81a1.33,1.33,0,0,1,1.43,1.41,1.55,1.55,0,0,1-1.77,1.66A1.58,1.58,0,0,1,106.68,59c0-.09,0-.17,0-.26h-1a2.46,2.46,0,0,0,2.74,2.62,2.41,2.41,0,0,0,2.69-2.41A1.83,1.83,0,0,0,109.57,56.93Z"/><path class="cls-6" d="M109.57,56.93v0a1.75,1.75,0,0,0,1.29-1.73c0-.61-.3-2.15-2.48-2.15a2.34,2.34,0,0,0-2.52,2.62h1c0-1.72,1.15-1.78,1.52-1.78,1.23,0,1.54.74,1.54,1.35,0,1.34-1.37,1.35-1.71,1.35h-.32v.85h.81a1.33,1.33,0,0,1,1.43,1.41,1.55,1.55,0,0,1-1.77,1.66A1.58,1.58,0,0,1,106.68,59c0-.09,0-.17,0-.26h-1a2.46,2.46,0,0,0,2.74,2.62,2.41,2.41,0,0,0,2.69-2.41A1.83,1.83,0,0,0,109.57,56.93Z"/><path class="cls-5" d="M103.17,38.29c1.82-1.16,2.51-1.63,2.51-3.09a2.31,2.31,0,0,0-2.62-2.37,2.4,2.4,0,0,0-2.68,2.49v.23h1v-.29A1.49,1.49,0,0,1,103,33.71a1.42,1.42,0,0,1,1.57,1.49c0,1.2-1,1.7-1.6,2.11-1.52,1-2.66,1.68-2.65,3.56h5.29V40h-4.13C101.68,39.43,102.11,39,103.17,38.29Z"/><path class="cls-6" d="M103.17,38.29c1.82-1.16,2.51-1.63,2.51-3.09a2.31,2.31,0,0,0-2.62-2.37,2.4,2.4,0,0,0-2.68,2.49v.23h1v-.29A1.49,1.49,0,0,1,103,33.71a1.42,1.42,0,0,1,1.57,1.49c0,1.2-1,1.7-1.6,2.11-1.52,1-2.66,1.68-2.65,3.56h5.29V40h-4.13C101.68,39.43,102.11,39,103.17,38.29Z"/><path class="cls-5" d="M86.49,20.6h-.23v.55H88V27h1V19.21h-.73A1.76,1.76,0,0,1,86.49,20.6Z"/><path class="cls-6" d="M86.49,20.6h-.23v.55H88V27h1V19.21h-.73A1.76,1.76,0,0,1,86.49,20.6Z"/><path class="cls-7" d="M52.45,26.64,51.4,25l-.26-.4.26.58.87,1.91,13.19,29,.06.08L66,54.64l3.53-1.35.93,2.18a2.65,2.65,0,0,0-.27-1.91Z"/><polygon class="cls-6" points="69.5 53.28 65.97 54.64 65.52 56.22 59.8 76.13 70.98 56.77 70.42 55.46 69.5 53.28"/><path class="cls-8" d="M102.66,123.17a113.82,113.82,0,0,0-18.41-2.84l.11.16.9.09c17.4,1.56,29.67,5.34,29.67,9.75a2.47,2.47,0,0,1-.09.62H20.06c0-.08,0-.16,0-.25h0a2.14,2.14,0,0,1-.05-.37c0-4.49,12.72-8.32,30.62-9.83l.13-.18a129.68,129.68,0,0,0-17.33,2.55c-3.38.75-14.35,2.74-13.58,8,0,.11.21.13.3.13h94.79l.19-.07.09-.62C115,125.71,105.94,124,102.66,123.17Z"/><path class="cls-8" d="M20,130.33a2.14,2.14,0,0,0,.05.37c0-.16.19-.43.23-.76.18-1.34,1.55-2.33,2.58-3,3.73-2.44,8.54-3.4,12.84-4.29a125,125,0,0,1,14.84-2l.07-.11C32.69,122,20,125.84,20,130.33Z"/><path class="cls-8" d="M85.27,120.58a131.41,131.41,0,0,1,16,2.47,42.22,42.22,0,0,1,9.48,3.09c1.63.8,3.85,2.11,3.94,4.15-.09.67.28.55-.38.55h-94c-.23,0-.31-.05-.32-.14,0,.08,0,.16,0,.25h94.79a2.47,2.47,0,0,0,.09-.62C114.94,125.92,102.66,122.15,85.27,120.58Z"/><path class="cls-8" d="M80.38,118.25l-.14.11a8.78,8.78,0,0,1,3.66,1.95l.36,0C83.44,119.24,81.71,118.64,80.38,118.25Z"/><path class="cls-8" d="M79.86,118.24l.06,0-.06,0Z"/><path class="cls-8" d="M54.69,118.24c-1.18.39-3.05,1-4,2.09l.29,0a9.09,9.09,0,0,1,3.84-2l-.11-.08Z"/><path class="cls-8" d="M84.05,120.47h0l.32,0h0Z"/><path class="cls-8" d="M84.06,120.48a1.69,1.69,0,0,1,.41,1c0,2.65-7.62,4.79-17,4.79s-17-2.15-17-4.79a1.62,1.62,0,0,1,.32-.92l-.25,0a2.19,2.19,0,0,0-.32.94c-.2,2,3.73,3.05,5.07,3.45a45,45,0,0,0,13.08,1.41,39.56,39.56,0,0,0,11.89-1.61c1.55-.51,4.3-1.34,4.49-3.32a2.2,2.2,0,0,0-.34-1Z"/><path class="cls-8" d="M50.59,120.5l.27,0,.16-.18-.29,0Z"/><path class="cls-8" d="M50.59,120.5l.27,0,.16-.18-.29,0Z"/><path class="cls-8" d="M83.9,120.31l.15.17.32,0-.11-.16Z"/><path class="cls-8" d="M83.9,120.31l.15.17.32,0-.11-.16Z"/><path class="cls-8" d="M50.52,120.62l.25,0,.09-.12-.27,0Z"/><path class="cls-8" d="M50.52,120.62l.25,0,.09-.12-.27,0Z"/><path class="cls-8" d="M79.73,118.34h0l.12-.09h0Z"/><path class="cls-8" d="M84.05,120.47l-.15-.17a8.78,8.78,0,0,0-3.66-1.95l-.11.09c1.65.49,3.93,1.39,4.09,3.1-.23,2.39-4.32,3.16-6.11,3.6a48.33,48.33,0,0,1-12.4,1,43,43,0,0,1-10.12-1.37c-1.58-.42-4.71-1.31-4.9-3.33-.15-1.62,2.3-2.58,4.23-3.13l-.07,0a9.09,9.09,0,0,0-3.84,2l-.16.18-.09.12a1.62,1.62,0,0,0-.32.92c0,2.65,7.62,4.79,17,4.79s17-2.15,17-4.79a1.69,1.69,0,0,0-.41-1Z"/><path class="cls-8" d="M82.44,112.49a4.37,4.37,0,0,1,.17,1.14,5.87,5.87,0,0,1-2.6,4.51l.37.11a6.24,6.24,0,0,0,2.48-4.63,6.06,6.06,0,0,0-.17-1.17Z"/><path class="cls-8" d="M52.3,113.63a4.38,4.38,0,0,1,.16-1.09l-.24,0a6.22,6.22,0,0,0-.17,1.15c-.1,1.9,1.18,3.44,2.69,4.58l.2-.06A5.89,5.89,0,0,1,52.3,113.63Z"/><path class="cls-8" d="M77.3,119.74a24.22,24.22,0,0,1-9.84,1.93c-5.09,0-9.58-1.33-12.33-3.38l-.21.06a15.7,15.7,0,0,0,1.89,1.17,22.6,22.6,0,0,0,10.65,2.24c3.43-.05,9.25-.74,12.67-3.32l-.39-.11A11.52,11.52,0,0,1,77.3,119.74Z"/><path class="cls-8" d="M54.74,118.22l.11.08.2-.06-.11-.08Z"/><path class="cls-8" d="M54.74,118.22l.11.08.2-.06-.11-.08Z"/><path class="cls-8" d="M79.92,118.2l-.06,0,.38.12.14-.11-.37-.11Z"/><path class="cls-8" d="M79.92,118.2l-.06,0,.38.12.14-.11-.37-.11Z"/><path class="cls-8" d="M54.85,118.3l.07,0,.21-.06-.08-.05Z"/><path class="cls-8" d="M54.85,118.3l.07,0,.21-.06-.08-.05Z"/><path class="cls-8" d="M79.74,118.34l.39.11.11-.09-.38-.12Z"/><path class="cls-8" d="M79.74,118.34l.39.11.11-.09-.38-.12Z"/><path class="cls-8" d="M82.2,112.53a5.9,5.9,0,0,1,.17,1.11,6.12,6.12,0,0,1-2.44,4.56l.09-.06a5.87,5.87,0,0,0,2.6-4.51,4.37,4.37,0,0,0-.17-1.14Z"/><path class="cls-8" d="M52.55,113.62a3.78,3.78,0,0,1,.1-1.05l-.19,0a4.38,4.38,0,0,0-.16,1.09,5.89,5.89,0,0,0,2.64,4.54l.11.08.08.05c2.75,2,7.24,3.38,12.33,3.38a24.22,24.22,0,0,0,9.84-1.93,28.09,28.09,0,0,1-10.64,1.82C62,121.49,52.87,119.72,52.55,113.62Z"/><path class="cls-8" d="M8,87.51.25,26.22a54.23,54.23,0,0,1,6.14-6,.17.17,0,0,0,0-.12l0,.08,0,0L6.4,20v0A60.58,60.58,0,0,0,0,26.2H0v0l4.31,34.1L7,81.51l.68,5.38c0,.13,0,.53.09.64a87.17,87.17,0,0,0,6.3,6.55A73.4,73.4,0,0,0,52.22,112.5l0-.09A72.25,72.25,0,0,1,8,87.51Z"/><path class="cls-8" d="M57.66,113.14l0,0-.05,0c-1.69-.17-3.34-.4-5-.66l0,.08c1.72.29,3.46.53,5.2.71a.45.45,0,0,1-.14-.12Z"/><path class="cls-8" d="M52.22,112.5l.24,0,0-.09-.24,0Z"/><path class="cls-8" d="M52.22,112.5l.24,0,0-.09-.24,0Z"/><path class="cls-8" d="M52.46,112.54l.19,0,0-.08-.19,0Z"/><path class="cls-8" d="M52.46,112.54l.19,0,0-.08-.19,0Z"/><path class="cls-8" d="M6.45,20.17l.35.64,2,3.63,7.87,14.28,1.52,2.76,0-.06L6.48,20.14Z"/><path class="cls-8" d="M49.11,111.74a75.67,75.67,0,0,1-10.36-2.92A73,73,0,0,1,8.7,88c-.73-.83-.64-2-.78-3.08l-.86-6.81L4.38,56.86.5,26.23c.73-.83,5.58-5.13,5.89-6a54.23,54.23,0,0,0-6.14,6L8,87.51a72.25,72.25,0,0,0,44.23,24.9l.24,0,.19,0c1.62.26,3.27.49,5,.66-.37-.39-2.45-.38-3-.45C52.8,112.44,51,112.11,49.11,111.74Z"/><path class="cls-8" d="M54.22,106.8l-.07-.13-.06,0,2.5,4.53,1.08,2h.06l-.42-.76Z"/><path class="cls-8" d="M6.41,19.91V20h0a.48.48,0,0,1,.33,0,73.54,73.54,0,0,1,13.11-8.58.39.39,0,0,0,.1-.15v0l0-.08L20.1,11a.24.24,0,0,0-.13,0A77.27,77.27,0,0,0,6.41,19.91Z"/><path class="cls-8" d="M68.1,113.71l-.3-.09h-.49c-2.77,0-5.44-.12-8-.34a6.06,6.06,0,0,1-1.1-.09h0c0,.07-.25.08-.3.08h0c.56.4,2.43.22,2.92.26,2.46.18,4.95.27,7.42.21,0,0,.07,0,.08,0H68.1Z"/><path class="cls-8" d="M6.41,20h0v0l.08.15L6.62,20l.12-.09A.48.48,0,0,0,6.41,20Z"/><path class="cls-8" d="M6.41,20h0v0l.08.15L6.62,20l.12-.09A.48.48,0,0,0,6.41,20Z"/><path class="cls-8" d="M57.71,113.15a.45.45,0,0,0,.14.12h0s.26,0,.3-.08l-.23,0Z"/><path class="cls-8" d="M57.71,113.15a.45.45,0,0,0,.14.12h0s.26,0,.3-.08l-.23,0Z"/><path class="cls-8" d="M54.15,106.67l.07.13,3.08,5.58.42.76.22,0-3.54-6.44Z"/><path class="cls-8" d="M54.15,106.67l.07.13,3.08,5.58.42.76.22,0-3.54-6.44Z"/><path class="cls-8" d="M6.48,20.14,18.21,41.42l.08-.23L6.62,20Z"/><path class="cls-8" d="M6.48,20.14,18.21,41.42l.08-.23L6.62,20Z"/><path class="cls-8" d="M61.51,113.34c-.21,0-1.34,0-2.24,0,2.6.22,5.27.34,8,.34h.48l-.06-.13C65.66,113.53,63.58,113.45,61.51,113.34Z"/><path class="cls-8" d="M12.86,15.67c.69-.46,6.14-3.46,7-4.32A73.54,73.54,0,0,0,6.74,19.92L6.62,20,18.29,41.19l.08-.23L8,22.2,6.87,20.09C6.7,19.79,12.29,16,12.86,15.67Z"/><path class="cls-8" d="M57.78,112.53,55.84,109l-1.21-2.2-.24-.07,3.54,6.44.23,0h0l0,0Z"/><path class="cls-8" d="M67.25,0A105.64,105.64,0,0,0,20.1,11a.47.47,0,0,1,.2.07,105.13,105.13,0,0,1,47-11,107.58,107.58,0,0,1,35.78,6.19h0c0-.08.19-.05.32,0l.1,0-.05,0A109.78,109.78,0,0,0,67.25,0Z"/><path class="cls-8" d="M20,11.2l0,.07,0,0,0-.1S20,11.19,20,11.2Z"/><path class="cls-8" d="M20,11.26l0,0,6.6,14.13,0,0L23.19,18Z"/><path class="cls-8" d="M65.39,108.48l2.34,5h0l-2.34-5Z"/><path class="cls-8" d="M20,11.1l0,.08v0s0,0,0,0l0,.1.17-.09.12-.06a.47.47,0,0,0-.2-.07Z"/><path class="cls-8" d="M20,11.1l0,.08v0s0,0,0,0l0,.1.17-.09.12-.06a.47.47,0,0,0-.2-.07Z"/><path class="cls-8" d="M67.79,113.62h0l.3.09h.14a.5.5,0,0,1-.21-.1Z"/><path class="cls-8" d="M67.79,113.62h0l.3.09h.14a.5.5,0,0,1-.21-.1Z"/><path class="cls-8" d="M20,11.26,23.19,18l3.42,7.33.13-.17-6.56-14Z"/><path class="cls-8" d="M20,11.26,23.19,18l3.42,7.33.13-.17-6.56-14Z"/><path class="cls-8" d="M65.65,108.49h-.21l2.34,5h0l.06.13H68a.09.09,0,0,1,0-.08Z"/><path class="cls-8" d="M65.65,108.49h-.21l2.34,5h0l.06.13H68a.09.09,0,0,1,0-.08Z"/><path class="cls-8" d="M20.3,11.11l-.12.06,6.56,14,.16-.2L21.62,13.71l-1-2.18-.17-.36c-.06-.12,7.62-3.43,8.39-3.73A105.88,105.88,0,0,1,67.37.2,110.22,110.22,0,0,1,92.88,3.33c.85.21,10.15,2.84,10.19,3l0-.06A107.58,107.58,0,0,0,67.31.1,105.13,105.13,0,0,0,20.3,11.11Z"/><path class="cls-8" d="M67.48,111.89,65.9,108.5h-.25l2.35,5h0l.1-.31Z"/><path class="cls-8" d="M103.57,6.38l0,.07a91.12,91.12,0,0,1,13.92,6.39c.59.32,1.15.64,1.56.9l.8.46a.44.44,0,0,1,.24,0,94.12,94.12,0,0,0-16.57-7.9Z"/><path class="cls-8" d="M120.22,14.44h0l0,0h0Z"/><path class="cls-8" d="M78.71,112.92,78,113l-.51.06c-2.9.32-5.89.51-9,.55a.21.21,0,0,0-.08.09l0-.09h0v0l-.19.09h0l.12,0A102.19,102.19,0,0,0,79.07,113l.07,0h-.05A.78.78,0,0,1,78.71,112.92Z"/><path class="cls-8" d="M68.25,113.71h0Z"/><path class="cls-8" d="M68.25,113.71h0Z"/><path class="cls-8" d="M99.75,16.48h0l0-.12,3.11-9.49.17-.53h0Z"/><path class="cls-8" d="M68.1,113.21h0l0-.09.39-1.2,1.12-3.43h0Z"/><path class="cls-8" d="M103.41,6.29c-.13-.06-.3-.09-.32,0h0l.24.08.23.09,0-.07-.07-.05Z"/><path class="cls-8" d="M103.41,6.29c-.13-.06-.3-.09-.32,0h0l.24.08.23.09,0-.07-.07-.05Z"/><path class="cls-8" d="M68.27,113.67s0,0,0,0a0,0,0,0,1,0,0h0l.19-.09v0h-.25Z"/><path class="cls-8" d="M68.27,113.67s0,0,0,0a0,0,0,0,1,0,0h0l.19-.09v0h-.25Z"/><path class="cls-8" d="M68.24,113.6H68a.5.5,0,0,0,.21.1h0a0,0,0,0,0,0,0s0,0,0,0Z"/><path class="cls-8" d="M68.24,113.6H68a.5.5,0,0,0,.21.1h0a0,0,0,0,0,0,0s0,0,0,0Z"/><path class="cls-8" d="M68.24,113.6H68a.5.5,0,0,0,.21.1h0a0,0,0,0,0,0,0s0,0,0,0Z"/><path class="cls-8" d="M68,113.61h0l0-.08A.09.09,0,0,0,68,113.61Z"/><path class="cls-8" d="M68,113.61h0l0-.08A.09.09,0,0,0,68,113.61Z"/><path class="cls-8" d="M68,113.61h0l0-.08A.09.09,0,0,0,68,113.61Z"/><path class="cls-8" d="M103.07,6.35h0l-.17.53-3.11,9.49,0,.12.2.17,3.37-10.29-.24-.08Z"/><path class="cls-8" d="M103.07,6.35h0l-.17.53-3.11,9.49,0,.12.2.17,3.37-10.29-.24-.08Z"/><path class="cls-8" d="M68.53,111.92l-.39,1.2,0,.09h0l-.1.31h0l0,.08h.19l1.67-5.11h-.26Z"/><path class="cls-8" d="M68.53,111.92l-.39,1.2,0,.09h0l-.1.31h0l0,.08h.19l1.67-5.11h-.26Z"/><path class="cls-8" d="M81.23,106.71l-.87,2.08-1.44,3.47-.22.53c0,.08-.28.14-.64.19l.66-.07s0,0,0-.07l2.56-6.14Z"/><path class="cls-8" d="M119.72,14.36,118.63,17,113.1,30.24l-.6,1.45h0l7.26-17.43a.11.11,0,0,1,.07-.06l-.8-.46C119.48,14,119.76,14.26,119.72,14.36Z"/><path class="cls-8" d="M68.55,113.6c3.11,0,6.1-.24,9-.55-1.16.11-2.8.13-3.11.16C73.76,113.26,69.2,113.11,68.55,113.6Z"/><path class="cls-8" d="M103.32,6.37,100,16.66l.21.17,3.36-10.28A101.09,101.09,0,0,1,113.91,11c.42.21,2.11,1,3.56,1.82a91.12,91.12,0,0,0-13.92-6.39Z"/><path class="cls-8" d="M68.23,113.6h.27l1.68-5.12-.27,0Z"/><path class="cls-8" d="M134.88,26.56a63.48,63.48,0,0,0-14.69-12.28l-.12,0,.08,0,.09.12h0s0,0,0,.07a60.89,60.89,0,0,1,14.39,12.09l-7.75,60.59a72,72,0,0,1-44.25,25.18l0,.1a74.76,74.76,0,0,0,30.44-12.28A75.16,75.16,0,0,0,126.21,88.3c1.11-1.25,1-1.86,1.24-3.49l5.4-42.2,2-16s0,0,0,0S134.89,26.56,134.88,26.56Z"/><path class="cls-8" d="M79.21,112.85l-.05.13h0c1-.13,2-.29,3.06-.46,0,0,0-.07,0-.11C81.19,112.58,80.21,112.72,79.21,112.85Z"/><path class="cls-8" d="M82.41,112.38l0,.11.25,0,0-.1Z"/><path class="cls-8" d="M82.41,112.38l0,.11.25,0,0-.1Z"/><path class="cls-8" d="M82.16,112.42s0,.07,0,.11l.25,0,0-.11Z"/><path class="cls-8" d="M82.16,112.42s0,.07,0,.11l.25,0,0-.11Z"/><path class="cls-8" d="M120.08,14.22a.44.44,0,0,0-.24,0l.17.1.21.13,0,0h0l-.09-.12Z"/><path class="cls-8" d="M120.08,14.22a.44.44,0,0,0-.24,0l.17.1.21.13,0,0h0l-.09-.12Z"/><path class="cls-8" d="M78.71,112.92a.78.78,0,0,0,.38.08h.07l.05-.13-.29,0Z"/><path class="cls-8" d="M78.71,112.92a.78.78,0,0,0,.38.08h.07l.05-.13-.29,0Z"/><path class="cls-8" d="M78.68,112.85s0,0,0,.07l.22,0,2.61-6.26-.3.08Z"/><path class="cls-8" d="M78.68,112.85s0,0,0,.07l.22,0,2.61-6.26-.3.08Z"/><path class="cls-8" d="M119.76,14.26,112.5,31.69l.15.28L120,14.31l-.17-.1A.11.11,0,0,0,119.76,14.26Z"/><path class="cls-8" d="M119.76,14.26,112.5,31.69l.15.28L120,14.31l-.17-.1A.11.11,0,0,0,119.76,14.26Z"/><path class="cls-8" d="M120.27,14.48c.48.63,6,4.35,6.58,4.79a55,55,0,0,1,7.56,7.27L130,60.76l-2.68,20.91-.64,5c-.13,1-1.25,1.79-1.91,2.52a77.17,77.17,0,0,1-6.56,6.43A72.6,72.6,0,0,1,83.7,112a38,38,0,0,0-4.47.76l.4-1,1.74-4.17.47-1.12-.3.08-2.61,6.26.29,0c1-.13,2-.27,2.95-.43l.25,0,.25,0a72,72,0,0,0,44.25-25.18l7.75-60.59A60.89,60.89,0,0,0,120.27,14.48Z"/><path class="cls-8" d="M112.65,32l.15.28L114.16,29l5.15-12.37.91-2.18-.21-.13Z"/><path class="cls-8" d="M118.73,51.75h.06l-.05-.5h-.06q-.26-2.44-.74-4.8h0l-.1-.49h0q-.51-2.4-1.24-4.71h0l-.15-.47h0a51.69,51.69,0,0,0-3.65-8.53l-.15-.28-.15-.28h0a52,52,0,0,0-12.33-14.86l-.21-.17-.2-.17h0A50.73,50.73,0,0,0,47.56,9.33,51.79,51.79,0,0,0,19.08,40.76h0l-.15.48h0q-.73,2.31-1.24,4.7h0l-.1.49h0q-.48,2.37-.74,4.81h0l-.05.5h.05q-.23,2.4-.25,4.86h-.06v.5h.06q0,2.46.25,4.86h-.05l.05.5h.05q.26,2.44.74,4.8h0l.1.49h0q.51,2.4,1.24,4.71h0l.15.47h0A51.86,51.86,0,0,0,43,102.08a50.64,50.64,0,0,0,11.08,4.58l.06,0,.24.07.24.07a50.5,50.5,0,0,0,10.76,1.67h.5c.62,0,1.24,0,1.86,0s1.26,0,1.88,0h.26l.27,0a50.57,50.57,0,0,0,11.06-1.76h0l.3-.08.3-.08a51.66,51.66,0,0,0,34.6-33.62h0l.15-.47h0q.73-2.31,1.24-4.71h0l.1-.49h0q.48-2.36.75-4.8h.06l.05-.5h-.06q.24-2.4.25-4.85H119v-.5H119Q119,54.15,118.73,51.75Zm-72-41.52L47.95,13l.46-.2L47.19,10q2.21-1,4.52-1.77l.93,2.87.48-.15L52.19,8.1q2.3-.75,4.69-1.28l.63,3,.49-.1-.63-3q2.36-.5,4.8-.77l.32,3,.5-.05-.32-3q2.4-.24,4.85-.26v5.74H68V5.63q2.46,0,4.87.26l-.32,3,.5.05.32-3c1.62.18,3.23.44,4.8.77l-.63,3,.49.1.63-3q2.39.53,4.69,1.28L82.42,11l.47.15.93-2.87Q86.14,9,88.34,10l-1.21,2.72.46.2,1.21-2.72q2.2,1,4.29,2.24l-3,4.64.42.27,3-4.65q2.09,1.25,4,2.69l-1.68,2.32.4.29L98,15.72q1.94,1.45,3.73,3.09L99.81,20.9l.37.33,1.88-2.09q1.77,1.64,3.38,3.45l-2,1.85.33.37,2-1.84q1.59,1.82,3,3.78l-2.2,1.6.29.4,2.19-1.59q1.39,2,2.59,4.06l-4.57,2.5A45.45,45.45,0,0,0,45.4,17.44l-3-5Q44.53,11.25,46.74,10.24ZM26.46,27.14l2.2,1.59.29-.4-2.2-1.6c.94-1.31,1.95-2.57,3-3.78l2.05,1.85.33-.37-2.06-1.85q1.61-1.81,3.39-3.45l1.88,2.09.37-.33-1.89-2.1q1.79-1.63,3.73-3.08L39.26,18l.4-.29L38,15.41q2-1.43,4-2.68l3,5A45.83,45.83,0,0,0,28.56,34.23l-4.71-3Q25.06,29.12,26.46,27.14ZM17.29,51.79l2.56.27.05-.5-2.56-.27c.17-1.61.42-3.19.73-4.75l2.54.54.1-.49L18.18,46q.5-2.37,1.22-4.65l2.49.81.15-.47-2.49-.81q.75-2.3,1.7-4.51l2.42,1.08.2-.46L21.45,36q1-2.2,2.15-4.29l4.71,3a45.2,45.2,0,0,0-5.82,21.92H17Q17.05,54.16,17.29,51.79Zm4.17,25.94,2.41-1.07-.2-.46-2.41,1.07q-1-2.2-1.7-4.51L22,72l-.15-.47-2.48.81c-.48-1.52-.89-3.08-1.23-4.66l2.53-.54-.1-.49-2.53.54q-.48-2.34-.74-4.75l2.56-.27-.05-.5-2.56.27q-.23-2.37-.25-4.8h5.45a45.19,45.19,0,0,0,6,22.43l-4.89,2.53Q22.45,79.95,21.46,77.73ZM38,98.26l1.68-2.31-.4-.29L37.58,98q-1.93-1.45-3.73-3.08l1.88-2.08-.37-.33-1.87,2.08q-1.77-1.65-3.39-3.45l2-1.84-.33-.37-2,1.84q-1.59-1.81-3-3.78L29,85.35l-.29-.4-2.19,1.59q-1.38-2-2.59-4L28.77,80a45.84,45.84,0,0,0,15.85,16l-2.62,5Q39.92,99.69,38,98.26ZM67.51,108q-2.46,0-4.86-.26l.32-3-.5-.05-.32,3q-2.43-.27-4.79-.77l.63-3-.49-.1-.63,3q-2.38-.53-4.68-1.28l.93-2.85-.48-.15-.93,2.85q-2.31-.78-4.52-1.77l1.21-2.7-.46-.2-1.21,2.7q-2.21-1-4.31-2.25l2.62-5a45.2,45.2,0,0,0,22.46,6.21ZM23,56.91a45,45,0,1,1,45,45A45,45,0,0,1,23,56.91ZM109,86.54,106.86,85l-.29.4,2.19,1.59q-1.42,2-3,3.78l-2-1.84-.33.37,2,1.84q-1.61,1.8-3.38,3.45l-1.86-2.07-.37.33,1.87,2.08Q99.88,96.51,97.94,98l-1.68-2.3-.4.29,1.68,2.3h0l-.19.13q-.83.6-1.68,1.17l-.73.47c-.42.27-.85.55-1.28.81l-.16.1h0l-2.61-4.53-.43.25,2.61,4.53h0l-.71.39-1,.55-1.18.61-1,.5-.38.19h0l-1.2-2.68-.46.2,1.2,2.69h0l-.54.23-1.2.5-.93.37c-.52.2-1,.39-1.57.57l-.27.1h0l-.92-2.84-.48.15.92,2.85h0l-.1,0q-2.25.73-4.58,1.25l-.63-3-.49.1.63,3q-2.36.5-4.8.77l-.32-3-.5.05.32,3Q70.46,108,68,108V102.4a45.51,45.51,0,0,0,39.17-22.45l4.45,2.54Q110.44,84.58,109,86.54Zm9.43-29.44c0,1.62-.09,3.22-.25,4.8l-2.55-.27-.05.5,2.55.27q-.26,2.41-.74,4.75l-2.52-.53-.1.49,2.53.53q-.51,2.37-1.23,4.66l-2.48-.8-.15.47,2.48.81c-.5,1.53-1.07,3-1.7,4.5l-2.4-1.07-.2.46,2.4,1.07q-1,2.21-2.16,4.31l-4.45-2.54a45.42,45.42,0,0,0-.1-45.37l4.57-2.49q1.18,2.1,2.16,4.32L111.66,37l.2.46,2.41-1.08q1,2.2,1.7,4.5l-2.48.81.15.47,2.48-.81q.72,2.28,1.22,4.66l-2.53.54.1.49,2.53-.54q.47,2.34.73,4.75l-2.55.27.05.5,2.55-.27q.23,2.37.24,4.8H113.7v.5Z"/></g></g></svg>