<svg xmlns="http://www.w3.org/2000/svg" viewBox="0 0 71.63 135.67"><defs><style>.cls-1{fill:#fff;}</style></defs><title>Ресурс 22clock</title><g id="Слой_2" data-name="Слой 2"><g id="Layer_1" data-name="Layer 1"><circle cx="17.26" cy="64.6" r="0.9" transform="translate(-9.11 3.15) rotate(-8.27)"/><circle cx="15.83" cy="58.25" r="0.69" transform="translate(-34.25 24.55) rotate(-40.85)"/><circle cx="15.5" cy="42.82" r="0.16"/><path d="M70.18,55.06H67.59V19.76c0-1.47-.65-2.66-1.44-2.66s-1.44,1.19-1.44,2.66V40.18a.68.68,0,0,0-.55,0A11.86,11.86,0,0,0,58.8,31h0a8.3,8.3,0,0,0-10.85,1.69A6.64,6.64,0,0,0,48.8,42a5.29,5.29,0,0,0,2.76,1.18.67.67,0,0,0-.23.13.68.68,0,0,0-.07,1,.63.63,0,0,0,.14.11,3.75,3.75,0,0,0-3,3.53,3,3,0,0,0,2.9,3.12,2.41,2.41,0,0,0,2.49-2.32,1.93,1.93,0,0,0-1.86-2,1.54,1.54,0,0,0-1.6,1.48,1.23,1.23,0,0,0,1.19,1.28,1,1,0,0,0,1-.95.79.79,0,0,0-.76-.82.62.62,0,0,0-.62.46.7.7,0,0,0,1.05.9.85.85,0,0,1-.66.29,1.08,1.08,0,0,1-1-1.12A1.35,1.35,0,0,1,52,47a1.68,1.68,0,0,1,1.62,1.75,2.11,2.11,0,0,1-2.18,2A2.63,2.63,0,0,1,48.87,48a3.29,3.29,0,0,1,3.41-3.17,4.11,4.11,0,0,1,3.95,3.74h0a6,6,0,0,1-2.42,5.12c-.57.33-1.16.66-1.8,1-.11,0-.2.09-.31.13v0l-.43.19h-43a1.44,1.44,0,1,0,0,2.88H27.77a.68.68,0,0,0,0,.85l.06,0a1.67,1.67,0,0,0-.24.08,1.92,1.92,0,0,0-1,1.5,2.18,2.18,0,0,0,.35,1.4,2.39,2.39,0,0,0,3,.87l.21-.1a.66.66,0,0,0,.66.82,5.66,5.66,0,0,0-.85,4.34,4.55,4.55,0,0,0,5.39,3.51A3.64,3.64,0,0,0,38.11,67a2.91,2.91,0,0,0-3.45-2.25,2.33,2.33,0,0,0-1.8,2.76,1.86,1.86,0,0,0,2.21,1.44,1.49,1.49,0,0,0,1.15-1.77,1.19,1.19,0,0,0-1.41-.92.94.94,0,0,0-.74.91.82.82,0,0,0,0,.18.91.91,0,1,0,.93-.95,1,1,0,0,1,1.12.81,1.3,1.3,0,0,1-1,1.54,1.63,1.63,0,0,1-1.93-1.26,2,2,0,0,1,1.57-2.41,2.54,2.54,0,0,1,3,2,3.18,3.18,0,0,1-2.46,3.77,4,4,0,0,1-4.71-3.07,5,5,0,0,1,3.84-5.89,6.22,6.22,0,0,1,7.15,4h0c1.93,5.38-2.75,15.2-16.79,12a1.4,1.4,0,0,0-1.33-1,1.37,1.37,0,0,0-.73.24l-.54-.26a4.44,4.44,0,0,1-.61-5.69,3.63,3.63,0,0,1,4.24-1.37,2.88,2.88,0,0,1,1.65,3.8,2.23,2.23,0,0,1-2.4,1.29,1.86,1.86,0,0,1-1.57-2.17,1.46,1.46,0,0,1,2.18-1,1.11,1.11,0,0,1-.05,2,.86.86,0,0,1-.77,0,.64.64,0,0,0,.62-.1.7.7,0,0,0-.9-1.07c0-.05.08-.09.07-.09s-.08.07-.17.22a.64.64,0,0,0-.11.35,1,1,0,0,0,1.31.83,1.29,1.29,0,0,0,.15-2.27,1.77,1.77,0,0,0-2.69,1.1,2.32,2.32,0,0,0,1.83,2.79A2.82,2.82,0,0,0,28,73.89a3.35,3.35,0,0,0,0-3.18,3.8,3.8,0,0,0-1.91-1.64A4.16,4.16,0,0,0,21,70.8a5,5,0,0,0,.23,5.65l-.57-.24C9.3,73.23,9.56,64.25,13,61h0a5.2,5.2,0,0,1,6.87-.31,4.16,4.16,0,0,1,.64,5.85,3.33,3.33,0,0,1-4.68.51,2.66,2.66,0,0,1-.41-3.75,2.13,2.13,0,0,1,3-.33,1.71,1.71,0,0,1,.26,2.4,1.37,1.37,0,0,1-1.92.21A1.09,1.09,0,0,1,16.61,64a.87.87,0,0,1,1.23-.13.7.7,0,0,1,.11,1l.11,0a.8.8,0,0,0-.12-1.12,1,1,0,0,0-1.4.15,1.25,1.25,0,0,0,.19,1.75,1.56,1.56,0,0,0,2.19-.24,2,2,0,0,0-.3-2.74,2.44,2.44,0,0,0-3.43.37,3,3,0,0,0,.47,4.28A3.81,3.81,0,0,0,21,66.82a4.76,4.76,0,0,0-.73-6.69,6,6,0,0,0-7.86.36h0c-4,3.74-4.36,12.75,7,16.42q1.23.79,2.7,1.54a1.4,1.4,0,0,0,1.38,1.26,1.38,1.38,0,0,0,.75-.25,63.64,63.64,0,0,0,13.14,3.89c14.58,2.86,13.84,13,9.92,16.1h0a4.9,4.9,0,0,1-1.92,1c0,.24,0,.48,0,.72a5.64,5.64,0,0,0,1.39-.48.83.83,0,0,0-.17.49.85.85,0,0,0,.78.85,4.5,4.5,0,0,0-1.56,1.81A5.69,5.69,0,0,0,47.93,111h0c3.48,2.26,9.55,1.67,12.31-4.4,2.41,7.26,2.28,13,1.15,17.41l2.94.3.1,0q.16-.75.27-1.54V133c0,1.47.64,2.66,1.44,2.66s1.44-1.19,1.44-2.66V57.95h2.59a1.44,1.44,0,1,0,0-2.88ZM56.85,48.62h0a4.7,4.7,0,0,0-4.51-4.28h-.06a.68.68,0,0,0,0-.91.67.67,0,0,0-.27-.18,5.28,5.28,0,0,0,4.25-1.89,4.25,4.25,0,0,0-.55-6,3.4,3.4,0,0,0-4.79.44,2.72,2.72,0,0,0,.35,3.83,2.18,2.18,0,0,0,3.06-.28,1.74,1.74,0,0,0-.22-2.45,1.39,1.39,0,0,0-2,.18,1.1,1.1,0,0,0,0,1.37A1.24,1.24,0,0,0,54.55,38a1.5,1.5,0,0,1-.31,1.23,1.91,1.91,0,0,1-2.68.25,2.38,2.38,0,0,1-.31-3.35,3,3,0,0,1,4.19-.38,3.72,3.72,0,0,1,.48,5.23,4.65,4.65,0,0,1-6.54.6,5.81,5.81,0,0,1-.75-8.18,7.26,7.26,0,0,1,9.48-1.48h0c5,3.11,7.79,13.1-2,20.36A6.47,6.47,0,0,0,56.85,48.62ZM29.75,62.34a2.09,2.09,0,0,1-2.44-.76,1.65,1.65,0,0,1,.48-2.33,1.28,1.28,0,0,1,1.55.19,1.07,1.07,0,0,1,0,1.54A.84.84,0,0,1,28,60.73a.64.64,0,0,1,.67-.9.48.48,0,0,1,.3.2.36.36,0,0,0-.27-.09.4.4,0,0,0,.07.8h0a.49.49,0,0,0,.26-.13l0,0h0a.4.4,0,0,0,.08-.27h0a.55.55,0,0,0-.42-.54.74.74,0,0,0-.82,1,1,1,0,0,0,1.63.37,1.33,1.33,0,0,0,.07-1.92,1.36,1.36,0,0,0-.75-.44.68.68,0,0,0,.05-.85h1.76a3.09,3.09,0,0,1,.71,1.44A2.55,2.55,0,0,1,29.75,62.34ZM34.3,61a5.64,5.64,0,0,0-2.88,1.58.64.64,0,0,0-.59-.54,2.83,2.83,0,0,0,.72-2.72,3.22,3.22,0,0,0-.74-1.39H55.23a.69.69,0,0,0,0,.42A12.21,12.21,0,0,0,43.75,69.65a.68.68,0,0,0-.75-.17,9.51,9.51,0,0,0-.51-3.81h0A7.11,7.11,0,0,0,34.3,61Zm21.61,7.2a1.25,1.25,0,0,0,1.44.09,1.1,1.1,0,0,0,.79-1.12,1.39,1.39,0,0,0-1.48-1.3A1.74,1.74,0,0,0,55,67.74a2.18,2.18,0,0,0,2.31,2,2.72,2.72,0,0,0,2.54-2.89,3.4,3.4,0,0,0-3.61-3.17,4.25,4.25,0,0,0-4,4.51,5.28,5.28,0,0,0,2.32,4,.65.65,0,0,0-.32,0,.68.68,0,0,0-.52.75l0,0a4.71,4.71,0,0,0-6.17.8h0a6.5,6.5,0,0,0-1.52,3.36C42.4,65.47,50.54,59,56.41,59.47h0a7.26,7.26,0,0,1,6.79,6.78,5.81,5.81,0,0,1-5.42,6.17,4.64,4.64,0,0,1-4.93-4.34,3.72,3.72,0,0,1,3.47-3.95,3,3,0,0,1,3.16,2.78,2.38,2.38,0,0,1-2.22,2.53,1.9,1.9,0,0,1-2-1.78,1.5,1.5,0,0,1,.47-1.18A1.25,1.25,0,0,0,55.91,68.22ZM48.79,88.33c-2-2.65-5.87-5-12.23-6.25a53.09,53.09,0,0,1-8.85-2.48c9.55,1,14.23-3.93,15.14-8.93a.68.68,0,0,0,.82,0c-.19,4.51,1.47,10.2,6.15,17a.68.68,0,0,0-.83,0A.68.68,0,0,0,48.79,88.33Zm-.51,22h0A5,5,0,0,1,46.42,104a4,4,0,0,1,5.29-1.92,3.19,3.19,0,0,1,1.54,4.23,2.55,2.55,0,0,1-3.39,1.23,2,2,0,0,1-1-2.71,1.63,1.63,0,0,1,2.17-.79,1.3,1.3,0,0,1,.63,1.73,1,1,0,0,1-.67.55.85.85,0,0,0-.38-1.63.75.75,0,0,0-.84.41,1,1,0,0,0,.46,1.27,1.19,1.19,0,0,0,1.59-.58,1.49,1.49,0,0,0-.72-2,1.86,1.86,0,0,0-2.48.9,2.33,2.33,0,0,0,1.12,3.1,2.91,2.91,0,0,0,3.87-1.41,3.64,3.64,0,0,0-1.76-4.84,4.53,4.53,0,0,0-3.66-.07.82.82,0,0,0,.11-.39.86.86,0,0,0-.86-.86l-.12,0c.15-.1.32-.19.46-.31h0a8.3,8.3,0,0,0,1.3-11.23.67.67,0,0,0,1-.74c.16.23.31.45.47.68a69.06,69.06,0,0,1,9.16,16.47C57.44,111.53,51.36,112.36,48.28,110.36Zm12.18-8.2A96.25,96.25,0,0,0,51,86.55a40,40,0,0,1-3-4.71l0,0c-.07-.1-.12-.2-.18-.29-.32-.63-.61-1.24-.87-1.84a6,6,0,0,1,1.06-5.56h0a4.11,4.11,0,0,1,5.39-.7A3.29,3.29,0,0,1,54.36,78a2.63,2.63,0,0,1-3.65.71,2.1,2.1,0,0,1-.57-2.92,1.68,1.68,0,0,1,2.34-.46,1.35,1.35,0,0,1,.36,1.87,1.08,1.08,0,0,1-1.5.29.85.85,0,0,1-.37-.62.7.7,0,0,0,1.38-.11.62.62,0,0,0-.23-.74.79.79,0,0,0-1.1.21,1,1,0,0,0,.27,1.37A1.23,1.23,0,0,0,53,77.27a1.54,1.54,0,0,0-.42-2.14,1.93,1.93,0,0,0-2.67.52A2.41,2.41,0,0,0,50.58,79a3,3,0,0,0,4.18-.81,3.75,3.75,0,0,0-.31-4.59.75.75,0,0,0,.17,0,.69.69,0,0,0,.51-.83.66.66,0,0,0-.11-.25,5.28,5.28,0,0,0,2.93.67,6.57,6.57,0,0,0,3.86-1.58.68.68,0,0,0,.69.72C60.18,77.07,59,84.44,60.43,95.87A23.68,23.68,0,0,1,60.46,102.16Zm4.25,13.71a44,44,0,0,0-3.51-12.1,26.24,26.24,0,0,0,.21-9.05c-1.43-11.26.53-18.18,3.3-22.44Zm0-47a16.19,16.19,0,0,0-1.65,2.38.5.5,0,0,0,0-.07.68.68,0,0,0-.53-.23,6.62,6.62,0,0,0,1.63-3.88.68.68,0,0,0,.59,0Zm0-3a.67.67,0,0,0-.6,0,8.28,8.28,0,0,0-7.6-7.44.68.68,0,0,0,0-.45h8.19Zm0-10.79H54.4C61.33,51,64,45.94,64.18,41.44a.68.68,0,0,0,.53,0Z"/><path d="M51.72,47.88l.11,0h-.11Z"/><polygon points="34.85 66.37 34.85 66.37 34.85 66.37 34.85 66.37"/><path d="M52.06,76.09h0a.51.51,0,0,1,.09.09Z"/><path d="M57.93,67.4a1.17,1.17,0,0,0,0-.23v0A.86.86,0,0,1,57.93,67.4Z"/><path d="M52.23,37.37a.87.87,0,0,1,.1-.18l0,0A1.25,1.25,0,0,0,52.23,37.37Z"/><path d="M28.94,60.65a.48.48,0,0,1-.17.09A.35.35,0,0,0,28.94,60.65Z"/><path d="M50,105.11a.92.92,0,0,0-.08.12v0A.63.63,0,0,1,50,105.11Z"/><path d="M29.87,20.72a1.55,1.55,0,0,1-.09-1.1,2,2,0,0,0-.18-1.55,2.28,2.28,0,0,0-.57-.63c-.17-.14-.59-.3-.59-.56,0-.81-.93-1.93-1.41-2.53A19,19,0,0,0,21.15,9.8l-1.63-.9a6.85,6.85,0,0,0-1.27-.69c-.32-.1-.58-.09-.68-.47-.16-.65.18-1.31.15-2a2.51,2.51,0,0,0-.59-1.52c-.39-.45-.65-.62-.62-1.25A5.37,5.37,0,0,1,17,.65c.06-.12.27-.61.39-.65a3,3,0,0,0-1.11.66,5,5,0,0,0-.79,1L15.34,2a2.76,2.76,0,0,0-.21.44L15,2.78l0,.06,0-.07-.13-.38a2.5,2.5,0,0,0-.23-.46l-.19-.32a4.9,4.9,0,0,0-.78-1A3,3,0,0,0,12.55,0c.12,0,.33.54.39.65A5.35,5.35,0,0,1,13.47,3c0,.63-.24.8-.62,1.25a2.51,2.51,0,0,0-.59,1.52c0,.66.31,1.32.15,2-.1.39-.36.37-.68.47a6.75,6.75,0,0,0-1.27.69L8.83,9.8a19,19,0,0,0-5.88,4.56c-.48.6-1.41,1.71-1.41,2.53,0,.26-.41.42-.59.56a2.31,2.31,0,0,0-.57.63,2,2,0,0,0-.18,1.55,1.56,1.56,0,0,1-.09,1.1A2.56,2.56,0,0,0,.51,23c.08.09.69.7.81.62L8.11,47c-.75.59-2.36,1.92-1.57,3,.23.32.69.24.92.54.38.49.21,1.13.8,1.49a1.65,1.65,0,0,0,1.48,0c.62-.28,1-1,1.79-.84a3.68,3.68,0,0,1,1.5,1.1c.11.12.25.32.41.49a2.3,2.3,0,1,0,4.52,0c.15-.16.29-.36.4-.48a3.66,3.66,0,0,1,1.5-1.1c.76-.2,1.17.56,1.79.84a1.65,1.65,0,0,0,1.48,0c.59-.36.42-1,.8-1.49.24-.3.69-.22.92-.54.79-1.1-.81-2.44-1.57-3-.11-.08-.22-.15-.33-.23l5.68-23.15c.13.08.74-.52.81-.62A2.56,2.56,0,0,0,29.87,20.72Z"/><polygon class="cls-1" points="7.67 21.16 3.25 23.95 9.39 45.67 11.62 44.46 7.67 21.16"/><polygon class="cls-1" points="22.89 20.9 27.38 23.56 21.84 45.44 19.58 44.29 22.89 20.9"/><polygon class="cls-1" points="21.4 20.63 15.51 20.63 15.5 20.63 9.6 20.63 13.09 44.34 15.5 44.39 15.5 44.39 15.5 44.39 15.51 44.39 15.51 44.39 17.91 44.34 21.4 20.63"/><path d="M14.74,44.94a1.63,1.63,0,0,1-.67-.11,1.57,1.57,0,0,1-1-1.15,1.23,1.23,0,0,1,.76-1.43,1,1,0,0,1,1.18.37.8.8,0,0,1-.23,1.12.62.62,0,0,1-.75-.09.52.52,0,0,1,0-.74.4.4,0,0,1,.65.12.31.31,0,0,1-.32.43.22.22,0,0,1,0-.45.25.25,0,0,0-.16.08.26.26,0,0,0,.16.4.36.36,0,0,0,.4-.49.49.49,0,0,0-.79-.18.64.64,0,0,0,0,.92.78.78,0,0,0,.94.15.93.93,0,0,0,.5-.72,1.05,1.05,0,0,0-.17-.68,1.15,1.15,0,0,0-1.42-.42,1.37,1.37,0,0,0-.8,1.62,1.64,1.64,0,0,0,1.07,1.16A1.6,1.6,0,0,0,14.74,44.94Z"/><ellipse cx="14.36" cy="43.22" rx="0.18" ry="0.19" transform="translate(-3.56 1.35) rotate(-4.79)"/><path d="M16.26,44.94a1.62,1.62,0,0,0,.66-.11,1.57,1.57,0,0,0,1-1.15,1.23,1.23,0,0,0-.76-1.43,1,1,0,0,0-1.18.37.8.8,0,0,0,.23,1.12.62.62,0,0,0,.75-.09.52.52,0,0,0,0-.74.4.4,0,0,0-.65.12.31.31,0,0,0,.32.43.22.22,0,0,0,0-.45.25.25,0,0,1,.16.08.26.26,0,0,1-.17.4.36.36,0,0,1-.39-.49.49.49,0,0,1,.79-.18.64.64,0,0,1,0,.92.78.78,0,0,1-.94.15.93.93,0,0,1-.5-.72,1.06,1.06,0,0,1,.17-.68,1.15,1.15,0,0,1,1.42-.42,1.37,1.37,0,0,1,.8,1.62,1.63,1.63,0,0,1-1.06,1.16A1.6,1.6,0,0,1,16.26,44.94Z"/><ellipse cx="16.64" cy="43.22" rx="0.19" ry="0.18" transform="matrix(0.08, -1, 1, 0.08, -27.82, 56.2)"/><path d="M19.61,45.16a1.63,1.63,0,0,0,.62.26,1.57,1.57,0,0,0,1.43-.47,1.23,1.23,0,0,0,.1-1.62,1,1,0,0,0-1.2-.3.8.8,0,0,0-.39,1.08.62.62,0,0,0,.69.31.51.51,0,0,0,.39-.63.4.4,0,0,0-.62-.24.31.31,0,0,0,.05.54.24.24,0,0,0,.33-.22.25.25,0,0,0-.08-.15.25.25,0,0,1,.09.15.26.26,0,0,1-.35.25.36.36,0,0,1-.08-.62.49.49,0,0,1,.76.26.64.64,0,0,1-.46.8A.78.78,0,0,1,20,44.2a.93.93,0,0,1,0-.88,1.06,1.06,0,0,1,.5-.49,1.15,1.15,0,0,1,1.43.39,1.37,1.37,0,0,1-.16,1.8,1.64,1.64,0,0,1-1.51.43A1.66,1.66,0,0,1,19.61,45.16Z"/><ellipse cx="20.84" cy="43.9" rx="0.19" ry="0.18" transform="translate(-26.88 34.69) rotate(-53.68)"/><circle cx="19.81" cy="43.48" r="0.16"/><path d="M11.21,45.16a1.61,1.61,0,0,1-.65.14,1.54,1.54,0,0,1-1.3-.71A1.2,1.2,0,0,1,9.46,43a1,1,0,0,1,1.21-.09A.78.78,0,0,1,10.85,44a.6.6,0,0,1-.71.18.51.51,0,0,1-.27-.67.39.39,0,0,1,.64-.12.3.3,0,0,1-.14.51.24.24,0,0,1-.28-.27.24.24,0,0,1,.1-.13.24.24,0,0,0-.11.13.26.26,0,0,0,.29.3.35.35,0,0,0,.19-.59.48.48,0,0,0-.78.12.63.63,0,0,0,.3.85.77.77,0,0,0,.91-.19.91.91,0,0,0,.2-.84,1,1,0,0,0-.4-.56,1.13,1.13,0,0,0-1.45.13,1.34,1.34,0,0,0-.16,1.76,1.59,1.59,0,0,0,2,.51Z"/><ellipse cx="10.25" cy="43.73" rx="0.18" ry="0.19" transform="translate(-18.21 8.98) rotate(-26.13)"/><circle cx="11.32" cy="43.5" r="0.15" transform="translate(-33.5 46.9) rotate(-79.76)"/><circle cx="26.65" cy="100.46" r="19.42"/><circle class="cls-1" cx="26.51" cy="100.33" r="17.69"/><path d="M33.19,91.13l.33-2.93h-.29l0-.27.55-.09-.38,3.29Z"/><path d="M37.85,96.41l0-.35a2.68,2.68,0,0,1,.2-.49,4.49,4.49,0,0,1,.3-.45l.16-.21a3.24,3.24,0,0,0,.34-.55,1.31,1.31,0,0,0,.09-.25,1.05,1.05,0,0,0,0-.25.61.61,0,0,0-.08-.33.27.27,0,0,0-.24-.13.74.74,0,0,0-.49.26l0-.39.06,0a.84.84,0,0,1,.45-.16.46.46,0,0,1,.38.18.89.89,0,0,1,.14.55,1.71,1.71,0,0,1,0,.37,1.6,1.6,0,0,1-.17.45,4.42,4.42,0,0,1-.31.44l-.16.2a2.71,2.71,0,0,0-.19.26l-.1.19-.05.13a1.39,1.39,0,0,0-.06.19H39l0,.38Z"/><path d="M39.71,102.12l0-.37a.8.8,0,0,0,.39.15.39.39,0,0,0,.34-.23,1,1,0,0,0,.1-.27,1.34,1.34,0,0,0,0-.32.58.58,0,0,0-.13-.42.52.52,0,0,0-.4-.14H40l0-.33h.06a.55.55,0,0,0,.51-.28.82.82,0,0,0,.08-.2.79.79,0,0,0,0-.22.48.48,0,0,0-.07-.27.26.26,0,0,0-.23-.11.78.78,0,0,0-.39.13l0-.37a1,1,0,0,1,.4-.09.43.43,0,0,1,.37.17.8.8,0,0,1,.13.49,1.16,1.16,0,0,1-.14.57,1,1,0,0,1-.12.18.81.81,0,0,1-.21.16.5.5,0,0,1,.27.27,1,1,0,0,1,.08.41,1.8,1.8,0,0,1-.05.43,1.5,1.5,0,0,1-.14.37.76.76,0,0,1-.25.29.63.63,0,0,1-.34.09l-.17,0Z"/><path d="M38.23,108.34l.1-.84h-.82l0-.41,1-2h.26l-.23,2.06h.25l0,.35h-.25l-.09.84Zm-.46-1.2h.6l.17-1.51Z"/><path d="M32.32,113.08l0-.38a1,1,0,0,0,.22.12l.14,0a.4.4,0,0,0,.38-.28,1.47,1.47,0,0,0,.12-.59.77.77,0,0,0-.11-.43.4.4,0,0,0-.36-.16.75.75,0,0,0-.22,0l.18-1.58h1l0,.38h-.79l-.1.84h0a.56.56,0,0,1,.52.27,1.19,1.19,0,0,1,.16.62,2,2,0,0,1-.06.45,1.52,1.52,0,0,1-.14.39.76.76,0,0,1-.26.29.63.63,0,0,1-.33.09A1.13,1.13,0,0,1,32.32,113.08Z"/><path d="M26.28,112.66a.86.86,0,0,1,.22-.21.42.42,0,0,1,.22-.07.4.4,0,0,1,.34.23,1.07,1.07,0,0,1,.13.56,2.37,2.37,0,0,1-.07.58,2,2,0,0,1-.2.5.77.77,0,0,1-.21.25.42.42,0,0,1-.26.09.43.43,0,0,1-.4-.31,2,2,0,0,1-.13-.79,4.85,4.85,0,0,1,.1-1,3.65,3.65,0,0,1,.29-.86,1,1,0,0,1,.25-.34.48.48,0,0,1,.31-.12l.19,0,.11,0,.14.08,0,.37a.67.67,0,0,0-.41-.18.37.37,0,0,0-.31.21,1.52,1.52,0,0,0-.14.29,2.61,2.61,0,0,0-.08.25A3.09,3.09,0,0,0,26.28,112.66Zm-.09.92a1.12,1.12,0,0,0,.09.5.26.26,0,0,0,.23.18.23.23,0,0,0,.15-.06.48.48,0,0,0,.12-.15,1.42,1.42,0,0,0,.13-.37,2,2,0,0,0,0-.43.76.76,0,0,0-.08-.38.23.23,0,0,0-.2-.13.43.43,0,0,0-.32.21A1,1,0,0,0,26.19,113.58Z"/><path d="M19.39,112.82a3.59,3.59,0,0,1,.07-.43c0-.1,0-.19.07-.27a6.54,6.54,0,0,1,.25-.66q.15-.34.32-.68l.42-.81H19.6l0-.41h1.18l0,.38-.09.16a11.48,11.48,0,0,0-.68,1.43q-.13.34-.23.67c0,.08,0,.16-.06.24s0,.21-.06.38Z"/><path d="M14.6,106.25a1.81,1.81,0,0,1-.11-.24,1.12,1.12,0,0,1,0-.19,1.08,1.08,0,0,1,0-.19,1.43,1.43,0,0,1,.08-.46.9.9,0,0,1,.22-.37.44.44,0,0,1,.31-.13.41.41,0,0,1,.25.08.43.43,0,0,1,.16.22,1,1,0,0,1,.05.31,1.4,1.4,0,0,1-.1.5,1.2,1.2,0,0,1-.33.47,1.36,1.36,0,0,1,.22.33,1.08,1.08,0,0,1,.09.47,1.39,1.39,0,0,1-.1.53A.94.94,0,0,1,15,108a.54.54,0,0,1-.36.13.46.46,0,0,1-.39-.2.91.91,0,0,1-.15-.55,1.55,1.55,0,0,1,0-.37,1.42,1.42,0,0,1,.14-.36A1.67,1.67,0,0,1,14.6,106.25Zm.16.19a1.5,1.5,0,0,0-.3.43,1,1,0,0,0-.07.38.68.68,0,0,0,.09.37.28.28,0,0,0,.24.15.3.3,0,0,0,.2-.08.52.52,0,0,0,.15-.22.84.84,0,0,0,.05-.3.8.8,0,0,0-.06-.32A1.69,1.69,0,0,0,14.76,106.44Zm.13-.39a1.27,1.27,0,0,0,.3-.36.72.72,0,0,0,.09-.34.45.45,0,0,0-.07-.27A.23.23,0,0,0,15,105a.28.28,0,0,0-.25.15.68.68,0,0,0-.09.36.73.73,0,0,0,0,.27A1,1,0,0,0,14.89,106.05Z"/><path d="M13.44,100.45a.91.91,0,0,1-.22.21.42.42,0,0,1-.23.07.39.39,0,0,1-.34-.23,1.07,1.07,0,0,1-.14-.56,2.37,2.37,0,0,1,.11-.69,1.47,1.47,0,0,1,.27-.54.47.47,0,0,1,.36-.18.43.43,0,0,1,.4.31,2,2,0,0,1,.14.79,4.77,4.77,0,0,1-.14,1.15,2.75,2.75,0,0,1-.34.86.6.6,0,0,1-.5.31l-.17,0a.94.94,0,0,1-.25-.12l0-.37a.67.67,0,0,0,.42.18.33.33,0,0,0,.25-.13,1.27,1.27,0,0,0,.2-.39A3.14,3.14,0,0,0,13.44,100.45Zm.09-.93a1.11,1.11,0,0,0-.09-.49c-.06-.12-.13-.17-.23-.17A.28.28,0,0,0,13,99a1,1,0,0,0-.17.37,2,2,0,0,0-.07.51.76.76,0,0,0,.08.38.23.23,0,0,0,.2.13.44.44,0,0,0,.32-.21A1.06,1.06,0,0,0,13.52,99.52Z"/><path d="M14.08,95.82l.33-2.93h-.29l0-.27.55-.09-.38,3.29Z"/><path d="M15.22,95.9q-.21,0-.36-.27a1.7,1.7,0,0,1-.15-.82,5.31,5.31,0,0,1,.11-1.07,3.36,3.36,0,0,1,.3-.89q.19-.37.46-.37a.44.44,0,0,1,.37.27,1.71,1.71,0,0,1,.15.82A5.33,5.33,0,0,1,16,94.63a3.36,3.36,0,0,1-.3.89C15.55,95.78,15.4,95.9,15.22,95.9Zm0-.33q.3,0,.45-.75a7.08,7.08,0,0,0,.15-1.38,1,1,0,0,0-.09-.49.25.25,0,0,0-.21-.14c-.1,0-.2.08-.28.24a2.87,2.87,0,0,0-.22.8A6.77,6.77,0,0,0,15,94.94a1.38,1.38,0,0,0,0,.36.43.43,0,0,0,.11.21A.19.19,0,0,0,15.25,95.58Z"/><path d="M19.29,91.25l.33-2.93h-.29l0-.27.55-.09-.38,3.29Z"/><path d="M20.06,91.25l.33-2.93h-.29l0-.27.55-.09-.38,3.29Z"/><path d="M25.85,89.19l.33-2.93h-.29l0-.27.55-.09-.38,3.29Z"/><path d="M26.41,89.19l0-.35a2.5,2.5,0,0,1,.2-.49,4.26,4.26,0,0,1,.3-.45l.16-.21a3.32,3.32,0,0,0,.34-.55,1.19,1.19,0,0,0,.09-.25,1.06,1.06,0,0,0,0-.25.6.6,0,0,0-.08-.33.27.27,0,0,0-.24-.13.74.74,0,0,0-.49.26l0-.39.06,0a.85.85,0,0,1,.45-.16.46.46,0,0,1,.38.18.89.89,0,0,1,.14.55,1.71,1.71,0,0,1,0,.37,1.58,1.58,0,0,1-.17.45,4.25,4.25,0,0,1-.31.44l-.16.2a3,3,0,0,0-.19.26l-.1.19-.05.13a1.24,1.24,0,0,0-.06.18h.81l0,.38Z"/><path d="M10.91,100.31A15.68,15.68,0,0,1,26.58,84.63h0a15.68,15.68,0,0,1,15.68,15.68h0A15.68,15.68,0,0,1,26.58,116h0a15.68,15.68,0,0,1-15.68-15.68Zm4.72-11a15.44,15.44,0,0,0-4.54,11h0a15.44,15.44,0,0,0,4.54,11h0a15.44,15.44,0,0,0,11,4.54h0a15.44,15.44,0,0,0,11-4.54h0a15.44,15.44,0,0,0,4.54-11h0a15.44,15.44,0,0,0-4.54-11h0a15.44,15.44,0,0,0-11-4.54h0a15.44,15.44,0,0,0-11,4.54Z"/><path d="M8.82,100.4A17.73,17.73,0,0,1,26.55,82.67h0A17.73,17.73,0,0,1,44.28,100.4h0a17.73,17.73,0,0,1-17.73,17.73h0A17.73,17.73,0,0,1,8.82,100.4ZM14.15,88A17.49,17.49,0,0,0,9,100.4H9a17.49,17.49,0,0,0,5.14,12.4h0a17.49,17.49,0,0,0,12.4,5.14h0A17.48,17.48,0,0,0,39,112.81h0a17.48,17.48,0,0,0,5.14-12.4h0A17.49,17.49,0,0,0,39,88h0a17.48,17.48,0,0,0-12.4-5.14h0A17.49,17.49,0,0,0,14.15,88Z"/><path d="M11.62,100.36A14.93,14.93,0,0,1,26.55,85.43h0a14.93,14.93,0,0,1,14.93,14.93h0a14.93,14.93,0,0,1-14.93,14.93h0a14.93,14.93,0,0,1-14.93-14.93Zm4.5-10.43a14.7,14.7,0,0,0-4.32,10.43h0a14.69,14.69,0,0,0,4.32,10.42h0a14.69,14.69,0,0,0,10.42,4.32h0A14.69,14.69,0,0,0,37,110.79h0a14.69,14.69,0,0,0,4.32-10.42h0A14.7,14.7,0,0,0,37,89.94h0a14.7,14.7,0,0,0-10.42-4.32h0a14.7,14.7,0,0,0-10.42,4.32Z"/><path d="M26.63,85.52V82.72H26.5v2.8Z"/><path d="M26.5,115.16V118h.13v-2.87Z"/><path d="M39.73,93.43l2.39-1.28L42.05,92l-2.38,1.28Z"/><path d="M13.51,107.3l-2.58,1.38.06.12,2.56-1.37Z"/><path d="M34.07,87.6l1.36-2.36-.12-.07L34,87.51Z"/><path d="M19.2,113.17l-1.5,2.6.12.07,1.5-2.6Z"/><path d="M33.73,84.25l-.83,1.83c0,.06.12,0,.11.09h0l.84-1.86Z"/><path d="M20.13,114.45l-.9,2,.12.05.9-2Z"/><path d="M31.29,85.53l.61-2-.13,0-.58,1.93S31.26,85.47,31.29,85.53Z"/><path d="M21.85,115.1l-.67,2.08.13,0,.66-2.09Z"/><path d="M29.82,85.1s.4-1.95.4-1.95l-.13,0L29.67,85l0,0A.38.38,0,0,1,29.82,85.1Z"/><path d="M23.28,115.55l-.45,2.13.13,0,.46-2.15Z"/><path d="M28.12,84.9h0l.21-2.14h-.13l-.2,2a.34.34,0,0,1,.09.11Z"/><path d="M24.92,115.76,24.7,118h.13l.21-2.14S25,115.77,24.92,115.76Z"/><path d="M12.39,93.92l-1.93-.86-.05.12,1.9.85S12.37,94,12.39,93.92Z"/><path d="M40.76,106.72s0,.12,0,.16l1.83.82.06-.12Z"/><path d="M11.81,95.43l-2.06-.65,0,.13,2.08.66S11.79,95.47,11.81,95.43Z"/><path d="M41.45,105s0,.08-.06.12l1.94.6,0-.13Z"/><path d="M11.38,97l-2-.45,0,.13,2.08.43S11.37,97,11.38,97Z"/><path d="M41.84,103.54l0,.12,2,.43,0-.13Z"/><path d="M11.15,98.58,9,98.37v.13l2.12.22S11.14,98.62,11.15,98.58Z"/><path d="M42,101.88c.28.16,0,.12,0,.13l2.12.21v-.13Z"/><path d="M42.11,99.13l2-.18v-.13L42.05,99S42.1,99.08,42.11,99.13Z"/><path d="M11.08,101.76l-2.1.18v.13l2.1-.18S11.08,101.81,11.08,101.76Z"/><path d="M41.86,97.29l2-.41,0-.13-2,.42S41.86,97.25,41.86,97.29Z"/><path d="M11.38,103.56l-2.1.45,0,.13,2.08-.44S11.39,103.61,11.38,103.56Z"/><path d="M41.49,95.82l2-.62,0-.13-2,.62Z"/><path d="M11.77,105l-2,.64,0,.13,2-.62S11.79,105.07,11.77,105Z"/><path d="M12.29,106.34l-2,.86.05.12,2-.84S12.31,106.38,12.29,106.34Z"/><path d="M40.92,94.27l1.9-.83-.05-.12-1.9.82C41.12,94.18,40.91,94.22,40.92,94.27Z"/><path d="M39.56,91.65l1.67-1.13-.08-.11-1.69,1.14Z"/><path d="M13.76,109.1,12,110.29l.08.11,1.78-1.2Z"/><path d="M38.43,90.18,40,88.85l-.09-.1-1.55,1.37S38.41,90.14,38.43,90.18Z"/><path d="M37.23,89.06l1.36-1.54-.1-.09L37.12,89S37.21,89,37.23,89.06Z"/><path d="M14.91,110.51,13.23,112l.09.1,1.63-1.41S14.93,110.53,14.91,110.51Z"/><path d="M15.92,111.66l-1.42,1.5.1.09,1.45-1.54S15.95,111.7,15.92,111.66Z"/><path d="M36.09,88l1.24-1.64-.11-.08L36,87.94C36,88,36.1,88,36.09,88Z"/><path d="M17.21,112.73l-1.26,1.67.11.08,1.26-1.65S17.24,112.75,17.21,112.73Z"/><path d="M25.26,84.81s0,0,.07.05l-.17-2.12-.13.09.19,2Z"/><path d="M27.84,115.77,28,118h.13L28,115.79Z"/><path d="M29.48,115.57l.44,2.17.13,0-.42-2.17Z"/><path d="M23.48,85l-.4-2-.13,0,.43,2.06A.23.23,0,0,1,23.48,85Z"/><path d="M22,85.45l-.57-1.88-.13,0,.55,1.8S21.95,85.47,22,85.45Z"/><path d="M30.92,115.2l.67,2.17.13,0-.65-2.12S31,115.19,30.92,115.2Z"/><path d="M20.41,86l-.77-1.82-.12.05L20.29,86S20.37,86,20.41,86Z"/><path d="M32.51,114.69l.86,2,.12-.05-.84-2Z"/><path d="M17.71,87.46l-1.16-1.66-.11.08,1.18,1.71S17.68,87.48,17.71,87.46Z"/><path d="M35.24,113.18,36.52,115l.11-.08-1.26-1.83S35.28,113.15,35.24,113.18Z"/><path d="M16.22,88.62,14.9,87.15l-.1.09,1.34,1.52S16.19,88.65,16.22,88.62Z"/><path d="M36.81,112l-.12.08,1.49,1.69.1-.09Z"/><path d="M15.13,89.72l-1.48-1.39-.09.1,1.52,1.41S15.11,89.75,15.13,89.72Z"/><path d="M37.94,111l-.07.08,1.5,1.47.09-.1Z"/><path d="M14.1,91l-1.58-1.17-.08.11,1.6,1.2S14.08,91.05,14.1,91Z"/><path d="M39,109.71l-.12.12,1.77,1.31.08-.11Z"/><path d="M19.49,87.34l-1.31-2.46-.12.06,1.32,2.47Z"/><path d="M33.32,113.46l1.39,2.61.12-.06-1.39-2.59Z"/><path d="M13.76,93l-2.49-1.43-.07.12,2.5,1.44Z"/><path d="M39.36,107.74l-.07.11,2.51,1.45.07-.12Z"/><path d="M11.64,100.3H8.88v.13h2.77S11.64,100.35,11.64,100.3Z"/><path d="M41.3,100.3v.13h2.89v-.13Z"/><circle cx="26.53" cy="100.37" r="0.97"/><rect x="20.05" y="95.72" width="15.8" height="0.84" transform="translate(-72.12 93.06) rotate(-72.03)"/><polygon points="29.99 88.52 31.17 86.27 30.79 88.77 29.99 88.52"/><rect x="24.44" y="93.68" width="0.84" height="11.39" transform="translate(-72.38 67.13) rotate(-57.61)"/><polygon points="19.84 96.69 18.54 95.37 20.28 95.98 19.84 96.69"/></g></g></svg>