<svg xmlns="http://www.w3.org/2000/svg" viewBox="0 0 80.38 197.67"><defs><style>.cls-1{stroke:#231f20;stroke-width:0.22px;}.cls-2,.cls-3{fill-rule:evenodd;}.cls-3,.cls-4{fill:#fff;}</style></defs><title>Ресурс 21clock</title><g id="Слой_2" data-name="Слой 2"><g id="Layer_1" data-name="Layer 1"><path d="M5.56,95.29,3.21,96.55l.06.11L5.6,95.41Z"/><path d="M5.71,82.08l-2.26-1.3-.06.11,2.27,1.31Z"/><path d="M3.78,88.72H1.27v.12H3.78S3.78,88.76,3.78,88.72Z"/><path d="M17.28,71.38A17.28,17.28,0,1,0,34.56,88.67,17.29,17.29,0,0,0,17.28,71.38Z"/><rect class="cls-1" x="37.81" y="29.13" width="2.57" height="118.08"/><path d="M46.16,70.26l0,.17,0-.17A6.66,6.66,0,0,0,44.38,70a6.45,6.45,0,0,0-5.5,3.37l-.06.11.09.1a2,2,0,0,1,.38.6v0l0,0a2.14,2.14,0,0,1,.4.65l.07.17L40,75a1.48,1.48,0,0,1,.39-.16l.07,0,0-.07a5.72,5.72,0,0,1,2.42-2.34A4.86,4.86,0,0,1,44.7,72a3,3,0,0,1,3.08,2.83,1.28,1.28,0,0,1-1.09,1.4c-.18,0-.37-.17-.51-.46a2.23,2.23,0,0,1-.22-.95.86.86,0,0,1,.07-.38l-.27-.22a2.22,2.22,0,0,0-.89,1.68,1.87,1.87,0,0,0,1.9,1.84,2.37,2.37,0,0,0,1.46-.55,3.52,3.52,0,0,0,1.24-2.66A4.72,4.72,0,0,0,46.16,70.26Z"/><path d="M46.15,49.38l-.11.09.11-.09a5,5,0,0,1,.26,6.35l-.05.09-.1,0a1.7,1.7,0,0,0-.57-.07h0a1.75,1.75,0,0,0-.61-.07h-.15V55.5a1.41,1.41,0,0,0,0-.34v-.06l0,0a4.58,4.58,0,0,0,.87-2.57A4.1,4.1,0,0,0,45.39,51a2.39,2.39,0,0,0-3.11-1.25,1,1,0,0,0-.64,1.27c.06.13.24.21.5.21a1.81,1.81,0,0,0,.76-.17.65.65,0,0,0,.25-.18l.25.12a1.76,1.76,0,0,1-.91,1.23,1.5,1.5,0,0,1-2-.74,1.83,1.83,0,0,1-.1-1.25,2.79,2.79,0,0,1,1.49-1.81A3.79,3.79,0,0,1,46.15,49.38Z"/><path d="M76.58,56c0-.11,0-.22,0-.33a10.34,10.34,0,0,0-.29-1.32,7.27,7.27,0,0,0-.64-1.71,20.06,20.06,0,0,0-1.33-1.88,10.89,10.89,0,0,0-3.09-2.54A15.68,15.68,0,0,0,66,46.44c-.53-.1-1.07-.17-1.6-.22s-1.32-.09-2-.09c-12.25,0-23.62,10.92-23.92,28v.08h1.6v-.07c.5-16.29,11.45-26.43,22.3-26.43A19.43,19.43,0,0,1,69,49,10.24,10.24,0,0,1,71,50a9.54,9.54,0,0,1,2.33,2.13,7.56,7.56,0,0,1,1.59,5.07,8.88,8.88,0,0,1-.24,1.59,5.35,5.35,0,0,1-5.1,4.16h-.3c-2.19-.33-3-1.7-3-2.88,0-1,.59-1.88,1.38-1.88a1.25,1.25,0,0,1,.46.1.58.58,0,0,1,.22.53,2,2,0,0,1-.23.87,1,1,0,0,1-.31.39l-.11,0v.15h0l.09,0a1.71,1.71,0,0,0,1.59-1.64A1.62,1.62,0,0,0,67.7,57l-.37,0a3.05,3.05,0,0,0-2.48,3.18,4,4,0,0,0,1.08,2.77,5.15,5.15,0,0,0,3.76,1.64,6.27,6.27,0,0,0,3.61-1.2,7.83,7.83,0,0,0,2.57-2.89A8.87,8.87,0,0,0,76.58,56Z"/><path d="M65,61.05a9.26,9.26,0,0,0-7.83-5,13.2,13.2,0,0,0-3.37.24,15.25,15.25,0,0,0-5,2.06,12.66,12.66,0,0,0-1.3.85,20.61,20.61,0,0,0-3.42,2.93,20.11,20.11,0,0,0-2.69,3.65A19.22,19.22,0,0,0,39.6,70a34.47,34.47,0,0,0-.94,4.57c0,.19-.08.37-.09.56v.11l1.81-.55v0A22,22,0,0,1,41.31,70a17.88,17.88,0,0,1,2-4.1,23.18,23.18,0,0,1,2.66-3.47,13.33,13.33,0,0,1,3.41-2.66c2.38-1.28,5.18-2.45,7.94-2.08a9.46,9.46,0,0,1,2.56.63,8,8,0,0,1,3.38,3.08,5.73,5.73,0,0,1,.57,1.1,5.54,5.54,0,0,1,.34,1.87,5,5,0,0,1-2,4,4,4,0,0,1-2.07.66,2.55,2.55,0,0,1-2.6-2.32,1.1,1.1,0,0,1,.78-1.12h0c.51,0,.92.91.92,1.39a.51.51,0,0,1,0,.17l-.07.08.08.12a.22.22,0,0,0,.12-.12A1.94,1.94,0,0,0,59.77,66a1.54,1.54,0,0,0-1.56-1.5,1.86,1.86,0,0,0-1.41.69A2.91,2.91,0,0,0,56.13,67a3.9,3.9,0,0,0,3.48,3.52l.54,0c3.62,0,5.58-3.25,5.58-6.38A6.71,6.71,0,0,0,65,61.05Z"/><path d="M56.25,36.4s0-.09,0-.14c-.09-.41-.21-.82-.32-1.23a9.34,9.34,0,0,0-2.83-4.73,12.2,12.2,0,0,0-2.19-1.38,7.89,7.89,0,0,0-5.22-.74,5.75,5.75,0,0,0-1.93.72,7.15,7.15,0,0,0-2.83,2.83,5.23,5.23,0,0,0-.15,4,4,4,0,0,0,3.6,2.58,2.88,2.88,0,0,0,2.35-1.21,2,2,0,0,0,.4-1.16,1.53,1.53,0,0,0-1.52-1.55,1.85,1.85,0,0,0-1.47.83.28.28,0,0,0-.11.17l.14,0,.07-.1a.87.87,0,0,1,.49-.1c.54,0,1.23.23,1.26.62A1.25,1.25,0,0,1,44.59,37,2.68,2.68,0,0,1,42,34.22a4.63,4.63,0,0,1,.24-1.41,5.22,5.22,0,0,1,4.89-3.14,7.31,7.31,0,0,1,5.48,2.68,9.19,9.19,0,0,1,1.95,4.32,14.15,14.15,0,0,1,0,3.22,13.3,13.3,0,0,1-.61,3,17.8,17.8,0,0,1-4.94,8l-.14.13H51.2l0,0a21.06,21.06,0,0,0,4.71-9.14A12.82,12.82,0,0,0,56.25,36.4Z"/><polygon class="cls-2" points="67.84 61.84 66.54 59.48 62.23 61.84 63.53 64.2 67.84 61.84"/><polygon class="cls-2" points="31.71 75.58 30.1 74.15 27.1 76.98 28.7 78.41 31.71 75.58"/><polygon class="cls-2" points="18.92 67.36 16.22 67.38 16.23 72.3 18.93 72.28 18.92 67.36"/><path d="M43,187.65v-6H34.76v6c-3.79,1.26-9.79,6.59-9.79,10H52.81C52.81,194.24,46.8,188.92,43,187.65Z"/><path d="M32.08,70l0,.17,0-.17a6.53,6.53,0,0,1,1.78-.25,6.43,6.43,0,0,1,5.5,3.37l.07.11-.08.09a2.07,2.07,0,0,0-.39.6v0l0,0a2.23,2.23,0,0,0-.41.65l-.07.18-.17-.09a1.94,1.94,0,0,0-.39-.16l-.07,0,0-.06a5.74,5.74,0,0,0-2.42-2.34,4.87,4.87,0,0,0-1.83-.39,3,3,0,0,0-3.07,2.83A1.28,1.28,0,0,0,31.55,76c.18,0,.36-.16.51-.45a2.25,2.25,0,0,0,.21-.95.84.84,0,0,0-.06-.38l.27-.22a2.19,2.19,0,0,1,.89,1.68,1.87,1.87,0,0,1-1.9,1.83A2.33,2.33,0,0,1,30,76.95a3.51,3.51,0,0,1-1.24-2.65A4.72,4.72,0,0,1,32.08,70Z"/><path d="M32.09,49.15l.11.09-.11-.09a5.32,5.32,0,0,0-.79,1.21,5.14,5.14,0,0,0,.53,5.15l.05.09.1,0a1.7,1.7,0,0,1,.56-.07h.05a1.65,1.65,0,0,1,.61-.07h.15v-.15a1.35,1.35,0,0,1,0-.34v-.05l0-.05a4.6,4.6,0,0,1-.86-2.57,4,4,0,0,1,.35-1.46A2.39,2.39,0,0,1,36,49.56a1,1,0,0,1,.64,1.28c-.06.13-.24.21-.5.21a1.77,1.77,0,0,1-.76-.17.69.69,0,0,1-.25-.18l-.25.11A1.76,1.76,0,0,0,35.74,52a1.5,1.5,0,0,0,2-.74A1.85,1.85,0,0,0,37.83,50a2.82,2.82,0,0,0-1.49-1.82A3.79,3.79,0,0,0,32.09,49.15Z"/><path d="M1.67,55.73c0-.11,0-.22,0-.33A9.56,9.56,0,0,1,2,54.07a6.85,6.85,0,0,1,.63-1.71A19.8,19.8,0,0,1,4,50.48a11,11,0,0,1,3.1-2.54,15.62,15.62,0,0,1,5.17-1.73c.53-.1,1.06-.17,1.6-.22s1.32-.09,2-.09c12.25,0,23.62,10.92,23.92,28V74H38.13V73.9c-.5-16.29-11.46-26.44-22.3-26.44a19.33,19.33,0,0,0-6.6,1.29,10.15,10.15,0,0,0-1.94,1,9.62,9.62,0,0,0-2.33,2.13,7.51,7.51,0,0,0-1.59,5.07,8.91,8.91,0,0,0,.24,1.59A5.35,5.35,0,0,0,8.7,62.7H9c2.19-.32,3-1.69,3-2.88,0-1-.58-1.88-1.38-1.88a1.28,1.28,0,0,0-.47.09.59.59,0,0,0-.22.53,2.1,2.1,0,0,0,.23.87.93.93,0,0,0,.31.4l.11,0V60h0l-.09,0a1.72,1.72,0,0,1-1.6-1.63,1.63,1.63,0,0,1,1.72-1.59,2.11,2.11,0,0,1,.37,0,3.05,3.05,0,0,1,2.48,3.17,4,4,0,0,1-1.09,2.77,5.13,5.13,0,0,1-3.75,1.65,6.26,6.26,0,0,1-3.61-1.2,7.78,7.78,0,0,1-2.57-2.89A8.88,8.88,0,0,1,1.67,55.73Z"/><path d="M13.24,60.82A9.7,9.7,0,0,1,17,57a9.64,9.64,0,0,1,4.13-1.17,13.19,13.19,0,0,1,3.36.24,15.29,15.29,0,0,1,5,2.07,10.32,10.32,0,0,1,1.3.85,20.29,20.29,0,0,1,3.42,2.93,19.89,19.89,0,0,1,2.69,3.65,19,19,0,0,1,1.77,4.17,35.19,35.19,0,0,1,.94,4.56c0,.19.07.37.09.56V75l-1.81-.55v0a22,22,0,0,0-.94-4.58,17.85,17.85,0,0,0-2-4.1,24.26,24.26,0,0,0-2.66-3.47,13.33,13.33,0,0,0-3.41-2.66c-2.38-1.28-5.18-2.45-7.94-2.09a9.74,9.74,0,0,0-2.56.63A8.08,8.08,0,0,0,15,61.17a5.57,5.57,0,0,0-.56,1.1,5.43,5.43,0,0,0-.34,1.87,4.92,4.92,0,0,0,2,4,4,4,0,0,0,2.07.66,2.55,2.55,0,0,0,2.6-2.32,1.11,1.11,0,0,0-.78-1.12h0c-.5,0-.93.91-.93,1.39a.46.46,0,0,0,0,.17l.07.08-.08.12A.23.23,0,0,1,19,67a2,2,0,0,1-.51-1.24A1.54,1.54,0,0,1,20,64.28a1.84,1.84,0,0,1,1.4.69,2.92,2.92,0,0,1,.67,1.82,3.89,3.89,0,0,1-3.48,3.52l-.54,0c-3.62,0-5.58-3.24-5.58-6.38A6.76,6.76,0,0,1,13.24,60.82Z"/><path d="M22,36.16,22,36c.09-.41.21-.82.32-1.23a9.33,9.33,0,0,1,2.82-4.73,12.45,12.45,0,0,1,2.19-1.38,7.88,7.88,0,0,1,5.22-.74,5.58,5.58,0,0,1,1.93.73,7.11,7.11,0,0,1,2.84,2.82,5.41,5.41,0,0,1,.48,2.19,5.61,5.61,0,0,1-.33,1.86,4.05,4.05,0,0,1-3.6,2.58,2.9,2.9,0,0,1-2.35-1.21,2,2,0,0,1-.4-1.16,1.54,1.54,0,0,1,1.52-1.55,1.85,1.85,0,0,1,1.47.83.28.28,0,0,1,.11.17l-.14.05-.07-.1a.94.94,0,0,0-.49-.1c-.53,0-1.22.23-1.26.62a1.25,1.25,0,0,0,1.39,1.12A2.68,2.68,0,0,0,36.23,34,4.56,4.56,0,0,0,36,32.58a5.22,5.22,0,0,0-4.89-3.14,7.33,7.33,0,0,0-5.48,2.68,9.21,9.21,0,0,0-1.95,4.33,14,14,0,0,0,0,3.22,13.32,13.32,0,0,0,.6,3,17.81,17.81,0,0,0,5,8l.14.13H27l0,0a21.07,21.07,0,0,1-4.71-9.14A12.89,12.89,0,0,1,22,36.16Z"/><polygon class="cls-2" points="10.4 61.61 11.71 59.25 16.02 61.61 14.72 63.97 10.4 61.61"/><rect x="36.12" y="157.38" width="5.69" height="25.09"/><rect x="36.82" y="144.84" width="4.18" height="13.01"/><path class="cls-2" d="M46.6,10.77a.86.86,0,0,0-.31.06,21,21,0,0,1-1.39-3.3.87.87,0,0,0-.45-.78L41.76,5.29a.86.86,0,0,0-.41-.1,1.54,1.54,0,0,0-.66-.61l-.25-.22A1.84,1.84,0,0,0,41,3c0-1.07-.84-3-2-3s-2.16,2-2.16,3a1.84,1.84,0,0,0,.49,1.25,2.46,2.46,0,0,0-.6.61,1.71,1.71,0,0,0-.22.25.85.85,0,0,0-.41.11L33.42,6.71a.85.85,0,0,0-.22.17h0v0a.88.88,0,0,0-.19.43c-.51,1.17-.94,2.41-1.43,3.59a.83.83,0,1,0-.39,1.56h0c1.19,4.74,2.49,9.37,3.66,14.13,0,.14-.28.06-.21.29s.42.21.58.38a1.8,1.8,0,0,1,.43.21c.91.3,1.27,1.11,1.88,1.73a.38.38,0,0,0,0,.16c0,.44.71.79,1.58.79s1.58-.36,1.58-.79a.45.45,0,0,0-.07-.23h0C41,28,42.26,27.65,43.18,27c0-.23-.23-.2-.14-.5,1.25-4.71,2.57-9.33,3.77-14.09a.83.83,0,0,0-.21-1.63Z"/><path class="cls-3" d="M32,12.51c.83.15,1.44.09,2.24.22.72,4.47,1.54,9.21,2.09,13.61a3.12,3.12,0,0,0-.65-.07C34.28,21.87,33.22,17.12,32,12.51Z"/><path class="cls-3" d="M45.92,12.51q-1.78,6.94-3.67,13.76c-.44-.06-.61-.1-.94-.15.72-4.46,1.33-9,2.09-13.46C44.3,12.67,45.07,12.55,45.92,12.51Z"/><path class="cls-3" d="M35.12,12.8h.5c.41,3.22.75,6.5,1.08,9.79C36.11,19.39,35.67,16,35.12,12.8Z"/><path class="cls-3" d="M41.67,12.8c-.43,4.49-1,8.79-1.51,13.25H37.85c-.52-4.12-1-8.87-1.51-13.25Z"/><path class="cls-2" d="M79.55,73.67a.82.82,0,0,0-.31.06,20.07,20.07,0,0,1-1.39-3.31.86.86,0,0,0-.45-.77L74.7,68.19a.82.82,0,0,0-.42-.1,1.49,1.49,0,0,0-.66-.61,2.36,2.36,0,0,0-.25-.22,1.85,1.85,0,0,0,.55-1.31c0-1.06-.83-3-2-3s-2.16,2-2.16,3a1.84,1.84,0,0,0,.49,1.25,2.5,2.5,0,0,0-.6.61,2,2,0,0,0-.22.25.85.85,0,0,0-.4.1l-2.69,1.46a.85.85,0,0,0-.22.17h0v0a.85.85,0,0,0-.19.43c-.51,1.17-.94,2.41-1.43,3.59a.82.82,0,0,0-.39-.1.83.83,0,0,0,0,1.66h0c1.19,4.74,2.49,9.37,3.66,14.13,0,.14-.28.06-.21.29s.42.21.58.38a2,2,0,0,1,.44.21c.91.3,1.26,1.11,1.87,1.72a.41.41,0,0,0,0,.16c0,.44.71.79,1.59.79s1.59-.35,1.59-.79a.42.42,0,0,0-.07-.23l0,0c.41-1.17,1.67-1.5,2.6-2.16,0-.22-.23-.21-.15-.5,1.25-4.71,2.57-9.33,3.77-14.09a.83.83,0,0,0-.21-1.63Z"/><path class="cls-3" d="M65,75.41c.83.15,1.44.09,2.24.21.71,4.47,1.54,9.22,2.09,13.61a3.17,3.17,0,0,0-.65-.07C67.22,84.77,66.17,80,65,75.41Z"/><path class="cls-3" d="M78.87,75.41q-1.78,6.94-3.68,13.76c-.44-.06-.61-.1-.94-.15.72-4.46,1.32-9,2.09-13.46C77.24,75.57,78,75.45,78.87,75.41Z"/><path class="cls-3" d="M68.06,75.7h.5c.41,3.22.74,6.5,1.08,9.79C69.05,82.3,68.62,78.94,68.06,75.7Z"/><path class="cls-3" d="M74.61,75.7c-.43,4.49-1.05,8.79-1.51,13.25H70.8c-.52-4.12-1-8.87-1.51-13.25Z"/><ellipse class="cls-4" cx="17.34" cy="88.79" rx="15.96" ry="15.98"/><path d="M22.17,81l-.51-.32,0-.07a.32.32,0,0,0,.24-.11,2.22,2.22,0,0,0,.29-.42l1-1.72c.09-.14.14-.24.17-.3a.79.79,0,0,0,.07-.18.3.3,0,0,0,0-.24l0-.07.51.31L24,78a.32.32,0,0,0-.24.11l-.12.14-.18.27-1,1.72-.17.3a1,1,0,0,0-.07.19.3.3,0,0,0,0,.24Zm-.25-.41-.07,0,.24.15V80.7a.51.51,0,0,1,0-.11.54.54,0,0,1,.05-.11l0,0v0l0,0,1.29-2.13,0,0,0,0,0,0a.48.48,0,0,1,.07-.1l.09-.07.1-.07-.27-.17v.12a.55.55,0,0,1,0,.11.54.54,0,0,1-.06.11l0,.08,0,0-1.29,2.13,0,0,0,.08-.07.1Z"/><path d="M25.42,84.37l-.26-.54.07,0a.31.31,0,0,0,.26,0,2.26,2.26,0,0,0,.47-.19l1.8-.87.31-.16a.67.67,0,0,0,.15-.11.29.29,0,0,0,.11-.21l.07,0,.26.54-.07,0a.31.31,0,0,0-.26,0l-.18.05-.29.13-1.8.87-.3.16a.79.79,0,0,0-.16.12.3.3,0,0,0-.11.21Zm0-.48h-.09l.12.25.05-.07L25.6,84l.1-.06.05,0h0l0,0L28,82.81l0,0h0l0,0,.11,0h.24l-.13-.29-.08.1-.08.08-.11.06-.08,0,0,0-2.23,1.07,0,0-.08,0-.11,0Z"/><path d="M25.72,85l-.25-.54.07,0a.3.3,0,0,0,.26,0,2.11,2.11,0,0,0,.47-.18l1.8-.87.31-.16.15-.11a.3.3,0,0,0,.11-.21l.07,0,.25.54-.08,0a.31.31,0,0,0-.26,0l-.18.05-.29.13-1.8.87-.3.16a.88.88,0,0,0-.16.12.3.3,0,0,0-.11.21Zm0-.48h-.08l.12.26.05-.07.08-.08.1-.06.05,0h0l0,0,2.23-1.07,0,0h0l0,0,.11,0h.24l-.13-.28-.08.1-.08.08-.11.06-.08,0,0,0-2.23,1.07,0,0-.08,0-.11,0Z"/><path d="M26.5,88.46v-.6h.08a.31.31,0,0,0,.22.15,2.15,2.15,0,0,0,.5,0h2.34l.19,0a.29.29,0,0,0,.19-.14h.08v.6H30a.31.31,0,0,0-.22-.15l-.18,0H27l-.2,0a.29.29,0,0,0-.19.14Zm.21-.43-.08,0v.28l.08,0,.1,0h3l.11,0,.11.06V88l-.11.05-.1,0h-3Z"/><path d="M26.5,89.17v-.6h.08a.32.32,0,0,0,.22.15,2.25,2.25,0,0,0,.5,0h2.34l.19,0a.29.29,0,0,0,.19-.14h.08v.6H30a.31.31,0,0,0-.22-.15l-.18,0H27l-.2,0a.3.3,0,0,0-.19.14Zm.21-.43-.08,0V89l.08,0,.1,0h3l.11,0L30,89v-.32l-.11.06-.1,0h-3Z"/><path d="M26.5,89.88v-.6h.08a.32.32,0,0,0,.22.15,2.07,2.07,0,0,0,.5,0h2.34l.19,0a.29.29,0,0,0,.19-.14h.08v.6H30a.3.3,0,0,0-.22-.15l-.18,0H27l-.2,0a.28.28,0,0,0-.19.14Zm.21-.43-.08,0v.28l.08,0,.1,0h3l.11,0,.11.06V89.4l-.11.05-.1,0h-3Z"/><path d="M16.82,79.08,16.57,78l-.22.85a1.45,1.45,0,0,0-.05.36q0,.31.19.36v.08H16v-.08a.34.34,0,0,0,.1-.13,2.07,2.07,0,0,0,.08-.19l.07-.2.05-.18v0l.24-.92-.23-1v0l0-.06-.06-.22a3.21,3.21,0,0,0-.12-.4A.28.28,0,0,0,16,76.1V76h.6v.08a.15.15,0,0,0-.12.06.39.39,0,0,0,0,.19,1.39,1.39,0,0,0,0,.31l.18.77.17-.61a1.73,1.73,0,0,0,.08-.44c0-.17-.05-.26-.15-.28V76h.46v.08a.29.29,0,0,0-.1.11,1.45,1.45,0,0,0-.11.23c0,.1-.07.2-.1.3l0,.11-.19.68L17,78.87a4.59,4.59,0,0,0,.15.53.34.34,0,0,0,.13.18v.08H16.7v-.08l.1,0a.14.14,0,0,0,0-.07.55.55,0,0,0,0-.14A1.16,1.16,0,0,0,16.82,79.08Zm-.72.46h.18a1,1,0,0,1,0-.24s0-.07,0-.14A2.07,2.07,0,0,1,16.1,79.53Zm.76,0h.26l-.06-.14L17,79.21l-.09-.36-.47-2a2.38,2.38,0,0,1-.08-.49.6.6,0,0,1,0-.25h-.31a1.58,1.58,0,0,1,.08.18c0,.07,0,.18.09.34l.06.24V77h0l.48,2a1.55,1.55,0,0,1,0,.16,1.26,1.26,0,0,1,0,.15A.92.92,0,0,1,16.87,79.53Zm.24-3.41h-.19a.5.5,0,0,1,.06.25s0,.05,0,.1A2.24,2.24,0,0,1,17.11,76.12Z"/><path d="M18,79.67h-.59v-.08a.31.31,0,0,0,.15-.22,2.2,2.2,0,0,0,0-.51v-2c0-.16,0-.28,0-.35a.92.92,0,0,0,0-.19.3.3,0,0,0-.14-.19V76H18v.08a.33.33,0,0,0-.15.22,1.06,1.06,0,0,0,0,.18c0,.08,0,.19,0,.33v2c0,.14,0,.26,0,.34a1,1,0,0,0,0,.2.3.3,0,0,0,.14.19Zm-.42-.22,0,.08h.28l0-.08a.47.47,0,0,1,0-.11.54.54,0,0,1,0-.12v-.06a.24.24,0,0,1,0,0V76.55a.28.28,0,0,1,0,0v-.05a.53.53,0,0,1,0-.12.42.42,0,0,1,0-.11l.05-.11h-.31l.05.11a.51.51,0,0,1,0,.1.69.69,0,0,1,0,.13s0,0,0,.09v2.59s0,.07,0,.09a.7.7,0,0,1,0,.12A.57.57,0,0,1,17.56,79.46Z"/><path d="M18.68,79.67h-.59v-.08a.32.32,0,0,0,.15-.22,2.28,2.28,0,0,0,0-.51v-2c0-.16,0-.28,0-.35a.82.82,0,0,0,0-.19.3.3,0,0,0-.14-.19V76h.59v.08a.33.33,0,0,0-.15.22,1.12,1.12,0,0,0,0,.18c0,.08,0,.19,0,.33v2c0,.14,0,.26,0,.34a1,1,0,0,0,0,.2.31.31,0,0,0,.14.19Zm-.42-.22,0,.08h.28l0-.08a.47.47,0,0,1,0-.11.54.54,0,0,1,0-.12V76.46a.53.53,0,0,1,0-.12.41.41,0,0,1,0-.11l.05-.11h-.31l.05.11a.54.54,0,0,1,0,.1.66.66,0,0,1,0,.13s0,0,0,.09v2.59s0,.07,0,.09a.68.68,0,0,1,0,.12Z"/><path d="M25.58,92.92l.33-.5.07,0a.32.32,0,0,0,.1.25,2.16,2.16,0,0,0,.4.32l1.65,1.12.29.19.17.07a.29.29,0,0,0,.24,0l.07,0-.33.5-.07,0a.32.32,0,0,0-.1-.25l-.14-.12L28,94.34l-1.65-1.12L26.07,93,25.88,93a.29.29,0,0,0-.23,0Zm.41-.24,0-.07-.15.23h.08l.11,0,.11.06,0,0h0l0,0,2.05,1.39,0,0,0,0,0,0,.09.08.06.09.06.11.17-.26-.12,0-.11,0-.11-.06-.07,0,0,0-2-1.39,0,0-.07,0-.09-.08Z"/><path d="M27.73,95l-2-1,1.41,1.32a2.79,2.79,0,0,0,.32.26.86.86,0,0,0,.3.14.33.33,0,0,0,.23,0l.07,0-.27.42-.06,0a.52.52,0,0,0-.08-.19,1.75,1.75,0,0,0-.19-.24L27,95.39l-2-1.85v0l2.64,1.23a5.11,5.11,0,0,0,.51.21.34.34,0,0,0,.23,0l.07,0-.34.52-.07,0v0a.17.17,0,0,0,0-.16.49.49,0,0,0-.16-.15Zm-2.51-1.4.25.23,2.29,1.08.27.15.12.09.1.12.16-.25a1.61,1.61,0,0,1-.32-.1l-.18-.08-.15-.07ZM27.73,96l.13-.2-.2,0a1,1,0,0,1-.21-.11l.17.18Z"/><path d="M23.13,99.21l-1.29-1.87.57,1.86a2.73,2.73,0,0,0,.14.39.94.94,0,0,0,.19.28A.34.34,0,0,0,23,100l0,.07-.44.22,0-.07a.54.54,0,0,0,0-.2,1.85,1.85,0,0,0,0-.31c0-.13-.08-.3-.13-.49l-.79-2.61h0L23.26,99a4.23,4.23,0,0,0,.34.45.32.32,0,0,0,.2.12l0,.08-.56.27,0-.08h0a.18.18,0,0,0,.08-.14.49.49,0,0,0-.06-.21A1.81,1.81,0,0,0,23.13,99.21Zm-1.48-2.49.1.32,1.44,2.09a2.1,2.1,0,0,1,.16.26.79.79,0,0,1,.05.14.77.77,0,0,1,0,.16l.26-.13a1.6,1.6,0,0,1-.23-.25l-.12-.16-.1-.14Zm1,3.38.21-.1a.77.77,0,0,1-.16-.14,1,1,0,0,1-.13-.2,2.29,2.29,0,0,1,.06.24A1.28,1.28,0,0,1,22.63,100.09Z"/><path d="M17.92,100.86l-.35-2.26-.3,1.93a3.05,3.05,0,0,0,0,.42.91.91,0,0,0,.05.33.34.34,0,0,0,.16.18v.08h-.5v-.08a.54.54,0,0,0,.11-.17,1.85,1.85,0,0,0,.09-.3c0-.14.06-.3.09-.5l.42-2.69h0l.46,2.91a4.34,4.34,0,0,0,.11.55.34.34,0,0,0,.13.2v.08h-.62v-.08h0a.17.17,0,0,0,.13-.09.49.49,0,0,0,0-.22A2,2,0,0,0,17.92,100.86ZM17.66,98l-.05.33.39,2.52a2,2,0,0,1,0,.31.8.8,0,0,1,0,.15.78.78,0,0,1,0,.15h.29a1.58,1.58,0,0,1-.1-.33l0-.2s0-.09,0-.17Zm-.59,3.47h.23a.79.79,0,0,1-.08-.19,1.19,1.19,0,0,1,0-.24c0,.1,0,.19-.05.24A1.36,1.36,0,0,1,17.08,101.43Z"/><path d="M16.28,97.88h.59V98a.32.32,0,0,0-.15.22,2.23,2.23,0,0,0,0,.51v2c0,.17,0,.28,0,.35a.74.74,0,0,0,0,.19.3.3,0,0,0,.14.19v.08h-.59v-.08a.31.31,0,0,0,.15-.22,1,1,0,0,0,0-.18c0-.08,0-.19,0-.33v-2c0-.14,0-.26,0-.34a1,1,0,0,0,0-.2.3.3,0,0,0-.14-.19Zm.42.21,0-.08h-.28l0,.08a.4.4,0,0,1,0,.23v.06a.15.15,0,0,1,0,0V101a.21.21,0,0,1,0,0v.05a.59.59,0,0,1,0,.12.51.51,0,0,1,0,.11l-.05.11h.31l-.05-.11a.58.58,0,0,1,0-.1.59.59,0,0,1,0-.12s0,0,0-.09V98.41s0-.07,0-.09a.61.61,0,0,1,0-.12Z"/><path d="M11.88,99.59l.89-2.1L11.5,99a2.7,2.7,0,0,0-.25.33.89.89,0,0,0-.13.31.33.33,0,0,0,0,.23l0,.07-.42-.27,0-.07a.5.5,0,0,0,.18-.08,1.83,1.83,0,0,0,.23-.2l.34-.37,1.78-2h0l-1.14,2.71a4.54,4.54,0,0,0-.2.52.34.34,0,0,0,0,.23l0,.07-.52-.33,0-.07h0a.16.16,0,0,0,.16,0,.48.48,0,0,0,.15-.17A1.78,1.78,0,0,0,11.88,99.59ZM13.19,97l-.22.26L12,99.6a1.74,1.74,0,0,1-.14.27l-.09.12-.12.1.25.16a1.62,1.62,0,0,1,.09-.33l.07-.19.06-.16Zm-2.32,2.62.2.13a.74.74,0,0,1,0-.21,1.1,1.1,0,0,1,.1-.21L11,99.5Z"/><path d="M12.06,96.19l.5.32,0,.07a.31.31,0,0,0-.24.11,2.25,2.25,0,0,0-.3.41l-1.06,1.7-.18.3a.83.83,0,0,0-.07.18.3.3,0,0,0,0,.24l0,.07-.5-.32,0-.07a.31.31,0,0,0,.24-.11l.12-.14.18-.27L11.79,97l.17-.29A.91.91,0,0,0,12,96.5a.3.3,0,0,0,0-.24Zm.25.41.07,0-.23-.15v.09a.48.48,0,0,1,0,.11.46.46,0,0,1-.06.11l0,0v0l0,0-1.32,2.12,0,0,0,0,0,0-.07.1-.09.07-.11.07.26.17v-.12a.55.55,0,0,1,0-.11l.06-.11,0-.07,0,0,1.32-2.11,0,0,0-.07.07-.1Z"/><path d="M11.47,95.81l.5.32,0,.07a.31.31,0,0,0-.24.11,2.15,2.15,0,0,0-.3.41l-1.06,1.71-.18.3a.78.78,0,0,0-.07.18.29.29,0,0,0,0,.24l0,.07-.5-.32,0-.07a.31.31,0,0,0,.24-.11.87.87,0,0,0,.12-.14l.18-.27L11.2,96.6l.17-.29a1,1,0,0,0,.07-.19.3.3,0,0,0,0-.24Zm.25.41.07,0L11.55,96v.08a.47.47,0,0,1,0,.11.53.53,0,0,1-.06.11l0,0v0l0,0-1.32,2.11,0,0,0,0,0,0-.07.1-.09.07-.11.07.26.17v-.12a.6.6,0,0,1,0-.11l.06-.11,0-.08,0,0,1.32-2.12,0,0,0-.07.07-.1Z"/><path d="M7.36,95.76l1.75-1.44L7.32,95a2.77,2.77,0,0,0-.37.18.92.92,0,0,0-.26.21.34.34,0,0,0-.07.23l-.07,0-.25-.43.07,0a.53.53,0,0,0,.2,0,1.52,1.52,0,0,0,.3-.07L7.33,95l2.51-1v0L7.6,95.88a4.41,4.41,0,0,0-.42.37.34.34,0,0,0-.1.21L7,96.5,6.7,96l.07,0v0a.17.17,0,0,0,.14.07.49.49,0,0,0,.21-.08ZM9.7,94.09l-.31.12-2,1.61a2.06,2.06,0,0,1-.25.18l-.13.06-.15,0,.15.26a1.43,1.43,0,0,1,.23-.25L7.43,96l.13-.11ZM6.45,95.32l.12.2a.8.8,0,0,1,.12-.17,1.2,1.2,0,0,1,.19-.14l-.24.08Z"/><path d="M9.08,92.83l.3.52-.07,0a.32.32,0,0,0-.26,0,2.42,2.42,0,0,0-.45.23l-1.72,1-.3.18a.81.81,0,0,0-.14.12.3.3,0,0,0-.09.22l-.07,0L6,94.67l.07,0a.31.31,0,0,0,.26,0l.17-.07.28-.15,1.72-1,.29-.18.15-.13A.31.31,0,0,0,9,92.88Zm0,.48h.08l-.14-.24,0,.07-.07.09-.1.07-.05,0,0,0,0,0L6.59,94.61l0,0h0l0,0-.11.05-.11,0H6.13l.16.28.07-.11.07-.09.1-.07.07,0,0,0,2.13-1.26,0,0,.08,0L9,93.33Z"/><path d="M8.73,92.22l.3.52-.07,0a.31.31,0,0,0-.27,0,2.27,2.27,0,0,0-.45.22L6.51,94l-.29.19a.83.83,0,0,0-.14.13.3.3,0,0,0-.09.22l-.07,0-.3-.52.07,0a.3.3,0,0,0,.27,0L6.12,94l.28-.16,1.72-1,.29-.18.15-.13a.31.31,0,0,0,.09-.22Zm0,.48h.08l-.14-.24,0,.07-.07.09-.1.07,0,0h0l0,0L6.24,94l0,0h0l0,0L6,94.12l-.11,0H5.78l.16.27.07-.1.07-.09.1-.07.07,0,0,0,2.13-1.25,0,0,.07,0,.11-.05Z"/><path d="M8.38,91.61l.3.52-.07,0a.31.31,0,0,0-.26,0,2.21,2.21,0,0,0-.46.22l-1.72,1-.3.18a.81.81,0,0,0-.14.12.3.3,0,0,0-.09.22l-.07,0-.3-.52.07,0a.31.31,0,0,0,.26,0l.17-.07L6,93.2l1.72-1L8.06,92l.15-.13a.31.31,0,0,0,.09-.22Zm0,.48h.08l-.14-.24,0,.07L8.23,92l-.1.07-.05,0,0,0,0,0L5.89,93.39l0,0,0,0,0,0-.11.05-.11,0H5.43l.16.27.07-.11.07-.09.1-.07.07,0,0,0,2.13-1.25,0,0,.08,0,.11-.05Z"/><path d="M8.28,89.13v.6H8.2A.32.32,0,0,0,8,89.58a2.4,2.4,0,0,0-.5,0H5.14l-.19,0a.29.29,0,0,0-.19.14H4.68v-.6h.08a.32.32,0,0,0,.22.15l.18,0H7.81l.2,0a.3.3,0,0,0,.19-.14Zm-.21.43.08,0v-.28l-.08,0-.11,0H5l-.11,0-.11-.05v.32l.11-.06.1,0H8Z"/><path d="M7.69,88.2l-1,.26.84.23a1.46,1.46,0,0,0,.36.05c.21,0,.32-.07.35-.2h.08v.51H8.2a.32.32,0,0,0-.13-.1l-.19-.08-.2-.07-.18-.06h0l-.91-.25-1,.23h0l-.05,0-.22.06a2.81,2.81,0,0,0-.4.12.28.28,0,0,0-.15.11H4.68v-.61h.08a.14.14,0,0,0,.06.12.37.37,0,0,0,.19,0,1.4,1.4,0,0,0,.31,0l.76-.18-.61-.18A1.66,1.66,0,0,0,5,88.08c-.16,0-.26.05-.28.15H4.68v-.46h.08a.31.31,0,0,0,.11.1l.22.11.29.1.11,0,.67.2L7.49,88A4.73,4.73,0,0,0,8,87.83a.33.33,0,0,0,.18-.13h.08v.62H8.2a.23.23,0,0,0,0-.09.14.14,0,0,0-.07,0l-.13,0A1.2,1.2,0,0,0,7.69,88.2Zm.45.73v-.18a.9.9,0,0,1-.24,0H7.77A2.26,2.26,0,0,1,8.15,88.93Zm0-.78v-.27L8,87.95,7.82,88l-.35.09-2,.48a2.39,2.39,0,0,1-.49.08.58.58,0,0,1-.25,0v.31L5,88.84l.34-.09.24-.06h.1l2-.49.16,0h.15Zm-3.37-.24v.19A.49.49,0,0,1,5,88h.1A2.23,2.23,0,0,1,4.77,87.91Z"/><path d="M8.91,83.88l-1-.34.59.64a1.53,1.53,0,0,0,.27.24q.26.16.4,0l.07,0L9,84.92l-.07,0a.32.32,0,0,0-.06-.16l-.12-.17-.13-.17-.12-.14,0,0-.64-.69-.93-.32h0l-.05,0-.22-.07L6.18,83A.28.28,0,0,0,6,83l-.07,0,.32-.52.07,0a.15.15,0,0,0,0,.13.4.4,0,0,0,.14.13,1.34,1.34,0,0,0,.29.13l.74.25L7,82.66a1.74,1.74,0,0,0-.32-.3c-.14-.09-.24-.09-.32,0l-.07,0,.24-.39.07,0a.34.34,0,0,0,0,.14,1.38,1.38,0,0,0,.14.21l.19.25.08.09.47.52,1.3.44a5,5,0,0,0,.53.15.34.34,0,0,0,.22,0l.07,0-.33.53-.07,0a.21.21,0,0,0,0-.1.13.13,0,0,0,0-.08L9.15,84A1.14,1.14,0,0,0,8.91,83.88Zm0,.86.1-.15a1,1,0,0,1-.22-.1l-.12-.08A2.33,2.33,0,0,1,8.92,84.74Zm.4-.66.14-.22-.15,0-.18-.05-.35-.11L6.87,83a2.17,2.17,0,0,1-.46-.19.59.59,0,0,1-.18-.17l-.16.26.19,0,.34.1.23.08h.1l2,.66.15.06.13.07Zm-2.73-2-.1.16a.49.49,0,0,1,.24.08l.08.06A2.39,2.39,0,0,1,6.59,82.07Z"/><path d="M12.53,80.86l-.52.3,0-.07a.32.32,0,0,0,0-.27,2.22,2.22,0,0,0-.22-.46l-1-1.75-.18-.3a.83.83,0,0,0-.12-.15.29.29,0,0,0-.22-.09l0-.07.52-.3,0,.07a.32.32,0,0,0,0,.27,1,1,0,0,0,.07.17l.15.29,1,1.75.18.29a1,1,0,0,0,.13.16.29.29,0,0,0,.22.1Zm-.47,0V81l.24-.14-.07,0-.09-.07-.07-.1,0-.05v0l0,0L10.8,78.33l0,0,0,0,0,0a.54.54,0,0,1,0-.11.46.46,0,0,1,0-.11v-.12l-.27.16.1.07.09.07.07.1,0,.08,0,0,1.22,2.17,0,0,0,.08.05.11A.63.63,0,0,1,12.06,80.89Z"/><path d="M13,79.89l-.73-.79.22.85a1.46,1.46,0,0,0,.13.34c.1.18.21.25.34.21l0,.07-.44.25,0-.07a.36.36,0,0,0,0-.17c0-.06,0-.13,0-.21s0-.15,0-.21l0-.18v0L12.23,79l-.67-.73,0,0,0,0-.16-.17a3.21,3.21,0,0,0-.3-.29.26.26,0,0,0-.17-.07l0-.07.52-.3,0,.07a.14.14,0,0,0-.07.11.39.39,0,0,0,.06.18,1.5,1.5,0,0,0,.19.25l.53.58L12,77.91a1.7,1.7,0,0,0-.14-.42c-.08-.14-.17-.2-.27-.17l0-.07.4-.23,0,.07a.31.31,0,0,0,0,.14,1.47,1.47,0,0,0,0,.25c0,.1,0,.21.06.31l0,.12.16.69.94,1a4.76,4.76,0,0,0,.39.39.33.33,0,0,0,.2.1l0,.07-.54.31,0-.07a.23.23,0,0,0,.06-.08.14.14,0,0,0,0-.09.46.46,0,0,0-.05-.12A1.12,1.12,0,0,0,13,79.89Zm-.4.76.16-.09a.81.81,0,0,1-.15-.19l-.06-.13A2.29,2.29,0,0,1,12.63,80.65Zm.66-.38.23-.13-.12-.1-.14-.13L13,79.64l-1.38-1.49a2.37,2.37,0,0,1-.31-.39.58.58,0,0,1-.08-.24l-.27.16.15.12.25.25.17.18,0,0,0,0h0L13,79.83l.1.13.08.12A.84.84,0,0,1,13.3,80.26Zm-1.45-3.09-.16.09a.49.49,0,0,1,.17.19l0,.1A2.37,2.37,0,0,1,11.84,77.17Z"/><path d="M1.22,88.81A16.13,16.13,0,0,1,17.34,72.69h0A16.13,16.13,0,0,1,33.47,88.81h0a16.12,16.12,0,0,1-16.12,16.12h0A16.13,16.13,0,0,1,1.22,88.81ZM6.06,77.53A15.9,15.9,0,0,0,1.39,88.81h0a15.9,15.9,0,0,0,4.67,11.28h0a15.9,15.9,0,0,0,11.28,4.67h0a15.89,15.89,0,0,0,11.28-4.67h0A15.9,15.9,0,0,0,33.3,88.81h0a15.91,15.91,0,0,0-4.67-11.28h0a15.9,15.9,0,0,0-11.28-4.67h0A15.91,15.91,0,0,0,6.06,77.53Z"/><path d="M3.76,88.78A13.58,13.58,0,0,1,17.34,75.2h0A13.58,13.58,0,0,1,30.92,88.78h0a13.58,13.58,0,0,1-13.58,13.58h0A13.58,13.58,0,0,1,3.76,88.78Zm4.1-9.48a13.37,13.37,0,0,0-3.93,9.48h0a13.37,13.37,0,0,0,3.93,9.48h0a13.37,13.37,0,0,0,9.48,3.93h0a13.37,13.37,0,0,0,9.48-3.93h0a13.37,13.37,0,0,0,3.93-9.48h0a13.37,13.37,0,0,0-3.93-9.48h0a13.37,13.37,0,0,0-9.48-3.92h0a13.36,13.36,0,0,0-9.48,3.92Z"/><path d="M17.42,75.27V72.73H17.3v2.55Z"/><path d="M17.3,102.23v2.61h.12v-2.61Z"/><path d="M29.33,82.47l2.17-1.16-.06-.11-2.17,1.16Z"/><path d="M24.18,77.17,25.42,75,25.31,75l-1.22,2.13Z"/><path d="M10.37,100.26,9,102.63l.11.06,1.36-2.36Z"/><path d="M10.92,76.93,9.73,74.7l-.11.06L10.82,77Z"/><path d="M23.5,100.69l1.27,2.37.11-.06-1.26-2.36Z"/><path d="M29,95.48l-.06.1,2.28,1.31.06-.11Z"/><path d="M30.76,88.72v.12h2.63v-.12Z"/><path class="cls-2" d="M16.84,88.81c0-.22.06-.4.16-.41l8.27-.65c.11,0,.21.16.23.38h0c0,.22-.06.41-.16.42l-8.27.65c-.11,0-.21-.16-.23-.38Z"/><circle cx="17.34" cy="88.79" r="0.67"/><path class="cls-2" d="M17.31,88.67c.16.12.25.27.21.33l-3.64,4.92c0,.06-.22,0-.38-.1h0c-.16-.12-.25-.27-.2-.33l3.64-4.92c0-.07.21,0,.37.1Z"/><path d="M12.82,94l-.59,1.4,1.25-.87a.48.48,0,0,0,.23-.16.51.51,0,0,0-.79-.64A.48.48,0,0,0,12.82,94Z"/><path d="M26.08,88.54l1.45-.45-1.47-.4a.47.47,0,0,0-.27-.08.51.51,0,1,0,.29.93Z"/><path d="M13.22,88.72a4.18,4.18,0,0,1,4.19-4.19h0v.23a4,4,0,0,0-4,4h0a4,4,0,0,0,4,4h0a4,4,0,0,0,4-4h0a4,4,0,0,0-4-4h0v-.23a4.19,4.19,0,0,1,4.18,4.19h0a4.19,4.19,0,0,1-4.18,4.19h0a4.19,4.19,0,0,1-4.19-4.19Zm.82.06a3.34,3.34,0,0,1,3.34-3.34h0a3.34,3.34,0,0,1,3.34,3.34h0a3.34,3.34,0,0,1-3.34,3.34h0v-.23a3.12,3.12,0,0,0,3.11-3.11h0a3.11,3.11,0,0,0-3.11-3.11h0a3.11,3.11,0,0,0-3.11,3.11h0a3.11,3.11,0,0,0,3.11,3.11h0v.23A3.34,3.34,0,0,1,14,88.78Z"/></g></g></svg>