<svg xmlns="http://www.w3.org/2000/svg" viewBox="0 0 59.43 121.38"><defs><style>.cls-1{fill:#fff;}.cls-2{fill-rule:evenodd;}</style></defs><title>Ресурс 18clock</title><g id="Слой_2" data-name="Слой 2"><g id="Layer_1" data-name="Layer 1"><path d="M45.48,43.31c-7.4,1.84-4.72,10.54.54,9.23,4.33-1.08,2.69-6,0-5.32a.81.81,0,1,0,.48,0c1.42.1,2,3.15-.58,3.79-3.63.9-5.13-5.07-.07-6.33,2.85-.71,5.54,1.07,6.44,4.71a13.14,13.14,0,0,1-.06,5.9,9.44,9.44,0,0,0,0,6.53,26.24,26.24,0,0,0,2.35,4.41,9.41,9.41,0,0,1,1.58,4.18,2.71,2.71,0,0,1-.25,1.23A1.91,1.91,0,0,1,54.35,73,1.66,1.66,0,0,1,53,72.25a1.83,1.83,0,0,1-.25-1.66,1.1,1.1,0,0,1,.53-.55.74.74,0,0,1,.63,0l.06,0a.87.87,0,0,0-.1.4A.89.89,0,1,0,55,69.62a2.48,2.48,0,0,0-.67-.47,1.89,1.89,0,0,0-1.57,0,2,2,0,0,0-1,1A2.59,2.59,0,0,0,52,72.58a2.64,2.64,0,0,0,4,.71,4.21,4.21,0,0,0,.9-1.17,3.64,3.64,0,0,0,.34-1.64,10.38,10.38,0,0,0-1.72-4.65,25.44,25.44,0,0,1-2.26-4.21,9,9,0,0,1-.37-5,13.13,13.13,0,0,0,.53-7.45C52.49,45.29,49.47,42.31,45.48,43.31Z"/><path d="M45.5,41.36c-7.4-1.84-4.72-10.54.55-9.23,4.33,1.08,2.69,6,0,5.32a.82.82,0,1,1,.48,0c1.42-.1,2-3.15-.58-3.79-3.63-.9-5.13,5.08-.07,6.33,2.85.71,5.54-1.07,6.44-4.71a13.18,13.18,0,0,0-.06-5.91,9.45,9.45,0,0,1,0-6.53,26.21,26.21,0,0,1,2.35-4.4,9.44,9.44,0,0,0,1.58-4.18A2.72,2.72,0,0,0,56,13a1.91,1.91,0,0,0-1.59-1.29,1.66,1.66,0,0,0-1.37.71,1.83,1.83,0,0,0-.25,1.66,1.07,1.07,0,0,0,.53.55.75.75,0,0,0,.64,0l.06,0a.87.87,0,0,1-.1-.4A.89.89,0,1,1,55,15a2.49,2.49,0,0,1-.67.47,1.9,1.9,0,0,1-1.57,0,2,2,0,0,1-1-1A2.6,2.6,0,0,1,52,12.09a2.64,2.64,0,0,1,4-.71,4.24,4.24,0,0,1,.9,1.17,3.65,3.65,0,0,1,.33,1.64,10.33,10.33,0,0,1-1.72,4.64A26,26,0,0,0,53.32,23,9,9,0,0,0,53,28a13.12,13.12,0,0,1,.53,7.45C52.51,39.38,49.49,42.35,45.5,41.36Z"/><path d="M14,25.39c5.15-5.62,11.51.89,7.84,4.89-3,3.29-6.55-.5-4.67-2.55a.82.82,0,1,1-.21.44c-.59,1.29,1.8,3.28,3.61,1.3,2.52-2.75-2-6.93-5.53-3.09-2,2.16-1.71,5.37,1.06,7.91a13.18,13.18,0,0,0,5.22,2.77,9.44,9.44,0,0,1,5.71,3.16,25.94,25.94,0,0,1,2.75,4.17,9.42,9.42,0,0,0,2.92,3.39,2.74,2.74,0,0,0,1.2.37,1.92,1.92,0,0,0,1.9-.78,1.66,1.66,0,0,0,0-1.54,1.84,1.84,0,0,0-1.35-1,1.07,1.07,0,0,0-.74.2.75.75,0,0,0-.29.56s0,0,0,.07a.87.87,0,0,1,.4.1.89.89,0,1,1-1.29.58,2.59,2.59,0,0,1-.09-.81,1.91,1.91,0,0,1,.72-1.4,2,2,0,0,1,1.36-.4,2.6,2.6,0,0,1,2,1.4A2.64,2.64,0,0,1,35.31,49a4.18,4.18,0,0,1-1.45.23,3.59,3.59,0,0,1-1.6-.49A10.33,10.33,0,0,1,29,45a25.64,25.64,0,0,0-2.62-4,9,9,0,0,0-4.21-2.71,13.17,13.17,0,0,1-6.8-3.1C12.41,32.49,11.24,28.42,14,25.39Z"/><path d="M51.73,114.48c1.54,7.47-7.46,8.81-8.55,3.5-.9-4.37,4.24-5,4.8-2.29a.81.81,0,1,1-1-.63.8.8,0,0,1,.72.21c-.7-1.23-3.71-.47-3.17,2.16.76,3.66,6.79,2.43,5.74-2.67-.59-2.88-3.36-4.53-7-3.77a13.21,13.21,0,0,0-5.3,2.61,9.43,9.43,0,0,1-5.9,2.78,26,26,0,0,1-5-.21,9.44,9.44,0,0,0-4.46.38,2.75,2.75,0,0,0-1,.76,1.92,1.92,0,0,0-.48,2,1.67,1.67,0,0,0,1.23.93,1.85,1.85,0,0,0,1.61-.5,1.07,1.07,0,0,0,.27-.72.75.75,0,0,0-.29-.57l-.05,0a.84.84,0,0,1-.32.26.89.89,0,1,1,.29-1.38,2.6,2.6,0,0,1,.71.41,1.89,1.89,0,0,1,.71,1.4,2,2,0,0,1-.48,1.34,2.61,2.61,0,0,1-2.32.83,2.64,2.64,0,0,1-2.38-3.35,4.22,4.22,0,0,1,.66-1.32,3.58,3.58,0,0,1,1.34-1,10.29,10.29,0,0,1,4.93-.45,25.77,25.77,0,0,0,4.78.22,9,9,0,0,0,4.66-1.83,13.16,13.16,0,0,1,6.49-3.7C46.92,109,50.9,110.45,51.73,114.48Z"/><path d="M1,114.58c-1.54,7.47,7.46,8.81,8.55,3.5.9-4.37-4.24-5-4.8-2.29a.82.82,0,1,0,.24-.42c.7-1.23,3.71-.47,3.17,2.16-.76,3.66-6.79,2.43-5.74-2.68.59-2.88,3.36-4.53,7-3.77a13.22,13.22,0,0,1,5.3,2.6,9.43,9.43,0,0,0,5.9,2.78,26,26,0,0,0,5-.21,9.44,9.44,0,0,1,4.45.38,2.73,2.73,0,0,1,1,.76,1.91,1.91,0,0,1,.48,2,1.66,1.66,0,0,1-1.23.93,1.84,1.84,0,0,1-1.61-.5,1.07,1.07,0,0,1-.27-.72.74.74,0,0,1,.28-.56l.05,0a.86.86,0,0,0,.32.26.89.89,0,1,0-.29-1.38,2.6,2.6,0,0,0-.71.41,1.91,1.91,0,0,0-.71,1.4,2,2,0,0,0,.48,1.34,2.6,2.6,0,0,0,2.32.83A2.64,2.64,0,0,0,32.58,118a4.18,4.18,0,0,0-.66-1.32,3.6,3.6,0,0,0-1.34-1,10.34,10.34,0,0,0-4.93-.45,25.58,25.58,0,0,1-4.78.22,9,9,0,0,1-4.66-1.83,13.14,13.14,0,0,0-6.49-3.7C5.8,109.12,1.81,110.55,1,114.58Z"/><path d="M15.08,45.92a2.44,2.44,0,0,0-.8-.17.9.9,0,1,0,.36,1.06l.07,0a.76.76,0,0,1,.44.46,1.09,1.09,0,0,1,0,.76,1.84,1.84,0,0,1-1.39,1,1.67,1.67,0,0,1-1.45-.52,1.92,1.92,0,0,1-.14-2,2.69,2.69,0,0,1,.72-1,9.24,9.24,0,0,1,4-1.67c-.28-.29-.56-.57-.85-.85a9.36,9.36,0,0,0-3.94,1.76,3.61,3.61,0,0,0-1,1.36,4.24,4.24,0,0,0-.24,1.45A2.64,2.64,0,0,0,14.15,50a2.6,2.6,0,0,0,2-1.48A2,2,0,0,0,16.18,47,1.91,1.91,0,0,0,15.08,45.92Z"/><path d="M26,60.15a2.16,2.16,0,0,0-.42-.58.78.78,0,1,0-.72,1,.83.83,0,0,0,.35-.1l0,.05a.66.66,0,0,1,0,.55,1,1,0,0,1-.47.48,1.62,1.62,0,0,1-1.46-.17,1.46,1.46,0,0,1-.65-1.18,1.67,1.67,0,0,1,1.09-1.42,2.35,2.35,0,0,1,1.07-.25,8,8,0,0,1,3.59,1.23c0-.35,0-.7-.07-1a8.2,8.2,0,0,0-3.59-1.12,3.16,3.16,0,0,0-1.42.33,3.67,3.67,0,0,0-1,.81,2.3,2.3,0,0,0,.71,3.51,2.26,2.26,0,0,0,2.14.17,1.76,1.76,0,0,0,.85-.9A1.66,1.66,0,0,0,26,60.15Z"/><path d="M29.92,60.18a2.23,2.23,0,0,1,.42-.57.78.78,0,1,1,.72,1,.83.83,0,0,1-.35-.1l0,.05a.66.66,0,0,0,0,.55,1,1,0,0,0,.47.48,1.62,1.62,0,0,0,1.46-.17,1.46,1.46,0,0,0,.65-1.18,1.67,1.67,0,0,0-1.09-1.42,2.35,2.35,0,0,0-1.07-.25,8,8,0,0,0-3.59,1.23c0-.35,0-.7.06-1a8.2,8.2,0,0,1,3.59-1.12,3.17,3.17,0,0,1,1.42.33,3.7,3.7,0,0,1,1,.81,2.3,2.3,0,0,1-.71,3.51,2.26,2.26,0,0,1-2.14.17,1.75,1.75,0,0,1-.85-.9A1.67,1.67,0,0,1,29.92,60.18Z"/><path d="M7.78,106.92a.47.47,0,0,1-.11-.3A5.71,5.71,0,0,1,7,108.11a2.71,2.71,0,0,1-.91.87,1.92,1.92,0,0,1-2,.15,1.67,1.67,0,0,1-.72-1.36,1.86,1.86,0,0,1,.75-1.51,1.1,1.1,0,0,1,.75-.15.75.75,0,0,1,.51.37.34.34,0,0,0,0,.06,1,1,0,0,0-.31.27.89.89,0,1,0,1.41-.06,2.52,2.52,0,0,0-.29-.77,1.91,1.91,0,0,0-1.27-.92,2,2,0,0,0-1.4.26,2.6,2.6,0,0,0-1.19,2.16,2.64,2.64,0,0,0,2.92,2.89,4.16,4.16,0,0,0,1.4-.45,3.58,3.58,0,0,0,1.21-1.16,6.39,6.39,0,0,0,.58-1.24A2.67,2.67,0,0,1,7.78,106.92Z"/><path d="M44.12,107.11a.47.47,0,0,0,.11-.3,5.71,5.71,0,0,0,.63,1.49,2.71,2.71,0,0,0,.91.87,1.92,1.92,0,0,0,2,.15,1.67,1.67,0,0,0,.72-1.36,1.86,1.86,0,0,0-.75-1.51,1.1,1.1,0,0,0-.75-.15.75.75,0,0,0-.51.37.34.34,0,0,1,0,.06,1,1,0,0,1,.31.27.89.89,0,1,1-1.41-.06,2.52,2.52,0,0,1,.29-.77,1.91,1.91,0,0,1,1.27-.92,2,2,0,0,1,1.4.26,2.6,2.6,0,0,1,1.19,2.16,2.64,2.64,0,0,1-2.92,2.89,4.16,4.16,0,0,1-1.4-.45A3.58,3.58,0,0,1,44,109a6.39,6.39,0,0,1-.58-1.24A2.67,2.67,0,0,0,44.12,107.11Z"/><path d="M15.38,38.72a2.51,2.51,0,0,1-.8.18.9.9,0,1,1,.36-1.06l.06,0a.76.76,0,0,0,.44-.45,1.08,1.08,0,0,0,0-.77,1.85,1.85,0,0,0-1.39-1,1.67,1.67,0,0,0-1.45.52,1.91,1.91,0,0,0-.14,2,2.73,2.73,0,0,0,.73,1,9.24,9.24,0,0,0,4,1.67c-.27.29-.55.58-.85.85A9.29,9.29,0,0,1,12.38,40a3.56,3.56,0,0,1-1-1.36,4.13,4.13,0,0,1-.24-1.46,2.64,2.64,0,0,1,3.28-2.48,2.6,2.6,0,0,1,2,1.48,2,2,0,0,1,.05,1.42A1.89,1.89,0,0,1,15.38,38.72Z"/><path d="M13.87,59.21c5.15,5.62,11.51-.89,7.84-4.88-3-3.29-6.55.5-4.66,2.55a.81.81,0,1,0,.05-1.15.8.8,0,0,0-.26.71c-.59-1.29,1.8-3.28,3.61-1.3,2.53,2.75-2,6.93-5.53,3.09-2-2.17-1.71-5.38,1.06-7.91a13.13,13.13,0,0,1,5.21-2.77,9.46,9.46,0,0,0,5.71-3.16,26,26,0,0,0,2.75-4.17,9.48,9.48,0,0,1,2.92-3.39,2.76,2.76,0,0,1,1.21-.37,1.91,1.91,0,0,1,1.9.78,1.66,1.66,0,0,1,0,1.54,1.84,1.84,0,0,1-1.35,1,1.08,1.08,0,0,1-.74-.2.74.74,0,0,1-.29-.56s0,0,0-.07a.86.86,0,0,0,.4-.1.89.89,0,1,0-1.29-.57,2.62,2.62,0,0,0-.09.81,1.91,1.91,0,0,0,.72,1.39,2,2,0,0,0,1.37.4,2.6,2.6,0,0,0,2-1.4,2.64,2.64,0,0,0-1.31-3.89,4.27,4.27,0,0,0-1.45-.23,3.64,3.64,0,0,0-1.6.49,10.39,10.39,0,0,0-3.26,3.73,25.69,25.69,0,0,1-2.62,4A9,9,0,0,1,22,46.31a13.14,13.14,0,0,0-6.8,3.09C12.26,52.11,11.09,56.18,13.87,59.21Z"/><path d="M9.25,43.07a.34.34,0,0,1-.18.32,3.48,3.48,0,0,0,1.42.29H57c1.33,0,2.41-.65,2.41-1.44S58.3,40.8,57,40.8H10.5a3.66,3.66,0,0,0-1.21.2C9.29,41.69,9.23,42.38,9.25,43.07Z"/><path d="M39.93,43.34a.6.6,0,0,1,.32.07.69.69,0,0,0,.29-.52V25.79c0-.49-.65-.89-1.44-.89s-1.45.4-1.45.89v17.1a.65.65,0,0,0,.2.45C38.55,43.33,39.24,43.35,39.93,43.34Z"/><path d="M27.12,42.55a.54.54,0,0,1-.32-.08.84.84,0,0,0-.29.61V62.94c0,.57.65,1,1.45,1s1.45-.46,1.45-1V43.08a.82.82,0,0,0-.2-.52C28.51,42.56,27.82,42.54,27.12,42.55Z"/><ellipse cx="8.81" cy="42" rx="2.49" ry="2.64"/><path class="cls-1" d="M45.7,16.61c-1.36-3.58-4.38-5.4-6.42-5.4S34.39,13,33,16.69c-.84,2.29-.55,5.68-.92,8.84H46.46C46.08,22.25,46.58,18.94,45.7,16.61Z"/><path d="M45.81,16.57l-.11,0-.11,0c-1.34-3.54-4.34-5.33-6.31-5.32h0c-2,0-4.8,1.71-6.15,5.4h0c-.81,2.22-.55,5.55-.9,8.68h14.1c-.36-3.25.12-6.5-.74-8.76h0l.11,0,.11,0c.9,2.38.38,5.69.77,8.95h0v.13H32v-.13c.37-3.14.08-6.54.93-8.87h0c1.38-3.77,4.22-5.55,6.37-5.56h0c2.1,0,5.15,1.85,6.53,5.47Z"/><path class="cls-2" d="M38.19,11.93a3.19,3.19,0,0,1-.52.1c0,.05,0,.11,0,.16q-.2,1.93-.45,3.85a64.19,64.19,0,0,0-.74,7.73c0,.53,0,1,.05,1.5h0a2.89,2.89,0,0,1,.55.07s0-.08,0-.12C36.77,21.75,37.84,16.28,38.19,11.93Z"/><path class="cls-2" d="M40.38,12a3,3,0,0,0,.52.09l0,.16q.2,1.93.45,3.84a64.48,64.48,0,0,1,.74,7.73c0,.53,0,1-.05,1.49h0a3.08,3.08,0,0,0-.55.07s0-.08,0-.12C41.81,21.79,40.74,16.32,40.38,12Z"/><path d="M36.14,12.89c.5,0,.91-1,1.43-.36l1.67-.09,1.69.12c.46-.53,1,.37,1.48.33a.69.69,0,0,0,.51-.89l-.06-.15a1,1,0,0,0-.25-.25.07.07,0,0,0,0,0v-.75c0-.14-.39-.26-.89-.26A2.6,2.6,0,0,0,40,9.22a3.35,3.35,0,0,0,.28-1.39c0-.27.27-.55.22-.79h-.35c0-.07,0-.14,0-.21,0-.85-.43-1.76-.92-1.76s-.88.91-.88,1.76c0,.07,0,.15,0,.22H38c-.05.24.19.5.19.77a3.32,3.32,0,0,0,.3,1.45,2.6,2.6,0,0,0-1.49,1.29H36.9c-.51,0-.92.12-.92.26v.75h0a1,1,0,0,0-.29.28l-.06.15A.69.69,0,0,0,36.14,12.89Z"/><rect x="31.82" y="25.69" width="14.85" height="3.35"/><polygon points="38.31 31.12 32.98 28.37 32.72 28.87 38.05 31.62 38.31 31.12"/><rect x="39.62" y="29.79" width="6" height="0.56" transform="translate(-9.04 22.87) rotate(-27.27)"/><path d="M53.58,42.61c0,22.12,4.23,39.93,5.84,41.84V0C57.81,2,53.58,20.49,53.58,42.61Z"/><circle cx="25.98" cy="89.18" r="25.98"/><circle class="cls-1" cx="26.29" cy="89.18" r="24.67"/><path d="M40.29,81l3.88-1.87.12.24-3.88,1.87Z"/><path d="M40.66,81.74l3.88-1.87.12.25L40.78,82Z"/><path d="M42,88.38h4.31v.27H42Z"/><path d="M42,89.24h4.31v.27H42Z"/><path d="M42,90.1h4.31v.27H42Z"/><path d="M23.84,73l1-2.26-.86-2h.31l.68,1.69.68-1.69h.32l-.86,2L26,73h-.3l-.78-1.92L24.15,73Z"/><path d="M26.29,73V68.72h.27V73Z"/><path d="M27.14,73V68.72h.27V73Z"/><path d="M34.36,75.14l2.24-3.68.23.14-2.24,3.68Z"/><path d="M41.4,95.66l3.3,2.77-.17.21-3.3-2.77Z"/><path d="M44.33,98.87l-.18.22L40.69,97.2l2.46,3.08-.18.22L40.24,97l.22-.27Z"/><path d="M36.88,106.84l-.26.12-2.32-3.18.92,3.83-.26.12-1-4.28.32-.15Z"/><path d="M27.81,109.53h-.29l-.77-3.86L26,109.53h-.29l.89-4.31h.35Z"/><path d="M25.35,105.22v4.31h-.27v-4.31Z"/><path d="M18.13,107.84l-.25-.14L19.14,104l-2.6,3-.25-.14,2.92-3.29.3.17Z"/><path d="M18.15,102.88,16,106.61l-.23-.13,2.15-3.73Z"/><path d="M17.41,102.45l-2.15,3.73-.23-.14,2.15-3.73Z"/><path d="M9.53,101l-.13-.25,3.08-2.46L8.69,99.41l-.13-.25L12.79,98l.16.31Z"/><path d="M12.23,96.88l-3.83,2-.12-.24,3.83-2Z"/><path d="M11.84,96.12,8,98.09l-.12-.24,3.83-2Z"/><path d="M11.45,95.36l-3.83,2-.12-.24,3.83-2Z"/><path d="M10.49,90.67H6.18V90.4h4.31Z"/><path d="M10.49,90.13l-2.26-1-2,.86v-.31L7.87,89l-1.69-.68V88l2,.86L10.49,88v.3L8.57,89l1.92.79Z"/><path d="M17.86,75.74l-.3-2.43L15.8,72l.27-.15,1.44,1.12-.25-1.8.27-.16.27,2.2,2,1.5-.26.15-1.63-1.28.28,2.06Z"/><path d="M20,74.52l-2.15-3.73.23-.13,2.15,3.73Z"/><path d="M11.42,82.76,10.2,80.63l-2.15-.56.19-.25,1.76.48-.93-1.57.19-.25,1.1,1.92,2.38.62-.18.24-2-.55,1.05,1.79Z"/><path d="M1.59,89.23A24.73,24.73,0,0,1,26.32,64.5h0A24.73,24.73,0,0,1,51,89.23h0A24.73,24.73,0,0,1,26.32,114h0A24.73,24.73,0,0,1,1.59,89.23ZM9,71.93a24.39,24.39,0,0,0-7.17,17.3h0A24.39,24.39,0,0,0,9,106.53H9a24.39,24.39,0,0,0,17.3,7.17h0a24.38,24.38,0,0,0,17.3-7.17h0a24.39,24.39,0,0,0,7.17-17.3h0a24.39,24.39,0,0,0-7.17-17.3h0a24.39,24.39,0,0,0-17.3-7.17h0A24.39,24.39,0,0,0,9,71.93Z"/><path d="M4.12,89.24A22.2,22.2,0,0,1,26.32,67h0a22.2,22.2,0,0,1,22.2,22.2h0a22.2,22.2,0,0,1-22.2,22.2h0a22.2,22.2,0,0,1-22.2-22.2Zm6.7-15.5a21.85,21.85,0,0,0-6.42,15.5h0a21.85,21.85,0,0,0,6.42,15.5h0a21.85,21.85,0,0,0,15.5,6.42h0a21.85,21.85,0,0,0,15.5-6.42h0a21.85,21.85,0,0,0,6.42-15.5h0a21.85,21.85,0,0,0-6.42-15.5h0a21.85,21.85,0,0,0-15.5-6.42h0a21.85,21.85,0,0,0-15.5,6.42Z"/><path d="M26.43,68.47v-3.9h-.19v3.91Z"/><path d="M26.25,109.82v4h.19v-4Z"/><path d="M44.7,79.5,48,77.72l-.09-.16-3.33,1.78Z"/><path d="M8.13,98.86l-3.61,1.93.09.16L8.19,99Z"/><path d="M36.81,71.38l1.89-3.29L38.54,68l-1.88,3.26Z"/><path d="M16.06,107,14,110.67l.16.09,2.09-3.62Z"/><path d="M16.47,71l-1.83-3.42-.17.09,1.84,3.44Z"/><path d="M35.76,107.45l1.95,3.64.16-.09-1.93-3.62Z"/><path d="M8.48,78.91,5,76.91l-.09.16,3.48,2Z"/><path d="M44.19,99.46l-.1.16,3.5,2,.09-.16Z"/><path d="M5.51,89.1H1.66v.19H5.52C5.52,89.22,5.52,89.16,5.51,89.1Z"/><path d="M46.89,89.1l0,.19h4V89.1Z"/><path d="M24.29,97.19l.07-.09,0,0,.06-.1a.15.15,0,0,0,0-.08.22.22,0,0,0,0-.07.24.24,0,0,1,0-.09v0a.35.35,0,0,1,0-.11v-.07a.32.32,0,0,1,0-.09l.05-.08,0-.06s0,0,0,0v.1a.2.2,0,0,0,0,.1l.05.07.07.09,0,0a0,0,0,0,0,.07,0h0a.27.27,0,0,1,.08-.08l.08,0,.06,0a.17.17,0,0,0,0-.09v-.06a0,0,0,0,1,.05,0l.05,0a.19.19,0,0,1,.07.08l0,.07a.69.69,0,0,1,0,.11v0a.08.08,0,0,0,0,.07.07.07,0,0,0,.06,0,.28.28,0,0,0,0-.08s0,0,.05,0h0l.07.08.06.11v0s0,0,0,0,0,0,0,0l0,.06,0,.1,0,.06a.22.22,0,0,0,.06.09l0,0,.08,0,.08,0a.51.51,0,0,1,.1.08,0,0,0,0,0,0,0,0,0,0,0,1,.07,0l0,0,.06.09,0,0a.17.17,0,0,1,0,.1v.07a.13.13,0,0,0,0,.1h0l.09.06.12,0,.11,0h.06l.11,0,.09,0,.11,0,.12,0h.29l.11,0,.1,0,.1,0,.13.07L28,98l.11.07.09.07.13.13.07.09.08.14.05.1.06.13,0,.1a.21.21,0,0,0,.06.08l.06,0,.08.08.06.07.06.09,0,0,.07.08.11.09a.33.33,0,0,1,.07.09l.15.32a.27.27,0,0,0,.07.09l.15.12a.08.08,0,0,1,0,.07.71.71,0,0,0,0,.1v0s0,0,0,0v-.06a.2.2,0,0,0-.05-.09l-.21-.19s0,0,0,0l.27.41s0,0,0,0l-.36-.36s0,0,0,0V100a.18.18,0,0,0,.05.09l.14.12s0,0,0,0l-.14-.05s0,0,0,0l.06.11.06.09.08.1s0,0,0,0l-.08-.05-.07-.08L29,100s0,0,0,0l.2.44.05.1,0,.06s0,0,0,0l-.08-.06a.3.3,0,0,1-.07-.09s-.19-.41-.19-.43-.13-.55-.13-.55,0,0,0,0l0,.47a.51.51,0,0,0,0,.11l.18.46a1.26,1.26,0,0,0,.11.17s0,0,0,0h0a.23.23,0,0,1-.08-.07l-.15-.21-.05-.1a2.77,2.77,0,0,1-.09-.29s-.07-.74-.07-.74,0,0,0,0v.17s0,.08,0,.11v.06a.37.37,0,0,1,0,.11l0,.1-.05.1,0,0-.07.08,0,0-.09.07-.05,0-.09.07-.07.07-.08.08-.07.09-.06.09,0,.09-.06.1,0,0-.07.09-.1.11-.08.08-.12.1-.08.07a.23.23,0,0,0,0,.09v0l0,.1,0,.07a.23.23,0,0,1-.07.08h0l-.1.06-.09.06-.1.06-.14.07-.09.06-.26.19a.29.29,0,0,0-.07.08h0l-.06.09,0,0a.22.22,0,0,1-.09.06h0l-.09.05,0,.07a.39.39,0,0,0,0,.09v0a.38.38,0,0,1,0,.11l0,.06a.27.27,0,0,1-.07.09h0l-.1,0h-.22a.14.14,0,0,1-.08-.07h0a.15.15,0,0,1,0-.1.29.29,0,0,1,.05-.09l.1-.11a.25.25,0,0,0,.05-.09.07.07,0,0,1,.06,0,.13.13,0,0,0,.08-.05v0l.08-.08.06,0a.25.25,0,0,0,.07-.08h0a.16.16,0,0,1,.07-.07l.06,0,.1-.05.12-.08.08-.07.15-.17.07-.08.09-.11.06-.09,0-.07a.25.25,0,0,1,.08-.07l0,0,.08-.07,0,0,.06-.09.08-.14.06-.1.15-.25.05-.1,0,0a.64.64,0,0,0,0-.1h0a.23.23,0,0,0,0-.11h0a0,0,0,0,0-.07,0l-.11,0-.1,0-.37.19-.1,0-.1,0-.11,0h-.07a.13.13,0,0,0-.08.06h0l-.06.09,0,0a.2.2,0,0,1-.08.06.18.18,0,0,0-.08.06l0,.05-.07.09-.18.21-.06.09-.09.18-.06.1-.16.22a0,0,0,0,0,0,.07l0,0,.09.07h0a.05.05,0,0,1,0,.08l-.1.08-.09.06-.16.08a.15.15,0,0,0-.07.08.19.19,0,0,1-.05.08.16.16,0,0,1-.09,0h0a.11.11,0,0,0-.08,0l0,.05a.47.47,0,0,0,0,.1h0a.28.28,0,0,1,0,.09l-.07.06,0,0-.08.07-.06.09h0a.41.41,0,0,0,0,.1v0a.27.27,0,0,1,0,.1l0,0a.07.07,0,0,1-.09,0l-.12-.06-.1-.06-.07,0a0,0,0,0,1,0-.07l.11-.11.06,0,.06,0h0l.09-.07.08-.07a.32.32,0,0,0,.06-.09h0l.06-.09h0l.08-.08.11-.09a.16.16,0,0,0,0-.07.08.08,0,0,0,0-.07h0a.19.19,0,0,1-.07-.07.23.23,0,0,1,0-.09.24.24,0,0,1,0-.09l.05-.1h0l.07-.08.07-.05.08-.08.16-.19.07-.09.13-.2.06-.1.08-.14a.1.1,0,0,0,0-.07.11.11,0,0,0-.07,0h0l-.11,0-.11,0-.09-.06,0,0-.08-.07,0,0-.1,0h0l-.11,0-.07,0-.11,0h-.1l-.11,0-.06,0-.11,0-.16,0h-.21l-.05,0,0,0-.07.09,0,.06-.06.08-.07.08,0,0-.08.08,0,0a.39.39,0,0,0-.06.1l0,.09,0,.11v0a.59.59,0,0,0,0,.11v.13a.27.27,0,0,1,0,.1l0,.06a.12.12,0,0,0,0,.07.29.29,0,0,0,0,.09l0,.08a.26.26,0,0,1,0,.09v.15a.16.16,0,0,1,0,.1l0,0-.08.06-.1,0h-.06l-.1,0h0a.2.2,0,0,1-.07-.08.29.29,0,0,1,0-.1v-.12a.14.14,0,0,1,0-.08l.05-.07.05-.08a.12.12,0,0,0,0-.07.4.4,0,0,0,0-.08.22.22,0,0,1,0-.08.13.13,0,0,1,0-.07l.06-.08.06-.12,0-.1,0-.11,0-.11,0-.12a.68.68,0,0,0,0-.11l0-.15,0-.11v0a.32.32,0,0,1,0-.08l.06-.06.08,0,.09,0,.08,0,.1-.05.07-.05.09-.07.15-.14.08-.07.14-.11.08-.08,0,0a.19.19,0,0,0,0-.1v-.09s0-.08,0-.11l0-.14a.69.69,0,0,1,0-.11v0l0-.1.05-.1.06-.09.05-.07.08-.08,0,0a.16.16,0,0,0,0-.09l0-.21s0,0,0,0l0,0-.08.08a.37.37,0,0,0,0,.1h0a.48.48,0,0,1,0,.1h0l-.06.08-.08,0h-.1l-.1,0a.21.21,0,0,1-.09-.06l0,0a.18.18,0,0,1,0-.1v-.05a1,1,0,0,0,0-.1.76.76,0,0,1,0-.1h0a.26.26,0,0,1,0-.1h0a.43.43,0,0,0,0-.1l0-.21s0-.08,0-.11l0-.25s0-.08,0-.11v0a.2.2,0,0,0,0-.09.17.17,0,0,1,0-.09.33.33,0,0,1,0-.1l.06-.09Z"/><path d="M24,89.19a1.92,1.92,0,0,1,1.92-1.92h0a1.92,1.92,0,0,1,1.92,1.92h0a1.92,1.92,0,0,1-1.92,1.92h0A1.92,1.92,0,0,1,24,89.19Zm.58-1.34A1.89,1.89,0,0,0,24,89.19h0a1.89,1.89,0,0,0,.55,1.34h0a1.89,1.89,0,0,0,1.34.55h0a1.89,1.89,0,0,0,1.34-.55h0a1.89,1.89,0,0,0,.56-1.34h0a1.89,1.89,0,0,0-.56-1.34h0a1.89,1.89,0,0,0-1.34-.56h0a1.89,1.89,0,0,0-1.34.56Z"/><path d="M33.41,94.75a1.92,1.92,0,0,1,1.92-1.92h0a1.92,1.92,0,0,1,1.92,1.92h0a1.92,1.92,0,0,1-1.92,1.92h0a1.92,1.92,0,0,1-1.92-1.92ZM34,93.41a1.89,1.89,0,0,0-.55,1.34h0A1.89,1.89,0,0,0,34,96.09h0a1.89,1.89,0,0,0,1.34.55h0a1.89,1.89,0,0,0,1.34-.55h0a1.89,1.89,0,0,0,.56-1.34h0a1.89,1.89,0,0,0-.56-1.34h0a1.89,1.89,0,0,0-1.34-.56h0a1.89,1.89,0,0,0-1.34.56Z"/><path d="M17.6,94.68a1.92,1.92,0,0,1,1.92-1.92h0a1.92,1.92,0,0,1,1.92,1.92h0a1.92,1.92,0,0,1-1.92,1.92h0a1.92,1.92,0,0,1-1.92-1.92Zm.58-1.34a1.89,1.89,0,0,0-.56,1.34h0A1.89,1.89,0,0,0,18.18,96h0a1.89,1.89,0,0,0,1.34.55h0A1.89,1.89,0,0,0,20.86,96h0a1.89,1.89,0,0,0,.55-1.34h0a1.89,1.89,0,0,0-.55-1.34h0a1.89,1.89,0,0,0-1.34-.56h0a1.89,1.89,0,0,0-1.34.56Z"/><path class="cls-2" d="M23.69,79.53a.35.35,0,0,1,.4.29l3.43,15.36a.35.35,0,0,1-.24.43h0a.35.35,0,0,1-.4-.29L23.45,80a.35.35,0,0,1,.24-.43Z"/><path d="M24.16,76.72l-2.53-6.49.47,7a3.9,3.9,0,0,0,.08,1.26c.28,1.26,1.06,2.16,1.74,2s1-1.3.72-2.56A3.89,3.89,0,0,0,24.16,76.72Z"/><path d="M27.75,95.36l-.9-1.65-.12,1.88a.61.61,0,0,0,0,.34.62.62,0,0,0,1.22-.27A.6.6,0,0,0,27.75,95.36Z"/><path class="cls-2" d="M29.17,82.74a.29.29,0,0,1,.19.37l-4.59,9.48a.3.3,0,0,1-.4.08h0a.3.3,0,0,1-.19-.37l4.59-9.48a.3.3,0,0,1,.4-.08Z"/><path d="M31.28,80.83l2-6.66-4,5.76a3.91,3.91,0,0,0-.72,1c-.56,1.17-.51,2.35.11,2.66s1.59-.4,2.15-1.56A3.9,3.9,0,0,0,31.28,80.83Z"/><path d="M24.84,92.86,25.15,91l-1.26,1.4a.61.61,0,0,0-.23.25.62.62,0,1,0,1.18.2Z"/><circle cx="16.94" cy="68.45" r="0.37"/><circle cx="19.1" cy="67.61" r="0.37"/><circle cx="21.39" cy="67.01" r="0.37"/><circle cx="24.19" cy="66.57" r="0.37"/><circle cx="28.44" cy="66.58" r="0.38" transform="translate(-43.56 58.97) rotate(-60.83)"/><circle cx="30.74" cy="66.91" r="0.38" transform="translate(-42.67 61.14) rotate(-60.83)"/><circle cx="33.03" cy="67.5" r="0.37" transform="translate(-42.01 63.48) rotate(-60.86)"/><circle cx="35.68" cy="68.48" r="0.38" transform="translate(-41.5 66.31) rotate(-60.87)"/><circle cx="39.91" cy="71.02" r="0.38" transform="translate(-29.8 28.86) rotate(-29.5)"/><circle cx="41.7" cy="72.49" r="0.37" transform="translate(-30.32 29.97) rotate(-29.53)"/><circle cx="43.35" cy="74.19" r="0.37" transform="translate(-31.01 31.14) rotate(-29.63)"/><circle cx="45.11" cy="76.4" r="0.38" transform="translate(-31.83 32.21) rotate(-29.57)"/><circle cx="47.5" cy="80.37" r="0.37" transform="translate(-33.78 126.29) rotate(-88.88)"/><circle cx="48.29" cy="82.55" r="0.38" transform="translate(-35.19 129.22) rotate(-88.88)"/><circle cx="48.85" cy="84.85" r="0.38" transform="translate(-36.95 132.03) rotate(-88.88)"/><circle cx="49.23" cy="87.66" r="0.37" transform="translate(-39.37 135.16) rotate(-88.88)"/><circle cx="5.49" cy="79.86" r="0.37" transform="translate(-74.48 83.47) rotate(-88.65)"/><circle cx="4.6" cy="82" r="0.38" transform="translate(-77.49 84.68) rotate(-88.66)"/><circle cx="3.94" cy="84.28" r="0.38" transform="translate(-80.41 86.14) rotate(-88.59)"/><circle cx="3.44" cy="87.06" r="0.37" transform="matrix(0.02, -1, 1, 0.02, -83.68, 88.34)"/><circle cx="3.35" cy="91.3" r="0.38" transform="translate(-43.3 12.74) rotate(-28.6)"/><circle cx="3.66" cy="93.6" r="0.37" transform="translate(-44.31 13.14) rotate(-28.56)"/><circle cx="4.22" cy="95.9" r="0.37" transform="translate(-45.24 13.63) rotate(-28.5)"/><circle cx="5.17" cy="98.57" r="0.38" transform="translate(-46.5 14.47) rotate(-28.56)"/><circle cx="7.45" cy="102.34" r="0.37" transform="translate(-84.53 56.85) rotate(-59.52)"/><circle cx="8.89" cy="104.16" r="0.38" transform="translate(-85.39 59.01) rotate(-59.53)"/><circle cx="10.56" cy="105.84" r="0.37" transform="translate(-85.97 61.18) rotate(-59.47)"/><circle cx="12.75" cy="107.63" r="0.38" transform="matrix(0.51, -0.86, 0.86, 0.51, -86.4, 63.86)"/><circle cx="16.66" cy="109.96" r="0.38" transform="translate(-93.63 124.32) rotate(-88.81)"/><circle cx="18.81" cy="110.84" r="0.37" transform="matrix(0.02, -1, 1, 0.02, -92.37, 127.47)"/><circle cx="21.09" cy="111.49" r="0.37" transform="translate(-90.81 130.26) rotate(-88.81)"/><circle cx="23.87" cy="111.98" r="0.38" transform="translate(-88.61 133.36) rotate(-88.73)"/><circle cx="28.09" cy="111.96" r="0.37" transform="translate(-49.43 26.44) rotate(-28.11)"/><circle cx="30.39" cy="111.67" r="0.38" transform="translate(-49.11 27.57) rotate(-28.17)"/><circle cx="32.7" cy="111.11" r="0.38" transform="translate(-48.67 28.69) rotate(-28.23)"/><circle cx="35.37" cy="110.18" r="0.37" transform="translate(-47.73 29.64) rotate(-28.1)"/><circle cx="39.18" cy="108.03" r="0.37" transform="matrix(0.54, -0.84, 0.84, 0.54, -72.9, 82.64)"/><circle cx="41.05" cy="106.65" r="0.38" transform="translate(-70.86 83.49) rotate(-57.26)"/><circle cx="42.79" cy="105.05" r="0.38" transform="translate(-68.77 84.55) rotate(-57.42)"/><circle cx="44.67" cy="102.94" r="0.37" transform="translate(-66.05 84.67) rotate(-57.18)"/><circle cx="47.2" cy="98.54" r="0.37" transform="translate(-51.47 145.48) rotate(-89.85)"/><circle cx="48.03" cy="96.38" r="0.38" transform="translate(-48.41 144.28) rotate(-89.92)"/><circle cx="48.64" cy="94.09" r="0.37"/><circle cx="49.08" cy="91.3" r="0.37" transform="translate(-42.34 140.15) rotate(-89.86)"/><circle cx="13.11" cy="70.61" r="0.37" transform="translate(-53.88 44.72) rotate(-58.35)"/><circle cx="11.26" cy="72.02" r="0.38" transform="translate(-55.97 43.85) rotate(-58.38)"/><circle cx="9.54" cy="73.65" r="0.38" transform="translate(-58.22 43.26) rotate(-58.46)"/><circle cx="7.71" cy="75.8" r="0.37" transform="translate(-60.85 42.55) rotate(-58.32)"/></g></g></svg>