<svg xmlns="http://www.w3.org/2000/svg" viewBox="0 0 42.25 56.75"><defs><style>.cls-1{fill:#fff;}</style></defs><title>Ресурс 10clock</title><g id="Слой_2" data-name="Слой 2"><g id="Layer_1" data-name="Layer 1"><circle cx="21.13" cy="35.62" r="21.13"/><circle class="cls-1" cx="21.06" cy="35.75" r="18.67"/><path d="M3.07,35.77a18,18,0,0,1,18-18h0a18,18,0,0,1,18,18h0a18,18,0,0,1-18,18h0a18,18,0,0,1-18-18ZM8.47,23.2A17.73,17.73,0,0,0,3.26,35.77h0A17.73,17.73,0,0,0,8.47,48.35h0A17.73,17.73,0,0,0,21,53.55h0a17.72,17.72,0,0,0,12.57-5.21h0a17.73,17.73,0,0,0,5.21-12.57h0A17.73,17.73,0,0,0,33.62,23.2h0A17.73,17.73,0,0,0,21,18h0A17.73,17.73,0,0,0,8.47,23.2Z"/><circle cx="21.06" cy="35.75" r="1.8"/><path d="M3.19,35.78a17.9,17.9,0,0,1,17.9-17.9h0A17.9,17.9,0,0,1,39,35.78h0a17.9,17.9,0,0,1-17.9,17.9h0a17.9,17.9,0,0,1-17.9-17.9ZM8.57,23.26A17.66,17.66,0,0,0,3.38,35.78h0A17.65,17.65,0,0,0,8.57,48.3h0a17.65,17.65,0,0,0,12.52,5.19h0A17.65,17.65,0,0,0,33.61,48.3h0a17.65,17.65,0,0,0,5.19-12.52h0a17.66,17.66,0,0,0-5.19-12.52h0a17.65,17.65,0,0,0-12.52-5.19h0A17.65,17.65,0,0,0,8.57,23.26Z"/><path d="M4.64,35.77A16.41,16.41,0,0,1,21.05,19.36h0A16.41,16.41,0,0,1,37.47,35.77h0A16.41,16.41,0,0,1,21.05,52.19h0A16.41,16.41,0,0,1,4.64,35.77Zm5-11.46A16.16,16.16,0,0,0,4.84,35.77h0A16.16,16.16,0,0,0,9.59,47.24h0A16.16,16.16,0,0,0,21.05,52h0a16.16,16.16,0,0,0,11.46-4.75h0a16.16,16.16,0,0,0,4.75-11.46h0a16.16,16.16,0,0,0-4.75-11.46h0a16.16,16.16,0,0,0-11.46-4.75h0A16.15,16.15,0,0,0,9.59,24.31Z"/><path d="M27.79,20.9l.66-1.4-.07,0-.66,1.4Z"/><path d="M14.54,50.68l-.67,1.4.07,0,.66-1.39Z"/><path d="M26.2,20.34l.5-1.5-.08,0-.51,1.5Z"/><path d="M16.14,51.28l-.47,1.47.07,0,.47-1.46Z"/><path d="M24.66,19.92,25,18.41l-.08,0-.35,1.51Z"/><path d="M17.69,51.74l-.36,1.49h.08l.36-1.5Z"/><path d="M22.9,19.56l.16-1.5H23l-.16,1.49Z"/><path d="M19.39,52l-.18,1.56h.08L19.48,52Z"/><path d="M6.2,29.25l-1.48-.7,0,.07,1.47.7Z"/><path d="M35.91,42.39l0,.07,1.42.69,0-.07Z"/><path d="M5.59,30.85l-1.53-.5,0,.07,1.52.5Z"/><path d="M36.53,40.59s0,.07,0,.1l1.51.48,0-.08Z"/><path d="M5.14,32.41,3.67,32l0,.08,1.47.37Z"/><path d="M37,39.06l0,.08,1.6.37,0-.08Z"/><path d="M4.88,34.11l-1.51-.18V34l1.52.18S4.88,34.13,4.88,34.11Z"/><path d="M37.22,37.31s0,0,0,.06v0l1.66.22v-.1Z"/><path d="M37.24,34.18,38.9,34V34l-1.67.15Z"/><path d="M4.88,37.43l-1.62.17v.09l1.62-.17Z"/><path d="M37,32.5l1.59-.33,0-.07L37,32.42S37,32.47,37,32.5Z"/><path d="M5.09,39l-1.43.31v.07l1.43-.31Z"/><path d="M36.61,31l1.57-.5,0-.07-1.57.5Z"/><path d="M5.47,40.57,4.05,41l0,.07,1.43-.46Z"/><path d="M6.05,42.19l-1.38.63,0,.07,1.39-.63Z"/><path d="M36.13,29.57l1.52-.65,0-.07-1.51.64Z"/><path d="M34.52,26.69l1.39-.93,0-.07-1.39.93Z"/><path d="M7.73,45.12,6.49,46l0,.06,1.25-.83Z"/><path d="M33.35,25.18l1.27-1.11L34.57,24l-1.26,1.1Z"/><path d="M32.19,23.93l1-1.2-.05-.05-1,1.19Z"/><path d="M8.86,46.51l0,0-1.19,1,0,.05,1.19-1Z"/><path d="M9.93,47.75l-1,1.1.05,0,1-1.09Z"/><path d="M30.76,22.68l1-1.2-.06,0-1,1.21Z"/><path d="M11.27,48.76l-.9,1.18.06,0,.9-1.18Z"/><path d="M19.55,19.57,19.37,18h-.09l.18,1.58Z"/><path d="M22.77,51.95l.13,1.57H23l-.13-1.57Z"/><path d="M24.22,51.72l.32,1.56h.07l-.32-1.56Z"/><path d="M17.83,19.83l-.3-1.51h-.07l.3,1.51Z"/><path d="M16.19,20.3l-.47-1.5-.08,0,.48,1.51Z"/><path d="M25.75,51.34l.48,1.57.07,0-.49-1.57Z"/><path d="M14.69,20.84l-.63-1.4-.07,0,.63,1.4Z"/><path d="M27.35,50.76,28,52.27l.07,0-.68-1.51Z"/><path d="M11.65,22.42l-.88-1.25-.06,0,.88,1.25Z"/><path d="M30.27,49.21l.93,1.34.06,0-.93-1.34Z"/><path d="M10.43,23.51,9.33,22.27l-.06.05,1.09,1.23Z"/><path d="M31.61,48.09l-.07,0,1.14,1.3.06-.05Z"/><path d="M9.07,24.74,7.93,23.69l-.05.05L9,24.81Z"/><path d="M32.89,46.91l0,.07,1.24,1.1.05-.05Z"/><path d="M7.93,26.14l-1.18-.93,0,.06,1.19.93Z"/><path d="M34.06,45.56l0,.06,1.32,1,0-.06Z"/><circle class="cls-1" cx="21.06" cy="35.75" r="0.98"/><path d="M20.15,21.94v-.65c0-.12,0-.18,0-.18s-.24.19-.3.24l0,0s0,0,0-.05a.11.11,0,0,1,0-.07s.51-.64.6-.76,0-.06.07-.06,0,.06,0,.1,0,.53,0,1.29v.92c0,.48,0,.9,0,1.12s0,.23.1.27l.17,0s0,0,0,0,0,0,0,0h-.88s0,0,0,0,0,0,0,0a.85.85,0,0,0,.21,0c.08,0,.1-.1.1-.26s0-.64,0-1.12Z"/><path d="M21.18,24.23s0,0,0-.07a.3.3,0,0,1,.05-.13,4.61,4.61,0,0,0,.88-2.43c0-.79-.23-.94-.36-.94a.29.29,0,0,0-.27.18,1.24,1.24,0,0,0-.11.48s0,.09,0,.09,0,0,0-.09,0-.46,0-.6a.13.13,0,0,1,0-.1.63.63,0,0,1,.47-.19c.46,0,.65.48.65,1.06a4.37,4.37,0,0,1-.89,2.31s0,0,0,0h.18a3.18,3.18,0,0,0,.45,0c.18,0,.26-.21.3-.44,0-.06,0-.08,0-.08s0,0,0,.09,0,.54-.08.71-.06.15-.23.15Z"/><path d="M35.2,37.75a.17.17,0,0,1,0-.14c0-.23,0-.51,0-.62s0-.09,0-.09,0,0,0,.07c0,.32.13.66.39.66s.47-.26.47-.85-.31-.9-.44-.94-.08,0-.08-.08a.07.07,0,0,1,0-.07c.12,0,.4-.27.4-.85,0-.21-.08-.61-.34-.61s-.36.23-.36.53c0,.06,0,.07,0,.07s0,0,0-.07,0-.38,0-.5a.1.1,0,0,1,0-.09.71.71,0,0,1,.46-.18c.5,0,.59.5.59.73a1.19,1.19,0,0,1-.38.89h0a1,1,0,0,1,.46,1c0,.69-.31,1.28-.82,1.28A.57.57,0,0,1,35.2,37.75Z"/><path d="M32.94,43.52s-.06,0-.06-.08a.32.32,0,0,1,0-.13l1-2.54s0-.09.07-.09,0,0,0,.09,0,.42,0,.74v1.61h.2c.07,0,.1,0,.12,0s0,0,0,.06a2.28,2.28,0,0,1,0,.31s0,.07-.07.07H34c0,.16,0,.38,0,.6s0,.24.11.28l.12,0s0,0,0,0,0,0,0,0h-.72s0,0,0,0,0,0,0,0h.12c.1,0,.12-.13.12-.28s0-.44,0-.6Zm.8-1.92h0c-.06.16-.49,1.31-.58,1.53h.59Z"/><path d="M27.9,49.55s0-.09,0-.19,0-.46,0-.63,0-.09,0-.09,0,0,0,.09c0,.53.17.66.35.66s.43-.26.43-.91A1.14,1.14,0,0,0,28,47.3s0,0,0-.1L28,45.89c0-.05,0-.06,0-.06h.64a.42.42,0,0,0,.14,0l.05,0s0,0,0,.1,0,.32,0,.64c0,0,0,.06,0,.06s0,0,0-.07,0-.27-.23-.27h-.47l0,.61A1.33,1.33,0,0,1,29,48.24c0,.66-.25,1.4-.85,1.4A.39.39,0,0,1,27.9,49.55Z"/><path d="M14.46,45.73s.06,0,.06,0a.32.32,0,0,1,0,.09A19.34,19.34,0,0,0,13.84,49c0,.08,0,.12,0,.18a.46.46,0,0,1-.33.3s0,0,0-.06a1.24,1.24,0,0,1,0-.2,28,28,0,0,1,.76-3.09h-.67a.3.3,0,0,0-.24.09.71.71,0,0,0-.08.3s0,.07,0,.07,0,0,0-.08,0-.76,0-.81,0-.07,0-.07a.82.82,0,0,0,.35,0Z"/><path d="M7.44,43.33a1.36,1.36,0,0,1,.48-1.11,1.2,1.2,0,0,1-.38-.91c0-.39.17-.9.62-.9s.53.28.53.76a1.13,1.13,0,0,1-.38.92,1.46,1.46,0,0,1,.47,1.11c0,.59-.25,1.1-.69,1.1S7.44,43.94,7.44,43.33Zm.67.74c.2,0,.37-.29.37-.75a1.31,1.31,0,0,0-.44-1,1.4,1.4,0,0,0-.31,1C7.74,43.74,7.9,44.07,8.11,44.07Zm0-3.45c-.23,0-.32.31-.32.59a1,1,0,0,0,.35.76.93.93,0,0,0,.25-.76C8.42,40.84,8.29,40.62,8.13,40.62Z"/><path d="M7.06,35.49A3.51,3.51,0,0,1,6.1,38a.05.05,0,0,1,0,0s0,0,0,0a.16.16,0,0,1,0-.08,3.71,3.71,0,0,0,.68-2.3c0-.88-.2-1.27-.39-1.27s-.31.32-.31.74c0,.76.26.94.34.94A.25.25,0,0,0,6.56,36s0-.05.05-.05,0,0,0,0a.15.15,0,0,1,0,.05.38.38,0,0,1-.34.23c-.37,0-.53-.54-.53-1,0-.67.26-1.16.66-1.16S7.06,34.74,7.06,35.49Z"/><path d="M8,28.81v-.65C8,28,8,28,8,28s-.24.19-.3.24l0,0s0,0,0-.05a.11.11,0,0,1,0-.07s.51-.64.6-.76,0-.06.07-.06,0,.06,0,.1,0,.53,0,1.29v.92c0,.48,0,.9,0,1.12s0,.23.1.27l.17,0s0,0,0,0,0,0,0,0H7.7s0,0,0,0,0,0,0,0a.85.85,0,0,0,.21,0c.08,0,.1-.1.1-.26s0-.64,0-1.12Z"/><path d="M9.65,31.18C9.14,31.18,9,30,9,29.34c0-1.16.21-2.06.69-2.06s.65,1,.65,1.83C10.34,30.35,10.09,31.18,9.65,31.18Zm0-3.67c-.2,0-.33.51-.33,1.65,0,.86.11,1.8.4,1.8s.34-.68.34-1.64S9.92,27.51,9.63,27.51Z"/><path d="M13.12,23.55V22.9c0-.12,0-.18,0-.18s-.24.19-.3.24l0,0s0,0,0-.05a.11.11,0,0,1,0-.07s.51-.64.6-.76,0-.06.07-.06,0,.06,0,.1,0,.53,0,1.29v.92c0,.48,0,.9,0,1.12s0,.23.1.27l.17,0s0,0,0,0,0,0,0,0h-.88s0,0,0,0,0,0,0,0a.85.85,0,0,0,.21,0c.08,0,.1-.1.1-.26s0-.64,0-1.12Z"/><path d="M14.68,23.55V22.9c0-.12,0-.18,0-.18s-.24.19-.3.24l0,0s0,0,0-.05a.11.11,0,0,1,0-.07s.51-.64.6-.76S15,22,15,22s0,.06,0,.1,0,.53,0,1.29v.92c0,.48,0,.9,0,1.12s0,.23.1.27l.17,0s0,0,0,0,0,0,0,0h-.88s0,0,0,0,0,0,0,0a.87.87,0,0,0,.21,0c.08,0,.1-.1.1-.26s0-.64,0-1.12Z"/><path d="M28.39,23.77v-.65c0-.12,0-.18,0-.18s-.24.19-.3.24l0,0s0,0,0-.05a.11.11,0,0,1,0-.07s.51-.64.6-.76,0-.06.07-.06,0,.06,0,.1,0,.53,0,1.29v.92c0,.48,0,.9,0,1.12s0,.23.1.27L29,26s0,0,0,0,0,0,0,0h-.88s0,0,0,0,0,0,0,0a.87.87,0,0,0,.21,0c.08,0,.1-.1.1-.26s0-.64,0-1.12Z"/><path d="M33.22,31.26s0,0,0-.07a.29.29,0,0,1,.05-.13,4.62,4.62,0,0,0,.88-2.43c0-.79-.23-.94-.36-.94a.29.29,0,0,0-.27.18,1.27,1.27,0,0,0-.11.48s0,.09,0,.09,0,0,0-.09,0-.46,0-.6a.13.13,0,0,1,0-.1.63.63,0,0,1,.47-.19c.46,0,.65.48.65,1.06a4.37,4.37,0,0,1-.89,2.31s0,0,0,0h.18a3.19,3.19,0,0,0,.45,0c.18,0,.27-.21.3-.44,0-.06,0-.08,0-.08s0,0,0,.09,0,.54-.07.71-.06.15-.23.15Z"/><path d="M29.48,20.8l.08-.12s0,0,0,0l-.12,0h0s0,0,0,0h0l.28,0h0s0,0,0,0l-.16.23-.11.17-.13.21s0,0,0,.07l.05,0a0,0,0,0,1,0,0h0l-.14-.09-.14-.09s0,0,0,0h0l.07,0s0,0,.06,0l.14-.2Z"/><path d="M29.56,21.43a0,0,0,0,1,0,0l.08-.11h0s0,0,0,0a.14.14,0,0,0,0,.2.17.17,0,0,0,.25-.06.21.21,0,0,0,0-.26s0,0,0,0h0a.19.19,0,0,0,.23-.07.13.13,0,0,0,0-.18.12.12,0,0,0-.18,0h0s0,0,0,0L30,20.8h0a.38.38,0,0,1,.17.06c.16.1.13.21.1.25a.24.24,0,0,1-.23.08h0a.22.22,0,0,1,0,.27.28.28,0,0,1-.41.06A.34.34,0,0,1,29.56,21.43Z"/><path d="M36,27.44l.12-.07s0,0,0,0l-.1-.08h0l.25.12,0,0s0,0,0,0l-.25.13-.18.09-.21.12s0,0,0,.06l0,.06s0,0,0,0h0l-.08-.14-.08-.15s0,0,0,0h0l0,.07s0,0,.07,0l.21-.11Z"/><path d="M36,27.9s0,0,0,0h0l.66.07h0s0,0,0,0l-.14.08-.31.17,0,.07,0,0s0,0,0,0l-.07,0,0,0,0-.08-.11.06s0,0,0,.07l0,0a0,0,0,0,1,0,0h0l-.06-.12-.07-.12s0,0,0,0h0l0,0s0,0,.08,0l.12-.06Zm.51.06h0l-.4,0,.11.19Z"/><path d="M38.19,35.39h.14s0,0,0,0a.76.76,0,0,0-.05-.11h0l.17.23v0h-.74s0,0-.06,0a.47.47,0,0,0,0,.07h0s0,0,0,0,0-.14,0-.16,0-.1,0-.17,0,0,0,0h0a.49.49,0,0,0,0,.08s0,0,.06,0h.41Z"/><path d="M37.7,35.82s0,0,0,0h.14c-.12,0-.14.06-.14.13s.06.16.2.16a.28.28,0,0,0,.25-.25,0,0,0,0,1,0,0l.28,0s0,0,0,0v.24a.28.28,0,0,0,0,.05.1.1,0,0,0,0,0h-.16s.06,0,.06-.09v-.18h-.13c0,.15-.11.32-.3.32a.3.3,0,0,1-.3-.32A.23.23,0,0,1,37.7,35.82Z"/><path d="M35.43,44.89l-.12-.07s0,0,0,0a.77.77,0,0,0,0,.12h0v0s0-.24,0-.28a.06.06,0,0,1,0,0h0l.24.15.17.1.21.12s0,0,.07,0l0-.05h0s0,0,0,0l-.09.14-.08.14h0s0,0,0,0l0-.07s0,0,0-.06l-.2-.13Z"/><path d="M35.8,44.67a.61.61,0,0,1-.26-.58v0h0s0,0,0,0a.59.59,0,0,0,.3.47c.11.07.25.09.3,0s0-.13-.09-.2-.22,0-.26,0a.13.13,0,0,0,0,0v0h0a0,0,0,0,1,0,0,.21.21,0,0,1,.32-.18.26.26,0,0,1,.1.36A.27.27,0,0,1,35.8,44.67Z"/><path d="M29,50.83l-.07-.12s0,0,0,0a.77.77,0,0,0-.07.1h0a0,0,0,0,1,0,0l.11-.26,0,0h0l.13.25.1.17.12.21s0,0,.06,0l.06,0h0s0,0,0,0l-.14.08-.14.08h0s0,0,0,0l.06,0s0,0,0-.07L29.05,51Z"/><path d="M29.57,50.13h0v0a2.73,2.73,0,0,0,.13.72l0,0s0,.1-.07.12h0l0,0a4.13,4.13,0,0,1-.08-.72l-.22.13a.17.17,0,0,0-.07.06.11.11,0,0,0,0,.07s0,0,0,0h0l-.07-.16s0,0,0,0l.12-.06Z"/><path d="M20.78,52.73v-.14s0,0,0,0l-.11.05h0l.23-.17h0s0,0,0,0,0,.12,0,.28v.2c0,.1,0,.19,0,.24s0,0,0,.06h-.2s0,0,0-.06,0-.14,0-.24Z"/><path d="M21.16,53a.27.27,0,0,1,.18-.24.23.23,0,0,1-.14-.2.21.21,0,0,1,.23-.19c.12,0,.2.06.2.17a.23.23,0,0,1-.14.2.29.29,0,0,1,.18.24.24.24,0,0,1-.26.24C21.26,53.25,21.16,53.17,21.16,53Zm.25.16a.15.15,0,0,0,.14-.16c0-.11-.08-.16-.17-.21a.24.24,0,0,0-.11.21A.15.15,0,0,0,21.41,53.2Zm0-.75a.12.12,0,0,0-.12.13c0,.07,0,.11.13.17a.17.17,0,0,0,.1-.16A.11.11,0,0,0,21.42,52.45Z"/><path d="M12.43,50.36l.07-.12s0,0,0,0l-.12,0h0a0,0,0,0,1,0,0h0l.28,0h0s0,0,0,0l-.15.24-.11.17-.12.21s0,0,0,.07l.05,0a0,0,0,0,1,0,0h0l-.14-.09-.14-.08s0,0,0,0h0l.07,0s0,0,.06,0l.13-.2Z"/><path d="M13.18,50.79a.65.65,0,0,1-.6.28h0a.61.61,0,0,0,.48-.29c.1-.16.08-.27,0-.31s-.14,0-.18.07,0,.22,0,.24l.06,0h0a0,0,0,0,1,0,0h0a.17.17,0,0,1-.14,0,.2.2,0,0,1-.06-.28.24.24,0,0,1,.34-.08A.26.26,0,0,1,13.18,50.79Z"/><path d="M5.56,43.91a0,0,0,0,1,0,0h0a.81.81,0,0,0,.62,0c.15-.08.14-.17.11-.22a.13.13,0,0,0-.08-.07.18.18,0,0,0-.11,0h0v0l.11-.07h0a.35.35,0,0,1,.12.13.22.22,0,0,1-.08.33.8.8,0,0,1-.6,0h0l0,.06.09.14a.12.12,0,0,0,.14,0H6s0,0,0,0l-.15.05s0,0-.07-.06Z"/><path d="M6,44.63c-.1-.17.09-.33.22-.41s.43-.15.52,0-.08.33-.22.41S6,44.78,6,44.63Zm.69-.4c0-.06-.16-.05-.37.07s-.32.23-.27.32.19,0,.37-.06S6.69,44.32,6.64,44.23Z"/><path d="M4.41,36.2h0l0,0c-.13-.14-.3-.33-.53-.33s-.2.09-.2.13a.13.13,0,0,0,0,.1.19.19,0,0,0,.1,0H3.62a.34.34,0,0,1,0-.18.22.22,0,0,1,.23-.25c.21,0,.39.21.5.34h0V36s0-.13,0-.17a.12.12,0,0,0-.1-.11h0l.15,0s0,0,0,.09Z"/><path d="M3.91,35.42H3.77s0,0,0,0a.75.75,0,0,0,.05.11h0l-.17-.23v0h.74s0,0,.06,0a.44.44,0,0,0,0-.06h0s0,0,0,0,0,.14,0,.16,0,.1,0,.17,0,0,0,0h0a.49.49,0,0,0,0-.08s0,0-.06,0H3.91Z"/><path d="M6.32,28.09h0s0,0,0,0c-.05-.18-.11-.43-.31-.54s-.22,0-.24,0a.14.14,0,0,0,0,.11.19.19,0,0,0,.07.09s0,0,0,0h0l-.12-.05v0a.34.34,0,0,1,0-.18A.22.22,0,0,1,6,27.41c.19.1.25.37.29.53h0l0-.06.07-.15a.12.12,0,0,0,0-.14s0,0,0,0h0l.12.1s0,0,0,.09Z"/><path d="M6.59,27.58h0s0,0,0,0c-.05-.18-.11-.43-.32-.54S6,27,6,27a.13.13,0,0,0,0,.11.19.19,0,0,0,.07.08s0,0,0,0H6l-.12-.05s0,0,0,0A.34.34,0,0,1,6,27a.22.22,0,0,1,.32-.11c.19.1.25.37.29.53h0l0-.06.07-.15a.12.12,0,0,0,0-.14v0h0l.12.1s0,0,0,.09Z"/><path d="M12.43,21.49h0s0,0,0,0a.81.81,0,0,0,0-.62c-.09-.14-.18-.13-.22-.1a.13.13,0,0,0-.07.09.18.18,0,0,0,0,.11s0,0,0,0h0l-.07-.11a0,0,0,0,1,0,0,.35.35,0,0,1,.13-.13.22.22,0,0,1,.33.07.8.8,0,0,1,0,.6h0l.06,0,.14-.09a.12.12,0,0,0,0-.14s0,0,0,0h0l.06.15s0,0-.06.07Z"/><path d="M12.95,21.16a0,0,0,0,1,0,0L12.85,21s0,0,0,0h0a.14.14,0,0,0,.2,0,.17.17,0,0,0,.06-.25.21.21,0,0,0-.25-.09h0s0,0,0,0a.19.19,0,0,0,0-.24.13.13,0,0,0-.18,0,.13.13,0,0,0-.06.17s0,0,0,0h0l-.06-.09s0,0,0,0a.38.38,0,0,1,.13-.12c.16-.1.25,0,.27,0a.24.24,0,0,1,0,.24h0a.22.22,0,0,1,.26.09.28.28,0,0,1-.12.4A.33.33,0,0,1,12.95,21.16Z"/><path d="M20.49,19.14v0l0,0c.14-.13.33-.3.33-.53s-.08-.2-.13-.2a.13.13,0,0,0-.1,0,.19.19,0,0,0,0,.1s0,0,0,0v0s0-.1,0-.13a0,0,0,0,1,0,0,.34.34,0,0,1,.18,0,.22.22,0,0,1,.25.23c0,.21-.21.39-.34.5s0,0,0,0h.23A.12.12,0,0,0,21,19v0s0,0,0,0a1.39,1.39,0,0,1,0,.15s0,0-.08,0Z"/><path d="M21.06,18.93s0,0,0,0a0,0,0,0,1,0,0l.38-.55,0,0s0,0,0,0,0,.09,0,.16v.35h.13a.27.27,0,0,1,0,.07h-.11s0,.08,0,.13,0,.05,0,.06h-.2s0,0,0-.06,0-.1,0-.13Zm.3-.42h0l-.22.33h.22Z"/><polygon points="21.29 38.03 21.51 37.98 19.42 22.32 18.59 22.45 21.29 38.03"/><polygon points="18.59 22.48 18.63 19.94 19.42 22.35 18.59 22.48"/><polygon points="24.23 34.1 24.13 33.95 14.11 39.37 14.53 40.09 24.23 34.1"/><polygon points="14.54 40.08 12.78 40.62 14.13 39.36 14.54 40.08"/><rect x="23.13" y="44.07" width="0.24" height="4.88" transform="translate(-27.89 55.93) rotate(-73.86)"/><polygon points="25.63 47.08 26.34 47.41 25.56 47.31 25.63 47.08"/><path d="M16,45.92a5.11,5.11,0,0,1,5.11-5.11h0a5.11,5.11,0,0,1,5.11,5.11h0A5.11,5.11,0,0,1,21.07,51h0A5.11,5.11,0,0,1,16,45.92Zm1.54-3.58A5,5,0,0,0,16,45.92h0a5,5,0,0,0,1.48,3.58h0A5,5,0,0,0,21.07,51h0a5,5,0,0,0,3.58-1.48h0a5,5,0,0,0,1.48-3.58h0a5,5,0,0,0-1.48-3.58h0a5,5,0,0,0-3.58-1.48h0a5,5,0,0,0-3.58,1.48Z"/><path d="M16.37,45.92a4.69,4.69,0,0,1,4.69-4.69h0a4.69,4.69,0,0,1,4.69,4.69h0a4.69,4.69,0,0,1-4.69,4.69h0a4.69,4.69,0,0,1-4.69-4.69Zm1.42-3.27a4.62,4.62,0,0,0-1.36,3.27h0a4.62,4.62,0,0,0,1.36,3.28h0a4.62,4.62,0,0,0,3.28,1.36h0a4.62,4.62,0,0,0,3.27-1.36h0a4.62,4.62,0,0,0,1.36-3.28h0a4.62,4.62,0,0,0-1.36-3.27h0a4.61,4.61,0,0,0-3.27-1.36h0a4.61,4.61,0,0,0-3.28,1.36Z"/><path d="M15.46,45.92a5.6,5.6,0,0,1,5.6-5.6h0a5.6,5.6,0,0,1,5.6,5.6h0a5.6,5.6,0,0,1-5.6,5.6h0a5.6,5.6,0,0,1-5.6-5.6ZM17.15,42a5.51,5.51,0,0,0-1.62,3.91h0a5.51,5.51,0,0,0,1.62,3.91h0a5.51,5.51,0,0,0,3.91,1.62h0A5.51,5.51,0,0,0,25,49.83h0a5.51,5.51,0,0,0,1.62-3.91h0A5.51,5.51,0,0,0,25,42h0a5.51,5.51,0,0,0-3.91-1.62h0A5.51,5.51,0,0,0,17.15,42Z"/><path d="M19.06,45.92a2,2,0,0,1,2-2h0a2,2,0,0,1,2,2h0a2,2,0,0,1-2,2h0a2,2,0,0,1-2-2Zm.61-1.4a2,2,0,0,0-.58,1.4h0a2,2,0,0,0,.58,1.4h0a2,2,0,0,0,1.4.58h0a2,2,0,0,0,1.4-.58h0a2,2,0,0,0,.58-1.4h0a2,2,0,0,0-.58-1.4h0a2,2,0,0,0-1.4-.58h0a2,2,0,0,0-1.4.58Z"/><path d="M21.1,41.26v-.43h0v.43Z"/><path d="M21.06,50.57V51h0v-.44Z"/><path d="M25.17,43.74l.39-.21v0l-.39.21Z"/><path d="M17,48.19l-.4.22v0l.39-.22Z"/><path d="M23.45,41.91l.46-.78,0,0-.45.78Z"/><path d="M18.7,49.94l-.53.74,0,0,.53-.74Z"/><path d="M23,41.67l.19-.4h0l-.19.4Z"/><path d="M19.2,50.18l-.19.4h0l.19-.4Z"/><path d="M22.53,41.51l.14-.43h0l-.14.43Z"/><path d="M19.66,50.35l-.14.42h0l.13-.42Z"/><path d="M22.09,41.39l.1-.43h0l-.1.43Z"/><path d="M20.1,50.48l-.1.43h0l.1-.43Z"/><path d="M21.59,41.29l0-.43h0l0,.43Z"/><path d="M20.59,50.55l-.05.45h0l.05-.44Z"/><path d="M16.82,44.06l-.42-.2v0l.42.2Z"/><path d="M25.31,47.81v0l.41.2v0Z"/><path d="M16.64,44.51l-.44-.14v0l.43.14Z"/><path d="M25.49,47.3s0,0,0,0l.43.14v0Z"/><path d="M16.52,45l-.42-.11v0l.42.11Z"/><path d="M25.61,46.86v0l.46.11v0Z"/><path d="M16.44,45.45,16,45.39v0l.43.05Z"/><path d="M25.68,46.36v0h0l.47.06v0Z"/><path d="M25.69,45.47l.47,0v0l-.48,0Z"/><path d="M16.44,46.4l-.46,0v0l.46,0Z"/><path d="M25.61,45l.45-.09v0l-.45.09Z"/><path d="M16.5,46.84l-.41.09v0l.41-.09Z"/><path d="M25.51,44.55l.45-.14v0l-.45.14Z"/><path d="M16.61,47.29l-.41.13v0l.41-.13Z"/><path d="M16.78,47.75l-.4.18v0l.4-.18Z"/><path d="M25.37,44.15,25.8,44v0l-.43.18Z"/><path d="M24.91,43.33l.4-.27v0l-.4.27Z"/><path d="M17.25,48.59l-.35.24v0l.36-.24Z"/><path d="M24.58,42.9l.36-.32v0l-.36.31Z"/><path d="M24.24,42.54l.3-.34h0l-.3.34Z"/><polygon points="17.58 48.99 17.57 48.98 17.23 49.27 17.24 49.29 17.58 49 17.58 48.99"/><path d="M17.88,49.34l-.29.31h0l.29-.31Z"/><path d="M23.84,42.18l.28-.34h0l-.28.35Z"/><path d="M18.27,49.63,18,50h0l.26-.34Z"/><path d="M20.63,41.29l-.05-.45h0l.05.45Z"/><path d="M21.55,50.54l0,.45h0l0-.45Z"/><path d="M22,50.48l.09.45h0L22,50.48Z"/><path d="M20.14,41.37l-.09-.43h0l.09.43Z"/><path d="M19.67,41.5l-.14-.43h0l.14.43Z"/><path d="M22.4,50.37l.14.45h0l-.14-.45Z"/><path d="M19.24,41.66l-.18-.4h0l.18.4Z"/><path d="M22.86,50.21l.19.43h0l-.19-.43Z"/><path d="M18.38,42.11l-.25-.36h0l.25.36Z"/><path d="M23.7,49.76l.26.38h0l-.26-.38Z"/><path d="M18,42.42l-.31-.35h0l.31.35Z"/><path d="M24.08,49.44h0l.33.37h0Z"/><path d="M17.64,42.77l-.33-.3h0l.33.3Z"/><path d="M24.45,49.1v0l.35.31,0,0Z"/><path d="M17.31,43.17,17,42.91v0l.34.27Z"/><path d="M24.78,48.72v0l.38.29v0Z"/><path d="M18.79,41.82l-.44-.73,0,0,.44.73Z"/><path d="M23.31,50l.44.8,0,0L23.35,50Z"/><path d="M17,43.6l-.38-.23v0l.38.23Z"/><path d="M25.06,48.29v0l.41.24v0Z"/><path d="M16.4,45.9h-.9v0h.9Z"/><path d="M25.71,45.9v0h.93v0Z"/><circle cx="21.06" cy="45.92" r="0.28"/><path d="M25.78,43.38h.06l0,0h0l.11.08h-.27s0,0,0,0v0h0l0-.06,0-.06h0l0,0h.19Z"/><path d="M25.73,43.6c0-.07,0-.09.09-.08a.27.27,0,0,1,.22.1c0,.07,0,.08-.09.08A.26.26,0,0,1,25.73,43.6Zm.29,0s-.07,0-.16,0-.14,0-.11,0a.22.22,0,0,0,.16,0C26,43.66,26,43.64,26,43.6Z"/><path d="M25.59,49h0v0a.62.62,0,0,0,0-.29c0-.05-.06,0-.06,0a.11.11,0,0,0,0,.05.12.12,0,0,0,0,0h0l0,0h0a.24.24,0,0,1,0-.08c0-.06.06-.06.09,0a.61.61,0,0,1,0,.28h0v0l0-.07a.1.1,0,0,0,0-.07h0l0,.06s0,0,0,0Z"/><path d="M25.74,48.68c0,.08-.09,0-.12,0a.25.25,0,0,1,0-.23c0-.07.09,0,.12,0A.24.24,0,0,1,25.74,48.68Zm-.16-.23s0,.08,0,.15.09.1.11.06a.2.2,0,0,0,0-.15C25.65,48.45,25.6,48.41,25.58,48.45Z"/><path d="M20.78,51.36s0,0,0,0l0,0h0s0,0,0,0A.12.12,0,0,0,21,51.3s0-.06,0-.06h0a.14.14,0,0,0,.1-.06s0,0,0,0a.1.1,0,0,0-.08,0h0l0,0H21c.08,0,.07,0,.06,0a.17.17,0,0,1-.09.06h0s.06,0,0,.06a.21.21,0,0,1-.18.09Z"/><path d="M21.12,51.37c-.08,0-.06-.08,0-.12a.23.23,0,0,1,.18-.13c.08,0,.07.07,0,.12A.22.22,0,0,1,21.12,51.37Zm.13-.24s-.07,0-.11.11,0,.12,0,.12.08,0,.11-.11S21.29,51.13,21.24,51.13Z"/><path d="M16.26,48.33s0,0,0,0h0l.27.13h-.16l0,0v0h0l0,0h0s0,0,0,0v0h0l0-.05,0,0h0v0l0,0h0Zm.2.1h0l-.16-.07,0,.08Z"/><path d="M16.36,48.64c0-.07,0-.1.08-.1a.21.21,0,0,1,.2.08c0,.07,0,.09-.08.1A.2.2,0,0,1,16.36,48.64Zm.26,0s-.06,0-.14,0-.12,0-.1.07.08,0,.15,0S16.64,48.66,16.62,48.62Z"/><path d="M16.43,43.56h0l0,0h0s0,0,.06,0a.1.1,0,0,0,0-.11s-.08,0-.1,0h0l-.05-.08h0l0-.09v0h0l0,0h0s0,0,0,0l0,.07,0,0s.09-.09.12,0a.19.19,0,0,1,0,.2Z"/><path d="M16.59,43.26c0,.07-.1,0-.13,0a.19.19,0,0,1,0-.21c0-.07.09,0,.13,0A.19.19,0,0,1,16.59,43.26Zm-.17-.19s0,.07.05.13.09.08.11,0,0-.08,0-.13S16.44,43,16.42,43.07Z"/><path d="M20.83,40.63a.33.33,0,0,1,.21-.16h0a.28.28,0,0,0-.16.15s0,.08,0,.08a.08.08,0,0,0,.07-.05s0-.06,0-.06h0c.06,0,.07,0,.06.06a.15.15,0,0,1-.14.08C20.84,40.73,20.81,40.69,20.83,40.63Z"/><path d="M21.15,40.73c-.08,0-.08-.07-.06-.12a.17.17,0,0,1,.16-.13c.08,0,.08.07.06.12A.17.17,0,0,1,21.15,40.73Zm.08-.24s-.06,0-.09.11,0,.12,0,.12.07,0,.09-.1S21.28,40.49,21.23,40.49Z"/><path d="M21,6.18c1.82,0,3.29.25,3.29.56v1c0,.31-1.47.56-3.29.56h0c-1.82,0-3.29-.25-3.29-.56v-1c0-.31,1.47-.56,3.29-.56Z"/><path d="M21.07,10.85c1.13,0,2,.26,2,.59v1c0,.33-.91.59-2,.59h0c-1.13,0-2-.27-2-.59v-1c0-.33.91-.59,2-.59Z"/><path d="M21.06,12.16c1.13,0,2,.26,2,.59v1c0,.33-.91.59-2,.59h0c-1.13,0-2-.27-2-.59v-1c0-.33.91-.59,2-.59Z"/><path d="M21.06,13.44c1.13,0,2,.26,2,.59v1c0,.33-.91.59-2,.59h0c-1.13,0-2-.27-2-.59V14c0-.33.91-.59,2-.59Z"/><path d="M21,0c-4.6,0-8.33,2.65-8.33,5.93s3.73,5.93,8.33,5.93,8.33-2.65,8.33-5.93S25.64,0,21,0Zm0,10.4c-3.51,0-6.32-2.26-6.32-4.75S17.52,1.51,21,1.51s6.52,1.57,6.52,4.06S24.5,10.4,21,10.4Z"/><path d="M25.06,11.16a1.39,1.39,0,0,1-1.37.8h-5.2a1.39,1.39,0,0,1-1.37-.8V8.7a1.39,1.39,0,0,1,1.37-.8h5.2a1.39,1.39,0,0,1,1.37.8Z"/><rect x="13.6" y="9.66" width="14.96" height="1.79" rx="0.5" ry="0.5"/></g></g></svg>