<svg xmlns="http://www.w3.org/2000/svg" viewBox="0 0 72.92 142.17"><defs><style>.cls-1{fill:#fff;}</style></defs><title>Ресурс 15clock</title><g id="Слой_2" data-name="Слой 2"><g id="Layer_1" data-name="Layer 1"><circle cx="34.26" cy="71.33" r="34.26"/><circle class="cls-1" cx="34.15" cy="71.54" r="30.28"/><path d="M7.18,71.42a27,27,0,0,1,27-27h0a27,27,0,0,1,27,27h0a27,27,0,0,1-27,27h0a27,27,0,0,1-27-27Zm8.13-18.86A26.58,26.58,0,0,0,7.5,71.42h0a26.59,26.59,0,0,0,7.81,18.86h0a26.59,26.59,0,0,0,18.86,7.81h0A26.59,26.59,0,0,0,53,90.28h0a26.59,26.59,0,0,0,7.81-18.86h0A26.59,26.59,0,0,0,53,52.56h0a26.59,26.59,0,0,0-18.86-7.81h0a26.59,26.59,0,0,0-18.86,7.81Z"/><path d="M23.12,71.62A10.84,10.84,0,0,1,34,60.78h0A10.84,10.84,0,0,1,44.81,71.62h0A10.84,10.84,0,0,1,34,82.46h0A10.84,10.84,0,0,1,23.12,71.62ZM26.39,64a10.68,10.68,0,0,0-3.14,7.58h0a10.68,10.68,0,0,0,3.14,7.57h0A10.68,10.68,0,0,0,34,82.34h0a10.68,10.68,0,0,0,7.57-3.14h0a10.68,10.68,0,0,0,3.14-7.57h0A10.68,10.68,0,0,0,41.54,64h0A10.68,10.68,0,0,0,34,60.91h0A10.68,10.68,0,0,0,26.39,64Z"/><path d="M3.59,71.58A30.53,30.53,0,0,1,34.12,41.06h0A30.53,30.53,0,0,1,64.64,71.58h0a30.53,30.53,0,0,1-30.53,30.53h0A30.53,30.53,0,0,1,3.59,71.58Zm9.17-21.36A30.11,30.11,0,0,0,3.91,71.58h0a30.11,30.11,0,0,0,8.85,21.36h0a30.11,30.11,0,0,0,21.36,8.85h0a30.1,30.1,0,0,0,21.36-8.85h0a30.1,30.1,0,0,0,8.85-21.36h0a30.11,30.11,0,0,0-8.85-21.36h0a30.11,30.11,0,0,0-21.36-8.85h0a30.12,30.12,0,0,0-21.36,8.85Z"/><path d="M34.26,45.94v-4.8H34V46Z"/><path d="M34,97v4.92h.23V97Z"/><path d="M56.68,59.64l4.23-2.27-.11-.2-4.23,2.26Z"/><path d="M11.66,83.47,7.22,85.85l.11.2,4.44-2.37Z"/><path d="M47.11,49.48l2.3-4-.2-.11-2.31,4Z"/><path d="M21.4,93.67,18.88,98l.2.12,2.54-4.41Z"/><path d="M45.81,94.14l2.37,4.42.2-.11L46,94.06Z"/><path d="M21.9,49l-2.2-4.11-.2.11,2.21,4.12Z"/><path d="M12.07,58.82,7.81,56.37l-.12.2L12,59Z"/><path d="M56.11,84.18l-.12.2,4.38,2.52.12-.2Z"/><path d="M8.73,71.42H3.68v.23H8.74C8.74,71.57,8.74,71.49,8.73,71.42Z"/><path d="M59.48,71.42c0,.08,0,.15,0,.23h5v-.23Z"/><path d="M51.84,65.53v-.47l0,0a22.1,22.1,0,0,0,1.81-2.93h0a4.75,4.75,0,0,0,.52-2h0a2.41,2.41,0,0,0-.25-1.21h0a.66.66,0,0,0-.6-.39h0a.67.67,0,0,0-.57.3h0a1.71,1.71,0,0,0-.29.93h0v.14H52v-.16a3,3,0,0,1,.22-1h0a2.29,2.29,0,0,1,.57-.87h0a1.18,1.18,0,0,1,.81-.33h0a1.32,1.32,0,0,1,1.11.67h0a2.82,2.82,0,0,1,.43,1.6h0A5,5,0,0,1,54.56,62h0a16.74,16.74,0,0,1-1.81,2.69h2.54v.85Zm.31-.31H55V65H52.26l-.12.17h0v.06Zm2.06-6.5a2.71,2.71,0,0,1,.29,1.36h0a5,5,0,0,1-.55,2.14h0a14.57,14.57,0,0,1-.78,1.39h0a13.2,13.2,0,0,0,1.11-1.76h0a4.72,4.72,0,0,0,.57-2.12h0a2.51,2.51,0,0,0-.38-1.43h0a1,1,0,0,0-.86-.54h0A.89.89,0,0,0,53,58h0a1.65,1.65,0,0,0-.32.4h0a1,1,0,0,1,.64-.24h0a1,1,0,0,1,.86.55Z"/><path d="M31.45,54.78v-.51h.15c.22,0,.32-.06.33-.09h0a1.32,1.32,0,0,0,.08-.59h0v-5.2s0,0,0-.06h0a1.7,1.7,0,0,1-.66.22H31.2v-.47l.06,0a3.94,3.94,0,0,0,1.24-1.23h0l0-.09H33v6.86a1.33,1.33,0,0,0,.08.59h0s.12.09.33.09h.15v.51Zm1.45-.31a.45.45,0,0,1-.12-.11h0a1.49,1.49,0,0,1-.13-.77h0V47.17a4.79,4.79,0,0,1-1,1h0l.3-.13h0a.42.42,0,0,1,.19-.07h0c.27.07.22.25.23.42h0v5.2a1.5,1.5,0,0,1-.13.76h0a.46.46,0,0,1-.12.12h.83Z"/><path d="M33.92,54.66v-.47l0,0a21.58,21.58,0,0,0,1.8-2.93h0a4.73,4.73,0,0,0,.52-2h0A2.45,2.45,0,0,0,36,48h0a.68.68,0,0,0-.61-.39h0a.69.69,0,0,0-.57.3h0a1.79,1.79,0,0,0-.29.93h0V49H34.1v-.15a2.92,2.92,0,0,1,.22-1h0a2.28,2.28,0,0,1,.57-.87h0a1.2,1.2,0,0,1,.81-.33h0a1.33,1.33,0,0,1,1.12.68h0a2.82,2.82,0,0,1,.43,1.6h0a5.08,5.08,0,0,1-.6,2.26h0a17,17,0,0,1-1.81,2.69h2.54v.85Zm.31-.31h2.84v-.24H34.35l-.12.17h0v.06Zm2.06-6.5a2.76,2.76,0,0,1,.29,1.36h0A5.05,5.05,0,0,1,36,51.36h0a15,15,0,0,1-.79,1.42h0A13.54,13.54,0,0,0,36.37,51h0a4.76,4.76,0,0,0,.57-2.13h0a2.49,2.49,0,0,0-.38-1.42h0a1,1,0,0,0-.86-.54h0a.88.88,0,0,0-.61.25h0a1.64,1.64,0,0,0-.32.41h0a.94.94,0,0,1,.64-.24h0a1,1,0,0,1,.86.54Z"/><path d="M57,76a1.53,1.53,0,0,1-.81-.21h0a2.52,2.52,0,0,1-.69-.68h0L55.41,75l.07-.09.23-.31.13.14a1.38,1.38,0,0,0,1,.57h0a.91.91,0,0,0,.75-.39h0a1.7,1.7,0,0,0,.31-1.08h0a2.61,2.61,0,0,0-.35-1.34h0A.94.94,0,0,0,56.7,72h0l-.56,0H56v-.51l.12,0c1.08-.27,1.56-.83,1.57-1.77h0a1.46,1.46,0,0,0-.24-.85h0a.65.65,0,0,0-.54-.32h0a.6.6,0,0,0-.41.17h0a1.27,1.27,0,0,0-.33.52h0l-.06.17-.16-.09-.26-.15,0-.11a1.77,1.77,0,0,1,.53-.92h0a1.33,1.33,0,0,1,.91-.35h0a1.32,1.32,0,0,1,1.07.54h0a2.05,2.05,0,0,1,.41,1.3h0a2.27,2.27,0,0,1-.27,1.1h0a2,2,0,0,1-.56.65h0a1.87,1.87,0,0,1,.73.72h0a2.77,2.77,0,0,1,.34,1.41h0a2.94,2.94,0,0,1-.51,1.79h0A1.63,1.63,0,0,1,57,76h0Zm-.65-.47a1.23,1.23,0,0,0,.65.17h0a1.33,1.33,0,0,0,1.12-.59h0a2.62,2.62,0,0,0,.45-1.6h0a2.45,2.45,0,0,0-.3-1.25h0a1.52,1.52,0,0,0-.81-.69h0l-.1,0v-.22l.08,0a1.69,1.69,0,0,0,.66-.67h0a2,2,0,0,0,.23-1h0A1.73,1.73,0,0,0,58,68.54h0a1,1,0,0,0-.83-.43h0a1,1,0,0,0-.68.25h0a.87.87,0,0,1,.43-.11h0a1,1,0,0,1,.8.45h0a1.75,1.75,0,0,1,.29,1h0a2,2,0,0,1-1.4,2h.12a1.25,1.25,0,0,1,1.09.71h0a2.9,2.9,0,0,1,.39,1.5h0a2,2,0,0,1-.38,1.26h0a1.21,1.21,0,0,1-1,.51h0a1.18,1.18,0,0,1-.52-.13h0l0,0Zm0-3.69h0Z"/><path d="M53.55,86.38h-.73v-2.6H50.56v-.15l0-.3,2.72-5.12h.41v4.66h1.35v.91H53.7v2.6Zm-2.69-3v.07h2.27v2.61h.26V83.47h1.35v-.3H53.39v-4.5l-.55,1,.29.07v3.39H51l-.13.24Zm4,.22v0Zm-2.08-.77V80.38l-1.32,2.47Z"/><path d="M43.83,94.24a1.86,1.86,0,0,1-1.63-1.17h0L42.15,93l.1-.08.28-.24.09.16c.29.48.59.68.93.68h0a.92.92,0,0,0,.76-.42h0a1.81,1.81,0,0,0,.33-1.1h0a1.62,1.62,0,0,0-.34-1.06h0a1.09,1.09,0,0,0-.89-.39h0l-.34,0h0l-.18,0L43,86.2h2.64v1H43.55l0,2.35.28,0h0a1.67,1.67,0,0,1,1.38.67h0a2.54,2.54,0,0,1,.5,1.61h0a2.78,2.78,0,0,1-.5,1.7h0a1.6,1.6,0,0,1-1.31.7h0Zm0-.31a1.29,1.29,0,0,0,1.08-.58h0a2.47,2.47,0,0,0,.45-1.52h0a2.24,2.24,0,0,0-.44-1.42h0a1.35,1.35,0,0,0-1.14-.55h0a2,2,0,0,0-.41,0h0l-.16,0v.26h.21a1.4,1.4,0,0,1,1.13.51h0A1.89,1.89,0,0,1,45,92h0a2.12,2.12,0,0,1-.39,1.29h0a1.23,1.23,0,0,1-1,.55h0a1.1,1.1,0,0,1-.45-.1h0a1.22,1.22,0,0,0,.73.24Zm1.63-6.86v0Zm-.15-.15v-.4h-2v.4Z"/><path d="M33.91,96.39a1.69,1.69,0,0,1-1.47-.92h0a4.08,4.08,0,0,1-.55-2.22h0a5.76,5.76,0,0,1,1-3.45h0a3.77,3.77,0,0,1,2.64-1.65h0l.17,0v.52l-.12,0A3.09,3.09,0,0,0,33.74,90h0A5,5,0,0,0,33,92.21h0a1.66,1.66,0,0,1,1.15-.53h0a1.43,1.43,0,0,1,1.2.67h0A2.81,2.81,0,0,1,35.78,94h0a2.73,2.73,0,0,1-.53,1.7h0a1.63,1.63,0,0,1-1.33.71h0ZM33.16,90a5.46,5.46,0,0,0-1,3.28h0a3.81,3.81,0,0,0,.5,2.05h0a1.38,1.38,0,0,0,1.2.77h0a1.33,1.33,0,0,0,1.1-.59h0A2.44,2.44,0,0,0,35.47,94h0a2.52,2.52,0,0,0-.39-1.46h0a1.11,1.11,0,0,0-1-.54h0a1.42,1.42,0,0,0-1,.53h0a1.24,1.24,0,0,1,.73-.25h0a1.09,1.09,0,0,1,.95.57h0a2.64,2.64,0,0,1,.33,1.4h0a2.51,2.51,0,0,1-.29,1.27h0A.94.94,0,0,1,34,96h0a1.17,1.17,0,0,1-1-.83h0a5.06,5.06,0,0,1-.35-2.06h0v0l0,0,0-.51a5.61,5.61,0,0,1,.87-2.82h0a3.49,3.49,0,0,1,1.24-1.14h0A3.65,3.65,0,0,0,33.16,90Zm-.23,3.17a4.76,4.76,0,0,0,.32,1.94h0c.22.47.46.64.75.65h0a.65.65,0,0,0,.56-.39h0a2.24,2.24,0,0,0,.25-1.12h0A2.34,2.34,0,0,0,34.52,93h0a.78.78,0,0,0-.69-.42h0a1.21,1.21,0,0,0-.91.55h0v0Z"/><path d="M22.51,93.57h-.9l2.13-6.95H21.55a.31.31,0,0,0-.27.12h0a3.4,3.4,0,0,0-.36.74h0l0,.1h-.45l.34-2.25h.41l0,.11c0,.11,0,.13.05.12h0a.21.21,0,0,0,.11,0h3.19V86l-1.92,7.54Zm-1-7.25h2.61L22,93.26h.36L24.25,86v-.1H21.37a.51.51,0,0,1-.26-.06h0a.34.34,0,0,1-.09-.08h0l-.17,1.12a1.71,1.71,0,0,1,.19-.32h0a.61.61,0,0,1,.49-.23h0Zm-.78,1.11v0Z"/><path d="M14.45,86.57A1.57,1.57,0,0,1,13.19,86h0a2.14,2.14,0,0,1-.47-1.43h0a2.33,2.33,0,0,1,.3-1.19h0a3.38,3.38,0,0,1,.8-.91h0a2.57,2.57,0,0,1-.66-.83h0a2.75,2.75,0,0,1-.29-1.25h0a2.28,2.28,0,0,1,.44-1.45h0a1.45,1.45,0,0,1,1.19-.58h0a1.43,1.43,0,0,1,1.14.55h0a2,2,0,0,1,.44,1.34h0a2.31,2.31,0,0,1-.87,1.83h0a3.25,3.25,0,0,1,1,2.31h0a2.42,2.42,0,0,1-.5,1.55h0a1.56,1.56,0,0,1-1.26.65h0Zm-1.16-3a2,2,0,0,0-.26,1h0a1.85,1.85,0,0,0,.4,1.23h0a1.26,1.26,0,0,0,1,.47h0a1.27,1.27,0,0,0,1-.53h0a2.11,2.11,0,0,0,.43-1.35h0a3,3,0,0,0-1-2.22h0L14.74,82h0l0,0a4.77,4.77,0,0,1-1-1h0a1.81,1.81,0,0,1-.31-1h0a1.46,1.46,0,0,1,.29-.93h0a1.08,1.08,0,0,1,.19-.2h0a1.29,1.29,0,0,0-.31.29h0a2,2,0,0,0-.38,1.26h0a2.45,2.45,0,0,0,.25,1.12h0a2.24,2.24,0,0,0,.72.84h0l.17.12-.07.05.08.06a2.72,2.72,0,0,1,1.31,2.16h0a1.67,1.67,0,0,1-.31,1h0a1,1,0,0,1-.83.43h0a1.08,1.08,0,0,1-.92-.54h0a2.23,2.23,0,0,1-.34-1.26h0a2.25,2.25,0,0,1,.38-1.32h0a2.48,2.48,0,0,0-.34.45Zm.56,2a.78.78,0,0,0,.66.41h0a.7.7,0,0,0,.58-.31h0a1.35,1.35,0,0,0,.25-.85h0a2.35,2.35,0,0,0-1.1-1.85h0a1.75,1.75,0,0,0-.69,1.52h0a1.9,1.9,0,0,0,.29,1.08ZM14,80.82a4.27,4.27,0,0,0,.85.88h0a1.61,1.61,0,0,0,.47-1.29h0A2,2,0,0,0,15,79.32h0a.66.66,0,0,0-.59-.37h0a.62.62,0,0,0-.52.27h0a1.16,1.16,0,0,0-.22.74h0a1.54,1.54,0,0,0,.27.86Zm1.33-1.66a2.32,2.32,0,0,1,.3,1.24h0a2.34,2.34,0,0,1-.21,1h0a1.94,1.94,0,0,0,.4-1.21h0a1.74,1.74,0,0,0-.37-1.14h0a1.11,1.11,0,0,0-.71-.42h0a1,1,0,0,1,.6.48Z"/><path d="M10.1,75.85V75.5l.12,0a2.84,2.84,0,0,0,1.86-1.29h0A4.92,4.92,0,0,0,12.87,72h0a1.67,1.67,0,0,1-1.17.54h0a1.42,1.42,0,0,1-1.2-.67h0A2.79,2.79,0,0,1,10,70.19h0a2.69,2.69,0,0,1,.53-1.69h0a1.65,1.65,0,0,1,1.35-.7h0a1.68,1.68,0,0,1,1.46.91h0a4.1,4.1,0,0,1,.55,2.21h0a5.74,5.74,0,0,1-1,3.46h0A3.73,3.73,0,0,1,10.27,76h0l-.17,0v-.17Zm.31,0h0Zm2.81-4.34a5.5,5.5,0,0,1-.88,2.85h0a3.47,3.47,0,0,1-1,1h0a3.74,3.74,0,0,0,1.32-1.17h0a5.44,5.44,0,0,0,1-3.27h0a3.82,3.82,0,0,0-.5-2h0a1.37,1.37,0,0,0-1.2-.76h0a1.35,1.35,0,0,0-1.11.58h0a2.39,2.39,0,0,0-.47,1.5h0a2.48,2.48,0,0,0,.4,1.45h0a1.12,1.12,0,0,0,.95.54h0a1.46,1.46,0,0,0,1.06-.57h0a1.19,1.19,0,0,1-.77.31h0a1.09,1.09,0,0,1-1-.57h0a2.6,2.6,0,0,1-.34-1.4h0A2.49,2.49,0,0,1,11,68.68h0a1,1,0,0,1,.83-.54h0a1.17,1.17,0,0,1,1,.82h0A5.16,5.16,0,0,1,13.21,71h0l0,0,0,.49Zm-1.91-.32a.79.79,0,0,0,.69.43h0A1.2,1.2,0,0,0,12.9,71h0a4.79,4.79,0,0,0-.32-1.91h0c-.22-.46-.46-.64-.75-.65h0a.65.65,0,0,0-.56.39h0A2.18,2.18,0,0,0,11,69.95h0a2.3,2.3,0,0,0,.29,1.24Z"/><path d="M13.08,66.31V65.8h.15c.22,0,.31-.05.33-.09h0a1.37,1.37,0,0,0,.08-.59h0v-5.2s0,0,0-.06h0a1.74,1.74,0,0,1-.66.22h-.17v-.47l.06,0a3.91,3.91,0,0,0,1.25-1.23h0l0-.09h.42v6.86a1.35,1.35,0,0,0,.08.59h0s.11.09.33.09h.15v.51ZM14.53,66a.42.42,0,0,1-.12-.11h0a1.51,1.51,0,0,1-.13-.77h0V58.7a4.78,4.78,0,0,1-1.05,1h0a2,2,0,0,0,.3-.14h0a.51.51,0,0,1,.19-.07h0c.27.07.22.25.23.42h0v5.2a1.5,1.5,0,0,1-.13.76h0a.45.45,0,0,1-.12.12h.83Z"/><path d="M17.23,66.45a1.45,1.45,0,0,1-1.09-.56h0a3.61,3.61,0,0,1-.73-1.47h0a8.06,8.06,0,0,1-.25-2.11h0a7.69,7.69,0,0,1,.25-2.07h0a3.57,3.57,0,0,1,.73-1.45h0a1.44,1.44,0,0,1,1.08-.56h0a1.42,1.42,0,0,1,1.08.56h0A3.68,3.68,0,0,1,19,60.25h0a7.86,7.86,0,0,1,.25,2.09h0A7.9,7.9,0,0,1,19,64.43h0a3.6,3.6,0,0,1-.73,1.46h0a1.44,1.44,0,0,1-1.07.56h0ZM16.37,59a3.36,3.36,0,0,0-.66,1.33h0a7.55,7.55,0,0,0-.24,2h0a7.78,7.78,0,0,0,.24,2h0a3.25,3.25,0,0,0,.66,1.34h0a1.15,1.15,0,0,0,.86.46h0a1.14,1.14,0,0,0,.84-.46h0a3.33,3.33,0,0,0,.66-1.34h0a7.65,7.65,0,0,0,.24-2h0a7.66,7.66,0,0,0-.24-2h0A3.37,3.37,0,0,0,18.07,59h0a1.13,1.13,0,0,0-.85-.46h0a1.15,1.15,0,0,0-.86.46ZM16.21,65a9,9,0,0,1-.32-2.71h0a9.17,9.17,0,0,1,.32-2.7h0c.21-.66.54-1.06,1-1.07h0c.48,0,.81.41,1,1.06h0a9.22,9.22,0,0,1,.31,2.71h0a9.22,9.22,0,0,1-.31,2.72h0c-.21.64-.54,1-1,1h0c-.48,0-.81-.41-1-1.06ZM17.94,65a8.87,8.87,0,0,0,.3-2.63h0a9,9,0,0,0-.3-2.62h0c-.2-.62-.45-.85-.72-.84h0c-.27,0-.52.23-.73.85h0a9,9,0,0,0-.3,2.61h0A8.87,8.87,0,0,0,16.5,65h0c.2.62.46.85.73.85h0c.27,0,.52-.22.72-.83Z"/><path d="M20.89,57.46V57H21c.22,0,.31-.06.33-.09h0a1.36,1.36,0,0,0,.08-.59h0v-5.2s0,0,0-.06h0a1.7,1.7,0,0,1-.66.22h-.16v-.46l.06,0a3.93,3.93,0,0,0,1.24-1.23h0l0-.09h.42v6.86a1.38,1.38,0,0,0,.08.59h0s.12.09.33.09H23v.51Zm1.45-.31a.46.46,0,0,1-.12-.11h0a1.49,1.49,0,0,1-.13-.77h0V49.85a4.82,4.82,0,0,1-1.05,1h0l.3-.13h0a.49.49,0,0,1,.2-.07h0c.27.07.21.25.23.42h0v5.2a1.5,1.5,0,0,1-.13.76h0a.47.47,0,0,1-.12.12h.83Z"/><path d="M23,57.46V57h.15c.22,0,.31-.06.33-.09h0a1.38,1.38,0,0,0,.08-.59h0v-5.2s0,0,0-.06h0a1.68,1.68,0,0,1-.66.21h-.17v-.46l.06,0a4,4,0,0,0,1.24-1.23h0l0-.09h.42v6.86a1.37,1.37,0,0,0,.08.59h0s.11.09.33.09h.15v.51Zm1.45-.31a.46.46,0,0,1-.12-.11h0a1.49,1.49,0,0,1-.13-.77h0V49.85a4.78,4.78,0,0,1-1.05,1h0l.3-.13h0a.47.47,0,0,1,.2-.07h0c.26.07.22.25.23.42h0v5.2a1.5,1.5,0,0,1-.13.76h0a.47.47,0,0,1-.12.12h.82Z"/><path d="M45,57.66v-.51h.15c.22,0,.31-.06.33-.09h0a1.35,1.35,0,0,0,.08-.59h0v-5.2s0,0,0-.06h0a1.68,1.68,0,0,1-.66.22h-.16V51l.06,0a3.94,3.94,0,0,0,1.25-1.23h0l0-.09h.42v6.86a1.37,1.37,0,0,0,.08.59h0s.11.09.33.09h.15v.51Zm1.45-.31a.46.46,0,0,1-.12-.11h0a1.47,1.47,0,0,1-.13-.77h0V50.06a4.79,4.79,0,0,1-1.05,1h0a2.13,2.13,0,0,0,.3-.14h0a.48.48,0,0,1,.19-.07h0c.26.06.21.25.23.42h0v5.2a1.47,1.47,0,0,1-.13.75h0a.46.46,0,0,1-.12.12h.83Z"/><rect x="33.53" y="57.1" width="1.08" height="17.05"/><polygon points="33.53 57.12 34.07 54.42 34.61 57.12 33.53 57.12"/><rect x="30.67" y="55.33" width="1.08" height="21.48" transform="translate(-26.79 21.62) rotate(-27.25)"/><polygon points="25.84 56.8 24.77 53.53 26.8 56.3 25.84 56.8"/><rect x="22.41" width="23.15" height="29.82"/><path d="M46.6,35a2.28,2.28,0,0,1-2.44,2.08H23.48A2.28,2.28,0,0,1,21,35h0a2.28,2.28,0,0,1,2.44-2.08H44.17A2.28,2.28,0,0,1,46.6,35Z"/><path d="M70.06,76.72c-1,0-2.08-.2-2.08-1V67.41c0-.54.93-1,2.08-1,2.48,0,2.86,2.62,2.85,4.52S72.82,76.6,70.06,76.72Z"/><path d="M46.23,31.53a2.62,2.62,0,0,1-1,2h-1a7.83,7.83,0,0,0,.47-2v-.09a7.52,7.52,0,0,0-.47-1.93l1,0a2.56,2.56,0,0,1,1.06,2Z"/><path d="M21.6,31.55a2.62,2.62,0,0,0,1,2h1a7.81,7.81,0,0,1-.47-2V31.5a7.55,7.55,0,0,1,.47-1.93l-1,0a2.56,2.56,0,0,0-1.06,2Z"/><rect x="22.82" y="112.35" width="23.15" height="29.82"/><path d="M47,107.16a2.28,2.28,0,0,0-2.44-2.08H23.89a2.28,2.28,0,0,0-2.44,2.08h0a2.28,2.28,0,0,0,2.44,2.08H44.58A2.28,2.28,0,0,0,47,107.16Z"/><path d="M46.64,110.64a2.62,2.62,0,0,0-1-2h-1a7.83,7.83,0,0,1,.47,2v.09a7.52,7.52,0,0,1-.47,1.93l1,0a2.56,2.56,0,0,0,1.06-2Z"/><path d="M22,110.62a2.62,2.62,0,0,1,1-2h1a7.81,7.81,0,0,0-.47,2v.09A7.55,7.55,0,0,0,24,112.6l-1,0a2.56,2.56,0,0,1-1.06-2Z"/></g></g></svg>