<svg xmlns="http://www.w3.org/2000/svg" viewBox="0 0 77.94 78.14"><defs><style>.cls-1{fill:none;}.cls-2{fill:#ebbd0c;}.cls-3{fill:#e1a113;}.cls-4{fill:#a2bf34;}.cls-5{fill:#d2d856;}.cls-6{fill:#80b890;}.cls-7{fill:#da92ba;}.cls-8{fill:#f8dd00;}.cls-9{fill:#dd9ec2;}.cls-10{fill:#d06aa0;}.cls-11{fill:#e5f2fc;}.cls-12{fill:#ffec00;}.cls-13{fill:#91147c;}.cls-14{fill:#7c1d7d;}.cls-15{fill:#1e1e1c;}</style></defs><title>Ресурс 6clock2</title><g id="Слой_2" data-name="Слой 2"><g id="Layer_2" data-name="Layer 2"><path class="cls-1" d="M66.14,74.09c.7,0,1.42,0,2.14,0v0Z"/><path class="cls-2" d="M36,75.74c-2.57.76-6.73,2.53-9.39,1.83v-.66c.36.46-.29-1.33-.57-2.37H25.5l.31,1.14c.21.76.39,2.26.73,2.25l8.08-.07,17.84-.15.15-.59.71-2.82-12.4.11C39.32,75,37.63,75.26,36,75.74Z"/><path class="cls-3" d="M26,74.54c.28,1,.93,2.83.57,2.37v.66c2.66.69,6.82-1.07,9.39-1.83,1.63-.48,3.32-.77,4.92-1.33l-7.43.06Z"/><path class="cls-4" d="M75.44,66.94c-.28.07-.56.12-.84.16v0a10,10,0,0,1,1.38.34v-.7A4.43,4.43,0,0,1,75.44,66.94Z"/><path class="cls-4" d="M73.71,41c0,3.22,0,3.21.07,6.43,0,1,0,1.75.09,2.34q0-5.58-.1-11.16C73.73,39.18,73.7,39.89,73.71,41Z"/><path class="cls-4" d="M74,11.42c0,.15,0,.3,0,.45v0c.88,1.14,1.43,2.47,0,3.07l0,4.45a14.63,14.63,0,0,1,.17,2.23,32.14,32.14,0,0,1-.12,3.27q0,3.22.05,6.45.12,14.47.25,28.93l.08,0c1.39.52.82,1.88-.06,3,0,.18,0,.37,0,.55a5.66,5.66,0,0,1,1.47-.39q-.22-25.9-.45-51.8A4.8,4.8,0,0,1,74,11.42Z"/><path class="cls-4" d="M2.88,5.43a7.43,7.43,0,0,1,1.2.45,9.41,9.41,0,0,1-.82-1A4.33,4.33,0,0,0,2.88,5.43Z"/><path class="cls-4" d="M63.5,3.09l-21.7.19-28.18.24a2.92,2.92,0,0,1-.13.36,15.06,15.06,0,0,1,1.67-.1c3.34,0,3.34.33,6.68.3l9-.08,7.54-.06a20.82,20.82,0,0,1,3.54-.3,12.48,12.48,0,0,1,2.79.24l7.86-.07a13,13,0,0,1,2.71-.26,24.24,24.24,0,0,1,3.62.21l5.1,0a3,3,0,0,1-.25-.63Z"/><path class="cls-4" d="M74,64c0,.05,0,.1,0,.15h0c0-.06,0-.11,0-.17Z"/><path class="cls-4" d="M4.2,41.59A11.13,11.13,0,0,0,4,39.29q.05,5.91.1,11.81A26.78,26.78,0,0,0,4.2,48C4.17,44.8,4.22,44.8,4.2,41.59Z"/><path class="cls-4" d="M73.55,15.12v.11c0,.37,0,.69,0,1,0-.13,0-.26,0-.4s0-.46,0-.7Z"/><path class="cls-4" d="M48.59,4.36a12.8,12.8,0,0,0,2.9-.31l-5.76,0A12.42,12.42,0,0,0,48.59,4.36Z"/><path class="cls-4" d="M28.54,4.45c2.7,0,3.22-.17,5.08-.25l-8.31.07A21.91,21.91,0,0,0,28.54,4.45Z"/><path class="cls-4" d="M73.21,5.35a9.23,9.23,0,0,1,1.17-.48A4,4,0,0,0,74,4.46,10.83,10.83,0,0,1,73.21,5.35Z"/><path class="cls-4" d="M75.45,7.87a4.4,4.4,0,0,1-.52.18c-.28.07-.56.12-.84.16v0a10,10,0,0,1,1.38.34c0-.18,0-.35,0-.53S75.45,7.93,75.45,7.87Z"/><path class="cls-4" d="M2.05,67.19c0,.34,0,.67.06,1a4.47,4.47,0,0,1,.9-.33c.28-.07.55-.12.83-.16,0,0,0,0,0,0A9.32,9.32,0,0,1,2.05,67.19Z"/><path class="cls-4" d="M3.32,72.52a7.82,7.82,0,0,1,1.41-2,7.34,7.34,0,0,1-2,.69A5.9,5.9,0,0,0,3.32,72.52Z"/><path class="cls-4" d="M7,72.78a4.48,4.48,0,0,1-1.27,1.45,7.29,7.29,0,0,0,1.33.23A6,6,0,0,1,7,72.78Z"/><path class="cls-4" d="M1.74,9.23A4.45,4.45,0,0,1,2.5,9c.26-.06.52-.11.78-.16v0a9.77,9.77,0,0,1-1.45-.37C1.8,8.68,1.76,8.95,1.74,9.23Z"/><path class="cls-4" d="M3.68,61q-.05-6-.1-12t-.1-11.78a11.44,11.44,0,0,1-.19-2.11,19.49,19.49,0,0,1,.15-2.8L3.29,15.5c-1.1-.51-.73-1.63,0-2.67q0-.38,0-.76a4.71,4.71,0,0,1-1.58.32c0,1.33.13,2.58.14,3.57L2,38.08q.1,11.35.2,22.7c0,.89-.07,2.09-.12,3.41a4,4,0,0,1,1.63.23V63.7C3,62.7,2.65,61.61,3.68,61Zm-.74,1.15h0Z"/><path class="cls-4" d="M10.38,72.81a5.08,5.08,0,0,1-.07,1.66l1.82,0A3.74,3.74,0,0,1,10.38,72.81Z"/><path class="cls-4" d="M75.1,71.69a4.49,4.49,0,0,0,.55-1.09,6.37,6.37,0,0,1-1.8-.57A7.64,7.64,0,0,1,75.1,71.69Z"/><path class="cls-4" d="M71.5,73.78a8.94,8.94,0,0,0,1-.29,5.06,5.06,0,0,1-1-1.21A5.42,5.42,0,0,1,71.5,73.78Z"/><path class="cls-4" d="M68.18,72.25c-.7,1.19-1.74,2.2-3.11,1.69-1-.37-1-1.14-.6-2l-15.59.13a34.35,34.35,0,0,1-19.6.17H27.76l-7.25.06a43.42,43.42,0,0,1-4.74.36h-1.6a1.24,1.24,0,0,1-.81,1.71l-.06,0,4.5,0,23.11-.2L63.09,74c.9,0,1.94,0,3,.07l2.13,0A5.77,5.77,0,0,1,68.18,72.25Z"/><path class="cls-4" d="M67.46,3l.09.14V3Z"/><path class="cls-4" d="M6.39,3.59l0,0v0Z"/><path class="cls-4" d="M9.76,3.65l.06-.11H9.77Z"/><path class="cls-4" d="M62.56,71.48c-3.34,0-3.34.11-6.68.14-3.19,0-3.34.2-6.25.24h0l11.32-.1c1,0,2.29.06,3.6.09.05-.11.11-.21.18-.32C64.14,71.5,63.48,71.48,62.56,71.48Z"/><path class="cls-5" d="M73.72,64.25l.25-.12c0-.05,0-.1,0-.15Z"/><path class="cls-5" d="M73.59,11.24s0,.1,0,.15l.06.07c0-.07,0-.13,0-.2Z"/><path class="cls-5" d="M64.25,62.28q-.67.75-1.39,1.45a3.15,3.15,0,0,1,1.67.06A1.08,1.08,0,0,1,64.25,62.28Z"/><path class="cls-5" d="M4.19,64.6l.4.17-.4-.44C4.19,64.42,4.19,64.51,4.19,64.6Z"/><path class="cls-5" d="M74.09,19.43q0,2.75,0,5.5a32.14,32.14,0,0,0,.12-3.27A14.63,14.63,0,0,0,74.09,19.43Z"/><path class="cls-5" d="M3.28,8.81h0v0h0Z"/><path class="cls-5" d="M3.29,35.16a11.44,11.44,0,0,0,.19,2.11l0-4.91A19.49,19.49,0,0,0,3.29,35.16Z"/><path class="cls-5" d="M14.18,72.72h1.6a43.42,43.42,0,0,0,4.74-.36l-6.46.06A3,3,0,0,1,14.18,72.72Z"/><path class="cls-5" d="M52.56,3.81l6.33-.05a24.24,24.24,0,0,0-3.62-.21A13,13,0,0,0,52.56,3.81Z"/><path class="cls-5" d="M38.37,3.93l6.33-.05a12.48,12.48,0,0,0-2.79-.24A20.82,20.82,0,0,0,38.37,3.93Z"/><path class="cls-5" d="M15.17,3.78a15.06,15.06,0,0,0-1.67.1c0,.09-.08.18-.13.27l8.48-.07C18.51,4.1,18.51,3.75,15.17,3.78Z"/><path class="cls-5" d="M11.21,15.77c.18,1.51,0,3.2-1.64,3.32-1.23.09-1.65-.92-1.72-2.09a1.29,1.29,0,0,1-.64-.26,2.19,2.19,0,0,1-2.54.88c-.8-.3-1-1.07-.86-1.94h0l.12,13.42L4,39.29a11.13,11.13,0,0,1,.22,2.29c0,3.22,0,3.22,0,6.43a26.78,26.78,0,0,1-.12,3.09q0,4.86.08,9.73a1.7,1.7,0,0,1,.78,0,2.83,2.83,0,0,1,0-1.69c.53-1.32,2.31-.55,3.1.45a1.82,1.82,0,0,1,.33-.09c0-1,.27-2,1.14-2.31a34.29,34.29,0,0,1,3-39.85A5,5,0,0,1,11.21,15.77Z"/><path class="cls-5" d="M13.58,13.59a9,9,0,0,1,1.1,1.35l.8-.76a6.39,6.39,0,0,1-1.9-.62Z"/><path class="cls-5" d="M73.78,47.4c0-3.22,0-3.21-.07-6.43,0-1.08,0-1.79.06-2.39q-.1-11.18-.19-22.37c0-.29,0-.61,0-1v-.11l-.2,0c-.32,2.06-1,3.82-2.4,3.06-.6-.33-.72-1.21-.71-2a1.73,1.73,0,0,1-.87.29,2.06,2.06,0,0,1-2.28.6c-1.21-.46-.95-1.54-.28-2.59a2,2,0,0,1-2.24.55c-1-.36-1-1.12-.61-1.93a1.38,1.38,0,0,1-.12-.2,1.35,1.35,0,0,1,.12-1.22c-1.1.31-2.16.29-2.57-.72a1.6,1.6,0,0,1,.8-1.9,4.82,4.82,0,0,1,1.47-.64.94.94,0,0,1-.06-.38c-1.46-.39-3-1.16-2.22-2.46s2.5-.89,3.87-.25a8.3,8.3,0,0,1-1.11-1.41L54.61,4l-3.12,0a12.8,12.8,0,0,1-2.9.31,12.42,12.42,0,0,1-2.86-.26l-12.11.1c-1.86.07-2.38.22-5.08.25a21.91,21.91,0,0,1-3.23-.18l-10.82.09.1,0a.89.89,0,0,1,.41.77,1.34,1.34,0,0,1,1,.86,1.28,1.28,0,0,1,0,.93,1.44,1.44,0,0,1,1.5.89,1.63,1.63,0,0,1-.82,1.93,5.25,5.25,0,0,1-.66.36,1,1,0,0,1,.1,1,2.76,2.76,0,0,1,1.53,1.12A34.28,34.28,0,0,1,67.51,58l.05,0a2.12,2.12,0,0,1,2.46.9,1.44,1.44,0,0,1,.46.11c0-1.19.77-2.83,1.92-2.27.88.42,1.3,2.16,1.39,3,0,.14,0,.28,0,.42H74q0-5.24-.09-10.48C73.82,49.15,73.79,48.44,73.78,47.4Z"/><polygon class="cls-5" points="11.71 60.38 11.71 60.38 11.71 60.38 11.71 60.38"/><path class="cls-5" d="M66.65,59.29c-.23.32-.47.65-.71,1A3.15,3.15,0,0,1,68,61.9l.05,0c0-.06,0-.12,0-.18A4.85,4.85,0,0,1,66.65,59.29Z"/><path class="cls-5" d="M3.74,12.2c.16-.19.32-.37.48-.54l-.48.22Z"/><path class="cls-5" d="M16.56,65.88c1.29.45,2.4,1.22,1.6,2.36a1.86,1.86,0,0,1-1.58.79,1.08,1.08,0,0,1,0,1.28,1.68,1.68,0,0,1-1.09.79,1.36,1.36,0,0,1-.29.52,1.59,1.59,0,0,1-1.33.43l.1.18c.78,0,1.53-.07,2.18-.08L28.48,72a34.22,34.22,0,0,1-11.83-6.53A1.34,1.34,0,0,1,16.56,65.88Z"/><path class="cls-5" d="M27.76,72.29h0Z"/><path class="cls-5" d="M61.88,69.87a1.6,1.6,0,0,1,.8-1.9,4.79,4.79,0,0,1,1.47-.64h.06a1.36,1.36,0,0,1,0-.33c-1.38-.34-2.9-1-2.51-2.18a34.25,34.25,0,0,1-12.1,7c2.91,0,3.06-.21,6.25-.24,3.34,0,3.34-.11,6.68-.14.92,0,1.59,0,2.14.05A9.18,9.18,0,0,1,65.87,70C64.43,70.74,62.47,71.32,61.88,69.87Z"/><path class="cls-6" d="M11.71,60.38h0a34.41,34.41,0,0,1-2.23-3.22c-.87.33-1.14,1.28-1.14,2.31l.24,0c1.6-.11,1.82,1.61,1.69,3.12a3.7,3.7,0,0,1,1.8-1.72l-.35-.45Z"/><path class="cls-6" d="M12.58,64.77A6.41,6.41,0,0,1,15,64q-.56-.54-1.09-1.09A8.27,8.27,0,0,1,12.58,64.77Z"/><path class="cls-6" d="M4.9,59.11a2.83,2.83,0,0,0,0,1.69,3.43,3.43,0,0,1,2,1.72C6.79,61.28,7,60,8,59.56,7.21,58.56,5.43,57.79,4.9,59.11Z"/><path class="cls-6" d="M12.71,70.56A8.08,8.08,0,0,1,13.87,72a1.59,1.59,0,0,0,1.33-.43,1.36,1.36,0,0,0,.29-.52A4.6,4.6,0,0,1,12.71,70.56Z"/><path class="cls-6" d="M16.56,65.88a2,2,0,0,1-.8.95,4.8,4.8,0,0,1-1.47.64c-.28.07-.56.12-.84.16v0c1.08.19,2.58.62,3.13,1.37a1.86,1.86,0,0,0,1.58-.79C19,67.1,17.86,66.33,16.56,65.88Z"/><path class="cls-6" d="M16.19,11.15a1.56,1.56,0,0,1-.12.26c-.79,1.3-2.5.89-3.87.25a7,7,0,0,1,1.36,1.9,6.39,6.39,0,0,0,1.9.62q1.08-1,2.25-1.91A2.76,2.76,0,0,0,16.19,11.15Z"/><path class="cls-6" d="M12.86,15.53c-1.27.5-2.28-.48-3-1.62.15,1.44-.09,3-1.66,3.09a1.78,1.78,0,0,1-.36,0c.07,1.17.48,2.18,1.72,2.09,1.64-.12,1.83-1.81,1.64-3.32A5,5,0,0,0,12.5,17.3q1-1.23,2.18-2.37a9,9,0,0,0-1.1-1.35A1.29,1.29,0,0,1,12.86,15.53Z"/><path class="cls-6" d="M14.6,4.41l-.1,0a2,2,0,0,0-1.18-.12,8.77,8.77,0,0,1-1.24,1.63A5.25,5.25,0,0,1,15,5.18.89.89,0,0,0,14.6,4.41Z"/><path class="cls-6" d="M16.06,7a2,2,0,0,1-.81,1,4.8,4.8,0,0,1-1.47.64c-.28.07-.56.12-.84.16v0c1.09.19,2.6.62,3.14,1.39a5.25,5.25,0,0,0,.66-.36,1.63,1.63,0,0,0,.82-1.93A1.44,1.44,0,0,0,16.06,7Z"/><path class="cls-6" d="M6.53,13.89C5.9,15,5,15.88,3.82,15.68c-.1.88.06,1.64.86,1.94a2.19,2.19,0,0,0,2.54-.88C6.53,16.2,6.43,15,6.53,13.89Z"/><path class="cls-6" d="M67.67,13.36a5.22,5.22,0,0,1-.87,1.13c-.66,1-.93,2.13.28,2.59a2.06,2.06,0,0,0,2.28-.6h0C67.76,16.59,67.54,14.87,67.67,13.36Z"/><path class="cls-6" d="M63.58,8.06a.94.94,0,0,0,.06.38h0c.28-.07.55-.12.84-.16v0C64.2,8.21,63.89,8.14,63.58,8.06Z"/><path class="cls-6" d="M71,13.39c.11,1.11,0,2.27-.79,2.8,0,.79.11,1.67.71,2,1.38.77,2.07-1,2.4-3.06A3,3,0,0,1,71,13.39Z"/><path class="cls-6" d="M63.83,12.92a1.38,1.38,0,0,0,.12.2,7.8,7.8,0,0,1,1.41-2,8.62,8.62,0,0,1-1.41.56A1.35,1.35,0,0,0,63.83,12.92Z"/><path class="cls-6" d="M73.35,11.14l.24.26c0-.05,0-.11,0-.15Z"/><path class="cls-6" d="M67.56,58l-.05,0q-.42.64-.86,1.26A4.85,4.85,0,0,0,68,61.74c-.09-1.36.21-2.74,1.68-2.84a1.82,1.82,0,0,1,.3,0A2.12,2.12,0,0,0,67.56,58Z"/><path class="cls-6" d="M68,61.9l.06.1v-.07Z"/><path class="cls-6" d="M64.25,62.28a1.08,1.08,0,0,0,.28,1.51,7.38,7.38,0,0,1,1.21.45,6.64,6.64,0,0,1-1.42-2Z"/><path class="cls-6" d="M64.23,67a1.36,1.36,0,0,0,0,.33c.26-.06.51-.11.78-.15v0Z"/><path class="cls-6" d="M72.41,56.74c-1.16-.56-1.93,1.08-1.92,2.27.91.41,1,1.78.93,3a3.08,3.08,0,0,1,2.4-1.82c0-.14,0-.28,0-.42C73.7,58.9,73.28,57.16,72.41,56.74Z"/><path class="cls-7" d="M5,2.58c-.57-.42-1.56-.7-1.84.17-.36,1.13.4,2.21,1.28,3A4.45,4.45,0,0,1,6.39,4.48,4.72,4.72,0,0,0,5,2.58Z"/><path class="cls-7" d="M.58,6.62c.07,1.3,1.49,1.8,2.77,2A4.87,4.87,0,0,1,4.1,6.26C2.69,5.59.49,4.87.58,6.62Z"/><path class="cls-7" d="M8.28.77C7.32.48,6.9,2,6.87,2.64A6.73,6.73,0,0,0,7,4.33a5.14,5.14,0,0,1,.88-.1l.22,0a4.53,4.53,0,0,1,1.1.14C9.46,3,9.54,1.16,8.28.77Z"/><path class="cls-7" d="M9.85,4.53l0,0h0a4.73,4.73,0,0,1,1.83,1.24c.94-.92,1.89-2.21,1.23-3.25C11.95,1,10.56,3.08,9.85,4.53Z"/><path class="cls-7" d="M.62,11.1c.23,1.68,2.21,1,3.55.28A4,4,0,0,1,3.35,9C2,9.25.44,9.8.62,11.1Z"/><path class="cls-7" d="M12.06,6.2a4.85,4.85,0,0,1,.85,2.31c1.33-.21,2.93-.76,2.75-2.06C15.43,4.74,13.39,5.48,12.06,6.2Z"/><path class="cls-7" d="M3.34,15c1,1.56,2.36-.51,3.08-2a5.46,5.46,0,0,1-1.9-1.26C3.6,12.7,2.69,14,3.34,15Z"/><path class="cls-7" d="M12.94,8.94a5.14,5.14,0,0,1-.77,2.33c1.41.68,3.62,1.4,3.53-.35C15.64,9.61,14.22,9.12,12.94,8.94Z"/><path class="cls-7" d="M7.73,13.42a5.88,5.88,0,0,1-.66-.15c-.25,1.35-.3,3.11.94,3.49,1,.29,1.38-1.25,1.41-1.86a6.62,6.62,0,0,0-.11-1.53A4.23,4.23,0,0,1,7.73,13.42Z"/><path class="cls-7" d="M10,13.17A4.59,4.59,0,0,0,11.28,15c.57.42,1.56.71,1.84-.16.36-1.13-.41-2.21-1.28-3A4.63,4.63,0,0,1,10,13.17Z"/><path class="cls-8" d="M8.11,4.2l-.22,0a5.28,5.28,0,0,1,1.66.22l-.33-.1A4.53,4.53,0,0,0,8.11,4.2Z"/><path class="cls-8" d="M6.42,4.72a5.42,5.42,0,0,0-1.19.86,2.46,2.46,0,0,1,.37-.18l.1-.1C8.45,4.18,13,6.55,11.62,10.07c-.56,1.38-2.72,2.48-4,1.58,1-.33,2.25-.18,3-1.16a3.91,3.91,0,0,0,0-3.65C9.77,5.45,7.17,4.79,5.6,5.41L4.43,6.59s0-.06,0-.1a3.92,3.92,0,0,0-.66,2.38c.18,2.85,3,5.54,6.05,3.95a4.71,4.71,0,0,0,2.6-4.14C12.29,5.83,9.44,3.12,6.42,4.72Zm-.25,5.34C6.56,9.63,7.46,9,7.62,8.25a1.6,1.6,0,0,0-.29-1.44,2.19,2.19,0,0,0-.64-.1l-.14.14c-.07-.08-.41.1-.14-.11a.79.79,0,0,1,.92.07C9.24,7.39,9.05,10.5,6.17,10.06Z"/><path class="cls-8" d="M9.89,4.55h0Z"/><path class="cls-9" d="M5.69,5.31l-.1.1c1.57-.62,4.17,0,4.91,1.43a3.91,3.91,0,0,1,0,3.65c-.7,1-1.94.83-3,1.16,1.31.9,3.46-.2,4-1.58C13,6.55,8.45,4.18,5.69,5.31Z"/><path class="cls-9" d="M4.48,6.49s0,.06,0,.1L5.6,5.41a2.46,2.46,0,0,0-.37.18A1.72,1.72,0,0,0,4.48,6.49Z"/><path class="cls-10" d="M6.4,6.74c-.27.21.08,0,.14.11l.14-.14a2.19,2.19,0,0,1,.64.1A.79.79,0,0,0,6.4,6.74Z"/><path class="cls-10" d="M7.32,6.81a1.6,1.6,0,0,1,.29,1.44C7.46,9,6.56,9.63,6.17,10.06,9.05,10.5,9.24,7.39,7.32,6.81Z"/><path class="cls-7" d="M74.59,67.31a5.14,5.14,0,0,1-.77,2.33c1.41.68,3.62,1.4,3.53-.35C77.29,68,75.87,67.49,74.59,67.31Z"/><path class="cls-7" d="M71.61,71.53a4.59,4.59,0,0,0,1.32,1.79c.57.42,1.56.7,1.84-.16.36-1.13-.41-2.21-1.28-3A4.63,4.63,0,0,1,71.61,71.53Z"/><path class="cls-7" d="M65,73.37c1,1.56,2.36-.51,3.08-2a5.46,5.46,0,0,1-1.89-1.26C65.25,71.07,64.34,72.34,65,73.37Z"/><path class="cls-7" d="M73.71,64.57a4.84,4.84,0,0,1,.85,2.31c1.33-.22,2.94-.76,2.75-2.06C77.07,63.1,75,63.84,73.71,64.57Z"/><path class="cls-7" d="M69.38,71.79a5.9,5.9,0,0,1-.66-.15c-.25,1.35-.3,3.11.94,3.49,1,.29,1.38-1.25,1.41-1.86A6.62,6.62,0,0,0,71,71.74,4.23,4.23,0,0,1,69.38,71.79Z"/><path class="cls-7" d="M62.23,65c.07,1.3,1.49,1.8,2.77,2a4.87,4.87,0,0,1,.75-2.34C64.34,64,62.14,63.24,62.23,65Z"/><path class="cls-7" d="M66.66,60.95a2,2,0,0,0-1-.39q-.47.59-1,1.17a3.72,3.72,0,0,0,1.37,2.43A4.44,4.44,0,0,1,68,62.85,4.72,4.72,0,0,0,66.66,60.95Z"/><path class="cls-7" d="M62.27,69.46c.24,1.68,2.21,1,3.55.28A4,4,0,0,1,65,67.4C63.68,67.62,62.09,68.16,62.27,69.46Z"/><path class="cls-7" d="M71.5,62.9l0,0h0a4.72,4.72,0,0,1,1.83,1.24c.94-.92,1.89-2.21,1.23-3.25C73.6,59.33,72.21,61.45,71.5,62.9Z"/><path class="cls-7" d="M69.93,59.14c-1-.29-1.38,1.25-1.41,1.86a6.72,6.72,0,0,0,.14,1.69,5.21,5.21,0,0,1,.9-.1l.21,0a4.5,4.5,0,0,1,1.1.14C71.12,61.35,71.2,59.53,69.93,59.14Z"/><path class="cls-8" d="M69.76,62.57l-.21,0a5.3,5.3,0,0,1,1.63.21l-.32-.1A4.5,4.5,0,0,0,69.76,62.57Z"/><path class="cls-8" d="M71.54,62.91h0Z"/><path class="cls-8" d="M68.07,63.09a5.4,5.4,0,0,0-1.19.87,2.38,2.38,0,0,1,.36-.18l.1-.1c2.77-1.12,7.34,1.24,5.92,4.77-.56,1.38-2.72,2.48-4,1.58,1-.33,2.25-.18,3-1.16a3.9,3.9,0,0,0,0-3.65c-.74-1.4-3.34-2.06-4.92-1.43L66.08,65s0-.07,0-.11a3.93,3.93,0,0,0-.66,2.39c.18,2.85,3,5.55,6,3.95A4.71,4.71,0,0,0,74.12,67C73.94,64.19,71.09,61.49,68.07,63.09Zm-.25,5.34c.39-.44,1.29-1.11,1.45-1.82A1.59,1.59,0,0,0,69,65.18a2.18,2.18,0,0,0-.64-.1l-.14.14c-.07-.08-.41.1-.14-.11a.79.79,0,0,1,.92.07C70.89,65.76,70.7,68.87,67.81,68.43Z"/><path class="cls-9" d="M66.13,64.85s0,.07,0,.11l1.15-1.18a2.38,2.38,0,0,0-.36.18A1.73,1.73,0,0,0,66.13,64.85Z"/><path class="cls-9" d="M67.34,63.68l-.1.1c1.57-.63,4.18,0,4.92,1.43a3.9,3.9,0,0,1,0,3.65c-.71,1-1.94.83-3,1.16,1.3.9,3.46-.2,4-1.58C74.68,64.91,70.11,62.55,67.34,63.68Z"/><path class="cls-10" d="M68.05,65.11c-.26.21.08,0,.14.11l.14-.14a2.18,2.18,0,0,1,.64.1A.79.79,0,0,0,68.05,65.11Z"/><path class="cls-10" d="M69,65.18a1.59,1.59,0,0,1,.29,1.44c-.16.71-1.06,1.38-1.45,1.82C70.7,68.87,70.89,65.76,69,65.18Z"/><path class="cls-7" d="M74.08,8.41a5.14,5.14,0,0,1-.77,2.33c1.41.68,3.62,1.4,3.53-.35C76.78,9.09,75.36,8.59,74.08,8.41Z"/><path class="cls-7" d="M71,4a4.74,4.74,0,0,1,1.87,1.26c.94-.92,1.89-2.21,1.23-3.25C73.09.43,71.71,2.56,71,4Z"/><path class="cls-7" d="M73.2,5.67A4.85,4.85,0,0,1,74.05,8c1.33-.22,2.94-.76,2.75-2.07C76.57,4.21,74.54,4.95,73.2,5.67Z"/><path class="cls-7" d="M69.42.25C68.46,0,68,1.5,68,2.11a6.72,6.72,0,0,0,.14,1.69,5.21,5.21,0,0,1,.9-.1l.2,0a4.53,4.53,0,0,1,1.1.14C70.61,2.45,70.69.63,69.42.25Z"/><path class="cls-7" d="M66.16,2.05c-.57-.42-1.56-.71-1.84.16-.36,1.13.4,2.21,1.28,3A4.45,4.45,0,0,1,67.53,4,4.72,4.72,0,0,0,66.16,2.05Z"/><path class="cls-7" d="M64.49,14.48c1,1.56,2.36-.51,3.08-2a5.47,5.47,0,0,1-1.89-1.26C64.74,12.18,63.83,13.45,64.49,14.48Z"/><path class="cls-7" d="M61.73,6.1c.07,1.3,1.49,1.8,2.77,2a4.88,4.88,0,0,1,.75-2.34C63.83,5.06,61.64,4.35,61.73,6.1Z"/><path class="cls-7" d="M61.77,10.57c.24,1.68,2.21,1,3.54.28a4,4,0,0,1-.82-2.34C63.17,8.73,61.59,9.27,61.77,10.57Z"/><path class="cls-7" d="M68.87,12.9a5.75,5.75,0,0,1-.66-.15c-.25,1.35-.3,3.11.94,3.49,1,.29,1.38-1.25,1.41-1.86a6.62,6.62,0,0,0-.11-1.53A4.23,4.23,0,0,1,68.87,12.9Z"/><path class="cls-7" d="M71.1,12.64a4.59,4.59,0,0,0,1.32,1.79c.57.42,1.56.71,1.84-.16.36-1.13-.41-2.21-1.28-3A4.63,4.63,0,0,1,71.1,12.64Z"/><path class="cls-8" d="M69.25,3.68l-.2,0a5.27,5.27,0,0,1,1.62.21l-.31-.09A4.53,4.53,0,0,0,69.25,3.68Z"/><path class="cls-8" d="M67.56,4.2a5.41,5.41,0,0,0-1.19.87,2.41,2.41,0,0,1,.37-.18l.1-.1C69.6,3.66,74.18,6,72.76,9.55c-.56,1.38-2.72,2.48-4,1.58,1-.33,2.25-.18,3-1.16a3.9,3.9,0,0,0,0-3.65c-.74-1.4-3.34-2.06-4.91-1.43L65.58,6.06s0-.06,0-.1A3.93,3.93,0,0,0,65,8.34c.18,2.85,3,5.55,6.05,3.94a4.71,4.71,0,0,0,2.6-4.14C73.44,5.3,70.59,2.6,67.56,4.2Zm-.25,5.34c.39-.44,1.29-1.11,1.45-1.82a1.59,1.59,0,0,0-.29-1.44,2.16,2.16,0,0,0-.64-.1l-.14.14c-.07-.08-.41.1-.14-.11a.79.79,0,0,1,.92.07C70.38,6.87,70.2,10,67.31,9.54Z"/><path class="cls-9" d="M65.62,6s0,.06,0,.1l1.16-1.18a2.41,2.41,0,0,0-.37.18A1.73,1.73,0,0,0,65.62,6Z"/><path class="cls-9" d="M66.83,4.78l-.1.1c1.57-.62,4.18,0,4.91,1.43a3.9,3.9,0,0,1,0,3.65c-.7,1-1.94.83-3,1.16,1.3.9,3.46-.2,4-1.58C74.18,6,69.6,3.66,66.83,4.78Z"/><path class="cls-10" d="M67.55,6.22c-.27.21.08,0,.14.11l.14-.14a2.16,2.16,0,0,1,.64.1A.79.79,0,0,0,67.55,6.22Z"/><path class="cls-10" d="M68.47,6.28a1.59,1.59,0,0,1,.29,1.44c-.16.71-1.06,1.38-1.45,1.82C70.2,10,70.38,6.87,68.47,6.28Z"/><path class="cls-7" d="M1.09,65.52c.07,1.3,1.49,1.8,2.77,2a4.87,4.87,0,0,1,.75-2.34C3.2,64.48,1,63.77,1.09,65.52Z"/><path class="cls-7" d="M3.85,73.9c1,1.56,2.36-.51,3.08-2A5.47,5.47,0,0,1,5,70.68C4.1,71.6,3.19,72.86,3.85,73.9Z"/><path class="cls-7" d="M8.23,72.32a5.83,5.83,0,0,1-.66-.15c-.25,1.35-.3,3.11.94,3.49,1,.29,1.38-1.25,1.41-1.86a6.63,6.63,0,0,0-.11-1.53A4.23,4.23,0,0,1,8.23,72.32Z"/><path class="cls-7" d="M1.13,70c.23,1.68,2.21,1,3.54.28a4,4,0,0,1-.82-2.34C2.53,68.14,1,68.69,1.13,70Z"/><path class="cls-7" d="M5.52,61.47c-.57-.42-1.56-.7-1.84.16-.36,1.13.4,2.21,1.28,3a4.45,4.45,0,0,1,1.93-1.31A4.73,4.73,0,0,0,5.52,61.47Z"/><path class="cls-7" d="M10.46,72.06a4.59,4.59,0,0,0,1.32,1.79c.57.42,1.56.71,1.84-.16.36-1.13-.41-2.21-1.28-3A4.63,4.63,0,0,1,10.46,72.06Z"/><path class="cls-7" d="M10.36,63.42a4.73,4.73,0,0,1,1.87,1.26,4.88,4.88,0,0,0,1.39-2.05q-.73-.79-1.41-1.62A5.93,5.93,0,0,0,10.36,63.42Z"/><path class="cls-7" d="M8.78,59.67c-1-.29-1.38,1.25-1.41,1.86a6.73,6.73,0,0,0,.14,1.69,5.2,5.2,0,0,1,.9-.1l.21,0a4.53,4.53,0,0,1,1.1.14C10,61.87,10.05,60.05,8.78,59.67Z"/><path class="cls-7" d="M13.45,67.83a5.14,5.14,0,0,1-.77,2.33c1.41.68,3.62,1.4,3.53-.36C16.15,68.51,14.73,68,13.45,67.83Z"/><path class="cls-7" d="M15.32,64.33a4.75,4.75,0,0,0-2.75.76,4.85,4.85,0,0,1,.85,2.31c1.33-.22,2.94-.76,2.75-2.06A1.7,1.7,0,0,0,16.1,65Z"/><path class="cls-8" d="M8.61,63.1l-.21,0a5.29,5.29,0,0,1,1.62.21l-.31-.09A4.53,4.53,0,0,0,8.61,63.1Z"/><path class="cls-8" d="M6.93,63.62a5.41,5.41,0,0,0-1.19.86,2.43,2.43,0,0,1,.36-.18l.1-.1C9,63.08,13.54,65.44,12.12,69c-.56,1.38-2.72,2.48-4,1.58,1-.33,2.25-.18,3-1.16a3.9,3.9,0,0,0,0-3.65c-.74-1.4-3.34-2.06-4.91-1.43L4.94,65.48s0-.07,0-.1a3.91,3.91,0,0,0-.66,2.38c.18,2.84,3,5.55,6.05,3.95A4.71,4.71,0,0,0,13,67.56C12.8,64.72,10,62,6.93,63.62ZM6.67,69c.39-.44,1.29-1.1,1.45-1.82a1.6,1.6,0,0,0-.29-1.44,2.17,2.17,0,0,0-.64-.1l-.14.14c-.07-.08-.41.11-.14-.1a.79.79,0,0,1,.92.06C9.75,66.28,9.56,69.39,6.67,69Z"/><path class="cls-9" d="M5,65.38s0,.07,0,.1L6.1,64.3a2.43,2.43,0,0,0-.36.18A1.72,1.72,0,0,0,5,65.38Z"/><path class="cls-9" d="M6.2,64.2l-.1.1c1.57-.62,4.18,0,4.91,1.43a3.9,3.9,0,0,1,0,3.65c-.7,1-1.94.83-3,1.16,1.31.9,3.46-.2,4-1.58C13.54,65.44,9,63.08,6.2,64.2Z"/><path class="cls-10" d="M6.91,65.64c-.26.21.08,0,.14.1l.14-.14a2.17,2.17,0,0,1,.64.1A.79.79,0,0,0,6.91,65.64Z"/><path class="cls-10" d="M7.83,65.7a1.6,1.6,0,0,1,.29,1.44C8,67.85,7.06,68.52,6.67,69,9.56,69.39,9.75,66.28,7.83,65.7Z"/><path class="cls-11" d="M12.11,27.19l1.31.58-.2.46-1.31-.58c-.33.78-.63,1.59-.9,2.4l1.34.44-.15.48-1.35-.44c-.25.81-.46,1.64-.64,2.48l1.36.29-.1.49-1.36-.29c-.17.83-.29,1.68-.39,2.53l1.37.14-.05.5-1.37-.14q-.12,1.27-.13,2.56h2.94a26.31,26.31,0,0,1,3.32-12.55L13.25,24.9Q12.63,26,12.11,27.19Z"/><path class="cls-11" d="M61.48,23.16l-.29-.4,1.19-.87q-.76-1-1.6-2l-1.11,1-.33-.37,1.12-1q-.48-.54-1-1.05c-.27-.27-.54-.53-.81-.78l-1,1.14-.37-.33,1-1.14c-.64-.58-1.3-1.13-2-1.65l-.92,1.26-.4-.29.92-1.26q-1-.76-2.16-1.44L52.1,16.47a26.57,26.57,0,0,1,9.49,9.33L64,24.46q-.64-1.11-1.38-2.16Z"/><path class="cls-11" d="M15.67,37.2c-.67,0-.94.55-.94,1.12a.93.93,0,0,0,1,1,1,1,0,0,0,1-1A1,1,0,0,0,15.67,37.2Z"/><path class="cls-11" d="M21.28,26.5c-.73,0-1,.86-1,1.89s.25,1.89,1,1.89,1-.86,1-1.89S22,26.5,21.28,26.5Z"/><path class="cls-11" d="M38.74,61.95a1,1,0,0,0-1,1,1,1,0,0,0,1,1.1c.67,0,.95-.55.95-1.12A.94.94,0,0,0,38.74,61.95Z"/><path class="cls-11" d="M36.11,11.58l-.5.05L35.44,10c-.87.1-1.72.23-2.56.4L33.23,12l-.49.1-.34-1.62c-.85.19-1.68.41-2.5.68l.51,1.56-.48.15-.5-1.56q-1.23.42-2.41.94l.66,1.48-.46.2-.66-1.48q-1.18.55-2.29,1.19l1.61,2.69A26.3,26.3,0,0,1,38.53,13V9.8q-1.31,0-2.59.13Z"/><path class="cls-11" d="M19.39,51a.84.84,0,0,0-.94.89.94.94,0,1,0,1.89,0A.84.84,0,0,0,19.39,51Z"/><polygon class="cls-11" points="59.44 50.97 59.44 48.8 57.89 50.97 59.44 50.97"/><path class="cls-11" d="M50.35,14l-.46-.2.66-1.48q-1.18-.52-2.41-.94l-.51,1.56-.47-.15.51-1.56q-1.23-.39-2.5-.68l-.35,1.61-.49-.1.35-1.62c-.84-.17-1.7-.31-2.56-.41L42,11.64l-.5-.05.17-1.65Q40.34,9.81,39,9.8v3.15a26.31,26.31,0,0,1,12.63,3.28l1.63-2.53Q52.18,13,51,12.5Z"/><path class="cls-11" d="M19.39,49a.76.76,0,1,0,.8.75A.71.71,0,0,0,19.39,49Z"/><path class="cls-11" d="M39,68.86q1.31,0,2.59-.13l-.17-1.64.5-.05.17,1.64c.86-.1,1.72-.23,2.56-.4l-.34-1.61.49-.1.34,1.6c.85-.19,1.68-.41,2.5-.68l-.5-1.55.47-.15.5,1.54q1.23-.42,2.41-.94l-.65-1.47.46-.2L51,66.17q1.17-.55,2.29-1.19l-1.46-2.54.3-.17A26.3,26.3,0,0,1,39,65.81Z"/><path class="cls-11" d="M52.26,62.19l1.46,2.54q1.11-.67,2.15-1.43L55,62l.4-.29L56.28,63c.69-.52,1.35-1.07,2-1.65l-1-1.13.37-.33,1,1.13c.28-.26.56-.53.83-.8s.66-.68,1-1l-1.11-1,.33-.37,1.11,1q.84-1,1.61-2l-1.19-.86.29-.41,1.18.86q.74-1,1.38-2.16l-2.4-1.37A26.57,26.57,0,0,1,52.26,62.19Z"/><path class="cls-11" d="M52.13,62.26l.13-.07h0Z"/><path class="cls-11" d="M16.16,52.86l-2.64,1.37q.64,1.11,1.37,2.15l1.18-.86.29.4-1.19.86q.76,1,1.6,2l1.11-1,.34.37-1.12,1q.48.53,1,1c.27.27.55.54.83.8l1-1.13.37.34-1,1.13c.64.58,1.3,1.13,2,1.65l.91-1.26.4.29-.91,1.26c.69.5,1.41,1,2.14,1.42L25.24,62A26.56,26.56,0,0,1,16.16,52.86Z"/><path class="cls-11" d="M21.68,15.37l.92,1.27-.41.29-.92-1.27c-.69.52-1.35,1.07-2,1.65l1,1.14-.37.33-1-1.14c-.28.26-.56.52-.83.79s-.66.69-1,1l1.12,1-.34.37-1.11-1q-.84,1-1.6,2l1.2.87-.29.4-1.19-.86q-.74,1.06-1.39,2.18L16,26.1a26.55,26.55,0,0,1,9.39-9.47l-1.61-2.69C23.09,14.38,22.37,14.86,21.68,15.37Z"/><path class="cls-11" d="M9.53,39.58q0,1.29.13,2.56L11,42l.05.5-1.37.14c.09.86.22,1.7.39,2.53l1.36-.29.1.49-1.36.29c.18.84.39,1.67.64,2.48l1.34-.43.15.48L11,48.62c.27.82.57,1.62.9,2.4l1.3-.58.2.46-1.3.58q.53,1.18,1.16,2.31l2.64-1.37a26.31,26.31,0,0,1-3.44-12.84Z"/><path class="cls-11" d="M38.9,13.44A25.94,25.94,0,1,0,57.24,21,25.85,25.85,0,0,0,38.9,13.44Zm10.58,4.91h.13a1,1,0,0,0,1.08-.81h.43v4.53h-.6v-3.4h-1Zm-9.07-4a.86.86,0,0,0-.94.9v.17h-.59v-.14a1.39,1.39,0,0,1,1.55-1.44,1.34,1.34,0,0,1,1.51,1.37c0,.85-.4,1.12-1.46,1.79-.61.39-.87.66-.95,1h2.39v.51H38.87c0-1.09.65-1.51,1.53-2.06.38-.24.93-.53.93-1.22A.82.82,0,0,0,40.42,14.33ZM38.35,37.06l11.06-16.7-8.26,18,9,8.1L38.71,40.4l-.26-1.62A1.55,1.55,0,0,1,38.35,37.06ZM28.27,18.42h.14a1,1,0,0,0,1.08-.81h.43v4.53H29.3v-3.4h-1ZM17.14,26.93h.14a1,1,0,0,0,1.08-.81h.43v4.53h-.61v-3.4h-1ZM15.61,41.52a1.32,1.32,0,0,1-1.4-1.13h.55a.8.8,0,0,0,.86.65c.94,0,1.11-1,1.1-1.67h0a1.34,1.34,0,0,1-1.11.48,1.4,1.4,0,0,1-1.45-1.52,1.47,1.47,0,0,1,1.55-1.6c.78,0,1.62.28,1.62,2.34S16.32,41.52,15.61,41.52Zm3.78,11.77a1.36,1.36,0,0,1-1.53-1.42,1.18,1.18,0,0,1,.82-1.17,1,1,0,0,1-.66-1,1.2,1.2,0,0,1,1.36-1.21,1.2,1.2,0,0,1,1.36,1.21,1,1,0,0,1-.65,1,1.18,1.18,0,0,1,.82,1.17A1.36,1.36,0,0,1,19.39,53.29Zm1.89-22.5c-.34,0-1.59-.08-1.59-2.4S20.95,26,21.28,26s1.58.08,1.58,2.4S21.62,30.79,21.28,30.79Zm5.53-8.65H26.2v-3.4h-1v-.32h.14a1,1,0,0,0,1.08-.81h.43Zm3.37,35.31a6.39,6.39,0,0,0-1.26,2,7.22,7.22,0,0,0-.5,2.08h-.65a7.54,7.54,0,0,1,.54-2,7.2,7.2,0,0,1,1.26-2H26.87V57h3.31Zm6.06-42.69h.14A1,1,0,0,0,37.45,14h.43v4.53h-.61v-3.4h-1Zm2.49,49.82c-1,0-1.62-.52-1.62-2.34,0-2.42,1.31-2.46,1.71-2.46a1.31,1.31,0,0,1,1.4,1.13h-.54a.8.8,0,0,0-.87-.64c-.94,0-1.11,1-1.1,1.67h0a1.35,1.35,0,0,1,1.11-.48A1.4,1.4,0,0,1,40.28,63,1.47,1.47,0,0,1,38.73,64.58Zm11.43-3.27A1.38,1.38,0,0,1,48.63,60h.59a.88.88,0,0,0,.93.81c.3,0,1.05-.06,1.05-1.12a1,1,0,0,0-1-1.07,1.12,1.12,0,0,0-.89.39h-.57l.32-2.39h2.44v.51h-2l-.18,1.34a1.46,1.46,0,0,1,1-.34,1.39,1.39,0,0,1,1.42,1.55A1.48,1.48,0,0,1,50.15,61.31ZM62.29,37.13c1.26,0,1.43.89,1.43,1.24a1,1,0,0,1-.75,1h0a1.06,1.06,0,0,1,.87,1.14,1.39,1.39,0,0,1-1.56,1.4,1.42,1.42,0,0,1-1.58-1.52h.58l0,.15a.92.92,0,0,0,.95.88.9.9,0,0,0,1-1,.77.77,0,0,0-.83-.82H62v-.49h.18c.2,0,1,0,1-.78,0-.36-.18-.78-.89-.78-.21,0-.89,0-.88,1h-.56A1.35,1.35,0,0,1,62.29,37.13ZM59.2,25.95a.86.86,0,0,0-.94.9V27h-.59v-.13a1.39,1.39,0,0,1,1.55-1.44,1.34,1.34,0,0,1,1.51,1.37c0,.85-.4,1.12-1.45,1.79-.61.39-.87.66-1,1h2.39v.51H57.66c0-1.09.65-1.51,1.53-2.06.37-.24.92-.53.92-1.22A.82.82,0,0,0,59.2,25.95ZM57.3,51l2.13-3H60v3h.71v.51H60v1h-.61v-1H57.3Z"/><path class="cls-11" d="M68,39.09q0-1.29-.13-2.56l-1.37.14-.05-.5L67.84,36q-.14-1.28-.39-2.53l-1.36.29L66,33.3,67.35,33c-.18-.84-.39-1.67-.64-2.48L65.37,31l-.15-.48,1.33-.43c-.27-.82-.57-1.62-.9-2.4l-1.3.58-.2-.46,1.3-.58Q64.92,26,64.3,24.89l-2.46,1.34a26.4,26.4,0,0,1,.06,26.19l2.39,1.36q.62-1.12,1.15-2.3l-1.29-.58.2-.46,1.29.58c.33-.78.63-1.58.9-2.4l-1.33-.43.15-.48,1.33.43c.25-.81.46-1.64.65-2.48L66,45.39l.1-.49,1.36.29q.25-1.25.39-2.53l-1.37-.14.05-.5,1.37.14q.12-1.26.13-2.56H65.37v-.5Z"/><path class="cls-11" d="M24.25,65q1.12.65,2.3,1.2l.65-1.47.46.2L27,66.37q1.18.52,2.41.94l.5-1.54.48.15-.5,1.55c.82.26,1.65.49,2.5.68l.34-1.6.49.1-.34,1.61c.84.17,1.69.3,2.56.4L35.61,67l.5.05-.17,1.64q1.28.12,2.59.13V65.8a26.3,26.3,0,0,1-12.86-3.54Z"/><path class="cls-12" d="M38.77,5.54a33.79,33.79,0,1,0,23.89,9.9A33.69,33.69,0,0,0,38.77,5.54Zm21,55a29.56,29.56,0,0,1-42.08,0,30.24,30.24,0,0,1,0-42.48,29.56,29.56,0,0,1,42.08,0,30.24,30.24,0,0,1,0,42.48Z"/><path class="cls-11" d="M36.37,14.76h-.14v.32h1v3.4h.61V14h-.43A1,1,0,0,1,36.37,14.76Z"/><path class="cls-13" d="M36.37,14.76h-.14v.32h1v3.4h.61V14h-.43A1,1,0,0,1,36.37,14.76Z"/><path class="cls-11" d="M40.49,17c1.05-.67,1.46-.94,1.46-1.79a1.34,1.34,0,0,0-1.51-1.37,1.39,1.39,0,0,0-1.55,1.44v.14h.59v-.17a.86.86,0,0,1,.94-.9.82.82,0,0,1,.91.87c0,.69-.55,1-.93,1.22-.88.56-1.54,1-1.53,2.06h3.07V18H39.54C39.63,17.64,39.88,17.37,40.49,17Z"/><path class="cls-13" d="M40.49,17c1.05-.67,1.46-.94,1.46-1.79a1.34,1.34,0,0,0-1.51-1.37,1.39,1.39,0,0,0-1.55,1.44v.14h.59v-.17a.86.86,0,0,1,.94-.9.82.82,0,0,1,.91.87c0,.69-.55,1-.93,1.22-.88.56-1.54,1-1.53,2.06h3.07V18H39.54C39.63,17.64,39.88,17.37,40.49,17Z"/><path class="cls-11" d="M25.3,18.42h-.14v.32h1v3.4h.61V17.61h-.43A1,1,0,0,1,25.3,18.42Z"/><path class="cls-13" d="M25.3,18.42h-.14v.32h1v3.4h.61V17.61h-.43A1,1,0,0,1,25.3,18.42Z"/><path class="cls-11" d="M28.41,18.42h-.14v.32h1v3.4h.61V17.61h-.43A1,1,0,0,1,28.41,18.42Z"/><path class="cls-13" d="M28.41,18.42h-.14v.32h1v3.4h.61V17.61h-.43A1,1,0,0,1,28.41,18.42Z"/><path class="cls-11" d="M17.28,26.93h-.14v.32h1v3.4h.61V26.13h-.43A1,1,0,0,1,17.28,26.93Z"/><path class="cls-13" d="M17.28,26.93h-.14v.32h1v3.4h.61V26.13h-.43A1,1,0,0,1,17.28,26.93Z"/><path class="cls-11" d="M21.28,26c-.34,0-1.59.08-1.59,2.4s1.25,2.4,1.59,2.4,1.58-.08,1.58-2.4S21.62,26,21.28,26Zm0,4.29c-.73,0-1-.86-1-1.89s.25-1.89,1-1.89,1,.86,1,1.89S22,30.28,21.28,30.28Z"/><path class="cls-13" d="M21.28,26c-.34,0-1.59.08-1.59,2.4s1.25,2.4,1.59,2.4,1.58-.08,1.58-2.4S21.62,26,21.28,26Zm0,4.29c-.73,0-1-.86-1-1.89s.25-1.89,1-1.89,1,.86,1,1.89S22,30.28,21.28,30.28Z"/><path class="cls-11" d="M15.7,36.72a1.47,1.47,0,0,0-1.55,1.6,1.4,1.4,0,0,0,1.45,1.52,1.34,1.34,0,0,0,1.11-.48h0c0,.71-.16,1.67-1.1,1.67a.8.8,0,0,1-.86-.65h-.55a1.32,1.32,0,0,0,1.4,1.13c.7,0,1.71-.3,1.71-2.46S16.47,36.72,15.7,36.72Zm0,2.63a.93.93,0,0,1-1-1c0-.57.28-1.12.94-1.12a1,1,0,0,1,1,1.1A1,1,0,0,1,15.69,39.35Z"/><path class="cls-13" d="M15.7,36.72a1.47,1.47,0,0,0-1.55,1.6,1.4,1.4,0,0,0,1.45,1.52,1.34,1.34,0,0,0,1.11-.48h0c0,.71-.16,1.67-1.1,1.67a.8.8,0,0,1-.86-.65h-.55a1.32,1.32,0,0,0,1.4,1.13c.7,0,1.71-.3,1.71-2.46S16.47,36.72,15.7,36.72Zm0,2.63a.93.93,0,0,1-1-1c0-.57.28-1.12.94-1.12a1,1,0,0,1,1,1.1A1,1,0,0,1,15.69,39.35Z"/><path class="cls-11" d="M20.1,50.7a1,1,0,0,0,.65-1,1.2,1.2,0,0,0-1.36-1.21A1.2,1.2,0,0,0,18,49.7a1,1,0,0,0,.66,1,1.18,1.18,0,0,0-.82,1.17,1.36,1.36,0,0,0,1.53,1.42,1.36,1.36,0,0,0,1.53-1.42A1.18,1.18,0,0,0,20.1,50.7Zm-1.51-1a.8.8,0,1,1,.8.76A.71.71,0,0,1,18.59,49.72Zm.8,3.08a.91.91,0,0,1-.94-1,.84.84,0,0,1,.94-.89.84.84,0,0,1,.94.89A.91.91,0,0,1,19.39,52.8Z"/><path class="cls-13" d="M20.1,50.7a1,1,0,0,0,.65-1,1.2,1.2,0,0,0-1.36-1.21A1.2,1.2,0,0,0,18,49.7a1,1,0,0,0,.66,1,1.18,1.18,0,0,0-.82,1.17,1.36,1.36,0,0,0,1.53,1.42,1.36,1.36,0,0,0,1.53-1.42A1.18,1.18,0,0,0,20.1,50.7Zm-1.51-1a.8.8,0,1,1,.8.76A.71.71,0,0,1,18.59,49.72Zm.8,3.08a.91.91,0,0,1-.94-1,.84.84,0,0,1,.94-.89.84.84,0,0,1,.94.89A.91.91,0,0,1,19.39,52.8Z"/><path class="cls-11" d="M26.87,57.55h2.71a7.2,7.2,0,0,0-1.26,2,7.54,7.54,0,0,0-.54,2h.65a7.22,7.22,0,0,1,.5-2.08,6.39,6.39,0,0,1,1.26-2V57H26.87Z"/><path class="cls-13" d="M26.87,57.55h2.71a7.2,7.2,0,0,0-1.26,2,7.54,7.54,0,0,0-.54,2h.65a7.22,7.22,0,0,1,.5-2.08,6.39,6.39,0,0,1,1.26-2V57H26.87Z"/><path class="cls-11" d="M38.82,61.46a1.35,1.35,0,0,0-1.11.48h0c0-.71.15-1.67,1.1-1.67a.8.8,0,0,1,.87.64h.54a1.31,1.31,0,0,0-1.4-1.13c-.4,0-1.71,0-1.71,2.46,0,1.82.63,2.34,1.62,2.34A1.47,1.47,0,0,0,40.28,63,1.4,1.4,0,0,0,38.82,61.46Zm-.07,2.63a1,1,0,0,1-1-1.1,1,1,0,0,1,1-1,.94.94,0,0,1,1,1C39.7,63.55,39.42,64.09,38.75,64.09Z"/><path class="cls-13" d="M38.82,61.46a1.35,1.35,0,0,0-1.11.48h0c0-.71.15-1.67,1.1-1.67a.8.8,0,0,1,.87.64h.54a1.31,1.31,0,0,0-1.4-1.13c-.4,0-1.71,0-1.71,2.46,0,1.82.63,2.34,1.62,2.34A1.47,1.47,0,0,0,40.28,63,1.4,1.4,0,0,0,38.82,61.46Zm-.07,2.63a1,1,0,0,1-1-1.1,1,1,0,0,1,1-1,.94.94,0,0,1,1,1C39.7,63.55,39.42,64.09,38.75,64.09Z"/><path class="cls-11" d="M50.36,58.16a1.46,1.46,0,0,0-1,.34l.18-1.34h2v-.51H49.07L48.76,59h.57a1.12,1.12,0,0,1,.89-.39,1,1,0,0,1,1,1.07c0,1.06-.75,1.12-1.05,1.12a.88.88,0,0,1-.93-.81h-.59a1.38,1.38,0,0,0,1.53,1.29,1.48,1.48,0,0,0,1.62-1.61A1.39,1.39,0,0,0,50.36,58.16Z"/><path class="cls-13" d="M50.36,58.16a1.46,1.46,0,0,0-1,.34l.18-1.34h2v-.51H49.07L48.76,59h.57a1.12,1.12,0,0,1,.89-.39,1,1,0,0,1,1,1.07c0,1.06-.75,1.12-1.05,1.12a.88.88,0,0,1-.93-.81h-.59a1.38,1.38,0,0,0,1.53,1.29,1.48,1.48,0,0,0,1.62-1.61A1.39,1.39,0,0,0,50.36,58.16Z"/><path class="cls-11" d="M60,48h-.61L57.3,51v.51h2.13v1H60v-1h.71V51H60Zm-.61,3H57.89l1.55-2.17Z"/><path class="cls-13" d="M60,48h-.61L57.3,51v.51h2.13v1H60v-1h.71V51H60Zm-.61,3H57.89l1.55-2.17Z"/><path class="cls-11" d="M63,39.38h0a1,1,0,0,0,.75-1c0-.36-.18-1.24-1.43-1.24a1.35,1.35,0,0,0-1.46,1.52h.56c0-1,.67-1,.88-1,.71,0,.89.43.89.78,0,.77-.79.78-1,.78H62v.49h.47a.77.77,0,0,1,.83.82.9.9,0,0,1-1,1,.92.92,0,0,1-.95-.88l0-.15h-.58a1.42,1.42,0,0,0,1.58,1.52,1.39,1.39,0,0,0,1.56-1.4A1.06,1.06,0,0,0,63,39.38Z"/><path class="cls-13" d="M63,39.38h0a1,1,0,0,0,.75-1c0-.36-.18-1.24-1.43-1.24a1.35,1.35,0,0,0-1.46,1.52h.56c0-1,.67-1,.88-1,.71,0,.89.43.89.78,0,.77-.79.78-1,.78H62v.49h.47a.77.77,0,0,1,.83.82.9.9,0,0,1-1,1,.92.92,0,0,1-.95-.88l0-.15h-.58a1.42,1.42,0,0,0,1.58,1.52,1.39,1.39,0,0,0,1.56-1.4A1.06,1.06,0,0,0,63,39.38Z"/><path class="cls-11" d="M59.28,28.6c1.05-.67,1.45-.94,1.45-1.79a1.34,1.34,0,0,0-1.51-1.37,1.39,1.39,0,0,0-1.55,1.44V27h.59v-.17a.86.86,0,0,1,.94-.9.82.82,0,0,1,.91.87c0,.69-.55,1-.92,1.22-.88.56-1.54,1-1.53,2.06h3.07v-.51H58.33C58.41,29.26,58.66,29,59.28,28.6Z"/><path class="cls-13" d="M59.28,28.6c1.05-.67,1.45-.94,1.45-1.79a1.34,1.34,0,0,0-1.51-1.37,1.39,1.39,0,0,0-1.55,1.44V27h.59v-.17a.86.86,0,0,1,.94-.9.82.82,0,0,1,.91.87c0,.69-.55,1-.92,1.22-.88.56-1.54,1-1.53,2.06h3.07v-.51H58.33C58.41,29.26,58.66,29,59.28,28.6Z"/><path class="cls-11" d="M49.62,18.35h-.13v.32h1v3.4h.6V17.55H50.7A1,1,0,0,1,49.62,18.35Z"/><path class="cls-13" d="M49.62,18.35h-.13v.32h1v3.4h.6V17.55H50.7A1,1,0,0,1,49.62,18.35Z"/><path class="cls-13" d="M38.45,38.78l-.08-.54,2.15-.42.62.56,8.26-18L38.35,37.06A1.55,1.55,0,0,0,38.45,38.78Z"/><polygon class="cls-14" points="40.52 37.81 38.37 38.24 38.45 38.77 38.71 40.4 50.14 46.48 41.15 38.38 40.52 37.81"/><path class="cls-15" d="M76.48,67.64q0-.55,0-1.1c.15-.08.3-.15.44-.23a1.6,1.6,0,0,0,.8-1.9,1.38,1.38,0,0,0-1.26-.88Q76.32,49,76.19,34.47L76,13.41c0-.52,0-1.11,0-1.72a1.69,1.69,0,0,0,1.19-.81c.61-1-.18-1.7-1.25-2.14,0-.35-.06-.71-.11-1.05a5.35,5.35,0,0,0,.54-.29,1.6,1.6,0,0,0,.8-1.9c-.38-.94-1.33-1-2.34-.78a4.1,4.1,0,0,0-.59-.7c.67-1,1-2.13-.25-2.59s-2.25.35-2.94,1.42h-.15C71,1.41,70.72-.1,69.22,0s-1.77,1.44-1.69,2.78h-.18c-.69-1-1.63-1.77-2.78-1.31a1.2,1.2,0,0,0-.89,1.37c-1,0-2,0-3,.06l-22.87.2L15.34,3.3H13.68A1.11,1.11,0,0,0,12.87,2C11.62,1.5,10.65,2.3,10,3.35H9.78C9.86,1.92,9.56.43,8.07.53S6.3,2,6.39,3.37H6.25C5.56,2.35,4.6,1.54,3.43,2s-1,1.65-.3,2.7a4.87,4.87,0,0,0-.59.64,2,2,0,0,0-2.32.78c-.59,1,.14,1.65,1.15,2.09a12.41,12.41,0,0,0-.15,1.28L1,9.6a1.6,1.6,0,0,0-.8,1.9,1.33,1.33,0,0,0,1,.84c0,.92.09,1.82.1,2.66l.19,21.61q.1,11.54.2,23.08,0,2.29,0,4.57a1.67,1.67,0,0,0-1,.77c-.57.94.08,1.6,1,2,0,0,0,.08,0,.12,0,.4,0,.8,0,1.19l-.22.12a1.6,1.6,0,0,0-.8,1.9,1.41,1.41,0,0,0,1.38.89c0,.09,0,.18.07.27a4.22,4.22,0,0,0,.93,1.51,1.11,1.11,0,0,0,.8,1.39,1.89,1.89,0,0,0,1.55-.06,9.82,9.82,0,0,0,1.67.3A1.43,1.43,0,0,0,8.72,75.9a1.61,1.61,0,0,0,1.51-1.16c.88,0,1.73-.09,2.46-.09L25,74.55l1,3.53.2.07,26.48-.23h0c.13,0,.28,0,.29-.11l.88-3.51,14.5-.12a1.43,1.43,0,0,0,1.58,1.2,1.64,1.64,0,0,0,1.55-1.27A6.16,6.16,0,0,0,73,73.79a1.74,1.74,0,0,0,1.55.11,1.25,1.25,0,0,0,.79-1.77,5.25,5.25,0,0,0,.83-1.5,1.77,1.77,0,0,0,1.6-.85C78.34,68.77,77.54,68.08,76.48,67.64Zm.83-2.83c.18,1.31-1.42,1.85-2.75,2.06a4.84,4.84,0,0,0-.85-2.31C75,63.84,77.07,63.1,77.31,64.81ZM76,67.46a10,10,0,0,0-1.38-.34v0c.28,0,.56-.1.84-.16a4.43,4.43,0,0,0,.54-.18ZM74.26,14.27c-.28.87-1.27.58-1.84.16a4.59,4.59,0,0,1-1.32-1.79A4.63,4.63,0,0,0,73,11.22C73.85,12.06,74.62,13.14,74.26,14.27Zm-.91-3.13.24.11.06,0c0,.07,0,.13,0,.2l-.06-.07Zm.67.78v0c0-.15,0-.3,0-.45a4.8,4.8,0,0,0,1.47.31q.22,25.9.45,51.8a5.66,5.66,0,0,0-1.47.39c0-.18,0-.37,0-.55.87-1.16,1.44-2.51.06-3l-.08,0q-.12-14.47-.25-28.93,0-3.22-.05-6.45,0-2.75,0-5.5l0-4.45C75.46,14.39,74.91,13.06,74,11.92Zm.57,49c.66,1-.29,2.33-1.23,3.25a4.72,4.72,0,0,0-1.83-1.24h0l0,0C72.21,61.45,73.6,59.33,74.6,60.9ZM74,64.12h0l-.25.12L74,64l0,0C74,64,74,64.06,74,64.12Zm2.86-53.73c.09,1.76-2.12,1-3.53.35a5.14,5.14,0,0,0,.77-2.33C75.36,8.59,76.78,9.09,76.85,10.39ZM74.09,8.21c.28,0,.56-.1.84-.16a4.4,4.4,0,0,0,.52-.18c0,.06,0,.11,0,.16s0,.35,0,.53a10,10,0,0,0-1.38-.34Zm2.72-2.29C77,7.23,75.39,7.77,74.05,8a4.85,4.85,0,0,0-.85-2.31C74.54,4.95,76.57,4.21,76.81,5.92Zm-2.43-1a9.23,9.23,0,0,0-1.17.48A10.83,10.83,0,0,0,74,4.46,4,4,0,0,1,74.38,4.87ZM74.09,2c.66,1-.29,2.33-1.23,3.25A4.74,4.74,0,0,0,71,4C71.71,2.56,73.09.43,74.09,2ZM69.42.25c1.27.39,1.19,2.21.93,3.57l.31.09A5.27,5.27,0,0,0,69,3.7a5.21,5.21,0,0,0-.9.1A6.72,6.72,0,0,1,68,2.11C68,1.5,68.46,0,69.42.25Zm4.19,7.9A4.71,4.71,0,0,1,71,12.29c-3,1.6-5.87-1.1-6.05-3.94A3.93,3.93,0,0,1,65.62,6a1.73,1.73,0,0,1,.75-.9,5.41,5.41,0,0,1,1.19-.87C70.59,2.6,73.44,5.3,73.61,8.14Zm-3,6.23c0,.61-.45,2.16-1.41,1.86-1.24-.38-1.19-2.14-.94-3.49a5.75,5.75,0,0,0,.66.15,4.23,4.23,0,0,0,1.59-.06A6.62,6.62,0,0,1,70.57,14.38Zm-3-1.86c-.72,1.44-2.09,3.52-3.08,2-.65-1,.26-2.3,1.18-3.21A5.47,5.47,0,0,0,67.56,12.52Zm-2.25-1.67c-1.33.71-3.31,1.41-3.54-.28-.18-1.3,1.4-1.84,2.73-2.06A4,4,0,0,0,65.31,10.85ZM61.73,6.1c-.09-1.75,2.11-1,3.52-.36a4.88,4.88,0,0,0-.75,2.34C63.21,7.9,61.79,7.4,61.73,6.1ZM67.54,3V3.1L67.46,3Zm-3.22-.74c.28-.87,1.27-.58,1.84-.16A4.72,4.72,0,0,1,67.53,4a4.45,4.45,0,0,0-1.93,1.3C64.72,4.43,64,3.35,64.32,2.22ZM13.5,3.87a2.92,2.92,0,0,0,.13-.36L41.8,3.27l21.7-.19h.24a3,3,0,0,0,.25.63l-5.1,0-6.33.05-7.86.07-6.33.05L30.82,4l-9,.08-8.48.07C13.42,4.05,13.46,4,13.5,3.87Zm1,.5,10.82-.09,8.31-.07,12.11-.1,5.76,0,3.12,0,9.51-.08a8.3,8.3,0,0,0,1.11,1.41c-1.37-.64-3.08-1-3.87.25s.76,2.07,2.22,2.46c.31.08.62.15.9.2v0c-.28,0-.56.1-.84.16h0a4.82,4.82,0,0,0-1.47.64,1.6,1.6,0,0,0-.8,1.9c.41,1,1.47,1,2.57.72a8.62,8.62,0,0,0,1.41-.56,7.8,7.8,0,0,0-1.41,2c-.36.81-.34,1.57.61,1.93a2,2,0,0,0,2.24-.55,5.22,5.22,0,0,0,.87-1.13c-.13,1.51.09,3.23,1.69,3.12h0a1.73,1.73,0,0,0,.87-.29c.78-.53.9-1.69.79-2.8a3,3,0,0,0,2.32,1.75l.2,0h0c0,.24,0,.48,0,.7s0,.26,0,.4q.1,11.18.19,22.37,0,5.58.1,11.16,0,5.24.09,10.48h-.15A3.08,3.08,0,0,0,71.41,62c.11-1.23,0-2.6-.93-3a1.44,1.44,0,0,0-.46-.11,1.82,1.82,0,0,0-.3,0c-1.48.1-1.78,1.48-1.68,2.84,0,.06,0,.12,0,.18V62L68,61.9a3.15,3.15,0,0,0-2.07-1.64c.24-.32.48-.64.71-1s.58-.83.86-1.26A34.28,34.28,0,0,0,17.72,12.27q-1.16.91-2.25,1.91l-.8.76q-1.14,1.13-2.18,2.37a34.15,34.15,0,0,0-.79,43.07h0l.35.45a3.7,3.7,0,0,0-1.8,1.72c.13-1.51-.09-3.24-1.69-3.12l-.24,0a1.82,1.82,0,0,0-.33.09c-1,.41-1.21,1.72-1.08,3a3.43,3.43,0,0,0-2-1.72,1.7,1.7,0,0,0-.78,0q0-4.86-.08-9.73Q4,45.2,4,39.29l-.09-10.2L3.77,15.67h0C5,15.88,5.9,15,6.53,13.89c-.1,1.11,0,2.32.68,2.85a1.29,1.29,0,0,0,.64.26,1.78,1.78,0,0,0,.36,0c1.57-.11,1.81-1.65,1.66-3.09.7,1.14,1.72,2.12,3,1.62a1.29,1.29,0,0,0,.72-1.95v0a7,7,0,0,0-1.36-1.9c1.37.64,3.08,1,3.87-.25a1.56,1.56,0,0,0,.12-.26,1,1,0,0,0-.1-1c-.54-.77-2.05-1.2-3.14-1.39v0c.28,0,.56-.1.84-.16a4.8,4.8,0,0,0,1.47-.64,2,2,0,0,0,.81-1,1.28,1.28,0,0,0,0-.93,1.34,1.34,0,0,0-1-.86,5.25,5.25,0,0,0-2.93.7,8.77,8.77,0,0,0,1.24-1.63A2,2,0,0,1,14.49,4.37ZM71.18,62.8a5.3,5.3,0,0,0-1.63-.21,5.21,5.21,0,0,0-.9.1A6.72,6.72,0,0,1,68.52,61c0-.61.45-2.16,1.41-1.86,1.27.39,1.19,2.21.93,3.57ZM64.7,71.54c-.06.11-.12.22-.18.32-1.3,0-2.55-.1-3.6-.09l-11.32.1h0a34.25,34.25,0,0,0,12.1-7C61.33,66,62.86,66.65,64.23,67l.75.16v0c-.26,0-.52.09-.78.15h-.06a4.79,4.79,0,0,0-1.47.64,1.6,1.6,0,0,0-.8,1.9c.59,1.45,2.55.87,4,.16A9.18,9.18,0,0,0,64.7,71.54Zm1.48-1.38a5.46,5.46,0,0,0,1.89,1.26c-.72,1.44-2.09,3.52-3.08,2C64.34,72.34,65.25,71.07,66.18,70.16ZM12.23,64.68a4.73,4.73,0,0,0-1.87-1.26A5.93,5.93,0,0,1,12.2,61q.68.83,1.41,1.62A4.88,4.88,0,0,1,12.23,64.68Zm1.69-1.73q.53.56,1.09,1.09a6.41,6.41,0,0,0-2.43.73A8.27,8.27,0,0,0,13.92,62.95Zm1.4,1.39.78.71a1.7,1.7,0,0,1,.07.29c.18,1.31-1.42,1.85-2.75,2.06a4.85,4.85,0,0,0-.85-2.31A4.75,4.75,0,0,1,15.32,64.33Zm-1.87,3.5c1.28.18,2.7.67,2.76,2,.09,1.76-2.12,1-3.53.36A5.14,5.14,0,0,0,13.45,67.83Zm2,3.26a1.68,1.68,0,0,0,1.09-.79,1.08,1.08,0,0,0,0-1.28c-.55-.76-2-1.19-3.13-1.37v0c.28,0,.56-.1.84-.16a4.8,4.8,0,0,0,1.47-.64,2,2,0,0,0,.8-.95,1.34,1.34,0,0,0,.09-.36A34.22,34.22,0,0,0,28.48,72l-12.33.11c-.65,0-1.4,0-2.18.08l-.1-.18a8.08,8.08,0,0,0-1.16-1.49A4.6,4.6,0,0,0,15.49,71.09Zm-.61-7.87a33.79,33.79,0,1,1,23.9,9.9A33.69,33.69,0,0,1,14.88,63.22Zm49.43-1a6.64,6.64,0,0,0,1.42,2,7.38,7.38,0,0,0-1.21-.45,3.15,3.15,0,0,0-1.67-.06q.71-.71,1.39-1.45Zm-2,7.25c-.18-1.3,1.4-1.84,2.73-2.06a4,4,0,0,0,.82,2.34C64.49,70.45,62.51,71.15,62.27,69.46Zm0-4.47c-.09-1.75,2.11-1,3.52-.36A4.87,4.87,0,0,0,65,67C63.72,66.79,62.3,66.29,62.23,65Zm2.5-3.27q.49-.57,1-1.17a2,2,0,0,1,1,.39A4.72,4.72,0,0,1,68,62.85a4.44,4.44,0,0,0-1.93,1.31A3.72,3.72,0,0,1,64.74,61.72ZM10,63.33a5.29,5.29,0,0,0-1.62-.21,5.2,5.2,0,0,0-.9.1,6.73,6.73,0,0,1-.14-1.69c0-.61.45-2.16,1.41-1.86,1.27.39,1.19,2.2.93,3.57ZM3.68,61.64c.28-.87,1.27-.58,1.84-.16a4.73,4.73,0,0,1,1.37,1.9A4.45,4.45,0,0,0,5,64.68C4.09,63.85,3.32,62.77,3.68,61.64Zm.91,3.13-.4-.17c0-.09,0-.18,0-.27Zm-.06-53A5.46,5.46,0,0,0,6.42,13c-.72,1.44-2.09,3.52-3.08,2C2.69,14,3.6,12.7,4.53,11.79Zm-.79.09.48-.22c-.16.17-.32.35-.48.54Zm3.33,1.39a5.88,5.88,0,0,0,.66.15,4.23,4.23,0,0,0,1.59-.06,6.62,6.62,0,0,1,.11,1.53c0,.61-.45,2.16-1.41,1.86C6.77,16.39,6.82,14.62,7.07,13.27Zm5.87-4.33c1.28.18,2.7.67,2.76,2,.09,1.76-2.12,1-3.53.35A5.14,5.14,0,0,0,12.94,8.94Zm0-.43a4.85,4.85,0,0,0-.85-2.31c1.33-.72,3.37-1.46,3.61.25C15.85,7.75,14.24,8.3,12.91,8.51Zm-3,4.66a4.63,4.63,0,0,0,1.88-1.42c.87.83,1.64,1.91,1.28,3-.28.87-1.27.58-1.84.16A4.59,4.59,0,0,1,10,13.17Zm3-10.63c.66,1-.28,2.34-1.23,3.25A4.73,4.73,0,0,0,9.89,4.55h0l0,0C10.56,3.08,11.95,1,12.95,2.54Zm-3.18,1h.05l-.06.11ZM8.28.77c1.27.39,1.19,2.21.93,3.57l.33.1a5.28,5.28,0,0,0-1.66-.22,5.14,5.14,0,0,0-.88.1,6.73,6.73,0,0,1-.14-1.69C6.9,2,7.32.48,8.28.77ZM6.41,3.59v0l0,0Zm0,1.13c3-1.6,5.87,1.1,6.05,3.95a4.71,4.71,0,0,1-2.6,4.14c-3,1.6-5.87-1.1-6.05-3.95a3.92,3.92,0,0,1,.66-2.38,1.72,1.72,0,0,1,.75-.9A5.42,5.42,0,0,1,6.42,4.72Zm-3.25-2c.28-.87,1.27-.58,1.84-.17a4.72,4.72,0,0,1,1.37,1.9A4.45,4.45,0,0,0,4.45,5.79C3.58,5,2.81,3.87,3.17,2.74Zm.09,2.17a9.41,9.41,0,0,0,.82,1,7.43,7.43,0,0,0-1.2-.45A4.33,4.33,0,0,1,3.27,4.91ZM.58,6.62c-.09-1.75,2.11-1,3.52-.36A4.87,4.87,0,0,0,3.35,8.6C2.07,8.42.65,7.93.58,6.62ZM3.29,8.78v0h0c-.26,0-.52.09-.78.16a4.45,4.45,0,0,0-.77.26c0-.28.06-.55.1-.82a9.77,9.77,0,0,0,1.45.37ZM.62,11.1C.44,9.8,2,9.25,3.35,9a4,4,0,0,0,.82,2.34C2.84,12.08.86,12.78.62,11.1Zm1,1.3a4.71,4.71,0,0,0,1.58-.32q0,.38,0,.76c-.71,1-1.07,2.16,0,2.67l.14,16.86,0,4.91q.05,5.89.1,11.78t.1,12c-1,.58-.68,1.67,0,2.67v.71a4,4,0,0,0-1.63-.23c.05-1.32.13-2.52.12-3.41Q2.1,49.43,2,38.08L1.82,16C1.81,15,1.71,13.72,1.67,12.4ZM1.09,65.52c-.09-1.75,2.11-1,3.52-.36a4.87,4.87,0,0,0-.75,2.34C2.58,67.31,1.16,66.82,1.09,65.52ZM3.84,67.7c-.28,0-.56.1-.83.16a4.47,4.47,0,0,0-.9.33c0-.33,0-.66-.06-1a9.32,9.32,0,0,0,1.79.49S3.84,67.69,3.84,67.7ZM1.13,70c-.18-1.3,1.4-1.84,2.73-2.06a4,4,0,0,0,.82,2.34C3.34,71,1.37,71.67,1.13,70Zm2.19,2.53a5.9,5.9,0,0,1-.62-1.27,7.34,7.34,0,0,0,2-.69A7.82,7.82,0,0,0,3.32,72.52Zm.53,1.38c-.66-1,.26-2.3,1.19-3.21a5.47,5.47,0,0,0,1.9,1.26C6.21,73.39,4.84,75.46,3.85,73.9Zm1.92.34A4.48,4.48,0,0,0,7,72.78a6,6,0,0,0,.06,1.68A7.29,7.29,0,0,1,5.77,74.23Zm2.75,1.43c-1.24-.38-1.19-2.14-.94-3.49a5.83,5.83,0,0,0,.66.15,4.23,4.23,0,0,0,1.59-.06,6.63,6.63,0,0,1,.11,1.53C9.9,74.41,9.48,76,8.52,75.66Zm-4.19-7.9A3.91,3.91,0,0,1,5,65.38a1.72,1.72,0,0,1,.75-.9,5.41,5.41,0,0,1,1.19-.86c3-1.6,5.87,1.1,6,3.95a4.71,4.71,0,0,1-2.6,4.14C7.35,73.31,4.5,70.61,4.32,67.76Zm6,6.71a5.08,5.08,0,0,0,.07-1.66,3.74,3.74,0,0,0,1.75,1.65Zm1.47-.62a4.59,4.59,0,0,1-1.32-1.79,4.63,4.63,0,0,0,1.88-1.42c.87.83,1.64,1.92,1.28,3C13.34,74.56,12.35,74.27,11.78,73.85ZM52.6,77.12l-.15.59-17.84.15-8.08.07c-.35,0-.52-1.49-.73-2.25l-.31-1.14H26l7.45-.06,7.43-.06,12.4-.11Zm13.54-3c-1.1,0-2.15-.08-3-.07l-22.18.19-23.11.2-4.5,0,.06,0a1.24,1.24,0,0,0,.81-1.71,3,3,0,0,0-.12-.31l6.46-.06,7.25-.06h1.52a34.35,34.35,0,0,0,19.6-.17L64.47,72c-.38.83-.37,1.6.6,2,1.37.52,2.41-.5,3.11-1.69a5.77,5.77,0,0,0,.09,1.82v0C67.56,74.12,66.84,74.11,66.14,74.09Zm3.52,1c-1.24-.38-1.19-2.14-.94-3.49a5.9,5.9,0,0,0,.66.15A4.23,4.23,0,0,0,71,71.74a6.62,6.62,0,0,1,.11,1.53C71,73.88,70.62,75.43,69.66,75.13Zm-4.19-7.9a3.93,3.93,0,0,1,.66-2.39,1.73,1.73,0,0,1,.75-.89,5.4,5.4,0,0,1,1.19-.87c3-1.6,5.87,1.1,6,3.95a4.71,4.71,0,0,1-2.6,4.14C68.49,72.78,65.65,70.08,65.47,67.23Zm6,6.54a5.42,5.42,0,0,0,0-1.5,5.06,5.06,0,0,0,1,1.21A8.94,8.94,0,0,1,71.5,73.78Zm3.27-.62c-.28.87-1.27.58-1.84.16a4.59,4.59,0,0,1-1.32-1.79,4.63,4.63,0,0,0,1.87-1.42C74.36,71,75.12,72,74.76,73.16Zm.34-1.47A7.64,7.64,0,0,0,73.85,70a6.37,6.37,0,0,0,1.8.57A4.49,4.49,0,0,1,75.1,71.69Zm-1.28-2.05a5.14,5.14,0,0,0,.77-2.33c1.28.18,2.7.67,2.76,2C77.44,71,75.23,70.32,73.82,69.64Z"/><path class="cls-15" d="M52.13,62.26l.13-.07h0Z"/><path class="cls-15" d="M38.77,9.29a29.52,29.52,0,0,0-21,8.8,30.24,30.24,0,0,0,0,42.48,29.56,29.56,0,0,0,42.08,0,30.24,30.24,0,0,0,0-42.48A29.52,29.52,0,0,0,38.77,9.29ZM39,9.8q1.31,0,2.6.14l-.17,1.65.5.05L42.12,10c.87.1,1.72.23,2.56.41L44.34,12l.49.1.35-1.61q1.27.29,2.5.68l-.51,1.56.47.15.51-1.56q1.23.42,2.41.94l-.66,1.48.46.2L51,12.5q1.17.54,2.28,1.19l-1.63,2.53A26.31,26.31,0,0,0,39,12.94ZM26.55,12.49,27.21,14l.46-.2L27,12.28q1.18-.52,2.41-.94l.5,1.56.48-.15-.51-1.56c.82-.26,1.65-.49,2.5-.68l.34,1.62.49-.1-.34-1.63c.84-.17,1.7-.3,2.56-.4l.17,1.65.5-.05-.17-1.65q1.28-.12,2.59-.13V13a26.3,26.3,0,0,0-12.66,3.43l-1.61-2.69Q25.38,13,26.55,12.49ZM14.89,22.29l1.19.86.29-.4-1.2-.87q.76-1,1.6-2l1.11,1,.34-.37-1.12-1q.48-.53,1-1c.27-.27.55-.53.83-.79l1,1.14.37-.33-1-1.14c.64-.58,1.3-1.13,2-1.65l.92,1.27.41-.29-.92-1.27c.7-.51,1.41-1,2.15-1.43l1.61,2.69A26.55,26.55,0,0,0,16,26.1L13.5,24.47Q14.15,23.34,14.89,22.29ZM9.66,36.52l1.37.14.05-.5L9.71,36c.09-.86.22-1.7.39-2.53l1.36.29.1-.49L10.2,33c.18-.84.39-1.67.64-2.48l1.35.44.15-.48L11,30c.27-.82.57-1.62.9-2.4l1.31.58.2-.46-1.31-.58q.52-1.17,1.14-2.28l2.55,1.63a26.31,26.31,0,0,0-3.32,12.55H9.53Q9.54,37.79,9.66,36.52Zm2.46,15,1.3-.58-.2-.46-1.3.58c-.33-.78-.63-1.59-.9-2.4l1.34-.43-.15-.48-1.34.43c-.25-.81-.46-1.64-.64-2.48l1.36-.29-.1-.49-1.36.29c-.17-.83-.29-1.68-.39-2.53l1.37-.14L11,42l-1.37.15q-.12-1.26-.13-2.56h2.94a26.31,26.31,0,0,0,3.44,12.84l-2.64,1.37Q12.64,52.67,12.11,51.48Zm9.57,11.81L22.59,62l-.4-.29L21.27,63c-.69-.52-1.35-1.07-2-1.65l1-1.13-.37-.34-1,1.13c-.28-.26-.56-.53-.83-.8s-.66-.68-1-1l1.12-1-.34-.37-1.11,1q-.84-1-1.6-2l1.19-.86-.29-.4-1.18.86q-.73-1-1.37-2.15l2.64-1.37A26.56,26.56,0,0,0,25.24,62l-1.42,2.7C23.08,64.27,22.37,63.8,21.68,63.29Zm16.85,5.57q-1.31,0-2.59-.13l.17-1.64-.5-.05-.17,1.64c-.86-.1-1.72-.23-2.56-.4l.34-1.61-.49-.1-.34,1.6c-.85-.19-1.68-.41-2.5-.68l.5-1.55-.48-.15-.5,1.54q-1.23-.42-2.41-.94l.66-1.47-.46-.2-.65,1.47q-1.18-.55-2.3-1.2l1.42-2.71A26.3,26.3,0,0,0,38.53,65.8Zm-18-11.15a25.94,25.94,0,1,1,18.34,7.6A25.85,25.85,0,0,1,20.56,57.72Zm42.1-1.33-1.18-.86-.29.41,1.19.86q-.76,1-1.61,2l-1.11-1-.33.37,1.11,1q-.48.53-1,1c-.27.27-.55.54-.83.8l-1-1.13-.37.33,1,1.13c-.64.58-1.3,1.13-2,1.65l-.91-1.26L55,62l.91,1.26q-1,.76-2.15,1.43l-1.46-2.54-.13.07-.3.17L53.29,65q-1.12.65-2.29,1.19l-.65-1.46-.46.2.65,1.47q-1.18.52-2.41.94l-.5-1.54-.47.15.5,1.55c-.82.26-1.65.49-2.5.68l-.34-1.6-.49.1.34,1.61c-.84.17-1.7.3-2.56.4L41.94,67l-.5.05.17,1.64q-1.28.12-2.59.13V65.81a26.3,26.3,0,0,0,13.1-3.55l.13-.07h0a26.57,26.57,0,0,0,9.38-9.33L64,54.22Q63.39,55.33,62.66,56.38ZM65.45,27.2l-1.3.58.2.46,1.3-.58c.33.78.63,1.59.9,2.4l-1.33.43.15.48,1.34-.44c.25.81.46,1.64.64,2.48L66,33.3l.1.49,1.36-.29q.25,1.25.39,2.53l-1.37.14.05.5,1.37-.14Q68,37.8,68,39.09H65.37v.5H68q0,1.29-.13,2.56L66.53,42l-.05.5,1.37.14q-.14,1.28-.39,2.53L66.1,44.9l-.1.49,1.35.29c-.18.84-.39,1.67-.65,2.48l-1.33-.43-.15.48,1.33.43c-.27.82-.57,1.62-.9,2.4l-1.29-.58-.2.46,1.29.58q-.53,1.18-1.15,2.3l-2.39-1.36a26.4,26.4,0,0,0-.06-26.19l2.46-1.34Q64.92,26,65.45,27.2Zm-5.78-6.32,1.11-1q.84,1,1.6,2l-1.19.87.29.4,1.19-.86q.73,1,1.38,2.16L61.59,25.8a26.57,26.57,0,0,0-9.49-9.33l1.63-2.53q1.11.67,2.16,1.44L55,16.64l.4.29.92-1.26c.69.52,1.35,1.07,2,1.65l-1,1.14.37.33,1-1.14c.28.26.55.52.81.78s.67.69,1,1.05l-1.12,1Z"/></g></g></svg>