<svg xmlns="http://www.w3.org/2000/svg" viewBox="0 0 45.73 45.73"><defs><style>.cls-1{fill:#fff;}</style></defs><title>Ресурс 19clock</title><g id="Слой_2" data-name="Слой 2"><g id="Layer_1" data-name="Layer 1"><circle class="cls-1" cx="22.87" cy="22.87" r="22.63"/><path d="M0,22.87A22.86,22.86,0,0,1,22.87,0h0A22.86,22.86,0,0,1,45.73,22.87h0A22.86,22.86,0,0,1,22.87,45.73h0A22.86,22.86,0,0,1,0,22.87Zm.46,0a22.43,22.43,0,0,0,22.4,22.4h0a22.43,22.43,0,0,0,22.4-22.4h0A22.43,22.43,0,0,0,22.87.47h0A22.43,22.43,0,0,0,.47,22.87Z"/><path d="M31.79,6.6c.27,0,.49.45.49,1v2.74c0,.55-.19,1-.42,1s-.42-.45-.42-1V9.8c0-.55,0-1.27,0-1.59V8.14a.25.25,0,0,0-.1-.17A.77.77,0,0,0,31,7.91s-.08-.12-.08-.28.32-.45.71-.65Z"/><path d="M37.72,17.14c.5,0,.91.18.91.4s-.41.41-.92.41-.92-.15-.92-.34a5.29,5.29,0,0,1,.4-1.29s.46-1.09.57-1.39a2.34,2.34,0,0,0,.15-.7.67.67,0,0,0,0-.29.15.15,0,0,0-.28,0,1.24,1.24,0,0,0,0,.42.42.42,0,0,1-.37.45c-.2,0-.37,0-.37-.09s0-.3,0-.56l0-.15a1.35,1.35,0,0,1,.14-.45.84.84,0,0,1,.29-.34.8.8,0,0,1,.43-.11.87.87,0,0,1,.75.35,1.46,1.46,0,0,1,.25.89,2.83,2.83,0,0,1-.14.86A19.85,19.85,0,0,1,37.72,17.14Z"/><path d="M40.71,22.64a.58.58,0,0,1,.28.3,3.05,3.05,0,0,1,.09,1,3.26,3.26,0,0,1-.09.88.87.87,0,0,1-.31.48,1.11,1.11,0,0,1-1.19,0,.89.89,0,0,1-.3-.46,4.36,4.36,0,0,1-.07-.95.4.4,0,0,1,.42-.38.4.4,0,0,1,.41.39c0,.21,0,.54,0,.72l0,.06a.11.11,0,0,0,.11.08.13.13,0,0,0,.13-.11,2.77,2.77,0,0,0,0-.55c0-.18,0-.47,0-.64l0-.08a.27.27,0,0,0-.13-.17,1,1,0,0,0-.33,0c0-.38.14-.69.32-.7l0,0a.21.21,0,0,0,.1-.14,1.35,1.35,0,0,0,0-.34c0-.15,0-.39,0-.54l0-.05a.12.12,0,0,0-.11-.08.12.12,0,0,0-.12.08,1.23,1.23,0,0,0,0,.36.41.41,0,0,1-.41.39c-.23,0-.42-.09-.42-.2s0-.54.07-1l.15-.16a.9.9,0,0,1,.69-.24.89.89,0,0,1,.81.33,1.69,1.69,0,0,1,.21.92,1.59,1.59,0,0,1-.08.57A.83.83,0,0,1,40.71,22.64Z"/><path d="M37.65,28.56c.3,0,.55.45.55,1v1.1a2.24,2.24,0,0,0,.12,1c.06,0,.12.18.12.4s-.05.4-.12.4-.12.19-.12.42a.42.42,0,0,1-.83,0,.46.46,0,0,0-.49-.42.46.46,0,0,1-.5-.4,8.8,8.8,0,0,1,.23-1.39l.26-1.13C37,29,37.34,28.56,37.65,28.56Zm-.46,3.1c.1,0,.18-.45.18-1v0c0-.55-.08-.55-.18,0v0C37.08,31.21,37.08,31.66,37.18,31.66Z"/><path d="M31,34.21c.49,0,.89.17.89.38s-.23.38-.52.38a.47.47,0,0,0-.52.4c0,.22.13.26.29.08h.2a.58.58,0,0,1,.52.27A2.13,2.13,0,0,1,32,36.77c0,.37,0,.94,0,1.26l0,.16a1.23,1.23,0,0,1-.14.44.77.77,0,0,1-.31.31,1,1,0,0,1-.49.11,1,1,0,0,1-.57-.16.86.86,0,0,1-.35-.48,3.41,3.41,0,0,1-.1-1c0-.14.19-.26.42-.26s.42.07.42.15,0,.38,0,.67v.13c0,.13.07.19.16.19a.12.12,0,0,0,.1-.05.23.23,0,0,0,0-.12s0-.23,0-.56c0-.52,0-1.07,0-1.24l0-.06a.14.14,0,0,0-.13-.1.12.12,0,0,0-.1.05.28.28,0,0,0-.05.11,1.75,1.75,0,0,0,0,.26.91.91,0,0,1-.81-1v-.39A1,1,0,0,1,31,34.21Z"/><path d="M23.81,37.38c-.46,0-.83-.16-.83-.36V37a.28.28,0,0,0,0-.14.14.14,0,0,0-.12-.06.13.13,0,0,0-.11.05.27.27,0,0,0,0,.14c0,.06,0,.18,0,.36,0,.42,0,.66.11.53l.08-.06a.48.48,0,0,1,.31-.09.55.55,0,0,1,.4.17.81.81,0,0,1,.22.42,3.83,3.83,0,0,1,0,.67c0,.21,0,.64,0,1l0,.16a1.16,1.16,0,0,1-.14.45.83.83,0,0,1-.32.32,1,1,0,0,1-.47.11,1,1,0,0,1-.55-.13.87.87,0,0,1-.33-.38,1.45,1.45,0,0,1-.13-.52c0-.18,0-.53,0-1.06,0-.36,0-1.08,0-1.6v-.19a1.42,1.42,0,0,1,.14-.54.88.88,0,0,1,.34-.38,1,1,0,0,1,.5-.13,1,1,0,0,1,.57.16.88.88,0,0,1,.32.45A2.4,2.4,0,0,1,23.81,37.38ZM23,39.74c0-.49,0-1,0-1.17l0-.06a.13.13,0,0,0-.13-.09.13.13,0,0,0-.13.09,1,1,0,0,0,0,.35c0,.47,0,1,0,1.2l0,.07a.13.13,0,0,0,.13.1.15.15,0,0,0,.11-.08A.79.79,0,0,0,23,39.74Z"/><path d="M14.29,34.29c.44,0,.8.23.8.52a14.14,14.14,0,0,1-.14,1.51L14.69,38c-.08.54-.33,1-.56,1s-.35-.45-.26-1l.29-1.9c.08-.55,0-1-.26-1a.42.42,0,0,1-.41-.43C13.49,34.48,13.85,34.29,14.29,34.29Z"/><path d="M8.84,30.52a.69.69,0,0,1,.28.32,3,3,0,0,1,.1,1,3.31,3.31,0,0,1-.08.85.85.85,0,0,1-.3.45,1,1,0,0,1-.61.17.94.94,0,0,1-.59-.17.91.91,0,0,1-.31-.44,3.12,3.12,0,0,1-.09-.92,5.31,5.31,0,0,1,0-.75.75.75,0,0,1,.29-.51.62.62,0,0,1-.23-.34,1.84,1.84,0,0,1-.08-.58,1.47,1.47,0,0,1,.24-.92.85.85,0,0,1,.71-.31A.84.84,0,0,1,9,28.7a1.72,1.72,0,0,1,.21.93,1.57,1.57,0,0,1-.07.55A.85.85,0,0,1,8.84,30.52Zm-.45,1.56c0-.33,0-.74,0-.91l0-.06A.13.13,0,0,0,8.22,31a.13.13,0,0,0-.12.09,1.18,1.18,0,0,0,0,.37c0,.34,0,.77,0,1l0,.06a.13.13,0,0,0,.13.09.12.12,0,0,0,.12-.09A1.65,1.65,0,0,0,8.38,32.08Zm0-2.25c0-.18,0-.44,0-.59l0-.05a.11.11,0,0,0-.11-.08.11.11,0,0,0-.11.08,1.14,1.14,0,0,0,0,.31c0,.2,0,.47,0,.6l0,.05a.12.12,0,0,0,.11.08.11.11,0,0,0,.11-.08A1.28,1.28,0,0,0,8.37,29.83Z"/><path d="M5,23.81c.46,0,.83.16.83.36v.06a.26.26,0,0,0,0,.14.14.14,0,0,0,.12.06.13.13,0,0,0,.11-.05.27.27,0,0,0,0-.14c0-.06,0-.18,0-.35,0-.42,0-.66-.1-.53L6,23.41a.49.49,0,0,1-.31.09.55.55,0,0,1-.4-.17.8.8,0,0,1-.22-.42,3.64,3.64,0,0,1,0-.67c0-.21,0-.64,0-1l0-.16a1.19,1.19,0,0,1,.14-.45.81.81,0,0,1,.32-.32A1,1,0,0,1,6,20.24a1,1,0,0,1,.55.13.88.88,0,0,1,.33.38,1.43,1.43,0,0,1,.13.52c0,.18,0,.53,0,1.05,0,.36,0,1.08,0,1.6v.19a1.4,1.4,0,0,1-.14.54.89.89,0,0,1-.34.38,1,1,0,0,1-.5.13A1,1,0,0,1,5.46,25a.89.89,0,0,1-.32-.46A2.35,2.35,0,0,1,5,23.81Zm.83-2.37c0,.49,0,1,0,1.21l0,0a.15.15,0,0,0,.11.07.13.13,0,0,0,.13-.09,1,1,0,0,0,0-.35c0-.47,0-1,0-1.2l0-.07A.13.13,0,0,0,6,21S6,21,5.93,21A.83.83,0,0,0,5.87,21.45Z"/><path d="M7.39,12.76c.27,0,.49.45.49,1V16.5c0,.55-.19,1-.42,1S7,17,7,16.5V16c0-.55,0-1.26,0-1.59v-.08a.24.24,0,0,0-.1-.17.78.78,0,0,0-.37-.06s-.08-.12-.08-.28.32-.45.71-.65Z"/><path d="M10.17,14.36v.58c0,.55,0,1.28,0,1.62l0,.16a1.29,1.29,0,0,1-.17.46.79.79,0,0,1-.31.31.87.87,0,0,1-.41.09,1.09,1.09,0,0,1-.5-.1.73.73,0,0,1-.32-.3,1.56,1.56,0,0,1-.17-.44,3.91,3.91,0,0,1,0-.73v-.66c0-.55,0-1.34,0-1.76l.05-.22a1,1,0,0,1,.32-.52.87.87,0,0,1,.57-.2.91.91,0,0,1,.49.14.9.9,0,0,1,.32.33,1.35,1.35,0,0,1,.15.44A5.72,5.72,0,0,1,10.17,14.36Zm-.83.6c0-.55,0-1.18,0-1.41l0-.06a.11.11,0,0,0-.12-.1.12.12,0,0,0-.12.1A2.2,2.2,0,0,0,9,14v1.31c0,.55,0,1.2,0,1.44l0,.06a.11.11,0,0,0,.12.08.12.12,0,0,0,.12-.1,2.06,2.06,0,0,0,0-.45Z"/><path d="M13.71,6.55c.27,0,.49.45.49,1v2.74c0,.55-.19,1-.42,1s-.42-.45-.42-1V9.75c0-.55,0-1.26,0-1.59V8.09a.24.24,0,0,0-.1-.17.79.79,0,0,0-.37-.06s-.08-.12-.08-.28.32-.45.71-.65Z"/><path d="M15.32,6.55c.27,0,.49.45.49,1v2.74c0,.55-.19,1-.42,1s-.42-.45-.42-1V9.75c0-.55,0-1.26,0-1.59V8.09a.24.24,0,0,0-.1-.17.78.78,0,0,0-.37-.06s-.08-.12-.08-.28.32-.45.71-.65Z"/><path d="M22,4.2c.27,0,.49.45.49,1V7.94c0,.55-.19,1-.42,1s-.41-.45-.41-1V7.4c0-.55,0-1.26,0-1.59V5.74a.24.24,0,0,0-.1-.17.77.77,0,0,0-.37-.06s-.08-.12-.08-.28.32-.45.71-.65Z"/><path d="M23.67,8.13c.5,0,.91.18.91.4s-.41.4-.92.4-.92-.15-.92-.34a5.31,5.31,0,0,1,.4-1.29s.46-1.09.57-1.39a2.38,2.38,0,0,0,.15-.7.69.69,0,0,0,0-.29.15.15,0,0,0-.14-.1.15.15,0,0,0-.14.11,1.24,1.24,0,0,0,0,.42.42.42,0,0,1-.37.45c-.21,0-.37,0-.37-.09s0-.3,0-.56l0-.15a1.38,1.38,0,0,1,.14-.45.84.84,0,0,1,.29-.34.81.81,0,0,1,.44-.11.87.87,0,0,1,.75.35,1.47,1.47,0,0,1,.25.89,2.86,2.86,0,0,1-.14.86A20,20,0,0,1,23.67,8.13Z"/><path d="M2.67,22.62A20.11,20.11,0,0,1,22.78,2.51h0A20.11,20.11,0,0,1,42.89,22.62h0A20.11,20.11,0,0,1,22.78,42.72h0A20.11,20.11,0,0,1,2.67,22.62Zm6.06-14a19.81,19.81,0,0,0-5.82,14h0a19.8,19.8,0,0,0,5.82,14h0a19.81,19.81,0,0,0,14,5.82h0a19.81,19.81,0,0,0,14-5.82h0a19.8,19.8,0,0,0,5.82-14h0a19.81,19.81,0,0,0-5.82-14h0a19.8,19.8,0,0,0-14-5.82h0a19.81,19.81,0,0,0-14,5.82Z"/><path d="M0,22.74A22.74,22.74,0,0,1,22.74,0h0A22.74,22.74,0,0,1,45.48,22.74h0A22.74,22.74,0,0,1,22.74,45.48h0A22.74,22.74,0,0,1,0,22.74ZM6.83,6.83A22.43,22.43,0,0,0,.24,22.74h0A22.43,22.43,0,0,0,6.83,38.65h0a22.43,22.43,0,0,0,15.91,6.59h0a22.43,22.43,0,0,0,15.91-6.59h0a22.42,22.42,0,0,0,6.59-15.91h0A22.43,22.43,0,0,0,38.65,6.83h0A22.42,22.42,0,0,0,22.74.24h0A22.43,22.43,0,0,0,6.83,6.83Z"/><path d="M3.59,22.69A19.15,19.15,0,0,1,22.74,3.54h0A19.15,19.15,0,0,1,41.89,22.69h0A19.15,19.15,0,0,1,22.74,41.84h0A19.15,19.15,0,0,1,3.59,22.69ZM9.37,9.32A18.85,18.85,0,0,0,3.83,22.69h0A18.85,18.85,0,0,0,9.37,36.06h0A18.84,18.84,0,0,0,22.74,41.6h0a18.85,18.85,0,0,0,13.37-5.54h0a18.85,18.85,0,0,0,5.54-13.37h0A18.86,18.86,0,0,0,36.11,9.32h0A18.85,18.85,0,0,0,22.74,3.78h0A18.85,18.85,0,0,0,9.37,9.32Z"/><circle cx="22.73" cy="22.7" r="1.13"/><rect x="22.67" y="0.06" width="0.17" height="45.28"/><rect x="0.06" y="22.67" width="45.28" height="0.17" transform="translate(-8.22 13.96) rotate(-29.18)"/><rect x="0.12" y="22.79" width="45.28" height="0.17" transform="translate(-8.46 31.05) rotate(-59.82)"/><polygon points="13.52 43.38 13.68 43.45 31.94 2.02 31.78 1.95 13.52 43.38"/><polygon points="15.81 44.25 15.97 44.3 29.65 1.14 29.49 1.09 15.81 44.25"/><polygon points="18.05 44.91 18.21 44.95 27.36 0.6 27.19 0.57 18.05 44.91"/><polygon points="20.36 45.28 20.53 45.3 25.04 0.24 24.87 0.22 20.36 45.28"/><rect x="22.61" y="0.07" width="0.17" height="45.28" transform="translate(-7.3 34.16) rotate(-65.9)"/><polygon points="44.19 29.83 44.24 29.67 1.21 15.59 1.15 15.75 44.19 29.83"/><polygon points="44.9 27.48 44.93 27.31 0.62 17.99 0.59 18.16 44.9 27.48"/><polygon points="45.28 25.09 45.3 24.91 0.24 20.39 0.23 20.56 45.28 25.09"/><polygon points="45.32 20.88 45.31 20.71 0.21 24.71 0.22 24.89 45.32 20.88"/><polygon points="45.01 18.6 44.98 18.43 0.52 27 0.55 27.16 45.01 18.6"/><rect x="0.19" y="22.7" width="45.28" height="0.17" transform="translate(-5.66 7.66) rotate(-16.98)"/><rect x="0.19" y="22.7" width="45.28" height="0.17" transform="translate(-7.15 10.87) rotate(-23.27)"/><polygon points="41.37 9.75 41.27 9.61 4.28 35.73 4.38 35.87 41.37 9.75"/><polygon points="39.87 7.83 39.75 7.7 5.79 37.65 5.9 37.77 39.87 7.83"/><path d="M38.12,6.08,7.45,39.27l.13.12L38.25,6.2A.39.39,0,0,1,38.12,6.08Z"/><path d="M36.29,4.54h0l-27,36.27.14.1,27-36.26A.39.39,0,0,1,36.29,4.54Z"/><rect x="22.74" y="0.13" width="0.17" height="45.28" transform="translate(-2.2 2.44) rotate(-5.84)"/><polygon points="27.13 44.97 27.3 44.93 18.22 0.57 18.05 0.6 27.13 44.97"/><polygon points="29.32 44.48 29.48 44.43 16.05 1.19 15.88 1.24 29.32 44.48"/><rect x="22.59" y="0.19" width="0.17" height="45.28" transform="translate(-7.07 10.56) rotate(-22.77)"/><polygon points="35.52 41.51 35.66 41.41 9.98 4.12 9.84 4.21 35.52 41.51"/><polygon points="37.52 39.98 37.65 39.86 7.99 5.65 7.86 5.76 37.52 39.98"/><path d="M39.35,38,6.21,7.45l-.12.13L39.24,38.15A.38.38,0,0,1,39.35,38Z"/><path d="M41,36.18,4.63,9.35l-.1.14L40.88,36.33A.43.43,0,0,1,41,36.18Z"/><polygon points="33.37 42.76 33.52 42.67 11.85 2.92 11.7 3 33.37 42.76"/><polygon points="42.3 34.15 42.39 34 3.14 11.41 3.06 11.56 42.3 34.15"/><rect x="0.07" y="22.62" width="45.28" height="0.17"/><circle class="cls-1" cx="22.7" cy="22.76" r="4.27"/><path d="M21.93,25.9c0,.17.37.31.81.3h0c.45,0,.8-.16.8-.33L23.21,9.75c0-.17-.37-.31-.81-.3h0c-.44,0-.8.15-.8.33Z"/><path d="M23.25,26.45c.09.22.5.28.91.11h0c.41-.16.67-.48.58-.71l-8.32-21c-.09-.23-.5-.28-.91-.11h0c-.41.16-.67.48-.58.71Z"/><circle cx="22.8" cy="1.27" r="0.95"/><circle cx="12.36" cy="3.98" r="0.95"/><circle cx="4.26" cy="12.11" r="0.95"/><circle cx="1.43" cy="22.76" r="0.95"/><circle cx="4.32" cy="33.05" r="0.95"/><circle cx="12.1" cy="41.02" r="0.95"/><circle cx="22.76" cy="43.96" r="0.95"/><circle cx="32.9" cy="41.37" r="0.95"/><circle cx="44.21" cy="22.7" r="0.95"/><circle cx="41.1" cy="33.45" r="0.95"/><circle cx="41.5" cy="12.33" r="0.95"/><circle cx="33.57" cy="4.31" r="0.95"/></g></g></svg>