<svg xmlns="http://www.w3.org/2000/svg" viewBox="0 0 121.19 123.22"><defs><style>.cls-1{fill:none;}.cls-2{fill:#c30079;}.cls-3{fill:#98ccf2;}.cls-4{fill:#658fca;}.cls-5{fill:#fff;}.cls-6{fill:#a3007b;}.cls-7{fill:#f2f8fd;}.cls-8{fill:#634590;}.cls-9{fill:#92137c;}.cls-10{fill:#1e1e1c;}</style></defs><title>Ресурс 3clock2</title><g id="Слой_2" data-name="Слой 2"><g id="Layer_2" data-name="Layer 2"><path class="cls-1" d="M5,1.19a3.74,3.74,0,0,1,.65-.06,3.66,3.66,0,0,1,1.29.24A2.56,2.56,0,0,0,5,1.19Z"/><path class="cls-1" d="M16.21.68A22.52,22.52,0,0,1,26.57,2.61,19.38,19.38,0,0,0,16.21.68Z"/><path class="cls-1" d="M90.25,122.84,87.58,122A18,18,0,0,0,90.25,122.84Z"/><path class="cls-2" d="M97.9,107.88a57,57,0,0,1-5.29,3.77A60.29,60.29,0,0,1,77,118.56l8.15,2.56c.65.2,1.51.54,2.39.88l2.67.84a3.51,3.51,0,0,0,.62.07h16.89L99.93,111Z"/><path class="cls-2" d="M97.9,107.88l2,3.09,7.83,11.94H90.88a3.51,3.51,0,0,1-.62-.07l.55.17h17.29l-10-15.26Z"/><path class="cls-2" d="M77,118.56l-.2.06L87.58,122c-.88-.33-1.75-.67-2.39-.88Z"/><path class="cls-2" d="M23.27,107.81l-9.89,15.07H27.81c3.43,0,6.45-1.3,9.75-2.33l6.25-2a56.8,56.8,0,0,1-6.58-2.35A60.16,60.16,0,0,1,23.27,107.81Z"/><path class="cls-2" d="M37.57,120.55c-3.31,1-6.33,2.33-9.75,2.33H13.38l9.89-15.07-.19-.15L13,123H30.3l13.8-4.33-.28-.09Z"/><path class="cls-3" d="M106.67,30.55a11.21,11.21,0,0,1,1.69,9.81l-.08,0a51.89,51.89,0,0,1,5,19.06,2.77,2.77,0,0,1,.36.73,23.68,23.68,0,0,1,.54,3.74,24.8,24.8,0,0,1-.06,6.88,37.92,37.92,0,0,1-4.27,12.69c-2.05,3.67-3.5,7.76-5.69,11.31-3.27,5.3-8.64,9.76-13.41,13.65C87.9,110.77,84,114.14,80,114.09a12.67,12.67,0,0,1,2.25-2.71,51.3,51.3,0,0,1-17.48,4.36c-4.13,2.62-10.34,1.91-14.77,1a29.53,29.53,0,0,1-6.26-1.53c-1.7-.74-3.55-1.18-5.22-2a13.64,13.64,0,0,1-5.85-6A52.33,52.33,0,0,1,11.75,79.7h0l-.15-.48h0c-.46-1.46-.85-2.95-1.18-4.46l-.08-.33h0l-.1-.49h0q-.51-2.41-.79-4.89h0l-.05-.5h0a52.76,52.76,0,0,1-.29-5.51,52.18,52.18,0,0,1,29.1-46.8,51.56,51.56,0,0,1,35.15-4,52.28,52.28,0,0,1,33.82,25.89c-1.09-4.71-6.61-9.62-9.49-14.11a27,27,0,0,1-1.92-2.21,26,26,0,0,1-5.15-11.49A58.5,58.5,0,0,0,58.51,2.13,59.85,59.85,0,0,0,31.76,9.74,14.16,14.16,0,0,1,30.14,16a29.74,29.74,0,0,1-12,12.33c-.58.33-1.19.63-1.81.91a52.9,52.9,0,0,0-5.89,9.08C8.1,43,7.79,47.7,6.37,52.57c-.81-1.58-.44-3.85-.28-5.65s.09-3.63.39-5.43,1.18-2.79,1.69-4.33a35.46,35.46,0,0,1,2.93-6.38q-.65.08-1.29.11a56.7,56.7,0,0,0-4.5,9.26C-2.87,61.79,2.21,87,18.75,103.4,36.09,120.56,63,125.77,85.28,115.31a60.06,60.06,0,0,0,34.44-53.9,60.58,60.58,0,0,0-8-29.73A12.85,12.85,0,0,1,106.67,30.55ZM51.38,5.41C46.53,8,40.78,8.17,36.21,11.54c0,.06,0,.12,0,.18H36l.25-.18C35.61,7.3,48.24,5,51.38,5.41ZM15.44,91.95C9,89.25,0,64.89,5.1,58.62c3,4.42,2.75,9.56,3.62,14.67,1.17,6.85,3.8,15,8.88,20Z"/><path class="cls-3" d="M50.63,114.28q2.4.51,4.88.78v-.14c-1.65-.18-3.27-.43-4.87-.76Z"/><path class="cls-3" d="M56,115.07h.36l.41,0L56,115Z"/><path class="cls-3" d="M65.73,115l-.19.15.83-.06V115Z"/><path class="cls-3" d="M46.49,113.22q1.8.54,3.65.95l0-.12c-1.46-.32-2.91-.69-4.32-1.12Z"/><path class="cls-3" d="M77.47,112.66l0,0q2.35-.79,4.6-1.8h0Q79.83,111.89,77.47,112.66Z"/><path class="cls-3" d="M72.22,114.08l0,.09q2.43-.54,4.77-1.3l0-.05Q74.65,113.56,72.22,114.08Z"/><path class="cls-3" d="M66.86,114.94v.12q2.48-.27,4.88-.78l0-.09Q69.34,114.68,66.86,114.94Z"/><path class="cls-2" d="M76.95,118.53l.09,0a60.29,60.29,0,0,0,15.58-6.91,57,57,0,0,0,5.29-3.77l-.11-.17A59.23,59.23,0,0,1,76.95,118.53Z"/><path class="cls-2" d="M97.79,107.71l.11.17.17-.13-.11-.17Z"/><path class="cls-2" d="M76.74,118.59l.09,0,.2-.06-.09,0Z"/><path class="cls-2" d="M23.27,107.81a60.16,60.16,0,0,0,14,8.42,56.8,56.8,0,0,0,6.58,2.35l.24-.08a59.24,59.24,0,0,1-20.74-10.78Z"/><path class="cls-2" d="M23.08,107.66l.19.15.05-.08-.19-.15Z"/><path class="cls-2" d="M43.82,118.59l.28.09.26-.08-.29-.08Z"/><path class="cls-3" d="M60.55,2a59.14,59.14,0,0,0-28.8,7.44c0,.1,0,.2,0,.3A59.85,59.85,0,0,1,58.51,2.13a58.5,58.5,0,0,1,32.08,8.24c0-.08,0-.16,0-.24A59.13,59.13,0,0,0,60.55,2Z"/><path class="cls-3" d="M111.73,31.68a60.58,60.58,0,0,1,8,29.73,60.06,60.06,0,0,1-34.44,53.9C63,125.77,36.09,120.56,18.75,103.4,2.21,87-2.87,61.79,5.3,40.15a56.7,56.7,0,0,1,4.5-9.26H9.55a59.42,59.42,0,0,0,13.39,76.52l.19.15.19.15a59.24,59.24,0,0,0,20.74,10.78l.29.08.29.08a59.37,59.37,0,0,0,31.89,0l.21-.06.21-.06a59.23,59.23,0,0,0,20.84-10.82l.17-.13.17-.13A59.4,59.4,0,0,0,112,31.68Z"/><path class="cls-4" d="M113.67,60.16a2.77,2.77,0,0,0-.36-.73c.08,1.2.14,2.4.14,3.62a52,52,0,0,1-5.28,22.88A52.64,52.64,0,0,1,98,100.5a52.1,52.1,0,0,1-15.72,10.89A12.67,12.67,0,0,0,80,114.09c4,.05,7.89-3.32,10.77-5.66,4.78-3.9,10.14-8.36,13.41-13.65,2.19-3.55,3.64-7.64,5.69-11.31a37.92,37.92,0,0,0,4.27-12.69,24.8,24.8,0,0,0,.06-6.88A23.68,23.68,0,0,0,113.67,60.16Z"/><path class="cls-4" d="M8.17,37.17c-.51,1.54-1.41,2.64-1.69,4.33s-.24,3.62-.39,5.43-.53,4.06.28,5.65C7.79,47.7,8.1,43,10.43,38.33a52.9,52.9,0,0,1,5.89-9.08,18.88,18.88,0,0,1-5.23,1.53A35.46,35.46,0,0,0,8.17,37.17Z"/><path class="cls-4" d="M45.41,112.78l0,.09,1.11.35-.64-.3Z"/><path class="cls-4" d="M56.37,115.06H56v0q2.44.25,4.94.26v-.14c-1.4,0-2.79-.08-4.16-.2Z"/><path class="cls-4" d="M40.3,110.91q2.25,1,4.6,1.8l0-.09q-2.36-.78-4.61-1.76Z"/><path class="cls-4" d="M35,108.17h0l-.67-.38Z"/><path class="cls-4" d="M32.67,107.28a13.64,13.64,0,0,0,5.85,6c1.67.81,3.52,1.26,5.22,2A29.53,29.53,0,0,0,50,116.78c4.43.87,10.65,1.58,14.77-1-1.19.08-2.38.14-3.58.14A51.42,51.42,0,0,1,32.67,107.28Z"/><path class="cls-4" d="M35.46,108.42q2.13,1.24,4.38,2.28l0-.05q-2.26-1-4.4-2.24Z"/><path class="cls-4" d="M61.44,115.37c1.38,0,2.75-.08,4.1-.19l.19-.15c-1.42.12-2.85.19-4.29.2Z"/><path class="cls-4" d="M97.66,24.07c2.87,4.49,8.4,9.4,9.49,14.11q.59,1.08,1.12,2.19l.08,0a11.21,11.21,0,0,0-1.69-9.81A29.16,29.16,0,0,1,97.66,24.07Z"/><path class="cls-5" d="M5.1,58.62C0,64.89,9,89.25,15.44,91.95l2.16,1.35c-5.08-5-7.71-13.15-8.88-20C7.85,68.18,8.12,63,5.1,58.62Z"/><path class="cls-5" d="M36,11.72h.27c0-.06,0-.12,0-.18Z"/><path class="cls-5" d="M36.21,11.54C40.78,8.17,46.53,8,51.38,5.41,48.24,5,35.61,7.3,36.21,11.54Z"/><path class="cls-2" d="M3.15,28.64a7.25,7.25,0,0,0,5.27,2.23A8.16,8.16,0,0,1,3.1,28.58Z"/><path class="cls-2" d="M26.57,2.61A22.52,22.52,0,0,0,16.21.68a19.24,19.24,0,0,0-7.46,2,3.48,3.48,0,0,1,.37.83h.35l0,0c5.23-2.32,17-3.91,19.38,2.86,2,5.58-.23,13.9-6,16.34,1.52-5.53-1-11.66-5.18-15.29-1.92-1.67-5.26-3.78-8.26-3.9l-.31.12a4.1,4.1,0,0,1,.12.8c-.17,3.1-3.53,4-5.63,2.92A20.62,20.62,0,0,0,1.24,24.32c1.22,4.12,3.89,6.91,8.58,6.42a23.53,23.53,0,0,0,12.6-5.83c4.72-4.07,12.51-13.56,7.26-20A12,12,0,0,0,26.57,2.61ZM6.05,20.71c-.63,2.39-1.7,2.1-3.11.41C1,18.8,1.74,13,3.59,11.45l.24,1C3.73,15.25,6.76,18,6.05,20.71Z"/><path class="cls-3" d="M9.8,30.89q.64,0,1.29-.11l0-.09q-.67.11-1.32.15Z"/><path class="cls-3" d="M23.3,24.43a29.15,29.15,0,0,1-6.73,4.5l-.25.33c.62-.28,1.23-.58,1.81-.91A29.74,29.74,0,0,0,30.14,16a14.16,14.16,0,0,0,1.62-6.27l-.24.14C31.42,14.29,28.43,19.88,23.3,24.43Z"/><path class="cls-3" d="M9.55,30.9H9.8l0,0-.25,0Z"/><path class="cls-3" d="M31.51,9.58c0,.1,0,.2,0,.3l.24-.14c0-.1,0-.2,0-.3Z"/><path class="cls-4" d="M11.09,30.78a18.88,18.88,0,0,0,5.23-1.53l.25-.33a20.33,20.33,0,0,1-5.43,1.76Z"/><path class="cls-2" d="M31.51,9.41a6.85,6.85,0,0,0-1.6-4.49,10.44,10.44,0,0,0-3.33-2.31,12,12,0,0,1,3.11,2.31c5.25,6.43-2.54,15.92-7.26,20a23.53,23.53,0,0,1-12.6,5.83c-4.69.49-7.37-2.31-8.58-6.42A20.62,20.62,0,0,1,3.65,7.38L3.4,7.24c-4.74,6.95-3.55,17.57-.3,21.34a8.16,8.16,0,0,0,5.32,2.29c.32,0,.64,0,1,0h.18l.25,0q.65,0,1.32-.15a20.33,20.33,0,0,0,5.43-1.76,29.15,29.15,0,0,0,6.73-4.5c5.13-4.55,8.11-10.14,8.21-14.55,0-.1,0-.2,0-.3S31.51,9.47,31.51,9.41Z"/><path class="cls-2" d="M8.75,2.72a19.24,19.24,0,0,1,7.46-2,18.43,18.43,0,0,0-7.55,1.9Z"/><path class="cls-6" d="M9.51,3.53l0,0c3,.12,6.34,2.23,8.26,3.9,4.17,3.63,6.7,9.75,5.18,15.29,5.75-2.44,8-10.76,6-16.34C26.46-.38,14.74,1.21,9.51,3.53Z"/><path class="cls-6" d="M9.16,3.66l.31-.12H9.12S9.15,3.62,9.16,3.66Z"/><path class="cls-5" d="M3.59,11.45C1.74,13,1,18.8,2.94,21.12c1.41,1.69,2.48,2,3.11-.41.71-2.73-2.32-5.47-2.21-8.29Z"/><path class="cls-3" d="M6.92,1.36a3.66,3.66,0,0,0-1.29-.24A3.74,3.74,0,0,0,5,1.19a3.09,3.09,0,0,0-.55.22,3.38,3.38,0,0,0-2,3.06c.11,2.07,2.11,4.13,4.37,3a3.5,3.5,0,0,0,2-3.06A3.67,3.67,0,0,0,6.92,1.36Zm.67,5.22c-2.2-.26-2.22-2.75-1.47-4.36C8.17,2.49,8.48,5,7.59,6.58Z"/><path class="cls-2" d="M9,3.71a3.19,3.19,0,0,1,.08.7,3.46,3.46,0,0,1-3.47,3.4,3.55,3.55,0,0,1-1.9-.56l-.08.13c2.1,1.11,5.46.18,5.63-2.92a4.1,4.1,0,0,0-.12-.8Z"/><path class="cls-2" d="M8.64,2.78A3.13,3.13,0,0,1,9,3.55h.14a3.48,3.48,0,0,0-.37-.83Z"/><path class="cls-2" d="M8.56,2.64l.08.14.11-.06-.09-.14Z"/><path class="cls-2" d="M3.4,7.24l.25.14.08-.13-.22-.16Z"/><path class="cls-6" d="M9,3.55c0,.05,0,.1.05.16l.13,0s0-.08,0-.12Z"/><path class="cls-3" d="M9,3.55a3.13,3.13,0,0,0-.33-.77l-.08-.14-.11-.15A3.43,3.43,0,0,0,6.92,1.36a3.67,3.67,0,0,1,1.87,3,3.5,3.5,0,0,1-2,3.06c-2.26,1.17-4.26-.89-4.37-3a3.38,3.38,0,0,1,2-3.06A3.09,3.09,0,0,1,5,1.19,3.34,3.34,0,0,0,2.12,4.41,3.33,3.33,0,0,0,3.32,6.94l.19.15.22.16a3.55,3.55,0,0,0,1.9.56A3.46,3.46,0,0,0,9.1,4.41,3.19,3.19,0,0,0,9,3.71C9,3.66,9,3.61,9,3.55Z"/><path class="cls-4" d="M6.12,2.22c-.75,1.61-.72,4.1,1.47,4.36C8.48,5,8.17,2.49,6.12,2.22Z"/><path class="cls-2" d="M115.44,29.27c-5.58,2-13.9-.23-16.34-6,5.53,1.52,11.66-1,15.28-5.18,1.67-1.92,3.78-5.26,3.9-8.26l-.35-.93a4.28,4.28,0,0,1-.75.11h-.06a3.67,3.67,0,0,1-3.68-3.19,3.8,3.8,0,0,1,.66-2.33A19.75,19.75,0,0,0,97.41,1c-2.87.85-5.63,2.36-6.31,5.54-.81,3.85.46,8,2.37,11.3a29.08,29.08,0,0,0,11,11.25c3.58,1.94,8.38,3.49,11.9.62a11.58,11.58,0,0,0,2-2.64A6.2,6.2,0,0,1,115.44,29.27ZM99.88,3.16c2.32-1.93,8.15-1.2,9.67.65l-1,.24C105.75,4,103,7,100.28,6.27,97.89,5.64,98.18,4.57,99.88,3.16Z"/><path class="cls-2" d="M118.7,8.66a3.86,3.86,0,0,1-.46.17,6,6,0,0,1,0,1l0,0A24.85,24.85,0,0,1,120,23.19a21.72,21.72,0,0,0-.6-13.12A15,15,0,0,0,118.7,8.66Z"/><path class="cls-3" d="M97.07,23.19c-3.67-4.14-5.87-8.79-6.36-12.74l-.12-.08a26,26,0,0,0,5.15,11.49,27,27,0,0,0,1.92,2.21q-.23-.35-.43-.7Z"/><path class="cls-3" d="M106.42,30.18l.25.37a12.85,12.85,0,0,0,5.06,1.13l-.15-.27A14.36,14.36,0,0,1,106.42,30.18Z"/><path class="cls-3" d="M90.56,10.14c0,.08,0,.16,0,.24l.12.08c0-.08,0-.16,0-.24Z"/><path class="cls-3" d="M111.58,31.4l.15.27H112l-.16-.28Z"/><path class="cls-4" d="M97.23,23.37q.2.35.43.7a29.16,29.16,0,0,0,9,6.48l-.25-.37A26.89,26.89,0,0,1,97.23,23.37Z"/><path class="cls-2" d="M118.7,8.66a15,15,0,0,1,.67,1.41,21.72,21.72,0,0,1,.6,13.12,9.66,9.66,0,0,1-1.59,3.88,11.58,11.58,0,0,1-2,2.64c-3.52,2.87-8.32,1.33-11.9-.62a29.08,29.08,0,0,1-11-11.25c-1.91-3.35-3.18-7.45-2.37-11.3.67-3.18,3.44-4.69,6.31-5.54a19.75,19.75,0,0,1,16.7,2.51l.15-.21c-7-4.78-17.7-3.55-21.42-.26-1.77,1.57-2.45,4.08-2.18,7,0,.06,0,.11,0,.17s0,.16,0,.24c.49,3.95,2.69,8.6,6.36,12.74l.17.18a26.89,26.89,0,0,0,9.19,6.81,14.36,14.36,0,0,0,5.16,1.23h.37a6.91,6.91,0,0,0,4.63-1.61c3.7-3.29,6.2-13.75,2.33-21.25Z"/><path class="cls-6" d="M117.94,8.93l.35.93a6,6,0,0,0,0-1Z"/><path class="cls-6" d="M118.28,9.85c-.12,3-2.23,6.34-3.9,8.26-3.63,4.17-9.75,6.7-15.28,5.18,2.44,5.75,10.76,8,16.34,6a6.2,6.2,0,0,0,2.95-2.21A9.66,9.66,0,0,0,120,23.19,24.85,24.85,0,0,0,118.3,9.89Z"/><path class="cls-5" d="M99.88,3.16c-1.69,1.4-2,2.48.41,3.11C103,7,105.75,4,108.57,4.06l1-.24C108,2,102.2,1.24,99.88,3.16Z"/><path class="cls-3" d="M117.06,2a4.47,4.47,0,0,1,1.39.32A3.09,3.09,0,0,0,117.08,2Z"/><path class="cls-3" d="M116.51,2.29c-3.47,1-3.39,6.27.49,6.51a3.34,3.34,0,0,0,3.22-3C120.33,3.9,118.82,1.66,116.51,2.29Zm-1.6,5.18c.26-2.2,2.75-2.22,4.36-1.47C119,8.05,116.54,8.36,114.92,7.47Z"/><path class="cls-2" d="M118.23,8.77v.06a3.86,3.86,0,0,0,.46-.17l0-.1A3,3,0,0,1,118.23,8.77Z"/><path class="cls-2" d="M117.08,9a3.46,3.46,0,0,1-3.4-3.47,3.55,3.55,0,0,1,.57-1.92l-.14-.09a3.8,3.8,0,0,0-.66,2.33A3.67,3.67,0,0,0,117.13,9h.06a4.28,4.28,0,0,0,.75-.11l0-.06A3.16,3.16,0,0,1,117.08,9Z"/><path class="cls-2" d="M118.66,8.56l0,.1.2-.12-.06-.1Z"/><path class="cls-2" d="M114.12,3.5l.14.09c0-.07.1-.13.15-.2l-.14-.1Z"/><path class="cls-6" d="M117.92,8.87l0,.06.31-.1V8.77Z"/><path class="cls-3" d="M118.45,2.32A4.47,4.47,0,0,0,117.06,2a3.33,3.33,0,0,0-2.54,1.24l-.12.15c0,.07-.11.13-.15.2a3.55,3.55,0,0,0-.57,1.92A3.46,3.46,0,0,0,117.08,9a3.16,3.16,0,0,0,.83-.12l.31-.1a3,3,0,0,0,.43-.21l.19-.11.12-.08a3.54,3.54,0,0,0,1.4-2.85A3.54,3.54,0,0,0,118.45,2.32Zm1.77,3.51a3.34,3.34,0,0,1-3.22,3c-3.88-.24-4-5.56-.49-6.51C118.82,1.66,120.33,3.9,120.22,5.84Z"/><path class="cls-4" d="M114.92,7.47c1.63.89,4.09.58,4.36-1.47C117.67,5.26,115.18,5.28,114.92,7.47Z"/><path class="cls-7" d="M75.39,12.84c-.68-.19-1.37-.38-2.06-.55C74,12.45,74.7,12.64,75.39,12.84Z"/><path class="cls-7" d="M108.27,40.37q-.54-1.11-1.12-2.19A52.29,52.29,0,0,0,75.39,12.84,51.85,51.85,0,0,1,98,26.22a52.59,52.59,0,0,1,12.67,20.83h0l.15.48h0q.74,2.35,1.25,4.79h.05l.1.49h0q.49,2.41.75,4.89H113l.05.5H113q.24,2.44.25,4.94h.09v.5h-.09q0,2.5-.25,4.94H113l-.05.5h-.07q-.27,2.48-.75,4.89h0l-.1.49H112q-.52,2.44-1.25,4.79h0l-.15.48h0a52.49,52.49,0,0,1-2.46,6.23,52,52,0,0,0,5.28-22.88c0-1.22-.06-2.42-.14-3.62A51.89,51.89,0,0,0,108.27,40.37Z"/><path class="cls-7" d="M14.15,42.14l2.47,1.1-.2.46-2.47-1.1q-1,2.24-1.73,4.59l2.54.82-.15.48-2.54-.82Q11.33,50,10.82,52.4l2.58.55-.1.49-2.59-.55c-.32,1.59-.56,3.2-.74,4.84l2.6.27-.05.5-2.6-.27q-.23,2.41-.25,4.89h5.54a46,46,0,0,1,5.9-22.28l-4.79-3.06Q15.14,39.9,14.15,42.14Z"/><path class="cls-7" d="M30.93,21.27l1.72,2.38-.41.29-1.73-2.38q-2,1.48-3.8,3.14l1.93,2.15-.37.33L26.35,25c-.54.5-1.08,1-1.59,1.53s-1.25,1.3-1.85,2l2.1,1.9-.33.37-2.09-1.89Q21,30.78,19.52,32.78l2.25,1.64-.29.4-2.24-1.63q-1.42,2-2.65,4.16l4.79,3.06A46.41,46.41,0,0,1,38,23.59l-3-5Q32.91,19.81,30.93,21.27Z"/><path class="cls-7" d="M35.47,108.41q2.14,1.22,4.4,2.24l1.2-2.69.46.2-1.2,2.69q2.25,1,4.61,1.76l.91-2.8.48.15-.91,2.81.44.14c1.42.44,2.86.81,4.32,1.12l.61-2.88.49.1-.61,2.89c1.6.33,3.22.58,4.87.76l.31-2.93.5.05L56,115l.76.06c1.37.12,2.76.19,4.16.2v-5.6a46,46,0,0,1-22.82-6.29Z"/><path class="cls-7" d="M100.93,34.83l-.29-.4,2.24-1.63q-1.44-2-3.06-3.84l-2.09,1.88-.33-.37,2.1-1.89c-.61-.68-1.23-1.35-1.87-2s-1-1-1.57-1.51L94.13,27.2l-.37-.33,1.93-2.14q-1.82-1.66-3.79-3.14l-1.72,2.37-.4-.29,1.72-2.37q-2-1.46-4.11-2.73l-3.06,4.73L83.9,23l3-4.71Q84.81,17.07,82.57,16l-1.23,2.76-.46-.2,1.23-2.76q-2.24-1-4.6-1.8l-1,2.91-.47-.16,1-2.92q-2.34-.76-4.77-1.3l-.65,3-.49-.1.65-3q-2.4-.51-4.89-.78l-.32,3.09-.5-.05.33-3.09q-2.45-.25-5-.26v5.83h-.5V11.34q-2.5,0-4.94.26l.32,3.09-.5.05-.32-3.09q-2.48.27-4.89.78l.64,3-.49.1-.64-3q-2.43.54-4.77,1.3l1,2.92-.48.16L44.9,14q-2.35.79-4.6,1.8l1.23,2.77-.46.2L39.84,16q-2.25,1-4.38,2.28l3,5a46.19,46.19,0,0,1,62.67,16.54l4.65-2.54q-1.22-2.13-2.64-4.13Z"/><path class="cls-7" d="M9.67,63.62q0,2.47.25,4.89l2.6-.28.05.5L10,69c.17,1.64.42,3.25.74,4.84l2.58-.55.1.49-2.58.55q.51,2.41,1.24,4.74l2.53-.82.15.48-2.53.82q.76,2.34,1.72,4.58L16.41,83l.2.46-2.46,1.09q1,2.26,2.21,4.4l5-2.57a46,46,0,0,1-6.12-22.8Z"/><path class="cls-7" d="M112.71,63.13q0-2.47-.24-4.88l-2.59.27-.05-.5,2.59-.27q-.26-2.45-.74-4.84l-2.57.54L109,53l2.56-.54q-.51-2.41-1.23-4.74l-2.53.82-.15-.48,2.52-.82q-.76-2.35-1.72-4.59L106,43.71l-.2-.46,2.45-1.09q-1-2.25-2.2-4.39l-4.64,2.54a46.16,46.16,0,0,1,.1,46.09L106,89q1.2-2.13,2.2-4.38l-2.44-1.09L106,83l2.44,1.09q1-2.24,1.73-4.59l-2.51-.82.15-.48,2.52.82q.73-2.32,1.24-4.74L109,73.8l.1-.49,2.57.54c.32-1.59.57-3.2.74-4.84l-2.58-.27.05-.5,2.59.27q.24-2.41.25-4.89h-4.84v-.5Z"/><path class="cls-7" d="M9.43,69.06q.28,2.48.79,4.89h0c-.33-1.61-.57-3.24-.75-4.89Z"/><path class="cls-7" d="M10.34,74.43l.08.33-.08-.33Z"/><path class="cls-7" d="M27.18,83.75a1.48,1.48,0,0,0-1.66,1.55,1.66,1.66,0,1,0,3.31,0A1.48,1.48,0,0,0,27.18,83.75Z"/><path class="cls-7" d="M9.08,63.05a52.76,52.76,0,0,0,.29,5.51h.06q-.24-2.44-.25-4.94H9.11v-.5h.07q0-2.5.25-4.94H9.37l.05-.5h.06q.26-2.48.75-4.89h0l.1-.49h0q.52-2.43,1.25-4.78h0l.15-.48h0A52.36,52.36,0,0,1,38.18,16.25,52.18,52.18,0,0,0,9.08,63.05Z"/><path class="cls-7" d="M61.13,103a1.67,1.67,0,0,0-1.74,1.84,1.75,1.75,0,0,0,1.77,1.93c1.17,0,1.66-1,1.66-2A1.64,1.64,0,0,0,61.13,103Z"/><path class="cls-7" d="M27.18,80.28a1.33,1.33,0,1,0,0,2.65,1.33,1.33,0,1,0,0-2.65Z"/><path class="cls-7" d="M30.5,40.85c-1.28,0-1.73,1.51-1.73,3.32s.45,3.31,1.73,3.31c.8,0,1.27-.59,1.52-1.47l-.71-.45.74.32a7.35,7.35,0,0,0,.18-1.71C32.22,42.35,31.78,40.85,30.5,40.85Z"/><polygon class="cls-7" points="97.45 83.79 97.45 79.97 94.73 83.79 97.45 83.79"/><path class="cls-7" d="M61.41,17.74A45.7,45.7,0,1,0,93.73,31.12,45.56,45.56,0,0,0,61.41,17.74ZM80,26.55h.23a1.8,1.8,0,0,0,1.9-1.42h.74v7.94H81.8v-6H80Zm-23.24-6.3H57a1.78,1.78,0,0,0,1.89-1.42h.75v7.94H58.56v-6H56.74Zm-14,6.42H43a1.78,1.78,0,0,0,1.9-1.42h.75v7.94H44.58v-6H42.76Zm-5.45,0h.24a1.79,1.79,0,0,0,1.9-1.42h.75v7.94H39.13v-6H37.31ZM23.24,41.61h.24a1.79,1.79,0,0,0,1.89-1.42h.75v7.94H25.05v-6H23.24ZM20.55,67.2a2.31,2.31,0,0,1-2.46-2h1a1.41,1.41,0,0,0,1.52,1.13c1.66,0,1.94-1.69,1.93-2.94h0a2.36,2.36,0,0,1-1.94.84A2.47,2.47,0,0,1,18,61.57a2.58,2.58,0,0,1,2.72-2.8c1.36,0,2.85.49,2.85,4.11C23.55,66.67,21.79,67.2,20.55,67.2Zm6.63,20.65a2.4,2.4,0,0,1-2.68-2.48,2.08,2.08,0,0,1,1.45-2.06,1.82,1.82,0,0,1-1.15-1.75,2.11,2.11,0,0,1,2.38-2.14,2.11,2.11,0,0,1,2.39,2.14,1.81,1.81,0,0,1-1.15,1.75,2.07,2.07,0,0,1,1.44,2.06A2.4,2.4,0,0,1,27.18,87.85Zm18.92,7.3a11.33,11.33,0,0,0-2.2,3.57,12.81,12.81,0,0,0-.87,3.65H41.89a13.4,13.4,0,0,1,1-3.56,12.51,12.51,0,0,1,2.22-3.48H40.3v-.89h5.8Zm15,12.51c-1.74,0-2.84-.92-2.84-4.11,0-4.24,2.29-4.31,3-4.31a2.3,2.3,0,0,1,2.46,2h-.95a1.4,1.4,0,0,0-1.52-1.13c-1.66,0-1.94,1.69-1.92,2.94h0a2.37,2.37,0,0,1,1.94-.84,2.46,2.46,0,0,1,2.55,2.66A2.59,2.59,0,0,1,61.11,107.67Zm-8.59-24,7.73-20L32.92,46.57a2.48,2.48,0,0,1-2.42,1.8c-.59,0-2.78-.13-2.78-4.21s2.2-4.21,2.78-4.21,2.78.14,2.78,4.21A7.27,7.27,0,0,1,33,46.29L63.62,59.39a2.72,2.72,0,0,1,1.25,3.53l.71,2.19ZM66.74,25.88v.9H61.36c0-1.92,1.15-2.64,2.69-3.62.66-.42,1.62-.93,1.62-2.14a1.44,1.44,0,0,0-1.6-1.52,1.51,1.51,0,0,0-1.65,1.58v.3h-1v-.24a2.44,2.44,0,0,1,2.73-2.53A2.34,2.34,0,0,1,66.76,21c0,1.48-.7,2-2.55,3.14-1.08.68-1.52,1.16-1.67,1.73Zm14.42,76.05a2.41,2.41,0,0,1-2.68-2.27h1a1.54,1.54,0,0,0,1.63,1.42c.53,0,1.85-.1,1.85-2a1.66,1.66,0,0,0-1.75-1.87,2,2,0,0,0-1.56.7h-1l.56-4.19h4.29v.9H80.05L79.74,97a2.54,2.54,0,0,1,1.79-.6A2.44,2.44,0,0,1,84,99.1,2.59,2.59,0,0,1,81.16,101.93ZM99.77,84.68H98.52v1.84H97.45V84.68H93.71v-.9l3.73-5.21h1.08v5.21h1.25Zm2.68-25.19c2.2,0,2.52,1.56,2.52,2.18a1.78,1.78,0,0,1-1.3,1.76v0a1.86,1.86,0,0,1,1.53,2,2.45,2.45,0,0,1-2.73,2.46,2.5,2.5,0,0,1-2.78-2.66h1c0,.09,0,.17,0,.27a1.6,1.6,0,0,0,1.66,1.54,1.58,1.58,0,0,0,1.8-1.68,1.35,1.35,0,0,0-1.45-1.43h-.82v-.86h.32c.34,0,1.73,0,1.73-1.37,0-.63-.32-1.37-1.57-1.37-.37,0-1.56.05-1.54,1.81h-1A2.37,2.37,0,0,1,102.45,59.49ZM97,39.87a1.52,1.52,0,0,0-1.65,1.58v.29h-1v-.24A2.44,2.44,0,0,1,97.07,39a2.34,2.34,0,0,1,2.66,2.41c0,1.49-.7,2-2.55,3.14-1.08.68-1.52,1.16-1.67,1.74h4.2v.89H94.32c0-1.91,1.15-2.64,2.69-3.62.66-.42,1.62-.93,1.62-2.15A1.44,1.44,0,0,0,97,39.87Z"/><path class="cls-7" d="M20.65,59.63c-1.17,0-1.65,1-1.65,2a1.64,1.64,0,0,0,1.68,1.81,1.67,1.67,0,0,0,1.75-1.84A1.76,1.76,0,0,0,20.65,59.63Z"/><path class="cls-7" d="M61.45,109.64v5.59c1.45,0,2.88-.08,4.29-.2l.63,0L66.05,112l.5-.05.31,2.94q2.47-.26,4.87-.75l-.62-2.92.49-.1.62,2.91q2.43-.52,4.77-1.25L76.07,110l.48-.15.92,2.84q2.36-.77,4.61-1.75l-1.22-2.75.46-.2,1.22,2.74q2.25-1,4.38-2.28l-2.65-4.61.43-.25,2.65,4.61q2.12-1.27,4.11-2.73l-1.71-2.36.4-.29,1.71,2.36q2-1.48,3.79-3.13L93.74,99.9l.37-.33L96,101.69c.54-.5,1.08-1,1.6-1.54s1.24-1.29,1.84-2l-2.09-1.89.33-.37,2.08,1.88Q101.41,96,102.85,94l-2.23-1.62.29-.4,2.23,1.62q1.42-2,2.64-4.13l-4.53-2.58A46.17,46.17,0,0,1,61.45,109.64Z"/><path class="cls-7" d="M21.58,86.85l-5,2.57q1.22,2.13,2.63,4.12l2.23-1.62.29.4L19.53,94q1.44,2,3.06,3.84l2.09-1.88.33.37-2.1,1.88c.6.67,1.22,1.33,1.85,2s1.06,1,1.6,1.54l1.92-2.13.37.34L26.73,102q1.82,1.66,3.8,3.14l1.71-2.36.41.29-1.71,2.36c1.11.82,2.26,1.6,3.44,2.33l.67.38,2.66-5.07A46.43,46.43,0,0,1,21.58,86.85Z"/><path class="cls-7" d="M57,20.25h-.24v.56h1.81v6h1.07V18.83h-.75A1.78,1.78,0,0,1,57,20.25Z"/><path class="cls-8" d="M57,20.25h-.24v.56h1.81v6h1.07V18.83h-.75A1.78,1.78,0,0,1,57,20.25Z"/><path class="cls-7" d="M64.21,24.14C66.06,23,66.76,22.48,66.76,21a2.34,2.34,0,0,0-2.65-2.4,2.44,2.44,0,0,0-2.73,2.53v.24h1v-.3a1.51,1.51,0,0,1,1.65-1.58A1.44,1.44,0,0,1,65.67,21c0,1.22-1,1.72-1.62,2.14-1.54,1-2.7,1.71-2.69,3.62h5.38v-.9h-4.2C62.69,25.3,63.13,24.82,64.21,24.14Z"/><path class="cls-8" d="M64.21,24.14C66.06,23,66.76,22.48,66.76,21a2.34,2.34,0,0,0-2.65-2.4,2.44,2.44,0,0,0-2.73,2.53v.24h1v-.3a1.51,1.51,0,0,1,1.65-1.58A1.44,1.44,0,0,1,65.67,21c0,1.22-1,1.72-1.62,2.14-1.54,1-2.7,1.71-2.69,3.62h5.38v-.9h-4.2C62.69,25.3,63.13,24.82,64.21,24.14Z"/><path class="cls-7" d="M37.55,26.67h-.24v.56h1.82v6H40.2V25.25h-.75A1.79,1.79,0,0,1,37.55,26.67Z"/><path class="cls-8" d="M37.55,26.67h-.24v.56h1.82v6H40.2V25.25h-.75A1.79,1.79,0,0,1,37.55,26.67Z"/><path class="cls-7" d="M43,26.67h-.24v.56h1.81v6h1.07V25.25h-.75A1.78,1.78,0,0,1,43,26.67Z"/><path class="cls-8" d="M43,26.67h-.24v.56h1.81v6h1.07V25.25h-.75A1.78,1.78,0,0,1,43,26.67Z"/><path class="cls-7" d="M23.48,41.61h-.24v.56h1.82v6h1.07V40.19h-.75A1.79,1.79,0,0,1,23.48,41.61Z"/><path class="cls-8" d="M23.48,41.61h-.24v.56h1.82v6h1.07V40.19h-.75A1.79,1.79,0,0,1,23.48,41.61Z"/><path class="cls-7" d="M30.5,39.95c-.59,0-2.78.14-2.78,4.21s2.2,4.21,2.78,4.21a2.48,2.48,0,0,0,2.42-1.8L32,46c-.24.88-.71,1.47-1.52,1.47-1.28,0-1.73-1.51-1.73-3.31s.45-3.32,1.73-3.32,1.72,1.51,1.72,3.32A7.35,7.35,0,0,1,32,45.87l1,.41a7.27,7.27,0,0,0,.28-2.12C33.28,40.09,31.09,39.95,30.5,39.95Z"/><path class="cls-8" d="M30.5,39.95c-.59,0-2.78.14-2.78,4.21s2.2,4.21,2.78,4.21a2.48,2.48,0,0,0,2.42-1.8L32,46c-.24.88-.71,1.47-1.52,1.47-1.28,0-1.73-1.51-1.73-3.31s.45-3.32,1.73-3.32,1.72,1.51,1.72,3.32A7.35,7.35,0,0,1,32,45.87l1,.41a7.27,7.27,0,0,0,.28-2.12C33.28,40.09,31.09,39.95,30.5,39.95Z"/><path class="cls-7" d="M20.7,58.78A2.58,2.58,0,0,0,18,61.57a2.47,2.47,0,0,0,2.56,2.67,2.36,2.36,0,0,0,1.94-.84h0c0,1.25-.27,2.94-1.93,2.94A1.41,1.41,0,0,1,19,65.21h-1a2.31,2.31,0,0,0,2.46,2c1.24,0,3-.53,3-4.32C23.55,59.27,22.06,58.78,20.7,58.78Zm0,4.62A1.64,1.64,0,0,1,19,61.59c0-1,.49-2,1.65-2a1.76,1.76,0,0,1,1.77,1.93A1.67,1.67,0,0,1,20.68,63.4Z"/><path class="cls-8" d="M20.7,58.78A2.58,2.58,0,0,0,18,61.57a2.47,2.47,0,0,0,2.56,2.67,2.36,2.36,0,0,0,1.94-.84h0c0,1.25-.27,2.94-1.93,2.94A1.41,1.41,0,0,1,19,65.21h-1a2.31,2.31,0,0,0,2.46,2c1.24,0,3-.53,3-4.32C23.55,59.27,22.06,58.78,20.7,58.78Zm0,4.62A1.64,1.64,0,0,1,19,61.59c0-1,.49-2,1.65-2a1.76,1.76,0,0,1,1.77,1.93A1.67,1.67,0,0,1,20.68,63.4Z"/><path class="cls-7" d="M28.42,83.31a1.81,1.81,0,0,0,1.15-1.75,2.11,2.11,0,0,0-2.39-2.14,2.11,2.11,0,0,0-2.38,2.14,1.82,1.82,0,0,0,1.15,1.75,2.08,2.08,0,0,0-1.45,2.06,2.4,2.4,0,0,0,2.68,2.48,2.4,2.4,0,0,0,2.68-2.48A2.07,2.07,0,0,0,28.42,83.31ZM25.78,81.6a1.25,1.25,0,0,1,1.4-1.32,1.33,1.33,0,1,1,0,2.65A1.25,1.25,0,0,1,25.78,81.6Zm1.4,5.4a1.6,1.6,0,0,1-1.66-1.69,1.48,1.48,0,0,1,1.66-1.55,1.48,1.48,0,0,1,1.66,1.55A1.6,1.6,0,0,1,27.18,87Z"/><path class="cls-8" d="M28.42,83.31a1.81,1.81,0,0,0,1.15-1.75,2.11,2.11,0,0,0-2.39-2.14,2.11,2.11,0,0,0-2.38,2.14,1.82,1.82,0,0,0,1.15,1.75,2.08,2.08,0,0,0-1.45,2.06,2.4,2.4,0,0,0,2.68,2.48,2.4,2.4,0,0,0,2.68-2.48A2.07,2.07,0,0,0,28.42,83.31ZM25.78,81.6a1.25,1.25,0,0,1,1.4-1.32,1.33,1.33,0,1,1,0,2.65A1.25,1.25,0,0,1,25.78,81.6Zm1.4,5.4a1.6,1.6,0,0,1-1.66-1.69,1.48,1.48,0,0,1,1.66-1.55,1.48,1.48,0,0,1,1.66,1.55A1.6,1.6,0,0,1,27.18,87Z"/><path class="cls-7" d="M40.3,95.32h4.76a12.51,12.51,0,0,0-2.22,3.48,13.4,13.4,0,0,0-1,3.56H43a12.81,12.81,0,0,1,.87-3.65,11.33,11.33,0,0,1,2.2-3.57v-.72H40.3Z"/><path class="cls-8" d="M40.3,95.32h4.76a12.51,12.51,0,0,0-2.22,3.48,13.4,13.4,0,0,0-1,3.56H43a12.81,12.81,0,0,1,.87-3.65,11.33,11.33,0,0,1,2.2-3.57v-.72H40.3Z"/><path class="cls-7" d="M61.28,102.2a2.37,2.37,0,0,0-1.94.84h0c0-1.25.27-2.94,1.92-2.94a1.4,1.4,0,0,1,1.52,1.13h.95a2.3,2.3,0,0,0-2.46-2c-.7,0-3,.07-3,4.31,0,3.19,1.1,4.11,2.84,4.11a2.59,2.59,0,0,0,2.73-2.81A2.46,2.46,0,0,0,61.28,102.2Zm-.13,4.61a1.75,1.75,0,0,1-1.77-1.93A1.67,1.67,0,0,1,61.13,103a1.64,1.64,0,0,1,1.68,1.8C62.81,105.85,62.33,106.81,61.15,106.81Z"/><path class="cls-8" d="M61.28,102.2a2.37,2.37,0,0,0-1.94.84h0c0-1.25.27-2.94,1.92-2.94a1.4,1.4,0,0,1,1.52,1.13h.95a2.3,2.3,0,0,0-2.46-2c-.7,0-3,.07-3,4.31,0,3.19,1.1,4.11,2.84,4.11a2.59,2.59,0,0,0,2.73-2.81A2.46,2.46,0,0,0,61.28,102.2Zm-.13,4.61a1.75,1.75,0,0,1-1.77-1.93A1.67,1.67,0,0,1,61.13,103a1.64,1.64,0,0,1,1.68,1.8C62.81,105.85,62.33,106.81,61.15,106.81Z"/><path class="cls-7" d="M81.53,96.39a2.54,2.54,0,0,0-1.79.6l.31-2.35h3.51v-.9H79.27l-.56,4.19h1a2,2,0,0,1,1.56-.7A1.66,1.66,0,0,1,83,99.11c0,1.86-1.32,2-1.85,2a1.54,1.54,0,0,1-1.63-1.42h-1a2.41,2.41,0,0,0,2.68,2.27A2.59,2.59,0,0,0,84,99.1,2.44,2.44,0,0,0,81.53,96.39Z"/><path class="cls-8" d="M81.53,96.39a2.54,2.54,0,0,0-1.79.6l.31-2.35h3.51v-.9H79.27l-.56,4.19h1a2,2,0,0,1,1.56-.7A1.66,1.66,0,0,1,83,99.11c0,1.86-1.32,2-1.85,2a1.54,1.54,0,0,1-1.63-1.42h-1a2.41,2.41,0,0,0,2.68,2.27A2.59,2.59,0,0,0,84,99.1,2.44,2.44,0,0,0,81.53,96.39Z"/><path class="cls-7" d="M98.52,78.57H97.44l-3.73,5.21v.9h3.74v1.84h1.07V84.68h1.25v-.9H98.52Zm-1.07,5.21H94.73L97.45,80Z"/><path class="cls-8" d="M98.52,78.57H97.44l-3.73,5.21v.9h3.74v1.84h1.07V84.68h1.25v-.9H98.52Zm-1.07,5.21H94.73L97.45,80Z"/><path class="cls-7" d="M103.67,63.45v0a1.78,1.78,0,0,0,1.3-1.76c0-.62-.31-2.18-2.52-2.18a2.37,2.37,0,0,0-2.56,2.66h1c0-1.75,1.17-1.81,1.54-1.81,1.25,0,1.57.75,1.57,1.37,0,1.36-1.4,1.37-1.73,1.37h-.32v.86h.82a1.35,1.35,0,0,1,1.45,1.43,1.58,1.58,0,0,1-1.8,1.68,1.6,1.6,0,0,1-1.66-1.54c0-.09,0-.17,0-.27h-1a2.5,2.5,0,0,0,2.78,2.66,2.45,2.45,0,0,0,2.73-2.46A1.86,1.86,0,0,0,103.67,63.45Z"/><path class="cls-8" d="M103.67,63.45v0a1.78,1.78,0,0,0,1.3-1.76c0-.62-.31-2.18-2.52-2.18a2.37,2.37,0,0,0-2.56,2.66h1c0-1.75,1.17-1.81,1.54-1.81,1.25,0,1.57.75,1.57,1.37,0,1.36-1.4,1.37-1.73,1.37h-.32v.86h.82a1.35,1.35,0,0,1,1.45,1.43,1.58,1.58,0,0,1-1.8,1.68,1.6,1.6,0,0,1-1.66-1.54c0-.09,0-.17,0-.27h-1a2.5,2.5,0,0,0,2.78,2.66,2.45,2.45,0,0,0,2.73-2.46A1.86,1.86,0,0,0,103.67,63.45Z"/><path class="cls-7" d="M97.17,44.52c1.85-1.18,2.55-1.65,2.55-3.14A2.34,2.34,0,0,0,97.07,39a2.44,2.44,0,0,0-2.72,2.53v.24h1v-.29A1.52,1.52,0,0,1,97,39.87a1.44,1.44,0,0,1,1.6,1.52c0,1.22-1,1.73-1.62,2.15-1.54,1-2.7,1.7-2.69,3.62H99.7v-.89H95.5C95.65,45.68,96.1,45.2,97.17,44.52Z"/><path class="cls-8" d="M97.17,44.52c1.85-1.18,2.55-1.65,2.55-3.14A2.34,2.34,0,0,0,97.07,39a2.44,2.44,0,0,0-2.72,2.53v.24h1v-.29A1.52,1.52,0,0,1,97,39.87a1.44,1.44,0,0,1,1.6,1.52c0,1.22-1,1.73-1.62,2.15-1.54,1-2.7,1.7-2.69,3.62H99.7v-.89H95.5C95.65,45.68,96.1,45.2,97.17,44.52Z"/><path class="cls-7" d="M80.22,26.55H80v.56H81.8v6h1.06V25.13h-.74A1.8,1.8,0,0,1,80.22,26.55Z"/><path class="cls-8" d="M80.22,26.55H80v.56H81.8v6h1.06V25.13h-.74A1.8,1.8,0,0,1,80.22,26.55Z"/><path class="cls-2" d="M63.62,59.39,33,46.29l-1-.41-.74-.32L32,46l.9.57L60.25,63.68l.45-1.18,3.69-1,.48,1.47A2.72,2.72,0,0,0,63.62,59.39Z"/><polygon class="cls-9" points="64.39 61.45 60.7 62.5 60.25 63.68 52.52 83.69 65.58 65.11 64.87 62.92 64.39 61.45"/><path class="cls-10" d="M98.07,107.75l10,15.26H90.8l-.55-.17a18,18,0,0,1-2.67-.84l-10.75-3.37-.2.06,12.88,4c2.24.7,4.65.38,7,.38h11.65l.11,0c.05,0,.09,0,.07-.08L98.24,107.62Z"/><path class="cls-10" d="M97.9,107.88l2,3.09,7.83,11.94H90.88a3.51,3.51,0,0,1-.62-.07l.55.17h17.29l-10-15.26Z"/><path class="cls-10" d="M77,118.56l-.2.06L87.58,122c-.88-.33-1.75-.67-2.39-.88Z"/><path class="cls-10" d="M30.3,123H13l10.07-15.35-.19-.15L12.77,122.93c0,.07.21.2.37.2H24.26c2.44,0,5,.37,7.38-.37l12.76-4-.31-.08Z"/><path class="cls-10" d="M37.57,120.55c-3.31,1-6.33,2.33-9.75,2.33H13.38l9.89-15.07-.19-.15L13,123H30.3l13.8-4.33-.28-.09Z"/><path class="cls-10" d="M60.55,120.85a59.44,59.44,0,0,1-15.9-2.17l-.24.08a60.31,60.31,0,0,0,32.23-.07l-.1,0A59.43,59.43,0,0,1,60.55,120.85Z"/><path class="cls-10" d="M88.62,8.87C71-.65,49.21-.2,31.74,9.28v.16a59.4,59.4,0,0,1,58.81.7l0-.18C89.91,9.59,89.27,9.22,88.62,8.87Z"/><path class="cls-10" d="M1.12,61.42A59.14,59.14,0,0,1,9.55,30.9H9.37A60.69,60.69,0,0,0,1.13,67,59.42,59.42,0,0,0,22.89,107.5l0-.07A59.3,59.3,0,0,1,1.12,61.42Z"/><path class="cls-10" d="M112,31.68a59.4,59.4,0,0,1-13.86,75.77l.11.17a60.26,60.26,0,0,0,22-46.18,60,60,0,0,0-8.12-29.76Z"/><path class="cls-10" d="M76.95,118.53l.09,0a60.29,60.29,0,0,0,15.58-6.91,57,57,0,0,0,5.29-3.77l-.11-.17A59.23,59.23,0,0,1,76.95,118.53Z"/><path class="cls-10" d="M76.53,118.65l.1,0,.2-.06-.09,0Z"/><path class="cls-10" d="M76.53,118.65l.1,0,.2-.06-.09,0Z"/><path class="cls-10" d="M98,107.58l.11.17.17-.13-.11-.17Z"/><path class="cls-10" d="M98,107.58l.11.17.17-.13-.11-.17Z"/><path class="cls-10" d="M97.79,107.71l.11.17.17-.13-.11-.17Z"/><path class="cls-10" d="M97.79,107.71l.11.17.17-.13-.11-.17Z"/><path class="cls-10" d="M76.74,118.59l.09,0,.2-.06-.09,0Z"/><path class="cls-10" d="M76.74,118.59l.09,0,.2-.06-.09,0Z"/><path class="cls-10" d="M23.27,107.81a60.16,60.16,0,0,0,14,8.42,56.8,56.8,0,0,0,6.58,2.35l.24-.08a59.24,59.24,0,0,1-20.74-10.78Z"/><path class="cls-10" d="M44.1,118.68l.31.08.24-.08-.29-.08Z"/><path class="cls-10" d="M44.1,118.68l.31.08.24-.08-.29-.08Z"/><path class="cls-10" d="M22.89,107.5l.19.15.05-.08-.19-.15Z"/><path class="cls-10" d="M22.89,107.5l.19.15.05-.08-.19-.15Z"/><path class="cls-10" d="M23.08,107.66l.19.15.05-.08-.19-.15Z"/><path class="cls-10" d="M23.08,107.66l.19.15.05-.08-.19-.15Z"/><path class="cls-10" d="M43.82,118.59l.28.09.26-.08-.29-.08Z"/><path class="cls-10" d="M43.82,118.59l.28.09.26-.08-.29-.08Z"/><path class="cls-10" d="M60.55,2a59.14,59.14,0,0,0-28.8,7.44c0,.1,0,.2,0,.3A59.85,59.85,0,0,1,58.51,2.13a58.5,58.5,0,0,1,32.08,8.24c0-.08,0-.16,0-.24A59.13,59.13,0,0,0,60.55,2Z"/><path class="cls-10" d="M111.73,31.68a60.58,60.58,0,0,1,8,29.73,60.06,60.06,0,0,1-34.44,53.9C63,125.77,36.09,120.56,18.75,103.4,2.21,87-2.87,61.79,5.3,40.15a56.7,56.7,0,0,1,4.5-9.26H9.55a59.42,59.42,0,0,0,13.39,76.52l.19.15.19.15a59.24,59.24,0,0,0,20.74,10.78l.29.08.29.08a59.37,59.37,0,0,0,31.89,0l.21-.06.21-.06a59.23,59.23,0,0,0,20.84-10.82l.17-.13.17-.13A59.4,59.4,0,0,0,112,31.68Z"/><path class="cls-10" d="M3.21,7.1C-.18,12-.77,19.06.9,24.73A8.9,8.9,0,0,0,3.1,28.58c-3.25-3.77-4.44-14.39.3-21.34Z"/><path class="cls-10" d="M9.42,2c-.29.12-.56.27-.84.41l.09.15A18.43,18.43,0,0,1,16.21.68,19.38,19.38,0,0,1,26.57,2.61,10.44,10.44,0,0,1,29.9,4.92a6.85,6.85,0,0,1,1.6,4.49l.23-.13a7.38,7.38,0,0,0-1.61-4.35C25.24-.24,15.57-.49,9.42,2Z"/><path class="cls-10" d="M9.37,30.91l0,0c-.33,0-.66,0-1,0C8.73,30.89,9,30.92,9.37,30.91Z"/><path class="cls-10" d="M9.8,30.89q.64,0,1.29-.11l0-.09q-.67.11-1.32.15Z"/><path class="cls-10" d="M23.3,24.43a29.15,29.15,0,0,1-6.73,4.5l-.25.33c.62-.28,1.23-.58,1.81-.91A29.74,29.74,0,0,0,30.14,16a14.16,14.16,0,0,0,1.62-6.27l-.24.14C31.42,14.29,28.43,19.88,23.3,24.43Z"/><path class="cls-10" d="M9.37,30.91h.18l0,0H9.39Z"/><path class="cls-10" d="M9.37,30.91h.18l0,0H9.39Z"/><path class="cls-10" d="M31.51,9.41c0,.05,0,.11,0,.16l.24-.14V9.28Z"/><path class="cls-10" d="M31.51,9.41c0,.05,0,.11,0,.16l.24-.14V9.28Z"/><path class="cls-10" d="M9.55,30.9H9.8l0,0-.25,0Z"/><path class="cls-10" d="M9.55,30.9H9.8l0,0-.25,0Z"/><path class="cls-10" d="M31.51,9.58c0,.1,0,.2,0,.3l.24-.14c0-.1,0-.2,0-.3Z"/><path class="cls-10" d="M31.51,9.58c0,.1,0,.2,0,.3l.24-.14c0-.1,0-.2,0-.3Z"/><path class="cls-10" d="M11.09,30.78a18.88,18.88,0,0,0,5.23-1.53l.25-.33a20.33,20.33,0,0,1-5.43,1.76Z"/><path class="cls-10" d="M31.51,9.41a6.85,6.85,0,0,0-1.6-4.49,10.44,10.44,0,0,0-3.33-2.31,12,12,0,0,1,3.11,2.31c5.25,6.43-2.54,15.92-7.26,20a23.53,23.53,0,0,1-12.6,5.83c-4.69.49-7.37-2.31-8.58-6.42A20.62,20.62,0,0,1,3.65,7.38L3.4,7.24c-4.74,6.95-3.55,17.57-.3,21.34a8.16,8.16,0,0,0,5.32,2.29c.32,0,.64,0,1,0h.18l.25,0q.65,0,1.32-.15a20.33,20.33,0,0,0,5.43-1.76,29.15,29.15,0,0,0,6.73-4.5c5.13-4.55,8.11-10.14,8.21-14.55,0-.1,0-.2,0-.3S31.51,9.47,31.51,9.41Z"/><path class="cls-10" d="M8.75,2.72a19.24,19.24,0,0,1,7.46-2,18.43,18.43,0,0,0-7.55,1.9Z"/><path class="cls-10" d="M2,4.36A3,3,0,0,0,3.21,7.1l.12-.16A3.33,3.33,0,0,1,2.12,4.41,3.34,3.34,0,0,1,5,1.19a2.56,2.56,0,0,1,1.94.18A3.43,3.43,0,0,1,8.45,2.49l.12-.06C6.77,0,2.18.58,2,4.36Z"/><path class="cls-10" d="M9,3.71a3.19,3.19,0,0,1,.08.7,3.46,3.46,0,0,1-3.47,3.4,3.55,3.55,0,0,1-1.9-.56l-.08.13c2.1,1.11,5.46.18,5.63-2.92a4.1,4.1,0,0,0-.12-.8Z"/><path class="cls-10" d="M8.64,2.78A3.13,3.13,0,0,1,9,3.55h.14a3.48,3.48,0,0,0-.37-.83Z"/><path class="cls-10" d="M8.45,2.49l.11.15.11-.06-.09-.15Z"/><path class="cls-10" d="M8.45,2.49l.11.15.11-.06-.09-.15Z"/><path class="cls-10" d="M3.21,7.1l.19.14.11-.15-.19-.15Z"/><path class="cls-10" d="M3.21,7.1l.19.14.11-.15-.19-.15Z"/><path class="cls-10" d="M8.56,2.64l.08.14.11-.06-.09-.14Z"/><path class="cls-10" d="M8.56,2.64l.08.14.11-.06-.09-.14Z"/><path class="cls-10" d="M3.4,7.24l.25.14.08-.13-.22-.16Z"/><path class="cls-10" d="M3.4,7.24l.25.14.08-.13-.22-.16Z"/><path class="cls-10" d="M9,3.55c0,.05,0,.1.05.16l.13,0s0-.08,0-.12Z"/><path class="cls-10" d="M9,3.55a3.13,3.13,0,0,0-.33-.77l-.08-.14-.11-.15A3.43,3.43,0,0,0,6.92,1.36a3.67,3.67,0,0,1,1.87,3,3.5,3.5,0,0,1-2,3.06c-2.26,1.17-4.26-.89-4.37-3a3.38,3.38,0,0,1,2-3.06A3.09,3.09,0,0,1,5,1.19,3.34,3.34,0,0,0,2.12,4.41,3.33,3.33,0,0,0,3.32,6.94l.19.15.22.16a3.55,3.55,0,0,0,1.9.56A3.46,3.46,0,0,0,9.1,4.41,3.19,3.19,0,0,0,9,3.71C9,3.66,9,3.61,9,3.55Z"/><path class="cls-10" d="M96.53.92c-5,1.47-6.39,5.06-6,9l.13.08c-.27-2.92.41-5.43,2.18-7,3.71-3.29,14.43-4.52,21.42.26l.11-.14C109.33-.27,102.12-.73,96.53.92Z"/><path class="cls-10" d="M118.91,8.54c3.87,7.51,1.37,18-2.33,21.25a6.91,6.91,0,0,1-4.63,1.61l.16.27a7.84,7.84,0,0,0,4.7-1.79c5.33-5,5.48-15,2.23-21.41Z"/><path class="cls-10" d="M97.07,23.19c-3.67-4.14-5.87-8.79-6.36-12.74l-.12-.08a26,26,0,0,0,5.15,11.49,27,27,0,0,0,1.92,2.21q-.23-.35-.43-.7Z"/><path class="cls-10" d="M106.42,30.18l.25.37a12.85,12.85,0,0,0,5.06,1.13l-.15-.27A14.36,14.36,0,0,1,106.42,30.18Z"/><path class="cls-10" d="M111.82,31.4l.16.28h.12l-.16-.27Z"/><path class="cls-10" d="M111.82,31.4l.16.28h.12l-.16-.27Z"/><path class="cls-10" d="M90.54,10l0,.18.13.07c0-.06,0-.11,0-.17Z"/><path class="cls-10" d="M90.54,10l0,.18.13.07c0-.06,0-.11,0-.17Z"/><path class="cls-10" d="M90.56,10.14c0,.08,0,.16,0,.24l.12.08c0-.08,0-.16,0-.24Z"/><path class="cls-10" d="M90.56,10.14c0,.08,0,.16,0,.24l.12.08c0-.08,0-.16,0-.24Z"/><path class="cls-10" d="M111.58,31.4l.15.27H112l-.16-.28Z"/><path class="cls-10" d="M111.58,31.4l.15.27H112l-.16-.28Z"/><path class="cls-10" d="M97.23,23.37q.2.35.43.7a29.16,29.16,0,0,0,9,6.48l-.25-.37A26.89,26.89,0,0,1,97.23,23.37Z"/><path class="cls-10" d="M118.7,8.66a15,15,0,0,1,.67,1.41,21.72,21.72,0,0,1,.6,13.12,9.66,9.66,0,0,1-1.59,3.88,11.58,11.58,0,0,1-2,2.64c-3.52,2.87-8.32,1.33-11.9-.62a29.08,29.08,0,0,1-11-11.25c-1.91-3.35-3.18-7.45-2.37-11.3.67-3.18,3.44-4.69,6.31-5.54a19.75,19.75,0,0,1,16.7,2.51l.15-.21c-7-4.78-17.7-3.55-21.42-.26-1.77,1.57-2.45,4.08-2.18,7,0,.06,0,.11,0,.17s0,.16,0,.24c.49,3.95,2.69,8.6,6.36,12.74l.17.18a26.89,26.89,0,0,0,9.19,6.81,14.36,14.36,0,0,0,5.16,1.23h.37a6.91,6.91,0,0,0,4.63-1.61c3.7-3.29,6.2-13.75,2.33-21.25Z"/><path class="cls-10" d="M118.45,2.32a3.54,3.54,0,0,1,1.92,3.19A3.54,3.54,0,0,1,119,8.37l.05.11a3.48,3.48,0,0,0,1.69-3.28A3.34,3.34,0,0,0,118.45,2.32Z"/><path class="cls-10" d="M114.38,3.15l.15.1A3.33,3.33,0,0,1,117.06,2h0A3.26,3.26,0,0,0,114.38,3.15Z"/><path class="cls-10" d="M118.23,8.77v.06a3.86,3.86,0,0,0,.46-.17l0-.1A3,3,0,0,1,118.23,8.77Z"/><path class="cls-10" d="M117.08,9a3.46,3.46,0,0,1-3.4-3.47,3.55,3.55,0,0,1,.57-1.92l-.14-.09a3.8,3.8,0,0,0-.66,2.33A3.67,3.67,0,0,0,117.13,9h.06a4.28,4.28,0,0,0,.75-.11l0-.06A3.16,3.16,0,0,1,117.08,9Z"/><path class="cls-10" d="M118.85,8.44l.06.1.12-.07L119,8.37Z"/><path class="cls-10" d="M118.85,8.44l.06.1.12-.07L119,8.37Z"/><path class="cls-10" d="M114.27,3.29l.14.1.12-.15-.15-.1Z"/><path class="cls-10" d="M114.27,3.29l.14.1.12-.15-.15-.1Z"/><path class="cls-10" d="M118.66,8.56l0,.1.2-.12-.06-.1Z"/><path class="cls-10" d="M118.66,8.56l0,.1.2-.12-.06-.1Z"/><path class="cls-10" d="M114.12,3.5l.14.09c0-.07.1-.13.15-.2l-.14-.1Z"/><path class="cls-10" d="M114.12,3.5l.14.09c0-.07.1-.13.15-.2l-.14-.1Z"/><path class="cls-10" d="M117.92,8.87l0,.06.31-.1V8.77Z"/><path class="cls-10" d="M118.45,2.32A4.47,4.47,0,0,0,117.06,2a3.33,3.33,0,0,0-2.54,1.24l-.12.15c0,.07-.11.13-.15.2a3.55,3.55,0,0,0-.57,1.92A3.46,3.46,0,0,0,117.08,9a3.16,3.16,0,0,0,.83-.12l.31-.1a3,3,0,0,0,.43-.21l.19-.11.12-.08a3.54,3.54,0,0,0,1.4-2.85A3.54,3.54,0,0,0,118.45,2.32Zm1.77,3.51a3.34,3.34,0,0,1-3.22,3c-3.88-.24-4-5.56-.49-6.51C118.82,1.66,120.33,3.9,120.22,5.84Z"/><path class="cls-10" d="M113,58.2H113l-.05-.5h-.07q-.26-2.48-.75-4.89h0l-.1-.49h-.05q-.52-2.44-1.25-4.79h0l-.15-.48h0A52.59,52.59,0,0,0,98,26.22a51.71,51.71,0,0,0-73.57,0A52.59,52.59,0,0,0,11.74,47h0l-.15.48h0q-.73,2.35-1.25,4.78h0l-.1.49h0q-.49,2.41-.75,4.89H9.42l-.05.5h.06q-.24,2.44-.25,4.94H9.11v.5h.07q0,2.5.25,4.94H9.36l.05.5h.06c.18,1.66.42,3.29.75,4.89h0l.1.49h0l.08.33c.33,1.51.72,3,1.18,4.46h0l.15.48h0a52.33,52.33,0,0,0,20.92,27.58,51.42,51.42,0,0,0,28.52,8.6c1.21,0,2.4-.06,3.58-.14a51.3,51.3,0,0,0,17.48-4.36A52.1,52.1,0,0,0,98,100.5a52.33,52.33,0,0,0,12.65-20.79h0l.15-.48h0q.74-2.35,1.25-4.79h.06l.1-.49h0q.49-2.41.75-4.89H113l.05-.5H113q.24-2.44.25-4.94h.09v-.5h-.09Q113.2,60.63,113,58.2ZM39.84,16l1.23,2.77.46-.2L40.3,15.81q2.25-1,4.6-1.8l.95,2.91.48-.16-1-2.92q2.34-.76,4.77-1.3l.64,3,.49-.1-.64-3q2.4-.51,4.89-.78l.32,3.09.5-.05L56,11.6q2.44-.25,4.94-.26v5.83h.5V11.34q2.51,0,5,.26l-.33,3.09.5.05.32-3.09q2.48.28,4.89.78l-.65,3,.49.1.65-3q2.43.54,4.77,1.3l-1,2.92.47.16,1-2.91q2.35.79,4.6,1.8l-1.23,2.76.46.2L82.57,16q2.24,1,4.37,2.28L83.9,23l.42.27,3.06-4.73q2.12,1.27,4.11,2.73l-1.72,2.37.4.29,1.72-2.37q2,1.48,3.79,3.14l-1.93,2.14.37.33,1.93-2.14c.53.49,1.06,1,1.57,1.51s1.26,1.32,1.87,2l-2.1,1.89.33.37L99.82,29q1.62,1.85,3.06,3.84l-2.24,1.63.29.4,2.24-1.63q1.41,2,2.64,4.13l-4.65,2.54A46.19,46.19,0,0,0,38.48,23.34l-3-5Q37.59,17.05,39.84,16ZM19.23,33.18l2.24,1.63.29-.4-2.25-1.64q1.44-2,3.06-3.85l2.09,1.89.33-.37-2.1-1.9c.6-.67,1.22-1.34,1.85-2s1.05-1,1.59-1.53l1.93,2.15.37-.33L26.72,24.7q1.82-1.66,3.8-3.14l1.73,2.38.41-.29-1.72-2.38q2-1.46,4.11-2.72l3,5A46.41,46.41,0,0,0,21.37,40.4l-4.79-3.06Q17.81,35.2,19.23,33.18Zm-9.31,25,2.6.27.05-.5L10,57.73c.17-1.64.42-3.25.74-4.84l2.59.55.1-.49-2.58-.55q.51-2.41,1.24-4.73l2.54.82.15-.48-2.54-.82q.76-2.35,1.73-4.59l2.47,1.1.2-.46-2.47-1.1q1-2.24,2.18-4.37l4.79,3.06a46,46,0,0,0-5.9,22.28H9.67Q9.69,60.64,9.92,58.23Zm4.23,26.35,2.46-1.09-.2-.46-2.46,1.09q-1-2.24-1.72-4.58l2.53-.82-.15-.48-2.53.82q-.73-2.32-1.24-4.74l2.58-.55-.1-.49-2.58.55c-.32-1.59-.56-3.21-.74-4.84l2.6-.27-.05-.5-2.6.28q-.24-2.41-.25-4.89h5.54a46,46,0,0,0,6.12,22.8l-5,2.57Q15.16,86.84,14.15,84.58ZM35,108.17l-.66-.39c-1.18-.73-2.32-1.51-3.44-2.33l1.71-2.36-.41-.29-1.71,2.36q-2-1.48-3.8-3.14l1.92-2.14-.37-.34-1.92,2.13c-.54-.5-1.08-1-1.6-1.54s-1.25-1.3-1.85-2L25,96.29l-.33-.37-2.09,1.88Q21,95.95,19.53,94l2.24-1.63-.29-.4-2.23,1.62q-1.41-2-2.63-4.12l5-2.57a46.43,46.43,0,0,0,16.11,16.24L35,108.16Zm25.91,7.06v.14q-2.5,0-4.94-.26V115l.31-2.93-.5-.05-.31,2.93v.14q-2.48-.27-4.88-.78l0-.12.61-2.89-.49-.1L50.17,114l0,.12q-1.85-.41-3.65-.95l-1.11-.35,0-.09.91-2.81-.48-.15-.91,2.8,0,.09q-2.35-.79-4.6-1.8l0-.05,1.2-2.69-.46-.2-1.2,2.69,0,.05q-2.25-1-4.38-2.28h0l2.66-5.07a46,46,0,0,0,22.82,6.29ZM29.1,95.76a45.71,45.71,0,1,1,32.32,13.39A45.56,45.56,0,0,1,29.1,95.76Zm74-2.21-2.23-1.62-.29.4L102.85,94q-1.44,2-3.06,3.85l-2.08-1.88-.33.37,2.09,1.89c-.6.67-1.21,1.33-1.84,2s-1.06,1-1.6,1.54l-1.91-2.12-.37.33L95.65,102q-1.82,1.65-3.79,3.13l-1.71-2.36-.4.29,1.71,2.36q-2,1.46-4.11,2.73l-2.65-4.61-.43.25,2.65,4.61q-2.13,1.24-4.38,2.28L81.32,108l-.46.2,1.22,2.75h0q-2.24,1-4.6,1.8l0,0-.92-2.84-.48.15.92,2.84,0,.05q-2.34.76-4.77,1.3l0-.09-.62-2.91-.49.1.62,2.92,0,.09q-2.4.51-4.88.78v-.12L66.55,112l-.5.05.31,2.94v.13l-.83.06c-1.35.11-2.72.19-4.1.19v-5.73a46.17,46.17,0,0,0,39.8-22.81l4.53,2.58Q104.56,91.55,103.14,93.55Zm9.57-29.92q0,2.47-.25,4.89l-2.59-.27-.05.5,2.58.27c-.18,1.64-.42,3.25-.74,4.84l-2.57-.54-.1.49,2.56.54q-.51,2.41-1.24,4.74l-2.52-.82-.15.48,2.51.82q-.76,2.34-1.73,4.59L106,83l-.21.46,2.44,1.09q-1,2.25-2.2,4.38L101.5,86.4a46.16,46.16,0,0,0-.1-46.09L106,37.77q1.2,2.13,2.2,4.39l-2.45,1.09.2.46,2.46-1.09q1,2.24,1.72,4.59l-2.52.82.15.48,2.53-.82q.73,2.32,1.23,4.74L109,53l.1.49,2.57-.54q.48,2.38.74,4.84l-2.59.27.05.5,2.59-.27q.23,2.41.24,4.88h-4.84v.5Z"/></g></g></svg>