<svg xmlns="http://www.w3.org/2000/svg" viewBox="0 0 92.93 183.11"><defs><style>.cls-1{fill-rule:evenodd;}.cls-2{fill:#fff;}</style></defs><title>Ресурс 1clock</title><g id="Слой_2" data-name="Слой 2"><g id="Layer_1" data-name="Layer 1"><path class="cls-1" d="M56.21,155.94c-5,.37-6.88,5.95-6.33,10,1.3,8.37,8.19,11.91,16.37,11,7.81-.93,12.83-8.18,12.65-16-.37-14.32-18.23-25.67-26.42-36.27-3.16-3.91-6-8.18-6.14-13.21,0-5.21,2.79-10.23,8.37-11.35,4.84-.93,8.55,1.11,10.23,5.39,1.12,3.16-1.12,7.44-4.84,7.81l-.55-.93c2.79-1.3,3.16-3.35,2.42-5.77-1.12-2.6-3.54-3.72-6.7-3.17-3.72.75-5.58,4.47-5.4,8,.19,4.84,3.35,8.93,6.51,12.65,8.74,10.6,25.48,22,25.85,36.65.19,9.86-6,18.42-15.63,19.53-10,1.3-18.6-3.72-20.09-14-.74-5.95,2-13.39,9.49-13.77,6.32-.37,10.23,7.63,3.54,11.16l-.38-.93C62.91,160.22,59.56,155.75,56.21,155.94Z"/><path class="cls-1" d="M36.86,156.14c5,.37,6.88,6,6.32,10-1.12,8.37-8.19,11.91-16.37,11-7.81-.93-12.65-8.18-12.46-16,.37-14.32,18-25.67,26.42-36.27,3-3.91,5.77-8.18,6-13.21.18-5.21-2.61-10.23-8.37-11.35-4.83-.93-8.55,1.11-10.23,5.39-1.11,3.16,1.3,7.44,4.84,7.81l.74-.93c-2.79-1.3-3.16-3.35-2.6-5.77,1.12-2.6,3.72-3.72,6.7-3.16,3.72.75,5.58,4.47,5.58,8-.19,4.84-3.54,8.93-6.51,12.65-8.75,10.6-25.67,22-26,36.65-.18,9.86,6,18.42,15.63,19.53,10,1.3,18.79-3.72,20.09-14,.93-6-2-13.39-9.49-13.77-6.32-.37-10.23,7.63-3.53,11.16l.56-.93C30.16,160.42,33.51,156,36.86,156.14Z"/><ellipse cx="46.59" cy="98.74" rx="35.22" ry="2.3"/><rect x="45.34" y="99.93" width="2.49" height="80.45"/><ellipse cx="46.48" cy="181.66" rx="40.29" ry="1.45"/><circle cx="46.46" cy="54.5" r="46.46"/><circle class="cls-2" cx="46.47" cy="54.52" r="41.43"/><path d="M9.56,54.35A36.94,36.94,0,0,1,46.5,17.41h0A36.94,36.94,0,0,1,83.44,54.35h0A36.94,36.94,0,0,1,46.5,91.29h0A36.94,36.94,0,0,1,9.56,54.35ZM20.69,28.54A36.38,36.38,0,0,0,10,54.35h0A36.38,36.38,0,0,0,20.69,80.16h0A36.38,36.38,0,0,0,46.5,90.85h0A36.38,36.38,0,0,0,72.31,80.16h0A36.38,36.38,0,0,0,83,54.35h0A36.38,36.38,0,0,0,72.31,28.54h0A36.38,36.38,0,0,0,46.5,17.85h0A36.38,36.38,0,0,0,20.69,28.54Z"/><path d="M4.65,54.58A41.77,41.77,0,0,1,46.43,12.8h0A41.78,41.78,0,0,1,88.2,54.58h0A41.78,41.78,0,0,1,46.43,96.35h0A41.77,41.77,0,0,1,4.65,54.58ZM17.2,25.35A41.2,41.2,0,0,0,5.09,54.58h0A41.2,41.2,0,0,0,17.2,83.81h0A41.2,41.2,0,0,0,46.43,95.91h0A41.2,41.2,0,0,0,75.65,83.81h0A41.2,41.2,0,0,0,87.76,54.58h0A41.21,41.21,0,0,0,75.65,25.35h0A41.2,41.2,0,0,0,46.43,13.24h0A41.2,41.2,0,0,0,17.2,25.35Z"/><path d="M11.24,54.49A35.18,35.18,0,0,1,46.42,19.31h0A35.18,35.18,0,0,1,81.6,54.49h0A35.18,35.18,0,0,1,46.42,89.66h0A35.18,35.18,0,0,1,11.24,54.49ZM21.86,29.92A34.63,34.63,0,0,0,11.68,54.49h0A34.62,34.62,0,0,0,21.86,79h0A34.62,34.62,0,0,0,46.42,89.22h0A34.63,34.63,0,0,0,71,79h0A34.63,34.63,0,0,0,81.16,54.49h0A34.63,34.63,0,0,0,71,29.92h0A34.63,34.63,0,0,0,46.42,19.75h0A34.62,34.62,0,0,0,21.86,29.92Z"/><circle cx="46.4" cy="54.5" r="2.07"/><path d="M46.62,19.48V12.92h-.32V19.5Z"/><path d="M46.31,89.37V96.1h.32V89.38Z"/><path d="M77.31,38.23l5.8-3.1L83,34.85,77.17,38Z"/><path d="M15.69,70.84,9.61,74.09l.15.28,6.07-3.25Z"/><path d="M64.21,24.32l3.14-5.46-.27-.16-3.15,5.48Z"/><path d="M29,84.8l-3.45,6,.27.16,3.47-6Z"/><path d="M62.42,85.45l3.24,6.05.28-.15-3.22-6Z"/><path d="M29.71,23.63,26.7,18l-.28.15,3,5.64Z"/><path d="M16.25,37.11l-5.82-3.35-.16.27,5.84,3.36C16.15,37.3,16.2,37.21,16.25,37.11Z"/><path d="M76.52,71.81l-.16.27,6,3.45.16-.27Z"/><path d="M11.69,54.35H4.78v.32H11.7C11.7,54.56,11.69,54.45,11.69,54.35Z"/><path d="M81.14,54.35c0,.11,0,.21,0,.32H88v-.32Z"/><path class="cls-1" d="M57.88,35.69c0-.18-.08-.37-.12-.56A5.1,5.1,0,0,1,58,32.36a2.29,2.29,0,0,0-.63.77,3.77,3.77,0,0,0-.11,2.37c.39,2.13,2.11,5.05,1.09,7.18a2.53,2.53,0,0,1-3,1.46,2.11,2.11,0,0,1-1.54-2.76c.23-.64.91-1.33,1.66-1,.5.21.64,1.1-.09,1.22l0,.16a1,1,0,0,0,.33-1.89,1.89,1.89,0,0,0-2.4,1.35,2.62,2.62,0,0,0,1.85,3.46,3.06,3.06,0,0,0,3.71-1.77C59.91,40.7,58.35,37.86,57.88,35.69Z"/><path class="cls-1" d="M53,38.56c-.88-.5-2,.4-1.34,1.39l.15-.1c-.37-.66.45-1.08.92-.81.69.41.55,1.36.16,1.92a2.17,2.17,0,0,1-3.17.46,2.41,2.41,0,0,1-.6-3.23c1.12-2.07,4.52-2.5,6.51-3.46a4.06,4.06,0,0,0,1.84-1.52,2,2,0,0,0,.26-1,5.8,5.8,0,0,1-2.63,2.21c-2.05.94-5.34,1.42-6.49,3.55a2.93,2.93,0,0,0,.79,4,2.7,2.7,0,0,0,3.94-.63A1.8,1.8,0,0,0,53,38.56Z"/><path class="cls-1" d="M42.35,58.32c.6,0,.89-.85.23-1.1l0,.1c.39.2.12.66-.2.69-.48,0-.71-.47-.69-.87a1.31,1.31,0,0,1,1.44-1.24,1.37,1.37,0,0,1,1.33,1.35c.1,1.36-1.46,2.65-2.15,3.75a2.34,2.34,0,0,0-.44,1.32,1.15,1.15,0,0,0,.2.59,3,3,0,0,1,.14-.92,3,3,0,0,1,.47-1c.73-1.11,2.22-2.39,2.12-3.79a1.67,1.67,0,0,0-1.66-1.65,1.63,1.63,0,0,0-1.77,1.57A1,1,0,0,0,42.35,58.32Z"/><path class="cls-1" d="M46,60a.57.57,0,0,1,.76-.84l-.05.09c-.4-.19-.61.3-.44.57s.81.27,1.13,0A1.28,1.28,0,0,0,47.5,58a1.41,1.41,0,0,0-1.9-.22c-1.17.74-1.28,2.74-1.77,3.94A2.35,2.35,0,0,1,43,62.87a1.16,1.16,0,0,1-.6.19,3,3,0,0,0,.67-.66,3.06,3.06,0,0,0,.52-1c.47-1.23.62-3.17,1.82-3.93a1.71,1.71,0,0,1,2.34.31,1.59,1.59,0,0,1-.22,2.33A1,1,0,0,1,46,60Z"/><polygon points="42.4 63.06 42.04 62.89 57.18 33.18 58.89 30.25 57.53 33.35 42.4 63.06"/><path class="cls-1" d="M49.84,50.42c-2.55,5-5.07,8.86-5.62,8.6s1.08-4.55,3.64-9.57,5.07-8.87,5.62-8.6S52.39,45.4,49.84,50.42Z"/><path class="cls-1" d="M28,30.32l-.55-.09A4.8,4.8,0,0,1,25,29a2.18,2.18,0,0,0,.46.85,3.55,3.55,0,0,0,2.1.93c2.06.4,5.33-.15,6.87,1.53a2.48,2.48,0,0,1,.19,3.28,2.06,2.06,0,0,1-3.06.43,1.35,1.35,0,0,1-.31-1.88c.37-.38,1.23-.2,1.06.51l.14.07a.93.93,0,0,0-1.58-1,1.84,1.84,0,0,0,.32,2.67A2.56,2.56,0,0,0,35,36a3,3,0,0,0-.21-4C33.25,30.22,30.1,30.65,28,30.32Z"/><path class="cls-1" d="M28.72,35.83c-.78.63-.4,2,.75,1.72l0-.17c-.73.11-.8-.79-.39-1.13.63-.49,1.43,0,1.79.53a2.17,2.17,0,0,1-.77,3.07,2.31,2.31,0,0,1-3.13-.59c-1.45-1.76-.56-5-.69-7.19a3.91,3.91,0,0,0-.68-2.23,1.91,1.91,0,0,0-.84-.61,5,5,0,0,1,.7,1.39,5.11,5.11,0,0,1,.3,1.79c.08,2.21-.72,5.39.77,7.19a2.82,2.82,0,0,0,3.86.67,2.7,2.7,0,0,0,.9-3.83A1.73,1.73,0,0,0,28.72,35.83Z"/><path class="cls-1" d="M51.87,63.24c.18-.57-.43-1.12-.91-.6l.07.07c.32-.29.64.12.54.42a.75.75,0,0,1-1,.33A1.27,1.27,0,0,1,50,61.71,1.36,1.36,0,0,1,51.67,61c1.26.39,1.84,2.27,2.58,3.29a2.21,2.21,0,0,0,1,.87,1.11,1.11,0,0,0,.6,0,2.79,2.79,0,0,1-.78-.45,2.87,2.87,0,0,1-.7-.78c-.73-1.06-1.33-2.87-2.62-3.27a1.66,1.66,0,0,0-2.1.94,1.57,1.57,0,0,0,.75,2.17A1,1,0,0,0,51.87,63.24Z"/><path class="cls-1" d="M54.77,60.53a.56.56,0,0,1-.47-1l.06.08c-.32.3,0,.66.35.6s.54-.65.44-1a1.21,1.21,0,0,0-1.63-.8,1.42,1.42,0,0,0-.91,1.67c.23,1.33,2,2.14,2.89,3a2.24,2.24,0,0,1,.72,1.15,1.16,1.16,0,0,1,0,.62,3.24,3.24,0,0,0-1-1.66c-.94-.86-2.63-1.68-2.86-3a1.73,1.73,0,0,1,1.15-2,1.5,1.5,0,0,1,2,1A1.06,1.06,0,0,1,54.77,60.53Z"/><polygon points="56.16 64.87 55.87 65.14 26.31 31.07 23.45 27.48 26.6 30.8 56.16 64.87"/><path class="cls-1" d="M43.4,49.37c5,5.71,8.74,10.56,8.44,10.83s-4.56-4.14-9.51-9.85S33.6,39.79,33.89,39.52,38.45,43.66,43.4,49.37Z"/><path d="M62.41,26.4c.58-1,.66-1.21.42-1.41l-.11-.08a.42.42,0,0,1,.15-.24c.22.15.38.25.58.36s.35.18.6.3a.42.42,0,0,1-.13.25l-.13,0c-.31-.11-.41.06-1,1.09l-2,3.48c-.58,1-.65,1.18-.41,1.4l.1.1a.41.41,0,0,1-.15.24c-.22-.15-.38-.25-.56-.36s-.36-.19-.61-.3a.41.41,0,0,1,.13-.25l.13,0c.31.09.4,0,1-1.08Z"/><path d="M74.27,38.39c1-.58,1.2-.68,1.09-1l0-.13a.41.41,0,0,1,.25-.13c.11.25.19.41.3.61s.21.34.36.56a.41.41,0,0,1-.24.15l-.09-.11c-.2-.25-.38-.16-1.41.42l-3.48,2c-1,.58-1.17.67-1.08,1l0,.13a.42.42,0,0,1-.25.13c-.11-.25-.19-.41-.3-.6s-.21-.35-.36-.58a.4.4,0,0,1,.24-.15l.1.1c.22.24.37.17,1.4-.41Z"/><path d="M75.16,40c1-.58,1.2-.68,1.09-1l0-.13a.42.42,0,0,1,.25-.13c.11.25.19.41.3.61s.21.34.36.56a.42.42,0,0,1-.24.15l-.08-.11c-.21-.25-.38-.16-1.41.42l-3.48,2c-1,.58-1.17.67-1.08,1l0,.13a.41.41,0,0,1-.25.13c-.11-.24-.19-.41-.3-.6s-.21-.35-.36-.57a.41.41,0,0,1,.24-.15l.1.1c.23.24.37.17,1.4-.41Z"/><path d="M78.42,52.53c1.19,0,1.38,0,1.43-.33l0-.13a.41.41,0,0,1,.28,0c0,.27,0,.45,0,.68s0,.4,0,.67a.42.42,0,0,1-.28,0l0-.14C79.8,53,79.61,53,78.42,53h-4c-1.19,0-1.34,0-1.42.33l0,.14a.42.42,0,0,1-.28,0c0-.27,0-.45,0-.67s0-.41,0-.68a.41.41,0,0,1,.28,0l0,.13c.08.32.24.33,1.42.33Z"/><path d="M78.42,54.35c1.19,0,1.38,0,1.43-.33l0-.13a.4.4,0,0,1,.28,0c0,.27,0,.45,0,.68s0,.4,0,.67a.41.41,0,0,1-.28,0l0-.14c-.06-.32-.25-.33-1.43-.33h-4c-1.19,0-1.34,0-1.42.33l0,.14a.41.41,0,0,1-.28,0c0-.27,0-.45,0-.67s0-.41,0-.68a.4.4,0,0,1,.28,0L73,54c.08.32.24.33,1.42.33Z"/><path d="M78.42,56.17c1.19,0,1.38,0,1.43-.33l0-.13a.42.42,0,0,1,.28,0c0,.27,0,.45,0,.68s0,.4,0,.67a.42.42,0,0,1-.28,0l0-.14c-.06-.32-.25-.33-1.43-.33h-4c-1.19,0-1.34,0-1.42.33l0,.14a.42.42,0,0,1-.28,0c0-.27,0-.45,0-.67s0-.41,0-.68a.41.41,0,0,1,.28,0l0,.13c.08.32.24.33,1.42.33Z"/><path d="M45.73,28.32a.36.36,0,0,1,0,.28c-.25,0-.46,0-.68,0a6.59,6.59,0,0,0-.69,0,.45.45,0,0,1,0-.28l.16,0c.12,0,.18-.07.18-.14a1.52,1.52,0,0,0-.12-.49C44.33,27,44,26,43.79,25.4c-.14.38-.54,1.6-.76,2.39a1.58,1.58,0,0,0-.07.36c0,.07,0,.12.16.14l.14,0a.38.38,0,0,1,0,.28,5.3,5.3,0,0,0-.58,0,4.57,4.57,0,0,0-.55,0,.32.32,0,0,1,0-.28l.13,0c.29-.07.48-.55.64-1,.06-.18.44-1.16.73-2.06a.83.83,0,0,0,0-.22,1.12,1.12,0,0,0-.07-.26l-.81-2.41c-.18-.53-.28-.75-.47-.84l-.17-.08a.43.43,0,0,1,0-.28c.25,0,.43,0,.62,0a5,5,0,0,0,.61,0,.37.37,0,0,1,0,.28l-.15,0a.17.17,0,0,0-.16.14,2.64,2.64,0,0,0,.16.62c.18.54.5,1.54.69,2.05.14-.36.62-1.95.72-2.29a1.64,1.64,0,0,0,.08-.37c0-.06-.08-.12-.18-.15l-.14,0a.35.35,0,0,1,0-.28,4.71,4.71,0,0,0,.57,0,3.74,3.74,0,0,0,.52,0,.38.38,0,0,1,0,.28l-.13,0c-.16,0-.35.37-.58,1s-.44,1.23-.7,2a1.11,1.11,0,0,0-.05.21.9.9,0,0,0,.07.29L45,27.55c.18.53.32.71.49.74Z"/><path d="M46.29,22.88c0-1.19,0-1.38-.33-1.43l-.13,0a.41.41,0,0,1,0-.28c.27,0,.45,0,.68,0s.4,0,.67,0a.41.41,0,0,1,0,.28l-.13,0c-.32.06-.33.25-.33,1.43v4c0,1.19,0,1.34.33,1.42l.13,0a.41.41,0,0,1,0,.28c-.27,0-.45,0-.67,0s-.41,0-.68,0a.41.41,0,0,1,0-.28l.13,0c.32-.08.33-.24.33-1.42Z"/><path d="M48.11,22.88c0-1.19,0-1.38-.33-1.43l-.13,0a.41.41,0,0,1,0-.28c.27,0,.45,0,.68,0s.4,0,.67,0a.41.41,0,0,1,0,.28l-.13,0c-.32.06-.33.25-.33,1.43v4c0,1.19,0,1.34.33,1.42l.13,0a.41.41,0,0,1,0,.28c-.27,0-.45,0-.67,0s-.41,0-.68,0a.41.41,0,0,1,0-.28l.13,0c.32-.08.33-.24.33-1.42Z"/><path d="M75.4,68.55c1,.6,1.19.68,1.4.44l.09-.1a.42.42,0,0,1,.24.15c-.15.22-.26.37-.37.57s-.19.35-.31.59a.42.42,0,0,1-.25-.13l0-.13c.11-.3,0-.41-1.07-1l-3.45-2c-1-.6-1.17-.67-1.4-.43l-.1.1a.42.42,0,0,1-.24-.15c.16-.22.26-.37.37-.56s.2-.36.31-.6a.41.41,0,0,1,.25.13l0,.13c-.09.31,0,.4,1.06,1Z"/><path d="M75,70.26c.6.21.85.26,1,.09l.07-.07a.34.34,0,0,1,.23.15,4,4,0,0,0-.31.47,6.17,6.17,0,0,0-.3.58.35.35,0,0,1-.25-.13l0-.08c.05-.2,0-.28-.06-.33s-.67-.27-1.49-.56c-1.25-.44-2.48-.87-3.73-1.29.55.52,1.44,1.29,1.89,1.7L74,72.48a2.49,2.49,0,0,0,.35.26c.07,0,.17,0,.31-.1l.07-.07a.36.36,0,0,1,.24.15,4.16,4.16,0,0,0-.31.47,4.31,4.31,0,0,0-.23.47.41.41,0,0,1-.25-.13l.06-.15c0-.12,0-.26-.2-.44-.38-.39-1.06-1-1.92-1.82l-1-.95c-.78-.71-1.78-1.58-2.25-2a.08.08,0,0,1,0-.07.13.13,0,0,1,.07-.05c.44.19,1,.38,1.41.54Z"/><path d="M62.46,82.59c.41.49.6.66.82.59l.1,0a.34.34,0,0,1,.13.25,3.88,3.88,0,0,0-.51.24,6.34,6.34,0,0,0-.55.34.35.35,0,0,1-.14-.24l.06-.06c.15-.15.16-.23.12-.31s-.44-.58-1-1.24c-.84-1-1.68-2-2.54-3,.21.73.57,1.85.75,2.43.23.74.62,2,.77,2.44a2.24,2.24,0,0,0,.17.41c0,.07.13.12.31.07l.1,0a.36.36,0,0,1,.13.25,4.26,4.26,0,0,0-.95.52.41.41,0,0,1-.14-.24l.13-.1c.1-.08.11-.24.06-.48-.12-.53-.38-1.43-.72-2.55l-.41-1.35c-.31-1-.71-2.27-.92-2.83a.08.08,0,0,1,0-.06.13.13,0,0,1,.09,0c.28.38.63.82.94,1.19Z"/><path d="M49.08,87c.12.63.2.86.44.92l.1,0a.33.33,0,0,1,0,.28,3.84,3.84,0,0,0-.56,0,6.18,6.18,0,0,0-.65,0,.36.36,0,0,1,0-.28l.08,0c.2-.06.25-.12.25-.21s-.1-.72-.27-1.57c-.25-1.3-.49-2.59-.76-3.87-.17.74-.39,1.89-.52,2.49-.16.76-.41,2-.5,2.51a2.39,2.39,0,0,0,0,.44c0,.08.05.17.24.21l.1,0a.35.35,0,0,1,0,.28,4.35,4.35,0,0,0-1.08,0,.42.42,0,0,1,0-.28l.16,0c.13,0,.21-.16.28-.39.15-.53.36-1.43.6-2.58l.29-1.38c.22-1,.47-2.33.56-2.92a.08.08,0,0,1,.06,0,.13.13,0,0,1,.08,0c.06.47.16,1,.25,1.49Z"/><path d="M45.29,86.47c0,1.19,0,1.38.33,1.43l.13,0a.42.42,0,0,1,0,.28c-.27,0-.45,0-.68,0s-.4,0-.67,0a.41.41,0,0,1,0-.28l.13,0c.32-.06.33-.25.33-1.43v-4c0-1.19,0-1.34-.33-1.42l-.13,0a.41.41,0,0,1,0-.28c.27,0,.45,0,.67,0s.41,0,.68,0a.41.41,0,0,1,0,.28l-.13,0c-.32.08-.33.23-.33,1.42Z"/><path d="M33.43,84.69c-.21.6-.26.85-.09,1l.07.07a.34.34,0,0,1-.15.24,3.76,3.76,0,0,0-.47-.31,6,6,0,0,0-.58-.3.35.35,0,0,1,.13-.25l.08,0c.21.05.28,0,.33-.06s.27-.67.56-1.49c.44-1.25.87-2.48,1.28-3.72-.52.55-1.29,1.44-1.7,1.89L31.2,83.71a2.29,2.29,0,0,0-.26.35c0,.07,0,.17.1.31l.07.07a.36.36,0,0,1-.15.24,4.42,4.42,0,0,0-.93-.54.42.42,0,0,1,.13-.25l.15.06c.12,0,.26,0,.44-.2.39-.38,1-1.06,1.82-1.92l.95-1c.7-.78,1.58-1.78,2-2.25h.07a.14.14,0,0,1,.05.07c-.19.44-.38,1-.54,1.41Z"/><path d="M30.41,82.34c-.6,1-.68,1.2-.44,1.41l.11.09a.41.41,0,0,1-.15.24c-.22-.15-.37-.26-.57-.37s-.35-.19-.59-.31a.41.41,0,0,1,.13-.25l.13,0c.3.11.41,0,1-1.07l2-3.45c.6-1,.67-1.17.43-1.4l-.1-.1a.41.41,0,0,1,.15-.24c.22.16.37.26.56.36s.36.2.6.31a.41.41,0,0,1-.13.25l-.14,0c-.31-.09-.4,0-1,1.06Z"/><path d="M28.84,81.42c-.6,1-.68,1.2-.44,1.41l.1.09a.41.41,0,0,1-.15.24c-.22-.15-.37-.26-.57-.37s-.35-.19-.59-.31a.41.41,0,0,1,.13-.25l.13,0c.3.11.41-.05,1-1.07l2-3.45c.6-1,.67-1.17.43-1.4l-.1-.1a.41.41,0,0,1,.15-.24c.22.15.37.26.56.37s.36.19.6.31a.41.41,0,0,1-.13.25l-.13,0c-.31-.09-.4,0-1,1.06Z"/><path d="M20.33,74.08c-.5.4-.67.58-.61.81l0,.1a.34.34,0,0,1-.25.12,3.59,3.59,0,0,0-.23-.51,5.71,5.71,0,0,0-.33-.56.35.35,0,0,1,.24-.14l.06.06c.14.15.22.16.31.13s.59-.42,1.27-1c1-.82,2.07-1.63,3.08-2.46-.73.19-1.86.52-2.45.69L19,72.06a2.44,2.44,0,0,0-.41.16c-.07,0-.12.13-.08.31l0,.1a.36.36,0,0,1-.25.12,4,4,0,0,0-.23-.51,4.23,4.23,0,0,0-.27-.45.4.4,0,0,1,.24-.14l.09.13c.08.1.24.11.48.07.54-.11,1.44-.34,2.56-.65l1.36-.38c1-.28,2.28-.66,2.85-.85a.08.08,0,0,1,.06,0,.13.13,0,0,1,0,.09c-.39.27-.83.61-1.21.91Z"/><path d="M19,70.48c-1.05.55-1.22.64-1.12,1l0,.13a.41.41,0,0,1-.25.12c-.11-.25-.18-.42-.28-.62s-.19-.35-.34-.58a.41.41,0,0,1,.24-.14l.08.11c.2.25.37.18,1.42-.37l3.54-1.84c1.05-.55,1.19-.63,1.11-.95l0-.14a.4.4,0,0,1,.25-.12c.11.25.18.42.28.61s.2.36.34.59a.41.41,0,0,1-.24.14l-.09-.1c-.22-.24-.36-.18-1.41.37Z"/><path d="M18.2,68.86c-1.05.55-1.22.65-1.12,1l0,.13a.41.41,0,0,1-.25.12c-.1-.25-.18-.42-.28-.62s-.19-.35-.34-.58a.42.42,0,0,1,.24-.14l.08.11c.2.26.37.18,1.42-.37l3.54-1.84c1.06-.55,1.19-.63,1.11-.95l0-.13a.41.41,0,0,1,.25-.12c.1.25.18.42.28.61s.2.36.34.58a.41.41,0,0,1-.24.14l-.09-.1c-.22-.24-.36-.18-1.41.36Z"/><path d="M17.36,67.25c-1.05.55-1.22.65-1.12,1l0,.13a.41.41,0,0,1-.25.12c-.11-.25-.18-.42-.28-.62s-.19-.35-.34-.58a.41.41,0,0,1,.24-.14l.08.11c.2.26.37.18,1.42-.37L20.7,65c1.05-.55,1.19-.63,1.11-.95l0-.13a.41.41,0,0,1,.25-.12c.11.25.18.42.28.61s.2.36.34.58a.41.41,0,0,1-.24.14l-.09-.1c-.22-.25-.36-.18-1.41.36Z"/><path d="M24.25,40.09a.36.36,0,0,1,.24.15c-.14.2-.26.38-.38.57a6.64,6.64,0,0,0-.32.61.45.45,0,0,1-.25-.13l.05-.15c0-.12,0-.19,0-.23a1.57,1.57,0,0,0-.48-.15c-.71-.15-1.66-.37-2.33-.49.25.32,1.1,1.29,1.66,1.87a1.67,1.67,0,0,0,.27.24c.06,0,.13,0,.2-.06L23,42.2a.38.38,0,0,1,.24.15,5.46,5.46,0,0,0-.33.48,4.37,4.37,0,0,0-.25.49.32.32,0,0,1-.25-.13l0-.13c.09-.28-.23-.69-.53-1.06-.12-.15-.78-1-1.4-1.68a.8.8,0,0,0-.17-.16,1.09,1.09,0,0,0-.25-.08l-2.48-.54c-.54-.12-.79-.14-1,0l-.16.11a.44.44,0,0,1-.23-.15c.15-.21.25-.35.35-.52a4.82,4.82,0,0,0,.28-.54.38.38,0,0,1,.25.13l-.06.14a.17.17,0,0,0,0,.21,2.63,2.63,0,0,0,.61.18c.55.12,1.58.37,2.11.46-.24-.3-1.36-1.53-1.59-1.79A1.68,1.68,0,0,0,18,37.5s-.15,0-.22.08l-.1.1c-.08,0-.22-.09-.23-.15a4.58,4.58,0,0,0,.32-.47,3.6,3.6,0,0,0,.24-.46.39.39,0,0,1,.25.13l0,.12c-.05.16.14.5.52,1s.83,1,1.35,1.62a1,1,0,0,0,.16.15.85.85,0,0,0,.29.09l2.76.58c.55.11.77.08.89,0Z"/><path d="M34.76,30.54a.36.36,0,0,1,.14.24c-.22.11-.41.21-.59.33a6.48,6.48,0,0,0-.57.4.46.46,0,0,1-.16-.23l.11-.11c.09-.08.12-.15.08-.22a1.51,1.51,0,0,0-.36-.35c-.56-.46-1.31-1.09-1.85-1.5.08.4.39,1.65.63,2.42a1.58,1.58,0,0,0,.13.34c0,.06.11.08.21,0l.14,0a.39.39,0,0,1,.14.24,5.12,5.12,0,0,0-.51.28,4.55,4.55,0,0,0-.45.32.32.32,0,0,1-.16-.23l.1-.1c.21-.21.11-.72,0-1.18,0-.19-.25-1.22-.48-2.14a.82.82,0,0,0-.08-.21,1.12,1.12,0,0,0-.19-.18l-2-1.61c-.43-.35-.64-.49-.84-.46l-.19,0a.44.44,0,0,1-.14-.24c.23-.12.38-.2.55-.3a4.7,4.7,0,0,0,.5-.35c.05,0,.14.15.16.23L29,26a.17.17,0,0,0-.06.21,2.66,2.66,0,0,0,.47.44c.44.36,1.24,1,1.67,1.37-.07-.38-.51-2-.6-2.32a1.58,1.58,0,0,0-.13-.35s-.13-.06-.23,0l-.14,0a.36.36,0,0,1-.14-.24,4.69,4.69,0,0,0,.5-.27,3.55,3.55,0,0,0,.42-.3.39.39,0,0,1,.16.23l-.1.09c-.12.12-.1.5,0,1.11s.28,1.28.46,2.05a1,1,0,0,0,.07.21.87.87,0,0,0,.21.21l2.19,1.78c.43.35.65.43.81.37Z"/><path d="M32.34,25.62c-.63-1-.74-1.16-1-1l-.13.05a.41.41,0,0,1-.14-.24c.24-.12.4-.21.59-.33s.33-.22.55-.38a.41.41,0,0,1,.16.23l-.1.09c-.24.22-.15.39.48,1.39l2.12,3.38c.63,1,.72,1.13,1,1l.13,0a.42.42,0,0,1,.14.24c-.24.12-.4.21-.58.33s-.34.23-.56.39a.4.4,0,0,1-.16-.23l.09-.1c.23-.24.15-.37-.48-1.38Z"/><path d="M14.67,56.73c-1.19,0-1.38,0-1.43.33l0,.13a.41.41,0,0,1-.28,0c0-.27,0-.45,0-.68s0-.4,0-.67a.42.42,0,0,1,.28,0l0,.13c.06.32.25.33,1.43.33h4c1.19,0,1.34,0,1.42-.33l0-.13a.42.42,0,0,1,.28,0c0,.27,0,.45,0,.67s0,.41,0,.68a.41.41,0,0,1-.28,0l0-.13c-.08-.32-.24-.33-1.42-.33Z"/><path d="M20.12,52a.36.36,0,0,1,.28,0c0,.25,0,.46,0,.68a6.6,6.6,0,0,0,0,.69.45.45,0,0,1-.28,0l0-.16c0-.12-.07-.18-.15-.18a1.53,1.53,0,0,0-.49.12c-.68.23-1.62.53-2.25.77.38.14,1.6.54,2.39.76a1.55,1.55,0,0,0,.36.07c.07,0,.12,0,.15-.16l0-.15a.38.38,0,0,1,.28,0,5.28,5.28,0,0,0,0,.58,4.56,4.56,0,0,0,0,.55.32.32,0,0,1-.28,0l0-.13c-.07-.29-.55-.48-1-.64-.18-.07-1.17-.44-2.06-.73a.81.81,0,0,0-.22,0,1.15,1.15,0,0,0-.26.06L14.14,55c-.53.18-.75.28-.84.47l-.08.17a.44.44,0,0,1-.28,0c0-.25,0-.43,0-.62a4.82,4.82,0,0,0,0-.61.37.37,0,0,1,.28,0l0,.15a.17.17,0,0,0,.14.16,2.64,2.64,0,0,0,.62-.16c.54-.18,1.55-.49,2.05-.69-.36-.14-2-.62-2.29-.72A1.64,1.64,0,0,0,13.4,53c-.06,0-.12.08-.14.18l0,.14a.35.35,0,0,1-.28,0,4.6,4.6,0,0,0,0-.57,3.64,3.64,0,0,0,0-.52.39.39,0,0,1,.28,0l0,.13c0,.16.37.35,1,.58s1.23.44,2,.7l.21.05a.89.89,0,0,0,.29-.07l2.67-.91c.53-.18.71-.32.74-.49Z"/><path class="cls-1" d="M68.46,10C68,12,70,13.44,71.64,13.73,75.1,14.26,77.34,12,78,8.64a6.25,6.25,0,0,0-4.74-7C67.57,0,60.88,5.67,55.68,7.58a9.47,9.47,0,0,1-6,.78,4.49,4.49,0,0,1-3.43-4.71A3.5,3.5,0,0,1,49.68.29a2.52,2.52,0,0,1,2.48,2.88l-.43.1a1.74,1.74,0,0,0-2-1.67,2.31,2.31,0,0,0-2.08,2.25A3,3,0,0,0,50.16,7c1.93.53,3.93-.21,5.79-1C61.21,3.84,67.76-1.35,73.6.33,77.51,1.48,80.12,5,79.36,8.91c-.73,4.12-3.77,6.87-8,6.19-2.44-.45-5-2.47-4.25-5.45.64-2.54,4.28-3.08,4.84,0l-.41,0C71,7.88,68.8,8.65,68.46,10Z"/><path class="cls-1" d="M24.42,10c.48,2-1.49,3.45-3.17,3.74-3.46.53-5.71-1.75-6.36-5.09a6.25,6.25,0,0,1,4.74-7C25.31,0,32,5.67,37.2,7.58a9.47,9.47,0,0,0,6,.78,4.49,4.49,0,0,0,3.43-4.71A3.5,3.5,0,0,0,43.2.29a2.52,2.52,0,0,0-2.48,2.87l.43.1a1.74,1.74,0,0,1,2-1.67,2.31,2.31,0,0,1,2.08,2.25A3,3,0,0,1,42.72,7c-1.93.53-3.93-.21-5.79-1C31.67,3.84,25.12-1.35,19.28.33,15.37,1.48,12.76,5,13.52,8.91c.73,4.12,3.77,6.87,8,6.19,2.44-.45,5-2.47,4.25-5.45-.64-2.54-4.28-3.08-4.84,0l.41,0C21.9,7.88,24.08,8.65,24.42,10Z"/></g></g></svg>