<svg xmlns="http://www.w3.org/2000/svg" viewBox="0 0 47.17 93.15"><defs><style>.cls-1{fill-rule:evenodd;}.cls-2{fill:#fff;}.cls-3{fill:none;}</style></defs><title>Ресурс 5clock</title><g id="Слой_2" data-name="Слой 2"><g id="Layer_1" data-name="Layer 1"><path class="cls-1" d="M33.26,63.94a2.49,2.49,0,0,0-2.86-1c1.45-1,2.82.25,3.25.8,1.19,1.4.55,3.64.33,4.76a1.88,1.88,0,0,0,1.45,2.27c1.7.22,2-1.9,1.06-1.81-.33.09-.24.81-.09.84a.64.64,0,1,1,.51-1.18c1,.55.49,2-.29,2.46-1.83,1-3.46-.92-3.19-2.65C33.6,67.07,34.32,65.43,33.26,63.94Z"/><path class="cls-1" d="M13.51,63.88a2.49,2.49,0,0,1,2.86-1c-1.45-1-2.82.25-3.25.8-1.19,1.4-.55,3.64-.33,4.76a1.88,1.88,0,0,1-1.45,2.26c-1.7.22-2-1.9-1.06-1.8.33.09.24.8.09.83a.64.64,0,1,0-.51-1.18c-1,.55-.49,2,.3,2.46,1.83,1,3.46-.92,3.19-2.65C13.16,67,12.45,65.37,13.51,63.88Z"/><path class="cls-1" d="M23.9,87.1c1,2.8,2.42,4.57,5.59,5.21a8.14,8.14,0,0,0,5.59-.75l.05-.11a3.27,3.27,0,0,1,.64-.27,11.37,11.37,0,0,0,4.3-13.06c-2.42-6.18-8.82-7.69-13.82-11.24a6.5,6.5,0,0,1-2.53-7.42,4.81,4.81,0,0,1,3.9-3.12,5.07,5.07,0,0,1,3.72,1.14,4.48,4.48,0,0,1,.72.83,4.66,4.66,0,0,1,.5,1.21,3.49,3.49,0,0,1,.16,1.25,2.66,2.66,0,0,1-1.12,2,4.06,4.06,0,0,1-1.16.58,3.43,3.43,0,0,1-1.16.13A2.78,2.78,0,0,1,28,63.1a2.4,2.4,0,0,1-.69-.68,1.34,1.34,0,0,1,.07-1.62,1.22,1.22,0,0,1,1.34-.4c.51.24.48.9.47,1.37-.11-.45-.33-1-.9-.91A.94.94,0,0,0,28,62.48a3.93,3.93,0,0,0,1.63.43,2.23,2.23,0,0,0,2.46-2,3.51,3.51,0,0,0-1.8-3.59,7.09,7.09,0,0,0-1-.39,1.88,1.88,0,0,0-.27-.09,4.22,4.22,0,0,0-4.3,1.94c-3.87,6.61,6.5,9.94,10.43,12.47,6.72,4.19,8.77,13,3.07,18.76a2.49,2.49,0,0,1-.32.38l-2,1.4c-3.71,2.1-8.55,1.83-11.34-1.83-2.47-3.23-1-9.84,4.09-8.87A3.27,3.27,0,0,1,30.94,86c-2.79,2,1.13-.65-.05-2.1a2.88,2.88,0,0,0-2.37-2.2C25.13,81.19,23.74,84.36,23.9,87.1Z"/><path class="cls-1" d="M23.17,86.89c-1,2.8-2.42,4.57-5.59,5.21A8.16,8.16,0,0,1,12,91.36l-.05-.11a3.21,3.21,0,0,0-.64-.27A11.37,11.37,0,0,1,7,77.92c2.42-6.18,8.81-7.69,13.81-11.24a6.5,6.5,0,0,0,2.53-7.42,4.82,4.82,0,0,0-3.9-3.12,5.06,5.06,0,0,0-3.72,1.14,4.53,4.53,0,0,0-.72.83,4.75,4.75,0,0,0-.5,1.21,3.45,3.45,0,0,0-.16,1.25,2.65,2.65,0,0,0,1.12,2,4,4,0,0,0,1.16.58,3.41,3.41,0,0,0,1.15.13,2.79,2.79,0,0,0,1.32-.41,2.44,2.44,0,0,0,.69-.68,1.34,1.34,0,0,0-.08-1.62,1.22,1.22,0,0,0-1.34-.4c-.51.24-.48.9-.47,1.37.11-.45.33-1,.9-.91a.94.94,0,0,1,.28,1.61,3.88,3.88,0,0,1-1.62.43,2.23,2.23,0,0,1-2.46-2,3.4,3.4,0,0,1,0-.94,3.36,3.36,0,0,1,1.82-2.65,7.39,7.39,0,0,1,1-.39,1.88,1.88,0,0,1,.27-.08,4.21,4.21,0,0,1,4.3,1.93c3.87,6.61-6.5,9.94-10.43,12.47C5.21,75.28,3.17,84,8.87,89.85a2.17,2.17,0,0,0,.32.38l2,1.4c3.71,2.1,8.55,1.83,11.35-1.83,2.47-3.22,1-9.84-4.09-8.87a3.27,3.27,0,0,0-2.31,4.89c2.79,2-1.13-.65.05-2.1a2.88,2.88,0,0,1,2.37-2.21C21.93,81,23.33,84.15,23.17,86.89Z"/><path class="cls-1" d="M18.51,88.74c1.69.84,4.22-.23,3.7-2.48-.23-.94-1.54-1.89-2.39-1.08a.69.69,0,1,0,1,.95c-.06.16-.8,0-.79-.35.21-1,2.25,0,1.51,1.62a2,2,0,0,1-2.78.74,6.24,6.24,0,0,1-2.47-3.3,2,2,0,0,1,1.49-2.46c1.81-.24,2.12,2,1.13,1.9-.29-.08-.28-.84-.11-.85a.67.67,0,1,0,.6,1.19c1-.59.5-2.07-.36-2.6-2-1.09-3.73,1-3.39,2.89A6.49,6.49,0,0,0,18.51,88.74Z"/><path class="cls-1" d="M28.41,88.91c-1.69.84-4.21-.23-3.7-2.48.23-.94,1.54-1.9,2.39-1.08a.69.69,0,1,1-1,.95c.06.16.8,0,.79-.35-.21-1-2.25,0-1.51,1.62a2,2,0,0,0,2.78.74A6.22,6.22,0,0,0,30.63,85a2,2,0,0,0-1.49-2.46c-1.81-.24-2.12,2-1.13,1.9.29-.07.28-.84.11-.85a.67.67,0,1,1-.6,1.19c-1-.59-.5-2.07.37-2.6,2-1.09,3.73,1,3.39,2.89A6.48,6.48,0,0,1,28.41,88.91Z"/><path class="cls-1" d="M25.12,65.95c1.26.63,1.75,2.63.18,3.33-.67.28-1.82-.07-1.72-.95a.52.52,0,1,1,1,.18c.07-.11-.39-.46-.56-.32-.49.56,1,1.37,1.65.14a1.49,1.49,0,0,0-.81-2,4.25,4.25,0,0,0-3.09,0,1.49,1.49,0,0,0-.81,2c.67,1.23,2.14.42,1.65-.14-.18-.14-.63.21-.56.32a.5.5,0,1,1,1-.18c.1.88-1,1.23-1.72.95-1.54-.7-1.05-2.7.21-3.33A4.54,4.54,0,0,1,25.12,65.95Z"/><path class="cls-1" d="M14.47,57.07c.72,1.12.15,3-1.47,2.79-.68-.1-1.45-.94-.94-1.6a.49.49,0,1,1,.74.63c.11-.05-.09-.56-.3-.53-.67.22.14,1.58,1.27.91a1.41,1.41,0,0,0,.29-2,4,4,0,0,0-2.5-1.49A1.41,1.41,0,0,0,10,57c-.05,1.32,1.53,1.37,1.41.68-.07-.2-.61-.13-.61,0a.47.47,0,1,1,.88.33c-.34.76-1.42.5-1.85-.06-.91-1.31.45-2.7,1.78-2.6A4.28,4.28,0,0,1,14.47,57.07Z"/><path class="cls-1" d="M12.47,7.32c.72,1.12.15,3-1.47,2.79-.68-.1-1.45-.94-.94-1.6a.49.49,0,1,1,.74.63c.11-.05-.09-.56-.3-.53-.67.22.14,1.58,1.27.91a1.41,1.41,0,0,0,.29-2,4,4,0,0,0-2.5-1.49A1.41,1.41,0,0,0,8,7.26c-.05,1.32,1.53,1.37,1.41.68-.07-.2-.61-.13-.61,0a.47.47,0,1,1,.88.33c-.34.76-1.42.5-1.85-.06-.91-1.31.45-2.7,1.78-2.6A4.28,4.28,0,0,1,12.47,7.32Z"/><path class="cls-1" d="M8.16,51.33c-.45,1.26-2.27,1.94-3.1.54-.34-.59-.14-1.72.69-1.72a.49.49,0,1,1,0,1c.11.05.38-.41.23-.56-.58-.4-1.17,1.08.05,1.56a1.41,1.41,0,0,0,1.75-1,4,4,0,0,0-.35-2.89,1.41,1.41,0,0,0-1.93-.53c-1.08.76-.15,2.05.32,1.53.11-.18-.27-.57-.36-.49a.47.47,0,1,1,.27.9c-.81.2-1.27-.81-1.08-1.5C5.09,46.63,7,46.86,7.76,48A4.28,4.28,0,0,1,8.16,51.33Z"/><path class="cls-1" d="M38.87,51.33c.45,1.26,2.27,1.94,3.1.54.34-.59.14-1.72-.69-1.72a.49.49,0,1,0,0,1c-.11.05-.38-.41-.23-.56.58-.4,1.17,1.08-.05,1.56a1.41,1.41,0,0,1-1.75-1,4,4,0,0,1,.35-2.89,1.41,1.41,0,0,1,1.93-.53c1.08.76.15,2.05-.32,1.53-.11-.18.27-.57.36-.49a.47.47,0,1,0-.27.9c.81.2,1.27-.81,1.08-1.5-.48-1.53-2.41-1.29-3.15-.18A4.28,4.28,0,0,0,38.87,51.33Z"/><path class="cls-1" d="M22,.35c-1.19.6-1.66,2.48-.17,3.15.63.26,1.72-.07,1.62-.89a.49.49,0,1,0-1,.16c-.07-.1.37-.43.53-.3.46.53-.93,1.29-1.56.13A1.41,1.41,0,0,1,22.22.74a4,4,0,0,1,2.92,0A1.41,1.41,0,0,1,25.9,2.6c-.63,1.16-2,.39-1.56-.13.16-.13.59.2.53.3a.47.47,0,1,0-.93-.17c-.1.83,1,1.16,1.62.9,1.46-.66,1-2.55-.19-3.15A4.27,4.27,0,0,0,22,.35Z"/><path class="cls-1" d="M32.32,56.68c-.72,1.12-.15,3,1.47,2.79.68-.09,1.45-.94.94-1.6a.49.49,0,1,0-.74.63c-.11-.05.09-.56.3-.53.67.22-.14,1.58-1.27.91a1.41,1.41,0,0,1-.29-2,4,4,0,0,1,2.5-1.49,1.41,1.41,0,0,1,1.6,1.2c.05,1.32-1.53,1.38-1.4.68.07-.2.61-.13.61,0a.47.47,0,1,0-.88.33c.34.76,1.42.5,1.85-.06.91-1.31-.45-2.7-1.78-2.6A4.27,4.27,0,0,0,32.32,56.68Z"/><path class="cls-1" d="M34.57,7.56c-.72,1.12-.15,3,1.47,2.79.68-.09,1.45-.94.94-1.6a.49.49,0,1,0-.74.63c-.11-.05.09-.56.3-.53.67.22-.14,1.58-1.27.91a1.41,1.41,0,0,1-.29-2,4,4,0,0,1,2.5-1.49,1.41,1.41,0,0,1,1.6,1.2c.05,1.32-1.53,1.38-1.4.68.07-.2.61-.13.61,0a.47.47,0,1,0-.88.33c.34.76,1.42.5,1.85-.06.91-1.31-.45-2.7-1.78-2.6A4.27,4.27,0,0,0,34.57,7.56Z"/><path class="cls-1" d="M15.23,52.26c2.58,0,3.39,4.08,8.06,4.08H24c4.68,0,5.48-4.08,8.06-4.08,3.76,0,5.54,4.94,8.39,4A2,2,0,0,0,41.84,54c-.43-1.61-2.37-.91-1.94-.16.22.21.81-.11.75-.27,0,1-1.23.91-1.18.05.05-1.13,1.51-1.34,2.21-.81,1.61,1.13.54,3.44-1,4-3.33,1-5-3.66-8.28-3.87-2.47-.16-3.38,4.19-8.38,4h-.65c-5,.21-5.91-4.14-8.39-4-3.28.21-4.89,4.89-8.22,3.87-1.56-.59-2.63-2.9-1-4a1.37,1.37,0,0,1,2.2.81c0,.86-1.18.91-1.18-.05-.11.16.54.48.7.27C7.87,53.07,6,52.37,5.5,54a2.05,2.05,0,0,0,1.4,2.26C9.69,57.2,11.52,52.26,15.23,52.26Z"/><path class="cls-1" d="M15.07,8.14c2.58,0,3.39-4.08,8.06-4.08h.75c4.68,0,5.48,4.08,8.06,4.08,3.76,0,5.54-4.94,8.39-4a2,2,0,0,1,1.34,2.26c-.43,1.61-2.37.91-1.94.16.22-.21.81.11.75.27,0-1-1.23-.91-1.18-.05.05,1.13,1.51,1.34,2.21.81,1.61-1.13.54-3.44-1-4-3.33-1-5,3.66-8.28,3.87-2.47.16-3.38-4.19-8.38-4h-.64c-5-.21-5.91,4.14-8.39,4-3.28-.21-4.89-4.89-8.22-3.87-1.56.59-2.63,2.9-1,4a1.37,1.37,0,0,0,2.2-.81c0-.86-1.18-.91-1.18.05-.11-.16.54-.48.7-.27C7.7,7.33,5.82,8,5.33,6.42a2.05,2.05,0,0,1,1.4-2.26C9.53,3.2,11.36,8.14,15.07,8.14Z"/><rect x="23.06" y="56.62" width="0.93" height="36.21"/><path d="M0,30.38A23.59,23.59,0,0,1,23.59,6.79h0A23.59,23.59,0,0,1,47.17,30.38h0A23.59,23.59,0,0,1,23.59,54h0A23.59,23.59,0,0,1,0,30.38Zm.83,0A22.78,22.78,0,0,0,23.59,53.13h0A22.78,22.78,0,0,0,46.34,30.38h0A22.78,22.78,0,0,0,23.59,7.62h0A22.78,22.78,0,0,0,.83,30.38Z"/><circle class="cls-2" cx="23.51" cy="30.52" r="20.47"/><path d="M2.85,30.55A20.64,20.64,0,0,1,23.49,9.9h0A20.65,20.65,0,0,1,44.14,30.55h0A20.64,20.64,0,0,1,23.49,51.19h0A20.64,20.64,0,0,1,2.85,30.55ZM9,16.1a20.36,20.36,0,0,0-6,14.44h0A20.36,20.36,0,0,0,9,45H9a20.36,20.36,0,0,0,14.44,6h0a20.35,20.35,0,0,0,14.44-6h0a20.36,20.36,0,0,0,6-14.44h0a20.36,20.36,0,0,0-6-14.44h0a20.36,20.36,0,0,0-14.44-6h0A20.36,20.36,0,0,0,9,16.1Z"/><path d="M14.69,37.84a1.78,1.78,0,0,1,1.78-1.78h0a1.78,1.78,0,0,1,1.78,1.78h0a1.78,1.78,0,0,1-1.78,1.79h0a1.79,1.79,0,0,1-1.78-1.79Zm.2,0A1.58,1.58,0,0,0,15.35,39h0a1.58,1.58,0,0,0,1.12.46h0A1.58,1.58,0,0,0,17.59,39h0a1.58,1.58,0,0,0,.46-1.12h0a1.58,1.58,0,0,0-.46-1.12h0a1.58,1.58,0,0,0-1.12-.46h0a1.58,1.58,0,0,0-1.12.46h0a1.58,1.58,0,0,0-.46,1.12Z"/><path d="M28.41,37.87a1.78,1.78,0,0,1,1.79-1.78h0A1.78,1.78,0,0,1,32,37.87h0a1.78,1.78,0,0,1-1.78,1.78h0a1.78,1.78,0,0,1-1.79-1.78Zm.2,0A1.58,1.58,0,0,0,29.07,39h0a1.58,1.58,0,0,0,1.12.46h0A1.58,1.58,0,0,0,31.31,39h0a1.58,1.58,0,0,0,.46-1.12h0a1.58,1.58,0,0,0-.46-1.12h0a1.58,1.58,0,0,0-1.12-.46h0a1.58,1.58,0,0,0-1.12.46h0a1.58,1.58,0,0,0-.46,1.12Z"/><circle cx="23.48" cy="30.51" r="1.02"/><path d="M23,9.54v4.11l.44,0H24V9.54H23Zm0,37.78v4.11l.44,0H24V47.32H23ZM38.37,22.64l.19.4.39-.21,3.23-1.73-.27-.5-.2-.37-3.58,1.92.17.36ZM8.68,38.41,8.5,38l-.39.21L4.73,40l.27.51.2.37,3.72-2-.17-.36ZM33.54,12.25l-2,3.44.38.21.13.07.36.21.21-.36,1.76-3.06-.5-.29ZM15,45.09,14.71,45l-.18.32-1.91,3.32.5.29.36.21,2.17-3.77-.46-.17Zm16.36.26-.14.05-.47.16L31,46l1.8,3.36.5-.27.37-.2-2-3.66ZM13.91,11.91l-.51.27-.37.2,1.9,3.55.38-.23.13-.08.35-.2-.19-.35ZM5.55,19.69l-.29.5-.21.36,3.65,2.1.19-.42L9,22.09l.17-.35-.33-.19ZM38,38.86l-.07.12-.21.36,3.69,2.13.29-.5.21-.36-3.69-2.12ZM6.75,30.58c0-.07,0-.12,0-.15V30H2.49v1H6.76ZM40.21,30v.43c0,.06,0,.11,0,.15V31h4.2V30Z"/><circle cx="21.61" cy="10.66" r="0.31"/><circle cx="25.23" cy="10.68" r="0.31"/><circle cx="27.29" cy="10.94" r="0.31"/><circle cx="31.57" cy="12.33" r="0.31"/><circle cx="34.89" cy="14.23" r="0.31"/><circle cx="36.69" cy="15.61" r="0.31"/><circle cx="38.3" cy="17.28" r="0.31"/><circle cx="39.76" cy="19.08" r="0.31"/><circle cx="41.83" cy="22.79" r="0.31"/><circle cx="42.53" cy="24.59" r="0.31"/><circle cx="42.97" cy="26.6" r="0.31"/><circle cx="43.26" cy="28.68" r="0.31"/><circle cx="29.49" cy="11.54" r="0.31"/><circle cx="15.45" cy="12.35" r="0.31"/><circle cx="17.25" cy="11.57" r="0.31"/><circle cx="12.29" cy="14.1" r="0.31"/><circle cx="10.34" cy="15.53" r="0.31"/><circle cx="8.72" cy="17.18" r="0.31"/><circle cx="7.18" cy="18.98" r="0.31"/><circle cx="5.35" cy="22.29" r="0.31"/><circle cx="4.6" cy="24.35" r="0.31"/><circle cx="4" cy="26.44" r="0.31"/><circle cx="3.66" cy="28.53" r="0.31"/><circle cx="19.39" cy="11" r="0.31"/><circle cx="25.22" cy="50.4" r="0.31"/><circle cx="21.55" cy="50.31" r="0.31"/><circle cx="19.55" cy="50.02" r="0.31"/><circle cx="15.17" cy="48.64" r="0.31"/><circle cx="11.83" cy="46.64" r="0.31"/><circle cx="10.16" cy="45.35" r="0.31"/><circle cx="8.42" cy="43.63" r="0.31"/><circle cx="6.89" cy="41.56" r="0.31"/><circle cx="5.18" cy="38.38" r="0.31"/><circle cx="4.4" cy="36.45" r="0.31"/><circle cx="3.88" cy="34.31" r="0.31"/><circle cx="3.59" cy="31.96" r="0.31"/><circle cx="17.33" cy="49.49" r="0.31"/><circle cx="31.29" cy="48.85" r="0.31"/><circle cx="29.5" cy="49.46" r="0.31"/><circle cx="34.44" cy="47.13" r="0.31"/><circle cx="36.23" cy="45.77" r="0.31"/><circle cx="37.68" cy="44.54" r="0.31"/><circle cx="39.25" cy="42.71" r="0.31"/><circle cx="41.36" cy="39.13" r="0.31"/><circle cx="42.13" cy="37.14" r="0.31"/><circle cx="42.79" cy="34.88" r="0.31"/><circle cx="43.17" cy="32.34" r="0.31"/><circle cx="27.42" cy="50.05" r="0.31"/><path d="M26.66,32.83,18.08,26l.15-.21-.46-.37-.12.14-.43-.77a1,1,0,0,0,.42-.3,1.61,1.61,0,0,0-.6-2.13,1.61,1.61,0,0,0-2.21-.12l-.07.11-.15-.13a2.13,2.13,0,0,0-.82-.4l0,0L9.41,19.39l3.23,3.72a2.13,2.13,0,0,0,.61.77l.18.13a.87.87,0,0,0-.16.16,1.61,1.61,0,0,0,.6,2.13,1.61,1.61,0,0,0,2.21.12,1,1,0,0,0,.2-.5l.85.25-.13.18.46.37.21-.25L24.57,32h0l.82.65h0l.87.7a.33.33,0,0,0,.41-.51ZM13.53,23.47a.83.83,0,0,1-.35-.92l.12-.15a.83.83,0,0,1,1,.14,1.14,1.14,0,0,1,.36.47,1.59,1.59,0,0,0,.05.24.6.6,0,0,0-.34.45A1,1,0,0,1,13.53,23.47Zm.67,2.34a.88.88,0,0,1-.33-1.17.67.67,0,0,1,.67-.19,1.72,1.72,0,0,0,.37.41,1.74,1.74,0,0,0,.53.29.68.68,0,0,1,0,.73A.88.88,0,0,1,14.2,25.81Zm2.24-1.68a1.72,1.72,0,0,0-1.09-.91.61.61,0,0,1,.09-.53.88.88,0,0,1,1.21.07A.88.88,0,0,1,17,23.92.62.62,0,0,1,16.44,24.13Zm-.26,1.09,0-.06A.62.62,0,0,0,16.4,25a.6.6,0,0,0,.09-.16h0l.33.59Z"/><path class="cls-3" d="M23.7,19.43a.56.56,0,0,1,0,.18.63.63,0,0,1-.08.3l.06,0,.65-.26-.63-.26Z"/><path class="cls-3" d="M22.53,17.72c-.54,0-1,.31-1,.7a.61.61,0,0,0,.26.47,1.71,1.71,0,0,1,1.42,0,.62.62,0,0,0,.29-.5C23.52,18,23.08,17.72,22.53,17.72Z"/><path class="cls-3" d="M21.31,19.34l-.19-.16a1.15,1.15,0,0,0-.58-.15.83.83,0,0,0-.85.5v.19a.83.83,0,0,0,.85.5,1,1,0,0,0,.79-.33.6.6,0,0,1,0-.56Z"/><path class="cls-3" d="M23.08,20.35a1.75,1.75,0,0,1-1.13,0,.67.67,0,0,0-.4.57c0,.39.44.7,1,.7s1-.31,1-.7A.68.68,0,0,0,23.08,20.35Z"/><path d="M21.26,31.45l4.36-.74-.11-.64-2.67.45h0l-.81.14h0l-.87.15c-.12,0-.19.18-.16.36S21.15,31.47,21.26,31.45Z"/><path d="M28.52,30.23c0,.16,0,.25.05.25L29,30.4a1.78,1.78,0,0,0,0-.18l.69.22a1.17,1.17,0,0,0,0,.51,1.43,1.43,0,0,0,2.8-.47,1.05,1.05,0,0,0,0-.12l.15,0a1.39,1.39,0,0,0,.66-.31v0l3.67-1.53L33,28.28a1.4,1.4,0,0,0-.78-.09l-.17,0a1.21,1.21,0,0,0,0-.22,1.43,1.43,0,0,0-2.8.47,1.19,1.19,0,0,0,.2.49l-.58.44a1.84,1.84,0,0,0,0-.22l-.46.08s0,.13,0,.32l-3,.51.11.64Zm3.83-1.56a.66.66,0,0,1,.75.38l0,.19a.66.66,0,0,1-.58.61.76.76,0,0,1-.47-.07l-.18-.13a.76.76,0,0,0,0-.27.74.74,0,0,0-.11-.28A.72.72,0,0,1,32.35,28.67Zm-1.78-1.12a.74.74,0,0,1,.88.56.68.68,0,0,1-.22.61,1.11,1.11,0,0,0-.88.17.69.69,0,0,1-.44-.52A.74.74,0,0,1,30.57,27.54Zm-.09,2.77a1.05,1.05,0,0,0,.6.07,1.07,1.07,0,0,0,.51-.23.67.67,0,0,1,.28.43.78.78,0,0,1-1.54.26A.67.67,0,0,1,30.48,30.31Zm-.54-.93.05,0a.77.77,0,0,0,0,.3.79.79,0,0,0,.05.17l0,0-.53-.17Z"/></g></g></svg>