<svg xmlns="http://www.w3.org/2000/svg" viewBox="0 0 37.1 72.93"><defs><style>.cls-1{fill:#fff;}.cls-2{fill:none;stroke:#000;stroke-width:0.25px;}.cls-3{fill-rule:evenodd;}</style></defs><title>Ресурс 9clock</title><g id="Слой_2" data-name="Слой 2"><g id="Layer_1" data-name="Layer 1"><path d="M36.06,61.19c-.32-.24-.61-.51-.95-.71s-.59.05-1,0c-.3,0-.46-.28-.64-.47a2.07,2.07,0,0,0-.72-.47c-.27-.1-.81-.08-1-.33-.4-.6-.71-1.27-1.08-1.89-.65-1.09-1.36-2.14-2-3.23A8.43,8.43,0,0,0,24,50.37c-.7-.24-1.42-.45-2.13-.66a11.28,11.28,0,0,0-2.19-.3,9.37,9.37,0,0,0-2.93,0,24.37,24.37,0,0,0-2.9,1,12.66,12.66,0,0,0-2.31,1.29,41.93,41.93,0,0,0-4.84,3.71,7.27,7.27,0,0,0-1.35,1.77A9.09,9.09,0,0,0,4.16,60c-.46,2-.46,4.44,1.13,5.92A5.69,5.69,0,0,0,7.1,67.19c.21.08,1.14.46,1.31.3L8,67.88a18.54,18.54,0,0,1-3.07,1.68c-.65.26-1.32.44-2,.64-.3.09-.59.2-.89.28s-.56,0-.74.22-.17.33-.41.46-.4.06-.25.37c1,2,4.07,1.32,5.8,1.12.64-.07,1.3,0,1.93-.16a11.78,11.78,0,0,1,1.42-.2,9,9,0,0,1,2.21.47,9.63,9.63,0,0,0,1.9,0c2.94,0,5.88-.05,8.81,0a18.18,18.18,0,0,0,4-.1c.39-.08.93-.37,1.35-.26a8.37,8.37,0,0,0,1.87.33,29.52,29.52,0,0,0,5.18-.09c.21,0,.75-.18.69-.3s-.34-.28-.49-.41c-.4-.34-.38-.65-1-.78s-1-.12-1.43-.26-1-.36-1.5-.52a7.65,7.65,0,0,0-2.07-.32,4,4,0,0,1-.88,0c-.3-.09-.26-.48-.31-.73a4.5,4.5,0,0,0-.27-.73l-.09-.21.69.45c1.7,1.11,4.15.19,5.61-.92a3.4,3.4,0,0,0,1.51-2.39c0-.31.19-.59.21-.89s-.14-.52,0-.68.6-.06.78-.3A1.93,1.93,0,0,0,36.06,61.19ZM11.29,69.07c-.5-.13-.63-.6-.8-1a9.07,9.07,0,0,0,.87.33c.09,0,1.47.39,1.47.39l.66.12A5.26,5.26,0,0,1,11.29,69.07Zm9.33-6.7a3.38,3.38,0,0,1-.36.54l-3.48-1.32-1.25-.47c-.58-.21-1-.31-.93-1a1.84,1.84,0,0,1,1.18-1.27,2.93,2.93,0,0,1,2,.2c.19.06.76.11.88.26l.57.75s.84.87,1,1a3.83,3.83,0,0,0,.42.27s.33-.21.51-.3a.6.6,0,0,1,.39,0S20.65,62.24,20.62,62.36Zm4.14,3.33s-.42-.3-.42-.39.3-.42.3-.42a1.27,1.27,0,0,0,.21.39c.09.06.6.12.72.18a6.82,6.82,0,0,1,.75.51,2.48,2.48,0,0,1,.27.57l.21.66Z"/><ellipse cx="18.55" cy="48.59" rx="18.55" ry="2.83"/><circle cx="28.68" cy="44.86" r="1.43"/><circle cx="9.59" cy="44.67" r="1.43"/><path d="M28.54,42.94a2.33,2.33,0,1,0,3.28-.19A2.34,2.34,0,0,0,28.54,42.94Zm3.18,2.91A2,2,0,1,1,31.55,43,2,2,0,0,1,31.71,45.85Z"/><path d="M6.32,42.76a2.33,2.33,0,1,0,3.28-.19A2.33,2.33,0,0,0,6.32,42.76ZM9.5,45.67a2,2,0,1,1-.16-2.81A2,2,0,0,1,9.5,45.67Z"/><circle cx="22.7" cy="9.93" r="0.81"/><circle cx="15.64" cy="10.03" r="0.81"/><circle cx="12.02" cy="12.41" r="0.6"/><circle cx="26.18" cy="12.3" r="0.6"/><circle cx="19.04" cy="3.76" r="0.6"/><path d="M17.16.8A2.33,2.33,0,1,0,20.44.57,2.34,2.34,0,0,0,17.16.8Zm3.21,2.87a2,2,0,1,1-.2-2.81A2,2,0,0,1,20.38,3.68Z"/><path d="M17.49,7.84l0,0a.83.83,0,0,1,.16-.3h-.12a1.2,1.2,0,0,1-.64.28,1,1,0,0,1-.38-.06A.62.62,0,0,1,16.12,7a.27.27,0,0,1,.32-.19s.06.06.07.13a.47.47,0,0,1,0,.2.18.18,0,0,1,0,.07l0,.06a.46.46,0,0,0,.3-.26.39.39,0,0,0-.24-.5.49.49,0,0,0-.33,0,.73.73,0,0,0-.44.43A1,1,0,0,0,16.1,8l0,0,0,0a1.37,1.37,0,0,0,.33.18,1.24,1.24,0,0,0,.9,0,.86.86,0,0,1,.15-.27Z"/><path d="M20.76,7.81l0,0a.85.85,0,0,0-.17-.3h.12a1.2,1.2,0,0,0,.65.26,1,1,0,0,0,.38-.07.62.62,0,0,0,.37-.79.27.27,0,0,0-.32-.19s-.06.06-.06.13a.48.48,0,0,0,0,.2.18.18,0,0,0,0,.07l0,.06a.46.46,0,0,1-.3-.26.39.39,0,0,1,.22-.5.48.48,0,0,1,.32,0,.72.72,0,0,1,.45.42,1,1,0,0,1-.31,1.08l0,0,0,0a1.4,1.4,0,0,1-.33.19,1.24,1.24,0,0,1-.9,0,.83.83,0,0,0-.16-.27Z"/><path d="M17.35,11.09l0,0,0,0a1.36,1.36,0,0,1-.21-.31,1.34,1.34,0,0,1,.12-1.34l0,0h0l.15,0h0a.46.46,0,0,0,.16,0h0v0a.42.42,0,0,0,0,.09v0h0a1.19,1.19,0,0,0-.22.67,1,1,0,0,0,.1.38.62.62,0,0,0,.81.32.27.27,0,0,0,.16-.33s-.06-.05-.13-.05a.48.48,0,0,0-.2,0l-.07,0-.07,0a.46.46,0,0,1,.23-.32.39.39,0,0,1,.52.19.48.48,0,0,1,0,.32.73.73,0,0,1-.38.48A1,1,0,0,1,17.35,11.09Z"/><path d="M9.4,9.47s0,.06,0,.09a2.5,2.5,0,0,0,.08.35,1.84,1.84,0,0,0,.17.44,5.23,5.23,0,0,0,.35.49,2.83,2.83,0,0,0,.81.65,4.09,4.09,0,0,0,1.35.44l.42.05.52,0c3.19,0,6.12-2.92,6.15-7.37v0h-.42v0c-.08,4.25-2.9,6.92-5.73,7a5.08,5.08,0,0,1-1.72-.32,2.72,2.72,0,0,1-.51-.25,2.51,2.51,0,0,1-.61-.55,2,2,0,0,1-.43-1.32,2.25,2.25,0,0,1,.06-.42,1.39,1.39,0,0,1,1.32-1.1h.08c.57.08.78.43.79.74s-.15.49-.35.49l-.12,0a.15.15,0,0,1-.06-.14.53.53,0,0,1,.06-.23.24.24,0,0,1,.08-.1h0v0h0a.45.45,0,0,0-.41.43.42.42,0,0,0,.45.41h.1a.8.8,0,0,0,.63-.84,1,1,0,0,0-.29-.72,1.34,1.34,0,0,0-1-.42,1.64,1.64,0,0,0-.94.33,2,2,0,0,0-.66.76A2.3,2.3,0,0,0,9.4,9.47Z"/><path d="M12.4,8.11a2.41,2.41,0,0,0,2.05,1.28,3.46,3.46,0,0,0,.88-.07,4,4,0,0,0,1.3-.55A2.83,2.83,0,0,0,17,8.54a5.29,5.29,0,0,0,.88-.77,5.16,5.16,0,0,0,.69-1A5.06,5.06,0,0,0,19,5.71a9.18,9.18,0,0,0,.23-1.19s0-.1,0-.15v0l-.47.15h0a5.76,5.76,0,0,1-.23,1.19A4.7,4.7,0,0,1,18,6.78a6.15,6.15,0,0,1-.68.91,3.47,3.47,0,0,1-.88.7A3.55,3.55,0,0,1,14.42,9a2.5,2.5,0,0,1-.67-.16A2.08,2.08,0,0,1,12.87,8a1.46,1.46,0,0,1-.15-.29,1.41,1.41,0,0,1-.09-.49,1.29,1.29,0,0,1,.52-1.05A1,1,0,0,1,13.68,6a.67.67,0,0,1,.69.6.29.29,0,0,1-.2.29h0c-.13,0-.24-.24-.25-.36a.14.14,0,0,1,0,0l0,0,0,0,0,0a.51.51,0,0,0-.13.33.4.4,0,0,0,.41.39A.49.49,0,0,0,14.53,7a.76.76,0,0,0,.17-.48,1,1,0,0,0-.92-.91h-.14A1.54,1.54,0,0,0,12.2,7.3,1.76,1.76,0,0,0,12.4,8.11Z"/><path d="M21,11.11l0,0,0,0a1.42,1.42,0,0,0,.2-.32,1.35,1.35,0,0,0-.16-1.34l0,0h0l-.15,0h0a.43.43,0,0,1-.16,0h0v0a.41.41,0,0,1,0,.09v0h0a1.2,1.2,0,0,1,.23.67,1,1,0,0,1-.09.38A.62.62,0,0,1,20,11a.27.27,0,0,1-.17-.33s.06-.05.13-.06a.49.49,0,0,1,.2,0l.07,0,.06,0a.46.46,0,0,0-.24-.32.39.39,0,0,0-.52.2.49.49,0,0,0,0,.33.73.73,0,0,0,.39.47A1,1,0,0,0,21,11.11Z"/><path d="M28.92,9.3v.09a2.33,2.33,0,0,1-.07.35,1.78,1.78,0,0,1-.16.45,5.2,5.2,0,0,1-.34.49,2.84,2.84,0,0,1-.8.67,4.09,4.09,0,0,1-1.34.47l-.42.06-.52,0c-3.19,0-6.19-2.77-6.32-7.23v0h.42v0c.18,4.24,3.07,6.85,5.9,6.82A5,5,0,0,0,27,11.14a2.59,2.59,0,0,0,.5-.26,2.51,2.51,0,0,0,.6-.56A2,2,0,0,0,28.48,9a2.23,2.23,0,0,0-.07-.41,1.39,1.39,0,0,0-1.34-1.07H27c-.57.09-.77.45-.77.76s.16.49.37.49l.12,0a.15.15,0,0,0,.06-.14.54.54,0,0,0-.06-.23.26.26,0,0,0-.08-.1h0v0h0a.45.45,0,0,1,.42.42.42.42,0,0,1-.44.42h-.1a.79.79,0,0,1-.65-.82,1,1,0,0,1,.27-.73,1.34,1.34,0,0,1,1-.44,1.63,1.63,0,0,1,.94.3,2,2,0,0,1,.68.75A2.3,2.3,0,0,1,28.92,9.3Z"/><path d="M25.89,8a2.41,2.41,0,0,1-2,1.33A3.42,3.42,0,0,1,23,9.29a4,4,0,0,1-1.32-.52,2.76,2.76,0,0,1-.34-.22,5.19,5.19,0,0,1-1.61-1.7,5,5,0,0,1-.47-1.08A9.27,9.27,0,0,1,19,4.58s0-.1,0-.15v0l.47.14h0a5.84,5.84,0,0,0,.26,1.19,4.69,4.69,0,0,0,.52,1.06,6.28,6.28,0,0,0,.7.9,3.48,3.48,0,0,0,.9.68,3.54,3.54,0,0,0,2.08.52,2.53,2.53,0,0,0,.67-.17,2.09,2.09,0,0,0,.87-.81,1.56,1.56,0,0,0,.14-.29,1.43,1.43,0,0,0,.08-.49,1.29,1.29,0,0,0-.54-1,1,1,0,0,0-.54-.16.67.67,0,0,0-.67.61.29.29,0,0,0,.21.29h0c.13,0,.24-.24.24-.37a.11.11,0,0,0,0,0l0,0,0,0,0,0a.5.5,0,0,1,.14.32.4.4,0,0,1-.4.4A.48.48,0,0,1,23.74,7a.76.76,0,0,1-.18-.47,1,1,0,0,1,.9-.93h.14a1.54,1.54,0,0,1,1.47,1.65A1.74,1.74,0,0,1,25.89,8Z"/><path d="M1.94,28.65A17.32,17.32,0,0,1,19.26,11.34h0A17.32,17.32,0,0,1,36.57,28.65h0A17.32,17.32,0,0,1,19.26,46h0A17.32,17.32,0,0,1,1.94,28.65Zm.61,0a16.73,16.73,0,0,0,16.71,16.7h0A16.72,16.72,0,0,0,36,28.65h0A16.73,16.73,0,0,0,19.26,11.95h0A16.73,16.73,0,0,0,2.55,28.65Z"/><circle class="cls-1" cx="19.2" cy="28.76" r="15.03"/><path d="M2.86,28.69A16.33,16.33,0,0,1,19.19,12.37h0A16.33,16.33,0,0,1,35.51,28.69h0A16.33,16.33,0,0,1,19.19,45h0A16.33,16.33,0,0,1,2.86,28.69Zm4.9-11.42A16.1,16.1,0,0,0,3,28.69H3A16.11,16.11,0,0,0,7.76,40.12h0a16.1,16.1,0,0,0,11.42,4.73h0a16.1,16.1,0,0,0,11.42-4.73h0a16.1,16.1,0,0,0,4.73-11.42h0a16.1,16.1,0,0,0-4.73-11.42h0a16.1,16.1,0,0,0-11.42-4.73h0A16.1,16.1,0,0,0,7.76,17.27Z"/><circle cx="19.18" cy="28.75" r="0.75"/><path class="cls-2" d="M18.83,13.35v3h.73v-3h-.73Zm0,27.74v3l.32,0h.41v-3h-.73ZM30.11,23l.14.3.29-.15,2.37-1.27-.2-.37-.15-.27-2.63,1.41.12.26ZM8.31,34.55l-.14-.3-.29.15L5.41,35.73l.2.37.14.27,2.73-1.46-.13-.26ZM26.57,15.34l-1.45,2.52.28.15.1.05.27.15L25.9,18,27.2,15.7l-.36-.21ZM13,39.46l-.25-.1-.13.23L11.2,42l.36.21.27.15,1.59-2.77-.34-.13Zm12,.19-.1,0-.34.12.17.32L26,42.59l.37-.2.27-.15-1.44-2.69ZM12.15,15.09l-.37.2-.27.14L12.91,18l.28-.17.09-.06.26-.15-.14-.26ZM6,20.81l-.21.36-.15.26L8.33,23l.14-.31,0-.1.12-.26-.25-.14ZM29.84,34.88l-.05.09-.16.27,2.71,1.56.21-.36.15-.27L30,34.61ZM6.89,28.8s0-.09,0-.11v-.3H3.77v.73H6.9Zm24.57-.41v.32s0,.08,0,.11v.31h3.08v-.73Z"/><circle cx="17.1" cy="13.16" r="0.23"/><circle cx="20.53" cy="13.14" r="0.23"/><circle cx="22.03" cy="13.37" r="0.23"/><circle cx="25.43" cy="14.54" r="0.23"/><circle cx="28.17" cy="16.22" r="0.23"/><circle cx="29.59" cy="17.29" r="0.23"/><circle cx="30.93" cy="18.6" r="0.23"/><circle cx="32.05" cy="20.15" r="0.23"/><circle cx="33.53" cy="22.87" r="0.23"/><circle cx="34.08" cy="24.25" r="0.23"/><circle cx="34.41" cy="25.67" r="0.23"/><circle cx="34.51" cy="27.23" r="0.23"/><circle cx="23.77" cy="13.79" r="0.23"/><circle cx="12.93" cy="14.49" r="0.23"/><circle cx="14.28" cy="13.87" r="0.23"/><circle cx="10.46" cy="15.85" r="0.23"/><circle cx="9" cy="16.86" r="0.23"/><circle cx="7.72" cy="18.07" r="0.23"/><circle cx="6.71" cy="19.47" r="0.23"/><circle cx="5.18" cy="22.03" r="0.23"/><circle cx="4.41" cy="23.6" r="0.23"/><circle cx="4.02" cy="25.17" r="0.23"/><circle cx="3.7" cy="27.13" r="0.23"/><circle cx="15.7" cy="13.41" r="0.23"/><circle cx="20.46" cy="44.11" r="0.23"/><circle cx="17.39" cy="44.05" r="0.23"/><circle cx="15.86" cy="43.81" r="0.23"/><circle cx="12.85" cy="42.82" r="0.23"/><circle cx="10.05" cy="41.19" r="0.23"/><circle cx="8.7" cy="40.06" r="0.23"/><circle cx="7.64" cy="38.82" r="0.23"/><circle cx="6.61" cy="37.26" r="0.23"/><circle cx="5.17" cy="34.67" r="0.23"/><circle cx="4.57" cy="33.22" r="0.23"/><circle cx="4.16" cy="31.68" r="0.23"/><circle cx="3.84" cy="29.89" r="0.23"/><circle cx="14.16" cy="43.38" r="0.23"/><circle cx="24.94" cy="43.04" r="0.23"/><circle cx="23.59" cy="43.52" r="0.23"/><circle cx="27.96" cy="41.55" r="0.23"/><circle cx="29.18" cy="40.6" r="0.23"/><circle cx="30.25" cy="39.48" r="0.23"/><circle cx="31.42" cy="38.08" r="0.23"/><circle cx="33.34" cy="35.08" r="0.23"/><circle cx="34.01" cy="33.54" r="0.23"/><circle cx="34.32" cy="32.03" r="0.23"/><circle cx="34.65" cy="30.31" r="0.23"/><circle cx="22.17" cy="43.89" r="0.23"/><path class="cls-3" d="M19.19,30.47a.29.29,0,0,1-.27-.31l-.67-13.54a.29.29,0,0,1,.24-.33h0a.29.29,0,0,1,.27.31l.67,13.54a.29.29,0,0,1-.24.33Z"/><path class="cls-3" d="M20.34,30.78c-.12.07-.32,0-.44-.24L10.7,14.83c-.12-.2-.12-.43,0-.5h0c.12-.07.32,0,.44.24l9.2,15.71c.12.2.12.43,0,.5Z"/><circle class="cls-1" cx="19.18" cy="28.75" r="0.1"/></g></g></svg>