<svg xmlns="http://www.w3.org/2000/svg" viewBox="0 0 124.81 85.44"><defs><style>.cls-1{fill:#fff;}</style></defs><title>Ресурс 16clock</title><g id="Слой_2" data-name="Слой 2"><g id="Layer_1" data-name="Layer 1"><circle cx="113.19" cy="66.88" r="7.42"/><ellipse cx="80.38" cy="6.29" rx="3.38" ry="1.67" transform="translate(-0.21 3.76) rotate(-2.68)"/><ellipse cx="87.86" cy="6.59" rx="1.67" ry="3.38" transform="translate(71.64 93.19) rotate(-83.69)"/><circle cx="84.12" cy="5.16" r="1.67"/><path d="M35.95,7.49a2.41,2.41,0,0,0,.91-2.31c-.16-.84,0-1.71.29-1.92a7.15,7.15,0,0,1,2.69-.38,7.53,7.53,0,0,0,3.55-1c.79-.52,1.85-1.17,2.35-1.44A10.39,10.39,0,0,1,49.25,0a12.87,12.87,0,0,1,3.5.39,10.82,10.82,0,0,0,2.79.48,10.45,10.45,0,0,1,2.54.39,5.73,5.73,0,0,0,1.63.33A1.55,1.55,0,0,1,61,2.26a3.83,3.83,0,0,1,.24,1.49,4.71,4.71,0,0,0,.14,1.44,3.29,3.29,0,0,1,.05,1.35,10.63,10.63,0,0,1-.53,1.68A3.49,3.49,0,0,1,60,9.46a.72.72,0,0,1-.91-.15A2.73,2.73,0,0,0,58,8.64a3.67,3.67,0,0,0-1.82.24,5.67,5.67,0,0,0-1.63.91,1.22,1.22,0,0,0-.29,1.1A4.93,4.93,0,0,0,55,12.2a1.85,1.85,0,0,0,1.25.67h1.44a1.35,1.35,0,0,0,1-.33A4.2,4.2,0,0,0,59,11.48a2.78,2.78,0,0,1,.38-.91c.1-.11.32.07.48.38A4,4,0,0,0,60.77,12l1.34,1.15v1a5.09,5.09,0,0,1-1.54,2.11,4.45,4.45,0,0,1-2,.29c-.66-.05-1.65-.17-2.21-.24a12,12,0,0,0-7.85,1.8c-3.25,2.18-5.82,7-6.67,10.73A29,29,0,0,0,41,37.1a11.78,11.78,0,0,0,3,7.11c1,1.35,2,2.76,3,4.17,3.36,4.9,6.08,10.31,10,14.79,4.1,4.66,9.85,8.36,16.08,9.22a55.21,55.21,0,0,0,5.86.48c3.22.11,8.82.24,12.43.29s10.66.14,15.65.19,9.48-.12,10-.38a6.69,6.69,0,0,0,1.82-1.82c.5-.74,1.15-1.75,1.44-2.26a10.62,10.62,0,0,1,1.39-1.78h.58a2.94,2.94,0,0,1,2,.81,2.16,2.16,0,0,1,.58,1.29v.67a4,4,0,0,1-.58,2.11l-.29.19a36.17,36.17,0,0,1-4,4.27c-.42.24-6.18.44-12.79.46L78.55,77a137.36,137.36,0,0,1-13.8-.41,17.27,17.27,0,0,1-3.46-1.35A18.62,18.62,0,0,1,59,73.78c-.35-.29-.8-.66-1-.82v1c-.26.48-.7,1.23-1,1.68a7.65,7.65,0,0,1-1.92,1.77,9.54,9.54,0,0,1-2.45,1.2,45.15,45.15,0,0,1-5.09.39l-7.39.24c-1.82.05-4.91,0-6.86-.09l-.19,1c.53.16,1.3.44,1.73.63a1.61,1.61,0,0,1,.86,1.15,7.15,7.15,0,0,1,0,1.68,1.53,1.53,0,0,1-1,1.11c-.48.13-1.64.41-2.6.62a11.85,11.85,0,0,1-3.6.1,6.14,6.14,0,0,1-2.3-.72,6.89,6.89,0,0,1-.82-1.06,3.29,3.29,0,0,1-.43-1.25,8.36,8.36,0,0,1,.19-1.78,17.86,17.86,0,0,1,.67-2.26c.24-.6.54-1.34.67-1.63s-.19-.76-.72-1.05a5.39,5.39,0,0,1-1.54-1.35,5.78,5.78,0,0,1-.77-1.63,3.41,3.41,0,0,1,0-1.54,6.52,6.52,0,0,1,.72-1.4,11.39,11.39,0,0,1,1.06-1.24,1.08,1.08,0,0,0,0-1.35,53.48,53.48,0,0,1-4.75-8.59c-.6-1.24-1.21-2.06-1.34-1.82s-1.06,2.5-2.07,5l-.1.38-.09.39c0,.8-.86,2.14-1.17,2.89L14.6,68.14A24.53,24.53,0,0,0,12.42,76c-.16,2.4-.07,5-2.06,6.74A8.52,8.52,0,0,1,6.91,84H6.33c-3-.16-5.63-.66-5.95-1.1A2.26,2.26,0,0,1,0,81.22a6.79,6.79,0,0,1,.62-1.49,2.89,2.89,0,0,1,1.25-1,8.76,8.76,0,0,1,2-.44c.63-.05,1.41-.14,1.73-.19l.58-.29.58-.29c.05-.64.1-2,.1-3s.22-3.77.48-6.1.69-5.39,1-6.82S9,58.12,9.26,57a24.53,24.53,0,0,1,1.54-4.42c1.37-2.91,1.83-6.24,2.56-9.34a66.24,66.24,0,0,1,8.43-20.44,57,57,0,0,1,11.14-13A37.62,37.62,0,0,1,35.95,7.49Z"/><path d="M49.68,40.17A33.41,33.41,0,0,1,83.09,6.77h0a33.4,33.4,0,0,1,33.4,33.4h0a33.4,33.4,0,0,1-33.4,33.4h0a33.41,33.41,0,0,1-33.41-33.4Zm1.18,0A32.26,32.26,0,0,0,83.09,72.39h0a32.26,32.26,0,0,0,32.22-32.22h0A32.26,32.26,0,0,0,83.09,7.95h0A32.26,32.26,0,0,0,50.87,40.17Z"/><circle class="cls-1" cx="82.99" cy="40.37" r="29"/><path d="M53.72,40.41A29.24,29.24,0,0,1,83,11.17h0a29.24,29.24,0,0,1,29.24,29.24h0A29.24,29.24,0,0,1,83,69.65h0A29.24,29.24,0,0,1,53.72,40.41ZM62.5,20A28.84,28.84,0,0,0,54,40.41h0A28.84,28.84,0,0,0,62.5,60.87h0A28.84,28.84,0,0,0,83,69.34h0a28.84,28.84,0,0,0,20.46-8.47h0a28.84,28.84,0,0,0,8.47-20.46h0A28.84,28.84,0,0,0,103.41,20h0A28.83,28.83,0,0,0,83,11.48h0A28.84,28.84,0,0,0,62.5,20Z"/><path d="M71.73,40.22A11.32,11.32,0,0,1,83.05,28.9h0A11.32,11.32,0,0,1,94.37,40.22h0A11.32,11.32,0,0,1,83.05,51.54h0A11.32,11.32,0,0,1,71.73,40.22Zm3.42-7.9a11.14,11.14,0,0,0-3.28,7.9h0a11.14,11.14,0,0,0,3.28,7.91h0a11.15,11.15,0,0,0,7.9,3.27h0A11.15,11.15,0,0,0,91,48.13h0a11.14,11.14,0,0,0,3.27-7.91h0A11.14,11.14,0,0,0,91,32.32h0A11.15,11.15,0,0,0,83.05,29h0a11.14,11.14,0,0,0-7.9,3.27Z"/><path d="M77.5,40.33a5.22,5.22,0,0,1,5.22-5.22h0a5.22,5.22,0,0,1,5.22,5.22h0a5.22,5.22,0,0,1-5.22,5.22h0a5.22,5.22,0,0,1-5.22-5.22Zm1.58-3.65a5.14,5.14,0,0,0-1.51,3.65h0A5.14,5.14,0,0,0,79.07,44h0a5.14,5.14,0,0,0,3.65,1.51h0A5.14,5.14,0,0,0,86.37,44h0a5.14,5.14,0,0,0,1.51-3.65h0a5.14,5.14,0,0,0-1.51-3.65h0a5.14,5.14,0,0,0-3.65-1.51h0a5.14,5.14,0,0,0-3.65,1.51Z"/><circle cx="82.94" cy="40.36" r="1.45"/><path d="M83.09,15.85v-4.6h-.22v4.61Z"/><path d="M83.09,69.35v-4.6h-.22v4.61Z"/><path d="M104.57,29l4.06-2.17-.1-.2-4.05,2.17Z"/><path d="M61.44,51.79l-4.26,2.28.11.19L61.54,52Z"/><path d="M95.4,19.24l2.2-3.83-.19-.11L95.2,19.13Z"/><path d="M70.77,61.56l-2.41,4.19.19.11L71,61.64Z"/><path d="M94.15,62l2.27,4.24.2-.1-2.25-4.21Z"/><path d="M71.25,18.75l-2.11-3.93-.2.1,2.11,3.95Z"/><path d="M61.83,28.19l-4.07-2.35-.11.19,4.08,2.35Z"/><path d="M104,52.47l-.12.19,4.2,2.41.11-.19Z"/><path d="M58.64,40.25H53.8v.22h4.85C58.65,40.4,58.64,40.32,58.64,40.25Z"/><path d="M107.25,40.25c0,.07,0,.15,0,.22H112v-.22Z"/><path d="M100.49,34h2.59v.52h-3v-.25a20.83,20.83,0,0,0,1.74-2.83,4.69,4.69,0,0,0,.51-2,2.46,2.46,0,0,0-.26-1.23.79.79,0,0,0-1.37-.1,1.81,1.81,0,0,0-.31,1h-.15a2.67,2.67,0,0,1,.2-1,2.07,2.07,0,0,1,.51-.78,1,1,0,0,1,.68-.28,1.12,1.12,0,0,1,.94.58,2.54,2.54,0,0,1,.39,1.45,4.7,4.7,0,0,1-.56,2.1A16.81,16.81,0,0,1,100.49,34Z"/><path d="M80.65,23.14v-5c0-.17,0-.25-.08-.25l-.12.05a1.53,1.53,0,0,1-.6.2v-.21a3.84,3.84,0,0,0,1.24-1.23h.16v6.43a1.35,1.35,0,0,0,.1.65c.07.1.21.15.44.15v.19H80.11v-.19c.23,0,.38-.05.44-.16A1.3,1.3,0,0,0,80.65,23.14Z"/><path d="M82.78,23.61h2.59v.52h-3v-.25A21.19,21.19,0,0,0,84.1,21a4.67,4.67,0,0,0,.51-2,2.46,2.46,0,0,0-.26-1.23.78.78,0,0,0-.7-.45.8.8,0,0,0-.66.35,1.83,1.83,0,0,0-.31,1h-.15a2.63,2.63,0,0,1,.21-.95,2,2,0,0,1,.51-.78,1,1,0,0,1,.68-.28,1.12,1.12,0,0,1,.94.58,2.55,2.55,0,0,1,.39,1.45,4.69,4.69,0,0,1-.56,2.1A16.86,16.86,0,0,1,82.78,23.61Z"/><path d="M104,40.69v-.21a1.8,1.8,0,0,0,1.62-1.84,1.53,1.53,0,0,0-.26-.9.76.76,0,0,0-.64-.37.73.73,0,0,0-.5.2,1.33,1.33,0,0,0-.35.56l-.15-.09a1.56,1.56,0,0,1,.46-.81,1.13,1.13,0,0,1,1.68.17,1.83,1.83,0,0,1,.36,1.16,2,2,0,0,1-.24,1,1.79,1.79,0,0,1-.69.7v0a1.6,1.6,0,0,1,.86.73,2.49,2.49,0,0,1,.31,1.27A2.65,2.65,0,0,1,106,43.9a1.42,1.42,0,0,1-1.19.62,1.31,1.31,0,0,1-.7-.18,2.24,2.24,0,0,1-.62-.62l.11-.15a1.45,1.45,0,0,0,1,.6,1,1,0,0,0,.83-.43,1.79,1.79,0,0,0,.33-1.12,2.64,2.64,0,0,0-.36-1.36,1,1,0,0,0-.92-.6Z"/><path d="M102.86,51.94h-1.3v2.49H101V51.94H98.85v-.22l2.56-4.83h.16v4.46h1.3Zm-3.5-.59H101v-3.1Z"/><path d="M93.82,55.24h-2l-.05,2.57a2.22,2.22,0,0,1,.42,0,1.45,1.45,0,0,1,1.21.58,2.3,2.3,0,0,1,.45,1.45,2.51,2.51,0,0,1-.46,1.54,1.38,1.38,0,0,1-1.15.62,1.63,1.63,0,0,1-1.43-1l.14-.12a1.21,1.21,0,0,0,1,.73,1,1,0,0,0,.85-.47,1.87,1.87,0,0,0,.34-1.14,1.67,1.67,0,0,0-.36-1.11,1.19,1.19,0,0,0-1-.43,2.14,2.14,0,0,0-.35,0l.08-3.85h2.24Z"/><path d="M84.35,56.43v.21A3.11,3.11,0,0,0,82.47,58a5.2,5.2,0,0,0-.8,2.63A1.69,1.69,0,0,1,83,59.8a1.22,1.22,0,0,1,1,.58,2.53,2.53,0,0,1,.4,1.48,2.47,2.47,0,0,1-.47,1.54,1.43,1.43,0,0,1-1.17.62,1.48,1.48,0,0,1-1.28-.81,3.8,3.8,0,0,1-.5-2,5.4,5.4,0,0,1,1-3.22A3.46,3.46,0,0,1,84.35,56.43Zm-.59,5.66a2.38,2.38,0,0,0-.29-1.26.89.89,0,0,0-.78-.47,1.33,1.33,0,0,0-1,.62v.09A4.67,4.67,0,0,0,82,63q.32.71.85.71a.76.76,0,0,0,.66-.45A2.27,2.27,0,0,0,83.76,62.09Z"/><path d="M70.17,55.58H70l.28-1.86h.16a.34.34,0,0,0,.12.2.36.36,0,0,0,.18,0h2.91v.25l-1.81,7.11h-.66l2-6.66h-2.3a.46.46,0,0,0-.37.16A3.55,3.55,0,0,0,70.17,55.58Z"/><path d="M65.66,52.67a2.17,2.17,0,0,1-.45,1.39,1.39,1.39,0,0,1-2.19.07,1.91,1.91,0,0,1-.42-1.28,2.11,2.11,0,0,1,.27-1.06,3.29,3.29,0,0,1,.88-.94A2.32,2.32,0,0,1,63,50a2.52,2.52,0,0,1-.26-1.13,2.06,2.06,0,0,1,.39-1.3,1.24,1.24,0,0,1,1-.5,1.22,1.22,0,0,1,1,.47,1.81,1.81,0,0,1,.39,1.19,2.11,2.11,0,0,1-.91,1.74A3,3,0,0,1,65.66,52.67Zm-2.55,0a2,2,0,0,0,.3,1.12.89.89,0,0,0,.76.45.82.82,0,0,0,.68-.36,1.45,1.45,0,0,0,.27-.9,2.46,2.46,0,0,0-1.2-1.95A1.8,1.8,0,0,0,63.11,52.69Zm.13-4.26a1.61,1.61,0,0,0,.28.9,4.44,4.44,0,0,0,.93,1,1.64,1.64,0,0,0,.6-1.43,2.08,2.08,0,0,0-.26-1.11.79.79,0,0,0-.69-.42.75.75,0,0,0-.61.32A1.28,1.28,0,0,0,63.25,48.43Z"/><path d="M60.09,44.49v-.21A2.86,2.86,0,0,0,62,43a5.1,5.1,0,0,0,.82-2.66,1.7,1.7,0,0,1-1.3.8,1.21,1.21,0,0,1-1-.58A2.51,2.51,0,0,1,60,39.07a2.42,2.42,0,0,1,.47-1.53,1.44,1.44,0,0,1,1.18-.62,1.47,1.47,0,0,1,1.27.8,3.8,3.8,0,0,1,.5,2,5.35,5.35,0,0,1-1,3.22A3.42,3.42,0,0,1,60.09,44.49Zm.59-5.65a2.37,2.37,0,0,0,.3,1.26.9.9,0,0,0,.79.48,1.32,1.32,0,0,0,1-.68A4.78,4.78,0,0,0,62.46,38c-.21-.47-.5-.7-.85-.7a.77.77,0,0,0-.67.45A2.24,2.24,0,0,0,60.68,38.84Z"/><path d="M63.49,34.22v-5c0-.17,0-.25-.08-.25L63.3,29a1.58,1.58,0,0,1-.6.2V29a3.91,3.91,0,0,0,1.24-1.23h.16v6.43a1.33,1.33,0,0,0,.1.65c.07.1.21.15.44.15v.19H62.95V35c.23,0,.37-.05.44-.15A1.36,1.36,0,0,0,63.49,34.22Z"/><path d="M68.59,31.56a7.47,7.47,0,0,1-.23,2,3.36,3.36,0,0,1-.66,1.34,1.23,1.23,0,0,1-.92.49,1.24,1.24,0,0,1-.93-.49,3.32,3.32,0,0,1-.67-1.35,7.61,7.61,0,0,1-.23-2,7.27,7.27,0,0,1,.24-1.94,3.31,3.31,0,0,1,.67-1.33,1.24,1.24,0,0,1,.93-.49,1.22,1.22,0,0,1,.92.49,3.35,3.35,0,0,1,.66,1.34A7.44,7.44,0,0,1,68.59,31.56Zm-.7,0A8.78,8.78,0,0,0,67.61,29c-.19-.61-.47-.91-.83-.91s-.64.31-.84.92a8.65,8.65,0,0,0-.29,2.54,8.62,8.62,0,0,0,.3,2.55q.3.91.83.91t.83-.9A8.68,8.68,0,0,0,67.9,31.56Z"/><path d="M71,25.74v-5c0-.17,0-.25-.08-.25l-.12.05a1.55,1.55,0,0,1-.6.2v-.21a3.88,3.88,0,0,0,1.24-1.23h.16v6.42a1.34,1.34,0,0,0,.1.65c.07.1.22.15.44.15v.19H70.43v-.19c.23,0,.37-.05.44-.16A1.34,1.34,0,0,0,71,25.74Z"/><path d="M73,25.74v-5c0-.17,0-.25-.08-.25l-.12.05a1.53,1.53,0,0,1-.6.2v-.21a3.86,3.86,0,0,0,1.24-1.23h.16v6.42a1.34,1.34,0,0,0,.1.65c.07.1.22.15.44.15v.19H72.46v-.19c.23,0,.37-.05.44-.16A1.33,1.33,0,0,0,73,25.74Z"/><path d="M94.07,25.94V21c0-.17,0-.25-.08-.25l-.12.05a1.55,1.55,0,0,1-.6.2v-.21a3.88,3.88,0,0,0,1.24-1.23h.16v6.43a1.32,1.32,0,0,0,.1.65c.07.1.21.15.44.15v.19H93.53v-.19a.51.51,0,0,0,.44-.15A1.36,1.36,0,0,0,94.07,25.94Z"/><rect x="72.15" y="43.58" width="15.51" height="1.38" transform="translate(-3.23 82.11) rotate(-53.46)"/><polygon points="76.04 51.02 73.85 52.46 74.59 49.95 76.04 51.02"/><polygon points="81.78 41.93 83.13 42.2 86.65 24.64 85.3 24.37 81.78 41.93"/><polygon points="85.08 24.35 86.52 21.75 86.84 24.71 85.08 24.35"/><circle cx="80.29" cy="12.24" r="0.44"/><circle cx="85.42" cy="12.28" r="0.44"/><circle cx="88.34" cy="12.65" r="0.44"/><circle cx="94.4" cy="14.6" r="0.44"/><circle cx="99.09" cy="17.3" r="0.44"/><circle cx="101.64" cy="19.26" r="0.44"/><circle cx="103.93" cy="21.62" r="0.44"/><circle cx="106" cy="24.17" r="0.44"/><circle cx="108.92" cy="29.42" r="0.44"/><circle cx="109.92" cy="31.97" r="0.44"/><circle cx="110.55" cy="34.82" r="0.44"/><circle cx="110.95" cy="37.77" r="0.44"/><circle cx="91.44" cy="13.5" r="0.44"/><circle cx="71.57" cy="14.64" r="0.44"/><circle cx="74.11" cy="13.53" r="0.44"/><circle cx="67.1" cy="17.12" r="0.44"/><circle cx="64.32" cy="19.15" r="0.44"/><circle cx="62.03" cy="21.48" r="0.44"/><circle cx="59.85" cy="24.03" r="0.44"/><circle cx="57.26" cy="28.72" r="0.44"/><circle cx="56.19" cy="31.64" r="0.44"/><circle cx="55.34" cy="34.59" r="0.44"/><circle cx="54.86" cy="37.55" r="0.44"/><circle cx="77.14" cy="12.72" r="0.44"/><circle cx="85.41" cy="68.52" r="0.44"/><circle cx="80.2" cy="68.4" r="0.44"/><circle cx="77.38" cy="67.98" r="0.44"/><circle cx="71.17" cy="66.04" r="0.44"/><circle cx="66.44" cy="63.21" r="0.44"/><circle cx="64.08" cy="61.37" r="0.44"/><circle cx="61.61" cy="58.94" r="0.44"/><circle cx="59.45" cy="56.01" r="0.44"/><circle cx="57.02" cy="51.5" r="0.44"/><circle cx="55.91" cy="48.77" r="0.44"/><circle cx="55.17" cy="45.74" r="0.44"/><circle cx="54.77" cy="42.41" r="0.44"/><circle cx="74.22" cy="67.24" r="0.44"/><circle cx="94.01" cy="66.33" r="0.44"/><circle cx="91.47" cy="67.2" r="0.44"/><circle cx="98.46" cy="63.89" r="0.44"/><circle cx="101" cy="61.97" r="0.44"/><circle cx="103.05" cy="60.24" r="0.44"/><circle cx="105.27" cy="57.64" r="0.44"/><circle cx="108.27" cy="52.56" r="0.44"/><circle cx="109.35" cy="49.75" r="0.44"/><circle cx="110.29" cy="46.55" r="0.44"/><circle cx="110.83" cy="42.96" r="0.44"/><circle cx="88.51" cy="68.03" r="0.44"/><ellipse class="cls-1" cx="50.05" cy="4.77" rx="0.88" ry="0.49" transform="translate(-0.2 6.34) rotate(-7.23)"/><ellipse cx="50.24" cy="4.72" rx="0.69" ry="0.44" transform="translate(-0.2 6.3) rotate(-7.17)"/></g></g></svg>