<svg xmlns="http://www.w3.org/2000/svg" viewBox="0 0 102.13 97.34"><defs><style>.cls-1{fill:#fff;}</style></defs><title>Ресурс 3clock</title><g id="Слой_2" data-name="Слой 2"><g id="Layer_1" data-name="Layer 1"><circle cx="50.8" cy="24.15" r="19.71"/><path d="M8.15,91.11a.61.61,0,0,0,.08.43c.79,1.25,5.47,1.13,4-.8a1.92,1.92,0,0,1-.27-1V89a2.75,2.75,0,0,1,.18-1,2.34,2.34,0,0,0,.16-.9c0-.33,0-.89,0-1.26,0,0-.09-2.23-.09-2.4a2.07,2.07,0,0,1,.11-.47c.12-.35.28-.77.34-.94s.29-.18.49,0a1.74,1.74,0,0,0,.92.29,1.61,1.61,0,0,0,.82-.2.42.42,0,0,0,.1-.51c-.09-.17-.08-.35,0-.41a1.78,1.78,0,0,1,.65-.1,1,1,0,0,1,.74.55,3.85,3.85,0,0,1-.09,4.22A8.72,8.72,0,0,0,15.53,88a12.45,12.45,0,0,0-.74,1.92c-.28,1.88,3.58,2.63,4.74,1.7a1.77,1.77,0,0,0,.32-.82s0,0-.08-.16a4.12,4.12,0,0,1-.49-.94c0-.16,0-.44,0-.44-.13-2.87,1.66-5.33,3.51-7.26a6.81,6.81,0,0,1,1-.84l1.41-.91a1.42,1.42,0,0,1,.91-.26,1.27,1.27,0,0,1,.58.73l.16.42a10.84,10.84,0,0,1,.41,5.9c-.3,1.44-1.21,2.53-1.59,3.9a2.2,2.2,0,0,0-.06.88.82.82,0,0,0,.43.51c1.77.75,5.18,1.1,7,.34,1.38-.58.3-1.71,0-2.69,0-.12-.46-2.45-.46-2.45-.06-.36-.2-.95-.3-1.3l-.41-1.45A2,2,0,0,1,32,83.52l1-2c1.63-3.35,1.6-7.16,2.36-10.74.08-.36.22-.9.32-1.2l.28-.88a1.49,1.49,0,0,1,.39-.57,2.5,2.5,0,0,1,.94-.37l.57-.11a4.33,4.33,0,0,1,1.31,0l.12,0a8,8,0,0,0,.9.11.41.41,0,0,0,.31-.1c0-.06.2-.08.37-.06a2.42,2.42,0,0,1,.8.39c.27.19.73.53,1,.76l.05,0c.29.23.51.11.5-.26l0-.71a7.22,7.22,0,0,0-.2-1.31l-.06-.22a6.59,6.59,0,0,0-.42-1.11,3.17,3.17,0,0,0-.49-.7,1.76,1.76,0,0,1-.33-.89s0-.28,0-.4v-.64a2.76,2.76,0,0,1,.12-.91,1.14,1.14,0,0,1,.35-.39.48.48,0,0,1,.45,0,5.89,5.89,0,0,0,.61.26,3.61,3.61,0,0,0,.9.16,2.31,2.31,0,0,0,.84-.12c3.8-1.68,5.64-6.32,5.46-10.23A4.82,4.82,0,0,0,50.06,50v0a8,8,0,0,0-2.2-2.66c-1-1-2.5-.89-3.83-.93-1,0-1.26-.85-2-1.26a1.69,1.69,0,0,0-.65-.19,1.28,1.28,0,0,0-.59.19,2,2,0,0,0-.47.45c-1.58,2.24,2.09,3.22,3.57,3.5l.12,0c1.35.26,2.4.69,2.28,2.27l0,.31c-.13,1.85-2.26,3.4-4,2.48l-.25-.12a4.07,4.07,0,0,0-1.21-.37l-1.28-.12-.63-.05a5.05,5.05,0,0,1-1.28-.31l-.81-.34a5.08,5.08,0,0,0-1.28-.32l-1.08-.09c-.36,0-1-.06-1.33-.06H31.39a5.28,5.28,0,0,0-1.12.12,2.21,2.21,0,0,0-.86.57,7.48,7.48,0,0,0-.72,1c-.17.28-.39.67-.49.86a2.3,2.3,0,0,0-.19.9,1.69,1.69,0,0,1-.47,1L26.3,58.07a2.5,2.5,0,0,1-1.13.58A34.91,34.91,0,0,0,12.7,63.13a11.23,11.23,0,0,0-5,7.25c-.75,3.09.08,6.17.52,9.24a8.34,8.34,0,0,0,.24,1.11,3.45,3.45,0,0,0,.41.82c.62.87.53,3.28.49,4.31a15.41,15.41,0,0,1-.55,4.23,2.07,2.07,0,0,1-.35.57A1.44,1.44,0,0,0,8.15,91.11Z"/><path d="M93.7,91.29a.6.6,0,0,1-.08.43c-.78,1.25-5.47,1.13-4-.8a1.92,1.92,0,0,0,.27-1v-.71a2.74,2.74,0,0,0-.18-1,2.35,2.35,0,0,1-.16-.9c0-.33,0-.89,0-1.26,0,0,.09-2.24.09-2.4a2.06,2.06,0,0,0-.11-.47c-.12-.35-.28-.77-.34-.94s-.29-.18-.49,0a1.74,1.74,0,0,1-.92.29,1.61,1.61,0,0,1-.82-.2.42.42,0,0,1-.1-.51c.09-.17.08-.35,0-.41a1.78,1.78,0,0,0-.65-.1,1,1,0,0,0-.74.55,3.85,3.85,0,0,0,.09,4.22,8.79,8.79,0,0,1,.75,2.11,12.5,12.5,0,0,1,.74,1.92c.28,1.88-3.58,2.63-4.74,1.7A1.77,1.77,0,0,1,82,91s0,0,.08-.16a4.17,4.17,0,0,0,.49-.94c0-.16,0-.44,0-.44.13-2.87-1.66-5.33-3.51-7.26a6.9,6.9,0,0,0-1-.84l-1.41-.91a1.42,1.42,0,0,0-.91-.26,1.26,1.26,0,0,0-.58.73l-.16.42a10.84,10.84,0,0,0-.41,5.9c.3,1.44,1.21,2.53,1.59,3.9a2.2,2.2,0,0,1,.06.88.82.82,0,0,1-.43.51c-1.76.75-5.18,1.1-7,.34-1.38-.58-.3-1.71,0-2.69,0-.12.46-2.45.46-2.45.06-.36.2-.95.3-1.3L70,84.95a2,2,0,0,0-.11-1.24l-1-2c-1.63-3.35-1.6-7.16-2.36-10.74-.08-.36-.22-.9-.32-1.2l-.28-.88a1.49,1.49,0,0,0-.39-.57,2.5,2.5,0,0,0-.94-.37l-.57-.11a4.37,4.37,0,0,0-1.31,0l-.11,0a8.06,8.06,0,0,1-.9.11.41.41,0,0,1-.31-.1c0-.06-.2-.08-.37-.06a2.42,2.42,0,0,0-.8.39l-1,.76-.05,0c-.29.23-.51.11-.5-.26l0-.71a7.26,7.26,0,0,1,.2-1.31l.06-.22a6.57,6.57,0,0,1,.42-1.11,3.17,3.17,0,0,1,.49-.7,1.76,1.76,0,0,0,.33-.89s0-.28,0-.4v-.64a2.76,2.76,0,0,0-.12-.91,1.14,1.14,0,0,0-.35-.39.48.48,0,0,0-.45,0,6.19,6.19,0,0,1-.62.27,3.63,3.63,0,0,1-.9.16,2.29,2.29,0,0,1-.84-.12c-3.8-1.68-5.64-6.32-5.46-10.23a4.87,4.87,0,0,1,.27-1.29v0A8,8,0,0,1,54,47.52c1-1,2.5-.89,3.83-.93,1,0,1.26-.85,2-1.26a1.68,1.68,0,0,1,.65-.18,1.28,1.28,0,0,1,.59.18,2,2,0,0,1,.47.45C63.15,48,59.48,49,58,49.29l-.12,0c-1.35.26-2.4.69-2.28,2.27l0,.31c.13,1.85,2.26,3.4,4,2.48l.25-.12a4.1,4.1,0,0,1,1.21-.37l1.28-.12.63-.05a5.1,5.1,0,0,0,1.28-.31l.81-.34a5.1,5.1,0,0,1,1.28-.32l1.08-.09c.36,0,1-.06,1.33-.06h1.65a5.24,5.24,0,0,1,1.12.12,2.21,2.21,0,0,1,.86.57,7.52,7.52,0,0,1,.72,1c.17.28.39.67.49.86a2.29,2.29,0,0,1,.19.9,1.69,1.69,0,0,0,.47,1l1.26,1.23a2.51,2.51,0,0,0,1.13.58,34.9,34.9,0,0,1,12.46,4.48,11.23,11.23,0,0,1,5,7.25c.75,3.09-.08,6.17-.52,9.24a8.32,8.32,0,0,1-.24,1.11,3.45,3.45,0,0,1-.41.82c-.63.87-.53,3.28-.49,4.31a15.39,15.39,0,0,0,.55,4.23,2.07,2.07,0,0,0,.35.57A1.43,1.43,0,0,1,93.7,91.29Z"/><ellipse cx="50.92" cy="44.3" rx="18.31" ry="1.09"/><ellipse cx="51.06" cy="94.08" rx="51.06" ry="3.26"/><circle class="cls-1" cx="50.91" cy="24.1" r="18.02"/><path d="M57.73,13.43l-.35.58-.71-.42L57,13l.07,0h0l.13.06a.07.07,0,0,0,.07,0l.08-.11L58,11.91a.35.35,0,0,0,0-.1.05.05,0,0,0,0-.05l-.12-.08-.08,0,.3-.51.71.42-.3.51a.88.88,0,0,0-.22-.11s-.07,0-.12.12l-.63,1.06-.06.11a.08.08,0,0,0,0,.07l.08.06h0Z"/><path d="M62,18.08l-.6.31L61,17.65l.6-.31,0,.07h0a.59.59,0,0,0,.07.12.07.07,0,0,0,.06,0l.12-.05L63,16.93l.09-.06a.05.05,0,0,0,0-.05L63,16.68l0-.08.53-.27.38.74-.53.27a.82.82,0,0,0-.13-.21s-.08,0-.16,0L62,17.73l-.11.07a.08.08,0,0,0,0,.06.36.36,0,0,0,0,.09v0Z"/><path d="M62.44,19l-.6.31-.38-.74.6-.31,0,.07h0l.07.12a.07.07,0,0,0,.06,0l.12-.05,1.12-.58.09-.06a.05.05,0,0,0,0-.05l-.06-.13,0-.08.53-.27.38.74-.53.27a.86.86,0,0,0-.13-.21s-.08,0-.17,0l-1.09.57-.11.07a.07.07,0,0,0,0,.06.27.27,0,0,0,0,.09v0Z"/><path d="M63.48,23.39H62.8v-.83h.68v.08h0a.63.63,0,0,0,0,.14.07.07,0,0,0,0,0H65a.05.05,0,0,0,0,0s0-.07,0-.14v-.1h.59v.83h-.59a.84.84,0,0,0,0-.25s-.07,0-.16,0H63.55a.06.06,0,0,0-.05,0,.26.26,0,0,0,0,.1v0S63.48,23.36,63.48,23.39Z"/><path d="M63.48,24.45H62.8v-.83h.68v.08h0a.65.65,0,0,0,0,.14.08.08,0,0,0,0,0H65a.05.05,0,0,0,0,0s0-.07,0-.14v-.09h.59v.83h-.59a.84.84,0,0,0,0-.25s-.07,0-.16,0H63.55a.07.07,0,0,0-.05,0,.26.26,0,0,0,0,.1v0S63.48,24.42,63.48,24.45Z"/><path d="M63.48,25.51H62.8v-.83h.68v.1a.63.63,0,0,0,0,.14.07.07,0,0,0,0,0H65a.05.05,0,0,0,0,0s0-.07,0-.14v-.1h.59v.83h-.59a.83.83,0,0,0,0-.25s-.07,0-.16,0H63.55a.07.07,0,0,0-.05,0,.27.27,0,0,0,0,.1v0S63.48,25.47,63.48,25.51Z"/><path d="M49.81,9.92c-.09,0-.14,0-.14.05v0l0,0,0,.06.16.38.14-.36,0-.08V10s0-.05-.15-.05V9.32h.58v.59h-.12a.29.29,0,0,0-.16.17l-.26.54.34.71,0,.09a.19.19,0,0,0,.06.08l.12,0h0v.68h-.65v-.68h.16a0,0,0,0,0,0-.05.17.17,0,0,0,0-.06l0-.05-.23-.5-.2.5,0,.06a.21.21,0,0,0,0,.06.05.05,0,0,0,0,.05h.16v.68h-.66v-.68h0l.12,0a.18.18,0,0,0,.07-.07l0-.07.33-.68-.29-.61,0-.06,0-.06a.35.35,0,0,0-.18,0V9.32h.58Z"/><path d="M51.56,11.52v.68h-.83v-.68H51a.07.07,0,0,0,0,0,.65.65,0,0,0,0-.13V10.07A.32.32,0,0,0,51,10a.05.05,0,0,0,0,0h-.24V9.32h.83v.59a.89.89,0,0,0-.25,0s0,.07,0,.16v1.23a.56.56,0,0,0,0,.13.07.07,0,0,0,0,.05h.24Z"/><path d="M52.62,11.52v.68h-.83v-.68H52a.07.07,0,0,0,.05,0,.56.56,0,0,0,0-.13V10.07a.33.33,0,0,0,0-.11.06.06,0,0,0,0,0h-.24V9.32h.83v.59a.9.9,0,0,0-.25,0s0,.07,0,.16v1.23a.69.69,0,0,0,0,.13.08.08,0,0,0,0,.05h.24Z"/><path d="M52.32,24.62l3.46,2.77-.52.65L51.8,25.26l.05-.06h0a.14.14,0,0,0,0-.15.88.88,0,0,0-.2-.23L51,24.27l-6.47-5.19L44,18.63a.55.55,0,0,0-.2-.11.33.33,0,0,0-.13.08l-.06.07-3-2.43.52-.65,3,2.44c-.09.11-.11.2-.06.27a6.81,6.81,0,0,0,.81.71l6.29,5,.65.51a1.36,1.36,0,0,0,.29.18.1.1,0,0,0,.13,0h0A.26.26,0,0,1,52.32,24.62Z"/><path d="M49.51,25.56,46.8,27.4l-.47-.68L49,24.88l0,.06h0a.16.16,0,0,0,.12.08.5.5,0,0,0,.21-.08l.52-.35L55,21.16l.43-.31c.07-.06.11-.1.12-.13a.45.45,0,0,0,0-.14l-.05-.08,2.37-1.62.47.68-2.37,1.62c-.08-.12-.15-.17-.21-.16a3.65,3.65,0,0,0-.68.41l-4.91,3.35-.5.35a.79.79,0,0,0-.18.17.1.1,0,0,0,0,.12v0A.36.36,0,0,1,49.51,25.56Z"/><path d="M62,30l-.56-.38.47-.68.56.38,0,.07h0l-.07.12a.07.07,0,0,0,0,.07l.1.08,1,.72.1.05a.05.05,0,0,0,.05,0l.09-.11.05-.08.49.34-.47.68-.49-.34a.92.92,0,0,0,.13-.21s0-.08-.11-.13l-1-.7-.11-.06a.07.07,0,0,0-.07,0l-.07.07v0Z"/><path d="M62.81,31.68l.49.34-.38.54-.49-.34.06-.1c0-.06,0-.13-.07-.2l-1.55-1.46.25-.36,1.86,1a.23.23,0,0,0,.15,0,.38.38,0,0,0,.13-.13l.49.34-.38.54-.49-.34,0,0a.6.6,0,0,0,.08-.13s0,0,0-.06h0l0,0-.05,0-1.43-.72,0,0,1.15,1.11.06,0,0,0,0,0s0,0,.06,0a.56.56,0,0,0,.09-.11Z"/><path d="M57.44,36.6l.31.51-.57.34-.3-.51.1-.07s.06-.11,0-.21l-.81-2,.37-.22,1.27,1.69a.24.24,0,0,0,.12.1.38.38,0,0,0,.17-.06l.3.51-.57.34-.3-.51h0l.12-.09s0,0,0-.07h0l0,0,0,0-1-1.25,0,0,.59,1.48,0,.06,0,0,0,0s0,0,.05,0l.13-.06Z"/><path d="M51.48,38.16v.59h-.66v-.59h.12c.07,0,.11-.07.12-.17l.31-2.1h.43L52,38a.22.22,0,0,0,.06.14.36.36,0,0,0,.18,0v.59H51.6v-.59h.17s0,0,0-.07h0V38l-.22-1.59h0l-.26,1.58v.15s0,0,0,.05h.17Z"/><path d="M49.87,36.55v-.68h.83v.68h-.23a.07.07,0,0,0,0,0,.55.55,0,0,0,0,.13V38a.32.32,0,0,0,0,.11.05.05,0,0,0,0,0h.24v.59h-.83v-.59a.88.88,0,0,0,.25,0s0-.07,0-.16V36.74a.55.55,0,0,0,0-.13.07.07,0,0,0,0-.05h-.24Z"/><path d="M44.73,36.78l-.27.53-.59-.3.27-.53.11,0c.06,0,.13,0,.19-.1l1.24-1.73.39.2-.76,2a.22.22,0,0,0,0,.15.36.36,0,0,0,.14.11l-.27.53-.59-.3.27-.53h0l.14.06s0,0,.06,0h0l0-.05,0-.05.53-1.51h0l-.95,1.29,0,.06,0,0v0s0,0,0,.06l.12.08Z"/><path d="M44,34.62l.31-.6.74.38-.31.6-.07,0h0l-.13-.05a.07.07,0,0,0-.07,0l-.07.11-.58,1.13a.32.32,0,0,0,0,.1.05.05,0,0,0,0,0l.12.07.08,0-.27.53L43,36.58,43.3,36a.87.87,0,0,0,.23.1s.07,0,.12-.13l.56-1.09a.54.54,0,0,0,0-.12.07.07,0,0,0,0-.06l-.08-.06h0Z"/><path d="M43.09,34.14l.31-.6.74.38-.31.6-.07,0h0l-.13-.05a.07.07,0,0,0-.06,0l-.07.11-.58,1.13a.32.32,0,0,0,0,.11.05.05,0,0,0,0,0l.12.07.08,0-.27.53-.74-.38.27-.53a.91.91,0,0,0,.23.1s.07,0,.11-.13l.56-1.09a.57.57,0,0,0,0-.12.07.07,0,0,0,0-.06l-.08-.06h0Z"/><path d="M39.35,31.85l-.5.32-.35-.56.5-.32.07.1s.12.05.21,0l1.95-.86.23.37-1.66,1.32a.23.23,0,0,0-.09.12.39.39,0,0,0,.07.17l-.5.32-.36-.56.5-.32v0a.55.55,0,0,0,.09.12s0,0,.07,0h0l0,0,0,0,1.22-1,0,0-1.47.63-.06,0,0,0,0,0s0,0,0,.05a.45.45,0,0,0,.07.13Z"/><path d="M39.84,29.63l.57-.36.45.7-.57.36,0-.07h0a.55.55,0,0,0-.08-.11.07.07,0,0,0-.07,0l-.12.06-1.07.68-.08.07a.05.05,0,0,0,0,.05l.07.12.05.08-.5.32-.44-.7.5-.32a.89.89,0,0,0,.15.2s.08,0,.16-.05l1-.66.1-.08a.07.07,0,0,0,0-.06.31.31,0,0,0,0-.09v0Z"/><path d="M39.28,28.73l.57-.36.44.7-.57.36,0-.07h0a.52.52,0,0,0-.09-.11.07.07,0,0,0-.06,0l-.11.06L38.34,30l-.08.07a0,0,0,0,0,0,.05l.07.13.05.08-.5.32-.45-.7.5-.32a.9.9,0,0,0,.15.2s.08,0,.16-.05l1-.66.1-.08a.07.07,0,0,0,0-.06.25.25,0,0,0,0-.09v0Z"/><path d="M38.71,27.84l.57-.36.44.7-.57.36,0-.07h0L39,28.35a.07.07,0,0,0-.06,0l-.12.06-1.07.68-.09.07a.05.05,0,0,0,0,.05l.07.13,0,.08-.5.32-.45-.7.5-.32a.86.86,0,0,0,.15.2s.08,0,.16-.05l1-.66.1-.07a.07.07,0,0,0,0-.06.25.25,0,0,0,0-.09v0Z"/><path d="M45.74,12.25l.38.56-.68.47-.38-.56.07,0h0l.11-.09a.07.07,0,0,0,0-.07.46.46,0,0,0-.07-.11l-.72-1a.31.31,0,0,0-.07-.08h-.05l-.12.07-.08.05-.34-.49.68-.47.34.49a.91.91,0,0,0-.19.15s0,.08.06.16l.7,1,.08.1a.07.07,0,0,0,.06,0l.09,0h0Z"/><path d="M43.33,12c-.08.05-.1.09-.08.12l0,0,0,0,.06,0,.35.22L43.63,12l0-.09,0,0v0s-.07,0-.15,0l-.34-.49.48-.33.34.49-.09.07a.29.29,0,0,0,0,.23l.09.59.68.39.09,0,.1,0,.11-.06,0,0,.38.56-.54.37-.38-.56.12-.1a0,0,0,0,0,0-.06l0,0-.05,0-.47-.29.12.52v.06a.17.17,0,0,0,0,.06,0,0,0,0,0,.06,0l.14-.08.38.56-.54.37-.38-.56,0,0a.3.3,0,0,0,.09-.08.19.19,0,0,0,0-.1v-.08l-.11-.75-.58-.34-.06,0-.07,0a.37.37,0,0,0-.17.07l-.34-.49.48-.33Z"/><path d="M38.62,17.12c0,.08,0,.13,0,.15h.16l.41,0-.26-.3L38.86,17l0,0,0,0s-.07,0-.12.1l-.53-.28.27-.52.53.28,0,.11a.29.29,0,0,0,.07.22l.36.48.79,0h.1l.1,0a.31.31,0,0,0,.07-.1v0l.6.31-.3.58-.6-.31a.78.78,0,0,0,.06-.15.05.05,0,0,0,0-.05H40l-.55,0,.35.41,0,0,0,0A0,0,0,0,0,40,18l.09-.13.6.31-.31.58-.6-.31,0,0a.3.3,0,0,0,0-.11.18.18,0,0,0,0-.09l0-.07-.45-.61-.67,0h-.13a.36.36,0,0,0-.11.14l-.53-.28.27-.52Z"/><path d="M38.34,24.45H39v.83h-.68V25.2h0a.6.6,0,0,0,0-.14.07.07,0,0,0,0,0h-1.4l-.11,0a.05.05,0,0,0,0,0s0,.07,0,.14v.09h-.59v-.83h.59a.84.84,0,0,0,0,.25s.07,0,.16,0h1.36a.07.07,0,0,0,.05,0,.28.28,0,0,0,0-.1v0S38.34,24.48,38.34,24.45Z"/><path d="M36.73,23.67c0,.09,0,.14.05.14h0l.05,0,.06,0,.38-.16L37,23.45l-.08,0-.05,0h0s-.05,0-.05.14h-.59V23h.59a1,1,0,0,0,0,.12.29.29,0,0,0,.17.16l.54.26.71-.34.09,0a.18.18,0,0,0,.08-.06.32.32,0,0,0,0-.12v0H39v.65h-.68a1,1,0,0,0,0-.16.05.05,0,0,0-.05,0h-.06l-.05,0-.5.23.5.2.06,0h.06a.05.05,0,0,0,.05,0,.92.92,0,0,0,0-.16H39v.66h-.68v0a.29.29,0,0,0,0-.12.19.19,0,0,0-.08-.07l-.07,0-.68-.33-.61.29-.06,0-.06,0a.36.36,0,0,0,0,.18h-.59v-.58Z"/><path d="M34.94,24a16,16,0,0,1,16-16h0A16,16,0,0,1,67,24h0A16,16,0,0,1,51,40h0a16,16,0,0,1-16-16Zm4.83-11.19A15.77,15.77,0,0,0,35.13,24h0a15.77,15.77,0,0,0,4.63,11.19h0A15.77,15.77,0,0,0,51,39.78h0a15.78,15.78,0,0,0,11.19-4.63h0A15.77,15.77,0,0,0,66.78,24h0a15.77,15.77,0,0,0-4.63-11.19h0A15.77,15.77,0,0,0,51,8.14h0a15.77,15.77,0,0,0-11.19,4.64Z"/><path d="M32.81,24.06A18.11,18.11,0,0,1,50.92,5.95h0A18.11,18.11,0,0,1,69,24.06h0A18.11,18.11,0,0,1,50.92,42.17h0A18.11,18.11,0,0,1,32.81,24.06Zm5.44-12.67A17.87,17.87,0,0,0,33,24.06h0a17.86,17.86,0,0,0,5.25,12.67h0A17.86,17.86,0,0,0,50.92,42h0a17.86,17.86,0,0,0,12.67-5.25h0a17.86,17.86,0,0,0,5.25-12.67h0a17.86,17.86,0,0,0-5.25-12.67h0A17.86,17.86,0,0,0,50.92,6.14h0a17.87,17.87,0,0,0-12.67,5.25Z"/><path d="M35.67,24A15.25,15.25,0,0,1,50.92,8.77h0A15.25,15.25,0,0,1,66.17,24h0A15.25,15.25,0,0,1,50.92,39.27h0A15.25,15.25,0,0,1,35.67,24Zm4.6-10.65A15,15,0,0,0,35.86,24h0a15,15,0,0,0,4.41,10.65h0a15,15,0,0,0,10.65,4.41h0a15,15,0,0,0,10.65-4.41h0A15,15,0,0,0,66,24h0a15,15,0,0,0-4.41-10.65h0A15,15,0,0,0,50.92,9h0a15,15,0,0,0-10.65,4.41Z"/><path d="M39.39,24.11A11.56,11.56,0,0,1,51,12.55h0A11.56,11.56,0,0,1,62.51,24.11h0A11.56,11.56,0,0,1,51,35.67h0A11.56,11.56,0,0,1,39.39,24.11ZM42.88,16a11.38,11.38,0,0,0-3.34,8.07h0a11.38,11.38,0,0,0,3.34,8.07h0A11.38,11.38,0,0,0,51,35.53h0A11.38,11.38,0,0,0,59,32.18h0a11.38,11.38,0,0,0,3.35-8.07h0A11.37,11.37,0,0,0,59,16h0A11.37,11.37,0,0,0,51,12.7h0A11.38,11.38,0,0,0,42.88,16Z"/><path d="M51,8.85V6h-.14V8.86Z"/><path d="M50.87,39.13v2.93H51V39.13Z"/><path d="M64.39,16.93l2.44-1.3-.06-.12-2.44,1.3Z"/><path d="M37.6,31.11,35,32.52l.06.12,2.62-1.4Z"/><path d="M58.61,11,60,8.57l-.12-.07L58.5,10.89Z"/><path d="M43.41,37.11l-1.53,2.65.12.07,1.53-2.65Z"/><path d="M58.26,7.56l-.85,1.87c0,.06.12,0,.11.09h0l.86-1.9Z"/><path d="M44.36,38.41l-.92,2,.12.06.92-2Z"/><path d="M55.76,8.86l.62-2-.13,0-.6,2S55.73,8.81,55.76,8.86Z"/><path d="M46.12,39.08l-.68,2.13.13,0,.68-2.14Z"/><path d="M54.26,8.43s.4-2,.4-2l-.13,0-.42,2,0,0A.42.42,0,0,1,54.26,8.43Z"/><path d="M47.58,39.53l-.46,2.17.13,0,.47-2.2Z"/><path d="M52.53,8.22h0L52.76,6h-.14L52.42,8.1a.36.36,0,0,1,.09.11Z"/><path d="M49.26,39.75,49,42h.14l.22-2.19S49.31,39.76,49.26,39.75Z"/><path d="M36.46,17.44l-2-.88-.06.13,1.94.87S36.43,17.48,36.46,17.44Z"/><path d="M65.44,30.52s0,.12,0,.16l1.87.83.06-.13Z"/><path d="M35.86,19l-2.1-.67,0,.13,2.12.67S35.84,19,35.86,19Z"/><path d="M66.14,28.78s0,.08-.06.13l2,.61,0-.13Z"/><path d="M35.43,20.57l-2.09-.46,0,.13,2.12.44S35.41,20.62,35.43,20.57Z"/><path d="M66.54,27.27l0,.13,2.06.44,0-.13Z"/><path d="M35.18,22.2,33,22v.14l2.17.22S35.18,22.24,35.18,22.2Z"/><path d="M66.74,25.57c.29.16,0,.12,0,.14l2.16.22v-.14Z"/><path d="M66.81,22.76l2.09-.18v-.14l-2.14.19S66.81,22.71,66.81,22.76Z"/><path d="M35.12,25.45,33,25.63v.14l2.14-.18S35.12,25.49,35.12,25.45Z"/><path d="M66.56,20.88l2-.42,0-.13-2,.43S66.56,20.84,66.56,20.88Z"/><path d="M35.43,27.29l-2.14.46,0,.13,2.12-.44S35.43,27.33,35.43,27.29Z"/><path d="M66.19,19.38l2-.63,0-.13-2,.64Z"/><path d="M35.83,28.79l-2.05.65,0,.13,2.05-.64S35.85,28.83,35.83,28.79Z"/><path d="M36.35,30.13l-2,.88.06.13,2-.85S36.37,30.17,36.35,30.13Z"/><path d="M65.6,17.79l1.94-.85-.06-.13-1.94.84C65.8,17.7,65.59,17.75,65.6,17.79Z"/><path d="M64.22,15.11,65.93,14l-.08-.11L64.12,15Z"/><path d="M37.85,32.94l-1.79,1.22.08.11L38,33Z"/><path d="M63.06,13.61l1.56-1.36-.09-.1-1.59,1.39S63,13.58,63.06,13.61Z"/><path d="M61.84,12.47l1.39-1.58-.1-.09-1.4,1.57S61.81,12.43,61.84,12.47Z"/><path d="M39,34.39l-1.72,1.49.09.1,1.66-1.44S39.05,34.41,39,34.39Z"/><path d="M40.06,35.56,38.62,37.1l.1.09,1.48-1.57S40.09,35.6,40.06,35.56Z"/><path d="M60.67,11.44l1.27-1.68-.11-.08-1.25,1.65C60.6,11.39,60.68,11.37,60.67,11.44Z"/><path d="M41.38,36.65l-1.29,1.7.11.08,1.28-1.68S41.41,36.68,41.38,36.65Z"/><path d="M49.6,8.13s0,0,.07.05L49.5,6l-.14.09.2,2.07Z"/><path d="M52.24,39.76l.19,2.3h.14l-.16-2.27Z"/><path d="M53.92,39.56l.45,2.21.13,0-.43-2.22Z"/><path d="M47.78,8.37l-.41-2-.13,0,.44,2.1A.24.24,0,0,1,47.78,8.37Z"/><path d="M46.26,8.79l-.58-1.92-.13,0,.57,1.84S46.22,8.8,46.26,8.79Z"/><path d="M55.38,39.18l.69,2.22.13,0-.66-2.17S55.43,39.17,55.38,39.18Z"/><path d="M44.65,9.38l-.79-1.86-.13.05.79,1.82S44.61,9.4,44.65,9.38Z"/><path d="M57,38.65l.88,2.09.13-.05-.86-2.08Z"/><path d="M41.89,10.83l-1.19-1.7-.11.08L41.8,11S41.86,10.86,41.89,10.83Z"/><path d="M59.8,37.11,61.1,39l.11-.08-1.29-1.87S59.84,37.08,59.8,37.11Z"/><path d="M40.37,12,39,10.52l-.1.09,1.37,1.55S40.33,12.05,40.37,12Z"/><path d="M61.4,35.88l-.13.08L62.8,37.7l.1-.09Z"/><path d="M39.26,13.15l-1.51-1.42-.09.1,1.55,1.44S39.23,13.18,39.26,13.15Z"/><path d="M62.56,34.89l-.07.08L64,36.47l.09-.1Z"/><path d="M38.2,14.47l-1.62-1.2-.08.11,1.63,1.23S38.18,14.51,38.2,14.47Z"/><path d="M63.62,33.57l-.13.13L65.31,35l.08-.11Z"/><path d="M43.71,10.71,42.37,8.2l-.12.06,1.35,2.52Z"/><path d="M57.84,37.4l1.43,2.66.12-.07L58,37.35Z"/><path d="M37.86,16.5,35.32,15l-.07.12,2.55,1.47Z"/><path d="M64,31.55l-.07.12,2.56,1.48.07-.12Z"/><path d="M35.69,24H32.86v.14h2.83S35.69,24,35.69,24Z"/><path d="M66,24v.14h3V24Z"/><circle cx="50.94" cy="24.04" r="0.99"/><ellipse cx="50.95" cy="8.48" rx="0.2" ry="0.36"/><ellipse cx="50.93" cy="39.49" rx="0.2" ry="0.36"/><ellipse cx="35.36" cy="24.03" rx="0.36" ry="0.2"/><ellipse cx="66.46" cy="24.02" rx="0.36" ry="0.2"/><ellipse cx="64.35" cy="31.83" rx="0.2" ry="0.36" transform="translate(5.56 73.05) rotate(-61.35)"/><ellipse cx="58.12" cy="37.76" rx="0.2" ry="0.36" transform="translate(-11.03 33.03) rotate(-29.1)"/><ellipse cx="43.26" cy="37.5" rx="0.36" ry="0.2" transform="translate(-10.06 58.33) rotate(-62.26)"/><ellipse cx="37.27" cy="31.35" rx="0.36" ry="0.2" transform="matrix(0.83, -0.56, 0.56, 0.83, -11.16, 26.2)"/><ellipse cx="37.4" cy="16.31" rx="0.2" ry="0.36" transform="translate(8.81 45.42) rotate(-69.07)"/><ellipse cx="43.45" cy="10.37" rx="0.2" ry="0.36" transform="translate(-0.44 18.66) rotate(-24.12)"/><ellipse cx="58.79" cy="10.6" rx="0.36" ry="0.2" transform="translate(20.15 56.16) rotate(-59.92)"/><ellipse cx="64.67" cy="16.7" rx="0.36" ry="0.2" transform="translate(-1.17 27.93) rotate(-24.16)"/><circle cx="37.48" cy="41.47" r="2.25"/><circle cx="48.91" cy="2.3" r="2.25"/><circle cx="53.12" cy="2.25" r="2.25"/><circle cx="64.36" cy="41.34" r="2.25"/></g></g></svg>