<svg xmlns="http://www.w3.org/2000/svg" viewBox="0 0 58.26 82.33"><defs><style>.cls-1{fill:#fff;}.cls-2{fill-rule:evenodd;}</style></defs><title>Ресурс 23clock</title><g id="Слой_2" data-name="Слой 2"><g id="Layer_1" data-name="Layer 1"><path d="M.78,73.93A2,2,0,0,0,2.39,75a1.4,1.4,0,0,0,1.28-.69,1.55,1.55,0,0,0,.18-.55s0-.08,0-.12a.9.9,0,0,0-.77-.86.64.64,0,0,0-.38.1L2.58,73a.47.47,0,0,0-.19.34.39.39,0,0,0,.36.41A.47.47,0,0,0,3,73.67l.09-.06A.08.08,0,0,0,3,73.47H3a.32.32,0,0,1-.15-.05s-.06-.07-.06-.08a.25.25,0,0,1,0-.07l.1,0a.49.49,0,0,1,.4.53.79.79,0,0,1-.15.4,1.06,1.06,0,0,1-.27.23A1.29,1.29,0,0,1,1.43,74a2.78,2.78,0,0,1-.15-2.65,3.74,3.74,0,0,1,.65-1.31,5.51,5.51,0,0,1,3.18-1.6,5.37,5.37,0,0,1,.56-.07l.45,0a7.8,7.8,0,0,1,2.44.41l.08,0L9,69a8.41,8.41,0,0,1,.85.39,9.24,9.24,0,0,1,1,.67c.2.16.39.32.57.48l.1.1L12,71l.13.14.33.36.16.19.31.38.12.15.39.52,0,0c.2.28.39.56.59.85l.45.68.12.19.13.18a.77.77,0,0,1,0,.09h.05l.25.37.2.3.14.21.09.12.11.16.2.27.21.29.08.11q.41.54.87,1.06l.13.15.24.25.23.23.19.18.4.37a6.71,6.71,0,0,1-.87,1,7.16,7.16,0,0,1-4.73,2h-.07a6,6,0,0,1-2-.42,5.33,5.33,0,0,1-2.59-2.19,3.94,3.94,0,0,1-.56-1.67,5,5,0,0,1,0-.69,3.85,3.85,0,0,1,.18-1.2l.06-.18.1-.26.13-.28.1-.19.11-.19.18-.26.14-.17L8.38,74l.13-.12a2.7,2.7,0,0,1,.29-.23l.14-.09.22-.13.17-.09.32-.13a3.35,3.35,0,0,1,1-.16L11,73a2.46,2.46,0,0,1,1.74.94l.05.06a1.24,1.24,0,0,1,.22.42,1.49,1.49,0,0,1,.07.6,1.17,1.17,0,0,1-.09.32v0l-.07.12,0,0a1,1,0,0,1-.6.41l-.18,0a.52.52,0,0,1-.58-.49c0-.16.07-.26.21-.26s.05.13,0,.17,0,.1,0,.11,0,.11,0,.15h.06a.45.45,0,0,0,.27-.38.4.4,0,0,0-.42-.39.52.52,0,0,0-.23.06.67.67,0,0,0-.38.61.9.9,0,0,0,.49.79,1.23,1.23,0,0,0,.57.15,1.55,1.55,0,0,0,1.42-1.54,1.18,1.18,0,0,0,0-.12,2.5,2.5,0,0,0-.38-1l0,0a2.74,2.74,0,0,0-1.17-1h0a3,3,0,0,0-.92-.24l-.37,0-.44,0-.12,0-.21,0-.27.06h0l-.22.06A4,4,0,0,0,7,75.2v0q-.06.15-.1.3l0,.07c0,.12-.06.24-.09.36a4.45,4.45,0,0,0-.1,1,6.08,6.08,0,0,0,0,.75A5,5,0,0,0,7,78.82c-.15-.06-.31-.09-.37-.12a3.68,3.68,0,0,0-1.16-.17,4.16,4.16,0,0,0-1.13.13,1.89,1.89,0,0,0-.43.19,1.69,1.69,0,0,0-.47.43,2,2,0,0,0-.31,1.9,1.34,1.34,0,0,0,1.79.7,1,1,0,0,0,.47-.81.51.51,0,0,0-.72-.45c-.39.18-.26.54-.07.82,0-.14-.06-.33.07-.42a.16.16,0,0,1,.26.09c.07.38-.51.46-.77.38a.76.76,0,0,1-.22-.12,1.11,1.11,0,0,1-.29-1,1.36,1.36,0,0,1,.61-.92,1.58,1.58,0,0,1,.32-.16,2.57,2.57,0,0,1,1.33-.09,2.85,2.85,0,0,1,.58.15,3.82,3.82,0,0,1,1.23.81.45.45,0,0,1,.08.12h0a5.76,5.76,0,0,0,1.29,1.14l.07,0,.41.24.06,0a5.78,5.78,0,0,0,2.64.65h.13a7.66,7.66,0,0,0,6.08-3.15l.1.08a8.78,8.78,0,0,0,5,1.67,6.46,6.46,0,0,0,1.14-.1,6,6,0,0,0,4-2.31,4.76,4.76,0,0,0,.63-1.76A4.79,4.79,0,0,0,30,78.53a6,6,0,0,0,4,2.3,6.46,6.46,0,0,0,1.14.1,8.78,8.78,0,0,0,5-1.67l.1-.09a7.66,7.66,0,0,0,6.08,3.15h.13A5.8,5.8,0,0,0,49,81.68l.06,0,.41-.24.07,0a5.91,5.91,0,0,0,1.29-1.14h0A.41.41,0,0,1,51,80.1a3.78,3.78,0,0,1,1.23-.82,2.82,2.82,0,0,1,.58-.15,2.58,2.58,0,0,1,1.32.09,1.53,1.53,0,0,1,.32.16,1.36,1.36,0,0,1,.61.92,1.11,1.11,0,0,1-.29,1,.76.76,0,0,1-.22.12c-.25.08-.84,0-.77-.37A.16.16,0,0,1,54,81c.13.1.1.29.07.42.19-.28.32-.64-.07-.82a.5.5,0,0,0-.72.45,1,1,0,0,0,.47.81,1.34,1.34,0,0,0,1.79-.7,2,2,0,0,0-.31-1.9,1.72,1.72,0,0,0-.47-.43,2,2,0,0,0-.43-.19,4.16,4.16,0,0,0-1.13-.13,3.74,3.74,0,0,0-1.17.17c-.06,0-.23.06-.37.12A5.18,5.18,0,0,0,52,77.67a6.51,6.51,0,0,0,0-.75,4.46,4.46,0,0,0-.1-1c0-.12-.06-.24-.09-.36l0-.07q0-.16-.1-.3v0a4,4,0,0,0-2.46-2.51L49,72.63h0l-.27-.06-.21,0-.12,0-.44,0-.37,0a2.91,2.91,0,0,0-.92.24h0a2.76,2.76,0,0,0-1.17,1l0,0a2.5,2.5,0,0,0-.38,1,.82.82,0,0,0,0,.13,1.55,1.55,0,0,0,1.42,1.54,1.22,1.22,0,0,0,.57-.15.91.91,0,0,0,.49-.79.67.67,0,0,0-.37-.61.55.55,0,0,0-.23-.06.41.41,0,0,0-.42.39.45.45,0,0,0,.27.38h.06s0-.12,0-.15,0-.1,0-.11,0-.17,0-.17.21.1.21.26a.52.52,0,0,1-.58.49l-.18,0a1.05,1.05,0,0,1-.6-.41l0,0-.07-.12v0a1.13,1.13,0,0,1-.09-.32,1.48,1.48,0,0,1,.08-.6,1.17,1.17,0,0,1,.22-.42l.05-.06A2.47,2.47,0,0,1,47.66,73H48a3.31,3.31,0,0,1,1,.16l.32.13.17.09.22.13.13.09.29.23.13.12.17.19.14.17.18.26.11.19.1.19c0,.09.09.19.13.29s.07.17.1.26l.06.18c0,.14.08.28.11.42a4,4,0,0,1,.07.77,4.72,4.72,0,0,1,0,.69,4,4,0,0,1-.55,1.67,5.36,5.36,0,0,1-2.59,2.19,6,6,0,0,1-2,.41h-.07a7.18,7.18,0,0,1-4.73-2,6.84,6.84,0,0,1-.87-1l.4-.37.19-.19.23-.23.24-.25.13-.15c.31-.35.6-.7.87-1.06l.08-.11.21-.29.2-.27.11-.16.08-.12.14-.21.2-.3.25-.37H44a.76.76,0,0,1,0-.09l.13-.18.12-.19.45-.68c.19-.29.38-.57.59-.85l0,0,.39-.52.12-.15.31-.37.16-.19.33-.36.13-.14.42-.41.1-.1c.19-.17.37-.33.57-.49a9,9,0,0,1,1-.67,8,8,0,0,1,.85-.39l.34-.13.08,0a7.88,7.88,0,0,1,2.44-.41l.45,0,.57.07a5.53,5.53,0,0,1,3.18,1.6,3.75,3.75,0,0,1,.65,1.31A2.79,2.79,0,0,1,57.27,74a1.29,1.29,0,0,1-1.51.35,1.05,1.05,0,0,1-.27-.23.82.82,0,0,1-.15-.4.49.49,0,0,1,.4-.53l.1,0a.28.28,0,0,1,0,.07s0,0-.06.08a.32.32,0,0,1-.15.06h0a.08.08,0,0,0-.1,0,.08.08,0,0,0,0,.11l.09.06a.45.45,0,0,0,.27.07.39.39,0,0,0,.36-.41.48.48,0,0,0-.19-.34L56,72.91a.66.66,0,0,0-.38-.1.9.9,0,0,0-.77.87s0,.08,0,.12a1.61,1.61,0,0,0,.18.55A1.4,1.4,0,0,0,56.3,75a2,2,0,0,0,1.61-1.12,3.18,3.18,0,0,0,.33-1.66v-.09a2.68,2.68,0,0,0-.06-.5c0-.12-.06-.25-.1-.37h0a4.64,4.64,0,0,0-.19-.51l0-.09a5.51,5.51,0,0,0-.27-.51,4.67,4.67,0,0,0-2-1.68,2,2,0,0,0,1.1-.59,2.37,2.37,0,0,0,.61-1.1,2.16,2.16,0,0,0,.12-.71,2.49,2.49,0,0,0,0-.38,3.83,3.83,0,0,0-.18-.67l0-.11-.07-.16-.05-.12A3.93,3.93,0,0,0,56,63.37a7.74,7.74,0,0,0-2.26-1.16,5.84,5.84,0,0,0-1.51-.13,9.83,9.83,0,0,0-1.55.11c-.29,0-.58.12-.87.18s-.58.13-.86.2a11.89,11.89,0,0,0-2.6,1.12l-.27.15,0,0-.43.26c-.25.17-.5.34-.74.52-1,.74-2,1.56-2.95,2.38-.31.25-.62.49-.91.76-.71.67-1.4,1.36-2.15,2a5.73,5.73,0,0,1-.62.46,16.25,16.25,0,0,1-3.17,1.55l-.15.05c-.54.19-1.1.35-1.66.49L33,72.4l-.45.09-.86.14a19.64,19.64,0,0,1-2.16.17h-.28A19.09,19.09,0,0,1,27,72.64l-.86-.14-.45-.1-.34-.08a16.79,16.79,0,0,1-1.66-.49l-.15-.05a16.25,16.25,0,0,1-3.17-1.54,6.17,6.17,0,0,1-.62-.46c-.75-.63-1.44-1.32-2.15-2-.29-.27-.6-.51-.91-.76-1-.82-1.93-1.64-2.95-2.38-.24-.18-.49-.36-.74-.53l-.43-.26h0l-.27-.16a12,12,0,0,0-2.6-1.12c-.28-.08-.57-.14-.86-.2s-.58-.13-.87-.18a9.59,9.59,0,0,0-1.55-.11,5.74,5.74,0,0,0-1.51.13,6.06,6.06,0,0,0-.9.35,6.32,6.32,0,0,0-1.36.81,3.93,3.93,0,0,0-1.06,1.31l-.05.12L1.48,65l0,.11a3.65,3.65,0,0,0-.18.67,2.53,2.53,0,0,0,0,.38,2.19,2.19,0,0,0,.12.7A2.37,2.37,0,0,0,2,67.92a2,2,0,0,0,1.11.59,4.68,4.68,0,0,0-2,1.68,5.52,5.52,0,0,0-.27.51l0,.09a4.78,4.78,0,0,0-.19.51h0c0,.13-.07.25-.1.38a2.86,2.86,0,0,0-.06.5s0,.06,0,.08A3.15,3.15,0,0,0,.78,73.93ZM53.12,63a4.41,4.41,0,0,1,2,.44,3.18,3.18,0,0,1,1.71,2.65,2.34,2.34,0,0,1-.05.49,1.81,1.81,0,0,1-.74,1.13,1.57,1.57,0,0,1-.39.2,1.31,1.31,0,0,1-.41.07,1.24,1.24,0,0,1-.81-.31.78.78,0,0,1-.23-.52.55.55,0,0,1,.47-.55.21.21,0,0,1,.19.11s0,.08-.1.12a.36.36,0,0,1-.17.08l-.06.15a.58.58,0,0,0,.28.08.43.43,0,0,0,.44-.43.5.5,0,0,0-.27-.42.84.84,0,0,0-.39-.1,1,1,0,0,0-.9,1s0,0,0,.07A1.22,1.22,0,0,0,54,68l-.28-.05-.5-.07-.21,0h-1l-.32,0-.14,0c-.23,0-.46.07-.69.12h0a9.07,9.07,0,0,0-1.92.66,7.84,7.84,0,0,0-.92.53l-.44.31A13.28,13.28,0,0,0,45.12,72l.26-.62.13-.32.07-.18A26.46,26.46,0,0,1,48,66.09l.11-.16.18-.24.27-.34.08-.1a6.59,6.59,0,0,1,2-1.62,5.43,5.43,0,0,1,.59-.26A5.55,5.55,0,0,1,53.12,63ZM42.78,67.24h0c.64-.54,1.27-1.09,1.94-1.6l.25-.19.13-.09a13.6,13.6,0,0,1,3.09-1.75l.08,0,.44-.16.24-.08.17,0a15.68,15.68,0,0,1,1.7-.39l-.26.11-.25.12-.18.1a6.54,6.54,0,0,0-1.18.86c-2.2,2-3.4,5.61-4.57,8.39l-.05.12-.18.42-.08.18-.21.47-.07.14-.24.48a18.88,18.88,0,0,1-3.26,4,6.1,6.1,0,0,1-.81-2.48,9.68,9.68,0,0,1-.08-1.22A9.92,9.92,0,0,1,42.78,67.24ZM32.44,73.78a1.91,1.91,0,0,1,1.51.7,1.34,1.34,0,0,1,.25.74.92.92,0,0,1-.84.92.37.37,0,0,1-.37-.25c0-.05.06-.13.16-.19a.66.66,0,0,1,.31-.1h0l0,0,.13-.1a.17.17,0,0,0-.07-.07.8.8,0,0,0-.49-.18.63.63,0,0,0-.63.62.71.71,0,0,0,.29.55,1.21,1.21,0,0,0,.72.25,1.53,1.53,0,0,0,1.41-1.35,1.65,1.65,0,0,0,0-.17,2.19,2.19,0,0,0-2.1-2.07h-.05a17.41,17.41,0,0,0,7.15-3.18,9.51,9.51,0,0,0-1.12,4.43,9.25,9.25,0,0,0,.93,4l.18.31,0,0a8.1,8.1,0,0,1-4.76,1.62,6.07,6.07,0,0,1-1-.08,5.27,5.27,0,0,1-3.6-2.08,3.81,3.81,0,0,1-.56-1.81s0-.1,0-.15a2.61,2.61,0,0,1,1.13-2,3.18,3.18,0,0,1,.39-.2A2.59,2.59,0,0,1,32.44,73.78Zm-3.86-.35H30.1c.36,0,.72,0,1.08-.08l-.09,0-.19.1v0c0,.06-.25.21-.31.25A3.61,3.61,0,0,0,29.35,76a3.15,3.15,0,0,0-.09-.46,3.52,3.52,0,0,0-1.16-1.82c-.05,0-.31-.18-.31-.25v0l-.19-.1-.09,0Q28,73.4,28.58,73.43ZM26,73.11h-.05a2.19,2.19,0,0,0-2.1,2.07c0,.05,0,.11,0,.17a1.53,1.53,0,0,0,1.41,1.35,1.2,1.2,0,0,0,.72-.25.71.71,0,0,0,.29-.55.63.63,0,0,0-.63-.62.8.8,0,0,0-.49.18.14.14,0,0,0-.07.07l.13.1,0,0h0a.71.71,0,0,1,.3.1c.1.06.17.14.16.19a.37.37,0,0,1-.38.25.92.92,0,0,1-.84-.92,1.36,1.36,0,0,1,.25-.74,1.91,1.91,0,0,1,1.51-.7,2.55,2.55,0,0,1,1,.21,3.16,3.16,0,0,1,.39.2,2.6,2.6,0,0,1,1.13,2s0,.1,0,.15a3.8,3.8,0,0,1-.56,1.81,5.26,5.26,0,0,1-3.6,2.08,5.85,5.85,0,0,1-1,.08,8.1,8.1,0,0,1-4.76-1.62l0,0,.18-.31a9.26,9.26,0,0,0,.93-4,9.5,9.5,0,0,0-1.12-4.43A17.39,17.39,0,0,0,26,73.11ZM9.58,63.3l.17.05.24.08.44.16.08,0a13.63,13.63,0,0,1,3.09,1.75l.13.1.25.19c.66.51,1.29,1.05,1.93,1.6h0a9.93,9.93,0,0,1,3.38,7.39,10.42,10.42,0,0,1-.08,1.22,6.11,6.11,0,0,1-.81,2.48,19.06,19.06,0,0,1-3.26-4l-.24-.48-.07-.14-.21-.47L14.55,73l-.18-.42,0-.12C13.15,69.71,12,66.15,9.75,64.1a6.38,6.38,0,0,0-1.18-.86l-.17-.1L8.15,63l-.26-.11A15.32,15.32,0,0,1,9.58,63.3ZM3,67.95a1.45,1.45,0,0,1-.39-.2,1.8,1.8,0,0,1-.74-1.13,2.47,2.47,0,0,1-.05-.49,3.17,3.17,0,0,1,1.71-2.65,4.38,4.38,0,0,1,2-.44,5.62,5.62,0,0,1,1.93.32,5.41,5.41,0,0,1,.58.26,6.57,6.57,0,0,1,2,1.62l.08.1.27.34.18.24.11.16a26.37,26.37,0,0,1,2.42,4.79l.08.18.13.32.26.62a13.06,13.06,0,0,0-2.48-2.52l-.44-.31a7.42,7.42,0,0,0-.92-.53A9.16,9.16,0,0,0,7.81,68h0c-.23-.05-.46-.09-.69-.12l-.14,0-.32,0h-1l-.21,0-.5.07L4.68,68a1.23,1.23,0,0,0,.25-.7s0,0,0-.07a1,1,0,0,0-.9-1,.82.82,0,0,0-.38.1.49.49,0,0,0-.28.42.43.43,0,0,0,.44.43.57.57,0,0,0,.28-.08L4,66.94a.38.38,0,0,1-.17-.07.22.22,0,0,1-.1-.12A.22.22,0,0,1,4,66.64a.56.56,0,0,1,.48.55.79.79,0,0,1-.23.52A1.24,1.24,0,0,1,3.4,68,1.33,1.33,0,0,1,3,67.95Z"/><path d="M18.27,64.87a11.63,11.63,0,0,0,22.16,0,17.37,17.37,0,0,1-11.11,3.65A17.4,17.4,0,0,1,18.27,64.87Z"/><path d="M57.48,8.4a2,2,0,0,0-1.61-1.12A1.4,1.4,0,0,0,54.59,8a1.55,1.55,0,0,0-.18.55s0,.08,0,.12a.9.9,0,0,0,.77.86.64.64,0,0,0,.38-.1l.13-.08A.47.47,0,0,0,55.87,9a.39.39,0,0,0-.36-.41.48.48,0,0,0-.26.07l-.09.06a.08.08,0,0,0,.07.14h0a.32.32,0,0,1,.15.05s.06.07.06.08a.25.25,0,0,1,0,.07l-.1,0a.49.49,0,0,1-.4-.53.79.79,0,0,1,.15-.4,1.06,1.06,0,0,1,.27-.23,1.29,1.29,0,0,1,1.51.36A2.79,2.79,0,0,1,57,10.93a3.74,3.74,0,0,1-.65,1.31,5.51,5.51,0,0,1-3.18,1.6,5.38,5.38,0,0,1-.56.07l-.45,0a7.8,7.8,0,0,1-2.44-.41l-.08,0-.34-.12a8.39,8.39,0,0,1-.85-.39,9.2,9.2,0,0,1-1-.67c-.2-.16-.39-.32-.57-.48l-.1-.1-.42-.41-.13-.14-.33-.36-.16-.19-.31-.38-.12-.15-.39-.52,0,0c-.2-.28-.39-.56-.59-.85L43.8,8l-.12-.19-.13-.18a.77.77,0,0,1,0-.09h-.05l-.25-.37-.2-.3-.14-.21-.09-.12L42.7,6.4l-.2-.27-.21-.29-.08-.11q-.41-.54-.87-1.06l-.13-.15L41,4.27,40.74,4l-.19-.18-.4-.37a6.71,6.71,0,0,1,.87-1,7.16,7.16,0,0,1,4.73-2h.07a6,6,0,0,1,2,.42A5.33,5.33,0,0,1,50.45,3.1,4,4,0,0,1,51,4.77a5,5,0,0,1,0,.69,3.84,3.84,0,0,1-.18,1.2l-.06.18-.1.26-.13.28-.1.19-.11.19L50.2,8l-.14.17-.17.19-.13.12a2.71,2.71,0,0,1-.29.23l-.14.09-.22.13L48.94,9l-.32.13a3.35,3.35,0,0,1-1,.16l-.35,0a2.46,2.46,0,0,1-1.74-.94l-.05-.06a1.23,1.23,0,0,1-.22-.42,1.49,1.49,0,0,1-.07-.6A1.16,1.16,0,0,1,45.23,7v0l.07-.12,0,0a1,1,0,0,1,.6-.41l.18,0a.52.52,0,0,1,.58.49c0,.16-.07.26-.21.26s-.05-.13,0-.17,0-.1,0-.11,0-.11,0-.15h-.06a.45.45,0,0,0-.27.38.4.4,0,0,0,.42.39.52.52,0,0,0,.23-.06.67.67,0,0,0,.38-.61A.9.9,0,0,0,46.62,6,1.22,1.22,0,0,0,46,5.88a1.55,1.55,0,0,0-1.42,1.54,1.18,1.18,0,0,0,0,.12,2.5,2.5,0,0,0,.38,1l0,0a2.74,2.74,0,0,0,1.17,1h0a3,3,0,0,0,.92.24l.37,0,.44,0,.12,0,.21,0,.27-.06h0l.22-.06a4,4,0,0,0,2.46-2.5v0q.06-.15.1-.3l0-.07c0-.12.06-.24.09-.36a4.44,4.44,0,0,0,.1-1,6.1,6.1,0,0,0,0-.75,5.05,5.05,0,0,0-.3-1.14c.15.06.31.09.37.12a3.68,3.68,0,0,0,1.16.17,4.17,4.17,0,0,0,1.13-.13,1.9,1.9,0,0,0,.43-.19A1.69,1.69,0,0,0,54.81,3a2,2,0,0,0,.31-1.9,1.34,1.34,0,0,0-1.79-.7,1,1,0,0,0-.47.81.51.51,0,0,0,.72.45c.39-.18.26-.54.07-.82,0,.14.06.33-.07.42a.16.16,0,0,1-.26-.09c-.07-.38.51-.46.77-.38a.76.76,0,0,1,.22.12,1.11,1.11,0,0,1,.29,1,1.36,1.36,0,0,1-.61.92,1.58,1.58,0,0,1-.32.16,2.57,2.57,0,0,1-1.33.09A2.86,2.86,0,0,1,51.77,3a3.82,3.82,0,0,1-1.23-.81.45.45,0,0,1-.08-.12h0A5.76,5.76,0,0,0,49.14,1l-.07,0L48.66.68l-.06,0A5.78,5.78,0,0,0,46,0h-.13a7.66,7.66,0,0,0-6.08,3.15l-.1-.08a8.78,8.78,0,0,0-5-1.67,6.46,6.46,0,0,0-1.14.1,6,6,0,0,0-4,2.31,4.76,4.76,0,0,0-.63,1.76,4.79,4.79,0,0,0-.63-1.76,6,6,0,0,0-4-2.3,6.46,6.46,0,0,0-1.14-.1,8.78,8.78,0,0,0-5,1.67l-.1.09A7.66,7.66,0,0,0,12,0h-.13A5.8,5.8,0,0,0,9.22.65l-.06,0L8.76.92,8.69,1A5.91,5.91,0,0,0,7.4,2.11h0a.41.41,0,0,1-.08.12A3.78,3.78,0,0,1,6.05,3a2.83,2.83,0,0,1-.58.15,2.59,2.59,0,0,1-1.32-.09,1.53,1.53,0,0,1-.32-.16A1.36,1.36,0,0,1,3.22,2a1.11,1.11,0,0,1,.29-1A.76.76,0,0,1,3.73.86c.25-.08.84,0,.77.37a.16.16,0,0,1-.26.09c-.13-.1-.1-.29-.07-.42-.19.28-.32.64.07.82A.5.5,0,0,0,5,1.26,1,1,0,0,0,4.49.45a1.34,1.34,0,0,0-1.79.7A2,2,0,0,0,3,3.05a1.72,1.72,0,0,0,.47.43,2,2,0,0,0,.43.19A4.16,4.16,0,0,0,5,3.8a3.74,3.74,0,0,0,1.17-.17c.06,0,.23-.06.37-.12a5.17,5.17,0,0,0-.31,1.14,6.51,6.51,0,0,0,0,.75,4.46,4.46,0,0,0,.1,1c0,.12.06.24.09.36l0,.07q0,.16.1.3v0A4,4,0,0,0,9,9.63l.22.06h0l.27.06.21,0,.12,0,.44,0,.37,0a2.92,2.92,0,0,0,.92-.24h0a2.76,2.76,0,0,0,1.17-1l0,0a2.5,2.5,0,0,0,.38-1,.82.82,0,0,0,0-.12,1.55,1.55,0,0,0-1.42-1.54A1.22,1.22,0,0,0,11.2,6a.91.91,0,0,0-.49.79.67.67,0,0,0,.37.61.55.55,0,0,0,.23.06.41.41,0,0,0,.42-.39.45.45,0,0,0-.27-.38h-.06s0,.12,0,.15,0,.1,0,.11,0,.17,0,.17-.21-.1-.21-.26a.52.52,0,0,1,.58-.49l.18,0a1.05,1.05,0,0,1,.6.41l0,0,.07.12V7a1.13,1.13,0,0,1,.09.32,1.48,1.48,0,0,1-.08.6,1.17,1.17,0,0,1-.22.42l-.05.06a2.47,2.47,0,0,1-1.74.94h-.35a3.31,3.31,0,0,1-1-.16L8.88,9l-.17-.09-.22-.13-.13-.09L8.07,8.5l-.12-.12-.17-.19L7.63,8l-.18-.26-.11-.19-.1-.19c0-.09-.09-.19-.13-.29S7,6.93,7,6.84l-.06-.18c0-.14-.08-.28-.11-.42a4,4,0,0,1-.07-.77,4.72,4.72,0,0,1,0-.69A4,4,0,0,1,7.37,3.1,5.36,5.36,0,0,1,10,.91,6,6,0,0,1,12,.5h.07a7.18,7.18,0,0,1,4.73,2,6.84,6.84,0,0,1,.87,1l-.4.37L17.08,4l-.23.23-.24.25-.13.15c-.31.35-.6.7-.87,1.06l-.08.11-.21.29-.2.27L15,6.56l-.08.12-.14.21-.2.3-.25.37h-.05a.75.75,0,0,1,0,.09l-.13.18L14,8l-.45.68c-.19.29-.38.57-.59.85l0,0-.39.52-.12.15-.31.37-.16.19-.33.36-.13.14-.42.41-.1.1c-.19.17-.37.33-.57.49a9,9,0,0,1-1,.67,8,8,0,0,1-.85.39l-.34.13-.08,0a7.88,7.88,0,0,1-2.44.41l-.45,0-.57-.07a5.53,5.53,0,0,1-3.18-1.6,3.75,3.75,0,0,1-.65-1.31A2.79,2.79,0,0,1,1,8.28,1.29,1.29,0,0,1,2.5,7.93a1.05,1.05,0,0,1,.27.23.81.81,0,0,1,.15.4.49.49,0,0,1-.4.53l-.1,0a.28.28,0,0,1,0-.07s0,0,.06-.08a.31.31,0,0,1,.15-.06h0a.08.08,0,0,0,.1,0,.08.08,0,0,0,0-.11l-.09-.06a.45.45,0,0,0-.27-.07A.39.39,0,0,0,1.95,9a.47.47,0,0,0,.19.34l.12.08a.66.66,0,0,0,.38.1.91.91,0,0,0,.77-.87s0-.08,0-.12A1.61,1.61,0,0,0,3.23,8,1.4,1.4,0,0,0,2,7.28,2,2,0,0,0,.34,8.4,3.18,3.18,0,0,0,0,10.06v.09a2.69,2.69,0,0,0,.06.5c0,.13.06.25.1.37h0a4.65,4.65,0,0,0,.19.51l0,.09a5.5,5.5,0,0,0,.27.51,4.67,4.67,0,0,0,2,1.68,2,2,0,0,0-1.1.59,2.37,2.37,0,0,0-.61,1.1,2.16,2.16,0,0,0-.12.71,2.5,2.5,0,0,0,0,.38,3.83,3.83,0,0,0,.18.67l0,.11.07.16.05.12A3.93,3.93,0,0,0,2.23,19a6.28,6.28,0,0,0,1.36.81,6.25,6.25,0,0,0,.9.35A5.84,5.84,0,0,0,6,20.25a9.82,9.82,0,0,0,1.55-.11c.29,0,.58-.12.87-.18s.58-.13.86-.2a11.89,11.89,0,0,0,2.6-1.12l.27-.15,0,0,.43-.26c.25-.17.5-.34.74-.52,1-.74,2-1.56,2.95-2.38.31-.25.62-.49.91-.76.71-.67,1.4-1.36,2.15-2a5.77,5.77,0,0,1,.62-.46,16.26,16.26,0,0,1,3.17-1.55l.15-.05c.54-.19,1.1-.35,1.66-.49l.34-.08.46-.09.86-.14a19.62,19.62,0,0,1,2.16-.17h.28a19.09,19.09,0,0,1,2.16.17l.86.14.45.1.34.08a16.75,16.75,0,0,1,1.66.49l.15.05a16.25,16.25,0,0,1,3.17,1.54,6.17,6.17,0,0,1,.62.46c.75.63,1.44,1.32,2.15,2,.29.27.6.51.91.76,1,.82,1.93,1.64,2.95,2.38.24.18.49.36.74.53l.43.26h0l.27.16a12,12,0,0,0,2.6,1.12c.28.08.57.14.86.2s.58.13.87.18a9.58,9.58,0,0,0,1.55.11,5.73,5.73,0,0,0,1.51-.13,6.05,6.05,0,0,0,.9-.35A6.32,6.32,0,0,0,55.59,19a3.93,3.93,0,0,0,1.06-1.31l.05-.12.07-.15,0-.11A3.63,3.63,0,0,0,57,16.6a2.52,2.52,0,0,0,0-.38,2.19,2.19,0,0,0-.12-.7,2.37,2.37,0,0,0-.61-1.1,2,2,0,0,0-1.11-.59,4.68,4.68,0,0,0,2-1.68,5.52,5.52,0,0,0,.27-.51l0-.09a4.79,4.79,0,0,0,.19-.51h0c0-.12.07-.25.1-.38a2.86,2.86,0,0,0,.06-.5s0-.06,0-.08A3.15,3.15,0,0,0,57.48,8.4ZM5.13,19.29a4.41,4.41,0,0,1-2-.44A3.18,3.18,0,0,1,1.38,16.2a2.33,2.33,0,0,1,.05-.49,1.81,1.81,0,0,1,.74-1.13,1.57,1.57,0,0,1,.39-.2A1.31,1.31,0,0,1,3,14.31a1.24,1.24,0,0,1,.81.31.78.78,0,0,1,.23.52.55.55,0,0,1-.47.55.21.21,0,0,1-.19-.11s0-.08.1-.12a.36.36,0,0,1,.17-.08l.06-.15a.58.58,0,0,0-.28-.08.43.43,0,0,0-.44.43.5.5,0,0,0,.27.42.84.84,0,0,0,.39.1,1,1,0,0,0,.9-1s0,0,0-.07a1.22,1.22,0,0,0-.26-.7l.28.05.5.07.21,0h1l.32,0,.14,0c.23,0,.46-.07.69-.12h0a9.08,9.08,0,0,0,1.92-.66,7.87,7.87,0,0,0,.92-.53l.44-.31a13.28,13.28,0,0,0,2.48-2.52l-.26.62-.13.32-.07.18a26.46,26.46,0,0,1-2.42,4.79l-.11.16-.18.24L9.69,17l-.08.1a6.59,6.59,0,0,1-2,1.62,5.43,5.43,0,0,1-.59.26A5.55,5.55,0,0,1,5.13,19.29Zm10.35-4.21h0c-.64.54-1.27,1.09-1.94,1.6l-.25.19-.13.09a13.6,13.6,0,0,1-3.09,1.75l-.08,0-.44.16L9.31,19l-.17,0a15.67,15.67,0,0,1-1.7.39l.26-.11L8,19.19l.18-.1a6.53,6.53,0,0,0,1.18-.86c2.2-2,3.4-5.61,4.57-8.39l.05-.12.18-.42.08-.18.21-.47.07-.14L14.71,8A18.89,18.89,0,0,1,18,4a6.1,6.1,0,0,1,.81,2.48,9.67,9.67,0,0,1,.08,1.22A9.92,9.92,0,0,1,15.48,15.08ZM25.82,8.55a1.91,1.91,0,0,1-1.51-.7,1.34,1.34,0,0,1-.25-.74.92.92,0,0,1,.84-.92.37.37,0,0,1,.38.25c0,.05-.06.13-.16.19a.66.66,0,0,1-.31.1h0l0,0-.13.1a.17.17,0,0,0,.07.07.8.8,0,0,0,.49.18.63.63,0,0,0,.63-.62.71.71,0,0,0-.29-.55,1.21,1.21,0,0,0-.72-.25A1.53,1.53,0,0,0,23.39,7a1.63,1.63,0,0,0,0,.17,2.19,2.19,0,0,0,2.1,2.07h.05a17.41,17.41,0,0,0-7.15,3.18A9.51,9.51,0,0,0,19.49,8a9.25,9.25,0,0,0-.93-4l-.18-.31,0,0A8.1,8.1,0,0,1,23.16,2a6.06,6.06,0,0,1,1,.08,5.27,5.27,0,0,1,3.6,2.08A3.81,3.81,0,0,1,28.32,6s0,.1,0,.15a2.61,2.61,0,0,1-1.12,2,3.18,3.18,0,0,1-.39.2A2.59,2.59,0,0,1,25.82,8.55Zm3.86.35H28.16c-.36,0-.72,0-1.08.08l.09,0,.19-.1v0c0-.06.25-.21.31-.25a3.61,3.61,0,0,0,1.25-2.29,3.17,3.17,0,0,0,.09.46,3.52,3.52,0,0,0,1.16,1.82c.05,0,.31.18.31.25v0l.19.1.09,0C30.39,8.95,30,8.92,29.68,8.9Zm2.62.32h.05a2.19,2.19,0,0,0,2.1-2.07c0-.05,0-.11,0-.17A1.53,1.53,0,0,0,33,5.62a1.2,1.2,0,0,0-.72.25.71.71,0,0,0-.29.55.63.63,0,0,0,.63.62.8.8,0,0,0,.49-.18.14.14,0,0,0,.07-.07l-.13-.1,0,0h0a.71.71,0,0,1-.3-.1c-.1-.06-.17-.14-.16-.19a.37.37,0,0,1,.38-.25.92.92,0,0,1,.84.92,1.36,1.36,0,0,1-.25.74,1.91,1.91,0,0,1-1.51.7,2.55,2.55,0,0,1-1-.21,3.18,3.18,0,0,1-.39-.2,2.61,2.61,0,0,1-1.13-2s0-.1,0-.15a3.8,3.8,0,0,1,.56-1.81,5.26,5.26,0,0,1,3.6-2.08,5.84,5.84,0,0,1,1-.08,8.1,8.1,0,0,1,4.76,1.62l0,0-.18.31a9.26,9.26,0,0,0-.93,4,9.5,9.5,0,0,0,1.12,4.43A17.39,17.39,0,0,0,32.29,9.22ZM48.68,19,48.51,19l-.24-.08-.44-.16-.08,0A13.63,13.63,0,0,1,44.65,17l-.13-.1-.25-.19c-.66-.51-1.29-1.05-1.93-1.6h0A9.93,9.93,0,0,1,39,7.69,10.44,10.44,0,0,1,39,6.47,6.11,6.11,0,0,1,39.85,4a19.06,19.06,0,0,1,3.26,4l.24.48.07.14.21.47.08.18.18.42,0,.12c1.17,2.78,2.37,6.34,4.57,8.39a6.38,6.38,0,0,0,1.18.86l.17.1.25.12.26.11A15.31,15.31,0,0,1,48.68,19Zm6.59-4.65a1.44,1.44,0,0,1,.39.2,1.8,1.8,0,0,1,.74,1.13,2.47,2.47,0,0,1,.05.49,3.17,3.17,0,0,1-1.71,2.65,4.38,4.38,0,0,1-2,.44A5.62,5.62,0,0,1,50.76,19a5.41,5.41,0,0,1-.58-.26,6.57,6.57,0,0,1-2-1.62l-.08-.1-.27-.34-.18-.24-.11-.16a26.37,26.37,0,0,1-2.42-4.79l-.08-.18L44.94,11l-.26-.62a13,13,0,0,0,2.48,2.52l.44.31a7.43,7.43,0,0,0,.92.53,9.16,9.16,0,0,0,1.92.66h0c.23.05.46.09.69.12l.14,0,.32,0h1l.21,0,.5-.07.28-.05a1.23,1.23,0,0,0-.25.7s0,0,0,.07a1,1,0,0,0,.9,1,.82.82,0,0,0,.38-.1.49.49,0,0,0,.28-.42.43.43,0,0,0-.44-.43.57.57,0,0,0-.28.08l.06.15a.38.38,0,0,1,.17.07.22.22,0,0,1,.1.12.22.22,0,0,1-.19.11.56.56,0,0,1-.48-.55.79.79,0,0,1,.23-.52,1.24,1.24,0,0,1,.81-.31A1.33,1.33,0,0,1,55.27,14.38Z"/><circle cx="29.38" cy="39.84" r="27.75"/><circle class="cls-1" cx="29.29" cy="40" r="24.53"/><path d="M7.44,39.91A21.87,21.87,0,0,1,29.31,18h0A21.87,21.87,0,0,1,51.17,39.91h0A21.87,21.87,0,0,1,29.31,61.77h0A21.87,21.87,0,0,1,7.44,39.91ZM14,24.63A21.54,21.54,0,0,0,7.7,39.91h0A21.54,21.54,0,0,0,14,55.18h0a21.54,21.54,0,0,0,15.28,6.33h0a21.54,21.54,0,0,0,15.28-6.33h0a21.54,21.54,0,0,0,6.33-15.28h0a21.54,21.54,0,0,0-6.33-15.28h0A21.54,21.54,0,0,0,29.31,18.3h0A21.54,21.54,0,0,0,14,24.63Z"/><path d="M4.54,40A24.73,24.73,0,0,1,29.27,15.31h0A24.73,24.73,0,0,1,54,40h0A24.73,24.73,0,0,1,29.27,64.77h0A24.73,24.73,0,0,1,4.54,40ZM12,22.74A24.39,24.39,0,0,0,4.8,40h0A24.39,24.39,0,0,0,12,57.34h0a24.39,24.39,0,0,0,17.3,7.17h0a24.38,24.38,0,0,0,17.3-7.17h0A24.39,24.39,0,0,0,53.73,40h0a24.39,24.39,0,0,0-7.17-17.3h0a24.39,24.39,0,0,0-17.3-7.17h0A24.4,24.4,0,0,0,12,22.74Z"/><path d="M8.44,40A20.82,20.82,0,0,1,29.26,19.16h0A20.82,20.82,0,0,1,50.09,40h0A20.83,20.83,0,0,1,29.26,60.81h0A20.82,20.82,0,0,1,8.44,40Zm6.28-14.54A20.49,20.49,0,0,0,8.7,40h0a20.49,20.49,0,0,0,6,14.54h0a20.5,20.5,0,0,0,14.54,6h0a20.51,20.51,0,0,0,14.54-6h0a20.5,20.5,0,0,0,6-14.54h0a20.5,20.5,0,0,0-6-14.54h0a20.5,20.5,0,0,0-14.54-6h0a20.49,20.49,0,0,0-14.54,6Z"/><circle cx="29.25" cy="39.99" r="1.23"/><path d="M29.38,19.26V15.38h-.19v3.89Z"/><path d="M29.19,60.63v4h.19v-4Z"/><path d="M47.55,30.36,51,28.53l-.09-.16L47.46,30.2Z"/><path d="M11.07,49.67l-3.6,1.93.09.16,3.59-1.92Z"/><path d="M39.79,22.13l1.86-3.23-.16-.09L39.62,22Z"/><path d="M19,57.93l-2,3.55.16.09L19.14,58Z"/><path d="M38.74,58.31l1.92,3.58.17-.09-1.91-3.56Z"/><path d="M19.37,21.72l-1.78-3.33-.17.09,1.79,3.34Z"/><path d="M11.4,29.7,8,27.72l-.09.16,3.46,2Z"/><path d="M47.08,50.24l-.1.16,3.55,2,.09-.16Z"/><path d="M8.7,39.9H4.61v.19h4.1C8.71,40,8.7,40,8.7,39.9Z"/><path d="M49.81,39.9c0,.06,0,.13,0,.19h4V39.9Z"/><path d="M44.1,34.58h2.19V35H43.74V34.8a17.72,17.72,0,0,0,1.47-2.39,4,4,0,0,0,.43-1.68,2.09,2.09,0,0,0-.22-1,.66.66,0,0,0-.6-.38.67.67,0,0,0-.56.3,1.52,1.52,0,0,0-.26.82h-.13a2.25,2.25,0,0,1,.17-.8,1.73,1.73,0,0,1,.43-.66.84.84,0,0,1,.58-.24,1,1,0,0,1,.8.49,2.16,2.16,0,0,1,.33,1.23,4,4,0,0,1-.48,1.78A14.23,14.23,0,0,1,44.1,34.58Z"/><path d="M27.69,25.46V21.25c0-.14,0-.21-.06-.21l-.1,0a1.32,1.32,0,0,1-.5.17v-.18a3.28,3.28,0,0,0,1-1h.13v5.43a1.13,1.13,0,0,0,.09.55c.06.08.18.13.37.13v.16H27.23v-.16c.19,0,.32,0,.37-.13A1.14,1.14,0,0,0,27.69,25.46Z"/><path d="M29.59,25.77h2.19v.44H29.23V26a17.85,17.85,0,0,0,1.47-2.39,4,4,0,0,0,.43-1.68,2.1,2.1,0,0,0-.22-1,.67.67,0,0,0-.6-.38.68.68,0,0,0-.56.3,1.53,1.53,0,0,0-.26.82h-.13a2.24,2.24,0,0,1,.17-.8,1.72,1.72,0,0,1,.43-.66.84.84,0,0,1,.58-.24,1,1,0,0,1,.8.49,2.15,2.15,0,0,1,.33,1.22,4,4,0,0,1-.48,1.78A14.28,14.28,0,0,1,29.59,25.77Z"/><path d="M47.1,40.28V40.1a1.52,1.52,0,0,0,1.37-1.56,1.3,1.3,0,0,0-.22-.76.65.65,0,0,0-.54-.31.61.61,0,0,0-.42.17,1.14,1.14,0,0,0-.3.47L46.86,38a1.33,1.33,0,0,1,.39-.68,1,1,0,0,1,.65-.25.94.94,0,0,1,.77.39,1.54,1.54,0,0,1,.31,1,1.72,1.72,0,0,1-.2.83,1.51,1.51,0,0,1-.59.59v0a1.35,1.35,0,0,1,.72.62,2.11,2.11,0,0,1,.26,1.08A2.25,2.25,0,0,1,48.79,43a1.2,1.2,0,0,1-1,.53,1.12,1.12,0,0,1-.59-.15,1.91,1.91,0,0,1-.52-.52l.1-.13a1.23,1.23,0,0,0,.88.5.86.86,0,0,0,.7-.36,1.5,1.5,0,0,0,.28-.95,2.23,2.23,0,0,0-.3-1.15.89.89,0,0,0-.78-.51Z"/><path d="M46.1,49.79H45v2.11h-.46V49.79H42.71v-.18l2.17-4.08H45V49.3h1.1Zm-3-.5h1.4V46.67Z"/><path d="M38.46,52.58H36.78l0,2.18a1.77,1.77,0,0,1,.35,0,1.23,1.23,0,0,1,1,.49,1.94,1.94,0,0,1,.38,1.22,2.13,2.13,0,0,1-.39,1.31,1.17,1.17,0,0,1-1,.52,1.38,1.38,0,0,1-1.21-.88l.12-.1a1,1,0,0,0,.86.61.87.87,0,0,0,.72-.39,1.58,1.58,0,0,0,.29-1,1.42,1.42,0,0,0-.3-.94,1,1,0,0,0-.82-.36l-.3,0L36.57,52h1.89Z"/><path d="M30.45,53.59v.18a2.63,2.63,0,0,0-1.59,1.12,4.42,4.42,0,0,0-.68,2.23,1.44,1.44,0,0,1,1.09-.67,1,1,0,0,1,.87.49,2.15,2.15,0,0,1,.34,1.25,2.09,2.09,0,0,1-.4,1.3,1.2,1.2,0,0,1-1,.53A1.25,1.25,0,0,1,28,59.33a3.21,3.21,0,0,1-.43-1.73,4.56,4.56,0,0,1,.8-2.72A2.93,2.93,0,0,1,30.45,53.59ZM30,58.38a2,2,0,0,0-.25-1.07.75.75,0,0,0-.66-.4,1.13,1.13,0,0,0-.86.52v.07a4,4,0,0,0,.27,1.62q.27.59.72.6a.64.64,0,0,0,.56-.38A1.93,1.93,0,0,0,30,58.38Z"/><path d="M18.45,52.87h-.13l.24-1.58h.13a.29.29,0,0,0,.1.17.3.3,0,0,0,.15,0H21.4v.21l-1.53,6h-.56L21,52.1H19.08a.38.38,0,0,0-.31.14A2.87,2.87,0,0,0,18.45,52.87Z"/><path d="M14.64,50.41a1.84,1.84,0,0,1-.38,1.18,1.18,1.18,0,0,1-1.85.06,1.62,1.62,0,0,1-.36-1.08,1.78,1.78,0,0,1,.23-.9,2.83,2.83,0,0,1,.74-.8,2,2,0,0,1-.63-.73,2.11,2.11,0,0,1-.22-1,1.72,1.72,0,0,1,.33-1.1,1,1,0,0,1,.86-.42,1,1,0,0,1,.83.4,1.53,1.53,0,0,1,.33,1,1.78,1.78,0,0,1-.77,1.47A2.55,2.55,0,0,1,14.64,50.41Zm-2.16,0a1.66,1.66,0,0,0,.26.95.75.75,0,0,0,.64.38.69.69,0,0,0,.57-.3,1.22,1.22,0,0,0,.23-.76,2.08,2.08,0,0,0-1-1.65A1.53,1.53,0,0,0,12.49,50.43Zm.11-3.6a1.37,1.37,0,0,0,.23.76,3.8,3.8,0,0,0,.79.8,1.38,1.38,0,0,0,.51-1.21,1.75,1.75,0,0,0-.22-.94.67.67,0,0,0-.58-.36.63.63,0,0,0-.52.27A1.08,1.08,0,0,0,12.6,46.83Z"/><path d="M9.93,43.5v-.18a2.42,2.42,0,0,0,1.58-1.1A4.32,4.32,0,0,0,12.21,40a1.44,1.44,0,0,1-1.1.68,1,1,0,0,1-.87-.49,2.13,2.13,0,0,1-.34-1.25,2.05,2.05,0,0,1,.4-1.29,1.22,1.22,0,0,1,1-.52,1.24,1.24,0,0,1,1.08.68,3.21,3.21,0,0,1,.42,1.72A4.52,4.52,0,0,1,12,42.23,2.89,2.89,0,0,1,9.93,43.5Zm.5-4.78a2,2,0,0,0,.25,1.07.76.76,0,0,0,.67.4,1.11,1.11,0,0,0,.86-.58A4.06,4.06,0,0,0,11.94,38c-.18-.4-.42-.59-.72-.59a.65.65,0,0,0-.57.38A1.89,1.89,0,0,0,10.43,38.72Z"/><path d="M12.81,34.8V30.59c0-.14,0-.21-.06-.21l-.1,0a1.31,1.31,0,0,1-.5.17v-.18a3.28,3.28,0,0,0,1-1h.13V34.8a1.14,1.14,0,0,0,.09.55c.06.08.18.13.37.13v.16H12.35v-.16c.19,0,.32,0,.37-.13A1.14,1.14,0,0,0,12.81,34.8Z"/><path d="M17.12,32.55a6.34,6.34,0,0,1-.2,1.66,2.81,2.81,0,0,1-.56,1.13,1,1,0,0,1-.78.41,1.05,1.05,0,0,1-.79-.41,2.8,2.8,0,0,1-.56-1.14,6.45,6.45,0,0,1-.2-1.68,6.15,6.15,0,0,1,.2-1.64,2.8,2.8,0,0,1,.56-1.13,1,1,0,0,1,.79-.41,1,1,0,0,1,.78.41,2.86,2.86,0,0,1,.56,1.13A6.31,6.31,0,0,1,17.12,32.55Zm-.59,0a7.43,7.43,0,0,0-.25-2.16c-.16-.51-.4-.77-.7-.77s-.54.26-.71.78a7.36,7.36,0,0,0-.25,2.15,7.28,7.28,0,0,0,.25,2.15q.25.77.71.77c.3,0,.54-.25.7-.76A7.34,7.34,0,0,0,16.53,32.55Z"/><path d="M19.13,27.64V23.42c0-.14,0-.21-.06-.21l-.1,0a1.32,1.32,0,0,1-.5.17v-.18a3.28,3.28,0,0,0,1-1h.13v5.43a1.12,1.12,0,0,0,.09.55c.06.08.18.13.37.13v.16H18.67v-.16c.19,0,.32,0,.37-.13A1.14,1.14,0,0,0,19.13,27.64Z"/><path d="M20.85,27.64V23.42c0-.14,0-.21-.07-.21l-.1,0a1.32,1.32,0,0,1-.5.17v-.18a3.31,3.31,0,0,0,1-1h.13v5.43a1.12,1.12,0,0,0,.08.55c.06.08.18.13.37.13v.16H20.39v-.16c.19,0,.32,0,.37-.13A1.14,1.14,0,0,0,20.85,27.64Z"/><path d="M38.67,27.8V23.59c0-.14,0-.21-.06-.21l-.1,0a1.31,1.31,0,0,1-.51.17v-.18a3.3,3.3,0,0,0,1-1h.13V27.8a1.13,1.13,0,0,0,.08.55c.06.08.18.13.37.13v.16H38.21v-.16c.19,0,.32,0,.37-.13A1.12,1.12,0,0,0,38.67,27.8Z"/><path d="M35.4,44.7a1.22,1.22,0,1,0,1.72-.1A1.22,1.22,0,0,0,35.4,44.7Zm1.66,1.52A1,1,0,1,1,37,44.76,1,1,0,0,1,37.07,46.23Z"/><path d="M21.42,45c-.11.37-.28.58.06.78a3.3,3.3,0,0,0-.63.54,2.52,2.52,0,0,0-.24.31,1.34,1.34,0,0,0-.22,1.15v0c.17.46.65.54,1.14.4a2.29,2.29,0,0,0,1-.6,1.07,1.07,0,0,0,.35-1,.5.5,0,0,0-.7-.34,1.54,1.54,0,0,0-.53.29,1.39,1.39,0,0,0-.37.43.41.41,0,0,0-.05.27.22.22,0,0,0,0,.08c.08.18.33.19.57,0a.6.6,0,0,0,.3-.63.23.23,0,0,0-.15-.13l.16-.07a.33.33,0,0,1,.45.25.74.74,0,0,1-.24.71,1.73,1.73,0,0,1-.35.28,1.82,1.82,0,0,1-.42.18c-.39.11-.78,0-.91-.31v0a1.05,1.05,0,0,1,.17-.91,2.55,2.55,0,0,1,.72-.7l0,0a2.54,2.54,0,0,1,.39-.2,4.22,4.22,0,0,0,2.1,0,.66.66,0,0,1,.76.48c.14-.38.31-.57,0-.8a3.23,3.23,0,0,0,.65-.51,2.58,2.58,0,0,0,.26-.3,1.47,1.47,0,0,0,.31-1.17v0c-.12-.49-.58-.61-1.07-.5a2.05,2.05,0,0,0-.53.2,2.18,2.18,0,0,0-.48.34,1.15,1.15,0,0,0-.42,1,.48.48,0,0,0,.64.4,1.48,1.48,0,0,0,.53-.26,1.43,1.43,0,0,0,.39-.42A.46.46,0,0,0,25.2,44a.25.25,0,0,0,0-.09c-.06-.19-.31-.22-.55-.06a.63.63,0,0,0-.33.62.22.22,0,0,0,.13.14l-.16.06a.32.32,0,0,1-.42-.29.8.8,0,0,1,.29-.72,1.7,1.7,0,0,1,.79-.42c.39-.09.75,0,.85.39v0a1.15,1.15,0,0,1-.23.93,2.58,2.58,0,0,1-.75.67l0,0-.11.06a4.68,4.68,0,0,0-2.4.07.61.61,0,0,1-.29,0l-.17-.06h0A.82.82,0,0,1,21.42,45Zm2.65.54a3.83,3.83,0,0,1-1.47,0A4.42,4.42,0,0,1,24.07,45.51Z"/><path class="cls-2" d="M25.4,43.66a.25.25,0,0,1,0-.34l6.27-5.86a.25.25,0,0,1,.34.06h0a.25.25,0,0,1,0,.34l-6.27,5.86a.25.25,0,0,1-.34-.07Z"/><path class="cls-2" d="M16.36,52.12c-.11-.11-.14-.25-.09-.3l4.4-4.11c.06-.05.19,0,.29.11h0c.11.11.14.25.09.3l-4.4,4.11c-.06.05-.19,0-.29-.11Z"/><path d="M23.25,31.39c-.38-.1-.58-.26-.77.08a3.36,3.36,0,0,0-.55-.62,2.43,2.43,0,0,0-.32-.23,1.35,1.35,0,0,0-1.16-.2l0,0c-.46.18-.53.66-.37,1.15a2.29,2.29,0,0,0,.62,1,1.07,1.07,0,0,0,1,.33.5.5,0,0,0,.33-.7,1.56,1.56,0,0,0-.3-.52,1.4,1.4,0,0,0-.44-.36.42.42,0,0,0-.27,0l-.08,0c-.18.08-.18.34,0,.58a.59.59,0,0,0,.63.28.23.23,0,0,0,.13-.15.89.89,0,0,1,.07.16.33.33,0,0,1-.24.46.74.74,0,0,1-.72-.22A1.71,1.71,0,0,1,20.5,32a1.81,1.81,0,0,1-.19-.42c-.12-.39-.07-.77.29-.91h0a1.06,1.06,0,0,1,.92.15,2.55,2.55,0,0,1,.71.71l0,0a2.56,2.56,0,0,1,.21.38,4.23,4.23,0,0,0,0,2.1.66.66,0,0,1-.46.77c.38.13.58.3.8,0a3.23,3.23,0,0,0,.52.64,2.52,2.52,0,0,0,.31.25,1.47,1.47,0,0,0,1.18.28h0c.48-.14.59-.6.47-1.08a2.08,2.08,0,0,0-.21-.52,2.21,2.21,0,0,0-.35-.47,1.15,1.15,0,0,0-1-.4.48.48,0,0,0-.39.65,1.46,1.46,0,0,0,.27.53,1.4,1.4,0,0,0,.43.38.45.45,0,0,0,.27.07l.09,0c.19-.06.21-.31.05-.55a.63.63,0,0,0-.63-.32.23.23,0,0,0-.14.13.83.83,0,0,1-.06-.16.32.32,0,0,1,.28-.42.8.8,0,0,1,.73.27,1.64,1.64,0,0,1,.27.36,1.61,1.61,0,0,1,.17.42c.09.39,0,.75-.37.86h0a1.15,1.15,0,0,1-.93-.21,2.56,2.56,0,0,1-.68-.74l0,0L23,34.62a4.67,4.67,0,0,0-.13-2.4.62.62,0,0,1,0-.29l.06-.17h0A.83.83,0,0,1,23.25,31.39Zm-.47,2.66a3.8,3.8,0,0,1-.08-1.47A4.44,4.44,0,0,1,22.77,34.05Z"/><path class="cls-2" d="M24.65,35.34a.25.25,0,0,1,.34-.05l6,6.13a.25.25,0,0,1-.06.34h0a.25.25,0,0,1-.34.05l-6-6.13a.25.25,0,0,1,.06-.34Z"/><path class="cls-2" d="M17.74,28.28c.11-.11.23-.17.26-.13l2.54,2.59s0,.15-.14.26h0c-.11.11-.23.17-.26.13L17.6,28.54s0-.15.14-.26Z"/></g></g></svg>