<svg xmlns="http://www.w3.org/2000/svg" viewBox="0 0 138.45 120.99"><defs><style>.cls-1{fill:#d27316;}.cls-2{fill:#fff5a8;}.cls-3{fill:#fff8c4;}.cls-4{fill:#681e74;}.cls-5{fill:#4f0f58;}.cls-6{fill:#1e1e1c;}</style></defs><title>Ресурс 8clock2</title><g id="Слой_2" data-name="Слой 2"><g id="Layer_2" data-name="Layer 2"><path class="cls-1" d="M64.49,11.13a5.28,5.28,0,0,0-.19,1.67,6.81,6.81,0,0,0,.26,1.48,92.82,92.82,0,0,1,9.33,0,8.1,8.1,0,0,0,.23-1.57,6.81,6.81,0,0,0-.28-1.53Z"/><path class="cls-1" d="M64.49,11.13H64a6.46,6.46,0,0,0,0,3.18l.56,0a6.81,6.81,0,0,1-.26-1.48A5.28,5.28,0,0,1,64.49,11.13Z"/><path class="cls-1" d="M73.85,11.13a6.81,6.81,0,0,1,.28,1.53,8.1,8.1,0,0,1-.23,1.57l.54,0a6.44,6.44,0,0,0,0-3.12Z"/><path class="cls-1" d="M104.2,103.76q-4.76,2.56-9.66,4.84a27.59,27.59,0,0,0,2.6,6.88c.65,1.25,2.21,5.09,3.66,5.09h10.4c.44-3.82-1-7.19-2.68-10.58A25.89,25.89,0,0,0,104.2,103.76Z"/><path class="cls-1" d="M104.59,103.55l-.39.21a25.89,25.89,0,0,1,4.32,6.23c1.67,3.39,3.11,6.76,2.68,10.58h-10.4c-1.44,0-3-3.84-3.66-5.09a27.59,27.59,0,0,1-2.6-6.88l-.37.17a28.55,28.55,0,0,0,2.5,6.82,26.88,26.88,0,0,0,3.37,5.18h11.63c.55-3.38-.35-6.26-2.68-10.89A25.61,25.61,0,0,0,104.59,103.55Z"/><path class="cls-1" d="M29.93,109.88c-1.36,2.75-2.91,5.82-2.82,9,0,.69-.43,1.71.19,1.71H38.48c-.43,0,.93-1.78,1-1.82.5-.76,1-1.52,1.41-2.32a32.86,32.86,0,0,0,2.2-5c.18-.54.35-1.12.52-1.72q-5-2.44-9.85-5.2A30.34,30.34,0,0,0,29.93,109.88Z"/><path class="cls-1" d="M43,111.46a32.86,32.86,0,0,1-2.2,5c-.42.8-.92,1.56-1.41,2.32,0,0-1.39,1.82-1,1.82H27.3c-.62,0-.17-1-.19-1.71-.09-3.16,1.46-6.23,2.82-9a30.34,30.34,0,0,1,3.78-5.35l-.51-.29a26.48,26.48,0,0,0-3.76,5.64c-2.33,4.64-3.23,7.52-2.68,10.89H38.4a26.88,26.88,0,0,0,3.37-5.18A30.76,30.76,0,0,0,44,109.95l-.43-.21C43.4,110.34,43.22,110.92,43,111.46Z"/><path class="cls-1" d="M33.62,94.39c-.58-.37-1.15-.74-1.71-1.13C32.47,93.65,33,94,33.62,94.39Z"/><path class="cls-1" d="M86.2,21.85l1.74.45Z"/><path class="cls-1" d="M36.28,96l-.12-.07Z"/><path class="cls-1" d="M88.76,22.53,90.3,23Z"/><path class="cls-1" d="M35.21,95.35c-.43-.25-.87-.5-1.29-.77C34.35,94.85,34.78,95.1,35.21,95.35Z"/><path class="cls-1" d="M91.34,23.32l1.13.39Z"/><path class="cls-1" d="M79.22,20.53l.95.13Z"/><path class="cls-1" d="M83.68,21.29l1.76.38Z"/><path class="cls-1" d="M94.41,24.42l-.48-.19Z"/><path class="cls-1" d="M81.26,20.84l1.58.28Z"/><path class="cls-1" d="M31.6,93q-.77-.54-1.52-1.1C30.58,92.32,31.09,92.69,31.6,93Z"/><path class="cls-1" d="M29.06,91.15l-.61-.49Z"/><path class="cls-1" d="M86.3,16.24c-23.92-4.46-51.87.07-70.08,17.26C8.7,40.58,3,49.8,1.49,60.14.27,68.29,1.72,75.36,6.7,82,16.77,95.46,33.07,104.19,48,111a165.48,165.48,0,0,0,17.5,7,17.26,17.26,0,0,0,3.24,1l.45-.22c.47-.24,1-.45,1.45-.65,12.5-5.25,25.08-10.12,36.87-16.91,12.33-7.1,29.73-18.28,29.89-34.39C137.26,39,111.46,20.93,86.3,16.24Zm5.43,84.51c-21.12,6.91-47.38,4.08-64.51-10.95-7.26-6.37-12.86-15-13.68-24.86A35.38,35.38,0,0,1,22.7,38.57c15.55-17.47,41.93-22.1,63.9-16.73,18.94,4.63,38.23,19.1,38.43,40.24C124.86,81.18,108.75,95.18,91.73,100.75Z"/><path class="cls-1" d="M73.79,14.55l.56,0c0-.11.06-.22.08-.33l-.54,0C73.87,14.34,73.83,14.45,73.79,14.55Z"/><path class="cls-1" d="M64,14.31c0,.09,0,.18.07.28l.57,0c0-.09-.06-.19-.08-.28Z"/><path class="cls-1" d="M94.11,108.52l.05.26.37-.17c0-.09,0-.17-.06-.26Z"/><path class="cls-1" d="M104,103.55l.2.21.39-.21-.2-.21Z"/><path class="cls-1" d="M33.21,104.24l.51.29.25-.28-.51-.29Z"/><path class="cls-1" d="M43.56,109.74l.43.21c0-.14.08-.28.11-.42l-.43-.21Z"/><path class="cls-1" d="M74.8,14.61l-.45,0-.56,0c0-.11.07-.21.1-.32a92.82,92.82,0,0,0-9.33,0c0,.09.05.19.08.28l-.57,0-.5,0C28.26,16.71.48,38.35.48,66.82c0,14.46,16,27.47,32.57,36.92l.4.23.51.29-.25.28q4.83,2.75,9.85,5.2l.11-.42.43.21.42.2c13.42,6.43,24.69,10,24.69,9.49S80.34,115,93.64,108.74l.47-.22.37-.17c0,.09,0,.17.06.26q4.89-2.3,9.66-4.84l-.2-.21.39-.21.48-.26C121.61,93.95,138,81.44,138,66.82,138,38.33,110.15,16.69,74.8,14.61Zm32.76,86.65c-11.79,6.79-24.37,11.66-36.87,16.91-.49.21-1,.41-1.45.65l-.45.22a17.26,17.26,0,0,1-3.24-1A165.48,165.48,0,0,1,48,111c-15-6.86-31.28-15.58-41.35-29-5-6.65-6.43-13.72-5.21-21.88C3,49.8,8.7,40.58,16.21,33.49,34.43,16.3,62.38,11.78,86.3,16.24c25.16,4.69,51,22.75,51.16,50.64C137.29,83,119.89,94.16,107.56,101.26Z"/><path class="cls-2" d="M109,89.06l.11.07q1.64-1.41,3.11-2.94l-.1-.05Q110.66,87.65,109,89.06Z"/><path class="cls-2" d="M75.12,102.49v.09q2.56-.21,5-.61l0-.11Q77.67,102.27,75.12,102.49Z"/><path class="cls-2" d="M115.49,82.22l.07,0a37.81,37.81,0,0,0,2.22-3.34h0A38.62,38.62,0,0,1,115.49,82.22Z"/><path class="cls-2" d="M86,100.64l.05.12q2.42-.61,4.73-1.39l-.07-.12Q88.43,100,86,100.64Z"/><path class="cls-2" d="M118,78.47c.45-.78.87-1.58,1.25-2.39-.4.8-.83,1.59-1.29,2.37Z"/><path class="cls-2" d="M112.48,85.76l.1.05a41.31,41.31,0,0,0,2.68-3.16l-.07,0Q113.92,84.24,112.48,85.76Z"/><path class="cls-2" d="M80.64,101.78l0,.11q2.5-.42,4.91-1l-.05-.12Q83.13,101.36,80.64,101.78Z"/><path class="cls-2" d="M58.63,102h0Z"/><path class="cls-2" d="M63.43,102.58v0q-1.36-.11-2.7-.26Q62.07,102.46,63.43,102.58Z"/><path class="cls-2" d="M63.94,102.59v0q2.52.19,5.1.2v-.05h-.12C67.23,102.77,65.58,102.71,63.94,102.59Z"/><path class="cls-2" d="M105.11,92.07l.11.09c.57-.4,1.14-.81,1.69-1.23s1.23-1,1.82-1.46l-.12-.08Q106.94,90.79,105.11,92.07Z"/><path class="cls-2" d="M91.21,99.07l.07.12q2.31-.8,4.5-1.76l-.09-.12Q93.51,98.27,91.21,99.07Z"/><path class="cls-2" d="M96.16,97.1l.09.12q2.17-1,4.21-2.1l-.11-.11Q98.33,96.13,96.16,97.1Z"/><path class="cls-2" d="M100.81,94.76l.11.11q2-1.14,3.87-2.41l-.12-.1Q102.81,93.63,100.81,94.76Z"/><path class="cls-2" d="M69.53,102.76v.06q2.58,0,5.1-.2v-.08Q72.11,102.74,69.53,102.76Z"/><path class="cls-2" d="M94.41,24.42l-.48-.19-1.46-.53-1.13-.39-1-.33-1.54-.46-.82-.23-1.74-.45-.76-.18-1.76-.38-.85-.17-1.58-.28-1.09-.18-.95-.13A70.89,70.89,0,0,0,44.4,24.45C34,28.49,24.13,35.3,18.54,45.15a33.41,33.41,0,0,0-2.33,29A41.55,41.55,0,0,0,28.45,90.66l.61.49,1,.8q.74.56,1.52,1.1l.3.21c.56.39,1.13.76,1.71,1.13l.31.2c.42.26.86.51,1.29.77l.94.55.13.07c12.85,7.12,29,9.4,42.87,7.4,21.28-3.07,45.19-17.45,45.41-41.43a35.51,35.51,0,0,0-8.86-22.82A53.65,53.65,0,0,0,94.41,24.42Zm27.34,29.22h.08l.08.49h0a32.13,32.13,0,0,1,.75,3.71h.09l0,.5h-.06a31.87,31.87,0,0,1,.25,3.74h.1v.5h-.1a31.94,31.94,0,0,1-.25,3.74h.06l0,.5h-.09a32,32,0,0,1-.75,3.71h0l-.08.49h-.09a33.27,33.27,0,0,1-1.29,3.72l-.1.4-.07,0a35.54,35.54,0,0,1-1.9,3.78l-.07.2h0a38.4,38.4,0,0,1-2.51,3.75l0,0h0a44.71,44.71,0,0,1-8.51,8.47c-9.72,7.42-23.12,12-37.93,12s-28.21-4.58-37.93-12a44.86,44.86,0,0,1-8.29-8.18,34.2,34.2,0,0,1-8-21.56c0-22.74,24.09-41.17,53.81-41.17,25.38,0,46.64,13.44,52.31,31.53C121.42,52.51,121.58,53.08,121.74,53.64Z"/><path class="cls-1" d="M86.61,21.84c-22-5.37-48.35-.74-63.9,16.73a35.38,35.38,0,0,0-9.16,26.38C14.35,74.77,20,83.43,27.21,89.8c17.13,15,43.39,17.86,64.51,10.95,17-5.57,33.13-19.57,33.31-38.67C124.84,40.94,105.55,26.47,86.61,21.84ZM69.22,104.18A67.72,67.72,0,0,1,36.28,96l-.12-.07-.94-.55c-.43-.25-.86-.5-1.29-.77l-.31-.2c-.58-.37-1.15-.74-1.71-1.13L31.6,93c-.51-.36-1-.72-1.52-1.1s-.68-.53-1-.8l-.61-.49C19.26,83.13,13.64,73.07,13.64,62c0-23.29,24.88-42.17,55.58-42.17a73.17,73.17,0,0,1,10,.7l.95.13,1.09.18,1.58.28.85.17,1.76.38.76.18,1.74.45.82.23L90.3,23l1,.33,1.13.39,1.46.53.48.19c18,7,30.39,21.18,30.39,37.58C124.79,85.3,99.91,104.18,69.22,104.18Z"/><path class="cls-2" d="M13.64,62c0,11.06,5.62,21.13,14.81,28.65A41.55,41.55,0,0,1,16.21,74.18a33.41,33.41,0,0,1,2.33-29C24.13,35.3,34,28.49,44.4,24.45a70.89,70.89,0,0,1,34.83-3.92,73.17,73.17,0,0,0-10-.7C38.52,19.84,13.64,38.72,13.64,62Z"/><path class="cls-2" d="M30.09,91.95l-1-.8C29.4,91.41,29.74,91.69,30.09,91.95Z"/><path class="cls-2" d="M92.47,23.71l1.46.53Z"/><path class="cls-2" d="M82.84,21.12l.85.17Z"/><path class="cls-2" d="M80.17,20.66l1.09.18Z"/><path class="cls-2" d="M90.3,23l1,.33Z"/><path class="cls-2" d="M85.44,21.67l.76.18Z"/><path class="cls-2" d="M31.9,93.26,31.6,93Z"/><path class="cls-2" d="M87.94,22.3l.82.23Z"/><path class="cls-2" d="M94.41,24.42a53.65,53.65,0,0,1,21.29,14.69,35.51,35.51,0,0,1,8.86,22.82c-.22,24-24.13,38.36-45.41,41.43-13.88,2-30-.28-42.87-7.4a67.72,67.72,0,0,0,32.94,8.21c30.7,0,55.58-18.88,55.58-42.17C124.79,45.6,112.44,31.39,94.41,24.42Z"/><path class="cls-2" d="M36.15,95.9l-.94-.55Z"/><path class="cls-2" d="M33.93,94.58l-.31-.2Z"/><path class="cls-1" d="M66.59.72c-4.67,1-9.78,4.67-9.69,10H81.54v0C81.28,3.34,73.23-.72,66.59.72Z"/><path class="cls-1" d="M69.22.23C62.14.23,56.41,5,56.41,10.77v.13h8.15c0,.08-.05.15-.07.22h9.36l-.06-.22H82v-.13C82,5,76.29.23,69.22.23ZM81.54,10.68H56.91c-.09-5.29,5-8.94,9.69-10,6.64-1.45,14.69,2.61,14.94,9.94Z"/><path class="cls-1" d="M73.79,10.9l.06.22h.57c0-.07,0-.15-.06-.22Z"/><path class="cls-1" d="M64,11.13h.48c0-.08.05-.15.07-.22h-.5C64,11,64,11.05,64,11.13Z"/><path class="cls-3" d="M38.1,29.49l1.7,1.78-.36.35-1.8-1.87q-2,1.14-3.88,2.42l1.91,1.61-.32.38-2-1.7c-.57.4-1.13.8-1.68,1.22s-1.24,1-1.83,1.47l2.09,1.43-.28.41-2.2-1.5q-1.64,1.41-3.11,2.94l2.24,1.23-.24.44L26,38.8A41.17,41.17,0,0,0,23.29,42l4.92,2.38a39.47,39.47,0,0,1,7.63-7.54,48.64,48.64,0,0,1,9.53-5.57l-3.05-3.86Q40.14,28.37,38.1,29.49Z"/><path class="cls-3" d="M122.45,62.07a31.39,31.39,0,0,0-.25-3.7l-2.69.21,0-.5,2.66-.21a31.67,31.67,0,0,0-.74-3.67l-2.68.43-.08-.49,2.62-.42a32.84,32.84,0,0,0-1.24-3.6l-2.64.65-.12-.49,2.56-.63a34.94,34.94,0,0,0-1.74-3.49l-2.58.87-.16-.47,2.48-.83a38.07,38.07,0,0,0-2.22-3.35l-4.77,2a28.66,28.66,0,0,1,.1,35.89l4.57,2a38.62,38.62,0,0,0,2.26-3.32l-2.43-.82.16-.47,2.53.85c.46-.78.89-1.57,1.29-2.37.17-.36.33-.73.49-1.1l-2.55-.63.12-.49,2.64.65a32.82,32.82,0,0,0,1.25-3.6l-2.62-.42.08-.49,2.68.43a31.63,31.63,0,0,0,.74-3.67l-2.65-.21,0-.5,2.69.21a31.36,31.36,0,0,0,.25-3.7h-5v-.5Z"/><path class="cls-3" d="M35.45,44.74c-.91,0-1.22,1.17-1.22,2.58s.31,2.58,1.22,2.58,1.21-1.18,1.21-2.58S36.35,44.74,35.45,44.74Z"/><path class="cls-3" d="M32.64,78.21a1.11,1.11,0,0,0-1.17,1.21,1.18,1.18,0,1,0,2.33,0A1.11,1.11,0,0,0,32.64,78.21Z"/><path class="cls-3" d="M32.64,75.5a1,1,0,1,0,1,1A.94.94,0,0,0,32.64,75.5Z"/><path class="cls-3" d="M120.45,49.89c.28.68.54,1.37.78,2.06-.25-.8-.54-1.59-.86-2.37Z"/><path class="cls-3" d="M22.84,82.86h0l.23.3Z"/><polygon class="cls-3" points="22.83 82.86 22.83 82.85 22.83 82.86 22.83 82.86"/><path class="cls-3" d="M120.35,49.52l0,.05v-.06Z"/><path class="cls-3" d="M68.91,20.43C39.19,20.43,15.1,38.86,15.1,61.6a34.11,34.11,0,0,0,7.73,21.25v0a38.35,38.35,0,0,1-2.53-3.77h0l0-.14a35.6,35.6,0,0,1-1.93-3.83h-.06l-.08-.32A33.42,33.42,0,0,1,16.83,71h-.08l-.08-.49h0a32.1,32.1,0,0,1-.75-3.71h-.09l0-.5h.06a31.83,31.83,0,0,1-.25-3.74h-.08v-.5h.08a31.79,31.79,0,0,1,.25-3.74h-.05l0-.5h.08a32.11,32.11,0,0,1,.75-3.71h0l.08-.49h.07a33.31,33.31,0,0,1,1.34-3.84l.07-.27h0a35.5,35.5,0,0,1,2-3.9l0-.08h0A42.82,42.82,0,0,1,31.36,33.27c9.72-7.41,23.12-12,37.93-12s28.21,4.58,37.93,12a44.69,44.69,0,0,1,8.54,8.5h0v0a38.33,38.33,0,0,1,2.51,3.76h0l.06.19a35.55,35.55,0,0,1,1.9,3.8h.06C113.6,32.68,93.14,20.43,68.91,20.43Z"/><path class="cls-3" d="M16.12,62.56a31.36,31.36,0,0,0,.25,3.7l2.7-.22,0,.5-2.67.21a31.56,31.56,0,0,0,.74,3.67l2.7-.43.08.49-2.63.42a33,33,0,0,0,1.25,3.6l2.65-.65.12.49L18.78,75a35.15,35.15,0,0,0,1.74,3.48l2.58-.86.16.47-2.48.83A37.87,37.87,0,0,0,23,82.25l5.11-2a29.55,29.55,0,0,1-6.26-17.7Z"/><path class="cls-3" d="M20.78,45.72l2.49.84L23.1,47l-2.59-.87a35,35,0,0,0-1.74,3.49l2.57.63-.12.49-2.66-.65a32.84,32.84,0,0,0-1.24,3.59l2.63.42-.08.49-2.7-.44a31.69,31.69,0,0,0-.74,3.67l2.67.21,0,.5-2.7-.22a31.34,31.34,0,0,0-.25,3.7h5.74a29.49,29.49,0,0,1,6-17.29L23,42.39A38,38,0,0,0,20.78,45.72Z"/><path class="cls-3" d="M103.19,87.91c-8.62,6.52-20.52,10.54-33.65,10.55v4.3q2.58,0,5.09-.22l-.32-2.24.5-.07.32,2.26q2.55-.22,5-.62l-.61-2.16.48-.13.62,2.21q2.49-.42,4.89-1l-.88-2.06.46-.2.91,2.13q2.41-.62,4.71-1.4L89.6,97.3l.43-.25,1.19,2q2.3-.8,4.48-1.76l-2.58-3.39.4-.3,2.65,3.49q2.16-1,4.19-2.09l-1.58-1.65.36-.35,1.67,1.74q2-1.13,3.86-2.4l-1.77-1.49.32-.38,1.89,1.59q1.83-1.27,3.51-2.68l-2-1.34.28-.41L109,89.06q1.64-1.4,3.12-2.92L110,85l.24-.44,2.24,1.23q1.44-1.52,2.7-3.13l-4.58-2A39.65,39.65,0,0,1,103.19,87.91Z"/><path class="cls-3" d="M102.89,37.22c-8.53-6.45-20.34-10.45-33.38-10.45s-24.84,4-33.37,10.45S22.35,52.56,22.35,62.37,27.6,81.06,36.14,87.52,56.47,98,69.51,98s24.85-4,33.38-10.45,13.79-15.34,13.79-25.15S111.42,43.67,102.89,37.22ZM90.2,33.59h.16a1.29,1.29,0,0,0,1.34-1.11h.52v6.2h-.75V34H90.2Zm-24-4.92h.17a1.29,1.29,0,0,0,1.33-1.11h.53v6.2h-.75V29.11H66.16ZM50,33.68h.17a1.28,1.28,0,0,0,1.33-1.11h.53v6.2h-.75V34.11H50Zm-3.84,0h.17a1.29,1.29,0,0,0,1.34-1.11h.53v6.2h-.75V34.11H46.21ZM25.8,65.3a1.65,1.65,0,0,1-1.73-1.55h.67a1,1,0,0,0,1.07.89c1.17,0,1.37-1.32,1.36-2.29h0a1.58,1.58,0,0,1-1.36.65A1.84,1.84,0,0,1,24,60.91a1.93,1.93,0,0,1,1.92-2.19c1,0,2,.38,2,3.2S26.67,65.3,25.8,65.3Zm4.54-20h.17a1.28,1.28,0,0,0,1.33-1.1h.53v6.2h-.75V45.77H30.33Zm2.31,36.07a1.78,1.78,0,0,1-1.89-1.94,1.62,1.62,0,0,1,1-1.6A1.42,1.42,0,0,1,31,76.5a1.68,1.68,0,0,1,3.36,0,1.42,1.42,0,0,1-.81,1.36,1.61,1.61,0,0,1,1,1.6A1.77,1.77,0,0,1,32.64,81.41Zm2.81-30.8c-.41,0-2-.11-2-3.28S35,44,35.45,44s2,.11,2,3.28S35.86,50.61,35.45,50.61ZM50,87.1a9,9,0,0,0-1.55,2.78,10.81,10.81,0,0,0-.61,2.85h-.8A11.29,11.29,0,0,1,47.72,90a9.91,9.91,0,0,1,1.56-2.72H45.93v-.7H50Zm19.21,9.76c-1.23,0-2-.72-2-3.21,0-3.31,1.61-3.36,2.11-3.36a1.65,1.65,0,0,1,1.73,1.55H70.4A1,1,0,0,0,69.33,91C68.16,91,68,92.28,68,93.25h0a1.6,1.6,0,0,1,1.37-.65,1.84,1.84,0,0,1,1.8,2.08A1.93,1.93,0,0,1,69.22,96.87Zm.94-33.25L42.83,61.79l23-1.69L56,50.57l14.55,8.52.14.74a2,2,0,0,1,1.66,1.9A2,2,0,0,1,70.17,63.61Zm3-30.55v.7H69.41c0-1.5.81-2.06,1.89-2.82a2,2,0,0,0,1.14-1.67,1.07,1.07,0,0,0-1.12-1.19,1.13,1.13,0,0,0-1.16,1.23v.23h-.73v-.18a1.83,1.83,0,0,1,1.92-2,1.73,1.73,0,0,1,1.87,1.87c0,1.16-.5,1.53-1.8,2.45-.76.53-1.07.9-1.17,1.36ZM91.58,92.39a1.78,1.78,0,0,1-1.89-1.77h.74a1.13,1.13,0,0,0,1.15,1.11c.37,0,1.3-.08,1.3-1.53,0-1.1-.63-1.46-1.23-1.46a1.33,1.33,0,0,0-1.09.54h-.71L90.25,86h3v.7H90.8l-.22,1.83a1.7,1.7,0,0,1,1.26-.47c1,0,1.75.8,1.75,2.11A1.94,1.94,0,0,1,91.58,92.39Zm23-29.63H114v-.67h.23A1.06,1.06,0,0,0,115.4,61,1,1,0,0,0,114.3,60c-.26,0-1.1,0-1.09,1.41h-.69a1.8,1.8,0,0,1,1.81-2.08A1.62,1.62,0,0,1,116.1,61a1.38,1.38,0,0,1-.92,1.37v0a1.43,1.43,0,0,1,1.08,1.56,1.8,1.8,0,0,1-1.92,1.91,1.87,1.87,0,0,1-2-2.07h.72l0,.2a1.2,1.2,0,0,0,1.17,1.2,1.18,1.18,0,0,0,1.27-1.31A1,1,0,0,0,114.53,62.76Zm-5,16.17h-.88v1.43h-.75V78.94h-2.64v-.7l2.63-4.06h.76v4.06h.88Zm-.87-33.78c0,1.16-.49,1.53-1.8,2.45-.76.53-1.07.9-1.18,1.35h3v.7h-3.79c0-1.5.81-2.06,1.89-2.82a2,2,0,0,0,1.14-1.67A1.07,1.07,0,0,0,106.75,44a1.13,1.13,0,0,0-1.16,1.23v.23h-.73v-.18a1.82,1.82,0,0,1,1.92-2A1.73,1.73,0,0,1,108.64,45.16Z"/><path class="cls-3" d="M25.87,59.39c-.82,0-1.17.75-1.17,1.53s.39,1.41,1.18,1.41,1.23-.59,1.23-1.44S26.72,59.39,25.87,59.39Z"/><path class="cls-3" d="M69.24,93.26c-.78,0-1.23.58-1.23,1.44s.39,1.5,1.25,1.5,1.16-.75,1.16-1.53S70,93.26,69.24,93.26Z"/><path class="cls-3" d="M42.77,97.42q2.19,1,4.5,1.77L48.54,97l.43.26-1.22,2.05q2.31.78,4.74,1.4l1-2.25.46.2L53,100.88q2.41.59,4.91,1l.65-2.32.48.13L58.39,102l.16,0h.08c.7.11,1.4.2,2.1.29q1.34.16,2.7.26l.32-2.33.5.07-.32,2.29c1.64.11,3.3.18,5,.18H69V98.46a59.38,59.38,0,0,1-23.57-4.92Z"/><path class="cls-3" d="M110.25,40.11l-.24-.44,2.23-1.23q-1.46-1.53-3.1-2.94L107,37l-.28-.41,2.09-1.42q-.9-.76-1.85-1.49c-.54-.41-1.09-.81-1.66-1.21l-2,1.69-.32-.38,1.91-1.6q-1.86-1.28-3.87-2.42l-1.8,1.87-.36-.35,1.7-1.77q-2-1.13-4.21-2.11L93.17,31a48.86,48.86,0,0,1,10,5.78,39.69,39.69,0,0,1,7.31,7.12l4.77-2a41.18,41.18,0,0,0-2.67-3.15Z"/><polygon class="cls-3" points="107.88 78.24 107.88 75.26 105.96 78.24 107.88 78.24"/><path class="cls-3" d="M91.32,25.43l-1.27,2.16-.43-.25,1.22-2.07q-2.31-.78-4.73-1.4l-1,2.26-.46-.2.95-2.19q-2.41-.59-4.92-1L80,25.06l-.48-.14.64-2.28q-2.48-.39-5-.61l-.33,2.36-.5-.07L74.66,22q-2.53-.19-5.12-.2v4.49H69V21.79q-2.58,0-5.1.2l.32,2.34-.5.07L63.44,22q-2.56.21-5,.61L59,24.92l-.48.13-.65-2.33q-2.51.42-4.92,1l.95,2.19-.46.2-1-2.26q-2.42.61-4.74,1.4L49,27.33l-.43.25-1.27-2.16q-2.31.8-4.49,1.76L45.83,31a61.16,61.16,0,0,1,47.06-.13l-.16-.13,3.07-3.59Q93.62,26.23,91.32,25.43Z"/><path class="cls-3" d="M28.43,80.67l-5.11,2A41.18,41.18,0,0,0,26,85.81l2.35-1.29.24.44-2.24,1.23q1.46,1.52,3.1,2.94l2.2-1.49.28.41-2.09,1.42q.89.75,1.83,1.47c.55.42,1.11.83,1.69,1.23l2-1.69.32.38-1.9,1.6q1.86,1.27,3.88,2.42L39.43,93l.36.35L38.1,95.12q2,1.12,4.2,2.1L45,93.33a48.53,48.53,0,0,1-9.16-5.41A39.64,39.64,0,0,1,28.43,80.67Z"/><path class="cls-3" d="M66.32,28.68h-.17v.43h1.27v4.65h.75v-6.2h-.53A1.29,1.29,0,0,1,66.32,28.68Z"/><path class="cls-4" d="M66.32,28.68h-.17v.43h1.27v4.65h.75v-6.2h-.53A1.29,1.29,0,0,1,66.32,28.68Z"/><path class="cls-3" d="M71.41,31.71c1.3-.92,1.8-1.29,1.8-2.45a1.73,1.73,0,0,0-1.87-1.87,1.83,1.83,0,0,0-1.92,2v.18h.73v-.23a1.13,1.13,0,0,1,1.16-1.23,1.07,1.07,0,0,1,1.13,1.19,2,2,0,0,1-1.14,1.67c-1.08.76-1.9,1.33-1.89,2.82H73.2v-.7h-3C70.34,32.61,70.65,32.24,71.41,31.71Z"/><path class="cls-4" d="M71.41,31.71c1.3-.92,1.8-1.29,1.8-2.45a1.73,1.73,0,0,0-1.87-1.87,1.83,1.83,0,0,0-1.92,2v.18h.73v-.23a1.13,1.13,0,0,1,1.16-1.23,1.07,1.07,0,0,1,1.13,1.19,2,2,0,0,1-1.14,1.67c-1.08.76-1.9,1.33-1.89,2.82H73.2v-.7h-3C70.34,32.61,70.65,32.24,71.41,31.71Z"/><path class="cls-3" d="M46.37,33.68h-.17v.43h1.28v4.65h.75v-6.2h-.53A1.29,1.29,0,0,1,46.37,33.68Z"/><path class="cls-4" d="M46.37,33.68h-.17v.43h1.28v4.65h.75v-6.2h-.53A1.29,1.29,0,0,1,46.37,33.68Z"/><path class="cls-3" d="M50.21,33.68H50v.43h1.28v4.65h.75v-6.2h-.53A1.28,1.28,0,0,1,50.21,33.68Z"/><path class="cls-4" d="M50.21,33.68H50v.43h1.28v4.65h.75v-6.2h-.53A1.28,1.28,0,0,1,50.21,33.68Z"/><path class="cls-3" d="M30.5,45.33h-.17v.44h1.28v4.66h.75v-6.2h-.53A1.28,1.28,0,0,1,30.5,45.33Z"/><path class="cls-4" d="M30.5,45.33h-.17v.44h1.28v4.66h.75v-6.2h-.53A1.28,1.28,0,0,1,30.5,45.33Z"/><path class="cls-3" d="M35.45,44c-.41,0-2,.11-2,3.28s1.55,3.28,2,3.28,2-.11,2-3.28S35.86,44,35.45,44Zm0,5.87c-.91,0-1.22-1.18-1.22-2.58s.31-2.58,1.22-2.58,1.21,1.17,1.21,2.58S36.35,49.91,35.45,49.91Z"/><path class="cls-4" d="M35.45,44c-.41,0-2,.11-2,3.28s1.55,3.28,2,3.28,2-.11,2-3.28S35.86,44,35.45,44Zm0,5.87c-.91,0-1.22-1.18-1.22-2.58s.31-2.58,1.22-2.58,1.21,1.17,1.21,2.58S36.35,49.91,35.45,49.91Z"/><path class="cls-3" d="M25.9,58.73A1.93,1.93,0,0,0,24,60.91,1.84,1.84,0,0,0,25.78,63a1.58,1.58,0,0,0,1.36-.65h0c0,1-.19,2.29-1.36,2.29a1,1,0,0,1-1.07-.89h-.67A1.65,1.65,0,0,0,25.8,65.3c.87,0,2.11-.41,2.11-3.37S26.86,58.73,25.9,58.73Zm0,3.6c-.79,0-1.18-.65-1.18-1.41s.34-1.53,1.17-1.53,1.24.73,1.24,1.5S26.67,62.33,25.88,62.33Z"/><path class="cls-4" d="M25.9,58.73A1.93,1.93,0,0,0,24,60.91,1.84,1.84,0,0,0,25.78,63a1.58,1.58,0,0,0,1.36-.65h0c0,1-.19,2.29-1.36,2.29a1,1,0,0,1-1.07-.89h-.67A1.65,1.65,0,0,0,25.8,65.3c.87,0,2.11-.41,2.11-3.37S26.86,58.73,25.9,58.73Zm0,3.6c-.79,0-1.18-.65-1.18-1.41s.34-1.53,1.17-1.53,1.24.73,1.24,1.5S26.67,62.33,25.88,62.33Z"/><path class="cls-3" d="M33.52,77.87a1.42,1.42,0,0,0,.81-1.36,1.68,1.68,0,0,0-3.36,0,1.42,1.42,0,0,0,.81,1.36,1.62,1.62,0,0,0-1,1.6,1.89,1.89,0,1,0,3.78,0A1.61,1.61,0,0,0,33.52,77.87Zm-1.86-1.33a1,1,0,1,1,1,1A.94.94,0,0,1,31.66,76.53Zm1,4.21a1.19,1.19,0,0,1-1.17-1.32,1.17,1.17,0,1,1,2.33,0A1.19,1.19,0,0,1,32.64,80.74Z"/><path class="cls-4" d="M33.52,77.87a1.42,1.42,0,0,0,.81-1.36,1.68,1.68,0,0,0-3.36,0,1.42,1.42,0,0,0,.81,1.36,1.62,1.62,0,0,0-1,1.6,1.89,1.89,0,1,0,3.78,0A1.61,1.61,0,0,0,33.52,77.87Zm-1.86-1.33a1,1,0,1,1,1,1A.94.94,0,0,1,31.66,76.53Zm1,4.21a1.19,1.19,0,0,1-1.17-1.32,1.17,1.17,0,1,1,2.33,0A1.19,1.19,0,0,1,32.64,80.74Z"/><path class="cls-3" d="M45.93,87.24h3.35A9.91,9.91,0,0,0,47.72,90a11.29,11.29,0,0,0-.67,2.78h.8a10.81,10.81,0,0,1,.61-2.85A9,9,0,0,1,50,87.1v-.56H45.93Z"/><path class="cls-4" d="M45.93,87.24h3.35A9.91,9.91,0,0,0,47.72,90a11.29,11.29,0,0,0-.67,2.78h.8a10.81,10.81,0,0,1,.61-2.85A9,9,0,0,1,50,87.1v-.56H45.93Z"/><path class="cls-3" d="M69.35,92.6a1.6,1.6,0,0,0-1.37.65h0c0-1,.19-2.29,1.36-2.29a1,1,0,0,1,1.07.88h.67a1.65,1.65,0,0,0-1.73-1.55c-.49,0-2.11.05-2.11,3.36,0,2.49.77,3.21,2,3.21a1.93,1.93,0,0,0,1.92-2.19A1.84,1.84,0,0,0,69.35,92.6Zm-.09,3.6c-.86,0-1.25-.73-1.25-1.5s.45-1.44,1.23-1.44,1.18.65,1.18,1.41S70.09,96.2,69.26,96.2Z"/><path class="cls-4" d="M69.35,92.6a1.6,1.6,0,0,0-1.37.65h0c0-1,.19-2.29,1.36-2.29a1,1,0,0,1,1.07.88h.67a1.65,1.65,0,0,0-1.73-1.55c-.49,0-2.11.05-2.11,3.36,0,2.49.77,3.21,2,3.21a1.93,1.93,0,0,0,1.92-2.19A1.84,1.84,0,0,0,69.35,92.6Zm-.09,3.6c-.86,0-1.25-.73-1.25-1.5s.45-1.44,1.23-1.44,1.18.65,1.18,1.41S70.09,96.2,69.26,96.2Z"/><path class="cls-3" d="M91.84,88.07a1.7,1.7,0,0,0-1.26.47l.22-1.83h2.47V86h-3l-.39,3.27h.71a1.33,1.33,0,0,1,1.09-.54c.61,0,1.23.37,1.23,1.46,0,1.45-.93,1.53-1.3,1.53a1.13,1.13,0,0,1-1.15-1.11H89.7a1.78,1.78,0,0,0,1.89,1.77,1.94,1.94,0,0,0,2-2.21C93.59,88.87,92.87,88.07,91.84,88.07Z"/><path class="cls-4" d="M91.84,88.07a1.7,1.7,0,0,0-1.26.47l.22-1.83h2.47V86h-3l-.39,3.27h.71a1.33,1.33,0,0,1,1.09-.54c.61,0,1.23.37,1.23,1.46,0,1.45-.93,1.53-1.3,1.53a1.13,1.13,0,0,1-1.15-1.11H89.7a1.78,1.78,0,0,0,1.89,1.77,1.94,1.94,0,0,0,2-2.21C93.59,88.87,92.87,88.07,91.84,88.07Z"/><path class="cls-3" d="M108.63,74.18h-.76l-2.63,4.06v.7h2.64v1.43h.75V78.94h.88v-.7h-.88Zm-.75,4.06H106l1.92-3Z"/><path class="cls-4" d="M108.63,74.18h-.76l-2.63,4.06v.7h2.64v1.43h.75V78.94h.88v-.7h-.88Zm-.75,4.06H106l1.92-3Z"/><path class="cls-3" d="M115.18,62.38v0A1.38,1.38,0,0,0,116.1,61a1.62,1.62,0,0,0-1.77-1.7,1.8,1.8,0,0,0-1.81,2.08h.69C113.2,60,114,60,114.3,60A1,1,0,0,1,115.4,61a1.06,1.06,0,0,1-1.22,1.07H114v.67h.58a1,1,0,0,1,1,1.12,1.18,1.18,0,0,1-1.27,1.31,1.2,1.2,0,0,1-1.17-1.2l0-.2h-.72a1.87,1.87,0,0,0,2,2.07,1.8,1.8,0,0,0,1.92-1.91A1.43,1.43,0,0,0,115.18,62.38Z"/><path class="cls-4" d="M115.18,62.38v0A1.38,1.38,0,0,0,116.1,61a1.62,1.62,0,0,0-1.77-1.7,1.8,1.8,0,0,0-1.81,2.08h.69C113.2,60,114,60,114.3,60A1,1,0,0,1,115.4,61a1.06,1.06,0,0,1-1.22,1.07H114v.67h.58a1,1,0,0,1,1,1.12,1.18,1.18,0,0,1-1.27,1.31,1.2,1.2,0,0,1-1.17-1.2l0-.2h-.72a1.87,1.87,0,0,0,2,2.07,1.8,1.8,0,0,0,1.92-1.91A1.43,1.43,0,0,0,115.18,62.38Z"/><path class="cls-3" d="M106.84,47.61c1.3-.92,1.8-1.29,1.8-2.45a1.73,1.73,0,0,0-1.87-1.88,1.82,1.82,0,0,0-1.92,2v.18h.73v-.23A1.13,1.13,0,0,1,106.75,44a1.07,1.07,0,0,1,1.13,1.19,2,2,0,0,1-1.14,1.67c-1.08.76-1.9,1.33-1.89,2.82h3.79V49h-3C105.78,48.51,106.09,48.14,106.84,47.61Z"/><path class="cls-4" d="M106.84,47.61c1.3-.92,1.8-1.29,1.8-2.45a1.73,1.73,0,0,0-1.87-1.88,1.82,1.82,0,0,0-1.92,2v.18h.73v-.23A1.13,1.13,0,0,1,106.75,44a1.07,1.07,0,0,1,1.13,1.19,2,2,0,0,1-1.14,1.67c-1.08.76-1.9,1.33-1.89,2.82h3.79V49h-3C105.78,48.51,106.09,48.14,106.84,47.61Z"/><path class="cls-3" d="M90.36,33.59H90.2V34h1.28v4.66h.75v-6.2H91.7A1.29,1.29,0,0,1,90.36,33.59Z"/><path class="cls-4" d="M90.36,33.59H90.2V34h1.28v4.66h.75v-6.2H91.7A1.29,1.29,0,0,1,90.36,33.59Z"/><path class="cls-5" d="M56,50.57l9.88,9.53,4.3-.32a2.28,2.28,0,0,1,.51.05l-.14-.74Z"/><path class="cls-4" d="M70.67,59.84a2.28,2.28,0,0,0-.51-.05l-4.3.32-23,1.69,27.34,1.83a2,2,0,0,0,2.16-1.88A2,2,0,0,0,70.67,59.84Z"/><path class="cls-6" d="M63.55,11.13a7.9,7.9,0,0,0-.23,1.53,5.48,5.48,0,0,0,.18,1.68l.51,0a6.46,6.46,0,0,1,0-3.18Z"/><path class="cls-6" d="M74.42,11.13a6.44,6.44,0,0,1,0,3.12l.45,0a7.68,7.68,0,0,0,.23-1.49,7.61,7.61,0,0,0-.27-1.67Z"/><path class="cls-6" d="M64.49,11.13H64a6.46,6.46,0,0,0,0,3.18l.56,0a6.81,6.81,0,0,1-.26-1.48A5.28,5.28,0,0,1,64.49,11.13Z"/><path class="cls-6" d="M73.85,11.13a6.81,6.81,0,0,1,.28,1.53,8.1,8.1,0,0,1-.23,1.57l.54,0a6.44,6.44,0,0,0,0-3.12Z"/><path class="cls-6" d="M105.08,103.29l-.49.26a25.61,25.61,0,0,1,4.4,6.33c2.33,4.64,3.23,7.52,2.68,10.89H100a26.88,26.88,0,0,1-3.37-5.18,28.55,28.55,0,0,1-2.5-6.82l-.47.22A28.93,28.93,0,0,0,98,118.86c1.14,1.74,1.3,2.13,3.1,2.13h10.42c.17,0,.58,0,.61-.26.54-4-1-7.46-2.7-10.95A30.34,30.34,0,0,0,105.08,103.29Z"/><path class="cls-6" d="M104.59,103.55l-.39.21a25.89,25.89,0,0,1,4.32,6.23c1.67,3.39,3.11,6.76,2.68,10.58h-10.4c-1.44,0-3-3.84-3.66-5.09a27.59,27.59,0,0,1-2.6-6.88l-.37.17a28.55,28.55,0,0,0,2.5,6.82,26.88,26.88,0,0,0,3.37,5.18h11.63c.55-3.38-.35-6.26-2.68-10.89A25.61,25.61,0,0,0,104.59,103.55Z"/><path class="cls-6" d="M41.77,115.59a26.88,26.88,0,0,1-3.37,5.18H26.77c-.54-3.38.35-6.26,2.68-10.89a26.48,26.48,0,0,1,3.76-5.64l-.4-.23A31.9,31.9,0,0,0,29,109.88c-1.73,3.5-3.23,7-2.69,10.95,0,.14.29.15.39.15H37.08c1.2,0,1.53.13,2.32-.85a28.44,28.44,0,0,0,5-10l-.42-.21A30.76,30.76,0,0,1,41.77,115.59Z"/><path class="cls-6" d="M43,111.46a32.86,32.86,0,0,1-2.2,5c-.42.8-.92,1.56-1.41,2.32,0,0-1.39,1.82-1,1.82H27.3c-.62,0-.17-1-.19-1.71-.09-3.16,1.46-6.23,2.82-9a30.34,30.34,0,0,1,3.78-5.35l-.51-.29a26.48,26.48,0,0,0-3.76,5.64c-2.33,4.64-3.23,7.52-2.68,10.89H38.4a26.88,26.88,0,0,0,3.37-5.18A30.76,30.76,0,0,0,44,109.95l-.43-.21C43.4,110.34,43.22,110.92,43,111.46Z"/><path class="cls-6" d="M103.91,21a85.66,85.66,0,0,0-29-6.74c0,.11-.06.22-.09.32C110.15,16.69,138,38.33,138,66.82c0,14.61-16.34,27.12-33.09,36.25l.21.21a140.54,140.54,0,0,0,13-8c9.4-6.55,20.24-16.09,20.37-28.53C138.3,45.39,122.62,29.14,103.91,21Z"/><path class="cls-6" d="M69.22,119.22c0,.53-11.28-3.05-24.69-9.49l-.12.42a168.54,168.54,0,0,0,20.7,8.33c1.87.61,3.38,1.29,5,.46,4-2,8.36-3.38,12.49-5.1q5.56-2.31,11.06-4.86c0-.09,0-.17-.05-.26C80.34,115,69.22,118.69,69.22,119.22Z"/><path class="cls-6" d="M63.58,14.61c0-.09-.06-.18-.08-.27a89.81,89.81,0,0,0-27.55,6.15C17.4,27.94,1.37,43.61.05,64.43-1,80.53,13.87,92,26,99.89c2.21,1.43,4.49,2.79,6.78,4.12l.24-.27C16.49,94.3.48,81.29.48,66.82.48,38.35,28.26,16.71,63.58,14.61Z"/><path class="cls-6" d="M74.35,14.58l.45,0c0-.11.06-.21.09-.32l-.45,0C74.41,14.36,74.39,14.47,74.35,14.58Z"/><path class="cls-6" d="M74.35,14.58l.45,0c0-.11.06-.21.09-.32l-.45,0C74.41,14.36,74.39,14.47,74.35,14.58Z"/><path class="cls-6" d="M63.5,14.34c0,.09.06.18.08.27l.5,0c0-.09,0-.18-.07-.28Z"/><path class="cls-6" d="M63.5,14.34c0,.09.06.18.08.27l.5,0c0-.09,0-.18-.07-.28Z"/><path class="cls-6" d="M73.79,14.55l.56,0c0-.11.06-.22.08-.33l-.54,0C73.87,14.34,73.83,14.45,73.79,14.55Z"/><path class="cls-6" d="M73.79,14.55l.56,0c0-.11.06-.22.08-.33l-.54,0C73.87,14.34,73.83,14.45,73.79,14.55Z"/><path class="cls-6" d="M64,14.31c0,.09,0,.18.07.28l.57,0c0-.09-.06-.19-.08-.28Z"/><path class="cls-6" d="M64,14.31c0,.09,0,.18.07.28l.57,0c0-.09-.06-.19-.08-.28Z"/><path class="cls-6" d="M104.38,103.34l.2.21.49-.26-.21-.21Z"/><path class="cls-6" d="M104.38,103.34l.2.21.49-.26-.21-.21Z"/><path class="cls-6" d="M93.64,108.74c0,.09,0,.17.05.26l.47-.22-.05-.26Z"/><path class="cls-6" d="M93.64,108.74c0,.09,0,.17.05.26l.47-.22-.05-.26Z"/><path class="cls-6" d="M94.11,108.52l.05.26.37-.17c0-.09,0-.17-.06-.26Z"/><path class="cls-6" d="M94.11,108.52l.05.26.37-.17c0-.09,0-.17-.06-.26Z"/><path class="cls-6" d="M104,103.55l.2.21.39-.21-.2-.21Z"/><path class="cls-6" d="M104,103.55l.2.21.39-.21-.2-.21Z"/><path class="cls-6" d="M32.81,104l.4.23.25-.27-.4-.23Z"/><path class="cls-6" d="M32.81,104l.4.23.25-.27-.4-.23Z"/><path class="cls-6" d="M44,109.95l.42.21.12-.42-.42-.2C44.07,109.67,44,109.81,44,109.95Z"/><path class="cls-6" d="M44,109.95l.42.21.12-.42-.42-.2C44.07,109.67,44,109.81,44,109.95Z"/><path class="cls-6" d="M33.21,104.24l.51.29.25-.28-.51-.29Z"/><path class="cls-6" d="M33.21,104.24l.51.29.25-.28-.51-.29Z"/><path class="cls-6" d="M43.56,109.74l.43.21c0-.14.08-.28.11-.42l-.43-.21Z"/><path class="cls-6" d="M43.56,109.74l.43.21c0-.14.08-.28.11-.42l-.43-.21Z"/><path class="cls-6" d="M74.8,14.61l-.45,0-.56,0c0-.11.07-.21.1-.32a92.82,92.82,0,0,0-9.33,0c0,.09.05.19.08.28l-.57,0-.5,0C28.26,16.71.48,38.35.48,66.82c0,14.46,16,27.47,32.57,36.92l.4.23.51.29-.25.28q4.83,2.75,9.85,5.2l.11-.42.43.21.42.2c13.42,6.43,24.69,10,24.69,9.49S80.34,115,93.64,108.74l.47-.22.37-.17c0,.09,0,.17.06.26q4.89-2.3,9.66-4.84l-.2-.21.39-.21.48-.26C121.61,93.95,138,81.44,138,66.82,138,38.33,110.15,16.69,74.8,14.61Zm32.76,86.65c-11.79,6.79-24.37,11.66-36.87,16.91-.49.21-1,.41-1.45.65l-.45.22a17.26,17.26,0,0,1-3.24-1A165.48,165.48,0,0,1,48,111c-15-6.86-31.28-15.58-41.35-29-5-6.65-6.43-13.72-5.21-21.88C3,49.8,8.7,40.58,16.21,33.49,34.43,16.3,62.38,11.78,86.3,16.24c25.16,4.69,51,22.75,51.16,50.64C137.29,83,119.89,94.16,107.56,101.26Z"/><path class="cls-6" d="M86.61,21.84c-22-5.37-48.35-.74-63.9,16.73a35.38,35.38,0,0,0-9.16,26.38C14.35,74.77,20,83.43,27.21,89.8c17.13,15,43.39,17.86,64.51,10.95,17-5.57,33.13-19.57,33.31-38.67C124.84,40.94,105.55,26.47,86.61,21.84ZM69.22,104.18A67.72,67.72,0,0,1,36.28,96l-.12-.07-.94-.55c-.43-.25-.86-.5-1.29-.77l-.31-.2c-.58-.37-1.15-.74-1.71-1.13L31.6,93c-.51-.36-1-.72-1.52-1.1s-.68-.53-1-.8l-.61-.49C19.26,83.13,13.64,73.07,13.64,62c0-23.29,24.88-42.17,55.58-42.17a73.17,73.17,0,0,1,10,.7l.95.13,1.09.18,1.58.28.85.17,1.76.38.76.18,1.74.45.82.23L90.3,23l1,.33,1.13.39,1.46.53.48.19c18,7,30.39,21.18,30.39,37.58C124.79,85.3,99.91,104.18,69.22,104.18Z"/><path class="cls-6" d="M13.64,62c0,11.06,5.62,21.13,14.81,28.65A41.55,41.55,0,0,1,16.21,74.18a33.41,33.41,0,0,1,2.33-29C24.13,35.3,34,28.49,44.4,24.45a70.89,70.89,0,0,1,34.83-3.92,73.17,73.17,0,0,0-10-.7C38.52,19.84,13.64,38.72,13.64,62Z"/><path class="cls-6" d="M30.09,91.95l-1-.8C29.4,91.41,29.74,91.69,30.09,91.95Z"/><path class="cls-6" d="M92.47,23.71l1.46.53Z"/><path class="cls-6" d="M82.84,21.12l.85.17Z"/><path class="cls-6" d="M80.17,20.66l1.09.18Z"/><path class="cls-6" d="M90.3,23l1,.33Z"/><path class="cls-6" d="M85.44,21.67l.76.18Z"/><path class="cls-6" d="M31.9,93.26,31.6,93Z"/><path class="cls-6" d="M87.94,22.3l.82.23Z"/><path class="cls-6" d="M94.41,24.42a53.65,53.65,0,0,1,21.29,14.69,35.51,35.51,0,0,1,8.86,22.82c-.22,24-24.13,38.36-45.41,41.43-13.88,2-30-.28-42.87-7.4a67.72,67.72,0,0,0,32.94,8.21c30.7,0,55.58-18.88,55.58-42.17C124.79,45.6,112.44,31.39,94.41,24.42Z"/><path class="cls-6" d="M36.15,95.9l-.94-.55Z"/><path class="cls-6" d="M33.93,94.58l-.31-.2Z"/><path class="cls-6" d="M69.88,0C63.8-.4,55.51,3.7,55.93,10.79c0,.26.5.33.7.33h6.92l.06-.22H56.42v-.13C56.41,5,62.14.23,69.22.23S82,5,82,10.77v.13H74.78l.06.22h7.38c.06,0,.27,0,.28-.11v-.13C82.28,4.19,76,.47,69.88,0Z"/><path class="cls-6" d="M69.22.23C62.14.23,56.41,5,56.41,10.77v.13h8.15c0,.08-.05.15-.07.22h9.36l-.06-.22H82v-.13C82,5,76.29.23,69.22.23ZM81.54,10.68H56.91c-.09-5.29,5-8.94,9.69-10,6.64-1.45,14.69,2.61,14.94,9.94Z"/><path class="cls-6" d="M63.55,11.13H64c0-.07,0-.15.06-.22h-.46Z"/><path class="cls-6" d="M63.55,11.13H64c0-.07,0-.15.06-.22h-.46Z"/><path class="cls-6" d="M74.37,10.9c0,.07,0,.15.06.22h.42l-.06-.22Z"/><path class="cls-6" d="M74.37,10.9c0,.07,0,.15.06.22h.42l-.06-.22Z"/><path class="cls-6" d="M73.79,10.9l.06.22h.57c0-.07,0-.15-.06-.22Z"/><path class="cls-6" d="M73.79,10.9l.06.22h.57c0-.07,0-.15-.06-.22Z"/><path class="cls-6" d="M64,11.13h.48c0-.08.05-.15.07-.22h-.5C64,11,64,11.05,64,11.13Z"/><path class="cls-6" d="M64,11.13h.48c0-.08.05-.15.07-.22h-.5C64,11,64,11.05,64,11.13Z"/><path class="cls-6" d="M122.7,58.33h.06l0-.5h-.09a32.13,32.13,0,0,0-.75-3.71h0l-.08-.49h-.08c-.16-.57-.33-1.13-.52-1.69s-.5-1.38-.78-2.06l-.09-.37-.07,0a35.55,35.55,0,0,0-1.9-3.8l-.06-.19h0a38.33,38.33,0,0,0-2.51-3.76v0h0a44.69,44.69,0,0,0-8.54-8.5c-9.72-7.41-23.12-12-37.93-12s-28.21,4.58-37.93,12A42.82,42.82,0,0,0,20.29,45.55h0l0,.08a35.5,35.5,0,0,0-2,3.9h0l-.07.27a33.31,33.31,0,0,0-1.34,3.84h-.07l-.08.49h0a32.11,32.11,0,0,0-.75,3.71h-.08l0,.5h.05a31.79,31.79,0,0,0-.25,3.74h-.08v.5h.08a31.83,31.83,0,0,0,.25,3.74h-.06l0,.5h.09a32.1,32.1,0,0,0,.75,3.71h0l.08.49h.08a33.42,33.42,0,0,0,1.32,3.8l.08.32h.06a35.6,35.6,0,0,0,1.93,3.83l0,.14h0a38.35,38.35,0,0,0,2.53,3.77v0h0l.23.3a44.86,44.86,0,0,0,8.29,8.18c9.72,7.42,23.12,12,37.93,12s28.21-4.58,37.93-12a44.71,44.71,0,0,0,8.51-8.47h0l0,0a38.4,38.4,0,0,0,2.51-3.75h0l.07-.2a35.54,35.54,0,0,0,1.9-3.78l.07,0,.1-.4A33.27,33.27,0,0,0,121.73,71h.09l.08-.49h0a32,32,0,0,0,.75-3.71h.09l0-.5h-.06a31.94,31.94,0,0,0,.25-3.74h.1v-.5h-.1A31.87,31.87,0,0,0,122.7,58.33ZM100.49,29.51l-1.7,1.77.36.35,1.8-1.87q2,1.14,3.87,2.42l-1.91,1.6.32.38,2-1.69c.56.39,1.12.79,1.66,1.21s1.25,1,1.85,1.49l-2.09,1.42L107,37l2.19-1.49q1.64,1.42,3.1,2.94L110,39.67l.24.44,2.35-1.29A41.18,41.18,0,0,1,115.27,42l-4.77,2a39.69,39.69,0,0,0-7.31-7.12,48.86,48.86,0,0,0-10-5.78l3.11-3.64Q98.46,28.38,100.49,29.51ZM47.27,25.42l1.27,2.16.43-.25-1.22-2.07q2.31-.78,4.74-1.4l1,2.26.46-.2L53,23.73q2.41-.59,4.92-1l.65,2.33.48-.13-.64-2.29q2.48-.39,5-.61l.33,2.37.5-.07L63.94,22q2.52-.19,5.1-.2v4.49h.5V21.79q2.59,0,5.12.2l-.33,2.34.5.07L75.16,22q2.56.22,5,.61l-.64,2.28.48.14.66-2.33q2.51.42,4.92,1l-.95,2.19.46.2,1-2.26q2.42.62,4.73,1.4l-1.22,2.07.43.25,1.27-2.16q2.3.8,4.48,1.76l-3.07,3.59.16.13A61.16,61.16,0,0,0,45.83,31l-3.05-3.86Q45,26.22,47.27,25.42ZM26,38.8l2.35,1.29.24-.44-2.24-1.23q1.46-1.53,3.11-2.94l2.2,1.5.28-.41-2.09-1.43q.89-.75,1.83-1.47c.55-.42,1.11-.82,1.68-1.22l2,1.7.32-.38-1.91-1.61q1.86-1.28,3.88-2.42l1.8,1.88.36-.35-1.7-1.78q2-1.12,4.2-2.1l3.05,3.86a48.64,48.64,0,0,0-9.53,5.57,39.47,39.47,0,0,0-7.63,7.54L23.29,42A41.17,41.17,0,0,1,26,38.8ZM16.37,58.36l2.7.22,0-.5-2.67-.21a31.69,31.69,0,0,1,.74-3.67l2.7.44.08-.49-2.63-.42a32.84,32.84,0,0,1,1.24-3.59l2.66.65.12-.49-2.57-.63a35,35,0,0,1,1.74-3.49L23.1,47l.16-.47-2.49-.84A38,38,0,0,1,23,42.39l4.92,2.38a29.49,29.49,0,0,0-6,17.29H16.12A31.34,31.34,0,0,1,16.37,58.36ZM23,82.25a37.87,37.87,0,0,1-2.23-3.36l2.48-.83-.16-.47-2.58.86A35.15,35.15,0,0,1,18.78,75l2.57-.63-.12-.49-2.65.65a33,33,0,0,1-1.25-3.6L20,70.49,19.88,70l-2.7.43a31.56,31.56,0,0,1-.74-3.67l2.67-.21,0-.5-2.7.22a31.36,31.36,0,0,1-.25-3.7h5.73a29.55,29.55,0,0,0,6.26,17.7ZM38.1,95.12l1.69-1.76L39.43,93l-1.79,1.86q-2-1.14-3.88-2.42l1.9-1.6-.32-.38-2,1.69c-.57-.4-1.14-.81-1.69-1.23s-1.23-1-1.83-1.47l2.09-1.42-.28-.41-2.2,1.49q-1.64-1.41-3.1-2.94L28.57,85l-.24-.44L26,85.81a41.18,41.18,0,0,1-2.66-3.14l5.11-2a39.64,39.64,0,0,0,7.4,7.25A48.53,48.53,0,0,0,45,93.33l-2.7,3.89Q40.13,96.24,38.1,95.12ZM69,102.77v.05q-2.58,0-5.1-.2v0l.32-2.29-.5-.07-.32,2.33v0q-1.36-.11-2.7-.28c-.71-.09-1.41-.18-2.1-.29h-.08l-.16,0L59,99.7l-.48-.13-.65,2.32q-2.5-.42-4.91-1l.93-2.18-.46-.2-1,2.25q-2.42-.61-4.74-1.4L49,97.3,48.54,97l-1.27,2.14q-2.31-.8-4.5-1.77l2.7-3.89A59.38,59.38,0,0,0,69,98.46ZM36.14,87.52C27.6,81.06,22.35,72.17,22.35,62.37S27.6,43.67,36.14,37.22,56.47,26.77,69.51,26.77s24.85,4,33.38,10.45,13.79,15.34,13.79,25.15-5.26,18.69-13.79,25.15S82.55,98,69.51,98,44.67,94,36.14,87.52Zm76.44-1.7-.1-.05-2.24-1.23L110,85l2.13,1.17.1.05q-1.46,1.52-3.11,2.94l-.11-.07-2.07-1.41-.28.41,2,1.34.12.08q-.89.75-1.82,1.46c-.55.42-1.11.83-1.69,1.23l-.11-.09-1.89-1.59-.32.38,1.77,1.49.12.1q-1.86,1.27-3.87,2.41l-.11-.11L99.13,93l-.36.35L100.35,95l.11.11q-2,1.13-4.21,2.1l-.09-.12-2.65-3.49-.4.3,2.58,3.39.09.12q-2.18,1-4.5,1.76l-.07-.12-1.19-2-.43.25,1.14,1.93.07.12q-2.31.78-4.73,1.39l-.05-.12-.91-2.13-.46.2.88,2.06.05.12q-2.41.59-4.91,1l0-.11L80,99.57l-.48.13.61,2.16,0,.11q-2.48.39-5,.61v-.09l-.32-2.26-.5.07.32,2.24v.08q-2.52.19-5.1.2V98.46c13.13,0,25-4,33.65-10.55a39.65,39.65,0,0,0,7.41-7.26l4.58,2,.07,0A41.31,41.31,0,0,1,112.57,85.81Zm9.87-23.24a31.36,31.36,0,0,1-.25,3.7l-2.69-.21,0,.5,2.65.21a31.63,31.63,0,0,1-.74,3.67L118.7,70l-.08.49,2.62.42a32.82,32.82,0,0,1-1.25,3.6l-2.64-.65-.12.49,2.55.63c-.16.37-.31.73-.49,1.1-.38.81-.81,1.6-1.25,2.39h0l-2.53-.85-.16.47,2.43.82h0a37.81,37.81,0,0,1-2.22,3.34l-.07,0-4.57-2a28.66,28.66,0,0,0-.1-35.89l4.77-2a38.07,38.07,0,0,1,2.22,3.35l-2.48.83.16.47,2.58-.87a34.94,34.94,0,0,1,1.74,3.49l-2.56.63.12.49,2.64-.65a32.84,32.84,0,0,1,1.24,3.6l-2.62.42.08.49,2.68-.43a31.67,31.67,0,0,1,.74,3.67l-2.66.21,0,.5,2.69-.21a31.39,31.39,0,0,1,.25,3.7h-5v.5Z"/></g></g></svg>