<svg xmlns="http://www.w3.org/2000/svg" viewBox="0 0 114.04 248.86"><defs><style>.cls-1{fill-rule:evenodd;}.cls-2{fill:#fff;}</style></defs><title>Ресурс 26clock</title><g id="Слой_2" data-name="Слой 2"><g id="Layer_1" data-name="Layer 1"><path class="cls-1" d="M89.1,22.9a5.58,5.58,0,0,0,6.83-3c1.23-2.37,1.07-5.07.72-7.65-.11-.71-.26-1.45-.44-2.21a1.11,1.11,0,0,1-.39.08,1.16,1.16,0,0,1-.54,0,1.39,1.39,0,0,1-.37,0,1.11,1.11,0,0,1-.46.09c.09.41.17.83.25,1.23.39,2.49.86,5.26-.32,7.54-.93,1.62-2.76,2.85-4.66,2.22A3,3,0,0,1,87.47,18a2.35,2.35,0,0,1,2.71-2,1,1,0,0,1-.1-.63,3.29,3.29,0,0,0-4.28,2.33A4.49,4.49,0,0,0,89.1,22.9Z"/><path class="cls-1" d="M25.12,23.06a5.58,5.58,0,0,1-6.83-3c-1.23-2.37-1.07-5.07-.73-7.65.11-.71.27-1.45.44-2.21a1.17,1.17,0,0,0,.38.08,1.23,1.23,0,0,0,.54,0,1.45,1.45,0,0,0,.36,0,1.13,1.13,0,0,0,.46.09q-.14.62-.24,1.23c-.4,2.49-.87,5.25.32,7.54.92,1.62,2.76,2.85,4.66,2.22a3,3,0,0,0,2.26-3.21,2.36,2.36,0,0,0-2.71-2,1,1,0,0,0,.1-.62,3.28,3.28,0,0,1,4.27,2.33A4.49,4.49,0,0,1,25.12,23.06Z"/><path class="cls-1" d="M69.57,40.75a5.58,5.58,0,0,0,6.83-3c1.23-2.37,1.07-5.07.72-7.65-.11-.71-.26-1.45-.44-2.21a1.11,1.11,0,0,1-.38.08,1.17,1.17,0,0,1-.55,0,1.19,1.19,0,0,1-.36,0,1.22,1.22,0,0,1-.46.1c.09.41.17.82.25,1.23.39,2.49.86,5.26-.32,7.54-.93,1.62-2.76,2.85-4.67,2.22a3,3,0,0,1-2.25-3.21,2.35,2.35,0,0,1,2.7-2,1,1,0,0,1-.09-.62,3.29,3.29,0,0,0-4.28,2.33A4.49,4.49,0,0,0,69.57,40.75Z"/><path class="cls-1" d="M44.64,40.75a5.58,5.58,0,0,1-6.83-3c-1.22-2.37-1.06-5.07-.72-7.65.11-.71.26-1.45.44-2.21a1.07,1.07,0,0,0,.38.08,1.13,1.13,0,0,0,.54,0,1.32,1.32,0,0,0,.37,0,1.09,1.09,0,0,0,.46.1c-.09.42-.17.83-.24,1.23-.4,2.5-.87,5.26.31,7.54.93,1.63,2.76,2.85,4.67,2.22a3,3,0,0,0,2.26-3.21,2.35,2.35,0,0,0-2.71-2,1,1,0,0,0,.1-.63,3.29,3.29,0,0,1,4.28,2.33A4.49,4.49,0,0,1,44.64,40.75Z"/><path d="M53.18,150.64v76.76h0a32.33,32.33,0,0,0,7.58.28v-77c-.93-1.7-1.41-3-2.39-3.55V61.35a4.86,4.86,0,0,0,0-6.49V49.54a4.87,4.87,0,0,0,0-6.5V42.3a17.88,17.88,0,0,1-2.93.43v.36a4.92,4.92,0,0,0,0,6.42v5.38a4.92,4.92,0,0,0,0,6.42v85.81C54.58,147.68,54.11,148.86,53.18,150.64Z"/><path class="cls-1" d="M71.95,66.55l.07.37c1.71.08,1.54,2.19.43,2.8-1.68.89-3.4-.52-4-1.94-1.26-2.94.22-5.46,3-6.8A5,5,0,0,1,74,60.51V59.25a.27.27,0,0,1,0,0,6.33,6.33,0,0,0-3.1.62c-3.48,1.61-5.21,4.93-3.63,8.5,1,2.05,3.35,3.87,5.8,2.5C75.16,69.68,74.79,66.34,71.95,66.55Z"/><path d="M58.29,80.87V21.33h0c0-5.46-3-11.21-6.78-14.81h0A22.76,22.76,0,0,0,36.11.07h0a18.4,18.4,0,0,0-2.49.16h0C27.74,1,21.84,4,18.48,9.17h0a25.15,25.15,0,0,0-3.76,9.28h0a45.5,45.5,0,0,0-.3,5.71h0c0,1.77.05,3.51.05,5.24h2.27c0-1.77-.05-3.51-.05-5.23h0A42.11,42.11,0,0,1,17,18.74h0a22.91,22.91,0,0,1,3.41-8.34h0c2.87-4.5,8.18-7.21,13.53-7.92h0a16.29,16.29,0,0,1,2.18-.14h0A20.51,20.51,0,0,1,49.95,8.16h0C53.29,11.31,56,16.73,56,21.33h0V80.87h2.27Z"/><path d="M57.48,19.65a19.92,19.92,0,0,0-3.06-.27,18.58,18.58,0,0,0-2.49.16c-5.87.79-11.78,3.73-15.14,8.94A25.16,25.16,0,0,0,33,37.77a44.44,44.44,0,0,0-.3,5.71c0,1.77.05,3.51.05,5.24h2.27c0-1.77-.05-3.52-.05-5.23a43,43,0,0,1,.28-5.42,23,23,0,0,1,3.42-8.34c2.87-4.5,8.17-7.21,13.53-7.92a16.7,16.7,0,0,1,2.18-.14,17.85,17.85,0,0,1,3.3.33A3.64,3.64,0,0,1,57.48,19.65Z"/><polygon points="29.08 36.31 16.89 27.64 0 32.95 3.96 35.42 6.43 52.39 14.5 55.83 21.31 53.59 24.97 37.29 29.08 36.31"/><polygon class="cls-2" points="23.78 36.17 16.67 31.53 16.07 49.32 20.48 51.79 23.78 36.17"/><polygon class="cls-2" points="14.35 31.23 5.16 34.07 7.33 50.67 14.06 49.02 14.35 31.23"/><polygon class="cls-2" points="19.17 53.19 15.03 51.12 8.67 52.54 14.5 54.85 19.17 53.19"/><path d="M55.89,226.74c15.77,0,28.79,12.47,29.24,22.12H27.06C27.49,239.21,40.12,226.74,55.89,226.74Z"/><path class="cls-1" d="M27.19,48c3.74-1.47,6.33,1.23,5.75,3.52C32.54,53,31,54,28.87,52.24a2.8,2.8,0,0,0,4.25,1.32C36.84,50.5,32.22,44,26.21,47,14.38,53.28,38.63,72.26,33,73.08l-.42.08a.81.81,0,0,1,.11.17.94.94,0,0,1,.33.86.78.78,0,0,1,.41.3C43,73.17,15.84,53.7,27.19,48Z"/><path class="cls-1" d="M34,74.19c.42-.13.66-.6,1-.84l.12-.07c-.32-.07-.62-.15-1-.2C28.54,72.26,52.8,53.28,41,47c-6-3-10.63,3.52-6.91,6.57a2.8,2.8,0,0,0,4.25-1.32c-2.16,1.79-3.67.8-4.08-.72-.58-2.29,2-5,5.75-3.52,11.29,5.68-15.51,25-6.42,26.48A.89.89,0,0,1,34,74.19Z"/><path class="cls-1" d="M89.63,66.33l-.07.37c-1.71.08-1.54,2.19-.42,2.8,1.68.89,3.39-.52,4-1.95,1.27-2.94-.23-5.45-3-6.8a5,5,0,0,0-2.55-.47V59s0,0,0,0a6.33,6.33,0,0,1,3.11.62c3.47,1.6,5.21,4.92,3.63,8.5-1,2-3.35,3.87-5.81,2.5C86.42,69.46,86.77,66.11,89.63,66.33Z"/><path d="M56,80.8V21.27h0c0-5.46,3-11.21,6.79-14.81h0A22.75,22.75,0,0,1,78.16,0h0a18.57,18.57,0,0,1,2.49.17h0C86.53,1,92.43,3.89,95.79,9.11h0a25,25,0,0,1,3.75,9.28h0a44.75,44.75,0,0,1,.3,5.71h0c0,1.77-.05,3.51-.05,5.24H97.52c0-1.77.05-3.51.05-5.23h0a42.75,42.75,0,0,0-.28-5.42h0a22.93,22.93,0,0,0-3.42-8.35h0C91,5.83,85.71,3.12,80.35,2.41h0a16,16,0,0,0-2.18-.14h0A20.51,20.51,0,0,0,64.32,8.09h0c-3.34,3.16-6.11,8.57-6.08,13.17h0V80.8H56Z"/><path d="M56.79,19.59a20.15,20.15,0,0,1,3.06-.27,18.12,18.12,0,0,1,2.48.17c5.88.79,11.78,3.73,15.14,8.94a25.16,25.16,0,0,1,3.75,9.28,44.81,44.81,0,0,1,.3,5.71c0,1.77-.05,3.51-.05,5.24H79.21c0-1.77.06-3.52.06-5.23A42.75,42.75,0,0,0,79,38a22.81,22.81,0,0,0-3.42-8.35C72.7,25.15,67.4,22.44,62,21.73a16.68,16.68,0,0,0-2.18-.14,17.66,17.66,0,0,0-3.3.33A3.66,3.66,0,0,0,56.79,19.59Z"/><polygon points="84.95 34.86 97.14 26.19 114.04 31.49 110.08 33.96 107.61 50.94 99.54 54.37 92.73 52.13 89.07 35.83 84.95 34.86"/><polygon class="cls-2" points="90.26 34.71 97.37 30.08 97.97 47.87 93.55 50.34 90.26 34.71"/><polygon class="cls-2" points="99.68 29.78 108.87 32.62 106.71 49.21 99.98 47.57 99.68 29.78"/><polygon class="cls-2" points="94.87 51.74 99.01 49.66 105.37 51.08 99.54 53.4 94.87 51.74"/><path class="cls-1" d="M87.08,47.93c-3.74-1.47-6.33,1.23-5.75,3.53.4,1.52,1.91,2.51,4.07.72a2.79,2.79,0,0,1-4.24,1.32c-3.73-3.06.88-9.54,6.9-6.58C99.89,53.21,75.63,72.2,81.23,73c.4.06.77.14,1.14.22a3.07,3.07,0,0,0-.15.68,3.05,3.05,0,0,0-.47.68c-.24,0-.49-.1-.71-.12C70.74,73.47,98.54,53.69,87.08,47.93Z"/><path class="cls-1" d="M77.9,73.47A22.19,22.19,0,0,1,80.13,73c5.6-.82-18.66-19.81-6.82-26.1,6-3,10.63,3.52,6.89,6.58A2.79,2.79,0,0,1,76,52.17c2.16,1.79,3.67.8,4.07-.72.58-2.29-2-5-5.75-3.53-11.46,5.76,16.33,25.54,6,26.55a12.87,12.87,0,0,0-2,.37A9.29,9.29,0,0,0,77.9,73.47Z"/><circle cx="80.93" cy="89.7" r="20.77"/><circle class="cls-2" cx="80.87" cy="89.83" r="18.36"/><path d="M62.34,89.86A18.51,18.51,0,0,1,80.85,71.35h0A18.51,18.51,0,0,1,99.36,89.86h0a18.51,18.51,0,0,1-18.51,18.51h0A18.51,18.51,0,0,1,62.34,89.86Zm5.56-13a18.26,18.26,0,0,0-5.37,13h0a18.26,18.26,0,0,0,5.37,13h0a18.26,18.26,0,0,0,13,5.36h0a18.26,18.26,0,0,0,13-5.36h0a18.26,18.26,0,0,0,5.36-13h0a18.26,18.26,0,0,0-5.36-13h0a18.26,18.26,0,0,0-13-5.36h0a18.26,18.26,0,0,0-13,5.36Z"/><circle cx="80.84" cy="89.82" r="0.92"/><path d="M80.93,74.3V71.4h-.14v2.92Z"/><path d="M80.79,105.27v3h.14v-3Z"/><path d="M94.53,82.61l2.57-1.37L97,81.12l-2.57,1.37Z"/><path d="M67.23,97.06,64.53,98.5l.07.12,2.69-1.44Z"/><path d="M88.73,76.45,90.12,74,90,74l-1.4,2.42Z"/><path d="M73.14,103.25l-1.53,2.65.12.07,1.54-2.67Z"/><path d="M87.94,103.54l1.43,2.68.13-.07-1.43-2.67Z"/><path d="M73.44,76.14l-1.33-2.49-.12.07,1.34,2.5Z"/><path d="M67.48,82.12,64.9,80.63l-.07.12,2.59,1.49Z"/><path d="M94.18,97.5l-.07.12,2.66,1.53.07-.12Z"/><path d="M65.46,89.76H62.39v.14h3.07S65.46,89.8,65.46,89.76Z"/><path d="M96.23,89.76s0,.09,0,.14h3v-.14Z"/><path d="M92,85.77h1.64v.33H91.69v-.16a13.33,13.33,0,0,0,1.1-1.79,3,3,0,0,0,.32-1.26,1.58,1.58,0,0,0-.16-.78.5.5,0,0,0-.87-.06,1.13,1.13,0,0,0-.19.61h-.1a1.64,1.64,0,0,1,.13-.6,1.31,1.31,0,0,1,.32-.5.63.63,0,0,1,.43-.17.71.71,0,0,1,.6.37,1.61,1.61,0,0,1,.25.92A3,3,0,0,1,93.16,84,10.65,10.65,0,0,1,92,85.77Z"/><path d="M79.67,78.94V75.79c0-.11,0-.16,0-.16l-.07,0a1,1,0,0,1-.38.13v-.13a2.42,2.42,0,0,0,.78-.78h.1v4.07a.85.85,0,0,0,.06.41c0,.06.14.09.28.09v.12H79.33v-.12c.14,0,.24,0,.28-.1A.84.84,0,0,0,79.67,78.94Z"/><path d="M81.09,79.17h1.64v.33H80.82v-.16a13.19,13.19,0,0,0,1.1-1.79,3,3,0,0,0,.33-1.26,1.58,1.58,0,0,0-.16-.78.5.5,0,0,0-.45-.29.51.51,0,0,0-.42.22,1.19,1.19,0,0,0-.2.62h-.09a1.62,1.62,0,0,1,.13-.6,1.3,1.3,0,0,1,.32-.5.63.63,0,0,1,.43-.18.71.71,0,0,1,.6.37,1.61,1.61,0,0,1,.25.92,3,3,0,0,1-.36,1.33A10.68,10.68,0,0,1,81.09,79.17Z"/><path d="M94.2,90V89.9a1.14,1.14,0,0,0,1-1.16,1,1,0,0,0-.16-.57.48.48,0,0,0-.41-.23.46.46,0,0,0-.31.13.85.85,0,0,0-.22.35L94,88.36a1,1,0,0,1,.29-.51.71.71,0,0,1,.49-.19.7.7,0,0,1,.58.29,1.16,1.16,0,0,1,.23.74,1.29,1.29,0,0,1-.15.62,1.15,1.15,0,0,1-.44.44v0a1,1,0,0,1,.54.46,1.59,1.59,0,0,1,.2.81,1.68,1.68,0,0,1-.29,1,.9.9,0,0,1-.75.4.84.84,0,0,1-.44-.11,1.44,1.44,0,0,1-.39-.39l.07-.1a.92.92,0,0,0,.66.38.64.64,0,0,0,.53-.27,1.13,1.13,0,0,0,.21-.71,1.68,1.68,0,0,0-.22-.86.67.67,0,0,0-.58-.38Z"/><path d="M93.45,97.16h-.82v1.58h-.35V97.16H90.91V97L92.53,94h.1v2.83h.82Zm-2.21-.37h1v-2Z"/><path d="M87.73,99.25H86.48l0,1.63a1.23,1.23,0,0,1,.26,0,.91.91,0,0,1,.76.37,1.45,1.45,0,0,1,.29.92,1.6,1.6,0,0,1-.29,1,.88.88,0,0,1-.73.39,1,1,0,0,1-.9-.66l.09-.07a.77.77,0,0,0,.65.46.65.65,0,0,0,.54-.29,1.19,1.19,0,0,0,.22-.72,1.08,1.08,0,0,0-.22-.7.76.76,0,0,0-.62-.27l-.22,0,.05-2.44h1.41Z"/><path d="M81.73,100v.13a2,2,0,0,0-1.19.84,3.3,3.3,0,0,0-.51,1.66,1.07,1.07,0,0,1,.82-.5.76.76,0,0,1,.65.37,1.59,1.59,0,0,1,.26.94,1.56,1.56,0,0,1-.3,1,.9.9,0,0,1-.74.39.94.94,0,0,1-.81-.51,2.41,2.41,0,0,1-.32-1.3,3.4,3.4,0,0,1,.6-2A2.2,2.2,0,0,1,81.73,100Zm-.37,3.59a1.51,1.51,0,0,0-.18-.8.57.57,0,0,0-.5-.3.85.85,0,0,0-.65.39v.06a3,3,0,0,0,.21,1.21c.14.29.32.45.54.45a.48.48,0,0,0,.42-.28A1.44,1.44,0,0,0,81.36,103.58Z"/><path d="M72.75,99.46h-.1l.18-1.18h.1c0,.07,0,.11.07.13a.22.22,0,0,0,.11,0H75v.16l-1.15,4.5h-.42l1.29-4.21H73.22A.28.28,0,0,0,73,99,2.25,2.25,0,0,0,72.75,99.46Z"/><path d="M69.9,97.62a1.38,1.38,0,0,1-.28.88.88.88,0,0,1-1.39,0,1.22,1.22,0,0,1-.27-.81,1.32,1.32,0,0,1,.17-.67,2.08,2.08,0,0,1,.56-.59,1.48,1.48,0,0,1-.47-.55,1.57,1.57,0,0,1-.16-.72,1.29,1.29,0,0,1,.25-.82.78.78,0,0,1,.65-.32.77.77,0,0,1,.62.3,1.14,1.14,0,0,1,.25.75,1.33,1.33,0,0,1-.58,1.1A1.91,1.91,0,0,1,69.9,97.62Zm-1.61,0a1.26,1.26,0,0,0,.19.71.57.57,0,0,0,.48.29.52.52,0,0,0,.43-.23.92.92,0,0,0,.17-.57,1.56,1.56,0,0,0-.76-1.24A1.15,1.15,0,0,0,68.29,97.63Zm.08-2.7a1,1,0,0,0,.18.57,2.85,2.85,0,0,0,.59.6,1,1,0,0,0,.38-.91,1.33,1.33,0,0,0-.17-.7.5.5,0,0,0-.44-.27.46.46,0,0,0-.39.2A.8.8,0,0,0,68.37,94.94Z"/><path d="M66.37,92.44v-.13a1.81,1.81,0,0,0,1.19-.82,3.21,3.21,0,0,0,.52-1.68,1.07,1.07,0,0,1-.82.51.78.78,0,0,1-.65-.37,1.6,1.6,0,0,1-.26-.93,1.53,1.53,0,0,1,.3-1,.91.91,0,0,1,.75-.39.94.94,0,0,1,.81.51,2.4,2.4,0,0,1,.32,1.29,3.38,3.38,0,0,1-.61,2A2.17,2.17,0,0,1,66.37,92.44Zm.37-3.58a1.49,1.49,0,0,0,.19.8.57.57,0,0,0,.5.3.83.83,0,0,0,.64-.43,3.06,3.06,0,0,0-.2-1.23c-.14-.3-.32-.45-.54-.45a.48.48,0,0,0-.42.28A1.41,1.41,0,0,0,66.75,88.87Z"/><path d="M68.53,85.94V82.78c0-.11,0-.16,0-.16l-.07,0a1,1,0,0,1-.38.13v-.13a2.48,2.48,0,0,0,.79-.78h.1v4.07a.84.84,0,0,0,.06.41c0,.06.13.09.28.09v.12H68.18v-.12c.14,0,.24,0,.28-.1A.86.86,0,0,0,68.53,85.94Z"/><path d="M71.75,84.25a4.75,4.75,0,0,1-.15,1.24,2.08,2.08,0,0,1-.42.85.71.71,0,0,1-1.17,0,2.08,2.08,0,0,1-.42-.85,4.8,4.8,0,0,1-.15-1.26A4.67,4.67,0,0,1,69.59,83a2.1,2.1,0,0,1,.42-.84.71.71,0,0,1,1.17,0,2.14,2.14,0,0,1,.42.85A4.74,4.74,0,0,1,71.75,84.25Zm-.44,0a5.54,5.54,0,0,0-.18-1.62c-.12-.38-.3-.58-.53-.58s-.41.2-.53.58a7.05,7.05,0,0,0,0,3.22c.13.39.3.58.53.58s.4-.19.53-.57A5.47,5.47,0,0,0,71.32,84.25Z"/><path d="M73.26,80.57V77.42c0-.1,0-.16,0-.16l-.08,0a1,1,0,0,1-.38.13v-.13a2.51,2.51,0,0,0,.78-.78h.1v4.07a.81.81,0,0,0,.07.41c0,.06.14.1.28.1v.12H72.92v-.12c.14,0,.24,0,.28-.1A.85.85,0,0,0,73.26,80.57Z"/><path d="M74.55,80.57V77.42c0-.1,0-.16,0-.16l-.07,0a1,1,0,0,1-.38.13v-.13a2.54,2.54,0,0,0,.79-.78h.1v4.07A.82.82,0,0,0,75,81a.32.32,0,0,0,.28.1v.12H74.21v-.12c.14,0,.24,0,.28-.1A.87.87,0,0,0,74.55,80.57Z"/><path d="M87.89,80.7V77.54c0-.11,0-.16,0-.16l-.07,0a1,1,0,0,1-.38.13v-.13a2.44,2.44,0,0,0,.78-.78h.1V80.7a.83.83,0,0,0,.06.41c0,.07.14.09.28.09v.12H87.54V81.2c.14,0,.24,0,.28-.1A.83.83,0,0,0,87.89,80.7Z"/><path d="M69.06,100.85a.26.26,0,0,1-.38,0h0a.26.26,0,0,1,0-.37L83.29,87.19a.27.27,0,0,1,.38,0h0a.27.27,0,0,1,0,.38Z"/><path d="M84.09,86.54a.25.25,0,0,0,.28.3c.18,0,.22.07.08.19a.25.25,0,0,0,0,.41c.15.11.12.2-.06.2a.25.25,0,0,0-.25.32c0,.18,0,.23-.17.11a.25.25,0,0,0-.4.09c-.08.17-.17.16-.2,0a.25.25,0,0,0-.36-.19c-.17.08-.23,0-.14-.15a.25.25,0,0,0-.16-.38c-.18,0-.18-.14,0-.21a.25.25,0,0,0,.12-.39c-.1-.15,0-.22.13-.16a.25.25,0,0,0,.35-.22c0-.18.11-.2.2,0a.25.25,0,0,0,.41.05C84,86.31,84.12,86.36,84.09,86.54Z"/><path d="M71.62,97.68a.36.36,0,0,0,.4.44c.26,0,.32.1.11.28a.36.36,0,0,0,0,.59c.22.16.17.28-.09.28a.36.36,0,0,0-.37.47c.07.26,0,.33-.25.16a.36.36,0,0,0-.58.13c-.12.24-.25.22-.29,0a.36.36,0,0,0-.53-.28c-.24.11-.33,0-.2-.22a.36.36,0,0,0-.23-.55c-.26-.07-.26-.21,0-.3a.36.36,0,0,0,.18-.56c-.15-.22-.07-.33.18-.24a.36.36,0,0,0,.5-.32c0-.27.16-.3.29-.07a.36.36,0,0,0,.59.08C71.55,97.35,71.67,97.42,71.62,97.68Z"/><path d="M92,94a.24.24,0,0,1,.09.32h0a.24.24,0,0,1-.29.17L77.69,88.92a.24.24,0,0,1-.09-.32h0a.24.24,0,0,1,.29-.17Z"/><path d="M76.81,88.5a.25.25,0,0,0,.15-.38c-.09-.16,0-.23.14-.15a.25.25,0,0,0,.36-.2c0-.18.12-.2.2,0a.25.25,0,0,0,.4.08c.14-.12.22-.07.17.11a.25.25,0,0,0,.26.32c.18,0,.21.08.06.19a.25.25,0,0,0,0,.41c.15.12.11.2-.07.19a.25.25,0,0,0-.27.31c0,.18,0,.22-.18.1a.25.25,0,0,0-.41.06c-.09.16-.18.14-.2,0a.25.25,0,0,0-.35-.21c-.17.07-.23,0-.13-.16a.25.25,0,0,0-.13-.39C76.63,88.64,76.63,88.55,76.81,88.5Z"/><path d="M87.64,92.91a.36.36,0,0,0,.22-.55c-.14-.23,0-.33.2-.22a.36.36,0,0,0,.52-.28c0-.26.18-.28.3,0a.36.36,0,0,0,.58.12c.2-.17.32-.11.25.16a.36.36,0,0,0,.37.47c.27,0,.31.12.09.28a.36.36,0,0,0,0,.59c.21.17.16.29-.11.28a.36.36,0,0,0-.39.45c0,.26-.07.33-.26.14a.36.36,0,0,0-.59.09c-.13.23-.26.2-.29-.06A.36.36,0,0,0,88,94c-.25.09-.33,0-.18-.23a.36.36,0,0,0-.19-.57C87.38,93.12,87.39,93,87.64,92.91Z"/></g></g></svg>