<svg xmlns="http://www.w3.org/2000/svg" viewBox="0 0 61.3 80.23"><defs><style>.cls-1{fill:#fff;}</style></defs><title>Ресурс 37clock</title><g id="Слой_2" data-name="Слой 2"><g id="Layer_1" data-name="Layer 1"><circle class="cls-1" cx="30.19" cy="49.84" r="27.46"/><path d="M33,18.69a1.71,1.71,0,0,1-1.71,1.71h-3a1.71,1.71,0,0,1-1.71-1.71h0A1.71,1.71,0,0,1,28.35,17h3A1.71,1.71,0,0,1,33,18.69Z"/><path d="M32.1,5.51c0,.95-.54,1.71-1.21,1.71H28.8c-.67,0-1.21-.77-1.21-1.71h0c0-.95.54-1.71,1.21-1.71h2.09c.67,0,1.21.77,1.21,1.71Z"/><path d="M33.1,13.92a1.71,1.71,0,0,1-1.71,1.71h-3a1.71,1.71,0,0,1-1.71-1.71h0a1.71,1.71,0,0,1,1.71-1.71h3a1.71,1.71,0,0,1,1.71,1.71Z"/><path d="M32.28,16.09a1.56,1.56,0,0,1-1.33,1.71H28.66a1.56,1.56,0,0,1-1.33-1.71h0a1.56,1.56,0,0,1,1.33-1.71h2.29a1.56,1.56,0,0,1,1.33,1.71Z"/><path d="M32.71,16.95c0,.34-.71.62-1.6.62H28.36c-.88,0-1.6-.28-1.6-.62h0c0-.34.71-.62,1.6-.62h2.75c.88,0,1.6.28,1.6.62Z"/><path d="M32.82,16.9c0,.34-.71.62-1.6.62H28.47c-.88,0-1.6-.28-1.6-.62h0c0-.34.71-.62,1.6-.62h2.75c.88,0,1.6.28,1.6.62Z"/><path d="M23.19,11.35a2.36,2.36,0,0,1-.22-.63c-.17-.87.18-2.37,1.33-2.37a6.31,6.31,0,0,1,2.15.73,10.1,10.1,0,0,0,2.38.61,8.26,8.26,0,0,0,3.48-.34,11.14,11.14,0,0,1,3-.93c1.3,0,1.8,1.51,1.41,2.62-.52,1.48-2.35,2.08-3.74,2.34a13.06,13.06,0,0,1-2.77.17C27.84,13.48,24.49,13.88,23.19,11.35Z"/><ellipse cx="29.85" cy="7.51" rx="5.25" ry="2.72"/><path d="M29.8,0C23.27,0,18,2.93,18,6.53s5.3,6.53,11.83,6.53,11.83-2.92,11.83-6.53S36.34,0,29.8,0Zm0,9.93c-5,0-9-1-9-3.7s4-3.76,9-3.76,9.25.93,9.25,3.68S34.78,9.93,29.8,9.93Z"/><path d="M5.16,49.57A24.68,24.68,0,0,1,29.85,24.89h0A24.69,24.69,0,0,1,54.53,49.57h0A24.69,24.69,0,0,1,29.85,74.26h0A24.69,24.69,0,0,1,5.16,49.57ZM12.58,32.3A24.35,24.35,0,0,0,5.42,49.57h0a24.35,24.35,0,0,0,7.15,17.27h0A24.35,24.35,0,0,0,29.85,74h0a24.34,24.34,0,0,0,17.27-7.15h0a24.35,24.35,0,0,0,7.15-17.27h0A24.35,24.35,0,0,0,47.12,32.3h0a24.35,24.35,0,0,0-17.27-7.15h0A24.35,24.35,0,0,0,12.58,32.3Z"/><path d="M8.37,49.65A21.87,21.87,0,0,1,30.24,27.78h0A21.87,21.87,0,0,1,52.1,49.65h0A21.87,21.87,0,0,1,30.24,71.51h0A21.87,21.87,0,0,1,8.37,49.65ZM15,34.37A21.54,21.54,0,0,0,8.63,49.65h0A21.53,21.53,0,0,0,15,64.93h0a21.54,21.54,0,0,0,15.28,6.33h0a21.54,21.54,0,0,0,15.28-6.33h0a21.53,21.53,0,0,0,6.33-15.28h0a21.54,21.54,0,0,0-6.33-15.28h0A21.54,21.54,0,0,0,30.24,28h0A21.54,21.54,0,0,0,15,34.37Z"/><path d="M5.09,49.74A24.73,24.73,0,0,1,29.82,25h0A24.73,24.73,0,0,1,54.55,49.74h0A24.73,24.73,0,0,1,29.82,74.47h0A24.73,24.73,0,0,1,5.09,49.74Zm7.43-17.3a24.39,24.39,0,0,0-7.17,17.3h0A24.39,24.39,0,0,0,12.52,67h0a24.39,24.39,0,0,0,17.3,7.17h0A24.39,24.39,0,0,0,47.12,67h0a24.39,24.39,0,0,0,7.17-17.3h0a24.39,24.39,0,0,0-7.17-17.3h0a24.39,24.39,0,0,0-17.3-7.17h0a24.39,24.39,0,0,0-17.3,7.17Z"/><path d="M9.33,49.56A20.82,20.82,0,0,1,30.15,28.74h0A20.82,20.82,0,0,1,51,49.56h0A20.82,20.82,0,0,1,30.15,70.39h0A20.82,20.82,0,0,1,9.33,49.56ZM15.61,35a20.5,20.5,0,0,0-6,14.54h0a20.5,20.5,0,0,0,6,14.54h0a20.5,20.5,0,0,0,14.54,6h0a20.5,20.5,0,0,0,14.54-6h0a20.5,20.5,0,0,0,6-14.54h0a20.5,20.5,0,0,0-6-14.54h0a20.5,20.5,0,0,0-14.54-6h0a20.49,20.49,0,0,0-14.54,6Z"/><path d="M22.91,36.89a7.33,7.33,0,0,1,7.33-7.33h0a7.33,7.33,0,0,1,7.33,7.33h0a7.33,7.33,0,0,1-7.33,7.33h0a7.33,7.33,0,0,1-7.33-7.33Zm.26,0A7.08,7.08,0,0,0,30.24,44h0a7.08,7.08,0,0,0,7.07-7.07h0a7.08,7.08,0,0,0-7.07-7.07h0a7.08,7.08,0,0,0-7.07,7.07Z"/><path d="M22.73,61.54a7.33,7.33,0,0,1,7.33-7.33h0a7.33,7.33,0,0,1,7.33,7.33h0a7.33,7.33,0,0,1-7.33,7.33h0a7.33,7.33,0,0,1-7.33-7.33Zm.26,0a7.08,7.08,0,0,0,7.07,7.07h0a7.08,7.08,0,0,0,7.07-7.07h0a7.08,7.08,0,0,0-7.07-7.07h0A7.08,7.08,0,0,0,23,61.54Z"/><path d="M23.16,61.54a6.91,6.91,0,0,1,6.91-6.91h0A6.91,6.91,0,0,1,37,61.54h0a6.91,6.91,0,0,1-6.91,6.91h0a6.91,6.91,0,0,1-6.91-6.91Zm.26,0a6.66,6.66,0,0,0,6.65,6.65h0a6.66,6.66,0,0,0,6.65-6.65h0a6.66,6.66,0,0,0-6.65-6.65h0a6.66,6.66,0,0,0-6.65,6.65Z"/><path d="M24.73,37a5.47,5.47,0,0,1,5.47-5.47h0A5.47,5.47,0,0,1,35.66,37h0a5.47,5.47,0,0,1-5.47,5.47h0A5.47,5.47,0,0,1,24.73,37ZM25,37a5.21,5.21,0,0,0,5.21,5.21h0A5.21,5.21,0,0,0,35.4,37h0a5.21,5.21,0,0,0-5.21-5.21h0A5.21,5.21,0,0,0,25,37Z"/><circle cx="30.26" cy="36.95" r="0.9"/><circle cx="29.9" cy="49.28" r="1.23"/><circle cx="30.05" cy="61.56" r="1.1"/><polygon points="36.27 51.47 40.8 53.52 46.42 55.68 51.28 57.75 51.63 57.97 51.2 57.96 46.29 56.13 40.67 53.83 36.04 52.21 29.79 49.45 29.87 49.24 36.27 51.47"/><polygon points="31.15 61.71 33.01 62.57 35.33 63.46 37.34 64.32 37.48 64.41 37.3 64.41 35.27 63.66 32.95 62.71 31.04 62.05 28.46 60.9 28.5 60.8 31.15 61.71"/><polygon points="29.45 33.45 31.16 39.55 30.96 39.61 29.07 33.58 28.25 30.77 28.23 30.37 28.45 30.7 29.45 33.45"/><polygon points="34.76 47.65 38.3 46.86 42.5 45.55 46.23 44.59 46.54 44.58 46.3 44.81 42.66 45.99 38.39 47.18 35.02 48.39 30.17 49.54 30.11 49.33 34.76 47.65"/><path d="M40.12,47.67a1.46,1.46,0,0,1-1.81-.77c-.13-.46.39-1.25,1.33-1.52s2.81-.07,2.94.39S41.06,47.4,40.12,47.67Z"/><path d="M39.2,34.59l.28-2.43-.22,0V32l.42,0H40a.41.41,0,0,0,.19-.07l-.3,2.64.22,0v.1L39,34.66v-.1Z"/><path d="M47.19,40.55h.07a4.19,4.19,0,0,1-.11.44,1.39,1.39,0,0,1-.15.33.6.6,0,0,1-.19.2.38.38,0,0,1-.24.05.79.79,0,0,1-.25-.07l-.18-.08a.6.6,0,0,0-.18-.07.2.2,0,0,0-.23.15h-.06a2.84,2.84,0,0,1,.12-.44,1.7,1.7,0,0,1,.14-.3,1.29,1.29,0,0,1,.14-.19l.08-.1.11-.11a2.56,2.56,0,0,0,.22-.26.94.94,0,0,0,.13-.25,1.07,1.07,0,0,0,.07-.3,1.29,1.29,0,0,0,0-.48c0-.12-.1-.19-.19-.2a.25.25,0,0,0-.24.16h.05a.21.21,0,0,1,.16.13.58.58,0,0,1,0,.31.78.78,0,0,1-.11.35.23.23,0,0,1-.22.12.25.25,0,0,1-.21-.16.7.7,0,0,1-.05-.36,1,1,0,0,1,.08-.32.59.59,0,0,1,.23-.26.69.69,0,0,1,.44-.08l.25,0a.57.57,0,0,1,.18.1.58.58,0,0,1,.21.29,1,1,0,0,1,0,.4,1.13,1.13,0,0,1-.09.37.71.71,0,0,1-.16.23.66.66,0,0,1-.18.12l-.25.08-.28.1a.81.81,0,0,0-.22.15.73.73,0,0,0-.17.23l0,0a.63.63,0,0,1,.55-.24l.21,0,.14,0,.14,0C47.1,40.76,47.16,40.69,47.19,40.55Z"/><path d="M50.18,60.71v0L50,60.62a.56.56,0,0,1-.1-.11.25.25,0,0,1,0-.11.16.16,0,0,1,0-.1l.07-.08.06-.05.06-.06a.09.09,0,0,0,0-.12v0l.15.12.09.11,0,.09,0,0,0,.06.06.13.07.09.1.08a.58.58,0,0,0,.19.07c.05,0,.09,0,.11,0a.1.1,0,0,0,0-.12v0a.09.09,0,0,1-.08,0,.25.25,0,0,1-.13,0,.33.33,0,0,1-.12-.1.1.1,0,0,1,0-.11.1.1,0,0,1,.1-.05.29.29,0,0,1,.15,0l.11.09a.25.25,0,0,1,.06.13.29.29,0,0,1,0,.18l-.06.09-.07.05a.24.24,0,0,1-.15,0,.44.44,0,0,1-.16-.06.48.48,0,0,1-.13-.1.31.31,0,0,1-.06-.1.25.25,0,0,1,0-.09,1,1,0,0,1,0-.11.89.89,0,0,0,0-.12.35.35,0,0,0,0-.11.32.32,0,0,0-.06-.11h0a.27.27,0,0,1,0,.25l0,.08,0,0,0,0S50.13,60.68,50.18,60.71Z"/><path d="M41.9,69.19h0a1.68,1.68,0,0,1,0-.19.57.57,0,0,1,0-.15.26.26,0,0,1,0-.11.16.16,0,0,1,.08-.06l.11,0h.16a.09.09,0,0,0,.06-.1h0a1.23,1.23,0,0,1,0,.19.72.72,0,0,1,0,.14.56.56,0,0,1,0,.1V69l0,.06a1.08,1.08,0,0,0,0,.14.41.41,0,0,0,0,.12.45.45,0,0,0,0,.13.54.54,0,0,0,.1.18.1.1,0,0,0,.11,0,.1.1,0,0,0,.06-.1h0a.09.09,0,0,1-.09,0,.25.25,0,0,1-.07-.11.34.34,0,0,1,0-.15.1.1,0,0,1,.06-.09.11.11,0,0,1,.11,0,.29.29,0,0,1,.09.13.42.42,0,0,1,0,.13.25.25,0,0,1,0,.14.29.29,0,0,1-.15.11l-.1,0h-.09a.25.25,0,0,1-.14-.07.43.43,0,0,1-.09-.14.47.47,0,0,1,0-.15.29.29,0,0,1,0-.12.27.27,0,0,1,0-.08l.08-.08.09-.09a.32.32,0,0,0,.06-.1.31.31,0,0,0,0-.12h0a.27.27,0,0,1-.16.19l-.09,0h-.12S41.88,69.13,41.9,69.19Z"/><path d="M49.57,49.18v0a.43.43,0,0,1,.26.09.59.59,0,0,1,.19.26,1,1,0,0,1,.07.39.65.65,0,0,1-.23.57,1,1,0,0,1-.59.16.79.79,0,0,1-.33-.06.58.58,0,0,1-.22-.17.64.64,0,0,1-.1-.22,1,1,0,0,1,0-.13.82.82,0,0,1,0-.1,1,1,0,0,1,0-.25.5.5,0,0,1,.1-.2.22.22,0,0,1,.18-.08.25.25,0,0,1,.22.13.59.59,0,0,1,.08.33.55.55,0,0,1-.08.33.24.24,0,0,1-.2.11.24.24,0,0,0,.24.2.23.23,0,0,0,.24-.19,2,2,0,0,0,.06-.53v-.22c0-.24-.05-.35-.16-.35h-.08l0,0h0s-.05,0-.05-.07,0-.07.05-.07h0l0,0h.08c.11,0,.16-.12.16-.36v-.27a1.58,1.58,0,0,0,0-.41.19.19,0,0,0-.2-.17.21.21,0,0,0-.19.1c.13,0,.19.19.19.43a.58.58,0,0,1-.08.32.25.25,0,0,1-.21.11.23.23,0,0,1-.21-.14.64.64,0,0,1-.08-.33.72.72,0,0,1,.05-.27.48.48,0,0,1,.2-.23.79.79,0,0,1,.43-.1,1,1,0,0,1,.34.05.51.51,0,0,1,.26.2.74.74,0,0,1,.1.42A.58.58,0,0,1,49.57,49.18Z"/><path d="M30.43,72.52v0a.18.18,0,0,1-.11,0,.24.24,0,0,1-.08-.11.42.42,0,0,1,0-.16.28.28,0,0,1,.1-.24.42.42,0,0,1,.25-.07.34.34,0,0,1,.14,0,.25.25,0,0,1,.09.07.28.28,0,0,1,0,.09v.05a.29.29,0,0,1,0,0,.41.41,0,0,1,0,.11.2.2,0,0,1,0,.09.1.1,0,0,1-.07,0,.11.11,0,0,1-.09-.05.25.25,0,0,1,0-.14.23.23,0,0,1,0-.14.1.1,0,0,1,.08,0,.1.1,0,0,0-.1-.08.1.1,0,0,0-.1.08.82.82,0,0,0,0,.22v.09c0,.1,0,.15.07.15h.07s0,0,0,0,0,0,0,0h-.07s-.07,0-.07.15v.11a.66.66,0,0,0,0,.17.08.08,0,0,0,.09.07.09.09,0,0,0,.08,0c-.05,0-.08-.08-.08-.18a.25.25,0,0,1,0-.13.11.11,0,0,1,.09,0,.1.1,0,0,1,.09.06.27.27,0,0,1,0,.14.3.3,0,0,1,0,.12.2.2,0,0,1-.09.1.34.34,0,0,1-.18,0l-.14,0a.22.22,0,0,1-.11-.08.32.32,0,0,1,0-.18A.24.24,0,0,1,30.43,72.52Z"/><path d="M19.07,69.56h0a.18.18,0,0,1-.07-.09.25.25,0,0,1,0-.14.42.42,0,0,1,.07-.15.27.27,0,0,1,.21-.15.43.43,0,0,1,.24.08.33.33,0,0,1,.1.1.24.24,0,0,1,0,.11.28.28,0,0,1,0,.1l0,0,0,0-.07.08-.08,0a.09.09,0,0,1-.08,0,.1.1,0,0,1,0-.1.25.25,0,0,1,0-.13.24.24,0,0,1,.11-.1.1.1,0,0,1,.1,0,.1.1,0,0,0-.17-.12.81.81,0,0,0-.14.17l-.05.08c-.06.08-.06.14,0,.16l0,0h0s0,0,0,0,0,0,0,0h0v0l0,0s-.08,0-.14.09l-.06.09a.66.66,0,0,0-.08.15.08.08,0,0,0,0,.11.09.09,0,0,0,.09,0s0-.11,0-.2a.25.25,0,0,1,.1-.09.1.1,0,0,1,.1,0,.1.1,0,0,1,0,.1.27.27,0,0,1,0,.13.28.28,0,0,1-.08.08.2.2,0,0,1-.13,0,.34.34,0,0,1-.17-.07.44.44,0,0,1-.1-.1.22.22,0,0,1,0-.13.32.32,0,0,1,.06-.17A.25.25,0,0,1,19.07,69.56Z"/><path d="M45.52,59.83l.14-.6L45,59.07,45,59l1.34-1.63.44.1-.43,1.84.2,0,0,.1-.2,0-.14.6.2,0,0,.1-1.07-.25,0-.1ZM46,57.92,45.09,59l.6.14Z"/><path d="M11.09,61.26l-.22.13.15.25,0,0-.89.08-.1-.16.68-.41,0-.07,0,0,0,.07.22-.13,0-.07,0,0,.24.4,0,0Zm-.71.43.58-.05-.13-.22Z"/><path d="M8,49.93H7.71v.3h0l-.8-.39v-.19h.8v-.09h0v.09H8v-.09H8V50H8Zm-.83,0,.53.26v-.26Z"/><path d="M39.11,65.09H39l.19-1.44a1.09,1.09,0,0,0,.5.15,1.48,1.48,0,0,0,.32,0l.18,0,.13,0s0,0,0,.05a.8.8,0,0,1-.06.22l-.07.12-.09.13a.75.75,0,0,1-.28.19.92.92,0,0,1-.43.06l-.1,0-.15,0-.07.51a.71.71,0,0,1,.54-.21.78.78,0,0,1,.41.14.7.7,0,0,1,.14.14.76.76,0,0,1,.1.19,1.15,1.15,0,0,1,.06.47,1,1,0,0,1-.14.5.59.59,0,0,1-.3.24,1.09,1.09,0,0,1-.43,0,.78.78,0,0,1-.41-.13.67.67,0,0,1-.12-.12.44.44,0,0,1-.07-.14.81.81,0,0,1,0-.29.82.82,0,0,1,.11-.38.26.26,0,0,1,.24-.13.32.32,0,0,1,.19.1.47.47,0,0,1,.08.38.57.57,0,0,1-.1.32.24.24,0,0,1-.21.1.22.22,0,0,0,.1.14l.13,0a.21.21,0,0,0,.2-.09.63.63,0,0,0,.1-.24c0-.05,0-.1,0-.15s0-.11,0-.17V65.6a.91.91,0,0,0-.07-.53.3.3,0,0,0-.22-.15A.42.42,0,0,0,39.11,65.09Z"/><path d="M41.49,29.5h0L41.8,29a.47.47,0,0,0,.16.15l.12.06.08,0h.06s0,0,0,0l-.06.07,0,0-.06,0a.33.33,0,0,1-.14,0,.4.4,0,0,1-.17-.06l0,0-.05,0-.12.18a.3.3,0,0,1,.24,0,.32.32,0,0,1,.13.13.27.27,0,0,1,0,.08.35.35,0,0,1,0,.09.48.48,0,0,1-.07.19.45.45,0,0,1-.15.17.25.25,0,0,1-.16,0,.44.44,0,0,1-.17-.06.32.32,0,0,1-.13-.13.27.27,0,0,1,0-.07.17.17,0,0,1,0-.07.35.35,0,0,1,0-.12.34.34,0,0,1,.11-.12.11.11,0,0,1,.11,0,.13.13,0,0,1,.05.07.2.2,0,0,1,0,.16.24.24,0,0,1-.1.1.1.1,0,0,1-.1,0,.09.09,0,0,0,0,.07l0,0a.09.09,0,0,0,.09,0,.25.25,0,0,0,.08-.07l0-.05,0-.06,0,0a.38.38,0,0,0,.07-.21.13.13,0,0,0-.05-.1A.18.18,0,0,0,41.49,29.5Z"/><path d="M29.73,26.53v.29a.26.26,0,0,1,.16-.06.17.17,0,0,1,.11,0,.23.23,0,0,1,.07.11.51.51,0,0,1,0,.18.41.41,0,0,1,0,.22.24.24,0,0,1-.12.11l-.13,0a.24.24,0,0,1-.22-.12.67.67,0,0,1-.09-.25v-.12s0-.07,0-.1a1.21,1.21,0,0,1,0-.3.49.49,0,0,1,.11-.22.26.26,0,0,1,.2-.08.28.28,0,0,1,.16,0,.2.2,0,0,1,.08.09.3.3,0,0,1,0,.1.29.29,0,0,1,0,.13.09.09,0,0,1-.09.06.1.1,0,0,1-.09,0,.17.17,0,0,1,0-.11.29.29,0,0,1,0-.12s0-.05.07-.05a.09.09,0,0,0-.08,0,.08.08,0,0,0-.07,0,.25.25,0,0,0,0,.09A.94.94,0,0,0,29.73,26.53Zm.1.76v-.36c0-.07,0-.1,0-.1s0,0,0,.1v.36c0,.06,0,.1,0,.1S29.83,27.35,29.83,27.29Z"/><path d="M20.39,64h.06v.12c0,.1,0,.15,0,.15s0,0,.09-.08a.58.58,0,0,1,.15-.12l.09,0h.12a.43.43,0,0,1,.16,0l.16.09.15.08.12,0a.22.22,0,0,0,.18-.05.35.35,0,0,0,.08-.13h.07a6,6,0,0,0-.25.6q-.1.28-.16.51l0,.22c0,.07,0,.13,0,.19s0,.25,0,.38a3.5,3.5,0,0,1,0,.43.82.82,0,0,1-.12.32.25.25,0,0,1-.24.12.34.34,0,0,1-.19-.07.41.41,0,0,1-.13-.2.81.81,0,0,1,0-.3,1.12,1.12,0,0,1,.09-.37,1.64,1.64,0,0,1,.15-.28l.22-.29.2-.25.11-.16,0-.05.05-.1v0a.48.48,0,0,1-.38.16l-.09,0-.1,0-.09,0-.11-.06-.09,0c-.13,0-.21.12-.22.39h-.06Z"/><path d="M14,59v0a.57.57,0,0,1-.36-.69,1,1,0,0,1,.1-.3.56.56,0,0,1,.24-.24.84.84,0,0,1,.85.13.57.57,0,0,1,.16.3,1,1,0,0,1,0,.31.57.57,0,0,1-.54.56v0a.42.42,0,0,1,.15,0,.51.51,0,0,1,.21.21.83.83,0,0,1,.06.16,1,1,0,0,1,0,.36.66.66,0,0,1-.85.62.66.66,0,0,1-.64-.83,1.12,1.12,0,0,1,.1-.32.6.6,0,0,1,.2-.23l.15-.07A.4.4,0,0,1,14,59Zm.38-.25.11-.73q0-.23-.08-.25c-.08,0-.12.06-.15.21l-.11.73c0,.15,0,.23.08.25S14.36,58.9,14.39,58.75Zm-.2,1.4.12-.84c0-.15,0-.23-.08-.25s-.12.06-.15.21l-.12.84c0,.15,0,.23.08.25S14.16,60.3,14.18,60.15Z"/><path d="M11.71,50.25v-.68a.6.6,0,0,1-.37.15.4.4,0,0,1-.19,0,.46.46,0,0,1-.16-.14.71.71,0,0,1-.11-.24,1.35,1.35,0,0,1,0-.34,1,1,0,0,1,.12-.53.59.59,0,0,1,.29-.25.91.91,0,0,1,.31-.06.55.55,0,0,1,.43.18,1.21,1.21,0,0,1,.14.2,1.05,1.05,0,0,1,.1.24,2.53,2.53,0,0,1,.09.45c0,.07,0,.13,0,.19s0,.11,0,.15a3.73,3.73,0,0,1,0,.39,2.06,2.06,0,0,1-.1.44,1,1,0,0,1-.25.4.61.61,0,0,1-.44.17.62.62,0,0,1-.49-.16.58.58,0,0,1-.14-.39.75.75,0,0,1,0-.21A.37.37,0,0,1,11,50a.22.22,0,0,1,.16-.07.25.25,0,0,1,.22.11.46.46,0,0,1,.08.27.64.64,0,0,1-.06.28.19.19,0,0,1-.18.12.24.24,0,0,0,.21.1.2.2,0,0,0,.21-.17A1.64,1.64,0,0,0,11.71,50.25Zm-.23-1.81v.85c0,.15,0,.23.11.23s.11-.08.11-.23v-.85c0-.16,0-.23-.11-.23S11.48,48.29,11.48,48.44Z"/><path d="M13.79,41.14l.43-2.41-.22,0,0-.1.41.07.17,0h.14a.42.42,0,0,0,.19-.06l-.47,2.62.22,0,0,.1-1.11-.2,0-.1Z"/><path d="M16.2,38.87l.13,0,.12.08a.77.77,0,0,1,.19.28,1.39,1.39,0,0,1,.1.47A3.15,3.15,0,0,1,16.51,41a1.8,1.8,0,0,1-.12.22,1.19,1.19,0,0,1-.14.18.76.76,0,0,1-.29.19.5.5,0,0,1-.61-.2,1.12,1.12,0,0,1-.18-.52,2.92,2.92,0,0,1,.27-1.49A1.13,1.13,0,0,1,15.8,39,.53.53,0,0,1,16.2,38.87Zm-.17.31-.38,2.12c0,.15,0,.24.07.25s.13-.06.15-.21l.38-2.12c0-.15,0-.23-.07-.25S16.06,39,16,39.17Z"/><path d="M49.37,38l.9-.51,0-.08,0,0,.09.15,0,.06,0,0,.07,0-1,.56,0,.08,0,0-.24-.41,0,0Z"/><path d="M53.24,49.27v0l.61,0a.46.46,0,0,0,0,.22.64.64,0,0,0,0,.13l0,.07a.12.12,0,0,1,0,.05h-.11l-.06,0-.06,0a.33.33,0,0,1-.1-.1.4.4,0,0,1-.06-.17.32.32,0,0,1,0,0,.42.42,0,0,0,0-.06h-.22a.3.3,0,0,1,.13.21.33.33,0,0,1,0,.18l0,.07-.07.05a.48.48,0,0,1-.19.06.43.43,0,0,1-.22,0,.24.24,0,0,1-.12-.1.48.48,0,0,1-.05-.18.33.33,0,0,1,0-.18l0-.06.05,0,.12,0a.35.35,0,0,1,.17,0,.11.11,0,0,1,.07.09.14.14,0,0,1,0,.09s-.07.05-.15.06a.24.24,0,0,1-.14,0,.1.1,0,0,1-.06-.08.1.1,0,0,0-.05.05.13.13,0,0,0,0,.06.09.09,0,0,0,.05.08l.11,0h.19a.37.37,0,0,0,.21-.07.12.12,0,0,0,0-.1A.17.17,0,0,0,53.24,49.27Z"/><path d="M18.81,69.29h0l-.36.49a.46.46,0,0,0-.15-.16l-.12-.06-.07,0-.05,0s0,0,0,0l.07-.07,0,0,.06,0a.34.34,0,0,1,.14,0,.39.39,0,0,1,.17.07l0,0,.05,0,.13-.18a.3.3,0,0,1-.24,0,.32.32,0,0,1-.12-.14.26.26,0,0,1,0-.08.31.31,0,0,1,0-.09.5.5,0,0,1,.07-.19.43.43,0,0,1,.15-.16.24.24,0,0,1,.16,0,.46.46,0,0,1,.17.07.33.33,0,0,1,.13.13.27.27,0,0,1,0,.07.19.19,0,0,1,0,.07.34.34,0,0,1,0,.12.35.35,0,0,1-.12.12.11.11,0,0,1-.11,0,.13.13,0,0,1-.05-.08.2.2,0,0,1,0-.16.25.25,0,0,1,.1-.1.11.11,0,0,1,.1,0,.1.1,0,0,0,0-.07l0,0a.09.09,0,0,0-.09,0,.25.25,0,0,0-.09.07l0,.05,0,.06,0,0a.38.38,0,0,0-.08.21.12.12,0,0,0,.05.1A.18.18,0,0,0,18.81,69.29Z"/><path d="M7.47,49.39v0l-.61,0a.46.46,0,0,0,0-.21.64.64,0,0,0,0-.13l0-.07a.14.14,0,0,1,0-.05H7l.05,0,.06,0a.32.32,0,0,1,.09.11.41.41,0,0,1,0,.18v0a.41.41,0,0,0,0,.07h.22a.3.3,0,0,1-.11-.22.32.32,0,0,1,0-.18l.05-.06.07,0a.51.51,0,0,1,.19,0,.44.44,0,0,1,.22,0A.25.25,0,0,1,8,49a.47.47,0,0,1,0,.18.31.31,0,0,1,0,.18l0,.06-.06,0-.12,0a.34.34,0,0,1-.16,0,.11.11,0,0,1-.06-.09.14.14,0,0,1,0-.08.2.2,0,0,1,.15,0,.24.24,0,0,1,.14,0,.1.1,0,0,1,0,.08.1.1,0,0,0,.06,0,.16.16,0,0,0,0-.06.09.09,0,0,0,0-.08l-.11,0H7.66a.39.39,0,0,0-.22,0,.12.12,0,0,0-.05.1A.18.18,0,0,0,7.47,49.39Z"/><path d="M10.29,38.5v0l-.52-.32A.47.47,0,0,0,9.89,38a.62.62,0,0,0,.05-.12.41.41,0,0,0,0-.08.14.14,0,0,1,0-.06h0l.08.06,0,0,0,.06a.34.34,0,0,1,0,.14.41.41,0,0,1,0,.18l0,0,0,.06.19.11a.3.3,0,0,1,0-.25.32.32,0,0,1,.12-.13l.08,0h.09a.48.48,0,0,1,.19.06.44.44,0,0,1,.17.14.25.25,0,0,1,0,.16.47.47,0,0,1-.06.18.33.33,0,0,1-.12.14l-.07,0h-.07l-.12,0a.35.35,0,0,1-.13-.11.11.11,0,0,1,0-.11.14.14,0,0,1,.07-.06.2.2,0,0,1,.16,0,.24.24,0,0,1,.11.09.1.1,0,0,1,0,.1h.07l0,0a.09.09,0,0,0,0-.09.26.26,0,0,0-.08-.08l-.05,0-.06,0,0,0a.38.38,0,0,0-.22-.06.12.12,0,0,0-.09.06A.18.18,0,0,0,10.29,38.5Z"/><path d="M18.3,30.13h0L18,29.59a.47.47,0,0,0,.21-.06l.11-.07.05-.06,0,0h0a.34.34,0,0,1,0,.09.36.36,0,0,1,0,.06.51.51,0,0,1,0,.07.33.33,0,0,1-.06.13.4.4,0,0,1-.14.12l0,0-.06,0,.09.2a.3.3,0,0,1,.15-.2.34.34,0,0,1,.18,0l.08,0,.08,0a.47.47,0,0,1,.13.15.43.43,0,0,1,.07.21.24.24,0,0,1-.05.15.43.43,0,0,1-.14.12.31.31,0,0,1-.18,0h-.07l-.06,0a.32.32,0,0,1-.08-.09.35.35,0,0,1,0-.16.11.11,0,0,1,.05-.1.14.14,0,0,1,.09,0s.08,0,.11.12a.24.24,0,0,1,0,.14.1.1,0,0,1-.05.08.09.09,0,0,0,.07,0l.05,0a.09.09,0,0,0,.05-.08.26.26,0,0,0,0-.11l0-.06,0-.06,0,0A.38.38,0,0,0,18.5,30a.12.12,0,0,0-.11,0A.18.18,0,0,0,18.3,30.13Z"/><path d="M18.92,29.82h0l-.26-.55a.48.48,0,0,0,.21-.06l.11-.07.05-.06,0,0h0a.34.34,0,0,1,0,.09.42.42,0,0,1,0,.06.65.65,0,0,1,0,.07.33.33,0,0,1-.06.13.4.4,0,0,1-.14.12l0,0-.06,0,.09.2a.3.3,0,0,1,.14-.2.33.33,0,0,1,.18,0l.08,0,.08,0a.48.48,0,0,1,.13.15.42.42,0,0,1,.07.21.24.24,0,0,1-.05.15.47.47,0,0,1-.14.12.34.34,0,0,1-.18,0l-.07,0-.06,0a.34.34,0,0,1-.08-.1.35.35,0,0,1,0-.16.11.11,0,0,1,.05-.1.13.13,0,0,1,.09,0s.08,0,.11.12a.24.24,0,0,1,0,.14.1.1,0,0,1-.05.08.09.09,0,0,0,.07,0l.06,0a.09.09,0,0,0,.05-.08.27.27,0,0,0,0-.11l0-.06,0-.07,0,0a.39.39,0,0,0-.14-.17.13.13,0,0,0-.11,0A.18.18,0,0,0,18.92,29.82Z"/><path d="M41.72,69.37h0l.17.59a.46.46,0,0,0-.22,0l-.12.05-.06,0,0,0,0,0a.35.35,0,0,1,0-.1.44.44,0,0,1,0-.06v-.06a.31.31,0,0,1,.08-.12.4.4,0,0,1,.16-.1h0l.06,0-.06-.21a.3.3,0,0,1-.18.17.32.32,0,0,1-.18,0l-.08,0-.07-.06a.49.49,0,0,1-.1-.17.44.44,0,0,1,0-.22.24.24,0,0,1,.08-.14.45.45,0,0,1,.16-.09.33.33,0,0,1,.18,0l.07,0,.05,0a.36.36,0,0,1,.08.27.1.1,0,0,1-.07.09.13.13,0,0,1-.09,0s-.07-.06-.09-.13a.24.24,0,0,1,0-.14.1.1,0,0,1,.07-.07.1.1,0,0,0-.06,0h-.06a.09.09,0,0,0-.06.07.25.25,0,0,0,0,.11l0,.06,0,.07,0,0a.39.39,0,0,0,.12.19.12.12,0,0,0,.11,0A.18.18,0,0,0,41.72,69.37Z"/><path d="M52.71,48.77l1,0v-.09h0v.18a.66.66,0,0,0,0,.07V49a.16.16,0,0,0,0,.07l-1.12,0v.09h0v-.47h0Z"/><path d="M50.76,38.15l0,.05a.25.25,0,0,1,0,.06.33.33,0,0,1,0,.14.59.59,0,0,1-.12.16,1.16,1.16,0,0,1-.23.16,1.22,1.22,0,0,1-.25.11l-.1,0h-.09a.33.33,0,0,1-.14,0,.21.21,0,0,1-.08-.08.22.22,0,0,1,0-.17.46.46,0,0,1,.12-.2,1.06,1.06,0,0,1,.26-.2,1.11,1.11,0,0,1,.3-.12.49.49,0,0,1,.23,0A.22.22,0,0,1,50.76,38.15Zm-.15,0-.79.45c-.06,0-.08.06-.06.09s.05,0,.11,0l.79-.45c.06,0,.08-.06.06-.09S50.67,38.15,50.61,38.18Z"/><path d="M50.57,61.47l0,0,0,0a.32.32,0,0,1-.14,0,.58.58,0,0,1-.2,0,1.17,1.17,0,0,1-.26-.1,1.23,1.23,0,0,1-.23-.15l-.07-.08-.05-.08a.32.32,0,0,1,0-.14.22.22,0,0,1,0-.11.23.23,0,0,1,.14-.11.48.48,0,0,1,.23,0,1,1,0,0,1,.3.11,1.11,1.11,0,0,1,.26.19.46.46,0,0,1,.13.2A.22.22,0,0,1,50.57,61.47Zm-.1-.11-.8-.43c-.06,0-.09,0-.11,0s0,.06.06.09l.8.42c.06,0,.09,0,.11,0S50.53,61.39,50.47,61.36Z"/><path d="M29.8,73.05h-.05l-.05,0a.31.31,0,0,1-.1-.1.56.56,0,0,1-.07-.19,1.32,1.32,0,0,1,0-.55l0-.1,0-.08a.33.33,0,0,1,.11-.1.21.21,0,0,1,.27,0,.48.48,0,0,1,.11.21,1.23,1.23,0,0,1,0,.64A.48.48,0,0,1,30,73,.23.23,0,0,1,29.8,73.05Zm.05-.14,0-.91q0-.1,0-.1s0,0-.05.1l0,.91c0,.07,0,.1,0,.1S29.85,73,29.85,72.91Z"/><path d="M9.73,61.16l0-.05a.26.26,0,0,1,0-.06.33.33,0,0,1,0-.14.61.61,0,0,1,.12-.16,1.18,1.18,0,0,1,.22-.17,1.14,1.14,0,0,1,.25-.11l.1,0h.09a.34.34,0,0,1,.14,0,.21.21,0,0,1,.1.25.47.47,0,0,1-.12.2,1.26,1.26,0,0,1-.55.32.48.48,0,0,1-.23,0A.22.22,0,0,1,9.73,61.16Zm.15,0,.78-.46c.06,0,.08-.06.06-.09s-.05,0-.11,0L9.82,61c-.06,0-.08.06-.06.09S9.81,61.16,9.87,61.13Z"/><path d="M10.23,37.34l0,0,0,0a.32.32,0,0,1,.14,0,.6.6,0,0,1,.2,0,1.18,1.18,0,0,1,.25.11,1.12,1.12,0,0,1,.23.16l.07.08.05.08a.32.32,0,0,1,0,.14.22.22,0,0,1,0,.11.23.23,0,0,1-.14.11.47.47,0,0,1-.23,0,1.1,1.1,0,0,1-.3-.12,1.07,1.07,0,0,1-.26-.19.47.47,0,0,1-.12-.2A.22.22,0,0,1,10.23,37.34Zm.1.11.79.45c.06,0,.09,0,.11,0s0-.06-.06-.09l-.79-.45q-.09,0-.11,0S10.27,37.42,10.33,37.45Z"/><path d="M30.54,26.23h.05l.06,0a.32.32,0,0,1,.1.1.61.61,0,0,1,.07.19,1.16,1.16,0,0,1,0,.28,1.14,1.14,0,0,1,0,.27l0,.1,0,.08a.33.33,0,0,1-.11.1.23.23,0,0,1-.11,0,.24.24,0,0,1-.16-.07.47.47,0,0,1-.11-.21,1.23,1.23,0,0,1,0-.64.48.48,0,0,1,.12-.2A.23.23,0,0,1,30.54,26.23Zm0,.14v.91c0,.06,0,.1,0,.1s0,0,0-.1v-.91c0-.06,0-.1,0-.1S30.49,26.3,30.49,26.37Z"/><path d="M35.16,64.95v0l.1.08.07.07a.17.17,0,0,1,0,.07.11.11,0,0,1,0,.07l0,.06,0,0,0,0a.06.06,0,0,0,0,.08h0l-.1-.08-.06-.07,0-.06,0,0,0,0,0-.08,0-.06L34.83,65l-.13,0s-.06,0-.07,0a.07.07,0,0,0,0,.08h0a.06.06,0,0,1,.05,0l.08,0a.22.22,0,0,1,.08.07.07.07,0,0,1,0,.07.07.07,0,0,1-.07,0l-.1,0-.07-.06a.17.17,0,0,1,0-.09.2.2,0,0,1,0-.12l0-.06,0,0a.17.17,0,0,1,.1,0l.11,0,.09.06a.19.19,0,0,1,0,.07.17.17,0,0,1,0,.06.69.69,0,0,1,0,.07.58.58,0,0,0,0,.08.24.24,0,0,0,0,.07l0,.07h0a.18.18,0,0,1,0-.17l0-.05,0,0,0,0S35.19,65,35.16,64.95Z"/><path d="M30,67.51h0l.07,0a.16.16,0,0,1,.05.07.27.27,0,0,1,0,.11.18.18,0,0,1-.06.16.28.28,0,0,1-.17,0l-.09,0-.06,0,0-.06v-.06a.27.27,0,0,1,0-.07.14.14,0,0,1,0-.06l0,0a.07.07,0,0,1,.06,0,.17.17,0,0,1,0,.09.15.15,0,0,1,0,.09.07.07,0,0,1-.06,0,.07.07,0,0,0,.07.06.07.07,0,0,0,.07-.05.57.57,0,0,0,0-.15v-.06c0-.07,0-.1,0-.1h0s0,0,0,0,0,0,0,0h0s0,0,0-.1v-.08a.46.46,0,0,0,0-.12.06.06,0,0,0-.06,0,.06.06,0,0,0-.05,0s.05.05.05.12a.17.17,0,0,1,0,.09.07.07,0,0,1-.06,0,.07.07,0,0,1-.06,0,.18.18,0,0,1,0-.09.21.21,0,0,1,0-.08.14.14,0,0,1,.06-.07.22.22,0,0,1,.12,0l.09,0a.14.14,0,0,1,.07.06.21.21,0,0,1,0,.12A.16.16,0,0,1,30,67.51Z"/><path d="M24.51,64.88l.14-.11-.12-.16,0,0,.58-.12.08.1-.42.32,0,0,0,0,0,0-.14.11,0,0,0,0-.19-.25,0,0Zm.44-.34-.38.08.1.14Z"/><path d="M29.78,55.23v.19a.18.18,0,0,1,.1,0l.07,0a.15.15,0,0,1,0,.07.36.36,0,0,1,0,.12.27.27,0,0,1,0,.15.16.16,0,0,1-.08.07l-.09,0a.16.16,0,0,1-.14-.08.46.46,0,0,1-.06-.17V55.5a.62.62,0,0,1,0-.06.8.8,0,0,1,0-.2.32.32,0,0,1,.07-.14.17.17,0,0,1,.13-.05.18.18,0,0,1,.11,0,.13.13,0,0,1,.05.06.2.2,0,0,1,0,.07.2.2,0,0,1,0,.09.06.06,0,0,1-.06,0,.07.07,0,0,1-.06,0,.12.12,0,0,1,0-.07.19.19,0,0,1,0-.08,0,0,0,0,1,0,0,.06.06,0,0,0-.05,0,.05.05,0,0,0,0,0,.16.16,0,0,0,0,.06A.7.7,0,0,0,29.78,55.23Zm.06.51V55.5s0-.06,0-.06,0,0,0,.06v.24s0,.07,0,.07S29.84,55.79,29.84,55.74Z"/><path d="M35.07,59l.63-.28,0-.06h0l0,.11,0,0,0,0,0,0-.69.3,0,.06h0L35,58.91h0Z"/><path d="M24.78,58.9v0l-.33-.24a.32.32,0,0,0,.1-.1l0-.08v0a.09.09,0,0,1,0,0h0l0,0,0,0,0,0a.22.22,0,0,1,0,.1.26.26,0,0,1,0,.11l0,0,0,0,.12.09a.2.2,0,0,1,0-.16.22.22,0,0,1,.09-.08l.05,0H25l.12,0a.29.29,0,0,1,.11.1.16.16,0,0,1,0,.11.3.3,0,0,1,0,.11.22.22,0,0,1-.09.09H25l-.08,0a.23.23,0,0,1-.08-.08.07.07,0,0,1,0-.08l.05,0a.13.13,0,0,1,.1,0,.16.16,0,0,1,.07.07.07.07,0,0,1,0,.07h0l0,0a.06.06,0,0,0,0-.06l0-.06,0,0,0,0,0,0a.25.25,0,0,0-.14-.05.08.08,0,0,0-.07,0A.12.12,0,0,0,24.78,58.9Z"/><path d="M36,59.16v0a.17.17,0,0,1,0,0,.23.23,0,0,1,0,.09.38.38,0,0,1-.09.1l-.16.09-.18.06h-.13l-.09,0a.15.15,0,0,1,0-.06.15.15,0,0,1,0-.12.32.32,0,0,1,.09-.12.7.7,0,0,1,.18-.11.69.69,0,0,1,.21-.06.32.32,0,0,1,.16,0A.15.15,0,0,1,36,59.16Zm-.1,0-.55.24s-.06,0,0,.06,0,0,.07,0l.55-.24s.06,0,0-.06S35.92,59.15,35.88,59.17Z"/><path d="M34.88,64.45l0,0,0,0,.09,0h.13l.17.06.16.1.05,0,0,.05a.22.22,0,0,1,0,.09.14.14,0,0,1,0,.07.15.15,0,0,1-.09.08.31.31,0,0,1-.16,0,.7.7,0,0,1-.2-.07A.74.74,0,0,1,35,64.7a.31.31,0,0,1-.09-.13A.15.15,0,0,1,34.88,64.45Zm.07.07.54.27s.06,0,.07,0,0,0,0-.06L35,64.47s-.06,0-.07,0S34.91,64.5,35,64.52Z"/><path d="M30.38,67.16h0l0,0a.22.22,0,0,1,.07.07.4.4,0,0,1,0,.13.76.76,0,0,1,0,.18.75.75,0,0,1,0,.18l0,.07,0,.05a.21.21,0,0,1-.07.07l-.07,0a.15.15,0,0,1-.11,0,.32.32,0,0,1-.07-.14.71.71,0,0,1,0-.21.72.72,0,0,1,0-.21.33.33,0,0,1,.08-.13A.16.16,0,0,1,30.38,67.16Zm0,.09,0,.61s0,.07,0,.07,0,0,0-.06l0-.61s0-.06,0-.07S30.35,67.21,30.35,67.25Z"/><path d="M25.43,64.85l0,0v0a.22.22,0,0,1,0,.09.37.37,0,0,1-.07.12.78.78,0,0,1-.14.13l-.16.09-.07,0h-.16l-.06,0a.15.15,0,0,1,0-.11.32.32,0,0,1,.06-.14.73.73,0,0,1,.15-.15.7.7,0,0,1,.19-.1.31.31,0,0,1,.16,0A.15.15,0,0,1,25.43,64.85Zm-.09,0-.49.36s0,0,0,.07,0,0,.07,0l.49-.36s0,0,0-.06S25.37,64.86,25.33,64.88Z"/><path d="M24.8,58.12l0,0,0,0,.09,0,.13,0,.16.09.14.12,0,.06,0,.06a.2.2,0,0,1,0,.1.15.15,0,0,1,0,.07.15.15,0,0,1-.1.06.32.32,0,0,1-.16,0,.72.72,0,0,1-.19-.1.7.7,0,0,1-.16-.14.32.32,0,0,1-.07-.14A.15.15,0,0,1,24.8,58.12Zm.06.08.5.34s.06,0,.07,0,0,0,0-.06l-.5-.34s-.06,0-.07,0S24.83,58.18,24.86,58.2Z"/><path d="M30.31,55h0l0,0a.2.2,0,0,1,.07.07.39.39,0,0,1,.05.13.79.79,0,0,1,0,.18.76.76,0,0,1,0,.18l0,.07,0,.06a.21.21,0,0,1-.07.07l-.07,0a.16.16,0,0,1-.11,0,.32.32,0,0,1-.07-.14.7.7,0,0,1,0-.21.72.72,0,0,1,0-.21.32.32,0,0,1,.08-.14A.15.15,0,0,1,30.31,55Zm0,.09v.61s0,.06,0,.06,0,0,0-.06v-.61s0-.07,0-.07S30.28,55.1,30.28,55.14Z"/><path d="M19.48,34.48l.3-2.43-.22,0v-.1L20,32h.31a.43.43,0,0,0,.19-.07l-.33,2.64.22,0v.1l-1.12-.14v-.1Z"/><path d="M21.1,34.68l.3-2.43-.22,0v-.1l.42.05h.31a.42.42,0,0,0,.19-.07l-.33,2.64.22,0v.1l-1.12-.14v-.1Z"/><circle cx="30.35" cy="30.52" r="0.17"/><circle cx="30.22" cy="43.45" r="0.17"/><circle cx="36.75" cy="37.35" r="0.17"/><circle cx="23.77" cy="37.28" r="0.17"/><circle cx="31.65" cy="30.67" r="0.17"/><circle cx="32.95" cy="31.04" r="0.17"/><circle cx="34.14" cy="31.82" r="0.17"/><circle cx="35.16" cy="32.84" r="0.17"/><circle cx="35.84" cy="33.77" r="0.17"/><circle cx="36.33" cy="34.83" r="0.17"/><circle cx="36.64" cy="35.96" r="0.17"/><circle cx="36.46" cy="38.8" r="0.17"/><circle cx="35.84" cy="40.31" r="0.17"/><circle cx="35.12" cy="41.27" r="0.17"/><circle cx="34.27" cy="42.07" r="0.17"/><circle cx="33.12" cy="42.82" r="0.17"/><circle cx="31.78" cy="43.31" r="0.17"/><circle cx="28.72" cy="43.23" r="0.17"/><circle cx="27.44" cy="42.73" r="0.17"/><circle cx="26.31" cy="42.08" r="0.17"/><circle cx="25.4" cy="41.17" r="0.17"/><circle cx="24.64" cy="40.06" r="0.17"/><circle cx="24.01" cy="38.76" r="0.17"/><circle cx="23.95" cy="35.81" r="0.17"/><circle cx="24.23" cy="34.64" r="0.17"/><circle cx="24.79" cy="33.53" r="0.17"/><circle cx="25.57" cy="32.57" r="0.17"/><circle cx="26.52" cy="31.75" r="0.17"/><circle cx="27.62" cy="31.1" r="0.17"/><circle cx="29.05" cy="30.6" r="0.17"/><polygon points="27.89 27.56 27.76 27.57 27.6 25.23 27.73 25.22 27.89 27.56"/><polygon points="32.6 27.61 32.47 27.59 32.74 25.27 32.87 25.28 32.6 27.61"/><polygon points="34.82 27.94 34.7 27.9 35.29 25.64 35.41 25.67 34.82 27.94"/><polygon points="37.15 28.55 37.03 28.5 37.77 26.28 37.9 26.32 37.15 28.55"/><rect x="38.48" y="28.24" width="2.34" height="0.13" transform="translate(-2.85 52.11) rotate(-64.77)"/><polygon points="43.19 31.72 43.08 31.65 44.42 29.73 44.53 29.8 43.19 31.72"/><polygon points="45.01 33.09 44.91 33.01 46.41 31.29 46.5 31.37 45.01 33.09"/><polygon points="46.65 34.79 46.56 34.7 48.14 33.05 48.23 33.15 46.65 34.79"/><rect x="50.24" y="39.92" width="2.22" height="0.13" transform="translate(-12.24 26.13) rotate(-25.62)"/><polygon points="51.87 44.7 51.84 44.57 53.91 44.17 53.94 44.3 51.87 44.7"/><rect x="51.25" y="42.25" width="2.13" height="0.13" transform="translate(-9.61 15.99) rotate(-15.94)"/><polygon points="52.3 47.03 52.29 46.9 54.35 46.74 54.36 46.88 52.3 47.03"/><rect x="53.32" y="50.63" width="0.13" height="2.13" transform="translate(0.11 103.51) rotate(-88.28)"/><polygon points="51.87 53.99 51.89 53.87 54.09 54.2 54.07 54.33 51.87 53.99"/><polygon points="51.39 56.34 51.43 56.22 53.38 56.88 53.34 57 51.39 56.34"/><rect x="51.48" y="57.72" width="0.13" height="2.22" transform="translate(-23.42 81.15) rotate(-65.35)"/><polygon points="48.26 62.5 48.34 62.39 50.1 63.73 50.02 63.84 48.26 62.5"/><polygon points="46.75 64.33 46.84 64.23 48.54 65.84 48.45 65.94 46.75 64.33"/><polygon points="45.13 66.04 45.22 65.95 46.89 67.6 46.79 67.69 45.13 66.04"/><polygon points="43.29 67.47 43.39 67.39 44.83 69.24 44.72 69.32 43.29 67.47"/><polygon points="39.4 69.78 39.52 69.74 40.32 71.94 40.2 71.99 39.4 69.78"/><polygon points="38.88 68.39 39.01 68.34 39.45 69.39 39.32 69.44 38.88 68.39"/><rect x="37.48" y="70.67" width="0.13" height="2.34" transform="matrix(0.96, -0.28, 0.28, 0.96, -18.44, 13.22)"/><rect x="35.11" y="71.29" width="0.13" height="2.34" transform="translate(-10.49 6.11) rotate(-8.65)"/><polygon points="36.76 69.19 36.89 69.16 37.22 70.28 37.09 70.32 36.76 69.19"/><polygon points="34.62 69.79 34.75 69.77 34.92 70.9 34.8 70.92 34.62 69.79"/><polygon points="32.56 71.72 32.69 71.71 32.91 74.04 32.78 74.05 32.56 71.72"/><rect x="32.45" y="70.18" width="0.13" height="1.06" transform="translate(-6.73 3.5) rotate(-5.58)"/><rect x="30.03" y="70.3" width="0.13" height="1.06"/><polygon points="27.59 70.12 27.72 70.13 27.66 71.18 27.53 71.18 27.59 70.12"/><polygon points="25.4 69.78 25.53 69.8 25.38 70.85 25.25 70.83 25.4 69.78"/><rect x="22.81" y="69.65" width="1.06" height="0.13" transform="translate(-50.17 71.1) rotate(-72.56)"/><rect x="20.64" y="68.81" width="1.06" height="0.13" transform="translate(-50.67 63.38) rotate(-68.54)"/><polygon points="19.61 67.4 19.72 67.47 19.18 68.38 19.06 68.31 19.61 67.4"/><polygon points="17.86 66.21 17.96 66.29 17.34 67.14 17.23 67.07 17.86 66.21"/><rect x="15.28" y="65.16" width="1.06" height="0.13" transform="translate(-42.92 32.75) rotate(-47.43)"/><rect x="13.75" y="63.59" width="1.06" height="0.13" transform="translate(-40.08 27.58) rotate(-43.78)"/><rect x="12.37" y="61.85" width="1.06" height="0.13" transform="translate(-35.82 21.59) rotate(-38.63)"/><rect x="11.05" y="59.94" width="1.06" height="0.13" transform="translate(-28.5 13.87) rotate(-30.06)"/><rect x="10.24" y="57.96" width="1.06" height="0.13" transform="translate(-24.52 10.72) rotate(-26.21)"/><rect x="9.44" y="55.95" width="1.06" height="0.13" transform="translate(-19.26 7.2) rotate(-20.82)"/><rect x="8.92" y="53.88" width="1.06" height="0.13" transform="translate(-9 2.38) rotate(-9.75)"/><rect x="8.57" y="51.69" width="1.06" height="0.13" transform="translate(-3.06 0.63) rotate(-3.41)"/><rect x="8.44" y="49.47" width="1.06" height="0.13" transform="translate(-0.38 0.07) rotate(-0.44)"/><polygon points="9.6 47.24 9.59 47.38 8.54 47.27 8.55 47.14 9.6 47.24"/><rect x="9.45" y="44.52" width="0.13" height="1.06" transform="translate(-36.51 45.92) rotate(-79.16)"/><rect x="9.95" y="42.42" width="0.13" height="1.06" transform="translate(-33.94 39.36) rotate(-72.21)"/><rect x="10.83" y="40.35" width="0.13" height="1.06" transform="translate(-30.98 34.87) rotate(-66.91)"/><polygon points="12.42 39.02 12.36 39.14 11.44 38.6 11.51 38.49 12.42 39.02"/><rect x="12.97" y="36.66" width="0.13" height="1.06" transform="translate(-24.96 26.75) rotate(-55.32)"/><rect x="14.5" y="34.8" width="0.13" height="1.06" transform="translate(-22.01 24.25) rotate(-50.75)"/><rect x="47.83" y="35.74" width="2.2" height="0.13" transform="translate(-11.67 37.69) rotate(-37.98)"/><rect x="7.68" y="41.1" width="0.13" height="2.34" transform="translate(-35.06 38.43) rotate(-74.49)"/><rect x="25.24" y="25.55" width="0.13" height="2.34" transform="translate(-4.9 5.69) rotate(-11.71)"/><polygon points="23.06 28.48 23.19 28.45 22.6 26.18 22.47 26.21 23.06 28.48"/><polygon points="21.07 29.3 21.19 29.24 20.2 27.12 20.09 27.17 21.07 29.3"/><rect x="16.39" y="29.36" width="0.13" height="2.34" transform="translate(-14.5 14.9) rotate(-34.89)"/><polygon points="15.29 32.96 15.38 32.88 13.85 31.11 13.75 31.2 15.29 32.96"/><polygon points="16.37 34.15 16.44 34.04 15.77 33.29 15.7 33.4 16.37 34.15"/><polygon points="17.95 32.93 18.03 32.83 17.45 32.01 17.37 32.1 17.95 32.93"/><polygon points="19.71 31.78 19.8 31.69 19.29 30.82 19.2 30.91 19.71 31.78"/><polygon points="21.69 30.74 21.8 30.66 21.43 29.73 21.33 29.8 21.69 30.74"/><polygon points="23.46 29.98 23.57 29.91 23.35 28.93 23.24 28.99 23.46 29.98"/><polygon points="25.69 29.35 25.81 29.29 25.63 28.3 25.52 28.36 25.69 29.35"/><polygon points="27.83 28.98 27.95 28.94 27.87 27.93 27.75 27.98 27.83 28.98"/><polygon points="32.3 28.96 32.43 28.95 32.56 27.95 32.43 27.97 32.3 28.96"/><polygon points="34.33 29.3 34.46 29.29 34.69 28.31 34.56 28.32 34.33 29.3"/><polygon points="36.61 29.86 36.74 29.87 37.05 28.91 36.92 28.91 36.61 29.86"/><polygon points="38.55 30.63 38.68 30.64 39.06 29.71 38.94 29.7 38.55 30.63"/><polygon points="40.5 31.57 40.63 31.6 41.1 30.72 40.98 30.69 40.5 31.57"/><polygon points="42.3 32.87 42.42 32.92 43.03 32.11 42.91 32.07 42.3 32.87"/><polygon points="43.98 34.1 44.09 34.16 44.79 33.44 44.67 33.38 43.98 34.1"/><polygon points="45.57 35.75 45.68 35.82 46.41 35.13 46.3 35.06 45.57 35.75"/><polygon points="48.09 39.18 48.18 39.27 49.05 38.77 48.96 38.68 48.09 39.18"/><polygon points="49.05 41.03 49.13 41.13 50.04 40.69 49.95 40.6 49.05 41.03"/><polygon points="49.81 43.11 49.89 43.21 50.84 42.87 50.76 42.77 49.81 43.11"/><polygon points="50.37 45 50.43 45.11 51.41 44.89 51.35 44.77 50.37 45"/><polygon points="50.78 47.11 50.82 47.23 51.83 47.15 51.78 47.03 50.78 47.11"/><polygon points="50.91 49.26 50.95 49.38 51.95 49.39 51.92 49.26 50.91 49.26"/><polygon points="36.31 61.33 36.35 61.45 37.35 61.46 37.32 61.34 36.31 61.33"/><polygon points="22.78 61.4 22.81 61.52 23.82 61.52 23.78 61.4 22.78 61.4"/><polygon points="33.36 56.38 33.49 56.41 33.99 55.54 33.87 55.51 33.36 56.38"/><polygon points="26.56 67.97 26.69 68 27.19 67.13 27.06 67.09 26.56 67.97"/><polygon points="33.48 67.93 33.58 67.84 33.09 66.96 33 67.05 33.48 67.93"/><polygon points="27.01 56.22 27.1 56.13 26.61 55.25 26.52 55.34 27.01 56.22"/><polygon points="50.77 51.48 50.79 51.61 51.79 51.72 51.77 51.59 50.77 51.48"/><polygon points="50.48 53.58 50.49 53.71 51.47 53.92 51.46 53.79 50.48 53.58"/><polygon points="49.97 55.73 49.97 55.86 50.94 56.15 50.94 56.02 49.97 55.73"/><polygon points="49.25 57.75 49.23 57.88 50.15 58.29 50.16 58.16 49.25 57.75"/><polygon points="48.26 59.7 48.22 59.82 49.05 60.38 49.09 60.26 48.26 59.7"/><polygon points="47.13 61.5 47.08 61.62 47.9 62.2 47.95 62.08 47.13 61.5"/><polygon points="45.81 63.18 45.74 63.3 46.45 64.01 46.52 63.9 45.81 63.18"/><polygon points="44.23 64.83 44.16 64.94 44.84 65.68 44.91 65.57 44.23 64.83"/><polygon points="42.53 66.25 42.45 66.35 43.06 67.16 43.14 67.06 42.53 66.25"/><polygon points="46.83 37.29 46.93 37.37 47.73 36.75 47.62 36.68 46.83 37.29"/><polygon points="29.97 28.86 30.1 28.82 30.05 27.81 29.93 27.85 29.97 28.86"/><rect x="12.69" y="32.64" width="0.13" height="2.34" transform="translate(-21.53 22.4) rotate(-50.92)"/><polygon points="9.65 40.47 9.71 40.35 7.57 39.4 7.52 39.51 9.65 40.47"/><polygon points="8.24 44.84 8.27 44.71 5.97 44.27 5.94 44.39 8.24 44.84"/><polygon points="7.9 47.2 7.91 47.07 5.57 46.89 5.56 47.02 7.9 47.2"/><rect x="5.53" y="51.8" width="2.34" height="0.13" transform="translate(-1.54 0.22) rotate(-1.71)"/><polygon points="8.29 54.23 8.27 54.1 5.8 54.46 5.82 54.59 8.29 54.23"/><rect x="6.54" y="56.74" width="2.34" height="0.13" transform="translate(-17.8 5.47) rotate(-18.7)"/><polygon points="9.68 58.59 9.63 58.47 7.5 59.45 7.55 59.57 9.68 58.59"/><polygon points="11.94 62.66 11.86 62.55 9.99 63.97 10.07 64.08 11.94 62.66"/><polygon points="13.36 64.61 13.27 64.52 11.56 66.12 11.65 66.21 13.36 64.61"/><polygon points="15 66.25 14.91 66.15 13.24 67.8 13.34 67.9 15 66.25"/><rect x="14.97" y="68.46" width="2.34" height="0.13" transform="translate(-47.88 39.24) rotate(-52.16)"/><rect x="19.13" y="70.94" width="2.34" height="0.13" transform="translate(-52.59 59.13) rotate(-64.79)"/><polygon points="23.1 70.81 22.98 70.77 22.25 73 22.38 73.04 23.1 70.81"/><polygon points="25.26 71.47 25.13 71.45 24.78 73.77 24.91 73.79 25.26 71.47"/><polygon points="27.61 71.75 27.48 71.74 27.25 74.07 27.38 74.09 27.61 71.75"/><rect x="11.09" y="34.63" width="0.13" height="2.34" transform="translate(-24.1 23.03) rotate(-52.79)"/><polygon points="30.35 49.67 30.41 49.61 12.83 32.86 12.77 32.93 30.35 49.67"/><path d="M30.65,18.93A30.65,30.65,0,1,0,61.3,49.58,30.65,30.65,0,0,0,30.65,18.93Zm-.72,56.75A26.16,26.16,0,1,1,56.1,49.52,26.16,26.16,0,0,1,29.94,75.68Z"/></g></g></svg>