<svg xmlns="http://www.w3.org/2000/svg" viewBox="0 0 97.49 141.59"><defs><style>.cls-1{fill:#fff;}.cls-2{fill:none;}</style></defs><title>Ресурс 30clock</title><g id="Слой_2" data-name="Слой 2"><g id="Layer_1" data-name="Layer 1"><path d="M44,87.87a.84.84,0,0,0,1.1.43h0a.83.83,0,0,0,.49-1.07l-1.8-4.5a.83.83,0,0,0-1.1-.43h0a.83.83,0,0,0-.49,1.07Z"/><path d="M89.85,130.82a.58.58,0,0,0,.81.18h0a.58.58,0,0,0,.14-.81l-2-3A.58.58,0,0,0,88,127h0a.59.59,0,0,0-.14.82Z"/><path d="M42.75,98.12l.08-.06-2.35-3.27-.08.06a20.92,20.92,0,1,0,2.35,3.27Z"/><circle class="cls-1" cx="24.48" cy="108.97" r="18.45" transform="translate(-58.96 34.72) rotate(-35.68)"/><path d="M14.19,94.58a17.68,17.68,0,0,1,24.67,4.05h0a17.68,17.68,0,0,1-4,24.68h0a17.68,17.68,0,0,1-24.67-4.05h0a17.68,17.68,0,0,1,4-24.67Zm13.15-2.9a17.43,17.43,0,0,0-13,3.05h0a17.44,17.44,0,0,0-7.06,11.38h0a17.43,17.43,0,0,0,3.05,13h0a17.42,17.42,0,0,0,11.38,7.06h0a17.42,17.42,0,0,0,13-3.05h0a17.44,17.44,0,0,0,7.06-11.38h0a17.44,17.44,0,0,0-3.05-13h0a17.43,17.43,0,0,0-11.38-7.06Z"/><circle class="cls-1" cx="24.17" cy="109.08" r="0.97" transform="matrix(0.81, -0.58, 0.58, 0.81, -59.03, 34.52)"/><polygon points="29.21 109.44 28.97 108.43 12.02 108.29 12.26 109.3 29.21 109.44"/><polygon points="12.28 109.3 9.48 108.77 12.04 108.29 12.28 109.3"/><polygon points="23.38 111.35 24.25 111.79 26.79 98.77 25.93 98.32 23.38 111.35"/><polygon points="25.92 98.34 26.76 96.5 26.79 98.79 25.92 98.34"/><polygon points="24.82 108.13 24.78 107.89 15.76 120.03 15.79 120.27 24.82 108.13"/><polygon points="15.81 120.25 14.36 122.05 15.77 120.01 15.81 120.25"/><path class="cls-2" d="M50.66,90.21c1,1.46-.65,4.18-.9,4.36l-.77.55c-.07,0-1.36-1.35-1.53-1.46.19.4,1.37,2.27,1.14,2.63l-.46.33a4.56,4.56,0,0,0,4.41-.13c2-1.44,1.52-4.76-.5-7.58s-5-4.14-7-2.71a4.48,4.48,0,0,0-1.58,4.08l.52-.37c.4-.09,1.76,1.48,2.07,1.75-.06-.2-1-1.78-.9-1.83l.77-.55C46.22,89.11,49.62,88.75,50.66,90.21Z"/><path d="M43.21,97.78l.33.46a1.37,1.37,0,0,0,1.09.66l1.84,2.56a.49.49,0,0,0,.69.11l.64-.46a.49.49,0,0,0,.11-.69l-.31-.44a4.93,4.93,0,0,0,4.07-.66c2.63-1.89,2.61-6.41,0-10.11S44.68,84.07,42.05,86a4.93,4.93,0,0,0-1.92,3.64l-.27-.37a.5.5,0,0,0-.69-.11l-.64.46a.49.49,0,0,0-.11.69l1.84,2.57a1.38,1.38,0,0,0,.27,1.25l.31.44-.4.29,2.35,3.28ZM44.56,93c-.32-.28-1.81-2-2.2-1.92l-.52.37a4.47,4.47,0,0,1,1.58-4.08c2-1.44,5-.1,7,2.71s2.5,6.14.5,7.58a4.56,4.56,0,0,1-4.41.13l.46-.33c.23-.37-.95-2.24-1.14-2.63.17.11,1.46,1.51,1.53,1.46l.77-.55c.25-.18,1.95-3.08.9-4.53s-4.45-.93-4.69-.75l-.77.55C43.47,91.06,44.51,92.8,44.56,93Z"/><polygon points="35.44 101.87 34.87 101.44 34.67 100.8 37.94 98.45 38.44 98.85 38.71 99.52 35.44 101.87"/><polygon points="10.95 119.46 10.38 119.03 10.18 118.39 13.45 116.05 13.95 116.45 14.21 117.12 10.95 119.46"/><polygon points="17.36 97.98 16.93 98.56 16.29 98.75 13.94 95.49 14.34 94.98 15.01 94.72 17.36 97.98"/><polygon points="23.96 95.72 23.34 96.08 22.67 95.99 21.83 92.06 22.39 91.76 23.11 91.79 23.96 95.72"/><polygon points="30.27 97.11 29.55 97.09 29.02 96.67 30.36 92.88 31 92.92 31.6 93.31 30.27 97.11"/><polygon points="41.45 106.73 41.7 107.4 41.5 108.04 37.48 108.19 37.29 107.58 37.44 106.88 41.45 106.73"/><polygon points="11.4 109.15 11.6 109.84 11.36 110.46 7.34 110.33 7.19 109.71 7.39 109.02 11.4 109.15"/><polygon points="39.77 115.53 39.66 116.23 39.17 116.7 35.58 114.9 35.7 114.27 36.17 113.72 39.77 115.53"/><polygon points="12.98 102.78 12.83 103.48 12.32 103.92 8.84 101.92 8.99 101.3 9.49 100.78 12.98 102.78"/><polygon points="26.91 125.88 26.26 126.19 25.6 126.06 25.06 122.07 25.65 121.81 26.36 121.89 26.91 125.88"/><polygon points="18.53 124.94 17.81 124.92 17.29 124.5 18.61 120.7 19.25 120.74 19.85 121.14 18.53 124.94"/><polygon points="35.01 122.45 34.58 123.02 33.94 123.21 31.59 119.95 31.99 119.44 32.66 119.18 35.01 122.45"/><polygon points="36.64 98.28 36.44 98.08 36.27 97.88 37.12 97.08 37.31 97.26 37.49 97.48 36.64 98.28"/><polygon points="35.39 97.01 35.17 96.82 34.99 96.63 35.8 95.78 36 95.96 36.2 96.17 35.39 97.01"/><polygon points="33.96 95.86 33.72 95.71 33.51 95.55 34.17 94.59 34.4 94.72 34.63 94.91 33.96 95.86"/><polygon points="32.63 94.96 32.36 94.88 32.12 94.77 32.53 93.67 32.78 93.75 33.05 93.87 32.63 94.96"/><polygon points="40.35 105.97 40.28 105.69 40.25 105.42 41.4 105.21 41.46 105.47 41.5 105.76 40.35 105.97"/><polygon points="39.91 104.2 39.8 103.94 39.73 103.67 40.84 103.3 40.93 103.54 41.01 103.83 39.91 104.2"/><polygon points="39.31 102.61 39.19 102.35 39.1 102.1 40.17 101.64 40.29 101.88 40.39 102.15 39.31 102.61"/><polygon points="38.62 101.09 38.46 100.85 38.34 100.61 39.34 100.02 39.49 100.24 39.63 100.5 38.62 101.09"/><polygon points="39.66 114.29 39.75 114.02 39.87 113.77 40.95 114.19 40.87 114.44 40.75 114.71 39.66 114.29"/><polygon points="40.17 112.75 40.22 112.47 40.3 112.21 41.43 112.47 41.39 112.73 41.31 113.01 40.17 112.75"/><polygon points="40.49 111.06 40.51 110.78 40.57 110.51 41.72 110.69 41.7 110.96 41.64 111.24 40.49 111.06"/><polygon points="40.58 109.37 40.59 109.08 40.63 108.82 41.79 108.92 41.78 109.18 41.75 109.47 40.58 109.37"/><polygon points="29.33 93.5 29.05 93.44 28.8 93.35 29.1 92.23 29.36 92.28 29.63 92.37 29.33 93.5"/><polygon points="27.79 93.08 27.5 93.07 27.23 93.03 27.33 91.87 27.59 91.88 27.88 91.92 27.79 93.08"/><polygon points="26.2 92.85 25.91 92.85 25.65 92.81 25.72 91.65 25.98 91.65 26.27 91.69 26.2 92.85"/><polygon points="24.66 92.77 24.38 92.81 24.11 92.81 24.03 91.65 24.3 91.61 24.59 91.61 24.66 92.77"/><polygon points="21.2 93.12 20.93 93.22 20.67 93.28 20.33 92.17 20.57 92.07 20.86 92.01 21.2 93.12"/><polygon points="19.66 93.57 19.39 93.67 19.13 93.74 18.75 92.64 19 92.54 19.28 92.46 19.66 93.57"/><polygon points="18.11 94.08 17.86 94.22 17.62 94.33 17.09 93.29 17.31 93.16 17.58 93.04 18.11 94.08"/><polygon points="16.77 94.75 16.55 94.93 16.32 95.07 15.65 94.11 15.86 93.95 16.11 93.8 16.77 94.75"/><polygon points="13.98 96.68 13.77 96.87 13.55 97.03 12.81 96.13 13 95.95 13.24 95.78 13.98 96.68"/><polygon points="12.83 97.73 12.66 97.96 12.48 98.15 11.58 97.4 11.74 97.19 11.94 96.98 12.83 97.73"/><polygon points="11.92 98.81 11.77 99.05 11.6 99.26 10.65 98.57 10.79 98.35 10.98 98.12 11.92 98.81"/><polygon points="11.09 99.99 10.96 100.24 10.79 100.46 9.81 99.83 9.94 99.6 10.11 99.36 11.09 99.99"/><polygon points="9.53 103.01 9.43 103.28 9.31 103.52 8.24 103.08 8.32 102.83 8.45 102.57 9.53 103.01"/><polygon points="9 104.48 8.96 104.76 8.89 105.02 7.75 104.78 7.79 104.52 7.86 104.24 9 104.48"/><polygon points="8.71 105.86 8.68 106.15 8.63 106.41 7.47 106.24 7.5 105.98 7.55 105.69 8.71 105.86"/><polygon points="8.53 107.29 8.52 107.58 8.48 107.84 7.32 107.75 7.33 107.49 7.36 107.2 8.53 107.29"/><polygon points="8.57 111.59 8.62 111.88 8.63 112.14 7.47 112.28 7.43 112.02 7.41 111.73 8.57 111.59"/><polygon points="8.91 113.22 9.01 113.49 9.07 113.75 7.95 114.09 7.86 113.84 7.79 113.56 8.91 113.22"/><polygon points="9.38 114.67 9.5 114.94 9.58 115.19 8.49 115.6 8.38 115.36 8.3 115.09 9.38 114.67"/><polygon points="10.12 116.31 10.26 116.56 10.37 116.8 9.34 117.34 9.2 117.11 9.08 116.85 10.12 116.31"/><polygon points="12.63 119.89 12.83 120.09 13 120.3 12.14 121.09 11.95 120.9 11.77 120.68 12.63 119.89"/><polygon points="13.82 121.14 14.04 121.31 14.24 121.5 13.48 122.39 13.27 122.23 13.06 122.03 13.82 121.14"/><polygon points="14.99 122.01 15.23 122.15 15.45 122.31 14.8 123.28 14.58 123.15 14.34 122.98 14.99 122.01"/><polygon points="16.24 122.86 16.49 122.99 16.72 123.14 16.13 124.15 15.9 124.03 15.66 123.87 16.24 122.86"/><polygon points="19.69 124.32 19.97 124.39 20.22 124.5 19.85 125.6 19.6 125.53 19.32 125.43 19.69 124.32"/><polygon points="21.2 124.74 21.48 124.77 21.74 124.82 21.58 125.97 21.32 125.95 21.03 125.9 21.2 124.74"/><polygon points="22.59 124.95 22.88 124.95 23.14 124.99 23.05 126.15 22.79 126.14 22.5 126.11 22.59 124.95"/><polygon points="24.09 125.07 24.38 125.05 24.64 125.07 24.63 126.24 24.37 126.25 24.08 126.23 24.09 125.07"/><polygon points="27.67 124.77 27.95 124.71 28.22 124.69 28.39 125.84 28.13 125.89 27.84 125.92 27.67 124.77"/><polygon points="29.1 124.42 29.37 124.31 29.63 124.24 30 125.35 29.75 125.45 29.47 125.52 29.1 124.42"/><polygon points="30.62 123.84 30.88 123.72 31.13 123.64 31.57 124.71 31.34 124.83 31.06 124.92 30.62 123.84"/><polygon points="32.04 123.2 32.29 123.06 32.54 122.96 33.05 124.01 32.82 124.14 32.55 124.25 32.04 123.2"/><polygon points="35.26 120.99 35.46 120.78 35.67 120.61 36.46 121.47 36.28 121.66 36.05 121.85 35.26 120.99"/><polygon points="36.37 119.92 36.53 119.69 36.71 119.48 37.64 120.19 37.49 120.41 37.3 120.63 36.37 119.92"/><polygon points="37.3 118.8 37.44 118.55 37.6 118.34 38.58 118.98 38.45 119.21 38.27 119.44 37.3 118.8"/><polygon points="38.08 117.66 38.2 117.4 38.35 117.17 39.36 117.75 39.25 117.99 39.09 118.23 38.08 117.66"/><path d="M44.82,77a3.38,3.38,0,0,0-.56-1.53,2.74,2.74,0,0,0-3.8-.7c-1.14.86-1.8,2-.87,3.22l.07-.05c-.39-.9.12-1.7,1-2.34a2.35,2.35,0,0,1,3.26.6,2.91,2.91,0,0,1,.48,1.31,6.16,6.16,0,0,1,0,.93l-.57,4.77c0,.26-.12.35-.37.3l-4.64-.85a6.21,6.21,0,0,1-.9-.25,2.91,2.91,0,0,1-1.13-.81,2.34,2.34,0,0,1,.3-3.3c.86-.65,1.73-.89,2.49-.25l0-.06c-.95-1.23-2.14-.94-3.28-.07a2.73,2.73,0,0,0-.36,3.85,3.42,3.42,0,0,0,1.32,1,7.51,7.51,0,0,0,1,.29l5.41,1c.29.05.41-.05.44-.35l.66-5.57A7.25,7.25,0,0,0,44.82,77Z"/><path d="M37.57,72.62c-.7.53-1.11,1.2-.53,2-.58-.76-1.3-.59-2-.06a1.66,1.66,0,0,0-.23,2.34,2.08,2.08,0,0,0,.8.58,4.54,4.54,0,0,0,.64.18l3.28.62c.18,0,.25,0,.27-.21l.42-3.38a4.41,4.41,0,0,0,0-.66,2.05,2.05,0,0,0-.34-.93A1.66,1.66,0,0,0,37.57,72.62Zm1.79,2.06a2.63,2.63,0,0,1,0,.41l-.26,2.1c0,.11-.05.15-.17.13l-2-.38a2.77,2.77,0,0,1-.4-.11,1.28,1.28,0,0,1-.5-.36A1,1,0,0,1,36.15,75c.44-.33.89-.44,1.24,0-.36-.47-.1-.89.33-1.22a1,1,0,0,1,1.43.27A1.28,1.28,0,0,1,39.36,74.68Z"/><path d="M35.23,69.48c-.7.52-1.11,1.2-.53,2-.58-.76-1.3-.59-2-.06a1.66,1.66,0,0,0-.23,2.34,2.05,2.05,0,0,0,.8.58,4.37,4.37,0,0,0,.64.18l3.28.62c.18,0,.25,0,.26-.21l.42-3.38a4.29,4.29,0,0,0,0-.66,2,2,0,0,0-.34-.93A1.66,1.66,0,0,0,35.23,69.48ZM37,71.54a2.89,2.89,0,0,1,0,.41L36.76,74c0,.11-.05.15-.17.13l-2-.38a2.72,2.72,0,0,1-.39-.11,1.28,1.28,0,0,1-.5-.36,1,1,0,0,1,.14-1.45c.44-.33.89-.43,1.24,0-.36-.47-.1-.89.33-1.22a1,1,0,0,1,1.43.27A1.29,1.29,0,0,1,37,71.54Z"/><path d="M32.88,66.28c-.7.52-1.11,1.2-.53,2-.58-.76-1.3-.59-2-.06a1.66,1.66,0,0,0-.23,2.34,2.07,2.07,0,0,0,.8.58,4.43,4.43,0,0,0,.63.18l3.28.62c.18,0,.25,0,.27-.21l.42-3.38a4.52,4.52,0,0,0,0-.66,2,2,0,0,0-.34-.93A1.66,1.66,0,0,0,32.88,66.28Zm1.79,2.06a2.52,2.52,0,0,1,0,.41l-.26,2.1c0,.11-.05.15-.17.13l-2-.38a2.76,2.76,0,0,1-.4-.11,1.25,1.25,0,0,1-.49-.36,1,1,0,0,1,.14-1.45c.44-.33.89-.43,1.24,0-.36-.47-.11-.9.33-1.22a1,1,0,0,1,1.43.27A1.3,1.3,0,0,1,34.66,68.34Z"/><path d="M30.52,63.11c-.7.52-1.11,1.2-.53,2-.58-.76-1.3-.59-2-.06a1.66,1.66,0,0,0-.23,2.34,2.07,2.07,0,0,0,.8.58,4.44,4.44,0,0,0,.64.18l3.28.62c.18,0,.25,0,.27-.21l.42-3.38a4.25,4.25,0,0,0,0-.66,2,2,0,0,0-.34-.93A1.66,1.66,0,0,0,30.52,63.11Zm1.79,2.06a2.75,2.75,0,0,1,0,.41L32,67.67c0,.11-.05.15-.17.13l-2-.38a2.67,2.67,0,0,1-.39-.11,1.26,1.26,0,0,1-.49-.36,1,1,0,0,1,.14-1.45c.43-.33.88-.43,1.24,0-.36-.47-.1-.89.33-1.22a1,1,0,0,1,1.43.27A1.29,1.29,0,0,1,32.31,65.16Z"/><path d="M10.72,51.6c-.59.64-.88,1.38-.18,2-.7-.65-1.39-.35-2,.29a1.66,1.66,0,0,0,.19,2.34,2.07,2.07,0,0,0,.89.43,4.39,4.39,0,0,0,.66.07l3.34,0c.18,0,.24-.08.23-.26l-.19-3.4a4.31,4.31,0,0,0-.11-.65,2.06,2.06,0,0,0-.49-.85A1.66,1.66,0,0,0,10.72,51.6Zm2.12,1.71a3,3,0,0,1,.07.41L13,55.82c0,.11,0,.16-.14.16l-2.07,0a2.73,2.73,0,0,1-.41,0,1.27,1.27,0,0,1-.55-.27,1,1,0,0,1-.12-1.45c.37-.4.79-.58,1.23-.18-.43-.4-.26-.86.11-1.26a1,1,0,0,1,1.46,0A1.3,1.3,0,0,1,12.84,53.3Z"/><path d="M9.15,47.6c-.78.4-1.29,1-.85,1.85-.44-.85-1.18-.8-2-.4a1.66,1.66,0,0,0-.62,2.26A2.07,2.07,0,0,0,6.4,52a4.63,4.63,0,0,0,.6.29l3.13,1.16c.17.06.25,0,.3-.17l1-3.26a4.31,4.31,0,0,0,.11-.65,2.06,2.06,0,0,0-.17-1A1.66,1.66,0,0,0,9.15,47.6Zm1.42,2.33a2.8,2.8,0,0,1-.07.4l-.61,2c0,.11-.08.14-.18.1l-1.94-.72a2.88,2.88,0,0,1-.37-.18A1.26,1.26,0,0,1,7,51.12a1,1,0,0,1,.38-1.4c.48-.25.95-.28,1.22.25-.27-.53,0-.9.53-1.15a1,1,0,0,1,1.37.51A1.3,1.3,0,0,1,10.56,49.92Z"/><path d="M7,43.36c-.78.4-1.29,1-.85,1.85-.44-.85-1.18-.8-2-.4a1.66,1.66,0,0,0-.62,2.26,2.08,2.08,0,0,0,.69.71,4.44,4.44,0,0,0,.6.29L8,49.23c.17.06.25,0,.3-.17l1-3.26a4.6,4.6,0,0,0,.12-.65,2.06,2.06,0,0,0-.18-1A1.66,1.66,0,0,0,7,43.36Zm1.42,2.33a2.83,2.83,0,0,1-.07.41l-.61,2c0,.11-.08.14-.18.1L5.64,47.5a2.54,2.54,0,0,1-.37-.18,1.26,1.26,0,0,1-.43-.44,1,1,0,0,1,.38-1.4c.48-.25.95-.28,1.22.25-.27-.53,0-.9.53-1.15a1,1,0,0,1,1.37.51A1.3,1.3,0,0,1,8.45,45.69Z"/><path d="M4.91,39.23c-.78.4-1.29,1-.85,1.85-.44-.85-1.18-.8-2-.4a1.66,1.66,0,0,0-.62,2.26,2.06,2.06,0,0,0,.69.71,4.43,4.43,0,0,0,.6.29L5.9,45.09c.17.06.25,0,.3-.17l1-3.26A4.62,4.62,0,0,0,7.29,41a2.05,2.05,0,0,0-.18-1A1.66,1.66,0,0,0,4.91,39.23Zm1.42,2.33a2.83,2.83,0,0,1-.07.41l-.61,2c0,.11-.08.14-.18.1l-1.94-.72a2.76,2.76,0,0,1-.37-.18,1.27,1.27,0,0,1-.43-.44,1,1,0,0,1,.38-1.4c.49-.25.95-.28,1.22.25-.27-.53,0-.9.53-1.15A1,1,0,0,1,6.22,41,1.29,1.29,0,0,1,6.33,41.56Z"/><path d="M4.34,35c-.86.18-1.51.62-1.31,1.55-.2-.94-.93-1.08-1.79-.91a1.66,1.66,0,0,0-1.19,2,2.06,2.06,0,0,0,.48.87A4.28,4.28,0,0,0,1,39l2.71,1.95c.15.11.24.08.33-.08L5.87,38a4.43,4.43,0,0,0,.28-.6,2,2,0,0,0,.09-1A1.66,1.66,0,0,0,4.34,35Zm.75,2.62a2.84,2.84,0,0,1-.18.37L3.78,39.78c-.06.1-.11.12-.2.05L1.9,38.62a3,3,0,0,1-.31-.27,1.27,1.27,0,0,1-.3-.54A1,1,0,0,1,2,36.57c.53-.11,1,0,1.11.56-.12-.58.29-.86.81-1A1,1,0,0,1,5.14,37,1.28,1.28,0,0,1,5.08,37.62Z"/><path d="M5.09,30.8c-.87-.07-1.62.16-1.7,1.11.08-1-.58-1.3-1.45-1.38A1.66,1.66,0,0,0,.22,32.13a2.06,2.06,0,0,0,.21,1,4.5,4.5,0,0,0,.36.56l2,2.64c.11.14.2.14.34,0l2.56-2.25a4.31,4.31,0,0,0,.44-.49,2.05,2.05,0,0,0,.37-.91A1.66,1.66,0,0,0,5.09,30.8Zm0,2.73a2.8,2.8,0,0,1-.28.3L3.2,35.22c-.08.08-.14.08-.21,0L1.72,33.57a2.58,2.58,0,0,1-.22-.35,1.27,1.27,0,0,1-.13-.6,1,1,0,0,1,1.07-1c.54,0,.95.26.9.86,0-.59.52-.74,1.06-.69A1,1,0,0,1,5.29,33,1.31,1.31,0,0,1,5.06,33.53Z"/><path d="M6.34,26.44c-.85-.2-1.63-.08-1.85.85.22-.93-.38-1.38-1.23-1.58A1.66,1.66,0,0,0,1.32,27a2.09,2.09,0,0,0,.06,1,4.47,4.47,0,0,0,.27.61l1.63,2.92c.09.16.18.17.33.07l2.86-1.84A4.48,4.48,0,0,0,7,29.34a2.06,2.06,0,0,0,.5-.85A1.66,1.66,0,0,0,6.34,26.44ZM5.9,29.13a2.7,2.7,0,0,1-.32.26L3.81,30.53c-.09.06-.15.05-.21,0l-1-1.81a2.7,2.7,0,0,1-.17-.38,1.27,1.27,0,0,1,0-.61,1,1,0,0,1,1.2-.82c.53.13.9.4.76,1,.14-.58.62-.65,1.15-.53a1,1,0,0,1,.71,1.27A1.28,1.28,0,0,1,5.9,29.13Z"/><path d="M8.32,22.45c-.8-.35-1.59-.37-2,.5.38-.88-.13-1.42-.93-1.77a1.66,1.66,0,0,0-2.14,1,2.06,2.06,0,0,0-.11,1,4.42,4.42,0,0,0,.15.64L4.4,26.92c.06.17.15.2.32.13l3.15-1.3a4.29,4.29,0,0,0,.58-.32,2.07,2.07,0,0,0,.64-.75A1.66,1.66,0,0,0,8.32,22.45ZM7.41,25a2.48,2.48,0,0,1-.36.2L5.1,26c-.1,0-.16,0-.2-.08l-.67-2a2.69,2.69,0,0,1-.1-.4A1.26,1.26,0,0,1,4.21,23a1,1,0,0,1,1.33-.59c.5.22.81.56.58,1.1.24-.54.73-.53,1.23-.31a1,1,0,0,1,.47,1.38A1.28,1.28,0,0,1,7.41,25Z"/><path d="M10.2,18.22c-.8-.35-1.59-.37-2,.5.38-.88-.13-1.42-.93-1.77a1.66,1.66,0,0,0-2.14,1,2.06,2.06,0,0,0-.11,1,4.42,4.42,0,0,0,.16.64l1.08,3.16c.06.17.15.2.32.13l3.15-1.3a4.3,4.3,0,0,0,.58-.32,2.07,2.07,0,0,0,.64-.75A1.66,1.66,0,0,0,10.2,18.22Zm-.91,2.57a2.39,2.39,0,0,1-.36.2l-2,.81c-.1,0-.16,0-.2-.08l-.67-2a2.81,2.81,0,0,1-.1-.4,1.26,1.26,0,0,1,.07-.61,1,1,0,0,1,1.33-.59c.5.22.81.56.58,1.1.24-.54.73-.53,1.22-.31a1,1,0,0,1,.47,1.38A1.28,1.28,0,0,1,9.29,20.79Z"/><path d="M12.57,14.29c-.76-.44-1.54-.54-2,.28.48-.83,0-1.43-.73-1.86a1.66,1.66,0,0,0-2.24.71,2.07,2.07,0,0,0-.22,1,4.35,4.35,0,0,0,.08.66l.73,3.26c0,.18.13.22.3.16l3.27-.95a4.45,4.45,0,0,0,.61-.26,2.07,2.07,0,0,0,.72-.67A1.66,1.66,0,0,0,12.57,14.29Zm-1.19,2.45a2.76,2.76,0,0,1-.38.16l-2,.59c-.11,0-.16,0-.19-.1l-.45-2A2.69,2.69,0,0,1,8.29,15a1.27,1.27,0,0,1,.14-.6,1,1,0,0,1,1.39-.44c.47.27.75.64.45,1.16.3-.51.78-.45,1.25-.18a1,1,0,0,1,.32,1.42A1.29,1.29,0,0,1,11.39,16.74Z"/><path d="M15.81,11.51c-.61-.62-1.34-.93-2-.26.68-.67.41-1.37-.21-2a1.66,1.66,0,0,0-2.35.09,2.09,2.09,0,0,0-.47.87,4.48,4.48,0,0,0-.09.65l-.16,3.34c0,.18.06.24.25.24l3.41,0a4.22,4.22,0,0,0,.65-.09,2.08,2.08,0,0,0,.88-.46A1.66,1.66,0,0,0,15.81,11.51ZM14,13.56a2.86,2.86,0,0,1-.41.05l-2.11,0c-.12,0-.16,0-.15-.15l.1-2.07A2.58,2.58,0,0,1,11.5,11a1.27,1.27,0,0,1,.29-.54,1,1,0,0,1,1.45-.06c.38.38.55.82.13,1.24.42-.42.87-.22,1.25.16a1,1,0,0,1-.07,1.46A1.29,1.29,0,0,1,14,13.56Z"/><path d="M19.75,9.87c-.41-.77-1-1.28-1.86-.83.84-.45.78-1.19.37-2A1.66,1.66,0,0,0,16,6.49a2.09,2.09,0,0,0-.7.7,4.44,4.44,0,0,0-.28.6L13.9,10.94c-.06.17,0,.25.17.3l3.28.93a4.33,4.33,0,0,0,.65.1,2.05,2.05,0,0,0,1-.19A1.66,1.66,0,0,0,19.75,9.87Zm-2.3,1.45a2.86,2.86,0,0,1-.41-.07l-2-.58c-.11,0-.14-.08-.11-.18l.69-2a2.63,2.63,0,0,1,.17-.37,1.27,1.27,0,0,1,.43-.43,1,1,0,0,1,1.41.36c.26.48.29.94-.23,1.22.52-.28.9,0,1.16.51A1,1,0,0,1,18,11.2,1.29,1.29,0,0,1,17.44,11.32Z"/><path d="M24.09,8.54c-.29-.82-.82-1.41-1.72-1.09.9-.32.95-1.07.65-1.89a1.66,1.66,0,0,0-2.16-.91,2.08,2.08,0,0,0-.79.59,4.22,4.22,0,0,0-.36.55l-1.57,3c-.08.16,0,.25.13.32l3.1,1.4a4.55,4.55,0,0,0,.63.2,2.06,2.06,0,0,0,1,0A1.66,1.66,0,0,0,24.09,8.54ZM21.6,9.64a2.61,2.61,0,0,1-.39-.12l-1.92-.87c-.11,0-.13-.1-.08-.2l1-1.83a2.69,2.69,0,0,1,.22-.34,1.27,1.27,0,0,1,.49-.36,1,1,0,0,1,1.34.56c.18.51.15,1-.41,1.17.56-.2.88.17,1.07.68a1,1,0,0,1-.68,1.29A1.28,1.28,0,0,1,21.6,9.64Z"/><path d="M28.51,8C28.38,7.18,28,6.51,27,6.66c.94-.16,1.12-.88,1-1.74a1.66,1.66,0,0,0-2-1.29,2.08,2.08,0,0,0-.89.44,4.39,4.39,0,0,0-.45.48L22.63,7.17c-.11.14-.09.23.07.33l2.8,1.94a4.36,4.36,0,0,0,.59.31,2,2,0,0,0,1,.13A1.66,1.66,0,0,0,28.51,8Zm-2.65.63a2.48,2.48,0,0,1-.36-.19l-1.74-1.2c-.1-.06-.11-.12,0-.21L25,5.45a2.56,2.56,0,0,1,.28-.3,1.24,1.24,0,0,1,.55-.27,1,1,0,0,1,1.22.79c.09.54,0,1-.61,1.08.58-.1.84.32.93.86a1,1,0,0,1-.9,1.14A1.27,1.27,0,0,1,25.86,8.68Z"/><path d="M33.09,7.32c-.14-.86-.55-1.54-1.49-1.38.94-.16,1.12-.88,1-1.74a1.66,1.66,0,0,0-2-1.28,2.08,2.08,0,0,0-.88.44,4.24,4.24,0,0,0-.46.48L27.21,6.45c-.11.14-.09.24.06.34l2.8,1.94a4.18,4.18,0,0,0,.58.31,2,2,0,0,0,1,.13A1.66,1.66,0,0,0,33.09,7.32ZM30.44,8a2.59,2.59,0,0,1-.36-.19l-1.74-1.2c-.1-.06-.11-.12,0-.21l1.28-1.63a2.74,2.74,0,0,1,.28-.3,1.27,1.27,0,0,1,.55-.27,1,1,0,0,1,1.22.8c.09.54,0,1-.61,1.08.58-.1.84.32.93.86A1,1,0,0,1,31,8,1.27,1.27,0,0,1,30.44,8Z"/><path d="M37.74,5.4C37.44,4.58,36.91,4,36,4.32c.9-.33.94-1.08.64-1.9a1.66,1.66,0,0,0-2.17-.89,2.08,2.08,0,0,0-.79.6,4.38,4.38,0,0,0-.36.56l-1.53,3c-.08.16,0,.25.13.32L35,7.34a4.25,4.25,0,0,0,.63.19,2.05,2.05,0,0,0,1-.05A1.66,1.66,0,0,0,37.74,5.4ZM35.26,6.52a2.6,2.6,0,0,1-.39-.12l-1.93-.85c-.11,0-.13-.1-.08-.2l1-1.84A2.86,2.86,0,0,1,34,3.16a1.27,1.27,0,0,1,.49-.37,1,1,0,0,1,1.35.55c.19.51.16,1-.4,1.18.56-.21.88.16,1.07.66a1,1,0,0,1-.67,1.29A1.27,1.27,0,0,1,35.26,6.52Z"/><path d="M42.22,4.68c-.18-.86-.62-1.51-1.55-1.32.94-.2,1.09-.93.91-1.79a1.66,1.66,0,0,0-2-1.2,2.08,2.08,0,0,0-.87.47,4.47,4.47,0,0,0-.43.5l-2,2.71c-.11.15-.08.24.08.33l2.88,1.82a4.62,4.62,0,0,0,.6.28,2.06,2.06,0,0,0,1,.09A1.66,1.66,0,0,0,42.22,4.68Zm-2.62.74a2.78,2.78,0,0,1-.37-.18L37.44,4.12c-.1-.06-.12-.11,0-.21l1.21-1.68a2.9,2.9,0,0,1,.27-.31,1.26,1.26,0,0,1,.54-.29,1,1,0,0,1,1.25.74c.11.53,0,1-.56,1.11.58-.12.85.29,1,.82a1,1,0,0,1-.85,1.18A1.29,1.29,0,0,1,39.6,5.43Z"/><path d="M46.67,4.8c0-.87-.33-1.6-1.29-1.58,1,0,1.24-.72,1.22-1.59A1.66,1.66,0,0,0,44.83.09a2.07,2.07,0,0,0-.94.31,4.37,4.37,0,0,0-.52.41L41,3.13c-.13.13-.12.22,0,.34l2.51,2.3a4.27,4.27,0,0,0,.54.39,2.07,2.07,0,0,0,1,.27A1.66,1.66,0,0,0,46.67,4.8ZM44,5.06a3.23,3.23,0,0,1-.33-.24L42.07,3.39c-.09-.08-.09-.13,0-.21l1.5-1.43a2.77,2.77,0,0,1,.32-.26,1.27,1.27,0,0,1,.58-.19,1,1,0,0,1,1.1,1c0,.54-.16,1-.75,1,.59,0,.79.44.8,1a1,1,0,0,1-1.05,1A1.28,1.28,0,0,1,44,5.06Z"/><path d="M51.3,4.71c0-.87-.33-1.6-1.29-1.58,1,0,1.24-.72,1.21-1.59A1.66,1.66,0,0,0,49.46,0a2.09,2.09,0,0,0-.94.31A4.35,4.35,0,0,0,48,.72L45.6,3c-.13.13-.12.22,0,.34l2.51,2.3a4.44,4.44,0,0,0,.54.39,2.07,2.07,0,0,0,1,.27A1.66,1.66,0,0,0,51.3,4.71ZM48.59,5a2.84,2.84,0,0,1-.33-.24L46.7,3.3c-.09-.07-.09-.13,0-.21l1.5-1.44a2.68,2.68,0,0,1,.32-.26,1.26,1.26,0,0,1,.58-.19,1,1,0,0,1,1.1,1c0,.54-.16,1-.75,1,.59,0,.79.44.8,1a1,1,0,0,1-1.05,1A1.3,1.3,0,0,1,48.59,5Z"/><path d="M55.87,5.2c.08-.87-.16-1.63-1.11-1.71,1,.08,1.31-.58,1.38-1.45A1.66,1.66,0,0,0,54.55.32a2.08,2.08,0,0,0-1,.21A4.27,4.27,0,0,0,53,.88l-2.65,2c-.15.11-.14.2,0,.34L52.6,5.82a4.07,4.07,0,0,0,.49.44,2,2,0,0,0,.91.37A1.66,1.66,0,0,0,55.87,5.2Zm-2.72,0a3,3,0,0,1-.31-.28L51.45,3.29c-.08-.08-.08-.14,0-.21L53.1,1.82a2.87,2.87,0,0,1,.35-.22,1.25,1.25,0,0,1,.6-.13,1,1,0,0,1,1,1.07c0,.54-.27,1-.86.9.59.05.74.52.69,1.06a1,1,0,0,1-1.16.89A1.28,1.28,0,0,1,53.14,5.16Z"/><path d="M71.93,86.57a2.07,2.07,0,0,0-.18-1,4.44,4.44,0,0,0-.33-.57l-2.06-2.71c-.11-.15-.2-.17-.34,0l-2.52,2.18a4.21,4.21,0,0,0-.46.48,2.08,2.08,0,0,0-.4.9A1.66,1.66,0,0,0,67,87.74c.87.1,1.59-.11,1.7-1.06-.11.95.58,1.33,1.45,1.43A1.66,1.66,0,0,0,71.93,86.57ZM70.78,86a1,1,0,0,1-1.1,1c-.54-.07-1-.3-.9-.89-.07.59-.51.72-1.05.66a1,1,0,0,1-.85-1.18,1.28,1.28,0,0,1,.24-.56,2.73,2.73,0,0,1,.29-.3L69,83.36c.08-.08.14-.06.21,0l1.28,1.68a3,3,0,0,1,.21.35A1.3,1.3,0,0,1,70.78,86Z"/><path d="M71.57,90.7a2.05,2.05,0,0,0-.2-1,4.22,4.22,0,0,0-.35-.56l-2.13-2.66c-.11-.15-.2-.17-.34,0l-2.47,2.24a4.59,4.59,0,0,0-.45.49,2.07,2.07,0,0,0-.37.91A1.66,1.66,0,0,0,66.68,92c.87.08,1.58-.15,1.67-1.1-.09,1,.61,1.31,1.48,1.39A1.66,1.66,0,0,0,71.57,90.7Zm-1.17-.51a1,1,0,0,1-1.08,1c-.54-.05-1-.28-.92-.87-.05.59-.5.74-1,.69a1,1,0,0,1-.88-1.16,1.26,1.26,0,0,1,.23-.57A2.7,2.7,0,0,1,67,89l1.53-1.39c.09-.07.14-.07.21,0l1.32,1.65a2.9,2.9,0,0,1,.22.35A1.28,1.28,0,0,1,70.4,90.19Z"/><path d="M72.28,94.36a2,2,0,0,0-.47-.87,4.47,4.47,0,0,0-.49-.44l-2.8-1.94c-.15-.11-.24-.1-.34.06L66.45,94a4.28,4.28,0,0,0-.29.59,2.08,2.08,0,0,0-.1,1A1.66,1.66,0,0,0,68,97c.86-.17,1.47-.6,1.29-1.53.19.94,1,1.08,1.82.91A1.66,1.66,0,0,0,72.28,94.36ZM71,94.2a1,1,0,0,1-.75,1.25c-.53.11-1,0-1.13-.57.12.58-.27.85-.8,1A1,1,0,0,1,67.16,95a1.28,1.28,0,0,1,.06-.61A2.67,2.67,0,0,1,67.4,94l1.07-1.77c.06-.09.12-.1.21,0l1.74,1.2a2.89,2.89,0,0,1,.31.27A1.3,1.3,0,0,1,71,94.2Z"/><path d="M73.7,98.39a2,2,0,0,0-.59-.79,4.36,4.36,0,0,0-.56-.36L69.5,95.73c-.17-.08-.25-.06-.33.11l-1.29,3.08a4.37,4.37,0,0,0-.2.63,2.06,2.06,0,0,0,0,1,1.66,1.66,0,0,0,2.08,1.09c.82-.3,1.37-.81,1-1.71.32.9,1.11.93,1.93.63A1.66,1.66,0,0,0,73.7,98.39Zm-1.28,0a1,1,0,0,1-.56,1.35c-.51.18-1,.16-1.2-.4.2.56-.14.88-.65,1.06a1,1,0,0,1-1.29-.68,1.26,1.26,0,0,1,0-.61,2.74,2.74,0,0,1,.12-.39l.8-1.91c0-.1.1-.12.2-.06l1.89.94a2.36,2.36,0,0,1,.35.22A1.28,1.28,0,0,1,72.43,98.43Z"/><path d="M75.72,102a2.06,2.06,0,0,0-.72-.67,4.65,4.65,0,0,0-.61-.26l-3.28-.93c-.18-.06-.26,0-.3.16l-.71,3.26a4.51,4.51,0,0,0-.08.66,2.07,2.07,0,0,0,.23,1,1.66,1.66,0,0,0,2.24.7c.76-.44,1.2-1,.72-1.87.48.83,1.26.71,2,.28A1.66,1.66,0,0,0,75.72,102Zm-1.25.26a1,1,0,0,1-.31,1.42c-.47.27-1,.34-1.25-.17.3.51,0,.89-.45,1.16a1,1,0,0,1-1.39-.44,1.26,1.26,0,0,1-.14-.59,3.13,3.13,0,0,1,.05-.41l.44-2c0-.11.08-.13.19-.1l2,.58a2.66,2.66,0,0,1,.38.16A1.29,1.29,0,0,1,74.48,102.26Z"/><path d="M78.07,106a2.06,2.06,0,0,0-.72-.67,4.11,4.11,0,0,0-.61-.25l-3.28-.93c-.17-.06-.26,0-.3.16l-.71,3.26a4.26,4.26,0,0,0-.08.66,2.06,2.06,0,0,0,.22,1,1.66,1.66,0,0,0,2.24.7c.75-.44,1.2-1,.72-1.87.48.83,1.26.71,2,.28A1.66,1.66,0,0,0,78.07,106Zm-1.25.26a1,1,0,0,1-.31,1.43c-.47.27-1,.34-1.25-.17.3.51,0,.88-.45,1.16a1,1,0,0,1-1.39-.44,1.28,1.28,0,0,1-.14-.6,2.74,2.74,0,0,1,0-.41l.44-2c0-.11.08-.13.19-.1l2,.58a3,3,0,0,1,.38.16A1.28,1.28,0,0,1,76.82,106.25Z"/><path d="M80,110.95a2.05,2.05,0,0,0-.58-.8,4.21,4.21,0,0,0-.55-.37l-3-1.54c-.16-.09-.25-.07-.33.1l-1.32,3.07a4.44,4.44,0,0,0-.2.63,2.08,2.08,0,0,0,0,1A1.66,1.66,0,0,0,76,114.15c.83-.29,1.38-.8,1.06-1.7.31.9,1.1.94,1.93.65A1.66,1.66,0,0,0,80,110.95Zm-1.28,0a1,1,0,0,1-.57,1.34c-.51.18-1,.15-1.2-.41.2.56-.15.88-.66,1.05a1,1,0,0,1-1.28-.69,1.26,1.26,0,0,1,0-.61,2.88,2.88,0,0,1,.13-.39l.82-1.9c0-.1.1-.12.2-.06l1.88,1a2.64,2.64,0,0,1,.34.23A1.28,1.28,0,0,1,78.69,111Z"/><path d="M81.93,114.75a2.06,2.06,0,0,0-.69-.7,4.3,4.3,0,0,0-.6-.28l-3.23-1.07c-.17-.06-.26,0-.31.15l-.85,3.23a4.23,4.23,0,0,0-.11.65,2.07,2.07,0,0,0,.18,1,1.66,1.66,0,0,0,2.21.8c.77-.41,1.24-1,.8-1.84.44.85,1.23.77,2,.36A1.66,1.66,0,0,0,81.93,114.75Zm-1.26.21a1,1,0,0,1-.37,1.41c-.48.25-1,.3-1.24-.23.28.53,0,.89-.5,1.14a1,1,0,0,1-1.37-.49,1.27,1.27,0,0,1-.12-.6,2.64,2.64,0,0,1,.07-.41l.53-2c0-.11.08-.13.19-.09l2,.67a2.67,2.67,0,0,1,.37.17A1.28,1.28,0,0,1,80.67,115Z"/><path d="M84.43,118a2,2,0,0,0-.81-.57,4.29,4.29,0,0,0-.64-.17l-3.37-.47c-.18,0-.26,0-.27.2l-.26,3.33a4.28,4.28,0,0,0,0,.66,2.06,2.06,0,0,0,.36.92,1.66,1.66,0,0,0,2.31.39c.69-.54,1-1.2.46-1.95.59.75,1.35.53,2,0A1.66,1.66,0,0,0,84.43,118Zm-1.2.43a1,1,0,0,1-.11,1.45c-.43.33-.9.47-1.26,0,.36.47.14.87-.29,1.21a1,1,0,0,1-1.43-.24,1.28,1.28,0,0,1-.22-.57,2.89,2.89,0,0,1,0-.41l.16-2.07c0-.11.06-.14.17-.12l2.09.29a2.47,2.47,0,0,1,.4.1A1.28,1.28,0,0,1,83.23,118.47Z"/><path d="M87.3,121.67a2.07,2.07,0,0,0-.81-.57,4.46,4.46,0,0,0-.64-.17l-3.37-.48c-.18,0-.26,0-.27.2L81.94,124a4.25,4.25,0,0,0,0,.66,2.07,2.07,0,0,0,.35.92,1.66,1.66,0,0,0,2.32.39c.69-.54,1-1.2.46-2,.59.75,1.35.54,2,0A1.66,1.66,0,0,0,87.3,121.67Zm-1.2.43a1,1,0,0,1-.11,1.45c-.43.33-.9.47-1.26,0,.37.47.14.87-.29,1.21a1,1,0,0,1-1.43-.24,1.26,1.26,0,0,1-.22-.57,2.75,2.75,0,0,1,0-.41l.16-2.07c0-.11.06-.14.17-.12l2.09.29a2.68,2.68,0,0,1,.4.1A1.28,1.28,0,0,1,86.1,122.1Z"/><path d="M90.32,124.88a2.05,2.05,0,0,0-.87-.47,4.22,4.22,0,0,0-.65-.1l-3.41-.1c-.18,0-.26,0-.25.23l.11,3.34a4.39,4.39,0,0,0,.08.66,2.08,2.08,0,0,0,.45.88,1.66,1.66,0,0,0,2.34.13c.63-.61.91-1.3.24-2,.67.68,1.4.38,2-.23A1.66,1.66,0,0,0,90.32,124.88Zm-1.15.56a1,1,0,0,1,0,1.46c-.39.38-.84.56-1.26.14.41.43.24.85-.15,1.23a1,1,0,0,1-1.45-.08,1.29,1.29,0,0,1-.28-.54,2.57,2.57,0,0,1-.05-.41L86,125.17c0-.11,0-.15.16-.14l2.11.06a2.72,2.72,0,0,1,.41.06A1.27,1.27,0,0,1,89.17,125.44Z"/><path d="M59.75,7c.3-.82.28-1.61-.62-1.94.9.33,1.41-.21,1.72-1A1.66,1.66,0,0,0,59.78,1.9a2.06,2.06,0,0,0-1-.06,4.41,4.41,0,0,0-.63.19L55.07,3.3c-.17.07-.19.16-.11.32l1.48,3.07a4.48,4.48,0,0,0,.36.56,2.06,2.06,0,0,0,.79.6A1.66,1.66,0,0,0,59.75,7ZM57.14,6.2a2.74,2.74,0,0,1-.22-.35L56,3.95c-.05-.1,0-.16.07-.2L58,3a2.84,2.84,0,0,1,.39-.12,1.25,1.25,0,0,1,.61,0,1,1,0,0,1,.67,1.29c-.19.51-.51.84-1.07.64.56.2.57.69.38,1.21a1,1,0,0,1-1.35.55A1.29,1.29,0,0,1,57.14,6.2Z"/><path d="M62.91,9.83c.53-.7.73-1.46,0-2,.77.57,1.41.2,1.94-.5A1.66,1.66,0,0,0,64.38,5a2.07,2.07,0,0,0-.93-.34,4.7,4.7,0,0,0-.66,0L59.47,5c-.18,0-.23.1-.2.28l.54,3.36a4.47,4.47,0,0,0,.18.64,2.05,2.05,0,0,0,.58.8A1.66,1.66,0,0,0,62.91,9.83ZM60.62,8.36a2.74,2.74,0,0,1-.11-.4l-.33-2.09c0-.11,0-.16.12-.17l2.06-.2a2.75,2.75,0,0,1,.41,0,1.26,1.26,0,0,1,.58.21,1,1,0,0,1,.27,1.43c-.33.43-.73.66-1.2.31.47.36.35.83,0,1.27A1,1,0,0,1,61,8.85,1.28,1.28,0,0,1,60.62,8.36Z"/><path d="M65.94,13.21c.62-.61.94-1.34.26-2,.67.68,1.37.41,2-.2a1.66,1.66,0,0,0-.09-2.34,2.08,2.08,0,0,0-.87-.47,4.34,4.34,0,0,0-.65-.09l-3.34-.17c-.18,0-.24.06-.24.25l0,3.41a4.47,4.47,0,0,0,.09.65,2.05,2.05,0,0,0,.46.87A1.66,1.66,0,0,0,65.94,13.21Zm-2-1.8a2.5,2.5,0,0,1-.05-.41l0-2.11c0-.12,0-.16.15-.15L66,8.84a2.79,2.79,0,0,1,.41.06A1.25,1.25,0,0,1,67,9.2,1,1,0,0,1,67,10.65c-.39.38-.82.55-1.24.13.42.42.22.87-.16,1.25A1,1,0,0,1,64.18,12,1.29,1.29,0,0,1,63.89,11.41Z"/><path d="M68.26,17c.72-.49,1.16-1.15.62-1.94.54.79,1.27.65,2,.16a1.66,1.66,0,0,0,.34-2.32,2.09,2.09,0,0,0-.77-.62,4.32,4.32,0,0,0-.63-.21l-3.25-.77c-.18,0-.25,0-.27.2l-.57,3.36a4.26,4.26,0,0,0,0,.66,2.07,2.07,0,0,0,.29.94A1.66,1.66,0,0,0,68.26,17Zm-1.69-2.14a2.62,2.62,0,0,1,0-.41l.36-2.08c0-.11.06-.15.17-.13l2,.48a2.74,2.74,0,0,1,.39.13,1.26,1.26,0,0,1,.48.38,1,1,0,0,1-.21,1.44c-.45.31-.91.39-1.24-.1.33.49.06.9-.39,1.2a1,1,0,0,1-1.42-.33A1.26,1.26,0,0,1,66.57,14.87Z"/><path d="M70.85,20.85c.72-.49,1.16-1.15.62-1.94.54.79,1.27.65,2,.16a1.66,1.66,0,0,0,.33-2.32,2.06,2.06,0,0,0-.77-.62,4.32,4.32,0,0,0-.63-.21l-3.25-.77c-.18,0-.25,0-.28.2l-.57,3.36a4.51,4.51,0,0,0,0,.66,2,2,0,0,0,.29.94A1.66,1.66,0,0,0,70.85,20.85Zm-1.69-2.14a2.59,2.59,0,0,1,0-.41l.36-2.08c0-.12.06-.15.17-.13l2,.48a2.72,2.72,0,0,1,.39.13,1.25,1.25,0,0,1,.48.38,1,1,0,0,1-.21,1.44c-.45.31-.9.39-1.24-.1.33.49.06.9-.39,1.21a1,1,0,0,1-1.42-.34A1.3,1.3,0,0,1,69.16,18.71Z"/><path d="M71.81,24.66c.84-.23,1.47-.71,1.22-1.63.25.92,1,1,1.83.8a1.66,1.66,0,0,0,1.08-2.09,2.09,2.09,0,0,0-.53-.84,4.24,4.24,0,0,0-.52-.4l-2.82-1.79c-.15-.1-.24-.06-.33.1l-1.64,3a4.69,4.69,0,0,0-.25.61,2.07,2.07,0,0,0,0,1A1.66,1.66,0,0,0,71.81,24.66Zm-.9-2.57a2.63,2.63,0,0,1,.16-.38l1-1.85c.05-.1.11-.12.2-.06L74,20.9a2.74,2.74,0,0,1,.33.25,1.26,1.26,0,0,1,.33.52A1,1,0,0,1,74,23c-.52.14-1,.08-1.14-.5.15.57-.24.87-.76,1a1,1,0,0,1-1.23-.78A1.3,1.3,0,0,1,70.91,22.08Z"/><path d="M72.13,29.18c.87-.1,1.56-.48,1.45-1.43.11,1,.83,1.16,1.7,1.06a1.66,1.66,0,0,0,1.37-1.9,2.08,2.08,0,0,0-.4-.91,4.4,4.4,0,0,0-.46-.48l-2.53-2.18c-.14-.12-.23-.1-.34.05l-2.06,2.71a4.24,4.24,0,0,0-.34.57,2.05,2.05,0,0,0-.17,1A1.66,1.66,0,0,0,72.13,29.18Zm-.51-2.67a2.63,2.63,0,0,1,.21-.36l1.28-1.68c.07-.09.12-.1.21,0l1.57,1.35a2.47,2.47,0,0,1,.28.3,1.27,1.27,0,0,1,.25.56,1,1,0,0,1-.85,1.18c-.54.07-1-.07-1.05-.66.07.59-.36.83-.9.89a1,1,0,0,1-1.1-1A1.28,1.28,0,0,1,71.62,26.51Z"/><path d="M71.63,33.61c.87.05,1.62-.19,1.68-1.15-.06,1,.61,1.29,1.48,1.35a1.66,1.66,0,0,0,1.69-1.63,2.06,2.06,0,0,0-.23-1,4.15,4.15,0,0,0-.37-.55l-2.1-2.6c-.12-.14-.21-.14-.34,0l-2.51,2.3a4.32,4.32,0,0,0-.43.5,2.05,2.05,0,0,0-.35.92A1.66,1.66,0,0,0,71.63,33.61Zm0-2.72a2.55,2.55,0,0,1,.27-.31l1.56-1.43c.08-.08.14-.08.21,0L75,30.77a2.74,2.74,0,0,1,.22.34,1.27,1.27,0,0,1,.14.59,1,1,0,0,1-1,1c-.54,0-1-.25-.92-.84,0,.59-.5.75-1,.72a1,1,0,0,1-.91-1.14A1.27,1.27,0,0,1,71.61,30.88Z"/><path d="M71.32,38.22c.87.06,1.62-.19,1.68-1.15-.06,1,.61,1.29,1.48,1.35a1.66,1.66,0,0,0,1.69-1.63,2.09,2.09,0,0,0-.23-1,4.36,4.36,0,0,0-.37-.55l-2.1-2.6c-.12-.14-.21-.14-.34,0L70.62,35a4.21,4.21,0,0,0-.43.5,2.08,2.08,0,0,0-.35.92A1.66,1.66,0,0,0,71.32,38.22Zm0-2.72a2.5,2.5,0,0,1,.27-.31l1.56-1.42c.08-.08.14-.08.21,0l1.3,1.62a2.54,2.54,0,0,1,.23.34,1.26,1.26,0,0,1,.14.6,1,1,0,0,1-1,1c-.54,0-1-.25-.92-.84,0,.59-.5.75-1,.71a1,1,0,0,1-.91-1.14A1.29,1.29,0,0,1,71.3,35.5Z"/><path d="M70.43,42.73c.86.15,1.63,0,1.8-1-.17.94.46,1.35,1.32,1.5a1.66,1.66,0,0,0,1.86-1.43,2.09,2.09,0,0,0-.12-1,4.7,4.7,0,0,0-.3-.59l-1.8-2.82c-.1-.15-.19-.16-.34,0l-2.75,2a4.13,4.13,0,0,0-.48.45,2.07,2.07,0,0,0-.45.88A1.66,1.66,0,0,0,70.43,42.73ZM70.71,40a3,3,0,0,1,.3-.28l1.71-1.25c.09-.07.15-.07.21,0L74,40.27a2.71,2.71,0,0,1,.19.36,1.28,1.28,0,0,1,.07.61,1,1,0,0,1-1.15.89c-.54-.09-.92-.35-.82-.93-.1.58-.58.69-1.12.6a1,1,0,0,1-.78-1.23A1.27,1.27,0,0,1,70.71,40Z"/><path d="M68.34,46.45c.79.37,1.58.42,2-.45-.41.87.09,1.43.88,1.8a1.66,1.66,0,0,0,2.17-.89,2.08,2.08,0,0,0,.14-1,4.42,4.42,0,0,0-.14-.65l-1-3.19c-.05-.18-.14-.21-.31-.14L68.9,43.17a4.47,4.47,0,0,0-.59.31,2.07,2.07,0,0,0-.66.73A1.66,1.66,0,0,0,68.34,46.45Zm1-2.54a2.57,2.57,0,0,1,.36-.19l2-.75c.11,0,.16,0,.2.08l.61,2a2.66,2.66,0,0,1,.09.4,1.28,1.28,0,0,1-.09.61,1,1,0,0,1-1.35.55c-.49-.23-.8-.58-.54-1.12-.25.54-.74.51-1.23.28a1,1,0,0,1-.43-1.39A1.3,1.3,0,0,1,69.33,43.91Z"/><path d="M68.72,52c.87,0,1.6-.34,1.57-1.29,0,1,.72,1.23,1.59,1.21a1.66,1.66,0,0,0,1.54-1.77,2.09,2.09,0,0,0-.31-.94,4.21,4.21,0,0,0-.41-.52l-2.32-2.4c-.13-.13-.22-.12-.34,0l-2.3,2.51a4.61,4.61,0,0,0-.39.54,2.08,2.08,0,0,0-.26,1A1.66,1.66,0,0,0,68.72,52Zm-.27-2.71a3,3,0,0,1,.24-.33l1.43-1.56c.07-.09.13-.09.21,0l1.44,1.49a3.08,3.08,0,0,1,.26.32,1.28,1.28,0,0,1,.19.58,1,1,0,0,1-1,1.1c-.54,0-1-.16-1-.75,0,.59-.43.79-1,.81a1,1,0,0,1-1-1A1.3,1.3,0,0,1,68.45,49.3Z"/><path d="M68,56.48c.87.11,1.63-.1,1.74-1-.12,1,.53,1.33,1.4,1.43a1.66,1.66,0,0,0,1.78-1.53,2.06,2.06,0,0,0-.17-1,4.37,4.37,0,0,0-.33-.57l-1.94-2.72c-.11-.15-.2-.15-.34,0L67.46,53.2a4.52,4.52,0,0,0-.46.48,2.08,2.08,0,0,0-.4.9A1.66,1.66,0,0,0,68,56.48Zm.14-2.72a2.54,2.54,0,0,1,.29-.29L70,52.14c.09-.08.15-.07.21,0l1.2,1.69a2.28,2.28,0,0,1,.21.36,1.27,1.27,0,0,1,.11.6,1,1,0,0,1-1.11.95c-.54-.06-.94-.3-.87-.89-.07.59-.54.71-1.08.65a1,1,0,0,1-.85-1.19A1.28,1.28,0,0,1,68.1,53.76Z"/><path d="M66.42,60.66c.83.26,1.62.2,1.9-.72-.28.91.28,1.4,1.12,1.66a1.66,1.66,0,0,0,2-1.18,2.05,2.05,0,0,0,0-1,4.43,4.43,0,0,0-.23-.62l-1.42-3c-.08-.16-.17-.18-.33-.09l-3,1.64a4.37,4.37,0,0,0-.54.38,2.06,2.06,0,0,0-.55.81A1.66,1.66,0,0,0,66.42,60.66ZM67,58a2.8,2.8,0,0,1,.33-.24l1.85-1c.1-.06.16,0,.2.05l.88,1.88a2.8,2.8,0,0,1,.14.39,1.28,1.28,0,0,1,0,.61,1,1,0,0,1-1.26.73c-.52-.16-.87-.46-.69-1-.18.57-.66.61-1.18.45a1,1,0,0,1-.62-1.32A1.28,1.28,0,0,1,67,58Z"/><path d="M65,65.08c.83.26,1.62.2,1.9-.72-.29.91.28,1.4,1.12,1.66a1.66,1.66,0,0,0,2-1.18,2.08,2.08,0,0,0,0-1,4.29,4.29,0,0,0-.23-.62l-1.42-3c-.08-.16-.17-.19-.33-.09l-3,1.64a4.43,4.43,0,0,0-.54.39A2,2,0,0,0,64,63,1.66,1.66,0,0,0,65,65.08Zm.62-2.65a2.7,2.7,0,0,1,.33-.24l1.85-1c.1-.06.16,0,.2.06l.88,1.88a2.82,2.82,0,0,1,.14.38,1.28,1.28,0,0,1,0,.61,1,1,0,0,1-1.26.73c-.52-.16-.87-.46-.69-1-.18.57-.67.61-1.18.45a1,1,0,0,1-.62-1.32A1.27,1.27,0,0,1,65.65,62.42Z"/><path d="M67.09,70.4c.82-.3,1.41-.83,1.08-1.72.33.9,1.08.94,1.9.64a1.66,1.66,0,0,0,.9-2.17,2.07,2.07,0,0,0-.59-.79,4.53,4.53,0,0,0-.56-.36l-3-1.54c-.16-.08-.25,0-.32.13L65.15,67.7a4.37,4.37,0,0,0-.2.63,2,2,0,0,0,.05,1A1.66,1.66,0,0,0,67.09,70.4ZM66,67.92a2.84,2.84,0,0,1,.12-.39L67,65.59c0-.11.1-.13.2-.08l1.84,1a2.7,2.7,0,0,1,.35.22,1.29,1.29,0,0,1,.37.49,1,1,0,0,1-.56,1.34c-.51.19-1,.16-1.18-.4.2.56-.16.89-.67,1.07A1,1,0,0,1,66,68.53,1.29,1.29,0,0,1,66,67.92Z"/><path d="M67.79,74.88c.86-.17,1.52-.61,1.32-1.55.19.94.92,1.09,1.78.91a1.66,1.66,0,0,0,1.2-2,2.08,2.08,0,0,0-.47-.87,4.56,4.56,0,0,0-.5-.43l-2.7-2c-.15-.11-.24-.08-.33.08l-1.82,2.88a4.23,4.23,0,0,0-.29.6,2.06,2.06,0,0,0-.09,1A1.66,1.66,0,0,0,67.79,74.88Zm-.73-2.62a2.79,2.79,0,0,1,.18-.37l1.13-1.78c.06-.1.11-.12.21,0l1.68,1.22a2.64,2.64,0,0,1,.31.27,1.26,1.26,0,0,1,.29.54,1,1,0,0,1-.75,1.25c-.53.11-1,0-1.1-.57.12.58-.29.85-.82,1A1,1,0,0,1,67,72.87,1.3,1.3,0,0,1,67.06,72.26Z"/><path d="M67.67,79.34c.87,0,1.6-.33,1.58-1.29,0,1,.71,1.24,1.59,1.22a1.66,1.66,0,0,0,1.55-1.76,2.07,2.07,0,0,0-.31-.94,4.46,4.46,0,0,0-.41-.52l-2.31-2.41c-.13-.13-.22-.12-.34,0l-2.31,2.5a4.43,4.43,0,0,0-.39.54,2,2,0,0,0-.27.95A1.66,1.66,0,0,0,67.67,79.34Zm-.25-2.71a2.67,2.67,0,0,1,.24-.33l1.43-1.55c.08-.09.13-.09.21,0l1.43,1.5a2.87,2.87,0,0,1,.25.32,1.26,1.26,0,0,1,.19.58,1,1,0,0,1-1,1.09c-.54,0-1-.16-1-.76,0,.59-.44.79-1,.8a1,1,0,0,1-1-1.06A1.27,1.27,0,0,1,67.42,76.62Z"/><path d="M67.74,84c.87,0,1.6-.33,1.58-1.28,0,1,.71,1.24,1.59,1.22a1.66,1.66,0,0,0,1.54-1.77,2.08,2.08,0,0,0-.31-.94,4.22,4.22,0,0,0-.41-.52l-2.31-2.42c-.12-.13-.22-.12-.34,0l-2.31,2.5a4.11,4.11,0,0,0-.39.54,2,2,0,0,0-.27.95A1.66,1.66,0,0,0,67.74,84Zm-.25-2.71a2.92,2.92,0,0,1,.24-.33l1.43-1.55c.08-.09.13-.09.21,0l1.43,1.5a2.75,2.75,0,0,1,.25.32,1.27,1.27,0,0,1,.19.58,1,1,0,0,1-1,1.09c-.54,0-1-.16-1-.76,0,.59-.44.79-1,.8a1,1,0,0,1-1-1.06A1.31,1.31,0,0,1,67.49,81.25Z"/><path d="M26.67,60.33c-.55.68-.78,1.43,0,2-.74-.6-1.41-.26-2,.42A1.66,1.66,0,0,0,25,65.1a2.05,2.05,0,0,0,.91.37,4.53,4.53,0,0,0,.66,0l3.34-.2c.18,0,.23-.09.21-.27l-.41-3.38a4.4,4.4,0,0,0-.16-.64,2.05,2.05,0,0,0-.55-.82A1.66,1.66,0,0,0,26.67,60.33Zm2.23,1.56a2.41,2.41,0,0,1,.1.4l.26,2.1c0,.11,0,.16-.13.17l-2.07.12a2.86,2.86,0,0,1-.41,0,1.28,1.28,0,0,1-.57-.23A1,1,0,0,1,25.86,63c.34-.42.75-.63,1.22-.26-.46-.37-.32-.84,0-1.26a1,1,0,0,1,1.46-.09A1.27,1.27,0,0,1,28.9,61.89Z"/><path d="M22.24,58c-.42.77-.5,1.55.34,2-.84-.45-1.43,0-1.85.78A1.66,1.66,0,0,0,21.5,63a2.08,2.08,0,0,0,1,.2,4.31,4.31,0,0,0,.65-.1l3.24-.81c.18,0,.21-.13.15-.31l-1-3.25a4.5,4.5,0,0,0-.27-.6,2.06,2.06,0,0,0-.69-.7A1.66,1.66,0,0,0,22.24,58Zm2.48,1.12a2.67,2.67,0,0,1,.17.37l.64,2c0,.11,0,.16-.09.19l-2,.5a2.5,2.5,0,0,1-.41.06,1.28,1.28,0,0,1-.6-.12,1,1,0,0,1-.48-1.38c.26-.48.62-.76,1.14-.48-.52-.28-.47-.77-.21-1.25a1,1,0,0,1,1.41-.35A1.28,1.28,0,0,1,24.73,59.13Z"/><path d="M13,54.84c-.16.86,0,1.63.94,1.8-.94-.17-1.36.45-1.51,1.31a1.66,1.66,0,0,0,1.42,1.87,2.06,2.06,0,0,0,1-.11,4.4,4.4,0,0,0,.59-.3l2.83-1.78c.15-.1.16-.19,0-.34l-2-2.77a4.14,4.14,0,0,0-.45-.49,2,2,0,0,0-.88-.45A1.66,1.66,0,0,0,13,54.84Zm2.71.3a2.6,2.6,0,0,1,.28.3l1.23,1.72c.07.09.06.15,0,.21l-1.76,1.1a2.64,2.64,0,0,1-.37.19,1.28,1.28,0,0,1-.61.07,1,1,0,0,1-.88-1.16c.1-.53.36-.92.94-.81-.58-.1-.68-.58-.59-1.12a1,1,0,0,1,1.23-.78A1.29,1.29,0,0,1,15.71,55.14Z"/><path d="M18.2,55.7c-.42.77-.5,1.55.34,2-.84-.45-1.43,0-1.85.78a1.66,1.66,0,0,0,.77,2.22,2.07,2.07,0,0,0,1,.2,4.75,4.75,0,0,0,.66-.1L22.33,60c.18,0,.21-.13.15-.3l-1-3.25a4.45,4.45,0,0,0-.27-.6,2.06,2.06,0,0,0-.69-.7A1.66,1.66,0,0,0,18.2,55.7Zm2.48,1.12a2.86,2.86,0,0,1,.17.37l.64,2c0,.11,0,.16-.09.19l-2,.5L19,60a1.28,1.28,0,0,1-.6-.12,1,1,0,0,1-.48-1.37c.26-.48.62-.76,1.15-.48-.52-.28-.47-.77-.21-1.25a1,1,0,0,1,1.41-.35A1.28,1.28,0,0,1,20.69,56.82Z"/><path class="cls-2" d="M94.06,131a2.63,2.63,0,0,1-.7-.18,1.94,1.94,0,0,1-.78-.48,5.24,5.24,0,1,0,1.48.66Z"/><path d="M96.27,131.77l.06,0c.26-.31.08-.89-.41-1.3s-1.05-.49-1.33-.21a6.18,6.18,0,1,0,1.67,1.55Zm-5.08,8.91a5.25,5.25,0,1,1,1.39-10.31.14.14,0,0,1,0-.12c.05-.13.5-.08,1,.12s.86.46.81.6-.14.08-.3.07a5.25,5.25,0,0,1-2.87,9.65Z"/></g></g></svg>