<svg xmlns="http://www.w3.org/2000/svg" viewBox="0 0 103.79 168.73"><defs><style>.cls-1,.cls-2{fill:#fff;}.cls-2,.cls-3{stroke:#fff;stroke-width:0.5px;}</style></defs><title>Ресурс 33clock</title><g id="Слой_2" data-name="Слой 2"><g id="Layer_1" data-name="Layer 1"><path d="M96.25,152.91V26.59c0,.74,2.86-.78,3-.9a32.31,32.31,0,0,0,3.83-3.83L86.51,22c-.47,0-3.43-4.16-4-4.71a23,23,0,0,0-4.89-3.4c-2.86-1.48-7.73-1.47-10.06-3.51C64.81,8,61.59,5.83,58,5.24c-1.89-.3-4,.09-5.92-.32V4.86l-.16,0-.15,0v.07c-1.88.41-4,0-5.92.32-3.64.59-6.86,2.73-9.58,5.11-2.33,2-7.2,2-10.06,3.51a22.9,22.9,0,0,0-4.89,3.4c-.6.54-3.57,4.71-4,4.71L.62,21.86a31.9,31.9,0,0,0,3.83,3.83c.18.12,3,1.64,3,.9V152.91c0-.28-4.25,0-4.69.38-1.47,1.1-.93,3.41-.93,5H3.75v2.08c0,.19,1,1.26,1.17,1.59,1.24,3,.48,5,3.62,6.73H95.21C98.34,167,97.59,165,98.83,162c.14-.33,1.17-1.41,1.17-1.59v-2.08h1.87c0-1.62.55-3.93-.93-5C100.49,153,96.25,152.63,96.25,152.91Z"/><path d="M84.28,59.36a32.67,32.67,0,1,0-64.51,7.32v77.9a3.76,3.76,0,0,0,3.75,3.75H79.7a3.76,3.76,0,0,0,3.75-3.75V66.68A32.74,32.74,0,0,0,84.28,59.36Z"/><path class="cls-1" d="M23.51,148.64a4.07,4.07,0,0,1-4.06-4.06h0V66.75a33,33,0,0,1-.84-7.39h0a33,33,0,0,1,33-33h0a33,33,0,0,1,33,33h0a32.4,32.4,0,0,1-.83,7.32h0v77.9a4.07,4.07,0,0,1-4.06,4.06H23.51ZM19.25,59.36a33,33,0,0,0,.83,7.32h0v77.9A3.45,3.45,0,0,0,23.51,148H79.7a3.45,3.45,0,0,0,3.43-3.43h0v-78A32.59,32.59,0,0,0,84,59.36h0A32.4,32.4,0,0,0,51.61,27h0A32.4,32.4,0,0,0,19.25,59.36Z"/><path d="M94.64,17.77A20.24,20.24,0,0,1,90,16.69c-3.24-1.45-6.07-3.71-9.19-5.39a44.87,44.87,0,0,0-5.51-2.77c-2-.75-4-.65-5.95-1.74C63.88,3.71,59,.86,52.66.31H51.13c-6.39.55-11.22,3.4-16.67,6.48-1.93,1.09-3.93,1-5.95,1.74A44.84,44.84,0,0,0,23,11.3c-3.12,1.68-6,3.94-9.19,5.39a20.25,20.25,0,0,1-4.66,1.08C8.41,17.9.32,19.24.31,18v4.21l16.84.47c.11,0,1.93-3.09,2.14-3.35a21.78,21.78,0,0,1,3.86-3.51,20.18,20.18,0,0,1,9.42-4.06l3.35-.36c.63-.07,1.83-1.93,2.31-2.34a14,14,0,0,1,3.27-2.07,25.52,25.52,0,0,1,7.11-1.78l3.28-.29,3.28.29a25.53,25.53,0,0,1,7.11,1.78A14,14,0,0,1,65.56,9c.47.41,1.68,2.27,2.31,2.34l3.35.36a20.18,20.18,0,0,1,9.42,4.06,21.78,21.78,0,0,1,3.86,3.51c.21.26,2,3.35,2.14,3.35l16.84-.47V18C103.47,19.24,95.38,17.9,94.64,17.77Z"/><path class="cls-1" d="M0,22.47V17.95H.65a1,1,0,0,0,.3.12h0a6,6,0,0,0,1.35.11h0a51.19,51.19,0,0,0,6.81-.73h0a20.14,20.14,0,0,0,4.59-1.05h0c3.19-1.43,6-3.68,9.17-5.38h0a44.78,44.78,0,0,1,5.55-2.79h0c2.1-.76,4.08-.67,5.9-1.72h0C39.76,3.44,44.64.56,51.13,0h1.55C59.16.56,64,3.44,69.48,6.52h0c1.83,1,3.81,1,5.9,1.72h0A44.66,44.66,0,0,1,80.93,11h0c3.16,1.69,6,3.95,9.17,5.38h0a20,20,0,0,0,4.59,1.05h0a51.06,51.06,0,0,0,6.81.73h0a3.62,3.62,0,0,0,1.65-.23h0s0,0,0,0h.62v4.51l-17.39.48,0-.13s0-.08-.1-.14h0c-.07-.09-.15-.21-.24-.37h0c-.19-.3-.44-.69-.68-1.09h0c-.49-.8-1-1.67-1.08-1.74h0A21.58,21.58,0,0,0,80.46,16h0a19.88,19.88,0,0,0-9.27-4h0l-3.36-.36h0c-1-.2-2-2.08-2.48-2.42h0a13.77,13.77,0,0,0-3.2-2h0a25.24,25.24,0,0,0-7-1.75h0l-3.2-.29h0l-3.26.29h0a25.28,25.28,0,0,0-7,1.75h0a13.81,13.81,0,0,0-3.2,2h0c-.45.34-1.51,2.22-2.48,2.42h0L32.61,12h0a19.87,19.87,0,0,0-9.27,4h0a21.57,21.57,0,0,0-3.81,3.46h0c-.14.15-1.58,2.59-2,3.19h0a.15.15,0,0,0-.06.06h0V23L0,22.47Zm86.61.47h0l-.17-.06h0l.13.06Zm.05,0h0Zm.2-.09,0,0h0l.06-.05h0l0,0Zm-70,0,0-.07h0a.3.3,0,0,0,0,.07Zm70,0c0-.06,0-.08,0-.09h0a.34.34,0,0,1,0,.09Zm-70.09-.08a.32.32,0,0,1,0-.05h0a.18.18,0,0,0,0,.05ZM71.25,11.39a20.47,20.47,0,0,1,9.58,4.12h0a22.1,22.1,0,0,1,3.92,3.56h0c.21.27,1.71,2.78,2,3.24h0l16.39-.46V18.65a7,7,0,0,1-1.67.17h0a51.11,51.11,0,0,1-6.91-.74h0l.05-.31-.06.31A20.37,20.37,0,0,1,89.85,17h0c-3.29-1.47-6.12-3.74-9.21-5.4h0a45,45,0,0,0-5.47-2.75h0c-1.94-.73-4-.63-6-1.76h0C63.71,4,58.94,1.17,52.66.62h-1.5C44.86,1.17,40.08,4,34.62,7.07h0c-2,1.13-4.06,1-6,1.76h0a45,45,0,0,0-5.47,2.75h0c-3.09,1.66-5.93,3.93-9.21,5.4h0a20.3,20.3,0,0,1-4.73,1.1h0a51.05,51.05,0,0,1-6.92.74h0a6.55,6.55,0,0,1-1.5-.13h0l-.17,0h0v3.23L17,22.31l.23-.34h0c.19-.29.43-.68.68-1.09h0c.5-.82,1-1.62,1.14-1.81h0A22,22,0,0,1,23,15.52h0a20.47,20.47,0,0,1,9.58-4.12h0L35.89,11h0c.29.06,1.64-1.78,2.14-2.27h0a14.34,14.34,0,0,1,3.35-2.12h0a25.8,25.8,0,0,1,7.19-1.8h0l3.36-.3h0l3.3.3h0a25.85,25.85,0,0,1,7.19,1.8h0a14.32,14.32,0,0,1,3.35,2.12h0c.49.48,1.84,2.33,2.13,2.27h0l3.35.36Z"/><path class="cls-1" d="M19,28.57c0,.54-.68,1-1.53,1H9.9c-.84,0-1.53-.44-1.53-1h0c0-.55.68-1,1.53-1h7.56c.84,0,1.53.44,1.53,1Z"/><path class="cls-1" d="M19,39.18c0-.54-.68-1-1.53-1H9.9c-.84,0-1.53.44-1.53,1h0c0,.55.68,1,1.53,1h7.56c.84,0,1.53-.44,1.53-1Z"/><path class="cls-1" d="M19,140.42c0,.55-.68,1-1.53,1H9.9c-.84,0-1.53-.44-1.53-1h0c0-.55.68-1,1.53-1h7.56c.84,0,1.53.44,1.53,1Z"/><path class="cls-1" d="M18.42,143.31c0,1.13-.61,2-1.36,2H10.31c-.75,0-1.36-.92-1.36-2h0c0-1.13.61-2.05,1.36-2.05h6.74c.75,0,1.36.92,1.36,2.05Z"/><path class="cls-1" d="M19,151c0-.55-.68-1-1.53-1H9.9c-.84,0-1.53.44-1.53,1h0c0,.55.68,1,1.53,1h7.56c.84,0,1.53-.44,1.53-1Z"/><path class="cls-1" d="M18.42,147.73c0-1.37-.61-2.47-1.36-2.47H10.31c-.75,0-1.36,1.11-1.36,2.47h0c0,1.37.61,2.48,1.36,2.48h6.74c.75,0,1.36-1.11,1.36-2.48Z"/><path class="cls-1" d="M18.52,36.39c0-1.13-.61-2-1.36-2H10.41c-.75,0-1.36.92-1.36,2h0c0,1.13.61,2.05,1.36,2.05h6.74c.75,0,1.36-.92,1.36-2.05Z"/><path class="cls-1" d="M18.52,32c0,1.37-.61,2.47-1.36,2.47H10.41c-.75,0-1.36-1.11-1.36-2.47h0c0-1.37.61-2.48,1.36-2.48h6.74c.75,0,1.36,1.11,1.36,2.48Z"/><path class="cls-1" d="M17,89.72c0,32.69-.43,59.27-1,59.27H11.27c-.53,0-1-26.58-1-59.27h0c0-32.76.43-59.34,1-59.34H16c.53,0,1,26.58,1,59.34Z"/><path class="cls-1" d="M95.47,28.72c0,.54-.68,1-1.53,1H86.38c-.84,0-1.53-.44-1.53-1h0c0-.55.69-1,1.53-1h7.56c.84,0,1.53.44,1.53,1Z"/><path class="cls-1" d="M95.47,39.33c0-.54-.68-1-1.53-1H86.38c-.84,0-1.53.44-1.53,1h0c0,.55.69,1,1.53,1h7.56c.84,0,1.53-.44,1.53-1Z"/><path class="cls-1" d="M95.47,140.58c0,.55-.68,1-1.53,1H86.38c-.84,0-1.53-.44-1.53-1h0c0-.55.69-1,1.53-1h7.56c.84,0,1.53.44,1.53,1Z"/><path class="cls-1" d="M94.9,143.46c0,1.13-.61,2-1.36,2H86.79c-.75,0-1.36-.92-1.36-2h0c0-1.13.61-2.05,1.36-2.05h6.74c.75,0,1.36.92,1.36,2.05Z"/><path class="cls-1" d="M95.47,151.19c0-.55-.68-1-1.53-1H86.38c-.84,0-1.53.44-1.53,1h0c0,.55.69,1,1.53,1h7.56c.84,0,1.53-.44,1.53-1Z"/><path class="cls-1" d="M94.9,147.88c0-1.37-.61-2.47-1.36-2.47H86.79c-.75,0-1.36,1.11-1.36,2.47h0c0,1.37.61,2.48,1.36,2.48h6.74c.75,0,1.36-1.11,1.36-2.48Z"/><path class="cls-1" d="M95,36.55c0-1.13-.61-2-1.36-2H86.89c-.75,0-1.36.92-1.36,2h0c0,1.13.61,2.05,1.36,2.05h6.74c.75,0,1.36-.92,1.36-2.05Z"/><path class="cls-1" d="M95,32.13c0,1.37-.61,2.47-1.36,2.47H86.89c-.75,0-1.36-1.11-1.36-2.47h0c0-1.37.61-2.48,1.36-2.48h6.74c.75,0,1.36,1.11,1.36,2.48Z"/><path class="cls-1" d="M93.49,89.88c0,32.69-.43,59.27-1,59.27H87.75c-.53,0-1-26.58-1-59.27h0c0-32.76.43-59.34,1-59.34h4.78c.53,0,1,26.58,1,59.34Z"/><rect class="cls-1" x="4.99" y="159.05" width="93.96" height="1.25"/><circle cx="51.62" cy="61.24" r="30.45"/><path class="cls-1" d="M20.87,61.24A30.76,30.76,0,0,1,51.62,30.48h0A30.76,30.76,0,0,1,82.38,61.24h0A30.76,30.76,0,0,1,51.62,92h0A30.76,30.76,0,0,1,20.87,61.24Zm.62,0A30.17,30.17,0,0,0,51.62,91.37h0A30.17,30.17,0,0,0,81.76,61.24h0A30.17,30.17,0,0,0,51.62,31.11h0A30.17,30.17,0,0,0,21.49,61.24Z"/><circle class="cls-1" cx="51.67" cy="61.08" r="27.67"/><path d="M23.73,61.13a27.91,27.91,0,0,1,27.9-27.9h0a27.91,27.91,0,0,1,27.9,27.9h0A27.9,27.9,0,0,1,51.64,89h0a27.9,27.9,0,0,1-27.9-27.9ZM32.11,41.6A27.53,27.53,0,0,0,24,61.13h0a27.52,27.52,0,0,0,8.09,19.52h0a27.51,27.51,0,0,0,19.52,8.09h0a27.51,27.51,0,0,0,19.52-8.09h0a27.52,27.52,0,0,0,8.09-19.52h0A27.53,27.53,0,0,0,71.16,41.6h0a27.53,27.53,0,0,0-19.52-8.08h0A27.53,27.53,0,0,0,32.11,41.6Z"/><path d="M25.63,61.21a26,26,0,0,1,26-26h0a26,26,0,0,1,26,26h0a26,26,0,0,1-26,26h0a26,26,0,0,1-26-26ZM33.48,43A25.59,25.59,0,0,0,26,61.21h0a25.59,25.59,0,0,0,7.52,18.16h0a25.59,25.59,0,0,0,18.16,7.52h0a25.6,25.6,0,0,0,18.16-7.52h0a25.6,25.6,0,0,0,7.52-18.16h0A25.6,25.6,0,0,0,69.79,43h0a25.6,25.6,0,0,0-18.16-7.52h0A25.59,25.59,0,0,0,33.48,43Z"/><path d="M39.16,61.26A12.58,12.58,0,0,1,51.74,48.68h0A12.58,12.58,0,0,1,64.32,61.26h0A12.58,12.58,0,0,1,51.74,73.84h0A12.58,12.58,0,0,1,39.16,61.26ZM43,52.48a12.37,12.37,0,0,0-3.64,8.78h0A12.38,12.38,0,0,0,43,70h0a12.39,12.39,0,0,0,8.79,3.64h0A12.39,12.39,0,0,0,60.52,70h0a12.39,12.39,0,0,0,3.64-8.79h0a12.38,12.38,0,0,0-3.64-8.78h0a12.38,12.38,0,0,0-8.79-3.64h0A12.38,12.38,0,0,0,43,52.48Z"/><path d="M51.78,35.34v-3.5h-.23v3.5Z"/><path d="M51.55,87v3.4h.23V87Z"/><path d="M74.43,49.19l3.12-1.58-.08-.14L74.36,49Z"/><path d="M28.95,73.29l-3.39,1.8.08.15L29,73.45Z"/><path d="M64.74,38.91l1.85-3-.16-.09-1.85,3Z"/><path d="M38.84,83.61,37,86.73l.14.08L39,83.67Z"/><path d="M63.46,84.06l1.82,2.87.16-.07L63.63,84Z"/><path d="M37.44,35.29l-.14.17,1.8,3.07.18-.1Z"/><path d="M29.33,48.4l-3.45-2.08-.09.17,3.46,2.08Z"/><path d="M74,73.94l-.08.15L76.77,76l.08-.15Z"/><path d="M26,61.1H22.05v.23H26C26,61.26,26,61.18,26,61.1Z"/><path d="M77.29,61.1q0,.12,0,.23h3V61.1Z"/><path d="M63.45,40.45c.43-.77.49-.89.31-1l-.08-.06a.31.31,0,0,1,.11-.18,4.93,4.93,0,0,0,.43.27l.44.22a.3.3,0,0,1-.09.19l-.09,0c-.23-.08-.3,0-.73.8l-1.44,2.57c-.43.77-.48.87-.3,1l.07.07a.3.3,0,0,1-.11.17l-.42-.26L61.09,44a.31.31,0,0,1,.09-.18l.1,0c.23.06.3,0,.73-.8Z"/><path d="M72.22,49.31c.76-.43.88-.5.8-.73l0-.09a.3.3,0,0,1,.18-.09c.08.18.14.3.22.45s.15.25.26.42a.3.3,0,0,1-.18.11l-.06-.08c-.15-.18-.28-.12-1,.31L69.81,51c-.77.43-.86.5-.8.73l0,.1a.31.31,0,0,1-.18.1c-.08-.18-.14-.31-.22-.44s-.16-.26-.27-.42a.3.3,0,0,1,.17-.11l.07.08c.17.18.27.12,1-.3Z"/><path d="M72.88,50.48c.76-.43.88-.5.81-.73l0-.09a.3.3,0,0,1,.18-.09c.08.18.14.3.22.45s.15.25.26.42a.3.3,0,0,1-.18.11l-.06-.08c-.15-.18-.28-.12-1,.31l-2.57,1.44c-.77.43-.86.5-.8.73l0,.1a.31.31,0,0,1-.18.1c-.08-.18-.14-.3-.22-.44s-.16-.26-.27-.43a.3.3,0,0,1,.18-.11l.07.08c.17.18.27.13,1-.3Z"/><path d="M75.29,59.76c.88,0,1,0,1.06-.24l0-.1a.3.3,0,0,1,.21,0c0,.2,0,.33,0,.5s0,.29,0,.49a.3.3,0,0,1-.21,0l0-.1c0-.23-.18-.24-1.06-.24H72.34c-.88,0-1,0-1.05.24l0,.1a.3.3,0,0,1-.21,0c0-.2,0-.33,0-.49s0-.3,0-.5a.29.29,0,0,1,.21,0l0,.1c.06.23.17.24,1.05.24Z"/><path d="M75.29,61.1c.88,0,1,0,1.06-.24l0-.1a.3.3,0,0,1,.21,0c0,.2,0,.33,0,.5s0,.29,0,.49a.3.3,0,0,1-.21,0l0-.1c0-.23-.18-.24-1.06-.24H72.34c-.88,0-1,0-1.05.24l0,.1a.3.3,0,0,1-.21,0c0-.2,0-.33,0-.49s0-.3,0-.5a.29.29,0,0,1,.21,0l0,.1c.06.23.17.24,1.05.24Z"/><path d="M75.29,62.45c.88,0,1,0,1.06-.24l0-.1a.31.31,0,0,1,.21,0c0,.2,0,.33,0,.5s0,.29,0,.49a.3.3,0,0,1-.21,0l0-.1c0-.23-.18-.24-1.06-.24H72.34c-.88,0-1,0-1.05.24l0,.1a.3.3,0,0,1-.21,0c0-.2,0-.33,0-.49s0-.3,0-.5a.3.3,0,0,1,.21,0l0,.1c.06.23.17.24,1.05.24Z"/><path d="M51.12,41.87a.26.26,0,0,1,0,.21l-.5,0a4.52,4.52,0,0,0-.51,0,.33.33,0,0,1,0-.21l.12,0c.09,0,.13-.05.13-.11a1.15,1.15,0,0,0-.09-.37c-.17-.5-.39-1.19-.57-1.66-.11.28-.4,1.18-.56,1.76a1.14,1.14,0,0,0-.05.27s0,.09.12.11l.11,0a.29.29,0,0,1,0,.21l-.43,0-.41,0a.24.24,0,0,1,0-.21l.1,0c.22-.05.36-.41.47-.74,0-.13.32-.86.54-1.52a.6.6,0,0,0,0-.17.83.83,0,0,0,0-.19l-.6-1.78c-.13-.39-.21-.56-.35-.62l-.13-.06a.31.31,0,0,1,0-.21l.46,0a3.58,3.58,0,0,0,.45,0,.27.27,0,0,1,0,.21l-.11,0a.12.12,0,0,0-.12.11,1.91,1.91,0,0,0,.12.46c.13.4.37,1.14.51,1.51.1-.26.46-1.44.53-1.69a1.21,1.21,0,0,0,.06-.28s-.06-.09-.13-.11l-.1,0a.26.26,0,0,1,0-.21l.42,0,.38,0a.28.28,0,0,1,0,.21l-.1,0c-.12,0-.26.27-.43.71s-.33.91-.52,1.47a.82.82,0,0,0,0,.16.65.65,0,0,0,.05.21l.67,2c.13.39.24.52.36.55Z"/><path d="M51.54,37.84c0-.87,0-1-.24-1.06l-.1,0a.31.31,0,0,1,0-.21l.5,0,.49,0a.31.31,0,0,1,0,.21l-.1,0c-.23,0-.24.18-.24,1.06v2.95c0,.88,0,1,.24,1.05l.1,0a.31.31,0,0,1,0,.21l-.49,0-.5,0a.3.3,0,0,1,0-.21l.1,0c.24-.06.24-.17.24-1.05Z"/><path d="M52.88,37.84c0-.87,0-1-.24-1.06l-.1,0a.32.32,0,0,1,0-.21l.5,0,.49,0a.3.3,0,0,1,0,.21l-.1,0c-.24,0-.24.18-.24,1.06v2.95c0,.88,0,1,.24,1.05l.1,0a.3.3,0,0,1,0,.21l-.49,0-.5,0a.32.32,0,0,1,0-.21l.1,0c.23-.06.24-.17.24-1.05Z"/><path d="M73,71.6c.76.44.88.5,1,.33l.06-.08a.31.31,0,0,1,.17.11c-.11.16-.19.28-.27.42s-.14.26-.23.44a.31.31,0,0,1-.18-.1l0-.1c.08-.22,0-.3-.79-.74L70.34,70.4c-.76-.44-.86-.5-1-.32l-.07.07a.31.31,0,0,1-.18-.11c.12-.16.19-.28.27-.41s.14-.27.23-.45a.29.29,0,0,1,.18.1l0,.1c-.07.23,0,.3.79.74Z"/><path d="M72.76,72.86c.44.16.63.19.75.07l.05-.06a.26.26,0,0,1,.17.11,2.84,2.84,0,0,0-.23.34,4.48,4.48,0,0,0-.22.43.27.27,0,0,1-.18-.1l0-.06c0-.15,0-.21,0-.24s-.5-.2-1.1-.41c-.92-.32-1.84-.65-2.75-1,.41.38,1.06,1,1.4,1.26L72,74.5a2.16,2.16,0,0,0,.26.19c.05,0,.13,0,.23-.08l.05-.05a.26.26,0,0,1,.17.11,3.4,3.4,0,0,0-.23.34,3.67,3.67,0,0,0-.17.35.3.3,0,0,1-.18-.09l0-.11c0-.09,0-.19-.15-.32-.28-.29-.78-.76-1.42-1.34l-.77-.7c-.58-.52-1.32-1.17-1.66-1.44a.06.06,0,0,1,0-.05l.05,0c.32.14.71.28,1,.4Z"/><path d="M63.49,82c.3.36.44.49.61.44l.07,0a.26.26,0,0,1,.09.19,3,3,0,0,0-.38.18l-.41.25a.25.25,0,0,1-.11-.18l0,0c.11-.11.12-.17.09-.23s-.32-.43-.73-.92c-.62-.75-1.24-1.5-1.88-2.23.16.54.42,1.37.55,1.79s.46,1.46.57,1.8a1.56,1.56,0,0,0,.12.3c0,.05.1.09.23.05l.07,0a.26.26,0,0,1,.09.19,3,3,0,0,0-.37.18,2.92,2.92,0,0,0-.33.21.31.31,0,0,1-.11-.18l.1-.07c.08-.06.08-.18,0-.35-.09-.39-.28-1.06-.53-1.88l-.3-1c-.23-.74-.53-1.68-.68-2.09a.06.06,0,0,1,0,0h.06c.21.29.46.6.69.88Z"/><path d="M53.6,85.23c.09.46.15.64.32.68l.07,0a.24.24,0,0,1,0,.2,3.16,3.16,0,0,0-.41,0l-.48,0a.26.26,0,0,1,0-.2l.06,0c.15,0,.18-.09.19-.16s-.08-.53-.2-1.16c-.18-1-.36-1.91-.56-2.86-.12.55-.29,1.4-.38,1.84s-.3,1.5-.37,1.86a1.74,1.74,0,0,0,0,.32c0,.06,0,.12.18.16l.07,0a.25.25,0,0,1,0,.2l-.41,0-.39,0a.31.31,0,0,1,0-.2l.12,0c.09,0,.16-.12.21-.29.11-.39.27-1.06.45-1.91l.21-1c.16-.76.35-1.72.41-2.16a.06.06,0,0,1,0,0l.06,0c0,.35.12.75.18,1.1Z"/><path d="M50.8,84.85c0,.88,0,1,.24,1.06l.1,0a.29.29,0,0,1,0,.2l-.5,0-.49,0a.3.3,0,0,1,0-.2l.1,0c.23,0,.24-.18.24-1.06V81.9c0-.88,0-1-.24-1.05l-.1,0a.31.31,0,0,1,0-.21l.49,0,.5,0a.3.3,0,0,1,0,.21l-.1,0c-.24.06-.24.17-.24,1.05Z"/><path d="M42,83.53c-.15.45-.19.63-.06.75l.05.05a.25.25,0,0,1-.11.17,2.83,2.83,0,0,0-.35-.23l-.43-.22a.25.25,0,0,1,.1-.18h.06c.15,0,.2,0,.24,0s.2-.5.41-1.1c.32-.92.65-1.84.95-2.75-.38.41-1,1.06-1.26,1.4L40.39,82.8a1.65,1.65,0,0,0-.19.26s0,.13.08.23l.05,0a.27.27,0,0,1-.11.18,3.07,3.07,0,0,0-.35-.23l-.35-.17a.31.31,0,0,1,.1-.18l.11,0c.09,0,.19,0,.32-.15.29-.28.76-.78,1.34-1.42l.7-.77c.52-.58,1.16-1.31,1.44-1.66h0a.1.1,0,0,1,0,.05c-.14.32-.28.71-.4,1Z"/><path d="M39.8,81.79c-.44.76-.5.88-.32,1l.08.06a.29.29,0,0,1-.11.17L39,82.79c-.14-.08-.26-.14-.44-.22a.32.32,0,0,1,.1-.19l.1,0c.22.08.3,0,.74-.79L41,79.08c.44-.76.49-.86.32-1L41.25,78a.3.3,0,0,1,.11-.17c.16.11.28.19.41.27a4.92,4.92,0,0,0,.45.23.31.31,0,0,1-.1.18l-.1,0c-.23-.07-.3,0-.74.79Z"/><path d="M38.64,81.11c-.44.76-.51.89-.32,1l.08.06a.3.3,0,0,1-.11.18c-.16-.11-.28-.19-.42-.27l-.44-.23a.3.3,0,0,1,.09-.18l.1,0c.22.08.3,0,.74-.79l1.48-2.55c.44-.76.49-.86.32-1l-.07-.07a.3.3,0,0,1,.11-.18l.41.27.45.23a.3.3,0,0,1-.1.18l-.1,0c-.23-.07-.3,0-.74.79Z"/><path d="M32.35,75.69c-.37.29-.5.43-.45.6l0,.07a.25.25,0,0,1-.19.09,2.66,2.66,0,0,0-.17-.38,4,4,0,0,0-.24-.41.25.25,0,0,1,.18-.1l0,0c.11.11.17.12.23.09s.43-.31.94-.71c.77-.61,1.53-1.21,2.28-1.82-.54.14-1.38.39-1.81.51l-1.82.53a1.78,1.78,0,0,0-.3.12c-.05,0-.09.09-.06.23l0,.07a.27.27,0,0,1-.19.09,3,3,0,0,0-.17-.38,3.2,3.2,0,0,0-.2-.33.32.32,0,0,1,.18-.1l.07.1c.06.08.17.08.35,0,.4-.08,1.07-.25,1.9-.48l1-.28c.75-.21,1.69-.49,2.11-.63a0,0,0,0,1,0,0,.1.1,0,0,1,0,.07c-.29.2-.61.45-.89.67Z"/><path d="M31.39,73c-.78.4-.9.48-.83.7l0,.1a.3.3,0,0,1-.19.09c-.08-.18-.13-.31-.21-.46S30.06,73.2,30,73a.32.32,0,0,1,.18-.1l.06.08c.15.19.28.13,1.05-.27l2.62-1.36c.78-.41.88-.46.82-.7l0-.1a.3.3,0,0,1,.19-.09c.08.18.13.31.21.45s.15.27.25.43a.32.32,0,0,1-.18.1l-.07-.08c-.16-.18-.27-.13-1,.27Z"/><path d="M30.77,71.83c-.78.4-.9.48-.83.7l0,.1a.31.31,0,0,1-.19.09c-.08-.19-.13-.31-.21-.46s-.14-.26-.25-.43a.3.3,0,0,1,.18-.1l.06.08c.14.19.27.13,1.05-.27l2.62-1.36c.78-.4.88-.47.82-.7l0-.1a.31.31,0,0,1,.19-.09c.08.18.13.31.21.45s.15.26.25.43a.29.29,0,0,1-.18.1l-.07-.08c-.16-.18-.27-.14-1,.27Z"/><path d="M30.15,70.64c-.78.41-.9.48-.83.71l0,.1a.31.31,0,0,1-.19.09c-.08-.18-.13-.31-.21-.46s-.14-.26-.25-.43a.31.31,0,0,1,.18-.1l.06.08c.15.19.28.13,1.05-.27L32.62,69c.78-.4.88-.47.82-.7l0-.1a.3.3,0,0,1,.19-.09c.08.19.13.31.2.45s.15.26.25.43a.3.3,0,0,1-.18.1L33.81,69c-.16-.18-.27-.14-1,.27Z"/><path d="M35.25,50.56a.28.28,0,0,1,.18.11c-.11.15-.2.28-.28.42a5,5,0,0,0-.24.45.33.33,0,0,1-.18-.1l0-.11c0-.09,0-.14,0-.17a1.17,1.17,0,0,0-.36-.11c-.52-.11-1.23-.27-1.72-.36.19.24.81,1,1.23,1.38a1.28,1.28,0,0,0,.2.18s.1,0,.15,0l.08-.08a.3.3,0,0,1,.18.11,3.48,3.48,0,0,0-.24.36,2.89,2.89,0,0,0-.19.37.24.24,0,0,1-.18-.1l0-.1c.07-.21-.17-.51-.39-.78-.09-.11-.58-.72-1-1.25a.63.63,0,0,0-.12-.11l-.19-.06-1.83-.4c-.4-.09-.58-.1-.71,0l-.12.08a.32.32,0,0,1-.17-.11c.11-.15.19-.26.26-.38a3.91,3.91,0,0,0,.21-.4.28.28,0,0,1,.18.1l0,.1a.12.12,0,0,0,0,.16,2,2,0,0,0,.45.13c.41.09,1.17.27,1.56.34-.18-.22-1-1.13-1.18-1.32a1.27,1.27,0,0,0-.21-.19s-.11,0-.16.06l-.07.08c-.06,0-.16-.07-.17-.11a4,4,0,0,0,.24-.35A2.88,2.88,0,0,0,30.6,48a.29.29,0,0,1,.18.1l0,.09c0,.12.1.37.39.73s.62.75,1,1.2l.11.11a.65.65,0,0,0,.21.07l2,.43c.4.08.57.06.66,0Z"/><path d="M43,43.5a.26.26,0,0,1,.1.18c-.16.08-.3.16-.44.24a4.77,4.77,0,0,0-.42.29.35.35,0,0,1-.12-.17l.09-.08c.07-.06.09-.11.06-.16a1.1,1.1,0,0,0-.27-.26c-.41-.34-1-.8-1.37-1.11.06.29.29,1.22.46,1.79a1.08,1.08,0,0,0,.1.25s.08.06.15,0l.1,0a.29.29,0,0,1,.11.18,3.72,3.72,0,0,0-.38.2,3.43,3.43,0,0,0-.33.24.24.24,0,0,1-.12-.17l.07-.07c.15-.16.08-.53,0-.88,0-.14-.18-.9-.35-1.58a.63.63,0,0,0-.06-.16.79.79,0,0,0-.14-.14l-1.45-1.19c-.32-.26-.47-.36-.62-.34l-.14,0a.33.33,0,0,1-.1-.18,4.26,4.26,0,0,0,.4-.22,3.44,3.44,0,0,0,.37-.26s.1.11.12.17l-.09.07a.12.12,0,0,0,0,.15,2,2,0,0,0,.34.32c.32.27.92.77,1.24,1-.05-.28-.37-1.46-.45-1.71a1.17,1.17,0,0,0-.1-.26s-.1,0-.17,0l-.1,0a.26.26,0,0,1-.1-.18,3.53,3.53,0,0,0,.37-.21,2.58,2.58,0,0,0,.31-.22.29.29,0,0,1,.12.17l-.07.06c-.09.08-.08.37,0,.82s.21.94.34,1.51a.73.73,0,0,0,.05.16.63.63,0,0,0,.16.15l1.62,1.31c.32.26.48.32.6.27Z"/><path d="M41.23,39.87c-.47-.74-.55-.86-.77-.77l-.09,0a.31.31,0,0,1-.1-.18l.44-.24.4-.29a.31.31,0,0,1,.12.17l-.08.07c-.18.16-.11.29.36,1l1.57,2.5c.47.74.54.84.76.76l.1,0a.31.31,0,0,1,.1.18c-.18.09-.3.16-.43.24l-.41.29a.29.29,0,0,1-.12-.17l.07-.07c.17-.18.12-.28-.35-1Z"/><path d="M28.17,62.87c-.88,0-1,0-1.06.24l0,.1a.3.3,0,0,1-.21,0c0-.2,0-.33,0-.5s0-.29,0-.5a.31.31,0,0,1,.21,0l0,.1c0,.23.18.24,1.06.24h2.95c.88,0,1,0,1.05-.24l0-.1a.31.31,0,0,1,.21,0c0,.2,0,.33,0,.5s0,.3,0,.5a.3.3,0,0,1-.21,0l0-.1c-.06-.24-.17-.24-1.05-.24Z"/><path d="M32.19,59.38a.27.27,0,0,1,.21,0c0,.18,0,.34,0,.5a4.68,4.68,0,0,0,0,.51.36.36,0,0,1-.21,0l0-.11c0-.09-.05-.14-.11-.14a1.14,1.14,0,0,0-.37.09c-.5.17-1.19.39-1.66.57.28.11,1.18.4,1.76.56a1.14,1.14,0,0,0,.27.05s.09,0,.11-.12l0-.11a.29.29,0,0,1,.21,0,3.68,3.68,0,0,0,0,.43,3.19,3.19,0,0,0,0,.41.25.25,0,0,1-.21,0l0-.1c-.05-.21-.41-.35-.74-.47-.13,0-.86-.32-1.52-.54l-.16,0-.19,0-1.78.59c-.39.13-.56.21-.62.35l-.06.13a.32.32,0,0,1-.21,0c0-.18,0-.32,0-.46a3.49,3.49,0,0,0,0-.45.27.27,0,0,1,.21,0l0,.11a.12.12,0,0,0,.11.12,1.91,1.91,0,0,0,.46-.12c.4-.13,1.14-.37,1.51-.51-.26-.1-1.44-.46-1.69-.53a1.2,1.2,0,0,0-.27-.06s-.09.06-.11.13l0,.1a.26.26,0,0,1-.21,0,3.29,3.29,0,0,0,0-.42,2.59,2.59,0,0,0,0-.38.28.28,0,0,1,.21,0l0,.1c0,.12.27.26.7.42s.91.33,1.47.52l.16,0a.62.62,0,0,0,.21-.05l2-.67c.39-.14.52-.24.55-.36Z"/><path d="M50.54,50.94l.4,4.87,0,2.58.28,1.75a7.34,7.34,0,0,1,.94-.07h.26V58.22l-.39-2.5-.4-4.87a1.38,1.38,0,0,0-.26-2.47l-1-4.09,0,4.19a1.38,1.38,0,0,0,.17,2.46Zm.39-2.26A1,1,0,1,1,50,49.73,1,1,0,0,1,50.93,48.68Z"/><path d="M51.74,62.47a5.44,5.44,0,0,1,1-.75L51.88,60l-2-3.05-4.55-7.56a1.37,1.37,0,0,0-1.37-2L40.59,43l2.52,4.84A1.35,1.35,0,0,0,43,49.38a1.37,1.37,0,0,0,1.34.67l4.51,7.5,1.78,3.3ZM44.66,49.54A1,1,0,1,1,45,48.2,1,1,0,0,1,44.66,49.54Z"/><path d="M57.73,66.31a.6.6,0,0,0-.08-.18l-.14-.2-.14-.19-.13-.16a1.26,1.26,0,0,1-.13-.2L57,65.24,56.9,65l-.15-.22-.14-.18,0-.05a1,1,0,0,0-.17-.15c-.05,0-.09-.08-.09-.1a.54.54,0,0,1,0-.13.54.54,0,0,0,0-.18.32.32,0,0,1,0-.15s0-.07,0-.07l-.09,0a.3.3,0,0,0-.07.1s-.06.06-.08,0l-.12,0a.17.17,0,0,1-.1-.11c0-.06,0-.06-.05,0s0,.06,0,0,0,0,0,0,0,.07,0,.05a.53.53,0,0,1,0-.09s0,0-.05,0a.26.26,0,0,0-.08.11s0,0,0,0a.17.17,0,0,0-.11,0s-.05,0,0,0,0,.05,0,.06h0l-.14,0-.11-.06a.49.49,0,0,0-.18-.06s0,0,0,.06.05.07,0,.06l-.17,0-.23.05-.24.06-.22.08-.53.2-.33.09h-.84c-.07,0-.07,0,0,0l.65.08c.06,0,.07,0,0,.08a.37.37,0,0,1-.18,0c-.13,0-.3,0-.38,0l-.37,0s-.16,0,.18.15.27,0,.44,0l.17,0a.3.3,0,0,1-.16,0h-.17a3.5,3.5,0,0,1-.37,0h-.18c-.06,0-.07,0,0,0l.38.13s.13.11.07.11h-.8s0,.07-.08.09l-.05,0c-.06,0-.06,0,0,0l.23,0,.23,0h0c.06,0,.07,0,0,0l-.53.23a1,1,0,0,0-.14.12s0,.05,0,0a3.16,3.16,0,0,1,.29-.17l.13,0c.06,0,.07,0,0,0l-.07,0-.2.13h0l-.21.12h0a.79.79,0,0,1-.22.08h0l-.24,0h-.44l-.74-.05-.24,0-.95-.11h-.44l-.22.07-.21.1-.36.24-.21.1-.35.12-.23.07h-.07l-.27,0-.1,0-.22.08-.22.08-.16,0-.23,0-.29,0-.29.06-.22.09-.17.09-.19.14-.06.05-.16.17a1.18,1.18,0,0,0-.14.21,1.46,1.46,0,0,1-.18.23l-.15.17a.88.88,0,0,1-.17.14l-.07,0c-.06,0,0,.05,0,0h0a.64.64,0,0,0,.21-.08l.17-.14a.12.12,0,0,1,.13,0v0l-.14.29a.37.37,0,0,1-.2.16h-.07a.94.94,0,0,1-.23,0h0c-.06,0-.11,0-.11.07l.14.07a.52.52,0,0,0,.63-.1,1.37,1.37,0,0,0,.16-.32,2.16,2.16,0,0,1,.41-.38c.08-.06.09.09,0,.19a.33.33,0,0,0-.13.26,1.18,1.18,0,0,1-.32.51c-.18.12-.23.15-.26.15l-.41.08c-.07,0-.07,0,0,.05a1,1,0,0,0,.41,0,.75.75,0,0,0,.45-.26c.16-.14.23-.5.27-.55s.28-.51.27-.49l-.13.35c0,.09,0,.32-.06.46a2.05,2.05,0,0,1-.15.39A.91.91,0,0,1,44,69s-.45.22-.45.22-.05,0,0,0l.82-.29c.05,0,.09-.23.16-.25a1.05,1.05,0,0,0,.2-.1s.22-.28.25-.3a1.14,1.14,0,0,0,.11-.24l.08-.22,0-.1a.74.74,0,0,1,.12-.2l.14-.16.12-.2c0-.06,0,0,0,0l-.07.27a.38.38,0,0,1-.05.08s0,.08,0,.07l.1,0s.06-.1.13-.25a.63.63,0,0,0,.06-.28.92.92,0,0,0,0,.21c0,.1.1.12.11.2s0,.09-.05.13l-.17.11-.36.06c-.06,0-.06,0,0,0h.25l.3,0a.48.48,0,0,0,.17,0s0-.08,0-.17,0-.11-.11-.22,0-.19,0-.25V67s.06,0,.07,0a1.19,1.19,0,0,0,.07.26c0,.07.15.21.18.26l0,0a.35.35,0,0,1-.13.16h0a.74.74,0,0,1-.22.08l-.45.05c-.06,0-.06,0,0,0l.46,0,.32,0c.06,0,.12-.16.12-.21a1.6,1.6,0,0,0,0-.27,1.28,1.28,0,0,0-.2-.33.43.43,0,0,1-.06-.17v0a.59.59,0,0,1,.15-.12h0a.67.67,0,0,1,.21-.06.39.39,0,0,0,.16-.05s.06,0,.05,0a1.14,1.14,0,0,1,0,.18v0l-.07.22v0a.59.59,0,0,0,0,.23v0a.74.74,0,0,0,.07.21,1.09,1.09,0,0,0,.12.18l.17.2.16.17.34.31a.13.13,0,0,1,0,.16,1,1,0,0,1-.15.15L47,69l-.12.12a.33.33,0,0,0,0,.09.4.4,0,0,0,0,.15l0,0,.19.1.21.11.46.23.2.12.12.08a1.17,1.17,0,0,1,.18.15h0a.37.37,0,0,1,.09.17.49.49,0,0,1,0,.19l0,.07a.4.4,0,0,0,0,.22l.08.31c0,.06.07.07.12,0l.08-.08a1.13,1.13,0,0,0,.14-.19l0-.08a.09.09,0,0,1,.15,0l.33.29.17.16.26.26a1.11,1.11,0,0,1,.14.19l.05.09a.43.43,0,0,0,.15.15l.16.06a.13.13,0,0,1,.09.07.68.68,0,0,1,0,.11.25.25,0,0,0,.1.12l.09.06a.28.28,0,0,0,.21,0l.31-.07a.08.08,0,0,0,.05-.13l-.1-.16a.62.62,0,0,0-.16-.16l-.15-.1-.18-.15-.18-.18L50,71.35l-.14-.12-.17-.16-.34-.32-.16-.17a.31.31,0,0,1,0-.11l0-.11a2.13,2.13,0,0,1-.05-.23h0a1.39,1.39,0,0,1,0-.24l0-.58,0-.23,0-.42a.08.08,0,0,1,.12-.07l.5.2.22.07.13,0,.23,0,1,.06h.93a.19.19,0,0,1,.16.09.68.68,0,0,1,.05.21v.07a.6.6,0,0,0,0,.16.64.64,0,0,1,0,.14,1.58,1.58,0,0,0,.07.21l.13.32a.6.6,0,0,1,0,.23v.09a.37.37,0,0,1-.08.2.77.77,0,0,1-.18.14l-.12.07L52.2,71l-.15,0a.61.61,0,0,1-.19,0s-.1,0-.11,0a.09.09,0,0,1-.08,0,.15.15,0,0,1-.09-.07l-.06-.1s-.08,0-.14,0h0a.32.32,0,0,0-.19.1l-.09.1-.14.19,0,0c0,.05,0,.1,0,.11l.15,0,.21,0h.17a.53.53,0,0,1,.19,0l.18,0a.33.33,0,0,0,.22,0l0,0,.2-.12.29-.2.2-.12h0L53,70.9a.54.54,0,0,0,.17-.15l.09-.13a.38.38,0,0,0,.05-.21,2.26,2.26,0,0,0,0-.23l0-.12a1.85,1.85,0,0,1,0-.23l0-.56c0-.06,0-.1.08-.08l.21.06.23,0,.23.05.12,0a1,1,0,0,1,.21.1l0,0a.22.22,0,0,1,.1.12.77.77,0,0,1,0,.15.71.71,0,0,1-.09.19l-.21.31a1.56,1.56,0,0,1-.15.18l-.08.08a.8.8,0,0,0-.12.14s0,.07,0,.08a0,0,0,0,1,0,0h-.21a.15.15,0,0,0-.11.1.59.59,0,0,0,0,.22v0a1.3,1.3,0,0,0,0,.23l0,.15a.07.07,0,0,0,.12,0l.14-.12a1,1,0,0,0,.16-.17l.13-.2a1.09,1.09,0,0,1,.14-.17h0s.06,0,.06,0a1.58,1.58,0,0,0,.12-.2l.07-.15.11-.21.18-.32.12-.2a.38.38,0,0,0,.06-.21v0a1.12,1.12,0,0,0,0-.2.4.4,0,0,0-.11-.16l-.07-.06L54.49,69l-.16-.09-.2-.13-.25-.19c-.05,0-.06-.09,0-.12a.68.68,0,0,0,.12-.13,1.48,1.48,0,0,0,.1-.18,1.1,1.1,0,0,1,.11-.19l0,0a.51.51,0,0,0,.09-.2,2,2,0,0,0,0-.22v-.11a.46.46,0,0,1,.08-.21l0-.06.13-.2.08-.14.13-.2.22-.29.15-.19.15-.18a.34.34,0,0,1,.13-.1h.21a.27.27,0,0,1,.17.07l.11.11a.67.67,0,0,0,.17.1h0l.21.11,0,0,.21.12.09.05.18.11s.07.06.05.08a.11.11,0,0,0,0,.06.13.13,0,0,0,.06.08.32.32,0,0,0,.17,0,.16.16,0,0,0,.13-.06s.06,0,.12,0h.18a.65.65,0,0,0,.11-.11.8.8,0,0,0,.1-.16A.32.32,0,0,0,57.73,66.31ZM48,69.62a.91.91,0,0,1-.19-.12.19.19,0,0,1-.07-.14.51.51,0,0,1,.08-.15.63.63,0,0,1,.16-.15.09.09,0,0,1,.13.05s.05.16.08.17,0,.15,0,.15,0,.16,0,.21,0,.07-.1,0Z"/><path d="M57.73,66.31a.6.6,0,0,0-.08-.18l-.14-.2-.14-.19-.13-.16a1.26,1.26,0,0,1-.13-.2L57,65.24,56.9,65l-.15-.22-.14-.18,0-.05a1,1,0,0,0-.17-.15c-.05,0-.09-.08-.09-.1a.54.54,0,0,1,0-.13.54.54,0,0,0,0-.18.32.32,0,0,1,0-.15s0-.07,0-.07l-.09,0a.3.3,0,0,0-.07.1s-.06.06-.08,0l-.12,0a.17.17,0,0,1-.1-.11c0-.06,0-.06-.05,0s0,.06,0,0,0,0,0,0,0,.07,0,.05a.53.53,0,0,1,0-.09s0,0-.05,0a.26.26,0,0,0-.08.11s0,0,0,0a.17.17,0,0,0-.11,0s-.05,0,0,0,0,.05,0,.06h0l-.14,0-.11-.06a.49.49,0,0,0-.18-.06s0,0,0,.06.05.07,0,.06l-.17,0-.23.05-.24.06-.22.08-.53.2-.33.09h-.84c-.07,0-.07,0,0,0l.65.08c.06,0,.07,0,0,.08a.37.37,0,0,1-.18,0c-.13,0-.3,0-.38,0l-.37,0s-.16,0,.18.15.27,0,.44,0l.17,0a.3.3,0,0,1-.16,0h-.17a3.5,3.5,0,0,1-.37,0h-.18c-.06,0-.07,0,0,0l.38.13s.13.11.07.11h-.8s0,.07-.08.09l-.05,0c-.06,0-.06,0,0,0l.23,0,.23,0h0c.06,0,.07,0,0,0l-.53.23a1,1,0,0,0-.14.12s0,.05,0,0a3.16,3.16,0,0,1,.29-.17l.13,0c.06,0,.07,0,0,0l-.07,0-.2.13h0l-.21.12h0a.79.79,0,0,1-.22.08h0l-.24,0h-.44l-.74-.05-.24,0-.95-.11h-.44l-.22.07-.21.1-.36.24-.21.1-.35.12-.23.07h-.07l-.27,0-.1,0-.22.08-.22.08-.16,0-.23,0-.29,0-.29.06-.22.09-.17.09-.19.14-.06.05-.16.17a1.18,1.18,0,0,0-.14.21,1.46,1.46,0,0,1-.18.23l-.15.17a.88.88,0,0,1-.17.14l-.07,0c-.06,0,0,.05,0,0h0a.64.64,0,0,0,.21-.08l.17-.14a.12.12,0,0,1,.13,0v0l-.14.29a.37.37,0,0,1-.2.16h-.07a.94.94,0,0,1-.23,0h0c-.06,0-.11,0-.11.07l.14.07a.52.52,0,0,0,.63-.1,1.37,1.37,0,0,0,.16-.32,2.16,2.16,0,0,1,.41-.38c.08-.06.09.09,0,.19a.33.33,0,0,0-.13.26,1.18,1.18,0,0,1-.32.51c-.18.12-.23.15-.26.15l-.41.08c-.07,0-.07,0,0,.05a1,1,0,0,0,.41,0,.75.75,0,0,0,.45-.26c.16-.14.23-.5.27-.55s.28-.51.27-.49l-.13.35c0,.09,0,.32-.06.46a2.05,2.05,0,0,1-.15.39A.91.91,0,0,1,44,69s-.45.22-.45.22-.05,0,0,0l.82-.29c.05,0,.09-.23.16-.25a1.05,1.05,0,0,0,.2-.1s.22-.28.25-.3a1.14,1.14,0,0,0,.11-.24l.08-.22,0-.1a.74.74,0,0,1,.12-.2l.14-.16.12-.2c0-.06,0,0,0,0l-.07.27a.38.38,0,0,1-.05.08s0,.08,0,.07l.1,0s.06-.1.13-.25a.63.63,0,0,0,.06-.28.92.92,0,0,0,0,.21c0,.1.1.12.11.2s0,.09-.05.13l-.17.11-.36.06c-.06,0-.06,0,0,0h.25l.3,0a.48.48,0,0,0,.17,0s0-.08,0-.17,0-.11-.11-.22,0-.19,0-.25V67s.06,0,.07,0a1.19,1.19,0,0,0,.07.26c0,.07.15.21.18.26l0,0a.35.35,0,0,1-.13.16h0a.74.74,0,0,1-.22.08l-.45.05c-.06,0-.06,0,0,0l.46,0,.32,0c.06,0,.12-.16.12-.21a1.6,1.6,0,0,0,0-.27,1.28,1.28,0,0,0-.2-.33.43.43,0,0,1-.06-.17v0a.59.59,0,0,1,.15-.12h0a.67.67,0,0,1,.21-.06.39.39,0,0,0,.16-.05s.06,0,.05,0a1.14,1.14,0,0,1,0,.18v0l-.07.22v0a.59.59,0,0,0,0,.23v0a.74.74,0,0,0,.07.21,1.09,1.09,0,0,0,.12.18l.17.2.16.17.34.31a.13.13,0,0,1,0,.16,1,1,0,0,1-.15.15L47,69l-.12.12a.33.33,0,0,0,0,.09.4.4,0,0,0,0,.15l0,0,.19.1.21.11.46.23.2.12.12.08a1.17,1.17,0,0,1,.18.15h0a.37.37,0,0,1,.09.17.49.49,0,0,1,0,.19l0,.07a.4.4,0,0,0,0,.22l.08.31c0,.06.07.07.12,0l.08-.08a1.13,1.13,0,0,0,.14-.19l0-.08a.09.09,0,0,1,.15,0l.33.29.17.16.26.26a1.11,1.11,0,0,1,.14.19l.05.09a.43.43,0,0,0,.15.15l.16.06a.13.13,0,0,1,.09.07.68.68,0,0,1,0,.11.25.25,0,0,0,.1.12l.09.06a.28.28,0,0,0,.21,0l.31-.07a.08.08,0,0,0,.05-.13l-.1-.16a.62.62,0,0,0-.16-.16l-.15-.1-.18-.15-.18-.18L50,71.35l-.14-.12-.17-.16-.34-.32-.16-.17a.31.31,0,0,1,0-.11l0-.11a2.13,2.13,0,0,1-.05-.23h0a1.39,1.39,0,0,1,0-.24l0-.58,0-.23,0-.42a.08.08,0,0,1,.12-.07l.5.2.22.07.13,0,.23,0,1,.06h.93a.19.19,0,0,1,.16.09.68.68,0,0,1,.05.21v.07a.6.6,0,0,0,0,.16.64.64,0,0,1,0,.14,1.58,1.58,0,0,0,.07.21l.13.32a.6.6,0,0,1,0,.23v.09a.37.37,0,0,1-.08.2.77.77,0,0,1-.18.14l-.12.07L52.2,71l-.15,0a.61.61,0,0,1-.19,0s-.1,0-.11,0a.09.09,0,0,1-.08,0,.15.15,0,0,1-.09-.07l-.06-.1s-.08,0-.14,0h0a.32.32,0,0,0-.19.1l-.09.1-.14.19,0,0c0,.05,0,.1,0,.11l.15,0,.21,0h.17a.53.53,0,0,1,.19,0l.18,0a.33.33,0,0,0,.22,0l0,0,.2-.12.29-.2.2-.12h0L53,70.9a.54.54,0,0,0,.17-.15l.09-.13a.38.38,0,0,0,.05-.21,2.26,2.26,0,0,0,0-.23l0-.12a1.85,1.85,0,0,1,0-.23l0-.56c0-.06,0-.1.08-.08l.21.06.23,0,.23.05.12,0a1,1,0,0,1,.21.1l0,0a.22.22,0,0,1,.1.12.77.77,0,0,1,0,.15.71.71,0,0,1-.09.19l-.21.31a1.56,1.56,0,0,1-.15.18l-.08.08a.8.8,0,0,0-.12.14s0,.07,0,.08a0,0,0,0,1,0,0h-.21a.15.15,0,0,0-.11.1.59.59,0,0,0,0,.22v0a1.3,1.3,0,0,0,0,.23l0,.15a.07.07,0,0,0,.12,0l.14-.12a1,1,0,0,0,.16-.17l.13-.2a1.09,1.09,0,0,1,.14-.17h0s.06,0,.06,0a1.58,1.58,0,0,0,.12-.2l.07-.15.11-.21.18-.32.12-.2a.38.38,0,0,0,.06-.21v0a1.12,1.12,0,0,0,0-.2.4.4,0,0,0-.11-.16l-.07-.06L54.49,69l-.16-.09-.2-.13-.25-.19c-.05,0-.06-.09,0-.12a.68.68,0,0,0,.12-.13,1.48,1.48,0,0,0,.1-.18,1.1,1.1,0,0,1,.11-.19l0,0a.51.51,0,0,0,.09-.2,2,2,0,0,0,0-.22v-.11a.46.46,0,0,1,.08-.21l0-.06.13-.2.08-.14.13-.2.22-.29.15-.19.15-.18a.34.34,0,0,1,.13-.1h.21a.27.27,0,0,1,.17.07l.11.11a.67.67,0,0,0,.17.1h0l.21.11,0,0,.21.12.09.05.18.11s.07.06.05.08a.11.11,0,0,0,0,.06.13.13,0,0,0,.06.08.32.32,0,0,0,.17,0,.16.16,0,0,0,.13-.06s.06,0,.12,0h.18a.65.65,0,0,0,.11-.11.8.8,0,0,0,.1-.16A.32.32,0,0,0,57.73,66.31ZM48,69.62a.91.91,0,0,1-.19-.12.19.19,0,0,1-.07-.14.51.51,0,0,1,.08-.15.63.63,0,0,1,.16-.15.09.09,0,0,1,.13.05s.05.16.08.17,0,.15,0,.15,0,.16,0,.21,0,.07-.1,0Z"/><circle class="cls-1" cx="51.8" cy="61.14" r="1.53"/><path d="M50.11,61.13a1.69,1.69,0,0,1,1.69-1.68h0a1.69,1.69,0,0,1,1.69,1.68h0a1.69,1.69,0,0,1-1.69,1.69h0a1.69,1.69,0,0,1-1.69-1.69Zm.31,0a1.38,1.38,0,0,0,1.37,1.38h0a1.38,1.38,0,0,0,1.37-1.38h0a1.38,1.38,0,0,0-1.37-1.37h0a1.38,1.38,0,0,0-1.37,1.37Z"/><rect class="cls-2" x="50.56" y="90.44" width="2.19" height="22.48"/><path class="cls-3" d="M49.94,113.53V89.81h3.43v23.72Zm2.81-.62v0Zm-1.56-.63h.94V91.06h-.94v21.23Z"/><rect class="cls-1" x="51" y="136.89" width="1.41" height="6.21"/><circle cx="51.74" cy="138.59" r="2.09"/><path class="cls-1" d="M49.33,138.59a2.4,2.4,0,0,1,2.4-2.4h0a2.4,2.4,0,0,1,2.4,2.4h0a2.4,2.4,0,0,1-2.4,2.4h0a2.4,2.4,0,0,1-2.4-2.4Zm.62,0a1.78,1.78,0,0,0,1.78,1.78h0a1.78,1.78,0,0,0,1.78-1.78h0a1.78,1.78,0,0,0-1.78-1.78h0A1.78,1.78,0,0,0,50,138.59Z"/><circle class="cls-1" cx="51.71" cy="124.41" r="11.64"/><path class="cls-1" d="M39.75,124.41a12,12,0,0,1,12-12h0a12,12,0,0,1,12,12h0a12,12,0,0,1-12,12h0a12,12,0,0,1-12-12Zm.62,0a11.34,11.34,0,0,0,11.33,11.33h0A11.34,11.34,0,0,0,63,124.41h0a11.34,11.34,0,0,0-11.33-11.33h0a11.34,11.34,0,0,0-11.33,11.33Z"/><path d="M39.22,124.41A12.48,12.48,0,0,1,51.7,111.92h0a12.49,12.49,0,0,1,12.49,12.49h0A12.49,12.49,0,0,1,51.7,136.9h0a12.48,12.48,0,0,1-12.48-12.48Zm1.69,0A10.81,10.81,0,0,0,51.7,135.2h0a10.81,10.81,0,0,0,10.8-10.79h0a10.81,10.81,0,0,0-10.8-10.8h0a10.81,10.81,0,0,0-10.79,10.8Z"/><path class="cls-1" d="M38.91,124.41a12.8,12.8,0,0,1,12.8-12.8h0a12.81,12.81,0,0,1,12.8,12.8h0a12.81,12.81,0,0,1-12.8,12.8h0a12.8,12.8,0,0,1-12.8-12.8Zm.63,0A12.19,12.19,0,0,0,51.7,136.58h0a12.19,12.19,0,0,0,12.18-12.17h0A12.19,12.19,0,0,0,51.7,112.23h0a12.19,12.19,0,0,0-12.17,12.17Zm1.07,0A11.12,11.12,0,0,1,51.7,113.3h0a11.13,11.13,0,0,1,11.11,11.11h0a11.12,11.12,0,0,1-11.11,11.1h0a11.12,11.12,0,0,1-11.1-11.1Zm11.1,10.48a10.49,10.49,0,0,0,10.48-10.48h0A10.49,10.49,0,0,0,51.7,113.93h0a10.5,10.5,0,0,0-10.48,10.48h0A10.5,10.5,0,0,0,51.7,134.89Z"/></g></g></svg>