<svg xmlns="http://www.w3.org/2000/svg" viewBox="0 0 102.1 73.77"><defs><style>.cls-1{fill:#fff;}</style></defs><title>Ресурс 28clock</title><g id="Слой_2" data-name="Слой 2"><g id="Layer_1" data-name="Layer 1"><polygon points="81.07 52.31 64.03 29.04 73.32 56.34 81.07 52.31"/><polygon class="cls-1" points="75.12 48.66 68.03 37.06 73.48 49.52 75.12 48.66"/><path d="M41.38,5.9c0-3,4.07-5.9,9.22-5.9S60,2.89,60,5.9a3,3,0,0,1,0,.56H41.43A3.22,3.22,0,0,1,41.38,5.9Z"/><path class="cls-1" d="M42.09,4.91c0-2.15,3.8-4.54,8.51-4.54s8.54,2.39,8.54,4.54a1.75,1.75,0,0,1,0,.4h-17A1.86,1.86,0,0,1,42.09,4.91Z"/><polygon points="21.52 52.06 38.57 28.79 29.27 56.09 21.52 52.06"/><polygon class="cls-1" points="26.45 49.08 33.53 37.48 28.08 49.94 26.45 49.08"/><circle cx="50.64" cy="26.53" r="22.42"/><circle class="cls-1" cx="50.57" cy="26.67" r="19.81"/><path d="M58.63,17.24H57.45V14.46H57v-.55a.62.62,0,0,0,.43-.16.43.43,0,0,0,.18-.3h1Z"/><path d="M63.52,21.7H60.84v-.5l1.32-1.72a1.23,1.23,0,0,0,.22-.77c0-.17-.08-.25-.24-.25s-.25.05-.25.16v.65h-1V18.6q0-.73,1.33-.73a1.57,1.57,0,0,1,1.08.27,1.22,1.22,0,0,1,.27.88.64.64,0,0,1-.12.4l-1.32,1.79h1.43Z"/><path d="M63.19,26.75h1.08v.9c0,.09.07.14.21.14s.21,0,.21-.14v-.88a.21.21,0,0,0-.11-.21,1,1,0,0,0-.4-.05v-.43c.34,0,.5-.07.5-.22v-.67c0-.08-.07-.11-.21-.11s-.22,0-.22.11v.7h-1v-.7q0-.67,1.31-.67a2.39,2.39,0,0,1,.92.16.54.54,0,0,1,.39.51v.52q0,.45-.61.61a.67.67,0,0,1,.62.7v.56q0,.79-1.32.79t-1.34-.72Z"/><path d="M63.65,34.59h-.58v.49H61.93v-.49H60.35v-.54l1.15-2.77h1.58V34h.58ZM61.93,34v-1.5L61.4,34Z"/><path d="M58.31,36.29l-.18.57H56.79l0,.78a1.09,1.09,0,0,1,.61-.12q.92,0,.92.56v1.35a.56.56,0,0,1-.37.51,2.23,2.23,0,0,1-1,.18q-1.34,0-1.34-.68v-.95h1.14v1c0,.08.07.13.2.13s.19,0,.19-.12V38.2c0-.09-.07-.13-.22-.13s-.2.08-.21.23l-1.1,0,.06-2Z"/><path d="M52,38.9H50.82l0-.31c0-.2-.07-.3-.22-.3s-.2,0-.2.13v.74A.86.86,0,0,1,51,39a1.45,1.45,0,0,1,.7.15.46.46,0,0,1,.28.41V41a.56.56,0,0,1-.37.51,2.23,2.23,0,0,1-1,.18q-1.34,0-1.34-.68V38.52q0-.74,1.35-.74t1.33.73ZM50.82,41V39.75c0-.08-.06-.13-.19-.13s-.2,0-.2.13V41c0,.08.07.13.2.13S50.82,41.07,50.82,41Z"/><path d="M45.21,36.69l-1.47,3.25H42.48l1.47-3.26H42.56v-.53h2.65Z"/><path d="M38.27,33.52a.67.67,0,0,1-.59-.71v-.4q0-.67,1.31-.67a2.39,2.39,0,0,1,.91.16.54.54,0,0,1,.39.51v.4a.67.67,0,0,1-.59.71q.62.11.62.58v.78q0,.72-1.34.72t-1.33-.72V34.1C37.65,33.78,37.86,33.59,38.27,33.52Zm.92-.35v-.79q0-.11-.19-.11c-.13,0-.2,0-.2.11v.79c0,.08.06.11.2.11S39.19,33.24,39.19,33.17Zm0,1.79V33.85c0-.08-.06-.11-.19-.11s-.2,0-.2.11V35c0,.08.06.11.2.11S39.19,35,39.19,35Z"/><path d="M35.66,27.18H36.8v1c0,.08.07.13.2.13s.19,0,.19-.12V27a.84.84,0,0,1-.47.09A1.59,1.59,0,0,1,36,27a.49.49,0,0,1-.3-.45v-.88a.56.56,0,0,1,.37-.51,2.22,2.22,0,0,1,1-.18,2.28,2.28,0,0,1,1,.18.55.55,0,0,1,.37.51v2.45q0,.74-1.35.74t-1.32-.73Zm1.53-.69v-.91c0-.08-.06-.12-.19-.12s-.2,0-.2.13v.91c0,.08.07.12.2.12S37.19,26.57,37.19,26.49Z"/><path d="M39.18,22.16H38V19.38h-.45v-.55a.62.62,0,0,0,.43-.16.43.43,0,0,0,.18-.3h1Z"/><path d="M39.42,21.51V19.07q0-.74,1.38-.74t1.35.73v2.44a.56.56,0,0,1-.38.51,2.32,2.32,0,0,1-1,.18,2.38,2.38,0,0,1-1-.18A.55.55,0,0,1,39.42,21.51Zm1.56,0V19c0-.08-.06-.11-.19-.11s-.2,0-.2.11v2.58c0,.08.07.11.2.11S41,21.63,41,21.55Z"/><path d="M43.92,17.08H42.75V14.29H42.3v-.55a.62.62,0,0,0,.43-.16.43.43,0,0,0,.18-.3h1Z"/><path d="M45.78,17.08H44.61V14.29h-.45v-.55a.62.62,0,0,0,.43-.16.43.43,0,0,0,.18-.3h1Z"/><path d="M50.14,15.24H49V12.46h-.45v-.55a.62.62,0,0,0,.43-.16.43.43,0,0,0,.18-.3h1Z"/><path d="M53,15.24H50.37v-.5L51.69,13a1.24,1.24,0,0,0,.21-.77c0-.17-.08-.25-.24-.25s-.25.05-.25.16v.65h-1v-.66q0-.73,1.33-.73a1.57,1.57,0,0,1,1.08.27,1.22,1.22,0,0,1,.27.88.65.65,0,0,1-.12.4l-1.32,1.8H53Z"/><path d="M25.72,52.42c0-3,11.16-5.4,24.94-5.4s24.93,2.42,24.93,5.4a1.22,1.22,0,0,1-.13.55H25.84A1.33,1.33,0,0,1,25.72,52.42Z"/><path d="M42.55,5.58c0-2.15,3.62-3.89,8.09-3.89s8.09,1.74,8.09,3.89a1.8,1.8,0,0,1,0,.4H42.59A1.92,1.92,0,0,1,42.55,5.58Z"/><path d="M6.93,27.67a5.38,5.38,0,0,0,.39-.81,1.8,1.8,0,0,0,0-.83,1.79,1.79,0,0,1,0-.77,1.18,1.18,0,0,1,.3-.47,1.5,1.5,0,0,1,.65-.24,2.37,2.37,0,0,1,.68,0,1.16,1.16,0,0,0,.68-.24h0a2.05,2.05,0,0,1,1-.3H11c.29,0,.77,0,1.06,0l.42,0a5.18,5.18,0,0,1,1,.21l.41.14a5.83,5.83,0,0,1,.77.31,1.33,1.33,0,0,1,.44.56,1.73,1.73,0,0,0,.64.68,4.9,4.9,0,0,0,1,.45.51.51,0,0,1,.29.09l.6.45a.35.35,0,0,1,.12.36.53.53,0,0,1-.27.33,1.09,1.09,0,0,0-.38.47.94.94,0,0,1-.56.47c-.21,0-.27.17-.12.27a.34.34,0,0,1,.15.41,4.23,4.23,0,0,1-.46.64l0,0a1,1,0,0,1-.85.32,2.12,2.12,0,0,0-.8,0,1.66,1.66,0,0,0-.53.3.51.51,0,0,0,0,.59,6.14,6.14,0,0,1,.37.89l0,.11a4,4,0,0,1,.16,1,2.45,2.45,0,0,0,.21.92A6.08,6.08,0,0,1,15,35l.2.75a5.43,5.43,0,0,1,.15,1l0,.77a4.15,4.15,0,0,0,.19,1l.12.36c.1.28.26.73.37,1l.08.2a3.46,3.46,0,0,0,.56.89l.64.7c.2.22.51.58.7.8l.74.9a8.81,8.81,0,0,1,.58.79,2.27,2.27,0,0,1,.26.92l0,.42c0,.29,0,.77,0,1.06l0,.48a2.58,2.58,0,0,0,.21,1l0,0c.12.27.33.67.46.9a2.84,2.84,0,0,1,.3.89,3.17,3.17,0,0,1-.07,1l0,.15a1.92,1.92,0,0,1-.37.75,1.16,1.16,0,0,1-.65.27.82.82,0,0,1-.65-.3,4,4,0,0,1-.42-.82l-.11-.33a.77.77,0,0,0-.16-.27,1.92,1.92,0,0,1-.47-.79c0-.23-.12-.65-.16-.94L17.45,48a1.88,1.88,0,0,0-.4-.88,2.35,2.35,0,0,0-.68-.5,5.15,5.15,0,0,1-.71-.38c-.2-.13-.33,0-.3.29l.13,1.25a9.89,9.89,0,0,1,0,1.06l0,.95a9.08,9.08,0,0,1-.1,1.06l-.12.73c0,.29-.14.76-.2,1l-.12.56a4,4,0,0,1-.39,1l-.4.68a8.34,8.34,0,0,1-.61.87l-.15.18a2.67,2.67,0,0,0-.43.71,1.12,1.12,0,0,0,.2.74l.08.11a4.46,4.46,0,0,1,.41.8,4.26,4.26,0,0,1,.16.88l0,.6c0,.29,0,.77,0,1.06v.3c0,.29,0,.77,0,1.06v.42a6.34,6.34,0,0,1-.11,1.05l-.2,1c-.06.29-.17.75-.24,1l-.15.57c-.07.28-.19.75-.25,1l-.12.5a7.84,7.84,0,0,1-.32,1l-.25.61c-.11.27-.07.53.09.58a3.44,3.44,0,0,0,.8.09,1.69,1.69,0,0,1,.77.18,5.28,5.28,0,0,1,.62.53,1.64,1.64,0,0,1,.41.77,1.08,1.08,0,0,1-.06.59.93.93,0,0,1-.3.27.51.51,0,0,1-.38,0,.23.23,0,0,0-.3.18.21.21,0,0,1-.33.12,2.09,2.09,0,0,0-.77-.18l-2.13-.12a2.28,2.28,0,0,1-.91-.27A4,4,0,0,1,9,71.49a6.39,6.39,0,0,1-.5-.62,1.88,1.88,0,0,1-.24-.59,4.51,4.51,0,0,1,0-.86h0c0-.29.06-.77.09-1.06l.06-.48a9.17,9.17,0,0,0,0-1.06l0-1.13a5.78,5.78,0,0,0-.1-.92c0-.21-.19-.17-.31.1l-.63,1.4c-.12.27-.33.69-.48,1l-.37.67a10.58,10.58,0,0,1-.57.89l-.32.44a2.69,2.69,0,0,1-.55.58.62.62,0,0,0-.24.47c0,.18.23.31.5.3a3.05,3.05,0,0,1,.95.12,1.4,1.4,0,0,1,.65.47,3.34,3.34,0,0,1,.33.74,2.32,2.32,0,0,1,.09.71A.5.5,0,0,1,7.1,73a1,1,0,0,1-.53,0,.53.53,0,0,0-.53.21.31.31,0,0,1-.47.06,1.49,1.49,0,0,0-.8-.25l-.71,0a4.91,4.91,0,0,1-1-.17l-.16,0A2.2,2.2,0,0,1,2,72.22L1.8,72a7.94,7.94,0,0,1-.63-.85l0,0a2.74,2.74,0,0,1-.34-.87,2,2,0,0,1,0-.71,1.92,1.92,0,0,1,.47-.65A2,2,0,0,0,1.8,68l.07-.32c.06-.29.14-.76.18-1l.1-.78a4.82,4.82,0,0,0,0-1.05l-.09-.66a5,5,0,0,0-.27-1L.94,61c-.11-.27-.27-.72-.36-1l-.15-.47a6.5,6.5,0,0,1-.22-1L0,57a7.13,7.13,0,0,1,0-1.06l.28-3.62a8.16,8.16,0,0,1,.16-1L.8,49.81a6,6,0,0,1,.35-1l.67-1.41c.12-.26.31-.7.42-1l.39-1a3,3,0,0,0,.19-.85,3.4,3.4,0,0,0-.15-.83,4,4,0,0,1-.15-1v-.65A8.52,8.52,0,0,1,2.6,41s.16-1,.22-1.19.19-1.9.19-1.9a8.28,8.28,0,0,1,.17-1l.34-1.39A2.56,2.56,0,0,1,4,34.57a.89.89,0,0,0,.12-.37,3.21,3.21,0,0,1,1-1.36l.59-.53c.06-.26.16-.71.22-1,0,0,.31-1.61.31-1.85s.36-.89.36-1.07A2.87,2.87,0,0,1,6.93,27.67Z"/><path d="M95.18,28.09a5.36,5.36,0,0,1-.39-.81,1.79,1.79,0,0,1,0-.83,1.81,1.81,0,0,0,0-.77,1.19,1.19,0,0,0-.3-.47,1.49,1.49,0,0,0-.65-.24,2.36,2.36,0,0,0-.68,0,1.16,1.16,0,0,1-.68-.24h0a2.06,2.06,0,0,0-1-.3h-.47c-.29,0-.77,0-1.06,0l-.42,0a5.19,5.19,0,0,0-1,.21l-.41.14a5.78,5.78,0,0,0-.77.31,1.34,1.34,0,0,0-.45.56,1.73,1.73,0,0,1-.64.68,4.89,4.89,0,0,1-1,.45.51.51,0,0,0-.29.09l-.6.45a.35.35,0,0,0-.12.36.53.53,0,0,0,.27.33,1.09,1.09,0,0,1,.38.47.94.94,0,0,0,.56.47c.21,0,.27.17.12.27a.34.34,0,0,0-.15.41,4.17,4.17,0,0,0,.46.64l0,0a1,1,0,0,0,.85.32,2.12,2.12,0,0,1,.8,0,1.66,1.66,0,0,1,.53.3.51.51,0,0,1,0,.59,6.26,6.26,0,0,0-.37.89l0,.11a4,4,0,0,0-.16,1,2.45,2.45,0,0,1-.21.92,6.08,6.08,0,0,0-.35.93l-.2.75a5.42,5.42,0,0,0-.15,1l0,.77a4.24,4.24,0,0,1-.19,1l-.12.36c-.1.28-.26.73-.37,1l-.08.2a3.49,3.49,0,0,1-.56.89l-.64.7c-.2.22-.51.58-.7.8l-.74.9a8.62,8.62,0,0,0-.58.79,2.27,2.27,0,0,0-.26.92l0,.42c0,.29,0,.77,0,1.06l0,.48a2.58,2.58,0,0,1-.21,1l0,0c-.12.27-.33.67-.46.9a2.84,2.84,0,0,0-.29.89,3.18,3.18,0,0,0,.07,1l0,.15a1.93,1.93,0,0,0,.37.75,1.16,1.16,0,0,0,.65.27.82.82,0,0,0,.65-.3,3.93,3.93,0,0,0,.42-.82l.12-.33a.77.77,0,0,1,.15-.27A1.93,1.93,0,0,0,84.4,50c0-.23.12-.65.16-.94l.09-.66a1.88,1.88,0,0,1,.4-.88,2.35,2.35,0,0,1,.68-.5,5.14,5.14,0,0,0,.71-.38c.2-.13.33,0,.3.29l-.13,1.25a10.16,10.16,0,0,0,0,1.06l0,.95a9.09,9.09,0,0,0,.1,1.06l.12.73c0,.29.14.76.21,1l.12.56a4.1,4.1,0,0,0,.39,1l.4.68a8.19,8.19,0,0,0,.61.87l.15.18a2.67,2.67,0,0,1,.43.71,1.13,1.13,0,0,1-.2.74l-.08.11a4.45,4.45,0,0,0-.41.8,4.13,4.13,0,0,0-.16.88l0,.6c0,.29,0,.77,0,1.06v.3c0,.29,0,.77,0,1.06V63A6.33,6.33,0,0,0,88.39,64l.2,1c.06.29.17.75.24,1l.15.57c.07.28.19.75.25,1l.12.5a7.86,7.86,0,0,0,.32,1l.25.61c.11.27.07.53-.09.58a3.44,3.44,0,0,1-.8.09,1.7,1.7,0,0,0-.77.18,5.37,5.37,0,0,0-.62.53,1.63,1.63,0,0,0-.41.77,1.07,1.07,0,0,0,.06.59.94.94,0,0,0,.29.27.51.51,0,0,0,.38,0,.23.23,0,0,1,.29.18.21.21,0,0,0,.33.12,2.08,2.08,0,0,1,.77-.18l2.13-.12a2.29,2.29,0,0,0,.92-.27,4,4,0,0,0,.71-.59,6.56,6.56,0,0,0,.5-.62,1.9,1.9,0,0,0,.24-.59,4.44,4.44,0,0,0,0-.86h0c0-.29-.06-.77-.09-1.06l-.06-.48a9.64,9.64,0,0,1,0-1.06l0-1.13a5.89,5.89,0,0,1,.11-.92c0-.21.19-.17.31.1l.63,1.4c.12.27.33.69.48,1l.37.67c.14.25.4.66.57.89l.32.44a2.66,2.66,0,0,0,.55.58.62.62,0,0,1,.24.47c0,.18-.23.31-.5.3a3.05,3.05,0,0,0-.95.12,1.41,1.41,0,0,0-.65.47,3.37,3.37,0,0,0-.32.74,2.32,2.32,0,0,0-.09.71.5.5,0,0,0,.24.39,1,1,0,0,0,.53,0,.53.53,0,0,1,.53.21.31.31,0,0,0,.47.06,1.48,1.48,0,0,1,.8-.25l.71,0a4.91,4.91,0,0,0,1-.17l.16,0a2.21,2.21,0,0,0,.86-.55l.18-.21a7.94,7.94,0,0,0,.63-.85l0,0a2.79,2.79,0,0,0,.34-.87,2,2,0,0,0,0-.71,1.94,1.94,0,0,0-.47-.65,2,2,0,0,1-.5-.87l-.07-.32c-.06-.29-.14-.76-.18-1l-.1-.78a4.88,4.88,0,0,1,0-1.05l.09-.66a5,5,0,0,1,.27-1l.84-2.09c.11-.27.27-.72.36-1l.15-.47a6.29,6.29,0,0,0,.22-1l.18-1.55a7.13,7.13,0,0,0,0-1.06l-.28-3.62a8.34,8.34,0,0,0-.16-1l-.35-1.45a6.17,6.17,0,0,0-.35-1l-.67-1.41c-.12-.26-.31-.7-.42-1l-.39-1a3,3,0,0,1-.19-.85,3.41,3.41,0,0,1,.15-.83,4,4,0,0,0,.15-1v-.65a8.35,8.35,0,0,0-.08-1.06s-.15-1-.22-1.19-.19-1.9-.19-1.9a8.25,8.25,0,0,0-.17-1l-.34-1.39a2.56,2.56,0,0,0-.48-.92.89.89,0,0,1-.12-.37,3.2,3.2,0,0,0-1-1.36l-.59-.53c-.06-.26-.16-.71-.22-1,0,0-.31-1.61-.31-1.85s-.36-.89-.36-1.07A2.87,2.87,0,0,0,95.18,28.09Z"/><path d="M32.78,26.46a17.9,17.9,0,0,1,17.9-17.9h0a17.9,17.9,0,0,1,17.9,17.9h0a17.9,17.9,0,0,1-17.9,17.9h0a17.9,17.9,0,0,1-17.9-17.9Zm5.37-12.52A17.66,17.66,0,0,0,33,26.46h0A17.66,17.66,0,0,0,38.15,39h0a17.65,17.65,0,0,0,12.52,5.19h0A17.65,17.65,0,0,0,63.19,39h0a17.65,17.65,0,0,0,5.19-12.52h0a17.66,17.66,0,0,0-5.19-12.52h0A17.65,17.65,0,0,0,50.67,8.75h0a17.65,17.65,0,0,0-12.52,5.19Z"/><path d="M34.22,26.45A16.41,16.41,0,0,1,50.64,10h0A16.41,16.41,0,0,1,67.05,26.45h0A16.41,16.41,0,0,1,50.64,42.87h0A16.41,16.41,0,0,1,34.22,26.45Zm5-11.46a16.16,16.16,0,0,0-4.75,11.46h0a16.16,16.16,0,0,0,4.75,11.46h0a16.16,16.16,0,0,0,11.46,4.75h0A16.16,16.16,0,0,0,62.1,37.91h0a16.16,16.16,0,0,0,4.75-11.46h0A16.16,16.16,0,0,0,62.1,15h0a16.15,16.15,0,0,0-11.46-4.75h0A16.15,16.15,0,0,0,39.18,15Z"/><path d="M57.38,11.58l.66-1.4-.07,0-.66,1.4Z"/><path d="M44.13,41.36l-.67,1.4.07,0,.66-1.39Z"/><path d="M55.79,11l.5-1.5-.08,0-.5,1.5Z"/><path d="M45.73,42l-.47,1.47.07,0L45.8,42Z"/><path d="M54.25,10.6l.35-1.51-.08,0-.35,1.51Z"/><path d="M47.27,42.42l-.36,1.49H47l.36-1.5Z"/><path d="M50.59,26.42,48,37.32l.19.14,2.59-10.93Z"/><path d="M52.49,10.24l.16-1.5h-.11l-.16,1.49Z"/><path d="M49,42.64,48.8,44.2h.08l.18-1.56Z"/><path d="M35.79,19.93l-1.48-.7,0,.07,1.47.7Z"/><path d="M65.49,33.07l0,.07,1.42.69,0-.07Z"/><path d="M35.17,21.53,33.65,21l0,.07,1.52.5Z"/><path d="M66.12,31.27s0,.07,0,.1l1.51.48,0-.08Z"/><path d="M34.73,23.09l-1.47-.37v.08l1.47.37Z"/><path d="M66.54,29.74l0,.08,1.6.38,0-.08Z"/><path d="M34.47,24.78,33,24.61v.09l1.52.18S34.47,24.81,34.47,24.78Z"/><path d="M66.8,28s0,0,0,.06v0l1.66.22v-.1Z"/><path d="M66.83,24.86l1.66-.15v-.08l-1.67.15Z"/><path d="M34.47,28.11l-1.62.17v.09l1.62-.17Z"/><path d="M66.55,23.17l1.59-.33v-.07l-1.57.33S66.55,23.15,66.55,23.17Z"/><path d="M34.67,29.67,33.24,30v.07l1.43-.31Z"/><path d="M66.19,21.66l1.57-.5,0-.07-1.57.5Z"/><path d="M35.05,31.25l-1.42.46,0,.07,1.43-.46Z"/><path d="M35.64,32.87l-1.38.63,0,.07,1.39-.63Z"/><path d="M65.71,20.25l1.52-.65,0-.07-1.51.64Z"/><path d="M64.11,17.37l1.39-.93,0-.07-1.39.93Z"/><path d="M37.31,35.8l-1.24.83,0,.06,1.25-.83Z"/><path d="M62.93,15.86l1.27-1.11-.05-.06-1.26,1.1Z"/><path d="M61.77,14.6l1-1.2-.05-.05-1,1.19Z"/><path d="M38.45,37.19l0,0-1.19,1,0,.05,1.19-1Z"/><path d="M39.52,38.43l-1,1.1,0,0,1-1.09Z"/><path d="M60.34,13.36l1-1.2-.06,0-1,1.21Z"/><path d="M40.86,39.44,40,40.62l.06,0,.9-1.18Z"/><path d="M49.14,10.25,49,8.67h-.09l.18,1.58Z"/><path d="M52.35,42.63l.13,1.57h.08l-.13-1.57Z"/><path d="M53.81,42.4,54.13,44h.07l-.32-1.56Z"/><path d="M47.42,10.51,47.11,9H47l.3,1.51Z"/><path d="M45.77,11l-.47-1.5-.08,0L45.7,11Z"/><path d="M55.33,42l.49,1.57.07,0L55.4,42Z"/><path d="M44.27,11.52l-.63-1.4-.07,0,.63,1.4Z"/><path d="M56.93,41.44l.68,1.51.07,0L57,41.41Z"/><path d="M41.24,13.1l-.88-1.25-.06,0,.88,1.25Z"/><path d="M59.85,39.89l.93,1.34.06,0-.93-1.34Z"/><path d="M40,14.18l-1.09-1.24-.06.05L40,14.23Z"/><path d="M61.19,38.77l-.07,0,1.14,1.3.06-.05Z"/><path d="M38.66,15.42l-1.15-1.05,0,.05,1.16,1.06Z"/><path d="M62.48,37.59l0,.07,1.24,1.1.05-.05Z"/><path d="M37.52,16.82l-1.18-.93,0,.06,1.19.93Z"/><path d="M63.64,36.24l0,.06,1.32,1,0-.06Z"/><circle cx="50.65" cy="26.43" r="0.98"/><rect x="14.02" y="51.35" width="73.33" height="21.79"/><ellipse cx="50.6" cy="9.42" rx="0.44" ry="1.27"/><ellipse cx="50.56" cy="43.59" rx="0.44" ry="1.27"/><ellipse cx="33.56" cy="26.42" rx="1.27" ry="0.44"/><ellipse cx="67.73" cy="26.41" rx="1.27" ry="0.44"/><ellipse cx="65.31" cy="35.19" rx="0.44" ry="1.27" transform="translate(3.46 76.15) rotate(-61.83)"/><ellipse cx="58.89" cy="41.31" rx="0.44" ry="1.27" transform="translate(-12.97 38.14) rotate(-32.52)"/><ellipse cx="53.69" cy="31.34" rx="0.44" ry="9.65" transform="translate(-8.42 34.09) rotate(-32.81)"/><ellipse cx="35.98" cy="17.94" rx="0.44" ry="1.27" transform="translate(3.16 41.15) rotate(-61.77)"/><ellipse cx="42.39" cy="11.48" rx="0.44" ry="1.27" transform="translate(0.48 24.59) rotate(-32.52)"/><ellipse cx="59.27" cy="11.77" rx="1.27" ry="0.44" transform="translate(14.54 52.4) rotate(-53.49)"/><ellipse cx="65.6" cy="18.6" rx="1.27" ry="0.44" transform="translate(-1.85 28.56) rotate(-24.22)"/><ellipse cx="42.02" cy="41.23" rx="1.27" ry="0.44" transform="translate(-16.12 50.47) rotate(-53.49)"/><ellipse cx="48.4" cy="28.87" rx="6.53" ry="0.44" transform="translate(-5.11 46.57) rotate(-49.12)"/><ellipse cx="35.77" cy="34.89" rx="1.27" ry="0.44" transform="translate(-11.16 17.74) rotate(-24.22)"/><circle class="cls-1" cx="50.65" cy="26.43" r="0.21"/><rect class="cls-1" x="20.69" y="62.5" width="60" height="7.16"/><rect class="cls-1" x="38.45" y="49.33" width="24.15" height="1.16"/></g></g></svg>