<svg xmlns="http://www.w3.org/2000/svg" viewBox="0 0 40.88 59.87"><defs><style>.cls-1{fill:#fff;}</style></defs><title>Ресурс 20clock</title><g id="Слой_2" data-name="Слой 2"><g id="Layer_1" data-name="Layer 1"><path d="M26.62,40.08a2.87,2.87,0,0,0-2.76,1.21,3.53,3.53,0,0,0-.49,1.09,3.85,3.85,0,0,0,.81,3.41c2.13,2.51,5,4.06,5.35,7.24a4.74,4.74,0,0,1-.14,1.74A5.57,5.57,0,0,1,26,58.59a2.46,2.46,0,0,0-.37.06l-.12,0,0,0a3.7,3.7,0,0,1-1.71,0,4.14,4.14,0,0,1-.81-.31,3.19,3.19,0,0,1-1.89-3l0-.13a2.84,2.84,0,0,1,.8-1.39,1.39,1.39,0,0,1,1.34-.33l.3.11a1.1,1.1,0,0,1,.66,1v.09l0,.08a.14.14,0,0,1,0,.1,1.08,1.08,0,0,1-.36.44l-.25.18-.09.06,0,0,0,0a.37.37,0,0,0-.1.18.4.4,0,0,0,.16.42.38.38,0,0,0,.12.06c.19,0,.18,0,.21,0l.64-.25.08,0,.06-.06a2.13,2.13,0,0,0,.54-1,2.07,2.07,0,0,0-1.17-2.42,3,3,0,0,0-.54-.2,2.37,2.37,0,0,0-2.16.47,3.76,3.76,0,0,0-1,4.13A4.51,4.51,0,0,0,23.3,59.7a5.59,5.59,0,0,0,2.81,0h0l1.23-.46,0,0a1.75,1.75,0,0,0,.24-.17,6.16,6.16,0,0,0,2.85-3.73,7.14,7.14,0,0,0-1.86-6.64c-.73-.79-2-1.76-2.94-2.82s-1.61-2.17-1.34-3.14a2.49,2.49,0,0,1,.7-1.12,1.77,1.77,0,0,1,1.7-.42l.28.1h0l.07,0a3.39,3.39,0,0,1,.4.29,1.35,1.35,0,0,1,.43,1.23,1.33,1.33,0,0,1,0,.17,1.52,1.52,0,0,1-.07.19.78.78,0,0,1-.89.48l-.09,0a2.58,2.58,0,0,1-.55-.27l.71.1,0-.13a1.45,1.45,0,0,0,.06-.45.77.77,0,0,0-.28-.56.82.82,0,0,0-.32-.16,1.09,1.09,0,0,0-.87.16,1,1,0,0,0-.42.6,1.15,1.15,0,0,0,0,.64,1.62,1.62,0,0,0,.34.57,1.81,1.81,0,0,0,.77.48l.13,0a2.2,2.2,0,0,0,.59.07,2.49,2.49,0,0,0,.79-.16,1.77,1.77,0,0,0,1.06-1.09l0-.13a2.24,2.24,0,0,0,.07-.66,2.75,2.75,0,0,0-.11-.79,2.7,2.7,0,0,0-.29-.6,3,3,0,0,0-1.72-1.17Zm-.41,3.24h0a.17.17,0,0,1,0-.05.32.32,0,0,1,0,.06Z"/><path d="M18.88,40.21a9.48,9.48,0,0,1-1-.39,7.58,7.58,0,0,0-.33,4c.18,1.06.69,2.55.93,4s.17,2.7-.58,3.36a2.47,2.47,0,0,1-1.19.56A1.77,1.77,0,0,1,15,51.11a2,2,0,0,1-.18-.24h0l0-.08a3.2,3.2,0,0,1-.17-.46,1.35,1.35,0,0,1,.31-1.26l.12-.13.16-.12a.79.79,0,0,1,1,.08l.06.08a2.49,2.49,0,0,1,.32.53L16.05,49l-.1.09a1.4,1.4,0,0,0-.29.35.77.77,0,0,0-.07.62.78.78,0,0,0,.18.31,1.08,1.08,0,0,0,.81.34,1,1,0,0,0,.68-.27,1.16,1.16,0,0,0,.33-.55,1.63,1.63,0,0,0,0-.66,1.81,1.81,0,0,0-.38-.83l-.09-.11a2.22,2.22,0,0,0-.46-.38,2.44,2.44,0,0,0-.75-.29,1.76,1.76,0,0,0-1.48.34l-.1.09a2.2,2.2,0,0,0-.42.51,2.73,2.73,0,0,0-.33.72,2.54,2.54,0,0,0-.08.66,3,3,0,0,0,.8,1.93l.17.18a2.87,2.87,0,0,0,3,.49,3.58,3.58,0,0,0,1-.64,3.86,3.86,0,0,0,1.19-3.3C19.28,45.57,17.9,42.87,18.88,40.21Z"/><path d="M22.11,40.13a9.08,9.08,0,0,0,1-.39,7.58,7.58,0,0,1,.33,4c-.18,1.06-.69,2.55-.93,4s-.17,2.7.58,3.36a2.5,2.5,0,0,0,1.19.56A1.77,1.77,0,0,0,26,51a2,2,0,0,0,.18-.24h0l0-.08a3.15,3.15,0,0,0,.17-.46A1.35,1.35,0,0,0,26.07,49l-.12-.13-.16-.12a.78.78,0,0,0-1,.08l-.06.08a2.57,2.57,0,0,0-.31.53l.54-.47.1.09a1.44,1.44,0,0,1,.29.35.77.77,0,0,1,.07.62.82.82,0,0,1-.18.31,1.09,1.09,0,0,1-.81.34,1,1,0,0,1-.68-.27,1.16,1.16,0,0,1-.33-.55,1.64,1.64,0,0,1,0-.66,1.81,1.81,0,0,1,.38-.82l.09-.11a2.25,2.25,0,0,1,.46-.38,2.47,2.47,0,0,1,.75-.29,1.76,1.76,0,0,1,1.48.34l.1.09a2.24,2.24,0,0,1,.42.51,2.73,2.73,0,0,1,.33.72,2.61,2.61,0,0,1,.08.66,3,3,0,0,1-.8,1.93l-.17.18a2.87,2.87,0,0,1-3,.49,3.51,3.51,0,0,1-1-.64,3.86,3.86,0,0,1-1.19-3.3C21.71,45.5,23.1,42.8,22.11,40.13Z"/><path d="M10.92,50.61a9,9,0,0,0,.77.8,7.57,7.57,0,0,1-3.51,1.9c-1,.26-2.61.39-4,.74S1.64,55,1.33,55.94a2.48,2.48,0,0,0,0,1.32,1.76,1.76,0,0,0,1.19,1.28l.29.07h.09a3.37,3.37,0,0,0,.49,0,1.35,1.35,0,0,0,1-.79l.07-.16a1.31,1.31,0,0,0,0-.2.78.78,0,0,0-.48-.9l-.09,0a2.64,2.64,0,0,0-.61-.08l.65.31,0,.13a1.56,1.56,0,0,1-.2.41.77.77,0,0,1-.54.32.82.82,0,0,1-.36,0A1.08,1.08,0,0,1,2.2,57a1,1,0,0,1,0-.73,1.14,1.14,0,0,1,.37-.52,1.63,1.63,0,0,1,.6-.29,1.8,1.8,0,0,1,.91,0l.13,0a2.22,2.22,0,0,1,.53.27,2.46,2.46,0,0,1,.57.57,1.77,1.77,0,0,1,.29,1.49l0,.13a2.25,2.25,0,0,1-.3.59,2.79,2.79,0,0,1-.53.59,2.61,2.61,0,0,1-.57.34,3,3,0,0,1-2.09,0l-.23-.09A2.87,2.87,0,0,1,.17,56.86a3.54,3.54,0,0,1,.19-1.18A3.86,3.86,0,0,1,2.9,53.27C5.85,52.4,8.88,52.58,10.92,50.61Z"/><path d="M29.9,50.75a9.68,9.68,0,0,1-.77.8,7.55,7.55,0,0,0,3.51,1.9c1,.26,2.61.39,4,.74s2.54.93,2.84,1.88a2.48,2.48,0,0,1,0,1.32,1.76,1.76,0,0,1-1.19,1.28l-.29.07H38a3.39,3.39,0,0,1-.49,0,1.35,1.35,0,0,1-1-.79l-.07-.16a1.32,1.32,0,0,1,0-.2.78.78,0,0,1,.48-.9l.09,0a2.57,2.57,0,0,1,.61-.08l-.65.31,0,.13a1.41,1.41,0,0,0,.2.41.77.77,0,0,0,.54.32.83.83,0,0,0,.36,0,1.08,1.08,0,0,0,.64-.61,1,1,0,0,0,0-.73,1.17,1.17,0,0,0-.37-.52,1.64,1.64,0,0,0-.6-.29,1.83,1.83,0,0,0-.91,0l-.13,0a2.22,2.22,0,0,0-.53.27,2.47,2.47,0,0,0-.57.57,1.76,1.76,0,0,0-.29,1.49l0,.13a2.23,2.23,0,0,0,.3.59,2.7,2.7,0,0,0,.52.59,2.67,2.67,0,0,0,.57.34,3,3,0,0,0,2.09,0l.23-.09A2.87,2.87,0,0,0,40.66,57a3.54,3.54,0,0,0-.19-1.18,3.86,3.86,0,0,0-2.55-2.41C35,52.54,31.95,52.72,29.9,50.75Z"/><path d="M28.3,42.15a9.94,9.94,0,0,1,.46,1,7.57,7.57,0,0,0,3-2.58c.62-.88,1.31-2.29,2.15-3.46s1.79-2,2.79-2a2.47,2.47,0,0,1,1.24.45,1.76,1.76,0,0,1,.76,1.57,1.92,1.92,0,0,1,0,.3h0l0,.08a3.38,3.38,0,0,1-.2.45,1.35,1.35,0,0,1-1.11.67H37.2l-.2,0a.78.78,0,0,1-.66-.78.53.53,0,0,1,0-.09,2.62,2.62,0,0,1,.15-.6l.05.71h.13a1.38,1.38,0,0,0,.46,0,.77.77,0,0,0,.49-.38.82.82,0,0,0,.09-.35,1.08,1.08,0,0,0-.34-.82,1,1,0,0,0-.67-.29,1.18,1.18,0,0,0-.62.15,1.66,1.66,0,0,0-.49.45,1.82,1.82,0,0,0-.31.85s0,.09,0,.14a2.18,2.18,0,0,0,.05.59,2.47,2.47,0,0,0,.32.74,1.76,1.76,0,0,0,1.29.81h.13a2.25,2.25,0,0,0,.66-.07A2.33,2.33,0,0,0,39,39a3,3,0,0,0,.79-1.93c0-.08,0-.16,0-.25A2.87,2.87,0,0,0,38,34.41a3.53,3.53,0,0,0-1.17-.26,3.86,3.86,0,0,0-3.17,1.49C31.82,38.07,30.88,41,28.3,42.15Z"/><path d="M12.49,42.27a9.33,9.33,0,0,0-.46,1A7.55,7.55,0,0,1,9,40.71c-.62-.88-1.31-2.29-2.15-3.46s-1.79-2-2.79-2a2.48,2.48,0,0,0-1.24.45A1.76,1.76,0,0,0,2,37.3a1.93,1.93,0,0,0,0,.3h0l0,.08a3.38,3.38,0,0,0,.2.45,1.35,1.35,0,0,0,1.11.67h.17l.2,0A.78.78,0,0,0,4.45,38s0-.06,0-.09a2.61,2.61,0,0,0-.15-.6L4.24,38H4.11a1.38,1.38,0,0,1-.46,0,.77.77,0,0,1-.49-.38.84.84,0,0,1-.09-.35,1.08,1.08,0,0,1,.34-.82,1,1,0,0,1,.67-.29,1.17,1.17,0,0,1,.62.15,1.66,1.66,0,0,1,.49.45,1.84,1.84,0,0,1,.31.85s0,.09,0,.14a2.26,2.26,0,0,1-.05.59,2.47,2.47,0,0,1-.32.74,1.76,1.76,0,0,1-1.29.81H3.71a2.25,2.25,0,0,1-.66-.07,2.71,2.71,0,0,1-.75-.27,2.69,2.69,0,0,1-.52-.41A3,3,0,0,1,1,37.22c0-.08,0-.16,0-.25a2.87,2.87,0,0,1,1.76-2.45,3.54,3.54,0,0,1,1.17-.26,3.86,3.86,0,0,1,3.17,1.49C9,38.2,9.91,41.09,12.49,42.27Z"/><path d="M16.84,49.81h0l0,0,0-.05Z"/><path d="M14,40a3,3,0,0,0-1.72,1.18,2.6,2.6,0,0,0-.29.6,2.68,2.68,0,0,0-.11.79,2.24,2.24,0,0,0,.07.66l0,.13A1.76,1.76,0,0,0,13,44.47a2.49,2.49,0,0,0,.79.16,2.29,2.29,0,0,0,.59-.07l.13,0a1.81,1.81,0,0,0,.77-.48,1.65,1.65,0,0,0,.34-.57,1.15,1.15,0,0,0,0-.64,1,1,0,0,0-.42-.6,1.09,1.09,0,0,0-.87-.16.82.82,0,0,0-.32.16.77.77,0,0,0-.28.56,1.45,1.45,0,0,0,.06.45l0,.13.71-.1a2.6,2.6,0,0,1-.55.27l-.09,0a.78.78,0,0,1-.9-.49A1.1,1.1,0,0,1,13,42.9a1.09,1.09,0,0,1,0-.17,1.35,1.35,0,0,1,.43-1.22,3.28,3.28,0,0,1,.4-.29l.07,0h0l.28-.1a1.77,1.77,0,0,1,1.7.42,2.49,2.49,0,0,1,.7,1.12c.27,1-.36,2.07-1.34,3.13s-2.21,2-2.94,2.82a7.14,7.14,0,0,0-1.86,6.64,6.16,6.16,0,0,0,2.85,3.73,1.83,1.83,0,0,0,.24.17l0,0,1.23.46h0a5.57,5.57,0,0,0,2.81,0,4.5,4.5,0,0,0,3.08-2.65,3.77,3.77,0,0,0-1-4.13,2.37,2.37,0,0,0-2.16-.47,3.08,3.08,0,0,0-.54.2A2.07,2.07,0,0,0,15.72,55a2.13,2.13,0,0,0,.54,1l.06.06.08,0c.39.15.52.21.64.25a.35.35,0,0,0,.21,0,.38.38,0,0,0,.12-.06.4.4,0,0,0,.16-.42.36.36,0,0,0-.1-.18l0,0,0,0-.09-.06L17,55.29a1.07,1.07,0,0,1-.36-.44.14.14,0,0,1,0-.1l0-.08v-.09a1.1,1.1,0,0,1,.66-1l.3-.11a1.39,1.39,0,0,1,1.34.33,2.85,2.85,0,0,1,.8,1.39l0,.13a3.19,3.19,0,0,1-1.89,3,4.2,4.2,0,0,1-.81.31,3.71,3.71,0,0,1-1.71,0l0,0-.13,0a2.41,2.41,0,0,0-.37-.06,5.57,5.57,0,0,1-3.42-3.8,4.78,4.78,0,0,1-.14-1.74c.35-3.18,3.22-4.73,5.35-7.24a3.85,3.85,0,0,0,.81-3.41,3.55,3.55,0,0,0-.5-1.09A2.87,2.87,0,0,0,14.21,40Zm.64,3.2s0,0,0-.06a.12.12,0,0,1,0,.05h0Z"/><path d="M0,20.44A20.44,20.44,0,0,1,20.44,0h0A20.44,20.44,0,0,1,40.88,20.44h0A20.44,20.44,0,0,1,20.44,40.88h0A20.44,20.44,0,0,1,0,20.44Zm1,0A19.44,19.44,0,0,0,20.44,39.85h0A19.44,19.44,0,0,0,39.85,20.44h0A19.44,19.44,0,0,0,20.44,1h0A19.43,19.43,0,0,0,1,20.44Z"/><circle class="cls-1" cx="20.38" cy="20.51" r="19.42"/><circle class="cls-1" cx="20.24" cy="20.39" r="17.69"/><path d="M4.64,20.36A15.68,15.68,0,0,1,20.31,4.69h0A15.68,15.68,0,0,1,36,20.36h0A15.68,15.68,0,0,1,20.31,36h0A15.68,15.68,0,0,1,4.64,20.36Zm4.72-11a15.45,15.45,0,0,0-4.54,11h0a15.44,15.44,0,0,0,4.54,11h0a15.44,15.44,0,0,0,11,4.54h0a15.44,15.44,0,0,0,11-4.54h0a15.43,15.43,0,0,0,4.54-11h0a15.44,15.44,0,0,0-4.54-11h0a15.44,15.44,0,0,0-11-4.54h0a15.44,15.44,0,0,0-11,4.54Z"/><path d="M2.55,20.46A17.73,17.73,0,0,1,20.28,2.73h0A17.73,17.73,0,0,1,38,20.46h0A17.73,17.73,0,0,1,20.28,38.19h0A17.73,17.73,0,0,1,2.55,20.46ZM7.88,8.05a17.49,17.49,0,0,0-5.14,12.4h0a17.49,17.49,0,0,0,5.14,12.4h0A17.49,17.49,0,0,0,20.28,38h0a17.49,17.49,0,0,0,12.4-5.14h0a17.48,17.48,0,0,0,5.14-12.4h0a17.48,17.48,0,0,0-5.14-12.4h0a17.48,17.48,0,0,0-12.4-5.14h0A17.49,17.49,0,0,0,7.88,8.05Z"/><path d="M20.58,4.77v-2h-.32v2Z"/><path d="M20.42,38V36H20.1v2Z"/><path d="M4.69,20.24h-2v.32h2C4.7,20.46,4.69,20.35,4.69,20.24Z"/><path d="M7,12.39l-1.73-1-.16.28,1.73,1Z"/><path d="M12.89,6.66l-1-1.73-.28.16,1,1.73Z"/><path d="M28.36,7l1.12-1.65-.26-.18L28.1,6.86Z"/><path d="M34.06,13l1.79-.87-.14-.29-1.8.87Z"/><path d="M35.92,20.78h2v-.32h-2C35.92,20.57,35.92,20.68,35.92,20.78Z"/><path d="M33.61,28.51l1.69,1.05.17-.27-1.69-1.06Z"/><path d="M27.57,34.24l1,1.69.27-.17-1.05-1.7Z"/><path d="M12.33,33.83l-1.09,1.67.27.18L12.6,34Z"/><path d="M6.55,27.77l-1.73,1L5,29l1.74-1Z"/><path d="M31.46,16.38h1.65v.33H31.19v-.16a13.52,13.52,0,0,0,1.11-1.8,3,3,0,0,0,.33-1.27,1.57,1.57,0,0,0-.16-.78.5.5,0,0,0-.87-.06,1.16,1.16,0,0,0-.2.62h-.1a1.69,1.69,0,0,1,.13-.6,1.29,1.29,0,0,1,.32-.5.63.63,0,0,1,.43-.18.71.71,0,0,1,.6.37,1.62,1.62,0,0,1,.25.92,3,3,0,0,1-.36,1.34A10.85,10.85,0,0,1,31.46,16.38Z"/><path d="M19.1,9.52V6.35c0-.11,0-.16,0-.16l-.08,0a1,1,0,0,1-.38.13V6.21a2.48,2.48,0,0,0,.79-.79h.1V9.52a.87.87,0,0,0,.06.41.33.33,0,0,0,.28.09v.12H18.76V10c.15,0,.24,0,.28-.1A.86.86,0,0,0,19.1,9.52Z"/><path d="M20.53,9.75h1.65v.33H20.26V9.92a13.3,13.3,0,0,0,1.11-1.8,3,3,0,0,0,.33-1.27,1.56,1.56,0,0,0-.17-.78.5.5,0,0,0-.45-.29.51.51,0,0,0-.42.22,1.15,1.15,0,0,0-.2.62h-.1A1.72,1.72,0,0,1,20.5,6a1.28,1.28,0,0,1,.32-.5.63.63,0,0,1,.43-.18.72.72,0,0,1,.6.37,1.63,1.63,0,0,1,.25.92A3,3,0,0,1,21.75,8,10.85,10.85,0,0,1,20.53,9.75Z"/><path d="M33.71,20.67v-.14a1.15,1.15,0,0,0,1-1.17,1,1,0,0,0-.16-.57.49.49,0,0,0-.41-.23.46.46,0,0,0-.31.13.85.85,0,0,0-.22.36l-.1-.05a1,1,0,0,1,.3-.51.72.72,0,0,1,.49-.19.7.7,0,0,1,.58.29,1.16,1.16,0,0,1,.23.74,1.31,1.31,0,0,1-.15.62,1.14,1.14,0,0,1-.44.45v0a1,1,0,0,1,.55.46,1.61,1.61,0,0,1,.2.81,1.69,1.69,0,0,1-.29,1,.9.9,0,0,1-.76.4.86.86,0,0,1-.45-.11,1.45,1.45,0,0,1-.39-.39l.07-.1a.93.93,0,0,0,.66.38.64.64,0,0,0,.53-.27,1.14,1.14,0,0,0,.21-.71,1.68,1.68,0,0,0-.23-.87.67.67,0,0,0-.59-.38Z"/><path d="M33,27.84h-.82v1.59h-.35V27.84H30.41V27.7L32,24.63h.1v2.84H33Zm-2.23-.38h1.05v-2Z"/><path d="M27.21,29.94H25.95l0,1.64.27,0a.92.92,0,0,1,.77.37,1.46,1.46,0,0,1,.29.92,1.6,1.6,0,0,1-.29,1,.88.88,0,0,1-.73.39,1,1,0,0,1-.91-.66l.09-.07a.77.77,0,0,0,.65.46.65.65,0,0,0,.54-.3,1.19,1.19,0,0,0,.22-.73,1.07,1.07,0,0,0-.23-.71.76.76,0,0,0-.62-.28l-.22,0,.05-2.45h1.42Z"/><path d="M21.18,30.7v.13a2,2,0,0,0-1.19.85,3.32,3.32,0,0,0-.51,1.68,1.08,1.08,0,0,1,.82-.51.77.77,0,0,1,.66.37,1.62,1.62,0,0,1,.26.94,1.57,1.57,0,0,1-.3,1,.91.91,0,0,1-.75.4.94.94,0,0,1-.81-.51,2.41,2.41,0,0,1-.32-1.3,3.42,3.42,0,0,1,.61-2.05A2.2,2.2,0,0,1,21.18,30.7ZM20.8,34.3a1.51,1.51,0,0,0-.19-.8.57.57,0,0,0-.5-.3.85.85,0,0,0-.65.4v.05a3,3,0,0,0,.21,1.22c.14.3.32.45.54.45a.48.48,0,0,0,.42-.29A1.45,1.45,0,0,0,20.8,34.3Z"/><path d="M12.15,30.16H12L12.23,29h.1a.22.22,0,0,0,.07.13.21.21,0,0,0,.11,0h1.85v.16l-1.15,4.53h-.42l1.3-4.24H12.62a.29.29,0,0,0-.24.1A2.1,2.1,0,0,0,12.15,30.16Z"/><path d="M9.48,27.86a1.39,1.39,0,0,1-.29.88.89.89,0,0,1-1.39,0A1.22,1.22,0,0,1,7.54,28a1.35,1.35,0,0,1,.17-.68,2.2,2.2,0,0,1,.56-.6,1.47,1.47,0,0,1-.47-.55,1.58,1.58,0,0,1-.16-.72,1.3,1.3,0,0,1,.25-.83.79.79,0,0,1,.65-.32.77.77,0,0,1,.62.3,1.14,1.14,0,0,1,.25.75,1.34,1.34,0,0,1-.58,1.11A1.92,1.92,0,0,1,9.48,27.86Zm-1.62,0a1.26,1.26,0,0,0,.19.71.57.57,0,0,0,.48.29A.51.51,0,0,0,9,28.65a.91.91,0,0,0,.17-.57,1.57,1.57,0,0,0-.76-1.24A1.15,1.15,0,0,0,7.86,27.88Zm.08-2.71a1,1,0,0,0,.18.58,2.91,2.91,0,0,0,.6.6,1,1,0,0,0,.38-.91,1.33,1.33,0,0,0-.17-.71.5.5,0,0,0-.44-.27.47.47,0,0,0-.39.2A.81.81,0,0,0,7.94,25.17Z"/><path d="M5.73,23.1V23a1.82,1.82,0,0,0,1.19-.83,3.23,3.23,0,0,0,.52-1.69,1.08,1.08,0,0,1-.83.51A.78.78,0,0,1,6,20.58a1.61,1.61,0,0,1-.26-.94,1.53,1.53,0,0,1,.3-1,.91.91,0,0,1,.75-.39.94.94,0,0,1,.81.51,2.41,2.41,0,0,1,.32,1.3,3.4,3.4,0,0,1-.61,2.05A2.18,2.18,0,0,1,5.73,23.1Zm.37-3.6a1.5,1.5,0,0,0,.19.8.57.57,0,0,0,.5.3.84.84,0,0,0,.65-.43,3.07,3.07,0,0,0-.2-1.24c-.14-.3-.32-.45-.55-.45a.49.49,0,0,0-.42.28A1.42,1.42,0,0,0,6.1,19.5Z"/><path d="M7.89,16.55V13.38c0-.11,0-.16,0-.16l-.08,0a1,1,0,0,1-.38.13v-.13a2.49,2.49,0,0,0,.79-.78h.1v4.09a.86.86,0,0,0,.06.41.33.33,0,0,0,.28.1v.12H7.55v-.12c.15,0,.24,0,.28-.1A.85.85,0,0,0,7.89,16.55Z"/><path d="M11.14,14.86A4.81,4.81,0,0,1,11,16.11a2.1,2.1,0,0,1-.42.85.78.78,0,0,1-.58.31A.79.79,0,0,1,9.39,17,2.11,2.11,0,0,1,9,16.11a4.86,4.86,0,0,1-.15-1.26A4.65,4.65,0,0,1,9,13.6a2.12,2.12,0,0,1,.43-.85.72.72,0,0,1,1.18,0,2.16,2.16,0,0,1,.42.85A4.79,4.79,0,0,1,11.14,14.86Zm-.44,0a5.58,5.58,0,0,0-.18-1.62c-.12-.39-.3-.58-.53-.58s-.41.19-.53.58a5.52,5.52,0,0,0-.19,1.62,5.5,5.5,0,0,0,.19,1.62q.19.58.53.58c.23,0,.4-.19.53-.57A5.55,5.55,0,0,0,10.7,14.86Z"/><path d="M12.66,11.16V8c0-.11,0-.16,0-.16l-.07,0a1,1,0,0,1-.38.13V7.85a2.46,2.46,0,0,0,.79-.79H13v4.09a.82.82,0,0,0,.07.41c0,.06.14.09.28.09v.12H12.31v-.12c.14,0,.24,0,.28-.1A.86.86,0,0,0,12.66,11.16Z"/><path d="M14,11.16V8c0-.11,0-.16,0-.16l-.07,0a1,1,0,0,1-.38.13V7.85a2.49,2.49,0,0,0,.79-.79h.1v4.09a.85.85,0,0,0,.06.41.33.33,0,0,0,.28.09v.12H13.61v-.12a.32.32,0,0,0,.28-.1A.86.86,0,0,0,14,11.16Z"/><path d="M27.37,11.28V8.11c0-.11,0-.16,0-.16l-.07,0a1,1,0,0,1-.38.13V8a2.48,2.48,0,0,0,.79-.78h.1v4.09a.86.86,0,0,0,.06.41c0,.06.14.09.28.09v.12H27v-.12c.15,0,.24,0,.28-.1A.85.85,0,0,0,27.37,11.28Z"/><path class="cls-1" d="M15.23,13.89a1.46,1.46,0,0,0,0-1.83,1.37,1.37,0,0,0-1.63-.44c-.13.05-3.71-4-3.82-3.9s3.15,4.39,3.06,4.54a1.46,1.46,0,0,0,1.87,2.07l.08,0L19.5,20a.82.82,0,0,0,.09.91.77.77,0,0,0,.92.25c.05,0,1.29,1.35,1.86,1.94a.25.25,0,1,0,.1-.08c-.46-.68-1.57-2.15-1.53-2.21a.82.82,0,0,0-1.05-1.16l-4.71-5.69Z"/><path d="M22.27,23.49a.39.39,0,0,1-.09-.25h0a.41.41,0,0,1,0-.12h0c-.52-.54-1.46-1.57-1.71-1.8h0a.89.89,0,0,1-.28,0h0a1,1,0,0,1-.73-.36h0a1,1,0,0,1-.22-.62h0a1,1,0,0,1,.07-.36h0l-4.6-5.56a1.65,1.65,0,0,1-.65.14h0A1.61,1.61,0,0,1,12.83,14h0a1.61,1.61,0,0,1-.37-1h0a1.62,1.62,0,0,1,.19-.76h0l-.09-.15h0l-.34-.51h0c-.29-.41-.67-.94-1.06-1.48h0A15,15,0,0,1,9.58,7.73h0a.17.17,0,0,1,0-.09h0l0,0h0a.17.17,0,0,1,.08,0h0c.24.07.35.27.72.62h0l1.21,1.29h0c.81.87,1.67,1.79,1.89,2h0a1.43,1.43,0,0,1,.52-.09h0a1.59,1.59,0,0,1,1.22.61h0a1.6,1.6,0,0,1,.37,1h0a1.61,1.61,0,0,1-.31,1h0l4.56,5.51a.91.91,0,0,1,.3,0h0a1,1,0,0,1,.75.35h0a1,1,0,0,1,.22.62h0a1,1,0,0,1-.1.42h0v0h0l.12.19h0l.42.59h0c.3.42.65.89.88,1.23h0a.39.39,0,0,1,.3.14h0a.39.39,0,0,1,.09.26h0a.4.4,0,0,1-.15.31h0a.42.42,0,0,1-.25.09h0a.39.39,0,0,1-.3-.14Zm.23-.31a.1.1,0,0,0,0,.06h0a.08.08,0,0,0,0,.06h0a.09.09,0,0,0,.08,0h0l.07,0h0a.1.1,0,0,0,0-.08h0a.11.11,0,0,0,0-.06h0a.09.09,0,0,0-.07,0h0l0,0v0Zm-1.64-1.91.5.53h0l.26.28h0a7.09,7.09,0,0,1-.84-1.28h0a.15.15,0,0,1,0-.07h0a.68.68,0,0,0,.09-.34h0a.66.66,0,0,0-.15-.43h0a.67.67,0,0,0-.52-.25h0a.59.59,0,0,0-.27.06h0l-.11.05L15,13.94l.09-.09,0-.05h0a1.32,1.32,0,0,0,.27-.8h0a1.3,1.3,0,0,0-.3-.83h0a1.28,1.28,0,0,0-1-.5h0a1.14,1.14,0,0,0-.47.1h-.06c-.24-.07-.34-.26-.72-.62h0L11.63,9.86h0L10.48,8.63h0l.91,1.28h0A16,16,0,0,1,13,12.24h0v0l0,0a1.32,1.32,0,0,0-.18.66h0a1.3,1.3,0,0,0,.3.84h0a1.31,1.31,0,0,0,1,.47h0a1.31,1.31,0,0,0,.54-.12h0l.07,0h0l.11-.07L19.68,20l0,.09a.65.65,0,0,0-.08.31h0a.67.67,0,0,0,.16.43h0a.66.66,0,0,0,.5.26h0a.66.66,0,0,0,.24,0h0v0l0,0c.21.06.17.12.35.26Zm-5.63-7.38h0Z"/><path class="cls-1" d="M20.55,14.15a1.46,1.46,0,0,0,1.14-1.43,1.37,1.37,0,0,0-1-1.38c-.13,0-.31-5.44-.46-5.44s-.38,5.39-.53,5.45a1.46,1.46,0,0,0,.12,2.79l.09,0v5.48a.82.82,0,0,0-.51.76.77.77,0,0,0,.55.78c.06,0,.13,1.86.2,2.68a.25.25,0,0,0-.19.24.25.25,0,0,0,.5,0,.25.25,0,0,0-.19-.24c.08-.82.16-2.66.23-2.68a.82.82,0,0,0-.07-1.57V14.16Z"/><path d="M19.85,24.09a.39.39,0,0,1,.18-.33h0c-.05-.75-.13-2.19-.16-2.47h0a.93.93,0,0,1-.58-.9h0a1,1,0,0,1,.51-.85h0V14.28a1.61,1.61,0,0,1-1.18-1.55h0a1.61,1.61,0,0,1,1-1.49h0s0-.08,0-.13h0c0-.13,0-.32.06-.55h0c0-.46.08-1.08.13-1.71h0c.09-1.27.17-2.58.26-2.93h0s0-.11.18-.17h0c.22.08.13.13.17.17h0a1.57,1.57,0,0,1,0,.18h0c0,.15,0,.35.06.59h0c0,.48.08,1.13.12,1.78h0c.07,1.19.15,2.48.2,2.75h0a1.53,1.53,0,0,1,1,1.5h0a1.61,1.61,0,0,1-1.22,1.56h0v5.21a1,1,0,0,1,.61.9h0a1,1,0,0,1-.57.88h0s0,.12,0,.21h0c0,.19,0,.44-.06.72h0c0,.52-.07,1.12-.11,1.54h0a.39.39,0,0,1,.18.33h0a.4.4,0,0,1-.4.4h0a.4.4,0,0,1-.4-.4Zm.37-.09a.1.1,0,0,0-.08.09h0a.1.1,0,0,0,.1.1h0a.1.1,0,0,0,.1-.1h0a.1.1,0,0,0-.08-.09h0ZM20.17,8.11c-.08,1.17-.16,2.46-.24,3h0c-.06.18,0,.21-.16.37h0a1.31,1.31,0,0,0-.86,1.23h0a1.31,1.31,0,0,0,1,1.27h0L20,14h0l.12,0v5.71l-.09,0a.67.67,0,0,0-.42.62h0A.62.62,0,0,0,20,21h0c.2.15.08.13.13.21h0c0,.06,0,.14,0,.23h0c0,.19,0,.45.05.73h0l0,.39h0c0-.58.08-1.14.11-1.36h0c0-.07,0-.07.12-.21h0a.67.67,0,0,0,.44-.63h0a.67.67,0,0,0-.5-.65h0l-.11,0V14l.12,0h.07a1.31,1.31,0,0,0,1-1.28h0a1.22,1.22,0,0,0-.87-1.24h0c-.17-.11-.09-.12-.13-.18h0a1.35,1.35,0,0,1,0-.18h0c0-.15,0-.35-.05-.59h0c0-.49-.07-1.14-.11-1.79h0c0-.58-.07-1.18-.1-1.67h0c0,.31,0,.67-.07,1Zm.38,6.05h0Z"/><path d="M19.6,12.2a.8.8,0,1,0,1.13-.07A.8.8,0,0,0,19.6,12.2Zm1.09,1a.68.68,0,1,1-.06-1A.68.68,0,0,1,20.69,13.2Z"/><path d="M12.93,22.55a.8.8,0,1,0,1.13-.07A.8.8,0,0,0,12.93,22.55Zm1.09,1a.68.68,0,1,1-.06-1A.68.68,0,0,1,14,23.55Z"/><path d="M26.15,22.43a.8.8,0,1,0,1.13-.07A.8.8,0,0,0,26.15,22.43Zm1.09,1a.68.68,0,1,1-.06-1A.68.68,0,0,1,27.24,23.43Z"/><path d="M13.38,12.48a.8.8,0,1,0,1.13-.07A.8.8,0,0,0,13.38,12.48Zm1.09,1a.68.68,0,1,1-.06-1A.68.68,0,0,1,14.47,13.48Z"/><path d="M19.93,20.15a.4.4,0,1,0,.57,0A.4.4,0,0,0,19.93,20.15Zm.55.51a.35.35,0,1,1,0-.49A.34.34,0,0,1,20.48,20.66Z"/><path d="M20.49.78a2.35,2.35,0,0,1-.18.25,2.12,2.12,0,0,0,1,.4c.29,0,.73,0,1.12.06s.73.17.85.42a.67.67,0,0,1,.06.36.49.49,0,0,1-.28.4l-.08,0h-.16a.37.37,0,0,1-.31-.18l0,0,0-.05a.22.22,0,0,1,.1-.26h0l.17,0-.17.11v0a.36.36,0,0,0,.07.11.21.21,0,0,0,.16.07l.1,0a.29.29,0,0,0,.15-.19.28.28,0,0,0,0-.2A.32.32,0,0,0,23,1.88a.46.46,0,0,0-.17-.06.5.5,0,0,0-.25,0l0,0L22.38,2a.67.67,0,0,0-.14.18.48.48,0,0,0,0,.42v0a.62.62,0,0,0,.11.15.72.72,0,0,0,.16.14.67.67,0,0,0,.17.07.82.82,0,0,0,.57-.06l.06,0a.79.79,0,0,0,.36-.75,1,1,0,0,0-.09-.32,1.07,1.07,0,0,0-.78-.57C21.95,1.09,21.12,1.25,20.49.78Z"/><path d="M23.46.93l-.23.2a2.11,2.11,0,0,0,.92.62c.28.1.71.17,1.08.31s.68.32.73.59a.66.66,0,0,1,0,.36.49.49,0,0,1-.36.33h-.11l-.14,0a.37.37,0,0,1-.26-.24V3a.28.28,0,0,1,0-.05.22.22,0,0,1,.16-.24h.2l-.19.07v0a.42.42,0,0,0,0,.12.21.21,0,0,0,.14.1h.1a.29.29,0,0,0,.19-.15.28.28,0,0,0,0-.2.32.32,0,0,0-.09-.15.45.45,0,0,0-.16-.1.51.51,0,0,0-.25,0h0L25,2.5a.69.69,0,0,0-.17.14.49.49,0,0,0-.12.4v0a.59.59,0,0,0,.07.17.7.7,0,0,0,.13.18.67.67,0,0,0,.15.11.81.81,0,0,0,.57.06l.07,0a.79.79,0,0,0,.52-.65,1,1,0,0,0,0-.33,1.07,1.07,0,0,0-.64-.73C24.82,1.55,24,1.52,23.46.93Z"/><path d="M26.22,1.54,26,1.7a2.11,2.11,0,0,0,.81.75c.26.14.67.28,1,.47s.62.42.63.7a.67.67,0,0,1-.08.35.49.49,0,0,1-.41.27h-.11l-.13,0a.37.37,0,0,1-.22-.28.25.25,0,0,1,0,0,.35.35,0,0,1,0-.06.22.22,0,0,1,.19-.21h0l.17,0-.19,0a.3.3,0,0,0,0,0,.39.39,0,0,0,0,.12.22.22,0,0,0,.12.12h.1a.29.29,0,0,0,.21-.12.27.27,0,0,0,.06-.2.33.33,0,0,0-.06-.17A.47.47,0,0,0,28,3.35a.51.51,0,0,0-.25-.06h0l-.16,0a.66.66,0,0,0-.19.11.48.48,0,0,0-.18.38s0,0,0,0a.6.6,0,0,0,0,.18.74.74,0,0,0,.1.2.61.61,0,0,0,.13.13.81.81,0,0,0,.56.15h.07a.79.79,0,0,0,.61-.57,1,1,0,0,0,0-.33,1.07,1.07,0,0,0-.52-.82C27.46,2.36,26.64,2.2,26.22,1.54Z"/><path d="M28.67,2.6l-.27.14a2.1,2.1,0,0,0,.76.8c.25.16.65.32,1,.54s.59.46.59.74a.67.67,0,0,1-.1.35.49.49,0,0,1-.42.24h-.11l-.13,0a.37.37,0,0,1-.2-.29.25.25,0,0,1,0,0,.49.49,0,0,1,0-.06.22.22,0,0,1,.2-.2h0l.17,0-.2,0s0,0,0,0A.42.42,0,0,0,30,5a.21.21,0,0,0,.11.13l.1,0A.29.29,0,0,0,30.43,5a.28.28,0,0,0,.07-.19.32.32,0,0,0-.05-.17.48.48,0,0,0-.13-.13.51.51,0,0,0-.24-.07h0l-.16,0a.67.67,0,0,0-.2.1.48.48,0,0,0-.2.37V5a.63.63,0,0,0,0,.18.76.76,0,0,0,.09.2.67.67,0,0,0,.12.14.81.81,0,0,0,.55.19h.07A.79.79,0,0,0,31,5.15,1,1,0,0,0,31,4.83,1.07,1.07,0,0,0,30.55,4C29.85,3.5,29,3.29,28.67,2.6Z"/><path d="M31.23,3.93l-.29.1a2.12,2.12,0,0,0,.62.92c.22.2.59.43.89.7s.5.55.46.83a.68.68,0,0,1-.16.33.49.49,0,0,1-.46.16l-.08,0h0l-.12-.07a.37.37,0,0,1-.15-.33.27.27,0,0,1,0,0,.39.39,0,0,1,0-.05.22.22,0,0,1,.23-.16h0l.16.06h-.2v0a.38.38,0,0,0,0,.13.21.21,0,0,0,.09.15l.09,0a.29.29,0,0,0,.23-.07.27.27,0,0,0,.1-.18.33.33,0,0,0,0-.17.47.47,0,0,0-.11-.15A.52.52,0,0,0,32.3,6h-.2a.68.68,0,0,0-.21.07.48.48,0,0,0-.26.33v0a.64.64,0,0,0,0,.18.73.73,0,0,0,.05.21.71.71,0,0,0,.1.16.81.81,0,0,0,.51.28h.07a.79.79,0,0,0,.73-.41,1,1,0,0,0,.11-.31,1.07,1.07,0,0,0-.32-.92C32.25,5,31.48,4.67,31.23,3.93Z"/><path d="M33.51,5.76l-.3,0a2.1,2.1,0,0,0,.47,1c.19.23.52.52.77.83a1,1,0,0,1,.32.89.68.68,0,0,1-.21.3.49.49,0,0,1-.48.09l-.08,0h0l-.11-.09a.37.37,0,0,1-.1-.34v0l0-.05a.22.22,0,0,1,.26-.12h0l.15.09-.19,0v0a.36.36,0,0,0,0,.12.21.21,0,0,0,.07.16l.09,0a.28.28,0,0,0,.24,0,.27.27,0,0,0,.13-.16.34.34,0,0,0,0-.18.47.47,0,0,0-.09-.16.51.51,0,0,0-.2-.15h0l-.16,0a.66.66,0,0,0-.22,0,.48.48,0,0,0-.31.29v0a.62.62,0,0,0,0,.18.64.64,0,0,0,.09.39.82.82,0,0,0,.46.35l.07,0a.79.79,0,0,0,.78-.29A1,1,0,0,0,35,8.62a1.07,1.07,0,0,0-.17-1C34.35,7,33.64,6.53,33.51,5.76Z"/><path d="M35.61,7.94H35.3A2.12,2.12,0,0,0,35.58,9c.14.26.41.6.6,1a1,1,0,0,1,.15.93.66.66,0,0,1-.26.25.49.49,0,0,1-.49,0l-.07,0h0v0L35.41,11a.37.37,0,0,1,0-.36l0,0,0,0a.22.22,0,0,1,.27-.07h0a.66.66,0,0,1,.13.11l-.18-.07,0,0a.41.41,0,0,0,0,.12.21.21,0,0,0,0,.17.22.22,0,0,0,.08.06.28.28,0,0,0,.24,0,.28.28,0,0,0,.15-.13.33.33,0,0,0,0-.17.49.49,0,0,0-.05-.18.53.53,0,0,0-.17-.18l0,0-.15-.06a.66.66,0,0,0-.22,0,.49.49,0,0,0-.36.22l0,0a.64.64,0,0,0-.06.17.71.71,0,0,0,0,.22.68.68,0,0,0,0,.18.81.81,0,0,0,.38.43l.06,0a.79.79,0,0,0,.82-.14,1,1,0,0,0,.2-.26,1.07,1.07,0,0,0,0-1C36.2,9.31,35.59,8.72,35.61,7.94Z"/><path d="M37.3,10.33l-.3,0a2.11,2.11,0,0,0,.12,1.1c.11.28.32.65.46,1a1,1,0,0,1,0,.94.67.67,0,0,1-.29.22.49.49,0,0,1-.48-.06l-.06-.06h0v0l-.07-.12a.37.37,0,0,1,0-.36l0,0,0,0a.22.22,0,0,1,.28,0l0,0a.63.63,0,0,1,.11.13l-.17-.1,0,0a.39.39,0,0,0-.06.11.21.21,0,0,0,0,.17.22.22,0,0,0,.07.07.28.28,0,0,0,.24,0,.27.27,0,0,0,.17-.11.32.32,0,0,0,.06-.17.5.5,0,0,0,0-.18.53.53,0,0,0-.15-.2l0,0-.15-.08a.64.64,0,0,0-.22,0,.49.49,0,0,0-.38.17l0,0a.67.67,0,0,0-.08.16.77.77,0,0,0-.05.21.73.73,0,0,0,0,.18.81.81,0,0,0,.32.48l.06,0a.79.79,0,0,0,.83,0,1,1,0,0,0,.24-.23,1.07,1.07,0,0,0,.14-1C37.7,11.77,37.18,11.11,37.3,10.33Z"/><path d="M38.72,13l-.29-.1a2.11,2.11,0,0,0-.08,1.1c.06.29.2.7.27,1.09a1,1,0,0,1-.15.93.66.66,0,0,1-.33.16A.49.49,0,0,1,37.7,16l0-.07h0v0a.78.78,0,0,1,0-.13.37.37,0,0,1,.08-.35l0,0,0,0a.22.22,0,0,1,.28,0l0,0a.68.68,0,0,1,.09.15L38,15.42l0,0a.41.41,0,0,0-.08.1.21.21,0,0,0,0,.17.22.22,0,0,0,.05.08.28.28,0,0,0,.22.09.28.28,0,0,0,.19-.08.33.33,0,0,0,.09-.15.48.48,0,0,0,0-.18.53.53,0,0,0-.11-.23l0,0a.54.54,0,0,0-.13-.1.62.62,0,0,0-.21-.08.49.49,0,0,0-.41.1l0,0a.62.62,0,0,0-.11.14.75.75,0,0,0-.09.2.72.72,0,0,0,0,.18.81.81,0,0,0,.23.53l0,0a.79.79,0,0,0,.83.12,1,1,0,0,0,.28-.18,1.07,1.07,0,0,0,.31-.92C38.86,14.45,38.47,13.71,38.72,13Z"/><path d="M39.54,15.85l-.28-.14a2.12,2.12,0,0,0-.2,1.09c0,.3.12.72.15,1.12a1,1,0,0,1-.25.91.66.66,0,0,1-.34.12.49.49,0,0,1-.44-.2l0-.07h0v0a.73.73,0,0,1,0-.13.37.37,0,0,1,.12-.34l0,0,0,0a.22.22,0,0,1,.28.05v0a.65.65,0,0,1,.07.16l-.13-.14,0,0a.43.43,0,0,0-.09.09.21.21,0,0,0,0,.17.23.23,0,0,0,0,.09.28.28,0,0,0,.21.12.27.27,0,0,0,.19-.06.33.33,0,0,0,.11-.14.46.46,0,0,0,0-.18.55.55,0,0,0-.08-.24l0,0a.5.5,0,0,0-.12-.12.59.59,0,0,0-.2-.1.49.49,0,0,0-.42.05l0,0A.64.64,0,0,0,38,18a.75.75,0,0,0-.11.19.71.71,0,0,0,0,.18A.82.82,0,0,0,38,19L38,19a.79.79,0,0,0,.81.21,1,1,0,0,0,.3-.15,1.07,1.07,0,0,0,.42-.87C39.51,17.34,39.21,16.56,39.54,15.85Z"/><path d="M20.17.87a2.64,2.64,0,0,0,.18.25,2.11,2.11,0,0,1-1,.4c-.3,0-.73,0-1.12.06s-.73.17-.85.42a.68.68,0,0,0-.06.36.49.49,0,0,0,.28.4l.08,0h.16a.37.37,0,0,0,.31-.18l0,0,0-.05a.22.22,0,0,0-.1-.26h0l-.16,0L18,2.3l0,0a.37.37,0,0,1-.07.11.21.21,0,0,1-.16.07l-.1,0a.29.29,0,0,1-.15-.19.28.28,0,0,1,0-.2A.33.33,0,0,1,17.69,2a.46.46,0,0,1,.17-.06.51.51,0,0,1,.25,0l0,0,.14.09a.67.67,0,0,1,.14.18.49.49,0,0,1,0,.42v0a.62.62,0,0,1-.1.15.74.74,0,0,1-.16.14L18,3A.82.82,0,0,1,17.42,3l-.06,0A.8.8,0,0,1,17,2.2a1,1,0,0,1,.09-.32,1.07,1.07,0,0,1,.78-.57C18.72,1.18,19.54,1.33,20.17.87Z"/><path d="M17.2,1l.23.2a2.1,2.1,0,0,1-.92.62c-.28.1-.71.17-1.08.31s-.67.32-.73.59a.66.66,0,0,0,0,.36.49.49,0,0,0,.36.33h.11l.14,0a.37.37,0,0,0,.26-.24v-.1a.22.22,0,0,0-.16-.24h-.2l.19.07v0a.39.39,0,0,1,0,.12.21.21,0,0,1-.14.1h-.1A.29.29,0,0,1,15,3a.27.27,0,0,1,0-.2A.33.33,0,0,1,15,2.63a.46.46,0,0,1,.16-.1.51.51,0,0,1,.25,0h0l.15.06a.71.71,0,0,1,.17.14.49.49,0,0,1,.12.4v0a.62.62,0,0,1-.07.17.7.7,0,0,1-.13.18.63.63,0,0,1-.15.11.81.81,0,0,1-.57.06l-.07,0A.79.79,0,0,1,14.4,3a1,1,0,0,1,0-.33A1.07,1.07,0,0,1,15.06,2C15.85,1.64,16.69,1.61,17.2,1Z"/><path d="M14.44,1.62l.26.16a2.1,2.1,0,0,1-.81.75c-.26.14-.67.28-1,.47s-.62.42-.63.7a.67.67,0,0,0,.08.35.49.49,0,0,0,.41.27h.11l.13,0A.37.37,0,0,0,13.18,4v0a.35.35,0,0,0,0-.06A.22.22,0,0,0,13,3.68h0l-.17,0,.19,0s0,0,0,0a.42.42,0,0,1,0,.12.21.21,0,0,1-.12.12h-.1a.29.29,0,0,1-.21-.12.27.27,0,0,1-.06-.2.34.34,0,0,1,.06-.16.48.48,0,0,1,.14-.12.51.51,0,0,1,.25-.06h0l.16,0a.66.66,0,0,1,.19.11.49.49,0,0,1,.18.38s0,0,0,0a.64.64,0,0,1,0,.18.72.72,0,0,1-.1.2.63.63,0,0,1-.13.13.81.81,0,0,1-.56.15h-.07A.79.79,0,0,1,12,4a1,1,0,0,1,0-.33,1.07,1.07,0,0,1,.52-.82C13.2,2.44,14,2.29,14.44,1.62Z"/><path d="M12,2.68l.27.14a2.1,2.1,0,0,1-.76.8c-.25.16-.65.32-1,.54s-.59.46-.59.74a.65.65,0,0,0,.1.35.49.49,0,0,0,.42.24h.11l.13,0a.4.4,0,0,0,.21-.34.49.49,0,0,0,0-.06.22.22,0,0,0-.2-.2h0l-.17,0,.2,0s0,0,0,0a.42.42,0,0,1,0,.12.21.21,0,0,1-.11.13l-.1,0a.29.29,0,0,1-.22-.11.28.28,0,0,1-.07-.19.33.33,0,0,1,.05-.17.46.46,0,0,1,.13-.13.51.51,0,0,1,.24-.07h0l.16,0a.67.67,0,0,1,.2.1.48.48,0,0,1,.2.37s0,0,0,0a.63.63,0,0,1,0,.18.72.72,0,0,1-.09.2.66.66,0,0,1-.12.14.81.81,0,0,1-.55.19h-.07a.79.79,0,0,1-.65-.53,1,1,0,0,1-.05-.33,1.08,1.08,0,0,1,.46-.85C10.81,3.58,11.62,3.37,12,2.68Z"/><path d="M9.43,4l.29.1A2.12,2.12,0,0,1,9.1,5c-.22.2-.59.43-.89.7s-.5.55-.46.83a.66.66,0,0,0,.16.33A.49.49,0,0,0,8.38,7l.08,0h0l.12-.07a.37.37,0,0,0,.15-.33.43.43,0,0,0,0,0V6.51a.22.22,0,0,0-.23-.16h0l-.16.06h.2v0a.44.44,0,0,1,0,.13.21.21,0,0,1-.09.15l-.09,0a.29.29,0,0,1-.23-.07A.27.27,0,0,1,8,6.51a.33.33,0,0,1,0-.17.44.44,0,0,1,.11-.15.51.51,0,0,1,.22-.11h.2a.69.69,0,0,1,.21.07A.48.48,0,0,1,9,6.46v0a.57.57,0,0,1,0,.18A.75.75,0,0,1,9,6.9a.79.79,0,0,1-.1.16.82.82,0,0,1-.51.28H8.32a.79.79,0,0,1-.73-.41,1,1,0,0,1-.11-.31A1.08,1.08,0,0,1,7.8,5.7C8.41,5.11,9.18,4.76,9.43,4Z"/><path d="M7.15,5.84l.3,0a2.12,2.12,0,0,1-.47,1c-.19.23-.52.52-.77.83a1,1,0,0,0-.32.89.67.67,0,0,0,.21.3A.49.49,0,0,0,6.58,9l.08,0h0l.11-.09a.37.37,0,0,0,.1-.34v0l0-.05a.22.22,0,0,0-.25-.12h0l-.15.09.19,0v0a.39.39,0,0,1,0,.12.21.21,0,0,1-.07.16l-.09,0a.29.29,0,0,1-.24,0,.27.27,0,0,1-.13-.16.33.33,0,0,1,0-.18.49.49,0,0,1,.09-.16A.51.51,0,0,1,6.41,8h0l.16,0a.66.66,0,0,1,.22,0,.49.49,0,0,1,.31.29v0a.58.58,0,0,1,0,.18.71.71,0,0,1,0,.22.73.73,0,0,1-.07.17.82.82,0,0,1-.46.35l-.07,0A.8.8,0,0,1,5.79,9a1,1,0,0,1-.15-.29,1.07,1.07,0,0,1,.17-1C6.32,7.08,7,6.62,7.15,5.84Z"/><path d="M5.06,8h.31a2.11,2.11,0,0,1-.27,1.07c-.14.26-.41.6-.6,1a1,1,0,0,0-.15.93.65.65,0,0,0,.26.25.49.49,0,0,0,.49,0l.07,0h0l0,0,.09-.11a.37.37,0,0,0,0-.36l0,0,0,0A.22.22,0,0,0,5,10.54h0a.65.65,0,0,0-.13.11L5,10.59l0,0a.36.36,0,0,1,0,.12.21.21,0,0,1,0,.17L4.95,11a.28.28,0,0,1-.24,0,.28.28,0,0,1-.15-.13.33.33,0,0,1,0-.17.49.49,0,0,1,.05-.18.53.53,0,0,1,.17-.18l0,0,.15-.06a.67.67,0,0,1,.22,0,.49.49,0,0,1,.36.22l0,0a.61.61,0,0,1,.06.17.71.71,0,0,1,0,.22.72.72,0,0,1,0,.18.81.81,0,0,1-.38.43l-.06,0a.79.79,0,0,1-.82-.14,1,1,0,0,1-.21-.26,1.07,1.07,0,0,1,0-1C4.46,9.39,5.07,8.81,5.06,8Z"/><path d="M3.36,10.42l.3,0a2.12,2.12,0,0,1-.12,1.1c-.11.28-.33.65-.46,1a1,1,0,0,0,0,.94.67.67,0,0,0,.29.22.49.49,0,0,0,.48-.06l.06-.06h0v0L4,13.39A.37.37,0,0,0,4,13l0,0,0,0a.22.22,0,0,0-.28,0l0,0a.68.68,0,0,0-.11.13l.17-.1,0,0a.39.39,0,0,1,.06.11.2.2,0,0,1-.08.24.28.28,0,0,1-.24,0,.27.27,0,0,1-.17-.11.33.33,0,0,1-.06-.17.48.48,0,0,1,0-.18.53.53,0,0,1,.15-.2l0,0,.14-.08a.64.64,0,0,1,.22,0,.49.49,0,0,1,.38.17l0,0a.63.63,0,0,1,.08.16.74.74,0,0,1,.05.21.64.64,0,0,1,0,.18.81.81,0,0,1-.32.48l-.05,0a.79.79,0,0,1-.83,0,1,1,0,0,1-.24-.23,1.07,1.07,0,0,1-.14-1C3,11.85,3.48,11.19,3.36,10.42Z"/><path d="M1.94,13.05l.29-.1a2.1,2.1,0,0,1,.08,1.1c-.06.29-.2.7-.27,1.09a1,1,0,0,0,.15.93.66.66,0,0,0,.33.16A.49.49,0,0,0,3,16.08L3,16H3v0a.81.81,0,0,0,.05-.13A.37.37,0,0,0,3,15.52l0,0,0,0a.22.22,0,0,0-.28,0l0,0a.65.65,0,0,0-.09.15l.15-.13,0,0a.41.41,0,0,1,.08.1.21.21,0,0,1,0,.17.22.22,0,0,1-.05.08.28.28,0,0,1-.22.09.28.28,0,0,1-.19-.08.32.32,0,0,1-.09-.15.47.47,0,0,1,0-.18.52.52,0,0,1,.11-.23l0,0a.56.56,0,0,1,.13-.1.61.61,0,0,1,.21-.08.49.49,0,0,1,.41.1l0,0a.59.59,0,0,1,.11.14.72.72,0,0,1,.09.2.73.73,0,0,1,0,.18.81.81,0,0,1-.23.53l0,0a.79.79,0,0,1-.83.12A1,1,0,0,1,2,16.29a1.08,1.08,0,0,1-.31-.92C1.81,14.54,2.2,13.79,1.94,13.05Z"/><path d="M1.12,15.94l.28-.14a2.13,2.13,0,0,1,.2,1.09c0,.3-.12.72-.15,1.12a1,1,0,0,0,.25.91A.66.66,0,0,0,2,19a.49.49,0,0,0,.44-.2l0-.07h0v0a.81.81,0,0,0,0-.13.37.37,0,0,0-.12-.34l0,0,0,0a.22.22,0,0,0-.28.05v0a.64.64,0,0,0-.07.16l.13-.14,0,0a.43.43,0,0,1,.09.09.21.21,0,0,1,0,.17.21.21,0,0,1,0,.09.28.28,0,0,1-.21.12.27.27,0,0,1-.2-.06.32.32,0,0,1-.11-.14.46.46,0,0,1,0-.18.54.54,0,0,1,.08-.24l0,0A.5.5,0,0,1,1.93,18a.58.58,0,0,1,.2-.1.49.49,0,0,1,.42.05l0,0a.62.62,0,0,1,.13.13.64.64,0,0,1,.15.37.81.81,0,0,1-.17.55l0,.05a.8.8,0,0,1-.81.21,1,1,0,0,1-.3-.15,1.07,1.07,0,0,1-.41-.87C1.15,17.43,1.46,16.64,1.12,15.94Z"/><path d="M20.35,40.19a2.46,2.46,0,0,0-.18-.25,2.11,2.11,0,0,1,1-.39c.3,0,.73,0,1.13-.06s.73-.16.85-.41a.67.67,0,0,0,.06-.36.49.49,0,0,0-.28-.4l-.08,0h-.16a.38.38,0,0,0-.31.18l0,0,0,.05a.22.22,0,0,0,.1.26h0l.16,0-.17-.11,0,0a.38.38,0,0,1,.07-.1.21.21,0,0,1,.16-.07l.1,0a.29.29,0,0,1,.15.19.28.28,0,0,1,0,.2.34.34,0,0,1-.12.13.46.46,0,0,1-.17.06.5.5,0,0,1-.25,0l0,0L22.25,39a.67.67,0,0,1-.14-.18.49.49,0,0,1,0-.42l0,0a.57.57,0,0,1,.11-.15.72.72,0,0,1,.16-.14l.17-.07a.82.82,0,0,1,.57.07l.06,0a.79.79,0,0,1,.36.75,1,1,0,0,1-.09.32,1.07,1.07,0,0,1-.79.57C21.81,39.89,21,39.73,20.35,40.19Z"/><path d="M23.33,40.06a2.61,2.61,0,0,0-.23-.2,2.11,2.11,0,0,1,.92-.61c.28-.1.71-.17,1.08-.3s.68-.32.74-.59a.67.67,0,0,0,0-.36.49.49,0,0,0-.36-.33h-.11l-.14,0a.38.38,0,0,0-.26.24V38a.22.22,0,0,0,.16.24h.2l-.18-.07v0a.39.39,0,0,1,0-.12.21.21,0,0,1,.14-.1h.1a.29.29,0,0,1,.19.15.27.27,0,0,1,0,.2.34.34,0,0,1-.09.15.48.48,0,0,1-.16.09.53.53,0,0,1-.25,0h0l-.15-.06a.69.69,0,0,1-.17-.14.48.48,0,0,1-.12-.41v0a.6.6,0,0,1,.07-.17.73.73,0,0,1,.13-.18.7.7,0,0,1,.15-.11.81.81,0,0,1,.57-.06l.07,0a.8.8,0,0,1,.51.66,1,1,0,0,1,0,.33,1.07,1.07,0,0,1-.64.73C24.68,39.44,23.84,39.47,23.33,40.06Z"/><path d="M26.09,39.47l-.26-.16a2.11,2.11,0,0,1,.82-.74c.26-.14.67-.28,1-.47s.62-.42.64-.69a.67.67,0,0,0-.08-.35.49.49,0,0,0-.41-.27h-.11l-.13,0a.37.37,0,0,0-.22.28.15.15,0,0,0,0,0s0,0,0,.06a.22.22,0,0,0,.19.21h0l.17,0-.19,0s0,0,0,0a.42.42,0,0,1,0-.12.22.22,0,0,1,.12-.12h.1a.29.29,0,0,1,.21.12.27.27,0,0,1,.06.2.32.32,0,0,1-.06.16.47.47,0,0,1-.14.12.52.52,0,0,1-.25.06h0l-.16,0a.64.64,0,0,1-.19-.12.48.48,0,0,1-.17-.38s0,0,0,0a.61.61,0,0,1,0-.18.72.72,0,0,1,.1-.2.66.66,0,0,1,.13-.13.81.81,0,0,1,.56-.15H28a.79.79,0,0,1,.61.57,1,1,0,0,1,0,.33,1.07,1.07,0,0,1-.52.82C27.33,38.65,26.51,38.81,26.09,39.47Z"/><path d="M28.54,38.42l-.27-.15a2.12,2.12,0,0,1,.77-.79c.25-.16.66-.32,1-.53s.59-.46.59-.73a.67.67,0,0,0-.1-.35.49.49,0,0,0-.42-.24H30l-.13,0a.37.37,0,0,0-.2.29.25.25,0,0,0,0,0,.26.26,0,0,0,0,.06.22.22,0,0,0,.2.2h0l.17,0-.2,0s0,0,0,0a.42.42,0,0,1,0-.12.21.21,0,0,1,.12-.13l.1,0a.3.3,0,0,1,.22.11.29.29,0,0,1,.07.19.33.33,0,0,1-.05.17.47.47,0,0,1-.13.13.53.53,0,0,1-.24.07h0l-.16,0a.67.67,0,0,1-.2-.1.48.48,0,0,1-.2-.37v0a.62.62,0,0,1,0-.18.74.74,0,0,1,.09-.2.61.61,0,0,1,.12-.14.81.81,0,0,1,.55-.19h.07a.79.79,0,0,1,.64.53,1,1,0,0,1,0,.33,1.08,1.08,0,0,1-.47.85C29.73,37.52,28.91,37.73,28.54,38.42Z"/><path d="M31.11,37.1l-.29-.1a2.12,2.12,0,0,1,.62-.91c.22-.2.59-.43.89-.69s.51-.55.46-.82a.66.66,0,0,0-.16-.33.49.49,0,0,0-.46-.17l-.08,0h0l-.12.07a.38.38,0,0,0-.15.32.27.27,0,0,0,0,0v.05a.22.22,0,0,0,.23.16h0l.16-.06H32v0a.44.44,0,0,1,0-.13.21.21,0,0,1,.09-.14l.09,0a.29.29,0,0,1,.23.07.28.28,0,0,1,.1.18.34.34,0,0,1,0,.17.47.47,0,0,1-.11.15.52.52,0,0,1-.23.11H32a.67.67,0,0,1-.21-.07.48.48,0,0,1-.26-.33v0a.64.64,0,0,1,0-.18.8.8,0,0,1,.05-.21.71.71,0,0,1,.1-.16.81.81,0,0,1,.51-.27h.07a.79.79,0,0,1,.73.41,1,1,0,0,1,.1.32,1.07,1.07,0,0,1-.32.91C32.13,36,31.37,36.36,31.11,37.1Z"/><path d="M33.4,35.28l-.3-.05a2.12,2.12,0,0,1,.47-1c.19-.23.52-.51.77-.82a1,1,0,0,0,.33-.88.68.68,0,0,0-.21-.3.49.49,0,0,0-.48-.09l-.07,0h0l-.11.09a.38.38,0,0,0-.1.34v0l0,.05a.22.22,0,0,0,.25.12h0l.15-.09-.19,0v0a.39.39,0,0,1,0-.12.21.21,0,0,1,.07-.16l.09,0a.28.28,0,0,1,.24,0,.27.27,0,0,1,.13.16.31.31,0,0,1,0,.18.47.47,0,0,1-.09.16.53.53,0,0,1-.21.15h0l-.16,0a.66.66,0,0,1-.22,0,.48.48,0,0,1-.31-.29v0a.61.61,0,0,1,0-.18.77.77,0,0,1,0-.22.71.71,0,0,1,.07-.17.82.82,0,0,1,.46-.35l.06,0a.8.8,0,0,1,.78.3,1.05,1.05,0,0,1,.15.3,1.07,1.07,0,0,1-.17,1C34.24,34.05,33.54,34.51,33.4,35.28Z"/><path d="M35.51,33.11H35.2A2.11,2.11,0,0,1,35.48,32c.15-.26.42-.6.61-1a1,1,0,0,0,.16-.93.66.66,0,0,0-.26-.25.49.49,0,0,0-.49,0l-.07,0h0l0,0-.09.1a.37.37,0,0,0,0,.36l0,0,0,0a.22.22,0,0,0,.27.07h0a.67.67,0,0,0,.13-.11l-.18.07,0,0a.38.38,0,0,1,0-.12.21.21,0,0,1,0-.17.21.21,0,0,1,.08-.06.28.28,0,0,1,.24,0,.28.28,0,0,1,.15.13.32.32,0,0,1,0,.17.49.49,0,0,1-.05.18.53.53,0,0,1-.17.18l0,0-.15.06a.69.69,0,0,1-.22,0,.49.49,0,0,1-.36-.23l0,0a.65.65,0,0,1-.06-.17.78.78,0,0,1,0-.22.71.71,0,0,1,0-.18.81.81,0,0,1,.39-.43l.06,0a.79.79,0,0,1,.82.15,1,1,0,0,1,.2.26,1.07,1.07,0,0,1,0,1C36.11,31.75,35.5,32.33,35.51,33.11Z"/><path d="M37.21,30.73l-.3,0a2.12,2.12,0,0,1,.13-1.1c.11-.28.33-.65.47-1a1,1,0,0,0,0-.94.67.67,0,0,0-.29-.22.49.49,0,0,0-.48.06l-.06.06h0v0l-.07.12a.37.37,0,0,0,0,.36l0,0,0,0a.22.22,0,0,0,.28,0l0,0a.68.68,0,0,0,.11-.13l-.17.1,0,0a.39.39,0,0,1-.06-.11.21.21,0,0,1,0-.17.22.22,0,0,1,.07-.07.28.28,0,0,1,.24,0,.27.27,0,0,1,.17.11.33.33,0,0,1,.06.16.48.48,0,0,1,0,.18.54.54,0,0,1-.15.2l0,0a.55.55,0,0,1-.15.08.64.64,0,0,1-.22,0,.49.49,0,0,1-.38-.17l0,0a.61.61,0,0,1-.08-.16.74.74,0,0,1-.05-.21.73.73,0,0,1,0-.18.81.81,0,0,1,.33-.48l.05,0a.79.79,0,0,1,.83,0,1,1,0,0,1,.24.23,1.07,1.07,0,0,1,.14,1C37.62,29.29,37.09,30,37.21,30.73Z"/><path d="M38.65,28.1l-.29.1a2.12,2.12,0,0,1-.07-1.1c.06-.29.21-.7.28-1.09a1,1,0,0,0-.14-.93.67.67,0,0,0-.33-.16.49.49,0,0,0-.46.15l0,.07h0v0a.88.88,0,0,0-.05.13.37.37,0,0,0,.08.35l0,0,0,0a.22.22,0,0,0,.28,0l0,0a.68.68,0,0,0,.09-.15l-.15.13,0,0a.41.41,0,0,1-.08-.1.21.21,0,0,1,0-.17.22.22,0,0,1,.05-.08.28.28,0,0,1,.23-.09.28.28,0,0,1,.19.08.32.32,0,0,1,.09.15.46.46,0,0,1,0,.18.52.52,0,0,1-.11.23l0,0a.52.52,0,0,1-.13.1.59.59,0,0,1-.21.08.49.49,0,0,1-.41-.1l0,0a.6.6,0,0,1-.11-.14.74.74,0,0,1-.09-.2.68.68,0,0,1,0-.18.81.81,0,0,1,.23-.53l0,0a.79.79,0,0,1,.83-.12,1,1,0,0,1,.28.18,1.07,1.07,0,0,1,.31.92C38.79,26.62,38.39,27.36,38.65,28.1Z"/><path d="M39.48,25.22l-.28.13A2.12,2.12,0,0,1,39,24.26c0-.3.13-.72.15-1.12a1,1,0,0,0-.25-.91.66.66,0,0,0-.34-.12.49.49,0,0,0-.44.2l0,.07h0v0a.8.8,0,0,0,0,.13.38.38,0,0,0,.12.34l0,0,0,0a.22.22,0,0,0,.28,0v0a.69.69,0,0,0,.07-.16l-.13.14,0,0a.4.4,0,0,1-.09-.09.21.21,0,0,1,0-.17.23.23,0,0,1,0-.09.28.28,0,0,1,.21-.11.27.27,0,0,1,.19.06.33.33,0,0,1,.11.14.48.48,0,0,1,0,.18.55.55,0,0,1-.08.24l0,0a.5.5,0,0,1-.12.11.56.56,0,0,1-.2.1.48.48,0,0,1-.42-.05l0,0a.59.59,0,0,1-.13-.13.72.72,0,0,1-.11-.19.67.67,0,0,1,0-.18.82.82,0,0,1,.17-.55l0-.05a.79.79,0,0,1,.81-.21,1,1,0,0,1,.29.15,1.08,1.08,0,0,1,.41.88C39.46,23.73,39.15,24.51,39.48,25.22Z"/><path d="M20,40.11a2.79,2.79,0,0,1,.19-.25,2.11,2.11,0,0,0-1-.4c-.3,0-.73,0-1.12-.07s-.73-.17-.85-.42a.67.67,0,0,1-.05-.36.49.49,0,0,1,.28-.39l.08,0h.16a.37.37,0,0,1,.31.18l0,0,0,.05a.22.22,0,0,1-.1.26h0l-.17,0,.17-.1,0,0a.38.38,0,0,0-.07-.11.22.22,0,0,0-.16-.07l-.1,0a.29.29,0,0,0-.15.19.27.27,0,0,0,0,.2.34.34,0,0,0,.12.13.48.48,0,0,0,.17.06A.51.51,0,0,0,18,39l0,0,.14-.09a.7.7,0,0,0,.14-.18.49.49,0,0,0,0-.42l0,0a.58.58,0,0,0-.1-.15A.73.73,0,0,0,18,38l-.17-.07a.82.82,0,0,0-.58.06l-.06,0a.79.79,0,0,0-.37.75,1,1,0,0,0,.09.32,1.07,1.07,0,0,0,.78.58C18.58,39.79,19.41,39.64,20,40.11Z"/><path d="M17.06,39.94l.23-.2a2.11,2.11,0,0,0-.91-.62c-.28-.1-.71-.18-1.08-.32s-.67-.33-.73-.6a.66.66,0,0,1,0-.36.49.49,0,0,1,.36-.32h.11l.14,0a.37.37,0,0,1,.26.25v0a.37.37,0,0,1,0,.05.22.22,0,0,1-.16.23h-.2l.19-.07v0a.41.41,0,0,0,0-.12.21.21,0,0,0-.14-.1H15a.29.29,0,0,0-.19.15.28.28,0,0,0,0,.2.32.32,0,0,0,.09.15.47.47,0,0,0,.16.1.5.5,0,0,0,.25,0h0l.15-.06a.68.68,0,0,0,.17-.14.49.49,0,0,0,.12-.4v0a.58.58,0,0,0-.07-.17.75.75,0,0,0-.13-.18.64.64,0,0,0-.15-.11.81.81,0,0,0-.57-.07l-.07,0a.79.79,0,0,0-.52.65,1,1,0,0,0,0,.33,1.08,1.08,0,0,0,.63.73C15.71,39.31,16.55,39.35,17.06,39.94Z"/><path d="M14.31,39.32l.26-.16a2.1,2.1,0,0,0-.81-.75c-.26-.14-.67-.28-1-.48s-.62-.42-.63-.7a.68.68,0,0,1,.08-.35.49.49,0,0,1,.41-.26h.11l.13,0a.38.38,0,0,1,.22.28.35.35,0,0,1,0,0,.36.36,0,0,1,0,.06.22.22,0,0,1-.19.21h0l-.17,0,.19,0v0a.42.42,0,0,0,0-.12.21.21,0,0,0-.12-.12h-.1a.29.29,0,0,0-.21.12.28.28,0,0,0-.06.2.34.34,0,0,0,.06.17.48.48,0,0,0,.14.12.51.51,0,0,0,.24.06h0l.16,0a.64.64,0,0,0,.19-.11.48.48,0,0,0,.18-.38s0,0,0,0a.61.61,0,0,0,0-.18.7.7,0,0,0-.1-.2.59.59,0,0,0-.13-.13.81.81,0,0,0-.56-.15h-.07a.8.8,0,0,0-.62.56,1,1,0,0,0,0,.33,1.07,1.07,0,0,0,.51.82C13.07,38.49,13.9,38.66,14.31,39.32Z"/><path d="M11.87,38.25l.27-.14a2.12,2.12,0,0,0-.76-.8c-.25-.16-.65-.33-1-.54s-.59-.46-.59-.74a.67.67,0,0,1,.1-.35.49.49,0,0,1,.42-.24h.11l.13,0a.41.41,0,0,1,.21.34.49.49,0,0,1,0,.06.22.22,0,0,1-.21.19h0l-.17,0,.2,0a.34.34,0,0,0,0,0,.39.39,0,0,0,0-.12.21.21,0,0,0-.11-.13l-.1,0a.3.3,0,0,0-.22.1.28.28,0,0,0-.07.19.32.32,0,0,0,.05.17.46.46,0,0,0,.13.13.51.51,0,0,0,.24.07h0l.16,0a.66.66,0,0,0,.2-.1.48.48,0,0,0,.2-.37s0,0,0,0a.67.67,0,0,0,0-.18.79.79,0,0,0-.09-.2.64.64,0,0,0-.12-.14.81.81,0,0,0-.54-.19h-.07a.79.79,0,0,0-.65.52,1,1,0,0,0-.05.33,1.08,1.08,0,0,0,.46.85C10.69,37.34,11.5,37.56,11.87,38.25Z"/><path d="M9.22,36.93l.3-.08a2.12,2.12,0,0,0-.56-1c-.21-.21-.57-.46-.85-.74s-.47-.58-.41-.85A.67.67,0,0,1,7.87,34a.49.49,0,0,1,.47-.14l.08,0h0l.11.08a.37.37,0,0,1,.13.33.29.29,0,0,1,0,0l0,.05a.22.22,0,0,1-.24.15h0a.59.59,0,0,1-.16-.07l.2,0v0a.4.4,0,0,0,0-.13.21.21,0,0,0-.08-.15l-.09,0a.29.29,0,0,0-.24.05.27.27,0,0,0-.11.17.33.33,0,0,0,0,.18.44.44,0,0,0,.1.15.51.51,0,0,0,.22.13h.2a.7.7,0,0,0,.22-.06A.48.48,0,0,0,9,34.47v0a.65.65,0,0,0,0-.18.75.75,0,0,0,0-.21.69.69,0,0,0-.09-.16.81.81,0,0,0-.49-.3H8.3a.79.79,0,0,0-.75.37,1,1,0,0,0-.12.31,1.08,1.08,0,0,0,.26.93C8.27,35.79,9,36.18,9.22,36.93Z"/><path d="M7,35.06l.3,0a2.11,2.11,0,0,0-.46-1c-.19-.23-.51-.52-.76-.83a1,1,0,0,1-.32-.89A.67.67,0,0,1,6,32a.49.49,0,0,1,.48-.09l.08,0h0l.11.09a.37.37,0,0,1,.1.34v0l0,.05a.22.22,0,0,1-.26.12h0a.64.64,0,0,1-.15-.09l.19,0v0a.38.38,0,0,0,0-.12.21.21,0,0,0-.07-.16l-.09,0a.28.28,0,0,0-.24,0,.27.27,0,0,0-.13.16.32.32,0,0,0,0,.18.47.47,0,0,0,.08.16.53.53,0,0,0,.2.15h0l.16,0a.7.7,0,0,0,.22,0A.49.49,0,0,0,7,32.58v0a.61.61,0,0,0,0-.18.74.74,0,0,0,0-.22A.72.72,0,0,0,7,32a.82.82,0,0,0-.46-.35l-.06,0a.79.79,0,0,0-.78.29,1,1,0,0,0-.16.29,1.07,1.07,0,0,0,.16,1C6.21,33.83,6.91,34.29,7,35.06Z"/><path d="M5,32.87h.31A2.11,2.11,0,0,0,5,31.81c-.14-.26-.41-.61-.6-1a1,1,0,0,1-.15-.93.67.67,0,0,1,.26-.25.49.49,0,0,1,.49,0l.07,0h0l0,0,.09.11a.37.37,0,0,1,0,.36l0,0,0,0a.22.22,0,0,1-.27.07h0a.6.6,0,0,1-.13-.11l.18.08,0,0a.42.42,0,0,0,0-.12.21.21,0,0,0,0-.17.21.21,0,0,0-.08-.06.28.28,0,0,0-.24,0,.28.28,0,0,0-.15.13.32.32,0,0,0,0,.17.49.49,0,0,0,.05.18.53.53,0,0,0,.17.18l0,0,.15.06a.67.67,0,0,0,.22,0,.49.49,0,0,0,.36-.22l0,0a.61.61,0,0,0,.06-.17.7.7,0,0,0,0-.22.72.72,0,0,0,0-.18.82.82,0,0,0-.38-.43l-.06,0a.8.8,0,0,0-.82.14,1,1,0,0,0-.21.26,1.07,1.07,0,0,0,0,1C4.37,31.5,5,32.09,5,32.87Z"/><path d="M3.27,30.47l.3.05a2.11,2.11,0,0,0-.12-1.1c-.11-.28-.32-.66-.46-1a1,1,0,0,1,0-.94.66.66,0,0,1,.29-.21.49.49,0,0,1,.48.07l.06.06h0v0l.07.12a.37.37,0,0,1,0,.36l0,0,0,0a.22.22,0,0,1-.28,0l0,0a.63.63,0,0,1-.11-.13l.17.1,0,0a.45.45,0,0,0,.06-.11.22.22,0,0,0,0-.17.22.22,0,0,0-.07-.07.28.28,0,0,0-.24-.05.28.28,0,0,0-.17.11.32.32,0,0,0-.06.17.5.5,0,0,0,0,.18.54.54,0,0,0,.15.21l0,0,.14.08a.64.64,0,0,0,.22,0,.48.48,0,0,0,.38-.17l0,0a.68.68,0,0,0,.08-.16.71.71,0,0,0,.05-.21.72.72,0,0,0,0-.18.82.82,0,0,0-.32-.48l-.06,0A.79.79,0,0,0,3,27a1,1,0,0,0-.24.23,1.07,1.07,0,0,0-.15,1C2.88,29,3.4,29.7,3.27,30.47Z"/><path d="M1.86,27.83l.29.1a2.11,2.11,0,0,0,.08-1.1c-.05-.29-.2-.7-.27-1.1a1,1,0,0,1,.15-.93.66.66,0,0,1,.33-.16.49.49,0,0,1,.46.15l0,.07H3v0A.89.89,0,0,1,3,25a.37.37,0,0,1-.08.35l0,0,0,0a.22.22,0,0,1-.28,0l0,0a.64.64,0,0,1-.09-.15l.15.13,0,0a.41.41,0,0,0,.08-.1.21.21,0,0,0,0-.17A.22.22,0,0,0,2.7,25a.28.28,0,0,0-.22-.09.27.27,0,0,0-.19.08.33.33,0,0,0-.09.15.49.49,0,0,0,0,.18.54.54,0,0,0,.11.23l0,0a.55.55,0,0,0,.13.1.63.63,0,0,0,.21.08.49.49,0,0,0,.41-.1l0,0a.64.64,0,0,0,.11-.14.74.74,0,0,0,.09-.2.72.72,0,0,0,0-.18.81.81,0,0,0-.23-.53l0,0a.79.79,0,0,0-.83-.13,1,1,0,0,0-.28.18,1.07,1.07,0,0,0-.32.91C1.74,26.34,2.13,27.09,1.86,27.83Z"/><path d="M1.06,24.94l.28.14A2.12,2.12,0,0,0,1.54,24c0-.3-.12-.72-.14-1.12A1,1,0,0,1,1.65,22,.67.67,0,0,1,2,21.84a.49.49,0,0,1,.44.2l0,.07h0v0a.73.73,0,0,1,0,.13.37.37,0,0,1-.12.33l0,0,0,0A.22.22,0,0,1,2,22.62v0A.68.68,0,0,1,2,22.44l.13.15,0,0a.43.43,0,0,0,.09-.09.2.2,0,0,0,0-.17.22.22,0,0,0,0-.09A.29.29,0,0,0,2,22.1a.28.28,0,0,0-.19.06.33.33,0,0,0-.11.14.48.48,0,0,0,0,.18.55.55,0,0,0,.08.24l0,0a.52.52,0,0,0,.12.12.61.61,0,0,0,.2.1.49.49,0,0,0,.42-.05l0,0a.67.67,0,0,0,.13-.13.75.75,0,0,0,.11-.19.76.76,0,0,0,0-.18.81.81,0,0,0-.17-.55l0-.05a.8.8,0,0,0-.81-.22,1,1,0,0,0-.3.15,1.07,1.07,0,0,0-.42.87C1.1,23.45,1.4,24.23,1.06,24.94Z"/></g></g></svg>