<svg xmlns="http://www.w3.org/2000/svg" viewBox="0 0 70.82 100.57"><defs><style>.cls-1{fill:#fff;}.cls-2{fill:none;}</style></defs><title>Ресурс 34clock</title><g id="Слой_2" data-name="Слой 2"><g id="Layer_1" data-name="Layer 1"><ellipse cx="54.95" cy="22.3" rx="2" ry="5.09"/><ellipse cx="16.28" cy="22.64" rx="2" ry="5.09"/><ellipse cx="35.51" cy="10.91" rx="19.23" ry="10.91"/><ellipse cx="35.18" cy="31.85" rx="19.23" ry="10.3"/><circle cx="35.78" cy="20.95" r="19.75"/><circle class="cls-1" cx="35.68" cy="20.92" r="18.4"/><circle class="cls-1" cx="35.65" cy="21.02" r="17.51"/><path d="M41.83,11.28l-.35-.2,0-.05a.22.22,0,0,0,.17-.09,1.7,1.7,0,0,0,.2-.3l.7-1.23.12-.22a.6.6,0,0,0,0-.13.21.21,0,0,0,0-.16l0-.05.35.2,0,0a.22.22,0,0,0-.17.08l-.08.1-.12.2L42,10.72l-.11.21a.63.63,0,0,0,0,.13.2.2,0,0,0,0,.16ZM41.65,11l0,0,.16.09v-.06a.37.37,0,0,1,0-.08l0-.08,0,0v0l0,0,.87-1.53,0,0v0l0,0,0-.07.06-.05L43,9.06,42.78,9V9a.51.51,0,0,1,0,.08l0,.08,0,.05,0,0-.87,1.53,0,0,0,.05,0,.07Z"/><path d="M46.15,15.54l-.21-.35.05,0a.22.22,0,0,0,.19,0A1.69,1.69,0,0,0,46.5,15l1.22-.73.21-.13.1-.09a.21.21,0,0,0,.07-.15l0,0,.21.35-.05,0a.22.22,0,0,0-.19,0l-.12,0-.2.11-1.22.73-.2.13-.11.09a.21.21,0,0,0-.07.15Zm0-.32h-.06l.1.16,0,0,.05-.06.07,0,0,0h0l0,0,1.51-.9,0,0h0l0,0,.08,0,.08,0h.09L48.13,14l0,.07,0,.06-.07,0-.05,0,0,0-1.51.9,0,0-.05,0-.08,0Z"/><path d="M46.39,16l-.21-.35.05,0a.22.22,0,0,0,.19,0,1.71,1.71,0,0,0,.32-.16L48,14.69l.21-.13.1-.09a.21.21,0,0,0,.07-.15l0,0,.21.35,0,0a.22.22,0,0,0-.19,0l-.12,0-.2.11-1.22.73-.2.13-.11.09a.21.21,0,0,0-.07.15Zm0-.32h-.06l.1.16,0,0,.05-.06.07,0,0,0h0l0,0,1.51-.9,0,0h0l0,0,.08,0h.17l-.11-.18,0,.07,0,.06-.07,0-.05,0,0,0-1.51.9,0,0-.05,0-.08,0Z"/><path d="M47.42,20.94l0-.4h.06a.23.23,0,0,0,.16.09,1.78,1.78,0,0,0,.36,0l1.41-.12.25,0,.13,0a.21.21,0,0,0,.13-.11h.06l0,.4h-.06a.22.22,0,0,0-.16-.09H49.4L48,20.76l-.24,0-.14,0a.2.2,0,0,0-.13.11Zm.13-.3-.06,0,0,.19.05,0,.07,0h.18l1.75-.15h.18l.08,0,.08,0,0-.21-.07,0-.07,0h-.18l-1.75.15h-.18Z"/><path d="M47.46,21.41l0-.4h.06a.22.22,0,0,0,.16.09,1.69,1.69,0,0,0,.36,0L49.42,21l.25,0,.13,0a.21.21,0,0,0,.13-.11H50l0,.4H50a.22.22,0,0,0-.16-.09h-.36L48,21.23l-.24,0-.14,0a.21.21,0,0,0-.13.11Zm.12-.3-.06,0,0,.19.05,0,.07,0h.18L49.6,21h.18l.08,0,.08,0,0-.21-.08,0-.07,0h-.18l-1.75.15h-.18Z"/><path d="M47.51,21.88l0-.4h.06a.22.22,0,0,0,.16.09,1.61,1.61,0,0,0,.36,0l1.41-.12.25,0,.13,0a.21.21,0,0,0,.13-.11H50l0,.4H50a.23.23,0,0,0-.16-.09h-.36l-1.41.12-.24,0-.14,0a.2.2,0,0,0-.13.11Zm.13-.3-.06,0,0,.19.05,0,.07,0h.18l1.75-.15h.18l.08,0,.08,0,0-.21-.08,0-.07,0h-.18l-1.75.15h-.18Z"/><path d="M35.39,8.75,35.22,8l-.15.6a1.08,1.08,0,0,0,0,.26c0,.14,0,.23.13.25v.06h-.34V9.12A.23.23,0,0,0,34.89,9l.06-.13,0-.14,0-.12v0l.16-.65L35,7.27V7.21l0-.16a2.34,2.34,0,0,0-.08-.28.19.19,0,0,0-.08-.1V6.61h.41v.06a.1.1,0,0,0-.08,0,.28.28,0,0,0,0,.13,1,1,0,0,0,0,.22l.12.54.12-.43a1.26,1.26,0,0,0,.06-.31c0-.12,0-.18-.1-.2V6.61h.31v.06a.22.22,0,0,0-.07.07,1.12,1.12,0,0,0-.07.16l-.07.21,0,.08-.13.48.22.95a3.41,3.41,0,0,0,.1.37.24.24,0,0,0,.09.13v.06h-.42V9.11l.06,0a.09.09,0,0,0,0-.05.36.36,0,0,0,0-.09A.89.89,0,0,0,35.39,8.75Zm-.49.32H35a.66.66,0,0,1,0-.17s0-.05,0-.1A1.61,1.61,0,0,1,34.9,9.08Zm.52,0h.18l0-.1,0-.13-.06-.25L35.14,7.2a1.73,1.73,0,0,1-.05-.35.43.43,0,0,1,0-.17h-.21a.88.88,0,0,1,.05.13L35,7l0,.17v.05h0l.33,1.43s0,.07,0,.11a.77.77,0,0,1,0,.1A.65.65,0,0,1,35.42,9.08Zm.17-2.4h-.13a.36.36,0,0,1,0,.18s0,0,0,.07A1.59,1.59,0,0,1,35.59,6.68Z"/><path d="M36.18,9.17h-.4V9.11a.23.23,0,0,0,.1-.16,1.67,1.67,0,0,0,0-.36V7.18c0-.12,0-.2,0-.25a.58.58,0,0,0,0-.13.21.21,0,0,0-.1-.13V6.61h.4v.06a.22.22,0,0,0-.1.16.67.67,0,0,0,0,.13c0,.05,0,.13,0,.23V8.6c0,.1,0,.18,0,.24a.68.68,0,0,0,0,.14.21.21,0,0,0,.1.14ZM35.89,9l0,.05h.19L36,9l0-.08a.42.42,0,0,1,0-.08V6.92a.43.43,0,0,1,0-.08l0-.08,0-.08h-.21l0,.08,0,.07a.44.44,0,0,1,0,.09s0,0,0,.06V8.8s0,0,0,.06a.43.43,0,0,1,0,.08Z"/><path d="M36.66,9.17h-.4V9.11a.23.23,0,0,0,.1-.16,1.71,1.71,0,0,0,0-.36V7.18c0-.12,0-.2,0-.25a.58.58,0,0,0,0-.13.21.21,0,0,0-.1-.13V6.61h.4v.06a.22.22,0,0,0-.1.16.71.71,0,0,0,0,.13c0,.05,0,.13,0,.23V8.6c0,.1,0,.18,0,.24a.68.68,0,0,0,0,.14.21.21,0,0,0,.1.14ZM36.37,9l0,.05h.19l0-.05,0-.08a.37.37,0,0,1,0-.08V6.92a.38.38,0,0,1,0-.08l0-.08,0-.08h-.21l0,.08,0,.07a.4.4,0,0,1,0,.09s0,0,0,.06V8.8s0,0,0,.06a.39.39,0,0,1,0,.08Z"/><path d="M46.15,26.46l.22-.34,0,0a.23.23,0,0,0,.08.17,1.64,1.64,0,0,0,.29.22l1.19.77.21.13.12.05a.21.21,0,0,0,.17,0l0,0-.22.34,0,0a.23.23,0,0,0-.08-.17l-.1-.09-.19-.13-1.19-.77-.21-.12-.13-.06a.2.2,0,0,0-.17,0Zm.28-.16,0-.05-.1.16h.06l.08,0,.07,0,0,0h0l0,0,1.47,1,0,0h0l0,0,.07.05,0,.06,0,.07.12-.18h-.09l-.08,0-.08,0-.05,0,0,0-1.47-1,0,0-.05,0-.07-.05Z"/><path d="M47.71,27.9l-1.46-.67,1,.91.23.18a.7.7,0,0,0,.21.1.24.24,0,0,0,.16,0l0,0-.18.28,0,0a.37.37,0,0,0-.06-.13,1.22,1.22,0,0,0-.14-.16l-.26-.25-1.43-1.27h0l1.88.85.36.15a.24.24,0,0,0,.16,0l0,0-.23.35,0,0h0a.12.12,0,0,0,0-.11.34.34,0,0,0-.12-.11Zm-1.8-1,.18.16,1.63.74.19.1L48,28l.07.09.11-.17-.23-.07-.13-.05-.11,0Zm1.82,1.66.09-.13-.14,0-.15-.07.12.12Z"/><path d="M42.36,32.91l-.85-1.37.35,1.32a2,2,0,0,0,.09.28.65.65,0,0,0,.12.2.23.23,0,0,0,.15.07l0,.05-.31.13,0-.05a.37.37,0,0,0,0-.14,1.31,1.31,0,0,0,0-.21c0-.1,0-.21-.08-.35L41.35,31h0l1.09,1.75a3.39,3.39,0,0,0,.22.33.24.24,0,0,0,.13.09l0,.05-.39.17,0-.05h0a.12.12,0,0,0,.06-.09.35.35,0,0,0,0-.15A1.22,1.22,0,0,0,42.36,32.91Zm-1-1.8.06.23.94,1.52a1.46,1.46,0,0,1,.1.19l0,.1a.51.51,0,0,1,0,.11l.18-.08a1.16,1.16,0,0,1-.15-.18l-.08-.12-.06-.1ZM42,33.5l.15-.06-.1-.1A.76.76,0,0,1,42,33.2c0,.07,0,.13,0,.17A.92.92,0,0,1,42,33.5Z"/><path d="M36.22,34.64,36.06,33l-.27,1.34a2,2,0,0,0,0,.29.68.68,0,0,0,0,.23.24.24,0,0,0,.1.13v.06l-.34,0V35a.37.37,0,0,0,.08-.12,1.24,1.24,0,0,0,.07-.2c0-.09.05-.21.08-.35l.38-1.87h0l.22,2.06a3.21,3.21,0,0,0,.06.39.24.24,0,0,0,.08.14v.06l-.42,0V35h0A.13.13,0,0,0,36.2,35a.35.35,0,0,0,0-.15A1.4,1.4,0,0,0,36.22,34.64Zm-.08-2,0,.23.18,1.78a1.44,1.44,0,0,1,0,.22.52.52,0,0,1,0,.1.48.48,0,0,1,0,.1h.2a1.11,1.11,0,0,1-.06-.23l0-.14v-.12ZM35.63,35h.16a.59.59,0,0,1,0-.14.79.79,0,0,1,0-.17c0,.07,0,.13,0,.17Z"/><path d="M35.21,32.5l.4,0v.06a.23.23,0,0,0-.11.15,1.67,1.67,0,0,0,0,.36l-.07,1.42c0,.12,0,.2,0,.25a.62.62,0,0,0,0,.13.21.21,0,0,0,.09.14v.06l-.4,0V35a.22.22,0,0,0,.11-.15.68.68,0,0,0,0-.13c0-.05,0-.13,0-.23l.07-1.42c0-.1,0-.18,0-.24a.68.68,0,0,0,0-.14.21.21,0,0,0-.09-.14Zm.28.16,0-.05h-.19l0,.06,0,.08a.41.41,0,0,1,0,.08v.09l-.08,1.75v.09a.41.41,0,0,1,0,.08l0,.07,0,.08h.21l0-.08,0-.07a.42.42,0,0,1,0-.09v-.09l.08-1.75v-.09a.4.4,0,0,1,0-.08Z"/><path d="M29.41,33.15,30,31.67l-.88,1A1.88,1.88,0,0,0,29,33a.65.65,0,0,0-.09.22.24.24,0,0,0,0,.16l0,0-.29-.18,0,0a.37.37,0,0,0,.13-.06l.16-.14.24-.27,1.23-1.46h0l-.8,1.91a3.18,3.18,0,0,0-.14.37.24.24,0,0,0,0,.16l0,0-.36-.22,0,0h0a.12.12,0,0,0,.11,0,.35.35,0,0,0,.1-.12A1.24,1.24,0,0,0,29.41,33.15Zm.92-1.82-.15.18-.7,1.65a1.69,1.69,0,0,1-.1.19l-.06.08-.08.07.17.1a1.17,1.17,0,0,1,.06-.23l.05-.13,0-.11Zm-1.61,1.87.14.08a.61.61,0,0,1,0-.14.87.87,0,0,1,.07-.15l-.12.13Z"/><path d="M29.55,30.78l.34.21,0,0a.22.22,0,0,0-.17.08,1.61,1.61,0,0,0-.21.29l-.74,1.21-.12.21a.62.62,0,0,0,0,.12.21.21,0,0,0,0,.17l0,0L28.21,33l0,0a.22.22,0,0,0,.17-.08l.08-.1.13-.19.74-1.21.12-.21a.7.7,0,0,0,.05-.13.2.2,0,0,0,0-.17Zm.17.28,0,0-.16-.1V31a.35.35,0,0,1,0,.08l0,.08,0,0v0l0,0-.92,1.5,0,0v0l0,0,0,.07-.06,0-.07,0,.18.11V33a.39.39,0,0,1,0-.08l0-.08,0-.05,0,0,.92-1.5,0,0,0-.05,0-.07Z"/><path d="M29.14,30.54l.34.21,0,.05a.22.22,0,0,0-.17.08,1.74,1.74,0,0,0-.21.29l-.74,1.21-.12.21a.59.59,0,0,0,0,.13.21.21,0,0,0,0,.17l0,0-.34-.21,0,0a.22.22,0,0,0,.17-.08l.08-.1.12-.19L29,31.09l.12-.21a.7.7,0,0,0,.05-.13.21.21,0,0,0,0-.17Zm.17.28,0,0-.16-.1v.06a.35.35,0,0,1,0,.08l0,.08,0,0v0l0,0-.92,1.5,0,0v0l0,0,0,.07-.06,0-.07,0,.18.11v-.09a.42.42,0,0,1,0-.08l0-.08,0-.05,0,0,.92-1.5,0,0,0-.05,0-.07Z"/><path d="M24.12,28.37l1.25-1-1.27.51-.26.13a.66.66,0,0,0-.18.15.24.24,0,0,0-.06.16l0,0L23.37,28l0,0h.14l.21-.05.33-.12,1.78-.71h0l-1.6,1.31a3.29,3.29,0,0,0-.3.26.24.24,0,0,0-.07.15l0,0-.21-.36,0,0h0a.13.13,0,0,0,.1,0,.37.37,0,0,0,.15-.06Zm1.67-1.18-.22.09-1.39,1.13-.18.13-.09,0-.11,0,.1.17a1.08,1.08,0,0,1,.16-.17l.11-.09.09-.08Zm-2.3.89.08.14a.6.6,0,0,1,.09-.12l.13-.1-.17.06Z"/><path d="M25.35,26.35l.2.35,0,0a.23.23,0,0,0-.19,0,1.69,1.69,0,0,0-.32.16l-1.22.72-.21.13-.1.09a.21.21,0,0,0-.07.15l0,0-.2-.35.05,0a.22.22,0,0,0,.19,0l.12,0,.2-.11,1.22-.72.2-.13.11-.09a.21.21,0,0,0,.07-.15Zm0,.32h.06l-.1-.16,0,.05-.05.06-.07,0,0,0h0l0,0-1.51.89,0,0h0l0,0-.08,0h-.17l.11.18,0-.07,0-.06.07,0,.05,0,0,0,1.51-.89,0,0,.05,0,.08,0Z"/><path d="M25.11,25.94l.2.35-.05,0a.22.22,0,0,0-.19,0,1.65,1.65,0,0,0-.32.16l-1.22.72-.21.13-.1.09a.21.21,0,0,0-.07.15l0,0-.21-.35.05,0a.22.22,0,0,0,.19,0l.12,0,.2-.11,1.22-.72.2-.13.11-.09a.21.21,0,0,0,.07-.15Zm0,.32h.06l-.1-.16,0,0-.05.06-.07,0,0,0h0l0,0-1.51.89,0,0h0l0,0-.08,0-.08,0H23l.11.18,0-.07,0-.06.07,0,.05,0,0,0,1.51-.89,0,0,.05,0,.08,0Z"/><path d="M24.87,25.53l.2.35-.05,0a.22.22,0,0,0-.19,0,1.7,1.7,0,0,0-.32.16l-1.22.72-.21.13L23,27a.21.21,0,0,0-.07.15l0,0-.21-.35.05,0a.22.22,0,0,0,.19,0l.12-.05.2-.11,1.22-.72.2-.13.11-.09a.21.21,0,0,0,.07-.15Zm0,.32h.06l-.1-.16,0,0-.05.06-.07,0,0,0h0l0,0-1.51.89,0,0h0l0,0-.08,0h-.17l.11.18,0-.07,0-.06.07,0,.05,0,0,0L24.65,26l0,0,.05,0,.08,0Z"/><path d="M23.93,21.16v.4h-.06a.22.22,0,0,0-.16-.1,1.58,1.58,0,0,0-.36,0H21.7l-.13,0a.21.21,0,0,0-.14.1h-.06v-.4h.06a.22.22,0,0,0,.16.1l.13,0H23.6l.14,0a.21.21,0,0,0,.13-.1Zm-.15.29.05,0v-.19l-.05,0-.07,0H21.6l-.08,0-.08,0v.21l.08,0,.07,0h2.11Z"/><path d="M23.51,20.54l-.74.18.6.15a1,1,0,0,0,.26,0c.15,0,.23,0,.25-.13h.06v.34h-.06a.21.21,0,0,0-.09-.07L23.65,21l-.14,0-.13,0h0l-.65-.16-.68.16H22l-.16,0-.28.08a.18.18,0,0,0-.1.08h-.06V20.7h.06a.09.09,0,0,0,0,.08.27.27,0,0,0,.13,0l.22,0,.54-.13-.43-.11a1.22,1.22,0,0,0-.31-.05c-.12,0-.18,0-.2.11h-.06v-.31h.06a.21.21,0,0,0,.08.07l.16.07.21.07.08,0,.48.13.94-.23.37-.11a.23.23,0,0,0,.13-.09h.06v.42h-.06a.15.15,0,0,0,0-.06l-.05,0H23.7Zm.33.48V20.9l-.17,0h-.1Zm0-.52v-.18l-.1,0-.13,0-.25.06L22,20.8a1.72,1.72,0,0,1-.35.06.43.43,0,0,1-.17,0V21l.13-.05.24-.06.17,0H22l1.43-.34.11,0h.1Zm-2.4-.15v.13a.35.35,0,0,1,.18,0h.07Z"/><path d="M25.13,14.76l-.72-.24.43.44a1,1,0,0,0,.2.16c.12.08.22.08.28,0l.05,0-.18.29,0,0a.23.23,0,0,0,0-.11L25,15.21l-.1-.11-.09-.1,0,0-.47-.48-.66-.22h-.06l-.15,0-.28-.08a.19.19,0,0,0-.13,0l0,0,.21-.35,0,0a.1.1,0,0,0,0,.09.29.29,0,0,0,.1.09l.21.09.53.18-.31-.33a1.25,1.25,0,0,0-.23-.21c-.1-.06-.17-.06-.22,0l0,0,.16-.27,0,0a.22.22,0,0,0,0,.1l.1.14.14.17.05.06.34.36.92.3.37.1a.24.24,0,0,0,.16,0l0,0-.22.36,0,0a.15.15,0,0,0,0-.07.1.1,0,0,0,0-.05l-.08-.06Zm0,.58.06-.11-.16-.07L25,15.11A1.68,1.68,0,0,1,25.15,15.34Zm.27-.44.09-.15-.11,0-.13,0L25,14.61l-1.36-.45a1.82,1.82,0,0,1-.33-.13.42.42,0,0,1-.13-.12l-.11.18.14,0,.24.07.16.05h.07l1.4.46.11,0,.09,0Zm-2-1.39-.07.11a.36.36,0,0,1,.17.06l.06,0A1.57,1.57,0,0,1,23.46,13.51Z"/><path d="M29.89,10.68l-.35.2,0-.05a.23.23,0,0,0,0-.19,1.66,1.66,0,0,0-.15-.33l-.69-1.24-.13-.21-.09-.1a.21.21,0,0,0-.15-.07l0-.05.35-.2,0,0a.22.22,0,0,0,0,.19.7.7,0,0,0,0,.12l.11.2.69,1.24.12.21.09.11a.21.21,0,0,0,.15.07Zm-.33,0v.06l.17-.09,0,0-.06-.05,0-.07,0,0v0l0,0-.86-1.53,0,0v0l0,0,0-.08a.33.33,0,0,1,0-.08V8.56l-.19.1.07.05.06,0,0,.07,0,.05,0,0,.86,1.53,0,0,0,.05,0,.08A.4.4,0,0,1,29.57,10.69Z"/><path d="M30.23,10l-.51-.56.16.6a1.05,1.05,0,0,0,.09.24c.07.13.15.18.24.15l0,.05-.3.17,0,0a.23.23,0,0,0,0-.12s0-.09,0-.15l0-.15,0-.13v0l-.17-.64-.47-.52v0l0,0-.11-.12-.21-.21a.19.19,0,0,0-.12-.05l0-.05.36-.2,0,.05a.1.1,0,0,0,0,.08.28.28,0,0,0,0,.12,1,1,0,0,0,.13.18l.37.41-.11-.43a1.25,1.25,0,0,0-.1-.29c-.06-.1-.12-.14-.19-.12l0-.05L29.43,8l0,0a.21.21,0,0,0,0,.1,1.06,1.06,0,0,0,0,.17c0,.07,0,.14,0,.22l0,.08.12.48.66.72.27.27a.23.23,0,0,0,.14.07l0,.05-.36.21,0-.05,0-.06a.1.1,0,0,0,0-.06.33.33,0,0,0,0-.09A.9.9,0,0,0,30.23,10Zm-.27.52.11-.06a.66.66,0,0,1-.1-.14l0-.09A1.59,1.59,0,0,1,30,10.53Zm.45-.25.16-.09-.08-.07-.1-.09-.18-.19-1-1.06A1.77,1.77,0,0,1,29,8.5.43.43,0,0,1,29,8.33l-.18.1.11.09.17.18.12.13,0,0,0,0h0l1,1.09.07.09.06.08A.69.69,0,0,1,30.41,10.27Zm-1-2.17-.11.06a.36.36,0,0,1,.12.13l0,.07A1.69,1.69,0,0,1,29.38,8.1Z"/><path d="M20.18,20.85A15.56,15.56,0,0,1,35.75,5.29h0A15.56,15.56,0,0,1,51.31,20.85h0A15.56,15.56,0,0,1,35.75,36.42h0A15.56,15.56,0,0,1,20.18,20.85ZM24.87,10a15.33,15.33,0,0,0-4.5,10.87h0a15.33,15.33,0,0,0,4.5,10.87h0a15.33,15.33,0,0,0,10.87,4.5h0a15.33,15.33,0,0,0,10.87-4.5h0a15.33,15.33,0,0,0,4.5-10.87h0A15.33,15.33,0,0,0,46.62,10h0a15.33,15.33,0,0,0-10.87-4.5h0A15.33,15.33,0,0,0,24.87,10Z"/><path d="M18.12,20.95a17.6,17.6,0,0,1,17.6-17.6h0a17.6,17.6,0,0,1,17.6,17.6h0a17.6,17.6,0,0,1-17.6,17.6h0a17.6,17.6,0,0,1-17.6-17.6ZM23.4,8.63a17.36,17.36,0,0,0-5.1,12.31h0a17.36,17.36,0,0,0,5.1,12.31h0a17.36,17.36,0,0,0,12.31,5.1h0A17.36,17.36,0,0,0,48,33.26h0a17.36,17.36,0,0,0,5.1-12.31h0A17.36,17.36,0,0,0,48,8.63h0a17.36,17.36,0,0,0-12.31-5.1h0A17.36,17.36,0,0,0,23.4,8.63Z"/><path d="M20.89,20.91A14.82,14.82,0,0,1,35.71,6.09h0A14.82,14.82,0,0,1,50.54,20.91h0A14.82,14.82,0,0,1,35.71,35.73h0A14.82,14.82,0,0,1,20.89,20.91Zm4.47-10.35a14.59,14.59,0,0,0-4.29,10.35h0a14.59,14.59,0,0,0,4.29,10.35h0a14.59,14.59,0,0,0,10.35,4.29h0a14.59,14.59,0,0,0,10.35-4.29h0a14.59,14.59,0,0,0,4.29-10.35h0a14.59,14.59,0,0,0-4.29-10.35h0A14.59,14.59,0,0,0,35.71,6.27h0a14.59,14.59,0,0,0-10.35,4.29Z"/><path d="M35.8,6.17V3.4h-.13V6.18Z"/><path d="M35.67,35.6v2.85h.13V35.59Z"/><path d="M48.8,14l2.37-1.27-.06-.12-2.37,1.27Z"/><path d="M22.77,27.8l-2.57,1.37.06.12,2.54-1.36Z"/><path d="M43.18,8.24,44.53,5.9l-.12-.07L43.08,8.15Z"/><path d="M28.42,33.63l-1.48,2.58.12.07,1.49-2.58Z"/><path d="M42.84,4.91,42,6.73c0,.06.12,0,.11.09h0L43,5Z"/><path d="M29.34,34.9l-.89,2,.12.05.89-2Z"/><path d="M40.42,6.18l.61-2-.13,0-.58,1.91S40.39,6.13,40.42,6.18Z"/><path d="M31.05,35.54l-.66,2.07.13,0,.66-2.08Z"/><path d="M39,5.76s.39-1.93.39-1.93l-.13,0-.41,1.9,0,0A.38.38,0,0,1,39,5.76Z"/><path d="M32.47,36,32,38.1l.13,0L32.61,36Z"/><path d="M37.28,5.56h0l.21-2.13h-.13l-.2,2a.36.36,0,0,1,.09.11Z"/><path d="M34.1,36.2l-.22,2.19H34l.21-2.13S34.14,36.21,34.1,36.2Z"/><path d="M21.66,14.51l-1.92-.85-.05.12,1.88.84S21.63,14.55,21.66,14.51Z"/><path d="M49.83,27.22s0,.12,0,.16l1.81.81.06-.12Z"/><path d="M21.08,16l-2-.65,0,.13,2.06.65S21.06,16.06,21.08,16Z"/><path d="M50.5,25.53s0,.08-.06.12l1.93.59,0-.13Z"/><path d="M20.66,17.56l-2-.45,0,.13,2.06.43S20.64,17.6,20.66,17.56Z"/><path d="M50.89,24.07l0,.12,2,.43,0-.13Z"/><path d="M20.42,19.14l-2.12-.2v.13l2.11.21S20.42,19.18,20.42,19.14Z"/><path d="M51.08,22.42c.28.16,0,.12,0,.13l2.1.21v-.13Z"/><path d="M51.16,19.68l2-.17v-.13l-2.08.19S51.15,19.64,51.16,19.68Z"/><path d="M20.36,22.3l-2.08.18v.13l2.08-.18Z"/><path d="M50.92,17.86l2-.41,0-.13-2,.42S50.91,17.82,50.92,17.86Z"/><path d="M20.66,24.09l-2.08.45,0,.13,2.07-.43S20.66,24.13,20.66,24.09Z"/><path d="M50.55,16.4l2-.61,0-.13-2,.62Z"/><path d="M21,25.54l-2,.64,0,.13,2-.62S21.06,25.59,21,25.54Z"/><path d="M21.56,26.85l-2,.85.05.12L21.6,27S21.57,26.89,21.56,26.85Z"/><path d="M50,14.86,51.87,14l-.05-.12-1.89.82C50.17,14.77,50,14.81,50,14.86Z"/><path d="M48.64,12.26l1.66-1.13L50.22,11l-1.67,1.14Z"/><path d="M23,29.58l-1.74,1.18.07.11,1.77-1.19Z"/><path d="M47.51,10.8,49,9.48l-.09-.1L47.4,10.73S47.49,10.76,47.51,10.8Z"/><path d="M46.32,9.69l1.35-1.53-.1-.09L46.21,9.59S46.29,9.65,46.32,9.69Z"/><path d="M24.16,31l-1.67,1.45.09.1,1.61-1.4S24.18,31,24.16,31Z"/><path d="M25.16,32.13l-1.4,1.49.1.09,1.44-1.53S25.19,32.16,25.16,32.13Z"/><path d="M45.19,8.69l1.23-1.63L46.31,7,45.1,8.57C45.12,8.63,45.19,8.62,45.19,8.69Z"/><path d="M26.44,33.19l-1.25,1.65.11.08,1.25-1.63S26.47,33.21,26.44,33.19Z"/><path d="M34.43,5.47s0,0,.07,0l-.17-2.1-.13.09.19,2Z"/><path d="M37,36.21l.18,2.23h.13l-.16-2.21Z"/><path d="M38.63,36l.43,2.15.13,0L38.77,36Z"/><path d="M32.67,5.71l-.39-2-.13,0,.43,2A.23.23,0,0,1,32.67,5.71Z"/><path d="M31.19,6.11l-.57-1.86-.13,0L31,6.07S31.15,6.12,31.19,6.11Z"/><path d="M40.05,35.64l.67,2.16.13,0-.64-2.11S40.09,35.63,40.05,35.64Z"/><path d="M29.62,6.68l-.77-1.81-.12.05L29.5,6.7S29.58,6.7,29.62,6.68Z"/><path d="M41.63,35.13l.86,2,.12-.05-.84-2Z"/><path d="M26.94,8.1,25.79,6.45l-.11.08,1.18,1.69S26.91,8.12,26.94,8.1Z"/><path d="M44.34,33.63l1.27,1.84.11-.08-1.25-1.81S44.38,33.6,44.34,33.63Z"/><path d="M25.46,9.25,24.15,7.79l-.1.09,1.33,1.5S25.43,9.28,25.46,9.25Z"/><path d="M45.9,32.44l-.12.08,1.48,1.68.1-.09Z"/><path d="M24.38,10.34,22.91,9l-.09.1,1.51,1.4S24.36,10.38,24.38,10.34Z"/><path d="M47,31.47s0,0-.07.08L48.45,33l.09-.1Z"/><path d="M23.36,11.63l-1.57-1.16-.08.11,1.58,1.19S23.33,11.67,23.36,11.63Z"/><path d="M48.06,30.19l-.12.12,1.76,1.3.08-.11Z"/><path d="M28.71,8l-1.3-2.44-.12.06L28.6,8.05Z"/><path d="M42.44,33.92l1.38,2.59.12-.06-1.38-2.57Z"/><path d="M23,13.6l-2.47-1.42-.07.12L23,13.72Z"/><path d="M20.91,20.85H18.17V21h2.75S20.91,20.9,20.91,20.85Z"/><path d="M50.36,20.85V21h2.87v-.13Z"/><circle cx="35.69" cy="20.92" r="0.96"/><path d="M33.4,22.62l11.53-10.9h0l2-1.35.12.13-1.46,1.93h0L34.09,23.35l-.69-.73Zm.25,0,.45.47L45.41,12.41l1.2-1.58L45,11.93,33.65,22.63Z"/><path d="M32,13.59h0l-.3-1.72.16-.07,1,1.42h0l4.48,10.58-.93.39L32,13.59Zm4.57,10.34.6-.25L32.81,13.37,32,12.2l.25,1.42,4.36,10.31ZM32.8,13.34l.08,0-.08,0Z"/><path d="M68.07,99.54c0,.57-10.76,1-24,1H25.34c-13.28,0-24-.46-24-1V97.13c0-.57,10.76-1,24-1H44c13.28,0,24,.46,24,1Z"/><path d="M36,52.11c.08-.18.25-.5.36-.69a.76.76,0,0,1,.57-.36,4.13,4.13,0,0,1,.66.06,1.1,1.1,0,0,1,.48.24c.1.1.21,0,.24-.33s.1-.88.15-1.33.23-1.49.39-2.32l.18-.12.18-.12a1.77,1.77,0,0,1,1.15-.91,2.56,2.56,0,0,1,.91.15,3.92,3.92,0,0,1,.84,1.24c.3.6.63,1.3.73,1.57a.91.91,0,0,0,.45.54,8,8,0,0,0,1.12.06l.06.18.06.18a23.64,23.64,0,0,1,2,2.26,6.41,6.41,0,0,1,.94,1.69,8.08,8.08,0,0,1,.12,1.36v.18c0,.18.91,1,1,1.15s.91.66.91,1v.3a2.52,2.52,0,0,1,0,1.45l-.24.12-.24.12a.41.41,0,0,0-.33.63,5.79,5.79,0,0,0,1,1.3,14.22,14.22,0,0,0,1.27,1.09,6.54,6.54,0,0,0,1.57.66,15.73,15.73,0,0,0,3,.36l.48.18.48.18a18.19,18.19,0,0,1,3.29,1.54A12.67,12.67,0,0,1,62,67.57,10.44,10.44,0,0,1,63.41,70c.33.81,1,2.57,1.57,3.89l.06.24c.06.24,1.57,3.2,1.57,3.56V78c.1,1.63.29,3.77.42,4.77v.24a5.2,5.2,0,0,0,.66,2,11.33,11.33,0,0,1,1.63,2.17l.12.36a16.52,16.52,0,0,1,1.21,3.59c.13.85,0,1.64-.3,1.75a3.29,3.29,0,0,1-1.84-.39,9.23,9.23,0,0,1-2.63-2.29l-.12-.18-.12-.18a19.76,19.76,0,0,1-1.45-2.48c-.23-.53-.23-.17,0,.81s.54,2.28.69,2.9a9.71,9.71,0,0,1,.27,1.78c0,.37.05,1.21.12,1.87l-.06.18-.06.18c-.13.56-.29,1.3-.36,1.63l-.3.06c-.3.06-1.93.24-2.36.24h-.42a3.31,3.31,0,0,1-1.36-.6.19.19,0,0,0-.3-.09,3.26,3.26,0,0,1-1.18.15l-.36.06a5.3,5.3,0,0,1-1.69,0l-.18-.12c-.3-.5-.31-1,0-1.18s.73-.42,1-.6a1.71,1.71,0,0,0,.54-1.15,23.25,23.25,0,0,0-.06-2.5l-.18-.36-.18-.36c-.33-1-.85-2.33-1.15-3l-.3-.3-.3-.3c-.93-.73-2-1.6-2.36-1.93a2.35,2.35,0,0,1-.72-1.21c0-.33-.79-.55-1.69-.48h-.36a1.59,1.59,0,0,0-1.51.94,19.26,19.26,0,0,1-.85,2.5v8.81c-.3.76-1,1.4-1.45,1.42s-1.33,0-1.84,0A1.64,1.64,0,0,1,44,96.3a.91.91,0,0,1,.09-.94c.2-.27.48-.67.63-.91a8.81,8.81,0,0,0,.54-1.06,28.77,28.77,0,0,0,.51-4.5v-.36a22.89,22.89,0,0,0-.36-5.43,2.17,2.17,0,0,0-1.33-.18v.36a27.87,27.87,0,0,0-1.27,5v.18c0,.18.3,3.08.3,3.32V92a5.06,5.06,0,0,1-.42,1.78,2,2,0,0,0-.12,1.24l-.12.24-.12.24a3.78,3.78,0,0,1-1.45.57l-1.48,0a2.16,2.16,0,0,1-1.09-.21A2.24,2.24,0,0,1,38,95.4c-.08-.18.07-.52.33-.75a11.45,11.45,0,0,1,1.15-.84,2.12,2.12,0,0,0,.82-.94,26.8,26.8,0,0,0-.06-4c-.12-1.89-.31-4.16-.42-5a24.31,24.31,0,0,0-.6-3,12.18,12.18,0,0,0-1-2.32,9.94,9.94,0,0,1-.88-2.75A31.77,31.77,0,0,1,37,72.37a9.12,9.12,0,0,0-.63-2.93,12.08,12.08,0,0,1-.69-3.53v-.36a32.55,32.55,0,0,1-.24-3.44,9.49,9.49,0,0,0,0-1.51,5.18,5.18,0,0,1,.15-1.69,3,3,0,0,0,0-1.48,1.55,1.55,0,0,1,.09-1.15c.17-.25.46-.66.66-.91a1.48,1.48,0,0,0,.18-1.15A9.84,9.84,0,0,0,36.06,53,1.3,1.3,0,0,1,36,52.11Z"/><path class="cls-2" d="M36,52.11c.08-.18.25-.5.36-.69a.76.76,0,0,1,.57-.36,4.13,4.13,0,0,1,.66.06,1.1,1.1,0,0,1,.48.24c.1.1.21,0,.24-.33s.1-.88.15-1.33.23-1.49.39-2.32l.18-.12.18-.12a1.77,1.77,0,0,1,1.15-.91,2.56,2.56,0,0,1,.91.15,3.92,3.92,0,0,1,.84,1.24c.3.6.63,1.3.73,1.57a.91.91,0,0,0,.45.54,8,8,0,0,0,1.12.06l.06.18.06.18a23.64,23.64,0,0,1,2,2.26,6.41,6.41,0,0,1,.94,1.69,8.08,8.08,0,0,1,.12,1.36v.18c0,.18.91,1,1,1.15s.91.66.91,1v.3a2.52,2.52,0,0,1,0,1.45l-.24.12-.24.12a.41.41,0,0,0-.33.63,5.79,5.79,0,0,0,1,1.3,14.21,14.21,0,0,0,1.27,1.09c1.81,1.28,4.34.9,6.35,1.71a10.8,10.8,0,0,1,5.49,4.16A46.77,46.77,0,0,1,65,74.15c.43,1,1.56,2.44,1.56,3.53V78c.1,1.63.29,3.77.42,4.77v.24c0,1.81,1.56,2.72,2.3,4.17.37.72,2.4,5.17,1,5.7-2.58,1-5.37-3.71-6.16-5.52-.23-.53-.23-.17,0,.81a19.58,19.58,0,0,1,.6,8.56,21.69,21.69,0,0,1-2.18.32,4.62,4.62,0,0,1-2.18-.52c-.79-.27-1.74.15-2.54.13-.42,0-2.45-.81-1.27-1.43,2.15-1.14,1.89-3.58,1.13-5.5s-2.28-3.29-3.63-4.72a6.6,6.6,0,0,0-2.32-1.84c-2.46-.9-3.28,2.34-3.3,4.18,0,2.54,0,5.07,0,7.61v.36c-.48,1.23-1.59,1.49-2.79,1.48-.49,0-1.32-.06-1.63-.5-.57-.81.9-2.19,1.18-3,.88-2.5.63-5.63.57-8.25,0-1.31-.12-2.4-1.75-2.16-.56.08-.9,3.27-1,3.72a16.46,16.46,0,0,0,0,3.95A7.52,7.52,0,0,1,43.13,93a10.4,10.4,0,0,1-.74,2.47c-.56.79-3.37,1.17-4.07.47A2.24,2.24,0,0,1,38,95.4c-.08-.18.07-.52.33-.75a11.27,11.27,0,0,1,1.15-.84c1.44-.92.84-3.46.76-4.89-.12-1.89-.31-4.16-.42-5a24.31,24.31,0,0,0-.6-3,12.18,12.18,0,0,0-1-2.32,9.94,9.94,0,0,1-.88-2.75A31.77,31.77,0,0,1,37,72.37a9.12,9.12,0,0,0-.63-2.93,12.08,12.08,0,0,1-.69-3.53v-.36a32.55,32.55,0,0,1-.24-3.44,9.49,9.49,0,0,0,0-1.51,5.18,5.18,0,0,1,.15-1.69,3,3,0,0,0,0-1.48,1.55,1.55,0,0,1,.09-1.15c.17-.25.46-.66.66-.91a1.48,1.48,0,0,0,.18-1.15A9.84,9.84,0,0,0,36.06,53,1.3,1.3,0,0,1,36,52.11Z"/><path class="cls-1" d="M58.52,83.93c-.13-.08-.24.35-.24,1a4.16,4.16,0,0,0,.42,1.81c.23.38.59,1,.79,1.42a11.45,11.45,0,0,1,.66,2.11c.17.76.46,2.18.66,3.14v.36c0,.36-.3,1.21-.3,1.63v.42a7.78,7.78,0,0,0,1.21-.91v-.36a13.62,13.62,0,0,0,.66-4.35v-.36a18.18,18.18,0,0,0-1.36-3,12.16,12.16,0,0,0-1.54-2.05A10.2,10.2,0,0,0,58.52,83.93Z"/><path class="cls-2" d="M58.5,84l-.11,0c-.54,1.48.46,2.91,1.09,4.18a13.87,13.87,0,0,1,1.33,5.62c0,.36-.3,1.21-.3,1.63v.42c.13-.67,1.36-1.28,1.66-2,.92-2.29.05-4.93-1.15-6.94a12.2,12.2,0,0,0-1.54-2.05A3.35,3.35,0,0,0,58.5,84Z"/><path d="M34.86,52.08c-.08-.18-.25-.5-.36-.69a.76.76,0,0,0-.57-.36,4.13,4.13,0,0,0-.67.06,1.11,1.11,0,0,0-.48.24c-.1.1-.21,0-.24-.33s-.1-.88-.15-1.33-.23-1.49-.39-2.33l-.18-.12-.18-.12a1.77,1.77,0,0,0-1.15-.91,2.54,2.54,0,0,0-.91.15,3.94,3.94,0,0,0-.84,1.24c-.3.6-.62,1.3-.73,1.57a.9.9,0,0,1-.45.54,8,8,0,0,1-1.12.06l-.06.18-.06.18a23.58,23.58,0,0,0-2,2.26,6.47,6.47,0,0,0-.94,1.69,8.08,8.08,0,0,0-.12,1.36v.18c0,.18-.91,1-1,1.15s-.91.66-.91,1V58a2.51,2.51,0,0,0,0,1.45l.24.12.24.12a.41.41,0,0,1,.33.63,5.74,5.74,0,0,1-1,1.3,14.07,14.07,0,0,1-1.27,1.09,6.55,6.55,0,0,1-1.57.66,15.73,15.73,0,0,1-3,.36l-.48.18-.48.18a18.06,18.06,0,0,0-3.29,1.54,12.67,12.67,0,0,0-2.29,1.87A10.49,10.49,0,0,0,7.42,70L5.85,73.85l-.06.24c-.06.24-1.57,3.2-1.57,3.56V78c-.1,1.63-.29,3.77-.42,4.77V83a5.19,5.19,0,0,1-.66,2A11.29,11.29,0,0,0,1.5,87.19l-.12.36A16.59,16.59,0,0,0,.17,91.14c-.13.85,0,1.63.3,1.75a3.3,3.3,0,0,0,1.84-.39,9.25,9.25,0,0,0,2.63-2.29L5.06,90l.12-.18a19.87,19.87,0,0,0,1.45-2.48c.23-.53.23-.16,0,.81l-.69,2.9a9.64,9.64,0,0,0-.27,1.78c0,.37-.05,1.21-.12,1.87l.06.18.06.18c.13.56.29,1.3.36,1.63l.3.06c.3.06,1.93.24,2.35.24h.42a3.32,3.32,0,0,0,1.36-.6.19.19,0,0,1,.3-.09,3.26,3.26,0,0,0,1.18.15l.36.06a5.27,5.27,0,0,0,1.69,0l.18-.12c.3-.5.31-1,0-1.18s-.73-.42-1-.6a1.72,1.72,0,0,1-.54-1.15A23.57,23.57,0,0,1,12.73,91l.18-.36.18-.36c.33-1,.85-2.33,1.15-3l.3-.3.3-.3c.93-.73,2-1.6,2.36-1.93a2.35,2.35,0,0,0,.72-1.21c0-.33.79-.55,1.69-.48H20a1.59,1.59,0,0,1,1.51.94,19.31,19.31,0,0,0,.85,2.5v8.81c.3.76,1,1.4,1.45,1.42s1.33,0,1.84,0a1.63,1.63,0,0,0,1.21-.48.91.91,0,0,0-.09-.94c-.2-.27-.48-.67-.63-.91a8.61,8.61,0,0,1-.54-1.06,28.74,28.74,0,0,1-.51-4.5v-.36a23,23,0,0,1,.36-5.43,2.17,2.17,0,0,1,1.33-.18v.36a27.79,27.79,0,0,1,1.27,5v.18c0,.18-.3,3.08-.3,3.32V92a5,5,0,0,0,.42,1.78A2,2,0,0,1,28.24,95l.12.24.12.24a3.78,3.78,0,0,0,1.45.57l1.48,0a2.14,2.14,0,0,0,1.09-.21,2.22,2.22,0,0,0,.36-.54c.08-.18-.07-.52-.33-.75a11.31,11.31,0,0,0-1.15-.85,2.12,2.12,0,0,1-.82-.94,26.8,26.8,0,0,1,.06-4c.12-1.89.31-4.16.42-5a24.68,24.68,0,0,1,.6-3,12.19,12.19,0,0,1,1-2.32,10,10,0,0,0,.88-2.75,31.72,31.72,0,0,0,.36-3.47,9.16,9.16,0,0,1,.63-2.93,12,12,0,0,0,.69-3.53v-.36a32.76,32.76,0,0,0,.24-3.44,9.48,9.48,0,0,1,0-1.51,5.15,5.15,0,0,0-.15-1.69,3,3,0,0,1,0-1.48,1.56,1.56,0,0,0-.09-1.15c-.17-.25-.46-.66-.66-.91a1.47,1.47,0,0,1-.18-1.15A9.83,9.83,0,0,1,34.76,53,1.3,1.3,0,0,0,34.86,52.08Z"/><path class="cls-2" d="M34.86,52.08c-.08-.18-.25-.5-.36-.69a.76.76,0,0,0-.57-.36,4.13,4.13,0,0,0-.67.06,1.11,1.11,0,0,0-.48.24c-.1.1-.21,0-.24-.33s-.1-.88-.15-1.33-.23-1.49-.39-2.33l-.18-.12-.18-.12a1.77,1.77,0,0,0-1.15-.91,2.54,2.54,0,0,0-.91.15,3.94,3.94,0,0,0-.84,1.24c-.3.6-.62,1.3-.73,1.57a.9.9,0,0,1-.45.54,8,8,0,0,1-1.12.06l-.06.18-.06.18a23.58,23.58,0,0,0-2,2.26,6.47,6.47,0,0,0-.94,1.69,8.08,8.08,0,0,0-.12,1.36v.18c0,.18-.91,1-1,1.15s-.91.66-.91,1V58a2.51,2.51,0,0,0,0,1.45l.24.12.24.12a.41.41,0,0,1,.33.63,5.74,5.74,0,0,1-1,1.3,14.24,14.24,0,0,1-1.27,1.09c-1.81,1.27-4.34.89-6.36,1.7A10.81,10.81,0,0,0,8.1,68.61a47.19,47.19,0,0,0-2.32,5.51c-.43,1-1.56,2.44-1.56,3.53V78c-.1,1.63-.29,3.77-.42,4.77V83c0,1.81-1.56,2.72-2.29,4.17-.37.72-2.4,5.17-1,5.7,2.58,1,5.37-3.71,6.16-5.52.23-.53.23-.16,0,.81A19.58,19.58,0,0,0,6,96.74a21.35,21.35,0,0,0,2.18.32,4.62,4.62,0,0,0,2.18-.52c.79-.27,1.74.15,2.54.13.42,0,2.45-.81,1.27-1.43-2.15-1.14-1.89-3.58-1.13-5.5s2.28-3.29,3.63-4.72A6.61,6.61,0,0,1,19,83.19c2.46-.9,3.28,2.34,3.3,4.18,0,2.54,0,5.07,0,7.61v.36c.48,1.23,1.59,1.49,2.79,1.48.49,0,1.32-.06,1.63-.5.57-.81-.9-2.19-1.18-3-.88-2.5-.63-5.63-.57-8.25,0-1.31.12-2.4,1.75-2.16.56.08.9,3.27,1,3.72a16.46,16.46,0,0,1,0,3.95A7.49,7.49,0,0,0,27.69,93a10.39,10.39,0,0,0,.74,2.47c.56.79,3.37,1.17,4.06.47a2.22,2.22,0,0,0,.36-.54c.08-.18-.07-.52-.33-.75a11.31,11.31,0,0,0-1.15-.85c-1.44-.92-.84-3.46-.75-4.89.12-1.89.31-4.16.42-5a24.68,24.68,0,0,1,.6-3,12.19,12.19,0,0,1,1-2.32,10,10,0,0,0,.88-2.75,31.72,31.72,0,0,0,.36-3.47,9.16,9.16,0,0,1,.63-2.93,12,12,0,0,0,.69-3.53v-.36a32.76,32.76,0,0,0,.24-3.44,9.48,9.48,0,0,1,0-1.51,5.15,5.15,0,0,0-.15-1.69,3,3,0,0,1,0-1.48,1.56,1.56,0,0,0-.09-1.15c-.17-.25-.46-.66-.66-.91a1.47,1.47,0,0,1-.18-1.15A9.83,9.83,0,0,1,34.76,53,1.3,1.3,0,0,0,34.86,52.08Z"/><path class="cls-1" d="M12.31,83.9c.13-.08.24.35.24,1a4.16,4.16,0,0,1-.42,1.81c-.23.38-.59,1-.79,1.42a11.5,11.5,0,0,0-.66,2.11c-.16.76-.46,2.18-.66,3.14v.36c0,.36.3,1.21.3,1.63v.42a7.64,7.64,0,0,1-1.21-.9v-.36a13.6,13.6,0,0,1-.66-4.35v-.36a18.23,18.23,0,0,1,1.36-3,12.06,12.06,0,0,1,1.54-2.05A10.44,10.44,0,0,1,12.31,83.9Z"/><path class="cls-2" d="M12.32,83.95l.11,0c.54,1.48-.46,2.91-1.09,4.18A13.87,13.87,0,0,0,10,93.71c0,.36.3,1.21.3,1.63s0,.42,0,.42c-.13-.67-1.36-1.28-1.66-2C7.73,91.45,8.6,88.8,9.8,86.8a12.07,12.07,0,0,1,1.54-2.05A3.35,3.35,0,0,1,12.32,83.95Z"/><ellipse cx="35.75" cy="43.42" rx="16.84" ry="3.27"/></g></g></svg>