<svg xmlns="http://www.w3.org/2000/svg" xmlns:xlink="http://www.w3.org/1999/xlink" viewBox="0 0 134.77 134.74"><defs><style>.cls-1{fill:url(#linear-gradient);}.cls-2{fill:#fff;}.cls-3{fill:#fcee21;}.cls-4{fill:url(#linear-gradient-2);}</style><linearGradient id="linear-gradient" x1="-53.51" y1="49.93" x2="-73.62" y2="-58.38" gradientTransform="translate(3.61 90.89) rotate(145.52)" gradientUnits="userSpaceOnUse"><stop offset="0" stop-color="#8cc63f"/><stop offset="0.7" stop-color="#8cc63f"/><stop offset="1" stop-color="#6ea32e"/></linearGradient><linearGradient id="linear-gradient-2" x1="2222.44" y1="-2296.85" x2="2222.44" y2="-2312.57" gradientTransform="translate(148.43 3291.51) rotate(-45)" gradientUnits="userSpaceOnUse"><stop offset="0" stop-color="#cc7b19"/><stop offset="0.25" stop-color="#fbb03b"/><stop offset="0.55" stop-color="#fcc731"/><stop offset="0.82" stop-color="#fbb03b"/><stop offset="1" stop-color="#fbb03b"/></linearGradient></defs><title>Ресурс 34elements</title><g id="Слой_2" data-name="Слой 2"><g id="Layer_1" data-name="Layer 1"><polygon class="cls-1" points="10.53 67.28 0 74.86 11.93 79.94 3.35 89.66 16.11 91.96 9.91 103.35 22.87 102.76 19.36 115.24 31.86 111.78 31.21 124.73 42.62 118.57 44.88 131.34 54.64 122.79 59.67 134.74 67.28 124.24 124.24 67.49 134.77 59.92 122.84 54.83 131.42 45.11 118.66 42.81 124.86 31.42 111.9 32.02 115.41 19.53 102.92 23 103.56 10.04 92.14 16.2 89.89 3.43 80.14 11.98 75.1 0.03 67.49 10.53 59.91 0 54.83 11.93 45.11 3.35 42.81 16.11 31.42 9.91 32.02 22.87 19.53 19.36 23 31.86 10.04 31.21 16.2 42.63 3.43 44.88 11.98 54.64 0.03 59.67 10.53 67.28"/><path class="cls-2" d="M51.27,47H41.57L41,50.81a11,11,0,0,1,1.62-.08,11.43,11.43,0,0,1,6.58,1.81,7.12,7.12,0,0,1,3,6.27c0,4.65-4,8.77-10.73,8.77a15.89,15.89,0,0,1-7-1.42l1-4.38A14.36,14.36,0,0,0,41.27,63c2.42,0,5-1.15,5-3.81s-2-4.15-7-4.15a21.66,21.66,0,0,0-3.38.23L37.5,42.15H51.27Z"/><path class="cls-2" d="M74.39,54.54c0,7.73-3.12,13-9.5,13s-9.31-5.81-9.35-12.89c0-7.23,3.08-13,9.54-13C71.77,41.73,74.39,47.69,74.39,54.54Zm-13,.15c0,5.73,1.35,8.46,3.62,8.46s3.5-2.85,3.5-8.54c0-5.54-1.19-8.46-3.54-8.46C62.85,46.15,61.39,48.88,61.43,54.69Z"/><path class="cls-2" d="M90.44,49.15c0,5.23-3.31,8-6.92,8-3.81,0-6.81-2.85-6.81-7.54,0-4.46,2.73-7.85,7-7.85S90.44,44.88,90.44,49.15Zm-9.39.27c0,2.61.88,4.5,2.58,4.5s2.46-1.69,2.46-4.5c0-2.54-.69-4.5-2.5-4.5S81.05,46.92,81.05,49.42Zm2.77,18.15L98.17,41.73h3.15L86.94,67.58Zm24.62-8c0,5.23-3.31,8-6.92,8-3.77,0-6.77-2.85-6.81-7.54,0-4.46,2.73-7.85,7-7.85S108.44,55.27,108.44,59.54Zm-9.35.27c0,2.62.85,4.5,2.54,4.5s2.46-1.69,2.46-4.5c0-2.54-.65-4.5-2.46-4.5S99.09,57.31,99.09,59.81Z"/><path class="cls-3" d="M53.72,78.16C53.72,84.88,49.65,89,43.66,89S34,84.36,34,78.53c0-6.14,3.92-10.73,10-10.73C50.29,67.79,53.72,72.51,53.72,78.16Zm-14.8.27c0,4,1.88,6.84,5,6.84s4.93-3,4.93-7c0-3.68-1.76-6.84-5-6.84S38.92,74.45,38.92,78.43Z"/><path class="cls-3" d="M56.76,68.13H69.29v3.8H61.41v4.68h7.36v3.77H61.41v8.24H56.76Z"/><path class="cls-3" d="M72.79,68.13H85.31v3.8H77.44v4.68h7.36v3.77H77.44v8.24H72.79Z"/><path class="cls-4" d="M67.28,124.24l57-56.76s-23,.79-39.49,17.26S67.28,124.24,67.28,124.24Z"/></g></g></svg>