<svg xmlns="http://www.w3.org/2000/svg" xmlns:xlink="http://www.w3.org/1999/xlink" viewBox="0 0 217.83 80.49"><defs><style>.cls-1{fill:#fff;}.cls-2{fill:#fdfdfd;}.cls-3{fill:#fbfbfb;}.cls-4{fill:#f9f9f9;}.cls-5{fill:#f7f7f7;}.cls-6{fill:#f5f5f5;}.cls-7{fill:#f3f3f3;}.cls-8{fill:#f1f1f1;}.cls-9{fill:#efefef;}.cls-10{fill:#ededed;}.cls-11{fill:#ebebeb;}.cls-12{fill:#e9e9e9;}.cls-13{fill:#e7e7e7;}.cls-14{fill:#e5e5e5;}.cls-15{fill:#e3e3e3;}.cls-16{fill:#e1e1e1;}.cls-17{fill:#dfdfdf;}.cls-18{fill:#ddd;}.cls-19{fill:#dbdbdb;}.cls-20{fill:#d9d9d9;}.cls-21{fill:#d7d7d7;}.cls-22{fill:#d5d5d5;}.cls-23{fill:#d3d3d3;}.cls-24{fill:#d1d1d1;}.cls-25{fill:#cfcfcf;}.cls-26{fill:#cdcdcd;}.cls-27{fill:#cbcbcb;}.cls-28{fill:#c9c9c9;}.cls-29{fill:#c7c7c7;}.cls-30{fill:#c5c5c5;}.cls-31{fill:#c3c3c3;}.cls-32{fill:#c1c1c1;}.cls-33{fill:#bfbfbf;}.cls-34{fill:#bdbdbd;}.cls-35{fill:#bbb;}.cls-36{fill:#b9b9b9;}.cls-37{fill:#b7b7b7;}.cls-38{fill:#b5b5b5;}.cls-39{fill:#b3b3b3;}.cls-40{fill:#b1b1b1;}.cls-41{fill:#afafaf;}.cls-42{fill:#adadad;}.cls-43{fill:#ababab;}.cls-44{fill:#a9a9a9;}.cls-45{fill:#a7a7a7;}.cls-46{fill:#a5a5a5;}.cls-47{fill:#a3a3a3;}.cls-48{fill:#a1a1a1;}.cls-49{fill:#9f9f9f;}.cls-50{fill:#9d9d9d;}.cls-51{fill:#9b9b9b;}.cls-52{fill:#999;}.cls-53{fill:url(#linear-gradient);}.cls-54{fill:#87171c;}.cls-55{fill:url(#linear-gradient-2);}</style><linearGradient id="linear-gradient" x1="699.24" y1="-172.58" x2="699.24" y2="-364.48" gradientTransform="translate(383.96 738.48) rotate(-90)" gradientUnits="userSpaceOnUse"><stop offset="0" stop-color="#d42027"/><stop offset="0.02" stop-color="#d42229"/><stop offset="0.28" stop-color="#d9373c"/><stop offset="0.45" stop-color="#da3e43"/><stop offset="0.86" stop-color="#d42128"/><stop offset="1" stop-color="#8a2028"/></linearGradient><linearGradient id="linear-gradient-2" x1="702.94" y1="-354.25" x2="702.94" y2="-383.96" gradientTransform="translate(383.96 738.48) rotate(-90)" gradientUnits="userSpaceOnUse"><stop offset="0" stop-color="#8a2027"/><stop offset="0" stop-color="#8b2027"/><stop offset="0.05" stop-color="#d42027"/><stop offset="0.13" stop-color="#dc494e"/><stop offset="0.28" stop-color="#d42027"/><stop offset="0.7" stop-color="#d42027"/><stop offset="0.86" stop-color="#da3e43"/><stop offset="0.93" stop-color="#d42128"/><stop offset="1" stop-color="#8a2028"/></linearGradient></defs><title>Ресурс 22elements</title><g id="Слой_2" data-name="Слой 2"><g id="Layer_1" data-name="Layer 1"><path class="cls-1" d="M8.67,80.49h207a2.12,2.12,0,0,0,1.91-3.05L203.8,47.68a2.12,2.12,0,0,1,0-1.87l13.81-28.23a2.12,2.12,0,0,0-1.91-3.05H8.67Z"/><path class="cls-2" d="M8.67,80.33H215.46a2.12,2.12,0,0,0,1.91-3.05L203.55,47.55a2.12,2.12,0,0,1,0-1.87l13.82-28.17a2.12,2.12,0,0,0-1.91-3.05H8.67Z"/><path class="cls-3" d="M8.67,80.17H215.2a2.12,2.12,0,0,0,1.91-3.05l-13.81-29.7a2.12,2.12,0,0,1,0-1.87l13.81-28.12a2.12,2.12,0,0,0-1.91-3.05H8.67Z"/><path class="cls-4" d="M8.67,80H214.95A2.12,2.12,0,0,0,216.86,77L203,47.29a2.13,2.13,0,0,1,0-1.87l13.82-28.06a2.12,2.12,0,0,0-1.91-3.05H8.67Z"/><path class="cls-5" d="M8.67,79.85h206a2.12,2.12,0,0,0,1.91-3.05L202.79,47.15a2.13,2.13,0,0,1,0-1.87l13.81-28a2.12,2.12,0,0,0-1.91-3.05H8.67Z"/><path class="cls-6" d="M8.67,79.69H214.44a2.12,2.12,0,0,0,1.91-3.05L202.53,47a2.12,2.12,0,0,1,0-1.87l13.81-28a2.12,2.12,0,0,0-1.91-3.05H8.67Z"/><path class="cls-7" d="M8.67,79.53H214.19a2.12,2.12,0,0,0,1.91-3.05L202.28,46.89a2.12,2.12,0,0,1,0-1.87l13.82-27.9a2.12,2.12,0,0,0-1.91-3.05H8.67Z"/><path class="cls-8" d="M8.67,79.36H213.94a2.12,2.12,0,0,0,1.91-3.05L202,46.76a2.12,2.12,0,0,1,0-1.87l13.81-27.84A2.12,2.12,0,0,0,213.94,14H8.67Z"/><path class="cls-9" d="M8.67,79.2h205a2.12,2.12,0,0,0,1.91-3.05L201.77,46.63a2.12,2.12,0,0,1,0-1.87L215.59,17a2.12,2.12,0,0,0-1.91-3.05H8.67Z"/><path class="cls-10" d="M8.67,79H213.43A2.12,2.12,0,0,0,215.33,76L201.52,46.5a2.12,2.12,0,0,1,0-1.87l13.81-27.73a2.12,2.12,0,0,0-1.91-3.05H8.67Z"/><path class="cls-11" d="M8.67,78.88h204.5a2.12,2.12,0,0,0,1.91-3.05L201.26,46.37a2.12,2.12,0,0,1,0-1.87l13.81-27.67a2.12,2.12,0,0,0-1.91-3.05H8.67Z"/><path class="cls-12" d="M8.67,78.72H212.92a2.12,2.12,0,0,0,1.91-3.05L201,46.24a2.12,2.12,0,0,1,0-1.87l13.82-27.62a2.12,2.12,0,0,0-1.91-3.05H8.67Z"/><path class="cls-13" d="M8.67,78.56h204a2.12,2.12,0,0,0,1.91-3.05l-13.81-29.4a2.12,2.12,0,0,1,0-1.87l13.81-27.56a2.12,2.12,0,0,0-1.91-3.05H8.67Z"/><path class="cls-14" d="M8.67,78.4H212.41a2.12,2.12,0,0,0,1.91-3.05L200.5,46a2.12,2.12,0,0,1,0-1.87L214.32,16.6a2.12,2.12,0,0,0-1.91-3.05H8.67Z"/><path class="cls-15" d="M8.67,78.24H212.16a2.12,2.12,0,0,0,1.91-3.05L200.25,45.84a2.12,2.12,0,0,1,0-1.87l13.82-27.45a2.12,2.12,0,0,0-1.91-3.05H8.67Z"/><path class="cls-16" d="M8.67,78.08H211.91A2.12,2.12,0,0,0,213.81,75L200,45.71a2.12,2.12,0,0,1,0-1.87l13.82-27.39a2.12,2.12,0,0,0-1.91-3.05H8.67Z"/><path class="cls-17" d="M8.67,77.92h203a2.12,2.12,0,0,0,1.91-3.05L199.74,45.58a2.12,2.12,0,0,1,0-1.87l13.81-27.34a2.12,2.12,0,0,0-1.91-3.05H8.67Z"/><path class="cls-18" d="M8.67,77.75H211.4a2.12,2.12,0,0,0,1.91-3.05L199.49,45.45a2.12,2.12,0,0,1,0-1.87L213.3,16.3a2.12,2.12,0,0,0-1.91-3.05H8.67Z"/><path class="cls-19" d="M8.67,77.59H211.14a2.12,2.12,0,0,0,1.91-3.05L199.23,45.32a2.12,2.12,0,0,1,0-1.87l13.82-27.23a2.12,2.12,0,0,0-1.91-3.05H8.67Z"/><path class="cls-20" d="M8.67,77.43H210.89a2.12,2.12,0,0,0,1.91-3.05L199,45.19a2.12,2.12,0,0,1,0-1.87L212.8,16.15a2.12,2.12,0,0,0-1.91-3.05H8.67Z"/><path class="cls-21" d="M8.67,77.27h202a2.12,2.12,0,0,0,1.91-3.05L198.73,45.06a2.12,2.12,0,0,1,0-1.87l13.82-27.12A2.12,2.12,0,0,0,210.64,13H8.67Z"/><path class="cls-22" d="M8.67,77.11H210.38a2.12,2.12,0,0,0,1.91-3.05L198.47,44.93a2.12,2.12,0,0,1,0-1.87L212.29,16a2.12,2.12,0,0,0-1.91-3.05H8.67Z"/><path class="cls-23" d="M8.67,77H210.13A2.12,2.12,0,0,0,212,73.9l-13.82-29.1a2.12,2.12,0,0,1,0-1.87l13.82-27a2.12,2.12,0,0,0-1.91-3.05H8.67Z"/><path class="cls-24" d="M8.67,76.79H209.88a2.12,2.12,0,0,0,1.91-3.06L198,44.66a2.12,2.12,0,0,1,0-1.87l13.82-26.95a2.12,2.12,0,0,0-1.91-3.05H8.67Z"/><path class="cls-25" d="M8.67,76.63h201a2.12,2.12,0,0,0,1.91-3.05l-13.82-29a2.12,2.12,0,0,1,0-1.87l13.82-26.89a2.12,2.12,0,0,0-1.91-3.05H8.67Z"/><path class="cls-26" d="M8.67,76.47h200.7a2.12,2.12,0,0,0,1.91-3.05l-13.81-29a2.13,2.13,0,0,1,0-1.87L211.27,15.7a2.12,2.12,0,0,0-1.91-3.05H8.67Z"/><path class="cls-27" d="M8.67,76.31H209.11A2.12,2.12,0,0,0,211,73.25l-13.82-29a2.12,2.12,0,0,1,0-1.87L211,15.62a2.12,2.12,0,0,0-1.91-3.05H8.67Z"/><path class="cls-28" d="M8.67,76.15H208.86a2.12,2.12,0,0,0,1.91-3.05L197,44.14a2.12,2.12,0,0,1,0-1.87l13.82-26.73a2.12,2.12,0,0,0-1.91-3.05H8.67Z"/><path class="cls-29" d="M8.67,76H208.61a2.12,2.12,0,0,0,1.91-3.05L196.7,44a2.12,2.12,0,0,1,0-1.87l13.82-26.67a2.12,2.12,0,0,0-1.91-3.05H8.67Z"/><path class="cls-30" d="M8.67,75.82H208.35a2.12,2.12,0,0,0,1.91-3.06L196.44,43.88a2.12,2.12,0,0,1,0-1.87L210.26,15.4a2.12,2.12,0,0,0-1.91-3.05H8.67Z"/><path class="cls-31" d="M8.67,75.66H208.1A2.12,2.12,0,0,0,210,72.61L196.19,43.75a2.12,2.12,0,0,1,0-1.87L210,15.32a2.12,2.12,0,0,0-1.91-3.05H8.67Z"/><path class="cls-32" d="M8.67,75.5H207.85a2.12,2.12,0,0,0,1.91-3.05L195.94,43.62a2.13,2.13,0,0,1,0-1.87l13.82-26.5a2.12,2.12,0,0,0-1.91-3.05H8.67Z"/><path class="cls-33" d="M8.67,75.34H207.59a2.12,2.12,0,0,0,1.91-3.05l-13.82-28.8a2.12,2.12,0,0,1,0-1.87L209.5,15.17a2.12,2.12,0,0,0-1.91-3.05H8.67Z"/><path class="cls-34" d="M8.67,75.18H207.34a2.12,2.12,0,0,0,1.91-3.05L195.43,43.35a2.12,2.12,0,0,1,0-1.87L209.24,15.1A2.12,2.12,0,0,0,207.34,12H8.67Z"/><path class="cls-35" d="M8.67,75H207.09A2.12,2.12,0,0,0,209,72L195.18,43.22a2.12,2.12,0,0,1,0-1.87L209,15A2.12,2.12,0,0,0,207.09,12H8.67Z"/><path class="cls-36" d="M8.67,74.86H206.83a2.12,2.12,0,0,0,1.91-3.05L194.92,43.09a2.11,2.11,0,0,1,0-1.87l13.82-26.28a2.12,2.12,0,0,0-1.91-3.05H8.67Z"/><path class="cls-37" d="M8.67,74.7H206.58a2.12,2.12,0,0,0,1.91-3.06L194.67,43a2.12,2.12,0,0,1,0-1.87l13.82-26.22a2.12,2.12,0,0,0-1.91-3.05H8.67Z"/><path class="cls-38" d="M8.67,74.54H206.32a2.12,2.12,0,0,0,1.91-3.06L194.41,42.83a2.12,2.12,0,0,1,0-1.87L208.23,14.8a2.12,2.12,0,0,0-1.91-3.05H8.67Z"/><path class="cls-39" d="M8.67,74.37h197.4A2.12,2.12,0,0,0,208,71.32L194.16,42.7a2.13,2.13,0,0,1,0-1.87L208,14.72a2.12,2.12,0,0,0-1.91-3.05H8.67Z"/><path class="cls-40" d="M8.67,74.21H205.82a2.12,2.12,0,0,0,1.91-3.06L193.91,42.57a2.13,2.13,0,0,1,0-1.87l13.82-26.06a2.12,2.12,0,0,0-1.91-3.05H8.67Z"/><path class="cls-41" d="M8.67,74.05H205.56A2.12,2.12,0,0,0,207.47,71L193.65,42.44a2.12,2.12,0,0,1,0-1.87l13.82-26a2.12,2.12,0,0,0-1.91-3.05H8.67Z"/><path class="cls-42" d="M8.67,73.89H205.31a2.12,2.12,0,0,0,1.91-3.05L193.4,42.3a2.12,2.12,0,0,1,0-1.87L207.22,14.5a2.12,2.12,0,0,0-1.91-3.05H8.67Z"/><path class="cls-43" d="M8.67,73.73H205.06A2.12,2.12,0,0,0,207,70.67l-13.82-28.5a2.12,2.12,0,0,1,0-1.87L207,14.42a2.12,2.12,0,0,0-1.91-3.05H8.67Z"/><path class="cls-44" d="M8.67,73.57H204.8a2.12,2.12,0,0,0,1.91-3.06L192.89,42a2.12,2.12,0,0,1,0-1.86l13.82-25.83a2.12,2.12,0,0,0-1.91-3.05H8.67Z"/><path class="cls-45" d="M8.67,73.41H204.55a2.12,2.12,0,0,0,1.91-3.06L192.64,41.91a2.13,2.13,0,0,1,0-1.87l13.82-25.78a2.12,2.12,0,0,0-1.91-3.05H8.67Z"/><path class="cls-46" d="M8.67,73.25H204.29a2.12,2.12,0,0,0,1.91-3.05L192.39,41.78a2.12,2.12,0,0,1,0-1.87L206.2,14.19a2.12,2.12,0,0,0-1.91-3.05H8.67Z"/><path class="cls-47" d="M8.67,73.09H204A2.12,2.12,0,0,0,205.95,70L192.13,41.65a2.12,2.12,0,0,1,0-1.87l13.82-25.67A2.12,2.12,0,0,0,204,11.06H8.67Z"/><path class="cls-48" d="M8.67,72.93H203.79a2.12,2.12,0,0,0,1.91-3.06L191.88,41.52a2.12,2.12,0,0,1,0-1.87L205.69,14A2.12,2.12,0,0,0,203.79,11H8.67Z"/><path class="cls-49" d="M8.67,72.76H203.53a2.12,2.12,0,0,0,1.91-3.06L191.62,41.39a2.12,2.12,0,0,1,0-1.87L205.44,14a2.12,2.12,0,0,0-1.91-3.05H8.67Z"/><path class="cls-50" d="M8.67,72.6H203.28a2.12,2.12,0,0,0,1.91-3.06L191.37,41.26a2.13,2.13,0,0,1,0-1.87l13.82-25.5a2.12,2.12,0,0,0-1.91-3.05H8.67Z"/><path class="cls-51" d="M8.67,72.44H203a2.12,2.12,0,0,0,1.91-3.06L191.12,41.13a2.12,2.12,0,0,1,0-1.87l13.82-25.44A2.12,2.12,0,0,0,203,10.76H8.67Z"/><path class="cls-52" d="M8.67,72.28h194.1a2.12,2.12,0,0,0,1.91-3.06L190.86,41a2.12,2.12,0,0,1,0-1.87l13.82-25.39a2.12,2.12,0,0,0-1.91-3.05H8.67Z"/><path class="cls-53" d="M19.47,68.8c0,4.05,8.45,4.66,18.26,4.66H209.25a2.12,2.12,0,0,0,1.94-3L199.43,44a5.89,5.89,0,0,1,0-4.77l11.77-26.53a2.12,2.12,0,0,0-1.94-3H37.73C27.31,9.5,19.47,9.05,19.47,5Z"/><path class="cls-54" d="M0,71.07c0,7.16,8.67,7.5,8.67,7.5V53.47H0Z"/><path class="cls-54" d="M29.7,62.81c0,3.89-10.23,2.67-10.23,6V58.64H29.7Z"/><path class="cls-55" d="M0,10.48v60.6c0-12.66,29.7-11.66,29.7-8.27V2.21C29.7-1.18,0-2.18,0,10.48Z"/></g></g></svg>