<svg xmlns="http://www.w3.org/2000/svg" xmlns:xlink="http://www.w3.org/1999/xlink" viewBox="0 0 368.93 134.74"><defs><style>.cls-1{fill:#fbb03b;}.cls-2{fill:#fbb13b;}.cls-3{fill:#fbb23b;}.cls-4{fill:#fbb23c;}.cls-5{fill:#fcb33c;}.cls-6{fill:#fcb43c;}.cls-7{fill:#fcb53c;}.cls-8{fill:#fcb53d;}.cls-9{fill:#fcb63d;}.cls-10{fill:#fcb73d;}.cls-11{fill:#fcb83d;}.cls-12{fill:#fdb83d;}.cls-13{fill:#fdb93d;}.cls-14{fill:#fdb93e;}.cls-15{fill:#fdba3e;}.cls-16{fill:#fdbb3e;}.cls-17{fill:#fdbc3e;}.cls-18{fill:#fdbc3f;}.cls-19{fill:#fdbd3f;}.cls-20{fill:#febd3f;}.cls-21{fill:#febe3f;}.cls-22{fill:#febf3f;}.cls-23{fill:#fec03f;}.cls-24{fill:#fec040;}.cls-25{fill:#fec140;}.cls-26{fill:#fec240;}.cls-27{fill:#ffc340;}.cls-28{fill:#ffc341;}.cls-29{fill:#ffc441;}.cls-30{fill:#ffc541;}.cls-31{fill:#fff;}.cls-32{fill:url(#linear-gradient);}.cls-33{fill:url(#linear-gradient-2);}.cls-34{fill:url(#linear-gradient-3);}.cls-35{fill:#ba272d;}.cls-36{fill:url(#linear-gradient-4);}</style><linearGradient id="linear-gradient" x1="36.96" y1="70.94" x2="149" y2="70.94" gradientUnits="userSpaceOnUse"><stop offset="0" stop-color="#d42027"/><stop offset="0.45" stop-color="#e55e30"/><stop offset="1" stop-color="#fbb03b"/></linearGradient><linearGradient id="linear-gradient-2" x1="297.28" y1="495.71" x2="277.17" y2="387.4" gradientTransform="translate(-410.35 -125.02) rotate(-34.48)" gradientUnits="userSpaceOnUse"><stop offset="0" stop-color="#d42027"/><stop offset="0.1" stop-color="#d73036"/><stop offset="0.22" stop-color="#d93b40"/><stop offset="0.35" stop-color="#da3e43"/><stop offset="0.49" stop-color="#d9373d"/><stop offset="0.7" stop-color="#d5242b"/><stop offset="0.73" stop-color="#d42128"/><stop offset="1" stop-color="#831d25"/></linearGradient><linearGradient id="linear-gradient-3" x1="-74.31" y1="1185.56" x2="-137.69" y2="1122.18" gradientTransform="translate(-31.3 1228.54) rotate(180)" gradientUnits="userSpaceOnUse"><stop offset="0" stop-color="#c2c2c2"/><stop offset="0.24" stop-color="#e6e6e6"/><stop offset="0.48" stop-color="#f8f8f8"/><stop offset="0.65" stop-color="#fff"/><stop offset="0.84" stop-color="#fcfcfc"/><stop offset="1" stop-color="#f2f2f2"/></linearGradient><linearGradient id="linear-gradient-4" x1="2430.64" y1="-1988.6" x2="2430.64" y2="-2004.32" gradientTransform="translate(351.52 -3086.01) rotate(135)" gradientUnits="userSpaceOnUse"><stop offset="0" stop-color="#cc7b19"/><stop offset="0.25" stop-color="#fbb03b"/><stop offset="0.55" stop-color="#fcc731"/><stop offset="0.82" stop-color="#fbb03b"/><stop offset="1" stop-color="#fbb03b"/></linearGradient></defs><title>Ресурс 24elements</title><g id="Слой_2" data-name="Слой 2"><g id="Layer_1" data-name="Layer 1"><path class="cls-1" d="M315.73,17.75H90.16a53.2,53.2,0,0,0,0,106.39H315.73a53.2,53.2,0,0,0,0-106.39Z"/><ellipse class="cls-1" cx="206.64" cy="70.94" rx="151.8" ry="53.2"/><ellipse class="cls-1" cx="206.64" cy="70.94" rx="149.84" ry="52.51"/><ellipse class="cls-2" cx="206.64" cy="70.94" rx="147.88" ry="51.82"/><ellipse class="cls-2" cx="206.64" cy="70.94" rx="145.92" ry="51.13"/><ellipse class="cls-3" cx="206.64" cy="70.94" rx="143.95" ry="50.44"/><ellipse class="cls-4" cx="206.64" cy="70.94" rx="141.99" ry="49.76"/><ellipse class="cls-4" cx="206.64" cy="70.94" rx="140.03" ry="49.07"/><ellipse class="cls-5" cx="206.64" cy="70.94" rx="138.07" ry="48.38"/><ellipse class="cls-5" cx="206.64" cy="70.94" rx="136.1" ry="47.69"/><ellipse class="cls-6" cx="206.64" cy="70.94" rx="134.14" ry="47.01"/><ellipse class="cls-6" cx="206.64" cy="70.94" rx="132.18" ry="46.32"/><ellipse class="cls-7" cx="206.64" cy="70.94" rx="130.21" ry="45.63"/><ellipse class="cls-7" cx="206.64" cy="70.94" rx="128.25" ry="44.94"/><ellipse class="cls-8" cx="206.64" cy="70.94" rx="126.29" ry="44.25"/><ellipse class="cls-9" cx="206.64" cy="70.94" rx="124.33" ry="43.57"/><ellipse class="cls-9" cx="206.64" cy="70.94" rx="122.36" ry="42.88"/><ellipse class="cls-10" cx="206.64" cy="70.94" rx="120.4" ry="42.19"/><ellipse class="cls-10" cx="206.64" cy="70.94" rx="118.44" ry="41.5"/><ellipse class="cls-10" cx="206.64" cy="70.94" rx="116.48" ry="40.82"/><ellipse class="cls-11" cx="206.64" cy="70.94" rx="114.51" ry="40.13"/><ellipse class="cls-12" cx="206.64" cy="70.94" rx="112.55" ry="39.44"/><ellipse class="cls-13" cx="206.64" cy="70.94" rx="110.59" ry="38.75"/><ellipse class="cls-14" cx="206.64" cy="70.94" rx="108.62" ry="38.06"/><ellipse class="cls-14" cx="206.64" cy="70.94" rx="106.66" ry="37.38"/><ellipse class="cls-15" cx="206.64" cy="70.94" rx="104.7" ry="36.69"/><ellipse class="cls-15" cx="206.64" cy="70.94" rx="102.74" ry="36"/><ellipse class="cls-16" cx="206.64" cy="70.94" rx="100.77" ry="35.31"/><ellipse class="cls-16" cx="206.64" cy="70.94" rx="98.81" ry="34.63"/><ellipse class="cls-17" cx="206.64" cy="70.94" rx="96.85" ry="33.94"/><ellipse class="cls-17" cx="206.64" cy="70.94" rx="94.89" ry="33.25"/><ellipse class="cls-18" cx="206.64" cy="70.94" rx="92.92" ry="32.56"/><ellipse class="cls-19" cx="206.64" cy="70.94" rx="90.96" ry="31.87"/><ellipse class="cls-20" cx="206.64" cy="70.94" rx="89" ry="31.19"/><ellipse class="cls-21" cx="206.64" cy="70.94" rx="87.04" ry="30.5"/><ellipse class="cls-21" cx="206.64" cy="70.94" rx="85.07" ry="29.81"/><ellipse class="cls-21" cx="206.64" cy="70.94" rx="83.11" ry="29.12"/><ellipse class="cls-22" cx="206.64" cy="70.94" rx="81.15" ry="28.44"/><ellipse class="cls-22" cx="206.64" cy="70.94" rx="79.18" ry="27.75"/><ellipse class="cls-23" cx="206.64" cy="70.94" rx="77.22" ry="27.06"/><ellipse class="cls-24" cx="206.64" cy="70.94" rx="75.26" ry="26.37"/><ellipse class="cls-24" cx="206.64" cy="70.94" rx="73.3" ry="25.68"/><ellipse class="cls-25" cx="206.64" cy="70.94" rx="71.33" ry="25"/><ellipse class="cls-25" cx="206.64" cy="70.94" rx="69.37" ry="24.31"/><ellipse class="cls-26" cx="206.64" cy="70.94" rx="67.41" ry="23.62"/><ellipse class="cls-26" cx="206.64" cy="70.94" rx="65.45" ry="22.93"/><ellipse class="cls-27" cx="206.64" cy="70.94" rx="63.48" ry="22.25"/><ellipse class="cls-27" cx="206.64" cy="70.94" rx="61.52" ry="21.56"/><ellipse class="cls-28" cx="206.64" cy="70.94" rx="59.56" ry="20.87"/><ellipse class="cls-29" cx="206.64" cy="70.94" rx="57.6" ry="20.18"/><ellipse class="cls-29" cx="206.64" cy="70.94" rx="55.63" ry="19.5"/><ellipse class="cls-30" cx="206.64" cy="70.94" rx="53.67" ry="18.81"/><ellipse class="cls-30" cx="206.64" cy="70.94" rx="51.71" ry="18.12"/><path class="cls-31" d="M150.64,57.5a50.85,50.85,0,0,1,8.26-.59c3.9,0,6.29.38,8.34,1.59a6.15,6.15,0,0,1,3.4,5.53c0,2.52-1.47,4.86-4.65,6v.08c3.23.88,5.62,3.31,5.62,7a7.53,7.53,0,0,1-2.93,6c-2.05,1.64-5.49,2.56-11.11,2.56a49.55,49.55,0,0,1-6.92-.42ZM157,68.32h2.1c3.35,0,5.16-1.38,5.16-3.48s-1.63-3.27-4.53-3.27a17.55,17.55,0,0,0-2.73.17Zm0,12.53a20.26,20.26,0,0,0,2.47.08c2.89,0,5.45-1.09,5.45-4.07s-2.56-4-5.74-4H157Z"/><path class="cls-31" d="M192.77,73.43h-10.4v6.71H194v5.24H176V57.13H193.4v5.24h-11v5.87h10.4Z"/><path class="cls-31" d="M198.56,78.8a16.3,16.3,0,0,0,7.08,1.76c2.93,0,4.48-1.22,4.48-3.06s-1.34-2.77-4.74-4c-4.69-1.63-7.75-4.23-7.75-8.34,0-4.82,4-8.51,10.69-8.51a17.32,17.32,0,0,1,7.21,1.42l-1.42,5.16a13.43,13.43,0,0,0-5.91-1.34c-2.77,0-4.11,1.26-4.11,2.73,0,1.8,1.59,2.6,5.24,4,5,1.84,7.34,4.44,7.34,8.43,0,4.74-3.65,8.76-11.4,8.76a18.5,18.5,0,0,1-8-1.72Z"/><path class="cls-31" d="M226.44,62.49h-7.59V57.13h21.71v5.37h-7.71V85.38h-6.41Z"/><path class="cls-31" d="M252.43,57.5a50.82,50.82,0,0,1,8.26-.59c3.9,0,6.29.38,8.34,1.59A6.15,6.15,0,0,1,272.42,64c0,2.52-1.47,4.86-4.65,6v.08c3.23.88,5.62,3.31,5.62,7a7.53,7.53,0,0,1-2.93,6c-2.05,1.64-5.49,2.56-11.11,2.56a49.49,49.49,0,0,1-6.92-.42Zm6.33,10.81h2.1c3.36,0,5.16-1.38,5.16-3.48s-1.64-3.27-4.53-3.27a17.55,17.55,0,0,0-2.73.17Zm0,12.53a20.27,20.27,0,0,0,2.47.08c2.89,0,5.45-1.09,5.45-4.07s-2.56-4-5.74-4h-2.18Z"/><path class="cls-31" d="M284.12,57.13V73.39c0,4.86,1.84,7.34,5.11,7.34s5.2-2.35,5.2-7.34V57.13h6.37V73c0,8.72-4.4,12.87-11.78,12.87-7.13,0-11.32-3.94-11.32-13V57.13Z"/><path class="cls-31" d="M312.88,85.38V73.81L304,57.13h7.29l2.89,6.79c.88,2.05,1.47,3.56,2.18,5.41h.08c.63-1.76,1.3-3.4,2.14-5.41l2.85-6.79h7.17L319.25,73.6V85.38Z"/><path class="cls-31" d="M330.7,82a3.75,3.75,0,1,1,3.77,3.82A3.64,3.64,0,0,1,330.7,82Zm1.38-5.91-1-19h6.66l-.92,19Z"/><path class="cls-32" d="M106.84,17.75l-.47.25,0-.25H90.16a53.15,53.15,0,0,0-16.53,2.63l-34,33.86a53.2,53.2,0,0,0,50.5,69.91h15.37l.66-3.69,6.77,3.69h4.51L117,113.7l12.48,3.51L126,104.71l13,.64-6.16-11.41,12.77-2.25L137,81.93l11.95-5-10.5-7.61L149,61.71l-11.93-5.08,8.58-9.72-12.76-2.3,6.2-11.39-13,.6,3.51-12.48-12.5,3.47.35-7Z"/><polygon class="cls-33" points="124.24 67.46 134.77 59.88 122.84 54.8 131.42 45.08 118.66 42.78 124.86 31.39 111.9 31.99 115.41 19.5 102.92 22.97 103.56 10.02 92.15 16.17 89.89 3.41 80.14 11.95 75.1 0 67.49 10.5 10.53 67.26 0 74.83 11.93 79.91 3.35 89.63 16.11 91.94 9.91 103.33 22.87 102.73 19.36 115.21 31.86 111.75 31.21 124.7 42.63 118.54 44.88 131.31 54.63 122.77 59.67 134.72 67.28 124.22 74.86 134.74 79.94 122.81 89.66 131.39 91.96 118.63 103.35 124.83 102.75 111.87 115.24 115.38 111.77 102.89 124.73 103.53 118.56 92.12 131.34 89.86 122.79 80.11 134.74 75.07 124.24 67.46"/><polygon class="cls-34" points="77.76 22.27 85.7 15.32 87.53 25.71 96.82 20.7 96.3 31.24 106.46 28.42 103.61 38.58 114.15 38.09 109.1 47.36 119.49 49.23 112.51 57.15 122.22 61.28 113.65 67.44 122.19 73.63 112.47 77.73 119.42 85.67 109.03 87.5 114.04 96.79 103.5 96.27 106.32 106.44 96.16 103.58 96.65 114.12 87.38 109.08 85.51 119.46 77.6 112.48 73.47 122.19 67.31 113.62 61.11 122.17 57.01 112.44 49.07 119.39 47.24 109 37.95 114.01 38.48 103.47 28.31 106.29 31.17 96.14 20.62 96.62 25.67 87.36 15.28 85.48 22.27 77.57 12.56 73.44 14.55 72 72.22 14.54 73.66 12.55 77.76 22.27"/><path class="cls-35" d="M41.38,82.36a20.37,20.37,0,0,0,3.75,0,14.87,14.87,0,0,0,7.28-2.28,11.51,11.51,0,0,0,4.67-6.83l-.17-.06c-1.65,1.71-4,2.67-7.4,2.67C43.25,75.88,38,71.5,38,64.33S43.76,51,51.9,51c9.5,0,14,7.28,14,15.93,0,7.68-2.45,13.31-6.49,17-3.53,3.19-8.36,5-14.11,5.18a29.63,29.63,0,0,1-3.93,0Zm5.23-18.55c0,3.19,1.71,5.92,5.23,5.92a5.45,5.45,0,0,0,4.78-2.45,4.08,4.08,0,0,0,.46-2.16c0-3.93-1.48-7.79-5.41-7.79C48.71,57.33,46.55,59.95,46.61,63.82Z"/><path class="cls-35" d="M70.68,84a5,5,0,0,1,5.12-5.29A5.27,5.27,0,1,1,70.68,84Z"/><path class="cls-35" d="M73.18,70.1a12.34,12.34,0,0,0,2.28,0,9,9,0,0,0,4.42-1.38,7,7,0,0,0,2.83-4.15l-.1,0a5.93,5.93,0,0,1-4.49,1.62,6.77,6.77,0,0,1-7-7,8.17,8.17,0,0,1,8.47-8.09c5.77,0,8.5,4.42,8.5,9.68,0,4.67-1.49,8.09-3.94,10.33a13.28,13.28,0,0,1-8.57,3.15,18.18,18.18,0,0,1-2.38,0Zm3.18-11.27c0,1.94,1,3.59,3.18,3.59a3.31,3.31,0,0,0,2.9-1.49,2.46,2.46,0,0,0,.28-1.31c0-2.38-.9-4.73-3.28-4.73C77.63,54.89,76.32,56.48,76.36,58.83Z"/><path class="cls-35" d="M92.36,70.1a12.34,12.34,0,0,0,2.28,0,9,9,0,0,0,4.42-1.38,7,7,0,0,0,2.83-4.15l-.1,0a5.93,5.93,0,0,1-4.49,1.62,6.77,6.77,0,0,1-7-7,8.17,8.17,0,0,1,8.47-8.09c5.77,0,8.5,4.42,8.5,9.68,0,4.67-1.48,8.09-3.94,10.33a13.28,13.28,0,0,1-8.57,3.15,18.18,18.18,0,0,1-2.38,0Zm3.18-11.27c0,1.94,1,3.59,3.18,3.59a3.31,3.31,0,0,0,2.9-1.49,2.47,2.47,0,0,0,.28-1.31c0-2.38-.9-4.73-3.28-4.73C96.82,54.89,95.51,56.48,95.54,58.83Z"/><path class="cls-36" d="M67.49,10.5l-57,56.76S33.55,66.47,50,50,67.49,10.5,67.49,10.5Z"/></g></g></svg>