<svg xmlns="http://www.w3.org/2000/svg" xmlns:xlink="http://www.w3.org/1999/xlink" viewBox="0 0 72.24 112.56"><defs><style>.cls-1{fill:#e6e6e6;}.cls-2{fill:url(#linear-gradient);}.cls-3{fill:#fbb03b;}.cls-4{fill:#faaf3b;}.cls-5{fill:#f9ae3a;}.cls-6{fill:#f7ad3a;}.cls-7{fill:#f6ad3a;}.cls-8{fill:#f5ac39;}.cls-9{fill:#f4ab39;}.cls-10{fill:#f2aa39;}.cls-11{fill:#f1a938;}.cls-12{fill:#f0a838;}.cls-13{fill:#efa838;}.cls-14{fill:#eda737;}.cls-15{fill:#eca637;}.cls-16{fill:#eba537;}.cls-17{fill:#eaa436;}.cls-18{fill:#e8a336;}.cls-19{fill:#e7a336;}.cls-20{fill:#e6a235;}.cls-21{fill:#e5a135;}.cls-22{fill:#e4a035;}.cls-23{fill:#e29f34;}.cls-24{fill:#e19e34;}.cls-25{fill:#e09d34;}.cls-26{fill:#df9d33;}.cls-27{fill:#dd9c33;}.cls-28{fill:#dc9b33;}.cls-29{fill:#db9a32;}.cls-30{fill:#da9932;}.cls-31{fill:#d89832;}.cls-32{fill:#d79831;}.cls-33{fill:#d69731;}.cls-34{fill:#d59631;}.cls-35{fill:#d39530;}.cls-36{fill:#d29430;}.cls-37{fill:#d19330;}.cls-38{fill:#d0922f;}.cls-39{fill:#cf922f;}.cls-40{fill:#cd912f;}.cls-41{fill:#cc902e;}.cls-42{fill:#cb8f2e;}.cls-43{fill:#ca8e2e;}.cls-44{fill:#c88d2d;}.cls-45{fill:#c78d2d;}.cls-46{fill:#c68c2d;}.cls-47{fill:#c58b2c;}.cls-48{fill:#c38a2c;}.cls-49{fill:#c2892c;}.cls-50{fill:#c1882b;}.cls-51{fill:#c0882b;}.cls-52{fill:#be872b;}.cls-53{fill:#bd862a;}.cls-54{fill:#bc852a;}.cls-55{fill:#f5f5f5;}</style><linearGradient id="linear-gradient" x1="34.9" y1="111.87" x2="34.9" gradientUnits="userSpaceOnUse"><stop offset="0" stop-color="#fbb03b"/><stop offset="0.74" stop-color="#fbb03b"/><stop offset="0.89" stop-color="#fcc731"/><stop offset="0.97" stop-color="#e9a12c"/><stop offset="1" stop-color="#cc7b19"/></linearGradient></defs><title>Ресурс 16elements</title><g id="Слой_2" data-name="Слой 2"><g id="Layer_1" data-name="Layer 1"><path class="cls-1" d="M67.05,90.86A144.4,144.4,0,0,1,65.8,65.93c.36-12.38,3.67-36,1.28-50.3S62.29,0,62.29,0H0S.65,5,1.22,19.5c.6,15.25,1.49,32.17,1.14,44.55C1.93,78.8,2,89.78,2,89.78l36.22,22.43a2.29,2.29,0,0,0,2.66-.14Z"/><path class="cls-2" d="M68.57,89.64a149.11,149.11,0,0,1-.91-23.71c.35-12.38,3.67-36,1.28-50.3S64.15,0,64.15,0H0S2.41,1.31,4.79,15.63s-.93,37.93-1.28,50.3a149.16,149.16,0,0,0,.91,23.71l34.26,21.86a2.29,2.29,0,0,0,2.65-.14Z"/><path class="cls-3" d="M38.32,84.81,1.09,59.41v9.31L37.37,97.91a1.56,1.56,0,0,0,1.91,0l32.63-26.8V61.67Z"/><path class="cls-4" d="M38.32,84.73,1.09,59.32v9.37L37.37,97.82a1.56,1.56,0,0,0,1.9,0L71.91,71.08v-9.5Z"/><path class="cls-5" d="M38.32,84.65,1.09,59.23v9.43L37.37,97.74a1.56,1.56,0,0,0,1.9,0L71.91,71.05V61.49Z"/><path class="cls-6" d="M38.32,84.57,1.09,59.14v9.48l36.28,29a1.56,1.56,0,0,0,1.89,0L71.91,71V61.4Z"/><path class="cls-7" d="M38.32,84.49,1.09,59.05v9.54l36.28,29a1.56,1.56,0,0,0,1.89,0L71.91,71V61.31Z"/><path class="cls-8" d="M38.32,84.41,1.09,59v9.6L37.38,97.47a1.55,1.55,0,0,0,1.88,0L71.91,71V61.22Z"/><path class="cls-9" d="M38.32,84.33,1.09,58.87v9.65L37.38,97.39a1.55,1.55,0,0,0,1.88,0L71.91,70.93v-9.8Z"/><path class="cls-10" d="M38.32,84.24,1.09,58.78v9.71L37.38,97.3a1.55,1.55,0,0,0,1.87,0L71.91,70.9V61Z"/><path class="cls-11" d="M38.32,84.16,1.09,58.69v9.77L37.39,97.21a1.55,1.55,0,0,0,1.87,0L71.91,70.87V60.95Z"/><path class="cls-12" d="M38.32,84.08,1.09,58.6v9.82l36.3,28.7a1.54,1.54,0,0,0,1.86,0L71.91,70.84v-10Z"/><path class="cls-13" d="M38.32,84,1.09,58.51v9.88L37.39,97a1.55,1.55,0,0,0,1.86,0L71.91,70.8v-10Z"/><path class="cls-14" d="M38.32,83.92,1.09,58.42v9.94L37.39,97a1.54,1.54,0,0,0,1.85,0L71.91,70.77V60.68Z"/><path class="cls-15" d="M38.31,83.84,1.09,58.33v10L37.4,96.87a1.54,1.54,0,0,0,1.85,0L71.91,70.74V60.59Z"/><path class="cls-16" d="M38.31,83.76,1.09,58.24v10L37.4,96.78a1.54,1.54,0,0,0,1.84,0L71.91,70.71V60.5Z"/><path class="cls-17" d="M38.31,83.68,1.09,58.15V68.26L37.4,96.69a1.54,1.54,0,0,0,1.84,0l32.67-26V60.41Z"/><path class="cls-18" d="M38.31,83.6,1.09,58.06V68.23L37.4,96.6a1.53,1.53,0,0,0,1.83,0l32.67-26V60.32Z"/><path class="cls-19" d="M38.31,83.52,1.09,58V68.19L37.41,96.52a1.53,1.53,0,0,0,1.83,0l32.67-25.9V60.23Z"/><path class="cls-20" d="M38.31,83.43,1.09,57.88V68.16L37.41,96.43a1.53,1.53,0,0,0,1.82,0L71.91,70.59V60.14Z"/><path class="cls-21" d="M38.31,83.35,1.09,57.79V68.13L37.41,96.34a1.53,1.53,0,0,0,1.82,0L71.91,70.56V60Z"/><path class="cls-22" d="M38.31,83.27,1.09,57.7V68.09L37.41,96.26a1.52,1.52,0,0,0,1.81,0L71.91,70.53V60Z"/><path class="cls-23" d="M38.31,83.19,1.09,57.61V68.06L37.42,96.17a1.52,1.52,0,0,0,1.81,0L71.91,70.5V59.87Z"/><path class="cls-24" d="M38.31,83.11,1.09,57.52V68L37.42,96.08a1.52,1.52,0,0,0,1.8,0L71.91,70.47V59.78Z"/><path class="cls-25" d="M38.31,83,1.09,57.43V68L37.42,96a1.52,1.52,0,0,0,1.8,0L71.91,70.44V59.69Z"/><path class="cls-26" d="M38.31,82.95,1.09,57.34V68l36.33,28a1.52,1.52,0,0,0,1.79,0l32.69-25.5V59.6Z"/><path class="cls-27" d="M38.31,82.87,1.09,57.25V67.92l36.33,27.9a1.51,1.51,0,0,0,1.79,0L71.91,70.37V59.51Z"/><path class="cls-28" d="M38.31,82.79,1.09,57.16V67.89L37.43,95.74a1.51,1.51,0,0,0,1.79,0L71.91,70.34V59.42Z"/><path class="cls-29" d="M38.31,82.71,1.09,57.07V67.86L37.43,95.65a1.51,1.51,0,0,0,1.78,0l32.7-25.34v-11Z"/><path class="cls-30" d="M38.31,82.62,1.09,57V67.83L37.43,95.56a1.51,1.51,0,0,0,1.78,0l32.7-25.28v-11Z"/><path class="cls-31" d="M38.3,82.54,1.09,56.89v10.9L37.44,95.47a1.51,1.51,0,0,0,1.77,0l32.7-25.22V59.15Z"/><path class="cls-32" d="M38.3,82.46,1.09,56.8v11L37.44,95.39a1.5,1.5,0,0,0,1.77,0l32.7-25.17V59.06Z"/><path class="cls-33" d="M38.3,82.38,1.09,56.71v11L37.44,95.3a1.5,1.5,0,0,0,1.76,0L71.91,70.19V59Z"/><path class="cls-34" d="M38.3,82.3,1.09,56.62V67.69L37.44,95.21a1.5,1.5,0,0,0,1.76,0L71.91,70.16V58.88Z"/><path class="cls-35" d="M38.3,82.22,1.09,56.53V67.66L37.45,95.13a1.5,1.5,0,0,0,1.75,0l32.71-25V58.79Z"/><path class="cls-36" d="M38.3,82.14,1.09,56.44V67.62L37.45,95a1.5,1.5,0,0,0,1.75,0L71.91,70.1V58.7Z"/><path class="cls-37" d="M38.3,82.06,1.09,56.35V67.59L37.45,95a1.5,1.5,0,0,0,1.74,0L71.91,70.07V58.61Z"/><path class="cls-38" d="M38.3,82,1.09,56.26V67.56L37.45,94.87a1.49,1.49,0,0,0,1.74,0L71.91,70V58.52Z"/><path class="cls-39" d="M38.3,81.9,1.09,56.17V67.52L37.46,94.78a1.49,1.49,0,0,0,1.73,0L71.91,70V58.43Z"/><path class="cls-40" d="M38.3,81.82,1.09,56.08V67.49l36.36,27.2a1.49,1.49,0,0,0,1.73,0L71.91,70V58.34Z"/><path class="cls-41" d="M38.3,81.73,1.09,56V67.46L37.46,94.6a1.49,1.49,0,0,0,1.72,0L71.91,69.94V58.25Z"/><path class="cls-42" d="M38.3,81.65,1.09,55.9V67.42L37.46,94.52a1.49,1.49,0,0,0,1.72,0L71.91,69.91V58.16Z"/><path class="cls-43" d="M38.3,81.57,1.09,55.81V67.39l36.37,27a1.48,1.48,0,0,0,1.71,0L71.91,69.88V58.07Z"/><path class="cls-44" d="M38.3,81.49,1.09,55.72V67.36l36.37,27a1.48,1.48,0,0,0,1.71,0L71.91,69.85V58Z"/><path class="cls-45" d="M38.3,81.41,1.09,55.63V67.32L37.47,94.26a1.48,1.48,0,0,0,1.7,0L71.91,69.82V57.89Z"/><path class="cls-46" d="M38.3,81.33,1.09,55.54V67.29L37.47,94.17a1.48,1.48,0,0,0,1.7,0L71.91,69.79v-12Z"/><path class="cls-47" d="M38.29,81.25,1.09,55.45v11.8L37.47,94.08a1.48,1.48,0,0,0,1.69,0L71.91,69.76V57.71Z"/><path class="cls-48" d="M38.29,81.17,1.09,55.36V67.22L37.48,94a1.47,1.47,0,0,0,1.69,0L71.91,69.73V57.62Z"/><path class="cls-49" d="M38.29,81.09,1.09,55.27V67.19L37.48,93.91a1.47,1.47,0,0,0,1.68,0L71.91,69.7V57.53Z"/><path class="cls-50" d="M38.29,81,1.09,55.18v12L37.48,93.82a1.47,1.47,0,0,0,1.68,0L71.91,69.67V57.44Z"/><path class="cls-51" d="M38.29,80.93,1.09,55.09v12L37.49,93.74a1.47,1.47,0,0,0,1.67,0l32.75-24.1V57.35Z"/><path class="cls-52" d="M38.29,80.84,1.09,55V67.09L37.49,93.65a1.47,1.47,0,0,0,1.67,0l32.75-24V57.26Z"/><path class="cls-53" d="M38.29,80.76,1.09,54.91V67.06l36.4,26.5a1.47,1.47,0,0,0,1.66,0l32.75-24V57.17Z"/><path class="cls-54" d="M38.29,80.68,1.09,54.82V67l36.4,26.45a1.46,1.46,0,0,0,1.66,0L71.91,69.54V57.08Z"/><polygon class="cls-55" points="38.32 80.22 0.74 54.23 0.74 68.06 38.32 94.05 72.24 70.35 72.24 56.53 38.32 80.22"/></g></g></svg>