<svg xmlns="http://www.w3.org/2000/svg" xmlns:xlink="http://www.w3.org/1999/xlink" viewBox="0 0 262.06 262.06"><defs><style>.cls-1{isolation:isolate;}.cls-12,.cls-14,.cls-16,.cls-2,.cls-26,.cls-27,.cls-3,.cls-30,.cls-31,.cls-5{mix-blend-mode:multiply;}.cls-2{fill:url(#radial-gradient);}.cls-3{fill:url(#radial-gradient-2);}.cls-4,.cls-8{fill:#f2f2f2;}.cls-16,.cls-26,.cls-27,.cls-5{opacity:0.5;}.cls-5{fill:url(#_14);}.cls-6{fill:#d60c00;}.cls-7{fill:#ff3c2d;}.cls-8{opacity:0.7;}.cls-9{opacity:0.39;}.cls-10{fill:#fff8d5;}.cls-11{opacity:0.49;}.cls-11,.cls-25{mix-blend-mode:screen;}.cls-12,.cls-14{opacity:0.4;}.cls-13,.cls-14{fill:#919191;}.cls-15{fill:#77b818;}.cls-16{fill:#767676;}.cls-17{fill:#e6e6e6;}.cls-18{fill:#be0100;}.cls-19{fill:#007327;}.cls-20{fill:#008e56;}.cls-21{fill:#00551b;}.cls-22{fill:#ffbd00;}.cls-23,.cls-26{fill:#cf8e00;}.cls-24,.cls-25{fill:#ffd77a;}.cls-25{opacity:0.3;}.cls-27{fill:#8e0000;}.cls-28{fill:#d13430;}.cls-29{fill:#ed9b99;}.cls-30{fill:#bfbfbf;}.cls-31{fill:gray;}.cls-32{fill:#568e00;}.cls-33{fill:#7fcc00;}.cls-34{fill:#f10;}.cls-35{fill:#ff5143;}</style><radialGradient id="radial-gradient" cx="131.03" cy="131.03" r="131.03" gradientUnits="userSpaceOnUse"><stop offset="0"/><stop offset="0.13" stop-color="#2d2d2d"/><stop offset="0.35" stop-color="#777"/><stop offset="0.54" stop-color="#b1b1b1"/><stop offset="0.71" stop-color="#dcdcdc"/><stop offset="0.84" stop-color="#f5f5f5"/><stop offset="0.92" stop-color="#fff"/></radialGradient><radialGradient id="radial-gradient-2" cx="142.03" cy="144.03" r="88.03" gradientUnits="userSpaceOnUse"><stop offset="0.57"/><stop offset="0.62" stop-color="#2d2d2d"/><stop offset="0.7" stop-color="#777"/><stop offset="0.78" stop-color="#b1b1b1"/><stop offset="0.84" stop-color="#dcdcdc"/><stop offset="0.89" stop-color="#f5f5f5"/><stop offset="0.92" stop-color="#fff"/></radialGradient><linearGradient id="_14" x1="81.71" y1="176.08" x2="151.06" y2="55.95" gradientUnits="userSpaceOnUse"><stop offset="0" stop-color="#ebebeb"/><stop offset="1" stop-color="#595959"/></linearGradient></defs><title>Ресурс 10</title><g class="cls-1"><g id="Слой_2" data-name="Слой 2"><g id="elements"><circle class="cls-2" cx="131.03" cy="131.03" r="131.03"/><circle class="cls-3" cx="142.03" cy="144.03" r="88.03"/><path class="cls-4" d="M194.06,193a278.59,278.59,0,0,1-76,11,278.63,278.63,0,0,1-79-11,379.25,379.25,0,0,1,0-155,379.25,379.25,0,0,1,155,0,432.46,432.46,0,0,1,7,79A432.43,432.43,0,0,1,194.06,193Z"/><path class="cls-5" d="M167.16,65.24a248.47,248.47,0,0,0-101.55,0,248.47,248.47,0,0,0,0,101.55A182.54,182.54,0,0,0,117.37,174a182.52,182.52,0,0,0,49.79-7.21A283.3,283.3,0,0,0,171.74,117,283.32,283.32,0,0,0,167.16,65.24Zm-8.07,93.69a153.6,153.6,0,0,1-85.51,0,209.24,209.24,0,0,1,0-85.51,209.24,209.24,0,0,1,85.51,0A238.58,238.58,0,0,1,163,117,238.57,238.57,0,0,1,159.09,158.93Z"/><path class="cls-6" d="M159.07,50.12l-.59-.32a17.87,17.87,0,0,0-12.54-1.17,16.5,16.5,0,0,0-9.5,8.23,16.5,16.5,0,0,0-8.6,9.17,17.87,17.87,0,0,0,.67,12.58c.12.27.23.47.29.6,5.24,10.38,19.44,10.9,24.29,10a17,17,0,0,0,6.49-2.93,21.35,21.35,0,0,0,5.31-5.1,17,17,0,0,0,3.19-6.36C169.18,70,169.23,55.77,159.07,50.12Z"/><path class="cls-7" d="M158.55,51.17l-.56-.3a16.93,16.93,0,0,0-11.89-1.11,15.64,15.64,0,0,0-9,7.8A15.64,15.64,0,0,0,129,66.24a16.93,16.93,0,0,0,.63,11.92c.12.25.21.44.28.57,5,9.83,18.43,10.33,23,9.45A16.15,16.15,0,0,0,159,85.41a20.23,20.23,0,0,0,5-4.83,16.16,16.16,0,0,0,3-6C168.13,70,168.18,56.52,158.55,51.17Z"/><path class="cls-6" d="M139.64,73c.2-1.4,1.86-1.51,2-2.87.23-1.69-2-4-4.35-4.22-2.72-.2-5.1,2.51-5.76,4.94-1.13,4.15,2.59,8,3.95,9.41,5.48,5.68,13.09,5,14.6,4.88,2.18-.24,5.54-.61,6.49-2.93A4.51,4.51,0,0,0,155,77.13c-1.91-1.39-4.75-.94-5.67.35-.46.64-.18,1.12-.64,1.52-1.29,1.12-4.88-1.19-5.33-1.48C142.1,76.68,139.37,74.89,139.64,73Z"/><path class="cls-8" d="M136.56,71.58a9.5,9.5,0,0,1,2.39,1.64,9.5,9.5,0,0,1-2.79.78,1.23,1.23,0,0,1,.4-2.43Z"/><path class="cls-8" d="M139.32,68.65a9.49,9.49,0,0,1,.31,2.88,9.5,9.5,0,0,1-2.41-1.6,1.23,1.23,0,1,1,2.1-1.28Z"/><path class="cls-8" d="M136.88,75.31a9.5,9.5,0,0,1,2.9-.09A9.5,9.5,0,0,1,138,77.51a1.23,1.23,0,0,1-1.11-2.2Z"/><path class="cls-8" d="M138.77,78.38a9.5,9.5,0,0,1,2.43-1.57,9.5,9.5,0,0,1-.34,2.88,1.23,1.23,0,1,1-2.09-1.3Z"/><path class="cls-8" d="M141.72,80.54a9.5,9.5,0,0,1,1.75-2.31,9.5,9.5,0,0,1,.66,2.82,1.23,1.23,0,0,1-2.41-.51Z"/><path class="cls-8" d="M145.22,81.68a7.5,7.5,0,0,1,.59-2.21,7.5,7.5,0,0,1,1.32,1.87,1,1,0,0,1-1.91.34Z"/><path class="cls-8" d="M148.47,82.1a7.5,7.5,0,0,1-.22-2.28,7.49,7.49,0,0,1,1.89,1.28,1,1,0,0,1-1.67,1Z"/><path class="cls-8" d="M151.08,80.17a5.93,5.93,0,0,1-1-1.53,5.93,5.93,0,0,1,1.79.23.77.77,0,1,1-.82,1.3Z"/><path class="cls-6" d="M152.79,60.36c-1.41.14-1.58,1.8-2.95,1.93-1.7.17-4-2.15-4-4.52-.1-2.73,2.71-5,5.16-5.56,4.19-1,7.9,2.9,9.25,4.32,5.46,5.7,4.52,13.28,4.3,14.78-.33,2.17-.83,5.51-3.19,6.36a4.51,4.51,0,0,1-5-1.78c-1.32-2-.75-4.78.57-5.65.66-.43,1.13-.14,1.54-.58,1.17-1.25-1-4.93-1.27-5.38C156.37,63,154.69,60.17,152.79,60.36Z"/><path class="cls-8" d="M151.49,57.23A9.49,9.49,0,0,0,153,59.68a9.5,9.5,0,0,0,.89-2.76,1.23,1.23,0,0,0-2.44.31Z"/><path class="cls-8" d="M148.45,59.87a9.49,9.49,0,0,0,2.87.42,9.5,9.5,0,0,0-1.51-2.47,1.23,1.23,0,1,0-1.36,2.05Z"/><path class="cls-8" d="M155.21,57.7a9.5,9.5,0,0,0-.2,2.89,9.5,9.5,0,0,0,2.35-1.69,1.23,1.23,0,1,0-2.15-1.2Z"/><path class="cls-8" d="M158.2,59.71a9.5,9.5,0,0,0-1.67,2.37,9.49,9.49,0,0,0,2.89-.23,1.23,1.23,0,1,0-1.22-2.14Z"/><path class="cls-8" d="M160.24,62.74a9.5,9.5,0,0,0-2.38,1.65,9.49,9.49,0,0,0,2.79.77,1.23,1.23,0,1,0-.41-2.43Z"/><path class="cls-8" d="M161.24,66.28a7.5,7.5,0,0,0-2.23.5,7.5,7.5,0,0,0,1.81,1.4,1,1,0,0,0,.42-1.9Z"/><path class="cls-8" d="M161.53,69.55a7.5,7.5,0,0,0-2.27-.31,7.5,7.5,0,0,0,1.21,1.94,1,1,0,0,0,1.06-1.63Z"/><path class="cls-8" d="M159.5,72.08a5.93,5.93,0,0,0-1.49-1,5.93,5.93,0,0,0,.16,1.8.77.77,0,1,0,1.33-.77Z"/><g class="cls-9"><path class="cls-10" d="M155.59,76c-1.06-3.2-12.66-17.45-12.77-17.56-4.24-4.41-2.31-1.72-4.07.13l-.1.1-.1.1c-1.91,1.69-4.53-.35-.29,4.06.11.12,13.89,12.27,17,13.46l.3.31a.26.26,0,0,1,.3-.28Z"/></g><g class="cls-11"><path class="cls-4" d="M135.84,82.72c-3.8-2.65-5.89-6.84-5.3-10.86a10.27,10.27,0,0,1,2.72-5.47c.71-1.56.87-2.86.37-3.23s-2,.47-2.74,1.17c-2.93,2.72-3,9-.33,13.48A13.23,13.23,0,0,0,135.84,82.72Z"/></g><g class="cls-12"><path class="cls-13" d="M151.44,83.87c-1.5.17-9.12.8-14.6-4.88-1.36-1.41-5.08-5.26-3.95-9.41a7.61,7.61,0,0,1,1.41-2.7,7.64,7.64,0,0,0-2.75,4c-1.13,4.15,2.59,8,3.95,9.41,5.48,5.68,13.09,5,14.6,4.88,2-.23,5.13-.56,6.28-2.52A12.88,12.88,0,0,1,151.44,83.87Z"/><path class="cls-13" d="M141.46,70.74a2.05,2.05,0,0,0-.27.34A2,2,0,0,0,141.46,70.74Z"/><path class="cls-13" d="M150,77.72c.34-.3.28-.64.41-1.07a2.65,2.65,0,0,0-1.1.83,1.62,1.62,0,0,0-.26.54A1.42,1.42,0,0,0,150,77.72Z"/></g><path class="cls-14" d="M158,76.18c-1.59-2.25-1.2-5.26.15-6.09.67-.42,1.21-.06,1.62-.5,1.16-1.26-1.49-5.44-1.82-6-1-1.48-3-4.67-5-4.61-1.51,0-1.56,1.82-3,1.85s-3.15-1.45-4.1-3.27c0,.06,0,.11,0,.17.08,2.37,2.34,4.69,4,4.52,1.37-.13,1.54-1.79,2.95-1.93,1.9-.19,3.58,2.61,4.36,3.91.27.46,2.44,4.14,1.27,5.38-.41.44-.89.15-1.54.58-1.32.87-1.89,3.68-.57,5.65a4.63,4.63,0,0,0,3.55,2A6,6,0,0,1,158,76.18Z"/><path class="cls-6" d="M181.85,100.26c.07-.13.17-.34.29-.6a17.87,17.87,0,0,0,.65-12.58,16.5,16.5,0,0,0-8.61-9.15,16.5,16.5,0,0,0-9.51-8.21,17.87,17.87,0,0,0-12.54,1.19l-.59.32c-10.15,5.67-10.08,19.88-9,24.68a17,17,0,0,0,3.2,6.36,21.35,21.35,0,0,0,5.31,5.09,17,17,0,0,0,6.49,2.92C162.43,111.19,176.63,110.65,181.85,100.26Z"/><path class="cls-7" d="M180.79,99.79c.06-.13.16-.32.28-.57a16.93,16.93,0,0,0,.62-11.92,15.64,15.64,0,0,0-8.16-8.67,15.64,15.64,0,0,0-9-7.78A16.93,16.93,0,0,0,152.62,72l-.56.3c-9.62,5.37-9.56,18.84-8.49,23.39a16.15,16.15,0,0,0,3,6,20.24,20.24,0,0,0,5,4.82,16.15,16.15,0,0,0,6.15,2.77C162.38,110.14,175.84,109.63,180.79,99.79Z"/><path class="cls-6" d="M158.19,81.79c1.41.14,1.58,1.79,2.95,1.93,1.7.16,4-2.16,4-4.53.09-2.73-2.71-5-5.17-5.55-4.19-1-7.89,2.92-9.24,4.33-5.45,5.71-4.5,13.29-4.27,14.79.33,2.17.84,5.51,3.2,6.36a4.51,4.51,0,0,0,5-1.79c1.31-2,.74-4.78-.58-5.65-.66-.43-1.13-.14-1.54-.58-1.17-1.24,1-4.93,1.26-5.38C154.62,84.4,156.29,81.6,158.19,81.79Z"/><path class="cls-8" d="M159.49,78.66a9.49,9.49,0,0,1-1.54,2.45,9.49,9.49,0,0,1-.9-2.75,1.23,1.23,0,1,1,2.44.3Z"/><path class="cls-8" d="M162.53,81.3a9.5,9.5,0,0,1-2.87.43,9.49,9.49,0,0,1,1.5-2.48,1.23,1.23,0,1,1,1.36,2Z"/><path class="cls-8" d="M155.77,79.13A9.5,9.5,0,0,1,156,82a9.5,9.5,0,0,1-2.35-1.69,1.23,1.23,0,0,1,2.15-1.2Z"/><path class="cls-8" d="M152.78,81.15a9.49,9.49,0,0,1,1.67,2.36,9.5,9.5,0,0,1-2.89-.22,1.23,1.23,0,0,1,1.21-2.14Z"/><path class="cls-8" d="M150.75,84.19a9.49,9.49,0,0,1,2.38,1.65,9.5,9.5,0,0,1-2.79.78,1.23,1.23,0,1,1,.41-2.43Z"/><path class="cls-8" d="M149.75,87.73a7.49,7.49,0,0,1,2.23.5,7.49,7.49,0,0,1-1.81,1.4,1,1,0,0,1-.42-1.9Z"/><path class="cls-8" d="M149.46,91a7.5,7.5,0,0,1,2.27-.31,7.5,7.5,0,0,1-1.2,1.94A1,1,0,0,1,149.46,91Z"/><path class="cls-8" d="M151.51,93.52a5.93,5.93,0,0,1,1.49-1,5.93,5.93,0,0,1-.16,1.8.77.77,0,0,1-1.33-.77Z"/><path class="cls-6" d="M171.37,94.41c-.2-1.4-1.86-1.5-2.05-2.86-.24-1.69,2-4,4.35-4.23,2.72-.21,5.1,2.5,5.77,4.93,1.14,4.15-2.58,8-3.93,9.42-5.47,5.69-13.09,5.07-14.59,4.9-2.18-.24-5.54-.6-6.49-2.92A4.51,4.51,0,0,1,156,98.57c1.91-1.4,4.75-.94,5.67.34.46.64.19,1.12.64,1.52,1.29,1.12,4.88-1.2,5.33-1.49C168.91,98.09,171.64,96.3,171.37,94.41Z"/><path class="cls-8" d="M174.44,93a9.49,9.49,0,0,0-2.38,1.65,9.5,9.5,0,0,0,2.79.78,1.23,1.23,0,1,0-.41-2.43Z"/><path class="cls-8" d="M171.67,90.06a9.49,9.49,0,0,0-.3,2.88,9.49,9.49,0,0,0,2.41-1.61,1.23,1.23,0,1,0-2.11-1.27Z"/><path class="cls-8" d="M174.12,96.72a9.49,9.49,0,0,0-2.9-.08A9.49,9.49,0,0,0,173,98.92a1.23,1.23,0,1,0,1.11-2.2Z"/><path class="cls-8" d="M172.24,99.79a9.5,9.5,0,0,0-2.43-1.57,9.49,9.49,0,0,0,.35,2.88,1.23,1.23,0,1,0,2.09-1.31Z"/><path class="cls-8" d="M169.29,102a9.5,9.5,0,0,0-1.75-2.31,9.49,9.49,0,0,0-.66,2.82,1.23,1.23,0,1,0,2.41-.51Z"/><path class="cls-8" d="M165.8,103.1a7.49,7.49,0,0,0-.59-2.21,7.49,7.49,0,0,0-1.32,1.87,1,1,0,1,0,1.91.34Z"/><path class="cls-8" d="M162.55,103.53a7.5,7.5,0,0,0,.22-2.28,7.5,7.5,0,0,0-1.89,1.29,1,1,0,0,0,1.67,1Z"/><path class="cls-8" d="M159.93,101.6a5.93,5.93,0,0,0,1-1.53,5.93,5.93,0,0,0-1.79.23.77.77,0,1,0,.83,1.3Z"/><g class="cls-9"><path class="cls-10" d="M155.86,97.86c3.15-1.2,16.91-13.37,17-13.49,4.23-4.42,1.62-2.38-.29-4.06l-.11-.1-.1-.1c-1.76-1.84.16-4.54-4.07-.12-.11.12-11.68,14.38-12.74,17.58l-.3.31a.26.26,0,0,1,.3.28Z"/></g><g class="cls-11"><path class="cls-4" d="M148.32,78.4c2.49-3.91,6.59-6.17,10.63-5.75a10.27,10.27,0,0,1,5.57,2.5c1.59.64,2.9.75,3.24.24s-.55-2-1.28-2.69c-2.83-2.81-9.15-2.6-13.48.23A13.23,13.23,0,0,0,148.32,78.4Z"/></g><g class="cls-12"><path class="cls-13" d="M147.83,94c-.23-1.49-1.18-9.07,4.27-14.79,1.35-1.41,5-5.29,9.24-4.33a7.61,7.61,0,0,1,2.76,1.3A7.64,7.64,0,0,0,160,73.64c-4.19-1-7.89,2.92-9.24,4.33-5.45,5.71-4.5,13.29-4.27,14.79.31,2,.78,5.1,2.78,6.17A12.88,12.88,0,0,1,147.83,94Z"/><path class="cls-13" d="M160.53,83.53a2.06,2.06,0,0,0-.35-.25A2,2,0,0,0,160.53,83.53Z"/><path class="cls-13" d="M153.91,92.37c.31.33.66.25,1.09.37a2.65,2.65,0,0,0-.88-1.07,1.62,1.62,0,0,0-.55-.23A1.42,1.42,0,0,0,153.91,92.37Z"/></g><path class="cls-14" d="M155.77,100.29c2.18-1.68,5.2-1.42,6.09-.1.44.65.11,1.2.57,1.59,1.3,1.11,5.37-1.71,5.87-2.06,1.44-1,4.54-3.19,4.4-5.22-.1-1.51-1.88-1.48-2-2.94s1.32-3.21,3.1-4.23h-.17c-2.36.18-4.59,2.53-4.35,4.23.19,1.36,1.85,1.46,2.05,2.86.27,1.89-2.46,3.68-3.73,4.52-.44.29-4,2.61-5.33,1.49-.46-.4-.19-.88-.64-1.52-.92-1.28-3.76-1.73-5.67-.34a4.63,4.63,0,0,0-1.83,3.63A6,6,0,0,1,155.77,100.29Z"/><path class="cls-15" d="M163.89,55.19c-4.51,2.5-8.72,5.28-7.25,4.16.4-.31.27-.48-.14-.17a4.21,4.21,0,0,0-.75.78s-.76.5-.73.47c3.08-3.6,3.15-3.4,3.15-3.4.7-1.54-.06-.12-.43.15s-4.38,5-4.13,4.15.63-4.3,1.58-5.53c.47-.61-.42-1.11-1.71,5.46-.11.38-2.79.52-2.51.41,1-.36,1.42-3.27,1.5-3.56.73-2.5,3-1.32,6-6.69.15-.27.33-2.8,0-.82-.6,3.47-6.83,7.67-4.38,4.12a27.16,27.16,0,0,0,.24-3.12,23.61,23.61,0,0,1-.59,3.36,8.15,8.15,0,0,0-.66,1.75c-1.77,1.26,0,4.85-3.62,5-.77,0-3.42,2.25-4.18,2.43-3.73.91,1.54-1.65,2.14-2.27s.5-.34,1-1.35A9.22,9.22,0,0,1,150,58.45c-1.44,1.27-.39.41-.12-.84.14-.64,1.44-2.32.62-1.39s-2,4.52-3.22,5.61c-.43.44-3.3,2.46-1.25-.35a73.93,73.93,0,0,0,6.19-8.76c.77-.66.69-.77-.1-.1-1,.83-2,3.38-1.88,2.82s-.06-.48-.15,0c-.19,1.1-6.13,8.89-6.59,8.72l-1.46-.51s-3.1-.16-3.12-.14c-.37.18-1.38.69-1.13.37a30.41,30.41,0,0,1,7.06-6c1.91-2.87.06,0-1.05.54-2.25,1.2-2.13,1.71-1.16-.33a4.66,4.66,0,0,0,.36-1.9s-.56,3.07-2.17,4.09c-.71.45.45-2.93.61-3.3a5.83,5.83,0,0,1,1.41-1.81c.55-1.63-.11-.1-.41.2-1,.94-.78.72-1.14,1.55-.53,1.22-.89,3.63-1.34,3.91-.25.16.22-.79.35-1.06a4.37,4.37,0,0,0-.45-2.29c-.38-.83-.53-2.38-.46-.68,0,.67,2,2-.47,5-.85,1-1.21,1.4-1,1.13.61-.94,1.12-8.24,2.21-9.35.15-.15,1.31-1.45,1.13-1.57,0,0-.89,1.11-1.24,1.47s0-1,.44-1.94,1.62-1.7.25-.79a29.5,29.5,0,0,0-1.46,3.65c-1.38,9.55-1.45,8-2.88,10.76-.64,1.22-.76,1.94-1.08.66-.07-.28-.35-.32-.26-.72s-.17-1.44.05-1.84c.38-.7,0,.27.77-1.53s.63-.78,1.32-2.31a7.45,7.45,0,0,1,.39-3S138,55,138,55a8.26,8.26,0,0,0-.23-1.53l-1.3.91c-1.4,1-.63-.92-.56-1.57.12-1,1.29-2.19.51-1.43-1.07,1-.5,3.33-1.33,2.43-1.25-1.21-1-1.16-.2-3.15.49-.92.36-1-.13-.06-.32.75-.74,2.17-1.66,1.29s-.59-2.15-.83-1.25c-.05.2-.19.27-.3.16-.27-.27-.39-.18-.07.13s.15.57.07.85c0,.12.74,2.88.75,3.1,0,.46-.59-1-.7-1.42a13.82,13.82,0,0,1-.36-1.89c-.25-1.1-.21.49.21,1.94,1,3.27.44.43-.09,3.4-.14.78-.07.46-.81-.37-1.48-1.68.65,1,.65,1.27a23.28,23.28,0,0,0,1.07,4.06c1,2.16-2,.32-4-3.49-.39-.43-1.53-1.69-.64-.8,0,0,.32.35.54.61a13.79,13.79,0,0,1-1.43-4.61s-.67-1.31-.68-1.34a6.4,6.4,0,0,1-.67-2.93c-.08,0-.21,1.2-.31,1a18.66,18.66,0,0,0-.77-2c-1.16-2.58-2-2.33-1.34-1.83,1.49,1.11,2,4.91,2.15,5.2,4.19,8.58-.24,2.77-.61,1.76-.82-2.24-2.63-5-1.83-3,0,0,.36-.05,1.49,2.63.13.37-2.12-3.23-2.1-3.25-.24.1,1.15,2.17,1.3,2.39,1.15,1.73,1.6,2.33.67,1.93A11.53,11.53,0,0,1,121.33,52c-2.72-1.22-2.95-2.06-4.08-2.83-1.32-.9,1.3,1.37,2,1.88s2.82,1.5,1.91,1.22c-.39-.12-3.26.26-4.11-.37-.33-.25-1.15-1.69-.43-.13.54,1.16,4.56.27,5.12,1a26.05,26.05,0,0,0,2.69,1.58c.79.34.91.37,1.78,1.7a8.18,8.18,0,0,0,1.22,1.31l2.47,4.05c.83.68,3,2.3,3.17,3.14s.23,1.21.12.93a5.35,5.35,0,0,0-2.93-2.69,1.38,1.38,0,0,1,.26.14c2.56,1.94,3.68,4.08,3,7.57.18-.59.36-.82.19.43,0,.28.24.61-.23,1.17-.27.32-.29,0-.21-.53-.11.39-.23.8-.37,1.22-.76,1.78-.48,1.1-1.15,2.86-.07.15-.31.66-.36.8s-.16-.05-.22-.29-.13-.44,0-.62a2,2,0,0,1,.17-.26c.14-.19.37-.63.48-.83a2.92,2.92,0,0,0,.63-1.5,40.55,40.55,0,0,0,.36-6.33c-.11-.27,0-1.29-.28-1.3a1.61,1.61,0,0,0,0,1,8.27,8.27,0,0,1,.07,1.74c0-.41-.16-.45-.14.07a2.12,2.12,0,0,1-.22,1.16c-.44-1.77-1.13-1.77-1.77-3.52a11.14,11.14,0,0,1-.37-1.48c-.85,0,1.83,4.25,1.89,4.53a6.94,6.94,0,0,1,.11,2c.18.7.75,1.57-.7,4.06l-.29.49c-.09.12.1-.3-.08-.3s-.07.51-.13.6-.25.46-.32.61l0,.4a1.33,1.33,0,0,1,.27,0c.32,0,.35.23.23.53-.06.14-.2.08-.33,0q.14.35.31.7c.2-.06.89.79,1.12,1.17.06.09.64,1.27.64,1.27a5,5,0,0,0-.76,0l0,.13a5.92,5.92,0,0,1,.81,0c.28,0,1.35.78,0,.53l-.69-.13.06.09,0,.06c1.42.24,1.69.46,1.53,1.35-.05.28-1.49,4.2-1.91,3.78-.23-.23-1.31-1.64-2-2.57a1,1,0,0,1-.19.13c1.29,1.72,1.64,2.44,1.46,2.57a2.07,2.07,0,0,0,.19.22c1.11,1.08-1,1.49-.5,4.43.15.85-.13.76-.64,1.2a7.19,7.19,0,0,0-.59.56c0,.06,0,.13,0,.19.49-.61,1.34-1.43,1.36-.52s-.31.42-1.31.86c0,.07,0,.14,0,.21.77-.39,1.3-.49,1.31-.13a8.21,8.21,0,0,1-.31,3.27,5.76,5.76,0,0,1-.07,2.16c-.46,2.26-1.84,4.33-2.88,6.34-.83,1.59-3,6-1.6,5.86.53-1,1.09-1.88,1.66-2.79.72-1.14,1.67-2.85,2.91-3.51,1-.55,2.18-.22,3.36-.17,1.72.08,4,.46,5.67.06,4.11-1.34,4.9-1.33,9.21-.83l1.12.12.69-.17s.43-.38.45-.4c.51-.47.55-.45,1.09-.3l1.07.3h0c.18-.07.45-.14.74-.21a6.39,6.39,0,0,1,2.1,0,2.34,2.34,0,0,1,.41,0c.25,0,1.37,0,1.62,0a1.11,1.11,0,0,1,.61.18c.45.22.52.09.06-.14,0,0-.35-.18-.38-.18a22.51,22.51,0,0,1-4-.32s-.48.18-.51.19c-.6.23-.59.26-1,.15L152,102.6h-.07s0-.06.06-.09a4.15,4.15,0,0,0,.14-.39c.17-.49,0-.48-.08-.2s-.44.32-.59.44c-.57.4-2.92.44-3.62.45-.36,0,.05-.14.47-.6a2,2,0,0,1,1.58-.86l.87.09a2.65,2.65,0,0,0,1.07,0h.33a6.92,6.92,0,0,1,1.1-.35c.5-.13.46-.27,0-.14a4.53,4.53,0,0,0-.74.22c-.73.26-2.48.06-.3-.19l.71-.36a3.91,3.91,0,0,0,.24-.33,1.63,1.63,0,0,1,.26-.32s.88-.25.9-.27a7.2,7.2,0,0,1,.74-.24,11.76,11.76,0,0,1,1.83-.44,9.71,9.71,0,0,1,3.38.24,17.66,17.66,0,0,0-2.23-.62s-2.28.46-2.31.47c-.34.1-1.18.4-.69-.05A10.66,10.66,0,0,1,156.8,98c.87-.55.79-.67-.07-.13-.58.37-1.25.7-1,.48a1.71,1.71,0,0,0,.17-.14c.06-.11.66-1.22.79-1.21s.14-.13,0-.14.07-.29.14-.29.07-.16.05-.16a2,2,0,0,1,.12-.22,1.42,1.42,0,0,0,0-.21c0-.18,1.17-.85,1.15-.89s-.28.06-.58.22-.5-.1-.45-.58c.11-1.16,0-1.21-.15,0-.1,1.08-.58,1.19-.9,1.37a.49.49,0,0,0-.09.13c-.09.14-1.28,0-1.44,0l-.76.19a.59.59,0,0,0-.13.11c-.13.12-.55-.07-.51-.27s0-.11.1-.37.91-.34,1.18-.38l1.35-.81.27-.31c.34-.39.23-.48-.1-.1A4.6,4.6,0,0,1,154,95.46c-.57.08-.22-1.18-.13-1.51-.1.33-.52,1.61-1.1,1.69l-3.52,1c-2.56,2-2.31,1.46-2,1.27,1.59-.92,1.29-.71,1.59-1.1a1.18,1.18,0,0,1,.58-.38c0-.11-.3,0-.26-.17s.59-.18.75-.28c1.49-1-.09-.12-.37,0-.46.12-.05-1.3.68-1.89.57-.46.72-.31,1-.15a.07.07,0,0,0,.07,0,5.69,5.69,0,0,0,.75-.41l.31-.22a10.88,10.88,0,0,1,2.35-.54,8.63,8.63,0,0,0,1.51-.28c.92-.15.69-.08,1.12-.34.88-.54-.35.07-1.15.2a8.63,8.63,0,0,1-1.51.28c-.92.11-2,.39-1.79.26a31.05,31.05,0,0,0,2.82-1.73c.84-.61.76-.72-.08-.11-1.06.74-2.94,1.83-2.94,1.83-.32.26-.64.47-.93.67s-1.2.27-.34-.43l0,0a8.79,8.79,0,0,1,1-1.51c.12,0,.16-.09.06-.13s0-.19.14-.39c.28-.47,1.3-.45,1.85-.42a25.25,25.25,0,0,0,3.37-.33s-5,.31-4.88.19-.07-.16-.15,0a8.92,8.92,0,0,1-1.82.2s.3-.45.31-.48,2.76-.13.78-.21a.53.53,0,0,1-.32-1c.19-.07.9-.41,1.08-.5s.6-.3.64-.29,1.15,0,1.19,0a11.8,11.8,0,0,1,3.76-.82c1.55,0,3,.25,1.94,0a10.7,10.7,0,0,0-2.33-.1c-.54,0-1.55.27-1.32.12a7.16,7.16,0,0,0,.8-.32c0-.09-.45,0,0-.15,0,0,.74-.5.7-.56s.37-.46.52-.55a4.62,4.62,0,0,1,2.07-.93c.29-.09.34-.57,1.06-.66l.19,0a1,1,0,0,1,.48-.11c.43,0,.39-.16.13-.15s0-.25.85-.12.86,0,.12-.15-.16-.13-.29-.33a2,2,0,0,1-1,.14l-.67-.11c-.23,0-.22,0,0-.43a5.52,5.52,0,0,1,.65-1.36,10.39,10.39,0,0,1,1.09-1.08c1.12-1.06,1-1.17-.11-.11A12,12,0,0,0,162,81.7s-.12.37-.13.39a5.61,5.61,0,0,1-.48,1.09,1.32,1.32,0,0,1-.49,0c-3.19-.55-2,.36.91-2.35,1.14-1.05,1-1.16-.1-.12a11.59,11.59,0,0,1-2.44,1.82,3.19,3.19,0,0,1-1,.26,17.66,17.66,0,0,0-1.75.23c-1.08.18-.75.08-1-.73a1.11,1.11,0,0,1,.37-1.09.19.19,0,0,1,.13,0l.26-.1c.3-.12.29-.11,1.21,0l.8.06a14.55,14.55,0,0,1,3.07-.53c.48.12.53,0,0-.17a4,4,0,0,0-.41-.09,16.54,16.54,0,0,1-3.34.58c-.69-.05-.4-.1-.11-.17a8.33,8.33,0,0,0,1.46-.5c0-.1.41-.13.39-.23s-1.81.28-1.9.28-.39,0-.42,0-.24.13-.14.06,1.34-.7,1.48-.77,1.33-.81,1.34-.83.4-.66.33-.7A4,4,0,0,1,159,79a10.6,10.6,0,0,1-1.34.75,7.38,7.38,0,0,0-1.47.91c-.14.15-.12.1-.54.19-.17,0-.28,0-.25-.11s0-.19,0-.19.29-.29.35-.38l.34-.45a.11.11,0,0,0,0-.05s.29-.65.3-.67a.12.12,0,0,0,0-.05,2.76,2.76,0,0,0,.37-1c0-.46.1-.13.34-.21s.57-.23,1.9,0a7.52,7.52,0,0,0,1.92.06l-2.68-.33c-.5-.06,1.77-2.09,1.77-2.1s-2.27,2-2.37,2c-2,.65.53-4.79-.59-2.28,0,0-.32.71-.32.73,0,.3-.08,1.17-.2.79-.56-1.71-.52-1.37.29-2.44.94-1.25,3.55-2.6.63-1.06-.58.31-2.13,3.74-.84-.4.09-.28-.58-4.22-.26-1.17.16,1.58-.35,2.69-.39,2.41,0,0,0-.27,0-.29-.77-1.81.16.3-.18,1.41a8.67,8.67,0,0,1-1,1.84c-.09.14.2.08-.93.16-2.33.16-.92-.8.22-2.63,0,0,.76-1.78,1.41-3,.8-1.48.56-1.78.36-1.11-1,3.25-.23-.71.43-1.89,0,0,.38-.67.38-.7.28-2.41-1,2.3-1.89,4.63-2.49,6.61-3.72,3.05-2.59-.16,1.46-5.94,1.36-6.11-.13,0-.1.28-.85,2-.41,3,.58,1.37.61,1.2-1-.24-2.51-2.31-2.16-1.8-.1.11,1.83,1.67,2.31,1.17-.24,4.23-.06.07-1,1.18-1.06,1.23a7.32,7.32,0,0,1-.37-.66,2.4,2.4,0,0,1-.4-1,4.35,4.35,0,0,1,.38-1.87c-.38-.43.29-2.85.16-3.13-.66-1.54-.11-.27-.27,1.18-.2,1.78-.17,2.13-.3.37-.21-2.81-3.31-1.08,3.36-5.3.85-.59.75-.75-.1-.16-.42.26-1,.67-.28-.12,1.88-2.05-1,.9-1.34,1.11a7.91,7.91,0,0,1-1.72,1c-.89.83-.87,1.25-1.86-.06-1.11-1.46-1.23-1.38-.11.1.37.49.87,1.08.68,1.28-1.39,1.47-.16.18-1.9-2.57a2.66,2.66,0,0,0-2.55-.79c-.62.18-.91.16-1.37-.53s-.69-1,.08-1.66c1.45-1.35,4.55-.26,8.39-2.85,4.14-2.27,1.92-2.18,5-1.56,3.43.72,6.76-.48,9.07-.25.1,0,3,.41,3,.32a7.92,7.92,0,0,0-1.51-.27c-2.35-.3-1.75-.33-5.23.05-10.36,1.11-5.85-2.14-3.29-1.7,1.38.24-1.33-1.17-3.83,1.26a21.64,21.64,0,0,1,8.26-5c2.42-.73,4.05-2.95,1.91-1.31a11,11,0,0,1-3.3,1.44c-.86.37,3.56-2.39,4.49-2.42S164.2,55,163.89,55.19Zm-38-3.33a1.38,1.38,0,0,1-.15-.5C125.77,50.7,128.42,57.14,125.88,51.87Zm.49,4a12.64,12.64,0,0,1,1,1A3.29,3.29,0,0,1,126.36,55.87Zm25.56,46.41a.52.52,0,0,1-.46.35C151.21,102.66,152,102.12,151.93,102.29Zm6.2-22a11.68,11.68,0,0,1-1.73.42C156.84,80.39,159.2,80,158.13,80.33ZM147,63.93a9.35,9.35,0,0,0,1.61-1.16c.78-.49,3.73-.06,2.73.42-.56.27-3.82,1-3.82,1C145.68,65.73,145.58,64.29,147,63.93Zm-2.43.69c.68.07-2.21,1.54-1.33.54S143.65,64.52,144.6,64.62Zm-3.87-4.06c.54-.34,0,.37-.29.57S140.16,60.92,140.73,60.56Zm-1.06,1.26a3.94,3.94,0,0,1-.66.52C137.57,63.3,141.52,59.37,139.68,61.81Zm-5,.84a14.88,14.88,0,0,1,0-2.86c0-.28.38.65.39,2.14C135,62.88,134.87,63.6,134.65,62.66Zm-1.58-4.11c-.37-.79-.44-3.84-.21-2.26a17,17,0,0,1,1.61,3.33C134.74,63.17,133.58,59.64,133.07,58.55Zm3.1,2.1a18.41,18.41,0,0,1-.93,2.11c.63-2.39-2.19-4.59.37-7.52.28-.32.16-.41.82,1.28S137.5,59.42,136.17,60.64Zm1-6.63c.29-.17.56-.4.64.3s-.52,3.94-1.27,2.05S135.64,55.08,137.16,54Zm-1.64,1.11c-.31.36-.34.55-.2,0C135.61,53.89,135.75,54.86,135.51,55.13ZM132.87,54c-.37-1.29-.82-1.95-.67-2.51.08-.31,1.67,1.12,1.48,1.57C132.43,56,133.06,54.66,132.87,54Zm.79-.55c.22-.5.25-.73,1.51.63.52.56-.93,2.91-.82,4.22,0,.25.06.49-.24-.16C133,55.52,132.45,56.35,133.67,53.44Zm-1.58,5.39a2.16,2.16,0,0,1,.17.73C132.25,60,131.86,58.3,132.09,58.84Zm.93,3.33s-.36-.76-.37-.78c-.37-.79-.32-.5-.26-1.38,0-1.52-.71-1.8-.5-3,.29-1.62.83-2.06.77-1.59a19.26,19.26,0,0,0-.06,2.48c0,.49,4.39,8.64.54,5.5C133,63.21,133,62.41,133,62.16Zm4.86,1.14c.8-.69-1.29,1.57-1.54,3.31,0,.28-.38,1.95-.62,1C135.58,67.06,137.49,63.64,137.88,63.31Zm-4.48.91c1.72,1.23.65,4.09.51,3.63C133.7,67.15,132.82,63.8,133.4,64.22Zm1.14,3.17c.49-3.26-.11,1.32-.09,1.6C134.55,70.51,134,69.7,134.53,67.39ZM135,67c.27,1.09-.92,4.19-.36,1.61C134.94,67.38,134.79,66.06,135,67Zm-.46,3.57a6.58,6.58,0,0,0,.47-1.52c.35-2,.56,0,.56.32S134.52,70.89,134.56,70.58Zm.2.17c.45-.54,1-1.23.06,1C134.65,72.17,134.43,71.14,134.76,70.75Zm4,1.37a2,2,0,0,1-.5-1A12.1,12.1,0,0,1,139.91,70s-1.55.83-1.52.63,2-2.14,2.2-1.91,0,.31.12.59c.16.51.33.69.16.68s-.22.17.05.18c.62,0,.24,2.25.82,3.77.21.54.41.52-1.38-.54-1.44-.85-1.45-.86-1.42-1.14S138.81,72,138.8,72.12Zm7.26,9a2.84,2.84,0,0,1-.85,1.57c-.84.92-.83,1.17-.45-.61l-.56-4c-.15-.49.64-1.77,1.12-2.38,1.26-1.62.77-.53.58.59a2.26,2.26,0,0,0,.46,2.12C147,79.59,146.26,80.28,146.06,81.07Zm.91-1.61c.23.41-.55,1.84-.84,2.17S146.89,79.33,147,79.46Zm1.74,1.76c-.09,0,.22-.22.29-.28s.44.24.46.5-.38,0-.56,0S148.73,81.22,148.7,81.23Zm.79,5.43c0-.1-.18-.08-.17,0s-.29,0-.65-.08c-.83-.23,2.32-.86,2.2-.7A7.67,7.67,0,0,1,149.5,86.66Zm.9.18c-.06.31-.9.11-.35-.15S150.49,86.4,150.4,86.84Zm-4.2,7.81c.08-.16.31-.19.6-.24.62-.1-.11.6-.41.92C145.42,96.47,145.25,96.69,146.2,94.65Zm1.22,1.15a2.09,2.09,0,0,0-.51.28c-.57.53-.41.47-.83.37C145.16,96.23,147.06,95.93,147.42,95.81Zm-1.6,3.88c.22,0,.09.06-.3.08C144.85,99.79,144.67,99.54,145.82,99.69Zm1.09-1.45c.64,0-1.26,1.08-1.54,1S146.12,98.23,146.9,98.24Zm.93,1.64c.36.1-.59.5-.89.64a8,8,0,0,1-2.76,0C144.72,99.69,147.55,99.8,147.83,99.88Zm1.19-.44c0-.19,1,0,1.2,0C151.11,99.69,149,99.69,149,99.44Zm2.24.4c.26.09-1.2.06-.82,0A2.41,2.41,0,0,1,151.25,99.85Zm-1.47-.1c.26,0,0,.16-.28.16S148.86,99.6,149.78,99.74Zm-.93,1.22c-.66.43,0-.26,0-.65S150.84,99.67,148.85,101Zm-9.57-6.56-.41.16c-.69.27,1.29-2.22,1.76-3.92s.44-.92,3.06-.92c1.11,0,1.13,0,.83.2a36.71,36.71,0,0,0-3.73,3.76c-.23.87-.24.79-1,.74-.15,0-.17-.11,0-.22s.22-.23.19-.25S139.37,94.39,139.28,94.4Zm-3.61,2.15c-.79.65,7.6-10.47,4.23-4.54C137.55,96.15,139.21,93.63,135.67,96.56ZM138.62,95c-.49.41-.3,0,.08-.19C138.85,94.72,138.82,94.81,138.62,95Zm-3.88-1.11c0,.64-.09.6-.1.1S134.72,93.23,134.74,93.87Zm-.79-.93c0,.24-.36.62-.22,0S134,92.66,134,92.94ZM132.1,91c-.16.07-.29.09-.29,0a18.1,18.1,0,0,1,.73-2.29C132.8,88.55,132.51,90.85,132.1,91Zm.24.18c-.46,2.95-.46,1.43-.51.32C131.82,91.23,132.37,91,132.34,91.2Zm2.08,2.57c0-.45.12.69.1,1,0,.09-.72,1-.81.92A16.49,16.49,0,0,1,134.43,93.78Zm-.21,1.62c.38-.47.33-.42.2.06C134.22,96.16,133.83,95.88,134.22,95.4Zm.33.6c.52-1.05.15-2.64.52-3.11,2.25-2.34,5.2-3.86,4.65-3.22S134.3,96.5,134.55,96Zm13.31-10.76c-.14,0,0-.17.12-.28s.07-.52.26-.55S148,85.22,147.86,85.23Zm1.19-1c2.73-.63-.36,1-.64,1S148.27,84.4,149.05,84.22Zm-1-.08c-.06.19-.95.31-.3-.17S148.18,83.86,148.07,84.14Zm-2.44,1.1c-.62-.16,1.52-.66,1.8-.71C148.73,84.33,147.53,85.72,145.64,85.24Zm2,.41c-.25.1-.28-.19.06-.21C147.91,85.42,147.81,85.6,147.67,85.65Zm.55,6.48c.36.21-1,.35-.43-.09C147.86,92,148.05,92,148.22,92.13Zm-.19-.75c.76-.14.09.53-.38.25C147.52,91.55,147.69,91.43,148,91.37Zm-.81.92h-.7c-1.14,0-.09-1.22,1-.61C148,92,147.39,92,147.22,92.29Zm-4.12,7.58c-.37,0,0-.12.42-.36S145.93,99.66,143.1,99.87Zm.87.52c-.19.27-.28.23-.44.19-.61-.13-2.28-.06-1.07-.48C142.64,100,144.19,100.09,144,100.39Zm-1-1.23-1.8,1.16c-.38.29-.7-.19-1-.18-1.09.07,0-1.24,1.28-1C142.35,99.38,145.21,98.62,143,99.16Zm-3.68,1.25a1.86,1.86,0,0,1,1.11,0C140.62,100.47,138.8,100.68,139.31,100.42Zm1.49-2.08c.65-2.45.73-2.46,1.61-2.31,2.39.42,2,0,1.33,1.12a2.91,2.91,0,0,1-2.24,1.79C139.5,99.13,140.59,99.13,140.8,98.34Zm2.64-7c.79-.26,2.07-2.12.39.36C139.82,97.64,142,91.82,143.43,91.37Zm-2.58,2.75a3.91,3.91,0,0,1,.76-1.09C142.57,92,140.46,95.63,140.85,94.11Zm3.51-3.89c.29-.19-.26.76-.85.95C143.31,91.24,144.16,90.36,144.36,90.23Zm.1,2.85c1.44-1.44,1.05.28-.49.87C143.68,94.05,143.19,94.34,144.46,93.08Zm-1.1.62c.46-.31,1.06-1,.75-.57C143.59,93.86,143,93.92,143.35,93.7Zm1.3-1c-.26.26-.24-.19.79-.7.33-.16.52-.16.41,0C145.49,92.54,145.13,92.2,144.65,92.68Zm-.22-.19A7.77,7.77,0,0,1,143,93.75C142,94.44,144.49,92.09,144.43,92.49Zm-2.14,1.89a6.4,6.4,0,0,0,.71-.29c1.75-.77-1,.64-1.31,1.31C141.2,96.46,141.92,94.44,142.29,94.38Zm2.29,1.94a2,2,0,0,1,.46,0c.07,0-.65.48-.72.53C143.62,97.42,144,96.93,144.58,96.32Zm.65-.66c.87-.89.12.62-.09.57S144.62,96.27,145.23,95.66Zm-1.07.46c-.4,0-.27-.07-.08-.13s2-2.08,1.79-1.28C145.78,95,144.63,96.16,144.16,96.12Zm1-1.33a6.24,6.24,0,0,1-1.4,1.15c-.32.1-2.05-.08-1.94-.33.6-1.29,2.68-1.24,3.62-2.67.4-.61,1.95-.85,1.17.42C145.47,95.16,145.68,94.25,145.11,94.79Zm.35-3.18c.45-.48.42-.65-.23,0-.2.21-.64.74-.6.46s-.13-.19-.16,0-.67.48-.86.57-1.22,1.41-.34.12c2.37-3.45,1.44-2.95,3.08-3.26.44-.09.64,0,.45.61C146.33,91.82,145.09,92,145.47,91.61Zm-3.25-3.32c-.15-.15.3-.26.51-.29s-.58.6-.42.43C142.31,88.41,142.28,88.35,142.22,88.29Zm.47.35c-.16-.07.69-.72.88-.74C146.9,87.48,143,88.75,142.68,88.63Zm1.14-1a6.36,6.36,0,0,1,1.12-.43s0,.11,0,.24c0,.3-.07.26-.49.25C144.28,87.66,143.67,87.71,143.82,87.59Zm-1.05,1.24s1.88-.6,1.92-.62c.29-.12.78,1.73-2.63,1.19-.8-.13-.76,0-.13-.43S142.58,88.74,142.77,88.82Zm2.19-.06c.11-1,.35-1,.17-.17S144.86,89.67,145,88.77Zm.52-.51c.1-.53.52-.54.14.07S145.38,88.81,145.49,88.26Zm-.54-1.56c-1.31.46-1.08.68-1.82,1s-1.32.38-.43-.16a14,14,0,0,1,1.26-1c.73-.46,1.12-1.48,1.17-.91C145.14,85.76,145.1,86.65,144.95,86.7Zm-2.19,0a3.29,3.29,0,0,0,.44-.81c.27-.27.66-.34.07.29S142.48,87,142.76,86.73Zm1.49-1.17c.27-.18.62-.25.1.12S144.1,85.66,144.24,85.56Zm1.12-.1c3.5.26,0,1.47,0,.72C145.32,86.1,145.27,85.46,145.36,85.46Zm.71,1.86c.47.07-.48.4-.46.25A.42.42,0,0,1,146.07,87.32Zm-.08-.64c.2-.06.25,0,.11.18C145.53,87.47,145.51,86.81,146,86.68Zm.77-.14c.13,0,.25-.1-.12.32C145.76,87.84,146.31,86.53,146.76,86.53Zm.18.37c.07-.1.21-.31.33-.33.28,0,2.8.37,1.1.48C148.08,87.07,146.45,87.55,146.94,86.9Zm.1-.64c-.19,0-.2,0,0-.12C147.67,85.32,147.47,86.22,147,86.26Zm-2.33-1.16c-.46.13-.41.27-.35-.47,0-.56,1.09-1.82,1-.94C145.32,84.15,145.16,85,144.71,85.1Zm-.79.23c-.62.16-1,.48.1-.75C144.17,84.42,144,85.3,143.91,85.33Zm-4.16,3.13c-1,.69-.49-2.31-.69-1.88.81-1.77-.27-.74,1.53-2.67.92-1.17,1.25-1.62,1.83-1.92.82-.42-.17-.2-.43.06-2.87,2.85-1.91,3.09-2.66,1.8-.28-.47-.35-.53.28-1,3.18-2.57-2,1.85.08-1.37a18.78,18.78,0,0,1,2.13-1.58,7.16,7.16,0,0,0-2.25,1.51c-.85,1.32-.37,1.54-.89.28-.2-.48-.32-.42-.13,0s.33.92-.15,1.49c-.25.29-.41.52-.5.29-.25-.68-1-2.81-1.14-3.26-.16-.74.2-.7,0-1.56s0-.13.26-2.22c.16-1.21,1.29-3.18,1.83-2.45C141.74,77.88,148.43,82.2,139.75,88.46Zm-1.86.69c-.49.49.15-.15.57-1.24s.47-1.09.48,0S138.65,88.4,137.89,89.15Zm.43.29c-1.37.55.06-.57.35-.66C139.15,88.64,138.6,89.33,138.32,89.44Zm.67-6c.08.39.65.77.33,1.86-.41,1.38-.19,1.27-1.12-1.1C138.09,83.94,138.94,83.25,139,83.46ZM138.9,83c0,.24,0,.2-.44.51S138.87,82.91,138.9,83Zm-2.26-4.12a3.56,3.56,0,0,1-.12,1c.69,3.19,1.77,3.69.2,2.82-1.22-.67-1-1.9-.42-3.52C136.54,78.47,136.54,78.5,136.64,78.92Zm1.11,4.84c.17.39-1.06.72-1.22-.06a5.44,5.44,0,0,0-.18-.83C136.25,82.53,137.6,83.41,137.75,83.76Zm-.16.41c-1,.94-1,2-.88.42C136.72,84.42,137.66,84.1,137.59,84.17Zm.21,0c.13-.09.25.25.31.4.82,2,.78,2.05.22,3.27a5.39,5.39,0,0,1-2,2.54c-1.18.76-1,.91-.66-.3C136.19,88.5,135.66,85.72,137.8,84.19Zm.32,11c-.26.64-1.07,1-2.64,1.76C135.19,97.08,138.51,94.22,138.12,95.2Zm3.43-.7c.52-.09-.59,1.18-1.19,1.3-.25.05-1.27,1.17-.52.35C141.31,94.54,140.79,94.63,141.55,94.5Zm-1.72,2.05c.29-.16-.53.78-.47.6C139.5,96.71,139.46,96.75,139.83,96.56Zm1.43-.22c-.52,1.13-.58,2.82-1.67,2.79s-4.86,2.26-1.35-.6C138.54,98.29,142.17,94.36,141.26,96.34Zm-1.59,3.39c-.3.45-.65.84-1.17.69-.34-.1-2.13-.19-2-.22C139.07,99.56,140.32,98.78,139.67,99.73Zm-1.3.8c.37.11-.75.23-1.48.65a1.77,1.77,0,0,1-1.87,0C134.51,101,136.56,100,138.37,100.53Zm1.47.12c1.24,0-.51,1.22-.79,1.19a12.15,12.15,0,0,0-2.13-.29C136,101.58,137.91,100.7,139.85,100.65Zm1.8-.07.81,0c1.47.09,1.27.13,1.05.46-.84,1.27-1.33,1.08-3,.91C139.73,101.9,141.36,100.6,141.64,100.58Zm2.26.28s1.71.11,2.36.11c1.8,0,2.44.22.51,1.31-.94.53-2.27-.3-2.55-.27C142.11,102.22,142.82,102.4,143.91,100.86Zm2.35,0a10.35,10.35,0,0,1-1.17,0C144.26,100.71,146.37,100.77,146.26,100.82Zm.62-.12c1.07-.47,2.58-1.2,1.65.08C148.26,101.14,146.65,100.8,146.87,100.7Zm1.88-1c.2,0,.16.3-.54.1C147.78,99.69,147.9,99.72,148.76,99.71Zm-1.78-.3c-.07-.28,1.92-.26,1.9,0S147,99.67,147,99.41Zm-5.24-.36c1.12-.11,5.48-5.28,2.32-.47C143.71,99.1,141.07,99.12,141.73,99.05Zm3.86-2.48s.2,0,.37,0C146.53,96.72,142.73,99.92,145.6,96.58Zm1.27-3.4a1.78,1.78,0,0,1,2-.67c.22.13-.71,1-1.12,1.39C147.49,94.15,145.81,94.88,146.86,93.17Zm1.78-1.5c.77-.25.94,0,.53.66C149,92.59,147.89,91.92,148.64,91.67Zm.48-.34a1,1,0,0,1-.35.15C148.32,91.63,149,91.11,149.12,91.33Zm.23,1.11.15-.25c.08-.13.19.39.18.55S149.24,92.62,149.35,92.44Zm.38-.86a.89.89,0,0,1,.7-.51s-.3,1.18-.37,1.65C149.85,93.54,149.65,91.89,149.73,91.58Zm-.41-.44c.11,0,.26-.07.24,0C149.52,91.42,148.93,91.21,149.33,91.14Zm-.9-.47c.54.51-.9.72-1.6.7s-.14-.24-.06-.51c.46-1.58.13-1.21,1.93-1.53,1-.17,1.11-.42,1,.73C149.63,90.57,147.27,89.56,148.43,90.66Zm-.56-1.53a4.89,4.89,0,0,1,1.21-.14C149.72,89.1,145.17,89.71,147.87,89.13Zm1.28-.29c-1.71-.28-5.07,1.88-3.17-.65.44-.59,2.45-1,3-1,0,0,.31-.18.34-.17a13.67,13.67,0,0,1,.2,1.87Zm.53-.87c-.16-1.2.7-.94.5.09S149.81,89.07,149.67,88Zm-.83-2.56a18.28,18.28,0,0,1,2.58-.16C151.25,86,144.61,87,148.84,85.4Zm.54-.39c.49-.36,2.4-1.5,2.34-1.22l-.13.6C151.43,85.18,149.1,85.22,149.39,85ZM152,83.75c1.06-.06.16,1-.13,1.09S151.87,83.75,152,83.75Zm.09-.27c.57-.29.9,0,0,.08C152,83.56,152,83.52,152.1,83.48Zm.59.48c0-.28.88-.33.2.19S152.63,84.35,152.7,84Zm.87-.14a3.61,3.61,0,0,1,.85,0c.28,0,1.08-1,.95.15s-.81.27-2.26.6C152.24,84.74,153.36,84.09,153.57,83.82Zm.13-.43c-.19.24-.94.22-.92.1C152.86,83,153.86,83.18,153.69,83.4Zm-.56-.56c.54-.92,1-.41,1.56-.67l-.4.46C154.18,82.77,153,83.08,153.13,82.83Zm-.59.23a.75.75,0,0,1-.27,0s.94-.72,1-.72S152.87,83.06,152.54,83.07Zm-.49-.06a9.94,9.94,0,0,1-3.51,1c-.13-.05-.48.46-.12-.19.56-1-.47-.09,2.09-1.13C152.92,81.75,152.46,82.71,152.05,83Zm-1.64-.4c-1.95.79-1.2.46-1.07.19.44-.92.28-.84.75-.75C150.83,82.2,151.67,82.11,150.41,82.62Zm-1.24-.75c.68.14-.4,1.61-.47.82a3.48,3.48,0,0,1,.18-.71C148.86,81.81,149,81.83,149.18,81.87Zm-.68.28c.11,1.25-.18,1.21-1.08,1.78C142.58,87,148.34,80.4,148.5,82.15Zm-.84-.29c-.62.61-1.08.42-1.8,1.6-.45.75-.35.45-.31-.08C145.6,82.59,148.12,81.41,147.66,81.86Zm-2.75,1.55s-.09,0,.29-.45S145.61,82.8,144.91,83.41Zm-1.21,1c-.19.22.69-1.85.55-2.35-.86-3-.88-2.84-.69-3.69.15-.67-.29-1.37-1.27-3.48a17.42,17.42,0,0,1-1-4.71c0-.05.18-.05.2,0C142.83,71.52,145.48,82.41,143.7,84.41ZM141.17,69.8c.28.29-.08.23-.28-.42v0A1.41,1.41,0,0,0,141.17,69.8Zm1.09,5.36c4.06,8.68-3.82-1.66-3.54-2.07a1,1,0,0,0,.2-.44C139.08,72.95,141.67,73.93,142.25,75.17Zm-3.8-2a12.87,12.87,0,0,1-.22-1.53c0-.14.55.72.52,1A.89.89,0,0,1,138.45,73.15Zm-.29-.85c.24,1.54-.48-1.72-.09-1.07A8.85,8.85,0,0,0,138.16,72.3Zm-.24.33c.53.76.55.55-.14,1.59s-.35-.9-.25-1.67C138.07,70.13,137.66,72.27,137.91,72.63Zm-1.51,2.23a16.54,16.54,0,0,1-.38,2.39C136.17,70.53,137,70.13,136.4,74.87Zm-1.64-2.29c0-.28.82-2.88.78-1.42C135.5,72.38,134.8,72.86,134.76,72.58Zm.47,0c.27-.23.27,0,.26.45,0,.28-.24,4.95-.24,2.85C135.24,74.93,134.53,73.15,135.22,72.55Zm-1.47,1.25c-.73,1.32-.93,2.36-1.48,2.55-.1,0-.79.17-.75.08C134.4,69.26,134.06,73.26,133.75,73.81Zm-2.92,2.65c-.13,0-.22,0-.2-.07C131.06,75.58,131.11,76.48,130.83,76.46Zm.54.6c-.08-.32.08-.41.41-.45s.53-.13.4,0-.71.65-.74.6A1,1,0,0,1,131.37,77.05Zm.2.64c.23.29.37.62,0,.22S131.35,77.41,131.57,77.7Zm.86,1.33s-.27-.49-.31-.53a3.57,3.57,0,0,0-.42-.9c-.23-.29.59-1.1,1.89-1.54.09,0,.72-.29.68-.38s-.64.2-.73.24c-.29.1-.9.34-.65,0,0,0,.22-.29.23-.31a5.46,5.46,0,0,1,.84-1.91c.15-.27.09-.3.23.67.07.47.12.85.12.84-.48-.51-1-.58-.42-.12.24.19.45.31.49.6.07.47,0,3.89,0,3.61,0,1-1-1.55-.82-1.55-.09,0,0,.68,0,.77,0,.28,1.18,1.83.65,1.79-.09,0,0-.32-.12-.32s-.07.07-.08.15-.16.14-.36.13C132.79,80.22,132.74,79.55,132.44,79Zm1.24,1.61c-.14-.12-.14-.21,0-.2C134,80.46,134,80.93,133.67,80.63Zm1.67,3.17.23-1.28c.05-.29.52,0,.62.31C136.84,85,135.1,85.16,135.34,83.81Zm-1.88.7a3.24,3.24,0,0,1-.71,1.72,2,2,0,0,1-.46.24C132.27,86.4,133.84,82.37,133.46,84.51Zm-.7,1.88c.49-.3.19,1,.11,1.41,0,0,0,.28-.05.24C132.68,87.61,132.27,86.69,132.76,86.39Zm1.74,3.07c.2-.27.17-1.36,0-.44-.06.28.31-3.87,1.38-4.24,1.8-.63-.17.88,0,4a8.2,8.2,0,0,1-1.42,3.72C134.18,92.75,134,90.23,134.5,89.46ZM131.56,88c.19-.27.3-.92.59-.3s.45.81.25,1-.4,1.73-.52,1.07c-.45-2.57,0,.39-.18.82C131,92.59,130.42,89.66,131.56,88Zm-.34,3.52c.89-.5.54,1.64.28,2.6C131.06,95.79,131.18,91.58,131.22,91.56Zm3.07,6.84c.81-1.2,1-1.18,1.25-1.3.67-.33,1.44-.75.49.05C134.73,98.25,133.36,99.78,134.3,98.4Zm2.05-1.33c6.3-5.29,3.67-.8,2.78-.32a8.4,8.4,0,0,0-1.74,1.18c-.07.05,2.29-2.55,2.24-2.6s-2.66,2.8-2.88,2.85S130.81,101.72,136.35,97.07Zm-3,2.76a.54.54,0,0,1,.51-.17C134.22,99.67,132.84,100.54,133.33,99.83Zm-.45,1.2a3.55,3.55,0,0,1,2.26-1.5c6.73-4.54,3-1.42,2.29-.43C136.47,100.38,132.65,101.42,132.88,101Zm-.33.57c.26-.44.82-.43.43-.3S132.11,102.35,132.55,101.6Zm-.78,2c-.25-.05-.46,0-.18-.64s.12-.47.93-1c1.82-1.11,2.36-.66,3.33-.25.8.34,5.54-.73.89,1.47C135.17,104,134.86,103.95,131.76,103.59Zm8.52.43a2.4,2.4,0,0,1-1.54.24,17,17,0,0,0-2.69-.07c-.51-.09,2-.91,3.13-1.74.63-.48,1.31-.28,3.07-.18A17,17,0,0,1,140.28,104Zm2.47-.51c-.66.16-2.23.66-1.09-.36.86-.78,1.13-1.24,2.51-.49C145,103.1,143.4,103.36,142.76,103.51Zm7.7,0c-.81.2-.34,0,.28-.48C151.78,102.29,151.23,103.32,150.46,103.51Zm.2-.6c-.53.4-.78.61-1.25.49s-7.05,0-2.06-.45C148.67,102.95,150.79,102.82,150.65,102.92Zm-2.45-.84c-2.06,2.22-7-.88-2.53.53C146.95,103,150.55,99.55,148.2,102.08Zm2.42-1.07c-1.37.26-1.73.1-1.62,0,3-1.92,2.29-.43,3.73-.86C153.27,100,153.2,100.71,150.62,101Zm3.29-1.37c-.17.05-.23,0-.15-.05.5-.48-.53.26-1,.39-1,.3-2.59-.71-1.19-.23.08,0,3-.57,3.06-.6A1.73,1.73,0,0,1,153.91,99.63ZM157,96c0,.28-.18.39-.45.37s-.28,0-.26-.07S157,95.84,157,96Zm-.55.53c.39,0,.24.31-.16.26S156,96.49,156.41,96.52Zm-.26,1c-.75,1.32-2.57,1.92-1.57,1.32a13.73,13.73,0,0,0,.89-1.3C156,96.65,156.56,96.78,156.14,97.52Zm-1-.85a7.48,7.48,0,0,0-1.28,0C154.5,96,157.07,96.87,155.15,96.67Zm-1,.13c1.82-.29,1.26.56.52,1.6s-4.17,1.5-2.84.87c.25-.12.43-.24.41-.27s-.85.42-.14-.2c1.08-.94.22-.71,1.18-1.62C153.74,96.78,153.6,96.9,154.18,96.8Zm-1.09.1c.11-.46.55-.25.19.09C153.12,97.13,153,97.1,153.09,96.91Zm.1-1c-.11.37.07.49-1.42.53C149.65,96.48,153.32,95.45,153.18,95.9Zm-1.66.67c.83,0,1.44.17,1.38.42-.4,1.64-1.74,2.41-2,2.32-.08,0,.64-1.2,0-.38-.13.17-.95.06-1.84-.24C147.54,98.16,147.8,96.66,151.53,96.57Zm-2.66,2.23c3,1-.16.18.12.21-1.62-.15-4.67,1.06-2.07-.32C147.21,98.53,146.94,98.14,148.87,98.8Zm-4.33.3c-.73-.14,1.13-2.61,4.18-2.63C149.48,96.47,144.82,99.16,144.54,99.1ZM149,96.21c-.09.32-.87-.1-1.13,0-1.68.57-1,.06-.43-.16S149,96,149,96.21Zm.3-1c-.09.3-.18.79-.52.72-.92-.2-1,.1.15-.84C149.47,94.58,149.33,94.9,149.25,95.17Zm.25-.9c0,.17-1,.92-.78.59.42-.71-.25.43-1.35.81-1.74.6-1.3.3-.28-.8.72-.78,2.65-1.11,1.26-.88-.57.1-.42,0-.25-.22.41-.41,1.61-1.78,1.51-.25A1.89,1.89,0,0,1,149.51,94.28Zm.21-.12s.3-.67.33-.79.14-.07.28,0C150.62,93.54,149.71,94.33,149.72,94.16Zm.77-2.62c.23-.59.36-.52,1.09-.28C153,91.72,149,95.42,150.5,91.53Zm.56-.6c-.18-.06-.51,0-.18-.13C152.35,90.11,153.41,91.71,151.06,90.93Zm-.88-.53a2.48,2.48,0,0,1,1-.34C150.82,91.22,149,91.12,150.18,90.4Zm.64-.43c-.65.16-1,.6-.8-.2s.88-.56,1.26-.7C151.5,89,151.28,89.86,150.82,90Zm-.18-1c-1.37,0,.84-.19.84-.18S150.79,89,150.64,89Zm1.22-.33a2.3,2.3,0,0,1,1.23-.54A7.94,7.94,0,0,1,151.86,88.66Zm.11-.3c-.29.2-1.82.73-1.62-.3.16-.82.36-.67.61-.61C155,88.26,153,87.64,152,88.36Zm-1-1.11c-1-.28.16-1.44,1-2.09.5-.39,4.8-1.78,2.49,1.55C153.54,88.08,154.15,87.86,151,87.25Zm6.42-.56c-.27.17-1.09.38-.49.13C157.22,86.7,158.17,86.22,157.43,86.69ZM159.72,85c-.32.11-.16,0,.8-.45C161.25,84.22,161.27,84.48,159.72,85Zm2.16-1.51c.28,0,.77.09.5.25C160.15,85.1,160.79,83.3,161.88,83.49Zm-1-.17c.8.14-2.84,2.74-1.5,1.45a18.24,18.24,0,0,0,1.25-1.46S160.74,83.29,160.91,83.32Zm-.43-.07-1.91,2.36a13.44,13.44,0,0,1-3,1.63c-2.17,1.08-1.45.24-.32-1.39.25-.35-.51-1.45,1.94-1,.56.1.76-.16-1.06-.26C155,84.5,154.83,82.28,160.48,83.25Zm-5.08-.93c.26,1-.06.77-.35.93-1.46.8-1.51,0-.48-.06.69,0,.64-.19.07-.18s-.44-.13.1-.28.43-.29.07-.19.15-.24.22-.5S155.29,81.89,155.4,82.32Zm-.4-.79c-.21.73-.51.48-1,.53s.15-.35.5-.6.27-.38.27-.38S155.12,81.09,155,81.53Zm-.91-.13c.09-.38.64-.56.35-.28C154.39,81.16,154.07,81.45,154.09,81.4Zm1.18-.2a.51.51,0,0,1,.24,0C155.91,81.14,155.13,81.93,155.27,81.19Zm.44-5.46c.19-.25.32-.43.41-.06.57,2.27.44,1.46-.75,1.41C154.71,77.05,154.74,77.25,155.7,75.73ZM155,77.21c.06,0,1.11.18,1.21.21s.18,1.69-.44,2.39c-.14.16-.91,1-1.12,1A31.83,31.83,0,0,1,155,77.21Zm-1.08.06c.28,0,.85-.11.81.28A14.11,14.11,0,0,1,154.5,80c-.28,1.23-.2,1-.73-1.59C153.68,78,152.53,77.36,153.87,77.27Zm-1.19-.12-.5.2C151.76,77.53,152.19,76.68,152.68,77.15Zm-1.36,1.35a1.83,1.83,0,0,1,.92-1c1.31-.55,2.11,3.24,1.36,3.08-3.93-.89-3.82-.12-2.36-1.82A2,2,0,0,0,151.32,78.5Zm-1.2,1.34c-.13.15,0,.24-.3.39S152.76,76.78,150.13,79.84Zm2.2.64c1.57.38,2,.29,1.42,1.09a1.24,1.24,0,0,1-.83.51c-.18,0,.32-1,.28-1s-.57,1.07-.66,1.09a11.27,11.27,0,0,1-1.84-.3c-1.3-.29-1.17-.34-.85-1S151.57,80.29,152.33,80.47Zm-2.64.32c-.09.2-.21.27-.28.15C149.27,80.66,149.92,80.3,149.7,80.79Zm-1.36-1.49c.95,1.66.68,1.18.22,1.65-.09.1-.88-1.12-1-1.06s.8,1.23.65,1.39c-.43.44-.46.22-1.17.49s-1.48,1.12-1.36.77a21.4,21.4,0,0,0,1.46-2.31c0-1.08-.35-1.35,1.18-2.71C148.57,77.34,148.12,78.92,148.34,79.3Zm-1-6c.22.29,1.67,3.55.52,4.38-.62.45-.76,1.66-1.39.56-1-1.74-.12-1.8-.17-3.86A9,9,0,0,1,147.38,73.31ZM142,70.43c-.29-.4,3.68-1.69,4.14,3.54,0,.56-1.77,2.41-1.84,2.69C143.67,79.06,143.52,72.53,142,70.43Zm-.67-4a9.94,9.94,0,0,1-1,1c-.15-.23,0,.4-.21.13-.62-.93-.16-.54-.75-1-.81-.68.19.36.56,1,.09.13.15.2,0,.35-1.3,1.33-1.25,1-1.1,0,.05-.42-.29-1.27-.19-.39.18,1.57-.83,2.8-1,2.27-.09-.31-.24-.31-.12.1s.13.46-.06.27-.25,0-.09.11-1.12,2.82-1,.18a4.26,4.26,0,0,1,1.41-2.76c-.1-.1-1.37,1.33-1.37,1.24a2.16,2.16,0,0,1,.05-1.53c.37-1.15,0-1.26.87-2.54,1.55-2.13,6.6-.68,6.39-.41-.09.1-1.23,1.42-1.36,1.47S141.36,66.42,141.31,66.47Zm8.91-2.72c-2.54,1.23-1.19,1.56-5.34,2.54C135.37,68.52,151.27,63.24,150.22,63.75Zm-2.51,2.17a10.75,10.75,0,0,1,3.45-2.3C154,62.23,147.71,65.92,147.71,65.92ZM153,62.31c-.44.45-.18.41-1.87.22-2.29-.27-1.79-.36.23-.47C153.57,61.93,153.49,61.75,153,62.31Z"/><path class="cls-15" d="M84.09,101.18c-1.83,4.82-3.26,9.66-2.86,7.86.11-.49-.11-.54-.22,0a4.21,4.21,0,0,0-.07,1.07c0,.05-.26.87-.26.83,0-4.73.22-4.63.22-4.63-.46-1.63-.12-.05-.23.39s-.12,6.66-.48,5.84-2.29-3.69-2.35-5.24c0-.77-1-.57,2.21,5.28.16.37-1.8,2.2-1.65,1.93.5-.89-1-3.41-1.15-3.69-1.06-2.38,1.46-3,.29-9-.06-.31-1.55-2.35-.53-.62,1.78,3-.27,10.27-.69,6a27.18,27.18,0,0,0-1.82-2.54,23.6,23.6,0,0,1,1.72,2.95,8.15,8.15,0,0,0,.63,1.76c-.54,2.1,3.11,3.72.49,6.2-.56.53-1.16,3.92-1.63,4.56-2.27,3.1.11-2.25.17-3.11a2.59,2.59,0,0,0-.08-1.7,9.22,9.22,0,0,1-.18-2.66c-.29,1.9,0,.56-.63-.56-.31-.58-.4-2.7-.42-1.46s1.4,4.74,1.15,6.36c0,.62-.94,4-1.18.54a73.93,73.93,0,0,0-.92-10.69c.17-1,0-1-.14,0-.21,1.27.67,3.86.38,3.37s-.36-.33-.1.11c.56,1,1,10.74.58,10.92l-1.45.55s-2.47,1.88-2.48,1.9c-.17.37-.61,1.42-.63,1a30.41,30.41,0,0,1,1.54-9.12c-.39-3.42,0-.08-.46,1.1-.94,2.36-.53,2.68-1.1.5-.12-.45-.83-1.76-1-1.69s1.55,2.71,1,4.53c-.25.8-1.54-2.53-1.66-2.91a5.83,5.83,0,0,1-.09-2.29c-.63-1.6-.15,0-.19.42-.13,1.34-.13,1.05.13,1.92.38,1.28,1.66,3.35,1.5,3.86-.09.29-.34-.75-.42-1a4.37,4.37,0,0,0-1.82-1.46c-.82-.39-1.94-1.47-.79-.22.46.5,2.82.3,2.89,4.16,0,1.34,0,1.85-.06,1.53-.13-1.11-4.46-7-4.34-8.58,0-.21.06-2-.15-1.93,0,0,0,1.43,0,1.92s-.67-.75-.91-1.77.14-2.34-.32-.76a29.51,29.51,0,0,0,1.24,3.73c5.1,8.19,4.08,7.08,4.73,10.08.29,1.35.67,2-.4,1.2-.24-.17-.47,0-.66-.38s-1.05-1-1.14-1.44c-.16-.79.21.18-.4-1.66s0-1-.47-2.62a7.45,7.45,0,0,1-1.66-2.58s-.63-1.41-.64-1.43a8.26,8.26,0,0,0-1.16-1l-.41,1.54c-.44,1.66-1.07-.29-1.44-.84-.56-.84-.43-2.5-.53-1.42-.15,1.49,1.76,2.87.55,2.72-1.74-.12-1.55-.21-2.19-2.28-.22-1-.36-1-.14,0,.24.78.83,2.14-.44,2.05s-1.84-1.26-1.44-.42c.09.18,0,.33-.13.31-.38,0-.41.12,0,.15s.48.34.6.6S59.87,120.84,60,121c.3.34-1.12-.41-1.45-.63a13.84,13.84,0,0,1-1.5-1.21c-.9-.69.16.51,1.41,1.34,2.84,1.88.61,0,2.12,2.65.4.68.24.4-.85.24-2.22-.33,1.15.36,1.32.55a23.27,23.27,0,0,0,3.44,2.42c2.18,1-1.34,1.55-5.34-.07-.58-.08-2.26-.31-1-.2l.8.12a13.78,13.78,0,0,1-4.07-2.6L53.5,123a6.4,6.4,0,0,1-2.4-1.8c-.07,0,.61,1.06.43,1a18.65,18.65,0,0,0-1.9-1.06c-2.55-1.22-3-.48-2.2-.53,1.85-.11,4.71,2.46,5,2.59,8.74,3.85,1.6,2.27.67,1.74-2.07-1.19-5.25-2.13-3.34-1.11,0,0,.24-.27,2.83,1,.34.19-3.71-1.1-3.7-1.13-.12.23,2.28.91,2.53,1,2,.58,2.72.75,1.76,1a11.53,11.53,0,0,1-3.7.41c-2.87.82-3.58.33-4.94.47-1.59.17,1.88.21,2.72.17s3.12-.67,2.24-.3c-.37.16-2.33,2.3-3.38,2.37-.41,0-2-.55-.42.18,1.16.54,3.66-2.73,4.53-2.56a26.06,26.06,0,0,0,3.07-.53c.83-.25.94-.31,2.46.16a8.19,8.19,0,0,0,1.78.22l4.5,1.51c1.08,0,3.75-.15,4.45.35s1,.78.69.63a5.35,5.35,0,0,0-4-.16,1.38,1.38,0,0,1,.29-.06c3.21-.17,5.45.75,7.18,3.84-.24-.57-.26-.86.42.21.15.24.58.32.58,1,0,.42-.24.16-.51-.27.17.37.34.76.5,1.18.57,1.85.34,1.15,1,2.93,0,.16.19.7.24.84s-.16.06-.36-.08-.38-.25-.42-.46a2,2,0,0,1,0-.31c0-.23-.12-.72-.17-.95a2.92,2.92,0,0,0-.48-1.56,40.55,40.55,0,0,0-3.81-5.07c-.26-.14-.81-1-1.05-.82a1.61,1.61,0,0,0,.62.75,8.27,8.27,0,0,1,1.17,1.28c-.28-.3-.42-.24-.06.14s.67,1.09.58,1c-1.47-1.07-2-.62-3.62-1.55a11.14,11.14,0,0,1-1.24-.89c-.62.58,4.14,2.07,4.37,2.25a6.93,6.93,0,0,1,1.37,1.45c.59.42,1.59.71,2.08,3.55,0,0,.09.54.1.56s-.12-.29-.26-.18.28.43.29.55.11.51.15.68l.29.28a1.33,1.33,0,0,1,.22-.17c.26-.19.41-.05.52.26,0,.14-.1.19-.28.18q.34.18.69.33c.12-.18,1.19,0,1.62.17l1.3.56a5,5,0,0,0-.56.52l.11.08a5.91,5.91,0,0,1,.61-.54c.23-.16,1.54-.28.36.39l-.61.34.1,0,.06,0c1.24-.73,1.59-.74,2,0,.14.25,1.57,4.17,1,4.12-.33,0-2.06-.4-3.21-.66a1,1,0,0,1-.07.22c2.1.49,2.82.81,2.78,1l.29,0c1.54.11.18,1.79,2.48,3.71.66.55.39.67.28,1.33a7.19,7.19,0,0,0-.09.81l.15.12c0-.79.1-2,.7-1.27s0,.52-.44,1.5l.15.15c.34-.79.68-1.21.91-.94a8.21,8.21,0,0,1,1.88,2.7,5.75,5.75,0,0,1,1.34,1.7c1.11,2,1.39,4.49,1.89,6.71.4,1.75,1.58,6.55,2.56,5.51-.21-1.07-.38-2.14-.53-3.2-.18-1.33-.56-3.26,0-4.56.44-1.09,1.52-1.58,2.46-2.3,1.37-1,3.34-2.21,4.37-3.61,2.28-3.67,2.88-4.18,6.5-6.57l.93-.63.42-.57s.08-.57.08-.6c.09-.69.13-.7.64-.93l1-.46,0,0c.09-.17.26-.4.43-.64a6.39,6.39,0,0,1,1.61-1.35,2.33,2.33,0,0,1,.34-.24c.21-.14,1.07-.86,1.26-1a1.11,1.11,0,0,1,.58-.25c.49-.12.46-.26,0-.14,0,0-.39.09-.4.11a22.51,22.51,0,0,1-3.26,2.34s-.26.45-.27.47c-.31.57-.28.57-.66.75l-1.08.5-.05,0s0-.06,0-.11a4.15,4.15,0,0,0-.15-.39c-.19-.48-.3-.37-.19-.1s-.12.53-.17.72c-.17.68-1.95,2.22-2.48,2.67-.27.23,0-.14,0-.76a2,2,0,0,1,.65-1.68l.73-.49c.94-.63.39-.31.83-.68l.25-.22a6.93,6.93,0,0,1,.61-1c.3-.42.18-.51-.12-.08a4.52,4.52,0,0,0-.42.65c-.39.67-1.86,1.65-.35,0,0,0,.31-.71.32-.73a3.91,3.91,0,0,0,0-.41,1.63,1.63,0,0,1,0-.41s.51-.76.51-.79a7.18,7.18,0,0,1,.41-.66,11.76,11.76,0,0,1,1.11-1.51,9.71,9.71,0,0,1,2.74-2,17.64,17.64,0,0,0-2.11,1s-1.45,1.82-1.46,1.85c-.2.3-.65,1.07-.56.4a10.66,10.66,0,0,1,.67-2c.31-1,.17-1-.14-.05-.21.66-.5,1.34-.42,1a1.73,1.73,0,0,0,0-.21,5.56,5.56,0,0,1-.17-1.44c.11-.08,0-.19-.05-.13s-.14-.27-.08-.31,0-.17-.07-.16a2.06,2.06,0,0,1-.05-.24,1.4,1.4,0,0,0-.11-.17c-.1-.15.35-1.41.31-1.42s-.18.23-.3.54-.45.25-.72-.15c-.66-1-.8-.91-.09.12a1.35,1.35,0,0,1,.19,1.62.49.49,0,0,0,0,.15c0,.16-1,.83-1.09.94l-.46.63a.59.59,0,0,0,0,.17c0,.18-.47.3-.56.12s-.05-.1-.16-.35.47-.84.66-1.05c0,0,.5-1.47.51-1.49s0-.39,0-.41c0-.52-.13-.51-.14,0a4.6,4.6,0,0,1-.84,2.21c-.38.43-.93-.76-1.07-1.07.13.31.64,1.56.25,2,0,.05-2.07,3-2.07,3-.68,3.17-.82,2.61-.72,2.26.62-1.73.53-1.37.51-1.86a1.18,1.18,0,0,1,.2-.66c-.07-.09-.25.17-.31,0s.34-.52.39-.7c.5-1.71-.14,0-.31.21s-.88-1-.7-1.88c.14-.72.35-.7.66-.75a.07.07,0,0,0,.05,0,5.69,5.69,0,0,0,.31-.8l.1-.37a10.88,10.88,0,0,1,1.45-1.93,8.63,8.63,0,0,0,1-1.19c.61-.71.48-.5.64-1,.33-1-.22.27-.75.89a8.64,8.64,0,0,1-1,1.19c-.64.68-1.24,1.56-1.2,1.35a31.05,31.05,0,0,0,1-3.14c.25-1,.12-1-.14,0-.33,1.25-1.07,3.29-1.07,3.29-.08.41-.18.77-.27,1.11-.14.49-.75,1-.54-.11a.07.07,0,0,0,0,0,8.79,8.79,0,0,1-.21-1.81c.12,0,.06-.18,0-.14s-.1-.16-.14-.39c-.09-.54.71-1.18,1.14-1.51A25.24,25.24,0,0,0,102,131.9s-3.58,3.43-3.61,3.29-.16-.08-.13.07-1.15,1.23-1.26,1.33S97,136,97,136s2-1.88.46-.67a.53.53,0,0,1-.88-.56c.1-.17.42-.9.51-1.08s.27-.61.3-.64.91-.7.93-.75a11.8,11.8,0,0,1,2.35-3c1.19-1,2.46-1.74,1.46-1.28a10.7,10.7,0,0,0-1.84,1.43c-.4.37-1,1.21-.93.94a7.13,7.13,0,0,0,.41-.76c-.07-.06-.35.29-.09-.12a3.1,3.1,0,0,0,.17-.88c-.16-.05,0-.59,0-.75a4.62,4.62,0,0,1,1-2c.16-.25-.11-.66.38-1.19a1.27,1.27,0,0,0,.13-.15,1,1,0,0,1,.29-.39c.31-.29.19-.37,0-.2s-.15-.2.57-.64.63-.58,0-.19-.21,0-.43-.07a2,2,0,0,1-.64.72l-.58.35c-.2.12-.15.16-.28-.33a5.52,5.52,0,0,1-.38-1.45,10.37,10.37,0,0,1,.14-1.53c.17-1.54,0-1.55-.15,0a12,12,0,0,0-.15,1.93s.14.36.15.38a5.61,5.61,0,0,1,.33,1.14,1.32,1.32,0,0,1-.4.29c-2.79,1.64-1.31,1.58-.82-2.38.19-1.54,0-1.54-.15,0a11.6,11.6,0,0,1-.69,3,3.19,3.19,0,0,1-.6.84,17.64,17.64,0,0,0-1.19,1.31c-.71.84-.52.54-1.2.05a1.11,1.11,0,0,1-.42-1.07.19.19,0,0,1,.08-.11s.12-.22.13-.24c.15-.29.15-.27.9-.81l.65-.47a14.54,14.54,0,0,1,2-2.38c.44-.22.38-.38-.08-.15a4,4,0,0,0-.38.2,16.54,16.54,0,0,1-2.18,2.6c-.56.41-.37.18-.2-.06a8.32,8.32,0,0,0,.8-1.33c-.09-.06.23-.36.15-.43s-1.2,1.38-1.27,1.44-.29.26-.3.29-.1.25-.07.13.58-1.4.64-1.54.5-1.47.49-1.5-.12-.76-.2-.75a4,4,0,0,1-.18,1.48,10.6,10.6,0,0,1-.54,1.44,7.38,7.38,0,0,0-.53,1.64c0,.21,0,.16-.28.49-.1.14-.22.17-.27.07S94,126,94,126s0-.41,0-.51,0-.13,0-.56a.11.11,0,0,0,0-.05s-.2-.68-.21-.71a.12.12,0,0,0,0,0,2.76,2.76,0,0,0-.37-1c-.27-.37,0-.17.13-.38s.28-.54,1.48-1.2c.13-.07,1.59-1.09,1.5-1.19l-2.26,1.48c-.43.28,0-2.74,0-2.74s-.47,3-.52,3.06c-1.12,1.8-2.69-4-1.92-1.36,0,0,.21.75.22.76.18.25.69.94.36.74-1.54-.95-1.28-.71-1.35-2.05-.08-1.56,1-4.27-.2-1.21-.24.61.79,4.23-.9.23-.11-.27-3.16-2.85-1-.73,1.14,1.1,1.47,2.29,1.25,2.09l-.22-.19c-1.76-.88.32.13.77,1.19a8.67,8.67,0,0,1,.42,2.06c0,.17.2-.07-.6.72-1.68,1.63-1.22,0-1.52-2.15,0,0-.57-1.85-.88-3.23-.34-1.65-.72-1.72-.44-1.08,1.33,3.13-.64-.39-.89-1.72,0,0-.14-.76-.16-.78-1.34-2,.71,2.41,1.54,4.75,2.36,6.66-.87,4.73-2.08,1.55-2.71-5.48-2.9-5.54-.13.06.1.27.63,2.08,1.65,2.6,1.33.68,1.24.53-.9.44-3.41-.15-2.82,0,0,.14,2.48.09,2.52-.59,2.55,3.38,0,.1,0,1.53,0,1.62a7.3,7.3,0,0,1-.71-.26,2.39,2.39,0,0,1-1-.52,4.35,4.35,0,0,1-.91-1.67c-.56-.08-1.62-2.36-1.9-2.5-1.5-.75-.26-.13.55,1.08,1,1.49,1.24,1.74,0,.48-2-2-3.23,1.31-.85-6.22.26-1,.09-1.06-.18-.05-.15.47-.34,1.16-.29.09.11-2.78-.22,1.36-.3,1.71A7.91,7.91,0,0,1,83,124c-.14,1.21.14,1.52-1.46,1.16-1.79-.4-1.83-.26,0,.15.6.14,1.36.26,1.35.54-.11,2,0,.24-3.11-.74a2.66,2.66,0,0,0-2.46,1c-.36.54-.6.71-1.39.48-1-.28-1.14-.28-1-1.32.24-2,3.3-3.13,4.57-7.59,1.7-4.41.06-2.9,2.83-4.42,3.09-1.67,4.85-4.72,6.77-6,.08-.05,2.59-1.64,2.53-1.72a7.93,7.93,0,0,0-1.33.77c-2,1.29-1.55.87-4,3.41-7.21,7.53-5.85,2.13-3.61.82,1.21-.71-1.77,0-2.11,3.43a21.64,21.64,0,0,1,3.06-9.18c1.38-2.12,1.2-4.87.62-2.23a11,11,0,0,1-1.59,3.23c-.42.84,1.18-4.13,1.87-4.74S84.21,100.84,84.09,101.18Zm-31.2,22a1.38,1.38,0,0,1-.44-.29C52.05,122.32,58.22,125.54,52.88,123.15Zm3,2.75a12.65,12.65,0,0,1,1.39.14A3.29,3.29,0,0,1,55.84,125.9Zm49.47,19a.52.52,0,0,1-.13.56C105,145.64,105.24,144.72,105.3,144.89Zm-9.41-20.78a11.68,11.68,0,0,1-1,1.44C94.94,125,96.51,123.18,95.89,124.11Zm-19.06-5.38a9.36,9.36,0,0,0,.48-1.92c.28-.87,2.81-2.45,2.36-1.44-.25.56-2.25,3.26-2.25,3.26C77,121,76,119.93,76.83,118.73Zm-1.42,2.09c.57-.38-.7,2.6-.67,1.27S74.62,121.36,75.42,120.82Zm-5.57-.61c.19-.61.27.26.15.62S69.64,120.86,69.84,120.21Zm0,1.64a4,4,0,0,1-.17.82C69.19,124.35,69.68,118.79,69.84,121.85Zm-3.3,3.89a14.87,14.87,0,0,1-1.86-2.16c-.19-.2.71.25,1.68,1.38C67,125.67,67.32,126.31,66.55,125.74Zm-3.86-2.12c-.8-.37-2.81-2.65-1.62-1.59a17,17,0,0,1,3.38,1.5C66.94,126.07,63.78,124.12,62.69,123.62Zm3.72-.4a18.41,18.41,0,0,1,.65,2.21c-1.06-2.23-4.64-2.1-4.57-6,0-.43-.14-.41,1.45.45S66.64,121.43,66.41,123.22Zm-3.52-5.7c.11-.31.17-.67.68-.18s2.15,3.35.36,2.38S62.42,119.31,62.89,117.52Zm-.54,1.91c0,.48.09.64-.18.1C61.63,118.42,62.36,119.07,62.35,119.42Zm-2.75.84c-1.12-.75-1.88-1-2.13-1.48-.14-.29,2-.22,2.15.25C60.55,122.07,60.18,120.65,59.6,120.26Zm.25-.94c-.16-.52-.28-.72,1.56-.49.76.09,1.17,2.83,2.1,3.75.18.18.36.34-.28,0C60.65,121.37,60.8,122.33,59.85,119.33Zm2.27,5.14a2.15,2.15,0,0,1,.6.45C63,125.26,61.6,124.2,62.13,124.47ZM65,126.41s-.76-.35-.79-.36c-.79-.36-.57-.18-1.09-.88-1-1.18-1.71-.92-2.33-2-.83-1.43-.69-2.11-.44-1.71a19.3,19.3,0,0,0,1.56,1.94c.31.38,8.93,3.78,4,3.85C65.61,127.26,65.13,126.61,65,126.41Zm4.45-2.26c.17-1,0,2,1,3.52.15.24,1,1.73.14,1.13C70.1,128.5,69.35,124.65,69.43,124.15Zm-2.84,3.58c2.1-.17,3.13,2.71,2.73,2.44C68.72,129.78,65.88,127.79,66.6,127.74Zm2.91,1.69c-1.72-2.81.77,1.08,1,1.28C71.53,131.8,70.57,131.55,69.51,129.43Zm.13-.61c.9.66,2,3.79.76,1.46C69.81,129.16,68.85,128.25,69.64,128.82Zm1.95,3a6.58,6.58,0,0,0-.62-1.47c-1-1.73.46-.34.63-.12S71.75,132.11,71.59,131.85Zm.26,0c0-.7,0-1.62.7.74C72.68,133,71.85,132.36,71.85,131.85Zm4-1.56a2,2,0,0,1-1-.44,12.09,12.09,0,0,1,.48-1.93s-.65,1.63-.76,1.46.18-3,.45-2.88c.1,0,.22.22.47.38.45.29.69.31.56.42s-.05.27.16.11c.49-.38,1.64,1.57,3.06,2.35.5.28.65.13-1.4.48-1.65.28-1.66.28-1.82,0S75.76,130.21,75.82,130.29Zm11.32,2.16a2.84,2.84,0,0,1,.36,1.74c0,1.24.12,1.43-.74-.17l-3-2.67c-.43-.28-.65-1.76-.68-2.55-.08-2.05.25-.9.83.08s.86,1,1.72,1.32C86.93,130.69,86.78,131.72,87.14,132.45Zm-.34-1.81c.44.16.77,1.76.75,2.2S86.65,130.59,86.8,130.64Zm2.47.23c-.06.07,0-.32,0-.4.05-.26.49-.09.67.08s-.29.26-.4.39S89.28,130.85,89.26,130.87Zm4.11,3.64c-.07-.07-.19.06-.1.14s-.21.2-.56.36c-.78.37,1.22-2.15,1.23-2A7.67,7.67,0,0,1,93.37,134.51Zm.81-.44c.15.28-.62.66-.36.11S94,133.68,94.18,134.07ZM96,142.75c0-.17.12-.35.3-.57.41-.48.3.53.28,1C96.58,144.64,96.6,144.92,96,142.75Zm1.67.1a2.09,2.09,0,0,0-.21.54c-.1.77,0,.63-.4.82C96.23,144.62,97.49,143.17,97.68,142.84Zm1.28,4c.19-.12.11,0-.18.25C98.29,147.54,98,147.47,99,146.84Zm-.1-1.81c.5-.41-.27,1.64-.52,1.78S98.25,145.53,98.86,145Zm1.76.66c.34-.16-.13.76-.27,1.06a8,8,0,0,1-2.14,1.74C98.12,147.55,100.36,145.81,100.62,145.69Zm.62-1.1c-.11-.15.77-.66.94-.74C103,143.43,101.39,144.79,101.25,144.59Zm2-1.13c.26-.1-.88.82-.64.51A2.41,2.41,0,0,1,103.22,143.46Zm-1.19.87c.23-.14.06.15-.11.3S101.23,144.81,102,144.33Zm.07,1.53c-.23.75-.18-.19-.38-.53S102.79,143.59,102.09,145.86ZM90.55,147l-.21.39c-.36.65-.45-2.53-1.18-4.13s-.26-1,1.74-2.68c.85-.72.87-.72.77-.38a36.7,36.7,0,0,0-.42,5.28c.39.81.33.76-.3,1.22-.12.09-.2,0-.17-.14s0-.31,0-.32S90.62,146.95,90.55,147Zm-1.37,4c-.18,1-.94-12.9.3-6.2C90.36,149.47,90,146.47,89.18,151Zm1.23-3.1c-.11.63-.26.16-.07-.2C90.43,147.54,90.46,147.63,90.42,147.89Zm-3.68,1.65c.43.47.32.52,0,.14S86.31,149.06,86.74,149.54Zm-1.2-.2c.16.19.13.71-.15.16S85.36,149.12,85.54,149.34Zm-2.65-.27c-.08.15-.16.25-.19.22a18.1,18.1,0,0,1-.91-2.22C81.83,146.72,83.09,148.67,82.89,149.06Zm.3,0c1.55,2.55.57,1.39-.18.58C82.8,149.4,83.09,148.88,83.19,149Zm3.25.62c-.29-.35.53.45.7.67a3.36,3.36,0,0,1,0,1.23A16.45,16.45,0,0,1,86.44,149.67Zm.89,1.37c0-.6,0-.53.19-.08C87.82,151.62,87.34,151.66,87.33,151Zm.64.24c-.28-1.14-1.59-2.11-1.61-2.72.21-3.24,1.49-6.3,1.47-5.46S88.1,151.83,88,151.28Zm3.24-16.81c-.1.09-.08-.16-.08-.29s-.28-.45-.16-.59S91.31,134.37,91.2,134.47Zm.26-1.54c1.68-2.24.34,1,.14,1.16S91,133.57,91.46,132.93Zm-.8.57c.08.18-.52.85-.34.07S90.56,133.23,90.66,133.5Zm-1.15,2.41c-.58.28.73-1.49.92-1.7C91.28,133.22,91.26,135.06,89.51,135.92Zm1.82-1c-.13.24-.34,0-.09-.2S91.4,134.78,91.32,134.92Zm4.6,4.59c.41-.07-.55.93-.39.21C95.55,139.64,95.73,139.54,95.92,139.51Zm-.64-.45c.49-.59.41.35-.13.44C95,139.52,95.07,139.32,95.29,139.06Zm0,1.22-.53.45c-.88.73-.86-.88.34-1.08C95.64,139.56,95.21,140,95.26,140.28ZM97,148.73c-.27.26,0-.11.09-.55S99,146.75,97,148.73Zm1-.16c0,.33-.07.35-.21.43-.55.29-1.78,1.42-1.13.33C96.76,149.16,98,148.2,98,148.57Zm-1.55-.3s-.61,2-.63,2c-.1.47-.66.31-.87.5-.79.75-.79-.95.36-1.56C96.12,148.84,97.81,146.42,96.46,148.27Zm-2,3.33a1.86,1.86,0,0,1,.83-.74C95.49,150.79,94.24,152.13,94.46,151.6Zm-.2-2.55c-1.08-2.29-1-2.35-.26-2.8,2.1-1.22,1.52-1.23,1.74,0a2.91,2.91,0,0,1-.56,2.81C93.77,150.48,94.6,149.79,94.26,149Zm-2.48-7c.44-.71.22-3,.53,0C93.05,149.15,91,143.26,91.77,142Zm-.2,3.77a3.91,3.91,0,0,1-.12-1.32C91.51,143,92.25,147.19,91.57,145.78Zm.18-5.23c.1-.33.29.75,0,1.27C91.6,142,91.68,140.78,91.75,140.55Zm1.91,2.11c.17-2,1-.46.18,1C93.69,143.91,93.51,144.45,93.66,142.66Zm-.44,1.19c.15-.53.16-1.45.21-.92C93.5,143.82,93.11,144.23,93.21,143.85Zm.34-1.61c0,.37-.31,0,.15-1,.15-.34.29-.45.31-.26C94.1,141.59,93.61,141.56,93.55,142.24Zm-.29,0A7.77,7.77,0,0,1,93,144.1C92.66,145.29,93,141.89,93.26,142.23Zm-.42,2.82a6.41,6.41,0,0,0,.36-.68c.84-1.72-.35,1.14-.16,1.84C93.35,147.36,92.6,145.34,92.84,145.05Zm3,0a2,2,0,0,1,.38-.26,5.16,5.16,0,0,1-.21.87C95.82,146.52,95.77,145.92,95.84,145.06Zm.07-.92c.09-1.24.49.4.3.49S95.84,145,95.91,144.14Zm-.52,1c-.33.23-.25.12-.15,0s.22-2.91.54-2.13C95.9,143.27,95.77,144.91,95.39,145.18Zm-.13-1.63a6.24,6.24,0,0,1-.33,1.78c-.18.28-1.62,1.27-1.69,1-.37-1.37,1.25-2.68,1-4.38-.09-.73.94-1.91,1.17-.43C95.77,143.6,95.35,142.77,95.26,143.55Zm-1.78-2.66c0-.66-.1-.77-.15.18,0,.29,0,1-.16.74s-.22-.07-.1.12-.2.8-.28,1,0,1.87-.18.32c-.41-4.16-.8-3.18.25-4.48.28-.35.46-.44.74.17C94.28,140.49,93.45,141.44,93.48,140.89Zm-4.63-.45c-.21,0,.06-.39.2-.55s-.05.83,0,.6C89,140.48,88.94,140.45,88.85,140.45Zm.58,0c-.17.05.07-1,.19-1.13C91.91,136.81,89.72,140.33,89.44,140.41Zm.2-1.53a6.35,6.35,0,0,1,.58-1.05s.09.07.17.17.12.24-.21.51C90,138.64,89.59,139.07,89.63,138.88Zm0,1.62s1-1.67,1.07-1.71c.14-.28,1.72.82-1.24,2.61-.7.42-.6.47-.37-.25S89.43,140.56,89.63,140.5ZM91.26,139c-.54-.8-.38-1,0-.24S91.77,139.8,91.26,139Zm.07-.73c-.26-.47,0-.75.16,0S91.61,138.81,91.33,138.32Zm-1.42-.85c-.7,1.2-.39,1.22-.77,1.9s-.77,1.14-.43.15a14,14,0,0,1,.34-1.55c.26-.82-.1-1.85.3-1.45C89.46,136.63,90,137.34,89.92,137.47Zm-1.65,1.44a3.28,3.28,0,0,0-.18-.9c0-.38.29-.68.24.18S88.23,139.29,88.27,138.91Zm.38-1.85c.09-.31.31-.59.15,0C88.68,137.55,88.6,137.22,88.65,137.06Zm.79-.8c2.85-2.06,1,1.11.44.58C89.81,136.78,89.37,136.32,89.44,136.26Zm1.74,1c.41-.25-.11.61-.18.49A.42.42,0,0,1,91.18,137.22Zm-.48-.44c.12-.18.21-.14.2.07C90.86,137.69,90.42,137.2,90.7,136.79Zm.5-.61c.1-.09.13-.24.11.32C91.28,137.83,90.85,136.47,91.2,136.18Zm.37.17c0-.12,0-.37,0-.46s2.38-1.52,1.15-.34C92.55,135.73,91.61,137.16,91.57,136.35Zm-.34-.55c-.14.14-.13.16-.12-.06C91.12,134.67,91.54,135.49,91.23,135.79Zm-2.53.61c-.27.39-.14.47-.57-.14s-.34-2.09.17-1.37C88.56,135.28,89,136,88.7,136.4Zm-.46.69c-.37.52-.45,1-.41-.64C87.85,136.23,88.3,137,88.24,137.09Zm-1.16,5.08c-.28,1.14-1.86-1.45-1.74-1-.53-1.87-.68-.39-.55-3a6.26,6.26,0,0,1,.16-2.65c.36-.85-.26,0-.29.33-.36,4,.53,3.59-.87,3.09-.52-.18-.61-.18-.45-1,.78-4-.33,2.7-.82-1.1a18.78,18.78,0,0,1,.61-2.58,7.16,7.16,0,0,0-.75,2.6c.2,1.56.71,1.42-.5.79-.46-.24-.52-.11-.07.12s.85.49.85,1.24c0,.38,0,.66-.19.55-.63-.36-2.6-1.47-3-1.76-.6-.46-.3-.66-1-1.18s-.1-.09-1.23-1.86c-.66-1-1.06-3.26-.18-3.06C81.78,132.8,89.68,131.79,87.08,142.17Zm-1,1.73c-.06.7,0-.22-.37-1.31s-.34-1.13.34-.35S86.2,142.83,86.11,143.9Zm.51-.06c-.69,1.3-.32-.48-.16-.73C86.74,142.7,86.77,143.57,86.62,143.84Zm-3.34-5c.31.25,1,.17,1.45,1.21.57,1.32.67,1.1-1.56-.12C82.89,139.79,83.1,138.71,83.28,138.85Zm-.34-.27c.19.15.12.16,0,.67S82.83,138.49,82.94,138.58Zm-4.38-1.69a3.56,3.56,0,0,1,.53.81c2.58,2,3.73,1.68,2,2-1.36.27-2-.81-2.59-2.42C78.19,136.6,78.2,136.63,78.55,136.89Zm4,3c.38.19-.35,1.23-1,.74a5.42,5.42,0,0,0-.68-.52C80.59,139.9,82.18,139.7,82.52,139.87Zm.14.42c-.16,1.37.51,2.15-.4.89C82.17,141,82.68,140.19,82.66,140.29Zm.17-.12c0-.15.35,0,.49.1,1.91,1,1.92,1.07,2.28,2.36a5.39,5.39,0,0,1,.13,3.21c-.41,1.34-.2,1.37-.7.19C84.39,144.5,82.19,142.72,82.84,140.17Zm7.34,8.2c.22.65-.19,1.43-.89,3C89.15,151.7,89.85,147.37,90.18,148.37Zm2.17-2.74c.34-.4.31,1.28-.07,1.77-.16.2-.21,1.71-.17.6C92.19,145.81,91.86,146.22,92.35,145.63Zm0,2.68c.12-.31.1.94,0,.77C92.21,148.64,92.21,148.7,92.36,148.31Zm1-1.09c.33,1.2,1.37,2.53.52,3.2s-2.25,4.86-1.42.41C92.49,150.47,92.74,145.12,93.31,147.22Zm1,3.62c.06.54,0,1.06-.45,1.28-.32.15-1.75,1.23-1.67,1.12C93.71,151.1,94.17,149.69,94.29,150.84Zm-.48,1.45c.35-.16-.43.66-.71,1.45s-.82,1-1.44,1.21S92.08,153.05,93.81,152.28Zm1.2-.86c.92-.83.39,1.26.16,1.42A12.14,12.14,0,0,0,93.36,154C92.7,154.6,93.57,152.72,95,151.42Zm1.33-1.21.64-.49c1.18-.88,1.05-.72,1.1-.33.17,1.51-.32,1.68-1.68,2.61C95.73,152.46,96.14,150.41,96.34,150.21ZM98.25,149s1.38-1,1.87-1.44c1.37-1.17,2-1.4,1.23.67-.38,1-1.93,1.23-2.13,1.44C97.75,151.17,98.42,150.85,98.25,149Zm1.77-1.54a10.38,10.38,0,0,1-.92.73C98.43,148.63,100.08,147.31,100,147.42Zm.4-.49c.51-1.05,1.2-2.58,1.31-1C101.76,146.38,100.31,147.15,100.42,146.94Zm.8-2c.15-.13.32.12-.35.43C100.46,145.58,100.57,145.52,101.22,145Zm-1.55.92c-.23-.17,1.31-1.44,1.46-1.21S99.88,146,99.67,145.89ZM95.43,149c.79-.8.78-7.57,1.47-1.86C97,147.75,95,149.47,95.43,149Zm1.36-4.38s.13-.15.29-.23C97.59,144.11,96.75,149,96.78,144.6Zm-1.23-3.42a1.78,1.78,0,0,1,1.08-1.8c.25,0,.07,1.19,0,1.78C96.67,141.54,95.86,143.17,95.56,141.19Zm.4-2.29c.43-.69.7-.63.84.16C96.84,139.35,95.53,139.57,96,138.89Zm.15-.57a1,1,0,0,1-.17.34C95.67,139.07,95.84,138.25,96.1,138.32Zm.89.7c0-.19,0-.13,0-.29s.4.18.49.31S97,139.23,97,139Zm-.26-.91a.89.89,0,0,1,.21-.84s.53,1.1.78,1.5C98.08,139.54,96.86,138.41,96.72,138.12Zm-.59-.07c.07-.09.15-.22.2-.13S95.87,138.35,96.13,138Zm-1,.22c.74,0-.22,1.13-.78,1.57s-.26-.09-.38-.35c-.66-1.5-.68-1,.49-2.41.62-.74.57-1,1.23-.08C96,137.42,93.54,138.17,95.14,138.26Zm-1.42-.81a4.89,4.89,0,0,1,.83-.88C95.12,136.23,92,139.63,93.72,137.45Zm.79-1c-1.49.89-2.66,4.71-2.84,1.54,0-.74,1.25-2.32,1.69-2.72,0,0,.12-.34.15-.35a13.69,13.69,0,0,1,1.36,1.3Zm-.16-1c-.89-.81-.07-1.17.44-.26S95.16,136.15,94.34,135.4ZM92.06,134a18.3,18.3,0,0,1,1.86-1.79C94.31,132.9,89.89,138,92.06,134Zm.16-.65c.14-.59.87-2.69,1-2.44l.29.54C93.9,132.13,92.14,133.67,92.22,133.32Zm1.19-2.66c.77-.73.74.62.6.91S93.31,130.76,93.41,130.66Zm-.1-.27c.25-.59.7-.56,0,.09C93.3,130.51,93.27,130.49,93.31,130.4Zm.77,0c-.14-.24.46-.82.28,0S94.27,130.72,94.08,130.39Zm.58-.67c0-.08.56-.52.63-.57.22-.18.2-1.44.82-.49s-.45.73-1.34,1.92C94.23,131.28,94.67,130.06,94.65,129.72Zm-.18-.41c0,.31-.58.77-.63.67C93.6,129.56,94.46,129,94.47,129.31Zm-.79-.07c-.18-1.05.51-1,.77-1.52,0,0,0,.52,0,.61S93.73,129.53,93.69,129.24Zm-.3.56c-.11.1-.21.17-.21.16s.25-1.16.27-1.17S93.63,129.58,93.39,129.8Zm-.41.27a9.94,9.94,0,0,1-2,3.06c-.13,0-.07.66-.22-.07-.22-1.14-.42.23.87-2.22C92.82,128.55,93.09,129.58,93,130.07Zm-1.51.75c-1,1.86-.62,1.13-.7.84-.26-1-.33-.82.09-1.06C91.52,130.24,92.09,129.63,91.47,130.83Zm-1.43.23c.61-.34.73,1.49.16.93a3.48,3.48,0,0,1-.32-.66C89.76,131.22,89.87,131.15,90,131.06Zm-.34.65c.89.88.64,1,.32,2.05C88.28,139.2,88.45,130.47,89.7,131.71Zm-.83.32c-.08.86-.56,1-.35,2.38.13.86,0,.57-.29.14C87.77,133.91,88.93,131.39,88.87,132Zm-1.1,3c0,.06-.09,0-.07-.53S87.91,134.06,87.77,135Zm-.28,1.55c0,.29-.66-1.86-1.09-2.15-2.58-1.73-2.5-1.6-2.9-2.37-.32-.61-1.1-.86-3.21-1.84a17.42,17.42,0,0,1-3.77-3c-.06,0,.1-.15.14-.15C78.51,127.24,87.56,133.85,87.49,136.53ZM76.13,127c.41,0,.09.23-.48-.14l0,0A1.42,1.42,0,0,0,76.13,127Zm4.29,3.4c8.7,4-4,1.2-4,.7a1,1,0,0,0-.13-.46C76.57,130.75,79.18,129.83,80.42,130.4Zm-4.21.91a12.88,12.88,0,0,1-1.16-1c-.07-.12.89.2,1,.42A.89.89,0,0,1,76.22,131.31Zm-.77-.46c1.18,1-1.48-1-.76-.76A8.85,8.85,0,0,0,75.44,130.85Zm0,.41c.9.24.78.07.92,1.31s-.85-.46-1.27-1.12C74,129.24,75,131.15,75.47,131.26Zm.29,2.68A16.56,16.56,0,0,1,77,136C72.78,130.77,73.17,129.93,75.76,133.94ZM73,133.25c-.21-.19-1.23-2.73-.32-1.59C73.46,132.62,73.24,133.44,73,133.25Zm.34-.32c.06-.35.18-.2.49.18.17.22,3,3.94,1.66,2.34C74.91,134.74,73.22,133.84,73.36,132.93ZM73,134.84c.29,1.48.81,2.41.51,2.9-.06.09-.49.64-.53.54C70.61,130.95,72.93,134.22,73,134.84Zm-.52,3.91c-.1.07-.19.11-.2.08C72.13,137.93,72.75,138.58,72.52,138.75Zm.8.11c-.26-.19-.21-.36,0-.61s.32-.44.33-.22a3.81,3.81,0,0,1-.18.94Zm.57.36c.36.08.68.24.12.19S73.54,139.14,73.89,139.22Zm1.52.46c-.05,0-.53-.2-.58-.21a3.57,3.57,0,0,0-.9-.42c-.36-.08-.26-1.22.46-2.4,0-.08.36-.68.27-.73s-.36.57-.4.65c-.16.26-.47.84-.49.42,0,0,0-.36,0-.38a5.46,5.46,0,0,1-.59-2c-.06-.31-.12-.28.61.36l.63.57c-.69-.08-1.14.2-.4.18.31,0,.55-.05.76.14s2.47,3,2.3,2.78c.64.8-1.75-.55-1.63-.66-.07.06.41.55.47.62s2.08.64,1.65.95c-.07.05-.22-.23-.3-.17s0,.1,0,.16,0,.22-.19.33C76.45,140.37,76,139.88,75.41,139.68Zm2,.43c-.19,0-.24-.07-.13-.16C77.55,139.74,77.84,140.11,77.39,140.11Zm3.32,1.35-.65-1.13c-.15-.26.39-.35.68-.16C82.61,141.39,81.4,142.65,80.71,141.46Zm-1,1.75A3.24,3.24,0,0,1,80.3,145a2,2,0,0,1-.2.48C80,145.42,78.64,141.32,79.73,143.21Zm.68,1.89c.18-.54.76.6,1,1,0,0,.16.24.12.22C81.13,146.08,80.22,145.64,80.4,145.1Zm3.31,1.23c0-.33-.75-1.15-.31-.31.13.25-2.26-3.16-1.68-4.13,1-1.64.44.79,2.54,3a8.21,8.21,0,0,1,1.31,3.76C85.58,149,83.79,147.26,83.72,146.32Zm-3.17.81c0-.33-.36-.89.26-.61s.87.33.83.59.81,1.58.3,1.15c-2-1.67.22.32.39.74C83.09,150.95,80.72,149.11,80.55,147.13Zm2,2.91c.36-1,1.47.9,1.89,1.8C85.17,153.38,82.54,150.08,82.56,150Zm6.76,3.25c-.15-1.44,0-1.52.11-1.8.29-.68.62-1.5.41-.28C89.55,152.89,89.49,154.95,89.32,153.28Zm.71-2.34c1.4-8.11,2.29-3,1.92-2a8.4,8.4,0,0,0-.57,2c0,.08.11-3.43,0-3.43s-.23,3.85-.36,4S88.8,158.08,90,150.94ZM89.5,155c0-.19.12-.33.28-.46S89.59,155.86,89.5,155Zm.43,1.21a3.55,3.55,0,0,1,.76-2.6c2.22-7.8,1.41-3,1.48-1.81C92.26,153.4,90,156.65,89.93,156.21Zm.12.65c-.09-.5.35-.86.13-.51S90.2,157.71,90,156.86Zm.69,2c-.22.12-.38.27-.55-.38s-.21-.44.09-1.33c.68-2,1.38-2,2.38-2.34.83-.26,3.77-4.13,1.63.55C93.57,157,93.33,157.17,90.74,158.89Zm6.79-5.17c-.4.72-.66,1-1,1.18a17,17,0,0,0-2.1,1.68c-.45.26,1-2,1.27-3.35.17-.77.82-1.06,2.23-2.12A17,17,0,0,1,97.52,153.72Zm1.56-2c-.4.55-1.27,1.94-1.07.43.16-1.15.07-1.68,1.61-2C100.53,150,99.48,151.21,99.08,151.73Zm5.89-5c-.49.67-.27.21-.09-.55C105.2,145,105.44,146.13,105,146.78Zm-.23-.58c-.15.65-.2,1-.64,1.18s-5.38,4.56-1.86,1C103.24,147.49,104.78,146,104.74,146.19Zm-2.41.94c-.14,3-5.89,3.82-1.59,2C102,148.64,102.49,143.69,102.32,147.13Zm1.16-2.38c-.88,1.08-1.26,1.19-1.22,1.06,1-3.37,1.48-1.81,2.3-3.06C104.86,142.28,105.26,142.86,103.48,144.75Zm1.63-3.17c-.09.15-.16.17-.15.06.07-.69-.24.55-.48.91-.56.86-2.44,1.13-1.06.59.07,0,1.95-2.39,2-2.43A1.73,1.73,0,0,1,105.11,141.58Zm0-4.75a.37.37,0,0,1-.11.58c-.13.1-.24.15-.24.12S105,136.71,105.09,136.83Zm-.08.76c.31-.23.38.08,0,.3S104.69,137.82,105,137.59Zm.45.94c.28,1.49-.73,3.13-.35,2a13.74,13.74,0,0,0-.16-1.57C104.8,137.94,105.3,137.69,105.46,138.53Zm-1.31,0a7.48,7.48,0,0,0-1,.81C103.24,138.44,105.74,137.43,104.15,138.51Zm-.66.73c1.2-1.39,1.33-.38,1.43.88s-2.22,3.84-1.61,2.5c.11-.25.18-.46.14-.48s-.38.87-.23-.06c.22-1.42-.29-.68-.14-2C103.14,139.51,103.11,139.69,103.49,139.25Zm-.77.78c-.21-.42.25-.55.2-.05C102.9,140.18,102.81,140.2,102.72,140Zm-.58-.84c.16.35.37.33-.74,1.32C99.82,141.92,102,138.77,102.14,139.19Zm-.83,1.58c.62-.55,1.21-.8,1.33-.57a2.9,2.9,0,0,1,0,3.07c-.08,0-.28-1.34-.23-.3,0,.21-.69.66-1.56,1C99.29,144.56,98.52,143.25,101.31,140.78Zm-.59,3.42c2.92-1.14,0,.25.23.09-1.33.93-2.89,3.82-1.79,1.09C99.28,145.05,98.82,144.94,100.72,144.19Zm-3.11,3c-.65.36-.82-2.73,1.5-4.7C99.68,142,97.85,147.08,97.6,147.22Zm1.51-5.06c.14.31-.72.48-.87.72-.92,1.52-.71.67-.43.15S99,141.92,99.11,142.16Zm-.44-1c.13.28.37.72.07.88-.83.44-.71.73-.43-.73C98.46,140.59,98.56,140.91,98.68,141.17Zm-.38-.85c.07.16-.16,1.33-.22,1-.14-.82.09.49-.51,1.49-.94,1.58-.8,1.07-.73-.43,0-1.06,1.31-2.56.4-1.48-.37.44-.34.25-.33,0,.05-.58.09-2.4,1-1.17C98.29,140.21,98.21,140.13,98.29,140.33Zm.08-.23s-.21-.71-.26-.82.06-.15.22-.18C98.67,139,98.48,140.24,98.38,140.09Zm-1.1-2.5c-.2-.6-.07-.63.66-.92C99.3,136.13,98.61,141.55,97.28,137.59Zm0-.82c-.17.07-.38.34-.22,0C97.78,135.31,99.62,135.85,97.32,136.77Zm-1,.17a2.48,2.48,0,0,1,.51-.88C97.32,137.14,95.88,138.23,96.3,136.93Zm.21-.74c-.39.54-.34,1.07-.74.36s.31-1,.51-1.35C96.41,135,96.8,135.81,96.52,136.2Zm-.77-.64c-1,.91.52-.69.52-.68S95.86,135.45,95.75,135.56Zm.72-1a2.3,2.3,0,0,1,.59-1.21A7.94,7.94,0,0,1,96.47,134.51Zm-.11-.3c-.09.34-.92,1.73-1.43.81-.41-.73-.16-.75.08-.86C98.59,132.2,96.69,133,96.36,134.22ZM94.91,134c-1,.46-.81-1.2-.58-2.24.13-.62,2.52-4.46,2.9-.42C97.38,133,97.7,132.43,94.91,134Zm4.54-4.57c-.1.3-.59,1-.3.42C99.3,129.56,99.72,128.58,99.45,129.42Zm.66-2.77c-.17.28-.13.09.32-.86C100.78,125.07,101,125.25,100.12,126.65Zm.68-2.55c.24-.15.65-.42.55-.13C100.5,126.45,99.84,124.66,100.79,124.1Zm-.85.5c.7-.41-.4,3.93-.21,2.08a18.25,18.25,0,0,0,0-1.92S99.79,124.69,99.94,124.6Zm-.37.22s.06,3,.06,3A13.45,13.45,0,0,1,98.4,131c-1,2.22-1,1.12-1.14-.85,0-.43-1.32-.78.82-2,.49-.29.48-.61-1,.49C96.18,129.32,94.62,127.72,99.57,124.82Zm-4.49,2.57c.85.61.45.63.33.93-.6,1.55-1.17.95-.41.27.51-.46.36-.56-.06-.18s-.42.19-.1-.28.14-.5-.07-.19,0-.28-.15-.53S94.72,127.13,95.08,127.39Zm-.81-.35c.31.69-.08.69-.44,1.07s-.11-.36,0-.78,0-.46,0-.46C93.81,126.69,94.08,126.63,94.27,127Zm-.78.49c-.18-.35.13-.85.09-.44C93.56,127.15,93.51,127.58,93.48,127.53Zm.77-.92s.06-.1.16-.18C94.72,126.16,94.63,127.27,94.26,126.61Zm-3.19-4.46c0-.32,0-.53.27-.31,1.9,1.37,1.28.83.33,1.56C91.16,123.81,91.31,123.94,91.07,122.15Zm.38,1.62s1-.58,1.06-.62,1.22,1.18,1.21,2.11c0,.21,0,1.38-.22,1.48A31.8,31.8,0,0,1,91.45,123.77Zm-.79.74c.2-.2.57-.63.8-.31a14.11,14.11,0,0,1,1.45,2c.58,1.12.46.86-1.58-.74C91,125.21,89.7,125.45,90.66,124.51Zm-1,.68-.25.48C89.22,126.07,89,125.14,89.68,125.19Zm-.17,1.9a1.83,1.83,0,0,1,.06-1.35c.64-1.26,3.7,1.12,3,1.47-3.58,1.86-3,2.37-3,.13A2,2,0,0,0,89.51,127.1Zm-.05,1.79c0,.19.15.19,0,.49S89.49,124.85,89.45,128.89Zm2.1-.93c1.44-.72,1.72-1.07,1.79-.08a1.24,1.24,0,0,1-.31.92c-.11.14-.4-1-.44-1s.26,1.19.2,1.26a11.27,11.27,0,0,1-1.6,1c-1.18.61-1.11.49-1.32-.24S90.85,128.3,91.55,128Zm-1.81,1.94c.06.21,0,.34-.12.29C89.33,130.07,89.59,129.38,89.74,129.9Zm-2-.27c1.8.66,1.28.46,1.23,1.12,0,.14-1.39-.29-1.42-.19s1.4.43,1.39.64c0,.61-.21.47-.57,1.13s-.41,1.81-.54,1.46a21.41,21.41,0,0,0-.37-2.71c-.69-.82-1.14-.81-.84-2.84C86.65,128,87.33,129.48,87.74,129.63Zm-4.6-4c.36.08,3.57,1.63,3.22,3-.19.75.49,1.76-.7,1.32-1.88-.7-1.25-1.3-2.62-2.85A8.94,8.94,0,0,1,83.15,125.67Zm-6,1.29c-.48-.11,1.72-3.66,5.45,0,.39.41.2,3,.33,3.24C84,132.46,79.69,127.56,77.16,127Zm-3.07-2.6a10,10,0,0,1-.16,1.43c-.26-.09.23.32-.07.24-1.07-.31-.47-.31-1.24-.3-1.06,0,.38.15,1.09.42.15,0,.24.06.23.26-.14,1.86-.3,1.58-.86.69-.23-.35-1-.79-.39-.18,1.15,1.08,1.17,2.67.71,2.37-.27-.18-.38-.08,0,.15s.39.27.12.25-.22.12,0,.14,1,2.88-.68.81a4.26,4.26,0,0,1-.7-3c-.14,0-.19,1.9-.25,1.83a2.16,2.16,0,0,1-.94-1.2c-.46-1.11-.79-1-1-2.51-.19-2.63,4.6-4.77,4.62-4.43,0,.14,0,1.88-.09,2S74.1,124.29,74.09,124.36Zm5.06-7.82c-1.15,2.58.1,2-2.45,5.38C70.88,129.76,79.63,115.47,79.15,116.54Zm-.52,3.27a10.75,10.75,0,0,1,1.15-4C81.09,112.91,78.63,119.81,78.63,119.81Zm1.67-6.14c0,.63.13.43-1.29,1.37-1.93,1.28-1.6.87-.13-.51C80.54,113,80.37,112.9,80.31,113.67Z"/><path class="cls-16" d="M102.56,157c1.26,1.26,2.88,3.24,4.1,3.24,8.92,0,26.91-42.27,26.91-53.14,0-1,0-1.57-1-2.09-4.75,8.5-11.2,15.77-15.75,24.75C112.11,139,107.06,147.75,102.56,157Z"/><path class="cls-16" d="M90.54,117c-.64-.4-4.88,3.71-7.28,9.57-1.58,3.86-1.56,6.52-2.14,6.51-.89,0-2.1-6.36-1.29-12.66A31.84,31.84,0,0,1,84.29,108a19.89,19.89,0,0,0-6.53,7,20.19,20.19,0,0,0-2.28,12.27,28.4,28.4,0,0,0-6.74-13.48,28.09,28.09,0,0,0-8.12-6.19,28.09,28.09,0,0,0,2.12,10A28.4,28.4,0,0,0,72,129.41,20.19,20.19,0,0,0,60,126.21a19.89,19.89,0,0,0-9.12,2.9,31.84,31.84,0,0,1,13.23,1.32c6,2,11.25,5.77,10.88,6.59-.24.53-2.63-.63-6.8-.85-6.32-.34-11.85,1.74-11.77,2.49s4.42.19,12.09,1.68c5.7,1.11,9.36,1.86,12.66,4.65s13.05,19.45,13.74,21.71a3.88,3.88,0,0,0,4.52-2.86c-1.66-1.68-12.54-17.93-13.57-22.45-1-4.22-.14-7.79,1-12.69C88.7,121.18,91.16,117.44,90.54,117Z"/><circle class="cls-16" cx="90.06" cy="86" r="22"/><circle class="cls-17" cx="89.06" cy="84" r="22"/><circle class="cls-18" cx="89.06" cy="84" r="17"/><path class="cls-19" d="M88.54,115c-.64-.4-4.88,3.71-7.28,9.57-1.58,3.86-1.56,6.52-2.14,6.51-.89,0-2.1-6.36-1.29-12.66A31.84,31.84,0,0,1,82.29,106a19.89,19.89,0,0,0-6.53,7,20.19,20.19,0,0,0-2.28,12.27,28.4,28.4,0,0,0-6.74-13.48,28.09,28.09,0,0,0-8.12-6.19,28.09,28.09,0,0,0,2.12,10A28.4,28.4,0,0,0,70,127.41,20.19,20.19,0,0,0,58,124.21a19.89,19.89,0,0,0-9.12,2.9,31.84,31.84,0,0,1,13.23,1.32c6,2,11.25,5.77,10.88,6.59-.24.53-2.63-.63-6.8-.85-6.32-.34-11.85,1.74-11.77,2.49s4.42.19,12.09,1.68c5.7,1.11,9.36,1.86,12.66,4.65s13.05,19.45,13.74,21.71a3.88,3.88,0,0,0,4.52-2.86c-1.66-1.68-12.54-17.93-13.57-22.45-1-4.22-.14-7.79,1-12.69C86.7,119.18,89.16,115.44,88.54,115Z"/><path class="cls-20" d="M49.89,127l-.17-.17q1.25-.1,2.48-.1a31.1,31.1,0,0,1,20.69,7.93,21.24,21.24,0,0,0-16.71-9A15,15,0,0,0,49.89,127Z"/><path class="cls-20" d="M59.06,107.5a23.08,23.08,0,0,0,3,11.5c2.8,4.85,7.42,8.48,8,8,.29-.24-.41-1.51-1.83-4C66,119.19,63,113.94,59.06,107.5Z"/><path class="cls-20" d="M55.56,136.5a47.43,47.43,0,0,1,6.5.5,45.71,45.71,0,0,1,11,3c4,1.7,5.83,3.24,6,3s-3-4.34-8-6c-2.82-.93-5.48-.91-9.4-.88A57.58,57.58,0,0,0,55.56,136.5Z"/><path class="cls-21" d="M82.06,106c-1.71,1.74-7.43,8-6.62,16,.49,4.86,3.28,9.11,3.62,9s-1.12-3.36-1.61-7C76.89,119.88,77.36,113.89,82.06,106Z"/><path class="cls-21" d="M89.06,115c-2.46,2.72-7.75,9.42-7.5,18.3.14,5.2,2.13,9.08,4.5,13.7a58.83,58.83,0,0,0,11,15c-1-1.33-2.42-3.38-4-6-4.82-8-8.77-14.49-8.84-23.19A34.19,34.19,0,0,1,87.06,119Z"/><path class="cls-16" d="M109.31,163.25c2.93,4.39,6.54,6.69,11.19,6.69a23.25,23.25,0,0,0,5.88-1c1.87,0,5,4.3,7.32,4.3,7.84,0,40.52-40.25,41.37-41.26-6.49-6-13.67-15.54-21-15.54-6.69,0-12.77,9-18.72,15-5.32,5.43-11,10-16,15.75C115.09,152,110.56,156.75,109.31,163.25Z"/><rect class="cls-22" x="84.13" y="126.06" width="57" height="8" transform="translate(-54.31 171.71) rotate(-63.12)"/><polygon class="cls-23" points="134.46 104.69 109.14 154.64 103.31 157.29 129.08 106.45 134.46 104.69"/><polygon class="cls-24" points="121.95 102.83 129.08 106.45 134.46 104.69 127.32 101.08 121.95 102.83"/><path class="cls-25" d="M102.9,156.84c25-46.59,25.61-51.43,25.61-51.43.06.38-.46.58-.61.61-3.69.83-19.7,33-22,38.23C104.06,148.36,102.58,152.51,102.9,156.84Z"/><path class="cls-25" d="M102.6,155.45c.6-1.1,25.62-45.58,25.22-48.22-.21-1.41-2.06-1.85-3.45-1.64-2,.3-22.75,36.26-24.54,49a.07.07,0,0,0,0,0C99.86,154.91,101.48,155.38,102.6,155.45Z"/><path class="cls-26" d="M104.53,155.41c.51-1.09,22.33-48.73,26-49.29a.24.24,0,0,1,.3.23v.06c.26,5-20.74,48.35-25.39,49.06A2,2,0,0,1,104.53,155.41Z"/><path class="cls-26" d="M105.19,155.82c6.64-8,25.93-48,25.78-48.93-.72-4.75-6.65,12.11-18.55,34.94C109.85,146.75,108.08,151.59,105.19,155.82Z"/><path class="cls-16" d="M94.06,119.75c1.89,2.08,6.41,6.61,9.22,6.61.68,0,38.76-45.48,38.76-46.92,0-.93-2-2.91-4.36-2.91a4.26,4.26,0,0,0-2.37.72c-11.74,7.76-18.84,18.63-27.5,29.5C103.72,111.88,98.81,115.5,94.06,119.75Z"/><rect class="cls-22" x="85.03" y="93.65" width="57" height="8" transform="translate(-31.9 133.36) rotate(-54.5)"/><polygon class="cls-23" points="138.91 75.84 106.39 121.43 100.23 123.17 133.33 76.77 138.91 75.84"/><polygon class="cls-24" points="126.82 72.13 133.33 76.77 138.91 75.84 132.4 71.19 126.82 72.13"/><path class="cls-25" d="M99.89,122.67c31.73-42.31,33-47,33-47,0,.38-.55.5-.69.51-3.78.27-24.43,29.68-27.5,34.5C102.31,114.45,100.22,118.33,99.89,122.67Z"/><path class="cls-25" d="M99.81,121.25c.76-1,32.16-41.23,32.16-43.9,0-1.43-1.75-2.14-3.17-2.14-2,0-27.93,32.44-31.62,44.79v0C97.18,120.3,98.71,121,99.81,121.25Z"/><path class="cls-26" d="M101.72,121.5c.67-1,29.38-44.84,33.07-44.84a.24.24,0,0,1,.26.28s0,0,0,.06c-.48,4.94-27.75,44.7-32.46,44.7A2,2,0,0,1,101.72,121.5Z"/><path class="cls-26" d="M102.31,122c7.76-6.9,32.83-43.56,32.83-44.51,0-4.8-8.39,11-23.58,31.76C108.28,113.73,105.81,118.25,102.31,122Z"/><rect class="cls-22" x="118.99" y="141.3" width="57" height="8" transform="translate(-59.32 155.1) rotate(-47.28)"/><polygon class="cls-23" points="175.41 126.84 137.43 167.99 131.09 168.95 169.76 127.07 175.41 126.84"/><polygon class="cls-24" points="163.88 121.64 169.76 127.07 175.41 126.84 169.54 121.42 163.88 121.64"/><path class="cls-25" d="M130.82,168.4c36.79-38,38.67-42.5,38.67-42.5,0,.38-.6.43-.75.42-3.78-.21-28,26.38-31.61,30.78C134.26,160.56,131.7,164.15,130.82,168.4Z"/><path class="cls-25" d="M130.92,167c.88-.9,37.08-36.86,37.42-39.52.18-1.41-1.47-2.34-2.88-2.52-2-.25-31.78,28.68-37,40.47v0C128.43,165.72,129.86,166.61,130.92,167Z"/><path class="cls-26" d="M132.79,167.48c.79-.91,34.78-40.79,38.44-40.33a.24.24,0,0,1,.23.31v.06c-1.1,4.84-33.15,40.86-37.81,40.27A2,2,0,0,1,132.79,167.48Z"/><path class="cls-26" d="M133.3,168c8.57-5.87,38-39.09,38.15-40,.6-4.76-9.7,9.84-27.38,28.55C140.27,160.59,137.25,164.76,133.3,168Z"/><rect class="cls-22" x="101.29" y="124.46" width="57" height="8" transform="translate(-32.66 211.87) rotate(-71.88)"/><polygon class="cls-23" points="147.5 100.06 130.09 153.28 124.73 156.79 142.46 102.62 147.5 100.06"/><polygon class="cls-24" points="134.85 100.13 142.46 102.62 147.5 100.06 139.9 97.57 134.85 100.13"/><path class="cls-25" d="M124.26,156.41c17.64-49.86,17.47-54.74,17.47-54.74.11.36-.37.64-.51.7-3.52,1.39-14.44,35.62-15.93,41.14C124.11,147.85,123.28,152.18,124.26,156.41Z"/><path class="cls-25" d="M123.75,155.08c.43-1.18,18.37-49,17.57-51.5-.43-1.36-2.31-1.52-3.66-1.09-1.91.6-17,39.3-16.79,52.19v0C121,155,122.63,155.18,123.75,155.08Z"/><path class="cls-26" d="M125.66,154.75c.34-1.16,14.64-51.57,18.17-52.67a.24.24,0,0,1,.33.19v.06c1,4.86-13.13,50.95-17.62,52.35A2,2,0,0,1,125.66,154.75Z"/><path class="cls-26" d="M126.36,155.05c5.35-8.91,18.31-51.37,18-52.29-1.43-4.58-4.72,13-13,37.36C129.59,145.38,128.58,150.43,126.36,155.05Z"/><path class="cls-27" d="M79.06,72c-.72.69-3.38,2.58-3.75,5.57-.13,1,.14,1.07,0,2.54-.15,2.26-.83,2.8-1.29,4.89-.59,2.65-.36,5.6.92,6.92a2.32,2.32,0,0,0,1.64.93c.43,0,.86-.13,1.26-.13,1.68,0,2.34,3.35,5.44,3.35A4.93,4.93,0,0,0,88,91.6c0-4-7.45-2-7.45-6.67s7.81-10.08,7.81-13.34c0-1.2-2-1.49-2.85-1.69C82.15,69.11,79.37,71.7,79.06,72Z"/><rect class="cls-22" x="116.06" y="125.82" width="57" height="8" transform="translate(-42.16 183.53) rotate(-57.97)"/><polygon class="cls-23" points="168.58 106.51 138.88 153.98 132.84 156.1 163.06 107.78 168.58 106.51"/><polygon class="cls-24" points="156.28 103.53 163.06 107.78 168.58 106.51 161.79 102.27 156.28 103.53"/><path class="cls-25" d="M132.47,155.62c29.11-44.15,30.11-48.93,30.11-48.93,0,.38-.51.54-.66.56-3.75.5-22.58,31.11-25.36,36.1C134.38,147.27,132.54,151.27,132.47,155.62Z"/><path class="cls-25" d="M132.3,154.21c.7-1,29.6-43.1,29.44-45.77-.09-1.42-1.88-2-3.29-1.94-2,.12-25.91,34.07-28.84,46.62a.07.07,0,0,0,0,0C129.62,153.42,131.19,154,132.3,154.21Z"/><path class="cls-26" d="M134.23,154.34c.61-1,26.61-46.53,30.29-46.76a.24.24,0,0,1,.28.26s0,0,0,.06c-.18,5-25,46.3-29.69,46.58A2,2,0,0,1,134.23,154.34Z"/><path class="cls-26" d="M134.84,154.8c7.33-7.36,30.13-45.47,30.07-46.42-.29-4.79-7.71,11.47-21.61,33.13C140.3,146.19,138.1,150.85,134.84,154.8Z"/><polygon class="cls-22" points="153.75 86.56 110.46 146.65 117.14 151.06 159.6 90.42 153.75 86.56"/><polygon class="cls-23" points="166.81 90.39 126 148.53 117.14 151.06 159.6 90.42 166.81 90.39"/><polygon class="cls-24" points="153.75 86.56 159.6 90.42 166.81 90.39 160.13 85.98 153.75 86.56"/><path class="cls-25" d="M116.81,150.75c33.8-51.69,47.45-61.18,41-61.18-3.59,0-16.17,23.12-21,29.43C129,129.22,120.56,138.5,116.81,150.75Z"/><path class="cls-25" d="M116.81,150c-.66-.87-1.83-1.71-1.83-2.44,0-5.71,39-59.47,42.17-59.47.64,0,1.51,1.25,1.51,2,0,0-30.94,41.85-38.11,55.64A9.64,9.64,0,0,1,116.81,150Z"/><path class="cls-26" d="M117.56,150.25c4.7-5.08,39.68-59.71,43.08-59.71,2.36,0-32.51,49.95-38.46,56.71A8.61,8.61,0,0,1,117.56,150.25Z"/><path class="cls-26" d="M118.56,150l34.5-50,7-9c1.14-.28,2.69-.56,3,0,.42.74-1.54,2.56-2,3-1.84,1.76-1.22,1.89-12,18-8.5,12.71-12.76,19.06-16,23A131.69,131.69,0,0,1,118.56,150Z"/><polygon class="cls-22" points="160.53 108.87 108.44 161.52 114.35 166.91 165.7 113.59 160.53 108.87"/><polygon class="cls-23" points="172.83 114.68 123.5 165.78 114.35 166.91 165.7 113.59 172.83 114.68"/><polygon class="cls-24" points="160.53 108.87 165.7 113.59 172.83 114.68 166.92 109.29 160.53 108.87"/><path class="cls-25" d="M114.07,166.55c41.41-45.82,56.36-53.08,50-54.08-3.55-.56-19.56,20.33-25.3,25.82C129.47,147.17,119.68,155,114.07,166.55Z"/><path class="cls-25" d="M114.19,165.81c-.51-1-1.54-2-1.43-2.7.89-5.65,47.8-52.69,50.89-52.2.64.1,1.3,1.47,1.18,2.23,0,0-37.06,36.55-46.28,49.05A9.64,9.64,0,0,1,114.19,165.81Z"/><path class="cls-26" d="M114.89,166.17c5.44-4.29,48.47-52.83,51.83-52.3,2.33.37-39.87,44.3-46.79,50.05A8.61,8.61,0,0,1,114.89,166.17Z"/><path class="cls-26" d="M115.92,166.08l41.84-44,8.31-7.8c1.17-.1,2.74-.13,3,.47.3.79-1.92,2.29-2.44,2.65-2.1,1.46-1.5,1.68-14.65,15.92-10.37,11.23-15.56,16.85-19.37,20.24A131.68,131.68,0,0,1,115.92,166.08Z"/><path class="cls-27" d="M89.31,96.25a2.21,2.21,0,0,0,2.05,1.25c4.79,0,13-5.22,13-12.74,0-5.38-5.94-12.16-10.64-12.16-1.92,0-3,1.2-3,2.13,0,0,4.18,2.52,4.18,6.72,0,11.31-6.6,2.3-6.6,13.08a2.75,2.75,0,0,0,2.61,2.59"/><path class="cls-28" d="M92.09,95.2c5.1-1.58,9-4.83,9.55-10.37s-2-10.9-7.92-11.47c-1.92-.19-1.91,2.82,0,3,4.83.47,5.75,6.28,4.62,10-1,3.27-4,5-7,5.91-1.84.57-1.05,3.47.8,2.89Z"/><path class="cls-28" d="M89.13,88.84a6.53,6.53,0,0,0,4.58-6A4.73,4.73,0,0,0,88.89,78C87,78,87,81,88.89,81c3.19-.15,1.51,4.42-.55,5a1.5,1.5,0,0,0,.8,2.89Z"/><path class="cls-27" d="M93.73,73.36a1.44,1.44,0,0,0-.6.06c5.62.78,8.05,6.06,7.52,11.41-.55,5.53-4.43,8.77-9.5,10.35a1.38,1.38,0,0,0,.94,0c5.1-1.58,9-4.83,9.55-10.37S99.64,73.93,93.73,73.36Z"/><path class="cls-27" d="M88.89,78l-.25,0a4.78,4.78,0,0,1,4.07,4.83,6.53,6.53,0,0,1-4.5,6,1.43,1.43,0,0,0,.93,0,6.53,6.53,0,0,0,4.58-6A4.73,4.73,0,0,0,88.89,78Z"/><path class="cls-29" d="M84.68,86.08a2.73,2.73,0,0,1-.79-.81,2.49,2.49,0,0,1-.31-1.11,2.19,2.19,0,0,1,1-2c0,.78,0,1.35,0,1.95,0,.3,0,.59.05.9A3.91,3.91,0,0,1,84.68,86.08Z"/><path class="cls-29" d="M79.59,79.73a7,7,0,0,1,6.7-6,17.35,17.35,0,0,0-3.78,2.54A17.16,17.16,0,0,0,79.59,79.73Z"/><path class="cls-29" d="M79.39,87.2a10.74,10.74,0,0,1,1.55,1.34c.48.5.92.94,1.34,1.42A16.57,16.57,0,0,0,85.53,92a5.75,5.75,0,0,1-2.07-.27,4.82,4.82,0,0,1-1.87-1.08A12,12,0,0,1,80.33,89,10.76,10.76,0,0,1,79.39,87.2Z"/><path class="cls-29" d="M88.33,87A3.87,3.87,0,0,0,90.6,83,3.91,3.91,0,0,1,88.33,86a1.43,1.43,0,0,0-1,1.9A1.36,1.36,0,0,1,88.33,87Z"/><path class="cls-29" d="M88.89,79a4.7,4.7,0,0,1,4.78,4.24c0-.13,0-.25,0-.38A4.73,4.73,0,0,0,88.89,78,1.55,1.55,0,0,0,87.52,80,1.45,1.45,0,0,1,88.89,79Z"/><path class="cls-29" d="M92.3,92.31c3.08-1,6.06-2.64,7-5.91,1.13-3.76.22-9.57-4.62-10-1.68-.16-1.89-2.51-.6-2.94l-.4-.06c-1.92-.19-1.91,2.82,0,3,4.83.47,5.75,6.28,4.62,10-1,3.27-4,5-7,5.91-1.84.57-1.05,3.47.8,2.89l.06,0A1.55,1.55,0,0,1,92.3,92.31Z"/><path class="cls-30" d="M63.07,145.21l-.37.38A14.24,14.24,0,0,0,59.1,155,13.15,13.15,0,0,0,63.36,164a13.15,13.15,0,0,0,5.18,8.57,14.24,14.24,0,0,0,9.79,2.2l.52-.1c9.09-1.78,12.55-12.57,12.89-16.48a13.58,13.58,0,0,0-.85-5.61,17,17,0,0,0-2.77-5.17,13.58,13.58,0,0,0-4.19-3.82C80.49,141.73,69.6,138.63,63.07,145.21Z"/><path class="cls-31" d="M62.1,146.24l-.37.38a14.24,14.24,0,0,0-3.6,9.37,13.15,13.15,0,0,0,4.26,9.06,13.15,13.15,0,0,0,5.18,8.57,14.24,14.24,0,0,0,9.79,2.2l.52-.1c9.09-1.78,12.55-12.57,12.89-16.48a13.58,13.58,0,0,0-.85-5.61,17,17,0,0,0-2.77-5.17A13.58,13.58,0,0,0,83,144.65C79.52,142.76,68.62,139.66,62.1,146.24Z"/><path class="cls-32" d="M65.42,177.09l.08.07Z"/><path class="cls-32" d="M53.48,154.76v-.11S53.47,154.69,53.48,154.76Z"/><path class="cls-33" d="M56.42,160.9a23.51,23.51,0,0,0,2,1.49c-1-.19-1.73.18-2.88-.24a4.14,4.14,0,0,1-1.49-1,3.91,3.91,0,0,0,1.28,1.66c1,.69,1.55.35,2.88,1a6.82,6.82,0,0,1,1.51,1l-.08.17-5,2.69.08.15h0l.57,1.06,5-2.69.19,0a6.83,6.83,0,0,1,0,1.82c-.2,1.47-.81,1.77-.77,3a3.91,3.91,0,0,0,.67,2,4.14,4.14,0,0,1,0-1.78c.29-1.19,1-1.59,1.4-2.53a23.5,23.5,0,0,0,.14,2.49,10.1,10.1,0,0,0,3.47,5.85,7.53,7.53,0,0,1-2-3.11c-.84-2.49.19-3.85-.5-6.78a10.55,10.55,0,0,0-.83-2.29h0a10.65,10.65,0,0,0-1.77-2.57c-2-2.19-3.76-2.09-5.36-4.17a7.53,7.53,0,0,1-1.47-3.4A10.1,10.1,0,0,0,56.42,160.9Z"/><path class="cls-34" d="M61.1,146.27l-.37.38a14.24,14.24,0,0,0-3.6,9.37,13.15,13.15,0,0,0,4.26,9.06,13.15,13.15,0,0,0,5.18,8.57,14.24,14.24,0,0,0,9.79,2.2l.52-.1C86,174,89.44,163.19,89.77,159.28a13.58,13.58,0,0,0-.85-5.61,17,17,0,0,0-2.77-5.17A13.58,13.58,0,0,0,82,144.68C78.52,142.79,67.63,139.69,61.1,146.27Z"/><path class="cls-35" d="M61.79,146.89l-.35.36A13.49,13.49,0,0,0,58,156.13a12.46,12.46,0,0,0,4,8.59,12.46,12.46,0,0,0,4.9,8.12,13.49,13.49,0,0,0,9.28,2.08l.5-.09c8.61-1.69,11.89-11.91,12.21-15.62a12.87,12.87,0,0,0-.81-5.31,16.12,16.12,0,0,0-2.62-4.9,12.87,12.87,0,0,0-4-3.62C78.29,143.6,68,140.66,61.79,146.89Z"/><path class="cls-34" d="M74.46,166.11c-1-.46-.75-1.75-1.76-2.19-1.25-.55-3.53.66-4.18,2.43-.74,2,.82,4.45,2.54,5.48,2.94,1.76,6.7-.26,8.07-1,5.54-3,6.69-9,6.89-10.14.29-1.73.73-4.38-.85-5.61a3.6,3.6,0,0,0-4.24.12c-1.48,1.17-1.74,3.44-1,4.42.39.49.82.38,1,.82.58,1.23-2,3.49-2.29,3.77C77.81,165,75.85,166.72,74.46,166.11Z"/><path class="cls-8" d="M72.7,168.16a7.57,7.57,0,0,1,1.78-1.48,7.57,7.57,0,0,1,0,2.31,1,1,0,0,1-1.78-.83Z"/><path class="cls-8" d="M71,165.41a7.57,7.57,0,0,1,2.28.38,7.57,7.57,0,0,1-1.75,1.51,1,1,0,0,1-.53-1.89Z"/><path class="cls-8" d="M75.64,168.72a7.56,7.56,0,0,1,.56-2.24,7.57,7.57,0,0,1,1.37,1.86,1,1,0,1,1-1.92.38Z"/><path class="cls-8" d="M78.4,167.93a7.57,7.57,0,0,1-.68-2.2,7.57,7.57,0,0,1,2.13.88,1,1,0,0,1-1.45,1.32Z"/><path class="cls-8" d="M80.69,166.13a7.57,7.57,0,0,1-1.4-1.84,7.57,7.57,0,0,1,2.31.1,1,1,0,0,1-.91,1.74Z"/><path class="cls-8" d="M82.32,163.7a6,6,0,0,1-1.57-.93,6,6,0,0,1,1.72-.61.77.77,0,1,1-.15,1.54Z"/><path class="cls-8" d="M83.35,161.29a6,6,0,0,1-1.79-.32,6,6,0,0,1,1.39-1.17.77.77,0,1,1,.4,1.5Z"/><path class="cls-8" d="M82.42,158.87a4.72,4.72,0,0,1-1.38.41,4.72,4.72,0,0,1,.56-1.33.61.61,0,0,1,.82.91Z"/><path class="cls-34" d="M67.6,153.29c-.19,1.11,1,1.6.85,2.68-.24,1.34-2.5,2.57-4.34,2.13-2.12-.51-3.25-3.15-3.15-5.16.16-3.42,3.93-5.43,5.31-6.16,5.55-3,11.16-.6,12.26-.11,1.59.72,4,1.82,4.19,3.82a3.6,3.6,0,0,1-2.45,3.46c-1.79.59-3.83-.46-4.21-1.66-.19-.6.14-.9-.11-1.31-.7-1.17-4-.3-4.4-.19C70.37,151.11,67.86,151.79,67.6,153.29Z"/><path class="cls-8" d="M64.92,153.61a7.57,7.57,0,0,0,2.21-.66,7.57,7.57,0,0,0-1.92-1.28,1,1,0,0,0-.29,1.94Z"/><path class="cls-8" d="M66.29,156.51a7.57,7.57,0,0,0,.94-2.11A7.57,7.57,0,0,0,65,155a1,1,0,1,0,1.28,1.49Z"/><path class="cls-8" d="M66.08,150.86a7.57,7.57,0,0,0,2.17.78,7.57,7.57,0,0,0-.79-2.17,1,1,0,0,0-1.38,1.39Z"/><path class="cls-8" d="M68.27,149a7.57,7.57,0,0,0,1.46,1.79,7.56,7.56,0,0,0,.45-2.26,1,1,0,1,0-1.9.47Z"/><path class="cls-8" d="M71,148.09a7.57,7.57,0,0,0,.76,2.18,7.57,7.57,0,0,0,1.19-2,1,1,0,1,0-2-.21Z"/><path class="cls-8" d="M74,148.08a6,6,0,0,0-.1,1.82,6,6,0,0,0,1.46-1.09.77.77,0,0,0-1.37-.73Z"/><path class="cls-8" d="M76.53,148.56a6,6,0,0,0-.73,1.67,6,6,0,0,0,1.75-.51.77.77,0,1,0-1-1.16Z"/><path class="cls-8" d="M78,150.67a4.72,4.72,0,0,0-1.11.92,4.72,4.72,0,0,0,1.42.27.61.61,0,0,0-.31-1.19Z"/><g class="cls-9"><path class="cls-10" d="M80.2,154.51c-2.68.13-16.11,5.95-16.23,6-4.3,2.3-1.82,1.4-.78,3.15l.06.1.05.1c.88,1.83-1.24,3.4,3.05,1.1.11-.06,12.41-8,14-10.17l.3-.16a.21.21,0,0,1-.15-.29Z"/></g><g class="cls-11"><path class="cls-4" d="M81.1,171.11a9.2,9.2,0,0,1-9.47,1.73A8.18,8.18,0,0,1,68,169.57c-1-.88-2-1.28-2.39-1s-.07,1.62.31,2.35c1.45,2.83,6.29,4.23,10.27,3.16A10.54,10.54,0,0,0,81.1,171.11Z"/></g><g class="cls-12"><path class="cls-13" d="M85.34,159.39c-.2,1.19-1.35,7.17-6.89,10.14-1.37.74-5.13,2.76-8.07,1a6.07,6.07,0,0,1-1.77-1.67,6.09,6.09,0,0,0,2.46,3c2.94,1.76,6.7-.26,8.07-1,5.54-3,6.69-9,6.89-10.14.27-1.62.67-4.05-.58-5.36A10.26,10.26,0,0,1,85.34,159.39Z"/><path class="cls-13" d="M73.12,164.22a1.64,1.64,0,0,0,.2.28A1.58,1.58,0,0,0,73.12,164.22Z"/><path class="cls-13" d="M80.32,159.15c-.15-.33-.44-.35-.73-.55a2.11,2.11,0,0,0,.4,1,1.29,1.29,0,0,0,.36.31A1.13,1.13,0,0,0,80.32,159.15Z"/></g><path class="cls-14" d="M80.86,152.69c-2.07.73-4.29-.21-4.64-1.43-.17-.61.22-.94,0-1.35-.71-1.16-4.49,0-5,.11-1.34.41-4.23,1.29-4.63,2.87-.3,1.17,1.06,1.59.77,2.72s-1.79,2.1-3.39,2.44l.13,0c1.84.45,4.1-.78,4.34-2.13.19-1.08-1-1.56-.85-2.68.26-1.5,2.77-2.18,3.94-2.5.41-.11,3.7-1,4.4.19.25.41-.08.71.11,1.31.38,1.2,2.42,2.24,4.21,1.66a3.69,3.69,0,0,0,2.29-2.3A4.78,4.78,0,0,1,80.86,152.69Z"/></g></g></g></svg>