<svg xmlns="http://www.w3.org/2000/svg" xmlns:xlink="http://www.w3.org/1999/xlink" viewBox="0 0 147.09 234.06"><defs><style>.cls-1{fill:#fff;}.cls-2{fill:#fefefe;}.cls-3{fill:#fdfdfd;}.cls-4{fill:#fcfcfc;}.cls-5{fill:#fbfbfb;}.cls-6{fill:#fafafa;}.cls-7{fill:#f9f9f9;}.cls-8{fill:#f8f8f8;}.cls-9{fill:#f7f7f7;}.cls-10{fill:#f6f6f6;}.cls-11{fill:#f5f5f5;}.cls-12{fill:#f4f4f4;}.cls-13{fill:#f3f3f3;}.cls-14{fill:#f2f2f2;}.cls-15{fill:#f1f1f1;}.cls-16{fill:#f0f0f0;}.cls-17{fill:#efefef;}.cls-18{fill:#eee;}.cls-19{fill:#ededed;}.cls-20{fill:#ececec;}.cls-21{fill:#ebebeb;}.cls-22{fill:#eaeaea;}.cls-23{fill:#e9e9e9;}.cls-24{fill:#e8e8e8;}.cls-25{fill:#e7e7e7;}.cls-26{fill:#e6e6e6;}.cls-27{fill:#e5e5e5;}.cls-28{fill:#e4e4e4;}.cls-29{fill:#e3e3e3;}.cls-30{fill:#e2e2e2;}.cls-31{fill:#e1e1e1;}.cls-32{fill:#e0e0e0;}.cls-33{fill:#dfdfdf;}.cls-34{fill:#dedede;}.cls-35{fill:#ddd;}.cls-36{fill:#dcdcdc;}.cls-37{fill:#dbdbdb;}.cls-38{fill:#dadada;}.cls-39{fill:#d9d9d9;}.cls-40{fill:#d8d8d8;}.cls-41{fill:#d7d7d7;}.cls-42{fill:#d6d6d6;}.cls-43{fill:#d5d5d5;}.cls-44{fill:#d4d4d4;}.cls-45{fill:#d3d3d3;}.cls-46{fill:#d2d2d2;}.cls-47{fill:#d1d1d1;}.cls-48{fill:#d0d0d0;}.cls-49{fill:#cfcfcf;}.cls-50{fill:#cecece;}.cls-51{fill:#cdcdcd;}.cls-52{fill:#ccc;}.cls-53{fill:#999;}.cls-54{fill:url(#linear-gradient);}.cls-55{fill:url(#linear-gradient-2);}.cls-56{fill:url(#linear-gradient-3);}.cls-57{fill:url(#linear-gradient-4);}.cls-58{fill:url(#linear-gradient-5);}.cls-59{fill:url(#linear-gradient-6);}.cls-60{fill:url(#linear-gradient-7);}.cls-61{fill:#4d4d4d;}.cls-62{fill:url(#radial-gradient);}.cls-63{fill:url(#linear-gradient-8);}.cls-64{fill:#666;}.cls-65{fill:#61533c;}.cls-66{fill:url(#linear-gradient-9);}.cls-67{fill:url(#linear-gradient-10);}</style><linearGradient id="linear-gradient" x1="10.31" y1="145.13" x2="78.38" y2="77.06" gradientUnits="userSpaceOnUse"><stop offset="0" stop-color="#aa2928"/><stop offset="0.2" stop-color="#ba2b29"/><stop offset="0.51" stop-color="#d92e2a"/><stop offset="0.7" stop-color="#ca2c29"/><stop offset="1" stop-color="#aa2928"/></linearGradient><linearGradient id="linear-gradient-2" x1="20.01" y1="154.83" x2="88.08" y2="86.76" gradientTransform="translate(101.12 -2.88) rotate(44.94)" gradientUnits="userSpaceOnUse"><stop offset="0" stop-color="#d42229"/><stop offset="0.21" stop-color="#dc3227"/><stop offset="0.51" stop-color="#ea4f24"/><stop offset="0.7" stop-color="#e34025"/><stop offset="1" stop-color="#d42128"/></linearGradient><linearGradient id="linear-gradient-3" x1="29.8" y1="164.62" x2="97.87" y2="96.55" xlink:href="#linear-gradient"/><linearGradient id="linear-gradient-4" x1="39.58" y1="174.4" x2="107.65" y2="106.33" gradientTransform="matrix(1, 0, 0, 1, 0, 0)" xlink:href="#linear-gradient-2"/><linearGradient id="linear-gradient-5" x1="49.36" y1="184.19" x2="117.43" y2="116.11" gradientTransform="translate(130.43 -15.04) rotate(44.94)" xlink:href="#linear-gradient"/><linearGradient id="linear-gradient-6" x1="59.15" y1="193.97" x2="127.22" y2="125.9" gradientTransform="matrix(1, 0, 0, 1, 0, 0)" xlink:href="#linear-gradient-2"/><linearGradient id="linear-gradient-7" x1="68.77" y1="203.6" x2="136.85" y2="135.52" xlink:href="#linear-gradient"/><radialGradient id="radial-gradient" cx="73.54" cy="88.19" r="7.62" gradientUnits="userSpaceOnUse"><stop offset="0" stop-color="#5d513b"/><stop offset="0.26" stop-color="#7b6a4f"/><stop offset="0.54" stop-color="#958061"/><stop offset="0.8" stop-color="#a58d6b"/><stop offset="1" stop-color="#ab926f"/></radialGradient><linearGradient id="linear-gradient-8" x1="66.36" y1="88.19" x2="80.72" y2="88.19" gradientUnits="userSpaceOnUse"><stop offset="0" stop-color="#e5d9c5"/><stop offset="0.05" stop-color="#dbcdb7"/><stop offset="0.17" stop-color="#c2b195"/><stop offset="0.29" stop-color="#b19c7d"/><stop offset="0.39" stop-color="#a7906f"/><stop offset="0.48" stop-color="#a38c6a"/><stop offset="0.63" stop-color="#a58e6d"/><stop offset="0.73" stop-color="#ac9676"/><stop offset="0.82" stop-color="#b7a385"/><stop offset="0.9" stop-color="#c6b59b"/><stop offset="0.97" stop-color="#dacdb6"/><stop offset="1" stop-color="#e5d9c5"/></linearGradient><linearGradient id="linear-gradient-9" x1="69.28" y1="44.74" x2="74.2" y2="44.74" gradientUnits="userSpaceOnUse"><stop offset="0" stop-color="#847155"/><stop offset="0.5" stop-color="#d4c6ae"/><stop offset="1" stop-color="#847155"/></linearGradient><linearGradient id="linear-gradient-10" x1="71.74" y1="48.77" x2="71.74" y2="40.71" gradientUnits="userSpaceOnUse"><stop offset="0" stop-color="#7c6b50"/><stop offset="0.39" stop-color="#7a694e"/><stop offset="0.59" stop-color="#726249"/><stop offset="0.76" stop-color="#64563f"/><stop offset="0.9" stop-color="#514631"/><stop offset="1" stop-color="#3e3523"/></linearGradient></defs><title>Ресурс 2elements</title><g id="Слой_2" data-name="Слой 2"><g id="Layer_1" data-name="Layer 1"><ellipse class="cls-1" cx="73.54" cy="224.89" rx="52.76" ry="9.17"/><ellipse class="cls-2" cx="73.54" cy="224.89" rx="51.85" ry="9.01"/><ellipse class="cls-3" cx="73.54" cy="224.89" rx="50.93" ry="8.85"/><ellipse class="cls-4" cx="73.54" cy="224.89" rx="50.02" ry="8.69"/><ellipse class="cls-5" cx="73.54" cy="224.89" rx="49.11" ry="8.53"/><ellipse class="cls-6" cx="73.54" cy="224.89" rx="48.19" ry="8.37"/><ellipse class="cls-7" cx="73.54" cy="224.89" rx="47.28" ry="8.22"/><ellipse class="cls-8" cx="73.54" cy="224.89" rx="46.37" ry="8.06"/><ellipse class="cls-9" cx="73.54" cy="224.89" rx="45.45" ry="7.9"/><ellipse class="cls-10" cx="73.54" cy="224.89" rx="44.54" ry="7.74"/><ellipse class="cls-11" cx="73.54" cy="224.89" rx="43.63" ry="7.58"/><ellipse class="cls-12" cx="73.54" cy="224.89" rx="42.71" ry="7.42"/><ellipse class="cls-13" cx="73.54" cy="224.89" rx="41.8" ry="7.26"/><ellipse class="cls-14" cx="73.54" cy="224.89" rx="40.89" ry="7.11"/><ellipse class="cls-15" cx="73.54" cy="224.89" rx="39.97" ry="6.95"/><ellipse class="cls-16" cx="73.54" cy="224.89" rx="39.06" ry="6.79"/><ellipse class="cls-17" cx="73.54" cy="224.89" rx="38.15" ry="6.63"/><ellipse class="cls-18" cx="73.54" cy="224.89" rx="37.23" ry="6.47"/><ellipse class="cls-19" cx="73.54" cy="224.89" rx="36.32" ry="6.31"/><ellipse class="cls-20" cx="73.54" cy="224.89" rx="35.41" ry="6.15"/><ellipse class="cls-21" cx="73.54" cy="224.89" rx="34.5" ry="5.99"/><ellipse class="cls-22" cx="73.54" cy="224.89" rx="33.58" ry="5.84"/><ellipse class="cls-23" cx="73.54" cy="224.89" rx="32.67" ry="5.68"/><ellipse class="cls-24" cx="73.54" cy="224.89" rx="31.76" ry="5.52"/><ellipse class="cls-25" cx="73.54" cy="224.89" rx="30.84" ry="5.36"/><ellipse class="cls-26" cx="73.54" cy="224.89" rx="29.93" ry="5.2"/><ellipse class="cls-27" cx="73.54" cy="224.89" rx="29.02" ry="5.04"/><ellipse class="cls-28" cx="73.54" cy="224.89" rx="28.1" ry="4.88"/><ellipse class="cls-29" cx="73.54" cy="224.89" rx="27.19" ry="4.73"/><ellipse class="cls-30" cx="73.54" cy="224.89" rx="26.28" ry="4.57"/><ellipse class="cls-31" cx="73.54" cy="224.89" rx="25.36" ry="4.41"/><ellipse class="cls-32" cx="73.54" cy="224.89" rx="24.45" ry="4.25"/><ellipse class="cls-33" cx="73.54" cy="224.89" rx="23.54" ry="4.09"/><ellipse class="cls-34" cx="73.54" cy="224.89" rx="22.62" ry="3.93"/><ellipse class="cls-35" cx="73.54" cy="224.89" rx="21.71" ry="3.77"/><ellipse class="cls-36" cx="73.54" cy="224.89" rx="20.8" ry="3.61"/><ellipse class="cls-37" cx="73.54" cy="224.89" rx="19.88" ry="3.46"/><ellipse class="cls-38" cx="73.54" cy="224.89" rx="18.97" ry="3.3"/><ellipse class="cls-39" cx="73.54" cy="224.89" rx="18.06" ry="3.14"/><ellipse class="cls-40" cx="73.54" cy="224.89" rx="17.14" ry="2.98"/><ellipse class="cls-41" cx="73.54" cy="224.89" rx="16.23" ry="2.82"/><ellipse class="cls-42" cx="73.54" cy="224.89" rx="15.32" ry="2.66"/><ellipse class="cls-43" cx="73.54" cy="224.89" rx="14.4" ry="2.5"/><ellipse class="cls-44" cx="73.54" cy="224.89" rx="13.49" ry="2.34"/><ellipse class="cls-45" cx="73.54" cy="224.89" rx="12.58" ry="2.19"/><ellipse class="cls-46" cx="73.54" cy="224.89" rx="11.66" ry="2.03"/><ellipse class="cls-47" cx="73.54" cy="224.89" rx="10.75" ry="1.87"/><ellipse class="cls-48" cx="73.54" cy="224.89" rx="9.84" ry="1.71"/><ellipse class="cls-49" cx="73.54" cy="224.89" rx="8.93" ry="1.55"/><ellipse class="cls-50" cx="73.54" cy="224.89" rx="8.01" ry="1.39"/><ellipse class="cls-51" cx="73.54" cy="224.89" rx="7.1" ry="1.23"/><ellipse class="cls-52" cx="73.54" cy="224.89" rx="6.19" ry="1.07"/><path class="cls-53" d="M73.54,213.85a15.37,15.37,0,0,1-10.94-4.53L4.52,151.23a15.48,15.48,0,0,1,0-21.87L62.61,71.27a15.47,15.47,0,0,1,21.87,0l58.09,58.09a15.48,15.48,0,0,1,0,21.87L84.48,209.32a15.37,15.37,0,0,1-10.93,4.53Z"/><path class="cls-1" d="M73.54,212.65a14.17,14.17,0,0,1-10.09-4.18L5.37,150.38a14.28,14.28,0,0,1,0-20.17L63.46,72.12a14.17,14.17,0,0,1,10.09-4.18h0a14.16,14.16,0,0,1,10.08,4.18l58.09,58.09a14.28,14.28,0,0,1,0,20.17L83.63,208.47a14.17,14.17,0,0,1-10.08,4.18Z"/><path class="cls-54" d="M78.53,77.21a7.06,7.06,0,0,0-10,0L10.46,135.3a7.06,7.06,0,0,0,0,10l4.62,4.62,68.14-68Z"/><rect class="cls-55" x="5.91" y="113.88" width="96.27" height="13.84" transform="translate(-69.54 73.47) rotate(-44.94)"/><polygon class="cls-56" points="93.01 91.69 24.87 159.69 34.65 169.47 102.79 101.47 93.01 91.69"/><polygon class="cls-57" points="102.79 101.47 34.65 169.47 44.44 179.26 112.58 111.26 102.79 101.47"/><rect class="cls-58" x="35.27" y="143.23" width="96.27" height="13.84" transform="translate(-81.7 102.78) rotate(-44.94)"/><polygon class="cls-59" points="122.36 121.04 54.22 189.04 64 198.82 132.15 130.82 122.36 121.04"/><path class="cls-60" d="M136.62,145.29a7.06,7.06,0,0,0,0-10l-4.48-4.48L64,198.83l4.55,4.55a7.06,7.06,0,0,0,10,0Z"/><circle class="cls-1" cx="73.74" cy="88.34" r="4.32"/><path class="cls-61" d="M73.54,96.3a7.83,7.83,0,1,1,7.83-7.83,7.84,7.84,0,0,1-7.83,7.83Zm0-12a4.16,4.16,0,1,0,4.17,4.16,4.17,4.17,0,0,0-4.17-4.16Z"/><path class="cls-62" d="M73.54,83.72A4.48,4.48,0,1,0,78,88.19,4.47,4.47,0,0,0,73.54,83.72Zm7.62,4.48a7.62,7.62,0,1,1-7.62-7.62A7.62,7.62,0,0,1,81.17,88.19Z"/><path class="cls-63" d="M80.72,88.19A7.18,7.18,0,1,1,73.54,81,7.18,7.18,0,0,1,80.72,88.19Zm-7.18-5.69a5.69,5.69,0,1,0,5.69,5.69A5.69,5.69,0,0,0,73.54,82.51Z"/><path class="cls-64" d="M75.13,66.83l-.65-2.23c-1.8-6.14-3.66-12.49-3.66-17.33a.92.92,0,0,1,1.85,0c0,4.57,1.82,10.79,3.58,16.81.31,1.07.61,2.08.89,3.08A14.41,14.41,0,0,0,75.13,66.83Z"/><path class="cls-64" d="M70.7,85.4a6.2,6.2,0,0,1-2-1.71c-3.12-4.24-1.52-12.88.17-22,.94-5.07,1.91-10.31,1.91-14.4a.92.92,0,0,1,1.85,0c0,4.26-1,9.58-1.94,14.73-1.54,8.35-3.14,17-.5,20.59A4.34,4.34,0,0,0,73,84.34a4.15,4.15,0,0,1,2.46.47C75,86.51,72,86.16,70.7,85.4Z"/><path class="cls-64" d="M72.67,43.35H70.82c0-4.2-1.29-10-2.65-16.24C65.92,16.91,63.59,6.37,67.07,2a6.38,6.38,0,0,1,9.35,0c3.47,4.33,1.15,14.87-1.1,25.08-1.36,6.19-2.65,12-2.65,16.24ZM71.74,1.84A3.88,3.88,0,0,0,68.5,3.2C65.58,6.83,67.91,17.4,70,26.72c.65,3,1.29,5.83,1.78,8.51.49-2.68,1.12-5.55,1.78-8.51C75.57,17.4,77.9,6.83,75,3.2a3.88,3.88,0,0,0-3.24-1.35Z"/><rect class="cls-65" x="69.24" y="39.95" width="5.01" height="9.58" rx="0.97" ry="0.97"/><rect class="cls-66" x="69.28" y="40" width="4.92" height="9.49" rx="0.95" ry="0.95"/><rect x="70.12" y="40.65" width="3.25" height="8.06" rx="0.63" ry="0.63"/><rect class="cls-14" x="70.12" y="40.75" width="3.25" height="8.06" rx="0.63" ry="0.63"/><rect class="cls-67" x="70.12" y="40.71" width="3.25" height="8.06" rx="0.63" ry="0.63"/></g></g></svg>