<svg xmlns="http://www.w3.org/2000/svg" xmlns:xlink="http://www.w3.org/1999/xlink" viewBox="0 0 134.77 134.74"><defs><style>.cls-1{fill:url(#linear-gradient);}.cls-2{fill:url(#linear-gradient-2);}</style><linearGradient id="linear-gradient" x1="-328.63" y1="54.84" x2="-348.74" y2="-53.48" gradientTransform="translate(355.17 -115.94) rotate(-34.48)" gradientUnits="userSpaceOnUse"><stop offset="0" stop-color="#d42027"/><stop offset="0.1" stop-color="#d73036"/><stop offset="0.22" stop-color="#d93b40"/><stop offset="0.35" stop-color="#da3e43"/><stop offset="0.49" stop-color="#d9373d"/><stop offset="0.7" stop-color="#d5242b"/><stop offset="0.73" stop-color="#d42128"/><stop offset="1" stop-color="#8a2028"/></linearGradient><linearGradient id="linear-gradient-2" x1="2145.33" y1="-2276.19" x2="2145.33" y2="-2291.91" gradientTransform="translate(-53.57 -3087.63) rotate(135)" gradientUnits="userSpaceOnUse"><stop offset="0" stop-color="#cc7b19"/><stop offset="0.25" stop-color="#fbb03b"/><stop offset="0.55" stop-color="#fcc731"/><stop offset="0.82" stop-color="#fbb03b"/><stop offset="1" stop-color="#fbb03b"/></linearGradient></defs><title>Ресурс 35elements</title><g id="Слой_2" data-name="Слой 2"><g id="Layer_1" data-name="Layer 1"><polygon class="cls-1" points="124.24 67.46 134.77 59.89 122.84 54.81 131.42 45.08 118.66 42.78 124.86 31.39 111.9 31.99 115.41 19.5 102.91 22.97 103.56 10.02 92.15 16.18 89.89 3.4 80.13 11.95 75.09 0 67.48 10.5 10.53 67.26 0 74.83 11.93 79.91 3.35 89.63 16.11 91.93 9.91 103.33 22.87 102.73 19.36 115.21 31.86 111.75 31.21 124.7 42.63 118.54 44.88 131.31 54.63 122.77 59.67 134.72 67.28 124.22 74.86 134.74 79.94 122.81 89.66 131.39 91.96 118.63 103.35 124.83 102.75 111.87 115.24 115.38 111.77 102.89 124.73 103.53 118.57 92.12 131.34 89.86 122.79 80.11 134.74 75.07 124.24 67.46"/><path class="cls-2" d="M67.49,10.5l-57,56.76S33.54,66.47,50,50,67.49,10.5,67.49,10.5Z"/></g></g></svg>