<svg xmlns="http://www.w3.org/2000/svg" xmlns:xlink="http://www.w3.org/1999/xlink" viewBox="0 0 217 211"><defs><style>.cls-1{isolation:isolate;}.cls-13,.cls-2,.cls-20,.cls-21,.cls-24,.cls-25,.cls-3,.cls-34,.cls-36,.cls-39,.cls-41,.cls-8,.cls-9{mix-blend-mode:multiply;}.cls-2{fill:url(#radial-gradient);}.cls-3{fill:url(#radial-gradient-2);}.cls-14,.cls-30,.cls-4{fill:#f2f2f2;}.cls-5{fill:url(#_14);}.cls-20,.cls-41,.cls-6,.cls-8{fill:#bfbfbf;}.cls-21,.cls-7,.cls-9{fill:gray;}.cls-39,.cls-8,.cls-9{opacity:0.5;}.cls-10{fill:#ff813a;}.cls-11{fill:#91360f;}.cls-12{fill:#6d2709;}.cls-13{fill:#787878;opacity:0.6;}.cls-14{opacity:0.3;}.cls-14,.cls-33{mix-blend-mode:screen;}.cls-15{fill:#f7931e;}.cls-16{fill:#77b818;}.cls-17{fill:#7fcc00;}.cls-18{fill:#007327;}.cls-19{fill:#ffc200;}.cls-22{fill:#ffebc0;}.cls-23{fill:#c5b091;}.cls-24{fill:#e6e6e6;}.cls-25{fill:#b3b3b3;}.cls-26{fill:#fdf7f7;}.cls-27{fill:#f3d4d4;}.cls-28{fill:#d60c00;}.cls-29{fill:#ff3c2d;}.cls-30{opacity:0.7;}.cls-31{opacity:0.39;}.cls-32{fill:#fff8d5;}.cls-33{opacity:0.49;}.cls-34,.cls-36,.cls-41{opacity:0.4;}.cls-35,.cls-36{fill:#919191;}.cls-37{fill:#ce9200;}.cls-38{fill:url(#_23);}.cls-40{fill:#ff6100;}.cls-42{fill:#568e00;}.cls-43{fill:#f10;}.cls-44{fill:#ff5143;}</style><radialGradient id="radial-gradient" cx="108.5" cy="43.18" r="108.5" gradientTransform="translate(0 63.51) scale(1 0.97)" gradientUnits="userSpaceOnUse"><stop offset="0"/><stop offset="0.12" stop-color="#1a1a1a"/><stop offset="0.38" stop-color="#5e5e5e"/><stop offset="0.74" stop-color="#cacaca"/><stop offset="0.92" stop-color="#fff"/></radialGradient><radialGradient id="radial-gradient-2" cx="1535.54" cy="661.06" r="108.51" gradientTransform="translate(-1011.16 -368.48) scale(0.74 0.75)" gradientUnits="userSpaceOnUse"><stop offset="0.57"/><stop offset="0.58" stop-color="#121212"/><stop offset="0.62" stop-color="#494949"/><stop offset="0.66" stop-color="#7a7a7a"/><stop offset="0.7" stop-color="#a3a3a3"/><stop offset="0.74" stop-color="#c4c4c4"/><stop offset="0.78" stop-color="#dedede"/><stop offset="0.83" stop-color="#f0f0f0"/><stop offset="0.87" stop-color="#fbfbfb"/><stop offset="0.92" stop-color="#fff"/></radialGradient><linearGradient id="_14" x1="50.61" y1="67.98" x2="145.02" y2="122.49" gradientTransform="translate(-36 92.33) rotate(-45)" gradientUnits="userSpaceOnUse"><stop offset="0" stop-color="#ebebeb"/><stop offset="1" stop-color="#595959"/></linearGradient><radialGradient id="_23" cx="121.5" cy="70.5" r="14.5" gradientUnits="userSpaceOnUse"><stop offset="0" stop-color="#ff6100"/><stop offset="0.35" stop-color="#ff7f00"/><stop offset="1" stop-color="#ffc200"/></radialGradient></defs><title>Ресурс 3</title><g class="cls-1"><g id="Слой_2" data-name="Слой 2"><g id="elements"><ellipse class="cls-2" cx="108.5" cy="105.5" rx="108.5" ry="105.5"/><ellipse class="cls-3" cx="121" cy="125" rx="80" ry="81"/><circle class="cls-4" cx="100.5" cy="90.5" r="86.5"/><path class="cls-5" d="M62,52A54.5,54.5,0,1,0,139,52,54.5,54.5,0,0,0,62,52Zm72.12,72.12a47.5,47.5,0,1,1,0-67.18A47.5,47.5,0,0,1,134.09,124.09Z"/><path class="cls-6" d="M85,97c4.23,12.62,10.45,13.09,13,24,3.59,15.36-6.66,23.3-2,31,5.33,8.8,24.74,8.37,38,4,22.91-7.55,42.06-31.67,43-59,.12-3.38.81-39.84-26-53-25.41-12.47-59.75,3.72-67,25C79.86,81.16,84.44,95.32,85,97Z"/><path class="cls-7" d="M82,94c4.23,12.62,10.45,13.09,13,24,3.59,15.36-6.66,23.3-2,31,5.33,8.8,24.74,8.37,38,4,22.91-7.55,42.06-31.67,43-59,.12-3.38.81-39.84-26-53-25.41-12.47-59.75,3.72-67,25C76.86,78.16,81.44,92.32,82,94Z"/><path class="cls-8" d="M63.25,69.42c-3.87,1.17-9,3.47-12,8.33-4.54,7.48.11,14.54-3.22,22.83-1.74,4.33-6,8.82-17.28,13,3.94,2.76,7.93,6.46,11.87,9.22,11.6-6,15.6-12.6,17.1-17.51,2.59-8.48-1.17-15.6,3.67-20.32,4.39-4.28,11.32-2.14,12.11-4.72C76,78.53,73.78,75.46,63.25,69.42Z"/><path class="cls-9" d="M62.44,68.26c-3.87,1.17-9,3.47-12,8.33-4.54,7.48.11,14.54-3.22,22.83-1.74,4.33-6,8.82-17.28,13,3.94,2.76,7.93,6.46,11.87,9.22,11.6-6,15.6-12.6,17.1-17.51,2.59-8.48-1.17-15.6,3.67-20.32C67,79.48,73.9,81.63,74.7,79,75.21,77.37,73,74.3,62.44,68.26Z"/><path class="cls-10" d="M61.26,66.93c-3.87,1.17-9,3.47-12,8.33-4.54,7.48.11,14.54-3.22,22.83-1.74,4.33-6,9.76-17.22,13.91l11.81,8.27c11.6-6,15.6-12.6,17.1-17.51,2.59-8.48-1.17-15.6,3.67-20.32,4.39-4.28,11.32-2.14,12.11-4.72C74,76,71.8,73,61.26,66.93Z"/><path class="cls-11" d="M42.24,116.66h0a1.42,1.42,0,0,1-2,.05l-4.34-4.12a1.42,1.42,0,0,1-.05-2h0a1.42,1.42,0,0,1,2-.05l4.34,4.12A1.42,1.42,0,0,1,42.24,116.66Z"/><path class="cls-11" d="M48.18,111.73h0a1.42,1.42,0,0,1-2,.05l-4.34-4.12a1.42,1.42,0,0,1-.05-2h0a1.42,1.42,0,0,1,2-.05l4.34,4.12A1.42,1.42,0,0,1,48.18,111.73Z"/><path class="cls-11" d="M55.62,101.07h0a1.42,1.42,0,0,1-2,.05L49.28,97a1.42,1.42,0,0,1-.05-2h0a1.42,1.42,0,0,1,2-.05l4.34,4.12A1.42,1.42,0,0,1,55.62,101.07Z"/><path class="cls-11" d="M67.1,77.5h0a1.42,1.42,0,0,1-2,.05l-4.34-4.12a1.42,1.42,0,0,1-.05-2h0a1.42,1.42,0,0,1,2-.05L67,75.49A1.42,1.42,0,0,1,67.1,77.5Z"/><path class="cls-11" d="M56.21,91.2h0a1.42,1.42,0,0,1-2,.05l-4.34-4.12a1.42,1.42,0,0,1-.05-2h0a1.42,1.42,0,0,1,2-.05l4.34,4.12A1.42,1.42,0,0,1,56.21,91.2Z"/><path class="cls-11" d="M53,106.92h0a1.42,1.42,0,0,1-2,.05l-4.34-4.12a1.42,1.42,0,0,1-.05-2h0a1.42,1.42,0,0,1,2-.05L53,104.92A1.42,1.42,0,0,1,53,106.92Z"/><path class="cls-11" d="M57.86,81.23h0a1.42,1.42,0,0,1-2,.05l-4.34-4.12a1.42,1.42,0,0,1-.05-2h0a1.42,1.42,0,0,1,2-.05l4.34,4.12A1.42,1.42,0,0,1,57.86,81.23Z"/><path class="cls-11" d="M73.52,77.71a2.7,2.7,0,0,0-.71-2.32,1.81,1.81,0,0,1,0,1.08c-.79,2.58-7.71.44-12.11,4.72C55.89,85.9,59.66,93,57.07,101.51,55.57,106.42,51.57,113,40,119l-10.43-7.3-.71.28,11.81,8.27c11.6-6,15.6-12.6,17.1-17.51,2.59-8.48-1.17-15.6,3.67-20.32C65.8,78.15,72.73,80.29,73.52,77.71Z"/><path class="cls-12" d="M42.19,114.66l-4.34-4.12a1.41,1.41,0,0,0-1.46-.29,1.41,1.41,0,0,1,.46.29l4.34,4.12a1.42,1.42,0,0,1,.05,2,1.39,1.39,0,0,1-.54.34,1.42,1.42,0,0,0,1.49-2.35Z"/><path class="cls-12" d="M48.19,109.66l-4.34-4.12a1.41,1.41,0,0,0-1.46-.29,1.41,1.41,0,0,1,.46.29l4.34,4.12a1.42,1.42,0,0,1,.05,2,1.39,1.39,0,0,1-.54.34,1.42,1.42,0,0,0,1.49-2.35Z"/><path class="cls-12" d="M53,104.92l-4.34-4.12a1.41,1.41,0,0,0-1.46-.29,1.41,1.41,0,0,1,.46.29L52,104.92a1.42,1.42,0,0,1,.05,2h0a1.39,1.39,0,0,1-.54.34,1.42,1.42,0,0,0,1.54-.34h0A1.42,1.42,0,0,0,53,104.92Z"/><path class="cls-12" d="M55.57,99.07l-4.34-4.12a1.41,1.41,0,0,0-1.46-.29,1.41,1.41,0,0,1,.46.29l4.34,4.12a1.42,1.42,0,0,1,.05,2,1.39,1.39,0,0,1-.54.34,1.42,1.42,0,0,0,1.49-2.35Z"/><path class="cls-12" d="M56.16,89.19l-4.34-4.12a1.41,1.41,0,0,0-1.46-.29,1.41,1.41,0,0,1,.46.29l4.34,4.12a1.42,1.42,0,0,1,.05,2,1.39,1.39,0,0,1-.54.34,1.42,1.42,0,0,0,1.49-2.35Z"/><path class="cls-12" d="M57.81,79.22,53.48,75.1A1.41,1.41,0,0,0,52,74.81a1.41,1.41,0,0,1,.46.29l4.34,4.12a1.42,1.42,0,0,1,.05,2,1.39,1.39,0,0,1-.54.34,1.42,1.42,0,0,0,1.49-2.35Z"/><path class="cls-12" d="M67,75.49l-4.34-4.12a1.41,1.41,0,0,0-1.46-.29,1.41,1.41,0,0,1,.46.29L66,75.49a1.42,1.42,0,0,1,.05,2,1.39,1.39,0,0,1-.54.34A1.42,1.42,0,0,0,67,75.49Z"/><path class="cls-13" d="M37,115a4.77,4.77,0,0,0,2.61,1.62C46.89,118,56.39,97.36,56.25,97.28A36,36,0,0,1,47,109,38,38,0,0,1,37,115Z"/><path class="cls-14" d="M33.67,112c9.85-2.52,13.66-6.71,15.33-10,3.78-7.44-1.5-13.87,3-23,3.31-6.72,9.31-9.61,9-10s-7.65,2.43-11,9c-3.52,6.92.48,11.82-1.67,19.17C47.11,101.35,43.72,106.92,33.67,112Z"/><path class="cls-13" d="M59,78c0,.14,10.14-.49,10.47-3.18C69.64,73.4,67.06,71.51,66,72c-.73.34-.27,1.6-1,3C63.54,77.8,59,77.91,59,78Z"/><path class="cls-8" d="M49.25,51.42c-3.87,1.17-9,3.47-12,8.33-4.54,7.48.11,14.54-3.22,22.83-1.74,4.33-6,8.82-17.28,13,3.94,2.76,7.93,6.46,11.87,9.22,11.6-6,15.6-12.6,17.1-17.51,2.59-8.48-1.17-15.6,3.67-20.32,4.39-4.28,11.32-2.14,12.11-4.72C62,60.53,59.78,57.46,49.25,51.42Z"/><path class="cls-9" d="M48.44,50.26c-3.87,1.17-9,3.47-12,8.33-4.54,7.48.11,14.54-3.22,22.83-1.74,4.33-6,8.82-17.28,13,3.94,2.76,7.93,6.46,11.87,9.22,11.6-6,15.6-12.6,17.1-17.51,2.59-8.48-1.17-15.6,3.67-20.32C53,61.48,59.9,63.63,60.7,61,61.21,59.37,59,56.3,48.44,50.26Z"/><path class="cls-10" d="M47.26,48.93c-3.87,1.17-9,3.47-12,8.33-4.54,7.48.11,14.54-3.22,22.83-1.74,4.33-6,9.76-17.22,13.91l11.81,8.27c11.6-6,15.6-12.6,17.1-17.51,2.59-8.48-1.17-15.6,3.67-20.32,4.39-4.28,11.32-2.14,12.11-4.72C60,58,57.8,55,47.26,48.93Z"/><path class="cls-11" d="M28.24,98.66h0a1.42,1.42,0,0,1-2,.05L21.9,94.59a1.42,1.42,0,0,1-.05-2h0a1.42,1.42,0,0,1,2-.05l4.34,4.12A1.42,1.42,0,0,1,28.24,98.66Z"/><path class="cls-11" d="M34.18,93.73h0a1.42,1.42,0,0,1-2,.05l-4.34-4.12a1.42,1.42,0,0,1-.05-2h0a1.42,1.42,0,0,1,2-.05l4.34,4.12A1.42,1.42,0,0,1,34.18,93.73Z"/><path class="cls-11" d="M41.62,83.07h0a1.42,1.42,0,0,1-2,.05L35.28,79a1.42,1.42,0,0,1-.05-2h0a1.42,1.42,0,0,1,2-.05l4.34,4.12A1.42,1.42,0,0,1,41.62,83.07Z"/><path class="cls-11" d="M53.1,59.5h0a1.42,1.42,0,0,1-2,.05l-4.34-4.12a1.42,1.42,0,0,1-.05-2h0a1.42,1.42,0,0,1,2-.05L53,57.49A1.42,1.42,0,0,1,53.1,59.5Z"/><path class="cls-11" d="M42.21,73.2h0a1.42,1.42,0,0,1-2,.05l-4.34-4.12a1.42,1.42,0,0,1-.05-2h0a1.42,1.42,0,0,1,2-.05l4.34,4.12A1.42,1.42,0,0,1,42.21,73.2Z"/><path class="cls-11" d="M39,88.92h0A1.42,1.42,0,0,1,37,89l-4.34-4.12a1.42,1.42,0,0,1-.05-2h0a1.42,1.42,0,0,1,2-.05L39,86.92A1.42,1.42,0,0,1,39,88.92Z"/><path class="cls-11" d="M43.86,63.23h0a1.42,1.42,0,0,1-2,.05l-4.34-4.12a1.42,1.42,0,0,1-.05-2h0a1.42,1.42,0,0,1,2-.05l4.34,4.12A1.42,1.42,0,0,1,43.86,63.23Z"/><path class="cls-11" d="M59.52,59.71a2.7,2.7,0,0,0-.71-2.32,1.81,1.81,0,0,1,0,1.08c-.79,2.58-7.71.44-12.11,4.72C41.89,67.9,45.66,75,43.07,83.51,41.57,88.42,37.57,95,26,101l-10.43-7.3-.71.28,11.81,8.27c11.6-6,15.6-12.6,17.1-17.51,2.59-8.48-1.17-15.6,3.67-20.32C51.8,60.15,58.73,62.29,59.52,59.71Z"/><path class="cls-12" d="M28.19,96.66l-4.34-4.12a1.41,1.41,0,0,0-1.46-.29,1.41,1.41,0,0,1,.46.29l4.34,4.12a1.42,1.42,0,0,1,.05,2,1.39,1.39,0,0,1-.54.34,1.42,1.42,0,0,0,1.49-2.35Z"/><path class="cls-12" d="M34.19,91.66l-4.34-4.12a1.41,1.41,0,0,0-1.46-.29,1.41,1.41,0,0,1,.46.29l4.34,4.12a1.42,1.42,0,0,1,.05,2,1.39,1.39,0,0,1-.54.34,1.42,1.42,0,0,0,1.49-2.35Z"/><path class="cls-12" d="M39,86.92l-4.34-4.12a1.41,1.41,0,0,0-1.46-.29,1.41,1.41,0,0,1,.46.29L38,86.92a1.42,1.42,0,0,1,.05,2h0a1.39,1.39,0,0,1-.54.34A1.42,1.42,0,0,0,39,88.92h0A1.42,1.42,0,0,0,39,86.92Z"/><path class="cls-12" d="M41.57,81.07l-4.34-4.12a1.41,1.41,0,0,0-1.46-.29,1.41,1.41,0,0,1,.46.29l4.34,4.12a1.42,1.42,0,0,1,.05,2,1.39,1.39,0,0,1-.54.34,1.42,1.42,0,0,0,1.49-2.35Z"/><path class="cls-12" d="M42.16,71.19l-4.34-4.12a1.41,1.41,0,0,0-1.46-.29,1.41,1.41,0,0,1,.46.29l4.34,4.12a1.42,1.42,0,0,1,.05,2,1.39,1.39,0,0,1-.54.34,1.42,1.42,0,0,0,1.49-2.35Z"/><path class="cls-12" d="M43.81,61.22,39.48,57.1A1.41,1.41,0,0,0,38,56.81a1.41,1.41,0,0,1,.46.29l4.34,4.12a1.42,1.42,0,0,1,.05,2,1.39,1.39,0,0,1-.54.34,1.42,1.42,0,0,0,1.49-2.35Z"/><path class="cls-12" d="M53,57.49l-4.34-4.12a1.41,1.41,0,0,0-1.46-.29,1.41,1.41,0,0,1,.46.29L52,57.49a1.42,1.42,0,0,1,.05,2,1.39,1.39,0,0,1-.54.34A1.42,1.42,0,0,0,53,57.49Z"/><path class="cls-13" d="M23,97a4.77,4.77,0,0,0,2.61,1.62C32.89,100,42.39,79.36,42.25,79.28A36,36,0,0,1,33,91,38,38,0,0,1,23,97Z"/><path class="cls-14" d="M19.67,94C29.51,91.48,33.32,87.29,35,84c3.78-7.44-1.5-13.87,3-23,3.31-6.72,9.31-9.61,9-10s-7.65,2.43-11,9c-3.52,6.92.48,11.82-1.67,19.17C33.11,83.35,29.72,88.92,19.67,94Z"/><path class="cls-13" d="M45,60c0,.14,10.14-.49,10.47-3.18C55.64,55.4,53.06,53.51,52,54c-.73.34-.27,1.6-1,3C49.54,59.8,45,59.91,45,60Z"/><path class="cls-15" d="M179,149a67.69,67.69,0,0,0-9.1-32.27l-59.78,8.68a87.25,87.25,0,0,0,1,30,85.89,85.89,0,0,0,4.11,13.71,77.69,77.69,0,0,1,8.18-4.36c20.9-9.59,41.75-7.86,54.9-5.27A63.75,63.75,0,0,0,179,149Zm-59.18-15.44c-.5-3.15,2.36-6.23,6.39-6.86s7.69,1.41,8.19,4.56-2.36,6.23-6.39,6.86S120.33,136.71,119.84,133.56ZM126,157.18a4.26,4.26,0,1,1,4-4.92A4.51,4.51,0,0,1,126,157.18Zm27.25-14.1c-1.9,4.18-5.93,6.43-9,5s-4-5.91-2.1-10.09,5.93-6.43,9-5S155.15,138.91,153.25,143.08Zm9.8-8a2.7,2.7,0,1,1,3.22,2A2.69,2.69,0,0,1,163,135.08Zm4.18,15.16c-3.34.53-6.38-1.24-6.81-3.93s1.93-5.31,5.27-5.84,6.38,1.24,6.81,3.93S170.56,149.71,167.23,150.24Z"/><path class="cls-16" d="M167,189.23c0-.05,0,0,0,0S166.87,189.44,167,189.23Z"/><path class="cls-17" d="M130.63,46.39c16.24-4.06,20.86-31.48,16.88-34-1.83-1.15-4.68,3.49-10.32,2.61-4.43-.69-6.63-4.16-9.25-3-2.09.89-1.64,3.48-3.56,4.11-3,1-6.09-4.8-8.51-4-2.72,1-.73,8.88-4,10.53-3,1.52-7.11-4-8.7-2.88-2.4,1.64,1,18.2,13.55,24.53C118.32,45.1,124.1,48,130.63,46.39Z"/><path class="cls-18" d="M131.29,41.72c7-2.5,11.56-14.36,8.48-19.27-.41-.65-1.74-1.82-4.4-4.17-4.75-4.18-5.55-4.13-5.92-4-2.71.66-1.93,8.07-4.17,8.56-2.62.58-6.38-8.93-7.9-8.4s1.76,9-1.18,11.16C113,27.92,105.4,21.2,104.71,22,103.58,23.43,119.62,45.86,131.29,41.72Z"/><path class="cls-17" d="M136.46,58.65c11.18,12.46,37.58,3.72,37.93-1,.16-2.16-5.27-2.51-7.13-7.91-1.46-4.24.58-7.8-1.63-9.6-1.76-1.43-3.85.18-5.29-1.23-2.28-2.21,1.4-7.63-.49-9.37-2.11-2-8.19,3.51-11.16,1.42-2.73-1.92.18-8.13-1.52-9-2.57-1.36-15.6,9.43-15.35,23.45C131.84,47.17,132,53.64,136.46,58.65Z"/><path class="cls-18" d="M140.89,57c5.51,5.06,18.1,3.51,21-1.51.38-.67.8-2.39,1.63-5.84,1.48-6.16,1.05-6.84.8-7.12-1.85-2.08-8,2.07-9.51.31-1.73-2,4.91-9.82,3.73-10.92s-7.09,5.74-10.41,4.18c-3.56-1.68-1.2-11.58-2.27-11.79C144.11,24,131.78,48.67,140.89,57Z"/><path class="cls-17" d="M142.32,63.59c-9.48,16.32,13.63,33.75,19.39,31.46,2.65-1.06.45-5.83,6-10.39,4.35-3.57,9.58-3.83,10.66-6.69.86-2.27-2.06-3.15-1.08-5.14,1.54-3.14,9.76-3,10.94-5.6,1.32-2.87-8.12-5-7.06-8.63,1-3.37,9.78-4.35,10-6.28.38-2.92-18.74-7.95-35.33,0C153.79,53.35,146.13,57,142.32,63.59Z"/><path class="cls-18" d="M146.36,66.44c-3.39,7.44,4.52,17.21,11.89,16.88A60.06,60.06,0,0,0,166,81.46c8.05-2.16,8.66-2.89,8.88-3.26,1.6-2.71-6.32-5.63-4.95-7.85,1.61-2.59,14.06-1.29,14.81-2.89s-10.25-2.8-10-6.47c.29-3.93,13.23-7.41,13-8.44C187.3,50.89,152,54.12,146.36,66.44Z"/><path class="cls-19" d="M178.44,147.7a67.69,67.69,0,0,0-9.1-32.27l-59.78,8.68a87.25,87.25,0,0,0,1,30,85.89,85.89,0,0,0,4.11,13.71,77.69,77.69,0,0,1,8.18-4.36c20.9-9.59,41.75-7.86,54.9-5.27A63.75,63.75,0,0,0,178.44,147.7Zm-59.18-15.44c-.5-3.15,2.36-6.23,6.39-6.86s7.69,1.41,8.19,4.56-2.36,6.23-6.39,6.86S119.76,135.42,119.26,132.26Zm6.16,23.63a4.26,4.26,0,1,1,4-4.92A4.51,4.51,0,0,1,125.42,155.89Zm27.25-14.1c-1.9,4.18-5.93,6.43-9,5s-4-5.91-2.1-10.09,5.93-6.43,9-5S154.58,137.61,152.67,141.79Zm9.8-8a2.7,2.7,0,1,1,3.22,2A2.69,2.69,0,0,1,162.47,133.79Zm4.18,15.16c-3.34.53-6.38-1.24-6.81-3.93s1.93-5.31,5.27-5.84,6.38,1.24,6.81,3.93S170,148.42,166.65,148.94Z"/><path class="cls-20" d="M71.68,131.37c.14-2-.74-4.27-2.07-4.8-2.61-1-5.13,5.58-11.14,5.92a9.15,9.15,0,0,1-2.8-.29,2.38,2.38,0,0,1,.55-1c1.13-1.18,2.74-.14,4-1.08a2.1,2.1,0,0,0,.26-.24l.11-.13.12-.15.13-.21.07-.11c0-.09.09-.19.13-.28l0-.07c0-.11.09-.23.12-.35v0c0-.13.07-.27.1-.41h0a5.79,5.79,0,0,0,.11-.87h0a4.77,4.77,0,0,0-1-3.41c-2.34-2.5-9.93-1.17-13.19,3.6-3.38,4.94-1.77,13.08,3.49,16.33,5.62,3.46,13.87.39,14.75-3.07a4.71,4.71,0,0,0-1.13-3.88h0a4.49,4.49,0,0,0-.39-.4l-.15-.12a3.32,3.32,0,0,0-.39-.28l-.17-.1a2.3,2.3,0,0,0-.56-.22c-1.79-.4-3,1.91-4.84,1.32a2.46,2.46,0,0,1-.73-.39,11.19,11.19,0,0,1,1.69-1.31c5.08-3.14,10.22.61,12.23-1.9a3.65,3.65,0,0,0,.69-2h0Z"/><path class="cls-21" d="M70.73,131.59c.14-2-.74-4.27-2.07-4.8-2.61-1-5.13,5.58-11.14,5.92a9.15,9.15,0,0,1-2.8-.29,2.38,2.38,0,0,1,.55-1c1.13-1.18,2.74-.14,4-1.08a2.11,2.11,0,0,0,.26-.24l.11-.13.12-.15.13-.21.07-.11c0-.09.09-.19.13-.28l0-.07c0-.11.09-.23.12-.35v0c0-.13.07-.27.1-.41h0a5.79,5.79,0,0,0,.11-.87h0a4.77,4.77,0,0,0-1-3.41c-2.34-2.5-9.93-1.17-13.19,3.6-3.38,4.94-1.77,13.08,3.49,16.33,5.62,3.46,13.87.39,14.75-3.07A4.71,4.71,0,0,0,63.32,137h0a4.47,4.47,0,0,0-.39-.4l-.15-.12a3.32,3.32,0,0,0-.39-.28l-.17-.1a2.3,2.3,0,0,0-.56-.22c-1.79-.4-3,1.91-4.84,1.32a2.46,2.46,0,0,1-.73-.39,11.2,11.2,0,0,1,1.69-1.31c5.08-3.14,10.22.61,12.23-1.9a3.65,3.65,0,0,0,.69-2h0Z"/><path class="cls-22" d="M53.5,133.71a3.7,3.7,0,0,0,2.17,2.77c1.87.59,3-1.72,4.84-1.32s3.26,3.11,2.78,5c-.88,3.45-9.13,6.53-14.75,3.07C43.27,140,41.66,131.84,45,126.9c3.26-4.77,10.85-6.1,13.19-3.6,1.47,1.57,1.31,5.14-.18,6.29-1.22.94-2.83-.1-4,1.08A3.63,3.63,0,0,0,53.5,133.71Z"/><path class="cls-22" d="M68.86,132.88c-2,2.51-7.15-1.25-12.23,1.9-2.06,1.28-2.68,2.8-4,2.54-2.12-.4-3.73-4.72-2.58-6,1-1.07,2.94.87,6.32.67,6-.34,8.53-6.94,11.14-5.92C69.34,126.78,70.34,131,68.86,132.88Z"/><path class="cls-23" d="M49.19,134.9c1,3.6,5.26,5.89,8.34,5.05a9.56,9.56,0,0,0,4.53-3.14c0-.07-.06-.14-.08-.21a.16.16,0,0,1,0-.18.81.81,0,0,0,.12-.14,3.19,3.19,0,0,0-1.65-1.12c-1.79-.4-3,1.91-4.84,1.32a3.7,3.7,0,0,1-2.17-2.77,3.63,3.63,0,0,1,.59-3c1.13-1.18,2.74-.14,4-1.08a3.92,3.92,0,0,0,1.19-2.87A3.49,3.49,0,0,0,56,126.4C51.77,127.54,48,130.72,49.19,134.9Z"/><path class="cls-23" d="M62.22,131.54c.19.71,3.13.48,5.43-.15l1.9-.54a6,6,0,0,0-1.29-4.23l-.57.15C63.18,128,62.1,131.09,62.22,131.54Z"/><path class="cls-20" d="M81.59,129.22c-1.73-1.24-4.39-1.74-5.63-.81-2.43,1.84,2.25,7.93-.86,13.7a10,10,0,0,1-1.86,2.43,2.59,2.59,0,0,1-.63-1.09c-.45-1.72,1.43-2.62,1.25-4.28a2.28,2.28,0,0,0-.07-.38c0-.06,0-.12-.06-.17s0-.13-.07-.2-.08-.16-.12-.24l-.07-.13c-.06-.1-.12-.19-.19-.28l0-.07-.26-.31,0,0-.32-.33h0a6.3,6.3,0,0,0-.75-.6h0a5.19,5.19,0,0,0-3.74-1c-3.65.74-6.74,8.54-4.17,14.27,2.66,5.94,11.12,9.09,17.12,6.06,6.41-3.24,8.26-12.63,5.56-15.42a5.12,5.12,0,0,0-4.24-1.16h0a4.86,4.86,0,0,0-.59.13l-.19.07a3.62,3.62,0,0,0-.49.2l-.18.1a2.5,2.5,0,0,0-.52.39c-1.39,1.43.08,3.84-1.53,5.23a2.67,2.67,0,0,1-.78.46,12.18,12.18,0,0,1-.25-2.31c0-6.5,6.38-9.13,5.21-12.42a4,4,0,0,0-1.48-1.8h0Z"/><path class="cls-21" d="M81.25,130.23c-1.73-1.24-4.39-1.74-5.63-.81-2.43,1.84,2.25,7.93-.86,13.7a10,10,0,0,1-1.86,2.42,2.59,2.59,0,0,1-.63-1.09c-.45-1.72,1.43-2.62,1.25-4.28a2.28,2.28,0,0,0-.07-.38c0-.06,0-.12-.06-.17s0-.13-.07-.2-.08-.16-.12-.24l-.07-.13c-.06-.1-.12-.19-.19-.28l0-.07-.26-.31,0,0-.32-.33h0a6.3,6.3,0,0,0-.75-.6h0a5.19,5.19,0,0,0-3.74-1c-3.65.74-6.74,8.54-4.17,14.27,2.66,5.94,11.12,9.09,17.12,6.06,6.41-3.24,8.26-12.63,5.56-15.42a5.12,5.12,0,0,0-4.24-1.16h0a4.86,4.86,0,0,0-.59.13l-.19.07a3.6,3.6,0,0,0-.49.2l-.18.1a2.5,2.5,0,0,0-.52.39c-1.39,1.43.08,3.84-1.53,5.23a2.67,2.67,0,0,1-.78.46,12.18,12.18,0,0,1-.25-2.31c0-6.5,6.38-9.13,5.21-12.42a4,4,0,0,0-1.48-1.8h0Z"/><path class="cls-22" d="M73.4,147.39a4,4,0,0,0,3.8-.43c1.61-1.4.14-3.81,1.53-5.23s4.74-1.25,6.22.28c2.7,2.79.85,12.18-5.56,15.42-6,3-14.46-.12-17.12-6.06-2.57-5.74.52-13.53,4.17-14.27,2.29-.46,5.51,1.71,5.73,3.75.18,1.66-1.71,2.56-1.25,4.28A4,4,0,0,0,73.4,147.39Z"/><path class="cls-22" d="M81.38,132.69c1.18,3.29-5.23,5.92-5.21,12.42,0,2.64,1.07,4.07.06,5.18-1.58,1.74-6.5.77-7-1-.45-1.49,2.48-2.23,4.22-5.48,3.11-5.77-1.58-11.86.86-13.7C76,128.77,80.51,130.26,81.38,132.69Z"/><path class="cls-23" d="M72,152.07c3.89,1.14,8.46-1.52,9.43-4.86a10.4,10.4,0,0,0-.33-6l-.24,0a.18.18,0,0,1-.14-.15.89.89,0,0,0-.06-.2,3.46,3.46,0,0,0-2,.89c-1.39,1.43.08,3.84-1.53,5.23a4,4,0,0,1-3.8.43,4,4,0,0,1-2.48-2.28c-.45-1.72,1.43-2.62,1.25-4.28a4.27,4.27,0,0,0-2-2.74A3.8,3.8,0,0,0,68,140.94C66.7,145.5,67.53,150.75,72,152.07Z"/><path class="cls-23" d="M76.36,138.08c.77.22,2.23-2.63,3-5.12.2-.69.39-1.38.58-2.07a6.54,6.54,0,0,0-4.66-1.21l-.19.62C73.62,135.18,75.87,137.94,76.36,138.08Z"/><path class="cls-24" d="M82.29,54.87c0,.05,0,.11,0,.16-4.18-27.65-45.54-23.55-44.15,4.42,0-.05,0-.1,0-.16C39.42,90.26,87.2,85.8,82.29,54.87Zm-39.6,5.26c-2.2-21.94,29.63-27.09,34.83-6C83.63,78.8,45.17,84.88,42.69,60.13Z"/><path class="cls-25" d="M82.92,54.1c0,.05,0,.11,0,.16-4.18-27.65-45.54-23.55-44.15,4.42,0-.05,0-.1,0-.16C40.06,89.48,87.83,85,82.92,54.1ZM43.25,57.88C42.87,36,74.51,33.35,78.38,54.36,83,79.47,43.69,83.22,43.25,57.88Z"/><path class="cls-26" d="M83,54C80,24.72,35.76,29.13,38.69,58.4S85.88,83.24,83,54ZM59.05,38.54c23.31-2.33,26.87,32.94,3.53,35.28S35.72,40.88,59.05,38.54Z"/><path class="cls-27" d="M82.78,52.69C84,80.44,42.94,84.56,38.6,57.11,39.93,88.35,87.63,83.33,82.78,52.69Z"/><path class="cls-27" d="M78.28,53.14c-.7-25.08-39.5-21.37-35.18,3.52C42.49,34.85,74.55,31.63,78.28,53.14Z"/><path class="cls-24" d="M61.31,58.89c0,.05,0,.11,0,.16-8-26.78-41.69-18-36,9.38l-.05-.15C31.46,98.64,70.44,88.81,61.31,58.89ZM29.25,68.58c-5.41-21.38,20.2-30.08,28-9.91C66.33,82.33,35.36,92.7,29.25,68.58Z"/><path class="cls-25" d="M61.71,58.05c0,.05,0,.11,0,.16-8-26.78-41.69-18-36,9.38l-.05-.15C31.86,97.81,70.84,88,61.71,58.05ZM29.35,66.3c-3.89-21.52,22-27.73,28.62-7.47C65.93,83.06,33.85,91.22,29.35,66.3Z"/><path class="cls-26" d="M61.71,57.93C54.5,29.43,18.43,38.81,25.65,67.33S68.93,86.44,61.71,57.93ZM39.33,45.44c19-5,27.71,29.41,8.7,34.37S20.32,50.4,39.33,45.44Z"/><path class="cls-27" d="M61.36,56.68c5.52,27.21-27.9,35.95-36,9.39C31.57,96.7,70.4,86.34,61.36,56.68Z"/><path class="cls-27" d="M57.69,57.64C53,33,21.38,41.07,29,65.12,25,43.69,51.08,36.86,57.69,57.64Z"/><path class="cls-24" d="M72.5,70.14s0,.09,0,.13C67.94,48.33,40,58.11,42.63,80.75l0-.12C45.41,105.72,77.76,94.65,72.5,70.14ZM45.78,80.6C42.92,63,64.34,53.85,69.19,70.25,74.89,89.49,49,100.44,45.78,80.6Z"/><path class="cls-25" d="M72.88,69.41s0,.09,0,.13C68.33,47.6,40.34,57.38,43,80l0-.12C45.79,105,78.14,93.92,72.88,69.41ZM46,78.67c-1.61-17.81,19.83-24.9,23.78-8.34C74.51,90.13,47.88,99.31,46,78.67Z"/><path class="cls-26" d="M72.89,69.3c-3.81-23.44-33.77-13-30,10.5S76.7,92.77,72.89,69.3ZM55.62,60.41C71.4,54.88,76,83.15,60.21,88.69S39.83,66,55.62,60.41Z"/><path class="cls-27" d="M72.7,68.28c2.52,22.49-25.24,32.24-29.9,10.49C45.64,104.08,77.91,92.57,72.7,68.28Z"/><path class="cls-27" d="M69.65,69.35C67.62,49,41.36,58,45.85,77.7,44.08,60,65.78,52.35,69.65,69.35Z"/><path class="cls-28" d="M104.75,65.27c.12-.16.3-.39.53-.71a23.58,23.58,0,0,0,4-16.14,21.78,21.78,0,0,0-8.88-14,21.78,21.78,0,0,0-10.28-13A23.58,23.58,0,0,0,73.55,19.8l-.84.26c-14.57,4.81-18,23.25-17.77,29.75a22.5,22.5,0,0,0,2.56,9,28.18,28.18,0,0,0,5.62,7.92,22.5,22.5,0,0,0,7.68,5.41C76.85,74.58,95.39,77.42,104.75,65.27Z"/><path class="cls-29" d="M103.49,64.38c.11-.15.29-.37.5-.67a22.35,22.35,0,0,0,3.77-15.3,20.64,20.64,0,0,0-8.42-13.28A20.64,20.64,0,0,0,89.61,22.8a22.35,22.35,0,0,0-15.68-1.5l-.8.25c-13.81,4.56-17.08,22-16.84,28.2a21.32,21.32,0,0,0,2.42,8.57A26.7,26.7,0,0,0,64,65.82a21.32,21.32,0,0,0,7.28,5.12C77,73.21,94.62,75.9,103.49,64.38Z"/><path class="cls-28" d="M78.69,35.42c1.79.54,1.6,2.72,3.34,3.23,2.17.64,5.66-1.81,6.36-4.86.8-3.52-2.27-7.15-5.32-8.49-5.2-2.29-11,1.81-13.06,3.31-8.49,6-9.15,16.1-9.23,18.1-.11,2.89-.29,7.35,2.56,9a6,6,0,0,0,6.94-1.07c2.19-2.23,2.15-6,.66-7.47-.74-.72-1.43-.46-1.86-1.14-1.21-1.9,2.51-6.14,3-6.66C73.41,37.92,76.28,34.7,78.69,35.42Z"/><path class="cls-30" d="M81.15,31.68c-.28.85-2.61,2.79-2.61,2.79s-.76-2.94-.48-3.79a1.62,1.62,0,0,1,3.09,1Z"/><path class="cls-30" d="M84.44,35.87c-.83.35-3.82-.16-3.82-.16s1.74-2.49,2.56-2.84a1.62,1.62,0,0,1,1.26,3Z"/><path class="cls-30" d="M76.21,31.38c.28.85-.45,3.8-.45,3.8s-2.35-1.92-2.63-2.78a1.62,1.62,0,1,1,3.08-1Z"/><path class="cls-30" d="M71.84,33.24c.68.58,1.58,3.48,1.58,3.48s-3-.43-3.69-1a1.62,1.62,0,1,1,2.11-2.47Z"/><path class="cls-30" d="M68.45,36.67c.84.31,2.67,2.73,2.67,2.73s-3,.62-3.81.31a1.62,1.62,0,0,1,1.14-3Z"/><path class="cls-30" d="M66.27,41A9.89,9.89,0,0,1,69,42.21a9.89,9.89,0,0,1-2.69,1.36A1.28,1.28,0,1,1,66.27,41Z"/><path class="cls-30" d="M65.08,45.17a9.89,9.89,0,0,1,3,.16s-1.39,2-2,2.22a1.28,1.28,0,1,1-1-2.38Z"/><path class="cls-30" d="M67.1,49a7.82,7.82,0,0,1,2.18-1,7.83,7.83,0,0,1-.65,2.3A1,1,0,0,1,67.1,49Z"/><path class="cls-28" d="M92.62,55.07c.09-1.87-2-2.41-1.94-4.22.12-2.25,3.58-4.75,6.69-4.39,3.58.41,6,4.51,6.25,7.83.44,5.66-5.34,9.74-7.44,11.23-8.51,6-18.22,3.3-20.13,2.72-2.77-.85-7-2.16-7.68-5.41a6,6,0,0,1,3.31-6.2c2.83-1.33,6.39,0,7.27,1.85.44.94,0,1.5.46,2.13,1.4,1.77,6.63-.34,7.27-.61C88.52,59.23,92.5,57.58,92.62,55.07Z"/><path class="cls-30" d="M97,54c-.9,0-3.5,1.54-3.5,1.54s2.52,1.69,3.42,1.71A1.62,1.62,0,0,0,97,54Z"/><path class="cls-30" d="M94.1,49.5c-.6.67-1.11,3.66-1.11,3.66s2.92-.81,3.53-1.48A1.62,1.62,0,0,0,94.1,49.5Z"/><path class="cls-30" d="M95.62,58.75c-.71-.55-3.73-.83-3.73-.83s1,2.85,1.75,3.4a1.62,1.62,0,0,0,2-2.57Z"/><path class="cls-30" d="M92.41,62.26c-.32-.84-2.76-2.64-2.76-2.64s-.59,3-.27,3.81a1.62,1.62,0,0,0,3-1.17Z"/><path class="cls-30" d="M88.05,64.32c0-.9-1.69-3.43-1.69-3.43s-1.57,2.6-1.55,3.49a1.62,1.62,0,1,0,3.25-.07Z"/><path class="cls-30" d="M83.24,64.94a9.89,9.89,0,0,0-.22-3S81.1,63.36,80.84,64a1.28,1.28,0,0,0,2.39.92Z"/><path class="cls-30" d="M78.91,64.68a9.89,9.89,0,0,0,.85-2.9A9.89,9.89,0,0,0,77,63a1.28,1.28,0,1,0,1.92,1.7Z"/><path class="cls-30" d="M76,61.53c.52-.21,1.63-1.74,1.63-1.74a7.82,7.82,0,0,0-2.38-.15A1,1,0,0,0,76,61.53Z"/><g class="cls-31"><path class="cls-32" d="M71.66,55.67C76,54.9,96.91,42.56,97.08,42.43c6.58-4.67,2.69-2.68.63-5.34l-.11-.15-.11-.16c-1.83-2.83,1.34-5.84-5.25-1.17-.17.12-18.73,15.73-20.9,19.61l-.46.33a.34.34,0,0,1,.31.44Z"/></g><g class="cls-33"><path class="cls-4" d="M66.75,28.57C71,24.13,76.82,22.22,82,23.77a13.55,13.55,0,0,1,6.6,4.63c1.9,1.23,3.57,1.7,4.14,1.12s-.22-2.68-1-3.8c-3-4.35-11.22-5.66-17.53-3.07A17.46,17.46,0,0,0,66.75,28.57Z"/></g><g class="cls-34"><path class="cls-35" d="M62.2,48.71c.08-2,.74-12.06,9.23-18.1,2.1-1.5,7.86-5.6,13.06-3.31a10,10,0,0,1,3.25,2.37,10.08,10.08,0,0,0-4.66-4.36c-5.2-2.29-11,1.81-13.06,3.31-8.49,6-9.15,16.1-9.23,18.1-.11,2.72-.27,6.8,2.06,8.7C62,53.36,62.13,50.67,62.2,48.71Z"/><path class="cls-35" d="M81.29,38.25a2.72,2.72,0,0,0-.39-.41A2.63,2.63,0,0,0,81.29,38.25Z"/><path class="cls-35" d="M70.51,48.07c.32.51.79.49,1.31.75a3.5,3.5,0,0,0-.87-1.6,2.14,2.14,0,0,0-.65-.44A1.87,1.87,0,0,0,70.51,48.07Z"/></g><path class="cls-36" d="M70.94,58.79c3.24-1.63,7.1-.54,7.92,1.38.41,1-.16,1.59.34,2.21,1.41,1.76,7.39-.88,8.13-1.21,2.12-1,6.68-3,7-5.67.24-2-2.07-2.39-1.83-4.31s2.51-3.83,5.07-4.72l-.22,0c-3.11-.35-6.57,2.14-6.69,4.39-.09,1.81,2,2.36,1.94,4.22-.12,2.52-4.1,4.16-6,4.93-.65.27-5.88,2.38-7.27.61-.5-.63,0-1.19-.46-2.13-.88-1.89-4.44-3.19-7.27-1.85a6.11,6.11,0,0,0-3.28,4.25A7.92,7.92,0,0,1,70.94,58.79Z"/><path class="cls-28" d="M99.27,53.53l-.78-.42a23.58,23.58,0,0,0-16.56-1.54A21.78,21.78,0,0,0,69.4,62.43,21.78,21.78,0,0,0,58,74.53a23.58,23.58,0,0,0,.88,16.6c.16.35.3.62.39.79,6.92,13.7,25.66,14.38,32.06,13.16a22.5,22.5,0,0,0,8.56-3.87,28.18,28.18,0,0,0,7-6.73,22.5,22.5,0,0,0,4.21-8.4C112.62,79.74,112.68,61,99.27,53.53Z"/><path class="cls-29" d="M98.58,54.91l-.74-.4A22.35,22.35,0,0,0,82.16,53,20.64,20.64,0,0,0,70.28,63.34,20.64,20.64,0,0,0,59.52,74.8a22.35,22.35,0,0,0,.84,15.73c.15.33.28.59.37.75,6.56,13,24.32,13.63,30.38,12.47a21.32,21.32,0,0,0,8.11-3.67,26.71,26.71,0,0,0,6.64-6.38,21.32,21.32,0,0,0,4-8C111.24,79.75,111.29,62,98.58,54.91Z"/><path class="cls-28" d="M73.62,83.72c.26-1.85,2.45-2,2.7-3.78.31-2.24-2.63-5.33-5.75-5.57-3.6-.27-6.73,3.31-7.6,6.52-1.49,5.48,3.42,10.57,5.21,12.43,7.23,7.5,17.28,6.66,19.26,6.44,2.88-.32,7.31-.8,8.56-3.87a6,6,0,0,0-2.09-6.71c-2.53-1.84-6.27-1.23-7.48.46-.6.84-.24,1.48-.85,2-1.7,1.48-6.45-1.57-7-2C76.87,88.58,73.27,86.22,73.62,83.72Z"/><path class="cls-30" d="M69.56,81.85C70.44,82,72.71,84,72.71,84s-2.8,1.18-3.68,1a1.62,1.62,0,0,1,.53-3.21Z"/><path class="cls-30" d="M73.21,78c.47.77.41,3.8.41,3.8s-2.72-1.35-3.18-2.12A1.62,1.62,0,0,1,73.21,78Z"/><path class="cls-30" d="M70,86.78c.8-.41,3.82-.11,3.82-.11s-1.55,2.61-2.35,3A1.62,1.62,0,0,1,70,86.78Z"/><path class="cls-30" d="M72.48,90.83c.47-.76,3.21-2.08,3.21-2.08s0,3-.45,3.8a1.62,1.62,0,1,1-2.76-1.72Z"/><path class="cls-30" d="M76.37,93.67c.19-.88,2.31-3,2.31-3s1.06,2.84.87,3.72a1.62,1.62,0,1,1-3.18-.67Z"/><path class="cls-30" d="M81,95.18a9.89,9.89,0,0,1,.78-2.92,9.89,9.89,0,0,1,1.75,2.46,1.28,1.28,0,0,1-2.52.45Z"/><path class="cls-30" d="M85.28,95.74a9.89,9.89,0,0,1-.29-3,9.89,9.89,0,0,1,2.5,1.69,1.28,1.28,0,1,1-2.21,1.31Z"/><path class="cls-30" d="M88.73,93.18a7.83,7.83,0,0,1-1.28-2,7.83,7.83,0,0,1,2.37.3,1,1,0,0,1-1.09,1.71Z"/><path class="cls-28" d="M91,67c-1.86.19-2.08,2.37-3.89,2.55-2.25.22-5.22-2.84-5.34-6-.13-3.6,3.57-6.59,6.81-7.34C94.1,55,99,60.12,100.78,62c7.21,7.53,6,17.53,5.67,19.51-.43,2.86-1.09,7.27-4.21,8.4a6,6,0,0,1-6.62-2.35c-1.74-2.6-1-6.31.75-7.46.87-.57,1.49-.18,2-.77,1.54-1.64-1.32-6.5-1.68-7.1C95.71,70.48,93.49,66.78,91,67Z"/><path class="cls-30" d="M89.27,62.9c.11.89,2,3.23,2,3.23s1.29-2.75,1.18-3.64a1.62,1.62,0,0,0-3.22.4Z"/><path class="cls-30" d="M85.26,66.4C86,66.89,89,67,89,67s-1.24-2.77-2-3.27a1.62,1.62,0,0,0-1.8,2.71Z"/><path class="cls-30" d="M94.18,63.53c-.44.78-.26,3.81-.26,3.81s2.67-1.45,3.1-2.23a1.62,1.62,0,0,0-2.84-1.58Z"/><path class="cls-30" d="M98.12,66.18c-.78.44-2.2,3.12-2.2,3.12s3,.14,3.81-.3a1.62,1.62,0,0,0-1.61-2.82Z"/><path class="cls-30" d="M100.82,70.18c-.88.15-3.14,2.18-3.14,2.18s2.8,1.17,3.69,1a1.62,1.62,0,1,0-.55-3.2Z"/><path class="cls-30" d="M102.14,74.86a9.89,9.89,0,0,0-2.94.66,9.89,9.89,0,0,0,2.39,1.84,1.28,1.28,0,0,0,.55-2.5Z"/><path class="cls-30" d="M102.53,79.17a9.89,9.89,0,0,0-3-.41,9.89,9.89,0,0,0,1.59,2.56,1.28,1.28,0,0,0,1.4-2.15Z"/><path class="cls-30" d="M99.84,82.51a7.83,7.83,0,0,0-2-1.36,7.82,7.82,0,0,0,.21,2.38,1,1,0,1,0,1.75-1Z"/><g class="cls-31"><path class="cls-32" d="M94.68,87.68c-1.4-4.22-16.71-23-16.86-23.18-5.59-5.82-3-2.27-5.37.17l-.13.13-.14.13c-2.53,2.23-6-.46-.38,5.36.15.15,18.33,16.19,22.49,17.76l.39.41a.34.34,0,0,1,.39-.38Z"/></g><g class="cls-33"><path class="cls-4" d="M68.62,96.56c-5-3.5-7.78-9-7-14.33A13.55,13.55,0,0,1,65.21,75c.93-2.06,1.15-3.78.49-4.26s-2.62.62-3.62,1.55c-3.86,3.58-3.93,11.93-.43,17.79A17.46,17.46,0,0,0,68.62,96.56Z"/></g><g class="cls-34"><path class="cls-35" d="M89.2,98.06c-2,.22-12,1.06-19.26-6.44-1.79-1.86-6.7-6.95-5.21-12.43a10,10,0,0,1,1.86-3.57A10.08,10.08,0,0,0,63,80.89c-1.49,5.48,3.42,10.57,5.21,12.43,7.23,7.5,17.28,6.66,19.26,6.44,2.7-.3,6.77-.74,8.29-3.33C93.83,97.55,91.16,97.85,89.2,98.06Z"/><path class="cls-35" d="M76,80.74a2.71,2.71,0,0,0-.35.45A2.63,2.63,0,0,0,76,80.74Z"/><path class="cls-35" d="M87.35,89.95c.45-.39.36-.85.55-1.41a3.5,3.5,0,0,0-1.46,1.1,2.14,2.14,0,0,0-.34.71A1.87,1.87,0,0,0,87.35,89.95Z"/></g><path class="cls-36" d="M97.88,87.92c-2.09-3-1.59-6.94.19-8,.89-.55,1.59-.08,2.13-.66,1.53-1.66-2-7.18-2.4-7.86-1.26-2-4-6.16-6.65-6.09-2,.05-2.05,2.4-4,2.45S83,65.8,81.76,63.4c0,.08,0,.15,0,.23.11,3.13,3.09,6.18,5.34,6,1.8-.18,2-2.36,3.89-2.55,2.51-.26,4.72,3.44,5.76,5.16.36.6,3.22,5.46,1.68,7.1-.55.58-1.17.2-2,.77-1.74,1.15-2.49,4.86-.75,7.46a6.11,6.11,0,0,0,4.69,2.62A7.92,7.92,0,0,1,97.88,87.92Z"/><path class="cls-37" d="M80,93c4.23,12.62,10.45,13.09,13,24,3.59,15.36-6.66,23.3-2,31,5.33,8.8,24.74,8.37,38,4,22.91-7.55,42.06-31.67,43-59,.12-3.38.81-39.84-26-53-25.41-12.47-59.75,3.72-67,25C74.86,77.16,79.44,91.32,80,93Z"/><path class="cls-4" d="M81,93.05c4.14,12.33,10.22,12.8,12.71,23.46,3.51,15-6.52,22.77-2,30.3C97,155.4,116,155,128.93,150.72c22.4-7.38,41.13-31,42-57.66.11-3.31.8-38.94-25.42-51.8C120.71,29.07,87.13,44.89,80,65.69,76,77.57,80.46,91.41,81,93.05Z"/><path class="cls-17" d="M127.41,92.41a.45.45,0,0,0-.45.46l0,4.75-3.44-4.13a.45.45,0,1,0-.7.58l3.51,4.21-4.19-1.59a.45.45,0,1,0-.32.85l5.44,2.06h0l.12,0h0L132,105a.45.45,0,0,0,.58.1l.06,0a.45.45,0,0,0,.06-.64l-4.77-5.74,0-5.86A.45.45,0,0,0,127.41,92.41Z"/><path class="cls-17" d="M111.69,132.1a.45.45,0,0,0,0,.64l3.36,3.36-5.35-.52a.45.45,0,1,0-.09.9l5.46.53L111,138.84a.45.45,0,1,0,.37.83l5.32-2.36,0,0a.44.44,0,0,0,.1-.07l0,0,7,.68a.45.45,0,1,0,.09-.9l-7.43-.72-4.14-4.14A.45.45,0,0,0,111.69,132.1Z"/><path class="cls-17" d="M143.34,117.29a.45.45,0,0,0,.64,0l3.5-3.21-.76,5.32a.45.45,0,1,0,.9.13l.77-5.43L150,118.3a.45.45,0,0,0,.85-.33l-2.13-5.42,0,0a.44.44,0,0,0-.06-.11l0,0,1-7a.45.45,0,0,0-.31-.5l-.07,0a.45.45,0,0,0-.51.39l-1,7.39-4.32,4A.45.45,0,0,0,143.34,117.29Z"/><path class="cls-17" d="M158.65,77.63a.45.45,0,0,0-.16-.62l-4.09-2.41,5.31-.83a.45.45,0,0,0-.14-.9l-5.42.84,3.51-2.78a.45.45,0,1,0-.56-.71l-4.56,3.61,0,0a.44.44,0,0,0-.08.09v0l-6.95,1.08a.45.45,0,1,0,.14.9L153,74.82l5,3A.45.45,0,0,0,158.65,77.63Z"/><path class="cls-17" d="M103.81,112.65a.45.45,0,0,0,.64-.07l3-3.71.07,5.38a.45.45,0,1,0,.91,0l-.07-5.48,2.25,3.87a.45.45,0,1,0,.79-.46l-2.93-5,0,0a.44.44,0,0,0-.08-.1h0l-.09-7a.45.45,0,0,0-.39-.44h-.07a.45.45,0,0,0-.45.46l.09,7.46L103.74,112A.45.45,0,0,0,103.81,112.65Z"/><path class="cls-17" d="M136.91,42a.45.45,0,0,0-.34.55l1.09,4.62-4.28-3.26a.45.45,0,1,0-.55.72l4.36,3.32-4.44-.6a.45.45,0,0,0-.12.9l5.77.79h.19l5.6,4.26a.45.45,0,0,0,.59,0l0-.05a.45.45,0,0,0-.09-.64L138.8,48l-1.35-5.7A.45.45,0,0,0,136.91,42Z"/><path class="cls-17" d="M99.73,67a.45.45,0,0,0-.61.22l-2,4.29-1.31-5.22a.45.45,0,1,0-.88.22l1.33,5.32-3.08-3.24a.45.45,0,0,0-.66.63l4,4.22,0,0a.44.44,0,0,0,.1.07h0l1.71,6.82a.45.45,0,0,0,.48.34h.07a.45.45,0,0,0,.33-.55l-1.81-7.24,2.51-5.29A.45.45,0,0,0,99.73,67Z"/><circle class="cls-19" cx="121.5" cy="70.5" r="18.5"/><circle class="cls-38" cx="121.5" cy="70.5" r="14.5"/><path class="cls-4" d="M108,60c-.19.25-4.43,5.89-2,9,1.54,2,5.23,2.48,7,1,2.18-1.82,0-5.16,2-9,2.53-4.94,9.18-5.28,9-6C123.77,54.1,113.11,53.33,108,60Z"/><g class="cls-39"><path class="cls-40" d="M123,87c7.83-.51,15.51-7.24,16-15,.39-6.2-3.83-12.38-6-12-2.34.41-.09,8.09-5,14-5.9,7.1-16.77,5.2-17,8C110.83,84.14,117,87.39,123,87Z"/></g><path class="cls-41" d="M102,130c-1.58,4.79-.55,11,3,14,8.49,7.2,31.78-3.59,45-18a62.45,62.45,0,0,0,16-44.72c-.48-8.67-3.17-19.58-4.26-19.47-.69.07-.73,4.45-.8,6.18-.54,14.52-9.6,31.09-18.92,40C125.45,123.83,106.17,117.4,102,130Z"/><path class="cls-41" d="M108,131c-.48,2.33,3.34,5.72,7,7,13.55,4.76,37.72-14.83,46-38a61.88,61.88,0,0,0,2-33c.41,5.65.74,21-9,36-2,3.08-11.72,18-29,23C116.64,128.41,108.64,127.88,108,131Z"/><path class="cls-16" d="M189.73,72.41c-5.54,2.26-10.78,4.88-8.94,3.79.5-.3.38-.52-.14-.22a4.89,4.89,0,0,0-1,.79c-.06,0-.95.47-.91.44,4-3.72,4.11-3.48,4.11-3.48,1-1.68-.05-.15-.52.11S176.61,79,177,78.05s1.32-4.87,2.59-6.15c.63-.63-.33-1.33-2.73,6.06-.18.43-3.29.21-2.95.13,1.15-.28,2.09-3.57,2.23-3.9,1.19-2.78,3.66-1.1,7.87-6.87.22-.29.77-3.18.11-.94-1.17,3.92-8.94,7.9-5.62,4.14a31.55,31.55,0,0,0,.71-3.56,27.42,27.42,0,0,1-1.14,3.79,9.47,9.47,0,0,0-1,1.93c-2.21,1.21-.7,5.59-4.88,5.32-.89-.06-4.25,2.11-5.16,2.22-4.43.53,2-1.68,2.78-2.31.93-.63.62-.32,1.38-1.41a10.71,10.71,0,0,1,2.12-2.25c-1.84,1.26-.51.42,0-1,.25-.72,2-2.47.91-1.51s-2.92,4.94-4.49,6c-.56.45-4.15,2.38-1.39-.57a85.86,85.86,0,0,0,8.35-9.25c1-.65.9-.79-.1-.13-1.25.83-2.75,3.62-2.56,3s0-.56-.17,0c-.37,1.24-8.3,9.39-8.81,9.14l-1.62-.8s-3.55-.61-3.58-.6c-.45.15-1.69.61-1.35.27,3.23-3.31,9-5.92,9-5.92,2.6-3,.07,0-1.29.48-2.75,1.07-2.69,1.67-1.3-.54a5.41,5.41,0,0,0,.68-2.15s-1.08,3.46-3.07,4.42c-.88.42.93-3.31,1.16-3.71a6.77,6.77,0,0,1,1.88-1.89c.86-1.81-.11-.13-.5.17-1.24.95-1,.72-1.53,1.63-.78,1.34-1.53,4.06-2.09,4.33-.31.15.37-.88.55-1.18a5.08,5.08,0,0,0-.2-2.7c-.32-1-.28-2.81-.44-.85-.06.78,2,2.64-1.25,5.75-1.12,1.08-1.59,1.45-1.34,1.16.84-1,2.44-9.35,3.85-10.48.19-.15,1.71-1.49,1.52-1.65,0,0-1.18,1.16-1.63,1.52s.11-1.17.78-2.18,2.1-1.74.4-.88a34.27,34.27,0,0,0-2.19,4c-2.92,10.82-2.79,9.07-4.82,12-.91,1.32-1.15,2.13-1.34.61,0-.34-.36-.42-.2-.86s0-1.68.32-2.11c.54-.76,0,.32,1.1-1.66s.83-.82,1.85-2.48a8.65,8.65,0,0,1,.88-3.46s.7-1.65.7-1.68a9.59,9.59,0,0,0-.05-1.8l-1.63.87c-1.76.94-.6-1.14-.42-1.89.27-1.14,1.79-2.35.78-1.58-1.38,1.06-1,3.77-1.88,2.62-1.28-1.57-1-1.48.2-3.66.69-1,.55-1.08-.14-.09-.47.82-1.16,2.4-2.09,1.25s-.38-2.56-.78-1.56c-.09.22-.25.28-.37.14-.28-.34-.43-.26-.1.14s.09.68,0,1c-.05.13.45,3.43.43,3.67-.05.53-.53-1.28-.61-1.73a16.08,16.08,0,0,1-.16-2.23c-.13-1.31-.31.54,0,2.26.66,3.9.45.55-.57,3.9-.27.88-.15.53-.88-.54-1.47-2.14.61,1.26.57,1.56a27,27,0,0,0,.67,4.84c.9,2.63-2.37.09-4.17-4.59-.39-.55-1.53-2.16-.63-1,0,0,.32.45.53.78a16,16,0,0,1-1-5.51s-.59-1.61-.6-1.64a7.43,7.43,0,0,1-.37-3.47c-.09,0-.41,1.36-.49,1.14a21.67,21.67,0,0,0-.6-2.45c-1-3.13-2-3-1.29-2.29,1.56,1.48,1.64,5.95,1.76,6.3,3.65,10.47-.67,3.16-.95,1.94-.63-2.7-2.34-6.15-1.69-3.72,0,0,.42,0,1.35,3.24.1.44-2-4-2-4-.3.08,1,2.66,1.17,2.93,1.08,2.15,1.52,2.9.51,2.32a13.39,13.39,0,0,1-3.28-2.82C138.13,61,138,60,136.78,59c-1.4-1.22,1.3,1.76,2,2.44s3,2.12,2,1.67c-.43-.19-3.79-.16-4.69-1-.35-.33-1.09-2.11-.48-.21.46,1.42,5.22.95,5.77,1.82a30.26,30.26,0,0,0,2.88,2.19c.87.51,1,.55,1.81,2.21a9.51,9.51,0,0,0,1.22,1.68l2.28,5c.87.9,3.09,3.07,3.22,4.06s.1,1.43,0,1.09a6.22,6.22,0,0,0-3-3.5,1.6,1.6,0,0,1,.28.2c2.68,2.59,3.68,5.22,2.43,9.15.29-.65.52-.9.16.52-.08.32.19.74-.42,1.31-.36.33-.33-.08-.17-.65-.18.44-.37.89-.6,1.36-1.12,1.95-.71,1.2-1.73,3.14-.1.17-.45.72-.53.87s-.18-.08-.21-.37-.09-.52.06-.72a2.3,2.3,0,0,1,.24-.28c.18-.2.52-.67.67-.89a3.4,3.4,0,0,0,.94-1.64,47.09,47.09,0,0,0,1.29-7.25c-.09-.33.21-1.48-.14-1.54A1.87,1.87,0,0,0,152,80.8a9.61,9.61,0,0,1-.16,2c0-.48-.13-.54-.17.06s-.39,1.44-.41,1.3c-.26-2.1-1.05-2.19-1.55-4.3a12.92,12.92,0,0,1-.22-1.76c-1-.07,1.52,5.16,1.55,5.49a8.06,8.06,0,0,1-.15,2.31c.11.83.65,1.92-1.37,4.58l-.4.52c-.12.13.15-.33-.05-.36s-.15.58-.24.68-.35.5-.46.66,0,.31,0,.47a1.55,1.55,0,0,1,.31.05c.36.08.37.31.19.64-.08.15-.24.06-.37-.1q.11.43.26.85c.24,0,.92,1,1.13,1.51.05.12.56,1.55.56,1.55a5.81,5.81,0,0,0-.88-.06l0,.16a6.87,6.87,0,0,1,.94.09c.32.06,1.45,1.09,0,.62l-.78-.25.05.12s0,0,0,.07c1.6.48,1.89.76,1.58,1.77-.1.31-2.3,4.63-2.73,4.09-.24-.3-1.29-2.07-2-3.24a1.18,1.18,0,0,1-.24.12c1.24,2.17,1.55,3,1.33,3.17a2.39,2.39,0,0,0,.19.28c1.13,1.39-1.38,1.57-1.19,5,.06,1-.26.86-.91,1.29a8.34,8.34,0,0,0-.76.57c0,.07,0,.15,0,.22.65-.64,1.74-1.46,1.64-.41s-.41.44-1.63.81c0,.08,0,.17,0,.25.94-.34,1.57-.39,1.52,0a9.54,9.54,0,0,1-.81,3.73,6.68,6.68,0,0,1-.38,2.48c-.84,2.55-2.72,4.73-4.21,6.91-1.17,1.72-4.31,6.52-2.66,6.53.75-1,1.51-2,2.3-3,1-1.21,2.33-3.06,3.84-3.64,1.27-.49,2.55,0,3.9.27,2,.33,4.52,1.09,6.53.86,4.92-1,5.83-.86,10.73.32l1.27.29.82-.1s.55-.38.58-.4c.65-.47.69-.44,1.3-.2l1.2.5h.05c.22-.05.54-.1.88-.14a7.42,7.42,0,0,1,2.42.3,2.71,2.71,0,0,1,.47.1c.28.07,1.57.23,1.86.27a1.29,1.29,0,0,1,.67.29c.49.32.59.18.09-.15,0,0-.38-.26-.41-.26a26.15,26.15,0,0,1-4.57-.92s-.58.14-.62.14c-.73.18-.71.21-1.16,0l-1.28-.52h-.08c-.06,0,0-.07.09-.1a4.87,4.87,0,0,0,.22-.44c.26-.54.08-.55-.07-.24s-.55.31-.75.42c-.71.39-3.43.1-4.24,0-.42,0,.08-.16.63-.62a2.37,2.37,0,0,1,1.94-.77l1,.23a3.08,3.08,0,0,0,1.24.16l.38,0a8,8,0,0,1,1.31-.26c.59-.08.57-.25,0-.17a5.27,5.27,0,0,0-.88.16c-.88.2-2.87-.27-.32-.26l.87-.31a4.53,4.53,0,0,0,.33-.35s.28-.32.34-.33,1-.17,1.07-.19a8.37,8.37,0,0,1,.88-.18,13.65,13.65,0,0,1,2.17-.25,11.27,11.27,0,0,1,3.86.75,20.5,20.5,0,0,0-2.49-1s-2.7.22-2.73.22c-.41.07-1.42.3-.79-.16a12.38,12.38,0,0,1,2.21-1c1.08-.51,1-.66-.07-.16-.72.34-1.54.64-1.17.42a2,2,0,0,0,.21-.13c.09-.12.93-1.32,1.08-1.28s.18-.13.07-.15.12-.33.2-.31.11-.18.08-.18a2.39,2.39,0,0,1,.16-.24,1.64,1.64,0,0,0,.06-.23c0-.2,1.47-.82,1.45-.87s-.33,0-.7.17-.56-.18-.44-.74c.29-1.32.14-1.4-.17,0-.27,1.23-.83,1.29-1.22,1.45,0,0-.1.1-.12.13s-1.48-.17-1.67-.18l-.91.11a.68.68,0,0,0-.17.11c-.17.12-.63-.16-.54-.39s0-.13.17-.41,1.09-.27,1.41-.27c0,0,1.64-.74,1.67-.75l.35-.31c.45-.4.33-.52-.1-.13a5.34,5.34,0,0,1-2.54,1c-.66,0-.09-1.4.06-1.76-.16.36-.82,1.78-1.51,1.8l-4.19.62c-3.23,1.94-2.87,1.37-2.49,1.18,2-.84,1.58-.64,2-1a1.37,1.37,0,0,1,.72-.35c0-.13-.34-.08-.28-.24s.71-.12.91-.22c1.85-.93-.09-.15-.43-.1-.55.08.12-1.5,1-2.08.72-.45.87-.26,1.16,0a.08.08,0,0,0,.08,0,6.61,6.61,0,0,0,.92-.37l.39-.21a12.64,12.64,0,0,1,2.79-.3,10,10,0,0,0,1.78-.12c1.08,0,.81,0,1.34-.23,1.09-.5-.41,0-1.35.07a10,10,0,0,1-1.78.12c-1.08,0-2.31.18-2.1,0a36.07,36.07,0,0,0,3.49-1.6c1.06-.58,1-.73-.08-.14-1.33.71-3.64,1.7-3.65,1.7-.41.26-.8.46-1.16.65-.53.27-1.42.14-.33-.54l0,0c.09-.11,1.24-1.67,1.37-1.6s.2-.09.09-.14.05-.21.22-.43c.39-.5,1.56-.33,2.19-.23a29.3,29.3,0,0,0,3.93.08s-5.76-.33-5.65-.46-.06-.19-.16-.06a10.37,10.37,0,0,1-2.13,0s.41-.48.42-.51,3.2.23.93-.14a.62.62,0,0,1-.23-1.19c.23-.05,1.1-.35,1.32-.42,0,0,.73-.26.78-.25s1.31.21,1.37.2a13.7,13.7,0,0,1,4.45-.42c1.78.23,3.43.71,2.24.23a12.42,12.42,0,0,0-2.68-.43c-.62,0-1.83.09-1.54,0a8.27,8.27,0,0,0,1-.26c0-.11-.52-.07,0-.18,0,0,.92-.47.88-.55s.5-.48.67-.56a5.36,5.36,0,0,1,2.51-.78c.34-.06.47-.61,1.31-.62a1.46,1.46,0,0,0,.22,0,1.1,1.1,0,0,1,.56-.06c.5,0,.47-.14.17-.16s0-.29,1,0,1,.08.16-.15-.17-.17-.28-.42a2.35,2.35,0,0,1-1.12,0l-.76-.22c-.26-.08-.26,0,.06-.5s.49-1.08.93-1.47a12,12,0,0,1,1.41-1.09c1.44-1.07,1.34-1.21-.11-.14a14,14,0,0,0-1.76,1.4s-.19.4-.2.43a6.51,6.51,0,0,1-.71,1.19,1.54,1.54,0,0,1-.56-.1c-3.6-1.07-2.38.13,1.38-2.58,1.46-1.05,1.34-1.19-.1-.15a13.46,13.46,0,0,1-3.06,1.76,3.7,3.7,0,0,1-1.19.16,20.5,20.5,0,0,0-2.06,0c-1.28.06-.87,0-1-1a1.29,1.29,0,0,1,.57-1.21.22.22,0,0,1,.16,0l.31-.08c.37-.1.35-.09,1.4.12l.91.18a16.91,16.91,0,0,1,3.61-.19c.54.21.62,0,.06-.19a4.65,4.65,0,0,0-.46-.17,19.2,19.2,0,0,1-3.93.2c-.79-.16-.45-.18-.11-.21a9.66,9.66,0,0,0,1.76-.37c0-.12.49-.09.48-.21s-2.13.07-2.23.06-.45,0-.48,0-.3.11-.17,0,1.65-.62,1.82-.68,1.64-.75,1.66-.77.56-.7.47-.77a4.65,4.65,0,0,1-1.4,1,12.31,12.31,0,0,1-1.65.68,8.57,8.57,0,0,0-1.82.84c-.19.15-.16.1-.65.15-.2,0-.32-.06-.27-.17s.07-.21.05-.22.37-.3.45-.39l.46-.47a.13.13,0,0,0,0-.06s.42-.71.44-.74a.14.14,0,0,0,0-.06,3.21,3.21,0,0,0,.56-1.11c.1-.53.14-.14.42-.19.44-.08.69-.19,2.19.3a8.74,8.74,0,0,0,2.2.33l-3-.75c-.57-.14,2.33-2.17,2.33-2.17s-2.9,2-3,2c-2.41.47,1.28-5.45-.37-2.71,0,0-.47.77-.47.8-.07.35-.25,1.34-.34.89-.41-2.05-.41-1.65.67-2.77,1.26-1.31,4.45-2.5.87-1.13-.71.28-3,4-.92-.58.14-.31-.08-4.94-.14-1.39,0,1.84-.78,3.06-.79,2.72,0,0,0-.32,0-.34-.64-2.19.14.37-.41,1.6a10.07,10.07,0,0,1-1.42,2c-.12.15.22.12-1.09.06-2.71-.14-.95-1,.62-3,0,0,1.12-2,2-3.31,1.13-1.6.9-2,.56-1.23-1.61,3.61-.17-.85.75-2.12,0,0,.53-.72.54-.75.66-2.74-1.48,2.51-2.82,5.07-3.79,7.28-4.71,3-3-.54,2.51-6.65,2.41-6.86-.15-.06-.15.31-1.26,2.18-.9,3.46.48,1.66.54,1.47-1.09-.42-2.57-3-2.25-2.38-.13.11,1.88,2.18,2.5,1.68-.86,4.84-.08.08-1.29,1.23-1.39,1.27a8.5,8.5,0,0,1-.34-.81,2.78,2.78,0,0,1-.32-1.24,5.05,5.05,0,0,1,.7-2.1c-.38-.55.73-3.24.62-3.59-.55-1.87-.09-.32-.48,1.33-.48,2-.49,2.43-.4.39.15-3.27-3.67-1.71,4.61-5.65,1.06-.56,1-.77-.1-.19-.52.25-1.25.63-.31-.18,2.45-2.11-1.33.9-1.7,1.1a9.19,9.19,0,0,1-2.11.89c-1.14.84-1.18,1.33-2.14-.32-1.07-1.84-1.22-1.76-.14.1.36.62.85,1.36.61,1.57-1.8,1.5-.21.18-1.83-3.23a3.09,3.09,0,0,0-2.83-1.27c-.74.12-1.07.06-1.51-.8-.52-1-.66-1.19.32-1.91,1.86-1.35,5.28.33,10.07-2.13,5.09-2,2.52-2.25,6-1.1,3.86,1.3,7.86.38,10.49,1,.11,0,3.44.9,3.47.79a9.21,9.21,0,0,0-1.7-.52c-2.67-.68-2-.63-6-.66-12.1-.16-6.44-3.28-3.56-2.41,1.56.47-1.37-1.54-4.59.92a25.13,25.13,0,0,1,10.23-4.67c2.89-.51,5.08-2.83,2.38-1.24a12.78,12.78,0,0,1-4,1.2c-1,.31,4.44-2.26,5.51-2.16S190.12,72.26,189.73,72.41Zm-43.37-9.12a1.6,1.6,0,0,1-.1-.6C146.4,61.94,148.56,69.73,146.36,63.29Zm0,4.69a14.72,14.72,0,0,1,1,1.29A3.82,3.82,0,0,1,146.36,68Zm23,57.07a.61.61,0,0,1-.58.34C168.51,125.38,169.48,124.86,169.39,125Zm10.2-24.45a13.58,13.58,0,0,1-2.05.25C178.11,100.48,180.87,100.39,179.59,100.6ZM169.08,80.15a10.85,10.85,0,0,0,2-1.11c1-.45,4.31.45,3.09.87-.68.23-4.55.66-4.55.66C167.27,82,167.36,80.35,169.08,80.15Zm-2.9.45c.77.18-2.77,1.46-1.61.44S165.09,80.35,166.18,80.6Zm-3.89-5.22c.67-.32,0,.43-.41.62S161.57,75.72,162.28,75.38Zm-1.39,1.3a4.59,4.59,0,0,1-.83.51C158.25,78.1,163.36,74.12,160.89,76.68ZM155,77a17.28,17.28,0,0,1,.36-3.3c0-.32.35.8.15,2.52C155.37,77.27,155.1,78.07,155,77Zm-1.25-5c-.32-1,0-4.48.07-2.64,0,0,1.43,3.22,1.4,4.06C155,77.56,154.16,73.32,153.72,72ZM157,74.85a21.38,21.38,0,0,1-1.37,2.3c1.06-2.67-1.89-5.6,1.47-8.62.37-.33.24-.45.77,1.59S158.71,73.62,157,74.85Zm2.05-7.51c.36-.15.71-.38.69.44S158.62,72.26,158,70C157.46,67.85,157.17,68.36,159.07,67.34Zm-2,1.05c-.41.37-.47.58-.22-.07C157.3,67,157.33,68.12,157,68.39Zm-2.89-1.67c-.25-1.54-.68-2.36-.43-3,.14-.35,1.77,1.53,1.49,2C153.35,69,154.26,67.52,154.13,66.72Zm1-.53c.32-.55.39-.81,1.66.94.53.72-1.48,3.23-1.53,4.75,0,.3,0,.58-.25-.22C154,68.49,153.32,69.38,155.12,66.2Zm-2.57,6a2.5,2.5,0,0,1,.09.87C152.57,73.56,152.36,71.54,152.56,72.2Zm.61,4s-.31-.92-.32-1c-.32-1-.3-.63-.11-1.62.25-1.75-.57-2.18-.15-3.56.56-1.83,1.25-2.26,1.11-1.73a22.38,22.38,0,0,0-.41,2.86c-.08.56,3.86,10.57-.14,6.41C152.94,77.36,153.12,76.44,153.16,76.16Zm5.45,2c1-.69-1.7,1.63-2.24,3.6-.09.32-.71,2.19-.85,1C155.44,82.17,158.12,78.48,158.61,78.15Zm-5.29.43c1.81,1.65.18,4.81.08,4.25C153.26,82,152.7,78,153.32,78.58Zm.87,3.81c1-3.69-.31,1.51-.33,1.83C153.77,86,153.22,85,154.19,82.4Zm.62-.37c.16,1.29-1.64,4.7-.63,1.8C154.65,82.44,154.67,80.9,154.8,82Zm-1,4.05a7.65,7.65,0,0,0,.75-1.69c.68-2.22.65.12.6.44C155.05,85.3,153.68,86.43,153.77,86.08Zm.21.23c.6-.56,1.38-1.27-.07,1.19C153.66,87.92,153.55,86.71,154,86.3Zm4.47,2.14a2.36,2.36,0,0,1-.44-1.21,14,14,0,0,1,2-1.12s-1.9.74-1.84.51,2.66-2.18,2.8-1.89c.05.11,0,.36.05.7.11.61.28.84.09.81s-.27.17,0,.22c.71.11,0,2.63.42,4.46.16.65.41.65-1.51-.81-1.55-1.18-1.56-1.19-1.48-1.51S158.48,88.32,158.45,88.44Zm7.13,11.33a3.3,3.3,0,0,1-1.19,1.69c-1.09.95-1.12,1.24-.44-.77l-.1-4.65c-.1-.58,1-1.95,1.62-2.59,1.68-1.69,1-.5.58.76a2.62,2.62,0,0,0,.24,2.5C166.91,98.2,165.91,98.89,165.58,99.77ZM166.84,98c.21.5-.88,2-1.27,2.39S166.77,97.88,166.84,98Zm1.76,2.27c-.1,0,.29-.23.37-.28.26-.16.47.34.46.63s-.45,0-.65,0S168.64,100.32,168.6,100.32Zm.16,6.38c0-.11-.2-.12-.2,0s-.33,0-.74-.19c-.93-.38,2.79-.66,2.63-.5A8.91,8.91,0,0,1,168.76,106.7Zm1,.33c-.11.35-1.05,0-.38-.22S169.94,106.53,169.78,107Zm-5.93,8.43c.11-.18.39-.18.72-.19.73,0-.21.68-.6,1C162.7,117.44,162.47,117.67,163.85,115.45Zm1.24,1.5a2.43,2.43,0,0,0-.63.25c-.73.53-.54.48-1,.31C162.43,117.13,164.67,117,165.1,117Zm-2.39,4.25c.25.06.09.08-.35,0C161.58,121.19,161.41,120.88,162.71,121.21Zm1.46-1.52c.74.1-1.61,1.07-1.92,1S163.26,119.56,164.16,119.69Zm.84,2c.41.17-.75.49-1.11.61a9.28,9.28,0,0,1-3.18-.44C161.45,121.05,164.69,121.58,165,121.71Zm1.43-.34c0-.21,1.17.13,1.37.21C168.81,121.94,166.37,121.65,166.43,121.37Zm2.52.78c.29.14-1.4-.1-.94-.14A2.8,2.8,0,0,1,169,122.14Zm-1.68-.32c.3.08-.08.18-.34.14S166.23,121.53,167.27,121.82ZM166,123.09c-.82.4,0-.3.15-.75S168.5,121.88,166,123.09ZM155.9,114.2l-.5.13c-.84.22,1.79-2.38,2.58-4.27.72-1.73.64-1,3.66-.64,1.28.15,1.3.16.93.35a42.64,42.64,0,0,0-4.82,3.82c-.38,1-.39.88-1.28.71-.18,0-.18-.15,0-.26s.28-.23.26-.27S156,114.2,155.9,114.2Zm-4.46,2c-1,.64,10.22-11,5.51-4.65C153.66,116,155.93,113.3,151.44,116.18Zm3.61-1.41c-.62.41-.35-.09.12-.21C155.37,114.51,155.31,114.61,155.06,114.77ZM150.74,113c-.07.74-.19.68-.13.1S150.81,112.22,150.74,113Zm-.78-1.18c0,.28-.5.67-.26,0S150,111.45,150,111.78Zm-1.86-2.47c-.19.06-.35.06-.34,0a21,21,0,0,1,1.16-2.53C149.25,106.56,148.6,109.17,148.1,109.31Zm.25.24c-.94,3.34-.73,1.58-.63.3C147.75,109.5,148.41,109.33,148.35,109.55Zm2,3.25c.07-.52,0,.81,0,1.13,0,.1-1,1-1.06,1A19.17,19.17,0,0,1,150.4,112.81Zm-.46,1.84c.5-.49.44-.44.22.09C149.83,115.53,149.42,115.15,149.93,114.65Zm.3.73c.75-1.14.54-3,1-3.52,2.92-2.38,6.53-3.72,5.81-3.07S149.87,115.93,150.23,115.38Zm16.84-10.56c-.16,0,.07-.2.18-.3s.16-.59.38-.6S167.25,104.83,167.08,104.82Zm1.51-1c3.24-.35-.55,1.05-.88,1S167.67,103.92,168.59,103.82Zm-1.12-.23c-.09.21-1.14.22-.32-.24S167.63,103.29,167.47,103.59Zm-3,.93c-.69-.27,1.84-.56,2.18-.57C168.2,103.9,166.62,105.34,164.51,104.52Zm2.29.75c-.31.08-.3-.26.1-.24C167.11,105,167,105.23,166.8,105.28Zm-.26,7.54c.39.3-1.22.27-.49-.17C166.13,112.6,166.35,112.68,166.53,112.82Zm-.12-.9c.89-.05,0,.62-.47.24C165.8,112.05,166,111.95,166.42,111.92Zm-1.06.94-.81-.09c-1.31-.17.06-1.42,1.18-.57C166.27,112.61,165.59,112.56,165.35,112.87ZM159.55,121c-.43,0,.06-.13.53-.36S162.85,121.19,159.55,121Zm.93.72c-.26.29-.36.22-.53.16-.69-.24-2.62-.39-1.17-.7C159,121.18,160.77,121.44,160.48,121.76Zm-1-1.55-2.23,1.09c-.48.28-.78-.31-1.11-.34-1.26-.07.18-1.43,1.61-.92C158.76,120.37,162.16,119.89,159.52,120.21Zm-4.41.94a2.16,2.16,0,0,1,1.29.12C156.6,121.39,154.48,121.38,155.1,121.14Zm2-2.19c1.09-2.73,1.18-2.74,2.17-2.44,2.7.81,2.25.32,1.38,1.47a3.38,3.38,0,0,1-2.83,1.75C155.51,119.68,156.76,119.84,157.11,119Zm4-7.68c.95-.19,2.69-2.16.4.47C156.07,118,159.45,111.61,161.12,111.28Zm-3.36,2.81a4.54,4.54,0,0,1,1-1.15C160,111.87,157.1,115.78,157.76,114.09Zm4.59-4c.36-.18-.41.84-1.11,1C161,111.12,162.09,110.22,162.34,110.1Zm-.28,3.3c1.85-1.46,1.17.47-.69.93C161,114.41,160.42,114.68,162.06,113.39Zm-1.36.56c.57-.3,1.36-1,.95-.55C161,114.17,160.29,114.17,160.7,114Zm1.64-1c-.33.26-.25-.26,1-.69.41-.14.62-.11.47.06C163.32,112.92,163,112.48,162.34,113Zm-.23-.25a9,9,0,0,1-1.8,1.26C159,114.62,162.23,112.26,162.11,112.71Zm-2.73,1.88a7.44,7.44,0,0,0,.86-.24c2.12-.65-1.25.6-1.69,1.33C157.83,116.85,158.95,114.61,159.38,114.59Zm2.37,2.56a2.34,2.34,0,0,1,.52.11,6,6,0,0,1-.9.51C160.49,118.28,161,117.77,161.75,117.15Zm.84-.67c1.13-.91.05.73-.18.65S161.81,117.1,162.59,116.47Zm-1.3.38c-.46-.1-.31-.12-.08-.16s2.65-2.12,2.24-1.23C163.32,115.78,161.83,117,161.29,116.86Zm1.28-1.4a7.25,7.25,0,0,1-1.78,1.13c-.38.07-2.36-.37-2.19-.65.87-1.41,3.27-1.06,4.55-2.57.55-.65,2.36-.71,1.29.65C162.93,115.93,163.31,114.91,162.58,115.45Zm.85-3.61c.59-.49.57-.69-.27,0-.26.22-.84.76-.75.44s-.12-.24-.18,0-.84.46-1.07.54-1.6,1.46-.41.09c3.21-3.65,2.07-3.2,4-3.34.52,0,.74,0,.44.76C164.4,112.2,162.94,112.25,163.43,111.84Zm-3.28-4.29c-.15-.19.38-.26.62-.26s-.75.61-.55.43C160.24,107.71,160.2,107.63,160.14,107.56Zm.49.46c-.18-.11.9-.73,1.11-.73C165.65,107.28,160.93,108.2,160.63,108Zm1.46-1a7.38,7.38,0,0,1,1.35-.34s0,.13,0,.28c-.08.35-.11.29-.59.22C162.6,107.12,161.9,107.1,162.09,107Zm-1.38,1.28s2.25-.43,2.3-.44c.35-.1.66,2.11-3.2,1-.91-.26-.87-.14-.09-.51S160.5,108.13,160.71,108.26Zm2.53.24c.26-1.09.54-1.11.22-.17S163,109.53,163.24,108.5Zm.68-.52c.19-.6.67-.55.16.1S163.72,108.6,163.91,108Zm-.4-1.87c-1.57.35-1.35.64-2.23.85s-1.58.25-.47-.24a16.27,16.27,0,0,1,1.58-.94c.91-.43,1.5-1.55,1.47-.89C163.86,105,163.69,106.08,163.51,106.1Zm-2.53-.26a3.81,3.81,0,0,0,.62-.87c.35-.27.81-.3,0,.34S160.63,106.11,161,105.84Zm1.88-1.14c.33-.17.75-.2.1.15C162.46,105.11,162.68,104.79,162.86,104.7Zm1.3,0c4,.79-.18,1.7-.15.83C164,105.46,164.06,104.72,164.16,104.74Zm.56,2.24c.54.15-.61.39-.56.23A.49.49,0,0,1,164.72,107Zm0-.75c.24,0,.29.06.1.22C164.07,107.08,164.14,106.31,164.71,106.23Zm.91-.06c.15,0,.3-.08-.19.35C164.28,107.54,165.1,106.11,165.62,106.17Zm.15.45c.1-.11.28-.33.43-.33.33,0,3.17.82,1.2.7C167.08,107,165.12,107.3,165.77,106.61Zm.2-.73c-.22,0-.24,0,0-.15C166.85,104.9,166.48,105.91,166,105.89Zm-2.52-1.66c-.54.08-.5.25-.34-.59.13-.64,1.5-1.95,1.3-.95C164.3,103.22,164,104.14,163.45,104.23Zm-.95.15c-.73.1-1.22.42.22-.85C162.93,103.37,162.63,104.36,162.51,104.38Zm-5.23,3c-1.19.66-.25-2.73-.53-2.26,1.18-1.93-.21-.89,2.14-2.86,1.22-1.22,1.67-1.7,2.38-2,1-.37-.17-.26-.51,0-3.7,2.88-2.63,3.29-3.32,1.71-.25-.59-.33-.66.47-1.16,4-2.52-2.56,1.86.28-1.56a21.81,21.81,0,0,1,2.67-1.53,8.32,8.32,0,0,0-2.8,1.42c-1.16,1.4-.64,1.72-1.06.2-.16-.58-.32-.53-.16,0,.21.74.26,1.11-.38,1.7-.33.3-.55.54-.62.27-.19-.81-.81-3.38-.86-3.92-.08-.87.32-.78.2-1.8s0-.15.6-2.52c.35-1.37,1.93-3.48,2.45-2.57C161,95.49,168.15,101.4,157.28,107.42ZM155,108c-.64.5.2-.15.83-1.35s.69-1.19.56,0S156,107.19,155,108Zm.45.39c-1.65.44.15-.65.49-.71C156.55,107.54,155.83,108.26,155.49,108.35Zm1.6-6.8c0,.46.65,1,.12,2.19-.67,1.53-.4,1.44-1.13-1.42C156,102,157.07,101.29,157.09,101.55Zm0-.5c0,.28,0,.22-.58.52S157,100.89,157,101ZM155,96a4.12,4.12,0,0,1-.27,1.1c.35,3.77,1.53,4.5-.16,3.28-1.31-.94-.87-2.32,0-4.12C155,95.45,155,95.49,155,96Zm.61,5.73c.14.48-1.33.68-1.39-.24a6.31,6.31,0,0,0-.09-1C154.06,100.09,155.5,101.29,155.62,101.72Zm-.25.45c-1.3.95-1.42,2.14-1.07.36C154.34,102.34,155.47,102.1,155.37,102.17Zm.24.05c.16-.09.25.33.3.5.66,2.41.61,2.47-.2,3.8a6.26,6.26,0,0,1-2.63,2.65c-1.46.72-1.32.91-.72-.44C153.16,107,152.94,103.69,155.61,102.22ZM154.46,115c-.38.7-1.37,1-3.29,1.66C150.82,116.72,155,113.89,154.46,115Zm4.05-.33c.61,0-.84,1.27-1.56,1.34-.29,0-1.62,1.18-.65.33C158.23,114.64,157.62,114.68,158.51,114.63Zm-2.27,2.13c.35-.14-.72.83-.63.63C155.83,116.89,155.79,116.94,156.24,116.76Zm1.68-.05c-.76,1.23-1.06,3.17-2.31,3-1.07-.16-5.91,1.93-1.47-.88C154.51,118.58,159.25,114.56,157.92,116.71Zm-2.3,3.69c-.41.47-.87.87-1.45.63-.38-.16-2.43-.51-2.28-.53C154.94,120.12,156.49,119.39,155.62,120.4Zm-1.6.74c.41.17-.9.16-1.79.54a2.05,2.05,0,0,1-2.16-.26C149.5,121.12,152,120.28,154,121.14Zm1.68.34c1.43.13-.76,1.33-1.08,1.26a14.1,14.1,0,0,0-2.41-.63C151.16,122,153.45,121.28,155.69,121.48Zm2.08.17.92.16c1.68.31,1.45.33,1.15.68-1.15,1.35-1.69,1.06-3.55.63C155.38,122.91,157.45,121.63,157.77,121.65Zm2.57.64s2,.36,2.7.45c2.08.24,2.78.59.4,1.58-1.16.48-2.58-.67-2.91-.67C158.08,123.6,158.88,123.92,160.34,122.29Zm2.71.29a12.05,12.05,0,0,1-1.35-.2C160.77,122.17,163.2,122.53,163.06,122.57Zm.73-.05c1.3-.4,3.14-1,1.89.32C165.32,123.22,163.51,122.6,163.79,122.52Zm2.31-.88c.23,0,.15.36-.64,0C165,121.48,165.1,121.53,166.09,121.64Zm-2-.59c0-.33,2.25,0,2.19.29S164.12,121.36,164.08,121.05Zm-6-1.15c1.3,0,7-5.33,2.75-.22C160.36,120.24,157.31,119.89,158.09,119.91Zm4.8-2.32s.23,0,.43.06C163.94,117.88,159.12,121,162.89,117.59Zm1.93-3.75a2.06,2.06,0,0,1,2.38-.5c.23.18-1,1-1.48,1.45C165.4,115.06,163.37,115.66,164.82,113.84Zm2.26-1.48c.92-.18,1.09.09.52.84C167.4,113.47,166.18,112.53,167.08,112.36Zm.6-.33a1.17,1.17,0,0,1-.42.12C166.71,112.26,167.53,111.75,167.68,112Zm.11,1.31.21-.27c.12-.14.16.48.13.66S167.64,113.54,167.79,113.34Zm.56-.94a1,1,0,0,1,.88-.49s-.52,1.32-.66,1.85C168.22,114.68,168.21,112.75,168.35,112.4Zm-.41-.56c.13,0,.31,0,.27.07C168.12,112.18,167.48,111.86,167.94,111.83Zm-1-.67c.55.67-1.14.71-1.95.58s-.13-.29,0-.6c.75-1.75.32-1.38,2.44-1.5,1.12-.06,1.33-.34,1,1C168.37,111.22,165.79,109.73,167,111.16Zm-.44-1.85a5.69,5.69,0,0,1,1.41,0C168.69,109.53,163.35,109.61,166.54,109.31Zm1.51-.16c-1.94-.56-6.1,1.47-3.56-1.19.59-.62,3-.77,3.65-.72,0,0,.38-.17.42-.15a15.89,15.89,0,0,1,0,2.18Zm.73-.93c0-1.4.93-1,.56.17S168.79,109.51,168.78,108.22Zm-.6-3.06a21.23,21.23,0,0,1,3,.17C170.87,106.21,163.08,106.46,168.18,105.16Zm.68-.38c.61-.35,3-1.39,2.87-1.08l-.23.67C171.2,105.25,168.5,105,168.86,104.78Zm3.2-1.09c1.23.07.05,1.12-.3,1.23S171.9,103.67,172.07,103.68Zm.14-.3c.7-.26,1,.15-.06.09C172.11,103.47,172.11,103.43,172.21,103.39Zm.62.64c.09-.31,1.06-.26.21.24S172.7,104.46,172.83,104Zm1,0a4.19,4.19,0,0,1,1,.08c.32,0,1.38-1,1.07.31s-1,.2-2.69.38C172.19,104.87,173.57,104.27,173.85,104Zm.2-.47c-.25.25-1.11.12-1.07,0C173.15,103,174.28,103.29,174.05,103.51Zm-.57-.72c.75-1,1.23-.33,1.9-.55l-.53.47C174.7,102.86,173.28,103.06,173.49,102.79Zm-.71.19a.87.87,0,0,1-.3-.05s1.18-.7,1.2-.7S173.16,103,172.77,103Zm-.56-.13a11.54,11.54,0,0,1-4.19.71c-.14-.08-.62.47-.11-.24.79-1.09-.53-.17,2.57-1C173.39,101.51,172.73,102.55,172.22,102.85Zm-1.84-.69c-2.35.64-1.45.36-1.26.07.63-1,.44-.94,1-.76C170.92,101.74,171.9,101.75,170.38,102.16Zm-1.32-1c.77.25-.69,1.8-.66.88a4,4,0,0,1,.31-.79C168.7,101,168.85,101.06,169.06,101.13Zm-.82.23c0,1.46-.38,1.37-1.49,1.9C160.75,106.08,168.3,99.31,168.24,101.35Zm-.93-.45c-.8.61-1.31.33-2.3,1.59-.63.8-.47.47-.35-.13C164.84,101.46,167.9,100.45,167.31,100.91Zm-3.38,1.41c-.06,0-.1,0,.4-.48S164.82,101.7,163.92,102.31Zm-1.54,1c-.26.23,1.06-2,1-2.63-.58-3.56-.62-3.39-.28-4.35.27-.75-.14-1.62-1-4.19a20.23,20.23,0,0,1-.46-5.56c0-.06.21,0,.24,0C163.18,88.31,164.72,101.23,162.39,103.3Zm-.89-17.2c.29.38-.12.26-.26-.52v0A1.64,1.64,0,0,0,161.5,86.1Zm.51,6.34c3.48,10.57-4.18-2.44-3.8-2.88a1.19,1.19,0,0,0,.29-.48C158.66,89.44,161.51,90.93,162,92.44Zm-4.11-2.85a15,15,0,0,1,0-1.79c0-.16.53.91.46,1.2A1,1,0,0,1,157.9,89.59Zm-.22-1c.07,1.81-.31-2.05,0-1.24A10.26,10.26,0,0,0,157.68,88.56Zm-.33.35c.51.95.56.72-.38,1.82s-.28-1.09-.06-2C157.88,86,157.11,88.46,157.35,88.91Zm-2.05,2.37a19.22,19.22,0,0,1-.77,2.7C155.64,86.24,156.66,85.9,155.3,91.28Zm-1.58-2.87c0-.33,1.35-3.2,1.09-1.53C154.6,88.28,153.73,88.74,153.72,88.41Zm.54,0c.34-.22.32,0,.23.55,0,.32-1,5.67-.67,3.26C154,91.19,153.38,89,154.26,88.45Zm-1.87,1.24c-1,1.42-1.41,2.59-2.06,2.73-.12,0-.94.09-.88,0C153.77,84.54,152.82,89.1,152.39,89.69Zm-3.73,2.65c-.15,0-.25-.08-.23-.11C149,91.35,149,92.4,148.66,92.33Zm.54.76c0-.38.15-.46.53-.47s.62-.08.45.1a4.43,4.43,0,0,1-.94.59A1.17,1.17,0,0,1,149.2,93.1Zm.14.77c.22.37.34.76-.07.25S149.13,93.51,149.34,93.87Zm.81,1.66c0-.06-.25-.61-.28-.65a4.15,4.15,0,0,0-.36-1.1c-.22-.37.83-1.19,2.4-1.51.11,0,.87-.24.83-.34s-.77.14-.88.17c-.34.07-1.09.27-.75-.08,0,0,.3-.3.31-.32a6.34,6.34,0,0,1,1.23-2.08c.22-.29.14-.33.18.81,0,.55,0,1,0,1-.48-.65-1.07-.81-.46-.2.25.25.48.42.49.76,0,.56-.59,4.48-.54,4.16-.17,1.17-.92-1.92-.73-1.9-.1,0-.15.78-.16.89,0,.33,1.11,2.27.5,2.16-.1,0,0-.37-.1-.39s-.09.07-.11.16-.21.14-.44.1C150.39,97,150.43,96.17,150.15,95.52Zm1.2,2c-.15-.16-.13-.27,0-.23C151.79,97.39,151.71,97.94,151.35,97.55Zm1.49,3.89.44-1.45c.1-.33.61.05.67.45C154.4,103,152.37,103,152.84,101.44Zm-2.27.55a3.77,3.77,0,0,1-1.05,1.88,2.29,2.29,0,0,1-.56.21C148.94,104,151.31,99.57,150.57,102Zm-1.07,2.07c.6-.27.09,1.12-.07,1.64,0,.05-.08.32-.1.27C149.24,105.45,148.9,104.33,149.5,104.06Zm1.58,3.78c.26-.29.39-1.55,0-.51-.11.31.89-4.42,2.18-4.7,2.17-.48-.32,1-.56,4.56a9.53,9.53,0,0,1-2.16,4.09C150.25,111.58,150.35,108.65,151.08,107.84Zm-3.2-2.05c.26-.29.47-1,.72-.26s.41,1,.16,1.17-.7,1.93-.75,1.16c-.16-3-.1.44-.32.92C146.65,111,146.34,107.5,147.89,105.79Zm-.88,4c1.09-.45.4,2,0,3C146.23,114.67,147,109.83,147,109.8Zm2.59,8.31c1.11-1.27,1.27-1.22,1.62-1.33.81-.29,1.76-.66.56.13C150.12,118,148.33,119.58,149.6,118.12Zm2.55-1.25c8-5.23,4.34-.41,3.25,0a9.75,9.75,0,0,0-2.17,1.12c-.08.05,3-2.62,2.94-2.69s-3.46,2.85-3.72,2.89S145.12,121.47,152.16,116.87Zm-3.87,2.76a.63.63,0,0,1,.61-.12C149.34,119.58,147.63,120.39,148.29,119.63ZM147.6,121a4.12,4.12,0,0,1,2.81-1.42c8.38-4.3,3.7-1.21,2.7-.18C151.84,120.7,147.29,121.37,147.6,121Zm-.46.61c.36-.47,1-.38.53-.29S146.54,122.37,147.14,121.57ZM146,123.75c-.28-.09-.53-.11-.11-.77s.21-.52,1.21-1c2.25-1,2.81-.44,3.87.17.88.5,6.49-.07.82,1.82C149.84,124.64,149.48,124.59,146,123.75Zm9.76,1.68a2.79,2.79,0,0,1-1.81.06,19.76,19.76,0,0,0-3.09-.46c-.58-.18,2.49-.77,3.85-1.57.79-.47,1.54-.14,3.57.22A19.7,19.7,0,0,1,155.73,125.43Zm2.92-.25c-.78.09-2.66.45-1.21-.57,1.1-.78,1.48-1.27,3-.21C161.29,125,159.41,125.11,158.65,125.18Zm8.88,1.08c-1,.12-.39-.06.39-.51C169.23,125,168.45,126.15,167.53,126.26Zm.31-.66c-.67.39-1,.59-1.51.39s-8.13-1-2.31-.81C165.54,125.36,168,125.51,167.84,125.6Zm-2.71-1.31c-2.68,2.27-7.91-2-3,.26C163.56,125.18,168.18,121.7,165.13,124.29Zm2.94-.9c-1.62.11-2-.13-1.87-.2,3.68-1.8,2.7-.17,4.42-.47C171.26,122.61,171.08,123.4,168.07,123.39Zm4-1.12c-.2,0-.27,0-.17-.08.65-.49-.65.23-1.15.32-1.17.2-2.89-1.18-1.33-.43.08,0,3.57-.24,3.61-.26A2,2,0,0,1,172.05,122.27Zm4-3.79a.43.43,0,0,1-.57.36c-.18,0-.31-.08-.29-.11S176.11,118.31,176.07,118.48Zm-.71.54c.44.08.23.38-.22.28S174.91,118.94,175.36,119Zm-.44,1.12c-1,1.42-3.23,1.86-2,1.3a16,16,0,0,0,1.2-1.38C174.89,119.12,175.5,119.35,174.92,120.14Zm-1-1.12a8.7,8.7,0,0,0-1.47-.2C173.23,118.19,176.08,119.51,173.9,119Zm-1.15,0c2.13-.08,1.38.82.38,1.91s-5,1.15-3.39.61c.3-.1.53-.21.52-.26-.06-.19-1,.37-.13-.25,1.38-.94.35-.78,1.58-1.7C172.25,119,172.07,119.07,172.75,119Zm-1.27,0c.19-.51.66-.22.2.13C171.49,119.28,171.4,119.22,171.48,119Zm.25-1.15c-.18.41,0,.57-1.71.41C167.57,118,171.94,117.36,171.73,117.86Zm-2,.55c1,.09,1.64.39,1.54.68-.69,1.84-2.34,2.54-2.64,2.39-.09,0,.91-1.3.07-.43-.17.18-1.1-.06-2.08-.54C164.9,119.68,165.41,118,169.72,118.4Zm-3.37,2.2c3.28,1.58-.21.19.11.26-1.84-.4-5.53.57-2.34-.66C164.48,120.06,164.22,119.58,166.35,120.6Zm-5-.25c-.83-.27,1.67-2.86,5.18-2.45C167.38,118,161.63,120.45,161.32,120.35Zm5.49-2.72c-.15.36-1-.23-1.3-.16-2,.43-1.14-.07-.47-.24C165.53,117.09,166.93,117.34,166.81,117.63Zm.49-1.15c-.14.33-.32.89-.7.76-1-.36-1.18,0,.28-.95C167.63,115.83,167.43,116.17,167.3,116.48Zm.42-1c-.08.19-1.25.92-1,.57.59-.76-.34.46-1.67.75-2.09.45-1.54.17-.21-1,.94-.8,3.21-.92,1.58-.84-.67,0-.48-.1-.25-.29.53-.41,2.11-1.83,1.78-.08A2.19,2.19,0,0,1,167.72,115.48Zm.26-.11s.43-.74.49-.87.18-.07.32,0C169.1,114.78,167.94,115.57,168,115.37Zm1.26-2.92c.35-.65.48-.55,1.3-.17C172.08,113,166.93,116.72,169.24,112.45Zm.73-.62c-.2-.09-.59-.05-.19-.18C171.57,111.07,172.58,113.06,170,111.83Zm-.94-.73a2.88,2.88,0,0,1,1.15-.26C169.66,112.13,167.59,111.77,169,111.1Zm.8-.4c-.77.1-1.18.56-.89-.34s1.09-.53,1.55-.63C170.75,109.67,170.37,110.63,169.82,110.7Zm-.07-1.16c-1.59-.16,1-.11,1-.09C170.67,109.62,169.93,109.56,169.75,109.54Zm1.45-.21a2.67,2.67,0,0,1,1.5-.45A9.23,9.23,0,0,1,171.21,109.33Zm.16-.33c-.36.19-2.2.59-1.82-.58.3-.92.51-.73.79-.62C174.85,109.3,172.67,108.32,171.37,109Zm-1-1.41c-1.17-.47.38-1.64,1.44-2.27.63-.38,5.78-1.39,2.65,2.13C173.23,108.89,174,108.73,170.42,107.59Zm7.48.24c-.33.16-1.31.29-.59.08C177.66,107.81,178.83,107.39,177.9,107.83Zm2.88-1.63c-.38.08-.18,0,1-.41C182.65,105.52,182.64,105.81,180.78,106.2Zm2.7-1.45c.32.09.87.21.54.36C181.26,106.37,182.25,104.39,183.48,104.76Zm-1.1-.33c.91.27-3.66,2.77-1.94,1.47a21.21,21.21,0,0,0,1.64-1.51S182.2,104.37,182.38,104.43Zm-.48-.14-2.53,2.45a15.61,15.61,0,0,1-3.66,1.47c-2.65.94-1.71.08-.18-1.64.33-.37-.39-1.74,2.37-.91.63.19.9-.08-1.19-.45C175.4,105,175.52,102.38,181.9,104.29Zm-5.73-1.78c.16,1.21-.17.88-.53,1-1.8.72-1.73-.24-.55-.14.8.07.76-.13.1-.19s-.49-.21.16-.31.53-.28.1-.21.2-.25.33-.55S176.1,102,176.17,102.51Zm-.35-1c-.34.82-.65.48-1.26.47s.22-.38.66-.63.36-.4.36-.4C175.76,100.87,176,101.06,175.82,101.54Zm-1-.28c.16-.43.82-.56.45-.28C175.17,101,174.76,101.33,174.78,101.26Zm1.39-.07a.59.59,0,0,1,.28,0C176.92,101.23,175.91,102,176.17,101.19ZM177.44,95c.25-.26.42-.45.48,0,.34,2.7.3,1.74-1.06,1.52C176.11,96.34,176.11,96.57,177.44,95Zm-1.07,1.6c.07,0,1.25.36,1.36.41s0,2-.84,2.7c-.18.17-1.19,1.07-1.43,1A37,37,0,0,1,176.37,96.56Zm-1.26-.08c.33,0,1,0,.9.44a16.38,16.38,0,0,1-.56,2.82c-.49,1.38-.36,1.07-.62-1.93C174.78,97.32,173.55,96.4,175.11,96.48Zm-1.36-.3-.61.16C172.64,96.48,173.26,95.56,173.75,96.18ZM172,97.54a2.12,2.12,0,0,1,1.2-1c1.58-.46,2,4,1.15,3.74-4.41-1.57-4.39-.67-2.47-2.42A2.34,2.34,0,0,0,172,97.54Zm-1.57,1.38c-.17.15,0,.27-.4.41S173.89,95.75,170.44,98.91Zm2.45,1c1.76.65,2.27.61,1.49,1.46a1.44,1.44,0,0,1-1,.47c-.21,0,.51-1.11.46-1.13s-.81,1.16-.91,1.17a13.09,13.09,0,0,1-2.08-.6c-1.46-.52-1.3-.55-.84-1.32S172,99.64,172.89,100Zm-3.08,0c-.13.22-.28.28-.34.13C169.33,99.75,170.13,99.42,169.81,100Zm-1.36-1.91c.86,2,.62,1.45,0,1.93-.12.1-.85-1.42-1-1.36s.75,1.53.55,1.69c-.55.44-.56.19-1.41.4s-1.87,1.09-1.67.69A24.86,24.86,0,0,0,167,99c.15-1.24-.22-1.61,1.74-3C169,95.82,168.25,97.58,168.45,98.05Zm-.27-7c.22.37,1.44,4.32,0,5.12-.78.43-1.11,1.81-1.68.45-.89-2.15.12-2.1.34-4.48A10.38,10.38,0,0,1,168.18,91Zm-5.84-4.06c-.28-.5,4.48-1.44,4.28,4.65,0,.65-2.37,2.53-2.49,2.84C163.09,97.13,163.83,89.57,162.34,86.94Zm-.22-4.66a11.56,11.56,0,0,1-1.34,1c-.13-.29-.09.45-.26.13-.59-1.16-.11-.64-.73-1.29-.84-.89.17.44.51,1.26.08.16.14.25,0,.4-1.69,1.35-1.58,1-1.27-.18.12-.47-.16-1.51-.16-.47,0,1.83-1.34,3.12-1.45,2.48-.06-.37-.23-.39-.15.1.05.32.08.55-.11.3s-.28-.09-.12.12-1.68,3.1-1.22.07a5,5,0,0,1,2-3c-.1-.13-1.76,1.34-1.76,1.24a2.5,2.5,0,0,1,.28-1.75c.58-1.27.2-1.45,1.36-2.81,2.08-2.24,7.7.13,7.43.42-.12.11-1.62,1.46-1.77,1.51S162.19,82.23,162.12,82.28Zm10.65-1.9c-3.1,1.06-1.59,1.64-6.51,2.18C155,83.82,174.06,79.94,172.77,80.38Zm-3.19,2.15a12.49,12.49,0,0,1,4.3-2.18C177.39,79.16,169.58,82.54,169.58,82.54Zm6.54-3.44c-.57.46-.27.45-2.18,0-2.61-.62-2-.67.33-.52C176.9,78.74,176.83,78.53,176.13,79.1Z"/><path class="cls-16" d="M144.49,100.94c1.31,1.31,2.89,2.87,3.23,2.67a7.22,7.22,0,0,0-3.09-3.26A3.58,3.58,0,0,0,144.49,100.94Z"/><path class="cls-16" d="M161.62,68.21s0,.05,0,.15S161.58,68.25,161.62,68.21Z"/><path class="cls-16" d="M176.89,101s0,0,0,0S176.88,101,176.89,101Z"/><path class="cls-16" d="M178.91,97.27a.54.54,0,0,1-.27-.06C178.4,97.1,179.08,97.24,178.91,97.27Z"/><path class="cls-16" d="M169.68,89.73s0,0-.12.09C169.3,90,169.54,89.77,169.68,89.73Z"/><path class="cls-16" d="M166.9,80.48c-.2.11-.14.08-.37,0S167.12,80.36,166.9,80.48Z"/><path class="cls-16" d="M157.26,79.55a.76.76,0,0,1-.14.17S157.43,79.32,157.26,79.55Z"/><path class="cls-16" d="M157.89,86.83c.06-.08.1-.09.08,0S157.74,87,157.89,86.83Z"/><path class="cls-16" d="M157.84,87.16a0,0,0,0,1,0,0S157.86,87.21,157.84,87.16Z"/><path class="cls-16" d="M168.26,100.59c0,.07-.05.08-.12.05S168.26,100.5,168.26,100.59Z"/><path class="cls-16" d="M168.5,100.5c0,.19-.06.18-.06,0S168.49,100.32,168.5,100.5Z"/><path class="cls-16" d="M169.16,100.9c.35.12.39.21-.1,0S168.74,100.75,169.16,100.9Z"/><path class="cls-16" d="M168.63,111.86c.06,0,.06,0,0,0S168.49,111.85,168.63,111.86Z"/><path class="cls-16" d="M168.17,114.72c-.1.17,0-.63.14-.55S168.25,114.59,168.17,114.72Z"/><path class="cls-16" d="M168.87,109.62s0,.11,0,.23C168.77,110.18,168.8,109.62,168.87,109.62Z"/><path class="cls-16" d="M169,109.45s0,0,0,0S168.93,109.45,169,109.45Z"/><path class="cls-16" d="M154.9,79.91c0,.06-.09,0,0-.39S155,79.73,154.9,79.91Z"/><path class="cls-16" d="M163.56,107.48s-.08,0-.08,0S163.67,107.45,163.56,107.48Z"/><path class="cls-16" d="M163.8,106.46c0,.13-.11.1-.08,0S163.8,106.34,163.8,106.46Z"/><path class="cls-16" d="M163.62,107.16s0-.1,0-.23C163.75,106.34,163.93,107.13,163.62,107.16Z"/><path class="cls-16" d="M167.24,105.12s.1-.05.18,0S167.21,105.17,167.24,105.12Z"/><path class="cls-16" d="M164.57,107.36c.06,0,.09,0,.07,0S164.43,107.4,164.57,107.36Z"/><path class="cls-16" d="M165.06,107.12s0,0,0,0S165,107.14,165.06,107.12Z"/><path class="cls-16" d="M165.3,106.88c-.08.08-.1.08,0,0S165.33,106.84,165.3,106.88Z"/><path class="cls-16" d="M165.6,107.15c.42.06-.52.19-.41.07A.58.58,0,0,1,165.6,107.15Z"/><path class="cls-16" d="M166.38,105.07a.28.28,0,0,1-.23,0C165.93,105,166.44,105,166.38,105.07Z"/><path class="cls-16" d="M164,107.22s0,.08,0,.08S163.94,107.24,164,107.22Z"/><path class="cls-16" d="M164,106.79a.07.07,0,0,1,.05.09C164,107.21,163.89,106.75,164,106.79Z"/><path class="cls-16" d="M164,106.47c0-.18.13-.2.15,0S164,106.65,164,106.47Z"/><path class="cls-16" d="M163.38,106.45c-1.69.4.21-.23.15,0C163.52,106.51,163.44,106.44,163.38,106.45Z"/><path class="cls-16" d="M168,112.17s.07,0,.05.1S167.92,112.19,168,112.17Z"/><path class="cls-16" d="M168.13,111.55c.13-.07.22-.07.19,0S167.78,111.74,168.13,111.55Z"/><path class="cls-16" d="M170.8,103.62c.18,0,.25,0-.13.13C170.11,104,170.66,103.63,170.8,103.62Z"/><path class="cls-16" d="M171.39,103.28c.15,0-.08.11-.21.12S171.25,103.31,171.39,103.28Z"/><path class="cls-16" d="M172.1,103.13s0,.11-.28.2S172,103.15,172.1,103.13Z"/><path class="cls-16" d="M171.57,105.25c-.07.07-.23.18-.2.09S171.63,105.19,171.57,105.25Z"/><path class="cls-16" d="M172.37,103.14s0,0,0,0S172.31,103.14,172.37,103.14Z"/><path class="cls-16" d="M173.17,102.17c.1,0,0,.11-.14.21C172.6,102.62,172.94,102.14,173.17,102.17Z"/><path class="cls-16" d="M174.5,103.07a.42.42,0,0,1-.26,0C174,103.09,174.55,103,174.5,103.07Z"/><path class="cls-16" d="M170.11,101.28c-.64-.21-.69-.3.12,0S170.84,101.52,170.11,101.28Z"/><path class="cls-16" d="M168.42,101.19c0-.33.1-.3.11-.11S168.41,101.52,168.42,101.19Z"/><path class="cls-16" d="M162.73,105.28s0,0,.05-.06S162.74,105.3,162.73,105.28Z"/><path class="cls-16" d="M161.53,104.6l-.15.14C161.2,104.88,161.54,104.58,161.53,104.6Z"/><path class="cls-16" d="M153.82,65.85a9.3,9.3,0,0,1,.14,1A9.36,9.36,0,0,1,153.82,65.85Z"/><path class="cls-16" d="M153.24,84.95c0-.15.17-.52.19-.2S153.25,85,153.24,84.95Z"/><path class="cls-16" d="M174.34,108.95c-.06,0,0,0,.09,0C174.72,108.9,174.51,109,174.34,108.95Z"/><path class="cls-16" d="M174.72,108.72h0Z"/><path class="cls-16" d="M175.93,108.42c.8-.16.34-.07,0,0S175.14,108.58,175.93,108.42Z"/><path class="cls-16" d="M176.33,108.54s0,0,.07,0S176.44,108.54,176.33,108.54Z"/><path class="cls-16" d="M176,100.83c-.06,0,0-.09.06-.14S176.13,100.88,176,100.83Z"/><path class="cls-16" d="M176,101.87c-.06,0-.07-.05,0-.16C176.07,101.44,176.11,101.83,176,101.87Z"/><path class="cls-16" d="M178.08,97.42c-.06.13-.09.11-.07,0C178.05,97,178.22,97.11,178.08,97.42Z"/><path class="cls-16" d="M177.85,94.16a.37.37,0,0,1-.1.22C177.62,94.52,177.85,94,177.85,94.16Z"/><path class="cls-16" d="M175,100.72s0,0,0,0S175,100.71,175,100.72Z"/><path class="cls-16" d="M161.57,85.92a.78.78,0,0,1-.12-.24C161.41,85.53,161.69,86.09,161.57,85.92Z"/><path class="cls-16" d="M181.39,80.9h.15C181.6,80.93,181.25,80.92,181.39,80.9Z"/><path class="cls-16" d="M111.66,150.83a1,1,0,0,1-.08.23h.13c2.13.25,5.07,1.91,7.18,3.5l.07,0a13.7,13.7,0,0,1-1.61-1.23S116,152.1,116,152.09c-.51-.15-3.45-.95-3-1.09a3.14,3.14,0,0,1,1.93-.08c.92.2,3,2.24,3,2.24s-1.43-1.53-1.56-1.63c-.56-.44-1.29-.59,1.69,0C129,153.63,115.28,150.08,111.66,150.83Z"/><path class="cls-16" d="M145.33,135c4.17-2.55,7.26-3.7,4.2-2.52-1.42.55-.6-.3-.1-.89,1.53-1.79-.63-4.29,1.69-2.53,3.37,2.55-1.39-1.32-2.25-1.67-.36-.15,0-.29.31-.43s.86-1.4.17-.5a1.19,1.19,0,0,1-1.48.53s2.53-6.45,1.18-3.4c-1.75,4-.93,3.1-3,3.46-4.34,1-2.9,1.14-2.27-1,.08-.27-.52-1.58-.26-.45s-1,2.74-1.61,2.61c-.2,0,.53-1.49.41-1.54s-.63,1.49-1.14,1.37-.2-.7.59-2.1c.88-1.55.75-1.65-.14-.08s-.89,2.07-1.59,1.91a2.09,2.09,0,0,0-1.24,0c.9-1.24,1.6-1.06,2.09-1.95.31-.57.22-.56.52-.78s.19-.34,0-.2-.05-.08.07-1.11c.18-1.54.91-.61,1.37-2.48.33-1.33-.3.87-1,1.3-.4.25-.05-3.76-.44.19a4.37,4.37,0,0,1-.85.62c-1.29.81-.84-.4-1.15-.33-.12,0,.1.77.12.89s-.51.4-.59.45c-4.79,3-3.06,1.07-3.61,1.25-.15,0,.22.77.15.85s-1.75.7-1.89.83c-.83.74-.69.57-.67-1.32,0-.55.07-1.37.59-1.19.31.11.38-.12.15-.2s.43-.44.81-.88c.58-.66.59-1.22,2.47-1.15.93,0,2.81.58.94-.15-.54-.21-2.8.47,1.75-1.37,3-1.2,4.9-.45,3.67-.79a7.12,7.12,0,0,0-2.27,0c-3.82,1.54-2.62,1-4.62,1.07-.54.07.58-.26.8-.5,2.31-2.59,1.62-2.31,1.3-1.84-1.64,2.43-3,2.4-4.89,2.71-.24,0,1.59-3.05,1.71-3.27.22-.39,1.77-4.93,3.06-5.8.6-.41.86-1,.8-1.07a8.34,8.34,0,0,1-.91.95c-.7.47-2.34,4.07-2.48,3.1a7.21,7.21,0,0,1,.13-2.85c.47-1-.35,0-.35.38-.09,3.54.45,2.93-.35,4.32,0,0,0,.42,0,.45-.07,1.53-3.11,5.25-2.54,3.54.19-.58,0-.61-.15-.1s-1.05-2.1-.79-2.31c.08-.07.13-.16.1-.19-1.37-1.66,5.44-5.54,2.36-4-.9.45-3,3.86-3,1.4,0-.31-1-6.66-.85-7.56a28,28,0,0,0-.21,4.15,7.34,7.34,0,0,1,.37,4.31c-.68,1.9-.12,1.4-1.13,2.38s-.86-.27-.7-1.63c.15-1.18,0-1.21-.19,0-.08.64-.08,2.19-.22,1.9a5.79,5.79,0,0,1-.7-1.95,15.25,15.25,0,0,1,1-1.85,3.92,3.92,0,0,0-1.22,2.19s.37.81.38.85c.47,1,.36,2.37.24,2.11a4,4,0,0,0-.25-1c-.29-.67-.1-.91-.4-1.75-.51-1.39.2,1.28-.05.69a19.13,19.13,0,0,1-1.65-5c-.71,0,2.31,7.89,2.21,7.57.23.68-1.38,1.62-1.54,2-.55,1.28-1.57,2.88-1.15,4.16,1,2.89-1.26,1.84.9,4.51,1.57,1.95-1.34,4.9-1,4,.13-.32,0-.42-.2.06s-.65.57-1.31,1.44c-1.54,2-1.93.86-3.45.57-1.91-.36,1.18-.92,2-.84,2.33.25-.61-.36-.92-.25-.48.15-1.57.63-1.1-.25,1.09-2-.48.93-1.49,1.42-.34.16.83-1.82,1-2.14,2.15-3.39-.16-.33-1.21,1.9-.47,1-3.19,1.42-3.72,2.12-1,1.38-.53,2-1.1,2.86-1.62,2.33-1.32,2.12-2.82,2.33-8.09,1.1-5,2.11-6.34-.61a10.17,10.17,0,0,1,2.46-7c2.43-2.57,2.24-1.48,7.69-3,.11,0,.75.24.78.14s-.07-.11-.2-.16c-.57-.2,2.12-.47-3.38,0a22.27,22.27,0,0,1-3.35,1.32c-.51.16-2.79,3.08-1.78,1,.59-1.2.8-1.35.67-2.53-.09-.74,1.83-2.23,2.7-2.36.4-.06,2.45.17.45-.23-1.79-.34-3.19,3-2.36.19.39-1.28.5-.77,1.31-2.29,2.21-4.17-1.11,1.08-1.72,3.09-.34.83-.43,1.2-.46.92s-1.89-3.12.61-5.22c0,0,.78-1.62.79-1.65,2-4.27-.67,1.33-1.58,2.1-.38.32-.6,2.34-1,.13-.12-.76,1-6.11-.48.69-.07.36.25,2.49-.08,1.7a42.07,42.07,0,0,0-1.63-4c-.08,0,1.43,4,1.48,4.11,1.2,2.93,1.41,3.91-.85,9.27-1.2,2.86-.33,3.53-.31,3.86.16,2.38,2.14,1.15-2.3,3.07-.51.22-1,.46-1.51.71-.06.58.44.83,1.42.48.7-.26,1.38-.57,2.07-.85a38,38,0,0,1,5.67-1.84,13.69,13.69,0,0,1,6.58.18,7.48,7.48,0,0,0,3.1-1.35c2.48-2.28,4.41-1,7.88.22.92.33,1.63.51,2.18.74l-.34-.33c-.45-.15-1.06-.37-1.9-.68-5.57-2-4.83-1.5-3.65-2,2.12-.89,1.47-1.55,2.49-1.84,1.68-.48,2.56-.72,3-.58l.16-.07.32-.1a.46.46,0,0,1-.06-.12c-.07-.27.53-.51.67,0l.2,0c0-.61,0-.48.93-.61a25.85,25.85,0,0,1,2.85-1.43c3-.63,1.87.12,2.53.45,0,0,.81.41.85.41,2-.1.05-.17-.36-.38-1-.5-1.56-2.15,1.09-.61.56.32,1.39.22,1.53.76a1.07,1.07,0,0,1,.21,0h0c0-.15.1-.24.21-.17a.3.3,0,0,1,.12.19h.17c.23-.16.46-.3.69-.44a4.91,4.91,0,0,1,.28-.54c.22-.36.93-.27.83-.15l-.12.18a6.13,6.13,0,0,1,.75-.28l.35-.18C142.9,137.21,144.44,135.67,145.33,135Zm-15-23.09c0-1.68,0-.59.13,1.16C130.43,113.29,130.27,113.14,130.29,112Zm.41,2.94c-.06-.83.06-.53.15.31S130.76,115.75,130.71,114.9Zm-19.55,20.47c.79-.37,2-.47.76-.07C111,135.62,110.24,135.81,111.16,135.38Zm-4.59-.1s-.37-1.29-.38-1.33c-1.08-3.71-.06-5.9.08-1.92.05,1.48,1.22,1.47.39,3.36C106.37,136,106.48,135.64,106.56,135.28Zm-.22,1.23c.89-2,.78-1.94.76-1.09S105.08,140,106.35,136.5Zm-2.19,6.67c.16-1.49.58-2.52.23-.47C104.13,144.16,103.9,145.48,104.16,143.17Zm43.6-14.71a4.05,4.05,0,0,1,.92-.57C149.77,127.62,146.3,129.59,147.76,128.47Zm.89-.73c-.74.2-3.3,2.53-2,1.18.64-.68.45-.94,1.19-1.28S149,127.64,148.65,127.74Zm-.9-.55c.34,0,.3.14,0,.27C147.33,127.66,147.58,127.17,147.75,127.19Zm-1.93,2.21c-1,.71-.71.07-2.1.27-.41.06-.35,0-.19-.06.64-.3.6,0,.93,0,1.92-.09.2-.11-.17-.24S149.32,126.84,145.82,129.41Zm-6.25,7.33a1.19,1.19,0,0,1-.83-.44c-.17-.12.22-.17.69-.26,1-.19.88-.1.66.72s-.76.15-.42.15S140,136.73,139.57,136.74Zm1.14-3.21a3.11,3.11,0,0,1-.24.75,2.64,2.64,0,0,1-.51-1.06c.25-.31,2.17-1.52,2-1.06-.42,1.11.48.88-.66,1.6-.67.42-.6,0-.15-.5C141.85,132.43,140.8,133.17,140.71,133.53Zm-.35,1.49c-.11.49.12.66-1,.87-1.29.24-1.37.19-.06-.64S140.45,134.56,140.35,135Zm.3.25c.07.15.11.3.08.32C140.33,136.05,140.39,134.71,140.65,135.27Zm-2.07,1.27c-.58-.27-1.11-.14-.62-.23S139.11,136.79,138.58,136.54Zm2-.53c.23-.26.22-.4.56.33C142.21,138.61,139.09,137.73,140.59,136Zm1.5-1.83s-.5,2.7-.5,2.68-.59-1.27-.58-1.28S142.08,134.13,142.09,134.18Zm.21.08c.11-.36-.42-.67.95-1,1-.24,1.09-.75-.64,2.65C142.07,137,141.54,136.88,142.29,134.26Zm-1.55.79c-.3-.64-.08-.67.55-1.07l.66-.41C142.28,133.49,141.08,135.77,140.75,135.05Zm1.53-1.76s.1-1.39-.13-.54c-.08.28-.62-.23.58-1.18,0,0-.08.15-.09.42S142.5,133.24,142.28,133.29Zm-1.63-1.67c.57-1.7,4.17-1.47,3.25-1C140,132.61,140,133.43,140.65,131.62Zm-7.41,3a3.24,3.24,0,0,0-.31.17c-2.27,1.28,3.22-2.93,3.24-3a8.35,8.35,0,0,1,.5-1c.24-.37.89,1.49.13,2C134.48,134.44,134.4,134.5,133.24,134.64Zm-.67,1.36c-.9.68-2.16,1.17-1.36.22S135.12,134.07,132.56,136Zm4.62-5.61a4.56,4.56,0,0,1,.26,1C137.89,134.07,136.54,129.4,137.19,130.39ZM135,135c-1-.18-.76-.26.23-.38s1.72-.48,1.31,0S135.87,135.15,135,135Zm-1.31.66c-1,.3-.13-.74,1.07-.52C135.73,135.31,135.8,135.2,133.64,135.65Zm1.7-1.26c-.72.09,2-2,2.12-1.34C137.67,133.95,136.22,134.29,135.34,134.39Zm2.48-1.64a.82.82,0,0,1,.37-.65C140.13,130.75,137.88,133.36,137.82,132.75Zm-1.55,2.31c.38-.19,1.39-2.09,1.59-.22C137.91,135.27,135.61,135.39,136.27,135.07Zm3.84-2.5c-.42.85-.2.11-.5.25,0,0,0,.25-.14.33s-1.5.53-1.28.36a11,11,0,0,0,1.8-1C140.57,131.4,140.32,132.14,140.11,132.56ZM138,134.31c-.08-.73,1.34-.78,1.66-1a11,11,0,0,1-1.6,1.46S138,134.56,138,134.31Zm4.87-5.14c-.89-.36-.58-.49-.34-.29S144.41,129.8,142.85,129.16Zm1.84.75a6.46,6.46,0,0,1-1,.08C141.36,130,145.58,129.65,144.69,129.91Zm-3.25.09s.32-.47.33-.48C142.17,128.93,144.88,129.51,141.44,130Zm.33.35c-.15,0-.79.29-.71.18C141.52,129.87,143.31,130,141.77,130.35Zm2.42-.11c-.39-.11.11,0,.35-.11C145.4,129.87,144.63,130.37,144.19,130.24Zm3-3.1c1.07.12-3.28,2.72-4.61,1.59C141.69,127.94,146.83,127.09,147.22,127.13ZM138.71,133c-.55.21-.44.17-.63.32-.79.62,1.27-1.68,1.95-2S140.15,132.48,138.71,133Zm3.25-4.52c.27-.12.31.37-.14.24C141.68,128.71,141.82,128.57,142,128.51Zm0,.44s-1.58,2.17-1.07,1.36C141.57,129.17,141.29,128.7,141.91,129Zm-1.07.81c-.4.87-.72-1.43-.06-1.17C141.58,128.92,141.38,128.58,140.84,129.77Zm0-1.32c-.13-.05-.22-.14-.19-.2C140.84,127.79,142.26,129,140.83,128.44Zm-1.73-.5c.5-.12,2.63.44.38.17C139.09,128.06,138.92,128,139.11,127.94Zm.26.32c1.47.18.85.18.88.51.14,1.79.54,2.33-1.29,2.76-.8.19-1.17.89-1.35-.19-.24-1.45-.59-1.08.25-2.24A1.93,1.93,0,0,1,139.37,128.26Zm-8.08,7c-.92.19.11-2.33.61-3.1,1.27-1.93,4.5-2.82,4.61-2.51C137.31,132,131.6,135.18,131.29,135.25Zm-.35.69c-.74.42-.56-.32.22-.48S131.63,135.54,130.94,135.93Zm-1.56,2.32s-.27-.44-.21-.57c.22-.45,1-.46.44.17C129.56,137.91,129.41,138.19,129.38,138.25Zm-.73.1c0,1-.47-.23-.35-.3C129.42,137.32,128.65,138,128.65,138.35Zm.48.33c-.22.39-.29,1.35-.3.16S129.4,138.21,129.13,138.68Zm-1.23-12.39c-.3.64,0-3.23.21-3.49a10.47,10.47,0,0,1,.71,2.35C128.76,125.57,128.15,125.76,127.9,126.29Zm2.3-3.36c-.78,1.8-.6,2-1.31.68C127.91,121.81,132.09,118.57,130.2,122.93Zm-1.19,2s-.29-.9-.3-.93c-.38-1.16.83.8.44,1.13C129,125.26,129,125.11,129,124.9Zm1.76-4a2.34,2.34,0,0,1,.1-.39c.16-.53.28,3.23-.79,4C128.83,125.51,131.14,122.31,130.77,120.94Zm-2.83,7.36c-.12.28-.17-1.11.09-1.65S129.35,124.93,127.95,128.3Zm.76-1c-.47,1.93-.53,1.84-.58,1.21C128.09,128.21,129.79,122.89,128.71,127.33Zm.76-2.07c.14-.1.44.29.19,1-.38,1.09,0,1.72-.5,2.2s-.3.22-.62.81S129.36,125.33,129.47,125.25Zm.31-.23c.45-.34.32,0,.23.21S129.65,125.12,129.78,125Zm2.22.15c-.2.3-.32-.95.17-.78C132.27,124.43,132.06,125.08,132,125.17Zm.77-.86c-.07.06-.31,0-.25-.23C132.69,123.42,132.95,124.15,132.76,124.31ZM131,126.57c-.6,1.16-.37.2-.54-.1C129.38,124.49,132.75,123.18,131,126.57Zm-.84-.29a1.07,1.07,0,0,1-.29,1.53C129.57,128.07,129.84,125.67,130.17,126.27Zm-2,6.86c-.15-2.48.07-2.88.42-3.54C130.8,125.36,128.2,134.22,128.13,133.14Zm2.5-.95c-.18.18-.17-.86,0-1.2.49-.87,2.67-1.61,1.07-.35A3.53,3.53,0,0,1,130.63,132.19ZM129.48,134c0-.13-.11-.32,0-.45C130.54,132.25,129.45,134.45,129.48,134Zm.12-1c.36-.52.65-2.15.49-.79C130,133,128.92,133.94,129.6,133Zm-.92.66c-.54.49-.46.36-.33.15a18.14,18.14,0,0,1,1.05-2.07c1.09-1.43,1.08-1.14.45-.07C129.5,132.2,130,132.44,128.68,133.62Zm2.08-3.75c0-.33.87-5.18.43-.87C131.09,129.61,130.79,130.23,130.76,129.87Zm-.15-1.81c-.05-.62.83-1.84.49-1.14S130.67,128.9,130.6,128.05Zm-.37,2.41a11,11,0,0,0-1.29,1.59,11.74,11.74,0,0,0,.85-3.23c0-.43,0-.71.22-.94C130.72,127.26,130.54,130.22,130.23,130.47Zm-2.41,2.79a3.54,3.54,0,0,1-.27,1.39S127.73,131.73,127.82,133.26Zm-.38.79c-.13,1.06-.59,1.48-.19.18C127.41,133.69,127.5,133.61,127.44,134ZM126,136.41c.26-.17.67-.71.73-.37S125.72,136.58,126,136.41Zm1.22-.48c0,.13,0,.28-.16.31C126.49,136.34,127.39,134.42,127.2,135.94Zm.8-1.35a12,12,0,0,1,1.24-1.08C129.29,133.83,126.46,138.4,128,134.58Zm1.13-.63c.42-.51,0,1.79-.64,2,0,0,0-.18-.11-.18s-.1.24-.24.28S129,134.09,129.13,134Zm3.11-2.65a8.55,8.55,0,0,0-1.39,2.82,5.34,5.34,0,0,1-.51,1.32C129.47,135.62,132.34,130.74,132.24,131.31Zm.61-.83c.4-.46.23-.53-.07-.17-.5.59,0-.81,1.16-1,.62-.08.43-.12-.1.51C133.57,130.16,131.92,131.56,132.85,130.48Zm-4.18,5.64c.42-.12.62.6.25.53C128.24,136.5,128.35,136.2,128.67,136.11Zm.88-1.78c.7-1.43.35.41,0,.71S129.41,134.6,129.54,134.33Zm.1,1c.36-.29.51-.67.38-.15C129.86,135.83,129.06,135.76,129.64,135.29Zm0,.51c.31-.09.2.26.07.19S129.19,135.94,129.65,135.81Zm.53-2.42a2.57,2.57,0,0,1-.09,1Zm-3.83,5.1c-.08.15-.5.24-.66.26a7.85,7.85,0,0,1,.69-.93C127.19,136.8,127,137.35,126.35,138.48Zm-1.53,1.86c-.38-.15-.37-.78,1-1.13.15,0-.15.49-.22.63C125.21,140.65,125.38,140.56,124.83,140.34Zm.11.55c-.46.5-1.75.65-.75-.5C124.33,140.22,125.2,140.59,124.93,140.88Zm2.38-3.26c.2-.2.41-.44.51-.16C128,137.92,126.19,138.81,127.32,137.62Zm.66-.28c-.06-.15-.08-.29-.05-.32C129,136,128.32,138.24,128,137.34Zm.62-.56c.19.07.51.06.3.22S128.48,136.74,128.6,136.78Zm.86-.63c.23,0,.2.13,0,.3S129.34,136.15,129.46,136.15Zm6.81-7.18c0,.09-1,.08-.49-.19S136.21,128.74,136.28,129Zm.62-.68c.17,0,1-.17.88-.09s-.64.57-.92.63S136.27,128.39,136.89,128.3Zm-1.14.89c1.79,0-1.93.94-1.7.66A1.87,1.87,0,0,1,135.75,129.19Zm1.2.1a.52.52,0,0,0,.15-.06c2.53-2.76,0,.79-.07.61S136.8,129.34,136.95,129.29Zm4-3.84c.4-.29-1.23,1.56-1.1,1.16C140.06,125.86,140.18,126,140.93,125.45Zm.37-1.61c0,.28-.14,1.24-.37,1.41-1,.72-.79.65-1-.33S141.4,122.9,141.29,123.84ZM138.43,125c.44-.28,1.13-.84,1.32,0,.44,2-2.25,3.07-2.61,3.12-.72.11-.77.44-1.28-1.11-.07-.21,0-.42.08-.48s.19-.14.17-.18C136,126.11,135.11,126.65,138.43,125Zm-3.52,2.48c.8-.89.84-.43,1.18.83C136.17,128.58,132.15,130.51,134.91,127.43Zm-3.25,4.1c.4-.16-1,1.58-1.16,2C130.28,134.11,130.73,131.91,131.66,131.53Zm.12-.62c.09-.22.41-.47.37-.23S131.7,131.11,131.78,130.91Zm1.12-1.19c-.24.19-.2,0-.16-.22l.23,0C133.27,129.43,133.16,129.51,132.89,129.72Zm.41-1.87c.52-.46,2.07-1.18,1.36-.39a6,6,0,0,0-.92,1.17C132.73,130.12,132.49,128.57,133.3,127.86Zm-.84.75c.14-.12.09-.06,0,.41C132.29,129.9,129.5,131.25,132.46,128.61Zm0-.18c-.52.47-.79.55-.43,0,1-1.72-.62.64-.62.64C131.93,123.5,132.72,128.15,132.41,128.43Zm.06-1.56a1.44,1.44,0,0,1,0-1.15C132.84,125.31,133,128.38,132.47,126.87Zm2.91-5.08c.33,0,3.54-.57,1.45.28s-1.28.21-2.61,1.5C131.19,126.48,135.06,121.81,135.39,121.79Zm-2.6,3c0,.41-1.23.85-.22-.05C132.75,124.55,132.79,124.55,132.79,124.76Zm2-2.89c.26,0-1.21,1.68-1.53,2s-.43-.15,0-.46c.14-.11,1-.85.83-1s-.79.71-.89.78c-.5.38-.39-.65-.13-1A5.58,5.58,0,0,1,134.83,121.87Zm-2.13.33c.24,0,.15,0,.05.31S132.34,122.26,132.7,122.2Zm-.3.27c.42,1.28-.53,1.95-.47,1.43A7.09,7.09,0,0,1,132.4,122.47Zm-.27-.18a10.17,10.17,0,0,1-.38,1.61c0,.35-1.18.59-1,0C131.19,122.83,131.81,122.35,132.13,122.29Zm0-.23a3,3,0,0,0-.94.58,16.88,16.88,0,0,1,.11-3.14C131.48,119.34,132.29,122,132.11,122.06Zm-.73-3.81c0-.08-.17,0-.14.2.14,1-.32-.09.11-.51C131.61,117.69,131.4,118.38,131.38,118.25Zm-.4.52c0,1.85-.85.86-.49.54.06-.05.08-.13.05-.17s-.2.12-.22-.06S131,118.2,131,118.77Zm-2.73,3.44c-.06-.32,1.86-3.13,2.07-2.37C130.42,120.24,128.3,122.47,128.25,122.21Zm2.35-4.83c.49-1.37.49.55,0,1S130.27,118.31,130.6,117.38Zm-2,3.29c0-.08,1.53-1.64,1.6-1.35a7.27,7.27,0,0,0-1.52,1.74C127.55,122.89,128.58,121,128.57,120.66Zm-.79,2.1c0,.27-1,1-1.38,1.37C125.66,124.87,127.68,122.12,127.78,122.76Zm-1.55,6.17c-.82.63-.51,0-.78-.7-1-2.69,2.33-5.4,2.38-5.07a10.49,10.49,0,0,0-.29,2.8A3.5,3.5,0,0,1,126.23,128.93Zm.13.25c1.67-1.27,1-2.35,1.53-.15.71,2.83-2.89,9.27-1.09,5.57C127.94,132.25,123.78,131.15,126.36,129.18Zm-3.23,9.89c.35-.27,2.08-2.33,3-2.44.74-.09.85.12.72.22-.86.71-.9,1.86-2.33,2C123.27,139,122,140,123.13,139.07Zm.55.81c-.57-.23,0-.46.61-.52S124.28,140.12,123.68,139.88Zm-4.57-1.13c.68-.56,3.32.23,1.62,1.1-1.3.66-3.8,1.25-2.16-.27C120.74,137.73,116.7,140.74,119.11,138.75Zm-2.59,3.65a2.1,2.1,0,0,1,.35-.78C118.12,139.65,116.32,143.28,116.52,142.4Zm2-3.69c.37-.18.55-.15.53-.11-.21.39-.53.16-.86,1C117.38,141.38,117.87,139,118.49,138.72Zm-6,6.62c-.75.21,1.38-2,1.44-2.39.5-3,.61-2.41,4-4a6.55,6.55,0,0,1-1.34,2.42c-.26.29.41.6-1.66,1.9,0,0-1.14.71-1.15.73C113.57,144.32,112.83,145.24,112.49,145.34Zm1.44-.4c-2.53.69,2.1-2,2.34-2.36.05-.08,0,.25-.31,1.14C115.66,144.46,115.12,144.61,113.93,144.94ZM117,142.1c1-1.59.39-1.27,2.62-1.51.74-.08,4.51-3-1.49,1.84C115.87,144.27,115.2,145.11,117,142.1Zm-1.3,3.63c-1-.24.54-.72.82-.94.65-.52.35-.18-.31.84A.51.51,0,0,1,115.74,145.73Zm3.32-1.38c-1,1.24-2.88,1.69-2.64,1.32,1.15-1.78,1.6-2.32,4.17-3.26.31-.11,2.19-2.44.55-.78-.71.72-2.75,1.69-1.21.45,2.74-2.2,2.7-2.44,3.6-2.08.59.24.45.17.06.83s-.5.55-.74.61A46.33,46.33,0,0,0,119.06,144.34Zm5.33-1.87c-.74.58-6.64,2.92-1-.06,0,0,.33-.31.36-.34C124.32,141.51,125.49,141.6,124.39,142.47Zm1.92-1.54c-.93.24,0-1.84.38-1.93.18,0,1.39-.83,1.44-.7C128.93,140.52,128.94,140,126.3,140.93Zm2-.47c.29-.19.35-.41.45-.22S128,140.68,128.32,140.46Zm1.27-.37c-.47.19-.38-.05-.52-.33,0,0,0-.08,0-.11.25-.32.06-1.54.62-.52C130,139.68,130.16,139.86,129.58,140.09Zm.24-2.23a2.25,2.25,0,0,1,.24,1.25C130,139.46,129.2,138.6,129.82,137.86Zm2.41,1.22c-2.57,1.4-2.12.59-1.93-.25.08-.36-.48-1-.18-1.33.55-.65,4.33-.49,5-.18S133.42,138.43,132.23,139.08Zm1.62-2.31c.34,0,1.18.1-.66.08C132.28,136.84,133,136.73,133.85,136.76Zm1,0,.45-.14c1.45-.49-.2.28-.43.19S134.8,136.81,134.87,136.81Zm1.74-.22c.28,0-.69.64-1.05.51S136.28,136.6,136.61,136.59Zm-1.12,1.47c-.38.15-1.11.28-.45-.14S135.84,137.93,135.5,138.07Zm.49-.2c-.05,0-.3-.34-.2-.4S136.4,137.7,136,137.87Zm.7-.81c-.16.19-.37.32-.45.29S137.1,136.57,136.68,137.06Zm-1-.7c-.34,0-.89.48-1.6.22-.18-.07,0,0-.83,0-1.27,0-1.61.37-1.17,0C135.88,133.88,140.29,136.55,135.73,136.36Zm2.26-1c.08-.36.33-.58.76-1,.91-.78,1-1.16,1.27-.54S137.76,136.49,138,135.41Zm-.21,2.59a6.17,6.17,0,0,0-.79-.37c-.47-.17.09-1,.78-1.07C140.26,136.46,140.72,139.69,137.77,138Zm2.67-.24c.59.15.65,0,.24.67C139.87,139.74,139.45,137.5,140.45,137.75Zm.1,1.32a4.74,4.74,0,0,1,.7-1.16A4.47,4.47,0,0,1,140.54,139.08Zm1.41-1.24c-.35,0-.69-.52.57-1.42,0,0,1.62-3.25,1.67-3.32a4.64,4.64,0,0,1,2.51-.39c.86.22.33-.58-1.79-.06-.57.14,1.33-2.37,1.33-2.37s-1.87,2.5-2.85,2.74-.61-.26-.59-1c0-.29,0-.44-.06-.44a8.33,8.33,0,0,1,1.48-.9,2.43,2.43,0,0,1,.93-.06c.11-.36-1.8.14,2.19-1.56a5,5,0,0,0,1.7-1c1.24-1.39,1.19,4.26-1.33,5.24-.17.07-1.69,1.2-2.46,1.67C143.9,135.84,142.51,137.92,141.95,137.84Z"/><path class="cls-20" d="M88.7,105.11l-.37-.38a14.24,14.24,0,0,0-9.26-3.87,13.15,13.15,0,0,0-9.18,4,13.15,13.15,0,0,0-8.72,4.92,14.24,14.24,0,0,0-2.49,9.73c0,.23.06.41.08.53,1.52,9.14,12.19,12.91,16.1,13.36a13.58,13.58,0,0,0,5.63-.69,17,17,0,0,0,5.25-2.61A13.58,13.58,0,0,0,89.68,126C91.67,122.62,95.08,111.82,88.7,105.11Z"/><path class="cls-21" d="M87.7,104.11l-.37-.38a14.24,14.24,0,0,0-9.26-3.87,13.15,13.15,0,0,0-9.18,4,13.15,13.15,0,0,0-8.72,4.92,14.24,14.24,0,0,0-2.49,9.73c0,.23.06.41.08.53,1.52,9.14,12.19,12.91,16.1,13.36a13.58,13.58,0,0,0,5.63-.69,17,17,0,0,0,5.25-2.61A13.58,13.58,0,0,0,88.68,125C90.67,121.62,94.08,110.82,87.7,104.11Z"/><path class="cls-42" d="M56.77,106.53l-.07.08Z"/><path class="cls-42" d="M79.43,95.24h0Z"/><path class="cls-17" d="M73.22,98a23.5,23.5,0,0,0-1.55,1.95c.22-1-.13-1.73.32-2.87a4.14,4.14,0,0,1,1-1.46,3.91,3.91,0,0,0-1.7,1.23c-.72.94-.4,1.54-1.08,2.85a6.82,6.82,0,0,1-1.07,1.47l-.17-.09L66.43,96l-.16.08h0l-1.08.54,2.54,5.09a1.88,1.88,0,0,1,0,.19,6.82,6.82,0,0,1-1.82,0c-1.46-.24-1.75-.86-2.93-.85a3.91,3.91,0,0,0-2,.61,4.14,4.14,0,0,1,1.77.08c1.18.33,1.56,1,2.49,1.48a23.48,23.48,0,0,0-2.49.07,10.1,10.1,0,0,0-5.95,3.3,7.53,7.53,0,0,1,3.17-1.92c2.51-.77,3.85.3,6.79-.3a10.55,10.55,0,0,0,2.32-.77h0a10.66,10.66,0,0,0,2.62-1.69c2.25-2,2.2-3.7,4.33-5.24a7.53,7.53,0,0,1,3.44-1.37A10.1,10.1,0,0,0,73.22,98Z"/><path class="cls-43" d="M87.7,103.11l-.37-.38a14.24,14.24,0,0,0-9.26-3.87,13.15,13.15,0,0,0-9.18,4,13.15,13.15,0,0,0-8.72,4.92,14.24,14.24,0,0,0-2.49,9.73c0,.23.06.41.08.53,1.52,9.14,12.19,12.91,16.1,13.36a13.58,13.58,0,0,0,5.63-.69,17,17,0,0,0,5.25-2.61A13.58,13.58,0,0,0,88.68,124C90.67,120.62,94.08,109.82,87.7,103.11Z"/><path class="cls-44" d="M87.06,103.78l-.35-.36a13.49,13.49,0,0,0-8.78-3.67,12.46,12.46,0,0,0-8.7,3.79A12.46,12.46,0,0,0,61,108.2a13.49,13.49,0,0,0-2.35,9.22c0,.22.06.39.08.5,1.44,8.66,11.55,12.24,15.25,12.66a12.87,12.87,0,0,0,5.34-.65,16.12,16.12,0,0,0,5-2.48A12.87,12.87,0,0,0,88,123.59C89.87,120.37,93.11,110.14,87.06,103.78Z"/><path class="cls-43" d="M67.48,115.88c.49-1,1.77-.7,2.24-1.69.58-1.23-.55-3.55-2.31-4.24-2-.8-4.47.69-5.56,2.38-1.85,2.89.06,6.71.76,8.1,2.82,5.63,8.76,7,9.94,7.19,1.72.34,4.36.86,5.63-.69a3.6,3.6,0,0,0,0-4.24c-1.12-1.52-3.39-1.84-4.39-1.09-.5.38-.41.81-.85,1-1.25.54-3.43-2.07-3.7-2.4C68.48,119.27,66.83,117.26,67.48,115.88Z"/><path class="cls-30" d="M65.48,114.07a7.57,7.57,0,0,1,1.42,1.82,7.57,7.57,0,0,1-2.31-.07,1,1,0,1,1,.88-1.75Z"/><path class="cls-30" d="M68.28,112.5a7.57,7.57,0,0,1-.45,2.26A7.57,7.57,0,0,1,66.37,113a1,1,0,0,1,1.9-.47Z"/><path class="cls-30" d="M64.84,117a7.57,7.57,0,0,1,2.22.62,7.56,7.56,0,0,1-1.9,1.31,1,1,0,0,1-.32-1.94Z"/><path class="cls-30" d="M65.54,119.77a7.57,7.57,0,0,1,2.22-.62,7.57,7.57,0,0,1-.94,2.11,1,1,0,0,1-1.28-1.49Z"/><path class="cls-30" d="M67.27,122.11a7.57,7.57,0,0,1,1.88-1.34,7.57,7.57,0,0,1-.17,2.3,1,1,0,1,1-1.71-1Z"/><path class="cls-30" d="M69.66,123.81a6,6,0,0,1,1-1.54,6,6,0,0,1,.56,1.73.77.77,0,0,1-1.54-.19Z"/><path class="cls-30" d="M72,124.91a6,6,0,0,1,.37-1.78,6,6,0,0,1,1.13,1.43.77.77,0,1,1-1.51.36Z"/><path class="cls-30" d="M74.48,124.06a4.73,4.73,0,0,1-.37-1.39,4.72,4.72,0,0,1,1.31.6.61.61,0,0,1-.94.79Z"/><path class="cls-43" d="M80.49,109.4c-1.11-.23-1.63,1-2.7.77-1.33-.28-2.5-2.58-2-4.4.58-2.1,3.25-3.15,5.25-3,3.42.26,5.32,4.09,6,5.48,2.8,5.64.28,11.18-.25,12.26-.76,1.57-1.94,4-3.94,4.08A3.6,3.6,0,0,1,79.47,122c-.53-1.81.57-3.81,1.78-4.16.6-.17.89.16,1.31-.08,1.19-.67.41-4,.31-4.4C82.59,112.24,82,109.7,80.49,109.4Z"/><path class="cls-30" d="M80.25,106.71a7.57,7.57,0,0,0,.59,2.23,7.57,7.57,0,0,0,1.34-1.88,1,1,0,1,0-1.93-.35Z"/><path class="cls-30" d="M77.31,108a7.57,7.57,0,0,0,2.08,1,7.57,7.57,0,0,0-.56-2.24A1,1,0,1,0,77.31,108Z"/><path class="cls-30" d="M83,108a7.57,7.57,0,0,0-.84,2.15,7.57,7.57,0,0,0,2.19-.73A1,1,0,0,0,83,108Z"/><path class="cls-30" d="M84.76,110.19a7.57,7.57,0,0,0-1.83,1.4,7.57,7.57,0,0,0,2.25.51,1,1,0,1,0-.42-1.92Z"/><path class="cls-30" d="M85.59,113a7.57,7.57,0,0,0-2.2.69,7.57,7.57,0,0,0,1.94,1.25,1,1,0,0,0,.26-1.94Z"/><path class="cls-30" d="M85.51,115.92a6,6,0,0,0-1.82-.15,6,6,0,0,0,1,1.49.77.77,0,0,0,.77-1.34Z"/><path class="cls-30" d="M85,118.47a6,6,0,0,0-1.65-.78,6,6,0,0,0,.46,1.76.77.77,0,1,0,1.19-1Z"/><path class="cls-30" d="M82.8,119.91a4.73,4.73,0,0,0-.89-1.14,4.72,4.72,0,0,0-.31,1.41.61.61,0,1,0,1.19-.27Z"/><g class="cls-31"><path class="cls-32" d="M78.9,122c0-2.68-5.47-16.28-5.53-16.39-2.17-4.36-1.35-1.86-3.13-.87l-.1.05-.1,0c-1.86.83-3.36-1.34-1.19,3,.06.12,7.64,12.64,9.76,14.29l.15.31a.21.21,0,0,1,.29-.15Z"/></g><g class="cls-33"><path class="cls-4" d="M62.28,122.37a9.2,9.2,0,0,1-1.45-9.52,8.18,8.18,0,0,1,3.37-3.51c.91-1,1.34-2,1.05-2.37s-1.62-.12-2.36.24c-2.87,1.37-4.42,6.16-3.46,10.17A10.54,10.54,0,0,0,62.28,122.37Z"/></g><g class="cls-34"><path class="cls-35" d="M73.87,127c-1.18-.23-7.12-1.56-9.94-7.19-.7-1.39-2.61-5.21-.76-8.1A6.06,6.06,0,0,1,64.89,110a6.09,6.09,0,0,0-3,2.38c-1.85,2.89.06,6.71.76,8.1,2.82,5.63,8.76,7,9.94,7.19,1.61.32,4,.79,5.38-.42A10.26,10.26,0,0,1,73.87,127Z"/><path class="cls-35" d="M69.41,114.6a1.64,1.64,0,0,0-.28.2A1.58,1.58,0,0,0,69.41,114.6Z"/><path class="cls-35" d="M74.26,121.94c.33-.14.36-.42.57-.71a2.11,2.11,0,0,0-1,.37,1.29,1.29,0,0,0-.32.35A1.13,1.13,0,0,0,74.26,121.94Z"/></g><path class="cls-36" d="M80.7,122.68c-.67-2.09.34-4.29,1.56-4.6.61-.16.93.24,1.35,0,1.18-.68.16-4.49,0-5-.37-1.36-1.17-4.26-2.73-4.71-1.16-.33-1.62,1-2.74.69s-2-1.85-2.34-3.46l0,.13c-.5,1.82.66,4.12,2,4.4,1.07.22,1.59-1,2.7-.77,1.49.3,2.1,2.83,2.38,4,.1.41.87,3.73-.31,4.4-.42.24-.71-.1-1.31.08-1.21.35-2.31,2.35-1.78,4.16a3.69,3.69,0,0,0,2.23,2.35A4.78,4.78,0,0,1,80.7,122.68Z"/></g></g></g></svg>