<svg xmlns="http://www.w3.org/2000/svg" xmlns:xlink="http://www.w3.org/1999/xlink" viewBox="0 0 86.56 113.99"><defs><style>.cls-1{fill:#9b6e1f;}.cls-2{fill:url(#linear-gradient);}</style><linearGradient id="linear-gradient" x1="47.55" y1="113.99" x2="47.55" gradientUnits="userSpaceOnUse"><stop offset="0" stop-color="#fbb03b"/><stop offset="0.74" stop-color="#fbb03b"/><stop offset="0.89" stop-color="#fcc731"/><stop offset="0.97" stop-color="#e9a12c"/><stop offset="1" stop-color="#cc7b19"/></linearGradient></defs><title>Ресурс 14elements</title><g id="Слой_2" data-name="Слой 2"><g id="Layer_1" data-name="Layer 1"><path class="cls-1" d="M8.44,0S1.77-.44,0,10.17H20.82S18.34,0,8.44,0Z"/><path class="cls-2" d="M86.56,91.77a114.88,114.88,0,0,1-2.34-26.52c.35-12.38,3.67-36,1.28-50.3S72.69,0,72.69,0H8.54S19,.62,21.36,14.94s-.93,37.93-1.28,50.3a114.81,114.81,0,0,0,2.34,26.52l34.26,21.87A2.27,2.27,0,0,0,58,114a2.25,2.25,0,0,0,1.31-.5Z"/></g></g></svg>