<svg xmlns="http://www.w3.org/2000/svg" xmlns:xlink="http://www.w3.org/1999/xlink" viewBox="0 0 125.63 125.63"><defs><style>.cls-1{fill:#87171c;}.cls-2{fill:url(#linear-gradient);}.cls-3{fill:url(#linear-gradient-2);}.cls-4{fill:#d42128;}.cls-5{fill:url(#radial-gradient);}.cls-6{fill:#fff;}</style><linearGradient id="linear-gradient" x1="-991.72" y1="499.37" x2="-991.72" y2="398.61" gradientTransform="translate(-311.04 1091.44) rotate(135)" gradientUnits="userSpaceOnUse"><stop offset="0" stop-color="#f15a24"/><stop offset="0.27" stop-color="#fbb03b"/><stop offset="1" stop-color="#fbb03b"/></linearGradient><linearGradient id="linear-gradient-2" x1="35.78" y1="35.78" x2="100.84" y2="100.84" gradientUnits="userSpaceOnUse"><stop offset="0" stop-color="#c2c2c2"/><stop offset="0.24" stop-color="#e6e6e6"/><stop offset="0.48" stop-color="#f8f8f8"/><stop offset="0.65" stop-color="#fff"/><stop offset="0.84" stop-color="#fcfcfc"/><stop offset="1" stop-color="#f2f2f2"/></linearGradient><radialGradient id="radial-gradient" cx="115.85" cy="-277.1" r="50.12" gradientTransform="translate(147.5 309.15) rotate(-45)" gradientUnits="userSpaceOnUse"><stop offset="0" stop-color="#ee4623"/><stop offset="0.25" stop-color="#e94323"/><stop offset="0.54" stop-color="#db3b23"/><stop offset="0.85" stop-color="#c52e22"/><stop offset="1" stop-color="#b62522"/></radialGradient></defs><title>Ресурс 11elements</title><g id="Слой_2" data-name="Слой 2"><g id="Layer_1" data-name="Layer 1"><path class="cls-1" d="M0,95.15C.53,102.41,18.19,100,18.19,100L10.82,63.27H0Z"/><path class="cls-1" d="M95.15,0C102.41.53,100,20.44,100,20.44l-36.7-9.62V0Z"/><path class="cls-2" d="M7.58,66.61c24.09-14,43.1-34,59-59a59,59,0,1,1-59,59Z"/><path class="cls-3" d="M115,66.61a48.42,48.42,0,1,1-96.83,0c0-14.12,9.27-23,18.9-31.83C45.71,26.87,54,18.19,66.61,18.19A48.42,48.42,0,0,1,115,66.61Z"/><path class="cls-4" d="M28.55,77V73.28l3.35-3c5.67-5.07,8.43-8,8.51-11,0-2.12-1.28-3.79-4.27-3.79a9.41,9.41,0,0,0-5.55,2.16l-1.72-4.35a14.37,14.37,0,0,1,8.51-2.68c5.87,0,9.1,3.43,9.1,8.15,0,4.35-3.15,7.83-6.91,11.18l-2.4,2V72H47v5Z"/><path class="cls-4" d="M69.88,63.85c0,8-3.24,13.54-9.86,13.54s-9.66-6-9.7-13.38c0-7.51,3.19-13.46,9.9-13.46C67.17,50.55,69.88,56.74,69.88,63.85ZM56.42,64c0,6,1.4,8.79,3.75,8.79s3.63-3,3.63-8.86c0-5.75-1.24-8.79-3.67-8.79C57.9,55.15,56.38,58,56.42,64Z"/><path class="cls-4" d="M86.53,58.26c0,5.43-3.43,8.27-7.19,8.27-4,0-7.07-3-7.07-7.83,0-4.63,2.84-8.15,7.27-8.15S86.53,53.83,86.53,58.26Zm-9.74.28c0,2.72.92,4.67,2.67,4.67S82,61.46,82,58.54c0-2.64-.72-4.67-2.6-4.67S76.79,55.95,76.79,58.54Zm2.87,18.85,14.9-26.84h3.27L82.9,77.39ZM105.22,69c0,5.43-3.43,8.26-7.19,8.26-3.91,0-7-3-7.07-7.83,0-4.63,2.83-8.15,7.27-8.15S105.22,64.61,105.22,69Zm-9.7.28c0,2.72.88,4.67,2.64,4.67s2.56-1.76,2.56-4.67c0-2.63-.68-4.67-2.56-4.67S95.51,66.73,95.51,69.32Z"/><path class="cls-4" d="M60.81,94.68c0,6.33-3.84,10.17-9.48,10.17s-9.08-4.33-9.08-9.83c0-5.79,3.7-10.11,9.4-10.11C57.57,84.91,60.81,89.35,60.81,94.68Zm-14,.26c0,3.78,1.78,6.45,4.7,6.45s4.64-2.81,4.64-6.56c0-3.47-1.66-6.45-4.67-6.45S46.86,91.18,46.86,94.94Z"/><path class="cls-4" d="M63.67,85.22h11.8V88.8H68.05v4.41H75v3.55H68.05v7.76H63.67Z"/><path class="cls-4" d="M78.76,85.22h11.8V88.8H83.15v4.41h6.93v3.55H83.15v7.76H78.76Z"/><path class="cls-5" d="M24.57,24.57A207.06,207.06,0,0,0,0,54.5V95.15c0-10,17.32-37.35,37.56-57.58S85.2,0,95.15,0H54.5A206.82,206.82,0,0,0,24.57,24.57Z"/><path class="cls-6" d="M18.33,52.11a8.77,8.77,0,0,0,3.14-2.33c1-1.21,1-2.27.26-2.9s-1.6-.39-3.26.61c-2.27,1.39-4.39,1.77-6.09.37-2-1.64-2.15-4.56.12-7.32a9.27,9.27,0,0,1,3-2.5l1.65,2.34a7.22,7.22,0,0,0-2.57,2c-.94,1.14-.88,2.13-.27,2.63s1.62.23,3.43-.81c2.46-1.43,4.34-1.52,6-.17,2,1.61,2.38,4.49-.25,7.7a10,10,0,0,1-3.44,2.73Z"/><path class="cls-6" d="M28.13,40.05l2.1,3.44L27.8,46.08,19.91,32.36,23,29.08,37.25,36l-2.52,2.69-3.63-1.8Zm.76-4.55L25.9,34c-.84-.42-1.84-1-2.65-1.44l0,0c.5.78,1.18,1.73,1.65,2.51l1.73,2.85Z"/><path class="cls-6" d="M28.28,23.7l2.52-2.34,8.34,9,4.42-4.09,2,2.11-6.94,6.43Z"/><path class="cls-6" d="M49.75,16.52l-4.29,3.55,2.29,2.77,4.8-4L54.34,21,46.89,27.2,37.23,15.53l7.2-6,1.79,2.16L41.67,15.5l2,2.42L48,14.37Z"/></g></g></svg>