<svg xmlns="http://www.w3.org/2000/svg" xmlns:xlink="http://www.w3.org/1999/xlink" viewBox="0 0 281.78 236.81"><defs><style>.cls-1{isolation:isolate;}.cls-2,.cls-20,.cls-22,.cls-23,.cls-28,.cls-3,.cls-5,.cls-6{mix-blend-mode:multiply;}.cls-2{fill:url(#radial-gradient);}.cls-3{fill:url(#radial-gradient-2);}.cls-4{fill:#d16800;}.cls-5{fill:#e6e6e6;}.cls-6{fill:#b3b3b3;}.cls-7{fill:#fdf7f7;}.cls-8{fill:#f3d4d4;}.cls-9{fill:#640302;}.cls-10{fill:#77b818;}.cls-11{fill:#598a0f;}.cls-12,.cls-31{fill:#ffb06a;}.cls-13{fill:#f10;}.cls-14{fill:#ff442e;}.cls-15,.cls-19{fill:#f2f2f2;}.cls-15{opacity:0.7;}.cls-16{opacity:0.39;}.cls-17{fill:#fff8d5;}.cls-18{opacity:0.49;}.cls-18,.cls-27,.cls-30,.cls-31{mix-blend-mode:screen;}.cls-20,.cls-22,.cls-31{opacity:0.4;}.cls-21,.cls-22{fill:#919191;}.cls-23{fill:#767676;}.cls-23,.cls-28,.cls-30{opacity:0.5;}.cls-24{fill:#ffbd00;}.cls-25,.cls-28{fill:#cf8e00;}.cls-26,.cls-27{fill:#ffd77a;}.cls-27{opacity:0.3;}.cls-29{fill:#963232;}.cls-32{fill:#3e3e3e;}</style><radialGradient id="radial-gradient" cx="-928.91" cy="2610.36" r="143.56" gradientTransform="matrix(1, 0, 0, 0.54, 1069.84, -1242.95)" gradientUnits="userSpaceOnUse"><stop offset="0"/><stop offset="0.2" stop-color="#4c4c4c"/><stop offset="0.4" stop-color="#8c8c8c"/><stop offset="0.57" stop-color="#bdbdbd"/><stop offset="0.72" stop-color="#e1e1e1"/><stop offset="0.84" stop-color="#f7f7f7"/><stop offset="0.92" stop-color="#fff"/></radialGradient><radialGradient id="radial-gradient-2" cx="-1102.82" cy="2609.26" r="84.03" gradientTransform="matrix(1.05, 0, 0, 0.54, 1275.02, -1235.9)" gradientUnits="userSpaceOnUse"><stop offset="0.27"/><stop offset="0.41" stop-color="#4c4c4c"/><stop offset="0.55" stop-color="#8c8c8c"/><stop offset="0.67" stop-color="#bdbdbd"/><stop offset="0.78" stop-color="#e1e1e1"/><stop offset="0.86" stop-color="#f7f7f7"/><stop offset="0.92" stop-color="#fff"/></radialGradient></defs><title>Ресурс 16</title><g class="cls-1"><g id="Слой_2" data-name="Слой 2"><g id="elements"><ellipse class="cls-2" cx="140.89" cy="155.09" rx="143.55" ry="76.89" transform="translate(-31.61 36.15) rotate(-13.16)"/><ellipse class="cls-3" cx="113.63" cy="161.47" rx="88.48" ry="45" transform="translate(-33.78 30.11) rotate(-13.16)"/><path class="cls-4" d="M155.42,145.57c-17.77,5.31-41.85,15.44-68.81,36.74a12.55,12.55,0,0,1-16-.34,52.47,52.47,0,0,1-11.48-13.88c-20.53-36.39,7-96.34,48.13-124.21C115,38.68,143.54,19.34,179.49,26c21.39,4,35.28,15.29,41.14,20.18C233.52,57,256.51,82,249.35,99.77c-3,7.36-10,10.91-14.75,13.2C202.51,128.51,186.47,136.29,155.42,145.57Z"/><path class="cls-5" d="M236,73.68l-.13.09c20-18.85-6.42-50-28.28-33.26l.11-.12C183.4,58.79,213.74,95,236,73.68ZM209.61,44.57c16.53-14.06,38.51,8.82,24.37,24.81C217.4,88.15,191,60.43,209.61,44.57Z"/><path class="cls-6" d="M237,73.76l-.13.09c20-18.85-6.42-50-28.28-33.26l.11-.12C184.38,58.87,214.72,95,237,73.76Zm-25.26-30c17.49-12.54,37.34,11.58,22.51,26.47C216.52,88,191.48,58.3,211.75,43.77Z"/><path class="cls-7" d="M237.13,73.71c22-18.73-6.3-52.1-28.35-33.34S215.07,92.47,237.13,73.71Zm-.89-28c14.93,17.56-11.63,40.18-26.58,22.6S221.29,28.16,236.24,45.74Z"/><path class="cls-8" d="M238.07,72.86c-21.8,16.48-48.09-14.41-28.3-33.28C185.23,58.13,216,93.93,238.07,72.86Z"/><path class="cls-8" d="M235.18,69.47c19.91-14.6-4.8-43.93-22.53-26.5C230,30.27,250.51,54.42,235.18,69.47Z"/><path class="cls-5" d="M221,58.95l-.11.11c17.2-21.45-8.73-43.83-27.72-23.86l.09-.13C172.16,57,201.92,83.08,221,58.95ZM195.25,38.43c14.27-16.34,35.64-.48,23.67,17.08C204.87,76.12,179.15,56.86,195.25,38.43Z"/><path class="cls-6" d="M221.93,58.81l-.11.11c17.2-21.45-8.73-43.83-27.72-23.86l.09-.13C173.06,56.89,202.82,82.94,221.93,58.81ZM197.16,37.23c15.24-15.18,34.74,2.27,22.06,19C204.06,76.21,179.5,54.82,197.16,37.23Z"/><path class="cls-7" d="M222,58.73c19-21.78-8.75-45.73-27.79-23.92S203,80.53,222,58.73Zm-2.42-25.1c14.64,12.6-8.3,38.89-23,26.27S205,21,219.62,33.63Z"/><path class="cls-8" d="M222.85,57.76c-18.94,19.69-44.71-2.47-27.74-23.88C173.79,56,203.91,81.66,222.85,57.76Z"/><path class="cls-8" d="M220,55.32c17.33-17.58-6.91-38.67-22.09-19C213,21,233.14,38.35,220,55.32Z"/><path class="cls-5" d="M218.19,74.3l-.1.08c15.21-16-8.37-33.15-25.2-18.32L193,56C174.23,72.28,201.29,92.27,218.19,74.3ZM194.77,58.52c12.64-12.15,32,.06,21.47,13.16C203.87,87.06,180.52,72.23,194.77,58.52Z"/><path class="cls-6" d="M219,74.2l-.1.08c15.21-16-8.37-33.15-25.2-18.32l.08-.1C175,72.18,202.1,92.17,219,74.2ZM196.47,57.64c13.52-11.27,31.25,2.12,20.05,14.58C203.13,87.12,180.81,70.7,196.47,57.64Z"/><path class="cls-7" d="M219.09,74.15c16.84-16.2-8.4-34.58-25.26-18.37S202.23,90.36,219.09,74.15Zm-2.47-19c13.3,9.67-7,29.22-20.32,19.54S203.3,45.51,216.62,55.2Z"/><path class="cls-8" d="M219.81,73.42C203,88,179.59,71,194.59,55.09,175.69,71.55,203.06,91.23,219.81,73.42Z"/><path class="cls-8" d="M217.24,71.56c15.37-13-6.67-29.24-20.08-14.6C210.52,45.61,228.83,58.91,217.24,71.56Z"/><path class="cls-9" d="M115,80.89a14,14,0,0,0,11.94,13.91A14,14,0,0,0,150.35,108a14,14,0,0,0,24.37-13.55,14,14,0,0,0,12.6-18.11,13.95,13.95,0,0,0-.64-24.51A14,14,0,0,0,184,48.09,14,14,0,0,0,159.57,36a14,14,0,0,0-24.31,4.67,13.93,13.93,0,0,0-18.48,12.42A14,14,0,1,0,115,80.89Z"/><path class="cls-10" d="M163.94,63.46c20.21-.59,32.75-31.75,28.7-35.73-1.86-1.83-6.42,2.91-12.86.41-5-2-6.74-6.62-10.13-6-2.69.51-2.84,3.68-5.26,3.92-3.81.38-5.94-7.24-9-6.86-3.46.42-3.16,10.29-7.4,11.4-3.91,1-7.36-6.51-9.52-5.64-3.25,1.31-3.48,21.74,9.65,32.44C149.75,58.76,155.81,63.7,163.94,63.46Z"/><path class="cls-11" d="M165.92,58.12c9-1.13,17.36-14,15-20.54-.31-.87-1.58-2.6-4.12-6.06-4.53-6.17-5.49-6.31-5.94-6.3-3.36.08-4.36,9-7.13,9-3.24,0-5.22-12.19-7.15-12s-.23,11-4.27,12.86c-4.33,2-11.61-7.93-12.65-7.1C138,29.38,151.08,60,165.92,58.12Z"/><path class="cls-12" d="M76.46,180.8A52.47,52.47,0,0,1,65,166.92c-20.53-36.39,7-96.34,48.13-124.21,4.93-3.34,18.53-12.53,37.17-16.89-21.61,3.6-37.56,14.37-43,18.05C66.11,71.75,38.63,131.69,59.16,168.08A52.47,52.47,0,0,0,70.64,182a12.53,12.53,0,0,0,13.49,1.86A12.48,12.48,0,0,1,76.46,180.8Z"/><path class="cls-10" d="M127.45,75.62c17.9-11.66,16.49-55.73,11.23-58.3-2.42-1.18-4.59,7-11.38,7.46-5.33.39-8.75-4.27-11.53-1.67-2.21,2.07-1,5.95-3.13,7.55-3.27,2.52-8.28-5.44-10.89-3.32-2.93,2.38,1.35,14-2,17.65-3.09,3.34-9.26-3.8-10.84-1.59C86.52,46.72,94.63,71.29,110.77,77,112.8,77.69,120.24,80.32,127.45,75.62Z"/><path class="cls-11" d="M127.06,68.17c7.59-6.21,9.91-26.11,5.11-32.7-.64-.88-2.48-2.26-6.16-5-6.57-4.92-7.49-4.58-7.9-4.31-3,1.92-.25,13.15-2.74,14.66-2.91,1.76-9.64-11.75-11.29-10.43s4.27,13.31,1.39,17.7c-3.08,4.71-13.65-3.19-14.24-1.64C90.26,48.93,114.49,78.44,127.06,68.17Z"/><path class="cls-10" d="M47.29,77.18c6,1.92,11.95,3.17,9.73,2.93-.6-.07-.65.3,0,.37a3.87,3.87,0,0,0,1.31-.13c.06,0,1.08.23,1,.24-5.75,1-5.64.68-5.64.68-1.95,1.11-.06.21.49.3s8.09-1.29,7.12-.51-4.33,4.58-6.21,5c-.93.22-.63,1.82,6.26-4.8.43-.35,2.79,2.46,2.46,2.27-1.12-.62-4.07,2.44-4.4,2.7-2.82,2.26-3.68-1.72-10.93,1.54-.37.16-2.75,3.06-.72,1,3.56-3.59,12.48-1.85,7.3-.21a43.88,43.88,0,0,0-3,3.55,35.05,35.05,0,0,1,3.46-3.47,10.19,10.19,0,0,0,2.1-1.42c2.59.41,4.31-5.92,7.49-2.18.68.8,4.84,1,5.64,1.65,3.92,3-2.74.32-3.79.41s-.71-.14-2.06.51a9,9,0,0,1-3.21.88c2.32,0,.69-.07-.64,1.16-.68.63-3.25,1.25-1.74,1S65,87.36,67,87.39c.75-.07,4.93.64.73,1.8-5,.72-12.92,3.9-12.92,3.9-1.23-.05-1.26.18,0,.23,1.56.07,4.64-2,4.07-1.38s-.37.66.14.14c1.13-1.14,13-4.11,13.22-3.4,0,0,.75,2.23.77,2.25s2.44,3.62,2.48,3.64c.46.19,1.76.67,1.27.8-4.82,1.21-11.18-.47-11.18-.47-4.13,1.41-.09,0,1.36.5,2.93,1,3.29.27.68,1.69-.54.3-2.08,1.75-2,1.94,0,0,3.19-3.14,5.43-2.62,1,.23-3,3.09-3.42,3.37a5.57,5.57,0,0,1-2.78.66c-1.9,1.39,0,.24.52.22,1.63-.08,1.28,0,2.32-.64,1.52-.91,4-3.46,4.58-3.32.35.08-.88.73-1.23.92a8.45,8.45,0,0,0-1.65,3.31c-.42,1.43-1.66,3.5-.21,1.34.57-.86.17-4.69,4.85-5.66,1.62-.34,2.25-.38,1.86-.25-1.34.47-8.23,8.87-10.12,9-.26,0-2.37.33-2.33.67,0,0,1.73-.38,2.34-.43s-.87,1.27-2.09,1.89-2.86.29-.91.69a35.91,35.91,0,0,0,4.45-2.87c9.6-10.18,8.33-8.26,11.92-10,1.62-.78,2.36-1.54,1.48.39-.19.43,0,.78-.42,1.17s-1.13,1.94-1.67,2.2c-.94.44.21-.38-2,1s-1.22.27-3.14,1.36a11.84,11.84,0,0,1-3,3.3s-1.67,1.35-1.69,1.37a15.94,15.94,0,0,0-1.16,2.13l1.89.33c2,.34-.28,1.82-.93,2.54-1,1.1-3,1.26-1.68,1.19,1.82-.09,3.36-3.53,3.26-1.5,0,2.87-.16,2.58-2.62,4.09-1.22.59-1.17.81.05.21.93-.57,2.54-1.84,2.52.26,0,2.29-1.41,3.29-.42,2.45.22-.18.39-.12.39.15,0,.63.17.65.18-.08a1.38,1.38,0,0,1,.69-1.12c.13-.11,1.93-4.36,2.12-4.62.4-.57-.43,1.93-.67,2.51a27.28,27.28,0,0,1-1.37,2.72c-.77,1.63.61-.37,1.53-2.61,2.09-5.07,0-1,3.08-4.07.8-.8.47-.49.35,1.35-.25,3.7.36-2,.58-2.28a47.71,47.71,0,0,0,2.7-6.17c1-3.79,2,1.85.28,8.76-.05,1-.22,3.77-.18,1.7,0-.08,0-.78.09-1.34A28.89,28.89,0,0,1,76.48,120s-.6,2.35-.61,2.39a12.63,12.63,0,0,1-2,4.34c.06.1,1.24-1.24,1.16-.92,0,0-.63,1.54-1.16,3.35-1.31,4.44-.38,5.09-.5,3.73-.26-3,2.67-8.25,2.81-8.76,4.09-15.16,2.65-3.12,2.06-1.48-1.3,3.66-2.24,9.07-1.13,5.71,0,0-.35-.33,1.08-4.88.21-.6-1.09,6.32-1.12,6.3.29.15,1-3.94,1-4.37.57-3.39.72-4.62,1.14-3.11a24.4,24.4,0,0,1,.75,6c1.19,4.51.64,5.79.91,8,.31,2.56.13-3.12,0-4.5-.13-1.6-1-5-.51-3.61.22.57,2.95,3.29,3.1,5,.06.67-.53,3.35.24.64.58-2-3.56-5.39-3.42-6.85,0-.06-.49-3.61-.85-4.91s-.43-1.47,0-4.06a18.45,18.45,0,0,0,.14-3l1.53-7.7c-.09-1.76-.43-6.1.13-7.37s.88-1.74.72-1.27a11.72,11.72,0,0,0,.07,6.54,2.75,2.75,0,0,1-.1-.46c-.42-5.21.54-9.08,4.18-12.62-.67.52-1,.62.22-.74.28-.3.34-1,1.22-1.18.51-.09.21.36-.3.89.44-.36.89-.73,1.39-1.09,2.2-1.35,1.37-.81,3.5-2.23.2-.11.84-.47,1-.57s.09.24-.07.6c-.23.51-.28.68-.53.79a2,2,0,0,1-.38.13,11.76,11.76,0,0,0-1.14.48c-1.14.43-.73.17-1.86,1.14a67,67,0,0,0-5.9,7.37c-.15.46-1.17,1.55-.92,1.9a2.68,2.68,0,0,0,.87-1.19,14.62,14.62,0,0,1,1.48-2.21c-.35.52-.26.74.18.07s1.28-1.35,1.2-1.18c-1.2,2.65-.62,3.41-1.63,6.27a22.66,22.66,0,0,1-1,2.22c.74.89,2.23-7.24,2.43-7.66a12.31,12.31,0,0,1,1.66-2.56c.47-1.06.76-2.76,4.17-4.2l.67-.28c.18-.05-.34.26-.2.46s.5-.55.64-.59.61-.29.81-.39l.32-.53a1.86,1.86,0,0,1-.22-.32c-.24-.39-.09-.67.28-.9.17-.11.23.12.23.41q.19-.59.36-1.2c-.22-.15,0-2,.1-2.68,0-.18.59-2.26.59-2.26a6.37,6.37,0,0,0,.66.8l.09-.2a7.7,7.7,0,0,1-.7-.88c-.22-.34-.44-2.46.45-.68l.46.93,0-.18s0-.06,0-.1c-1-1.87-1-2.44-.08-3.35.29-.29,5-3.5,4.93-2.52,0,.54-.35,3.46-.58,5.4a.9.9,0,0,1,.27.06c.45-3.54.79-4.8,1.06-4.78a4.68,4.68,0,0,0,0-.48c0-2.55,2.17-.69,4.34-4.89.62-1.21.79-.79,1.6-.76a6.43,6.43,0,0,0,1,0l.13-.28c-1,.21-2.38.27-1.59-.87s.63-.17,1.85.39l.17-.29c-1-.38-1.52-.84-1.21-1.29a12.93,12.93,0,0,1,3.15-3.67,9.69,9.69,0,0,1,2-2.57c2.38-2.27,5.36-3.27,8-4.59,2.1-1,7.84-4,6.52-5.42-1.28.58-2.57,1.11-3.85,1.58-1.61.6-3.92,1.65-5.53,1.08-1.35-.48-2-2.14-3-3.52-1.37-2-2.91-5-4.68-6.36-4.61-2.91-5.27-3.79-8.41-9.18l-.82-1.38-.73-.56s-.7,0-.73,0c-.84,0-.86-.05-1.18-.84s-.16-.38-.63-1.56a.09.09,0,0,0,0,0,8.3,8.3,0,0,1-.81-.56A8.55,8.55,0,0,1,95.85,27a3.36,3.36,0,0,1-.31-.5c-.18-.32-1.11-1.56-1.32-1.84a1.86,1.86,0,0,1-.35-.89c-.18-.77-.35-.69-.17.1,0,0,.14.61.15.64a32.38,32.38,0,0,1,3.06,4.82,6.76,6.76,0,0,0,.59.34c.71.38.72.34,1,.92l.68,1.66a.3.3,0,0,0,.06.07s-.08,0-.13,0a5.24,5.24,0,0,0-.47.33c-.57.42-.43.57-.11.34.17-.12.65.09.88.12.83.13,2.83,2.69,3.41,3.46.3.4-.17.11-.92.2a1.92,1.92,0,0,1-2.08-.69c-.12-.19-.52-.87-.64-1.08-.82-1.4-.4-.57-.89-1.2,0,0-.26-.34-.28-.35a7,7,0,0,1-1.23-.78c-.53-.39-.63-.18-.09.21a4.6,4.6,0,0,0,.81.54c.84.49,2.12,2.67.08.57,0,0-.89-.34-.91-.35a3.83,3.83,0,0,0-.49.14c-.07,0-.44.14-.5.11s-1-.66-1-.66a7.2,7.2,0,0,1-.83-.52,12.5,12.5,0,0,1-1.91-1.48,14,14,0,0,1-2.61-4,30.15,30.15,0,0,0,1.31,3.24s2.31,2,2.34,2c.37.25,1.34.82.53.82-1,0-1-.31-2.45-.65-1.21-.29-1.25-.05-.05.24.81.2,1.66.52,1.23.48a1.52,1.52,0,0,0-.26,0c-.16.07-1.63.77-1.73.61s-.23,0-.16.12-.31.29-.37.2-.21.12-.19.15a2.25,2.25,0,0,1-.29.14,2.22,2.22,0,0,0-.2.22c-.17.2-1.73-.26-1.75-.18s.29.24.68.37.33.68-.14,1.22c-1.12,1.3-1,1.51.15.12,1-1.21,1.54-.82,2-.68,0,0,.14,0,.19-.05.2-.07,1.08,1.41,1.22,1.58l.8.62s.16,0,.21,0c.22,0,.4.7.18.89s-.12.11-.41.34-1.06-.59-1.32-.84c0,0-1.82-.49-1.84-.5l-.5.08c-.63.1-.61.33,0,.23a4.19,4.19,0,0,1,2.74.88c.55.52-.86,1.7-1.23,2,.37-.29,1.86-1.39,2.42-.85.06.06,3.79,2.72,3.79,2.72,3.9.4,3.22.76,2.79.67-2.14-.62-1.7-.56-2.3-.42a1.07,1.07,0,0,1-.81-.18c-.1.14.22.37.06.5s-.65-.44-.88-.49c-2.11-.44,0,.24.27.47.49.36-1.11,1.65-2.23,1.56-.88-.07-.87-.41-1-.91a.1.1,0,0,0-.05-.08,5.15,5.15,0,0,0-1-.33l-.45-.08a11.71,11.71,0,0,1-2.44-1.94,9.57,9.57,0,0,0-1.51-1.33c-.9-.83-.64-.67-1.23-.83-1.21-.32.35.3,1.13,1a9.57,9.57,0,0,1,1.51,1.32c.87.89,2,1.68,1.72,1.66a27.69,27.69,0,0,0-3.88-1c-1.24-.19-1.27,0,0,.23,1.54.26,4.07,1,4.07,1a12.87,12.87,0,0,1,1.37.2c.61.11,1.24,1-.09.9h0c-.15.06-2.12.92-2.18.74s-.22-.06-.16.09-.18.21-.46.32c-.65.27-1.48-.89-1.91-1.53a30.51,30.51,0,0,0-3.11-3.32s4.41,5.1,4.23,5.17-.08.27.09.2,1.57,1.62,1.7,1.77-.65.22-.68.25-2.42-2.89-.84-.6c.71,1-.29,1.76-.62,1.57s-1.12-.49-1.34-.59a7.91,7.91,0,0,1-.8-.35c0-.06-.91-1.33-1-1.35a12.87,12.87,0,0,1-3.86-3.16C79,42.11,78,40.19,78.65,41.73a14.74,14.74,0,0,0,1.86,2.7C81,45,82,45.82,81.72,45.74c-.12,0-.91-.57-1-.5s.37.51-.14.18c0,0-1.06-.2-1.08-.08-.05.27-.72.15-.92.1-1-.14-1-.13-2.55-1.15-.32-.21-.79.33-1.47-.36a1.45,1.45,0,0,0-.18-.17,1,1,0,0,1-.49-.39c-.38-.45-.47-.23-.24,0s-.23.3-.82-.78-.74-.91-.23,0c.6,1.12,0,.34-.05.72a2.29,2.29,0,0,1,.92.88l.47.87c.16.3.21.22-.38.53-.74.39-1.11.85-1.74.95a9.39,9.39,0,0,1-1.86.11c-1.88.06-1.89.31,0,.25a10.93,10.93,0,0,0,2.35-.19s.42-.31.45-.34a6.54,6.54,0,0,1,1.37-.8,1.83,1.83,0,0,1,.38.58c2.18,4.2,2,1.8-2.84,1.87-1.88,0-1.88.28,0,.26a10.23,10.23,0,0,1,3.65.47,3.37,3.37,0,0,1,1.07.79,20.68,20.68,0,0,0,1.67,1.65c1.06,1,.69.73.14,2a1.44,1.44,0,0,1-1.27.93c-.07,0-.1-.05-.14-.1a3.07,3.07,0,0,0-.3-.16c-.36-.19-.34-.18-1-1.29,0,0-.59-.94-.61-1-.61-.49-2.75-2.1-3-2.74s-.48-.54-.17.17c0,0,.23.55.26.57a18.72,18.72,0,0,1,3.3,3c.53.83.24.57-.06.34-.1-.07-1.61-1.14-1.66-1s-.46-.29-.53-.15,1.76,1.66,1.83,1.75.34.42.37.43.32.11.17.08-1.74-.63-1.92-.7-1.82-.48-1.85-.47-.92.36-.9.5a3.63,3.63,0,0,1,1.81,0,9.54,9.54,0,0,1,1.78.57,6.58,6.58,0,0,0,2,.51c.25,0,.19,0,.62.36.17.14.22.33.11.42s-.2.18-.19.21-.5,0-.62.08l-.68.17a.14.14,0,0,0-.06,0s-.81.48-.85.5a.19.19,0,0,0-.05.06,3.4,3.4,0,0,0-1.2.83c-.43.53-.2,0-.47-.12s-.68-.34-1.56-2.15c-.1-.2-1.42-2.36-1.55-2.19L71.71,56c.37.63-3.33.61-3.33.62,0,.2,3.64.1,3.76.17,2.26,1.43-4.68,5.29-1.52,3.45,0,0,.89-.52.91-.54.29-.34,1.1-1.35.87-.76-1,2.73-.78,2.26-2.4,2.67-1.89.49-5.25-.74-1.46.61.76.26,5.09-2.24.34,1.43-.32.24-3.25,5.81-.82,1.73,1.26-2.11,2.68-2.91,2.46-2.52,0,0-.21.38-.22.4-1,3.08.13-.55,1.4-1.53a9.43,9.43,0,0,1,2.47-1.14c.2-.07-.1-.32.92.83,2.09,2.39.06,2-2.51,3,0,0-2.21,1.35-3.86,2.16-2,.93-2,1.56-1.28,1,3.71-2.88-.43,1.13-2,1.84,0,0-.91.4-.94.43-2.37,2.65,2.87-1.7,5.67-3.59,7.93-5.35,5.8.37,2,3.06-6.47,5.67-6.54,6,.08.2.33-.23,2.48-1.5,3-3.29.73-2.33.55-2.15.6,1.38,0,5.61.21,4.61.17,0-.05-4.08-.89-4,3.94-4.92.12,0,1.86-.37,2-.33s-.26,1.18-.27,1.22a5.17,5.17,0,0,1-.57,1.71,6.15,6.15,0,0,1-2,1.86c-.06.94-2.76,3.17-2.91,3.66-.81,2.62-.14.45,1.27-1.15,1.75-2,2-2.42.58-.13-2.31,3.68,1.81,5-7.49,2.78-1.23-.21-1.29.09-.05.31.58.14,1.43.29.13.46-3.39.44,1.67.05,2.1.11a7.17,7.17,0,0,1,2.3.7c1.48,0,1.83-.58,1.5,2.13-.37,3-.2,3.05.18,0,.12-1,.23-2.28.57-2.33,2.46-.27.29,0-.69,5.25-.1.56.11,2.88,1.43,3.79.68.47.9.82.68,2.17-.27,1.62-.27,1.93-1.54,2-2.4,0-4-4.71-9.53-5.79-5.46-1.79-3.53.55-5.56-3.64-2.23-4.68-6.06-6.89-7.79-9.74-.07-.12-2.16-3.87-2.26-3.76a12.6,12.6,0,0,0,1,2c1.7,3,1.16,2.35,4.41,5.72,9.63,10.11,3,9.1,1.24,5.72-.94-1.83.07,2.91,4.31,2.69a19.51,19.51,0,0,1-11.35-3c-2.67-1.78-6-.87-2.75-.51,1.89.21,3.37,1.57,4,1.89,1,.5-5.09-1-5.88-2S46.87,77.05,47.29,77.18Zm28.77,46.18a2.86,2.86,0,0,1-.32.78C75.12,124.9,78.61,114.08,76.06,123.36Zm3.14-5.45c0,.07,0-2.21.08-2.3A7.35,7.35,0,0,1,79.2,117.91ZM98.93,32.67a.49.49,0,0,1,.69.08C99.86,33,98.74,32.82,98.93,32.67ZM74.34,52.73c.19.13,2,1.41,1.81,1.4C75.45,54.09,73.17,51.93,74.34,52.73Zm-5.25,32.4a8.24,8.24,0,0,0-2.36-.36c-1.08-.27-3.17-4.06-1.9-3.54a47.43,47.43,0,0,1,4.11,3C71.8,84.43,70.61,86.31,69.09,85.13ZM71.72,87c-.5-.84,3.21.57,1.59.81S72.43,88.17,71.72,87Zm-.37,9.26c-.75-.18.3-.5.74-.38S72.16,96.43,71.36,96.25Zm2-.37a3.49,3.49,0,0,1,1,.09C76.42,96.4,69.64,96.84,73.35,95.88Zm4.94,4.53a25.82,25.82,0,0,1-2.5,3.54c-.23.36.25-1.21,1.57-3.06C78.18,99.73,78.93,99,78.29,100.41ZM76,107.2c-.39,1.39-3,5.19-1.82,3,0,0,1-4.92,1.6-5.87C78.67,99.68,76.51,105.3,76,107.2Zm-.74-6s3.29-2.09,2.64-1.55c-2.64,2.24-2.24,8.06-7,8.82-.52.08-.49.32.45-2.48S73.05,101.23,75.24,101.19Zm-6.68,7c-.39-.12-.82-.14-.26-1.08s3.92-4.26,2.87-1.12C70.19,109,70.76,108.61,68.55,108.23Zm2.35.46c.58-.09.77-.29.13.27C69.74,110.1,70.47,108.76,70.91,108.69Zm1.2,4.31c-.83,2-1,3.3-1.66,3.82-.35.29-.4-3.23.16-3.57C74.23,111.05,72.54,112,72.11,113ZM71,112.8c-.63.38-.85.62-.7-2.45.06-1.27,3.36-2.54,4.41-4.28.21-.33.39-.67.05.46C73.39,111,74.54,110.58,71,112.8ZM77,107.93a4.32,4.32,0,0,1,.51-1.08C77.94,106.33,76.76,108.85,77,107.93Zm2.17-5.11s-.37,1.32-.39,1.37c-.38,1.38-.18,1-1,2-1.37,1.83-1,3-2.26,4.26-1.68,1.67-2.52,1.61-2,1.1a32.21,32.21,0,0,0,2.25-3c.44-.59,4-15.46,4.41-7.34C80.19,101.61,79.44,102.53,79.21,102.82Zm-3-6.78c-1.29,0,2.46-.5,4.21-2.35.28-.3,2-2,1.36-.48C81.41,94,76.78,96.06,76.17,96Zm4.54,3.84c-.34-3.41,3.08-5.73,2.78-5C83.06,95.95,80.83,101,80.71,99.88Zm1.86-5.15c-3.29,3.45,1.26-1.5,1.49-1.86C85.31,90.89,85.08,92.52,82.57,94.74Zm-.75-.07c.74-1.63,4.47-4.12,1.72-1.58C82.22,94.3,81.18,96.08,81.82,94.66Zm3.55-3.87a8.51,8.51,0,0,0-1.74,1.35c-2,2-.44-.67-.18-1C83.82,90.64,85.67,90.46,85.37,90.79Zm0-.43c-.85.16-2,.35.85-1.32C86.7,88.75,86,90.25,85.35,90.36Zm-2.16-6.15A4.5,4.5,0,0,1,82.73,86c-.19.2-2.36-.39-2.37-.35s2,.71,1.82.91-3.6.36-3.53-.1c0-.17.25-.41.43-.86.32-.8.34-1.21.47-1s.33,0,.12-.28c-.5-.72,1.79-3,2.65-5.53.3-.89.11-1.09.68,2.18.46,2.64.45,2.66.18,3S83.09,84.32,83.19,84.21Zm1.86-19a3.16,3.16,0,0,1,2.09-1c1.51-.2,1.73-.52-.16,1.25l-3,5.48c-.31.76-2.1,1.46-3,1.68-2.48.59-1.11-.21,0-1.37s1.16-1.64,1.49-3.11C82.93,65.92,84.19,65.94,85.06,65.19Zm-2.18,1C83,65.4,85,64.5,85.5,64.43S82.82,66.41,82.88,66.16ZM83,62.07c.08.08-.39,0-.49,0-.31,0-.15-.78.05-1.12s.33.41.5.57S83,62,83,62.07Zm4.14-7.54c-.08.13.08.3.18.13s.25.3.47.83c.5,1.2-2.69-1.52-2.45-1.58A7,7,0,0,1,87.13,54.53Zm-.59-1.22c.33-.32.85.86.16.56S86.08,53.75,86.54,53.31ZM97,48.37c-.21.12-.43-.11-.71-.37-.61-.56.62-.62,1.15-.68C99.21,47,99.55,46.93,97,48.37Zm0-2.76a1.9,1.9,0,0,0,.67.23c.94,0,.76-.12,1,.47C99.22,47.59,97.37,45.85,97,45.61Zm4.77-3c-.16-.28,0-.17.31.23C102.63,43.56,102.56,44.07,101.73,42.62Zm-2.19.57c-.53-.72,2,.08,2.19.45S100.19,44.08,99.54,43.2Zm.68-3c-.21-.53.93,0,1.31.2a10.9,10.9,0,0,1,2.26,3.12C102.65,43.84,100.38,40.56,100.22,40.16Zm-1.38-.78c-.18.21-.85-1.11-1-1.37C97.32,36.77,99.08,39.11,98.84,39.38Zm-1.51-3c-.14-.4,1.06,1.26.66.93A3.29,3.29,0,0,1,97.34,36.41Zm1.14,1.76c-.18-.34.18-.14.37.12S99.12,39.36,98.47,38.17Zm1.86-.46c.93.21-.22.34-.62.75S97.52,37.08,100.33,37.71Zm2.18,18.64.48.26c.82.44-3,1.3-4.94,2.85-1.74,1.42-1.18.64-3.37-2.26-.93-1.23-.94-1.26-.52-1.17a33.27,33.27,0,0,0,6.44-.49c1-.82.9-.7,1.51.22.12.18,0,.32-.16.31s-.38,0-.39.1S102.42,56.26,102.51,56.35Zm4.91,1.35c1.23.07-15.6,4.42-7.55.89C105.5,56.12,101.89,57.37,107.42,57.7Zm-3.85-1.33c.77,0,.22.39-.24.15C103.15,56.43,103.26,56.36,103.57,56.38ZM105.82,62c.55-.8.61-.64.17,0S105.28,62.83,105.82,62Zm-.16,2c.22-.3.85-.37.21.22S105.41,64.38,105.66,64Zm-.16,4.4c.19.09.32.21.28.27a23.51,23.51,0,0,1-2.63,2C102.74,70.7,105,68.19,105.51,68.44Zm0-.49c3-3.11,1.65-1.24.71.17C105.92,68.5,105.27,68.15,105.46,67.95Zm.54-5.46c-.41.55.51-1,.77-1.3.08-.1,1.45-.39,1.49-.24S106.11,62.34,106,62.49Zm1.61-1.76c-.73.16-.65.16-.11-.29C108.28,59.79,108.36,60.57,107.61,60.73Zm.25-1.1c-1.37.71-2.46,3.07-3.19,3.24-3.94.38-7.75-1-6.73-1.19C98.8,61.54,108.52,59.29,107.86,59.63ZM87.23,58.09c.12.14-.19.17-.35.2s-.52.56-.71.39S87.1,57.94,87.23,58.09ZM85.35,58c-2.84-2.25,1.15-.77,1.4-.48S86.16,58.65,85.35,58Zm.75,1.19c.21-.17,1.06.67.1.54S85.76,59.42,86.09,59.2Zm3,1.35c.38.88-1.85-.86-2.13-1.12C85.71,58.25,87.95,57.86,89.1,60.54Zm-1.34-2.75c.3.16.07.55-.24.19C87.36,57.8,87.6,57.7,87.76,57.79ZM93,49.23c-.11-.66,1.16.69.28.59C93.21,49.82,93.09,49.55,93,49.23Zm-.51,1.14c-.75-.67.39-.74.54.11C93.11,50.73,92.87,50.68,92.53,50.38ZM94,50.15s.3.38.59.77c.95,1.27-1,1.6-1.33-.31C93.11,49.69,93.62,50.31,94,50.15Zm10.15-4.74c.33.38-.13.1-.67,0C102.8,45.23,101.61,42.53,104.16,45.41Zm-.27-1.61c.4-.12.44,0,.54.25.39.84,1.84,2.6.47,1.78C104.7,45.71,103.44,43.94,103.89,43.81Zm-.26,2.6,2.53.57c.57.06.42,1,.66,1.31,1,1.12-1.1,1.51-1.91-.24C104.35,46.83,101.29,44.6,103.63,46.4Zm4.18,2.53a2.4,2.4,0,0,1-1-1.2C106.76,47.42,108.47,49.18,107.8,48.94Zm-3.08.9c-2.7,2.28-2.78,2.22-3.39,1.06-1.63-3.16-1.6-2.22-.13-2.85,1.31-.56,2.44-.8,3.45.29C106.5,50.3,105.6,49.1,104.72,49.83Zm-8.37,5.64c-.89-.56-3.61.31,0-.88C104.93,51.78,97.92,56.45,96.36,55.47Zm4.59-.51a4,4,0,0,1-1.59.49C97.63,55.67,102.61,53.54,100.94,55Zm-6.36.88c-.41-.09.89-.64,1.54-.23C96.35,55.76,94.86,55.9,94.58,55.84ZM97,52.24c-2.47.17-.63-1.51,1.18-.52C98.53,51.9,99.19,52.09,97,52.24Zm1.47.46c-.66-.13-1.77.06-1.13-.14C98.43,52.24,99,52.79,98.49,52.7Zm-2-.19c.45,0,0,.51-1.28,0-.42-.17-.57-.37-.34-.46C95.68,51.76,95.68,52.57,96.5,52.51Zm0,.48a7,7,0,0,1,2.29,0C100.26,53.28,96.12,53.42,96.52,53ZM100,53a6.1,6.1,0,0,0-.85-.43c-2.14-1,1.41.32,2.25-.15C102.73,51.69,100.34,53.38,100,53Zm-.19-4.92a2.92,2.92,0,0,1-.34-.56c0-.09,1,.13,1.07.14C101.55,47.84,100.83,48,99.78,48.13Zm-1.12.09c-1.51.13.45-.89.58-.61C99.43,48.06,99.71,48.13,98.66,48.22Zm1.3.62c.31.49.17.39,0,.25s-3.55.29-2.62-.41C97.6,48.44,99.6,48.27,100,48.84Zm-2,.58a5.53,5.53,0,0,1,2.19.14c.35.23,1.65,2.37,1.33,2.55-1.64.92-3.33-1.45-5.38-.74-.88.31-2.38-1.11-.6-1.81C98,48.57,97,49.45,98,49.42Zm-3.1,3.5c-.8.09-.92.34.23.21.36,0,1.18-.2.9.1s-.06.37.16.14,1,.15,1.22.24,2.27-.38.4.23c-5,1.61-3.81,2-5.46.59-.45-.39-.57-.66.16-1.25C94.34,51.71,95.54,52.85,94.88,52.92Zm-.23,7.68c0,.35-.48,0-.68-.21s1-.1.73-.05C94.67,60.34,94.65,60.46,94.65,60.6Zm-.08-.94c.07.27-1.21.11-1.38-.06C90,56.4,94.44,59.2,94.56,59.66Zm-1.87,0A6.15,6.15,0,0,1,91.37,59s.07-.17.2-.31c.3-.34.29-.25.63.23C92.37,59.09,92.93,59.7,92.69,59.67Zm2-.35c0-.07-2.1-1.34-2.15-1.37-.35-.17.88-3,3.25,1.45.56,1,.61.88-.27.66S94.74,59.63,94.66,59.32ZM92.79,57c-.93,1.06-1.18.85-.29,0S93.67,56,92.79,57Zm-.89,0c-.55.54-.91.09-.06-.25S92.47,56.46,91.89,57ZM91,59.52c1.5.88,1.51.36,2.36.84s1.44,1,.22.66a12.34,12.34,0,0,1-1.9-.2c-1-.25-2.24.57-1.78-.17C90,60.46,90.8,59.41,91,59.52Zm1.86,2.38a3.61,3.61,0,0,0-1.08.5c-.46,0-.85-.32.2-.43S93.29,61.88,92.82,61.9Zm-2.27-.21c-.38-.07-.74-.38,0-.25C91.14,61.54,90.75,61.73,90.55,61.69Zm-1-1.12c-2.69-4.2,1.29-1.83.67-.84C90.13,59.85,89.6,60.68,89.53,60.58Zm1.05-3.06c-.33-.61.75,0,.6.19A.41.41,0,0,1,90.58,57.51Zm-.5.88c-.22-.16-.19-.31.07-.34C91.16,57.93,90.6,58.76,90.08,58.4Zm-.77-.68c-.11-.14-.3-.15.39-.26C91.3,57.22,89.69,58.22,89.31,57.72Zm.18-.65c-.15,0-.45.15-.57,0-.28-.25-2-3.55-.5-1.8C88.67,55.6,90.47,56.81,89.48,57.07Zm-.65.68c.17.2.2.17-.07.2C87.47,58.19,88.44,57.31,88.83,57.75Zm.91,4c.49.35.57.12-.13,1-.53.64-2.51,1-1.68,0C88.39,62.23,89.26,61.41,89.75,61.75Zm.87.6c.66.48,1.26.51-.75.81C89.6,63.19,90.5,62.27,90.61,62.35Zm6.24.76c1.4.21-1.63,3.38-1.09,3.07-2.24,1.28-.43,1.2-3.64,1.57-1.8.42-2.48.6-3.22.33-1.05-.39,0,.44.42.4,4.91-.32,4.33-1.67,3.81.74-.19.89-.18,1-1.15,1-4.93-.37,3.3-.06-1.28,1.59a16.53,16.53,0,0,1-3.18-.42,6.38,6.38,0,0,0,3.21.64c1.88-.68,1.67-1.48,1,.64-.26.8-.1.87.15.09.33-1,.54-1.5,1.44-1.67.46-.08.8-.18.68.19-.39,1.1-1.62,4.59-1.93,5.26-.52,1.08-.78.64-1.37,1.93s-.11.18-2.18,2.44c-1.2,1.31-3.89,2.46-3.7,1C85.84,73.89,84.08,61.18,96.86,63.11ZM99,64.32c.85-.06-.26,0-1.57.89S96.1,66,97,64.74,97.72,64.41,99,64.32Zm-.1-.83c1.63.85-.56.64-.87.42C97.52,63.56,98.58,63.32,98.92,63.5Zm-5.84,6.59c.28-.56.14-1.67,1.37-2.65,1.56-1.23,1.29-1.35,0,2.59C94.25,70.51,92.92,70.41,93.08,70.09Zm-.31.62c.17-.35.18-.23.82-.13C94.4,70.7,92.68,70.9,92.77,70.7ZM91,78.26a5.47,5.47,0,0,1,1-1.05c2.25-4.68,1.79-6.49,2.33-3.68.42,2.17-.85,3.42-2.76,4.79C90.7,78.92,90.73,78.89,91,78.26Zm3.35-7.16c.21-.67,1.52.3,1,1.42a11,11,0,0,0-.58,1.22C94.53,74.26,94.18,71.69,94.37,71.1Zm.5-.33c1.68,0,2.58-1.32,1.11.46C95.82,71.42,94.75,70.77,94.87,70.77Zm-.16-.26c-.19,0,0-.58.09-.83,1.08-3.35,1.17-3.37,2.71-4.25a5.26,5.26,0,0,1,3.89-.93c1.65.37,1.67,0,.28,1.1C99.87,67,97.85,71,94.71,70.51Zm9.47-13.86c.78-.5,1.75,0,3.76.77C108.29,57.59,103,57.42,104.18,56.65Zm-3.48-2.95c-.51-.47,1.53-.79,2.15-.27.25.21,2.09,0,.75.14C100.93,53.93,101.45,54.39,100.7,53.71ZM104,53.1c-.38-.13,1.13-.37.93-.22C104.37,53.28,104.44,53.26,104,53.1Zm-1.38-1.31c1.43-.81,3-2.82,3.85-1.57.75,1.07,6,2.61.6,2.23C106.57,52.4,100.06,53.2,102.57,51.78Zm4.32-2.4c.65-.21,1.29-.3,1.59.45.2.5,1.61,2.59,1.48,2.49C107.25,50.26,105.51,49.84,106.9,49.38Zm1.79.45c-.21-.54.83.55,1.8.84s1.26,1.12,1.56,2.08C112.3,53.56,109.73,52.49,108.68,49.83Zm-1.12-1.77c-1.07-1.33,1.5-.92,1.71-.58a18.33,18.33,0,0,0,1.52,2.71C111.57,51.13,109.23,50.14,107.56,48.06ZM106,46.16c0-.06-.59-.88-.63-.95-1.15-1.73-.94-1.57-.47-1.73,1.83-.62,2.06.16,3.28,2.18C108.77,46.65,106.25,46.45,106,46.16Zm-1.64-2.85s-1.33-2-1.87-2.74c-1.51-2-1.84-3,.73-2.16,1.25.39,1.63,2.89,1.89,3.16C107.06,43.63,106.63,42.61,104.36,43.31Zm-2-2.56a14.21,14.21,0,0,1,.95,1.34C103.94,43.09,102.22,40.68,102.37,40.75Zm-.62-.54c-1.31-.6-3.22-1.39-1.31-1.92C101,38.14,102,40.34,101.75,40.21Zm-2.45-.87c-.17-.22.13-.54.54.47C100.1,40.44,100,40.29,99.3,39.34Zm1.22,2.34c-.19.42-1.83-1.82-1.57-2.13S100.7,41.29,100.52,41.68Zm4.05,6.25c-1-1.11-9.24.41-2.36-2C103,45.67,105.18,48.58,104.58,47.93Zm-5.41-1.24c-.06,0-.19-.18-.3-.42C98.51,45.47,104.51,45.76,99.16,46.69Zm-4.07,2.77c-1.14.45-2.16-.8-2.25-1.37-.07-.4,1.44-.38,2.16-.47C95.44,47.56,97.48,48.52,95.09,49.46Zm-2.81-.14c-.86-.55-.82-1,.14-1.41C92.77,47.77,93.13,49.86,92.28,49.32Zm-.7-.11s.19.06.42.2C92.51,49.75,91.51,49.65,91.58,49.21Zm.79-1.61-.35.14c-.19.07.19-.69.34-.87S92.62,47.49,92.37,47.6Zm-1.08.64a.82.82,0,0,1-1-.16S91.55,47,92,46.48C92.93,45.69,91.63,47.94,91.29,48.24Zm-.05,1c-.11-.1-.28-.2-.17-.3C91.33,48.67,91.63,49.58,91.24,49.23Zm.33,1.58c0-1.23,1.39.11,2,.92s-.09.45-.4.7c-1.78,1.42-1.18,1.34-3-.26-.95-.85-1.3-.7-.18-2C90.49,49.58,91.56,53.44,91.57,50.8Zm-.89,2.5a5.88,5.88,0,0,1-1.13-1.17C89.1,51.29,93.44,55.59,90.68,53.31Zm-1.33-1.05c1.18,2.24,5.89,3.3,2.06,4.31-.9.24-2.9-1.53-3.42-2.16,0,0-.42-.12-.44-.17A25.6,25.6,0,0,1,89,51.72,5.4,5.4,0,0,1,89.35,52.25Zm-1.21.49c-.93,1.64-1.41.38-.34-.66S89,51.23,88.14,52.74Zm-1.57,4.05a22.93,22.93,0,0,1-2.3-2.65C85.11,53.36,91.55,59.46,86.57,56.79Zm-.8-.12c-.72-.1-3.33-.82-3-1.1l.64-.59C84.21,54.2,86.2,56.74,85.77,56.67Zm-3.31-1.35c-.94-1.09.71-1.34,1.07-1.19S82.59,55.47,82.46,55.32Zm-.32.23c-.74-.28-.73-1,.11,0C82.28,55.54,82.25,55.59,82.14,55.55Zm-.07-1.25c-.29.29-1-.57,0-.45S82.47,53.9,82.08,54.3Zm-.85-.79c-.1,0-.67-.81-.73-.9-.23-.32-1.76,0-.66-1.24s.91.57,2.42,1.76C83.15,53.84,81.64,53.41,81.23,53.5Zm-.48.38c.37-.09,1,.77.85.89C81.11,55.27,80.41,54,80.75,53.89Zm0,1.31c-1.27.53-1.21-.62-1.9-.91l.74-.11C79.79,54.11,81.06,55,80.72,55.19Zm.7.37a1.08,1.08,0,0,1,.21.31s-1.42-.16-1.44-.17S81.13,55.21,81.42,55.56Zm.36.61c1.16.15,3.77,2.36,3.84,2.61s.81,0-.07.37c-1.36.62.31.64-2.75-.93C79.94,56.76,81.16,56.09,81.78,56.17Zm1,2.3c2.32,1.19,1.41.77,1.06,1-1.18.64-1,.73-1.29.09C82.07,58.52,81.3,57.71,82.79,58.47Zm.37,2.28c-.45-.92,1.76-1.52,1.12-.48a4.75,4.75,0,0,1-.78.66C83.38,61.18,83.29,61,83.16,60.76Zm.81.41c1-1.66,1.22-1.29,2.47-1C93.17,61.82,82.56,63.49,84,61.17Zm.45,1.29c1.06-.06,1.27.69,2.91,0,1-.41.7-.16.19.44C86.78,63.83,83.64,62.5,84.43,62.45Zm3.66,1.14c.08,0,0,.14-.64.23C86.6,63.94,87,63.57,88.09,63.59Zm1.9.11c.36-.05-2.21,1.5-2.54,2.27-1.92,4.61-1.77,4.46-2.68,5.29-.72.65-1,2-2,5.67a34.39,34.39,0,0,1-3.36,6.84c0,.1-.19-.13-.19-.19C79.3,80.48,86.72,64.19,90,63.71ZM79.17,84.43c0-.67.27-.2-.14.82l0,0A3.2,3.2,0,0,0,79.17,84.43ZM83,76.65c4.29-15.14,1.72,6.26,1.12,6.47a1.24,1.24,0,0,0-.55.31C83.69,82.88,82.4,78.81,83,76.65Zm1.39,6.68c0,.08-1,2-1.16,2.12a3.88,3.88,0,0,1,.44-1.78C83.94,83.38,84.41,83.27,84.4,83.33Zm-.51,1.37c1.16-2.16-1.13,2.64-.87,1.41A16.16,16.16,0,0,0,83.89,84.7Zm.5-.14c.23-1.52,0-1.29,1.52-1.8s-.5,1.49-1.27,2.33C82,87.46,84.28,85.28,84.39,84.56Zm3.24-1.07c.44-.48,3-3.32,2.43-2.51C84,89.07,82.93,88.62,87.63,83.49ZM87,88.12c-.22.39-3.23,2.62-1.91.88C86.18,87.55,87.19,87.73,87,88.12Zm-.41-.48c-.43,0-.26-.26.18-.84.26-.33,4.58-5.8,2.72-3.24C88.65,84.7,87.67,87.68,86.57,87.64Zm2.34.09c1.78-.8,2.87-1.86,3.49-1.48.12.07.81.66.7.74C84.34,92.59,88.16,88.06,88.9,87.73Zm4.78,0c.1.15.15.29.11.31C92.71,88.54,93.46,87.38,93.68,87.71Zm.08-1.33c-.22.47-.43.42-.74.1s-.55-.42-.29-.49c.1,0,1.17,0,1.15.08A2.1,2.1,0,0,1,93.75,86.38Zm.4-1c.07-.61.24-1.16.23-.24S94.09,86,94.16,85.37Zm.46-2.59c0,.09-.21.91-.21,1A7.85,7.85,0,0,0,94,85.34c-.07.61-1.46.7-2.94-.21-.11,0-.85-.44-.9-.29s.72.47.82.52c.32.2,1.05.58.55.7,0,0-.44.1-.47.12a6.55,6.55,0,0,1-2.39,1.41c-.37.17-.34.26.4-1.08l.64-1.16c-.05,1.15.32,1.82.24.61A2.16,2.16,0,0,1,90,84.69C90.4,84,93.51,80,93.26,80.3c.92-1.22-.55,3-.69,2.81.08.1.64-.79.72-.9.24-.36.63-3.55,1-2.92.07.11-.26.41-.18.53s.12,0,.2-.1.26,0,.41.24C95.38,80.93,94.83,81.8,94.62,82.78ZM95,79.45c0,.31-.07.42-.19.24C94.55,79.26,95,78.7,95,79.45Zm1.41-5.74L95.09,75c-.3.3-.45-.56-.24-1.07C96.22,70.6,97.82,72.3,96.42,73.7Zm2.2,1.22c.83-.82,1.77-1.42,2.11-1.33a1.81,1.81,0,0,1,.59.22C101.27,73.93,96.4,77.13,98.61,74.92Zm2.24-1.53c-.67-.18.68-1.38,1.15-1.85,0,0,.28-.31.26-.24C102,72,101.53,73.57,100.86,73.39Zm1.26-5.7c-.4.12-1.35,1.48-.36.58.3-.27-3.68,4.4-4.9,3.68-2.06-1.22.93-.89,3.51-4.84a10.31,10.31,0,0,1,4.48-3C105.3,64,103.26,67.37,102.12,67.7Zm1.19,5c-.4.12-1.06.79-.75-.28s.34-1.49.66-1.49,1.86-1.67,1.38-.74c-1.9,3.65.37-.43.87-.8C107.78,67.7,105.71,72,103.32,72.7Zm3.4-3.95c-1.18-.37,1-2.61,2.06-3.5C110.6,63.74,106.77,68.78,106.71,68.76ZM110.2,57c-1.74.57-1.84.38-2.19.22-.85-.33-1.86-.68-.36-.61C109.71,56.67,112.21,56.31,110.2,57Zm-2.89-.64c-9.94-.48-3.77-3.08-2.6-2.68a7.42,7.42,0,0,0,2.5.47c.1,0-4.17.59-4.17.71a48.66,48.66,0,0,1,4.93-.31C108.27,54.75,116.05,56.75,107.31,56.33Zm5,0c-.23.08-.41-.13-.57-.36C111.39,55.49,113.31,55.95,112.27,56.29Zm1.44-1c-1.78.76-2.79-.58-3.21-.66-9.62-1.88-3.79-1.62-2.29-2C110.14,52.13,114.25,55.08,113.71,55.31Zm.78-.33c-.6.26-1.07-.39-.62-.1S115.52,54.54,114.49,55Zm2.41-1.58c.16.34.35.56-.42,1s-.52.44-1.62.15c-2.5-.66-2.56-1.8-3-3.37-.37-1.31-5.27-5.24.56-2.79C114.38,49.19,114.64,49.54,116.91,53.4Zm-6.73-10c.9.5,1.27.86,1.5,1.42a23.16,23.16,0,0,0,2.18,3.07c.35.68-2.52-1.15-4.15-1.33-.95-.1-1.34-1.1-2.72-3.18A15.09,15.09,0,0,1,110.18,43.44Zm-2.52-2.1c.69.53,2.44,1.65.59,1.65-1.41,0-2,.26-2.53-2.19C105.44,39.35,107,40.79,107.66,41.33Zm-6.42-8.54c.85.65.27.39-.66.28C99.06,32.83,100.43,32.17,101.24,32.8Zm-.69.51c.8.1,1.19.12,1.47.78s5.9,7.79,1.32,2.83C102.23,35.47,100.35,33.28,100.55,33.31Zm1.3,3.74c3.68-.44,5,8.79,2.58,2.15C103.71,37.31,97.66,37.55,101.85,37.05Zm-3-1.36c1.38,1.2,1.53,1.8,1.37,1.76-4.17-.93-2.29-2-3.87-3.08C95.79,34,96.47,33.2,98.88,35.69Zm-4-2c.18.12.22.22.08.23-.85,0,.68.27,1.14.58,1.08.72,1.53,3.75.78,1.6,0-.11-3-2.65-3.08-2.66C93.6,33.44,94.4,33.38,94.93,33.73Zm-5.77,1.11c.27-.32.49-.28.71,0s.2.35.16.37S89,35,89.16,34.83Zm.93,0c-.3-.46.07-.64.37-.15S90.4,35.25,90.09,34.79Zm1.11-.94c1.79-.79,3.84.49,2.47.12a13.83,13.83,0,0,0-1.89.62C90.53,35.06,90.19,34.29,91.2,33.85ZM91.27,36a10,10,0,0,0,1,1.43C91.24,37.5,89.85,33.63,91.27,36Zm.93.92c-1.77-1.65-.56-2.09,1-2.53s4.81,2.77,3.14,2.07c-.31-.13-.57-.18-.59-.12-.08.28,1.08.42-.06.4-1.74,0-.81.62-2.41.68C92.55,37.42,92.77,37.43,92.2,36.91Zm1,1.08c-.5.44-.68-.29-.08-.31C93.38,37.67,93.41,37.81,93.2,38Zm-1,1.13c.42-.33.38-.68,1.65.92C95.69,42.32,91.73,39.52,92.23,39.12Zm2,1c-.71-.89-1.06-1.8-.78-2,1.79-1.57,3.58-1,3.73-.61,0,.12-1.6.76-.35.44.25-.07.84,1,1.32,2.33C98.94,42.6,97.4,44.14,94.21,40.13Zm4.19.21c-1.58-4.53.3,0,.09-.39,1.21,2,4.83,3.87,1.44,2.69C99.54,42.51,99.43,43.28,98.4,40.34Zm3.88,4.42c.48,1-3.26,2-5.81-1.41C95.83,42.51,102.09,44.38,102.28,44.76ZM96,43.42c.37-.29.64,1.08.94,1.26,1.91,1.16.87,1,.22.67C96.71,45.1,95.75,43.65,96,43.42Zm-1.17.93c.33-.27.85-.77,1.07-.31.59,1.26.94,1-.86.87C94.17,44.84,94.56,44.61,94.87,44.35Zm-1,.82c.19-.15,1.62,0,1.17.14-1,.4.59-.25,1.85.5,2,1.19,1.35,1.07-.48,1.29-1.29.16-3.2-1.57-1.83-.32.56.51.32.51,0,.54-.7,0-2.92.39-1.49-1.36C93.73,45.2,93.64,45.36,93.87,45.17Zm-.29-.09s-.84.5-1,.61-.19-.07-.23-.31C92.29,44.85,93.74,44.88,93.58,45.09Zm-3,2.36c-.72.47-.76.25-1.16-.87C88.7,44.46,95.33,44.38,90.61,47.44Zm-1,.12c.1.27.44.54,0,.36C87.81,47.13,88.34,44,89.61,47.57Zm.27,1.62a2.49,2.49,0,0,1-1.1-.64C90.06,47.48,91.48,49.58,89.88,49.19ZM89,49c.69.52,1.33.32.49,1.13s-1.23-.28-1.67-.54C87.54,49.44,88.48,48.63,89,49Zm-.72,1.41c1.17,1.49-.87-.69-.86-.71C87.56,49.56,88.11,50.24,88.24,50.41Zm-1.31-.94a2.19,2.19,0,0,1-1.51-.7C85.32,48.61,86.44,49.21,86.93,49.46Zm-.35.24c.42.08,2.16,1.12,1.08,2.16-.86.83-.9.42-1,.07C84,46.5,85.08,49.44,86.58,49.71Zm-.18,2.42c.62,1.51-1.41,1.59-2.68,1.46-.76-.08-5.58-3.13-.7-4.65C85,48.31,84.32,47.9,86.4,52.13Zm-5.86-6.42c.37.09,1.25.74.53.39C80.72,45.93,79.51,45.46,80.54,45.71Zm-3.41-.47c.36.22.12.2-1.06-.33C75.17,44.5,75.39,44.17,77.14,45.24ZM74,44.71c-.19-.36-.56-1-.19-.87C76.87,44.65,74.74,46.15,74,44.71ZM74.66,46c-.55-1.06,4.8-.22,2.54-.12a17.09,17.09,0,0,0-2.33.41C74.87,46.34,74.77,46.21,74.66,46Zm.29.56,3.68-.77c1.29,0,3.43,1.1,3.92,1.3,2.76,1.08,1.42,1.31-1,2.06-.52.16-.86,2.34-2.52-.89-.38-.74-.78-.64.66,1.5C80.64,51.09,78.81,54,75,46.55Zm3.42,6.77c.68-1.53.73-.88,1.11-.75,1.93.64,1.23,1.71.35.61-.59-.74-.7-.47-.21.14s.26.64-.33.23-.61-.11-.23.16-.33.13-.63.37S78.08,54,78.37,53.32ZM78,54.73c.82-.67.84,0,1.33.48s-.43.26-.95.19-.56.17-.56.17C77.61,55.56,77.52,55.13,78,54.73Zm.65,1.17c-.41.37-1,0-.55,0C78.18,55.86,78.71,55.85,78.65,55.9Zm-1.16-1.06s-.12-.08-.23-.22C76.9,54.19,78.25,54.09,77.49,54.85Zm-5.2,6.22c-.38.1-.64.17-.39-.38,1.54-3.42.93-2.28,1.88-.9C74.29,60.54,74.44,60.27,72.29,61.06Zm1.94-1c0-.07-.77-1.44-.82-1.59-.12-.35,1.35-2.27,2.48-2.45.26,0,1.67-.26,1.81,0A50.58,50.58,0,0,1,74.22,60.08Zm1,1.13c-.25-.29-.81-.8-.43-1.24,1.61-1.91,1.23-1.8,2.34-2.82,1.32-1.21,1-1-.79,2.76C76,60.49,76.38,62.57,75.18,61.2Zm.89,1.46.6.31C77.17,63.22,76.05,63.79,76.07,62.66Zm2.32-.15a1.73,1.73,0,0,1-1.65.21c-1.58-.77,1.11-6.31,1.58-5.28,2.49,5.45,3.08,4.37.36,4.84A2.68,2.68,0,0,0,78.39,62.51Zm2.18-.31c.24,0,.22-.28.59-.15S75.67,63,80.57,62.2ZM79.3,59c-1-2.2-1.41-2.57-.22-2.92a1.13,1.13,0,0,1,1.14.3c.18.15-1.15.87-1.13.94.05.24,1.43-.68,1.52-.61a17.46,17.46,0,0,1,1.27,2.4c.82,1.8.67,1.71-.21,2.22S79.77,60,79.3,59Zm2.48,2.52c.25-.15.42-.09.36.12C82,62.14,81.16,61.87,81.78,61.5Zm-.19,3.33c.68-3.09.48-2.2,1.28-2.27.17,0-.26,2.35-.14,2.37s.42-2.39.69-2.42c.74-.07.58.24,1.41.69s2.23.27,1.81.56c-.22.15-3,.85-3.26,1.21-1,1.32-.9,2-3.39,2C79.66,67,81.44,65.55,81.59,64.83Zm-4.51,8.41c.07-.6,1.74-6.2,3.44-5.94.92.14,2.11-1.2,1.65.85-.72,3.23-1.5,2.34-3.28,4.92A8.14,8.14,0,0,1,77.09,73.25Zm2,9.51c-.11.81-4.56-2-.32-8.93.47-.72,3.61-1,3.91-1.26C85.28,70.31,79.62,78.49,79.06,82.76Zm-2.95,5.6a8.92,8.92,0,0,1,1.75-.06c-.09.45.38-.45.29.06-.3,1.83-.34.84-.28,2.1.08,1.73.16-.66.44-1.88,0-.25.05-.41.31-.43,2.27-.19,1.93.14.9,1.26-.41.45-.89,1.88-.19.68,1.23-2.13,3.17-2.52,2.83-1.7-.2.48-.08.65.19,0,.17-.42.3-.71.29-.26s.16.34.17,0c0-.62,3.43-2.22,1,.93a4.65,4.65,0,0,1-3.61,1.82c0,.24,2.32-.11,2.24,0a3.71,3.71,0,0,1-1.4,1.81c-1.32,1-1.14,1.52-3,2.15-3.18.89-6.1-6.47-5.7-6.58a20.33,20.33,0,0,1,2.44-.3C74.9,88,76,88.37,76.11,88.36Zm-9.84-6.53c3.21,1.31,2.38-.6,6.7,2.8C82.88,92.42,64.94,81.28,66.27,81.83Zm4,.11s-1.66.34-4.92-1C61.74,79.46,70.28,81.94,70.28,81.94Zm-7.57-1.37c.77-.06.52-.31,1.75,1.8,1.68,2.87,1.17,2.42-.61.33C61.85,80.35,61.77,80.65,62.71,80.57Z"/><path class="cls-10" d="M91.86,115.08c-8.4,20.27-41.65,19.47-43.7,13.63-.94-2.69,5.15-5.26,5.38-12.88.18-6-3.4-9.72-1.5-12.88,1.51-2.51,4.46-1.28,5.62-3.64,1.83-3.71-4.27-9.18-2.73-12.15,1.73-3.33,10.6,1.26,13.26-2.57,2.45-3.53-3.06-10.3-1.43-12.11,2.46-2.74,21.15,5.91,25.78,23.89C93.11,98.62,95.24,106.92,91.86,115.08Z"/><path class="cls-11" d="M86.23,114.77c-4.51,8.61-19.46,11.57-24.53,6.31-.67-.7-1.75-2.74-3.91-6.81-3.85-7.27-3.61-8.31-3.42-8.77,1.38-3.38,9.91-.51,11-3.33,1.26-3.29-9.06-10.59-8.1-12.46s10.12,4.55,13.37,1.25c3.48-3.54-2.7-15.23-1.54-15.93C70.94,73.89,93.71,100.51,86.23,114.77Z"/><path class="cls-5" d="M72.81,90.9l-.1-.12c20.22,18.66,49.46-9.91,31.19-30.55l.12.1C84,37.36,50,70.16,72.81,90.9ZM100,62.5c15.18,15.5-6.09,39-23,26.05C57.07,73.34,82.87,45,100,62.5Z"/><path class="cls-6" d="M72.8,91.88l-.1-.12c20.22,18.66,49.46-9.91,31.19-30.55l.12.1C84,38.34,50,71.14,72.8,91.88Zm28.15-27.31C114.69,81.15,92,102.64,76.13,88.89,57.12,72.45,85,45.38,100.95,64.58Z"/><path class="cls-7" d="M72.86,92c20.23,20.66,51.53-9.94,31.27-30.63S52.6,71.32,72.86,92Zm27.84-2.85c-16.47,16.13-40.9-8.78-24.41-24.93S117.19,73,100.7,89.15Z"/><path class="cls-8" d="M73.77,92.88c-18-20.58,11-49,31.21-30.57C84.76,39.14,51.2,72.32,73.77,92.88Z"/><path class="cls-8" d="M77,89.76c16,18.83,43.48-7.87,24.85-24.34C115.69,81.8,93,104,77,89.76Z"/><path class="cls-5" d="M86.46,74.91l-.12-.11C108.94,90.45,129.45,63,108.2,45.48l.13.08C84.93,26,61,57.54,86.46,74.91Zm18.66-27.16c17.3,13.09,3,35.52-15.38,24.81C68.19,60,85.6,33,105.12,47.75Z"/><path class="cls-6" d="M86.66,75.8l-.12-.11c22.61,15.65,43.11-11.79,21.86-29.33l.13.08C85.14,26.91,61.25,58.43,86.66,75.8Zm19.78-26.23c16.22,14.13.18,34.81-17.39,23.34C68,59.19,87.66,33.19,106.45,49.57Z"/><path class="cls-7" d="M86.74,75.9c23.06,17.45,45-11.94,21.91-29.4S63.66,58.43,86.74,75.9Zm24.87-4.18c-11.54,15.49-39.37-5.55-27.82-21S123.16,56.22,111.61,71.72Z"/><path class="cls-8" d="M87.77,76.64c-21-17.51-.68-44.77,21.87-29.35C86,27.58,62.59,59.42,87.77,76.64Z"/><path class="cls-8" d="M90,73.65c18.75,16,38.09-9.61,17.42-23.37C123.72,64.23,107.86,85.54,90,73.65Z"/><path class="cls-5" d="M70.94,73.15l-.09-.1c17,14,32.48-10.68,16.5-26.42l.1.08C69.87,29.16,51.83,57.56,70.94,73.15ZM85,48.68c13,11.75,2.19,32-11.62,22.35C57.21,59.76,70.36,35.43,85,48.68Z"/><path class="cls-6" d="M71.1,73.95l-.09-.1c17,14,32.48-10.68,16.5-26.42l.1.08C70,30,52,58.36,71.1,73.95ZM86,50.31c12.19,12.69.08,31.32-13.13,21C57.1,59,71.91,35.61,86,50.31Z"/><path class="cls-7" d="M71.16,74C88.5,89.7,105.06,63.23,87.7,47.55S53.8,58.36,71.16,74Zm18.73-3.8c-8.71,14-29.64-4.93-20.92-18.9S98.61,56.28,89.89,70.24Z"/><path class="cls-8" d="M71.93,74.7C56.16,59,71.49,34.42,88.45,48.26,70.7,30.56,53,59.25,71.93,74.7Z"/><path class="cls-8" d="M73.61,72c14.1,14.41,28.7-8.7,13.15-21.05C99,63.48,87,82.68,73.61,72Z"/><path class="cls-13" d="M88.19,120.51l.81,0a21.58,21.58,0,0,0,14.2-5.46,19.94,19.94,0,0,0,5.87-14,19.94,19.94,0,0,0,4.39-14.53A21.58,21.58,0,0,0,106,73.28l-.64-.49C94.11,64.37,78.46,71.42,73.71,75a20.59,20.59,0,0,0-5.45,6.65,25.79,25.79,0,0,0-3,8.36,20.59,20.59,0,0,0,0,8.6C66.59,104.43,74.16,119.84,88.19,120.51Z"/><path class="cls-14" d="M88.19,119.1l.77,0a20.45,20.45,0,0,0,13.46-5.18A18.89,18.89,0,0,0,108,100.68a18.89,18.89,0,0,0,4.16-13.77,20.45,20.45,0,0,0-7.08-12.56l-.61-.47c-10.65-8-25.48-1.3-30,2.11a19.51,19.51,0,0,0-5.16,6.3,24.44,24.44,0,0,0-2.85,7.93,19.51,19.51,0,0,0,0,8.15C67.72,103.87,74.9,118.47,88.19,119.1Z"/><path class="cls-13" d="M97,85.32c.54,1.62-1.2,2.63-.68,4.2.66,2,4.32,3.31,7,2.23,3.06-1.24,4.17-5.45,3.59-8.43-1-5.1-7.1-7.28-9.32-8.07-9-3.21-16.88,1.56-18.42,2.54-2.23,1.43-5.67,3.63-5.45,6.65a5.45,5.45,0,0,0,4.44,4.65c2.82.48,5.64-1.53,6-3.42.15-.94-.4-1.31-.12-2,.8-1.9,5.92-1.33,6.56-1.25C92.31,82.66,96.23,83.13,97,85.32Z"/><path class="cls-15" d="M101,85.21c-.79.24-3.46-.5-3.46-.5s1.81-2.11,2.6-2.34a1.49,1.49,0,0,1,.87,2.84Z"/><path class="cls-15" d="M99.63,89.87c-.69-.44-1.88-3-1.88-3s2.78,0,3.47.44a1.49,1.49,0,0,1-1.59,2.51Z"/><path class="cls-15" d="M98.69,81.34C98.2,82,95.6,83,95.6,83s.22-2.77.71-3.43a1.49,1.49,0,0,1,2.38,1.78Z"/><path class="cls-15" d="M95,79c-.08.82-1.79,3-1.79,3S92,79.56,92,78.75A1.49,1.49,0,0,1,95,79Z"/><path class="cls-15" d="M90.65,78.28c.2.8-.65,3.44-.65,3.44s-2-1.9-2.23-2.7a1.49,1.49,0,0,1,2.88-.74Z"/><path class="cls-15" d="M86.26,78.92a9.05,9.05,0,0,1,.55,2.71,9.05,9.05,0,0,1-2.43-1.31,1.17,1.17,0,0,1,1.89-1.4Z"/><path class="cls-15" d="M82.51,80.21A9.05,9.05,0,0,1,84,82.55a9.05,9.05,0,0,1-2.74-.38,1.17,1.17,0,0,1,1.28-2Z"/><path class="cls-15" d="M80.72,83.7a7.16,7.16,0,0,1,1.87,1.13,7.16,7.16,0,0,1-2.07.71.93.93,0,0,1,.2-1.85Z"/><path class="cls-13" d="M89.49,106.06c1.45-.91.75-2.79,2.15-3.67,1.75-1.09,5.44.2,6.8,2.72,1.57,2.9-.25,6.86-2.61,8.79-4,3.29-10.11,1.09-12.33.29-9-3.24-12-12-12.58-13.69-.81-2.52-2.06-6.41,0-8.6a5.45,5.45,0,0,1,6.38-.76c2.48,1.42,3.37,4.78,2.41,6.42-.48.82-1.15.76-1.36,1.46-.6,2,3.72,4.8,4.26,5.14C84.22,105.16,87.54,107.29,89.49,106.06Z"/><path class="cls-15" d="M92.58,108.76c-.45-.68-3-1.82-3-1.82s.06,2.78.51,3.46a1.49,1.49,0,1,0,2.48-1.64Z"/><path class="cls-15" d="M94.45,104.26c-.81-.1-3.33,1.08-3.33,1.08s2.14,1.77,3,1.87a1.49,1.49,0,0,0,.37-3Z"/><path class="cls-15" d="M88.3,110.24c0-.82-1.33-3.24-1.33-3.24s-1.6,2.27-1.64,3.09a1.49,1.49,0,1,0,3,.14Z"/><path class="cls-15" d="M84,109.67c.46-.68.54-3.46.54-3.46s-2.54,1.11-3,1.79A1.49,1.49,0,1,0,84,109.67Z"/><path class="cls-15" d="M80.15,107.48c.66-.48,1.69-3.07,1.69-3.07s-2.77.18-3.44.66a1.49,1.49,0,0,0,1.75,2.4Z"/><path class="cls-15" d="M77.17,104.18a9.05,9.05,0,0,0,2.15-1.74,9.05,9.05,0,0,0-2.71-.54,1.17,1.17,0,1,0,.56,2.28Z"/><path class="cls-15" d="M75.1,100.8a9.06,9.06,0,0,0,2.62-.88,9.05,9.05,0,0,0-2.35-1.45,1.17,1.17,0,1,0-.27,2.33Z"/><path class="cls-15" d="M75.95,97a7.16,7.16,0,0,0,2.16.32A7.16,7.16,0,0,0,77,95.42a.93.93,0,1,0-1,1.55Z"/><g class="cls-16"><path class="cls-17" d="M78.07,90.63c2.87,2.89,23.06,12.09,23.24,12.16,6.95,2.5,3.42.62,4.34-2.32l.06-.16.06-.16c1.17-2.85,5.08-2.05-1.87-4.55-.18-.07-21.61-5.83-25.66-5.43L77.75,90a.31.31,0,0,1-.17.47Z"/></g><g class="cls-18"><path class="cls-19" d="M95.84,72.77c5.54.83,10,4.24,11.56,8.91a12.4,12.4,0,0,1,0,7.38c.07,2.07.59,3.57,1.33,3.69s1.89-1.57,2.34-2.74c1.71-4.51-1.62-11.38-6.87-14.77A16,16,0,0,0,95.84,72.77Z"/></g><g class="cls-20"><path class="cls-21" d="M78.35,79.89c1.54-1,9.44-5.75,18.42-2.54,2.22.8,8.32,3,9.32,8.07a9.19,9.19,0,0,1-.08,3.68,9.23,9.23,0,0,0,.83-5.78c-1-5.1-7.1-7.28-9.32-8.07-9-3.21-16.88,1.56-18.42,2.54-2.09,1.34-5.25,3.36-5.45,6.1A15.56,15.56,0,0,1,78.35,79.89Z"/><path class="cls-21" d="M96.18,88.75a2.49,2.49,0,0,0,.1-.51A2.4,2.4,0,0,0,96.18,88.75Z"/><path class="cls-21" d="M83.17,85.8c-.21.51,0,.85.13,1.38A3.2,3.2,0,0,0,84,85.68,2,2,0,0,0,84,85,1.71,1.71,0,0,0,83.17,85.8Z"/></g><path class="cls-22" d="M75.35,91.73c2.92,1.58,4.12,5,3.11,6.67-.5.81-1.27.71-1.48,1.41-.58,2,4.52,5.09,5.16,5.47,1.83,1.09,5.75,3.44,7.92,2.29,1.61-.85.71-2.81,2.28-3.63s4.19-.12,6.2,1.34l-.09-.19c-1.36-2.52-5-3.82-6.8-2.72-1.41.88-.71,2.76-2.15,3.67-2,1.23-5.27-.9-6.82-1.9-.54-.35-4.86-3.17-4.26-5.14.21-.7.88-.64,1.36-1.46,1-1.65.07-5-2.41-6.42a5.6,5.6,0,0,0-4.91-.24A7.24,7.24,0,0,1,75.35,91.73Z"/><path class="cls-23" d="M113.06,114.1c1-1.21,3.31-4.07,3.26-5.79,0-.42-24.24-22.51-25-22.48-.48,0-1.47,1.29-1.43,2.73A2.9,2.9,0,0,0,90.32,90c4.23,7,10,11,15.76,16C108.81,108.4,110.77,111.3,113.06,114.1Z"/><polygon class="cls-24" points="60.95 85.83 111.8 116.84 116.6 110.03 65.75 79.02 60.95 85.83"/><polygon class="cls-25" points="64.58 73.44 114.54 103.9 116.6 110.03 65.75 79.02 64.58 73.44"/><polygon class="cls-26" points="60.95 85.83 65.75 79.02 64.58 73.44 59.78 80.25 60.95 85.83"/><path class="cls-27" d="M116.07,110.4C69.65,80.56,64.55,79.5,64.55,79.5c.41,0,.56.52.57.67.4,3.8,32.62,23.12,37.9,26C107.16,108.38,111.4,110.29,116.07,110.4Z"/><path class="cls-27" d="M114.55,110.56c-1.1-.71-45.27-30.33-48.14-30.19-1.53.07-2.25,1.88-2.21,3.31.06,2,35.7,26.51,49.08,29.59h0C113.61,113.26,114.32,111.68,114.55,110.56Z"/><path class="cls-28" d="M114.76,108.61c-1.1-.62-49.06-27.33-49.17-31.06,0-.14.07-.27.29-.28h.06c5.33.23,48.86,25.7,49,30.45A1.9,1.9,0,0,1,114.76,108.61Z"/><path class="cls-28" d="M115.28,108c-7.65-7.48-47.79-30.88-48.82-30.83-5.16.25,12,7.9,34.84,22.15C106.21,102.39,111.14,104.66,115.28,108Z"/><path class="cls-9" d="M138.34,123.83a14,14,0,0,0-12-13.82,14,14,0,0,0-23.52-13.06A14,14,0,0,0,78.5,110.68,14,14,0,0,0,66,128.89a13.95,13.95,0,0,0,.82,24.5,14,14,0,0,0,2.76,3.76,14,14,0,0,0,24.47,11.94,14,14,0,0,0,24.27-4.85,13.93,13.93,0,0,0,18.39-12.56,14,14,0,1,0,1.59-27.85Z"/><path class="cls-29" d="M87.17,120.06a9.71,9.71,0,0,1,5.1-11.17,9.7,9.7,0,1,0,4.82,18.4A9.71,9.71,0,0,1,87.17,120.06Z"/><path class="cls-29" d="M87.95,152.22a9.71,9.71,0,0,1-3.45-11.78,9.7,9.7,0,1,0,15.68,10.76A9.71,9.71,0,0,1,87.95,152.22Z"/><path class="cls-29" d="M70.17,138.16a9.71,9.71,0,0,1,3.54-11.75A9.7,9.7,0,1,0,81,144,9.71,9.71,0,0,1,70.17,138.16Z"/><g class="cls-30"><path class="cls-29" d="M81.18,165.52a13.16,13.16,0,0,1,.35-3,13.18,13.18,0,0,1-2.6-3.54,13.13,13.13,0,0,1-.78-23.07,13.14,13.14,0,0,1,11.73-17.14,13.13,13.13,0,0,1,10.62-19,13.14,13.14,0,0,0-21.59,14.6,13.14,13.14,0,0,0-11.73,17.14A13.13,13.13,0,0,0,68,154.61a13.18,13.18,0,0,0,2.6,3.54,13.12,13.12,0,0,0,12.8,16.14c.38,0,.76,0,1.13-.05A13.09,13.09,0,0,1,81.18,165.52Z"/><path class="cls-29" d="M105,174.24l-.39-.46-.42.5C104.42,174.27,104.69,174.27,105,174.24Z"/></g><path class="cls-10" d="M177.06,76.06a1.52,1.52,0,0,1,.23.32,1.34,1.34,0,0,1,.1-.18c2.31-2.58,7.27-4.91,11.33-6.2l0-.12a22.16,22.16,0,0,1-3.12,1s-2.83.68-2.86.71c-.67.54-4.48,3.67-4.21,2.88a5.07,5.07,0,0,1,1.7-2.63c1.13-1,5.73-1.8,5.73-1.8,0-.24-3.36.46-3.61.53-1.11.33-2,1.15,1.56-2.25C196.95,55.82,179.44,70.58,177.06,76.06Z"/><path class="cls-10" d="M187.7,16.86c.52-7.89,1.89-13,.6-7.89-.6,2.39-1,.51-1.26-.69-.93-3.69-6.25-3.18-1.76-4.6,6.52-2.07-3,.6-4.31,1.41-.53.34-.37-.29-.28-.82s-1-2.45-.5-.69A1.92,1.92,0,0,1,179.5,6s-6.15-9.37-3.38-4.74c3.59,6,3.22,4.12,1.78,7.18-2.77,6.63-1.21,4.89-3.44,2.07-.28-.35-2.58-.79-.84-.07s2.64,3.94,1.93,4.57c-.24.22-1.46-2.09-1.65-2,0,0,1.38,2.22.74,2.79s-1.11-.39-2.22-2.74c-1.23-2.62-1.48-2.52-.24.12s1.9,3.12,1,3.89a3.39,3.39,0,0,0-1.15,1.65c-.8-2.35.1-3.1-.61-4.57-.46-.94-.53-.82-.54-1.41s-.27-.58-.27-.17-.16,0-1.4-1.13c-1.86-1.68,0-1.77-2-4.13-1.44-1.67.86,1.2.79,2.5,0,.77-5-3.44-.15.76a7.07,7.07,0,0,1,0,1.7c-.14,2.45-1.32.73-1.51,1.22-.07.18,1.11.6,1.29.67s.05,1,0,1.19c-.5,9.13-1.44,5-1.72,5.93-.07.24,1.22.44,1.26.59.08.35-.71,3-.67,3.26.2,1.78.1,1.45-2.36-.35-.72-.52-1.74-1.37-1-1.89.43-.31.2-.61-.12-.38s-.18-1-.4-1.9c-.33-1.38-1.06-1.92.79-4.33.92-1.19,3.39-3.17.67-1.38-.78.52-2,4.14-.17-3.59,1.19-5,4-6.89,2.39-5.58a11.52,11.52,0,0,0-2.06,3c-1.53,6.48-1.12,4.4-2.91,7.11-.42.78.2-1,.08-1.52-1.26-5.46-1.54-4.3-1.21-3.43,1.66,4.44.39,6.17-1,9-.18.36-2.54-4.95-2.71-5.31-.31-.66-4.85-6.95-4.8-9.46a2.7,2.7,0,0,0-.67-2.06,13.48,13.48,0,0,1,.4,2.08c0,1.37,3.18,6.89,1.77,6.18a11.66,11.66,0,0,1-3.64-2.83c-.9-1.58-.27.49.17.82,4.59,3.42,4.28,2.15,5.38,4.5,0,0,.53.43.57.46,1.95,1.52,4,9,2.3,6.67-.59-.8-.79-.59-.27.11S154,20.53,154,20c0-.18-.08-.32-.16-.31-3.48.26-2.24-12.36-3.09-6.87-.25,1.6,2.29,7.58-1,5.27-.41-.29-9.72-4.91-10.77-5.95a45.19,45.19,0,0,0,5.28,4.16c1.47.33,4.73,1.69,6,3.55,1.87,2.67,1.73,1.46,2.08,3.71s-1.16.89-2.8-.6c-1.42-1.3-1.64-1.08-.2.23.78.71,2.83,2.15,2.29,2.06-.81-.14-2.73-.42-3.23-.89a24.66,24.66,0,0,1-1.5-3A6.34,6.34,0,0,0,148.72,25s1.42.27,1.48.29c1.75.31,3.46,1.74,3,1.65a6.54,6.54,0,0,0-1.55-.61c-1.16-.24-1.3-.72-2.68-1.1-2.31-.63,1.88.93.86.72-6-1.27-8.17-2.52-8.17-2.52-.61,1,12.57,4.32,12.06,4.17,1.11.34.85,3.33,1.2,3.89,1.18,1.92,2.34,4.76,4.41,5.4,4.79,1.32,1.25,3.37,6.79,3,4-.25,5.2,6.35,4.36,5-.3-.47-.56-.39-.11.32s.14,1.39.67,3.08c1.24,3.93-.67,3.35-2.47,5.09-2.26,2.18-.12-2.41.73-3.38,2.5-2.84-1,.47-1.19,1-.24.77-.64,2.66-1.36,1.22-1.65-3.33.78,1.51.48,3.29-.1.6-1.63-2.79-1.86-3.36-2.46-6-.59-.09,1.37,3.38.87,1.55-1.1,5.54-.67,6.89.84,2.66,2.19,2.6,2.75,4.13,1.57,4.31,1.56,3.73.43,5.9-6.11,11.71-1.92,8.62-6.74,7.79-.53-.09-5.85-4.09-7-9.83s.14-4.35,3.29-12.91c.06-.18,1-.76.92-.9s-.22,0-.39.12c-.8.56,1.36-3.23-3.19,4.44a36,36,0,0,1-1.38,5.66c-.26.82,1.46,6.57-.32,3.31-1-1.9-1-2.32-2.72-3.25-1.05-.58-1.23-4.5-.59-5.77.3-.59,2.51-3.07.12-.8-2.12,2,.95,7-1.95,3.29-1.33-1.71-.55-1.37-1.8-3.87-3.43-6.82.38,2.48,2.47,5.15.79,1.22,1.19,1.69.79,1.47-.55-.3-5.89-.42-6.33-5.68,0,0-1.41-2.54-1.43-2.59-3.74-6.67,1.13,2.14,1.29,4.05.07.8,2.52,3-.72,1.39-1.11-.55-7.14-7,.46,1.28.4.43,3.52,2,2.17,1.69-.27,0-6.82-1.89-6.87-1.63s6.64,1.86,6.81,1.89c5,1.16,6.48,1.79,11.45,9.79,2.65,4.26,4.36,3.73,4.81,4,3.29,2,3.51-1.75,1.9,5.91-.19.89-.34,1.77-.47,2.65.71.62,1.51.19,2-1.42.32-1.17.55-2.35.82-3.53a61.44,61.44,0,0,1,2.87-9.2,22.14,22.14,0,0,1,6.39-8.51c.56-1.63,1.35-3.49,1.11-5.35-.69-5.41,2.76-6.79,7.65-10.2,1.29-.9,2.19-1.67,3-2.18l-.75.14c-.62.45-1.49,1.05-2.67,1.88-7.85,5.47-6.49,5-6.09,2.92.8-3.62-.66-3.39-.1-5,.94-2.67,1.44-4,2.06-4.54a1.46,1.46,0,0,1,.06-.29l.17-.52a.73.73,0,0,1-.22,0c-.43-.16-.18-1.17.57-.91a2.07,2.07,0,0,1,.15-.29c-.85-.51-.59-.51.07-1.8a41.8,41.8,0,0,1,.78-5.1c1.93-4.49,1.92-2.36,3-2.92.06,0,1.3-.68,1.34-.74,1.75-2.73-.18-.23-.84.12-1.59.85-4.3.06.21-2,1-.44,1.59-1.63,2.44-1.31A1.71,1.71,0,0,1,188,28l0,0c-.16-.18-.23-.35,0-.43a.49.49,0,0,1,.37,0l.17-.22c0-.45,0-.88.07-1.32a8,8,0,0,1-.45-.88c-.28-.63.52-1.48.58-1.23,0,0,.06.16.12.32a9.89,9.89,0,0,1,.33-1.24c0-.22.06-.42.09-.63C188.28,22.08,187.68,18.61,187.7,16.86Zm-44.52-1.73c-2.19-1.61-.77-.57,1.66.92C145.06,16.19,144.71,16.26,143.18,15.13Zm4.26,2.2c-1.15-.7-.64-.58.55.1S148.61,18.05,147.44,17.34Zm8.75,44.94c.24-1.39,1.24-3.07.62-1.06C156.34,62.74,155.91,63.89,156.19,62.27Zm-4.42,6s-2.05-.73-2.1-.75c-5.9-2-7.84-5.44-2.46-1.91,2,1.31,3.09-.24,4.8,2.63C152.6,69.2,152.16,68.69,151.77,68.24Zm1.42,1.43c-1.82-3-1.84-2.84-.72-2S156.56,74.57,153.18,69.67Zm6.76,9.12c-1.81-1.61-2.79-3.13-.41-.74C161.22,79.75,162.74,81.29,159.94,78.8ZM181.29,7.5a6.55,6.55,0,0,1,.12-1.75C182,4.06,181.4,10.48,181.29,7.5Zm-.13-1.85c-.44,1.16.26,6.72-.34,3.78C180.52,8,180,8,180.24,6.66S181.37,5.07,181.16,5.65Zm-1.57.68c.37-.42.47-.27.38.23C179.83,7.32,179.41,6.53,179.59,6.33Zm1.12,4.62c0,1.94-.57,1-1.6,3-.3.59-.31.47-.26.2.21-1.13.62-.74.91-1.2,1.67-2.62,0-.37-.47,0S180.6,3.93,180.71,10.94Zm3.83,15.11a1.93,1.93,0,0,1-1.36.69c-.32.1,0-.44.31-1.16.71-1.53.69-1.25,1.56-.2s-.5,1.14-.2.69S184.94,25.47,184.54,26.05Zm-3.17-4.5a5,5,0,0,1,.76,1,4.27,4.27,0,0,1-1.88-.32c-.18-.62,0-4.28.46-3.62,1.08,1.59,1.61.18,1.5,2.37-.07,1.28-.52.83-.8-.28C181,19,181,21.09,181.37,21.55ZM183,23.41c.55.6,1,.47.21,2.14-.89,1.93-1,2-.9-.51C182.44,22.77,182.5,22.85,183,23.41Zm.61-.16c.27,0,.49.13.5.19C184.36,24.4,182.63,23.07,183.62,23.25Zm-.26,3.92c-.9.51-1.22,1.34-.88.61C182.91,26.84,184.18,26.7,183.36,27.17ZM184.54,24c-.13-.55-.32-.66,1-.43C189.48,24.32,185.41,27.61,184.54,24Zm-1-3.69s3.1,3.18,3.07,3.16-2.23-.41-2.22-.43S183.44,20.3,183.52,20.33Zm.3-.2c-.38-.48-1.28-.08-.44-2.19.6-1.51,0-2.13,2.9,3.32C187.17,23,186.57,23.58,183.82,20.13Zm-.4,2.78c-1.12-.21-1-.52-.9-1.73,0-.68.07-1.24.08-1.26C182.8,19.43,184.68,23.15,183.42,22.92Zm-.89-3.67s-1.74-1.44-.83-.33c.3.36-.88.6-1-1.86,0,.07.12.24.47.51S182.67,18.9,182.53,19.25Zm-3.74.59c-1.71-2.35,2-6.88,1.72-5.23C179.48,21.66,180.62,22.34,178.79,19.84Zm-2.93,12.61a5.23,5.23,0,0,0-.07.56c-.43,4.2-.85-7-.89-7.06a13.5,13.5,0,0,1-.89-1.62c-.26-.66,2.8.22,2.79,1.71C176.76,30.61,176.77,30.77,175.86,32.45ZM177,34.61c.06,1.82-.47,3.95-1,2S176.87,29.42,177,34.61Zm-3.09-11.35a7.38,7.38,0,0,1,1.61.62C179.46,25.78,172,23.19,173.94,23.26Zm4,7.24c-1.2,1.19-1.06.76-.29-.66s1-2.72,1.16-1.77S179,29.45,177.92,30.5Zm-.35,2.35c-.58,1.67-1.09-.52.31-1.91C179.07,29.77,179,29.58,177.57,32.86Zm-.08-3.42c-.56,1-.73-4.44.22-4C179.08,26,178.18,28.18,177.49,29.44Zm.15-4.8a1.33,1.33,0,0,1-.51-1.09C177.17,19.71,178.52,25.12,177.65,24.63Zm1.61,4.2c.1-.68-1.46-3.8,1.2-2.3C181.05,26.87,179.08,30,179.26,28.84Zm.28-7.41c.73,1.35,0,.37-.14.9,0,.08.33.22.3.49,0,.44-.7,2.48-.72,2s.59-2.88.37-3.31C178.44,19.73,179.17,20.76,179.54,21.43Zm.31,4.44c-1-.58.23-2.49.28-3.09a17.83,17.83,0,0,1,.42,3.48Zm-2.24-11.24c-1.31.83-1.19.3-.7.17S179.91,13.17,177.61,14.63Zm2.71-1.72a10.43,10.43,0,0,1-.8,1.35C177.39,17.43,180.8,11.49,180.32,12.91Zm-2.92,4.38s-.32-.86-.33-.88C176.68,15.31,180,12.28,177.4,17.29Zm.77-.12c-.1.22-.35,1.32-.43,1.1C177.3,17.06,179.2,14.85,178.17,17.17Zm2.11-3.29c-.52.41.06-.18.19-.56C180.94,11.94,180.86,13.42,180.28,13.88ZM179,7c1.16-1.31.53,6.87-2.21,7.57C174.91,15,178.6,7.45,179,7Zm-.18,16.75c-.24.91-.19.73-.17,1.13.08,1.63-1-3.25-.8-4.42C178.07,19.47,179.47,21.3,178.84,23.72Zm-2.93-8.51c.1-.47.78-.07.19.41C175.92,15.76,175.86,15.44,175.91,15.21Zm.54.47c.05,0,1.39,4.11.8,2.68C176.43,16.34,175.54,16.26,176.45,15.68Zm.07,2.18c.78,1.34-2.56-.39-1.6-1C176.11,16.08,175.46,16,176.53,17.86Zm-1.75-1.23c-.19.12-.39.15-.44.07C173.92,16,176.88,15.28,174.78,16.62Zm-2.28,1.81c.31-.76,3-3.06.58-.35C172.64,18.57,172.39,18.73,172.51,18.43Zm.66,0c1.61-1.77,1-1,1.5-.69,2.48,1.49,3.58,1.47,2.44,4.28-.5,1.23.07,2.38-1.51,1.61-2.14-1-2-.23-2.72-2.43A3.12,3.12,0,0,1,173.17,18.39Zm1.67,17.2c-.61,1.39-3-2.32-3.52-3.7-1.36-3.47.48-8.58,1-8.43C176.13,24.55,175,35.1,174.83,35.58Zm.58,1.11c-.14,1.38-.94.44-.43-.74S175.55,35.4,175.42,36.69Zm1.6,4.22c0,.05-.84-.06-.95-.25-.39-.71.3-1.72.64-.42C176.74,40.35,177,40.81,177,40.91Zm-.55,1c1.27.89-.74.4-.73.18C175.82,40,176,41.65,176.47,42Zm.89-.33c.32.65,1.51,1.65-.07.55S177,40.84,177.35,41.64Zm-17.51-10c.56,1-4.3-3-4.41-3.53a16.93,16.93,0,0,1,3.77,1.26C159.71,29.87,159.39,30.86,159.85,31.68Zm-2.28-6.18c1.64,2.72,2.05,2.64-.33,2.36C154,27.48,153.59,18.94,157.57,25.5Zm1.49,3.41s-1.46-.46-1.51-.47c-1.89-.57,1.84-.34,1.9.48C159.49,29.33,159.3,29.14,159.06,28.91Zm-3.59-6a3.81,3.81,0,0,1-.43-.5c-.56-.71,4.53,2.65,4.58,4.81C159.69,29.72,157.62,23.69,155.47,22.89Zm7.07,10.61c.26.42-1.62-.81-2.09-1.66C159.86,30.78,159.41,28.5,162.54,33.5ZM162,31.58c2.11,2.43,1.94,2.41,1,1.9C162.56,33.22,157.14,26,162,31.58Zm-2-2.94c0-.28.79-.31,1.5.69,1.09,1.53,2.29,1.58,2.43,2.71a2.66,2.66,0,0,0,.5,1.57C164.93,34.73,160,28.85,159.95,28.64Zm0-.63c0-.91.24-.47.49-.11S159.94,28.28,159.94,28Zm2.27-2.78c.21.55-1.55-.47-.87-1C161.48,24.17,162.14,25.06,162.21,25.23Zm-.42-1.82a.31.31,0,0,1-.53.12C160.54,22.68,161.74,23,161.79,23.41Zm1.33,4.43c1,1.88-.09.68-.63.63C158.85,28,160.28,22.38,163.12,27.84Zm-1.17.83a1.73,1.73,0,0,1,1.74,1.82C163.77,31.14,160.84,28.55,161.95,28.67Zm7.15,9.1c-3.42-2.12-3.74-2.79-4.28-3.87C161.34,27,170.59,38.7,169.1,37.77Zm1.09-4.19c.06.41-1.3-.58-1.56-1.14-.69-1.46.37-5,.54-1.74A5.71,5.71,0,0,1,170.19,33.59Zm1.28,3.19c-.16-.13-.53-.16-.6-.41C170.18,33.78,172.06,37.27,171.48,36.78Zm-1.23-1.1c-.35-1-2.23-2.86-.58-1.39C170.65,35.16,170.9,37.48,170.25,35.68Zm0,1.83c.14,1.17,0,.94-.11.57a29.36,29.36,0,0,1-1.75-3.32c-.87-2.78-.49-2.49.32-.65C169.14,35.08,169.9,34.7,170.25,37.51Zm-3-6.26c-.46-.27-6-6-.74-1.38C167.21,30.57,167.75,31.55,167.24,31.25Zm-2.54-1.49c-.87-.51-1.65-2.81-1-1.71S165.88,30.46,164.71,29.76Zm2.83,2.74a17.8,17.8,0,0,0,.9,3.19c.34.58-1.86-3.1-3.46-4.14-.58-.38-1-.62-1-1.17C163.77,28.87,167.5,31.87,167.54,32.51ZM169,38.3A5.73,5.73,0,0,1,170.55,40S166.87,37,169,38.3Zm.68,1.24c1.27,1.17,1.4,2.16.05.42C169.15,39.24,169.13,39.05,169.66,39.54Zm1.76,4.14c0-.5-.31-1.55.19-1.31S171.4,44.17,171.41,43.68Zm.51-2.06c.16.15.39.22.26.49C171.79,42.94,170.11,40,171.92,41.62Zm-1-2.32a19.38,19.38,0,0,1-.27-2.64C171.1,36.89,174.49,44.9,170.89,39.31Zm.23-2.08c-.28-1,2.37,1.67,2,2.68,0,0-.26-.14-.35,0s.22.36.14.58S171.19,37.51,171.11,37.22Zm-.59-6.58a13.83,13.83,0,0,0,2.42,4.46A8.63,8.63,0,0,1,174.21,37C173.64,38.33,169.87,30,170.53,30.65ZM170,29.07c-.24-1-.48-.8-.3-.07.31,1.22-1.07-.76-.17-2.42.48-.88.24-.67.57.61C170.26,27.82,170.57,31.3,170,29.07Zm3.53,10.78c.24-.67,1.37-.25.93.16C173.64,40.77,173.35,40.35,173.53,39.85ZM172,37c-1.24-2.26.87-.09.94.67C173,38.17,172.23,37.45,172,37Zm1.36.77c0-.75-.42-1.3.16-.65C174.27,38,173.44,39,173.36,37.8Zm.69.47c.17-.49.53,0,.31.08S173.79,39,174,38.27Zm-2.7-3a4.16,4.16,0,0,1,1.3,1.09Zm3.15,9.82c.12.24-.15.89-.28,1.12a12.72,12.72,0,0,1-.57-1.78C173.06,42.44,173.57,43.27,174.5,45.12Zm1,3.76c-.55.36-1.37-.25-.52-2.43.09-.23.5.65.62.88C176.28,48.65,176.34,48.34,175.52,48.87Zm.82.37c.24,1.07-.78,2.91-1.36.52C174.9,49.42,176.2,48.61,176.34,49.24ZM174.26,43c-.07-.45-.2-.95.27-.82C175.28,42.43,174.77,45.65,174.26,43Zm.25-1.14c-.25-.07-.46-.17-.47-.22C173.64,39.28,176,42.3,174.5,41.91Zm-.15-1.34c.27-.18.56-.62.57-.19S174.18,40.68,174.35,40.57Zm0-1.73c.24-.29.36-.15.44.22C174.89,39.65,174.2,39,174.33,38.84Zm-3.1-15.7c.15,0-.84,1.42-.7.47C170.62,22.86,170.86,23,171.22,23.14Zm-.32-1.45c.13-.25.75-1.52.7-1.24a10,10,0,0,1,0,1.81C171.42,22.67,170.45,22.6,170.91,21.69ZM171,24c1.71-2.33-.57,3.43-.72,2.85A3,3,0,0,1,171,24Zm1.25-1.49a.83.83,0,0,0,.06-.26c-1.28-5.92,1.09.67.73.66S172.19,22.78,172.27,22.55Zm-1.36-8.84c0-.8.91,3.08.5,2.54C170.65,15.24,170.92,15.18,170.91,13.7Zm-1.78-2c.34.3,1.51,1.35,1.51,1.8,0,2,.12,1.65-1.37,1S168,10.69,169.13,11.71Zm-1.2,4.83c0-.84-.06-2.28,1.25-1.72,3.1,1.32,1.94,5.84,1.68,6.36-.53,1.05-.14,1.42-2.66.65-.33-.1-.58-.35-.55-.56s0-.38-.08-.39C167.18,20.82,167.06,22.5,167.93,16.54Zm0,7c-.43-1.88.22-1.51,2.2-.78C170.6,22.91,169.39,30,167.91,23.5Zm2.37,8.12c.16-.68,1.14,2.79,1.54,3.39C172.39,35.86,169.92,33.2,170.28,31.62Zm-.71-.73c-.21-.32-.24-1,0-.7S169.76,31.17,169.58,30.89ZM169,28.3c0,.49-.16.28-.44,0l.17-.33C169,27.52,169,27.75,169,28.3ZM167,26c-.13-1.12.38-3.82.76-2.16a9.73,9.73,0,0,0,.68,2.32C169.42,28.89,167.16,27.76,167,26Zm.2,1.81c0-.3,0-.17.54.38C168.72,29.27,167.89,34.21,167.17,27.83Zm-.28-.11c.13,1.13,0,1.56-.46.52-1.3-3,.26,1.42.26,1.42C159.94,23.76,166.81,27.06,166.89,27.73Zm-2-1.53a2.33,2.33,0,0,1-1.51-1.1C163.17,24.25,167.35,26.94,164.89,26.19Zm-4-8.59c.28-.46,2.56-5.21,1.72-1.65-.88,3.73-.92,1.88-.46,4.85C163.18,27.52,160.63,18.05,160.91,17.6Zm1.49,6.2c.54.39,0,2.42-.28.24C162.08,23.66,162.13,23.6,162.4,23.8Zm-1.9-5.39c.19-.39,1.09,3.17,1.16,3.85.11,1-.6.43-.63-.38,0-.28-.23-2.06-.49-2a9.22,9.22,0,0,0,.2,1.91c0,1-1.22-.1-1.39-.72C159.25,20.68,159.93,19.6,160.5,18.41Zm-1.55,3.11c.18-.36.09-.23.46.22S158.68,22.05,158.94,21.52Zm.08.65c2.08.64,2.07,2.53,1.45,2A11.47,11.47,0,0,1,159,22.17Zm-.49.19c.08-.17,1.6,1.85,1.77,2,.42.38-.33,2.11-.87,1.32C158.36,24.11,158.3,22.84,158.53,22.36Zm-.32-.19a4.92,4.92,0,0,0-.12,1.78,27.3,27.3,0,0,1-4-3.09C154,20.47,158.33,21.92,158.21,22.17Zm-5.72-2.6c-.11-.06-.21.19.13.37,1.41.72-.42.33-.57-.62C152,18.75,152.68,19.67,152.49,19.57Zm.3,1c2.45,1.72.34,1.92.26,1.16,0-.13-.09-.23-.17-.22s0,.38-.28.24S152.05,20.07,152.79,20.59Zm2,6.82c-.48-.22-2.39-5.39-1.19-4.94C154.22,22.7,155.18,27.58,154.79,27.41Zm-4.18-7.62c-1.35-1.93,1.18-.14,1.34.91C152.16,22,151.53,21.1,150.61,19.79Zm2.44,5.75c-.11-.07-.73-3.54-.29-3.38a11.76,11.76,0,0,0,.88,3.63C155,29,153.5,25.84,153.05,25.53Zm2,3c.4.2.36,2.2.51,3.11C155.88,33.3,154.14,28.07,155.08,28.54Zm6.69,7.81c.06,1.67-.41.71-1.64.37-4.47-1.23-4.94-8.13-4.47-7.89a17,17,0,0,0,3.42,3A5.66,5.66,0,0,1,161.77,36.35Zm.45.06c-.12-3.4-2.19-3.48,1.23-2.15,4.41,1.71,9.54,12.48,6.33,6.64C167.75,37.21,162.41,41.66,162.22,36.41Zm10,13.51c0-.7-1.13-4.92-.44-6.19.57-1.06.95-1,1-.73.13,1.81,1.61,2.93.45,4.95C172.25,49.65,172.36,52.31,172.26,49.92Zm1.59,0c-.84.54-.62-.43-.12-1.29S174.72,49.39,173.85,50Zm-5.76,5c-.09-1.42,3.41-4.16,3-1.11-.34,2.34-1.89,6.19-2.38,2.59C168.25,51.83,168.44,60,168.09,54.93Zm2.4,6.83a3.39,3.39,0,0,1-.71-1.2C168.33,57.08,171.45,62.84,170.48,61.76Zm-3-6c.11-.65.32-.87.35-.8.32.64-.28.84.45,2C169.93,59.67,167.27,56.81,167.45,55.72Zm3.13,14.1c-.43,1.19-1.39-3.72-1.81-4.13-3.46-3.45-2.61-3.05-1.49-9a10.59,10.59,0,0,1,1.94,4c.13.61,1.17,0,1,4,0,0-.12,2.17-.11,2.21A8.13,8.13,0,0,1,170.59,69.82Zm.82-2.27c-1.45,4-.65-4.62-.93-5.29-.06-.14.37.17,1.21,1.48C172.38,64.82,172.09,65.67,171.41,67.55Zm-.85-6.76c-1.19-2.77-1.32-1.7.45-4.87.59-1.06.29-8.74,1,3.69C172.33,64.36,172.81,66,170.56,60.79Zm3.58,5.1c-1.22,1.06-.44-1.38-.48-2-.08-1.35.09-.64.82,1.19A.82.82,0,0,1,174.14,65.9Zm1.27-5.67c.71,2.48-.45,5.38-.72,4.72-1.27-3.18-1.56-4.27-.4-8.55.14-.51-1.18-5.18-.52-1.45.29,1.61-.34,5.22-.53,2-.34-5.66-.69-5.85.61-6.69.87-.56.65-.44,1.15.69.42,1,.27,1.17.12,1.55A74.91,74.91,0,0,0,175.41,60.23Zm2.52-8.78c.08,1.52-2.36,11.49-1,1.27,0-.07-.1-.72-.11-.8C176.58,50.64,177.8,49.16,177.93,51.44Zm-.24-4c-.55,1.45-2.4-1.75-2.18-2.31.11-.29.21-2.62.42-2.56C179.6,43.62,178.92,43.13,177.68,47.48Zm1.26-3.1c0-.56-.22-.85.13-.79C179.62,43.67,178.91,45,178.94,44.37Zm.7-2c-.19.8-.42.45-.93.38-.07,0-.14,0-.16-.08-.18-.63-2-1.52-.11-1.3C179.44,41.47,179.87,41.39,179.64,42.36ZM176.92,40a3.64,3.64,0,0,1,1.87.84C179.19,41.24,177.31,41.47,176.92,40Zm3.86-2c-.54,4.7-1.2,3.35-2.13,2.31-.4-.44-1.73-.27-1.92-1-.35-1.34,3.39-6.17,4.42-6.74S181,35.74,180.78,37.92Zm-1.54-4.3c.34-.44,1.23-1.46-.51,1C177.86,35.75,178.41,34.69,179.24,33.62Zm1-1.3s.22-.69.23-.73c.71-2.37.18.52-.14.74S180.17,32.41,180.25,32.31Zm1.34-2.5c.25-.38.21,1.51-.31,1.86S181.29,30.26,181.59,29.81Zm.9,2.85c-.15.64-.66,1.72-.6.46S182.63,32.08,182.49,32.67Zm.2-.83c0,.09-.73.07-.72-.1C182,31.28,182.85,31.14,182.69,31.83Zm-.41-1.68c.1.39.08.78,0,.87S182,29.15,182.27,30.16Zm-1.81.61c-.34.44-.2,1.62-1.21,2.32-.26.18-.07,0-.82,1.06-1.18,1.69-1,2.47-1,1.59C177.33,28.25,185,24.91,180.46,30.76Zm.85-3.87a3.06,3.06,0,0,1-.54-1.9c-.18-1.92-.61-2.38.47-2.18S182.52,28.21,181.31,26.89Zm3.22,2.7a10,10,0,0,0-1.23.7c-.66.46-1.3-1.1-.69-2C184.83,24.88,189.53,27.29,184.53,29.59Zm2.18-3.76c.75-.64.62-.85,1.11.31C188.79,28.46,185.44,26.91,186.71,25.83Zm1.84,1.11a7.66,7.66,0,0,1-.88-2A7.24,7.24,0,0,1,188.54,26.95Zm-.32-3c-.39.42-1.33.44-1.35-2.07,0-.1-2.78-5.18-2.82-5.31a7.5,7.5,0,0,1,1.84-3.68c1.09-.94-.45-1-1.75,2.31-.35.87-1.88-4-1.89-4s1.56,4.8,1,6.32-.92.56-1.88-.17c-.38-.29-.6-.38-.65-.33a13.48,13.48,0,0,1,.19-2.79,3.93,3.93,0,0,1,.78-1.28c-.38-.48-1.5,2.51,0-4.34a8.1,8.1,0,0,0,.21-3.22c-.67-2.94,6.73,2.41,5.66,6.65-.07.29,0,3.35-.09,4.8C187.41,19.5,188.85,23.26,188.22,23.94Z"/><path class="cls-23" d="M111.89,116.76c.31-1.56.86-5.18,0-6.64-.22-.36-32.2-7.59-32.83-7.19-.41.26-.64,1.85.11,3.08a2.9,2.9,0,0,0,1.07,1c7.12,4,14.13,4.65,21.63,6.15C105.39,113.91,108.53,115.46,111.89,116.76Z"/><polygon class="cls-24" points="52.62 117.96 112.16 119.77 112.97 111.47 53.43 109.67 52.62 117.96"/><polygon class="cls-25" points="49.65 105.39 108.14 107.17 112.97 111.47 53.43 109.67 49.65 105.39"/><polygon class="cls-26" points="52.62 117.96 53.43 109.67 49.65 105.39 48.85 113.69 52.62 117.96"/><path class="cls-27" d="M112.68,112.06c-55.1-3-60.05-1.39-60.05-1.39.35-.22.74.18.83.3,2.23,3.1,39.79,4,45.78,3.84C103.95,114.71,108.57,114.27,112.68,112.06Z"/><path class="cls-27" d="M111.44,112.95c-1.31-.08-54.34-4-56.77-2.44-1.3.82-1,2.75-.28,4,1.05,1.73,44.13,5.39,57.29,1.46h0C112,115.76,111.79,114,111.44,112.95Z"/><path class="cls-28" d="M110.66,111.15c-1.26,0-56.16.5-58.1-2.69a.26.26,0,0,1,.11-.39l.05,0c4.75-2.43,55.18-1.82,57.65,2.24A1.9,1.9,0,0,1,110.66,111.15Z"/><path class="cls-28" d="M110.81,110.36c-10.35-2.72-56.8-3.21-57.68-2.66-4.36,2.77,14.38.91,41.24,2C100.16,110,105.56,109.5,110.81,110.36Z"/><path class="cls-23" d="M163.17,52c1.14,1,3.87,3.18,5.57,3.18.41,0,23.43-21.9,23.43-22.6,0-.45-1.21-1.4-2.63-1.4a3.07,3.07,0,0,0-1.44.35c-7.1,3.74-11.38,9-16.62,14.21C169,48.23,166,50,163.17,52Z"/><rect class="cls-24" x="151.81" y="25.9" width="57" height="8" transform="translate(51.25 159.32) rotate(-54.5)"/><polygon class="cls-25" points="205.7 8.09 173.18 53.68 167.02 55.43 200.12 9.02 205.7 8.09"/><polygon class="cls-26" points="193.61 4.38 200.12 9.02 205.7 8.09 199.19 3.44 193.61 4.38"/><path class="cls-27" d="M166.68,54.92c31.73-42.31,33-47,33-47,0,.38-.55.5-.69.51-3.78.27-24.43,29.68-27.5,34.5C169.1,46.7,167,50.58,166.68,54.92Z"/><path class="cls-27" d="M166.6,53.5c.76-1,32.16-41.23,32.16-43.9,0-1.43-1.75-2.14-3.17-2.14-2,0-27.93,32.44-31.62,44.79v0C164,52.55,165.5,53.26,166.6,53.5Z"/><path class="cls-28" d="M168.51,53.75c.67-1,29.38-44.84,33.07-44.84a.24.24,0,0,1,.26.28s0,0,0,.06c-.48,4.94-27.75,44.7-32.46,44.7A2,2,0,0,1,168.51,53.75Z"/><path class="cls-28" d="M169.1,54.25c7.76-6.9,32.83-43.56,32.83-44.51,0-4.8-8.39,11-23.58,31.76C175.07,46,172.6,50.5,169.1,54.25Z"/><path class="cls-23" d="M144,65.9c1.43-.5,4.68-1.81,5.51-3.29.2-.36-7.55-31.17-8.16-31.51-.39-.22-1.82.36-2.52,1.6a3.07,3.07,0,0,0-.4,1.42c-.24,8,2.21,14.32,4.2,21.46C143.54,59,143.6,62.39,144,65.9Z"/><rect class="cls-24" x="129.14" y="11.59" width="8" height="57" transform="translate(-4.45 60.13) rotate(-25.05)"/><polygon class="cls-25" points="126.63 7.26 150.34 58 148.83 64.22 124.7 12.58 126.63 7.26"/><polygon class="cls-26" points="117.45 15.97 124.7 12.58 126.63 7.26 119.38 10.65 117.45 15.97"/><path class="cls-27" d="M148.22,64.27c-21.24-48.43-24.7-51.87-24.7-51.87.33.19.17.72.11.86-1.62,3.42,13.83,35.86,16.52,40.91C142.25,58.12,144.61,61.85,148.22,64.27Z"/><path class="cls-27" d="M146.94,63.64c-.5-1.15-20.09-48.27-22.42-49.59-1.24-.7-2.73.48-3.42,1.71-1,1.75,14.52,40.27,23.46,49.55h0C144.83,65.47,146.19,64.48,146.94,63.64Z"/><path class="cls-28" d="M148.1,62.1c-.54-1.07-24.6-47.63-22.78-50.84a.24.24,0,0,1,.37-.09l0,0c4.07,2.85,25.28,46.14,23,50.24A2,2,0,0,1,148.1,62.1Z"/><path class="cls-28" d="M148.83,61.83c-2.19-10.15-21.79-50-22.62-50.47C122,9,131.64,24.07,142.27,47.51,144.56,52.57,147.28,56.94,148.83,61.83Z"/><path class="cls-23" d="M138.95,95.6c1.42-.55,4.61-2,5.4-3.47.19-.37-8.62-30.89-9.23-31.21-.4-.21-1.8.42-2.46,1.69A3.07,3.07,0,0,0,132.3,64c0,8,2.7,14.24,4.93,21.3C138.28,88.68,138.46,92.11,138.95,95.6Z"/><rect class="cls-24" x="123.24" y="41.68" width="8" height="57" transform="translate(-17.99 65.44) rotate(-27.01)"/><polygon class="cls-25" points="119.61 37.59 145.04 87.49 143.75 93.76 117.86 42.98 119.61 37.59"/><polygon class="cls-26" points="110.74 46.61 117.86 42.98 119.61 37.59 112.48 41.23 110.74 46.61"/><path class="cls-27" d="M143.14,93.83c-22.89-47.68-26.46-51-26.46-51,.34.18.2.72.14.85C115.31,47.16,131.87,79,134.73,84,137,87.89,139.45,91.53,143.14,93.83Z"/><path class="cls-27" d="M141.85,93.25c-.54-1.14-21.73-47.56-24.1-48.79-1.26-.66-2.71.57-3.36,1.82C113.46,48.06,130.27,86,139.53,95h0C139.79,95.14,141.12,94.11,141.85,93.25Z"/><path class="cls-28" d="M143,91.66c-.58-1.05-26.21-46.76-24.51-50a.24.24,0,0,1,.37-.11l.05,0C123,44.26,145.7,86.8,143.53,91A2,2,0,0,1,143,91.66Z"/><path class="cls-28" d="M143.67,91.37c-2.54-10.07-23.49-49.22-24.34-49.67-4.26-2.22,5.87,12.51,17.3,35.58C139.09,82.26,142,86.54,143.67,91.37Z"/><path class="cls-9" d="M114.74,99.19a14,14,0,0,0,14.87,10.73,14,14,0,0,0,25.88,7.38A14,14,0,0,0,176,98.41a14,14,0,0,0,8-20.56,14,14,0,0,0-6.37-23.68,14,14,0,0,0-3.54-3,14,14,0,0,0-26.54-6.07A14,14,0,0,0,125,55.3,13.93,13.93,0,0,0,110,71.7a14,14,0,1,0,4.78,27.48Z"/><path class="cls-23" d="M130.71,98c1.15-1,3.71-3.38,3.95-5.06.06-.41-18.32-26.32-19-26.42-.44-.06-1.56,1-1.77,2.41A3.07,3.07,0,0,0,114,70.4c2.68,7.56,7.25,12.55,11.68,18.48C127.8,91.68,129.09,94.87,130.71,98Z"/><rect class="cls-24" x="107.27" y="49.36" width="8" height="57" transform="translate(-21.91 104.43) rotate(-46.26)"/><polygon class="cls-25" points="93.32 49.62 133.78 88.33 134.63 94.68 93.45 55.27 93.32 49.62"/><polygon class="cls-26" points="87.92 61.05 93.45 55.27 93.32 49.62 87.79 55.4 87.92 61.05"/><path class="cls-27" d="M134.08,94.94c-37.33-37.46-41.8-39.42-41.8-39.42.38.05.42.61.41.76-.27,3.78,25.88,28.43,30.21,32.16C126.3,91.37,129.84,94,134.08,94.94Z"/><path class="cls-27" d="M132.67,94.82c-.88-.89-36.2-37.73-38.84-38.11-1.41-.2-2.37,1.43-2.57,2.83-.29,2,28.11,32.28,39.8,37.7h0C131.35,97.29,132.27,95.87,132.67,94.82Z"/><path class="cls-28" d="M133.19,93c-.9-.8-40.17-35.5-39.64-39.15a.24.24,0,0,1,.31-.22h.06c4.82,1.19,40.26,33.87,39.59,38.53A2,2,0,0,1,133.19,93Z"/><path class="cls-28" d="M133.77,92.45C128,83.78,95.36,53.73,94.41,53.59c-4.75-.69,9.66,9.87,28.06,27.88C126.44,85.36,130.56,88.45,133.77,92.45Z"/><path class="cls-13" d="M129.38,86.09l.72.37a21.58,21.58,0,0,0,15.18,1.09,19.94,19.94,0,0,0,11.26-10.18A19.94,19.94,0,0,0,166.7,66.09a21.58,21.58,0,0,0-1.13-15.18c-.16-.32-.28-.56-.37-.72-6.59-12.4-23.76-12.67-29.59-11.43a20.59,20.59,0,0,0-7.76,3.7,25.79,25.79,0,0,0-6.28,6.29,20.59,20.59,0,0,0-3.69,7.77C116.67,62.36,117,79.53,129.38,86.09Z"/><path class="cls-14" d="M130,84.82l.68.35a20.45,20.45,0,0,0,14.38,1,18.89,18.89,0,0,0,10.67-9.65,18.89,18.89,0,0,0,9.62-10.69,20.45,20.45,0,0,0-1.07-14.38c-.15-.3-.27-.53-.35-.68-6.25-11.75-22.51-12-28-10.83a19.51,19.51,0,0,0-7.35,3.51,24.44,24.44,0,0,0-5.95,6,19.51,19.51,0,0,0-3.5,7.36C117.94,62.33,118.22,78.6,130,84.82Z"/><path class="cls-13" d="M152.28,58c-.21,1.7-2.21,1.87-2.4,3.51-.24,2.05,2.51,4.83,5.37,5,3.3.18,6.09-3.16,6.83-6.11,1.26-5-3.33-9.61-5-11.27-6.76-6.72-15.94-5.76-17.75-5.53-2.63.34-6.67.88-7.76,3.7a5.45,5.45,0,0,0,2,6.1c2.35,1.64,5.76,1,6.84-.56.54-.78.19-1.36.74-1.85,1.53-1.38,5.93,1.32,6.47,1.66C149.21,53.59,152.55,55.68,152.28,58Z"/><path class="cls-15" d="M156,59.61c-.81-.12-2.92-1.92-2.92-1.92s2.54-1.14,3.35-1a1.49,1.49,0,1,1-.43,2.94Z"/><path class="cls-15" d="M152.76,63.23c-.44-.69-.45-3.47-.45-3.47s2.51,1.18,3,1.87a1.49,1.49,0,1,1-2.51,1.6Z"/><path class="cls-15" d="M155.54,55.11c-.72.39-3.49.18-3.49.18s1.37-2.42,2.1-2.8a1.49,1.49,0,0,1,1.4,2.62Z"/><path class="cls-15" d="M153.19,51.45c-.42.71-2.9,2-2.9,2s-.08-2.78.34-3.48a1.49,1.49,0,0,1,2.56,1.52Z"/><path class="cls-15" d="M149.57,48.92c-.15.81-2.05,2.83-2.05,2.83s-1-2.58-.87-3.39a1.49,1.49,0,1,1,2.92.56Z"/><path class="cls-15" d="M145.32,47.63a9.05,9.05,0,0,1-.66,2.68A9.06,9.06,0,0,1,143,48.09a1.17,1.17,0,0,1,2.3-.46Z"/><path class="cls-15" d="M141.38,47.2a9.05,9.05,0,0,1,.32,2.74,9.05,9.05,0,0,1-2.32-1.5,1.17,1.17,0,1,1,2-1.24Z"/><path class="cls-15" d="M138.28,49.61a7.16,7.16,0,0,1,1.21,1.82,7.16,7.16,0,0,1-2.17-.23.93.93,0,1,1,1-1.59Z"/><path class="cls-13" d="M136.71,73.57c1.7-.21,1.86-2.21,3.51-2.41,2.05-.24,4.84,2.5,5,5.36.19,3.29-3.14,6.1-6.09,6.85-5,1.27-9.61-3.31-11.28-5-6.74-6.75-5.8-15.93-5.56-17.74.34-2.63.86-6.68,3.69-7.77a5.45,5.45,0,0,1,6.1,2c1.64,2.34,1,5.76-.55,6.84-.78.54-1.36.2-1.85.74C128.29,64,131,68.41,131.34,69,132.32,70.51,134.42,73.85,136.71,73.57Z"/><path class="cls-15" d="M138.36,77.32c-.12-.81-1.93-2.92-1.93-2.92s-1.13,2.54-1,3.35a1.49,1.49,0,1,0,2.94-.43Z"/><path class="cls-15" d="M142,74c-.69-.44-3.47-.44-3.47-.44s1.19,2.51,1.88,3A1.49,1.49,0,1,0,142,74Z"/><path class="cls-15" d="M133.85,76.84c.38-.73.17-3.5.17-3.5s-2.41,1.38-2.8,2.1a1.49,1.49,0,1,0,2.63,1.39Z"/><path class="cls-15" d="M130.19,74.5c.71-.42,2-2.9,2-2.9s-2.78-.07-3.48.35a1.49,1.49,0,0,0,1.52,2.55Z"/><path class="cls-15" d="M127.65,70.88c.81-.16,2.83-2.06,2.83-2.06s-2.59-1-3.39-.86a1.49,1.49,0,0,0,.56,2.92Z"/><path class="cls-15" d="M126.35,66.63A9.05,9.05,0,0,0,129,66a9.05,9.05,0,0,0-2.22-1.64,1.17,1.17,0,1,0-.46,2.3Z"/><path class="cls-15" d="M125.92,62.69a9.05,9.05,0,0,0,2.74.32,9.06,9.06,0,0,0-1.51-2.31,1.17,1.17,0,0,0-1.24,2Z"/><path class="cls-15" d="M128.31,59.59a7.16,7.16,0,0,0,1.82,1.21,7.16,7.16,0,0,0-.24-2.17.93.93,0,0,0-1.59,1Z"/><g class="cls-16"><path class="cls-17" d="M132.93,54.75c1.37,3.83,15.73,20.75,15.87,20.89,5.23,5.22,2.83,2,4.91-.26l.12-.12.12-.12c2.27-2.09,5.47.3.25-4.91-.14-.14-17.08-14.47-20.92-15.82l-.37-.37a.31.31,0,0,1-.35.35Z"/></g><g class="cls-18"><path class="cls-19" d="M156.61,46.14c4.66,3.1,7.29,8.11,6.68,13a12.4,12.4,0,0,1-3.15,6.67c-.81,1.9-1,3.48-.37,3.91s2.38-.62,3.28-1.48c3.47-3.35,3.37-11,.06-16.29A16,16,0,0,0,156.61,46.14Z"/></g><g class="cls-20"><path class="cls-21" d="M137.74,45.15c1.81-.24,11-1.2,17.75,5.53,1.67,1.66,6.26,6.23,5,11.27a9.2,9.2,0,0,1-1.64,3.3,9.23,9.23,0,0,0,3.21-4.88c1.26-5-3.33-9.61-5-11.27-6.76-6.72-15.94-5.76-17.75-5.53-2.47.32-6.18.81-7.52,3.2A15.56,15.56,0,0,1,137.74,45.15Z"/><path class="cls-21" d="M150.12,60.75a2.48,2.48,0,0,0,.31-.42A2.4,2.4,0,0,0,150.12,60.75Z"/><path class="cls-21" d="M139.6,52.54c-.41.37-.32.79-.47,1.3a3.2,3.2,0,0,0,1.31-1,2,2,0,0,0,.29-.66A1.71,1.71,0,0,0,139.6,52.54Z"/></g><path class="cls-22" d="M130,54.59c2,2.67,1.59,6.32,0,7.36-.8.52-1.46.1-1.94.65-1.37,1.55,1.93,6.53,2.35,7.14,1.19,1.77,3.74,5.56,6.2,5.45,1.82-.09,1.83-2.24,3.6-2.31s3.84,1.67,5,3.85c0-.07,0-.14,0-.21-.16-2.86-2.94-5.6-5-5.36-1.65.2-1.81,2.2-3.51,2.41-2.29.28-4.39-3.06-5.37-4.62-.34-.54-3.05-4.93-1.67-6.47.49-.54,1.07-.2,1.85-.74,1.57-1.08,2.19-4.5.55-6.84a5.6,5.6,0,0,0-4.34-2.3A7.25,7.25,0,0,1,130,54.59Z"/><path class="cls-13" d="M176,76l.72.37a21.58,21.58,0,0,0,15.18,1.09,19.94,19.94,0,0,0,11.26-10.18A19.94,19.94,0,0,0,213.28,56a21.58,21.58,0,0,0-1.13-15.18c-.16-.32-.28-.56-.37-.72C205.19,27.71,188,27.44,182.2,28.67a20.59,20.59,0,0,0-7.76,3.7,25.79,25.79,0,0,0-6.28,6.29,20.59,20.59,0,0,0-3.69,7.77C163.24,52.27,163.55,69.43,176,76Z"/><path class="cls-14" d="M176.57,74.73l.68.35a20.45,20.45,0,0,0,14.38,1,18.89,18.89,0,0,0,10.67-9.65,18.89,18.89,0,0,0,9.62-10.69,20.45,20.45,0,0,0-1.07-14.38c-.15-.3-.27-.53-.35-.68-6.25-11.75-22.51-12-28-10.83a19.51,19.51,0,0,0-7.35,3.51,24.44,24.44,0,0,0-5.95,6,19.51,19.51,0,0,0-3.5,7.36C164.51,52.24,164.8,68.5,176.57,74.73Z"/><path class="cls-13" d="M198.85,47.88c-.21,1.7-2.21,1.87-2.4,3.51-.24,2.05,2.51,4.83,5.37,5,3.3.18,6.09-3.16,6.83-6.11,1.26-5-3.33-9.61-5-11.27-6.76-6.72-15.94-5.76-17.75-5.53-2.63.34-6.67.88-7.76,3.71a5.45,5.45,0,0,0,2,6.1c2.35,1.64,5.76,1,6.84-.56.54-.78.19-1.36.74-1.85,1.53-1.38,5.93,1.32,6.47,1.66C195.79,43.5,199.13,45.59,198.85,47.88Z"/><path class="cls-15" d="M202.61,49.52c-.81-.12-2.92-1.92-2.92-1.92s2.54-1.14,3.35-1a1.49,1.49,0,0,1-.43,2.94Z"/><path class="cls-15" d="M199.34,53.13c-.44-.69-.45-3.47-.45-3.47s2.51,1.18,3,1.87a1.49,1.49,0,1,1-2.51,1.6Z"/><path class="cls-15" d="M202.12,45c-.72.39-3.49.18-3.49.18s1.37-2.42,2.1-2.8a1.49,1.49,0,1,1,1.4,2.62Z"/><path class="cls-15" d="M199.76,41.36c-.42.71-2.9,2-2.9,2s-.08-2.78.34-3.48a1.49,1.49,0,1,1,2.56,1.52Z"/><path class="cls-15" d="M196.15,38.83c-.15.81-2.05,2.83-2.05,2.83s-1-2.58-.87-3.39a1.49,1.49,0,0,1,2.92.56Z"/><path class="cls-15" d="M191.89,37.54a9.05,9.05,0,0,1-.66,2.68A9.05,9.05,0,0,1,189.59,38a1.17,1.17,0,1,1,2.3-.46Z"/><path class="cls-15" d="M188,37.11a9.05,9.05,0,0,1,.32,2.74,9.05,9.05,0,0,1-2.32-1.5,1.17,1.17,0,1,1,2-1.24Z"/><path class="cls-15" d="M184.85,39.51a7.16,7.16,0,0,1,1.21,1.82,7.16,7.16,0,0,1-2.17-.23.93.93,0,1,1,1-1.59Z"/><path class="cls-13" d="M183.29,63.48c1.7-.21,1.86-2.21,3.51-2.41,2.05-.24,4.84,2.5,5,5.36.19,3.29-3.14,6.1-6.09,6.85-5,1.27-9.61-3.31-11.28-5-6.74-6.75-5.8-15.93-5.56-17.74.34-2.63.86-6.68,3.69-7.77a5.45,5.45,0,0,1,6.1,2c1.64,2.34,1,5.76-.55,6.84-.78.54-1.36.2-1.85.74-1.38,1.53,1.33,5.92,1.67,6.47C178.9,60.42,181,63.76,183.29,63.48Z"/><path class="cls-15" d="M184.93,67.23c-.12-.81-1.93-2.92-1.93-2.92s-1.13,2.54-1,3.35a1.49,1.49,0,0,0,2.94-.43Z"/><path class="cls-15" d="M188.54,64c-.69-.44-3.47-.44-3.47-.44s1.19,2.51,1.88,3A1.49,1.49,0,0,0,188.54,64Z"/><path class="cls-15" d="M180.43,66.75c.38-.73.17-3.5.17-3.5s-2.41,1.38-2.8,2.1a1.49,1.49,0,1,0,2.63,1.39Z"/><path class="cls-15" d="M176.77,64.4c.7-.42,2-2.9,2-2.9s-2.78-.07-3.48.35a1.49,1.49,0,1,0,1.52,2.55Z"/><path class="cls-15" d="M174.23,60.79c.81-.16,2.83-2.06,2.83-2.06s-2.59-1-3.39-.86a1.49,1.49,0,1,0,.56,2.92Z"/><path class="cls-15" d="M172.93,56.54a9.05,9.05,0,0,0,2.68-.66,9.06,9.06,0,0,0-2.22-1.64,1.17,1.17,0,1,0-.46,2.3Z"/><path class="cls-15" d="M172.49,52.6a9.06,9.06,0,0,0,2.74.32,9.06,9.06,0,0,0-1.51-2.31,1.17,1.17,0,1,0-1.24,2Z"/><path class="cls-15" d="M174.89,49.5a7.16,7.16,0,0,0,1.82,1.21,7.16,7.16,0,0,0-.24-2.17.93.93,0,0,0-1.59,1Z"/><g class="cls-16"><path class="cls-17" d="M179.51,44.66c1.37,3.83,15.73,20.75,15.87,20.89,5.23,5.22,2.83,2,4.91-.26l.12-.12.12-.12c2.27-2.09,5.47.3.25-4.91-.14-.14-17.08-14.47-20.92-15.82l-.37-.37a.31.31,0,0,1-.35.35Z"/></g><g class="cls-18"><path class="cls-19" d="M203.19,36c4.66,3.1,7.29,8.11,6.68,13a12.4,12.4,0,0,1-3.15,6.67c-.81,1.9-1,3.48-.37,3.91s2.38-.62,3.28-1.48c3.47-3.35,3.37-11,.06-16.29A16,16,0,0,0,203.19,36Z"/></g><g class="cls-20"><path class="cls-21" d="M184.32,35.06c1.81-.24,11-1.2,17.75,5.53,1.67,1.66,6.26,6.23,5,11.27a9.19,9.19,0,0,1-1.64,3.3,9.23,9.23,0,0,0,3.21-4.88c1.26-5-3.33-9.61-5-11.27-6.76-6.72-15.94-5.76-17.75-5.53-2.47.32-6.18.81-7.52,3.21A15.55,15.55,0,0,1,184.32,35.06Z"/><path class="cls-21" d="M196.7,50.66a2.49,2.49,0,0,0,.31-.42A2.4,2.4,0,0,0,196.7,50.66Z"/><path class="cls-21" d="M186.18,42.45c-.41.37-.32.79-.47,1.3a3.2,3.2,0,0,0,1.31-1,2,2,0,0,0,.29-.66A1.71,1.71,0,0,0,186.18,42.45Z"/></g><path class="cls-22" d="M176.58,44.5c2,2.67,1.59,6.32,0,7.36-.8.52-1.45.1-1.94.65-1.37,1.55,1.93,6.53,2.35,7.14,1.19,1.77,3.74,5.56,6.2,5.45,1.82-.09,1.83-2.24,3.6-2.31s3.84,1.67,5,3.85c0-.07,0-.14,0-.21-.16-2.86-2.94-5.6-5-5.36-1.65.2-1.81,2.2-3.51,2.41-2.29.28-4.39-3.06-5.37-4.62-.34-.54-3.05-4.93-1.67-6.47.49-.54,1.07-.2,1.85-.74,1.57-1.08,2.19-4.5.55-6.84a5.6,5.6,0,0,0-4.34-2.3A7.24,7.24,0,0,1,176.58,44.5Z"/><path class="cls-10" d="M188.88,80.3c20.21.21,34-30.43,30.08-34.57-1.79-1.91-6.53,2.65-12.86-.1-5-2.15-6.48-6.88-9.88-6.38-2.71.4-3,3.57-5.41,3.71-3.83.22-5.65-7.47-8.75-7.21-3.47.28-3.56,10.16-7.85,11.1-3.94.87-7.1-6.79-9.29-6-3.3,1.18-4.33,21.59,8.37,32.8C174.88,75,180.74,80.22,188.88,80.3Z"/><path class="cls-11" d="M191.06,75c9-.77,17.89-13.26,15.79-19.93-.28-.89-1.48-2.66-3.88-6.21-4.28-6.34-5.23-6.52-5.69-6.53-3.36-.05-4.71,8.84-7.48,8.73-3.24-.13-4.74-12.38-6.68-12.23s-.67,11-4.78,12.68c-4.4,1.8-11.29-8.38-12.36-7.6C164.26,45.22,176.17,76.33,191.06,75Z"/><path class="cls-10" d="M152.48,91.69C171,83.54,170.86,50,165.61,47.79c-2.42-1-4.86,5.11-11.76,5.22-5.41.09-8.74-3.6-11.63-1.73-2.3,1.48-1.24,4.48-3.4,5.62-3.39,1.78-8.23-4.47-10.94-3-3,1.69.95,10.72-2.57,13.35C122.07,69.7,116,64,114.37,65.64c-2.52,2.44,5,21.45,21.15,26.42C137.56,92.68,145,95,152.48,91.69Z"/><path class="cls-11" d="M152.3,86c7.88-4.42,10.83-19.46,6.16-24.67-.62-.69-2.45-1.81-6.09-4.06-6.51-4-7.46-3.78-7.88-3.6-3.09,1.34-.64,10-3.21,11-3,1.22-9.42-9.32-11.13-8.39s3.93,10.29.88,13.52c-3.26,3.46-13.74-3-14.39-1.82C115.58,69.9,139.25,93.32,152.3,86Z"/><path class="cls-10" d="M136.81,117.68c-11.51,16.62-44.46,10.16-45.6,4.59-.52-2.56,5.94-3.8,7.35-10.56,1.11-5.3-1.88-9.26.5-11.75,1.89-2,4.63-.37,6.16-2.27,2.39-3-2.83-8.93-.84-11.31,2.24-2.67,10.35,3,13.59,0,3-2.72-1.45-9.72.45-11.05,2.87-2,20.12,8.93,21.94,25.77C140.61,103.22,141.45,111,136.81,117.68Z"/><path class="cls-11" d="M131.26,116.43c-5.83,6.9-21.16,6.95-25.39,1.38-.56-.74-1.32-2.74-2.83-6.75-2.7-7.16-2.3-8-2-8.42,1.9-2.78,9.94,1.26,11.45-1.07,1.77-2.72-7.37-11-6.13-12.51s9.36,5.81,13.11,3.43c4-2.55-.32-14.05.94-14.47C122.39,77.33,140.91,105,131.26,116.43Z"/><path class="cls-12" d="M86.33,184.38a201.55,201.55,0,0,1,24.07-60.55c9.47-15.71,46.71-77.49,91.6-72.2,18,2.12,40.14,15.38,46.58,36.49,3.24,10.62,1.64,20.36,0,26.39Z"/><path class="cls-31" d="M91.51,177.14A232.6,232.6,0,0,1,129,106.75c17.5-22.33,40.22-50.82,69.87-49.68,11.83.45,29.66,5.82,35.71,19.41,2.59,5.82,3.91,15.15-.78,20.18-7.32,7.87-25.29.94-33.38-.78C180.83,91.72,148.1,103,91.51,177.14Z"/><circle class="cls-32" cx="120.62" cy="149.24" r="2.54" transform="translate(-66.42 192.13) rotate(-63.97)"/><circle class="cls-32" cx="146.91" cy="115.99" r="2.38" transform="translate(-39.65 131.18) rotate(-42.95)"/><circle class="cls-32" cx="185.14" cy="119.41" r="2.25" transform="translate(-35.06 126.27) rotate(-34.61)"/><circle class="cls-32" cx="223.09" cy="93.04" r="1.65" transform="matrix(0.25, -0.97, 0.97, 0.25, 76.54, 285.26)"/><circle class="cls-32" cx="182.45" cy="77.11" r="1.64" transform="translate(-5.4 14.3) rotate(-4.42)"/><path class="cls-31" d="M97.72,169.89c31.18-64.16,72-105.26,105.93-99.69C216.76,72.35,231.88,82,231.5,90.45c-.57,12.73-35.76,14.77-77.63,37.26A236.42,236.42,0,0,0,97.72,169.89Z"/></g></g></g></svg>