<svg xmlns="http://www.w3.org/2000/svg" xmlns:xlink="http://www.w3.org/1999/xlink" viewBox="0 0 276.76 68.37"><defs><style>.cls-1{fill:#ccc;}.cls-2{fill:#d42128;}.cls-3{fill:#c0262c;}.cls-4{fill:url(#linear-gradient);}.cls-5{fill:url(#linear-gradient-2);}.cls-6{fill:url(#linear-gradient-3);}.cls-7{fill:url(#linear-gradient-4);}.cls-8{fill:url(#linear-gradient-5);}.cls-9{fill:url(#linear-gradient-6);}.cls-10{fill:url(#linear-gradient-7);}.cls-11{fill:url(#linear-gradient-8);}.cls-12{fill:url(#linear-gradient-9);}.cls-13{fill:url(#linear-gradient-10);}.cls-14{fill:url(#linear-gradient-11);}.cls-15{fill:url(#linear-gradient-12);}.cls-16{fill:url(#linear-gradient-13);}.cls-17{fill:url(#linear-gradient-14);}.cls-18{fill:url(#linear-gradient-15);}.cls-19{fill:url(#linear-gradient-16);}.cls-20{fill:url(#linear-gradient-17);}.cls-21{fill:url(#linear-gradient-18);}.cls-22{fill:url(#linear-gradient-19);}.cls-23{fill:url(#linear-gradient-20);}.cls-24{fill:url(#linear-gradient-21);}.cls-25{fill:url(#linear-gradient-22);}.cls-26{fill:url(#linear-gradient-23);}.cls-27{fill:url(#linear-gradient-24);}.cls-28{fill:url(#linear-gradient-25);}.cls-29{fill:url(#linear-gradient-26);}.cls-30{fill:url(#linear-gradient-27);}.cls-31{fill:url(#linear-gradient-28);}.cls-32{fill:url(#linear-gradient-29);}.cls-33{fill:url(#linear-gradient-30);}.cls-34{fill:url(#linear-gradient-31);}.cls-35{fill:url(#linear-gradient-32);}.cls-36{fill:url(#linear-gradient-33);}.cls-37{fill:url(#linear-gradient-34);}.cls-38{fill:url(#linear-gradient-35);}.cls-39{fill:url(#linear-gradient-36);}.cls-40{fill:url(#linear-gradient-37);}.cls-41{fill:url(#linear-gradient-38);}.cls-42{fill:url(#linear-gradient-39);}.cls-43{fill:url(#linear-gradient-40);}.cls-44{fill:url(#linear-gradient-41);}.cls-45{fill:url(#linear-gradient-42);}.cls-46{fill:url(#linear-gradient-43);}.cls-47{fill:url(#linear-gradient-44);}.cls-48{fill:url(#linear-gradient-45);}.cls-49{fill:url(#linear-gradient-46);}.cls-50{fill:url(#linear-gradient-47);}.cls-51{fill:url(#linear-gradient-48);}.cls-52{fill:url(#linear-gradient-49);}.cls-53{fill:url(#linear-gradient-50);}.cls-54{fill:url(#linear-gradient-51);}.cls-55{fill:#922e33;}.cls-56{fill:#f5f5f5;}.cls-57{fill:url(#linear-gradient-52);}.cls-58{fill:url(#linear-gradient-53);}.cls-59{fill:url(#linear-gradient-54);}.cls-60{fill:url(#linear-gradient-55);}.cls-61{fill:url(#linear-gradient-56);}.cls-62{fill:url(#linear-gradient-57);}.cls-63{fill:url(#linear-gradient-58);}.cls-64{fill:url(#linear-gradient-59);}.cls-65{fill:url(#linear-gradient-60);}.cls-66{fill:url(#linear-gradient-61);}.cls-67{fill:url(#linear-gradient-62);}.cls-68{fill:url(#linear-gradient-63);}.cls-69{fill:url(#linear-gradient-64);}.cls-70{fill:url(#linear-gradient-65);}.cls-71{fill:url(#linear-gradient-66);}.cls-72{fill:url(#linear-gradient-67);}.cls-73{fill:url(#linear-gradient-68);}.cls-74{fill:url(#linear-gradient-69);}.cls-75{fill:url(#linear-gradient-70);}.cls-76{fill:url(#linear-gradient-71);}.cls-77{fill:url(#linear-gradient-72);}.cls-78{fill:url(#linear-gradient-73);}.cls-79{fill:url(#linear-gradient-74);}.cls-80{fill:url(#linear-gradient-75);}.cls-81{fill:url(#linear-gradient-76);}.cls-82{fill:url(#linear-gradient-77);}.cls-83{fill:url(#linear-gradient-78);}.cls-84{fill:url(#linear-gradient-79);}.cls-85{fill:url(#linear-gradient-80);}.cls-86{fill:url(#linear-gradient-81);}.cls-87{fill:url(#linear-gradient-82);}.cls-88{fill:url(#linear-gradient-83);}.cls-89{fill:url(#linear-gradient-84);}.cls-90{fill:url(#linear-gradient-85);}.cls-91{fill:url(#linear-gradient-86);}.cls-92{fill:url(#linear-gradient-87);}.cls-93{fill:url(#linear-gradient-88);}.cls-94{fill:url(#linear-gradient-89);}.cls-95{fill:url(#linear-gradient-90);}.cls-96{fill:url(#linear-gradient-91);}.cls-97{fill:url(#linear-gradient-92);}.cls-98{fill:url(#linear-gradient-93);}.cls-99{fill:url(#linear-gradient-94);}.cls-100{fill:url(#linear-gradient-95);}.cls-101{fill:url(#linear-gradient-96);}.cls-102{fill:url(#linear-gradient-97);}.cls-103{fill:url(#linear-gradient-98);}.cls-104{fill:url(#linear-gradient-99);}.cls-105{fill:url(#linear-gradient-100);}.cls-106{fill:url(#linear-gradient-101);}.cls-107{fill:url(#linear-gradient-102);}</style><linearGradient id="linear-gradient" x1="227.77" y1="34.18" x2="263.08" y2="34.18" gradientUnits="userSpaceOnUse"><stop offset="0" stop-color="#a82a30"/><stop offset="1" stop-color="#a82a30"/></linearGradient><linearGradient id="linear-gradient-2" x1="227.85" y1="34.18" x2="263.16" y2="34.18" xlink:href="#linear-gradient"/><linearGradient id="linear-gradient-3" x1="227.93" y1="34.18" x2="263.24" y2="34.18" gradientUnits="userSpaceOnUse"><stop offset="0" stop-color="#a72a30"/><stop offset="1" stop-color="#a72a30"/></linearGradient><linearGradient id="linear-gradient-4" x1="228.01" y1="34.18" x2="263.32" y2="34.18" xlink:href="#linear-gradient-3"/><linearGradient id="linear-gradient-5" x1="228.09" y1="34.18" x2="263.41" y2="34.18" gradientUnits="userSpaceOnUse"><stop offset="0" stop-color="#a62a30"/><stop offset="1" stop-color="#a62a30"/></linearGradient><linearGradient id="linear-gradient-6" x1="228.17" y1="34.18" x2="263.49" y2="34.18" xlink:href="#linear-gradient-5"/><linearGradient id="linear-gradient-7" x1="228.25" y1="34.18" x2="263.57" y2="34.18" gradientUnits="userSpaceOnUse"><stop offset="0" stop-color="#a52a30"/><stop offset="1" stop-color="#a52a30"/></linearGradient><linearGradient id="linear-gradient-8" x1="228.33" y1="34.18" x2="263.65" y2="34.18" gradientUnits="userSpaceOnUse"><stop offset="0" stop-color="#a52b30"/><stop offset="1" stop-color="#a52b30"/></linearGradient><linearGradient id="linear-gradient-9" x1="228.41" y1="34.18" x2="263.73" y2="34.18" xlink:href="#linear-gradient-8"/><linearGradient id="linear-gradient-10" x1="228.49" y1="34.18" x2="263.81" y2="34.18" gradientUnits="userSpaceOnUse"><stop offset="0" stop-color="#a42b31"/><stop offset="1" stop-color="#a42b31"/></linearGradient><linearGradient id="linear-gradient-11" x1="228.57" y1="34.18" x2="263.9" y2="34.18" xlink:href="#linear-gradient-10"/><linearGradient id="linear-gradient-12" x1="228.65" y1="34.18" x2="263.98" y2="34.18" gradientUnits="userSpaceOnUse"><stop offset="0" stop-color="#a32b31"/><stop offset="1" stop-color="#a32b31"/></linearGradient><linearGradient id="linear-gradient-13" x1="228.73" y1="34.18" x2="264.06" y2="34.18" xlink:href="#linear-gradient-12"/><linearGradient id="linear-gradient-14" x1="228.81" y1="34.18" x2="264.14" y2="34.18" gradientUnits="userSpaceOnUse"><stop offset="0" stop-color="#a22b31"/><stop offset="1" stop-color="#a22b31"/></linearGradient><linearGradient id="linear-gradient-15" x1="228.89" y1="34.18" x2="264.22" y2="34.18" xlink:href="#linear-gradient-14"/><linearGradient id="linear-gradient-16" x1="228.97" y1="34.18" x2="264.31" y2="34.18" xlink:href="#linear-gradient-14"/><linearGradient id="linear-gradient-17" x1="229.05" y1="34.18" x2="264.39" y2="34.18" gradientUnits="userSpaceOnUse"><stop offset="0" stop-color="#a12b31"/><stop offset="1" stop-color="#a12b31"/></linearGradient><linearGradient id="linear-gradient-18" x1="229.13" y1="34.18" x2="264.47" y2="34.18" xlink:href="#linear-gradient-17"/><linearGradient id="linear-gradient-19" x1="229.21" y1="34.18" x2="264.55" y2="34.18" gradientUnits="userSpaceOnUse"><stop offset="0" stop-color="#a02b31"/><stop offset="1" stop-color="#a02b31"/></linearGradient><linearGradient id="linear-gradient-20" x1="229.29" y1="34.18" x2="264.63" y2="34.18" xlink:href="#linear-gradient-19"/><linearGradient id="linear-gradient-21" x1="229.37" y1="34.18" x2="264.71" y2="34.18" gradientUnits="userSpaceOnUse"><stop offset="0" stop-color="#9f2c31"/><stop offset="1" stop-color="#9f2c31"/></linearGradient><linearGradient id="linear-gradient-22" x1="229.46" y1="34.18" x2="264.8" y2="34.18" xlink:href="#linear-gradient-21"/><linearGradient id="linear-gradient-23" x1="229.54" y1="34.18" x2="264.88" y2="34.18" xlink:href="#linear-gradient-21"/><linearGradient id="linear-gradient-24" x1="229.62" y1="34.18" x2="264.96" y2="34.18" gradientUnits="userSpaceOnUse"><stop offset="0" stop-color="#9e2c31"/><stop offset="1" stop-color="#9e2c31"/></linearGradient><linearGradient id="linear-gradient-25" x1="229.7" y1="34.18" x2="265.04" y2="34.18" xlink:href="#linear-gradient-24"/><linearGradient id="linear-gradient-26" x1="229.78" y1="34.18" x2="265.12" y2="34.18" gradientUnits="userSpaceOnUse"><stop offset="0" stop-color="#9d2c31"/><stop offset="1" stop-color="#9d2c31"/></linearGradient><linearGradient id="linear-gradient-27" x1="229.86" y1="34.18" x2="265.21" y2="34.18" gradientUnits="userSpaceOnUse"><stop offset="0" stop-color="#9d2c32"/><stop offset="1" stop-color="#9d2c32"/></linearGradient><linearGradient id="linear-gradient-28" x1="229.94" y1="34.18" x2="265.29" y2="34.18" gradientUnits="userSpaceOnUse"><stop offset="0" stop-color="#9c2c32"/><stop offset="1" stop-color="#9c2c32"/></linearGradient><linearGradient id="linear-gradient-29" x1="230.02" y1="34.18" x2="265.37" y2="34.18" xlink:href="#linear-gradient-28"/><linearGradient id="linear-gradient-30" x1="230.1" y1="34.18" x2="265.45" y2="34.18" gradientUnits="userSpaceOnUse"><stop offset="0" stop-color="#9b2c32"/><stop offset="1" stop-color="#9b2c32"/></linearGradient><linearGradient id="linear-gradient-31" x1="230.18" y1="34.18" x2="265.53" y2="34.18" xlink:href="#linear-gradient-30"/><linearGradient id="linear-gradient-32" x1="230.26" y1="34.18" x2="265.62" y2="34.18" xlink:href="#linear-gradient-30"/><linearGradient id="linear-gradient-33" x1="230.34" y1="34.18" x2="265.7" y2="34.18" gradientUnits="userSpaceOnUse"><stop offset="0" stop-color="#9a2d32"/><stop offset="1" stop-color="#9a2d32"/></linearGradient><linearGradient id="linear-gradient-34" x1="230.42" y1="34.18" x2="265.78" y2="34.18" xlink:href="#linear-gradient-33"/><linearGradient id="linear-gradient-35" x1="230.5" y1="34.18" x2="265.86" y2="34.18" gradientUnits="userSpaceOnUse"><stop offset="0" stop-color="#992d32"/><stop offset="1" stop-color="#992d32"/></linearGradient><linearGradient id="linear-gradient-36" x1="230.58" y1="34.18" x2="265.94" y2="34.18" xlink:href="#linear-gradient-35"/><linearGradient id="linear-gradient-37" x1="230.66" y1="34.18" x2="266.03" y2="34.18" gradientUnits="userSpaceOnUse"><stop offset="0" stop-color="#982d32"/><stop offset="1" stop-color="#982d32"/></linearGradient><linearGradient id="linear-gradient-38" x1="230.74" y1="34.18" x2="266.11" y2="34.18" xlink:href="#linear-gradient-37"/><linearGradient id="linear-gradient-39" x1="230.82" y1="34.18" x2="266.19" y2="34.18" xlink:href="#linear-gradient-37"/><linearGradient id="linear-gradient-40" x1="230.9" y1="34.18" x2="266.27" y2="34.18" gradientUnits="userSpaceOnUse"><stop offset="0" stop-color="#972d32"/><stop offset="1" stop-color="#972d32"/></linearGradient><linearGradient id="linear-gradient-41" x1="230.98" y1="34.18" x2="266.35" y2="34.18" xlink:href="#linear-gradient-40"/><linearGradient id="linear-gradient-42" x1="231.06" y1="34.18" x2="266.43" y2="34.18" gradientUnits="userSpaceOnUse"><stop offset="0" stop-color="#962d32"/><stop offset="1" stop-color="#962d32"/></linearGradient><linearGradient id="linear-gradient-43" x1="231.14" y1="34.18" x2="266.52" y2="34.18" xlink:href="#linear-gradient-42"/><linearGradient id="linear-gradient-44" x1="231.22" y1="34.18" x2="266.6" y2="34.18" gradientUnits="userSpaceOnUse"><stop offset="0" stop-color="#952d33"/><stop offset="1" stop-color="#952d33"/></linearGradient><linearGradient id="linear-gradient-45" x1="231.3" y1="34.18" x2="266.68" y2="34.18" xlink:href="#linear-gradient-44"/><linearGradient id="linear-gradient-46" x1="231.38" y1="34.18" x2="266.76" y2="34.18" gradientUnits="userSpaceOnUse"><stop offset="0" stop-color="#952e33"/><stop offset="1" stop-color="#952e33"/></linearGradient><linearGradient id="linear-gradient-47" x1="231.46" y1="34.18" x2="266.84" y2="34.18" gradientUnits="userSpaceOnUse"><stop offset="0" stop-color="#942e33"/><stop offset="1" stop-color="#942e33"/></linearGradient><linearGradient id="linear-gradient-48" x1="231.54" y1="34.18" x2="266.93" y2="34.18" xlink:href="#linear-gradient-47"/><linearGradient id="linear-gradient-49" x1="231.62" y1="34.18" x2="267.01" y2="34.18" gradientUnits="userSpaceOnUse"><stop offset="0" stop-color="#932e33"/><stop offset="1" stop-color="#932e33"/></linearGradient><linearGradient id="linear-gradient-50" x1="231.7" y1="34.18" x2="267.09" y2="34.18" xlink:href="#linear-gradient-49"/><linearGradient id="linear-gradient-51" x1="231.78" y1="34.18" x2="267.17" y2="34.18" gradientUnits="userSpaceOnUse"><stop offset="0" stop-color="#922e33"/><stop offset="1" stop-color="#922e33"/></linearGradient><linearGradient id="linear-gradient-52" x1="13.67" y1="34.18" x2="48.97" y2="34.18" xlink:href="#linear-gradient"/><linearGradient id="linear-gradient-53" x1="13.58" y1="34.18" x2="48.89" y2="34.18" xlink:href="#linear-gradient"/><linearGradient id="linear-gradient-54" x1="13.5" y1="34.18" x2="48.81" y2="34.18" xlink:href="#linear-gradient-3"/><linearGradient id="linear-gradient-55" x1="13.42" y1="34.18" x2="48.73" y2="34.18" xlink:href="#linear-gradient-3"/><linearGradient id="linear-gradient-56" x1="13.34" y1="34.18" x2="48.65" y2="34.18" xlink:href="#linear-gradient-5"/><linearGradient id="linear-gradient-57" x1="13.26" y1="34.18" x2="48.57" y2="34.18" xlink:href="#linear-gradient-5"/><linearGradient id="linear-gradient-58" x1="13.17" y1="34.18" x2="48.49" y2="34.18" xlink:href="#linear-gradient-7"/><linearGradient id="linear-gradient-59" x1="13.09" y1="34.18" x2="48.41" y2="34.18" xlink:href="#linear-gradient-8"/><linearGradient id="linear-gradient-60" x1="13.01" y1="34.18" x2="48.33" y2="34.18" xlink:href="#linear-gradient-8"/><linearGradient id="linear-gradient-61" x1="12.93" y1="34.18" x2="48.25" y2="34.18" xlink:href="#linear-gradient-10"/><linearGradient id="linear-gradient-62" x1="12.85" y1="34.18" x2="48.17" y2="34.18" xlink:href="#linear-gradient-10"/><linearGradient id="linear-gradient-63" x1="12.77" y1="34.18" x2="48.09" y2="34.18" xlink:href="#linear-gradient-12"/><linearGradient id="linear-gradient-64" x1="12.68" y1="34.18" x2="48.01" y2="34.18" xlink:href="#linear-gradient-12"/><linearGradient id="linear-gradient-65" x1="12.6" y1="34.18" x2="47.93" y2="34.18" xlink:href="#linear-gradient-14"/><linearGradient id="linear-gradient-66" x1="12.52" y1="34.18" x2="47.85" y2="34.18" xlink:href="#linear-gradient-14"/><linearGradient id="linear-gradient-67" x1="12.44" y1="34.18" x2="47.77" y2="34.18" xlink:href="#linear-gradient-14"/><linearGradient id="linear-gradient-68" x1="12.36" y1="34.18" x2="47.69" y2="34.18" xlink:href="#linear-gradient-17"/><linearGradient id="linear-gradient-69" x1="12.27" y1="34.18" x2="47.61" y2="34.18" xlink:href="#linear-gradient-17"/><linearGradient id="linear-gradient-70" x1="12.19" y1="34.18" x2="47.53" y2="34.18" xlink:href="#linear-gradient-19"/><linearGradient id="linear-gradient-71" x1="12.11" y1="34.18" x2="47.45" y2="34.18" xlink:href="#linear-gradient-19"/><linearGradient id="linear-gradient-72" x1="12.03" y1="34.18" x2="47.37" y2="34.18" xlink:href="#linear-gradient-21"/><linearGradient id="linear-gradient-73" x1="11.95" y1="34.18" x2="47.29" y2="34.18" xlink:href="#linear-gradient-21"/><linearGradient id="linear-gradient-74" x1="11.86" y1="34.18" x2="47.21" y2="34.18" xlink:href="#linear-gradient-21"/><linearGradient id="linear-gradient-75" x1="11.78" y1="34.18" x2="47.13" y2="34.18" xlink:href="#linear-gradient-24"/><linearGradient id="linear-gradient-76" x1="11.7" y1="34.18" x2="47.05" y2="34.18" xlink:href="#linear-gradient-24"/><linearGradient id="linear-gradient-77" x1="11.62" y1="34.18" x2="46.97" y2="34.18" xlink:href="#linear-gradient-26"/><linearGradient id="linear-gradient-78" x1="11.54" y1="34.18" x2="46.89" y2="34.18" xlink:href="#linear-gradient-27"/><linearGradient id="linear-gradient-79" x1="11.46" y1="34.18" x2="46.81" y2="34.18" xlink:href="#linear-gradient-28"/><linearGradient id="linear-gradient-80" x1="11.37" y1="34.18" x2="46.73" y2="34.18" xlink:href="#linear-gradient-28"/><linearGradient id="linear-gradient-81" x1="11.29" y1="34.18" x2="46.65" y2="34.18" xlink:href="#linear-gradient-30"/><linearGradient id="linear-gradient-82" x1="11.21" y1="34.18" x2="46.57" y2="34.18" xlink:href="#linear-gradient-30"/><linearGradient id="linear-gradient-83" x1="11.13" y1="34.18" x2="46.49" y2="34.18" xlink:href="#linear-gradient-30"/><linearGradient id="linear-gradient-84" x1="11.05" y1="34.18" x2="46.41" y2="34.18" xlink:href="#linear-gradient-33"/><linearGradient id="linear-gradient-85" x1="10.96" y1="34.18" x2="46.33" y2="34.18" xlink:href="#linear-gradient-33"/><linearGradient id="linear-gradient-86" x1="10.88" y1="34.18" x2="46.25" y2="34.18" xlink:href="#linear-gradient-35"/><linearGradient id="linear-gradient-87" x1="10.8" y1="34.18" x2="46.17" y2="34.18" xlink:href="#linear-gradient-35"/><linearGradient id="linear-gradient-88" x1="10.72" y1="34.18" x2="46.08" y2="34.18" xlink:href="#linear-gradient-37"/><linearGradient id="linear-gradient-89" x1="10.64" y1="34.18" x2="46" y2="34.18" xlink:href="#linear-gradient-37"/><linearGradient id="linear-gradient-90" x1="10.55" y1="34.18" x2="45.92" y2="34.18" xlink:href="#linear-gradient-37"/><linearGradient id="linear-gradient-91" x1="10.47" y1="34.18" x2="45.84" y2="34.18" xlink:href="#linear-gradient-40"/><linearGradient id="linear-gradient-92" x1="10.39" y1="34.18" x2="45.76" y2="34.18" xlink:href="#linear-gradient-40"/><linearGradient id="linear-gradient-93" x1="10.31" y1="34.18" x2="45.68" y2="34.18" xlink:href="#linear-gradient-42"/><linearGradient id="linear-gradient-94" x1="10.23" y1="34.18" x2="45.6" y2="34.18" xlink:href="#linear-gradient-42"/><linearGradient id="linear-gradient-95" x1="10.15" y1="34.18" x2="45.52" y2="34.18" xlink:href="#linear-gradient-44"/><linearGradient id="linear-gradient-96" x1="10.06" y1="34.18" x2="45.44" y2="34.18" xlink:href="#linear-gradient-44"/><linearGradient id="linear-gradient-97" x1="9.98" y1="34.18" x2="45.36" y2="34.18" xlink:href="#linear-gradient-46"/><linearGradient id="linear-gradient-98" x1="9.9" y1="34.18" x2="45.28" y2="34.18" xlink:href="#linear-gradient-47"/><linearGradient id="linear-gradient-99" x1="9.82" y1="34.18" x2="45.2" y2="34.18" xlink:href="#linear-gradient-47"/><linearGradient id="linear-gradient-100" x1="9.74" y1="34.18" x2="45.12" y2="34.18" xlink:href="#linear-gradient-49"/><linearGradient id="linear-gradient-101" x1="9.65" y1="34.18" x2="45.04" y2="34.18" xlink:href="#linear-gradient-49"/><linearGradient id="linear-gradient-102" x1="9.57" y1="34.18" x2="44.96" y2="34.18" xlink:href="#linear-gradient-51"/></defs><title>Ресурс 29elements</title><g id="Слой_2" data-name="Слой 2"><g id="Layer_1" data-name="Layer 1"><path class="cls-1" d="M0,62.74a5.47,5.47,0,0,0,5.3,5.62H271.45a5.47,5.47,0,0,0,5.3-5.62V5.83a5.47,5.47,0,0,0-5.3-5.62H5.3A5.47,5.47,0,0,0,0,5.83Z"/><path class="cls-2" d="M5.3,2.14A5.31,5.31,0,0,0,0,7.45V18.69L16.55,2.14Z"/><polygon class="cls-3" points="16.55 2.14 0 18.69 0 40.7 38.55 2.14 16.55 2.14"/><path class="cls-2" d="M38.55,2.14,0,40.7V61.12A5.29,5.29,0,0,0,.2,62.5L60.56,2.14Z"/><path class="cls-3" d="M60.56,2.14.2,62.5a5.29,5.29,0,0,0,5.1,3.93h13L82.56,2.14Z"/><polygon class="cls-2" points="82.56 2.14 18.27 66.43 40.28 66.43 104.56 2.14 82.56 2.14"/><polygon class="cls-3" points="104.56 2.14 40.28 66.43 62.28 66.43 126.56 2.14 104.56 2.14"/><polygon class="cls-2" points="126.56 2.14 62.28 66.43 84.28 66.43 148.57 2.14 126.56 2.14"/><polygon class="cls-3" points="148.57 2.14 84.28 66.43 106.29 66.43 170.57 2.14 148.57 2.14"/><polygon class="cls-2" points="170.57 2.14 106.29 66.43 128.29 66.43 192.58 2.14 170.57 2.14"/><polygon class="cls-3" points="192.58 2.14 128.29 66.43 150.3 66.43 214.58 2.14 192.58 2.14"/><polygon class="cls-2" points="214.58 2.14 150.3 66.43 172.3 66.43 236.58 2.14 214.58 2.14"/><polygon class="cls-3" points="236.58 2.14 172.3 66.43 194.3 66.43 258.59 2.14 236.58 2.14"/><path class="cls-2" d="M271.45,2.14H258.59L194.3,66.43h22L276.58,6.16A5.29,5.29,0,0,0,271.45,2.14Z"/><path class="cls-3" d="M276.76,7.45a5.16,5.16,0,0,0-.18-1.29L216.31,66.43h22L276.76,28Z"/><polygon class="cls-2" points="276.76 27.98 238.31 66.43 260.31 66.43 276.76 49.99 276.76 27.98"/><path class="cls-3" d="M276.76,61.12V50L260.31,66.43h11.14A5.3,5.3,0,0,0,276.76,61.12Z"/><path class="cls-4" d="M240,32.53l23.1,33.86h-8.47l-26.55-33a1.43,1.43,0,0,1,0-1.74L252.44,2H261Z"/><path class="cls-5" d="M240.05,32.53l23.11,33.86h-8.52l-26.5-33a1.43,1.43,0,0,1,0-1.73L252.46,2h8.64Z"/><path class="cls-6" d="M240.12,32.53l23.12,33.86h-8.57l-26.45-33a1.43,1.43,0,0,1,0-1.73L252.49,2h8.7Z"/><path class="cls-7" d="M240.2,32.53l23.13,33.86H254.7l-26.4-33a1.43,1.43,0,0,1,0-1.72L252.52,2h8.75Z"/><path class="cls-8" d="M240.27,32.53l23.13,33.86h-8.68l-26.35-33a1.43,1.43,0,0,1,0-1.72L252.55,2h8.8Z"/><path class="cls-9" d="M240.34,32.53l23.14,33.86h-8.73l-26.3-33a1.42,1.42,0,0,1,0-1.71L252.58,2h8.86Z"/><path class="cls-10" d="M240.42,32.53l23.15,33.86h-8.78l-26.25-33a1.42,1.42,0,0,1,0-1.71L252.61,2h8.91Z"/><path class="cls-11" d="M240.49,32.53l23.16,33.86h-8.83l-26.21-33a1.42,1.42,0,0,1,0-1.71l24-29.7h9Z"/><path class="cls-12" d="M240.57,32.53l23.17,33.86h-8.88l-26.16-33a1.42,1.42,0,0,1,0-1.7l24-29.7h9Z"/><path class="cls-13" d="M240.64,32.53l23.17,33.86h-8.93l-26.11-33a1.41,1.41,0,0,1,0-1.7L252.69,2h9.07Z"/><path class="cls-14" d="M240.71,32.53,263.9,66.39h-9l-26.06-33a1.41,1.41,0,0,1,0-1.69L252.72,2h9.13Z"/><path class="cls-15" d="M240.79,32.53,264,66.39h-9l-26-33a1.41,1.41,0,0,1,0-1.69L252.75,2h9.18Z"/><path class="cls-16" d="M240.86,32.53l23.2,33.86H255l-26-33a1.41,1.41,0,0,1,0-1.68L252.77,2H262Z"/><path class="cls-17" d="M240.93,32.53l23.21,33.86H255l-25.91-33a1.41,1.41,0,0,1,0-1.68L252.8,2h9.29Z"/><path class="cls-18" d="M241,32.53l23.22,33.86H255l-25.86-33a1.4,1.4,0,0,1,0-1.67L252.83,2h9.34Z"/><path class="cls-19" d="M241.08,32.53l23.23,33.86h-9.24l-25.82-33a1.4,1.4,0,0,1,0-1.67L252.86,2h9.4Z"/><path class="cls-20" d="M241.15,32.53l23.23,33.85h-9.29l-25.77-33a1.4,1.4,0,0,1,0-1.66L252.88,2h9.45Z"/><path class="cls-21" d="M241.23,32.54l23.24,33.85h-9.35l-25.72-33a1.4,1.4,0,0,1,0-1.66L252.91,2h9.51Z"/><path class="cls-22" d="M241.3,32.54l23.25,33.85h-9.4l-25.67-33a1.39,1.39,0,0,1,0-1.66L252.94,2h9.56Z"/><path class="cls-23" d="M241.37,32.54l23.26,33.85h-9.45l-25.62-33a1.39,1.39,0,0,1,0-1.65L253,2h9.61Z"/><path class="cls-24" d="M241.45,32.54l23.27,33.85h-9.5l-25.57-33a1.39,1.39,0,0,1,0-1.65L253,2h9.67Z"/><path class="cls-25" d="M241.52,32.54,264.8,66.39h-9.55l-25.52-33a1.39,1.39,0,0,1,0-1.64L253,2h9.72Z"/><path class="cls-26" d="M241.6,32.54l23.28,33.85h-9.6l-25.47-33a1.39,1.39,0,0,1,0-1.64L253.05,2h9.78Z"/><path class="cls-27" d="M241.67,32.54,265,66.39h-9.65l-25.42-33a1.38,1.38,0,0,1,0-1.63L253.08,2h9.83Z"/><path class="cls-28" d="M241.74,32.54,265,66.39h-9.71L230,33.34a1.38,1.38,0,0,1,0-1.63L253.11,2H263Z"/><path class="cls-29" d="M241.82,32.54l23.31,33.85h-9.76L230,33.34a1.38,1.38,0,0,1,0-1.62L253.14,2h9.94Z"/><path class="cls-30" d="M241.89,32.54l23.32,33.85H255.4L230.12,33.34a1.38,1.38,0,0,1,0-1.62L253.16,2h10Z"/><path class="cls-31" d="M242,32.54l23.32,33.85h-9.86L230.2,33.33a1.38,1.38,0,0,1,0-1.61L253.19,2h10Z"/><path class="cls-32" d="M242,32.54l23.33,33.85h-9.91L230.28,33.33a1.37,1.37,0,0,1,0-1.61L253.22,2h10.1Z"/><path class="cls-33" d="M242.11,32.54l23.34,33.85h-10L230.36,33.33a1.37,1.37,0,0,1,0-1.61L253.25,2H263.4Z"/><path class="cls-34" d="M242.19,32.54l23.35,33.85h-10L230.44,33.33a1.37,1.37,0,0,1,0-1.6L253.28,2h10.21Z"/><path class="cls-35" d="M242.26,32.54l23.36,33.85H255.55l-25-33.06a1.37,1.37,0,0,1,0-1.6L253.3,2h10.26Z"/><path class="cls-36" d="M242.33,32.54,265.7,66.39H255.58l-25-33.07a1.37,1.37,0,0,1,0-1.59L253.33,2h10.32Z"/><path class="cls-37" d="M242.41,32.54l23.37,33.84H255.61L230.67,33.32a1.36,1.36,0,0,1,0-1.59L253.36,2h10.37Z"/><path class="cls-38" d="M242.48,32.55l23.38,33.84H255.64L230.75,33.32a1.36,1.36,0,0,1,0-1.58L253.39,2h10.42Z"/><path class="cls-39" d="M242.55,32.55l23.39,33.84H255.67L230.83,33.32a1.35,1.35,0,0,1,0-1.58L253.42,2h10.48Z"/><path class="cls-40" d="M242.63,32.55,266,66.39H255.7L230.91,33.31a1.36,1.36,0,0,1,0-1.57L253.44,2H264Z"/><path class="cls-41" d="M242.7,32.55l23.41,33.84H255.73L231,33.31a1.36,1.36,0,0,1,0-1.57L253.47,2h10.59Z"/><path class="cls-42" d="M242.77,32.55l23.42,33.84H255.76L231.07,33.31a1.35,1.35,0,0,1,0-1.57L253.5,2h10.64Z"/><path class="cls-43" d="M242.85,32.55l23.42,33.84H255.79L231.15,33.31a1.35,1.35,0,0,1,0-1.56L253.53,2h10.69Z"/><path class="cls-44" d="M242.92,32.55l23.43,33.84H255.82L231.23,33.3a1.35,1.35,0,0,1,0-1.56L253.56,2H264.3Z"/><path class="cls-45" d="M243,32.55l23.44,33.84H255.85L231.31,33.3a1.35,1.35,0,0,1,0-1.55L253.58,2h10.8Z"/><path class="cls-46" d="M243.07,32.55l23.45,33.84H255.88L231.38,33.3a1.35,1.35,0,0,1,0-1.55L253.61,2h10.86Z"/><path class="cls-47" d="M243.14,32.55,266.6,66.39H255.91L231.46,33.3a1.34,1.34,0,0,1,0-1.54L253.64,2h10.91Z"/><path class="cls-48" d="M243.22,32.55l23.46,33.84H255.94L231.54,33.3a1.34,1.34,0,0,1,0-1.54L253.67,2h11Z"/><path class="cls-49" d="M243.29,32.55l23.47,33.84H256l-24.35-33.1a1.34,1.34,0,0,1,0-1.53L253.7,2h11Z"/><path class="cls-50" d="M243.36,32.55l23.48,33.84H256l-24.3-33.1a1.34,1.34,0,0,1,0-1.53L253.72,2h11.07Z"/><path class="cls-51" d="M243.44,32.55l23.49,33.84H256l-24.25-33.1a1.33,1.33,0,0,1,0-1.52L253.75,2h11.12Z"/><path class="cls-52" d="M243.51,32.55,267,66.39H256.07l-24.2-33.1a1.34,1.34,0,0,1,0-1.52L253.78,2H265Z"/><path class="cls-53" d="M243.58,32.55l23.51,33.84h-11l-24.16-33.1a1.33,1.33,0,0,1,0-1.52L253.81,2H265Z"/><path class="cls-54" d="M243.66,32.55l23.51,33.84h-11L232,33.28a1.33,1.33,0,0,1,0-1.51L253.83,2h11.29Z"/><path class="cls-55" d="M243.73,32.55l23.52,33.83h-11.1L232.1,33.28a1.33,1.33,0,0,1,0-1.51L253.86,2H265.2Z"/><polygon class="cls-56" points="244.58 32.43 269.43 68.36 256.21 68.36 231.36 32.43 254.01 0 267.23 0 244.58 32.43"/><path class="cls-57" d="M36.77,32.53,13.67,66.39h8.47l26.55-33a1.44,1.44,0,0,0,0-1.74L24.31,2H15.72Z"/><path class="cls-58" d="M36.69,32.53,13.58,66.39H22.1l26.5-33a1.43,1.43,0,0,0,0-1.73L24.28,2H15.63Z"/><path class="cls-59" d="M36.62,32.53,13.5,66.39h8.57l26.45-33a1.43,1.43,0,0,0,0-1.73L24.25,2h-8.7Z"/><path class="cls-60" d="M36.55,32.53,13.42,66.39H22l26.4-33a1.43,1.43,0,0,0,0-1.72L24.22,2H15.47Z"/><path class="cls-61" d="M36.47,32.53,13.34,66.39H22l26.35-33a1.43,1.43,0,0,0,0-1.72L24.19,2H15.39Z"/><path class="cls-62" d="M36.4,32.53,13.26,66.39H22l26.3-33a1.43,1.43,0,0,0,0-1.71L24.17,2H15.31Z"/><path class="cls-63" d="M36.32,32.53,13.17,66.39H22l26.25-33a1.42,1.42,0,0,0,0-1.71L24.14,2H15.22Z"/><path class="cls-64" d="M36.25,32.53,13.09,66.39h8.83l26.21-33a1.42,1.42,0,0,0,0-1.71L24.11,2h-9Z"/><path class="cls-65" d="M36.18,32.53,13,66.39h8.88L48,33.38a1.41,1.41,0,0,0,0-1.7L24.08,2h-9Z"/><path class="cls-66" d="M36.1,32.53,12.93,66.39h8.93L48,33.37a1.42,1.42,0,0,0,0-1.7L24.05,2H15Z"/><path class="cls-67" d="M36,32.53,12.85,66.39h9l26.06-33a1.42,1.42,0,0,0,0-1.69L24,2H14.9Z"/><path class="cls-68" d="M36,32.53,12.77,66.39h9l26-33a1.41,1.41,0,0,0,0-1.69L24,2H14.82Z"/><path class="cls-69" d="M35.88,32.53,12.68,66.39h9.09l26-33a1.41,1.41,0,0,0,0-1.68L24,2H14.73Z"/><path class="cls-70" d="M35.81,32.53,12.6,66.39h9.14l25.91-33a1.4,1.4,0,0,0,0-1.68L23.94,2H14.65Z"/><path class="cls-71" d="M35.74,32.53,12.52,66.39h9.19l25.86-33a1.4,1.4,0,0,0,0-1.67L23.92,2H14.57Z"/><path class="cls-72" d="M35.66,32.53,12.44,66.39h9.24l25.82-33a1.4,1.4,0,0,0,0-1.67L23.89,2h-9.4Z"/><path class="cls-73" d="M35.59,32.53,12.36,66.39h9.29l25.77-33a1.4,1.4,0,0,0,0-1.66L23.86,2H14.41Z"/><path class="cls-74" d="M35.51,32.54,12.27,66.39h9.34l25.72-33a1.4,1.4,0,0,0,0-1.66L23.83,2H14.32Z"/><path class="cls-75" d="M35.44,32.54,12.19,66.39h9.4l25.67-33a1.4,1.4,0,0,0,0-1.66L23.8,2H14.24Z"/><path class="cls-76" d="M35.37,32.54,12.11,66.39h9.45l25.62-33a1.4,1.4,0,0,0,0-1.65L23.78,2H14.16Z"/><path class="cls-77" d="M35.29,32.54,12,66.39h9.5l25.57-33a1.39,1.39,0,0,0,0-1.65L23.75,2H14.08Z"/><path class="cls-78" d="M35.22,32.54,11.95,66.39H21.5L47,33.35a1.39,1.39,0,0,0,0-1.64L23.72,2H14Z"/><path class="cls-79" d="M35.15,32.54,11.86,66.39h9.6l25.47-33a1.39,1.39,0,0,0,0-1.64L23.69,2H13.91Z"/><path class="cls-80" d="M35.07,32.54,11.78,66.39h9.65l25.42-33a1.39,1.39,0,0,0,0-1.63L23.66,2H13.83Z"/><path class="cls-81" d="M35,32.54,11.7,66.39h9.71l25.38-33a1.38,1.38,0,0,0,0-1.63L23.63,2H13.75Z"/><path class="cls-82" d="M34.93,32.54,11.62,66.39h9.76L46.7,33.34a1.38,1.38,0,0,0,0-1.62L23.61,2H13.67Z"/><path class="cls-83" d="M34.85,32.54,11.54,66.39h9.81L46.62,33.34a1.38,1.38,0,0,0,0-1.62L23.58,2h-10Z"/><path class="cls-84" d="M34.78,32.54,11.46,66.39h9.86L46.55,33.33a1.38,1.38,0,0,0,0-1.61L23.55,2h-10Z"/><path class="cls-85" d="M34.71,32.54,11.37,66.39h9.91L46.47,33.33a1.38,1.38,0,0,0,0-1.61L23.52,2H13.42Z"/><path class="cls-86" d="M34.63,32.54,11.29,66.39h10L46.39,33.33a1.37,1.37,0,0,0,0-1.61L23.5,2H13.34Z"/><path class="cls-87" d="M34.56,32.54,11.21,66.39h10L46.31,33.33a1.37,1.37,0,0,0,0-1.6L23.47,2H13.26Z"/><path class="cls-88" d="M34.48,32.54,11.13,66.39H21.19l25-33.06a1.37,1.37,0,0,0,0-1.6L23.44,2H13.18Z"/><path class="cls-89" d="M34.41,32.54,11,66.39H21.16l25-33.07a1.37,1.37,0,0,0,0-1.59L23.41,2H13.1Z"/><path class="cls-90" d="M34.34,32.54,11,66.39H21.13L46.07,33.32a1.36,1.36,0,0,0,0-1.59L23.38,2H13Z"/><path class="cls-91" d="M34.26,32.55,10.88,66.39H21.1L46,33.32a1.37,1.37,0,0,0,0-1.58L23.36,2H12.93Z"/><path class="cls-92" d="M34.19,32.55,10.8,66.39H21.07L45.91,33.32a1.36,1.36,0,0,0,0-1.58L23.33,2H12.85Z"/><path class="cls-93" d="M34.12,32.55,10.72,66.39H21L45.83,33.31a1.36,1.36,0,0,0,0-1.57L23.3,2H12.77Z"/><path class="cls-94" d="M34,32.55,10.64,66.39H21L45.75,33.31a1.36,1.36,0,0,0,0-1.57L23.27,2H12.69Z"/><path class="cls-95" d="M34,32.55,10.55,66.39H21L45.67,33.31a1.35,1.35,0,0,0,0-1.57L23.24,2H12.6Z"/><path class="cls-96" d="M33.89,32.55,10.47,66.39H21L45.6,33.31a1.35,1.35,0,0,0,0-1.56L23.22,2H12.52Z"/><path class="cls-97" d="M33.82,32.55,10.39,66.39H20.92L45.52,33.3a1.35,1.35,0,0,0,0-1.56L23.19,2H12.44Z"/><path class="cls-98" d="M33.75,32.55,10.31,66.39H20.89L45.44,33.3a1.35,1.35,0,0,0,0-1.55L23.16,2H12.36Z"/><path class="cls-99" d="M33.67,32.55,10.23,66.39H20.86L45.36,33.3a1.34,1.34,0,0,0,0-1.55L23.13,2H12.28Z"/><path class="cls-100" d="M33.6,32.55,10.15,66.39H20.83L45.28,33.3a1.34,1.34,0,0,0,0-1.54L23.1,2H12.2Z"/><path class="cls-101" d="M33.53,32.55,10.06,66.39H20.8L45.2,33.3a1.34,1.34,0,0,0,0-1.54L23.08,2h-11Z"/><path class="cls-102" d="M33.45,32.55,10,66.39H20.77l24.35-33.1a1.34,1.34,0,0,0,0-1.53L23,2H12Z"/><path class="cls-103" d="M33.38,32.55,9.9,66.39H20.74L45,33.29a1.34,1.34,0,0,0,0-1.53L23,2H11.95Z"/><path class="cls-104" d="M33.31,32.55,9.82,66.39H20.71L45,33.29a1.33,1.33,0,0,0,0-1.52L23,2H11.87Z"/><path class="cls-105" d="M33.23,32.55,9.74,66.39H20.68l24.21-33.1a1.33,1.33,0,0,0,0-1.52L23,2H11.79Z"/><path class="cls-106" d="M33.16,32.55,9.65,66.39h11L44.8,33.28a1.33,1.33,0,0,0,0-1.52L22.94,2H11.7Z"/><path class="cls-107" d="M33.08,32.55,9.57,66.39h11L44.73,33.28a1.33,1.33,0,0,0,0-1.51L22.91,2H11.62Z"/><path class="cls-55" d="M33,32.55,9.49,66.39h11.1L44.65,33.28a1.33,1.33,0,0,0,0-1.51L22.88,2H11.54Z"/><polygon class="cls-56" points="32.18 32.43 7.33 68.36 20.55 68.36 45.4 32.43 22.75 0 9.53 0 32.18 32.43"/></g></g></svg>