<svg xmlns="http://www.w3.org/2000/svg" xmlns:xlink="http://www.w3.org/1999/xlink" viewBox="0 0 293.81 127.2"><defs><style>.cls-1{fill:url(#linear-gradient);}.cls-2{fill:url(#linear-gradient-2);}.cls-3{fill:#2b63b0;}.cls-4{fill:#2b62af;}.cls-5{fill:#2b61af;}.cls-6{fill:#2b60ae;}.cls-7{fill:#2b5fae;}.cls-8{fill:#2b5ead;}.cls-9{fill:#2b5dac;}.cls-10{fill:#2b5cac;}.cls-11{fill:#2b5bab;}.cls-12{fill:#2c5aab;}.cls-13{fill:#2c59aa;}.cls-14{fill:#2c58aa;}.cls-15{fill:#2c57a9;}.cls-16{fill:#2c56a8;}.cls-17{fill:#2c55a8;}.cls-18{fill:#2c54a7;}.cls-19{fill:#2c53a7;}.cls-20{fill:#2c52a6;}.cls-21{fill:#2c51a5;}.cls-22{fill:#2c50a5;}.cls-23{fill:#2c4fa4;}.cls-24{fill:#2c4ea4;}.cls-25{fill:#2c4da3;}.cls-26{fill:#2c4ca2;}.cls-27{fill:#2c4ba2;}.cls-28{fill:#2c4aa1;}.cls-29{fill:#2d4aa1;}.cls-30{fill:#2d49a0;}.cls-31{fill:#2d48a0;}.cls-32{fill:#2d479f;}.cls-33{fill:#2d469e;}.cls-34{fill:#2d459e;}.cls-35{fill:#2d449d;}.cls-36{fill:#2d439d;}.cls-37{fill:#2d429c;}.cls-38{fill:#2d419b;}.cls-39{fill:#2d409b;}.cls-40{fill:#2d3f9a;}.cls-41{fill:#2d3e9a;}.cls-42{fill:#2d3d99;}.cls-43{fill:#2d3c98;}.cls-44{fill:#2d3b98;}.cls-45{fill:#2d3a97;}.cls-46{fill:#2e3997;}.cls-47{fill:#2e3896;}.cls-48{fill:#2e3796;}.cls-49{fill:#2e3695;}.cls-50{fill:#2e3594;}.cls-51{fill:#2e3494;}.cls-52{fill:#2e3393;}.cls-53{fill:#2e3293;}.cls-54{fill:#2e3192;}.cls-55{fill:#f5f5f5;}.cls-56{fill:#fff;}.cls-57{fill:url(#linear-gradient-3);}.cls-58{fill:#d42128;}</style><linearGradient id="linear-gradient" y1="63.6" x2="293.81" y2="63.6" gradientUnits="userSpaceOnUse"><stop offset="0" stop-color="#b3b3b3"/><stop offset="0.31" stop-color="#b3b4b4"/><stop offset="0.75" stop-color="#dfdfdf"/><stop offset="1" stop-color="#f2f2f2"/></linearGradient><linearGradient id="linear-gradient-2" x1="2.56" y1="58.29" x2="288.56" y2="58.29" gradientUnits="userSpaceOnUse"><stop offset="0" stop-color="#224e8d"/><stop offset="0.13" stop-color="#2b63b0"/><stop offset="0.59" stop-color="#2b63b0"/><stop offset="1" stop-color="#3775c2"/></linearGradient><linearGradient id="linear-gradient-3" x1="181.69" y1="59.5" x2="281.35" y2="59.5" gradientUnits="userSpaceOnUse"><stop offset="0" stop-color="#fff"/><stop offset="0.43" stop-color="#fcfcfc"/><stop offset="0.76" stop-color="#f2f2f2"/><stop offset="1" stop-color="#e6e6e6"/></linearGradient></defs><title>Ресурс 26elements</title><g id="Слой_2" data-name="Слой 2"><g id="Layer_1" data-name="Layer 1"><path class="cls-1" d="M232.23,0c-18.53,0-35,9.27-45.84,23.75H7.64A7.54,7.54,0,0,0,0,31.17V84.85c0,4.09,1.64,8,5.85,8H26.69l154.78,3.19c10.24,18.81,35.56,32.31,57.15,31.06,33.71-2,55.22-27.15,55.19-63.52C293.79,26,264.76,0,232.23,0Z"/><path class="cls-2" d="M231.6,1.33A56.94,56.94,0,0,0,184.7,26H7.86a5.3,5.3,0,0,0-5.3,5.31V85a5.3,5.3,0,0,0,5.3,5.31H184.5a57,57,0,1,0,47.09-89Z"/><path class="cls-3" d="M44.05,56.53,21,90.39h8.47L56,57.39a1.43,1.43,0,0,0,0-1.74L31.59,26H23Z"/><path class="cls-4" d="M44,56.53,20.87,90.39h8.52l26.5-33a1.42,1.42,0,0,0,0-1.73L31.57,26H22.92Z"/><path class="cls-5" d="M43.91,56.53,20.79,90.39h8.57l26.45-33a1.43,1.43,0,0,0,0-1.73L31.54,26h-8.7Z"/><path class="cls-6" d="M43.83,56.53,20.71,90.39h8.62l26.4-33a1.42,1.42,0,0,0,0-1.72L31.51,26H22.76Z"/><path class="cls-7" d="M43.76,56.53,20.62,90.39H29.3l26.35-33a1.42,1.42,0,0,0,0-1.72L31.48,26h-8.8Z"/><path class="cls-8" d="M43.68,56.53,20.54,90.39h8.73l26.3-33a1.42,1.42,0,0,0,0-1.71L31.45,26H22.59Z"/><path class="cls-9" d="M43.61,56.53,20.46,90.39h8.78l26.25-33a1.41,1.41,0,0,0,0-1.71L31.43,26H22.51Z"/><path class="cls-10" d="M43.54,56.53,20.38,90.39h8.83l26.21-33a1.42,1.42,0,0,0,0-1.7L31.4,26h-9Z"/><path class="cls-11" d="M43.46,56.53,20.3,90.39h8.88l26.16-33a1.41,1.41,0,0,0,0-1.7L31.37,26h-9Z"/><path class="cls-12" d="M43.39,56.53,20.22,90.39h8.93l26.11-33a1.41,1.41,0,0,0,0-1.69L31.34,26H22.27Z"/><path class="cls-13" d="M43.32,56.53,20.13,90.39h9l26.06-33a1.41,1.41,0,0,0,0-1.69L31.31,26H22.19Z"/><path class="cls-14" d="M43.24,56.53,20.05,90.39h9l26-33a1.4,1.4,0,0,0,0-1.69L31.29,26H22.1Z"/><path class="cls-15" d="M43.17,56.53,20,90.39h9.09l26-33a1.4,1.4,0,0,0,0-1.68L31.26,26H22Z"/><path class="cls-16" d="M43.1,56.53,19.89,90.39H29l25.91-33a1.4,1.4,0,0,0,0-1.68L31.23,26H21.94Z"/><path class="cls-17" d="M43,56.53,19.81,90.39H29l25.86-33a1.4,1.4,0,0,0,0-1.67L31.2,26H21.86Z"/><path class="cls-18" d="M42.95,56.54,19.72,90.39H29l25.82-33a1.4,1.4,0,0,0,0-1.67L31.17,26h-9.4Z"/><path class="cls-19" d="M42.87,56.54,19.64,90.39h9.29l25.77-33a1.39,1.39,0,0,0,0-1.66L31.15,26H21.69Z"/><path class="cls-20" d="M42.8,56.54,19.56,90.39h9.34l25.72-33a1.39,1.39,0,0,0,0-1.66L31.12,26H21.61Z"/><path class="cls-21" d="M42.73,56.54,19.48,90.39h9.4l25.67-33a1.39,1.39,0,0,0,0-1.65L31.09,26H21.53Z"/><path class="cls-22" d="M42.65,56.54,19.4,90.39h9.45l25.62-33a1.39,1.39,0,0,0,0-1.65L31.06,26H21.45Z"/><path class="cls-23" d="M42.58,56.54,19.32,90.39h9.5l25.57-33a1.38,1.38,0,0,0,0-1.65L31,26H21.37Z"/><path class="cls-24" d="M42.51,56.54,19.23,90.39h9.55l25.52-33a1.38,1.38,0,0,0,0-1.64L31,26H21.28Z"/><path class="cls-25" d="M42.43,56.54,19.15,90.39h9.6l25.47-33a1.38,1.38,0,0,0,0-1.64L31,26H21.2Z"/><path class="cls-26" d="M42.36,56.54,19.07,90.39h9.65l25.43-33a1.38,1.38,0,0,0,0-1.63L31,26H21.12Z"/><path class="cls-27" d="M42.29,56.54,19,90.39h9.7l25.38-33a1.37,1.37,0,0,0,0-1.63L30.92,26H21Z"/><path class="cls-28" d="M42.21,56.54,18.91,90.39h9.76L54,57.34a1.38,1.38,0,0,0,0-1.62L30.89,26H21Z"/><path class="cls-29" d="M42.14,56.54,18.82,90.39h9.81L53.91,57.34a1.37,1.37,0,0,0,0-1.62L30.87,26h-10Z"/><path class="cls-30" d="M42.06,56.54,18.74,90.39H28.6L53.83,57.33a1.37,1.37,0,0,0,0-1.61L30.84,26h-10Z"/><path class="cls-31" d="M42,56.54,18.66,90.39h9.91L53.75,57.33a1.36,1.36,0,0,0,0-1.61L30.81,26H20.71Z"/><path class="cls-32" d="M41.92,56.54,18.58,90.39h10L53.67,57.33a1.37,1.37,0,0,0,0-1.61L30.78,26H20.63Z"/><path class="cls-33" d="M41.84,56.54,18.5,90.39h10L53.59,57.33a1.36,1.36,0,0,0,0-1.6L30.75,26H20.55Z"/><path class="cls-34" d="M41.77,56.54,18.41,90.39H28.48l25-33.06a1.36,1.36,0,0,0,0-1.6L30.73,26H20.47Z"/><path class="cls-35" d="M41.7,56.54,18.33,90.39H28.45l25-33.07a1.36,1.36,0,0,0,0-1.59L30.7,26H20.38Z"/><path class="cls-36" d="M41.62,56.55,18.25,90.39H28.42L53.36,57.32a1.36,1.36,0,0,0,0-1.59L30.67,26H20.3Z"/><path class="cls-37" d="M41.55,56.55,18.17,90.39H28.39L53.28,57.32a1.36,1.36,0,0,0,0-1.58L30.64,26H20.22Z"/><path class="cls-38" d="M41.48,56.55,18.09,90.39H28.36L53.2,57.32a1.36,1.36,0,0,0,0-1.58L30.61,26H20.14Z"/><path class="cls-39" d="M41.4,56.55,18,90.39H28.33L53.12,57.31a1.35,1.35,0,0,0,0-1.57L30.59,26H20.06Z"/><path class="cls-40" d="M41.33,56.55,17.92,90.39H28.3L53,57.31a1.35,1.35,0,0,0,0-1.57L30.56,26H20Z"/><path class="cls-41" d="M41.25,56.55,17.84,90.39H28.27L53,57.31a1.35,1.35,0,0,0,0-1.56L30.53,26H19.89Z"/><path class="cls-42" d="M41.18,56.55,17.76,90.39H28.24L52.88,57.31a1.35,1.35,0,0,0,0-1.56L30.5,26H19.81Z"/><path class="cls-43" d="M41.11,56.55,17.68,90.39H28.21L52.8,57.31a1.34,1.34,0,0,0,0-1.56L30.47,26H19.73Z"/><path class="cls-44" d="M41,56.55,17.6,90.39H28.18L52.72,57.3a1.34,1.34,0,0,0,0-1.55L30.45,26H19.65Z"/><path class="cls-45" d="M41,56.55,17.52,90.39H28.15L52.64,57.3a1.34,1.34,0,0,0,0-1.55L30.42,26H19.57Z"/><path class="cls-46" d="M40.89,56.55,17.43,90.39H28.12L52.57,57.3a1.34,1.34,0,0,0,0-1.54L30.39,26H19.48Z"/><path class="cls-47" d="M40.81,56.55,17.35,90.39H28.08L52.49,57.3a1.34,1.34,0,0,0,0-1.54L30.36,26h-11Z"/><path class="cls-48" d="M40.74,56.55,17.27,90.39H28.05l24.35-33.1a1.33,1.33,0,0,0,0-1.53L30.33,26h-11Z"/><path class="cls-49" d="M40.67,56.55,17.19,90.39H28l24.3-33.1a1.33,1.33,0,0,0,0-1.53L30.31,26H19.24Z"/><path class="cls-50" d="M40.59,56.55,17.11,90.39H28l24.25-33.1a1.33,1.33,0,0,0,0-1.52L30.28,26H19.16Z"/><path class="cls-51" d="M40.52,56.55,17,90.39H28l24.21-33.1a1.33,1.33,0,0,0,0-1.52L30.25,26H19.07Z"/><path class="cls-52" d="M40.45,56.55,16.94,90.39h11l24.16-33.1a1.33,1.33,0,0,0,0-1.52L30.22,26H19Z"/><path class="cls-53" d="M40.37,56.56,16.86,90.39h11L52,57.28a1.33,1.33,0,0,0,0-1.51L30.19,26H18.91Z"/><path class="cls-54" d="M40.3,56.56,16.78,90.39H27.87L51.93,57.28a1.32,1.32,0,0,0,0-1.51L30.17,26H18.83Z"/><polygon class="cls-55" points="31.6 56.4 6.28 93.01 27.13 93.01 52.45 56.4 29.37 23.36 8.53 23.36 31.6 56.4"/><path class="cls-56" d="M59,64a15.2,15.2,0,0,0,6.6,1.64c2.74,0,4.18-1.13,4.18-2.85s-1.25-2.58-4.42-3.71c-4.38-1.52-7.23-3.95-7.23-7.78,0-4.49,3.75-7.93,10-7.93a16.13,16.13,0,0,1,6.72,1.33l-1.33,4.81A12.51,12.51,0,0,0,68,48.23c-2.58,0-3.83,1.17-3.83,2.54,0,1.68,1.48,2.42,4.88,3.71,4.65,1.72,6.84,4.14,6.84,7.85,0,4.42-3.4,8.17-10.63,8.17a17.24,17.24,0,0,1-7.46-1.6Z"/><path class="cls-56" d="M86.08,63.35,84.2,70.11H78l8-26.34h7.82l8.17,26.34H95.65l-2-6.76Zm6.68-4.45-1.64-5.59c-.47-1.56-.94-3.52-1.33-5.08h-.08c-.39,1.56-.78,3.56-1.21,5.08L86.94,58.9Z"/><path class="cls-56" d="M105.58,43.77h6V65.11H122v5H105.58Z"/><path class="cls-56" d="M141.22,59h-9.69v6.25h10.83v4.89H125.55V43.77h16.26v4.89H131.53v5.47h9.69Z"/><path class="cls-56" d="M145.56,67a3.5,3.5,0,1,1,3.52,3.56A3.4,3.4,0,0,1,145.56,67Zm1.29-5.51-.9-17.7h6.21l-.86,17.7Z"/><path class="cls-56" d="M156,67a3.5,3.5,0,1,1,7,0,3.36,3.36,0,0,1-3.48,3.56A3.4,3.4,0,0,1,156,67Zm1.29-5.51-.9-17.7h6.21l-.86,17.7Z"/><path class="cls-56" d="M166.51,67A3.5,3.5,0,1,1,170,70.54,3.4,3.4,0,0,1,166.51,67Zm1.29-5.51-.9-17.7h6.21l-.86,17.7Z"/><circle class="cls-57" cx="231.52" cy="59.5" r="49.83"/><path class="cls-58" d="M191.56,61.22V57.37l3.52-3.19c6-5.32,8.84-8.38,8.93-11.57,0-2.22-1.34-4-4.48-4a9.87,9.87,0,0,0-5.83,2.26l-1.8-4.57a15.08,15.08,0,0,1,8.93-2.81c6.16,0,9.56,3.6,9.56,8.55,0,4.57-3.31,8.22-7.25,11.74l-2.51,2.1V56h10.27v5.24Z"/><path class="cls-58" d="M233,39.21H222.46l-.59,4.19a11.63,11.63,0,0,1,1.76-.08,12.46,12.46,0,0,1,7.17,2,7.76,7.76,0,0,1,3.31,6.83c0,5.07-4.36,9.56-11.69,9.56a17.32,17.32,0,0,1-7.59-1.55L216,55.35a15.67,15.67,0,0,0,6.16,1.34c2.64,0,5.45-1.26,5.45-4.15S225.35,48,219.9,48a23.44,23.44,0,0,0-3.69.25L218,34h15Z"/><path class="cls-58" d="M252.44,41.6c0,5.7-3.6,8.68-7.54,8.68-4.15,0-7.42-3.1-7.42-8.22,0-4.86,3-8.55,7.63-8.55S252.44,37,252.44,41.6Zm-10.23.29c0,2.85,1,4.91,2.81,4.91S247.7,45,247.7,41.9c0-2.77-.75-4.9-2.73-4.9S242.21,39.17,242.21,41.9Zm3,19.79,15.64-28.17h3.44L248.62,61.68Zm26.83-8.76c0,5.7-3.6,8.68-7.54,8.68-4.11,0-7.38-3.1-7.42-8.22,0-4.86,3-8.55,7.63-8.55S272.05,48.27,272.05,52.92Zm-10.19.29c0,2.85.92,4.9,2.77,4.9s2.68-1.84,2.68-4.9c0-2.77-.71-4.91-2.68-4.91S261.87,50.49,261.87,53.22Z"/><path class="cls-58" d="M225.22,82.34c0,6.88-4.17,11.05-10.3,11.05S205,88.69,205,82.71c0-6.29,4-11,10.21-11C221.7,71.72,225.22,76.55,225.22,82.34Zm-15.16.28c0,4.11,1.93,7,5.11,7s5-3.05,5-7.13c0-3.77-1.81-7-5.07-7S210.06,78.54,210.06,82.62Z"/><path class="cls-58" d="M228.33,72.07h12.83V76h-8.06v4.8h7.54v3.86h-7.54V93h-4.76Z"/><path class="cls-58" d="M244.73,72.07h12.83V76h-8.06v4.8H257v3.86h-7.53V93h-4.76Z"/></g></g></svg>