<svg xmlns="http://www.w3.org/2000/svg" xmlns:xlink="http://www.w3.org/1999/xlink" viewBox="0 0 305.37 116.66"><defs><style>.cls-1{fill:#fbb03b;}.cls-2{fill:#fbb13b;}.cls-3{fill:#fbb23b;}.cls-4{fill:#fbb23c;}.cls-5{fill:#fcb33c;}.cls-6{fill:#fcb43c;}.cls-7{fill:#fcb53c;}.cls-8{fill:#fcb53d;}.cls-9{fill:#fcb63d;}.cls-10{fill:#fcb73d;}.cls-11{fill:#fcb83d;}.cls-12{fill:#fdb83d;}.cls-13{fill:#fdb93d;}.cls-14{fill:#fdb93e;}.cls-15{fill:#fdba3e;}.cls-16{fill:#fdbb3e;}.cls-17{fill:#fdbc3e;}.cls-18{fill:#fdbc3f;}.cls-19{fill:#fdbd3f;}.cls-20{fill:#febd3f;}.cls-21{fill:#febe3f;}.cls-22{fill:#febf3f;}.cls-23{fill:#fec03f;}.cls-24{fill:#fec040;}.cls-25{fill:#fec140;}.cls-26{fill:#fec240;}.cls-27{fill:#ffc340;}.cls-28{fill:#ffc341;}.cls-29{fill:#ffc441;}.cls-30{fill:#ffc541;}.cls-31{fill:#ba272d;}.cls-32{fill:url(#linear-gradient);}.cls-33{fill:#87171c;}.cls-34{fill:url(#linear-gradient-2);}.cls-35{fill:#fff;}</style><linearGradient id="linear-gradient" x1="236.91" y1="100.11" x2="236.91" y2="10.27" gradientUnits="userSpaceOnUse"><stop offset="0" stop-color="#fbb03b"/><stop offset="0.49" stop-color="#f9a13a"/><stop offset="0.82" stop-color="#f79439"/><stop offset="1" stop-color="#c5742c"/></linearGradient><linearGradient id="linear-gradient-2" x1="241.1" y1="100.11" x2="241.1" gradientUnits="userSpaceOnUse"><stop offset="0" stop-color="#d42027"/><stop offset="0.76" stop-color="#d42027"/><stop offset="0.87" stop-color="#db4248"/><stop offset="0.95" stop-color="#d42027"/><stop offset="1" stop-color="#8b2027"/><stop offset="1" stop-color="#8a2027"/></linearGradient></defs><title>Ресурс 41elements</title><g id="Слой_2" data-name="Слой 2"><g id="Layer_1" data-name="Layer 1"><path class="cls-1" d="M252.17,10.27h-199a53.2,53.2,0,0,0,0,106.39h199a53.2,53.2,0,0,0,0-106.39Z"/><ellipse class="cls-1" cx="152.68" cy="63.47" rx="134.81" ry="53.2"/><ellipse class="cls-1" cx="152.68" cy="63.47" rx="133.07" ry="52.51"/><ellipse class="cls-2" cx="152.68" cy="63.47" rx="131.33" ry="51.82"/><ellipse class="cls-2" cx="152.68" cy="63.47" rx="129.59" ry="51.13"/><ellipse class="cls-3" cx="152.68" cy="63.47" rx="127.84" ry="50.44"/><ellipse class="cls-4" cx="152.68" cy="63.47" rx="126.1" ry="49.76"/><ellipse class="cls-4" cx="152.68" cy="63.47" rx="124.36" ry="49.07"/><ellipse class="cls-5" cx="152.68" cy="63.47" rx="122.61" ry="48.38"/><ellipse class="cls-5" cx="152.68" cy="63.47" rx="120.87" ry="47.69"/><ellipse class="cls-6" cx="152.68" cy="63.47" rx="119.13" ry="47.01"/><ellipse class="cls-6" cx="152.68" cy="63.47" rx="117.38" ry="46.32"/><ellipse class="cls-7" cx="152.68" cy="63.47" rx="115.64" ry="45.63"/><ellipse class="cls-7" cx="152.68" cy="63.47" rx="113.9" ry="44.94"/><ellipse class="cls-8" cx="152.68" cy="63.47" rx="112.15" ry="44.25"/><ellipse class="cls-9" cx="152.68" cy="63.47" rx="110.41" ry="43.57"/><ellipse class="cls-9" cx="152.68" cy="63.47" rx="108.67" ry="42.88"/><ellipse class="cls-10" cx="152.68" cy="63.47" rx="106.93" ry="42.19"/><ellipse class="cls-10" cx="152.68" cy="63.47" rx="105.18" ry="41.5"/><ellipse class="cls-10" cx="152.68" cy="63.47" rx="103.44" ry="40.82"/><ellipse class="cls-11" cx="152.68" cy="63.47" rx="101.7" ry="40.13"/><ellipse class="cls-12" cx="152.68" cy="63.47" rx="99.95" ry="39.44"/><ellipse class="cls-13" cx="152.68" cy="63.47" rx="98.21" ry="38.75"/><ellipse class="cls-14" cx="152.68" cy="63.47" rx="96.47" ry="38.06"/><ellipse class="cls-14" cx="152.68" cy="63.47" rx="94.72" ry="37.38"/><ellipse class="cls-15" cx="152.68" cy="63.47" rx="92.98" ry="36.69"/><ellipse class="cls-15" cx="152.68" cy="63.47" rx="91.24" ry="36"/><ellipse class="cls-16" cx="152.68" cy="63.47" rx="89.5" ry="35.31"/><ellipse class="cls-16" cx="152.68" cy="63.47" rx="87.75" ry="34.63"/><ellipse class="cls-17" cx="152.68" cy="63.47" rx="86.01" ry="33.94"/><ellipse class="cls-17" cx="152.68" cy="63.47" rx="84.27" ry="33.25"/><ellipse class="cls-18" cx="152.68" cy="63.47" rx="82.52" ry="32.56"/><ellipse class="cls-19" cx="152.68" cy="63.47" rx="80.78" ry="31.88"/><ellipse class="cls-20" cx="152.68" cy="63.47" rx="79.04" ry="31.19"/><ellipse class="cls-21" cx="152.68" cy="63.47" rx="77.29" ry="30.5"/><ellipse class="cls-21" cx="152.68" cy="63.47" rx="75.55" ry="29.81"/><ellipse class="cls-21" cx="152.68" cy="63.47" rx="73.81" ry="29.12"/><ellipse class="cls-22" cx="152.68" cy="63.47" rx="72.06" ry="28.44"/><ellipse class="cls-22" cx="152.68" cy="63.47" rx="70.32" ry="27.75"/><ellipse class="cls-23" cx="152.68" cy="63.47" rx="68.58" ry="27.06"/><ellipse class="cls-24" cx="152.68" cy="63.47" rx="66.84" ry="26.37"/><ellipse class="cls-24" cx="152.68" cy="63.47" rx="65.09" ry="25.68"/><ellipse class="cls-25" cx="152.68" cy="63.47" rx="63.35" ry="25"/><ellipse class="cls-25" cx="152.68" cy="63.47" rx="61.61" ry="24.31"/><ellipse class="cls-26" cx="152.68" cy="63.47" rx="59.86" ry="23.62"/><ellipse class="cls-26" cx="152.68" cy="63.47" rx="58.12" ry="22.93"/><ellipse class="cls-27" cx="152.68" cy="63.47" rx="56.38" ry="22.25"/><ellipse class="cls-27" cx="152.68" cy="63.47" rx="54.63" ry="21.56"/><ellipse class="cls-28" cx="152.68" cy="63.47" rx="52.89" ry="20.87"/><ellipse class="cls-29" cx="152.68" cy="63.47" rx="51.15" ry="20.18"/><ellipse class="cls-29" cx="152.68" cy="63.47" rx="49.41" ry="19.49"/><ellipse class="cls-30" cx="152.68" cy="63.47" rx="47.66" ry="18.81"/><ellipse class="cls-30" cx="152.68" cy="63.47" rx="45.92" ry="18.12"/><path class="cls-31" d="M68.07,21.27a64.86,64.86,0,0,1,10.52-.75c5,0,8,.48,10.62,2a7.83,7.83,0,0,1,4.32,7c0,3.2-1.87,6.19-5.92,7.69v.11c4.11,1.12,7.15,4.22,7.15,8.86A9.58,9.58,0,0,1,91,53.87c-2.61,2.08-7,3.26-14.14,3.26a63,63,0,0,1-8.81-.53ZM76.13,35H78.8c4.27,0,6.56-1.76,6.56-4.43s-2.08-4.16-5.77-4.16a22.1,22.1,0,0,0-3.47.21Zm0,16a25.5,25.5,0,0,0,3.15.11c3.68,0,6.94-1.39,6.94-5.18,0-3.63-3.26-5.07-7.31-5.07H76.13Z"/><path class="cls-31" d="M108.42,20.79V41.49c0,6.19,2.35,9.34,6.51,9.34s6.62-3,6.62-9.34V20.79h8.11V41c0,11.1-5.6,16.39-15,16.39-9.07,0-14.41-5-14.41-16.49V20.79Z"/><path class="cls-31" d="M145,56.76V42L133.65,20.79h9.29l3.68,8.65c1.12,2.61,1.87,4.54,2.77,6.88h.11c.8-2.24,1.65-4.32,2.72-6.88l3.63-8.65H165l-11.85,21v15Z"/><path class="cls-31" d="M57.43,101.49v-36h9.5L74.4,78.71A104.07,104.07,0,0,1,80.27,91h.16a133.61,133.61,0,0,1-.69-15V65.52h7.47v36H78.67L71,87.62a133.58,133.58,0,0,1-6.24-12.7l-.16.05c.21,4.75.32,9.82.32,15.69v10.83Z"/><path class="cls-31" d="M127.18,83.14c0,11.79-7.15,18.95-17.67,18.95-10.67,0-16.92-8.06-16.92-18.31,0-10.78,6.88-18.84,17.51-18.84C121.15,64.94,127.18,73.21,127.18,83.14Zm-26,.48c0,7,3.31,12,8.75,12s8.64-5.23,8.64-12.22c0-6.46-3.09-12-8.7-12S101.19,76.62,101.19,83.62Z"/><path class="cls-31" d="M138,101.49l-8.54-36h8.7l2.72,14.84c.8,4.27,1.55,8.91,2.14,12.54h.11c.59-3.9,1.44-8.22,2.35-12.65l3-14.73h8.65L160,80.68c.8,4.22,1.39,8.06,1.92,12.06H162c.53-4,1.33-8.22,2.08-12.49L167,65.52h8.27l-9.29,36h-8.81l-3-15.48c-.69-3.63-1.28-7-1.71-11.1h-.11c-.64,4.06-1.23,7.47-2.08,11.1l-3.42,15.48Z"/><path class="cls-32" d="M195.93,10.27c9.42,6.34,15.38,44.13,9.78,89.84a129.53,129.53,0,0,0,17-7.6c8.43-4.53,14.56-9.05,18.06-9.05,3.14,0,8.6,4.21,16.16,9a69.24,69.24,0,0,0,16.44,7.65c6.81-30.2,4.57-68.77,1.77-84.63a53,53,0,0,0-23-5.21Z"/><path class="cls-33" d="M200.24,0s-6.67-.44-8.44,10.17h18S210.14,0,200.24,0Z"/><path class="cls-34" d="M278,10.17C274.76-.07,269.59,0,269.59,0H200.24s5.16-.08,8.44,10.17c3.23,10.08,8,44.46,1.11,89.94a129.41,129.41,0,0,0,17-7.6c8.44-4.53,14.56-9.05,18.06-9.05,3.14,0,8.6,4.21,16.16,9a69.2,69.2,0,0,0,16.44,7.65C285.26,65.59,281.23,20.14,278,10.17Z"/><path class="cls-35" d="M232.81,27.39h-6.76l-.37,2.68A7.4,7.4,0,0,1,226.8,30a8,8,0,0,1,4.59,1.26,5,5,0,0,1,2.12,4.37c0,3.25-2.79,6.12-7.49,6.12a11.08,11.08,0,0,1-4.86-1l.73-3.06a10,10,0,0,0,3.94.86c1.69,0,3.49-.8,3.49-2.66S227.9,33,224.41,33a15,15,0,0,0-2.36.16L223.21,24h9.6Z"/><path class="cls-35" d="M248.94,32.67c0,5.39-2.17,9.1-6.63,9.1s-6.49-4.05-6.52-9,2.15-9,6.65-9C247.11,23.74,248.94,27.9,248.94,32.67Zm-9,.11c0,4,.94,5.9,2.52,5.9s2.44-2,2.44-6-.83-5.9-2.47-5.9S239.87,28.73,239.9,32.78Z"/><path class="cls-35" d="M260.13,28.92c0,3.65-2.31,5.55-4.83,5.55s-4.75-2-4.75-5.26c0-3.11,1.9-5.47,4.88-5.47S260.13,25.94,260.13,28.92Zm-6.55.19c0,1.82.62,3.14,1.8,3.14s1.72-1.18,1.72-3.14c0-1.77-.48-3.14-1.74-3.14S253.58,27.36,253.58,29.1Zm1.93,12.66,10-18h2.2l-10,18Zm17.17-5.61c0,3.65-2.31,5.55-4.83,5.55s-4.72-2-4.75-5.26C263.11,33.34,265,31,268,31S272.68,33.18,272.68,36.16Zm-6.52.19c0,1.82.59,3.14,1.77,3.14s1.72-1.18,1.72-3.14c0-1.77-.46-3.14-1.72-3.14S266.16,34.6,266.16,36.35Z"/><path class="cls-35" d="M244.87,57.26a6.58,6.58,0,0,1-6.92,7,6.43,6.43,0,0,1-6.79-6.76c0-4.24,2.79-6.95,7-6.95A6.38,6.38,0,0,1,244.87,57.26Zm-9.5.13c0,2.25.94,3.94,2.68,3.94,1.58,0,2.6-1.58,2.6-3.94,0-2-.75-3.94-2.6-3.94S235.38,55.46,235.38,57.4Z"/><path class="cls-35" d="M256.14,64V53.85H252V64h-4.1V53.85h-1.72v-3h1.72v-.27a5.83,5.83,0,0,1,1.5-4.21,5.42,5.42,0,0,1,4-1.45,5.08,5.08,0,0,1,1.74.32l-.56,3a3.29,3.29,0,0,0-1-.19c-1.21,0-1.58,1-1.58,2.31v.48h4.21v-.51a6,6,0,0,1,1.66-4.4,5.26,5.26,0,0,1,3.62-1.31,8,8,0,0,1,2.17.27L263.44,48a4.6,4.6,0,0,0-1.34-.19c-1.34,0-1.91,1-1.91,2.34v.67h2.63v3h-2.6V64Z"/></g></g></svg>