<svg xmlns="http://www.w3.org/2000/svg" xmlns:xlink="http://www.w3.org/1999/xlink" viewBox="0 0 94.82 100.08"><defs><style>.cls-1{fill:#1a367d;}.cls-2{fill:url(#linear-gradient);}</style><linearGradient id="linear-gradient" x1="47.41" y1="100.08" x2="47.41" gradientUnits="userSpaceOnUse"><stop offset="0" stop-color="#285fac"/><stop offset="0.78" stop-color="#285fac"/><stop offset="0.89" stop-color="#3877c4"/><stop offset="0.95" stop-color="#285fac"/><stop offset="1" stop-color="#0f3164"/></linearGradient></defs><title>Ресурс 13elements</title><g id="Слой_2" data-name="Слой 2"><g id="Layer_1" data-name="Layer 1"><path class="cls-1" d="M8.44,0S1.77-.44,0,10.17H18S18.34,0,8.44,0Z"/><path class="cls-1" d="M86.38,0S93-.44,94.82,10.17h-18S76.48,0,86.38,0Z"/><path class="cls-2" d="M47.41,81.34s-12,7.25-19.8,11.67a118.47,118.47,0,0,1-14.79,7.07c8-31.69,5.91-79.3,4.14-89.91S8.51,0,8.51,0h77.8s-6.67-.44-8.44,10.17S74,68.39,82,100.08A118.51,118.51,0,0,1,67.21,93c-7.78-4.42-19.8-11.67-19.8-11.67Z"/></g></g></svg>