<svg xmlns="http://www.w3.org/2000/svg" xmlns:xlink="http://www.w3.org/1999/xlink" viewBox="0 0 101.1 375.7"><defs><style>.cls-1{fill:none;}.cls-2{fill:#d42128;}.cls-3{fill:#c0262c;}.cls-4{fill:#666;}.cls-5{fill:#4d4d4d;}.cls-6{fill:url(#radial-gradient);}.cls-7{fill:url(#linear-gradient);}.cls-8{fill:#610707;}.cls-9{fill:#61533c;}.cls-10{fill:url(#linear-gradient-2);}.cls-11{fill:#f2f2f2;}.cls-12{fill:url(#linear-gradient-3);}.cls-13{fill:#fff;}</style><radialGradient id="radial-gradient" cx="50.55" cy="137.02" r="11.84" gradientUnits="userSpaceOnUse"><stop offset="0" stop-color="#5d513b"/><stop offset="0.26" stop-color="#7b6a4f"/><stop offset="0.54" stop-color="#958061"/><stop offset="0.8" stop-color="#a58d6b"/><stop offset="1" stop-color="#ab926f"/></radialGradient><linearGradient id="linear-gradient" x1="39.4" y1="137.02" x2="61.7" y2="137.02" gradientUnits="userSpaceOnUse"><stop offset="0" stop-color="#e5d9c5"/><stop offset="0.05" stop-color="#dbcdb7"/><stop offset="0.17" stop-color="#c2b195"/><stop offset="0.29" stop-color="#b19c7d"/><stop offset="0.39" stop-color="#a7906f"/><stop offset="0.48" stop-color="#a38c6a"/><stop offset="0.63" stop-color="#a58e6d"/><stop offset="0.73" stop-color="#ac9676"/><stop offset="0.82" stop-color="#b7a385"/><stop offset="0.9" stop-color="#c6b59b"/><stop offset="0.97" stop-color="#dacdb6"/><stop offset="1" stop-color="#e5d9c5"/></linearGradient><linearGradient id="linear-gradient-2" x1="43.98" y1="69.51" x2="51.63" y2="69.51" gradientUnits="userSpaceOnUse"><stop offset="0" stop-color="#847155"/><stop offset="0.5" stop-color="#d4c6ae"/><stop offset="1" stop-color="#847155"/></linearGradient><linearGradient id="linear-gradient-3" x1="47.8" y1="75.76" x2="47.8" y2="63.25" gradientUnits="userSpaceOnUse"><stop offset="0" stop-color="#7c6b50"/><stop offset="0.39" stop-color="#7a694e"/><stop offset="0.59" stop-color="#726249"/><stop offset="0.76" stop-color="#64563f"/><stop offset="0.9" stop-color="#514631"/><stop offset="1" stop-color="#3e3523"/></linearGradient></defs><title>Ресурс 27elements</title><g id="Слой_2" data-name="Слой 2"><g id="Layer_1" data-name="Layer 1"><path class="cls-1" d="M43.84,137.37A7.67,7.67,0,0,0,44,139a6.56,6.56,0,0,0,6.52,5.47,7,7,0,0,0,7.06-7.07,7.07,7.07,0,0,0-7.06-6.9C45.79,130.48,43.84,134.19,43.84,137.37Z"/><path class="cls-2" d="M50.55,107.1a36.11,36.11,0,0,0-36.05,35.32H5.71A5.71,5.71,0,0,0,0,148.13V161l53.75-53.75C52.69,107.16,51.63,107.1,50.55,107.1Z"/><path class="cls-3" d="M43.84,137.37c0-3.18,1.95-6.9,6.7-6.9a7.11,7.11,0,0,1,1.75.22l17.81-17.81a35.83,35.83,0,0,0-16.36-5.64L0,161v22l44-44A7.67,7.67,0,0,1,43.84,137.37Z"/><path class="cls-2" d="M70.11,112.89,52.3,130.7a7.14,7.14,0,0,1,5.3,6.67,7,7,0,0,1-7.06,7.07A6.56,6.56,0,0,1,44,139L0,183v22l81-81A36.3,36.3,0,0,0,70.11,112.89Z"/><path class="cls-3" d="M81,124,0,205v22L86.51,140.5A35.84,35.84,0,0,0,81,124Z"/><path class="cls-2" d="M99.42,144.1a5.68,5.68,0,0,0-4-1.67H86.6c0-.65,0-1.29-.09-1.92L0,227v22L101.07,147.94A5.66,5.66,0,0,0,99.42,144.1Z"/><path class="cls-3" d="M101.09,148.13c0-.06,0-.13,0-.19L0,249v22L101.09,169.92Z"/><polygon class="cls-2" points="101.09 169.92 0 271.02 0 293.02 101.09 191.93 101.09 169.92"/><polygon class="cls-3" points="101.09 191.93 0 293.02 0 315.02 101.09 213.93 101.09 191.93"/><path class="cls-2" d="M101.09,213.93,0,315v1.34a.74.74,0,0,0,.74.74,3.15,3.15,0,0,1,3.14,3.14.74.74,0,0,0,.74.74H8.21a.74.74,0,0,0,.74-.74,3.14,3.14,0,1,1,6.27,0A.74.74,0,0,0,16,321H16l85-85Z"/><path class="cls-3" d="M101.09,235.93,16,321h3.2a.74.74,0,0,0,.74-.74,3.14,3.14,0,1,1,6.27,0A.74.74,0,0,0,27,321h3.28a.74.74,0,0,0,.74-.74,3.14,3.14,0,1,1,6.27,0A.74.74,0,0,0,38,321h0l63-63Z"/><path class="cls-2" d="M101.09,257.94l-63,63h3.27a.74.74,0,0,0,.74-.74,3.13,3.13,0,1,1,6.27,0,.74.74,0,0,0,.74.74h3.28a.74.74,0,0,0,.74-.74,3.14,3.14,0,1,1,6.27,0,.73.73,0,0,0,.69.73l41-41Z"/><path class="cls-3" d="M101.09,279.94l-41,41H63.4a.74.74,0,0,0,.74-.74,3.14,3.14,0,1,1,6.27,0,.74.74,0,0,0,.74.74h3.28a.74.74,0,0,0,.74-.74,3.14,3.14,0,1,1,6.27,0,.73.73,0,0,0,.63.72l19-19Z"/><path class="cls-2" d="M82.08,321l.11,0h3.28a.74.74,0,0,0,.74-.74,3.14,3.14,0,0,1,6.28,0,.74.74,0,0,0,.74.74h3.24a.73.73,0,0,0,.74-.74,3.14,3.14,0,0,1,3.14-3.14.74.74,0,0,0,.74-.74V301.94Z"/><path class="cls-4" d="M.74,375.7A.74.74,0,0,1,0,375V324.12a.74.74,0,0,1,.74-.74,3.14,3.14,0,0,0,3.14-3.14.74.74,0,0,1,.74-.74H8.21a.75.75,0,0,1,.74.74,3.14,3.14,0,1,0,6.27,0,.74.74,0,0,1,.74-.74h3.28a.74.74,0,0,1,.74.74,3.14,3.14,0,1,0,6.27,0,.74.74,0,0,1,.74-.74h3.28a.74.74,0,0,1,.74.74,3.14,3.14,0,0,0,6.27,0,.74.74,0,0,1,.74-.74h3.28a.75.75,0,0,1,.74.74,3.13,3.13,0,1,0,6.27,0,.74.74,0,0,1,.74-.74h3.28a.74.74,0,0,1,.53.22.74.74,0,0,1,.22.53,3.14,3.14,0,0,0,6.27,0,.74.74,0,0,1,.74-.74H63.4a.76.76,0,0,1,.53.22.75.75,0,0,1,.21.53,3.14,3.14,0,0,0,6.27,0,.74.74,0,0,1,.74-.74h3.28a.75.75,0,0,1,.52.22.73.73,0,0,1,.21.53,3.14,3.14,0,0,0,6.27,0,.74.74,0,0,1,.74-.74h3.28a.74.74,0,0,1,.74.74,3.14,3.14,0,0,0,6.28,0,.74.74,0,0,1,.74-.74h3.24a.74.74,0,0,1,.52.22.73.73,0,0,1,.22.53,3.14,3.14,0,0,0,3.14,3.14.74.74,0,0,1,.74.74V375a.74.74,0,0,1-.74.74Z"/><path class="cls-5" d="M50.55,149.62a12.17,12.17,0,1,1,12.17-12.17,12.18,12.18,0,0,1-12.17,12.17Zm0-18.64A6.47,6.47,0,1,0,57,137.45,6.48,6.48,0,0,0,50.55,131Z"/><path class="cls-6" d="M50.55,130.06a7,7,0,1,0,7,7A7,7,0,0,0,50.55,130.06Zm11.84,7a11.84,11.84,0,1,1-11.84-11.84A11.84,11.84,0,0,1,62.39,137Z"/><path class="cls-7" d="M61.7,137a11.15,11.15,0,1,1-11.15-11.15A11.15,11.15,0,0,1,61.7,137Zm-11.15-8.84A8.84,8.84,0,1,0,59.38,137,8.84,8.84,0,0,0,50.55,128.18Z"/><path class="cls-8" d="M54,107.28c-.63-2.28-1.32-4.61-2-6.92C49.26,90.82,46.37,81,46.37,73.44a1.43,1.43,0,0,1,2.87,0c0,7.1,2.83,16.77,5.56,26.12.81,2.77,1.61,5.5,2.33,8.15C56.51,107.6,54.9,107.32,54,107.28Z"/><path class="cls-8" d="M46.19,132.67a9.59,9.59,0,0,1-3-2.66c-4.84-6.59-2.36-20,.26-34.21,1.46-7.88,3-16,3-22.37a1.43,1.43,0,0,1,2.87,0c0,6.61-1.53,14.89-3,22.89-2.4,13-4.88,26.4-.77,32a6.73,6.73,0,0,0,4.36,2.7,6.46,6.46,0,0,1,3.82.74C52.83,134.4,48.28,133.86,46.19,132.67Z"/><path class="cls-8" d="M49.24,67.35H46.37c0-6.52-2-15.61-4.12-25.22-3.5-15.85-7.11-32.24-1.71-39A8.82,8.82,0,0,1,47.8,0a8.82,8.82,0,0,1,7.27,3.18c5.4,6.72,1.78,23.11-1.71,39-2.12,9.62-4.12,18.7-4.12,25.22ZM47.8,2.86a6,6,0,0,0-5,2.1C38.23,10.62,41.85,27,45,41.52c1,4.59,2,9.06,2.76,13.22.76-4.16,1.75-8.63,2.76-13.22C53.75,27,57.37,10.62,52.84,5a6,6,0,0,0-5-2.1Z"/><path class="cls-9" d="M45.42,62.07h4.77a1.5,1.5,0,0,1,1.5,1.5V75.44a1.51,1.51,0,0,1-1.51,1.51H45.42a1.5,1.5,0,0,1-1.5-1.5V63.57A1.51,1.51,0,0,1,45.42,62.07Z"/><rect class="cls-10" x="43.98" y="62.14" width="7.65" height="14.74" rx="1.48" ry="1.48"/><path d="M46.26,63.15h3.09a1,1,0,0,1,1,1V74.7a1,1,0,0,1-1,1H46.26a1,1,0,0,1-1-1V64.13A1,1,0,0,1,46.26,63.15Z"/><path class="cls-11" d="M46.26,63.31h3.09a1,1,0,0,1,1,1V74.86a1,1,0,0,1-1,1H46.26a1,1,0,0,1-1-1V64.29A1,1,0,0,1,46.26,63.31Z"/><path class="cls-12" d="M50.33,74.79a1,1,0,0,1-1,1H46.26a1,1,0,0,1-1-1V64.22a1,1,0,0,1,1-1h3.09a1,1,0,0,1,1,1Z"/><rect class="cls-13" x="8.38" y="330.17" width="1.11" height="35.63"/><rect class="cls-13" x="10.53" y="330.17" width="1.1" height="35.63" transform="translate(-0.92 0.03) rotate(-0.15)"/><rect class="cls-13" x="12.67" y="330.17" width="1.1" height="28.73"/><rect class="cls-13" x="19.93" y="330.17" width="1.11" height="28.73"/><rect class="cls-13" x="14.81" y="330.17" width="3.36" height="28.61"/><rect class="cls-13" x="45.7" y="330.17" width="3.36" height="28.61"/><rect class="cls-13" x="21.86" y="330.17" width="2.88" height="28.61"/><rect class="cls-13" x="25.66" y="330.17" width="2.88" height="28.61"/><polygon class="cls-13" points="33.19 358.78 35.65 358.78 35.65 330.17 33.19 330.17 33.19 358.78"/><rect class="cls-13" x="58.62" y="330.17" width="2.47" height="28.61"/><rect class="cls-13" x="16.15" y="343.55" width="28.61" height="1.84" transform="translate(-314.06 374.57) rotate(-89.94)"/><rect class="cls-13" x="48.9" y="343.55" width="28.61" height="1.84" transform="translate(-281.33 407.33) rotate(-89.94)"/><rect class="cls-13" x="64.98" y="330.17" width="1.84" height="28.61" transform="translate(-0.35 0.07) rotate(-0.06)"/><polygon class="cls-13" points="68.99 358.78 70.83 358.78 70.83 330.17 68.99 330.18 68.99 358.78"/><rect class="cls-13" x="59.2" y="343.55" width="28.61" height="1.84" transform="translate(-271.05 417.62) rotate(-89.94)"/><rect class="cls-13" x="75.49" y="330.17" width="1.84" height="28.61"/><polygon class="cls-13" points="79.15 358.78 80.99 358.78 80.99 330.17 79.15 330.17 79.15 358.78"/><polygon class="cls-13" points="50.05 358.9 51.16 358.91 51.16 330.17 50.06 330.17 50.05 358.9"/><polygon class="cls-13" points="52.2 365.55 53.3 365.55 53.3 330.17 52.2 330.17 52.2 365.55"/><rect class="cls-13" x="37.2" y="347.31" width="35.38" height="1.11" transform="translate(-293.11 401.84) rotate(-89.85)"/><rect class="cls-13" x="56.48" y="330.17" width="1.11" height="28.73"/><polygon class="cls-13" points="86.54 358.9 87.65 358.91 87.65 330.17 86.54 330.17 86.54 358.9"/><polygon class="cls-13" points="81.98 358.91 83.08 358.9 83.08 330.17 81.98 330.17 81.98 358.91"/><rect class="cls-13" x="91.17" y="330.17" width="1.11" height="28.73"/><polygon class="cls-13" points="88.68 358.91 89.79 358.9 89.79 330.17 88.68 330.17 88.68 358.91"/><polygon class="cls-13" points="94.76 365.8 95.87 365.8 95.87 330.17 94.76 330.17 94.76 365.8"/><rect class="cls-13" x="96.9" y="330.17" width="1.11" height="35.63" transform="matrix(1, 0, 0, 1, -0.91, 0.26)"/><rect class="cls-13" x="36.99" y="330.17" width="1.1" height="28.61"/><polygon class="cls-13" points="39.13 358.78 40.24 358.78 40.24 330.17 39.13 330.17 39.13 358.78"/><polygon class="cls-13" points="43.35 358.78 44.45 358.78 44.45 330.17 43.35 330.17 43.35 358.78"/><polygon class="cls-13" points="3.61 363 3.81 363.79 5.15 363.07 5.17 363.07 5.17 369.75 6.18 369.75 6.18 362.11 5.29 362.11 3.61 363"/><path class="cls-13" d="M15.11,368.87l.6-.56c1.62-1.56,2.65-2.7,2.65-4.11A2.16,2.16,0,0,0,16,362a3.43,3.43,0,0,0-2.16.77l.33.73a2.59,2.59,0,0,1,1.63-.65,1.35,1.35,0,0,1,1.51,1.49c0,1.15-.89,2.14-2.86,4l-.82.79v.63h4.91v-.86H15.12Z"/><path class="cls-13" d="M22.77,365.64v0a1.91,1.91,0,0,0,1.42-1.81c0-.93-.68-1.82-2.2-1.83a3.71,3.71,0,0,0-2,.59l.29.75a2.81,2.81,0,0,1,1.53-.5c1,0,1.35.54,1.35,1.15,0,.9-1,1.29-1.71,1.29h-.58V366h.58c1,0,2,.46,2,1.53,0,.65-.41,1.48-1.74,1.48a3.61,3.61,0,0,1-1.7-.48l-.29.79a4,4,0,0,0,2,.51c1.83,0,2.8-1.07,2.8-2.29A2,2,0,0,0,22.77,365.64Z"/><path class="cls-13" d="M30,362.11H28.86L25.43,367v.67H29v2.1h1v-2.1h1.08v-.8H30Zm-1,2.2v2.55H26.48v0l1.88-2.6c.21-.34.4-.68.64-1.13h0C29,363.51,29,363.91,29,364.31Z"/><path class="cls-13" d="M35.49,365.32a3.11,3.11,0,0,0-1.65-.41,6,6,0,0,0-.63,0l.29-2h2.94v-.86H32.76l-.5,3.66c.28,0,.62-.07,1.07-.07,1.53,0,2.2.69,2.2,1.68A1.69,1.69,0,0,1,33.73,369a3.53,3.53,0,0,1-1.66-.42l-.26.78a3.85,3.85,0,0,0,1.92.47,2.66,2.66,0,0,0,2.86-2.61A2.15,2.15,0,0,0,35.49,365.32Z"/><path class="cls-13" d="M40.74,364.71a2.31,2.31,0,0,0-1.87.89h0a3.07,3.07,0,0,1,2.68-2.7,3.62,3.62,0,0,1,.78-.06V362a4.86,4.86,0,0,0-.75.06,4.18,4.18,0,0,0-2.46,1.13,4.71,4.71,0,0,0-1.3,3.45c0,2,1.07,3.26,2.71,3.26a2.56,2.56,0,0,0,2.56-2.7A2.28,2.28,0,0,0,40.74,364.71Zm-.22,4.37c-1.1,0-1.69-.94-1.7-2.2a1,1,0,0,1,.11-.45,1.72,1.72,0,0,1,1.5-.94A1.56,1.56,0,0,1,42,367.25C42,368.34,41.41,369.08,40.52,369.08Z"/><polygon class="cls-13" points="44.13 362.97 47.89 362.97 47.89 363 44.55 369.75 45.63 369.75 48.98 362.79 48.98 362.11 44.13 362.11 44.13 362.97"/><path class="cls-13" d="M60.78,365.68v0A2,2,0,0,0,62,363.86,2,2,0,0,0,59.8,362a2.15,2.15,0,0,0-2.39,2,1.89,1.89,0,0,0,1.23,1.72v0a2.21,2.21,0,0,0-1.53,2.06c0,1.12,1,2.05,2.58,2.05a2.36,2.36,0,0,0,2.62-2.22A2.14,2.14,0,0,0,60.78,365.68Zm-2.36-1.74a1.22,1.22,0,0,1,1.34-1.22A1.19,1.19,0,0,1,61,364a1.52,1.52,0,0,1-1.17,1.39C59,365.12,58.4,364.71,58.41,363.94Zm1.32,5.18a1.41,1.41,0,0,1-1.54-1.44,1.68,1.68,0,0,1,1.38-1.59c1,.29,1.69.75,1.69,1.66A1.38,1.38,0,0,1,59.73,369.12Z"/><path class="cls-13" d="M65.88,362a2.63,2.63,0,0,0-2.62,2.72A2.21,2.21,0,0,0,65.5,367a2.26,2.26,0,0,0,1.83-.81h0a3.34,3.34,0,0,1-1,2,2.83,2.83,0,0,1-1.61.75,4.25,4.25,0,0,1-.84,0v.85a4.68,4.68,0,0,0,1-.06,3.77,3.77,0,0,0,2.23-1,4.77,4.77,0,0,0,1.32-3.57C68.41,363.24,67.45,362,65.88,362Zm1.39,3.49a1.72,1.72,0,0,1-1.51.79,1.48,1.48,0,0,1-1.48-1.62c0-1.09.62-1.87,1.5-1.87,1.1,0,1.58,1,1.58,2.3A.71.71,0,0,1,67.27,365.46Z"/><path class="cls-13" d="M71.94,362c-1.56,0-2.69,1.4-2.69,4s1.05,3.93,2.56,3.92c1.69,0,2.67-1.43,2.67-4C74.48,363.42,73.55,362,71.94,362Zm-.08,7.11c-.95,0-1.56-1.13-1.56-3.12s.66-3.18,1.56-3.18c1.09,0,1.56,1.23,1.56,3.12S72.92,369.08,71.87,369.08Z"/><path class="cls-13" d="M78,362c-1.56,0-2.68,1.4-2.68,4s1.05,3.93,2.56,3.93c1.69,0,2.67-1.43,2.67-4C80.55,363.41,79.62,362,78,362Zm-.07,7.1c-.95,0-1.56-1.13-1.56-3.12s.66-3.18,1.56-3.18c1.08,0,1.56,1.24,1.56,3.12S79,369.08,77.94,369.08Z"/><path class="cls-13" d="M84.08,362c-1.56,0-2.68,1.4-2.68,4s1.05,3.93,2.56,3.93c1.69,0,2.67-1.43,2.67-4C86.62,363.41,85.69,362,84.08,362Zm-.07,7.1c-.95,0-1.56-1.13-1.57-3.12s.67-3.18,1.56-3.18c1.09,0,1.56,1.23,1.56,3.12S85.06,369.08,84,369.08Z"/><path class="cls-13" d="M90.14,362c-1.56,0-2.68,1.4-2.68,4s1,3.93,2.55,3.93c1.7,0,2.67-1.43,2.67-4C92.69,363.41,91.75,362,90.14,362Zm-.07,7.11c-.95,0-1.56-1.13-1.56-3.12s.66-3.18,1.56-3.18c1.09,0,1.56,1.23,1.56,3.11S91.12,369.08,90.07,369.08Z"/></g></g></svg>