<svg xmlns="http://www.w3.org/2000/svg" xmlns:xlink="http://www.w3.org/1999/xlink" viewBox="0 0 209.54 209.68"><defs><style>.cls-1{isolation:isolate;}.cls-10,.cls-2,.cls-20,.cls-22,.cls-25,.cls-26,.cls-3,.cls-5{mix-blend-mode:multiply;}.cls-2{fill:url(#radial-gradient);}.cls-3{fill:url(#radial-gradient-2);}.cls-4{fill:#ffb06a;}.cls-5{fill:#c0834f;opacity:0.5;}.cls-6{fill:#640302;}.cls-7{fill:url(#_25);}.cls-8{opacity:0.2;}.cls-18,.cls-29,.cls-8{mix-blend-mode:screen;}.cls-10,.cls-9{fill:#a96d6b;}.cls-10,.cls-29{opacity:0.3;}.cls-11{fill:#77b818;}.cls-12{fill:#598a0f;}.cls-13{fill:#d60c00;}.cls-14{fill:#ff3c2d;}.cls-15,.cls-19{fill:#f2f2f2;}.cls-15{opacity:0.7;}.cls-16{opacity:0.39;}.cls-17{fill:#fff8d5;}.cls-18{opacity:0.49;}.cls-20,.cls-22{opacity:0.4;}.cls-21,.cls-22{fill:#919191;}.cls-23{fill:#f7931e;}.cls-24{fill:#ffc200;}.cls-25{fill:#e6e6e6;}.cls-26{fill:#b3b3b3;}.cls-27{fill:#fdf7f7;}.cls-28{fill:#f3d4d4;}.cls-29{fill:#ffbf88;}.cls-30{fill:#845225;}.cls-31{fill:#ae7033;}</style><radialGradient id="radial-gradient" cx="103.48" cy="960.34" r="103.29" gradientTransform="translate(0 -418.49) scale(1 0.59)" gradientUnits="userSpaceOnUse"><stop offset="0"/><stop offset="0.17" stop-color="#353535"/><stop offset="0.54" stop-color="#a1a1a1"/><stop offset="0.8" stop-color="#e5e5e5"/><stop offset="0.92" stop-color="#fff"/></radialGradient><radialGradient id="radial-gradient-2" cx="104.36" cy="2552.16" r="74.53" gradientTransform="translate(0 -873.53) scale(1 0.4)" gradientUnits="userSpaceOnUse"><stop offset="0.18"/><stop offset="0.32" stop-color="#353535"/><stop offset="0.62" stop-color="#a1a1a1"/><stop offset="0.82" stop-color="#e5e5e5"/><stop offset="0.92" stop-color="#fff"/></radialGradient><linearGradient id="_25" x1="-7790.76" y1="-4447.22" x2="-7695.32" y2="-4447.22" gradientTransform="matrix(-0.52, -0.86, -0.86, 0.52, -7698.52, -4214.19)" gradientUnits="userSpaceOnUse"><stop offset="0" stop-color="#d04c4c"/><stop offset="1" stop-color="#640302"/></linearGradient></defs><title>Ресурс 11</title><g class="cls-1"><g id="Слой_2" data-name="Слой 2"><g id="elements"><ellipse class="cls-2" cx="103.48" cy="148.68" rx="103.29" ry="61"/><ellipse class="cls-3" cx="104.36" cy="155.76" rx="74.52" ry="30.06"/><path class="cls-4" d="M183.73,116.25c-.91,29.66-36.23,53.57-78.88,53.4s-76.48-24.36-75.57-54,36.23-53.57,78.88-53.4S184.65,86.59,183.73,116.25Z"/><path class="cls-5" d="M175.5,132.21c-43.32,24.84-72.82,25.25-92.23,20.37C72,149.76,55.64,143,54.73,145.07c-.75,1.68,9.17,8.87,19.32,13.44,15.79,7.11,40.68,11.72,66.31.86A90.25,90.25,0,0,0,175.5,132.21Z"/><path class="cls-5" d="M73,152A59.2,59.2,0,0,0,86.9,159c36.31,12.38,73.33-15.52,80.78-21.36a114.59,114.59,0,0,1-50.39,18.6A108.58,108.58,0,0,1,73,152Z"/><path class="cls-5" d="M110.85,150.09c-42.65-.17-76.48-24.36-75.57-54,0-.06,0-.11,0-.17a40.52,40.52,0,0,0-6,19.73c-.91,29.66,32.92,53.85,75.57,54s77.83-23.64,78.87-53.22C171.8,136.27,143.47,150.22,110.85,150.09Z"/><path class="cls-6" d="M157.56,145.64c-13.43,8.59-28.2,6.66-31.65,6.2-15.82-2.08-18-10.35-30.62-9.84-15.13.6-19.1,12.75-29.06,10.71-11.35-2.32-20.59-21-19.71-36.77C48,89.13,79,67.92,106.26,64.23,135,60.34,174.39,73.86,179,101.28,181.71,117.65,171.65,136.62,157.56,145.64Z"/><path class="cls-7" d="M154.43,143.39c-12.88,8.24-26.65,6.26-29.46,5.77-15.95-2.73-17.8-13.11-30.13-13C80,136.21,75,151.19,65.35,148.65c-9.27-2.45-15.53-19.26-14.28-32.9,2.28-25,30.19-44.69,55.61-48.14,26.72-3.62,63.41,9,67.68,34.49C176.91,117.33,167.55,135,154.43,143.39Z"/><path class="cls-6" d="M60.48,150.07A17.22,17.22,0,0,0,63,151.62a1.92,1.92,0,0,0,1-1.09l2.25-5.87,7.28,7A29.79,29.79,0,0,0,77,149.56l-9.21-8.82,3.78-9.85,10.07,9.64-3.07,8a53.84,53.84,0,0,1,5.38-3.4l.66-1.71,1,.91a25.34,25.34,0,0,1,4.07-1.46l-3.52-3.37,3.85-10,9.36,9L98,142a20.83,20.83,0,0,1,3.83.61l.51-1.35,2.46,2.35a48.07,48.07,0,0,1,4.74,2.39,1.92,1.92,0,0,0,.28-.26,2,2,0,0,0-.12-2.79l-5.86-5.61,5-13.08,9.45,9-5.52,14.43c1.07.55,2.21,1.08,3.45,1.59l5-13.17,8.9,8.52-2.8,7.32c1,.11,2.36.23,4,.29l1.83-4.76,3.15,3a1.82,1.82,0,0,0,2.66-.13,2,2,0,0,0-.12-2.79l-4.19-4,4.79-12.5,10.71,10.26-3.5,9.14a42.72,42.72,0,0,0,4.69-1.64l1.78-4.65.18.17a1.82,1.82,0,0,0,2.66-.13,2,2,0,0,0-.12-2.79l-1.22-1.16L159.32,128l7.92,7.58a1.84,1.84,0,0,0,1,.49q1.06-1.29,2-2.66a2,2,0,0,0-.48-.75l-9-8.58,4.48-11.7,10.52,10.07a1.88,1.88,0,0,0,.35.26c.52-1.3,1-2.61,1.4-3.94l-10.76-10.3,7.4-19.32a37.61,37.61,0,0,0-2.66-3.65l-7.71,20.13L153.12,95.32,160,77.45a2,2,0,0,0-1-2.57,1.85,1.85,0,0,0-2.45,1.1l-6.32,16.5-8.91-8.53,4.28-11.19a2,2,0,0,0-1-2.57,1.86,1.86,0,0,0-2.45,1.1l-3.76,9.82L128.75,72,130,68.73a2,2,0,0,0-1.05-2.57,1.86,1.86,0,0,0-2.45,1.1l-.72,1.89L120,63.66c-1.9-.08-3.79-.1-5.65-.06l9.9,9.48-4.47,11.72L110.65,76l3-7.68a2,2,0,0,0-1-2.57,1.86,1.86,0,0,0-2.45,1.09l-2.44,6.32-6.61-6.32a1.82,1.82,0,0,0-2.66.13,2.05,2.05,0,0,0-.22,2.35,2,2,0,0,0,.34.44l7.64,7.31-4.76,12.33L91.25,79.69l5.14-13.4c-1.54.43-3.08.91-4.61,1.44l-3.5,9.12L87.1,75.71a1.82,1.82,0,0,0-2.66.13,2.05,2.05,0,0,0-.22,2.35,2,2,0,0,0,.34.44l2.22,2.12L82,93.25l-7.66-7.33,4.9-12.72q-2.67,1.43-5.24,3l-2.63,6.83-1.26-1.21a1.82,1.82,0,0,0-2.66.13,2.05,2.05,0,0,0-.22,2.35,2,2,0,0,0,.34.44l2.3,2.2-5,13-8.54-8.18c-.81,1-1.59,2.07-2.31,3.14l9.35,8.95-3.84,10L49.16,104a40.31,40.31,0,0,0-1.35,4.06L58,117.84l-3.79,9.84-7.67-7.34a45.31,45.31,0,0,0,.77,6.09l5.39,5.16-2,5.29s0,0,0,.07q.59,1.31,1.24,2.55a1.86,1.86,0,0,0,2.27-1.15l1.51-3.93,7.71,7.38-2.78,7.24A2,2,0,0,0,60.48,150.07Zm5.81-43.28L74,114.14l-3.83,10-7.69-7.36ZM126.05,113l-9.47-9.07,4.71-12.37,9.49,9.08Zm7.7-9.51,8.91,8.53-4.73,12.36-8.9-8.52Zm-26.41,14-9.28-8.89,4.81-12.47,9.24,8.84Zm-18.79,5.21-10.1-9.67,5-13.06,10.13,9.69ZM80.48,97.17l-5,13.06-7.68-7.35,5-13Zm19.42-3.84L95.09,105.8,85,96.1,89.75,83.6Zm18.42-4.61-4.71,12.37-9.22-8.83,4.76-12.33Zm14,8-9.49-9.09,4.47-11.72,9.51,9.1Zm11.88,11.37-8.91-8.53,4.48-11.71,8.91,8.53Zm13.69,13.1-10.71-10.26,4.48-11.7,10.71,10.26Zm-16.95,6,4.73-12.36,10.71,10.26-4.73,12.36Zm-13.38-7.45,8.9,8.52-4.79,12.5-8.9-8.52Zm-17.21.61,4.77-12.52,9.47,9.06-4.78,12.5Zm-18.8,5.21,5-13,9.3,8.9-5,13.08ZM73.12,127l3.83-10L87,126.65l-3.85,10ZM64.87,137.9l-7.71-7.38,3.79-9.84,7.7,7.37Z"/><g class="cls-8"><path class="cls-9" d="M158.61,137.28c-16.06,12.4-43,7.62-47.63-3.69-1.91-4.69-.41-11.61,3.41-14.47,6.1-4.58,13.51,4.65,22.63,1.06,8.78-3.46,7.19-14.09,17.18-18.59,5.59-2.51,13.65-2.6,17,1.53C176.72,109.83,170.27,128.28,158.61,137.28Z"/></g><g class="cls-8"><path class="cls-9" d="M155.36,131.64c-12,8.79-30.73,7.34-35.55-.56-.33-.53-1.62-2.66-.87-4.06,1.87-3.52,12.86,4.28,22-.07,6.82-3.26,5.49-9.92,14.61-15.41,3-1.83,9.61-5,11.63-2.75C169.86,111.75,164.73,124.77,155.36,131.64Z"/></g><g class="cls-8"><path class="cls-9" d="M164.09,113a54.84,54.84,0,0,1-13.24,12,43.78,43.78,0,0,1-19.94,7.62c-18.63,2.15-30.44-10.6-48.62.92A53.68,53.68,0,0,0,73,141.78a3.56,3.56,0,0,1-5.07-.9C64,134.05,80.81,121.06,87.19,117c27.27-17.28,36.06,0,49.56-8.53,5.32-3.37,10.71-9.31,14.57-11.76,7.24-4.59,11.57-1.93,12.7-1.34a8.79,8.79,0,0,1,3.91,4C169.75,103.27,168.27,108.79,164.09,113Z"/></g><path class="cls-10" d="M53.61,113c4-10.29,12.18-26.17,28.46-35.94,28.4-17,69.24-8.21,71.64,3.3a7.84,7.84,0,0,1-1.28,5.43c-6.79,12-28-1.88-47.81,8.74-12.9,6.91-25.19,24.17-38.54,32.05-1.06.63-3.44,2-5.85,1.19C54.84,126,53.8,115.32,53.61,113Z"/><path class="cls-10" d="M134,81.26a90.09,90.09,0,0,0-38.63,13.5,94.58,94.58,0,0,0-19,16.64c-3.49,2.21-7,.4-7.66-.73-.91-1.58,9.51-19,25.62-29.22,22.07-14,40.46-4.84,42.08-2a1.4,1.4,0,0,1-.55,1.6C135.3,81.39,134.54,81.2,134,81.26Z"/><path class="cls-11" d="M90.64,95.25C68,99.53,60.16,139.93,65.52,144.1c2.46,1.92,6.65-4.69,14.38-2.77,6.07,1.51,8.92,6.93,12.6,5.55,2.93-1.1,2.45-5,5.13-5.74,4.22-1.13,8.14,7.83,11.53,6.82,3.8-1.12,1.49-13.17,6-15.28,4.19-1.94,9.59,6.68,11.84,5.24,3.4-2.18-.45-27.26-17.37-38.07C107.55,98.51,99.75,93.53,90.64,95.25Z"/><path class="cls-12" d="M89.49,102.14c-9.86,3-16.73,20.16-12.75,27.82.53,1,2.3,2.91,5.85,6.7,6.33,6.76,7.44,6.77,8,6.68,3.77-.69,3.1-11.82,6.22-12.31,3.65-.57,8.32,14,10.45,13.4s-1.95-13.55,2.23-16.52c4.47-3.18,14.65,7.68,15.66,6.48C126.71,132.46,105.81,97.24,89.49,102.14Z"/><path class="cls-11" d="M122.82,76.61c-20.24,11.33-16.73,52.86-10.53,55.18,2.85,1.07,5-6.65,12.86-7.25,6.15-.47,10.31,3.86,13.42,1.36,2.47-2,1-5.63,3.3-7.17,3.68-2.43,9.82,5,12.76,2.92,3.3-2.3-2.16-13.2,1.58-16.68,3.44-3.21,10.88,3.41,12.62,1.3,2.63-3.19-7.81-26.19-26.75-31.25C139.71,74.38,131,72.05,122.82,76.61Z"/><path class="cls-12" d="M123.6,83.64c-8.53,6-10.36,24.8-4.52,30.93.78.81,3,2.08,7.35,4.61,7.82,4.52,8.87,4.17,9.33,3.92,3.38-1.86-.28-12.4,2.54-13.87,3.29-1.71,11.67,10.9,13.52,9.62s-5.51-12.46-2.37-16.66c3.37-4.5,15.94,2.75,16.57,1.28C167,101.08,137.71,73.71,123.6,83.64Z"/><path class="cls-11" d="M57.33,91.71c23.05,2.56,36,42.18,31.18,46.73-2.21,2.1-7.21-4.17-14.67-1.67-5.85,2-8,7.57-11.84,6.47-3-.87-3.07-4.81-5.83-5.32-4.34-.81-7.11,8.4-10.62,7.66-3.93-.83-3.15-13-7.95-14.75-4.42-1.61-8.7,7.37-11.12,6.11-3.66-1.91-3-27.17,12.48-39.2C40.91,96.23,48,90.68,57.33,91.71Z"/><path class="cls-12" d="M59.35,98.48c10.19,2.2,19.2,18.81,16.2,26.73-.4,1.05-1.92,3.07-5,7.11-5.45,7.21-6.55,7.3-7.07,7.24-3.84-.4-4.57-11.53-7.74-11.79-3.7-.3-6.51,14.58-8.71,14.12s.23-13.63-4.3-16.27c-4.85-2.83-13.62,8.74-14.76,7.63C26.13,131.45,42.49,94.83,59.35,98.48Z"/><path class="cls-11" d="M53.49,85.32c-3.35,23-43.4,34.5-47.78,29.54-2-2.28,4.42-7.06,2.18-14.6C6.13,94.35.6,92,1.82,88.21c1-3,4.91-2.91,5.52-5.65,1-4.31-8.15-7.4-7.29-10.87,1-3.9,13.1-2.69,15-7.43C16.84,59.9,8,55.31,9.35,52.93c2-3.59,27.25-2.06,38.74,13.83C49.54,68.75,54.84,76.08,53.49,85.32Z"/><path class="cls-12" d="M46.65,87.1c-2.55,10.1-19.46,18.54-27.27,15.27-1-.43-3-2-6.93-5.22-7-5.69-7.07-6.8-7-7.32C6,86,17.14,85.66,17.5,82.5c.42-3.69-14.34-7-13.81-9.19S17.3,74,20.1,69.58c3-4.75-8.27-13.91-7.11-15C14.85,52.76,50.88,70.38,46.65,87.1Z"/><path class="cls-13" d="M161.36,119.06l.73.34a21.47,21.47,0,0,0,15.13.62,19.83,19.83,0,0,0,10.88-10.47A19.83,19.83,0,0,0,197.84,98,21.47,21.47,0,0,0,196.25,83c-.16-.31-.3-.55-.39-.7-6.94-12.12-24-11.86-29.77-10.44a20.48,20.48,0,0,0-7.6,3.92,25.65,25.65,0,0,0-6,6.45A20.48,20.48,0,0,0,149,90C148,95.86,148.81,112.92,161.36,119.06Z"/><path class="cls-14" d="M161.92,117.78l.69.33a20.34,20.34,0,0,0,14.33.58,18.79,18.79,0,0,0,10.31-9.92,18.79,18.79,0,0,0,9.23-10.93A20.35,20.35,0,0,0,195,83.56c-.16-.29-.28-.52-.37-.67C188,71.41,171.85,71.66,166.4,73a19.41,19.41,0,0,0-7.2,3.72,24.31,24.31,0,0,0-5.73,6.11,19.41,19.41,0,0,0-3.25,7.43C149.24,95.79,150,112,161.92,117.78Z"/><path class="cls-13" d="M183.24,90.39c-.15,1.69-2.14,1.92-2.28,3.57-.17,2,2.64,4.72,5.49,4.79,3.28.08,6-3.33,6.6-6.28,1.1-5.05-3.61-9.45-5.32-11.05-6.93-6.48-16-5.24-17.82-4.94-2.6.42-6.61,1.08-7.6,3.93a5.42,5.42,0,0,0,2.22,6c2.38,1.55,5.76.82,6.78-.77.51-.79.15-1.36.68-1.86,1.48-1.42,5.93,1.12,6.49,1.45C180.06,86.13,183.45,88.11,183.24,90.39Z"/><path class="cls-15" d="M187,91.9c-.81-.09-3-1.82-3-1.82s2.49-1.21,3.3-1.12A1.48,1.48,0,0,1,187,91.9Z"/><path class="cls-15" d="M183.89,95.6c-.46-.68-.55-3.44-.55-3.44s2.54,1.1,3,1.77a1.48,1.48,0,1,1-2.45,1.66Z"/><path class="cls-15" d="M186.4,87.44c-.71.41-3.47.28-3.47.28s1.29-2.44,2-2.85a1.48,1.48,0,0,1,1.47,2.57Z"/><path class="cls-15" d="M183.95,83.88c-.4.71-2.82,2-2.82,2s-.17-2.76.23-3.47a1.48,1.48,0,1,1,2.59,1.43Z"/><path class="cls-15" d="M180.27,81.47c-.13.81-2,2.88-2,2.88s-1.1-2.54-1-3.34a1.48,1.48,0,1,1,2.92.46Z"/><path class="cls-15" d="M176,80.32a9,9,0,0,1-.57,2.69,9,9,0,0,1-1.7-2.16,1.17,1.17,0,1,1,2.27-.53Z"/><path class="cls-15" d="M172.07,80a9,9,0,0,1,.41,2.72,9,9,0,0,1-2.35-1.42,1.17,1.17,0,0,1,1.94-1.3Z"/><path class="cls-15" d="M169.06,82.51a7.12,7.12,0,0,1,1.26,1.77,7.12,7.12,0,0,1-2.17-.16.92.92,0,1,1,.91-1.61Z"/><path class="cls-13" d="M168.25,106.38c1.68-.26,1.78-2.26,3.41-2.5,2-.31,4.88,2.33,5.13,5.17.29,3.27-2.94,6.16-5.84,7-5,1.42-9.66-3-11.37-4.6-6.91-6.5-6.26-15.66-6.08-17.46.26-2.62.65-6.66,3.43-7.84A5.42,5.42,0,0,1,163.06,88c1.7,2.28,1.19,5.69-.33,6.82-.76.56-1.34.24-1.81.79-1.33,1.57,1.51,5.85,1.86,6.38C163.8,103.48,166,106.73,168.25,106.38Z"/><path class="cls-15" d="M170,110.06c-.14-.8-2-2.84-2-2.84s-1,2.56-.9,3.36a1.48,1.48,0,1,0,2.91-.52Z"/><path class="cls-15" d="M173.49,106.69c-.7-.42-3.47-.33-3.47-.33s1.26,2.46,2,2.88a1.48,1.48,0,0,0,1.5-2.55Z"/><path class="cls-15" d="M165.51,109.73c.36-.73.06-3.48.06-3.48s-2.36,1.44-2.72,2.18a1.48,1.48,0,1,0,2.66,1.3Z"/><path class="cls-15" d="M161.8,107.5c.69-.44,1.86-2.95,1.86-2.95s-2.76,0-3.45.45a1.48,1.48,0,0,0,1.6,2.49Z"/><path class="cls-15" d="M159.16,104c.8-.18,2.75-2.13,2.75-2.13s-2.6-.93-3.4-.75a1.48,1.48,0,0,0,.65,2.89Z"/><path class="cls-15" d="M157.74,99.81a9,9,0,0,0,2.65-.74,9,9,0,0,0-2.26-1.56,1.17,1.17,0,0,0-.38,2.3Z"/><path class="cls-15" d="M157.18,95.9a9,9,0,0,0,2.74.23,9,9,0,0,0-1.57-2.25,1.17,1.17,0,0,0-1.17,2Z"/><path class="cls-15" d="M159.47,92.74a7.12,7.12,0,0,0,1.85,1.14,7.12,7.12,0,0,0-.3-2.15.92.92,0,0,0-1.55,1Z"/><g class="cls-16"><path class="cls-17" d="M163.91,87.79c1.48,3.77,16.28,20.14,16.43,20.27,5.36,5,2.88,1.92,4.88-.41l.12-.13.12-.12c2.19-2.14,5.45.13.09-4.89-.14-.13-17.44-13.85-21.29-15.08l-.38-.35a.31.31,0,0,1-.34.36Z"/></g><g class="cls-18"><path class="cls-19" d="M187.19,78.49c4.73,2.94,7.5,7.83,7,12.69a12.34,12.34,0,0,1-2.93,6.73c-.75,1.92-.86,3.49-.24,3.9s2.35-.69,3.21-1.58c3.34-3.44,3-11-.45-16.2A15.9,15.9,0,0,0,187.19,78.49Z"/></g><g class="cls-20"><path class="cls-21" d="M168.4,78.09c1.79-.29,10.89-1.53,17.82,4.94,1.72,1.6,6.42,6,5.32,11A9.15,9.15,0,0,1,190,97.42a9.18,9.18,0,0,0,3-5c1.1-5.05-3.61-9.45-5.32-11.05-6.93-6.48-16-5.24-17.82-4.94-2.44.4-6.12,1-7.38,3.42A15.47,15.47,0,0,1,168.4,78.09Z"/><path class="cls-21" d="M181.19,93.22a2.46,2.46,0,0,0,.3-.43A2.39,2.39,0,0,0,181.19,93.22Z"/><path class="cls-21" d="M170.47,85.38c-.39.38-.29.79-.43,1.31a3.18,3.18,0,0,0,1.27-1.07,2,2,0,0,0,.27-.66A1.71,1.71,0,0,0,170.47,85.38Z"/></g><path class="cls-22" d="M161,87.72c2,2.6,1.77,6.23.21,7.32-.78.54-1.44.15-1.91.71-1.31,1.58,2.13,6.43,2.56,7,1.24,1.72,3.89,5.41,6.33,5.22,1.81-.14,1.75-2.28,3.51-2.41s3.87,1.54,5.13,3.67c0-.07,0-.14,0-.21-.25-2.84-3.1-5.48-5.13-5.17-1.63.25-1.73,2.24-3.41,2.5-2.27.35-4.46-2.9-5.48-4.42-.36-.53-3.19-4.81-1.86-6.38.47-.56,1.05-.23,1.81-.79,1.53-1.13,2-4.54.33-6.82a5.57,5.57,0,0,0-4.39-2.16A7.21,7.21,0,0,1,161,87.72Z"/><path class="cls-13" d="M44.51,81.59l-.74.32A21.47,21.47,0,0,0,33.28,92.82a19.83,19.83,0,0,0,.62,15.09,19.83,19.83,0,0,0,2.17,14.95,21.47,21.47,0,0,0,12.32,8.79l.78.17c13.68,2.85,24.8-10.11,27.56-15.36a20.48,20.48,0,0,0,2.1-8.29,25.66,25.66,0,0,0-.82-8.8,20.48,20.48,0,0,0-3.59-7.76C70.75,87,57.43,76.28,44.51,81.59Z"/><path class="cls-14" d="M45.1,82.86l-.7.3A20.34,20.34,0,0,0,34.46,93.5,18.79,18.79,0,0,0,35,107.8,18.79,18.79,0,0,0,37.1,122a20.35,20.35,0,0,0,11.68,8.33l.74.17c13,2.7,23.5-9.58,26.12-14.55a19.41,19.41,0,0,0,2-7.86,24.31,24.31,0,0,0-.77-8.34,19.41,19.41,0,0,0-3.41-7.36C70,88,57.34,77.83,45.1,82.86Z"/><path class="cls-13" d="M51.45,117c-1.17-1.24,0-2.87-1.16-4.07-1.42-1.49-5.29-1.16-7.23.93-2.23,2.41-1.46,6.67.32,9.11,3.05,4.17,9.46,3.57,11.8,3.34,9.44-.89,14.55-8.52,15.52-10.06,1.41-2.23,3.58-5.66,2.1-8.29a5.42,5.42,0,0,0-6-2.32c-2.74.75-4.44,3.76-3.92,5.59.26.91.91,1,.94,1.74.08,2.05-4.78,3.7-5.38,3.89C56.75,117.43,53,118.66,51.45,117Z"/><path class="cls-15" d="M47.81,118.82c.61-.55,3.33-1,3.33-1s-.74,2.66-1.35,3.21a1.48,1.48,0,1,1-2-2.2Z"/><path class="cls-15" d="M47.12,114c.81.1,2.94,1.87,2.94,1.87s-2.5,1.17-3.31,1.07a1.48,1.48,0,0,1,.38-2.93Z"/><path class="cls-15" d="M51.56,121.31c.17-.8,2.09-2.78,2.09-2.78s1,2.59.81,3.39a1.48,1.48,0,1,1-2.9-.6Z"/><path class="cls-15" d="M55.86,121.83c-.27-.77.34-3.46.34-3.46s2.17,1.71,2.45,2.48a1.48,1.48,0,1,1-2.79,1Z"/><path class="cls-15" d="M60.1,120.68c-.52-.63-.86-3.37-.86-3.37s2.63.86,3.15,1.49a1.48,1.48,0,1,1-2.28,1.88Z"/><path class="cls-15" d="M63.79,118.25A9,9,0,0,1,62.16,116a9,9,0,0,1,2.74.15,1.17,1.17,0,0,1-1.11,2.05Z"/><path class="cls-15" d="M66.62,115.5a9,9,0,0,1-2.3-1.5,9,9,0,0,1,2.62-.82,1.17,1.17,0,0,1-.32,2.31Z"/><path class="cls-15" d="M66.76,111.6a7.13,7.13,0,0,1-2.16-.23s1.08-1.35,1.56-1.51a.92.92,0,0,1,.6,1.75Z"/><path class="cls-13" d="M49.42,95.16c-.92,1.43.51,2.83-.39,4.21-1.12,1.72-5,2.11-7.27.41-2.64-2-2.67-6.28-1.36-9,2.23-4.66,8.65-5.25,11-5.46,9.45-.86,15.87,5.7,17.11,7,1.79,1.93,4.56,4.91,3.59,7.76a5.42,5.42,0,0,1-5.43,3.38c-2.84-.24-5.05-2.88-4.88-4.77.08-.94.71-1.16.61-1.88-.29-2-5.38-2.75-6-2.84C54.56,93.75,50.66,93.23,49.42,95.16Z"/><path class="cls-15" d="M45.51,94c.7.43,3.46.38,3.46.38s-1.22-2.48-1.92-2.9A1.48,1.48,0,0,0,45.51,94Z"/><path class="cls-15" d="M45.72,98.88c.78-.25,2.54-2.38,2.54-2.38s-2.68-.69-3.45-.44a1.48,1.48,0,0,0,.91,2.81Z"/><path class="cls-15" d="M48.74,90.89c.31.76,2.57,2.35,2.57,2.35s.48-2.72.17-3.48a1.48,1.48,0,0,0-2.74,1.12Z"/><path class="cls-15" d="M52.86,89.59c-.13.81,1,3.34,1,3.34s1.82-2.08,1.95-2.88a1.48,1.48,0,1,0-2.92-.46Z"/><path class="cls-15" d="M57.24,89.95c-.39.72-.23,3.47-.23,3.47s2.42-1.33,2.82-2a1.48,1.48,0,0,0-2.59-1.43Z"/><path class="cls-15" d="M61.32,91.65a9,9,0,0,0-1.2,2.47,9,9,0,0,0,2.67-.66,1.17,1.17,0,0,0-1.47-1.82Z"/><path class="cls-15" d="M64.61,93.83c-.61.2-2,1.9-2,1.9a9,9,0,0,0,2.73.32,1.17,1.17,0,1,0-.74-2.21Z"/><path class="cls-15" d="M65.46,97.64a7.12,7.12,0,0,0-2.08.63,7.12,7.12,0,0,0,1.81,1.2.92.92,0,0,0,.27-1.83Z"/><g class="cls-16"><path class="cls-17" d="M66.22,104.24c-3.8-1.39-25.87-1.17-26.07-1.15-7.32.68-3.34.88-2.93,3.92l0,.17c0,.06,0,.11,0,.17.15,3.06-3.71,4,3.6,3.31.19,0,21.93-3.86,25.41-5.93l.51,0a.31.31,0,0,1,0-.49Z"/></g><g class="cls-18"><path class="cls-19" d="M57.75,127.83c-5.34,1.59-10.84.42-14.17-3.15a12.34,12.34,0,0,1-3.1-6.65c-.94-1.83-2-3-2.75-2.77s-1,2.21-1,3.45c.36,4.78,6.26,9.57,12.42,10.41A15.9,15.9,0,0,0,57.75,127.83Z"/></g><g class="cls-20"><path class="cls-21" d="M70.5,114c-1,1.54-6.07,9.17-15.52,10.06-2.34.22-8.75.83-11.8-3.34a9.15,9.15,0,0,1-1.48-3.35A9.18,9.18,0,0,0,43.39,123c3.05,4.17,9.46,3.57,11.8,3.34,9.44-.89,14.55-8.52,15.52-10.06C72,114.15,74,111,73,108.45A15.47,15.47,0,0,1,70.5,114Z"/><path class="cls-21" d="M50.7,113.58a2.46,2.46,0,0,0,.12.51A2.39,2.39,0,0,0,50.7,113.58Z"/><path class="cls-21" d="M63.67,110.75c0-.55-.4-.74-.69-1.19a3.19,3.19,0,0,0,0,1.66,2,2,0,0,0,.32.64A1.71,1.71,0,0,0,63.67,110.75Z"/></g><path class="cls-22" d="M68.21,102.1c-3.3-.19-5.84-2.81-5.62-4.7.11-.94.85-1.18.74-1.9-.31-2-6.22-2.67-7-2.75-2.11-.22-6.63-.68-8.11,1.28-1.09,1.45.55,2.83-.52,4.23S44,100.13,41.6,99.66l.16.13c2.29,1.7,6.16,1.31,7.27-.41.9-1.39-.53-2.78.39-4.21,1.24-1.93,5.13-1.41,6.94-1.17.63.08,5.71.81,6,2.84.1.72-.52.94-.61,1.88-.17,1.89,2,4.53,4.88,4.77a5.57,5.57,0,0,0,4.52-1.86A7.21,7.21,0,0,1,68.21,102.1Z"/><path class="cls-13" d="M64.26,123c.07.19.17.47.31.84a22,22,0,0,0,10.36,11.82,15.74,15.74,0,0,0,14.17-.84,15.8,15.8,0,0,0,14-2.6,24.22,24.22,0,0,0,8.13-14.08c.07-.39.12-.69.16-.89,2.53-15.56-9.77-28.08-14.72-31.17a16.55,16.55,0,0,0-7.81-2.31,20.1,20.1,0,0,0-8.26,1,17.78,17.78,0,0,0-7.25,4.15C69,93.1,59.13,108.32,64.26,123Z"/><path class="cls-14" d="M65.45,122.27c.06.18.16.45.29.79a20.8,20.8,0,0,0,9.82,11.2A14.92,14.92,0,0,0,89,133.47,15,15,0,0,0,102.27,131a23,23,0,0,0,7.7-13.34c.07-.37.12-.66.15-.85,2.39-14.75-9.25-26.61-14-29.54a15.69,15.69,0,0,0-7.4-2.19,19,19,0,0,0-7.83,1A16.85,16.85,0,0,0,74.07,90C70,94,60.59,108.41,65.45,122.27Z"/><path class="cls-13" d="M97.44,114.75c-1.15,1.34-2.7.05-3.81,1.36-1.38,1.62-1,6,1,8.2,2.28,2.51,6.28,1.6,8.55-.45,3.89-3.5,3.25-10.78,3-13.43a24.92,24.92,0,0,0-9.62-17.54c-2.11-1.58-5.36-4-7.81-2.31C87,91.74,86,94.7,86.61,97.36c.74,3.11,3.58,5,5.29,4.4.85-.3.94-1,1.62-1.09,1.93-.11,3.52,5.39,3.72,6.08C97.8,108.72,99,112.94,97.44,114.75Z"/><path class="cls-15" d="M99.2,118.87c-.52-.68-1-3.77-1-3.77s2.51.82,3,1.51a1.94,1.94,0,0,1-.08,2.37A1.23,1.23,0,0,1,99.2,118.87Z"/><path class="cls-15" d="M94.7,119.69a13.51,13.51,0,0,1,1.72-3.35,14.92,14.92,0,0,1,1,3.75,1.47,1.47,0,0,1-1.54,1.47A1.65,1.65,0,0,1,94.7,119.69Z"/><path class="cls-15" d="M101.5,114.58c-.75-.18-2.64-2.35-2.64-2.35s2.42-1.13,3.17-.95a1.7,1.7,0,0,1,1.1,2A1.42,1.42,0,0,1,101.5,114.58Z"/><path class="cls-15" d="M101.94,109.7c-.72.32-3.26-.36-3.26-.36s1.58-2.48,2.3-2.8a1.34,1.34,0,0,1,1.78,1A1.79,1.79,0,0,1,101.94,109.7Z"/><path class="cls-15" d="M100.81,104.89c-.59.6-3.16,1-3.16,1s.78-3,1.37-3.59a1.23,1.23,0,0,1,2,.21A1.93,1.93,0,0,1,100.81,104.89Z"/><path class="cls-15" d="M98.49,100.72a8.74,8.74,0,0,1-2.06,1.88,12.33,12.33,0,0,1,.12-3.12A1,1,0,0,1,98,98.93,1.48,1.48,0,0,1,98.49,100.72Z"/><path class="cls-15" d="M95.88,97.53a10.62,10.62,0,0,1-1.38,2.63,11.81,11.81,0,0,1-.8-3A1.15,1.15,0,0,1,94.93,96,1.31,1.31,0,0,1,95.88,97.53Z"/><path class="cls-15" d="M92.22,97.41a9.71,9.71,0,0,1-.2,2.46,7.59,7.59,0,0,1-1.44-1.76,1.11,1.11,0,0,1,.53-1.34A.84.84,0,0,1,92.22,97.41Z"/><path class="cls-13" d="M77,117.24c1.35,1,2.65-.6,4,.41,1.63,1.25,2,5.64.47,8.26-1.81,3-5.87,3.08-8.45,1.62-4.4-2.49-5-9.77-5.25-12.43a26.93,26.93,0,0,1,6.42-19.49c1.8-2.06,4.56-5.22,7.25-4.15,1.86.74,3.4,3.38,3.23,6.14-.19,3.22-2.65,5.76-4.43,5.59-.88-.09-1.1-.8-1.78-.67-1.9.35-2.53,6.13-2.6,6.85C75.58,111.43,75.13,115.85,77,117.24Z"/><path class="cls-15" d="M75.94,121.7a15.56,15.56,0,0,0,.32-3.93s-2.32,1.41-2.71,2.21a1.89,1.89,0,0,0,.48,2.31A1.26,1.26,0,0,0,75.94,121.7Z"/><path class="cls-15" d="M80.49,121.42c-.24-.88-2.26-2.87-2.26-2.87a15.51,15.51,0,0,0-.37,3.93,1.36,1.36,0,0,0,1.76,1.07A1.77,1.77,0,0,0,80.49,121.42Z"/><path class="cls-15" d="M73,118.06c.71-.36,2.18-2.94,2.18-2.94s-2.56-.52-3.27-.16a1.82,1.82,0,0,0-.74,2.2A1.32,1.32,0,0,0,73,118.06Z"/><path class="cls-15" d="M71.69,113.39c.76.14,3.13-1.14,3.13-1.14s-2-2.05-2.73-2.19a1.45,1.45,0,0,0-1.57,1.41A1.67,1.67,0,0,0,71.69,113.39Z"/><path class="cls-15" d="M72,108.41c.68.44,3.27.23,3.27.23s-1.28-2.74-2-3.18a1.27,1.27,0,0,0-1.88.68A1.88,1.88,0,0,0,72,108.41Z"/><path class="cls-15" d="M73.53,103.76a7.92,7.92,0,0,0,2.34,1.34,12,12,0,0,0-.65-3,1,1,0,0,0-1.54-.18A1.52,1.52,0,0,0,73.53,103.76Z"/><path class="cls-15" d="M75.54,100a9.64,9.64,0,0,0,1.8,2.24,12.26,12.26,0,0,0,.27-3.1,1.07,1.07,0,0,0-1.4-.82A1.4,1.4,0,0,0,75.54,100Z"/><path class="cls-15" d="M79.11,99a9.37,9.37,0,0,0,.61,2.36,8.36,8.36,0,0,0,1.11-2.07,1,1,0,0,0-.74-1.18A.91.91,0,0,0,79.11,99Z"/><g class="cls-16"><path class="cls-17" d="M85.3,98.08c-1.27,4.33-.82,29.4-.8,29.62.72,8.3.87,3.79,3.71,3.29l.16,0,.16,0c2.87-.2,3.79,4.18,3.07-4.12,0-.22-3.87-24.88-5.85-28.81l-.05-.58c-.08,0-.15.06-.22.16-.09-.09-.17-.13-.24-.11Z"/></g><g class="cls-18"><path class="cls-19" d="M107.56,107.5c1.55,6,.51,12.31-2.8,16.13a10.76,10.76,0,0,1-6.22,3.58c-1.71,1.08-2.76,2.34-2.57,3.15s2.09,1.17,3.25,1c4.49-.45,8.92-7.2,9.64-14.2A21.53,21.53,0,0,0,107.56,107.5Z"/></g><g class="cls-20"><path class="cls-21" d="M94.46,93.13a24.92,24.92,0,0,1,9.62,17.54c.23,2.65.87,9.93-3,13.43a8,8,0,0,1-3.13,1.71,7.62,7.62,0,0,0,5.21-2c3.89-3.5,3.25-10.78,3-13.43a24.92,24.92,0,0,0-9.62-17.54c-2-1.48-5-3.71-7.35-2.58C91.07,90.59,93,92.06,94.46,93.13Z"/><path class="cls-21" d="M94.24,115.63a2,2,0,0,0,.47-.14A1.94,1.94,0,0,0,94.24,115.63Z"/><path class="cls-21" d="M91.45,100.93c-.51,0-.69.46-1.11.8a2.5,2.5,0,0,0,1.56,0,1.73,1.73,0,0,0,.6-.36A1.45,1.45,0,0,0,91.45,100.93Z"/></g><path class="cls-22" d="M83.27,95.85c-.15,3.75-2.57,6.66-4.36,6.42-.89-.12-1.11-1-1.79-.82-1.9.37-2.44,7.09-2.51,7.93-.18,2.4-.56,7.54,1.29,9.2,1.37,1.23,2.65-.65,4,.55s1.8,4.21,1.39,7l.12-.18c1.57-2.62,1.16-7-.47-8.26-1.31-1-2.61.62-4-.41-1.83-1.39-1.38-5.81-1.17-7.88.07-.72.7-6.5,2.6-6.85.68-.12.89.59,1.78.67,1.78.18,4.24-2.37,4.43-5.59a7,7,0,0,0-1.79-5.12A9.75,9.75,0,0,1,83.27,95.85Z"/><path class="cls-11" d="M208.49,79.21c-6.19-2.18-12.42-3.72-10.1-3.36.63.1.7-.24.06-.34a4.53,4.53,0,0,0-1.39,0c-.07,0-1.12-.28-1.07-.28,6.11-.6,6-.3,6-.3,2.11-.93.07-.2-.5-.31s-8.6.73-7.53.05,4.81-4.06,6.82-4.37c1-.15.76-1.68-6.85,4.16-.48.3-2.81-2.49-2.46-2.29,1.14.65,4.42-2.06,4.79-2.29,3.1-2,3.79,1.85,11.61-.79.4-.13,3.07-2.72.81-.91-4,3.18-13.25,1-7.7-.25a43,43,0,0,0,3.31-3.17,35.31,35.31,0,0,1-3.84,3.07,10.87,10.87,0,0,0-2.29,1.21c-2.71-.54-4.87,5.33-8,1.61-.67-.8-5-1.26-5.86-1.9-4-3.09,2.9-.13,4-.16s.74.18,2.19-.36a10.4,10.4,0,0,1,3.44-.64c-2.45-.18-.73,0,.74-1.06.75-.55,3.49-1,1.89-.85-1.45.12-6.14,2.82-8.24,2.66-.79,0-5.16-.9-.67-1.75,5.34-.38,13.83-2.9,13.83-2.9,1.29.12,1.33-.09,0-.22-1.64-.16-5,1.57-4.36,1.06s.43-.6-.14-.14c-1.25,1-13.9,3.1-14.11,2.41,0,0-.67-2.15-.69-2.17s-2.38-3.57-2.41-3.59c-.48-.21-1.82-.74-1.3-.83,5.14-.85,11.76,1.13,11.76,1.13,4.43-1.08.1,0-1.41-.56-3-1.14-3.45-.45-.63-1.64.59-.25,2.29-1.53,2.2-1.71,0,0-3.53,2.77-5.87,2.14-1-.28,3.29-2.74,3.79-3a6.46,6.46,0,0,1,3-.46c2.08-1.2,0-.23-.53-.24-1.72,0-1.35-.06-2.48.47-1.66.77-4.35,3-5,2.85-.37-.1,1-.63,1.35-.79a7.77,7.77,0,0,0,1.92-3c.52-1.33,1.94-3.21.3-1.25-.65.78-.44,4.42-5.42,5-1.73.22-2.39.23-2,.12,1.44-.36,9.15-7.88,11.16-7.9.27,0,2.52-.17,2.49-.49,0,0-1.84.25-2.48.26s1-1.14,2.3-1.66,3-.1,1-.6A38.68,38.68,0,0,0,189,51.42c-10.67,9-9.22,7.3-13.11,8.72-1.75.64-2.57,1.31-1.54-.46.23-.39,0-.74.5-1.08s1.3-1.77,1.88-2c1-.36-.24.34,2.16-.85s1.3-.18,3.39-1.1a11.66,11.66,0,0,1,3.37-2.93s1.84-1.17,1.86-1.2a14.66,14.66,0,0,0,1.34-1.94l-2-.43c-2.14-.45.4-1.71,1.12-2.35,1.1-1,3.24-1,1.84-1-1.92,0-3.74,3.13-3.52,1.22.19-2.71.3-2.43,3-3.71,1.32-.48,1.28-.69,0-.21-1,.48-2.78,1.58-2.64-.4.15-2.16,1.66-3,.57-2.29-.24.16-.42.09-.4-.16,0-.59-.14-.63-.19.07s-.45.79-.79,1c-.15.1-2.27,4-2.48,4.24-.45.52.56-1.79.84-2.33a24.92,24.92,0,0,1,1.59-2.49c.9-1.49-.66.31-1.76,2.37-2.47,4.66-.07,1-3.47,3.66-.89.71-.52.43-.29-1.29.47-3.48-.48,1.84-.74,2.12a42.92,42.92,0,0,0-3.18,5.67c-1.3,3.52-2-1.86.18-8.29.11-.91.44-3.55.28-1.59,0,.07-.09.74-.17,1.26A25.76,25.76,0,0,1,180.06,37s.76-2.18.78-2.22a11.52,11.52,0,0,1,2.37-4c-.06-.09-1.38,1.1-1.27.79,0,0,.74-1.41,1.41-3.09,1.63-4.12.68-4.79.73-3.49.11,2.86-3.26,7.63-3.44,8.11-5.13,14.08-3,2.79-2.26,1.27,1.57-3.38,2.85-8.43,1.5-5.33,0,0,.35.34-1.41,4.54-.26.55,1.49-5.9,1.53-5.89-.3-.16-1.22,3.66-1.32,4.06-.79,3.17-1,4.32-1.37,2.87a20.81,20.81,0,0,1-.46-5.68c-1-4.33-.36-5.51-.52-7.6-.19-2.44-.31,2.94-.26,4.25.05,1.52.81,4.75.34,3.44-.2-.56-2.93-3.29-3-4.91,0-.64.74-3.13-.22-.62-.72,1.87,3.46,5.3,3.23,6.68a45.65,45.65,0,0,0,.63,4.69c.31,1.25.38,1.41-.25,3.83a15.67,15.67,0,0,0-.31,2.79l-2,7.18c0,1.67.12,5.79-.54,7s-1,1.59-.83,1.16a10,10,0,0,0,.28-6.18,2.38,2.38,0,0,1,.08.44c.16,5-1.06,8.55-5.09,11.67.74-.45,1.11-.52-.27.68-.31.27-.42.94-1.35,1-.54.06-.2-.36.36-.82-.48.32-1,.63-1.53.94-2.4,1.14-1.49.68-3.81,1.9-.21.09-.91.39-1.09.48s-.08-.24.11-.56.33-.63.6-.71a2.32,2.32,0,0,1,.4-.1c.3-.06.93-.28,1.23-.39a3.78,3.78,0,0,0,2-1,65,65,0,0,0,6.62-6.6c.18-.42,1.31-1.4,1.08-1.74a2.6,2.6,0,0,0-1,1.07A13.86,13.86,0,0,1,170,59c.4-.47.32-.68-.18-.08s-1.42,1.2-1.33,1c1.41-2.43.84-3.19,2.06-5.82a20.43,20.43,0,0,1,1.17-2c-.74-.89-2.75,6.71-3,7.09a11.67,11.67,0,0,1-1.89,2.32c-.55,1-1,2.56-4.62,3.72l-.72.23c-.19,0,.38-.22.23-.42s-.56.49-.71.52-.66.24-.88.32l-.37.48a1.75,1.75,0,0,1,.21.31c.23.38.06.63-.34.84-.19.09-.24-.13-.22-.4q-.24.55-.44,1.11c.23.15-.06,1.86-.25,2.53,0,.17-.75,2.1-.75,2.1a6.23,6.23,0,0,0-.66-.79l-.11.18a7.47,7.47,0,0,1,.69.87c.21.33.33,2.35-.51.62l-.43-.9,0,.17s0,.06,0,.09c.92,1.82.93,2.36-.09,3.17-.32.25-5.41,3-5.34,2.08,0-.51.56-3.25.91-5.06a1,1,0,0,1-.28-.07c-.67,3.32-1.1,4.49-1.37,4.45a4,4,0,0,0-.07.45c-.17,2.4-2.32.52-4.84,4.35-.72,1.1-.87.7-1.72.62a7.58,7.58,0,0,0-1,0l-.16.25c1-.14,2.52-.11,1.63.91s-.67.13-1.93-.48l-.19.26c1,.42,1.55.88,1.2,1.29a12.77,12.77,0,0,1-3.52,3.28,9.35,9.35,0,0,1-2.21,2.31c-2.63,2-5.83,2.77-8.7,3.85-2.27.85-8.48,3.34-7.16,4.72,1.38-.47,2.77-.89,4.14-1.26,1.73-.47,4.22-1.32,5.89-.68,1.4.53,2,2.15,2.93,3.5,1.33,2,2.8,4.87,4.59,6.29,4.7,3,5.34,3.9,8.37,9.18l.79,1.36.73.58s.74,0,.77,0c.88,0,.9.1,1.19.86s.14.37.58,1.51a.09.09,0,0,0,0,0,8.88,8.88,0,0,1,.82.58,8.22,8.22,0,0,1,1.71,2.32,3.15,3.15,0,0,1,.3.49c.17.31,1.09,1.54,1.29,1.82a1.67,1.67,0,0,1,.32.86c.14.74.33.68.18-.09,0,0-.11-.59-.13-.61a30.39,30.39,0,0,1-3-4.74s-.57-.34-.61-.35c-.73-.41-.74-.36-1-.92l-.63-1.61a.29.29,0,0,0-.06-.07s.08,0,.14,0a5.58,5.58,0,0,0,.51-.28c.62-.36.49-.51.13-.31-.18.1-.68-.12-.92-.17-.87-.18-2.84-2.72-3.41-3.48-.3-.39.19-.1,1-.14a2.17,2.17,0,0,1,2.15.78c.12.19.5.85.62,1.06.79,1.37.39.57.87,1.19,0,0,.25.34.27.35a7.54,7.54,0,0,1,1.25.81c.53.4.65.21.11-.2a4.94,4.94,0,0,0-.83-.56c-.86-.51-2.09-2.65-.06-.54,0,0,.92.38.94.39a4.4,4.4,0,0,0,.53-.1,1.8,1.8,0,0,1,.53-.07s1,.69,1,.69a7.78,7.78,0,0,1,.85.54,10.62,10.62,0,0,1,4.46,5.49,26.88,26.88,0,0,0-1.21-3.14s-2.33-2-2.36-2c-.38-.26-1.37-.86-.51-.81,1,.05,1.05.35,2.55.77,1.26.35,1.32.13.07-.22-.85-.23-1.73-.6-1.27-.52a1.78,1.78,0,0,0,.27,0c.17-.06,1.76-.63,1.86-.47s.24,0,.17-.1.35-.25.4-.17.22-.1.21-.13A2.51,2.51,0,0,1,162,117a2.18,2.18,0,0,0,.23-.2c.19-.18,1.81.35,1.83.28s-.29-.24-.69-.39-.31-.66.21-1.14c1.25-1.16,1.18-1.36-.15-.12-1.16,1.08-1.66.68-2.1.53a.55.55,0,0,0-.2,0c-.21.06-1.06-1.4-1.2-1.57l-.81-.63a.61.61,0,0,0-.22,0c-.23,0-.38-.69-.14-.86l.45-.3c.33-.21,1.08.62,1.35.87,0,0,1.89.58,1.91.58l.53,0c.67-.06.66-.28,0-.22a4.78,4.78,0,0,1-2.84-1c-.55-.53,1-1.55,1.4-1.81-.41.25-2,1.2-2.59.66-.06-.06-3.84-2.8-3.84-2.8-4.09-.61-3.35-.92-2.91-.8,2.22.72,1.76.63,2.4.53a1.23,1.23,0,0,1,.85.22c.11-.12-.21-.37,0-.48s.66.45.9.51c2.2.54,0-.23-.26-.46-.5-.37,1.26-1.49,2.44-1.34.93.12.9.44,1,.92a.09.09,0,0,0,.05.08,5.89,5.89,0,0,0,1,.37l.47.11a12.25,12.25,0,0,1,2.47,2,9.88,9.88,0,0,0,1.52,1.35c.91.84.64.67,1.25.86,1.26.38-.35-.31-1.14-1a9.89,9.89,0,0,1-1.52-1.34c-.86-.89-2-1.71-1.72-1.68a32,32,0,0,0,4,1.19c1.3.25,1.34,0,0-.22-1.61-.34-4.23-1.21-4.24-1.21-.53-.07-1-.17-1.43-.27-.63-.14-1.25-1,.15-.85h0a10.17,10.17,0,0,1,2.34-.57c.06.17.23.07.18-.08s.21-.18.51-.28c.7-.21,1.51.93,1.93,1.56a30.45,30.45,0,0,0,3.09,3.33s-4.37-5.09-4.18-5.14.1-.25-.09-.19-1.57-1.62-1.7-1.77.7-.17.73-.19,2.39,2.88.85.62c-.69-1,.4-1.65.73-1.45s1.15.53,1.38.64a8.86,8.86,0,0,1,.82.38c0,.06.89,1.31,1,1.34a13.4,13.4,0,0,1,3.89,3.22c1.26,1.71,2.21,3.58,1.62,2.09a14,14,0,0,0-1.81-2.66c-.47-.56-1.54-1.41-1.2-1.31.13,0,.93.6,1,.53s-.36-.5.16-.16c0,0,1.11.26,1.14.14s.77-.1,1,0c1.1.2,1,.18,2.62,1.24.32.21.85-.26,1.53.43a1.48,1.48,0,0,0,.19.18,1.07,1.07,0,0,1,.5.4c.37.44.48.24.25,0s.26-.27.82.79.73.9.24,0c-.57-1.09,0-.32.1-.68a2.35,2.35,0,0,1-.92-.89c-.39-.74-.33-.63-.44-.85s-.21-.22.43-.48c.8-.33,1.22-.74,1.88-.79a11,11,0,0,1,2,0c2,.06,2-.18,0-.23a12.82,12.82,0,0,0-2.49,0s-.46.27-.5.29a7.13,7.13,0,0,1-1.48.68,1.74,1.74,0,0,1-.37-.57c-2.06-4.1-2-1.82,3.09-1.59,2,.09,2-.15,0-.24a12,12,0,0,1-3.82-.66,3.56,3.56,0,0,1-1.08-.81,20.89,20.89,0,0,0-1.67-1.66c-1.07-1-.69-.73,0-1.85a1.52,1.52,0,0,1,1.39-.8c.07,0,.1.05.14.11a3.35,3.35,0,0,0,.31.17c.37.2.35.19,1,1.28,0,0,.57.92.59.94.62.5,2.79,2.15,3,2.77s.48.54.19-.15a5.91,5.91,0,0,0-.25-.56,19.17,19.17,0,0,1-3.32-3c-.51-.82-.22-.55.08-.32.1.07,1.63,1.18,1.7,1.05s.47.31.55.17-1.76-1.68-1.83-1.77-.33-.42-.36-.43-.33-.13-.17-.09,1.8.7,2,.78c0,0,1.89.57,1.93.55s1-.28,1-.42a4.26,4.26,0,0,1-1.91-.07,10.92,10.92,0,0,1-1.85-.64,7.6,7.6,0,0,0-2.11-.6c-.27,0-.2,0-.63-.37-.17-.14-.21-.32-.09-.4s.22-.16.21-.19.53,0,.66,0l.73-.11a.15.15,0,0,0,.07,0l.92-.42a.19.19,0,0,0,.06-.05,3.65,3.65,0,0,0,1.31-.71c.48-.48.22,0,.49.14s.7.37,1.52,2.13c.09.19,1.37,2.31,1.52,2.17l-1.87-3.3c-.35-.62,3.54-.38,3.54-.38,0-.19-3.83-.31-3.95-.39-2.3-1.49,5.22-4.71,1.79-3.17l-1,.45c-.32.31-1.23,1.21-1,.66,1.25-2.51.94-2.08,2.67-2.38,2-.35,5.5,1,1.57-.48-.78-.3-5.48,1.81-.29-1.37.35-.21,3.74-5.29,1-1.58-1.44,1.92-3,2.59-2.73,2.23l.25-.37c1.17-2.85-.17.51-1.56,1.36a10.53,10.53,0,0,1-2.66.93c-.21.06.08.31-.92-.84-2.07-2.38,0-1.89,2.81-2.65,0,0,2.4-1.14,4.19-1.81,2.14-.76,2.24-1.35,1.4-.83-4.07,2.49.52-1,2.24-1.62,0,0,1-.33,1-.35,2.64-2.36-3.12,1.43-6.17,3-8.65,4.57-6.1-.7-2-3,7.13-5,7.21-5.26-.07-.19-.36.2-2.69,1.27-3.38,2.92-.9,2.15-.7,2-.56-1.34.26-5.3,0-4.37-.18,0-.17,3.86.72,3.83-4.41,4.41-.12,0-2,.24-2.09.19s.34-1.09.35-1.13a4.55,4.55,0,0,1,.69-1.58,6.3,6.3,0,0,1,2.18-1.64c.12-.89,3.08-2.83,3.26-3.28,1-2.43.18-.41-1.41,1-1.95,1.75-2.27,2.17-.62.08,2.64-3.34-1.63-4.83,8-2.17,1.28.27,1.37,0,.07-.29-.61-.17-1.49-.36-.11-.44,3.59-.21-1.76-.15-2.21-.24a8.18,8.18,0,0,1-2.38-.8c-1.56,0-2,.43-1.47-2.1.56-2.83.37-2.87-.19,0-.19.95-.36,2.14-.72,2.16-2.6.1-.31,0,1-4.92a4.17,4.17,0,0,0-1.3-3.67c-.69-.48-.91-.83-.6-2.09.37-1.52.39-1.81,1.73-1.75,2.54.1,4,4.69,9.72,6,5.66,2,3.75-.31,5.66,3.78,2.1,4.56,6,6.88,7.68,9.67a42.4,42.4,0,0,0,2.18,3.69,11.47,11.47,0,0,0-1-2c-1.63-2.92-1.1-2.29-4.33-5.67-9.59-10.14-2.65-8.78-1-5.48.89,1.79.08-2.75-4.39-2.81A22.41,22.41,0,0,1,203.86,79c2.71,1.85,6.26,1.19,2.87.65-2-.32-3.47-1.69-4.14-2-1.07-.54,5.31,1.26,6.09,2.25S208.92,79.36,208.49,79.21ZM180.68,33.85a2.56,2.56,0,0,1,.38-.72C181.76,32.45,177.49,42.46,180.68,33.85Zm-3.61,5c0-.06-.15,2.09-.21,2.17A6.24,6.24,0,0,1,177.08,38.81Zm-25.43,79.32a.56.56,0,0,1-.73-.12C150.68,117.75,151.86,118,151.64,118.12Zm27-17.45a13.11,13.11,0,0,1-1.84-1.43C177.55,99.32,179.84,101.5,178.65,100.67Zm7.3-30.29a9.63,9.63,0,0,0,2.47.48c1.12.32,3.12,4,1.81,3.46a50.26,50.26,0,0,1-4.16-3C183.05,70.88,184.41,69.18,185.95,70.38Zm-2.68-1.91c.48.83-3.35-.73-1.63-.86S182.6,67.31,183.27,68.47Zm.89-8.73c.78.21-.34.45-.8.31S183.33,59.52,184.16,59.74ZM182,60a4.09,4.09,0,0,1-1.06-.15C178.83,59.3,186,59.29,182,60Zm-5-4.58a24.65,24.65,0,0,1,2.83-3.19c.26-.33-.33,1.13-1.82,2.79C177.17,56,176.33,56.67,177.08,55.39Zm2.81-6.28c.49-1.29,3.47-4.72,2.09-2.74,0,0-1.33,4.59-2,5.44C176.65,56.05,179.22,50.88,179.89,49.12Zm.45,5.72s-3.58,1.78-2.87,1.31c2.91-2,2.79-7.48,7.82-7.91.56,0,.53-.28-.61,2.32S182.65,54.94,180.34,54.84Zm7.43-6.25c.4.13.86.18.22,1s-4.36,3.79-3.09.88C186.09,47.81,185.47,48.1,187.77,48.59ZM185.32,48c-.62.05-.82.23-.12-.26C186.62,46.75,185.78,48,185.32,48Zm-1-4.15c1-1.84,1.27-3.05,2-3.51.38-.26.25,3.07-.36,3.36C181.94,45.58,183.77,44.82,184.28,43.87Zm1.2.26c.68-.32.93-.54.61,2.36-.13,1.2-3.67,2.2-4.89,3.77-.24.3-.45.61,0-.44C182.83,45.65,181.59,46,185.49,44.13Zm-6.68,4.23a3.92,3.92,0,0,1-.59,1C177.77,49.82,179.16,47.51,178.8,48.36Zm-2.56,4.69s.46-1.23.48-1.27c.48-1.28.24-.91,1.16-1.81,1.55-1.64,1.22-2.77,2.62-3.89,1.86-1.48,2.74-1.37,2.22-.91a31.16,31.16,0,0,0-2.53,2.68c-.5.53-5,14.36-5,6.67C175.14,54.14,176,53.32,176.24,53.05Zm2.84,6.59c1.35.11-2.62.32-4.57,2-.31.26-2.26,1.73-1.46.37C173.45,61.28,178.44,59.59,179.08,59.65Zm-4.58-3.9c.18,3.24-3.56,5.23-3.21,4.56C171.82,59.32,174.44,54.64,174.5,55.74Zm-2.24,4.75c3.65-3.06-1.41,1.34-1.67,1.67C169.16,64,169.5,62.43,172.26,60.49Zm.78.11c-.87,1.49-4.93,3.62-1.9,1.39C172.61,60.92,173.8,59.3,173,60.61ZM169.1,64A9,9,0,0,0,171,62.88c2.25-1.79.42.66.14,1S168.76,64.34,169.1,64Zm0,.41c.91-.1,2.09-.21-1,1.19C167.59,65.9,168.44,64.52,169.09,64.46ZM171,70.4a3.91,3.91,0,0,1,.58-1.64,12.46,12.46,0,0,1,2.48.47s-2.1-.79-1.87-1,3.82-.12,3.71.31c0,.16-.28.37-.5.79-.38.73-.42,1.12-.55.93s-.35,0-.14.26c.49.71-2.05,2.75-3.09,5.06-.37.82-.18,1-.59-2.1-.34-2.52-.33-2.54,0-2.81S171.15,70.3,171,70.4Zm-3,17.85a3.5,3.5,0,0,1-2.26.8c-1.6.1-1.85.38.24-1.17l3.5-5c.36-.7,2.29-1.25,3.3-1.41,2.65-.41,1.16.26-.12,1.29s-1.31,1.48-1.74,2.85C170.31,87.69,169,87.59,168,88.25Zm2.35-.78c-.22.7-2.29,1.44-2.86,1.47S170.45,87.23,170.38,87.47ZM170,91.32c-.08-.08.41,0,.52,0,.33,0,.11.75-.12,1.05s-.33-.41-.49-.57S170.07,91.35,170,91.32Zm-4.78,6.88c.09-.12-.07-.29-.18-.13s-.25-.3-.45-.81c-.46-1.17,2.75,1.6,2.5,1.64A7.94,7.94,0,0,1,165.27,98.2Zm.56,1.19c-.36.28-.85-.86-.14-.54S166.33,99,165.82,99.39Zm-11.24,4c.23-.1.45.13.73.39.61.56-.69.54-1.25.57C152.13,104.57,151.77,104.62,154.58,103.41Zm-.16,2.61a2.16,2.16,0,0,0-.69-.26c-1,0-.81.06-1.05-.51C152.15,104,154,105.77,154.42,106Zm-5.19,2.53c.15.27,0,.17-.32-.24C148.34,107.61,148.44,107.14,149.23,108.55Zm2.34-.41c.52.72-2.11-.2-2.28-.56S150.94,107.27,151.57,108.15Zm-.88,2.82c.2.51-1-.1-1.36-.27a10.42,10.42,0,0,1-2.21-3.08C148.34,107.35,150.54,110.58,150.69,111Zm1.41.82c.2-.19.84,1.1.95,1.35C153.57,114.35,151.84,112,152.1,111.79Zm1.43,2.9c.13.39-1-1.25-.65-.92A3.15,3.15,0,0,1,153.53,114.69Zm-1.1-1.73c.17.33-.2.12-.39-.13S151.81,111.8,152.43,113Zm-2,.32c-1-.25.25-.31.69-.67S153.37,114,150.45,113.28Zm-1.28-17.74-.5-.27c-.84-.46,3.27-1,5.36-2.39,1.91-1.23,1.28-.53,3.43,2.34.91,1.22.92,1.24.48,1.14a39.08,39.08,0,0,0-6.81.07c-1.06.72-1,.61-1.58-.3-.12-.18,0-.31.18-.29s.4,0,.41-.07S149.25,95.63,149.16,95.54ZM144.06,94c-1.29-.14,16.68-3.23,8-.38C146,95.58,149.87,94.61,144.06,94Zm4,1.49c-.81-.08-.21-.38.26-.13C148.49,95.43,148.38,95.48,148,95.45ZM146,90c-.62.73-.68.57-.18,0S146.6,89.25,146,90Zm.28-1.89c-.25.27-.91.29-.21-.22S146.54,87.78,146.26,88.08Zm.4-4.14c-.2-.1-.32-.22-.28-.27A24.76,24.76,0,0,1,149.26,82C149.7,82,147.17,84.2,146.66,83.94Zm0,.46c-3.32,2.76-1.81,1.07-.74-.21C146.23,83.85,146.89,84.22,146.68,84.4Zm-.86,5.12c.46-.5-.59.89-.88,1.18-.09.09-1.55.28-1.59.13A21.89,21.89,0,0,1,145.81,89.53ZM144,91.09c.77-.1.69-.11.1.28C143.26,91.94,143.22,91.2,144,91.09Zm-.32,1c1.48-.59,2.76-2.75,3.54-2.87,4.18-.12,8.11,1.44,7,1.54C153.35,90.87,143,92.4,143.7,92.11Zm21.65,2.71c-.12-.14.21-.15.38-.17s.58-.5.76-.33S165.49,95,165.35,94.82Zm2,.19c2.87,2.3-1.25.66-1.5.37S166.52,94.36,167.34,95Zm-.72-1.17c-.23.14-1.08-.7-.08-.52S167,93.66,166.62,93.85Zm-3.1-1.45c-.35-.85,1.91.93,2.19,1.19C167,94.77,164.59,95,163.52,92.39Zm1.26,2.68c-.31-.17,0-.52.26-.17C165.2,95.09,164.95,95.17,164.78,95.08Zm-6,7.76c.08.63-1.19-.72-.26-.58C158.6,102.28,158.72,102.54,158.76,102.84Zm.59-1c.76.68-.46.68-.56-.14C158.76,101.42,159,101.49,159.36,101.79Zm-1.58.12s-.29-.38-.57-.76c-.93-1.26,1.15-1.45,1.39.38C158.7,102.4,158.2,101.79,157.78,101.91Zm-11,3.86c-.33-.38.15-.09.7.06C148.25,106,149.36,108.65,146.83,105.77Zm.19,1.53c-.43.09-.46-.06-.55-.27-.37-.82-1.8-2.57-.4-1.71C146.28,105.46,147.5,107.2,147,107.31Zm.42-2.44-2.63-.69c-.6-.09-.39-1-.63-1.27-1-1.12,1.24-1.36,2,.35C146.7,104.42,149.81,106.71,147.44,104.87Zm-4.26-2.65a2.34,2.34,0,0,1,.94,1.19C144.2,103.72,142.49,102,143.18,102.22Zm3.29-.66c3-2,3.05-1.92,3.63-.79,1.54,3.08,1.56,2.19,0,2.7-1.41.45-2.61.61-3.62-.48C144.63,101,145.51,102.2,146.47,101.56Zm9.13-4.82c.91.58,3.82-.07,0,.83C146.36,99.71,154,95.72,155.6,96.75Zm-4.86.2a4.51,4.51,0,0,1,1.71-.37C154.27,96.48,148.91,98.19,150.74,96.95Zm6.76-.45c.43.11-1,.55-1.64.12C155.62,96.47,157.2,96.43,157.49,96.5Zm-2.77,3.25c2.61,0,.58,1.46-1.27.42C153.11,100,152.43,99.77,154.73,99.76Zm-1.53-.52c.69.16,1.87.05,1.19.2C153.24,99.67,152.71,99.12,153.2,99.23Zm2.08.3c-.47,0,0-.48,1.34.1.43.19.58.39.33.45C156.11,100.29,156.15,99.53,155.28,99.53Zm0-.46a8.17,8.17,0,0,1-2.41-.15C151.36,98.58,155.74,98.7,155.29,99.08Zm-3.64-.26a6.78,6.78,0,0,0,.88.46c2.2,1.06-1.46-.39-2.38,0C148.67,99.93,151.29,98.48,151.66,98.82Zm-.07,4.65a2.73,2.73,0,0,1,.33.55c0,.09-1-.18-1.12-.2C149.71,103.64,150.48,103.49,151.59,103.47Zm1.19,0c1.6,0-.52.82-.64.54C152,103.56,151.67,103.47,152.78,103.45Zm-1.33-.66c-.3-.48-.15-.38.06-.23s3.75-.06,2.74.55C153.9,103.31,151.79,103.35,151.45,102.79Zm2.11-.42a6.48,6.48,0,0,1-2.3-.27c-.36-.24-1.61-2.34-1.26-2.49,1.78-.77,3.43,1.57,5.63,1,.95-.24,2.45,1.19.54,1.75C153.48,103.16,154.56,102.4,153.56,102.36ZM157,99.24c.85,0,1-.26-.23-.21-.38,0-1.26.11-.95-.15s.09-.35-.16-.14-1-.2-1.27-.31-2.41.22-.41-.24c5.39-1.21,4.13-1.67,5.78-.23.45.39.56.66-.24,1.17C157.52,100.42,156.31,99.27,157,99.24Zm.66-7.24c0-.33.51,0,.7.24s-1.07,0-.77,0C157.64,92.24,157.67,92.14,157.68,92Zm0,.9c-.06-.26,1.28,0,1.46.14C162.32,96.25,157.82,93.34,157.72,92.9Zm2,.1a6.77,6.77,0,0,1,1.35.75s-.09.15-.23.28c-.33.3-.32.22-.65-.25C160,93.57,159.44,93,159.69,93Zm-2.1.21c0,.06,2.14,1.4,2.19,1.43.36.18-1.09,2.77-3.35-1.57-.53-1-.59-.87.32-.61S157.53,92.91,157.6,93.21Zm1.85,2.34c1-.94,1.29-.73.31,0S158.46,96.44,159.44,95.55Zm.94,0c.61-.47,1,0,0,.24S159.75,96,160.39,95.56Zm1.12-2.31c-1.53-.92-1.57-.43-2.44-.94s-1.46-1-.19-.64a14.48,14.48,0,0,1,2,.31c1.06.29,2.4-.4,1.87.27C162.6,92.42,161.67,93.36,161.5,93.24Zm-1.83-2.36a4,4,0,0,0,1.16-.41c.49,0,.88.35-.24.39S159.18,90.88,159.67,90.88Zm2.39.34c.4.09.76.41,0,.24C161.43,91.33,161.85,91.17,162.06,91.22Zm1,1.12c2.61,4.13-1.46,1.65-.75.76C162.4,93,163,92.23,163.07,92.34Zm-1.27,2.83c.32.6-.79-.09-.63-.22A.46.46,0,0,1,161.8,95.17Zm.58-.8c.22.16.18.3-.09.32C161.2,94.74,161.85,94,162.37,94.36Zm.78.68c.11.14.3.16-.42.22C161,95.4,162.78,94.56,163.15,95Zm-.22.6c.16,0,.48-.11.6,0,.28.26,1.92,3.48.42,1.73C163.7,97.09,161.88,95.83,162.93,95.65Zm.72-.6c-.17-.2-.21-.17.09-.19C165.11,94.72,164,95.49,163.65,95Zm-.75-3.84c-.5-.36-.6-.15.19-.9.59-.57,2.71-.82,1.77.07C164.36,90.84,163.4,91.57,162.9,91.21Zm-.88-.62c-.67-.49-1.3-.56.83-.72C163.14,89.87,162.14,90.68,162,90.59Zm-6.54-1.1c-1.47-.29,1.9-3.09,1.31-2.83,2.43-1.07.52-1.11,3.92-1.27,1.92-.28,2.65-.42,3.41-.11,1.09.44.07-.41-.42-.4-5.19,0-4.65,1.31-4-.93.25-.83.24-1,1.27-.84,5.18.65-3.48-.14,1.43-1.42a19.34,19.34,0,0,1,3.33.59,7.39,7.39,0,0,0-3.34-.8c-2,.53-1.84,1.29-1-.67.32-.74.15-.82-.15-.09-.4.95-.65,1.39-1.61,1.49-.49.05-.86.12-.7-.22.47-1,2-4.24,2.32-4.85.61-1,.86-.55,1.55-1.74s.12-.16,2.43-2.17c1.33-1.16,4.23-2.09,4-.7C167.68,80,168.85,92.09,155.49,89.5Zm-2.22-1.28c-.9,0,.28,0,1.7-.75s1.47-.68.44.47S154.65,88.22,153.27,88.22Zm.07.79c-1.67-.9.62-.57.94-.35C154.81,89,153.68,89.2,153.33,89Zm6.52-5.87c-.32.51-.24,1.57-1.59,2.42-1.71,1.07-1.43,1.19.18-2.44C158.64,82.67,160,82.84,159.85,83.13Zm.36-.56c-.2.32-.2.21-.87.07C158.49,82.48,160.32,82.4,160.2,82.57Zm2.26-7a5.45,5.45,0,0,1-1.06.94c-2.62,4.28-2.24,6-2.65,3.33-.32-2.08,1.08-3.18,3.17-4.35C162.84,74.94,162.8,75,162.47,75.54Zm-3.92,6.56c-.26.62-1.59-.37-.94-1.4a9.94,9.94,0,0,0,.68-1.12C158.54,79.11,158.77,81.56,158.54,82.11Zm-.55.28c-1.77-.07-2.79,1.09-1.14-.5C157,81.71,158.12,82.39,158,82.38Zm.15.25c.2,0-.05.55-.14.78-1.33,3.1-1.41,3.12-3.09,3.85a6.06,6.06,0,0,1-4.15.64c-1.72-.45-1.76-.13-.24-1.06C152.53,85.63,154.87,82,158.15,82.64ZM147.42,95.15c-.85.43-1.85-.1-3.92-1C143.14,94,148.71,94.5,147.42,95.15Zm3.51,3c.51.47-1.66.66-2.28.13-.25-.22-2.21-.09-.78-.18C150.69,97.92,150.17,97.46,150.92,98.14Zm-3.46.38c.39.15-1.21.28-1,.15C147,98.33,147,98.34,147.46,98.53Zm1.39,1.32c-1.55.67-3.3,2.48-4.15,1.25-.74-1.06-6.23-2.83-.51-2.14C144.67,99,151.57,98.67,148.85,99.85Zm-4.69,2c-.69.16-1.37.21-1.65-.52-.18-.48-1.56-2.55-1.42-2.44C143.84,101,145.64,101.51,144.16,101.86Zm-1.86-.54c.19.52-.84-.57-1.85-.9s-1.27-1.13-1.53-2.06C138.69,97.58,141.34,98.74,142.3,101.32Zm1.09,1.74c1.05,1.32-1.63.78-1.83.44a17,17,0,0,0-1.45-2.66C139.33,99.92,141.75,101,143.39,103.06Zm1.54,1.89c0,.06.57.87.62.93,1.11,1.71.91,1.54.4,1.66-2,.48-2.17-.27-3.34-2.25C142,104.32,144.68,104.67,144.93,105Zm1.57,2.79s1.29,2,1.82,2.71c1.49,2,1.77,2.92-.89,2-1.29-.45-1.56-2.83-1.82-3.1C143.67,107.28,144.07,108.27,146.5,107.75Zm2,2.54a13.52,13.52,0,0,1-.92-1.32C146.94,108,148.61,110.36,148.46,110.28Zm.62.55c1.35.65,3.31,1.5,1.27,1.89C149.78,112.83,148.81,110.7,149.09,110.83Zm2.53,1c.16.22-.16.51-.54-.48C150.84,110.71,150.91,110.87,151.62,111.8Zm-1.16-2.28c.23-.38,1.83,1.83,1.53,2.1S150.25,109.87,150.46,109.52Zm-3.93-6.15c1,1.11,9.76.17,2.38,2C148.1,105.6,145.92,102.71,146.53,103.37Zm5.64,1.5c.06,0,.19.18.29.42C152.78,106.06,146.48,105.42,152.17,104.87Zm4.44-2.37a2,2,0,0,1,2.3,1.43c0,.38-1.54.27-2.3.31C156.13,104.27,154,103.24,156.6,102.5Zm3,.3c.88.57.81,1-.23,1.32C159,104.24,158.7,102.24,159.56,102.8Zm.73.15s-.2-.07-.43-.22C159.34,102.39,160.38,102.53,160.29,102.95Zm-.92,1.47.37-.11c.2-.06-.24.64-.4.8S159.1,104.51,159.37,104.42Zm1.17-.54a.94.94,0,0,1,1.08.21s-1.43,1-2,1.41C158.68,106.19,160.17,104.14,160.55,103.88Zm.11-.93c.11.1.28.2.17.29C160.53,103.47,160.26,102.6,160.65,103Zm-.26-1.51c-.07,1.16-1.46-.19-2-1s.12-.42.46-.63c2-1.24,1.32-1.19,3.11.42,1,.86,1.33.74.08,1.89C161.46,102.66,160.54,99,160.39,101.45Zm1.07-2.31a5.88,5.88,0,0,1,1.13,1.17C163,101.13,158.68,96.81,161.46,99.13Zm1.34,1.07c-1.12-2.19-6-3.48-1.94-4.2,1-.17,3,1.63,3.48,2.25,0,0,.44.14.45.18a23.84,23.84,0,0,1-1.7,2.29A5,5,0,0,1,162.8,100.21Zm1.3-.39c1.07-1.5,1.51-.27.32.64S163.12,101.2,164.1,99.82ZM166,96.09a22.56,22.56,0,0,1,2.27,2.64C167.33,99.42,160.88,93.27,166,96.09Zm.84.16c.76.14,3.46,1,3.13,1.22l-.7.52C168.33,98.68,166.37,96.17,166.82,96.25Zm3.41,1.48c.93,1.09-.82,1.23-1.19,1.06S170.11,97.58,170.24,97.73Zm.34-.19c.76.31.71,1-.12,0C170.43,97.54,170.47,97.49,170.58,97.54Zm0,1.18c.32-.25,1.05.6,0,.43S170.14,99.07,170.58,98.72Zm.85.8c.1,0,.66.8.73.89.22.32,1.85.12.62,1.21s-.93-.59-2.45-1.81C169.42,99.08,171,99.59,171.43,99.52Zm.53-.33c-.4.06-1-.79-.85-.89C171.65,97.86,172.32,99.14,172,99.19Zm.1-1.23c1.36-.43,1.25.66,1.95,1l-.79.06C173,99,171.7,98.07,172.07,98Zm-.72-.39a1,1,0,0,1-.2-.31s1.49.23,1.51.25S171.63,97.92,171.35,97.57ZM171,97c-1.21-.21-3.85-2.46-3.91-2.7s-.86,0,.1-.34c1.47-.5-.29-.62,2.85,1C173,96.53,171.64,97.08,171,97Zm-.95-2.24c-2.38-1.26-1.45-.81-1.07-1,1.27-.54,1.07-.63,1.36,0C170.82,94.73,171.59,95.54,170.06,94.73Zm-.27-2.18c.42.9-1.94,1.33-1.2.38a4.92,4.92,0,0,1,.86-.58C169.59,92.14,169.67,92.31,169.79,92.55Zm-.83-.44c-1.15,1.5-1.36,1.14-2.65.78C159.3,90.94,170.57,90,169,92.11Zm-.4-1.24c-1.12,0-1.3-.73-3.07-.21-1.12.33-.74.11-.18-.43C166.14,89.43,169.38,90.88,168.55,90.87Zm-3.8-1.3c-.08,0,0-.13.69-.18C166.34,89.34,165.94,89.66,164.75,89.58Zm-2-.22c-.38,0,2.41-1.28,2.8-2,2.28-4.24,2.11-4.1,3.12-4.83.79-.57,1.13-1.83,2.43-5.24A31.37,31.37,0,0,1,175,71c0-.09.2.14.19.19C174.93,74.15,166.23,89.09,162.76,89.35Zm12.52-18.92c-.06.64-.29.17.19-.77l0,0A2.75,2.75,0,0,0,175.28,70.43Zm-4.47,7.12c-5.34,14-1.48-6-.83-6.18a1.34,1.34,0,0,0,.6-.26C170.43,71.62,171.57,75.55,170.81,77.55Zm-1.1-6.4a22.85,22.85,0,0,1,1.34-1.93c.16-.13-.27,1.4-.56,1.65S169.7,71.21,169.71,71.15Zm.61-1.26c-1.34,2,1.33-2.43,1-1.28A15.15,15.15,0,0,0,170.32,69.89Zm-.53.1c-.32,1.42-.1,1.22-1.7,1.61s.61-1.38,1.46-2.13C172.42,67.39,169.94,69.32,169.79,70Zm-3.47.81c-.49.42-3.38,3-2.7,2.22C170.47,65.76,171.55,66.24,166.32,70.8Zm.94-4.33c.25-.36,3.55-2.28,2.06-.72C168.07,67.06,167,66.83,167.26,66.47Zm.41.48c.45,0,.26.26-.24.78-.29.3-5.14,5.2-3,2.89C165.31,69.6,166.5,66.85,167.67,67Zm-2.46-.23c-1.92.65-3.12,1.58-3.76,1.19-.12-.07-.82-.68-.69-.74C170.28,62.41,166,66.45,165.21,66.72Zm-5-.28c-.09-.15-.14-.29-.1-.3C161.24,65.72,160.38,66.78,160.18,66.45ZM160,67.7c.26-.44.47-.37.79-.05s.56.43.28.48a4,4,0,0,1-1.21-.15A1.87,1.87,0,0,1,160,67.7Zm-.48.93c-.11.57-.32,1.08-.25.21S159.65,68.08,159.54,68.63Zm-.62,2.42c0-.09.27-.85.28-.92a6.86,6.86,0,0,0,.56-1.46c.11-.57,1.58-.57,3.09.38.11.05.88.46.93.33s-.73-.48-.84-.54c-.33-.21-1.08-.61-.54-.7,0,0,.47-.07.5-.09a7.09,7.09,0,0,1,2.59-1.19c.4-.13.37-.23-.48,1l-.74,1.06c.12-1.08-.24-1.74-.22-.59a1.85,1.85,0,0,1-.19,1.2c-.42.6-3.92,4.25-3.63,3.95-1,1.09.74-2.79.88-2.62-.08-.09-.72.71-.81.81C160,72,159.42,75,159,74.36c-.07-.11.3-.38.22-.49s-.13,0-.21.08-.28,0-.42-.26C158,72.76,158.64,72,158.92,71.05Zm-.59,3.13c0-.29.1-.39.21-.22C158.8,74.38,158.31,74.89,158.32,74.18Zm-1.8,5.34L158,78.35c.33-.26.44.56.2,1C156.57,82.46,155,80.75,156.53,79.52Zm-2.25-1.29A4.17,4.17,0,0,1,152,79.36a2.05,2.05,0,0,1-.61-.24C151.42,79,156.73,76.28,154.28,78.23Zm-2.45,1.31c.7.21-.79,1.27-1.31,1.68-.05,0-.31.27-.29.21C150.54,80.8,151.13,79.33,151.83,79.54Zm-1.64,5.31c.43-.09,1.5-1.32.41-.53-.33.24,4.12-3.94,5.37-3.18,2.11,1.28-1,.79-4,4.35A11,11,0,0,1,147.12,88C146.64,88.12,149,85.09,150.19,84.85Zm-1-4.8c.43-.09,1.16-.68.78.31s-.44,1.39-.78,1.37-2.05,1.47-1.49.62c2.2-3.33-.42.39-1,.7C144.22,84.5,146.64,80.58,149.2,80Zm-3.79,3.52c1.23.42-1.19,2.4-2.36,3.18C141,88.07,145.35,83.54,145.41,83.56Zm-4.32,10.93c1.87-.43,2-.25,2.32-.07.88.36,1.93.75.35.59C141.6,94.8,138.94,95,141.09,94.49Zm3,.78c10.45,1.06,3.8,3.14,2.6,2.69a8.65,8.65,0,0,0-2.61-.6c-.11,0,4.42-.31,4.43-.42s-5,.17-5.21,0S134.91,94.34,144.1,95.27ZM138.87,95c.25-.06.43.14.58.37C139.75,95.82,137.76,95.26,138.87,95Zm-1.57.84c1.92-.61,2.91.72,3.35.82,10,2.36,3.9,1.76,2.31,2C140.89,99.06,136.72,96,137.3,95.84Zm-.84.27c.65-.21,1.1.43.65.13S135.35,96.46,136.46,96.11Zm-2.63,1.34c-.15-.33-.34-.55.5-.91s.57-.38,1.72,0c2.6.77,2.6,1.86,3,3.37.32,1.26,5.27,5.27-.74,2.6C136.26,101.59,136,101.24,133.83,97.46Zm6.55,9.82c-.92-.53-1.29-.89-1.5-1.43a22.14,22.14,0,0,0-2.13-3c-.33-.66,2.59,1.24,4.3,1.51,1,.16,1.35,1.12,2.69,3.17A17.76,17.76,0,0,1,140.38,107.27Zm2.54,2.14c-.7-.55-2.48-1.71-.53-1.6,1.48.09,2.16-.12,2.54,2.22C145.15,111.42,143.59,110,142.91,109.41Zm6.3,8.45c-.86-.67-.26-.39.71-.22C151.52,118,150,118.51,149.21,117.87Zm.76-.44c-.84-.14-1.24-.18-1.51-.83s-5.8-7.71-1.23-2.76C148.32,115.28,150.18,117.47,150,117.43Zm-1.17-3.62c-3.9.19-4.83-8.61-2.6-2.19C146.86,113.45,153.25,113.59,148.8,113.81Zm3.06,1.47c-1.38-1.22-1.51-1.79-1.35-1.75,4.34,1.13,2.31,2,3.91,3.14C155,117.08,154.26,117.77,151.86,115.28Zm4.06,2.1c-.19-.13-.22-.23-.07-.22.9,0-.7-.3-1.17-.61-1.1-.75-1.41-3.63-.74-1.56,0,.11,3.05,2.69,3.1,2.7A1.79,1.79,0,0,1,155.92,117.37Zm6.14-.7c-.3.28-.53.23-.74-.09s-.19-.35-.15-.36S162.22,116.53,162.06,116.68Zm-1,0c.29.45-.11.6-.39.12S160.78,116.21,161.08,116.66Zm-1.22.82c-1.93.64-4-.69-2.6-.27a15.8,15.8,0,0,0,2-.47C160.63,116.38,160.94,117.13,159.86,117.48Zm0-2a9.61,9.61,0,0,0-1-1.42C160,114,161.27,117.78,159.9,115.46Zm-.93-.92c1.78,1.67.47,2-1.17,2.33s-4.92-2.91-3.2-2.15c.32.14.59.21.61.15.1-.26-1.11-.47.09-.37,1.83.14.89-.54,2.58-.49C158.63,114,158.4,114,159,114.53Zm-1-1.08c.55-.38.7.32.06.3C157.77,113.75,157.74,113.61,158,113.45Zm1.09-1c-.46.29-.43.62-1.69-1C155.58,109.2,159.61,112.1,159.06,112.44Zm-2-1.08c.7.88,1,1.77.71,2-2,1.38-3.83.76-4,.35,0-.11,1.73-.63.39-.4-.27,0-.84-1-1.26-2.28C152.17,108.75,153.88,107.38,157,111.37Zm-4.4-.45c1.42,4.37-.32,0-.11.36-1.17-1.94-4.88-4-1.37-2.63C151.54,108.8,151.7,108.07,152.62,110.92Zm-3.85-4.41c-.46-1,3.54-1.65,6,1.68C155.45,109,148.95,106.87,148.78,106.5Zm6.51,1.64c-.4.26-.61-1.06-.92-1.25-1.95-1.21-.86-1-.19-.65C154.66,106.52,155.6,107.95,155.28,108.15Zm1.28-.81c-.37.23-.94.67-1.14.23-.55-1.23-.93-1,1-.77C157.32,106.92,156.9,107.12,156.56,107.34Zm1.1-.71c-.21.13-1.71-.06-1.22-.21,1.06-.32-.63.2-1.92-.59-2-1.24-1.37-1.09.57-1.19,1.37-.07,3.28,1.68,1.91.41-.57-.52-.31-.5,0-.51.74,0,3.1-.2,1.49,1.38C157.81,106.61,157.91,106.46,157.66,106.63Zm.3.1s.92-.42,1.06-.52.19.08.22.31C159.31,107,157.77,106.91,158,106.72Zm3.25-2c.78-.4.81-.19,1.17.89C163.07,107.61,156.08,107.28,161.22,104.68Zm1.06-.06c-.09-.26-.43-.54,0-.35C164.15,105.14,163.43,108.07,162.28,104.62Zm-.19-1.55a2.69,2.69,0,0,1,1.13.67C161.8,104.68,160.42,102.6,162.08,103.07Zm.95.23c-.7-.54-1.38-.38-.46-1.09s1.28.34,1.73.61C164.57,103,163.52,103.68,163,103.3Zm.84-1.28c-1.15-1.48.88.71.86.72C164.55,102.86,164,102.19,163.87,102Zm1.33,1a2.44,2.44,0,0,1,1.55.76A8.33,8.33,0,0,1,165.2,103Zm.38-.21c-.44-.1-2.22-1.19-1-2.11.95-.73,1-.35,1.11,0C168.15,106,167.16,103.13,165.59,102.78Zm.32-2.28c-.58-1.47,1.57-1.41,2.9-1.21.8.12,5.71,3.3.49,4.44C167.16,104.2,167.87,104.62,165.91,100.51Zm5.82,6.42c-.39-.11-1.28-.77-.53-.4C171.56,106.71,172.81,107.22,171.73,106.93Zm3.56.65c-.36-.23-.11-.19,1.1.38C177.33,108.39,177.08,108.69,175.29,107.57Zm3.28.7c.19.35.54.95.16.83C175.55,108.15,177.87,106.86,178.58,108.27Zm-.63-1.25c.52,1-5.07-.09-2.68,0a20,20,0,0,0,2.48-.25C177.75,106.67,177.84,106.8,177.94,107Zm-.28-.55-3.92.51c-1.36,0-3.56-1.25-4.06-1.46-2.85-1.19-1.43-1.33,1.12-1.89.55-.12,1-2.16,2.61,1,.36.72.79.65-.61-1.45C171.92,101.84,174,99.2,177.67,106.47Zm-3.23-6.6c-.8,1.4-.82.79-1.21.65-2-.72-1.2-1.69-.34-.6.59.73.72.49.23-.12s-.24-.62.36-.2.64.15.25-.14.36-.1.69-.31S174.77,99.27,174.44,99.86Zm.46-1.31c-.9.58-.89,0-1.37-.54s.47-.22,1-.12.6-.13.6-.13C175.36,97.8,175.43,98.21,174.9,98.56Zm-.62-1.15c.45-.33,1.09.08.57.08C174.77,97.48,174.21,97.46,174.28,97.41Zm1.17,1.07s.12.08.23.22C176,99.13,174.6,99.15,175.45,98.48Zm5.82-5.56c.41-.07.69-.13.39.38-1.81,3.14-1.1,2.09-2,.73C179.13,93.29,179,93.54,181.27,92.92Zm-2.09.82c0,.07.73,1.41.78,1.55.11.33-1.54,2.06-2.75,2.17-.27,0-1.78.14-1.9-.13A49.79,49.79,0,0,1,179.18,93.74Zm-.95-1.12c.25.29.81.8.39,1.2-1.8,1.71-1.39,1.63-2.62,2.52-1.46,1.06-1.12.84,1-2.55C177.32,93.23,177,91.25,178.23,92.62Zm-.86-1.44-.61-.33C176.24,90.59,177.45,90.12,177.37,91.18Zm-2.46,0a2,2,0,0,1,1.75-.09c1.62.82-1.52,5.9-2,4.9-2.33-5.3-3-4.32-.12-4.59A2.8,2.8,0,0,0,174.91,91.18Zm-2.32.16c-.25,0-.25.25-.63.11S177.81,90.85,172.6,91.35Zm1.17,3.12c.91,2.14,1.35,2.52.08,2.77a1.3,1.3,0,0,1-1.18-.35c-.18-.15,1.26-.75,1.25-.82,0-.23-1.54.56-1.63.48a16,16,0,0,1-1.21-2.35c-.77-1.75-.61-1.65.34-2.08S173.33,93.43,173.77,94.47Zm-2.48-2.54c-.28.12-.44.06-.38-.14C171.07,91.32,172,91.63,171.29,91.93Zm.38-3.13c-.88,2.88-.62,2-1.47,2.06-.17,0,.41-2.2.27-2.23s-.58,2.24-.85,2.24c-.78,0-.6-.26-1.45-.74s-2.34-.39-1.87-.64c.24-.13,3.21-.62,3.5-.94,1.08-1.19,1.06-1.88,3.68-1.7C173.82,86.88,171.87,88.13,171.67,88.8Zm5.21-7.67c-.11.57-2.17,5.76-3.94,5.41-1-.19-2.29,1-1.7-.91.94-3,1.71-2.12,3.72-4.45A9.56,9.56,0,0,1,176.87,81.12ZM175.32,72c.16-.76,4.7,2.17-.14,8.45-.54.65-3.86.72-4.19,1C168.08,83.4,174.49,76,175.32,72Zm3.41-5.11a10.5,10.5,0,0,1-1.85,0c.12-.42-.42.41-.3-.08.42-1.71.41-.77.41-2,0-1.64-.21.61-.56,1.75-.06.24-.08.38-.35.39-2.4,0-2-.25-.88-1.24.46-.4,1-1.72.24-.63C174,67,172,67.26,172.37,66.51c.23-.44.12-.61-.2,0-.2.38-.35.65-.32.23s-.16-.33-.18,0c0,.59-3.73,1.89-1-.94a5.18,5.18,0,0,1,3.91-1.5c0-.22-2.45,0-2.36-.14a3.55,3.55,0,0,1,1.57-1.63c1.45-.86,1.28-1.36,3.26-1.85,3.4-.65,6.08,6.48,5.64,6.56a23.87,23.87,0,0,1-2.58.13C180,67.35,178.82,66.9,178.73,66.9Zm10,6.77c-3.31-1.44-2.54.42-6.91-3.06C171.81,62.66,190.11,74.27,188.74,73.67Zm-4.22-.35s1.77-.22,5.13,1.24C193.39,76.18,184.52,73.32,184.52,73.32Zm7.9,1.75c-.81,0-.56.26-1.75-1.81-1.61-2.81-1.1-2.36.66-.28C193.32,75.33,193.42,75.06,192.42,75.07Z"/><path class="cls-23" d="M99.22,113.72A78.16,78.16,0,0,0,95.43,75.2L25.71,72.93a100.75,100.75,0,0,0-5,34.31,99.17,99.17,0,0,0,1.89,16.42,89.7,89.7,0,0,1,10.18-3.3c25.71-6.66,49-.46,63.47,5.16A73.62,73.62,0,0,0,99.22,113.72ZM35.08,84.16c.08-3.69,3.95-6.6,8.65-6.5s8.46,3.16,8.38,6.85-3.95,6.6-8.65,6.5S35,87.85,35.08,84.16Zm2.21,28.11a4.92,4.92,0,1,1,.2-9.77c3,.06,5.43,2.3,5.37,5A5.2,5.2,0,0,1,37.29,112.27Zm33.84-10.5c-3,4.36-8,6.11-11.24,3.9s-3.35-7.53-.34-11.89,8-6.11,11.24-3.9S74.14,97.41,71.13,101.78Zm12.76-7.11a3.12,3.12,0,1,1,3.25,2.95A3.1,3.1,0,0,1,83.89,94.67Zm1.67,18.08c-3.9-.08-7-2.7-6.94-5.85s3.28-5.64,7.17-5.56,7,2.7,6.94,5.85S89.46,112.82,85.56,112.74Z"/><path class="cls-24" d="M98.83,112.14A78.16,78.16,0,0,0,95,73.61L25.32,71.34a100.75,100.75,0,0,0-5,34.31,99.17,99.17,0,0,0,1.89,16.42,89.7,89.7,0,0,1,10.18-3.3c25.71-6.66,49-.46,63.47,5.16A73.62,73.62,0,0,0,98.83,112.14ZM34.69,82.58c.08-3.69,3.95-6.6,8.65-6.5s8.46,3.16,8.38,6.85-3.95,6.6-8.65,6.5S34.62,86.27,34.69,82.58Zm2.21,28.11a4.92,4.92,0,1,1,.2-9.77c3,.06,5.43,2.3,5.37,5A5.2,5.2,0,0,1,36.9,110.69Zm33.84-10.5c-3,4.36-8,6.11-11.24,3.9s-3.35-7.53-.34-11.89,8-6.11,11.24-3.9S73.75,95.83,70.74,100.19ZM83.5,93.08A3.12,3.12,0,1,1,86.75,96,3.1,3.1,0,0,1,83.5,93.08Zm1.67,18.08c-3.9-.08-7-2.7-6.94-5.85s3.28-5.64,7.17-5.56,7,2.7,6.94,5.85S89.07,111.24,85.17,111.16Z"/><path class="cls-23" d="M188.68,61.45a78.16,78.16,0,0,0-35.62-15.16l-35.44,60.08a100.75,100.75,0,0,0,27.72,20.82,99.17,99.17,0,0,0,15.31,6.22,89.72,89.72,0,0,1,2-10.52c6.49-25.75,23.12-43.26,35-53.22A73.62,73.62,0,0,0,188.68,61.45ZM132,103.54c-3.2-1.83-3.89-6.63-1.55-10.71s6.83-5.9,10-4.07,3.89,6.63,1.55,10.71S135.17,105.38,132,103.54Zm25.72,11.55a4.92,4.92,0,1,1-1.52-7.18A5.2,5.2,0,0,1,157.7,115.09Zm7-34.72c2.38,4.73,1.5,10-2,11.73s-8.21-.67-10.6-5.41-1.5-10,2-11.73S162.34,75.63,164.72,80.36Zm-.11-14.61a3.12,3.12,0,1,1,4.14-1.44A3.1,3.1,0,0,1,164.61,65.75ZM181.27,73c-1.94,3.38-5.73,4.85-8.46,3.28s-3.38-5.58-1.44-9,5.73-4.85,8.46-3.28S183.21,69.58,181.27,73Z"/><path class="cls-24" d="M187.1,61a78.16,78.16,0,0,0-35.62-15.16L116,106a100.75,100.75,0,0,0,27.72,20.82A99.16,99.16,0,0,0,159.08,133a89.72,89.72,0,0,1,2-10.52c6.49-25.75,23.12-43.26,35-53.22A73.63,73.63,0,0,0,187.1,61Zm-56.7,42.09c-3.2-1.83-3.89-6.63-1.55-10.71s6.83-5.9,10-4.07,3.89,6.63,1.55,10.71S133.6,105,130.4,103.12Zm25.72,11.55a5.2,5.2,0,0,1-7,2.31c-2.34-1.34-3-4.56-1.52-7.18a4.92,4.92,0,1,1,8.48,4.86Zm7-34.72c2.38,4.73,1.5,10-2,11.73S153,91,150.58,86.27s-1.5-10,2-11.73S160.76,75.21,163.14,79.95ZM163,65.34a3.12,3.12,0,1,1,4.14-1.44A3.1,3.1,0,0,1,163,65.34Zm16.66,7.2c-1.94,3.38-5.73,4.85-8.46,3.28s-3.38-5.58-1.44-9,5.73-4.85,8.46-3.28S181.63,69.16,179.69,72.54Z"/><path class="cls-25" d="M75.14,102.61c0-.07,0-.14,0-.21,5.68,35.87,59.34,30.18,57.29-6.13,0,.07,0,.14,0,.21C130.49,56.28,68.5,62.49,75.14,102.61Zm51.38-7.19c3,28.48-38.23,35.45-45.17,8.15C73.2,71.54,123.08,63.31,126.52,95.42Z"/><path class="cls-26" d="M74.33,103.62c0-.07,0-.14,0-.21,5.68,35.87,59.34,30.18,57.29-6.13,0,.07,0,.14,0,.21C129.68,57.29,67.69,63.5,74.33,103.62Zm51.49-5.26c.68,28.4-40.37,32.12-45.59,4.88C74,70.67,125,65.45,125.82,98.36Z"/><path class="cls-27" d="M74.29,103.79c4.06,37.95,61.5,31.84,57.44-6.15S70.23,65.8,74.29,103.79Zm31.17,19.82c-30.25,3.24-35.18-42.54-4.9-45.78S135.74,120.36,105.46,123.6Z"/><path class="cls-28" d="M74.52,105.45c-1.79-36,51.45-41.74,57.33-6.14C129.85,58.76,68,65.7,74.52,105.45Z"/><path class="cls-28" d="M80.37,104.82c1.13,32.56,51.48,27.4,45.65-4.89C127,128.25,85.4,132.72,80.37,104.82Z"/><path class="cls-25" d="M102.36,97.2c0-.07,0-.14,0-.21,10.62,34.7,54.3,23,46.62-12.5l.07.2C140.76,45.32,90.23,58.43,102.36,97.2Zm41.54-12.87c7.22,27.71-26,39.24-36.22,13.12C95.63,66.82,135.75,53.07,143.89,84.33Z"/><path class="cls-26" d="M101.84,98.29c0-.07,0-.14,0-.21,10.62,34.7,54.3,23,46.62-12.5l.07.2C140.25,46.4,89.72,59.51,101.84,98.29Zm41.94-11c5.24,27.9-28.28,36.2-37.1,10C96.14,65.86,137.72,55,143.79,87.3Z"/><path class="cls-27" d="M101.84,98.46c9.62,36.93,56.37,24.43,46.74-12.54S92.21,61.49,101.84,98.46Zm29.17,16c-24.62,6.6-36.25-37.95-11.6-44.56S155.66,107.86,131,114.47Z"/><path class="cls-28" d="M102.31,100.07C94.9,64.78,138.22,53.14,149,87.56,140.63,47.84,90.31,61.65,102.31,100.07Z"/><path class="cls-28" d="M107.06,98.79c6.3,32,47.31,21.2,37.15-10C149.69,116.62,115.83,125.71,107.06,98.79Z"/><path class="cls-25" d="M87.73,82.69c0-.06,0-.11,0-.17C93.83,111,130.09,98,126.42,68.65l0,.16C122.59,36.25,80.68,50.91,87.73,82.69Zm34.61-13.82C126.2,91.69,98.47,103.77,92,82.52,84.45,57.59,118,43.14,122.33,68.88Z"/><path class="cls-26" d="M87.23,83.65c0-.06,0-.11,0-.17C93.34,111.93,129.6,99,125.92,69.6l0,.16C122.09,37.2,80.18,51.87,87.23,83.65ZM122,71.38c2.25,23.12-25.53,32.51-30.8,11C84.93,56.75,119.43,44.6,122,71.38Z"/><path class="cls-27" d="M87.22,83.79c5.15,30.41,44,16.53,38.8-13.91S82.06,53.35,87.22,83.79Zm22.51,11.39c-20.44,7.32-26.67-29.35-6.21-36.68S130.19,87.84,109.73,95.18Z"/><path class="cls-28" d="M87.48,85.11C84,55.93,120,43,126.21,71.23,122.3,38.38,80.5,53.62,87.48,85.11Z"/><path class="cls-28" d="M91.43,83.69c2.81,26.46,36.84,14.45,30.84-11.05C124.72,95.65,96.61,105.73,91.43,83.69Z"/><path class="cls-25" d="M71.77,31.23l.16.14c-30.8-19.24-61.7,25-32.94,47.27l-.18-.1C70.44,103.4,106.41,52.53,71.77,31.23ZM43.5,74.73C20,58.36,41.81,22.62,67,35.29,96.5,50.14,70,93.2,43.5,74.73Z"/><path class="cls-26" d="M71.54,30l.16.14C40.9,10.85,10,55.1,38.76,77.36l-.18-.1C70.21,102.12,106.18,51.25,71.54,30ZM41.75,72.27C19.86,54.17,44,20.73,68,34.66,96.64,51.31,67.11,93.25,41.75,72.27Z"/><path class="cls-27" d="M71.44,29.82C40.13,8,7.07,55.37,38.41,77.21S102.78,51.66,71.44,29.82ZM36,40.35c17.39-25,55.19,1.34,37.78,26.33S18.62,65.34,36,40.35Z"/><path class="cls-28" d="M70,28.9c28.36,22.28-2.23,66.21-33,47.31C69,101.29,104.35,50,70,28.9Z"/><path class="cls-28" d="M66.68,33.73C41.35,13.22,12.23,54.61,40.43,71.39,18.4,53.56,42.31,19.23,66.68,33.73Z"/><path class="cls-25" d="M58,55.32l.18.11C25,40.69,5.18,81.31,37,98.83l-.2-.08C72,118.34,95.23,71.6,58,55.32ZM40.48,95.12C14.82,82.39,27.88,49.79,54.33,59.17,85.35,70.17,69.41,109.47,40.48,95.12Z"/><path class="cls-26" d="M57.52,54.22l.18.11c-33.16-14.74-53,25.88-21.14,43.4l-.2-.08C71.5,117.24,94.74,70.5,57.52,54.22ZM38.31,93.09C13.81,78.75,29.53,48,55.13,58.56,85.74,71.18,66.69,109.71,38.31,93.09Z"/><path class="cls-27" d="M57.39,54.11C23.2,37.15,2,80.64,36.2,97.62S91.61,71.09,57.39,54.11ZM26.17,65.63c11.16-22.91,52.42-2.48,41.25,20.46S15,88.57,26.17,65.63Z"/><path class="cls-28" d="M55.87,53.4C87.37,71,67.74,111.29,34.72,96.83,70.17,116.59,92.75,69.54,55.87,53.4Z"/><path class="cls-28" d="M53.72,57.83c-28.25-16.2-47,21.81-16.84,34.58C12.3,78.32,27.64,46.8,53.72,57.83Z"/><path class="cls-25" d="M78.55,53.79l.14.1c-25.49-14-39.5,21.82-14.91,38.32l-.15-.07C90.75,110.57,107.17,69.31,78.55,53.79ZM66.29,89c-19.76-12-10.69-40.9,9.58-31.83C99.65,67.78,88.57,102.56,66.29,89Z"/><path class="cls-26" d="M78.16,52.8l.14.1c-25.49-14-39.5,21.82-14.91,38.32l-.15-.07C90.35,109.57,106.77,68.32,78.16,52.8ZM64.59,87.11c-18.93-13.47-7.8-40.6,11.87-30.49C100,68.7,86.52,102.71,64.59,87.11Z"/><path class="cls-27" d="M78.06,52.69C51.73,36.64,36.75,75,63.11,91.11S104.42,68.76,78.06,52.69ZM54.7,62.22C62.57,42,94.35,61.33,86.47,81.58S46.82,82.47,54.7,62.22Z"/><path class="cls-28" d="M76.89,52C101.2,68.54,87.35,104.15,62,90.37,89.33,109,105.24,67.41,76.89,52Z"/><path class="cls-28" d="M75.37,55.93C53.55,40.7,40.3,74.26,63.49,86.46,44.51,73.22,55.33,45.39,75.37,55.93Z"/><path class="cls-4" d="M184.4,68.29c-6,27.53-47.57,42.81-79.53,42-34.58-.88-77.29-21.1-79.5-50.76C23,28.17,66.86-1.57,107.86.06,150.38,1.76,191.17,37.27,184.4,68.29Z"/><path class="cls-5" d="M185.09,63c-14.34,18.66-46.79,28.7-72.86,28-34.58-.88-77.29-21.1-79.5-50.76a32.73,32.73,0,0,1,.06-5.48C27.54,42.52,24.73,51,25.37,59.52c2.21,29.66,44.92,49.88,79.5,50.76,32,.82,73.52-14.46,79.53-42A32.19,32.19,0,0,0,185.09,63Z"/><path class="cls-29" d="M47.89,27.5C44.87,41,63.34,54.79,76.24,60.71c34,15.6,84.2,1.79,88.14-15.71,2.92-13-19.8-26.61-25-29.74C137.5,14.13,110.71-1.4,79,7.12,71.28,9.2,50.75,14.71,47.89,27.5Z"/><path class="cls-29" d="M60,21.94c-3.74,9.23,9.12,22.58,21,28.66,25.29,12.95,65.28,2.79,68.55-10.85,2.52-10.51-16.72-23.29-30.45-28.28C99,4.13,80,9.69,70.88,13.75,65.9,16,61.67,17.93,60,21.94Z"/><path class="cls-29" d="M65.15,24C64,31.45,76.91,39.83,87.79,42.72c16.82,4.47,38.59-1.54,40.59-11,1.52-7.15-8.59-15.24-17-18.66C92.79,5.6,66.72,14.29,65.15,24Z"/><path class="cls-30" d="M143.79,25a2.22,2.22,0,0,1-2.68-1.3,1.89,1.89,0,0,1,1.48-2.37c1.15-.29,5.06.69,5.06.69S144.94,24.67,143.79,25Z"/><path class="cls-31" d="M143.82,24.14a1.74,1.74,0,0,1-2.11-1,1.49,1.49,0,0,1,1.16-1.86c.9-.23,4,.55,4,.55S144.73,23.91,143.82,24.14Z"/><path class="cls-30" d="M48.8,80.4a1.36,1.36,0,0,1,1.3-1.46,1.46,1.46,0,0,1,1.65,1.15c.1.72-1.1,2.95-1.1,2.95S48.9,81.12,48.8,80.4Z"/><path class="cls-31" d="M49.43,80.51a1.07,1.07,0,0,1,1-1.15,1.15,1.15,0,0,1,1.3.9,7.45,7.45,0,0,1-.86,2.32A8,8,0,0,1,49.43,80.51Z"/><path class="cls-30" d="M149.69,61.45a2.58,2.58,0,0,1,3.24,1,2,2,0,0,1-1.13,2.86c-1.21.51-5.74.07-5.74.07S148.48,62,149.69,61.45Z"/><path class="cls-31" d="M149.82,62.36a2,2,0,0,1,2.55.79,1.6,1.6,0,0,1-.89,2.25c-.95.4-4.51.05-4.51.05S148.87,62.77,149.82,62.36Z"/><path class="cls-30" d="M60.22,51.86a1.41,1.41,0,0,1,1.41-1.43,1.46,1.46,0,0,1,1.61,1.24c.06.74-1.29,3-1.29,3S60.28,52.59,60.22,51.86Z"/><path class="cls-31" d="M60.85,52A1.1,1.1,0,0,1,62,50.88a1.15,1.15,0,0,1,1.27,1,7.69,7.69,0,0,1-1,2.32A8,8,0,0,1,60.85,52Z"/><path class="cls-30" d="M131.17,77a1.49,1.49,0,0,1,1.71-1.15,1.38,1.38,0,0,1,1.3,1.51c-.11.73-1.94,2.67-1.94,2.67S131.06,77.75,131.17,77Z"/><path class="cls-31" d="M131.76,77.27a1.17,1.17,0,0,1,1.34-.9,1.09,1.09,0,0,1,1,1.18,8.22,8.22,0,0,1-1.52,2.1A7.58,7.58,0,0,1,131.76,77.27Z"/><path class="cls-30" d="M171.9,56.31a1.68,1.68,0,0,1-2.14-.42,1.28,1.28,0,0,1,.47-1.89,13.66,13.66,0,0,1,3.64-.43S172.62,55.9,171.9,56.31Z"/><path class="cls-31" d="M171.74,55.74a1.32,1.32,0,0,1-1.69-.33,1,1,0,0,1,.37-1.49,10.74,10.74,0,0,1,2.86-.33A8.36,8.36,0,0,1,171.74,55.74Z"/><path class="cls-30" d="M124.35,57.14a1.94,1.94,0,0,1,2.18-1.56,1.82,1.82,0,0,1,1.76,1.92c-.11,1-2.42,3.55-2.42,3.55S124.23,58.1,124.35,57.14Z"/><path class="cls-31" d="M125.12,57.45a1.52,1.52,0,0,1,1.71-1.22,1.43,1.43,0,0,1,1.38,1.51c-.09.76-1.9,2.79-1.9,2.79S125,58.21,125.12,57.45Z"/><path class="cls-30" d="M89.75,82.32a1.36,1.36,0,0,1-1.72.48,1.07,1.07,0,0,1-.54-1.52,10,10,0,0,1,2.4-1.63A7.82,7.82,0,0,1,89.75,82.32Z"/><path class="cls-31" d="M89.37,82a1.07,1.07,0,0,1-1.35.38.84.84,0,0,1-.43-1.2,7.85,7.85,0,0,1,1.88-1.28A6.15,6.15,0,0,1,89.37,82Z"/><path class="cls-30" d="M160.4,35.46a1.86,1.86,0,0,1,2.25-1.08,1.58,1.58,0,0,1,1.22,2c-.28.85-2.84,2.83-2.84,2.83S160.11,36.31,160.4,35.46Z"/><path class="cls-31" d="M161,35.86a1.46,1.46,0,0,1,1.77-.85,1.24,1.24,0,0,1,1,1.56c-.22.66-2.23,2.22-2.23,2.22S160.81,36.52,161,35.86Z"/><path class="cls-30" d="M148.82,89.87a1.06,1.06,0,0,1-.39-1.57,1.4,1.4,0,0,1,1.78-.34,8.83,8.83,0,0,1,1.63,2.28A11.35,11.35,0,0,1,148.82,89.87Z"/><path class="cls-31" d="M149.25,89.57a.84.84,0,0,1-.31-1.24,1.1,1.1,0,0,1,1.4-.27,6.93,6.93,0,0,1,1.28,1.79A8.92,8.92,0,0,1,149.25,89.57Z"/><path class="cls-30" d="M109.63,73.56a2.61,2.61,0,0,1,3.26,1.16,2.11,2.11,0,0,1-1.31,2.88c-1.26.47-5.87-.18-5.87-.18S108.36,74,109.63,73.56Z"/><path class="cls-31" d="M109.71,74.5a2.05,2.05,0,0,1,2.56.91,1.66,1.66,0,0,1-1,2.26c-1,.37-4.61-.14-4.61-.14S108.72,74.87,109.71,74.5Z"/><path class="cls-30" d="M126.51,97.91a1.79,1.79,0,0,1-1.8,1.8,1.86,1.86,0,0,1-2-1.59c-.07-.94,1.66-3.75,1.66-3.75S126.44,97,126.51,97.91Z"/><path class="cls-31" d="M125.7,97.73a1.41,1.41,0,0,1-1.42,1.42,1.46,1.46,0,0,1-1.6-1.25C122.63,97.16,124,95,124,95S125.65,97,125.7,97.73Z"/><path class="cls-30" d="M42.65,42.11a1,1,0,0,1-.9,1.19,1.15,1.15,0,0,1-1.35-.8A7.19,7.19,0,0,1,41,40.18S42.53,41.56,42.65,42.11Z"/><path class="cls-31" d="M42.16,42.05a.8.8,0,0,1-.71.93.9.9,0,0,1-1.06-.63,5.65,5.65,0,0,1,.51-1.83S42.06,41.62,42.16,42.05Z"/><path class="cls-30" d="M74.26,93A1.27,1.27,0,0,1,74.05,95a1.7,1.7,0,0,1-2.19-.18c-.55-.58-.93-3.14-.93-3.14S73.71,92.46,74.26,93Z"/><path class="cls-31" d="M73.63,93.26a1,1,0,0,1-.16,1.52,1.33,1.33,0,0,1-1.72-.14A7.66,7.66,0,0,1,71,92.16,10.18,10.18,0,0,1,73.63,93.26Z"/><path class="cls-30" d="M122.92,33.29a2,2,0,0,1,1.62,2.38,2.26,2.26,0,0,1-2.69,1.43c-1.19-.26-4.09-2.92-4.09-2.92S121.72,33,122.92,33.29Z"/><path class="cls-31" d="M122.4,34a1.54,1.54,0,0,1,1.27,1.87A1.77,1.77,0,0,1,121.56,37c-.94-.21-3.21-2.3-3.21-2.3S121.47,33.8,122.4,34Z"/><path class="cls-30" d="M100.08,31.68A1.61,1.61,0,0,1,98,32a1.22,1.22,0,0,1-.39-1.82,12.07,12.07,0,0,1,3-1.58S100.54,31.09,100.08,31.68Z"/><path class="cls-31" d="M99.69,31.23a1.27,1.27,0,0,1-1.62.27,1,1,0,0,1-.3-1.43,9.48,9.48,0,0,1,2.37-1.24A7.21,7.21,0,0,1,99.69,31.23Z"/><path class="cls-30" d="M58.14,25.86a1.78,1.78,0,0,1,2.25.62,1.39,1.39,0,0,1-.7,2c-.81.38-3.94.17-3.94.17S57.33,26.24,58.14,25.86Z"/><path class="cls-31" d="M58.26,26.48A1.4,1.4,0,0,1,60,27a1.09,1.09,0,0,1-.55,1.56,11.57,11.57,0,0,1-3.09.13A9.24,9.24,0,0,1,58.26,26.48Z"/><path class="cls-30" d="M78.07,41.39a1.79,1.79,0,0,1-1.45-2.2,2.07,2.07,0,0,1,2.49-1.28c1.09.25,3.69,2.72,3.69,2.72S79.16,41.64,78.07,41.39Z"/><path class="cls-31" d="M78.55,40.74A1.4,1.4,0,0,1,77.42,39a1.63,1.63,0,0,1,2-1c.85.2,2.9,2.14,2.9,2.14A14,14,0,0,1,78.55,40.74Z"/><path class="cls-30" d="M143.48,43.62a1,1,0,0,1,.31,1.57,1.38,1.38,0,0,1-1.77.28,8.61,8.61,0,0,1-1.51-2.31A11.17,11.17,0,0,1,143.48,43.62Z"/><path class="cls-31" d="M143,43.91a.82.82,0,0,1,.25,1.23,1.09,1.09,0,0,1-1.39.22,6.76,6.76,0,0,1-1.19-1.81A8.78,8.78,0,0,1,143,43.91Z"/><path class="cls-30" d="M103.57,50.06a2,2,0,0,1,2.52-1,1.69,1.69,0,0,1,1.18,2.23c-.37.9-3.3,2.91-3.3,2.91S103.2,51,103.57,50.06Z"/><path class="cls-31" d="M104.24,50.52a1.61,1.61,0,0,1,2-.82,1.33,1.33,0,0,1,.92,1.75c-.29.71-2.59,2.28-2.59,2.28S103.94,51.23,104.24,50.52Z"/><path class="cls-30" d="M98.52,97.6a1.68,1.68,0,0,1,2.05-.94,1.42,1.42,0,0,1,1.06,1.81C101.36,99.23,99,101,99,101S98.24,98.35,98.52,97.6Z"/><path class="cls-31" d="M99.09,98a1.32,1.32,0,0,1,1.61-.74,1.11,1.11,0,0,1,.83,1.42c-.22.6-2.06,2-2.06,2A7.91,7.91,0,0,1,99.09,98Z"/><path class="cls-30" d="M122.4,12.92a1.78,1.78,0,0,1,1.93-1.58A1.74,1.74,0,0,1,126.12,13c0,.91-2,3.46-2,3.46S122.36,13.83,122.4,12.92Z"/><path class="cls-31" d="M123.15,13.17a1.4,1.4,0,0,1,1.52-1.24,1.37,1.37,0,0,1,1.4,1.34c0,.71-1.59,2.72-1.59,2.72S123.12,13.88,123.15,13.17Z"/><path class="cls-30" d="M100,8.67a2.61,2.61,0,0,1,3.35-.51,2,2,0,0,1,.58,3c-.76,1-4.93,2.49-4.93,2.49S99.26,9.63,100,8.67Z"/><path class="cls-31" d="M100.64,9.41a2.05,2.05,0,0,1,2.63-.4,1.55,1.55,0,0,1,.45,2.32c-.6.75-3.87,2-3.87,2S100,10.16,100.64,9.41Z"/><path class="cls-30" d="M65.36,72.19a1.52,1.52,0,0,1,.54-2.25,2,2,0,0,1,2.55.48c.55.75.6,3.81.6,3.81S65.92,72.95,65.36,72.19Z"/><path class="cls-31" d="M66.13,72a1.19,1.19,0,0,1,.43-1.77,1.57,1.57,0,0,1,2,.38c.43.59.47,3,.47,3A11.67,11.67,0,0,1,66.13,72Z"/><path class="cls-30" d="M84.94,60.25a1.92,1.92,0,0,1,1.94-1.91,2,2,0,0,1,2.16,1.72c.06,1-1.82,4-1.82,4S85,61.25,84.94,60.25Z"/><path class="cls-31" d="M85.8,60.46A1.51,1.51,0,0,1,87.33,59,1.55,1.55,0,0,1,89,60.3c0,.79-1.43,3.13-1.43,3.13S85.85,61.25,85.8,60.46Z"/><path class="cls-30" d="M166.6,76.85a2.16,2.16,0,0,1-1.68-2.7A2.53,2.53,0,0,1,168,72.66c1.31.34,4.39,3.4,4.39,3.4S167.91,77.19,166.6,76.85Z"/><path class="cls-31" d="M167.21,76.08A1.69,1.69,0,0,1,165.88,74a2,2,0,0,1,2.4-1.17c1,.26,3.45,2.67,3.45,2.67S168.24,76.34,167.21,76.08Z"/><path class="cls-30" d="M38.44,61A1.32,1.32,0,0,1,40.15,61a1,1,0,0,1,.07,1.51,10.2,10.2,0,0,1-2.64,1A7.66,7.66,0,0,1,38.44,61Z"/><path class="cls-31" d="M38.69,61.43A1,1,0,0,1,40,61.38a.77.77,0,0,1,.06,1.19,8,8,0,0,1-2.07.76A6,6,0,0,1,38.69,61.43Z"/><path class="cls-30" d="M78.22,15.44a1.21,1.21,0,0,1,1.54.37.94.94,0,0,1-.42,1.36,10,10,0,0,1-2.65.2A7.85,7.85,0,0,1,78.22,15.44Z"/><path class="cls-31" d="M78.32,15.87a1,1,0,0,1,1.21.29.74.74,0,0,1-.33,1.07,7.81,7.81,0,0,1-2.09.15A6.16,6.16,0,0,1,78.32,15.87Z"/><path class="cls-5" d="M36.55,59.57S43.66,84.44,74.8,98c28.73,12.46,72.29,1.88,104.56-28.69C177,70.94,132.25,102,82.44,85.41A92.06,92.06,0,0,1,34.92,49.18,42.91,42.91,0,0,0,36.55,59.57Z"/><path class="cls-5" d="M40.18,59.83C44.66,67.5,55.6,83.36,76.81,91.88c31,12.48,71.16,4,100.31-21.65C169.77,74,120.23,98.49,71.53,79.48A99,99,0,0,1,40.18,59.83Z"/></g></g></g></svg>