<svg xmlns="http://www.w3.org/2000/svg" xmlns:xlink="http://www.w3.org/1999/xlink" viewBox="0 0 189.44 88.18"><defs><style>.cls-1{fill:#4a7f33;}.cls-2{fill:#fff;}.cls-3{fill:#fdfdfd;}.cls-4{fill:#fbfbfb;}.cls-5{fill:#f9f9f9;}.cls-6{fill:#f7f7f7;}.cls-7{fill:#f5f5f5;}.cls-8{fill:#f3f3f3;}.cls-9{fill:#f1f1f1;}.cls-10{fill:#efefef;}.cls-11{fill:#ededed;}.cls-12{fill:#ebebeb;}.cls-13{fill:#e9e9e9;}.cls-14{fill:#e7e7e7;}.cls-15{fill:#e5e5e5;}.cls-16{fill:#e3e3e3;}.cls-17{fill:#e1e1e1;}.cls-18{fill:#dfdfdf;}.cls-19{fill:#ddd;}.cls-20{fill:#dbdbdb;}.cls-21{fill:#d9d9d9;}.cls-22{fill:#d7d7d7;}.cls-23{fill:#d5d5d5;}.cls-24{fill:#d3d3d3;}.cls-25{fill:#d1d1d1;}.cls-26{fill:#cfcfcf;}.cls-27{fill:#cdcdcd;}.cls-28{fill:#cbcbcb;}.cls-29{fill:#c9c9c9;}.cls-30{fill:#c7c7c7;}.cls-31{fill:#c5c5c5;}.cls-32{fill:#c3c3c3;}.cls-33{fill:#c1c1c1;}.cls-34{fill:#bfbfbf;}.cls-35{fill:#bdbdbd;}.cls-36{fill:#bbb;}.cls-37{fill:#b9b9b9;}.cls-38{fill:#b7b7b7;}.cls-39{fill:#b5b5b5;}.cls-40{fill:#b3b3b3;}.cls-41{fill:#b1b1b1;}.cls-42{fill:#afafaf;}.cls-43{fill:#adadad;}.cls-44{fill:#ababab;}.cls-45{fill:#a9a9a9;}.cls-46{fill:#a7a7a7;}.cls-47{fill:#a5a5a5;}.cls-48{fill:#a3a3a3;}.cls-49{fill:#a1a1a1;}.cls-50{fill:#9f9f9f;}.cls-51{fill:#9d9d9d;}.cls-52{fill:#9b9b9b;}.cls-53{fill:#999;}.cls-54{fill:url(#linear-gradient);}</style><linearGradient id="linear-gradient" y1="38.91" x2="185.72" y2="38.91" gradientUnits="userSpaceOnUse"><stop offset="0" stop-color="#558c2f"/><stop offset="0.05" stop-color="#7abd38"/><stop offset="0.11" stop-color="#8cc63f"/><stop offset="0.18" stop-color="#7abd38"/><stop offset="1" stop-color="#7abd38"/></linearGradient></defs><title>Ресурс 20elements</title><g id="Слой_2" data-name="Слой 2"><g id="Layer_1" data-name="Layer 1"><path class="cls-1" d="M0,78.38s0,9.8,10.17,9.8V64S0,64.44,0,78.38Z"/><path class="cls-2" d="M10.17,72.5H187.32a2.12,2.12,0,0,0,1.91-3.05L175.41,39.69a2.12,2.12,0,0,1,0-1.86L189.23,9.59a2.12,2.12,0,0,0-1.91-3.05H10.17Z"/><path class="cls-3" d="M10.17,72.34h176.9a2.12,2.12,0,0,0,1.9-3.05L175.16,39.56a2.12,2.12,0,0,1,0-1.86L189,9.52a2.12,2.12,0,0,0-1.9-3.05H10.17Z"/><path class="cls-4" d="M10.17,72.18H186.81a2.12,2.12,0,0,0,1.91-3.05L174.9,39.43a2.12,2.12,0,0,1,0-1.86L188.72,9.44a2.12,2.12,0,0,0-1.91-3.05H10.17Z"/><path class="cls-5" d="M10.17,72H186.56A2.12,2.12,0,0,0,188.47,69L174.65,39.3a2.12,2.12,0,0,1,0-1.86L188.47,9.37a2.12,2.12,0,0,0-1.91-3.05H10.17Z"/><path class="cls-6" d="M10.17,71.86H186.31a2.12,2.12,0,0,0,1.91-3.05L174.4,39.17a2.11,2.11,0,0,1,0-1.86l13.81-28a2.12,2.12,0,0,0-1.91-3.05H10.17Z"/><path class="cls-7" d="M10.17,71.7H186.05A2.12,2.12,0,0,0,188,68.64L174.14,39a2.11,2.11,0,0,1,0-1.86L188,9.22a2.12,2.12,0,0,0-1.91-3.05H10.17Z"/><path class="cls-8" d="M10.17,71.54H185.8a2.12,2.12,0,0,0,1.91-3.05L173.89,38.9a2.12,2.12,0,0,1,0-1.86l13.81-27.9a2.12,2.12,0,0,0-1.91-3.05H10.17Z"/><path class="cls-9" d="M10.17,71.38H185.55a2.12,2.12,0,0,0,1.9-3.05L173.64,38.77a2.12,2.12,0,0,1,0-1.86L187.45,9.07A2.12,2.12,0,0,0,185.55,6H10.17Z"/><path class="cls-10" d="M10.17,71.22H185.29a2.12,2.12,0,0,0,1.91-3.05L173.38,38.64a2.12,2.12,0,0,1,0-1.86L187.2,9a2.12,2.12,0,0,0-1.91-3.05H10.17Z"/><path class="cls-11" d="M10.17,71.05H185A2.12,2.12,0,0,0,186.94,68L173.13,38.51a2.12,2.12,0,0,1,0-1.86L186.94,8.92A2.12,2.12,0,0,0,185,5.86H10.17Z"/><path class="cls-12" d="M10.17,70.89H184.79a2.12,2.12,0,0,0,1.91-3.05L172.88,38.38a2.12,2.12,0,0,1,0-1.86L186.69,8.84a2.12,2.12,0,0,0-1.91-3.05H10.17Z"/><path class="cls-13" d="M10.17,70.73H184.53a2.12,2.12,0,0,0,1.91-3.05L172.62,38.25a2.12,2.12,0,0,1,0-1.86L186.44,8.77a2.12,2.12,0,0,0-1.91-3.05H10.17Z"/><path class="cls-14" d="M10.17,70.57H184.28a2.12,2.12,0,0,0,1.91-3.05l-13.82-29.4a2.12,2.12,0,0,1,0-1.86L186.18,8.69a2.12,2.12,0,0,0-1.91-3.05H10.17Z"/><path class="cls-15" d="M10.17,70.41H184a2.12,2.12,0,0,0,1.91-3.05L172.11,38a2.12,2.12,0,0,1,0-1.86L185.93,8.62A2.12,2.12,0,0,0,184,5.56H10.17Z"/><path class="cls-16" d="M10.17,70.25h173.6a2.12,2.12,0,0,0,1.91-3.05L171.86,37.86a2.12,2.12,0,0,1,0-1.86L185.68,8.54a2.12,2.12,0,0,0-1.91-3.05H10.17Z"/><path class="cls-17" d="M10.17,70.09H183.52A2.12,2.12,0,0,0,185.42,67L171.61,37.72a2.12,2.12,0,0,1,0-1.86l13.81-27.4a2.12,2.12,0,0,0-1.91-3.05H10.17Z"/><path class="cls-18" d="M10.17,69.93h173.1a2.12,2.12,0,0,0,1.91-3.05L171.35,37.59a2.12,2.12,0,0,1,0-1.86L185.17,8.39a2.12,2.12,0,0,0-1.91-3.05H10.17Z"/><path class="cls-19" d="M10.17,69.77H183a2.12,2.12,0,0,0,1.91-3.05L171.1,37.46a2.11,2.11,0,0,1,0-1.86L184.91,8.31A2.12,2.12,0,0,0,183,5.26H10.17Z"/><path class="cls-20" d="M10.17,69.61H182.76a2.12,2.12,0,0,0,1.91-3.05L170.85,37.33a2.12,2.12,0,0,1,0-1.86L184.66,8.24a2.12,2.12,0,0,0-1.91-3.05H10.17Z"/><path class="cls-21" d="M10.17,69.44H182.5a2.12,2.12,0,0,0,1.91-3.05L170.59,37.2a2.12,2.12,0,0,1,0-1.86L184.41,8.16a2.12,2.12,0,0,0-1.91-3.05H10.17Z"/><path class="cls-22" d="M10.17,69.28H182.25a2.12,2.12,0,0,0,1.91-3.05L170.34,37.07a2.12,2.12,0,0,1,0-1.86L184.15,8.09A2.12,2.12,0,0,0,182.25,5H10.17Z"/><path class="cls-23" d="M10.17,69.12H182a2.12,2.12,0,0,0,1.91-3.05L170.08,36.94a2.12,2.12,0,0,1,0-1.86L183.9,8A2.12,2.12,0,0,0,182,5H10.17Z"/><path class="cls-24" d="M10.17,69H181.74a2.12,2.12,0,0,0,1.91-3.05l-13.81-29.1a2.11,2.11,0,0,1,0-1.86l13.81-27a2.12,2.12,0,0,0-1.91-3.05H10.17Z"/><path class="cls-25" d="M10.17,68.8H181.49a2.12,2.12,0,0,0,1.91-3.05L169.58,36.68a2.12,2.12,0,0,1,0-1.86L183.39,7.86a2.12,2.12,0,0,0-1.91-3.05H10.17Z"/><path class="cls-26" d="M10.17,68.64H181.23a2.12,2.12,0,0,0,1.91-3.05l-13.82-29a2.12,2.12,0,0,1,0-1.86L183.14,7.79a2.12,2.12,0,0,0-1.91-3.05H10.17Z"/><path class="cls-27" d="M10.17,68.48H181a2.12,2.12,0,0,0,1.91-3.05l-13.82-29a2.12,2.12,0,0,1,0-1.86L182.89,7.71A2.12,2.12,0,0,0,181,4.66H10.17Z"/><path class="cls-28" d="M10.17,68.32H180.73a2.12,2.12,0,0,0,1.91-3.05l-13.81-29a2.11,2.11,0,0,1,0-1.86L182.63,7.64a2.12,2.12,0,0,0-1.91-3.05H10.17Z"/><path class="cls-29" d="M10.17,68.16H180.47a2.12,2.12,0,0,0,1.91-3.05l-13.81-29a2.11,2.11,0,0,1,0-1.86L182.38,7.56a2.12,2.12,0,0,0-1.91-3.05H10.17Z"/><path class="cls-30" d="M10.17,68H180.22a2.12,2.12,0,0,0,1.91-3.05L168.31,36a2.12,2.12,0,0,1,0-1.86L182.12,7.49a2.12,2.12,0,0,0-1.91-3.05H10.17Z"/><path class="cls-31" d="M10.17,67.83H180a2.12,2.12,0,0,0,1.91-3.05L168.06,35.89a2.12,2.12,0,0,1,0-1.86L181.87,7.41A2.12,2.12,0,0,0,180,4.36H10.17Z"/><path class="cls-32" d="M10.17,67.67H179.71a2.12,2.12,0,0,0,1.91-3.05L167.8,35.76a2.12,2.12,0,0,1,0-1.86L181.62,7.33a2.12,2.12,0,0,0-1.91-3.05H10.17Z"/><path class="cls-33" d="M10.17,67.51H179.46a2.12,2.12,0,0,0,1.91-3.05L167.55,35.63a2.11,2.11,0,0,1,0-1.86l13.81-26.5a2.12,2.12,0,0,0-1.91-3.05H10.17Z"/><path class="cls-34" d="M10.17,67.35h169a2.12,2.12,0,0,0,1.91-3.05L167.29,35.5a2.11,2.11,0,0,1,0-1.86L181.11,7.18a2.12,2.12,0,0,0-1.91-3.05h-169Z"/><path class="cls-35" d="M10.17,67.19H179a2.12,2.12,0,0,0,1.91-3.05L167,35.37a2.12,2.12,0,0,1,0-1.86L180.86,7.11A2.12,2.12,0,0,0,179,4.06H10.17Z"/><path class="cls-36" d="M10.17,67H178.7A2.12,2.12,0,0,0,180.6,64L166.79,35.23a2.11,2.11,0,0,1,0-1.86L180.6,7A2.12,2.12,0,0,0,178.7,4H10.17Z"/><path class="cls-37" d="M10.17,66.87H178.44a2.12,2.12,0,0,0,1.91-3.05L166.53,35.1a2.11,2.11,0,0,1,0-1.86L180.35,7a2.12,2.12,0,0,0-1.91-3.05H10.17Z"/><path class="cls-38" d="M10.17,66.71h168a2.12,2.12,0,0,0,1.91-3.05L166.28,35a2.11,2.11,0,0,1,0-1.86L180.09,6.88a2.12,2.12,0,0,0-1.91-3.05h-168Z"/><path class="cls-39" d="M10.17,66.55H177.94a2.12,2.12,0,0,0,1.91-3.05L166,34.84A2.12,2.12,0,0,1,166,33L179.84,6.81a2.12,2.12,0,0,0-1.91-3.05H10.17Z"/><path class="cls-40" d="M10.17,66.39H177.68a2.12,2.12,0,0,0,1.91-3.05L165.77,34.71a2.11,2.11,0,0,1,0-1.86L179.59,6.73a2.12,2.12,0,0,0-1.91-3.05H10.17Z"/><path class="cls-41" d="M10.17,66.22H177.43a2.12,2.12,0,0,0,1.91-3.05L165.52,34.58a2.12,2.12,0,0,1,0-1.86L179.33,6.66a2.12,2.12,0,0,0-1.91-3.05H10.17Z"/><path class="cls-42" d="M10.17,66.06h167A2.12,2.12,0,0,0,179.08,63L165.27,34.45a2.11,2.11,0,0,1,0-1.86l13.81-26a2.12,2.12,0,0,0-1.91-3.05h-167Z"/><path class="cls-43" d="M10.17,65.9H176.92a2.12,2.12,0,0,0,1.91-3.05L165,34.32a2.11,2.11,0,0,1,0-1.86L178.83,6.51a2.12,2.12,0,0,0-1.91-3.05H10.17Z"/><path class="cls-44" d="M10.17,65.74h166.5a2.12,2.12,0,0,0,1.91-3.05l-13.81-28.5a2.11,2.11,0,0,1,0-1.86L178.57,6.43a2.12,2.12,0,0,0-1.91-3.05H10.17Z"/><path class="cls-45" d="M10.17,65.58H176.41a2.12,2.12,0,0,0,1.91-3.05L164.5,34.06a2.11,2.11,0,0,1,0-1.86L178.32,6.36a2.12,2.12,0,0,0-1.91-3.05H10.17Z"/><path class="cls-46" d="M10.17,65.42h166a2.12,2.12,0,0,0,1.91-3.05L164.25,33.92a2.11,2.11,0,0,1,0-1.86L178.07,6.28a2.12,2.12,0,0,0-1.91-3.05h-166Z"/><path class="cls-47" d="M10.17,65.26H175.91a2.12,2.12,0,0,0,1.91-3.05L164,33.79a2.11,2.11,0,0,1,0-1.86L177.81,6.21a2.12,2.12,0,0,0-1.91-3.05H10.17Z"/><path class="cls-48" d="M10.17,65.1H175.65A2.12,2.12,0,0,0,177.56,62L163.74,33.66a2.12,2.12,0,0,1,0-1.86L177.56,6.13a2.12,2.12,0,0,0-1.91-3.05H10.17Z"/><path class="cls-49" d="M10.17,64.94H175.4a2.12,2.12,0,0,0,1.91-3.05L163.49,33.53a2.12,2.12,0,0,1,0-1.86L177.3,6.05A2.12,2.12,0,0,0,175.4,3H10.17Z"/><path class="cls-50" d="M10.17,64.78h165a2.12,2.12,0,0,0,1.91-3.05L163.24,33.4a2.11,2.11,0,0,1,0-1.86L177.05,6a2.12,2.12,0,0,0-1.91-3.05h-165Z"/><path class="cls-51" d="M10.17,64.61H174.89a2.12,2.12,0,0,0,1.91-3.05L163,33.27a2.11,2.11,0,0,1,0-1.86L176.8,5.9a2.12,2.12,0,0,0-1.91-3.05H10.17Z"/><path class="cls-52" d="M10.17,64.45H174.64a2.12,2.12,0,0,0,1.91-3.05L162.73,33.14a2.11,2.11,0,0,1,0-1.86L176.54,5.83a2.12,2.12,0,0,0-1.91-3.05H10.17Z"/><path class="cls-53" d="M10.17,64.29H174.38a2.12,2.12,0,0,0,1.91-3.05L162.47,33a2.11,2.11,0,0,1,0-1.86L176.29,5.75a2.12,2.12,0,0,0-1.91-3.05H10.17Z"/><path class="cls-54" d="M0,77.82S0,64.44,19.38,64.44H183.6a2.12,2.12,0,0,0,1.91-3.05L171.69,33.15a2.12,2.12,0,0,1,0-1.86L185.5,3.06A2.12,2.12,0,0,0,183.6,0H19.38C0,0,0,13.39,0,13.39Z"/></g></g></svg>