<svg xmlns="http://www.w3.org/2000/svg" xmlns:xlink="http://www.w3.org/1999/xlink" viewBox="0 0 200.03 88.18"><defs><style>.cls-1{fill:#fff;}.cls-2{fill:#fdfdfd;}.cls-3{fill:#fbfbfb;}.cls-4{fill:#f9f9f9;}.cls-5{fill:#f7f7f7;}.cls-6{fill:#f5f5f5;}.cls-7{fill:#f3f3f3;}.cls-8{fill:#f1f1f1;}.cls-9{fill:#efefef;}.cls-10{fill:#ededed;}.cls-11{fill:#ebebeb;}.cls-12{fill:#e9e9e9;}.cls-13{fill:#e7e7e7;}.cls-14{fill:#e5e5e5;}.cls-15{fill:#e3e3e3;}.cls-16{fill:#e1e1e1;}.cls-17{fill:#dfdfdf;}.cls-18{fill:#ddd;}.cls-19{fill:#dbdbdb;}.cls-20{fill:#d9d9d9;}.cls-21{fill:#d7d7d7;}.cls-22{fill:#d5d5d5;}.cls-23{fill:#d3d3d3;}.cls-24{fill:#d1d1d1;}.cls-25{fill:#cfcfcf;}.cls-26{fill:#cdcdcd;}.cls-27{fill:#cbcbcb;}.cls-28{fill:#c9c9c9;}.cls-29{fill:#c7c7c7;}.cls-30{fill:#c5c5c5;}.cls-31{fill:#c3c3c3;}.cls-32{fill:#c1c1c1;}.cls-33{fill:#bfbfbf;}.cls-34{fill:#bdbdbd;}.cls-35{fill:#bbb;}.cls-36{fill:#b9b9b9;}.cls-37{fill:#b7b7b7;}.cls-38{fill:#b5b5b5;}.cls-39{fill:#b3b3b3;}.cls-40{fill:#b1b1b1;}.cls-41{fill:#afafaf;}.cls-42{fill:#adadad;}.cls-43{fill:#ababab;}.cls-44{fill:#a9a9a9;}.cls-45{fill:#a7a7a7;}.cls-46{fill:#a5a5a5;}.cls-47{fill:#a3a3a3;}.cls-48{fill:#a1a1a1;}.cls-49{fill:#9f9f9f;}.cls-50{fill:#9d9d9d;}.cls-51{fill:#9b9b9b;}.cls-52{fill:#999;}.cls-53{fill:#976b1d;}.cls-54{fill:url(#linear-gradient);}</style><linearGradient id="linear-gradient" y1="38.91" x2="200.03" y2="38.91" gradientUnits="userSpaceOnUse"><stop offset="0" stop-color="#cc7b19"/><stop offset="0.05" stop-color="#fbb03b"/><stop offset="0.11" stop-color="#fcc731"/><stop offset="0.18" stop-color="#fbb03b"/><stop offset="1" stop-color="#fbb03b"/></linearGradient></defs><title>Ресурс 21elements</title><g id="Слой_2" data-name="Слой 2"><g id="Layer_1" data-name="Layer 1"><path class="cls-1" d="M167.81,7.48H10.17V71.91H167.81a32.22,32.22,0,0,0,0-64.44Z"/><path class="cls-2" d="M167.81,7.33,10.17,7.48V71.77H167.81a32.22,32.22,0,0,0,0-64.44Z"/><path class="cls-3" d="M167.81,7.18,10.17,7.48V71.62H167.81a32.22,32.22,0,0,0,0-64.44Z"/><path class="cls-4" d="M167.81,7,10.17,7.48v64H167.81a32.22,32.22,0,0,0,0-64.44Z"/><path class="cls-5" d="M167.81,6.89,10.17,7.48V71.33H167.81a32.22,32.22,0,0,0,0-64.44Z"/><path class="cls-6" d="M167.81,6.74,10.17,7.48v63.7H167.81a32.22,32.22,0,0,0,0-64.44Z"/><path class="cls-7" d="M167.81,6.6,10.17,7.48V71H167.81a32.22,32.22,0,0,0,0-64.44Z"/><path class="cls-8" d="M167.81,6.45l-157.64,1V70.89H167.81a32.22,32.22,0,0,0,0-64.44Z"/><path class="cls-9" d="M167.81,6.3,10.17,7.48V70.74H167.81a32.22,32.22,0,0,0,0-64.44Z"/><path class="cls-10" d="M167.81,6.16,10.17,7.48V70.59H167.81a32.22,32.22,0,0,0,0-64.44Z"/><path class="cls-11" d="M167.81,6,10.17,7.48v63H167.81a32.22,32.22,0,0,0,0-64.44Z"/><path class="cls-12" d="M167.81,5.86,10.17,7.48V70.3H167.81a32.22,32.22,0,0,0,0-64.44Z"/><path class="cls-13" d="M167.81,5.72,10.17,7.48V70.15H167.81a32.22,32.22,0,0,0,0-64.44Z"/><path class="cls-14" d="M167.81,5.57,10.17,7.48V70H167.81a32.22,32.22,0,0,0,0-64.44Z"/><path class="cls-15" d="M167.81,5.42,10.17,7.48V69.86H167.81a32.22,32.22,0,0,0,0-64.44Z"/><path class="cls-16" d="M167.81,5.28,10.17,7.48V69.71H167.81a32.22,32.22,0,0,0,0-64.44Z"/><path class="cls-17" d="M167.81,5.13,10.17,7.48V69.57H167.81a32.22,32.22,0,0,0,0-64.44Z"/><path class="cls-18" d="M167.81,5,10.17,7.48V69.42H167.81a32.22,32.22,0,1,0,0-64.44Z"/><path class="cls-19" d="M167.81,4.84,10.17,7.48v61.8H167.81a32.22,32.22,0,0,0,0-64.44Z"/><path class="cls-20" d="M167.81,4.69,10.17,7.48V69.13H167.81a32.22,32.22,0,1,0,0-64.44Z"/><path class="cls-21" d="M167.81,4.54,10.17,7.48V69H167.81a32.22,32.22,0,0,0,0-64.44Z"/><path class="cls-22" d="M167.81,4.4,10.17,7.48V68.83H167.81a32.22,32.22,0,0,0,0-64.44Z"/><path class="cls-23" d="M167.81,4.25,10.17,7.48V68.69H167.81a32.22,32.22,0,0,0,0-64.44Z"/><path class="cls-24" d="M167.81,4.11,10.17,7.48V68.54H167.81a32.22,32.22,0,0,0,0-64.44Z"/><path class="cls-25" d="M167.81,4,10.17,7.48V68.4H167.81a32.22,32.22,0,0,0,0-64.44Z"/><path class="cls-26" d="M167.81,3.81,10.17,7.48V68.25H167.81a32.22,32.22,0,0,0,0-64.44Z"/><path class="cls-27" d="M167.81,3.66,10.17,7.48V68.1H167.81a32.22,32.22,0,0,0,0-64.44Z"/><path class="cls-28" d="M167.81,3.52l-157.64,4V68H167.81a32.22,32.22,0,0,0,0-64.44Z"/><path class="cls-29" d="M167.81,3.37,10.17,7.48V67.81H167.81a32.22,32.22,0,0,0,0-64.44Z"/><path class="cls-30" d="M167.81,3.23,10.17,7.48V67.66H167.81a32.22,32.22,0,0,0,0-64.44Z"/><path class="cls-31" d="M167.81,3.08,10.17,7.48v60H167.81a32.22,32.22,0,0,0,0-64.44Z"/><path class="cls-32" d="M167.81,2.93,10.17,7.48V67.37H167.81a32.22,32.22,0,1,0,0-64.44Z"/><path class="cls-33" d="M167.81,2.79,10.17,7.48V67.22H167.81a32.22,32.22,0,0,0,0-64.44Z"/><path class="cls-34" d="M167.81,2.64,10.17,7.48v59.6H167.81a32.22,32.22,0,1,0,0-64.44Z"/><path class="cls-35" d="M167.81,2.49l-157.64,5V66.93H167.81a32.22,32.22,0,1,0,0-64.44Z"/><path class="cls-36" d="M167.81,2.35,10.17,7.48v59.3H167.81a32.22,32.22,0,1,0,0-64.44Z"/><path class="cls-37" d="M167.81,2.2,10.17,7.48V66.64H167.81a32.22,32.22,0,0,0,0-64.44Z"/><path class="cls-38" d="M167.81,2.05,10.17,7.48v59H167.81a32.22,32.22,0,0,0,0-64.44Z"/><path class="cls-39" d="M167.81,1.91,10.17,7.48V66.34H167.81a32.22,32.22,0,0,0,0-64.44Z"/><path class="cls-40" d="M167.81,1.76,10.17,7.48V66.2H167.81a32.22,32.22,0,0,0,0-64.44Z"/><path class="cls-41" d="M167.81,1.61,10.17,7.48V66H167.81a32.22,32.22,0,0,0,0-64.44Z"/><path class="cls-42" d="M167.81,1.47l-157.64,6V65.9H167.81a32.22,32.22,0,0,0,0-64.44Z"/><path class="cls-43" d="M167.81,1.32,10.17,7.48V65.76H167.81a32.22,32.22,0,0,0,0-64.44Z"/><path class="cls-44" d="M167.81,1.17,10.17,7.48V65.61H167.81a32.22,32.22,0,0,0,0-64.44Z"/><path class="cls-45" d="M167.81,1,10.17,7.48v58H167.81a32.22,32.22,0,0,0,0-64.44Z"/><path class="cls-46" d="M167.81.88,10.17,7.48V65.32H167.81a32.22,32.22,0,0,0,0-64.44Z"/><path class="cls-47" d="M167.81.73,10.17,7.48V65.17H167.81a32.22,32.22,0,1,0,0-64.44Z"/><path class="cls-48" d="M167.81.59,10.17,7.48V65H167.81a32.22,32.22,0,0,0,0-64.44Z"/><path class="cls-49" d="M167.81.44l-157.64,7v57.4H167.81a32.22,32.22,0,0,0,0-64.44Z"/><path class="cls-50" d="M167.81.29,10.17,7.48V64.73H167.81a32.22,32.22,0,0,0,0-64.44Z"/><path class="cls-51" d="M167.81.15,10.17,7.48V64.58H167.81a32.22,32.22,0,0,0,0-64.44Z"/><path class="cls-52" d="M167.81,0,10.17,7.48v57H167.81a32.22,32.22,0,0,0,0-64.44Z"/><path class="cls-53" d="M0,78.38s0,9.8,10.17,9.8V64S0,64.44,0,78.38Z"/><path class="cls-54" d="M167.81,0H19.38C0,0,0,13.39,0,13.39V77.82S0,64.44,19.38,64.44H167.81a32.22,32.22,0,0,0,0-64.44Z"/></g></g></svg>