<svg xmlns="http://www.w3.org/2000/svg" xmlns:xlink="http://www.w3.org/1999/xlink" viewBox="0 0 202.47 88.18"><defs><style>.cls-1{fill:#163e79;}.cls-2{fill:#fff;}.cls-3{fill:#fdfdfd;}.cls-4{fill:#fbfbfb;}.cls-5{fill:#f9f9f9;}.cls-6{fill:#f7f7f7;}.cls-7{fill:#f5f5f5;}.cls-8{fill:#f3f3f3;}.cls-9{fill:#f1f1f1;}.cls-10{fill:#efefef;}.cls-11{fill:#ededed;}.cls-12{fill:#ebebeb;}.cls-13{fill:#e9e9e9;}.cls-14{fill:#e7e7e7;}.cls-15{fill:#e5e5e5;}.cls-16{fill:#e3e3e3;}.cls-17{fill:#e1e1e1;}.cls-18{fill:#dfdfdf;}.cls-19{fill:#ddd;}.cls-20{fill:#dbdbdb;}.cls-21{fill:#d9d9d9;}.cls-22{fill:#d7d7d7;}.cls-23{fill:#d5d5d5;}.cls-24{fill:#d3d3d3;}.cls-25{fill:#d1d1d1;}.cls-26{fill:#cfcfcf;}.cls-27{fill:#cdcdcd;}.cls-28{fill:#cbcbcb;}.cls-29{fill:#c9c9c9;}.cls-30{fill:#c7c7c7;}.cls-31{fill:#c5c5c5;}.cls-32{fill:#c3c3c3;}.cls-33{fill:#c1c1c1;}.cls-34{fill:#bfbfbf;}.cls-35{fill:#bdbdbd;}.cls-36{fill:#bbb;}.cls-37{fill:#b9b9b9;}.cls-38{fill:#b7b7b7;}.cls-39{fill:#b5b5b5;}.cls-40{fill:#b3b3b3;}.cls-41{fill:#b1b1b1;}.cls-42{fill:#afafaf;}.cls-43{fill:#adadad;}.cls-44{fill:#ababab;}.cls-45{fill:#a9a9a9;}.cls-46{fill:#a7a7a7;}.cls-47{fill:#a5a5a5;}.cls-48{fill:#a3a3a3;}.cls-49{fill:#a1a1a1;}.cls-50{fill:#9f9f9f;}.cls-51{fill:#9d9d9d;}.cls-52{fill:#9b9b9b;}.cls-53{fill:#999;}.cls-54{fill:url(#linear-gradient);}</style><linearGradient id="linear-gradient" y1="38.91" x2="197.14" y2="38.91" gradientUnits="userSpaceOnUse"><stop offset="0" stop-color="#0f3164"/><stop offset="0.05" stop-color="#285fac"/><stop offset="0.11" stop-color="#3877c4"/><stop offset="0.22" stop-color="#285fac"/><stop offset="1" stop-color="#285fac"/></linearGradient></defs><title>Ресурс 18elements</title><g id="Слой_2" data-name="Слой 2"><g id="Layer_1" data-name="Layer 1"><path class="cls-1" d="M0,78.37s0,9.8,10.17,9.8V64S0,64.44,0,78.37Z"/><path class="cls-2" d="M10.17,73H181.56c7.25,0,16.58-23.78,20.91-35.23L182.09,11.67H10.17Z"/><path class="cls-3" d="M10.17,72.84H181.09c7.7,0,16.94-24,21.19-35.22L182.09,11.51H10.17Z"/><path class="cls-4" d="M10.17,72.67H180.62c8.14,0,17.3-24.21,21.46-35.21l-20-26.11H10.17Z"/><path class="cls-5" d="M10.17,72.49h170c8.58,0,17.66-24.43,21.74-35.2l-19.81-26.1H10.17Z"/><path class="cls-6" d="M10.17,72.31H179.69c9,0,18-24.64,22-35.19L182.09,11H10.17Z"/><path class="cls-7" d="M10.17,72.14H179.22c9.47,0,18.38-24.86,22.29-35.18l-19.42-26.1H10.17Z"/><path class="cls-8" d="M10.17,72H178.75c9.91,0,18.75-25.07,22.57-35.17l-19.23-26.1H10.17Z"/><path class="cls-9" d="M10.17,71.78H178.29c10.36,0,19.11-25.29,22.84-35.16l-19-26.09H10.17Z"/><path class="cls-10" d="M10.17,71.61H177.82c10.8,0,19.47-25.5,23.12-35.15L182.09,10.36H10.17Z"/><path class="cls-11" d="M10.17,71.43H177.35c11.25,0,19.83-25.72,23.4-35.14L182.09,10.2H10.17Z"/><path class="cls-12" d="M10.17,71.26H176.89c11.69,0,20.19-25.93,23.67-35.14L182.09,10H10.17Z"/><path class="cls-13" d="M10.17,71.08H176.42c12.13,0,20.55-26.15,24-35.13L182.09,9.87H10.17Z"/><path class="cls-14" d="M10.17,70.9H176c12.58,0,20.91-26.36,24.23-35.12L182.09,9.71H10.17Z"/><path class="cls-15" d="M10.17,70.73H175.48c13,0,21.28-26.58,24.5-35.11L182.09,9.54H10.17Z"/><path class="cls-16" d="M10.17,70.55H175c13.46,0,21.64-26.79,24.78-35.1L182.09,9.38H10.17Z"/><path class="cls-17" d="M10.17,70.38H174.55c13.91,0,22-27,25.06-35.09L182.09,9.21H10.17Z"/><path class="cls-18" d="M10.17,70.2H174.08c14.35,0,22.36-27.22,25.33-35.08L182.09,9H10.17Z"/><path class="cls-19" d="M10.17,70H173.62c14.79,0,22.72-27.44,25.61-35.07L182.09,8.89H10.17Z"/><path class="cls-20" d="M10.17,69.85h163c15.24,0,23.08-27.65,25.89-35.06L182.09,8.72H10.17Z"/><path class="cls-21" d="M10.17,69.67H172.68c15.68,0,23.44-27.87,26.16-35L182.09,8.56H10.17Z"/><path class="cls-22" d="M10.17,69.5h162c16.13,0,23.81-28.08,26.44-35L182.09,8.39H10.17Z"/><path class="cls-23" d="M10.17,69.32H171.75c16.57,0,24.17-28.3,26.72-35L182.09,8.23H10.17Z"/><path class="cls-24" d="M10.17,69.15H171.28c17,0,24.53-28.51,27-35L182.09,8.06H10.17Z"/><path class="cls-25" d="M10.17,69H170.81c17.46,0,24.89-28.73,27.27-35l-16-26.06H10.17Z"/><path class="cls-26" d="M10.17,68.79H170.35c17.9,0,25.25-28.94,27.54-35L182.09,7.74H10.17Z"/><path class="cls-27" d="M10.17,68.62H169.88c18.34,0,25.61-29.16,27.82-35L182.09,7.57H10.17Z"/><path class="cls-28" d="M10.17,68.44H169.41c18.79,0,26-29.37,28.1-35L182.09,7.41H10.17Z"/><path class="cls-29" d="M10.17,68.27H168.94c19.23,0,26.34-29.59,28.37-35l-15.23-26H10.17Z"/><path class="cls-30" d="M10.17,68.09H168.48c19.68,0,26.7-29.8,28.65-35l-15-26H10.17Z"/><path class="cls-31" d="M10.17,67.91H168c20.12,0,27.06-30,28.93-35l-14.85-26H10.17Z"/><path class="cls-32" d="M10.17,67.74H167.54c20.56,0,27.42-30.23,29.2-34.94l-14.66-26H10.17Z"/><path class="cls-33" d="M10.17,67.56H167.07c21,0,27.78-30.45,29.48-34.94l-14.47-26H10.17Z"/><path class="cls-34" d="M10.17,67.39H166.61c21.45,0,28.14-30.66,29.76-34.93l-14.28-26H10.17Z"/><path class="cls-35" d="M10.17,67.21h156c21.89,0,28.5-30.87,30-34.92l-14.09-26H10.17Z"/><path class="cls-36" d="M10.17,67H165.67C188,67,194.54,35.94,196,32.13l-13.89-26H10.17Z"/><path class="cls-37" d="M10.17,66.86h155c22.78,0,29.23-31.3,30.59-34.9l-13.7-26H10.17Z"/><path class="cls-38" d="M10.17,66.68H164.74c23.22,0,29.59-31.52,30.86-34.89l-13.51-26H10.17Z"/><path class="cls-39" d="M10.17,66.51h154.1c23.67,0,29.95-31.74,31.14-34.88l-13.32-26H10.17Z"/><path class="cls-40" d="M10.17,66.33H163.8c24.11,0,30.31-32,31.42-34.87l-13.13-26H10.17Z"/><path class="cls-41" d="M10.17,66.15H163.34C187.89,66.15,194,34,195,31.3l-12.94-26H10.17Z"/><path class="cls-42" d="M10.17,66h152.7c25,0,31-32.38,32-34.85l-12.75-26H10.17Z"/><path class="cls-43" d="M10.17,65.8H162.4c25.44,0,31.39-32.59,32.24-34.84l-12.56-26H10.17Z"/><path class="cls-44" d="M10.17,65.63H161.94c25.89,0,31.76-32.81,32.52-34.83l-12.37-26H10.17Z"/><path class="cls-45" d="M10.17,65.45h151.3c26.33,0,32.12-33,32.8-34.82l-12.18-26H10.17Z"/><path class="cls-46" d="M10.17,65.27H161c26.77,0,32.48-33.24,33.07-34.81l-12-26H10.17Z"/><path class="cls-47" d="M10.17,65.1H160.53c27.22,0,32.84-33.45,33.35-34.8l-11.8-26H10.17Z"/><path class="cls-48" d="M10.17,64.92h149.9c27.66,0,33.2-33.67,33.63-34.79l-11.61-26H10.17Z"/><path class="cls-49" d="M10.17,64.75H159.6c28.11,0,33.56-33.89,33.9-34.78L182.09,4H10.17Z"/><path class="cls-50" d="M10.17,64.57h149c28.55,0,33.93-34.1,34.18-34.77l-11.23-26H10.17Z"/><path class="cls-51" d="M10.17,64.39h148.5c29,0,34.29-34.31,34.46-34.76l-11-26H10.17Z"/><path class="cls-52" d="M10.17,64.22h148c29.44,0,34.65-34.53,34.73-34.75l-10.84-26H10.17Z"/><path class="cls-53" d="M10.17,64H157.73c29.88,0,35-34.74,35-34.74l-10.65-26H10.17Z"/><path class="cls-54" d="M0,77.82S0,64.44,19.38,64.44h160a4.25,4.25,0,0,0,3.82-2.4l13.47-28a4.24,4.24,0,0,0,0-3.68l-13.47-28A4.24,4.24,0,0,0,179.42,0h-160C0,0,0,13.39,0,13.39Z"/></g></g></svg>