<svg xmlns="http://www.w3.org/2000/svg" xmlns:xlink="http://www.w3.org/1999/xlink" viewBox="0 0 135.85 167"><defs><style>.cls-1{fill:url(#linear-gradient);}.cls-2{fill:url(#linear-gradient-2);}.cls-3{fill:url(#linear-gradient-3);}.cls-4{fill:url(#linear-gradient-4);}.cls-5{fill:url(#linear-gradient-5);}.cls-6{fill:url(#linear-gradient-6);}.cls-7{fill:url(#linear-gradient-7);}.cls-8{fill:url(#linear-gradient-8);}.cls-9{fill:url(#linear-gradient-9);}.cls-10{fill:url(#linear-gradient-10);}.cls-11{fill:url(#linear-gradient-11);}.cls-12{fill:#ba272d;}</style><linearGradient id="linear-gradient" x1="0.45" y1="30.33" x2="60.22" y2="30.33" gradientUnits="userSpaceOnUse"><stop offset="0" stop-color="#aa2928"/><stop offset="0.2" stop-color="#ba2b29"/><stop offset="0.51" stop-color="#d92e2a"/><stop offset="0.7" stop-color="#ca2c29"/><stop offset="1" stop-color="#aa2928"/></linearGradient><linearGradient id="linear-gradient-2" y1="40.67" x2="81.34" y2="40.67" gradientUnits="userSpaceOnUse"><stop offset="0" stop-color="#d42229"/><stop offset="0.21" stop-color="#dc3227"/><stop offset="0.51" stop-color="#ea4f24"/><stop offset="0.7" stop-color="#e34025"/><stop offset="1" stop-color="#d42128"/></linearGradient><linearGradient id="linear-gradient-3" x1="1.33" y1="49.55" x2="97.77" y2="49.55" xlink:href="#linear-gradient"/><linearGradient id="linear-gradient-4" x1="6.9" y1="59.12" x2="111.15" y2="59.12" xlink:href="#linear-gradient-2"/><linearGradient id="linear-gradient-5" x1="15.33" y1="69.61" x2="121.93" y2="69.61" xlink:href="#linear-gradient"/><linearGradient id="linear-gradient-6" x1="24.98" y1="81.07" x2="130.1" y2="81.07" xlink:href="#linear-gradient-2"/><linearGradient id="linear-gradient-7" x1="35.28" y1="93.53" x2="135.07" y2="93.53" xlink:href="#linear-gradient"/><linearGradient id="linear-gradient-8" x1="46.2" y1="107.44" x2="135.85" y2="107.44" xlink:href="#linear-gradient-2"/><linearGradient id="linear-gradient-9" x1="57.42" y1="123.45" x2="134.78" y2="123.45" xlink:href="#linear-gradient"/><linearGradient id="linear-gradient-10" x1="68.63" y1="126.9" x2="68.63" y2="12.32" gradientUnits="userSpaceOnUse"><stop offset="0" stop-color="#ca1f26"/><stop offset="1" stop-color="#a5171c"/></linearGradient><linearGradient id="linear-gradient-11" x1="68.63" y1="124.81" x2="68.63" y2="14.41" gradientUnits="userSpaceOnUse"><stop offset="0" stop-color="#f2f2f2"/><stop offset="1" stop-color="#fff"/></linearGradient></defs><title>Ресурс 31elements</title><g id="Слой_2" data-name="Слой 2"><g id="Layer_1" data-name="Layer 1"><path class="cls-1" d="M.45,60.21,60.22.45A67.93,67.93,0,0,0,.45,60.21Z"/><path class="cls-2" d="M67.92,0a68.6,68.6,0,0,0-7.71.45L.45,60.21a67.72,67.72,0,0,0,.88,21.12l80-80A68.17,68.17,0,0,0,67.92,0Z"/><path class="cls-3" d="M81.34,1.33l-80,80A67.34,67.34,0,0,0,6.9,97.77L97.77,6.9A67.36,67.36,0,0,0,81.34,1.33Z"/><path class="cls-4" d="M97.77,6.9,6.9,97.77a68,68,0,0,0,5.4,9.15h0s1,1.56,3,4.43l95.82-95.82A67.86,67.86,0,0,0,97.77,6.9Z"/><path class="cls-5" d="M111.15,15.53,15.33,111.34c2.06,2.86,5.21,7,9.65,12.35l96.95-97A68.27,68.27,0,0,0,111.15,15.53Z"/><path class="cls-6" d="M121.93,26.74,25,123.7q3,3.59,6.78,7.86c1.09,1.22,2.28,2.51,3.52,3.84L130.1,40.58A67.86,67.86,0,0,0,121.93,26.74Z"/><path class="cls-7" d="M130.1,40.58,35.28,135.4c3.32,3.54,7.12,7.36,10.91,11.09l88.88-88.87A67.48,67.48,0,0,0,130.1,40.58Z"/><path class="cls-8" d="M135.85,67.92a68.47,68.47,0,0,0-.78-10.31L46.2,146.49c3.91,3.84,7.82,7.57,11.22,10.78L134.78,79.9A68.24,68.24,0,0,0,135.85,67.92Z"/><path class="cls-9" d="M104.09,131.55c13.81-15.51,19.46-24.64,19.46-24.64h0a67.57,67.57,0,0,0,11.24-27L57.42,157.27c6,5.7,10.5,9.74,10.5,9.74S91.81,145.35,104.09,131.55Z"/><path class="cls-10" d="M68.63,126.9a57.29,57.29,0,1,1,57.29-57.29A57.35,57.35,0,0,1,68.63,126.9Z"/><circle class="cls-11" cx="68.63" cy="69.61" r="55.2"/><path class="cls-12" d="M47.36,48.88H37.16l-.57,4.05a11.41,11.41,0,0,1,1.7-.08,12,12,0,0,1,6.93,1.9,7.49,7.49,0,0,1,3.2,6.6c0,4.9-4.21,9.23-11.3,9.23a16.72,16.72,0,0,1-7.33-1.5l1.09-4.62a15.12,15.12,0,0,0,6,1.3c2.55,0,5.27-1.22,5.27-4S40,57.39,34.69,57.39a22.73,22.73,0,0,0-3.56.24l1.74-13.81h14.5Z"/><path class="cls-12" d="M71.7,56.86c0,8.14-3.28,13.73-10,13.73S51.89,64.47,51.85,57c0-7.61,3.24-13.65,10-13.65C68.95,43.37,71.7,49.65,71.7,56.86ZM58.05,57c0,6,1.42,8.91,3.81,8.91s3.69-3,3.69-9c0-5.83-1.25-8.91-3.73-8.91C59.55,48,58,50.91,58.05,57Z"/><path class="cls-12" d="M88.58,51.19c0,5.51-3.48,8.38-7.29,8.38-4,0-7.17-3-7.17-7.94,0-4.7,2.88-8.26,7.37-8.26S88.58,46.69,88.58,51.19Zm-9.88.28c0,2.75.93,4.74,2.71,4.74S84,54.43,84,51.47c0-2.67-.73-4.74-2.63-4.74S78.7,48.84,78.7,51.47Zm2.92,19.12L96.72,43.37H100L84.9,70.59Zm25.92-8.46c0,5.51-3.48,8.38-7.29,8.38-4,0-7.13-3-7.17-7.94,0-4.7,2.88-8.26,7.37-8.26S107.54,57.63,107.54,62.13Zm-9.84.28c0,2.75.89,4.74,2.67,4.74S103,65.37,103,62.41c0-2.67-.69-4.74-2.59-4.74S97.7,59.78,97.7,62.41Z"/><path class="cls-12" d="M27.61,80.76a28.94,28.94,0,0,1,4.39-.3c2.73,0,4.5.49,5.88,1.54a6.35,6.35,0,0,1,2.43,5.41,7.29,7.29,0,0,1-2.39,5.82c-1.51,1.26-3.82,1.85-6.63,1.85a28.34,28.34,0,0,1-3.69-.21Zm3.26,11.72a6,6,0,0,0,1.13.06c2.94,0,4.86-1.6,4.86-5,0-3-1.73-4.56-4.52-4.56a6.65,6.65,0,0,0-1.47.13Z"/><path class="cls-12" d="M45.78,81.61A1.63,1.63,0,0,1,44,83.23a1.63,1.63,0,1,1,0-3.26A1.63,1.63,0,0,1,45.78,81.61ZM42.43,94.94V84.51h3.24V94.94Z"/><path class="cls-12" d="M48.25,92.1a6.35,6.35,0,0,0,2.79.79c1,0,1.39-.34,1.39-.87s-.32-.79-1.53-1.19c-2.15-.73-3-1.9-3-3.13,0-1.94,1.66-3.41,4.24-3.41a7,7,0,0,1,2.94.6l-.58,2.24a5.11,5.11,0,0,0-2.26-.6c-.79,0-1.24.32-1.24.85s.41.75,1.68,1.19c2,.68,2.81,1.68,2.84,3.22,0,1.94-1.53,3.37-4.52,3.37a7.37,7.37,0,0,1-3.37-.72Z"/><path class="cls-12" d="M65.35,94.68a7.9,7.9,0,0,1-2.9.47c-3.37,0-5.52-2-5.52-5.33,0-3,2.09-5.54,6-5.54a7.51,7.51,0,0,1,2.47.4l-.51,2.41a4.46,4.46,0,0,0-1.81-.32,2.92,2.92,0,0,0,.06,5.84A5,5,0,0,0,65,92.29Z"/><path class="cls-12" d="M77.21,89.61a5.23,5.23,0,0,1-5.5,5.56,5.11,5.11,0,0,1-5.39-5.37,5.2,5.2,0,0,1,5.56-5.52A5.07,5.07,0,0,1,77.21,89.61Zm-7.55.11c0,1.79.75,3.13,2.13,3.13s2.07-1.26,2.07-3.13c0-1.56-.6-3.13-2.07-3.13S69.66,88.18,69.66,89.71Z"/><path class="cls-12" d="M89,91.59c0,1.36,0,2.47.08,3.35H86.32l-.15-1.47H86.1a3.72,3.72,0,0,1-3.26,1.71c-2.11,0-3.67-1.32-3.67-4.54V84.51h3.26v5.61c0,1.51.49,2.43,1.62,2.43a1.74,1.74,0,0,0,1.62-1.13,1.81,1.81,0,0,0,.11-.7v-6.2H89Z"/><path class="cls-12" d="M91.65,87.84c0-1.3,0-2.41-.09-3.33h2.81l.15,1.43h.06a3.82,3.82,0,0,1,3.22-1.66c2.13,0,3.73,1.41,3.73,4.48v6.18H98.3V89.16c0-1.34-.47-2.26-1.64-2.26A1.73,1.73,0,0,0,95,88.11a2.25,2.25,0,0,0-.13.81v6H91.65Z"/><path class="cls-12" d="M107.64,81.53v3H110V86.9h-2.32v3.77c0,1.26.3,1.83,1.28,1.83a5.37,5.37,0,0,0,1-.08l0,2.45a6.4,6.4,0,0,1-2.11.28,3.38,3.38,0,0,1-2.43-.89,4.32,4.32,0,0,1-.89-3.09V86.9h-1.39V84.51h1.39V82.25Z"/></g></g></svg>