<svg xmlns="http://www.w3.org/2000/svg" xmlns:xlink="http://www.w3.org/1999/xlink" viewBox="0 0 99.21 99.22"><defs><style>.cls-1{fill:#b3b3b3;}.cls-2{fill:#87171c;}.cls-3{fill:url(#radial-gradient);}.cls-4{fill:#fff;}</style><radialGradient id="radial-gradient" cx="382.14" cy="-236.68" r="49.55" gradientTransform="translate(-69.76 468.5) rotate(-45)" gradientUnits="userSpaceOnUse"><stop offset="0" stop-color="#e13126"/><stop offset="0.29" stop-color="#dc3026"/><stop offset="0.63" stop-color="#ce2c24"/><stop offset="0.98" stop-color="#b82522"/><stop offset="1" stop-color="#b62522"/></radialGradient></defs><title>Ресурс 8elements</title><g id="Слой_2" data-name="Слой 2"><g id="Layer_1" data-name="Layer 1"><path class="cls-1" d="M43.42,10.66l-32.76,33,0,28A312.44,312.44,0,0,1,39.25,39.25,313,313,0,0,1,71.67,10.69Z"/><path class="cls-2" d="M0,94.06c.52,7.17,10.66,4.77,10.66,4.77l0-36.29H0Z"/><path class="cls-2" d="M94.06,0c7.17.52,4.76,10.66,4.76,10.66l-36.28,0V0Z"/><path class="cls-3" d="M24.29,24.29A204.44,204.44,0,0,0,0,53.87V94.06c0-9.84,17.12-36.92,37.13-56.92S84.22,0,94.06,0H53.87A204.7,204.7,0,0,0,24.29,24.29Z"/><path class="cls-4" d="M18.12,51.51a8.63,8.63,0,0,0,3.1-2.31c1-1.2,1-2.24.26-2.86s-1.58-.38-3.22.6c-2.25,1.37-4.34,1.75-6,.37-2-1.62-2.13-4.51.12-7.23a9.16,9.16,0,0,1,3-2.47L17,39.92a7.14,7.14,0,0,0-2.54,2c-.93,1.13-.87,2.1-.27,2.6s1.6.22,3.39-.8c2.43-1.42,4.28-1.5,5.91-.17,1.94,1.59,2.36,4.44-.25,7.61a9.76,9.76,0,0,1-3.4,2.7Z"/><path class="cls-4" d="M27.8,39.59,29.88,43l-2.4,2.56L19.68,32l3-3.24,14.1,6.84-2.49,2.66-3.59-1.78Zm.75-4.5-3-1.49c-.83-.41-1.82-1-2.62-1.42l0,0c.5.77,1.17,1.7,1.64,2.47l1.71,2.82Z"/><path class="cls-4" d="M28,23.44l2.49-2.31L38.69,30,43,26,45,28l-6.85,6.36Z"/><path class="cls-4" d="M49.17,16.33l-4.24,3.51,2.27,2.74,4.74-3.93,1.77,2.14-7.36,6.09L36.8,15.35l7.12-5.89,1.77,2.14-4.5,3.73,2,2.4,4.24-3.51Z"/></g></g></svg>