<svg xmlns="http://www.w3.org/2000/svg" xmlns:xlink="http://www.w3.org/1999/xlink" viewBox="0 0 90.18 100.11"><defs><style>.cls-1{fill:#87171c;}.cls-2{fill:url(#linear-gradient);}</style><linearGradient id="linear-gradient" x1="49.31" y1="100.11" x2="49.31" gradientUnits="userSpaceOnUse"><stop offset="0" stop-color="#d42027"/><stop offset="0.76" stop-color="#d42027"/><stop offset="0.87" stop-color="#db4248"/><stop offset="0.95" stop-color="#d42027"/><stop offset="1" stop-color="#8b2027"/><stop offset="1" stop-color="#8a2027"/></linearGradient></defs><title>Ресурс 12elements</title><g id="Слой_2" data-name="Слой 2"><g id="Layer_1" data-name="Layer 1"><path class="cls-1" d="M8.44,0S1.77-.44,0,10.17H18S18.34,0,8.44,0Z"/><path class="cls-2" d="M86.24,10.17C83-.07,77.8,0,77.8,0H8.44s5.16-.08,8.44,10.17c3.23,10.08,8,44.46,1.11,89.94a129.38,129.38,0,0,0,17-7.6c8.43-4.53,14.56-9.05,18.06-9.05,3.14,0,8.6,4.21,16.16,9a69.22,69.22,0,0,0,16.44,7.65C93.47,65.59,89.43,20.14,86.24,10.17Z"/></g></g></svg>