<svg xmlns="http://www.w3.org/2000/svg" xmlns:xlink="http://www.w3.org/1999/xlink" viewBox="0 0 99.23 99.22"><defs><style>.cls-1{fill:#b3b3b3;}.cls-2{fill:#87171c;}.cls-3{fill:url(#radial-gradient);}.cls-4{fill:#fff;}</style><radialGradient id="radial-gradient" cx="271.82" cy="-144.47" r="56.12" gradientTransform="translate(-71.71 310.54) rotate(-45)" gradientUnits="userSpaceOnUse"><stop offset="0" stop-color="#e13126"/><stop offset="0.29" stop-color="#dc3026"/><stop offset="0.63" stop-color="#ce2c24"/><stop offset="0.98" stop-color="#b82522"/><stop offset="1" stop-color="#b62522"/></radialGradient></defs><title>Ресурс 9elements</title><g id="Слой_2" data-name="Слой 2"><g id="Layer_1" data-name="Layer 1"><path class="cls-1" d="M14.11,10.63a3.45,3.45,0,0,0-2.45,1h0a3.45,3.45,0,0,0-1,2.45l.06,57.58A312.64,312.64,0,0,1,39.26,39.26,312.77,312.77,0,0,1,71.69,10.7Z"/><path class="cls-2" d="M0,94.07c.51,7.17,10.66,4.76,10.66,4.76l0-36.28H0Z"/><path class="cls-2" d="M94.07,0c7.17.52,4.76,10.66,4.76,10.66l-36.28,0V0Z"/><path class="cls-3" d="M6.67,0A6.66,6.66,0,0,0,0,6.67l0,87.4c0-9.84,17.12-36.92,37.13-56.93S84.23,0,94.07,0Z"/><path class="cls-4" d="M16.55,47.86,5.12,38.18l2.55-3,6.2,1.17a43.42,43.42,0,0,1,5.5,1.45l0,0a56,56,0,0,1-5-3.81l-3.34-2.83,2-2.38,11.43,9.67L22.27,41.1l-6.48-1.29a56,56,0,0,1-5.71-1.43l0,.07c1.57,1.21,3.21,2.54,5.07,4.12l3.44,2.91Z"/><path class="cls-4" d="M28.07,25.62l-3.84,4L26.78,32l4.29-4.42,2,1.93-6.65,6.86L15.66,26l6.44-6.63,2,1.93L20,25.48l2.23,2.17,3.84-4Z"/><path class="cls-4" d="M36.37,26.41l-12.52-9,2.73-2.38L31.5,19c1.42,1.12,2.92,2.37,4.1,3.35l0,0c-.88-1.39-1.79-3-2.72-4.61l-3.07-5.46,2.72-2.36,5,4C39,15,40.24,16,41.5,17.11l0,0c-.93-1.4-1.83-2.95-2.76-4.49L35.67,7.16l2.6-2.26,6.91,13.84-2.76,2.41-5.19-4c-1.21-1-2.31-1.85-3.57-3l0,0c.91,1.45,1.66,2.68,2.38,4.05L39.17,24Z"/></g></g></svg>