<svg xmlns="http://www.w3.org/2000/svg" xmlns:xlink="http://www.w3.org/1999/xlink" viewBox="0 0 120.94 120.89"><defs><style>.cls-1{fill:#87171c;}.cls-2{fill:#b3b3b3;}.cls-3{fill:url(#linear-gradient);}</style><linearGradient id="linear-gradient" x1="-20.69" y1="66.13" x2="94.42" y2="66.13" gradientTransform="translate(20.69 -8.57)" gradientUnits="userSpaceOnUse"><stop offset="0" stop-color="#a5171c"/><stop offset="0" stop-color="#a7171d"/><stop offset="0.03" stop-color="#bb1c22"/><stop offset="0.06" stop-color="#c61e25"/><stop offset="0.09" stop-color="#ca1f26"/><stop offset="1" stop-color="#ca1f26"/></linearGradient></defs><title>Ресурс 10elements</title><g id="Слой_2" data-name="Слой 2"><g id="Layer_1" data-name="Layer 1"><path class="cls-1" d="M0,111.66c0,8.82,10.67,9.23,10.67,9.23V90H0Z"/><path class="cls-1" d="M111.71,0c8.82,0,9.23,10.68,9.23,10.68H90V0Z"/><path class="cls-2" d="M102.19,10.68,4.8,1.23a3.57,3.57,0,0,0-2.52,1h0a3.56,3.56,0,0,0-1,2.52l9.44,97.39c5.09-4.09,33.54-30.65,47.2-44.31S98.1,15.77,102.19,10.68ZM12.63,39.44,12.3,12.11l27.14.52L26,26h0Z"/><path class="cls-3" d="M115.11.65C112.45,0,111,.74,110,1.7L1.69,110c-1,1-1.64,2.45-1,5.1A8.62,8.62,0,0,1,0,111.7H0V3.57A3.57,3.57,0,0,1,3.57,0H111.7A8.62,8.62,0,0,1,115.11.65ZM39.52,10.08H10.08V39.52Z"/></g></g></svg>