<svg xmlns="http://www.w3.org/2000/svg" xmlns:xlink="http://www.w3.org/1999/xlink" viewBox="0 0 77.8 102.98"><defs><style>.cls-1{fill:#e6e6e6;}.cls-2{fill:url(#linear-gradient);}.cls-3{fill:none;}.cls-4{fill:url(#linear-gradient-2);}.cls-5{fill:url(#linear-gradient-3);}.cls-6{fill:url(#linear-gradient-4);}</style><linearGradient id="linear-gradient" x1="38.9" y1="2.17" x2="38.9" gradientUnits="userSpaceOnUse"><stop offset="0" stop-color="#0f3164"/><stop offset="1" stop-color="#000d2b"/></linearGradient><linearGradient id="linear-gradient-2" x1="0.12" y1="13.72" x2="0.12" y2="13.72" gradientUnits="userSpaceOnUse"><stop offset="0" stop-color="#285fac"/><stop offset="0.5" stop-color="#285fac"/><stop offset="0.76" stop-color="#4a91de"/><stop offset="0.89" stop-color="#285fac"/><stop offset="0.97" stop-color="#0f3164"/></linearGradient><linearGradient id="linear-gradient-3" x1="77.68" y1="13.72" x2="77.68" y2="13.72" xlink:href="#linear-gradient-2"/><linearGradient id="linear-gradient-4" x1="38.9" y1="102.25" x2="38.9" y2="2.17" gradientUnits="userSpaceOnUse"><stop offset="0" stop-color="#285fac"/><stop offset="0.78" stop-color="#285fac"/><stop offset="0.89" stop-color="#3877c4"/><stop offset="0.95" stop-color="#285fac"/><stop offset="1" stop-color="#0f3164"/></linearGradient></defs><title>Ресурс 17elements</title><g id="Слой_2" data-name="Слой 2"><g id="Layer_1" data-name="Layer 1"><path class="cls-1" d="M38.9,2.17H.24c1.19,0,1.87,7.27,2.61,16.29.87,10.72,1.72,53.3.71,84.52a102.72,102.72,0,0,0,15.54-7.07C26.88,91.49,38.9,84.24,38.9,84.24s12,7.25,19.8,11.67A102.87,102.87,0,0,0,74.24,103C71.42,74,72.14,30.77,73,20.06c.74-9,3.36-17.85,4.55-17.89Z"/><rect class="cls-2" width="77.8" height="2.17"/><path class="cls-3" d="M38.9,11.55Z"/><path class="cls-4" d="M0,13.72H0Z"/><path class="cls-5" d="M77.56,13.72h0Z"/><path class="cls-6" d="M77.56,2.17H.24c1.19,0,6.63.74,8.21,10.17,1.77,10.61,3.85,58.22-4.14,89.91a118.34,118.34,0,0,0,14.79-7.07C26.88,90.75,38.9,83.5,38.9,83.5s12,7.25,19.8,11.67a118.57,118.57,0,0,0,14.79,7.07c-8-31.69-5.91-79.3-4.13-89.91C70.93,2.91,76.37,2.21,77.56,2.17Z"/></g></g></svg>