<svg xmlns="http://www.w3.org/2000/svg" xmlns:xlink="http://www.w3.org/1999/xlink" viewBox="0 0 121.55 371.4"><defs><style>.cls-1{fill:#e13126;}.cls-2{fill:#fff;}.cls-3{fill:#4d4d4d;}.cls-4{fill:url(#radial-gradient);}.cls-5{fill:url(#linear-gradient);}.cls-6{fill:#666;}.cls-7{fill:#61533c;}.cls-8{fill:url(#linear-gradient-2);}.cls-9{fill:#f2f2f2;}.cls-10{fill:url(#linear-gradient-3);}</style><radialGradient id="radial-gradient" cx="61.09" cy="133.68" r="11.55" gradientUnits="userSpaceOnUse"><stop offset="0" stop-color="#5d513b"/><stop offset="0.26" stop-color="#7b6a4f"/><stop offset="0.54" stop-color="#958061"/><stop offset="0.8" stop-color="#a58d6b"/><stop offset="1" stop-color="#ab926f"/></radialGradient><linearGradient id="linear-gradient" x1="50.21" y1="133.68" x2="71.97" y2="133.68" gradientUnits="userSpaceOnUse"><stop offset="0" stop-color="#e5d9c5"/><stop offset="0.05" stop-color="#dbcdb7"/><stop offset="0.17" stop-color="#c2b195"/><stop offset="0.29" stop-color="#b19c7d"/><stop offset="0.39" stop-color="#a7906f"/><stop offset="0.48" stop-color="#a38c6a"/><stop offset="0.63" stop-color="#a58e6d"/><stop offset="0.73" stop-color="#ac9676"/><stop offset="0.82" stop-color="#b7a385"/><stop offset="0.9" stop-color="#c6b59b"/><stop offset="0.97" stop-color="#dacdb6"/><stop offset="1" stop-color="#e5d9c5"/></linearGradient><linearGradient id="linear-gradient-2" x1="54.63" y1="67.81" x2="62.09" y2="67.81" gradientUnits="userSpaceOnUse"><stop offset="0" stop-color="#847155"/><stop offset="0.5" stop-color="#d4c6ae"/><stop offset="1" stop-color="#847155"/></linearGradient><linearGradient id="linear-gradient-3" x1="58.36" y1="73.92" x2="58.36" y2="61.7" gradientUnits="userSpaceOnUse"><stop offset="0" stop-color="#7c6b50"/><stop offset="0.39" stop-color="#7a694e"/><stop offset="0.59" stop-color="#726249"/><stop offset="0.76" stop-color="#64563f"/><stop offset="0.9" stop-color="#514631"/><stop offset="1" stop-color="#3e3523"/></linearGradient></defs><title>Ресурс 39elements</title><g id="Слой_2" data-name="Слой 2"><g id="Layer_1" data-name="Layer 1"><path class="cls-1" d="M121.55,165V371.4H0V165l56.69-56.69a5.77,5.77,0,0,1,8.17,0ZM60.77,125.88a7.89,7.89,0,1,0,7.89,7.89A7.89,7.89,0,0,0,60.77,125.88Z"/><circle class="cls-2" cx="61.38" cy="133.9" r="6.54"/><path class="cls-3" d="M61.09,146A11.87,11.87,0,1,1,73,134.1,11.89,11.89,0,0,1,61.09,146Zm0-18.19a6.31,6.31,0,1,0,6.31,6.31,6.32,6.32,0,0,0-6.31-6.31Z"/><path class="cls-4" d="M61.09,126.89a6.79,6.79,0,1,0,6.79,6.78A6.78,6.78,0,0,0,61.09,126.89Zm11.55,6.78a11.55,11.55,0,1,1-11.55-11.55A11.55,11.55,0,0,1,72.64,133.68Z"/><path class="cls-5" d="M72,133.68A10.88,10.88,0,1,1,61.09,122.8,10.88,10.88,0,0,1,72,133.68Zm-10.88-8.62a8.62,8.62,0,1,0,8.62,8.62A8.62,8.62,0,0,0,61.09,125.05Z"/><path class="cls-6" d="M64.68,108.23c-.33-1.13-1.43-6.85-2.17-10.31C60.46,88.43,57,79,57,71.65a1.4,1.4,0,0,1,2.8,0c0,6.93,3,16.28,5.43,25.48,1.39,5.36,2.54,13,3,14.51Z"/><path class="cls-6" d="M56.78,129.44a9.33,9.33,0,0,1-3-2.59c-4.73-6.43-2.31-19.52.26-33.38C55.49,85.79,57,77.84,57,71.65a1.4,1.4,0,0,1,2.8,0c0,6.45-1.5,14.52-2.94,22.33-2.34,12.66-4.77,25.76-.75,31.21a6.58,6.58,0,0,0,4.25,2.63,6.29,6.29,0,0,1,3.72.72C63.27,131.12,58.82,130.6,56.78,129.44Z"/><path class="cls-6" d="M59.76,65.71H57c0-6.36-2-15.22-4-24.61C49.53,25.64,46,9.65,51.27,3.1A8.61,8.61,0,0,1,58.36,0a8.6,8.6,0,0,1,7.09,3.1c5.27,6.55,1.74,22.54-1.67,38-2.07,9.38-4,18.25-4,24.61ZM58.36,2.79a5.89,5.89,0,0,0-4.91,2.05c-4.43,5.51-.9,21.53,2.22,35.66,1,4.48,1.95,8.84,2.69,12.89.74-4.06,1.7-8.42,2.69-12.89,3.11-14.13,6.65-30.15,2.22-35.66a5.89,5.89,0,0,0-4.91-2.05Z"/><path class="cls-7" d="M62.16,73.6a1.47,1.47,0,0,1-1.47,1.47H56a1.47,1.47,0,0,1-1.47-1.47V62A1.47,1.47,0,0,1,56,60.55h4.66A1.47,1.47,0,0,1,62.16,62Z"/><path class="cls-8" d="M56.07,60.62h4.57a1.45,1.45,0,0,1,1.45,1.45V73.56A1.44,1.44,0,0,1,60.65,75H56.07a1.44,1.44,0,0,1-1.44-1.44V62.07A1.44,1.44,0,0,1,56.07,60.62Z"/><path d="M60.82,72.88a1,1,0,0,1-1,1h-3a1,1,0,0,1-.95-1V62.57a1,1,0,0,1,.95-1h3a1,1,0,0,1,1,1Z"/><path class="cls-9" d="M60.82,73a1,1,0,0,1-1,1h-3a1,1,0,0,1-.95-1V62.72a1,1,0,0,1,.95-1h3a1,1,0,0,1,1,1Z"/><path class="cls-10" d="M60.82,73a1,1,0,0,1-1,1h-3a1,1,0,0,1-.95-1V62.66a1,1,0,0,1,.95-1h3a1,1,0,0,1,1,1Z"/><rect class="cls-6" y="316.31" width="121.55" height="55.09"/><rect class="cls-2" x="9.76" y="316.31" width="1.34" height="43.11"/><rect class="cls-2" x="12.35" y="316.31" width="1.34" height="43.11" transform="translate(-0.73 0.03) rotate(-0.12)"/><rect class="cls-2" x="14.94" y="316.31" width="1.33" height="34.76"/><rect class="cls-2" x="23.72" y="316.31" width="1.34" height="34.76"/><rect class="cls-2" x="17.53" y="316.31" width="4.07" height="34.61"/><rect class="cls-2" x="54.91" y="316.31" width="4.07" height="34.61"/><rect class="cls-2" x="26.06" y="316.31" width="3.48" height="34.61"/><rect class="cls-2" x="30.66" y="316.31" width="3.48" height="34.61"/><rect class="cls-2" x="39.78" y="316.31" width="2.98" height="34.61"/><rect class="cls-2" x="70.54" y="316.31" width="2.98" height="34.61"/><rect class="cls-2" x="19.15" y="332.5" width="34.61" height="2.23" transform="translate(-297.2 369.64) rotate(-89.93)"/><rect class="cls-2" x="58.78" y="332.5" width="34.61" height="2.23" transform="translate(-257.62 409.27) rotate(-89.93)"/><rect class="cls-2" x="78.23" y="316.31" width="2.23" height="34.61" transform="translate(-0.43 0.1) rotate(-0.07)"/><polygon class="cls-2" points="83.08 350.92 85.31 350.92 85.31 316.31 83.09 316.31 83.08 350.92"/><polygon class="cls-2" points="87.43 350.92 89.66 350.92 89.66 316.31 87.44 316.31 87.43 350.92"/><rect class="cls-2" x="90.95" y="316.31" width="2.23" height="34.61"/><rect class="cls-2" x="95.38" y="316.31" width="2.23" height="34.61"/><polygon class="cls-2" points="60.17 351.07 61.51 351.07 61.51 316.31 60.18 316.31 60.17 351.07"/><polygon class="cls-2" points="62.77 359.11 64.11 359.11 64.11 316.31 62.77 316.31 62.77 359.11"/><rect class="cls-2" x="44.63" y="337.04" width="42.8" height="1.34" transform="translate(-271.92 402.5) rotate(-89.79)"/><rect class="cls-2" x="67.95" y="316.31" width="1.34" height="34.76"/><polygon class="cls-2" points="104.32 351.07 105.66 351.07 105.66 316.31 104.32 316.31 104.32 351.07"/><rect class="cls-2" x="98.8" y="316.31" width="1.34" height="34.76"/><rect class="cls-2" x="109.92" y="316.31" width="1.34" height="34.76"/><polygon class="cls-2" points="106.91 351.07 108.25 351.07 108.25 316.31 106.91 316.31 106.91 351.07"/><rect class="cls-2" x="114.27" y="316.31" width="1.34" height="43.11" transform="translate(-0.76 0.26) rotate(-0.13)"/><rect class="cls-2" x="116.86" y="316.31" width="1.34" height="43.11" transform="translate(-0.73 0.26) rotate(-0.12)"/><rect class="cls-2" x="44.38" y="316.31" width="1.33" height="34.61"/><polygon class="cls-2" points="46.97 350.92 48.3 350.92 48.3 316.31 46.97 316.31 46.97 350.92"/><polygon class="cls-2" points="52.06 350.92 53.4 350.92 53.4 316.31 52.06 316.31 52.06 350.92"/><polygon class="cls-2" points="3.98 356.03 4.23 356.98 5.84 356.12 5.88 356.12 5.88 364.19 7.09 364.2 7.09 354.95 6.02 354.95 3.98 356.03"/><path class="cls-2" d="M17.9,363.13l.73-.68c2-1.88,3.2-3.27,3.21-5A2.61,2.61,0,0,0,19,354.79a4.16,4.16,0,0,0-2.62.94l.4.89a3.15,3.15,0,0,1,2-.78,1.64,1.64,0,0,1,1.83,1.8c0,1.39-1.08,2.6-3.46,4.83l-1,1v.77h5.94v-1H17.91Z"/><path class="cls-2" d="M27.16,359.22v0A2.31,2.31,0,0,0,28.88,357c0-1.13-.83-2.2-2.66-2.21a4.48,4.48,0,0,0-2.44.72l.34.91a3.44,3.44,0,0,1,1.86-.61c1.16,0,1.63.65,1.63,1.39,0,1.09-1.15,1.56-2.07,1.56h-.7v.95h.7c1.21,0,2.39.56,2.4,1.86,0,.78-.49,1.79-2.1,1.79a4.32,4.32,0,0,1-2.05-.58l-.35,1a4.77,4.77,0,0,0,2.42.62c2.21,0,3.39-1.29,3.39-2.77A2.42,2.42,0,0,0,27.16,359.22Z"/><path class="cls-2" d="M35.89,355H34.53l-4.15,5.9v.81H34.7v2.53h1.19v-2.54h1.3v-1h-1.3Zm-1.18,2.65v3.09h-3v0l2.28-3.15c.26-.42.49-.82.77-1.37h0C34.72,356.64,34.7,357.13,34.7,357.61Z"/><path class="cls-2" d="M42.56,358.83a3.76,3.76,0,0,0-2-.5,7.13,7.13,0,0,0-.76,0l.36-2.37H43.7v-1H39.25l-.6,4.43c.34,0,.76-.08,1.3-.08,1.85,0,2.67.84,2.67,2a2,2,0,0,1-2.19,2,4.24,4.24,0,0,1-2-.51l-.31.95a4.67,4.67,0,0,0,2.32.57,3.22,3.22,0,0,0,3.46-3.16A2.6,2.6,0,0,0,42.56,358.83Z"/><path class="cls-2" d="M48.91,358.09a2.79,2.79,0,0,0-2.26,1.08h0a3.71,3.71,0,0,1,3.24-3.27,4.55,4.55,0,0,1,.94-.07v-1a5.3,5.3,0,0,0-.91.07,5.07,5.07,0,0,0-3,1.36,5.71,5.71,0,0,0-1.57,4.17c0,2.4,1.3,3.94,3.28,3.94a3.1,3.1,0,0,0,3.1-3.27A2.76,2.76,0,0,0,48.91,358.09Zm-.27,5.29c-1.33,0-2-1.14-2.06-2.66a1.2,1.2,0,0,1,.13-.55A2.08,2.08,0,0,1,48.53,359a1.89,1.89,0,0,1,1.91,2.13C50.44,362.49,49.71,363.39,48.64,363.39Z"/><polygon class="cls-2" points="53.01 355.99 57.55 355.99 57.55 356.02 53.52 364.19 54.82 364.2 58.87 355.77 58.87 354.95 53.01 354.95 53.01 355.99"/><path class="cls-2" d="M73.15,359.27v0a2.35,2.35,0,0,0,1.54-2.17c0-1.16-.91-2.27-2.72-2.28a2.61,2.61,0,0,0-2.89,2.46,2.29,2.29,0,0,0,1.49,2.08l0,0a2.67,2.67,0,0,0-1.85,2.49c0,1.35,1.18,2.48,3.12,2.48,1.78,0,3.16-1.07,3.16-2.68A2.59,2.59,0,0,0,73.15,359.27Zm-2.86-2.1a1.47,1.47,0,0,1,1.62-1.48,1.45,1.45,0,0,1,1.57,1.51,1.83,1.83,0,0,1-1.42,1.68C71,358.59,70.27,358.09,70.29,357.17Zm1.6,6.27A1.71,1.71,0,0,1,70,361.69a2,2,0,0,1,1.68-1.92c1.25.35,2,.91,2,2A1.67,1.67,0,0,1,71.89,363.44Z"/><path class="cls-2" d="M79.32,354.79a3.18,3.18,0,0,0-3.18,3.29,2.68,2.68,0,0,0,2.73,2.83,2.75,2.75,0,0,0,2.21-1h0a4,4,0,0,1-1.23,2.44,3.42,3.42,0,0,1-1.94.9,5.18,5.18,0,0,1-1,0v1a5.78,5.78,0,0,0,1.16-.07,4.57,4.57,0,0,0,2.7-1.23,5.78,5.78,0,0,0,1.6-4.32C82.39,356.32,81.22,354.79,79.32,354.79ZM81,359a2.08,2.08,0,0,1-1.83,1,1.79,1.79,0,0,1-1.79-2c0-1.32.76-2.26,1.82-2.26,1.33,0,1.91,1.21,1.92,2.79A.86.86,0,0,1,81,359Z"/><path class="cls-2" d="M86.66,354.79c-1.89,0-3.25,1.69-3.25,4.81s1.27,4.75,3.09,4.75c2,0,3.23-1.73,3.23-4.88C89.73,356.53,88.6,354.79,86.66,354.79Zm-.09,8.6c-1.14,0-1.89-1.37-1.89-3.78s.8-3.85,1.89-3.85c1.32,0,1.89,1.49,1.89,3.77S87.84,363.39,86.57,363.39Z"/><path class="cls-2" d="M94,354.8c-1.89,0-3.25,1.69-3.25,4.8s1.27,4.75,3.09,4.76c2,0,3.23-1.73,3.23-4.88C97.07,356.53,95.94,354.79,94,354.8Zm-.08,8.59c-1.15,0-1.89-1.36-1.89-3.78s.8-3.85,1.89-3.86c1.32,0,1.89,1.5,1.89,3.77S95.18,363.39,93.91,363.39Z"/><path class="cls-2" d="M101.34,354.79c-1.88,0-3.24,1.69-3.25,4.81s1.28,4.75,3.09,4.75c2,0,3.23-1.73,3.23-4.88C104.42,356.53,103.29,354.79,101.34,354.79Zm-.08,8.59c-1.14,0-1.89-1.36-1.89-3.77s.81-3.85,1.89-3.85c1.31,0,1.89,1.49,1.89,3.77S102.52,363.39,101.25,363.39Z"/><path class="cls-2" d="M108.68,354.79c-1.89,0-3.24,1.7-3.24,4.81s1.27,4.75,3.08,4.76c2,0,3.23-1.73,3.23-4.88C111.75,356.53,110.62,354.8,108.68,354.79Zm-.09,8.6c-1.14,0-1.89-1.36-1.89-3.77s.8-3.85,1.89-3.85c1.32,0,1.89,1.49,1.89,3.77S109.86,363.38,108.59,363.39Z"/></g></g></svg>