<svg xmlns="http://www.w3.org/2000/svg" xmlns:xlink="http://www.w3.org/1999/xlink" viewBox="0 0 120.94 120.9"><defs><style>.cls-1{fill:#87171c;}.cls-2{fill:url(#linear-gradient);}</style><linearGradient id="linear-gradient" y1="57.56" x2="115.12" y2="57.56" gradientUnits="userSpaceOnUse"><stop offset="0" stop-color="#a5171c"/><stop offset="0" stop-color="#a7171d"/><stop offset="0.03" stop-color="#bb1c22"/><stop offset="0.06" stop-color="#c61e25"/><stop offset="0.09" stop-color="#ca1f26"/><stop offset="1" stop-color="#ca1f26"/></linearGradient></defs><title>Ресурс 7elements</title><g id="Слой_2" data-name="Слой 2"><g id="Layer_1" data-name="Layer 1"><path class="cls-1" d="M0,111.66c0,8.82,10.68,9.23,10.68,9.23V90H0Z"/><path class="cls-1" d="M111.7,0c8.82,0,9.23,10.68,9.23,10.68H90V0Z"/><path class="cls-2" d="M111.51,0H84.14a9.14,9.14,0,0,0-6.46,2.68l-75,75A9.15,9.15,0,0,0,0,84.14V111.7H0a8.62,8.62,0,0,0,.65,3.41C0,112.42.76,111,1.75,110L109.87,1.84h0c1-1,2.47-1.83,5.26-1.2A8.6,8.6,0,0,0,111.51,0Z"/></g></g></svg>