<svg xmlns="http://www.w3.org/2000/svg" xmlns:xlink="http://www.w3.org/1999/xlink" viewBox="0 0 223.96 173.88"><defs><style>.cls-1{fill:#fff;}.cls-2{fill:#fefefe;}.cls-3{fill:#fdfdfd;}.cls-4{fill:#fcfcfc;}.cls-5{fill:#fbfbfb;}.cls-6{fill:#fafafa;}.cls-7{fill:#f9f9f9;}.cls-8{fill:#f8f8f8;}.cls-9{fill:#f7f7f7;}.cls-10{fill:#f6f6f6;}.cls-11{fill:#f5f5f5;}.cls-12{fill:#f4f4f4;}.cls-13{fill:#f3f3f3;}.cls-14{fill:#f2f2f2;}.cls-15{fill:#f1f1f1;}.cls-16{fill:#f0f0f0;}.cls-17{fill:#efefef;}.cls-18{fill:#eee;}.cls-19{fill:#ededed;}.cls-20{fill:#ececec;}.cls-21{fill:#ebebeb;}.cls-22{fill:#eaeaea;}.cls-23{fill:#e9e9e9;}.cls-24{fill:#e8e8e8;}.cls-25{fill:#e7e7e7;}.cls-26{fill:#e6e6e6;}.cls-27{fill:#e5e5e5;}.cls-28{fill:#e4e4e4;}.cls-29{fill:#e3e3e3;}.cls-30{fill:#e2e2e2;}.cls-31{fill:#e1e1e1;}.cls-32{fill:#e0e0e0;}.cls-33{fill:#dfdfdf;}.cls-34{fill:#dedede;}.cls-35{fill:#ddd;}.cls-36{fill:#dcdcdc;}.cls-37{fill:#dbdbdb;}.cls-38{fill:#dadada;}.cls-39{fill:#d9d9d9;}.cls-40{fill:#d8d8d8;}.cls-41{fill:#d7d7d7;}.cls-42{fill:#d6d6d6;}.cls-43{fill:#d5d5d5;}.cls-44{fill:#d4d4d4;}.cls-45{fill:#d3d3d3;}.cls-46{fill:#d2d2d2;}.cls-47{fill:#d1d1d1;}.cls-48{fill:#d0d0d0;}.cls-49{fill:#cfcfcf;}.cls-50{fill:#cecece;}.cls-51{fill:#cdcdcd;}.cls-52{fill:#ccc;}.cls-53{fill:#999;}.cls-54{fill:url(#radial-gradient);}</style><radialGradient id="radial-gradient" cx="138.36" cy="36.47" r="77.35" gradientUnits="userSpaceOnUse"><stop offset="0" stop-color="#fbb03b"/><stop offset="0.36" stop-color="#f8ab3a"/><stop offset="0.76" stop-color="#f09d39"/><stop offset="1" stop-color="#e99237"/></radialGradient></defs><title>Ресурс 3elements</title><g id="Слой_2" data-name="Слой 2"><g id="Layer_1" data-name="Layer 1"><ellipse class="cls-1" cx="52.76" cy="164.71" rx="52.76" ry="9.17"/><ellipse class="cls-2" cx="52.76" cy="164.71" rx="51.85" ry="9.01"/><ellipse class="cls-3" cx="52.76" cy="164.71" rx="50.93" ry="8.85"/><ellipse class="cls-4" cx="52.76" cy="164.71" rx="50.02" ry="8.69"/><ellipse class="cls-5" cx="52.76" cy="164.71" rx="49.11" ry="8.53"/><ellipse class="cls-6" cx="52.76" cy="164.71" rx="48.19" ry="8.38"/><ellipse class="cls-7" cx="52.76" cy="164.71" rx="47.28" ry="8.22"/><ellipse class="cls-8" cx="52.76" cy="164.71" rx="46.37" ry="8.06"/><ellipse class="cls-9" cx="52.76" cy="164.71" rx="45.45" ry="7.9"/><ellipse class="cls-10" cx="52.76" cy="164.71" rx="44.54" ry="7.74"/><ellipse class="cls-11" cx="52.76" cy="164.71" rx="43.63" ry="7.58"/><ellipse class="cls-12" cx="52.76" cy="164.71" rx="42.71" ry="7.42"/><ellipse class="cls-13" cx="52.76" cy="164.71" rx="41.8" ry="7.26"/><ellipse class="cls-14" cx="52.76" cy="164.71" rx="40.89" ry="7.11"/><ellipse class="cls-15" cx="52.76" cy="164.71" rx="39.97" ry="6.95"/><ellipse class="cls-16" cx="52.76" cy="164.71" rx="39.06" ry="6.79"/><ellipse class="cls-17" cx="52.76" cy="164.71" rx="38.15" ry="6.63"/><ellipse class="cls-18" cx="52.76" cy="164.71" rx="37.24" ry="6.47"/><ellipse class="cls-19" cx="52.76" cy="164.71" rx="36.32" ry="6.31"/><ellipse class="cls-20" cx="52.76" cy="164.71" rx="35.41" ry="6.15"/><ellipse class="cls-21" cx="52.76" cy="164.71" rx="34.5" ry="5.99"/><ellipse class="cls-22" cx="52.76" cy="164.71" rx="33.58" ry="5.84"/><ellipse class="cls-23" cx="52.76" cy="164.71" rx="32.67" ry="5.68"/><ellipse class="cls-24" cx="52.76" cy="164.71" rx="31.76" ry="5.52"/><ellipse class="cls-25" cx="52.76" cy="164.71" rx="30.84" ry="5.36"/><ellipse class="cls-26" cx="52.76" cy="164.71" rx="29.93" ry="5.2"/><ellipse class="cls-27" cx="52.76" cy="164.71" rx="29.02" ry="5.04"/><ellipse class="cls-28" cx="52.76" cy="164.71" rx="28.1" ry="4.88"/><ellipse class="cls-29" cx="52.76" cy="164.71" rx="27.19" ry="4.73"/><ellipse class="cls-30" cx="52.76" cy="164.71" rx="26.28" ry="4.57"/><ellipse class="cls-31" cx="52.76" cy="164.71" rx="25.36" ry="4.41"/><ellipse class="cls-32" cx="52.76" cy="164.71" rx="24.45" ry="4.25"/><ellipse class="cls-33" cx="52.76" cy="164.71" rx="23.54" ry="4.09"/><ellipse class="cls-34" cx="52.76" cy="164.71" rx="22.62" ry="3.93"/><ellipse class="cls-35" cx="52.76" cy="164.71" rx="21.71" ry="3.77"/><ellipse class="cls-36" cx="52.76" cy="164.71" rx="20.8" ry="3.61"/><ellipse class="cls-37" cx="52.76" cy="164.71" rx="19.88" ry="3.46"/><ellipse class="cls-38" cx="52.76" cy="164.71" rx="18.97" ry="3.3"/><ellipse class="cls-39" cx="52.76" cy="164.71" rx="18.06" ry="3.14"/><ellipse class="cls-40" cx="52.76" cy="164.71" rx="17.14" ry="2.98"/><ellipse class="cls-41" cx="52.76" cy="164.71" rx="16.23" ry="2.82"/><ellipse class="cls-42" cx="52.76" cy="164.71" rx="15.32" ry="2.66"/><ellipse class="cls-43" cx="52.76" cy="164.71" rx="14.4" ry="2.5"/><ellipse class="cls-44" cx="52.76" cy="164.71" rx="13.49" ry="2.35"/><ellipse class="cls-45" cx="52.76" cy="164.71" rx="12.58" ry="2.19"/><ellipse class="cls-46" cx="52.76" cy="164.71" rx="11.67" ry="2.03"/><ellipse class="cls-47" cx="52.76" cy="164.71" rx="10.75" ry="1.87"/><ellipse class="cls-48" cx="52.76" cy="164.71" rx="9.84" ry="1.71"/><ellipse class="cls-49" cx="52.76" cy="164.71" rx="8.93" ry="1.55"/><ellipse class="cls-50" cx="52.76" cy="164.71" rx="8.01" ry="1.39"/><ellipse class="cls-51" cx="52.76" cy="164.71" rx="7.1" ry="1.23"/><ellipse class="cls-52" cx="52.76" cy="164.71" rx="6.19" ry="1.08"/><path class="cls-53" d="M138.36,0c-47.28,0-85.6,28.65-85.6,64V164.71l23.75-56.5C92.09,120.38,114,128,138.36,128c47.28,0,85.6-28.65,85.6-64S185.63,0,138.36,0Z"/><path class="cls-1" d="M54,64C54,29.36,91.82,1.2,138.36,1.2s84.4,28.16,84.4,62.78-37.86,62.78-84.4,62.78c-23.31,0-45-6.92-61.11-19.5l-1.24-1L54,158.76Z"/><path class="cls-54" d="M60,64C60,32.68,95.13,7.21,138.36,7.21s78.4,25.47,78.4,56.78-35.17,56.78-78.4,56.78c-22,0-42.37-6.47-57.42-18.23l-7.42-5.8L60,129Z"/></g></g></svg>