<svg xmlns="http://www.w3.org/2000/svg" xmlns:xlink="http://www.w3.org/1999/xlink" viewBox="0 0 221.02 368.78"><defs><style>.cls-1{fill:#fff;}.cls-2{fill:#fefefe;}.cls-3{fill:#fdfdfd;}.cls-4{fill:#fcfcfc;}.cls-5{fill:#fbfbfb;}.cls-6{fill:#fafafa;}.cls-7{fill:#f9f9f9;}.cls-8{fill:#f8f8f8;}.cls-9{fill:#f7f7f7;}.cls-10{fill:#f6f6f6;}.cls-11{fill:#f5f5f5;}.cls-12{fill:#f4f4f4;}.cls-13{fill:#f3f3f3;}.cls-14{fill:#f2f2f2;}.cls-15{fill:#f1f1f1;}.cls-16{fill:#f0f0f0;}.cls-17{fill:#efefef;}.cls-18{fill:#eee;}.cls-19{fill:#ededed;}.cls-20{fill:#ececec;}.cls-21{fill:#ebebeb;}.cls-22{fill:#eaeaea;}.cls-23{fill:#e9e9e9;}.cls-24{fill:#e8e8e8;}.cls-25{fill:#e7e7e7;}.cls-26{fill:#e6e6e6;}.cls-27{fill:#e5e5e5;}.cls-28{fill:#e4e4e4;}.cls-29{fill:#e3e3e3;}.cls-30{fill:#e2e2e2;}.cls-31{fill:#e1e1e1;}.cls-32{fill:#e0e0e0;}.cls-33{fill:#dfdfdf;}.cls-34{fill:#dedede;}.cls-35{fill:#ddd;}.cls-36{fill:#dcdcdc;}.cls-37{fill:#dbdbdb;}.cls-38{fill:#dadada;}.cls-39{fill:#d9d9d9;}.cls-40{fill:#d8d8d8;}.cls-41{fill:#d7d7d7;}.cls-42{fill:#d6d6d6;}.cls-43{fill:#d5d5d5;}.cls-44{fill:#d4d4d4;}.cls-45{fill:#d3d3d3;}.cls-46{fill:#d2d2d2;}.cls-47{fill:#d1d1d1;}.cls-48{fill:#d0d0d0;}.cls-49{fill:#cfcfcf;}.cls-50{fill:#cecece;}.cls-51{fill:#cdcdcd;}.cls-52{fill:#ccc;}.cls-53{fill:#e13126;}.cls-54{fill:#4d4d4d;}.cls-55{fill:url(#radial-gradient);}.cls-56{fill:url(#linear-gradient);}.cls-57{fill:#666;}.cls-58{fill:#61533c;}.cls-59{fill:url(#linear-gradient-2);}.cls-60{fill:url(#linear-gradient-3);}</style><radialGradient id="radial-gradient" cx="23.18" cy="129.22" r="11.16" gradientUnits="userSpaceOnUse"><stop offset="0" stop-color="#5d513b"/><stop offset="0.26" stop-color="#7b6a4f"/><stop offset="0.54" stop-color="#958061"/><stop offset="0.8" stop-color="#a58d6b"/><stop offset="1" stop-color="#ab926f"/></radialGradient><linearGradient id="linear-gradient" x1="12.66" y1="129.22" x2="33.69" y2="129.22" gradientUnits="userSpaceOnUse"><stop offset="0" stop-color="#e5d9c5"/><stop offset="0.05" stop-color="#dbcdb7"/><stop offset="0.17" stop-color="#c2b195"/><stop offset="0.29" stop-color="#b19c7d"/><stop offset="0.39" stop-color="#a7906f"/><stop offset="0.48" stop-color="#a38c6a"/><stop offset="0.63" stop-color="#a58e6d"/><stop offset="0.73" stop-color="#ac9676"/><stop offset="0.82" stop-color="#b7a385"/><stop offset="0.9" stop-color="#c6b59b"/><stop offset="0.97" stop-color="#dacdb6"/><stop offset="1" stop-color="#e5d9c5"/></linearGradient><linearGradient id="linear-gradient-2" x1="17.24" y1="65.53" x2="24.45" y2="65.53" gradientUnits="userSpaceOnUse"><stop offset="0" stop-color="#847155"/><stop offset="0.5" stop-color="#d4c6ae"/><stop offset="1" stop-color="#847155"/></linearGradient><linearGradient id="linear-gradient-3" x1="20.84" y1="71.43" x2="20.84" y2="59.62" gradientUnits="userSpaceOnUse"><stop offset="0" stop-color="#7c6b50"/><stop offset="0.39" stop-color="#7a694e"/><stop offset="0.59" stop-color="#726249"/><stop offset="0.76" stop-color="#64563f"/><stop offset="0.9" stop-color="#514631"/><stop offset="1" stop-color="#3e3523"/></linearGradient></defs><title>Ресурс 40elements</title><g id="Слой_2" data-name="Слой 2"><g id="Layer_1" data-name="Layer 1"><ellipse class="cls-1" cx="129.66" cy="355.35" rx="77.27" ry="13.43"/><ellipse class="cls-2" cx="129.66" cy="355.35" rx="75.93" ry="13.19"/><ellipse class="cls-3" cx="129.66" cy="355.35" rx="74.6" ry="12.96"/><ellipse class="cls-4" cx="129.66" cy="355.35" rx="73.26" ry="12.73"/><ellipse class="cls-5" cx="129.66" cy="355.35" rx="71.92" ry="12.5"/><ellipse class="cls-6" cx="129.66" cy="355.35" rx="70.58" ry="12.27"/><ellipse class="cls-7" cx="129.66" cy="355.35" rx="69.25" ry="12.03"/><ellipse class="cls-8" cx="129.66" cy="355.35" rx="67.91" ry="11.8"/><ellipse class="cls-9" cx="129.66" cy="355.35" rx="66.57" ry="11.57"/><ellipse class="cls-10" cx="129.66" cy="355.35" rx="65.23" ry="11.34"/><ellipse class="cls-11" cx="129.66" cy="355.35" rx="63.9" ry="11.1"/><ellipse class="cls-12" cx="129.66" cy="355.35" rx="62.56" ry="10.87"/><ellipse class="cls-13" cx="129.66" cy="355.35" rx="61.22" ry="10.64"/><ellipse class="cls-14" cx="129.66" cy="355.35" rx="59.88" ry="10.41"/><ellipse class="cls-15" cx="129.66" cy="355.35" rx="58.55" ry="10.17"/><ellipse class="cls-16" cx="129.66" cy="355.35" rx="57.21" ry="9.94"/><ellipse class="cls-17" cx="129.66" cy="355.35" rx="55.87" ry="9.71"/><ellipse class="cls-18" cx="129.66" cy="355.35" rx="54.53" ry="9.48"/><ellipse class="cls-19" cx="129.66" cy="355.35" rx="53.2" ry="9.24"/><ellipse class="cls-20" cx="129.66" cy="355.35" rx="51.86" ry="9.01"/><ellipse class="cls-21" cx="129.66" cy="355.35" rx="50.52" ry="8.78"/><ellipse class="cls-22" cx="129.66" cy="355.35" rx="49.18" ry="8.55"/><ellipse class="cls-23" cx="129.66" cy="355.35" rx="47.85" ry="8.31"/><ellipse class="cls-24" cx="129.66" cy="355.35" rx="46.51" ry="8.08"/><ellipse class="cls-25" cx="129.66" cy="355.35" rx="45.17" ry="7.85"/><ellipse class="cls-26" cx="129.66" cy="355.35" rx="43.83" ry="7.62"/><ellipse class="cls-27" cx="129.66" cy="355.35" rx="42.5" ry="7.39"/><ellipse class="cls-28" cx="129.66" cy="355.35" rx="41.16" ry="7.15"/><ellipse class="cls-29" cx="129.66" cy="355.35" rx="39.82" ry="6.92"/><ellipse class="cls-30" cx="129.66" cy="355.35" rx="38.49" ry="6.69"/><ellipse class="cls-31" cx="129.66" cy="355.35" rx="37.15" ry="6.46"/><ellipse class="cls-32" cx="129.66" cy="355.35" rx="35.81" ry="6.22"/><ellipse class="cls-33" cx="129.66" cy="355.35" rx="34.47" ry="5.99"/><ellipse class="cls-34" cx="129.66" cy="355.35" rx="33.14" ry="5.76"/><ellipse class="cls-35" cx="129.66" cy="355.35" rx="31.8" ry="5.53"/><ellipse class="cls-36" cx="129.66" cy="355.35" rx="30.46" ry="5.29"/><ellipse class="cls-37" cx="129.66" cy="355.35" rx="29.12" ry="5.06"/><ellipse class="cls-38" cx="129.66" cy="355.35" rx="27.78" ry="4.83"/><ellipse class="cls-39" cx="129.66" cy="355.35" rx="26.45" ry="4.6"/><ellipse class="cls-40" cx="129.66" cy="355.35" rx="25.11" ry="4.36"/><ellipse class="cls-41" cx="129.66" cy="355.35" rx="23.77" ry="4.13"/><ellipse class="cls-42" cx="129.66" cy="355.35" rx="22.44" ry="3.9"/><ellipse class="cls-43" cx="129.66" cy="355.35" rx="21.1" ry="3.67"/><ellipse class="cls-44" cx="129.66" cy="355.35" rx="19.76" ry="3.43"/><ellipse class="cls-45" cx="129.66" cy="355.35" rx="18.42" ry="3.2"/><ellipse class="cls-46" cx="129.66" cy="355.35" rx="17.08" ry="2.97"/><ellipse class="cls-47" cx="129.66" cy="355.35" rx="15.75" ry="2.74"/><ellipse class="cls-48" cx="129.66" cy="355.35" rx="14.41" ry="2.51"/><ellipse class="cls-49" cx="129.66" cy="355.35" rx="13.07" ry="2.27"/><ellipse class="cls-50" cx="129.66" cy="355.35" rx="11.73" ry="2.04"/><ellipse class="cls-51" cx="129.66" cy="355.35" rx="10.4" ry="1.81"/><ellipse class="cls-52" cx="129.66" cy="355.35" rx="9.06" ry="1.58"/><path class="cls-53" d="M86.95,112.13,221,259.76l-86.95,79L0,191.09l3.73-77.38a5.58,5.58,0,0,1,5.84-5.3ZM18.05,123.61a7.62,7.62,0,1,0,10.77.52A7.62,7.62,0,0,0,18.05,123.61Z"/><path class="cls-1" d="M32.65,164.54A29.7,29.7,0,0,0,39,176.25c3.6,4,7.13,4.56,9.62,2.3s2.09-5.2-.43-11.27c-3.55-8.34-3.79-15.65,1.75-20.68,6.5-5.91,16.41-5,24.57,4a31.52,31.52,0,0,1,6.91,11.47l-8.7,4.4a24.48,24.48,0,0,0-5.43-9.62c-3.39-3.73-6.73-4-8.71-2.2-2.43,2.21-1.55,5.33,1,11.95,3.62,9,3,15.34-2.38,20.22-6.39,5.8-16.29,5.82-25.79-4.64-4-4.35-6.73-9.68-7.49-12.91Z"/><path class="cls-1" d="M69.1,202.86,56.86,209l-8.12-8.93,48.69-23,10.27,11.31L80.33,234.87,71.9,225.6,79,213.77Zm15.23,3.81L90.26,197c1.65-2.73,3.86-6,5.6-8.6l-.1-.11c-2.78,1.49-6.17,3.54-8.94,4.93l-10.14,5.08Z"/><path class="cls-1" d="M123.05,205.34l7.86,8.65L100,242l13.76,15.15-7.24,6.57L84.94,240Z"/><path class="cls-1" d="M147.88,276.88l-12.74-14-9,8.22,14.23,15.66-7.07,6.42-22.08-24.31,38.11-34.62,21.37,23.52-7.07,6.42-13.51-14.87-7.92,7.19,12.74,14Z"/><circle class="cls-1" cx="23.76" cy="129.39" r="6.32"/><path class="cls-54" d="M23.17,141.1a11.47,11.47,0,1,1,11.47-11.47A11.49,11.49,0,0,1,23.17,141.1Zm0-17.57a6.1,6.1,0,1,0,6.1,6.1,6.11,6.11,0,0,0-6.1-6.1Z"/><path class="cls-55" d="M23.17,122.66a6.56,6.56,0,1,0,6.56,6.56A6.55,6.55,0,0,0,23.17,122.66Zm11.16,6.56a11.16,11.16,0,1,1-11.16-11.16A11.16,11.16,0,0,1,34.34,129.22Z"/><path class="cls-56" d="M33.69,129.22a10.52,10.52,0,1,1-10.52-10.51A10.52,10.52,0,0,1,33.69,129.22Zm-10.52-8.33a8.33,8.33,0,1,0,8.33,8.33A8.33,8.33,0,0,0,23.17,120.89Z"/><path class="cls-57" d="M26.63,109.23c0-5.31-1.38-10.15-2.1-13.5-2-9.16-5-19.41-5-26.5a1.35,1.35,0,0,1,2.7,0c0,6.7,3.43,15.62,5.25,24.62a109.19,109.19,0,0,1,2.12,15.51Z"/><path class="cls-57" d="M19.32,125.08a9.06,9.06,0,0,1-2.87-2.5c-4.57-6.21-2.23-18.86.25-32.25,1.37-7.42,2.79-15.1,2.79-21.09a1.35,1.35,0,0,1,2.7,0c0,6.24-1.44,14-2.84,21.58C17.09,103,14.75,115.7,18.63,121a6.36,6.36,0,0,0,4.11,2.55,6.08,6.08,0,0,1,3.6.69C25.58,126.7,21.29,126.2,19.32,125.08Z"/><path class="cls-57" d="M22.19,63.5h-2.7c0-6.15-1.89-14.71-3.88-23.78C12.31,24.78,8.9,9.32,14,3a8.31,8.31,0,0,1,6.85-3,8.31,8.31,0,0,1,6.85,3c5.09,6.33,1.68,21.78-1.61,36.73-2,9.07-3.89,17.63-3.89,23.78ZM20.84,2.7a5.69,5.69,0,0,0-4.75,2c-4.28,5.32-.87,20.8,2.15,34.46,1,4.33,1.88,8.54,2.6,12.46.72-3.92,1.64-8.14,2.6-12.46,3-13.65,6.42-29.13,2.15-34.46a5.69,5.69,0,0,0-4.75-2Z"/><path class="cls-58" d="M24.52,71.12a1.43,1.43,0,0,1-1.42,1.42h-4.5a1.42,1.42,0,0,1-1.42-1.42V59.93a1.42,1.42,0,0,1,1.42-1.42h4.5a1.42,1.42,0,0,1,1.42,1.42Z"/><rect class="cls-59" x="17.24" y="58.58" width="7.21" height="13.89" rx="1.39" ry="1.39"/><rect x="18.47" y="59.54" width="4.75" height="11.8" rx="0.92" ry="0.92"/><rect class="cls-14" x="18.47" y="59.69" width="4.75" height="11.8" rx="0.92" ry="0.92"/><rect class="cls-60" x="18.47" y="59.62" width="4.75" height="11.8" rx="0.92" ry="0.92"/></g></g></svg>