<svg xmlns="http://www.w3.org/2000/svg" xmlns:xlink="http://www.w3.org/1999/xlink" viewBox="0 0 141.87 137.98"><defs><style>.cls-1{fill:url(#linear-gradient);}.cls-2{fill:url(#linear-gradient-2);}.cls-3{fill:#d42128;}.cls-4{fill:url(#linear-gradient-3);}.cls-5{fill:#b3b3b3;}.cls-6{fill:#a91f26;}.cls-7{fill:#ccc;}.cls-8{fill:#f5f5f5;}</style><linearGradient id="linear-gradient" x1="694.26" y1="-1507.38" x2="694.26" y2="-1615.79" gradientTransform="translate(1666.89 -543.21) rotate(-135)" gradientUnits="userSpaceOnUse"><stop offset="0" stop-color="#831d25"/><stop offset="0.27" stop-color="#d42128"/><stop offset="0.3" stop-color="#d5242b"/><stop offset="0.51" stop-color="#d9373d"/><stop offset="0.65" stop-color="#da3e43"/><stop offset="0.78" stop-color="#d93b40"/><stop offset="0.9" stop-color="#d73036"/><stop offset="1" stop-color="#d42027"/></linearGradient><linearGradient id="linear-gradient-2" x1="899.55" y1="1830.32" x2="969.56" y2="1900.32" gradientTransform="translate(1941.85 -869.22) rotate(90)" gradientUnits="userSpaceOnUse"><stop offset="0" stop-color="#c2c2c2"/><stop offset="0.24" stop-color="#e6e6e6"/><stop offset="0.48" stop-color="#f8f8f8"/><stop offset="0.65" stop-color="#fff"/><stop offset="0.84" stop-color="#fcfcfc"/><stop offset="1" stop-color="#f2f2f2"/></linearGradient><linearGradient id="linear-gradient-3" x1="694.26" y1="-1504.49" x2="694.26" y2="-1524.92" gradientTransform="translate(1666.89 -543.21) rotate(-135)" gradientUnits="userSpaceOnUse"><stop offset="0" stop-color="#cc7b19"/><stop offset="0.25" stop-color="#fbb03b"/><stop offset="0.55" stop-color="#fcc731"/><stop offset="0.82" stop-color="#fbb03b"/><stop offset="1" stop-color="#fbb03b"/></linearGradient></defs><title>Ресурс 37elements</title><g id="Слой_2" data-name="Слой 2"><g id="Layer_1" data-name="Layer 1"><path class="cls-1" d="M78.36,0C93.47,25.92,115,46.37,141.87,63.51A63.51,63.51,0,1,1,78.36,0Z"/><path class="cls-2" d="M78.36,115.6a52.09,52.09,0,1,1,0-104.18c15.19,0,24.72,10,34.24,20.34,8.51,9.27,17.85,18.17,17.85,31.75A52.09,52.09,0,0,1,78.36,115.6Z"/><path class="cls-3" d="M47.17,50.27H47.1l-4.45,2.12-.9-4.09,6.17-2.87h4.52V68.75H47.17Z"/><path class="cls-3" d="M77.35,57c0,7.21-2.91,12.17-8.87,12.17s-8.68-5.42-8.72-12S62.63,45,68.66,45C74.91,45,77.35,50.59,77.35,57Zm-12.09.14c0,5.35,1.26,7.9,3.37,7.9s3.27-2.66,3.27-8-1.11-7.9-3.3-7.9C66.58,49.16,65.22,51.7,65.25,57.12Z"/><path class="cls-3" d="M92.31,52c0,4.88-3.08,7.43-6.46,7.43-3.55,0-6.35-2.66-6.35-7C79.5,48.19,82,45,86,45S92.31,48,92.31,52Zm-8.76.25c0,2.44.83,4.2,2.41,4.2s2.3-1.58,2.3-4.2c0-2.37-.65-4.2-2.33-4.2S83.55,49.87,83.55,52.21Zm2.58,16.94L99.52,45h2.94L89,69.15Zm23-7.5c0,4.88-3.09,7.43-6.46,7.43s-6.32-2.66-6.35-7c0-4.16,2.55-7.32,6.53-7.32S109.11,57.66,109.11,61.65Zm-8.72.25c0,2.44.79,4.2,2.37,4.2s2.3-1.58,2.3-4.2c0-2.37-.61-4.2-2.3-4.2S100.39,59.56,100.39,61.9Z"/><path class="cls-3" d="M82.78,85.23c0,5.55-3.36,8.91-8.31,8.91s-8-3.79-8-8.61c0-5.07,3.24-8.86,8.23-8.86C79.95,76.67,82.78,80.56,82.78,85.23Zm-12.22.23c0,3.31,1.56,5.65,4.12,5.65s4.07-2.46,4.07-5.75c0-3-1.46-5.65-4.09-5.65S70.56,82.16,70.56,85.45Z"/><path class="cls-3" d="M85.3,76.94H95.64v3.14h-6.5v3.87h6.07v3.11H89.14v6.8H85.3Z"/><path class="cls-3" d="M98.53,76.94h10.34v3.14h-6.5v3.87h6.07v3.11h-6.07v6.8H98.53Z"/><path class="cls-4" d="M141.87,63.51s-10.14-14.23-29.64-33.73C91.68,9.23,78.36,0,78.36,0s1,25.8,19.35,44.16S141.87,63.51,141.87,63.51Z"/><path class="cls-5" d="M14.85,63.51a64.33,64.33,0,0,1,.64-9C6.87,45.3,0,38,0,38V138H83.14s-3.26-4.61-7.87-11A63.5,63.5,0,0,1,14.85,63.51Z"/><path class="cls-6" d="M26.33,66.24c-3.68-4-7.4-8-10.84-11.63a64.33,64.33,0,0,0-.64,9A63.5,63.5,0,0,0,75.26,127c-2.74-3.82-5.95-8.28-9.25-12.82A52.11,52.11,0,0,1,26.33,66.24Z"/><path class="cls-7" d="M26.33,66.24a52.11,52.11,0,0,0,39.68,48c-6.61-9.09-13.55-18.48-17.64-23.51C44.95,86.47,35.78,76.43,26.33,66.24Z"/><polygon class="cls-8" points="0 137.98 83.14 137.98 0 38.04 0 137.98"/></g></g></svg>