<svg xmlns="http://www.w3.org/2000/svg" xmlns:xlink="http://www.w3.org/1999/xlink" viewBox="0 0 140.97 173.3"><defs><style>.cls-1{fill:url(#linear-gradient);}.cls-2{fill:url(#linear-gradient-2);}.cls-3{fill:url(#linear-gradient-3);}.cls-4{fill:#d42128;}.cls-5{fill:url(#linear-gradient-4);}</style><linearGradient id="linear-gradient" x1="121.44" y1="123.65" x2="29.24" y2="31.45" gradientUnits="userSpaceOnUse"><stop offset="0" stop-color="#29abe2"/><stop offset="0.7" stop-color="#29abe2"/><stop offset="1" stop-color="#0071bc"/></linearGradient><linearGradient id="linear-gradient-2" x1="70.49" y1="127.77" x2="70.49" y2="13.2" gradientUnits="userSpaceOnUse"><stop offset="0" stop-color="#8cbce5"/><stop offset="1" stop-color="#0b5f80"/></linearGradient><linearGradient id="linear-gradient-3" x1="109.52" y1="109.52" x2="31.45" y2="31.45" gradientUnits="userSpaceOnUse"><stop offset="0" stop-color="#fff"/><stop offset="0.76" stop-color="#fff"/><stop offset="1" stop-color="#c1c3c5"/></linearGradient><linearGradient id="linear-gradient-4" x1="-250.12" y1="535.88" x2="-250.12" y2="516.89" gradientTransform="translate(230.62 584.22) rotate(135)" gradientUnits="userSpaceOnUse"><stop offset="0" stop-color="#cc7b19"/><stop offset="0.25" stop-color="#fbb03b"/><stop offset="0.55" stop-color="#fcc731"/><stop offset="0.82" stop-color="#fbb03b"/><stop offset="1" stop-color="#fbb03b"/></linearGradient></defs><title>Ресурс 33elements</title><g id="Слой_2" data-name="Слой 2"><g id="Layer_1" data-name="Layer 1"><path class="cls-1" d="M141,70.49A70.49,70.49,0,0,0,70.49,0,71.25,71.25,0,0,0,60.13.75C46.29,19.92,23.49,42.33.79,59.91A71.26,71.26,0,0,0,0,70.49,70.16,70.16,0,0,0,12.77,111h0s5.87,9.47,20.2,25.57C45.7,150.84,70.49,173.3,70.49,173.3S95.27,150.84,108,136.51c14.33-16.1,20.2-25.57,20.2-25.57h0A70.16,70.16,0,0,0,141,70.49Z"/><path class="cls-2" d="M70.49,127.77a57.29,57.29,0,1,1,57.29-57.29,57.35,57.35,0,0,1-57.29,57.29Z"/><circle class="cls-3" cx="70.49" cy="70.49" r="55.2"/><path class="cls-4" d="M49.22,49.76H39l-.57,4a11.52,11.52,0,0,1,1.7-.08,12,12,0,0,1,6.93,1.9,7.49,7.49,0,0,1,3.2,6.6c0,4.9-4.21,9.23-11.3,9.23A16.72,16.72,0,0,1,31.64,70l1.09-4.62a15.1,15.1,0,0,0,6,1.3c2.55,0,5.26-1.22,5.26-4s-2.15-4.37-7.41-4.37A22.73,22.73,0,0,0,33,58.5l1.74-13.81h14.5Z"/><path class="cls-4" d="M73.56,57.74c0,8.14-3.28,13.73-10,13.73s-9.8-6.12-9.84-13.57c0-7.61,3.24-13.65,10-13.65C70.8,44.25,73.56,50.53,73.56,57.74Zm-13.65.16c0,6,1.42,8.91,3.81,8.91s3.69-3,3.69-9c0-5.83-1.25-8.91-3.73-8.91C61.41,48.91,59.87,51.78,59.91,57.9Z"/><path class="cls-4" d="M90.44,52.07c0,5.51-3.48,8.38-7.29,8.38-4,0-7.17-3-7.17-7.94,0-4.7,2.88-8.26,7.37-8.26S90.44,47.57,90.44,52.07Zm-9.88.28c0,2.75.93,4.74,2.71,4.74s2.59-1.78,2.59-4.74c0-2.67-.73-4.74-2.63-4.74S80.56,49.72,80.56,52.35Zm2.92,19.12L98.58,44.25h3.32L86.75,71.46ZM109.39,63c0,5.51-3.48,8.38-7.29,8.38-4,0-7.13-3-7.17-7.94,0-4.7,2.87-8.26,7.37-8.26S109.39,58.5,109.39,63Zm-9.84.28c0,2.75.89,4.74,2.67,4.74s2.59-1.78,2.59-4.74c0-2.67-.69-4.74-2.59-4.74S99.55,60.65,99.55,63.28Z"/><path class="cls-4" d="M29.46,81.64a29,29,0,0,1,4.39-.3c2.73,0,4.5.49,5.88,1.54a6.35,6.35,0,0,1,2.43,5.41,7.29,7.29,0,0,1-2.39,5.82C38.27,95.36,36,96,33.15,96a28.17,28.17,0,0,1-3.69-.21Zm3.26,11.72a6,6,0,0,0,1.13.06c2.94,0,4.86-1.6,4.86-5,0-3-1.73-4.56-4.52-4.56a6.66,6.66,0,0,0-1.47.13Z"/><path class="cls-4" d="M47.63,82.49a1.63,1.63,0,0,1-1.75,1.62,1.63,1.63,0,1,1,0-3.26A1.63,1.63,0,0,1,47.63,82.49ZM44.29,95.81V85.39h3.24V95.81Z"/><path class="cls-4" d="M50.11,93a6.33,6.33,0,0,0,2.79.79c1,0,1.39-.34,1.39-.87S54,92.1,52.75,91.7c-2.15-.73-3-1.9-3-3.13,0-1.94,1.66-3.41,4.24-3.41a7,7,0,0,1,2.94.6L56.4,88a5.11,5.11,0,0,0-2.26-.6c-.79,0-1.24.32-1.24.85s.41.75,1.68,1.19c2,.68,2.81,1.68,2.83,3.22,0,1.94-1.53,3.37-4.52,3.37a7.35,7.35,0,0,1-3.37-.73Z"/><path class="cls-4" d="M67.21,95.55a7.89,7.89,0,0,1-2.9.47c-3.37,0-5.52-2-5.52-5.33,0-3,2.09-5.54,6-5.54a7.52,7.52,0,0,1,2.47.4L66.72,88a4.45,4.45,0,0,0-1.81-.32A2.92,2.92,0,0,0,65,93.49a5,5,0,0,0,1.86-.32Z"/><path class="cls-4" d="M79.06,90.48A5.23,5.23,0,0,1,73.56,96a5.1,5.1,0,0,1-5.39-5.37,5.2,5.2,0,0,1,5.56-5.52A5.07,5.07,0,0,1,79.06,90.48Zm-7.54.11c0,1.79.75,3.13,2.13,3.13s2.07-1.26,2.07-3.13c0-1.56-.6-3.13-2.07-3.13S71.52,89.05,71.52,90.59Z"/><path class="cls-4" d="M90.9,92.46c0,1.36,0,2.47.08,3.35H88.17L88,94.34H88A3.72,3.72,0,0,1,84.7,96C82.59,96,81,94.72,81,91.5V85.39h3.26V91c0,1.51.49,2.43,1.62,2.43a1.74,1.74,0,0,0,1.62-1.13,1.78,1.78,0,0,0,.11-.7v-6.2H90.9Z"/><path class="cls-4" d="M93.51,88.71c0-1.3,0-2.41-.09-3.32h2.81l.15,1.43h.07a3.82,3.82,0,0,1,3.22-1.66c2.13,0,3.73,1.41,3.73,4.48v6.18h-3.24V90c0-1.34-.47-2.26-1.64-2.26A1.73,1.73,0,0,0,96.87,89a2.24,2.24,0,0,0-.13.81v6H93.51Z"/><path class="cls-4" d="M109.5,82.4v3h2.32v2.39H109.5v3.77c0,1.26.3,1.83,1.28,1.83a5.25,5.25,0,0,0,1-.08l0,2.45a6.37,6.37,0,0,1-2.11.28,3.38,3.38,0,0,1-2.43-.89,4.32,4.32,0,0,1-.9-3.09V87.78h-1.38V85.39h1.38V83.13Z"/><path class="cls-5" d="M60.13.75S46.68,10.31,28.56,28.44C9.47,47.53.79,59.91.79,59.91s24.07-.92,41.14-18S60.13.75,60.13.75Z"/></g></g></svg>