<svg xmlns="http://www.w3.org/2000/svg" xmlns:xlink="http://www.w3.org/1999/xlink" viewBox="0 0 120.94 120.89"><defs><style>.cls-1{fill:#5a0000;}.cls-2{fill:url(#radial-gradient);}.cls-3{fill:url(#linear-gradient);}.cls-4{fill:url(#linear-gradient-2);}.cls-5{fill:url(#linear-gradient-3);}.cls-6{fill:url(#linear-gradient-4);}.cls-7{fill:url(#linear-gradient-5);}</style><radialGradient id="radial-gradient" cx="29.68" cy="33.17" r="70.5" gradientUnits="userSpaceOnUse"><stop offset="0" stop-color="#e13126"/><stop offset="0.29" stop-color="#dc3026"/><stop offset="0.63" stop-color="#ce2c24"/><stop offset="0.98" stop-color="#b82522"/><stop offset="1" stop-color="#b62522"/></radialGradient><linearGradient id="linear-gradient" x1="-5.4" y1="18.28" x2="18.28" y2="-5.4" gradientUnits="userSpaceOnUse"><stop offset="0" stop-color="#aa2928"/><stop offset="0.2" stop-color="#ba2b29"/><stop offset="0.51" stop-color="#d92e2a"/><stop offset="0.7" stop-color="#ca2c29"/><stop offset="1" stop-color="#aa2928"/></linearGradient><linearGradient id="linear-gradient-2" x1="-5.5" y1="40.16" x2="40.16" y2="-5.5" gradientUnits="userSpaceOnUse"><stop offset="0" stop-color="#d42229"/><stop offset="0.21" stop-color="#dc3227"/><stop offset="0.51" stop-color="#ea4f24"/><stop offset="0.7" stop-color="#e34025"/><stop offset="1" stop-color="#d42128"/></linearGradient><linearGradient id="linear-gradient-3" x1="-5.5" y1="62.15" x2="62.15" y2="-5.5" xlink:href="#linear-gradient"/><linearGradient id="linear-gradient-4" x1="-5.5" y1="84.14" x2="84.14" y2="-5.5" xlink:href="#linear-gradient-2"/><linearGradient id="linear-gradient-5" x1="-5.88" y1="108.58" x2="108.58" y2="-5.88" gradientUnits="userSpaceOnUse"><stop offset="0" stop-color="#aa2928"/><stop offset="0.04" stop-color="#af2a28"/><stop offset="0.34" stop-color="#ce2d2a"/><stop offset="0.51" stop-color="#d92e2a"/><stop offset="0.65" stop-color="#d12d2a"/><stop offset="0.87" stop-color="#ba2b29"/><stop offset="1" stop-color="#aa2928"/></linearGradient></defs><title>Ресурс 6elements</title><g id="Слой_2" data-name="Слой 2"><g id="Layer_1" data-name="Layer 1"><path class="cls-1" d="M0,111.66c0,8.82,10.68,9.23,10.68,9.23V90H0Z"/><path class="cls-1" d="M111.7,0c8.82,0,9.23,10.68,9.23,10.68H90V0Z"/><path class="cls-2" d="M111.7,0H3.57A3.56,3.56,0,0,0,0,3.56V111.7a8.61,8.61,0,0,0,.65,3.41c-.6-2.65.08-4.07,1-5.1L110,1.7c1-1,2.45-1.66,5.11-1.06A8.55,8.55,0,0,0,111.7,0Z"/><path class="cls-3" d="M3.57,0A3.56,3.56,0,0,0,0,3.56V23.67L23.67,0Z"/><polygon class="cls-4" points="23.68 0 0 23.67 0 45.66 45.66 0 23.68 0"/><polygon class="cls-5" points="45.66 0 0 45.66 0 67.64 67.65 0 45.66 0"/><polygon class="cls-6" points="67.65 0 0 67.64 0 89.64 89.64 0 67.65 0"/><path class="cls-7" d="M111.7,0H89.64L0,89.64V111.7a8.61,8.61,0,0,0,.65,3.41c-.6-2.65.08-4.07,1-5.1L110,1.7c1-1,2.45-1.66,5.11-1.06A8.55,8.55,0,0,0,111.7,0Z"/></g></g></svg>