<svg xmlns="http://www.w3.org/2000/svg" xmlns:xlink="http://www.w3.org/1999/xlink" viewBox="0 0 430.08 124"><defs><style>.cls-1{fill:#87171c;}.cls-2{fill:#37a2db;}.cls-3{fill:#38a2db;}.cls-4{fill:#38a3db;}.cls-5{fill:#39a3db;}.cls-6{fill:#39a3dc;}.cls-7{fill:#3aa3dc;}.cls-8{fill:#3ba4dc;}.cls-9{fill:#3ca4dc;}.cls-10{fill:#3da5dd;}.cls-11{fill:#3ea5dd;}.cls-12{fill:#3fa6dd;}.cls-13{fill:#40a6dd;}.cls-14{fill:#40a6de;}.cls-15{fill:#41a7de;}.cls-16{fill:#42a7de;}.cls-17{fill:#43a7de;}.cls-18{fill:#43a8de;}.cls-19{fill:#44a8de;}.cls-20{fill:#45a8df;}.cls-21{fill:#45a9df;}.cls-22{fill:#46a9df;}.cls-23{fill:#47a9df;}.cls-24{fill:#47aadf;}.cls-25{fill:#48aae0;}.cls-26{fill:#49aae0;}.cls-27{fill:#49abe0;}.cls-28{fill:#4aabe0;}.cls-29{fill:#4babe0;}.cls-30{fill:#4cace0;}.cls-31{fill:#4cace1;}.cls-32{fill:#4dace1;}.cls-33{fill:#4eade1;}.cls-34{fill:#4fade1;}.cls-35{fill:#50aee2;}.cls-36{fill:#51aee2;}.cls-37{fill:#52afe2;}.cls-38{fill:#53afe2;}.cls-39{fill:#53afe3;}.cls-40{fill:#54afe3;}.cls-41{fill:#54b0e3;}.cls-42{fill:#55b0e3;}.cls-43{fill:url(#linear-gradient);}.cls-44{fill:url(#linear-gradient-2);}.cls-45{fill:url(#linear-gradient-3);}.cls-46{fill:#d42128;}.cls-47{fill:url(#radial-gradient);}.cls-48{fill:#fff;}</style><linearGradient id="linear-gradient" x1="47" y1="65.02" x2="129.31" y2="65.02" gradientUnits="userSpaceOnUse"><stop offset="0.02" stop-color="#28749d"/><stop offset="1" stop-color="#37a2db"/></linearGradient><linearGradient id="linear-gradient-2" x1="-127.31" y1="-66.73" x2="-127.31" y2="-167.49" gradientTransform="translate(-101.74 78.3) rotate(135)" gradientUnits="userSpaceOnUse"><stop offset="0.02" stop-color="#cc7b19"/><stop offset="0.33" stop-color="#fbb03b"/><stop offset="0.55" stop-color="#fcc731"/><stop offset="0.82" stop-color="#fbb03b"/><stop offset="1" stop-color="#fbb03b"/></linearGradient><linearGradient id="linear-gradient-3" x1="34.15" y1="34.15" x2="99.21" y2="99.21" gradientUnits="userSpaceOnUse"><stop offset="0" stop-color="#c2c2c2"/><stop offset="0.24" stop-color="#e6e6e6"/><stop offset="0.48" stop-color="#f8f8f8"/><stop offset="0.65" stop-color="#fff"/><stop offset="0.84" stop-color="#fcfcfc"/><stop offset="1" stop-color="#f2f2f2"/></linearGradient><radialGradient id="radial-gradient" cx="-130.82" cy="-568.61" r="55.02" gradientTransform="translate(512.54 325.43) rotate(-45)" gradientUnits="userSpaceOnUse"><stop offset="0" stop-color="#e13126"/><stop offset="0.29" stop-color="#dc3026"/><stop offset="0.63" stop-color="#ce2c24"/><stop offset="0.98" stop-color="#b82522"/><stop offset="1" stop-color="#b62522"/></radialGradient></defs><title>Ресурс 42elements</title><g id="Слой_2" data-name="Слой 2"><g id="Layer_1" data-name="Layer 1"><path class="cls-1" d="M0,92.22c.5,7,14.75,3.8,14.75,3.8l-4.27-34.7H0Z"/><path class="cls-2" d="M376.89,11.83H100.19a53.19,53.19,0,1,0,0,106.39H376.89a53.19,53.19,0,1,0,0-106.39Z"/><ellipse class="cls-2" cx="247.48" cy="65.03" rx="182.61" ry="53.19"/><ellipse class="cls-3" cx="247.48" cy="65.03" rx="180.25" ry="52.51"/><ellipse class="cls-4" cx="247.48" cy="65.03" rx="177.89" ry="51.82"/><ellipse class="cls-5" cx="247.48" cy="65.03" rx="175.52" ry="51.13"/><ellipse class="cls-6" cx="247.48" cy="65.03" rx="173.16" ry="50.44"/><ellipse class="cls-7" cx="247.48" cy="65.03" rx="170.8" ry="49.76"/><ellipse class="cls-8" cx="247.48" cy="65.03" rx="168.44" ry="49.07"/><ellipse class="cls-8" cx="247.48" cy="65.03" rx="166.08" ry="48.38"/><ellipse class="cls-9" cx="247.48" cy="65.03" rx="163.72" ry="47.69"/><ellipse class="cls-9" cx="247.48" cy="65.02" rx="161.36" ry="47"/><ellipse class="cls-10" cx="247.48" cy="65.02" rx="159" ry="46.32"/><ellipse class="cls-10" cx="247.48" cy="65.03" rx="156.64" ry="45.63"/><ellipse class="cls-11" cx="247.48" cy="65.03" rx="154.28" ry="44.94"/><ellipse class="cls-12" cx="247.48" cy="65.03" rx="151.92" ry="44.25"/><ellipse class="cls-12" cx="247.48" cy="65.03" rx="149.55" ry="43.57"/><ellipse class="cls-13" cx="247.48" cy="65.03" rx="147.19" ry="42.88"/><ellipse class="cls-14" cx="247.48" cy="65.02" rx="144.83" ry="42.19"/><ellipse class="cls-15" cx="247.48" cy="65.02" rx="142.47" ry="41.5"/><ellipse class="cls-16" cx="247.48" cy="65.02" rx="140.11" ry="40.82"/><ellipse class="cls-16" cx="247.48" cy="65.03" rx="137.75" ry="40.13"/><ellipse class="cls-17" cx="247.48" cy="65.03" rx="135.39" ry="39.44"/><ellipse class="cls-18" cx="247.48" cy="65.03" rx="133.03" ry="38.75"/><ellipse class="cls-19" cx="247.48" cy="65.03" rx="130.67" ry="38.06"/><ellipse class="cls-20" cx="247.48" cy="65.03" rx="128.31" ry="37.38"/><ellipse class="cls-21" cx="247.48" cy="65.02" rx="125.95" ry="36.69"/><ellipse class="cls-22" cx="247.48" cy="65.02" rx="123.58" ry="36"/><ellipse class="cls-22" cx="247.48" cy="65.03" rx="121.22" ry="35.31"/><ellipse class="cls-23" cx="247.48" cy="65.03" rx="118.86" ry="34.63"/><ellipse class="cls-24" cx="247.48" cy="65.03" rx="116.5" ry="33.94"/><ellipse class="cls-25" cx="247.48" cy="65.03" rx="114.14" ry="33.25"/><ellipse class="cls-26" cx="247.48" cy="65.02" rx="111.78" ry="32.56"/><ellipse class="cls-27" cx="247.48" cy="65.02" rx="109.42" ry="31.87"/><ellipse class="cls-28" cx="247.48" cy="65.02" rx="107.06" ry="31.19"/><ellipse class="cls-28" cx="247.48" cy="65.02" rx="104.7" ry="30.5"/><ellipse class="cls-29" cx="247.48" cy="65.02" rx="102.34" ry="29.81"/><ellipse class="cls-30" cx="247.48" cy="65.03" rx="99.98" ry="29.12"/><ellipse class="cls-31" cx="247.48" cy="65.03" rx="97.61" ry="28.44"/><ellipse class="cls-32" cx="247.48" cy="65.03" rx="95.25" ry="27.75"/><ellipse class="cls-32" cx="247.48" cy="65.02" rx="92.89" ry="27.06"/><ellipse class="cls-33" cx="247.48" cy="65.02" rx="90.53" ry="26.37"/><ellipse class="cls-34" cx="247.48" cy="65.02" rx="88.17" ry="25.68"/><ellipse class="cls-34" cx="247.48" cy="65.02" rx="85.81" ry="25"/><ellipse class="cls-35" cx="247.48" cy="65.02" rx="83.45" ry="24.31"/><ellipse class="cls-35" cx="247.48" cy="65.03" rx="81.09" ry="23.62"/><ellipse class="cls-36" cx="247.48" cy="65.02" rx="78.73" ry="22.93"/><ellipse class="cls-36" cx="247.48" cy="65.02" rx="76.37" ry="22.25"/><ellipse class="cls-37" cx="247.48" cy="65.02" rx="74" ry="21.56"/><ellipse class="cls-38" cx="247.48" cy="65.02" rx="71.64" ry="20.87"/><ellipse class="cls-39" cx="247.48" cy="65.02" rx="69.28" ry="20.18"/><ellipse class="cls-40" cx="247.48" cy="65.03" rx="66.92" ry="19.49"/><ellipse class="cls-41" cx="247.48" cy="65.02" rx="64.56" ry="18.81"/><ellipse class="cls-42" cx="247.48" cy="65.02" rx="62.2" ry="18.12"/><path class="cls-43" d="M96.3,12A53.18,53.18,0,0,0,96.12,118,59,59,0,0,0,96.3,12Z"/><path class="cls-1" d="M92.22,0c7,.51,1.35,13.31,1.35,13.31L61.32,10.49V0Z"/><path class="cls-44" d="M6,65c24.09-14,43.1-34,59-59A59,59,0,1,1,6,65Z"/><path class="cls-45" d="M113.39,65a48.42,48.42,0,0,1-96.83,0c0-14.12,9.26-23,18.9-31.83C44.08,25.23,52.35,16.56,65,16.56A48.42,48.42,0,0,1,113.39,65Z"/><path class="cls-46" d="M44.26,50.82H34.19l-.56,4a11.22,11.22,0,0,1,1.68-.08,11.87,11.87,0,0,1,6.83,1.88,7.39,7.39,0,0,1,3.15,6.51c0,4.83-4.15,9.1-11.14,9.1a16.49,16.49,0,0,1-7.23-1.48L28,66.19a14.9,14.9,0,0,0,5.87,1.28c2.52,0,5.19-1.2,5.19-4s-2.12-4.31-7.31-4.31a22.45,22.45,0,0,0-3.51.24L30,45.82h14.3Z"/><path class="cls-46" d="M68.25,58.68c0,8-3.24,13.54-9.86,13.54s-9.66-6-9.7-13.38c0-7.51,3.19-13.46,9.9-13.46C65.54,45.38,68.25,51.57,68.25,58.68Zm-13.46.16c0,6,1.4,8.79,3.75,8.79s3.63-3,3.63-8.87C62.18,53,60.94,50,58.51,50,56.27,50,54.75,52.81,54.79,58.84Z"/><path class="cls-46" d="M84.9,53.09c0,5.43-3.43,8.27-7.19,8.27-4,0-7.07-3-7.07-7.83,0-4.63,2.84-8.15,7.27-8.15S84.9,48.66,84.9,53.09Zm-9.74.28c0,2.72.92,4.67,2.67,4.67s2.56-1.76,2.56-4.67c0-2.64-.72-4.67-2.6-4.67S75.16,50.78,75.16,53.37ZM78,72.22l14.9-26.83H96.2L81.27,72.22Zm25.56-8.35c0,5.43-3.43,8.27-7.19,8.27-3.91,0-7-3-7.07-7.83,0-4.63,2.84-8.15,7.27-8.15S103.59,59.44,103.59,63.87Zm-9.7.28c0,2.72.88,4.67,2.63,4.67s2.56-1.76,2.56-4.67c0-2.63-.68-4.67-2.56-4.67S93.89,61.56,93.89,64.15Z"/><path class="cls-46" d="M59.18,89.51c0,6.33-3.84,10.17-9.48,10.17s-9.08-4.33-9.08-9.83c0-5.79,3.7-10.11,9.4-10.11C55.94,79.74,59.18,84.18,59.18,89.51Zm-14,.26c0,3.78,1.78,6.45,4.7,6.45s4.64-2.81,4.64-6.56c0-3.47-1.66-6.45-4.67-6.45S45.22,86,45.22,89.77Z"/><path class="cls-46" d="M62,80.05h11.8v3.58H66.42V88h6.93V91.6H66.42v7.76H62Z"/><path class="cls-46" d="M77.13,80.05h11.8v3.58H81.52V88h6.93V91.6H81.52v7.76H77.13Z"/><path class="cls-47" d="M6.54,0A6.53,6.53,0,0,0,0,6.54L0,92.22c0-9.65,16.79-36.2,36.4-55.8S82.57,0,92.22,0Z"/><path class="cls-48" d="M12.92,45.65a8.44,8.44,0,0,0,3-2.26c1-1.18,1-2.2.25-2.81s-1.55-.37-3.16.59c-2.21,1.34-4.26,1.71-5.91.36-1.93-1.59-2.09-4.42.11-7.1a9,9,0,0,1,3-2.42l1.6,2.27a7,7,0,0,0-2.49,1.93c-.91,1.11-.85,2.06-.26,2.55s1.57.22,3.33-.79c2.38-1.39,4.2-1.47,5.8-.16,1.9,1.56,2.31,4.35-.25,7.47a9.61,9.61,0,0,1-3.33,2.64Z"/><path class="cls-48" d="M22.42,34l2,3.34L22.1,39.82,14.46,26.51l3-3.18L31.26,30l-2.44,2.61L25.29,30.9Zm.74-4.41-2.9-1.46c-.82-.41-1.79-1-2.57-1.39l0,0c.49.75,1.15,1.67,1.6,2.43l1.68,2.76Z"/><path class="cls-48" d="M22.53,18.15,25,15.88l8.08,8.72,4.28-4,1.89,2-6.73,6.23Z"/><path class="cls-48" d="M43.33,11.2l-4.16,3.44,2.22,2.68L46,13.48l1.74,2.1-7.21,6-9.36-11.3,7-5.78,1.74,2.09-4.41,3.65,1.94,2.35,4.16-3.44Z"/><path class="cls-48" d="M136.44,71.89a19.57,19.57,0,0,0,8.5,2.11c3.52,0,5.38-1.46,5.38-3.67s-1.61-3.32-5.69-4.78c-5.64-2-9.31-5.08-9.31-10,0-5.79,4.83-10.21,12.83-10.21A20.8,20.8,0,0,1,156.82,47l-1.71,6.19A16.13,16.13,0,0,0,148,51.62c-3.32,0-4.93,1.51-4.93,3.27,0,2.16,1.91,3.12,6.29,4.78,6,2.22,8.81,5.33,8.81,10.11,0,5.69-4.38,10.52-13.69,10.52a22.21,22.21,0,0,1-9.61-2.06Z"/><path class="cls-48" d="M171,45.88V65.4c0,5.84,2.21,8.81,6.14,8.81s6.24-2.82,6.24-8.81V45.88H191v19c0,10.46-5.28,15.45-14.14,15.45-8.55,0-13.59-4.73-13.59-15.55V45.88Z"/><path class="cls-48" d="M197.68,46.33a62.84,62.84,0,0,1,10.37-.7c4.73,0,8.1.91,10.37,2.72A9.91,9.91,0,0,1,222,56.19a10.84,10.84,0,0,1-3.12,8.05c-2.62,2.46-6.49,3.57-11,3.57a19.48,19.48,0,0,1-2.62-.15V79.79h-7.6Zm7.6,15.4a11.63,11.63,0,0,0,2.57.2c4.08,0,6.59-2.06,6.59-5.54,0-3.12-2.16-5-6-5a13.15,13.15,0,0,0-3.17.3Z"/><path class="cls-48" d="M247.09,65.45H234.61V73.5h13.94v6.29H226.91V45.88h20.93v6.29H234.61v7h12.48Z"/><path class="cls-48" d="M253.79,46.33a67.44,67.44,0,0,1,10.21-.7c5,0,8.55.75,11,2.67a8.61,8.61,0,0,1,3.12,7.09,9,9,0,0,1-6,8.35v.15c2.37,1,3.67,3.22,4.53,6.34,1.06,3.83,2.11,8.25,2.77,9.56h-7.85c-.55-1-1.36-3.72-2.37-7.9s-2.37-5.38-5.48-5.43h-2.32V79.79h-7.6Zm7.6,14.59h3c3.82,0,6.09-1.91,6.09-4.88s-2.11-4.68-5.64-4.73a19,19,0,0,0-3.47.25Z"/><path class="cls-48" d="M283.63,46.33a68.46,68.46,0,0,1,10.37-.7c6.44,0,10.62,1.16,13.89,3.62,3.52,2.62,5.74,6.79,5.74,12.78,0,6.49-2.37,11-5.64,13.74-3.57,3-9,4.38-15.65,4.38a66.52,66.52,0,0,1-8.71-.5ZM291.33,74a14.06,14.06,0,0,0,2.67.15c6.94,0,11.47-3.78,11.47-11.88,0-7-4.08-10.77-10.67-10.77a15.9,15.9,0,0,0-3.47.3Z"/><path class="cls-48" d="M338.83,65.45H326.35V73.5h13.94v6.29H318.65V45.88h20.93v6.29H326.35v7h12.48Z"/><path class="cls-48" d="M353.42,71.09,351,79.79h-8l10.37-33.92h10.06L374,79.79h-8.25l-2.62-8.71Zm8.6-5.73-2.11-7.2c-.6-2-1.21-4.53-1.71-6.54h-.1c-.5,2-1,4.58-1.56,6.54l-2,7.2Z"/><path class="cls-48" d="M378.53,45.88h7.7V73.35h13.49v6.44H378.53Z"/></g></g></svg>