<svg xmlns="http://www.w3.org/2000/svg" xmlns:xlink="http://www.w3.org/1999/xlink" viewBox="0 0 251.67 216.19"><defs><style>.cls-1{isolation:isolate;}.cls-13,.cls-14,.cls-15,.cls-2,.cls-25,.cls-27,.cls-3,.cls-31{mix-blend-mode:multiply;}.cls-2{fill:url(#radial-gradient);}.cls-3{fill:url(#radial-gradient-2);}.cls-30,.cls-4{fill:#ffb06a;}.cls-5{fill:#77b818;}.cls-6{fill:#598a0f;}.cls-7{fill:#cae3ab;}.cls-8{fill:#b0d480;}.cls-9{fill:#ffbd00;}.cls-10,.cls-13{fill:#cf8e00;}.cls-11,.cls-12{fill:#ffd77a;}.cls-12{opacity:0.3;}.cls-12,.cls-23,.cls-30{mix-blend-mode:screen;}.cls-13,.cls-31{opacity:0.5;}.cls-14{fill:#e6e6e6;}.cls-15{fill:#b3b3b3;}.cls-16{fill:#fdf7f7;}.cls-17{fill:#f3d4d4;}.cls-18{fill:#f10;}.cls-19{fill:#ff442e;}.cls-20,.cls-24{fill:#f2f2f2;}.cls-20{opacity:0.7;}.cls-21{opacity:0.39;}.cls-22{fill:#fff8d5;}.cls-23{opacity:0.49;}.cls-25,.cls-27,.cls-30{opacity:0.4;}.cls-26,.cls-27{fill:#919191;}.cls-28{fill:#c0834f;}.cls-29{fill:#ffbf88;}.cls-32{fill:#caa15a;}</style><radialGradient id="radial-gradient" cx="-214.64" cy="2995.53" r="116.84" gradientTransform="translate(357 -945.66) scale(1.08 0.37)" gradientUnits="userSpaceOnUse"><stop offset="0"/><stop offset="0.15" stop-color="#404040"/><stop offset="0.3" stop-color="#7a7a7a"/><stop offset="0.45" stop-color="#a9a9a9"/><stop offset="0.59" stop-color="#cfcfcf"/><stop offset="0.72" stop-color="#e9e9e9"/><stop offset="0.83" stop-color="#f9f9f9"/><stop offset="0.92" stop-color="#fff"/></radialGradient><radialGradient id="radial-gradient-2" cx="-573.32" cy="2998.21" r="47.19" gradientTransform="translate(761.97 -945.66) scale(1.17 0.37)" xlink:href="#radial-gradient"/></defs><title>Ресурс 18</title><g class="cls-1"><g id="Слой_2" data-name="Слой 2"><g id="elements"><ellipse class="cls-2" cx="125.83" cy="172.57" rx="125.83" ry="43.62"/><ellipse class="cls-3" cx="93.65" cy="173.57" rx="55.01" ry="17.62"/><ellipse class="cls-4" cx="140.54" cy="84.21" rx="28.54" ry="57.09" transform="translate(-18.38 124.04) rotate(-45)"/><path class="cls-5" d="M102.87,88.22c26.92,16.61,70.11-13.34,68.24-22-.86-4-10.9-1.73-17.16-10.52-4.91-6.9-3.12-14.45-8.09-16.53-4-1.65-6.88,2.38-10.25.6C130.3,37,134.06,25.17,129.71,23c-4.88-2.42-13,10.74-19.48,8.53-6-2-4-14.84-7.59-15.56C97.27,14.9,79.4,41.41,87.36,66.69,88.36,69.86,92,81.53,102.87,88.22Z"/><path class="cls-6" d="M110,82.94c12.69,6.23,34.69-3.32,37.26-14,.34-1.41.17-4.76-.17-11.46-.61-12-1.74-13-2.35-13.34-4.47-2.79-13.45,8-17.08,5.66-4.24-2.78,3.65-20.42.93-21.78-2.56-1.28-9.78,14.2-16.64,13.14C104.63,40,103.63,20.84,101.56,21,98.22,21.33,89,72.62,110,82.94Z"/><path class="cls-5" d="M125.08,83.34C143.65,108.95,195,97.71,196.56,89c.73-4-9.42-5.75-11.86-16.26-1.91-8.25,2.62-14.55-1.19-18.37-3-3-7.26-.42-9.71-3.35-3.85-4.6,4.12-14.06.92-17.71-3.59-4.1-16.09,5-21.26.47-4.76-4.15,1.93-15.25-1.09-17.27-4.56-3.05-31.17,14.66-33.45,41.06C118.65,60.85,117.6,73,125.08,83.34Z"/><path class="cls-6" d="M133.72,81.19c9.35,10.6,33.34,10.15,39.77,1.29.85-1.18,2-4.34,4.2-10.66,4-11.28,3.33-12.65,2.91-13.23-3.07-4.28-15.5,2.31-17.95-1.28-2.86-4.19,11.16-17.49,9.16-19.79s-14.45,9.4-20.39,5.81c-6.37-3.85,0-22-2-22.61C146.26,19.72,118.24,63.65,133.72,81.19Z"/><path class="cls-5" d="M212.55,69.42c-6.28.1-12.38.78-10.17.34.6-.12.55-.45-.06-.33a4.34,4.34,0,0,0-1.23.5c-.07,0-1.1.12-1.05.1,5.29-2.57,5.26-2.25,5.26-2.25,1.59-1.54,0-.2-.56-.11s-7.47,3.51-6.74,2.54S201,65,202.66,64c.84-.47.12-1.76-4.77,6-.33.43-3.35-1.3-3-1.24,1.24.2,3.29-3.31,3.54-3.64,2.13-2.79,4,.41,10.15-4.56.31-.25,1.85-3.46.43-1.09-2.49,4.16-11.57,5.29-7,2.33A41.12,41.12,0,0,0,204,57.88a33.79,33.79,0,0,1-2.43,4,10.4,10.4,0,0,0-1.65,1.85c-2.61.41-2.6,6.4-6.66,4.1-.87-.49-4.94.54-5.89.24-4.58-1.46,2.56-1.08,3.55-1.47,1.14-.33.72-.09,1.85-1a10,10,0,0,1,2.87-1.71c-2.26.65-.65.26.31-1.19.49-.75,2.81-2,1.42-1.39s-4.58,4.57-6.51,5.12c-.71.28-4.93.9-1.19-1.35,4.66-2.11,11.45-7.19,11.45-7.19,1.2-.32,1.17-.53-.05-.21-1.52.4-4,3.06-3.56,2.4.31-.51.19-.68-.17-.08-.79,1.32-11.44,7.39-11.87,6.84,0,0-1.32-1.71-1.34-1.72s-3.32-2.42-3.36-2.42c-.5,0-1.88-.06-1.44-.32,4.34-2.47,10.93-2.89,10.93-2.89,3.62-2.44.09,0-1.45,0-3.1,0-3.25.74-1.11-1.26a6.65,6.65,0,0,0,1.4-2.26s-2.25,3.66-4.56,3.87c-1,.09,2-3.55,2.42-3.92a6.18,6.18,0,0,1,2.51-1.39c1.47-1.77-.07-.21-.56,0-1.55.55-1.24.4-2.07,1.24-1.23,1.24-2.9,4.16-3.55,4.22-.36,0,.66-.89.94-1.16a7.43,7.43,0,0,0,.72-3.35c0-1.37.68-3.52-.15-1.22-.32.91,1.07,4.11-3.19,6.33-1.48.77-2.07,1-1.73.76,1.17-.8,5.6-10.1,7.39-10.8.24-.09,2.21-1,2.07-1.27,0,0-1.57.84-2.14,1.06s.51-1.35,1.52-2.25,2.68-1.1.69-.87a37,37,0,0,0-3.54,3.8C179.28,62.58,180,60.54,177,63.1c-1.36,1.16-1.87,2-1.53.1.07-.43-.22-.67.09-1.14s.58-2,1-2.39c.8-.66-.1.39,1.65-1.48s1.1-.59,2.68-2.11a11.15,11.15,0,0,1,2-3.75s1.26-1.66,1.27-1.69a14,14,0,0,0,.56-2.19l-1.92.27c-2.07.31-.21-1.66.22-2.48.66-1.24,2.58-2,1.31-1.53-1.73.62-2.32,4-2.75,2.26-.73-2.5-.53-2.28,1.45-4.32,1-.87.92-1-.11-.17-.75.77-2,2.34-2.5.52-.58-2,.49-3.26-.25-2.25-.16.22-.35.22-.42,0-.16-.55-.34-.52-.15.12a1.24,1.24,0,0,1-.37,1.18c-.1.14-.71,4.34-.82,4.63-.23.61-.1-1.79,0-2.37a23.81,23.81,0,0,1,.6-2.76c.32-1.64-.49.5-.79,2.71-.67,5,.26.88-1.9,4.43-.56.93-.33.56-.69-1.06-.74-3.28.17,1.81,0,2.14a41.08,41.08,0,0,0-1,6.14c0,3.59-2.39-1-2.58-7.5-.2-.85-.78-3.33-.28-1.52,0,.07.17.69.27,1.19A24.65,24.65,0,0,1,173,41s0-2.21,0-2.25a11,11,0,0,1,.81-4.35c-.09-.06-.87,1.44-.88,1.14,0,0,.2-1.51.24-3.24.09-4.23-1-4.52-.5-3.37,1,2.53-.4,7.93-.4,8.41.06,14.33-1.73,3.49-1.6,1.89.29-3.55-.24-8.51-.42-5.28,0,0,.42.19.24,4.54,0,.58-.62-5.79-.58-5.79-.32,0,.12,3.69.16,4.08.34,3.11.52,4.22-.28,3a19.91,19.91,0,0,1-2.3-4.94c-2.34-3.56-2.15-4.82-3-6.65-1-2.13.7,2.74,1.17,3.9.55,1.35,2.3,4,1.45,3-.37-.43-3.72-2-4.32-3.42-.24-.56-.37-3.06-.4-.48,0,1.92,4.87,3.61,5.11,4.92a43.67,43.67,0,0,0,2.12,4c.69,1,.81,1.14,1,3.52a15,15,0,0,0,.64,2.6l.56,7.12c.56,1.5,2,5.15,1.82,6.42s-.39,1.77-.36,1.31a9.56,9.56,0,0,0-1.79-5.64,2.26,2.26,0,0,1,.21.37c1.78,4.39,1.88,8-.7,12.16.51-.65.83-.83,0,.71-.19.34-.06,1-.87,1.38-.47.23-.3-.25.05-.86-.33.44-.67.89-1.06,1.35-1.77,1.82-1.11,1.11-2.79,3-.16.15-.69.65-.82.79s-.15-.19-.09-.54c.09-.51.09-.67.3-.84a2.21,2.21,0,0,1,.33-.22c.25-.15.74-.56,1-.75,1-.71.65-.36,1.49-1.54a62.24,62.24,0,0,0,3.75-8.12c0-.44.72-1.69.39-1.92a2.48,2.48,0,0,0-.53,1.29,13.28,13.28,0,0,1-.84,2.35c.2-.56.06-.71-.19,0s-.88,1.55-.85,1.38c.46-2.65-.3-3.14-.08-5.91a19.56,19.56,0,0,1,.37-2.22c-1-.55-.24,6.93-.32,7.35a11.16,11.16,0,0,1-.93,2.71c-.17,1.06,0,2.61-2.92,4.87l-.57.44c-.16.1.26-.33.07-.46s-.34.63-.46.7-.52.43-.68.58l-.17.56a1.68,1.68,0,0,1,.3.21c.34.26.27.55,0,.86-.14.15-.26,0-.33-.29q0,.57,0,1.14c.26.06.56,1.69.61,2.35,0,.16,0,2.13,0,2.13a6,6,0,0,0-.85-.49l0,.2a7.15,7.15,0,0,1,.91.55c.3.23,1.07,2-.25.72l-.69-.67v.17s0,.06,0,.1c1.43,1.33,1.62,1.81,1,2.88-.2.33-3.86,4.49-4.1,3.64-.13-.47-.58-3.1-.87-4.84a1,1,0,0,1-.28,0c.5,3.2.5,4.39.24,4.45a3.8,3.8,0,0,0,.09.43c.65,2.21-1.91,1.24-2.9,5.51-.28,1.23-.55.92-1.34,1.13a7.25,7.25,0,0,0-.95.32c0,.09,0,.19-.06.28.87-.46,2.23-.94,1.76.28s-.56.34-1.89.21c0,.1-.06.2-.09.3,1.05,0,1.69.28,1.5.76a12.22,12.22,0,0,1-2.07,4.11,9,9,0,0,1-1.22,2.8c-1.7,2.67-4.31,4.41-6.53,6.34-1.75,1.52-6.5,5.81-4.86,6.61,1.09-.88,2.19-1.72,3.3-2.51,1.4-1,3.35-2.58,5.06-2.57,1.43,0,2.52,1.26,3.79,2.17,1.85,1.33,4.13,3.45,6.2,4.12,5.22,1.16,6.09,1.73,10.55,5.46l1.16,1,.85.27s.67-.2.71-.21c.81-.26.84-.21,1.36.38l1,1.17.05,0a8.48,8.48,0,0,1,.93.25,7.87,7.87,0,0,1,2.31,1.51,3,3,0,0,1,.44.34c.26.22,1.49,1,1.76,1.2s.26.15.57.67.52.5.14-.14c0,0-.29-.49-.32-.51a29.08,29.08,0,0,1-4.23-3.27s-.62-.11-.66-.12c-.79-.12-.78-.08-1.17-.51l-1.1-1.24-.08,0c-.05,0,.06-.06.12-.08a5.33,5.33,0,0,0,.37-.42c.44-.53.27-.62,0-.32s-.65.12-.88.15c-.84.13-3.45-1.5-4.21-2-.4-.25.14-.15.84-.45a2.07,2.07,0,0,1,2.19,0l.9.74c1.17,1,.54.38,1.17.78,0,0,.34.22.36.22a7.22,7.22,0,0,1,1.39.31c.61.19.65,0,0-.21a4.74,4.74,0,0,0-.93-.23c-.94-.18-2.76-1.69-.23-.47,0,0,.95,0,1,0a4.21,4.21,0,0,0,.44-.26c.06,0,.39-.26.45-.24s1.1.29,1.13.28a7.46,7.46,0,0,1,.94.2,10.16,10.16,0,0,1,5.83,3.45,25.74,25.74,0,0,0-2.13-2.41s-2.75-1-2.79-1c-.43-.11-1.51-.31-.73-.56.93-.29,1.06,0,2.54-.16,1.25-.1,1.22-.32,0-.22-.84.07-1.75,0-1.31,0a1.71,1.71,0,0,0,.26-.06c.13-.11,1.37-1.15,1.51-1s.23-.06.12-.15.23-.34.31-.28.17-.16.14-.18a2.39,2.39,0,0,1,.24-.21,2.11,2.11,0,0,0,.14-.25c.11-.22,1.74-.29,1.74-.36s-.34-.12-.75-.12-.5-.49-.19-1.1c.74-1.45.61-1.62-.18-.06-.68,1.35-1.27,1.16-1.71,1.17,0,0-.13.07-.17.1s-1.41-.9-1.6-1l-.94-.3a.58.58,0,0,0-.21.05c-.21.07-.57-.49-.41-.72s.09-.13.31-.42,1.17.2,1.5.34c0,0,1.88-.11,1.91-.11l.46-.21c.58-.28.5-.47-.06-.2a4.57,4.57,0,0,1-2.88,0c-.67-.29.38-1.73.66-2.09-.28.36-1.42,1.75-2.11,1.45-.08,0-4.38-1.24-4.38-1.24-3.87.8-3.31.29-2.88.25,2.23-.09,1.79,0,2.33-.32a1.18,1.18,0,0,1,.83-.09c.06-.15-.31-.26-.19-.41s.74.19,1,.16c2.16-.24,0-.22-.39-.32-.57-.17.63-1.75,1.74-2,.87-.2,1,.1,1.17.51a.09.09,0,0,0,.07.05,5.63,5.63,0,0,0,1,0l.46-.06a11.72,11.72,0,0,1,2.87,1,9.46,9.46,0,0,0,1.81.7c1.09.46.8.39,1.41.35,1.25-.08-.42-.16-1.37-.56a9.45,9.45,0,0,1-1.81-.7c-1.07-.52-2.35-.87-2.1-.93a30.57,30.57,0,0,0,4-.28c1.25-.2,1.22-.41,0-.21-1.56.23-4.2.32-4.2.32-.5.12-1,.17-1.38.23-.62.08-1.46-.5-.15-.81h0c.13-.1,1.8-1.42,1.91-1.28s.23,0,.13-.13.12-.23.36-.41c.56-.42,1.66.33,2.25.76a29.13,29.13,0,0,0,3.88,2s-5.61-3.11-5.46-3.23,0-.26-.14-.14a10.23,10.23,0,0,1-2.11-1s.57-.38.6-.42,3.1,1.79,1,.28a.82.82,0,0,1,.18-1.54c.24,0,1.21.1,1.45.11a8.48,8.48,0,0,1,.86.07c.06,0,1.23.88,1.3.88a12.82,12.82,0,0,1,4.56,1.6c1.69,1.11,3.17,2.48,2.15,1.33a13.43,13.43,0,0,0-2.51-1.79c-.6-.35-1.85-.75-1.51-.78.13,0,1,.23,1,.15s-.49-.33.09-.2c0,0,1.08-.14,1.07-.25s.66-.34.86-.36c1-.19,1-.17,2.76.25.36.09.68-.52,1.51-.12a1.42,1.42,0,0,0,.22.1,1,1,0,0,1,.58.2c.48.28.51.06.22-.11s.15-.33,1,.44,1,.57.21-.11-.11-.28-.14-.64a2.25,2.25,0,0,1-1.12-.49l-.68-.62c-.23-.22-.26-.13.23-.57s.85-1.07,1.43-1.33a10.57,10.57,0,0,1,1.77-.65c1.8-.61,1.74-.82-.06-.22a12.28,12.28,0,0,0-2.22.86s-.33.4-.35.43a6.83,6.83,0,0,1-1.11,1.1,1.66,1.66,0,0,1-.52-.39c-3.21-3-2.41-1,2.24-2.46,1.81-.58,1.74-.8,0-.23a11.45,11.45,0,0,1-3.64.67,3.41,3.41,0,0,1-1.24-.37,20,20,0,0,0-2.05-.94c-1.29-.53-.86-.43-.65-1.65a1.45,1.45,0,0,1,1-1.18c.06,0,.11,0,.16,0a3.24,3.24,0,0,0,.33.05c.4.05.37.06,1.35.81,0,0,.82.63.84.64.72.24,3.22,1,3.65,1.48s.61.33.12-.2a5.69,5.69,0,0,0-.41-.42,18.34,18.34,0,0,1-4-1.62c-.73-.56-.38-.42,0-.31a8.58,8.58,0,0,0,1.87.38c0-.15.52.12.55,0s-2.14-.92-2.23-1-.44-.27-.47-.27-.33,0-.18,0,1.85,0,2,0c0,0,1.89-.12,1.92-.14s.79-.58.73-.7a4.07,4.07,0,0,1-1.73.57,10.45,10.45,0,0,1-1.87,0,7.27,7.27,0,0,0-2.09.16c-.24.1-.19,0-.69-.13-.2-.07-.3-.22-.22-.33s.14-.22.12-.24.47-.19.58-.25l.61-.34a.14.14,0,0,0,0-.06s.66-.65.68-.68a.18.18,0,0,0,0-.07,3.49,3.49,0,0,0,.94-1.07c.27-.59.18-.1.48,0,.46.1.75.1,2.07,1.4.14.14,2,1.62,2.08,1.44l-2.77-2.34c-.52-.44,3.05-1.51,3.05-1.52,0-.18-3.54,1-3.67,1-2.56-.58,3.12-6,.56-3.44,0,0-.73.71-.74.74-.19.38-.7,1.49-.64.91.29-2.67.15-2.18,1.61-3,1.7-1,5.27-.91,1.25-1-.8,0-4.32,3.44-.71-1.14.24-.3,1.6-6,.34-1.74-.66,2.2-1.82,3.31-1.71,2.91,0,0,.11-.39.11-.41.11-2.95,0,.51-.95,1.73A10.08,10.08,0,0,1,191,91.68c-.17.12.18.25-1.1-.44-2.65-1.45-.59-1.71,1.64-3.31,0,0,1.78-1.82,3.16-3,1.67-1.39,1.56-2,1-1.21-2.82,3.59.12-1.1,1.47-2.2,0,0,.78-.62.79-.65,1.59-3-2.33,2.32-4.53,4.78-6.24,7-5.7,1.39-2.76-2.05,4.75-6.82,4.73-7.12-.13-.15-.25.3-2,2-2.07,3.74-.09,2.23,0,2-.94-1-1.53-4.85-1.42-3.93-.16.07,1.13,3.52,1.92,3.2-2.5,5.42-.11.05-1.7.87-1.81.87s-.06-1.09-.06-1.13a4.35,4.35,0,0,1,.1-1.65,6,6,0,0,1,1.41-2.2c-.19-.83,1.82-3.56,1.84-4,.09-2.51,0-.43-.93,1.37-1.17,2.21-1.32,2.7-.53.28,1.26-3.87-3.06-3.79,6.5-4.62,1.24-.18,1.22-.46,0-.28-.6.05-1.46.17-.24-.36,3.16-1.38-1.63.45-2.06.52a7.83,7.83,0,0,1-2.4.07c-1.41.47-1.62,1-2-1.4-.44-2.73-.62-2.7-.17.05.15.91.38,2,.07,2.18-2.3,1-.27.12-.72-4.75a4,4,0,0,0-2.38-2.86c-.78-.21-1.09-.44-1.23-1.68-.17-1.49-.25-1.75,1-2.15,2.31-.75,5.13,2.89,10.73,2.2,5.75-.06,3.26-1.52,6.33,1.51,3.39,3.39,7.68,4.18,10.1,6.13a40.59,40.59,0,0,0,3.18,2.59,11,11,0,0,0-1.52-1.43c-2.43-2.08-1.75-1.69-5.77-3.65-12-5.92-5.29-7-2.71-4.59,1.39,1.31-.84-2.5-4.87-1.06a21.44,21.44,0,0,1,11.75-.79c3,.76,6-1,2.79-.37-1.88.37-3.67-.37-4.39-.45-1.14-.13,5.18-.63,6.21,0S213,69.41,212.55,69.42Zm-40-31.49a2.45,2.45,0,0,1,.1-.77C173,36.31,172.53,46.71,172.54,37.92ZM171,43.57c0-.06.56,1.92.53,2A6,6,0,0,1,171,43.57Zm3.48,79.62a.54.54,0,0,1-.69.14C173.45,123.17,174.59,123,174.43,123.19Zm18.45-24.62a12.53,12.53,0,0,1-2.12-.67C191.45,97.72,194.23,98.92,192.89,98.57ZM189.39,69a9.22,9.22,0,0,0,2.38-.39c1.11-.09,4.13,2.58,2.77,2.5a48.09,48.09,0,0,1-4.75-1.35C187,70.38,187.61,68.4,189.39,69Zm-3-.83c.71.58-3.25.45-1.75-.23S185.36,67.33,186.35,68.14ZM184.26,60c.77-.07-.15.52-.62.55S183.43,60.09,184.26,60Zm-1.83.91a3.92,3.92,0,0,1-1,.22C179.32,61.38,185.75,59,182.43,60.92Zm-6-2.46a23.58,23.58,0,0,1,1.48-3.8c.12-.38.07,1.12-.7,3.11C176.75,59,176.21,59.85,176.46,58.46Zm.44-6.56c0-1.32,1.55-5.38,1-3.15,0,0,.33,4.56,0,5.55C176.29,59.19,176.88,53.69,176.9,51.89Zm2.3,5s-2.62,2.78-2.14,2.12c2-2.72,0-7.64,4.39-9.69.48-.23.39-.43.22,2.28S181.3,56.2,179.2,56.88Zm4.59-8.07c.41,0,.83-.12.54.86s-2.66,4.85-2.48,1.81C182,48.66,181.57,49.13,183.79,48.81Zm-2.39.3c-.54.25-.66.48-.2-.19C182.16,47.54,181.8,48.92,181.4,49.11Zm-2.3-3.38c.27-2,.13-3.16.59-3.8.26-.36,1.24,2.68.79,3.14C177.56,48,179,46.75,179.1,45.73Zm1.17-.17c.5-.51.66-.79,1.33,1.91.28,1.12-2.57,3.19-3.13,5-.11.35-.2.69-.17-.38C178.38,47.8,177.39,48.54,180.26,45.56Zm-4.59,6a3.75,3.75,0,0,1-.2,1.08C175.23,53.23,175.7,50.69,175.67,51.58Zm-.74,5.06s0-1.26,0-1.3a2.66,2.66,0,0,1,.44-2c.84-2,.17-2.89,1.06-4.36,1.18-1.94,2-2.14,1.69-1.56a29.79,29.79,0,0,0-1.38,3.25c-.27.64.24,14.56-2.32,7.66C174.3,58,174.79,57,174.93,56.64Zm4.73,5c1.25-.35-2.25,1.16-3.45,3.28-.19.34-1.45,2.3-1.19.82C175.15,64.95,179.07,61.78,179.66,61.61Zm-5.4-2c1.23,2.85-1.46,5.87-1.36,5.16C173,63.73,173.84,58.66,174.26,59.63Zm-.43,5c2.27-4-.82,1.67-.95,2.05C172.19,68.77,172,67.29,173.82,64.63Zm.74-.16c-.28,1.63-3.23,4.88-1.24,1.87C174.28,64.9,174.81,63.05,174.57,64.47Zm-2.4,4.39a8.59,8.59,0,0,0,1.33-1.68c1.43-2.35.6.45.44.82C173.7,68.54,172,69.25,172.16,68.87Zm.13.37c.78-.39,1.8-.88-.48,1.39C171.42,71,171.73,69.52,172.3,69.24ZM176,73.93a3.74,3.74,0,0,1,0-1.67,11.92,11.92,0,0,1,2.38-.4s-2.14,0-2-.25,3.38-1.37,3.43-1c0,.15-.13.43-.18.87-.1.79,0,1.14-.19,1s-.33.08,0,.28c.67.48-.93,3.15-1.1,5.57-.06.86.18,1-1.23-1.69-1.14-2.15-1.14-2.17-1-2.51S176.07,73.8,176,73.93Zm3.23,17a3.35,3.35,0,0,1-1.76,1.47c-1.41.62-1.53,1-.17-1.13l1.48-5.64c.09-.75,1.64-1.88,2.5-2.36,2.24-1.24,1.12-.15.32,1.2s-.69,1.76-.61,3.13C181.1,89.68,179.87,90,179.24,90.94Zm1.85-1.48c0,.7-1.58,2-2.08,2.27S181.07,89.23,181.08,89.47Zm1,3.57c-.1,0,.37-.14.47-.16.31-.07.35.63.24,1s-.43-.26-.63-.35S182.09,93.05,182.06,93Zm-2,7.76c0-.14-.16-.23-.21-.06s-.32-.18-.67-.58c-.8-.89,3,.52,2.79.64A7.6,7.6,0,0,1,180.05,100.79Zm.9.88c-.23.37-1-.5-.3-.44S181.27,101.15,180.95,101.67ZM172.19,109c.17-.16.44,0,.78.11.74.3-.44.72-.93.93C170.37,110.87,170.07,111,172.19,109Zm.72,2.39a2.07,2.07,0,0,0-.71,0c-.91.29-.7.33-1.11-.11C170.21,110.36,172.46,111.32,172.92,111.41Zm-3.82,4c.23.19.06.15-.37-.11C168,114.85,167.92,114.39,169.1,115.4Zm2-1.14c.7.47-2,.52-2.24.25S170.2,113.69,171.06,114.26Zm.15,2.83c.35.39-.91.24-1.32.21a10,10,0,0,1-3-2C167.9,114.62,170.95,116.79,171.21,117.09Zm1.54.27c.12-.23,1.12.71,1.3.9C174.91,119.17,172.59,117.66,172.75,117.36Zm2.24,2.13c.24.31-1.35-.78-.89-.61A3,3,0,0,1,175,119.49Zm-1.56-1.19c.27.24-.14.17-.39,0S172.49,117.46,173.43,118.3Zm-1.67.95c-1,.09.12-.36.4-.83S174.63,119,171.75,119.24Zm-7-15.49-.54-.08c-.91-.14,2.59-2,4-3.92,1.31-1.74,1-.9,3.85,1,1.22.79,1.24.81.81.86a37.41,37.41,0,0,0-6.09,2.32c-.71,1-.68.87-1.51.26-.17-.12-.13-.26.07-.32s.36-.14.35-.2S164.83,103.8,164.72,103.75Zm-5.11.28c-1.21.3,13.9-8.43,7.06-3C161.89,104.83,165,102.68,159.61,104Zm4.07,0c-.75.2-.31-.28.19-.2C164.08,103.87,164,104,163.68,104ZM160,99.81c-.32.86-.42.73-.17.06S160.33,99,160,99.81ZM159.64,98c-.13.32-.72.57-.26-.13S159.79,97.65,159.64,98Zm-1-3.85c-.21,0-.36-.09-.34-.15a23.7,23.7,0,0,1,2-2.5C160.7,91.39,159.17,94.23,158.62,94.17Zm.17.41c-2.06,3.57-1.27,1.56-.73.06C158.21,94.23,158.93,94.35,158.79,94.58Zm.92,4.88c.25-.6-.24,1-.4,1.35,0,.11-1.3.77-1.38.65S159.65,99.62,159.72,99.46Zm-1.09,2c.66-.35.58-.33.19.21C158.23,102.48,157.95,101.83,158.63,101.46Zm0,1c1.13-1,1.56-3.38,2.23-3.75,3.71-1.49,7.76-1.4,6.82-1S158.13,103,158.68,102.48ZM179,97.73c-.15-.08.14-.2.28-.28s.36-.64.58-.55S179.18,97.83,179,97.73Zm1.84-.49c3.34,1.11-.9,1-1.22.83S179.9,96.93,180.86,97.25Zm-1-.81c-.16.21-1.2-.27-.24-.44S180.08,96.15,179.82,96.44Zm-3.26-.28c-.6-.65,2,.2,2.36.34C180.44,97.15,178.39,98.14,176.56,96.16Zm2,2c-.33-.05-.21-.45.18-.24C179,98,178.76,98.18,178.58,98.15Zm-2.83,9c.28.54-1.31-.26-.43-.43C175.43,106.66,175.62,106.86,175.75,107.11Zm.19-1.14c.9.36-.18.76-.55.06C175.29,105.84,175.53,105.82,175.94,106Zm-1.38.63-.77-.49c-1.25-.82.55-1.68,1.37-.12C175.56,106.74,174.9,106.36,174.56,106.61Zm-8.55,7.1c-.42-.23.1-.13.65-.18C167.38,113.46,169.24,115.45,166,113.71Zm.68,1.31c-.35.22-.43.1-.58-.06-.6-.61-2.47-1.71-.93-1.4C165.42,113.61,167.1,114.77,166.7,115Zm-.43-2.33-2.59.25c-.57.11-.67-.75-1-.93-1.23-.68.66-1.63,1.91-.35C165.46,112.53,169,113.56,166.27,112.69Zm-4.7-1a2.24,2.24,0,0,1,1.24.75C163,112.73,160.86,111.72,161.56,111.73ZM164.3,110c2-2.77,2.1-2.74,3-1.91,2.41,2.26,2.13,1.45.88,2.43s-2.14,1.41-3.41.77C162.46,110.16,163.65,110.94,164.3,110Zm6.59-7.35c1,.22,3.4-1.33.24.76C163.59,108.42,169.13,102.31,170.89,102.7Zm-4.29,1.79a4.31,4.31,0,0,1,1.41-.9C169.61,102.9,165.37,106.21,166.6,104.49Zm5.91-2.64c.42,0-.69.81-1.43.65C170.83,102.44,172.22,101.88,172.51,101.85Zm-1.4,3.84c2.34-.88,1,1.12-1,.8C169.74,106.42,169,106.46,171.11,105.69Zm-1.54,0c.67-.09,1.69-.57,1.13-.22C169.75,106.1,169.09,105.78,169.57,105.72Zm2-.42c-.42.16-.17-.43,1.24-.36.45,0,.65.16.45.3C172.53,105.71,172.31,105,171.53,105.3Zm-.14-.41a7.82,7.82,0,0,1-2.21.67C167.7,105.75,171.67,104.4,171.39,104.89Zm-3.35,1a6.47,6.47,0,0,0,.94.12c2.33.22-1.44.13-2.13.8C165.73,107.85,167.6,105.68,168,105.86Zm1.48,4.2a2.61,2.61,0,0,1,.48.38c.06.07-1,.17-1.07.19C167.89,110.83,168.54,110.44,169.53,110.06Zm1.06-.41c1.43-.56-.2.91-.4.7S169.6,110,170.59,109.65Zm-1.42-.15c-.43-.33-.26-.29,0-.23s3.35-1.3,2.64-.42C171.55,109.15,169.67,109.88,169.17,109.49Zm1.75-1.08a6.2,6.2,0,0,1-2.15.52c-.4-.1-2.22-1.57-2-1.81,1.34-1.28,3.6.27,5.4-1,.77-.53,2.59.26,1.06,1.39C171.12,109.16,171.84,108.11,170.92,108.41Zm2.07-3.95c.75-.32.8-.56-.27-.11-.33.14-1.09.52-.9.18s0-.34-.19-.07-1,.16-1.24.15-2.09,1-.44-.08c4.43-2.88,3.15-2.87,5.12-2.12.53.2.73.4.17,1.13C173.84,105.36,172.37,104.73,173,104.47Zm-1.81-6.71c-.09-.3.47-.14.71,0s-1,.38-.69.26C171.23,98,171.22,97.87,171.19,97.75Zm.33.79c-.14-.21,1.14-.45,1.35-.35C176.76,100,171.76,98.9,171.52,98.54Zm1.81-.57a6.47,6.47,0,0,1,1.46.23s0,.17-.11.33c-.2.38-.21.3-.67,0C173.78,98.39,173.09,98,173.32,98Zm-1.81.89c0,.05,2.39.54,2.44.55.38,0-.06,2.85-3.52-.3-.82-.74-.82-.59.09-.66S171.35,98.62,171.52,98.86Zm2.43,1.49c.62-1.19.92-1.08.27-.1S173.36,101.47,173.95,100.35Zm.85-.31c.39-.63.86-.35.12.2S174.39,100.69,174.8,100Zm.24-2.45c-1.68-.32-1.55.13-2.5,0s-1.66-.44-.38-.51a13.86,13.86,0,0,1,1.89-.38c1-.09,2-1.16,1.76-.38C175.74,96.49,175.22,97.65,175,97.59Zm-2.43-1.51c.38-.14.85-.73.91-.75.44-.16.9,0-.08.43S172.16,96.24,172.6,96.08Zm2.25-.49c.39,0,.81.11,0,.22C174.33,95.9,174.65,95.62,174.86,95.59Zm1.28.66c3.71,2.84-.76,2-.43.93C175.75,97.06,176,96.19,176.14,96.26Zm-.2,3c.48.43-.74.18-.63,0A.44.44,0,0,1,175.94,99.22Zm.25-.91c.25.07.26.21,0,.32C175.26,99,175.59,98.15,176.18,98.31Zm.92.36c.15.09.33,0-.31.34C175.31,99.69,176.61,98.35,177.11,98.67Zm0,.61c.14-.08.39-.26.54-.2.34.14,2.88,2.49,1,1.41C178.28,100.32,176.22,99.8,177.11,99.28Zm.45-.78c-.22-.12-.24-.09,0-.2C178.75,97.72,178,98.77,177.56,98.5Zm-1.94-3.2c-.57-.16-.59.07-.13-.87.34-.71,2.16-1.63,1.61-.53C176.8,94.49,176.18,95.46,175.61,95.31Zm-1-.26c-.76-.22-1.35-.07.51-.92C175.38,94,174.75,95.08,174.62,95Zm-6.23,1.18c-1.41.23.68-3.4.24-3,1.83-1.77.1-1.17,3.1-2.44,1.63-.89,2.24-1.25,3-1.23,1.12,0-.08-.39-.51-.22-4.66,1.72-3.74,2.72-3.88.49-.05-.82-.1-.95.86-1.17,4.86-1.13-3.17,1,.81-1.75a18.51,18.51,0,0,1,3.18-.58,7.07,7.07,0,0,0-3.27.39c-1.63,1.14-1.22,1.77-1.12-.26,0-.77-.13-.78-.17,0,0,1-.12,1.46-1,1.87-.43.21-.73.39-.7,0,.09-1.07.35-4.45.48-5.12.22-1.09.59-.78.81-2.08s.06-.19,1.46-2.75c.81-1.48,3.1-3.28,3.31-1.94C176.18,83.64,181.24,94.13,168.39,96.23ZM166,95.82c-.8.3.25-.09,1.28-1.24s1.09-1.1.55.28C167.33,96.08,167.21,95.36,166,95.82Zm.32.68c-1.79-.25.37-.71.73-.62C167.63,96,166.67,96.56,166.29,96.5Zm3.9-7.43c-.12.57.31,1.49-.62,2.7-1.18,1.53-.89,1.55-.64-2.25C169,89.05,170.26,88.75,170.19,89.07Zm.13-.62c-.07.35-.12.25-.75.35C168.76,88.93,170.37,88.25,170.33,88.45Zm-.3-7.06a5.21,5.21,0,0,1-.64,1.19c-.93,4.71,0,6.14-1.28,3.87-1-1.76-.08-3.21,1.4-5C170.16,80.72,170.13,80.76,170,81.39Zm-1.34,7.19c0,.64-1.55.19-1.31-.95a9.53,9.53,0,0,0,.24-1.23C167.68,85.89,168.7,88,168.68,88.58Zm-.4.43c-1.61.53-2.14,1.91-1.19-.07C167.2,88.73,168.4,89,168.28,89Zm.22.18c.19,0,.14.51.13.74-.16,3.22-.23,3.27-1.49,4.48a5.8,5.8,0,0,1-3.51,1.95c-1.7.17-1.62.47-.56-.87C164.45,93.74,165.35,89.69,168.5,89.19ZM163,104c-.62.67-1.69.52-3.84.44C158.81,104.38,164,103,163,104Zm4.14,1.52c.62.25-1.27,1.14-2,.87-.3-.11-2,.65-.76.1C166.88,105.38,166.26,105.13,167.16,105.5Zm-3,1.49c.4,0-1,.65-.84.46C163.73,107,163.67,107,164.18,107Zm1.68.73c-1.17,1.12-2.14,3.32-3.31,2.5-1-.71-6.53-.47-1.16-1.75C161.84,108.36,167.92,105.76,165.86,107.72Zm-3.54,3.36c-.57.37-1.16.64-1.65.08-.32-.37-2.24-1.77-2.08-1.72C161.75,110.42,163.54,110.28,162.32,111.08Zm-1.85.13c.35.4-.95-.23-2-.2s-1.51-.59-2.06-1.34S158.76,109.22,160.48,111.21Zm1.55,1.2c1.38.84-1.21,1.24-1.5,1-1.1-.9-1.2-1.33-2.18-1.9S159.87,111.11,162,112.42Zm2,1.19c.06,0,.8.59.86.63,1.56,1.16,1.32,1.08.91,1.36-1.6,1.08-2,.47-3.74-.92C161.23,114,163.72,113.43,164,113.6Zm2.34,2s1.82,1.36,2.53,1.82c2,1.27,2.56,2-.14,2.09-1.31,0-2.34-2-2.66-2.18C163.68,116.1,164.37,116.86,166.38,115.59Zm2.6,1.63a13,13,0,0,1-1.27-.88C166.84,115.65,169.14,117.23,169,117.21Zm.74.28c1.42.13,3.47.25,1.77,1.28C171,119.06,169.43,117.47,169.72,117.5Zm2.59,0c.22.14,0,.51-.65-.25C171.25,116.81,171.37,116.92,172.32,117.53Zm-1.8-1.66c.08-.42,2.25,1,2.08,1.38S170.45,116.25,170.52,115.87Zm-5.57-4.21c1.28.66,8.82-3.08,2.8,1C167.1,113.13,164.19,111.26,164.95,111.65Zm5.56-.52c.05,0,.23.1.4.28C171.46,112,165.59,113.51,170.51,111.13Zm3.2-3.6a1.93,1.93,0,0,1,2.54.52c.17.33-1.29.75-2,1C173.87,109.27,171.64,109,173.7,107.53Zm2.75-.71c1,.22,1.05.62.23,1.26C176.39,108.31,175.5,106.6,176.45,106.81Zm.71-.11s-.2,0-.46-.05C176.12,106.52,177.11,106.3,177.16,106.7Zm-.34,1.63.3-.22c.16-.12,0,.65-.1.85S176.61,108.5,176.83,108.33Zm.88-.87a.9.9,0,0,1,1-.17s-1,1.35-1.28,1.91C176.79,110.15,177.45,107.82,177.7,107.46Zm-.21-.87c.13.05.32.09.25.21C177.55,107.1,177,106.4,177.49,106.59Zm-.74-1.27c.32,1.06-1.37.31-2.13-.22s0-.41.21-.72c1.34-1.76.79-1.51,2.93-.65,1.14.45,1.44.23.7,1.67C178.12,106.06,176.06,103,176.75,105.32Zm.2-2.43a5.63,5.63,0,0,1,1.4.68C179,104.17,173.68,101.74,176.95,102.89Zm1.56.52c-1.73-1.59-6.57-1.12-3.13-3.12.8-.47,3.21.47,3.87.87,0,0,.44,0,.47,0a22.81,22.81,0,0,1-.77,2.62A4.81,4.81,0,0,1,178.51,103.41Zm1-.78c.46-1.7,1.26-.75.5.47S179.12,104.2,179.55,102.63Zm.45-4a21.59,21.59,0,0,1,2.92,1.62C182.31,101.2,174.48,97.82,180,98.66Zm.81-.13c.73-.13,3.43-.27,3.22.06l-.46.7C183,100.21,180.37,98.6,180.8,98.53Zm3.55.2c1.2.67-.33,1.37-.72,1.35S184.19,98.63,184.36,98.72Zm.24-.29c.79,0,1,.67-.09.07C184.47,98.49,184.48,98.43,184.6,98.44ZM185,99.5c.2-.33,1.14.19.12.39S184.72,100,185,99.5Zm1,.44c.09,0,.86.5.95.56.3.21,1.7-.51,1,.88-.66,1.23-1-.22-2.8-.81C184.08,100.21,185.65,100.14,186,99.93Zm.36-.47c-.34.19-1.14-.38-1.06-.52C185.67,98.37,186.69,99.29,186.39,99.46Zm-.32-1.14c1.08-.84,1.34.18,2.07.23l-.68.32C187.25,99,185.78,98.55,186.07,98.32Zm-.77-.11A1,1,0,0,1,185,98s1.42-.28,1.43-.27S185.67,98.43,185.3,98.21Zm-.51-.42c-1.16.22-4.27-.93-4.4-1.13s-.77.27,0-.34c1.15-.94-.47-.46,2.9,0C186.41,96.74,185.41,97.67,184.79,97.79Zm-1.59-1.7c-2.56-.34-1.57-.25-1.28-.52,1-.9.75-.92,1.22-.46C183.88,95.84,184.85,96.31,183.2,96.09Zm-1-1.87c.68.66-1.3,1.84-1,.74a4.72,4.72,0,0,1,.58-.81C181.92,93.92,182.05,94,182.24,94.22Zm-.89-.12c-.54,1.73-.84,1.48-2.12,1.58C172.29,96.26,182.1,91.68,181.34,94.11Zm-.77-1c-1,.36-1.41-.22-2.82.83-.89.66-.63.35-.3-.33C177.93,92.63,181.32,92.86,180.57,93.13Zm-3.84.1c-.07,0-.08-.1.56-.39S177.83,92.91,176.73,93.22Zm-1.86.46c-.33.15,1.74-1.95,1.85-2.71.64-4.56.53-4.38,1.2-5.37.52-.78.41-2,.44-5.51a30,30,0,0,1,1.43-6.91c0-.09.22.06.24.11C180.75,76,177.89,92.3,174.87,93.69Zm5-21.13c.16.59-.21.25-.08-.75v0A2.63,2.63,0,0,0,179.83,72.55Zm-1.65,7.87c-.13,14.37-3.32-4.91-2.79-5.27a1.28,1.28,0,0,0,.45-.44C175.87,75.22,178.2,78.37,178.18,80.42ZM175.07,75a21.84,21.84,0,0,1,.56-2.18c.1-.17.22,1.35,0,1.67S175.08,75.1,175.07,75Zm.13-1.34c-.55,2.21.39-2.62.47-1.47A14.52,14.52,0,0,0,175.2,73.71Zm-.44.27c.18,1.38.31,1.13-1,2s.09-1.44.61-2.4C176.26,70.77,174.67,73.32,174.76,74Zm-2.84,1.88c-.3.54-2.05,3.77-1.68,2.89C174,70,175.09,70,171.91,75.86Zm-.59-4.2c.1-.41,2.43-3.22,1.61-1.33C172.24,71.91,171.21,72.06,171.32,71.66Zm.52.3c.42-.11.32.15,0,.78-.16.37-2.89,6.37-1.77,3.61C170.61,75.11,170.76,72.25,171.84,72Zm-2.28.61c-1.51,1.22-2.28,2.46-3,2.31-.13,0-1-.34-.87-.43C172.68,67,170.19,72.06,169.56,72.56ZM165,74c-.13-.1-.22-.21-.19-.24C165.66,73,165.25,74.22,165,74Zm.28,1.17c.08-.48.3-.49.69-.31s.65.2.41.33a3.79,3.79,0,0,1-1.14.27A1.8,1.8,0,0,1,165.23,75.16Zm-.12,1c.09.55.07,1.08-.15.28S165,75.62,165.11,76.16Zm.24,2.38c0-.08,0-.85-.06-.92a6.56,6.56,0,0,0,0-1.49c-.09-.55,1.23-1,2.9-.69.12,0,.94.13.95,0s-.82-.19-.93-.2c-.37-.08-1.17-.19-.72-.45,0,0,.4-.22.42-.24a6.78,6.78,0,0,1,1.93-1.93c.31-.25.25-.33-.1,1.06-.17.67-.31,1.21-.31,1.2-.25-1-.79-1.48-.39-.46a1.77,1.77,0,0,1,.23,1.14c-.17.68-2.11,5.11-2,4.75-.57,1.33-.26-2.75-.08-2.64-.1-.06-.41.87-.46,1-.14.38.33,3.26-.23,2.83-.09-.07.14-.44,0-.51s-.11,0-.16.15-.26.07-.47-.09C165.1,80.37,165.41,79.45,165.35,78.53Zm.51,3c-.09-.26,0-.38.12-.26C166.35,81.56,166.08,82.18,165.86,81.54Zm.16,5.39.93-1.53c.21-.35.58.35.52.86C167,89.55,165,88.55,166,86.93Zm-2.44-.41c-.58,1-1.33,1.75-1.69,1.77a2,2,0,0,1-.63,0C161.26,88.17,165.12,84,163.57,86.52Zm-1.76,2c.69,0-.29,1.4-.62,1.94,0,.05-.19.35-.19.28C161.06,90.06,161.11,88.55,161.8,88.5Zm.29,5.31c.36-.22.91-1.68.19-.61-.22.32,2.39-4.9,3.76-4.63,2.31.45-.66,1-2.11,5.22a10.51,10.51,0,0,1-3.54,3.91C160,97.92,161.08,94.43,162.09,93.81Zm-2.48-4c.36-.22.81-1,.8,0s.07,1.39-.24,1.49-1.36,2-1.14,1c.87-3.72-.25.49-.63,1C156.62,95.48,157.49,91.16,159.61,89.83Zm-2.24,4.42c1.24,0-.27,2.55-1.07,3.64C154.95,99.73,157.31,94.25,157.37,94.25Zm-.25,11.24c1.53-1,1.68-.87,2.06-.83.91,0,2,0,.51.42C157.68,105.59,155.36,106.65,157.12,105.49Zm3-.3c9.73-2.51,4.45,1.55,3.22,1.55a8.28,8.28,0,0,0-2.54.33c-.1,0,3.87-1.74,3.83-1.85s-4.41,1.8-4.68,1.72S151.53,107.4,160.09,105.19Zm-4.79,1.5c.21-.14.43,0,.65.14C156.37,107.12,154.39,107.28,155.3,106.68ZM154.17,108c1.52-1.19,2.85-.32,3.28-.37,9.79-1.21,4.09.29,2.75,1.07C158.46,109.65,153.72,108.31,154.17,108Zm-.67.52c.51-.4,1.13,0,.63-.1S152.63,109.16,153.5,108.48Zm-1.91,2.08c-.25-.25-.49-.38.15-1s.38-.53,1.53-.61c2.59-.17,2.95.8,3.79,2,.7,1,6.48,3,.2,2.58C155.14,113.45,154.8,113.23,151.59,110.55Zm9.13,6.64a2.74,2.74,0,0,1-1.82-.78,21.18,21.18,0,0,0-2.92-2c-.51-.48,2.73.25,4.36-.08.94-.19,1.58.56,3.47,2A17,17,0,0,1,160.72,117.19Zm3,1.08c-.81-.26-2.8-.71-1-1.26,1.36-.41,1.9-.83,3,1.15C166.39,119.33,164.5,118.54,163.71,118.27Zm8.46,5.5c-1-.31-.37-.26.56-.43C174.27,123.1,173.12,124.07,172.17,123.77Zm.53-.65c-.8.15-1.18.25-1.63-.24s-7.76-5-2-2.06C170.51,121.74,172.91,123.09,172.7,123.12Zm-2.25-2.86c-3.44,1.47-7.19-6.13-3.06-1.1C168.59,120.59,174.37,118.59,170.45,120.26Zm3.23.3c-1.65-.64-2-1.11-1.79-1.12,4.27-.43,2.75,1.07,4.55,1.52C177.12,121.13,176.67,122,173.68,120.57Zm4.34.53c-.21-.05-.27-.13-.14-.18.81-.28-.73,0-1.25-.16-1.23-.31-2.47-2.79-1.18-1.15.07.09,3.63,1.4,3.68,1.39A1.72,1.72,0,0,1,178,121.1Zm5.28-2.66c-.18.35-.4.39-.69.17s-.28-.25-.25-.27S183.4,118.26,183.3,118.44Zm-.89.31c.41.31.1.57-.31.24S182,118.44,182.42,118.75Zm-.82,1.14c-1.52,1.21-3.84.71-2.42.62a15.14,15.14,0,0,0,1.66-1.09C181.92,118.65,182.45,119.22,181.59,119.9Zm-.64-1.83a9.2,9.2,0,0,0-1.39-.93C180.59,116.75,183,119.69,181,118.06Zm-1.14-.52c2.15.91,1.09,1.64-.28,2.48s-5.38-1-3.58-.87c.33,0,.6,0,.6-.07,0-.26-1.15,0,0-.36,1.69-.48.62-.78,2.15-1.3C179.34,117.2,179.13,117.25,179.82,117.54Zm-1.25-.64c.37-.53.73.05.16.25C178.48,117.23,178.41,117.12,178.56,116.9Zm.64-1.27c-.32.41-.18.7-1.84-.31C175,113.88,179.58,115.14,179.21,115.63Zm-2.18-.29c.92.56,1.5,1.25,1.3,1.54-1.31,1.89-3.18,2-3.44,1.63-.07-.09,1.35-1.14.22-.49-.23.13-1.07-.6-1.89-1.63C171.8,114.6,172.88,112.81,177,115.34Zm-4.1,1.06c2.73,3.45-.28.13,0,.36-1.69-1.35-5.69-1.93-2.1-1.9C171.25,114.86,171.15,114.16,172.92,116.4ZM168,113.72c-.73-.71,2.63-2.65,6-.49C174.83,113.76,168.28,114,168,113.72Zm6.38-.68c-.28.36-.9-.75-1.24-.81-2.15-.44-1.11-.62-.39-.52C173.3,111.78,174.61,112.75,174.39,113Zm.88-1.15c-.25.33-.62.92-.95.58-.91-.92-1.17-.59.6-1C175.82,111.25,175.5,111.57,175.27,111.88Zm.75-1c-.14.19-1.56.52-1.17.22.84-.64-.5.39-1.92.11-2.23-.44-1.59-.53.12-1.26,1.21-.52,3.5.42,1.85-.26-.68-.28-.44-.34-.15-.47.67-.25,2.72-1.2,1.8.74C176.15,110.81,176.2,110.65,176,110.88Zm.3,0s.68-.68.78-.82.2,0,.3.21C177.63,110.69,176.22,111.09,176.32,110.87Zm2.24-2.92c.57-.62.67-.44,1.35.41C181.2,110,174.82,112,178.57,107.95Zm.93-.4c-.17-.2-.57-.34-.13-.31C181.35,107.39,181.67,110.26,179.5,107.55Zm-.69-1.32a2.57,2.57,0,0,1,1.23.23C179.09,107.76,177.16,106.35,178.81,106.23Zm.93-.11c-.8-.25-1.37.12-.77-.83s1.26-.12,1.76,0C181,105.31,180.31,106.29,179.74,106.12Zm.33-1.43c-1.52-.95,1,.34,1,.36C181,105.22,180.24,104.79,180.07,104.69Zm1.52.43a2.33,2.33,0,0,1,1.64.16A8,8,0,0,1,181.59,105.12Zm.27-.32c-.43.06-2.38-.33-1.61-1.55.61-1,.76-.63,1-.37C185.22,106.81,183.38,104.59,181.86,104.8Zm-.47-2.15c-1-1.12.94-1.79,2.2-2.05.75-.16,6.22,1.06,1.91,3.82C183.74,105.55,184.52,105.7,181.39,102.65Zm7.35,3.83c-.38,0-1.4-.27-.61-.18C188.52,106.34,189.81,106.39,188.75,106.48Zm3.41-.6c-.4-.08-.17-.14,1.12,0C194.26,105.94,194.14,106.29,192.16,105.88Zm3.18-.46c.28.26.8.67.42.7C192.58,106.31,194.24,104.39,195.34,105.42Zm-1-.92c.81.75-4.58,1.6-2.42.85a19.11,19.11,0,0,0,2.15-1S194.19,104.35,194.35,104.5Zm-.43-.4-3.35,1.76a13.31,13.31,0,0,1-4.13,0c-3-.12-1.72-.72.38-2.06.46-.29.21-2.28,2.67,0,.56.53.92.33-1-1.1C187.23,101.85,188.23,98.79,193.93,104.1Zm-5.09-4.85c-.26,1.53-.47,1-.87,1-2,0-1.64-1.11-.5-.43.77.47.8.2.17-.19s-.42-.48.26-.29.62-.08.18-.21.29-.21.51-.51S188.94,98.6,188.83,99.25Zm0-1.33c-.62.82-.81.27-1.41,0s.35-.36.86-.44.49-.31.49-.31C189,97.08,189.18,97.43,188.82,97.92Zm-.93-.82c.3-.44,1-.29.54-.12C188.34,97,187.84,97.16,187.88,97.09Zm1.4.57s.14,0,.28.12C190,98.06,188.74,98.55,189.29,97.67Zm3.38-6.92c.34-.2.57-.34.48.21-.58,3.42-.29,2.24-1.58,1.33C190.87,91.79,190.79,92.07,192.66,90.75Zm-1.61,1.43c.07,0,1.12,1,1.21,1.14s-.7,2.36-1.75,2.86c-.24.11-1.55.72-1.75.51A47.64,47.64,0,0,1,191.06,92.18Zm-1.22-.69c.32.18,1,.45.74.95a21.29,21.29,0,0,1-1.52,3.13c-1,1.44-.72,1.12,0-2.62C189.22,92.34,188.31,90.65,189.83,91.48Zm-1.25-1-.66-.09C187.38,90.32,188.3,89.5,188.59,90.48Zm-2.2.81a1.92,1.92,0,0,1,1.54-.66c1.73.2.6,5.79-.13,5-3.85-4-4.13-2.88-1.63-4.08A2.67,2.67,0,0,0,186.38,91.29Zm-2,.92c-.22.11-.14.31-.53.31S188.87,90,184.36,92.21Zm2.08,2.41c1.52,1.62,2,1.81,1,2.46a1.24,1.24,0,0,1-1.18.08c-.21-.08.88-1.09.85-1.15s-1.2,1-1.31,1a15.33,15.33,0,0,1-1.86-1.71c-1.27-1.31-1.1-1.28-.39-2S185.71,93.84,186.44,94.62Zm-3.07-1.45c-.21.2-.38.2-.39,0C183,92.69,183.88,92.67,183.38,93.17Zm-.7-2.94c.16,2.87.12,2-.63,2.34-.16.06-.37-2.11-.49-2.09s.22,2.2,0,2.3c-.7.28-.62,0-1.54-.18s-2.22.42-1.89,0c.17-.2,2.67-1.62,2.83-2,.57-1.42.33-2,2.74-2.74C184,87.8,182.64,89.57,182.68,90.23Zm2.13-8.61c.09.54,0,5.89-1.75,6.16-.92.15-1.72,1.66-1.82-.25-.16-3,.83-2.47,1.86-5.23A9.14,9.14,0,0,1,184.81,81.62ZM180.39,74c-.11-.73,4.94.39,2.67,7.63-.26.76-3.22,1.93-3.45,2.25C177.67,86.58,181,77.83,180.39,74Zm1.37-5.72a10,10,0,0,1-1.68.57c0-.41-.24.5-.3,0-.19-1.67.11-.83-.28-1.9-.54-1.47,0,.62.08,1.75,0,.23.06.37-.18.46-2.14.83-1.9.45-1.2-.82.28-.51.36-1.89,0-.65-.63,2.2-2.39,3.12-2.28,2.3.06-.47-.1-.58-.18.05-.05.41-.1.7-.21.31s-.25-.24-.16.09c.15.54-2.72,2.93-1.24-.5a5,5,0,0,1,3-2.64c-.06-.21-2.21.78-2.17.66a3.4,3.4,0,0,1,.87-2c1-1.25.69-1.65,2.31-2.74,2.83-1.71,7.61,3.8,7.24,4a22.84,22.84,0,0,1-2.27,1C183,68.23,181.83,68.21,181.75,68.24ZM193,71c-3.45-.19-2.14,1.22-7.22-.45C174.14,66.73,194.41,71.07,193,71Zm-3.9,1.08s1.51-.78,5-.59C198,71.71,189.08,72.08,189.08,72.08Zm7.67-1c-.72.28-.42.42-2.17-1-2.38-2-1.77-1.75.5-.47C197.64,71,197.64,70.69,196.75,71Z"/><path class="cls-5" d="M141.86,4.45c-4,5.48-7.33,11.18-6.29,9,.28-.59,0-.77-.32-.16a4.68,4.68,0,0,0-.37,1.38c0,.06-.61,1-.6,1,1.2-6.22,1.46-6,1.46-6-.3-2.36-.17-.13-.45.41s-1.81,8.71-2.16,7.46-2.6-5.95-2.32-8c.14-1-1.44-1.25,2.09,8,.16.56-3.29,2-3,1.76,1-.94-.73-5-.85-5.4-1-3.64,2.95-3.2,2.63-11.71,0-.43-1.79-3.83-.66-1.07,2,4.84-2.92,13.39-2.51,7.54a44.33,44.33,0,0,0-2.16-4.21,36.41,36.41,0,0,1,1.91,4.7,11.22,11.22,0,0,0,.53,2.62c-1.33,2.52,3.84,6.38-.77,8.39-1,.43-2.73,4.61-3.6,5.23-4.22,3,.72-2.91,1-4,.45-1.19.39-.68.29-2.27a10.73,10.73,0,0,1,.38-3.58c-.9,2.36-.19.73-.83-1-.32-.91.05-3.74-.28-2.12-.3,1.47,1,6.9.21,8.93-.21.79-2.41,4.83-1.93.15,1.2-5.39,1.2-14.52,1.2-14.52.5-1.24.3-1.35-.21-.09-.64,1.58.08,5.4-.24,4.62-.24-.6-.46-.6-.18.1.63,1.53-1,14.65-1.77,14.66l-2.35,0s-4.23,1.3-4.25,1.33c-.35.41-1.27,1.58-1.2,1,.68-5.33,4.57-11.29,4.57-11.29.24-4.7,0-.09-1,1.23-2,2.66-1.46,3.28-1.8.14A7.17,7.17,0,0,0,115,16s1.7,4.3.39,6.43c-.58.94-1.74-4.06-1.82-4.62a6.66,6.66,0,0,1,.42-3.06c-.57-2.41-.22-.08-.39.46-.53,1.7-.46,1.32-.27,2.59.27,1.86,1.72,5.19,1.35,5.79-.21.34-.34-1.15-.39-1.56a8,8,0,0,0-2.42-2.79c-1.16-.91-2.6-2.86-1.15-.66.58.87,4.24,1.73,3.4,6.85-.29,1.77-.48,2.43-.46,2,.07-1.53-5.09-11.37-4.53-13.35.08-.27.57-2.54.25-2.61,0,0-.29,1.9-.47,2.53s-.84-1.31-1-2.76.79-3-.3-1.16a39.87,39.87,0,0,0,1,5.51c5.79,13.21,4.5,11.26,4.77,15.52.12,1.92.54,2.92-.91,1.39-.32-.34-.72-.25-.92-.81-.14-.39-1.37-1.8-1.4-2.44-.05-1.11.27.34-.21-2.38s.21-1.33-.09-3.67A12,12,0,0,1,108,18.93s-.62-2.16-.64-2.19a15.14,15.14,0,0,0-1.53-1.89l-1,1.83c-1.07,2-1.57-.89-2-1.79-.65-1.37,0-3.5-.47-2.12-.59,1.89,2,4.61.17,3.84-2.63-1-2.31-1-2.79-4-.09-1.45-.31-1.47-.22,0,.18,1.14.75,3.21-1.17,2.5-2.09-.78-2.5-2.53-2.1-1.24.09.29,0,.44-.28.35-.58-.21-.66,0,0,.21s.65.68.78,1.08c.05.17,3.29,3.42,3.46,3.7.38.6-1.61-1.08-2.06-1.52a25.66,25.66,0,0,1-2-2.31C95,14,96.31,16.07,98,17.76c3.88,3.82.92.35,2.59,4.5.44,1.09.27.65-1.36-.09-3.3-1.49,1.67,1,1.88,1.35a44.28,44.28,0,0,0,4.67,4.81c3.1,2.32-2.42,1.4-8.14-2.62-.86-.38-3.38-1.48-1.49-.75.07,0,.7.3,1.19.54a26.56,26.56,0,0,1-5.58-5.35s-1.93-1.4-2-1.42a11.88,11.88,0,0,1-3.23-3.52c-.11,0,.68,1.68.41,1.49,0,0-1.18-1.15-2.64-2.3-3.59-2.82-4.53-2.08-3.24-1.75,2.86.73,6.59,5.47,7,5.78,12.4,9.21,1.89,3.75.59,2.6-2.87-2.55-7.49-5.3-4.82-3.05,0,0,.44-.25,4.07,2.73.47.42-5.4-3.21-5.37-3.24-.25.25,3.26,2.28,3.63,2.5,2.9,1.71,4,2.27,2.43,2.2A21.46,21.46,0,0,1,82.9,21c-4.58-.28-5.55-1.26-7.66-1.72-2.46-.53,2.81,1.17,4.12,1.51,1.52.4,4.93.6,3.5.67-.61,0-4.11,1.92-5.74,1.52-.64-.16-2.88-1.66-.68,0,1.64,1.26,6.26-1.86,7.55-1.23a47.1,47.1,0,0,0,4.82.76c1.33.06,1.51,0,3.71,1.37A16.17,16.17,0,0,0,95.2,25l6.51,4.12c1.65.49,5.76,1.58,6.71,2.58s1.27,1.48.9,1.16a10.3,10.3,0,0,0-6-2.1,2.45,2.45,0,0,1,.46.06c4.94,1.3,8.14,3.57,10,8.47-.23-.86-.19-1.25.6.47.17.38.81.69.63,1.64-.1.55-.41.09-.71-.6.17.57.34,1.16.48,1.79.42,2.7.24,1.67.76,4.32,0,.24.12,1,.16,1.22s-.26,0-.52-.27-.52-.51-.53-.8a2.39,2.39,0,0,1,0-.43c0-.32,0-1,0-1.33a3.9,3.9,0,0,0-.36-2.28,67.08,67.08,0,0,0-4.58-8.48c-.37-.31-1-1.71-1.4-1.58a2.68,2.68,0,0,0,.77,1.29,14.31,14.31,0,0,1,1.48,2.24c-.35-.53-.58-.51-.13.16s.76,1.76.64,1.62c-2-2.11-2.9-1.77-5.15-3.75a21.07,21.07,0,0,1-1.67-1.76c-1.09.47,5.82,4.69,6.13,5a12,12,0,0,1,1.73,2.55c.8.83,2.25,1.69,2.31,5.66,0,0,0,.75,0,.78,0,.2-.11-.44-.35-.36s.32.7.3.86,0,.73.06,1l.37.51a1.81,1.81,0,0,1,.37-.12c.44-.12.65.13.73.58,0,.21-.2.2-.47.1q.47.4,1,.76c.22-.18,1.82.61,2.43,1,.15.1,1.85,1.35,1.85,1.35a6.42,6.42,0,0,0-1,.42l.15.16a7.69,7.69,0,0,1,1.06-.42c.39-.11,2.42.37.46.68l-1,.16.15.1.08.07c2.07-.37,2.61-.22,3.11,1,.16.39,1.38,6.23.48,5.89-.49-.19-3-1.51-4.74-2.38a1.08,1.08,0,0,1-.16.26c3.08,1.64,4.11,2.4,4,2.67a4.07,4.07,0,0,0,.43.2c2.33.87-.17,2.45,2.88,6.06.88,1,.43,1.07.1,1.89a7.82,7.82,0,0,0-.33,1l.2.23c.16-1,.63-2.53,1.38-1.34s-.07.7-1,1.77l.2.27c.71-.89,1.33-1.28,1.63-.81a13.17,13.17,0,0,1,2.21,4.45,9.64,9.64,0,0,1,1.63,2.87c1.2,3.19,1,6.57,1.24,9.73.18,2.49.81,9.37,2.56,8.47-.05-1.51-.07-3,0-4.47,0-1.84-.06-4.56,1.06-6,.94-1.22,2.71-1.36,4.32-1.86,2.34-.73,5.64-1.33,7.56-2.69,4.38-3.75,5.42-4.14,11.54-5.57l1.57-.39.79-.56s.26-.71.27-.75c.3-.86.37-.86,1.2-.93l1.67-.12.06,0a9.15,9.15,0,0,1,.81-.64,8.48,8.48,0,0,1,2.79-1,3.25,3.25,0,0,1,.57-.16c.36-.08,1.84-.62,2.18-.74a1.73,1.73,0,0,1,.95-.06c.77.07.77-.13,0-.21,0,0-.61-.07-.64-.05a31.35,31.35,0,0,1-5.55,1.53s-.5.47-.53.49c-.62.6-.57.62-1.2.68l-1.78.15-.09,0c-.06,0,0-.09,0-.15a5.75,5.75,0,0,0-.13-.59c-.17-.72-.36-.63-.27-.22,0,.21-.32.64-.44.86-.43.81-3.52,2-4.44,2.35-.48.18,0-.21.15-1s.51-1.65,1.4-1.9l1.23-.3c1.59-.38.67-.22,1.43-.51,0,0,.41-.15.43-.17a7.77,7.77,0,0,1,1.17-1c.56-.41.4-.58-.16-.16a5.1,5.1,0,0,0-.79.65c-.76.7-3.24,1.29-.55-.1,0,0,.64-.79.66-.82a4.53,4.53,0,0,0,.06-.55,1.86,1.86,0,0,1,.09-.55s1-.76,1-.79a8,8,0,0,1,.78-.68,11,11,0,0,1,6.74-2.8,27.74,27.74,0,0,0-3.46.27s-2.66,1.72-2.69,1.74c-.37.3-1.25,1.1-1,.27.35-1,.66-.94,1.51-2.29.72-1.14.51-1.26-.2-.13-.48.77-1.1,1.53-.89,1.1a1.84,1.84,0,0,0,.12-.26c0-.18-.1-1.93.08-2s.09-.24,0-.2-.15-.42,0-.45,0-.25-.06-.24a2.59,2.59,0,0,1,0-.34,2.27,2.27,0,0,0-.13-.28c-.12-.24.88-1.69.81-1.73s-.32.21-.59.57-.74.11-1.07-.55c-.78-1.57-1-1.57-.17.12.72,1.46.19,1.85-.1,2.23a.57.57,0,0,0,0,.21c0,.22-1.69.64-1.9.73l-.86.62s-.07.16-.09.21c-.07.22-.79.18-.89-.11s-.06-.16-.16-.53.93-.89,1.26-1.07c0,0,1.12-1.7,1.14-1.72s.11-.51.11-.53c.14-.68-.08-.74-.21-.08a4.93,4.93,0,0,1-1.82,2.52c-.68.39-1.24-1.45-1.37-1.92.13.48.59,2.36-.11,2.76-.08,0-3.9,3-3.9,3-1.81,3.86-1.89,3-1.65,2.64,1.36-2,1.14-1.55,1.23-2.21a1.27,1.27,0,0,1,.46-.78c-.09-.15-.42.11-.48-.1s.64-.52.77-.74c1.18-2-.21-.11-.53.13-.51.39-1.1-1.68-.61-2.81.39-.88.7-.76,1.19-.68a.1.1,0,0,0,.09,0,6.07,6.07,0,0,0,.67-.9l.24-.44a12.64,12.64,0,0,1,2.68-1.85,10.2,10.2,0,0,0,1.78-1.11c1.1-.65.85-.44,1.21-1,.74-1.13-.41.25-1.36.82A10.2,10.2,0,0,1,159.41,58c-1.14.59-2.28,1.46-2.16,1.21a32.94,32.94,0,0,0,2.36-3.64c.63-1.21.43-1.32-.2-.11C158.6,57,157,59.3,157,59.3c-.22.5-.47.93-.69,1.34-.33.58-1.38.94-.79-.39a.08.08,0,0,0,0,0,10.49,10.49,0,0,1,.13-2.48c.19,0,.14-.2,0-.2s-.12-.26-.12-.58c0-.75,1.37-1.22,2.11-1.45a31.41,31.41,0,0,0,4.2-2.08s-6.31,2.83-6.31,2.62-.22-.17-.22,0A11,11,0,0,1,153,57.24s0-.74,0-.78,3.55-1.51.86-.66c-1.21.39-1.51-.88-1.21-1.15s.87-1,1-1.18a9.13,9.13,0,0,1,.62-.7c.07,0,1.56-.49,1.6-.55a13.82,13.82,0,0,1,4.33-2.9c2.06-.74,4.18-1.13,2.54-1a14.47,14.47,0,0,0-3.17,1c-.69.29-1.84,1.11-1.65.8.07-.11.86-.74.81-.81s-.6.21-.11-.21c0,0,.58-1,.48-1.08s.13-.79.25-1c.52-1,.48-1,2-2.22.31-.26,0-.92.87-1.38a1.52,1.52,0,0,0,.23-.13A1.11,1.11,0,0,1,163,43c.55-.24.38-.4,0-.26s-.19-.34,1-.58,1.11-.46,0-.25c-1.25.25-.32-.09-.64-.3a2.42,2.42,0,0,1-1.15.65l-1,.19c-.34.06-.28.14-.34-.56a7.15,7.15,0,0,1-.23-2.09,11.39,11.39,0,0,1,.58-1.95c.64-1.94.41-2-.23-.09a13.23,13.23,0,0,0-.7,2.47s.13.54.14.58a7.36,7.36,0,0,1,.23,1.66,1.79,1.79,0,0,1-.68.2c-4.66.83-2.39,1.45-.67-3.52.67-1.94.43-2-.23-.1a12.35,12.35,0,0,1-1.78,3.58,3.67,3.67,0,0,1-1.12.83,21.52,21.52,0,0,0-2.14,1.16c-1.29.77-.93.46-1.84-.5a1.56,1.56,0,0,1-.39-1.61c0-.07.08-.08.15-.11a3.49,3.49,0,0,0,.26-.25c.3-.31.29-.29,1.57-.64l1.1-.31c.67-.47,2.95-2.12,3.64-2.19s.68-.31-.09-.23a6.11,6.11,0,0,0-.62.08,19.77,19.77,0,0,1-4,2.39c-1,.27-.61.06-.29-.17.1-.08,1.64-1.27,1.54-1.37s.44-.37.33-.49-2.18,1.25-2.29,1.29-.51.21-.53.23-.22.29-.14.14,1.22-1.57,1.35-1.73,1.12-1.71,1.12-1.74,0-1.06-.13-1.08a4.39,4.39,0,0,1-.63,1.86,11.27,11.27,0,0,1-1.18,1.64A7.84,7.84,0,0,0,152,41.66c-.07.27-.08.19-.56.52-.19.13-.38.12-.42,0s-.1-.26-.12-.26.14-.53.16-.66c0-.3,0-.17.1-.75a.15.15,0,0,0,0-.08s-.14-1-.14-1a.2.2,0,0,0,0-.08,3.76,3.76,0,0,0-.32-1.51c-.33-.62,0-.22.28-.44s.57-.58,2.55-.88c.22,0,2.69-.68,2.59-.86l-3.81.87c-.72.16.67-3.61.67-3.61-.18-.08-1.44,3.7-1.54,3.79-2.15,1.83-3.12-6.55-2.6-2.7,0,0,.14,1.09.16,1.11.21.41.83,1.57.37,1.14-2.12-2-1.78-1.54-1.57-3.34.25-2.1,2.63-5.13,0-1.69-.52.69.17,6-1.44-.12-.11-.41-4.13-5.25-1.28-1.41,1.48,2,1.68,3.71,1.4,3.35l-.29-.36c-2.47-2,.45.32.88,1.94a10.86,10.86,0,0,1,.13,2.9c0,.23.33,0-1.1.66-3,1.35-1.86-.6-1.8-3.55,0,0-.42-2.71-.55-4.67-.12-2.34-.68-2.61-.41-1.63,1.27,4.76-.88-.82-.94-2.69,0,0,0-1.07,0-1.1-1.56-3.3.5,3.51,1.19,7,2,9.89-2.49,5.82-3.55,1.06-2.81-8.51-3.08-8.68-.21,0,.09.41.46,3,1.89,4.2,1.86,1.52,1.77,1.28-1.49.16-5.17-1.82-4.31-1.31,0,.19,3.76,1.3,4,.42,3.06,5.66,0,.13-.35,2-.42,2.13s-1-.66-1-.68a4.7,4.7,0,0,1-1.35-1.15,6.5,6.5,0,0,1-1-2.64c-.84-.38-1.89-3.87-2.29-4.19-2.11-1.7-.36-.3.58,1.69,1.16,2.44,1.48,2.88-.1.64-2.52-3.59-5.25.19.22-8.59.65-1.19.39-1.36-.26-.15-.34.55-.8,1.37-.47,0,.85-3.61-.67,1.69-.88,2.11A8.44,8.44,0,0,1,134.64,34c-.51,1.53-.15,2.07-2.51.83-2.64-1.38-2.73-1.21-.06.18.88.46,2,1,1.93,1.35-.67,2.6-.07.31-4.56-2.45-.48-.29-2.69-.84-4,.21-.68.54-1.08.65-2.24,0-1.39-.81-1.67-.91-1.23-2.22.84-2.48,5.81-2.56,8.84-7.83,3.67-5,.8-3.8,5.4-4.49,5.12-.73,8.57-3.92,11.82-4.75a43.74,43.74,0,0,0,4.29-1.07,11.83,11.83,0,0,0-2.22.38c-3.36.75-2.58.41-6.88,2.62-12.85,6.5-9.46,0-5.71-.63,2-.36-2.7-.89-4.07,3.52A23.11,23.11,0,0,1,140.34,9c2.62-2.14,3-5.84,1.48-2.64-.9,1.87-2.69,2.93-3.22,3.5-.85.9,2.81-4.87,4-5.36S142.14,4.08,141.86,4.45Zm-53,14.15a2.64,2.64,0,0,1-.6-.58C87.77,17.13,96.41,24.29,88.83,18.6Zm3.84,5c-.06,0,2,.76,2.08.84A6.43,6.43,0,0,1,92.68,23.62ZM163.6,72.1a.58.58,0,0,1-.33.68C162.95,72.93,163.54,71.85,163.6,72.1ZM154.3,40.26a13.5,13.5,0,0,1-2,1.4C152.64,41,155.46,39.33,154.3,40.26ZM126.5,24.14a9.93,9.93,0,0,0,1.21-2.3c.64-1,4.89-1.9,4-.77a51.84,51.84,0,0,1-4.24,3.22C126.14,27.15,124.86,25.31,126.5,24.14Zm-2.67,2.08c1-.24-1.71,3.1-1.33,1.36S122.48,26.55,123.82,26.22Zm-8.36-3.45c.44-.71.35.47.07.89S115,23.53,115.46,22.78Zm-.4,2.16a4.22,4.22,0,0,1-.46,1C113.45,27.91,115.55,20.83,115.06,24.94Zm-6,3.56a25.43,25.43,0,0,1-2.32-3.73c-.25-.35,1,.66,2.23,2.62C109.74,28.61,110.12,29.62,109.08,28.49Zm-5.38-4.62C102.57,23,100.06,19,101.61,21c0,0,4.14,2.67,4.79,3.58C109.6,29.12,105.24,25.05,103.7,23.87Zm5.79,1.24s.7,4.06.45,3.22c-1.08-3.45-6.57-5-5.52-10.05.12-.56-.12-.61,2.11,1.28S110.26,22.86,109.49,25.11Zm-4-9.18c.25-.36.43-.8,1.09.09s2.46,5.43,0,3.31C104.23,17.36,104.34,18.06,105.5,15.93Zm-1.29,2.26c-.13.63,0,.88-.29,0C103.34,16.52,104.3,17.72,104.21,18.19ZM99.8,18c-1.53-1.51-2.64-2.15-2.9-3-.14-.45,3.11.66,3.22,1.35C100.81,20.81,100.59,18.77,99.8,18Zm.61-1.11c-.12-.77-.26-1.08,2.51.09,1.14.48,1.09,4.28,2.29,5.94.23.32.47.62-.44-.1C101.13,20,101.13,21.28,100.42,16.88Zm2.22,7.85a4,4,0,0,1,.8.88C103.77,26.18,101.89,24.13,102.63,24.73Zm3.88,3.92s-1.08-.82-1.11-.85c-1.12-.85-.82-.51-1.44-1.68-1.17-2-2.38-2-3.07-3.73-.92-2.27-.54-3.11-.25-2.46a32.12,32.12,0,0,0,1.91,3.29c.38.65,12.72,9.21,5.11,7C107.27,30,106.7,29,106.52,28.64Zm7.35-.87c.51-1.3-.45,2.69.59,5.09.17.39,1,2.74-.07,1.56C113.83,33.82,113.63,28.4,113.87,27.77Zm-5.21,3.38c3.25.78,4.12,5.06,3.57,4.51C111.41,34.86,107.56,30.89,108.66,31.15Zm4,3.61c-1.95-4.51.91,1.79,1.16,2.15C115.21,38.84,113.81,38.06,112.7,34.76ZM113,34c1.22,1.29,2.12,5.94.81,2.28C113.23,34.55,112,32.89,113,34Zm2.24,4.91a9.27,9.27,0,0,0-.59-2.23c-1.11-2.75.78-.23,1,.15C116,37.4,115.47,39.36,115.28,38.93Zm.4.13c.17-.93.41-2.12.89,1.31C116.66,41,115.56,39.73,115.69,39.06Zm6.44-.17a4,4,0,0,1-1.45-1.06c-.11-.26,1.23-2.29,1.2-2.31s-1.4,1.84-1.51,1.57,1-3.81,1.39-3.58c.14.08.29.39.63.72.61.59,1,.74.75.82s-.15.33.22.22c.84-.27,2.11,2.84,4.09,4.55.7.6,1,.47-2.25,0-2.59-.41-2.61-.42-2.79-.8S122.06,38.75,122.13,38.89Zm16.77,8.22a3.61,3.61,0,0,1,.13,2.47c-.37,1.62-.17,1.94-1.09-.58L134,44.07c-.59-.57-.56-2.63-.42-3.68.38-2.74.6-1.07,1.24.5s1.07,1.73,2.3,2.55C139,44.69,138.52,46,138.89,47.11Zm-.08-2.55c.63.42.75,2.68.62,3.26S138.6,44.41,138.81,44.56ZM142.52,46c-.1.06.12-.4.16-.51.14-.31.77.11,1,.43s-.5.2-.71.32S142.56,46,142.52,46Zm5.39,6.75c-.1-.12-.3,0-.18.14s-.37.16-.94.21c-1.29.11,2.39-2.25,2.36-2A8.19,8.19,0,0,1,147.91,52.77Zm1.34-.2c.17.44-1.1.58-.57,0S149,51.95,149.25,52.57Zm.68,12.3c0-.25.26-.4.6-.6.74-.44.34.84.2,1.41C150.34,67.63,150.29,68,149.93,64.87Zm2.53.92a2.23,2.23,0,0,0-.46.61c-.34,1-.17.82-.81.89C149.8,67.44,152.09,66.12,152.46,65.79Zm1,5.87c.31-.07.17,0-.33.25C152.24,72.27,151.8,72,153.44,71.66Zm.28-2.43c.86-.3-.82,2-1.23,2.09S152.67,69.6,153.72,69.23Zm2.53,1.7c.56,0-.39.94-.67,1.27a10.75,10.75,0,0,1-3.7,1.28C152,72.2,155.83,71,156.25,70.93Zm1.22-1.15c-.13-.25,1.34-.51,1.61-.54C160.44,69.09,157.64,70.11,157.48,69.78Zm3.29-.56c.42,0-1.55.67-1.1.37A3.25,3.25,0,0,1,160.76,69.22Zm-2,.58c.38-.08.06.23-.25.34S157.4,70.07,158.73,69.8Zm-.27,2.05c-.53.88-.23-.33-.46-.88S160.08,69.19,158.46,71.86Zm-17.91-3.95-.42.41c-.7.69-.07-3.54-.79-6-.66-2.25-.15-1.42,3.32-2.7,1.47-.54,1.5-.54,1.27-.14A40.32,40.32,0,0,0,142,66.23c.4,1.26.31,1.15-.76,1.47-.21.06-.31-.06-.23-.27s.11-.4.05-.43S140.67,67.84,140.55,67.91Zm-3.06,4.58c-.52,1.24,1.71-17.44,2-8C139.65,71,139.84,66.93,137.49,72.49ZM140.13,69c-.32.78-.44.09-.05-.29C140.24,68.54,140.26,68.67,140.13,69Zm-6,.43c.54.83.36.84-.06.18S133.58,68.59,134.11,69.42Zm-1.79-.83c.19.32,0,1-.27.14S132.11,68.21,132.33,68.58Zm-4-1.62c-.16.17-.31.26-.35.2a25.54,25.54,0,0,1-.85-3.36C127.3,63.38,128.75,66.54,128.35,67Zm.46.12c1.75,4.09.53,2.1-.42.67C128.13,67.37,128.7,66.82,128.81,67.08Zm4.81,2.36c-.36-.6.7.85.91,1.22.06.11-.18,1.62-.33,1.61A22.6,22.6,0,0,1,133.62,69.45Zm1,2.23c.12-.8.09-.72.3,0C135.26,72.68,134.51,72.5,134.64,71.68Zm.91.62c-.15-1.64-1.91-3.53-1.79-4.34,1.11-4.16,3.81-7.59,3.59-6.49C137.16,62.39,135.63,73.09,135.56,72.3Zm9-20.61c-.17.08-.09-.25-.06-.42s-.32-.72-.1-.85S144.8,51.6,144.6,51.69Zm.77-1.91c3.11-2.16.28,1.43-.08,1.59S144.49,50.4,145.38,49.78Zm-1.37.37c.07.27-1,.87-.53-.07S143.93,49.74,144,50.15Zm-2.35,2.63c-.95.1,1.48-1.61,1.82-1.81C145,50.08,144.55,52.49,141.66,52.79Zm3-.46c-.26.25-.53-.11-.09-.31C144.82,51.92,144.83,52.19,144.68,52.33Zm5.9,8.23c.65.1-1.07,1-.65.09C150,60.55,150.28,60.51,150.59,60.56Zm-.86-.9c.89-.55.54.65-.3.52C149.19,60.14,149.33,59.91,149.73,59.67Zm-.34,1.6-.92.34c-1.52.55-1.1-1.56.78-1.26C150.14,60.49,149.39,60.81,149.38,61.26Zm.59,12c-.47.22,0-.17.27-.68S153.56,71.57,150,73.22Zm1.57.26c0,.45-.19.43-.43.47-.92.13-3.07,1-1.8-.1C149.51,73.68,151.59,73,151.55,73.48Zm-2.29-1.13s-1.42,2.32-1.46,2.4c-.27.56-1.08.1-1.44.25-1.38.62-1-1.63.93-1.88C148.6,72.95,151.78,70.56,149.26,72.35Zm-3.87,3.44a2.42,2.42,0,0,1,1.45-.58C147.17,75.22,144.93,76.38,145.4,75.79Zm.32-3.45c-1.09-3.53-1-3.58.28-3.82,3.5-.62,2.62-.9,2.66.81,0,1.53-.17,2.76-1.54,3.44C144.62,74,146.06,73.48,145.71,72.34ZM143.64,61.9c.84-.72,1.05-3.8.81.29C143.85,71.9,142.15,63.17,143.64,61.9Zm-1.23,4.86a4.65,4.65,0,0,1,.14-1.79C143,63.13,143.09,68.94,142.41,66.76ZM144,60c.23-.39.25,1.12-.36,1.66C143.37,61.79,143.79,60.23,144,60Zm2.4,3.69c.75-2.58,1.62-.14,0,1.38C146.1,65.31,145.69,65.92,146.35,63.64Zm-1,1.35c.36-.63.6-1.83.54-1.12C145.83,65.09,145.13,65.45,145.39,65Zm.91-2c-.14.47-.48-.14.49-1.3.31-.37.55-.46.54-.19C147.29,62.43,146.55,62.17,146.3,63Zm-.45-.15a8.43,8.43,0,0,1-.86,2.34C144.2,66.63,145.6,62.33,145.85,62.88Zm-1.33,3.52a7,7,0,0,0,.71-.73c1.7-1.86-.82,1.33-.69,2.36C144.74,69.68,144.08,66.67,144.52,66.4Zm4.58,1.43a2.82,2.82,0,0,1,.64-.17c.1,0-.47.94-.53,1C148.71,69.75,148.79,68.94,149.11,67.84Zm.33-1.18c.44-1.59.65.76.34.79C149.3,67.5,149.13,67.76,149.43,66.66Zm-1,1.12c-.56.15-.42,0-.21-.13s1-3.73,1.35-2.55C149.63,65.51,149,67.6,148.39,67.78Zm.2-2.21a6.69,6.69,0,0,1-.94,2.19c-.34.28-2.78.9-2.83.51-.24-2,2.57-2.93,2.67-5.27,0-1,1.9-2.07,1.88,0C149.35,65.88,148.92,64.58,148.59,65.57Zm-2.07-4.34c.21-.85,0-1.06-.27.16-.1.38-.26,1.28-.43.89-.1-.23-.32-.19-.18.11s-.5,1-.68,1.17-.49,2.45-.36.33c.39-5.68-.44-4.57,1.48-5.78.52-.33.82-.36,1.08.58C147.83,61.08,146.34,61.94,146.52,61.23Zm-7-2.78c-.32-.12.18-.49.44-.63s-.29,1.07-.22.76C139.78,58.56,139.69,58.5,139.56,58.45Zm.9.23c-.28,0,.35-1.28.57-1.4C145.12,55.11,140.92,58.7,140.46,58.67Zm.68-1.92a7,7,0,0,1,1.14-1.12s.13.13.21.31c.2.42.12.38-.44.57C141.79,56.62,141,57,141.13,56.75Zm-.4,2.13c.07,0,2-1.71,2.05-1.75.28-.3,2.42,1.89-2.54,2.85-1.17.22-1,.33-.51-.5S140.41,58.87,140.73,58.88Zm2.85-1.14c-.62-1.31-.34-1.49.09-.3S144.17,59,143.58,57.75Zm.28-.93c-.29-.74.26-1,.25,0S144.17,57.59,143.87,56.82Zm-2-1.79c-1.36,1.24-.89,1.43-1.65,2.14s-1.45,1.14-.69,0a14.93,14.93,0,0,1,.89-1.88c.6-1,.31-2.49.82-1.76C141.41,53.71,142.07,54.9,141.91,55ZM139,56.15a4.15,4.15,0,0,0-.06-1.27c.15-.48.6-.76.32.35S138.89,56.63,139,56.15Zm1-2.26c.21-.37.62-.63.22.1C140,54.54,140,54.08,140.07,53.89Zm1.4-.68c4.85-1.36,1.2,1.92.53,1C141.92,54.06,141.35,53.25,141.47,53.21Zm2.42,2.09c.68-.14-.32.76-.4.55A.47.47,0,0,1,143.9,55.3Zm-.63-.8c.22-.17.35-.09.29.18C143.3,55.77,142.74,54.91,143.27,54.5Zm.91-.57c.17-.07.25-.25.09.48C143.9,56.14,143.58,54.16,144.18,53.93Zm.53.4c0-.17,0-.51.18-.59.34-.2,4-.87,1.84.09C146.36,54,144.58,55.42,144.71,54.33Zm-.38-.89c-.24.11-.23.15-.16-.14C144.43,51.9,144.87,53.18,144.32,53.44Zm-4-.39c-.5.39-.32.55-.84-.45-.39-.75,0-2.92.59-1.73C140.37,51.5,140.81,52.66,140.31,53Zm-.87.69c-.69.51-.93,1.12-.47-1C139.06,52.42,139.56,53.65,139.44,53.74Zm-3,6.14c-.71,1.37-2.5-2.79-2.41-2.13-.35-2.72-.94-.84-.1-4.25.29-2,.37-2.74.89-3.41.75-.95-.39-.18-.52.3-1.52,5.13-.07,5-2.09,3.66-.74-.49-.88-.52-.46-1.5,2.17-4.93-1.16,3.4-1-1.83a20,20,0,0,1,1.56-3.12,7.63,7.63,0,0,0-1.77,3.07c-.07,2.15.74,2.2-1,.8-.64-.53-.76-.39-.14.13.82.68,1.18,1.05,1,2-.09.5-.13.88-.43.63-.87-.77-3.62-3.18-4.11-3.72-.8-.89-.3-1-1.27-2s-.12-.17-1.43-3c-.76-1.66-.82-4.8.47-4.11C130.62,45,142.93,47.43,136.43,59.88Zm-1.91,1.82c-.26.89.08-.27-.24-1.9s-.24-1.66.6-.3C135.63,60.69,134.92,60.33,134.52,61.69Zm.8.17c-1.38,1.38-.38-.78-.07-1C135.78,60.41,135.61,61.57,135.32,61.86Zm-3.89-8.17c.41.47,1.48.69,1.92,2.28.55,2,.76,1.77-2.36-.9C130.61,54.75,131.2,53.43,131.43,53.69Zm-.45-.52c.26.29.14.26-.18.88C130.38,54.84,130.84,53,131,53.18Zm-6.28-4.3a5.62,5.62,0,0,1,.61,1.32c3.46,3.85,5.29,4,2.51,3.6-2.15-.29-2.82-2-3.37-4.42C124.21,48.32,124.22,48.37,124.7,48.87ZM130,54.68c.54.44-.84,1.46-1.66.51a10.25,10.25,0,0,0-.91-1C127.06,53.8,129.55,54.29,130,54.68Zm.11.62c-.59,1.73.26,3.08-.83,1C129.2,56.05,130.18,55.18,130.14,55.3Zm.29-.07c.1-.18.53.21.72.37,2.67,2.22,2.67,2.31,2.9,4.18a6.25,6.25,0,0,1-.59,4.29c-.95,1.57-.64,1.7-1.11-.08C131.75,61.67,128.83,58.28,130.44,55.23Zm9.21,14.29c.17,1-.64,1.79-2.1,3.59C137.27,73.41,139.39,68,139.65,69.52Zm4-2.58c.62-.37.16,1.83-.54,2.29-.29.19-.74,2.16-.41.72C143.35,67.1,142.74,67.47,143.64,66.93ZM143,70.47c.26-.34-.08,1.28-.15,1C142.68,70.83,142.67,70.9,143,70.47Zm1.72-1c.21,1.73,1.48,4,0,4.47-1.26.42-4.63,5.33-2.26-.13C142.67,73.37,144.35,66.44,144.72,69.48Zm.61,5.23c0,.73-.2,1.42-1,1.47-.53,0-3,.79-2.83.69C144.38,74.78,145.42,73.14,145.32,74.71Zm-1.08,1.68c.57,0-.81.67-1.44,1.57s-1.49.92-2.49.91C139.49,78.85,141.42,76.58,144.25,76.39Zm2-.56c1.61-.65.29,1.84-.1,1.94a17.49,17.49,0,0,0-3.05.65C142,78.91,143.77,76.84,146.29,75.83Zm2.33-1c.07,0,1-.31,1.1-.33,2-.6,1.79-.45,1.76.09-.1,2.08-.91,2.06-3.21,2.63C147.13,77.53,148.26,75,148.61,74.86Zm3.22-.74s2.35-.69,3.21-1c2.38-.89,3.4-.89,1.71,1.47-.82,1.15-3.25.71-3.6.88C150.54,76.78,151.64,76.68,151.83,74.12Zm3.08-1.19a14,14,0,0,1-1.58.52C152.19,73.76,155,72.81,154.92,72.93Zm.72-.46c1-1.14,2.46-2.83,2.25-.7C157.83,72.38,155.43,72.71,155.64,72.48Zm1.71-2.21c.26-.1.45.31-.64.4C156,70.71,156.21,70.69,157.35,70.26Zm-2.6.48c-.31-.33,2.34-1.28,2.53-.9S155,71,154.75,70.74Zm-7.23,2.08c1.4-.68,3-9.6,2.7-1.75C150.18,71.92,146.69,73.22,147.52,72.81Zm3.14-5.13c0-.06.24-.14.5-.17C152,67.42,149.53,73.46,150.66,67.68Zm-1-5.09a2.08,2.08,0,0,1,2.09-1.85c.39.06-.18,1.6-.37,2.37C151.23,63.58,149.6,65.35,149.62,62.6Zm1.16-2.83c.82-.7,1.22-.51,1.24.61C152,60.78,150,60.45,150.78,59.76Zm.36-.68s-.12.18-.34.36C150.31,59.86,150.76,58.87,151.14,59.08Zm1.19,1.34c0-.27,0-.18,0-.4s.56.43.67.63S152.34,60.72,152.33,60.42Zm-.18-1.32a1,1,0,0,1,.53-1s.54,1.7.82,2.34C153.88,61.63,152.29,59.56,152.15,59.11Zm-.89-.38c.13-.08.28-.22.34-.08C151.73,59,150.79,59,151.26,58.73Zm-1.57-.18c1.12.41-.61,1.38-1.57,1.7s-.38-.24-.49-.65c-.65-2.29-.79-1.65,1.33-2.95,1.13-.69,1.13-1.09,1.89.48C151.21,57.84,147.28,57.66,149.69,58.54Zm-2-1.74a6.07,6.07,0,0,1,1.49-.77C150.15,55.85,144.61,58.88,147.72,56.8Zm1.46-1c-2.49.47-5.21,4.94-4.72.68.11-1,2.48-2.46,3.25-2.78,0,0,.27-.39.32-.39a24.58,24.58,0,0,1,1.76,2.36A5.18,5.18,0,0,1,149.18,55.79Zm0-1.4c-1.16-1.5.17-1.57.73-.13S150.25,55.77,149.18,54.39Zm-3.14-3A23.27,23.27,0,0,1,149.32,50C149.73,51.08,141.75,55.66,146,51.44Zm.41-.78c.36-.71,2-3.13,2.13-2.74l.31.85C149.29,49.88,146.23,51.08,146.45,50.66Zm2.47-2.94c1.35-.6,1,1.17.7,1.49S148.73,47.8,148.91,47.72Zm-.09-.4c.53-.66,1.21-.41,0,.13C148.78,47.47,148.74,47.42,148.82,47.32Zm1.17.35c-.16-.39.9-.86.42.15S150.21,48.21,150,47.67Zm1-.61a4.66,4.66,0,0,1,1.1-.45c.38-.13.66-1.8,1.38-.26.64,1.36-.86.75-2.51,1.89C150,48.92,151,47.52,151,47.06Zm-.17-.62c-.06.41-1.07.74-1.13.58C149.46,46.36,150.91,46.07,150.86,46.44ZM149.67,46c0-1.47,1-1,1.54-1.64,0,0-.15.68-.17.79S149.68,46.37,149.67,46Zm-.59.59a1,1,0,0,1-.36.11s.67-1.4.69-1.41S149.51,46.4,149.08,46.57Zm-.69.17c-.56,1.14-3.57,3.08-3.82,3.07s-.27.84-.31-.2c-.06-1.6-.7.11,1.87-2.51C148.53,44.66,148.69,46.13,148.39,46.74ZM145.9,47c-1.95,2-1.23,1.19-1.27.77-.15-1.42-.31-1.24.39-1.35C146.12,46.26,147.15,45.74,145.9,47Zm-2.23-.38c1-.15.75,2.31,0,1.3a5.08,5.08,0,0,1-.32-1C143.19,46.72,143.39,46.68,143.66,46.64Zm-.68.7c1.15,1.58.73,1.68,0,2.85C139,56.53,141.37,45.11,143,47.33Zm-1.35,0c-.34,1.1-1.1,1.07-1.11,3,0,1.2-.11.77-.48,0C139.5,49.32,141.89,46.55,141.64,47.37Zm-2.4,3.37c0,.08-.14,0,0-.73C139.47,49.1,139.68,49.59,139.24,50.74Zm-.81,1.9c-.08.38-.55-2.76-1.14-3.35-3.52-3.5-3.43-3.29-3.86-4.5-.33-1-1.47-1.65-4.46-3.94a32.35,32.35,0,0,1-5-5.71c-.08-.05.2-.15.25-.13C127,36.14,139.19,49.14,138.43,52.65Zm-15-17.94c.61.25.08.34-.7-.42l0,0A2.84,2.84,0,0,0,123.41,34.7Zm5.72,6.51c12.31,9.41-6.38-.31-6.35-1a1.38,1.38,0,0,0-.08-.67C123.16,39.84,127.38,39.87,129.14,41.21Zm-6.65-.79a23.57,23.57,0,0,1-1.52-1.9c-.08-.19,1.31.68,1.47,1A1.1,1.1,0,0,1,122.49,40.42Zm-1.07-1c1.55,1.9-2-2-1-1.36A15.63,15.63,0,0,0,121.42,39.44Zm-.06.56c1.31.74,1.17.46,1.09,2.16s-1.19-1-1.67-2.07C119.57,36.63,120.74,39.65,121.36,40Zm-.22,3.67c.28.61,1.92,4.21,1.41,3.32C117.37,38.09,118.17,37.15,121.14,43.67Zm-4-2.2c-.28-.35-1.21-4.17-.1-2.24C118,40.84,117.42,41.82,117.14,41.46Zm.6-.26c.18-.43.33-.18.7.47.21.37,3.63,6.61,2,3.86C119.66,44.31,117.29,42.33,117.73,41.2Zm-.95,2.36c.08,2.09.65,3.55.07,4.06-.11.1-.91.61-.94.47C114,37.28,116.75,42.69,116.79,43.57ZM115,48.46c-.18,0-.32.05-.33,0C114.63,47.2,115.42,48.36,115,48.46Zm1.19.52c-.36-.38-.23-.58.18-.79s.59-.42.56-.14c0,.11-.41,1.2-.5,1.16A1.93,1.93,0,0,1,116.22,49Zm.78.75c.53.27,1,.63.14.31S116.49,49.46,117,49.73Zm2.21,1.33c-.08-.05-.76-.52-.83-.54a7.08,7.08,0,0,0-1.28-1c-.53-.27-.1-1.73,1.28-2.94.08-.09.72-.73.6-.83s-.69.58-.78.67c-.3.27-.92.89-.85.33,0,0,.07-.48.06-.52a7.31,7.31,0,0,1-.41-2.91c0-.43-.12-.43.85.77l.83,1c-1-.43-1.79-.27-.65,0a1.91,1.91,0,0,1,1.13.54c.47.59,3,5.13,2.83,4.75.78,1.35-2.54-1.55-2.33-1.64-.12,0,.49.92.56,1,.24.36,3,1.83,2.29,2-.12,0-.28-.4-.42-.36s0,.12,0,.24-.11.27-.38.34C120.63,52.46,120,51.6,119.21,51.06Zm2.92,1.51c-.29-.09-.35-.21-.15-.27C122.47,52.16,122.82,52.79,122.13,52.56Zm4.75,3.35-.72-1.8c-.16-.41.68-.28,1.07.11C129.8,56.74,127.64,57.81,126.88,55.91Zm-1.93,1.84a4.3,4.3,0,0,1,.44,2.6,2.12,2.12,0,0,1-.42.54C124.88,60.81,123.74,54.76,124.95,57.76Zm.57,2.81c.41-.63,1,1.16,1.27,1.79,0,.06.18.39.12.35C126.38,62.21,125.11,61.19,125.52,60.56Zm4.76,3.18c0-.45-.86-1.87-.4-.56.14.4-2.68-5.23-1.56-6.24,1.89-1.7.47,1.25,3.14,5.19a11.33,11.33,0,0,1,1.09,5.58C132.47,68.22,130.16,65,130.28,63.75Zm-5-.44c0-.45-.34-1.35.54-.68s1.24.84,1.13,1.17.84,2.46.17,1.66c-2.65-3.15.26.53.41,1.16C128.19,69.54,125,66,125.24,63.31Zm2.36,4.79c.78-1.09,2,1.88,2.45,3.27C130.77,73.74,127.57,68.15,127.61,68.1Zm9.53,7.48c.12-2,.33-2,.61-2.31.62-.76,1.31-1.68.69-.17C137.59,75.17,137,77.85,137.14,75.58Zm1.66-2.75c4.12-10,4.22-2.84,3.42-1.78a8.93,8.93,0,0,0-1.36,2.4c0,.1,1-4.46.89-4.5s-1.29,5-1.54,5.14S135.17,81.64,138.8,72.83Zm-1.8,5.1c0-.27.27-.38.54-.47C138.06,77.29,136.92,79.1,137,77.92Zm.37,1.8c0-2.08,1.57-2.67,1.79-3.07,5.29-9.23,2.89-3.34,2.7-1.68C141.6,77.12,137.37,80.34,137.36,79.72Zm0,.91c0-.7.75-1,.32-.6S137.4,81.83,137.38,80.63Zm.56,3c-.37.05-.64.17-.75-.76s-.21-.67.47-1.71c1.53-2.34,2.6-2,4.21-2,1.34.06,6.76-3.66,2.35,1.5C142.73,82.44,142.31,82.59,137.93,83.63ZM149.56,80a3,3,0,0,1-1.86,1.06,22.85,22.85,0,0,0-3.62,1.21c-.75.13,2-2.2,2.75-3.81.45-.94,1.5-1,3.93-1.73A18.31,18.31,0,0,1,149.56,80Zm2.86-1.88c-.75.53-2.42,2-1.74.06.52-1.44.52-2.17,2.94-1.86C155.07,76.54,153.17,77.66,152.43,78.16Zm10.21-3.74c-.91.65-.46.15,0-.77C163.42,72.17,163.51,73.79,162.64,74.42Zm-.22-.88c-.39.78-.55,1.18-1.26,1.25s-9.33,3.46-3.09.41C159.81,74.55,162.53,73.34,162.42,73.54Zm-3.92.09c-1,3.92-9.93,2.24-2.93,1.93C157.58,75.45,159.6,69.18,158.5,73.63ZM160.85,71c-1.61,1-2.22,1-2.13.82,2.39-4,2.7-1.68,4.26-2.95C163.57,68.44,164,69.4,160.85,71Zm3.27-3.4c-.18.15-.29.15-.24,0,.28-.88-.5.61-1,1-1.06.87-4,.33-1.76.27.12,0,3.56-2.23,3.58-2.27C164.87,66.38,164.63,67.22,164.12,67.65Zm1.12-6.27c.19.38.07.59-.3.71-.22.07-.4.08-.4,0S165.14,61.17,165.24,61.37Zm-.3,1c.53-.16.56.28,0,.42S164.4,62.5,164.94,62.34Zm.45,1.45c.06,2.09-1.87,3.77-1,2.49a16.31,16.31,0,0,0,.13-2.14C164.53,62.7,165.35,62.61,165.39,63.79Zm-2-.64a9.91,9.91,0,0,0-1.7.6C162,62.62,166.09,62.48,163.4,63.15Zm-1.19.65c2.17-1.27,2.12.12,2,1.84s-4.33,4-3.06,2.53c.23-.27.38-.52.33-.56-.23-.17-.79,1-.34-.2.68-1.76-.27-1,.27-2.69C161.61,64,161.52,64.2,162.21,63.8Zm-1.36.67c-.22-.66.52-.6.32,0C161.08,64.75,160.94,64.74,160.85,64.47Zm-.68-1.37c.15.54.48.61-1.46,1.38C155.94,65.58,160,62.45,160.17,63.09Zm-1.66,1.69c1.08-.43,2-.48,2.17-.12.78,2.35-.37,4-.82,4-.12,0-.11-1.89-.28-.5,0,.28-1.21.54-2.63.57C154.49,68.82,153.64,66.72,158.51,64.79ZM156.77,69c4.74-.12-.07.32.32.22-2.26.59-5.34,3.66-3,.58C154.35,69.46,153.69,69.08,156.77,69Zm-5.49,2.51c-1.09.17-.59-4,3.44-5.48C155.72,65.66,151.69,71.45,151.27,71.51Zm3.54-5.95c.13.47-1.22.29-1.5.54-1.77,1.57-1.25.55-.7,0S154.71,65.19,154.81,65.56Zm-.43-1.5c.12.43.39,1.13-.11,1.2-1.38.19-1.27.63-.48-1.17C154.2,63.18,154.27,63.66,154.39,64.06Zm-.38-1.3c.07.25-.56,1.68-.57,1.15,0-1.14,0,.68-1.15,1.72-1.83,1.64-1.48,1-1-.92.33-1.38,2.62-2.75,1-1.77-.68.41-.58.16-.5-.17.22-.74.72-3.12,1.8-1.07A2.88,2.88,0,0,1,154,62.76Zm.19-.27s-.15-1-.2-1.2.13-.17.37-.13C154.89,61.25,154.32,62.73,154.19,62.5Zm-1.07-3.82c-.16-.89.05-.86,1.23-.9C156.57,57.71,154.19,64.52,153.13,58.68Zm.26-1.06c-.28,0-.66.27-.35-.09C154.45,55.91,157.13,57.49,153.38,57.61Zm-1.58-.26a2.78,2.78,0,0,1,1-.92C153.3,58.1,150.84,58.86,151.8,57.35Zm.51-.87c-.73.53-.78,1.25-1.22.13s.71-1.16,1.12-1.53C152.43,54.87,152.82,56.1,152.3,56.48Zm-1-1.21c-1.8.7,1-.66,1-.64C152.31,54.85,151.49,55.19,151.28,55.27Zm1.35-1c.25-.37.49-1.07,1.2-1.31C154,52.87,153,53.82,152.63,54.24Zm-.09-.44c-.23.41-1.82,1.84-2.38.39-.44-1.15-.06-1.06.33-1.1C156.44,52.2,153.35,52.35,152.54,53.8Zm-2.15-1c-1.62.14-.94-2-.35-3.23.35-.75,4.94-4.68,4.53.83C154.41,52.66,155,52.08,150.39,52.81Zm8.06-3.87c-.22.35-1.14,1-.55.41C158.17,49.05,159.05,48,158.44,48.94Zm1.69-3.33c-.33.29-.23.06.7-1C161.54,43.85,161.76,44.17,160.13,45.61Zm1.65-3c.4-.08,1.09-.25.87.09C160.77,45.53,160.19,42.86,161.79,42.57Zm-1.43.25c1.17-.21-1.58,5-.83,2.64a20.59,20.59,0,0,0,.49-2.52S160.12,42.87,160.36,42.83Zm-.62.11s-.65,4-.65,4c-.45,1.33-2.28,3.15-2.64,3.59-2,2.47-1.73,1-1.53-1.67,0-.58-1.83-1.65,1.75-2.28.82-.14.88-.58-1.62.18C153.47,47.26,151.48,44.42,159.74,42.94Zm-7.48,1.25c1.15,1.21.54,1,.28,1.39-1.3,1.76-2,.69-.69.16.9-.36.69-.56-.05-.26s-.69.05-.09-.41.33-.59-.06-.28,0-.38-.11-.77S151.77,43.69,152.26,44.19Zm-1.16-.84c.31,1.06-.29.87-.94,1.2s-.08-.53.18-1,0-.63,0-.63C150.49,42.67,150.92,42.72,151.1,43.35Zm-1.31.27c-.19-.54.4-1.05.25-.54C150,43.16,149.82,43.71,149.79,43.62Zm1.4-.84s.12-.1.28-.16C152,42.41,151.6,43.82,151.19,42.78Zm-3.78-7.39c.05-.42.08-.71.49-.28,2.57,2.71,1.75,1.7.13,2.22C147.14,37.62,147.34,37.87,147.41,35.4Zm.19,2.31c.08,0,1.61-.31,1.76-.31.36,0,1.58,2.13,1.33,3.36-.06.28-.38,1.8-.69,1.84A51.36,51.36,0,0,1,147.6,37.71Zm-1.39.61c.36-.16,1-.56,1.3,0,1.16,2.28,1.2,1.86,1.72,3.33.62,1.75.5,1.35-2.24-1.73C146.55,39.39,144.51,39.09,146.21,38.31Zm-1.67.43-.5.51C143.62,39.68,143.51,38.35,144.54,38.74Zm-.72,2.43a2.07,2.07,0,0,1,.42-1.76c1.29-1.36,5.38,3.23,4.26,3.37-5.92.75-5.15,1.7-4.58-1.24A2.88,2.88,0,0,0,143.82,41.17Zm-.52,2.34c0,.26.18.32-.08.66S144.34,38.21,143.3,43.5Zm3.43-.24c2.38-.27,2.89-.59,2.76.74a1.34,1.34,0,0,1-.69,1.07c-.21.13-.37-1.46-.44-1.47-.24,0,.1,1.69,0,1.76a16.51,16.51,0,0,1-2.67.5c-2,.25-1.82.12-2-.95S145.58,43.4,146.73,43.27ZM143.49,45c0,.31-.07.46-.25.33C142.82,45,143.39,44.21,143.49,45Zm-3-1.3c2.58,1.72,1.84,1.22,1.61,2.06,0,.17-2.06-1-2.12-.93s2,1.23,2,1.5c-.21.78-.43.52-1.15,1.21s-1.07,2.19-1.18,1.66c-.06-.28.33-3.35.1-3.74-.86-1.41-1.55-1.6-.6-4.14C139.24,41,139.91,43.28,140.5,43.68Zm-6.06-7.4c.53.28,5.05,3.84,4.18,5.49-.47.89.32,2.56-1.39,1.41-2.7-1.81-1.6-2.31-3.31-5A9.85,9.85,0,0,1,134.45,36.27ZM125,35.13c-.7-.38,3.53-4,8.31,2.63.49.72-.42,4-.29,4.42C134.12,45.64,128.7,37.13,125,35.13Zm-4-4.88a10.82,10.82,0,0,1-.59,1.81c-.38-.24.28.54-.17.28-1.56-.92-.64-.63-1.82-1-1.62-.49.54.38,1.56,1.07.22.13.35.19.28.46-.67,2.38-.84,1.93-1.48.5-.26-.57-1.4-1.53-.56-.42,1.49,2,1.14,4.08.51,3.46-.37-.36-.57-.29-.07.19.32.31.54.54.13.38s-.37.06,0,.19c.57.22.77,4.25-1.23.74a5.34,5.34,0,0,1-.33-4.3c-.21-.08-.76,2.41-.83,2.3a3.66,3.66,0,0,1-1.15-2c-.43-1.68-1-1.67-.87-3.76.36-3.55,8.2-4.1,8.14-3.65a24.62,24.62,0,0,1-.63,2.59C121.75,29.15,121,30.17,120.94,30.26Zm9.64-7.91c-2.39,2.85-.33,2.63-5.05,5.93C114.71,35.84,131.57,21.17,130.57,22.35ZM129,26.42s.3-1.81,2.73-4.7C134.42,18.49,129,26.42,129,26.42Zm4.06-7.3c-.22.8.09.63-2.3,1.19-3.25.77-2.66.39-.08-.73C133.56,18.32,133.32,18.13,133,19.12Z"/><path class="cls-5" d="M172.35,101.55c5.65,17.16,35.65,11.78,38,6.2,1.1-2.56-4.14-4-3.63-10.9.4-5.38,4-9.27,2.57-11.87-1.12-2.06-3.89-.53-4.71-2.51-1.29-3.1,4.71-8.9,3.6-11.37-1.24-2.77-9.66,2.63-11.69-.47-1.87-2.85,3.72-9.75,2.43-11.16-2-2.13-19.58,8.31-25.45,25.22C172.78,86.84,170.08,94.65,172.35,101.55Z"/><path class="cls-6" d="M177.45,100.48c3.25,7.16,16.43,7.74,21.49,2.27A58.33,58.33,0,0,0,203.09,96c4.15-7.12,4-8,3.9-8.41-.92-2.87-8.87.93-9.57-1.47-.83-2.8,9.15-10.85,8.46-12.41s-9.53,5.53-12.15,3c-2.8-2.71,3.86-14.16,2.89-14.63C195.05,61.37,172.07,88.63,177.45,100.48Z"/><path class="cls-5" d="M156.76,124.87c8,17,46.3,18.11,49.13,13.46,1.3-2.14-5.49-4.57-5.13-10.8.28-4.88,4.71-7.75,2.78-10.43-1.53-2.13-5-1.28-6.16-3.27-1.8-3.13,5.66-7.26,4.13-9.76-1.72-2.81-12.29.46-15-2.81-2.53-3,4.36-8.24,2.63-9.81-2.6-2.36-24.79,3.69-31.58,18.11C156.67,111.38,153.54,118,156.76,124.87Z"/><path class="cls-6" d="M163.26,124.92c4.49,7.27,21.43,10.48,27.69,6.46.83-.53,2.24-2.14,5.05-5.35,5-5.73,4.83-6.59,4.65-7-1.31-2.83-11.35-.95-12.36-3.3-1.18-2.75,11.28-8.16,10.33-9.73s-12,3.17-15.47.3c-3.72-3.07,4.34-12.28,3.07-12.91C184.17,92.39,155.83,112.88,163.26,124.92Z"/><path class="cls-7" d="M140.83,68.46A28.14,28.14,0,1,0,112.69,96.6,28.14,28.14,0,0,0,140.83,68.46Zm-50.57,0a22.43,22.43,0,1,1,22.43,22.43A22.43,22.43,0,0,1,90.26,68.46Z"/><path class="cls-8" d="M140.83,68.46c0-.55,0-1.09-.05-1.63a28.14,28.14,0,0,1-56.18,0c0,.54-.05,1.08-.05,1.63a28.14,28.14,0,0,0,56.28,0Z"/><path class="cls-8" d="M135.05,66.83c0-.54.07-1.08.07-1.63a22.43,22.43,0,1,0-44.86,0c0,.55,0,1.09.07,1.63a22.42,22.42,0,0,1,44.73,0Z"/><rect class="cls-9" x="90.09" y="85.12" width="69.24" height="9.72" transform="translate(-28.26 105.69) rotate(-41.67)"/><polygon class="cls-10" points="160.66 70.99 109.85 116.21 102.08 116.62 153.8 70.59 160.66 70.99"/><polygon class="cls-11" points="147.34 63.33 153.8 70.59 160.66 70.99 154.2 63.73 147.34 63.33"/><path class="cls-12" d="M101.82,115.93c49-41.56,51.79-46.78,51.79-46.78-.1.45-.78.45-1,.42-4.55-.7-36.93,28.57-41.87,33.45C106.9,106.85,103.38,110.89,101.82,115.93Z"/><path class="cls-12" d="M102.1,114.23c1.17-1,49.2-40.16,49.92-43.33.38-1.69-1.5-3-3.18-3.39C146.47,67,107,98.41,99.33,112v0C99.24,112.4,100.87,113.64,102.1,114.23Z"/><path class="cls-13" d="M104.3,115c1.06-1,46.88-45.18,51.26-44.19a.3.3,0,0,1,.24.4l0,.07c-1.91,5.73-44.92,45.46-50.49,44.19A2.38,2.38,0,0,1,104.3,115Z"/><path class="cls-13" d="M104.86,115.79c11.06-6.08,50.62-42.74,50.88-43.87,1.29-5.68-12.89,10.74-36.49,31.26C114.17,107.61,110,112.29,104.86,115.79Z"/><path class="cls-14" d="M166.35,68l.16,0c-26.05,11.4-11.36,51,15.73,42.23l-.15.07C212.13,100.76,195.44,55,166.35,68Zm15.38,37.54c-21,7.95-34.23-22-14.91-32.64C189.49,60.33,205.38,96.53,181.73,105.5Z"/><path class="cls-15" d="M165.43,67.54l.16,0c-26.05,11.4-11.36,51,15.73,42.23l-.15.07C211.21,100.34,194.51,54.56,165.43,67.54Zm13.94,38c-21.36,6.14-32.12-24.26-12.51-33.61C190.31,60.75,204.13,98.42,179.37,105.54Z"/><path class="cls-16" d="M165.3,67.54c-27.94,10.59-12.2,52.94,15.77,42.34S193.27,56.94,165.3,67.54Zm-9,27.56C148,72.81,181.72,60,190,82.32S164.64,117.42,156.33,95.1Z"/><path class="cls-17" d="M164.09,68c26.92-8.49,41.55,30.75,15.74,42.26C210.12,100.76,192.9,55.19,164.09,68Z"/><path class="cls-17" d="M165.69,72.35c-24.43,7.31-10.79,44.46,12.53,33.65C157,112.36,145.55,81.69,165.69,72.35Z"/><path class="cls-14" d="M175.71,87.52l.15-.07c-24.21,14.92-6.94,45.74,18.48,32.88l-.14.09C222.41,106.37,202.72,70.65,175.71,87.52Zm17.78,29c-19.58,11-34.72-11.92-16.94-24.87C197.41,76.41,215.57,104.11,193.49,116.47Z"/><path class="cls-15" d="M174.79,87.35l.15-.07C150.73,102.2,168,133,193.42,120.16l-.14.09C221.49,106.2,201.79,70.48,174.79,87.35ZM191.22,117c-20.11,9.5-32.87-14.28-14.71-26.17C198.23,76.6,214.52,106,191.22,117Z"/><path class="cls-16" d="M174.66,87.38c-26.09,14.61-7.59,47.59,18.53,33S200.78,72.76,174.66,87.38Zm-6.48,25.29c-9.76-17.36,21.71-35,31.48-17.62S178,130.05,168.18,112.67Z"/><path class="cls-17" d="M173.53,88.05C198.81,75.45,216,106,192,121,220.48,106.77,200.29,71.34,173.53,88.05Z"/><path class="cls-17" d="M175.42,91.4c-23,11.1-6.89,40.07,14.73,26.2C170.17,127.26,156.74,103.39,175.42,91.4Z"/><path class="cls-14" d="M183.86,73.55l.13,0c-20.35,10.27-3.54,35.21,18,26.6l-.11.06C225.76,90.8,206.55,61.92,183.86,73.55ZM201,97.06c-16.52,7.45-31-11.19-16.19-20.28C202.23,66.1,219.65,88.66,201,97.06Z"/><path class="cls-15" d="M183,73.37l.13,0c-20.35,10.27-3.54,35.21,18,26.6L201,100C224.94,90.61,205.74,61.73,183,73.37Zm16,24C182,103.61,169.51,84.4,184.75,76.16,203,66.3,218.83,90.05,199.06,97.33Z"/><path class="cls-16" d="M182.94,73.39c-22,9.93-4,36.61,18,26.67S205,63.45,182.94,73.39Zm-4.27,19.32c-9.5-14,17.06-26,26.56-12S188.18,106.77,178.67,92.71Z"/><path class="cls-17" d="M182,73.85c21.42-8.41,38.14,16.3,18,26.62C224.09,91,204.47,62.32,182,73.85Z"/><path class="cls-17" d="M183.82,76.56c-19.48,7.37-3.81,30.8,14.33,21.2C181.21,104.17,168.14,84.85,183.82,76.56Z"/><path class="cls-7" d="M163.5,115.83A28.14,28.14,0,1,0,135.36,144,28.14,28.14,0,0,0,163.5,115.83Zm-50.57,0a22.43,22.43,0,1,1,22.43,22.43A22.43,22.43,0,0,1,112.93,115.83Z"/><path class="cls-8" d="M163.5,115.83c0-.55,0-1.09-.05-1.63a28.14,28.14,0,0,1-56.18,0c0,.54-.05,1.08-.05,1.63a28.14,28.14,0,1,0,56.28,0Z"/><path class="cls-8" d="M157.73,114.2c0-.54.07-1.08.07-1.63a22.43,22.43,0,0,0-44.86,0c0,.55,0,1.09.07,1.63a22.42,22.42,0,0,1,44.73,0Z"/><path class="cls-18" d="M121.21,122.08c.06.21.16.53.3.93a26.21,26.21,0,0,0,12.1,14,24.21,24.21,0,0,0,18.42.93,24.22,24.22,0,0,0,18.42-1,26.22,26.22,0,0,0,12.07-14c.14-.41.24-.73.3-.93,5-16.31-9.52-31.29-15.6-35.23a25,25,0,0,0-9.85-3.48,31.32,31.32,0,0,0-10.8,0,25,25,0,0,0-9.84,3.5C130.67,90.77,116.19,105.78,121.21,122.08Z"/><path class="cls-19" d="M122.83,121.5c.06.2.15.5.29.88a24.84,24.84,0,0,0,11.46,13.24,23,23,0,0,0,17.45.88,23,23,0,0,0,17.45-.92,24.84,24.84,0,0,0,11.44-13.27c.13-.39.22-.69.28-.89,4.73-15.46-9-29.65-14.78-33.38a23.7,23.7,0,0,0-9.33-3.3,29.68,29.68,0,0,0-10.23,0,23.7,23.7,0,0,0-9.32,3.32C131.79,91.83,118.07,106.05,122.83,121.5Z"/><path class="cls-18" d="M165,117.59c-1.64,1.28-3.5-.29-5.08,1-2,1.56-2,6.3.33,8.89,2.68,3,7.94,2.52,11.11.62,5.41-3.25,5.39-11.11,5.38-14,0-11.58-8.74-18.64-10.5-20-2.55-2-6.48-5-9.85-3.48a6.62,6.62,0,0,0-3.49,7c.61,3.42,4.08,5.81,6.36,5.39,1.13-.21,1.33-1,2.22-1,2.5.13,4,6.22,4.14,7C166.15,111.19,167.23,115.86,165,117.59Z"/><path class="cls-20" d="M166.84,122.22c-.6-.8-.86-4.16-.86-4.16s3.15,1.2,3.75,2a1.81,1.81,0,0,1-2.89,2.16Z"/><path class="cls-20" d="M160.93,122.52c.22-1,2.6-3.36,2.6-3.36s1.14,3.17.93,4.15a1.81,1.81,0,0,1-3.53-.78Z"/><path class="cls-20" d="M170.29,117.93c-1-.29-3.15-2.85-3.15-2.85s3.25-.9,4.21-.6a1.81,1.81,0,0,1-1.05,3.45Z"/><path class="cls-20" d="M171.41,112.77c-1,.25-4.17-.8-4.17-.8s2.32-2.45,3.28-2.7a1.81,1.81,0,0,1,.89,3.5Z"/><path class="cls-20" d="M170.47,107.49c-.82.56-4.2.67-4.2.67s1.34-3.1,2.16-3.66a1.81,1.81,0,1,1,2,3Z"/><path class="cls-20" d="M167.93,102.72c-.44.66-2.87,1.74-2.87,1.74s.06-2.66.49-3.32a1.43,1.43,0,1,1,2.37,1.58Z"/><path class="cls-20" d="M164.92,99c-.18.77-2.08,2.63-2.08,2.63s-.88-2.51-.7-3.28a1.43,1.43,0,1,1,2.78.65Z"/><path class="cls-20" d="M160.19,98.37a8.7,8.7,0,0,1-.52,2.6A8.7,8.7,0,0,1,158,98.91a1.13,1.13,0,1,1,2.19-.54Z"/><path class="cls-18" d="M138.26,117.61c1.64,1.28,3.5-.3,5.08.95,2,1.55,2,6.3-.31,8.89-2.67,3-7.94,2.54-11.11.65-5.42-3.24-5.41-11.1-5.41-14,0-11.58,8.7-18.66,10.46-20,2.55-2,6.47-5,9.84-3.5a6.62,6.62,0,0,1,3.5,7c-.6,3.42-4.07,5.82-6.34,5.4-1.13-.21-1.34-1-2.22-1-2.5.13-3.95,6.23-4.12,7C137.12,111.22,136.05,115.89,138.26,117.61Z"/><path class="cls-20" d="M136.45,122.25c.6-.8.85-4.17.85-4.17s-3.15,1.21-3.75,2a1.81,1.81,0,1,0,2.9,2.16Z"/><path class="cls-20" d="M142.36,122.54c-.22-1-2.61-3.36-2.61-3.36s-1.14,3.18-.92,4.15a1.81,1.81,0,0,0,3.52-.79Z"/><path class="cls-20" d="M133,118c1-.29,3.15-2.86,3.15-2.86s-3.26-.89-4.21-.6A1.81,1.81,0,1,0,133,118Z"/><path class="cls-20" d="M131.87,112.81c1,.24,4.17-.81,4.17-.81s-2.32-2.45-3.29-2.69a1.81,1.81,0,1,0-.88,3.5Z"/><path class="cls-20" d="M132.79,107.52c.83.56,4.2.66,4.2.66s-1.35-3.09-2.17-3.65a1.81,1.81,0,1,0-2,3Z"/><path class="cls-20" d="M135.32,102.76c.44.65,2.87,1.73,2.87,1.73s-.06-2.66-.5-3.32a1.43,1.43,0,1,0-2.37,1.58Z"/><path class="cls-20" d="M138.33,99c.18.77,2.08,2.63,2.08,2.63s.87-2.52.69-3.28a1.43,1.43,0,0,0-2.78.65Z"/><path class="cls-20" d="M143.06,98.39a8.7,8.7,0,0,0,.53,2.6,8.7,8.7,0,0,0,1.66-2.07,1.13,1.13,0,1,0-2.19-.53Z"/><g class="cls-21"><path class="cls-22" d="M151.17,98.2c-2.12,4.47-4.31,31.33-4.31,31.57,0,9,.7,4.16,4.44,4h.42c3.74.16,4.44,5,4.43-4,0-.24-2.25-27.1-4.38-31.56v-.63a.38.38,0,0,1-.6,0Z"/></g><g class="cls-23"><path class="cls-24" d="M178.92,111.14c1.33,6.67-.7,13.22-5.41,16.88a15.06,15.06,0,0,1-8.44,3c-2.33.94-3.83,2.15-3.67,3s2.58,1.52,4.09,1.54c5.86.1,12.33-6.55,14-13.94A19.41,19.41,0,0,0,178.92,111.14Z"/></g><g class="cls-25"><path class="cls-26" d="M163.56,94.09c1.76,1.35,10.47,8.41,10.5,20,0,2.87,0,10.73-5.38,14a11.17,11.17,0,0,1-4.24,1.43,11.21,11.21,0,0,0,7-1.43c5.41-3.25,5.39-11.11,5.38-14,0-11.58-8.74-18.64-10.5-20-2.4-1.84-6-4.61-9.22-3.71C159.45,90.94,161.82,92.76,163.56,94.09Z"/><path class="cls-26" d="M160.79,118.12a3,3,0,0,0,.63-.09A2.92,2.92,0,0,0,160.79,118.12Z"/><path class="cls-26" d="M158.8,102c-.67,0-.95.4-1.52.71a3.89,3.89,0,0,0,2,.24,2.38,2.38,0,0,0,.82-.31A2.08,2.08,0,0,0,158.8,102Z"/></g><path class="cls-27" d="M148.8,95.55c-.6,4-4.07,6.79-6.34,6.3-1.13-.24-1.34-1.16-2.22-1.11-2.5.15-3.95,7.27-4.12,8.15-.5,2.54-1.56,8,.65,10,1.64,1.49,3.5-.35,5.08,1.11s1.86,4.73,1,7.63l.17-.18c2.32-2.59,2.28-7.34.31-8.89-1.58-1.25-3.44.33-5.08-.95-2.21-1.72-1.14-6.4-.64-8.57.17-.76,1.62-6.86,4.12-7,.89,0,1.09.74,2.22,1,2.28.42,5.74-2,6.34-5.4a6.8,6.8,0,0,0-1.75-5.71A8.8,8.8,0,0,1,148.8,95.55Z"/><rect class="cls-9" x="95.31" y="112.13" width="69.23" height="9.72" transform="matrix(0.83, -0.56, 0.56, 0.83, -43.14, 92.23)"/><polygon class="cls-10" points="168.13 103.06 111.64 140.96 103.89 140.31 161.38 101.74 168.13 103.06"/><polygon class="cls-11" points="155.97 93.67 161.38 101.74 168.13 103.06 162.71 95 155.97 93.67"/><path class="cls-12" d="M103.72,139.59c54.18-34.51,57.67-39.3,57.67-39.3-.16.43-.84.34-1,.29-4.41-1.31-40.47,23.28-46,27.44C110,131.29,106,134.8,103.72,139.59Z"/><path class="cls-12" d="M104.23,137.94c1.29-.81,54.21-33.1,55.35-36.13.61-1.62-1.08-3.18-2.69-3.79-2.28-.86-45.63,24.92-55.11,37.38v0C101.65,135.74,103.09,137.19,104.23,137.94Z"/><path class="cls-13" d="M106.3,139c1.19-.85,52.59-38.39,56.79-36.81a.3.3,0,0,1,.18.43l0,.07c-2.67,5.41-50.68,38.93-56,36.91A2.38,2.38,0,0,1,106.3,139Z"/><path class="cls-13" d="M106.75,139.86c11.78-4.52,56-35.46,56.37-36.54,2.05-5.46-14.23,8.89-40.4,26C117.08,133,112.34,137.1,106.75,139.86Z"/><path class="cls-18" d="M98.92,107l.76.21a21.08,21.08,0,0,0,14.74-1.93,19.47,19.47,0,0,0,8.78-11.95,19.47,19.47,0,0,0,7.5-12.79,21.08,21.08,0,0,0-4.06-14.3c-.21-.27-.38-.48-.49-.62-8.74-10.57-25.21-7.46-30.55-5.13a20.11,20.11,0,0,0-6.7,5.07,25.19,25.19,0,0,0-4.77,7.25,20.11,20.11,0,0,0-2,8.15C82.09,86.8,85.75,103.16,98.92,107Z"/><path class="cls-19" d="M99.24,105.67l.72.2a20,20,0,0,0,14-1.83,18.45,18.45,0,0,0,8.32-11.32,18.45,18.45,0,0,0,7.11-12.12A20,20,0,0,0,125.51,67l-.47-.58c-8.28-10-23.89-7.07-28.95-4.86a19.05,19.05,0,0,0-6.35,4.8,23.87,23.87,0,0,0-4.52,6.87A19.06,19.06,0,0,0,83.33,81C83.3,86.52,86.77,102,99.24,105.67Z"/><path class="cls-18" d="M115.3,75.61c.14,1.66-1.74,2.22-1.61,3.83.17,2,3.34,4.13,6.11,3.72,3.19-.48,5.21-4.21,5.34-7.18.22-5.07-5.07-8.54-7-9.8-7.79-5.11-16.38-2.39-18.07-1.8-2.45.85-6.21,2.15-6.7,5.07a5.32,5.32,0,0,0,3.15,5.43C99.1,76,102.24,74.71,103,73c.36-.85-.08-1.34.34-1.91,1.19-1.62,5.93.1,6.52.31C111.5,72,115.11,73.37,115.3,75.61Z"/><path class="cls-20" d="M119.21,76.44c-.8,0-3.17-1.27-3.17-1.27s2.2-1.58,3-1.63a1.45,1.45,0,0,1,.17,2.9Z"/><path class="cls-20" d="M116.8,80.54c-.56-.58-1.11-3.23-1.11-3.23s2.64.64,3.19,1.21a1.45,1.45,0,1,1-2.09,2Z"/><path class="cls-20" d="M117.86,72.23c-.62.51-3.31.85-3.31.85s.84-2.58,1.46-3.09a1.45,1.45,0,0,1,1.85,2.24Z"/><path class="cls-20" d="M114.89,69.2c-.26.76-2.39,2.45-2.39,2.45s-.62-2.64-.36-3.4a1.45,1.45,0,1,1,2.74,1Z"/><path class="cls-20" d="M110.93,67.49c0,.8-1.41,3.11-1.41,3.11S108,68.33,108,67.53a1.45,1.45,0,0,1,2.9,0Z"/><path class="cls-20" d="M106.61,67.08a8.84,8.84,0,0,1-.1,2.7s-1.76-1.22-2-1.8a1.15,1.15,0,0,1,2.11-.89Z"/><path class="cls-20" d="M102.76,67.45a8.84,8.84,0,0,1,.85,2.56,8.84,8.84,0,0,1-2.51-1,1.15,1.15,0,0,1,1.66-1.58Z"/><path class="cls-20" d="M100.26,70.36c.47.17,1.51,1.5,1.51,1.5a7,7,0,0,1-2.12.2.91.91,0,1,1,.61-1.71Z"/><path class="cls-18" d="M103.47,93.59c1.58-.53,1.35-2.48,2.89-3,1.91-.64,5.12,1.44,5.83,4.14.82,3.12-1.81,6.45-4.49,7.74-4.57,2.21-9.85-1.28-11.77-2.55-7.77-5.13-8.67-14.1-8.8-15.88-.19-2.58-.49-6.56,2-8.15a5.32,5.32,0,0,1,6.24.74c2,1.92,2.11,5.31.82,6.65-.64.67-1.26.46-1.62,1.07-1,1.74,2.43,5.41,2.87,5.86C98.67,91.52,101.33,94.31,103.47,93.59Z"/><path class="cls-20" d="M105.78,96.86c-.27-.75-2.42-2.41-2.42-2.41s-.58,2.65-.31,3.4a1.45,1.45,0,1,0,2.73-1Z"/><path class="cls-20" d="M108.59,93c-.75-.28-3.41.26-3.41.26s1.63,2.17,2.38,2.45a1.45,1.45,0,1,0,1-2.72Z"/><path class="cls-20" d="M101.38,97.28c.23-.77-.52-3.38-.52-3.38s-2,1.79-2.26,2.56a1.45,1.45,0,0,0,2.79.82Z"/><path class="cls-20" d="M97.41,95.75c.59-.54,1.3-3.16,1.3-3.16s-2.67.47-3.26,1a1.45,1.45,0,0,0,2,2.14Z"/><path class="cls-20" d="M94.28,92.79c.74-.31,2.3-2.52,2.3-2.52s-2.67-.47-3.41-.16a1.45,1.45,0,0,0,1.11,2.68Z"/><path class="cls-20" d="M92.2,89a8.84,8.84,0,0,0,2.44-1.16,8.84,8.84,0,0,0-2.45-1.13,1.15,1.15,0,0,0,0,2.29Z"/><path class="cls-20" d="M91,85.3a8.84,8.84,0,0,0,2.69-.23s-1.3-1.7-1.9-1.92A1.15,1.15,0,1,0,91,85.3Z"/><path class="cls-20" d="M92.69,81.86a7,7,0,0,0,2,.8,7,7,0,0,0-.65-2,.91.91,0,1,0-1.33,1.24Z"/><g class="cls-21"><path class="cls-22" d="M96.16,76.33c2.06,3.4,19.12,16.76,19.28,16.87,6,4,3.11,1.37,4.65-1.21l.09-.14.1-.14c1.76-2.44,5.3-.78-.73-4.75-.16-.1-19.18-10.49-23.12-11L96,75.65a.31.31,0,0,1-.27.4Z"/></g><g class="cls-23"><path class="cls-24" d="M117.12,63.44c5.07,2.06,8.56,6.33,8.94,11.1a12.11,12.11,0,0,1-1.71,7c-.4,2-.25,3.52.41,3.81s2.16-1.06,2.85-2.06c2.66-3.89,1.06-11.18-3.14-15.59A15.61,15.61,0,0,0,117.12,63.44Z"/></g><g class="cls-25"><path class="cls-26" d="M98.88,66.2c1.69-.58,10.28-3.3,18.07,1.8,1.93,1.26,7.22,4.73,7,9.8a9,9,0,0,1-.92,3.48,9,9,0,0,0,2.12-5.3c.22-5.07-5.07-8.54-7-9.8-7.79-5.11-16.38-2.39-18.07-1.8-2.3.79-5.75,2-6.57,4.54A15.19,15.19,0,0,1,98.88,66.2Z"/><path class="cls-26" d="M113.78,78.69a2.41,2.41,0,0,0,.22-.46A2.36,2.36,0,0,0,113.78,78.69Z"/><path class="cls-26" d="M102.11,72.9c-.32.43-.15.81-.2,1.34A3.13,3.13,0,0,0,103,73a1.91,1.91,0,0,0,.15-.69A1.67,1.67,0,0,0,102.11,72.9Z"/></g><path class="cls-27" d="M93.32,76.75c2.41,2.17,2.76,5.73,1.42,7-.66.65-1.37.38-1.73,1-1,1.75,3.13,5.87,3.65,6.37,1.48,1.46,4.67,4.59,7,4,1.73-.44,1.31-2.5,3-2.92s4,.85,5.57,2.69l0-.2c-.72-2.7-3.92-4.78-5.83-4.14-1.54.51-1.3,2.46-2.89,3-2.13.72-4.8-2.07-6-3.36-.43-.45-3.89-4.12-2.87-5.86.36-.62,1-.4,1.62-1.07,1.29-1.34,1.21-4.73-.82-6.65a5.46,5.46,0,0,0-4.61-1.35A7.07,7.07,0,0,1,93.32,76.75Z"/><rect class="cls-9" x="60.96" y="79.07" width="69.23" height="9.72" transform="translate(-27.61 115.62) rotate(-55.72)"/><polygon class="cls-10" points="125.84 56.79 87.52 112.99 80.09 115.27 119.09 58.07 125.84 56.79"/><polygon class="cls-11" points="111.06 52.59 119.09 58.07 125.84 56.79 117.81 51.31 111.06 52.59"/><path class="cls-12" d="M79.66,114.66c37.44-52.2,38.89-57.95,38.89-57.95,0,.46-.65.63-.83.64-4.58.43-28.9,36.67-32.5,42.61C82.39,104.62,80,109.39,79.66,114.66Z"/><path class="cls-12" d="M79.52,112.95c.9-1.24,38-50.9,37.92-54.14,0-1.73-2.19-2.55-3.9-2.52-2.43.05-33.07,40.12-37.24,55.21a.09.09,0,0,0,0,0C76.31,111.86,78.19,112.68,79.52,112.95Z"/><path class="cls-13" d="M81.86,113.2c.79-1.23,34.52-55.21,39-55.3a.3.3,0,0,1,.33.33.71.71,0,0,1,0,.07c-.46,6-32.55,55-38.26,55.12A2.38,2.38,0,0,1,81.86,113.2Z"/><path class="cls-13" d="M82.58,113.79c9.25-8.58,38.74-53.74,38.71-54.9-.12-5.83-9.9,13.55-27.81,39.18C89.62,103.6,86.73,109.15,82.58,113.79Z"/><path class="cls-4" d="M72.09,164.81l105.55-26.13A169.9,169.9,0,0,1,122.07,101,169.86,169.86,0,0,1,86.19,46.32L59.93,152.65A10,10,0,0,0,72.09,164.81Z"/><ellipse class="cls-28" cx="91.73" cy="90.42" rx="3.83" ry="8.3" transform="matrix(0.01, -1, 1, 0.01, 0.56, 181.41)"/><ellipse class="cls-28" cx="111.17" cy="129.42" rx="7.78" ry="3.59" transform="translate(-49.98 185.44) rotate(-68.51)"/><ellipse class="cls-28" cx="137.68" cy="136.33" rx="3.39" ry="7.35" transform="translate(-49.08 187.94) rotate(-60.17)"/><ellipse class="cls-28" cx="79.44" cy="148.61" rx="2.48" ry="5.38" transform="translate(-26.62 17.66) rotate(-10.88)"/><ellipse class="cls-28" cx="83.77" cy="119.06" rx="2.48" ry="5.37" transform="translate(-48.29 57.8) rotate(-29.98)"/><path class="cls-29" d="M117.78,105.25a169.77,169.77,0,0,0,50.86,35.65l9-2.23A169.9,169.9,0,0,1,122.07,101,169.86,169.86,0,0,1,86.19,46.32l-2.25,9.09A169.76,169.76,0,0,0,117.78,105.25Z"/><path class="cls-30" d="M65.38,154.21c1.18.54,3.12-1,5.87-4,2.6-2.82,31.4-35,19.89-68.13-1.19-3.42-3.29-9.49-6-9.45-4,.06-5.62,13.52-12.88,43.8C66.6,140,62.51,152.89,65.38,154.21Z"/><path class="cls-30" d="M84.28,83.78C74.87,127.23,60.8,148.21,68,153.35c1.78,1.28,4.91.56,11.17-.86,5.46-1.24,17.2-3.91,22.33-12,2.63-4.16,2.73-8.49-.86-26.63-4.59-23.17-8.21-41.49-12-41.23C86.51,72.75,85.47,78.26,84.28,83.78Z"/><g class="cls-31"><path class="cls-32" d="M66.1,156.07a6.29,6.29,0,0,0,1.21,3.09C75.79,167.63,153,142,157,138.75c-8.5-1-22.56-16.76-86.17,12.6a10.39,10.39,0,0,0-3,2A7.59,7.59,0,0,0,66.1,156.07Z"/></g><g class="cls-31"><path class="cls-32" d="M69.68,158.5c37.52-7.64,80.34-16.93,79.88-19.75-.07-.42-1.06-.65-4.29-.86-10.77-.69-21.17.58-35.21,4.29-18.47,4.89-29.38,10.35-32.64,12S71.57,157.37,69.68,158.5Z"/></g></g></g></g></svg>