<svg xmlns="http://www.w3.org/2000/svg" xmlns:xlink="http://www.w3.org/1999/xlink" viewBox="0 0 206.98 88.18"><defs><style>.cls-1{fill:#730503;}.cls-2{fill:#fff;}.cls-3{fill:#fefefe;}.cls-4{fill:#fdfdfd;}.cls-5{fill:#fcfcfc;}.cls-6{fill:#fbfbfb;}.cls-7{fill:#fafafa;}.cls-8{fill:#f9f9f9;}.cls-9{fill:#f8f8f8;}.cls-10{fill:#f7f7f7;}.cls-11{fill:#f6f6f6;}.cls-12{fill:#f5f5f5;}.cls-13{fill:#f4f4f4;}.cls-14{fill:#f3f3f3;}.cls-15{fill:#f2f2f2;}.cls-16{fill:#f1f1f1;}.cls-17{fill:#f0f0f0;}.cls-18{fill:#efefef;}.cls-19{fill:#eee;}.cls-20{fill:#ededed;}.cls-21{fill:#ececec;}.cls-22{fill:#ebebeb;}.cls-23{fill:#eaeaea;}.cls-24{fill:#e9e9e9;}.cls-25{fill:#e8e8e8;}.cls-26{fill:#e7e7e7;}.cls-27{fill:#e6e6e6;}.cls-28{fill:#e5e5e5;}.cls-29{fill:#e4e4e4;}.cls-30{fill:#e3e3e3;}.cls-31{fill:#e2e2e2;}.cls-32{fill:#e1e1e1;}.cls-33{fill:#e0e0e0;}.cls-34{fill:#dfdfdf;}.cls-35{fill:#dedede;}.cls-36{fill:#ddd;}.cls-37{fill:#dcdcdc;}.cls-38{fill:#dbdbdb;}.cls-39{fill:#dadada;}.cls-40{fill:#d9d9d9;}.cls-41{fill:#d8d8d8;}.cls-42{fill:#d7d7d7;}.cls-43{fill:#d6d6d6;}.cls-44{fill:#d5d5d5;}.cls-45{fill:#d4d4d4;}.cls-46{fill:#d3d3d3;}.cls-47{fill:#d2d2d2;}.cls-48{fill:#d1d1d1;}.cls-49{fill:#d0d0d0;}.cls-50{fill:#cfcfcf;}.cls-51{fill:#cecece;}.cls-52{fill:#cdcdcd;}.cls-53{fill:#ccc;}.cls-54{fill:#cbcbcb;}.cls-55{fill:#cacaca;}.cls-56{fill:#c9c9c9;}.cls-57{fill:#c8c8c8;}.cls-58{fill:#c7c7c7;}.cls-59{fill:#c6c6c6;}.cls-60{fill:#c5c5c5;}.cls-61{fill:#c4c4c4;}.cls-62{fill:#c3c3c3;}.cls-63{fill:#c2c2c2;}.cls-64{fill:#c1c1c1;}.cls-65{fill:silver;}.cls-66{fill:#bfbfbf;}.cls-67{fill:#bebebe;}.cls-68{fill:#bdbdbd;}.cls-69{fill:#bcbcbc;}.cls-70{fill:#bbb;}.cls-71{fill:#bababa;}.cls-72{fill:#b9b9b9;}.cls-73{fill:#b8b8b8;}.cls-74{fill:#b7b7b7;}.cls-75{fill:#b6b6b6;}.cls-76{fill:#b5b5b5;}.cls-77{fill:#b4b4b4;}.cls-78{fill:#b3b3b3;}.cls-79{fill:#b2b2b2;}.cls-80{fill:#b1b1b1;}.cls-81{fill:#b0b0b0;}.cls-82{fill:#afafaf;}.cls-83{fill:#aeaeae;}.cls-84{fill:#adadad;}.cls-85{fill:#acacac;}.cls-86{fill:#ababab;}.cls-87{fill:#aaa;}.cls-88{fill:#a9a9a9;}.cls-89{fill:#a8a8a8;}.cls-90{fill:#a7a7a7;}.cls-91{fill:#a6a6a6;}.cls-92{fill:#a5a5a5;}.cls-93{fill:#a4a4a4;}.cls-94{fill:#a3a3a3;}.cls-95{fill:#a2a2a2;}.cls-96{fill:#a1a1a1;}.cls-97{fill:#a0a0a0;}.cls-98{fill:#9f9f9f;}.cls-99{fill:#9e9e9e;}.cls-100{fill:#9d9d9d;}.cls-101{fill:#9c9c9c;}.cls-102{fill:#9b9b9b;}.cls-103{fill:#9a9a9a;}.cls-104{fill:#999;}.cls-105{fill:url(#linear-gradient);}</style><linearGradient id="linear-gradient" y1="38.91" x2="198.65" y2="38.91" gradientUnits="userSpaceOnUse"><stop offset="0" stop-color="#8a2027"/><stop offset="0" stop-color="#8b2027"/><stop offset="0.05" stop-color="#d42027"/><stop offset="0.13" stop-color="#dc494e"/><stop offset="0.24" stop-color="#d42027"/><stop offset="1" stop-color="#d42027"/></linearGradient></defs><title>Ресурс 19elements</title><g id="Слой_2" data-name="Слой 2"><g id="Layer_1" data-name="Layer 1"><path class="cls-1" d="M0,78.38s0,9.8,10.17,9.8V64S0,64.43,0,78.38Z"/><path class="cls-2" d="M10.17,72.77H171.49c6.76,0,24-42.11,35.49-67.72H10.17Z"/><path class="cls-3" d="M10.17,72.69H171.38c6.76,0,24-42,35.46-67.64H10.17Z"/><path class="cls-4" d="M10.17,72.6H171.28c6.76,0,24-42,35.42-67.55H10.17Z"/><path class="cls-5" d="M10.17,72.52h161c6.76,0,24-41.87,35.39-67.47H10.17Z"/><path class="cls-6" d="M10.17,72.44h160.9c6.76,0,23.95-41.79,35.36-67.39H10.17Z"/><path class="cls-7" d="M10.17,72.36H171c6.76,0,23.92-41.71,35.32-67.31H10.17Z"/><path class="cls-8" d="M10.17,72.27H170.86c6.76,0,23.9-41.63,35.29-67.22h-196Z"/><path class="cls-9" d="M10.17,72.19H170.75c6.76,0,23.87-41.55,35.26-67.14H10.17Z"/><path class="cls-10" d="M10.17,72.11H170.65c6.76,0,23.85-41.47,35.22-67.06H10.17Z"/><path class="cls-11" d="M10.17,72H170.54c6.76,0,23.82-41.39,35.19-67H10.17Z"/><path class="cls-12" d="M10.17,71.95H170.44c6.76,0,23.8-41.31,35.16-66.9H10.17Z"/><path class="cls-13" d="M10.17,71.86H170.34c6.76,0,23.77-41.23,35.12-66.81H10.17Z"/><path class="cls-14" d="M10.17,71.78H170.23c6.76,0,23.75-41.15,35.09-66.73H10.17Z"/><path class="cls-15" d="M10.17,71.7h160c6.76,0,23.72-41.07,35.06-66.65h-195Z"/><path class="cls-16" d="M10.17,71.62H170c6.76,0,23.69-41,35-66.57H10.17Z"/><path class="cls-17" d="M10.17,71.53H169.92c6.76,0,23.67-40.91,35-66.48H10.17Z"/><path class="cls-18" d="M10.17,71.45H169.81c6.76,0,23.64-40.83,35-66.4H10.17Z"/><path class="cls-19" d="M10.17,71.37H169.71c6.76,0,23.62-40.75,34.92-66.32H10.17Z"/><path class="cls-20" d="M10.17,71.29H169.6c6.76,0,23.59-40.67,34.89-66.24H10.17Z"/><path class="cls-21" d="M10.17,71.2H169.5c6.76,0,23.57-40.59,34.86-66.15H10.17Z"/><path class="cls-22" d="M10.17,71.12H169.39c6.76,0,23.54-40.51,34.82-66.07h-194Z"/><path class="cls-23" d="M10.17,71H169.29c6.76,0,23.52-40.43,34.79-66H10.17Z"/><path class="cls-24" d="M10.17,71h159c6.76,0,23.49-40.35,34.76-65.91H10.17Z"/><path class="cls-25" d="M10.17,70.87H169.08c6.76,0,23.47-40.27,34.72-65.82H10.17Z"/><path class="cls-26" d="M10.17,70.79H169c6.76,0,23.44-40.19,34.69-65.74H10.17Z"/><path class="cls-27" d="M10.17,70.71h158.7c6.76,0,23.42-40.11,34.66-65.66H10.17Z"/><path class="cls-28" d="M10.17,70.63h158.6c6.76,0,23.39-40,34.62-65.58H10.17Z"/><path class="cls-29" d="M10.17,70.54H168.66c6.76,0,23.37-40,34.59-65.49H10.17Z"/><path class="cls-30" d="M10.17,70.46H168.55c6.76,0,23.34-39.87,34.56-65.41H10.17Z"/><path class="cls-31" d="M10.17,70.38H168.45c6.76,0,23.32-39.79,34.52-65.33H10.17Z"/><path class="cls-32" d="M10.17,70.3H168.34c6.76,0,23.29-39.71,34.49-65.25H10.17Z"/><path class="cls-33" d="M10.17,70.22H168.24c6.76,0,23.27-39.64,34.46-65.16H10.17Z"/><path class="cls-34" d="M10.17,70.13h158c6.76,0,23.24-39.55,34.42-65.08H10.17Z"/><path class="cls-35" d="M10.17,70H168c6.76,0,23.22-39.48,34.39-65H10.17Z"/><path class="cls-36" d="M10.17,70H167.92c6.76,0,23.19-39.4,34.36-64.92H10.17Z"/><path class="cls-37" d="M10.17,69.89H167.82c6.76,0,23.17-39.31,34.32-64.83h-192Z"/><path class="cls-38" d="M10.17,69.8H167.71c6.76,0,23.14-39.24,34.29-64.75H10.17Z"/><path class="cls-39" d="M10.17,69.72H167.61c6.76,0,23.12-39.16,34.26-64.67H10.17Z"/><path class="cls-40" d="M10.17,69.64H167.5c6.76,0,23.09-39.08,34.22-64.59H10.17Z"/><path class="cls-41" d="M10.17,69.56H167.4c6.76,0,23.07-39,34.19-64.51H10.17Z"/><path class="cls-42" d="M10.17,69.47H167.29c6.76,0,23-38.92,34.16-64.42H10.17Z"/><path class="cls-43" d="M10.17,69.39h157c6.76,0,23-38.84,34.12-64.34H10.17Z"/><path class="cls-44" d="M10.17,69.31H167.08c6.76,0,23-38.76,34.09-64.26h-191Z"/><path class="cls-45" d="M10.17,69.23H167c6.76,0,23-38.68,34.06-64.18H10.17Z"/><path class="cls-46" d="M10.17,69.14H166.88c6.76,0,22.94-38.6,34-64.09H10.17Z"/><path class="cls-47" d="M10.17,69.06h156.6c6.76,0,22.92-38.52,34-64H10.17Z"/><path class="cls-48" d="M10.17,69h156.5c6.76,0,22.89-38.44,34-63.93H10.17Z"/><path class="cls-49" d="M10.17,68.9H166.56c6.76,0,22.87-38.36,33.92-63.85H10.17Z"/><path class="cls-50" d="M10.17,68.81H166.46c6.76,0,22.84-38.28,33.89-63.76H10.17Z"/><path class="cls-51" d="M10.17,68.73H166.35c6.76,0,22.82-38.2,33.86-63.68h-190Z"/><path class="cls-52" d="M10.17,68.65H166.25c6.76,0,22.79-38.12,33.82-63.6H10.17Z"/><path class="cls-53" d="M10.17,68.57h156c6.76,0,22.77-38,33.79-63.52H10.17Z"/><path class="cls-53" d="M10.17,68.48H166c6.76,0,22.74-38,33.75-63.43H10.17Z"/><path class="cls-54" d="M10.17,68.4H165.93c6.76,0,22.72-37.88,33.72-63.35H10.17Z"/><path class="cls-55" d="M10.17,68.32H165.83c6.76,0,22.69-37.8,33.69-63.27H10.17Z"/><path class="cls-56" d="M10.17,68.24H165.72c6.76,0,22.67-37.72,33.65-63.19H10.17Z"/><path class="cls-57" d="M10.17,68.16H165.62c6.76,0,22.64-37.64,33.62-63.1H10.17Z"/><path class="cls-58" d="M10.17,68.07H165.51c6.76,0,22.62-37.56,33.59-63H10.17Z"/><path class="cls-59" d="M10.17,68H165.41C172.17,68,188,30.51,199,5.05H10.17Z"/><path class="cls-60" d="M10.17,67.91H165.3c6.76,0,22.57-37.4,33.52-62.86H10.17Z"/><path class="cls-61" d="M10.17,67.83h155c6.76,0,22.54-37.32,33.49-62.78H10.17Z"/><path class="cls-62" d="M10.17,67.74H165.09c6.76,0,22.51-37.24,33.45-62.69H10.17Z"/><path class="cls-63" d="M10.17,67.66H165c6.76,0,22.49-37.16,33.42-62.61H10.17Z"/><path class="cls-64" d="M10.17,67.58H164.88c6.76,0,22.46-37.08,33.39-62.53H10.17Z"/><path class="cls-65" d="M10.17,67.5H164.78c6.76,0,22.44-37,33.35-62.45h-188Z"/><path class="cls-66" d="M10.17,67.41H164.67c6.76,0,22.41-36.92,33.32-62.36H10.17Z"/><path class="cls-67" d="M10.17,67.33h154.4c6.76,0,22.39-36.84,33.29-62.28H10.17Z"/><path class="cls-68" d="M10.17,67.25h154.3c6.76,0,22.36-36.76,33.25-62.2H10.17Z"/><path class="cls-69" d="M10.17,67.17H164.36c6.76,0,22.34-36.68,33.22-62.12H10.17Z"/><path class="cls-70" d="M10.17,67.08H164.25c6.76,0,22.31-36.6,33.19-62H10.17Z"/><path class="cls-71" d="M10.17,67h154c6.76,0,22.29-36.52,33.15-62H10.17Z"/><path class="cls-72" d="M10.17,66.92H164c6.76,0,22.26-36.44,33.12-61.87h-187Z"/><path class="cls-73" d="M10.17,66.84H163.94c6.76,0,22.24-36.36,33.09-61.79H10.17Z"/><path class="cls-74" d="M10.17,66.75H163.83c6.76,0,22.21-36.28,33.05-61.7H10.17Z"/><path class="cls-75" d="M10.17,66.67H163.73c6.76,0,22.19-36.2,33-61.62H10.17Z"/><path class="cls-76" d="M10.17,66.59H163.63c6.76,0,22.16-36.12,33-61.54H10.17Z"/><path class="cls-77" d="M10.17,66.51H163.52c6.76,0,22.14-36,33-61.46H10.17Z"/><path class="cls-78" d="M10.17,66.42H163.42c6.76,0,22.11-36,32.92-61.37H10.17Z"/><path class="cls-79" d="M10.17,66.34H163.31c6.76,0,22.09-35.88,32.89-61.29h-186Z"/><path class="cls-80" d="M10.17,66.26h153c6.76,0,22.06-35.8,32.85-61.21H10.17Z"/><path class="cls-81" d="M10.17,66.18H163.1c6.76,0,22-35.72,32.82-61.13H10.17Z"/><path class="cls-82" d="M10.17,66.1H163c6.76,0,22-35.64,32.79-61H10.17Z"/><path class="cls-83" d="M10.17,66H162.89c6.76,0,22-35.56,32.75-61H10.17Z"/><path class="cls-84" d="M10.17,65.93H162.79c6.76,0,22-35.48,32.72-60.88H10.17Z"/><path class="cls-85" d="M10.17,65.85H162.68c6.76,0,21.94-35.4,32.69-60.8H10.17Z"/><path class="cls-86" d="M10.17,65.77H162.58c6.76,0,21.91-35.32,32.65-60.72H10.17Z"/><path class="cls-87" d="M10.17,65.68h152.3c6.76,0,21.89-35.24,32.62-60.63H10.17Z"/><path class="cls-88" d="M10.17,65.6h152.2c6.76,0,21.86-35.16,32.59-60.55H10.17Z"/><path class="cls-89" d="M10.17,65.52H162.26c6.76,0,21.84-35.08,32.55-60.47H10.17Z"/><path class="cls-90" d="M10.17,65.44h152c6.76,0,21.81-35,32.52-60.39H10.17Z"/><path class="cls-91" d="M10.17,65.35H162.05c6.76,0,21.79-34.92,32.49-60.3H10.17Z"/><path class="cls-92" d="M10.17,65.27H161.95c6.76,0,21.76-34.84,32.45-60.22H10.17Z"/><path class="cls-93" d="M10.17,65.19H161.84c6.76,0,21.74-34.76,32.42-60.14H10.17Z"/><path class="cls-94" d="M10.17,65.11H161.74c6.76,0,21.71-34.68,32.39-60.06h-184Z"/><path class="cls-95" d="M10.17,65H161.63c6.76,0,21.69-34.6,32.35-60H10.17Z"/><path class="cls-96" d="M10.17,64.94H161.53c6.76,0,21.66-34.52,32.32-59.89H10.17Z"/><path class="cls-97" d="M10.17,64.86H161.42c6.76,0,21.64-34.44,32.29-59.81H10.17Z"/><path class="cls-98" d="M10.17,64.78H161.32c6.76,0,21.61-34.36,32.25-59.73H10.17Z"/><path class="cls-99" d="M10.17,64.69h151c6.76,0,21.59-34.29,32.22-59.64H10.17Z"/><path class="cls-100" d="M10.17,64.61H161.11c6.76,0,21.56-34.21,32.19-59.56H10.17Z"/><path class="cls-101" d="M10.17,64.53H161c6.76,0,21.53-34.13,32.15-59.48h-183Z"/><path class="cls-102" d="M10.17,64.45H160.9c6.76,0,21.51-34,32.12-59.4H10.17Z"/><path class="cls-103" d="M10.17,64.36H160.79c6.76,0,21.48-34,32.09-59.31H10.17Z"/><path class="cls-104" d="M10.17,64.28H160.69c6.76,0,21.46-33.89,32.05-59.23H10.17Z"/><path class="cls-105" d="M0,77.82S0,64.43,19.38,64.43H166.76A4.25,4.25,0,0,0,170.6,62L198.41,3.5A2.45,2.45,0,0,0,196.2,0H19.38C0,0,0,13.39,0,13.39Z"/></g></g></svg>