<svg xmlns="http://www.w3.org/2000/svg" xmlns:xlink="http://www.w3.org/1999/xlink" viewBox="0 0 134.77 134.74"><defs><style>.cls-1{fill:url(#linear-gradient);}.cls-2{fill:#fff;}.cls-3{fill:#fcee21;}.cls-4{fill:url(#linear-gradient-2);}</style><linearGradient id="linear-gradient" x1="77.35" y1="23.33" x2="57.24" y2="-84.98" gradientTransform="translate(38.35 139.85) rotate(-34.48)" gradientUnits="userSpaceOnUse"><stop offset="0" stop-color="#29abe2"/><stop offset="0.7" stop-color="#29abe2"/><stop offset="1" stop-color="#0071bc"/></linearGradient><linearGradient id="linear-gradient-2" x1="3043.01" y1="-2484.08" x2="3043.01" y2="-2499.8" gradientTransform="translate(434.17 -3869.38) rotate(135)" gradientUnits="userSpaceOnUse"><stop offset="0" stop-color="#cc7b19"/><stop offset="0.25" stop-color="#fbb03b"/><stop offset="0.55" stop-color="#fcc731"/><stop offset="0.82" stop-color="#fbb03b"/><stop offset="1" stop-color="#fbb03b"/></linearGradient></defs><title>Ресурс 38elements</title><g id="Слой_2" data-name="Слой 2"><g id="Layer_1" data-name="Layer 1"><polygon class="cls-1" points="124.24 67.46 134.77 59.88 122.84 54.8 131.42 45.08 118.66 42.78 124.86 31.39 111.9 31.99 115.41 19.5 102.92 22.97 103.56 10.02 92.15 16.17 89.89 3.4 80.13 11.95 75.09 0 67.48 10.5 10.53 67.25 0 74.83 11.93 79.91 3.35 89.63 16.11 91.94 9.91 103.32 22.87 102.73 19.36 115.21 31.86 111.75 31.21 124.7 42.63 118.54 44.88 131.31 54.63 122.77 59.67 134.72 67.28 124.22 74.86 134.74 79.94 122.81 89.66 131.39 91.96 118.63 103.35 124.83 102.75 111.87 115.24 115.38 111.77 102.89 124.73 103.53 118.57 92.12 131.34 89.86 122.79 80.11 134.74 75.07 124.24 67.46"/><path class="cls-2" d="M39.1,70.52a11.94,11.94,0,0,0,5,1.34c2.64,0,4-1.27,4-2.9,0-2.13-2.13-3.1-4.37-3.1H41.66V62.21h2c1.7,0,3.87-.67,3.87-2.5,0-1.3-1.07-2.27-3.2-2.27a9.9,9.9,0,0,0-4.54,1.3l-1-3.67a13.59,13.59,0,0,1,6.7-1.63c4.64,0,7.21,2.44,7.21,5.4,0,2.3-1.3,4.1-4,5v.07a5.39,5.39,0,0,1,4.7,5.27c0,3.84-3.37,6.64-8.87,6.64a12.81,12.81,0,0,1-6.44-1.53Z"/><path class="cls-2" d="M72.72,64.55c0,6.7-2.7,11.31-8.24,11.31s-8.07-5-8.11-11.17S59,53.44,64.64,53.44C70.45,53.44,72.72,58.61,72.72,64.55Zm-11.24.13c0,5,1.17,7.34,3.14,7.34s3-2.47,3-7.41-1-7.34-3.07-7.34C62.71,57.28,61.44,59.64,61.48,64.68Z"/><path class="cls-2" d="M86.62,59.88c0,4.54-2.87,6.91-6,6.91-3.3,0-5.9-2.47-5.9-6.54,0-3.87,2.37-6.81,6.07-6.81S86.62,56.18,86.62,59.88Zm-8.14.24c0,2.27.77,3.9,2.23,3.9s2.13-1.47,2.13-3.9c0-2.2-.6-3.9-2.17-3.9S78.49,57.94,78.49,60.11Zm2.4,15.74L93.33,53.44h2.74L83.59,75.85Zm21.35-7c0,4.54-2.87,6.9-6,6.9s-5.87-2.47-5.9-6.54c0-3.87,2.37-6.8,6.07-6.8S102.24,65.18,102.24,68.88Zm-8.11.23c0,2.27.73,3.9,2.2,3.9s2.13-1.47,2.13-3.9c0-2.2-.57-3.9-2.13-3.9S94.13,66.95,94.13,69.12Z"/><path class="cls-3" d="M34.39,83.79a21.06,21.06,0,0,1,3.19-.22,6.71,6.71,0,0,1,4.28,1.12,4.62,4.62,0,0,1,1.77,3.94,5.3,5.3,0,0,1-1.73,4.23,7.5,7.5,0,0,1-4.82,1.35A20.47,20.47,0,0,1,34.39,94Zm2.37,8.52a4.31,4.31,0,0,0,.82,0c2.14,0,3.53-1.16,3.53-3.66a3,3,0,0,0-3.28-3.32,4.86,4.86,0,0,0-1.07.09Z"/><path class="cls-3" d="M47.55,83.65V94.09H45.18V83.65Z"/><path class="cls-3" d="M49.68,91.66a6,6,0,0,0,2.62.65c1.08,0,1.66-.45,1.66-1.13s-.5-1-1.75-1.47c-1.74-.6-2.87-1.57-2.87-3.08,0-1.78,1.49-3.15,4-3.15A6.41,6.41,0,0,1,56,84l-.53,1.91a5,5,0,0,0-2.19-.5c-1,0-1.52.46-1.52,1s.59,1,1.94,1.47c1.84.68,2.71,1.64,2.71,3.11,0,1.75-1.35,3.24-4.21,3.24a6.84,6.84,0,0,1-3-.63Z"/><path class="cls-3" d="M65.64,93.8a6.76,6.76,0,0,1-2.68.45c-3.61,0-5.47-2.25-5.47-5.22,0-3.56,2.54-5.55,5.7-5.55a6.16,6.16,0,0,1,2.57.46l-.48,1.88a5.08,5.08,0,0,0-2-.39,3.43,3.43,0,0,0,0,6.86,5.94,5.94,0,0,0,2-.34Z"/><path class="cls-3" d="M76.29,88.76c0,3.42-2.08,5.5-5.13,5.5s-4.91-2.34-4.91-5.32c0-3.13,2-5.47,5.08-5.47S76.29,85.88,76.29,88.76Zm-7.55.14c0,2,1,3.49,2.54,3.49s2.51-1.52,2.51-3.55c0-1.88-.9-3.49-2.53-3.49S68.75,86.87,68.75,88.9Z"/><path class="cls-3" d="M80.2,83.65v6c0,1.8.68,2.71,1.89,2.71S84,91.51,84,89.66v-6h2.36v5.86c0,3.22-1.63,4.76-4.35,4.76s-4.18-1.46-4.18-4.79V83.65Z"/><path class="cls-3" d="M88.42,94.09V83.65h2.76l2.17,3.83a30.25,30.25,0,0,1,1.7,3.58h0a38.68,38.68,0,0,1-.2-4.35V83.65h2.17V94.09H94.59l-2.23-4a38.8,38.8,0,0,1-1.81-3.69l0,0c.06,1.38.09,2.85.09,4.55v3.15Z"/><path class="cls-3" d="M101.13,85.63H98.33v-2h8v2H103.5v8.46h-2.37Z"/><path class="cls-4" d="M67.49,10.5l-57,56.76S33.54,66.47,50,50,67.49,10.5,67.49,10.5Z"/></g></g></svg>