<svg xmlns="http://www.w3.org/2000/svg" xmlns:xlink="http://www.w3.org/1999/xlink" viewBox="0 0 251.67 210.97"><defs><style>.cls-1{isolation:isolate;}.cls-15,.cls-17,.cls-2,.cls-3,.cls-6{mix-blend-mode:multiply;}.cls-2{fill:url(#radial-gradient);}.cls-3{fill:url(#radial-gradient-2);}.cls-4{fill:#ffc76c;}.cls-5{fill:#ff4300;}.cls-6{fill:#bfbfbf;}.cls-15,.cls-17,.cls-6{opacity:0.6;}.cls-7{fill:#ffbd00;}.cls-8{fill:#ffca48;}.cls-9{fill:#8e0000;}.cls-10{fill:#be0000;}.cls-11{fill:#d13331;}.cls-12{fill:#ffa1a1;}.cls-13,.cls-16{fill:#ffd77a;}.cls-14{fill:#f7931e;}.cls-15{fill:#fbb03b;}.cls-16{opacity:0.4;mix-blend-mode:screen;}.cls-17{fill:#dd7e00;}.cls-18{fill:#007327;}</style><radialGradient id="radial-gradient" cx="-174.03" cy="1642.22" r="116.84" gradientTransform="translate(313.26 -445.69) scale(1.08 0.37)" gradientUnits="userSpaceOnUse"><stop offset="0"/><stop offset="0.15" stop-color="#404040"/><stop offset="0.3" stop-color="#7a7a7a"/><stop offset="0.45" stop-color="#a9a9a9"/><stop offset="0.59" stop-color="#cfcfcf"/><stop offset="0.72" stop-color="#e9e9e9"/><stop offset="0.83" stop-color="#f9f9f9"/><stop offset="0.92" stop-color="#fff"/></radialGradient><radialGradient id="radial-gradient-2" cx="-492.58" cy="1644.9" r="47.19" gradientTransform="translate(667.85 -445.69) scale(1.17 0.37)" xlink:href="#radial-gradient"/></defs><title>Ресурс 4</title><g class="cls-1"><g id="Слой_2" data-name="Слой 2"><g id="elements"><ellipse class="cls-2" cx="125.83" cy="167.35" rx="125.83" ry="43.62"/><ellipse class="cls-3" cx="93.65" cy="168.35" rx="55.01" ry="17.62"/><path class="cls-4" d="M190.23,96.92l11.93-6.35a9.19,9.19,0,0,0,3.56-12.87A163,163,0,0,0,76.33,0a9.18,9.18,0,0,0-9.66,9.19V22.73A140,140,0,0,1,190.23,96.92Z"/><path class="cls-5" d="M89.67,34.73c11.94,3.91,15.51-2.17,23,2,7.09,3.95,4.73,9.86,12,14,7.59,4.32,12.25-.94,20,3,6.9,3.51,5,8.59,13.22,17.78,9.42,10.52,15,7.28,20.78,16.22a32.32,32.32,0,0,1,4.57,12.91l7-3.72A140,140,0,0,0,66.67,22.73v11a19.9,19.9,0,0,1,9-3C81.3,30.34,84,32.87,89.67,34.73Z"/><path class="cls-6" d="M179.67,84.73c-5.8-8.93-11.36-5.7-20.78-16.22-8.23-9.19-6.32-14.27-13.22-17.78-7.75-3.94-12.41,1.32-20-3-7.27-4.14-4.91-10.05-12-14-7.49-4.17-11.06,1.91-23-2-5.69-1.86-8.37-4.39-14-4a19.9,19.9,0,0,0-9,3v125a2.43,2.43,0,0,0,3.57,2.14l113-60.19A32.32,32.32,0,0,0,179.67,84.73Z"/><path class="cls-7" d="M178.67,87.73c-5.8-8.93-11.36-5.7-20.78-16.22-8.23-9.19-6.32-14.27-13.22-17.78-7.75-3.94-12.41,1.32-20-3-7.27-4.14-4.91-10.05-12-14-7.49-4.17-11.06,1.91-23-2-5.69-1.86-8.37-4.39-14-4a19.9,19.9,0,0,0-9,3v125a2.43,2.43,0,0,0,3.57,2.14l113-60.19A32.32,32.32,0,0,0,178.67,87.73Z"/><path class="cls-8" d="M177.67,92.73c-5.15-9.5-11.58-9.27-23-20-7.5-7.05-6.86-9.17-13-13-6.79-4.24-9-2.52-18-6-16.45-6.33-16.89-14.95-29-16-6.5-.56-8.21,1.76-15,0-5.93-1.54-9.49-4.56-13.4-3a9.21,9.21,0,0,0-4.6,5,29.41,29.41,0,0,0-4,13c-.51,8.89,3.35,17.24,5,17s-.47-7.7,3-10C70,56.87,80.51,63.25,87,69.36a4.59,4.59,0,0,1,4.49,1.33,24,24,0,0,0,8.76,6.64c3.45,1.58,6.23,3.62,7.52,7.31,2.13,6.1-7.54,8.7-9.64,2.66-.2-.57-4.28-1.87-5.21-2.39A30.22,30.22,0,0,1,85.5,79c-7-.14-11.82-4.23-19.84-3.3a5.75,5.75,0,0,0-2,.32c-1.39.61-3.25,2.39-4,9.68-.81,8.21.47,17,2,17,1.22,0,.79-5.57,4-7,2.69-1.19,7,.93,9.11,3.33a3.78,3.78,0,0,1,2.47.1c4.89,2,9.14,4.89,13.69,7.5a4.51,4.51,0,0,1,2.33,5,130,130,0,0,1,17.43,17.8c4,5-3.07,12.11-7.07,7.07a137.07,137.07,0,0,0-21.25-21,4.1,4.1,0,0,1-1.7-3.44,40.32,40.32,0,0,0-6.1-3.27,5.46,5.46,0,0,1-3.66-4.38,15.45,15.45,0,0,0-5.27,2.31c-11.87,8.62-4.69,39.05-3,39,.83,0-.4-7.43,3-9,4.55-2.1,14.23,7.73,20,16,8.89,12.74,7.39,20.25,13,22,7.2,2.25,16.21-8.07,24-17,2.74-3.14,19.44-22.68,14-31-1.77-2.71-5.63-3.82-5.21-5.14.28-.89,2.73-1,7.6-1.21,3.61-.15,5.44-.22,6.61.35,3.13,1.52,2.7,4.53,5,6,4,2.52,11.37-2.53,15-5,6-4.12,14.65-10,15-19C180.83,98.56,179.15,95.47,177.67,92.73ZM129.35,86.5a26.81,26.81,0,0,0-9.59-8.37c-3.65-1.88-7.19-3.49-9.41-7.13-3.36-5.51,5.29-10.53,8.63-5,1.61,2.64,6.49,3.63,9,5.46a41.29,41.29,0,0,1,10,10C141.57,86.83,132.9,91.83,129.35,86.5Z"/><path class="cls-9" d="M107.41,68.59c-2.12,7.25-9.68,13.8-18.31,13.14C79.33,81,72.46,71.36,72.67,62c.22-9.62,8-18.35,16.43-18.78C100.39,42.67,110.8,56.94,107.41,68.59Z"/><path class="cls-10" d="M106.45,67.45c-2,6.78-9,12.9-17.12,12.29C80.2,79,73.77,70,74,61.3c.21-9,7.44-17.16,15.36-17.56C99.89,43.21,109.62,56.56,106.45,67.45Z"/><ellipse class="cls-11" cx="90.06" cy="72.1" rx="4.12" ry="2.29" transform="translate(-15.12 24.72) rotate(-14.43)"/><ellipse class="cls-11" cx="81.49" cy="61.22" rx="2.73" ry="4.92" transform="translate(-19.78 49.68) rotate(-30.41)"/><ellipse class="cls-12" cx="92.49" cy="64.22" rx="2.73" ry="4.92" transform="translate(-19.78 55.66) rotate(-30.41)"/><ellipse class="cls-12" cx="95.49" cy="128.22" rx="2.73" ry="4.92" transform="translate(-51.77 65.98) rotate(-30.41)"/><ellipse class="cls-12" cx="89.49" cy="119.22" rx="2.73" ry="4.92" transform="translate(-48.04 61.71) rotate(-30.41)"/><ellipse class="cls-12" cx="83.15" cy="55.45" rx="2.6" ry="1.45" transform="translate(-8.88 94.43) rotate(-56.66)"/><ellipse class="cls-12" cx="148.15" cy="100.45" rx="2.6" ry="1.45" transform="translate(-17.2 169) rotate(-56.66)"/><ellipse class="cls-12" cx="135.15" cy="88.45" rx="2.6" ry="1.45" transform="translate(-13.03 152.73) rotate(-56.66)"/><ellipse class="cls-11" cx="99.2" cy="62.54" rx="3.25" ry="1.8" transform="translate(6.47 134.33) rotate(-69.97)"/><ellipse class="cls-11" cx="90.65" cy="51.55" rx="2.44" ry="1.36" transform="translate(-10.91 75.22) rotate(-42.74)"/><path class="cls-9" d="M156.2,99.62c-2.1,7.21-9.62,13.71-18.2,13.07-9.71-.73-16.55-10.31-16.33-19.6.22-9.57,7.91-18.24,16.33-18.67C149.23,73.86,159.58,88,156.2,99.62Z"/><path class="cls-10" d="M154.45,98.45c-2,6.78-9,12.9-17.12,12.29C128.2,110,121.77,101,122,92.3c.21-9,7.44-17.16,15.36-17.56C147.89,74.21,157.62,87.56,154.45,98.45Z"/><ellipse class="cls-11" cx="131.67" cy="100.04" rx="2.48" ry="1.06" transform="translate(8 209.81) rotate(-78.82)"/><ellipse class="cls-11" cx="129.25" cy="89.46" rx="0.85" ry="1.98" transform="translate(-25.6 116.48) rotate(-44.59)"/><ellipse class="cls-11" cx="143.77" cy="87.14" rx="2.21" ry="0.95" transform="translate(-20.72 52.42) rotate(-19.3)"/><ellipse class="cls-11" cx="141.56" cy="103.63" rx="1.13" ry="2.64" transform="translate(-2.79 203.34) rotate(-70.84)"/><ellipse class="cls-11" cx="136.58" cy="80.68" rx="3.48" ry="1.49" transform="translate(-9.96 19.94) rotate(-8.06)"/><ellipse class="cls-11" cx="148.87" cy="95.33" rx="1.27" ry="2.96" transform="translate(-23.93 132.59) rotate(-44.8)"/><path class="cls-9" d="M105.91,118.9c1.92,5.56,1.16,13.08-3.75,17.47-6.75,6-19.22,4.23-25.37-3.9C70.52,124.15,72.57,111.54,80,107,88.61,101.68,102.39,108.7,105.91,118.9Z"/><path class="cls-10" d="M105.08,118.15c1.73,5.16.92,12.18-3.75,16.34-6.43,5.73-18.13,4.2-23.8-3.31-5.79-7.67-3.71-19.46,3.31-23.8C89,102.32,101.9,108.69,105.08,118.15Z"/><ellipse class="cls-11" cx="92.31" cy="114.03" rx="2.8" ry="1.4" transform="translate(-14.09 13.02) rotate(-7.5)"/><ellipse class="cls-11" cx="93.42" cy="131.27" rx="3.08" ry="1.54" transform="translate(-49.29 206.05) rotate(-82.22)"/><ellipse class="cls-11" cx="81.96" cy="114.68" rx="2.8" ry="1.4" transform="translate(-53.93 152.13) rotate(-69.86)"/><ellipse class="cls-11" cx="99.64" cy="122.29" rx="3.33" ry="1.67" transform="translate(-33.46 37.63) rotate(-18.37)"/><ellipse class="cls-11" cx="82.9" cy="126.39" rx="4.68" ry="2.34" transform="translate(-10.96 7.91) rotate(-5.12)"/><path class="cls-13" d="M88.67,89.23c8.52,2.51,18.54,13.15,23.37,13.15.83,0,1.64-.36,1.64-1a.87.87,0,0,0,0-.12C112.3,91.21,97.17,89.23,88.67,89.23Z"/><path class="cls-13" d="M103.17,44.23c6.5,7,12,18,22.5,18a1.59,1.59,0,0,0,1.19-1.41,1,1,0,0,0-.19-.59C120.3,51.13,112.67,47.73,103.17,44.23Z"/><path class="cls-13" d="M112.67,115.73c-1.78,1.35,5.49,15.66,8,15,1.11-.29,1.15-3.47,1-5C121,119.16,113.92,114.78,112.67,115.73Z"/><path class="cls-13" d="M71.17,137.23c0,.47-.25,6.75,4.88,10.5a12.42,12.42,0,0,0,9.63,2,46.58,46.58,0,0,1-14.5-12.5Z"/><path class="cls-14" d="M169.27,88.76c1.61.11,4,.38,4-.74,0-3.4-15.76-14.89-18.82-14.89-1.11,0-1.57-.25-1.81,0C151.11,74.88,158.88,88.08,169.27,88.76Z"/><path class="cls-14" d="M107.67,80.73c-.66,1.07,2.46,5.63,7,6,2,.16,4.78-.43,4.89-1.46C119.8,83.16,108.67,79.12,107.67,80.73Z"/><path class="cls-14" d="M109.1,134.29c1.54,3.77,5.54,4.81,6.06,4.94-4.59-7.49-6-8.72-6.5-8.5S108.58,133,109.1,134.29Z"/><path class="cls-14" d="M73.17,87.73c-.71,1.85,12.16,9.53,13.5,8,.69-.78-1.51-4.1-4-6C78.86,86.83,73.58,86.65,73.17,87.73Z"/><path class="cls-13" d="M65.42,39.23c.19,3,.36,7.32.25,12.5s-.44,7.92,0,8c.6.12,2.58-4.4,2.71-9.31A21.59,21.59,0,0,0,65.42,39.23Z"/><path class="cls-13" d="M65.67,77.73c-1.89.34-1.87,14.68,0,15,1,.18,3.19-3.9,3-8C68.51,81.26,66.67,77.55,65.67,77.73Z"/><path class="cls-13" d="M64.67,109.73c-2,.23-2,22.77,0,23,1,.12,2.89-5.77,3-11C67.79,115.85,65.73,109.61,64.67,109.73Z"/><path class="cls-15" d="M91.67,152.06c2,9.77,3.17,19,12.12,19,11.23,0,30.92-28.18,30.92-36.51a12.51,12.51,0,0,0-.71-4.16C120,137.73,103.67,141.06,91.67,152.06Z"/><path class="cls-15" d="M150.67,120.4s0,.06,0,.09c0,2.22,1.57,5.08,4,5.08,1.14,0,22.64-6.17,24.37-22.5a1.18,1.18,0,0,0,0-.12c0-.67-.51-1.57-.89-1.57a.23.23,0,0,0-.11,0C168.73,106.51,150.92,107.66,150.67,120.4Z"/><path class="cls-15" d="M96.17,152.23c0,.26,0,.53,0,.81,0,4.95,1.95,12.6,6.18,12.6s27.29-10.06,28.34-31.41C118.92,139.48,105.67,143.23,96.17,152.23Z"/><path class="cls-15" d="M152.92,118a5,5,0,0,0-.75,2.64c0,2.61,1.59,2.67,3,2.67,6.54,0,20.83-10.31,20.83-16,0-.49-.1-.81-.3-.81C167.67,106.48,157.47,110.85,152.92,118Z"/><path class="cls-15" d="M99.42,152c0,2.12.69,5.29,2.43,5.29,1,0,22.43-3.77,23.07-18.54C116.67,143.48,106.92,146,99.42,152Z"/><path class="cls-15" d="M155.67,117.48c-.25,0-.25.19-.25.38,0,1.81,0,1.69,1.49,1.69,6.36,0,14.41-5,16.76-10.82C166.92,108.73,160.92,113.73,155.67,117.48Z"/><path class="cls-13" d="M69.67,6.73c-1.1,2.11-.13,4.85,1,7,50.74-.59,72.63,13.2,83,27,4.14,5.51,23,33.09,45,44,1.9.94,3.44,1.57,4,1,3.12-3.15-21.79-44.33-62-66C112,4.31,74.22-2,69.67,6.73Z"/><path class="cls-16" d="M72.79,12.07c.16,1.6,5.24,2.29,7.88,2.66,11.35,1.56,22.59,4,34,5,24.07,2.11,50,24.31,62,43,3.85,6,11.07,19.13,18,18a4.46,4.46,0,0,0,3-1.58c4-6.13-19.13-30.14-41-46.42-2.54-1.89-45.85-33.62-73-26C82,7.2,72.56,9.85,72.79,12.07Z"/><path class="cls-17" d="M72,17.73c-1,.42-3.48,1.49-3.36,2.52.23,2,10.37,2.34,13,2.48,25,1.29,60.49,20.29,80,37a130.12,130.12,0,0,1,18,19c5,6.47,8.43,12.31,8.17,12.49-.61.43-17.26-34.37-52.17-57.49,0,0-12.71-8.42-49-17A24.4,24.4,0,0,0,72,17.73Z"/><path class="cls-18" d="M87.11,92.67a.32.32,0,0,0,.42-.17l1.3-3.06,1.06,3.61a.32.32,0,1,0,.61-.18L89.42,89.2l2.25,2.18a.32.32,0,0,0,.44-.46l-2.92-2.84,0,0-.07,0h0l-1.39-4.72a.32.32,0,0,0-.34-.23h-.05a.32.32,0,0,0-.22.39l1.47,5-1.61,3.77A.32.32,0,0,0,87.11,92.67Z"/><path class="cls-18" d="M99.69,58a.35.35,0,0,0-.06-.49l-2.87-2.27,4.15-.08a.35.35,0,0,0,0-.7l-4.23.08,3-1.76a.35.35,0,0,0-.36-.6l-3.86,2.28,0,0-.07.06v0l-5.42.1a.35.35,0,1,0,0,.7l5.75-.11L99.2,58A.35.35,0,0,0,99.69,58Z"/><path class="cls-18" d="M142.13,82.3a.32.32,0,0,0,0,.45l2.1,2.57-3.69-.74a.32.32,0,1,0-.12.62l3.76.75-3,1a.32.32,0,0,0,.2.6l3.87-1.27,0,0,.08,0h0l4.82,1a.32.32,0,0,0,.36-.2v0a.32.32,0,0,0-.25-.37l-5.12-1-2.59-3.17A.32.32,0,0,0,142.13,82.3Z"/><path class="cls-18" d="M118.68,115.87a.38.38,0,0,0,.45-.29l.84-3.87,2,4a.38.38,0,0,0,.67-.35l-2.09-4.06,3.12,2a.38.38,0,1,0,.42-.63L120.08,110h0l-.09,0h0l-2.68-5.21a.38.38,0,0,0-.45-.19l-.06,0a.38.38,0,0,0-.16.51l2.84,5.53-1,4.77A.38.38,0,0,0,118.68,115.87Z"/><path class="cls-18" d="M81.36,136.4a.53.53,0,0,0,.71-.25l2.39-5,1.52,6.1a.53.53,0,0,0,1-.26l-1.55-6.22,3.6,3.8a.53.53,0,0,0,.77-.73l-4.69-4.94,0,0a.51.51,0,0,0-.12-.09h0l-2-8a.53.53,0,0,0-.56-.4h-.08a.53.53,0,0,0-.39.64L84,129.51l-2.94,6.18A.53.53,0,0,0,81.36,136.4Z"/><ellipse class="cls-12" cx="140.49" cy="93.22" rx="2.73" ry="4.92" transform="translate(-27.86 83.94) rotate(-30.41)"/><ellipse class="cls-12" cx="128.04" cy="96.27" rx="2.46" ry="2.62" transform="matrix(1, -0.06, 0.06, 1, -5.94, 8.46)"/><ellipse class="cls-12" cx="88.04" cy="112.27" rx="2.46" ry="2.62" transform="translate(-7.06 5.91) rotate(-3.7)"/><ellipse class="cls-12" cx="131.04" cy="84.27" rx="2.46" ry="2.62" transform="translate(-5.16 8.62) rotate(-3.7)"/><ellipse class="cls-12" cx="96.04" cy="118.27" rx="2.46" ry="2.62" transform="matrix(1, -0.06, 0.06, 1, -7.43, 6.44)"/><ellipse class="cls-12" cx="146.15" cy="101.45" rx="2.6" ry="1.45" transform="translate(-18.93 167.78) rotate(-56.66)"/><ellipse class="cls-12" cx="90.15" cy="125.45" rx="2.6" ry="1.45" transform="translate(-64.2 131.8) rotate(-56.66)"/></g></g></g></svg>