<svg xmlns="http://www.w3.org/2000/svg" xmlns:xlink="http://www.w3.org/1999/xlink" viewBox="0 0 251.67 216.97"><defs><style>.cls-1{isolation:isolate;}.cls-12,.cls-2,.cls-22,.cls-24,.cls-3,.cls-6{mix-blend-mode:multiply;}.cls-2{fill:url(#radial-gradient);}.cls-3{fill:url(#radial-gradient-2);}.cls-4{fill:#ffb06a;}.cls-5{fill:#ff4300;}.cls-6{fill:#bfbfbf;}.cls-12,.cls-6{opacity:0.6;}.cls-7{fill:#ffbd00;}.cls-8{fill:#ffca48;}.cls-14,.cls-9{fill:#ffd77a;}.cls-10{fill:#f7931e;}.cls-11{opacity:0.5;}.cls-11,.cls-13,.cls-14,.cls-20{mix-blend-mode:screen;}.cls-12{fill:#fbb03b;}.cls-13,.cls-14,.cls-22,.cls-24{opacity:0.4;}.cls-15{fill:#f10;}.cls-16{fill:#ff442e;}.cls-17,.cls-21{fill:#f2f2f2;}.cls-17{opacity:0.7;}.cls-18{opacity:0.39;}.cls-19{fill:#fff8d5;}.cls-20{opacity:0.49;}.cls-23,.cls-24{fill:#919191;}.cls-25{fill:#000031;}.cls-26{fill:#9999ae;}.cls-27{fill:#002;}.cls-28{fill:#ffebc0;}.cls-29{fill:#c5b091;}</style><radialGradient id="radial-gradient" cx="-193.33" cy="2094.78" r="116.84" gradientTransform="translate(334.05 -608.64) scale(1.08 0.37)" gradientUnits="userSpaceOnUse"><stop offset="0"/><stop offset="0.15" stop-color="#404040"/><stop offset="0.3" stop-color="#7a7a7a"/><stop offset="0.45" stop-color="#a9a9a9"/><stop offset="0.59" stop-color="#cfcfcf"/><stop offset="0.72" stop-color="#e9e9e9"/><stop offset="0.83" stop-color="#f9f9f9"/><stop offset="0.92" stop-color="#fff"/></radialGradient><radialGradient id="radial-gradient-2" cx="-530.96" cy="2097.46" r="47.19" gradientTransform="translate(712.59 -608.64) scale(1.17 0.37)" xlink:href="#radial-gradient"/></defs><title>Ресурс 9</title><g class="cls-1"><g id="Слой_2" data-name="Слой 2"><g id="elements"><ellipse class="cls-2" cx="125.83" cy="173.35" rx="125.83" ry="43.62"/><ellipse class="cls-3" cx="93.65" cy="174.35" rx="55.01" ry="17.62"/><path class="cls-4" d="M199.23,96.92l11.93-6.35a9.19,9.19,0,0,0,3.56-12.87A163,163,0,0,0,85.33,0a9.18,9.18,0,0,0-9.66,9.19V22.73A140,140,0,0,1,199.23,96.92Z"/><path class="cls-5" d="M98.67,34.73c11.94,3.91,15.51-2.17,23,2,7.09,3.95,4.73,9.86,12,14,7.59,4.32,12.25-.94,20,3,6.9,3.51,5,8.59,13.22,17.78,9.42,10.52,15,7.28,20.78,16.22a32.32,32.32,0,0,1,4.57,12.91l7-3.72A140,140,0,0,0,75.67,22.73v11a19.9,19.9,0,0,1,9-3C90.3,30.34,93,32.87,98.67,34.73Z"/><path class="cls-6" d="M188.67,84.73c-5.8-8.93-11.36-5.7-20.78-16.22-8.23-9.19-6.32-14.27-13.22-17.78-7.75-3.94-12.41,1.32-20-3-7.27-4.14-4.91-10.05-12-14-7.49-4.17-11.06,1.91-23-2-5.69-1.86-8.37-4.39-14-4a19.9,19.9,0,0,0-9,3v125a2.43,2.43,0,0,0,3.57,2.14l113-60.19A32.32,32.32,0,0,0,188.67,84.73Z"/><path class="cls-7" d="M187.67,87.73c-5.8-8.93-11.36-5.7-20.78-16.22-8.23-9.19-6.32-14.27-13.22-17.78-7.75-3.94-12.41,1.32-20-3-7.27-4.14-4.91-10.05-12-14-7.49-4.17-11.06,1.91-23-2-5.69-1.86-8.37-4.39-14-4a19.9,19.9,0,0,0-9,3v125a2.43,2.43,0,0,0,3.57,2.14l113-60.19A32.32,32.32,0,0,0,187.67,87.73Z"/><path class="cls-8" d="M186.67,92.73c-5.15-9.5-11.58-9.27-23-20-7.5-7.05-6.86-9.17-13-13-6.79-4.24-9-2.52-18-6-16.45-6.33-16.89-14.95-29-16-6.5-.56-8.21,1.76-15,0-5.93-1.54-9.49-4.56-13.4-3a9.21,9.21,0,0,0-4.6,5,29.41,29.41,0,0,0-4,13c-.51,8.89,3.35,17.24,5,17s-.47-7.7,3-10C79,56.87,89.51,63.25,96,69.36a4.59,4.59,0,0,1,4.49,1.33,24,24,0,0,0,8.76,6.64c3.45,1.58,6.23,3.62,7.52,7.31,2.13,6.1-7.54,8.7-9.64,2.66-.2-.57-4.28-1.87-5.21-2.39A30.22,30.22,0,0,1,94.5,79c-7-.14-11.82-4.23-19.84-3.3a5.75,5.75,0,0,0-2,.32c-1.39.61-3.25,2.39-4,9.68-.81,8.21.47,17,2,17,1.22,0,.79-5.57,4-7,2.69-1.19,7,.93,9.11,3.33a3.78,3.78,0,0,1,2.47.1c4.89,2,9.14,4.89,13.69,7.5a4.51,4.51,0,0,1,2.33,5,130,130,0,0,1,17.43,17.8c4,5-3.07,12.11-7.07,7.07a137.07,137.07,0,0,0-21.25-21,4.1,4.1,0,0,1-1.7-3.44,40.32,40.32,0,0,0-6.1-3.27,5.46,5.46,0,0,1-3.66-4.38,15.45,15.45,0,0,0-5.27,2.31c-11.87,8.62-4.69,39.05-3,39,.83,0-.4-7.43,3-9,4.55-2.1,14.23,7.73,20,16,8.89,12.74,7.39,20.25,13,22,7.2,2.25,16.21-8.07,24-17,2.74-3.14,19.44-22.68,14-31-1.77-2.71-5.63-3.82-5.21-5.14.28-.89,2.73-1,7.6-1.21,3.61-.15,5.44-.22,6.61.35,3.13,1.52,2.7,4.53,5,6,4,2.52,11.37-2.53,15-5,6-4.12,14.65-10,15-19C189.83,98.56,188.15,95.47,186.67,92.73ZM138.35,86.5a26.81,26.81,0,0,0-9.59-8.37c-3.65-1.88-7.19-3.49-9.41-7.13-3.36-5.51,5.29-10.53,8.63-5,1.61,2.64,6.49,3.63,9,5.46a41.29,41.29,0,0,1,10,10C150.57,86.83,141.9,91.83,138.35,86.5Z"/><path class="cls-9" d="M97.67,89.23c8.52,2.51,18.54,13.15,23.37,13.15.83,0,1.64-.36,1.64-1a.87.87,0,0,0,0-.12C121.3,91.21,106.17,89.23,97.67,89.23Z"/><path class="cls-9" d="M112.17,44.23c6.5,7,12,18,22.5,18a1.59,1.59,0,0,0,1.19-1.41,1,1,0,0,0-.19-.59C129.3,51.13,121.67,47.73,112.17,44.23Z"/><path class="cls-9" d="M121.67,115.73c-1.78,1.35,5.49,15.66,8,15,1.11-.29,1.15-3.47,1-5C130,119.16,122.92,114.78,121.67,115.73Z"/><path class="cls-9" d="M80.17,137.23c0,.47-.25,6.75,4.88,10.5a12.42,12.42,0,0,0,9.63,2,46.58,46.58,0,0,1-14.5-12.5Z"/><path class="cls-10" d="M178.27,88.76c1.61.11,4,.38,4-.74,0-3.4-15.76-14.89-18.82-14.89-1.11,0-1.57-.25-1.81,0C160.11,74.88,167.88,88.08,178.27,88.76Z"/><path class="cls-10" d="M116.67,80.73c-.66,1.07,2.46,5.63,7,6,2,.16,4.78-.43,4.89-1.46C128.8,83.16,117.67,79.12,116.67,80.73Z"/><path class="cls-10" d="M118.1,134.29c1.54,3.77,5.54,4.81,6.06,4.94-4.59-7.49-6-8.72-6.5-8.5S117.58,133,118.1,134.29Z"/><path class="cls-10" d="M82.17,87.73c-.71,1.85,12.16,9.53,13.5,8,.69-.78-1.51-4.1-4-6C87.86,86.83,82.58,86.65,82.17,87.73Z"/><g class="cls-11"><path class="cls-9" d="M74.42,39.23c.19,3,.36,7.32.25,12.5s-.44,7.92,0,8c.6.12,2.58-4.4,2.71-9.31A21.59,21.59,0,0,0,74.42,39.23Z"/></g><path class="cls-9" d="M74.67,77.73c-1.89.34-1.87,14.68,0,15,1,.18,3.19-3.9,3-8C77.51,81.26,75.67,77.55,74.67,77.73Z"/><path class="cls-9" d="M73.67,109.73c-2,.23-2,22.77,0,23,1,.12,2.89-5.77,3-11C76.79,115.85,74.73,109.61,73.67,109.73Z"/><path class="cls-12" d="M100.67,152.06c2,9.77,3.17,19,12.12,19,11.23,0,30.92-28.18,30.92-36.51a12.51,12.51,0,0,0-.71-4.16C129,137.73,112.67,141.06,100.67,152.06Z"/><path class="cls-12" d="M159.67,120.4s0,.06,0,.09c0,2.22,1.57,5.08,4,5.08,1.14,0,22.64-6.17,24.37-22.5a1.18,1.18,0,0,0,0-.12c0-.67-.51-1.57-.89-1.57a.23.23,0,0,0-.11,0C177.73,106.51,159.92,107.66,159.67,120.4Z"/><path class="cls-12" d="M105.17,152.23c0,.26,0,.53,0,.81,0,4.95,1.95,12.6,6.18,12.6s27.29-10.06,28.34-31.41C127.92,139.48,114.67,143.23,105.17,152.23Z"/><path class="cls-12" d="M161.92,118a5,5,0,0,0-.75,2.64c0,2.61,1.59,2.67,3,2.67,6.54,0,20.83-10.31,20.83-16,0-.49-.1-.81-.3-.81C176.67,106.48,166.47,110.85,161.92,118Z"/><path class="cls-12" d="M108.42,152c0,2.12.69,5.29,2.43,5.29,1,0,22.43-3.77,23.07-18.54C125.67,143.48,115.92,146,108.42,152Z"/><path class="cls-12" d="M164.67,117.48c-.25,0-.25.19-.25.38,0,1.81,0,1.69,1.49,1.69,6.36,0,14.41-5,16.76-10.82C175.92,108.73,169.92,113.73,164.67,117.48Z"/><g class="cls-13"><path class="cls-9" d="M78.67,6.73c-1.1,2.11-.13,4.85,1,7,50.74-.59,72.63,13.2,83,27,4.14,5.51,23,33.09,45,44,1.9.94,3.44,1.57,4,1,3.12-3.15-21.79-44.33-62-66C121,4.31,83.22-2,78.67,6.73Z"/></g><path class="cls-14" d="M81.79,12.07c.16,1.6,5.24,2.29,7.88,2.66,11.35,1.56,22.59,4,34,5,24.07,2.11,50,24.31,62,43,3.85,6,11.07,19.13,18,18a4.46,4.46,0,0,0,3-1.58c4-6.13-19.13-30.14-41-46.42-2.54-1.89-45.85-33.62-73-26C91,7.2,81.56,9.85,81.79,12.07Z"/><path class="cls-6" d="M81,17.73c-1,.42-3.48,1.49-3.36,2.52.23,2,10.37,2.34,13,2.48,25,1.29,60.49,20.29,80,37a130.12,130.12,0,0,1,18,19c5,6.47,8.43,12.31,8.17,12.49-.61.43-17.26-34.37-52.17-57.49,0,0-12.71-8.42-49-17A24.4,24.4,0,0,0,81,17.73Z"/><path class="cls-15" d="M149.15,113.33l.57,0a15.36,15.36,0,0,0,10.11-3.89,14.19,14.19,0,0,0,4.18-10,14.19,14.19,0,0,0,3.13-10.34,15.36,15.36,0,0,0-5.32-9.44l-.46-.35c-8-6-19.14-1-22.52,1.59A14.66,14.66,0,0,0,135,85.68a18.36,18.36,0,0,0-2.14,6,14.66,14.66,0,0,0,0,6.12C133.78,101.88,139.17,112.85,149.15,113.33Z"/><path class="cls-16" d="M149.16,112.32l.54,0a14.56,14.56,0,0,0,9.58-3.68,13.45,13.45,0,0,0,4-9.44,13.45,13.45,0,0,0,3-9.8,14.56,14.56,0,0,0-5-8.94l-.43-.33c-7.58-5.68-18.14-.92-21.34,1.5a13.89,13.89,0,0,0-3.68,4.49,17.4,17.4,0,0,0-2,5.64,13.89,13.89,0,0,0,0,5.8C134.59,101.48,139.7,111.87,149.16,112.32Z"/><path class="cls-15" d="M155.4,88.28c.38,1.16-.86,1.87-.48,3,.47,1.39,3.08,2.35,5,1.59,2.18-.88,3-3.88,2.55-6-.71-3.63-5.05-5.18-6.63-5.75-6.39-2.29-12,1.11-13.11,1.81-1.59,1-4,2.58-3.88,4.74A3.88,3.88,0,0,0,142,91c2,.34,4-1.09,4.24-2.43.11-.67-.29-.93-.08-1.41.57-1.35,4.22-.95,4.67-.89C152.09,86.39,154.88,86.72,155.4,88.28Z"/><path class="cls-17" d="M158.31,88.2a8.17,8.17,0,0,1-2.47-.36s1.29-1.5,1.85-1.67a1.06,1.06,0,0,1,.62,2Z"/><path class="cls-17" d="M157.3,91.52a8.16,8.16,0,0,1-1.34-2.1,8.16,8.16,0,0,1,2.47.31,1.06,1.06,0,1,1-1.13,1.79Z"/><path class="cls-17" d="M156.63,85.45a8.17,8.17,0,0,1-2.2,1.17,8.17,8.17,0,0,1,.5-2.44,1.06,1.06,0,0,1,1.69,1.27Z"/><path class="cls-17" d="M154,83.81a8.16,8.16,0,0,1-1.27,2.14,8.16,8.16,0,0,1-.83-2.35,1.06,1.06,0,1,1,2.11.21Z"/><path class="cls-17" d="M150.91,83.27a8.16,8.16,0,0,1-.46,2.45,8.17,8.17,0,0,1-1.59-1.92,1.06,1.06,0,0,1,2.05-.53Z"/><path class="cls-17" d="M147.78,83.72a6.45,6.45,0,0,1,.39,1.93,6.45,6.45,0,0,1-1.73-.93.84.84,0,0,1,1.34-1Z"/><path class="cls-17" d="M145.11,84.64a6.45,6.45,0,0,1,1,1.67A6.45,6.45,0,0,1,144.2,86a.84.84,0,0,1,.91-1.4Z"/><path class="cls-17" d="M143.84,87.13a5.1,5.1,0,0,1,1.33.81,5.1,5.1,0,0,1-1.47.51.66.66,0,0,1,.14-1.31Z"/><path class="cls-15" d="M150.09,103c1-.65.53-2,1.53-2.61,1.25-.78,3.87.14,4.84,1.94,1.12,2.07-.18,4.88-1.85,6.25-2.86,2.34-7.2.78-8.78.21-6.38-2.31-8.56-8.51-9-9.75-.58-1.8-1.46-4.56,0-6.12a3.88,3.88,0,0,1,4.55-.54c1.77,1,2.4,3.4,1.72,4.57-.34.58-.82.54-1,1-.43,1.41,2.65,3.42,3,3.66C146.33,102.4,148.7,103.92,150.09,103Z"/><path class="cls-17" d="M152.28,105a8.17,8.17,0,0,0-2.13-1.3,8.16,8.16,0,0,0,.36,2.46,1.06,1.06,0,0,0,1.77-1.17Z"/><path class="cls-17" d="M153.61,101.76a8.17,8.17,0,0,0-2.37.77,8.16,8.16,0,0,0,2.1,1.33,1.06,1.06,0,0,0,.26-2.1Z"/><path class="cls-17" d="M149.24,106a8.16,8.16,0,0,0-.95-2.3,8.17,8.17,0,0,0-1.17,2.2,1.06,1.06,0,1,0,2.11.1Z"/><path class="cls-17" d="M146.17,105.61a8.16,8.16,0,0,0,.38-2.46,8.17,8.17,0,0,0-2.14,1.28,1.06,1.06,0,1,0,1.75,1.18Z"/><path class="cls-17" d="M143.44,104.05a8.17,8.17,0,0,0,1.2-2.18,8.16,8.16,0,0,0-2.45.47,1.06,1.06,0,0,0,1.25,1.71Z"/><path class="cls-17" d="M141.31,101.71a6.44,6.44,0,0,0,1.53-1.24,6.45,6.45,0,0,0-1.93-.38.84.84,0,0,0,.4,1.62Z"/><path class="cls-17" d="M139.84,99.3a6.44,6.44,0,0,0,1.86-.62,6.45,6.45,0,0,0-1.67-1,.84.84,0,1,0-.19,1.66Z"/><path class="cls-17" d="M140.44,96.57a5.1,5.1,0,0,0,1.54.23,5.1,5.1,0,0,0-.81-1.33.66.66,0,0,0-.73,1.1Z"/><g class="cls-18"><path class="cls-19" d="M142,92.06c2,2.06,16.41,8.61,16.54,8.66,4.95,1.78,2.43.44,3.09-1.65l0-.12,0-.11c.83-2,3.62-1.46-1.33-3.24-.13,0-15.38-4.15-18.27-3.87l-.35-.12a.22.22,0,0,1-.12.33Z"/></g><g class="cls-20"><path class="cls-21" d="M154.61,79.34c3.94.59,7.15,3,8.23,6.34a8.83,8.83,0,0,1,0,5.25c.05,1.47.42,2.54.95,2.63s1.35-1.12,1.66-1.95c1.22-3.21-1.16-8.1-4.89-10.51A11.38,11.38,0,0,0,154.61,79.34Z"/></g><g class="cls-22"><path class="cls-23" d="M142.15,84.42c1.09-.7,6.72-4.1,13.11-1.81,1.58.57,5.92,2.12,6.63,5.75a6.54,6.54,0,0,1-.06,2.62,6.57,6.57,0,0,0,.59-4.12c-.71-3.63-5.05-5.18-6.63-5.75-6.39-2.29-12,1.11-13.11,1.81-1.49,1-3.74,2.39-3.88,4.34A11.07,11.07,0,0,1,142.15,84.42Z"/><path class="cls-23" d="M154.85,90.72a1.77,1.77,0,0,0,.07-.36A1.71,1.71,0,0,0,154.85,90.72Z"/><path class="cls-23" d="M145.58,88.62c-.15.36,0,.6.09,1a2.28,2.28,0,0,0,.53-1.06,1.39,1.39,0,0,0,0-.51A1.22,1.22,0,0,0,145.58,88.62Z"/></g><path class="cls-24" d="M140,92.85c2.08,1.13,2.93,3.59,2.21,4.75-.36.58-.91.51-1.05,1-.41,1.41,3.22,3.62,3.67,3.89,1.3.78,4.09,2.45,5.64,1.63,1.15-.61.5-2,1.62-2.58s3-.08,4.41,1l-.07-.13c-1-1.79-3.59-2.72-4.84-1.94-1,.63-.5,2-1.53,2.61-1.39.87-3.75-.64-4.85-1.35-.38-.25-3.46-2.26-3-3.66.15-.5.63-.45,1-1,.68-1.17,0-3.56-1.72-4.57a4,4,0,0,0-3.5-.17A5.16,5.16,0,0,1,140,92.85Z"/><path class="cls-15" d="M111.46,133.57l.37-.34a13.39,13.39,0,0,0,3.83-8.62,12.37,12.37,0,0,0-3.57-8.72,12.37,12.37,0,0,0-4.45-8.3A13.39,13.39,0,0,0,98.56,105l-.5.06c-8.62,1.24-12.39,11.19-12.9,14.85a12.77,12.77,0,0,0,.53,5.31,16,16,0,0,0,2.35,5A12.77,12.77,0,0,0,91.8,134C94.94,136,105,139.43,111.46,133.57Z"/><path class="cls-16" d="M110.85,132.95l.35-.32a12.69,12.69,0,0,0,3.63-8.17,11.72,11.72,0,0,0-3.38-8.26,11.72,11.72,0,0,0-4.21-7.87,12.69,12.69,0,0,0-8.62-2.41l-.47.06C90,107.15,86.4,116.59,85.93,120.06a12.1,12.1,0,0,0,.5,5,15.16,15.16,0,0,0,2.23,4.73,12.1,12.1,0,0,0,3.56,3.59C95.19,135.25,104.74,138.5,110.85,132.95Z"/><path class="cls-15" d="M99.88,114.29c.95.48.62,1.68,1.55,2.14,1.15.57,3.35-.44,4-2.08.8-1.88-.56-4.22-2.12-5.27-2.68-1.8-6.31-.08-7.63.55-5.35,2.53-6.72,8.09-7,9.19-.35,1.61-.89,4.08.53,5.31a3.38,3.38,0,0,0,4,.09c1.45-1,1.8-3.15,1.11-4.11-.34-.48-.75-.4-.92-.82-.49-1.18,2-3.18,2.33-3.43C96.68,115.16,98.6,113.65,99.88,114.29Z"/><path class="cls-17" d="M101.62,112.45a7.11,7.11,0,0,1-1.74,1.3,7.11,7.11,0,0,1,.11-2.17.92.92,0,1,1,1.63.87Z"/><path class="cls-17" d="M103,115.11a7.11,7.11,0,0,1-2.12-.47,7.11,7.11,0,0,1,1.72-1.33.92.92,0,0,1,.4,1.8Z"/><path class="cls-17" d="M98.9,111.78a7.11,7.11,0,0,1-.63,2.08A7.12,7.12,0,0,1,97.07,112a.92.92,0,0,1,1.83-.26Z"/><path class="cls-17" d="M96.27,112.39a7.11,7.11,0,0,1,.54,2.1,7.11,7.11,0,0,1-2-.93.92.92,0,1,1,1.42-1.17Z"/><path class="cls-17" d="M94,114a7.12,7.12,0,0,1,1.22,1.79,7.11,7.11,0,0,1-2.16-.21A.92.92,0,0,1,94,114Z"/><path class="cls-17" d="M92.38,116.18a5.62,5.62,0,0,1,1.43.95,5.61,5.61,0,0,1-1.64.49.73.73,0,1,1,.21-1.44Z"/><path class="cls-17" d="M91.3,118.38a5.62,5.62,0,0,1,1.67.39,5.62,5.62,0,0,1-1.36,1,.73.73,0,1,1-.3-1.42Z"/><path class="cls-17" d="M92,120.7a4.44,4.44,0,0,1,1.32-.32,4.44,4.44,0,0,1-.59,1.22.58.58,0,0,1-.72-.9Z"/><path class="cls-15" d="M105.7,126.66c.24-1-.9-1.55-.67-2.55.29-1.25,2.47-2.3,4.18-1.79,2,.59,2.9,3.12,2.71,5-.32,3.21-4,4.91-5.28,5.53-5.36,2.51-10.51,0-11.52-.49-1.46-.75-3.71-1.91-3.75-3.79a3.38,3.38,0,0,1,2.47-3.13c1.71-.46,3.57.62,3.88,1.76.15.57-.17.83,0,1.23.6,1.13,3.74.47,4.13.39C103,128.57,105.38,128.05,105.7,126.66Z"/><path class="cls-17" d="M108.24,126.49a7.11,7.11,0,0,0-2.11.51,7.12,7.12,0,0,0,1.74,1.3.92.92,0,0,0,.37-1.81Z"/><path class="cls-17" d="M107.09,123.69a7.11,7.11,0,0,0-1,1.93,7.11,7.11,0,0,0,2.12-.48.92.92,0,0,0-1.13-1.46Z"/><path class="cls-17" d="M107,129a7.11,7.11,0,0,0-2-.83,7.11,7.11,0,0,0,.64,2.07A.92.92,0,1,0,107,129Z"/><path class="cls-17" d="M104.87,130.66a7.11,7.11,0,0,0-1.28-1.75,7.11,7.11,0,0,0-.53,2.1.92.92,0,1,0,1.81-.35Z"/><path class="cls-17" d="M102.22,131.38a7.11,7.11,0,0,0-.6-2.08,7.11,7.11,0,0,0-1.22,1.8.92.92,0,0,0,1.82.29Z"/><path class="cls-17" d="M99.47,131.24a5.61,5.61,0,0,0,.18-1.7,5.62,5.62,0,0,0-1.42,1,.73.73,0,1,0,1.25.75Z"/><path class="cls-17" d="M97.08,130.67a5.61,5.61,0,0,0,.76-1.53,5.62,5.62,0,0,0-1.67.39.73.73,0,0,0,.9,1.14Z"/><path class="cls-17" d="M95.78,128.61a4.44,4.44,0,0,0,1.09-.81,4.44,4.44,0,0,0-1.32-.32.58.58,0,1,0,.23,1.13Z"/><g class="cls-18"><path class="cls-19" d="M93.93,124.9c2.52,0,15.42-4.81,15.53-4.86,4.14-2,1.77-1.23.89-2.92l0-.1,0-.1c-.74-1.76,1.33-3.13-2.81-1.18-.11.05-12,6.92-13.64,8.87l-.29.14a.19.19,0,0,1,.13.28Z"/></g><g class="cls-20"><path class="cls-21" d="M93.88,109.27a8.65,8.65,0,0,1,9-1.17,7.69,7.69,0,0,1,3.23,3.24c.94.87,1.82,1.3,2.2,1s.14-1.52-.18-2.23c-1.23-2.73-5.7-4.28-9.49-3.46A9.91,9.91,0,0,0,93.88,109.27Z"/></g><g class="cls-22"><path class="cls-23" d="M89.34,120.07c.24-1.11,1.62-6.66,7-9.19,1.32-.63,5-2.34,7.63-.55a5.7,5.7,0,0,1,1.58,1.65,5.72,5.72,0,0,0-2.17-2.9c-2.68-1.8-6.31-.08-7.63.55-5.35,2.53-6.72,8.09-7,9.19-.33,1.51-.83,3.77.29,5.06A9.65,9.65,0,0,1,89.34,120.07Z"/><path class="cls-23" d="M101,116.13a1.54,1.54,0,0,0-.18-.27A1.49,1.49,0,0,0,101,116.13Z"/><path class="cls-23" d="M94,120.54c.13.32.39.35.66.55a2,2,0,0,0-.33-1,1.22,1.22,0,0,0-.32-.31A1.06,1.06,0,0,0,94,120.54Z"/></g><path class="cls-24" d="M93.22,126.58c2-.59,4,.41,4.29,1.56.13.58-.25.87,0,1.27.61,1.12,4.22.25,4.66.13,1.28-.32,4-1,4.48-2.47.33-1.08-.92-1.54-.59-2.59s1.78-1.89,3.3-2.13l-.12,0c-1.7-.51-3.89.54-4.18,1.79-.23,1,.9,1.52.67,2.55-.32,1.39-2.71,1.92-3.82,2.16-.39.08-3.52.74-4.13-.39-.21-.4.11-.66,0-1.23-.3-1.14-2.16-2.22-3.88-1.76a3.47,3.47,0,0,0-2.26,2A4.49,4.49,0,0,1,93.22,126.58Z"/><path class="cls-15" d="M115.85,49.52l-.4-.43a15.64,15.64,0,0,0-10.08-4.48,14.45,14.45,0,0,0-10.18,4.17,14.45,14.45,0,0,0-9.7,5.2,15.64,15.64,0,0,0-3,10.62c0,.25.06.45.07.58C84,75.25,95.68,79.66,100,80.25a14.92,14.92,0,0,0,6.2-.62A18.69,18.69,0,0,0,112,76.89a14.92,14.92,0,0,0,4.43-4.39C118.68,68.83,122.7,57,115.85,49.52Z"/><path class="cls-16" d="M115.13,50.24l-.38-.41a14.82,14.82,0,0,0-9.55-4.25,13.69,13.69,0,0,0-9.65,3.95,13.69,13.69,0,0,0-9.19,4.92,14.82,14.82,0,0,0-2.81,10.07c0,.24.05.43.07.55C85,74.62,96,78.8,100.07,79.36a14.14,14.14,0,0,0,5.88-.58,17.72,17.72,0,0,0,5.52-2.6A14.14,14.14,0,0,0,115.66,72C117.81,68.54,121.62,57.37,115.13,50.24Z"/><path class="cls-15" d="M93.33,63.06c.56-1.11,2-.73,2.5-1.81.67-1.34-.52-3.91-2.43-4.72-2.2-.93-4.93.65-6.16,2.48-2.1,3.13-.09,7.37.64,8.91,3,6.25,9.45,7.85,10.74,8.14,1.88.41,4.77,1,6.2-.62a4,4,0,0,0,.11-4.66c-1.2-1.69-3.68-2.11-4.8-1.3-.56.4-.47.88-1,1.08-1.38.57-3.72-2.36-4-2.72C94.34,66.8,92.58,64.55,93.33,63.06Z"/><path class="cls-17" d="M91.17,61a8.31,8.31,0,0,1,1.52,2,8.31,8.31,0,0,1-2.53-.13,1.08,1.08,0,0,1,1-1.9Z"/><path class="cls-17" d="M94.29,59.36a8.31,8.31,0,0,1-.55,2.48,8.31,8.31,0,0,1-1.55-2,1.08,1.08,0,1,1,2.1-.47Z"/><path class="cls-17" d="M90.4,64.2a8.31,8.31,0,0,1,2.43.74,8.31,8.31,0,0,1-2.12,1.39,1.08,1.08,0,0,1-.31-2.13Z"/><path class="cls-17" d="M91.1,67.28a8.31,8.31,0,0,1,2.46-.63,8.31,8.31,0,0,1-1.09,2.29,1.08,1.08,0,0,1-1.37-1.66Z"/><path class="cls-17" d="M92.95,69.89A8.31,8.31,0,0,1,95,68.47,8.31,8.31,0,0,1,94.8,71a1.08,1.08,0,0,1-1.86-1.1Z"/><path class="cls-17" d="M95.53,71.82a6.56,6.56,0,0,1,1.11-1.67,6.56,6.56,0,0,1,.57,1.92.85.85,0,1,1-1.68-.25Z"/><path class="cls-17" d="M98.11,73.08a6.56,6.56,0,0,1,.45-2,6.56,6.56,0,0,1,1.21,1.59.85.85,0,0,1-1.66.36Z"/><path class="cls-17" d="M100.81,72.21a5.19,5.19,0,0,1-.38-1.54,5.19,5.19,0,0,1,1.42.69.67.67,0,1,1-1,.85Z"/><path class="cls-15" d="M107.78,56.25c-1.21-.27-1.81,1-3,.78-1.46-.34-2.68-2.89-2.09-4.88.68-2.29,3.64-3.39,5.84-3.17,3.75.37,5.74,4.62,6.47,6.17,2.93,6.26,0,12.29-.57,13.46C113.56,70.32,112.21,73,110,73a4,4,0,0,1-3.66-2.88c-.54-2,.72-4.18,2.06-4.53.67-.18,1,.2,1.44-.05,1.32-.71.55-4.37.45-4.82C110,59.42,109.41,56.62,107.78,56.25Z"/><path class="cls-17" d="M107.58,53.29a8.31,8.31,0,0,0,.6,2.46,8.31,8.31,0,0,0,1.51-2,1.08,1.08,0,1,0-2.11-.43Z"/><path class="cls-17" d="M104.31,54.63a8.31,8.31,0,0,0,2.26,1.15,8.31,8.31,0,0,0-.56-2.47,1.08,1.08,0,1,0-1.7,1.32Z"/><path class="cls-17" d="M110.53,54.72a8.31,8.31,0,0,0-1,2.34,8.31,8.31,0,0,0,2.42-.75,1.08,1.08,0,0,0-1.45-1.6Z"/><path class="cls-17" d="M112.45,57.23a8.31,8.31,0,0,0-2,1.5,8.31,8.31,0,0,0,2.46.62,1.08,1.08,0,0,0-.41-2.12Z"/><path class="cls-17" d="M113.29,60.31a8.31,8.31,0,0,0-2.44.71,8.31,8.31,0,0,0,2.1,1.42,1.08,1.08,0,0,0,.34-2.13Z"/><path class="cls-17" d="M113.13,63.53a6.56,6.56,0,0,0-2-.21A6.56,6.56,0,0,0,112.25,65a.85.85,0,0,0,.88-1.46Z"/><path class="cls-17" d="M112.46,66.32a6.56,6.56,0,0,0-1.79-.89,6.56,6.56,0,0,0,.46,1.95.85.85,0,1,0,1.33-1.06Z"/><path class="cls-17" d="M110.06,67.85a5.19,5.19,0,0,0-.95-1.27,5.19,5.19,0,0,0-.37,1.54.67.67,0,1,0,1.32-.27Z"/><g class="cls-18"><path class="cls-19" d="M105.73,70c0-2.95-5.62-18-5.68-18.14-2.28-4.84-1.43-2.07-3.41-1l-.11.06-.11.05c-2.06.86-3.66-1.55-1.38,3.29.06.13,8.09,14.07,10.37,15.94l.16.34a.23.23,0,0,1,.33-.15Z"/></g><g class="cls-20"><path class="cls-21" d="M87.46,70.06c-2.41-3.26-3-7.32-1.36-10.49a9,9,0,0,1,3.79-3.77c1-1.1,1.52-2.13,1.21-2.57s-1.78-.17-2.6.2c-3.19,1.43-5,6.66-4,11.09A11.58,11.58,0,0,0,87.46,70.06Z"/></g><g class="cls-22"><path class="cls-23" d="M100.08,75.37c-1.29-.28-7.79-1.89-10.74-8.14-.73-1.55-2.74-5.79-.64-8.91a6.66,6.66,0,0,1,1.93-1.85A6.69,6.69,0,0,0,87.24,59c-2.1,3.13-.09,7.37.64,8.91,3,6.25,9.45,7.85,10.74,8.14,1.76.39,4.41,1,5.92-.33A11.27,11.27,0,0,1,100.08,75.37Z"/><path class="cls-23" d="M95.48,61.69a1.8,1.8,0,0,0-.32.21A1.74,1.74,0,0,0,95.48,61.69Z"/><path class="cls-23" d="M100.63,69.88c.37-.15.41-.46.64-.77a2.32,2.32,0,0,0-1.15.38,1.42,1.42,0,0,0-.36.38A1.24,1.24,0,0,0,100.63,69.88Z"/></g><path class="cls-24" d="M107.68,70.84c-.69-2.31.47-4.7,1.83-5,.67-.16,1,.29,1.48,0,1.31-.72.29-4.93.16-5.45-.38-1.5-1.18-4.71-2.88-5.24-1.26-.39-1.8,1.08-3,.69S103,53.78,102.75,52l0,.14c-.59,2,.63,4.54,2.09,4.88,1.17.27,1.78-1.05,3-.78,1.63.37,2.24,3.16,2.52,4.47.1.45.87,4.11-.45,4.82-.47.25-.78-.12-1.44.05-1.34.35-2.6,2.53-2.06,4.53a4.06,4.06,0,0,0,2.39,2.64A5.25,5.25,0,0,1,107.68,70.84Z"/><path class="cls-25" d="M80.45,83.05c-1.77,3.44.46,7.19,1.1,8.27.85,1.43,2.55,4.29,5.51,4.41A5.87,5.87,0,0,0,92,93c2.22-3.49-.55-7.93-1.1-8.82C90.19,83,88,79.5,84.86,79.74,82.1,80,80.56,82.83,80.45,83.05Z"/><path class="cls-26" d="M81.55,83.6a6,6,0,0,0-.61,3.17c.26,2,1.84,3.69,2.3,3.49s-.58-1.69,0-3.91c.45-1.84,1.56-2.5,1.25-3.87-.14-.58-.53-1.3-1-1.35C82.58,81.07,81.81,83,81.55,83.6Z"/><path class="cls-27" d="M89.18,84c1.21,1.18,2.58,2.69,2.58,4.45,0,2.82-1.92,6-4,6-.78,0-1.22-.47-1.22-.95,0-1,2.83-3,2.83-5,0-1.58-1.54-2.4-1.54-3.93,0-.5.14-.86.67-.86A.94.94,0,0,1,89.18,84Z"/><path class="cls-25" d="M152.51,57.93c-3.46,1.39-3.76,5.62-3.85,6.83-.11,1.62-.34,4.83,2.06,6.86a6.43,6.43,0,0,0,5.74,1.2c3.86-1.13,4.12-6.22,4.17-7.24.07-1.36.26-5.33-2.52-7.22A6.42,6.42,0,0,0,152.51,57.93Z"/><path class="cls-26" d="M153.11,59.06A5.06,5.06,0,0,0,150.78,61c-.94,1.66-.59,3.92-.09,4.08s.49-1.63,2.22-2.91c1.44-1.07,2.75-.83,3.27-2a1.61,1.61,0,0,0-.08-1.67C155.43,57.86,153.7,58.76,153.11,59.06Z"/><path class="cls-27" d="M159.28,64.31c.33,1.66.6,3.67-.41,5-1.63,2.08-5.09,3.22-6.8,1.88-.65-.51-.74-1.14-.47-1.49.56-.72,4.07-.34,5.25-1.85.91-1.17.1-2.77,1-3.91.29-.37.61-.55,1.06-.2A1.07,1.07,0,0,1,159.28,64.31Z"/><path class="cls-28" d="M91,37.09a3.71,3.71,0,0,0-3.3-1.32c-2,.44-1.85,3.07-3.63,3.63s-4.44-1.06-5-3C78.2,32.94,84,26,90.7,26.19c6.28.16,11.76,6.48,11.23,12.55-.52,5.86-6.59,10.91-9.91,9.91C89.94,48,88.3,44.81,89,43c.61-1.45,2.56-1.36,3-3A3.64,3.64,0,0,0,91,37.09Z"/><path class="cls-28" d="M77.82,45.68c.54-3.23,7-2.57,9.91-7.93,1.19-2.18,1-3.83,2.31-4.29,2.08-.73,5.66,2.24,5.28,4-.31,1.42-3,.74-5.94,2.64-5.16,3.37-4.11,10.46-6.94,10.9C80.43,51.27,77.42,48.05,77.82,45.68Z"/><path class="cls-29" d="M94.27,33.83c-2.66-2.66-7.6-2.48-9.92-.17a9.89,9.89,0,0,0-2.46,5.07l.17.14a.16.16,0,0,1,0,.19.84.84,0,0,0,0,.19,3.23,3.23,0,0,0,2,.14c1.78-.56,1.68-3.19,3.63-3.63A3.71,3.71,0,0,1,91,37.09a3.64,3.64,0,0,1,1,3c-.41,1.62-2.36,1.53-3,3a4,4,0,0,0,.37,3.13,3.61,3.61,0,0,0,3.05-1.39C95.64,41.61,97.36,36.92,94.27,33.83Z"/><path class="cls-29" d="M84.37,43.45c-.52-.52-3,1.18-4.75,2.91-.48.48-.94,1-1.41,1.45a6,6,0,0,0,3.26,3.05l.43-.43C85.29,47,84.7,43.78,84.37,43.45Z"/><path class="cls-25" d="M125.11,115.62c-3.73.13-5.44,4-5.93,5.12-.65,1.48-2,4.43-.38,7.15a6.43,6.43,0,0,0,5,3.07c4,.24,6-4.46,6.37-5.4.52-1.26,2.05-4.92.07-7.64A6.42,6.42,0,0,0,125.11,115.62Z"/><path class="cls-26" d="M125.3,116.88a5.06,5.06,0,0,0-2.86,1c-1.45,1.24-1.88,3.49-1.46,3.81s1-1.37,3.08-2c1.72-.51,2.87.15,3.77-.81.39-.41.73-1.13.48-1.6C127.89,116.54,125.95,116.79,125.3,116.88Z"/><path class="cls-27" d="M129.32,123.9c-.25,1.68-.68,3.66-2.07,4.54-2.24,1.41-5.88,1.31-7-.53-.44-.7-.31-1.33.06-1.56.78-.49,3.94,1.06,5.57,0,1.25-.79,1-2.58,2.25-3.35.39-.25.76-.31,1.06.17A1.07,1.07,0,0,1,129.32,123.9Z"/><path class="cls-25" d="M120.17,40.73a4.5,4.5,0,1,0,4.5,4.5A4.5,4.5,0,0,0,120.17,40.73Zm0,8a3.5,3.5,0,1,1,3.5-3.5A3.5,3.5,0,0,1,120.17,48.73Z"/><path class="cls-25" d="M138.17,77.73a4.5,4.5,0,1,0,4.5,4.5A4.5,4.5,0,0,0,138.17,77.73Zm0,8a3.5,3.5,0,1,1,3.5-3.5A3.5,3.5,0,0,1,138.17,85.73Z"/><path class="cls-25" d="M101.17,98.73a4.5,4.5,0,1,0,4.5,4.5A4.5,4.5,0,0,0,101.17,98.73Zm0,8a3.5,3.5,0,1,1,3.5-3.5A3.5,3.5,0,0,1,101.17,106.73Z"/><path class="cls-28" d="M115.69,90.14a3.71,3.71,0,0,0-3.27,1.4c-1.07,1.69.86,3.48,0,5.14s-3.89,2.39-5.6,1.4c-3.13-1.8-3.93-10.78.93-15.41,4.55-4.33,12.9-3.73,16.81.93,3.78,4.51,3.06,12.37,0,14-1.92,1-5.35-.08-6.07-1.87-.59-1.46.85-2.77,0-4.2A3.64,3.64,0,0,0,115.69,90.14Z"/><path class="cls-28" d="M112.42,105.55c-1.9-2.66,3.11-6.74,1.4-12.61-.69-2.38-2-3.4-1.4-4.67,1-2,5.59-2.42,6.54-.93.79,1.23-1.62,2.67-2.34,6.07-1.27,6,4.49,10.31,2.8,12.61C118.22,107.66,113.82,107.51,112.42,105.55Z"/><path class="cls-29" d="M115.68,85.55c-3.76,0-7.13,3.62-7.13,6.89a9.89,9.89,0,0,0,1.85,5.32l.22,0a.16.16,0,0,1,.17.1.84.84,0,0,0,.11.16,3.23,3.23,0,0,0,1.53-1.33c.86-1.66-1.07-3.45,0-5.14a3.71,3.71,0,0,1,3.27-1.4,3.64,3.64,0,0,1,2.8,1.4c.85,1.43-.59,2.75,0,4.2a4,4,0,0,0,2.48,2,3.62,3.62,0,0,0,1.17-3.14C122.15,90.07,120,85.55,115.68,85.55Z"/><path class="cls-29" d="M115.48,99.34c-.74,0-1.3,3-1.3,5.41,0,.67,0,1.35,0,2a6,6,0,0,0,4.46-.14c0-.19,0-.39,0-.61C118.67,101.24,115.95,99.34,115.48,99.34Z"/><path class="cls-28" d="M178.71,93.51a2.39,2.39,0,0,0,.9,2.11c1.09.69,2.24-.56,3.31,0a3,3,0,0,1,.9,3.61c-1.16,2-6.95,2.53-9.93-.6a7.84,7.84,0,0,1,.6-10.83c2.9-2.43,8-2,9,0,.66,1.24-.05,3.45-1.2,3.91-.94.38-1.78-.55-2.71,0A2.34,2.34,0,0,0,178.71,93.51Z"/><path class="cls-28" d="M188.64,95.62c-1.72,1.23-4.34-2-8.13-.9-1.54.45-2.19,1.3-3,.9-1.28-.62-1.56-3.6-.6-4.21.79-.51,1.72,1,3.91,1.5,3.89.82,6.64-2.89,8.13-1.81C190,91.88,189.9,94.72,188.64,95.62Z"/><path class="cls-29" d="M175.75,93.52a4.85,4.85,0,0,0,4.44,4.59,6.37,6.37,0,0,0,3.43-1.19c0-.05,0-.1,0-.14a.11.11,0,0,1,.06-.11l.1-.07a2.08,2.08,0,0,0-.86-1c-1.07-.56-2.22.69-3.31,0a2.39,2.39,0,0,1-.9-2.11,2.34,2.34,0,0,1,.9-1.81c.92-.55,1.77.38,2.71,0a2.55,2.55,0,0,0,1.26-1.6,2.33,2.33,0,0,0-2-.76C178.67,89.35,175.75,90.7,175.75,93.52Z"/><path class="cls-29" d="M184.64,93.65c0,.48,1.91.84,3.49.84h1.3a3.85,3.85,0,0,0-.09-2.88h-.39C185.86,91.59,184.64,93.35,184.64,93.65Z"/><path class="cls-28" d="M86.82,138.31a3.05,3.05,0,0,0-2.7,1.16c-.88,1.39.71,2.87,0,4.24s-3.21,2-4.62,1.16c-2.58-1.49-3.24-8.89.77-12.71,3.75-3.57,10.64-3.08,13.86.77s2.52,10.2,0,11.55c-1.58.85-4.41-.07-5-1.54-.49-1.2.7-2.28,0-3.47A3,3,0,0,0,86.82,138.31Z"/><path class="cls-28" d="M84.12,151c-1.57-2.2,2.57-5.56,1.16-10.4-.57-2-1.66-2.8-1.16-3.85.79-1.64,4.6-2,5.39-.77.65,1-1.34,2.2-1.93,5-1,5,3.7,8.5,2.31,10.4C88.91,152.76,85.28,152.63,84.12,151Z"/><path class="cls-29" d="M86.81,134.52a6.21,6.21,0,0,0-5.88,5.68,8.15,8.15,0,0,0,1.53,4.39l.18,0a.14.14,0,0,1,.14.08.69.69,0,0,0,.09.13,2.67,2.67,0,0,0,1.26-1.09c.71-1.37-.88-2.84,0-4.24a3.05,3.05,0,0,1,2.7-1.16,3,3,0,0,1,2.31,1.16c.7,1.18-.49,2.27,0,3.47a3.27,3.27,0,0,0,2,1.61,3,3,0,0,0,1-2.59C92.14,138.26,90.41,134.52,86.81,134.52Z"/><path class="cls-29" d="M86.65,145.9c-.61,0-1.07,2.45-1.07,4.46,0,.56,0,1.11,0,1.67a4.93,4.93,0,0,0,3.68-.12c0-.16,0-.32,0-.5C89.28,147.46,87,145.9,86.65,145.9Z"/></g></g></g></svg>