<svg xmlns="http://www.w3.org/2000/svg" xmlns:xlink="http://www.w3.org/1999/xlink" viewBox="0 0 276.75 68.37"><defs><style>.cls-1{fill:#ccc;}.cls-2{fill:url(#linear-gradient);}.cls-3{fill:url(#linear-gradient-2);}.cls-4{fill:url(#linear-gradient-3);}.cls-5{fill:url(#linear-gradient-4);}.cls-6{fill:url(#linear-gradient-5);}.cls-7{fill:url(#linear-gradient-6);}.cls-8{fill:url(#linear-gradient-7);}.cls-9{fill:url(#linear-gradient-8);}.cls-10{fill:url(#linear-gradient-9);}.cls-11{fill:url(#linear-gradient-10);}.cls-12{fill:url(#linear-gradient-11);}.cls-13{fill:url(#linear-gradient-12);}.cls-14{fill:url(#linear-gradient-13);}.cls-15{fill:url(#linear-gradient-14);}.cls-16{fill:url(#linear-gradient-15);}.cls-17{fill:url(#linear-gradient-16);}.cls-18{fill:url(#linear-gradient-17);}.cls-19{fill:url(#linear-gradient-18);}.cls-20{fill:url(#linear-gradient-19);}.cls-21{fill:url(#linear-gradient-20);}.cls-22{fill:url(#linear-gradient-21);}.cls-23{fill:url(#linear-gradient-22);}.cls-24{fill:url(#linear-gradient-23);}.cls-25{fill:url(#linear-gradient-24);}.cls-26{fill:url(#linear-gradient-25);}.cls-27{fill:url(#linear-gradient-26);}.cls-28{fill:url(#linear-gradient-27);}.cls-29{fill:url(#linear-gradient-28);}.cls-30{fill:url(#linear-gradient-29);}.cls-31{fill:url(#linear-gradient-30);}.cls-32{fill:url(#linear-gradient-31);}.cls-33{fill:url(#linear-gradient-32);}.cls-34{fill:url(#linear-gradient-33);}.cls-35{fill:url(#linear-gradient-34);}.cls-36{fill:url(#linear-gradient-35);}.cls-37{fill:url(#linear-gradient-36);}.cls-38{fill:url(#linear-gradient-37);}.cls-39{fill:url(#linear-gradient-38);}.cls-40{fill:url(#linear-gradient-39);}.cls-41{fill:url(#linear-gradient-40);}.cls-42{fill:url(#linear-gradient-41);}.cls-43{fill:url(#linear-gradient-42);}.cls-44{fill:url(#linear-gradient-43);}.cls-45{fill:url(#linear-gradient-44);}.cls-46{fill:url(#linear-gradient-45);}.cls-47{fill:url(#linear-gradient-46);}.cls-48{fill:url(#linear-gradient-47);}.cls-49{fill:url(#linear-gradient-48);}.cls-50{fill:url(#linear-gradient-49);}.cls-51{fill:url(#linear-gradient-50);}.cls-52{fill:url(#linear-gradient-51);}.cls-53{fill:url(#linear-gradient-52);}.cls-54{fill:#d6811b;}.cls-55{fill:#f5f5f5;}.cls-56{fill:url(#linear-gradient-53);}.cls-57{fill:url(#linear-gradient-54);}.cls-58{fill:url(#linear-gradient-55);}.cls-59{fill:url(#linear-gradient-56);}.cls-60{fill:url(#linear-gradient-57);}.cls-61{fill:url(#linear-gradient-58);}.cls-62{fill:url(#linear-gradient-59);}.cls-63{fill:url(#linear-gradient-60);}.cls-64{fill:url(#linear-gradient-61);}.cls-65{fill:url(#linear-gradient-62);}.cls-66{fill:url(#linear-gradient-63);}.cls-67{fill:url(#linear-gradient-64);}.cls-68{fill:url(#linear-gradient-65);}.cls-69{fill:url(#linear-gradient-66);}.cls-70{fill:url(#linear-gradient-67);}.cls-71{fill:url(#linear-gradient-68);}.cls-72{fill:url(#linear-gradient-69);}.cls-73{fill:url(#linear-gradient-70);}.cls-74{fill:url(#linear-gradient-71);}.cls-75{fill:url(#linear-gradient-72);}.cls-76{fill:url(#linear-gradient-73);}.cls-77{fill:url(#linear-gradient-74);}.cls-78{fill:url(#linear-gradient-75);}.cls-79{fill:url(#linear-gradient-76);}.cls-80{fill:url(#linear-gradient-77);}.cls-81{fill:url(#linear-gradient-78);}.cls-82{fill:url(#linear-gradient-79);}.cls-83{fill:url(#linear-gradient-80);}.cls-84{fill:url(#linear-gradient-81);}.cls-85{fill:url(#linear-gradient-82);}.cls-86{fill:url(#linear-gradient-83);}.cls-87{fill:url(#linear-gradient-84);}.cls-88{fill:url(#linear-gradient-85);}.cls-89{fill:url(#linear-gradient-86);}.cls-90{fill:url(#linear-gradient-87);}.cls-91{fill:url(#linear-gradient-88);}.cls-92{fill:url(#linear-gradient-89);}.cls-93{fill:url(#linear-gradient-90);}.cls-94{fill:url(#linear-gradient-91);}.cls-95{fill:url(#linear-gradient-92);}.cls-96{fill:url(#linear-gradient-93);}.cls-97{fill:url(#linear-gradient-94);}.cls-98{fill:url(#linear-gradient-95);}.cls-99{fill:url(#linear-gradient-96);}.cls-100{fill:url(#linear-gradient-97);}.cls-101{fill:url(#linear-gradient-98);}.cls-102{fill:url(#linear-gradient-99);}.cls-103{fill:url(#linear-gradient-100);}.cls-104{fill:url(#linear-gradient-101);}.cls-105{fill:url(#linear-gradient-102);}.cls-106{fill:url(#linear-gradient-103);}.cls-107{fill:url(#radial-gradient);}</style><linearGradient id="linear-gradient" y1="34.15" x2="276.75" y2="34.15" gradientUnits="userSpaceOnUse"><stop offset="0" stop-color="#f79239"/><stop offset="0.13" stop-color="#fbb03b"/><stop offset="0.88" stop-color="#fbb03b"/><stop offset="1" stop-color="#f79239"/></linearGradient><linearGradient id="linear-gradient-2" x1="13.67" y1="34.18" x2="48.97" y2="34.18" xlink:href="#linear-gradient"/><linearGradient id="linear-gradient-3" x1="13.58" y1="34.18" x2="48.89" y2="34.18" gradientUnits="userSpaceOnUse"><stop offset="0" stop-color="#f69238"/><stop offset="0.13" stop-color="#faaf3a"/><stop offset="0.88" stop-color="#faaf3a"/><stop offset="1" stop-color="#f69238"/></linearGradient><linearGradient id="linear-gradient-4" x1="13.5" y1="34.18" x2="48.81" y2="34.18" gradientUnits="userSpaceOnUse"><stop offset="0" stop-color="#f69138"/><stop offset="0.13" stop-color="#faae3a"/><stop offset="0.88" stop-color="#faae3a"/><stop offset="1" stop-color="#f69138"/></linearGradient><linearGradient id="linear-gradient-5" x1="13.42" y1="34.18" x2="48.73" y2="34.18" gradientUnits="userSpaceOnUse"><stop offset="0" stop-color="#f59137"/><stop offset="0.13" stop-color="#f9ad39"/><stop offset="0.88" stop-color="#f9ad39"/><stop offset="1" stop-color="#f59137"/></linearGradient><linearGradient id="linear-gradient-6" x1="13.34" y1="34.18" x2="48.65" y2="34.18" gradientUnits="userSpaceOnUse"><stop offset="0" stop-color="#f49137"/><stop offset="0.13" stop-color="#f8ac38"/><stop offset="0.88" stop-color="#f8ac38"/><stop offset="1" stop-color="#f49137"/></linearGradient><linearGradient id="linear-gradient-7" x1="13.26" y1="34.18" x2="48.57" y2="34.18" gradientUnits="userSpaceOnUse"><stop offset="0" stop-color="#f49036"/><stop offset="0.13" stop-color="#f7ab38"/><stop offset="0.88" stop-color="#f7ab38"/><stop offset="1" stop-color="#f49036"/></linearGradient><linearGradient id="linear-gradient-8" x1="13.17" y1="34.18" x2="48.49" y2="34.18" gradientUnits="userSpaceOnUse"><stop offset="0" stop-color="#f39035"/><stop offset="0.13" stop-color="#f7aa37"/><stop offset="0.88" stop-color="#f7aa37"/><stop offset="1" stop-color="#f39035"/></linearGradient><linearGradient id="linear-gradient-9" x1="13.09" y1="34.18" x2="48.41" y2="34.18" gradientUnits="userSpaceOnUse"><stop offset="0" stop-color="#f29035"/><stop offset="0.13" stop-color="#f6aa37"/><stop offset="0.88" stop-color="#f6aa37"/><stop offset="1" stop-color="#f29035"/></linearGradient><linearGradient id="linear-gradient-10" x1="13.01" y1="34.18" x2="48.33" y2="34.18" gradientUnits="userSpaceOnUse"><stop offset="0" stop-color="#f28f34"/><stop offset="0.13" stop-color="#f5a936"/><stop offset="0.88" stop-color="#f5a936"/><stop offset="1" stop-color="#f28f34"/></linearGradient><linearGradient id="linear-gradient-11" x1="12.93" y1="34.18" x2="48.25" y2="34.18" gradientUnits="userSpaceOnUse"><stop offset="0" stop-color="#f18f34"/><stop offset="0.13" stop-color="#f4a835"/><stop offset="0.88" stop-color="#f4a835"/><stop offset="1" stop-color="#f18f34"/></linearGradient><linearGradient id="linear-gradient-12" x1="12.85" y1="34.18" x2="48.17" y2="34.18" gradientUnits="userSpaceOnUse"><stop offset="0" stop-color="#f18f33"/><stop offset="0.13" stop-color="#f4a735"/><stop offset="0.88" stop-color="#f4a735"/><stop offset="1" stop-color="#f18f33"/></linearGradient><linearGradient id="linear-gradient-13" x1="12.77" y1="34.18" x2="48.09" y2="34.18" gradientUnits="userSpaceOnUse"><stop offset="0" stop-color="#f08e33"/><stop offset="0.13" stop-color="#f3a634"/><stop offset="0.88" stop-color="#f3a634"/><stop offset="1" stop-color="#f08e33"/></linearGradient><linearGradient id="linear-gradient-14" x1="12.68" y1="34.18" x2="48.01" y2="34.18" gradientUnits="userSpaceOnUse"><stop offset="0" stop-color="#ef8e32"/><stop offset="0.13" stop-color="#f2a533"/><stop offset="0.88" stop-color="#f2a533"/><stop offset="1" stop-color="#ef8e32"/></linearGradient><linearGradient id="linear-gradient-15" x1="12.6" y1="34.18" x2="47.93" y2="34.18" gradientUnits="userSpaceOnUse"><stop offset="0" stop-color="#ef8e31"/><stop offset="0.13" stop-color="#f2a433"/><stop offset="0.88" stop-color="#f2a433"/><stop offset="1" stop-color="#ef8e31"/></linearGradient><linearGradient id="linear-gradient-16" x1="12.52" y1="34.18" x2="47.85" y2="34.18" gradientUnits="userSpaceOnUse"><stop offset="0" stop-color="#ee8d31"/><stop offset="0.13" stop-color="#f1a332"/><stop offset="0.88" stop-color="#f1a332"/><stop offset="1" stop-color="#ee8d31"/></linearGradient><linearGradient id="linear-gradient-17" x1="12.44" y1="34.18" x2="47.77" y2="34.18" gradientUnits="userSpaceOnUse"><stop offset="0" stop-color="#ed8d30"/><stop offset="0.13" stop-color="#f0a232"/><stop offset="0.88" stop-color="#f0a232"/><stop offset="1" stop-color="#ed8d30"/></linearGradient><linearGradient id="linear-gradient-18" x1="12.36" y1="34.18" x2="47.69" y2="34.18" gradientUnits="userSpaceOnUse"><stop offset="0" stop-color="#ed8d30"/><stop offset="0.13" stop-color="#efa131"/><stop offset="0.88" stop-color="#efa131"/><stop offset="1" stop-color="#ed8d30"/></linearGradient><linearGradient id="linear-gradient-19" x1="12.27" y1="34.18" x2="47.61" y2="34.18" gradientUnits="userSpaceOnUse"><stop offset="0" stop-color="#ec8c2f"/><stop offset="0.13" stop-color="#efa030"/><stop offset="0.88" stop-color="#efa030"/><stop offset="1" stop-color="#ec8c2f"/></linearGradient><linearGradient id="linear-gradient-20" x1="12.19" y1="34.18" x2="47.53" y2="34.18" gradientUnits="userSpaceOnUse"><stop offset="0" stop-color="#eb8c2e"/><stop offset="0.13" stop-color="#ee9f30"/><stop offset="0.88" stop-color="#ee9f30"/><stop offset="1" stop-color="#eb8c2e"/></linearGradient><linearGradient id="linear-gradient-21" x1="12.11" y1="34.18" x2="47.45" y2="34.18" gradientUnits="userSpaceOnUse"><stop offset="0" stop-color="#eb8c2e"/><stop offset="0.13" stop-color="#ed9e2f"/><stop offset="0.88" stop-color="#ed9e2f"/><stop offset="1" stop-color="#eb8c2e"/></linearGradient><linearGradient id="linear-gradient-22" x1="12.03" y1="34.18" x2="47.37" y2="34.18" gradientUnits="userSpaceOnUse"><stop offset="0" stop-color="#ea8b2d"/><stop offset="0.13" stop-color="#ec9e2e"/><stop offset="0.88" stop-color="#ec9e2e"/><stop offset="1" stop-color="#ea8b2d"/></linearGradient><linearGradient id="linear-gradient-23" x1="11.95" y1="34.18" x2="47.29" y2="34.18" gradientUnits="userSpaceOnUse"><stop offset="0" stop-color="#e98b2d"/><stop offset="0.13" stop-color="#ec9d2e"/><stop offset="0.88" stop-color="#ec9d2e"/><stop offset="1" stop-color="#e98b2d"/></linearGradient><linearGradient id="linear-gradient-24" x1="11.86" y1="34.18" x2="47.21" y2="34.18" gradientUnits="userSpaceOnUse"><stop offset="0" stop-color="#e98b2c"/><stop offset="0.13" stop-color="#eb9c2d"/><stop offset="0.88" stop-color="#eb9c2d"/><stop offset="1" stop-color="#e98b2c"/></linearGradient><linearGradient id="linear-gradient-25" x1="11.78" y1="34.18" x2="47.13" y2="34.18" gradientUnits="userSpaceOnUse"><stop offset="0" stop-color="#e88a2b"/><stop offset="0.13" stop-color="#ea9b2d"/><stop offset="0.88" stop-color="#ea9b2d"/><stop offset="1" stop-color="#e88a2b"/></linearGradient><linearGradient id="linear-gradient-26" x1="11.7" y1="34.18" x2="47.05" y2="34.18" gradientUnits="userSpaceOnUse"><stop offset="0" stop-color="#e78a2b"/><stop offset="0.13" stop-color="#ea9a2c"/><stop offset="0.88" stop-color="#ea9a2c"/><stop offset="1" stop-color="#e78a2b"/></linearGradient><linearGradient id="linear-gradient-27" x1="11.62" y1="34.18" x2="46.97" y2="34.18" gradientUnits="userSpaceOnUse"><stop offset="0" stop-color="#e78a2a"/><stop offset="0.13" stop-color="#e9992b"/><stop offset="0.88" stop-color="#e9992b"/><stop offset="1" stop-color="#e78a2a"/></linearGradient><linearGradient id="linear-gradient-28" x1="11.54" y1="34.18" x2="46.89" y2="34.18" gradientUnits="userSpaceOnUse"><stop offset="0" stop-color="#e6892a"/><stop offset="0.13" stop-color="#e8982b"/><stop offset="0.88" stop-color="#e8982b"/><stop offset="1" stop-color="#e6892a"/></linearGradient><linearGradient id="linear-gradient-29" x1="11.46" y1="34.18" x2="46.81" y2="34.18" gradientUnits="userSpaceOnUse"><stop offset="0" stop-color="#e68929"/><stop offset="0.13" stop-color="#e7972a"/><stop offset="0.88" stop-color="#e7972a"/><stop offset="1" stop-color="#e68929"/></linearGradient><linearGradient id="linear-gradient-30" x1="11.37" y1="34.18" x2="46.73" y2="34.18" gradientUnits="userSpaceOnUse"><stop offset="0" stop-color="#e58929"/><stop offset="0.13" stop-color="#e79629"/><stop offset="0.88" stop-color="#e79629"/><stop offset="1" stop-color="#e58929"/></linearGradient><linearGradient id="linear-gradient-31" x1="11.29" y1="34.18" x2="46.65" y2="34.18" gradientUnits="userSpaceOnUse"><stop offset="0" stop-color="#e48828"/><stop offset="0.13" stop-color="#e69529"/><stop offset="0.88" stop-color="#e69529"/><stop offset="1" stop-color="#e48828"/></linearGradient><linearGradient id="linear-gradient-32" x1="11.21" y1="34.18" x2="46.57" y2="34.18" gradientUnits="userSpaceOnUse"><stop offset="0" stop-color="#e48827"/><stop offset="0.13" stop-color="#e59428"/><stop offset="0.88" stop-color="#e59428"/><stop offset="1" stop-color="#e48827"/></linearGradient><linearGradient id="linear-gradient-33" x1="11.13" y1="34.18" x2="46.48" y2="34.18" gradientUnits="userSpaceOnUse"><stop offset="0" stop-color="#e38827"/><stop offset="0.13" stop-color="#e59328"/><stop offset="0.88" stop-color="#e59328"/><stop offset="1" stop-color="#e38827"/></linearGradient><linearGradient id="linear-gradient-34" x1="11.05" y1="34.18" x2="46.4" y2="34.18" gradientUnits="userSpaceOnUse"><stop offset="0" stop-color="#e28726"/><stop offset="0.13" stop-color="#e49327"/><stop offset="0.88" stop-color="#e49327"/><stop offset="1" stop-color="#e28726"/></linearGradient><linearGradient id="linear-gradient-35" x1="10.96" y1="34.18" x2="46.32" y2="34.18" gradientUnits="userSpaceOnUse"><stop offset="0" stop-color="#e28726"/><stop offset="0.13" stop-color="#e39226"/><stop offset="0.88" stop-color="#e39226"/><stop offset="1" stop-color="#e28726"/></linearGradient><linearGradient id="linear-gradient-36" x1="10.88" y1="34.18" x2="46.24" y2="34.18" gradientUnits="userSpaceOnUse"><stop offset="0" stop-color="#e18725"/><stop offset="0.13" stop-color="#e29126"/><stop offset="0.88" stop-color="#e29126"/><stop offset="1" stop-color="#e18725"/></linearGradient><linearGradient id="linear-gradient-37" x1="10.8" y1="34.18" x2="46.16" y2="34.18" gradientUnits="userSpaceOnUse"><stop offset="0" stop-color="#e08624"/><stop offset="0.13" stop-color="#e29025"/><stop offset="0.88" stop-color="#e29025"/><stop offset="1" stop-color="#e08624"/></linearGradient><linearGradient id="linear-gradient-38" x1="10.72" y1="34.18" x2="46.08" y2="34.18" gradientUnits="userSpaceOnUse"><stop offset="0" stop-color="#e08624"/><stop offset="0.13" stop-color="#e18f24"/><stop offset="0.88" stop-color="#e18f24"/><stop offset="1" stop-color="#e08624"/></linearGradient><linearGradient id="linear-gradient-39" x1="10.64" y1="34.18" x2="46" y2="34.18" gradientUnits="userSpaceOnUse"><stop offset="0" stop-color="#df8623"/><stop offset="0.13" stop-color="#e08e24"/><stop offset="0.88" stop-color="#e08e24"/><stop offset="1" stop-color="#df8623"/></linearGradient><linearGradient id="linear-gradient-40" x1="10.55" y1="34.18" x2="45.92" y2="34.18" gradientUnits="userSpaceOnUse"><stop offset="0" stop-color="#de8523"/><stop offset="0.13" stop-color="#df8d23"/><stop offset="0.88" stop-color="#df8d23"/><stop offset="1" stop-color="#de8523"/></linearGradient><linearGradient id="linear-gradient-41" x1="10.47" y1="34.18" x2="45.84" y2="34.18" gradientUnits="userSpaceOnUse"><stop offset="0" stop-color="#de8522"/><stop offset="0.13" stop-color="#df8c23"/><stop offset="0.88" stop-color="#df8c23"/><stop offset="1" stop-color="#de8522"/></linearGradient><linearGradient id="linear-gradient-42" x1="10.39" y1="34.18" x2="45.76" y2="34.18" gradientUnits="userSpaceOnUse"><stop offset="0" stop-color="#dd8521"/><stop offset="0.13" stop-color="#de8b22"/><stop offset="0.88" stop-color="#de8b22"/><stop offset="1" stop-color="#dd8521"/></linearGradient><linearGradient id="linear-gradient-43" x1="10.31" y1="34.18" x2="45.68" y2="34.18" gradientUnits="userSpaceOnUse"><stop offset="0" stop-color="#dc8421"/><stop offset="0.13" stop-color="#dd8a21"/><stop offset="0.88" stop-color="#dd8a21"/><stop offset="1" stop-color="#dc8421"/></linearGradient><linearGradient id="linear-gradient-44" x1="10.23" y1="34.18" x2="45.6" y2="34.18" gradientUnits="userSpaceOnUse"><stop offset="0" stop-color="#dc8420"/><stop offset="0.13" stop-color="#dd8921"/><stop offset="0.88" stop-color="#dd8921"/><stop offset="1" stop-color="#dc8420"/></linearGradient><linearGradient id="linear-gradient-45" x1="10.15" y1="34.18" x2="45.52" y2="34.18" gradientUnits="userSpaceOnUse"><stop offset="0" stop-color="#db8420"/><stop offset="0.13" stop-color="#dc8820"/><stop offset="0.88" stop-color="#dc8820"/><stop offset="1" stop-color="#db8420"/></linearGradient><linearGradient id="linear-gradient-46" x1="10.06" y1="34.18" x2="45.44" y2="34.18" gradientUnits="userSpaceOnUse"><stop offset="0" stop-color="#db831f"/><stop offset="0.13" stop-color="#db871f"/><stop offset="0.88" stop-color="#db871f"/><stop offset="1" stop-color="#db831f"/></linearGradient><linearGradient id="linear-gradient-47" x1="9.98" y1="34.18" x2="45.36" y2="34.18" gradientUnits="userSpaceOnUse"><stop offset="0" stop-color="#da831f"/><stop offset="0.13" stop-color="#da871f"/><stop offset="0.88" stop-color="#da871f"/><stop offset="1" stop-color="#da831f"/></linearGradient><linearGradient id="linear-gradient-48" x1="9.9" y1="34.18" x2="45.28" y2="34.18" gradientUnits="userSpaceOnUse"><stop offset="0" stop-color="#d9831e"/><stop offset="0.13" stop-color="#da861e"/><stop offset="0.88" stop-color="#da861e"/><stop offset="1" stop-color="#d9831e"/></linearGradient><linearGradient id="linear-gradient-49" x1="9.82" y1="34.18" x2="45.2" y2="34.18" gradientUnits="userSpaceOnUse"><stop offset="0" stop-color="#d9821d"/><stop offset="0.13" stop-color="#d9851e"/><stop offset="0.88" stop-color="#d9851e"/><stop offset="1" stop-color="#d9821d"/></linearGradient><linearGradient id="linear-gradient-50" x1="9.74" y1="34.18" x2="45.12" y2="34.18" gradientUnits="userSpaceOnUse"><stop offset="0" stop-color="#d8821d"/><stop offset="0.13" stop-color="#d8841d"/><stop offset="0.88" stop-color="#d8841d"/><stop offset="1" stop-color="#d8821d"/></linearGradient><linearGradient id="linear-gradient-51" x1="9.65" y1="34.18" x2="45.04" y2="34.18" gradientUnits="userSpaceOnUse"><stop offset="0" stop-color="#d7821c"/><stop offset="0.13" stop-color="#d7831c"/><stop offset="0.88" stop-color="#d7831c"/><stop offset="1" stop-color="#d7821c"/></linearGradient><linearGradient id="linear-gradient-52" x1="9.57" y1="34.18" x2="44.96" y2="34.18" gradientUnits="userSpaceOnUse"><stop offset="0" stop-color="#d7811c"/><stop offset="0.13" stop-color="#d7821c"/><stop offset="0.88" stop-color="#d7821c"/><stop offset="1" stop-color="#d7811c"/></linearGradient><linearGradient id="linear-gradient-53" x1="2422.11" y1="34.18" x2="2457.42" y2="34.18" gradientTransform="matrix(-1, 0, 0, 1, 2685.2, 0)" xlink:href="#linear-gradient"/><linearGradient id="linear-gradient-54" x1="2466.09" y1="34.18" x2="2502.84" y2="34.18" gradientTransform="matrix(-0.96, 0, 0, 1, 2632.55, 0)" xlink:href="#linear-gradient-3"/><linearGradient id="linear-gradient-55" x1="2513.8" y1="34.18" x2="2552.12" y2="34.18" gradientTransform="matrix(-0.92, 0, 0, 1, 2579.89, 0)" xlink:href="#linear-gradient-4"/><linearGradient id="linear-gradient-56" x1="2565.77" y1="34.18" x2="2605.79" y2="34.18" gradientTransform="matrix(-0.88, 0, 0, 1, 2527.24, 0)" xlink:href="#linear-gradient-5"/><linearGradient id="linear-gradient-57" x1="2622.56" y1="34.18" x2="2664.45" y2="34.18" gradientTransform="matrix(-0.84, 0, 0, 1, 2474.6, 0)" xlink:href="#linear-gradient-6"/><linearGradient id="linear-gradient-58" x1="2684.9" y1="34.18" x2="2728.83" y2="34.18" gradientTransform="matrix(-0.8, 0, 0, 1, 2421.95, 0)" xlink:href="#linear-gradient-7"/><linearGradient id="linear-gradient-59" x1="2753.62" y1="34.18" x2="2799.81" y2="34.18" gradientTransform="matrix(-0.76, 0, 0, 1, 2369.29, 0)" xlink:href="#linear-gradient-8"/><linearGradient id="linear-gradient-60" x1="2829.79" y1="34.18" x2="2878.47" y2="34.18" gradientTransform="matrix(-0.73, 0, 0, 1, 2316.64, 0)" xlink:href="#linear-gradient-9"/><linearGradient id="linear-gradient-61" x1="2914.65" y1="34.18" x2="2966.12" y2="34.18" gradientTransform="matrix(-0.69, 0, 0, 1, 2263.99, 0)" xlink:href="#linear-gradient-10"/><linearGradient id="linear-gradient-62" x1="3009.79" y1="34.18" x2="3064.38" y2="34.18" gradientTransform="matrix(-0.65, 0, 0, 1, 2211.34, 0)" xlink:href="#linear-gradient-11"/><linearGradient id="linear-gradient-63" x1="3117.22" y1="34.18" x2="3175.34" y2="34.18" gradientTransform="matrix(-0.61, 0, 0, 1, 2158.69, 0)" xlink:href="#linear-gradient-12"/><linearGradient id="linear-gradient-64" x1="3239.47" y1="34.18" x2="3301.6" y2="34.18" gradientTransform="matrix(-0.57, 0, 0, 1, 2106.04, 0)" xlink:href="#linear-gradient-13"/><linearGradient id="linear-gradient-65" x1="3379.81" y1="34.18" x2="3446.54" y2="34.18" gradientTransform="matrix(-0.53, 0, 0, 1, 2053.39, 0)" xlink:href="#linear-gradient-14"/><linearGradient id="linear-gradient-66" x1="3542.63" y1="34.18" x2="3614.7" y2="34.18" gradientTransform="matrix(-0.49, 0, 0, 1, 2000.74, 0)" xlink:href="#linear-gradient-15"/><linearGradient id="linear-gradient-67" x1="3733.77" y1="34.18" x2="3812.11" y2="34.18" gradientTransform="matrix(-0.45, 0, 0, 1, 1948.09, 0)" xlink:href="#linear-gradient-16"/><linearGradient id="linear-gradient-68" x1="3961.28" y1="34.18" x2="4047.08" y2="34.18" gradientTransform="matrix(-0.41, 0, 0, 1, 1895.43, 0)" xlink:href="#linear-gradient-17"/><linearGradient id="linear-gradient-69" x1="4236.71" y1="34.18" x2="4331.56" y2="34.18" gradientTransform="matrix(-0.37, 0, 0, 1, 1842.78, 0)" xlink:href="#linear-gradient-18"/><linearGradient id="linear-gradient-70" x1="4576.97" y1="34.18" x2="4682.98" y2="34.18" gradientTransform="matrix(-0.33, 0, 0, 1, 1790.14, 0)" xlink:href="#linear-gradient-19"/><linearGradient id="linear-gradient-71" x1="5007.91" y1="34.18" x2="5128.06" y2="34.18" gradientTransform="matrix(-0.29, 0, 0, 1, 1737.48, 0)" xlink:href="#linear-gradient-20"/><linearGradient id="linear-gradient-72" x1="5571.49" y1="34.18" x2="5710.14" y2="34.18" gradientTransform="matrix(-0.25, 0, 0, 1, 1684.83, 0)" xlink:href="#linear-gradient-21"/><linearGradient id="linear-gradient-73" x1="6340.03" y1="34.18" x2="6503.88" y2="34.18" gradientTransform="matrix(-0.22, 0, 0, 1, 1632.18, 0)" xlink:href="#linear-gradient-22"/><linearGradient id="linear-gradient-74" x1="7450.04" y1="34.18" x2="7650.32" y2="34.18" gradientTransform="matrix(-0.18, 0, 0, 1, 1579.53, 0)" xlink:href="#linear-gradient-23"/><linearGradient id="linear-gradient-75" x1="9194.46" y1="34.18" x2="9451.97" y2="34.18" gradientTransform="matrix(-0.14, 0, 0, 1, 1526.88, 0)" xlink:href="#linear-gradient-24"/><linearGradient id="linear-gradient-76" x1="12334.45" y1="34.18" x2="12694.97" y2="34.18" gradientTransform="matrix(-0.1, 0, 0, 1, 1474.23, 0)" xlink:href="#linear-gradient-25"/><linearGradient id="linear-gradient-77" x1="19661.12" y1="34.18" x2="20262.03" y2="34.18" gradientTransform="matrix(-0.06, 0, 0, 1, 1421.58, 0)" xlink:href="#linear-gradient-26"/><linearGradient id="linear-gradient-78" x1="56292.7" y1="34.18" x2="58095.49" y2="34.18" gradientTransform="matrix(-0.02, 0, 0, 1, 1368.92, 0)" xlink:href="#linear-gradient-27"/><linearGradient id="linear-gradient-79" x1="-55406.39" y1="34.18" x2="-53603.5" y2="34.18" gradientTransform="translate(1316.28) scale(0.02 1)" xlink:href="#linear-gradient-28"/><linearGradient id="linear-gradient-80" x1="-17572.41" y1="34.18" x2="-16971.42" y2="34.18" gradientTransform="translate(1263.63) scale(0.06 1)" xlink:href="#linear-gradient-29"/><linearGradient id="linear-gradient-81" x1="-10005.63" y1="34.18" x2="-9645.03" y2="34.18" gradientTransform="translate(1210.97) scale(0.1 1)" xlink:href="#linear-gradient-30"/><linearGradient id="linear-gradient-82" x1="-6762.7" y1="34.18" x2="-6505.1" y2="34.18" gradientTransform="translate(1158.32) scale(0.14 1)" xlink:href="#linear-gradient-31"/><linearGradient id="linear-gradient-83" x1="-4961.07" y1="34.18" x2="-4760.71" y2="34.18" gradientTransform="translate(1105.67) scale(0.18 1)" xlink:href="#linear-gradient-32"/><linearGradient id="linear-gradient-84" x1="-3814.57" y1="34.18" x2="-3650.63" y2="34.18" gradientTransform="translate(1053.02) scale(0.22 1)" xlink:href="#linear-gradient-33"/><linearGradient id="linear-gradient-85" x1="-3020.85" y1="34.18" x2="-2882.12" y2="34.18" gradientTransform="translate(1000.37) scale(0.25 1)" xlink:href="#linear-gradient-34"/><linearGradient id="linear-gradient-86" x1="-2438.79" y1="34.18" x2="-2318.56" y2="34.18" gradientTransform="translate(947.72) scale(0.29 1)" xlink:href="#linear-gradient-35"/><linearGradient id="linear-gradient-87" x1="-1993.67" y1="34.18" x2="-1887.57" y2="34.18" gradientTransform="translate(895.06) scale(0.33 1)" xlink:href="#linear-gradient-36"/><linearGradient id="linear-gradient-88" x1="-1642.27" y1="34.18" x2="-1547.34" y2="34.18" gradientTransform="translate(842.41) scale(0.37 1)" xlink:href="#linear-gradient-37"/><linearGradient id="linear-gradient-89" x1="-1357.81" y1="34.18" x2="-1271.92" y2="34.18" gradientTransform="translate(789.77) scale(0.41 1)" xlink:href="#linear-gradient-38"/><linearGradient id="linear-gradient-90" x1="-1122.8" y1="34.18" x2="-1044.37" y2="34.18" gradientTransform="translate(737.11) scale(0.45 1)" xlink:href="#linear-gradient-39"/><linearGradient id="linear-gradient-91" x1="-925.41" y1="34.18" x2="-853.25" y2="34.18" gradientTransform="translate(684.46) scale(0.49 1)" xlink:href="#linear-gradient-40"/><linearGradient id="linear-gradient-92" x1="-757.26" y1="34.18" x2="-690.45" y2="34.18" gradientTransform="translate(631.81) scale(0.53 1)" xlink:href="#linear-gradient-41"/><linearGradient id="linear-gradient-93" x1="-612.29" y1="34.18" x2="-550.08" y2="34.18" gradientTransform="translate(579.16) scale(0.57 1)" xlink:href="#linear-gradient-42"/><linearGradient id="linear-gradient-94" x1="-486.04" y1="34.18" x2="-427.85" y2="34.18" gradientTransform="translate(526.51) scale(0.61 1)" xlink:href="#linear-gradient-43"/><linearGradient id="linear-gradient-95" x1="-375.1" y1="34.18" x2="-320.42" y2="34.18" gradientTransform="translate(473.86) scale(0.65 1)" xlink:href="#linear-gradient-44"/><linearGradient id="linear-gradient-96" x1="-276.83" y1="34.18" x2="-225.28" y2="34.18" gradientTransform="translate(421.21) scale(0.69 1)" xlink:href="#linear-gradient-45"/><linearGradient id="linear-gradient-97" x1="-189.17" y1="34.18" x2="-140.41" y2="34.18" gradientTransform="translate(368.56) scale(0.73 1)" xlink:href="#linear-gradient-46"/><linearGradient id="linear-gradient-98" x1="-110.52" y1="34.18" x2="-64.25" y2="34.18" gradientTransform="translate(315.91) scale(0.76 1)" xlink:href="#linear-gradient-47"/><linearGradient id="linear-gradient-99" x1="-39.54" y1="34.18" x2="4.47" y2="34.18" gradientTransform="translate(263.26) scale(0.8 1)" xlink:href="#linear-gradient-48"/><linearGradient id="linear-gradient-100" x1="24.85" y1="34.18" x2="66.82" y2="34.18" gradientTransform="translate(210.6) scale(0.84 1)" xlink:href="#linear-gradient-49"/><linearGradient id="linear-gradient-101" x1="83.5" y1="34.18" x2="123.61" y2="34.18" gradientTransform="translate(157.95) scale(0.88 1)" xlink:href="#linear-gradient-50"/><linearGradient id="linear-gradient-102" x1="137.17" y1="34.18" x2="175.57" y2="34.18" gradientTransform="translate(105.3) scale(0.92 1)" xlink:href="#linear-gradient-51"/><linearGradient id="linear-gradient-103" x1="186.46" y1="34.18" x2="223.29" y2="34.18" gradientTransform="translate(52.65) scale(0.96 1)" xlink:href="#linear-gradient-52"/><radialGradient id="radial-gradient" cx="250.39" cy="34.18" r="27.67" gradientUnits="userSpaceOnUse"><stop offset="0" stop-color="#fff"/><stop offset="0.57" stop-color="#fafafa"/><stop offset="1" stop-color="#f2f2f2"/></radialGradient></defs><title>Ресурс 25elements</title><g id="Слой_2" data-name="Слой 2"><g id="Layer_1" data-name="Layer 1"><path class="cls-1" d="M0,62.74a5.47,5.47,0,0,0,5.31,5.62H271.45a5.47,5.47,0,0,0,5.3-5.62V5.83a5.47,5.47,0,0,0-5.3-5.62H5.31A5.47,5.47,0,0,0,0,5.83Z"/><path class="cls-2" d="M5.31,2H271.45a5.3,5.3,0,0,1,5.3,5.3V61a5.3,5.3,0,0,1-5.3,5.3H5.3A5.3,5.3,0,0,1,0,61V7.31A5.31,5.31,0,0,1,5.31,2Z"/><path class="cls-3" d="M36.77,32.52,13.67,66.39h8.47l26.55-33a1.44,1.44,0,0,0,0-1.74L24.31,2H15.72Z"/><path class="cls-4" d="M36.69,32.53,13.58,66.39H22.1l26.5-33a1.44,1.44,0,0,0,0-1.73L24.28,2H15.63Z"/><path class="cls-5" d="M36.62,32.53,13.5,66.39h8.57l26.45-33a1.43,1.43,0,0,0,0-1.73L24.25,2h-8.7Z"/><path class="cls-6" d="M36.55,32.53,13.42,66.39H22l26.4-33a1.43,1.43,0,0,0,0-1.72L24.22,2H15.47Z"/><path class="cls-7" d="M36.47,32.53,13.34,66.39H22l26.35-33a1.43,1.43,0,0,0,0-1.72L24.19,2H15.39Z"/><path class="cls-8" d="M36.4,32.53,13.26,66.39H22l26.3-33a1.42,1.42,0,0,0,0-1.71L24.17,2H15.31Z"/><path class="cls-9" d="M36.33,32.53,13.17,66.39H22l26.25-33a1.42,1.42,0,0,0,0-1.71L24.14,2H15.22Z"/><path class="cls-10" d="M36.25,32.53,13.09,66.39h8.83l26.2-33a1.42,1.42,0,0,0,0-1.71L24.11,2h-9Z"/><path class="cls-11" d="M36.18,32.53,13,66.39h8.88L48,33.38a1.42,1.42,0,0,0,0-1.7L24.08,2h-9Z"/><path class="cls-12" d="M36.1,32.53,12.93,66.39h8.93L48,33.37a1.41,1.41,0,0,0,0-1.7L24.06,2H15Z"/><path class="cls-13" d="M36,32.53,12.85,66.39h9l26.06-33a1.41,1.41,0,0,0,0-1.69L24,2H14.9Z"/><path class="cls-14" d="M36,32.53,12.77,66.39h9l26-33a1.41,1.41,0,0,0,0-1.69L24,2H14.81Z"/><path class="cls-15" d="M35.88,32.53,12.68,66.39h9.09l26-33a1.41,1.41,0,0,0,0-1.68L24,2H14.73Z"/><path class="cls-16" d="M35.81,32.53,12.6,66.39h9.14l25.91-33a1.41,1.41,0,0,0,0-1.68L23.94,2H14.65Z"/><path class="cls-17" d="M35.74,32.53,12.52,66.39h9.19l25.86-33a1.41,1.41,0,0,0,0-1.67L23.92,2H14.57Z"/><path class="cls-18" d="M35.66,32.53,12.44,66.39h9.24l25.82-33a1.4,1.4,0,0,0,0-1.67L23.89,2h-9.4Z"/><path class="cls-19" d="M35.59,32.53,12.36,66.39h9.29l25.77-33a1.4,1.4,0,0,0,0-1.66L23.86,2H14.41Z"/><path class="cls-20" d="M35.51,32.53,12.27,66.39h9.35l25.72-33a1.4,1.4,0,0,0,0-1.66L23.83,2H14.32Z"/><path class="cls-21" d="M35.44,32.53,12.19,66.39h9.4l25.67-33a1.4,1.4,0,0,0,0-1.65L23.8,2H14.24Z"/><path class="cls-22" d="M35.37,32.54,12.11,66.39h9.45l25.62-33a1.39,1.39,0,0,0,0-1.65L23.78,2H14.16Z"/><path class="cls-23" d="M35.29,32.54,12,66.39h9.5l25.57-33a1.39,1.39,0,0,0,0-1.65L23.75,2H14.08Z"/><path class="cls-24" d="M35.22,32.54,11.95,66.39H21.5L47,33.35a1.39,1.39,0,0,0,0-1.64L23.72,2H14Z"/><path class="cls-25" d="M35.15,32.54,11.86,66.39h9.6l25.47-33a1.39,1.39,0,0,0,0-1.64L23.69,2H13.91Z"/><path class="cls-26" d="M35.07,32.54,11.78,66.39h9.65l25.42-33a1.39,1.39,0,0,0,0-1.63L23.66,2H13.83Z"/><path class="cls-27" d="M35,32.54,11.7,66.39h9.71l25.38-33a1.38,1.38,0,0,0,0-1.63L23.64,2H13.75Z"/><path class="cls-28" d="M34.93,32.54,11.62,66.39h9.76L46.7,33.34a1.38,1.38,0,0,0,0-1.62L23.61,2H13.67Z"/><path class="cls-29" d="M34.85,32.54,11.54,66.39h9.81L46.62,33.34a1.38,1.38,0,0,0,0-1.62L23.58,2h-10Z"/><path class="cls-30" d="M34.78,32.54,11.46,66.39h9.86L46.54,33.33a1.38,1.38,0,0,0,0-1.61L23.55,2h-10Z"/><path class="cls-31" d="M34.7,32.54,11.37,66.39h9.91L46.47,33.33a1.38,1.38,0,0,0,0-1.61L23.52,2H13.42Z"/><path class="cls-32" d="M34.63,32.54,11.29,66.39h10L46.39,33.33a1.37,1.37,0,0,0,0-1.61L23.5,2H13.34Z"/><path class="cls-33" d="M34.56,32.54,11.21,66.39h10L46.31,33.33a1.37,1.37,0,0,0,0-1.6L23.47,2H13.26Z"/><path class="cls-34" d="M34.48,32.54,11.13,66.39H21.19l25-33.06a1.37,1.37,0,0,0,0-1.6L23.44,2H13.18Z"/><path class="cls-35" d="M34.41,32.54,11,66.39H21.16l25-33.07a1.37,1.37,0,0,0,0-1.59L23.41,2H13.1Z"/><path class="cls-36" d="M34.34,32.54,11,66.39H21.13L46.07,33.32a1.37,1.37,0,0,0,0-1.59L23.38,2H13Z"/><path class="cls-37" d="M34.26,32.54,10.88,66.39H21.1L46,33.32a1.36,1.36,0,0,0,0-1.58L23.36,2H12.93Z"/><path class="cls-38" d="M34.19,32.54,10.8,66.39H21.07L45.91,33.31a1.36,1.36,0,0,0,0-1.58L23.33,2H12.85Z"/><path class="cls-39" d="M34.12,32.55,10.72,66.39H21L45.83,33.31a1.36,1.36,0,0,0,0-1.57L23.3,2H12.77Z"/><path class="cls-40" d="M34,32.55,10.64,66.39H21L45.75,33.31a1.36,1.36,0,0,0,0-1.57L23.27,2H12.69Z"/><path class="cls-41" d="M34,32.55,10.55,66.39H21L45.67,33.31a1.36,1.36,0,0,0,0-1.56L23.24,2H12.6Z"/><path class="cls-42" d="M33.89,32.55,10.47,66.39H21L45.6,33.31a1.36,1.36,0,0,0,0-1.56L23.22,2H12.52Z"/><path class="cls-43" d="M33.82,32.55,10.39,66.39H20.92L45.52,33.3a1.35,1.35,0,0,0,0-1.56L23.19,2H12.44Z"/><path class="cls-44" d="M33.75,32.55,10.31,66.39H20.89L45.44,33.3a1.35,1.35,0,0,0,0-1.55L23.16,2H12.36Z"/><path class="cls-45" d="M33.67,32.55,10.23,66.39H20.86L45.36,33.3a1.35,1.35,0,0,0,0-1.55L23.13,2H12.28Z"/><path class="cls-46" d="M33.6,32.55,10.15,66.39H20.83L45.28,33.3a1.35,1.35,0,0,0,0-1.54L23.1,2H12.2Z"/><path class="cls-47" d="M33.53,32.55,10.06,66.39H20.8L45.2,33.29a1.35,1.35,0,0,0,0-1.54L23.08,2h-11Z"/><path class="cls-48" d="M33.45,32.55,10,66.39H20.77l24.35-33.1a1.34,1.34,0,0,0,0-1.53L23,2H12Z"/><path class="cls-49" d="M33.38,32.55,9.9,66.39H20.74L45,33.29a1.34,1.34,0,0,0,0-1.53L23,2H11.95Z"/><path class="cls-50" d="M33.31,32.55,9.82,66.39H20.71L45,33.29a1.34,1.34,0,0,0,0-1.52L23,2H11.87Z"/><path class="cls-51" d="M33.23,32.55,9.74,66.39H20.68l24.21-33.1a1.34,1.34,0,0,0,0-1.52L23,2H11.79Z"/><path class="cls-52" d="M33.16,32.55,9.65,66.39h11L44.8,33.28a1.34,1.34,0,0,0,0-1.52L22.94,2H11.7Z"/><path class="cls-53" d="M33.08,32.55,9.57,66.39h11L44.73,33.28a1.33,1.33,0,0,0,0-1.51L22.91,2H11.62Z"/><path class="cls-54" d="M33,32.55,9.49,66.39h11.1L44.65,33.28a1.33,1.33,0,0,0,0-1.51L22.88,2H11.54Z"/><polygon class="cls-55" points="32.18 32.43 7.33 68.37 20.55 68.37 45.4 32.43 22.75 0 9.53 0 32.18 32.43"/><path class="cls-56" d="M240,32.52l23.1,33.86h-8.47l-26.55-33a1.43,1.43,0,0,1,0-1.74L252.45,2H261Z"/><path class="cls-57" d="M240.06,32.53l23.11,33.86h-8.52l-26.5-33a1.43,1.43,0,0,1,0-1.73L252.48,2h8.64Z"/><path class="cls-58" d="M240.13,32.53l23.12,33.86h-8.57l-26.45-33a1.43,1.43,0,0,1,0-1.73L252.5,2h8.7Z"/><path class="cls-59" d="M240.21,32.53l23.13,33.86h-8.62l-26.4-33a1.42,1.42,0,0,1,0-1.72L252.53,2h8.75Z"/><path class="cls-60" d="M240.28,32.53l23.13,33.86h-8.68l-26.35-33a1.42,1.42,0,0,1,0-1.72L252.56,2h8.8Z"/><path class="cls-61" d="M240.36,32.53,263.5,66.39h-8.73l-26.3-33a1.42,1.42,0,0,1,0-1.71L252.59,2h8.86Z"/><path class="cls-62" d="M240.43,32.53l23.15,33.86H254.8l-26.25-33a1.42,1.42,0,0,1,0-1.71L252.62,2h8.91Z"/><path class="cls-63" d="M240.5,32.53l23.16,33.86h-8.83l-26.2-33a1.41,1.41,0,0,1,0-1.71l24-29.7h9Z"/><path class="cls-64" d="M240.58,32.53l23.17,33.86h-8.88l-26.16-33a1.41,1.41,0,0,1,0-1.7l24-29.7h9Z"/><path class="cls-65" d="M240.65,32.53l23.18,33.86h-8.93l-26.11-33a1.41,1.41,0,0,1,0-1.7L252.7,2h9.07Z"/><path class="cls-66" d="M240.72,32.53l23.18,33.86h-9l-26.06-33a1.41,1.41,0,0,1,0-1.69L252.73,2h9.13Z"/><path class="cls-67" d="M240.8,32.53,264,66.39h-9l-26-33a1.41,1.41,0,0,1,0-1.69L252.76,2h9.18Z"/><path class="cls-68" d="M240.87,32.53l23.2,33.86H255l-26-33a1.4,1.4,0,0,1,0-1.68L252.78,2H262Z"/><path class="cls-69" d="M240.94,32.53l23.21,33.86H255l-25.91-33a1.4,1.4,0,0,1,0-1.68L252.81,2h9.29Z"/><path class="cls-70" d="M241,32.53l23.22,33.86H255l-25.86-33a1.4,1.4,0,0,1,0-1.67L252.84,2h9.34Z"/><path class="cls-71" d="M241.09,32.53l23.22,33.85h-9.24l-25.81-33a1.4,1.4,0,0,1,0-1.67L252.87,2h9.4Z"/><path class="cls-72" d="M241.17,32.53,264.4,66.39H255.1l-25.77-33a1.4,1.4,0,0,1,0-1.66L252.9,2h9.45Z"/><path class="cls-73" d="M241.24,32.53l23.24,33.85h-9.35l-25.72-33a1.39,1.39,0,0,1,0-1.66L252.92,2h9.51Z"/><path class="cls-74" d="M241.31,32.53l23.25,33.85h-9.4l-25.67-33a1.39,1.39,0,0,1,0-1.65L253,2h9.56Z"/><path class="cls-75" d="M241.39,32.54l23.26,33.85H255.2l-25.62-33a1.39,1.39,0,0,1,0-1.65L253,2h9.61Z"/><path class="cls-76" d="M241.46,32.54l23.27,33.85h-9.5l-25.57-33a1.39,1.39,0,0,1,0-1.65L253,2h9.67Z"/><path class="cls-77" d="M241.53,32.54l23.27,33.85h-9.55l-25.52-33a1.38,1.38,0,0,1,0-1.64L253,2h9.72Z"/><path class="cls-78" d="M241.61,32.54l23.28,33.85h-9.6l-25.47-33a1.38,1.38,0,0,1,0-1.64L253.06,2h9.78Z"/><path class="cls-79" d="M241.68,32.54,265,66.39h-9.65l-25.42-33a1.38,1.38,0,0,1,0-1.63L253.09,2h9.83Z"/><path class="cls-80" d="M241.75,32.54l23.3,33.85h-9.71L230,33.34a1.38,1.38,0,0,1,0-1.63L253.12,2H263Z"/><path class="cls-81" d="M241.83,32.54l23.31,33.85h-9.76L230.05,33.34a1.38,1.38,0,0,1,0-1.62L253.15,2h9.94Z"/><path class="cls-82" d="M241.9,32.54l23.32,33.85h-9.81L230.13,33.34a1.38,1.38,0,0,1,0-1.62L253.18,2h10Z"/><path class="cls-83" d="M242,32.54,265.3,66.39h-9.86L230.21,33.33a1.37,1.37,0,0,1,0-1.61L253.2,2h10Z"/><path class="cls-84" d="M242,32.54l23.33,33.85h-9.91L230.29,33.33a1.37,1.37,0,0,1,0-1.61L253.23,2h10.1Z"/><path class="cls-85" d="M242.12,32.54l23.34,33.85h-10L230.37,33.33a1.37,1.37,0,0,1,0-1.61L253.26,2h10.15Z"/><path class="cls-86" d="M242.2,32.54l23.35,33.85h-10L230.45,33.33a1.37,1.37,0,0,1,0-1.6L253.29,2h10.21Z"/><path class="cls-87" d="M242.27,32.54l23.36,33.85H255.56l-25-33.06a1.36,1.36,0,0,1,0-1.6L253.31,2h10.26Z"/><path class="cls-88" d="M242.34,32.54l23.36,33.85H255.59l-25-33.07a1.36,1.36,0,0,1,0-1.59L253.34,2h10.32Z"/><path class="cls-89" d="M242.42,32.54l23.37,33.84H255.62L230.68,33.32a1.36,1.36,0,0,1,0-1.59L253.37,2h10.37Z"/><path class="cls-90" d="M242.49,32.54l23.38,33.84H255.65L230.76,33.32a1.36,1.36,0,0,1,0-1.58L253.4,2h10.42Z"/><path class="cls-91" d="M242.57,32.54,266,66.39H255.68L230.84,33.31a1.36,1.36,0,0,1,0-1.58L253.43,2H263.9Z"/><path class="cls-92" d="M242.64,32.55,266,66.39H255.71L230.92,33.31a1.35,1.35,0,0,1,0-1.57L253.46,2H264Z"/><path class="cls-93" d="M242.71,32.55l23.41,33.84H255.74L231,33.31a1.35,1.35,0,0,1,0-1.57L253.48,2h10.58Z"/><path class="cls-94" d="M242.79,32.55,266.2,66.39H255.77L231.08,33.31a1.35,1.35,0,0,1,0-1.56L253.51,2h10.64Z"/><path class="cls-95" d="M242.86,32.55l23.42,33.84H255.8L231.16,33.31a1.35,1.35,0,0,1,0-1.56L253.54,2h10.69Z"/><path class="cls-96" d="M242.93,32.55l23.43,33.84H255.83L231.24,33.3a1.35,1.35,0,0,1,0-1.56L253.57,2h10.75Z"/><path class="cls-97" d="M243,32.55l23.44,33.84H255.86L231.32,33.3a1.34,1.34,0,0,1,0-1.55L253.59,2h10.8Z"/><path class="cls-98" d="M243.08,32.55l23.45,33.84H255.89L231.4,33.3a1.34,1.34,0,0,1,0-1.55L253.62,2h10.85Z"/><path class="cls-99" d="M243.15,32.55l23.45,33.84H255.92L231.48,33.3a1.34,1.34,0,0,1,0-1.54L253.65,2h10.91Z"/><path class="cls-100" d="M243.23,32.55l23.46,33.84H256l-24.4-33.09a1.34,1.34,0,0,1,0-1.54L253.68,2h11Z"/><path class="cls-101" d="M243.3,32.55l23.47,33.84H256l-24.35-33.1a1.34,1.34,0,0,1,0-1.53L253.71,2h11Z"/><path class="cls-102" d="M243.38,32.55l23.48,33.84H256l-24.3-33.1a1.33,1.33,0,0,1,0-1.53L253.73,2H264.8Z"/><path class="cls-103" d="M243.45,32.55l23.49,33.84H256l-24.25-33.1a1.33,1.33,0,0,1,0-1.52L253.76,2h11.12Z"/><path class="cls-104" d="M243.52,32.55,267,66.39H256.08l-24.21-33.1a1.33,1.33,0,0,1,0-1.52L253.79,2H265Z"/><path class="cls-105" d="M243.6,32.55l23.5,33.84h-11L232,33.28a1.33,1.33,0,0,1,0-1.52L253.82,2h11.23Z"/><path class="cls-106" d="M243.67,32.55l23.51,33.84h-11L232,33.28a1.33,1.33,0,0,1,0-1.51L253.85,2h11.29Z"/><path class="cls-54" d="M243.74,32.55l23.52,33.83h-11.1L232.11,33.28a1.33,1.33,0,0,1,0-1.51L253.87,2h11.34Z"/><polygon class="cls-107" points="244.57 32.43 269.43 68.37 256.21 68.37 231.35 32.43 254.01 0 267.23 0 244.57 32.43"/></g></g></svg>