<svg xmlns="http://www.w3.org/2000/svg" xmlns:xlink="http://www.w3.org/1999/xlink" viewBox="0 0 239.67 209"><defs><style>.cls-1{isolation:isolate;}.cls-10,.cls-2,.cls-3,.cls-6{mix-blend-mode:multiply;}.cls-2{fill:url(#radial-gradient);}.cls-3{fill:url(#radial-gradient-2);}.cls-4{fill:#845225;}.cls-5{fill:#492b10;}.cls-6{opacity:0.5;}.cls-7{fill:#323232;}.cls-8{fill:#e87c98;}.cls-15,.cls-16,.cls-17,.cls-9{fill:#f2f2f2;}.cls-9{opacity:0.3;}.cls-15,.cls-9{mix-blend-mode:screen;}.cls-10{fill:#7b7b7b;opacity:0.4;}.cls-11{fill:#712c40;}.cls-12{fill:#36111c;}.cls-13{fill:#bfbfbf;}.cls-14{fill:#d2cfff;}.cls-15,.cls-16{opacity:0.6;}</style><radialGradient id="radial-gradient" cx="117.23" cy="542.62" r="116.83" gradientTransform="translate(-0.41 -208.7) scale(1.03 0.63)" gradientUnits="userSpaceOnUse"><stop offset="0"/><stop offset="0.2" stop-color="#4c4c4c"/><stop offset="0.4" stop-color="#8c8c8c"/><stop offset="0.57" stop-color="#bdbdbd"/><stop offset="0.72" stop-color="#e1e1e1"/><stop offset="0.84" stop-color="#f7f7f7"/><stop offset="0.92" stop-color="#fff"/></radialGradient><radialGradient id="radial-gradient-2" cx="118.2" cy="2082.18" r="66.13" gradientTransform="translate(-0.41 -734.68) scale(1.03 0.42)" xlink:href="#radial-gradient"/></defs><title>Ресурс 5</title><g class="cls-1"><g id="Слой_2" data-name="Слой 2"><g id="elements"><ellipse class="cls-2" cx="119.83" cy="135" rx="119.83" ry="74"/><ellipse class="cls-3" cx="120.83" cy="149.62" rx="67.83" ry="28.09"/><path class="cls-4" d="M119.17,14c-47.22,0-85.5,28.43-85.5,63.5S71.95,141,119.17,141s85.5-28.43,85.5-63.5S166.39,14,119.17,14Zm0,86.15c-16.84,0-30.5-10.14-30.5-22.65s13.66-22.65,30.5-22.65S149.67,65,149.67,77.5,136,100.15,119.17,100.15Z"/><path class="cls-5" d="M204.67,67.5c0-.18,0-.36,0-.54,0-.49,0-1,0-1.46,0-35.07-38.28-63.5-85.5-63.5s-85.5,28.43-85.5,63.5c0,.59,0,1.17.06,1.75l-.06.25c-.83,3.77-2.92,13.2,2,20.5a12.44,12.44,0,0,0,4,3.84,17.57,17.57,0,0,1,4.64,4.35,64.52,64.52,0,0,0,5.33,6.25,17.71,17.71,0,0,1,4.24,7.07c1.21,3.93,2.18,7.51,5.78,10.49,4.7,3.9,9,2.68,15.6,2a17.27,17.27,0,0,1,7.38.88A106.2,106.2,0,0,0,101,127.54a17.23,17.23,0,0,1,7.29,3c3.69,2.64,6.53,4.74,12.41,4.46s10.1-2.73,14.07-5.44a17.31,17.31,0,0,1,6.39-2.69,106.14,106.14,0,0,0,11.59-3,16.57,16.57,0,0,1,10.33.08,6.91,6.91,0,0,0,5.62,0c3.09-1.35,4.65-4.05,6-7.21a16.26,16.26,0,0,1,5.25-6.61,73.38,73.38,0,0,0,8.75-7.71,15.93,15.93,0,0,1,4.47-3.19l.53-.28C205.7,92.35,204.74,69,204.67,67.5Zm-55-2c0,12.51-13.66,22.65-30.5,22.65C103.75,88.15,91,79.66,89,68.63a15,15,0,0,1,.1-5.91A12.47,12.47,0,0,1,93.67,55c3.24-2.26,5.22-.34,11-2,7.4-2.12,7.36-6.18,14.5-8.15,1.72-.48,9-2.49,13.5,1.15,3.7,3,1.87,6.87,6,10,3.49,2.65,6.45,1.14,9,4a8.65,8.65,0,0,1,2,5.09C149.66,65.23,149.67,65.36,149.67,65.5Z"/><g class="cls-6"><path class="cls-7" d="M204.67,77.5c0-34.53-37.12-62.61-83.34-63.46q-3.62.09-7.16.41c42.51,3.68,75.5,30.5,75.5,63.05s-33,59.37-75.5,63.05q3.54.31,7.16.41C167.55,140.11,204.67,112,204.67,77.5Z"/></g><g class="cls-6"><path class="cls-7" d="M88.67,77.5c0-10.58,9.77-19.47,23-22a40.45,40.45,0,0,0-7.48-.7c-16.84,0-30.5,10.14-30.5,22.65s13.66,22.65,30.5,22.65a40.45,40.45,0,0,0,7.48-.7C98.44,97,88.67,88.08,88.67,77.5Z"/></g><path class="cls-8" d="M204.67,65.5c0-.18,0-.36,0-.54,0-.49,0-1,0-1.46,0-35.07-38.28-63.5-85.5-63.5s-85.5,28.43-85.5,63.5c0,.59,0,1.17.06,1.75l-.06.25c-.83,3.77-2.92,13.2,2,20.5a12.44,12.44,0,0,0,4,3.84,17.57,17.57,0,0,1,4.64,4.35,64.52,64.52,0,0,0,5.33,6.25,17.71,17.71,0,0,1,4.24,7.07c1.21,3.93,2.18,7.51,5.78,10.49,4.7,3.9,9,2.68,15.6,2a17.27,17.27,0,0,1,7.38.88A106.2,106.2,0,0,0,101,125.54a17.23,17.23,0,0,1,7.29,3c3.69,2.64,6.53,4.74,12.41,4.46s10.1-2.73,14.07-5.44a17.31,17.31,0,0,1,6.39-2.69,106.14,106.14,0,0,0,11.59-3,16.57,16.57,0,0,1,10.33.08,6.91,6.91,0,0,0,5.62,0c3.09-1.35,4.65-4.05,6-7.21a16.26,16.26,0,0,1,5.25-6.61,73.38,73.38,0,0,0,8.75-7.71,15.93,15.93,0,0,1,4.47-3.19l.53-.28C205.7,90.35,204.74,67,204.67,65.5Zm-55-2c0,12.51-13.66,22.65-30.5,22.65C103.75,86.15,91,77.66,89,66.63a15,15,0,0,1,.1-5.91A12.47,12.47,0,0,1,93.67,53c3.24-2.26,5.22-.34,11-2,7.4-2.12,7.36-6.18,14.5-8.15,1.72-.48,9-2.49,13.5,1.15,3.7,3,1.87,6.87,6,10,3.49,2.65,6.45,1.14,9,4a8.65,8.65,0,0,1,2,5.09C149.66,63.23,149.67,63.36,149.67,63.5Z"/><path class="cls-9" d="M64,19.67c-1.1.74-26.75,18.57-24.33,45.17C42,90,68.32,110.91,82.67,107c1.54-.42,4.81-1.31,6-4,4.33-9.78-28.22-22.18-31-45C55.05,36.58,80,17.24,76.67,14,75.14,12.53,69.44,15.9,64,19.67Z"/><path class="cls-9" d="M149.6,45.86c1.83,2,8.64,10.3,7.07,19.14-2.16,12.16-18.52,16.24-16.85,23.27a6.6,6.6,0,0,0,4.65,4.45c8.17,2.11,24.71-13.61,24.87-31.08.14-15.73-13-30.56-25.67-31.63-5.65-.48-11.8,1.74-12,4C131.4,37,141.91,37.27,149.6,45.86Z"/><path class="cls-9" d="M59.67,25c-7.56,5.54-14.28,12.8-14.28,31.72C45.38,82.37,62.25,97,73.92,97c1.2,0,2-1.53,2-2.92,0,0-20.69-16.47-20.69-41.41A45.64,45.64,0,0,1,69.17,19.75C65.42,20.5,62.69,22.78,59.67,25Z"/><path class="cls-9" d="M138.17,34.25a29.1,29.1,0,0,1,20.33,26A28.93,28.93,0,0,1,144.67,86a21.85,21.85,0,0,0,13-5c9.19-8,6.9-21.7,6.39-24.72-.57-3.39-1.61-9.17-6.39-14.28C150.34,34.17,140.11,34.21,138.17,34.25Z"/><path class="cls-10" d="M97.87,83C93.06,83,85.2,75.48,85.2,66.64a15.87,15.87,0,0,1,1.72-7.14,1.3,1.3,0,0,1,.83-.6.17.17,0,0,1,.17.1q.51,1.11,1.07,2.16c0-.15,0-.3.07-.45A12.47,12.47,0,0,1,93.67,53l.17-.1c-.26-3.25-1.32-5.24-5.18-5.24a5.72,5.72,0,0,0-4.48,2.09A27.37,27.37,0,0,0,77.56,67c0,12.91,11.2,22.74,24.82,22.74,4.42,0,8.08-.67,9.15-4.27a35.82,35.82,0,0,1-10.37-3.65A4.68,4.68,0,0,1,97.87,83Z"/><path class="cls-10" d="M182.67,52c-.1,9.55-6.5,34.8-6.64,43.71a6.85,6.85,0,0,0,1.18,4.26c1.28,1.72,3.83,2.88,8.65,2.88l.41,0c.82-.77,1.62-1.55,2.4-2.35a15.93,15.93,0,0,1,4.47-3.19l.53-.28a16.09,16.09,0,0,0,5.79-5.73,10.21,10.21,0,0,1-2.87.45c-4.87,0-8.93-3.52-8.93-5.53a102.86,102.86,0,0,0,3.44-25.6c0-8.61-1.47-31.84-16.38-41.83-7.28-4.88-14.45-4.31-21-12.75L153,5.19a106,106,0,0,0-11.46-3C139.33,8.61,182.94,26.47,182.67,52Z"/><path class="cls-10" d="M87.74,58.9a1.3,1.3,0,0,0-.83.6,15.87,15.87,0,0,0-1.72,7.14C85.2,75.48,93.06,83,97.87,83a4.68,4.68,0,0,0,3.29-1.21c-6.5-3.54-11-8.95-12.2-15.16a15,15,0,0,1,0-5.46q-.55-1.06-1.07-2.16A.17.17,0,0,0,87.74,58.9Z"/><path class="cls-10" d="M87.74,58.9a1.3,1.3,0,0,0-.83.6,15.87,15.87,0,0,0-1.72,7.14C85.2,75.48,93.06,83,97.87,83a4.68,4.68,0,0,0,3.29-1.21c-6.5-3.54-11-8.95-12.2-15.16a15,15,0,0,1,0-5.46q-.55-1.06-1.07-2.16A.17.17,0,0,0,87.74,58.9Z"/><path class="cls-10" d="M174.7,18.75c14.92,10,16.38,33.22,16.38,41.83a102.86,102.86,0,0,1-3.44,25.6c0,2,4.06,5.53,8.93,5.53a10.21,10.21,0,0,0,2.87-.45c5.89-9.44,5.28-24.6,5.21-25.77,0-.18,0-.36,0-.54,0-.49,0-1,0-1.46,0-26.13-21.26-48.57-51.63-58.31l.63.81C160.25,14.44,167.42,13.87,174.7,18.75Z"/><path class="cls-10" d="M174.7,18.75c14.92,10,16.38,33.22,16.38,41.83a102.86,102.86,0,0,1-3.44,25.6c0,2,4.06,5.53,8.93,5.53a10.21,10.21,0,0,0,2.87-.45c5.89-9.44,5.28-24.6,5.21-25.77,0-.18,0-.36,0-.54,0-.49,0-1,0-1.46,0-26.13-21.26-48.57-51.63-58.31l.63.81C160.25,14.44,167.42,13.87,174.7,18.75Z"/><g class="cls-6"><path class="cls-7" d="M156.05,29.37A181.61,181.61,0,0,0,144.8,45.13a2.78,2.78,0,0,0,.48,3.6l0,0a2.81,2.81,0,0,0,4.2-.53,150.23,150.23,0,0,1,16.18-20.81c1.51-1.58,3.08-3.11,4.71-4.57.82-.73,2.22-2.45,3.31-2.76,2.6-.76,2.42,1.26,1.82,3.64-1.39,5.54-4.19,10.78-7,15.7C163.32,48.5,157.4,57.1,152.43,66.3c-.2.36-.4.72-.6,1.09-1.51,2.85-3,5.76-4.32,8.71A112.09,112.09,0,0,0,139,101.32c-.71,3.61-1.42,8,2.32,10.26s7.64-.08,10.56-2.4c8.78-7,14-18,20-27.16Q182.85,65.4,195,49.66c2.36-3.06-2.85-6-5.18-3q-10.41,13.5-20,27.63c-5.72,8.5-10.54,18.09-17.24,25.86a27.29,27.29,0,0,1-5.62,5.26c-3.45,2.21-2.3-2.15-1.84-4.22a105.07,105.07,0,0,1,4.65-15.28c4-10.31,9.4-20,15.2-29.42,5.12-8.3,10.67-16.38,14.31-25.48a31.31,31.31,0,0,0,2.34-10.78,81.78,81.78,0,0,0-9.32-6.4,26.38,26.38,0,0,0-5.59,4.26A91.63,91.63,0,0,0,156.05,29.37Z"/></g><g class="cls-6"><path class="cls-7" d="M89.06,60.71A12.47,12.47,0,0,1,93.67,53a6.76,6.76,0,0,1,4.21-1.22c.76-1.28,1.54-2.54,2.3-3.82l.16-.27c5.53-9.36,11.08-18.88,18.73-26.71,3.78-3.86,8.12-7.52,13.24-9.43,1-.37,2.06-.54,3.06-.9a3.39,3.39,0,0,0,.81-.4c.36-.93.76-.53,0,0a4.37,4.37,0,0,0-.22.8c-.61,3.35-2.88,7-4.4,10.05-2.66,5.27-5.63,10.37-8.68,15.42a3,3,0,0,0,5.13,3.1c3.39-5.59,6.68-11.25,9.54-17.12,1.94-4,9.72-17.05,1-18.11-8.27-1-17,5.78-22.52,11.14-6.85,6.64-12.19,14.71-17.12,22.83-6.36,10.49-12.53,21.09-19,31.49-3.29,5.26-6.42,10.79-10.16,15.74.15-.19-2.17,3-2.76,3.17q-1.58,1.33-1.38-.57a15.58,15.58,0,0,1-.33-2.84,41.39,41.39,0,0,1,.54-9.79c2.11-12.23,8.5-23,15.15-33.31,5.47-8.44,14.14-18.11,15.27-28.41.21-1.93-2.09-3.43-3.8-2.89C64.78,19.62,50,45.5,37.31,69.54a3.32,3.32,0,0,0-.2.49,2.83,2.83,0,0,0,.47,2.73c1.19,1.53,3.75,2,4.91-.19C53.55,51.64,66.15,28.39,88.75,18.7c-1.64,3.59-4.27,7.06-6.17,10.05-3.2,5-6.57,9.95-9.72,15-5.63,9.06-10.68,18.78-12.71,29.35-1.05,5.48-3.62,20,3.79,22.59,7.71,2.68,15-13.1,18-17.82q3.57-5.63,7.06-11.32A15,15,0,0,1,89.06,60.71Z"/></g><g class="cls-6"><path class="cls-7" d="M118.26,86.14Q115.64,90,113,93.78q-2.5,3.57-5,7.12c-1.29,1.81-3.52,6.34-5.45,7.34-3.7,1.9-3-2.07-2.77-4.38a67.44,67.44,0,0,1,1.24-8,94.31,94.31,0,0,1,3.63-12.46,32.46,32.46,0,0,1-5.38-2.77A93.91,93.91,0,0,0,94.85,96c-.8,4.21-1.89,9.08-1,13.35,1.71,8.5,10,6.95,14.32,1.45,6.25-7.9,11.9-16.39,17.5-24.81-1.14.1-2.29.15-3.46.15-.46,0-.91,0-1.36,0s-1.09,0-1.64,0Z"/></g><path class="cls-11" d="M186.85,46.63q-10.41,13.5-20,27.63c-5.72,8.5-10.54,18.09-17.24,25.86a27.29,27.29,0,0,1-5.62,5.26c-3.45,2.21-2.3-2.15-1.84-4.22a105.07,105.07,0,0,1,4.65-15.28c4-10.31,9.4-20,15.2-29.42,5.12-8.3,10.67-16.38,14.31-25.48,1.22-3.06,3-9,2.08-13.23-.61-2.78-2.4-4.78-6.32-4.68a5.87,5.87,0,0,0-.83.09c-2.91.5-5.41,3.07-7.5,4.9a91.63,91.63,0,0,0-10.74,11.29A181.61,181.61,0,0,0,141.8,45.13a2.78,2.78,0,0,0,.48,3.6l0,0a2.81,2.81,0,0,0,4.2-.53,150.23,150.23,0,0,1,16.18-20.81c1.51-1.58,3.08-3.11,4.71-4.57.82-.73,2.22-2.45,3.31-2.76,2.6-.76,2.42,1.26,1.82,3.64-1.39,5.54-4.19,10.78-7,15.7C160.32,48.5,154.4,57.1,149.43,66.3c-.2.36-.4.72-.6,1.09-1.51,2.85-3,5.76-4.32,8.71A112.09,112.09,0,0,0,136,101.32c-.71,3.61-1.42,8,2.32,10.26s7.64-.08,10.56-2.4c8.78-7,14-18,20-27.16Q179.85,65.4,192,49.66C194.38,46.6,189.17,43.61,186.85,46.63Z"/><path class="cls-11" d="M135.53,4.41c-8.27-1-17,5.78-22.52,11.14-6.85,6.64-12.19,14.71-17.12,22.83-6.36,10.49-12.53,21.09-19,31.49-3.29,5.26-6.42,10.79-10.16,15.74.15-.19-2.17,3-2.76,3.17q-1.58,1.33-1.38-.57a15.58,15.58,0,0,1-.33-2.84,41.39,41.39,0,0,1,.54-9.79c2.11-12.23,8.5-23,15.15-33.31,5.47-8.44,14.14-18.11,15.27-28.41.21-1.93-2.09-3.43-3.8-2.89C61.78,19.62,47,45.5,34.31,69.54a3.32,3.32,0,0,0-.2.49,2.83,2.83,0,0,0,.47,2.73c1.19,1.53,3.75,2,4.91-.19C50.55,51.64,63.15,28.39,85.75,18.7c-1.64,3.59-4.27,7.06-6.17,10.05-3.2,5-6.57,9.95-9.72,15-5.63,9.06-10.68,18.78-12.71,29.35-1.05,5.48-3.62,20,3.79,22.59,7.71,2.68,15-13.1,18-17.82Q83.89,70,88.74,62,93,55,97.18,48l.16-.27c5.53-9.36,11.08-18.88,18.73-26.71,3.78-3.86,8.12-7.52,13.24-9.43,1-.37,2.06-.54,3.06-.9a3.39,3.39,0,0,0,.81-.4c.36-.93.76-.53,0,0a4.37,4.37,0,0,0-.22.8c-.61,3.35-2.88,7-4.4,10.05-2.66,5.27-5.63,10.37-8.68,15.42a3,3,0,0,0,5.13,3.1c3.39-5.59,6.68-11.25,9.54-17.12C136.48,18.54,144.26,5.47,135.53,4.41Z"/><path class="cls-11" d="M115.24,85.89c-.66,1-1.26,2.13-1.95,3.12q-1.65,2.39-3.31,4.77-2.5,3.57-5,7.12c-1.29,1.81-3.52,6.34-5.45,7.34-3.7,1.9-3-2.07-2.77-4.38a67.44,67.44,0,0,1,1.24-8c.61-2.89,1.39-5.74,2.28-8.55.44-1.4,1-2.77,1.43-4.18.24-.87.58-2.36.11-3.16a2.79,2.79,0,0,0-.95-.87,7.63,7.63,0,0,0-1.87-1,1.34,1.34,0,0,0-1.81.51,9.08,9.08,0,0,0-1,2A93.94,93.94,0,0,0,91.85,96c-.8,4.21-1.89,9.08-1,13.35,1.71,8.5,10,6.95,14.32,1.45q1.5-1.89,3-3.83c2.78-3.69,5.44-7.47,8-11.29q2-2.87,3.88-5.76a21.32,21.32,0,0,0,1.88-2.85c.37-.83.95-1.49.81-2.48a1.94,1.94,0,0,0-1.15-1.55,3.2,3.2,0,0,0-1.25-.13L119,83a3.88,3.88,0,0,0-.92.12C116.8,83.46,115.9,84.86,115.24,85.89Z"/><path class="cls-12" d="M84.46,19.28c.09-.19.2-.39.29-.58-22.6,9.69-35.2,32.94-46.26,53.87A2.62,2.62,0,0,1,36.64,74a2.58,2.58,0,0,0,2.85-1.45C50.33,52,62.67,29.29,84.46,19.28Z"/><path class="cls-13" d="M132.17,10.26c.76-.53.36-.93,0,0Z"/><path class="cls-12" d="M92.19,13.85c-1.13,10.3-9.8,20-15.27,28.41-6.65,10.27-13,21.08-15.15,33.31a41.39,41.39,0,0,0-.54,9.79,15.58,15.58,0,0,0,.33,2.84c-.12,1.13.23,1.4,1,.83a2,2,0,0,1,0-.83,15.58,15.58,0,0,1-.33-2.84,41.39,41.39,0,0,1,.54-9.79c2.11-12.23,8.5-23,15.15-33.31,5.47-8.44,14.14-18.11,15.27-28.41.2-1.83-1.87-3.28-3.55-3A2.93,2.93,0,0,1,92.19,13.85Z"/><path class="cls-12" d="M132,10.76a4.17,4.17,0,0,1,.15-.51,3.39,3.39,0,0,1-.81.4c-1,.36-2.06.52-3.06.9-5.13,1.91-9.47,5.57-13.24,9.43-7.65,7.82-13.2,17.35-18.73,26.71l-.16.27Q92,55,87.74,62q-4.86,8-9.85,15.86C75.2,82.13,69.05,95.34,62.23,96c7.22.67,13.84-13.64,16.67-18.1Q83.89,70,88.74,62,93,55,97.18,48l.16-.27c5.53-9.36,11.08-18.88,18.73-26.71,3.78-3.86,8.12-7.52,13.24-9.43C130.19,11.22,131.12,11,132,10.76Z"/><path class="cls-12" d="M135.53,4.41a14,14,0,0,0-2.14-.07c.38,0,.76,0,1.14.07,8.73,1.05.95,14.12-1,18.11C130.68,28.39,127.39,34,124,39.64A3,3,0,0,1,121.87,41a3.07,3.07,0,0,0,.46.05A3,3,0,0,0,125,39.64c3.39-5.59,6.68-11.25,9.54-17.12C136.48,18.54,144.26,5.47,135.53,4.41Z"/><path class="cls-12" d="M177.45,17.77c.93,4.21-.86,10.18-2.08,13.23-3.64,9.1-9.19,17.18-14.31,25.48-5.8,9.39-11.22,19.1-15.2,29.42a105.07,105.07,0,0,0-4.65,15.28c-.41,1.85-1.36,5.51.89,4.7-.89-.59-.22-3.22.11-4.7a105.07,105.07,0,0,1,4.65-15.28c4-10.31,9.4-20,15.2-29.42,5.12-8.3,10.67-16.38,14.31-25.48,1.22-3.06,3-9,2.08-13.23-.61-2.78-2.4-4.78-6.32-4.68l-.27,0A5.47,5.47,0,0,1,177.45,17.77Z"/><path class="cls-12" d="M169.73,20.1c-1.09.32-2.49,2-3.31,2.76-1.63,1.46-3.2,3-4.71,4.57a150.23,150.23,0,0,0-16.18,20.81,2.73,2.73,0,0,1-1.8,1.18,2.75,2.75,0,0,0,2.8-1.18,150.23,150.23,0,0,1,16.18-20.81c1.51-1.58,3.08-3.11,4.71-4.57.82-.73,2.22-2.45,3.31-2.76l.41-.1A2.55,2.55,0,0,0,169.73,20.1Z"/><path class="cls-12" d="M188.87,45.42c2,.28,3.7,2.24,2.16,4.24Q178.88,65.41,167.93,82c-6,9.21-11.23,20.17-20,27.16-2,1.55-4.41,3.05-6.91,3.24,2.83.22,5.69-1.47,7.91-3.24,8.78-7,14-18,20-27.16Q179.85,65.4,192,49.66C193.82,47.33,191.24,45.06,188.87,45.42Z"/><path class="cls-12" d="M121.58,86.07l-.07.13c-.4.72-1,1.4-1.41,2.09-5.1,7.66-10.26,15.3-16,22.52a11.43,11.43,0,0,1-7.69,4.5c3,.23,6.37-1.58,8.69-4.5q1.36-1.72,2.69-3.48c2.77-3.67,5.42-7.43,8-11.22q1.95-2.85,3.86-5.72l1.91-2.87c.46-.69,1.32-1.75,1.24-2.63a2.41,2.41,0,0,0-.61-1.2.21.21,0,0,0-.11-.09c-.12,0-.17.14-.18.27A5.74,5.74,0,0,1,121.58,86.07Z"/><path class="cls-12" d="M100.64,78.9l-.31.06c.23,0,.83,1.06.9,1.25a2.22,2.22,0,0,1,.08,1.12,13.66,13.66,0,0,1-.87,2.5q-.7,1.95-1.32,3.92c-.84,2.67-1.56,5.38-2.15,8.12a67.44,67.44,0,0,0-1.24,8c-.18,2.06-.77,5.41,1.69,4.8-1.28-.48-.85-3.09-.69-4.8a67.44,67.44,0,0,1,1.24-8c.55-2.57,1.22-5.1,2-7.61a43.49,43.49,0,0,0,1.85-5.83,5.36,5.36,0,0,0,.06-2.29C101.77,79.78,101.08,78.82,100.64,78.9Z"/><path class="cls-14" d="M35.56,71.48c1,.5,10-30.77,36.11-48.48,7.66-5.21,17.23-9.54,17-10s-6.2,1.78-12,5C62.78,25.71,55,36.9,46.67,49A90.65,90.65,0,0,0,38.5,63.5C37.43,65.89,35.14,71.27,35.56,71.48Z"/><path class="cls-14" d="M86.83,19.67c-.45-.29-10.9,14.75-20.17,32.33-5.34,10.14-9,18.82-9.31,28.83A56.28,56.28,0,0,0,57.67,89a60.66,60.66,0,0,1,1-11,47.2,47.2,0,0,1,2-7,140.82,140.82,0,0,1,9-20C74.09,43.25,87.38,20,86.83,19.67Z"/><path class="cls-14" d="M64.67,90c-.47-.34,10.95-13.62,23-35,4.36-7.73,12.75-23.53,22-34a56.58,56.58,0,0,1,10-9,55.87,55.87,0,0,1,11-6,80.28,80.28,0,0,0-15,11,91.83,91.83,0,0,0-12,14c-5.42,7.54-5.69,9.53-13,22a272.82,272.82,0,0,1-17,26C70.25,83.57,65,90.24,64.67,90Z"/><path class="cls-14" d="M120.67,38c-.17-.12,2.6-3.67,6-10a134.38,134.38,0,0,0,6-13c1.24-3.09,1.89-5,2-5s-1,4.91-3,10a63.1,63.1,0,0,1-5,10C123.86,34.54,120.84,38.12,120.67,38Z"/><path class="cls-14" d="M97.67,83c-.32-.1-4,7.81-5,18-.45,4.64-.26,9,0,9s.49-5.69,2-14C96.22,87.47,97.9,83.07,97.67,83Z"/><path class="cls-14" d="M99.67,110c-.21-.19,2.32-3,6-8,6.89-9.33,9.65-15.19,10-15s-2.28,7.7-8,15C104,106.64,99.92,110.23,99.67,110Z"/><path class="cls-14" d="M142.67,46a57.94,57.94,0,0,1,5-8c2.12-3,2.66-3.4,10-12,5.12-6,7.05-8.38,11-10,1.84-.75,3.89-1.25,4-1s-3.89,1.77-8,5c-2.55,2-2.5,2.65-8,9-4.56,5.27-4.94,5.21-8,9C144.9,42.66,142.78,46.08,142.67,46Z"/><path class="cls-14" d="M173.67,22c-.25-.05-.9,4.37-3,10-3,8-6,10.58-12,20a192.15,192.15,0,0,0-11,20c-5.37,10.83-7.2,16.4-8,19-2.21,7.19-3.36,13.9-3,14s2.28-8.2,7-20a154.07,154.07,0,0,1,10-21c3.24-5.61,7.93-12.82,10-16,4-6.13,5.43-8.08,7-12C173.54,28.8,174,22.07,173.67,22Z"/><path class="cls-14" d="M145.67,106c-.24-.21,4.16-4.85,10-13,.71-1,1-1.45,8-12,6.61-10,6.55-10,7.58-11.41,4.2-5.91,5.18-6.55,9.42-12.59,3.76-5.35,5.94-9,6-9s-5.32,8.92-11,18c-1.77,2.83-6.56,10.45-13,20a114.22,114.22,0,0,1-9,12C149.81,102.44,145.88,106.2,145.67,106Z"/><path class="cls-15" d="M55.67,107c0,.88.47,8,5,10,2.14.94,4.88.57,5,0s-2.47-1.1-5-3A15.3,15.3,0,0,1,55.67,107Z"/><path class="cls-16" d="M109.67,127c-.13.34,2.87,1.9,6,3,2.54.89,6.16,2.17,7,1,.5-.7,0-2.25-1-3-1.34-1-2.81,0-6,0C112,128,109.78,126.7,109.67,127Z"/><path class="cls-16" d="M160.67,120c0,.51,2.62,1,5,1,1.07,0,3.76-.06,4-1,.17-.66-.88-1.7-2-2-1-.25-1.44.19-4,1C161.42,119.71,160.67,119.73,160.67,120Z"/><path class="cls-17" d="M136.67,48c-.25.15.32,2.38,2,4,2.4,2.31,5.93,2.26,6,2s-1.76-.43-4-2C138,50.09,136.93,47.84,136.67,48Z"/><path class="cls-17" d="M33.67,77c-.24.09.29,3.08,2,6,2.3,3.95,5.81,6.19,6,6s-1.7-1.66-4-5C34.9,80,33.91,76.9,33.67,77Z"/></g></g></g></svg>