<svg xmlns="http://www.w3.org/2000/svg" xmlns:xlink="http://www.w3.org/1999/xlink" viewBox="0 0 124 124"><defs><style>.cls-1{fill:#87171c;}.cls-2{fill:url(#linear-gradient);}.cls-3{fill:url(#linear-gradient-2);}.cls-4{fill:#d42128;}.cls-5{fill:url(#radial-gradient);}.cls-6{fill:#fff;}</style><linearGradient id="linear-gradient" x1="112.33" y1="638.12" x2="112.33" y2="537.36" gradientTransform="translate(566.11 407.24) rotate(135)" gradientUnits="userSpaceOnUse"><stop offset="0.02" stop-color="#cc7b19"/><stop offset="0.33" stop-color="#fbb03b"/><stop offset="0.55" stop-color="#fcc731"/><stop offset="0.82" stop-color="#fbb03b"/><stop offset="1" stop-color="#fbb03b"/></linearGradient><linearGradient id="linear-gradient-2" x1="34.15" y1="34.15" x2="99.21" y2="99.21" gradientUnits="userSpaceOnUse"><stop offset="0" stop-color="#c2c2c2"/><stop offset="0.24" stop-color="#e6e6e6"/><stop offset="0.48" stop-color="#f8f8f8"/><stop offset="0.65" stop-color="#fff"/><stop offset="0.84" stop-color="#fcfcfc"/><stop offset="1" stop-color="#f2f2f2"/></linearGradient><radialGradient id="radial-gradient" cx="161.14" cy="-667.88" r="55.02" gradientTransform="translate(376.29 602.06) rotate(-45)" gradientUnits="userSpaceOnUse"><stop offset="0" stop-color="#e13126"/><stop offset="0.29" stop-color="#dc3026"/><stop offset="0.63" stop-color="#ce2c24"/><stop offset="0.98" stop-color="#b82522"/><stop offset="1" stop-color="#b62522"/></radialGradient></defs><title>Ресурс 32elements</title><g id="Слой_2" data-name="Слой 2"><g id="Layer_1" data-name="Layer 1"><path class="cls-1" d="M0,92.22c.5,7,14.75,3.8,14.75,3.8l-4.27-34.7H0Z"/><path class="cls-1" d="M92.22,0c7,.51,1.35,13.31,1.35,13.31L61.32,10.49V0Z"/><path class="cls-2" d="M6,65c24.09-14,43.1-34,59-59A59,59,0,1,1,6,65Z"/><path class="cls-3" d="M113.39,65a48.42,48.42,0,0,1-96.83,0c0-14.12,9.26-23,18.9-31.83C44.08,25.23,52.35,16.56,65,16.56A48.42,48.42,0,0,1,113.39,65Z"/><path class="cls-4" d="M26.93,71.78V68.11l3.35-3c5.67-5.07,8.43-8,8.51-11,0-2.12-1.28-3.79-4.27-3.79A9.4,9.4,0,0,0,29,52.41l-1.72-4.35a14.37,14.37,0,0,1,8.51-2.67c5.87,0,9.1,3.43,9.1,8.15,0,4.35-3.15,7.83-6.91,11.18l-2.39,2v.08h9.78v5Z"/><path class="cls-4" d="M68.25,58.68c0,8-3.24,13.54-9.86,13.54s-9.66-6-9.7-13.38c0-7.51,3.19-13.46,9.9-13.46C65.54,45.39,68.25,51.58,68.25,58.68Zm-13.46.16c0,6,1.4,8.79,3.75,8.79s3.63-3,3.63-8.86C62.18,53,60.94,50,58.51,50,56.27,50,54.75,52.81,54.79,58.84Z"/><path class="cls-4" d="M84.9,53.09c0,5.43-3.43,8.27-7.19,8.27-4,0-7.07-3-7.07-7.83,0-4.63,2.84-8.15,7.27-8.15S84.9,48.66,84.9,53.09Zm-9.74.28c0,2.72.92,4.67,2.67,4.67s2.56-1.76,2.56-4.67c0-2.64-.72-4.67-2.59-4.67S75.16,50.78,75.16,53.37ZM78,72.22l14.9-26.83H96.2L81.27,72.22Zm25.56-8.35c0,5.43-3.43,8.27-7.19,8.27-3.91,0-7-3-7.07-7.83,0-4.63,2.84-8.15,7.27-8.15S103.59,59.44,103.59,63.87Zm-9.7.28c0,2.72.88,4.67,2.63,4.67s2.56-1.76,2.56-4.67c0-2.63-.68-4.67-2.56-4.67S93.89,61.56,93.89,64.15Z"/><path class="cls-4" d="M59.18,89.51c0,6.33-3.84,10.17-9.48,10.17s-9.08-4.33-9.08-9.83c0-5.79,3.69-10.11,9.4-10.11C55.94,79.74,59.18,84.18,59.18,89.51Zm-14,.26c0,3.78,1.78,6.45,4.7,6.45s4.64-2.81,4.64-6.56c0-3.46-1.66-6.45-4.67-6.45S45.23,86,45.23,89.77Z"/><path class="cls-4" d="M62,80.06h11.8v3.58H66.42V88h6.93V91.6H66.42v7.76H62Z"/><path class="cls-4" d="M77.14,80.06h11.8v3.58H81.52V88h6.93V91.6H81.52v7.76H77.14Z"/><path class="cls-5" d="M6.54,0A6.53,6.53,0,0,0,0,6.54L0,92.22c0-9.65,16.79-36.2,36.4-55.8S82.57,0,92.22,0Z"/><path class="cls-6" d="M16.25,46.89,5.05,37.4l2.51-3,6.07,1.15A42.81,42.81,0,0,1,19,37l0,0a54.64,54.64,0,0,1-4.85-3.74l-3.27-2.77,2-2.33,11.2,9.48-2.25,2.66L15.5,39a54.69,54.69,0,0,1-5.6-1.4l0,.06c1.54,1.19,3.14,2.49,5,4l3.37,2.86Z"/><path class="cls-6" d="M27.51,25.12,23.75,29l2.5,2.42,4.2-4.33,2,1.89-6.52,6.72L15.35,25.49,21.66,19l2,1.89-4,4.11,2.19,2.12,3.76-3.87Z"/><path class="cls-6" d="M35.65,25.89,23.38,17.12l2.68-2.33,4.81,3.83c1.39,1.1,2.86,2.33,4,3.28l0,0c-.86-1.35-1.76-2.91-2.67-4.52l-3-5.34L31.9,9.7l4.95,3.89c1.38,1.08,2.58,2.1,3.82,3.19l0,0c-.91-1.37-1.79-2.88-2.71-4.4L34.95,7l2.54-2.22,6.78,13.55-2.71,2.36-5.08-3.94c-1.19-.93-2.27-1.81-3.5-3l0,0c.89,1.42,1.62,2.62,2.33,4l3.1,5.67Z"/></g></g></svg>