<svg xmlns="http://www.w3.org/2000/svg" xmlns:xlink="http://www.w3.org/1999/xlink" viewBox="0 0 257 96.47"><defs><style>.cls-1{fill:#8cc640;}.cls-2{fill:#74b43e;}.cls-3{fill:#87171c;}.cls-4{fill:url(#radial-gradient);}.cls-5{fill:#fff;}.cls-6{fill:#8dc640;}.cls-7{fill:#8ec740;}.cls-8{fill:#8fc740;}.cls-9{fill:#90c740;}.cls-10{fill:#91c840;}.cls-11{fill:#92c840;}.cls-12{fill:#93c840;}.cls-13{fill:#94c940;}.cls-14{fill:#95c940;}.cls-15{fill:#96c940;}.cls-16{fill:#96ca40;}.cls-17{fill:#97ca40;}.cls-18{fill:#98ca40;}.cls-19{fill:#99ca40;}.cls-20{fill:#9acb40;}.cls-21{fill:#9bcb40;}.cls-22{fill:#9ccb40;}.cls-23{fill:#9ccc40;}.cls-24{fill:#9dcc40;}.cls-25{fill:#9ecc41;}.cls-26{fill:#9fcc41;}.cls-27{fill:#9fcd41;}.cls-28{fill:#a0cd41;}.cls-29{fill:#a1cd41;}.cls-30{fill:#a2ce41;}.cls-31{fill:#a3ce41;}.cls-32{fill:#a4ce41;}.cls-33{fill:#a5ce41;}.cls-34{fill:#a5cf41;}.cls-35{fill:#a6cf41;}.cls-36{fill:#a7cf41;}.cls-37{fill:#a8d041;}.cls-38{fill:#a9d041;}.cls-39{fill:#aad041;}.cls-40{fill:#abd141;}.cls-41{fill:#acd141;}.cls-42{fill:#add141;}.cls-43{fill:#aed241;}.cls-44{fill:#afd241;}</style><radialGradient id="radial-gradient" cx="491.43" cy="-705.65" r="45.57" gradientTransform="translate(166.37 859.59) rotate(-45)" gradientUnits="userSpaceOnUse"><stop offset="0" stop-color="#e13126"/><stop offset="0.29" stop-color="#dc3026"/><stop offset="0.63" stop-color="#ce2c24"/><stop offset="0.98" stop-color="#b82522"/><stop offset="1" stop-color="#b62522"/></radialGradient></defs><title>Ресурс 23elements</title><g id="Слой_2" data-name="Слой 2"><g id="Layer_1" data-name="Layer 1"><path class="cls-1" d="M213.17,8.8h-164a43.83,43.83,0,0,0,0,87.66h164a43.83,43.83,0,0,0,0-87.66Z"/><path class="cls-2" d="M11.46,8.64C10.7,8.64,1,38.37,1.06,39.12c.77,6.5,5.72,24.2,5.72,24.2C19,44.08,42.17,21.48,60.73,8.68Z"/><path class="cls-3" d="M0,76.39c.42,5.83,14.78,3.39,14.78,3.39A52.53,52.53,0,0,1,8.64,69.24c-3-7.44-3.86-18.45-3.86-18.45H0Z"/><path class="cls-3" d="M76.39,0c5.82.42,3.87,8.65,3.87,8.65l-29.46,0V0Z"/><path class="cls-4" d="M5.42,0A5.41,5.41,0,0,0,0,5.41l0,71c0-8,13.9-30,30.15-46.22S68.4,0,76.39,0Z"/><path class="cls-5" d="M13.45,38.87,4.17,31l2.08-2.45,5,1a35.38,35.38,0,0,1,4.46,1.18l0,0a45.3,45.3,0,0,1-4-3.1L9,25.26l1.63-1.93L20,31.19l-1.87,2.2-5.26-1a45.3,45.3,0,0,1-4.64-1.16l0,.05c1.27,1,2.6,2.06,4.12,3.35l2.79,2.37Z"/><path class="cls-5" d="M22.8,20.82,19.69,24l2.07,2,3.48-3.58L26.85,24l-5.4,5.56-8.72-8.47L18,15.74l1.62,1.57-3.3,3.4,1.81,1.76,3.11-3.21Z"/><path class="cls-5" d="M29.54,21.45,19.38,14.17l2.22-1.93,4,3.18c1.15.91,2.37,1.93,3.33,2.73l0,0c-.72-1.13-1.46-2.42-2.21-3.75L24.24,9.94,26.44,8l4.1,3.23c1.14.9,2.14,1.75,3.17,2.65l0,0c-.75-1.14-1.48-2.39-2.24-3.65L29,5.82,31.09,4,36.7,15.23l-2.25,2-4.21-3.27c-1-.77-1.88-1.5-2.9-2.45l0,0c.74,1.18,1.35,2.18,1.93,3.29l2.56,4.71Z"/><ellipse class="cls-1" cx="131.19" cy="52.64" rx="111.08" ry="43.83"/><ellipse class="cls-6" cx="131.19" cy="52.64" rx="109.47" ry="43.2"/><ellipse class="cls-6" cx="131.19" cy="52.64" rx="107.86" ry="42.56"/><ellipse class="cls-7" cx="131.19" cy="52.64" rx="106.25" ry="41.92"/><ellipse class="cls-8" cx="131.19" cy="52.64" rx="104.64" ry="41.29"/><ellipse class="cls-8" cx="131.19" cy="52.64" rx="103.03" ry="40.65"/><ellipse class="cls-9" cx="131.19" cy="52.64" rx="101.41" ry="40.02"/><ellipse class="cls-10" cx="131.19" cy="52.64" rx="99.8" ry="39.38"/><ellipse class="cls-10" cx="131.19" cy="52.64" rx="98.19" ry="38.74"/><ellipse class="cls-11" cx="131.19" cy="52.64" rx="96.58" ry="38.11"/><ellipse class="cls-12" cx="131.19" cy="52.64" rx="94.97" ry="37.47"/><ellipse class="cls-13" cx="131.19" cy="52.64" rx="93.35" ry="36.84"/><ellipse class="cls-13" cx="131.19" cy="52.64" rx="91.74" ry="36.2"/><ellipse class="cls-14" cx="131.19" cy="52.64" rx="90.13" ry="35.56"/><ellipse class="cls-15" cx="131.19" cy="52.64" rx="88.52" ry="34.93"/><ellipse class="cls-16" cx="131.19" cy="52.64" rx="86.91" ry="34.29"/><ellipse class="cls-17" cx="131.19" cy="52.64" rx="85.29" ry="33.66"/><ellipse class="cls-18" cx="131.19" cy="52.64" rx="83.68" ry="33.02"/><ellipse class="cls-18" cx="131.19" cy="52.64" rx="82.07" ry="32.38"/><ellipse class="cls-19" cx="131.19" cy="52.64" rx="80.46" ry="31.75"/><ellipse class="cls-20" cx="131.19" cy="52.64" rx="78.85" ry="31.11"/><ellipse class="cls-20" cx="131.19" cy="52.64" rx="77.23" ry="30.48"/><ellipse class="cls-21" cx="131.19" cy="52.64" rx="75.62" ry="29.84"/><ellipse class="cls-22" cx="131.19" cy="52.64" rx="74.01" ry="29.2"/><ellipse class="cls-23" cx="131.19" cy="52.64" rx="72.4" ry="28.57"/><ellipse class="cls-24" cx="131.19" cy="52.64" rx="70.79" ry="27.93"/><ellipse class="cls-25" cx="131.19" cy="52.64" rx="69.17" ry="27.29"/><ellipse class="cls-26" cx="131.19" cy="52.64" rx="67.56" ry="26.66"/><ellipse class="cls-27" cx="131.19" cy="52.64" rx="65.95" ry="26.02"/><ellipse class="cls-28" cx="131.19" cy="52.64" rx="64.34" ry="25.39"/><ellipse class="cls-29" cx="131.19" cy="52.64" rx="62.73" ry="24.75"/><ellipse class="cls-29" cx="131.19" cy="52.64" rx="61.12" ry="24.11"/><ellipse class="cls-30" cx="131.19" cy="52.64" rx="59.5" ry="23.48"/><ellipse class="cls-31" cx="131.19" cy="52.64" rx="57.89" ry="22.84"/><ellipse class="cls-31" cx="131.19" cy="52.64" rx="56.28" ry="22.21"/><ellipse class="cls-32" cx="131.19" cy="52.64" rx="54.67" ry="21.57"/><ellipse class="cls-33" cx="131.19" cy="52.64" rx="53.06" ry="20.93"/><ellipse class="cls-34" cx="131.19" cy="52.64" rx="51.44" ry="20.3"/><ellipse class="cls-35" cx="131.19" cy="52.64" rx="49.83" ry="19.66"/><ellipse class="cls-36" cx="131.19" cy="52.64" rx="48.22" ry="19.03"/><ellipse class="cls-36" cx="131.19" cy="52.64" rx="46.61" ry="18.39"/><ellipse class="cls-37" cx="131.19" cy="52.64" rx="45" ry="17.75"/><ellipse class="cls-38" cx="131.19" cy="52.64" rx="43.38" ry="17.12"/><ellipse class="cls-39" cx="131.19" cy="52.64" rx="41.77" ry="16.48"/><ellipse class="cls-39" cx="131.19" cy="52.64" rx="40.16" ry="15.85"/><ellipse class="cls-40" cx="131.19" cy="52.64" rx="38.55" ry="15.21"/><ellipse class="cls-41" cx="131.19" cy="52.64" rx="36.94" ry="14.57"/><ellipse class="cls-41" cx="131.19" cy="52.64" rx="35.32" ry="13.94"/><ellipse class="cls-42" cx="131.19" cy="52.64" rx="33.71" ry="13.3"/><ellipse class="cls-43" cx="131.19" cy="52.64" rx="32.1" ry="12.67"/><ellipse class="cls-43" cx="131.19" cy="52.64" rx="30.49" ry="12.03"/><ellipse class="cls-44" cx="131.19" cy="52.64" rx="28.88" ry="11.39"/><path class="cls-5" d="M44.58,37.22V47.71H54.75V37.22H60.9v27.3H54.75V53.1H44.58V64.52h-6.2V37.22Z"/><path class="cls-5" d="M91.27,50.59c0,9-5.43,14.38-13.41,14.38S65,58.85,65,51.07c0-8.18,5.22-14.3,13.28-14.3C86.69,36.78,91.27,43.05,91.27,50.59ZM71.55,51c0,5.35,2.51,9.11,6.64,9.11s6.56-4,6.56-9.27c0-4.9-2.35-9.11-6.6-9.11S71.55,45.65,71.55,51Z"/><path class="cls-5" d="M99.45,42.41H92.11V37.22h21v5.18h-7.45V64.52h-6.2Z"/><path class="cls-5" d="M124.55,37.59a50.57,50.57,0,0,1,8.34-.57c3.81,0,6.52.73,8.34,2.19a8,8,0,0,1,2.92,6.32A8.72,8.72,0,0,1,141.64,52c-2.11,2-5.23,2.88-8.87,2.88a15.36,15.36,0,0,1-2.11-.12v9.76h-6.12ZM130.67,50a9.46,9.46,0,0,0,2.07.16c3.28,0,5.31-1.66,5.31-4.46,0-2.51-1.74-4-4.82-4a10.45,10.45,0,0,0-2.55.24Z"/><path class="cls-5" d="M148.08,37.59A54.29,54.29,0,0,1,156.3,37c4.05,0,6.89.61,8.83,2.15a6.93,6.93,0,0,1,2.51,5.71,7.24,7.24,0,0,1-4.82,6.72v.12c1.9.77,3,2.59,3.64,5.1.85,3.08,1.7,6.64,2.23,7.69h-6.32a34.08,34.08,0,0,1-1.9-6.36c-.73-3.4-1.9-4.33-4.41-4.37h-1.86V64.52h-6.12Zm6.12,11.75h2.43c3.08,0,4.9-1.54,4.9-3.93s-1.7-3.77-4.54-3.81a15.48,15.48,0,0,0-2.79.2Z"/><path class="cls-5" d="M178.28,37.22v27.3h-6.2V37.22Z"/><path class="cls-5" d="M203.67,63.75a17.6,17.6,0,0,1-7,1.17c-9.44,0-14.3-5.87-14.3-13.65,0-9.32,6.64-14.5,14.9-14.5A16.08,16.08,0,0,1,204,38l-1.25,4.9a13.31,13.31,0,0,0-5.18-1c-4.9,0-8.71,3-8.71,9,0,5.47,3.24,8.91,8.75,8.91a15.39,15.39,0,0,0,5.14-.89Z"/><path class="cls-5" d="M224,53h-10v6.48h11.22v5.06H207.72V37.22h16.85v5.06H213.92V48h10Z"/></g></g></svg>