<svg xmlns="http://www.w3.org/2000/svg" xmlns:xlink="http://www.w3.org/1999/xlink" viewBox="0 0 143.08 234.06"><defs><style>.cls-1{fill:#999;}.cls-2{fill:#fff;}.cls-3{fill:url(#radial-gradient);}.cls-4{fill:#4d4d4d;}.cls-5{fill:url(#radial-gradient-2);}.cls-6{fill:url(#linear-gradient);}.cls-7{fill:#666;}.cls-8{fill:#61533c;}.cls-9{fill:url(#linear-gradient-2);}.cls-10{fill:#f2f2f2;}.cls-11{fill:url(#linear-gradient-3);}.cls-12{fill:#fefefe;}.cls-13{fill:#fdfdfd;}.cls-14{fill:#fcfcfc;}.cls-15{fill:#fbfbfb;}.cls-16{fill:#fafafa;}.cls-17{fill:#f9f9f9;}.cls-18{fill:#f8f8f8;}.cls-19{fill:#f7f7f7;}.cls-20{fill:#f6f6f6;}.cls-21{fill:#f5f5f5;}.cls-22{fill:#f4f4f4;}.cls-23{fill:#f3f3f3;}.cls-24{fill:#f1f1f1;}.cls-25{fill:#f0f0f0;}.cls-26{fill:#efefef;}.cls-27{fill:#eee;}.cls-28{fill:#ededed;}.cls-29{fill:#ececec;}.cls-30{fill:#ebebeb;}.cls-31{fill:#eaeaea;}.cls-32{fill:#e9e9e9;}.cls-33{fill:#e8e8e8;}.cls-34{fill:#e7e7e7;}.cls-35{fill:#e6e6e6;}.cls-36{fill:#e5e5e5;}.cls-37{fill:#e4e4e4;}.cls-38{fill:#e3e3e3;}.cls-39{fill:#e2e2e2;}.cls-40{fill:#e1e1e1;}.cls-41{fill:#e0e0e0;}.cls-42{fill:#dfdfdf;}.cls-43{fill:#dedede;}.cls-44{fill:#ddd;}.cls-45{fill:#dcdcdc;}.cls-46{fill:#dbdbdb;}.cls-47{fill:#dadada;}.cls-48{fill:#d9d9d9;}.cls-49{fill:#d8d8d8;}.cls-50{fill:#d7d7d7;}.cls-51{fill:#d6d6d6;}.cls-52{fill:#d5d5d5;}.cls-53{fill:#d4d4d4;}.cls-54{fill:#d3d3d3;}.cls-55{fill:#d2d2d2;}.cls-56{fill:#d1d1d1;}.cls-57{fill:#d0d0d0;}.cls-58{fill:#cfcfcf;}.cls-59{fill:#cecece;}.cls-60{fill:#cdcdcd;}.cls-61{fill:#ccc;}</style><radialGradient id="radial-gradient" cx="71.54" cy="140.3" r="64.48" gradientUnits="userSpaceOnUse"><stop offset="0" stop-color="#e13126"/><stop offset="0.29" stop-color="#dc3026"/><stop offset="0.63" stop-color="#ce2c24"/><stop offset="0.98" stop-color="#b82522"/><stop offset="1" stop-color="#b62522"/></radialGradient><radialGradient id="radial-gradient-2" cx="70.77" cy="88.19" r="7.62" gradientUnits="userSpaceOnUse"><stop offset="0" stop-color="#5d513b"/><stop offset="0.26" stop-color="#7b6a4f"/><stop offset="0.54" stop-color="#958061"/><stop offset="0.8" stop-color="#a58d6b"/><stop offset="1" stop-color="#ab926f"/></radialGradient><linearGradient id="linear-gradient" x1="63.59" y1="88.2" x2="77.95" y2="88.2" gradientUnits="userSpaceOnUse"><stop offset="0" stop-color="#e5d9c5"/><stop offset="0.05" stop-color="#dbcdb7"/><stop offset="0.17" stop-color="#c2b195"/><stop offset="0.29" stop-color="#b19c7d"/><stop offset="0.39" stop-color="#a7906f"/><stop offset="0.48" stop-color="#a38c6a"/><stop offset="0.63" stop-color="#a58e6d"/><stop offset="0.73" stop-color="#ac9676"/><stop offset="0.82" stop-color="#b7a385"/><stop offset="0.9" stop-color="#c6b59b"/><stop offset="0.97" stop-color="#dacdb6"/><stop offset="1" stop-color="#e5d9c5"/></linearGradient><linearGradient id="linear-gradient-2" x1="66.54" y1="44.74" x2="71.46" y2="44.74" gradientUnits="userSpaceOnUse"><stop offset="0" stop-color="#847155"/><stop offset="0.5" stop-color="#d4c6ae"/><stop offset="1" stop-color="#847155"/></linearGradient><linearGradient id="linear-gradient-3" x1="69" y1="48.77" x2="69" y2="40.71" gradientUnits="userSpaceOnUse"><stop offset="0" stop-color="#7c6b50"/><stop offset="0.39" stop-color="#7a694e"/><stop offset="0.59" stop-color="#726249"/><stop offset="0.76" stop-color="#64563f"/><stop offset="0.9" stop-color="#514631"/><stop offset="1" stop-color="#3e3523"/></linearGradient></defs><title>Ресурс 1elements</title><g id="Слой_2" data-name="Слой 2"><g id="Layer_1" data-name="Layer 1"><path class="cls-1" d="M71.54,211.84a71.54,71.54,0,1,1,71.54-71.54,71.62,71.62,0,0,1-71.54,71.54Z"/><circle class="cls-2" cx="71.54" cy="140.3" r="70.34"/><path class="cls-3" d="M71.54,204.77A64.48,64.48,0,1,1,136,140.3a64.55,64.55,0,0,1-64.48,64.48Z"/><circle class="cls-2" cx="70.77" cy="88.34" r="4.32"/><path class="cls-4" d="M70.77,96.3a7.83,7.83,0,1,1,7.83-7.83,7.84,7.84,0,0,1-7.83,7.83Zm0-12a4.16,4.16,0,1,0,4.17,4.16,4.17,4.17,0,0,0-4.17-4.16Z"/><path class="cls-5" d="M70.77,83.72a4.48,4.48,0,1,0,4.48,4.48A4.48,4.48,0,0,0,70.77,83.72Zm7.62,4.48a7.62,7.62,0,1,1-7.62-7.62A7.62,7.62,0,0,1,78.39,88.19Z"/><path class="cls-6" d="M77.95,88.19A7.18,7.18,0,1,1,70.77,81,7.18,7.18,0,0,1,77.95,88.19Zm-7.18-5.69a5.69,5.69,0,1,0,5.69,5.69A5.69,5.69,0,0,0,70.77,82.51Z"/><path class="cls-7" d="M73,69.11c-.41-1.47-.86-3-1.3-4.51-1.8-6.14-3.66-12.49-3.66-17.33a.92.92,0,0,1,1.84,0c0,4.57,1.82,10.79,3.58,16.81.52,1.78,1,3.39,1.46,5.1C74.47,69.15,73.53,69.11,73,69.11Z"/><path class="cls-7" d="M68,85.4a6.14,6.14,0,0,1-2-1.71c-3.12-4.24-1.52-12.88.17-22,.94-5.07,1.91-10.31,1.91-14.4a.92.92,0,0,1,1.84,0c0,4.26-1,9.58-1.94,14.73-1.55,8.35-3.14,17-.5,20.59a4.34,4.34,0,0,0,2.81,1.74,4.16,4.16,0,0,1,2.46.47C72.24,86.51,69.3,86.16,68,85.4Z"/><path class="cls-7" d="M69.92,43.35H68.08c0-4.2-1.29-10-2.65-16.24C63.17,16.92,60.85,6.37,64.32,2a6.38,6.38,0,0,1,9.35,0c3.47,4.32,1.15,14.87-1.1,25.08-1.37,6.19-2.65,12-2.65,16.24ZM69,1.84A3.88,3.88,0,0,0,65.76,3.2c-2.92,3.64-.59,14.2,1.47,23.53.65,3,1.28,5.83,1.77,8.51.49-2.68,1.12-5.56,1.78-8.51C72.83,17.4,75.16,6.83,72.24,3.2A3.88,3.88,0,0,0,69,1.84Z"/><rect class="cls-8" x="66.49" y="39.95" width="5.01" height="9.58" rx="0.97" ry="0.97"/><rect class="cls-9" x="66.54" y="40" width="4.92" height="9.49" rx="0.95" ry="0.95"/><rect x="67.38" y="40.65" width="3.25" height="8.06" rx="0.63" ry="0.63"/><rect class="cls-10" x="67.38" y="40.75" width="3.25" height="8.06" rx="0.63" ry="0.63"/><rect class="cls-11" x="67.38" y="40.71" width="3.25" height="8.06" rx="0.63" ry="0.63"/><ellipse class="cls-2" cx="71.54" cy="224.89" rx="52.76" ry="9.17"/><ellipse class="cls-12" cx="71.54" cy="224.89" rx="51.85" ry="9.01"/><ellipse class="cls-13" cx="71.54" cy="224.89" rx="50.93" ry="8.85"/><ellipse class="cls-14" cx="71.54" cy="224.89" rx="50.02" ry="8.69"/><ellipse class="cls-15" cx="71.54" cy="224.89" rx="49.11" ry="8.53"/><ellipse class="cls-16" cx="71.54" cy="224.89" rx="48.19" ry="8.37"/><ellipse class="cls-17" cx="71.54" cy="224.89" rx="47.28" ry="8.22"/><ellipse class="cls-18" cx="71.54" cy="224.89" rx="46.37" ry="8.06"/><ellipse class="cls-19" cx="71.54" cy="224.89" rx="45.45" ry="7.9"/><ellipse class="cls-20" cx="71.54" cy="224.89" rx="44.54" ry="7.74"/><ellipse class="cls-21" cx="71.54" cy="224.89" rx="43.63" ry="7.58"/><ellipse class="cls-22" cx="71.54" cy="224.89" rx="42.71" ry="7.42"/><ellipse class="cls-23" cx="71.54" cy="224.89" rx="41.8" ry="7.26"/><ellipse class="cls-10" cx="71.54" cy="224.89" rx="40.89" ry="7.11"/><ellipse class="cls-24" cx="71.54" cy="224.89" rx="39.98" ry="6.95"/><ellipse class="cls-25" cx="71.54" cy="224.89" rx="39.06" ry="6.79"/><ellipse class="cls-26" cx="71.54" cy="224.89" rx="38.15" ry="6.63"/><ellipse class="cls-27" cx="71.54" cy="224.89" rx="37.24" ry="6.47"/><ellipse class="cls-28" cx="71.54" cy="224.89" rx="36.32" ry="6.31"/><ellipse class="cls-29" cx="71.54" cy="224.89" rx="35.41" ry="6.15"/><ellipse class="cls-30" cx="71.54" cy="224.89" rx="34.5" ry="5.99"/><ellipse class="cls-31" cx="71.54" cy="224.89" rx="33.58" ry="5.84"/><ellipse class="cls-32" cx="71.54" cy="224.89" rx="32.67" ry="5.68"/><ellipse class="cls-33" cx="71.54" cy="224.89" rx="31.76" ry="5.52"/><ellipse class="cls-34" cx="71.54" cy="224.89" rx="30.84" ry="5.36"/><ellipse class="cls-35" cx="71.54" cy="224.89" rx="29.93" ry="5.2"/><ellipse class="cls-36" cx="71.54" cy="224.89" rx="29.02" ry="5.04"/><ellipse class="cls-37" cx="71.54" cy="224.89" rx="28.1" ry="4.88"/><ellipse class="cls-38" cx="71.54" cy="224.89" rx="27.19" ry="4.73"/><ellipse class="cls-39" cx="71.54" cy="224.89" rx="26.28" ry="4.57"/><ellipse class="cls-40" cx="71.54" cy="224.89" rx="25.36" ry="4.41"/><ellipse class="cls-41" cx="71.54" cy="224.89" rx="24.45" ry="4.25"/><ellipse class="cls-42" cx="71.54" cy="224.89" rx="23.54" ry="4.09"/><ellipse class="cls-43" cx="71.54" cy="224.89" rx="22.62" ry="3.93"/><ellipse class="cls-44" cx="71.54" cy="224.89" rx="21.71" ry="3.77"/><ellipse class="cls-45" cx="71.54" cy="224.89" rx="20.8" ry="3.61"/><ellipse class="cls-46" cx="71.54" cy="224.89" rx="19.88" ry="3.46"/><ellipse class="cls-47" cx="71.54" cy="224.89" rx="18.97" ry="3.3"/><ellipse class="cls-48" cx="71.54" cy="224.89" rx="18.06" ry="3.14"/><ellipse class="cls-49" cx="71.54" cy="224.89" rx="17.14" ry="2.98"/><ellipse class="cls-50" cx="71.54" cy="224.89" rx="16.23" ry="2.82"/><ellipse class="cls-51" cx="71.54" cy="224.89" rx="15.32" ry="2.66"/><ellipse class="cls-52" cx="71.54" cy="224.89" rx="14.41" ry="2.5"/><ellipse class="cls-53" cx="71.54" cy="224.89" rx="13.49" ry="2.35"/><ellipse class="cls-54" cx="71.54" cy="224.89" rx="12.58" ry="2.19"/><ellipse class="cls-55" cx="71.54" cy="224.89" rx="11.67" ry="2.03"/><ellipse class="cls-56" cx="71.54" cy="224.89" rx="10.75" ry="1.87"/><ellipse class="cls-57" cx="71.54" cy="224.89" rx="9.84" ry="1.71"/><ellipse class="cls-58" cx="71.54" cy="224.89" rx="8.93" ry="1.55"/><ellipse class="cls-59" cx="71.54" cy="224.89" rx="8.01" ry="1.39"/><ellipse class="cls-60" cx="71.54" cy="224.89" rx="7.1" ry="1.23"/><ellipse class="cls-61" cx="71.54" cy="224.89" rx="6.19" ry="1.08"/></g></g></svg>