<svg xmlns="http://www.w3.org/2000/svg" xmlns:xlink="http://www.w3.org/1999/xlink" viewBox="0 0 376.66 135.85"><defs><style>.cls-1{fill:url(#linear-gradient);}.cls-2{fill:#e6e6e6;}.cls-3{fill:#e7e7e7;}.cls-4{fill:#e8e8e8;}.cls-5{fill:#e9e9e9;}.cls-6{fill:#eaeaea;}.cls-7{fill:#ebebeb;}.cls-8{fill:#ececec;}.cls-9{fill:#ededed;}.cls-10{fill:#eee;}.cls-11{fill:#efefef;}.cls-12{fill:#f0f0f0;}.cls-13{fill:#f1f1f1;}.cls-14{fill:#f2f2f2;}.cls-15{fill:#f3f3f3;}.cls-16{fill:#f4f4f4;}.cls-17{fill:#f5f5f5;}.cls-18{fill:#f6f6f6;}.cls-19{fill:#f7f7f7;}.cls-20{fill:#f8f8f8;}.cls-21{fill:#f9f9f9;}.cls-22{fill:#fafafa;}.cls-23{fill:#fbfbfb;}.cls-24{fill:#fcfcfc;}.cls-25{fill:#fdfdfd;}.cls-26{fill:#fefefe;}.cls-27{fill:#fff;}.cls-28{fill:url(#linear-gradient-2);}.cls-29{fill:url(#linear-gradient-3);}.cls-30{fill:url(#linear-gradient-4);}.cls-31{fill:url(#linear-gradient-5);}.cls-32{fill:url(#linear-gradient-6);}.cls-33{fill:url(#linear-gradient-7);}.cls-34{fill:url(#linear-gradient-8);}.cls-35{fill:url(#linear-gradient-9);}.cls-36{fill:url(#linear-gradient-10);}.cls-37{fill:url(#linear-gradient-11);}.cls-38{fill:url(#linear-gradient-12);}.cls-39{fill:#ba272d;}.cls-40{fill:#666;}</style><linearGradient id="linear-gradient" x1="50.08" y1="67.93" x2="376.66" y2="67.93" gradientUnits="userSpaceOnUse"><stop offset="0" stop-color="#a92e2d"/><stop offset="0.16" stop-color="#b9362b"/><stop offset="0.46" stop-color="#e24b25"/><stop offset="0.51" stop-color="#ea4f24"/><stop offset="0.69" stop-color="#db4327"/><stop offset="1" stop-color="#b9282e"/></linearGradient><linearGradient id="linear-gradient-2" x1="2974.11" y1="1608.01" x2="2974.11" y2="1492.24" gradientTransform="translate(-1431.55 3042.03) rotate(-90)" gradientUnits="userSpaceOnUse"><stop offset="0" stop-color="#e6e6e6"/><stop offset="1" stop-color="#ccc"/></linearGradient><linearGradient id="linear-gradient-3" x1="2906.63" y1="1461.88" x2="2966.4" y2="1461.88" gradientTransform="translate(-1431.55 3042.03) rotate(-90)" gradientUnits="userSpaceOnUse"><stop offset="0" stop-color="#aa2928"/><stop offset="0.2" stop-color="#ba2b29"/><stop offset="0.51" stop-color="#d92e2a"/><stop offset="0.7" stop-color="#ca2c29"/><stop offset="1" stop-color="#aa2928"/></linearGradient><linearGradient id="linear-gradient-4" x1="2906.18" y1="1472.22" x2="2987.52" y2="1472.22" gradientTransform="translate(-1431.55 3042.03) rotate(-90)" gradientUnits="userSpaceOnUse"><stop offset="0" stop-color="#d42229"/><stop offset="0.21" stop-color="#dc3227"/><stop offset="0.51" stop-color="#ea4f24"/><stop offset="0.7" stop-color="#e34025"/><stop offset="1" stop-color="#d42128"/></linearGradient><linearGradient id="linear-gradient-5" x1="2907.51" y1="1481.1" x2="3003.95" y2="1481.1" xlink:href="#linear-gradient-3"/><linearGradient id="linear-gradient-6" x1="2913.09" y1="1490.67" x2="3017.33" y2="1490.67" xlink:href="#linear-gradient-4"/><linearGradient id="linear-gradient-7" x1="2921.52" y1="1501.16" x2="3028.12" y2="1501.16" xlink:href="#linear-gradient-3"/><linearGradient id="linear-gradient-8" x1="2931.17" y1="1512.62" x2="3036.29" y2="1512.62" xlink:href="#linear-gradient-4"/><linearGradient id="linear-gradient-9" x1="2941.47" y1="1525.09" x2="3041.25" y2="1525.09" xlink:href="#linear-gradient-3"/><linearGradient id="linear-gradient-10" x1="2952.38" y1="1538.99" x2="3042.03" y2="1538.99" xlink:href="#linear-gradient-4"/><linearGradient id="linear-gradient-11" x1="2963.61" y1="1555.01" x2="3040.97" y2="1555.01" xlink:href="#linear-gradient-3"/><linearGradient id="linear-gradient-12" x1="2974.82" y1="1558.45" x2="2974.82" y2="1443.88" gradientTransform="translate(-1431.55 3042.03) rotate(-90)" gradientUnits="userSpaceOnUse"><stop offset="0" stop-color="#ca1f26"/><stop offset="1" stop-color="#a5171c"/></linearGradient></defs><title>Ресурс 36elements</title><g id="Слой_2" data-name="Слой 2"><g id="Layer_1" data-name="Layer 1"><path class="cls-1" d="M113.88,131.73a63.8,63.8,0,0,1,0-127.61h199a63.8,63.8,0,0,1,0,127.61Z"/><path class="cls-2" d="M312.86,14.73h-199a53.2,53.2,0,0,0,0,106.39h199a53.2,53.2,0,0,0,0-106.39Z"/><ellipse class="cls-2" cx="213.37" cy="67.93" rx="134.81" ry="53.2"/><ellipse class="cls-2" cx="213.37" cy="67.93" rx="133.07" ry="52.51"/><ellipse class="cls-3" cx="213.37" cy="67.93" rx="131.33" ry="51.82"/><ellipse class="cls-3" cx="213.37" cy="67.93" rx="129.58" ry="51.13"/><ellipse class="cls-4" cx="213.37" cy="67.93" rx="127.84" ry="50.44"/><ellipse class="cls-4" cx="213.37" cy="67.93" rx="126.1" ry="49.76"/><ellipse class="cls-5" cx="213.37" cy="67.93" rx="124.36" ry="49.07"/><ellipse class="cls-5" cx="213.37" cy="67.93" rx="122.61" ry="48.38"/><ellipse class="cls-6" cx="213.37" cy="67.93" rx="120.87" ry="47.69"/><ellipse class="cls-6" cx="213.37" cy="67.93" rx="119.13" ry="47.01"/><ellipse class="cls-7" cx="213.37" cy="67.93" rx="117.38" ry="46.32"/><ellipse class="cls-7" cx="213.37" cy="67.93" rx="115.64" ry="45.63"/><ellipse class="cls-8" cx="213.37" cy="67.93" rx="113.9" ry="44.94"/><ellipse class="cls-8" cx="213.37" cy="67.93" rx="112.16" ry="44.25"/><ellipse class="cls-9" cx="213.37" cy="67.93" rx="110.41" ry="43.57"/><ellipse class="cls-9" cx="213.37" cy="67.93" rx="108.67" ry="42.88"/><ellipse class="cls-10" cx="213.37" cy="67.93" rx="106.93" ry="42.19"/><ellipse class="cls-10" cx="213.37" cy="67.93" rx="105.18" ry="41.5"/><ellipse class="cls-11" cx="213.37" cy="67.93" rx="103.44" ry="40.82"/><ellipse class="cls-11" cx="213.37" cy="67.93" rx="101.7" ry="40.13"/><ellipse class="cls-12" cx="213.37" cy="67.93" rx="99.95" ry="39.44"/><ellipse class="cls-12" cx="213.37" cy="67.93" rx="98.21" ry="38.75"/><ellipse class="cls-13" cx="213.37" cy="67.93" rx="96.47" ry="38.06"/><ellipse class="cls-13" cx="213.37" cy="67.93" rx="94.72" ry="37.38"/><ellipse class="cls-14" cx="213.37" cy="67.93" rx="92.98" ry="36.69"/><ellipse class="cls-14" cx="213.37" cy="67.93" rx="91.24" ry="36"/><ellipse class="cls-15" cx="213.37" cy="67.93" rx="89.5" ry="35.31"/><ellipse class="cls-15" cx="213.37" cy="67.93" rx="87.75" ry="34.63"/><ellipse class="cls-16" cx="213.37" cy="67.93" rx="86.01" ry="33.94"/><ellipse class="cls-16" cx="213.37" cy="67.93" rx="84.27" ry="33.25"/><ellipse class="cls-17" cx="213.37" cy="67.93" rx="82.52" ry="32.56"/><ellipse class="cls-17" cx="213.37" cy="67.93" rx="80.78" ry="31.88"/><ellipse class="cls-18" cx="213.37" cy="67.93" rx="79.04" ry="31.19"/><ellipse class="cls-18" cx="213.37" cy="67.93" rx="77.29" ry="30.5"/><ellipse class="cls-19" cx="213.37" cy="67.93" rx="75.55" ry="29.81"/><ellipse class="cls-19" cx="213.37" cy="67.93" rx="73.81" ry="29.12"/><ellipse class="cls-20" cx="213.37" cy="67.93" rx="72.07" ry="28.44"/><ellipse class="cls-20" cx="213.37" cy="67.93" rx="70.32" ry="27.75"/><ellipse class="cls-21" cx="213.37" cy="67.93" rx="68.58" ry="27.06"/><ellipse class="cls-21" cx="213.37" cy="67.93" rx="66.84" ry="26.37"/><ellipse class="cls-22" cx="213.37" cy="67.93" rx="65.09" ry="25.69"/><ellipse class="cls-22" cx="213.37" cy="67.93" rx="63.35" ry="25"/><ellipse class="cls-23" cx="213.37" cy="67.93" rx="61.61" ry="24.31"/><ellipse class="cls-23" cx="213.37" cy="67.93" rx="59.86" ry="23.62"/><ellipse class="cls-24" cx="213.37" cy="67.93" rx="58.12" ry="22.93"/><ellipse class="cls-24" cx="213.37" cy="67.93" rx="56.38" ry="22.25"/><ellipse class="cls-25" cx="213.37" cy="67.93" rx="54.63" ry="21.56"/><ellipse class="cls-25" cx="213.37" cy="67.93" rx="52.89" ry="20.87"/><ellipse class="cls-26" cx="213.37" cy="67.93" rx="51.15" ry="20.18"/><ellipse class="cls-26" cx="213.37" cy="67.93" rx="49.41" ry="19.5"/><ellipse class="cls-27" cx="213.37" cy="67.93" rx="47.66" ry="18.81"/><ellipse class="cls-27" cx="213.37" cy="67.93" rx="45.92" ry="18.12"/><path class="cls-28" d="M113.88,14.73a53.2,53.2,0,0,0,0,106.39h2.22c4.74-3.25,11.74-8.35,20.62-15.67,15.47-12.75,39.74-37.53,39.74-37.53s-24.27-24.78-39.74-37.53C127.84,23.08,120.84,18,116.1,14.73Z"/><path class="cls-29" d="M60.21,135.4.45,75.64A67.93,67.93,0,0,0,60.21,135.4Z"/><path class="cls-30" d="M0,67.93a68.57,68.57,0,0,0,.45,7.71L60.21,135.4a67.74,67.74,0,0,0,21.12-.88l-80-80A68.21,68.21,0,0,0,0,67.93Z"/><path class="cls-31" d="M1.33,54.51l80,80a67.41,67.41,0,0,0,16.43-5.58L6.9,38.08A67.46,67.46,0,0,0,1.33,54.51Z"/><path class="cls-32" d="M6.9,38.08l90.87,90.87a67.55,67.55,0,0,0,9.15-5.4h0s1.55-1,4.43-3L15.52,24.7A68,68,0,0,0,6.9,38.08Z"/><path class="cls-33" d="M15.52,24.7l95.82,95.82c2.86-2.06,7-5.21,12.35-9.65L26.74,13.92A68.54,68.54,0,0,0,15.52,24.7Z"/><path class="cls-34" d="M26.74,13.92l96.95,96.95c2.4-2,5-4.25,7.86-6.78,1.23-1.09,2.52-2.28,3.84-3.52L40.58,5.75A67.8,67.8,0,0,0,26.74,13.92Z"/><path class="cls-35" d="M40.58,5.75l94.82,94.82c3.54-3.32,7.36-7.12,11.09-10.91L57.61.78A67.42,67.42,0,0,0,40.58,5.75Z"/><path class="cls-36" d="M67.92,0A68.4,68.4,0,0,0,57.61.78l88.87,88.87c3.84-3.91,7.57-7.82,10.78-11.22L79.9,1.07A68.38,68.38,0,0,0,67.92,0Z"/><path class="cls-37" d="M131.55,31.76C116,18,106.91,12.29,106.91,12.29h0a67.57,67.57,0,0,0-27-11.24l77.36,77.36c5.7-6,9.74-10.5,9.74-10.5S145.35,44,131.55,31.76Z"/><path class="cls-38" d="M126.9,67.22A57.29,57.29,0,1,1,69.61,9.93,57.35,57.35,0,0,1,126.9,67.22Z"/><circle class="cls-27" cx="69.61" cy="67.22" r="55.2"/><path class="cls-39" d="M47.25,48.09H37l-.57,4.05a11.38,11.38,0,0,1,1.7-.08A12,12,0,0,1,45.1,54a7.49,7.49,0,0,1,3.2,6.6c0,4.9-4.21,9.23-11.3,9.23a16.71,16.71,0,0,1-7.33-1.5l1.09-4.62a15.13,15.13,0,0,0,6,1.3C39.27,65,42,63.77,42,61s-2.15-4.37-7.41-4.37a22.83,22.83,0,0,0-3.56.24L32.75,43h14.5Z"/><path class="cls-39" d="M71.59,56.07c0,8.14-3.28,13.73-10,13.73s-9.8-6.12-9.84-13.57c0-7.61,3.24-13.65,10-13.65C68.83,42.59,71.59,48.86,71.59,56.07Zm-13.65.16c0,6,1.42,8.91,3.81,8.91s3.69-3,3.69-9c0-5.83-1.25-8.91-3.72-8.91C59.44,47.24,57.9,50.12,57.94,56.24Z"/><path class="cls-39" d="M88.47,50.4c0,5.51-3.48,8.38-7.29,8.38-4,0-7.17-3-7.17-7.94,0-4.7,2.88-8.26,7.37-8.26S88.47,45.91,88.47,50.4Zm-9.88.28c0,2.75.93,4.74,2.71,4.74s2.59-1.78,2.59-4.74c0-2.67-.73-4.74-2.63-4.74S78.59,48.06,78.59,50.69ZM81.5,69.8,96.61,42.59h3.32L84.79,69.8Zm25.92-8.46c0,5.51-3.48,8.38-7.29,8.38-4,0-7.13-3-7.17-7.94,0-4.7,2.87-8.26,7.37-8.26S107.42,56.84,107.42,61.34Zm-9.84.28c0,2.75.89,4.74,2.67,4.74s2.59-1.78,2.59-4.74c0-2.67-.69-4.74-2.59-4.74S97.58,59,97.58,61.62Z"/><path class="cls-39" d="M27.5,80a29,29,0,0,1,4.39-.3c2.73,0,4.5.49,5.88,1.54a6.36,6.36,0,0,1,2.43,5.41,7.29,7.29,0,0,1-2.39,5.82C36.3,93.7,34,94.3,31.18,94.3a28.35,28.35,0,0,1-3.69-.21ZM30.76,91.7a6,6,0,0,0,1.13.06c2.94,0,4.86-1.6,4.86-5,0-3-1.73-4.56-4.52-4.56a6.63,6.63,0,0,0-1.47.13Z"/><path class="cls-39" d="M45.66,80.83a1.63,1.63,0,0,1-1.75,1.62,1.63,1.63,0,1,1,0-3.26A1.62,1.62,0,0,1,45.66,80.83ZM42.32,94.15V83.73h3.24V94.15Z"/><path class="cls-39" d="M48.14,91.32a6.34,6.34,0,0,0,2.79.79c1,0,1.38-.34,1.38-.87S52,90.44,50.78,90c-2.15-.73-3-1.9-3-3.13,0-1.94,1.66-3.41,4.24-3.41a7,7,0,0,1,2.94.6l-.58,2.24a5.11,5.11,0,0,0-2.26-.6c-.79,0-1.24.32-1.24.85s.4.75,1.68,1.19c2,.68,2.81,1.68,2.83,3.22,0,1.94-1.53,3.37-4.52,3.37a7.37,7.37,0,0,1-3.37-.73Z"/><path class="cls-39" d="M65.24,93.89a7.89,7.89,0,0,1-2.9.47c-3.37,0-5.52-2-5.52-5.33,0-3,2.09-5.54,6-5.54a7.52,7.52,0,0,1,2.47.4l-.51,2.41A4.46,4.46,0,0,0,62.94,86,2.92,2.92,0,0,0,63,91.83a5,5,0,0,0,1.85-.32Z"/><path class="cls-39" d="M77.1,88.82a5.23,5.23,0,0,1-5.5,5.56A5.1,5.1,0,0,1,66.2,89a5.2,5.2,0,0,1,5.56-5.52A5.07,5.07,0,0,1,77.1,88.82Zm-7.55.11c0,1.79.75,3.13,2.13,3.13s2.07-1.26,2.07-3.13c0-1.56-.6-3.13-2.07-3.13S69.55,87.39,69.55,88.93Z"/><path class="cls-39" d="M88.93,90.8c0,1.36,0,2.47.08,3.35H86.2l-.15-1.47H86a3.72,3.72,0,0,1-3.26,1.7c-2.11,0-3.67-1.32-3.67-4.54V83.73h3.26v5.61c0,1.51.49,2.43,1.62,2.43a1.74,1.74,0,0,0,1.62-1.13,1.79,1.79,0,0,0,.11-.7v-6.2h3.26Z"/><path class="cls-39" d="M91.54,87.05c0-1.3,0-2.41-.09-3.33h2.81l.15,1.43h.07a3.81,3.81,0,0,1,3.22-1.66c2.13,0,3.73,1.41,3.73,4.48v6.18H98.19V88.37c0-1.34-.47-2.26-1.64-2.26a1.73,1.73,0,0,0-1.64,1.21,2.26,2.26,0,0,0-.13.81v6H91.54Z"/><path class="cls-39" d="M107.53,80.74v3h2.32v2.39h-2.32v3.77c0,1.26.3,1.83,1.28,1.83a5.34,5.34,0,0,0,1-.09l0,2.45a6.37,6.37,0,0,1-2.11.28,3.37,3.37,0,0,1-2.43-.9,4.31,4.31,0,0,1-.9-3.09V86.11H103V83.73h1.39V81.47Z"/><path class="cls-40" d="M171.77,37.14h-9V30.8h25.66v6.34h-9.12v27h-7.58Z"/><path class="cls-40" d="M221.61,47.15c0,10.95-6.64,17.59-16.4,17.59s-15.7-7.48-15.7-17c0-10,6.39-17.49,16.25-17.49C216,30.26,221.61,37.93,221.61,47.15Zm-24.12.45c0,6.54,3.07,11.15,8.12,11.15s8-4.86,8-11.34c0-6-2.87-11.14-8.07-11.14S197.49,41.1,197.49,47.59Z"/><path class="cls-40" d="M226.57,31.25a67.47,67.47,0,0,1,10.2-.69c6.34,0,10.45,1.14,13.67,3.57,3.47,2.58,5.65,6.69,5.65,12.58,0,6.39-2.33,10.8-5.55,13.52-3.52,2.92-8.87,4.31-15.41,4.31a65.51,65.51,0,0,1-8.57-.5Zm7.58,27.25a13.83,13.83,0,0,0,2.62.15c6.84,0,11.29-3.71,11.29-11.69,0-6.94-4-10.6-10.5-10.6a15.75,15.75,0,0,0-3.42.3Z"/><path class="cls-40" d="M268,55.62l-2.38,8.57h-7.83L268,30.8h9.91L288.3,64.19h-8.12l-2.58-8.57ZM276.51,50l-2.08-7.08c-.59-2-1.19-4.46-1.68-6.44h-.1c-.5,2-1,4.51-1.54,6.44l-2,7.08Z"/><path class="cls-40" d="M295.79,64.19V50.52L285.23,30.8h8.62l3.42,8c1,2.43,1.73,4.21,2.58,6.39h.1c.74-2.08,1.54-4,2.53-6.39l3.37-8h8.47l-11,19.47V64.19Z"/><path class="cls-40" d="M212,88.69c0,10.95-6.64,17.59-16.4,17.59s-15.7-7.48-15.7-17c0-10,6.39-17.49,16.25-17.49C206.38,71.79,212,79.47,212,88.69Zm-24.12.45c0,6.54,3.07,11.15,8.12,11.15s8-4.85,8-11.34c0-6-2.87-11.14-8.07-11.14S187.85,82.64,187.85,89.13Z"/><path class="cls-40" d="M216.93,105.73V72.34h8.82l6.94,12.23A97.1,97.1,0,0,1,238.14,96h.15a124,124,0,0,1-.64-13.92V72.34h6.94v33.39h-7.93l-7.13-12.88a124.07,124.07,0,0,1-5.79-11.79l-.15,0c.2,4.41.3,9.11.3,14.56v10.06Z"/><path class="cls-40" d="M251.12,72.34h7.58v27H272v6.34H251.12Z"/><path class="cls-40" d="M279.71,105.73V92.06L269.15,72.34h8.62l3.42,8c1,2.43,1.73,4.21,2.58,6.39h.1c.74-2.08,1.54-4,2.53-6.39l3.37-8h8.47l-11,19.47v13.92Z"/></g></g></svg>