<svg xmlns="http://www.w3.org/2000/svg" xmlns:xlink="http://www.w3.org/1999/xlink" viewBox="0 0 108.98 143.04"><defs><style>.cls-1{fill:url(#linear-gradient);}.cls-2{fill:#87171c;}.cls-3{fill:url(#linear-gradient-2);}</style><linearGradient id="linear-gradient" x1="54.45" y1="143.04" x2="54.45" y2="27.01" gradientUnits="userSpaceOnUse"><stop offset="0" stop-color="#d42027"/><stop offset="0.15" stop-color="#d42027"/><stop offset="0.23" stop-color="#d72f35"/><stop offset="0.35" stop-color="#da3e43"/><stop offset="0.68" stop-color="#d42128"/><stop offset="1" stop-color="#8a2028"/></linearGradient><linearGradient id="linear-gradient-2" x1="59.69" y1="41.2" x2="59.69" gradientUnits="userSpaceOnUse"><stop offset="0" stop-color="#8a2027"/><stop offset="0" stop-color="#8b2027"/><stop offset="0.05" stop-color="#d42027"/><stop offset="0.13" stop-color="#dc494e"/><stop offset="0.28" stop-color="#d42027"/><stop offset="0.7" stop-color="#d42027"/><stop offset="0.86" stop-color="#da3e43"/><stop offset="0.93" stop-color="#d42128"/><stop offset="1" stop-color="#8a2028"/></linearGradient></defs><title>Ресурс 15elements</title><g id="Слой_2" data-name="Слой 2"><g id="Layer_1" data-name="Layer 1"><path class="cls-1" d="M13.55,27c-5.62,0-7.4,12.07-6.47,25.33C8,65.82,12.81,81.78,12.81,99.81S10.2,143,10.2,143s36.25-24,48.26-24C70,119,98.7,143,98.7,143a217.06,217.06,0,0,0,2.6-40.5c-.65-18.7-4.77-36.72-5.71-50.21C94.65,39.08,96.43,27,102,27Z"/><path class="cls-2" d="M10.4,0C.46,0,0,12,0,12H34.81V0Z"/><path class="cls-2" d="M21.87,41.2C16.47,41.2,18.17,27,13.55,27h14.1V41.2Z"/><path class="cls-3" d="M94.45,0H10.4C28,0,26.56,41.2,21.87,41.2h84.05C110.61,41.2,112,0,94.45,0Z"/></g></g></svg>