<svg xmlns="http://www.w3.org/2000/svg" xmlns:xlink="http://www.w3.org/1999/xlink" viewBox="0 0 293.81 127.2"><defs><style>.cls-1{fill:url(#linear-gradient);}.cls-2{fill:#d42128;}.cls-3{fill:#ba272d;}.cls-4{fill:url(#linear-gradient-2);}.cls-5{fill:url(#linear-gradient-3);}.cls-6{fill:url(#linear-gradient-4);}.cls-7{fill:url(#linear-gradient-5);}.cls-8{fill:url(#linear-gradient-6);}.cls-9{fill:url(#linear-gradient-7);}.cls-10{fill:url(#linear-gradient-8);}.cls-11{fill:url(#linear-gradient-9);}.cls-12{fill:url(#linear-gradient-10);}.cls-13{fill:url(#linear-gradient-11);}.cls-14{fill:url(#linear-gradient-12);}.cls-15{fill:url(#linear-gradient-13);}.cls-16{fill:url(#linear-gradient-14);}.cls-17{fill:url(#linear-gradient-15);}.cls-18{fill:url(#linear-gradient-16);}.cls-19{fill:url(#linear-gradient-17);}.cls-20{fill:url(#linear-gradient-18);}.cls-21{fill:url(#linear-gradient-19);}.cls-22{fill:url(#linear-gradient-20);}.cls-23{fill:url(#linear-gradient-21);}.cls-24{fill:url(#linear-gradient-22);}.cls-25{fill:url(#linear-gradient-23);}.cls-26{fill:url(#linear-gradient-24);}.cls-27{fill:url(#linear-gradient-25);}.cls-28{fill:url(#linear-gradient-26);}.cls-29{fill:url(#linear-gradient-27);}.cls-30{fill:url(#linear-gradient-28);}.cls-31{fill:url(#linear-gradient-29);}.cls-32{fill:url(#linear-gradient-30);}.cls-33{fill:url(#linear-gradient-31);}.cls-34{fill:url(#linear-gradient-32);}.cls-35{fill:url(#linear-gradient-33);}.cls-36{fill:url(#linear-gradient-34);}.cls-37{fill:url(#linear-gradient-35);}.cls-38{fill:url(#linear-gradient-36);}.cls-39{fill:url(#linear-gradient-37);}.cls-40{fill:url(#linear-gradient-38);}.cls-41{fill:url(#linear-gradient-39);}.cls-42{fill:url(#linear-gradient-40);}.cls-43{fill:url(#linear-gradient-41);}.cls-44{fill:url(#linear-gradient-42);}.cls-45{fill:url(#linear-gradient-43);}.cls-46{fill:url(#linear-gradient-44);}.cls-47{fill:url(#linear-gradient-45);}.cls-48{fill:url(#linear-gradient-46);}.cls-49{fill:url(#linear-gradient-47);}.cls-50{fill:url(#linear-gradient-48);}.cls-51{fill:url(#linear-gradient-49);}.cls-52{fill:url(#linear-gradient-50);}.cls-53{fill:url(#linear-gradient-51);}.cls-54{fill:url(#linear-gradient-52);}.cls-55{fill:#8b2f34;}.cls-56{fill:#f5f5f5;}.cls-57{fill:#fff;}.cls-58{fill:url(#linear-gradient-53);}</style><linearGradient id="linear-gradient" y1="63.6" x2="293.81" y2="63.6" gradientUnits="userSpaceOnUse"><stop offset="0" stop-color="#b3b3b3"/><stop offset="0.31" stop-color="#b3b4b4"/><stop offset="0.75" stop-color="#dfdfdf"/><stop offset="1" stop-color="#f2f2f2"/></linearGradient><linearGradient id="linear-gradient-2" x1="20.95" y1="58.19" x2="57.41" y2="58.19" gradientUnits="userSpaceOnUse"><stop offset="0" stop-color="#ba272e"/><stop offset="1" stop-color="#ba272d"/></linearGradient><linearGradient id="linear-gradient-3" x1="20.87" y1="58.19" x2="57.31" y2="58.19" gradientUnits="userSpaceOnUse"><stop offset="0" stop-color="#b9272e"/><stop offset="1" stop-color="#b9272d"/></linearGradient><linearGradient id="linear-gradient-4" x1="20.79" y1="58.19" x2="57.21" y2="58.19" gradientUnits="userSpaceOnUse"><stop offset="0" stop-color="#b8272e"/><stop offset="1" stop-color="#b8272d"/></linearGradient><linearGradient id="linear-gradient-5" x1="20.71" y1="58.19" x2="57.11" y2="58.19" gradientUnits="userSpaceOnUse"><stop offset="0" stop-color="#b7272e"/><stop offset="1" stop-color="#b7272d"/></linearGradient><linearGradient id="linear-gradient-6" x1="20.63" y1="58.19" x2="57" y2="58.19" gradientUnits="userSpaceOnUse"><stop offset="0" stop-color="#b6282e"/><stop offset="1" stop-color="#b6282e"/></linearGradient><linearGradient id="linear-gradient-7" x1="20.54" y1="58.19" x2="56.9" y2="58.19" gradientUnits="userSpaceOnUse"><stop offset="0" stop-color="#b5282f"/><stop offset="1" stop-color="#b5282e"/></linearGradient><linearGradient id="linear-gradient-8" x1="20.46" y1="58.19" x2="56.8" y2="58.19" gradientUnits="userSpaceOnUse"><stop offset="0" stop-color="#b4282f"/><stop offset="1" stop-color="#b4282e"/></linearGradient><linearGradient id="linear-gradient-9" x1="20.38" y1="58.19" x2="56.69" y2="58.19" xlink:href="#linear-gradient-8"/><linearGradient id="linear-gradient-10" x1="20.3" y1="58.19" x2="56.59" y2="58.19" gradientUnits="userSpaceOnUse"><stop offset="0" stop-color="#b3282f"/><stop offset="1" stop-color="#b3282e"/></linearGradient><linearGradient id="linear-gradient-11" x1="20.22" y1="58.19" x2="56.49" y2="58.19" gradientUnits="userSpaceOnUse"><stop offset="0" stop-color="#b2282f"/><stop offset="1" stop-color="#b2282e"/></linearGradient><linearGradient id="linear-gradient-12" x1="20.13" y1="58.19" x2="56.39" y2="58.19" gradientUnits="userSpaceOnUse"><stop offset="0" stop-color="#b1292f"/><stop offset="1" stop-color="#b1292e"/></linearGradient><linearGradient id="linear-gradient-13" x1="20.05" y1="58.19" x2="56.28" y2="58.19" gradientUnits="userSpaceOnUse"><stop offset="0" stop-color="#b0292f"/><stop offset="1" stop-color="#b0292f"/></linearGradient><linearGradient id="linear-gradient-14" x1="19.97" y1="58.19" x2="56.18" y2="58.19" gradientUnits="userSpaceOnUse"><stop offset="0" stop-color="#af292f"/><stop offset="1" stop-color="#af292f"/></linearGradient><linearGradient id="linear-gradient-15" x1="19.89" y1="58.19" x2="56.08" y2="58.19" gradientUnits="userSpaceOnUse"><stop offset="0" stop-color="#ae2930"/><stop offset="1" stop-color="#ae292f"/></linearGradient><linearGradient id="linear-gradient-16" x1="19.81" y1="58.19" x2="55.97" y2="58.19" gradientUnits="userSpaceOnUse"><stop offset="0" stop-color="#ad2930"/><stop offset="1" stop-color="#ad292f"/></linearGradient><linearGradient id="linear-gradient-17" x1="19.73" y1="58.19" x2="55.87" y2="58.19" gradientUnits="userSpaceOnUse"><stop offset="0" stop-color="#ac2930"/><stop offset="1" stop-color="#ac292f"/></linearGradient><linearGradient id="linear-gradient-18" x1="19.64" y1="58.19" x2="55.77" y2="58.19" gradientUnits="userSpaceOnUse"><stop offset="0" stop-color="#ab2a30"/><stop offset="1" stop-color="#ab2a2f"/></linearGradient><linearGradient id="linear-gradient-19" x1="19.56" y1="58.19" x2="55.67" y2="58.19" gradientUnits="userSpaceOnUse"><stop offset="0" stop-color="#aa2a30"/><stop offset="1" stop-color="#aa2a2f"/></linearGradient><linearGradient id="linear-gradient-20" x1="19.48" y1="58.19" x2="55.56" y2="58.19" gradientUnits="userSpaceOnUse"><stop offset="0" stop-color="#a92a30"/><stop offset="1" stop-color="#a92a2f"/></linearGradient><linearGradient id="linear-gradient-21" x1="19.4" y1="58.19" x2="55.46" y2="58.19" gradientUnits="userSpaceOnUse"><stop offset="0" stop-color="#a82a30"/><stop offset="1" stop-color="#a82a30"/></linearGradient><linearGradient id="linear-gradient-22" x1="19.32" y1="58.19" x2="55.36" y2="58.19" xlink:href="#linear-gradient-21"/><linearGradient id="linear-gradient-23" x1="19.23" y1="58.19" x2="55.25" y2="58.19" gradientUnits="userSpaceOnUse"><stop offset="0" stop-color="#a72a30"/><stop offset="1" stop-color="#a72a30"/></linearGradient><linearGradient id="linear-gradient-24" x1="19.15" y1="58.19" x2="55.15" y2="58.19" gradientUnits="userSpaceOnUse"><stop offset="0" stop-color="#a62a31"/><stop offset="1" stop-color="#a62a30"/></linearGradient><linearGradient id="linear-gradient-25" x1="19.07" y1="58.19" x2="55.05" y2="58.19" gradientUnits="userSpaceOnUse"><stop offset="0" stop-color="#a52b31"/><stop offset="1" stop-color="#a52b30"/></linearGradient><linearGradient id="linear-gradient-26" x1="18.99" y1="58.19" x2="54.94" y2="58.19" gradientUnits="userSpaceOnUse"><stop offset="0" stop-color="#a42b31"/><stop offset="1" stop-color="#a42b30"/></linearGradient><linearGradient id="linear-gradient-27" x1="18.91" y1="58.19" x2="54.84" y2="58.19" gradientUnits="userSpaceOnUse"><stop offset="0" stop-color="#a32b31"/><stop offset="1" stop-color="#a32b30"/></linearGradient><linearGradient id="linear-gradient-28" x1="18.82" y1="58.19" x2="54.74" y2="58.19" gradientUnits="userSpaceOnUse"><stop offset="0" stop-color="#a22b31"/><stop offset="1" stop-color="#a22b31"/></linearGradient><linearGradient id="linear-gradient-29" x1="18.74" y1="58.19" x2="54.64" y2="58.19" gradientUnits="userSpaceOnUse"><stop offset="0" stop-color="#a12b31"/><stop offset="1" stop-color="#a12b31"/></linearGradient><linearGradient id="linear-gradient-30" x1="18.66" y1="58.19" x2="54.53" y2="58.19" gradientUnits="userSpaceOnUse"><stop offset="0" stop-color="#a02b31"/><stop offset="1" stop-color="#a02b31"/></linearGradient><linearGradient id="linear-gradient-31" x1="18.58" y1="58.19" x2="54.43" y2="58.19" gradientUnits="userSpaceOnUse"><stop offset="0" stop-color="#9f2c31"/><stop offset="1" stop-color="#9f2c31"/></linearGradient><linearGradient id="linear-gradient-32" x1="18.5" y1="58.19" x2="54.33" y2="58.19" gradientUnits="userSpaceOnUse"><stop offset="0" stop-color="#9e2c32"/><stop offset="1" stop-color="#9e2c31"/></linearGradient><linearGradient id="linear-gradient-33" x1="18.41" y1="58.19" x2="54.22" y2="58.19" gradientUnits="userSpaceOnUse"><stop offset="0" stop-color="#9d2c32"/><stop offset="1" stop-color="#9d2c31"/></linearGradient><linearGradient id="linear-gradient-34" x1="18.33" y1="58.19" x2="54.12" y2="58.19" xlink:href="#linear-gradient-33"/><linearGradient id="linear-gradient-35" x1="18.25" y1="58.19" x2="54.02" y2="58.19" gradientUnits="userSpaceOnUse"><stop offset="0" stop-color="#9c2c32"/><stop offset="1" stop-color="#9c2c32"/></linearGradient><linearGradient id="linear-gradient-36" x1="18.17" y1="58.19" x2="53.92" y2="58.19" gradientUnits="userSpaceOnUse"><stop offset="0" stop-color="#9b2c32"/><stop offset="1" stop-color="#9b2c32"/></linearGradient><linearGradient id="linear-gradient-37" x1="18.09" y1="58.19" x2="53.81" y2="58.19" gradientUnits="userSpaceOnUse"><stop offset="0" stop-color="#9a2c32"/><stop offset="1" stop-color="#9a2c32"/></linearGradient><linearGradient id="linear-gradient-38" x1="18.01" y1="58.19" x2="53.71" y2="58.19" gradientUnits="userSpaceOnUse"><stop offset="0" stop-color="#992d32"/><stop offset="1" stop-color="#992d32"/></linearGradient><linearGradient id="linear-gradient-39" x1="17.92" y1="58.19" x2="53.61" y2="58.19" gradientUnits="userSpaceOnUse"><stop offset="0" stop-color="#982d32"/><stop offset="1" stop-color="#982d32"/></linearGradient><linearGradient id="linear-gradient-40" x1="17.84" y1="58.19" x2="53.5" y2="58.19" gradientUnits="userSpaceOnUse"><stop offset="0" stop-color="#972d32"/><stop offset="1" stop-color="#972d32"/></linearGradient><linearGradient id="linear-gradient-41" x1="17.76" y1="58.19" x2="53.4" y2="58.19" gradientUnits="userSpaceOnUse"><stop offset="0" stop-color="#962d33"/><stop offset="1" stop-color="#962d32"/></linearGradient><linearGradient id="linear-gradient-42" x1="17.68" y1="58.19" x2="53.3" y2="58.19" gradientUnits="userSpaceOnUse"><stop offset="0" stop-color="#952d33"/><stop offset="1" stop-color="#952d32"/></linearGradient><linearGradient id="linear-gradient-43" x1="17.6" y1="58.19" x2="53.2" y2="58.19" gradientUnits="userSpaceOnUse"><stop offset="0" stop-color="#942d33"/><stop offset="1" stop-color="#942d33"/></linearGradient><linearGradient id="linear-gradient-44" x1="17.51" y1="58.19" x2="53.09" y2="58.19" gradientUnits="userSpaceOnUse"><stop offset="0" stop-color="#932e33"/><stop offset="1" stop-color="#932e33"/></linearGradient><linearGradient id="linear-gradient-45" x1="17.43" y1="58.19" x2="52.99" y2="58.19" gradientUnits="userSpaceOnUse"><stop offset="0" stop-color="#922e33"/><stop offset="1" stop-color="#922e33"/></linearGradient><linearGradient id="linear-gradient-46" x1="17.35" y1="58.19" x2="52.89" y2="58.19" gradientUnits="userSpaceOnUse"><stop offset="0" stop-color="#912e33"/><stop offset="1" stop-color="#912e33"/></linearGradient><linearGradient id="linear-gradient-47" x1="17.27" y1="58.19" x2="52.78" y2="58.19" xlink:href="#linear-gradient-46"/><linearGradient id="linear-gradient-48" x1="17.19" y1="58.19" x2="52.68" y2="58.19" gradientUnits="userSpaceOnUse"><stop offset="0" stop-color="#902e33"/><stop offset="1" stop-color="#902e33"/></linearGradient><linearGradient id="linear-gradient-49" x1="17.11" y1="58.19" x2="52.58" y2="58.19" gradientUnits="userSpaceOnUse"><stop offset="0" stop-color="#8f2e34"/><stop offset="1" stop-color="#8f2e33"/></linearGradient><linearGradient id="linear-gradient-50" x1="17.02" y1="58.19" x2="52.48" y2="58.19" gradientUnits="userSpaceOnUse"><stop offset="0" stop-color="#8e2f34"/><stop offset="1" stop-color="#8e2f34"/></linearGradient><linearGradient id="linear-gradient-51" x1="16.94" y1="58.19" x2="52.37" y2="58.19" gradientUnits="userSpaceOnUse"><stop offset="0" stop-color="#8d2f34"/><stop offset="1" stop-color="#8d2f34"/></linearGradient><linearGradient id="linear-gradient-52" x1="16.86" y1="58.19" x2="52.27" y2="58.19" gradientUnits="userSpaceOnUse"><stop offset="0" stop-color="#8c2f34"/><stop offset="1" stop-color="#8c2f34"/></linearGradient><linearGradient id="linear-gradient-53" x1="181.69" y1="59.51" x2="281.35" y2="59.51" gradientUnits="userSpaceOnUse"><stop offset="0" stop-color="#fff"/><stop offset="0.43" stop-color="#fcfcfc"/><stop offset="0.76" stop-color="#f2f2f2"/><stop offset="1" stop-color="#e6e6e6"/></linearGradient></defs><title>Ресурс 30elements</title><g id="Слой_2" data-name="Слой 2"><g id="Layer_1" data-name="Layer 1"><path class="cls-1" d="M232.23,0c-18.53,0-35,9.27-45.84,23.75H7.64A7.54,7.54,0,0,0,0,31.18V84.85c0,4.09,1.64,8,5.85,8H26.69l154.78,3.19c10.24,18.81,35.56,32.31,57.15,31.06,33.71-2,55.22-27.15,55.19-63.52C293.79,26,264.75,0,232.23,0Z"/><path class="cls-2" d="M7.86,25.91a5.31,5.31,0,0,0-5.31,5.31v16L23.81,25.91Z"/><polygon class="cls-3" points="23.82 25.91 2.56 47.16 2.56 69.17 45.82 25.91 23.82 25.91"/><path class="cls-2" d="M45.82,25.91,2.56,69.17V84.89a5.28,5.28,0,0,0,2.09,4.19L67.82,25.91Z"/><path class="cls-3" d="M67.82,25.91,4.65,89.08a5.27,5.27,0,0,0,3.22,1.11H25.54L89.82,25.91Z"/><polygon class="cls-2" points="89.82 25.91 25.54 90.19 47.54 90.19 111.83 25.91 89.82 25.91"/><polygon class="cls-3" points="111.83 25.91 47.54 90.19 69.55 90.19 133.83 25.91 111.83 25.91"/><polygon class="cls-2" points="133.83 25.91 69.55 90.19 91.55 90.19 155.84 25.91 133.83 25.91"/><polygon class="cls-3" points="155.84 25.91 91.55 90.19 113.55 90.19 177.84 25.91 155.84 25.91"/><path class="cls-2" d="M184.7,25.91h-6.86L113.55,90.19h22L224,1.74A57,57,0,0,0,184.7,25.91Z"/><path class="cls-3" d="M231.6,1.22a57,57,0,0,0-7.59.51L135.56,90.19h22L244.94,2.81A56.89,56.89,0,0,0,231.6,1.22Z"/><path class="cls-2" d="M244.94,2.81,157.56,90.19h22l81-81A56.55,56.55,0,0,0,244.94,2.81Z"/><path class="cls-3" d="M260.58,9.17l-81,81h4.94a57.46,57.46,0,0,0,7.85,9.21l80.46-80.46A57.4,57.4,0,0,0,260.58,9.17Z"/><path class="cls-2" d="M272.82,18.94,192.36,99.4a57.27,57.27,0,0,0,12.79,9.21L282,31.74A57.2,57.2,0,0,0,272.82,18.94Z"/><path class="cls-3" d="M282,31.74l-76.87,76.87a56.52,56.52,0,0,0,16.37,5.63l66.12-66.12A56.47,56.47,0,0,0,282,31.74Z"/><path class="cls-2" d="M288.56,58.18a57.08,57.08,0,0,0-.91-10.07l-66.12,66.12a56.47,56.47,0,0,0,22.47-.47l43.19-43.19A56.89,56.89,0,0,0,288.56,58.18Z"/><path class="cls-3" d="M287.19,70.58,244,113.77A57.13,57.13,0,0,0,287.19,70.58Z"/><path class="cls-4" d="M44.81,56.53,21,90.39H29.7l27.41-33a1.4,1.4,0,0,0,0-1.74L31.94,26H23.07Z"/><path class="cls-5" d="M44.72,56.53,20.87,90.39h8.79L57,57.39a1.4,1.4,0,0,0,0-1.73L31.91,26H23Z"/><path class="cls-6" d="M44.63,56.53,20.79,90.39h8.84l27.28-33a1.39,1.39,0,0,0,0-1.73L31.87,26h-9Z"/><path class="cls-7" d="M44.54,56.53,20.71,90.39h8.88l27.22-33a1.39,1.39,0,0,0,0-1.72L31.84,26h-9Z"/><path class="cls-8" d="M44.46,56.53,20.63,90.39h8.93l27.15-33a1.39,1.39,0,0,0,0-1.72L31.8,26H22.74Z"/><path class="cls-9" d="M44.37,56.53,20.54,90.39h9l27.08-33a1.39,1.39,0,0,0,0-1.71L31.77,26H22.65Z"/><path class="cls-10" d="M44.28,56.53,20.46,90.39h9l27-33a1.39,1.39,0,0,0,0-1.71L31.73,26H22.57Z"/><path class="cls-11" d="M44.19,56.53,20.38,90.39h9.07l27-33a1.39,1.39,0,0,0,0-1.71L31.7,26H22.49Z"/><path class="cls-12" d="M44.1,56.53,20.3,90.39h9.11l26.89-33a1.39,1.39,0,0,0,0-1.7L31.66,26H22.4Z"/><path class="cls-13" d="M44,56.53,20.22,90.39h9.16l26.82-33a1.39,1.39,0,0,0,0-1.7L31.63,26H22.32Z"/><path class="cls-14" d="M43.92,56.53,20.13,90.39h9.21l26.76-33a1.38,1.38,0,0,0,0-1.69L31.59,26H22.24Z"/><path class="cls-15" d="M43.84,56.53,20.05,90.39h9.25L56,57.37a1.38,1.38,0,0,0,0-1.69L31.56,26h-9.4Z"/><path class="cls-16" d="M43.75,56.53,20,90.39h9.3l26.62-33a1.38,1.38,0,0,0,0-1.68L31.52,26H22.07Z"/><path class="cls-17" d="M43.66,56.53,19.89,90.39h9.34l26.56-33a1.38,1.38,0,0,0,0-1.68L31.49,26H22Z"/><path class="cls-18" d="M43.57,56.54,19.81,90.39H29.2l26.49-33a1.38,1.38,0,0,0,0-1.67L31.45,26H21.91Z"/><path class="cls-19" d="M43.48,56.54,19.73,90.39h9.44l26.43-33a1.37,1.37,0,0,0,0-1.67L31.42,26h-9.6Z"/><path class="cls-20" d="M43.39,56.54,19.64,90.39h9.48l26.36-33a1.37,1.37,0,0,0,0-1.66L31.38,26H21.74Z"/><path class="cls-21" d="M43.31,56.54,19.56,90.39h9.53l26.3-33a1.37,1.37,0,0,0,0-1.66L31.35,26H21.66Z"/><path class="cls-22" d="M43.22,56.54,19.48,90.39h9.57l26.23-33a1.37,1.37,0,0,0,0-1.66L31.31,26H21.57Z"/><path class="cls-23" d="M43.13,56.54,19.4,90.39H29l26.16-33a1.37,1.37,0,0,0,0-1.65L31.28,26H21.49Z"/><path class="cls-24" d="M43,56.54,19.32,90.39H29l26.1-33a1.37,1.37,0,0,0,0-1.65L31.25,26H21.41Z"/><path class="cls-25" d="M43,56.54,19.23,90.39h9.71l26-33a1.37,1.37,0,0,0,0-1.64L31.21,26H21.32Z"/><path class="cls-26" d="M42.86,56.54,19.15,90.39h9.76l26-33a1.37,1.37,0,0,0,0-1.64L31.18,26H21.24Z"/><path class="cls-27" d="M42.77,56.54,19.07,90.39h9.8l25.9-33a1.36,1.36,0,0,0,0-1.63L31.14,26h-10Z"/><path class="cls-28" d="M42.69,56.54,19,90.39h9.85l25.83-33a1.36,1.36,0,0,0,0-1.63L31.11,26h-10Z"/><path class="cls-29" d="M42.6,56.54,18.91,90.39h9.9L54.57,57.34a1.36,1.36,0,0,0,0-1.62L31.07,26H21Z"/><path class="cls-30" d="M42.51,56.54,18.82,90.39h9.94l25.7-33.05a1.36,1.36,0,0,0,0-1.62L31,26H20.91Z"/><path class="cls-31" d="M42.42,56.54,18.74,90.39h10L54.37,57.33a1.36,1.36,0,0,0,0-1.61L31,26H20.82Z"/><path class="cls-32" d="M42.33,56.54,18.66,90.39h10L54.27,57.33a1.36,1.36,0,0,0,0-1.61L31,26H20.74Z"/><path class="cls-33" d="M42.24,56.54,18.58,90.39H28.66L54.17,57.33a1.36,1.36,0,0,0,0-1.61L30.93,26H20.66Z"/><path class="cls-34" d="M42.16,56.54,18.5,90.39H28.63L54.07,57.33a1.36,1.36,0,0,0,0-1.6L30.9,26H20.57Z"/><path class="cls-35" d="M42.07,56.54,18.41,90.39H28.59L54,57.33a1.35,1.35,0,0,0,0-1.6L30.86,26H20.49Z"/><path class="cls-36" d="M42,56.54,18.33,90.39H28.55L53.86,57.32a1.35,1.35,0,0,0,0-1.59L30.83,26H20.41Z"/><path class="cls-37" d="M41.89,56.55,18.25,90.39H28.52L53.76,57.32a1.35,1.35,0,0,0,0-1.59L30.79,26H20.32Z"/><path class="cls-38" d="M41.8,56.55,18.17,90.39H28.48L53.66,57.32a1.35,1.35,0,0,0,0-1.58L30.76,26H20.24Z"/><path class="cls-39" d="M41.71,56.55,18.09,90.39H28.45L53.56,57.32a1.35,1.35,0,0,0,0-1.58L30.72,26H20.16Z"/><path class="cls-40" d="M41.62,56.55,18,90.39H28.41l25-33.08a1.35,1.35,0,0,0,0-1.57L30.69,26H20.07Z"/><path class="cls-41" d="M41.54,56.55,17.92,90.39H28.37l25-33.08a1.35,1.35,0,0,0,0-1.57L30.65,26H20Z"/><path class="cls-42" d="M41.45,56.55,17.84,90.39h10.5L53.25,57.31a1.35,1.35,0,0,0,0-1.57L30.62,26H19.91Z"/><path class="cls-43" d="M41.36,56.55,17.76,90.39H28.3L53.15,57.31a1.35,1.35,0,0,0,0-1.56L30.59,26H19.83Z"/><path class="cls-44" d="M41.27,56.55,17.68,90.39H28.27L53.05,57.31a1.35,1.35,0,0,0,0-1.56L30.55,26H19.74Z"/><path class="cls-45" d="M41.18,56.55,17.6,90.39H28.23L52.95,57.3a1.34,1.34,0,0,0,0-1.55L30.52,26H19.66Z"/><path class="cls-46" d="M41.09,56.55,17.51,90.39H28.2L52.85,57.3a1.35,1.35,0,0,0,0-1.55L30.48,26H19.58Z"/><path class="cls-47" d="M41,56.55,17.43,90.39H28.16L52.75,57.3a1.34,1.34,0,0,0,0-1.54L30.45,26h-11Z"/><path class="cls-48" d="M40.92,56.55,17.35,90.39H28.12L52.64,57.3a1.34,1.34,0,0,0,0-1.54L30.41,26h-11Z"/><path class="cls-49" d="M40.83,56.55,17.27,90.39H28.09l24.45-33.1a1.34,1.34,0,0,0,0-1.53L30.38,26h-11Z"/><path class="cls-50" d="M40.74,56.55,17.19,90.39H28.05l24.39-33.1a1.34,1.34,0,0,0,0-1.53L30.34,26H19.24Z"/><path class="cls-51" d="M40.65,56.55,17.11,90.39H28l24.32-33.1a1.34,1.34,0,0,0,0-1.52L30.31,26H19.16Z"/><path class="cls-52" d="M40.56,56.55,17,90.39H28l24.26-33.1a1.34,1.34,0,0,0,0-1.52L30.27,26H19.08Z"/><path class="cls-53" d="M40.48,56.55,16.94,90.39h11l24.19-33.1a1.34,1.34,0,0,0,0-1.52L30.24,26H19Z"/><path class="cls-54" d="M40.39,56.55,16.86,90.39H27.91L52,57.28a1.33,1.33,0,0,0,0-1.51L30.2,26H18.91Z"/><path class="cls-55" d="M40.3,56.56,16.78,90.39h11.1L51.93,57.28a1.34,1.34,0,0,0,0-1.51L30.17,26H18.83Z"/><polygon class="cls-56" points="31.6 56.4 6.29 93.01 27.13 93.01 52.45 56.4 29.37 23.36 8.53 23.36 31.6 56.4"/><path class="cls-57" d="M59,64a15.18,15.18,0,0,0,6.6,1.64c2.74,0,4.18-1.13,4.18-2.85s-1.25-2.58-4.42-3.71c-4.38-1.52-7.23-3.95-7.23-7.78,0-4.49,3.75-7.93,10-7.93a16.13,16.13,0,0,1,6.72,1.33l-1.33,4.81A12.51,12.51,0,0,0,68,48.23c-2.58,0-3.83,1.17-3.83,2.54,0,1.68,1.49,2.42,4.89,3.71,4.65,1.72,6.84,4.14,6.84,7.86,0,4.42-3.4,8.17-10.63,8.17a17.24,17.24,0,0,1-7.46-1.6Z"/><path class="cls-57" d="M86.08,63.35,84.2,70.11H78l8.05-26.34H93.9l8.17,26.34H95.65l-2-6.76Zm6.68-4.45-1.64-5.59c-.47-1.56-.94-3.52-1.33-5.08h-.08c-.39,1.56-.78,3.56-1.21,5.08L86.94,58.9Z"/><path class="cls-57" d="M105.58,43.77h6V65.11H122v5H105.58Z"/><path class="cls-57" d="M141.22,59h-9.69v6.25h10.83v4.89h-16.8V43.77h16.26v4.89H131.53v5.47h9.69Z"/><path class="cls-57" d="M145.56,67a3.5,3.5,0,1,1,3.52,3.56A3.4,3.4,0,0,1,145.56,67Zm1.29-5.51-.9-17.7h6.21l-.86,17.7Z"/><path class="cls-57" d="M156,67a3.5,3.5,0,1,1,3.52,3.56A3.4,3.4,0,0,1,156,67Zm1.29-5.51-.9-17.7h6.21l-.86,17.7Z"/><path class="cls-57" d="M166.51,67A3.5,3.5,0,1,1,170,70.54,3.4,3.4,0,0,1,166.51,67Zm1.29-5.51-.9-17.7h6.21l-.86,17.7Z"/><circle class="cls-58" cx="231.52" cy="59.51" r="49.83"/><path class="cls-3" d="M191.56,61.22V57.37l3.52-3.19c6-5.32,8.85-8.38,8.93-11.57,0-2.22-1.34-4-4.48-4a9.87,9.87,0,0,0-5.83,2.27l-1.8-4.57a15.08,15.08,0,0,1,8.93-2.81c6.16,0,9.56,3.61,9.56,8.55,0,4.57-3.31,8.22-7.25,11.74l-2.52,2.1V56h10.27v5.24Z"/><path class="cls-3" d="M233,39.22H222.46l-.59,4.19a11.65,11.65,0,0,1,1.76-.09,12.46,12.46,0,0,1,7.17,2,7.75,7.75,0,0,1,3.31,6.83c0,5.07-4.36,9.56-11.7,9.56a17.33,17.33,0,0,1-7.59-1.55L216,55.36a15.68,15.68,0,0,0,6.16,1.34c2.64,0,5.45-1.26,5.45-4.15S225.35,48,219.9,48a23.33,23.33,0,0,0-3.69.25L218,34h15Z"/><path class="cls-3" d="M252.43,41.6c0,5.7-3.6,8.68-7.55,8.68-4.15,0-7.42-3.1-7.42-8.22,0-4.86,3-8.55,7.63-8.55S252.43,37,252.43,41.6Zm-10.23.29c0,2.85,1,4.91,2.81,4.91S247.7,45,247.7,41.9c0-2.77-.75-4.9-2.72-4.9S242.2,39.17,242.2,41.9Zm3,19.79,15.64-28.17h3.44L248.62,61.69Zm26.83-8.76c0,5.7-3.6,8.68-7.55,8.68-4.11,0-7.38-3.1-7.42-8.22,0-4.86,3-8.55,7.63-8.55S272.05,48.27,272.05,52.92Zm-10.19.29c0,2.85.92,4.9,2.77,4.9s2.68-1.84,2.68-4.9c0-2.77-.71-4.91-2.68-4.91S261.87,50.49,261.87,53.22Z"/><path class="cls-3" d="M225.22,82.34c0,6.88-4.17,11.05-10.3,11.05S205,88.69,205,82.71c0-6.29,4-11,10.21-11C221.7,71.73,225.22,76.55,225.22,82.34Zm-15.16.28c0,4.11,1.93,7,5.11,7s5-3.05,5-7.13c0-3.77-1.81-7-5.08-7S210.05,78.54,210.05,82.62Z"/><path class="cls-3" d="M228.33,72.07h12.83V76h-8.06v4.8h7.53v3.86h-7.53v8.44h-4.76Z"/><path class="cls-3" d="M244.73,72.07h12.83V76h-8.06v4.8H257v3.86h-7.53v8.44h-4.76Z"/></g></g></svg>