<svg xmlns="http://www.w3.org/2000/svg" xmlns:xlink="http://www.w3.org/1999/xlink" viewBox="0 0 235.7 162.52"><defs><style>.cls-1{isolation:isolate;}.cls-10,.cls-2,.cls-21,.cls-23,.cls-26,.cls-3,.cls-6,.cls-9{mix-blend-mode:multiply;}.cls-2{fill:url(#radial-gradient);}.cls-3{fill:url(#radial-gradient-2);}.cls-4{fill:#ffb06a;}.cls-28,.cls-5{fill:#ffd77a;}.cls-5{opacity:0.3;}.cls-19,.cls-5{mix-blend-mode:screen;}.cls-6{opacity:0.5;}.cls-7{fill:#caa15a;}.cls-8{fill:#77b818;}.cls-9{fill:#e6e6e6;}.cls-10{fill:#b3b3b3;}.cls-11{fill:#fdf7f7;}.cls-12{fill:#f3d4d4;}.cls-13{fill:#598a0f;}.cls-14{fill:#d60c00;}.cls-15{fill:#ff3c2d;}.cls-16,.cls-20{fill:#f2f2f2;}.cls-16{opacity:0.7;}.cls-17{opacity:0.39;}.cls-18{fill:#fff8d5;}.cls-19{opacity:0.49;}.cls-21,.cls-23{opacity:0.4;}.cls-22,.cls-23{fill:#919191;}.cls-24{fill:#be0100;}.cls-25{fill:#d13430;}.cls-26{fill:#966200;opacity:0.8;}.cls-27{fill:#ffbd00;}.cls-29{fill:#ae7033;}</style><radialGradient id="radial-gradient" cx="-823.35" cy="2088.54" r="120.09" gradientTransform="matrix(1, 0, 0, 0.54, 941.24, -1024.4)" gradientUnits="userSpaceOnUse"><stop offset="0"/><stop offset="0.2" stop-color="#4c4c4c"/><stop offset="0.4" stop-color="#8c8c8c"/><stop offset="0.57" stop-color="#bdbdbd"/><stop offset="0.72" stop-color="#e1e1e1"/><stop offset="0.84" stop-color="#f7f7f7"/><stop offset="0.92" stop-color="#fff"/></radialGradient><radialGradient id="radial-gradient-2" cx="-999.6" cy="2087.42" r="70.29" gradientTransform="matrix(1.05, 0, 0, 0.54, 1147.73, -1018.39)" gradientUnits="userSpaceOnUse"><stop offset="0.27"/><stop offset="0.41" stop-color="#4c4c4c"/><stop offset="0.55" stop-color="#8c8c8c"/><stop offset="0.67" stop-color="#bdbdbd"/><stop offset="0.78" stop-color="#e1e1e1"/><stop offset="0.86" stop-color="#f7f7f7"/><stop offset="0.92" stop-color="#fff"/></radialGradient></defs><title>Ресурс 8</title><g class="cls-1"><g id="Слой_2" data-name="Слой 2"><g id="elements"><ellipse class="cls-2" cx="117.85" cy="94.17" rx="120.08" ry="64.32" transform="translate(-18.34 29.3) rotate(-13.16)"/><ellipse class="cls-3" cx="95.05" cy="99.5" rx="74.01" ry="37.64" transform="matrix(0.97, -0.23, 0.23, 0.97, -20.16, 24.25)"/><path class="cls-4" d="M51.12,78.7c-5.65-6.32-5.64-16.89-3-24,8.8-23.7,47.38-10.54,87-42,7.62-6,14.79-13.36,24-12,10.62,1.57,20.93,14.22,21,25C180.34,60.61,73.27,103.47,51.12,78.7Z"/><path class="cls-5" d="M50.62,62.95q0-.28,0-.55c0-23.15,37.94-16.05,66-31.45C130.68,23.23,141.2,6.2,158.11,6.2c2.25,0,6.87,0,6.87,3.74,0,5.45-10.52,6-16.86,9.76C136.73,26.51,92.9,64.86,53.41,64.86,52.08,64.86,50.68,64.42,50.62,62.95Z"/><path class="cls-5" d="M50.76,55.86c.51,1,3.13,1.49,22.37-4.17,21.14-6.22,31.72-9.32,45-16,17.74-8.91,12.42-9.74,29-18,4.29-2.14,11.35-5.42,11-9-.18-1.82-2.2-3.14-4-4-2.3,1.06-5.82,2.74-10,5-16.66,9-18.19,13.37-29,19-12.42,6.46-25.91,8.78-33,10-6.26,1.08-12.56,1.7-20,6C56.07,48.2,49.75,53.87,50.76,55.86Z"/><g class="cls-6"><path class="cls-7" d="M56.46,60a3.35,3.35,0,0,0-3.09,2.9c0,.62,9.12,1.09,10.92,1.09C108.56,64,183.68,9.68,167,9.68c0,0-71.62,36.39-107.22,48A5.18,5.18,0,0,0,56.46,60Z"/></g><path class="cls-8" d="M98.95,7.85C102,12.15,105.4,16,104,14.73c-.37-.36-.58-.17-.2.2a3.65,3.65,0,0,0,.93.61s.61.71.57.68c-4.3-2.43-4.07-2.57-4.07-2.57-1.82-.36-.14.1.19.44s6,3.5,5,3.45-5,.45-6.51-.28c-.72-.36-1.28.76,6.43.43.45,0,.7,2.94.56,2.65-.45-1-3.86-.69-4.21-.71-2.95-.14-1.64-3-8-4.85-.32-.1-3.28.38-1,.22,4.07-.26,9.18,5.48,5,3.72a34.58,34.58,0,0,0-3.65.56A28.42,28.42,0,0,1,99,19.06a8.75,8.75,0,0,0,2.07.26c1.53,1.61,5.67-1.26,6,2.65.07.84,2.73,3.16,3,4,1.18,3.87-2-1.26-2.72-1.75s-.41-.46-1.61-.78a8.37,8.37,0,0,1-2.56-1.17c1.53,1.25.49.32-1,.35-.75,0-2.76-1-1.64-.32s5.35,1,6.65,2.06c.53.35,3,3-.37,1.46a68.1,68.1,0,0,0-10.44-4.49c-.79-.68-.92-.56-.12.13,1,.86,4,1.28,3.36,1.32-.5,0-.56.19,0,.16,1.29-.08,10.58,4.39,10.4,4.94,0,0-.55,1.73-.55,1.75s-.09,3.45-.07,3.48c.22.36.86,1.33.47,1.15-3.78-1.82-7.22-6.18-7.22-6.18-3.42-1.34-.06-.05.67,1,1.47,2.15,2.06,1.89-.35,1.37a5.6,5.6,0,0,0-2.24.11s3.61-.19,4.85,1.3c.55.66-3.44.28-3.87.2A5.2,5.2,0,0,1,99.63,31c-1.92-.17-.11.15.24.4,1.13.81.87.66,1.85.84,1.45.26,4.27,0,4.62.44.2.24-.93,0-1.25-.1a6.25,6.25,0,0,0-2.66,1.1c-1,.63-2.76,1.22-.78.69.79-.21,2.33-2.71,5.91-.82,1.24.66,1.68,1,1.35.83-1.11-.43-9.67,1-11,0-.18-.12-1.74-1.05-1.87-.83,0,0,1.33.69,1.76,1s-1.18.3-2.28,0-2-1.33-.93-.06a31.13,31.13,0,0,0,4.32.63c11.21-1,9.45-.54,12.66.32,1.45.39,2.3.33.8,1-.33.15-.36.47-.83.48s-1.67.56-2.15.43c-.84-.24.32-.12-1.81-.44s-.93-.48-2.74-.85a9.38,9.38,0,0,1-3.57.37l-1.77-.07a11.8,11.8,0,0,0-1.78.66l1.1,1.19c1.2,1.28-1.05.94-1.82,1-1.17.14-2.6-.84-1.68-.18,1.26.9,3.91-.33,2.88.82-1.38,1.7-1.32,1.46-3.68,1.06-1.09-.29-1.16-.14-.07.16.89.15,2.56.24,1.56,1.48s-2.49,1.22-1.44,1.24c.23,0,.32.14.19.29-.3.37-.2.48.16,0a1,1,0,0,1,1-.31c.14,0,3.35-1.58,3.59-1.64.53-.13-1.2.92-1.63,1.14a20,20,0,0,1-2.2.9c-1.28.56.58.1,2.26-.75,3.79-1.93.48-.6,4-.8.91-.05.54,0-.4,1-1.92,2.08,1.17-1,1.46-1.05a34.54,34.54,0,0,0,4.72-2.26c2.49-1.72.44,2.14-4,5.37-.49.55-1.93,2.13-.92.92,0,0,.4-.45.69-.75a20.72,20.72,0,0,1-5.34,2.8s-1.51,1.08-1.54,1.1a9.27,9.27,0,0,1-3.4,1.52c0,.09,1.41-.08,1.21.07,0,0-1.14.59-2.35,1.38-3,2-2.66,2.84-2.09,2,1.25-1.93,5.68-3.52,6-3.75,9.89-6.89,3.24-.46,2.07.21-2.6,1.49-5.78,4.23-3.45,2.81,0,0-.07-.38,3-2.34.43-.24-3.71,3.19-3.73,3.17.12.24,2.5-1.84,2.75-2.06,2-1.72,2.67-2.38,2.23-1.25a16.74,16.74,0,0,1-2.32,4c-1.34,3.32-2.31,3.79-3.17,5.24-1,1.69,1.56-1.79,2.14-2.67s1.66-3.5,1.36-2.42c-.12.46.4,3.52-.3,4.62-.28.43-1.94,1.72-.14.51,1.34-.9.17-5.09,1-5.89a36.73,36.73,0,0,0,1.76-3.38c.38-1,.4-1.1,1.94-2.41a12.61,12.61,0,0,0,1.49-1.69l4.66-3.79c.77-1.1,2.6-3.87,3.57-4.33s1.41-.58,1.08-.38a8,8,0,0,0-3,3.94,1.91,1.91,0,0,1,.16-.33c2.19-3.33,4.65-5.14,8.75-5.33-.69,0-1-.17.5-.32.33,0,.71-.43,1.37-.06.38.21,0,.33-.62.37.46,0,.94,0,1.44.09,2.1.36,1.3.24,3.38.51l.94.19c.27,0-.06.19-.33.32s-.51.26-.72.19a1.87,1.87,0,0,1-.31-.12c-.23-.1-.74-.24-1-.31a3,3,0,0,0-1.77-.3,52.34,52.34,0,0,0-7.41,1.29c-.32.19-1.51.31-1.51.65a2.09,2.09,0,0,0,1.14-.25,11.16,11.16,0,0,1,2-.54c-.48.13-.52.3.08.14s1.49-.13,1.36-.07c-2.05.95-2,1.71-4.05,2.88a16.46,16.46,0,0,1-1.72.8c.08.92,4.91-3.14,5.24-3.29a9.39,9.39,0,0,1,2.32-.65c.81-.39,1.81-1.25,4.76-.31l.58.19c.14.06-.35,0-.35.17s.6-.06.71,0,.55.15.72.2l.47-.15a1.41,1.41,0,0,1,0-.3c0-.36.25-.45.61-.39.17,0,.1.2,0,.37q.41-.25.8-.52c-.08-.21.9-1.19,1.34-1.55l1.46-1a5,5,0,0,0,.07.82l.15-.07a6,6,0,0,1,0-.89c0-.31.87-1.7.62-.17l-.13.79.11-.09.07,0c.24-1.62.48-2,1.53-2,.33,0,5,.52,4.47,1.1-.26.32-1.87,1.88-2.94,2.91a.84.84,0,0,1,.15.18c2-1.87,2.8-2.45,3-2.29a3.23,3.23,0,0,0,.25-.27c1.22-1.5,1.77.73,5.2-.63,1-.39.9-.06,1.42.39a6.1,6.1,0,0,0,.68.5l.22-.09c-.73-.38-1.71-1.09-.65-1.35s.5.23,1,1.21l.25-.08c-.48-.75-.62-1.3-.19-1.4a10.28,10.28,0,0,1,3.84-.53,7.52,7.52,0,0,1,2.52-.49c2.66-.1,5.11.87,7.51,1.49,1.89.49,7.13,1.72,6.9.2-1.13-.33-2.24-.7-3.31-1.09-1.35-.49-3.39-1.08-4.19-2.27-.67-1-.33-2.34-.31-3.66,0-1.91.41-4.5-.11-6.26-1.69-4.17-1.72-5-1.26-9.91l.1-1.26s-.21-.7-.22-.72-.46-.37-.49-.39c-.56-.43-.55-.48-.39-1.12s.07-.31.32-1.26a.07.07,0,0,0,0,0,7.13,7.13,0,0,1-.27-.76A6.61,6.61,0,0,1,155,3.51,2.54,2.54,0,0,1,155,3c0-.28,0-1.52,0-1.79a1.35,1.35,0,0,1,.19-.71c.25-.55.09-.6-.16,0,0,0-.2.44-.2.46a24.45,24.45,0,0,1-.24,4.49s.22.49.23.51c.29.6.32.58.2,1.05l-.33,1.35a.23.23,0,0,0,0,.08c0,.05-.07,0-.11,0a4.51,4.51,0,0,0-.47-.05c-.58-.05-.56.11-.23.14.17,0,.39.39.53.54.49.52.61,3.1.64,3.87,0,.4-.17,0-.71-.36s-1.1-.79-1.06-1.51c0-.18.07-.79.08-1,.11-1.27,0-.55,0-1.19,0,0,0-.34,0-.36a6.07,6.07,0,0,1-.45-1.11c-.16-.51-.33-.44-.16.08a4,4,0,0,0,.29.75c.33.74.15,2.71-.21.38,0,0-.43-.67-.44-.69a3.52,3.52,0,0,0-.39-.18c-.05,0-.36-.15-.38-.2s-.32-.9-.34-.92a6.26,6.26,0,0,1-.31-.75A10.58,10.58,0,0,1,150.38,4a10.59,10.59,0,0,1,.17-3.78,21.64,21.64,0,0,0-.66,2.62s.61,2.39.62,2.42c.13.35.5,1.2,0,.77s-.53-.72-1.32-1.68c-.67-.81-.81-.69-.15.11.45.55.86,1.19.59.93a1.45,1.45,0,0,0-.16-.15c-.14,0-1.45-.4-1.44-.55s-.15-.13-.16,0-.34,0-.34-.08-.19,0-.19,0a2,2,0,0,1-.26-.07,1.75,1.75,0,0,0-.24,0c-.21,0-1-1.07-1.08-1s.08.29.28.58-.1.58-.67.65c-1.36.19-1.41.35,0,.15,1.26-.17,1.41.32,1.62.63a.45.45,0,0,0,.15.07c.16.06.05,1.41.07,1.59,0,0,.24.78.24.79s.1.09.13.12-.07.63-.3.63h-.43c-.31,0-.43-.91-.48-1.2,0,0-1-1.25-1-1.27L145,6c-.47-.27-.56-.12-.11.14a3.85,3.85,0,0,1,1.41,2c.12.6-1.38.56-1.76.54.38,0,1.89.15,2,.77,0,.07,1.23,3.62,1.23,3.62,2.4,2.29,1.78,2.15,1.54,1.87-1.13-1.5-.87-1.23-1.33-1.46a1,1,0,0,1-.46-.53c-.13,0,0,.34-.19.33s-.23-.6-.35-.75c-1.2-1.38-.14.13,0,.42.16.48-1.52.4-2.23-.24-.56-.5-.39-.71-.21-1.05a.08.08,0,0,0,0-.07,4.74,4.74,0,0,0-.5-.72l-.26-.29a9.86,9.86,0,0,1-.71-2.44,8,8,0,0,0-.38-1.59c-.21-1-.11-.74-.43-1.14-.65-.83.09.36.27,1.21a8,8,0,0,1,.38,1.59c.16,1,.52,2,.36,1.9a25.7,25.7,0,0,0-2.11-2.65c-.74-.77-.87-.65-.13.12.9,1,2.23,2.75,2.23,2.76.32.29.57.57.82.84s.35,1.25-.49.49h0a8.19,8.19,0,0,1-1.8-.71c0-.14-.12-.15-.15,0s-.22,0-.46-.05c-.56-.18-.56-1.31-.55-1.92a24.48,24.48,0,0,0-.5-3.62s.52,5.37.37,5.32-.18.12,0,.17a8.6,8.6,0,0,1,.3,2s-.54-.21-.57-.21-.24-3-.27-.8c0,1-1,.9-1.15.61s-.51-.88-.61-1.06a7.11,7.11,0,0,1-.36-.63c0-.06,0-1.27,0-1.32a10.78,10.78,0,0,1-1.07-3.92c0-1.7.2-3.37-.1-2.12a11.29,11.29,0,0,0,0,2.59c0,.59.36,1.64.18,1.42s-.34-.82-.4-.8,0,.5-.18,0c0,0-.61-.68-.68-.62s-.55-.29-.66-.42c-.63-.64-.59-.59-1.15-2-.11-.29-.68-.22-.81-1a1.18,1.18,0,0,0,0-.2.87.87,0,0,1-.14-.5c0-.46-.2-.38-.18-.1s-.3.05-.17-.9-.07-.93-.17-.09-.14.21-.38.4a1.89,1.89,0,0,1,.2,1c-.09.67-.07.57-.1.77s0,.24-.5.12a5.57,5.57,0,0,1-1.6-.35,8.89,8.89,0,0,1-1.29-.91c-1.28-1-1.4-.81-.12.14A10.33,10.33,0,0,0,130,2.94s.43,0,.46,0a5.74,5.74,0,0,1,1.29.24,1.4,1.4,0,0,1,0,.55c-.54,3.65.48,2.13-2.77-.38-1.27-1-1.38-.82-.13.14A9.63,9.63,0,0,1,131,5.73a2.86,2.86,0,0,1,.33,1,16.81,16.81,0,0,0,.33,1.87c.25,1.15.11.8-.83,1.24a1.22,1.22,0,0,1-1.29-.11s0-.08,0-.14a2.71,2.71,0,0,0-.12-.26c-.15-.3-.14-.29-.09-1.32,0,0,0-.87,0-.89a13.58,13.58,0,0,1-.72-3.23c.13-.56-.06-.58-.2,0a4.77,4.77,0,0,0-.1.48,15.42,15.42,0,0,1,.78,3.53c0,.78-.11.47-.2.17a7.22,7.22,0,0,0-.63-1.48c-.11.06-.16-.42-.28-.37s.38,1.92.39,2,0,.43,0,.45.16.23.07.14-.86-1.29-.95-1.43-1-1.25-1-1.26-.78-.27-.83-.17a3.42,3.42,0,0,1,1.22.93,8.79,8.79,0,0,1,.92,1.28A6.11,6.11,0,0,0,129,9.59c.18.12.12.11.24.54,0,.17,0,.31-.13.31s-.22,0-.22,0-.35-.24-.45-.28l-.53-.26h-.06l-.8-.15H127a2.93,2.93,0,0,0-1.19-.14c-.54.09-.16-.08-.25-.32s-.29-.56,0-2.1a7.89,7.89,0,0,0,0-2.13l-.3,3c-.06.57-2.5-1.39-2.51-1.39s2.38,2,2.42,2.08c.82,2-5.62.69-2.64,1.26l.86.16c.36-.05,1.37-.23.94,0-2,1.08-1.58.94-2.86.33-1.49-.71-3.15-3.21-1.26-.41.38.56,4.44,1.35-.45,1-.33,0-4.91,1.75-1.36.6,1.84-.6,3.16-.32,2.83-.21l-.34.12c-2.09,1.33.35-.26,1.65-.17a8.48,8.48,0,0,1,2.18.62c.17.06.09-.24.22,1,.26,2.53-.9,1.22-3.08.45,0,0-2.11-.36-3.59-.75-1.76-.49-2.1-.15-1.31-.1,3.83.24-.82.45-2.22,0,0,0-.8-.24-.83-.24-2.83.33,2.72.5,5.47.85,7.81,1,3.69,3.28-.1,2.89-7,0-7.18.13,0,.16.33,0,2.36.41,3.58-.36,1.59-1,1.39-1-.25,1.14-2.62,3.37-2,2.86.13.08,1.89-2.46,1.3-2.86,4.95-.86.09,0,1.41.76,1.47.84s-.73.56-.75.58a3.66,3.66,0,0,1-1.19.72,5.07,5.07,0,0,1-2.19.07c-.49.53-3.34.44-3.67.65-1.78,1.14-.31.19,1.39,0,2.09-.25,2.5-.38.45.23-3.28,1-1.16,3.93-6.3-2.29-.72-.77-.91-.63-.18.16.32.39.82.93-.13.34-2.46-1.53,1.09.91,1.35,1.18a6.58,6.58,0,0,1,1.2,1.63c1,.75,1.49.62,0,2.06-1.68,1.61-1.57,1.72.12.09.56-.54,1.23-1.24,1.48-1.09,1.76,1.14.21.13-2.94,2.77a3.35,3.35,0,0,0-.84,3c.23.64.21,1-.57,1.65-.95.83-1.09,1-1.95.36-1.62-1.24-.45-4.93-3.6-8.48-2.79-4-2.61-1.53-2-5.1.73-4-.78-7.31-.58-9.92a34.12,34.12,0,0,0,.27-3.44,9.23,9.23,0,0,0-.27,1.73c-.28,2.67-.33,2,.23,5.74C110,21,106,16.92,106.48,14c.24-1.59-1.33,1.78,1.59,3.88a18,18,0,0,1-6.16-7.75c-.93-2.47-3.57-3.68-1.59-1.75a9.35,9.35,0,0,1,1.79,3.25c.46.85-2.91-3.29-3-4.3S98.73,7.56,98.95,7.85ZM96.27,50.58a2.06,2.06,0,0,1-.58.3C94.91,51,102.35,46.39,96.27,50.58Zm4.67-1.6s1.07-1.3,1.14-1.33A5,5,0,0,1,100.93,49ZM154.37,8.54a.45.45,0,0,1,.42.41C154.83,9.23,154.17,8.52,154.37,8.54Zm-25.85-1a10.54,10.54,0,0,1,.55,1.79C128.61,8.93,128.11,6.44,128.51,7.53ZM109.7,24.1a7.75,7.75,0,0,0-1.4-1.46c-.59-.73-.19-4.09.41-3.11A40.43,40.43,0,0,1,110,23.45C111.84,25.11,110.16,25.6,109.7,24.1Zm.88,2.49c.06-.77,1.87,2,.67,1.32S110.49,27.67,110.58,26.59ZM106,31.92c-.42-.5.43-.14.67.17S106.4,32.46,106,31.92Zm1.5.83a3.29,3.29,0,0,1,.63.59C109.26,34.69,104.54,31.37,107.45,32.76Zm1.15,5.31a19.84,19.84,0,0,1-3.34.79c-.32.1.74-.59,2.49-1C108.85,37.6,109.69,37.57,108.6,38.06Zm-4.75,2.83c-.92.62-4.47,1.5-2.64.84A26.44,26.44,0,0,1,105,39.08C109.19,37.83,105.1,40,103.85,40.9Zm2.35-4a18.89,18.89,0,0,1,2.49.47c-2.82-.06-5.3,3.63-8.8,1.59-.39-.23-.48-.06,1.47-1.24S104.73,35.79,106.2,36.92Zm-7.78.68c-.2-.27-.48-.52.33-.78s4.63-.48,2.44.85C99.17,38.89,99.71,39,98.42,37.6Zm1.35,1.51c.43.25.65.23,0,.23C98.33,39.34,99.45,38.92,99.77,39.11Zm-1.24,3.21c-1.5.75-2.25,1.42-2.91,1.41-.37,0,1.26-2.14,1.79-2C100.87,42.28,99.31,41.93,98.53,42.32Zm-.67-.73c-.6-.1-.86-.08.69-1.83.64-.73,3.44.25,5-.22.3-.09.57-.19-.18.3C100.31,41.82,101.3,42.16,97.86,41.59Zm6.35.31a3.15,3.15,0,0,1,.85-.38C105.57,41.42,103.59,42.3,104.22,41.9Zm3.86-1.9s-.87.59-.9.61c-.91.62-.58.48-1.6.65-1.78.37-2.08,1.26-3.52,1.35-1.91.12-2.44-.37-1.88-.42a25.12,25.12,0,0,0,2.91-.6c.57-.12,10-7.12,6.41-2.05C109.3,39.78,108.36,39.94,108.08,40Zm1.18-5.65c-.84-.7,1.88,1,3.91.82.33,0,2.29-.1,1.13.43C113.72,35.87,109.66,34.67,109.26,34.34ZM110.46,39c1.38-2.21,4.76-1.8,4.22-1.52C113.88,37.92,110,39.78,110.46,39Zm3.67-2.09c-3.82.32,1.55-.23,1.88-.33C117.78,36.09,116.85,36.94,114.13,36.94Zm-.46-.44c1.26-.58,4.92-.1,1.89,0C114.11,36.5,112.57,37,113.67,36.5Zm4.19-.44a7.23,7.23,0,0,0-1.8-.11c-2.31.14,0-.63.35-.7C116.9,35.16,118.22,36,117.86,36.06Zm.19-.27c-.64-.36-1.47-.83,1.19-.34C119.71,35.54,118.52,36.05,118.05,35.79ZM119.53,31a3.15,3.15,0,0,1-1.14.81c-.22,0-1.39-1.48-1.41-1.46s1,1.49.78,1.51-2.57-1.68-2.3-1.92c.1-.09.36-.12.69-.29.59-.31.79-.54.79-.35s.21.19.21-.11c0-.69,2.63-.86,4.38-1.9.62-.37.59-.59-.58,1.66-.94,1.81-1,1.83-1.28,1.86S119.4,31,119.53,31Zm10.23-10.37a2.82,2.82,0,0,1,1.86.52c1.1.68,1.4.6-.7.66l-4.61,1.67c-.56.29-2.09-.24-2.82-.6-1.93-1-.64-.71.68-.79A3.26,3.26,0,0,0,126.62,21C128,19.94,128.83,20.62,129.76,20.62ZM127.85,20c.47-.36,2.17.11,2.56.35S127.7,20.17,127.85,20Zm2-2.38c0,.09-.27-.19-.33-.25s.27-.54.56-.64,0,.42.06.6S129.85,17.64,129.86,17.67Zm6.33-2.32c-.11,0-.09.22.06.17s0,.31-.08.74c-.24,1-1.07-2.32-.89-2.24A6.39,6.39,0,0,1,136.18,15.35Zm.18-1c.37,0,.16,1-.16.42S135.85,14.34,136.37,14.31Zm9.26,2.55c-.19,0-.23-.29-.3-.59-.14-.65.71,0,1.09.2C147.78,17.24,148,17.37,145.63,16.86Zm1.31-1.65a1.74,1.74,0,0,0,.34.49c.63.49.56.33.46.82C147.51,17.59,147.09,15.57,146.94,15.22Zm4.59.73c0-.25.07-.11.1.3C151.68,17,151.39,17.25,151.53,16Zm-1.73-.81c0-.71,1.3,1.11,1.24,1.43S149.81,16,149.8,15.14Zm1.88-1.45c.11-.43.6.52.77.81a8.39,8.39,0,0,1,0,3.05C151.56,17.16,151.6,14,151.68,13.68Zm-.55-1.19c-.22,0,0-1.11,0-1.33C151.36,10.13,151.42,12.46,151.14,12.5Zm.4-2.57c.09-.31.11,1.31,0,.91A2.53,2.53,0,0,1,151.54,9.93Zm-.07,1.65c0-.3.19,0,.19.27S151.33,12.62,151.46,11.57Zm1.45.71c.52.61-.3.09-.76.12S151.34,10.43,152.92,12.28Zm-7.36,12.27.2.41c.34.69-2.64-.83-4.63-.9-1.83-.07-1.09-.24-1.18-3.12,0-1.22,0-1.24.21-1a31.46,31.46,0,0,0,4.52,3.11c1,0,.93.05.9.92,0,.17-.12.22-.25.1s-.27-.18-.3-.15S145.54,24.45,145.56,24.55Zm2.63,3.4c.79.69-12.48-5.59-5.44-3.45C147.66,26,144.66,24.83,148.19,28Zm-1.94-2.82c.5.43,0,.35-.23,0C145.94,24.94,146,25,146.25,25.13Zm-1.17,4.56c.75-.19.71-.06.12.09S144.33,29.88,145.08,29.69ZM144,30.8c.29-.06.74.23,0,.24S143.69,30.87,144,30.8Zm-2.18,2.54c.08.16.11.3.06.31a19.93,19.93,0,0,1-2.7-.2C138.92,33.23,141.62,32.94,141.84,33.34ZM142,33c3.46-.28,1.69.13.39.48C142.08,33.6,141.81,33,142,33Zm2.94-3c-.53.11.8-.31,1.13-.37.1,0,1.15.53,1.11.65A17.61,17.61,0,0,1,145,30.06Zm1.9-.2c-.56-.29-.51-.25.06-.23C147.77,29.65,147.46,30.16,146.88,29.86Zm.69-.52c-1.25-.3-3.09.54-3.66.25-2.8-1.86-4.67-4.7-3.91-4.26S148.17,29.48,147.56,29.33Zm-13-11.8c0,.15-.21,0-.33-.06s-.61.06-.65-.14S134.55,17.37,134.56,17.53Zm-1.22-1c-.82-2.84,1.13.14,1.16.45S133.58,17.3,133.35,16.49Zm-.06,1.1c.22,0,.39,1-.19.38S133,17.55,133.28,17.59ZM134.65,20c-.16.73-.83-1.49-.89-1.79C133.48,16.82,135.15,17.77,134.65,20Zm.41-2.35c.12.25-.21.36-.25,0C134.79,17.43,135,17.49,135.06,17.63Zm7.55-2.33c.24-.45.45,1-.09.5C142.46,15.75,142.5,15.52,142.61,15.31Zm-.88.41c-.18-.8.61-.24.31.35C142,16.24,141.82,16.08,141.73,15.72Zm1.1.65s0,.38,0,.77c0,1.26-1.43.43-.74-.89C142.45,15.62,142.49,16.26,142.83,16.37Zm9,2.52c0,.4-.14,0-.43-.37S151.49,15.83,151.83,18.89Zm.58-1.1c.32.14.27.25.24.43-.13.71,0,2.53-.52,1.31C152,19.36,152,17.64,152.41,17.8ZM151,19.21s1.36,1.62,1.41,1.67c.35.34-.2.82-.18,1.13.11,1.18-1.45.32-1.16-1.15C151.28,19.84,150.3,16.9,151,19.21Zm1.58,3.71a1.89,1.89,0,0,1-.07-1.22C152.61,21.47,152.91,23.41,152.59,22.92Zm-2.47-1.09c-2.88-.06-2.9-.15-2.75-1.16.41-2.74,0-2.16,1.26-1.76s2,.81,2.16,2C151.07,23,151,21.85,150.11,21.83Zm-8.24-1.05c-.33-.8-2.55-1.72.41-.53C149.33,23.1,142.45,22.19,141.88,20.78Zm3.29,2.11a3.63,3.63,0,0,1-1.29-.55C142.63,21.57,146.95,22.93,145.17,22.89Zm-4.65-2.83c-.23-.27.89.09,1.13.68C141.73,20.95,140.68,20.25,140.52,20.06Zm3.33-.86c-1.72-1.2.3-1.23,1,.31C145,19.8,145.36,20.26,143.84,19.2Zm.76,1.05c-.38-.42-1.2-.9-.69-.68C144.78,19.94,144.87,20.55,144.6,20.25Zm-1.23-1.16c.31.22-.22.32-.84-.69-.2-.32-.2-.52,0-.45C143.18,18.21,142.8,18.69,143.37,19.09Zm-.22.29a6.57,6.57,0,0,1,1.52,1.21C145.51,21.54,142.68,19.43,143.15,19.39Zm2.27,1.85a5.43,5.43,0,0,0-.37-.71c-1-1.72.78.93,1.57,1.1C147.9,21.89,145.51,21.63,145.43,21.24Zm2.2-3a2.19,2.19,0,0,1,0-.51c0-.08.58.58.65.65C148.94,19,148.36,18.71,147.63,18.21Zm-.79-.54c-1.07-.72.72-.3.67-.06S147.57,18.17,146.83,17.67Zm.57,1.05c0,.45-.07.32-.15.13s-2.5-1.7-1.55-1.63C146,17.24,147.43,18.2,147.4,18.72Zm-1.58-.7c.35.26,1.25.87,1.39,1.24s0,2.28-.32,2.22c-1.53-.32-1.53-2.62-3.24-3.28-.73-.28-1.06-1.92.46-1.4C146.24,17.54,145.17,17.54,145.82,18Zm-3.72.45c-.58-.37-.77-.29.05.24.26.16.88.51.55.54s-.22.19,0,.16.58.61.7.79,1.69,1,.16.35c-4.11-1.69-3.49-.81-3.91-2.53-.11-.47-.07-.7.7-.66C142.31,17.47,142.57,18.79,142.1,18.48Zm-3.78,4.46c-.17.2-.32-.26-.35-.48s.72.48.51.35C138.45,22.8,138.38,22.86,138.31,22.94Zm.39-.61c-.08.2-.86-.57-.89-.77C137.22,18,138.83,22,138.7,22.33Zm-1.26-1a5.44,5.44,0,0,1-.54-1.12s.13-.06.28-.08c.36,0,.31,0,.31.47C137.51,20.84,137.59,21.49,137.45,21.35Zm1.48.83s-.77-1.91-.78-2c-.15-.28,2-1.32,1.48,2.58-.12.92,0,.85-.5.25S138.83,22.41,138.92,22.18Zm-.13-2.39c-1.12.14-1.19-.12-.2-.14S139.85,19.66,138.79,19.79Zm-.62-.44c-.62,0-.65-.43.08-.18S138.82,19.32,138.17,19.35Zm-1.81,1c.58,1.31.83,1,1.17,1.75s.49,1.36-.17.51a11.65,11.65,0,0,1-1.17-1.13c-.56-.68-1.76-.84-1.1-1C135.27,20.39,136.31,20.2,136.37,20.35Zm.11,2.4a3.23,3.23,0,0,0-1-.27c-.32-.23-.41-.64.34-.15S136.8,23,136.48,22.76Zm-1.41-1.33c-.22-.25-.31-.62.13-.14S135.18,21.56,135.07,21.43Zm-.15-1.2c.19-3.93,1.72-.41.85-.15C135.66,20.11,134.91,20.33,134.91,20.23ZM137.06,19c.07-.54.48.43.31.43A.37.37,0,0,1,137.06,19Zm-.75.26c-.07-.21,0-.28.21-.17C137.26,19.51,136.48,19.71,136.31,19.21Zm-.19-.81c0-.14-.12-.25.38.05C137.68,19.16,136.14,18.9,136.12,18.4Zm.42-.29c-.12-.06-.37-.15-.39-.28-.07-.3.35-3.18.52-1.34C136.7,16.8,137.32,18.48,136.54,18.11Zm-.75.06c0,.21.06.21-.14.08C134.68,17.72,135.74,17.71,135.79,18.17ZM134.51,21c.16.47.33.37-.54.51-.65.1-2.16-.71-1.13-.87C133.38,20.62,134.34,20.58,134.51,21Zm.29.81c.21.63.6,1-.88.09C133.73,21.82,134.76,21.75,134.8,21.86Zm3.8,3.75c.83.87-2.68,1.15-2.17,1.26-2.1-.42-.86.49-3.17-1-1.4-.7-1.94-1-2.3-1.51-.52-.79-.23.24.09.46,3.42,2.4,3.67,1.29,2.19,2.45-.55.43-.61.52-1.22,0-3.11-2.82,2.23,1.7-1.6.27a15.56,15.56,0,0,1-1.92-1.92,6,6,0,0,0,1.83,2.07c1.57.58,1.81,0,.35.9-.55.34-.48.47.06.13.7-.44,1.07-.61,1.75-.23.35.19.62.32.36.47-.78.45-3.25,1.89-3.77,2.12-.86.37-.82,0-1.83.43s-.15.05-2.6.31c-1.41.15-3.75-.58-2.92-1.37C126.16,26.23,131,17.72,138.59,25.61Zm.87,1.87c.59.41-.18-.13-1.47-.3s-1.28-.23-.07-.52S138.56,26.83,139.47,27.47Zm.32-.55c.68,1.36-.67.09-.78-.21C138.82,26.22,139.64,26.64,139.79,26.92Zm-7,.85c.45-.19.88-.92,2.16-.86,1.62.09,1.49-.12-1.25,1.52C133.36,28.64,132.53,27.88,132.78,27.77Zm-.49.21c.28-.12.23,0,.6.35S132.13,28,132.29,28Zm-4.74,3.58a4.38,4.38,0,0,1,1.13-.12c3.71-1.61,4.26-2.93,3.29-1-.75,1.52-2.18,1.59-4.1,1.4C127,31.79,127.06,31.79,127.55,31.56Zm5.62-2.51c.46-.29.87,1,0,1.36a8,8,0,0,0-1,.42C131.78,31,132.76,29.31,133.16,29.06Zm.49.07c1.13.86,2.34.57.52.86C134,30,133.57,29.06,133.65,29.13Zm0-.24c-.11-.12.29-.34.45-.44,2.31-1.43,2.37-1.4,3.81-1.11a4.87,4.87,0,0,1,3,1.5c.93,1.09,1.1.9-.33.8C138.76,29.52,135.53,30.83,133.67,28.89Zm12.85-3.27c.76.11,1.17.92,2.14,2.44C148.81,28.34,145.37,25.45,146.52,25.62ZM145.6,22c-.12-.55,1.39.33,1.56,1,.07.26,1.41,1.08.43.48C145.65,22.28,145.78,22.82,145.6,22Zm2.46,1.35c-.19-.28.93.38.72.36C148.25,23.7,148.3,23.73,148.06,23.37Zm-.3-1.51c1.33.28,3.32-.11,3.31,1.09,0,1,2.79,4.75-.66,1.64C150.12,24.34,145.41,21.38,147.76,21.86Zm4,.85c.53.21,1,.5.84,1.11-.1.4-.15,2.4-.19,2.26C151.59,23.42,150.63,22.25,151.77,22.71Zm1,1.21c.11-.43.29.77.8,1.45s.31,1.33.06,2.06S152.19,26.06,152.74,23.92Zm.09-1.65c-.08-1.35,1.44.24,1.41.56a13.65,13.65,0,0,0-.27,2.42C154.05,26.22,153,24.39,152.84,22.27Zm-.14-2c0-.06,0-.84,0-.9.06-1.64.11-1.43.5-1.28,1.51.59,1.3,1.18,1.15,3C154.31,22.07,152.73,20.62,152.7,20.31Zm.25-2.56s.07-1.91.05-2.62c-.07-2,.18-2.74,1.51-.9.64.89-.28,2.58-.24,2.88C154.6,19.37,154.79,18.53,153,17.75Zm-.12-2.58a10.91,10.91,0,0,1,0,1.3C152.77,17.39,152.77,15.05,152.83,15.17Zm-.16-.65c-.59-1-1.49-2.52,0-1.83C153.14,12.88,152.8,14.74,152.68,14.52Zm-1.22-1.81c0-.22.34-.26.14.57C151.47,13.79,151.49,13.65,151.46,12.71Zm-.29,2c-.32.15-.36-2.05,0-2.1S151.47,14.61,151.17,14.75Zm-.26,5.87c-.16-1.2-6.35-4.63-.63-2.43C150.91,18.42,151,21.33,150.91,20.61Zm-3-3.6s0-.21,0-.41C148,16,151.89,19.29,147.89,17Zm-4-.49a1.62,1.62,0,0,1-.85-2c.14-.27,1.14.53,1.66.86C145,15.58,145.91,17.23,143.88,16.53ZM142.07,15c-.31-.78-.07-1,.76-.76C143.13,14.3,142.38,15.73,142.07,15Zm-.42-.44s.1.14.18.34C142,15.34,141.4,14.76,141.65,14.53Zm1.29-.55-.3-.1c-.16-.06.45-.31.63-.34S143.16,14.05,142.94,14Zm-1-.19c-.34,0-.61-.44-.61-.64,0,0,1.39,0,1.94,0C144.22,13.14,142.29,13.8,141.92,13.79Zm-.5.56c0-.12-.09-.26,0-.27C141.74,14.07,141.51,14.77,141.42,14.36Zm-.52,1.11c.58-.73.87.8.87,1.58s-.27.22-.6.2c-1.86-.09-1.42.18-1.85-1.72-.23-1-.53-1.1.82-1.28C140.75,14.17,139.65,17,140.89,15.47Zm-1.78,1a4.73,4.73,0,0,1-.2-1.29C139,14.46,139.88,19.31,139.12,16.5Zm-.38-1.33c-.27,2,2.36,5.08-.66,3.66-.71-.33-1.21-2.45-1.25-3.09,0,0-.22-.3-.21-.33a19.16,19.16,0,0,1,2.18-.72A4,4,0,0,1,138.73,15.17Zm-1-.35c-1.4.49-1.12-.52.08-.57S139,14.37,137.7,14.82Zm-3,1.59a18.16,18.16,0,0,1-.27-2.79C135.39,13.59,136.79,20.63,134.74,16.41Zm-.48-.49c-.43-.44-1.83-2.24-1.5-2.25l.71,0C134.39,13.62,134.52,16.18,134.26,15.91Zm-1.56-2.55c-.11-1.15,1.11-.43,1.27-.15S132.71,13.52,132.7,13.36Zm-.32,0c-.36-.55,0-1,.09,0C132.48,13.4,132.43,13.41,132.38,13.33Zm.55-.78c-.33,0-.42-.88.21-.27S133.38,12.52,132.93,12.55Zm-.19-.92a3.64,3.64,0,0,1-.06-.92c0-.31-1.17-.93.15-1.08s.34.82.78,2.33C133.86,12.85,133.06,11.79,132.73,11.63Zm-.5,0c.29.14.28,1,.15,1C131.82,12.62,132,11.47,132.23,11.6Zm-.64.76c-1.09-.35-.51-1-.83-1.55l.55.32C131.49,11.23,131.89,12.46,131.59,12.37Zm.29.59a.82.82,0,0,1,0,.3s-.87-.84-.88-.86S131.87,12.59,131.89,13Zm0,.55a8.82,8.82,0,0,1,1.32,3.59c-.06.15.56.41-.22.18-1.2-.35-.09.55-1.39-2C130.34,12.89,131.47,13.14,131.84,13.51Zm-.41,1.91c1,1.93.58,1.2.25,1.13-1.09-.24-1-.08-.9-.62C130.93,15.07,130.79,14.17,131.43,15.42ZM130.59,17c.14-.79,1.89,0,1,.3a4,4,0,0,1-.83,0C130.54,17.34,130.56,17.19,130.59,17Zm.35.67c1.46-.46,1.42-.12,2.11.71C136.75,22.89,128.9,18.29,130.94,17.65Zm-.31,1c.73.52.52,1.08,1.92,1.56.89.3.54.27-.08.36C131.55,20.72,130.09,18.27,130.63,18.66Zm1.9,2.61c.06,0,0,.11-.53-.2S131.79,20.66,132.53,21.27Zm1.21,1.07c.26.16-2.18-.27-2.76,0-3.46,1.74-3.29,1.72-4.29,1.74-.79,0-1.59.68-4,2.32a25.24,25.24,0,0,1-5.47,2.31c-.06,0-.07-.18,0-.22C118.7,26.71,131.34,20.9,133.74,22.34Zm-17,6.66c.33-.39.27,0-.48.41l0,0A2.21,2.21,0,0,0,116.75,29ZM123,26.38c10-6.77-1.81,4.64-2.31,4.45a1.08,1.08,0,0,0-.52-.1C120.48,30.46,121.55,27.35,123,26.38Zm-2.23,4.72a18.38,18.38,0,0,1-1.78.65c-.16,0,.83-.8,1.13-.83A.86.86,0,0,1,120.75,31.1Zm-1,.55c1.79-.68-2,1-1.24.38A12.19,12.19,0,0,0,119.76,31.65Zm.4.18c.87-.79.63-.75,1.87-.27s-1,.63-1.95.72C117.22,32.32,119.74,32.2,120.16,31.83Zm2.66,1.07a20,20,0,0,1,2.8-.22C117.75,34.3,117.26,33.48,122.82,32.9Zm-2.62,2.42c-.33.12-3.39-.14-1.69-.48C119.93,34.56,120.52,35.19,120.19,35.32Zm0-.51c-.27-.24-.05-.29.52-.4.33-.07,5.79-1,3.34-.5C122.92,34.16,120.87,35.42,120.15,34.81Zm1.51,1.29c1.56.46,2.79.4,3,1,0,.1.23.83.11.81C116.33,36.59,121,35.91,121.66,36.1Zm3.19,2.51c0,.14,0,.25-.07.24C123.81,38.59,124.87,38.29,124.85,38.61Zm.68-.75c-.37.17-.48,0-.54-.33s-.17-.54,0-.45.79.6.73.66Zm.75-.39c.33-.33.71-.57.26,0S125.95,37.78,126.27,37.46Zm1.53-1.3c-.06,0-.57.43-.61.48a5.52,5.52,0,0,0-1,.7c-.33.33-1.3-.35-1.86-1.68,0-.09-.36-.71-.46-.65s.26.66.3.74c.12.29.43.9,0,.71,0,0-.34-.17-.37-.17a5.7,5.7,0,0,1-2.26-.41c-.32-.1-.35,0,.78-.44l1-.35c-.58.66-.65,1.26-.13.49.21-.31.35-.58.68-.7.55-.2,4.55-1,4.22-.92,1.19-.24-1.78,1.49-1.79,1.32,0,.1.8-.13.91-.16.33-.09,2.1-1.79,2.07-1.19,0,.1-.37.11-.37.22s.08.06.18,0,.17.14.16.36C129.19,35.46,128.41,35.68,127.8,36.16Zm1.84-1.79c-.14.19-.25.21-.24,0C129.42,34,130,33.92,129.64,34.37Zm3.65-2.68-1.51.09c-.34,0,0-.57.34-.77C134.63,29.74,134.89,31.6,133.3,31.69Zm.88,1.89a3.36,3.36,0,0,1,2,.32,1.65,1.65,0,0,1,.29.44C136.42,34.39,131.66,33.73,134.18,33.58Zm2.22.27c-.36-.46,1.11-.47,1.64-.5.05,0,.33,0,.29,0C137.83,33.62,136.76,34.31,136.4,33.85Zm3.54-2.73c-.32-.14-1.6.17-.51.16.33,0-4.53.69-5-.39-.79-1.82,1,0,4.62-1a8.84,8.84,0,0,1,4.39.58C143.78,30.61,140.84,31.52,139.93,31.12Zm-1.57,3.62c-.32-.14-1.08-.09-.37-.57s.93-.71,1.15-.54,2,0,1.27.29c-3,1.18.45-.06,1,0C143.7,34.1,140.29,35.56,138.36,34.74Zm4.13-.56c-.61-.85,1.89-1,3-1C147.44,33.23,142.52,34.21,142.49,34.17Zm7.9-5.2c-1.43-.58-1.41-.74-1.56-1-.41-.64-.92-1.39,0-.55C150.19,28.54,152,29.64,150.38,29Zm-1.62-1.91c-6.39-5.53-1.05-3.83-.47-3,1.22,1.52,1,1.2,1.44,1.6.07.06-3.05-1.84-3.11-1.77S150,26.11,150,26.34,154.38,31.93,148.76,27.07Zm3.32,2.6c-.19-.08-.22-.29-.21-.51C151.88,28.72,152.94,30,152.08,29.66Zm1.42.17c-1.55-.49-1.58-1.82-1.82-2.09-5.52-6.2-1.75-3-.57-2.41C152.63,26.06,154,30,153.5,29.84Zm.68.21c-.52-.16-.53-.79-.37-.39S155.07,30.33,154.18,30.05Zm2.35.33c-.05.29,0,.52-.75.37s-.55,0-1.15-.77c-1.36-1.71-.85-2.42-.4-3.6.37-1-1-5.91,1.69-1.37C156.85,26.54,156.85,26.89,156.54,30.38Zm.23-9.49a2.3,2.3,0,0,1,.33,1.64,17.82,17.82,0,0,0,0,3c-.09.59-1.13-2-2.14-3-.58-.56-.37-1.36-.31-3.33A14.27,14.27,0,0,1,156.77,20.89Zm-.68-2.58c.21.68.84,2.27-.39,1.3-.94-.74-1.48-.92-.65-2.64C155.54,16,155.9,17.63,156.09,18.31Zm-.24-8.48c.26.84,0,.38-.57-.18C154.38,8.69,155.6,9,155.85,9.83Zm-.7-.06c.48.48.73.7.61,1.24s.25,7.76-.46,2.39C155.24,11.95,155,9.64,155.15,9.77Zm-.9,2.92c2.66,1.68-.81,7.9.7,2.64C155.36,13.83,151.21,10.78,154.24,12.69Zm-1.33-2.38c.35,1.44.17,1.88.08,1.78-2.33-2.75-.57-2.41-1.12-3.88C151.66,7.66,152.48,7.56,152.91,10.31Zm-1.7-3.26c.07.17,0,.25-.06.18-.58-.42.32.52.49.95.38,1-.75,3-.24,1.37,0-.09-.76-3.19-.79-3.21S151,6.57,151.21,7.05Zm-4.36-2.38c.33,0,.46.09.45.4s0,.31-.07.3S146.67,4.69,146.84,4.67Zm.64.46c0-.43.35-.34.31.1S147.47,5.57,147.48,5.13Zm1.18,0c1.56.47,2.33,2.32,1.59,1.38a12.72,12.72,0,0,0-1.55-.63C147.65,5.53,147.79,4.89,148.66,5.16Zm-1,1.32a7.73,7.73,0,0,0,0,1.41C147,7.36,147.87,4.31,147.7,6.47Zm.19,1c-.4-1.92.62-1.54,1.85-1s1.89,4.19,1.11,2.89c-.14-.24-.29-.41-.33-.38s.52.82-.23.2c-1.14-.94-.83-.05-1.93-.87C147.88,8,148,8.12,147.89,7.51ZM148,8.69c-.54,0-.31-.53.1-.23C148.31,8.59,148.27,8.69,148,8.69Zm-1.19.16c.44,0,.57-.21.66,1.42C147.65,12.59,146.34,8.82,146.86,8.85Zm.84,1.65c-.05-.9.15-1.63.45-1.63,1.93,0,2.87,1.27,2.77,1.6,0,.09-1.43-.39-.44.08.2.1.1,1-.23,2.09C149.68,14.47,147.92,14.57,147.7,10.49Zm2.69,2.33c1.09-3.54.22.13.24-.18-.13,1.82,1.38,4.86-.31,2.37C150.12,14.72,149.68,15.13,150.39,12.83Zm.49,4.69c-.15.85-3.09-.55-3.2-3.9C147.65,12.77,150.94,17.19,150.88,17.51Zm-3.52-4.09c.38,0-.09,1,0,1.24.72,1.7.1,1.06-.17.51S147.06,13.41,147.36,13.42Zm-1.22-.06c.35,0,.93,0,.86.38-.2,1.07.15,1.09-1,.06C145.44,13.29,145.81,13.35,146.14,13.36Zm-1.05,0c.2,0,1.1.83.71.7-.85-.28.51.16,1,1.27.76,1.76.39,1.35-.93.52-.94-.59-1.39-2.62-1.07-1.15.13.6,0,.47-.25.33-.49-.34-2.13-1.3-.35-1.6A2.25,2.25,0,0,1,145.09,13.32Zm-.15-.2s-.8-.15-.94-.15-.09-.14,0-.31C144.19,12.3,145.14,13.09,144.93,13.12ZM141.84,13c-.7-.1-.62-.25-.36-1.13C142,10.17,146.43,13.62,141.84,13Zm-.72-.45c-.06.21,0,.55-.15.23C140.13,11.3,142,9.7,141.12,12.51Zm-.59,1.11a2.16,2.16,0,0,1-.43-1C141.46,12.69,141.41,14.7,140.53,13.61ZM140,13c.21.67.73.89-.21.93s-.68-.81-.86-1.21C138.85,12.53,139.87,12.55,140,13Zm-1.15.46c.07,1.51-.25-.87-.24-.87C138.81,12.61,138.86,13.31,138.87,13.48Zm-.43-1.26c-.21-.27-.67-.63-.67-1.21A6.7,6.7,0,0,1,138.44,12.23Zm-.35,0c.24.27.91,1.81-.3,1.86-1,0-.8-.22-.73-.51C137.88,8.9,137.22,11.23,138.09,12.19Zm-1.26,1.35c-.3,1.23-1.69.21-2.47-.54-.47-.45-2.24-4.81,1.73-3.15C137.71,10.52,137.44,9.92,136.83,13.54ZM136,6.62c.21.25.48,1.1.17.51C136,6.84,135.39,5.92,136,6.62Zm-2-2.07c.13.32,0,.18-.55-.76C133,3.06,133.26,3,133.92,4.54Zm-1.84-2c0-.32.09-.87.28-.62C134,4,131.9,3.82,132.08,2.57Zm-.16,1.12c.14-.92,3.3,2.4,1.74,1.27a16.09,16.09,0,0,0-1.75-1S131.89,3.87,131.92,3.68Zm-.07.49,2.82,1.48a11.19,11.19,0,0,1,2,2.84C138,10.6,137,10,135,9.21c-.42-.18-1.67.94-1.26-1.86.1-.64-.21-.79-.27,1.24C133.49,9.88,130.89,10.64,131.84,4.17ZM130.92,10c1.18-.55.91-.14,1.1.14,1,1.4,0,1.67-.06.55,0-.76-.25-.65-.21,0s-.13.52-.33,0-.36-.39-.23,0-.28-.1-.6-.11S130.42,10.25,130.92,10Zm-.91.65c.86,0,.57.43.66,1s-.41-.07-.72-.39-.45-.19-.45-.19S129.5,10.64,130,10.66Zm-.12,1c-.45,0-.68-.56-.34-.32C129.59,11.43,130,11.7,129.88,11.7Zm-.28-1.24s0-.11-.05-.25C129.53,9.76,130.48,10.41,129.61,10.46Zm-6.4,1c-.3-.14-.51-.23-.08-.43,2.64-1.23,1.69-.87,1.67.46C124.79,12.17,125,12.08,123.21,11.42Zm1.76.43c0-.07.17-1.26.21-1.38a3.35,3.35,0,0,1,2.81-.15c.19.11,1.24.73,1.19,1A40,40,0,0,1,125,11.85Zm.1,1.18c0-.31-.16-.9.3-1a17.9,17.9,0,0,1,2.89-.45c1.45,0,1.12,0-1.83,1.23C126,13,125.22,14.48,125.07,13Zm-.1,1.34.25.5C125.44,15.28,124.43,15,125,14.37Zm1.62,1.14a1.61,1.61,0,0,1-1.19-.75c-.69-1.29,3.73-3.18,3.55-2.32-.91,4.57,0,4.24-2,3.08A2.26,2.26,0,0,0,126.59,15.51Zm1.6,1c.18.1.28-.05.47.22S124.53,14.39,128.19,16.47Zm.67-2.6c.39-1.83.28-2.28,1.23-1.86a1,1,0,0,1,.62.78c0,.18-1.18-.09-1.2,0s1.27.34,1.3.44a12.88,12.88,0,0,1-.29,2.1c-.3,1.51-.36,1.37-1.19,1.21S128.67,14.76,128.86,13.88Zm.46,2.82c.24,0,.32.16.18.27C129.18,17.2,128.73,16.58,129.32,16.69Zm-1.7,1.89c1.91-1.48,1.35-1.06,1.92-.68.12.08-1.29,1.26-1.21,1.34s1.41-1.21,1.6-1.08c.52.35.27.45.61,1.15s1.36,1.34.94,1.29a20.16,20.16,0,0,0-2.74-1c-1.26.29-1.57.75-3.21-.58C125.32,18.85,127.18,18.92,127.62,18.58Zm-7,2.64c.33-.32,4.09-2.78,5.1-1.73.54.57,2,.4.7,1.38-2,1.55-2.11.61-4.51,1.21A7.68,7.68,0,0,1,120.64,21.22Zm-3.19,6.72c-.45.43-2.09-3.6,4-5.5.65-.18,2.87,1.31,3.2,1.31C127.49,23.79,119.85,25.69,117.46,27.94Zm-4.61,1.79a8.45,8.45,0,0,1,1.19.89c-.27.22.47-.07.16.19-1.07.93-.62.32-1.18,1.1-.76,1.07.42-.31,1.18-.89.15-.13.23-.22.41-.09,1.6,1.08,1.22,1.1,0,1.22-.49,0-1.48.66-.45.31,1.83-.62,3.3.17,2.69.48-.36.18-.36.35.12.1.31-.16.53-.26.32,0s0,.29.13.07,3.33.48.24,1.09a4.16,4.16,0,0,1-3.27-.82c-.12.14,1.59,1.16,1.49,1.18a2.86,2.86,0,0,1-1.79.34c-1.35-.1-1.47.31-3-.29-2.54-1.14-1-7.08-.68-6.93a19.21,19.21,0,0,1,1.76,1.11C112.23,28.85,112.78,29.68,112.85,29.73Zm-3.46-9.09c1.51,2.48,1.86.9,3.14,5.21C115.43,35.72,108.76,19.61,109.39,20.64ZM112,22.82a8.94,8.94,0,0,1-2.8-3.19C107.49,16.84,112,22.82,112,22.82ZM107.61,18c.54.37.49.09.31,2-.24,2.6-.37,2.06-.56-.12C107.14,17.43,106.94,17.56,107.61,18Z"/><path class="cls-8" d="M48.16,53.4c5,1.56,10.1,2.61,8.22,2.38-.51-.06-.56.22,0,.28A3.65,3.65,0,0,0,57.46,56c.05,0,.91.19.87.2-4.9.67-4.8.43-4.8.43-1.67.81-.05.16.41.23S60.83,56,60,56.57,56.26,60,54.65,60.29c-.79.15-.56,1.38,5.38-3.55.37-.26,2.33,1.91,2.05,1.77-.94-.49-3.49,1.79-3.78,2-2.43,1.68-3.1-1.37-9.31,1-.32.12-2.38,2.29-.62.76,3.08-2.68,10.63-1.21,6.2,0A34.56,34.56,0,0,0,52,64.86a28.41,28.41,0,0,1,3-2.59,8.75,8.75,0,0,0,1.8-1c2.19.35,3.75-4.44,6.39-1.54.57.62,4.09.86,4.77,1.35,3.28,2.36-2.33.2-3.22.25s-.6-.12-1.75.35a8.37,8.37,0,0,1-2.74.62c2,.07.58,0-.56.87-.59.47-2.78.9-1.5.74s4.85-2.46,6.54-2.39c.64,0,4.18.56.6,1.39a68.1,68.1,0,0,0-11,2.76c-1-.06-1.07.12,0,.18,1.32.08,4-1.42,3.47-1s-.33.49.12.11c1-.85,11.08-2.92,11.27-2.37,0,0,.61,1.71.62,1.73s2,2.8,2.05,2.81c.39.15,1.49.54,1.07.63-4.11.84-9.49-.54-9.49-.54-3.53,1-.08,0,1.15.4,2.47.82,2.79.26.55,1.3-.47.22-1.79,1.3-1.71,1.44S66.14,68,68,68.41c.84.19-2.56,2.31-3,2.51a5.2,5.2,0,0,1-2.37.46c-1.64,1,0,.19.44.17,1.39,0,1.09,0,2-.45,1.31-.67,3.41-2.57,3.94-2.45.3.07-.76.54-1.06.68a6.25,6.25,0,0,0-1.45,2.49c-.38,1.08-1.46,2.64-.2,1,.5-.65.21-3.57,4.2-4.23,1.38-.23,1.91-.26,1.58-.16-1.15.34-7.11,6.62-8.72,6.7-.22,0-2,.22-2,.47,0,0,1.47-.26,2-.29s-.76,1-1.8,1.4-2.43.18-.78.51a31.11,31.11,0,0,0,3.82-2.11c8.3-7.6,7.19-6.15,10.27-7.42,1.38-.57,2-1.13,1.25.32-.17.32,0,.59-.37.88s-1,1.46-1.45,1.64c-.81.32.18-.28-1.71.75s-1,.18-2.69,1a9.38,9.38,0,0,1-2.61,2.46s-1.44,1-1.45,1a11.81,11.81,0,0,0-1,1.6l1.6.28c1.73.29-.27,1.38-.82,1.92-.85.82-2.57.91-1.45.88,1.55,0,2.91-2.63,2.79-1.09-.06,2.19-.17,2-2.28,3.07-1,.43-1,.59,0,.16.8-.42,2.19-1.36,2.14.24s-1.24,2.48-.39,1.86c.19-.14.34-.08.33.12,0,.48.13.5.15-.06s.34-.65.6-.85c.11-.08,1.7-3.29,1.86-3.48.35-.43-.39,1.46-.6,1.9a20,20,0,0,1-1.2,2c-.68,1.23.52-.27,1.34-2,1.84-3.83,0-.77,2.67-3,.69-.6.41-.36.28,1-.27,2.81.33-1.49.53-1.73A34.53,34.53,0,0,0,74.85,74c.94-2.87,1.64,1.44.11,6.67-.06.73-.24,2.87-.18,1.29,0-.06,0-.6.1-1a20.72,20.72,0,0,1-2.55,5.46s-.55,1.78-.56,1.81A9.27,9.27,0,0,1,70,91.52c.05.07,1.07-.92,1-.68,0,0-.55,1.16-1,2.53-1.18,3.36-.4,3.87-.48,2.83C69.3,93.9,71.86,90,72,89.57c3.69-11.48,2.3-2.33,1.77-1.09-1.16,2.76-2,6.87-1,4.33,0,0-.29-.26,1-3.69.19-.45-1,4.79-1,4.78.24.12.87-3,.94-3.31.54-2.57.68-3.51,1-2.35a16.74,16.74,0,0,1,.55,4.55c.95,3.45.46,4.42.65,6.09.23,2,.16-2.37.08-3.42-.09-1.22-.8-3.79-.38-2.75.18.44,2.45,2.55,2.56,3.86,0,.51-.5,2.54.2.49.52-1.53-2.95-4.16-2.8-5.27A36.74,36.74,0,0,0,74.82,88c-.29-1-.35-1.12.08-3.09a12.6,12.6,0,0,0,.16-2.25l1.41-5.84c-.05-1.34-.28-4.65.22-5.61s.77-1.31.63-1a8,8,0,0,0,0,5,1.91,1.91,0,0,1-.07-.35c-.28-4,.59-6.91,3.73-9.54-.58.38-.88.45.2-.56.24-.22.31-.77,1.05-.88.43-.06.17.28-.27.67.38-.27.77-.54,1.2-.8,1.89-1,1.18-.6,3-1.64l.86-.42c.24-.13.07.19-.07.46s-.24.52-.46.59a1.86,1.86,0,0,1-.32.09c-.24.06-.74.26-1,.35a3,3,0,0,0-1.59.84,52.35,52.35,0,0,0-5.11,5.51c-.13.35-1,1.16-.81,1.43a2.09,2.09,0,0,0,.76-.89,11.15,11.15,0,0,1,1.29-1.66c-.3.39-.23.56.15.06s1.11-1,1-.88c-1.06,2-.58,2.59-1.48,4.75a16.45,16.45,0,0,1-.88,1.68c.62.69,2-5.48,2.18-5.79a9.39,9.39,0,0,1,1.45-1.92c.41-.8.69-2.09,3.6-3.13l.57-.2c.15,0-.3.19-.17.35s.44-.41.55-.44.53-.21.69-.28l.28-.4A1.4,1.4,0,0,1,87.5,62c-.2-.3-.07-.51.25-.68.15-.08.2.1.19.32q.17-.45.32-.9c-.19-.12,0-1.49.12-2,0-.13.53-1.71.53-1.71a5,5,0,0,0,.55.62l.08-.15a6,6,0,0,1-.58-.68c-.18-.26-.34-1.88.39-.51l.38.71,0-.14,0-.08c-.8-1.44-.82-1.87,0-2.55C90,54,94,51.62,94,52.37c0,.41-.35,2.63-.57,4.1a.84.84,0,0,1,.23.05c.43-2.69.74-3.64,1-3.62a3.18,3.18,0,0,0,0-.36c.06-1.94,1.85-.49,3.75-3.65.55-.91.68-.59,1.37-.55a6.1,6.1,0,0,0,.84,0l.12-.21c-.81.14-2,.17-1.34-.68s.54-.12,1.57.33l.15-.21c-.83-.3-1.28-.66-1-1a10.28,10.28,0,0,1,2.73-2.75,7.52,7.52,0,0,1,1.71-1.92c2.06-1.69,4.6-2.4,6.87-3.36,1.8-.76,6.72-3,5.61-4-1.1.42-2.2.8-3.29,1.14-1.37.43-3.35,1.19-4.71.73-1.14-.39-1.68-1.66-2.46-2.73-1.13-1.55-2.4-3.83-3.88-4.91-3.87-2.29-4.42-3-7-7.12L95,20.55l-.61-.44s-.59,0-.62,0c-.71,0-.73-.05-1-.66l-.51-1.2,0,0a7.16,7.16,0,0,1-.68-.44A6.62,6.62,0,0,1,90.12,16a2.54,2.54,0,0,1-.26-.38c-.15-.24-.92-1.2-1.09-1.42a1.35,1.35,0,0,1-.28-.68c-.14-.59-.29-.53-.15.08,0,0,.11.47.12.49A24.45,24.45,0,0,1,91,17.74s.47.25.5.27c.6.3.6.27.8.71L92.84,20a.23.23,0,0,0,0,.06s-.07,0-.11,0a4.5,4.5,0,0,0-.4.24c-.49.31-.38.43-.1.25s.55.08.75.11c.71.12,2.36,2.1,2.85,2.69.25.31-.15.08-.79.14A1.74,1.74,0,0,1,93.33,23l-.53-.83c-.68-1.08-.33-.44-.73-.93,0,0-.21-.26-.23-.27a6.07,6.07,0,0,1-1-.61c-.44-.31-.53-.15-.08.16a4,4,0,0,0,.68.42c.71.39,1.77,2.07.06.43,0,0-.75-.28-.77-.28a3.54,3.54,0,0,0-.42.1,1.45,1.45,0,0,1-.43.07S89,20.7,89,20.7a6.28,6.28,0,0,1-.7-.41,10.59,10.59,0,0,1-1.6-1.16A10.59,10.59,0,0,1,84.56,16a21.62,21.62,0,0,0,1.07,2.48s1.94,1.53,2,1.55c.31.2,1.13.65.44.64s-.86-.25-2.07-.54c-1-.24-1.06-.06,0,.18.69.16,1.41.43,1,.38a1.45,1.45,0,0,0-.22,0c-.13,0-1.4.56-1.48.43s-.2,0-.14.09-.27.21-.32.15-.18.09-.16.11a2,2,0,0,1-.25.1,1.77,1.77,0,0,0-.18.17c-.15.15-1.46-.22-1.48-.17s.24.19.57.29.27.52-.13.93c-1,1-.91,1.13.13.09s1.32-.6,1.67-.49a.44.44,0,0,0,.16,0c.17-.05.9,1.09,1,1.22l.67.48a.49.49,0,0,0,.18,0c.18,0,.33.54.14.68l-.35.25c-.26.18-.89-.46-1.11-.66,0,0-1.53-.4-1.56-.41l-.42,0c-.54.07-.52.24,0,.18a3.85,3.85,0,0,1,2.32.71c.46.41-.76,1.28-1.07,1.5.32-.22,1.6-1,2.06-.61.05,0,3.18,2.13,3.18,2.13,3.3.37,2.72.63,2.36.55-1.81-.51-1.44-.45-1.95-.35a1,1,0,0,1-.69-.15c-.09.1.18.29,0,.38s-.55-.34-.74-.38c-1.79-.37,0,.18.23.36.41.28-1,1.24-1.92,1.16-.75-.06-.74-.33-.8-.71a.08.08,0,0,0,0-.06,4.74,4.74,0,0,0-.83-.27l-.38-.07a9.86,9.86,0,0,1-2-1.52,8,8,0,0,0-1.27-1c-.75-.65-.54-.52-1-.65-1-.26.29.24.95.8a8,8,0,0,1,1.26,1c.72.69,1.65,1.31,1.43,1.29a25.69,25.69,0,0,0-3.28-.83c-1.05-.16-1.08,0,0,.18,1.31.22,3.44.84,3.44.84.43,0,.8.11,1.16.17.51.1,1,.78-.09.68h0a8.18,8.18,0,0,1-1.86.53c-.05-.14-.18,0-.14.07s-.16.15-.4.24c-.56.19-1.24-.7-1.6-1.2a24.5,24.5,0,0,0-2.59-2.58s3.67,4,3.52,4-.07.21.08.15,1.31,1.25,1.42,1.37-.56.16-.58.18-2-2.24-.7-.47c.59.8-.27,1.34-.55,1.19s-.94-.39-1.13-.47A7.1,7.1,0,0,1,80.7,32s-.76-1-.81-1a10.78,10.78,0,0,1-3.23-2.47c-1.06-1.33-1.89-2.81-1.37-1.63A11.29,11.29,0,0,0,76.84,29c.39.44,1.28,1.08,1,1-.1,0-.77-.45-.8-.39s.31.39-.12.14c0,0-.9-.17-.92-.08s-.61.1-.78.06c-.89-.12-.82-.11-2.15-.92-.27-.16-.68.23-1.24-.3a1.19,1.19,0,0,0-.15-.14.87.87,0,0,1-.41-.31c-.31-.35-.39-.18-.2,0s-.2.22-.68-.61-.62-.7-.2,0,0,.26-.06.55a1.89,1.89,0,0,1,.77.68l.38.67c.13.23.17.17-.33.4s-1,.63-1.49.69a8.89,8.89,0,0,1-1.58.06c-1.59,0-1.61.21,0,.19a10.33,10.33,0,0,0,2-.11s.36-.23.39-.25a5.74,5.74,0,0,1,1.17-.59,1.4,1.4,0,0,1,.32.45c1.79,3.23,1.67,1.4-2.43,1.38-1.6,0-1.6.19,0,.19a9.63,9.63,0,0,1,3.09.41,2.86,2.86,0,0,1,.89.62,16.79,16.79,0,0,0,1.4,1.29c.89.76.57.57.09,1.49a1.22,1.22,0,0,1-1.09.69c-.06,0-.08,0-.12-.08a2.71,2.71,0,0,0-.25-.13c-.3-.15-.28-.14-.87-1,0,0-.49-.72-.51-.73a13.58,13.58,0,0,1-2.53-2.13c-.24-.52-.4-.42-.15.13a4.8,4.8,0,0,0,.21.44,15.42,15.42,0,0,1,2.76,2.33c.44.64.2.44-.05.26-.08-.05-1.35-.9-1.4-.79s-.38-.23-.45-.12,1.47,1.29,1.53,1.37.28.33.31.33.27.09.14.06-1.47-.51-1.62-.56-1.54-.4-1.57-.39-.79.26-.77.37a3.43,3.43,0,0,1,1.53,0,8.8,8.8,0,0,1,1.5.46,6.11,6.11,0,0,0,1.71.42c.21,0,.16,0,.52.28.14.11.18.25.09.32s-.17.14-.16.16-.42,0-.53,0l-.58.11-.05,0-.72.37,0,0a2.93,2.93,0,0,0-1,.61c-.37.4-.17,0-.4-.1s-.57-.27-1.29-1.66c-.08-.15-1.18-1.82-1.29-1.69l1.6,2.6c.3.49-2.83.41-2.83.42s3.09.13,3.19.19c1.89,1.13-4.05,4-1.34,2.6l.78-.4c.25-.26.95-1,.75-.56-.93,2.06-.69,1.7-2.08,2-1.61.34-4.45-.65-1.25.44.64.21,4.35-1.62.27,1.09-.27.18-2.84,4.37-.72,1.3,1.1-1.59,2.31-2.17,2.12-1.88l-.19.3c-.85,2.33.12-.41,1.21-1.14a8.47,8.47,0,0,1,2.11-.83c.17-.05-.08-.24.77.64,1.74,1.85,0,1.52-2.17,2.22,0,0-1.89,1-3.31,1.58-1.69.68-1.76,1.15-1.1.71,3.19-2.13-.38.85-1.75,1.37,0,0-.78.29-.8.31-2,2,2.47-1.25,4.87-2.64,6.81-3.94,4.92.38,1.67,2.36-5.58,4.21-5.64,4.46.06.15.28-.17,2.13-1.1,2.63-2.45.66-1.76.5-1.63.49,1.06,0,4.27.11,3.51.15,0,0-3.11-.7-3.06,3.41-3.68.1,0,1.58-.25,1.68-.22s-.24.89-.25.92a3.66,3.66,0,0,1-.51,1.29,5.07,5.07,0,0,1-1.7,1.39c-.07.72-2.39,2.37-2.52,2.74-.73,2-.13.34,1.1-.85,1.51-1.47,1.76-1.81.49-.09-2,2.76,1.46,3.83-6.4,2-1-.18-1.1.05,0,.23.49.11,1.21.24.1.35-2.88.28,1.42.07,1.78.12a6.59,6.59,0,0,1,1.94.57C73,51.3,73.36,50.9,73,53c-.36,2.29-.21,2.32.15,0,.12-.77.23-1.73.52-1.76,2.09-.16.25,0-.66,4a3.35,3.35,0,0,0,1.16,2.91c.57.37.75.64.54,1.66-.25,1.23-.25,1.46-1.33,1.46-2,0-3.35-3.65-8-4.56-4.61-1.45-3,.36-4.67-2.86-1.83-3.6-5-5.34-6.48-7.53a34.1,34.1,0,0,0-1.87-2.9,9.23,9.23,0,0,0,.84,1.54c1.4,2.29,1,1.8,3.66,4.42,8,7.85,2.4,7,1,4.37-.77-1.41,0,2.22,3.62,2.12a18,18,0,0,1-9.6-2.43c-2.24-1.4-5.07-.76-2.33-.43A9.35,9.35,0,0,1,53,54.45c.88.4-4.31-.85-5-1.62S47.81,53.29,48.16,53.4ZM71.93,89a2.06,2.06,0,0,1-.28.59C71.1,90.16,74.22,82,71.93,89Zm2.74-4.1c0,.05.06-1.68.1-1.75A5,5,0,0,1,74.67,84.9Zm18-64.56a.45.45,0,0,1,.59.07C93.43,20.62,92.48,20.45,92.65,20.34ZM71.48,35.22A10.54,10.54,0,0,1,73,36.31C72.41,36.27,70.5,34.59,71.48,35.22ZM66.55,59.8a7.74,7.74,0,0,0-2-.31c-.91-.22-2.63-3.14-1.56-2.72a40.41,40.41,0,0,1,3.44,2.32C68.87,59.3,67.83,60.71,66.55,59.8Zm2.21,1.45c-.42-.65,2.72.48,1.34.64S69.35,62.16,68.76,61.25Zm-.44,7c-.64-.15.26-.38.64-.28S69,68.45,68.32,68.29ZM70,68a3.29,3.29,0,0,1,.86.09C72.62,68.49,66.86,68.71,70,68Zm4.13,3.53A19.83,19.83,0,0,1,72,74.22c-.2.27.23-.92,1.37-2.3C74.06,71,74.71,70.52,74.15,71.57ZM72.08,76.7c-.35,1-2.65,3.9-1.59,2.26a26.44,26.44,0,0,1,1.44-4.44C74.48,71,72.57,75.27,72.08,76.7Zm-.54-4.58A18.92,18.92,0,0,1,73.81,71c-2.28,1.66-2,6.1-6,6.6-.45.06-.42.24.42-1.88S69.69,72.11,71.54,72.12Zm-5.78,5.25c-.33-.1-.7-.12-.21-.83S69,73.36,68,75.74C67.14,77.95,67.64,77.69,65.77,77.37Zm2,.38c.49-.06.66-.21.11.21C66.75,78.81,67.39,77.8,67.76,77.75Zm1,3.3c-.73,1.51-.93,2.49-1.46,2.88-.3.22-.29-2.46.19-2.71C70.55,79.61,69.1,80.28,68.72,81.06Zm-1-.17c-.54.28-.73.46-.56-1.88.07-1,2.89-1.88,3.81-3.18.18-.25.34-.5,0,.35C69.83,79.58,70.82,79.25,67.74,80.88ZM73,77.28a3.16,3.16,0,0,1,.45-.81C73.77,76.07,72.73,78,73,77.28Zm1.92-3.85s-.34,1-.35,1c-.34,1-.17.74-.88,1.49-1.19,1.37-.89,2.27-2,3.21-1.45,1.25-2.16,1.18-1.76.8a25,25,0,0,0,2-2.23c.38-.44,3.6-11.7,3.85-5.52C75.75,72.51,75.09,73.2,74.9,73.42Zm-2.49-5.21c-1.09,0,2.1-.34,3.61-1.72.24-.22,1.76-1.46,1.17-.34C76.89,66.72,72.93,68.23,72.41,68.21Zm3.8,3c-.24-2.6,2.7-4.32,2.44-3.77C78.26,68.25,76.3,72.09,76.21,71.21Zm1.65-3.89C75,69.89,79,66.2,79.16,65.92,80.25,64.44,80,65.67,77.86,67.32Zm-.63-.07c.65-1.23,3.85-3.06,1.48-1.17C77.57,67,76.66,68.32,77.23,67.25Zm3.07-2.89a7.22,7.22,0,0,0-1.5,1c-1.75,1.51-.36-.52-.14-.77S80.56,64.12,80.3,64.36Zm0-.33c-.73.1-1.67.23.74-1C81.46,62.83,80.82,64,80.29,64Zm-1.74-4.72a3.15,3.15,0,0,1-.42,1.34,10,10,0,0,1-2-.3s1.71.57,1.54.72-3.06.22-3-.13c0-.13.22-.31.37-.65.28-.6.3-.91.42-.76s.28,0,.11-.21c-.41-.56,1.57-2.28,2.33-4.17.27-.67.11-.83.54,1.67.35,2,.35,2,.11,2.26S78.46,59.4,78.55,59.32ZM80.4,44.87a2.82,2.82,0,0,1,1.79-.72c1.29-.13,1.48-.37-.16.95l-2.66,4.12c-.27.58-1.8,1.08-2.61,1.23-2.12.41-.94-.18.06-1a3.26,3.26,0,0,0,1.31-2.34C78.59,45.39,79.66,45.43,80.4,44.87Zm-1.86.7c.15-.57,1.79-1.23,2.25-1.27S78.49,45.76,78.54,45.57Zm.15-3.11c.07.06-.33,0-.42,0-.27,0-.11-.6.06-.85s.27.32.41.45S78.67,42.44,78.69,42.46Zm3.63-5.68c-.07.1.07.23.15.1s.21.23.39.64c.4.92-2.26-1.2-2.06-1.24A6.4,6.4,0,0,1,82.32,36.79Zm-.49-.94c.28-.23.71.67.13.43S81.43,36.18,81.83,35.85Zm8.91-3.59c-.18.09-.36-.09-.6-.29-.51-.43.54-.46,1-.5C92.68,31.26,93,31.2,90.74,32.26Zm0-2.1a1.74,1.74,0,0,0,.57.18c.8,0,.65-.08.86.37C92.68,31.7,91.13,30.35,90.79,30.16ZM94.88,28c-.13-.21,0-.13.26.18C95.63,28.69,95.57,29.08,94.88,28Zm-1.87.4c-.44-.56,1.7.09,1.85.38S93.55,29,93,28.36Zm.62-2.3c-.17-.4.79,0,1.11.18a8.39,8.39,0,0,1,1.88,2.41C95.64,28.9,93.77,26.37,93.63,26.06Zm-1.16-.61c-.16.16-.71-.86-.8-1.06C91.22,23.43,92.68,25.24,92.48,25.45Zm-1.24-2.29c-.12-.31.88,1,.55.72A2.53,2.53,0,0,1,91.24,23.16Zm.94,1.36c-.15-.26.16-.1.31.09S92.71,25.43,92.18,24.52Zm1.58-.32c.79.17-.19.25-.54.56S91.39,23.68,93.76,24.2Zm1.58,14.22.41.2c.69.34-2.6.94-4.23,2.09s-1,.47-2.83-1.77c-.77-1-.78-1-.42-.9a31.46,31.46,0,0,0,5.47-.27c.83-.61.77-.52,1.28.19.1.14,0,.25-.14.24s-.32,0-.33.07S95.27,38.35,95.35,38.42Zm4.15,1.11c1,.08-13.31,3.12-6.42.55C97.89,38.29,94.8,39.19,99.5,39.53Zm-3.25-1.07c.65,0,.18.3-.2.11C95.89,38.49,96,38.44,96.25,38.46Zm1.83,4.34c.48-.6.53-.48.15,0S97.6,43.4,98.08,42.8Zm-.17,1.53c.19-.22.72-.26.17.17S97.69,44.58,97.91,44.33Zm-.19,3.34c.16.07.27.17.24.21a19.93,19.93,0,0,1-2.27,1.47C95.33,49.35,97.3,47.48,97.72,47.67Zm0-.37c2.58-2.32,1.42-.92.6.14C98.07,47.73,97.52,47.45,97.69,47.3Zm.54-4.15c-.35.41.45-.73.67-1,.07-.08,1.24-.28,1.27-.16A17.61,17.61,0,0,1,98.23,43.15Zm1.39-1.31c-.62.11-.55.11-.09-.22C100.2,41.13,100.26,41.73,99.61,41.84Zm.23-.83c-1.17.52-2.13,2.3-2.76,2.41-3.35.22-6.57-.91-5.7-1S100.41,40.76,99.84,41ZM82.35,39.5c.1.11-.16.13-.3.15s-.45.42-.6.29S82.24,39.38,82.35,39.5Zm-1.6-.09c-2.38-1.76,1-.57,1.19-.34S81.43,39.91,80.75,39.41Zm.62.92c.18-.12.89.53.08.41S81.08,40.49,81.37,40.33ZM83.9,41.4c.31.68-1.56-.69-1.79-.89C81.06,39.6,83,39.34,83.9,41.4Zm-1.1-2.12c.25.13,0,.42-.21.14S82.67,39.21,82.81,39.28Zm4.6-6.43c-.09-.5,1,.55.23.46C87.55,33.3,87.44,33.1,87.4,32.85Zm-.45.86c-.63-.52.34-.56.46.09C87.44,34,87.24,33.95,87,33.71Zm1.26-.15s.25.3.49.59c.79,1-.88,1.2-1.13-.26C87.46,33.21,87.88,33.68,88.22,33.57Zm8.68-3.44c.28.29-.12.08-.57,0S94.78,27.89,96.91,30.12Zm-.2-1.23c.34-.09.37,0,.45.2.32.64,1.53,2,.38,1.36C97.36,30.36,96.32,29,96.7,28.9Zm-.26,2,2.14.47c.48.06.34.77.55,1,.8.87-1,1.13-1.62-.22C97,31.21,94.48,29.46,96.44,30.87Zm3.51,2a1.89,1.89,0,0,1-.79-.92C99.09,31.69,100.51,33.06,99.95,32.86Zm-2.63.63c-2.33,1.69-2.39,1.64-2.89.75-1.33-2.43-1.32-1.71-.07-2.17s2.08-.57,2.93.27C98.82,33.88,98.08,33,97.32,33.5Zm-7.19,4.16c-.75-.44-3.07.18,0-.67C97.47,35,91.45,38.43,90.13,37.65Zm3.9-.31a3.63,3.63,0,0,1-1.36.35C91.21,37.83,95.47,36.28,94,37.34Zm-5.42.57c-.35-.07.77-.47,1.31-.15C90.12,37.87,88.86,38,88.62,37.91Zm2.12-2.7c-2.1.09-.51-1.16,1-.38C92,35,92.59,35.13,90.74,35.21Zm1.24.37c-.56-.11-1.5,0-1-.12C91.94,35.23,92.38,35.66,92,35.58ZM90.3,35.4c.38,0,0,.39-1.08,0-.35-.14-.48-.29-.28-.35C89.61,34.82,89.6,35.43,90.3,35.4Zm0,.37a6.57,6.57,0,0,1,1.94,0C93.48,36,90,36.09,90.31,35.77Zm2.93.1a5.45,5.45,0,0,0-.72-.34c-1.8-.78,1.19.27,1.91-.08C95.6,34.88,93.54,36.12,93.24,35.86Zm-.09-3.74a2.18,2.18,0,0,1-.28-.43,4.28,4.28,0,0,1,.91.12C94.66,31.93,94,32.07,93.15,32.12Zm-1,.05c-1.29.07.4-.67.5-.45S93.09,32.12,92.19,32.17Zm1.09.49c.25.38.14.3,0,.19s-3,.16-2.22-.36C91.3,32.32,93,32.23,93.28,32.67Zm-1.68.41a5.22,5.22,0,0,1,1.85.14c.29.18,1.36,1.83,1.09,2-1.41.67-2.81-1.16-4.56-.65-.75.22-2-.88-.48-1.39C91.64,32.43,90.79,33.08,91.6,33.07Zm-2.69,2.62c-.68.06-.79.24.19.16.3,0,1-.13.77.09s-.06.28.13.11.83.13,1,.21,1.93-.25.33.18c-4.29,1.14-3.27,1.47-4.64.36-.37-.3-.47-.51.16-.95C88.47,34.76,89.48,35.64,88.92,35.69Zm-.31,5.84c0,.27-.41,0-.57-.17s.86-.06.62,0C88.64,41.34,88.61,41.42,88.61,41.53Zm-.06-.72c.06.21-1,.06-1.17-.07C84.74,38.26,88.45,40.46,88.55,40.81Zm-1.59,0a5.45,5.45,0,0,1-1.11-.56s.07-.13.17-.23.25-.18.53.18C86.7,40.34,87.16,40.81,87,40.79Zm1.68-.24c0-.05-1.77-1.06-1.81-1.08-.29-.13.79-2.26,2.74,1.16.46.8.5.68-.24.5S88.7,40.8,88.64,40.56Zm-1.56-1.82c-.81.79-1,.62-.25,0S87.85,38,87.08,38.73Zm-.76,0c-.48.4-.78.05,0-.19S86.82,38.34,86.32,38.76Zm-.83,1.89c1.26.69,1.28.3,2,.68s1.21.78.17.51A11.64,11.64,0,0,1,86,41.65c-.86-.2-1.91.4-1.51-.16C84.64,41.35,85.36,40.56,85.49,40.65ZM87,42.49a3.24,3.24,0,0,0-.92.36c-.39,0-.71-.26.18-.32S87.44,42.48,87,42.49Zm-1.93-.2c-.32-.06-.62-.3,0-.19C85.62,42.19,85.28,42.33,85.11,42.3Zm-.85-.87c-2.23-3.24,1.12-1.37.58-.63C84.78,40.89,84.32,41.51,84.26,41.43Zm.94-2.32c-.27-.47.64,0,.51.16A.37.37,0,0,1,85.2,39.12Zm-.44.66c-.19-.12-.16-.24.06-.26C85.69,39.44,85.2,40.07,84.76,39.78Zm-.64-.53c-.09-.11-.25-.12.33-.19C85.82,38.9,84.43,39.64,84.12,39.25Zm.16-.49c-.13,0-.38.1-.48,0S82.14,36,83.4,37.4C83.61,37.63,85.12,38.58,84.28,38.76Zm-.56.51c.15.15.17.13-.06.15C82.55,39.58,83.39,38.93,83.71,39.27Zm.72,3.06c.41.27.49.1-.12.73-.46.48-2.15.74-1.43,0C83.28,42.68,84,42.06,84.43,42.33Zm.73.47c.55.38,1.06.41-.65.6C84.28,43.42,85.06,42.73,85.16,42.8Zm5.29.68c1.19.18-1.43,2.54-1,2.32-1.92.94-.38.91-3.11,1.14-1.54.29-2.12.42-2.74.2-.89-.32,0,.33.35.31,4.17-.16,3.7-1.2,3.23.62-.17.67-.16.79-1,.71C82,48.41,89,48.78,85.11,50a15.56,15.56,0,0,1-2.69-.37,6,6,0,0,0,2.71.54c1.6-.49,1.44-1.1.83.5-.23.61-.1.66.13.07.29-.77.48-1.13,1.25-1.24.4-.06.68-.12.57.16-.35.83-1.44,3.47-1.72,4-.46.81-.67.47-1.19,1.45s-.09.13-1.88,1.82c-1,1-3.34,1.81-3.15.69C80.94,51.51,79.63,41.81,90.45,43.48Zm1.82,1c.72,0-.22,0-1.35.65s-1.16.6-.37-.37S91.16,44.48,92.27,44.44Zm-.08-.63c1.37.67-.48.47-.75.31C91,43.83,91.91,43.66,92.2,43.8Zm-5.06,4.92c.25-.42.14-1.27,1.2-2,1.34-.91,1.11-1-.07,2C88.13,49.07,87,49,87.14,48.73Zm-.27.46c.15-.26.16-.17.69-.09S86.79,49.34,86.87,49.19Zm-1.6,5.72a4.38,4.38,0,0,1,.82-.78c2-3.52,1.61-4.91,2-2.76C88.45,53,87.35,54,85.71,55,85,55.41,85,55.39,85.27,54.91Zm2.95-5.4c.19-.51,1.29.25.8,1.1a8,8,0,0,0-.51.92C88.32,51.93,88.06,50,88.22,49.52Zm.43-.24c1.42,0,2.21-1,.93.37C89.45,49.78,88.55,49.28,88.65,49.28Zm-.13-.2c-.16,0,0-.44.09-.63,1-2.53,1-2.55,2.36-3.19a4.87,4.87,0,0,1,3.32-.64c1.4.31,1.42,0,.22.84C93,46.49,91.18,49.5,88.52,49.08Zm8.24-10.4c.67-.37,1.49,0,3.18.65C100.24,39.46,95.74,39.25,96.76,38.68Zm-2.91-2.3c-.43-.36,1.31-.58,1.83-.17.21.17,1.78,0,.63.12C94,36.56,94.48,36.91,93.85,36.38ZM96.62,36c-.32-.1,1-.26.79-.15C97,36.11,97,36.1,96.62,36Zm-1.16-1c1.23-.59,2.57-2.1,3.3-1.14s5.1,2.08.47,1.7C98.85,35.48,93.31,36,95.47,34.95Zm3.71-1.76c.55-.15,1.1-.21,1.34.37.16.38,1.33,2,1.22,1.92C99.46,33.86,98,33.51,99.17,33.19Zm1.51.37c-.17-.41.7.43,1.52.67s1.05.87,1.3,1.61S101.54,35.6,100.68,33.56Zm-.93-1.37c-.89-1,1.29-.68,1.46-.41a13.64,13.64,0,0,0,1.25,2.09C103.12,34.6,101.14,33.8,99.75,32.19Zm-1.3-1.47S98,30,97.93,30c-.95-1.34-.78-1.21-.37-1.32,1.56-.44,1.75.15,2.75,1.71C100.8,31.14,98.67,30.94,98.46,30.72ZM97.1,28.53S96,27,95.56,26.41c-1.26-1.54-1.52-2.29.65-1.63,1.05.32,1.34,2.22,1.56,2.44C99.4,28.82,99,28,97.1,28.53Zm-1.65-2a10.89,10.89,0,0,1,.78,1C96.75,28.35,95.33,26.49,95.45,26.55Zm-.52-.42c-1.1-.48-2.71-1.11-1.08-1.48C94.31,24.54,95.16,26.23,94.93,26.13Zm-2.06-.7c-.14-.17.12-.41.45.37C93.53,26.28,93.46,26.16,92.87,25.42Zm1,1.8c-.17.31-1.53-1.41-1.3-1.64S94,26.93,93.87,27.22ZM97.22,32c-.86-.86-7.85.16-2-1.55C95.89,30.3,97.73,32.55,97.22,32Zm-4.58-1c-.05,0-.16-.14-.25-.33C92.11,30.08,97.2,30.39,92.64,31Zm-3.49,2A1.62,1.62,0,0,1,87.25,32c-.05-.3,1.23-.27,1.84-.32C89.47,31.62,91.19,32.38,89.15,33.06Zm-2.38-.15c-.72-.43-.68-.77.14-1.07C87.2,31.73,87.47,33.33,86.76,32.91Zm-.6-.09s.16,0,.35.16C87,33.23,86.11,33.15,86.17,32.82Zm.69-1.21-.3.1c-.16.05.17-.52.3-.65S87.08,31.52,86.86,31.6Zm-.93.47a.76.76,0,0,1-.87-.14s1.12-.83,1.53-1.19C87.36,30.15,86.23,31.85,85.93,32.07Zm-.06.75c-.09-.08-.23-.15-.14-.23S86.21,33.09,85.88,32.82Zm.26,1.2c0-.93,1.18.11,1.65.73s-.08.34-.35.52c-1.53,1.05-1,1-2.51-.24-.79-.66-1.09-.56-.12-1.52C85.23,33.08,86.09,36,86.13,34Zm-.79,1.89A4.74,4.74,0,0,1,84.4,35C84,34.36,87.66,37.7,85.34,35.92Zm-1.11-.82c1,1.72,5,2.61,1.69,3.31-.76.17-2.44-1.21-2.87-1.7,0,0-.36-.1-.37-.13A19.16,19.16,0,0,1,84,34.68,4,4,0,0,1,84.23,35.09Zm-1,.35c-.81,1.24-1.2.27-.28-.51S83.95,34.31,83.2,35.45ZM81.81,38.5a18.16,18.16,0,0,1-1.91-2.05C80.62,35.87,86,40.61,81.81,38.5Zm-.68-.1c-.61-.09-2.81-.68-2.56-.88l.55-.44C79.84,36.5,81.49,38.45,81.13,38.4Zm-2.79-1.08c-.78-.85.62-1,.92-.89S78.44,37.43,78.34,37.32Zm-.27.17c-.62-.22-.6-.79.09,0C78.18,37.48,78.16,37.52,78.06,37.48Zm0-1c-.25.21-.87-.45,0-.35S78.37,36.24,78,36.53Zm-.71-.62c-.08,0-.56-.62-.61-.69-.19-.25-1.49,0-.54-1s.77.45,2,1.38C78.95,36.2,77.67,35.85,77.32,35.91Zm-.41.28c.32-.06.81.6.71.69C77.19,37.25,76.62,36.25,76.9,36.2Zm0,1c-1.08.39-1-.5-1.6-.73l.63-.07C76.09,36.35,77.15,37.09,76.86,37.19Zm.59.29a.82.82,0,0,1,.17.24s-1.21-.14-1.22-.15S77.21,37.21,77.45,37.48Zm.3.47A8.82,8.82,0,0,1,81,40c0,.16.69,0-.07.28-1.17.45.26.49-2.32-.75C76.18,38.37,77.22,37.88,77.74,38Zm.83,1.77c2,.94,1.19.61.89.75-1,.47-.84.54-1.1.05C78,39.75,77.31,39.12,78.57,39.72Zm.28,1.74c-.37-.71,1.52-1.13,1-.35a4,4,0,0,1-.67.49C79,41.79,79,41.66,78.86,41.47Zm.68.33c.88-1.25,1.06-1,2.11-.71C87.34,42.43,78.31,43.54,79.54,41.79Zm.36,1c.9,0,1.07.54,2.47.07.89-.3.59-.11.16.34C81.88,43.87,79.24,42.8,79.9,42.78ZM83,43.7c.07,0,0,.1-.55.17S82,43.67,83,43.7Zm1.61.12c.3,0-1.9,1.1-2.19,1.69-1.7,3.48-1.57,3.36-2.36,4-.62.49-.85,1.5-1.79,4.29a25.24,25.24,0,0,1-2.95,5.15c0,.07-.16-.11-.16-.15C75.29,56.42,81.83,44.14,84.61,43.82Zm-9.48,15.6c0-.51.23-.15-.13.62l0,0A2.21,2.21,0,0,0,75.13,59.42Zm3.37-5.86c3.86-11.46,1.37,4.79.86,4.94a1.08,1.08,0,0,0-.47.23C79,58.32,78,55.2,78.5,53.56Zm1.09,5.11a18.38,18.38,0,0,1-1,1.6c-.12.11.18-1.14.4-1.35S79.59,58.62,79.59,58.67Zm-.45,1c1-1.62-1,2-.76,1.06A12.2,12.2,0,0,0,79.13,59.7Zm.43-.1c.21-1.15,0-1,1.32-1.35s-.45,1.13-1.11,1.76C77.52,61.78,79.46,60.15,79.56,59.6Zm2.76-.76c.38-.36,2.63-2.48,2.1-1.87C79.15,63,78.26,62.67,82.32,58.84Zm-.62,3.51c-.19.3-2.78,1.94-1.63.64C81,61.91,81.89,62.06,81.7,62.36ZM81.36,62c-.36,0-.22-.2.17-.63.22-.25,4-4.34,2.36-2.42C83.17,59.78,82.3,62,81.36,62Zm2,.11c1.52-.58,2.46-1.37,3-1.07.1.06.68.52.58.57C79.4,65.72,82.71,62.33,83.34,62.09Zm4.06.07c.08.12.12.23.09.24C86.57,62.77,87.22,61.89,87.4,62.15Zm.08-1c-.19.36-.37.31-.63.07s-.46-.33-.24-.38a3.19,3.19,0,0,1,1,.08A1.52,1.52,0,0,1,87.48,61.14Zm.36-.76c.07-.46.22-.88.19-.18S87.77,60.83,87.84,60.38Zm.43-2c0,.07-.19.69-.19.75a5.52,5.52,0,0,0-.4,1.19c-.07.46-1.25.51-2.49-.21-.09,0-.72-.35-.76-.23s.6.37.69.41c.27.16.89.46.45.55,0,0-.37.07-.4.09a5.7,5.7,0,0,1-2,1c-.32.12-.29.2.36-.82L84,60.3c-.06.88.25,1.39.2.47a1.49,1.49,0,0,1,.12-1c.32-.5,3-3.54,2.8-3.29.8-.91-.51,2.26-.62,2.13.06.07.56-.59.62-.68.21-.27.59-2.69.93-2.2.06.08-.23.31-.16.4s.1,0,.17-.07.22,0,.35.19C88.94,57,88.46,57.67,88.27,58.42Zm.38-2.53c0,.23-.07.31-.16.18C88.26,55.73,88.63,55.31,88.64,55.88Zm1.28-4.35-1.15,1c-.26.22-.37-.43-.19-.82C89.8,49.17,91.14,50.49,89.93,51.53Zm1.85,1a3.36,3.36,0,0,1,1.81-1,1.65,1.65,0,0,1,.5.17C94,51.78,89.86,54.14,91.77,52.5Zm1.93-1.13c-.57-.15.6-1,1-1.39,0,0,.24-.23.22-.18C94.7,50.32,94.27,51.52,93.7,51.37Zm1.16-4.32c-.34.08-1.17,1.11-.31.44.26-.2-3.19,3.29-4.21,2.72-1.73-1,.8-.66,3-3.62a8.84,8.84,0,0,1,3.85-2.2C97.61,44.31,95.82,46.82,94.86,47.05Zm.94,3.83c-.34.08-.91.59-.63-.23s.31-1.13.58-1.13,1.61-1.24,1.18-.54c-1.66,2.75.32-.32.75-.6C99.66,47.14,97.84,50.37,95.8,50.88Zm2.94-2.95c-1-.3.88-2,1.8-2.63C102.11,44.18,98.79,47.95,98.74,47.93ZM101.87,39c-1.49.41-1.57.26-1.86.13-.72-.26-1.57-.55-.3-.47C101.45,38.78,103.58,38.55,101.87,39Zm-2.45-.53C91,38,96.27,36.08,97.25,36.4a7,7,0,0,0,2.11.4c.09,0-3.55.38-3.55.48s4-.29,4.19-.15S106.84,38.94,99.42,38.48Zm4.22.05c-.2.05-.35-.1-.48-.28C102.9,37.91,104.53,38.29,103.64,38.53Zm1.24-.72c-1.52.55-2.36-.49-2.72-.55C94,35.67,99,36,100.24,35.68,101.88,35.33,105.33,37.64,104.87,37.81Zm.67-.24c-.52.19-.9-.31-.53-.09S106.42,37.25,105.54,37.57Zm2.07-1.16c.13.26.29.43-.37.74s-.44.32-1.38.08c-2.11-.54-2.15-1.41-2.5-2.62-.29-1-4.4-4.07.52-2.12C105.53,33.16,105.75,33.43,107.62,36.4ZM102,28.72c.76.4,1.07.67,1.25,1.1a17.83,17.83,0,0,0,1.81,2.37c.28.52-2.12-.91-3.51-1.08-.8-.09-1.12-.86-2.26-2.47A14.28,14.28,0,0,1,102,28.72Zm-2.11-1.64c.58.42,2.05,1.3.48,1.27-1.19,0-1.74.17-2.12-1.71C98.08,25.53,99.38,26.65,99.94,27.07Zm-5.33-6.6c.71.51.22.3-.56.2C92.75,20.46,93.93,20,94.61,20.47Zm-.59.38c.68.09,1,.11,1.24.62s4.9,6,1.08,2.18C95.41,22.53,93.84,20.82,94,20.85Zm1.05,2.87c3.13-.28,4.15,6.77,2.16,1.68C96.64,24,91.5,24,95.07,23.72Zm-2.5-1.08c1.15.94,1.27,1.39,1.14,1.37-3.52-.77-1.92-1.57-3.24-2.4C90,21.29,90.55,20.71,92.56,22.64Zm-3.33-1.56c.15.1.18.17.06.18-.72,0,.57.22,1,.46.91.57,1.25,2.88.64,1.23,0-.09-2.54-2.07-2.58-2.07A1.44,1.44,0,0,1,89.23,21.08Zm-4.91.75c.24-.24.42-.2.6,0s.16.27.13.28S84.2,22,84.32,21.83Zm.79,0c-.25-.35.07-.49.31-.11S85.36,22.17,85.11,21.81Zm1-.7c1.53-.57,3.26.43,2.1.13a12.71,12.71,0,0,0-1.62.44C85.48,22,85.21,21.43,86.06,21.11Zm0,1.63A7.73,7.73,0,0,0,87,23.85C86,23.89,84.92,20.92,86.09,22.74Zm.78.71c-1.48-1.29-.44-1.6.87-1.91s4,2.19,2.64,1.63c-.26-.1-.48-.15-.5-.1-.07.21.91.34-.06.3-1.47-.06-.7.46-2.06.48C87.16,23.85,87.34,23.87,86.87,23.46Zm.83.84c-.43.33-.57-.23-.06-.24C87.86,24.05,87.89,24.16,87.71,24.3Zm-.85.85c.36-.25.33-.51,1.39.73C89.76,27.64,86.43,25.44,86.86,25.14Zm1.67.8c-.59-.69-.87-1.39-.64-1.57,1.54-1.17,3.05-.73,3.17-.41,0,.09-1.37.56-.3.33.22,0,.7.76,1.08,1.8C92.52,27.9,91.18,29,88.53,25.94Zm3.55.23c-1.28-3.47.25,0,.08-.29,1,1.52,4,3,1.19,2.07C93,27.84,92.92,28.42,92.08,26.17Zm3.23,3.43c.4.76-2.79,1.44-4.91-1.16C89.88,27.78,95.17,29.31,95.32,29.6ZM90,28.48c.32-.22.53.83.78,1,1.61.91.72.79.17.51S89.79,28.65,90,28.48Zm-1,.69c.29-.2.74-.57.91-.22.48,1,.78.78-.75.65C88.43,29.53,88.76,29.36,89,29.17Zm-.86.61c.16-.11,1.38,0,1,.13-.84.29.5-.18,1.56.41,1.67.94,1.13.83-.42,1-1.1.1-2.69-1.25-1.55-.27.47.4.26.39,0,.41-.6,0-2.48.25-1.24-1.06C88,29.79,88,29.91,88.17,29.77Zm-.24-.07s-.72.37-.83.45-.16-.05-.19-.24C86.83,29.5,88.07,29.55,87.92,29.71Zm-2.55,1.75c-.62.34-.65.18-1-.68C83.79,29.15,89.42,29.2,85.37,31.45Zm-.85.08c.08.2.36.42,0,.28C83,31.17,83.49,28.79,84.52,31.53Zm.2,1.24a2.16,2.16,0,0,1-.93-.5C84.9,31.47,86.08,33.1,84.72,32.77ZM84,32.61c.58.41,1.12.26.4.87s-1-.23-1.41-.44C82.73,32.92,83.55,32.32,84,32.61Zm-.63,1.06c1,1.15-.73-.54-.72-.55S83.21,33.54,83.32,33.67Zm-1.1-.74a2,2,0,0,1-1.27-.56A6.69,6.69,0,0,1,82.22,32.93Zm-.3.18c.36.06,1.82.88.89,1.66-.74.62-.77.31-.89,0C79.76,30.63,80.64,32.88,81.92,33.11ZM81.73,35c.51,1.16-1.22,1.19-2.3,1.07-.64-.07-4.7-2.47-.53-3.55C80.6,32,80,31.7,81.73,35Zm-4.88-5c.32.07,1.05.58.44.31C77,30.14,76,29.77,76.85,30ZM74,29.56c.3.17.1.15-.9-.27C72.3,29,72.49,28.72,74,29.56ZM71.3,29.1c-.16-.28-.46-.74-.15-.66C73.74,29.11,71.91,30.21,71.3,29.1Zm.55,1c-.45-.81,4.08-.09,2.16,0a16.06,16.06,0,0,0-2,.27S71.94,30.26,71.85,30.09Zm.24.43L75.23,30a11.19,11.19,0,0,1,3.31,1c2.33.87,1.19,1-.85,1.55-.44.11-.76,1.77-2.13-.72-.31-.57-.65-.5.54,1.15C76.85,34.07,75.25,36.25,72.09,30.52Zm2.8,5.21c.6-1.15.63-.66,1-.56,1.63.52,1,1.32.29.47-.49-.57-.59-.37-.18.1s.21.49-.28.17-.52-.1-.19.12-.29.09-.54.27S74.64,36.22,74.89,35.73Zm-.33,1.07c.71-.5.72,0,1.12.39s-.37.19-.81.13-.48.12-.48.12C74.21,37.42,74.14,37.09,74.56,36.8Zm.53.9c-.35.28-.88,0-.46,0C74.7,37.66,75.15,37.66,75.09,37.7Zm-1-.82s-.1-.06-.19-.17C73.64,36.37,74.78,36.31,74.12,36.88Zm-4.5,4.65c-.33.07-.55.12-.33-.29,1.35-2.58.82-1.72,1.61-.65C71.32,41.16,71.45,41,69.61,41.53Zm1.66-.72c0-.05-.63-1.11-.67-1.22s1.18-1.71,2.14-1.83c.22,0,1.42-.17,1.53,0A40.06,40.06,0,0,1,71.27,40.8Zm.8.87c-.21-.23-.67-.62-.35-1a17.92,17.92,0,0,1,2-2.11c1.14-.9.87-.71-.71,2.08C72.78,41.15,73.07,42.74,72.07,41.68Zm.73,1.13.5.24C73.73,43.24,72.78,43.66,72.8,42.8Zm2-.08a1.61,1.61,0,0,1-1.4.13c-1.33-.61,1-4.79,1.42-4,2,4.18,2.55,3.38.24,3.69A2.26,2.26,0,0,0,74.78,42.73Zm1.86-.2c.2,0,.19-.21.51-.11S72.46,43.08,76.63,42.52Zm-1-2.47c-.8-1.69-1.16-2-.15-2.22a1,1,0,0,1,1,.24c.15.12-1,.64-1,.7s1.22-.5,1.3-.44a12.89,12.89,0,0,1,1,1.85c.67,1.38.55,1.31-.21,1.68S76,40.87,75.6,40.05Zm2.07,2c.22-.11.36-.06.31.1C77.87,42.5,77.14,42.28,77.67,42Zm-.21,2.53c.62-2.34.44-1.66,1.12-1.7.14,0-.26,1.78-.15,1.8s.39-1.82.62-1.83c.63,0,.49.19,1.18.55s1.89.24,1.53.46a20.16,20.16,0,0,0-2.79.87c-.83,1-.79,1.54-2.91,1.48C75.79,46.15,77.32,45.09,77.46,44.54Zm-3.95,6.33c.07-.46,1.57-4.69,3-4.47.78.12,1.81-.88,1.39.68-.66,2.45-1.31,1.76-2.85,3.7A7.68,7.68,0,0,1,73.52,50.88Zm1.54,7.27c-.1.61-3.85-1.6-.15-6.8.41-.54,3.08-.7,3.34-.9C80.52,48.77,75.59,54.91,75.05,58.15Zm-2.58,4.22a8.44,8.44,0,0,1,1.49,0c-.08.34.33-.34.25.05-.28,1.39-.3.63-.27,1.59,0,1.32.15-.5.4-1.42,0-.19.05-.31.27-.32,1.93-.11,1.64.14.74,1-.36.34-.78,1.42-.17.52,1.08-1.6,2.73-1.87,2.43-1.25-.17.36-.07.49.16,0,.15-.31.26-.53.25-.19s.14.26.15,0c0-.47,2.94-1.64.86.72a4.17,4.17,0,0,1-3.1,1.33c0,.18,2,0,1.9,0a2.86,2.86,0,0,1-1.21,1.36c-1.14.74-1,1.14-2.56,1.59-2.71.63-5.09-5-4.74-5.1A19.2,19.2,0,0,1,71.38,62C71.45,62,72.4,62.37,72.47,62.36Zm-8.26-5.13c2.71,1.05,2-.42,5.65,2.24C78.16,65.56,63.09,56.8,64.21,57.24Zm3.4.15a8.94,8.94,0,0,1-4.16-.84C60.39,55.36,67.61,57.39,67.61,57.39ZM61.2,56.22c.65,0,.44-.22,1.46,1.4,1.39,2.21,1,1.86-.52.24C60.48,56,60.4,56.27,61.2,56.22Z"/><path class="cls-9" d="M94.42,38.4c0-.05,0-.1,0-.16C92.89,66.16,134.21,70.62,138.58,43c0,.05,0,.11,0,.16C143.63,12.55,96,7.12,94.42,38.4Zm39.84,3c-2.34,21.93-34.55,20.45-35.33-1.22C98,14.7,136.91,16.63,134.27,41.36Z"/><path class="cls-10" d="M93.65,39c0-.05,0-.1,0-.16-1.57,27.92,39.75,32.38,44.12,4.71,0,.05,0,.11,0,.16C142.85,13.17,95.18,7.75,93.65,39Zm39.61,4.42c-4.11,21.49-35.62,17.6-35.11-3.75C98.76,14.17,138,18.56,133.26,43.45Z"/><path class="cls-11" d="M93.59,39.15c-3.12,29.22,41.11,34,44.23,4.73S96.72,9.9,93.59,39.15Zm20.23,20c-23.29-2.49-19.55-37.75,3.77-35.26S137.14,61.63,113.83,59.14Z"/><path class="cls-12" d="M93.5,40.44C98,13,139,17.4,137.65,45.15,142.74,14.31,95,9.45,93.5,40.44Z"/><path class="cls-12" d="M98,40.92c-4.45,24.69,34.28,29,35.15,3.76C129.28,66.15,97.24,62.73,98,40.92Z"/><path class="cls-9" d="M115.79,38.77c0-.05,0-.11,0-.16,2.34,27.84,37.12,26.19,37.13-1.82,0,.05,0,.11,0,.16C153.14,6,113,7.6,115.79,38.77Zm33.36-2.92c.92,22-25.93,25.3-29.4,4C115.67,14.8,148.11,11,149.15,35.84Z"/><path class="cls-10" d="M115.22,39.5c0-.05,0-.11,0-.16,2.34,27.84,37.12,26.19,37.13-1.82,0,.05,0,.11,0,.16C152.58,6.7,112.42,8.34,115.22,39.5Zm33.36-1.44C148,59.92,121.4,60.7,119,39.51,116.21,14.16,149.28,12.74,148.58,38.06Z"/><path class="cls-11" d="M115.2,39.63c1.22,29.36,38.45,27.57,37.22-1.82S114,10.23,115.2,39.63Zm19.35,16.8c-19.6,1-21.1-34.46-1.48-35.42S154.17,55.47,134.55,56.43Z"/><path class="cls-12" d="M115.28,40.91c.17-27.77,34.67-29.47,37.16-1.82C152.63,7.84,112.51,10,115.28,40.91Z"/><path class="cls-12" d="M119.07,40.73c-.46,25.08,32.15,23.66,29.58-1.45C148.25,61.09,121.29,62.42,119.07,40.73Z"/><path class="cls-9" d="M107.14,25.46s0-.09,0-.13c0,22.41,29.37,18.57,31.39-4.14,0,0,0,.08,0,.13C140.94-3.82,107,.39,107.14,25.46Zm28.3-4.76c-.81,17.8-23.64,22.38-25,5.33C108.76,6,136.35.62,135.44,20.7Z"/><path class="cls-10" d="M106.61,26.1s0-.09,0-.13c0,22.41,29.37,18.57,31.39-4.14,0,0,0,.08,0,.13C140.41-3.18,106.48,1,106.61,26.1Zm28.19-3.56c-2.07,17.77-24.51,20.31-25,3.29C109.26,5.48,137.2,2,134.8,22.54Z"/><path class="cls-11" d="M106.58,26.2C105.5,49.93,137,45.8,138.05,22.06S107.66,2.45,106.58,26.2Zm15.09,12.24C105.09,40.62,106.37,12,123,9.82S138.26,36.25,121.67,38.44Z"/><path class="cls-12" d="M106.56,27.24C108.7,4.71,137.87.85,138,23.1,140.38-2.26,106.44,2.4,106.56,27.24Z"/><path class="cls-12" d="M109.76,26.82c-2.19,20.37,25.37,16.88,25-3.3C132.87,41.23,110.07,44.25,109.76,26.82Z"/><path class="cls-8" d="M94.53,94.46c25.34-6,33-48.58,26.9-52.55-2.83-1.83-7.35,5.34-16.11,3.86-6.88-1.16-10.23-6.6-14.33-4.91-3.26,1.34-2.62,5.39-5.62,6.32C80.65,48.65,76,39.6,72.2,40.87c-4.25,1.43-1.31,13.81-6.37,16.31-4.66,2.3-11-6.3-13.47-4.64C48.59,55,53.62,80.87,73,91,75.4,92.22,84.33,96.88,94.53,94.46Z"/><path class="cls-13" d="M95.63,87.21c11-3.75,18.26-22.13,13.57-29.82-.62-1-2.67-2.87-6.77-6.57-7.31-6.6-8.56-6.53-9.14-6.4-4.22,1-3.15,12.51-6.65,13.23-4.09.85-9.76-14-12.14-13.22s2.57,14-2,17.34c-4.95,3.62-16.71-7-17.8-5.67C52.88,58.22,77.4,93.42,95.63,87.21Z"/><path class="cls-8" d="M145.53,74.46c25.34-6,33-48.58,26.9-52.55-2.83-1.83-7.35,5.34-16.11,3.86-6.88-1.16-10.23-6.6-14.33-4.91-3.26,1.34-2.62,5.39-5.62,6.32-4.71,1.47-9.38-7.58-13.17-6.31-4.25,1.43-1.31,13.81-6.37,16.31-4.66,2.3-11-6.3-13.47-4.64C99.59,35,104.62,60.87,124,71,126.4,72.22,135.33,76.88,145.53,74.46Z"/><path class="cls-13" d="M146.63,67.21c11-3.75,18.26-22.13,13.57-29.82-.62-1-2.67-2.87-6.77-6.57-7.31-6.6-8.56-6.53-9.14-6.4-4.22,1-3.15,12.51-6.65,13.23-4.09.85-9.76-14-12.14-13.22s2.57,14-2,17.34c-4.95,3.62-16.71-7-17.8-5.67C103.88,38.22,128.4,73.42,146.63,67.21Z"/><path class="cls-9" d="M59.85,96.19l-.08-.11c17.55,17.14,44.33-7.6,28.56-26.44l.11.09C71.14,48.75,40.06,77.13,59.85,96.19ZM84.79,71.56c13.14,14.2-6.41,34.63-21.18,22.64C46.26,80.14,70,55.55,84.79,71.56Z"/><path class="cls-10" d="M59.82,97.06,59.73,97c17.55,17.14,44.33-7.6,28.56-26.44l.11.09C71.11,49.63,40,78,59.82,97.06ZM85.59,73.43c11.83,15.11-8.91,33.7-22.73,21C46.33,79.35,71.88,55.93,85.59,73.43Z"/><path class="cls-11" d="M59.86,97.17C77.38,116.09,106,89.6,88.5,70.66S42.33,78.23,59.86,97.17Zm24.88-1.84c-15.08,14-36.23-8.85-21.13-22.83S99.84,81.35,84.75,95.33Z"/><path class="cls-12" d="M60.66,98c-15.5-18.79,11-43.38,28.58-26.46C71.79,50.36,41.06,79.09,60.66,98Z"/><path class="cls-12" d="M63.57,95.28c13.76,17.19,38.95-5.93,22.76-21.07C98.29,89.15,77.56,108.36,63.57,95.28Z"/><path class="cls-9" d="M72.41,82.28l-.1-.1C92.06,96.69,111,72.75,92.52,56.59l.12.08C72.28,38.67,50.19,66.16,72.41,82.28ZM89.72,58.54c15.09,12.1,1.77,31.73-14.33,21.72C56.5,68.53,72.7,44.89,89.72,58.54Z"/><path class="cls-10" d="M72.57,83.07l-.1-.1c19.75,14.51,38.72-9.43,20.21-25.59l.12.08C72.44,39.46,50.36,67,72.57,83.07ZM90.86,60.19c14.1,13-.71,31-16.09,20.36C56.4,67.81,74.53,45.13,90.86,60.19Z"/><path class="cls-11" d="M72.64,83.16C92.76,99.29,113,73.65,92.91,57.51S52.5,67,72.64,83.16Zm22.27-3.1C84.23,93.58,60,74.13,70.64,60.61S105.59,66.54,94.91,80.06Z"/><path class="cls-12" d="M73.54,83.85c-18.25-16.13.52-39.92,20.23-25.61C73.22,40.09,51.53,67.88,73.54,83.85Z"/><path class="cls-12" d="M75.6,81.24C91.91,96,109.78,73.63,91.71,60.85,105.89,73.69,91.22,92.28,75.6,81.24Z"/><path class="cls-9" d="M58.63,80.32l-.08-.09c14.8,12.94,29.22-8.7,15.37-23.13l.09.07C58.77,41.09,42,65.95,58.63,80.32ZM71.8,58.87C83.1,69.67,73,87.4,60.89,78.49,46.72,68,59.05,46.69,71.8,58.87Z"/><path class="cls-10" d="M58.75,81l-.08-.09C73.47,93.89,87.89,72.25,74,57.81l.09.07C58.89,41.81,42.1,66.66,58.75,81ZM72.65,60.35C83.2,72,71.94,88.26,60.42,78.76,46.65,67.39,60.43,46.89,72.65,60.35Z"/><path class="cls-11" d="M58.8,81.12c15.06,14.39,30.49-8.79,15.41-23.19S43.72,66.71,58.8,81.12ZM75.59,78.2c-8.12,12.22-26.29-5.14-18.17-17.37S83.71,66,75.59,78.2Z"/><path class="cls-12" d="M59.47,81.73c-13.66-14.41.62-35.91,15.38-23.15C59.48,42.36,43,67.48,59.47,81.73Z"/><path class="cls-12" d="M61,79.37c12.2,13.2,25.79-7,12.25-18.43C83.9,72.41,72.74,89.22,61,79.37Z"/><path class="cls-14" d="M132.69,39.81l-.4-.54a17.84,17.84,0,0,0-10.8-6.44,16.48,16.48,0,0,0-12.09,3.34,16.48,16.48,0,0,0-11.68,4.57,17.84,17.84,0,0,0-4.8,11.63c0,.29,0,.52,0,.67.27,11.6,12.85,18.17,17.61,19.41a17,17,0,0,0,7.1.14,21.31,21.31,0,0,0,7-2.32,17,17,0,0,0,5.6-4.37C133.29,62.06,139.43,49.27,132.69,39.81Z"/><path class="cls-15" d="M131.77,40.53,131.4,40a16.9,16.9,0,0,0-10.24-6.1,15.61,15.61,0,0,0-11.46,3.16,15.61,15.61,0,0,0-11.07,4.33,16.9,16.9,0,0,0-4.54,11c0,.28,0,.49,0,.63.26,11,12.18,17.22,16.69,18.4a16.12,16.12,0,0,0,6.73.13,20.2,20.2,0,0,0,6.6-2.2,16.12,16.12,0,0,0,5.31-4.14C132.34,61.61,138.15,49.49,131.77,40.53Z"/><path class="cls-14" d="M105.36,52.09c.78-1.18,2.32-.56,3.08-1.71.94-1.43-.06-4.5-2.11-5.67-2.37-1.35-5.67.07-7.31,2-2.8,3.26-1.1,8.33-.48,10.18,2.5,7.47,9.63,10.17,11.06,10.66,2.07.72,5.25,1.83,7.1.14a4.51,4.51,0,0,0,.75-5.26c-1.13-2.08-3.88-2.88-5.26-2.12-.69.38-.65.93-1.23,1.09-1.64.45-3.89-3.17-4.16-3.62C106,56.47,104.31,53.68,105.36,52.09Z"/><path class="cls-16" d="M103.19,49.49A9.48,9.48,0,0,1,104.64,52a9.48,9.48,0,0,1-2.85-.49,1.23,1.23,0,0,1,1.41-2Z"/><path class="cls-16" d="M106.95,48a9.48,9.48,0,0,1-1,2.73,9.48,9.48,0,0,1-1.49-2.48,1.23,1.23,0,0,1,2.44-.25Z"/><path class="cls-16" d="M101.88,53a9.48,9.48,0,0,1,2.65,1.17,9.48,9.48,0,0,1-2.59,1.29,1.23,1.23,0,1,1-.06-2.46Z"/><path class="cls-16" d="M102.27,56.57a9.48,9.48,0,0,1,2.87-.38,9.48,9.48,0,0,1-1.54,2.45,1.23,1.23,0,0,1-1.32-2.07Z"/><path class="cls-16" d="M104,59.78a9.48,9.48,0,0,1,2.57-1.33,9.48,9.48,0,0,1-.62,2.83,1.23,1.23,0,1,1-2-1.49Z"/><path class="cls-16" d="M106.66,62.31a7.48,7.48,0,0,1,1.48-1.74,7.48,7.48,0,0,1,.39,2.25,1,1,0,0,1-1.87-.51Z"/><path class="cls-16" d="M109.41,64.09a7.48,7.48,0,0,1,.78-2.15,7.48,7.48,0,0,1,1.15,2,1,1,0,1,1-1.93.18Z"/><path class="cls-16" d="M112.6,63.46a5.92,5.92,0,0,1-.22-1.79,5.92,5.92,0,0,1,1.52,1,.77.77,0,1,1-1.3.82Z"/><path class="cls-14" d="M122.64,46.34c-1.33-.47-2.19.94-3.48.48-1.61-.58-2.65-3.64-1.7-5.81,1.08-2.5,4.58-3.34,7-2.8,4.19.93,5.87,6,6.48,7.86,2.47,7.48-1.62,13.91-2.47,15.16-1.23,1.82-3.11,4.61-5.6,4.37a4.51,4.51,0,0,1-3.75-3.76c-.34-2.34,1.38-4.63,2.94-4.85.78-.11,1.08.36,1.64.14,1.59-.62,1.22-4.87,1.16-5.4C124.75,50.23,124.43,47,122.64,46.34Z"/><path class="cls-16" d="M122.81,43a9.48,9.48,0,0,0,.34,2.87s1.78-1.45,2-2.1a1.23,1.23,0,1,0-2.33-.77Z"/><path class="cls-16" d="M118.94,44a9.48,9.48,0,0,0,2.4,1.61,9.48,9.48,0,0,0-.29-2.88A1.23,1.23,0,1,0,118.94,44Z"/><path class="cls-16" d="M126,45a9.48,9.48,0,0,0-1.42,2.52,9.48,9.48,0,0,0,2.85-.52A1.23,1.23,0,1,0,126,45Z"/><path class="cls-16" d="M127.8,48.08a9.48,9.48,0,0,0-2.52,1.42,9.48,9.48,0,0,0,2.7,1,1.23,1.23,0,0,0-.18-2.45Z"/><path class="cls-16" d="M128.33,51.69a9.48,9.48,0,0,0-2.85.47,9.48,9.48,0,0,0,2.19,1.89,1.23,1.23,0,1,0,.67-2.37Z"/><path class="cls-16" d="M127.72,55.31a7.48,7.48,0,0,0-2.23-.5,7.48,7.48,0,0,0,1,2,1,1,0,1,0,1.19-1.53Z"/><path class="cls-16" d="M126.58,58.38a7.49,7.49,0,0,0-1.91-1.25,7.48,7.48,0,0,0,.26,2.27,1,1,0,0,0,1.65-1Z"/><path class="cls-16" d="M123.65,59.79a5.92,5.92,0,0,0-.9-1.57,5.92,5.92,0,0,0-.63,1.69.77.77,0,1,0,1.53-.13Z"/><g class="cls-17"><path class="cls-18" d="M118.45,61.64c.41-3.34-3.92-21.16-4-21.31-1.93-5.79-1.34-2.54-3.72-1.63l-.13,0-.14,0c-2.45.7-3.93-2.25-2,3.54.05.15,7.25,17,9.58,19.44l.13.41a.26.26,0,0,1,.39-.13Z"/></g><g class="cls-19"><path class="cls-20" d="M97.77,59.23c-2.29-4-2.38-8.69-.12-12.06a10.25,10.25,0,0,1,4.8-3.76c1.31-1.1,2-2.21,1.72-2.75s-2-.43-3-.12c-3.8,1.19-6.56,6.87-6.08,12A13.21,13.21,0,0,0,97.77,59.23Z"/></g><g class="cls-21"><path class="cls-22" d="M111.34,67c-1.43-.5-8.56-3.19-11.06-10.66-.62-1.85-2.32-6.92.48-10.18a7.6,7.6,0,0,1,2.43-1.83A7.62,7.62,0,0,0,99,46.69c-2.8,3.26-1.1,8.33-.48,10.18,2.5,7.47,9.63,10.17,11.06,10.66,1.94.68,4.86,1.69,6.75.42A12.86,12.86,0,0,1,111.34,67Z"/><path class="cls-22" d="M108,50.84a2.05,2.05,0,0,0-.39.19A2,2,0,0,0,108,50.84Z"/><path class="cls-22" d="M112.71,60.8c.44-.12.52-.46.83-.79a2.65,2.65,0,0,0-1.35.28,1.62,1.62,0,0,0-.46.38A1.42,1.42,0,0,0,112.71,60.8Z"/></g><path class="cls-23" d="M120.56,62.85c-.46-2.71,1.17-5.26,2.75-5.43.78-.09,1.11.46,1.67.24,1.58-.63,1-5.54.91-6.15-.22-1.75-.7-5.49-2.56-6.32-1.38-.61-2.18,1-3.52.37s-2.21-2.66-2.29-4.71l-.07.15c-.94,2.17.1,5.23,1.7,5.81,1.29.47,2.15-1,3.48-.48,1.79.64,2.11,3.89,2.25,5.4.05.53.42,4.78-1.16,5.4-.56.22-.86-.25-1.64-.14-1.56.22-3.28,2.51-2.94,4.85a4.62,4.62,0,0,0,2.35,3.31A6,6,0,0,1,120.56,62.85Z"/><path class="cls-24" d="M50.28,69A11.81,11.81,0,0,0,39.64,81.43,18.8,18.8,0,0,0,45.12,93.7c6.22,6.05,14.76,5.15,16,5,34.46-4.2,72-20,72-20a440.5,440.5,0,0,0,60-38c.41-.94,4.25-10.15-1-19a20.38,20.38,0,0,0-8.68-7.92,14.52,14.52,0,0,0-16.11,2.46A204.55,204.55,0,0,1,118.12,49.7,205,205,0,0,1,50.28,69Z"/><circle class="cls-25" cx="172.77" cy="34.35" r="1.92" transform="translate(11.38 104.94) rotate(-34.87)"/><circle class="cls-25" cx="125.64" cy="63.28" r="1.32" transform="translate(-15 60.31) rotate(-25.52)"/><circle class="cls-25" cx="83.87" cy="86.79" r="2.16" transform="translate(-36.78 83.56) rotate(-44.45)"/><circle class="cls-25" cx="69.42" cy="89.28" r="1.35" transform="translate(-28.96 33.5) rotate(-22.58)"/><circle class="cls-25" cx="104.88" cy="81.78" r="1.35" transform="translate(-13.74 21.65) rotate(-11.06)"/><circle class="cls-25" cx="60.04" cy="75.85" r="1.38" transform="translate(-36.7 75.19) rotate(-51.25)"/><circle class="cls-25" cx="162.06" cy="29.86" r="1.76" transform="translate(-2.61 36.23) rotate(-12.66)"/><circle class="cls-25" cx="85.21" cy="69.89" r="1.14" transform="translate(3.16 143.46) rotate(-81.24)"/><circle class="cls-25" cx="110.27" cy="69.38" r="1.61" transform="translate(-2.52 4.17) rotate(-2.14)"/><circle class="cls-25" cx="166.44" cy="48.18" r="1.15" transform="translate(79.38 197.99) rotate(-75.98)"/><circle class="cls-25" cx="131.28" cy="52.08" r="2.21" transform="translate(-1.35 100.63) rotate(-41.75)"/><circle class="cls-25" cx="115.22" cy="57.59" r="1.71" transform="translate(-13.23 48) rotate(-22.29)"/><circle class="cls-25" cx="141.94" cy="43.12" r="1.02" transform="translate(-2.6 76.51) rotate(-29.91)"/><circle class="cls-25" cx="157.06" cy="57.06" r="1.38" transform="matrix(0.53, -0.85, 0.85, 0.53, 25.95, 160.68)"/><circle class="cls-25" cx="93.97" cy="79.75" r="1.98" transform="translate(-6.26 8.03) rotate(-4.73)"/><circle class="cls-25" cx="54.96" cy="90.78" r="1.32" transform="translate(-47.3 119.14) rotate(-74.31)"/><circle class="cls-25" cx="47.35" cy="79.8" r="1.48" transform="translate(-43.11 59.14) rotate(-46.45)"/><circle class="cls-25" cx="143.25" cy="64.14" r="1.81" transform="translate(-3.98 9.76) rotate(-3.85)"/><circle class="cls-25" cx="99.17" cy="65.09" r="1.13" transform="translate(8.91 142.06) rotate(-73.74)"/><circle class="cls-25" cx="146.53" cy="52.56" r="1.75" transform="matrix(0.02, -1, 1, 0.02, 90.54, 197.81)"/><circle class="cls-25" cx="154.35" cy="39.6" r="1.45" transform="translate(-0.66 2.65) rotate(-0.98)"/><circle class="cls-25" cx="132.58" cy="71.7" r="1.65" transform="matrix(0.96, -0.28, 0.28, 0.96, -14.85, 40.35)"/><circle class="cls-25" cx="73.19" cy="74.36" r="2.13" transform="translate(-18.9 123.41) rotate(-73.49)"/><circle class="cls-25" cx="173.17" cy="20.67" r="1.64" transform="translate(49.5 143.64) rotate(-51.64)"/><circle class="cls-25" cx="119.37" cy="76.76" r="1.83" transform="translate(-19.95 49.72) rotate(-21.76)"/><circle class="cls-25" cx="187.6" cy="34.41" r="2.19" transform="translate(-1.34 8.32) rotate(-2.53)"/><circle class="cls-25" cx="184.27" cy="23.08" r="1.07" transform="translate(88.61 182.26) rotate(-66.14)"/><circle class="cls-25" cx="178.57" cy="43.71" r="1" transform="translate(27.52 148.52) rotate(-48.51)"/><path class="cls-26" d="M178.72,23.33l-.39-.22a1.52,1.52,0,0,1-2.13.81c-2.93-1.53-9.11-7-12.65-4.3-4.06,3.07-.55,8.14-1.2,12.07-.91,5.59-6,5.16-9.66,2.59q-1.44-1.31-3-2.5a4.26,4.26,0,0,0-5.1,4.34c0,.52,1.38,3.3,1.52,4.14a7.43,7.43,0,0,1-1.62,5.85c-3.2,3.88-8.11,2.77-11.25-.31A6,6,0,0,0,131.89,44c-.53-.48-2-1.79-3.53-1.39-1.76.46-2.35,2.88-2.49,3.49a6.36,6.36,0,0,0-.09,2.49,29.11,29.11,0,0,1-.26,3.67c-.58,2.64-2.27,5.91-4.78,7.22a4.57,4.57,0,0,1-4.83-.3c-1.2-.74-2-2-3-3a4.43,4.43,0,0,0-5.82-1.48,4.17,4.17,0,0,0-1.71,3.88c-.54,2.87.62,5-1.26,7.6a8.13,8.13,0,0,1-5.25,3.34c-5.58.93-9.26-4-11.74-8.31-3.57,2-2,10.9-4.49,14-2.14,2.76-6.12,4.31-9.43,2.84-3.84-1.71-4.68-7.3-9-7.72-7.86-.77-8,10.35-9.78,15.35a1.54,1.54,0,0,1-1.82,1l-.07.22c-.65,1.82,2.24,2.6,2.89.8,1.8-5,1.92-16.12,9.78-15.35,4.3.42,5.14,6,9,7.72,3.3,1.47,7.29-.07,9.43-2.84,2.44-3.15.91-12,4.49-14,2.48,4.35,6.16,9.24,11.74,8.31a8.13,8.13,0,0,0,5.25-3.34c1.88-2.65.72-4.74,1.26-7.6a4.17,4.17,0,0,1,1.71-3.88,4.43,4.43,0,0,1,5.82,1.48c1,1,1.77,2.27,3,3a4.57,4.57,0,0,0,4.83.3c2.51-1.31,4.19-4.58,4.78-7.22a29.11,29.11,0,0,0,.26-3.67,6.36,6.36,0,0,1,.09-2.49c.15-.61.73-3,2.49-3.49,1.52-.4,3,.92,3.53,1.39a6,6,0,0,1,1.36,1.79c3.14,3.09,8,4.19,11.25.31a7.43,7.43,0,0,0,1.62-5.85c-.13-.84-1.56-3.62-1.52-4.14a4.26,4.26,0,0,1,5.1-4.34q1.55,1.18,3,2.5c3.7,2.57,8.75,3,9.66-2.59.64-3.93-2.86-9,1.2-12.07,3.54-2.68,9.72,2.78,12.65,4.3C178.91,26.82,180.43,24.23,178.72,23.33Z"/><path class="cls-27" d="M54.49,86.72c1.8-5,1.92-16.12,9.78-15.35,4.3.42,5.14,6,9,7.72,3.3,1.47,7.29-.07,9.43-2.84,2.66-3.43.59-13.72,5.58-14.44l-1.69-.69c2.47,4.57,6.29,10.4,12.34,9.4a8.13,8.13,0,0,0,5.25-3.34c1.88-2.65.72-4.74,1.26-7.6a4.18,4.18,0,0,1,1.71-3.88,4.43,4.43,0,0,1,5.82,1.48c1,1,1.77,2.27,3,3a4.57,4.57,0,0,0,4.83.3c2.51-1.31,4.19-4.58,4.78-7.22a29.1,29.1,0,0,0,.26-3.67,6.36,6.36,0,0,1,.09-2.49c.15-.61.73-3,2.49-3.49,1.52-.4,3,.92,3.53,1.39a6,6,0,0,1,1.36,1.79c3.14,3.09,8,4.19,11.25.31a7.43,7.43,0,0,0,1.62-5.85c-.13-.84-1.56-3.62-1.52-4.14a4.26,4.26,0,0,1,5.1-4.34q1.55,1.18,3,2.5c3.7,2.57,8.75,3,9.66-2.59.64-3.93-2.86-9,1.2-12.07,3.54-2.68,9.72,2.78,12.65,4.3,1.71.89,3.23-1.7,1.51-2.59-4.19-2.18-9.74-7.89-14.77-5a9.32,9.32,0,0,0-4,5.32,10.83,10.83,0,0,0-.17,4.83,14.36,14.36,0,0,0,.42,2.13,2.88,2.88,0,0,1-3.52,4.16c-1,.06-3.36-3-4.48-3.56a7,7,0,0,0-3.22-1,6.83,6.83,0,0,0-5.24,2.58,6.24,6.24,0,0,0-1.38,4.85c.29,2.18,2.37,4.44,1.73,6.75-2.12,7.67-7,.86-9.15-.83-2.9-2.26-6.93-3-9.69.15-1.79,2.08-1.3,4.39-1.49,6.89-.22,2.9-1,10-5.91,7.45-1.11-.58-2-2.35-3.05-3.16-3.26-2.61-8.85-3.58-10.94,1-1.13,2.48,0,4.9-.25,7.44-.64,5.82-6.22,6.46-9.75,2.86a24.23,24.23,0,0,1-3.71-5.6,1.55,1.55,0,0,0-1.69-.69c-5.27.76-5.26,5.52-5.65,9.74-.21,2.29-.29,4.69-2.12,6.42-3.41,3.23-5.65,1.39-7.66-1-1.3-1.54-2.18-3.38-3.83-4.62-3.34-2.51-7.32-1.29-10.31,1.2-4.73,3.94-4.36,9.83-6.31,15.27C50.94,87.75,53.84,88.53,54.49,86.72Z"/><path class="cls-28" d="M98.21,67.41c2.6.24,5-1.36,5.41-5.05.28-2.54-.88-5,.25-7.44a5.19,5.19,0,0,1,4.58-3.19,5.32,5.32,0,0,0-5.58,3.19c-1.13,2.48,0,4.9-.25,7.44C102.27,65.57,100.41,67.2,98.21,67.41Z"/><path class="cls-28" d="M80.7,75.09c1.83-1.73,1.91-4.14,2.12-6.42.38-4.16.39-8.85,5.45-9.7a2.14,2.14,0,0,0-.81,0c-5.27.76-5.26,5.52-5.65,9.74-.21,2.29-.29,4.69-2.12,6.42a5.73,5.73,0,0,1-3,1.69C77.88,77,79.17,76.53,80.7,75.09Z"/><path class="cls-28" d="M159.21,29.6a2.94,2.94,0,0,1-.09,3.1,2.87,2.87,0,0,1-1.91,1.19,2.86,2.86,0,0,0,3-4.29,14.36,14.36,0,0,1-.42-2.13,10.83,10.83,0,0,1,.17-4.83,9.32,9.32,0,0,1,4-5.32,5.84,5.84,0,0,1,2.49-.75,5.91,5.91,0,0,0-3.49.75,9.32,9.32,0,0,0-4,5.32,10.83,10.83,0,0,0-.17,4.83A14.36,14.36,0,0,0,159.21,29.6Z"/><path class="cls-28" d="M52.6,85.93c2-5.43,1.58-11.33,6.31-15.27A10.45,10.45,0,0,1,64.6,68.1a9.81,9.81,0,0,0-6.69,2.56c-4.73,3.94-4.36,9.83-6.31,15.27-.47,1.3.87,2.06,1.91,1.74A1.29,1.29,0,0,1,52.6,85.93Z"/><path class="cls-28" d="M123.78,49.6c.19-2.5-.31-4.81,1.49-6.89a5.8,5.8,0,0,1,4-2.1,5.79,5.79,0,0,0-5,2.1c-1.79,2.08-1.3,4.39-1.49,6.89-.17,2.34-.74,7.38-3.49,7.93C122.91,58.12,123.58,52.2,123.78,49.6Z"/><path class="cls-28" d="M143.11,43.39c-.63,2.28-1.51,3.28-2.48,3.51,1.37.29,2.64-.47,3.48-3.51.64-2.31-1.43-4.57-1.73-6.75a6.24,6.24,0,0,1,1.38-4.85,7,7,0,0,1,4.57-2.55l-.33,0a6.83,6.83,0,0,0-5.24,2.58,6.24,6.24,0,0,0-1.38,4.85C141.68,38.82,143.75,41.07,143.11,43.39Z"/><path class="cls-28" d="M116.92,60.19c-1.2-.74-2-2-3-3a4.7,4.7,0,0,0-4.38-2,4.8,4.8,0,0,1,3.38,2c1,1,1.77,2.27,3,3a4.88,4.88,0,0,0,3.19.81A5.44,5.44,0,0,1,116.92,60.19Z"/><path class="cls-28" d="M153.69,35.28q-1.44-1.31-3-2.5a4.44,4.44,0,0,0-1.31,0l.31,0q1.55,1.18,3,2.5a8.93,8.93,0,0,0,5.56,1.79A9.78,9.78,0,0,1,153.69,35.28Z"/><path class="cls-28" d="M177.2,24.93c-2.47-1.29-7.26-5.35-10.82-5,3.41.35,7.57,3.82,9.82,5a1.45,1.45,0,0,0,1.22.09Z"/><path class="cls-28" d="M134.25,46.8A6,6,0,0,0,132.89,45c-.52-.46-1.93-1.71-3.41-1.41A5.65,5.65,0,0,1,131.89,45a6,6,0,0,1,1.36,1.79,8.94,8.94,0,0,0,6.64,2.77A9.37,9.37,0,0,1,134.25,46.8Z"/><path class="cls-28" d="M74.26,79.09c-3.84-1.71-4.68-7.3-9-7.72a7.31,7.31,0,0,0-1.27,0h.27c4.3.42,5.14,6,9,7.72a6.73,6.73,0,0,0,3.27.55A6.57,6.57,0,0,1,74.26,79.09Z"/><path class="cls-28" d="M88.17,62.21a3.12,3.12,0,0,0-.69.53c2.34,4,5.7,8.18,10.59,7.87C93.51,70.32,90.36,66.06,88.17,62.21Z"/><path class="cls-4" d="M61.12,98.7c3.34-1.88,3.79-6.78,4-8,2-12.11,39.81-19.52,64-31,33.52-15.91,42.35-40.25,56-35,6.71,2.58,10.35,10.8,11,17,2.52,24-37,45-54,54-29.36,15.57-71.46,28.59-84,15-2.1-2.27-6.67-8.87-5-11C54.3,98.2,57.91,100.51,61.12,98.7Z"/><path class="cls-5" d="M59.12,101.7c0-.8,3.93-.46,7-3,2.78-2.3,2.33-4.88,4-8,1.81-3.4,4.94-5.23,15-9,8.5-3.18,12.74-4.78,17.75-6,18.44-4.5,34.59-15,39.25-18C164.86,43,173,25.71,182,29.11A8.07,8.07,0,0,1,186.37,33c8.47,19.72-99.91,72.92-120.24,70.67C64.87,103.56,59.1,102.67,59.12,101.7Z"/><path class="cls-5" d="M72.12,100.2C76.26,83,125,79,172.62,41.2a15.71,15.71,0,0,1,9.6-3.43c4.77,0,5.37,1.41,5.37,3.21,0,3.69-44.27,61.1-117.48,66.47H70c-.5,0-.7-.23-.7-.62C69.28,105.49,71.62,102.3,72.12,100.2Z"/><g class="cls-6"><path class="cls-7" d="M79.12,105.7c-6,1.18-13.88,3-13.8,4.92s8.4,3,10.87,3.31c34.43,4.45,115.15-42.62,113.94-63.23-.05-.92-.26-4.43-1.83-4.91-2.7-.83-6.9,8.09-12.17,14.91-6.3,8.15-13,11.86-26,19C123,94.64,87.13,103.72,79.12,105.7Z"/></g><g class="cls-6"><path class="cls-7" d="M66.46,107.36a58.23,58.23,0,0,0,16.28,2.27c24.34,0,92.38-25.73,104.05-62.61v0c0-.22-1-.51-1.93-.51-3.72,0-7.08,7.11-10.74,9.86C133.7,86.68,107.41,97.25,76.79,103,73.13,103.72,70.12,106,66.46,107.36Z"/></g><path class="cls-29" d="M123.35,84.15A1.33,1.33,0,0,1,121.84,82a17,17,0,0,1,3.59-.88A17,17,0,0,1,123.35,84.15Z"/><path class="cls-29" d="M98.06,77.48a1.49,1.49,0,0,1,2.08,2.12,19.08,19.08,0,0,1-3.8,1.65A19.08,19.08,0,0,1,98.06,77.48Z"/><path class="cls-29" d="M62.19,104.66a1,1,0,1,1-1.48-1.19A12.2,12.2,0,0,1,63,102.13,12.2,12.2,0,0,1,62.19,104.66Z"/><path class="cls-29" d="M128.56,68.59a.78.78,0,1,1-1.55-.24,10,10,0,0,1,1.08-1.89A10,10,0,0,1,128.56,68.59Z"/><path class="cls-29" d="M177.38,33.61a.79.79,0,0,1,.38-1.53,10.14,10.14,0,0,1,1.8,1.26A10.13,10.13,0,0,1,177.38,33.61Z"/><path class="cls-29" d="M74.82,93.51a.7.7,0,1,1-1.22.7,9,9,0,0,1-.3-1.93A9,9,0,0,1,74.82,93.51Z"/><path class="cls-29" d="M112.66,73a1,1,0,1,1,1.48,1.41,13.1,13.1,0,0,1-2.57,1.22A13.09,13.09,0,0,1,112.66,73Z"/><path class="cls-29" d="M84.63,83.61a.78.78,0,1,1-.44,1.5,10,10,0,0,1-1.73-1.32A10,10,0,0,1,84.63,83.61Z"/><path class="cls-29" d="M167.17,43.45a1.21,1.21,0,0,1,2.41.06,15.47,15.47,0,0,1-1.28,3.11A15.47,15.47,0,0,1,167.17,43.45Z"/><path class="cls-29" d="M142.7,61.85a1,1,0,1,1,2,0,12.83,12.83,0,0,1-1,2.62A12.83,12.83,0,0,1,142.7,61.85Z"/><path class="cls-29" d="M92,92.43a1.26,1.26,0,1,1,2.34-.93,16.16,16.16,0,0,1,0,3.51A16.16,16.16,0,0,1,92,92.43Z"/><path class="cls-29" d="M153.54,51a.74.74,0,1,1,1.35.6,9.5,9.5,0,0,1-1.45,1.46A9.49,9.49,0,0,1,153.54,51Z"/></g></g></g></svg>