<svg xmlns="http://www.w3.org/2000/svg" xmlns:xlink="http://www.w3.org/1999/xlink" viewBox="0 0 13.1 32.76"><defs><style>.cls-1{mask:url(#mask);}.cls-2{fill:url(#linear-gradient);}.cls-3{mask:url(#mask-2);filter:url(#luminosity-noclip-4);}.cls-4,.cls-6{mix-blend-mode:multiply;}.cls-4{fill:url(#Fade_To_White_23);}.cls-5{mask:url(#mask-3);filter:url(#luminosity-noclip-5);}.cls-6{fill:url(#Fade_To_White_23-2);}.cls-7{fill:url(#linear-gradient-2);}.cls-8{fill:url(#linear-gradient-3);}.cls-9{fill:url(#linear-gradient-4);}.cls-10{fill:url(#linear-gradient-5);}.cls-11{fill:url(#radial-gradient);}.cls-12{fill:url(#linear-gradient-6);}.cls-13{fill:url(#linear-gradient-7);}.cls-14{fill:#919191;}.cls-15{fill:url(#linear-gradient-8);}.cls-16{fill:url(#radial-gradient-2);}.cls-17{fill:url(#linear-gradient-9);}.cls-18{fill:url(#radial-gradient-3);}.cls-19{fill:url(#radial-gradient-4);}.cls-20{fill:url(#radial-gradient-5);}.cls-21{fill:url(#linear-gradient-10);}.cls-22{fill:url(#linear-gradient-11);}.cls-23{fill:url(#linear-gradient-12);}.cls-24{mask:url(#mask-4);}.cls-25{fill:url(#linear-gradient-13);}.cls-26{fill:url(#linear-gradient-14);}.cls-27{mask:url(#mask-5);}.cls-28{fill:url(#Fade_To_White);}.cls-29{mask:url(#mask-6);}.cls-30{fill:url(#Fade_To_White-2);}.cls-31{filter:url(#luminosity-noclip-3);}.cls-32{filter:url(#luminosity-noclip-2);}.cls-33{filter:url(#luminosity-noclip);}</style><filter id="luminosity-noclip" x="0.1" y="-8201.23" width="5.12" height="32766" filterUnits="userSpaceOnUse" color-interpolation-filters="sRGB"><feFlood flood-color="#fff" result="bg"/><feBlend in="SourceGraphic" in2="bg"/></filter><mask id="mask" x="0.1" y="-8201.23" width="5.12" height="32766" maskUnits="userSpaceOnUse"><g class="cls-33"/></mask><linearGradient id="linear-gradient" x1="8.14" y1="11.55" x2="-0.87" y2="6.11" gradientUnits="userSpaceOnUse"><stop offset="0"/><stop offset="0.09" stop-color="#060606"/><stop offset="0.22" stop-color="#181818"/><stop offset="0.36" stop-color="#343434"/><stop offset="0.52" stop-color="#5d5d5d"/><stop offset="0.69" stop-color="#909090"/><stop offset="0.87" stop-color="#cecece"/><stop offset="1" stop-color="#fff"/></linearGradient><filter id="luminosity-noclip-2" x="6.97" y="-8201.23" width="1.8" height="32766" filterUnits="userSpaceOnUse" color-interpolation-filters="sRGB"><feFlood flood-color="#fff" result="bg"/><feBlend in="SourceGraphic" in2="bg"/></filter><mask id="mask-2" x="6.97" y="-8201.23" width="1.8" height="32766" maskUnits="userSpaceOnUse"><g class="cls-32"/></mask><linearGradient id="Fade_To_White_23" x1="6.97" y1="31.29" x2="8.77" y2="31.29" gradientUnits="userSpaceOnUse"><stop offset="0"/><stop offset="1" stop-color="#fff"/></linearGradient><filter id="luminosity-noclip-3" x="7.81" y="-8201.23" width="3.8" height="32766" filterUnits="userSpaceOnUse" color-interpolation-filters="sRGB"><feFlood flood-color="#fff" result="bg"/><feBlend in="SourceGraphic" in2="bg"/></filter><mask id="mask-3" x="7.81" y="-8201.23" width="3.8" height="32766" maskUnits="userSpaceOnUse"><g class="cls-31"/></mask><linearGradient id="Fade_To_White_23-2" x1="15.85" y1="250.88" x2="19.14" y2="250.88" gradientTransform="matrix(0.92, 0.4, -0.4, 0.92, 94.02, -205.05)" xlink:href="#Fade_To_White_23"/><linearGradient id="linear-gradient-2" x1="6.43" y1="29.64" x2="6.43" y2="32.84" gradientUnits="userSpaceOnUse"><stop offset="0" stop-color="#b2b2b2"/><stop offset="0.15" stop-color="#ededed"/><stop offset="0.28" stop-color="#f3f3f3"/><stop offset="0.52" stop-color="#f6f6f6"/><stop offset="1" stop-color="#b5b5b5"/></linearGradient><linearGradient id="linear-gradient-3" x1="12.66" y1="31.95" x2="0.78" y2="31.95" xlink:href="#linear-gradient-2"/><linearGradient id="linear-gradient-4" x1="-0.67" y1="30.93" x2="15.49" y2="30.93" gradientUnits="userSpaceOnUse"><stop offset="0" stop-color="#b2b2b2"/><stop offset="0.15" stop-color="#ededed"/><stop offset="0.32" stop-color="#f3f3f3"/><stop offset="0.64" stop-color="#f6f6f6"/><stop offset="1" stop-color="#b5b5b5"/></linearGradient><linearGradient id="linear-gradient-5" y1="5.53" x2="13.04" y2="5.53" gradientUnits="userSpaceOnUse"><stop offset="0.18" stop-color="#ededed"/><stop offset="0.47" stop-color="#f3f3f3"/><stop offset="1" stop-color="#f6f6f6"/></linearGradient><radialGradient id="radial-gradient" cx="6.48" cy="20.66" r="2.72" gradientUnits="userSpaceOnUse"><stop offset="0.45" stop-color="#840e08"/><stop offset="0.49" stop-color="#790d07"/><stop offset="0.73" stop-color="#470704"/><stop offset="0.9" stop-color="#280302"/><stop offset="1" stop-color="#1c0201"/></radialGradient><linearGradient id="linear-gradient-6" x1="4.53" y1="17.96" x2="8.33" y2="17.96" xlink:href="#linear-gradient-5"/><linearGradient id="linear-gradient-7" x1="5.62" y1="23.77" x2="7.19" y2="23.77" xlink:href="#linear-gradient-5"/><linearGradient id="linear-gradient-8" x1="6.48" y1="23.78" x2="8.05" y2="23.78" xlink:href="#linear-gradient-5"/><radialGradient id="radial-gradient-2" cx="6.34" cy="24.94" r="4.41" gradientUnits="userSpaceOnUse"><stop offset="0.44" stop-color="#b5b5b5"/><stop offset="0.67" stop-color="#f6f6f6"/><stop offset="0.76" stop-color="#f3f3f3"/><stop offset="0.81" stop-color="#ededed"/><stop offset="1" stop-color="#919191"/></radialGradient><linearGradient id="linear-gradient-9" x1="6.54" y1="27.67" x2="6.54" y2="32.56" gradientUnits="userSpaceOnUse"><stop offset="0" stop-color="#b2b2b2"/><stop offset="0.15" stop-color="#ededed"/><stop offset="0.24" stop-color="#f3f3f3"/><stop offset="0.4" stop-color="#f6f6f6"/><stop offset="1" stop-color="#b5b5b5"/></linearGradient><radialGradient id="radial-gradient-3" cx="6.64" cy="27.41" r="4.76" xlink:href="#radial-gradient-2"/><radialGradient id="radial-gradient-4" cx="9.52" cy="12.26" r="9.94" gradientUnits="userSpaceOnUse"><stop offset="0.29" stop-color="#840e08"/><stop offset="0.35" stop-color="#790d07"/><stop offset="0.65" stop-color="#470704"/><stop offset="0.87" stop-color="#280302"/><stop offset="1" stop-color="#1c0201"/></radialGradient><radialGradient id="radial-gradient-5" cx="6.32" cy="6.38" r="11.29" gradientUnits="userSpaceOnUse"><stop offset="0.53" stop-color="#840e08"/><stop offset="0.76" stop-color="#4f0804"/><stop offset="1" stop-color="#1c0201"/></radialGradient><linearGradient id="linear-gradient-10" x1="13.11" y1="5.33" x2="11.58" y2="5.72" gradientUnits="userSpaceOnUse"><stop offset="0" stop-color="#8f8f8f"/><stop offset="0.09" stop-color="#9f9f9f"/><stop offset="0.24" stop-color="#b2b2b2"/><stop offset="0.42" stop-color="silver"/><stop offset="0.63" stop-color="#c9c9c9"/><stop offset="1" stop-color="#cbcbcb"/></linearGradient><linearGradient id="linear-gradient-11" x1="6.52" y1="0.41" x2="6.52" y2="-0.06" gradientUnits="userSpaceOnUse"><stop offset="0" stop-color="#8f8f8f"/><stop offset="0.01" stop-color="#999"/><stop offset="0.06" stop-color="#b9b9b9"/><stop offset="0.12" stop-color="#d2d2d2"/><stop offset="0.18" stop-color="#e6e6e6"/><stop offset="0.25" stop-color="#f4f4f4"/><stop offset="0.33" stop-color="#fdfdfd"/><stop offset="0.47" stop-color="#fff"/><stop offset="1" stop-color="#cbcbcb"/></linearGradient><linearGradient id="linear-gradient-12" x1="6.52" y1="12.43" x2="6.52" y2="10.26" gradientUnits="userSpaceOnUse"><stop offset="0.22" stop-color="#dfb3b5"/><stop offset="0.29" stop-color="#d4a6a7"/><stop offset="0.44" stop-color="#b78282"/><stop offset="0.64" stop-color="#884946"/><stop offset="0.84" stop-color="#540904"/></linearGradient><mask id="mask-4" x="0.1" y="0.12" width="5.12" height="17.78" maskUnits="userSpaceOnUse"><g class="cls-1"><path class="cls-2" d="M1.37,11A12.09,12.09,0,0,1,1.23,9.2a34.9,34.9,0,0,1,1.65-9H3v0L1.74.16A35,35,0,0,0,.1,9.2,12,12,0,0,0,.23,11a9.5,9.5,0,0,0,4.34,6.7,5,5,0,0,0,.64.2C3.09,16.49,1.76,13.6,1.37,11Z"/></g></mask><linearGradient id="linear-gradient-13" x1="8.14" y1="11.55" x2="-0.87" y2="6.11" gradientUnits="userSpaceOnUse"><stop offset="0" stop-color="#fff"/><stop offset="1" stop-color="#fff"/></linearGradient><linearGradient id="linear-gradient-14" x1="9.47" y1="14.06" x2="13.77" y2="15.04" gradientUnits="userSpaceOnUse"><stop offset="0.08" stop-color="#5f0b06"/><stop offset="0.09" stop-color="#640b06"/><stop offset="0.13" stop-color="#760d07"/><stop offset="0.17" stop-color="#800e08"/><stop offset="0.21" stop-color="#840e08"/><stop offset="0.4" stop-color="#c21711"/></linearGradient><filter id="luminosity-noclip-4" x="6.97" y="30.67" width="1.8" height="1.24" filterUnits="userSpaceOnUse" color-interpolation-filters="sRGB"><feFlood flood-color="#fff" result="bg"/><feBlend in="SourceGraphic" in2="bg"/></filter><mask id="mask-5" x="6.97" y="30.67" width="1.8" height="1.24" maskUnits="userSpaceOnUse"><g class="cls-3"><path class="cls-4" d="M7.87,31.14a2.06,2.06,0,0,1-.9.77c1.72-.14,1.95-.93,1.72-1.23A.75.75,0,0,0,7.87,31.14Z"/></g></mask><linearGradient id="Fade_To_White" x1="6.97" y1="31.29" x2="8.77" y2="31.29" xlink:href="#linear-gradient-13"/><filter id="luminosity-noclip-5" x="7.81" y="31.07" width="3.8" height="1.31" filterUnits="userSpaceOnUse" color-interpolation-filters="sRGB"><feFlood flood-color="#fff" result="bg"/><feBlend in="SourceGraphic" in2="bg"/></filter><mask id="mask-6" x="7.81" y="31.07" width="3.8" height="1.31" maskUnits="userSpaceOnUse"><g class="cls-5"><path class="cls-6" d="M9.46,31.15c-.22.21-1,1.06-1.65,1.06,2,.47,3.92-.08,3.8-.59C11.14,31.31,9.73,30.9,9.46,31.15Z"/></g></mask><linearGradient id="Fade_To_White-2" x1="15.85" y1="250.88" x2="19.14" y2="250.88" gradientTransform="matrix(0.92, 0.4, -0.4, 0.92, 94.02, -205.05)" xlink:href="#linear-gradient-13"/></defs><title>Ресурс 28food2</title><g id="Слой_2" data-name="Слой 2"><g id="Layer_1" data-name="Layer 1"><path class="cls-7" d="M11.79,31.27l-10.35,0H1.06v.44c0,.13.14.26.38.38a14.34,14.34,0,0,0,5,.65c3,0,5.37-.46,5.37-1C11.81,31.61,11.79,31.27,11.79,31.27Z"/><path class="cls-8" d="M11.79,31.21l-10.35,0H1.06v.44c0,.14.14.26.38.38a14.38,14.38,0,0,0,5,.65c3,0,5.37-.46,5.37-1C11.81,31.55,11.79,31.21,11.79,31.21Z"/><path class="cls-9" d="M6.43,30.23c-3,0-5.37.46-5.37,1,0,.13.13.26.38.38a8.24,8.24,0,0,1,3-.72,22.72,22.72,0,0,1,7.16.6.33.33,0,0,0,.16-.25C11.81,30.69,9.4,30.23,6.43,30.23Z"/><path class="cls-10" d="M11.4.16S8.83.06,6.48.06s-4.84.1-4.84.1A34.94,34.94,0,0,0,0,9.2,12.09,12.09,0,0,0,.13,11H12.91A12,12,0,0,0,13,9.2,35,35,0,0,0,11.4.16Z"/><path class="cls-11" d="M4.47,17.69l.4.26a2.19,2.19,0,0,1,.85,1.14,1.09,1.09,0,0,1,.82-.23,1.06,1.06,0,0,1,.76.23A2.18,2.18,0,0,1,8.16,18l.22-.15A6.15,6.15,0,0,1,4.47,17.69Z"/><path class="cls-12" d="M8,18,8.11,18l.22-.13a6.48,6.48,0,0,1-3.8-.11l.39.24L5,18A6.56,6.56,0,0,0,8,18Z"/><path class="cls-13" d="M6.55,18.86l-.35,0c0,1.75.08,8.81.09,9.76a2,2,0,0,0,.36,0c0-1.54.13-8.35.21-9.77Z"/><path class="cls-14" d="M5.73,19.1a3.9,3.9,0,0,1,.15.8C6,21.07,6,27.49,6,28.6l.29.06c0-1-.08-8-.09-9.76A.81.81,0,0,0,5.73,19.1Z"/><path class="cls-14" d="M6.85,18.89c-.08,1.43-.17,8.23-.21,9.77h.09c0-1.54.13-8.29.21-9.75Z"/><path class="cls-15" d="M6.94,18.9c-.08,1.46-.17,8.2-.21,9.75A1.37,1.37,0,0,0,7,28.58c0-1.16,0-7.51.12-8.69a3.79,3.79,0,0,1,.15-.8A.8.8,0,0,0,6.94,18.9Z"/><path class="cls-16" d="M7.25,29.3c-.08-.18-.14-.36-.2-.54v-.18A1.79,1.79,0,0,1,6,28.6v.16c-.06.19-.13.38-.21.56A2.35,2.35,0,0,0,7.25,29.3Z"/><path class="cls-17" d="M8.32,30.64A3.79,3.79,0,0,0,5,30.6c-1.41.51-2.58.39-3.52,1a14.32,14.32,0,0,0,5,.65c2.51,0,4.63-.33,5.21-.78C10.63,31,9.5,31.11,8.32,30.64Z"/><path class="cls-18" d="M8.81,30.68a.29.29,0,0,0-.12-.09A2.2,2.2,0,0,1,7.25,29.3a2.35,2.35,0,0,1-1.46,0,2.2,2.2,0,0,1-1.44,1.26c-.41.17-.35,1.32,2.07,1.35h.11l.57,0C8.81,31.77,9,31,8.81,30.68Z"/><path class="cls-19" d="M2.57,11H.13a9.5,9.5,0,0,0,4.34,6.7,5.63,5.63,0,0,0,1.14.3C2.93,15.84,2.64,12.09,2.57,11Z"/><path class="cls-20" d="M2.53,11c.07,1.1.35,4.89,3.08,7a6.66,6.66,0,0,0,2.78-.19A9.53,9.53,0,0,0,12.91,11Z"/><path class="cls-21" d="M13,10.71c0-.43.1-.94.1-1.51a35,35,0,0,0-1.64-9L11,.14h.05a35,35,0,0,1,1.64,9,12,12,0,0,1-.1,1.55c0,.08,0,.16,0,.24s0,.13,0,.2a2.52,2.52,0,0,0,.42-.11A1.77,1.77,0,0,0,13,10.71Z"/><path class="cls-22" d="M11.48.33,11.4.1S8.83,0,6.48,0,1.65.1,1.65.1L1.57.33C2.17.31,4.48.23,6.48.23S10.81.31,11.48.33Z"/><path class="cls-23" d="M6.52,10.52C3,10.52.1,10.77.1,11.08s2.87.56,6.42.56c1.82,0,3.46-.06,4.63-.17a5.76,5.76,0,0,0,1.72-.31s.07-.05.07-.08C12.94,10.77,10.07,10.52,6.52,10.52Z"/><g class="cls-24"><path class="cls-25" d="M1.37,11A12.09,12.09,0,0,1,1.23,9.2a34.9,34.9,0,0,1,1.65-9H3v0L1.74.16A35,35,0,0,0,.1,9.2,12,12,0,0,0,.23,11a9.5,9.5,0,0,0,4.34,6.7,5,5,0,0,0,.64.2C3.09,16.49,1.76,13.6,1.37,11Z"/></g><path class="cls-26" d="M8.34,17.37a8.63,8.63,0,0,0,4.41-6.12,5.82,5.82,0,0,1-1.73.31C10.91,12.53,10.36,15.84,8.34,17.37Z"/><g class="cls-27"><path class="cls-28" d="M7.87,31.14a2.06,2.06,0,0,1-.9.77c1.72-.14,1.95-.93,1.72-1.23A.75.75,0,0,0,7.87,31.14Z"/></g><g class="cls-29"><path class="cls-30" d="M9.46,31.15c-.22.21-1,1.06-1.65,1.06,2,.47,3.92-.08,3.8-.59C11.14,31.31,9.73,30.9,9.46,31.15Z"/></g></g></g></svg>