<svg xmlns="http://www.w3.org/2000/svg" xmlns:xlink="http://www.w3.org/1999/xlink" viewBox="0 0 32.38 22.38"><defs><style>.cls-1{mix-blend-mode:color-burn;fill:url(#radial-gradient);}.cls-2{mask:url(#mask);filter:url(#luminosity-noclip-17);}.cls-15,.cls-19,.cls-25,.cls-29,.cls-3,.cls-31{mix-blend-mode:multiply;}.cls-3{fill:url(#radial-gradient-2);}.cls-4{mask:url(#mask-2);}.cls-5{fill:url(#Fade_To_White_1);}.cls-6{mask:url(#mask-3);}.cls-7{fill:url(#linear-gradient);}.cls-8{mask:url(#mask-4);}.cls-9{fill:url(#Fade_To_White_1-2);}.cls-10{mask:url(#mask-5);}.cls-11{fill:url(#Fade_To_White_1-3);}.cls-12{mask:url(#mask-6);}.cls-13{fill:url(#linear-gradient-2);}.cls-14{mask:url(#mask-7);filter:url(#luminosity-noclip-20);}.cls-15{fill:url(#Fade_To_White_1-4);}.cls-16{mask:url(#mask-8);}.cls-17{fill:url(#linear-gradient-3);}.cls-18{mask:url(#mask-9);filter:url(#luminosity-noclip-21);}.cls-19{fill:url(#Fade_To_White_1-5);}.cls-20{mask:url(#mask-10);}.cls-21{fill:url(#Fade_To_White_1-6);}.cls-22{mask:url(#mask-11);}.cls-23{fill:url(#linear-gradient-4);}.cls-24{mask:url(#mask-12);}.cls-25{fill:url(#Fade_To_White_1-7);}.cls-26{mask:url(#mask-13);}.cls-27{fill:url(#linear-gradient-5);}.cls-28{mask:url(#mask-14);filter:url(#luminosity-noclip-18);}.cls-29{fill:url(#Fade_To_White_1-8);}.cls-30{mask:url(#mask-15);filter:url(#luminosity-noclip-19);}.cls-31{fill:url(#linear-gradient-6);}.cls-32{mask:url(#mask-16);}.cls-33{fill:url(#Fade_To_White_1-9);}.cls-34{isolation:isolate;}.cls-35{mask:url(#mask-17);}.cls-36{mask:url(#mask-18);}.cls-37{opacity:0.58;mix-blend-mode:soft-light;fill:url(#radial-gradient-3);}.cls-38{fill:url(#linear-gradient-7);}.cls-39{fill:url(#linear-gradient-8);}.cls-40{fill:url(#radial-gradient-4);}.cls-41{fill:url(#linear-gradient-9);}.cls-42{fill:url(#linear-gradient-10);}.cls-43{fill:url(#radial-gradient-5);}.cls-44{fill:url(#linear-gradient-11);}.cls-45{fill:url(#linear-gradient-12);}.cls-46{fill:url(#radial-gradient-6);}.cls-47{mask:url(#mask-19);}.cls-48{fill:url(#Fade_To_White);}.cls-49{fill:url(#linear-gradient-13);}.cls-50{fill:url(#linear-gradient-14);}.cls-51{fill:url(#linear-gradient-15);}.cls-52{fill:url(#radial-gradient-7);}.cls-53{mask:url(#mask-20);}.cls-54{fill:url(#Fade_To_White-2);}.cls-55{mask:url(#mask-21);}.cls-56{fill:url(#linear-gradient-16);}.cls-57{fill:url(#radial-gradient-8);}.cls-58{mask:url(#mask-22);}.cls-59{fill:url(#Fade_To_White-3);}.cls-60{mask:url(#mask-23);}.cls-61{fill:url(#Fade_To_White-4);}.cls-62{mask:url(#mask-24);}.cls-63{opacity:0.69;fill:url(#linear-gradient-17);}.cls-64{fill:url(#linear-gradient-18);}.cls-65{fill:url(#linear-gradient-19);}.cls-66{fill:url(#linear-gradient-20);}.cls-67{fill:url(#linear-gradient-21);}.cls-68{fill:url(#linear-gradient-22);}.cls-69{mask:url(#mask-25);}.cls-70{fill:url(#Fade_To_White-5);}.cls-71{fill:url(#linear-gradient-23);}.cls-72{fill:url(#linear-gradient-24);}.cls-73{mask:url(#mask-26);}.cls-74{fill:url(#Fade_To_White-6);}.cls-75{mask:url(#mask-27);}.cls-76{fill:url(#linear-gradient-25);}.cls-77{fill:url(#linear-gradient-26);}.cls-78{fill:url(#linear-gradient-27);}.cls-79{fill:url(#radial-gradient-9);}.cls-80{mask:url(#mask-28);}.cls-81{fill:url(#Fade_To_White-7);}.cls-82{mask:url(#mask-29);}.cls-83{fill:url(#linear-gradient-28);}.cls-84{mask:url(#mask-30);}.cls-85{fill:url(#Fade_To_White-8);}.cls-86{mask:url(#mask-31);}.cls-87{fill:url(#Fade_To_White-9);}.cls-88{fill:url(#linear-gradient-29);}.cls-89{fill:url(#linear-gradient-30);}.cls-90{fill:url(#linear-gradient-31);}.cls-91{mask:url(#mask-32);}.cls-92{fill:url(#linear-gradient-32);}.cls-93{mask:url(#mask-33);}.cls-94{fill:url(#linear-gradient-33);}.cls-95{fill:url(#linear-gradient-34);}.cls-96{fill:url(#linear-gradient-35);}.cls-97{filter:url(#luminosity-noclip-16);}.cls-98{filter:url(#luminosity-noclip-15);}.cls-99{filter:url(#luminosity-noclip-14);}.cls-100{filter:url(#luminosity-noclip-13);}.cls-101{filter:url(#luminosity-noclip-12);}.cls-102{filter:url(#luminosity-noclip-11);}.cls-103{filter:url(#luminosity-noclip-10);}.cls-104{filter:url(#luminosity-noclip-9);}.cls-105{filter:url(#luminosity-noclip-8);}.cls-106{filter:url(#luminosity-noclip-7);}.cls-107{filter:url(#luminosity-noclip-6);}.cls-108{filter:url(#luminosity-noclip-5);}.cls-109{filter:url(#luminosity-noclip-4);}.cls-110{filter:url(#luminosity-noclip-3);}.cls-111{filter:url(#luminosity-noclip-2);}.cls-112{filter:url(#luminosity-noclip);}</style><radialGradient id="radial-gradient" cx="34.99" cy="6112.57" r="6.78" gradientTransform="matrix(2.2, 0, 0, 0.94, -60.12, -5741.62)" gradientUnits="userSpaceOnUse"><stop offset="0" stop-color="#b3b3b3"/><stop offset="0.09" stop-color="#acacac"/><stop offset="0.22" stop-color="#989898"/><stop offset="0.38" stop-color="#787878"/><stop offset="0.56" stop-color="#4b4b4b"/><stop offset="0.76" stop-color="#121212"/><stop offset="0.81"/></radialGradient><filter id="luminosity-noclip" x="4.67" y="-8255.41" width="27.72" height="32766" filterUnits="userSpaceOnUse" color-interpolation-filters="sRGB"><feFlood flood-color="#fff" result="bg"/><feBlend in="SourceGraphic" in2="bg"/></filter><mask id="mask" x="4.67" y="-8255.41" width="27.72" height="32766" maskUnits="userSpaceOnUse"><g class="cls-112"/></mask><radialGradient id="radial-gradient-2" cx="35.09" cy="4612.98" r="6.78" gradientTransform="matrix(2.2, 0, 0, 1.25, -59.04, -5744.71)" gradientUnits="userSpaceOnUse"><stop offset="0" stop-color="#fff"/><stop offset="0.36" stop-color="#fdfdfd"/><stop offset="0.48" stop-color="#f6f6f6"/><stop offset="0.58" stop-color="#ebebeb"/><stop offset="0.65" stop-color="#dadada"/><stop offset="0.71" stop-color="#c4c4c4"/><stop offset="0.77" stop-color="#a8a8a8"/><stop offset="0.82" stop-color="#898989"/><stop offset="0.85" stop-color="#6c6c6c"/><stop offset="0.86" stop-color="#5b5b5b"/><stop offset="0.87" stop-color="#3f3f3f"/><stop offset="0.89" stop-color="#282828"/><stop offset="0.9" stop-color="#161616"/><stop offset="0.92" stop-color="#090909"/><stop offset="0.94" stop-color="#020202"/><stop offset="1"/></radialGradient><filter id="luminosity-noclip-2" x="4.09" y="-8255.41" width="4.37" height="32766" filterUnits="userSpaceOnUse" color-interpolation-filters="sRGB"><feFlood flood-color="#fff" result="bg"/><feBlend in="SourceGraphic" in2="bg"/></filter><mask id="mask-2" x="4.09" y="-8255.41" width="4.37" height="32766" maskUnits="userSpaceOnUse"><g class="cls-111"/></mask><linearGradient id="Fade_To_White_1" x1="4.09" y1="9.68" x2="10.48" y2="9.68" gradientUnits="userSpaceOnUse"><stop offset="0"/><stop offset="1" stop-color="#fff"/></linearGradient><filter id="luminosity-noclip-3" x="4.21" y="-8255.41" width="3.12" height="32766" filterUnits="userSpaceOnUse" color-interpolation-filters="sRGB"><feFlood flood-color="#fff" result="bg"/><feBlend in="SourceGraphic" in2="bg"/></filter><mask id="mask-3" x="4.21" y="-8255.41" width="3.12" height="32766" maskUnits="userSpaceOnUse"><g class="cls-110"/></mask><linearGradient id="linear-gradient" x1="3.38" y1="16.43" x2="6.9" y2="16.43" gradientUnits="userSpaceOnUse"><stop offset="0"/><stop offset="0.09" stop-color="#080808"/><stop offset="0.22" stop-color="#1f1f1f"/><stop offset="0.39" stop-color="#434343"/><stop offset="0.58" stop-color="#767676"/><stop offset="0.79" stop-color="#b7b7b7"/><stop offset="1" stop-color="#fff"/></linearGradient><filter id="luminosity-noclip-4" x="26.81" y="-8255.41" width="1.3" height="32766" filterUnits="userSpaceOnUse" color-interpolation-filters="sRGB"><feFlood flood-color="#fff" result="bg"/><feBlend in="SourceGraphic" in2="bg"/></filter><mask id="mask-4" x="26.81" y="-8255.41" width="1.3" height="32766" maskUnits="userSpaceOnUse"><g class="cls-109"/></mask><linearGradient id="Fade_To_White_1-2" x1="29.8" y1="8.18" x2="25.83" y2="-1.58" xlink:href="#Fade_To_White_1"/><filter id="luminosity-noclip-5" x="28.51" y="-8255.41" width="0.78" height="32766" filterUnits="userSpaceOnUse" color-interpolation-filters="sRGB"><feFlood flood-color="#fff" result="bg"/><feBlend in="SourceGraphic" in2="bg"/></filter><mask id="mask-5" x="28.51" y="-8255.41" width="0.78" height="32766" maskUnits="userSpaceOnUse"><g class="cls-108"/></mask><linearGradient id="Fade_To_White_1-3" x1="30.45" y1="7.92" x2="26.47" y2="-1.84" xlink:href="#Fade_To_White_1"/><filter id="luminosity-noclip-6" x="18.25" y="-8255.41" width="7.19" height="32766" filterUnits="userSpaceOnUse" color-interpolation-filters="sRGB"><feFlood flood-color="#fff" result="bg"/><feBlend in="SourceGraphic" in2="bg"/></filter><mask id="mask-6" x="18.25" y="-8255.41" width="7.19" height="32766" maskUnits="userSpaceOnUse"><g class="cls-107"/></mask><linearGradient id="linear-gradient-2" x1="17.4" y1="9.66" x2="31.2" y2="1.58" gradientUnits="userSpaceOnUse"><stop offset="0"/><stop offset="0.85" stop-color="#737373"/></linearGradient><filter id="luminosity-noclip-7" x="14.41" y="-8255.41" width="0.7" height="32766" filterUnits="userSpaceOnUse" color-interpolation-filters="sRGB"><feFlood flood-color="#fff" result="bg"/><feBlend in="SourceGraphic" in2="bg"/></filter><mask id="mask-7" x="14.41" y="-8255.41" width="0.7" height="32766" maskUnits="userSpaceOnUse"><g class="cls-106"/></mask><linearGradient id="Fade_To_White_1-4" x1="14.87" y1="11.33" x2="14.62" y2="9.9" xlink:href="#Fade_To_White_1"/><filter id="luminosity-noclip-8" x="26.47" y="-8255.41" width="0.65" height="32766" filterUnits="userSpaceOnUse" color-interpolation-filters="sRGB"><feFlood flood-color="#fff" result="bg"/><feBlend in="SourceGraphic" in2="bg"/></filter><mask id="mask-8" x="26.47" y="-8255.41" width="0.65" height="32766" maskUnits="userSpaceOnUse"><g class="cls-105"/></mask><linearGradient id="linear-gradient-3" x1="26.47" y1="10.11" x2="27.12" y2="10.11" gradientUnits="userSpaceOnUse"><stop offset="0"/><stop offset="0.12" stop-color="#0a0a0a"/><stop offset="0.33" stop-color="#252525"/><stop offset="0.59" stop-color="#505050"/><stop offset="0.85" stop-color="#828282"/></linearGradient><filter id="luminosity-noclip-9" x="13" y="-8255.41" width="1.48" height="32766" filterUnits="userSpaceOnUse" color-interpolation-filters="sRGB"><feFlood flood-color="#fff" result="bg"/><feBlend in="SourceGraphic" in2="bg"/></filter><mask id="mask-9" x="13" y="-8255.41" width="1.48" height="32766" maskUnits="userSpaceOnUse"><g class="cls-104"/></mask><linearGradient id="Fade_To_White_1-5" x1="12.19" y1="11.39" x2="15.8" y2="7.54" xlink:href="#Fade_To_White_1"/><filter id="luminosity-noclip-10" x="14.32" y="-8255.41" width="11.56" height="32766" filterUnits="userSpaceOnUse" color-interpolation-filters="sRGB"><feFlood flood-color="#fff" result="bg"/><feBlend in="SourceGraphic" in2="bg"/></filter><mask id="mask-10" x="14.32" y="-8255.41" width="11.56" height="32766" maskUnits="userSpaceOnUse"><g class="cls-103"/></mask><linearGradient id="Fade_To_White_1-6" x1="13.12" y1="8.68" x2="29.71" y2="-2.13" xlink:href="#Fade_To_White_1"/><filter id="luminosity-noclip-11" x="23.37" y="-8255.41" width="0.7" height="32766" filterUnits="userSpaceOnUse" color-interpolation-filters="sRGB"><feFlood flood-color="#fff" result="bg"/><feBlend in="SourceGraphic" in2="bg"/></filter><mask id="mask-11" x="23.37" y="-8255.41" width="0.7" height="32766" maskUnits="userSpaceOnUse"><g class="cls-102"/></mask><linearGradient id="linear-gradient-4" x1="22.6" y1="5.63" x2="24.03" y2="11.16" xlink:href="#linear-gradient-3"/><filter id="luminosity-noclip-12" x="14.28" y="-8255.41" width="6.84" height="32766" filterUnits="userSpaceOnUse" color-interpolation-filters="sRGB"><feFlood flood-color="#fff" result="bg"/><feBlend in="SourceGraphic" in2="bg"/></filter><mask id="mask-12" x="14.28" y="-8255.41" width="6.84" height="32766" maskUnits="userSpaceOnUse"><g class="cls-101"/></mask><linearGradient id="Fade_To_White_1-7" x1="12.3" y1="15.4" x2="23.82" y2="13.9" xlink:href="#Fade_To_White_1"/><filter id="luminosity-noclip-13" x="24.91" y="-8255.41" width="0.75" height="32766" filterUnits="userSpaceOnUse" color-interpolation-filters="sRGB"><feFlood flood-color="#fff" result="bg"/><feBlend in="SourceGraphic" in2="bg"/></filter><mask id="mask-13" x="24.91" y="-8255.41" width="0.75" height="32766" maskUnits="userSpaceOnUse"><g class="cls-100"/></mask><linearGradient id="linear-gradient-5" x1="25.76" y1="5.98" x2="25.13" y2="10.95" xlink:href="#linear-gradient-3"/><filter id="luminosity-noclip-14" x="5.82" y="-8255.41" width="2.75" height="32766" filterUnits="userSpaceOnUse" color-interpolation-filters="sRGB"><feFlood flood-color="#fff" result="bg"/><feBlend in="SourceGraphic" in2="bg"/></filter><mask id="mask-14" x="5.82" y="-8255.41" width="2.75" height="32766" maskUnits="userSpaceOnUse"><g class="cls-99"/></mask><linearGradient id="Fade_To_White_1-8" x1="1.21" y1="5.98" x2="8.66" y2="7.22" xlink:href="#Fade_To_White_1"/><filter id="luminosity-noclip-15" x="9.3" y="-8255.41" width="1.18" height="32766" filterUnits="userSpaceOnUse" color-interpolation-filters="sRGB"><feFlood flood-color="#fff" result="bg"/><feBlend in="SourceGraphic" in2="bg"/></filter><mask id="mask-15" x="9.3" y="-8255.41" width="1.18" height="32766" maskUnits="userSpaceOnUse"><g class="cls-98"/></mask><linearGradient id="linear-gradient-6" x1="7.31" y1="7.05" x2="11.7" y2="7.79" gradientUnits="userSpaceOnUse"><stop offset="0.17"/><stop offset="1" stop-color="#fff"/></linearGradient><filter id="luminosity-noclip-16" x="7.05" y="-8255.41" width="1.81" height="32766" filterUnits="userSpaceOnUse" color-interpolation-filters="sRGB"><feFlood flood-color="#fff" result="bg"/><feBlend in="SourceGraphic" in2="bg"/></filter><mask id="mask-16" x="7.05" y="-8255.41" width="1.81" height="32766" maskUnits="userSpaceOnUse"><g class="cls-97"/></mask><linearGradient id="Fade_To_White_1-9" x1="7.22" y1="14.95" x2="10.12" y2="13.29" xlink:href="#Fade_To_White_1"/><mask id="mask-17" x="3.48" y="1.7" width="27.26" height="17.6" maskUnits="userSpaceOnUse"><ellipse class="cls-1" cx="17.12" cy="10.5" rx="14.91" ry="6.38" transform="translate(-2.89 8.81) rotate(-26.71)"/></mask><filter id="luminosity-noclip-17" x="4.67" y="2.18" width="27.72" height="20.2" filterUnits="userSpaceOnUse" color-interpolation-filters="sRGB"><feFlood flood-color="#fff" result="bg"/><feBlend in="SourceGraphic" in2="bg"/></filter><mask id="mask-18" x="4.67" y="2.18" width="27.72" height="20.2" maskUnits="userSpaceOnUse"><g class="cls-2"><ellipse class="cls-3" cx="18.53" cy="12.28" rx="14.91" ry="8.46" transform="translate(-3.54 9.64) rotate(-26.71)"/></g></mask><radialGradient id="radial-gradient-3" cx="35.09" cy="4612.98" r="6.78" gradientTransform="matrix(2.2, 0, 0, 1.25, -59.04, -5744.71)" gradientUnits="userSpaceOnUse"><stop offset="0"/><stop offset="0.36" stop-color="#020202"/><stop offset="0.48" stop-color="#090909"/><stop offset="0.58" stop-color="#141414"/><stop offset="0.65" stop-color="#252525"/><stop offset="0.71" stop-color="#3b3b3b"/><stop offset="0.77" stop-color="#575757"/><stop offset="0.82" stop-color="#767676"/><stop offset="0.85" stop-color="#939393"/><stop offset="0.86" stop-color="#a4a4a4"/><stop offset="0.87" stop-color="silver"/><stop offset="0.89" stop-color="#d7d7d7"/><stop offset="0.9" stop-color="#e9e9e9"/><stop offset="0.92" stop-color="#f6f6f6"/><stop offset="0.94" stop-color="#fdfdfd"/><stop offset="1" stop-color="#fff"/></radialGradient><linearGradient id="linear-gradient-7" x1="14.74" y1="-3.35" x2="27.29" y2="12.37" gradientUnits="userSpaceOnUse"><stop offset="0" stop-color="#980901"/><stop offset="0.48" stop-color="#e72800"/><stop offset="0.67" stop-color="#b60901"/><stop offset="0.68" stop-color="#b00901"/><stop offset="0.75" stop-color="#980901"/><stop offset="0.82" stop-color="#870901"/><stop offset="0.89" stop-color="#7c0901"/><stop offset="0.98" stop-color="#790901"/></linearGradient><linearGradient id="linear-gradient-8" x1="18.56" y1="10.09" x2="26.01" y2="15.39" gradientUnits="userSpaceOnUse"><stop offset="0.32" stop-color="#eb1200"/><stop offset="0.36" stop-color="#e21100"/><stop offset="0.54" stop-color="#c20b01"/><stop offset="0.63" stop-color="#b60901"/><stop offset="0.98" stop-color="#790901"/></linearGradient><radialGradient id="radial-gradient-4" cx="27.85" cy="3.57" r="15.48" gradientUnits="userSpaceOnUse"><stop offset="0.32" stop-color="#eb1200"/><stop offset="0.52" stop-color="#e91200"/><stop offset="0.62" stop-color="#e11000"/><stop offset="0.71" stop-color="#d30e00"/><stop offset="0.78" stop-color="#c00b01"/><stop offset="0.81" stop-color="#b60901"/><stop offset="0.89" stop-color="#b40901"/><stop offset="0.92" stop-color="#ad0901"/><stop offset="0.94" stop-color="#a20901"/><stop offset="0.96" stop-color="#910901"/><stop offset="0.98" stop-color="#7b0901"/><stop offset="0.98" stop-color="#790901"/></radialGradient><linearGradient id="linear-gradient-9" x1="17.6" y1="0.13" x2="16.85" y2="5.44" gradientUnits="userSpaceOnUse"><stop offset="0.32" stop-color="#eb1200"/><stop offset="0.47" stop-color="#e91200"/><stop offset="0.55" stop-color="#e11000"/><stop offset="0.61" stop-color="#d30e00"/><stop offset="0.67" stop-color="#c00b01"/><stop offset="0.69" stop-color="#b60901"/><stop offset="0.98" stop-color="#790901"/></linearGradient><linearGradient id="linear-gradient-10" x1="11.66" y1="-0.22" x2="14.27" y2="7.92" gradientUnits="userSpaceOnUse"><stop offset="0.32" stop-color="#eb1200"/><stop offset="0.52" stop-color="#e91200"/><stop offset="0.62" stop-color="#e11000"/><stop offset="0.71" stop-color="#d30e00"/><stop offset="0.78" stop-color="#c00b01"/><stop offset="0.81" stop-color="#b60901"/><stop offset="0.98" stop-color="#790901"/></linearGradient><radialGradient id="radial-gradient-5" cx="12.88" cy="4.4" r="6.09" gradientUnits="userSpaceOnUse"><stop offset="0.32" stop-color="#eb1200"/><stop offset="0.44" stop-color="#e31100"/><stop offset="0.63" stop-color="#ce0d01"/><stop offset="0.79" stop-color="#b60901"/><stop offset="0.98" stop-color="#790901"/></radialGradient><linearGradient id="linear-gradient-11" x1="18.02" y1="1.83" x2="9.64" y2="13.99" gradientUnits="userSpaceOnUse"><stop offset="0" stop-color="#980901"/><stop offset="0.07" stop-color="#b01301"/><stop offset="0.16" stop-color="#c81c00"/><stop offset="0.25" stop-color="#da2300"/><stop offset="0.35" stop-color="#e42700"/><stop offset="0.48" stop-color="#e72800"/><stop offset="0.49" stop-color="#e42600"/><stop offset="0.67" stop-color="#c31101"/><stop offset="0.77" stop-color="#b60901"/><stop offset="0.98" stop-color="#790901"/></linearGradient><linearGradient id="linear-gradient-12" x1="7.49" y1="12.57" x2="8.97" y2="19.37" gradientUnits="userSpaceOnUse"><stop offset="0.32" stop-color="#eb1200"/><stop offset="0.47" stop-color="#e91200"/><stop offset="0.54" stop-color="#e11000"/><stop offset="0.6" stop-color="#d30e00"/><stop offset="0.65" stop-color="#c00b01"/><stop offset="0.68" stop-color="#b60901"/><stop offset="0.94" stop-color="#790901"/></linearGradient><radialGradient id="radial-gradient-6" cx="10.04" cy="3.82" r="18.49" xlink:href="#linear-gradient-10"/><mask id="mask-19" x="14.28" y="13.72" width="6.84" height="2" maskUnits="userSpaceOnUse"><g class="cls-24"><path class="cls-25" d="M19.58,13.72a14,14,0,0,1-3.45,1.16c-1.24.17-2.57.71-1.41.83a18.13,18.13,0,0,0,6.4-1.33C20.93,14,20.33,13.84,19.58,13.72Z"/></g></mask><linearGradient id="Fade_To_White" x1="12.3" y1="15.4" x2="23.82" y2="13.9" gradientUnits="userSpaceOnUse"><stop offset="0" stop-color="#fff"/><stop offset="1" stop-color="#fff"/></linearGradient><linearGradient id="linear-gradient-13" x1="8.34" y1="14.03" x2="13.38" y2="12.41" gradientUnits="userSpaceOnUse"><stop offset="0.32" stop-color="#eb1200"/><stop offset="0.46" stop-color="#e91200"/><stop offset="0.54" stop-color="#e11000"/><stop offset="0.6" stop-color="#d30e00"/><stop offset="0.65" stop-color="#c00b01"/><stop offset="0.67" stop-color="#b60901"/><stop offset="0.98" stop-color="#790901"/></linearGradient><linearGradient id="linear-gradient-14" x1="8.95" y1="15.22" x2="13.65" y2="13.34" gradientUnits="userSpaceOnUse"><stop offset="0.32" stop-color="#eb1200"/><stop offset="0.46" stop-color="#e91200"/><stop offset="0.53" stop-color="#e11000"/><stop offset="0.59" stop-color="#d30e00"/><stop offset="0.64" stop-color="#c00b01"/><stop offset="0.66" stop-color="#b60901"/><stop offset="0.98" stop-color="#790901"/></linearGradient><linearGradient id="linear-gradient-15" x1="13.33" y1="10.77" x2="5.97" y2="15.52" gradientUnits="userSpaceOnUse"><stop offset="0.49" stop-color="#eb1200"/><stop offset="0.58" stop-color="#df1000"/><stop offset="0.75" stop-color="#c00b01"/><stop offset="0.79" stop-color="#b60901"/><stop offset="0.98" stop-color="#790901"/></linearGradient><radialGradient id="radial-gradient-7" cx="10.46" cy="2.74" r="8.96" xlink:href="#radial-gradient-5"/><filter id="luminosity-noclip-18" x="5.82" y="6.46" width="2.75" height="0.75" filterUnits="userSpaceOnUse" color-interpolation-filters="sRGB"><feFlood flood-color="#fff" result="bg"/><feBlend in="SourceGraphic" in2="bg"/></filter><mask id="mask-20" x="5.82" y="6.46" width="2.75" height="0.75" maskUnits="userSpaceOnUse"><g class="cls-28"><path class="cls-29" d="M8,6.8a9.33,9.33,0,0,1-1.49-.21c-.54-.12-1-.29-.46.21a1.83,1.83,0,0,1,.25.41,1.73,1.73,0,0,1,1-.25c.54,0,.79.29,1.12,0S8.26,6.8,8,6.8Z"/></g></mask><linearGradient id="Fade_To_White-2" x1="1.21" y1="5.98" x2="8.66" y2="7.22" xlink:href="#Fade_To_White"/><filter id="luminosity-noclip-19" x="9.3" y="6.88" width="1.18" height="1.13" filterUnits="userSpaceOnUse" color-interpolation-filters="sRGB"><feFlood flood-color="#fff" result="bg"/><feBlend in="SourceGraphic" in2="bg"/></filter><mask id="mask-21" x="9.3" y="6.88" width="1.18" height="1.13" maskUnits="userSpaceOnUse"><g class="cls-30"><path class="cls-31" d="M9.3,6.88c.58.17,1.32.37,1.16.79s-.58.5-.79,0S9.54,7,9.3,6.88Z"/></g></mask><linearGradient id="linear-gradient-16" x1="7.31" y1="7.05" x2="11.7" y2="7.79" gradientUnits="userSpaceOnUse"><stop offset="0.17" stop-color="#fff"/><stop offset="1" stop-color="#fff"/></linearGradient><radialGradient id="radial-gradient-8" cx="13.36" cy="6.8" r="15.74" gradientUnits="userSpaceOnUse"><stop offset="0.32" stop-color="#eb1200"/><stop offset="0.49" stop-color="#d40e00"/><stop offset="0.67" stop-color="#b60901"/><stop offset="0.98" stop-color="#790901"/></radialGradient><mask id="mask-22" x="7.05" y="11.6" width="1.81" height="6.47" maskUnits="userSpaceOnUse"><g class="cls-32"><path class="cls-33" d="M7.22,11.6a.36.36,0,0,0-.17,0,1.64,1.64,0,0,0,.26.9c.33.7,1.78,3.27.46,5.55a5.53,5.53,0,0,0,1.08-3.81,24.43,24.43,0,0,0-.6-2.62A6.08,6.08,0,0,1,7.22,11.6Z"/></g></mask><linearGradient id="Fade_To_White-3" x1="7.22" y1="14.95" x2="10.12" y2="13.29" xlink:href="#Fade_To_White"/><mask id="mask-23" x="4.09" y="8.28" width="4.37" height="2.78" maskUnits="userSpaceOnUse"><g class="cls-4"><path class="cls-5" d="M8.43,10.82c-.37-2.36-2.9-3-3.89-2.24s-.12,2.44.58,2.48,1-.45,1.78-.41S8.63,11.31,8.43,10.82Z"/></g></mask><linearGradient id="Fade_To_White-4" x1="4.09" y1="9.68" x2="10.48" y2="9.68" xlink:href="#Fade_To_White"/><mask id="mask-24" x="4.21" y="14.05" width="3.12" height="4.76" maskUnits="userSpaceOnUse"><g class="cls-6"><path class="cls-7" d="M4.95,14.46c-.37-.37-.58-.7-.71,0a3.78,3.78,0,0,0,3.08,4.34c0-.11-.19-.17-.51-.33-.5-.25-1-1.19-.79-1.66.13-.25.13-.25-.12-.42s-.62-.58-.17-.46.46.41.62.25S6.6,15.62,6,15l-.17-.2A.8.8,0,0,1,4.95,14.46Z"/></g></mask><linearGradient id="linear-gradient-17" x1="3.38" y1="16.43" x2="6.9" y2="16.43" xlink:href="#Fade_To_White"/><linearGradient id="linear-gradient-18" x1="29.03" y1="13.56" x2="25.99" y2="13.44" xlink:href="#linear-gradient-8"/><linearGradient id="linear-gradient-19" x1="25.14" y1="-0.56" x2="27.96" y2="7.3" gradientUnits="userSpaceOnUse"><stop offset="0" stop-color="#980901"/><stop offset="0.03" stop-color="#9d0b01"/><stop offset="0.27" stop-color="#c51b00"/><stop offset="0.46" stop-color="#de2400"/><stop offset="0.58" stop-color="#e72800"/><stop offset="0.63" stop-color="#e02300"/><stop offset="0.71" stop-color="#cc1701"/><stop offset="0.77" stop-color="#b60901"/><stop offset="0.97" stop-color="#790901"/></linearGradient><linearGradient id="linear-gradient-20" x1="26.1" y1="-3.78" x2="29.71" y2="7.96" xlink:href="#linear-gradient-19"/><linearGradient id="linear-gradient-21" x1="20.46" y1="14.21" x2="12.93" y2="6.34" gradientUnits="userSpaceOnUse"><stop offset="0" stop-color="#980901"/><stop offset="0.48" stop-color="#e72800"/><stop offset="0.77" stop-color="#b60901"/><stop offset="0.98" stop-color="#790901"/></linearGradient><linearGradient id="linear-gradient-22" x1="23.66" y1="0.18" x2="26.85" y2="4.61" gradientUnits="userSpaceOnUse"><stop offset="0" stop-color="#980901"/><stop offset="0.48" stop-color="#e72800"/><stop offset="0.56" stop-color="#e02300"/><stop offset="0.67" stop-color="#cc1701"/><stop offset="0.77" stop-color="#b60901"/><stop offset="0.98" stop-color="#790901"/></linearGradient><mask id="mask-25" x="26.81" y="1.43" width="1.3" height="2.59" maskUnits="userSpaceOnUse"><g class="cls-8"><path class="cls-9" d="M27.27,1.54c-.33-.27-.62,0-.37.58s.5.37.7.7.46,1.57.5,1.08A2.87,2.87,0,0,0,27.27,1.54Z"/></g></mask><linearGradient id="Fade_To_White-5" x1="29.8" y1="8.18" x2="25.83" y2="-1.58" xlink:href="#Fade_To_White"/><linearGradient id="linear-gradient-23" x1="22.72" y1="0.83" x2="27.04" y2="5.22" gradientUnits="userSpaceOnUse"><stop offset="0" stop-color="#980901"/><stop offset="0.59" stop-color="#e72800"/><stop offset="0.87" stop-color="#b60901"/><stop offset="0.98" stop-color="#790901"/></linearGradient><linearGradient id="linear-gradient-24" x1="25.88" y1="10.17" x2="18.65" y2="2.01" xlink:href="#linear-gradient-21"/><mask id="mask-26" x="28.51" y="2.68" width="0.78" height="3.33" maskUnits="userSpaceOnUse"><g class="cls-10"><path class="cls-11" d="M28.85,2.82c-.19-.37-.37.08-.33.29s0,.75.16,1c.54.58.46,2.36.54,1.87A5.56,5.56,0,0,0,28.85,2.82Z"/></g></mask><linearGradient id="Fade_To_White-6" x1="30.45" y1="7.92" x2="26.47" y2="-1.84" xlink:href="#Fade_To_White"/><mask id="mask-27" x="18.25" y="3.87" width="7.19" height="6.49" maskUnits="userSpaceOnUse"><g class="cls-12"><path class="cls-13" d="M23.9,3.88c-.54-.08-.81.31-1.39.77A5.63,5.63,0,0,0,21,6.51a1.47,1.47,0,0,1-1.24.79c-.41.08-1.86,1.33-1.45,2.11a1.39,1.39,0,0,0,1.82.83c1.08-.54,1-1.62,1.53-1.95s2.2-.3,3-1.12a1.92,1.92,0,0,0,.62-2.07,1.93,1.93,0,0,0-1.26-1.18Z"/></g></mask><linearGradient id="linear-gradient-25" x1="17.4" y1="9.66" x2="31.2" y2="1.58" gradientUnits="userSpaceOnUse"><stop offset="0" stop-color="#fff"/><stop offset="0.85" stop-color="#ff8b00"/></linearGradient><linearGradient id="linear-gradient-26" x1="27.35" y1="6.52" x2="26.56" y2="10.87" gradientUnits="userSpaceOnUse"><stop offset="0.32" stop-color="#eb1200"/><stop offset="0.37" stop-color="#e21100"/><stop offset="0.59" stop-color="#c20b01"/><stop offset="0.71" stop-color="#b60901"/><stop offset="0.98" stop-color="#790901"/></linearGradient><linearGradient id="linear-gradient-27" x1="28.57" y1="13.59" x2="22.69" y2="13.42" xlink:href="#linear-gradient-8"/><radialGradient id="radial-gradient-9" cx="15.43" cy="9.12" r="2.53" gradientUnits="userSpaceOnUse"><stop offset="0.32" stop-color="#eb1200"/><stop offset="0.41" stop-color="#e31100"/><stop offset="0.56" stop-color="#ce0d01"/><stop offset="0.69" stop-color="#b60901"/><stop offset="0.88" stop-color="#790901"/></radialGradient><filter id="luminosity-noclip-20" x="14.41" y="10.38" width="0.7" height="0.75" filterUnits="userSpaceOnUse" color-interpolation-filters="sRGB"><feFlood flood-color="#fff" result="bg"/><feBlend in="SourceGraphic" in2="bg"/></filter><mask id="mask-28" x="14.41" y="10.38" width="0.7" height="0.75" maskUnits="userSpaceOnUse"><g class="cls-14"><path class="cls-15" d="M14.7,10.38c-.19,0-.29.08-.29.15s.27,0,.43.16.17.46.23.44S15.16,10.4,14.7,10.38Z"/></g></mask><linearGradient id="Fade_To_White-7" x1="14.87" y1="11.33" x2="14.62" y2="9.9" xlink:href="#Fade_To_White"/><mask id="mask-29" x="26.47" y="9.18" width="0.65" height="1.86" maskUnits="userSpaceOnUse"><g class="cls-16"><path class="cls-17" d="M26.65,9.2c-.36-.15-.08.66.08.91s.25,1.16.33.87S27.23,9.45,26.65,9.2Z"/></g></mask><linearGradient id="linear-gradient-28" x1="26.47" y1="10.11" x2="27.12" y2="10.11" gradientUnits="userSpaceOnUse"><stop offset="0" stop-color="#fff"/><stop offset="0.07" stop-color="#fffaf5"/><stop offset="0.2" stop-color="#ffeeda"/><stop offset="0.35" stop-color="#ffdaae"/><stop offset="0.54" stop-color="#ffbf72"/><stop offset="0.75" stop-color="#ff9c25"/><stop offset="0.85" stop-color="#ff8b00"/></linearGradient><filter id="luminosity-noclip-21" x="13" y="9.26" width="1.48" height="1.26" filterUnits="userSpaceOnUse" color-interpolation-filters="sRGB"><feFlood flood-color="#fff" result="bg"/><feBlend in="SourceGraphic" in2="bg"/></filter><mask id="mask-30" x="13" y="9.26" width="1.48" height="1.26" maskUnits="userSpaceOnUse"><g class="cls-18"><path class="cls-19" d="M13.83,9.31a1.16,1.16,0,0,0-.83,1c0,.33.5.21.62.12s.58-.75.79-.87S14.37,9.14,13.83,9.31Z"/></g></mask><linearGradient id="Fade_To_White-8" x1="12.19" y1="11.39" x2="15.8" y2="7.54" xlink:href="#Fade_To_White"/><mask id="mask-31" x="14.32" y="0.4" width="11.56" height="8.62" maskUnits="userSpaceOnUse"><g class="cls-20"><path class="cls-21" d="M21.93,1.46c-1.11.6-5.82,4.49-7.37,6.87-.76,1.17.56.54,1,.25a83.57,83.57,0,0,0,7.62-6.3,7.76,7.76,0,0,1,2.48-1.16c.58-.17,0-.87-1-.71A11.83,11.83,0,0,0,21.93,1.46Z"/></g></mask><linearGradient id="Fade_To_White-9" x1="13.12" y1="8.68" x2="29.71" y2="-2.13" xlink:href="#Fade_To_White"/><linearGradient id="linear-gradient-29" x1="16.77" y1="17.77" x2="19.97" y2="4.86" gradientUnits="userSpaceOnUse"><stop offset="0" stop-color="#eb1200"/><stop offset="0.31" stop-color="#e91200"/><stop offset="0.43" stop-color="#e21100"/><stop offset="0.51" stop-color="#d70f00"/><stop offset="0.57" stop-color="#c60c01"/><stop offset="0.61" stop-color="#b60901"/><stop offset="0.98" stop-color="#790901"/></linearGradient><linearGradient id="linear-gradient-30" x1="24.5" y1="6.53" x2="23.03" y2="11.1" xlink:href="#linear-gradient-26"/><linearGradient id="linear-gradient-31" x1="25.39" y1="6.19" x2="25.01" y2="10.6" gradientUnits="userSpaceOnUse"><stop offset="0.09" stop-color="#eb1200"/><stop offset="0.18" stop-color="#e21100"/><stop offset="0.52" stop-color="#c20b01"/><stop offset="0.71" stop-color="#b60901"/><stop offset="0.98" stop-color="#790901"/></linearGradient><mask id="mask-32" x="23.37" y="8.07" width="0.7" height="3" maskUnits="userSpaceOnUse"><g class="cls-22"><path class="cls-23" d="M23.79,8.12c-.16-.24,0,.37-.08,1-.12,1.41-.52,1.95-.25,2s.54-.33.58-.91A3.75,3.75,0,0,0,23.79,8.12Z"/></g></mask><linearGradient id="linear-gradient-32" x1="22.6" y1="5.63" x2="24.03" y2="11.16" xlink:href="#linear-gradient-28"/><mask id="mask-33" x="24.91" y="7.58" width="0.75" height="2.91" maskUnits="userSpaceOnUse"><g class="cls-26"><path class="cls-27" d="M25.53,7.59c-.28-.07-.14.58-.17.83-.12,1.45-.7,2.11-.33,2.07s.58-.41.62-1.66C25.66,8.08,25.7,7.63,25.53,7.59Z"/></g></mask><linearGradient id="linear-gradient-33" x1="25.76" y1="5.98" x2="25.13" y2="10.95" xlink:href="#linear-gradient-28"/><linearGradient id="linear-gradient-34" x1="41.57" y1="10.34" x2="2.5" y2="13.75" gradientUnits="userSpaceOnUse"><stop offset="0" stop-color="#980901"/><stop offset="0.04" stop-color="#b01301"/><stop offset="0.1" stop-color="#c81c00"/><stop offset="0.16" stop-color="#da2300"/><stop offset="0.22" stop-color="#e42700"/><stop offset="0.3" stop-color="#e72800"/><stop offset="0.32" stop-color="#e42600"/><stop offset="0.61" stop-color="#c31101"/><stop offset="0.77" stop-color="#b60901"/><stop offset="0.98" stop-color="#790901"/></linearGradient><linearGradient id="linear-gradient-35" x1="15.46" y1="9.6" x2="14.84" y2="13.7" xlink:href="#linear-gradient-11"/></defs><title>Ресурс 15food2</title><g class="cls-34"><g id="Слой_2" data-name="Слой 2"><g id="Layer_1" data-name="Layer 1"><g class="cls-35"><g class="cls-36"><ellipse class="cls-37" cx="18.53" cy="12.28" rx="14.91" ry="8.46" transform="translate(-3.54 9.64) rotate(-26.71)"/></g></g><path class="cls-38" d="M20,12.06c1,.08,3.27,1.12,4.72.66A3.42,3.42,0,0,0,27.06,11a4.32,4.32,0,0,1,.75-1.12,3.77,3.77,0,0,0,.41-1c.16-.54.5-.5.66-1.37-.5-2.4-.42-3-1.53-3.23a2.45,2.45,0,0,0-2.44.62C24.66,5.31,20,12.06,20,12.06Z"/><path class="cls-39" d="M23.09,10.86c-.12.37.21,6.38.7,6.42.17,0,.37-.29.29-2.49s-.12-4-.12-4.35A2,2,0,0,1,23.09,10.86Z"/><path class="cls-40" d="M21.6,17.49a2.84,2.84,0,0,0,1.7-1.24,3.62,3.62,0,0,0,.5-2.73c-.29-1-1-1.2-1.2-1.62s-.46-.87-1.12-.66-2.48,1.08-2.32,1.7a4.22,4.22,0,0,0,.33.91Z"/><path class="cls-41" d="M16.3,5.35c0-1-.08-1.37.25-1.82s.79-.5,1.28.29A4.44,4.44,0,0,1,16.3,5.35Z"/><path class="cls-42" d="M11.61,7.26c.37-.5,2.15-3.69,4.31-1.66.46.54-.29.92-.58,1s-.94-.42-1.2-.25a5.15,5.15,0,0,0-1.62,2.19C12,8.62,11.61,7.26,11.61,7.26Z"/><path class="cls-43" d="M10.5,7.38c.46.12.87-.21.79-1,.54.33,3.23,1.08,3.27,1.66.09,1.2-.76,3-2.61,2.73-1.66-.33-2-1.24-2.44-1.2A4.28,4.28,0,0,0,10.5,7.38Z"/><path class="cls-44" d="M12.24,11.56c-.37.21-.49.47-.83.29s-.54-.37-.25-.87,1.23-2.29,1.7-3C14,6.37,15.72,3.94,17.58,4.19c.16-.2.13-.29-.5-.25a4.9,4.9,0,0,0-2.69,1.57,27.08,27.08,0,0,0-4.14,6.17c-.08.25-.25.54,1.45.91C12,12.52,12.69,11.81,12.24,11.56Z"/><path class="cls-45" d="M12.73,15.62c-.7.12-8,1.86-9.69,2.69a18.21,18.21,0,0,0,9.61-1.08C13.69,16.74,14.81,15,12.73,15.62Z"/><path class="cls-46" d="M18.78,18.94c-1.57.54-2.53,1.37-5.38,2.07a25.69,25.69,0,0,1-9.07.08c-1.7-.37-2.32-1.24-2.16-1.78a3.58,3.58,0,0,0,2.65.08c1-.25,4.43-1.16,5.55-1.57A4.35,4.35,0,0,0,12,17a10.72,10.72,0,0,0,1.7-1.66,2,2,0,0,1,1.37-.66c.41-.08.58-.29.87-.33s.7.17,1,0a2.36,2.36,0,0,1,1-.41c.29,0,.62-.41,1-.41a3.78,3.78,0,0,1,1.78.25c.75.33,1.49.79,1.53,1.66a2.14,2.14,0,0,1-.79,2.07A14.41,14.41,0,0,1,18.78,18.94Z"/><g class="cls-47"><path class="cls-48" d="M19.58,13.72a14,14,0,0,1-3.45,1.16c-1.24.17-2.57.71-1.41.83a18.13,18.13,0,0,0,6.4-1.33C20.93,14,20.33,13.84,19.58,13.72Z"/></g><path class="cls-49" d="M12.24,12c-.17,0-.33.33-.54.58s-.54,1.37-3.6,1.7v.21a4.66,4.66,0,0,0,4-1.74C12.4,12.47,12.65,12,12.24,12Z"/><path class="cls-50" d="M12.73,12.47c-.16,0-.29.25-.41.45-.58,1-2.82,2.44-3.52,3.15a2.07,2.07,0,0,1-.12.5,27.82,27.82,0,0,1,2.36-2c.75-.58,1.39-1.59,1.7-1.74S12.73,12.47,12.73,12.47Z"/><path class="cls-51" d="M5.28,12.89a2.88,2.88,0,0,0,1,1.62,8.88,8.88,0,0,1,.83,4.14c0,.29.25.37.79-.17s1.91-1.32,1.08-6.63C5.73,9.58,5.36,12.43,5.28,12.89Z"/><path class="cls-52" d="M8.84,10.69c.54-.37,1.49-1.28,1.74-1.45s.75-.41.75-.91S10.46,7,9.63,6.8s-2.44-.29-3.15-.41-1.24,0-1,.87S8.84,10.69,8.84,10.69Z"/><g class="cls-53"><path class="cls-54" d="M8,6.8a9.33,9.33,0,0,1-1.49-.21c-.54-.12-1-.29-.46.21a1.83,1.83,0,0,1,.25.41,1.73,1.73,0,0,1,1-.25c.54,0,.79.29,1.12,0S8.26,6.8,8,6.8Z"/></g><g class="cls-55"><path class="cls-56" d="M9.3,6.88c.58.17,1.32.37,1.16.79s-.58.5-.79,0S9.54,7,9.3,6.88Z"/></g><path class="cls-57" d="M9.17,11.11c-.12-.42,0-.66-.25-1s-.07-.56-.29-1a1.47,1.47,0,0,0-.74-.83c-.54-.29-.42-.41-.75-.62S5.53,7.3,5.53,7A6.29,6.29,0,0,0,2.09,9.58C1,11.19-1.27,15.75.93,17.9s5.22,1.95,6.25,1.16c.1-.12.15-.19.14-.25s-.19-.17-.51-.33c-.5-.25-1-1.19-.79-1.66.13-.25.13-.25-.12-.42s-.62-.58-.17-.46.46.41.62.25S6.6,15.62,6,15l-.17-.2c-.34-.43,0-.35-.36-.71s0-1,.37-1.41,1-1.12,1.37-1,.87,0,1.12,0,.74.75.74,1A3.21,3.21,0,0,0,9.17,11.11Z"/><g class="cls-58"><path class="cls-59" d="M7.22,11.6a.36.36,0,0,0-.17,0,1.64,1.64,0,0,0,.26.9c.33.7,1.78,3.27.46,5.55a5.53,5.53,0,0,0,1.08-3.81,24.43,24.43,0,0,0-.6-2.62A6.08,6.08,0,0,1,7.22,11.6Z"/></g><g class="cls-60"><path class="cls-61" d="M8.43,10.82c-.37-2.36-2.9-3-3.89-2.24s-.12,2.44.58,2.48,1-.45,1.78-.41S8.63,11.31,8.43,10.82Z"/></g><g class="cls-62"><path class="cls-63" d="M4.95,14.46c-.37-.37-.58-.7-.71,0a3.78,3.78,0,0,0,3.08,4.34c0-.11-.19-.17-.51-.33-.5-.25-1-1.19-.79-1.66.13-.25.13-.25-.12-.42s-.62-.58-.17-.46.46.41.62.25S6.6,15.62,6,15l-.17-.2A.8.8,0,0,1,4.95,14.46Z"/></g><path class="cls-64" d="M26.78,11a15.85,15.85,0,0,1,.08,1.7,10.68,10.68,0,0,1-.12,2.82c-.17.29-1.24,1.2-1,1.2s1.49-.21,1.74-1a12.62,12.62,0,0,0,0-3.07c0-.87.12-2.11-.16-2.44S26.78,11,26.78,11Z"/><path class="cls-65" d="M28.27,2.91A4.48,4.48,0,0,0,26.4.23,4.92,4.92,0,0,0,25.66,0a3.12,3.12,0,0,0-2.11.33s1.08.58,2.07,1.2.29,2.69.7,2.86.41.79.58,1.33,1,.54,1.38.62A7.83,7.83,0,0,0,28.27,2.91Z"/><path class="cls-66" d="M29.3,3.57a5,5,0,0,0-1.45-2.44A3.64,3.64,0,0,0,26.4.23a4.48,4.48,0,0,1,1.87,2.68,7.83,7.83,0,0,1,0,3.47h0c.37.08.33,1.2.46,1.41A6.4,6.4,0,0,0,29.3,3.57Z"/><path class="cls-67" d="M19.57,5.89A3.22,3.22,0,0,0,16.51,5l0,.06A10.77,10.77,0,0,0,14.51,7.3a9.16,9.16,0,0,0-1.16,1.57,1.64,1.64,0,0,1-.66.83A2.83,2.83,0,0,1,12.36,11a4.29,4.29,0,0,0-.58,1.33.82.82,0,0,0,.91.66,2.83,2.83,0,0,0,1-.5c.25-.17,1.2-.62,1.7-.12s1.29,1.38,2.2,1.28c.65-.07,3.12-1.89,4.16-2.4C20.4,8.75,20.93,7.17,19.57,5.89Z"/><path class="cls-68" d="M22.63.92A1.5,1.5,0,0,1,24,.26,3.22,3.22,0,0,1,26.49,2c1.08,2.36-.13,3-.13,3Z"/><g class="cls-69"><path class="cls-70" d="M27.27,1.54c-.33-.27-.62,0-.37.58s.5.37.7.7.46,1.57.5,1.08A2.87,2.87,0,0,0,27.27,1.54Z"/></g><path class="cls-71" d="M21.39,1.25c1.24-.5,1.82-1.08,3-.33a5.22,5.22,0,0,1,2.15,2.9,1.73,1.73,0,0,1-.33,1.66C25.62,4.73,22.63,1.25,21.39,1.25Z"/><path class="cls-72" d="M26,5.06c-.58-1-1.33-1.41-1.66-2.32C24,2.16,22.05.5,20.73,1.25a37.9,37.9,0,0,0-3.48,2.82,8.35,8.35,0,0,0-.74.89,3.22,3.22,0,0,1,3.06.93c1.36,1.28.58,2.73,2.18,5.39a1.32,1.32,0,0,1,.35-.13c.66-.08,1.37.58,2.69,0s1.28-1.07,1.28-2.28A4.11,4.11,0,0,1,26.36,7C26.61,6.47,26.61,6.05,26,5.06Z"/><g class="cls-73"><path class="cls-74" d="M28.85,2.82c-.19-.37-.37.08-.33.29s0,.75.16,1c.54.58.46,2.36.54,1.87A5.56,5.56,0,0,0,28.85,2.82Z"/></g><g class="cls-75"><path class="cls-76" d="M23.9,3.88c-.54-.08-.81.31-1.39.77A5.63,5.63,0,0,0,21,6.51a1.47,1.47,0,0,1-1.24.79c-.41.08-1.86,1.33-1.45,2.11a1.39,1.39,0,0,0,1.82.83c1.08-.54,1-1.62,1.53-1.95s2.2-.3,3-1.12a1.92,1.92,0,0,0,.62-2.07,1.93,1.93,0,0,0-1.26-1.18Z"/></g><path class="cls-77" d="M26.49,9c-.36.35-.62.74-.37,1.2s.7,1.62,1,1.16a1.89,1.89,0,0,0,.21-1.53C27.11,9.2,26.69,8.83,26.49,9Z"/><path class="cls-78" d="M24.66,10.49c0,.58,0,1.41-.12,2.19s-.58,3.15,0,4.43c.13.17.21-.21.25-.7s0-.62.16-.91a1.55,1.55,0,0,0,.21-.91c0-.41.16-.17.21-.83s.08-1,.08-1,.13.13.13-.62,0-1.74,0-2.19S24.66,10.49,24.66,10.49Z"/><path class="cls-79" d="M14.72,10.24c-.35,0-.79.17-.58.7s1,.76,1.1.14A.72.72,0,0,0,14.72,10.24Z"/><g class="cls-80"><path class="cls-81" d="M14.7,10.38c-.19,0-.29.08-.29.15s.27,0,.43.16.17.46.23.44S15.16,10.4,14.7,10.38Z"/></g><g class="cls-82"><path class="cls-83" d="M26.65,9.2c-.36-.15-.08.66.08.91s.25,1.16.33.87S27.23,9.45,26.65,9.2Z"/></g><g class="cls-84"><path class="cls-85" d="M13.83,9.31a1.16,1.16,0,0,0-.83,1c0,.33.5.21.62.12s.58-.75.79-.87S14.37,9.14,13.83,9.31Z"/></g><g class="cls-86"><path class="cls-87" d="M21.93,1.46c-1.11.6-5.82,4.49-7.37,6.87-.76,1.17.56.54,1,.25a83.57,83.57,0,0,0,7.62-6.3,7.76,7.76,0,0,1,2.48-1.16c.58-.17,0-.87-1-.71A11.83,11.83,0,0,0,21.93,1.46Z"/></g><path class="cls-88" d="M19.71,5.7a3.21,3.21,0,0,0-3.06-.93l0,.06-.11.09h0a3.21,3.21,0,0,1,3.06.93c1.35,1.27.84,2.83,2.15,5.32l.2-.1C20.29,8.44,21.07,7,19.71,5.7Z"/><path class="cls-89" d="M23.71,7.92c-.38-.06-.66,0-.79.66s-.29,2.65.46,2.69c.91,0,.79-1.24.79-1.58S24.21,8,23.71,7.92Z"/><path class="cls-90" d="M25.28,7.38c-.46,0-.7.33-.75,1.12s-.12,2.32.33,2.32.87.12.91-1.82C25.82,8.25,25.82,7.42,25.28,7.38Z"/><g class="cls-91"><path class="cls-92" d="M23.79,8.12c-.16-.24,0,.37-.08,1-.12,1.41-.52,1.95-.25,2s.54-.33.58-.91A3.75,3.75,0,0,0,23.79,8.12Z"/></g><g class="cls-93"><path class="cls-94" d="M25.53,7.59c-.28-.07-.14.58-.17.83-.12,1.45-.7,2.11-.33,2.07s.58-.41.62-1.66C25.66,8.08,25.7,7.63,25.53,7.59Z"/></g><path class="cls-95" d="M27.89,11.95c-.18-.62-1-1.16-2.25-1.4a7.62,7.62,0,0,0-1-.12l-.73,0c-1.87,0-5.72,1.48-7.92,2.42-.12.05-.17,0-.18,0a5,5,0,0,1-.81.48c-.5.21-.58.08-.87-.29s.45-.84.52-.9c-.35-.21-1.11.18-1.22.49a1.19,1.19,0,0,0,.21,1.24,1.14,1.14,0,0,0,1.08.29c.46-.12,4.64-2.44,7.33-3a11.81,11.81,0,0,1,2.56-.26,9.22,9.22,0,0,1,1,.07c1.24.16,2.08.59,1.93,1.27a3.6,3.6,0,0,1-2,.27.81.81,0,0,1,0,.23C26.75,12.76,28.1,12.67,27.89,11.95Z"/><path class="cls-96" d="M14.18,13c.29.37.37.5.87.29a5,5,0,0,0,.81-.48,1.26,1.26,0,0,0-.18-.77c-.37-.12-.54-.17-.83,0-.12.07-.31.13-.51.21C14.1,12.55,14,12.81,14.18,13Z"/></g></g></g></svg>