<svg xmlns="http://www.w3.org/2000/svg" xmlns:xlink="http://www.w3.org/1999/xlink" viewBox="0 0 281.75 177.1"><defs><style>.cls-1{fill:#aa1307;}.cls-2{fill:url(#linear-gradient);}.cls-3{fill:url(#linear-gradient-2);}.cls-4{fill:url(#linear-gradient-3);}</style><linearGradient id="linear-gradient" x1="266.91" y1="157.21" x2="281.53" y2="157.21" gradientUnits="userSpaceOnUse"><stop offset="0" stop-color="#f4210b"/><stop offset="0.77" stop-color="#aa1307"/></linearGradient><linearGradient id="linear-gradient-2" x1="140.84" x2="140.84" y2="161.75" gradientUnits="userSpaceOnUse"><stop offset="0" stop-color="#f4210b"/><stop offset="0.35" stop-color="#f2210b"/><stop offset="0.55" stop-color="#e91f0a"/><stop offset="0.71" stop-color="#dc1c0a"/><stop offset="0.85" stop-color="#c81909"/><stop offset="0.98" stop-color="#af1407"/><stop offset="1" stop-color="#aa1307"/></linearGradient><linearGradient id="linear-gradient-3" x1="-788.41" y1="17.56" x2="-788.41" y2="0.93" gradientTransform="matrix(-1, 0, 0, 1, -645.52, 0)" gradientUnits="userSpaceOnUse"><stop offset="0.12" stop-color="#f4210b"/><stop offset="0.2" stop-color="#f42b16"/><stop offset="0.34" stop-color="#f64634"/><stop offset="0.52" stop-color="#f87264"/><stop offset="0.74" stop-color="#fbaea6"/><stop offset="0.99" stop-color="#fffbfa"/><stop offset="1" stop-color="#fff"/></linearGradient></defs><title>Ресурс 37ribbon</title><g id="Слой_2" data-name="Слой 2"><g id="Layer_1" data-name="Layer 1"><path class="cls-1" d="M266.91,176.93c1-.34,15-11.39,14.84-20.82v11.67a8.34,8.34,0,0,1-.94,3.76C279.18,174.45,274.88,177.93,266.91,176.93Z"/><path class="cls-2" d="M267.06,137.67s14.46-3.69,14.46,22.17c0,0,.47,11.54-14.62,17.08Z"/><path class="cls-3" d="M266,.15H32.85l-.15,0H13.21C5.91.12,0,19.07,0,42.42v56.4c0,23.36,5.91,42.3,13.21,42.3H32.7a4.57,4.57,0,0,0,2-.56H265.33c13.58-1.37,16,13.49,16.36,21.18V26C278.54-3.54,266,.15,266,.15Z"/><path class="cls-4" d="M11.32.93H267.85s9.43,3.7,11.32,16.63c0,0-8.18-9.23-17-9.23H6.6Z"/><path class="cls-1" d="M5.89,134.17h263s8.75,2.72,11.43,17.91c0,0-8.46-10.95-16.76-10.95H13.21Z"/></g></g></svg>