<svg xmlns="http://www.w3.org/2000/svg" xmlns:xlink="http://www.w3.org/1999/xlink" viewBox="0 0 199.21 201.34"><defs><style>.cls-1{fill:#ce0202;}.cls-2{fill:url(#linear-gradient);}.cls-3{fill:#fff;}</style><linearGradient id="linear-gradient" y1="90.89" x2="181.78" y2="90.89" gradientUnits="userSpaceOnUse"><stop offset="0" stop-color="#f40808"/><stop offset="0.24" stop-color="#e80707"/><stop offset="0.57" stop-color="#de0505"/><stop offset="1" stop-color="#db0505"/></linearGradient></defs><title>Ресурс 8ribbon</title><g id="Слой_2" data-name="Слой 2"><g id="Layer_1" data-name="Layer 1"><polygon class="cls-1" points="22.77 159.01 22.77 201.34 0 181.06 22.77 159.01"/><polygon class="cls-2" points="0 1.78 0 181.78 181.78 0 0 1.78"/><polygon class="cls-1" points="162.56 18.5 199.21 18.5 181.78 0 162.56 18.5"/><rect class="cls-3" x="165.41" y="2.64" width="6.1" height="1.22" transform="translate(46.64 119.65) rotate(-44.8)"/><path class="cls-3" d="M9.82,161.33,9,160.46l8.72-8.64.86.87Zm13.08-13-.86-.87,8.72-8.64.86.87Zm13.07-13-.86-.87,8.72-8.64.86.87Zm13.08-13-.86-.87L56.91,113l.86.87Zm13.07-13-.86-.87L70,100l.86.87Zm13.07-13-.86-.87L83.05,87l.86.87Zm13.08-13-.86-.87,8.72-8.64.86.87Zm13.07-13-.86-.87,8.71-8.64.86.87Zm13.08-13-.86-.87,8.72-8.64.86.87Zm13.07-13-.86-.87,8.72-8.64.86.87Zm13.08-13-.86-.87,8.72-8.64.86.87Zm13.08-13-.86-.87,8.71-8.64.86.87Z"/><rect class="cls-3" x="-0.18" y="166.75" width="6.1" height="1.22" transform="translate(-116.91 50.44) rotate(-44.71)"/></g></g></svg>