<svg xmlns="http://www.w3.org/2000/svg" xmlns:xlink="http://www.w3.org/1999/xlink" viewBox="0 0 326.96 302.85"><defs><style>.cls-1{mask:url(#mask);filter:url(#luminosity-noclip-2);}.cls-2{mix-blend-mode:multiply;fill:url(#linear-gradient);}.cls-3{fill:url(#linear-gradient-2);}.cls-4{fill:#f15a24;}.cls-5{mask:url(#mask-2);}.cls-6{opacity:0.5;fill:url(#linear-gradient-3);}.cls-7{filter:url(#luminosity-noclip);}</style><filter id="luminosity-noclip" x="0" y="-9630.11" width="326.96" height="32766" filterUnits="userSpaceOnUse" color-interpolation-filters="sRGB"><feFlood flood-color="#fff" result="bg"/><feBlend in="SourceGraphic" in2="bg"/></filter><mask id="mask" x="0" y="-9630.11" width="326.96" height="32766" maskUnits="userSpaceOnUse"><g class="cls-7"/></mask><linearGradient id="linear-gradient" x1="163.48" y1="10.67" x2="163.48" gradientUnits="userSpaceOnUse"><stop offset="0"/><stop offset="0.71" stop-color="#fff"/></linearGradient><linearGradient id="linear-gradient-2" x1="166.62" y1="1.75" x2="166.62" y2="302.85" gradientUnits="userSpaceOnUse"><stop offset="0" stop-color="#c1272d"/><stop offset="0.01" stop-color="#d0232a"/><stop offset="0.04" stop-color="#e51e26"/><stop offset="0.05" stop-color="#ed1c24"/><stop offset="0.13" stop-color="#fc9fa6"/><stop offset="0.34" stop-color="#ed1c24"/><stop offset="0.57" stop-color="#96111b"/><stop offset="0.72" stop-color="#c1272d"/><stop offset="0.95" stop-color="#ed1c24"/></linearGradient><filter id="luminosity-noclip-2" x="0" y="0" width="326.96" height="10.67" filterUnits="userSpaceOnUse" color-interpolation-filters="sRGB"><feFlood flood-color="#fff" result="bg"/><feBlend in="SourceGraphic" in2="bg"/></filter><mask id="mask-2" x="0" y="0" width="326.96" height="10.67" maskUnits="userSpaceOnUse"><g class="cls-1"><path class="cls-2" d="M0,10.67s162.45-24,327,0Z"/></g></mask><linearGradient id="linear-gradient-3" x1="163.48" y1="10.67" x2="163.48" gradientUnits="userSpaceOnUse"><stop offset="0" stop-color="#fff"/><stop offset="0.71" stop-color="#231f20"/></linearGradient></defs><title>Ресурс 6ribbon</title><g id="Слой_2" data-name="Слой 2"><g id="Layer_1" data-name="Layer 1"><polygon class="cls-3" points="247.33 2.37 166.96 1.76 166.96 1.75 166.62 1.75 166.28 1.75 166.28 1.76 85.91 2.37 85.91 302.86 166.62 259.49 247.33 302.86 247.33 2.37"/><rect class="cls-4" x="93.76" y="6.73" width="2.06" height="4.67"/><path class="cls-4" d="M95.82,285.87H93.76v-9.21h2.06Zm0-18.42H93.76v-9.21h2.06Zm0-18.42H93.76v-9.21h2.06Zm0-18.42H93.76v-9.21h2.06Zm0-18.42H93.76V203h2.06Zm0-18.42H93.76v-9.21h2.06Zm0-18.42H93.76v-9.21h2.06Zm0-18.42H93.76V147.7h2.06Zm0-18.42H93.76v-9.21h2.06Zm0-18.42H93.76v-9.21h2.06Zm0-18.42H93.76V92.43h2.06Zm0-18.42H93.76V74h2.06Zm0-18.42H93.76V55.59h2.06Zm0-18.42H93.76V37.16h2.06Zm0-18.42H93.76V18.74h2.06Z"/><rect class="cls-4" x="93.93" y="292.9" width="2.06" height="4.67"/><rect class="cls-4" x="92.73" y="6.73" width="2.06" height="4.67"/><path class="cls-4" d="M94.79,285.87H92.73v-9.21h2.06Zm0-18.42H92.73v-9.21h2.06Zm0-18.42H92.73v-9.21h2.06Zm0-18.42H92.73v-9.21h2.06Zm0-18.42H92.73V203h2.06Zm0-18.42H92.73v-9.21h2.06Zm0-18.42H92.73v-9.21h2.06Zm0-18.42H92.73V147.7h2.06Zm0-18.42H92.73v-9.21h2.06Zm0-18.42H92.73v-9.21h2.06Zm0-18.42H92.73V92.43h2.06Zm0-18.42H92.73V74h2.06Zm0-18.42H92.73V55.59h2.06Zm0-18.42H92.73V37.16h2.06Zm0-18.42H92.73V18.74h2.06Z"/><rect class="cls-4" x="92.9" y="292.9" width="2.06" height="4.67"/><rect class="cls-4" x="239.04" y="6.73" width="2.06" height="4.67"/><path class="cls-4" d="M241.1,285.87H239v-9.21h2.06Zm0-18.42H239v-9.21h2.06Zm0-18.42H239v-9.21h2.06Zm0-18.42H239v-9.21h2.06Zm0-18.42H239V203h2.06Zm0-18.42H239v-9.21h2.06Zm0-18.42H239v-9.21h2.06Zm0-18.42H239V147.7h2.06Zm0-18.42H239v-9.21h2.06Zm0-18.42H239v-9.21h2.06Zm0-18.42H239V92.43h2.06Zm0-18.42H239V74h2.06Zm0-18.42H239V55.59h2.06Zm0-18.42H239V37.16h2.06Zm0-18.42H239V18.74h2.06Z"/><rect class="cls-4" x="239.21" y="292.9" width="2.06" height="4.67"/><rect class="cls-4" x="238.01" y="6.73" width="2.06" height="4.67"/><path class="cls-4" d="M240.07,285.87H238v-9.21h2.06Zm0-18.42H238v-9.21h2.06Zm0-18.42H238v-9.21h2.06Zm0-18.42H238v-9.21h2.06Zm0-18.42H238V203h2.06Zm0-18.42H238v-9.21h2.06Zm0-18.42H238v-9.21h2.06Zm0-18.42H238V147.7h2.06Zm0-18.42H238v-9.21h2.06Zm0-18.42H238v-9.21h2.06Zm0-18.42H238V92.43h2.06Zm0-18.42H238V74h2.06Zm0-18.42H238V55.59h2.06Zm0-18.42H238V37.16h2.06Zm0-18.42H238V18.74h2.06Z"/><rect class="cls-4" x="238.18" y="292.9" width="2.06" height="4.67"/><g class="cls-5"><path class="cls-6" d="M0,10.67s162.45-24,327,0Z"/></g></g></g></svg>