<svg xmlns="http://www.w3.org/2000/svg" xmlns:xlink="http://www.w3.org/1999/xlink" viewBox="0 0 247.38 237.7"><defs><style>.cls-1{opacity:0.13;fill:url(#linear-gradient);}.cls-2{fill:none;}.cls-3{fill:url(#linear-gradient-2);}.cls-4{opacity:0.23;fill:url(#linear-gradient-3);}</style><linearGradient id="linear-gradient" x1="-38.03" y1="-241.48" x2="194.4" y2="-241.48" gradientTransform="translate(15.09 323.44) rotate(10.53)" gradientUnits="userSpaceOnUse"><stop offset="0"/><stop offset="1"/></linearGradient><linearGradient id="linear-gradient-2" x1="44.88" y1="-185.05" x2="143.57" y2="-316.01" gradientTransform="matrix(0.98, 0.19, -0.19, 0.98, 12.94, 321.61)" gradientUnits="userSpaceOnUse"><stop offset="0" stop-color="#d32020"/><stop offset="0.32" stop-color="#ea2e2d"/><stop offset="0.6" stop-color="#fc0808"/><stop offset="0.89" stop-color="#fc9090"/></linearGradient><linearGradient id="linear-gradient-3" x1="0" y1="144.78" x2="224.86" y2="144.78" gradientTransform="matrix(1, 0, 0, 1, 0, 0)" xlink:href="#linear-gradient"/></defs><title>Ресурс 19ribbon</title><g id="Слой_2" data-name="Слой 2"><g id="Layer_1" data-name="Layer 1"><path class="cls-1" d="M194.18,210l17-2.32,3.95-20.48,18.78-9.07-2.61-20.69,15-14.45h0l-8.85-18.88,9.87-18.37L233.11,90.55,236.78,70,218.51,60,215.69,39.3l-20.48-3.95-9.07-18.78-20.69,2.61L151,4.15,132.12,13,113.74,3.13,98.53,17.39,78,13.72,67.95,32,47.28,34.81,43.34,55.29,24.56,64.36l1.32,10.44q8.83,6.35,17.19,12.46C120.21,143.64,167.23,184.41,194.18,210Z"/><polygon class="cls-2" points="245.56 137.91 245.56 137.91 245.56 137.91 245.56 137.91"/><path class="cls-3" d="M189.58,207.37l17-2.23,4.06-20.45,18.83-9L227,155l15.12-14.36h0l-8.73-18.93,10-18.32L229.2,88.12,233,67.61,214.78,57.45l-2.7-20.68L191.62,32.7l-9-18.83L162,16.36,147.59,1.24,128.66,10,110.34,0,95,14.18,74.54,10.39,64.38,28.6,43.7,31.3,39.63,51.76l-18.83,9,1.26,10.45q8.79,6.4,17.12,12.56C116,140.55,162.77,181.6,189.58,207.37Z"/><path class="cls-4" d="M200.42,211.7q-3.26-3.19-7-6.78c-27-25.62-74-66.4-151.12-122.77Q33.91,76,25.08,69.7,13,61,0,51.86L25.49,72.92l15.7,13L188.51,207.66l7.6,6.28,28.74,23.75S218.2,229.1,200.42,211.7Z"/></g></g></svg>