<svg xmlns="http://www.w3.org/2000/svg" xmlns:xlink="http://www.w3.org/1999/xlink" viewBox="0 0 874.41 189.17"><defs><style>.cls-1{fill:none;}.cls-2{fill:#c1272d;}.cls-3{clip-path:url(#clip-path);}.cls-4{fill:#c01f46;}.cls-5{fill:#bf1f46;}.cls-6{fill:#be1f45;}.cls-7{fill:#bd1e45;}.cls-8{fill:#bc1e44;}.cls-9{fill:#bb1e44;}.cls-10{fill:#ba1e44;}.cls-11{fill:#b91e43;}.cls-12{fill:#b81d43;}.cls-13{fill:#b71d43;}.cls-14{fill:#b61d42;}.cls-15{fill:#b51d42;}.cls-16{fill:#b41d41;}.cls-17{fill:#b31c41;}.cls-18{fill:#b21c41;}.cls-19{fill:#b11c40;}.cls-20{fill:#b01c40;}.cls-21{fill:#af1c3f;}.cls-22{fill:#ae1b3f;}.cls-23{fill:#ad1b3f;}.cls-24{fill:#ac1b3e;}.cls-25{fill:#ab1b3e;}.cls-26{fill:#aa1b3e;}.cls-27{fill:#a91a3d;}.cls-28{fill:#a81a3d;}.cls-29{fill:#a71a3c;}.cls-30{fill:#a61a3c;}.cls-31{fill:#a51a3c;}.cls-32{fill:#a4193b;}.cls-33{fill:#a3193b;}.cls-34{fill:#a2193a;}.cls-35{fill:#a1193a;}.cls-36{fill:#a0193a;}.cls-37{fill:#9f1839;}.cls-38{fill:#9e1839;}.cls-39{fill:#9d1839;}.cls-40{fill:#9c1838;}.cls-41{fill:#9b1838;}.cls-42{fill:#9a1737;}.cls-43{fill:#991737;}.cls-44{fill:#981737;}.cls-45{fill:#971736;}.cls-46{fill:#961736;}.cls-47{fill:#951635;}.cls-48{fill:#941635;}.cls-49{fill:#931635;}.cls-50{fill:#921634;}.cls-51{fill:#911634;}.cls-52{fill:#901534;}.cls-53{fill:#8f1533;}.cls-54{fill:#8e1533;}.cls-55{fill:#8d1532;}.cls-56{fill:#8c1532;}.cls-57{fill:#8a1432;}.cls-58{fill:#891431;}.cls-59{fill:#881431;}.cls-60{fill:#871430;}.cls-61{fill:#861330;}.cls-62{fill:#851330;}.cls-63{fill:#84132f;}.cls-64{fill:#83132f;}.cls-65{fill:#82132f;}.cls-66{fill:#81122e;}.cls-67{fill:#80122e;}.cls-68{fill:#7f122d;}.cls-69{fill:#7e122d;}.cls-70{fill:#7d122d;}.cls-71{fill:#7c112c;}.cls-72{fill:#7b112c;}.cls-73{fill:#7a112b;}.cls-74{fill:#79112b;}.cls-75{fill:#78112b;}.cls-76{fill:#77102a;}.cls-77{fill:#76102a;}.cls-78{fill:#75102a;}.cls-79{fill:#741029;}.cls-80{fill:#731029;}.cls-81{fill:#720f28;}.cls-82{fill:#710f28;}.cls-83{fill:#700f28;}.cls-84{fill:#6f0f27;}.cls-85{fill:#6e0f27;}.cls-86{fill:#6d0e26;}.cls-87{fill:#6c0e26;}.cls-88{fill:#6b0e26;}.cls-89{fill:#6a0e25;}.cls-90{fill:#690e25;}.cls-91{fill:#680d25;}.cls-92{fill:#670d24;}.cls-93{fill:#660d24;}.cls-94{fill:#650d23;}.cls-95{fill:#640d23;}.cls-96{fill:#630c23;}.cls-97{fill:#620c22;}.cls-98{fill:#610c22;}.cls-99{fill:#600c21;}.cls-100{fill:#5f0c21;}.cls-101{fill:#5e0b21;}.cls-102{fill:#5d0b20;}.cls-103{fill:#5c0b20;}.cls-104{fill:#5b0b20;}.cls-105{fill:#5a0b1f;}.cls-106{fill:#590a1f;}.cls-107{fill:#580a1e;}.cls-108{fill:#570a1e;}.cls-109{clip-path:url(#clip-path-2);}.cls-110{fill:#ed1c24;}</style><clipPath id="clip-path"><polygon class="cls-1" points="123.97 123.16 222.17 174.68 219.76 122.36 123.97 123.16"/></clipPath><clipPath id="clip-path-2"><polygon class="cls-1" points="750.45 123.16 652.24 174.68 654.65 122.36 750.45 123.16"/></clipPath></defs><title>Ресурс 25ribbon</title><g id="Слой_2" data-name="Слой 2"><g id="Layer_1" data-name="Layer 1"><polygon class="cls-2" points="0 70.84 215.73 53.94 222.17 177.1 8.05 189.17 61.98 125.58 0 70.84"/><polygon class="cls-2" points="15.05 186.36 15.05 186.36 19.6 186.11 21.57 178.84 15.06 186.35 15.05 186.36"/><polygon class="cls-2" points="8.54 75.85 12.17 78.98 13.44 74.29 8.86 74.65 8.54 75.85"/><polygon class="cls-2" points="15.91 82.22 19.54 85.35 22.72 73.58 18.15 73.94 15.91 82.22"/><polygon class="cls-2" points="32.01 72.87 27.44 73.22 23.29 88.59 26.92 91.72 32.01 72.87"/><polygon class="cls-2" points="34.29 98.09 41.3 72.16 36.72 72.5 30.66 94.96 34.29 98.09"/><polygon class="cls-2" points="41.66 104.47 50.58 71.44 46.01 71.8 38.03 101.33 41.66 104.47"/><polygon class="cls-2" points="28.27 171.1 24.29 185.85 28.84 185.6 34.78 163.58 28.27 171.1"/><polygon class="cls-2" points="49.04 110.84 59.87 70.73 55.3 71.09 45.4 107.7 49.04 110.84"/><polygon class="cls-2" points="41.49 155.84 33.52 185.34 38.07 185.09 48 148.33 41.49 155.84"/><polygon class="cls-2" points="56.41 117.22 69.16 70.02 64.58 70.37 52.78 114.08 56.41 117.22"/><polygon class="cls-2" points="54.7 140.6 42.75 184.83 47.3 184.58 61.21 133.08 54.7 140.6"/><polygon class="cls-2" points="63.78 123.59 78.45 69.31 73.87 69.66 60.15 120.45 63.78 123.59"/><polygon class="cls-2" points="83.16 68.95 51.98 184.32 56.53 184.07 87.73 68.6 83.16 68.95"/><polygon class="cls-2" points="92.45 68.24 61.22 183.81 65.76 183.56 97.02 67.89 92.45 68.24"/><polygon class="cls-2" points="101.73 67.52 70.45 183.3 75 183.05 106.31 67.17 101.73 67.52"/><polygon class="cls-2" points="111.02 66.81 79.68 182.79 84.23 182.54 115.59 66.46 111.02 66.81"/><polygon class="cls-2" points="120.31 66.1 88.91 182.28 93.46 182.03 124.88 65.75 120.31 66.1"/><polygon class="cls-2" points="129.6 65.38 98.15 181.77 102.69 181.52 134.17 65.03 129.6 65.38"/><polygon class="cls-2" points="138.88 64.67 107.38 181.26 111.92 181.01 143.46 64.32 138.88 64.67"/><polygon class="cls-2" points="148.17 63.96 116.61 180.75 121.16 180.5 152.74 63.61 148.17 63.96"/><polygon class="cls-2" points="157.46 63.25 125.84 180.24 130.39 179.99 162.03 62.9 157.46 63.25"/><polygon class="cls-2" points="166.75 62.54 135.08 179.73 139.62 179.48 171.32 62.19 166.75 62.54"/><polygon class="cls-2" points="176.03 61.82 144.31 179.22 148.85 178.97 180.6 61.47 176.03 61.82"/><polygon class="cls-2" points="185.32 61.11 153.54 178.72 158.09 178.46 189.89 60.76 185.32 61.11"/><polygon class="cls-2" points="194.6 60.4 162.77 178.21 167.32 177.95 199.18 60.05 194.6 60.4"/><polygon class="cls-2" points="203.89 59.69 172 177.69 176.55 177.44 208.46 59.34 203.89 59.69"/><polygon class="cls-2" points="215.16 58.82 213.17 58.98 181.23 177.19 185.78 176.93 215.58 66.66 215.16 58.82"/><polygon class="cls-2" points="216.34 80.92 190.47 176.68 195.01 176.42 217.08 94.75 216.34 80.92"/><polygon class="cls-2" points="217.85 109.02 199.7 176.17 204.25 175.91 218.59 122.86 217.85 109.02"/><polygon class="cls-2" points="219.35 137.12 208.94 175.65 213.48 175.41 220.09 150.95 219.35 137.12"/><polygon class="cls-2" points="220.85 165.23 218.17 175.15 221.37 174.97 220.85 165.23"/><polygon class="cls-2" points="210.6 59.81 5.25 75.68 3 73.91 210.35 57.2 210.6 59.81"/><polygon class="cls-2" points="222.38 171.06 12.68 183.94 14.57 181.64 222.18 168.45 222.38 171.06"/><g class="cls-3"><polygon class="cls-4" points="123.97 168.73 222.18 165.31 222.18 174.68 123.97 174.68 123.97 168.73"/><polygon class="cls-4" points="123.97 168.3 222.18 164.86 222.18 165.31 123.97 168.73 123.97 168.3"/><polygon class="cls-5" points="123.97 167.86 222.18 164.44 222.18 164.86 123.97 168.3 123.97 167.86"/><polygon class="cls-6" points="123.97 167.43 222.18 164 222.18 164.44 123.97 167.86 123.97 167.43"/><polygon class="cls-7" points="123.97 167 222.18 163.57 222.18 164 123.97 167.43 123.97 167"/><polygon class="cls-8" points="123.97 166.56 222.18 163.14 222.18 163.57 123.97 167 123.97 166.56"/><polygon class="cls-9" points="123.97 166.13 222.18 162.69 222.18 163.14 123.97 166.56 123.97 166.13"/><polygon class="cls-10" points="123.97 165.69 222.18 162.27 222.18 162.69 123.97 166.13 123.97 165.69"/><polygon class="cls-11" points="123.97 165.26 222.18 161.83 222.18 162.27 123.97 165.69 123.97 165.26"/><polygon class="cls-12" points="123.97 164.83 222.18 161.4 222.18 161.83 123.97 165.26 123.97 164.83"/><polygon class="cls-13" points="123.97 164.39 222.18 160.96 222.18 161.4 123.97 164.83 123.97 164.39"/><polygon class="cls-14" points="123.97 163.96 222.18 160.52 222.18 160.96 123.97 164.39 123.97 163.96"/><polygon class="cls-15" points="123.97 163.52 222.18 160.1 222.18 160.52 123.97 163.96 123.97 163.52"/><polygon class="cls-16" points="123.97 163.09 222.18 159.67 222.18 160.1 123.97 163.52 123.97 163.09"/><polygon class="cls-17" points="123.97 162.65 222.18 159.23 222.18 159.67 123.97 163.09 123.97 162.65"/><polygon class="cls-18" points="123.97 162.22 222.18 158.79 222.18 159.23 123.97 162.65 123.97 162.22"/><polygon class="cls-19" points="123.97 161.79 222.18 158.35 222.18 158.79 123.97 162.22 123.97 161.79"/><polygon class="cls-20" points="123.97 161.35 222.18 157.93 222.18 158.35 123.97 161.79 123.97 161.35"/><polygon class="cls-21" points="123.97 160.92 222.18 157.5 222.18 157.93 123.97 161.35 123.97 160.92"/><polygon class="cls-22" points="123.97 160.49 222.18 157.05 222.18 157.5 123.97 160.92 123.97 160.49"/><polygon class="cls-23" points="123.97 160.05 222.18 156.62 222.18 157.05 123.97 160.49 123.97 160.05"/><polygon class="cls-24" points="123.97 159.62 222.18 156.19 222.18 156.62 123.97 160.05 123.97 159.62"/><polygon class="cls-25" points="123.97 159.18 222.18 155.76 222.18 156.19 123.97 159.62 123.97 159.18"/><polygon class="cls-26" points="123.97 158.75 222.18 155.32 222.18 155.76 123.97 159.18 123.97 158.75"/><polygon class="cls-27" points="123.97 158.32 222.18 154.88 222.18 155.32 123.97 158.75 123.97 158.32"/><polygon class="cls-28" points="123.97 157.88 222.18 154.45 222.18 154.88 123.97 158.32 123.97 157.88"/><polygon class="cls-29" points="123.97 157.45 222.18 154.02 222.18 154.45 123.97 157.88 123.97 157.45"/><polygon class="cls-30" points="123.97 157.01 222.18 153.59 222.18 154.02 123.97 157.45 123.97 157.01"/><polygon class="cls-31" points="123.97 156.58 222.18 153.15 222.18 153.59 123.97 157.01 123.97 156.58"/><polygon class="cls-32" points="123.97 156.15 222.18 152.71 222.18 153.15 123.97 156.58 123.97 156.15"/><polygon class="cls-33" points="123.97 155.71 222.18 152.28 222.18 152.71 123.97 156.15 123.97 155.71"/><polygon class="cls-34" points="123.97 155.28 222.18 151.85 222.18 152.28 123.97 155.71 123.97 155.28"/><polygon class="cls-35" points="123.97 154.84 222.18 151.41 222.18 151.85 123.97 155.28 123.97 154.84"/><polygon class="cls-36" points="123.97 154.41 222.18 150.98 222.18 151.41 123.97 154.84 123.97 154.41"/><polygon class="cls-37" points="123.97 153.98 222.18 150.54 222.18 150.98 123.97 154.41 123.97 153.98"/><polygon class="cls-38" points="123.97 153.54 222.18 150.11 222.18 150.54 123.97 153.98 123.97 153.54"/><polygon class="cls-39" points="123.97 153.11 222.18 149.68 222.18 150.11 123.97 153.54 123.97 153.11"/><polygon class="cls-40" points="123.97 152.67 222.18 149.24 222.18 149.68 123.97 153.11 123.97 152.67"/><polygon class="cls-41" points="123.97 152.24 222.18 148.81 222.18 149.24 123.97 152.67 123.97 152.24"/><polygon class="cls-42" points="123.97 151.81 222.18 148.37 222.18 148.81 123.97 152.24 123.97 151.81"/><polygon class="cls-43" points="123.97 151.37 222.18 147.94 222.18 148.37 123.97 151.81 123.97 151.37"/><polygon class="cls-44" points="123.97 150.94 222.18 147.5 222.18 147.94 123.97 151.37 123.97 150.94"/><polygon class="cls-45" points="123.97 150.51 222.18 147.07 222.18 147.5 123.97 150.94 123.97 150.51"/><polygon class="cls-46" points="123.97 150.07 222.18 146.64 222.18 147.07 123.97 150.51 123.97 150.07"/><polygon class="cls-47" points="123.97 149.64 222.18 146.2 222.18 146.64 123.97 150.07 123.97 149.64"/><polygon class="cls-48" points="123.97 149.2 222.18 145.77 222.18 146.2 123.97 149.64 123.97 149.2"/><polygon class="cls-49" points="123.97 148.77 222.18 145.34 222.18 145.77 123.97 149.2 123.97 148.77"/><polygon class="cls-50" points="123.97 148.34 222.18 144.9 222.18 145.34 123.97 148.77 123.97 148.34"/><polygon class="cls-51" points="123.97 147.9 222.18 144.47 222.18 144.9 123.97 148.34 123.97 147.9"/><polygon class="cls-52" points="123.97 147.47 222.18 144.03 222.18 144.47 123.97 147.9 123.97 147.47"/><polygon class="cls-53" points="123.97 147.03 222.18 143.6 222.18 144.03 123.97 147.47 123.97 147.03"/><polygon class="cls-54" points="123.97 146.6 222.18 143.17 222.18 143.6 123.97 147.03 123.97 146.6"/><polygon class="cls-55" points="123.97 146.17 222.18 142.73 222.18 143.17 123.97 146.6 123.97 146.17"/><polygon class="cls-56" points="123.97 145.73 222.18 142.3 222.18 142.73 123.97 146.17 123.97 145.73"/><polygon class="cls-57" points="123.97 145.3 222.18 141.86 222.18 142.3 123.97 145.73 123.97 145.3"/><polygon class="cls-58" points="123.97 144.86 222.18 141.43 222.18 141.86 123.97 145.3 123.97 144.86"/><polygon class="cls-59" points="123.97 144.43 222.18 141 222.18 141.43 123.97 144.86 123.97 144.43"/><polygon class="cls-60" points="123.97 144 222.18 140.56 222.18 141 123.97 144.43 123.97 144"/><polygon class="cls-61" points="123.97 143.56 222.18 140.13 222.18 140.56 123.97 144 123.97 143.56"/><polygon class="cls-62" points="123.97 143.13 222.18 139.69 222.18 140.13 123.97 143.56 123.97 143.13"/><polygon class="cls-63" points="123.97 142.69 222.18 139.26 222.18 139.69 123.97 143.13 123.97 142.69"/><polygon class="cls-64" points="123.97 142.25 222.18 138.83 222.18 139.26 123.97 142.69 123.97 142.25"/><polygon class="cls-65" points="123.97 141.83 222.18 138.39 222.18 138.83 123.97 142.25 123.97 141.83"/><polygon class="cls-66" points="123.97 141.39 222.18 137.96 222.18 138.39 123.97 141.83 123.97 141.39"/><polygon class="cls-67" points="123.97 140.96 222.18 137.52 222.18 137.96 123.97 141.39 123.97 140.96"/><polygon class="cls-68" points="123.97 140.52 222.18 137.09 222.18 137.52 123.97 140.96 123.97 140.52"/><polygon class="cls-69" points="123.97 140.08 222.18 136.66 222.18 137.09 123.97 140.52 123.97 140.08"/><polygon class="cls-70" points="123.97 139.66 222.18 136.22 222.18 136.66 123.97 140.08 123.97 139.66"/><polygon class="cls-71" points="123.97 139.22 222.18 135.79 222.18 136.22 123.97 139.66 123.97 139.22"/><polygon class="cls-72" points="123.97 138.79 222.18 135.35 222.18 135.79 123.97 139.22 123.97 138.79"/><polygon class="cls-73" points="123.97 138.35 222.18 134.92 222.18 135.35 123.97 138.79 123.97 138.35"/><polygon class="cls-74" points="123.97 137.91 222.18 134.49 222.18 134.92 123.97 138.35 123.97 137.91"/><polygon class="cls-75" points="123.97 137.49 222.18 134.05 222.18 134.49 123.97 137.91 123.97 137.49"/><polygon class="cls-76" points="123.97 137.05 222.18 133.62 222.18 134.05 123.97 137.49 123.97 137.05"/><polygon class="cls-77" points="123.97 136.61 222.18 133.19 222.18 133.62 123.97 137.05 123.97 136.61"/><polygon class="cls-78" points="123.97 136.18 222.18 132.75 222.18 133.19 123.97 136.61 123.97 136.18"/><polygon class="cls-79" points="123.97 135.75 222.18 132.32 222.18 132.75 123.97 136.18 123.97 135.75"/><polygon class="cls-80" points="123.97 135.32 222.18 131.88 222.18 132.32 123.97 135.75 123.97 135.32"/><polygon class="cls-81" points="123.97 134.88 222.18 131.45 222.18 131.88 123.97 135.32 123.97 134.88"/><polygon class="cls-82" points="123.97 134.44 222.18 131.01 222.18 131.45 123.97 134.88 123.97 134.44"/><polygon class="cls-83" points="123.97 134.01 222.18 130.58 222.18 131.01 123.97 134.44 123.97 134.01"/><polygon class="cls-84" points="123.97 133.58 222.18 130.15 222.18 130.58 123.97 134.01 123.97 133.58"/><polygon class="cls-85" points="123.97 133.15 222.18 129.72 222.18 130.15 123.97 133.58 123.97 133.15"/><polygon class="cls-86" points="123.97 132.71 222.18 129.28 222.18 129.72 123.97 133.15 123.97 132.71"/><polygon class="cls-87" points="123.97 132.27 222.18 128.85 222.18 129.28 123.97 132.71 123.97 132.27"/><polygon class="cls-88" points="123.97 131.84 222.18 128.41 222.18 128.85 123.97 132.27 123.97 131.84"/><polygon class="cls-89" points="123.97 131.41 222.18 127.98 222.18 128.41 123.97 131.84 123.97 131.41"/><polygon class="cls-90" points="123.97 130.98 222.18 127.54 222.18 127.98 123.97 131.41 123.97 130.98"/><polygon class="cls-91" points="123.97 130.53 222.18 127.11 222.18 127.54 123.97 130.98 123.97 130.53"/><polygon class="cls-92" points="123.97 130.1 222.18 126.68 222.18 127.11 123.97 130.53 123.97 130.1"/><polygon class="cls-93" points="123.97 129.67 222.18 126.24 222.18 126.68 123.97 130.1 123.97 129.67"/><polygon class="cls-94" points="123.97 129.24 222.18 125.81 222.18 126.24 123.97 129.67 123.97 129.24"/><polygon class="cls-95" points="123.97 128.8 222.18 125.38 222.18 125.81 123.97 129.24 123.97 128.8"/><polygon class="cls-96" points="123.97 128.37 222.18 124.94 222.18 125.38 123.97 128.8 123.97 128.37"/><polygon class="cls-97" points="123.97 127.93 222.18 124.51 222.18 124.94 123.97 128.37 123.97 127.93"/><polygon class="cls-98" points="123.97 127.5 222.18 124.07 222.18 124.51 123.97 127.93 123.97 127.5"/><polygon class="cls-99" points="123.97 127.07 222.18 123.64 222.18 124.07 123.97 127.5 123.97 127.07"/><polygon class="cls-100" points="123.97 126.63 222.18 123.2 222.18 123.64 123.97 127.07 123.97 126.63"/><polygon class="cls-101" points="123.97 126.19 222.18 122.77 222.18 123.2 123.97 126.63 123.97 126.19"/><polygon class="cls-102" points="123.97 125.76 221.53 122.36 222.18 122.36 222.18 122.77 123.97 126.19 123.97 125.76"/><polygon class="cls-103" points="123.97 125.33 209.15 122.36 221.53 122.36 123.97 125.76 123.97 125.33"/><polygon class="cls-104" points="123.97 124.89 196.72 122.36 209.15 122.36 123.97 125.33 123.97 124.89"/><polygon class="cls-105" points="123.97 124.46 184.27 122.36 196.72 122.36 123.97 124.89 123.97 124.46"/><polygon class="cls-106" points="123.97 124.03 171.84 122.36 184.27 122.36 123.97 124.46 123.97 124.03"/><polygon class="cls-107" points="123.97 123.59 159.4 122.36 171.84 122.36 123.97 124.03 123.97 123.59"/><polygon class="cls-108" points="123.97 123.16 146.97 122.36 159.4 122.36 123.97 123.59 123.97 123.16"/><polygon class="cls-108" points="146.96 122.36 123.97 123.16 123.97 122.36 146.96 122.36"/></g><polygon class="cls-2" points="874.41 70.84 658.68 53.94 652.24 177.1 866.36 189.17 812.43 125.58 874.41 70.84"/><polygon class="cls-2" points="859.36 186.36 859.36 186.36 854.81 186.11 852.85 178.84 859.35 186.35 859.36 186.36"/><polygon class="cls-2" points="865.87 75.85 862.24 78.98 860.98 74.29 865.55 74.65 865.87 75.85"/><polygon class="cls-2" points="858.5 82.22 854.87 85.35 851.69 73.58 856.26 73.94 858.5 82.22"/><polygon class="cls-2" points="842.4 72.87 846.97 73.22 851.13 88.59 847.5 91.72 842.4 72.87"/><polygon class="cls-2" points="840.12 98.09 833.12 72.16 837.69 72.5 843.75 94.96 840.12 98.09"/><polygon class="cls-2" points="832.75 104.47 823.83 71.44 828.4 71.8 836.38 101.33 832.75 104.47"/><polygon class="cls-2" points="846.14 171.1 850.12 185.85 845.58 185.6 839.63 163.58 846.14 171.1"/><polygon class="cls-2" points="825.37 110.84 814.54 70.73 819.11 71.09 829.01 107.7 825.37 110.84"/><polygon class="cls-2" points="832.92 155.84 840.89 185.34 836.35 185.09 826.41 148.33 832.92 155.84"/><polygon class="cls-2" points="818 117.22 805.25 70.02 809.83 70.37 821.63 114.08 818 117.22"/><polygon class="cls-2" points="819.71 140.6 831.66 184.83 827.11 184.58 813.2 133.08 819.71 140.6"/><polygon class="cls-2" points="810.63 123.59 795.96 69.31 800.54 69.66 814.26 120.45 810.63 123.59"/><polygon class="cls-2" points="791.25 68.95 822.43 184.32 817.88 184.07 786.68 68.6 791.25 68.95"/><polygon class="cls-2" points="781.96 68.24 813.2 183.81 808.65 183.56 777.39 67.89 781.96 68.24"/><polygon class="cls-2" points="772.68 67.52 803.96 183.3 799.41 183.05 768.1 67.17 772.68 67.52"/><polygon class="cls-2" points="763.39 66.81 794.73 182.79 790.18 182.54 758.82 66.46 763.39 66.81"/><polygon class="cls-2" points="754.11 66.1 785.5 182.28 780.95 182.03 749.53 65.75 754.11 66.1"/><polygon class="cls-2" points="744.81 65.38 776.26 181.77 771.72 181.52 740.24 65.03 744.81 65.38"/><polygon class="cls-2" points="735.53 64.67 767.03 181.26 762.49 181.01 730.96 64.32 735.53 64.67"/><polygon class="cls-2" points="726.24 63.96 757.8 180.75 753.25 180.5 721.67 63.61 726.24 63.96"/><polygon class="cls-2" points="716.96 63.25 748.57 180.24 744.02 179.99 712.38 62.9 716.96 63.25"/><polygon class="cls-2" points="707.66 62.54 739.33 179.73 734.79 179.48 703.09 62.19 707.66 62.54"/><polygon class="cls-2" points="698.38 61.82 730.1 179.22 725.56 178.97 693.81 61.47 698.38 61.82"/><polygon class="cls-2" points="689.09 61.11 720.87 178.72 716.32 178.46 684.52 60.76 689.09 61.11"/><polygon class="cls-2" points="679.81 60.4 711.64 178.21 707.09 177.95 675.23 60.05 679.81 60.4"/><polygon class="cls-2" points="670.52 59.69 702.41 177.69 697.86 177.44 665.95 59.34 670.52 59.69"/><polygon class="cls-2" points="659.25 58.82 661.24 58.98 693.18 177.19 688.63 176.93 658.83 66.66 659.25 58.82"/><polygon class="cls-2" points="658.07 80.92 683.94 176.68 679.4 176.42 657.33 94.75 658.07 80.92"/><polygon class="cls-2" points="656.57 109.02 674.71 176.17 670.16 175.91 655.83 122.86 656.57 109.02"/><polygon class="cls-2" points="655.07 137.12 665.48 175.65 660.94 175.41 654.33 150.95 655.07 137.12"/><polygon class="cls-2" points="653.56 165.23 656.24 175.15 653.04 174.97 653.56 165.23"/><polygon class="cls-2" points="663.81 59.81 869.16 75.68 871.41 73.91 664.06 57.2 663.81 59.81"/><polygon class="cls-2" points="652.03 171.06 861.73 183.94 859.84 181.64 652.24 168.45 652.03 171.06"/><g class="cls-109"><polygon class="cls-4" points="652.24 165.3 750.45 168.73 750.45 174.68 652.24 174.68 652.24 165.3"/><polygon class="cls-4" points="652.24 164.86 750.45 168.28 750.45 168.72 652.24 165.3 652.24 164.86"/><polygon class="cls-5" points="652.24 164.43 750.45 167.85 750.45 168.28 652.24 164.86 652.24 164.43"/><polygon class="cls-6" points="652.24 163.99 750.45 167.42 750.45 167.85 652.24 164.43 652.24 163.99"/><polygon class="cls-7" points="652.24 163.56 750.45 166.98 750.45 167.42 652.24 163.99 652.24 163.56"/><polygon class="cls-8" points="652.24 163.13 750.45 166.55 750.45 166.98 652.24 163.56 652.24 163.13"/><polygon class="cls-9" points="652.24 162.69 750.45 166.12 750.45 166.55 652.24 163.13 652.24 162.69"/><polygon class="cls-10" points="652.24 162.26 750.45 165.68 750.45 166.12 652.24 162.69 652.24 162.26"/><polygon class="cls-11" points="652.24 161.83 750.45 165.25 750.45 165.68 652.24 162.26 652.24 161.83"/><polygon class="cls-12" points="652.24 161.39 750.45 164.81 750.45 165.25 652.24 161.83 652.24 161.39"/><polygon class="cls-13" points="652.24 160.96 750.45 164.38 750.45 164.81 652.24 161.39 652.24 160.96"/><polygon class="cls-14" points="652.24 160.52 750.45 163.95 750.45 164.38 652.24 160.96 652.24 160.52"/><polygon class="cls-15" points="652.24 160.09 750.45 163.51 750.45 163.95 652.24 160.52 652.24 160.09"/><polygon class="cls-16" points="652.24 159.65 750.45 163.08 750.45 163.51 652.24 160.09 652.24 159.65"/><polygon class="cls-17" points="652.24 159.22 750.45 162.65 750.45 163.08 652.24 159.65 652.24 159.22"/><polygon class="cls-18" points="652.24 158.79 750.45 162.21 750.45 162.65 652.24 159.22 652.24 158.79"/><polygon class="cls-19" points="652.24 158.35 750.45 161.78 750.45 162.21 652.24 158.79 652.24 158.35"/><polygon class="cls-20" points="652.24 157.92 750.45 161.34 750.45 161.78 652.24 158.35 652.24 157.92"/><polygon class="cls-21" points="652.24 157.49 750.45 160.91 750.45 161.34 652.24 157.92 652.24 157.49"/><polygon class="cls-22" points="652.24 157.05 750.45 160.48 750.45 160.91 652.24 157.49 652.24 157.05"/><polygon class="cls-23" points="652.24 156.62 750.45 160.04 750.45 160.48 652.24 157.05 652.24 156.62"/><polygon class="cls-24" points="652.24 156.19 750.45 159.61 750.45 160.04 652.24 156.62 652.24 156.19"/><polygon class="cls-25" points="652.24 155.75 750.45 159.17 750.45 159.61 652.24 156.19 652.24 155.75"/><polygon class="cls-26" points="652.24 155.32 750.45 158.74 750.45 159.17 652.24 155.75 652.24 155.32"/><polygon class="cls-27" points="652.24 154.88 750.45 158.31 750.45 158.74 652.24 155.32 652.24 154.88"/><polygon class="cls-28" points="652.24 154.45 750.45 157.87 750.45 158.31 652.24 154.88 652.24 154.45"/><polygon class="cls-29" points="652.24 154.01 750.45 157.44 750.45 157.87 652.24 154.45 652.24 154.01"/><polygon class="cls-30" points="652.24 153.58 750.45 157 750.45 157.44 652.24 154.01 652.24 153.58"/><polygon class="cls-31" points="652.24 153.15 750.45 156.57 750.45 157 652.24 153.58 652.24 153.15"/><polygon class="cls-32" points="652.24 152.71 750.45 156.14 750.45 156.57 652.24 153.15 652.24 152.71"/><polygon class="cls-33" points="652.24 152.28 750.45 155.7 750.45 156.14 652.24 152.71 652.24 152.28"/><polygon class="cls-34" points="652.24 151.84 750.45 155.27 750.45 155.7 652.24 152.28 652.24 151.84"/><polygon class="cls-35" points="652.24 151.41 750.45 154.84 750.45 155.27 652.24 151.84 652.24 151.41"/><polygon class="cls-36" points="652.24 150.98 750.45 154.4 750.45 154.84 652.24 151.41 652.24 150.98"/><polygon class="cls-37" points="652.24 150.54 750.45 153.97 750.45 154.4 652.24 150.98 652.24 150.54"/><polygon class="cls-38" points="652.24 150.11 750.45 153.53 750.45 153.97 652.24 150.54 652.24 150.11"/><polygon class="cls-39" points="652.24 149.67 750.45 153.1 750.45 153.53 652.24 150.11 652.24 149.67"/><polygon class="cls-40" points="652.24 149.24 750.45 152.66 750.45 153.1 652.24 149.67 652.24 149.24"/><polygon class="cls-41" points="652.24 148.81 750.45 152.23 750.45 152.66 652.24 149.24 652.24 148.81"/><polygon class="cls-42" points="652.24 148.37 750.45 151.8 750.45 152.23 652.24 148.81 652.24 148.37"/><polygon class="cls-43" points="652.24 147.94 750.45 151.36 750.45 151.8 652.24 148.37 652.24 147.94"/><polygon class="cls-44" points="652.24 147.5 750.45 150.93 750.45 151.36 652.24 147.94 652.24 147.5"/><polygon class="cls-45" points="652.24 147.07 750.45 150.5 750.45 150.93 652.24 147.5 652.24 147.07"/><polygon class="cls-46" points="652.24 146.64 750.45 150.06 750.45 150.5 652.24 147.07 652.24 146.64"/><polygon class="cls-47" points="652.24 146.2 750.45 149.63 750.45 150.06 652.24 146.64 652.24 146.2"/><polygon class="cls-48" points="652.24 145.77 750.45 149.19 750.45 149.63 652.24 146.2 652.24 145.77"/><polygon class="cls-49" points="652.24 145.34 750.45 148.76 750.45 149.19 652.24 145.77 652.24 145.34"/><polygon class="cls-50" points="652.24 144.9 750.45 148.33 750.45 148.76 652.24 145.34 652.24 144.9"/><polygon class="cls-51" points="652.24 144.47 750.45 147.89 750.45 148.33 652.24 144.9 652.24 144.47"/><polygon class="cls-52" points="652.24 144.03 750.45 147.46 750.45 147.89 652.24 144.47 652.24 144.03"/><polygon class="cls-53" points="652.24 143.6 750.45 147.02 750.45 147.46 652.24 144.03 652.24 143.6"/><polygon class="cls-54" points="652.24 143.17 750.45 146.59 750.45 147.02 652.24 143.6 652.24 143.17"/><polygon class="cls-55" points="652.24 142.73 750.45 146.16 750.45 146.59 652.24 143.17 652.24 142.73"/><polygon class="cls-56" points="652.24 142.3 750.45 145.72 750.45 146.16 652.24 142.73 652.24 142.3"/><polygon class="cls-57" points="652.24 141.86 750.45 145.29 750.45 145.72 652.24 142.3 652.24 141.86"/><polygon class="cls-58" points="652.24 141.43 750.45 144.85 750.45 145.29 652.24 141.86 652.24 141.43"/><polygon class="cls-59" points="652.24 141 750.45 144.42 750.45 144.85 652.24 141.43 652.24 141"/><polygon class="cls-60" points="652.24 140.56 750.45 143.99 750.45 144.42 652.24 141 652.24 140.56"/><polygon class="cls-61" points="652.24 140.13 750.45 143.55 750.45 143.99 652.24 140.56 652.24 140.13"/><polygon class="cls-62" points="652.24 139.69 750.45 143.12 750.45 143.55 652.24 140.13 652.24 139.69"/><polygon class="cls-63" points="652.24 139.26 750.45 142.69 750.45 143.12 652.24 139.69 652.24 139.26"/><polygon class="cls-64" points="652.24 138.83 750.45 142.25 750.45 142.69 652.24 139.26 652.24 138.83"/><polygon class="cls-65" points="652.24 138.39 750.45 141.82 750.45 142.25 652.24 138.83 652.24 138.39"/><polygon class="cls-66" points="652.24 137.96 750.45 141.38 750.45 141.82 652.24 138.39 652.24 137.96"/><polygon class="cls-67" points="652.24 137.52 750.45 140.95 750.45 141.38 652.24 137.96 652.24 137.52"/><polygon class="cls-68" points="652.24 137.09 750.45 140.52 750.45 140.95 652.24 137.52 652.24 137.09"/><polygon class="cls-69" points="652.24 136.66 750.45 140.08 750.45 140.52 652.24 137.09 652.24 136.66"/><polygon class="cls-70" points="652.24 136.22 750.45 139.65 750.45 140.08 652.24 136.66 652.24 136.22"/><polygon class="cls-71" points="652.24 135.79 750.45 139.21 750.45 139.65 652.24 136.22 652.24 135.79"/><polygon class="cls-72" points="652.24 135.35 750.45 138.78 750.45 139.21 652.24 135.79 652.24 135.35"/><polygon class="cls-73" points="652.24 134.92 750.45 138.35 750.45 138.78 652.24 135.35 652.24 134.92"/><polygon class="cls-74" points="652.24 134.49 750.45 137.91 750.45 138.35 652.24 134.92 652.24 134.49"/><polygon class="cls-75" points="652.24 134.05 750.45 137.48 750.45 137.91 652.24 134.49 652.24 134.05"/><polygon class="cls-76" points="652.24 133.62 750.45 137.04 750.45 137.48 652.24 134.05 652.24 133.62"/><polygon class="cls-77" points="652.24 133.19 750.45 136.61 750.45 137.04 652.24 133.62 652.24 133.19"/><polygon class="cls-78" points="652.24 132.75 750.45 136.18 750.45 136.61 652.24 133.19 652.24 132.75"/><polygon class="cls-79" points="652.24 132.32 750.45 135.74 750.45 136.18 652.24 132.75 652.24 132.32"/><polygon class="cls-80" points="652.24 131.88 750.45 135.31 750.45 135.74 652.24 132.32 652.24 131.88"/><polygon class="cls-81" points="652.24 131.45 750.45 134.87 750.45 135.31 652.24 131.88 652.24 131.45"/><polygon class="cls-82" points="652.24 131.01 750.45 134.44 750.45 134.87 652.24 131.45 652.24 131.01"/><polygon class="cls-83" points="652.24 130.58 750.45 134.01 750.45 134.44 652.24 131.01 652.24 130.58"/><polygon class="cls-84" points="652.24 130.15 750.45 133.57 750.45 134.01 652.24 130.58 652.24 130.15"/><polygon class="cls-85" points="652.24 129.72 750.45 133.14 750.45 133.57 652.24 130.15 652.24 129.72"/><polygon class="cls-86" points="652.24 129.28 750.45 132.71 750.45 133.14 652.24 129.72 652.24 129.28"/><polygon class="cls-87" points="652.24 128.85 750.45 132.27 750.45 132.71 652.24 129.28 652.24 128.85"/><polygon class="cls-88" points="652.24 128.41 750.45 131.84 750.45 132.27 652.24 128.85 652.24 128.41"/><polygon class="cls-89" points="652.24 127.97 750.45 131.4 750.45 131.84 652.24 128.41 652.24 127.97"/><polygon class="cls-90" points="652.24 127.54 750.45 130.97 750.45 131.4 652.24 127.97 652.24 127.54"/><polygon class="cls-91" points="652.24 127.11 750.45 130.53 750.45 130.97 652.24 127.54 652.24 127.11"/><polygon class="cls-92" points="652.24 126.68 750.45 130.1 750.45 130.53 652.24 127.11 652.24 126.68"/><polygon class="cls-93" points="652.24 126.23 750.45 129.67 750.45 130.1 652.24 126.68 652.24 126.23"/><polygon class="cls-94" points="652.24 125.81 750.45 129.23 750.45 129.67 652.24 126.23 652.24 125.81"/><polygon class="cls-95" points="652.24 125.38 750.45 128.8 750.45 129.23 652.24 125.81 652.24 125.38"/><polygon class="cls-96" points="652.24 124.94 750.45 128.37 750.45 128.8 652.24 125.38 652.24 124.94"/><polygon class="cls-97" points="652.24 124.51 750.45 127.93 750.45 128.37 652.24 124.94 652.24 124.51"/><polygon class="cls-98" points="652.24 124.06 750.45 127.5 750.45 127.93 652.24 124.51 652.24 124.06"/><polygon class="cls-99" points="652.24 123.64 750.45 127.06 750.45 127.5 652.24 124.06 652.24 123.64"/><polygon class="cls-100" points="652.24 123.2 750.45 126.63 750.45 127.06 652.24 123.64 652.24 123.2"/><polygon class="cls-101" points="652.24 122.77 750.45 126.19 750.45 126.63 652.24 123.2 652.24 122.77"/><polygon class="cls-102" points="652.95 122.36 750.45 125.76 750.45 126.19 652.24 122.77 652.24 122.36 652.95 122.36"/><polygon class="cls-103" points="665.38 122.36 750.45 125.33 750.45 125.76 652.95 122.36 665.38 122.36"/><polygon class="cls-104" points="677.78 122.36 750.45 124.89 750.45 125.33 665.38 122.36 677.78 122.36"/><polygon class="cls-105" points="690.2 122.36 750.45 124.46 750.45 124.89 677.78 122.36 690.2 122.36"/><polygon class="cls-106" points="702.64 122.36 750.45 124.03 750.45 124.46 690.2 122.36 702.64 122.36"/><polygon class="cls-107" points="715.08 122.36 750.45 123.59 750.45 124.03 702.64 122.36 715.08 122.36"/><polygon class="cls-108" points="727.52 122.36 750.45 123.16 750.45 123.59 715.08 122.36 727.52 122.36"/><polygon class="cls-108" points="750.45 123.16 727.52 122.36 750.45 122.36 750.45 123.16"/></g><rect class="cls-110" x="122.36" width="629.49" height="122.36"/><polygon class="cls-110" points="222.91 5.64 193.85 115.52 197.69 115.52 226.75 5.64 222.91 5.64"/><polygon class="cls-110" points="547.93 5.64 518.87 115.52 522.7 115.52 551.76 5.64 547.93 5.64"/><polygon class="cls-110" points="540.37 5.64 511.31 115.52 515.15 115.52 544.21 5.64 540.37 5.64"/><polygon class="cls-110" points="555.49 5.64 526.43 115.52 530.26 115.52 559.33 5.64 555.49 5.64"/><polygon class="cls-110" points="570.6 5.64 541.54 115.52 545.38 115.52 574.44 5.64 570.6 5.64"/><polygon class="cls-110" points="207.79 5.64 178.73 115.52 182.57 115.52 211.63 5.64 207.79 5.64"/><polygon class="cls-110" points="230.47 5.64 201.41 115.52 205.25 115.52 234.31 5.64 230.47 5.64"/><polygon class="cls-110" points="215.35 5.64 186.29 115.52 190.13 115.52 219.19 5.64 215.35 5.64"/><polygon class="cls-110" points="563.05 5.64 533.99 115.52 537.82 115.52 566.88 5.64 563.05 5.64"/><polygon class="cls-110" points="351.4 5.64 322.35 115.52 326.18 115.52 355.24 5.64 351.4 5.64"/><polygon class="cls-110" points="502.57 5.64 473.52 115.52 477.35 115.52 506.41 5.64 502.57 5.64"/><polygon class="cls-110" points="253.14 5.64 224.09 115.52 227.92 115.52 256.98 5.64 253.14 5.64"/><polygon class="cls-110" points="510.14 5.64 481.08 115.52 484.91 115.52 513.97 5.64 510.14 5.64"/><polygon class="cls-110" points="525.26 5.64 496.2 115.52 500.03 115.52 529.09 5.64 525.26 5.64"/><polygon class="cls-110" points="245.59 5.64 216.53 115.52 220.36 115.52 249.42 5.64 245.59 5.64"/><polygon class="cls-110" points="238.03 5.64 208.97 115.52 212.81 115.52 241.86 5.64 238.03 5.64"/><polygon class="cls-110" points="495.01 5.64 465.95 115.52 469.79 115.52 498.85 5.64 495.01 5.64"/><polygon class="cls-110" points="177.56 5.64 148.5 115.52 152.34 115.52 181.4 5.64 177.56 5.64"/><polygon class="cls-110" points="615.95 5.64 586.89 115.52 590.73 115.52 619.79 5.64 615.95 5.64"/><polygon class="cls-110" points="578.16 5.64 549.1 115.52 552.94 115.52 582 5.64 578.16 5.64"/><polygon class="cls-110" points="623.51 5.64 594.45 115.52 598.29 115.52 627.35 5.64 623.51 5.64"/><polygon class="cls-110" points="638.63 5.64 609.57 115.52 613.41 115.52 642.47 5.64 638.63 5.64"/><polygon class="cls-110" points="631.07 5.64 602.01 115.52 605.85 115.52 634.91 5.64 631.07 5.64"/><polygon class="cls-110" points="162.44 5.64 133.38 115.52 137.22 115.52 166.28 5.64 162.44 5.64"/><polygon class="cls-110" points="170 5.64 140.94 115.52 144.78 115.52 173.84 5.64 170 5.64"/><polygon class="cls-110" points="585.72 5.64 556.66 115.52 560.5 115.52 589.55 5.64 585.72 5.64"/><polygon class="cls-110" points="192.68 5.64 163.62 115.52 167.46 115.52 196.51 5.64 192.68 5.64"/><polygon class="cls-110" points="200.24 5.64 171.18 115.52 175.01 115.52 204.07 5.64 200.24 5.64"/><polygon class="cls-110" points="593.28 5.64 564.22 115.52 568.06 115.52 597.12 5.64 593.28 5.64"/><polygon class="cls-110" points="185.12 5.64 156.06 115.52 159.9 115.52 188.96 5.64 185.12 5.64"/><polygon class="cls-110" points="600.83 5.64 571.77 115.52 575.61 115.52 604.67 5.64 600.83 5.64"/><polygon class="cls-110" points="608.4 5.64 579.34 115.52 583.17 115.52 612.23 5.64 608.4 5.64"/><polygon class="cls-110" points="532.81 5.64 503.75 115.52 507.59 115.52 536.64 5.64 532.81 5.64"/><polygon class="cls-110" points="419.43 5.64 390.38 115.52 394.21 115.52 423.27 5.64 419.43 5.64"/><polygon class="cls-110" points="389.2 5.64 360.14 115.52 363.98 115.52 393.04 5.64 389.2 5.64"/><polygon class="cls-110" points="260.7 5.64 231.65 115.52 235.48 115.52 264.54 5.64 260.7 5.64"/><polygon class="cls-110" points="313.61 5.64 284.55 115.52 288.39 115.52 317.45 5.64 313.61 5.64"/><polygon class="cls-110" points="411.87 5.64 382.81 115.52 386.65 115.52 415.71 5.64 411.87 5.64"/><polygon class="cls-110" points="328.73 5.64 299.67 115.52 303.51 115.52 332.57 5.64 328.73 5.64"/><polygon class="cls-110" points="404.32 5.64 375.26 115.52 379.09 115.52 408.15 5.64 404.32 5.64"/><polygon class="cls-110" points="396.76 5.64 367.7 115.52 371.54 115.52 400.59 5.64 396.76 5.64"/><polygon class="cls-110" points="646.2 5.64 617.13 115.52 620.97 115.52 650.02 5.64 646.2 5.64"/><polygon class="cls-110" points="381.64 5.64 352.58 115.52 356.41 115.52 385.48 5.64 381.64 5.64"/><polygon class="cls-110" points="343.85 5.64 314.79 115.52 318.62 115.52 347.68 5.64 343.85 5.64"/><polygon class="cls-110" points="358.96 5.64 329.9 115.52 333.74 115.52 362.8 5.64 358.96 5.64"/><polygon class="cls-110" points="336.29 5.64 307.23 115.52 311.07 115.52 340.12 5.64 336.29 5.64"/><polygon class="cls-110" points="374.08 5.64 345.02 115.52 348.86 115.52 377.92 5.64 374.08 5.64"/><polygon class="cls-110" points="366.52 5.64 337.46 115.52 341.3 115.52 370.36 5.64 366.52 5.64"/><polygon class="cls-110" points="321.17 5.64 292.11 115.52 295.95 115.52 325.01 5.64 321.17 5.64"/><polygon class="cls-110" points="275.82 5.64 246.76 115.52 250.6 115.52 279.66 5.64 275.82 5.64"/><polygon class="cls-110" points="457.23 5.64 428.17 115.52 432 115.52 461.06 5.64 457.23 5.64"/><polygon class="cls-110" points="464.78 5.64 435.72 115.52 439.56 115.52 468.62 5.64 464.78 5.64"/><polygon class="cls-110" points="472.34 5.64 443.28 115.52 447.12 115.52 476.18 5.64 472.34 5.64"/><polygon class="cls-110" points="487.46 5.64 458.4 115.52 462.24 115.52 491.29 5.64 487.46 5.64"/><polygon class="cls-110" points="268.26 5.64 239.2 115.52 243.04 115.52 272.1 5.64 268.26 5.64"/><polygon class="cls-110" points="479.9 5.64 450.84 115.52 454.67 115.52 483.73 5.64 479.9 5.64"/><polygon class="cls-110" points="449.66 5.64 420.61 115.52 424.45 115.52 453.5 5.64 449.66 5.64"/><polygon class="cls-110" points="298.5 5.64 269.44 115.52 273.27 115.52 302.33 5.64 298.5 5.64"/><polygon class="cls-110" points="426.99 5.64 397.93 115.52 401.77 115.52 430.83 5.64 426.99 5.64"/><polygon class="cls-110" points="434.55 5.64 405.5 115.52 409.33 115.52 438.39 5.64 434.55 5.64"/><polygon class="cls-110" points="306.06 5.64 277 115.52 280.83 115.52 309.89 5.64 306.06 5.64"/><polygon class="cls-110" points="283.38 5.64 254.32 115.52 258.16 115.52 287.21 5.64 283.38 5.64"/><polygon class="cls-110" points="290.94 5.64 261.88 115.52 265.71 115.52 294.77 5.64 290.94 5.64"/><polygon class="cls-110" points="442.11 5.64 413.05 115.52 416.88 115.52 445.95 5.64 442.11 5.64"/><polygon class="cls-110" points="517.69 5.64 488.63 115.52 492.47 115.52 521.53 5.64 517.69 5.64"/><polygon class="cls-110" points="706.65 5.64 677.59 115.52 681.43 115.52 710.49 5.64 706.65 5.64"/><polygon class="cls-110" points="668.87 5.64 639.81 115.52 643.64 115.52 672.7 5.64 668.87 5.64"/><polygon class="cls-110" points="139.77 5.64 127.71 51.23 127.71 65.74 143.6 5.64 139.77 5.64"/><polygon class="cls-110" points="699.1 5.64 670.04 115.52 673.87 115.52 702.94 5.64 699.1 5.64"/><polygon class="cls-110" points="729.33 5.64 700.27 115.52 704.11 115.52 733.16 5.64 729.33 5.64"/><polygon class="cls-110" points="714.21 5.64 685.15 115.52 688.99 115.52 718.05 5.64 714.21 5.64"/><polygon class="cls-110" points="721.77 5.64 692.71 115.52 696.55 115.52 725.61 5.64 721.77 5.64"/><polygon class="cls-110" points="154.89 5.64 127.71 108.4 127.71 115.52 129.66 115.52 158.72 5.64 154.89 5.64"/><polygon class="cls-110" points="132.21 5.64 127.71 22.65 127.71 37.17 136.04 5.64 132.21 5.64"/><polygon class="cls-110" points="676.42 5.64 647.37 115.52 651.2 115.52 680.26 5.64 676.42 5.64"/><polygon class="cls-110" points="127.71 5.64 127.71 8.57 128.49 5.64 127.71 5.64"/><polygon class="cls-110" points="691.54 5.64 662.48 115.52 666.32 115.52 695.38 5.64 691.54 5.64"/><polygon class="cls-110" points="661.31 5.64 632.25 115.52 636.09 115.52 665.14 5.64 661.31 5.64"/><polygon class="cls-110" points="653.74 5.64 624.68 115.52 628.52 115.52 657.58 5.64 653.74 5.64"/><polygon class="cls-110" points="745.81 57.62 730.5 115.52 734.34 115.52 745.81 72.12 745.81 57.62"/><polygon class="cls-110" points="745.81 86.22 738.06 115.52 741.9 115.52 745.81 100.72 745.81 86.22"/><polygon class="cls-110" points="745.81 115.52 745.81 114.77 745.62 115.52 745.81 115.52"/><polygon class="cls-110" points="683.98 5.64 654.92 115.52 658.76 115.52 687.82 5.64 683.98 5.64"/><polygon class="cls-110" points="745.81 5.64 744.45 5.64 715.38 115.52 719.22 115.52 745.81 14.97 745.81 5.64"/><polygon class="cls-110" points="745.81 29.04 722.95 115.52 726.78 115.52 745.81 43.55 745.81 29.04"/><polygon class="cls-110" points="736.89 5.64 707.83 115.52 711.66 115.52 740.72 5.64 736.89 5.64"/><polygon class="cls-110" points="147.33 5.64 127.71 79.82 127.71 94.32 151.16 5.64 147.33 5.64"/><polygon class="cls-110" points="128.49 5.64 127.71 8.57 127.71 22.65 132.21 5.64 128.49 5.64"/><polygon class="cls-110" points="136.04 5.64 127.71 37.17 127.71 51.23 139.77 5.64 136.04 5.64"/><polygon class="cls-110" points="143.6 5.64 127.71 65.74 127.71 79.82 147.33 5.64 143.6 5.64"/><polygon class="cls-110" points="151.16 5.64 127.71 94.32 127.71 108.4 154.89 5.64 151.16 5.64"/><polygon class="cls-110" points="158.72 5.64 129.66 115.52 133.38 115.52 162.44 5.64 158.72 5.64"/><polygon class="cls-110" points="166.28 5.64 137.22 115.52 140.94 115.52 170 5.64 166.28 5.64"/><polygon class="cls-110" points="173.84 5.64 144.78 115.52 148.5 115.52 177.56 5.64 173.84 5.64"/><polygon class="cls-110" points="181.4 5.64 152.34 115.52 156.06 115.52 185.12 5.64 181.4 5.64"/><polygon class="cls-110" points="188.96 5.64 159.9 115.52 163.62 115.52 192.68 5.64 188.96 5.64"/><polygon class="cls-110" points="196.51 5.64 167.46 115.52 171.18 115.52 200.24 5.64 196.51 5.64"/><polygon class="cls-110" points="204.07 5.64 175.01 115.52 178.73 115.52 207.79 5.64 204.07 5.64"/><polygon class="cls-110" points="211.63 5.64 182.57 115.52 186.29 115.52 215.35 5.64 211.63 5.64"/><polygon class="cls-110" points="219.19 5.64 190.13 115.52 193.85 115.52 222.91 5.64 219.19 5.64"/><polygon class="cls-110" points="226.75 5.64 197.69 115.52 201.41 115.52 230.47 5.64 226.75 5.64"/><polygon class="cls-110" points="234.31 5.64 205.25 115.52 208.97 115.52 238.03 5.64 234.31 5.64"/><polygon class="cls-110" points="241.86 5.64 212.81 115.52 216.53 115.52 245.59 5.64 241.86 5.64"/><polygon class="cls-110" points="249.42 5.64 220.36 115.52 224.09 115.52 253.14 5.64 249.42 5.64"/><polygon class="cls-110" points="256.98 5.64 227.92 115.52 231.65 115.52 260.7 5.64 256.98 5.64"/><polygon class="cls-110" points="264.54 5.64 235.48 115.52 239.2 115.52 268.26 5.64 264.54 5.64"/><polygon class="cls-110" points="272.1 5.64 243.04 115.52 246.76 115.52 275.82 5.64 272.1 5.64"/><polygon class="cls-110" points="279.66 5.64 250.6 115.52 254.32 115.52 283.38 5.64 279.66 5.64"/><polygon class="cls-110" points="287.21 5.64 258.16 115.52 261.88 115.52 290.94 5.64 287.21 5.64"/><polygon class="cls-110" points="294.77 5.64 265.71 115.52 269.44 115.52 298.5 5.64 294.77 5.64"/><polygon class="cls-110" points="302.33 5.64 273.27 115.52 277 115.52 306.06 5.64 302.33 5.64"/><polygon class="cls-110" points="309.89 5.64 280.83 115.52 284.55 115.52 313.61 5.64 309.89 5.64"/><polygon class="cls-110" points="317.45 5.64 288.39 115.52 292.11 115.52 321.17 5.64 317.45 5.64"/><polygon class="cls-110" points="325.01 5.64 295.95 115.52 299.67 115.52 328.73 5.64 325.01 5.64"/><polygon class="cls-110" points="332.57 5.64 303.51 115.52 307.23 115.52 336.29 5.64 332.57 5.64"/><polygon class="cls-110" points="340.12 5.64 311.07 115.52 314.79 115.52 343.85 5.64 340.12 5.64"/><polygon class="cls-110" points="347.68 5.64 318.62 115.52 322.35 115.52 351.4 5.64 347.68 5.64"/><polygon class="cls-110" points="355.24 5.64 326.18 115.52 329.9 115.52 358.96 5.64 355.24 5.64"/><polygon class="cls-110" points="362.8 5.64 333.74 115.52 337.46 115.52 366.52 5.64 362.8 5.64"/><polygon class="cls-110" points="370.36 5.64 341.3 115.52 345.02 115.52 374.08 5.64 370.36 5.64"/><polygon class="cls-110" points="377.92 5.64 348.86 115.52 352.58 115.52 381.64 5.64 377.92 5.64"/><polygon class="cls-110" points="385.48 5.64 356.41 115.52 360.14 115.52 389.2 5.64 385.48 5.64"/><polygon class="cls-110" points="393.04 5.64 363.98 115.52 367.7 115.52 396.76 5.64 393.04 5.64"/><polygon class="cls-110" points="400.59 5.64 371.54 115.52 375.26 115.52 404.32 5.64 400.59 5.64"/><polygon class="cls-110" points="408.15 5.64 379.09 115.52 382.81 115.52 411.87 5.64 408.15 5.64"/><polygon class="cls-110" points="415.71 5.64 386.65 115.52 390.38 115.52 419.43 5.64 415.71 5.64"/><polygon class="cls-110" points="423.27 5.64 394.21 115.52 397.93 115.52 426.99 5.64 423.27 5.64"/><polygon class="cls-110" points="430.83 5.64 401.77 115.52 405.5 115.52 434.55 5.64 430.83 5.64"/><polygon class="cls-110" points="438.39 5.64 409.33 115.52 413.05 115.52 442.11 5.64 438.39 5.64"/><polygon class="cls-110" points="445.95 5.64 416.88 115.52 420.61 115.52 449.66 5.64 445.95 5.64"/><polygon class="cls-110" points="453.5 5.64 424.45 115.52 428.17 115.52 457.23 5.64 453.5 5.64"/><polygon class="cls-110" points="461.06 5.64 432 115.52 435.72 115.52 464.78 5.64 461.06 5.64"/><polygon class="cls-110" points="468.62 5.64 439.56 115.52 443.28 115.52 472.34 5.64 468.62 5.64"/><polygon class="cls-110" points="476.18 5.64 447.12 115.52 450.84 115.52 479.9 5.64 476.18 5.64"/><polygon class="cls-110" points="483.73 5.64 454.67 115.52 458.4 115.52 487.46 5.64 483.73 5.64"/><polygon class="cls-110" points="491.29 5.64 462.24 115.52 465.95 115.52 495.01 5.64 491.29 5.64"/><polygon class="cls-110" points="498.85 5.64 469.79 115.52 473.52 115.52 502.57 5.64 498.85 5.64"/><polygon class="cls-110" points="506.41 5.64 477.35 115.52 481.08 115.52 510.14 5.64 506.41 5.64"/><polygon class="cls-110" points="513.97 5.64 484.91 115.52 488.63 115.52 517.69 5.64 513.97 5.64"/><polygon class="cls-110" points="521.53 5.64 492.47 115.52 496.2 115.52 525.26 5.64 521.53 5.64"/><polygon class="cls-110" points="529.09 5.64 500.03 115.52 503.75 115.52 532.81 5.64 529.09 5.64"/><polygon class="cls-110" points="536.64 5.64 507.59 115.52 511.31 115.52 540.37 5.64 536.64 5.64"/><polygon class="cls-110" points="544.21 5.64 515.15 115.52 518.87 115.52 547.93 5.64 544.21 5.64"/><polygon class="cls-110" points="551.76 5.64 522.7 115.52 526.43 115.52 555.49 5.64 551.76 5.64"/><polygon class="cls-110" points="559.33 5.64 530.26 115.52 533.99 115.52 563.05 5.64 559.33 5.64"/><polygon class="cls-110" points="566.88 5.64 537.82 115.52 541.54 115.52 570.6 5.64 566.88 5.64"/><polygon class="cls-110" points="574.44 5.64 545.38 115.52 549.1 115.52 578.16 5.64 574.44 5.64"/><polygon class="cls-110" points="582 5.64 552.94 115.52 556.66 115.52 585.72 5.64 582 5.64"/><polygon class="cls-110" points="589.55 5.64 560.5 115.52 564.22 115.52 593.28 5.64 589.55 5.64"/><polygon class="cls-110" points="597.12 5.64 568.06 115.52 571.77 115.52 600.83 5.64 597.12 5.64"/><polygon class="cls-110" points="604.67 5.64 575.61 115.52 579.34 115.52 608.4 5.64 604.67 5.64"/><polygon class="cls-110" points="612.23 5.64 583.17 115.52 586.89 115.52 615.95 5.64 612.23 5.64"/><polygon class="cls-110" points="619.79 5.64 590.73 115.52 594.45 115.52 623.51 5.64 619.79 5.64"/><polygon class="cls-110" points="627.35 5.64 598.29 115.52 602.01 115.52 631.07 5.64 627.35 5.64"/><polygon class="cls-110" points="634.91 5.64 605.85 115.52 609.57 115.52 638.63 5.64 634.91 5.64"/><polygon class="cls-110" points="642.47 5.64 613.41 115.52 617.13 115.52 646.2 5.64 642.47 5.64"/><polygon class="cls-110" points="650.02 5.64 620.97 115.52 624.68 115.52 653.74 5.64 650.02 5.64"/><polygon class="cls-110" points="657.58 5.64 628.52 115.52 632.25 115.52 661.31 5.64 657.58 5.64"/><polygon class="cls-110" points="665.14 5.64 636.09 115.52 639.81 115.52 668.87 5.64 665.14 5.64"/><polygon class="cls-110" points="672.7 5.64 643.64 115.52 647.37 115.52 676.42 5.64 672.7 5.64"/><polygon class="cls-110" points="680.26 5.64 651.2 115.52 654.92 115.52 683.98 5.64 680.26 5.64"/><polygon class="cls-110" points="687.82 5.64 658.76 115.52 662.48 115.52 691.54 5.64 687.82 5.64"/><polygon class="cls-110" points="695.38 5.64 666.32 115.52 670.04 115.52 699.1 5.64 695.38 5.64"/><polygon class="cls-110" points="702.94 5.64 673.87 115.52 677.59 115.52 706.65 5.64 702.94 5.64"/><polygon class="cls-110" points="710.49 5.64 681.43 115.52 685.15 115.52 714.21 5.64 710.49 5.64"/><polygon class="cls-110" points="718.05 5.64 688.99 115.52 692.71 115.52 721.77 5.64 718.05 5.64"/><polygon class="cls-110" points="725.61 5.64 696.55 115.52 700.27 115.52 729.33 5.64 725.61 5.64"/><polygon class="cls-110" points="733.16 5.64 704.11 115.52 707.83 115.52 736.89 5.64 733.16 5.64"/><polygon class="cls-110" points="740.72 5.64 711.66 115.52 715.38 115.52 744.45 5.64 740.72 5.64"/><polygon class="cls-110" points="745.81 14.97 719.22 115.52 722.95 115.52 745.81 29.04 745.81 14.97"/><polygon class="cls-110" points="745.81 43.55 726.78 115.52 730.5 115.52 745.81 57.62 745.81 43.55"/><polygon class="cls-110" points="745.81 72.12 734.34 115.52 738.06 115.52 745.81 86.22 745.81 72.12"/><polygon class="cls-110" points="745.81 114.77 745.81 100.72 741.9 115.52 745.62 115.52 745.81 114.77"/><path class="cls-110" d="M746.83,116.72h-618V6.84h618Zm-615.56-2.42H744.41V9.26H131.27Z"/></g></g></svg>