<svg xmlns="http://www.w3.org/2000/svg" xmlns:xlink="http://www.w3.org/1999/xlink" viewBox="0 0 253.13 252.9"><defs><style>.cls-1{opacity:0.11;}.cls-2{fill:#fff;}.cls-3{fill:url(#linear-gradient);}.cls-4{fill:url(#linear-gradient-2);}.cls-5{fill:url(#linear-gradient-3);}</style><linearGradient id="linear-gradient" x1="230.99" y1="395.19" x2="453.07" y2="352.75" gradientTransform="translate(-220.53 -245.08) rotate(-0.5)" gradientUnits="userSpaceOnUse"><stop offset="0" stop-color="#c1272d"/><stop offset="0.07" stop-color="#d0232a"/><stop offset="0.19" stop-color="#e01f27"/><stop offset="0.31" stop-color="#ea1d25"/><stop offset="0.48" stop-color="#ed1c24"/></linearGradient><linearGradient id="linear-gradient-2" x1="277.05" y1="316.31" x2="312.34" y2="346.98" gradientTransform="translate(-220.53 -245.08) rotate(-0.5)" gradientUnits="userSpaceOnUse"><stop offset="0" stop-color="#e1e6ec"/><stop offset="0.14" stop-color="#fcfcfc"/><stop offset="0.3" stop-color="#fcfcfc"/><stop offset="0.6" stop-color="#e1e6ec"/></linearGradient><linearGradient id="linear-gradient-3" x1="286.41" y1="115.48" x2="257.65" y2="149.75" gradientTransform="translate(-89.34 -44.84) rotate(-4.32)" gradientUnits="userSpaceOnUse"><stop offset="0" stop-color="#fff"/><stop offset="0.65" stop-color="#ed1c24"/></linearGradient></defs><title>Ресурс 13ribbon</title><g id="Слой_2" data-name="Слой 2"><g id="Layer_1" data-name="Layer 1"><path class="cls-1" d="M123.44.22c-.15,0,.84,3.34.7,3.34a113.14,113.14,0,0,1,1.08,14.65C125.82,86.93,69.38,140.6.41,141.44c5.37,63.69,64.64,112,128.56,111.45,69.17-.61,124.76-56.93,124.16-125.8S192.17-4.14,123.44.22Z"/><path class="cls-2" d="M123.44.22l-.44,0a125.23,125.23,0,0,1,1.13,15.43C124.73,84.38,69.38,140.6.41,141.44,8.6,203,61.71,250.17,125.63,249.61c69.17-.61,124.76-56.93,124.16-125.8S192.61-.39,123.44.22Z"/><path class="cls-3" d="M123.59,12.35h-.4c.61,4.56,1.32,9.21,1,13.93-3.88,60-47.6,109-111.68,113.55,7.39,55.53,55.34,98.15,113,97.64,62.45-.55,112.62-51.39,112.08-113.56S186,11.8,123.59,12.35Z"/><path class="cls-4" d="M124.13,15.66A142.09,142.09,0,0,0,123,.23q-2.61,0-5.19.18L0,138.24c.11,1.08.27,2.14.41,3.21C69.38,140.6,125.83,88.67,124.13,15.66Z"/><path class="cls-5" d="M142.63,16s88.22,16.83,92.89,109.69Z"/></g></g></svg>