<svg xmlns="http://www.w3.org/2000/svg" xmlns:xlink="http://www.w3.org/1999/xlink" viewBox="0 0 203.56 302.11"><defs><style>.cls-1{mask:url(#mask);filter:url(#luminosity-noclip-2);}.cls-2{mix-blend-mode:multiply;fill:url(#linear-gradient);}.cls-3{fill:url(#linear-gradient-2);}.cls-4{fill:#f15a24;}.cls-5{mask:url(#mask-2);}.cls-6{opacity:0.5;fill:url(#linear-gradient-3);}.cls-7{filter:url(#luminosity-noclip);}</style><filter id="luminosity-noclip" x="0" y="-9629.1" width="203.56" height="32766" filterUnits="userSpaceOnUse" color-interpolation-filters="sRGB"><feFlood flood-color="#fff" result="bg"/><feBlend in="SourceGraphic" in2="bg"/></filter><mask id="mask" x="0" y="-9629.1" width="203.56" height="32766" maskUnits="userSpaceOnUse"><g class="cls-7"/></mask><linearGradient id="linear-gradient" x1="101.78" y1="13.26" x2="101.78" y2="0.57" gradientUnits="userSpaceOnUse"><stop offset="0"/><stop offset="0.71" stop-color="#fff"/></linearGradient><linearGradient id="linear-gradient-2" x1="102.9" x2="102.9" y2="302.11" gradientUnits="userSpaceOnUse"><stop offset="0" stop-color="#c1272d"/><stop offset="0.01" stop-color="#d0232a"/><stop offset="0.04" stop-color="#e51e26"/><stop offset="0.05" stop-color="#ed1c24"/><stop offset="0.13" stop-color="#fc9fa6"/><stop offset="0.34" stop-color="#ed1c24"/><stop offset="0.57" stop-color="#96111b"/><stop offset="0.72" stop-color="#c1272d"/><stop offset="0.95" stop-color="#ed1c24"/></linearGradient><filter id="luminosity-noclip-2" x="0" y="0.57" width="203.56" height="12.69" filterUnits="userSpaceOnUse" color-interpolation-filters="sRGB"><feFlood flood-color="#fff" result="bg"/><feBlend in="SourceGraphic" in2="bg"/></filter><mask id="mask-2" x="0" y="0.57" width="203.56" height="12.69" maskUnits="userSpaceOnUse"><g class="cls-1"><path class="cls-2" d="M0,.57H203.56S114.37,29.13,0,.57Z"/></g></mask><linearGradient id="linear-gradient-3" x1="101.78" y1="13.26" x2="101.78" y2="0.57" gradientUnits="userSpaceOnUse"><stop offset="0" stop-color="#fff"/><stop offset="0.71" stop-color="#231f20"/></linearGradient></defs><title>Ресурс 4ribbon</title><g id="Слой_2" data-name="Слой 2"><g id="Layer_1" data-name="Layer 1"><polygon class="cls-3" points="193.25 0.62 103.29 0.01 103.29 0 102.91 0 102.52 0 102.52 0.01 12.56 0.62 12.56 302.11 102.91 258.6 193.25 302.11 193.25 0.62"/><polygon class="cls-4" points="22.25 297.54 19.02 299.47 19.02 0.85 22.25 0.85 22.25 297.54"/><polygon class="cls-4" points="183.38 297.54 186.61 299.47 186.61 0.85 183.38 0.85 183.38 297.54"/><g class="cls-5"><path class="cls-6" d="M0,.57H203.56S114.37,29.13,0,.57Z"/></g></g></g></svg>