<svg xmlns="http://www.w3.org/2000/svg" xmlns:xlink="http://www.w3.org/1999/xlink" viewBox="0 0 196.42 177.75"><defs><style>.cls-1{fill:url(#linear-gradient);}.cls-2{fill:#fff;}</style><linearGradient id="linear-gradient" y1="88.87" x2="196.42" y2="88.87" gradientUnits="userSpaceOnUse"><stop offset="0" stop-color="#db0505"/><stop offset="0.04" stop-color="#e10606"/><stop offset="0.17" stop-color="#ef0707"/><stop offset="0.29" stop-color="#f40808"/><stop offset="0.33" stop-color="#f40808"/><stop offset="0.77" stop-color="#f40808"/><stop offset="1" stop-color="#db0505"/></linearGradient></defs><title>Ресурс 7ribbon</title><g id="Слой_2" data-name="Слой 2"><g id="Layer_1" data-name="Layer 1"><polygon class="cls-1" points="0.81 0.81 0 176.13 99.02 159.08 196.41 177.75 195.6 0 0.81 0.81"/><rect class="cls-2" x="186.68" width="1.62" height="4.06"/><path class="cls-2" d="M188.3,162.52h-1.62V154.6h1.62Zm0-15.85h-1.62v-7.93h1.62Zm0-15.85h-1.62v-7.92h1.62Zm0-15.85h-1.62v-7.92h1.62Zm0-15.85h-1.62V91.21h1.62Zm0-15.85h-1.62V75.37h1.62Zm0-15.85h-1.62V59.52h1.62Zm0-15.85h-1.62V43.67h1.62Zm0-15.84h-1.62V27.83h1.62Zm0-15.85h-1.62V12h1.62Z"/><rect class="cls-2" x="186.68" y="170.44" width="1.62" height="4.06"/><rect class="cls-2" x="8.12" width="1.62" height="4.06"/><path class="cls-2" d="M9.74,162.52H8.12V154.6H9.74Zm0-15.85H8.12v-7.93H9.74Zm0-15.85H8.12v-7.92H9.74Zm0-15.85H8.12v-7.92H9.74Zm0-15.85H8.12V91.21H9.74Zm0-15.85H8.12V75.37H9.74Zm0-15.85H8.12V59.52H9.74Zm0-15.85H8.12V43.67H9.74Zm0-15.84H8.12V27.83H9.74Zm0-15.85H8.12V12H9.74Z"/><rect class="cls-2" x="8.12" y="170.44" width="1.62" height="4.06"/></g></g></svg>