<svg xmlns="http://www.w3.org/2000/svg" xmlns:xlink="http://www.w3.org/1999/xlink" viewBox="0 0 305.5 227.04"><defs><style>.cls-1{fill:none;}.cls-2{isolation:isolate;}.cls-3{clip-path:url(#clip-path);}.cls-4{fill:#dcdadb;}.cls-5{fill:#dbd8da;}.cls-6{fill:#dad7d8;}.cls-7{fill:#d8d6d7;}.cls-8{fill:#d7d5d6;}.cls-9{fill:#d6d4d5;}.cls-10{fill:#d5d3d4;}.cls-11{fill:#d4d1d3;}.cls-12{fill:#d3d0d1;}.cls-13{fill:#d1cfd0;}.cls-14{fill:#d0cecf;}.cls-15{fill:#cfcdce;}.cls-16{fill:#cecccd;}.cls-17{fill:#cdcbcc;}.cls-18{fill:#ccc9cb;}.cls-19{fill:#cbc8c9;}.cls-20{fill:#c9c7c8;}.cls-21{fill:#c8c6c7;}.cls-22{fill:#c7c5c6;}.cls-23{fill:#c7c2c5;}.cls-24{fill:#c6c1c4;}.cls-25{fill:#c5c0c2;}.cls-26{fill:#c4bfc1;}.cls-27{fill:#c2bec0;}.cls-28{fill:#c1bdbf;}.cls-29{fill:#c0bbbe;}.cls-30{fill:#bfbabd;}.cls-31{fill:#beb9bb;}.cls-32{fill:#bdb8ba;}.cls-33{fill:#bbb7b9;}.cls-34{fill:#bab6b8;}.cls-35{fill:#b9b4b7;}.cls-36{fill:#b8b3b6;}.cls-37{fill:#b7b2b4;}.cls-38{fill:#b6b1b3;}.cls-39{fill:#b4b0b2;}.cls-40{fill:#b3afb1;}.cls-41{fill:#b2adb0;}.cls-42{clip-path:url(#clip-path-2);}.cls-43{fill:#eb0000;}.cls-44{fill:#ec0000;}.cls-45{fill:#ed0100;}.cls-46{fill:#ed0300;}.cls-47{fill:#ed0400;}.cls-48{fill:#ed0600;}.cls-49{fill:#ed0701;}.cls-50{fill:#ed0803;}.cls-51{fill:#ed0b04;}.cls-52{fill:#ef0c05;}.cls-53{fill:#ef0e06;}.cls-54{fill:#ef0f07;}.cls-55{fill:#ef1208;}.cls-56{fill:#ef1309;}.cls-57{fill:#ef150b;}.cls-58{fill:#ef170c;}.cls-59{fill:#f0190e;}.cls-60{fill:#f01b0f;}.cls-61{fill:#f01d10;}.cls-62{fill:#f01c10;}.cls-63{fill:#f01c0f;}.cls-64{fill:#f01a0e;}.cls-65{fill:#f0190d;}.cls-66{fill:#f0170d;}.cls-67{fill:#ef160c;}.cls-68{fill:#ef140b;}.cls-69{fill:#ef1008;}.cls-70{fill:#ef0d06;}.cls-71{fill:#ed0c05;}.cls-72{fill:#ed0903;}.cls-73{fill:#ed0601;}.cls-74{fill:#ed0500;}.cls-75{opacity:0.1;mix-blend-mode:screen;}.cls-76{fill:#f4f4f4;}.cls-77{clip-path:url(#clip-path-3);}.cls-78{fill:#bebabd;}.cls-79{fill:#bfbbbe;}.cls-80{fill:#c0bdbf;}.cls-81{fill:#c1bec0;}.cls-82{fill:#c2bfc1;}.cls-83{fill:#c4c0c2;}.cls-84{fill:#c5c1c4;}.cls-85{fill:#c6c2c5;}.cls-86{fill:#c7c4c6;}.cls-87{fill:#c8c5c7;}.cls-88{fill:#c9c6c8;}.cls-89{fill:#cbc7c9;}.cls-90{fill:#ccc8cb;}.cls-91{fill:#cdc9cc;}.cls-92{fill:#cecbcd;}.cls-93{fill:#cfccce;}.cls-94{fill:#d0cdcf;}.cls-95{fill:#d1ced0;}.cls-96{fill:#d3cfd1;}.cls-97{fill:#d4d3d3;}.cls-98{fill:#d5d4d4;}.cls-99{fill:#d6d5d5;}.cls-100{fill:#d7d6d6;}.cls-101{fill:#d8d7d7;}.cls-102{fill:#dad8d8;}.cls-103{fill:#dbdada;}.cls-104{fill:#dcdbdb;}.cls-105{fill:#dddcdc;}.cls-106{fill:#dedddd;}.cls-107{fill:#dfdede;}.cls-108{fill:#e1dfdf;}.cls-109{fill:#e2e1e1;}.cls-110{fill:#e3e2e2;}.cls-111{fill:#e4e3e3;}.cls-112{fill:#e5e4e4;}.cls-113{fill:#e6e5e5;}.cls-114{fill:#e8e6e6;}.cls-115{fill:#e9e8e8;}.cls-116{fill:#eae9e9;}.cls-117{fill:#eaeaea;}.cls-118{fill:#ebebeb;}.cls-119{fill:#ececec;}.cls-120{fill:#ededed;}.cls-121{fill:#efefef;}.cls-122{fill:#f0f0f0;}.cls-123{fill:#f1f1f1;}.cls-124{fill:#f2f2f2;}.cls-125{fill:#f3f3f3;}.cls-126{fill:#e9e9e9;}.cls-127{fill:#e8e5e6;}.cls-128{fill:#e6e4e5;}.cls-129{fill:#e5e3e4;}.cls-130{fill:#e4e2e3;}.cls-131{fill:#e3e1e2;}.cls-132{fill:#e2dfe1;}.cls-133{fill:#e1dedf;}.cls-134{fill:#dfddde;}.cls-135{fill:#dedcdd;}.cls-136{fill:#dddbdc;}</style><clipPath id="clip-path"><path class="cls-1" d="M282.44,125.66C201,118.22,152.7,79.37,153.54,6.32,79.4,6.14,14.92,45.67,5.25,99.87,0,129.29,11.89,157.43,35.34,179.12L3,222.75l75.72-16.38-5.08-2.3a188.54,188.54,0,0,0,60.46,15.52c81.62,7.45,156.28-34.06,166.74-92.72,0-.12,0-.25.05-.37C294.79,126.48,288.64,126.23,282.44,125.66Z"/></clipPath><clipPath id="clip-path-2"><path class="cls-1" d="M286.25,113.94C221.64,91.83,166.61,66.39,156.61.18,82.47,0,18,39.53,8.32,93.74,3.07,123.15,15,151.29,38.41,173L6.06,216.62l76.49-16.38-5.84-2.3a188.55,188.55,0,0,0,60.46,15.52c81.62,7.45,156.28-34.06,166.74-92.72,0-.12,0-.25.05-.37C297.32,117.65,292.14,116,286.25,113.94Z"/></clipPath><clipPath id="clip-path-3"><path class="cls-1" d="M286.25,113.94c6.43,2.05,12.1,3.46,17.71,6.42.26-1.48.46-3,.63-4.42L160.47.21c-1.29,0-2.57,0-3.86,0C164.37,69.33,231.36,96.43,286.25,113.94Z"/></clipPath></defs><title>Ресурс 20ribbon</title><g class="cls-2"><g id="Слой_2" data-name="Слой 2"><g id="Layer_1" data-name="Layer 1"><g class="cls-3"><rect class="cls-4" y="6.14" width="3" height="220.9"/><rect class="cls-4" x="3" y="6.14" width="6.26" height="220.9"/><rect class="cls-5" x="9.26" y="6.14" width="6.26" height="220.9"/><rect class="cls-6" x="15.52" y="6.14" width="6.26" height="220.9"/><rect class="cls-7" x="21.78" y="6.14" width="6.26" height="220.9"/><rect class="cls-8" x="28.04" y="6.14" width="6.26" height="220.9"/><rect class="cls-9" x="34.3" y="6.14" width="6.26" height="220.9"/><rect class="cls-10" x="40.57" y="6.14" width="6.26" height="220.9"/><rect class="cls-11" x="46.83" y="6.14" width="6.26" height="220.9"/><rect class="cls-12" x="53.09" y="6.14" width="6.26" height="220.9"/><rect class="cls-13" x="59.35" y="6.14" width="6.26" height="220.9"/><rect class="cls-14" x="65.62" y="6.14" width="6.26" height="220.9"/><rect class="cls-15" x="71.88" y="6.14" width="6.26" height="220.9"/><rect class="cls-16" x="78.14" y="6.14" width="6.26" height="220.9"/><rect class="cls-17" x="84.4" y="6.14" width="6.26" height="220.9"/><rect class="cls-18" x="90.66" y="6.14" width="6.26" height="220.9"/><rect class="cls-19" x="96.92" y="6.14" width="6.26" height="220.9"/><rect class="cls-20" x="103.19" y="6.14" width="6.26" height="220.9"/><rect class="cls-21" x="109.45" y="6.14" width="6.26" height="220.9"/><rect class="cls-22" x="115.71" y="6.14" width="6.26" height="220.9"/><rect class="cls-23" x="121.97" y="6.14" width="6.26" height="220.9"/><rect class="cls-24" x="128.23" y="6.14" width="6.26" height="220.9"/><rect class="cls-25" x="134.5" y="6.14" width="6.26" height="220.9"/><rect class="cls-26" x="140.76" y="6.14" width="6.26" height="220.9"/><rect class="cls-27" x="147.02" y="6.14" width="6.26" height="220.9"/><rect class="cls-28" x="153.28" y="6.14" width="6.26" height="220.9"/><rect class="cls-29" x="159.54" y="6.14" width="6.26" height="220.9"/><rect class="cls-30" x="165.8" y="6.14" width="6.26" height="220.9"/><rect class="cls-31" x="172.07" y="6.14" width="6.26" height="220.9"/><rect class="cls-32" x="178.33" y="6.14" width="6.26" height="220.9"/><rect class="cls-33" x="184.59" y="6.14" width="6.26" height="220.9"/><rect class="cls-34" x="190.85" y="6.14" width="6.26" height="220.9"/><rect class="cls-35" x="197.12" y="6.14" width="6.26" height="220.9"/><rect class="cls-36" x="203.38" y="6.14" width="6.26" height="220.9"/><rect class="cls-37" x="209.64" y="6.14" width="6.26" height="220.9"/><rect class="cls-38" x="215.9" y="6.14" width="6.26" height="220.9"/><rect class="cls-39" x="222.16" y="6.14" width="6.26" height="220.9"/><rect class="cls-40" x="228.42" y="6.14" width="6.26" height="220.9"/><rect class="cls-41" x="234.68" y="6.14" width="6.26" height="220.9"/><rect class="cls-41" x="240.95" y="6.14" width="59.94" height="220.9"/></g><g class="cls-42"><polygon class="cls-43" points="3.07 213.29 9.92 220.9 3.07 220.9 3.07 213.29"/><polygon class="cls-43" points="3.07 204.63 17.72 220.9 9.92 220.9 3.07 213.29 3.07 204.63"/><polygon class="cls-43" points="3.07 195.97 25.52 220.9 17.72 220.9 3.07 204.63 3.07 195.97"/><polygon class="cls-43" points="3.07 187.31 33.31 220.9 25.52 220.9 3.07 195.97 3.07 187.31"/><polygon class="cls-43" points="3.07 178.65 41.11 220.9 33.31 220.9 3.07 187.31 3.07 178.65"/><polygon class="cls-43" points="3.07 170 48.91 220.9 41.11 220.9 3.07 178.65 3.07 170"/><polygon class="cls-43" points="3.07 161.34 56.71 220.9 48.91 220.9 3.07 170 3.07 161.34"/><polygon class="cls-43" points="3.07 152.68 64.5 220.9 56.71 220.9 3.07 161.34 3.07 152.68"/><polygon class="cls-43" points="3.07 144.02 72.3 220.9 64.5 220.9 3.07 152.68 3.07 144.02"/><polygon class="cls-43" points="3.07 135.36 80.09 220.9 72.3 220.9 3.07 144.02 3.07 135.36"/><polygon class="cls-43" points="3.07 126.7 87.89 220.9 80.09 220.9 3.07 135.36 3.07 126.7"/><polygon class="cls-43" points="3.07 118.04 95.69 220.9 87.89 220.9 3.07 126.7 3.07 118.04"/><polygon class="cls-43" points="3.07 109.38 103.49 220.9 95.69 220.9 3.07 118.04 3.07 109.38"/><polygon class="cls-44" points="3.07 100.72 111.28 220.9 103.49 220.9 3.07 109.38 3.07 100.72"/><polygon class="cls-44" points="3.07 92.06 119.08 220.9 111.28 220.9 3.07 100.72 3.07 92.06"/><polygon class="cls-44" points="3.07 83.4 126.88 220.9 119.08 220.9 3.07 92.06 3.07 83.4"/><polygon class="cls-44" points="3.07 74.74 134.67 220.9 126.88 220.9 3.07 83.4 3.07 74.74"/><polygon class="cls-44" points="3.07 66.08 142.47 220.9 134.67 220.9 3.07 74.74 3.07 66.08"/><polygon class="cls-44" points="3.07 57.42 150.27 220.9 142.47 220.9 3.07 66.08 3.07 57.42"/><polygon class="cls-44" points="3.07 51.57 4.46 50.31 158.06 220.9 150.27 220.9 3.07 57.42 3.07 51.57"/><polygon class="cls-44" points="4.46 50.31 8.77 46.44 165.86 220.9 158.06 220.9 4.46 50.31"/><polygon class="cls-44" points="8.77 46.44 13.08 42.56 173.66 220.9 165.86 220.9 8.77 46.44"/><polygon class="cls-44" points="13.08 42.56 17.38 38.68 181.46 220.9 173.66 220.9 13.08 42.56"/><polygon class="cls-44" points="17.38 38.68 21.69 34.81 189.25 220.9 181.46 220.9 17.38 38.68"/><polygon class="cls-45" points="21.69 34.81 25.99 30.93 197.05 220.9 189.25 220.9 21.69 34.81"/><polygon class="cls-46" points="25.99 30.93 30.3 27.05 204.85 220.9 197.05 220.9 25.99 30.93"/><polygon class="cls-47" points="30.3 27.05 34.61 23.18 212.64 220.9 204.85 220.9 30.3 27.05"/><polygon class="cls-48" points="34.61 23.18 38.91 19.3 220.44 220.9 212.64 220.9 34.61 23.18"/><polygon class="cls-49" points="38.91 19.3 43.22 15.42 228.24 220.9 220.44 220.9 38.91 19.3"/><polygon class="cls-50" points="43.22 15.42 47.52 11.54 236.03 220.9 228.24 220.9 43.22 15.42"/><polygon class="cls-51" points="47.52 11.54 51.83 7.67 243.83 220.9 236.03 220.9 47.52 11.54"/><polygon class="cls-52" points="51.83 7.67 56.13 3.79 250.4 219.54 248.88 220.9 243.83 220.9 51.83 7.67"/><polygon class="cls-53" points="56.13 3.79 60.34 0 60.52 0 254.7 215.66 250.4 219.54 56.13 3.79"/><polygon class="cls-54" points="68.31 0 259.01 211.78 254.7 215.66 60.52 0 68.31 0"/><polygon class="cls-55" points="76.11 0 263.31 207.91 259.01 211.78 68.31 0 76.11 0"/><polygon class="cls-56" points="83.91 0 267.62 204.03 263.31 207.91 76.11 0 83.91 0"/><polygon class="cls-57" points="91.71 0 271.93 200.15 267.62 204.03 83.91 0 91.71 0"/><polygon class="cls-58" points="99.5 0 276.23 196.28 271.93 200.15 91.71 0 99.5 0"/><polygon class="cls-59" points="107.3 0 280.54 192.4 276.23 196.28 99.5 0 107.3 0"/><polygon class="cls-60" points="115.1 0 284.85 188.52 280.54 192.4 107.3 0 115.1 0"/><polygon class="cls-61" points="122.89 0 289.15 184.64 284.85 188.52 115.1 0 122.89 0"/><polygon class="cls-61" points="124.71 0 290.15 183.74 289.15 184.64 122.89 0 124.71 0"/><polygon class="cls-61" points="126.53 0 291.16 182.84 290.15 183.74 124.71 0 126.53 0"/><polygon class="cls-61" points="128.35 0 292.16 181.93 291.16 182.84 126.53 0 128.35 0"/><polygon class="cls-62" points="130.16 0 293.16 181.03 292.16 181.93 128.35 0 130.16 0"/><polygon class="cls-63" points="131.98 0 294.17 180.13 293.16 181.03 130.16 0 131.98 0"/><polygon class="cls-60" points="133.8 0 295.17 179.22 294.17 180.13 131.98 0 133.8 0"/><polygon class="cls-60" points="135.62 0 296.18 178.32 295.17 179.22 133.8 0 135.62 0"/><polygon class="cls-64" points="137.43 0 297.18 177.41 296.18 178.32 135.62 0 137.43 0"/><polygon class="cls-64" points="139.25 0 298.18 176.51 297.18 177.41 137.43 0 139.25 0"/><polygon class="cls-65" points="141.07 0 299.19 175.61 298.18 176.51 139.25 0 141.07 0"/><polygon class="cls-66" points="142.88 0 300.19 174.71 299.19 175.61 141.07 0 142.88 0"/><polygon class="cls-58" points="144.7 0 301.19 173.8 300.19 174.71 142.88 0 144.7 0"/><polygon class="cls-67" points="146.52 0 302.2 172.9 301.19 173.8 144.7 0 146.52 0"/><polygon class="cls-57" points="148.34 0 303.2 171.99 302.2 172.9 146.52 0 148.34 0"/><polygon class="cls-68" points="150.15 0 303.96 170.82 303.96 171.31 303.2 171.99 148.34 0 150.15 0"/><polygon class="cls-56" points="151.97 0 303.96 168.8 303.96 170.82 150.15 0 151.97 0"/><polygon class="cls-55" points="153.79 0 303.96 166.78 303.96 168.8 151.97 0 153.79 0"/><polygon class="cls-69" points="155.61 0 303.96 164.76 303.96 166.78 153.79 0 155.61 0"/><polygon class="cls-54" points="157.43 0 303.96 162.74 303.96 164.76 155.61 0 157.43 0"/><polygon class="cls-53" points="159.24 0 303.96 160.72 303.96 162.74 157.43 0 159.24 0"/><polygon class="cls-70" points="161.06 0 303.96 158.71 303.96 160.72 159.24 0 161.06 0"/><polygon class="cls-71" points="162.88 0 303.96 156.69 303.96 158.71 161.06 0 162.88 0"/><polygon class="cls-51" points="164.69 0 303.96 154.67 303.96 156.69 162.88 0 164.69 0"/><polygon class="cls-72" points="166.51 0 303.96 152.65 303.96 154.67 164.69 0 166.51 0"/><polygon class="cls-49" points="168.33 0 303.96 150.63 303.96 152.65 166.51 0 168.33 0"/><polygon class="cls-73" points="170.15 0 303.96 148.61 303.96 150.63 168.33 0 170.15 0"/><polygon class="cls-74" points="171.96 0 303.96 146.6 303.96 148.61 170.15 0 171.96 0"/><polygon class="cls-47" points="173.78 0 303.96 144.58 303.96 146.6 171.96 0 173.78 0"/><polygon class="cls-45" points="175.6 0 303.96 142.56 303.96 144.58 173.78 0 175.6 0"/><polygon class="cls-44" points="177.41 0 303.96 140.54 303.96 142.56 175.6 0 177.41 0"/><polygon class="cls-44" points="179.23 0 303.96 138.52 303.96 140.54 177.41 0 179.23 0"/><polygon class="cls-44" points="181.05 0 303.96 136.5 303.96 138.52 179.23 0 181.05 0"/><polygon class="cls-44" points="182.87 0 303.96 134.49 303.96 136.5 181.05 0 182.87 0"/><polygon class="cls-44" points="184.68 0 303.96 132.47 303.96 134.49 182.87 0 184.68 0"/><polygon class="cls-44" points="186.5 0 303.96 130.45 303.96 132.47 184.68 0 186.5 0"/><polygon class="cls-44" points="188.32 0 303.96 128.43 303.96 130.45 186.5 0 188.32 0"/><polygon class="cls-43" points="190.13 0 303.96 126.41 303.96 128.43 188.32 0 190.13 0"/><polygon class="cls-43" points="191.95 0 303.96 124.39 303.96 126.41 190.13 0 191.95 0"/><polygon class="cls-43" points="193.77 0 303.96 122.38 303.96 124.39 191.95 0 193.77 0"/><polygon class="cls-43" points="195.59 0 303.96 120.36 303.96 122.38 193.77 0 195.59 0"/><polygon class="cls-43" points="303.96 120.36 195.59 0 303.96 0 303.96 120.36"/></g><g class="cls-75"><path class="cls-76" d="M111.08,7.79,48.5,36.66A116.5,116.5,0,0,0,26.65,58.49l121-55.85A200.16,200.16,0,0,0,111.08,7.79Z"/><path class="cls-76" d="M111.08,7.79,48.5,36.66A116.5,116.5,0,0,0,26.65,58.49l121-55.85A200.16,200.16,0,0,0,111.08,7.79Z"/><path class="cls-76" d="M161.15,17.06,12.39,85.69A81.57,81.57,0,0,0,9.86,96q-.25,1.43-.46,2.86L164.33,27.34Q162.56,22.37,161.15,17.06Z"/><path class="cls-76" d="M161.15,17.06,12.39,85.69A81.57,81.57,0,0,0,9.86,96q-.25,1.43-.46,2.86L164.33,27.34Q162.56,22.37,161.15,17.06Z"/><path class="cls-76" d="M172.07,44.39,9.26,119.5a78.44,78.44,0,0,0,2.16,10.75L177.8,53.49A107.21,107.21,0,0,1,172.07,44.39Z"/><path class="cls-76" d="M172.07,44.39,9.26,119.5a78.44,78.44,0,0,0,2.16,10.75L177.8,53.49A107.21,107.21,0,0,1,172.07,44.39Z"/><path class="cls-76" d="M190.32,68.34,18.38,147.67A95.06,95.06,0,0,0,24,156.85l175-80.73Q194.41,72.4,190.32,68.34Z"/><path class="cls-76" d="M190.32,68.34,18.38,147.67A95.06,95.06,0,0,0,24,156.85l175-80.73Q194.41,72.4,190.32,68.34Z"/><path class="cls-76" d="M216.72,88.53,36.37,171.74q1.74,1.76,3.58,3.46l-7.47,10.08L228.38,94.9Q222.33,91.87,216.72,88.53Z"/><path class="cls-76" d="M216.72,88.53,36.37,171.74q1.74,1.76,3.58,3.46l-7.47,10.08L228.38,94.9Q222.33,91.87,216.72,88.53Z"/><path class="cls-76" d="M251.48,104.86,9.24,216.63l-1.64,2.21,42-9.1L266,109.89Q258.56,107.5,251.48,104.86Z"/><path class="cls-76" d="M251.48,104.86,9.24,216.63l-1.64,2.21,42-9.1L266,109.89Q258.56,107.5,251.48,104.86Z"/><path class="cls-76" d="M305.45,122.95c0-.12,0-.25.05-.37-4.34,0-8.43-2.47-12.6-4.45L98.53,207.81q7.89,2.44,16.27,4.24l190.42-87.86C305.3,123.78,305.37,123.36,305.45,122.95Z"/><path class="cls-76" d="M305.45,122.95c0-.12,0-.25.05-.37-4.34,0-8.43-2.47-12.6-4.45L98.53,207.81q7.89,2.44,16.27,4.24l190.42-87.86C305.3,123.78,305.37,123.36,305.45,122.95Z"/><path class="cls-76" d="M177.25,215.6l106.47-49.12A99.69,99.69,0,0,0,296.08,149l-146,67.37A206.54,206.54,0,0,0,177.25,215.6Z"/><path class="cls-76" d="M177.25,215.6l106.47-49.12A99.69,99.69,0,0,0,296.08,149l-146,67.37A206.54,206.54,0,0,0,177.25,215.6Z"/></g><g class="cls-77"><polygon class="cls-41" points="304.59 118.72 163.31 0.18 304.59 0.18 304.59 118.72"/><polygon class="cls-41" points="304.59 118.91 163.09 0.18 163.31 0.18 304.59 118.72 304.59 118.91"/><polygon class="cls-40" points="304.59 119.09 162.87 0.18 163.09 0.18 304.59 118.91 304.59 119.09"/><polygon class="cls-39" points="304.59 119.28 162.64 0.18 162.87 0.18 304.59 119.09 304.59 119.28"/><polygon class="cls-38" points="304.59 119.47 162.42 0.18 162.64 0.18 304.59 119.28 304.59 119.47"/><polygon class="cls-37" points="304.59 119.66 162.19 0.18 162.42 0.18 304.59 119.47 304.59 119.66"/><polygon class="cls-36" points="304.59 119.84 161.97 0.18 162.19 0.18 304.59 119.66 304.59 119.84"/><polygon class="cls-35" points="304.59 120.03 161.75 0.18 161.97 0.18 304.59 119.84 304.59 120.03"/><polygon class="cls-34" points="304.59 120.22 161.53 0.18 161.75 0.18 304.59 120.03 304.59 120.22"/><polygon class="cls-33" points="304.53 120.36 161.3 0.18 161.53 0.18 304.59 120.22 304.59 120.36 304.53 120.36"/><polygon class="cls-32" points="304.31 120.36 161.08 0.18 161.3 0.18 304.53 120.36 304.31 120.36"/><polygon class="cls-31" points="304.08 120.36 160.86 0.18 161.08 0.18 304.31 120.36 304.08 120.36"/><polygon class="cls-78" points="303.86 120.36 160.63 0.18 160.86 0.18 304.08 120.36 303.86 120.36"/><polygon class="cls-79" points="303.64 120.36 160.41 0.18 160.63 0.18 303.86 120.36 303.64 120.36"/><polygon class="cls-80" points="303.41 120.36 160.19 0.18 160.41 0.18 303.64 120.36 303.41 120.36"/><polygon class="cls-81" points="303.19 120.36 159.96 0.18 160.19 0.18 303.41 120.36 303.19 120.36"/><polygon class="cls-82" points="302.97 120.36 159.74 0.18 159.96 0.18 303.19 120.36 302.97 120.36"/><polygon class="cls-83" points="302.75 120.36 159.52 0.18 159.74 0.18 302.97 120.36 302.75 120.36"/><polygon class="cls-84" points="302.52 120.36 159.3 0.18 159.52 0.18 302.75 120.36 302.52 120.36"/><polygon class="cls-85" points="302.3 120.36 159.07 0.18 159.3 0.18 302.52 120.36 302.3 120.36"/><polygon class="cls-86" points="302.07 120.36 158.85 0.18 159.07 0.18 302.3 120.36 302.07 120.36"/><polygon class="cls-87" points="301.85 120.36 158.63 0.18 158.85 0.18 302.07 120.36 301.85 120.36"/><polygon class="cls-88" points="301.63 120.36 158.4 0.18 158.63 0.18 301.85 120.36 301.63 120.36"/><polygon class="cls-89" points="301.41 120.36 158.18 0.18 158.4 0.18 301.63 120.36 301.41 120.36"/><polygon class="cls-90" points="301.18 120.36 157.96 0.18 158.18 0.18 301.41 120.36 301.18 120.36"/><polygon class="cls-91" points="300.96 120.36 157.74 0.18 157.96 0.18 301.18 120.36 300.96 120.36"/><polygon class="cls-92" points="300.74 120.36 157.51 0.18 157.74 0.18 300.96 120.36 300.74 120.36"/><polygon class="cls-93" points="300.51 120.36 157.29 0.18 157.51 0.18 300.74 120.36 300.51 120.36"/><polygon class="cls-94" points="300.29 120.36 157.06 0.18 157.29 0.18 300.51 120.36 300.29 120.36"/><polygon class="cls-95" points="300.07 120.36 156.84 0.18 157.06 0.18 300.29 120.36 300.07 120.36"/><polygon class="cls-96" points="299.85 120.36 156.62 0.18 156.84 0.18 300.07 120.36 299.85 120.36"/><polygon class="cls-11" points="299.62 120.36 156.61 0.36 156.61 0.18 156.62 0.18 299.85 120.36 299.62 120.36"/><polygon class="cls-97" points="299.4 120.36 156.61 0.54 156.61 0.36 299.62 120.36 299.4 120.36"/><polygon class="cls-98" points="299.18 120.36 156.61 0.73 156.61 0.54 299.4 120.36 299.18 120.36"/><polygon class="cls-99" points="298.95 120.36 156.61 0.92 156.61 0.73 299.18 120.36 298.95 120.36"/><polygon class="cls-100" points="298.73 120.36 156.61 1.1 156.61 0.92 298.95 120.36 298.73 120.36"/><polygon class="cls-101" points="298.51 120.36 156.61 1.29 156.61 1.1 298.73 120.36 298.51 120.36"/><polygon class="cls-102" points="298.29 120.36 156.61 1.48 156.61 1.29 298.51 120.36 298.29 120.36"/><polygon class="cls-103" points="298.06 120.36 156.61 1.67 156.61 1.48 298.29 120.36 298.06 120.36"/><polygon class="cls-104" points="297.84 120.36 156.61 1.85 156.61 1.67 298.06 120.36 297.84 120.36"/><polygon class="cls-105" points="297.62 120.36 156.61 2.04 156.61 1.85 297.84 120.36 297.62 120.36"/><polygon class="cls-106" points="297.39 120.36 156.61 2.23 156.61 2.04 297.62 120.36 297.39 120.36"/><polygon class="cls-107" points="297.17 120.36 156.61 2.42 156.61 2.23 297.39 120.36 297.17 120.36"/><polygon class="cls-108" points="296.94 120.36 156.61 2.6 156.61 2.42 297.17 120.36 296.94 120.36"/><polygon class="cls-109" points="296.72 120.36 156.61 2.79 156.61 2.6 296.94 120.36 296.72 120.36"/><polygon class="cls-110" points="296.5 120.36 156.61 2.98 156.61 2.79 296.72 120.36 296.5 120.36"/><polygon class="cls-111" points="296.28 120.36 156.61 3.16 156.61 2.98 296.5 120.36 296.28 120.36"/><polygon class="cls-112" points="296.05 120.36 156.61 3.35 156.61 3.16 296.28 120.36 296.05 120.36"/><polygon class="cls-113" points="295.83 120.36 156.61 3.54 156.61 3.35 296.05 120.36 295.83 120.36"/><polygon class="cls-114" points="295.61 120.36 156.61 3.73 156.61 3.54 295.83 120.36 295.61 120.36"/><polygon class="cls-115" points="295.38 120.36 156.61 3.91 156.61 3.73 295.61 120.36 295.38 120.36"/><polygon class="cls-116" points="295.16 120.36 156.61 4.1 156.61 3.91 295.38 120.36 295.16 120.36"/><polygon class="cls-117" points="294.94 120.36 156.61 4.29 156.61 4.1 295.16 120.36 294.94 120.36"/><polygon class="cls-118" points="294.71 120.36 156.61 4.47 156.61 4.29 294.94 120.36 294.71 120.36"/><polygon class="cls-119" points="294.49 120.36 156.61 4.66 156.61 4.47 294.71 120.36 294.49 120.36"/><polygon class="cls-120" points="294.27 120.36 156.61 4.85 156.61 4.66 294.49 120.36 294.27 120.36"/><polygon class="cls-121" points="294.05 120.36 156.61 5.03 156.61 4.85 294.27 120.36 294.05 120.36"/><polygon class="cls-122" points="293.82 120.36 156.61 5.22 156.61 5.03 294.05 120.36 293.82 120.36"/><polygon class="cls-123" points="293.6 120.36 156.61 5.41 156.61 5.22 293.82 120.36 293.6 120.36"/><polygon class="cls-124" points="293.38 120.36 156.61 5.6 156.61 5.41 293.6 120.36 293.38 120.36"/><polygon class="cls-125" points="293.15 120.36 156.61 5.78 156.61 5.6 293.38 120.36 293.15 120.36"/><polygon class="cls-76" points="292.93 120.36 156.61 5.97 156.61 5.78 293.15 120.36 292.93 120.36"/><polygon class="cls-76" points="292.3 120.36 156.61 6.5 156.61 5.97 292.93 120.36 292.3 120.36"/><polygon class="cls-125" points="291.66 120.36 156.61 7.04 156.61 6.5 292.3 120.36 291.66 120.36"/><polygon class="cls-124" points="291.03 120.36 156.61 7.57 156.61 7.04 291.66 120.36 291.03 120.36"/><polygon class="cls-123" points="290.39 120.36 156.61 8.1 156.61 7.57 291.03 120.36 290.39 120.36"/><polygon class="cls-122" points="289.76 120.36 156.61 8.63 156.61 8.1 290.39 120.36 289.76 120.36"/><polygon class="cls-121" points="289.12 120.36 156.61 9.17 156.61 8.63 289.76 120.36 289.12 120.36"/><polygon class="cls-120" points="288.49 120.36 156.61 9.7 156.61 9.17 289.12 120.36 288.49 120.36"/><polygon class="cls-119" points="287.85 120.36 156.61 10.23 156.61 9.7 288.49 120.36 287.85 120.36"/><polygon class="cls-118" points="287.22 120.36 156.61 10.77 156.61 10.23 287.85 120.36 287.22 120.36"/><polygon class="cls-117" points="286.58 120.36 156.61 11.3 156.61 10.77 287.22 120.36 286.58 120.36"/><polygon class="cls-126" points="285.95 120.36 156.61 11.83 156.61 11.3 286.58 120.36 285.95 120.36"/><polygon class="cls-115" points="285.31 120.36 156.61 12.36 156.61 11.83 285.95 120.36 285.31 120.36"/><polygon class="cls-127" points="284.68 120.36 156.61 12.9 156.61 12.36 285.31 120.36 284.68 120.36"/><polygon class="cls-128" points="284.04 120.36 156.61 13.43 156.61 12.9 284.68 120.36 284.04 120.36"/><polygon class="cls-129" points="283.41 120.36 156.61 13.96 156.61 13.43 284.04 120.36 283.41 120.36"/><polygon class="cls-130" points="282.77 120.36 156.61 14.49 156.61 13.96 283.41 120.36 282.77 120.36"/><polygon class="cls-131" points="282.14 120.36 156.61 15.03 156.61 14.49 282.77 120.36 282.14 120.36"/><polygon class="cls-132" points="281.5 120.36 156.61 15.56 156.61 15.03 282.14 120.36 281.5 120.36"/><polygon class="cls-133" points="280.87 120.36 156.61 16.09 156.61 15.56 281.5 120.36 280.87 120.36"/><polygon class="cls-134" points="280.23 120.36 156.61 16.62 156.61 16.09 280.87 120.36 280.23 120.36"/><polygon class="cls-135" points="279.6 120.36 156.61 17.16 156.61 16.62 280.23 120.36 279.6 120.36"/><polygon class="cls-136" points="278.96 120.36 156.61 17.69 156.61 17.16 279.6 120.36 278.96 120.36"/><polygon class="cls-4" points="278.33 120.36 156.61 18.22 156.61 17.69 278.96 120.36 278.33 120.36"/><polygon class="cls-4" points="278.03 120.36 156.61 18.47 156.61 18.23 278.33 120.36 278.03 120.36"/><polygon class="cls-5" points="277.73 120.36 156.61 18.72 156.61 18.47 278.03 120.36 277.73 120.36"/><polygon class="cls-6" points="277.44 120.36 156.61 18.97 156.61 18.72 277.73 120.36 277.44 120.36"/><polygon class="cls-7" points="277.14 120.36 156.61 19.22 156.61 18.97 277.44 120.36 277.14 120.36"/><polygon class="cls-8" points="276.85 120.36 156.61 19.47 156.61 19.22 277.14 120.36 276.85 120.36"/><polygon class="cls-9" points="276.55 120.36 156.61 19.72 156.61 19.47 276.85 120.36 276.55 120.36"/><polygon class="cls-10" points="276.25 120.36 156.61 19.97 156.61 19.72 276.55 120.36 276.25 120.36"/><polygon class="cls-11" points="275.95 120.36 156.61 20.22 156.61 19.97 276.25 120.36 275.95 120.36"/><polygon class="cls-12" points="275.65 120.36 156.61 20.47 156.61 20.22 275.95 120.36 275.65 120.36"/><polygon class="cls-13" points="275.36 120.36 156.61 20.71 156.61 20.47 275.65 120.36 275.36 120.36"/><polygon class="cls-14" points="275.06 120.36 156.61 20.96 156.61 20.71 275.36 120.36 275.06 120.36"/><polygon class="cls-15" points="274.77 120.36 156.61 21.21 156.61 20.96 275.06 120.36 274.77 120.36"/><polygon class="cls-16" points="274.47 120.36 156.61 21.46 156.61 21.21 274.77 120.36 274.47 120.36"/><polygon class="cls-17" points="274.17 120.36 156.61 21.71 156.61 21.46 274.47 120.36 274.17 120.36"/><polygon class="cls-18" points="273.87 120.36 156.61 21.96 156.61 21.71 274.17 120.36 273.87 120.36"/><polygon class="cls-19" points="273.58 120.36 156.61 22.21 156.61 21.96 273.87 120.36 273.58 120.36"/><polygon class="cls-20" points="273.28 120.36 156.61 22.46 156.61 22.21 273.58 120.36 273.28 120.36"/><polygon class="cls-21" points="272.98 120.36 156.61 22.71 156.61 22.46 273.28 120.36 272.98 120.36"/><polygon class="cls-22" points="272.69 120.36 156.61 22.96 156.61 22.71 272.98 120.36 272.69 120.36"/><polygon class="cls-23" points="272.39 120.36 156.61 23.21 156.61 22.96 272.69 120.36 272.39 120.36"/><polygon class="cls-24" points="272.09 120.36 156.61 23.45 156.61 23.21 272.39 120.36 272.09 120.36"/><polygon class="cls-25" points="271.8 120.36 156.61 23.7 156.61 23.45 272.09 120.36 271.8 120.36"/><polygon class="cls-26" points="271.5 120.36 156.61 23.95 156.61 23.7 271.8 120.36 271.5 120.36"/><polygon class="cls-27" points="271.2 120.36 156.61 24.2 156.61 23.95 271.5 120.36 271.2 120.36"/><polygon class="cls-28" points="270.91 120.36 156.61 24.45 156.61 24.2 271.2 120.36 270.91 120.36"/><polygon class="cls-29" points="270.61 120.36 156.61 24.7 156.61 24.45 270.91 120.36 270.61 120.36"/><polygon class="cls-30" points="270.31 120.36 156.61 24.95 156.61 24.7 270.61 120.36 270.31 120.36"/><polygon class="cls-31" points="270.01 120.36 156.61 25.2 156.61 24.95 270.31 120.36 270.01 120.36"/><polygon class="cls-32" points="269.72 120.36 156.61 25.45 156.61 25.2 270.01 120.36 269.72 120.36"/><polygon class="cls-33" points="269.42 120.36 156.61 25.7 156.61 25.45 269.72 120.36 269.42 120.36"/><polygon class="cls-34" points="269.12 120.36 156.61 25.95 156.61 25.7 269.42 120.36 269.12 120.36"/><polygon class="cls-35" points="268.83 120.36 156.61 26.2 156.61 25.95 269.12 120.36 268.83 120.36"/><polygon class="cls-36" points="268.53 120.36 156.61 26.44 156.61 26.2 268.83 120.36 268.53 120.36"/><polygon class="cls-37" points="268.23 120.36 156.61 26.69 156.61 26.44 268.53 120.36 268.23 120.36"/><polygon class="cls-38" points="267.94 120.36 156.61 26.94 156.61 26.69 268.23 120.36 267.94 120.36"/><polygon class="cls-39" points="267.64 120.36 156.61 27.19 156.61 26.94 267.94 120.36 267.64 120.36"/><polygon class="cls-40" points="267.34 120.36 156.61 27.44 156.61 27.19 267.64 120.36 267.34 120.36"/><polygon class="cls-41" points="267.05 120.36 156.61 27.69 156.61 27.44 267.34 120.36 267.05 120.36"/><polygon class="cls-41" points="156.61 27.69 267.05 120.36 156.61 120.36 156.61 27.69"/></g><path class="cls-76" d="M157.09,209.2c-2.19,0-4.42,0-6.65-.13l.06-1.55c3.46.13,6.91.16,10.28.09l0,1.55C159.58,209.18,158.33,209.2,157.09,209.2Zm6.32-.12-.06-1.55c3.47-.14,6.92-.39,10.25-.76l.17,1.54C170.39,208.68,166.91,208.94,163.41,209.08Zm-15.56-.13c-3.39-.18-6.87-.46-10.34-.84l.17-1.54c3.45.37,6.9.65,10.26.83Zm28.5-.95-.2-1.54c3.24-.42,6.46-1,9.56-1.59h0l.54-.14.39,1.5-.59.15C182.87,207,179.62,207.58,176.34,208Zm-41.41-.19c-3.37-.41-6.83-.92-10.26-1.51l.26-1.53c3.41.59,6.84,1.09,10.19,1.5Zm-109.53-.94L25,205.46l-1,1.3-1.24-.93,6.2-8.26,1.24.93-5.14,6.85L35,202.74l.4,1.5Zm96.72-1c-3.35-.62-6.77-1.33-10.16-2.11l.35-1.51c3.36.78,6.75,1.48,10.09,2.09Zm67-.3-.42-1.49c2.13-.6,5.56-1.62,9.86-3.06l.5,1.47C194.76,203.92,191.3,204.95,189.16,205.55Zm-151.28-2-.39-1.5,10-2.64.4,1.5Zm71.55-.43c-3.34-.81-6.71-1.71-10-2.66l.43-1.49c3.29,1,6.64,1.84,10,2.64Zm92.12-1.52-.51-1.46c3.22-1.12,6.48-2.33,9.67-3.6l.57,1.44C208.07,199.28,204.8,200.5,201.55,201.63ZM50.36,200.28l-.4-1.5,10-2.64.4,1.5Zm46.56-.53c-3.36-1-6.68-2.09-9.87-3.21l.51-1.46c3.16,1.11,6.46,2.18,9.8,3.19ZM213.69,197l-.59-1.44c3.2-1.31,6.38-2.69,9.46-4.1l.65,1.41C220.11,194.33,216.91,195.72,213.69,197ZM62.85,197l-.4-1.5,10-2.64.4,1.5Zm-31.05-.55-1.24-.93,6.2-8.26,1.24.93Zm52.81-.76c-3.64-1.33-6-2.33-6.77-2.64l-2.5.66-.4-1.5,3-.8.25.11s2.55,1.11,6.93,2.72Zm141-3.86-.66-1.4c3.14-1.49,6.24-3,9.21-4.63l.73,1.37C231.85,188.74,228.72,190.31,225.56,191.81Zm-186-5.71-1.24-.93,6.2-8.26,1.24.93Zm197.58-.19-.75-1.36c3.05-1.68,6-3.43,8.89-5.2l.82,1.32C243.21,182.45,240.2,184.22,237.12,185.91Zm11.16-6.63-.84-1.3c2.94-1.89,5.79-3.85,8.48-5.83l.92,1.25C254.12,175.39,251.24,177.37,248.28,179.28Zm-201-3.51-1.24-.93,2.38-3.17-3.76-3.13,1-1.19,4.89,4.08Zm211.62-3.93-.94-1.23c2.78-2.12,5.44-4.32,7.93-6.53l1,1.16C264.41,167.47,261.71,169.7,258.91,171.84Zm-216.17-4.9a63.94,63.94,0,0,1-8.15-6.52l1.06-1.13a62.26,62.26,0,0,0,8,6.36Zm226.11-3.45-1.05-1.14c2.56-2.37,5-4.83,7.21-7.3l1.15,1C273.9,158.6,271.45,161.08,268.85,163.49Zm-236.13-4.9a61.93,61.93,0,0,1-6.62-8.08l1.28-.88a60.48,60.48,0,0,0,6.45,7.88Zm245.15-4.45-1.18-1A96,96,0,0,0,283,145l1.28.88A98,98,0,0,1,277.88,154.14Zm-253.2-5.82a66.6,66.6,0,0,1-4.82-9.26l1.42-.61a65,65,0,0,0,4.71,9Zm261-4.58-1.3-.84a82.9,82.9,0,0,0,5-8.9l1.4.67A84.93,84.93,0,0,1,285.67,143.74Zm-266.8-7.1a77.51,77.51,0,0,1-3-10l1.51-.35a75.45,75.45,0,0,0,3,9.77Zm273-4.33-1.42-.63a75.86,75.86,0,0,0,3.5-9.58l1.49.43A77.27,77.27,0,0,1,291.87,132.31Zm-276.6-8.2a90.05,90.05,0,0,1-1.46-10.32l1.54-.13a89,89,0,0,0,1.43,10.14ZM13.63,111.2c-.11-1.85-.16-3.75-.16-5.62,0-1.59,0-3.2.11-4.79l1.55.07c-.08,1.56-.11,3.15-.11,4.71,0,1.85.05,3.71.16,5.54Zm1.66-12.9-1.54-.12a68.55,68.55,0,0,1,.89-7.37l0-.08c.3-1,.63-1.93,1-2.87l1.46.52c-.32.91-.64,1.84-.93,2.77A70.25,70.25,0,0,0,15.29,98.3ZM18,86l-1.44-.57A85.69,85.69,0,0,1,20.92,76l1.36.74A83.66,83.66,0,0,0,18,86ZM23.54,74.5l-1.34-.78a90.26,90.26,0,0,1,5.74-8.67l1.24.93A89.51,89.51,0,0,0,23.54,74.5ZM30.74,64l-1.21-1a101.43,101.43,0,0,1,6.86-7.81l1.11,1.08A100.57,100.57,0,0,0,30.74,64Zm8.56-9.5-1.09-1.11c2.41-2.37,5-4.7,7.75-6.93l1,1.2C44.26,49.82,41.68,52.12,39.3,54.45ZM48.95,46l-1-1.22c2.66-2.09,5.49-4.14,8.42-6.09L57.27,40C54.37,41.92,51.57,43.94,48.95,46Zm10.47-7.43-.84-1.3c2.84-1.83,5.83-3.62,8.91-5.33l.75,1.35C65.19,35,62.22,36.76,59.42,38.57Zm11.07-6.51-.73-1.37c3-1.6,6.1-3.16,9.29-4.65l.66,1.4C76.54,28.93,73.44,30.48,70.48,32.07ZM82,26.38,81.39,25c3.08-1.39,6.3-2.75,9.56-4l.57,1.44C88.29,23.65,85.09,25,82,26.38Zm11.9-4.94L93.38,20c3.17-1.21,6.46-2.38,9.78-3.48l.49,1.47C100.35,19.08,97.08,20.24,93.93,21.44Zm12.16-4.26-.47-1.48c3.24-1,6.59-2,9.94-3l.42,1.49C112.65,15.15,109.32,16.14,106.09,17.18Zm12.37-3.65-.4-1.5c3.31-.89,6.7-1.74,10.07-2.51l.35,1.51C125.13,11.81,121.76,12.65,118.47,13.54ZM131,10.47,130.67,9c3.41-.75,6.83-1.44,10.18-2l.28,1.52C137.79,9,134.39,9.73,131,10.47ZM143.67,8l-.26-1.53C149.8,5.38,153.71,5,153.75,5l.16,1.54S150,6.91,143.67,8Z"/></g></g></g></svg>