<svg xmlns="http://www.w3.org/2000/svg" xmlns:xlink="http://www.w3.org/1999/xlink" viewBox="0 0 554.53 385.51"><defs><style>.cls-1{fill:none;}.cls-2{fill:#d2d2d2;}.cls-3{fill:url(#linear-gradient);}.cls-4{fill:#828181;}.cls-5{fill:url(#linear-gradient-2);}.cls-6{fill:url(#linear-gradient-3);}.cls-7{fill:url(#radial-gradient);}.cls-8{fill:url(#radial-gradient-2);}.cls-9{fill:url(#radial-gradient-3);}.cls-10{fill:url(#radial-gradient-4);}.cls-11{fill:url(#radial-gradient-5);}.cls-12{fill:url(#radial-gradient-6);}.cls-13{fill:url(#radial-gradient-7);}.cls-14{fill:url(#radial-gradient-8);}.cls-15{fill:url(#radial-gradient-9);}.cls-16{fill:url(#radial-gradient-10);}.cls-17{fill:url(#radial-gradient-11);}.cls-18{fill:url(#radial-gradient-12);}.cls-19{fill:url(#radial-gradient-13);}.cls-20{fill:url(#radial-gradient-14);}.cls-21{fill:url(#radial-gradient-15);}.cls-22{fill:url(#radial-gradient-16);}.cls-23{fill:url(#radial-gradient-17);}.cls-24{fill:url(#radial-gradient-18);}.cls-25{fill:url(#radial-gradient-19);}.cls-26{fill:url(#radial-gradient-20);}.cls-27{fill:url(#radial-gradient-21);}.cls-28{fill:url(#radial-gradient-22);}.cls-29{fill:url(#radial-gradient-23);}.cls-30{fill:url(#radial-gradient-24);}.cls-31{fill:url(#radial-gradient-25);}.cls-32{fill:url(#radial-gradient-26);}.cls-33{fill:url(#radial-gradient-27);}.cls-34{fill:url(#radial-gradient-28);}.cls-35{fill:url(#radial-gradient-29);}.cls-36{fill:url(#radial-gradient-30);}.cls-37{fill:url(#radial-gradient-31);}.cls-38{fill:url(#radial-gradient-32);}.cls-39{fill:url(#radial-gradient-33);}.cls-40{fill:url(#radial-gradient-34);}.cls-41{fill:url(#radial-gradient-35);}.cls-42{fill:url(#radial-gradient-36);}.cls-43{fill:url(#radial-gradient-37);}.cls-44{fill:url(#radial-gradient-38);}.cls-45{fill:url(#radial-gradient-39);}.cls-46{fill:url(#radial-gradient-40);}.cls-47{fill:url(#radial-gradient-41);}.cls-48{fill:url(#radial-gradient-42);}.cls-49{fill:url(#radial-gradient-43);}.cls-50{fill:url(#radial-gradient-44);}.cls-51{fill:url(#radial-gradient-45);}.cls-52{fill:url(#radial-gradient-46);}.cls-53{fill:url(#radial-gradient-47);}.cls-54{fill:url(#radial-gradient-48);}.cls-55{fill:url(#radial-gradient-49);}.cls-56{fill:url(#radial-gradient-50);}.cls-57{fill:url(#radial-gradient-51);}.cls-58{fill:url(#radial-gradient-52);}.cls-59{fill:url(#radial-gradient-53);}.cls-60{fill:url(#radial-gradient-54);}.cls-61{fill:url(#radial-gradient-55);}.cls-62{fill:url(#radial-gradient-56);}.cls-63{fill:url(#radial-gradient-57);}.cls-64{fill:url(#radial-gradient-58);}.cls-65{fill:url(#linear-gradient-4);}.cls-66{fill:url(#linear-gradient-5);}.cls-67{fill:#f4f4f4;}.cls-68{fill:#ed1c24;}.cls-69{fill:url(#linear-gradient-6);}.cls-70{fill:url(#linear-gradient-7);}.cls-71{fill:url(#linear-gradient-8);}.cls-72{fill:url(#linear-gradient-9);}.cls-73{fill:url(#linear-gradient-10);}.cls-74{fill:url(#linear-gradient-11);}.cls-75{fill:url(#linear-gradient-12);}.cls-76{fill:url(#linear-gradient-13);}</style><linearGradient id="linear-gradient" x1="248.62" y1="86.84" x2="308.38" y2="425.74" gradientUnits="userSpaceOnUse"><stop offset="0" stop-color="#f2f2f2"/><stop offset="0.01" stop-color="#f4f4f4"/><stop offset="0.1" stop-color="#fdfdfd"/><stop offset="0.25" stop-color="#fff"/><stop offset="0.64" stop-color="#fcfcfc"/><stop offset="0.89" stop-color="#f4f4f4"/><stop offset="1" stop-color="#ededed"/></linearGradient><linearGradient id="linear-gradient-2" x1="-1629.05" y1="-1130.49" x2="-1602.07" y2="-1130.49" gradientTransform="translate(22.48 2113.74) rotate(58.03)" gradientUnits="userSpaceOnUse"><stop offset="0" stop-color="#828181"/><stop offset="0.26" stop-color="#d2d2d2"/><stop offset="0.49" stop-color="#f4f4f4"/><stop offset="0.71" stop-color="#d2d2d2"/><stop offset="0.98" stop-color="#828181"/></linearGradient><linearGradient id="linear-gradient-3" x1="-1468.32" y1="-1388" x2="-1441.34" y2="-1388" xlink:href="#linear-gradient-2"/><radialGradient id="radial-gradient" cx="-1652.43" cy="-523.18" r="3.36" gradientTransform="matrix(0, 1.12, -1, 0, -375.27, 1962.36)" gradientUnits="userSpaceOnUse"><stop offset="0" stop-color="#fff"/><stop offset="1" stop-color="#b2b1b1"/></radialGradient><radialGradient id="radial-gradient-2" cx="-1652.43" cy="-516.68" r="3.36" gradientTransform="matrix(0, 1.12, -1, 0, -374.58, 1966.01)" xlink:href="#radial-gradient"/><radialGradient id="radial-gradient-3" cx="-1652.43" cy="-510.17" r="3.36" gradientTransform="matrix(0, 1.12, -1, 0, -372.82, 1969.95)" xlink:href="#radial-gradient"/><radialGradient id="radial-gradient-4" cx="-1652.43" cy="-503.67" r="3.36" gradientTransform="matrix(0, 1.12, -1, 0, -371.74, 1973.7)" xlink:href="#radial-gradient"/><radialGradient id="radial-gradient-5" cx="-1652.43" cy="-633.23" r="3.36" gradientTransform="matrix(0, 1.12, -1, 0, -395.8, 1898.25)" xlink:href="#radial-gradient"/><radialGradient id="radial-gradient-6" cx="-1652.43" cy="-626.72" r="3.36" gradientTransform="matrix(0, 1.12, -1, 0, -394.77, 1901.98)" xlink:href="#radial-gradient"/><radialGradient id="radial-gradient-7" cx="-1652.43" cy="-620.21" r="3.36" gradientTransform="matrix(0, 1.12, -1, 0, -393.7, 1905.72)" xlink:href="#radial-gradient"/><radialGradient id="radial-gradient-8" cx="-1652.43" cy="-607.21" r="3.36" gradientTransform="matrix(0, 1.12, -1, 0, -391.06, 1913.38)" xlink:href="#radial-gradient"/><radialGradient id="radial-gradient-9" cx="-1652.43" cy="-613.71" r="3.36" gradientTransform="matrix(0, 1.12, -1, 0, -392.14, 1909.63)" xlink:href="#radial-gradient"/><radialGradient id="radial-gradient-10" cx="-1652.43" cy="-600.7" r="3.36" gradientTransform="matrix(0, 1.12, -1, 0, -389.57, 1917.26)" xlink:href="#radial-gradient"/><radialGradient id="radial-gradient-11" cx="-1652.43" cy="-594.2" r="3.36" gradientTransform="matrix(0, 1.12, -1, 0, -388.76, 1920.92)" xlink:href="#radial-gradient"/><radialGradient id="radial-gradient-12" cx="-1652.43" cy="-587.69" r="3.36" gradientTransform="matrix(0, 1.12, -1, 0, -387.31, 1924.78)" xlink:href="#radial-gradient"/><radialGradient id="radial-gradient-13" cx="-1652.43" cy="-581.19" r="3.36" gradientTransform="matrix(0, 1.12, -1, 0, -386.24, 1928.53)" xlink:href="#radial-gradient"/><radialGradient id="radial-gradient-14" cx="-1652.43" cy="-574.68" r="3.36" gradientTransform="matrix(0, 1.12, -1, 0, -385.53, 1932.16)" xlink:href="#radial-gradient"/><radialGradient id="radial-gradient-15" cx="-1652.43" cy="-561.67" r="3.36" gradientTransform="matrix(0, 1.12, -1, 0, -382.65, 1939.88)" xlink:href="#radial-gradient"/><radialGradient id="radial-gradient-16" cx="-1652.43" cy="-568.17" r="3.36" gradientTransform="matrix(0, 1.12, -1, 0, -383.99, 1936.05)" xlink:href="#radial-gradient"/><radialGradient id="radial-gradient-17" cx="-1652.43" cy="-555.16" r="3.36" gradientTransform="matrix(0, 1.12, -1, 0, -381.18, 1943.75)" xlink:href="#radial-gradient"/><radialGradient id="radial-gradient-18" cx="-1652.43" cy="-548.66" r="3.36" gradientTransform="matrix(0, 1.12, -1, 0, -380.02, 1947.52)" xlink:href="#radial-gradient"/><radialGradient id="radial-gradient-19" cx="-1652.43" cy="-541.98" r="3.36" gradientTransform="matrix(0, 1.12, -1, 0, -379.01, 1951.34)" xlink:href="#radial-gradient"/><radialGradient id="radial-gradient-20" cx="-1652.43" cy="-535.47" r="3.36" gradientTransform="matrix(0, 1.12, -1, 0, -378.03, 1955.07)" xlink:href="#radial-gradient"/><radialGradient id="radial-gradient-21" cx="-1652.43" cy="-528.97" r="3.36" gradientTransform="matrix(0, 1.12, -1, 0, -376.73, 1958.89)" xlink:href="#radial-gradient"/><radialGradient id="radial-gradient-22" cx="-1652.26" cy="-673.31" r="3.36" gradientTransform="matrix(0, 1.12, -1, 0, -403.31, 1874.81)" xlink:href="#radial-gradient"/><radialGradient id="radial-gradient-23" cx="-1652.26" cy="-679.82" r="3.36" gradientTransform="matrix(0, 1.12, -1, 0, -404.25, 1871.12)" xlink:href="#radial-gradient"/><radialGradient id="radial-gradient-24" cx="-1652.26" cy="-666.81" r="3.36" gradientTransform="matrix(0, 1.12, -1, 0, -401.9, 1878.67)" xlink:href="#radial-gradient"/><radialGradient id="radial-gradient-25" cx="-1652.26" cy="-660.3" r="3.36" gradientTransform="matrix(0, 1.12, -1, 0, -400.87, 1882.4)" xlink:href="#radial-gradient"/><radialGradient id="radial-gradient-26" cx="-1652.26" cy="-653.62" r="3.36" gradientTransform="matrix(0, 1.12, -1, 0, -399.67, 1886.27)" xlink:href="#radial-gradient"/><radialGradient id="radial-gradient-27" cx="-1652.26" cy="-647.11" r="3.36" gradientTransform="matrix(0, 1.12, -1, 0, -398.52, 1890.04)" xlink:href="#radial-gradient"/><radialGradient id="radial-gradient-28" cx="-1652.26" cy="-640.61" r="3.36" gradientTransform="matrix(0, 1.12, -1, 0, -397.07, 1893.92)" xlink:href="#radial-gradient"/><radialGradient id="radial-gradient-29" cx="-3428.79" cy="2244.24" r="3.36" gradientTransform="matrix(-1.12, 0, 0, 1, -3415.65, -2134.19)" xlink:href="#radial-gradient"/><radialGradient id="radial-gradient-30" cx="-3428.79" cy="2250.74" r="3.36" gradientTransform="matrix(-1.12, 0, 0, 1, -3410.76, -2136.21)" xlink:href="#radial-gradient"/><radialGradient id="radial-gradient-31" cx="-3428.79" cy="2257.25" r="3.36" gradientTransform="matrix(-1.12, 0, 0, 1, -3404.56, -2140.45)" xlink:href="#radial-gradient"/><radialGradient id="radial-gradient-32" cx="-3428.79" cy="2263.75" r="3.36" gradientTransform="matrix(-1.12, 0, 0, 1, -3399.62, -2142.54)" xlink:href="#radial-gradient"/><radialGradient id="radial-gradient-33" cx="-3428.79" cy="2134.19" r="3.36" gradientTransform="matrix(-1.12, 0, 0, 1, -3505.27, -2088.33)" xlink:href="#radial-gradient"/><radialGradient id="radial-gradient-34" cx="-3428.79" cy="2140.7" r="3.36" gradientTransform="matrix(-1.12, 0, 0, 1, -3499.99, -2091.03)" xlink:href="#radial-gradient"/><radialGradient id="radial-gradient-35" cx="-3428.79" cy="2147.2" r="3.36" gradientTransform="matrix(-1.12, 0, 0, 1, -3495.07, -2093.05)" xlink:href="#radial-gradient"/><radialGradient id="radial-gradient-36" cx="-3428.79" cy="2160.21" r="3.36" gradientTransform="matrix(-1.12, 0, 0, 1, -3484.41, -2098.59)" xlink:href="#radial-gradient"/><radialGradient id="radial-gradient-37" cx="-3428.79" cy="2153.71" r="3.36" gradientTransform="matrix(-1.12, 0, 0, 1, -3489.34, -2096.54)" xlink:href="#radial-gradient"/><radialGradient id="radial-gradient-38" cx="-3428.79" cy="2166.72" r="3.36" gradientTransform="matrix(-1.12, 0, 0, 1, -3478.54, -2102.3)" xlink:href="#radial-gradient"/><radialGradient id="radial-gradient-39" cx="-3428.79" cy="2173.22" r="3.36" gradientTransform="matrix(-1.12, 0, 0, 1, -3473.7, -2104.21)" xlink:href="#radial-gradient"/><radialGradient id="radial-gradient-40" cx="-3428.79" cy="2179.73" r="3.36" gradientTransform="matrix(-1.12, 0, 0, 1, -3467.87, -2107.85)" xlink:href="#radial-gradient"/><radialGradient id="radial-gradient-41" cx="-3428.79" cy="2186.23" r="3.36" gradientTransform="matrix(-1.12, 0, 0, 1, -3462.97, -2109.88)" xlink:href="#radial-gradient"/><radialGradient id="radial-gradient-42" cx="-3428.79" cy="2192.74" r="3.36" gradientTransform="matrix(-1.12, 0, 0, 1, -3458.02, -2111.97)" xlink:href="#radial-gradient"/><radialGradient id="radial-gradient-43" cx="-3428.79" cy="2205.75" r="3.36" gradientTransform="matrix(-1.12, 0, 0, 1, -3447.1, -2117.96)" xlink:href="#radial-gradient"/><radialGradient id="radial-gradient-44" cx="-3428.79" cy="2199.24" r="3.36" gradientTransform="matrix(-1.12, 0, 0, 1, -3452.33, -2115.38)" xlink:href="#radial-gradient"/><radialGradient id="radial-gradient-45" cx="-3428.79" cy="2212.25" r="3.36" gradientTransform="matrix(-1.12, 0, 0, 1, -3441.24, -2121.65)" xlink:href="#radial-gradient"/><radialGradient id="radial-gradient-46" cx="-3428.79" cy="2218.76" r="3.36" gradientTransform="matrix(-1.12, 0, 0, 1, -3436.23, -2123.85)" xlink:href="#radial-gradient"/><radialGradient id="radial-gradient-47" cx="-3428.79" cy="2225.44" r="3.36" gradientTransform="matrix(-1.12, 0, 0, 1, -3431.06, -2126.17)" xlink:href="#radial-gradient"/><radialGradient id="radial-gradient-48" cx="-3428.79" cy="2231.95" r="3.36" gradientTransform="matrix(-1.12, 0, 0, 1, -3426.27, -2128.01)" xlink:href="#radial-gradient"/><radialGradient id="radial-gradient-49" cx="-3428.79" cy="2238.45" r="3.36" gradientTransform="matrix(-1.12, 0, 0, 1, -3420.37, -2131.76)" xlink:href="#radial-gradient"/><radialGradient id="radial-gradient-50" cx="-3428.61" cy="2094.11" r="3.36" gradientTransform="matrix(-1.12, 0, 0, 1, -3538.12, -2070.98)" xlink:href="#radial-gradient"/><radialGradient id="radial-gradient-51" cx="-3428.61" cy="2087.6" r="3.36" gradientTransform="matrix(-1.12, 0, 0, 1, -3543.12, -2068.81)" xlink:href="#radial-gradient"/><radialGradient id="radial-gradient-52" cx="-3428.61" cy="2100.61" r="3.36" gradientTransform="matrix(-1.12, 0, 0, 1, -3532.81, -2073.72)" xlink:href="#radial-gradient"/><radialGradient id="radial-gradient-53" cx="-3428.61" cy="2107.12" r="3.36" gradientTransform="matrix(-1.12, 0, 0, 1, -3527.48, -2076.48)" xlink:href="#radial-gradient"/><radialGradient id="radial-gradient-54" cx="-3428.61" cy="2113.8" r="3.36" gradientTransform="matrix(-1.12, 0, 0, 1, -3521.85, -2079.6)" xlink:href="#radial-gradient"/><radialGradient id="radial-gradient-55" cx="-3428.61" cy="2120.3" r="3.36" gradientTransform="matrix(-1.12, 0, 0, 1, -3517.06, -2081.39)" xlink:href="#radial-gradient"/><radialGradient id="radial-gradient-56" cx="-3428.61" cy="2126.81" r="3.36" gradientTransform="matrix(-1.12, 0, 0, 1, -3511.46, -2084.66)" xlink:href="#radial-gradient"/><radialGradient id="radial-gradient-57" cx="279.44" cy="31.46" r="31.46" gradientUnits="userSpaceOnUse"><stop offset="0.6" stop-color="#d2d2d2"/><stop offset="1" stop-color="#828181"/></radialGradient><radialGradient id="radial-gradient-58" cx="287.27" cy="25.19" r="22.72" gradientUnits="userSpaceOnUse"><stop offset="0" stop-color="#fff"/><stop offset="0.35" stop-color="#b2b1b1"/><stop offset="0.63" stop-color="#969595"/><stop offset="0.71" stop-color="#888"/><stop offset="0.85" stop-color="#656464"/><stop offset="1" stop-color="#383838"/></radialGradient><linearGradient id="linear-gradient-4" x1="260.95" y1="20.75" x2="271.58" y2="27.91" gradientUnits="userSpaceOnUse"><stop offset="0.1" stop-color="#f4f4f4"/><stop offset="0.24" stop-color="#e8e8e8"/><stop offset="0.41" stop-color="#d2d2d2"/><stop offset="0.73" stop-color="#b2b1b1"/></linearGradient><linearGradient id="linear-gradient-5" x1="285.13" y1="40.76" x2="294.32" y2="46.96" xlink:href="#linear-gradient-4"/><linearGradient id="linear-gradient-6" x1="102.11" y1="200.48" x2="153.08" y2="251.45" gradientUnits="userSpaceOnUse"><stop offset="0" stop-color="#f75965"/><stop offset="0.51" stop-color="#f70b1c"/></linearGradient><linearGradient id="linear-gradient-7" x1="204.66" y1="217.4" x2="245.58" y2="258.32" xlink:href="#linear-gradient-6"/><linearGradient id="linear-gradient-8" x1="286.72" y1="196.69" x2="322.24" y2="232.21" xlink:href="#linear-gradient-6"/><linearGradient id="linear-gradient-9" x1="366.57" y1="218.92" x2="394.59" y2="246.93" xlink:href="#linear-gradient-6"/><linearGradient id="linear-gradient-10" x1="440.27" y1="198.22" x2="473.37" y2="231.32" xlink:href="#linear-gradient-6"/><linearGradient id="linear-gradient-11" x1="450.26" y1="340.39" x2="450.26" y2="360.18" gradientTransform="matrix(0.99, -0.13, 0.13, 0.99, -383.82, -74.58)" gradientUnits="userSpaceOnUse"><stop offset="0.13" stop-color="#f4f4f4"/><stop offset="0.37" stop-color="#f5b3b8"/><stop offset="0.68" stop-color="#f75965"/></linearGradient><linearGradient id="linear-gradient-12" x1="301.22" y1="195.63" x2="301.22" y2="209.73" gradientTransform="matrix(1, 0, 0, 1, 0, 0)" xlink:href="#linear-gradient-11"/><linearGradient id="linear-gradient-13" x1="451.73" y1="200.24" x2="451.73" y2="214.33" gradientTransform="matrix(1, 0, 0, 1, 0, 0)" xlink:href="#linear-gradient-11"/></defs><title>Ресурс 17ribbon</title><g id="Слой_2" data-name="Слой 2"><g id="Layer_1" data-name="Layer 1"><path class="cls-1" d="M127,131.83a12.74,12.74,0,1,0,12.69,12.74A12.71,12.71,0,0,0,127,131.83Zm-.33,19.27a6.53,6.53,0,1,1,6.51-6.53A6.52,6.52,0,0,1,126.63,151.1Z"/><path class="cls-1" d="M430.16,131.83a12.74,12.74,0,1,0,12.69,12.74A12.71,12.71,0,0,0,430.16,131.83Zm0,19.27a6.53,6.53,0,1,1,6.5-6.53A6.52,6.52,0,0,1,430.16,151.1Z"/><path class="cls-2" d="M2.27,322.21a224.42,224.42,0,0,0,0,28.09V322.21Z"/><path class="cls-2" d="M2.27,149.44c0-12.32,8.74-22.3,19.52-22.3H533.21a17.91,17.91,0,0,1,11.66,4.41,18.36,18.36,0,0,0-13.93-6.69H19.52c-10.78,0-19.52,10-19.52,22.3v182.6A42.45,42.45,0,0,1,2.27,322Z"/><path class="cls-2" d="M2.27,350.3a224.42,224.42,0,0,1,0-28.09V322A42.45,42.45,0,0,0,0,329.77v31.51a25.07,25.07,0,0,0,1.3,8c.36-2.26.69-4.54,1-6.83Z"/><path class="cls-2" d="M2.27,322v.23l0-.28Z"/><path class="cls-2" d="M4.13,341.14c-.11-10,.44-16.94.44-16.94A42.3,42.3,0,0,0,2.27,332V350.3c.15,2.33.34,4.73.59,7.16C3.45,351.93,3.86,346.42,4.13,341.14Z"/><path class="cls-2" d="M2.27,350.3v12.14q.32-2.49.59-5C2.61,355,2.42,352.63,2.27,350.3Z"/><path class="cls-3" d="M535,126.78H23.6c-10.78,0-19.52,10-19.52,22.3V328.31L3.87,331v34.69s-2.39,9.69,4.33,14.86c3.47,3.59,10.35,5,15.4,5H535c10.78,0,19.52-10,19.52-22.3V149.09C554.53,136.77,545.79,126.78,535,126.78ZM127.7,158.47a12.74,12.74,0,1,1,12.69-12.74A12.71,12.71,0,0,1,127.7,158.47Zm303.21,0a12.74,12.74,0,1,1,12.69-12.74A12.71,12.71,0,0,1,430.91,158.47Z"/><path class="cls-4" d="M137.73,137.77a13.49,13.49,0,1,0-4.3,18.59A13.49,13.49,0,0,0,137.73,137.77ZM118.22,150a9.51,9.51,0,1,1,13.11,3A9.51,9.51,0,0,1,118.22,150Z"/><path class="cls-5" d="M137.48,137.52a13.49,13.49,0,1,0-4.3,18.59A13.49,13.49,0,0,0,137.48,137.52ZM118,149.7a9.51,9.51,0,1,1,13.11,3A9.51,9.51,0,0,1,118,149.7Z"/><path class="cls-4" d="M441.29,137.77a13.49,13.49,0,1,0-4.3,18.59A13.49,13.49,0,0,0,441.29,137.77ZM421.77,150a9.51,9.51,0,1,1,13.11,3A9.51,9.51,0,0,1,421.77,150Z"/><path class="cls-6" d="M441,137.52a13.49,13.49,0,1,0-4.3,18.59A13.49,13.49,0,0,0,441,137.52ZM421.52,149.7a9.51,9.51,0,1,1,13.11,3A9.51,9.51,0,0,1,421.52,149.7Z"/><ellipse class="cls-7" cx="148.44" cy="118.17" rx="3.37" ry="3.75" transform="translate(-41.03 108.18) rotate(-35.5)"/><ellipse class="cls-8" cx="143.13" cy="121.96" rx="3.37" ry="3.75" transform="translate(-44.23 105.86) rotate(-35.52)"/><ellipse class="cls-9" cx="137.82" cy="125.75" rx="3.37" ry="3.75" transform="matrix(0.81, -0.58, 0.58, 0.81, -47.41, 103.42)"/><ellipse class="cls-10" cx="132.5" cy="129.54" rx="3.37" ry="3.75" transform="translate(-50.6 101.05) rotate(-35.51)"/><ellipse class="cls-11" cx="238.3" cy="54.05" rx="3.37" ry="3.75" transform="translate(12.92 148.45) rotate(-35.5)"/><ellipse class="cls-12" cx="232.99" cy="57.84" rx="3.37" ry="3.75" transform="translate(9.74 146.09) rotate(-35.51)"/><ellipse class="cls-13" cx="227.68" cy="61.63" rx="3.37" ry="3.75" transform="matrix(0.81, -0.58, 0.58, 0.81, 6.55, 143.73)"/><ellipse class="cls-14" cx="217.05" cy="69.21" rx="3.37" ry="3.75" transform="translate(0.16 138.94) rotate(-35.51)"/><ellipse class="cls-15" cx="222.37" cy="65.42" rx="3.37" ry="3.75" transform="translate(3.35 141.31) rotate(-35.5)"/><ellipse class="cls-16" cx="211.74" cy="73" rx="3.37" ry="3.75" transform="translate(-3.03 136.53) rotate(-35.5)"/><ellipse class="cls-17" cx="206.43" cy="76.79" rx="3.37" ry="3.75" transform="matrix(0.81, -0.58, 0.58, 0.81, -6.21, 134.2)"/><ellipse class="cls-18" cx="201.12" cy="80.59" rx="3.37" ry="3.75" transform="translate(-9.41 131.79) rotate(-35.5)"/><ellipse class="cls-19" cx="195.81" cy="84.38" rx="3.37" ry="3.75" transform="translate(-12.59 129.42) rotate(-35.51)"/><ellipse class="cls-20" cx="190.49" cy="88.17" rx="3.37" ry="3.75" transform="translate(-15.77 127.1) rotate(-35.53)"/><ellipse class="cls-21" cx="179.87" cy="95.75" rx="3.37" ry="3.75" transform="translate(-22.16 122.29) rotate(-35.51)"/><ellipse class="cls-22" cx="185.18" cy="91.96" rx="3.37" ry="3.75" transform="translate(-18.97 124.68) rotate(-35.52)"/><ellipse class="cls-23" cx="174.56" cy="99.54" rx="3.37" ry="3.75" transform="translate(-25.35 119.88) rotate(-35.5)"/><ellipse class="cls-24" cx="169.25" cy="103.33" rx="3.37" ry="3.75" transform="translate(-28.54 117.51) rotate(-35.5)"/><ellipse class="cls-25" cx="163.79" cy="107.22" rx="3.37" ry="3.75" transform="matrix(0.81, -0.58, 0.58, 0.81, -31.82, 115.09)"/><ellipse class="cls-26" cx="158.48" cy="111.01" rx="3.37" ry="3.75" transform="translate(-35.01 112.73) rotate(-35.52)"/><ellipse class="cls-27" cx="153.16" cy="114.8" rx="3.37" ry="3.75" transform="translate(-38.2 110.34) rotate(-35.52)"/><ellipse class="cls-28" cx="271.15" cy="30.85" rx="3.37" ry="3.75" transform="translate(32.51 163.23) rotate(-35.51)"/><ellipse class="cls-29" cx="276.46" cy="27.06" rx="3.37" ry="3.75" transform="translate(35.68 165.58) rotate(-35.5)"/><ellipse class="cls-30" cx="265.84" cy="34.64" rx="3.37" ry="3.75" transform="translate(29.31 160.82) rotate(-35.5)"/><ellipse class="cls-31" cx="260.52" cy="38.43" rx="3.37" ry="3.75" transform="translate(26.13 158.47) rotate(-35.51)"/><ellipse class="cls-32" cx="255.07" cy="42.33" rx="3.37" ry="3.75" transform="translate(22.86 156.03) rotate(-35.51)"/><ellipse class="cls-33" cx="249.75" cy="46.12" rx="3.37" ry="3.75" transform="matrix(0.81, -0.58, 0.58, 0.81, 19.67, 153.66)"/><ellipse class="cls-34" cx="244.44" cy="49.91" rx="3.37" ry="3.75" transform="translate(16.47 151.25) rotate(-35.5)"/><ellipse class="cls-35" cx="409.55" cy="118.17" rx="3.75" ry="3.37" transform="translate(75.47 382.91) rotate(-54.49)"/><ellipse class="cls-36" cx="414.86" cy="121.96" rx="3.75" ry="3.37" transform="translate(74.56 388.76) rotate(-54.48)"/><ellipse class="cls-37" cx="420.17" cy="125.75" rx="3.75" ry="3.37" transform="translate(73.81 394.8) rotate(-54.5)"/><ellipse class="cls-38" cx="425.48" cy="129.54" rx="3.75" ry="3.37" transform="translate(72.9 400.66) rotate(-54.49)"/><ellipse class="cls-39" cx="319.69" cy="54.05" rx="3.75" ry="3.37" transform="translate(90.02 282.91) rotate(-54.5)"/><ellipse class="cls-40" cx="325" cy="57.84" rx="3.75" ry="3.37" transform="translate(89.16 288.82) rotate(-54.5)"/><ellipse class="cls-41" cx="330.31" cy="61.63" rx="3.75" ry="3.37" transform="translate(88.26 294.69) rotate(-54.48)"/><ellipse class="cls-42" cx="340.93" cy="69.21" rx="3.75" ry="3.37" transform="translate(86.54 306.52) rotate(-54.49)"/><ellipse class="cls-43" cx="335.62" cy="65.42" rx="3.75" ry="3.37" transform="matrix(0.58, -0.81, 0.81, 0.58, 87.45, 300.65)"/><ellipse class="cls-44" cx="346.25" cy="73" rx="3.75" ry="3.37" transform="translate(85.75 312.49) rotate(-54.5)"/><ellipse class="cls-45" cx="351.56" cy="76.79" rx="3.75" ry="3.37" transform="translate(84.84 318.35) rotate(-54.49)"/><ellipse class="cls-46" cx="356.87" cy="80.59" rx="3.75" ry="3.37" transform="translate(84.03 324.33) rotate(-54.5)"/><ellipse class="cls-47" cx="362.18" cy="84.38" rx="3.75" ry="3.37" transform="translate(83.13 330.19) rotate(-54.49)"/><ellipse class="cls-48" cx="367.5" cy="88.17" rx="3.75" ry="3.37" transform="translate(82.23 336.06) rotate(-54.48)"/><ellipse class="cls-49" cx="378.12" cy="95.75" rx="3.75" ry="3.37" transform="translate(80.55 347.92) rotate(-54.49)"/><ellipse class="cls-50" cx="372.81" cy="91.96" rx="3.75" ry="3.37" transform="translate(81.42 342.02) rotate(-54.49)"/><ellipse class="cls-51" cx="383.43" cy="99.54" rx="3.75" ry="3.37" transform="translate(79.75 353.91) rotate(-54.5)"/><ellipse class="cls-52" cx="388.74" cy="103.33" rx="3.75" ry="3.37" transform="translate(78.86 359.78) rotate(-54.5)"/><ellipse class="cls-53" cx="394.2" cy="107.22" rx="3.75" ry="3.37" transform="translate(77.94 365.81) rotate(-54.49)"/><ellipse class="cls-54" cx="399.51" cy="111.01" rx="3.75" ry="3.37" transform="translate(77.02 371.65) rotate(-54.47)"/><ellipse class="cls-55" cx="404.83" cy="114.8" rx="3.75" ry="3.37" transform="translate(76.23 377.65) rotate(-54.49)"/><ellipse class="cls-56" cx="286.84" cy="30.85" rx="3.75" ry="3.37" transform="translate(95.12 246.43) rotate(-54.49)"/><ellipse class="cls-57" cx="281.53" cy="27.06" rx="3.75" ry="3.37" transform="translate(96.01 240.54) rotate(-54.5)"/><ellipse class="cls-58" cx="292.15" cy="34.64" rx="3.75" ry="3.37" transform="translate(94.26 252.34) rotate(-54.49)"/><ellipse class="cls-59" cx="297.46" cy="38.43" rx="3.75" ry="3.37" transform="translate(93.4 258.25) rotate(-54.49)"/><ellipse class="cls-60" cx="302.92" cy="42.33" rx="3.75" ry="3.37" transform="translate(92.54 264.34) rotate(-54.5)"/><ellipse class="cls-61" cx="308.23" cy="46.12" rx="3.75" ry="3.37" transform="translate(91.62 270.2) rotate(-54.48)"/><ellipse class="cls-62" cx="313.55" cy="49.91" rx="3.75" ry="3.37" transform="translate(90.8 276.15) rotate(-54.49)"/><circle class="cls-63" cx="279.44" cy="31.46" r="31.46"/><circle class="cls-64" cx="279.44" cy="31.46" r="22.72"/><path class="cls-65" d="M277.25,10S255.4,11.8,259.34,37.14a25.56,25.56,0,0,0,2.19,5.68S267.2,20.54,277.25,10Z"/><path class="cls-66" d="M300.41,34.08s-3.06,20.1-23.16,18.35C277.25,52.44,295.17,49.81,300.41,34.08Z"/><path class="cls-67" d="M290.36,3.06s24.91,7.87,17.48,39.33C307.84,42.39,313.52,16.61,290.36,3.06Z"/><path class="cls-68" d="M125.65,320.57a99,99,0,0,1-24.29-2.67,123.65,123.65,0,0,1-19.44-6.63V282.67h2.75a67.6,67.6,0,0,0,20,11.8,59.74,59.74,0,0,0,21.17,4.12,54.23,54.23,0,0,0,6.83-.57,23.79,23.79,0,0,0,6.83-1.78,15.06,15.06,0,0,0,5.33-3.84A9.46,9.46,0,0,0,147,285.9a9,9,0,0,0-3.56-7.35,22.73,22.73,0,0,0-8.49-4.12q-6.14-1.62-13.13-3.07a105.48,105.48,0,0,1-13.05-3.56q-14-4.93-20-13.25T82.66,233.7q0-16.89,14.3-27.36t35.72-10.47a106.08,106.08,0,0,1,21.38,2.18,93.52,93.52,0,0,1,19,5.9v27.48h-2.67a59.92,59.92,0,0,0-16.36-9.7,51.84,51.84,0,0,0-19.84-4,40.51,40.51,0,0,0-7.11.57,27.22,27.22,0,0,0-6.63,2.18,13.43,13.43,0,0,0-4.89,3.84,8.84,8.84,0,0,0-2.06,5.7,9,9,0,0,0,3.27,7.31q3.27,2.71,12.65,4.89l11.68,2.67a110.43,110.43,0,0,1,12,3.56q12.53,4.53,18.63,12.16t6.1,20.16q0,17.94-14.1,28.85T125.65,320.57Z"/><path class="cls-68" d="M241.71,308.78l-5.21,4.36a31.6,31.6,0,0,1-6.18,3.88,41.53,41.53,0,0,1-7.39,2.83,40.63,40.63,0,0,1-10.06,1q-12,0-20-8.08t-8-20.36q0-10.1,4-16.33a27.74,27.74,0,0,1,11.64-9.86A60.93,60.93,0,0,1,218.92,261q10.67-1.45,23-2.26v-.49q0-7.52-5.54-10.38T219.72,245A45.65,45.65,0,0,0,208,246.83a91,91,0,0,0-13.09,4.65h-2.42v-21.9q4.2-1.21,13.58-2.87A108.47,108.47,0,0,1,225,225q23.44,0,34.14,7.8t10.71,23.8v61.74H241.71Zm0-14.06V275.8q-7.19.73-11.64,1.25a39.56,39.56,0,0,0-8.73,2.06,12.23,12.23,0,0,0-5.78,3.92,11,11,0,0,0-2.06,7q0,6.39,3.43,8.77t10.14,2.38a18.87,18.87,0,0,0,7.6-1.7A23.5,23.5,0,0,0,241.71,294.71Z"/><path class="cls-68" d="M319,318.39H290.76V192.64H319Z"/><path class="cls-68" d="M387.18,320.82q-25.7,0-39.4-12.29t-13.7-35q0-22.22,12.77-35.48t35.72-13.25q20.85,0,31.36,11.23t10.51,32.17v10.18h-62a25.83,25.83,0,0,0,2.67,10.55,18.42,18.42,0,0,0,6,6.75,24.11,24.11,0,0,0,8.48,3.6,48.23,48.23,0,0,0,10.59,1.09,43.33,43.33,0,0,0,9.7-1.09,46.62,46.62,0,0,0,8.73-2.87A57.13,57.13,0,0,0,415,293.1q2.95-1.78,4.81-3.15h3V313.3q-3.47,1.38-6.34,2.55a57.4,57.4,0,0,1-7.88,2.38,82.34,82.34,0,0,1-9.5,1.9A87.67,87.67,0,0,1,387.18,320.82Zm9.38-59.48q-.24-9-4.16-13.66t-12-4.69q-8.24,0-12.89,4.93t-5.13,13.41Z"/><path class="cls-68" d="M472.6,198.06l-3.31,85.67H443.75l-3.31-85.67Zm-.16,120.34H440.6V297.06h31.84Z"/><path class="cls-69" d="M129.45,242.26q-9.38-2.18-12.65-4.89a9,9,0,0,1-3.27-7.31,8.83,8.83,0,0,1,2.06-5.7,13.43,13.43,0,0,1,4.89-3.84,27.22,27.22,0,0,1,6.63-2.18,40.52,40.52,0,0,1,7.11-.57,51.83,51.83,0,0,1,19.84,4,59.91,59.91,0,0,1,16.37,9.7h2.67V204a93.53,93.53,0,0,0-19-5.9,106.07,106.07,0,0,0-21.38-2.18q-21.42,0-35.72,10.47T82.66,233.7q0,12.53,6.06,20.85l.15.19c15-1.59,37.18-3.89,63.8-6.42a109.6,109.6,0,0,0-11.54-3.39Z"/><path class="cls-70" d="M259.12,232.85Q248.41,225,225,225a108.47,108.47,0,0,0-18.91,1.66q-9.37,1.66-13.58,2.87v15.12c22.82-2,47.4-4,72.52-5.81A24.6,24.6,0,0,0,259.12,232.85Z"/><path class="cls-71" d="M290.76,192.64v44.48c9.44-.61,18.88-1.19,28.29-1.72V192.64Z"/><path class="cls-72" d="M351.73,233.76c20-.88,39.5-1.47,57.7-1.67q-10.08-7.28-26.86-7.29Q363.71,224.81,351.73,233.76Z"/><path class="cls-73" d="M440.44,198.06l1.32,34.15c10.57.22,20.46.62,29.47,1.25l1.37-35.4Z"/><path class="cls-74" d="M85.36,226.59s3.24-24.34,46.38-25.54C131.74,201.05,91,210.33,85.36,226.59Z"/><path class="cls-75" d="M292.89,195.63h16.66s-15.38,2.56-16.66,14.09Z"/><path class="cls-76" d="M443.4,200.24h16.66s-15.38,2.56-16.66,14.09Z"/></g></g></svg>