<svg xmlns="http://www.w3.org/2000/svg" xmlns:xlink="http://www.w3.org/1999/xlink" viewBox="0 0 778.65 251.07"><defs><style>.cls-1{fill:none;}.cls-2{clip-path:url(#clip-path);}.cls-3{fill:#eb0000;}.cls-4{fill:#ec0000;}.cls-5{fill:#ed0000;}.cls-6{fill:#ed0100;}.cls-7{fill:#ed0300;}.cls-8{fill:#ed0400;}.cls-9{fill:#ed0500;}.cls-10{fill:#ed0701;}.cls-11{fill:#ed0803;}.cls-12{fill:#ed0903;}.cls-13{fill:#ed0b04;}.cls-14{fill:#ed0c05;}.cls-15{fill:#ef0d05;}.cls-16{fill:#ef0e06;}.cls-17{fill:#ef0f07;}.cls-18{fill:#ef1007;}.cls-19{fill:#ef1208;}.cls-20{fill:#ef1309;}.cls-21{fill:#ef1409;}.cls-22{fill:#ef150b;}.cls-23{fill:#ef160c;}.cls-24{fill:#ef170d;}.cls-25{fill:#f0190d;}.cls-26{fill:#f01a0e;}.cls-27{fill:#f01b0f;}.cls-28{fill:#f01c0f;}.cls-29{fill:#f01d10;}.cls-30{clip-path:url(#clip-path-2);}.cls-31{fill:#f01c10;}.cls-32{fill:#f01b0e;}.cls-33{fill:#ef170c;}.cls-34{fill:#ef140b;}.cls-35{fill:#ef1008;}.cls-36{fill:#ef0d06;}.cls-37{fill:#ef0c05;}.cls-38{fill:#ed0904;}.cls-39{fill:#ed0600;}.cls-40{clip-path:url(#clip-path-3);}.cls-41{fill:#ed0b05;}.cls-42{fill:#ef150c;}.cls-43{fill:#f0170d;}.cls-44{fill:#d30000;}.cls-45{fill:#f4f4f4;}</style><clipPath id="clip-path"><path class="cls-1" d="M1.38,142.56,27.25,78.89,20.16,7.77s73.35,13.71,108.3,7.79L118.18,151.38Z"/></clipPath><clipPath id="clip-path-2"><path class="cls-1" d="M778.55,134.58,751.37,71.46,757,.21S684,15.42,648.89,10.21L662,145.79Z"/></clipPath><clipPath id="clip-path-3"><path class="cls-1" d="M735.51,179.52,714,48.48S493.93,108.58,69,51.77L50.16,185.45S289.54,248.62,735.51,179.52Z"/></clipPath></defs><title>Ресурс 28ribbon</title><g id="Слой_2" data-name="Слой 2"><g id="Layer_1" data-name="Layer 1"><g class="cls-2"><rect class="cls-3" x="93.89" y="6.84" width="35.23" height="144.6" transform="translate(-0.81 1.15) rotate(-0.59)"/><rect class="cls-3" x="91.85" y="7.03" width="2.03" height="144.6" transform="translate(-0.81 0.96) rotate(-0.59)"/><rect class="cls-3" x="89.82" y="7.05" width="2.03" height="144.6" transform="translate(-0.81 0.94) rotate(-0.59)"/><rect class="cls-3" x="87.78" y="7.07" width="2.04" height="144.6" transform="translate(-0.81 0.92) rotate(-0.59)"/><rect class="cls-3" x="85.75" y="7.09" width="2.03" height="144.6" transform="translate(-0.81 0.89) rotate(-0.59)"/><rect class="cls-3" x="83.71" y="7.11" width="2.04" height="144.6" transform="translate(-0.81 0.87) rotate(-0.59)"/><rect class="cls-4" x="81.68" y="7.13" width="2.04" height="144.6" transform="translate(-0.81 0.85) rotate(-0.59)"/><rect class="cls-4" x="79.64" y="7.15" width="2.04" height="144.6" transform="translate(-0.81 0.83) rotate(-0.59)"/><rect class="cls-4" x="77.61" y="7.17" width="2.03" height="144.6" transform="translate(-0.81 0.81) rotate(-0.59)"/><rect class="cls-4" x="75.57" y="7.19" width="2.04" height="144.6" transform="translate(-0.81 0.79) rotate(-0.59)"/><rect class="cls-4" x="73.54" y="7.21" width="2.03" height="144.6" transform="translate(-0.81 0.77) rotate(-0.59)"/><rect class="cls-4" x="71.5" y="7.24" width="2.04" height="144.6" transform="translate(-0.81 0.75) rotate(-0.59)"/><rect class="cls-4" x="69.47" y="7.26" width="2.03" height="144.6" transform="translate(-0.81 0.73) rotate(-0.59)"/><rect class="cls-4" x="67.43" y="7.28" width="2.03" height="144.6" transform="translate(-0.81 0.71) rotate(-0.59)"/><rect class="cls-4" x="65.4" y="7.3" width="2.04" height="144.6" transform="translate(-0.81 0.69) rotate(-0.59)"/><rect class="cls-4" x="63.36" y="7.32" width="2.04" height="144.6" transform="translate(-0.81 0.66) rotate(-0.59)"/><rect class="cls-5" x="61.33" y="7.34" width="2.04" height="144.6" transform="translate(-0.81 0.64) rotate(-0.59)"/><rect class="cls-6" x="59.29" y="7.36" width="2.03" height="144.6" transform="matrix(1, -0.01, 0.01, 1, -0.81, 0.62)"/><rect class="cls-7" x="57.26" y="7.38" width="2.04" height="144.6" transform="translate(-0.81 0.6) rotate(-0.59)"/><rect class="cls-8" x="55.22" y="7.4" width="2.03" height="144.6" transform="translate(-0.81 0.58) rotate(-0.59)"/><rect class="cls-9" x="53.19" y="7.42" width="2.04" height="144.6" transform="translate(-0.82 0.56) rotate(-0.59)"/><rect class="cls-10" x="51.15" y="7.44" width="2.03" height="144.6" transform="translate(-0.82 0.54) rotate(-0.59)"/><rect class="cls-11" x="49.11" y="7.47" width="2.04" height="144.6" transform="translate(-0.82 0.52) rotate(-0.59)"/><rect class="cls-12" x="47.08" y="7.49" width="2.03" height="144.6" transform="translate(-0.82 0.5) rotate(-0.59)"/><rect class="cls-13" x="45.05" y="7.51" width="2.03" height="144.6" transform="translate(-0.82 0.48) rotate(-0.59)"/><rect class="cls-14" x="43.01" y="7.53" width="2.04" height="144.6" transform="translate(-0.82 0.46) rotate(-0.59)"/><rect class="cls-15" x="40.97" y="7.55" width="2.04" height="144.6" transform="translate(-0.82 0.44) rotate(-0.59)"/><rect class="cls-16" x="38.94" y="7.57" width="2.03" height="144.6" transform="translate(-0.82 0.41) rotate(-0.59)"/><rect class="cls-17" x="36.91" y="7.59" width="2.03" height="144.6" transform="translate(-0.82 0.39) rotate(-0.59)"/><rect class="cls-18" x="34.87" y="7.61" width="2.04" height="144.6" transform="translate(-0.82 0.37) rotate(-0.59)"/><rect class="cls-19" x="32.84" y="7.63" width="2.03" height="144.6" transform="translate(-0.82 0.35) rotate(-0.59)"/><rect class="cls-20" x="30.8" y="7.65" width="2.04" height="144.6" transform="translate(-0.82 0.33) rotate(-0.59)"/><rect class="cls-21" x="28.76" y="7.67" width="2.04" height="144.6" transform="translate(-0.82 0.31) rotate(-0.59)"/><rect class="cls-22" x="26.73" y="7.7" width="2.04" height="144.6" transform="translate(-0.82 0.29) rotate(-0.59)"/><rect class="cls-23" x="24.7" y="7.72" width="2.03" height="144.6" transform="matrix(1, -0.01, 0.01, 1, -0.82, 0.27)"/><rect class="cls-24" x="22.66" y="7.74" width="2.04" height="144.6" transform="translate(-0.82 0.25) rotate(-0.59)"/><rect class="cls-25" x="20.62" y="7.76" width="2.04" height="144.61" transform="translate(-0.82 0.23) rotate(-0.59)"/><rect class="cls-26" x="18.59" y="7.78" width="2.04" height="144.6" transform="translate(-0.82 0.21) rotate(-0.59)"/><rect class="cls-27" x="16.55" y="7.8" width="2.03" height="144.6" transform="translate(-0.82 0.18) rotate(-0.59)"/><rect class="cls-28" x="14.52" y="7.82" width="2.03" height="144.6" transform="translate(-0.82 0.16) rotate(-0.59)"/><rect class="cls-29" x="12.48" y="7.84" width="2.04" height="144.6" transform="translate(-0.82 0.14) rotate(-0.59)"/><rect class="cls-29" x="0.74" y="7.91" width="11.74" height="144.6" transform="translate(-0.82 0.07) rotate(-0.59)"/></g><g class="cls-30"><rect class="cls-29" x="769.3" y="0.04" width="8.61" height="144.6" transform="translate(-0.7 7.95) rotate(-0.59)"/><rect class="cls-29" x="766.38" y="0.1" width="2.92" height="144.6" transform="translate(-0.7 7.89) rotate(-0.59)"/><rect class="cls-29" x="763.47" y="0.13" width="2.91" height="144.6" transform="translate(-0.7 7.85) rotate(-0.59)"/><rect class="cls-31" x="760.55" y="0.16" width="2.92" height="144.6" transform="translate(-0.7 7.83) rotate(-0.59)"/><rect class="cls-28" x="757.64" y="0.19" width="2.92" height="144.6" transform="translate(-0.7 7.79) rotate(-0.59)"/><rect class="cls-27" x="754.72" y="0.22" width="2.91" height="144.6" transform="translate(-0.7 7.77) rotate(-0.59)"/><rect class="cls-32" x="751.81" y="0.25" width="2.92" height="144.6" transform="translate(-0.71 7.74) rotate(-0.59)"/><rect class="cls-26" x="748.89" y="0.28" width="2.92" height="144.6" transform="translate(-0.71 7.71) rotate(-0.59)"/><rect class="cls-25" x="745.97" y="0.31" width="2.92" height="144.6" transform="translate(-0.71 7.67) rotate(-0.59)"/><rect class="cls-25" x="743.06" y="0.34" width="2.92" height="144.6" transform="translate(-0.71 7.65) rotate(-0.59)"/><rect class="cls-33" x="740.14" y="0.37" width="2.91" height="144.6" transform="translate(-0.71 7.62) rotate(-0.59)"/><rect class="cls-23" x="737.23" y="0.4" width="2.92" height="144.6" transform="translate(-0.71 7.58) rotate(-0.59)"/><rect class="cls-22" x="734.31" y="0.43" width="2.92" height="144.6" transform="translate(-0.71 7.56) rotate(-0.59)"/><rect class="cls-34" x="731.4" y="0.46" width="2.91" height="144.6" transform="translate(-0.71 7.52) rotate(-0.59)"/><rect class="cls-20" x="728.48" y="0.49" width="2.92" height="144.6" transform="translate(-0.71 7.5) rotate(-0.59)"/><rect class="cls-19" x="725.56" y="0.52" width="2.92" height="144.61" transform="translate(-0.71 7.47) rotate(-0.59)"/><rect class="cls-35" x="722.65" y="0.55" width="2.91" height="144.6" transform="translate(-0.71 7.43) rotate(-0.59)"/><rect class="cls-17" x="719.73" y="0.58" width="2.92" height="144.6" transform="translate(-0.71 7.41) rotate(-0.59)"/><rect class="cls-16" x="716.82" y="0.61" width="2.92" height="144.61" transform="translate(-0.71 7.38) rotate(-0.59)"/><rect class="cls-36" x="713.9" y="0.64" width="2.92" height="144.6" transform="translate(-0.71 7.35) rotate(-0.59)"/><rect class="cls-37" x="710.98" y="0.67" width="2.92" height="144.6" transform="translate(-0.71 7.31) rotate(-0.59)"/><rect class="cls-13" x="708.07" y="0.7" width="2.91" height="144.6" transform="translate(-0.71 7.29) rotate(-0.59)"/><rect class="cls-38" x="705.15" y="0.73" width="2.92" height="144.6" transform="translate(-0.71 7.25) rotate(-0.59)"/><rect class="cls-11" x="702.24" y="0.76" width="2.92" height="144.6" transform="translate(-0.71 7.23) rotate(-0.59)"/><rect class="cls-10" x="699.32" y="0.79" width="2.91" height="144.6" transform="translate(-0.71 7.2) rotate(-0.59)"/><rect class="cls-39" x="696.41" y="0.82" width="2.92" height="144.6" transform="translate(-0.71 7.16) rotate(-0.59)"/><rect class="cls-8" x="693.49" y="0.85" width="2.92" height="144.6" transform="translate(-0.71 7.14) rotate(-0.59)"/><rect class="cls-7" x="690.58" y="0.88" width="2.92" height="144.6" transform="translate(-0.71 7.11) rotate(-0.59)"/><rect class="cls-6" x="687.66" y="0.91" width="2.92" height="144.6" transform="translate(-0.72 7.08) rotate(-0.59)"/><rect class="cls-4" x="684.75" y="0.94" width="2.91" height="144.6" transform="translate(-0.72 7.05) rotate(-0.59)"/><rect class="cls-4" x="681.83" y="0.97" width="2.92" height="144.6" transform="translate(-0.72 7.02) rotate(-0.59)"/><rect class="cls-4" x="678.91" y="1" width="2.92" height="144.6" transform="translate(-0.72 6.99) rotate(-0.59)"/><rect class="cls-4" x="676" y="1.03" width="2.91" height="144.6" transform="translate(-0.72 6.96) rotate(-0.59)"/><rect class="cls-4" x="673.08" y="1.06" width="2.92" height="144.6" transform="translate(-0.72 6.92) rotate(-0.59)"/><rect class="cls-4" x="670.17" y="1.09" width="2.92" height="144.6" transform="translate(-0.72 6.9) rotate(-0.59)"/><rect class="cls-4" x="667.25" y="1.12" width="2.91" height="144.6" transform="translate(-0.72 6.86) rotate(-0.59)"/><rect class="cls-4" x="664.34" y="1.15" width="2.92" height="144.6" transform="translate(-0.72 6.84) rotate(-0.59)"/><rect class="cls-3" x="661.42" y="1.18" width="2.92" height="144.6" transform="translate(-0.72 6.81) rotate(-0.59)"/><rect class="cls-3" x="658.5" y="1.21" width="2.92" height="144.6" transform="translate(-0.72 6.77) rotate(-0.59)"/><rect class="cls-3" x="655.59" y="1.24" width="2.92" height="144.6" transform="translate(-0.72 6.75) rotate(-0.59)"/><rect class="cls-3" x="652.67" y="1.27" width="2.91" height="144.6" transform="translate(-0.72 6.71) rotate(-0.59)"/><rect class="cls-3" x="649.54" y="1.3" width="3.13" height="144.6" transform="translate(-0.72 6.68) rotate(-0.59)"/></g><g class="cls-40"><path class="cls-3" d="M736.17,244l-2-199.1Z"/><rect class="cls-3" x="725.54" y="44.98" width="9.61" height="199.11" transform="translate(-1.45 7.51) rotate(-0.59)"/><rect class="cls-3" x="715.93" y="45.08" width="9.61" height="199.11" transform="translate(-1.45 7.41) rotate(-0.59)"/><rect class="cls-3" x="706.32" y="45.18" width="9.61" height="199.11" transform="translate(-1.45 7.3) rotate(-0.59)"/><rect class="cls-3" x="696.7" y="45.28" width="9.61" height="199.11" transform="translate(-1.45 7.21) rotate(-0.59)"/><rect class="cls-4" x="687.09" y="45.38" width="9.61" height="199.11" transform="translate(-1.45 7.11) rotate(-0.59)"/><rect class="cls-4" x="677.48" y="45.47" width="9.61" height="199.11" transform="translate(-1.45 7.01) rotate(-0.59)"/><rect class="cls-4" x="667.87" y="45.57" width="9.61" height="199.11" transform="translate(-1.45 6.91) rotate(-0.59)"/><rect class="cls-4" x="658.26" y="45.67" width="9.61" height="199.11" transform="translate(-1.46 6.81) rotate(-0.59)"/><rect class="cls-4" x="648.65" y="45.77" width="9.61" height="199.11" transform="translate(-1.46 6.71) rotate(-0.59)"/><rect class="cls-4" x="639.04" y="45.87" width="9.61" height="199.11" transform="translate(-1.46 6.62) rotate(-0.59)"/><rect class="cls-4" x="629.42" y="45.97" width="9.61" height="199.11" transform="translate(-1.46 6.52) rotate(-0.59)"/><rect class="cls-5" x="619.81" y="46.07" width="9.61" height="199.11" transform="translate(-1.46 6.42) rotate(-0.59)"/><rect class="cls-6" x="610.2" y="46.16" width="9.61" height="199.11" transform="translate(-1.46 6.32) rotate(-0.59)"/><rect class="cls-8" x="600.59" y="46.26" width="9.61" height="199.11" transform="translate(-1.47 6.22) rotate(-0.59)"/><rect class="cls-9" x="590.98" y="46.36" width="9.61" height="199.11" transform="translate(-1.47 6.12) rotate(-0.59)"/><rect class="cls-39" x="581.37" y="46.46" width="9.61" height="199.11" transform="translate(-1.47 6.02) rotate(-0.59)"/><rect class="cls-10" x="571.76" y="46.56" width="9.61" height="199.11" transform="translate(-1.47 5.93) rotate(-0.59)"/><rect class="cls-11" x="562.14" y="46.66" width="9.61" height="199.11" transform="translate(-1.47 5.83) rotate(-0.59)"/><rect class="cls-38" x="552.53" y="46.76" width="9.61" height="199.11" transform="translate(-1.47 5.73) rotate(-0.59)"/><rect class="cls-41" x="542.92" y="46.86" width="9.61" height="199.11" transform="translate(-1.47 5.63) rotate(-0.59)"/><rect class="cls-15" x="533.31" y="46.95" width="9.61" height="199.11" transform="translate(-1.48 5.53) rotate(-0.59)"/><rect class="cls-16" x="523.7" y="47.05" width="9.61" height="199.11" transform="translate(-1.48 5.43) rotate(-0.59)"/><rect class="cls-17" x="514.09" y="47.15" width="9.61" height="199.11" transform="translate(-1.48 5.33) rotate(-0.59)"/><rect class="cls-18" x="504.48" y="47.25" width="9.61" height="199.11" transform="translate(-1.48 5.24) rotate(-0.59)"/><rect class="cls-19" x="494.86" y="47.35" width="9.61" height="199.11" transform="translate(-1.48 5.13) rotate(-0.59)"/><rect class="cls-20" x="485.25" y="47.45" width="9.61" height="199.11" transform="translate(-1.48 5.04) rotate(-0.59)"/><rect class="cls-21" x="475.64" y="47.55" width="9.61" height="199.11" transform="translate(-1.48 4.94) rotate(-0.59)"/><rect class="cls-34" x="466.03" y="47.65" width="9.61" height="199.11" transform="translate(-1.49 4.84) rotate(-0.59)"/><rect class="cls-42" x="456.42" y="47.74" width="9.61" height="199.11" transform="matrix(1, -0.01, 0.01, 1, -1.49, 4.74)"/><rect class="cls-23" x="446.81" y="47.84" width="9.61" height="199.11" transform="translate(-1.49 4.64) rotate(-0.59)"/><rect class="cls-43" x="437.2" y="47.94" width="9.61" height="199.11" transform="matrix(1, -0.01, 0.01, 1, -1.49, 4.55)"/><rect class="cls-25" x="427.58" y="48.04" width="9.61" height="199.11" transform="translate(-1.49 4.44) rotate(-0.59)"/><rect class="cls-26" x="417.97" y="48.14" width="9.61" height="199.11" transform="translate(-1.49 4.35) rotate(-0.59)"/><rect class="cls-26" x="408.36" y="48.24" width="9.61" height="199.11" transform="matrix(1, -0.01, 0.01, 1, -1.5, 4.25)"/><rect class="cls-27" x="398.75" y="48.34" width="9.61" height="199.11" transform="matrix(1, -0.01, 0.01, 1, -1.5, 4.15)"/><rect class="cls-27" x="389.14" y="48.43" width="9.61" height="199.11" transform="translate(-1.5 4.05) rotate(-0.59)"/><rect class="cls-28" x="379.53" y="48.53" width="9.61" height="199.11" transform="translate(-1.5 3.95) rotate(-0.59)"/><rect class="cls-31" x="369.92" y="48.63" width="9.61" height="199.11" transform="translate(-1.5 3.85) rotate(-0.59)"/><rect class="cls-29" x="360.31" y="48.73" width="9.61" height="199.11" transform="translate(-1.5 3.76) rotate(-0.59)"/><rect class="cls-29" x="350.69" y="48.83" width="9.61" height="199.11" transform="translate(-1.5 3.66) rotate(-0.59)"/><rect class="cls-29" x="343.17" y="48.92" width="7.52" height="199.11" transform="translate(-1.51 3.57) rotate(-0.59)"/><rect class="cls-29" x="335.65" y="48.99" width="7.52" height="199.11" transform="translate(-1.51 3.49) rotate(-0.59)"/><rect class="cls-31" x="328.13" y="49.07" width="7.52" height="199.11" transform="translate(-1.51 3.41) rotate(-0.59)"/><rect class="cls-28" x="320.61" y="49.15" width="7.52" height="199.11" transform="translate(-1.51 3.34) rotate(-0.59)"/><rect class="cls-27" x="313.08" y="49.23" width="7.52" height="199.11" transform="translate(-1.51 3.26) rotate(-0.59)"/><rect class="cls-32" x="305.56" y="49.3" width="7.52" height="199.11" transform="translate(-1.51 3.18) rotate(-0.59)"/><rect class="cls-26" x="298.04" y="49.38" width="7.52" height="199.11" transform="translate(-1.51 3.11) rotate(-0.59)"/><rect class="cls-25" x="290.52" y="49.46" width="7.52" height="199.11" transform="translate(-1.51 3.03) rotate(-0.59)"/><rect class="cls-25" x="283" y="49.53" width="7.52" height="199.11" transform="translate(-1.51 2.95) rotate(-0.59)"/><rect class="cls-33" x="275.48" y="49.61" width="7.52" height="199.11" transform="matrix(1, -0.01, 0.01, 1, -1.52, 2.87)"/><rect class="cls-23" x="267.95" y="49.69" width="7.52" height="199.11" transform="translate(-1.52 2.8) rotate(-0.59)"/><rect class="cls-22" x="260.43" y="49.77" width="7.52" height="199.11" transform="translate(-1.52 2.72) rotate(-0.59)"/><rect class="cls-34" x="252.91" y="49.84" width="7.52" height="199.11" transform="translate(-1.52 2.64) rotate(-0.59)"/><rect class="cls-20" x="245.39" y="49.92" width="7.52" height="199.11" transform="translate(-1.52 2.57) rotate(-0.59)"/><rect class="cls-19" x="237.86" y="50" width="7.52" height="199.11" transform="translate(-1.52 2.49) rotate(-0.59)"/><rect class="cls-35" x="230.34" y="50.07" width="7.52" height="199.11" transform="translate(-1.52 2.41) rotate(-0.59)"/><rect class="cls-17" x="222.82" y="50.15" width="7.52" height="199.11" transform="translate(-1.52 2.33) rotate(-0.59)"/><rect class="cls-16" x="215.3" y="50.23" width="7.52" height="199.11" transform="translate(-1.53 2.26) rotate(-0.59)"/><rect class="cls-36" x="207.78" y="50.31" width="7.52" height="199.11" transform="translate(-1.53 2.18) rotate(-0.59)"/><rect class="cls-37" x="200.26" y="50.38" width="7.52" height="199.11" transform="translate(-1.53 2.1) rotate(-0.59)"/><rect class="cls-13" x="192.73" y="50.46" width="7.52" height="199.11" transform="translate(-1.53 2.02) rotate(-0.59)"/><rect class="cls-38" x="185.21" y="50.54" width="7.52" height="199.11" transform="matrix(1, -0.01, 0.01, 1, -1.53, 1.95)"/><rect class="cls-11" x="177.69" y="50.61" width="7.52" height="199.11" transform="translate(-1.53 1.87) rotate(-0.59)"/><rect class="cls-10" x="170.17" y="50.69" width="7.52" height="199.11" transform="translate(-1.53 1.79) rotate(-0.59)"/><rect class="cls-39" x="162.64" y="50.77" width="7.52" height="199.11" transform="translate(-1.53 1.72) rotate(-0.59)"/><rect class="cls-8" x="155.12" y="50.85" width="7.52" height="199.11" transform="matrix(1, -0.01, 0.01, 1, -1.54, 1.64)"/><rect class="cls-7" x="147.6" y="50.92" width="7.52" height="199.11" transform="translate(-1.54 1.56) rotate(-0.59)"/><rect class="cls-6" x="140.08" y="51" width="7.52" height="199.11" transform="translate(-1.54 1.48) rotate(-0.59)"/><rect class="cls-4" x="132.56" y="51.08" width="7.52" height="199.11" transform="translate(-1.54 1.41) rotate(-0.59)"/><rect class="cls-4" x="125.04" y="51.16" width="7.52" height="199.11" transform="translate(-1.54 1.33) rotate(-0.59)"/><rect class="cls-4" x="117.51" y="51.23" width="7.52" height="199.11" transform="translate(-1.54 1.25) rotate(-0.59)"/><rect class="cls-4" x="109.99" y="51.31" width="7.52" height="199.11" transform="translate(-1.54 1.18) rotate(-0.59)"/><rect class="cls-4" x="102.47" y="51.39" width="7.52" height="199.11" transform="translate(-1.54 1.1) rotate(-0.59)"/><rect class="cls-4" x="94.95" y="51.46" width="7.52" height="199.11" transform="translate(-1.55 1.02) rotate(-0.59)"/><rect class="cls-4" x="87.43" y="51.54" width="7.52" height="199.11" transform="translate(-1.55 0.94) rotate(-0.59)"/><rect class="cls-4" x="79.9" y="51.62" width="7.52" height="199.11" transform="matrix(1, -0.01, 0.01, 1, -1.55, 0.87)"/><rect class="cls-3" x="72.38" y="51.7" width="7.52" height="199.11" transform="translate(-1.55 0.79) rotate(-0.59)"/><rect class="cls-3" x="64.86" y="51.77" width="7.52" height="199.11" transform="translate(-1.55 0.71) rotate(-0.59)"/><rect class="cls-3" x="57.34" y="51.85" width="7.52" height="199.11" transform="translate(-1.55 0.64) rotate(-0.59)"/><rect class="cls-3" x="49.82" y="51.93" width="7.52" height="199.11" transform="translate(-1.55 0.56) rotate(-0.59)"/><path class="cls-3" d="M48.79,52l2,199.1Z"/></g><path class="cls-44" d="M69,51.77l60-36.21-3.5,43.86S76.94,54.46,69,51.77Z"/><path class="cls-44" d="M713.48,49,648.36,10.22,653,59.83S705.55,51.9,713.48,49Z"/><path class="cls-45" d="M53.23,176.87,60,178.28l-.3,1.64-6.79-1.41Zm9.39,1.94c3.44.69,7,1.38,10.44,2l-.28,1.64c-3.49-.67-7-1.36-10.46-2Zm670.62-5.59.27,1.65s-3.73.66-10.53,1.76l-.24-1.65C729.51,173.88,733.2,173.23,733.23,173.22ZM75.68,181.35c3.44.65,7,1.29,10.46,1.91l-.26,1.65c-3.51-.62-7-1.27-10.48-1.92Zm644.43-5.95.24,1.65c-3.34.53-6.87,1.08-10.51,1.64L709.6,177C713.24,176.48,716.78,175.93,720.11,175.4ZM88.76,183.72c3.45.6,7,1.2,10.48,1.78L99,187.15c-3.51-.58-7-1.18-10.49-1.79ZM707,177.43l.23,1.65-10.52,1.56-.22-1.65Q702.12,178.16,707,177.43Zm-13.14,1.94.22,1.65-10.53,1.49-.21-1.66Q688.86,180.08,693.84,179.37Zm-592,6.57c3.48.57,7,1.13,10.5,1.66l-.23,1.65c-3.49-.54-7-1.1-10.51-1.66Zm578.82-4.73.21,1.65-10.54,1.42-.2-1.65ZM115,188c3.47.53,7,1,10.51,1.54l-.21,1.65c-3.51-.5-7-1-10.53-1.55Zm552.54-5,.2,1.66L657.19,186l-.19-1.66Zm-539.39,6.94c3.46.48,7,1,10.53,1.43l-.2,1.66c-3.53-.46-7.07-.95-10.54-1.43Zm526.23-5.25.19,1.66L644,187.63l-.18-1.66Zm-13.17,1.62.18,1.66-10.55,1.25-.18-1.66ZM141.3,191.69c3.47.45,7,.89,10.54,1.32l-.18,1.66c-3.53-.43-7.08-.87-10.55-1.32ZM628,187.83l.17,1.66-10.56,1.19-.17-1.66Zm-473.54,5.5c3.49.42,7,.83,10.55,1.22l-.17,1.66c-3.51-.39-7.06-.8-10.56-1.22Zm460.35-4L615,191l-10.56,1.13-.16-1.66Zm-447.16,5.52c3.47.38,7,.76,10.56,1.12l-.15,1.66c-3.54-.36-7.09-.73-10.57-1.12Zm434-4.11.16,1.66-10.57,1.08-.15-1.66Zm-420.77,5.49c3.5.35,7.05.69,10.56,1l-.14,1.66c-3.51-.33-7.07-.67-10.57-1Zm407.57-4.15.15,1.66-10.57,1-.15-1.66Zm-13.21,1.28.14,1.66-10.58,1-.14-1.66Zm-381.16,4.13c3.48.32,7,.63,10.57.92l-.12,1.66c-3.54-.29-7.1-.61-10.58-.92ZM562,194.55l.14,1.66-10.58.92-.13-1.66Zm-354.73,4.06c3.46.28,7,.56,10.58.83l-.11,1.66c-3.56-.27-7.12-.54-10.59-.83Zm341.52-2.92.13,1.66-10.58.87-.12-1.66Zm-328.3,3.94q5.29.39,10.58.74L231,202q-5.29-.35-10.59-.74Zm315.08-2.87.12,1.66-10.59.81-.11-1.66Zm-301.85,3.78q5.29.34,10.58.65l-.09,1.67q-5.29-.31-10.59-.65Zm288.63-2.78.11,1.66-10.59.76-.1-1.67Zm-275.4,3.58q5.3.3,10.58.57l-.08,1.67q-5.29-.27-10.6-.57Zm262.17-2.65.1,1.67-10.59.7-.1-1.67Zm-13.24.87.1,1.66-10.6.64-.09-1.66ZM260.17,202q5.3.26,10.59.48l-.06,1.67q-5.29-.23-10.6-.48Zm222.46-1.68.09,1.67-10.6.59L472,201ZM273.4,202.64q5.3.22,10.59.4l-.05,1.67-10.6-.4Zm196-1.55.08,1.67-10.6.53-.07-1.67Zm-182.76,2,10.59.33,0,1.67q-5.29-.15-10.6-.33Zm169.51-1.39.07,1.67-10.61.47-.06-1.67Zm-156.28,1.79q5.3.14,10.59.25l0,1.67q-5.29-.11-10.6-.25Zm143-1.21L443,204l-10.61.41-.06-1.67Zm-129.8,1.52q5.3.1,10.59.18l0,1.67q-5.29-.08-10.6-.18Zm116.55-1,.06,1.67-10.61.35,0-1.67Zm-103.32,1.23,10.59.11v1.67q-5.28,0-10.59-.11Zm90.06-.8,0,1.67-10.61.29,0-1.67Zm-76.83.92q5.31,0,10.58,0v1.67q-5.28,0-10.59,0Zm63.58-.57,0,1.67-10.61.23,0-1.67Zm-50.35.61,10.58,0v1.67l-10.59,0Zm37.1-.33,0,1.67-10.61.16,0-1.67Zm-23.86.29,7.79-.07,2.82,0,0,1.67-2.82,0-7.79.07Z"/><path class="cls-45" d="M69.23,55l10.51,1.52-.21,1.65L69,56.64Zm13.13,1.89,10.51,1.47L92.67,60,82.15,58.54ZM712.8,51.65l.44,1.6S709.7,54.31,702.91,56l-.36-1.62C709.3,52.69,712.77,51.66,712.8,51.65ZM95.5,58.72,106,60.14l-.2,1.65L95.3,60.37Zm13.15,1.77,10.53,1.37L119,63.52l-10.53-1.37ZM700,55l.35,1.63c-3.28.78-6.77,1.58-10.38,2.36l-.32-1.63C693.21,56.54,696.7,55.74,700,55ZM121.82,62.19l10.53,1.32-.18,1.66-10.54-1.32ZM687,57.88l.32,1.63c-3.36.71-6.87,1.43-10.42,2.13L676.62,60C680.17,59.31,683.67,58.59,687,57.88Zm-552,6,10.54,1.27-.18,1.66L134.8,65.49Zm13.17,1.58,10.54,1.21-.17,1.66L148,67.07ZM674,60.51l.29,1.64c-3.38.65-6.9,1.31-10.45,1.95l-.27-1.64C667.13,61.82,670.64,61.16,674,60.51ZM161.34,66.93l10.55,1.16-.16,1.66-10.56-1.16Zm499.63-4,.27,1.64c-3.44.61-7,1.21-10.48,1.79l-.25-1.65C654,64.13,657.54,63.53,661,62.92ZM174.52,68.37l10.55,1.11-.15,1.66L174.36,70Zm13.19,1.38,10.56,1.05-.15,1.66-10.57-1.05Zm460.17-4.62.24,1.65c-3.44.55-7,1.11-10.5,1.64l-.23-1.65C640.92,66.23,644.45,65.68,647.88,65.13Zm-447,5.93q5.31.52,10.56,1l-.14,1.66-10.57-1Zm433.86-3.9.22,1.65c-3.47.52-7,1-10.52,1.51l-.21-1.66C627.78,68.18,631.31,67.67,634.78,67.16ZM214.12,72.3l10.57.94-.13,1.66L214,74ZM621.64,69l.21,1.65c-3.48.47-7,.94-10.53,1.38l-.19-1.66C614.63,70,618.17,69.49,621.64,69ZM227.33,73.46l10.57.88L237.79,76l-10.58-.88Zm381.16-2.73.19,1.66c-3.5.44-7,.86-10.55,1.27L598,72C601.46,71.59,605,71.17,608.49,70.73ZM240.55,74.56l10.58.82L251,77.05l-10.58-.83Zm13.22,1,10.58.77-.1,1.66-10.59-.77Zm341.55-3.29L595.5,74c-3.45.39-7,.78-10.56,1.15l-.16-1.66C588.33,73.07,591.88,72.68,595.33,72.29ZM267,76.54l10.58.71-.1,1.67L266.9,78.2Zm315.14-2.82.16,1.66c-3.48.36-7,.71-10.57,1l-.14-1.66C575.11,74.43,578.66,74.08,582.14,73.72ZM280.23,77.41l10.59.65-.09,1.67-10.6-.65ZM568.95,75l.14,1.66c-3.52.33-7.08.65-10.58.95L558.38,76C561.87,75.66,565.43,75.34,568.95,75Zm-275.48,3.2,10.59.59L304,80.47l-10.6-.59Zm262.27-2,.13,1.66c-3.53.3-7.09.58-10.58.85L545.17,77C548.66,76.76,552.21,76.48,555.74,76.18Zm-249,2.76,10.6.52-.07,1.67-10.6-.52Zm235.81-1.71.11,1.67q-5.21.39-10.59.75l-.1-1.67Q537.31,77.62,542.52,77.23ZM320,79.58l10.6.46-.06,1.67-10.6-.46Zm13.25.57,10.6.39-.05,1.67-10.61-.39Zm196.1-2,.1,1.67q-5.22.34-10.59.66l-.09-1.67Q524.08,78.5,529.3,78.16ZM346.45,80.63q5.34.18,10.6.33l0,1.67L346.4,82.3ZM516.07,79l.09,1.67q-5.23.3-10.6.57l-.08-1.67Q510.84,79.27,516.07,79ZM359.7,81l10.6.26,0,1.67-10.61-.26Zm143.12-1.36.08,1.67q-5.24.26-10.6.49l-.07-1.67Q497.6,79.94,502.83,79.68ZM373,81.36q5.34.11,10.6.19l0,1.67q-5.26-.08-10.61-.2Zm116.63-1.07.06,1.67L479,82.36,479,80.69Q484.35,80.5,489.58,80.28ZM386.21,81.59q5.35.08,10.6.13v1.67q-5.26,0-10.61-.12Zm90.13-.81.05,1.67q-5.25.18-10.61.32l0-1.67Q471.1,81,476.34,80.78Zm-76.87,1,10.6.05v1.67q-5.26,0-10.61-.05Zm63.62-.56,0,1.67q-5.25.14-10.61.25l0-1.67Q457.84,81.31,463.09,81.17Zm-50.36.62,10.6,0v1.67l-10.61,0Zm37.11-.33,0,1.67q-5.25.1-10.61.17l0-1.67Q444.59,81.57,449.83,81.47ZM426,81.76l8.2-.07,2.4,0,0,1.67-2.4,0-8.21.07Z"/><path class="cls-45" d="M22.19,14.53c3,.9,6.1,1.76,9.32,2.55l-.36,1.63c-3.24-.8-6.41-1.67-9.4-2.58Zm11.9,3.18c3.33.78,6.82,1.51,10.38,2.18l-.28,1.64c-3.58-.67-7.1-1.41-10.45-2.19Zm13,2.65C50.44,21,54,21.5,57.54,22l-.21,1.66c-3.59-.5-7.13-1.05-10.53-1.65Zm13.1,2c3.42.45,7,.85,10.53,1.2l-.15,1.66C67,24.86,63.41,24.45,60,24Zm13.17,1.44c3.46.31,7,.58,10.57.8l-.09,1.67c-3.57-.22-7.14-.49-10.61-.81Zm13.21,1c3.54.2,7.1.34,10.59.43l0,1.67c-3.5-.09-7.08-.24-10.63-.44Zm13.24.5c6.55.13,10.58,0,10.59,0l0,1.67s-4.05.11-10.66,0Z"/><path class="cls-45" d="M6.51,134.86l10.57.93L17,137.46l-10.57-.93ZM19.73,136,30.3,137l-.13,1.66-10.57-.93Zm13.22,1.16,10.57.93-.13,1.66-10.57-.93Zm13.22,1.16,10.57.93-.13,1.66L46,140Z"/><path class="cls-45" d="M774.21,126.91l.13,1.66-10.58.86-.12-1.66ZM761,128l.13,1.66-10.58.86-.12-1.66Zm-13.22,1.08.13,1.66-10.58.86-.12-1.66Zm-13.22,1.08.13,1.66-7.24.59-.12-1.66Z"/><path class="cls-45" d="M755.41,11.15l.32,1.63s-4,.87-10.49,2L745,13.17C751.41,12,755.38,11.16,755.41,11.15Zm-13,2.48.26,1.65c-3.47.6-7,1.17-10.51,1.69l-.23-1.65C735.38,14.79,738.91,14.23,742.37,13.63Zm-13.1,2.07.22,1.65c-3.55.51-7.1,1-10.55,1.39l-.18-1.66C722.19,16.68,725.73,16.21,729.27,15.7Zm-13.15,1.69.17,1.66c-3.59.4-7.16.76-10.59,1l-.13-1.66C709,18.15,712.54,17.79,716.12,17.39Zm-50.17,1.44c3.3.3,6.85.51,10.54.61l0,1.67c-3.73-.1-7.31-.3-10.64-.61Zm37-.18.12,1.66c-3.63.28-7.2.49-10.62.64l-.07-1.67C695.76,19.14,699.32,18.93,702.93,18.65Zm-13.22.73,0,1.67c-3.68.12-7.27.16-10.65.11l0-1.67C682.49,19.54,686.05,19.5,689.71,19.38Z"/></g></g></svg>