<svg xmlns="http://www.w3.org/2000/svg" xmlns:xlink="http://www.w3.org/1999/xlink" viewBox="0 0 924.39 178.92"><defs><style>.cls-1{fill:#d8d7d6;}.cls-2{fill:url(#linear-gradient);}.cls-3{fill:#8e1313;}.cls-4{fill:url(#linear-gradient-2);}.cls-5{fill:url(#linear-gradient-3);}</style><linearGradient id="linear-gradient" x1="2512.61" y1="97.71" x2="2841.87" y2="97.71" gradientTransform="matrix(-1, -0.03, -0.03, 1, 2842.86, 35.26)" gradientUnits="userSpaceOnUse"><stop offset="0" stop-color="#82050f"/><stop offset="0.62" stop-color="#d00014"/><stop offset="0.94" stop-color="#ed1c24"/></linearGradient><linearGradient id="linear-gradient-2" x1="595.76" y1="69.08" x2="925.1" y2="69.08" gradientTransform="translate(-1.06 11.63) rotate(-0.44)" gradientUnits="userSpaceOnUse"><stop offset="0" stop-color="#82050f"/><stop offset="0.58" stop-color="#d00014"/><stop offset="0.94" stop-color="#ed1c24"/></linearGradient><linearGradient id="linear-gradient-3" x1="186.7" y1="97.86" x2="741.12" y2="97.86" gradientUnits="userSpaceOnUse"><stop offset="0" stop-color="#d00014"/><stop offset="0.55" stop-color="#fb202f"/><stop offset="1" stop-color="#d00014"/></linearGradient></defs><title>Ресурс 26ribbon</title><g id="Слой_2" data-name="Слой 2"><g id="Layer_1" data-name="Layer 1"><path class="cls-1" d="M0,46.15S16.77,71.17,63.67,77c0,0-33.06,42.38-41.93,61.35,0,0,107.34-38,162.17-44.27l144.32-2.91-2.79-63.72s-5.59-17.24-73.12-18.76c0,0-75.18-5.68-162.95,17.55C89.38,26.26,25,49.45,0,46.15Z"/><path class="cls-1" d="M325.86,27.94l1.52,40.37S225.69,82,203.68,32.73C203.68,32.73,316,45,325.86,27.94Z"/><path class="cls-1" d="M924.39,57.74S907.15,82.5,860.14,87.61c0,0,32.23,42.89,40.75,62,0,0-106.58-39.64-161.3-46.79L595.34,97.65l4-63.67s5.92-17.15,73.46-17.62c0,0,86.79-6.25,162.59,20.09C835.42,36.46,899.37,60.65,924.39,57.74Z"/><path class="cls-1" d="M598.52,32.42,597,72.79S698.7,86.47,720.71,37.21C720.71,37.21,608.38,49.52,598.52,32.42Z"/><path class="cls-1" d="M720.71,37.21c-51.95,46-246,40.64-256.43,40.32h-.44C453.37,77.62,256.65,79,204.69,33c0,0-29.25,87-13.16,109.29,0,0,9.51,14.84,68.73,25,0,0,118.26,13.47,203.8,11.47,85.54,2,203.8-11.47,203.8-11.47,59.23-10.12,68.73-25,68.73-25C752.68,120,720.71,37.21,720.71,37.21Z"/><path class="cls-2" d="M0,38.06s16.77,25,63.67,30.87c0,0-33.06,42.38-41.93,61.35,0,0,107.34-38,162.17-44.27l144.32-2.91-2.79-63.72S319.85,2.13,252.32.61c0,0-75.18-5.68-162.95,17.55C89.38,18.16,25,41.35,0,38.06Z"/><path class="cls-3" d="M325.86,19.85l1.52,40.37S225.69,73.9,203.68,24.64C203.68,24.64,316,37,325.86,19.85Z"/><path class="cls-4" d="M924.39,49.64S907.15,74.4,860.14,79.52c0,0,32.23,42.88,40.75,62,0,0-106.58-39.64-161.3-46.79L595.34,89.56l4-63.67s5.92-17.15,73.46-17.62c0,0,86.79-6.26,162.59,20.09C835.42,28.36,899.37,52.56,924.39,49.64Z"/><path class="cls-3" d="M598.52,24.32,597,64.69S698.7,78.38,720.71,29.11C720.71,29.11,608.38,41.43,598.52,24.32Z"/><path class="cls-5" d="M720.71,29.11c-51.95,46-246,40.64-256.43,40.32h-.44c-10.47.1-207.19,1.43-259.15-44.53,0,0-29.25,87-13.16,109.29,0,0,9.51,14.84,68.73,25,0,0,118.26,13.47,203.8,11.47,85.54,2,203.8-11.47,203.8-11.47,59.23-10.12,68.73-25,68.73-25C752.68,111.92,720.71,29.11,720.71,29.11Z"/></g></g></svg>