<svg xmlns="http://www.w3.org/2000/svg" viewBox="0 0 379.75 338.25"><defs><style>.cls-1{fill:red;}.cls-2{fill:#fff;}</style></defs><title>Ресурс 18ribbon</title><g id="Слой_2" data-name="Слой 2"><g id="Layer_1" data-name="Layer 1"><path class="cls-1" d="M87.28,85.93c.35,3.32,4.09,4.36,6,6.64C92.93,89.25,89.18,88.21,87.28,85.93Z"/><path class="cls-1" d="M45.17,119.65c-4-6.52-17.57-5.15-25.48-9.53-2.45-1.35-3.9-4.45-6.17-5.75C8.81,101.67,3.77,101,0,99c9.42,11.44,28.12,16.64,43.61,24C43.74,121.29,45,121.24,45.17,119.65Z"/><path class="cls-1" d="M8.94,170c-.27,2.62-2.51,2.31-2.78,4.93,1,2.6,2.35,5,7.22,5C19,176.77,15.63,167.2,8.94,170Z"/><path class="cls-1" d="M84.11,83.5c1.06.06,2.46.63,2.8-.37C79,77.54,77.76,67.44,67,63.76,70.69,71.69,78.67,76.74,84.11,83.5Z"/><path class="cls-1" d="M21.43,105.9c2.32-.13,5.23,5.19,6.14,1.2C24.63,107.73,23.21,103.55,21.43,105.9Z"/><path class="cls-1" d="M177.6,295.8c2.32-6.26,2.21-17.16-.11-22.8C178.23,280.74,175.88,290.71,177.6,295.8Z"/><path class="cls-1" d="M26.11,58.52c-3.52,3.07-7.65,5.24-11.54,7.77-2.91,8.6-4.71,13.45-3.23,21.25,7,2.94,7.68,10.07,11.65,15,6.36-4.16,14.74-5.3,21.71-8.52C55.58,77.8,47.78,57.35,26.11,58.52Z"/><path class="cls-1" d="M115.39,58.61c-1.11-5.61-2.74-10.86-6.21-14.88C106.42,48.1,115.59,58.5,115.39,58.61Z"/><path class="cls-1" d="M104.25,40.95c-2.84-.11-1.46-3.08-4.92-2.78C97.81,40.77,104.67,43.93,104.25,40.95Z"/><path class="cls-1" d="M137.47,20.09c-1.86-2.19-5.92-.41-7.53,1.26C133.08,21.85,136.89,23.36,137.47,20.09Z"/><path class="cls-1" d="M13,322c-2.18.91-4.56,1.52-4.71,5.46,1,2.12,2.63,3.82,6.51,4C18.2,328.61,18.1,323.27,13,322Z"/><path class="cls-1" d="M37.29,263a7.55,7.55,0,0,0-.66,8.07l4.39.86C44.5,268.76,44.66,262.79,37.29,263Z"/><path class="cls-1" d="M91.54,274.48c-4.18,2.47-7.13,6.77-8.88,12.85C87.65,286,88.29,278.32,91.54,274.48Z"/><path class="cls-1" d="M53.8,304.48c2.18-7.69-1.65-12.74-7.61-12.42C33.73,292.73,41.8,316.09,53.8,304.48Z"/><path class="cls-1" d="M61.11,257.61l-2.63-.51c-.63,2-.43,3.34,1.07,3.85C60.06,259.81,61.13,259.51,61.11,257.61Z"/><path class="cls-1" d="M262.91,59.11c-5.5.89-8.77,5.09-11.17,10.58C256.6,67.86,260,63.83,262.91,59.11Z"/><path class="cls-1" d="M27.62,223.74q-4-1.41-4.2,2.83a5.81,5.81,0,0,0,4.22,1.74C28.85,226,26.85,225.79,27.62,223.74Z"/><path class="cls-1" d="M171,30.27c2.67.56,3.77-1.19,5.78-1.61,1-3.21.3-5.29-2.49-5.95-2.51-.33-1.91,4-5.07,2.65C170.67,27.95,171.67,25,171,30.27Z"/><path class="cls-1" d="M131.3,325.13c-4.23-1.62-6.18,6.67-9.25,10.12a5.75,5.75,0,0,1,2.46,3C127.53,337.49,137,328.66,131.3,325.13Z"/><path class="cls-1" d="M27.54,202.14c5.69.23,10.83-1.9,17,.55,2,3.91,2.63,8.16,3.58,12.32-5,1.17-9.29,3.28-12.11,7.64a53.67,53.67,0,0,0,14.09-1.41c1.68,3.68,4.46,7.1,9.85,9.93,5.7.69,8.41-1.45,13.38,4.05-2.59,3.27-7.84,6.26-1.45,9.22,7-6.69,14.14-16.18,25.88-11.26,2.29-2.93,3.92-8.8,7.29-7a32.17,32.17,0,0,0,4.6,6.42,12.73,12.73,0,0,0-1.32,2.32,7.43,7.43,0,0,0,2.83,4.2c-2.55,5.65-7,8.45-8.52,15.65,3.5-1.24,9.85-4.21,8.91-8.29.06,1.12-3.13,2.53-2.81.37,1.38-2.2,3.66-8,6.23-8.63,1,1.06,2,2.11,3,3.18-1.13,2.36-6.09,2.41-3.77,5.59a6.26,6.26,0,0,1,5.25-3.53c1.74,2.64.77,7.11.58,11,14.56,2.31,1.13,24.68,10.84,28.54,11.85,4.71,14.89-25,32.22-11a4.53,4.53,0,0,1,3.14-2.12c2.31-6.39-.63-9.23,1.15-15.26,2.9,0,2.4,2.17,4.39.85-.63-3.73-1.39-5.53,3-5.8,3,2-.42,8.41,3.56,9.8a58.17,58.17,0,0,1,.45-9.32,85.93,85.93,0,0,0,32.94,22.09,41.37,41.37,0,0,1,2.3,5.12c2.35,6.45,4.83,13.44,12.53,15.2,10.16-5,3.38-12.46,1.18-20.88,6.07,1.36,12.34,7.87,18.57,4,2.34,5.83-.7,26.29,6.33,19.9-5.34-4.52-4.77-18.38-1-23.79s9.7-3.25,14.44-6.86c8.74-6.65,10.84-17.1,16.68-24.27,2.23-.61,5.3,2.44,7.53,1.83,2.3-5,.79-9.08,3-14,2.47-.84,4.92-1.81,7.37-2.75,4.25,2.53,9.38,4.46,13.12,7.33.26-1.12,1.37-1,1.39-2.46a47.51,47.51,0,0,0-11.06-6.16,45.25,45.25,0,0,1,10.77-2.68c-.53-4.33-2-8.43-.37-13.26,11.09-4.59,14.43-21.08,11.75-30.26,2.49-2.05,5.4-2.29,7.67-5.31-3.76-5.66-9-11-5.94-18.21,2.24-3.24,8.39-1.06,7.67-5.32-1-.58-2-1.19-3-1.85h.51c7.54-7.5,41.56,2.27,45.9-11.1,3.5-10.79-7.09-10.61-12.68-9.76-11.15,1.7-28.46,3.33-39.3,5.13a22.87,22.87,0,0,1,2.88-3.33c-7.87-1.94-16.14-3.5-13.62-12.89,2.2-2.25,9.15-3.8,8.33-6.35C318,113,309.72,106,309.09,99.43c-4-.47-7,3.25-11.57,0-6.12-2.74-2.9-7.63-6.09-11.05-2.88-1.68-5,.06-7.61-.62,7.31-6.18,15.63-11.09,17.71-21.1-8.81,1.76-16,5.92-22.53,11.05a4.84,4.84,0,0,0-.81-.53c-3.75,3-6.92,8.62-12.48,3.75-2.3-3,4.13-8.06-2.32-10.14l-5.86,9.34c-3.18-2.23-5.21.59-8.58-2.48a5,5,0,0,1-1.52-1.32,41.83,41.83,0,0,0,4-4.87,13.37,13.37,0,0,0-4.67,3.5c-.76-2.32,0-5-3.47-6.69-2.75.62-1.8,4.93-5.22,8.31-5.66-.23-11.78-.69-17.17-4.14a98.12,98.12,0,0,1,16.68-32.84c2.51-.16-1.43,4,1.08,3.86,3.13-5.15-2.1-6.9-2-13.15-1-.34-2.53-.34-2.47-1.39-16,1.87-14,30.52-25.06,39.76.54-2.14,1-4.2.15-5.44-6.17-1-7.3-1.21-11.93.41-3.2-11.57-13.36-18.46-17-29.73-2.16,1.5.46,7.64-3.47,8.43-6.1-4.95-9.53-15.22-14.65-18.34-2.12-8-2-17.47-6.26-24,.29,13.7,3.89,35.28,10.4,44.85-2.22,4.64-1,10.59-6.79,11.43a20,20,0,0,0,2.78-4.92c-2-1.57-4.64,1.13-4.39-.86,1.11-5.6-3.62-4,.32-6.31-5-3-7.59,6.63-11,9.7-.94-2.92.36-7.36-2.85-8.76-.49,7.95,1.77,22.74,3.16,35.24.8,7.21,2.47,19.19-7.28,18.63-7.43-.43-5.39-8.58-11.29-12.22-3.28,2.63,4.2,6.66.92,9.29-10.58-3.55-16.86-13.91-21.87-23.4C100.87,59,94.42,41.61,76.72,42A23.93,23.93,0,0,0,73.1,55.83c7,7.05,12,18,19.42,26.57,5.84,6.77,15.41,11.35,13.43,19.93-2.73-2.48-4.33-5.73-8.63-7.15-.46,8.26,15.31,12,16.77,21.49-8.27.87-8.25-10.12-16.89-11.49,1.15,9.13,13.61,10.65,15.35,19.39-6.88,3-12.48,7.89-20.12,9.75-10.92-3.59-22.35-6.24-33.72-9.31,4.35,7.24,22.78,5,25.68,13.2-7.65-1.91-15.19-3.67-16.29,4.11.45,5.55,8.68,5.85,13.9,8.18,2,4.76,1.64,8.5,1,13.66a28.2,28.2,0,0,1-10.64-3.42c-8.26,7.7-20.13,8.38-26.55,23.87-1.83,4.41,1.07,8.75-1.71,12C38.82,202.63,31.45,197.06,27.54,202.14ZM203.93,81.77c-5.49,1-11.55-.39-17.19,0,3.54-1.88,7-3.9,8.71-8.47C202,74.16,204.36,78,203.93,81.77ZM147.65,56.69c3-1.26,7.5-.21,10.19,3.81-5.82,4.48-.44,13-3.42,17.55C147.64,74,150.27,63.57,147.65,56.69Zm18.12,9.91c1.87,1.28,2.24,3.58,1.44,6.66C166.17,71.42,164.56,70,165.77,66.6Zm7.43,13.3c-2-.27-1.1,3.65-1.9,5.09-3.37-3.83-1.66-11.08-2.19-16.83,1.85-.65,4.37-.31,6.49-.56,1.76,3.52,5.23,10.78,4,16.14A13.64,13.64,0,0,0,177.72,85a6.32,6.32,0,0,1,1.17.75A7.14,7.14,0,0,1,176,88.66C173.77,86.63,172.77,83.74,173.2,79.9Z"/><path class="cls-1" d="M200.78,279c-5.73,8.17,3.65,18.46,9.35,5.87C210,281,204.32,277.41,200.78,279Z"/><path class="cls-1" d="M22.73,200.57c-3.07,1-11.13.35-10.8,3.36C15,202.93,23.08,203.58,22.73,200.57Z"/><path class="cls-1" d="M371.36,161.66c-4-1.88-7.34-1-10.53.63C364.82,164.18,368.17,163.26,371.36,161.66Z"/><path class="cls-1" d="M303.51,242.12c-3.79,7.55,1.28,15.23,9.2,13C315.35,249.81,310.21,242.44,303.51,242.12Z"/><path class="cls-2" d="M284.74,188.46c.22-.66-.61-.79-1.08-1,0-.19.11-.24.07-.44-.28-.24-.19.18-.53.16a2.31,2.31,0,0,0,.09-1.4,1.37,1.37,0,0,1-.42.23c0,.46.36.45.31,1a14.47,14.47,0,0,0-1.1,1.09c.75-.34,1.16.18,1.62-.26.61.24.56.94,1.42,1.07l.29-.36C285.36,188.27,284.93,188.5,284.74,188.46Z"/><path class="cls-2" d="M285.33,184.24a.47.47,0,0,1,.1-.19S285.35,184.12,285.33,184.24Z"/><path class="cls-2" d="M174.7,150.72c.34.29.54.77,1,.91a2.08,2.08,0,0,0,.24-2.1c-.3.12-.29-.13-.55-.06,0,.3-.37.29-.38.58a.32.32,0,0,0,0-.24c-.14-.19-.61,0-.88,0a2.65,2.65,0,0,0-.15.67A1,1,0,0,1,174.7,150.72Z"/><path class="cls-2" d="M236,146.72l.06.07S236.08,146.72,236,146.72Z"/><path class="cls-2" d="M191.74,152.1c.68-.12.67.14.61.71.71-.23,1.13-.47,1.3-1.33,1.63-.64,1.5-2.85,1.54-4.53a.79.79,0,0,1-.34-.19c.05-.16.41-.06.41-.26a.73.73,0,0,0-.79-.25c-.05.32-.36.44-.48.7-.14-.15-.14-.48-.47-.39-.88.5-.48,1.33-.57,2.13.19,0,.82-.05.58.38-.43-.41-1.33-.25-1.61-.83.26,0,.42.13.77,0a.52.52,0,0,0-.39-.62c-.3.57-1.11,1.19-.69,2-.64.26-.4,1-.36,1.61a2.36,2.36,0,0,1,0,.29.33.33,0,0,0,.11.07C191.54,151.74,191.78,151.75,191.74,152.1Z"/><path class="cls-2" d="M287,155.61c0-.13-.06-.25-.24-.2a.92.92,0,0,0,.43,1.05c0-.06.14-.26.2-.24a5.45,5.45,0,0,1,1.62,1.31,30.55,30.55,0,0,0,2.11,2.29c.79-.17,1.55-.78,2.26-.43.53-.56,1.39-.85,1.59-1.68,0-.42-.32-.5-.41-.84.83-1-1.33-1.84-.6-2.9-.37.13-.29.63-.7.72-.13-.34.34-.18.29-.47s-.6.08-.67-.15c.13-.35.79.37.75-.18-1-.29-.12-2.46-1.13-2.74.29-.14,0-.5-.16-.53.19-.21.29-.49.48-.7-.9-1.18-.15-3.57-.86-4.52.09-.2.34-.25.39-.47-.41-2.31-2.07-1.6-4.28-1.24a1.53,1.53,0,0,1-.58.62c0,.6.07,1.22.13,1.87.09,1,.2,2,.33,3.15,0,0,0,.07,0,.11-.78.46.28,1.47-.47,2,0-.45-.09-.85-.52-.83a1.25,1.25,0,0,1,.09,1c.69-.11.35.53.74.92a2.26,2.26,0,0,0-.26,1.89C287.36,154.83,286.94,155.2,287,155.61Z"/><path class="cls-2" d="M154.92,189.07l.37-3.85c0-.38,0-.76-.07-1.15q-.93-9.85-13.37-14-1.47-.49-2.68-.95a23.75,23.75,0,0,1-4.62-2.16,4.89,4.89,0,0,1,.44-8.66,3.35,3.35,0,0,0,.6,0c.07-.24.35-.27.37-.44a15.47,15.47,0,0,1,3.13-.83c.6-.1,1.22-.19,1.9-.25a28.06,28.06,0,0,1,10.68.91l1-6.12.45-2.71a36.92,36.92,0,0,0-6.35-.46h0c-.15-.14-.42-.12-.43-.43-.27,0-.53,0-.52.27-.52-.29-.33-1.12-.15-1.63-.32,0-.67,1-.35.91-.2.32-.43.63-.64.93q-1.43.06-3,.19l-.65.06q-8.68.82-13.89,4.92a11.76,11.76,0,0,0-2.3,2.41c-1.26,0-2.51.2-3.36.18,0,.28,0,.56-.27.57.13-.25.28-.62-.07-.76-.51,0-.41.6-1.26.56a2,2,0,0,0,1.25,2.73c-.11.28-.43-.19-.53.16.38.87.86,1.62,2.11,1.44a.85.85,0,0,0,.21-.3,17.79,17.79,0,0,0-.21,5.17q.71,7.61,8.77,11.7a29.62,29.62,0,0,0,3.26,1.41,36.3,36.3,0,0,1,8.1,3.74A6,6,0,0,1,145.6,187q.37,3.92-3.77,5.67a26.34,26.34,0,0,1-7.37,1.48,28.87,28.87,0,0,1-7-.24,35.41,35.41,0,0,1-4.19-.9l-.47,2.14a.25.25,0,0,0-.35.08c.37,0,.2.39.18.67l-1.31,6a41.05,41.05,0,0,0,7.26.78,49.85,49.85,0,0,0,5.82-.21,39.41,39.41,0,0,0,10.94-2.41l.62-.25a15.27,15.27,0,0,0,7.69-6.54,13,13,0,0,0,1.08-2.63,15,15,0,0,0,.49-2.47A2,2,0,0,0,154.92,189.07Z"/><path class="cls-2" d="M193.05,157.88a2.61,2.61,0,0,0-.22,1.12c.27.14.46-.08.55.06-.32.24-.06.24.15.42a1.16,1.16,0,0,0-.31,1.34c.28.12.51-.29.54-.05s-.07.41,0,.66c.52.24.69.9,1.17,1.18q-.85-2.5-1.56-4.67A.49.49,0,0,0,193.05,157.88Z"/><path class="cls-2" d="M190.29,154.1c.23-.09.38.27.32-.14a4.11,4.11,0,0,0-1-2.53c.72-1.17-.49-3.44-1.54-3.58.39-.11.44.2.78.15.12-.73-1.47-.84-1.55-.18,0,.29.39-.33.34.19-1.14-.31-2,.2-2.86-.17,0,.43-.54.57-.95.42a.47.47,0,0,1-.17.45c0-.25-.06-.4-.26-.41-.25.29-.25.79-.68.94.46-.58-.2-.36-.3-.85.33-.16.28.15.45.18-.23-.4-.83-.37-1.06-.78.07.21-.24.58-.29.36.16,0,.08-.27.07-.44-.49-.06-1-.56-1.35-.42-.13.4.38,0,.36.29-.37.44-1.13-.39-1.29.23.14.22.51-.23.67.16a2.44,2.44,0,0,0-2,1.51c.05.22.41.06.46.28-.32.11-.34-.16-.66,0-.05,1,.26,1.19-.14,2l-.05-.54c-.37.19-.37.7-.56,1a2.82,2.82,0,0,1,.58,1.48,16.73,16.73,0,0,1,3-1.38,16.6,16.6,0,0,0-3.63,2.2,10.21,10.21,0,0,1-.75,2.48c.64,0,.77,1.62,0,1.64,0,.81-1,1.6-1.29,2.53a7.09,7.09,0,0,1-.08,2.63c-.25.06-.41,0-.46-.17.63-.5.33-2,.17-2.86a8.54,8.54,0,0,0,1.79-3.12c-.87-.94.5-2.33.34-3.32,1.22,0,.48-1.3.16-1.77a.76.76,0,0,1-.19.35c-.06.36.37.12.37.4-.47-.36-.16.53-.37.69-.19-1,.16-2.88-1.4-2.06a1.06,1.06,0,0,0-.69-.83q-1.39,4.39-4.3,12.59l-.54,1.5a2.1,2.1,0,0,0-1.21.08c-1.19-.82-2,.83-2.24,1.75-1.61,0-1.87,1.91-2.33,3.17-.07-.26.18-.25.06-.55-1.08,1.47.07,3.41.47,5a7.37,7.37,0,0,0,1.54.86l-.09.25q-1.89,5.21-3.32,9.26c-1,.74-2.47,1.14-3.37.2a1.54,1.54,0,0,1-1.31,0c-.72.65-1.62.24-2.66,0a18.75,18.75,0,0,1-.1,2.93,3.21,3.21,0,0,1,2.48-1.2c0,.14-.17.19-.18.34.67-.56,2.34.07,3-.72.17,0,0,.14,0,.33.24,0,.19-.17.19-.35a6.1,6.1,0,0,1,1.37,0q-4,11.31-4,12.28l11.09-1q-.09-2.18,1.8-8.77.75-2.77,1.84-6.2l.22,0a1.43,1.43,0,0,1,.47.27c.07.92.49,1.43,1.24,1.53a1.31,1.31,0,0,1-.3-1.93l15.35-1.45q1.51,5.37,2.32,9.08h0c.51-.66,1.69-.66,2.31-1.09-.74,0,.05-.23-.05-.54a2.12,2.12,0,0,0-1,.31,4,4,0,0,0-.48-3.9c-.39,0-.75,0-.9-.24.37-.25.41.1.88,0,.11-.94.4-1.73,1.35-2-.27-1.54.95-2.14,1.8-3-.33-.59.12-.75-.12-1.3.14,0,.16.12.33.08.28-1.49-1-2.05-1.29-3.27.32-.61-.09-.91-.15-1.63-.53.28,0-.15-.46-.28.34.14.23-.59.06-.55-.61-.88-2-1.53-2-3,.22,0,.2-.17.31-.25.3.2.4.64.83.69-.13-.55.4-1,.26-1.88-.53-.11.16.8-.37.69.16-.55-.35-1,.09-1.32-.73-1.16-1.42-2.8-2.09-3.64-.28.88-1.31-1.06-2.08,0,.06-.25.3-.36.5-.48-.12-.18,0-.58-.38-.51,0,.19.19.26,0,.33-.47-.26-1.8-.2-2.05.3A4.34,4.34,0,0,0,185,164q1.24,4.2,3,9.93l-13.41,1.26q1.87-5.85,3.22-10.18l.33-1q3.2-10.28,3.22-11.23l.58-.06q.11,1.19,2.87,10.58a21.34,21.34,0,0,0,5.07-.44l.06.65a3,3,0,0,0,1.88.15c-.11-.32.07-.41,0-.66-.54-.24-.07-.77,0-1.09a2.18,2.18,0,0,1-.48-1.6,3.16,3.16,0,0,0-2,0c.33-.39-.23-.24-.37-.41.16-.21.37.06.76-.07a.52.52,0,0,1-.08.34c.55-.38,1.38,0,1.45-.9-.39,0-.38-.51-.61-.71.16,0,.2.11.32,0-.14-.43-.7-.37-.84-.8a1.87,1.87,0,0,1,.37-.69c-.13,0-.31,0-.34-.08.22-.61-.37-1.57.5-1.69C190.5,154.92,190.55,154.41,190.29,154.1Z"/><path class="cls-2" d="M192.72,156.07a2.8,2.8,0,0,0-.72-2.31.78.78,0,0,0-.22-.13,4.62,4.62,0,0,0,.41,3.13A.83.83,0,0,0,192.72,156.07Z"/><path class="cls-2" d="M198.37,194.62c0-.14.12-.16.08-.34-.45-.11-.32.27-.63.28-.15-.33.15-.28.18-.46-1-.59-1.39,0-2.26.43a.94.94,0,0,0,.06.73l4.1-.39C199.35,194.8,198.86,194.34,198.37,194.62Z"/><path class="cls-2" d="M193.35,195.5l1.43-.14a1,1,0,0,1-.08-.18A9.58,9.58,0,0,0,193.35,195.5Z"/><path class="cls-2" d="M194.78,193.64c-.36-.49,0-.67-.09-1,0,.12-.11.18-.2.24a3.53,3.53,0,0,0,0-1.42c-.46.07-.57-.28-1.11-.11,0,.25-.13,1,.19.86a1,1,0,0,1-.62.39c0-.13.55-.33.18-.46a.91.91,0,0,1-.49.52c.17.92.29,1.74.37,2.44a3.44,3.44,0,0,1,1-.1C194.53,194.77,194.3,193.91,194.78,193.64Z"/><path class="cls-2" d="M196.27,173.46c.9,1.26,0,3.51,1.37,5.24-.19,0-.23.21-.17.46a3.73,3.73,0,0,0,1.19,1c-.88-.39-1.25.21-1.57-.4-1,.58-.49,2.42-1.89,2-.09.47.39.26.48.5-.74.19-.77,1-1.54,1.13,0,.36.09.54.28.63a5.17,5.17,0,0,0-1,1.19,2,2,0,0,1,.37,1.61c1.48.57,1.26,2.52,1.61,4.34.4.44,1.27.32,1.61.83.35,0,.44-.23.86-.19,0,.08.1.12.23.09.16.82.93,1.25.75,2.12.66.7,2.93.46,3.64.31a.38.38,0,0,0-.07.31.38.38,0,0,0,.12.24,2.81,2.81,0,0,0,1.35-.37l.91-.09c0-.19,0-.4-.08-.63q-.77-5.15-7.13-23.32a3.58,3.58,0,0,0-.53,0C195.9,170.89,196.64,172.48,196.27,173.46Z"/><path class="cls-2" d="M200.37,194.84l.28,0-.08-.07A1,1,0,0,1,200.37,194.84Z"/><path class="cls-2" d="M195.32,164.46l.21,0-.63-1.86c-.13,0-.18-.15-.31-.18A7.1,7.1,0,0,0,195.32,164.46Z"/><path class="cls-2" d="M239.1,191l.33,0c.1-.36-.36,0-.26-.41.64,0,.15-.51-.05-.54.51-.08.43-.64.56-1-.21-.27-.37-.6-.92-.46,0,.66-.67.71-.63,1.37-.27-.17-.45-.35-.49-.5-.78.36-1.19,1-2.07,1.29.08.31.13.57.17.83l3.41-.32A1.14,1.14,0,0,0,239.1,191Z"/><path class="cls-2" d="M234.76,191.41a.26.26,0,0,0-.14.21l.32,0Z"/><path class="cls-2" d="M240.1,187.73a.51.51,0,0,1,.08-.34c-.16,0-.29-.13-.46-.18C239.73,187.53,239.77,187.81,240.1,187.73Z"/><path class="cls-2" d="M258.27,159.23q-.07-8.64-.19-12.81,3.07-.29,6.37-.53a3.58,3.58,0,0,0,.48-.46,1.89,1.89,0,0,1-1.4-1c-.83.25-1.66-.25-2.45-.43.05.24,0,.41-.18.45.25-.69-.32.07-.57-.27.47-.18,1.24-.64,1.82-.39a.53.53,0,0,0-.52.27c1.83.73,3.59-.77,5.37-1.05a6,6,0,0,1,.35-.91c.35,0,.4-.28.65-.06.17-.51-.25-.92.22-1.12-.11.17-.09.28.14.32.42-.82,1.71-.92,2.49-1.44,0-.62-.42-1.06,0-1.42a2.19,2.19,0,0,1-.3-1.11l-13,1.23-.22,0-9,.85q.24,3.23.39,6.92c0,.09,0,.17,0,.26q.3,7.59.21,17.06-.11,4.86-.2,8.88c.57,0,.9-.79,1-1.35.49.52,1-1,.65-1.26.18.23.61.15.8.36.28-.52.8-1.31,1.66-1a1.07,1.07,0,0,0-.08-.87c1.5-.37,1.57-1.91,3.19-2.16.31-.36.35-1.07-.22-1.18l.32,0a5,5,0,0,1,.37-3.1c.22.1.59-.11.69.37-.15,0-.22-.13-.45-.07a2.6,2.6,0,0,1-.12,2.2c.54.19.24,1.4.9,1.45-.17.54.26.82.86.89a3.35,3.35,0,0,0,1.81-.32,1.48,1.48,0,0,0,.42-.32,14.88,14.88,0,0,0,3.24-.52c-.32-.36.13-1.13.34-1a1.83,1.83,0,0,0-.24.9c.42.08.13-.42.51-.38.83.29,1.27-.32,1.82-.5,1-.34,1.94.16,2.82-.27a.11.11,0,0,1,0-.22c.23.36,1,0,1.14.55,1.69-.07,2.83-.91,4.59-1.33l.1-6.07Q265.94,158.5,258.27,159.23Z"/><path class="cls-2" d="M271.37,138.36a4.61,4.61,0,0,0,.64,1c.56-.26,1.21.17,1.68.39-.31,0-.58-.11-.89-.14.05.21-.13.23-.19.35.16,0,.15.23.25.3a2.2,2.2,0,0,0-.77,1.17c.68,1.17-.09,2.8.73,3.92a1.92,1.92,0,0,0,.34.36c-.25,0-.41.07-.41.26.5.31.95,0,1.52-.14a.87.87,0,0,1,.18-.55l.58,0,3-.12.4-8.61-.89.08-1.59.15c-.21-.51-.53-1.09-.37-1.46a2.37,2.37,0,0,0-2.3,0c-.55-.15-1.39-.57-1.9-.37.34.08,0,.37-.07.44.36,0,.17.6.4.73a.3.3,0,0,0-.43,0c-.06.31.18.27.16.53s-.43,0-.4.37a.74.74,0,0,0,0,.18c.13.38.54.41.71.74C271.68,138.15,271.42,138.17,271.37,138.36Z"/><path class="cls-2" d="M271.68,145.12c.29-1.25-.79-2.17-.47-3.79-.32.11-.34-.16-.66,0-.57.5-1.3,1.34-2.09,1.07,0,.51.18.1.25.31-.09.29-.41.39-.84.4-.06.62-.79.68-1,1.19-.21-.15-.37-.36-.79-.25,0,.65-.61,1.15-.92,1.84q3.19-.22,6.6-.4Z"/><path class="cls-2" d="M274.11,182.56c.17.27.75-.14.77,0-.4.66.17.15.58.38.12-.14,0-.62.26-.68s.37.26.6.49c.19,0,.34-.46,0-.32a36,36,0,0,1,3.41-1.31l.12-2.4q-3.8.58-7.45,1.07A5.08,5.08,0,0,1,274.11,182.56Z"/><path class="cls-2" d="M278,183.4c-1.84.54-.24,2.37-.26,3.09-.44-.23-.72-.66-1.18-.88.32-.5.13-1.53-.38-1.71-.09.54-.68.12-.95.42.05.3.55.06.68.26-.07.38-.26.72-.6.6,0,.39.53.17.5.61-.2,0-.25-.1-.45-.07a.54.54,0,0,0,.29.74.41.41,0,0,0-.39.47,1.57,1.57,0,0,1,1,.75,2.72,2.72,0,0,0,.29.33c-.12-.56.21-.18.52-.27a.82.82,0,0,1,0-.14l.91-.09,1.34-.12.3-5.93C278.52,181.61,278.58,182.76,278,183.4Z"/><path class="cls-2" d="M275.26,187.79l.72-.07a4.16,4.16,0,0,0-.45-.48A3.7,3.7,0,0,1,275.26,187.79Z"/><path class="cls-2" d="M271.6,181.48c-.67-.2-1.38.16-2.17.2-1.11.07-2.33-.32-3.53-.22-1.54.14-2.75.64-3.88.7.19-.44.61-.69.89-1.07.32,0,.19.5.39.62.63-.46,1.37-.31,2.12-.74,0-.09,0-.18,0-.28q-3.65.42-7.13.75a.92.92,0,0,0,1,1c0,.16-.32.07-.3.25.24.2.41,0,1.11.12.49,1.22,1.88,1.36,2.52,2.39.27,0,.53,0,.52-.27.28.72,1.08.13,1.29,1,.77-.19,1.66.48,2.67.4.16-.06-.06-.14,0-.32.57,0,.76.29,1.31,0,1.63,1.13,3-.72,4.71-1.1-.19-.57-.78-.67-1.19-1,.13-.39-.07-1.06.56-1A3.63,3.63,0,0,1,271.6,181.48Z"/><path class="cls-2" d="M266.54,181.19c.3.05-.13-.5.17-.45a10.15,10.15,0,0,0,4.53.45,11.73,11.73,0,0,1,.13-1.23c-2,.26-3.86.5-5.75.71C265.78,181,266.43,180.77,266.54,181.19Z"/><path class="cls-2" d="M270.94,186.14c-.42,1.17-2.72.31-3.91.37-.12.59.49.3.41.84-1.08,0-1.71-1-2.46-.53-.94-1-1.63-.29-2.79-.61.06.28-.12.37-.4.37l-.07-.76c-.21,0-.3-.21-.57-.17,0,.13,0,.31-.08.33,0-.46-.54-.15-.5-.61-.4.33-1,.57-1.41.13.09.26-.48.46-.52.27.15-.18.09-.43.49-.59.32.53,1.05.14,1.29-.23,0-.54-.56-.37-.62-.82.18-.06.29.13.33,0-.28-.91-1.08-1.19-2.09-1.23a3.33,3.33,0,0,0,.38,1.72c-.54-.11-.58-.83-1.08-1-.11.29-.34.24-.64.17a1.7,1.7,0,0,1,0,1.09c-.39-.57.07-1,0-1.64-.2,0-.62.19-.66,0,.95-.73.73-1.6,1-2.72-.68-.34-.26-2-1.18-2.08.1-1.15-.44-1.48,0-2.08-2.05-1.41-.18-5-2.94-5.64,0-.27,0-.53-.27-.52-1.28,1.25-2.13,2.86-4,3.63a4.71,4.71,0,0,1-.48.18c0,.38.27.35.46.46,0,.07,0,.15,0,.22q-.13,5.29-.25,9c0,.52,0,1,0,1.49a5.36,5.36,0,0,0-.63.17,1.82,1.82,0,0,1,.6.67c0,.21,0,.41,0,.6a.43.43,0,0,0-.35-.08l0,.54a.82.82,0,0,1,.29,0l0,.51c0,.81-.06,1.51-.1,2.11,0,.1,0,.19,0,.28s0,.31,0,.45l.7-.07,3-.28,4.83-.46a1.37,1.37,0,0,1-.08.14c.21.15.48.22.69.37.1-.08.09-.26.3-.25.46,0,.5.45.72.7,0-.26,0-.37.52-.27a5.4,5.4,0,0,1-.94-.82l2.92-.27L262,189l11.93-1.12a2.73,2.73,0,0,0-.86-2.85C272.32,185.41,272,186.08,270.94,186.14Z"/><path class="cls-2" d="M257.85,179.71c0,.24.2.27.37.32,0-.14,0-.27,0-.41A1,1,0,0,1,257.85,179.71Z"/><path class="cls-2" d="M270.14,165.68l4.43-.24,0-1.35c-1.48.25-3,.66-4.11,1A1.27,1.27,0,0,0,270.14,165.68Z"/><path class="cls-2" d="M267.45,165.34a3.71,3.71,0,0,0-.49.55l3.13-.2C269.77,165.09,268.32,165.32,267.45,165.34Z"/><path class="cls-2" d="M258.11,169.61c-.22-.15-1.14-.56-1.31,0-.82-.86-2.2-.31-3.08-.15.18,1.35,1.92,2.77,1.71,4.22.21.1.58,0,.7.48a.56.56,0,0,1-.36-.29c-.32.73.18,1.29.71,1.69-.55-.12.46.41.5.72-.19,0-.24-.11-.44-.07-.19.89,1.39,1.21,1.63.28q0-3.36,0-6.94Z"/><path class="cls-2" d="M257.94,180.58c0,.4.12.26.3.21,0-.08,0-.17,0-.25S258,180.39,257.94,180.58Z"/><path class="cls-2" d="M287.84,141.08c-.07-.06-.19-.05-.27-.09s0,.15,0,.23A.24.24,0,0,0,287.84,141.08Z"/><path class="cls-2" d="M288.76,141.65c.32,0,.72-.67.53-.16.34.08.17-.26.18-.46.25-.24.51.07.64-.17-.12-.5-.17-.87-.36-1.5.28-.17.44-.43.71-.61-.55-.2,0-1-.45-1.27.2,0,.25.1.45.07a2,2,0,0,0-.52-2.41q-1.94,1.75-2.35,5.67C288,140.89,288.6,140.73,288.76,141.65Z"/><path class="cls-2" d="M288,143.14c0-.2-.17.08-.23-.09.36-.24.38-.75.31-1.34a1.32,1.32,0,0,1-.6-.06c0,.74-.05,1.53,0,2.38a1.07,1.07,0,0,0,.28-.2C287.39,143.35,288.14,143.64,288,143.14Z"/><path class="cls-2" d="M293.26,133.75a7.23,7.23,0,0,0-.89.14.48.48,0,0,0,0,.51c-.77.23-1.1.82-1.75,1.15a2.17,2.17,0,0,1,.51.83,2.46,2.46,0,0,1,2.38.87c.15-.12-.62-.69-.09-1l.22,0,1.9,20.19a.61.61,0,0,0-.44-.07.41.41,0,0,0,.48.39l0,.32c-.35.09-.55,0-.67-.15,0,.42.2.72.71.59l.07.76c-.19.27-.86.16-.7.72a.79.79,0,0,0-1,.31c.08.54,0,1.34.56,1.26,0,.27-.37.07-.43,0-.23.27.17.31.37.4-1,.44-.87.23-2.05.3.08.1.26.09.25.3-.87.05-.84.9-.62,1.59-.52-.38-.43-1.51,0-1.53-.26-.73-1-.9-1.25-1.64a2.43,2.43,0,0,1-1.52-.59q.41,2.8.91,5.9L294,165q5.21-19,4.58-25.78Q298,133.31,293.26,133.75Z"/><path class="cls-2" d="M292.47,173.14a7.68,7.68,0,0,0-4.29,1.7c-.17.14-.33.29-.49.45a8.19,8.19,0,0,0-.57.62,7.47,7.47,0,0,0-1.73,4.38h0c0,.12,0,.24,0,.36a9.16,9.16,0,0,0,0,1,6.63,6.63,0,0,0,.52,2.07,5.52,5.52,0,0,0,1.19,1.72,4.23,4.23,0,0,0,1.05.75,4.57,4.57,0,0,0,1.47.45,6.48,6.48,0,0,0,1.48,0,7.65,7.65,0,0,0,3.56-1.21,7.77,7.77,0,0,0,1.77-1.63A8.36,8.36,0,0,0,297,183a7.82,7.82,0,0,0,1.14-5Q297.67,172.65,292.47,173.14Z"/><path class="cls-2" d="M164.66,166.91c-.2,0-.25-.1-.44-.07l0,.43C164.55,167.28,164.72,167.19,164.66,166.91Z"/><path class="cls-2" d="M138.54,163.89c.11-.17.4-.21.51-.38-.07-.06-.54-.2-.54.05C138.88,163.58,138.22,164.22,138.54,163.89Z"/><path class="cls-2" d="M137.82,158.6c-.3.12-.3-.13-.55-.06C137.14,158.9,137.94,159,137.82,158.6Z"/><path class="cls-2" d="M142.12,165.86c-.52.17-1,.4-1.12.87A1.34,1.34,0,0,0,142.12,165.86Z"/><path class="cls-2" d="M235.55,191.77c0,.71-.29,1.09.16,1.63.33-.19.54-.57,1.06-.32-.06-.41-.34-.56-.81-.47a9.58,9.58,0,0,1-.23-1.1l-.8.08A.62.62,0,0,0,235.55,191.77Z"/><path class="cls-2" d="M193,195.13a15.45,15.45,0,0,1-1.64.48,3.32,3.32,0,0,0,2-.11l-.32,0C193,195.4,193,195.26,193,195.13Z"/><path class="cls-2" d="M191.53,190.55c0,.33-.24-.08-.44,0,0,.21.15.23.15.42C191.49,191,191.81,190.64,191.53,190.55Z"/><path class="cls-2" d="M190.15,192.22l.33,0c0-.21-.15-.23-.15-.42C190,191.68,190.16,192,190.15,192.22Z"/><path class="cls-2" d="M195.75,195.85c.42.56.55,1.53.83,1.78s1,.12,1.48.63c.15-.5.49-.21,1.07-.32-.29-.29-1,0-1-.67a1.17,1.17,0,0,1-.95.42,1.14,1.14,0,0,1-.2-1c-.11-.23-.49-.13-.68-.26.08-.62-.27-.85-.45-1.19l-1,.09A1,1,0,0,0,195.75,195.85Z"/><path class="cls-2" d="M200.37,194.84l-.48,0A.87.87,0,0,0,200.37,194.84Z"/><path class="cls-2" d="M258.51,180.85a.22.22,0,0,0-.27-.07c0,.22,0,.45,0,.66h0A.87.87,0,0,1,258.51,180.85Z"/><path class="cls-2" d="M203.71,143.19c-.34,0-.08-.71-.5-.61C203.14,143,203.62,143.38,203.71,143.19Z"/><path class="cls-2" d="M191.19,143.93c-.26,0-.33-.45-.56-.17S191.13,144.19,191.19,143.93Z"/><path class="cls-2" d="M238.27,145c-.15-.2-.82.32-.5.48C237.89,145.26,238.27,145.28,238.27,145Z"/><path class="cls-2" d="M238.24,148.16a.5.5,0,0,1,.08-.33c-.09-.08-.63-.19-.65.06C238,147.85,237.93,148.21,238.24,148.16Z"/><path class="cls-2" d="M158.5,147.89a.51.51,0,0,1-.34-.08c.07.26-.18.25-.06.55C158.47,148.41,158.48,148.15,158.5,147.89Z"/><path class="cls-2" d="M242.26,147.89l0,.44A.23.23,0,1,0,242.26,147.89Z"/><path class="cls-2" d="M254.55,136.44c-.13,0-.18-.1-.24-.2s-.35.11-.41.26C254.29,136.35,254.43,136.92,254.55,136.44Z"/><path class="cls-2" d="M289.2,133.5a2,2,0,0,1-.7-.48C288.45,133.45,289,133.74,289.2,133.5Z"/><path class="cls-2" d="M270,135.75c0-.14.13-.16.08-.34-.21,0-.3-.21-.56-.17C269.55,135.6,269.72,135.75,270,135.75Z"/><path class="cls-2" d="M290.15,133.09c-.3-.08-.2-.65-.6-.6.07.33.47.61.2,1C290,133.44,290.07,133.25,290.15,133.09Z"/><path class="cls-2" d="M240.19,149.07c.17-.16.69,0,.62-.39C240.48,148.71,240.09,148.69,240.19,149.07Z"/><path class="cls-2" d="M238.73,140.55c-.13,0-.26,0-.24-.2.06,0,.12-.1,0-.11.07.3-.39.14-.4.37S238.7,140.8,238.73,140.55Z"/><path class="cls-2" d="M239.7,142.76c.33-.11.24.28.56.16C240.28,142.58,239.74,142.35,239.7,142.76Z"/><path class="cls-2" d="M243.8,138.65c.06-.07.21-.54-.05-.54a.79.79,0,0,1-.19.35c0-.14-.32-.11-.33,0C243.45,138.51,243.54,138.7,243.8,138.65Z"/><path class="cls-2" d="M287.48,140.78c0,.13,0,.18.08.21s0-.12,0-.18Z"/><path class="cls-2" d="M272.31,179.77c.32-1.2,1.88-1.38,2.16-2.61-1.27-.14-1,1.86-2.45,1.87-.73-.54-1.21-1.8-2-2.44.31,1.16,1.08,1.75,1.57,2.7a2,2,0,0,0-.23.66l1-.13Z"/><path class="cls-2" d="M287.07,141a.7.7,0,0,0,.45.6c0-.15,0-.29,0-.43A4.34,4.34,0,0,1,287.07,141Z"/><path class="cls-2" d="M265.61,180.62a1.63,1.63,0,0,0,0-1.31.65.65,0,0,1-.71-.59c.13,0,.26.17.33,0-.21-.19-.63-.13-.71-.48.21-.43.05-1.93-.53-2.14a4.08,4.08,0,0,1,.34,2.49,2.78,2.78,0,0,1,1.1,2.14l.21,0A.36.36,0,0,1,265.61,180.62Z"/><path class="cls-2" d="M286.94,144.34a.57.57,0,0,0,.56,0V144A4.28,4.28,0,0,0,286.94,144.34Z"/><path class="cls-2" d="M270.12,165.74l0-.06h-.06Z"/><path class="cls-2" d="M151.29,147.15a.43.43,0,0,1-.1-.1c-.35,0-.44.24-.86.19,0,.12.22.05.24.2C151,147.51,151,147.18,151.29,147.15Z"/><path class="cls-2" d="M259.22,179.14c.08-.49.24-1-.13-1.41,0,.13-.28.4-.31.14.28-.34.89-.39,1-.86-.93.25-1.35.17-1.59-.62a1,1,0,0,1,0,.11c0,1.06,0,2.1,0,3.13C258.63,179.45,258.8,179.08,259.22,179.14Z"/><path class="cls-2" d="M258.47,180.42a.32.32,0,0,0-.25-.38c0,.17,0,.33,0,.5C258.38,180.62,258.53,180.73,258.47,180.42Z"/><path class="cls-2" d="M194.89,162.63h0l0,0Z"/><path class="cls-2" d="M277,163.67c.45,0,0-1-.38-.51.27,0,.36.13.46.29C277,163.47,277,163.54,277,163.67Z"/><path class="cls-2" d="M193.23,157.65l.1.29a.28.28,0,0,0,.17,0C193.53,157.7,193.31,157.77,193.23,157.65Z"/><path class="cls-2" d="M205.33,174.36c0,.62.39.55.44.07C205.63,174.41,205.56,174.29,205.33,174.36Z"/><path class="cls-2" d="M207.15,194.78c.14.23.18.59.49.61.4-.24,0-.65,0-1.31C207.22,194.1,207.43,194.64,207.15,194.78Z"/><path class="cls-2" d="M278.43,190c.36.06.32-.2.4-.37l-.44,0Z"/><path class="cls-2" d="M208.59,195c0-.18.3-.09.31-.25-.13,0-.13-.16-.14-.32C208.48,194.36,208.4,195,208.59,195Z"/><path class="cls-2" d="M209.05,195.25c-.32,0-.66.05-.62.39.11.15.36.12.56.17A.7.7,0,0,1,209.05,195.25Z"/><path class="cls-2" d="M209.5,195.32c.13.41-.31.5-.58.82.22.15.44-.3.85-.3C209.69,195.66,209.67,195.4,209.5,195.32Z"/><path class="cls-2" d="M210.53,197a1.39,1.39,0,0,0-.63-.82A.89.89,0,0,0,210.53,197Z"/><path class="cls-2" d="M207.38,193.77c-.3,0-.44.23-.38.58C207.28,194.29,207.34,194,207.38,193.77Z"/><path class="cls-2" d="M120.83,189.87l0-.32a.69.69,0,0,0-.55-.06C120.3,189.79,120.48,189.93,120.83,189.87Z"/><path class="cls-2" d="M121.74,198.33c-.12.42-.59,0-.62.39C121.28,198.92,122,198.46,121.74,198.33Z"/><path class="cls-2" d="M120.8,187.14a.3.3,0,0,0,.3-.25c-.58.18-.28-.71-.72-.7C120.32,186.74,120.72,186.74,120.8,187.14Z"/><path class="cls-2" d="M122.59,193.43c-.12-.34.06-.42.17-.56-.6-.27-.17.43-.61.5C122.3,193.38,122.37,193.5,122.59,193.43Z"/><path class="cls-2" d="M120.85,166.76c.31-.29-.53-.65-.56-.16C120.62,166.47,120.71,166.66,120.85,166.76Z"/><path class="cls-2" d="M207.11,178.14l0,.43c.27,0,.24-.27.4-.37C207.41,178.18,207.33,178.07,207.11,178.14Z"/><path class="cls-2" d="M129.86,178.73c.39-.34.69-.31.81-.73A.83.83,0,0,0,129.86,178.73Z"/><path class="cls-2" d="M121.08,168.06c-.61,0-.43.24-.5.49C120.88,168.49,120.85,168.17,121.08,168.06Z"/><path class="cls-2" d="M123.31,187.12c-.29-.2-1,.07-.62.39C122.67,187,123.24,187.37,123.31,187.12Z"/><path class="cls-2" d="M208.16,181.1c-.07-.26.5,0,.3-.36S207.8,181,208.16,181.1Z"/><path class="cls-2" d="M295.57,187.22c.32-.11.41.07.66,0C296.27,186.79,295.64,187,295.57,187.22Z"/><path class="cls-2" d="M265,146.4a2.08,2.08,0,0,1,.17-.57l-.74.05,0,0C264.63,146,265,145.77,265,146.4Z"/><path class="cls-2" d="M186.51,145.36c-.33.15-.24,0-.65.06C185.91,145.8,186.64,145.58,186.51,145.36Z"/><path class="cls-2" d="M182.55,147.49c.34,0,.3-.22.64-.17,0-.41-.28-.47-.5-.61-.11.49-.14.18-.43,0C182,147.09,182.64,147,182.55,147.49Z"/><path class="cls-2" d="M177.39,148.52c-.08-.22.07-.72-.18-.75C177.17,148,177,148.5,177.39,148.52Z"/><path class="cls-2" d="M197.48,193.28c.28-.07.28-.37.38-.58C197.48,192.69,197.3,193.12,197.48,193.28Z"/><path class="cls-2" d="M192.26,157.63c-.18.21.07.42.37.4C192.63,157.75,192.54,157.57,192.26,157.63Z"/><path class="cls-2" d="M196.59,191.94c-.14,0-.56-.27-.55-.06S196.51,192.38,196.59,191.94Z"/><path class="cls-2" d="M198,193.33c.13,0,.13.16.14.32a.47.47,0,0,0,.41-.26c-.09,0-.13-.08-.13-.21C198.2,193.35,198.11,193.16,198,193.33Z"/><path class="cls-2" d="M193.1,163c-.07-.24-.27-.32-.38-.51.15.39-.35.25-.39.48C192.8,163,192.81,162.78,193.1,163Z"/><path class="cls-2" d="M185.44,145.68c-.33.09-.47-.21-.53.16C185,145.92,185.58,146.06,185.44,145.68Z"/><path class="cls-2" d="M195.46,192.81l0-.43c-.25,0-.41.06-.41.25C195.23,192.62,195.18,192.92,195.46,192.81Z"/><path class="cls-2" d="M196.13,170.85c-.34,0-.66.06-.74.29C195.68,171.36,195.9,171,196.13,170.85Z"/><path class="cls-2" d="M211.06,143.62q.63,8.3.57,20.4h0a.65.65,0,0,0,0,.14c0,.18,0,.36,0,.54v.21c0,.73,0,1.47,0,2.22q-.15,6.77-.27,11.91c0,.24,0,.47,0,.7-.56.68-1.34,1.29-2,.91a7.77,7.77,0,0,1,.22,1.18c0-.12.16-.28.21-.13-.11.4-.45,1.9.25,1.51-.09.52.89,1.15.39,1.83.06.53.46.65.45,1.27l.28.08c0,.07,0,.15,0,.22h0a1.6,1.6,0,0,0,0,.23q0,1-.06,1.91c-.08,2.34-.15,4-.22,5.09l6.54-.62,1.38-.13,7.62-.72a10.89,10.89,0,0,0,1.81,1.28c.16-.06-.06-.14,0-.33,1.09.29,1.55-1.47,2.59-.46.42-.05,1.15-.8,1.39-.35.2,0,0-.37.18-.46a21,21,0,0,1,2.41,0c.12-.12-.1-.29-.09-.46l-3.07.29a3.48,3.48,0,0,0,1.23-.53c1.81,0,3.07-2,5.25-2.36.52-.68.49-1,.23-2.21.13,0,.31,0,.32-.14-.46-.77.32-1.17.48-1.91s-.21-.73.12-1,.44,0,.53-.16c-.38,0-.21-.51-.18-.75l-.12-.11q-10.68,1.48-18.93,2.26.36-7,.5-18.75.43-19.46.73-23.92c0-.16,0-.31,0-.44l-10.74,1C211,143.14,211,143.38,211.06,143.62Z"/><path class="cls-2" d="M255.72,168.63c-.29,0-.64,0-.63.28C255.3,168.82,255.85,169,255.72,168.63Z"/><path class="cls-2" d="M273.62,183.15c0-.5-.44-.51-.62-.82A.9.9,0,0,0,273.62,183.15Z"/><path class="cls-2" d="M288.88,142.84c0,.43.26.57.7.48a6.28,6.28,0,0,0-.4-.73C289.21,142.79,289.1,142.86,288.88,142.84Z"/><path class="cls-2" d="M292.92,142.68a.92.92,0,0,1,.66,0l0-.33A.88.88,0,0,0,292.92,142.68Z"/></g></g></svg>