<svg xmlns="http://www.w3.org/2000/svg" xmlns:xlink="http://www.w3.org/1999/xlink" viewBox="0 0 588.64 192.88"><defs><style>.cls-1{fill:url(#linear-gradient);}.cls-2{fill:#f15a24;}.cls-3{fill:#f90606;}.cls-4{fill:#720310;}.cls-5{fill:url(#linear-gradient-2);}</style><linearGradient id="linear-gradient" y1="123.06" x2="61.33" y2="123.06" gradientUnits="userSpaceOnUse"><stop offset="0.05" stop-color="#ed1c24"/><stop offset="0.34" stop-color="#ed1c24"/><stop offset="0.57" stop-color="#96111b"/><stop offset="0.72" stop-color="#c1272d"/><stop offset="0.95" stop-color="#ed1c24"/></linearGradient><linearGradient id="linear-gradient-2" x1="588.64" y1="86.22" x2="44.38" y2="86.22" gradientUnits="userSpaceOnUse"><stop offset="0" stop-color="#c1272d"/><stop offset="0.01" stop-color="#d0232a"/><stop offset="0.04" stop-color="#e51e26"/><stop offset="0.05" stop-color="#ed1c24"/><stop offset="0.23" stop-color="#96111b"/><stop offset="0.34" stop-color="#c1272d"/><stop offset="0.52" stop-color="#f91c06"/><stop offset="0.82" stop-color="#fc9fa6"/><stop offset="0.95" stop-color="#ed1c24"/></linearGradient></defs><title>Ресурс 45ribbon</title><g id="Слой_2" data-name="Слой 2"><g id="Layer_1" data-name="Layer 1"><path class="cls-1" d="M0,192.88s18-51.07,31.44-67.37c0,0-8.76-38-26.8-54.34,0,0,16-17.39,56.69-17.93v126.6S28.35,180.38,0,192.88Z"/><path class="cls-2" d="M9.52,77l-.69-1.27s2.11-1.14,5.42-2.71l.62,1.31C11.59,75.88,9.54,77,9.52,77Z"/><path class="cls-2" d="M19,72.43l-.58-1.32c3.13-1.39,6.23-2.64,9.2-3.73l.5,1.36C25.14,69.81,22.08,71.06,19,72.43Zm13.38-5.18-.45-1.37a87.63,87.63,0,0,1,9.62-2.58l.29,1.41A86.69,86.69,0,0,0,32.35,67.25Z"/><path class="cls-2" d="M46.23,64l-.17-1.43a37.86,37.86,0,0,1,6.12-.28l-.06,1.44A36.62,36.62,0,0,0,46.23,64Z"/><path class="cls-2" d="M5.08,184l-.49-1.36s2.2-.79,5.74-1.91l.44,1.38C7.26,183.17,5.1,183.94,5.08,184Z"/><path class="cls-2" d="M16.79,180.23l-.4-1.39c4.55-1.33,9-2.5,13.31-3.5l.33,1.41C25.77,177.74,21.32,178.91,16.79,180.23Zm19.38-4.8L35.89,174c4.91-1,9.5-1.67,13.64-2.07l.14,1.44C45.58,173.78,41,174.47,36.18,175.43Z"/><path class="cls-2" d="M61.85,173.15a56.76,56.76,0,0,0-5.92-.16l0-1.44a58,58,0,0,1,6.08.16Z"/><path class="cls-2" d="M9.52,75.55l-.69-1.27s2.11-1.14,5.42-2.71l.62,1.3C11.59,74.43,9.54,75.54,9.52,75.55Z"/><path class="cls-2" d="M19,71l-.58-1.32c3.13-1.39,6.23-2.64,9.2-3.73l.5,1.36C25.14,68.37,22.08,69.61,19,71Zm13.38-5.18-.45-1.37a87.45,87.45,0,0,1,9.62-2.58l.29,1.42A86.9,86.9,0,0,0,32.35,65.81Z"/><path class="cls-3" d="M46.23,62.55l-.17-1.43a38,38,0,0,1,6.12-.28l-.06,1.44A36.75,36.75,0,0,0,46.23,62.55Z"/><path class="cls-2" d="M4.72,182.87l-.49-1.36s2.2-.79,5.74-1.91l.44,1.38C6.9,182.09,4.74,182.86,4.72,182.87Z"/><path class="cls-2" d="M16.43,179.15l-.4-1.39c4.55-1.33,9-2.5,13.31-3.5l.33,1.41C25.41,176.66,21,177.83,16.43,179.15Zm19.38-4.8-.28-1.42c4.91-1,9.5-1.67,13.64-2.07l.14,1.44C45.22,172.69,40.68,173.38,35.82,174.35Z"/><path class="cls-3" d="M61.49,172.07a56.49,56.49,0,0,0-5.92-.16l0-1.45a58.26,58.26,0,0,1,6.08.16Z"/><path class="cls-4" d="M44.38,157.87s-7.73,16.84,18,21.73V147S47.46,153,44.38,157.87Z"/><path class="cls-5" d="M46.44,40.51,44.38,157.87S114.47,102.45,231,142.66c0,0,162.87,45.64,321.62,23.91l36.08-63-33-66.29s-90.71,13-230.9-7.61c0,0-67-13-115.45-22.82C209.31,6.82,93.86-22.52,46.44,40.51Z"/><path class="cls-2" d="M47.84,46.87l-1-1.07c.07-.06,1.65-1.49,4.77-3.79l.86,1.16C49.44,45.43,47.85,46.86,47.84,46.87Z"/><path class="cls-2" d="M465.59,50.82h-.13V49.37h.13c3.93,0,7.89,0,11.79-.09l0,1.44C473.5,50.79,469.53,50.82,465.59,50.82Zm-5.62,0c-3.95,0-8-.09-11.94-.17l0-1.45c4,.09,8,.14,11.92.17Zm22.92-.17,0-1.45c4-.09,8-.21,11.91-.36l.05,1.44C490.89,50.42,486.88,50.54,482.89,50.63Zm-40.35-.14c-3.94-.11-8-.25-11.93-.42l.06-1.44c4,.17,8,.31,11.91.42ZM500.31,50l-.06-1.44c4-.18,8-.4,11.9-.64l.09,1.44C508.29,49.64,504.28,49.85,500.31,50Zm-75.19-.21c-3.94-.19-7.95-.41-11.92-.66l.09-1.44c4,.24,8,.46,11.9.65Zm92.59-.8-.1-1.44c4-.28,8-.6,11.88-.94l.13,1.44C525.68,48.43,521.68,48.74,517.71,49Zm-110-.21c-3.95-.27-8-.56-11.91-.88l.12-1.44c4,.32,8,.62,11.89.88Zm127.36-1.25-.14-1.44c4-.38,7.95-.81,11.85-1.26L547,46.3C543,46.76,539,47.18,535.08,47.57Zm-144.75-.09c-3.94-.34-7.94-.71-11.89-1.1l.14-1.44c3.94.39,7.94.76,11.87,1.1ZM373,45.82c-3.93-.41-7.92-.85-11.87-1.32l.17-1.43c3.94.46,7.93.9,11.85,1.31Zm-17.32-2c-3.92-.48-7.9-1-11.85-1.52l.19-1.43c3.94.53,7.92,1,11.83,1.52Zm-17.29-2.27c-3.91-.55-7.89-1.13-11.82-1.73l.22-1.43c3.92.6,7.89,1.18,11.8,1.73ZM57,40.05l-.8-1.2c3.2-2.14,6.65-4.24,10.24-6.24l.7,1.26C63.55,35.86,60.14,37.93,57,40.05Zm264.16-1c-3.91-.62-7.88-1.27-11.79-1.93l.24-1.42c3.9.66,7.86,1.31,11.77,1.93Zm-17.2-2.87c-3.92-.69-7.87-1.41-11.75-2.14l.27-1.42c3.88.73,7.83,1.45,11.74,2.13ZM286.77,33c-3.94-.76-7.88-1.55-11.71-2.35l.29-1.42c3.83.8,7.77,1.59,11.7,2.35ZM71.92,31.3,71.26,30c3.5-1.8,7.14-3.51,10.84-5.1l.57,1.33C79,27.81,75.39,29.52,71.92,31.3Zm197.76-1.82c-4-.85-7.88-1.72-11.67-2.58l.32-1.41c3.78.87,7.7,1.73,11.65,2.58Zm-17-3.83c-5.22-1.24-9.2-2.25-11.62-2.87l.36-1.4c2.41.63,6.38,1.63,11.59,2.87ZM87.72,24.15l-.53-1.34c3.67-1.45,7.46-2.81,11.27-4l.44,1.38C95.12,21.36,91.36,22.71,87.72,24.15Zm148-2.83c-3.82-1.11-7.69-2.15-11.48-3.09l.35-1.4c3.82.95,7.7,2,11.54,3.11ZM104.12,18.54l-.4-1.39c3.79-1.11,7.69-2.12,11.59-3l.32,1.41C111.76,16.43,107.89,17.44,104.12,18.54ZM218.9,17c-3.88-.88-7.8-1.69-11.65-2.4l.26-1.42c3.87.71,7.81,1.52,11.71,2.41ZM121,14.42,120.69,13c3.88-.77,7.85-1.44,11.8-2l.2,1.43C128.76,13,124.82,13.65,121,14.42Zm80.88-.79C197.93,13,194,12.44,190.08,12l.17-1.44c3.91.45,7.9,1,11.84,1.64Zm-63.74-1.87L138,10.32c3.92-.44,7.94-.78,11.92-1l.08,1.44C146,11,142,11.32,138.11,11.76Zm46.52-.33c-4-.37-7.95-.64-11.86-.81l.06-1.44c3.94.17,8,.45,11.93.82Zm-29.22-.92,0-1.44c2.41-.08,4.87-.12,7.3-.12,1.54,0,3.11,0,4.66,0l0,1.44c-1.54,0-3.1,0-4.63,0C160.26,10.39,157.81,10.43,155.42,10.51Z"/><path class="cls-2" d="M552.26,45.67l-.18-1.43,6-.78.19,1.43C556.27,45.15,554.25,45.42,552.26,45.67Z"/><path class="cls-2" d="M47.85,149.46l-1-1.06a53.34,53.34,0,0,1,4.79-3.78l.84,1.17A53.32,53.32,0,0,0,47.85,149.46Z"/><path class="cls-2" d="M467.27,165.37h-3.46v-1.45h3.45c2.79,0,5.62,0,8.4-.05l0,1.44C472.9,165.36,470.07,165.37,467.27,165.37Zm-8.91-.06c-3.91,0-7.91-.13-11.88-.24l0-1.44c4,.11,7.95.19,11.85.24Zm22.79-.08,0-1.44c4-.08,7.95-.2,11.84-.35l.05,1.44C489.11,165,485.12,165.15,481.15,165.23ZM441,164.9c-3.92-.14-7.91-.31-11.87-.51l.07-1.44c3.95.2,7.94.37,11.85.51Zm57.45-.24-.07-1.44c4-.19,7.93-.41,11.83-.67l.1,1.44C506.43,164.24,502.44,164.47,498.48,164.65Zm-74.78-.56c-3.9-.22-7.89-.48-11.85-.76l.1-1.44c4,.28,7.94.54,11.83.76Zm92.08-.5-.11-1.44c4-.3,7.92-.64,11.8-1l.14,1.44C523.73,163,519.74,163.29,515.78,163.6Zm-109.39-.67c-3.91-.31-7.89-.64-11.84-1l.13-1.44c3.94.36,7.92.7,11.82,1Zm126.66-.9-.15-1.44c3.94-.42,7.9-.89,11.76-1.39l.19,1.43C541,161.13,537,161.6,533.05,162Zm-143.93-.62c-3.9-.38-7.88-.8-11.81-1.24l.16-1.44c3.93.44,7.9.85,11.8,1.23Zm-17.24-1.85c-3.9-.46-7.87-.95-11.79-1.46l.19-1.43c3.92.51,7.88,1,11.77,1.45Zm-17.21-2.17c-3.89-.53-7.85-1.09-11.76-1.67l.21-1.43c3.91.58,7.86,1.14,11.74,1.66Zm-17.16-2.48c-3.89-.6-7.84-1.23-11.73-1.87l.24-1.42c3.89.65,7.83,1.27,11.71,1.87Zm-17.12-2.78c-3.89-.67-7.83-1.37-11.7-2.08l.26-1.42c3.86.71,7.79,1.41,11.68,2.08ZM303.32,149c-3.89-.74-7.81-1.5-11.66-2.28l.29-1.42c3.85.78,7.76,1.54,11.64,2.28Zm-17-3.38c-3.89-.81-7.8-1.65-11.62-2.49l.31-1.41c3.81.84,7.72,1.68,11.6,2.49ZM57,142.76l-.78-1.22c3.22-2.05,6.71-4,10.37-5.89l.65,1.29C63.62,138.78,60.17,140.73,57,142.76Zm212.37-.8c-3.93-.89-7.82-1.81-11.57-2.72l.34-1.4c3.74.91,7.63,1.82,11.55,2.72Zm-16.88-4c-5.67-1.42-9.65-2.5-11.52-3l.38-1.39c1.86.51,5.83,1.59,11.48,3ZM72.13,134.57l-.6-1.31c3.54-1.62,7.24-3.15,11-4.54l.5,1.36C79.3,131.45,75.63,133,72.13,134.57Zm163.57-1.27c-3.79-1.17-7.62-2.29-11.36-3.32l.38-1.39c3.76,1,7.6,2.15,11.41,3.33Zm-16.62-4.72c-3.85-1-7.72-1.92-11.51-2.75l.31-1.41c3.81.84,7.7,1.77,11.56,2.76Zm-130.9-.29-.45-1.37c3.71-1.22,7.56-2.34,11.44-3.32l.35,1.4C95.67,126,91.85,127.09,88.17,128.3Zm114.07-3.59c-3.89-.79-7.81-1.5-11.64-2.12l.23-1.43c3.85.62,7.79,1.34,11.7,2.13Zm-97.44-1-.31-1.41c3.82-.84,7.75-1.58,11.7-2.2l.22,1.43C112.5,122.18,108.59,122.91,104.8,123.75Zm80.42-2c-3.93-.56-7.88-1-11.74-1.42l.14-1.44c3.88.38,7.86.87,11.81,1.43Zm-63.42-1-.18-1.43c3.88-.49,7.86-.89,11.84-1.17l.1,1.44C129.6,119.92,125.64,120.31,121.79,120.8Zm46.26-.94c-4-.31-7.93-.52-11.81-.64l0-1.44c3.9.12,7.9.34,11.88.65ZM139,119.34l-.06-1.44c3.33-.15,6.73-.22,10.12-.22h1.77v1.44H149C145.67,119.11,142.29,119.19,139,119.34Z"/><path class="cls-2" d="M550.12,159.91l-.2-1.43c2-.28,4-.57,5.95-.87l.22,1.43C554.12,159.34,552.11,159.63,550.12,159.91Z"/><path class="cls-2" d="M47.84,48.32l-1-1.07c.07-.06,1.65-1.49,4.77-3.79l.86,1.16C49.44,46.88,47.85,48.31,47.84,48.32Z"/><path class="cls-2" d="M465.59,52.26h-.13V50.82h.13c3.93,0,7.89,0,11.79-.09l0,1.45C473.5,52.23,469.53,52.26,465.59,52.26Zm-5.62,0c-3.95,0-8-.09-11.94-.17l0-1.44c4,.09,8,.14,11.92.17Zm22.92-.17,0-1.44c4-.09,8-.21,11.91-.36l.05,1.44C490.89,51.86,486.88,52,482.89,52.07Zm-40.35-.13c-3.94-.11-8-.25-11.93-.42l.06-1.44c4,.17,8,.31,11.91.42Zm57.77-.46L500.24,50c4-.18,8-.4,11.9-.64l.09,1.44C508.29,51.08,504.28,51.3,500.31,51.48Zm-75.19-.21c-3.94-.19-7.95-.41-11.92-.66l.09-1.44c4,.25,8,.46,11.9.65Zm92.59-.8-.1-1.44c4-.28,8-.6,11.88-.95l.13,1.44C525.68,49.87,521.68,50.19,517.71,50.47Zm-110-.21c-3.95-.27-8-.56-11.91-.88l.12-1.44c4,.32,8,.61,11.89.88ZM535.08,49l-.14-1.44c4-.38,7.95-.81,11.85-1.26l.17,1.44C543,48.2,539,48.63,535.08,49Zm-144.75-.09c-3.94-.34-7.94-.71-11.89-1.1l.14-1.44c3.94.39,7.94.76,11.87,1.1ZM373,47.26c-3.93-.41-7.92-.85-11.87-1.32l.17-1.43c3.94.46,7.93.9,11.85,1.31Zm-17.32-2c-3.92-.48-7.9-1-11.85-1.52l.19-1.43c3.94.53,7.92,1,11.83,1.52ZM338.37,43c-3.91-.55-7.89-1.13-11.82-1.73l.22-1.43c3.92.6,7.89,1.18,11.8,1.73ZM57,41.5l-.8-1.2c3.2-2.14,6.65-4.24,10.24-6.24l.7,1.26C63.55,37.3,60.14,39.38,57,41.5Zm264.16-1c-3.91-.62-7.88-1.27-11.79-1.93l.24-1.42c3.9.66,7.86,1.31,11.77,1.93Zm-17.2-2.87c-3.92-.69-7.87-1.41-11.75-2.14l.27-1.42c3.88.73,7.83,1.45,11.74,2.13Zm-17.15-3.17c-3.94-.76-7.88-1.56-11.71-2.35l.29-1.42c3.83.79,7.77,1.58,11.7,2.35ZM71.92,32.74l-.66-1.29c3.5-1.8,7.14-3.51,10.84-5.1l.57,1.33C79,29.26,75.39,31,71.92,32.74Zm197.76-1.82c-4-.85-7.88-1.71-11.67-2.58l.32-1.41c3.78.86,7.7,1.73,11.65,2.58Zm-17-3.83c-5.22-1.24-9.2-2.25-11.62-2.87l.36-1.4c2.41.63,6.38,1.63,11.59,2.86ZM87.72,25.6l-.53-1.34c3.67-1.45,7.46-2.81,11.27-4l.44,1.38C95.12,22.81,91.36,24.16,87.72,25.6Zm148-2.83c-3.82-1.11-7.69-2.15-11.48-3.09l.35-1.4c3.82.95,7.7,2,11.54,3.11ZM104.12,20l-.4-1.39c3.79-1.11,7.69-2.12,11.59-3l.32,1.41C111.76,17.88,107.89,18.88,104.12,20ZM218.9,18.4c-3.88-.88-7.8-1.69-11.65-2.4l.26-1.42c3.87.71,7.81,1.52,11.71,2.41ZM121,15.86l-.28-1.42c3.88-.77,7.85-1.44,11.8-2l.2,1.43C128.76,14.43,124.82,15.1,121,15.86Zm80.88-.79c-3.93-.64-7.89-1.19-11.78-1.64l.17-1.43c3.91.45,7.9,1,11.84,1.64ZM138.11,13.2,138,11.77c3.92-.44,7.94-.78,11.92-1L150,12.2C146,12.43,142,12.76,138.11,13.2Zm46.52-.33c-4-.37-7.95-.64-11.86-.81l.06-1.44c3.94.17,8,.45,11.93.82ZM155.42,12l0-1.44c2.41-.08,4.87-.12,7.3-.12,1.54,0,3.11,0,4.66,0l0,1.45c-1.54,0-3.1,0-4.63,0C160.26,11.84,157.81,11.88,155.42,12Z"/><path class="cls-2" d="M552.26,47.11l-.18-1.43c2-.25,4-.51,6-.78l.19,1.43Z"/><path class="cls-2" d="M47.85,150.9l-1-1.06a53.66,53.66,0,0,1,4.79-3.78l.84,1.17A53.32,53.32,0,0,0,47.85,150.9Z"/><path class="cls-2" d="M467.27,166.82h-3.46v-1.44h3.45c2.79,0,5.62,0,8.4,0l0,1.44C472.9,166.8,470.07,166.82,467.27,166.82Zm-8.91-.05c-3.91,0-7.91-.13-11.88-.24l0-1.44c4,.11,7.95.19,11.85.24Zm22.79-.08,0-1.45c4-.08,7.95-.2,11.84-.34l.05,1.44C489.11,166.48,485.12,166.6,481.15,166.68ZM441,166.34c-3.92-.14-7.91-.31-11.87-.51l.07-1.44c3.95.2,7.94.37,11.85.51Zm57.45-.24-.07-1.44c4-.19,7.93-.41,11.83-.67l.1,1.44C506.43,165.69,502.44,165.91,498.48,166.1Zm-74.78-.56c-3.9-.22-7.89-.48-11.85-.76l.1-1.44c4,.28,7.94.54,11.83.76Zm92.08-.5-.11-1.44c4-.3,7.92-.64,11.8-1l.14,1.44C523.73,164.4,519.74,164.74,515.78,165Zm-109.39-.67c-3.91-.31-7.89-.64-11.84-1l.13-1.44c3.94.36,7.92.7,11.82,1Zm126.66-.9L532.9,162c3.94-.42,7.9-.89,11.76-1.39l.19,1.43C541,162.57,537,163,533.05,163.47Zm-143.93-.62c-3.9-.38-7.88-.8-11.81-1.24l.16-1.44c3.93.44,7.9.85,11.8,1.23ZM371.88,161c-3.9-.46-7.87-.95-11.79-1.46l.19-1.43c3.92.51,7.88,1,11.77,1.45Zm-17.21-2.17c-3.89-.53-7.85-1.09-11.76-1.67l.21-1.43c3.91.58,7.86,1.14,11.74,1.66Zm-17.16-2.48c-3.89-.6-7.84-1.23-11.73-1.87L326,153c3.89.65,7.83,1.28,11.71,1.87Zm-17.12-2.78c-3.89-.67-7.83-1.37-11.7-2.08l.26-1.42c3.86.71,7.79,1.41,11.68,2.08Zm-17.07-3.08c-3.89-.74-7.81-1.5-11.66-2.28l.29-1.42c3.85.78,7.76,1.54,11.64,2.28Zm-17-3.38c-3.89-.81-7.8-1.65-11.62-2.49l.31-1.41c3.81.84,7.72,1.68,11.6,2.49ZM57,144.2,56.21,143c3.22-2.05,6.71-4,10.37-5.89l.65,1.29C63.62,140.22,60.17,142.18,57,144.2Zm212.37-.8c-3.93-.9-7.82-1.81-11.57-2.72l.34-1.4c3.74.91,7.63,1.82,11.55,2.72Zm-16.88-4c-5.67-1.42-9.65-2.5-11.52-3l.38-1.39c1.86.51,5.83,1.59,11.48,3ZM72.13,136l-.6-1.31c3.54-1.62,7.24-3.15,11-4.53l.5,1.36C79.3,132.9,75.63,134.41,72.13,136Zm163.57-1.26c-3.79-1.17-7.62-2.29-11.36-3.32l.38-1.39c3.76,1,7.6,2.15,11.41,3.33ZM219.08,130c-3.85-1-7.72-1.92-11.51-2.75l.31-1.41c3.81.84,7.7,1.77,11.56,2.76Zm-130.9-.29-.45-1.37c3.71-1.22,7.56-2.34,11.44-3.32l.35,1.4C95.67,127.42,91.85,128.53,88.17,129.74Zm114.07-3.59c-3.89-.79-7.81-1.5-11.64-2.12l.23-1.43c3.85.62,7.79,1.34,11.7,2.13Zm-97.44-1-.31-1.41c3.82-.84,7.75-1.58,11.7-2.2l.22,1.43C112.5,123.62,108.59,124.36,104.8,125.19Zm80.42-2c-3.93-.56-7.88-1-11.74-1.42l.14-1.44c3.88.38,7.86.86,11.81,1.43Zm-63.42-1-.18-1.43c3.88-.5,7.86-.89,11.84-1.17l.1,1.44C129.6,121.37,125.64,121.76,121.79,122.25Zm46.26-.94c-4-.31-7.93-.53-11.81-.64l0-1.44c3.9.12,7.9.34,11.88.65ZM139,120.78l-.06-1.44c3.33-.15,6.73-.22,10.12-.22h1.77v1.45H149C145.67,120.56,142.29,120.63,139,120.78Z"/><path class="cls-2" d="M550.12,161.36l-.2-1.43c2-.28,4-.57,5.95-.87l.22,1.43C554.12,160.78,552.11,161.08,550.12,161.36Z"/></g></g></svg>