<svg xmlns="http://www.w3.org/2000/svg" xmlns:xlink="http://www.w3.org/1999/xlink" viewBox="0 0 410.44 149.21"><defs><style>.cls-1{fill:#aa1307;}.cls-2{fill:url(#linear-gradient);}.cls-3{fill:url(#linear-gradient-2);}</style><linearGradient id="linear-gradient" x1="180.28" x2="180.28" y2="136.27" gradientTransform="translate(24.9)" gradientUnits="userSpaceOnUse"><stop offset="0" stop-color="#f4210b"/><stop offset="0.35" stop-color="#f2210b"/><stop offset="0.55" stop-color="#e91f0a"/><stop offset="0.71" stop-color="#dc1c0a"/><stop offset="0.85" stop-color="#c81909"/><stop offset="0.98" stop-color="#af1407"/><stop offset="1" stop-color="#aa1307"/></linearGradient><linearGradient id="linear-gradient-2" x1="1111.96" y1="14.79" x2="1111.96" y2="0.78" gradientTransform="matrix(-1, 0, 0, 1, 1320.11, 0)" gradientUnits="userSpaceOnUse"><stop offset="0.12" stop-color="#f4210b"/><stop offset="0.2" stop-color="#f42b16"/><stop offset="0.34" stop-color="#f64634"/><stop offset="0.52" stop-color="#f87264"/><stop offset="0.74" stop-color="#fbaea6"/><stop offset="0.99" stop-color="#fffbfa"/><stop offset="1" stop-color="#fff"/></linearGradient></defs><title>Ресурс 39ribbon</title><g id="Слой_2" data-name="Слой 2"><g id="Layer_1" data-name="Layer 1"><path class="cls-1" d="M388.82,149.06c1.43-.29,21.92-9.6,21.61-17.54v9.83a4.72,4.72,0,0,1-1.36,3.17C406.7,147,400.44,149.9,388.82,149.06Z"/><path class="cls-1" d="M389.05,116s21.07-3.11,21.07,18.68c0,0,.69,9.72-21.3,14.39Z"/><path class="cls-2" d="M387.44.12H47.86l-.22,0H19.24C8.61.1,0,16.06,0,35.74V83.26c0,19.68,8.61,35.64,19.24,35.64h28.4a10.66,10.66,0,0,0,3-.47H386.53c19.78-1.16,23.31,11.36,23.83,17.84V21.92C405.76-3,387.44.12,387.44.12Z"/><path class="cls-3" d="M16.49.78h373.7s13.74,3.12,16.49,14c0,0-11.91-7.78-24.74-7.78H9.62Z"/><path class="cls-1" d="M8.59,113H391.73s12.75,2.29,16.65,15.09c0,0-12.33-9.22-24.42-9.22H19.24Z"/></g></g></svg>