<svg xmlns="http://www.w3.org/2000/svg" xmlns:xlink="http://www.w3.org/1999/xlink" viewBox="0 0 469.35 270.04"><defs><style>.cls-1{fill:url(#linear-gradient);}.cls-2{fill:url(#linear-gradient-2);}.cls-3{fill:url(#linear-gradient-3);}.cls-4{fill:url(#linear-gradient-4);}.cls-5{fill:url(#linear-gradient-5);}.cls-6{fill:url(#linear-gradient-6);}.cls-7{fill:url(#linear-gradient-7);}.cls-8{fill:url(#linear-gradient-8);}.cls-9{fill:url(#linear-gradient-9);}.cls-10{fill:url(#linear-gradient-10);}.cls-11{fill:url(#linear-gradient-11);}.cls-12{fill:url(#linear-gradient-12);}.cls-13{fill:url(#linear-gradient-13);}.cls-14{fill:url(#linear-gradient-14);}.cls-15{fill:#fbfa2f;}.cls-16{fill:url(#linear-gradient-15);}.cls-17{fill:url(#linear-gradient-16);}.cls-18{fill:url(#linear-gradient-17);}.cls-19{fill:url(#linear-gradient-18);}.cls-20{fill:url(#linear-gradient-19);}.cls-21{fill:url(#linear-gradient-20);}.cls-22{fill:#d7d7d7;}.cls-23{fill:url(#linear-gradient-21);}.cls-24{fill:#b2b2b2;}.cls-25{fill:#f9f9f9;}.cls-26{fill:url(#linear-gradient-22);}.cls-27{fill:url(#linear-gradient-23);}.cls-28{fill:url(#linear-gradient-24);}.cls-29{fill:url(#linear-gradient-25);}.cls-30{fill:url(#linear-gradient-26);}.cls-31{fill:#fff;}</style><linearGradient id="linear-gradient" x1="-1851.4" y1="-467.13" x2="-1851.4" y2="-465.75" gradientTransform="matrix(-0.33, -0.94, 1.52, -0.53, 281.09, -1928.68)" gradientUnits="userSpaceOnUse"><stop offset="0.01" stop-color="#fca306"/><stop offset="0.05" stop-color="#fbb707"/><stop offset="0.11" stop-color="#f9d307"/><stop offset="0.16" stop-color="#f7e408"/><stop offset="0.2" stop-color="#f7ea08"/><stop offset="0.39" stop-color="#f9f118"/><stop offset="0.6" stop-color="#fbfa2f"/></linearGradient><linearGradient id="linear-gradient-2" x1="-1851.31" y1="-474.57" x2="-1851.31" y2="-474.05" xlink:href="#linear-gradient"/><linearGradient id="linear-gradient-3" x1="-1851.29" y1="-499.14" x2="-1851.29" y2="-498.48" xlink:href="#linear-gradient"/><linearGradient id="linear-gradient-4" x1="-1851.31" y1="-536.95" x2="-1851.31" y2="-536.55" xlink:href="#linear-gradient"/><linearGradient id="linear-gradient-5" x1="-1851.43" y1="-499.99" x2="-1851.43" y2="-499.62" xlink:href="#linear-gradient"/><linearGradient id="linear-gradient-6" x1="-1851.39" y1="-529.35" x2="-1851.39" y2="-528.98" xlink:href="#linear-gradient"/><linearGradient id="linear-gradient-7" x1="-2002.3" y1="-499.42" x2="-2002.3" y2="-499.29" xlink:href="#linear-gradient"/><linearGradient id="linear-gradient-8" x1="-1851.4" y1="-465.77" x2="-1851.4" y2="-465.73" xlink:href="#linear-gradient"/><linearGradient id="linear-gradient-9" x1="-1927.45" y1="-419.76" x2="-1927.45" y2="-593.95" gradientTransform="matrix(-0.33, -0.94, 1.52, -0.53, 281.09, -1928.68)" gradientUnits="userSpaceOnUse"><stop offset="0" stop-color="#89040e"/><stop offset="0.29" stop-color="#ed1c24"/></linearGradient><linearGradient id="linear-gradient-10" x1="-1888.98" y1="-586.44" x2="-1888.98" y2="-586.27" xlink:href="#linear-gradient"/><linearGradient id="linear-gradient-11" x1="-1939.93" y1="-590.67" x2="-1939.93" y2="-589.47" xlink:href="#linear-gradient"/><linearGradient id="linear-gradient-12" x1="-1939.83" y1="-589.47" x2="-1939.83" y2="-589.15" xlink:href="#linear-gradient"/><linearGradient id="linear-gradient-13" x1="-1886.88" y1="-589.53" x2="-1886.88" y2="-589.31" xlink:href="#linear-gradient"/><linearGradient id="linear-gradient-14" x1="-1939.62" y1="-593.88" x2="-1939.62" y2="-592.61" xlink:href="#linear-gradient"/><linearGradient id="linear-gradient-15" x1="-1850.52" y1="-473.54" x2="-1850.52" y2="-473.49" xlink:href="#linear-gradient"/><linearGradient id="linear-gradient-16" x1="-1851.13" y1="-465.79" x2="-1851.13" y2="-465.76" xlink:href="#linear-gradient"/><linearGradient id="linear-gradient-17" x1="-1851.11" y1="-475.01" x2="-1851.11" y2="-474.57" xlink:href="#linear-gradient"/><linearGradient id="linear-gradient-18" x1="-1851.24" y1="-464.76" x2="-1851.24" y2="-464.76" xlink:href="#linear-gradient"/><linearGradient id="linear-gradient-19" x1="-1851.24" y1="-458.97" x2="-1851.24" y2="-458.97" xlink:href="#linear-gradient"/><linearGradient id="linear-gradient-20" x1="-1851.22" y1="-498.48" x2="-1851.22" y2="-498.39" xlink:href="#linear-gradient"/><linearGradient id="linear-gradient-21" x1="-1917.3" y1="-632.1" x2="-1846.49" y2="-632.1" gradientTransform="translate(311.06 -1939.46) rotate(-109.28)" gradientUnits="userSpaceOnUse"><stop offset="0" stop-color="#fff"/><stop offset="1"/></linearGradient><linearGradient id="linear-gradient-22" x1="-2012.85" y1="-676.43" x2="-2003.14" y2="-704.65" gradientTransform="translate(311.06 -1939.46) rotate(-109.28)" gradientUnits="userSpaceOnUse"><stop offset="0.04" stop-color="#adacac"/><stop offset="0.15" stop-color="#d7d7d7"/><stop offset="0.56" stop-color="#fff"/><stop offset="0.78" stop-color="#d7d7d7"/><stop offset="0.94" stop-color="#adacac"/></linearGradient><linearGradient id="linear-gradient-23" x1="-1851.16" y1="-676.42" x2="-1841.44" y2="-704.64" xlink:href="#linear-gradient-22"/><linearGradient id="linear-gradient-24" x1="-1903.44" y1="-536.3" x2="-1959.09" y2="-575.28" gradientTransform="translate(311.06 -1939.46) rotate(-109.28)" gradientUnits="userSpaceOnUse"><stop offset="0.16" stop-color="#474747"/><stop offset="0.57"/></linearGradient><linearGradient id="linear-gradient-25" x1="-1944.26" y1="-555.53" x2="-1933.1" y2="-555.53" gradientTransform="translate(311.06 -1939.46) rotate(-109.28)" gradientUnits="userSpaceOnUse"><stop offset="0" stop-color="#fff"/><stop offset="0.08" stop-color="#d4d4d4"/><stop offset="0.17" stop-color="#a9a9a9"/><stop offset="0.26" stop-color="#868686"/><stop offset="0.35" stop-color="#6a6a6a"/><stop offset="0.44" stop-color="#575757"/><stop offset="0.53" stop-color="#4b4b4b"/><stop offset="0.63" stop-color="#474747"/></linearGradient><linearGradient id="linear-gradient-26" x1="-1927.15" y1="-662.45" x2="-1927.15" y2="-719.19" gradientTransform="translate(311.06 -1939.46) rotate(-109.28)" gradientUnits="userSpaceOnUse"><stop offset="0" stop-color="#c1272d"/><stop offset="0.02" stop-color="#c7252c"/><stop offset="0.1" stop-color="#e31f26"/><stop offset="0.15" stop-color="#ed1c24"/><stop offset="0.27" stop-color="#ee2227"/><stop offset="0.43" stop-color="#f23230"/><stop offset="0.61" stop-color="#f84e3f"/><stop offset="0.7" stop-color="#fc5d47"/><stop offset="0.84" stop-color="#ed1c24"/><stop offset="0.88" stop-color="#e71d25"/><stop offset="0.94" stop-color="#d72229"/><stop offset="1" stop-color="#c1272d"/></linearGradient></defs><title>Ресурс 22ribbon</title><g id="Слой_2" data-name="Слой 2"><g id="Layer_1" data-name="Layer 1"><path class="cls-1" d="M183.89,66.69l-2.06.72A18.43,18.43,0,0,0,184,67C184,66.89,183.93,66.78,183.89,66.69Z"/><path class="cls-2" d="M171.29,71.09l-.79.28C171.08,71.37,171.27,71.26,171.29,71.09Z"/><path class="cls-3" d="M134.14,84.09l-1,.35A1.39,1.39,0,0,0,134.14,84.09Z"/><polygon class="cls-4" points="76.19 104.35 75.62 104.55 76.27 104.46 76.19 104.35"/><path class="cls-5" d="M132.26,85.12a.44.44,0,0,0,.14-.43l-.56.2C132,85.09,132.09,85.25,132.26,85.12Z"/><path class="cls-6" d="M87.74,100.32l-.56.19a2.46,2.46,0,0,1,.48.14Z"/><path class="cls-7" d="M182.75,227c0,.08-.11.13-.14.22S182.75,227.15,182.75,227Z"/><path class="cls-8" d="M184.06,67l-.16-.28h0c0,.1.09.21.14.29Z"/><path class="cls-9" d="M61.2,109.89a3,3,0,0,0-.28-.19l-1.92.67c-.15.31-.28.64-.42,1l-1.36.47a.56.56,0,0,1-.1,0s.05,0,.08.05l-5.13,1.79a46,46,0,0,0-5.28,1.85L39.58,118c-.26.06-.52.15-.78.2l0,.06-4.43,1.55-.26.09L9.55,128.46l-.54.19.1.29v0l-4.21,1.47,0,0a2.44,2.44,0,0,0-2,.72l-.07.07a15.5,15.5,0,0,0-1.56,1.61l2.48-.44L.43,133.83,4.7,136,0,140.63l4.14,5.73,4.16-.94c-6.54,3.7,2.05,2.5-2.46,5.6l3.45-1.17c.34.31-1.8,1-2.37,1.33,2,3.28,7.87,5.34,4.65,10-2.17,1.11-.5,1.58-2.82,2.66,4.57-.43,4.91.68,4.84,1.87l-.39.09.84.26a8.22,8.22,0,0,1-1,.34c3.24-.51.53,1.41-.47,2.52l-.39.09c.75,4.16,8.45,5.58,5,11.17-5,3.78,3.51,3.19-.43,6.91a1.89,1.89,0,0,0-1.21,1.36,2.17,2.17,0,0,0,.58,1.66l2.11,6a4.55,4.55,0,0,0-1.11-.42l1.47,1.47.38,1.1c-1.66.78-2.43,2.83-4.65,2.08-.82,3.47,2.57,6.12,5.12,8.28a3.56,3.56,0,0,1,2.06-1.62c1.66,1-.86,1.7-2.19,2.49,1.73.56,5.1-.75,7.86-1-2.13,3.15-.27,2.84-3.78,6.12l3.37-1.31c-2.3,2.26,2.93.64,1.41,2.74a5.14,5.14,0,0,1-2.71,0c1.55.85-2.48,2.15-.74,2.89l-4.14.37c.47.91,2.14,1.91-1.29,2.55,4.49.31,4,3.8,7,5.1l-3,.9c4-.17,1.22,4,5.84,3.48L28,232l4.73.77c0,1.1-4.57,2.33-3.31,2,1.54,1.87,2.37,3.46,1.32,5.38,4.09-1,5.92.85,7,2.47.56,9.5,7.55,17.47,14.92,23.91.39.77,2.77,1.08,5,1.45l.52,1.5.22.64,2.26-.79,5.15-1.8.91.88,6.33-3.41,7.06-2.47,8-1.59,22.11-7.34.47-1.76,2-.68c5,.86,8.8-4.51,14-3.35l-.42-1.41,1.24-.43c.27.27.46.61.68.72,3.84-1.5,7.64-3.23,11.41-4.95l23.63-8.27c.46-.07.91-.14,1.37-.2,1.56,1,4.77-3.15,6.12-2,1.62-2.19,3.43-1.38,5.55-2.34l4.31-1.51.36-.1-.06.27,1-.62.68-.24a.88.88,0,0,1,.14.42,3,3,0,0,1,.48-.64l3.51-1.23c3.07-.14,4.36,0,3.64,0l-.06.27c7.63-2.44,14.53-6,21.61-9.08l13.42-4.69a52.58,52.58,0,0,1,5.32-1c7.56,1.08,13.62-7.92,21.93-7.73.49.37,3-1.59,4.48-2,1.7-.42,1.81-.89,3.9-1.76a33.7,33.7,0,0,0,7-4l-.11,1.64,19.6-6.85c.5.17,1,.37,1.59.6l.08.25c.25-.14.08-.63.83-.15l-1.7-1,6-2.09.23.23a1.25,1.25,0,0,0,.08-.34l7.89-2.76,1.13-.4L254.13,42.92l-2.86,1-57,19.94a.91.91,0,0,1,0-.79L194,64l-5.83,2c-.71.06-1.57.1-2.73.15h0l.55.42-.39.33-1.16.41A.85.85,0,0,1,184,67a18.43,18.43,0,0,1-2.21.44l-10.53,3.68c0,.16-.2.28-.79.28l-.66.23c0,.23,0,.53-.06.83l-1,.36-.6-.59-3.23,1.13a3.91,3.91,0,0,1-1.23.7,2.71,2.71,0,0,1-.35-.15l-4.39,1.54c0,.3.06.57.06.78l-8.21,2.87c-1.69-.46-2.75.42-3.93,1.37l-2.25.79v-.39c-.61-.34-.52.08-.45.55l-.71.25-.21-.52a1.38,1.38,0,0,1-.28.69l-.35.12a2.41,2.41,0,0,1-.74-.55l-.34.12.38.67-.35.12-.87.05a1.33,1.33,0,0,1-.78-.28l-3.82,1.33.06.22a2,2,0,0,1-.36.69l-.83.29c-.39-.06-.78-.21-1.08.2l.34-.74-.1,0a1.39,1.39,0,0,1-1,.35l-.73.25a.44.44,0,0,1-.14.43c-.18.13-.29,0-.42-.23l-.42.15a1.88,1.88,0,0,1-.15.85l-1.38.48a1.28,1.28,0,0,1-.07-.41c-.15.29-.15.67-.64.49l-.11-.6-.34.12-.09.59c-.64-.23-1,1.1-1.28.08l.1-.22-39.73,13.9-.08.34a2.46,2.46,0,0,0-.48-.14l-6.95,2.43a2.67,2.67,0,0,1,.31.55c-.64-.19-1.46.39-2,0l-2.36.83.07.11-.65.09-1.08.38a8.33,8.33,0,0,1-2,1.5l-2.31.81c-2.33.48-4.61.29-6.9,2.41l-.74.26c0-.19-.16-.07-.32.11l-.82.29A1.28,1.28,0,0,1,61.2,109.89Z"/><path class="cls-10" d="M13.07,166.44l-.27,0S12.9,166.49,13.07,166.44Z"/><path class="cls-11" d="M23.35,217.32c.49-.56.76-1.11,1.58-1.33C24,215.9,23.25,216.07,23.35,217.32Z"/><path class="cls-12" d="M24.93,216l.58.07a1.24,1.24,0,0,0-.29-.15A1.85,1.85,0,0,0,24.93,216Z"/><polygon class="cls-13" points="7.35 166.03 7.8 166.24 7.67 165.87 7.35 166.03"/><path class="cls-14" d="M17.9,217.39,20,218.63l.37-.42C18.67,218.32,19.1,217.47,17.9,217.39Z"/><path class="cls-15" d="M14.49,239.39c5.47-1.16.4,1.35,4.86-1.2C18.11,237.43,16.35,239.07,14.49,239.39Z"/><path class="cls-15" d="M21.68,239.88c-2.05,1.62.65.7,1.85.79C23.47,240,22.58,239.94,21.68,239.88Z"/><path class="cls-16" d="M171.85,70.17l.1,0C171.89,70.05,171.84,69.88,171.85,70.17Z"/><path class="cls-17" d="M183.79,66.48a2.06,2.06,0,0,0,.1.21h0Z"/><path class="cls-18" d="M170.31,71.37c-.32-.25-.43-.09-.47.23l.66-.23Z"/><polygon class="cls-19" points="185.42 66.15 185.42 66.15 185.43 66.15 185.42 66.15"/><polygon class="cls-20" points="194.22 63.07 194.22 63.07 194.23 63.06 194.22 63.07"/><path class="cls-21" d="M134.26,84l-.12.09.1,0Z"/><path class="cls-22" d="M273.18,30.85l-1.52-6.08s-.4-2.87,6.05-5.12L308.17,8.39s5.91-2.07,7.81,5.08l25.48,72.84s6.3,12.83,16.33,8.72l26.35-9.22L380.79,78,355.7,87.34s-4.65,2.23-8.4-8.48L324,10.65s-6.67-13.9-18-9.95L274.55,12.34S258,15.12,266,34.56Z"/><path class="cls-23" d="M347.2,79.28,324.38,12.34l0-.09,22.74,66.69C347.11,79.07,347.15,79.17,347.2,79.28Z"/><path class="cls-24" d="M274.49,12.36S258.65,15,265.61,33.48c-5.47-17,9.44-19.52,9.44-19.52L306.46,2.38c10.84-3.79,17.41,9,17.87,9.88l-.52-1.52s-6.66-13.9-17.91-10Z"/><path class="cls-24" d="M356.15,89l25.72-9.6,2.69,6.27.11,0-3.36-7.84-25.72,9.6s-4.66,2.2-8.39-8.1l.43,1.26C351.38,91.26,356.15,89,356.15,89Z"/><path class="cls-25" d="M308.43,5.09,275.66,17.16a17.62,17.62,0,0,0-4.2,2c-3.73,1.61-2.55,4.44-2.55,4.44l1.63,4.87,0,.07h0v0a12.57,12.57,0,0,0,.46,1.36l.2.61,1.46-.41-2.43-6.66a2.21,2.21,0,0,1,.26-1.35c.84-1,2.48-2.21,5.7-3.34L309,6.7s3.57-1.24,6.13,1.16h0l27.11,77.51.12.43.08.16.16.46.08,0c1.33,2.35,6.82,10.86,15.22,7.4l25.51-8.92-.67-1.57-25.4,8.88C350.45,95,345.34,89,343,85.29L316.63,10l.06.11,0-.09a9.81,9.81,0,0,0-.6-1.66l-.26-.75-.1,0C313.21,3.43,308.43,5.09,308.43,5.09Z"/><path class="cls-26" d="M333,177a3.12,3.12,0,0,1,4,1.91h0a3.12,3.12,0,0,1-1.92,4l-23.56,8.24a3.12,3.12,0,0,1-4-1.92h0a3.12,3.12,0,0,1,1.92-4Z"/><path class="cls-27" d="M279.6,24.4a3.12,3.12,0,0,1,4,1.91h0a3.12,3.12,0,0,1-1.92,4L258.1,38.53a3.12,3.12,0,0,1-4-1.92h0a3.12,3.12,0,0,1,1.91-4Z"/><path class="cls-28" d="M454.66,42.21c4.33-1.51,8.92.35,10.25,4.16L469,58c1.33,3.81-1.09,8.13-5.42,9.64l-70,24.49c-4.33,1.51-8.92-.35-10.25-4.16l-4.07-11.64c-1.33-3.81,1.09-8.13,5.42-9.64Z"/><path class="cls-29" d="M461.28,63.54l-68,23.79c-4.2,1.47-8.65-.3-9.92-4l1.37,3.92c1.28,3.65,5.72,5.42,9.92,4l68-23.79c4.2-1.47,6.57-5.62,5.3-9.27l-1.37-3.92C467.85,57.92,465.48,62.07,461.28,63.54Z"/><path class="cls-30" d="M282.22,25.88a13.74,13.74,0,0,1,17.43,8.59l44.8,128.09a13.74,13.74,0,0,1-8.28,17.57l-27.85,9.74a13.74,13.74,0,0,1-17.43-8.59L246.1,53.2a13.74,13.74,0,0,1,8.28-17.58Z"/><path class="cls-31" d="M244.11,164.76c.08-.84-.94-.76-1.54-.86-.09-.22.06-.31,0-.54-.4-.2-.17.26-.58.34a2.79,2.79,0,0,0-.28-1.67,1.73,1.73,0,0,1-.43.38c.11.54.55.42.63,1a18.13,18.13,0,0,0-1,1.58c.78-.61,1.41-.11,1.82-.76.78.11.92.94,2,.86.09-.17.17-.33.25-.5C244.79,164.36,244.35,164.76,244.11,164.76Z"/><path class="cls-31" d="M243.63,159.66a.61.61,0,0,1,.06-.25S243.62,159.52,243.63,159.66Z"/><path class="cls-31" d="M175.51,129.4l.09.06S175.58,129.38,175.51,129.4Z"/><path class="cls-31" d="M238.29,126.3a6.52,6.52,0,0,1,2.26,1.08,35.76,35.76,0,0,0,3.1,2.09c.88-.42,1.6-1.34,2.53-1.13.47-.8,1.39-1.38,1.4-2.41-.14-.48-.52-.49-.71-.87.69-1.42-2.06-1.79-1.51-3.23-.39.26-.17.81-.62,1-.24-.36.35-.31.2-.62s-.68.26-.83,0c0-.44,1,.22.83-.42-1.23-.06-.82-2.85-2.09-2.89.31-.24-.18-.58-.33-.58.16-.3.21-.65.37-1-1.38-1.13-1.16-4.13-2.26-5,0-.25.33-.39.33-.67-1.12-2.59-2.86-1.31-5.35-.27a1.85,1.85,0,0,1-.51.89c.2.69.42,1.41.67,2.15q.57,1.7,1.26,3.59l0,.13c-.78.75.73,1.64,0,2.44-.16-.51-.35-1-.83-.83a1.49,1.49,0,0,1,.38,1.12c.78-.31.56.52,1.12.87a2.72,2.72,0,0,0,.22,2.28c-.09.61-.48,1.15-.28,1.62-.07-.15-.14-.28-.33-.16,0,.67.34.88.79,1.12C238.1,126.56,238.22,126.28,238.29,126.3Z"/><path class="cls-31" d="M131.76,159.4q-1.69-2.69-3.12-5a.58.58,0,0,0-.34,0,3.19,3.19,0,0,0,0,1.37c.35.09.52-.22.66-.09-.32.37,0,.3.29.46a1.39,1.39,0,0,0,0,1.66c.36.06.51-.48.62-.21s0,.5.13.79C130.73,158.48,131.11,159.21,131.76,159.4Z"/><path class="cls-31" d="M127.41,152.33a3.35,3.35,0,0,0-1.49-2.5.87.87,0,0,0-.3-.1A5.58,5.58,0,0,0,127,153.3,1,1,0,0,0,127.41,152.33Z"/><path class="cls-31" d="M144.7,195.9c0-.16.1-.23,0-.42-.56,0-.3.4-.66.5-.27-.34.09-.37.08-.58-1.38-.41-1.62.42-2.53,1.13a1.12,1.12,0,0,0,.28.84l4.69-1.59C145.9,195.84,145.2,195.43,144.7,195.9Z"/><path class="cls-31" d="M136.23,192.53c.41-.91,1.8-1.24,2.4-1.92-.85.25,0-.28-.21-.62-.43.22-.67.22-1,.63.44-1.38-.44-3.34-1.64-4.43-.45.14-.87.23-1.12,0,.36-.39.51,0,1-.21-.13-1.13,0-2.14,1-2.7-.75-1.73.51-2.77,1.27-4-.55-.6-.07-.91-.5-1.49.16,0,.23.1.41,0-.09-1.82-1.76-2.12-2.42-3.47.2-.8-.36-1-.63-1.86-.55.48-.08-.16-.62-.21.44.06.11-.75-.09-.66-1-.86-2.71-1.25-3.21-2.93.26,0,.19-.25.29-.37.41.16.65.64,1.17.58-.31-.6.18-1.33-.22-2.28-.65,0,.41.89-.24.91,0-.69-.7-1.12-.26-1.58-1.17-1.15-2.43-2.88-3.46-3.68-.08,1.12-1.83-.87-2.45.55,0-.31.25-.5.45-.71-.19-.18-.22-.67-.58-.5,0,.23.29.26.13.37-.62-.17-2.17.26-2.32.92a5.22,5.22,0,0,0-2.79.9q2.61,4.57,6.23,10.8l-15.36,5.2q.57-7.37,1-12.81l.09-1.32q.89-12.93.65-14l.67-.22q.46,1.36,6.29,11.59c2-.59,4.21-.94,5.82-1.92l.25.75a3.61,3.61,0,0,0,2.24-.34c-.22-.35,0-.5-.13-.79-.7-.13-.29-.88-.29-1.28a2.63,2.63,0,0,1-1-1.74,3.82,3.82,0,0,0-2.32.51c.28-.54-.33-.21-.54-.37.13-.29.45,0,.87-.3a.61.61,0,0,1,0,.42c.54-.6,1.61-.42,1.45-1.46-.46.1-.59-.49-.91-.66.19,0,.26.08.37-.13-.29-.47-.92-.23-1.21-.7A2.24,2.24,0,0,1,125,154c-.15,0-.34.14-.41,0,.09-.78-.86-1.74.12-2.12-.19-.25-.27-.86-.67-1.16.25-.17.52.22.33-.25a5,5,0,0,0-1.88-2.69c.52-1.57-1.53-3.89-2.8-3.76.43-.23.57.11,1,0-.07-.88-2-.58-1.87.21.07.34.37-.49.46.12-1.42,0-2.31.8-3.4.6.08.51-.48.82-1,.75a.58.58,0,0,1-.08.58c-.06-.3-.19-.46-.42-.41-.21.41-.07,1-.53,1.29.37-.8-.33-.36-.59-.91.34-.27.37.09.58.08-.39-.41-1.07-.2-1.46-.62.14.22-.12.75-.25.5.18-.08,0-.34,0-.54-.58.07-1.36-.37-1.7-.12,0,.51.45-.07.5.25-.31.62-1.44-.14-1.45.63.23.22.54-.41.83,0a2.94,2.94,0,0,0-2,2.33c.12.24.5,0,.62.2-.35.22-.44-.09-.79.13.21,1.19.63,1.32.38,2.36l-.21-.62c-.38.33-.23.92-.37,1.37a3.4,3.4,0,0,1,1.09,1.57,20.16,20.16,0,0,1,3.18-2.46,20.08,20.08,0,0,0-3.63,3.58,12.34,12.34,0,0,1-.19,3.11c.75-.16,1.35,1.68.51,1.91.2,1-.75,2.16-.82,3.32.57.85.45,2.12.64,3.11-.27.13-.48.13-.58-.08.6-.76-.17-2.44-.59-3.4a10.34,10.34,0,0,0,1.23-4.15c-1.28-.86-.06-2.87-.52-4,1.42-.33.2-1.66-.3-2.12a.93.93,0,0,1-.12.46c0,.44.47,0,.54.37-.65-.29,0,.67-.25.91-.5-1.16-.61-3.42-2.21-2a1.28,1.28,0,0,0-1-.79q-.41,5.53-1.54,15.93l-.21,1.91a2.55,2.55,0,0,0-1.4.43c-1.63-.64-2.11,1.53-2.15,2.66-1.89.42-1.66,2.76-1.85,4.36-.15-.28.14-.35-.09-.66-.86,2,1,4,1.93,5.72a8.93,8.93,0,0,0,2,.58l0,.32q-.77,6.63-1.33,11.76c-1,1.15-2.57,2-3.89,1.17-.3.4-1.14.44-1.53.38-.66,1-1.83.73-3.09.79a22.44,22.44,0,0,1,.7,3.46,3.87,3.87,0,0,1,2.57-2.09c0,.18-.15.27-.12.46.63-.83,2.76-.57,3.31-1.67.2,0,0,.18.13.37.29,0,.18-.26.12-.46a7.13,7.13,0,0,1,1.59-.4Q98.43,210.84,98.71,212l12.69-4.29q-.71-2.53-.33-10.77.12-3.45.44-7.77l.26-.09a1.71,1.71,0,0,1,.63.18c.34,1.06,1,1.53,1.87,1.44a1.57,1.57,0,0,1-.89-2.17L131,182.57q3.25,5.87,5.23,10Z"/><path class="cls-31" d="M124.45,147.5a.44.44,0,0,0,.14,0c.23,0,.51,0,.56.4.77-.32.82,0,.92.66a1.86,1.86,0,0,0,1.15-1.91c1.73-1.2,1-3.76.55-5.73a.93.93,0,0,1-.46-.12c0-.2.47-.18.41-.42a.88.88,0,0,0-1-.08c0,.39-.3.61-.37,1-.21-.14-.3-.52-.66-.33-.89.83-.19,1.69-.07,2.66.24,0,.94-.29.79.29-.62-.36-1.63.08-2.12-.53.31-.06.53,0,.91-.17-.08-.46-.32-.61-.63-.62-.19.75-1,1.7-.24,2.57-.67.48-.2,1.25,0,2A2.33,2.33,0,0,1,124.45,147.5Z"/><path class="cls-31" d="M139.07,198.32l1.64-.55a1.34,1.34,0,0,1-.14-.19A12.41,12.41,0,0,0,139.07,198.32Z"/><path class="cls-31" d="M139.73,197.58c.51-.44,0-1.37.49-1.83-.55-.47-.19-.79-.38-1.12a.38.38,0,0,1-.16.33,4.24,4.24,0,0,0-.42-1.66c-.52.21-.74-.17-1.33.17.08.29.11,1.15.46,1-.11.25-.43.6-.62.62,0-.16.55-.54.08-.58a1.1,1.1,0,0,1-.43.75q.68,1.55,1.12,2.76A4.09,4.09,0,0,1,139.73,197.58Z"/><path class="cls-31" d="M106.26,151.85a2.5,2.5,0,0,0-.3-2.53c-.32.22-.38-.07-.66.09.08.35-.36.44-.29.79a.37.37,0,0,0-.1-.27c-.21-.19-.71.21-1,.24a3,3,0,0,0,0,.83,1.15,1.15,0,0,1,.94.07C105.32,151.32,105.68,151.82,106.26,151.85Z"/><path class="cls-31" d="M137.12,167.84a4.21,4.21,0,0,0-.63.1c-1.25.86.05,2.53-.11,3.77,1.4,1.23,1,4.1,3.05,5.75-.21.1-.21.31-.08.58a4.49,4.49,0,0,0,1.66.82c-1.14-.22-1.41.59-1.95,0-1,1,.09,3-1.65,2.91,0,.58.53.19.71.45-.81.43-.63,1.34-1.48,1.75.06.43.25.61.5.66a6.23,6.23,0,0,0-.82,1.66,2.44,2.44,0,0,1,.88,1.78c1.9.25,2.18,2.6,3.09,4.63.59.41,1.57,0,2.12.53.41-.11.45-.4,1-.46.06.09.15.11.29,0,.42.92,1.44,1.2,1.46,2.27,1,.63,3.56-.28,4.35-.64a.47.47,0,0,0,0,.38.47.47,0,0,0,.21.24,3.37,3.37,0,0,0,1.48-.81l1-.35c-.07-.22-.16-.46-.27-.71Q149.59,187.35,137.12,167.84Z"/><path class="cls-31" d="M147.11,195.6l.32-.11-.12-.06A1.2,1.2,0,0,1,147.11,195.6Z"/><path class="cls-31" d="M132.77,161.44l.25,0-1.26-2c-.16,0-.25-.13-.42-.12A8.68,8.68,0,0,0,132.77,161.44Z"/><path class="cls-31" d="M189.47,171.89c.19-.24.52-.11.58-.33-.45.08-.39-.54-.42-.83l-.17-.09q-12.09,4.69-21.54,7.89-1.5-8.25-4.6-22.09-4.88-22.9-5.78-28.21l-.09-.52-12.29,4.16.26.82q3,9.54,6.32,23.73l0,0a1.09,1.09,0,0,0,.08.16l.15.64.06.25c.2.86.39,1.72.59,2.6q1.71,8,3,14l.17.82c-.47,1-1.21,1.88-2.07,1.62a9,9,0,0,1,.59,1.32c0-.15.1-.37.21-.21,0,.5,0,2.35.71,1.7,0,.63,1.36,1.1,1,2,.22.6.72.64.88,1.37l.35,0,.05.26h0a2,2,0,0,0,.09.26l.46,2.25q.83,4.15,1.16,6l7.49-2.53,1.58-.53,8.73-3a12.94,12.94,0,0,0,2.47,1c.17-.12-.1-.14-.13-.37,1.35,0,1.42-2.15,2.9-1.26.47-.18,1.13-1.26,1.53-.79.22-.1-.07-.45.08-.58a25.54,25.54,0,0,1,2.82-.68c.1-.17-.2-.31-.24-.51l-3.51,1.19a4.2,4.2,0,0,0,1.3-1c2.14-.45,3-3.25,5.5-4.21.42-.94.28-1.36-.34-2.65.14-.07.36-.1.33-.25-.74-.77.05-1.46,0-2.37S189.16,172.29,189.47,171.89Z"/><path class="cls-31" d="M191.38,180.38l.37-.12c0-.46-.43,0-.42-.41.75-.15,0-.63-.21-.62.58-.23.33-.87.37-1.37-.32-.25-.6-.6-1.2-.29.22.76-.59,1-.37,1.79a1.25,1.25,0,0,1-.71-.45c-.81.63-1.12,1.52-2.06,2.08.18.35.31.63.43.93l3.9-1.32A1.64,1.64,0,0,0,191.38,180.38Z"/><path class="cls-31" d="M186.41,182.07a.3.3,0,0,0-.11.28l.37-.12Z"/><path class="cls-31" d="M191.65,176.28a.61.61,0,0,1,0-.41c-.21,0-.37-.08-.58-.08C191.16,176.15,191.28,176.47,191.65,176.28Z"/><path class="cls-31" d="M198.19,154.26c.72.47.91-1.43.41-1.66.27.22.75,0,1,.2.19-.68.57-1.76,1.65-1.67a1.28,1.28,0,0,0-.34-1c1.65-.84,1.31-2.66,3.14-3.41.26-.5.11-1.35-.59-1.32l.37-.13a6,6,0,0,1-.43-3.73c.29.05.67-.3.91.25-.18,0-.3-.1-.54,0a3.12,3.12,0,0,1,.47,2.61c.69.07.67,1.56,1.46,1.44-.05.68.53.89,1.25.81a4,4,0,0,0,2-.87,1.72,1.72,0,0,0,.41-.49,17.85,17.85,0,0,0,3.64-1.51c-.47-.33-.16-1.36.12-1.29a2.18,2.18,0,0,0,0,1.12c.51,0,0-.53.49-.58,1.05.11,1.39-.72,2-1.09,1.11-.68,2.32-.35,3.23-1.09a.13.13,0,0,1-.08-.25c.38.35,1.22-.24,1.49.33,2-.55,3.06-1.85,5-2.83L223.72,131q-9.91,3.9-18.7,6.87-2.47-10.09-3.77-14.95,3.51-1.19,7.31-2.38a4.27,4.27,0,0,0,.43-.68,2.27,2.27,0,0,1-1.91-.74c-.9.52-2,.16-3,.18.13.27.13.48-.08.58.11-.87-.36.17-.75-.16.5-.34,1.28-1.09,2-1q-.47.13-.54.46c2.35.34,4-1.89,6-2.72a7.09,7.09,0,0,1,.16-1.16c.41-.07.39-.43.75-.25.06-.65-.55-1,0-1.37-.08.23,0,.35.25.33.27-1.08,1.74-1.55,2.52-2.37-.12-.74-.78-1.13-.42-1.66a2.67,2.67,0,0,1-.66-1.21l-14.93,5.05-.25.08-10.35,3.5q1.18,3.72,2.37,8l.08.3q2.45,8.8,5,19.92,1.22,5.71,2.23,10.46C198.07,155.94,198.25,154.94,198.19,154.26Z"/><path class="cls-31" d="M221.32,106.1l-1.82.62c-.39-.54-.92-1.13-.84-1.61-.74-.16-2.12-.15-2.69.63-.68,0-1.79-.29-2.32.09.42,0,.09.44,0,.54.41-.14.36.66.66.74a.36.36,0,0,0-.5.17c0,.39.28.26.34.58s-.5.12-.37.54a.81.81,0,0,0,.09.2c.25.41.75.33,1,.67-.06.21-.37.3-.37.54a5.47,5.47,0,0,0,1,1c.59-.46,1.46-.14,2.07,0-.37.05-.71,0-1.08.09.12.23-.08.3-.12.46.18,0,.23.23.37.29a2.64,2.64,0,0,0-.57,1.58c1.12,1.17.67,3.31,1.94,4.39a2.25,2.25,0,0,0,.49.33c-.3.06-.46.19-.41.42.67.22,1.11-.27,1.74-.59a1.06,1.06,0,0,1,.05-.69l.67-.19,3.48-1-1.91-10.19Z"/><path class="cls-31" d="M216.81,117.64c0-1.55-1.52-2.33-1.59-4.31-.35.22-.44-.09-.79.13-.53.74-1.15,1.93-2.15,1.83.09.61.24.06.37.29,0,.37-.37.58-.87.71.1.74-.74,1-.82,1.66-.29-.11-.53-.32-1-.08.14.77-.39,1.51-.56,2.41q3.67-1.15,7.62-2.29Z"/><path class="cls-31" d="M230,160.8c.28.27.84-.37.91-.17-.28.89.24.12.79.29.11-.2-.2-.72.12-.87s.5.2.83.41c.23,0,.27-.63-.12-.37.94-.5,2.16-1.78,3.63-2.47l-.52-2.85q-4.3,1.73-8.43,3.32A6.12,6.12,0,0,1,230,160.8Z"/><path class="cls-31" d="M234.84,160.7c-2,1.14.37,2.84.56,3.69-.58-.15-1-.58-1.62-.7.23-.68-.27-1.83-.92-1.9,0,.66-.76.33-1,.75.15.33.66-.08.87.12,0,.46-.1.92-.54.87.12.45.67,0,.75.58-.23.11-.32,0-.54,0-.07.47.18.66.54.79a.49.49,0,0,0-.33.67,1.87,1.87,0,0,1,1.4.6,3.64,3.64,0,0,0,.43.31c-.3-.62.19-.27.54-.46a.73.73,0,0,1,0-.17l1-.35,1.53-.52-1.29-7C234.93,158.47,235.32,159.79,234.84,160.7Z"/><path class="cls-31" d="M232.83,166.6l.83-.28a4.83,4.83,0,0,0-.66-.43A4.55,4.55,0,0,1,232.83,166.6Z"/><path class="cls-31" d="M212.67,164.74c0,.19-.36.17-.29.37.33.17.49-.06,1.32-.17.91,1.29,2.58,1.07,3.62,2.1.31-.09.61-.18.54-.46.53.77,1.29-.15,1.79.78.85-.43,2.08.1,3.23-.26.17-.12-.1-.14-.12-.37.66-.2,1,.13,1.53-.38,2.22.87,3.27-1.67,5.22-2.59-.39-.61-1.1-.57-1.66-.82,0-.5-.37-1.22.37-1.37a4.34,4.34,0,0,1-1.42-1.32c-.84,0-1.57.57-2.49.84-1.28.39-2.82.27-4.18.72-1.76.59-3,1.51-4.35,1.89a7.38,7.38,0,0,1,.74-1.5c.37-.12.36.53.63.62.61-.71,1.52-.75,2.28-1.46,0-.11-.05-.22-.08-.32q-4.16,1.51-8.14,2.86A1.11,1.11,0,0,0,212.67,164.74Z"/><path class="cls-31" d="M220.78,161.3c.37,0-.29-.56.08-.58a12.16,12.16,0,0,0,5.43-.73,14.69,14.69,0,0,1-.19-1.48q-3.32,1.26-6.53,2.43C219.85,161.32,220.55,160.83,220.78,161.3Z"/><path class="cls-31" d="M229.46,164c-.74.6-.94,1.47-2.15,1.83-.17,1.49-3.1,1.11-4.47,1.51,0,.72.65.21.71.87-1.27.26-2.29-.71-3,.05-1.37-.92-2,.11-3.44.06.15.31,0,.47-.37.54l-.29-.87c-.25,0-.4-.16-.71,0,0,.15.14.35,0,.42-.07-.54-.67,0-.75-.58-.38.49-1,.94-1.62.55.18.27-.44.67-.54.46.13-.25,0-.52.41-.83.52.53,1.27-.12,1.45-.63-.14-.63-.76-.28-1-.78.2-.12.38.08.37-.13-.58-1-1.59-1.1-2.78-.86a4,4,0,0,0,.92,1.9c-.66,0-.91-.81-1.54-.86-.05.38-.33.38-.7.38a2.06,2.06,0,0,1,.3,1.29c-.61-.56-.2-1.18-.51-1.91-.24,0-.68.4-.79.13.9-1.12.41-2.07.36-3.44-.89-.21-.87-2.29-2-2.11-.2-1.37-.93-1.61-.55-2.45-2.79-1.08-1.59-5.77-5-5.79-.09-.31-.18-.61-.46-.54-1.15,1.82-1.7,3.93-3.65,5.36a5.89,5.89,0,0,1-.51.34c.07.45.41.34.67.41l.05.26q1.31,6.23,2.2,10.59l.36,1.75a6.33,6.33,0,0,0-.69.37,2.19,2.19,0,0,1,.88.61l.14.71a.52.52,0,0,0-.44,0l.21.62a1,1,0,0,1,.34-.08l.12.61c.19,1,.34,1.79.47,2.49l.06.33.09.53.8-.27,3.42-1.16,5.53-1.87a1.59,1.59,0,0,1-.05.19c.29.12.63.12.91.24.1-.12,0-.33.29-.37.53-.16.71.38,1,.62,0-.31-.13-.43.54-.46a6.39,6.39,0,0,1-1.32-.7l3.34-1.13,1.42-.48,13.66-4.62C231.16,165.87,230.74,164.51,229.46,164Z"/><path class="cls-31" d="M210.21,162c.08.27.31.26.52.28l-.12-.48A1.28,1.28,0,0,1,210.21,162Z"/><path class="cls-31" d="M220.71,142.14q2.53-.76,5.12-1.51l-.35-1.58c-1.66.7-3.28,1.59-4.54,2.26A1.52,1.52,0,0,0,220.71,142.14Z"/><path class="cls-31" d="M217.46,142.48a4.44,4.44,0,0,0-.42.77l3.6-1.1C220.11,141.56,218.47,142.23,217.46,142.48Z"/><path class="cls-31" d="M207.71,150.07c-.3-.11-1.5-.35-1.53.38-1.19-.78-2.66.25-3.65.68.58,1.53,3,2.71,3.17,4.47.28.06.68-.15,1,.37a.66.66,0,0,1-.5-.25c-.18.95.56,1.46,1.29,1.78-.67,0,.65.36.79.7-.22.09-.31-.06-.54,0,0,1.09,2,1,2-.12q-1-3.92-1.94-8.12Z"/><path class="cls-31" d="M210.55,163c.06.48.21.28.41.16l-.08-.3C210.7,162.77,210.53,162.73,210.55,163Z"/><path class="cls-31" d="M234.61,108.43c-.09-.05-.24,0-.35,0l0,.27A.29.29,0,0,0,234.61,108.43Z"/><path class="cls-31" d="M235.85,108.84c.39,0,.66-1,.58-.33.42,0,.13-.35.08-.58.23-.35.62-.06.7-.38-.27-.55-.44-1-.84-1.66.29-.27.4-.63.66-.91-.71-.08-.26-1.23-.88-1.37.23-.11.32,0,.54,0a2.43,2.43,0,0,0-1.28-2.68q-1.79,2.59-1.18,7.3C234.81,108.16,235.4,107.82,235.85,108.84Z"/><path class="cls-31" d="M235.41,110.8c-.11-.22-.18.14-.29,0,.35-.38.24-1,0-1.66a1.62,1.62,0,0,1-.72.09q.23,1.32.63,2.8a1.31,1.31,0,0,0,.27-.32C234.71,111.22,235.67,111.35,235.41,110.8Z"/><path class="cls-31" d="M237.15,102a3,3,0,0,1,3,.36c.14-.19-.91-.64-.38-1.12l.25-.08,7.82,23.11a.74.74,0,0,0-.54,0,.49.49,0,0,0,.67.33l.13.37c-.38.21-.64.17-.83,0,.18.48.44.79,1,.49l.3.87c-.15.37-1,.42-.62,1a1,1,0,0,0-1,.63c.25.62.32,1.58,1,1.32.09.32-.41.18-.5.17-.2.38.28.32.54.37-1,.79-1,.51-2.32.92.12.1.33,0,.38.29-1,.31-.74,1.28-.28,2-.72-.3-.92-1.65-.46-1.78-.51-.79-1.4-.79-1.92-1.57a2.93,2.93,0,0,1-1.95-.27q1.26,3.16,2.7,6.65l4.3-1.46q.84-23.68-1.79-31.45-2.3-6.79-7.71-5a8.51,8.51,0,0,0-1,.41.57.57,0,0,0,.12.61c-.83.49-1.06,1.27-1.73,1.83C236.61,101.46,236.94,101.62,237.15,102Z"/><path class="cls-31" d="M248.92,144.69a9.25,9.25,0,0,0-4.55,3.18c-.16.21-.31.43-.45.66a9.75,9.75,0,0,0-.5.89,9,9,0,0,0-.81,5.6h0c0,.14.05.28.08.43a11.25,11.25,0,0,0,.32,1.18,7.93,7.93,0,0,0,1.18,2.28,6.64,6.64,0,0,0,1.87,1.69,5.08,5.08,0,0,0,1.44.59,5.49,5.49,0,0,0,1.84.12,7.76,7.76,0,0,0,1.75-.38,9.15,9.15,0,0,0,3.82-2.41,9.31,9.31,0,0,0,1.62-2.4A10.07,10.07,0,0,0,257,155a9.4,9.4,0,0,0,0-6.18Q254.87,142.68,248.92,144.69Z"/><path class="cls-31" d="M97.56,172.8c-.22.11-.32,0-.54,0l.17.5C97.53,173.27,97.71,173.11,97.56,172.8Z"/><path class="cls-31" d="M66.14,176.51c.08-.23.41-.35.5-.58-.1,0-.69-.09-.62.21C66.45,176,65.86,177,66.14,176.51Z"/><path class="cls-31" d="M63.17,170.59c0,.45.92.36.66-.09C63.52,170.72,63.45,170.44,63.17,170.59Z"/><path class="cls-31" d="M69.8,179.14a1.61,1.61,0,0,0,1.07-1.33C70.31,178.15,69.85,178.55,69.8,179.14Z"/><path class="cls-31" d="M187.45,182.27c.25.82,0,1.36.63,1.86.33-.31.48-.82,1.16-.67-.19-.46-.55-.56-1.08-.33a11.87,11.87,0,0,1-.58-1.22l-.91.31A.75.75,0,0,0,187.45,182.27Z"/><path class="cls-31" d="M138.54,198a19.06,19.06,0,0,1-1.79,1,4,4,0,0,0,2.31-.68l-.36.12Z"/><path class="cls-31" d="M135.07,193.2c.05.24.23.23.29.45.29,0,.56-.6.2-.62C135.61,193.43,135.26,193,135.07,193.2Z"/><path class="cls-31" d="M134.41,195.36l.37-.12c-.05-.24-.23-.23-.29-.46C134.08,194.78,134.37,195.13,134.41,195.36Z"/><path class="cls-31" d="M142,198.07c.65.54,1.07,1.64,1.46,1.86.58.33,1.19-.13,1.91.32,0-.63.51-.39,1.16-.67-.42-.26-1.22.24-1.41-.49-.24.3-.37.64-1,.75a1.37,1.37,0,0,1-.5-1.08c-.2-.23-.61,0-.87-.12-.07-.75-.54-.92-.85-1.27l-1.16.39A1.24,1.24,0,0,0,142,198.07Z"/><path class="cls-31" d="M147.11,195.6l-.55.19A1.07,1.07,0,0,0,147.11,195.6Z"/><path class="cls-31" d="M211,163.12l.2.78h0a1.05,1.05,0,0,1,.1-.76A.28.28,0,0,0,211,163.12Z"/><path class="cls-31" d="M136.71,134.22c-.4.11-.29-.81-.75-.58C136,134.15,136.65,134.46,136.71,134.22Z"/><path class="cls-31" d="M122.26,138.55c-.31,0-.52-.44-.7,0C121.53,138.93,122.25,138.87,122.26,138.55Z"/><path class="cls-31" d="M177.21,127.44c.09-.27.54-.35.45-.7C177.43,126.54,176.79,127.34,177.21,127.44Z"/><path class="cls-31" d="M177.76,130.3c.33-.11.4.3.75.16a.62.62,0,0,1,0-.41C178.38,130,177.71,130,177.76,130.3Z"/><path class="cls-31" d="M84.74,152.91c.45-.05.38-.36.33-.66a.62.62,0,0,1-.41,0C84.81,152.52,84.52,152.59,84.74,152.91Z"/><path class="cls-31" d="M183.14,129l.17.5A.28.28,0,1,0,183.14,129Z"/><path class="cls-31" d="M194.35,112.22c-.15,0-.24-.07-.33-.17-.22.1-.39.22-.41.42C194,112.19,194.35,112.82,194.35,112.22Z"/><path class="cls-31" d="M234.11,99.19a2.36,2.36,0,0,1-1-.37C233.21,99.34,234,99.51,234.11,99.19Z"/><path class="cls-31" d="M212.29,107.13c0-.16.1-.23,0-.42-.25,0-.4-.16-.71,0C211.68,107.09,211.93,107.22,212.29,107.13Z"/><path class="cls-31" d="M234.73,99c.32-.08.32-.32.37-.54-.37,0-.41-.71-.87-.54C234.4,98.27,234.94,98.49,234.73,99Z"/><path class="cls-31" d="M181,131c.15-.24.81-.22.62-.62C181.28,130.49,180.81,130.57,181,131Z"/><path class="cls-31" d="M176.64,121.26c.07,0,.11-.15,0-.12.17.32-.42.27-.37.54.12.07.79,0,.75-.25C176.81,121.46,176.66,121.49,176.64,121.26Z"/><path class="cls-31" d="M178.72,123.74c.35-.22.36.26.71,0C179.34,123.37,178.66,123.25,178.72,123.74Z"/><path class="cls-31" d="M182.18,117.17a.92.92,0,0,1-.12.46c-.06-.16-.4,0-.37.13.25,0,.4.16.71,0C182.43,117.69,182.48,117.11,182.18,117.17Z"/><path class="cls-31" d="M234.11,108.19c0,.15.08.2.15.22s0-.15,0-.22Z"/><path class="cls-31" d="M229,154.38c-1.52.19-.61,2.45-2.35,2.87-1-.43-1.91-1.77-3-2.31.68,1.27,1.76,1.75,2.58,2.73a2.49,2.49,0,0,0-.09.84l1.12-.43-.07,0C227.2,156.54,229,155.9,229,154.38Z"/><path class="cls-31" d="M233.7,108.6a.84.84,0,0,0,.69.58c0-.17-.06-.34-.08-.51A4.76,4.76,0,0,1,233.7,108.6Z"/><path class="cls-31" d="M219.16,159.36a.79.79,0,0,1-1-.49c.15,0,.36.13.37-.13-.3-.16-.77,0-1-.37.12-.56-.47-2.27-1.21-2.36a4.92,4.92,0,0,1,1.09,2.81,3.35,3.35,0,0,1,1.88,2.2l.24-.09,0,0A2,2,0,0,0,219.16,159.36Z"/><path class="cls-31" d="M234.46,112.5a.69.69,0,0,0,.65-.19L235,112A5,5,0,0,0,234.46,112.5Z"/><path class="cls-31" d="M220.7,142.22v-.08l-.07,0Z"/><path class="cls-31" d="M75.66,153.9c.55,0,.41-.4.76-.53a.5.5,0,0,1-.14-.09c-.41.11-.45.4-1,.46C75.41,153.86,75.6,153.74,75.66,153.9Z"/><path class="cls-31" d="M211.66,160.92c0-.6,0-1.29-.55-1.61.09.14-.21.55-.33.25.23-.47.93-.71.95-1.29-1,.55-1.54.57-2-.28a1,1,0,0,1,0,.13q.46,1.85.91,3.65C211,161.45,211.14,161,211.66,160.92Z"/><path class="cls-31" d="M211.13,162.63a.38.38,0,0,0-.4-.38l.15.58C211.08,162.89,211.29,163,211.13,162.63Z"/><path class="cls-31" d="M131.8,159.41l0,0v0Z"/><path class="cls-31" d="M228.23,137.87c.54-.07-.25-1.21-.58-.5.3-.13.45.06.62.21C228.18,137.64,228.16,137.73,228.23,137.87Z"/><path class="cls-31" d="M128.44,154l.19.32a.35.35,0,0,0,.2,0C128.81,154,128.56,154.16,128.44,154Z"/><path class="cls-31" d="M147.78,170.21c-.18,0-.3-.1-.54,0C147.43,171,147.85,170.79,147.78,170.21Z"/><path class="cls-31" d="M155.39,192.7c-.47.15-.08.72-.37,1,.23.23.38.64.75.58C156.17,193.84,155.56,193.48,155.39,192.7Z"/><path class="cls-31" d="M237.16,168.36c.43,0,.32-.32.37-.54l-.5.17Z"/><path class="cls-31" d="M156.76,193.48c-.07-.21.32-.19.29-.37-.15,0-.2-.15-.25-.33C156.47,192.8,156.53,193.52,156.76,193.48Z"/><path class="cls-31" d="M157.38,193.68c-.37.13-.76.24-.62.63.17.15.46,0,.71,0A.86.86,0,0,1,157.38,193.68Z"/><path class="cls-31" d="M157.47,194.76c.3.12.43-.47.91-.59-.14-.2-.24-.5-.46-.54C158.2,194.09,157.69,194.31,157.47,194.76Z"/><path class="cls-31" d="M158.63,194.51a1.07,1.07,0,0,0,1,.78A1.66,1.66,0,0,0,158.63,194.51Z"/><path class="cls-31" d="M155,192.41a.52.52,0,0,0-.29.79C155,193,155,192.73,155,192.41Z"/><path class="cls-31" d="M52.61,211.82l-.13-.37a.85.85,0,0,0-.66.09A.52.52,0,0,0,52.61,211.82Z"/><path class="cls-31" d="M56,221.47c0,.53-.7.14-.62.62C55.64,222.3,56.38,221.55,56,221.47Z"/><path class="cls-31" d="M52.1,208.26c-.63.38-.52-.75-1-.62.09.66.56.55.75,1A.36.36,0,0,0,52.1,208.26Z"/><path class="cls-31" d="M55.65,215.5c-.24-.36-.05-.51,0-.71-.78-.15-.08.55-.58.75C55.3,215.53,55.41,215.64,55.65,215.5Z"/><path class="cls-31" d="M46.23,184.77c.29-.43-.8-.61-.7,0C45.88,184.49,46,184.68,46.23,184.77Z"/><path class="cls-31" d="M150.91,174.14c-.18,0-.3-.1-.54,0l.17.5C150.86,174.59,150.75,174.3,150.91,174.14Z"/><path class="cls-31" d="M60.09,196.28c.37-.51.72-.56.74-1.08A1,1,0,0,0,60.09,196.28Z"/><path class="cls-31" d="M46.4,186.92c.34-.14.22-.51.45-.71C46.14,186.36,46.42,186.61,46.4,186.92Z"/><path class="cls-31" d="M54.13,208.54c-.16-.58.6-.31.62-.63C54.36,207.76,53.56,208.28,54.13,208.54Z"/><path class="cls-31" d="M152.42,177.36c-.15-.28.59-.12.25-.5S152,177.3,152.42,177.36Z"/><path class="cls-31" d="M256.45,160.31c.35-.22.49,0,.79-.13C257.14,159.62,256.45,160,256.45,160.31Z"/><path class="cls-31" d="M209.36,121a2.54,2.54,0,0,1,0-.71l-.85.27,0,0C208.81,120.64,209.22,120.24,209.36,121Z"/><path class="cls-31" d="M91.67,196.83c-.12-.44-.26-.88-.41-1.33q-3.81-11.27-19.54-12.73c-1.24-.11-2.37-.24-3.4-.37a28.33,28.33,0,0,1-6-1.25,5.88,5.88,0,0,1-1.88-10.26,4.27,4.27,0,0,0,.7-.17c0-.31.33-.42.3-.62a18.68,18.68,0,0,1,3.44-1.84c.67-.28,1.38-.56,2.15-.82a33.84,33.84,0,0,1,12.76-1.89l-.49-7.45-.22-3.29A44.53,44.53,0,0,0,71.52,156h0c-.21-.12-.53,0-.62-.38-.31.09-.61.18-.54.46-.69-.2-.69-1.21-.63-1.86-.36.15-.51,1.34-.16,1.16-.14.43-.32.85-.5,1.27q-1.66.47-3.42,1.05l-.74.24q-9.94,3.36-14.9,9.62a14,14,0,0,0-2,3.46c-1.47.38-2.88.93-3.88,1.14.09.32.19.65-.16.75.08-.33.15-.8-.3-.87-.6.15-.31.82-1.32,1-.16,1.53.94,3,2.21,2.85,0,.36-.55-.1-.58.34.69.91,1.46,1.66,2.87,1.11a1,1,0,0,0,.17-.41,21.46,21.46,0,0,0,1.19,6.12q2.95,8.71,13.51,11.27a35.15,35.15,0,0,0,4.21.74q7.41.86,10.52,2.13a7.19,7.19,0,0,1,4.43,4.34Q82.32,206,78,209.25A31.71,31.71,0,0,1,69.74,213a34.62,34.62,0,0,1-8.29,1.67,43.06,43.06,0,0,1-5.16.11l0,2.63a.3.3,0,0,0-.38.18c.43-.12.34.4.4.74l.13,7.41a49.45,49.45,0,0,0,8.71-1.1A60.11,60.11,0,0,0,72,222.81,47.47,47.47,0,0,0,84.1,217l.65-.47q5.68-4.24,7.2-9.78a15.69,15.69,0,0,0,.54-3.38,18,18,0,0,0-.12-3,2.42,2.42,0,0,0-.07,1.15Z"/><path class="cls-31" d="M117.17,141.52c-.34.27-.28.11-.75.25C116.59,142.2,117.38,141.74,117.17,141.52Z"/><path class="cls-31" d="M113.12,145.11c.41,0,.29-.34.7-.38-.11-.49-.45-.48-.75-.58,0,.61-.12.26-.5.17C112.35,144.8,113.09,144.5,113.12,145.11Z"/><path class="cls-31" d="M107.37,147.74c-.16-.23-.12-.87-.42-.83C107,147.21,106.92,147.82,107.37,147.74Z"/><path class="cls-31" d="M143.57,193.79c-.45.1-.54.65-.29.79C143.59,194.42,143.51,194.07,143.57,193.79Z"/><path class="cls-31" d="M127.3,154.29c-.15.29.2.48.54.37C127.77,154.33,127.62,154.14,127.3,154.29Z"/><path class="cls-31" d="M141.87,193.26c-.17,0-.73-.16-.66.09S141.9,193.8,141.87,193.26Z"/><path class="cls-31" d="M144,194.49c.15,0,.2.15.25.33.23-.09.39-.22.41-.42-.11,0-.18-.06-.21-.21C144.15,194.46,144,194.27,144,194.49Z"/><path class="cls-31" d="M129.78,160.38c-.15-.26-.4-.31-.58-.5.29.42-.34.39-.33.66C129.41,160.37,129.38,160.17,129.78,160.38Z"/><path class="cls-31" d="M116,142.19c-.37.19-.61-.12-.58.33C115.55,142.59,116.28,142.6,116,142.19Z"/><path class="cls-31" d="M140.8,194.59l-.17-.5c-.29.06-.46.19-.41.42C140.46,194.43,140.49,194.79,140.8,194.59Z"/><path class="cls-31" d="M135.5,168.69c-.4.11-.75.25-.79.54C135.1,169.41,135.26,168.89,135.5,168.69Z"/><path class="cls-31" d="M204,150.09c.23-.16.93-.09.66-.5C204.31,149.7,203.88,149.77,204,150.09Z"/><path class="cls-31" d="M228.66,160.85a1.07,1.07,0,0,0,1,.78C229.46,161,229,161.15,228.66,160.85Z"/><path class="cls-31" d="M236.32,110.21c.13.51.47.59,1,.37a7.44,7.44,0,0,0-.67-.74C236.7,110.05,236.58,110.17,236.32,110.21Z"/><path class="cls-31" d="M241,108.9a1.11,1.11,0,0,1,.79-.13l-.13-.37A1.07,1.07,0,0,0,241,108.9Z"/></g></g></svg>