<svg xmlns="http://www.w3.org/2000/svg" xmlns:xlink="http://www.w3.org/1999/xlink" viewBox="0 0 778.4 235.73"><defs><style>.cls-1{fill:url(#linear-gradient);}.cls-2{fill:#82050f;}.cls-3{fill:url(#linear-gradient-2);}.cls-4{fill:url(#linear-gradient-3);}</style><linearGradient id="linear-gradient" x1="683.02" y1="162.81" x2="778.4" y2="162.81" gradientUnits="userSpaceOnUse"><stop offset="0" stop-color="#82050f"/><stop offset="0.82" stop-color="#d00014"/></linearGradient><linearGradient id="linear-gradient-2" x1="2330.09" y1="162.81" x2="2425.47" y2="162.81" gradientTransform="matrix(-1, 0, 0, 1, 2425.47, 0)" xlink:href="#linear-gradient"/><linearGradient id="linear-gradient-3" x1="51.35" y1="93.73" x2="729.85" y2="93.73" gradientUnits="userSpaceOnUse"><stop offset="0" stop-color="#d00014"/><stop offset="0.55" stop-color="#fb202f"/><stop offset="1" stop-color="#d00014"/></linearGradient></defs><title>Ресурс 23ribbon</title><g id="Слой_2" data-name="Слой 2"><g id="Layer_1" data-name="Layer 1"><path class="cls-1" d="M693.73,89.89s-13.55,90.52-10.16,119.69l94.83,26.15s-53.06-54.31-9-135.78Z"/><path class="cls-2" d="M726.47,187.45l-42.9,22.13,1.13-34.2S702.76,179.4,726.47,187.45Z"/><path class="cls-3" d="M84.67,89.89s13.55,90.52,10.16,119.69L0,235.73S53.06,181.42,9,99.95Z"/><path class="cls-2" d="M51.93,187.45l42.9,22.13-1.13-34.2S75.64,179.4,51.93,187.45Z"/><path class="cls-4" d="M54.73,51.67s18.06,94.54-3.39,135.78c0,0,337.56-116.67,675.12,0,0,0-29.35-46.27,3.39-136.79C729.85,50.66,437.45-64,54.73,51.67Z"/></g></g></svg>