<svg xmlns="http://www.w3.org/2000/svg" xmlns:xlink="http://www.w3.org/1999/xlink" viewBox="0 0 865.5 179.8"><defs><style>.cls-1{fill:url(#linear-gradient);}.cls-2{fill:#720310;}.cls-3{fill:url(#linear-gradient-2);}.cls-4{fill:url(#linear-gradient-3);}</style><linearGradient id="linear-gradient" x1="1721.88" y1="106.65" x2="1814.2" y2="106.65" gradientTransform="matrix(-1, 0, 0, 1, 1814.2, 0)" gradientUnits="userSpaceOnUse"><stop offset="0.36" stop-color="#96111b"/><stop offset="1" stop-color="#ed1c24"/></linearGradient><linearGradient id="linear-gradient-2" x1="-33.79" y1="106.65" x2="58.52" y2="106.65" gradientTransform="translate(806.98)" xlink:href="#linear-gradient"/><linearGradient id="linear-gradient-3" x1="59.05" y1="71.47" x2="806.45" y2="71.47" gradientUnits="userSpaceOnUse"><stop offset="0" stop-color="#c1272d"/><stop offset="0.01" stop-color="#d0232a"/><stop offset="0.04" stop-color="#e51e26"/><stop offset="0.05" stop-color="#ed1c24"/><stop offset="0.13" stop-color="#fc9fa6"/><stop offset="0.26" stop-color="#ed1c24"/><stop offset="0.74" stop-color="#ed1c24"/><stop offset="0.84" stop-color="#fc9fa6"/><stop offset="0.94" stop-color="#ed1c24"/><stop offset="1" stop-color="#c1272d"/></linearGradient></defs><title>Ресурс 12ribbon</title><g id="Слой_2" data-name="Слой 2"><g id="Layer_1" data-name="Layer 1"><polygon class="cls-1" points="0.83 33.5 27.45 102.75 0 179.81 92.32 179.81 92.32 35.73 0.83 33.5"/><polygon class="cls-2" points="59.05 142.95 92.32 179.81 92.32 142.95 59.05 142.95"/><polygon class="cls-3" points="864.67 33.5 838.06 102.75 865.5 179.81 773.19 179.81 773.19 35.73 864.67 33.5"/><polygon class="cls-4" points="527.3 0 338.2 0 59.05 0 59.05 142.95 338.2 142.95 527.3 142.95 806.45 142.95 806.45 0 527.3 0"/><polygon class="cls-2" points="806.45 142.95 773.19 179.81 773.19 142.95 806.45 142.95"/></g></g></svg>