<svg xmlns="http://www.w3.org/2000/svg" xmlns:xlink="http://www.w3.org/1999/xlink" viewBox="0 0 265.66 364.34"><defs><style>.cls-1{isolation:isolate;}.cls-2{fill:#ddd;}.cls-3{fill:#6d050c;}.cls-4{fill:url(#linear-gradient);}.cls-5{fill:url(#linear-gradient-2);}.cls-6{fill:#6d030b;}.cls-7{fill:url(#linear-gradient-3);}.cls-8{fill:url(#New_Gradient_Swatch_1);}.cls-9{fill:url(#linear-gradient-4);}.cls-10{opacity:0.9;mix-blend-mode:screen;}.cls-11{fill:url(#linear-gradient-5);}.cls-12{fill:url(#New_Gradient_Swatch_1-2);}.cls-13{fill:url(#linear-gradient-6);}</style><linearGradient id="linear-gradient" x1="1374.41" y1="-78.62" x2="1355.47" y2="192.18" gradientTransform="matrix(-0.98, 0.19, 0.19, 0.98, 1493.68, -89.49)" gradientUnits="userSpaceOnUse"><stop offset="0.6" stop-color="#8b0004"/><stop offset="0.69" stop-color="#ed1c24"/><stop offset="0.75" stop-color="#fc9da4"/><stop offset="0.84" stop-color="#ed1c24"/><stop offset="0.96" stop-color="#8b0004"/></linearGradient><linearGradient id="linear-gradient-2" x1="-257.5" y1="228.93" x2="-276.44" y2="499.74" gradientTransform="translate(429.56 -89.49) rotate(10.67)" gradientUnits="userSpaceOnUse"><stop offset="0.6" stop-color="#8b0004"/><stop offset="0.7" stop-color="#ed1c24"/><stop offset="0.76" stop-color="#fc9da4"/><stop offset="0.82" stop-color="#ed1c24"/><stop offset="0.96" stop-color="#8b0004"/></linearGradient><linearGradient id="linear-gradient-3" x1="132.63" x2="132.63" y2="263.82" gradientUnits="userSpaceOnUse"><stop offset="0" stop-color="#e22d29"/><stop offset="0.3" stop-color="#e02c28"/><stop offset="0.47" stop-color="#d72926"/><stop offset="0.61" stop-color="#c92423"/><stop offset="0.74" stop-color="#b51e1e"/><stop offset="0.85" stop-color="#9b1517"/><stop offset="0.96" stop-color="#7c0a10"/><stop offset="1" stop-color="#6d050c"/></linearGradient><linearGradient id="New_Gradient_Swatch_1" x1="22.3" y1="130.69" x2="240.52" y2="130.69" gradientUnits="userSpaceOnUse"><stop offset="0.19" stop-color="#8b0004"/><stop offset="0.76" stop-color="#ed1c24"/><stop offset="0.88" stop-color="#fc9da4"/><stop offset="1" stop-color="#ed1c24"/></linearGradient><linearGradient id="linear-gradient-4" x1="131.41" y1="30.08" x2="131.41" y2="231.31" gradientUnits="userSpaceOnUse"><stop offset="0" stop-color="#8b0004"/><stop offset="0.51" stop-color="#ed1c24"/><stop offset="0.89" stop-color="#fc9da4"/></linearGradient><linearGradient id="linear-gradient-5" x1="113.76" y1="30.02" x2="149.07" y2="127.03" gradientUnits="userSpaceOnUse"><stop offset="0" stop-color="#fff"/><stop offset="0.04" stop-color="#f7f7f7"/><stop offset="0.1" stop-color="#e0e0e0"/><stop offset="0.18" stop-color="#bbb"/><stop offset="0.26" stop-color="#888"/><stop offset="0.36" stop-color="#474747"/><stop offset="0.45"/></linearGradient><linearGradient id="New_Gradient_Swatch_1-2" x1="56.36" y1="131.91" x2="211.37" y2="131.91" xlink:href="#New_Gradient_Swatch_1"/><linearGradient id="linear-gradient-6" x1="175.15" y1="196.17" x2="88.46" y2="67.65" gradientUnits="userSpaceOnUse"><stop offset="0.02" stop-color="#cb9639"/><stop offset="0.4" stop-color="#fdf1a7"/><stop offset="0.51" stop-color="#fff"/><stop offset="0.62" stop-color="#fdf1a7"/><stop offset="0.86" stop-color="#cb9639"/></linearGradient></defs><title>Ресурс 15ribbon</title><g class="cls-1"><g id="Слой_2" data-name="Слой 2"><g id="Layer_1" data-name="Layer 1"><polygon class="cls-2" points="240.12 340.88 241.15 341.44 174.92 78.5 174.09 78.76 173.9 77.98 133.34 90.89 92.78 77.98 26.55 340.92 28.62 339.8 28.07 341.95 78.83 314.55 110.76 363.31 110.99 362.37 112.28 364.34 134.23 276.17 155.92 363.31 156.56 362.32 156.94 363.82 189.75 313.72 240.13 340.92 240.12 340.88"/><polygon class="cls-3" points="172.88 76.95 239.11 339.89 187.73 312.14 154.9 362.27 90.41 103.18 172.88 76.95"/><polygon class="cls-4" points="171.86 76.44 238.09 339.37 186.71 311.63 153.88 361.76 89.39 102.67 171.86 76.44"/><polygon class="cls-3" points="92.27 77.47 26.04 340.4 77.42 312.66 110.25 362.79 174.74 103.7 92.27 77.47"/><polygon class="cls-5" points="90.75 76.44 24.52 339.37 75.9 311.63 108.72 361.76 173.21 102.67 90.75 76.44"/><polygon class="cls-6" points="265.66 131.91 249.35 144.15 262.79 159.49 244.29 168.06 254.22 185.87 234.34 190.39 240.34 209.88 219.94 210.16 221.78 230.47 201.77 226.54 199.36 246.78 180.61 238.78 174.03 258.08 157.36 246.32 146.89 263.82 133.03 248.86 119.18 263.82 108.7 246.32 92.04 258.08 85.46 238.77 66.7 246.78 64.29 226.53 44.29 230.47 46.12 210.16 25.73 209.88 31.73 190.39 11.85 185.87 21.78 168.06 3.28 159.48 16.72 144.15 0.41 131.91 16.72 119.67 3.28 104.33 21.78 95.76 11.85 77.94 31.73 73.43 25.73 53.94 46.12 53.66 44.29 33.35 64.3 37.28 66.71 17.04 85.46 25.04 92.04 5.74 108.7 17.5 119.18 0 133.03 14.96 146.89 0 157.37 17.5 174.03 5.74 180.61 25.04 199.37 17.04 201.78 37.29 221.78 33.35 219.95 53.66 240.34 53.95 234.34 73.43 254.23 77.95 244.29 95.76 262.79 104.33 249.35 119.67 265.66 131.91"/><polygon class="cls-7" points="265.26 131.91 248.95 144.15 262.38 159.49 243.89 168.06 253.82 185.87 233.93 190.39 239.93 209.88 219.54 210.16 221.38 230.47 201.36 226.54 198.96 246.78 180.2 238.78 173.62 258.08 156.96 246.32 146.49 263.82 132.63 248.86 118.77 263.82 108.3 246.32 91.63 258.08 85.05 238.77 66.3 246.78 63.89 226.53 43.88 230.47 45.71 210.16 25.32 209.88 31.32 190.39 11.44 185.87 21.38 168.06 2.87 159.48 16.31 144.15 0 131.91 16.31 119.67 2.87 104.33 21.38 95.76 11.44 77.94 31.33 73.43 25.33 53.94 45.72 53.66 43.88 33.35 63.89 37.28 66.3 17.04 85.06 25.04 91.64 5.74 108.3 17.5 118.77 0 132.63 14.96 146.49 0 156.96 17.5 173.62 5.74 180.2 25.04 198.96 17.04 201.37 37.29 221.38 33.35 219.54 53.66 239.94 53.95 233.93 73.43 253.82 77.95 243.89 95.76 262.38 104.33 248.95 119.67 265.26 131.91"/><circle class="cls-8" cx="131.41" cy="130.69" r="109.11"/><circle class="cls-9" cx="131.41" cy="130.69" r="100.61"/><g class="cls-10"><path class="cls-11" d="M131.41,127a100.56,100.56,0,0,0,86-48.45,100.64,100.64,0,0,0-172.1,0A100.56,100.56,0,0,0,131.41,127Z"/></g><path class="cls-12" d="M133.86,54.41a77.51,77.51,0,1,0,77.5,77.51A77.5,77.5,0,0,0,133.86,54.41Zm0,148.5A70.79,70.79,0,0,1,110,198.8l8.59-4.35-2-8.19c8.82-16.87,40-13.18,40-13.18,21.07-1.85,18-14.46,18-14.46,7-8.34,1.84-15.61,1.84-15.61,4.85-10.72-3-19-3-19-.65-14.74-16.62-13.34-16.62-13.34-14.63,1.93-10.55-2.93-10.55-2.93,9.45-16.92,2.77-34.36,2.77-34.36-4.15-10.57-10.5-2.29-10.5-2.29,1.76,12.72-8,26.44-8,26.44C122,100.84,114,127.29,114,127.29c.65,14.74-20.08,20.43-20.08,20.43l-2.54-6.86-26.5,7.9a71,71,0,1,1,69,54.14Z"/><path class="cls-13" d="M131.8,54.41a77.51,77.51,0,1,0,77.51,77.51A77.51,77.51,0,0,0,131.8,54.41Zm0,148.5A70.81,70.81,0,0,1,108,198.8l8.59-4.35-2-8.19c8.81-16.87,40-13.18,40-13.18,21.08-1.85,18-14.46,18-14.46,7-8.34,1.85-15.61,1.85-15.61,4.85-10.72-3-19-3-19-.66-14.74-16.62-13.34-16.62-13.34-14.63,1.93-10.56-2.93-10.56-2.93,9.45-16.92,2.77-34.36,2.77-34.36-4.14-10.57-10.5-2.29-10.5-2.29,1.76,12.72-8,26.44-8,26.44-8.72,3.34-16.69,29.79-16.69,29.79.66,14.74-20.08,20.43-20.08,20.43l-2.54-6.86-26.5,7.9a71,71,0,1,1,69,54.14Z"/></g></g></g></svg>