<svg xmlns="http://www.w3.org/2000/svg" xmlns:xlink="http://www.w3.org/1999/xlink" viewBox="0 0 475.16 168.48"><defs><style>.cls-1{isolation:isolate;}.cls-2{fill:#a3284b;}.cls-3{fill:url(#linear-gradient);}.cls-4{fill:url(#linear-gradient-2);}.cls-5{opacity:0.88;mix-blend-mode:screen;fill:url(#linear-gradient-3);}</style><linearGradient id="linear-gradient" x1="69.27" y1="-36.4" x2="360.23" y2="216.53" gradientUnits="userSpaceOnUse"><stop offset="0.25" stop-color="#c1272d"/><stop offset="0.53" stop-color="#ed1c24"/><stop offset="0.82" stop-color="#ed1c24"/><stop offset="0.98" stop-color="#c1272d"/></linearGradient><linearGradient id="linear-gradient-2" y1="77.69" x2="473.97" y2="77.69" gradientUnits="userSpaceOnUse"><stop offset="0.2" stop-color="#ed1c24"/><stop offset="0.98" stop-color="#fff"/></linearGradient><linearGradient id="linear-gradient-3" x1="234.2" y1="113.63" x2="244.69" y2="-6.21" gradientUnits="userSpaceOnUse"><stop offset="0.23"/><stop offset="0.24" stop-color="#060606"/><stop offset="0.41" stop-color="#505050"/><stop offset="0.56" stop-color="#8e8e8e"/><stop offset="0.7" stop-color="#bfbfbf"/><stop offset="0.82" stop-color="#e2e2e2"/><stop offset="0.92" stop-color="#f7f7f7"/><stop offset="0.98" stop-color="#fff"/></linearGradient></defs><title>Ресурс 34ribbon</title><g class="cls-1"><g id="Слой_2" data-name="Слой 2"><g id="Layer_1" data-name="Layer 1"><path class="cls-2" d="M34.55,138.71v29.77s-51.61-7.94-24.61-24.61A60.16,60.16,0,0,1,34.55,138.71Z"/><path class="cls-3" d="M402.56,1.19s-3.36.57-4.7,7.71V29.15H31.46S.41,24.78,1.2,51.77v104.8s0-17.86,35.29-17.86H397.85v17.07s0,10.66,4.7,11.68l72.61-83.13Z"/><path class="cls-4" d="M32.65,36.29H399V16c1.34-7.14,4.7-7.71,4.7-7.71l67.78,77.6L474,83.13,401.37,0s-3.36.57-4.7,7.71V28H30.27S-.78,23.59,0,50.58V155.38a12.68,12.68,0,0,1,2.38-6.47v-90C1.6,31.93,32.65,36.29,32.65,36.29Z"/><path class="cls-5" d="M3.59,93.45l460.26-1.19L474,83.13,403.75,8.34S401.43,4.14,399,16l-.69,16.67L20.26,31.53S-5.35,21.41,3.59,93.45Z"/></g></g></g></svg>