<svg xmlns="http://www.w3.org/2000/svg" xmlns:xlink="http://www.w3.org/1999/xlink" viewBox="0 0 205.85 266.4"><defs><style>.cls-1{fill:url(#linear-gradient);}.cls-2{fill:#f15a24;}</style><linearGradient id="linear-gradient" x1="102.93" x2="102.93" y2="266.4" gradientUnits="userSpaceOnUse"><stop offset="0" stop-color="#c1272d"/><stop offset="0.01" stop-color="#d0232a"/><stop offset="0.04" stop-color="#e51e26"/><stop offset="0.05" stop-color="#ed1c24"/><stop offset="0.13" stop-color="#fc9fa6"/><stop offset="0.34" stop-color="#ed1c24"/><stop offset="0.57" stop-color="#96111b"/><stop offset="0.72" stop-color="#c1272d"/><stop offset="0.95" stop-color="#ed1c24"/></linearGradient></defs><title>Ресурс 2ribbon</title><g id="Слой_2" data-name="Слой 2"><g id="Layer_1" data-name="Layer 1"><path class="cls-1" d="M205.85,14S195.61,3.73,184.43,0h-163C10.25,3.73,0,14,0,14v201.2l102.46,50.77v.46l.47-.23.46.23v-.46l102.46-50.77Z"/><rect class="cls-2" x="33.29" y="3.41" width="3.72" height="3.72" transform="translate(3.17 20.79) rotate(-34.42)"/><rect class="cls-2" x="15.26" y="82.36" width="3.73" height="7.63"/><rect class="cls-2" x="15.26" y="112.89" width="3.73" height="7.63"/><rect class="cls-2" x="15.26" y="97.63" width="3.73" height="7.63"/><rect class="cls-2" x="15.26" y="67.1" width="3.73" height="7.63"/><rect class="cls-2" x="20.35" y="10.92" width="7.63" height="3.73" transform="translate(-3 15.87) rotate(-34.36)"/><rect class="cls-2" x="15.26" y="51.83" width="3.73" height="7.63"/><rect class="cls-2" x="15.26" y="36.57" width="3.73" height="7.63"/><rect class="cls-2" x="15.26" y="189.21" width="3.73" height="7.63"/><rect class="cls-2" x="15.26" y="173.95" width="3.73" height="7.63"/><path class="cls-2" d="M19.58,21.68,15.91,21a55.54,55.54,0,0,0-.8,7.85l3.72.12A52.22,52.22,0,0,1,19.58,21.68Z"/><rect class="cls-2" x="15.26" y="128.16" width="3.73" height="7.63"/><rect class="cls-2" x="15.26" y="143.42" width="3.73" height="7.63"/><rect class="cls-2" x="15.26" y="158.68" width="3.73" height="7.63"/><polygon class="cls-2" points="18.99 204.49 15.26 204.49 15.26 209.39 19.68 211.5 21.29 208.14 18.99 207.04 18.99 204.49"/><rect class="cls-2" x="43.75" y="217.86" width="3.73" height="7.96" transform="translate(-174.19 167.28) rotate(-64.44)"/><rect class="cls-2" x="72.47" y="231.59" width="3.73" height="7.96" transform="translate(-170.27 201.09) rotate(-64.46)"/><rect class="cls-2" x="86.83" y="238.46" width="3.73" height="7.96" transform="translate(-168.3 217.97) rotate(-64.47)"/><rect class="cls-2" x="29.39" y="210.99" width="3.73" height="7.96" transform="translate(-176.15 150.39) rotate(-64.43)"/><rect class="cls-2" x="58.11" y="224.73" width="3.73" height="7.96" transform="translate(-172.22 184.1) rotate(-64.43)"/><rect class="cls-2" x="172.16" y="3.97" width="3.72" height="3.72" transform="translate(70.97 146.18) rotate(-55.63)"/><path class="cls-2" d="M194.06,29.44a54.54,54.54,0,0,0-.8-7.85l-3.67.65a51.9,51.9,0,0,1,.75,7.33Z"/><rect class="cls-2" x="190.19" y="143.98" width="3.73" height="7.63"/><rect class="cls-2" x="190.19" y="128.72" width="3.73" height="7.63"/><rect class="cls-2" x="190.19" y="82.92" width="3.73" height="7.63"/><rect class="cls-2" x="190.19" y="113.45" width="3.73" height="7.63"/><rect class="cls-2" x="190.19" y="159.24" width="3.73" height="7.63"/><rect class="cls-2" x="190.19" y="37.13" width="3.73" height="7.63"/><rect class="cls-2" x="190.19" y="174.51" width="3.73" height="7.63"/><rect class="cls-2" x="190.19" y="52.39" width="3.73" height="7.63"/><rect class="cls-2" x="190.19" y="67.66" width="3.73" height="7.63"/><rect class="cls-2" x="190.19" y="98.19" width="3.73" height="7.63"/><rect class="cls-2" x="190.19" y="189.78" width="3.73" height="7.63"/><rect class="cls-2" x="183.15" y="9.53" width="3.73" height="7.63" transform="translate(69.63 158.59) rotate(-55.66)"/><polygon class="cls-2" points="190.19 207.6 187.88 208.7 189.49 212.06 193.91 209.95 193.91 205.05 190.19 205.05 190.19 207.6"/><rect class="cls-2" x="145.22" y="227.4" width="7.96" height="3.73" transform="translate(-84.38 86.91) rotate(-25.58)"/><rect class="cls-2" x="130.86" y="234.27" width="7.96" height="3.73" transform="translate(-88.69 81.3) rotate(-25.56)"/><rect class="cls-2" x="159.58" y="220.54" width="7.96" height="3.73" transform="translate(-79.96 92.36) rotate(-25.56)"/><rect class="cls-2" x="173.94" y="213.67" width="7.96" height="3.73" transform="translate(-75.56 97.82) rotate(-25.55)"/><rect class="cls-2" x="116.5" y="241.13" width="7.96" height="3.73" transform="translate(-93.06 75.77) rotate(-25.56)"/><polygon class="cls-2" points="105.55 248.08 104.91 248.24 103.63 247.52 100.26 245.91 98.66 249.27 102.02 250.88 104.56 252.19 107.16 251.44 110.52 249.83 108.91 246.47 105.55 248.08"/><rect class="cls-2" x="31.89" y="2.95" width="3.73" height="3.72" transform="translate(3.19 19.92) rotate(-34.41)"/><rect class="cls-2" x="13.87" y="81.9" width="3.73" height="7.63"/><rect class="cls-2" x="13.87" y="112.43" width="3.73" height="7.63"/><rect class="cls-2" x="13.87" y="97.16" width="3.73" height="7.63"/><rect class="cls-2" x="13.87" y="66.63" width="3.73" height="7.63"/><rect class="cls-2" x="18.95" y="10.46" width="7.63" height="3.73" transform="translate(-2.98 15) rotate(-34.36)"/><rect class="cls-2" x="13.87" y="51.37" width="3.73" height="7.63"/><rect class="cls-2" x="13.87" y="36.1" width="3.73" height="7.63"/><rect class="cls-2" x="13.87" y="188.75" width="3.73" height="7.63"/><rect class="cls-2" x="13.87" y="173.49" width="3.73" height="7.63"/><path class="cls-2" d="M18.18,21.21l-3.67-.65a55.08,55.08,0,0,0-.8,7.85l3.72.12A51.78,51.78,0,0,1,18.18,21.21Z"/><rect class="cls-2" x="13.87" y="127.69" width="3.73" height="7.63"/><rect class="cls-2" x="13.87" y="142.95" width="3.73" height="7.63"/><rect class="cls-2" x="13.87" y="158.22" width="3.73" height="7.63"/><polygon class="cls-2" points="17.59 204.02 13.87 204.02 13.87 208.92 18.29 211.03 19.89 207.67 17.59 206.57 17.59 204.02"/><rect class="cls-2" x="42.36" y="217.39" width="3.73" height="7.96" transform="translate(-174.57 165.75) rotate(-64.44)"/><rect class="cls-2" x="71.07" y="231.13" width="3.73" height="7.96" transform="translate(-170.64 199.53) rotate(-64.45)"/><rect class="cls-2" x="85.43" y="237.99" width="3.73" height="7.96" transform="translate(-168.67 216.44) rotate(-64.47)"/><rect class="cls-2" x="28" y="210.53" width="3.73" height="7.96" transform="translate(-176.52 148.85) rotate(-64.43)"/><rect class="cls-2" x="56.72" y="224.26" width="3.73" height="7.96" transform="translate(-172.59 182.59) rotate(-64.43)"/><rect class="cls-2" x="170.77" y="3.5" width="3.72" height="3.73" transform="translate(70.77 144.84) rotate(-55.64)"/><path class="cls-2" d="M192.67,29a55,55,0,0,0-.8-7.85l-3.67.65a51.77,51.77,0,0,1,.75,7.33Z"/><rect class="cls-2" x="188.79" y="143.51" width="3.73" height="7.63"/><rect class="cls-2" x="188.79" y="128.25" width="3.73" height="7.63"/><rect class="cls-2" x="188.79" y="82.46" width="3.73" height="7.63"/><rect class="cls-2" x="188.79" y="112.99" width="3.73" height="7.63"/><rect class="cls-2" x="188.79" y="158.78" width="3.73" height="7.63"/><rect class="cls-2" x="188.79" y="36.66" width="3.73" height="7.63"/><rect class="cls-2" x="188.79" y="174.05" width="3.73" height="7.63"/><rect class="cls-2" x="188.79" y="51.93" width="3.73" height="7.63"/><rect class="cls-2" x="188.79" y="67.19" width="3.73" height="7.63"/><rect class="cls-2" x="188.79" y="97.72" width="3.73" height="7.63"/><rect class="cls-2" x="188.79" y="189.31" width="3.73" height="7.63"/><rect class="cls-2" x="181.75" y="9.07" width="3.73" height="7.63" transform="translate(69.39 157.22) rotate(-55.66)"/><polygon class="cls-2" points="188.79 207.13 186.49 208.23 188.09 211.6 192.51 209.48 192.51 204.58 188.79 204.58 188.79 207.13"/><rect class="cls-2" x="143.82" y="226.94" width="7.96" height="3.73" transform="translate(-84.27 86.19) rotate(-25.57)"/><rect class="cls-2" x="129.47" y="233.8" width="7.96" height="3.73" transform="translate(-88.68 80.72) rotate(-25.58)"/><rect class="cls-2" x="158.18" y="220.07" width="7.96" height="3.73" transform="translate(-79.86 91.65) rotate(-25.55)"/><rect class="cls-2" x="172.54" y="213.2" width="7.96" height="3.73" transform="translate(-75.53 97.24) rotate(-25.57)"/><rect class="cls-2" x="115.11" y="240.67" width="7.96" height="3.73" transform="translate(-92.97 75.09) rotate(-25.55)"/><polygon class="cls-2" points="104.15 247.61 103.51 247.77 102.23 247.05 98.87 245.44 97.26 248.8 100.62 250.41 103.16 251.73 105.76 250.97 109.12 249.36 107.52 246 104.15 247.61"/></g></g></svg>