<svg xmlns="http://www.w3.org/2000/svg" xmlns:xlink="http://www.w3.org/1999/xlink" viewBox="0 0 586.87 201.9"><defs><style>.cls-1{fill:none;}.cls-2{clip-path:url(#clip-path);}.cls-3{fill:#eb0000;}.cls-4{fill:#ec0000;}.cls-5{fill:#ed0000;}.cls-6{fill:#ed0100;}.cls-7{fill:#ed0300;}.cls-8{fill:#ed0400;}.cls-9{fill:#ed0500;}.cls-10{fill:#ed0701;}.cls-11{fill:#ed0803;}.cls-12{fill:#ed0903;}.cls-13{fill:#ed0b04;}.cls-14{fill:#ed0c05;}.cls-15{fill:#ef0d05;}.cls-16{fill:#ef0e06;}.cls-17{fill:#ef0f07;}.cls-18{fill:#ef1007;}.cls-19{fill:#ef1208;}.cls-20{fill:#ef1309;}.cls-21{fill:#ef1409;}.cls-22{fill:#ef150b;}.cls-23{fill:#ef160c;}.cls-24{fill:#ef170d;}.cls-25{fill:#f0190d;}.cls-26{fill:#f01a0e;}.cls-27{fill:#f01b0f;}.cls-28{fill:#f01c0f;}.cls-29{fill:#f01d10;}.cls-30{clip-path:url(#clip-path-2);}.cls-31{fill:#f01c10;}.cls-32{fill:#f01b0e;}.cls-33{fill:#ef170c;}.cls-34{fill:#ef140b;}.cls-35{fill:#ef1008;}.cls-36{fill:#ef0d06;}.cls-37{fill:#ef0c05;}.cls-38{fill:#ed0904;}.cls-39{fill:#ed0600;}.cls-40{clip-path:url(#clip-path-3);}.cls-41{fill:#ed0b05;}.cls-42{fill:#ef150c;}.cls-43{fill:#f0170d;}.cls-44{fill:#d30000;}.cls-45{fill:#f4f4f4;}</style><clipPath id="clip-path"><path class="cls-1" d="M586.87,90.35l-20,52.55,4.81,59s-55.28-12-81.71-7.37l8.81-112.48Z"/></clipPath><clipPath id="clip-path-2"><path class="cls-1" d="M0,90.35,20,142.9l-4.81,59s55.28-12,81.71-7.37L88.12,82.05Z"/></clipPath><clipPath id="clip-path-3"><path class="cls-1" d="M32.85,53.47,48.07,162.26S214.7,114.32,535.15,165L550.37,54.39S370.12,0,32.85,53.47Z"/></clipPath></defs><title>Ресурс 41ribbon</title><g id="Слой_2" data-name="Слой 2"><g id="Layer_1" data-name="Layer 1"><g class="cls-2"><rect class="cls-3" x="489.93" y="82.05" width="26.6" height="119.85"/><rect class="cls-3" x="516.53" y="82.05" width="1.54" height="119.85"/><rect class="cls-3" x="518.07" y="82.05" width="1.54" height="119.85"/><rect class="cls-3" x="519.6" y="82.05" width="1.54" height="119.85"/><rect class="cls-3" x="521.14" y="82.05" width="1.54" height="119.85"/><rect class="cls-3" x="522.68" y="82.05" width="1.54" height="119.85"/><rect class="cls-4" x="524.21" y="82.05" width="1.54" height="119.85"/><rect class="cls-4" x="525.75" y="82.05" width="1.54" height="119.85"/><rect class="cls-4" x="527.29" y="82.05" width="1.54" height="119.85"/><rect class="cls-4" x="528.82" y="82.05" width="1.54" height="119.85"/><rect class="cls-4" x="530.36" y="82.05" width="1.54" height="119.85"/><rect class="cls-4" x="531.9" y="82.05" width="1.54" height="119.85"/><rect class="cls-4" x="533.43" y="82.05" width="1.54" height="119.85"/><rect class="cls-4" x="534.97" y="82.05" width="1.54" height="119.85"/><rect class="cls-4" x="536.51" y="82.05" width="1.54" height="119.85"/><rect class="cls-4" x="538.04" y="82.05" width="1.54" height="119.85"/><rect class="cls-5" x="539.58" y="82.05" width="1.54" height="119.85"/><rect class="cls-6" x="541.12" y="82.05" width="1.54" height="119.85"/><rect class="cls-7" x="542.65" y="82.05" width="1.54" height="119.85"/><rect class="cls-8" x="544.19" y="82.05" width="1.54" height="119.85"/><rect class="cls-9" x="545.73" y="82.05" width="1.54" height="119.85"/><rect class="cls-10" x="547.27" y="82.05" width="1.54" height="119.85"/><rect class="cls-11" x="548.8" y="82.05" width="1.54" height="119.85"/><rect class="cls-12" x="550.34" y="82.05" width="1.54" height="119.85"/><rect class="cls-13" x="551.88" y="82.05" width="1.54" height="119.85"/><rect class="cls-14" x="553.41" y="82.05" width="1.54" height="119.85"/><rect class="cls-15" x="554.95" y="82.05" width="1.54" height="119.85"/><rect class="cls-16" x="556.49" y="82.05" width="1.54" height="119.85"/><rect class="cls-17" x="558.02" y="82.05" width="1.54" height="119.85"/><rect class="cls-18" x="559.56" y="82.05" width="1.54" height="119.85"/><rect class="cls-19" x="561.1" y="82.05" width="1.54" height="119.85"/><rect class="cls-20" x="562.63" y="82.05" width="1.54" height="119.85"/><rect class="cls-21" x="564.17" y="82.05" width="1.54" height="119.85"/><rect class="cls-22" x="565.71" y="82.05" width="1.54" height="119.85"/><rect class="cls-23" x="567.24" y="82.05" width="1.54" height="119.85"/><rect class="cls-24" x="568.78" y="82.05" width="1.54" height="119.85"/><rect class="cls-25" x="570.32" y="82.05" width="1.54" height="119.85"/><rect class="cls-26" x="571.85" y="82.05" width="1.54" height="119.85"/><rect class="cls-27" x="573.39" y="82.05" width="1.54" height="119.85"/><rect class="cls-28" x="574.93" y="82.05" width="1.54" height="119.85"/><rect class="cls-29" x="576.46" y="82.05" width="1.54" height="119.85"/><rect class="cls-29" x="578" y="82.05" width="8.87" height="119.85"/></g><g class="cls-30"><rect class="cls-29" y="82.05" width="6.5" height="119.85"/><rect class="cls-29" x="6.5" y="82.05" width="2.2" height="119.85"/><rect class="cls-29" x="8.7" y="82.05" width="2.2" height="119.85"/><rect class="cls-31" x="10.91" y="82.05" width="2.2" height="119.85"/><rect class="cls-28" x="13.11" y="82.05" width="2.2" height="119.85"/><rect class="cls-27" x="15.31" y="82.05" width="2.2" height="119.85"/><rect class="cls-32" x="17.51" y="82.05" width="2.2" height="119.85"/><rect class="cls-26" x="19.71" y="82.05" width="2.2" height="119.85"/><rect class="cls-25" x="21.91" y="82.05" width="2.2" height="119.85"/><rect class="cls-25" x="24.12" y="82.05" width="2.2" height="119.85"/><rect class="cls-33" x="26.32" y="82.05" width="2.2" height="119.85"/><rect class="cls-23" x="28.52" y="82.05" width="2.2" height="119.85"/><rect class="cls-22" x="30.72" y="82.05" width="2.2" height="119.85"/><rect class="cls-34" x="32.92" y="82.05" width="2.2" height="119.85"/><rect class="cls-20" x="35.12" y="82.05" width="2.2" height="119.85"/><rect class="cls-19" x="37.33" y="82.05" width="2.2" height="119.85"/><rect class="cls-35" x="39.53" y="82.05" width="2.2" height="119.85"/><rect class="cls-17" x="41.73" y="82.05" width="2.2" height="119.85"/><rect class="cls-16" x="43.93" y="82.05" width="2.2" height="119.85"/><rect class="cls-36" x="46.13" y="82.05" width="2.2" height="119.85"/><rect class="cls-37" x="48.34" y="82.05" width="2.2" height="119.85"/><rect class="cls-13" x="50.54" y="82.05" width="2.2" height="119.85"/><rect class="cls-38" x="52.74" y="82.05" width="2.2" height="119.85"/><rect class="cls-11" x="54.94" y="82.05" width="2.2" height="119.85"/><rect class="cls-10" x="57.14" y="82.05" width="2.2" height="119.85"/><rect class="cls-39" x="59.34" y="82.05" width="2.2" height="119.85"/><rect class="cls-8" x="61.54" y="82.05" width="2.2" height="119.85"/><rect class="cls-7" x="63.75" y="82.05" width="2.2" height="119.85"/><rect class="cls-6" x="65.95" y="82.05" width="2.2" height="119.85"/><rect class="cls-4" x="68.15" y="82.05" width="2.2" height="119.85"/><rect class="cls-4" x="70.35" y="82.05" width="2.2" height="119.85"/><rect class="cls-4" x="72.55" y="82.05" width="2.2" height="119.85"/><rect class="cls-4" x="74.76" y="82.05" width="2.2" height="119.85"/><rect class="cls-4" x="76.96" y="82.05" width="2.2" height="119.85"/><rect class="cls-4" x="79.16" y="82.05" width="2.2" height="119.85"/><rect class="cls-4" x="81.36" y="82.05" width="2.2" height="119.85"/><rect class="cls-4" x="83.56" y="82.05" width="2.2" height="119.85"/><rect class="cls-3" x="85.76" y="82.05" width="2.2" height="119.85"/><rect class="cls-3" x="87.97" y="82.05" width="2.2" height="119.85"/><rect class="cls-3" x="90.17" y="82.05" width="2.2" height="119.85"/><rect class="cls-3" x="92.37" y="82.05" width="2.2" height="119.85"/><rect class="cls-3" x="94.57" y="82.05" width="2.37" height="119.85"/></g><g class="cls-40"><path class="cls-3" d="M32.85,0V0Z"/><rect class="cls-3" x="32.85" width="7.26" height="165.03"/><rect class="cls-3" x="40.1" width="7.26" height="165.03"/><rect class="cls-3" x="47.36" width="7.26" height="165.03"/><rect class="cls-3" x="54.62" width="7.26" height="165.03"/><rect class="cls-4" x="61.88" width="7.26" height="165.03"/><rect class="cls-4" x="69.13" width="7.26" height="165.03"/><rect class="cls-4" x="76.39" width="7.26" height="165.03"/><rect class="cls-4" x="83.65" width="7.26" height="165.03"/><rect class="cls-4" x="90.91" width="7.26" height="165.03"/><rect class="cls-4" x="98.17" width="7.26" height="165.03"/><rect class="cls-4" x="105.42" width="7.26" height="165.03"/><rect class="cls-5" x="112.68" width="7.26" height="165.03"/><rect class="cls-6" x="119.94" width="7.26" height="165.03"/><rect class="cls-8" x="127.2" width="7.26" height="165.03"/><rect class="cls-9" x="134.46" width="7.26" height="165.03"/><rect class="cls-39" x="141.71" width="7.26" height="165.03"/><rect class="cls-10" x="148.97" width="7.26" height="165.03"/><rect class="cls-11" x="156.23" width="7.26" height="165.03"/><rect class="cls-38" x="163.49" width="7.26" height="165.03"/><rect class="cls-41" x="170.75" width="7.26" height="165.03"/><rect class="cls-15" x="178.01" width="7.26" height="165.03"/><rect class="cls-16" x="185.26" width="7.26" height="165.03"/><rect class="cls-17" x="192.52" width="7.26" height="165.03"/><rect class="cls-18" x="199.78" width="7.26" height="165.03"/><rect class="cls-19" x="207.04" width="7.26" height="165.03"/><rect class="cls-20" x="214.29" width="7.26" height="165.03"/><rect class="cls-21" x="221.55" width="7.26" height="165.03"/><rect class="cls-34" x="228.81" width="7.26" height="165.03"/><rect class="cls-42" x="236.07" width="7.26" height="165.03"/><rect class="cls-23" x="243.33" width="7.26" height="165.03"/><rect class="cls-43" x="250.58" width="7.26" height="165.03"/><rect class="cls-25" x="257.84" width="7.26" height="165.03"/><rect class="cls-26" x="265.1" width="7.26" height="165.03"/><rect class="cls-26" x="272.36" width="7.26" height="165.03"/><rect class="cls-27" x="279.62" width="7.26" height="165.03"/><rect class="cls-27" x="286.87" width="7.26" height="165.03"/><rect class="cls-28" x="294.13" width="7.26" height="165.03"/><rect class="cls-31" x="301.39" width="7.26" height="165.03"/><rect class="cls-29" x="308.65" width="7.26" height="165.03"/><rect class="cls-29" x="315.9" width="7.26" height="165.03"/><rect class="cls-29" x="323.16" width="5.68" height="165.03"/><rect class="cls-29" x="328.84" width="5.68" height="165.03"/><rect class="cls-31" x="334.52" width="5.68" height="165.03"/><rect class="cls-28" x="340.2" width="5.68" height="165.03"/><rect class="cls-27" x="345.88" width="5.68" height="165.03"/><rect class="cls-32" x="351.56" width="5.68" height="165.03"/><rect class="cls-26" x="357.24" width="5.68" height="165.03"/><rect class="cls-25" x="362.92" width="5.68" height="165.03"/><rect class="cls-25" x="368.6" width="5.68" height="165.03"/><rect class="cls-33" x="374.28" width="5.68" height="165.03"/><rect class="cls-23" x="379.96" width="5.68" height="165.03"/><rect class="cls-22" x="385.64" width="5.68" height="165.03"/><rect class="cls-34" x="391.32" width="5.68" height="165.03"/><rect class="cls-20" x="397" width="5.68" height="165.03"/><rect class="cls-19" x="402.68" width="5.68" height="165.03"/><rect class="cls-35" x="408.36" width="5.68" height="165.03"/><rect class="cls-17" x="414.04" width="5.68" height="165.03"/><rect class="cls-16" x="419.72" width="5.68" height="165.03"/><rect class="cls-36" x="425.4" width="5.68" height="165.03"/><rect class="cls-37" x="431.09" width="5.68" height="165.03"/><rect class="cls-13" x="436.76" width="5.68" height="165.03"/><rect class="cls-38" x="442.45" width="5.68" height="165.03"/><rect class="cls-11" x="448.12" width="5.68" height="165.03"/><rect class="cls-10" x="453.8" width="5.68" height="165.03"/><rect class="cls-39" x="459.48" width="5.68" height="165.03"/><rect class="cls-8" x="465.17" width="5.68" height="165.03"/><rect class="cls-7" x="470.84" width="5.68" height="165.03"/><rect class="cls-6" x="476.52" width="5.68" height="165.03"/><rect class="cls-4" x="482.21" width="5.68" height="165.03"/><rect class="cls-4" x="487.89" width="5.68" height="165.03"/><rect class="cls-4" x="493.57" width="5.68" height="165.03"/><rect class="cls-4" x="499.25" width="5.68" height="165.03"/><rect class="cls-4" x="504.93" width="5.68" height="165.03"/><rect class="cls-4" x="510.61" width="5.68" height="165.03"/><rect class="cls-4" x="516.29" width="5.68" height="165.03"/><rect class="cls-4" x="521.96" width="5.68" height="165.03"/><rect class="cls-3" x="527.65" width="5.68" height="165.03"/><rect class="cls-3" x="533.33" width="5.68" height="165.03"/><rect class="cls-3" x="539.01" width="5.68" height="165.03"/><rect class="cls-3" x="544.69" width="5.68" height="165.03"/><path class="cls-3" d="M550.37,165v0Z"/></g><path class="cls-44" d="M535.15,165l-45.61,29.5,3-36.32S529.14,162.72,535.15,165Z"/><path class="cls-44" d="M48.47,161.8l48.87,32.73-3.16-41.16S54.48,159.49,48.47,161.8Z"/><path class="cls-45" d="M548,61.47l-5.11-1.22.24-1.36,5.12,1.23Zm-7.07-1.69c-2.59-.6-5.24-1.2-7.87-1.78l.23-1.36c2.63.58,5.28,1.18,7.88,1.79ZM34.51,58.71l-.19-1.37s2.82-.52,8-1.37l.17,1.37C37.33,58.2,34.54,58.71,34.51,58.71Zm496.56-1.14c-2.59-.57-5.25-1.13-7.88-1.67l.21-1.36c2.64.54,5.3,1.11,7.9,1.68ZM44.44,57l-.17-1.37c2.52-.41,5.2-.84,8-1.27l.16,1.37C49.63,56.18,47,56.61,44.44,57Zm476.77-1.53c-2.6-.53-5.25-1.06-7.9-1.57l.2-1.37c2.65.51,5.31,1,7.91,1.57Zm-466.84,0-.16-1.37,8-1.2.15,1.37ZM64.31,54l-.15-1.37,8-1.14.14,1.37Zm447-.41c-2.62-.5-5.28-1-7.92-1.47l.19-1.37c2.63.47,5.3,1,7.92,1.47Zm-437.08-1-.14-1.37,8-1.09.14,1.37Zm427.19-.82c-2.62-.46-5.29-.92-7.93-1.37l.17-1.37c2.64.44,5.31.91,7.94,1.37ZM84.2,51.19l-.14-1.37,8-1,.13,1.38ZM491.53,50c-2.61-.43-5.28-.86-7.94-1.28l.16-1.37c2.66.41,5.33.85,7.95,1.28ZM94.16,49.9,94,48.52l8-1,.13,1.38Zm10-1.23L104,47.29l8-.94.12,1.37Zm377.49-.23c-2.61-.4-5.29-.8-7.95-1.19l.15-1.37c2.66.39,5.34.79,8,1.19ZM114.08,47.5,114,46.12l8-.9.11,1.38ZM471.67,47c-2.63-.37-5.31-.74-8-1.1l.14-1.37c2.65.35,5.33.72,8,1.1ZM124,46.38,123.94,45l8-.85.11,1.38Zm337.68-.77c-2.62-.34-5.3-.68-8-1l.13-1.37c2.67.33,5.35.67,8,1ZM134,45.33l-.11-1.38,8-.8.1,1.38Zm317.75-1c-2.64-.32-5.32-.63-8-.93l.12-1.38c2.65.3,5.34.61,8,.93ZM144,44.33l-.1-1.38,8-.76.1,1.38Zm10-.95-.1-1.38,8-.72.09,1.38Zm287.83-.18c-2.63-.29-5.31-.58-8-.85l.11-1.38,8,.85ZM164,42.49l-.09-1.38,8-.67.09,1.38Zm267.88-.35c-2.61-.27-5.29-.53-8-.78L424,40c2.69.25,5.38.51,8,.78ZM174,41.66l-.08-1.38,8-.63.08,1.38Zm247.92-.47q-4-.37-8-.7L414,39.1q4,.34,8,.7Zm-237.92-.3-.08-1.38,8-.58.07,1.38Zm227.95-.57-8-.63.08-1.38,8,.63Zm-218-.15-.07-1.38,8-.54.07,1.38Zm208-.62-8-.56L394,37.6q4,.27,8,.56Zm-198,0-.07-1.38,8-.49.06,1.38Zm10-.61-.06-1.38,8-.44.05,1.38Zm178,0-8-.49L384,37l8,.49Zm-168-.5L223.89,37l8-.39,0,1.38Zm158-.1-8-.43.05-1.38,8,.43Zm-148-.38,0-1.38,8-.35,0,1.38Zm138-.14-8-.36L364,36l8,.36Zm-128-.29,0-1.38,8-.3,0,1.38Zm118-.15-8-.3,0-1.38,8,.3Zm-108-.21,0-1.38,8-.25,0,1.38Zm98-.15-8-.24,0-1.38,8,.24Zm-88-.15,0-1.38,8-.2,0,1.38Zm78-.14-8-.18,0-1.38,8,.18Zm-68-.11,0-1.38,8-.15,0,1.38Zm58-.11-8-.12V34.89l8,.12Zm-48-.07,0-1.38,8-.1v1.38Zm38-.08-8-.07V34.8l8,.07Zm-28,0V34.83l8,0v1.38Zm18,0h-8V34.78h8Z"/><path class="cls-45" d="M535,162.35,527,161l.17-1.37,7.92,1.35Zm-9.9-1.68-7.93-1.31.17-1.37,7.93,1.31ZM49,159.64l-.32-1.33s2.68-.84,7.82-2.16l.26,1.35C51.65,158.81,49,159.63,49,159.64ZM515.15,159l-7.93-1.27.16-1.37,7.94,1.27Zm-9.92-1.58-7.94-1.22.16-1.37,7.94,1.23ZM58.72,157l-.25-1.35c2.48-.62,5.13-1.25,7.86-1.87l.23,1.36C63.83,155.76,61.19,156.39,58.72,157Zm436.6-1.07-7.94-1.18.15-1.37,7.95,1.18ZM68.52,154.7l-.23-1.36c2.54-.56,5.2-1.13,7.89-1.68l.21,1.36C73.7,153.57,71.05,154.14,68.52,154.7Zm416.87-.24-7.95-1.14.15-1.37,8,1.14ZM475.45,153l-8-1.1.14-1.37,8,1.1Zm-397.09-.41-.21-1.36c2.56-.51,5.22-1,7.91-1.52l.19,1.36C83.57,151.6,80.91,152.12,78.36,152.63Zm387.15-1-8-1.05.13-1.37,8,1.05Zm-377.28-.93L88,149.38c2.6-.47,5.27-.94,7.93-1.39l.17,1.37C93.49,149.8,90.82,150.27,88.23,150.74Zm367.33-.38-8-1,.13-1.37,8,1Zm-10-1.25-8-1,.12-1.38,8,1ZM98.12,149l-.17-1.37c2.6-.43,5.27-.86,7.94-1.27l.16,1.37C103.38,148.17,100.72,148.59,98.12,149Zm337.53-1.11-8-.92.12-1.38,8,.92ZM108,147.45l-.16-1.37c2.63-.4,5.3-.79,8-1.16l.14,1.37C113.33,146.67,110.65,147.06,108,147.45Zm317.66-.68-8-.87.11-1.38,8,.87ZM118,146l-.14-1.37c2.63-.36,5.31-.72,8-1.05l.13,1.37C123.27,145.3,120.59,145.66,118,146Zm297.76-.33-8-.82.1-1.38,8,.82Zm-287.82-1-.13-1.38c2.64-.33,5.33-.65,8-1l.12,1.38C133.23,144.07,130.55,144.39,127.91,144.72Zm277.84,0-8-.77.1-1.38,8,.77Zm-10-1-8-.72.09-1.38,8,.72Zm-257.92-.18-.12-1.38c2.61-.29,5.29-.59,8-.87l.11,1.38C143.15,142.95,140.47,143.24,137.86,143.53Zm247.93-.72-8-.68.09-1.38,8,.68Zm-238-.34-.11-1.38c2.63-.27,5.32-.53,8-.78l.1,1.38C153.14,141.93,150.46,142.19,147.83,142.46Zm228-.5-8-.62.08-1.38,8,.63Zm-218-.47-.09-1.38c2.66-.24,5.35-.47,8-.69l.09,1.38Zm208-.31-8-.57.07-1.38,8,.58Zm-198-.55-.08-1.38c2.67-.21,5.36-.42,8-.61l.08,1.38C173.13,140.23,170.45,140.43,167.78,140.65Zm188.05-.17-8-.52.07-1.38,8,.52Zm-178.06-.59-.07-1.38q3.94-.28,8-.54l.07,1.38Zm168.07-.06-8-.47.06-1.38,8,.47Zm-10-.58-8-.42.05-1.38,8,.42Zm-148.08,0-.06-1.38q3.95-.24,8-.46l.06,1.38Q191.7,139,187.76,139.23Zm138.08-.5-8-.36,0-1.38,8,.36Zm-128.08-.07-.05-1.38,8-.39,0,1.38Q201.71,138.46,197.76,138.67Zm118.08-.38-8-.31,0-1.38,8,.31Zm-108.08-.09,0-1.38q4-.17,8-.31l0,1.38Q211.71,138,207.76,138.2Zm98.07-.28-8-.25,0-1.38,8,.25Zm-88.07-.1,0-1.38,8-.25,0,1.38Zm78.06-.21-8-.2,0-1.38,8,.19Zm-68.06-.09,0-1.38,8-.18,0,1.38Zm58-.14-8-.13v-1.38l8,.13Zm-48-.07,0-1.38q4-.07,8-.11v1.38Zm38-.09-8-.07v-1.38l8,.08Zm-28,0v-1.38l8,0v1.38Zm18,0-6.2,0h-1.81v-1.38h1.81l6.2,0Z"/><path class="cls-45" d="M570.17,196.28c-2.23-.77-4.59-1.51-7-2.2l.29-1.34c2.44.69,4.82,1.44,7.08,2.22Zm-9-2.73c-2.5-.67-5.13-1.31-7.82-1.89l.22-1.36c2.7.59,5.35,1.23,7.87,1.9Zm-9.78-2.31c-2.54-.52-5.2-1-7.89-1.45l.17-1.37c2.71.44,5.38.93,7.94,1.46Zm-9.87-1.77c-2.58-.4-5.25-.76-7.94-1.08l.12-1.38c2.7.32,5.39.69,8,1.09Zm-9.93-1.31c-2.61-.29-5.29-.54-8-.76l.08-1.38c2.69.21,5.39.47,8,.76Zm-10-.91c-2.67-.19-5.36-.34-8-.45l0-1.38c2.64.11,5.35.26,8,.45Zm-10-.52c-4.94-.16-8-.11-8-.11l0-1.38s3.06-.06,8,.11Z"/><path class="cls-45" d="M582.94,96.68l-8-.86.11-1.38,8,.86Zm-10-1.07-8-.86.11-1.38,8,.86Zm-10-1.08-8-.86.11-1.38,8,.86Zm-10-1.07-8-.86.11-1.38,8,.86Z"/><path class="cls-45" d="M3.22,96.75l-.08-1.38,8-.62.08,1.38Zm10-.78-.08-1.38,8-.62.08,1.38Zm10-.78-.08-1.38,8-.62.08,1.38Zm10-.78L33.11,93l5.47-.43L38.67,94Z"/><path class="cls-45" d="M16.51,192.84l-.23-1.36s3.05-.69,7.93-1.59l.19,1.37C19.54,192.16,16.54,192.84,16.51,192.84Zm9.87-1.94-.18-1.37c2.63-.47,5.3-.91,8-1.32l.16,1.37C31.66,190,29,190.44,26.38,190.9Zm9.91-1.61-.15-1.37c2.68-.39,5.37-.75,8-1.06l.13,1.38C41.64,188.55,39,188.9,36.29,189.29ZM46.23,188l-.12-1.38c2.72-.3,5.41-.57,8-.78l.08,1.38C51.62,187.44,48.94,187.7,46.23,188Zm37.89-.77c-2.49-.28-5.17-.48-8-.59l0-1.38c2.81.11,5.51.31,8,.6Zm-27.92-.16-.08-1.38c2.74-.2,5.44-.35,8-.44l0,1.38C61.61,186.73,58.93,186.88,56.2,187.08Zm10-.49,0-1.38c2.78-.07,5.49-.07,8,0l0,1.38C71.64,186.52,68.95,186.52,66.18,186.58Z"/></g></g></svg>