<svg xmlns="http://www.w3.org/2000/svg" xmlns:xlink="http://www.w3.org/1999/xlink" viewBox="0 0 284.74 202.88"><defs><style>.cls-1{fill:#fff;}.cls-2{fill:url(#linear-gradient);}.cls-3{fill:url(#linear-gradient-2);}.cls-4{fill:url(#linear-gradient-3);}.cls-5{fill:url(#linear-gradient-4);}.cls-6{fill:url(#linear-gradient-5);}.cls-7{fill:url(#linear-gradient-6);}.cls-8{fill:url(#linear-gradient-7);}.cls-9{fill:url(#linear-gradient-8);}.cls-10{fill:url(#linear-gradient-9);}.cls-11{fill:#d9dee1;}.cls-12{fill:url(#linear-gradient-10);}.cls-13{fill:url(#linear-gradient-11);}.cls-14{fill:url(#linear-gradient-12);}.cls-15{fill:url(#linear-gradient-13);}.cls-16{fill:url(#linear-gradient-14);}.cls-17{fill:url(#linear-gradient-15);}</style><linearGradient id="linear-gradient" x1="150.42" y1="30.81" x2="150.42" y2="176" gradientUnits="userSpaceOnUse"><stop offset="0" stop-color="#ffdb00"/><stop offset="1" stop-color="#e8a300"/></linearGradient><linearGradient id="linear-gradient-2" x1="-9096.26" y1="56.04" x2="-9096.26" y2="46.57" gradientTransform="matrix(-1, 0, 0, 1, -8906.15, 0)" gradientUnits="userSpaceOnUse"><stop offset="0" stop-color="#ffdb00"/><stop offset="1" stop-color="#f7bd1f"/></linearGradient><linearGradient id="linear-gradient-3" x1="-9127.67" y1="101.63" x2="-9127.32" y2="79.93" gradientTransform="matrix(-1, 0, 0, 1, -8906.15, 0)" xlink:href="#linear-gradient"/><linearGradient id="linear-gradient-4" x1="13259.76" y1="42.11" x2="13259.76" y2="26.03" gradientTransform="translate(-13130.29)" xlink:href="#linear-gradient-2"/><linearGradient id="linear-gradient-5" x1="9877.1" y1="-2626.53" x2="9877.63" y2="-2659.08" gradientTransform="matrix(1.28, 0.32, -0.25, 0.97, -13230.94, -574.64)" xlink:href="#linear-gradient-2"/><linearGradient id="linear-gradient-6" x1="-9129.4" y1="141.05" x2="-9130.45" y2="127.21" gradientTransform="matrix(-1, 0, 0, 1, -8906.15, 0)" xlink:href="#linear-gradient"/><linearGradient id="linear-gradient-7" x1="-9086.75" y1="136.62" x2="-9085.75" y2="111.46" gradientTransform="matrix(-1, 0, 0, 1, -8906.15, 0)" xlink:href="#linear-gradient"/><linearGradient id="linear-gradient-8" x1="-9061.05" y1="140.18" x2="-9061.05" y2="129.67" gradientTransform="matrix(-1, 0, 0, 1, -8906.15, 0)" xlink:href="#linear-gradient"/><linearGradient id="linear-gradient-9" x1="-8986.66" y1="152.56" x2="-8986.66" y2="129.62" gradientTransform="matrix(-1, 0, 0, 1, -8906.15, 0)" xlink:href="#linear-gradient"/><linearGradient id="linear-gradient-10" x1="-116.64" y1="211.3" x2="-116.64" y2="258.64" gradientTransform="translate(190.95 -144.52) rotate(1.39)" gradientUnits="userSpaceOnUse"><stop offset="0" stop-color="#fff"/><stop offset="1" stop-color="#c7c7c7"/></linearGradient><linearGradient id="linear-gradient-11" x1="-114.62" y1="220.82" x2="-114.01" y2="254.78" xlink:href="#linear-gradient-10"/><linearGradient id="linear-gradient-12" x1="68" y1="92.47" x2="68" y2="111.22" gradientUnits="userSpaceOnUse"><stop offset="0" stop-color="#dfdfdf"/><stop offset="1" stop-color="#a8a8a8"/></linearGradient><linearGradient id="linear-gradient-13" x1="32.49" y1="284.37" x2="32.49" y2="331.71" xlink:href="#linear-gradient-10"/><linearGradient id="linear-gradient-14" x1="34.51" y1="293.89" x2="35.11" y2="327.85" xlink:href="#linear-gradient-10"/><linearGradient id="linear-gradient-15" x1="215.31" y1="169.13" x2="215.31" y2="187.87" xlink:href="#linear-gradient-12"/></defs><title>Ресурс 11weather2</title><g id="Слой_2" data-name="Слой 2"><g id="icons"><path class="cls-1" d="M271.89,130.18a38.9,38.9,0,0,0-12.76-7.93A115,115,0,0,0,261,101.44c0-31.22-11.52-57.43-33.32-75.8C208,9.11,180.6,0,150.42,0,119.28,0,91.7,9.21,72.1,26q-1.57-.16-3.12-.2h-1a40.51,40.51,0,0,0-22,6.42,34.81,34.81,0,0,0-6.15,5.11A27.17,27.17,0,0,0,18.29,52a26.2,26.2,0,0,0-1.23,2.85,33.69,33.69,0,0,0-3.49,2.51,37.88,37.88,0,0,0-10.92,15A35.54,35.54,0,0,0,.39,91a32.14,32.14,0,0,0,10.3,19.06c5.69,5.17,13.79,9.1,24.07,11.7,2.24.6,4.6,1.15,7.09,1.62,4.46,23.5,16.34,43.1,34.64,57,19.34,14.71,44.91,22.48,73.92,22.48a139.36,139.36,0,0,0,33.58-4,139.13,139.13,0,0,0,29.63,3.54q2.07.05,4.21.05a127.83,127.83,0,0,0,27.63-2.7c13.08-2.7,23.08-7.65,29.74-14.71a35,35,0,0,0,9.4-27.23C283.69,146.68,279.29,137.1,271.89,130.18Z"/><path class="cls-2" d="M246,101.44c0,56.3-42.78,86.44-95.56,86.44s-95.56-28.76-95.56-86.44S97.64,15,150.42,15,246,45.14,246,101.44Z"/><path class="cls-3" d="M188.59,55.52c-5.74-.79-9.41-8.38-2-9.36,3.39-.45,11,1.27,11.15,5.69C197.94,55.7,191.86,56,188.59,55.52Z"/><path class="cls-4" d="M216.82,99.8c-2.86-3.94-3.69-10.77-2.42-17,1-4.83,3.23-5.63,5.74-5.7,4.81-.12,9.79,5.54,8.46,16.26C227.54,101.92,220.26,104.55,216.82,99.8Z"/><path class="cls-5" d="M132.07,41.21c9.74-1.33,16-14.22,3.33-15.89-5.76-.76-18.61,2.16-18.93,9.65C116.18,41.53,126.51,42,132.07,41.21Z"/><path class="cls-6" d="M94.92,87.92C101.86,83.58,106,74,105.84,64.33c-.12-7.51-4.14-9.76-8.94-11.08C87.68,50.73,76,56.54,74.64,72.77,73.53,85.77,86.55,93.14,94.92,87.92Z"/><path class="cls-7" d="M223.3,140.82c-9.41,3.05-1.4-20.16,4.51-12.45C230.14,131.41,226.6,139.75,223.3,140.82Z"/><path class="cls-8" d="M177.55,138.25c-12.58-.06-21.15-17-9.92-24.71,9.13-6.3,23.42-9.07,28.62,3.38C202,130.8,189.85,138.32,177.55,138.25Z"/><path class="cls-9" d="M154.11,139.49c-11.85-1.17-.42-16.13,5.61-8.45C163,135.24,158.47,139.92,154.11,139.49Z"/><path class="cls-10" d="M77.65,132.55c4.56,2.86,14.52,12.48,12.22,18.55-4,10.52-21.35-11.71-18.82-18C72.21,130.23,75.66,131.31,77.65,132.55Z"/><path class="cls-11" d="M66.69,110.62c-21.91-.53-38.22-4.67-45.92-11.66a17.29,17.29,0,0,1-5.55-10.25A20.56,20.56,0,0,1,16.57,78a22.65,22.65,0,0,1,6.5-9,16.33,16.33,0,0,1,7.63-3.59,10.46,10.46,0,0,1,1-6.63,12.05,12.05,0,0,1,11.07-6.5,12.74,12.74,0,0,1,4.32.88,18.6,18.6,0,0,1,7.07-8.31,25.39,25.39,0,0,1,14.44-4,29,29,0,0,1,15.8,5.36A23,23,0,0,1,93.1,57.81c1.15-.08,2.3-.1,3.4-.08,7.13.17,13.3,2.5,17.83,6.74s7.41,10.55,8,18A19.63,19.63,0,0,1,117,98.14c-11,11.65-36.23,12.82-50.3,12.48Z"/><path class="cls-12" d="M68.49,44.81c9.57.23,20.44,7,22.16,17.91,15.77-2.27,27.22,6,28.49,22.29,1.72,22-28.95,26.37-52.45,25.8S29,105.43,22.83,99.57C11.12,88.5,23.41,67,35.6,70.55,29.15,61.95,40.22,51.82,49,59.27,50.26,49.78,59.54,44.59,68.49,44.81Z"/><path class="cls-11" d="M70.89,103.91c-5.29-.13-22.35-1.5-30.29-10.62C35.75,87.72,36.46,81.11,41,76c3.93-4.4,8.66-4.45,11.92-4.38a18.53,18.53,0,0,1,5.08.83A9.37,9.37,0,0,1,59.91,68c2.38-3.1,6.68-5.06,11.23-5.11H72a19.15,19.15,0,0,1,10.31,3,13,13,0,0,1,5.28,7.22A23.13,23.13,0,0,1,90,73.08c5.24.13,11.76,2.08,14.32,7.17s.18,14-7.29,19.57C90.88,104.39,70.89,103.91,70.89,103.91Z"/><path class="cls-13" d="M100.91,98.38c-4.92,9.06-15,11.38-24.24,11.32-9.82-.06-21.44-.6-30.13-5.82-5.48-3.29-10.26-12.86-7-20.14s13.72-10,20.88-5.73c-1.58-6.45,4.49-10.9,10.68-11,7-.09,13.54,3.13,14.57,10.67,5.28-1,13.56.37,16.2,5.83C104.36,88.66,103.48,93.65,100.91,98.38Z"/><path class="cls-14" d="M68.32,90.62c-20.45,0-45.11-1.44-45.11,4.53s17.29,14.42,44.9,14.42,44.69-8,44.69-12.77S84.13,90.62,68.32,90.62Z"/><path class="cls-11" d="M56,53.47c8.89-.3,14.69,4.48,13.85,11.87-1.51-5.14-6.13-7-13.41-7.47s-11.67,3.46-12.84,7C43.41,58,49.6,53.69,56,53.47Z"/><path class="cls-11" d="M214,187.28c-21.91-.53-38.22-4.67-45.92-11.67a17.29,17.29,0,0,1-5.55-10.25,20.56,20.56,0,0,1,1.35-10.75,22.65,22.65,0,0,1,6.5-9A16.33,16.33,0,0,1,178,142a10.46,10.46,0,0,1,1-6.63,12.05,12.05,0,0,1,11.07-6.5,12.72,12.72,0,0,1,4.32.88,18.6,18.6,0,0,1,7.07-8.31,25.39,25.39,0,0,1,14.44-4,29,29,0,0,1,15.8,5.36,23,23,0,0,1,8.72,11.61c1.16-.08,2.3-.1,3.4-.08,7.13.17,13.3,2.5,17.83,6.74s7.41,10.55,8,18a19.63,19.63,0,0,1-5.36,15.7c-11,11.65-36.24,12.82-50.3,12.48Z"/><path class="cls-15" d="M215.8,121.46c9.57.23,20.44,7,22.16,17.91,15.77-2.27,27.22,6,28.49,22.29,1.72,22-28.95,26.37-52.45,25.8s-37.64-5.37-43.86-11.24c-11.71-11.06.58-32.56,12.77-29-6.45-8.6,4.62-18.73,13.39-11.28C197.57,126.43,206.85,121.25,215.8,121.46Z"/><path class="cls-11" d="M218.21,180.56c-5.29-.13-22.35-1.5-30.29-10.62-4.85-5.57-4.14-12.18.42-17.29,3.93-4.4,8.66-4.45,11.92-4.37a18.43,18.43,0,0,1,5.08.83,9.38,9.38,0,0,1,1.89-4.42c2.38-3.1,6.68-5.06,11.23-5.11h.91a19.14,19.14,0,0,1,10.31,3,13,13,0,0,1,5.28,7.22,22.87,22.87,0,0,1,2.38-.06c5.24.13,11.76,2.08,14.32,7.17s.18,14-7.29,19.57C238.19,181,218.21,180.56,218.21,180.56Z"/><path class="cls-16" d="M248.22,175c-4.92,9.06-15,11.38-24.24,11.32-9.82-.06-21.44-.6-30.12-5.82-5.47-3.29-10.26-12.86-7-20.14s13.72-10,20.88-5.73c-1.58-6.44,4.49-10.9,10.68-11,7-.09,13.54,3.13,14.57,10.67,5.28-1,13.56.37,16.2,5.83C251.67,165.31,250.79,170.31,248.22,175Z"/><path class="cls-17" d="M215.63,167.28c-20.45,0-45.11-1.44-45.11,4.53s17.29,14.42,44.9,14.42,44.69-8,44.69-12.77S231.44,167.28,215.63,167.28Z"/><path class="cls-11" d="M203.34,130.13c8.89-.3,14.69,4.48,13.85,11.87-1.51-5.14-6.13-7.05-13.41-7.47s-11.67,3.46-12.84,7C190.72,134.67,196.91,130.34,203.34,130.13Z"/></g></g></svg>