<svg xmlns="http://www.w3.org/2000/svg" xmlns:xlink="http://www.w3.org/1999/xlink" viewBox="0 0 208.49 231.77"><defs><style>.cls-1{fill:#fff;}.cls-2{fill:#d9dee1;}.cls-3{fill:url(#linear-gradient);}.cls-4{fill:url(#linear-gradient-2);}.cls-5{fill:url(#linear-gradient-3);}.cls-6{fill:#7cc9fc;}</style><linearGradient id="linear-gradient" x1="-107.12" y1="199.24" x2="-107.12" y2="277.9" gradientTransform="translate(217.01 -143.27) rotate(1.39)" gradientUnits="userSpaceOnUse"><stop offset="0" stop-color="#fff"/><stop offset="1" stop-color="#c7c7c7"/></linearGradient><linearGradient id="linear-gradient-2" x1="-103.76" y1="215.06" x2="-102.76" y2="271.49" xlink:href="#linear-gradient"/><linearGradient id="linear-gradient-3" x1="103.05" y1="100.8" x2="103.05" y2="131.94" gradientUnits="userSpaceOnUse"><stop offset="0" stop-color="#dfdfdf"/><stop offset="1" stop-color="#a8a8a8"/></linearGradient></defs><title>Ресурс 2weather2</title><g id="Слой_2" data-name="Слой 2"><g id="icons"><path class="cls-1" d="M14.51,122.67a64.34,64.34,0,0,0,16.64,10.61,22,22,0,0,0-4.76,30.9,22.2,22.2,0,0,0,0,26.11,22.2,22.2,0,0,0,2.3,28.82c7.82,7.73,20,12.22,34.42,12.64.73,0,1.45,0,2.17,0,12.21,0,23.6-3,32.06-8.36,1.85-1.18,6-2.44,10.89-2.44a16.16,16.16,0,0,1,6.27,1c8.78,5.68,21.42,8.94,34.69,8.94,11.27,0,22-2.35,30.1-6.63a22.16,22.16,0,0,0,7.6-32.69,22.13,22.13,0,0,0,0-26.11,22.17,22.17,0,0,0-7.95-32.86,61.26,61.26,0,0,0,16.42-12.09c9.65-10.23,14.13-23.23,12.94-37.61-1.33-16.1-7.56-29.78-18-39.57-9.46-8.85-21.82-14-35.92-15.06A55.38,55.38,0,0,0,139,11.74,63.49,63.49,0,0,0,104.39,0L103,0A57.32,57.32,0,0,0,71.81,9.05a47.89,47.89,0,0,0-11,9.89h-.23A35.19,35.19,0,0,0,29.33,38a33.15,33.15,0,0,0-2.58,6.94,45,45,0,0,0-7.84,5.18,52.87,52.87,0,0,0-15.23,21A49.19,49.19,0,0,0,.54,96.84,43.58,43.58,0,0,0,14.51,122.67Z"/><path class="cls-2" d="M100.88,130.94c-36.4-.88-63.49-7.76-76.29-19.38a28.74,28.74,0,0,1-9.23-17,34.18,34.18,0,0,1,2.25-17.86,37.62,37.62,0,0,1,10.8-14.95,27.13,27.13,0,0,1,12.67-6,17.38,17.38,0,0,1,1.65-11,20,20,0,0,1,18.39-10.8,21.11,21.11,0,0,1,7.18,1.46A30.91,30.91,0,0,1,80,21.59,42.2,42.2,0,0,1,104,15a48.13,48.13,0,0,1,26.25,8.91,38.21,38.21,0,0,1,14.48,19.29c1.92-.13,3.81-.17,5.65-.13,11.85.29,22.09,4.16,29.62,11.2,7.7,7.2,12.31,17.52,13.32,29.84.84,10.16-2.16,18.94-8.9,26.09-18.26,19.35-60.2,21.29-83.57,20.73Z"/><path class="cls-3" d="M103.87,21.6c15.9.38,34,11.61,36.81,29.76,26.19-3.77,45.22,10,47.34,37,2.86,36.6-48.09,43.81-87.15,42.86S38.33,122.33,28,112.58C8.55,94.2,29,58.49,49.23,64.37,38.51,50.08,56.9,33.26,71.47,45.64,73.58,29.86,89,21.24,103.87,21.6Z"/><path class="cls-2" d="M107.86,119.79c-8.79-.21-37.13-2.49-50.33-17.64-8.07-9.26-6.88-20.24.69-28.72C64.75,66.13,72.61,66,78,66.16a30.62,30.62,0,0,1,8.44,1.38,15.56,15.56,0,0,1,3.14-7.35c4-5.15,11.1-8.41,18.65-8.49h1.51a31.81,31.81,0,0,1,17.13,5,21.58,21.58,0,0,1,8.77,12,38.41,38.41,0,0,1,4-.11c8.71.21,19.54,3.45,23.8,11.91s.3,23.33-12.11,32.52C141.06,120.59,107.86,119.79,107.86,119.79Z"/><path class="cls-4" d="M157.73,110.62c-8.18,15.06-24.84,18.91-40.28,18.81-16.31-.1-35.62-1-50-9.67-9.1-5.47-17-21.37-11.62-33.46,5.52-12.29,22.8-16.64,34.7-9.52-2.63-10.71,7.46-18.1,17.75-18.24,11.7-.15,22.49,5.2,24.21,17.73,8.77-1.7,22.53.62,26.91,9.68C163.46,94.46,162,102.75,157.73,110.62Z"/><path class="cls-5" d="M103.58,97.72c-34,0-75-2.4-75,7.53s28.72,24,74.6,24,74.25-13.34,74.25-21.22S129.85,97.72,103.58,97.72Z"/><path class="cls-2" d="M83.17,36c14.78-.49,24.41,7.44,23,19.72C103.67,47.19,96,44,83.91,43.32S64.53,49.06,62.58,54.94C62.2,43.55,72.48,36.36,83.17,36Z"/><path class="cls-6" d="M65.29,164.55l-1.75,0c-10.41-.3-19.27-3.33-24.3-8.31A7.18,7.18,0,0,1,49.34,146c5,4.92,23.45,6,32.23.43,12.4-7.91,35-10.33,48.89-1.35,7.31,4.73,25.34,6.14,35.17,1a7.18,7.18,0,0,1,6.68,12.71c-13.62,7.15-37.28,6.38-49.65-1.63-7.81-5.05-24.34-4.36-33.37,1.4-6,3.85-14.71,6-24,6Z"/><path class="cls-6" d="M65.29,190.66l-1.75,0c-10.41-.3-19.27-3.33-24.3-8.31a7.18,7.18,0,0,1,10.1-10.21c5,4.92,23.45,6,32.23.43,12.4-7.91,35-10.33,48.89-1.35,7.31,4.73,25.34,6.14,35.17,1a7.18,7.18,0,0,1,6.68,12.71c-13.62,7.16-37.28,6.38-49.65-1.63-7.81-5.05-24.34-4.36-33.37,1.4-6,3.85-14.71,6-24,6Z"/><path class="cls-6" d="M65.29,216.77l-1.75,0c-10.41-.3-19.27-3.33-24.3-8.31a7.18,7.18,0,1,1,10.1-10.21c5,4.92,23.45,6,32.23.42,12.4-7.91,35-10.33,48.89-1.35,7.31,4.73,25.34,6.14,35.17,1A7.18,7.18,0,0,1,172.31,211c-13.62,7.15-37.28,6.38-49.65-1.63-7.81-5.05-24.34-4.36-33.37,1.4-6,3.85-14.71,6-24,6Z"/></g></g></svg>