<svg xmlns="http://www.w3.org/2000/svg" xmlns:xlink="http://www.w3.org/1999/xlink" viewBox="0 0 115.04 90.95"><defs><style>.cls-1{fill:url(#radial-gradient);}.cls-2{fill:url(#linear-gradient);}.cls-3{fill:url(#linear-gradient-2);}.cls-4{fill:url(#radial-gradient-2);}.cls-5{fill:url(#radial-gradient-3);}.cls-6{fill:url(#radial-gradient-4);}.cls-7{mask:url(#mask);}.cls-8{fill:#ffe9e0;}.cls-9{mask:url(#mask-2);}.cls-10{fill:#ffdd15;}.cls-11{mask:url(#mask-3);}.cls-12{fill:#ffe862;}.cls-13{fill:#ffed81;}.cls-14{opacity:0.66;}.cls-15{opacity:0.39;}</style><radialGradient id="radial-gradient" cx="59.08" cy="45.47" r="45.47" gradientUnits="userSpaceOnUse"><stop offset="0" stop-color="#806f0b"/><stop offset="0.16" stop-color="#7b6b0b"/><stop offset="0.34" stop-color="#6e5f09"/><stop offset="0.53" stop-color="#584c08"/><stop offset="0.73" stop-color="#393105"/><stop offset="0.93" stop-color="#110f01"/><stop offset="1"/></radialGradient><linearGradient id="linear-gradient" x1="31.22" y1="45.47" x2="86.93" y2="45.47" gradientUnits="userSpaceOnUse"><stop offset="0" stop-color="#6d6e70"/><stop offset="0.28" stop-color="#525354"/><stop offset="0.89" stop-color="#0d0d0d"/><stop offset="1"/></linearGradient><linearGradient id="linear-gradient-2" x1="32.35" y1="45.47" x2="59.08" y2="45.47" gradientUnits="userSpaceOnUse"><stop offset="0" stop-color="#fff"/><stop offset="1" stop-color="#404041"/></linearGradient><radialGradient id="radial-gradient-2" cx="95.12" cy="-1816.76" r="95.12" gradientTransform="translate(0 1622) scale(1 0.84)" gradientUnits="userSpaceOnUse"><stop offset="0" stop-color="#fff"/><stop offset="1" stop-color="#fff" stop-opacity="0"/></radialGradient><radialGradient id="radial-gradient-3" cx="-9050.25" cy="4758.5" r="119.53" gradientTransform="matrix(0, 0.67, -1, 0, 4910.05, 6212.54)" xlink:href="#radial-gradient-2"/><radialGradient id="radial-gradient-4" cx="17411.05" cy="18.6" r="89.72" gradientTransform="matrix(0.64, 0, 0, 1.04, -10965.65, 106.74)" xlink:href="#radial-gradient-2"/><mask id="mask" x="13.6" y="0" width="90.95" height="90.95" maskUnits="userSpaceOnUse"><circle class="cls-1" cx="59.08" cy="45.47" r="45.47"/></mask><mask id="mask-2" x="31.22" y="17.62" width="55.71" height="55.71" maskUnits="userSpaceOnUse"><circle class="cls-2" cx="59.08" cy="45.47" r="27.86"/></mask><mask id="mask-3" x="32.35" y="18.74" width="26.73" height="53.46" maskUnits="userSpaceOnUse"><path class="cls-3" d="M59.08,72.21a26.73,26.73,0,0,1,0-53.46C45.34,32.48,45.71,58.83,59.08,72.21Z"/></mask><symbol id="New_Symbol" data-name="New Symbol" viewBox="0 0 257.01 223.64"><ellipse class="cls-4" cx="95.12" cy="100.46" rx="95.12" ry="79.67"/><ellipse class="cls-5" cx="151.78" cy="111.82" rx="119.53" ry="80.57" transform="translate(-19.1 191.45) rotate(-61.36)"/><ellipse class="cls-6" cx="167.61" cy="125.74" rx="57.37" ry="93.72" transform="translate(-12.47 232.87) rotate(-67.62)"/></symbol></defs><title>Ресурс 5weather</title><g id="Слой_2" data-name="Слой 2"><g id="Layer_2" data-name="Layer 2"><g class="cls-7"><circle class="cls-8" cx="59.08" cy="45.47" r="45.47"/></g><g class="cls-9"><circle class="cls-10" cx="59.08" cy="45.47" r="27.86"/></g><g class="cls-11"><path class="cls-12" d="M59.08,72.21a26.73,26.73,0,0,1,0-53.46C45.09,32.73,45.45,58.58,59.08,72.21Z"/></g><path class="cls-13" d="M35.54,46.7c0-23.3,16.25-27.1,20.63-27.1-12.52,0-22.67,11.14-22.67,24.88A25.82,25.82,0,0,0,41.8,63.71C38.59,59.42,35.54,52.69,35.54,46.7Z"/><use width="257.01" height="223.64" transform="translate(0 45.4) scale(0.18 0.12)" xlink:href="#New_Symbol"/><use width="257.01" height="223.64" transform="translate(19.72 46.28) scale(0.18 0.12)" xlink:href="#New_Symbol"/><use width="257.01" height="223.64" transform="translate(26.72 47.65) scale(0.18 0.12)" xlink:href="#New_Symbol"/><use width="257.01" height="223.64" transform="translate(34.42 46.02) scale(0.18 0.12)" xlink:href="#New_Symbol"/><g class="cls-14"><use width="257.01" height="223.64" transform="translate(31.63 58.58) scale(0.12 0.11)" xlink:href="#New_Symbol"/><use width="257.01" height="223.64" transform="translate(45.2 59.37) scale(0.12 0.11)" xlink:href="#New_Symbol"/><use width="257.01" height="223.64" transform="translate(50.03 60.61) scale(0.12 0.11)" xlink:href="#New_Symbol"/><use width="257.01" height="223.64" transform="translate(55.33 59.13) scale(0.12 0.11)" xlink:href="#New_Symbol"/></g><g class="cls-15"><use width="257.01" height="223.64" transform="translate(115.04 72.36) rotate(180) scale(0.07 0.07)" xlink:href="#New_Symbol"/><use width="257.01" height="223.64" transform="translate(107.2 71.89) rotate(180) scale(0.07 0.07)" xlink:href="#New_Symbol"/><use width="257.01" height="223.64" transform="translate(104.42 71.16) rotate(180) scale(0.07 0.07)" xlink:href="#New_Symbol"/><use width="257.01" height="223.64" transform="translate(101.36 72.03) rotate(180) scale(0.07 0.07)" xlink:href="#New_Symbol"/></g><g class="cls-15"><use width="257.01" height="223.64" transform="translate(98.98 38.37) rotate(180) scale(0.06 0.09)" xlink:href="#New_Symbol"/><use width="257.01" height="223.64" transform="translate(92.82 37.75) rotate(180) scale(0.06 0.09)" xlink:href="#New_Symbol"/><use width="257.01" height="223.64" transform="translate(90.64 36.78) rotate(180) scale(0.06 0.09)" xlink:href="#New_Symbol"/><use width="257.01" height="223.64" transform="translate(88.23 37.93) rotate(180) scale(0.06 0.09)" xlink:href="#New_Symbol"/></g><use width="257.01" height="223.64" transform="translate(72.06 74.73) scale(0.12 0.04)" xlink:href="#New_Symbol"/></g></g></svg>