<svg xmlns="http://www.w3.org/2000/svg" xmlns:xlink="http://www.w3.org/1999/xlink" viewBox="0 0 208.49 229.03"><defs><style>.cls-1{fill:#fff;}.cls-2{fill:#d9dee1;}.cls-3{fill:url(#linear-gradient);}.cls-4{fill:url(#linear-gradient-2);}.cls-5{fill:url(#linear-gradient-3);}.cls-6{fill:url(#linear-gradient-4);}.cls-7{fill:url(#linear-gradient-5);}.cls-8{fill:url(#linear-gradient-6);}.cls-9{fill:url(#linear-gradient-7);}.cls-10{fill:url(#linear-gradient-8);}.cls-11{fill:url(#linear-gradient-9);}.cls-12{fill:url(#linear-gradient-10);}.cls-13{fill:url(#linear-gradient-11);}.cls-14{fill:url(#linear-gradient-12);}.cls-15{fill:url(#linear-gradient-13);}</style><linearGradient id="linear-gradient" x1="-73.78" y1="162" x2="-73.78" y2="240.66" gradientTransform="translate(182.78 -106.84) rotate(1.39)" gradientUnits="userSpaceOnUse"><stop offset="0" stop-color="#fff"/><stop offset="1" stop-color="#c7c7c7"/></linearGradient><linearGradient id="linear-gradient-2" x1="-70.43" y1="177.81" x2="-69.42" y2="234.24" xlink:href="#linear-gradient"/><linearGradient id="linear-gradient-3" x1="103.06" y1="100.8" x2="103.06" y2="131.94" gradientUnits="userSpaceOnUse"><stop offset="0" stop-color="#dfdfdf"/><stop offset="1" stop-color="#a8a8a8"/></linearGradient><linearGradient id="linear-gradient-4" x1="-601.63" y1="-2763.38" x2="-601.63" y2="-2720.79" gradientTransform="translate(-1457.53 2516.96) rotate(45)" gradientUnits="userSpaceOnUse"><stop offset="0" stop-color="#84d9ff"/><stop offset="1" stop-color="#2999f5"/></linearGradient><linearGradient id="linear-gradient-5" x1="-303.57" y1="-2253.13" x2="-303.57" y2="-2235.33" gradientTransform="matrix(0.81, 0.59, -0.59, 0.81, -1023.83, 2131.3)" gradientUnits="userSpaceOnUse"><stop offset="0" stop-color="#8ccefd"/><stop offset="1" stop-color="#92d3ff"/></linearGradient><linearGradient id="linear-gradient-6" x1="-565.26" y1="-2799.75" x2="-565.26" y2="-2757.16" xlink:href="#linear-gradient-4"/><linearGradient id="linear-gradient-7" x1="-262.1" y1="-2283.54" x2="-262.1" y2="-2265.75" xlink:href="#linear-gradient-5"/><linearGradient id="linear-gradient-8" x1="-528.89" y1="-2836.13" x2="-528.89" y2="-2793.53" xlink:href="#linear-gradient-4"/><linearGradient id="linear-gradient-9" x1="-220.62" y1="-2313.96" x2="-220.62" y2="-2296.17" xlink:href="#linear-gradient-5"/><linearGradient id="linear-gradient-10" x1="-559.42" y1="-2746.25" x2="-559.42" y2="-2703.65" xlink:href="#linear-gradient-4"/><linearGradient id="linear-gradient-11" x1="-264.46" y1="-2229.78" x2="-264.46" y2="-2211.98" xlink:href="#linear-gradient-5"/><linearGradient id="linear-gradient-12" x1="-523.05" y1="-2782.62" x2="-523.05" y2="-2740.03" xlink:href="#linear-gradient-4"/><linearGradient id="linear-gradient-13" x1="-222.98" y1="-2260.19" x2="-222.98" y2="-2242.4" xlink:href="#linear-gradient-5"/></defs><title>Ресурс 34weather2</title><g id="Слой_2" data-name="Слой 2"><g id="icons"><path class="cls-1" d="M195.36,120.51c9.65-10.23,14.13-23.23,12.95-37.61-1.33-16.1-7.56-29.78-18-39.57-9.46-8.85-21.82-14-35.92-15.06A55.4,55.4,0,0,0,139,11.74,63.47,63.47,0,0,0,104.39,0L103,0A57.32,57.32,0,0,0,71.81,9.05a47.94,47.94,0,0,0-11,9.89h-.23A35.2,35.2,0,0,0,29.33,38a33.13,33.13,0,0,0-2.58,6.94,44.93,44.93,0,0,0-7.84,5.18,52.86,52.86,0,0,0-15.22,21A49.17,49.17,0,0,0,.54,96.83a43.57,43.57,0,0,0,14,25.84,65.44,65.44,0,0,0,17.77,11.11,31.6,31.6,0,0,0-10.91,21.43,29.34,29.34,0,0,0,8.48,22.87,31.06,31.06,0,0,0,12.5,7.49,30.22,30.22,0,0,0-3.25,11.61A29.34,29.34,0,0,0,47.58,220a31.63,31.63,0,0,0,21.93,9h0a30.1,30.1,0,0,0,25.13-13.56L95,215A29.1,29.1,0,0,0,99,220,31.62,31.62,0,0,0,121,229a30.1,30.1,0,0,0,25.13-13.56c4.75-7,7.24-16.22,8.48-22.73.39-2.05.7-3.94.92-5.7a30.11,30.11,0,0,0,24.3-13.54c4.75-7,7.24-16.22,8.48-22.73,2.2-11.47,1.76-18-1.58-22.84A56,56,0,0,0,195.36,120.51Z"/><path class="cls-2" d="M100.88,130.94c-36.4-.88-63.5-7.76-76.29-19.38a28.73,28.73,0,0,1-9.23-17,34.17,34.17,0,0,1,2.25-17.86,37.62,37.62,0,0,1,10.8-15,27.12,27.12,0,0,1,12.67-6,17.39,17.39,0,0,1,1.65-11,20,20,0,0,1,18.39-10.8A21.11,21.11,0,0,1,68.3,35.4,30.92,30.92,0,0,1,80,21.59,42.2,42.2,0,0,1,104,15a48.11,48.11,0,0,1,26.25,8.91,38.2,38.2,0,0,1,14.48,19.29c1.92-.13,3.82-.17,5.65-.13,11.85.29,22.09,4.16,29.62,11.2,7.7,7.2,12.31,17.52,13.32,29.84.84,10.16-2.16,18.94-8.9,26.09-18.26,19.35-60.2,21.29-83.57,20.73Z"/><path class="cls-3" d="M103.87,21.6c15.9.38,34,11.61,36.81,29.75,26.19-3.77,45.23,10,47.34,37,2.86,36.6-48.09,43.81-87.14,42.86S38.34,122.33,28,112.58C8.55,94.2,29,58.49,49.23,64.37,38.51,50.08,56.9,33.26,71.47,45.64,73.58,29.86,89,21.24,103.87,21.6Z"/><path class="cls-2" d="M107.86,119.79c-8.79-.21-37.13-2.49-50.33-17.64-8.06-9.26-6.88-20.24.69-28.72C64.75,66.12,72.61,66,78,66.16a30.61,30.61,0,0,1,8.44,1.38,15.54,15.54,0,0,1,3.14-7.34c4-5.15,11.1-8.41,18.65-8.49h1.51a31.8,31.8,0,0,1,17.13,5,21.58,21.58,0,0,1,8.78,12,38.39,38.39,0,0,1,4-.11c8.71.21,19.54,3.45,23.8,11.91s.3,23.33-12.11,32.52C141.06,120.59,107.86,119.79,107.86,119.79Z"/><path class="cls-4" d="M157.74,110.62c-8.18,15.06-24.84,18.91-40.28,18.81-16.31-.1-35.62-1-50-9.67-9.1-5.47-17-21.37-11.62-33.46,5.52-12.29,22.8-16.64,34.7-9.52-2.63-10.71,7.46-18.1,17.75-18.24,11.7-.15,22.49,5.2,24.21,17.74,8.77-1.7,22.53.62,26.91,9.68C163.46,94.46,162,102.75,157.74,110.62Z"/><path class="cls-5" d="M103.58,97.72c-34,0-75-2.39-75,7.53s28.72,24,74.6,24,74.25-13.35,74.25-21.22S129.85,97.72,103.58,97.72Z"/><path class="cls-2" d="M83.17,36c14.78-.49,24.41,7.44,23,19.72C103.67,47.19,96,44,83.91,43.32S64.53,49.06,62.58,54.94C62.2,43.55,72.48,36.36,83.17,36Z"/><path class="cls-6" d="M71.48,136.44c-1.09-1.39-19.45,1.11-27.7,7.28-9.61,7.2-9.12,17.95-3.33,23.74s17.5,7.24,24.06-2.4C70.54,156.19,72.57,137.83,71.48,136.44Z"/><path class="cls-7" d="M68.09,137.71c-.78-.67-7.31.69-9.82,1.58C50.62,142,48,145.94,49.81,148s7.84-1.87,11.74-4.67S68.94,138.45,68.09,137.71Z"/><path class="cls-8" d="M122.91,136.44c-1.09-1.39-19.45,1.11-27.7,7.28-9.61,7.2-9.12,17.95-3.33,23.74s17.5,7.24,24.06-2.4C122,156.19,124,137.83,122.91,136.44Z"/><path class="cls-9" d="M119.53,137.71c-.78-.67-7.31.69-9.82,1.58-7.65,2.71-10.31,6.65-8.46,8.7s7.84-1.87,11.74-4.67S120.37,138.45,119.53,137.71Z"/><path class="cls-10" d="M174.35,136.44c-1.1-1.39-19.45,1.11-27.7,7.28-9.61,7.2-9.12,17.95-3.33,23.74s17.5,7.24,24.06-2.4C173.42,156.19,175.44,137.83,174.35,136.44Z"/><path class="cls-11" d="M171,137.71c-.78-.67-7.31.69-9.82,1.58-7.65,2.71-10.31,6.65-8.46,8.7s7.84-1.87,11.74-4.67S171.81,138.45,171,137.71Z"/><path class="cls-12" d="M89.21,178.41c-1.09-1.39-19.45,1.11-27.7,7.29-9.61,7.2-9.12,17.95-3.33,23.74s17.5,7.25,24.06-2.4C88.28,198.15,90.31,179.79,89.21,178.41Z"/><path class="cls-13" d="M85.83,179.68c-.78-.67-7.31.69-9.82,1.58-7.65,2.71-10.31,6.65-8.46,8.7s7.84-1.87,11.74-4.67S86.67,180.42,85.83,179.68Z"/><path class="cls-14" d="M140.65,178.41c-1.1-1.39-19.45,1.11-27.7,7.29-9.61,7.2-9.12,17.95-3.32,23.74s17.5,7.25,24.06-2.4C139.71,198.15,141.74,179.79,140.65,178.41Z"/><path class="cls-15" d="M137.26,179.68c-.78-.67-7.31.69-9.82,1.58-7.65,2.71-10.3,6.65-8.46,8.7s7.84-1.87,11.74-4.67S138.11,180.42,137.26,179.68Z"/></g></g></svg>