<svg xmlns="http://www.w3.org/2000/svg" xmlns:xlink="http://www.w3.org/1999/xlink" viewBox="0 0 221.05 203.84"><defs><style>.cls-1{fill:#fff;}.cls-2{fill:url(#linear-gradient);}.cls-3{fill:#fff2a0;}.cls-4{fill:#d68000;}.cls-5{fill:#fed900;}.cls-6{fill:url(#linear-gradient-2);}.cls-7{fill:url(#linear-gradient-3);}</style><linearGradient id="linear-gradient" x1="110.54" y1="27.83" x2="110.54" y2="176.65" gradientUnits="userSpaceOnUse"><stop offset="0" stop-color="#ffdb00"/><stop offset="1" stop-color="#e8a300"/></linearGradient><linearGradient id="linear-gradient-2" x1="135.47" y1="37.8" x2="135.47" y2="91.57" xlink:href="#linear-gradient"/><linearGradient id="linear-gradient-3" x1="183.58" y1="16.05" x2="183.58" y2="43.33" xlink:href="#linear-gradient"/></defs><title>Ресурс 33weather2</title><g id="Слой_2" data-name="Слой 2"><g id="icons"><path class="cls-1" d="M22.12,31.3C7.44,49.26,0,71.74,0,98.13c0,33.12,12,60.63,34.77,79.58,20.53,17.09,48.37,26.13,80.5,26.13,27.14,0,51.8-6.85,71.34-19.82a95.94,95.94,0,0,0,29.65-30.88c5.56-9.31,6.32-19.36,2-26.89C214.6,119.71,207.88,116,199.87,116a28.54,28.54,0,0,0-5.78.62,118.05,118.05,0,0,1-23.93,2.37c-8.94,0-26.93-1.1-44.09-8.58a46.39,46.39,0,0,0,9.45-5.75c5,3.67,10.93,7.5,17.94,7.5A18.08,18.08,0,0,0,163.73,109c11.09-7.6,7.83-20.6,5.18-28.42,6.16-4.48,14.32-11.49,13.78-21.34l.95-.48a19.19,19.19,0,0,0,9.07,2.4,16.53,16.53,0,0,0,9.38-2.89c7.35-5,7.74-12.36,6.76-17.88,4-4,8-10.2,5.15-18.46-1.32-3.83-4.95-9.94-14.8-11.33-2.49-5-7-10.58-15.62-10.58S170.44,5.58,168,10.61C158.17,12,154.53,18,153.2,21.81c-2.94,8.34,1.08,14.6,5.15,18.6,0,.21-.06.42-.1.63h-2c-2.83-8.53-7.77-20.31-20.79-20.31s-18,11.79-20.8,20.33H113.3c-4.8,0-19.4,0-24,12.94-4.46,12.63,5.54,21.33,12.74,26.58a47.94,47.94,0,0,0-2.42,10.15c-8.83-11-14.77-26.31-14.77-47.48a94.06,94.06,0,0,1,1.39-16.43c1.14-6.43-.32-12.47-4.12-17A19.8,19.8,0,0,0,66.65,2.88,30.06,30.06,0,0,0,53,6.51,97.74,97.74,0,0,0,22.12,31.3Z"/><path class="cls-2" d="M69.89,43.24a108.58,108.58,0,0,1,1.62-19.06c1.19-6.68-4.83-7.91-11.63-4.37a82.84,82.84,0,0,0-26.14,21C21.94,55.22,15,74.33,15,98.13c0,60.53,44.89,90.7,100.28,90.7,23.88,0,45.82-5.88,63-17.32a81.14,81.14,0,0,0,25.06-26.07c4.94-8.27,3.23-16.15-6.24-14.18a132.87,132.87,0,0,1-27,2.68C114.78,133.95,69.89,103.77,69.89,43.24Z"/><path class="cls-3" d="M67.59,20.69c-2.66-1.14-8.75,1.21-13.86,5.25C59.52,23.78,63.82,22.3,66,23.51c1.53.86,2.69,4.44,2.69,7.4C70.41,26.34,70.41,21.9,67.59,20.69Z"/><path class="cls-4" d="M114.27,185.26c25.47,0,54.53-7.89,71.39-23.32-18.29,7.89-42.33,17.22-70.31,17.22s-43-4.66-58.83-9.69A109.77,109.77,0,0,0,114.27,185.26Z"/><path class="cls-5" d="M193.49,134.88c-24.49,7.34-66.11,5.24-93.12-13.9S67.43,71.71,68.56,62.29c2.72,10,10.76,40.37,35.32,56.13C127.92,133.85,169,140.23,193.49,134.88Z"/><path class="cls-6" d="M135.48,35.74c5.35,0,7.6,17,10.28,19.49s19.87-1.62,21.72,3.75-13.68,12.54-15.37,15.8S160,93.38,155.25,96.6s-16.1-9.73-19.78-9.73-15.26,13.3-19.78,9.73,4.83-18.55,3.14-21.82S101.6,64.3,103.48,59s19-1.24,21.72-3.75S130.13,35.74,135.48,35.74Z"/><path class="cls-7" d="M183.58,15c2.71,0,3.86,8.61,5.22,9.89s10.08-.82,11,1.91-6.94,6.36-7.79,8,4,9.43,1.59,11.07-8.17-4.94-10-4.94-7.74,6.75-10,4.94,2.45-9.41,1.59-11.07-8.75-5.32-7.8-8,9.66-.63,11-1.91S180.87,15,183.58,15Z"/></g></g></svg>