<svg xmlns="http://www.w3.org/2000/svg" xmlns:xlink="http://www.w3.org/1999/xlink" viewBox="0 0 219.91 201.78"><defs><style>.cls-1{fill:#fff;}.cls-2{fill:url(#linear-gradient);}.cls-3{fill:url(#linear-gradient-2);}.cls-4{fill:url(#linear-gradient-3);}.cls-5{fill:url(#linear-gradient-4);}.cls-6{fill:url(#linear-gradient-5);}</style><linearGradient id="linear-gradient" x1="109.95" y1="30.71" x2="109.95" y2="174.97" gradientUnits="userSpaceOnUse"><stop offset="0" stop-color="#84d9ff"/><stop offset="1" stop-color="#2999f5"/></linearGradient><linearGradient id="linear-gradient-2" x1="110.21" y1="32.32" x2="110.21" y2="157.38" gradientUnits="userSpaceOnUse"><stop offset="0" stop-color="#43acf8"/><stop offset="1" stop-color="#0c73cf"/></linearGradient><linearGradient id="linear-gradient-3" x1="107.54" y1="17.08" x2="114.72" y2="147.75" gradientUnits="userSpaceOnUse"><stop offset="0" stop-color="#e7f8ff"/><stop offset="1" stop-color="#73cdfd"/></linearGradient><linearGradient id="linear-gradient-4" x1="74.31" y1="113.56" x2="74.31" y2="58.28" xlink:href="#linear-gradient"/><linearGradient id="linear-gradient-5" x1="132.58" y1="148.02" x2="132.58" y2="52.48" xlink:href="#linear-gradient"/></defs><title>Ресурс 23weather2</title><g id="Слой_2" data-name="Слой 2"><g id="icons"><path class="cls-1" d="M33.21,176.86C52.8,193.16,79.33,201.78,110,201.78c30,0,57.3-9.05,76.81-25.5,21.68-18.27,33.14-44.34,33.14-75.39s-11.46-57.12-33.14-75.4C167.25,9.06,140,0,110,0,79.33,0,52.8,8.62,33.21,24.93,11.48,43,0,69.29,0,100.89S11.49,158.77,33.21,176.86Z"/><path class="cls-2" d="M204.91,100.89c0,55.94-42.51,85.89-95,85.89s-95-28.58-95-85.89S57.51,15,110,15,204.91,45,204.91,100.89Z"/><path class="cls-3" d="M110.21,177.11c-38.49,0-70.33-20.38-83.27-39.67,9.8,22.77,44.78,46.49,83.27,46.49s73.47-23.72,83.27-46.49C180.54,156.74,148.7,177.11,110.21,177.11Z"/><path class="cls-4" d="M110.21,26.22c-38.49,0-70.33,20.27-83.27,39.56C36.74,43,71.73,19.29,110.21,19.29S183.69,43,193.48,65.77C180.54,46.48,148.7,26.22,110.21,26.22Z"/><path class="cls-5" d="M74.31,108.68a26.45,26.45,0,1,1,26.45-26.45,26.48,26.48,0,0,1-26.45,26.45Z"/><path class="cls-6" d="M106.24,151.12a18,18,0,0,1-13.3-5.58c-2.72-2.64-5.84-7.3-5.84-14.75V75.33c0-13.15,8.62-21.32,22.5-21.32h49.93c7.08,0,11.36,3.09,13.71,5.72a18,18,0,0,1,4.84,12.34,17.44,17.44,0,0,1-5.17,12.59,18.33,18.33,0,0,1-11.15,5.23,16.35,16.35,0,0,1,5.87,4.19,18.42,18.42,0,0,1-.11,24.77c-2.35,2.63-6.61,5.72-13.61,5.72H126v6.22a20,20,0,0,1-6.18,15.07,19.51,19.51,0,0,1-13.55,5.25Z"/><path class="cls-1" d="M74.31,99.11A16.88,16.88,0,1,1,91.19,82.23,16.9,16.9,0,0,1,74.31,99.11Zm0-25.24a8.36,8.36,0,1,0,8.36,8.36,8.37,8.37,0,0,0-8.36-8.36Z"/><path class="cls-1" d="M168.5,72.08a7.91,7.91,0,0,1-2.37,5.82,9.33,9.33,0,0,1-6.91,2.57h-37.1q-5.72,0-5.72,4.44V98h37.79a8,8,0,0,1,6.31,2.47,8.57,8.57,0,0,1,2.27,6,8.47,8.47,0,0,1-2.37,5.92A8.24,8.24,0,0,1,153.9,115H116.4v15.79a10.56,10.56,0,0,1-3.16,8.09,9.9,9.9,0,0,1-7,2.66,8.51,8.51,0,0,1-6.51-2.76q-3.06-2.86-3.06-8V75.33q0-11.74,12.93-11.74h49.93q4.34,0,6.61,2.57A8.47,8.47,0,0,1,168.5,72.08Z"/></g></g></svg>