<svg xmlns="http://www.w3.org/2000/svg" xmlns:xlink="http://www.w3.org/1999/xlink" viewBox="0 0 90.95 90.95"><defs><style>.cls-1{fill:url(#radial-gradient);}.cls-2{fill:url(#radial-gradient-2);}.cls-3{fill:url(#linear-gradient);}.cls-4{fill:url(#linear-gradient-2);}.cls-5{fill:url(#radial-gradient-3);}.cls-6{isolation:isolate;}.cls-7{mask:url(#mask);}.cls-8{fill:#ffdd15;}.cls-9{mask:url(#mask-2);}.cls-10{fill:url(#radial-gradient-4);}.cls-11{mask:url(#mask-3);}.cls-12{fill:#fff;}.cls-13{mask:url(#mask-4);}.cls-14{fill:#fff8d0;mix-blend-mode:hard-light;}.cls-15{mask:url(#mask-5);}.cls-16{fill:url(#radial-gradient-5);}</style><radialGradient id="radial-gradient" cx="45.47" cy="45.47" r="45.47" gradientUnits="userSpaceOnUse"><stop offset="0" stop-color="#fff"/><stop offset="0.16" stop-color="#ddd"/><stop offset="0.51" stop-color="#858585"/><stop offset="1"/></radialGradient><radialGradient id="radial-gradient-2" cx="45.47" cy="45.47" r="34.09" gradientUnits="userSpaceOnUse"><stop offset="0" stop-color="#fff"/><stop offset="0.18" stop-color="#fcfcfc"/><stop offset="0.32" stop-color="#f3f3f3"/><stop offset="0.43" stop-color="#e3e3e3"/><stop offset="0.54" stop-color="#cdcdcd"/><stop offset="0.64" stop-color="#b0b0b0"/><stop offset="0.74" stop-color="#8c8c8c"/><stop offset="0.83" stop-color="#626262"/><stop offset="0.92" stop-color="#333"/><stop offset="1"/></radialGradient><linearGradient id="linear-gradient" x1="57.92" y1="58.14" x2="63.49" y2="63.71" gradientUnits="userSpaceOnUse"><stop offset="0.31"/><stop offset="0.4" stop-color="#101010"/><stop offset="0.59" stop-color="#38393a"/><stop offset="0.84" stop-color="#797a7d"/><stop offset="1" stop-color="#a6a8ab"/></linearGradient><linearGradient id="linear-gradient-2" x1="844.27" y1="-223.67" x2="862.94" y2="-251.23" gradientTransform="matrix(1.1, 0, 0, 0.75, -903.79, 212.31)" gradientUnits="userSpaceOnUse"><stop offset="0" stop-color="#231f20"/><stop offset="1" stop-color="#fff"/></linearGradient><radialGradient id="radial-gradient-3" cx="45.47" cy="45.55" r="38.81" gradientUnits="userSpaceOnUse"><stop offset="0" stop-color="#fff"/><stop offset="0.14" stop-color="#fbfbfb"/><stop offset="0.27" stop-color="#efefef"/><stop offset="0.4" stop-color="#dcdbdb"/><stop offset="0.54" stop-color="#c0bfc0"/><stop offset="0.67" stop-color="#9d9b9c"/><stop offset="0.8" stop-color="#726f70"/><stop offset="0.93" stop-color="#3f3c3d"/><stop offset="1" stop-color="#231f20"/></radialGradient><mask id="mask" x="0" y="0" width="90.95" height="90.95" maskUnits="userSpaceOnUse"><circle class="cls-1" cx="45.47" cy="45.47" r="45.47"/></mask><mask id="mask-2" x="11.38" y="11.38" width="68.18" height="68.18" maskUnits="userSpaceOnUse"><circle class="cls-2" cx="45.47" cy="45.47" r="34.09"/></mask><radialGradient id="radial-gradient-4" cx="45.47" cy="45.55" r="26.73" gradientUnits="userSpaceOnUse"><stop offset="0" stop-color="#ffdd15"/><stop offset="0.48" stop-color="#ffdb15"/><stop offset="0.65" stop-color="#fed416"/><stop offset="0.77" stop-color="#fdc917"/><stop offset="0.87" stop-color="#fbb819"/><stop offset="0.95" stop-color="#f8a21c"/><stop offset="1" stop-color="#f6921e"/></radialGradient><mask id="mask-3" x="51.29" y="51.51" width="18.11" height="18.11" maskUnits="userSpaceOnUse"><path class="cls-3" d="M69,51.83c1.32,1.32-.71,7.08-5.51,11.88s-10.56,6.83-11.88,5.51,1.51-6.28,6.31-11.08S67.68,50.51,69,51.83Z"/></mask><mask id="mask-4" x="21.14" y="19.91" width="32.01" height="30.64" maskUnits="userSpaceOnUse"><ellipse class="cls-4" cx="37.14" cy="35.22" rx="18.35" ry="12.41" transform="translate(-14.02 33.57) rotate(-41.63)"/></mask><mask id="mask-5" x="6.66" y="6.74" width="77.63" height="77.63" maskUnits="userSpaceOnUse"><path class="cls-5" d="M77.09,59.76,69.64,57q.23-.48.43-1Zm-9.59.94-.32.45,3.57,2.17Zm3.14-6.12L74,55.5l-3.18-1.35Zm1.13-4.23q-.07.39-.15.78l5.9.76Zm.23-1.5c0,.34-.09.68-.15,1l7.69.58Zm.19-4.1c0,.27,0,.54,0,.81s0,.54,0,.81l12.1-.81Zm-4.73-14.4.44.66,4.71-3.64Zm2.81,5.22q.2.49.38,1l7.22-3.31Zm1.49,5.12c0,.18.06.36.1.55l4.06-1Zm-2.11-6.54,3-1.71-3.21,1.29ZM56.91,21.39l2.77-7.45-3.73,7Zm2.42,1.31,4.85-10L58.05,22Q58.7,22.31,59.34,22.69ZM72.15,43.88c0,.18,0,.37,0,.56l4.15-.5ZM63,25.41l6-8.37L62,24.53C62.35,24.82,62.7,25.11,63,25.41Zm-10-5.5L55.28,8.21,51.5,19.5C52,19.62,52.52,19.76,53,19.91Zm1.47.48.92-3.33-1.35,3.18Zm10.43,6.85,8-9.12-9.12,8Q64.38,26.64,64.94,27.23Zm4,5.53,9.86-6.68L68.15,31.39C68.43,31.84,68.7,32.3,68.95,32.76ZM51,19.41l.76-5.9-1.54,5.75Zm21.1,24.33,10.2-1.65L72,42.37Q72.1,43,72.14,43.74Zm-5-13.79,5.85-5-6.47,4.2C66.77,29.39,67,29.66,67.17,29.94Zm4.27,9.25,10.5-3.65L71.05,37.76Q71.26,38.47,71.44,39.19ZM20.31,36.53,17,35.61,20.15,37Zm.57-1.45c.14-.32.28-.65.43-1l-7.45-2.77Zm-1.7,5.68c0-.26.1-.52.15-.78l-5.9-.76Zm-.31,2.32L13.43,43l5.38.79Q18.83,43.44,18.86,43.08Zm.09-.82c0-.34.09-.68.15-1l-7.69-.58Zm-.15,5q0-.28,0-.56l-4.15.5Zm46.73,16-.37.41,3.29,2.58ZM23.45,30.41l.32-.45L20.2,27.78ZM72.15,47.3q0,.36-.06.72l5.43.07ZM25.43,27.88l.37-.41-3.29-2.58ZM27.8,65.6l-.41-.37L24.8,68.52ZM60.62,23.53l.45.32,2.17-3.57ZM30.33,67.58l-.45-.32L27.7,70.83Zm-.06-44,.66-.44-3.63-4.71ZM63.15,25.5l.41.37,2.58-3.29Zm-2.47,42L60,68l3.64,4.71ZM23.49,60.76,23,60.1l-4.71,3.63ZM21.3,57l-3,1.71,3.21-1.29Zm4.08,6.21-.47-.55L21,66.42Zm-4.7-7.64q-.2-.49-.38-1l-7.22,3.31Zm-1.49-5.12q-.05-.27-.09-.55l-4.06,1ZM65.57,27.93l.47.55,3.89-3.79Zm-24.4,44-.59,7.69,1.6-7.54Zm1.84.23-.07,5.43.79-5.38Zm2.47.12h-.81l.81,12.1.81-12.1Zm1.12,0,.5,4.15.06-4.18Zm3.2-.32,1,4.06-.44-4.15Zm-2.5.29,1.65,10.19-.28-10.32Q48,72.18,47.29,72.22ZM27.9,65.7l-6,8.37,7.1-7.5Q28.42,66.15,27.9,65.7Zm12,6-.76,5.9,1.54-5.75Zm-8.29-3.29-4.85,10,6.13-9.28C32.46,68.91,32,68.67,31.61,68.41Zm6.31,2.79-2.25,11.7L39.45,71.6Q38.68,71.42,37.92,71.2Zm-1.47-.48-.92,3.33,1.35-3.18Zm-2.41-1-2.77,7.45,3.73-7Zm31.58-6.59,8.37,6-7.5-7.1C66.21,62.43,65.92,62.78,65.62,63.13ZM63.8,65l9.12,8-8-9.12Q64.38,64.46,63.8,65Zm4.54-5.6,10,4.85-9.28-6.13C68.83,58.57,68.59,59,68.33,59.42Zm2.79-6.31,11.69,2.25L71.52,51.58C71.4,52.09,71.27,52.6,71.12,53.11Zm-8.57,13L66.34,70,63.1,65.65Zm-10.71,5.4L55.49,82,53.26,71.13Q52.56,71.34,51.84,71.52Zm5-1.79,1.71,3L57.3,69.53Zm-2.41,1L57.78,78l-2.32-7.6Zm6.61-3.48,5,5.85-4.2-6.47ZM58.27,69l6.68,9.86L59.63,68.23C59.19,68.51,58.73,68.78,58.27,69ZM19.83,38,8.13,35.75l11.29,3.79C19.54,39,19.68,38.5,19.83,38ZM39.11,19.59,35.46,9.08,37.69,20Q38.39,19.76,39.11,19.59Zm-2.64.79-3.31-7.22,2.32,7.6Zm-3.79,1.7L26,12.22l5.31,10.66C31.76,22.6,32.22,22.33,32.68,22.08Zm8.47-2.91-1-4.06.44,4.15ZM29.86,23.85l-5-5.85L29,24.47Zm4.2-2.48-1.71-3,1.29,3.21Zm13.88-2.44L48,13.51l-.79,5.38Zm-2.47-.11h.81l-.81-12.1-.81,12.1Zm-1.82.06L42,8.69,42.29,19C42.74,19,43.2,18.92,43.66,18.89Zm.7,0-.5-4.15-.06,4.18ZM19.51,51.92,9,55.57,19.9,53.34Q19.68,52.64,19.51,51.92Zm6.5,12L18,73l9.12-8Q26.57,64.46,26,63.87ZM18.74,45.55c0-.27,0-.54,0-.81l-12.1.81,12.1.81C18.75,46.09,18.74,45.82,18.74,45.55Zm.06,1.82L8.61,49l10.32-.28Q18.85,48.06,18.81,47.37Zm5,13.79-5.85,5L24.39,62C24.18,61.72,24,61.44,23.78,61.17ZM22,58.35,12.14,65,22.8,59.71C22.52,59.27,22.25,58.81,22,58.35ZM28.4,25,24.61,21.1l3.24,4.36Zm-3.07,3-8.37-6,7.5,7.1Q24.88,28.5,25.33,28Zm24.45-8.81.59-7.69L48.76,19ZM27.15,26.09l-9.12-8,8,9.12Q26.57,26.64,27.15,26.09Zm-4.54,5.6-10-4.84L21.88,33C22.12,32.54,22.36,32.11,22.61,31.69Z"/></mask><radialGradient id="radial-gradient-5" cx="45.47" cy="45.55" r="38.81" gradientUnits="userSpaceOnUse"><stop offset="0.13" stop-color="#f6921e"/><stop offset="1" stop-color="#ffdd15"/></radialGradient></defs><title>Ресурс 1weather</title><g class="cls-6"><g id="Слой_2" data-name="Слой 2"><g id="Layer_2" data-name="Layer 2"><g class="cls-7"><circle class="cls-8" cx="45.47" cy="45.47" r="45.47"/></g><g class="cls-9"><circle class="cls-8" cx="45.47" cy="45.47" r="34.09"/></g><circle class="cls-10" cx="45.47" cy="45.55" r="26.73"/><g class="cls-11"><path class="cls-12" d="M69,51.83c1.32,1.32-.71,7.08-5.51,11.88s-10.56,6.83-11.88,5.51,1.51-6.28,6.31-11.08S67.68,50.51,69,51.83Z"/></g><g class="cls-13"><ellipse class="cls-14" cx="37.14" cy="35.22" rx="18.35" ry="12.41" transform="translate(-14.02 33.57) rotate(-41.63)"/></g><g class="cls-15"><path class="cls-16" d="M77.09,59.76,69.64,57q.23-.48.43-1Zm-9.59.94-.32.45,3.57,2.17Zm3.14-6.12L74,55.5l-3.18-1.35Zm1.13-4.23q-.07.39-.15.78l5.9.76Zm.23-1.5c0,.34-.09.68-.15,1l7.69.58Zm.19-4.1c0,.27,0,.54,0,.81s0,.54,0,.81l12.1-.81Zm-4.73-14.4.44.66,4.71-3.64Zm2.81,5.22q.2.49.38,1l7.22-3.31Zm1.49,5.12c0,.18.06.36.1.55l4.06-1Zm-2.11-6.54,3-1.71-3.21,1.29ZM56.91,21.39l2.77-7.45-3.73,7Zm2.42,1.31,4.85-10L58.05,22Q58.7,22.31,59.34,22.69ZM72.15,43.88c0,.18,0,.37,0,.56l4.15-.5ZM63,25.41l6-8.37L62,24.53C62.35,24.82,62.7,25.11,63,25.41Zm-10-5.5L55.28,8.21,51.5,19.5C52,19.62,52.52,19.76,53,19.91Zm1.47.48.92-3.33-1.35,3.18Zm10.43,6.85,8-9.12-9.12,8Q64.38,26.64,64.94,27.23Zm4,5.53,9.86-6.68L68.15,31.39C68.43,31.84,68.7,32.3,68.95,32.76ZM51,19.41l.76-5.9-1.54,5.75Zm21.1,24.33,10.2-1.65L72,42.37Q72.1,43,72.14,43.74Zm-5-13.79,5.85-5-6.47,4.2C66.77,29.39,67,29.66,67.17,29.94Zm4.27,9.25,10.5-3.65L71.05,37.76Q71.26,38.47,71.44,39.19ZM20.31,36.53,17,35.61,20.15,37Zm.57-1.45c.14-.32.28-.65.43-1l-7.45-2.77Zm-1.7,5.68c0-.26.1-.52.15-.78l-5.9-.76Zm-.31,2.32L13.43,43l5.38.79Q18.83,43.44,18.86,43.08Zm.09-.82c0-.34.09-.68.15-1l-7.69-.58Zm-.15,5q0-.28,0-.56l-4.15.5Zm46.73,16-.37.41,3.29,2.58ZM23.45,30.41l.32-.45L20.2,27.78ZM72.15,47.3q0,.36-.06.72l5.43.07ZM25.43,27.88l.37-.41-3.29-2.58ZM27.8,65.6l-.41-.37L24.8,68.52ZM60.62,23.53l.45.32,2.17-3.57ZM30.33,67.58l-.45-.32L27.7,70.83Zm-.06-44,.66-.44-3.63-4.71ZM63.15,25.5l.41.37,2.58-3.29Zm-2.47,42L60,68l3.64,4.71ZM23.49,60.76,23,60.1l-4.71,3.63ZM21.3,57l-3,1.71,3.21-1.29Zm4.08,6.21-.47-.55L21,66.42Zm-4.7-7.64q-.2-.49-.38-1l-7.22,3.31Zm-1.49-5.12q-.05-.27-.09-.55l-4.06,1ZM65.57,27.93l.47.55,3.89-3.79Zm-24.4,44-.59,7.69,1.6-7.54Zm1.84.23-.07,5.43.79-5.38Zm2.47.12h-.81l.81,12.1.81-12.1Zm1.12,0,.5,4.15.06-4.18Zm3.2-.32,1,4.06-.44-4.15Zm-2.5.29,1.65,10.19-.28-10.32Q48,72.18,47.29,72.22ZM27.9,65.7l-6,8.37,7.1-7.5Q28.42,66.15,27.9,65.7Zm12,6-.76,5.9,1.54-5.75Zm-8.29-3.29-4.85,10,6.13-9.28C32.46,68.91,32,68.67,31.61,68.41Zm6.31,2.79-2.25,11.7L39.45,71.6Q38.68,71.42,37.92,71.2Zm-1.47-.48-.92,3.33,1.35-3.18Zm-2.41-1-2.77,7.45,3.73-7Zm31.58-6.59,8.37,6-7.5-7.1C66.21,62.43,65.92,62.78,65.62,63.13ZM63.8,65l9.12,8-8-9.12Q64.38,64.46,63.8,65Zm4.54-5.6,10,4.85-9.28-6.13C68.83,58.57,68.59,59,68.33,59.42Zm2.79-6.31,11.69,2.25L71.52,51.58C71.4,52.09,71.27,52.6,71.12,53.11Zm-8.57,13L66.34,70,63.1,65.65Zm-10.71,5.4L55.49,82,53.26,71.13Q52.56,71.34,51.84,71.52Zm5-1.79,1.71,3L57.3,69.53Zm-2.41,1L57.78,78l-2.32-7.6Zm6.61-3.48,5,5.85-4.2-6.47ZM58.27,69l6.68,9.86L59.63,68.23C59.19,68.51,58.73,68.78,58.27,69ZM19.83,38,8.13,35.75l11.29,3.79C19.54,39,19.68,38.5,19.83,38ZM39.11,19.59,35.46,9.08,37.69,20Q38.39,19.76,39.11,19.59Zm-2.64.79-3.31-7.22,2.32,7.6Zm-3.79,1.7L26,12.22l5.31,10.66C31.76,22.6,32.22,22.33,32.68,22.08Zm8.47-2.91-1-4.06.44,4.15ZM29.86,23.85l-5-5.85L29,24.47Zm4.2-2.48-1.71-3,1.29,3.21Zm13.88-2.44L48,13.51l-.79,5.38Zm-2.47-.11h.81l-.81-12.1-.81,12.1Zm-1.82.06L42,8.69,42.29,19C42.74,19,43.2,18.92,43.66,18.89Zm.7,0-.5-4.15-.06,4.18ZM19.51,51.92,9,55.57,19.9,53.34Q19.68,52.64,19.51,51.92Zm6.5,12L18,73l9.12-8Q26.57,64.46,26,63.87ZM18.74,45.55c0-.27,0-.54,0-.81l-12.1.81,12.1.81C18.75,46.09,18.74,45.82,18.74,45.55Zm.06,1.82L8.61,49l10.32-.28Q18.85,48.06,18.81,47.37Zm5,13.79-5.85,5L24.39,62C24.18,61.72,24,61.44,23.78,61.17ZM22,58.35,12.14,65,22.8,59.71C22.52,59.27,22.25,58.81,22,58.35ZM28.4,25,24.61,21.1l3.24,4.36Zm-3.07,3-8.37-6,7.5,7.1Q24.88,28.5,25.33,28Zm24.45-8.81.59-7.69L48.76,19ZM27.15,26.09l-9.12-8,8,9.12Q26.57,26.64,27.15,26.09Zm-4.54,5.6-10-4.84L21.88,33C22.12,32.54,22.36,32.11,22.61,31.69Z"/></g></g></g></g></svg>