<svg xmlns="http://www.w3.org/2000/svg" xmlns:xlink="http://www.w3.org/1999/xlink" viewBox="0 0 92.8 92.8"><defs><style>.cls-1{fill:url(#radial-gradient);}.cls-2{mask:url(#mask);}.cls-3{fill:#14588c;}.cls-4{fill:url(#linear-gradient);}.cls-5{fill:url(#linear-gradient-2);}</style><radialGradient id="radial-gradient" cx="46.4" cy="46.4" r="46.4" gradientUnits="userSpaceOnUse"><stop offset="0" stop-color="#fff"/><stop offset="0.16" stop-color="#ddd"/><stop offset="0.51" stop-color="#858585"/><stop offset="1"/></radialGradient><mask id="mask" x="0" y="0" width="92.8" height="92.8" maskUnits="userSpaceOnUse"><circle class="cls-1" cx="46.4" cy="46.4" r="46.4"/></mask><linearGradient id="linear-gradient" x1="27.26" y1="27.54" x2="64.98" y2="65.26" gradientUnits="userSpaceOnUse"><stop offset="0" stop-color="#fff"/><stop offset="1" stop-color="#e6e7e8"/></linearGradient><linearGradient id="linear-gradient-2" x1="28.6" y1="28.28" x2="65.56" y2="65.25" gradientUnits="userSpaceOnUse"><stop offset="0" stop-color="#a6a8ab"/><stop offset="1" stop-color="#231f20"/></linearGradient></defs><title>Ресурс 28weather</title><g id="Слой_2" data-name="Слой 2"><g id="Layer_2" data-name="Layer 2"><g class="cls-2"><circle class="cls-3" cx="46.4" cy="46.4" r="46.4"/></g><path class="cls-4" d="M67.3,40.91a5.49,5.49,0,0,0-5.18,3.68H59.88A13.8,13.8,0,0,0,57.13,38l1.59-1.58a5.49,5.49,0,1,0-2.56-2.56l-1.58,1.58a13.83,13.83,0,0,0-6.64-2.75V30.4a5.49,5.49,0,1,0-3.62,0v2.24a13.8,13.8,0,0,0-6.64,2.75l-1.58-1.59a5.49,5.49,0,1,0-2.56,2.56L35.11,38a13.86,13.86,0,0,0-2.75,6.64H30.12a5.49,5.49,0,1,0,0,3.62h2.24a13.85,13.85,0,0,0,2.75,6.64l-1.58,1.59A5.49,5.49,0,1,0,36.08,59l1.58-1.59a13.83,13.83,0,0,0,6.64,2.75v2.24a5.49,5.49,0,1,0,3.62,0V60.17a13.84,13.84,0,0,0,6.64-2.75L56.16,59a5.49,5.49,0,1,0,2.56-2.56l-1.59-1.59a13.8,13.8,0,0,0,2.75-6.64h2.24a5.49,5.49,0,1,0,5.18-7.3ZM58.45,28.77A3.75,3.75,0,1,1,60.05,35L59.84,35h0l-.19-.08,0,0-.16-.07,0,0-.18-.1h0L59,34.54l0,0-.13-.1-.06,0-.12-.1-.05,0-.16-.15-.16-.16,0,0-.1-.12,0-.06-.1-.13,0,0-.12-.19h0l-.1-.18,0,0-.07-.16,0,0-.08-.19h0l-.07-.22A3.75,3.75,0,0,1,58.45,28.77Zm-23.7,3.7-.07.22h0l-.08.2,0,0-.08.16,0,0-.1.19h0l-.12.19,0,0-.1.14,0,.06-.1.12,0,0-.15.16-.16.15,0,0-.12.1-.05,0-.14.1,0,0-.19.12h0l-.19.1,0,0-.16.08,0,0-.19.08h0l-.22.07a3.75,3.75,0,1,1,2.56-2.56ZM28.68,46.62a.54.54,0,0,1,0,.07c0,.05,0,.11,0,.16a.55.55,0,0,1,0,.07c0,.06,0,.11,0,.17v0l0,.22h0l-.06.21v0l-.06.17v0l-.09.19h0l-.1.21a3.75,3.75,0,1,1,0-3.62l.1.21h0l.09.19v0l.06.17v0l.06.21h0l0,.22v0c0,.06,0,.11,0,.17a.55.55,0,0,1,0,.07c0,.05,0,.11,0,.16a.54.54,0,0,1,0,.07c0,.07,0,.15,0,.22S28.69,46.55,28.68,46.62ZM33.79,64a3.75,3.75,0,1,1-1.61-6.26l.22.07h0l.19.08,0,0,.16.07,0,0,.19.1h0l.19.12,0,0,.14.1.05,0,.12.1,0,0,.16.15.15.16,0,.05.1.12,0,.05.1.14,0,0,.12.19h0l.1.19,0,0,.08.16,0,0,.08.19h0c0,.07,0,.14.07.22A3.75,3.75,0,0,1,33.79,64Zm23.7-3.7c0-.08,0-.15.07-.22h0l.08-.19,0,0,.07-.16,0,0,.1-.18h0L58,59.3l0,0,.1-.13,0-.06.1-.12,0-.05.16-.16.16-.15.05,0,.12-.1.06,0,.13-.1,0,0,.18-.12h0l.18-.1,0,0,.16-.07,0,0,.19-.07h0l.21-.07a3.75,3.75,0,1,1-2.56,2.56ZM56.06,39a12.33,12.33,0,0,1,2.31,5.57H53.65a7.66,7.66,0,0,0-.92-2.24ZM53.5,36.46,50.17,39.8a7.74,7.74,0,0,0-2.24-.92V34.15A12.32,12.32,0,0,1,53.5,36.46Zm-7.38,13.7a3.76,3.76,0,1,1,3.76-3.76A3.76,3.76,0,0,1,46.12,50.16ZM42.37,25.22a3.76,3.76,0,1,1,5.56,3.29l-.2.1h0l-.19.08,0,0-.16.06h0l-.2.06h0l-.21,0H46.8l-.16,0h-1l-.16,0h-.05l-.22,0h0l-.2-.06h0l-.16-.06,0,0-.19-.08h0l-.2-.1A3.75,3.75,0,0,1,42.37,25.22Zm1.95,8.94v4.72a7.75,7.75,0,0,0-2.24.92l-3.34-3.33A12.32,12.32,0,0,1,44.31,34.15ZM36.18,39l3.34,3.34a7.64,7.64,0,0,0-.92,2.24H33.87A12.33,12.33,0,0,1,36.18,39Zm0,14.76a12.34,12.34,0,0,1-2.31-5.57h4.72a7.6,7.6,0,0,0,.92,2.23Zm2.56,2.56L42.07,53a7.78,7.78,0,0,0,2.24.93v4.72A12.34,12.34,0,0,1,38.74,56.34ZM49.88,67.59a3.76,3.76,0,1,1-5.57-3.29l.2-.1h0l.19-.08h0l.17-.06,0,0,.21-.06h0l.22,0h0l.17,0h1l.17,0h0l.22,0h0l.21.06,0,0,.17.06h0l.19.08h0l.2.1A3.75,3.75,0,0,1,49.88,67.59Zm-1.95-8.94V53.93A7.77,7.77,0,0,0,50.17,53l3.34,3.34A12.34,12.34,0,0,1,47.93,58.65Zm8.13-4.87-3.34-3.34a7.63,7.63,0,0,0,.92-2.23h4.72A12.32,12.32,0,0,1,56.06,53.79ZM67.3,50.16A3.75,3.75,0,0,1,64,48.21l-.1-.2h0l-.08-.19,0,0-.06-.16,0,0-.06-.2h0c0-.07,0-.14,0-.21v-.05c0-.06,0-.11,0-.16s0,0,0-.07,0-.1,0-.16a.51.51,0,0,1,0-.07,2.8,2.8,0,0,1,0-.44.53.53,0,0,1,0-.07c0-.05,0-.11,0-.16v-.07c0-.06,0-.11,0-.16v-.05l0-.22h0c0-.07,0-.14.06-.2l0,0,.06-.16,0,0,.08-.19h0l.1-.2a3.76,3.76,0,1,1,3.29,5.56Z"/><path class="cls-5" d="M56.06,53.41l-3.34-3.34a7.67,7.67,0,0,0,.92-2.24h4.72c0,.13,0,.25-.06.38H54.21a7.66,7.66,0,0,1-.92,2.23l2.85,2.85Zm-7.57.53a7.62,7.62,0,0,0,2.12-.86l-.45-.45a7.69,7.69,0,0,1-2.24.93v4.72l.57-.1ZM42.92,46.4a3.76,3.76,0,0,1,5.55-3.31,3.76,3.76,0,1,0-4.13,6.25A3.75,3.75,0,0,1,42.92,46.4Zm10.73-2.19h.46a7.81,7.81,0,0,0-.82-1.86l3.16-3.16c-.12-.19-.25-.37-.39-.56L52.72,42A7.68,7.68,0,0,1,53.65,44.22Zm.92-9.2,0,0-.52-.34ZM28.48,28.39a3.76,3.76,0,0,0,0,5.31,3.87,3.87,0,0,0,.87.65c-.1-.09-.21-.17-.3-.27a3.75,3.75,0,0,1,4.45-6A3.75,3.75,0,0,0,28.48,28.39ZM47.93,38.5l.57.16v-4.5a12.26,12.26,0,0,1,4.77,1.76,12.27,12.27,0,0,0-5.33-2.14ZM42.37,24.84a3.75,3.75,0,0,0,1.95,3.29h0a3.75,3.75,0,0,1,4.13-6.23,3.75,3.75,0,0,0-6.1,2.93ZM39.54,56.51l-.24-.17L42.64,53a7.85,7.85,0,0,0,1.67.77v-.22a7.7,7.7,0,0,1-2.24-.93L38.74,56C39,56.16,39.26,56.34,39.54,56.51ZM58.45,28.39a3.75,3.75,0,0,0-1,3.7l.07.22h0l.08.19,0,0,.07.16,0,0,.1.18h0l.12.19,0,0,.1.13,0,.06.1.12,0,0,.16.16.16.15.05,0,.12.1.06,0,.13.1,0,0,.18.12h0l.1.06-.09-.07,0,0L59,34.08l-.15-.16,0,0-.1-.12,0-.06-.1-.13,0,0-.12-.19h0l-.1-.18,0,0-.07-.16,0,0-.07-.19h0c0-.07-.05-.15-.07-.22a3.75,3.75,0,0,1,5.4-4.34A3.75,3.75,0,0,0,58.45,28.39ZM54.57,57a13.85,13.85,0,0,1-6.64,2.75V62a5.11,5.11,0,0,1,.57.24v-2.1A13.82,13.82,0,0,0,55,57.49Zm2.56-2.56,1.59,1.58.13-.06L57.7,54.85a13.79,13.79,0,0,0,2.75-6.64h1.83c-.05-.12-.1-.25-.15-.38H59.88A13.79,13.79,0,0,1,57.13,54.48ZM34,36.42,33.52,36a5.5,5.5,0,0,1-5.13-.19A5.49,5.49,0,0,0,34,36.42Zm8.23,2.93L39.3,36.46a12.32,12.32,0,0,1,5-2.21v-.47a12.31,12.31,0,0,0-5.57,2.31l3.34,3.33ZM44.31,30a5.32,5.32,0,0,1-1-.45,5.47,5.47,0,0,0,1,.59ZM33.87,44.22h.63a12.32,12.32,0,0,1,2.17-5.08l-.49-.49A12.35,12.35,0,0,0,33.87,44.22ZM65,27.17A5.49,5.49,0,0,1,58.72,36l-1.59,1.59a13.79,13.79,0,0,1,2.75,6.64h.51A13.81,13.81,0,0,0,57.7,38l1.58-1.58a5.49,5.49,0,0,0,5.13-9.69A5.19,5.19,0,0,1,65,27.17Zm-34.3,21h1.73l-.06-.38H30.12a5.49,5.49,0,0,1-7.94,2.93,5.49,5.49,0,0,0,8.5-2.56Zm7.53,9.22-.55-.4-1.58,1.58a5.49,5.49,0,0,1-7.69,7.14A5.49,5.49,0,0,0,36.65,59ZM51.61,24.84A5.49,5.49,0,0,1,47.93,30v2.24l.57.09v-2a5.49,5.49,0,0,0,.95-9.93A5.48,5.48,0,0,1,51.61,24.84ZM35,27.17a5.49,5.49,0,0,1,1.06,6.26L37.67,35l.11-.08-1.13-1.13a5.49,5.49,0,0,0-2.19-7.14A5.3,5.3,0,0,1,35,27.17ZM70.63,41.66a5.49,5.49,0,0,1-6.07,9.12,5.49,5.49,0,1,0,6.07-9.12Zm-6.21,15a5.49,5.49,0,0,1-6.06,9.12,5.49,5.49,0,0,0,7.19-8.26A5.4,5.4,0,0,0,64.41,56.64Zm-15,6.22A5.49,5.49,0,0,1,43.36,72a5.49,5.49,0,1,0,6.09-9.1ZM65.51,49.32a3.81,3.81,0,0,1-.93-1.11l-.1-.2h0l-.08-.19,0,0-.06-.16,0,0c0-.07,0-.13-.06-.2h0l0-.21v-.05c0-.06,0-.11,0-.16s0,0,0-.07,0-.1,0-.16v-.07c0-.08,0-.15,0-.22s0-.15,0-.22v-.07c0-.05,0-.11,0-.16v-.07c0-.06,0-.11,0-.16v-.05l0-.22h0c0-.07,0-.14.06-.2l0,0,.06-.16,0,0,.08-.19h0l.1-.2a3.76,3.76,0,0,1,5.07-1.5A3.75,3.75,0,0,0,64,44.22l-.1.2h0l-.08.19,0,0-.06.16,0,0-.06.2h0l0,.21v.05c0,.06,0,.11,0,.16s0,0,0,.07,0,.1,0,.16a.51.51,0,0,0,0,.07,2.08,2.08,0,0,0,0,.22,2.12,2.12,0,0,0,0,.22.55.55,0,0,0,0,.07c0,.05,0,.1,0,.15v.07c0,.05,0,.11,0,.16v.05l0,.21h0l.06.2,0,0,.06.17,0,0,.08.19h0l.1.2A3.75,3.75,0,0,0,65.51,49.32Zm-36.17,15L29,64a3.75,3.75,0,0,1,3.7-6.26l.22.07h0l.2.08,0,0,.16.07,0,0,.08,0,0,0-.05,0-.14-.1,0,0L33,57.77h0l-.19-.1,0,0-.16-.08,0,0-.19-.08h0l-.22-.07a3.75,3.75,0,0,0-3.7,6.26A3.8,3.8,0,0,0,29.34,64.3Zm7-11.07a12.35,12.35,0,0,1-1.92-5h4.26c0-.13-.07-.25-.1-.38H33.87a12.32,12.32,0,0,0,2.31,5.57Zm-5.82-9a5.49,5.49,0,0,0-2.29-2.56,5.51,5.51,0,0,1,1.87,2.56Zm13.81,26.3a3.75,3.75,0,0,1,.54-6.22l.2-.1h0l.19-.08h0l.17-.06,0,0,.21-.06h0l.22,0h0l.17,0h1l.16,0h0l.22,0h0l.21.06,0,0,.17.06h0l.19.08h0l.18.09a3.56,3.56,0,0,0-.54-.36l-.2-.1h0l-.19-.08,0,0-.17-.06,0,0-.21-.06h0l-.22-.05h0l-.17,0h-1l-.17,0h0l-.22.05h0l-.21.06,0,0-.17.06,0,0-.19.08h0l-.2.1a3.76,3.76,0,0,0,0,6.6Zm0-10.73a13.82,13.82,0,0,1-5.57-2,13.78,13.78,0,0,0,5.57,2.3Zm15,4.51A3,3,0,0,1,59,64a3.75,3.75,0,0,1-1-3.7,2.12,2.12,0,0,1,.07-.22h0l.07-.19,0,0,.07-.16,0,0,.1-.18h0l.12-.19,0,0,.1-.13,0-.06.1-.12,0-.05.15-.16.16-.15,0,0,.12-.1.06,0,.13-.1,0,0,.19-.12h0L60,58l0,0,.16-.07,0,0,.19-.07h0l.22-.07a3.74,3.74,0,0,1,2.83.3,3.75,3.75,0,0,0-3.4-.68l-.21.07h0l-.19.08,0,0-.16.07,0,0-.18.1h0l-.18.12,0,0-.13.1-.06,0-.12.1-.05,0-.16.15-.16.16,0,.05-.1.12,0,.06-.1.13,0,0-.12.19h0l-.1.18,0,0-.07.16,0,0-.08.19h0c0,.07,0,.14-.07.22a3.75,3.75,0,0,0,1,3.7A3.67,3.67,0,0,0,59.3,64.3Zm-36.15-15a3.75,3.75,0,0,1,4.14-6.23,3.75,3.75,0,1,0-4.14,6.23Z"/></g></g></svg>