<svg xmlns="http://www.w3.org/2000/svg" xmlns:xlink="http://www.w3.org/1999/xlink" viewBox="0 0 151.72 150.94"><defs><style>.cls-1{fill:url(#radial-gradient);}.cls-2{fill:url(#radial-gradient-2);}.cls-3{fill:url(#radial-gradient-3);}.cls-4{fill:url(#radial-gradient-4);}.cls-5{fill:url(#radial-gradient-5);}.cls-6{fill:url(#radial-gradient-6);}.cls-7{fill:url(#radial-gradient-7);}.cls-8{fill:url(#radial-gradient-8);}.cls-9{fill:url(#radial-gradient-9);}.cls-10{fill:url(#radial-gradient-10);}.cls-11{fill:url(#radial-gradient-11);}.cls-12{fill:url(#radial-gradient-12);}.cls-13{fill:url(#radial-gradient-13);}.cls-14{fill:url(#radial-gradient-14);}.cls-15{fill:url(#radial-gradient-15);}.cls-16{fill:url(#radial-gradient-16);}.cls-17{fill:url(#radial-gradient-17);}.cls-18{fill:url(#radial-gradient-18);}.cls-19{fill:url(#radial-gradient-19);}.cls-20{fill:url(#radial-gradient-20);}.cls-21{fill:url(#radial-gradient-21);}.cls-22{fill:url(#radial-gradient-22);}.cls-23{fill:url(#radial-gradient-23);}.cls-24{fill:url(#radial-gradient-24);}.cls-25{fill:url(#radial-gradient-25);}.cls-26{fill:url(#radial-gradient-26);}.cls-27{fill:url(#radial-gradient-27);}.cls-28{fill:url(#radial-gradient-28);}.cls-29{fill:url(#radial-gradient-29);}.cls-30{fill:url(#radial-gradient-30);}.cls-31{fill:url(#radial-gradient-31);}.cls-32{fill:url(#radial-gradient-32);}.cls-33{fill:url(#radial-gradient-33);}.cls-34{fill:url(#radial-gradient-34);}.cls-35{fill:url(#radial-gradient-35);}.cls-36{fill:url(#radial-gradient-36);}.cls-37{fill:url(#radial-gradient-37);}.cls-38{fill:url(#radial-gradient-38);}.cls-39{fill:url(#radial-gradient-39);}.cls-40{fill:url(#radial-gradient-40);}.cls-41{fill:url(#radial-gradient-41);}.cls-42{fill:url(#radial-gradient-42);}.cls-43{fill:url(#radial-gradient-43);}.cls-44{fill:url(#radial-gradient-44);}.cls-45{fill:url(#radial-gradient-45);}.cls-46{fill:url(#radial-gradient-46);}.cls-47{fill:url(#radial-gradient-47);}.cls-48{fill:url(#radial-gradient-48);}.cls-49{fill:url(#radial-gradient-49);}.cls-50{fill:url(#radial-gradient-50);}.cls-51{fill:url(#radial-gradient-51);}.cls-52{fill:url(#radial-gradient-52);}.cls-53{fill:url(#radial-gradient-53);}.cls-54{fill:url(#radial-gradient-54);}.cls-55{fill:url(#radial-gradient-55);}.cls-56{fill:url(#radial-gradient-56);}.cls-57{fill:url(#radial-gradient-57);}.cls-58{fill:url(#radial-gradient-58);}.cls-59{fill:url(#radial-gradient-59);}.cls-60{fill:url(#radial-gradient-60);}.cls-61{fill:url(#radial-gradient-61);}.cls-62{mask:url(#mask);}.cls-63{fill:#1b75bb;}.cls-64{mask:url(#mask-2);}.cls-65{fill:#fff;}.cls-66{mask:url(#mask-3);}.cls-67{mask:url(#mask-4);}.cls-68{mask:url(#mask-5);}.cls-69{mask:url(#mask-6);}.cls-70{mask:url(#mask-7);}.cls-71{mask:url(#mask-8);}.cls-72{mask:url(#mask-9);}.cls-73{mask:url(#mask-10);}.cls-74{mask:url(#mask-11);}.cls-75{mask:url(#mask-12);}.cls-76{mask:url(#mask-13);}.cls-77{mask:url(#mask-14);}.cls-78{mask:url(#mask-15);}.cls-79{mask:url(#mask-16);}.cls-80{mask:url(#mask-17);}.cls-81{mask:url(#mask-18);}.cls-82{mask:url(#mask-19);}.cls-83{mask:url(#mask-20);}.cls-84{mask:url(#mask-21);}.cls-85{mask:url(#mask-22);}.cls-86{mask:url(#mask-23);}.cls-87{mask:url(#mask-24);}.cls-88{mask:url(#mask-25);}.cls-89{mask:url(#mask-26);}.cls-90{mask:url(#mask-27);}.cls-91{mask:url(#mask-28);}.cls-92{mask:url(#mask-29);}.cls-93{mask:url(#mask-30);}.cls-94{mask:url(#mask-31);}.cls-95{mask:url(#mask-32);}.cls-96{mask:url(#mask-33);}.cls-97{mask:url(#mask-34);}.cls-98{mask:url(#mask-35);}.cls-99{mask:url(#mask-36);}.cls-100{mask:url(#mask-37);}.cls-101{mask:url(#mask-38);}.cls-102{mask:url(#mask-39);}.cls-103{mask:url(#mask-40);}.cls-104{mask:url(#mask-41);}.cls-105{mask:url(#mask-42);}.cls-106{mask:url(#mask-43);}.cls-107{mask:url(#mask-44);}.cls-108{mask:url(#mask-45);}.cls-109{mask:url(#mask-46);}.cls-110{mask:url(#mask-47);}.cls-111{mask:url(#mask-48);}.cls-112{mask:url(#mask-49);}</style><radialGradient id="radial-gradient" cx="76.24" cy="75.47" r="75.47" gradientUnits="userSpaceOnUse"><stop offset="0" stop-color="#fff"/><stop offset="0.16" stop-color="#ddd"/><stop offset="0.51" stop-color="#858585"/><stop offset="1"/></radialGradient><radialGradient id="radial-gradient-2" cx="20.79" cy="94.52" r="3.22" xlink:href="#radial-gradient"/><radialGradient id="radial-gradient-3" cx="94.21" cy="103.75" r="1.63" xlink:href="#radial-gradient"/><radialGradient id="radial-gradient-4" cx="124.65" cy="120.75" r="1.63" xlink:href="#radial-gradient"/><radialGradient id="radial-gradient-5" cx="110.65" cy="134.82" r="1.63" xlink:href="#radial-gradient"/><radialGradient id="radial-gradient-6" cx="88.8" cy="141.34" r="1.63" xlink:href="#radial-gradient"/><radialGradient id="radial-gradient-7" cx="55.79" cy="137.82" r="1.63" xlink:href="#radial-gradient"/><radialGradient id="radial-gradient-8" cx="33.57" cy="126.56" r="1.63" xlink:href="#radial-gradient"/><radialGradient id="radial-gradient-9" cx="89.46" cy="97.74" r="1.63" xlink:href="#radial-gradient"/><radialGradient id="radial-gradient-10" cx="119.76" cy="93.73" r="1.63" xlink:href="#radial-gradient"/><radialGradient id="radial-gradient-11" cx="117.87" cy="103.3" r="3.22" xlink:href="#radial-gradient"/><radialGradient id="radial-gradient-12" cx="13.91" cy="74.96" r="3.22" xlink:href="#radial-gradient"/><radialGradient id="radial-gradient-13" cx="55.79" cy="106.15" r="3.22" xlink:href="#radial-gradient"/><radialGradient id="radial-gradient-14" cx="139.38" cy="80.52" r="3.22" xlink:href="#radial-gradient"/><radialGradient id="radial-gradient-15" cx="87.05" cy="121.55" r="3.22" xlink:href="#radial-gradient"/><radialGradient id="radial-gradient-16" cx="77.43" cy="106.23" r="3.22" xlink:href="#radial-gradient"/><radialGradient id="radial-gradient-17" cx="102.14" cy="104.01" r="3.69" xlink:href="#radial-gradient"/><radialGradient id="radial-gradient-18" cx="46.25" cy="93.73" r="3.29" xlink:href="#radial-gradient"/><radialGradient id="radial-gradient-19" cx="114.64" cy="125.44" r="5.12" xlink:href="#radial-gradient"/><radialGradient id="radial-gradient-20" cx="75.47" cy="119.68" r="1.12" xlink:href="#radial-gradient"/><radialGradient id="radial-gradient-21" cx="81.29" cy="132.16" r="1.12" xlink:href="#radial-gradient"/><radialGradient id="radial-gradient-22" cx="104.79" cy="120.2" r="1.12" xlink:href="#radial-gradient"/><radialGradient id="radial-gradient-23" cx="84.63" cy="104.86" r="1.12" xlink:href="#radial-gradient"/><radialGradient id="radial-gradient-24" cx="27.53" cy="105.98" r="1.63" xlink:href="#radial-gradient"/><radialGradient id="radial-gradient-25" cx="124.65" cy="106.52" r="1.12" xlink:href="#radial-gradient"/><radialGradient id="radial-gradient-26" cx="133.06" cy="85.02" r="1.12" xlink:href="#radial-gradient"/><radialGradient id="radial-gradient-27" cx="97.87" cy="98.66" r="1.12" xlink:href="#radial-gradient"/><radialGradient id="radial-gradient-28" cx="31.97" cy="91.87" r="1.12" xlink:href="#radial-gradient"/><radialGradient id="radial-gradient-29" cx="33.57" cy="119.08" r="1.12" xlink:href="#radial-gradient"/><radialGradient id="radial-gradient-30" cx="18.68" cy="81.64" r="1.12" xlink:href="#radial-gradient"/><radialGradient id="radial-gradient-31" cx="72.91" cy="101.37" r="1.12" xlink:href="#radial-gradient"/><radialGradient id="radial-gradient-32" cx="72.91" cy="126.56" r="1.12" xlink:href="#radial-gradient"/><radialGradient id="radial-gradient-33" cx="81.29" cy="137.82" r="1.12" xlink:href="#radial-gradient"/><radialGradient id="radial-gradient-34" cx="103.67" cy="132.93" r="1.12" xlink:href="#radial-gradient"/><radialGradient id="radial-gradient-35" cx="80.65" cy="116.33" r="1.63" xlink:href="#radial-gradient"/><radialGradient id="radial-gradient-36" cx="94.21" cy="117.96" r="1.12" xlink:href="#radial-gradient"/><radialGradient id="radial-gradient-37" cx="109.53" cy="104.35" r="1.12" xlink:href="#radial-gradient"/><radialGradient id="radial-gradient-38" cx="132.21" cy="106.52" r="1.12" xlink:href="#radial-gradient"/><radialGradient id="radial-gradient-39" cx="65.19" cy="116.26" r="1.12" xlink:href="#radial-gradient"/><radialGradient id="radial-gradient-40" cx="64.67" cy="101.59" r="1.12" xlink:href="#radial-gradient"/><radialGradient id="radial-gradient-41" cx="47.37" cy="117.38" r="1.12" xlink:href="#radial-gradient"/><radialGradient id="radial-gradient-42" cx="102.55" cy="112.14" r="1.12" xlink:href="#radial-gradient"/><radialGradient id="radial-gradient-43" cx="126.89" cy="93.73" r="1.12" xlink:href="#radial-gradient"/><radialGradient id="radial-gradient-44" cx="52.98" cy="129.2" r="1.12" xlink:href="#radial-gradient"/><radialGradient id="radial-gradient-45" cx="63.55" cy="122.39" r="1.63" xlink:href="#radial-gradient"/><radialGradient id="radial-gradient-46" cx="46.8" cy="109.45" r="1.63" xlink:href="#radial-gradient"/><radialGradient id="radial-gradient-47" cx="39.85" cy="117.96" r="1.63" xlink:href="#radial-gradient"/><radialGradient id="radial-gradient-48" cx="53.47" cy="100.47" r="1.63" xlink:href="#radial-gradient"/><radialGradient id="radial-gradient-49" cx="38.22" cy="93.73" r="1.63" xlink:href="#radial-gradient"/><radialGradient id="radial-gradient-50" cx="95.12" cy="-1816.76" r="95.12" gradientTransform="translate(0 1622) scale(1 0.84)" gradientUnits="userSpaceOnUse"><stop offset="0" stop-color="#fff"/><stop offset="1" stop-color="#fff" stop-opacity="0"/></radialGradient><radialGradient id="radial-gradient-51" cx="-9050.25" cy="4758.5" r="119.53" gradientTransform="matrix(0, 0.67, -1, 0, 4910.05, 6212.54)" xlink:href="#radial-gradient-50"/><radialGradient id="radial-gradient-52" cx="17411.05" cy="18.6" r="89.72" gradientTransform="matrix(0.64, 0, 0, 1.04, -10965.65, 106.74)" xlink:href="#radial-gradient-50"/><radialGradient id="radial-gradient-53" cx="95.12" cy="-1816.76" r="95.12" gradientTransform="translate(0 1622) scale(1 0.84)" gradientUnits="userSpaceOnUse"><stop offset="0" stop-color="#58595b"/><stop offset="0.23" stop-color="#595a5c" stop-opacity="0.96"/><stop offset="0.44" stop-color="#5b5c5e" stop-opacity="0.84"/><stop offset="0.63" stop-color="#5f6062" stop-opacity="0.65"/><stop offset="0.81" stop-color="#656668" stop-opacity="0.37"/><stop offset="0.99" stop-color="#6d6e70" stop-opacity="0.01"/><stop offset="1" stop-color="#6d6e70" stop-opacity="0"/></radialGradient><radialGradient id="radial-gradient-54" cx="-9050.25" cy="4758.5" r="119.53" gradientTransform="matrix(0, 0.67, -1, 0, 4910.04, 6212.54)" xlink:href="#radial-gradient-53"/><radialGradient id="radial-gradient-55" cx="17411.05" cy="18.6" r="89.72" gradientTransform="matrix(0.64, 0, 0, 1.04, -10965.65, 106.73)" xlink:href="#radial-gradient-53"/><radialGradient id="radial-gradient-56" cx="95.12" cy="-1816.76" r="95.12" gradientTransform="translate(0 1622) scale(1 0.84)" gradientUnits="userSpaceOnUse"><stop offset="0" stop-color="#bbbdbf"/><stop offset="0.17" stop-color="#bcbec0" stop-opacity="0.98"/><stop offset="0.31" stop-color="#bec0c2" stop-opacity="0.93"/><stop offset="0.45" stop-color="#c2c4c6" stop-opacity="0.83"/><stop offset="0.58" stop-color="#c8cacb" stop-opacity="0.7"/><stop offset="0.71" stop-color="#cfd1d2" stop-opacity="0.53"/><stop offset="0.84" stop-color="#d8dadb" stop-opacity="0.32"/><stop offset="0.97" stop-color="#e3e4e5" stop-opacity="0.07"/><stop offset="1" stop-color="#e6e7e8" stop-opacity="0"/></radialGradient><radialGradient id="radial-gradient-57" cx="-9050.25" cy="4758.5" r="119.53" gradientTransform="matrix(0, 0.67, -1, 0, 4910.04, 6212.54)" xlink:href="#radial-gradient-56"/><radialGradient id="radial-gradient-58" cx="17411.05" cy="18.6" r="89.72" gradientTransform="matrix(0.64, 0, 0, 1.04, -10965.65, 106.73)" xlink:href="#radial-gradient-56"/><radialGradient id="radial-gradient-59" cx="68.47" cy="-1844.62" r="68.47" gradientTransform="translate(0 1617.18) scale(1 0.84)" gradientUnits="userSpaceOnUse"><stop offset="0"/><stop offset="1" stop-opacity="0"/></radialGradient><radialGradient id="radial-gradient-60" cx="-9094.4" cy="4728.06" r="86.04" gradientTransform="matrix(0, 0.67, -1, 0, 4837.09, 6210.96)" xlink:href="#radial-gradient-59"/><radialGradient id="radial-gradient-61" cx="17327.52" cy="-18.19" r="64.58" gradientTransform="matrix(0.64, 0, 0, 1.04, -10970.6, 137.77)" xlink:href="#radial-gradient-59"/><mask id="mask" x="0.76" y="0" width="150.94" height="150.94" maskUnits="userSpaceOnUse"><g transform="translate(-0.01)"><circle class="cls-1" cx="76.24" cy="75.47" r="75.47"/></g></mask><mask id="mask-2" x="17.56" y="91.29" width="6.44" height="6.45" maskUnits="userSpaceOnUse"><g transform="translate(-0.01)"><circle class="cls-2" cx="20.79" cy="94.52" r="3.22"/></g></mask><mask id="mask-3" x="52.56" y="102.93" width="6.44" height="6.45" maskUnits="userSpaceOnUse"><g transform="translate(-0.01)"><circle class="cls-13" cx="55.79" cy="106.15" r="3.22"/></g></mask><mask id="mask-4" x="25.88" y="104.35" width="3.27" height="3.27" maskUnits="userSpaceOnUse"><g transform="translate(-0.01)"><circle class="cls-24" cx="27.53" cy="105.98" r="1.63"/></g></mask><mask id="mask-5" x="79.01" y="114.69" width="3.27" height="3.27" maskUnits="userSpaceOnUse"><g transform="translate(-0.01)"><circle class="cls-35" cx="80.65" cy="116.33" r="1.63"/></g></mask><mask id="mask-6" x="61.91" y="120.75" width="3.27" height="3.27" maskUnits="userSpaceOnUse"><g transform="translate(-0.01)"><circle class="cls-45" cx="63.56" cy="122.39" r="1.63"/></g></mask><mask id="mask-7" x="45.16" y="107.81" width="3.27" height="3.27" maskUnits="userSpaceOnUse"><g transform="translate(-0.01)"><circle class="cls-46" cx="46.8" cy="109.45" r="1.63"/></g></mask><mask id="mask-8" x="38.21" y="116.33" width="3.27" height="3.27" maskUnits="userSpaceOnUse"><g transform="translate(-0.01)"><circle class="cls-47" cx="39.86" cy="117.96" r="1.63"/></g></mask><mask id="mask-9" x="51.83" y="98.83" width="3.27" height="3.27" maskUnits="userSpaceOnUse"><g transform="translate(-0.01)"><circle class="cls-48" cx="53.47" cy="100.47" r="1.63"/></g></mask><mask id="mask-10" x="36.58" y="92.1" width="3.27" height="3.27" maskUnits="userSpaceOnUse"><g transform="translate(-0.01)"><circle class="cls-49" cx="38.22" cy="93.73" r="1.63"/></g></mask><mask id="mask-11" x="92.57" y="102.11" width="3.27" height="3.27" maskUnits="userSpaceOnUse"><g transform="translate(-0.01)"><circle class="cls-3" cx="94.21" cy="103.75" r="1.63"/></g></mask><mask id="mask-12" x="123.01" y="119.12" width="3.27" height="3.27" maskUnits="userSpaceOnUse"><g transform="translate(-0.01)"><circle class="cls-4" cx="124.65" cy="120.75" r="1.63"/></g></mask><mask id="mask-13" x="109" y="133.18" width="3.27" height="3.27" maskUnits="userSpaceOnUse"><g transform="translate(-0.01)"><circle class="cls-5" cx="110.65" cy="134.82" r="1.63"/></g></mask><mask id="mask-14" x="87.16" y="139.71" width="3.27" height="3.27" maskUnits="userSpaceOnUse"><g transform="translate(-0.01)"><circle class="cls-6" cx="88.8" cy="141.34" r="1.63"/></g></mask><mask id="mask-15" x="54.14" y="136.19" width="3.27" height="3.27" maskUnits="userSpaceOnUse"><g transform="translate(-0.01)"><circle class="cls-7" cx="55.79" cy="137.82" r="1.63"/></g></mask><mask id="mask-16" x="31.93" y="124.93" width="3.27" height="3.27" maskUnits="userSpaceOnUse"><g transform="translate(-0.01)"><circle class="cls-8" cx="33.57" cy="126.56" r="1.63"/></g></mask><mask id="mask-17" x="87.82" y="96.1" width="3.27" height="3.27" maskUnits="userSpaceOnUse"><g transform="translate(-0.01)"><circle class="cls-9" cx="89.46" cy="97.74" r="1.63"/></g></mask><mask id="mask-18" x="118.12" y="92.1" width="3.27" height="3.27" maskUnits="userSpaceOnUse"><g transform="translate(-0.01)"><circle class="cls-10" cx="119.76" cy="93.73" r="1.63"/></g></mask><mask id="mask-19" x="114.64" y="100.08" width="6.44" height="6.45" maskUnits="userSpaceOnUse"><g transform="translate(-0.01)"><circle class="cls-11" cx="117.86" cy="103.3" r="3.22"/></g></mask><mask id="mask-20" x="10.68" y="71.74" width="6.44" height="6.44" maskUnits="userSpaceOnUse"><g transform="translate(-0.01)"><circle class="cls-12" cx="13.91" cy="74.96" r="3.22"/></g></mask><mask id="mask-21" x="136.15" y="77.3" width="6.45" height="6.45" maskUnits="userSpaceOnUse"><g transform="translate(-0.01)"><circle class="cls-14" cx="139.38" cy="80.52" r="3.22"/></g></mask><mask id="mask-22" x="83.82" y="118.33" width="6.45" height="6.44" maskUnits="userSpaceOnUse"><g transform="translate(-0.01)"><circle class="cls-15" cx="87.05" cy="121.55" r="3.22"/></g></mask><mask id="mask-23" x="74.2" y="103" width="6.45" height="6.45" maskUnits="userSpaceOnUse"><g transform="translate(-0.01)"><circle class="cls-16" cx="77.43" cy="106.23" r="3.22"/></g></mask><mask id="mask-24" x="98.45" y="100.32" width="7.37" height="7.37" maskUnits="userSpaceOnUse"><g transform="translate(-0.01)"><circle class="cls-17" cx="102.14" cy="104.01" r="3.69"/></g></mask><mask id="mask-25" x="42.95" y="90.45" width="6.57" height="6.57" maskUnits="userSpaceOnUse"><g transform="translate(-0.01)"><circle class="cls-18" cx="46.25" cy="93.73" r="3.29"/></g></mask><mask id="mask-26" x="109.52" y="120.33" width="10.23" height="10.23" maskUnits="userSpaceOnUse"><g transform="translate(-0.01)"><circle class="cls-19" cx="114.64" cy="125.45" r="5.12"/></g></mask><mask id="mask-27" x="74.34" y="118.56" width="2.24" height="2.24" maskUnits="userSpaceOnUse"><g transform="translate(-0.01)"><circle class="cls-20" cx="75.47" cy="119.68" r="1.12"/></g></mask><mask id="mask-28" x="80.17" y="131.04" width="2.24" height="2.24" maskUnits="userSpaceOnUse"><g transform="translate(-0.01)"><circle class="cls-21" cx="81.29" cy="132.16" r="1.12"/></g></mask><mask id="mask-29" x="103.66" y="119.08" width="2.24" height="2.24" maskUnits="userSpaceOnUse"><g transform="translate(-0.01)"><circle class="cls-22" cx="104.79" cy="120.2" r="1.12"/></g></mask><mask id="mask-30" x="83.5" y="103.75" width="2.24" height="2.24" maskUnits="userSpaceOnUse"><g transform="translate(-0.01)"><circle class="cls-23" cx="84.63" cy="104.86" r="1.12"/></g></mask><mask id="mask-31" x="123.53" y="105.41" width="2.24" height="2.24" maskUnits="userSpaceOnUse"><g transform="translate(-0.01)"><circle class="cls-25" cx="124.65" cy="106.52" r="1.12"/></g></mask><mask id="mask-32" x="131.94" y="83.9" width="2.24" height="2.24" maskUnits="userSpaceOnUse"><g transform="translate(-0.01)"><circle class="cls-26" cx="133.06" cy="85.02" r="1.12"/></g></mask><mask id="mask-33" x="96.75" y="97.54" width="2.24" height="2.24" maskUnits="userSpaceOnUse"><g transform="translate(-0.01)"><circle class="cls-27" cx="97.87" cy="98.66" r="1.12"/></g></mask><mask id="mask-34" x="30.84" y="90.75" width="2.24" height="2.24" maskUnits="userSpaceOnUse"><g transform="translate(-0.01)"><circle class="cls-28" cx="31.97" cy="91.87" r="1.12"/></g></mask><mask id="mask-35" x="32.44" y="117.96" width="2.24" height="2.24" maskUnits="userSpaceOnUse"><g transform="translate(-0.01)"><circle class="cls-29" cx="33.57" cy="119.08" r="1.12"/></g></mask><mask id="mask-36" x="17.56" y="80.52" width="2.24" height="2.24" maskUnits="userSpaceOnUse"><g transform="translate(-0.01)"><circle class="cls-30" cx="18.68" cy="81.64" r="1.12"/></g></mask><mask id="mask-37" x="71.78" y="100.25" width="2.24" height="2.24" maskUnits="userSpaceOnUse"><g transform="translate(-0.01)"><circle class="cls-31" cx="72.91" cy="101.37" r="1.12"/></g></mask><mask id="mask-38" x="71.78" y="125.45" width="2.24" height="2.24" maskUnits="userSpaceOnUse"><g transform="translate(-0.01)"><circle class="cls-32" cx="72.91" cy="126.56" r="1.12"/></g></mask><mask id="mask-39" x="80.17" y="136.7" width="2.24" height="2.24" maskUnits="userSpaceOnUse"><g transform="translate(-0.01)"><circle class="cls-33" cx="81.29" cy="137.82" r="1.12"/></g></mask><mask id="mask-40" x="102.54" y="131.81" width="2.24" height="2.24" maskUnits="userSpaceOnUse"><g transform="translate(-0.01)"><circle class="cls-34" cx="103.67" cy="132.93" r="1.12"/></g></mask><mask id="mask-41" x="93.08" y="116.84" width="2.24" height="2.24" maskUnits="userSpaceOnUse"><g transform="translate(-0.01)"><circle class="cls-36" cx="94.21" cy="117.96" r="1.12"/></g></mask><mask id="mask-42" x="108.4" y="103.23" width="2.24" height="2.24" maskUnits="userSpaceOnUse"><g transform="translate(-0.01)"><circle class="cls-37" cx="109.53" cy="104.35" r="1.12"/></g></mask><mask id="mask-43" x="131.09" y="105.41" width="2.24" height="2.24" maskUnits="userSpaceOnUse"><g transform="translate(-0.01)"><circle class="cls-38" cx="132.21" cy="106.52" r="1.12"/></g></mask><mask id="mask-44" x="64.06" y="115.14" width="2.24" height="2.24" maskUnits="userSpaceOnUse"><g transform="translate(-0.01)"><circle class="cls-39" cx="65.19" cy="116.26" r="1.12"/></g></mask><mask id="mask-45" x="63.55" y="100.47" width="2.24" height="2.24" maskUnits="userSpaceOnUse"><g transform="translate(-0.01)"><circle class="cls-40" cx="64.67" cy="101.59" r="1.12"/></g></mask><mask id="mask-46" x="46.24" y="116.26" width="2.24" height="2.24" maskUnits="userSpaceOnUse"><g transform="translate(-0.01)"><circle class="cls-41" cx="47.37" cy="117.38" r="1.12"/></g></mask><mask id="mask-47" x="101.43" y="111.02" width="2.24" height="2.24" maskUnits="userSpaceOnUse"><g transform="translate(-0.01)"><circle class="cls-42" cx="102.55" cy="112.14" r="1.12"/></g></mask><mask id="mask-48" x="125.76" y="92.61" width="2.24" height="2.24" maskUnits="userSpaceOnUse"><g transform="translate(-0.01)"><circle class="cls-43" cx="126.89" cy="93.73" r="1.12"/></g></mask><mask id="mask-49" x="51.86" y="128.08" width="2.24" height="2.24" maskUnits="userSpaceOnUse"><g transform="translate(-0.01)"><circle class="cls-44" cx="52.98" cy="129.2" r="1.12"/></g></mask><symbol id="New_Symbol" data-name="New Symbol" viewBox="0 0 257.01 223.64"><ellipse class="cls-50" cx="95.12" cy="100.46" rx="95.12" ry="79.67"/><ellipse class="cls-51" cx="151.78" cy="111.82" rx="119.53" ry="80.57" transform="translate(-19.1 191.45) rotate(-61.36)"/><ellipse class="cls-52" cx="167.61" cy="125.74" rx="57.37" ry="93.72" transform="translate(-12.47 232.87) rotate(-67.62)"/></symbol><symbol id="New_Symbol_2" data-name="New Symbol 2" viewBox="0 0 257.01 223.64"><ellipse class="cls-56" cx="95.12" cy="100.46" rx="95.12" ry="79.67"/><ellipse class="cls-57" cx="151.78" cy="111.82" rx="119.53" ry="80.57" transform="translate(-19.1 191.45) rotate(-61.36)"/><ellipse class="cls-58" cx="167.61" cy="125.74" rx="57.37" ry="93.72" transform="translate(-12.47 232.87) rotate(-67.62)"/></symbol><symbol id="New_Symbol_3" data-name="New Symbol 3" viewBox="0 0 174.77 164.37"><ellipse class="cls-59" cx="68.47" cy="72.31" rx="68.47" ry="57.35"/><ellipse class="cls-60" cx="109.26" cy="80.49" rx="86.04" ry="58" transform="translate(-13.75 137.81) rotate(-61.36)"/><ellipse class="cls-61" cx="109.26" cy="118.34" rx="41.3" ry="67.46" transform="translate(-41.76 174.32) rotate(-67.62)"/></symbol></defs><title>Ресурс 24weather</title><g id="Слой_2" data-name="Слой 2"><g id="Layer_2" data-name="Layer 2"><g class="cls-62"><circle class="cls-63" cx="76.24" cy="75.47" r="75.47"/></g><use width="257.01" height="223.64" transform="matrix(-0.11, -0.01, 0, -0.16, 70.64, 65.49)" xlink:href="#New_Symbol"/><use width="257.01" height="223.64" transform="matrix(-0.11, -0.01, 0, -0.16, 58.28, 62.9)" xlink:href="#New_Symbol"/><use width="257.01" height="223.64" transform="matrix(-0.11, -0.01, 0, -0.16, 53.9, 60.61)" xlink:href="#New_Symbol"/><use width="257.01" height="223.64" transform="matrix(-0.11, -0.01, 0, -0.16, 49.07, 62.17)" xlink:href="#New_Symbol"/><use width="257.01" height="223.64" transform="matrix(-0.16, -0.02, 0, -0.23, 102.18, 80.68)" xlink:href="#New_Symbol"/><use width="257.01" height="223.64" transform="matrix(-0.16, -0.02, 0, -0.23, 84.65, 77.01)" xlink:href="#New_Symbol"/><use width="257.01" height="223.64" transform="matrix(-0.16, -0.02, 0, -0.23, 78.43, 73.77)" xlink:href="#New_Symbol"/><use width="257.01" height="223.64" transform="matrix(-0.16, -0.02, 0, -0.23, 71.59, 75.98)" xlink:href="#New_Symbol"/><use width="257.01" height="223.64" transform="matrix(-0.17, -0.02, 0, -0.15, 131.06, 64.18)" xlink:href="#New_Symbol_2"/><use width="257.01" height="223.64" transform="matrix(-0.17, -0.02, 0, -0.15, 98.54, 51.23)" xlink:href="#New_Symbol_2"/><use width="257.01" height="223.64" transform="matrix(-0.17, -0.02, 0, -0.15, 70.85, 64.01)" xlink:href="#New_Symbol_2"/><use width="257.01" height="223.64" transform="matrix(-0.17, -0.02, 0, -0.15, 81.21, 56.97)" xlink:href="#New_Symbol_2"/><use width="257.01" height="223.64" transform="matrix(-0.17, -0.02, 0, -0.19, 151.72, 71.72)" xlink:href="#New_Symbol_2"/><use width="257.01" height="223.64" transform="matrix(-0.17, -0.02, 0, -0.19, 97.49, 72.94)" xlink:href="#New_Symbol_2"/><use width="257.01" height="223.64" transform="matrix(0.12, 0.02, 0, 0.19, 0, 24.34)" xlink:href="#New_Symbol_2"/><use width="257.01" height="223.64" transform="matrix(0.12, 0.02, 0, 0.19, 39.96, 23.12)" xlink:href="#New_Symbol_2"/><use width="257.01" height="223.64" transform="translate(9.53 53.18) scale(0.18 0.12)" xlink:href="#New_Symbol"/><use width="257.01" height="223.64" transform="translate(29.25 54.06) scale(0.18 0.12)" xlink:href="#New_Symbol"/><use width="257.01" height="223.64" transform="translate(36.25 55.43) scale(0.18 0.12)" xlink:href="#New_Symbol"/><use width="257.01" height="223.64" transform="translate(43.95 53.8) scale(0.18 0.12)" xlink:href="#New_Symbol"/><use width="257.01" height="223.64" transform="translate(83.47 42.92) scale(0.12 0.16)" xlink:href="#New_Symbol"/><use width="257.01" height="223.64" transform="translate(97.23 44.06) scale(0.12 0.16)" xlink:href="#New_Symbol"/><use width="257.01" height="223.64" transform="translate(102.12 45.84) scale(0.12 0.16)" xlink:href="#New_Symbol"/><use width="257.01" height="223.64" transform="translate(107.49 43.72) scale(0.12 0.16)" xlink:href="#New_Symbol"/><use width="257.01" height="223.64" transform="translate(48.36 31.39) scale(0.17 0.23)" xlink:href="#New_Symbol"/><use width="257.01" height="223.64" transform="translate(67.87 33.02) scale(0.17 0.23)" xlink:href="#New_Symbol"/><use width="257.01" height="223.64" transform="translate(74.8 35.54) scale(0.17 0.23)" xlink:href="#New_Symbol"/><use width="257.01" height="223.64" transform="translate(82.42 32.53) scale(0.17 0.23)" xlink:href="#New_Symbol"/><use width="257.01" height="223.64" transform="translate(41.16 66.35) scale(0.12 0.11)" xlink:href="#New_Symbol"/><use width="257.01" height="223.64" transform="translate(54.74 67.15) scale(0.12 0.11)" xlink:href="#New_Symbol"/><use width="257.01" height="223.64" transform="translate(59.56 68.39) scale(0.12 0.11)" xlink:href="#New_Symbol"/><use width="257.01" height="223.64" transform="translate(64.86 66.91) scale(0.12 0.11)" xlink:href="#New_Symbol"/><use width="257.01" height="223.64" transform="translate(57.27 69.67) rotate(180) scale(0.09 0.14)" xlink:href="#New_Symbol"/><use width="257.01" height="223.64" transform="translate(47.72 68.7) rotate(180) scale(0.09 0.14)" xlink:href="#New_Symbol"/><use width="257.01" height="223.64" transform="translate(44.33 67.21) rotate(180) scale(0.09 0.14)" xlink:href="#New_Symbol"/><use width="257.01" height="223.64" transform="translate(40.6 68.99) rotate(180) scale(0.09 0.14)" xlink:href="#New_Symbol"/><use width="257.01" height="223.64" transform="translate(52.9 75.47) scale(0.12 0.04)" xlink:href="#New_Symbol"/><use width="257.01" height="223.64" transform="translate(16.22 51.27) scale(0.19 0.15)" xlink:href="#New_Symbol_2"/><use width="257.01" height="223.64" transform="translate(52.41 60.43) scale(0.19 0.15)" xlink:href="#New_Symbol_2"/><use width="257.01" height="223.64" transform="translate(83.22 44.41) scale(0.19 0.15)" xlink:href="#New_Symbol_2"/><use width="257.01" height="223.64" transform="translate(71.7 52.66) scale(0.19 0.15)" xlink:href="#New_Symbol_2"/><use width="257.01" height="223.64" transform="translate(60.89 53.09) scale(0.18)" xlink:href="#New_Symbol_2"/><use width="257.01" height="223.64" transform="translate(55.61 46.27) scale(0.18)" xlink:href="#New_Symbol_2"/><use width="257.01" height="223.64" transform="translate(39.02 50.03) scale(0.17 0.16)" xlink:href="#New_Symbol_2"/><use width="257.01" height="223.64" transform="translate(93.32 43.52) scale(0.17 0.16)" xlink:href="#New_Symbol_2"/><use width="257.01" height="223.64" transform="translate(14.24 41.92) scale(0.19)" xlink:href="#New_Symbol_2"/><use width="257.01" height="223.64" transform="translate(74.6 34.38) scale(0.19)" xlink:href="#New_Symbol_2"/><use width="174.77" height="164.37" transform="translate(11.28 53.44) scale(0.31 0.14)" xlink:href="#New_Symbol_3"/><use width="257.01" height="223.64" transform="translate(51.45 58.66) scale(0.13 0.15)" xlink:href="#New_Symbol"/><use width="257.01" height="223.64" transform="translate(66.35 59.69) scale(0.13 0.15)" xlink:href="#New_Symbol"/><use width="257.01" height="223.64" transform="translate(71.65 61.3) scale(0.13 0.15)" xlink:href="#New_Symbol"/><use width="257.01" height="223.64" transform="translate(77.47 59.38) scale(0.13 0.15)" xlink:href="#New_Symbol"/><use width="174.77" height="164.37" transform="translate(66.75 45.65) scale(0.45 0.25)" xlink:href="#New_Symbol_3"/><g class="cls-64"><circle class="cls-65" cx="20.78" cy="94.52" r="3.22"/></g><g class="cls-66"><circle class="cls-65" cx="55.78" cy="106.15" r="3.22"/></g><g class="cls-67"><circle class="cls-65" cx="27.52" cy="105.98" r="1.63"/></g><g class="cls-68"><circle class="cls-65" cx="80.65" cy="116.33" r="1.63"/></g><g class="cls-69"><circle class="cls-65" cx="63.55" cy="122.39" r="1.63"/></g><g class="cls-70"><circle class="cls-65" cx="46.79" cy="109.45" r="1.63"/></g><g class="cls-71"><circle class="cls-65" cx="39.85" cy="117.96" r="1.63"/></g><g class="cls-72"><circle class="cls-65" cx="53.47" cy="100.47" r="1.63"/></g><g class="cls-73"><circle class="cls-65" cx="38.21" cy="93.73" r="1.63"/></g><g class="cls-74"><circle class="cls-65" cx="94.2" cy="103.75" r="1.63"/></g><g class="cls-75"><circle class="cls-65" cx="124.65" cy="120.75" r="1.63"/></g><g class="cls-76"><circle class="cls-65" cx="110.64" cy="134.82" r="1.63"/></g><g class="cls-77"><circle class="cls-65" cx="88.79" cy="141.34" r="1.63"/></g><g class="cls-78"><circle class="cls-65" cx="55.78" cy="137.82" r="1.63"/></g><g class="cls-79"><circle class="cls-65" cx="33.56" cy="126.56" r="1.63"/></g><g class="cls-80"><circle class="cls-65" cx="89.45" cy="97.74" r="1.63"/></g><g class="cls-81"><circle class="cls-65" cx="119.75" cy="93.73" r="1.63"/></g><g class="cls-82"><circle class="cls-65" cx="117.86" cy="103.3" r="3.22"/></g><g class="cls-83"><circle class="cls-65" cx="13.9" cy="74.96" r="3.22"/></g><g class="cls-84"><circle class="cls-65" cx="139.38" cy="80.52" r="3.22"/></g><g class="cls-85"><circle class="cls-65" cx="87.04" cy="121.55" r="3.22"/></g><g class="cls-86"><circle class="cls-65" cx="77.42" cy="106.23" r="3.22"/></g><g class="cls-87"><circle class="cls-65" cx="102.13" cy="104.01" r="3.69"/></g><g class="cls-88"><circle class="cls-65" cx="46.24" cy="93.73" r="3.29"/></g><g class="cls-89"><circle class="cls-65" cx="114.64" cy="125.45" r="5.12"/></g><g class="cls-90"><circle class="cls-65" cx="75.46" cy="119.68" r="1.12"/></g><g class="cls-91"><circle class="cls-65" cx="81.29" cy="132.16" r="1.12"/></g><g class="cls-92"><circle class="cls-65" cx="104.78" cy="120.2" r="1.12"/></g><g class="cls-93"><circle class="cls-65" cx="84.62" cy="104.86" r="1.12"/></g><g class="cls-94"><circle class="cls-65" cx="124.65" cy="106.52" r="1.12"/></g><g class="cls-95"><circle class="cls-65" cx="133.06" cy="85.02" r="1.12"/></g><g class="cls-96"><circle class="cls-65" cx="97.86" cy="98.66" r="1.12"/></g><g class="cls-97"><circle class="cls-65" cx="31.96" cy="91.87" r="1.12"/></g><g class="cls-98"><circle class="cls-65" cx="33.56" cy="119.08" r="1.12"/></g><g class="cls-99"><circle class="cls-65" cx="18.68" cy="81.64" r="1.12"/></g><g class="cls-100"><circle class="cls-65" cx="72.9" cy="101.37" r="1.12"/></g><g class="cls-101"><circle class="cls-65" cx="72.9" cy="126.56" r="1.12"/></g><g class="cls-102"><circle class="cls-65" cx="81.29" cy="137.82" r="1.12"/></g><g class="cls-103"><circle class="cls-65" cx="103.66" cy="132.93" r="1.12"/></g><g class="cls-104"><circle class="cls-65" cx="94.2" cy="117.96" r="1.12"/></g><g class="cls-105"><circle class="cls-65" cx="109.52" cy="104.35" r="1.12"/></g><g class="cls-106"><circle class="cls-65" cx="132.2" cy="106.52" r="1.12"/></g><g class="cls-107"><circle class="cls-65" cx="65.18" cy="116.26" r="1.12"/></g><g class="cls-108"><circle class="cls-65" cx="64.67" cy="101.59" r="1.12"/></g><g class="cls-109"><circle class="cls-65" cx="47.36" cy="117.38" r="1.12"/></g><g class="cls-110"><circle class="cls-65" cx="102.55" cy="112.14" r="1.12"/></g><g class="cls-111"><circle class="cls-65" cx="126.88" cy="93.73" r="1.12"/></g><g class="cls-112"><circle class="cls-65" cx="52.97" cy="129.2" r="1.12"/></g><path class="cls-65" d="M42.36,105.27a1,1,0,0,0-.9.64h-.39a2.42,2.42,0,0,0-.48-1.15l.28-.28a1,1,0,1,0-.45-.45l-.28.28a2.39,2.39,0,0,0-1.16-.48v-.39a1,1,0,1,0-.63,0v.39a2.39,2.39,0,0,0-1.15.48l-.28-.28a1,1,0,1,0-.44.45l.28.28a2.39,2.39,0,0,0-.48,1.15h-.39a1,1,0,1,0,0,.63h.39a2.38,2.38,0,0,0,.48,1.16l-.28.27a1,1,0,1,0,.44.45l.28-.28a2.38,2.38,0,0,0,1.15.48V109a1,1,0,1,0,.63,0v-.39a2.38,2.38,0,0,0,1.16-.48l.28.28a1,1,0,1,0,.45-.45l-.28-.27a2.4,2.4,0,0,0,.48-1.16h.39a1,1,0,1,0,.9-1.27Zm-1.54-2.11a.65.65,0,1,1,.28,1.09H41l0,0h0l0,0h0l0,0h0l0,0h0l0,0,0,0h0l0,0h0l0,0h0l0,0h0l0,0h0v0h0v0h0v0A.65.65,0,0,1,40.82,103.16Zm-4.12.64v0h0v0h0v0h0l0,0h0l0,0h0l0,0h0l0,0h0l0,0,0,0h0l0,0h0l0,0h0l0,0h0l0,0h-.11a.65.65,0,1,1,.45-.45Zm-1.06,2.46h0v0h0v0h0v0h0v0h0v0h0l0,0h0l0,0a.65.65,0,1,1,0-.63l0,0h0l0,0h0v0h0v0h0v0h0v0h0v0h0v0S35.64,106.25,35.64,106.26Zm.89,3a.65.65,0,1,1-.28-1.09h.11l0,0h0l0,0h0l0,0h0l0,0h0l0,0,0,0h0l0,0h0l0,0h0l0,0h0l0,0h0v0h0v0h0v0A.65.65,0,0,1,36.53,109.29Zm4.12-.64v0h0v0h0v0h0l0,0h0l0,0h0l0,0h0l0,0h0l0,0,0,0h0l0,0h0l0,0h0l0,0h0l0,0h.12a.65.65,0,1,1-.45.44Zm-.25-3.71a2.14,2.14,0,0,1,.4,1H40a1.36,1.36,0,0,0-.16-.39ZM40,104.5l-.58.58a1.25,1.25,0,0,0-.39-.16v-.82A2.13,2.13,0,0,1,40,104.5Zm-1.28,2.38a.65.65,0,1,1,.65-.66A.65.65,0,0,1,38.68,106.88ZM38,102.54a.65.65,0,1,1,1,.57l0,0H38.4l0,0A.65.65,0,0,1,38,102.54Zm.34,1.55v.82a1.25,1.25,0,0,0-.39.16l-.58-.58A2.12,2.12,0,0,1,38.36,104.1Zm-1.41.85.58.58a1.33,1.33,0,0,0-.16.39h-.82A2.16,2.16,0,0,1,36.95,104.94Zm0,2.57a2.15,2.15,0,0,1-.4-1h.82a1.33,1.33,0,0,0,.16.39Zm.45.45.58-.58a1.33,1.33,0,0,0,.39.16v.82A2.14,2.14,0,0,1,37.39,108Zm1.94,2a.65.65,0,1,1-1-.57l0,0H39l0,0A.65.65,0,0,1,39.33,109.91ZM39,108.36v-.82a1.33,1.33,0,0,0,.39-.16L40,108A2.15,2.15,0,0,1,39,108.36Zm1.41-.85-.58-.58a1.36,1.36,0,0,0,.16-.39h.82A2.14,2.14,0,0,1,40.41,107.51Zm2-.63a.65.65,0,0,1-.57-.34l0,0h0v0h0v0h0v0h0v0h0v0h0v0h0v-.08h0v0h0v0h0v0h0v0h0v0h0v0h0l0,0a.65.65,0,1,1,.57,1Z" transform="translate(-0.01)"/><path class="cls-65" d="M100.08,130.09a1,1,0,0,0-.9.64h-.39a2.38,2.38,0,0,0-.48-1.16l.28-.28a1,1,0,1,0-.45-.44l-.28.27a2.43,2.43,0,0,0-1.15-.48v-.39a1,1,0,1,0-.63,0v.39a2.44,2.44,0,0,0-1.16.48l-.28-.27a1,1,0,1,0-.44.44l.28.28a2.43,2.43,0,0,0-.48,1.16h-.39a1,1,0,1,0,0,.63H94a2.43,2.43,0,0,0,.48,1.16l-.28.28a1,1,0,1,0,.44.44l.28-.28a2.38,2.38,0,0,0,1.16.48v.39a1,1,0,1,0,.63,0v-.39a2.37,2.37,0,0,0,1.15-.48l.28.28a1,1,0,1,0,.45-.44l-.28-.28a2.39,2.39,0,0,0,.48-1.16h.39a1,1,0,1,0,.9-1.27ZM98.53,128a.65.65,0,1,1,.28,1.09H98.7l0,0h0l0,0h0l0,0h0l0,0h0l0,0,0,0h0l0,0h0l0,0h0l0,0h0l0,0h0v0h0v0h0v0A.64.64,0,0,1,98.53,128Zm-4.12.64v0h0v0h0v0h0l0,0h0l0,0h0l0,0h0l0,0h0l0,0,0,0h0l0,0h0l0,0h0l0,0h0l0,0H94a.65.65,0,1,1,.45-.45Zm-1.05,2.46h0v0h0v0h0v0h0a.1.1,0,0,1,0,0h0v0h0v0h0l0,0a.65.65,0,1,1,0-.63l0,0h0v0h0v0h0a.13.13,0,0,1,0,0h0v0h0v0h0v0h0s0,0,0,0S93.36,131.07,93.36,131.08Zm.89,3A.65.65,0,1,1,94,133h.12l0,0h0l0,0h0l0,0h0l0,0h0l0,0,0,0h0l0,0h0l0,0h0l0,0h0l0,0h0v0h0v0h0v0A.65.65,0,0,1,94.25,134.11Zm4.12-.64v0h0v0h0v0h0l0,0h0l0,0h0l0,0h0l0,0h0l0,0,0,0h0l0,0h0l0,0h0l0,0h0l0,0h.12a.65.65,0,1,1-.28,1.09A.64.64,0,0,1,98.37,133.46Zm-.25-3.71a2.12,2.12,0,0,1,.4,1H97.7a1.28,1.28,0,0,0-.16-.39Zm-.44-.45-.58.58a1.31,1.31,0,0,0-.39-.16v-.82A2.14,2.14,0,0,1,97.67,129.31Zm-1.28,2.38A.65.65,0,1,1,97,131,.65.65,0,0,1,96.39,131.7Zm-.65-4.34a.65.65,0,1,1,1,.57l0,0h-.56l0,0A.65.65,0,0,1,95.74,127.36Zm.34,1.56v.82a1.29,1.29,0,0,0-.39.16l-.58-.58A2.15,2.15,0,0,1,96.08,128.91Zm-1.41.85.58.58a1.36,1.36,0,0,0-.16.39h-.82A2.14,2.14,0,0,1,94.66,129.76Zm0,2.57a2.13,2.13,0,0,1-.4-1h.82a1.36,1.36,0,0,0,.16.39Zm.45.45.58-.58a1.32,1.32,0,0,0,.39.16v.82A2.16,2.16,0,0,1,95.11,132.77Zm1.94,2a.65.65,0,1,1-1-.57l0,0h.56l0,0A.65.65,0,0,1,97,134.73Zm-.34-1.55v-.82a1.34,1.34,0,0,0,.39-.16l.58.58A2.15,2.15,0,0,1,96.7,133.17Zm1.41-.85-.58-.58a1.28,1.28,0,0,0,.16-.39h.82A2.11,2.11,0,0,1,98.12,132.33Zm2-.63a.65.65,0,0,1-.57-.34l0,0h0v0h0v0h0v0h0v0h0v0h0v0h0V131h0v0h0v0h0v0h0v0h0v0h0v0h0l0,0a.65.65,0,1,1,.57,1Z" transform="translate(-0.01)"/><path class="cls-65" d="M76.59,140.39a1,1,0,0,0-.9.64H75.3a2.38,2.38,0,0,0-.48-1.15l.28-.28a1,1,0,1,0-.45-.45l-.27.28a2.4,2.4,0,0,0-1.16-.48v-.39a1,1,0,1,0-.63,0V139a2.4,2.4,0,0,0-1.16.48l-.27-.28a1,1,0,1,0-.45.45l.28.28a2.38,2.38,0,0,0-.48,1.15h-.39a1,1,0,1,0,0,.63h.39a2.4,2.4,0,0,0,.48,1.16l-.28.28a1,1,0,1,0,.45.44l.27-.28a2.41,2.41,0,0,0,1.16.48v.39a1,1,0,1,0,.63,0v-.39a2.41,2.41,0,0,0,1.16-.48l.27.28a1,1,0,1,0,.45-.44l-.28-.28a2.41,2.41,0,0,0,.48-1.16h.39a1,1,0,1,0,.9-1.27ZM75,138.28a.65.65,0,1,1,.93.92.66.66,0,0,1-.64.17h-.12l0,0h0l0,0h0l0,0h0l0,0h0l0,0,0,0h0l0,0h0l0,0h0l0,0h0l0,0h0v0h0v0h0v0A.65.65,0,0,1,75,138.28Zm-4.12.64v0h0v0h0v0h0l0,0h0l0,0h0l0,0h0l0,0h0l0,0,0,0h0l0,0h0l0,0h0l0,0h0l0,0h-.11a.65.65,0,0,1-.64-1.09.65.65,0,0,1,1.09.64Zm-1.05,2.46h0v0h0v0h0v0h0v0h0v0h0l0,0h0l0,0a.65.65,0,1,1,0-.63l0,0h0l0,0h0v0h0v0h0v0h0v0h0v0h0v.08Zm.89,3a.65.65,0,1,1-.28-1.09h.11l0,0h0l0,0h0l0,0h0l0,0h0l0,0,0,0h0l0,0h0l0,0h0l0,0h0l0,0h0v0h0v0h0v0A.65.65,0,0,1,70.76,144.41Zm4.12-.64v0h0v0h0v0h0l0,0h0l0,0h0l0,0h0l0,0h0l0,0,0,0h0l0,0h0l0,0h0l0,0h0l0,0h.12a.65.65,0,1,1-.45.45Zm-.25-3.71a2.15,2.15,0,0,1,.4,1h-.82a1.33,1.33,0,0,0-.16-.39Zm-.45-.45-.58.58a1.37,1.37,0,0,0-.39-.16v-.82A2.14,2.14,0,0,1,74.19,139.61ZM72.91,142a.65.65,0,1,1,.66-.66A.66.66,0,0,1,72.91,142Zm-.65-4.34a.65.65,0,1,1,1,.57l0,0h-.56l0,0A.65.65,0,0,1,72.25,137.66Zm.34,1.55V140a1.39,1.39,0,0,0-.39.16l-.58-.58A2.14,2.14,0,0,1,72.59,139.21Zm-1.41.85.58.58a1.39,1.39,0,0,0-.16.39h-.82A2.16,2.16,0,0,1,71.18,140.06Zm0,2.57a2.15,2.15,0,0,1-.4-1h.82a1.38,1.38,0,0,0,.16.39Zm.45.44.58-.58a1.34,1.34,0,0,0,.39.16v.82A2.16,2.16,0,0,1,71.62,143.07Zm1.94,2a.65.65,0,1,1-1-.57l0,0h.56l0,0A.65.65,0,0,1,73.56,145Zm-.34-1.55v-.82a1.32,1.32,0,0,0,.39-.16l.58.58A2.17,2.17,0,0,1,73.22,143.48Zm1.41-.85-.58-.58a1.33,1.33,0,0,0,.16-.39H75A2.14,2.14,0,0,1,74.64,142.63Zm2-.63a.66.66,0,0,1-.57-.34l0,0h0v0h0v0h0v0h0v0h0v0h0v0h0a.28.28,0,0,1,0,0,.26.26,0,0,1,0,0h0v0h0v0h0v0h0v0h0v0h0v0h0l0,0a.65.65,0,1,1,.57,1Z" transform="translate(-0.01)"/><path class="cls-65" d="M57.68,119.46a.74.74,0,0,0-.7.5h-.3a1.87,1.87,0,0,0-.37-.89l.21-.21a.74.74,0,1,0-.34-.34l-.21.21a1.87,1.87,0,0,0-.9-.37V118a.74.74,0,1,0-.49,0v.3a1.88,1.88,0,0,0-.9.37l-.21-.21a.74.74,0,1,0-.34.34l.21.21A1.86,1.86,0,0,0,53,120h-.3a.74.74,0,1,0,0,.49H53a1.84,1.84,0,0,0,.37.9l-.21.21a.74.74,0,1,0,.34.34l.21-.21a1.89,1.89,0,0,0,.9.37v.3a.74.74,0,1,0,.49,0v-.3a1.88,1.88,0,0,0,.9-.37l.21.21a.74.74,0,1,0,.34-.34l-.21-.21a1.85,1.85,0,0,0,.37-.9H57a.74.74,0,1,0,.7-1Zm-1.19-1.64a.51.51,0,1,1,.22.85h-.12l0,0h-.06l0,0,0,0h0v0h0v0h0l0,0h0v0h0v0h0v0h0v0A.51.51,0,0,1,56.49,117.82Zm-3.2.5v0h0v0h0v0h0v0h0l0,0h0v0h0v0h0l0,0,0,0h-.05l0,0h-.12a.51.51,0,0,1-.5-.13.51.51,0,1,1,.84-.22Zm-.82,1.91h0v0h0v0h0v0h0v0h0v0h0v0h0v0a.51.51,0,0,1-1-.24.51.51,0,0,1,1-.25v0h0v0h0v0h0v0h0v0h0v0h0v0h0v.06Zm.69,2.35a.51.51,0,0,1-.72-.71.51.51,0,0,1,.5-.13h.12l0,0h.05l0,0,0,0h0v0h0v0h0l0,0h0v0h0v0h0v0h0v0A.51.51,0,0,1,53.16,122.58Zm3.2-.5v0h0v0h0v0h0v0h0l0,0h0v0h0v0h0l0,0,0,0h.06l0,0h.12a.51.51,0,1,1-.35.34Zm-.19-2.87a1.66,1.66,0,0,1,.31.75h-.64a1,1,0,0,0-.12-.3Zm-.34-.34-.45.45a1.05,1.05,0,0,0-.3-.13v-.64A1.65,1.65,0,0,1,55.82,118.86Zm-1,1.85a.51.51,0,1,1,.51-.51A.51.51,0,0,1,54.82,120.7Zm-.5-3.36a.51.51,0,1,1,.75.44h-.49A.51.51,0,0,1,54.32,117.34Zm.26,1.2v.64a1,1,0,0,0-.3.13l-.45-.45A1.65,1.65,0,0,1,54.58,118.55Zm-1.1.66.45.45a1.06,1.06,0,0,0-.12.3h-.64A1.68,1.68,0,0,1,53.48,119.2Zm0,2a1.67,1.67,0,0,1-.31-.75h.64a1,1,0,0,0,.12.3Zm.35.35.45-.45a1,1,0,0,0,.3.13v.64A1.68,1.68,0,0,1,53.83,121.54Zm1.5,1.52a.51.51,0,1,1-.75-.44h.49A.51.51,0,0,1,55.33,123.05Zm-.26-1.2v-.64a1,1,0,0,0,.3-.13l.45.45A1.68,1.68,0,0,1,55.07,121.85Zm1.1-.66-.45-.45a1,1,0,0,0,.12-.3h.64A1.65,1.65,0,0,1,56.16,121.19Zm1.52-.49a.5.5,0,0,1-.44-.26v0h0v0h0v0h0v0h0v0h0v0h0v0h0v-.06h0v0h0v0h0v0h0v0h0v0h0v0h0v0a.51.51,0,1,1,.44.75Z" transform="translate(-0.01)"/><path class="cls-65" d="M70.69,96.28a.74.74,0,0,0-.7.5h-.3a1.85,1.85,0,0,0-.37-.9l.21-.21a.74.74,0,1,0-.34-.34l-.22.21a1.85,1.85,0,0,0-.89-.37v-.3a.74.74,0,1,0-.49,0v.3a1.86,1.86,0,0,0-.9.37l-.21-.21a.74.74,0,1,0-.34.34l.21.21a1.88,1.88,0,0,0-.37.9h-.3a.74.74,0,1,0,0,.49H66a1.87,1.87,0,0,0,.37.9l-.21.21a.74.74,0,1,0,.34.34l.21-.21a1.85,1.85,0,0,0,.9.37v.3a.74.74,0,1,0,.49,0v-.3A1.84,1.84,0,0,0,69,98.5l.22.21a.74.74,0,1,0,.34-.34l-.21-.21a1.84,1.84,0,0,0,.37-.9H70a.74.74,0,1,0,.7-1Zm-1.19-1.64a.51.51,0,1,1,.22.85h-.19l0,0,0,0h0v0h0v0h0l0,0h0v0h0v0h0v0h0v0A.51.51,0,0,1,69.49,94.64Zm-3.2.5v0h0v0h0v0h0v0h0l0,0h0v0h0v0h0l0,0,0,0H66a.51.51,0,1,1,.34-.35Zm-.82,1.91h0a.11.11,0,0,1,0,0h0v0h0v0h0v0h0v0h0v0h0v0a.5.5,0,1,1,0-.49v0h0v0h0v0h0v0h0v0h0v0h0a.12.12,0,0,1,0,0h0a.22.22,0,0,1,0,0A.21.21,0,0,1,65.48,97.05Zm.69,2.35a.51.51,0,1,1-.22-.84h.11l0,0h.05l0,0,0,0h0v0h0v0h0l0,0h0v0h0v0h0v0h0v0A.51.51,0,0,1,66.17,99.4Zm3.2-.5v0h0v0h0v0h0v0h0l0,0h0v0h0v0h0l0,0,0,0h.05l0,0h.11a.51.51,0,1,1-.34.34ZM69.17,96a1.66,1.66,0,0,1,.31.75h-.64a1,1,0,0,0-.12-.3Zm-.35-.34-.45.45a1.06,1.06,0,0,0-.3-.13v-.64A1.66,1.66,0,0,1,68.83,95.68Zm-1,1.85a.51.51,0,1,1,.51-.51A.51.51,0,0,1,67.83,97.53Zm-.51-3.36a.51.51,0,1,1,.75.44l0,0h-.43l0,0A.5.5,0,0,1,67.33,94.16Zm.26,1.2V96a1,1,0,0,0-.3.13l-.45-.45A1.67,1.67,0,0,1,67.59,95.37Zm-1.1.66.45.45a1.06,1.06,0,0,0-.12.3h-.64A1.67,1.67,0,0,1,66.49,96Zm0,2a1.65,1.65,0,0,1-.31-.75h.64a1,1,0,0,0,.13.3Zm.34.35.45-.45a1,1,0,0,0,.3.12v.64A1.68,1.68,0,0,1,66.84,98.36Zm1.5,1.52a.51.51,0,1,1-.75-.44l0,0H68l0,0A.51.51,0,0,1,68.34,99.88Zm-.26-1.21V98a1.06,1.06,0,0,0,.3-.12l.45.45A1.67,1.67,0,0,1,68.08,98.67Zm1.1-.66-.45-.45a1,1,0,0,0,.12-.3h.64A1.64,1.64,0,0,1,69.17,98Zm1.52-.49a.5.5,0,0,1-.44-.26v0h0v0h0v0h0v0h0v0h0v0h0v0h0a.23.23,0,0,1,0,0,.24.24,0,0,1,0,0h0v0h0v0h0v0h0v0h0v0h0v0h0v0a.51.51,0,1,1,.44.75Z" transform="translate(-0.01)"/><path class="cls-65" d="M100.85,120.28a.47.47,0,0,0-.45.32h-.19A1.23,1.23,0,0,0,100,120l.14-.14a.48.48,0,1,0-.22-.22l-.14.14a1.19,1.19,0,0,0-.58-.24v-.2a.47.47,0,1,0-.31,0v.2a1.19,1.19,0,0,0-.58.24l-.14-.14a.47.47,0,1,0-.22.22l.14.14a1.2,1.2,0,0,0-.24.57h-.19a.48.48,0,1,0,0,.31h.19a1.21,1.21,0,0,0,.24.58l-.14.14a.48.48,0,0,0-.54.09.48.48,0,1,0,.77.13l.14-.14a1.21,1.21,0,0,0,.58.24v.19a.48.48,0,1,0,.31,0v-.19a1.21,1.21,0,0,0,.58-.24l.14.14a.47.47,0,1,0,.22-.22l-.14-.14a1.24,1.24,0,0,0,.24-.58h.19a.48.48,0,1,0,.45-.63Zm-.77-1.05a.33.33,0,1,1,.14.54H100v0h0v0A.33.33,0,0,1,100.08,119.22Zm-2.05.32v0h0v0h0v0h-.19a.32.32,0,0,1-.32-.08.32.32,0,1,1,.54-.14Zm-.53,1.23h0v0h0v0h0v0h0v0a.32.32,0,1,1,0-.31v0h0v0h0v0h0v0h0v0h0v0Zm.44,1.51a.32.32,0,0,1-.46-.46.33.33,0,0,1,.32-.08H98v0h0v0h0v0h0v0A.32.32,0,0,1,97.94,122.28ZM100,122v0h0v0h0v0h0v0h.18a.33.33,0,0,1,.32.08.33.33,0,0,1,0,.46A.33.33,0,0,1,100,122Zm-.12-1.85a1.08,1.08,0,0,1,.2.48h-.41a.67.67,0,0,0-.08-.19Zm-.22-.22-.29.29a.73.73,0,0,0-.19-.08v-.41A1.06,1.06,0,0,1,99.65,119.89ZM99,121.08a.33.33,0,1,1,.33-.33A.33.33,0,0,1,99,121.08Zm-.33-2.16a.33.33,0,1,1,.48.29h-.31A.33.33,0,0,1,98.69,118.92Zm.17.77v.41a.76.76,0,0,0-.19.08l-.29-.29A1.08,1.08,0,0,1,98.86,119.69Zm-.7.42.29.29a.67.67,0,0,0-.08.19H98A1.09,1.09,0,0,1,98.15,120.11Zm0,1.28a1.1,1.1,0,0,1-.2-.48h.41a.67.67,0,0,0,.08.2Zm.22.22.29-.29a.7.7,0,0,0,.19.08v.41A1.08,1.08,0,0,1,98.37,121.61Zm1,1a.33.33,0,1,1-.65,0,.32.32,0,0,1,.17-.28h.31A.32.32,0,0,1,99.34,122.59Zm-.17-.77v-.41a.67.67,0,0,0,.19-.08l.29.29A1.06,1.06,0,0,1,99.17,121.82Zm.71-.42-.29-.29a.67.67,0,0,0,.08-.2h.41A1.09,1.09,0,0,1,99.87,121.39Zm1-.31a.32.32,0,0,1-.29-.17v0h0v0h0v0h0v0h0v0h0v0h0v0h0v0h0v0a.33.33,0,1,1,.29.48Z" transform="translate(-0.01)"/><path class="cls-65" d="M85.61,111.17a.26.26,0,0,0-.24.17h-.1a.65.65,0,0,0-.13-.31l.07-.07a.26.26,0,0,0,.29,0,.26.26,0,1,0-.41-.07l-.08.08a.61.61,0,0,0-.31-.13v-.11a.26.26,0,1,0-.17,0v.11a.62.62,0,0,0-.31.13l-.07-.08a.26.26,0,0,0-.41-.29.26.26,0,0,0,0,.36.26.26,0,0,0,.29,0l.08.07a.63.63,0,0,0-.13.31h-.11a.25.25,0,1,0,0,.17H84a.63.63,0,0,0,.13.31l-.08.08a.26.26,0,0,0-.29,0,.26.26,0,1,0,.41.07l.07-.07a.66.66,0,0,0,.31.13v.1a.26.26,0,0,0-.17.24.26.26,0,1,0,.34-.24v-.1a.66.66,0,0,0,.31-.13l.08.07a.26.26,0,0,0,0,.29.26.26,0,1,0,.07-.41l-.07-.08a.65.65,0,0,0,.13-.31h.1a.26.26,0,0,0,.5-.09A.26.26,0,0,0,85.61,111.17Zm-.41-.57a.17.17,0,0,1,.25,0,.17.17,0,0,1,0,.25.17.17,0,0,1-.17,0h-.12A.17.17,0,0,1,85.2,110.61Zm-1.11.17H84a.17.17,0,0,1-.17,0,.17.17,0,0,1,.25-.25A.17.17,0,0,1,84.1,110.78Zm-.28.66h0a.18.18,0,1,1-.15-.26.17.17,0,0,1,.15.09h0Zm.24.81a.17.17,0,0,1-.25,0,.18.18,0,0,1,0-.25.18.18,0,0,1,.17,0h.12A.17.17,0,0,1,84.05,112.25Zm1.11-.17h.12a.18.18,0,0,1,.17,0,.18.18,0,0,1-.25.25A.17.17,0,0,1,85.16,112.08Zm-.07-1a.56.56,0,0,1,.11.26H85a.38.38,0,0,0,0-.1ZM85,111l-.16.16-.1,0v-.22A.57.57,0,0,1,85,111Zm-.34.64a.17.17,0,1,1,.17-.17A.17.17,0,0,1,84.63,111.61Zm-.17-1.16a.17.17,0,1,1,.35,0,.18.18,0,0,1-.09.15h-.17A.18.18,0,0,1,84.45,110.44Zm.09.42v.22l-.11,0-.16-.16A.57.57,0,0,1,84.54,110.86Zm-.38.23.15.16a.35.35,0,0,0,0,.1h-.22A.54.54,0,0,1,84.16,111.09Zm0,.69a.55.55,0,0,1-.11-.26h.22a.38.38,0,0,0,0,.1Zm.12.12.16-.16.11,0V112A.57.57,0,0,1,84.28,111.89Zm.52.52a.17.17,0,1,1-.26-.15h.17A.17.17,0,0,1,84.8,112.42Zm-.09-.42v-.22l.1,0,.16.16A.57.57,0,0,1,84.71,112Zm.38-.23-.16-.16a.41.41,0,0,0,0-.1h.22A.58.58,0,0,1,85.09,111.78Zm.52-.17a.17.17,0,0,1-.15-.09h0a.17.17,0,0,1,.15-.09.17.17,0,1,1,0,.35Z" transform="translate(-0.01)"/><path class="cls-65" d="M80,126.15a.26.26,0,0,0-.24.17h-.1a.62.62,0,0,0-.13-.31l.07-.07a.25.25,0,1,0-.12-.12l-.07.07a.64.64,0,0,0-.31-.13v-.1a.26.26,0,1,0-.17,0v.1a.63.63,0,0,0-.31.13l-.07-.07a.26.26,0,1,0-.12.12l.08.07a.65.65,0,0,0-.13.31h-.1a.26.26,0,1,0,0,.17h.1a.64.64,0,0,0,.13.31l-.08.08a.26.26,0,0,0-.29.41.26.26,0,0,0,.41-.29l.07-.07a.62.62,0,0,0,.31.13v.11a.26.26,0,1,0,.17,0V127a.63.63,0,0,0,.31-.13l.07.07a.26.26,0,0,0,.41.29.25.25,0,0,0-.29-.41l-.07-.08a.62.62,0,0,0,.13-.31h.1a.26.26,0,0,0,.24.17.26.26,0,1,0,0-.51Zm-.41-.57a.17.17,0,1,1,.25.25.17.17,0,0,1-.17,0h-.12A.17.17,0,0,1,79.59,125.58Zm-1.11.17h-.12a.17.17,0,0,1-.17,0,.17.17,0,0,1,.25-.25A.17.17,0,0,1,78.49,125.75Zm-.28.66h0a.17.17,0,0,1-.15.09.18.18,0,1,1,.15-.26h0Zm.24.81a.17.17,0,0,1-.25-.25.17.17,0,0,1,.17,0h.12A.17.17,0,0,1,78.44,127.23Zm1.11-.17h.12a.17.17,0,0,1,.17,0,.18.18,0,1,1-.25.25A.17.17,0,0,1,79.55,127.05Zm-.07-1a.57.57,0,0,1,.11.26h-.22a.39.39,0,0,0,0-.1Zm-.12-.12-.16.16-.1,0v-.22A.57.57,0,0,1,79.36,125.94Zm-.34.64a.18.18,0,1,1,.17-.18A.17.17,0,0,1,79,126.58Zm-.17-1.16a.17.17,0,1,1,.35,0,.18.18,0,0,1-.09.15h-.17A.18.18,0,0,1,78.84,125.42Zm.09.42v.22l-.1,0-.16-.16A.58.58,0,0,1,78.93,125.83Zm-.38.23.15.16a.36.36,0,0,0,0,.1h-.22A.61.61,0,0,1,78.56,126.06Zm0,.69a.59.59,0,0,1-.11-.26h.22a.34.34,0,0,0,0,.11Zm.12.12.16-.16.1,0V127A.55.55,0,0,1,78.67,126.87Zm.52.52a.17.17,0,1,1-.26-.15h.17A.18.18,0,0,1,79.19,127.39ZM79.1,127v-.22l.1,0,.16.16A.54.54,0,0,1,79.1,127Zm.38-.23-.16-.16a.37.37,0,0,0,0-.11h.22A.55.55,0,0,1,79.48,126.75Zm.52-.17a.17.17,0,0,1-.15-.09h0a.18.18,0,0,1,.15-.09.18.18,0,0,1,0,.35Z" transform="translate(-0.01)"/><path class="cls-65" d="M88,133.79a.25.25,0,0,0-.24.17h-.11a.63.63,0,0,0-.13-.31l.07-.07a.26.26,0,0,0,.29,0,.26.26,0,1,0-.36-.36.26.26,0,0,0,0,.29l-.08.07a.67.67,0,0,0-.31-.13v-.1a.26.26,0,1,0-.17,0v.1a.67.67,0,0,0-.31.13l-.07-.07a.26.26,0,1,0-.12.12l.07.07a.65.65,0,0,0-.13.31h-.1a.26.26,0,1,0,0,.17h.1a.64.64,0,0,0,.13.31l-.07.07a.25.25,0,0,0-.29,0,.26.26,0,1,0,.41.07l.07-.07a.62.62,0,0,0,.31.13v.11a.26.26,0,1,0,.17,0v-.11a.62.62,0,0,0,.31-.13l.08.07a.26.26,0,0,0,0,.29.26.26,0,1,0,.36-.36.26.26,0,0,0-.29,0l-.07-.07a.62.62,0,0,0,.13-.31h.11a.25.25,0,0,0,.24.17.26.26,0,1,0,0-.51Zm-.41-.57a.17.17,0,0,1,.25.25.17.17,0,0,1-.17,0h-.12A.17.17,0,0,1,87.62,133.23Zm-1.11.17H86.4a.17.17,0,0,1-.17,0,.17.17,0,0,1,0-.25.18.18,0,0,1,.25,0A.18.18,0,0,1,86.52,133.4Zm-.28.66h0a.18.18,0,0,1-.15.09.18.18,0,0,1-.17-.18.17.17,0,0,1,.33-.08h0Zm.24.81a.18.18,0,0,1-.25,0,.17.17,0,0,1,0-.25.17.17,0,0,1,.17,0h.12A.18.18,0,0,1,86.47,134.87Zm1.11-.17h.12a.17.17,0,0,1,.17,0,.17.17,0,1,1-.29.08Zm-.07-1a.56.56,0,0,1,.11.26H87.4a.42.42,0,0,0,0-.1Zm-.12-.12-.15.16-.11,0v-.22A.55.55,0,0,1,87.39,133.58Zm-.34.64a.18.18,0,0,1-.18-.18.18.18,0,1,1,.18.18Zm-.18-1.16a.18.18,0,0,1,.35,0,.17.17,0,0,1-.09.15H87A.17.17,0,0,1,86.87,133.06Zm.09.42v.22l-.1,0-.16-.16A.58.58,0,0,1,87,133.48Zm-.38.23.15.15a.42.42,0,0,0,0,.1h-.22A.57.57,0,0,1,86.58,133.7Zm0,.69a.59.59,0,0,1-.11-.26h.22a.38.38,0,0,0,0,.1Zm.12.12.16-.16.1,0v.22A.57.57,0,0,1,86.7,134.51Zm.52.52a.18.18,0,0,1-.35,0,.18.18,0,0,1,.09-.15h.17A.18.18,0,0,1,87.22,135Zm-.09-.42v-.22l.11,0,.15.16A.54.54,0,0,1,87.13,134.62Zm.38-.22-.16-.16a.38.38,0,0,0,0-.1h.22A.58.58,0,0,1,87.51,134.39Zm.52-.17a.18.18,0,0,1-.16-.09h0a.18.18,0,0,1,.16-.09.17.17,0,0,1,.17.17A.18.18,0,0,1,88,134.22Z" transform="translate(-0.01)"/><path class="cls-65" d="M64.54,106.27a.26.26,0,0,0-.24.17h-.1a.62.62,0,0,0-.13-.31l.07-.07a.26.26,0,1,0-.07-.41.25.25,0,0,0,0,.29l-.07.08a.65.65,0,0,0-.31-.13v-.1a.26.26,0,1,0-.17,0v.1a.65.65,0,0,0-.31.13l-.07-.08a.25.25,0,1,0-.12.12l.07.07a.65.65,0,0,0-.13.31h-.1a.26.26,0,1,0,0,.17h.1a.66.66,0,0,0,.13.31L63,107a.26.26,0,0,0-.29.41.26.26,0,0,0,.41-.29l.07-.07a.62.62,0,0,0,.31.13v.1a.26.26,0,0,0-.17.24.26.26,0,0,0,.51,0,.26.26,0,0,0-.17-.24v-.1a.62.62,0,0,0,.31-.13l.07.07a.26.26,0,0,0,.41.29.26.26,0,0,0,0-.36.25.25,0,0,0-.29,0l-.07-.07a.63.63,0,0,0,.13-.31h.1a.26.26,0,1,0,.24-.34Zm-.41-.57a.18.18,0,0,1,.25,0,.18.18,0,0,1,0,.25.17.17,0,0,1-.17,0h-.12A.18.18,0,0,1,64.13,105.7Zm-1.1.17h-.12a.17.17,0,0,1-.17,0,.18.18,0,0,1,.25-.25A.18.18,0,0,1,63,105.87Zm-.28.66h0a.18.18,0,1,1,0-.17h0Zm.24.81a.18.18,0,0,1-.25-.25.17.17,0,0,1,.17,0H63A.18.18,0,0,1,63,107.35Zm1.1-.17h.12a.17.17,0,0,1,.17,0,.18.18,0,1,1-.29.08Zm-.07-1a.57.57,0,0,1,.11.26h-.22a.34.34,0,0,0,0-.11Zm-.12-.12-.16.16-.1,0V106A.57.57,0,0,1,63.9,106.06Zm-.34.64a.18.18,0,1,1,.18-.17A.18.18,0,0,1,63.56,106.7Zm-.18-1.16a.18.18,0,0,1,.35,0,.18.18,0,0,1-.09.15h-.17A.18.18,0,0,1,63.38,105.54Zm.09.42v.22l-.1,0-.16-.16A.57.57,0,0,1,63.47,106Zm-.38.23.16.15a.36.36,0,0,0,0,.11H63A.55.55,0,0,1,63.09,106.18Zm0,.69a.54.54,0,0,1-.11-.26h.22a.36.36,0,0,0,0,.1Zm.12.12.16-.16.1,0v.22A.56.56,0,0,1,63.21,107Zm.52.52a.18.18,0,0,1-.35,0,.18.18,0,0,1,.09-.15h.17A.18.18,0,0,1,63.73,107.51Zm-.09-.42v-.22l.1,0,.16.16A.56.56,0,0,1,63.64,107.09Zm.38-.23-.15-.16a.34.34,0,0,0,0-.1h.22A.56.56,0,0,1,64,106.87Zm.52-.17a.17.17,0,0,1-.15-.09h0a.17.17,0,0,1,.15-.09.18.18,0,0,1,0,.35Z" transform="translate(-0.01)"/><path class="cls-65" d="M25,87a.26.26,0,0,0-.24.17h-.1a.65.65,0,0,0-.13-.31l.07-.07a.26.26,0,1,0-.07-.41.26.26,0,0,0,0,.29l-.07.07a.64.64,0,0,0-.31-.13v-.1a.26.26,0,1,0-.17,0v.1a.65.65,0,0,0-.31.13l-.07-.07a.25.25,0,1,0-.12.12l.07.07a.64.64,0,0,0-.13.31h-.1a.25.25,0,1,0,0,.17h.1a.64.64,0,0,0,.13.31l-.07.08a.25.25,0,0,0-.29.41.26.26,0,0,0,.41-.29l.07-.07a.64.64,0,0,0,.31.13V88a.26.26,0,0,0-.17.24.26.26,0,0,0,.51,0,.26.26,0,0,0-.17-.24v-.1a.63.63,0,0,0,.31-.13l.07.07a.26.26,0,0,0,0,.29.26.26,0,0,0,.36-.36.25.25,0,0,0-.29,0l-.07-.08a.65.65,0,0,0,.13-.31h.1A.26.26,0,1,0,25,87Zm-.41-.57a.18.18,0,1,1,.25.25.18.18,0,0,1-.17,0h-.12A.18.18,0,0,1,24.58,86.44Zm-1.1.17h-.12a.18.18,0,0,1-.17,0,.18.18,0,1,1,.29-.07Zm-.28.66h0a.18.18,0,0,1-.33-.09.17.17,0,0,1,.18-.17.18.18,0,0,1,.15.09h0Zm.24.81a.18.18,0,0,1-.25,0,.17.17,0,0,1,.17-.29h.12A.18.18,0,0,1,23.43,88.09Zm1.1-.17h.12a.17.17,0,1,1-.12.12Zm-.07-1a.58.58,0,0,1,.11.26h-.22a.41.41,0,0,0,0-.11Zm-.12-.12L24.2,87l-.1,0v-.22A.56.56,0,0,1,24.35,86.8Zm-.34.64a.18.18,0,1,1,.18-.18A.17.17,0,0,1,24,87.44Zm-.17-1.16a.17.17,0,1,1,.26.15h-.17A.17.17,0,0,1,23.83,86.28Zm.09.42v.22l-.11,0-.15-.16A.57.57,0,0,1,23.92,86.69Zm-.38.23.16.16a.41.41,0,0,0,0,.11h-.22A.58.58,0,0,1,23.54,86.92Zm0,.69a.57.57,0,0,1-.11-.26h.22a.4.4,0,0,0,0,.1Zm.12.12.15-.15.11,0v.22A.57.57,0,0,1,23.66,87.73Zm.52.53a.17.17,0,1,1-.35,0,.18.18,0,0,1,.09-.16h.17A.18.18,0,0,1,24.18,88.25Zm-.09-.42v-.22l.1,0,.16.15A.56.56,0,0,1,24.09,87.84Zm.38-.23-.16-.16a.4.4,0,0,0,0-.1h.22A.57.57,0,0,1,24.47,87.61Zm.52-.17a.17.17,0,0,1-.15-.09h0a.17.17,0,0,1,.33.08A.18.18,0,0,1,25,87.44Z" transform="translate(-0.01)"/><path class="cls-65" d="M17.32,102.67a.26.26,0,0,0-.24.17H17a.63.63,0,0,0-.13-.31l.07-.07a.26.26,0,0,0,.29,0,.26.26,0,0,0-.36-.36.25.25,0,0,0-.05.29l-.07.07a.66.66,0,0,0-.31-.13v-.1a.26.26,0,1,0-.17,0v.1a.66.66,0,0,0-.31.13l-.07-.07a.25.25,0,0,0,0-.29.26.26,0,1,0-.07.41l.07.07a.63.63,0,0,0-.13.31h-.1a.26.26,0,0,0-.24-.17.26.26,0,0,0,0,.51.26.26,0,0,0,.24-.17h.1a.64.64,0,0,0,.13.31l-.07.07a.26.26,0,1,0,.12.12l.07-.07a.65.65,0,0,0,.31.13v.1a.26.26,0,1,0,.17,0v-.1a.65.65,0,0,0,.31-.13l.07.07a.26.26,0,0,0,.41.29.26.26,0,0,0-.29-.41l-.07-.07A.64.64,0,0,0,17,103h.11a.26.26,0,1,0,.24-.34Zm-.41-.57a.18.18,0,0,1,.25,0,.17.17,0,0,1,0,.25.18.18,0,0,1-.17,0h-.12A.18.18,0,0,1,16.91,102.11Zm-1.1.17h-.12a.18.18,0,0,1-.17,0,.17.17,0,1,1,.29-.08Zm-.28.66h0a.18.18,0,1,1,0-.17h0Zm.24.81a.18.18,0,0,1-.25,0,.18.18,0,0,1,0-.25.17.17,0,0,1,.17,0h.12A.18.18,0,0,1,15.76,103.75Zm1.1-.17H17a.18.18,0,0,1,.17.29.18.18,0,0,1-.29-.17Zm-.07-1a.57.57,0,0,1,.11.26h-.22a.36.36,0,0,0,0-.11Zm-.12-.12-.16.16-.1,0v-.22A.56.56,0,0,1,16.68,102.46Zm-.34.64a.17.17,0,1,1,0-.35.17.17,0,1,1,0,.35Zm-.17-1.16a.17.17,0,1,1,.26.15h-.17A.17.17,0,0,1,16.16,101.94Zm.09.42v.22l-.1,0-.16-.16A.57.57,0,0,1,16.25,102.36Zm-.38.23.15.15a.37.37,0,0,0,0,.11h-.22A.56.56,0,0,1,15.87,102.58Zm0,.69a.56.56,0,0,1-.11-.26H16a.36.36,0,0,0,0,.1Zm.12.12.16-.16.1,0v.22A.57.57,0,0,1,16,103.39Zm.52.52a.17.17,0,1,1-.26-.15h.17A.18.18,0,0,1,16.51,103.91Zm-.09-.42v-.22l.1,0,.16.16A.56.56,0,0,1,16.42,103.5Zm.38-.23-.16-.16a.35.35,0,0,0,0-.1h.22A.57.57,0,0,1,16.8,103.27Zm.52-.17a.17.17,0,0,1-.15-.09h0a.17.17,0,0,1,.15-.09.17.17,0,1,1,0,.35Z" transform="translate(-0.01)"/><path class="cls-65" d="M49.42,101.85a.26.26,0,0,0-.24.17h-.1a.63.63,0,0,0-.13-.31l.07-.07a.26.26,0,1,0-.07-.41.26.26,0,0,0,0,.29l-.07.08a.65.65,0,0,0-.31-.13v-.11a.26.26,0,1,0-.17,0v.11a.64.64,0,0,0-.31.13l-.07-.08a.26.26,0,0,0,0-.29.26.26,0,1,0-.07.41l.07.07a.64.64,0,0,0-.13.31h-.1a.25.25,0,1,0,0,.17h.1a.65.65,0,0,0,.13.31l-.07.07a.26.26,0,0,0-.29.05.26.26,0,1,0,.41.07l.07-.08a.65.65,0,0,0,.31.13v.1a.26.26,0,0,0,.08.5.26.26,0,0,0,.09-.5v-.1a.65.65,0,0,0,.31-.13l.07.08a.25.25,0,0,0,0,.29.26.26,0,1,0,.36-.36.26.26,0,0,0-.29-.05l-.07-.07a.63.63,0,0,0,.13-.31h.1a.26.26,0,0,0,.5-.09A.26.26,0,0,0,49.42,101.85Zm-.41-.57a.18.18,0,0,1,.25,0,.18.18,0,0,1-.17.29H49A.18.18,0,0,1,49,101.28Zm-1.1.17h-.12a.18.18,0,0,1-.17-.29.17.17,0,0,1,.29.17Zm-.28.66h0a.18.18,0,1,1-.15-.26.18.18,0,0,1,.15.09h0Zm.24.81a.18.18,0,1,1-.08-.29h.12A.18.18,0,0,1,47.86,102.92Zm1.1-.17h.12a.17.17,0,1,1-.12.12Zm-.07-1A.58.58,0,0,1,49,102h-.22a.34.34,0,0,0,0-.11Zm-.12-.12-.16.16-.1,0v-.22A.55.55,0,0,1,48.78,101.64Zm-.34.64a.17.17,0,1,1,.18-.17A.18.18,0,0,1,48.43,102.28Zm-.18-1.16a.18.18,0,1,1,.26.15h-.17A.17.17,0,0,1,48.26,101.12Zm.09.42v.22l-.11,0-.15-.16A.55.55,0,0,1,48.35,101.53Zm-.38.23.15.16a.3.3,0,0,0,0,.11h-.22A.57.57,0,0,1,48,101.76Zm0,.69a.56.56,0,0,1-.11-.26h.22a.3.3,0,0,0,0,.1Zm.12.12.15-.15.11,0v.22A.58.58,0,0,1,48.09,102.56Zm.52.53a.18.18,0,0,1-.35,0,.18.18,0,0,1,.09-.15h.17A.18.18,0,0,1,48.61,103.09Zm-.09-.42v-.22l.1,0,.16.15A.58.58,0,0,1,48.52,102.67Zm.38-.23-.16-.16a.33.33,0,0,0,0-.1H49A.56.56,0,0,1,48.9,102.45Zm.52-.17a.17.17,0,0,1-.15-.09h0a.17.17,0,1,1,.15.26Z" transform="translate(-0.01)"/><path class="cls-65" d="M85.65,100.78a.59.59,0,0,0-.56.4h-.24a1.47,1.47,0,0,0-.29-.71l.17-.17a.59.59,0,1,0-.27-.27l-.17.17a1.5,1.5,0,0,0-.71-.3v-.24a.59.59,0,1,0-.39,0v.24a1.49,1.49,0,0,0-.71.3l-.17-.17a.59.59,0,1,0-.27.27l.17.17a1.46,1.46,0,0,0-.29.71h-.24a.58.58,0,1,0,0,.39h.24a1.47,1.47,0,0,0,.29.71l-.17.17a.59.59,0,1,0,.27.28l.17-.17a1.51,1.51,0,0,0,.71.3v.24a.59.59,0,1,0,.39,0v-.24a1.52,1.52,0,0,0,.71-.3l.17.17a.59.59,0,1,0,.27-.28l-.17-.17a1.48,1.48,0,0,0,.29-.71h.24a.59.59,0,1,0,.56-.78Zm-.95-1.3a.4.4,0,1,1,.17.67h-.15l0,0,0,0h0v0h0v0h0v0h0v0A.4.4,0,0,1,84.7,99.48Zm-2.54.4v0h0v0h0v0h0v0h0v0h0l0,0,0,0h-.16a.4.4,0,0,1-.4-.1.4.4,0,1,1,.67-.17Zm-.65,1.52h0a0,0,0,0,0,0,0h0v0h0v0h0v0h0v0h0v0h0v0a.4.4,0,1,1,0-.39v0h0v0h0v0h0v0h0v0h0v0h0v0h0v0Zm.55,1.86a.4.4,0,0,1-.57,0,.4.4,0,0,1,.4-.67H82l0,0,0,0h0v0h0v0h0v0h0v0h0v0A.4.4,0,0,1,82.06,103.26Zm2.54-.39v0h0v0h0v0h0v0h0v0h0l0,0,0,0h.15a.4.4,0,0,1,.4.67.4.4,0,0,1-.57,0A.39.39,0,0,1,84.6,102.86Zm-.15-2.28a1.34,1.34,0,0,1,.25.6h-.5a.78.78,0,0,0-.1-.24Zm-.27-.27-.36.36a.85.85,0,0,0-.24-.1v-.5A1.33,1.33,0,0,1,84.18,100.31Zm-.79,1.47a.4.4,0,1,1,.4-.4A.4.4,0,0,1,83.38,101.77ZM83,99.1a.4.4,0,1,1,.8,0,.4.4,0,0,1-.21.35h-.39A.4.4,0,0,1,83,99.1Zm.21,1v.5a.85.85,0,0,0-.24.1l-.36-.36A1.32,1.32,0,0,1,83.19,100.06Zm-.87.52.36.36a.76.76,0,0,0-.1.24h-.5A1.29,1.29,0,0,1,82.32,100.58Zm0,1.58a1.3,1.3,0,0,1-.25-.6h.5a.78.78,0,0,0,.1.24Zm.27.27.36-.36a.79.79,0,0,0,.24.1v.51A1.33,1.33,0,0,1,82.59,102.43Zm1.19,1.2a.4.4,0,1,1-.6-.35h.39A.4.4,0,0,1,83.79,103.64Zm-.21-1v-.51a.79.79,0,0,0,.24-.1l.36.36A1.34,1.34,0,0,1,83.58,102.68Zm.87-.52-.36-.36a.8.8,0,0,0,.1-.24h.5A1.34,1.34,0,0,1,84.45,102.16Zm1.2-.39a.4.4,0,0,1-.35-.21v0h0v0h0v0h0v0h0v0h0v0h0v0h0v0h0v0h0v0h0v0h0v0h0v0h0v0h0v0a.4.4,0,1,1,.35.59Z" transform="translate(-0.01)"/><path class="cls-65" d="M117.15,111.52a1,1,0,0,0-.9.64h-.39a2.4,2.4,0,0,0-.48-1.16l.28-.28a1,1,0,1,0-.45-.45l-.27.28a2.39,2.39,0,0,0-1.16-.48v-.39a1,1,0,1,0-.63,0v.39a2.38,2.38,0,0,0-1.16.48l-.27-.28a1,1,0,1,0-.45.45l.28.28a2.39,2.39,0,0,0-.48,1.16h-.39a1,1,0,1,0,0,.63h.39a2.4,2.4,0,0,0,.48,1.16l-.28.28a1,1,0,1,0,.45.44l.27-.27a2.4,2.4,0,0,0,1.16.48v.39a1,1,0,1,0,.63,0v-.39a2.42,2.42,0,0,0,1.16-.48l.27.27a1,1,0,1,0,.45-.44l-.28-.28a2.41,2.41,0,0,0,.48-1.16h.39a1,1,0,1,0,.9-1.27Zm-1.54-2.11a.65.65,0,1,1,.28,1.09h-.12l0,0h0l0,0h0l0,0h0l0,0,0,0h0l0,0h0l0,0h0l0,0h0l0,0h0v0h0v0h0v0A.65.65,0,0,1,115.61,109.41Zm-4.12.64v0h0v0h0v0h0l0,0h0l0,0h0l0,0h0l0,0h0l0,0,0,0h0l0,0h0l0,0h0l0,0h0l0,0H111a.65.65,0,1,1,.45-.44Zm-1.05,2.46h0v0h0a.09.09,0,0,1,0,0h0v0h0v0h0v0h0v0h0l0,0a.65.65,0,1,1,0-.63l0,0h0v0h0v0h0v0h0v0h0a.09.09,0,0,1,0,0h0v0h0a.16.16,0,0,1,0,0A.17.17,0,0,1,110.44,112.51Zm.89,3a.65.65,0,1,1-.28-1.09h.12l0,0h0l0,0h0l0,0h0l0,0h0l0,0,0,0h0l0,0h0l0,0h0l0,0h0l0,0h0v0h0v0h0v0A.65.65,0,0,1,111.33,115.54Zm4.12-.64v0h0v0h0v0h0l0,0h0l0,0h0l0,0h0l0,0h0l0,0,0,0h0l0,0h0l0,0h0l0,0h0l0,0h.12a.65.65,0,1,1-.44.44Zm-.25-3.71a2.11,2.11,0,0,1,.4,1h-.82a1.29,1.29,0,0,0-.16-.39Zm-.45-.45-.58.58a1.34,1.34,0,0,0-.39-.16v-.82A2.15,2.15,0,0,1,114.75,110.75Zm-1.28,2.38a.65.65,0,1,1,.65-.66A.65.65,0,0,1,113.47,113.13Zm-.65-4.34a.65.65,0,1,1,1,.57l0,0h0l0,0h-.49l0,0h0l0,0A.65.65,0,0,1,112.82,108.79Zm.34,1.55v.82a1.37,1.37,0,0,0-.39.16l-.58-.58A2.17,2.17,0,0,1,113.16,110.34Zm-1.41.85.58.58a1.37,1.37,0,0,0-.16.39h-.82A2.12,2.12,0,0,1,111.74,111.19Zm0,2.57a2.14,2.14,0,0,1-.4-1h.82a1.38,1.38,0,0,0,.16.39Zm.44.45.58-.58a1.34,1.34,0,0,0,.39.16v.82A2.17,2.17,0,0,1,112.19,114.2Zm1.94,2a.65.65,0,1,1-1-.57l0,0h0l0,0h.49l0,0h0l0,0A.65.65,0,0,1,114.12,116.16Zm-.34-1.55v-.82a1.31,1.31,0,0,0,.39-.16l.58.58A2.15,2.15,0,0,1,113.78,114.6Zm1.42-.85-.58-.58a1.3,1.3,0,0,0,.16-.39h.82A2.13,2.13,0,0,1,115.2,113.76Zm2-.63a.65.65,0,0,1-.57-.34l0,0h0v0h0v0h0v0h0v0h0v0h0v0h0v-.08h0v0h0v0h0v0h0v0h0v0h0v0h0l0,0a.65.65,0,0,1,1.23.31A.66.66,0,0,1,117.15,113.13Z" transform="translate(-0.01)"/><path class="cls-65" d="M15.38,87a1,1,0,0,0-.9.64h-.39a2.4,2.4,0,0,0-.48-1.16l.28-.28a1,1,0,1,0-.45-.44l-.28.27A2.42,2.42,0,0,0,12,85.55v-.39a1,1,0,1,0-.63,0v.39a2.4,2.4,0,0,0-1.15.48l-.28-.28a1,1,0,1,0-.45.44l.28.28a2.38,2.38,0,0,0-.48,1.16H8.91a1,1,0,1,0,0,.63H9.3a2.38,2.38,0,0,0,.48,1.16l-.28.28a1,1,0,1,0,.45.44l.28-.27a2.4,2.4,0,0,0,1.15.48v.39a1,1,0,1,0,.63,0v-.39a2.41,2.41,0,0,0,1.16-.48l.28.27a1,1,0,1,0,.45-.44l-.28-.28a2.4,2.4,0,0,0,.48-1.16h.39a1,1,0,1,0,.9-1.27Zm-1.54-2.11A.65.65,0,1,1,14.12,86H14l0,0h0l0,0h0l0,0h0l0,0h0l0,0,0,0h0l0,0h0l0,0h0l0,0h0l0,0h0v0h0v0h0v0A.65.65,0,0,1,13.84,84.88Zm-4.12.64v0h0v0h0v0h0l0,0h0l0,0h0l0,0h0l0,0h0l0,0,0,0h0l0,0h0l0,0h0l0,0h0l0,0H9.27a.65.65,0,1,1,.45-.45ZM8.66,88h0v0h0v0h0v0h0v0h0v0h0l0,0h0l0,0a.65.65,0,1,1,0-.63l0,0h0l0,0h0v0h0v0h0v0h0v0h0v0h0V88Zm.89,3a.65.65,0,1,1-.28-1.09h.11l0,0h0l0,0h0l0,0h0l0,0h0l0,0,0,0h0l0,0h0l0,0h0l0,0h0l0,0h0v0h0v0h0v0A.66.66,0,0,1,9.55,91Zm4.12-.65v0h0v0h0v0h0l0,0h0l0,0h0l0,0h0l0,0h0l0,0,0,0h0l0,0h0l0,0h0l0,0h0l0,0h.11a.65.65,0,1,1-.45.45Zm-.25-3.71a2.15,2.15,0,0,1,.4,1H13a1.32,1.32,0,0,0-.16-.39ZM13,86.22l-.58.58a1.37,1.37,0,0,0-.39-.16v-.82A2.16,2.16,0,0,1,13,86.22ZM11.69,88.6a.65.65,0,1,1,.66-.65A.65.65,0,0,1,11.69,88.6ZM11,84.26a.65.65,0,1,1,1,.57l0,0h-.56l0,0A.65.65,0,0,1,11,84.26Zm.34,1.55v.82a1.37,1.37,0,0,0-.39.16l-.58-.58A2.16,2.16,0,0,1,11.38,85.81ZM10,86.66l.58.58a1.31,1.31,0,0,0-.16.39H9.56A2.13,2.13,0,0,1,10,86.66Zm0,2.57a2.15,2.15,0,0,1-.4-1h.82a1.37,1.37,0,0,0,.16.39Zm.44.44.58-.58a1.32,1.32,0,0,0,.39.16v.82A2.13,2.13,0,0,1,10.41,89.67Zm1.94,2a.65.65,0,1,1-1-.57l0,0H12l0,0A.65.65,0,0,1,12.35,91.63ZM12,90.08v-.82a1.32,1.32,0,0,0,.39-.16l.58.58A2.13,2.13,0,0,1,12,90.08Zm1.41-.85-.58-.58a1.38,1.38,0,0,0,.16-.39h.82A2.16,2.16,0,0,1,13.42,89.23Zm2-.63a.65.65,0,0,1-.57-.34l0,0h0v0h0v0h0v0h0v0h0v0h0a.16.16,0,0,1,0,0h0s0,0,0,0v0h0a.17.17,0,0,1,0,0h0v0h0v0h0v0h0v0h0v0h0l0,0a.65.65,0,1,1,.57,1Z" transform="translate(-0.01)"/><path class="cls-65" d="M141.65,97.41a1,1,0,0,0-.9.64h-.39a2.4,2.4,0,0,0-.48-1.15l.27-.28a1,1,0,1,0-.44-.45l-.28.28a2.38,2.38,0,0,0-1.15-.48v-.39a1,1,0,1,0-.63,0V96a2.39,2.39,0,0,0-1.16.48l-.27-.28a1,1,0,1,0-.44.45l.27.28a2.41,2.41,0,0,0-.48,1.15h-.39a1,1,0,1,0,0,.63h.39a2.43,2.43,0,0,0,.48,1.16l-.27.27a1,1,0,1,0,.44.45l.27-.27a2.43,2.43,0,0,0,1.16.48v.39a1,1,0,1,0,.63,0v-.39a2.43,2.43,0,0,0,1.15-.48l.28.27a1,1,0,1,0,.44-.45l-.27-.27a2.41,2.41,0,0,0,.48-1.16h.39a1,1,0,1,0,.9-1.27Zm-1.54-2.11a.65.65,0,1,1,.92.92.65.65,0,0,1-.64.16h-.12l0,0h0l0,0h0l0,0h0l0,0h0l0,0,0,0h0l0,0h0l0,0h0l0,0h0l0,0h0v0h0v0h0v0A.65.65,0,0,1,140.11,95.3Zm-4.12.64v0h0v0h0v0h0l0,0h0l0,0h0l0,0h0l0,0h0l0,0,0,0h0l0,0h0l0,0h0l0,0h0l0,0h-.11a.65.65,0,0,1-.64-.16.65.65,0,1,1,1.09-.28Zm-1.05,2.46h0s0,0,0,0h0v0h0v0h0v0h0v0h0v0h0l0,0a.65.65,0,1,1,0-.63l0,0h0v0h0v0h0v0h0v0h0v0h0s0,0,0,0h0a.26.26,0,0,1,0,0A.24.24,0,0,1,134.93,98.41Zm.89,3a.65.65,0,1,1-.28-1.09h.11l0,0h0l0,0h0l0,0h0l0,0h0l0,0,0,0h0l0,0h0l0,0h0l0,0h0l0,0h0v0h0v0h0v0A.65.65,0,0,1,135.82,101.44Zm4.12-.64v0h0v0h0v0h0l0,0h0l0,0h0l0,0h0l0,0h0l0,0,0,0h0l0,0h0l0,0h0l0,0h0l0,0h.12a.65.65,0,1,1-.45.44Zm-.25-3.71a2.13,2.13,0,0,1,.4,1h-.82a1.31,1.31,0,0,0-.16-.39Zm-.44-.45-.58.58a1.37,1.37,0,0,0-.39-.16v-.82A2.14,2.14,0,0,1,139.25,96.64ZM138,99a.65.65,0,1,1,.65-.65A.66.66,0,0,1,138,99Zm-.66-4.34a.65.65,0,1,1,1,.57l0,0h-.56l0,0A.65.65,0,0,1,137.31,94.68Zm.34,1.55v.82a1.38,1.38,0,0,0-.39.16l-.58-.58A2.15,2.15,0,0,1,137.65,96.24Zm-1.42.85.58.58a1.31,1.31,0,0,0-.16.39h-.82A2.19,2.19,0,0,1,136.24,97.08Zm0,2.57a2.19,2.19,0,0,1-.4-1h.82a1.3,1.3,0,0,0,.16.39Zm.45.45.58-.58a1.35,1.35,0,0,0,.39.16v.82A2.14,2.14,0,0,1,136.68,100.1Zm1.94,2a.65.65,0,1,1-1.31,0,.64.64,0,0,1,.34-.57l0,0h.56l0,0A.65.65,0,0,1,138.62,102.05Zm-.34-1.55v-.82a1.34,1.34,0,0,0,.39-.16l.58.58A2.14,2.14,0,0,1,138.28,100.5Zm1.41-.85-.58-.58a1.29,1.29,0,0,0,.16-.39h.82A2.13,2.13,0,0,1,139.7,99.65Zm2-.63a.65.65,0,0,1-.57-.34l0,0h0v0h0v0h0v0h0v0h0v0h0s0,0,0,0h0v-.08h0s0,0,0,0h0v0h0v0h0v0h0v0h0v0h0l0,0a.65.65,0,1,1,.57,1Z" transform="translate(-0.01)"/><path class="cls-65" d="M73.53,111.82a.65.65,0,0,0-.62.44h-.27a1.65,1.65,0,0,0-.33-.79l.19-.19a.65.65,0,1,0-.31-.3l-.19.19a1.62,1.62,0,0,0-.79-.33v-.27a.65.65,0,1,0-.43,0v.27a1.62,1.62,0,0,0-.79.33l-.19-.19a.65.65,0,0,0-.13-.74.65.65,0,1,0-.18,1l.19.19a1.65,1.65,0,0,0-.33.79H69.1a.65.65,0,1,0,0,.43h.27a1.65,1.65,0,0,0,.33.79l-.19.19a.65.65,0,1,0,.3.3l.19-.19a1.66,1.66,0,0,0,.79.33v.27a.65.65,0,1,0,.43,0v-.27a1.66,1.66,0,0,0,.79-.33l.19.19a.66.66,0,1,0,.31-.3l-.19-.19a1.66,1.66,0,0,0,.33-.79h.27a.65.65,0,1,0,.62-.87Zm-1.05-1.45a.45.45,0,1,1,.19.75h-.1l0,0h0l0,0,0,0h0v0h0v0h0v0h0v0h0v0h0v0A.45.45,0,0,1,72.47,110.38Zm-2.82.44v0h0v0h0v0h0v0h0v0h0v0h0v0h0l0,0,0,0h-.05l0,0h-.1a.45.45,0,1,1,.31-.31Zm-.72,1.69h0v0h0v0h0v0h0v0h0v0h0v0h0v0a.45.45,0,1,1,0-.43v0h0v0h0v0h0v0h0a.08.08,0,0,1,0,0h0v0h0v0h0v.05Zm.61,2.07a.45.45,0,1,1-.19-.75h.17l0,0,0,0h0v0h0v0h0v0h0v0h0v0h0v0h0v0A.44.44,0,0,1,69.54,114.57Zm2.82-.44v0h0v0h0v0h0v0h0v0h0v0h0v0h0l0,0,0,0h.17a.45.45,0,1,1-.19.75A.44.44,0,0,1,72.36,114.13Zm-.17-2.54a1.45,1.45,0,0,1,.27.66H71.9a1,1,0,0,0-.11-.27Zm-.3-.3-.4.4a.87.87,0,0,0-.27-.11V111A1.48,1.48,0,0,1,71.89,111.29ZM71,112.92a.45.45,0,1,1,.45-.45A.45.45,0,0,1,71,112.92Zm-.44-3a.45.45,0,1,1,.66.39h-.43A.45.45,0,0,1,70.56,110Zm.23,1.06v.56a.84.84,0,0,0-.26.11l-.4-.4A1.47,1.47,0,0,1,70.79,111Zm-1,.58.4.4a1,1,0,0,0-.11.27h-.56A1.48,1.48,0,0,1,69.82,111.59Zm0,1.76a1.47,1.47,0,0,1-.27-.66h.56a.91.91,0,0,0,.11.27Zm.31.3.4-.4a.89.89,0,0,0,.26.11v.56A1.5,1.5,0,0,1,70.13,113.66ZM71.45,115a.45.45,0,1,1-.66-.39h.43A.45.45,0,0,1,71.45,115Zm-.23-1.06v-.56a.93.93,0,0,0,.27-.11l.4.4A1.5,1.5,0,0,1,71.22,113.93Zm1-.58-.4-.4a.92.92,0,0,0,.11-.27h.56A1.45,1.45,0,0,1,72.19,113.35Zm1.34-.43a.45.45,0,0,1-.39-.23v0h0v0h0v0h0v0h0v0h0v0h0a.06.06,0,0,0,0,0h0v-.05h0a0,0,0,0,0,0,0h0v0h0v0h0v0h0v0h0v0h0v0a.45.45,0,1,1,.39.66Z" transform="translate(-0.01)"/><path class="cls-65" d="M30,96.88a.65.65,0,0,0-.62.44h-.27a1.65,1.65,0,0,0-.33-.79l.19-.19a.65.65,0,1,0-.3-.3l-.19.19a1.66,1.66,0,0,0-.79-.33v-.27a.65.65,0,1,0-.43,0v.27a1.66,1.66,0,0,0-.79.33L26.33,96a.65.65,0,1,0-.3.3l.19.19a1.64,1.64,0,0,0-.33.79h-.27a.65.65,0,1,0,0,.43h.27a1.62,1.62,0,0,0,.33.79l-.19.19a.65.65,0,1,0,.3.3l.19-.19a1.64,1.64,0,0,0,.79.33v.27a.65.65,0,1,0,.43,0v-.27a1.64,1.64,0,0,0,.79-.33l.19.19a.65.65,0,1,0,.3-.3l-.19-.19a1.63,1.63,0,0,0,.33-.79h.27a.65.65,0,1,0,.62-.87ZM29,95.44a.45.45,0,0,1,.63.63.46.46,0,0,1-.44.12H29l0,0,0,0h0v0h0v0h0v0h0v0h0v0h0v0A.45.45,0,0,1,29,95.44Zm-2.82.44v0h0v0h0v0h0v0h0l0,0h0v0h0l0,0,0,0h-.17a.46.46,0,0,1-.44-.12.45.45,0,1,1,.74-.19Zm-.72,1.68h0v0h0v0h0v0h0v0h0v0h0v0h0v0a.45.45,0,1,1,0-.43v0h0v0h0v0h0v0h0v0h0v0h0v0h0v.05Zm.61,2.07a.45.45,0,1,1-.19-.75H26l0,0,0,0h0v0h0l0,0h0v0h0v0h0v0h0v0A.45.45,0,0,1,26.06,99.64Zm2.82-.44v0h0v0h0v0h0v0h0v0h0v0h0l0,0,0,0h.17a.45.45,0,1,1-.3.3Zm-.17-2.54a1.47,1.47,0,0,1,.27.66h-.56a.91.91,0,0,0-.11-.27Zm-.3-.3-.4.4a1,1,0,0,0-.27-.11v-.56A1.47,1.47,0,0,1,28.4,96.35ZM27.53,98a.45.45,0,1,1,.45-.45A.45.45,0,0,1,27.53,98Zm-.45-3a.45.45,0,1,1,.66.39h-.43A.44.44,0,0,1,27.08,95Zm.23,1.06v.56a1,1,0,0,0-.27.11l-.4-.4A1.48,1.48,0,0,1,27.31,96.08Zm-1,.58.4.4a.93.93,0,0,0-.11.27h-.56A1.48,1.48,0,0,1,26.34,96.66Zm0,1.76a1.45,1.45,0,0,1-.27-.66h.56a1,1,0,0,0,.11.27Zm.3.31.4-.4a.87.87,0,0,0,.27.11V99A1.48,1.48,0,0,1,26.65,98.72ZM28,100.06a.45.45,0,1,1-.66-.39h.43A.45.45,0,0,1,28,100.06ZM27.74,99v-.56a.87.87,0,0,0,.27-.11l.4.4A1.48,1.48,0,0,1,27.74,99Zm1-.58-.4-.4a1,1,0,0,0,.11-.27H29A1.45,1.45,0,0,1,28.71,98.41ZM30,98a.45.45,0,0,1-.39-.23v0h0v0h0v0h0v0h0v0h0v0h0v0h0v-.05h0v0h0a.06.06,0,0,1,0,0h0v0h0v0h0v0h0v0h0v0A.45.45,0,1,1,30,98Z" transform="translate(-0.01)"/><path class="cls-65" d="M45.55,124.91a.65.65,0,0,0-.62.44h-.27a1.63,1.63,0,0,0-.33-.79l.19-.19a.65.65,0,1,0-.3-.3l-.19.19a1.64,1.64,0,0,0-.79-.33v-.27a.65.65,0,1,0-.43,0v.27a1.64,1.64,0,0,0-.79.33l-.19-.19a.65.65,0,1,0-.3.3l.19.19a1.65,1.65,0,0,0-.33.79h-.27a.65.65,0,1,0,0,.43h.27a1.65,1.65,0,0,0,.33.79l-.19.19a.65.65,0,1,0,.3.3l.19-.19a1.66,1.66,0,0,0,.79.33v.27a.65.65,0,1,0,.43,0v-.27a1.65,1.65,0,0,0,.79-.33l.19.19a.65.65,0,1,0,.3-.3l-.19-.19a1.63,1.63,0,0,0,.33-.79h.27a.65.65,0,1,0,.62-.87Zm-1.05-1.45a.45.45,0,0,1,.63.63.45.45,0,0,1-.44.11h-.17l0,0,0,0h0v0h0v0h0v0h0v0h0v0h0v0A.45.45,0,0,1,44.5,123.46Zm-2.82.44v0h0v0h0v0h0v0h0v0h0v0h0l0,0,0,0h-.17a.45.45,0,0,1-.44-.11.45.45,0,1,1,.74-.19ZM41,125.59h0v0h0v0h0v0h0v0h0v0h0v0h0v0a.45.45,0,1,1-.39-.66.44.44,0,0,1,.39.23v0h0v0h0v0h0v0h0v0h0v0h0v0h0v.05Zm.61,2.07a.45.45,0,1,1-.19-.74h.17l0,0,0,0h0v0h0v0h0v0h0v0h0v0h0v0A.45.45,0,0,1,41.56,127.66Zm2.82-.44v0h0v0h0v0h0v0h0v0h0v0h0l0,0,0,0h.17a.44.44,0,1,1-.3.3Zm-.17-2.54a1.48,1.48,0,0,1,.27.66h-.56a1,1,0,0,0-.11-.27Zm-.3-.3-.4.4a1,1,0,0,0-.27-.11v-.56A1.46,1.46,0,0,1,43.91,124.38ZM43,126a.45.45,0,1,1,.45-.45A.45.45,0,0,1,43,126Zm-.45-3a.45.45,0,1,1,.66.39h-.43A.44.44,0,0,1,42.58,123Zm.23,1.06v.56a1,1,0,0,0-.27.11l-.4-.4A1.46,1.46,0,0,1,42.81,124.1Zm-1,.58.4.4a.91.91,0,0,0-.11.27h-.56A1.46,1.46,0,0,1,41.85,124.68Zm0,1.76a1.45,1.45,0,0,1-.28-.66h.56a.89.89,0,0,0,.11.27Zm.3.3.4-.4a.89.89,0,0,0,.27.11V127A1.48,1.48,0,0,1,42.15,126.74Zm1.33,1.34a.45.45,0,1,1-.66-.39h.43A.45.45,0,0,1,43.48,128.08ZM43.24,127v-.56a.88.88,0,0,0,.27-.11l.4.4A1.48,1.48,0,0,1,43.24,127Zm1-.58-.4-.4a.93.93,0,0,0,.11-.27h.56A1.46,1.46,0,0,1,44.21,126.44Zm1.34-.43a.45.45,0,0,1-.39-.23v0h0v0h0v0h0v0h0v0h0v0h0v0h0v-.05h0v0h0v0h0v0h0v0h0v0h0v0h0v0a.45.45,0,1,1,.39.66Z" transform="translate(-0.01)"/><path class="cls-65" d="M112.82,95.74a.65.65,0,0,0-.62.44h-.26a1.65,1.65,0,0,0-.33-.79l.19-.19a.65.65,0,1,0-.3-.31l-.19.19a1.66,1.66,0,0,0-.79-.33v-.27a.65.65,0,1,0-.43,0v.27a1.66,1.66,0,0,0-.79.33l-.19-.19a.65.65,0,1,0-.31.31l.19.19a1.65,1.65,0,0,0-.33.79h-.27a.65.65,0,1,0,0,.43h.27a1.64,1.64,0,0,0,.33.79l-.19.19a.65.65,0,0,0-.74,1.05.65.65,0,0,0,1.05-.75l.19-.19a1.63,1.63,0,0,0,.79.33v.27a.65.65,0,1,0,.43,0V98a1.63,1.63,0,0,0,.79-.33l.19.19a.65.65,0,1,0,.3-.3l-.19-.19a1.64,1.64,0,0,0,.33-.79h.26a.65.65,0,1,0,.62-.87Zm-1.05-1.45A.45.45,0,1,1,112,95h-.17l0,0,0,0h0v0h0v0h0v0h0v0h0v0h0v0A.45.45,0,0,1,111.76,94.29Zm-2.82.44v0h0v0h0v0h0v0h0v0h0v0h0l0,0,0,0h-.17a.45.45,0,0,1-.44-.75.45.45,0,0,1,.75.44Zm-.72,1.68h0a.06.06,0,0,0,0,0h0v0h0v0h0v0h0v0h0v0h0v0a.45.45,0,1,1,0-.43v0h0v0h0v0h0v0h0v0h0v0h0a.06.06,0,0,0,0,0h0v.05Zm.61,2.07a.45.45,0,1,1-.19-.75h.17l0,0,0,0h0v0h0v0h0v0h0v0h0v0h0v0A.45.45,0,0,1,108.83,98.49Zm2.82-.44v0h0v0h0v0h0v0h0v0h0v0h0l0,0,0,0H112a.45.45,0,1,1-.3.3Zm-.17-2.54a1.45,1.45,0,0,1,.28.66h-.56a1,1,0,0,0-.11-.27Zm-.3-.3-.4.4a.92.92,0,0,0-.27-.11v-.56A1.48,1.48,0,0,1,111.17,95.21Zm-.88,1.63a.45.45,0,1,1,.45-.45A.45.45,0,0,1,110.3,96.84Zm-.45-3a.45.45,0,1,1,.66.39h-.43A.44.44,0,0,1,109.85,93.87Zm.23,1.06v.56a.88.88,0,0,0-.27.11l-.4-.4A1.48,1.48,0,0,1,110.08,94.93Zm-1,.58.4.4a1,1,0,0,0-.11.27h-.56A1.48,1.48,0,0,1,109.11,95.51Zm0,1.76a1.49,1.49,0,0,1-.27-.66h.56a.93.93,0,0,0,.11.27Zm.31.3.4-.4a1,1,0,0,0,.27.11v.56A1.45,1.45,0,0,1,109.42,97.57Zm1.33,1.34a.45.45,0,1,1-.66-.39h.43A.45.45,0,0,1,110.74,98.91Zm-.23-1.07v-.56a1,1,0,0,0,.27-.11l.4.4A1.44,1.44,0,0,1,110.51,97.85Zm1-.58-.4-.4a.93.93,0,0,0,.11-.27h.56A1.46,1.46,0,0,1,111.48,97.27Zm1.34-.43a.45.45,0,0,1-.39-.23v0h0v0h0v0h0v0h0v0h0v0h0a0,0,0,0,0,0,0h0v-.05h0a0,0,0,0,0,0,0h0v0h0v0h0v0h0v0h0v0h0v0a.45.45,0,1,1,.39.66Z" transform="translate(-0.01)"/><path class="cls-65" d="M131,113.58a.66.66,0,0,0-.62.44h-.26a1.63,1.63,0,0,0-.33-.79l.19-.19a.65.65,0,1,0-.31-.3l-.19.19a1.65,1.65,0,0,0-.79-.33v-.27a.65.65,0,1,0-.43,0v.27a1.64,1.64,0,0,0-.79.33l-.19-.19a.65.65,0,1,0-.3.3l.19.19a1.64,1.64,0,0,0-.33.79h-.26a.65.65,0,1,0,0,.43h.26a1.64,1.64,0,0,0,.33.79l-.19.19a.65.65,0,0,0-.75,1,.65.65,0,0,0,1-.75l.19-.19a1.66,1.66,0,0,0,.79.33v.27a.65.65,0,1,0,.43,0v-.27a1.66,1.66,0,0,0,.79-.33l.19.19a.65.65,0,1,0,.31-.3l-.19-.19a1.63,1.63,0,0,0,.33-.79h.26a.65.65,0,1,0,.62-.87Zm-1.05-1.45a.45.45,0,1,1,.19.74h-.17l0,0,0,0h0v0h0l0,0h0v0h0v0h0v0h0v0A.45.45,0,0,1,129.91,112.13Zm-2.82.44v0h0v0h0v0h0v0h0v0h0v0h0l0,0,0,0h-.17a.45.45,0,1,1,.31-.3Zm-.72,1.68h0v0h0v0h0v0h0v0h0v0h0v0h0v0a.45.45,0,0,1-.84-.22.45.45,0,0,1,.84-.21v0h0v0h0v0h0v0h0v0h0v0h0v0h0v.05Zm.61,2.07a.45.45,0,0,1-.63-.63.46.46,0,0,1,.44-.11H127l0,0,0,0h0v0h0v0h0v0h0v0h0v0h0v0A.45.45,0,0,1,127,116.33Zm2.82-.44v0h0v0h0v0h0v0h0l0,0h0v0h0l0,0,0,0h.17a.46.46,0,0,1,.44.11.45.45,0,1,1-.75.19Zm-.17-2.54a1.44,1.44,0,0,1,.28.66h-.56a.88.88,0,0,0-.11-.27Zm-.3-.3-.4.4a.9.9,0,0,0-.27-.11v-.56A1.48,1.48,0,0,1,129.33,113Zm-.88,1.63a.45.45,0,1,1,.45-.45A.45.45,0,0,1,128.45,114.68Zm-.45-3a.45.45,0,1,1,.66.39h-.43A.45.45,0,0,1,128,111.71Zm.23,1.06v.56a.9.9,0,0,0-.27.11l-.4-.4A1.48,1.48,0,0,1,128.23,112.77Zm-1,.58.4.4a.91.91,0,0,0-.11.27H127A1.5,1.5,0,0,1,127.26,113.35Zm0,1.76a1.5,1.5,0,0,1-.27-.66h.56a.94.94,0,0,0,.11.27Zm.31.3.4-.4a.93.93,0,0,0,.27.11v.56A1.45,1.45,0,0,1,127.57,115.41Zm1.32,1.34a.45.45,0,1,1-.89,0,.45.45,0,0,1,.23-.39h.43A.45.45,0,0,1,128.89,116.75Zm-.23-1.06v-.56a.92.92,0,0,0,.27-.11l.4.4A1.46,1.46,0,0,1,128.66,115.69Zm1-.58-.4-.4a.91.91,0,0,0,.11-.27h.56A1.45,1.45,0,0,1,129.63,115.11Zm1.34-.43a.45.45,0,0,1-.39-.23v0h0v0h0v0h0v0h0v0h0v0h0v0h0v-.05h0v0h0v0h0v0h0v0h0v0h0v0h0v0a.45.45,0,0,1,.39-.23.45.45,0,1,1,0,.89Z" transform="translate(-0.01)"/><path class="cls-65" d="M93.82,110.63a.38.38,0,0,0-.36.26h-.16a1,1,0,0,0-.2-.47l.11-.11a.39.39,0,1,0-.18-.18l-.11.11a1,1,0,0,0-.47-.19v-.16a.39.39,0,1,0-.26,0V110a1,1,0,0,0-.47.2l-.11-.11a.39.39,0,1,0-.18.18l.11.11a1,1,0,0,0-.19.47h-.16a.39.39,0,1,0,0,.26h.16a1,1,0,0,0,.19.47l-.11.11a.39.39,0,1,0,.18.18l.11-.11a1,1,0,0,0,.47.19v.16a.39.39,0,1,0,.26,0V112a1,1,0,0,0,.47-.19l.11.11a.39.39,0,1,0,.18-.18l-.11-.11a1,1,0,0,0,.2-.47h.16a.38.38,0,0,0,.36.26.39.39,0,0,0,0-.78Zm-.63-.86a.27.27,0,1,1,.11.44h-.18v0A.27.27,0,0,1,93.19,109.78Zm-1.68.26v0h-.17a.27.27,0,0,1-.26-.07.27.27,0,0,1,.37-.38A.27.27,0,0,1,91.52,110Zm-.43,1h0a.27.27,0,0,1-.23.14.26.26,0,1,1,.23-.39h0v0h0v0Zm.36,1.23a.27.27,0,1,1-.11-.44h.18A.27.27,0,0,1,91.45,112.27Zm1.68-.26h.18a.27.27,0,1,1-.18.18ZM93,110.5a.88.88,0,0,1,.16.39h-.33a.54.54,0,0,0-.07-.16Zm-.18-.18-.24.24a.5.5,0,0,0-.16-.07v-.33A.86.86,0,0,1,92.84,110.32Zm-.52,1a.27.27,0,1,1,.27-.27A.27.27,0,0,1,92.32,111.29Zm-.27-1.77a.27.27,0,0,1,.53,0,.26.26,0,0,1-.14.23h-.26A.26.26,0,0,1,92.05,109.52Zm.14.63v.33a.49.49,0,0,0-.16.07l-.24-.24A.86.86,0,0,1,92.19,110.16Zm-.58.34.24.23a.6.6,0,0,0-.07.16h-.33A.9.9,0,0,1,91.62,110.5Zm0,1a.9.9,0,0,1-.16-.39h.33a.56.56,0,0,0,.07.16Zm.18.18.24-.23.16.06v.33A.89.89,0,0,1,91.8,111.73Zm.79.79a.27.27,0,1,1-.53,0,.27.27,0,0,1,.14-.23h.26A.27.27,0,0,1,92.58,112.52Zm-.14-.63v-.33l.16-.06.24.23A.88.88,0,0,1,92.45,111.89Zm.58-.34-.24-.24a.51.51,0,0,0,.07-.16h.33A.88.88,0,0,1,93,111.54Zm.79-.26a.27.27,0,0,1-.23-.14h0v0h0v0h0a.26.26,0,0,1,.23-.14.26.26,0,1,1,0,.53Z" transform="translate(-0.01)"/><path class="cls-65" d="M59.92,112.52a.39.39,0,0,0-.37.26h-.16a1,1,0,0,0-.19-.47l.11-.11a.39.39,0,1,0-.11-.62.38.38,0,0,0-.08.44l-.11.11a1,1,0,0,0-.47-.19v-.16a.39.39,0,1,0-.26,0v.16a1,1,0,0,0-.47.19l-.11-.11a.39.39,0,1,0-.18.18l.11.11a1,1,0,0,0-.19.47h-.16a.39.39,0,1,0,0,.26h.16a1,1,0,0,0,.19.47l-.11.11a.39.39,0,0,0-.44.08.39.39,0,1,0,.62.11l.11-.11a1,1,0,0,0,.47.2V114a.39.39,0,1,0,.26,0v-.16a1,1,0,0,0,.47-.2l.11.11a.39.39,0,1,0,.18-.18l-.11-.11a1,1,0,0,0,.19-.47h.16a.39.39,0,1,0,.37-.52Zm-.63-.86a.27.27,0,0,1,.38,0,.27.27,0,0,1-.26.44h-.18v0A.27.27,0,0,1,59.29,111.66Zm-1.68.26v0h-.18a.27.27,0,1,1,.11-.44A.27.27,0,0,1,57.62,111.92Zm-.43,1h0v0h0v0a.27.27,0,1,1,0-.26v0h0v0h0Zm.36,1.23a.27.27,0,1,1-.37-.38.26.26,0,0,1,.26-.07h.18v0A.27.27,0,0,1,57.55,114.16Zm1.68-.26v0h.18a.27.27,0,0,1,.26.44.27.27,0,0,1-.44-.26Zm-.1-1.51a.87.87,0,0,1,.16.39H59a.52.52,0,0,0-.06-.16Zm-.18-.18-.24.24-.16-.07V112A.85.85,0,0,1,58.94,112.21Zm-.52,1a.27.27,0,1,1,.27-.27A.27.27,0,0,1,58.42,113.18Zm-.27-1.77a.27.27,0,1,1,.39.23h-.26A.27.27,0,0,1,58.15,111.41Zm.14.63v.33l-.16.07-.24-.24A.85.85,0,0,1,58.29,112Zm-.58.34.24.24a.54.54,0,0,0-.07.16h-.33A.88.88,0,0,1,57.72,112.39Zm0,1a.86.86,0,0,1-.16-.39h.33a.54.54,0,0,0,.07.16Zm.18.18.24-.24.16.07v.33A.89.89,0,0,1,57.9,113.61Zm.79.79a.27.27,0,1,1-.39-.23h.26A.27.27,0,0,1,58.69,114.41Zm-.14-.63v-.33a.55.55,0,0,0,.16-.07l.24.24A.89.89,0,0,1,58.55,113.78Zm.57-.34-.24-.24A.53.53,0,0,0,59,113h.33A.86.86,0,0,1,59.12,113.43Zm.8-.26a.27.27,0,0,1-.23-.14v0h0v0h0v0h0v0h0v0a.27.27,0,1,1,.23.4Z" transform="translate(-0.01)"/><path class="cls-65" d="M21.3,108.75a.39.39,0,0,0-.37.26h-.16a1,1,0,0,0-.19-.47l.11-.11a.39.39,0,0,0,.44-.63.39.39,0,0,0-.62.44l-.11.11a1,1,0,0,0-.47-.19V108a.39.39,0,1,0-.26,0v.16a1,1,0,0,0-.47.2l-.11-.11a.39.39,0,1,0-.18.18l.11.11a1,1,0,0,0-.19.47h-.16a.39.39,0,1,0,0,.25h.16a1,1,0,0,0,.19.47l-.11.11a.4.4,0,0,0-.44.08.39.39,0,1,0,.62.11l.11-.11a1,1,0,0,0,.47.19v.16a.39.39,0,1,0,.26,0v-.16a1,1,0,0,0,.47-.19l.11.11a.39.39,0,1,0,.18-.18l-.11-.11a1,1,0,0,0,.19-.47h.16a.39.39,0,1,0,.37-.52Zm-.63-.86a.27.27,0,1,1,.11.44h-.18A.26.26,0,0,1,20.68,107.89Zm-1.68.26h-.18a.26.26,0,0,1-.26-.07.27.27,0,1,1,.44-.11Zm-.43,1h0v0a.27.27,0,1,1,0-.25h0v0h0Zm.36,1.23a.27.27,0,0,1-.38,0,.26.26,0,0,1,0-.37.27.27,0,0,1,.26-.07H19v0A.26.26,0,0,1,18.93,110.38Zm1.68-.26v0h.18a.27.27,0,1,1-.11.44A.26.26,0,0,1,20.61,110.12Zm-.1-1.51a.86.86,0,0,1,.16.39h-.33a.52.52,0,0,0-.07-.16Zm-.18-.18-.24.24a.49.49,0,0,0-.16-.07v-.34A.87.87,0,0,1,20.33,108.43Zm-.52,1a.27.27,0,1,1,.27-.27A.27.27,0,0,1,19.8,109.4Zm-.27-1.76a.27.27,0,1,1,.53,0,.26.26,0,0,1-.14.23h-.26A.26.26,0,0,1,19.54,107.64Zm.14.63v.34a.48.48,0,0,0-.16.07l-.24-.24A.88.88,0,0,1,19.68,108.27Zm-.58.35.24.24a.53.53,0,0,0-.07.16h-.33A.86.86,0,0,1,19.1,108.61Zm0,1a.87.87,0,0,1-.16-.4h.33a.51.51,0,0,0,.07.16Zm.18.18.24-.24a.46.46,0,0,0,.16.07V110A.93.93,0,0,1,19.28,109.84Zm.79.79a.27.27,0,1,1-.39-.23h.26A.27.27,0,0,1,20.07,110.63Zm-.14-.63v-.34a.47.47,0,0,0,.16-.07l.24.24A.92.92,0,0,1,19.93,110Zm.58-.34-.24-.24a.5.5,0,0,0,.07-.16h.33A.88.88,0,0,1,20.51,109.66Zm.79-.26a.26.26,0,0,1-.23-.14v0h0v0h0v0h0a.27.27,0,1,1,.23.39Z" transform="translate(-0.01)"/><path class="cls-65" d="M127.27,84.21a.39.39,0,0,0-.37.26h-.16a1,1,0,0,0-.19-.47l.11-.11a.38.38,0,1,0-.18-.18l-.11.11a1,1,0,0,0-.47-.19v-.16a.39.39,0,0,0,.26-.37.39.39,0,0,0-.78,0,.39.39,0,0,0,.26.37v.16a1,1,0,0,0-.47.19l-.11-.11a.39.39,0,0,0-.62-.44.39.39,0,0,0,.44.62L125,84a1,1,0,0,0-.19.47h-.16a.38.38,0,0,0-.37-.26.39.39,0,1,0,.37.52h.16a1,1,0,0,0,.19.47l-.11.11a.39.39,0,1,0,.1.62.39.39,0,0,0,.08-.44l.11-.11a1,1,0,0,0,.47.2v.16a.39.39,0,1,0,.26,0v-.16a1,1,0,0,0,.47-.2l.11.11a.39.39,0,1,0,.18-.18l-.11-.11a1,1,0,0,0,.19-.47h.16a.39.39,0,1,0,.37-.52Zm-.63-.86a.26.26,0,1,1,.11.44h-.17v0A.27.27,0,0,1,126.64,83.35Zm-1.68.26v0h-.18a.27.27,0,1,1,.11-.44A.27.27,0,0,1,125,83.61Zm-.43,1h0v0h0v0h0a.27.27,0,1,1,0-.25h0v0Zm.36,1.23a.27.27,0,1,1-.11-.44h.15v0h0A.27.27,0,0,1,124.9,85.85Zm1.68-.26h.18a.27.27,0,1,1-.11.44A.27.27,0,0,1,126.58,85.58Zm-.1-1.51a.89.89,0,0,1,.16.4h-.33a.55.55,0,0,0-.07-.16Zm-.18-.18-.24.24a.53.53,0,0,0-.16-.07v-.33A.88.88,0,0,1,126.29,83.89Zm-.52,1a.27.27,0,1,1,.27-.26A.27.27,0,0,1,125.77,84.86Zm-.27-1.76a.27.27,0,0,1,.53,0,.27.27,0,0,1-.14.23h-.26A.27.27,0,0,1,125.5,83.1Zm.14.63v.33l-.16.07-.24-.24A.89.89,0,0,1,125.64,83.73Zm-.58.34.24.24a.59.59,0,0,0-.07.16h-.33A.85.85,0,0,1,125.07,84.08Zm0,1a.85.85,0,0,1-.16-.39h.33a.62.62,0,0,0,.07.16Zm.18.18.24-.24a.54.54,0,0,0,.16.07v.33A.87.87,0,0,1,125.25,85.3Zm.79.8a.27.27,0,1,1-.39-.23h.26A.27.27,0,0,1,126,86.1Zm-.14-.63v-.33a.48.48,0,0,0,.16-.07l.24.24A.86.86,0,0,1,125.9,85.46Zm.58-.34-.24-.23a.58.58,0,0,0,.07-.16h.33A.88.88,0,0,1,126.47,85.12Zm.79-.26a.26.26,0,0,1-.23-.14h0v0h0v0h0v0h0a.26.26,0,0,1,.23-.14.27.27,0,1,1,0,.53Z" transform="translate(-0.01)"/><path class="cls-65" d="M56.86,92.53a.39.39,0,0,0-.37.26h-.16a1,1,0,0,0-.2-.47l.11-.11a.39.39,0,0,0,.44-.08.39.39,0,1,0-.62-.11l-.11.11a1,1,0,0,0-.47-.19v-.16a.39.39,0,1,0-.26,0v.16a1,1,0,0,0-.47.19L54.65,92a.39.39,0,1,0-.62.11.39.39,0,0,0,.44.08l.11.11a1,1,0,0,0-.19.47h-.16a.39.39,0,1,0,0,.26h.16a1,1,0,0,0,.19.47l-.11.11a.39.39,0,1,0,.18.18l.11-.11a1,1,0,0,0,.47.2V94a.38.38,0,0,0-.26.36.39.39,0,1,0,.52-.36v-.16a1,1,0,0,0,.47-.2l.11.11a.39.39,0,1,0,.18-.18l-.11-.11a1,1,0,0,0,.2-.47h.16a.39.39,0,1,0,.37-.51Zm-.63-.86a.27.27,0,0,1,.38,0,.26.26,0,0,1,0,.37.26.26,0,0,1-.26.07h-.18A.27.27,0,0,1,56.23,91.66Zm-1.68.26v0h-.18a.26.26,0,0,1-.26-.07.27.27,0,1,1,.44-.11Zm-.43,1h0a.27.27,0,1,1,0-.26h0v0h0v0Zm.36,1.23a.27.27,0,0,1-.38-.37.26.26,0,0,1,.26-.07h.18v0A.27.27,0,0,1,54.49,94.16Zm1.68-.26v0h.18a.27.27,0,0,1,.26.44.27.27,0,0,1-.44-.26Zm-.1-1.51a.86.86,0,0,1,.16.39h-.33a.55.55,0,0,0-.07-.16Zm-.18-.18-.24.24-.16-.07V92A.86.86,0,0,1,55.88,92.21Zm-.52,1a.27.27,0,1,1,.27-.27A.27.27,0,0,1,55.36,93.18Zm-.27-1.77a.27.27,0,1,1,.39.23h-.26A.27.27,0,0,1,55.09,91.41Zm.14.63v.33l-.16.07-.24-.24A.87.87,0,0,1,55.23,92Zm-.58.34.24.23a.61.61,0,0,0-.07.16h-.33A.85.85,0,0,1,54.66,92.39Zm0,1a.87.87,0,0,1-.16-.39h.33a.53.53,0,0,0,.07.16Zm.18.18.24-.24a.49.49,0,0,0,.16.07v.33A.87.87,0,0,1,54.84,93.62Zm.79.79a.27.27,0,1,1-.39-.23h.26A.27.27,0,0,1,55.63,94.41Zm-.14-.63v-.33a.48.48,0,0,0,.16-.07l.24.24A.87.87,0,0,1,55.49,93.78Zm.58-.34-.24-.24a.48.48,0,0,0,.07-.16h.33A.88.88,0,0,1,56.06,93.43Zm.8-.26a.27.27,0,0,1-.23-.14h0v0h0v0h0a.27.27,0,1,1,.23.39Z" transform="translate(-0.01)"/><path class="cls-65" d="M66.17,132.54a.39.39,0,0,0-.37.26h-.16a1,1,0,0,0-.19-.47l.11-.11a.39.39,0,1,0-.18-.18l-.11.11a1,1,0,0,0-.47-.2v-.16a.39.39,0,1,0-.26,0V132a1,1,0,0,0-.47.2L64,132a.39.39,0,1,0-.18.18l.11.11a1,1,0,0,0-.19.47h-.16a.39.39,0,1,0,0,.26h.16a1,1,0,0,0,.19.47l-.11.11a.39.39,0,0,0-.44.08.39.39,0,1,0,.63.1l.11-.11a1,1,0,0,0,.47.2v.16a.39.39,0,1,0,.26,0v-.16a1,1,0,0,0,.47-.2l.11.11a.39.39,0,1,0,.18-.18l-.11-.11a1,1,0,0,0,.19-.47h.16a.39.39,0,1,0,.37-.51Zm-.63-.86a.27.27,0,0,1,.38.38.26.26,0,0,1-.26.07h-.18v0A.27.27,0,0,1,65.54,131.68Zm-1.68.26v0h-.18a.27.27,0,0,1-.26-.44.27.27,0,0,1,.44.26Zm-.43,1h0v0h0a.26.26,0,0,1-.23.14.27.27,0,1,1,.23-.39v0h0v0Zm.36,1.23a.27.27,0,1,1-.38-.38.26.26,0,0,1,.26-.07h.18A.27.27,0,0,1,63.8,134.18Zm1.68-.26h.18a.26.26,0,0,1,.26.07.27.27,0,1,1-.44.11Zm-.1-1.51a.87.87,0,0,1,.16.39h-.33a.53.53,0,0,0-.06-.16Zm-.18-.18-.24.24a.53.53,0,0,0-.16-.06v-.33A.87.87,0,0,1,65.2,132.23Zm-.52,1a.27.27,0,1,1,.27-.27A.27.27,0,0,1,64.67,133.2Zm-.27-1.77a.27.27,0,1,1,.39.23h-.26A.26.26,0,0,1,64.41,131.43Zm.14.63v.33a.53.53,0,0,0-.16.06l-.24-.24A.88.88,0,0,1,64.55,132.06Zm-.58.34.24.24a.57.57,0,0,0-.06.16h-.33A.87.87,0,0,1,64,132.41Zm0,1a.86.86,0,0,1-.16-.39h.33a.58.58,0,0,0,.06.16Zm.18.18.24-.24.16.07v.33A.88.88,0,0,1,64.15,133.63Zm.79.8a.27.27,0,0,1-.53,0,.26.26,0,0,1,.14-.23h.26A.26.26,0,0,1,64.94,134.43Zm-.14-.63v-.33l.16-.07.24.24A.87.87,0,0,1,64.8,133.79Zm.58-.34-.24-.23a.54.54,0,0,0,.06-.16h.33A.87.87,0,0,1,65.38,133.45Zm.79-.26a.26.26,0,0,1-.23-.14h0v0h0v0h0v0a.27.27,0,1,1,.23.39Z" transform="translate(-0.01)"/><path class="cls-65" d="M30.66,114.16a.39.39,0,0,0-.37.26h-.16a1,1,0,0,0-.19-.47l.11-.11a.39.39,0,0,0,.44-.62.39.39,0,0,0-.62.44l-.11.11a1,1,0,0,0-.47-.19v-.16a.39.39,0,0,0-.13-.75.39.39,0,0,0-.13.75v.16a1,1,0,0,0-.47.19l-.11-.11a.39.39,0,1,0-.62.1.39.39,0,0,0,.44.08l.11.11a1,1,0,0,0-.19.47H28a.39.39,0,1,0,0,.26h.16a1,1,0,0,0,.19.47l-.11.11a.39.39,0,1,0,.18.18l.11-.11a1,1,0,0,0,.47.2v.16a.39.39,0,1,0,.26,0v-.16a1,1,0,0,0,.47-.2l.11.11a.39.39,0,1,0,.18-.18l-.11-.11a1,1,0,0,0,.19-.47h.16a.39.39,0,1,0,.37-.52ZM30,113.3a.27.27,0,0,1,.38.38.27.27,0,0,1-.26.07H30v0A.26.26,0,0,1,30,113.3Zm-1.68.26v0h-.18a.26.26,0,0,1-.26-.44.27.27,0,0,1,.44.26Zm-.43,1h0v0h0a.27.27,0,1,1,0-.26h0v0h0v0Zm.36,1.23a.26.26,0,0,1-.38,0,.27.27,0,0,1,.26-.44h.15v0h0A.26.26,0,0,1,28.29,115.79Zm1.68-.26h0v0h.15a.27.27,0,0,1,.26.44.26.26,0,0,1-.44-.26Zm-.1-1.51a.87.87,0,0,1,.16.39h-.33a.54.54,0,0,0-.07-.16Zm-.18-.18-.24.24a.53.53,0,0,0-.16-.07v-.33A.87.87,0,0,1,29.68,113.84Zm-.52,1a.27.27,0,1,1,.27-.26A.27.27,0,0,1,29.16,114.81ZM28.89,113a.27.27,0,1,1,.39.23H29A.26.26,0,0,1,28.89,113Zm.14.63V114a.55.55,0,0,0-.16.07l-.24-.24A.86.86,0,0,1,29,113.68Zm-.58.35.24.23a.55.55,0,0,0-.07.16h-.33A.88.88,0,0,1,28.46,114Zm0,1a.89.89,0,0,1-.16-.4h.33a.55.55,0,0,0,.07.16Zm.18.18.24-.24a.54.54,0,0,0,.16.07v.33A.87.87,0,0,1,28.64,115.25Zm.79.8a.27.27,0,1,1-.53,0,.26.26,0,0,1,.14-.23h.26A.26.26,0,0,1,29.43,116Zm-.14-.63v-.33a.52.52,0,0,0,.16-.07l.24.24A.88.88,0,0,1,29.29,115.41Zm.57-.34-.24-.24a.54.54,0,0,0,.07-.16H30A.88.88,0,0,1,29.86,115.07Zm.8-.26a.27.27,0,0,1-.23-.14h0v0h0v0h0v0h0a.27.27,0,1,1,.23.39Z" transform="translate(-0.01)"/></g></g></svg>