<svg xmlns="http://www.w3.org/2000/svg" xmlns:xlink="http://www.w3.org/1999/xlink" viewBox="0 0 151.72 80.64"><defs><style>.cls-1{fill:url(#radial-gradient);}.cls-2{fill:url(#radial-gradient-2);}.cls-3{fill:url(#radial-gradient-3);}.cls-4{fill:url(#radial-gradient-4);}.cls-5{fill:url(#radial-gradient-5);}.cls-6{fill:url(#radial-gradient-6);}.cls-7{fill:url(#radial-gradient-7);}.cls-8{fill:url(#radial-gradient-8);}.cls-9{fill:url(#radial-gradient-9);}.cls-10{fill:url(#radial-gradient-10);}.cls-11{fill:url(#radial-gradient-11);}.cls-12{fill:url(#radial-gradient-12);}</style><radialGradient id="radial-gradient" cx="95.12" cy="-1816.76" r="95.12" gradientTransform="translate(0 1622) scale(1 0.84)" gradientUnits="userSpaceOnUse"><stop offset="0" stop-color="#fff"/><stop offset="1" stop-color="#fff" stop-opacity="0"/></radialGradient><radialGradient id="radial-gradient-2" cx="-9050.25" cy="4758.5" r="119.53" gradientTransform="matrix(0, 0.67, -1, 0, 4910.05, 6212.54)" xlink:href="#radial-gradient"/><radialGradient id="radial-gradient-3" cx="17411.05" cy="18.6" r="89.72" gradientTransform="matrix(0.64, 0, 0, 1.04, -10965.65, 106.74)" xlink:href="#radial-gradient"/><radialGradient id="radial-gradient-4" cx="95.12" cy="-1816.76" r="95.12" gradientTransform="translate(0 1622) scale(1 0.84)" gradientUnits="userSpaceOnUse"><stop offset="0" stop-color="#58595b"/><stop offset="0.23" stop-color="#595a5c" stop-opacity="0.96"/><stop offset="0.44" stop-color="#5b5c5e" stop-opacity="0.84"/><stop offset="0.63" stop-color="#5f6062" stop-opacity="0.65"/><stop offset="0.81" stop-color="#656668" stop-opacity="0.37"/><stop offset="0.99" stop-color="#6d6e70" stop-opacity="0.01"/><stop offset="1" stop-color="#6d6e70" stop-opacity="0"/></radialGradient><radialGradient id="radial-gradient-5" cx="-9050.25" cy="4758.5" r="119.53" gradientTransform="matrix(0, 0.67, -1, 0, 4910.04, 6212.54)" xlink:href="#radial-gradient-4"/><radialGradient id="radial-gradient-6" cx="17411.05" cy="18.6" r="89.72" gradientTransform="matrix(0.64, 0, 0, 1.04, -10965.65, 106.73)" xlink:href="#radial-gradient-4"/><radialGradient id="radial-gradient-7" cx="95.12" cy="-1816.76" r="95.12" gradientTransform="translate(0 1622) scale(1 0.84)" gradientUnits="userSpaceOnUse"><stop offset="0" stop-color="#bbbdbf"/><stop offset="0.17" stop-color="#bcbec0" stop-opacity="0.98"/><stop offset="0.31" stop-color="#bec0c2" stop-opacity="0.93"/><stop offset="0.45" stop-color="#c2c4c6" stop-opacity="0.83"/><stop offset="0.58" stop-color="#c8cacb" stop-opacity="0.7"/><stop offset="0.71" stop-color="#cfd1d2" stop-opacity="0.53"/><stop offset="0.84" stop-color="#d8dadb" stop-opacity="0.32"/><stop offset="0.97" stop-color="#e3e4e5" stop-opacity="0.07"/><stop offset="1" stop-color="#e6e7e8" stop-opacity="0"/></radialGradient><radialGradient id="radial-gradient-8" cx="-9050.25" cy="4758.5" r="119.53" gradientTransform="matrix(0, 0.67, -1, 0, 4910.04, 6212.54)" xlink:href="#radial-gradient-7"/><radialGradient id="radial-gradient-9" cx="17411.05" cy="18.6" r="89.72" gradientTransform="matrix(0.64, 0, 0, 1.04, -10965.65, 106.73)" xlink:href="#radial-gradient-7"/><radialGradient id="radial-gradient-10" cx="68.47" cy="-1844.62" r="68.47" gradientTransform="translate(0 1617.18) scale(1 0.84)" gradientUnits="userSpaceOnUse"><stop offset="0"/><stop offset="1" stop-opacity="0"/></radialGradient><radialGradient id="radial-gradient-11" cx="-9094.4" cy="4728.06" r="86.04" gradientTransform="matrix(0, 0.67, -1, 0, 4837.09, 6210.96)" xlink:href="#radial-gradient-10"/><radialGradient id="radial-gradient-12" cx="17327.52" cy="-18.19" r="64.58" gradientTransform="matrix(0.64, 0, 0, 1.04, -10970.6, 137.77)" xlink:href="#radial-gradient-10"/><symbol id="New_Symbol" data-name="New Symbol" viewBox="0 0 257.01 223.64"><ellipse class="cls-1" cx="95.12" cy="100.46" rx="95.12" ry="79.67"/><ellipse class="cls-2" cx="151.78" cy="111.82" rx="119.53" ry="80.57" transform="translate(-19.1 191.45) rotate(-61.36)"/><ellipse class="cls-3" cx="167.61" cy="125.74" rx="57.37" ry="93.72" transform="translate(-12.47 232.87) rotate(-67.62)"/></symbol><symbol id="New_Symbol_2" data-name="New Symbol 2" viewBox="0 0 257.01 223.64"><ellipse class="cls-7" cx="95.12" cy="100.46" rx="95.12" ry="79.67"/><ellipse class="cls-8" cx="151.78" cy="111.82" rx="119.53" ry="80.57" transform="translate(-19.1 191.45) rotate(-61.36)"/><ellipse class="cls-9" cx="167.61" cy="125.74" rx="57.37" ry="93.72" transform="translate(-12.47 232.87) rotate(-67.62)"/></symbol><symbol id="New_Symbol_3" data-name="New Symbol 3" viewBox="0 0 174.77 164.37"><ellipse class="cls-10" cx="68.47" cy="72.31" rx="68.47" ry="57.35"/><ellipse class="cls-11" cx="109.26" cy="80.49" rx="86.04" ry="58" transform="translate(-13.75 137.81) rotate(-61.36)"/><ellipse class="cls-12" cx="109.26" cy="118.34" rx="41.3" ry="67.46" transform="translate(-41.76 174.32) rotate(-67.62)"/></symbol></defs><title>Ресурс 17weather</title><g id="Слой_2" data-name="Слой 2"><g id="Layer_2" data-name="Layer 2"><use width="257.01" height="223.64" transform="matrix(-0.11, -0.01, 0, -0.16, 70.64, 51.26)" xlink:href="#New_Symbol"/><use width="257.01" height="223.64" transform="matrix(-0.11, -0.01, 0, -0.16, 58.28, 48.68)" xlink:href="#New_Symbol"/><use width="257.01" height="223.64" transform="matrix(-0.11, -0.01, 0, -0.16, 53.89, 46.39)" xlink:href="#New_Symbol"/><use width="257.01" height="223.64" transform="matrix(-0.11, -0.01, 0, -0.16, 49.07, 47.94)" xlink:href="#New_Symbol"/><use width="257.01" height="223.64" transform="matrix(-0.16, -0.02, 0, -0.23, 102.18, 66.45)" xlink:href="#New_Symbol"/><use width="257.01" height="223.64" transform="matrix(-0.16, -0.02, 0, -0.23, 84.66, 62.79)" xlink:href="#New_Symbol"/><use width="257.01" height="223.64" transform="matrix(-0.16, -0.02, 0, -0.23, 78.43, 59.54)" xlink:href="#New_Symbol"/><use width="257.01" height="223.64" transform="matrix(-0.16, -0.02, 0, -0.23, 71.59, 61.76)" xlink:href="#New_Symbol"/><use width="257.01" height="223.64" transform="matrix(-0.17, -0.02, 0, -0.15, 131.06, 49.95)" xlink:href="#New_Symbol_2"/><use width="257.01" height="223.64" transform="matrix(-0.17, -0.02, 0, -0.15, 98.54, 37)" xlink:href="#New_Symbol_2"/><use width="257.01" height="223.64" transform="matrix(-0.17, -0.02, 0, -0.15, 70.86, 49.79)" xlink:href="#New_Symbol_2"/><use width="257.01" height="223.64" transform="matrix(-0.17, -0.02, 0, -0.15, 81.21, 42.74)" xlink:href="#New_Symbol_2"/><use width="257.01" height="223.64" transform="matrix(-0.17, -0.02, 0, -0.19, 151.72, 57.49)" xlink:href="#New_Symbol_2"/><use width="257.01" height="223.64" transform="matrix(-0.17, -0.02, 0, -0.19, 97.49, 58.71)" xlink:href="#New_Symbol_2"/><use width="257.01" height="223.64" transform="matrix(0.12, 0.02, 0, 0.19, 0, 10.12)" xlink:href="#New_Symbol_2"/><use width="257.01" height="223.64" transform="matrix(0.12, 0.02, 0, 0.19, 39.96, 8.89)" xlink:href="#New_Symbol_2"/><use width="257.01" height="223.64" transform="translate(9.53 38.96) scale(0.18 0.12)" xlink:href="#New_Symbol"/><use width="257.01" height="223.64" transform="translate(29.25 39.84) scale(0.18 0.12)" xlink:href="#New_Symbol"/><use width="257.01" height="223.64" transform="translate(36.25 41.2) scale(0.18 0.12)" xlink:href="#New_Symbol"/><use width="257.01" height="223.64" transform="translate(43.95 39.57) scale(0.18 0.12)" xlink:href="#New_Symbol"/><use width="257.01" height="223.64" transform="translate(83.47 28.69) scale(0.12 0.16)" xlink:href="#New_Symbol"/><use width="257.01" height="223.64" transform="translate(97.23 29.84) scale(0.12 0.16)" xlink:href="#New_Symbol"/><use width="257.01" height="223.64" transform="translate(102.12 31.62) scale(0.12 0.16)" xlink:href="#New_Symbol"/><use width="257.01" height="223.64" transform="translate(107.49 29.5) scale(0.12 0.16)" xlink:href="#New_Symbol"/><use width="257.01" height="223.64" transform="translate(48.36 17.17) scale(0.17 0.23)" xlink:href="#New_Symbol"/><use width="257.01" height="223.64" transform="translate(67.87 18.79) scale(0.17 0.23)" xlink:href="#New_Symbol"/><use width="257.01" height="223.64" transform="translate(74.8 21.31) scale(0.17 0.23)" xlink:href="#New_Symbol"/><use width="257.01" height="223.64" transform="translate(82.42 18.31) scale(0.17 0.23)" xlink:href="#New_Symbol"/><use width="257.01" height="223.64" transform="translate(41.16 52.13) scale(0.12 0.11)" xlink:href="#New_Symbol"/><use width="257.01" height="223.64" transform="translate(54.74 52.92) scale(0.12 0.11)" xlink:href="#New_Symbol"/><use width="257.01" height="223.64" transform="translate(59.56 54.16) scale(0.12 0.11)" xlink:href="#New_Symbol"/><use width="257.01" height="223.64" transform="translate(64.86 52.69) scale(0.12 0.11)" xlink:href="#New_Symbol"/><use width="257.01" height="223.64" transform="translate(57.27 55.44) rotate(180) scale(0.09 0.14)" xlink:href="#New_Symbol"/><use width="257.01" height="223.64" transform="translate(47.72 54.48) rotate(180) scale(0.09 0.14)" xlink:href="#New_Symbol"/><use width="257.01" height="223.64" transform="translate(44.33 52.98) rotate(180) scale(0.09 0.14)" xlink:href="#New_Symbol"/><use width="257.01" height="223.64" transform="translate(40.6 54.77) rotate(180) scale(0.09 0.14)" xlink:href="#New_Symbol"/><use width="257.01" height="223.64" transform="translate(52.9 61.25) scale(0.12 0.04)" xlink:href="#New_Symbol"/><use width="257.01" height="223.64" transform="translate(16.22 37.04) scale(0.19 0.15)" xlink:href="#New_Symbol_2"/><use width="257.01" height="223.64" transform="translate(52.41 46.2) scale(0.19 0.15)" xlink:href="#New_Symbol_2"/><use width="257.01" height="223.64" transform="translate(83.22 30.19) scale(0.19 0.15)" xlink:href="#New_Symbol_2"/><use width="257.01" height="223.64" transform="translate(71.7 38.44) scale(0.19 0.15)" xlink:href="#New_Symbol_2"/><use width="257.01" height="223.64" transform="translate(60.88 38.87) scale(0.18)" xlink:href="#New_Symbol_2"/><use width="257.01" height="223.64" transform="translate(55.61 32.05) scale(0.18)" xlink:href="#New_Symbol_2"/><use width="257.01" height="223.64" transform="translate(39.02 35.8) scale(0.17 0.16)" xlink:href="#New_Symbol_2"/><use width="257.01" height="223.64" transform="translate(93.32 29.3) scale(0.17 0.16)" xlink:href="#New_Symbol_2"/><use width="257.01" height="223.64" transform="translate(14.24 27.7) scale(0.19)" xlink:href="#New_Symbol_2"/><use width="257.01" height="223.64" transform="translate(74.6 20.15) scale(0.19)" xlink:href="#New_Symbol_2"/><use width="174.77" height="164.37" transform="translate(11.28 39.22) scale(0.31 0.14)" xlink:href="#New_Symbol_3"/><use width="257.01" height="223.64" transform="translate(51.45 44.43) scale(0.13 0.15)" xlink:href="#New_Symbol"/><use width="257.01" height="223.64" transform="translate(66.36 45.47) scale(0.13 0.15)" xlink:href="#New_Symbol"/><use width="257.01" height="223.64" transform="translate(71.65 47.08) scale(0.13 0.15)" xlink:href="#New_Symbol"/><use width="257.01" height="223.64" transform="translate(77.47 45.16) scale(0.13 0.15)" xlink:href="#New_Symbol"/><use width="174.77" height="164.37" transform="translate(66.75 31.43) scale(0.45 0.25)" xlink:href="#New_Symbol_3"/></g></g></svg>