<svg xmlns="http://www.w3.org/2000/svg" xmlns:xlink="http://www.w3.org/1999/xlink" viewBox="0 0 90.95 90.95"><defs><style>.cls-1{fill:url(#radial-gradient);}.cls-2{fill:url(#linear-gradient);}.cls-3{fill:url(#linear-gradient-2);}.cls-4{mask:url(#mask);}.cls-5{fill:#ffe9e0;}.cls-6{mask:url(#mask-2);}.cls-7{fill:#ffdd15;}.cls-8{mask:url(#mask-3);}.cls-9{fill:#ffe862;}.cls-10{fill:#ffed81;}</style><radialGradient id="radial-gradient" cx="45.47" cy="45.47" r="45.47" gradientUnits="userSpaceOnUse"><stop offset="0" stop-color="#806f0b"/><stop offset="0.16" stop-color="#7b6b0b"/><stop offset="0.34" stop-color="#6e5f09"/><stop offset="0.53" stop-color="#584c08"/><stop offset="0.73" stop-color="#393105"/><stop offset="0.93" stop-color="#110f01"/><stop offset="1"/></radialGradient><linearGradient id="linear-gradient" x1="17.62" y1="45.47" x2="73.33" y2="45.47" gradientUnits="userSpaceOnUse"><stop offset="0" stop-color="#6d6e70"/><stop offset="0.28" stop-color="#525354"/><stop offset="0.89" stop-color="#0d0d0d"/><stop offset="1"/></linearGradient><linearGradient id="linear-gradient-2" x1="18.74" y1="45.47" x2="45.48" y2="45.47" gradientUnits="userSpaceOnUse"><stop offset="0" stop-color="#fff"/><stop offset="1" stop-color="#404041"/></linearGradient><mask id="mask" x="0" y="0" width="90.95" height="90.95" maskUnits="userSpaceOnUse"><circle class="cls-1" cx="45.47" cy="45.47" r="45.47"/></mask><mask id="mask-2" x="17.62" y="17.62" width="55.71" height="55.71" maskUnits="userSpaceOnUse"><circle class="cls-2" cx="45.47" cy="45.47" r="27.86"/></mask><mask id="mask-3" x="18.74" y="18.74" width="26.73" height="53.46" maskUnits="userSpaceOnUse"><path class="cls-3" d="M45.48,72.21a26.73,26.73,0,1,1,0-53.46C31.74,32.48,32.1,58.83,45.48,72.21Z"/></mask></defs><title>Ресурс 4weather</title><g id="Слой_2" data-name="Слой 2"><g id="Layer_2" data-name="Layer 2"><g class="cls-4"><circle class="cls-5" cx="45.47" cy="45.47" r="45.47"/></g><g class="cls-6"><circle class="cls-7" cx="45.47" cy="45.47" r="27.86"/></g><g class="cls-8"><path class="cls-9" d="M45.48,72.21a26.73,26.73,0,1,1,0-53.46C31.49,32.73,31.85,58.58,45.48,72.21Z"/></g><path class="cls-10" d="M21.94,46.7c0-23.3,16.25-27.1,20.63-27.1C30.05,19.6,19.9,30.74,19.9,44.48A25.82,25.82,0,0,0,28.2,63.71C25,59.42,21.94,52.69,21.94,46.7Z"/></g></g></svg>