<svg xmlns="http://www.w3.org/2000/svg" xmlns:xlink="http://www.w3.org/1999/xlink" viewBox="0 0 150.94 150.94"><defs><style>.cls-1{fill:url(#radial-gradient);}.cls-2{fill:url(#radial-gradient-2);}.cls-3{fill:url(#linear-gradient);}.cls-4{fill:url(#linear-gradient-2);}.cls-5{fill:url(#radial-gradient-3);}.cls-6{fill:url(#radial-gradient-4);}.cls-7{fill:url(#radial-gradient-5);}.cls-8{fill:url(#radial-gradient-6);}.cls-9{fill:url(#radial-gradient-7);}.cls-10{fill:url(#radial-gradient-8);}.cls-11{fill:url(#radial-gradient-9);}.cls-12{fill:url(#radial-gradient-10);}.cls-13{fill:url(#radial-gradient-11);}.cls-14{fill:url(#radial-gradient-12);}.cls-15{fill:url(#radial-gradient-13);}.cls-16{fill:url(#radial-gradient-14);}.cls-17{fill:url(#radial-gradient-15);}.cls-18{isolation:isolate;}.cls-19{mask:url(#mask);}.cls-20{fill:#1b75bb;}.cls-21{fill:url(#linear-gradient-3);}.cls-22{fill:url(#linear-gradient-4);}.cls-23{fill:url(#linear-gradient-5);}.cls-24{fill:url(#linear-gradient-6);}.cls-25{fill:url(#linear-gradient-7);}.cls-26{fill:url(#linear-gradient-8);}.cls-27{fill:url(#linear-gradient-9);}.cls-28{fill:url(#linear-gradient-10);}.cls-29{fill:url(#linear-gradient-11);}.cls-30{fill:url(#linear-gradient-12);}.cls-31{fill:url(#linear-gradient-13);}.cls-32{fill:url(#linear-gradient-14);}.cls-33{fill:url(#linear-gradient-15);}.cls-34{fill:url(#linear-gradient-16);}.cls-35{fill:url(#linear-gradient-17);}.cls-36{fill:url(#linear-gradient-18);}.cls-37{fill:url(#linear-gradient-19);}.cls-38{fill:url(#linear-gradient-20);}.cls-39{fill:url(#linear-gradient-21);}.cls-40{fill:url(#linear-gradient-22);}.cls-41{fill:url(#linear-gradient-23);}.cls-42{fill:url(#linear-gradient-24);}.cls-43{fill:url(#linear-gradient-25);}.cls-44{fill:url(#linear-gradient-26);}.cls-45{fill:url(#linear-gradient-27);}.cls-46{fill:url(#linear-gradient-28);}.cls-47{fill:url(#linear-gradient-29);}.cls-48{fill:url(#linear-gradient-30);}.cls-49{fill:url(#linear-gradient-31);}.cls-50{fill:url(#linear-gradient-32);}.cls-51{fill:url(#linear-gradient-33);}.cls-52{fill:url(#linear-gradient-34);}.cls-53{fill:url(#linear-gradient-35);}.cls-54{fill:url(#linear-gradient-36);}.cls-55{fill:url(#linear-gradient-37);}.cls-56{fill:url(#linear-gradient-38);}.cls-57{fill:url(#linear-gradient-39);}.cls-58{fill:url(#linear-gradient-40);}.cls-59{fill:url(#linear-gradient-41);}.cls-60{fill:url(#linear-gradient-42);}.cls-61{fill:url(#linear-gradient-43);}.cls-62{fill:url(#linear-gradient-44);}.cls-63{fill:url(#linear-gradient-45);}.cls-64{fill:url(#linear-gradient-46);}.cls-65{fill:url(#linear-gradient-47);}.cls-66{fill:url(#linear-gradient-48);}.cls-67{fill:url(#linear-gradient-49);}.cls-68{fill:url(#linear-gradient-50);}.cls-69{fill:url(#linear-gradient-51);}.cls-70{fill:url(#linear-gradient-52);}.cls-71{fill:url(#linear-gradient-53);}.cls-72{fill:url(#linear-gradient-54);}.cls-73{fill:url(#linear-gradient-55);}.cls-74{fill:url(#linear-gradient-56);}.cls-75{fill:url(#linear-gradient-57);}.cls-76{fill:url(#linear-gradient-58);}.cls-77{fill:url(#linear-gradient-59);}.cls-78{fill:url(#linear-gradient-60);}.cls-79{fill:url(#linear-gradient-61);}.cls-80{fill:url(#linear-gradient-62);}.cls-81{fill:url(#linear-gradient-63);}.cls-82{fill:url(#linear-gradient-64);}.cls-83{fill:url(#linear-gradient-65);}.cls-84{fill:url(#linear-gradient-66);}.cls-85{fill:url(#linear-gradient-67);}.cls-86{fill:url(#linear-gradient-68);}.cls-87{fill:url(#linear-gradient-69);}.cls-88{fill:url(#linear-gradient-70);}.cls-89{fill:url(#linear-gradient-71);}.cls-90{fill:url(#linear-gradient-72);}.cls-91{fill:url(#linear-gradient-73);}.cls-92{fill:url(#linear-gradient-74);}.cls-93{fill:url(#linear-gradient-75);}.cls-94{fill:url(#linear-gradient-76);}.cls-95{fill:url(#linear-gradient-77);}.cls-96{fill:url(#linear-gradient-78);}.cls-97{fill:url(#linear-gradient-79);}.cls-98{fill:url(#linear-gradient-80);}.cls-99{fill:url(#linear-gradient-81);}.cls-100{fill:url(#linear-gradient-82);}.cls-101{fill:url(#linear-gradient-83);}.cls-102{fill:url(#linear-gradient-84);}.cls-103{fill:url(#linear-gradient-85);}.cls-104{fill:url(#linear-gradient-86);}.cls-105{fill:url(#linear-gradient-87);}.cls-106{fill:url(#linear-gradient-88);}.cls-107{fill:url(#linear-gradient-89);}.cls-108{fill:url(#linear-gradient-90);}.cls-109{fill:url(#linear-gradient-91);}.cls-110{fill:url(#linear-gradient-92);}.cls-111{mask:url(#mask-2);}.cls-112{fill:#ffdd15;}.cls-113{fill:url(#radial-gradient-16);}.cls-114{mask:url(#mask-3);}.cls-115{fill:#fff;}.cls-116{mask:url(#mask-4);}.cls-117{fill:#fff8d0;mix-blend-mode:hard-light;}.cls-118{mask:url(#mask-5);}.cls-119{fill:url(#radial-gradient-17);}</style><radialGradient id="radial-gradient" cx="75.47" cy="75.47" r="75.47" gradientUnits="userSpaceOnUse"><stop offset="0" stop-color="#fff"/><stop offset="0.16" stop-color="#ddd"/><stop offset="0.51" stop-color="#858585"/><stop offset="1"/></radialGradient><radialGradient id="radial-gradient-2" cx="69.76" cy="58.97" r="34.09" gradientUnits="userSpaceOnUse"><stop offset="0" stop-color="#fff"/><stop offset="0.18" stop-color="#fcfcfc"/><stop offset="0.32" stop-color="#f3f3f3"/><stop offset="0.43" stop-color="#e3e3e3"/><stop offset="0.54" stop-color="#cdcdcd"/><stop offset="0.64" stop-color="#b0b0b0"/><stop offset="0.74" stop-color="#8c8c8c"/><stop offset="0.83" stop-color="#626262"/><stop offset="0.92" stop-color="#333"/><stop offset="1"/></radialGradient><linearGradient id="linear-gradient" x1="82.21" y1="71.64" x2="87.78" y2="77.21" gradientUnits="userSpaceOnUse"><stop offset="0.31"/><stop offset="0.4" stop-color="#101010"/><stop offset="0.59" stop-color="#38393a"/><stop offset="0.84" stop-color="#797a7d"/><stop offset="1" stop-color="#a6a8ab"/></linearGradient><linearGradient id="linear-gradient-2" x1="698.51" y1="74.89" x2="717.18" y2="47.33" gradientTransform="matrix(1.1, 0, 0, 0.75, -718.84, 3.15)" gradientUnits="userSpaceOnUse"><stop offset="0" stop-color="#231f20"/><stop offset="1" stop-color="#fff"/></linearGradient><radialGradient id="radial-gradient-3" cx="69.76" cy="59.05" r="38.81" gradientUnits="userSpaceOnUse"><stop offset="0" stop-color="#fff"/><stop offset="0.14" stop-color="#fbfbfb"/><stop offset="0.27" stop-color="#efefef"/><stop offset="0.4" stop-color="#dcdbdb"/><stop offset="0.54" stop-color="#c0bfc0"/><stop offset="0.67" stop-color="#9d9b9c"/><stop offset="0.8" stop-color="#726f70"/><stop offset="0.93" stop-color="#3f3c3d"/><stop offset="1" stop-color="#231f20"/></radialGradient><radialGradient id="radial-gradient-4" cx="95.12" cy="-1816.76" r="95.12" gradientTransform="translate(0 1622) scale(1 0.84)" gradientUnits="userSpaceOnUse"><stop offset="0" stop-color="#fff"/><stop offset="1" stop-color="#fff" stop-opacity="0"/></radialGradient><radialGradient id="radial-gradient-5" cx="-9050.25" cy="4758.5" r="119.53" gradientTransform="matrix(0, 0.67, -1, 0, 4910.05, 6212.54)" xlink:href="#radial-gradient-4"/><radialGradient id="radial-gradient-6" cx="17411.05" cy="18.6" r="89.72" gradientTransform="matrix(0.64, 0, 0, 1.04, -10965.65, 106.74)" xlink:href="#radial-gradient-4"/><radialGradient id="radial-gradient-7" cx="95.12" cy="-1816.76" r="95.12" gradientTransform="translate(0 1622) scale(1 0.84)" gradientUnits="userSpaceOnUse"><stop offset="0" stop-color="#58595b"/><stop offset="0.23" stop-color="#595a5c" stop-opacity="0.96"/><stop offset="0.44" stop-color="#5b5c5e" stop-opacity="0.84"/><stop offset="0.63" stop-color="#5f6062" stop-opacity="0.65"/><stop offset="0.81" stop-color="#656668" stop-opacity="0.37"/><stop offset="0.99" stop-color="#6d6e70" stop-opacity="0.01"/><stop offset="1" stop-color="#6d6e70" stop-opacity="0"/></radialGradient><radialGradient id="radial-gradient-8" cx="-9050.25" cy="4758.5" r="119.53" gradientTransform="matrix(0, 0.67, -1, 0, 4910.04, 6212.54)" xlink:href="#radial-gradient-7"/><radialGradient id="radial-gradient-9" cx="17411.05" cy="18.6" r="89.72" gradientTransform="matrix(0.64, 0, 0, 1.04, -10965.65, 106.73)" xlink:href="#radial-gradient-7"/><radialGradient id="radial-gradient-10" cx="95.12" cy="-1816.76" r="95.12" gradientTransform="translate(0 1622) scale(1 0.84)" gradientUnits="userSpaceOnUse"><stop offset="0" stop-color="#bbbdbf"/><stop offset="0.17" stop-color="#bcbec0" stop-opacity="0.98"/><stop offset="0.31" stop-color="#bec0c2" stop-opacity="0.93"/><stop offset="0.45" stop-color="#c2c4c6" stop-opacity="0.83"/><stop offset="0.58" stop-color="#c8cacb" stop-opacity="0.7"/><stop offset="0.71" stop-color="#cfd1d2" stop-opacity="0.53"/><stop offset="0.84" stop-color="#d8dadb" stop-opacity="0.32"/><stop offset="0.97" stop-color="#e3e4e5" stop-opacity="0.07"/><stop offset="1" stop-color="#e6e7e8" stop-opacity="0"/></radialGradient><radialGradient id="radial-gradient-11" cx="-9050.25" cy="4758.5" r="119.53" gradientTransform="matrix(0, 0.67, -1, 0, 4910.04, 6212.54)" xlink:href="#radial-gradient-10"/><radialGradient id="radial-gradient-12" cx="17411.05" cy="18.6" r="89.72" gradientTransform="matrix(0.64, 0, 0, 1.04, -10965.65, 106.73)" xlink:href="#radial-gradient-10"/><radialGradient id="radial-gradient-13" cx="68.47" cy="-1844.62" r="68.47" gradientTransform="translate(0 1617.18) scale(1 0.84)" gradientUnits="userSpaceOnUse"><stop offset="0"/><stop offset="1" stop-opacity="0"/></radialGradient><radialGradient id="radial-gradient-14" cx="-9094.4" cy="4728.06" r="86.04" gradientTransform="matrix(0, 0.67, -1, 0, 4837.09, 6210.96)" xlink:href="#radial-gradient-13"/><radialGradient id="radial-gradient-15" cx="17327.52" cy="-18.19" r="64.58" gradientTransform="matrix(0.64, 0, 0, 1.04, -10970.6, 137.77)" xlink:href="#radial-gradient-13"/><mask id="mask" x="0" y="0" width="150.94" height="150.94" maskUnits="userSpaceOnUse"><circle class="cls-1" cx="75.47" cy="75.47" r="75.47"/></mask><linearGradient id="linear-gradient-3" x1="-4298.66" y1="1903.2" x2="-4294.63" y2="1907.23" gradientTransform="matrix(-0.71, 0.71, 0.8, 0.66, -4503.38, 1872.66)" gradientUnits="userSpaceOnUse"><stop offset="0" stop-color="#26a9e0"/><stop offset="0.34" stop-color="#25a6de"/><stop offset="0.58" stop-color="#239dd7"/><stop offset="0.79" stop-color="#208dcc"/><stop offset="0.98" stop-color="#1b77bc"/><stop offset="1" stop-color="#1b75bb"/></linearGradient><linearGradient id="linear-gradient-4" x1="-5174.53" y1="1416.86" x2="-5170.33" y2="1421.06" gradientTransform="matrix(-0.66, 0.43, 0.76, 0.57, -4433.3, 1517.95)" gradientUnits="userSpaceOnUse"><stop offset="0" stop-color="#a4c8e4"/><stop offset="0.14" stop-color="#9bc6e4"/><stop offset="0.38" stop-color="#83c0e3"/><stop offset="0.67" stop-color="#5bb6e2"/><stop offset="1" stop-color="#26a9e0"/></linearGradient><linearGradient id="linear-gradient-5" x1="-6304.62" y1="2579.95" x2="-6301.62" y2="2582.95" gradientTransform="matrix(-0.42, 0.32, 0.58, 0.26, -4110.73, 1406.8)" gradientUnits="userSpaceOnUse"><stop offset="0" stop-color="#d1e3f1"/><stop offset="1" stop-color="#a4c8e4"/></linearGradient><linearGradient id="linear-gradient-6" x1="-4292.24" y1="1928" x2="-4288.21" y2="1932.02" xlink:href="#linear-gradient-3"/><linearGradient id="linear-gradient-7" x1="-5164.08" y1="1445.81" x2="-5159.88" y2="1450.02" xlink:href="#linear-gradient-4"/><linearGradient id="linear-gradient-8" x1="-6276.84" y1="2626.29" x2="-6273.83" y2="2629.3" xlink:href="#linear-gradient-5"/><linearGradient id="linear-gradient-9" x1="-4294.58" y1="1888.65" x2="-4290.56" y2="1892.67" xlink:href="#linear-gradient-3"/><linearGradient id="linear-gradient-10" x1="-5170.16" y1="1401.66" x2="-5165.96" y2="1405.86" xlink:href="#linear-gradient-4"/><linearGradient id="linear-gradient-11" x1="-6305.05" y1="2554.75" x2="-6302.04" y2="2557.75" xlink:href="#linear-gradient-5"/><linearGradient id="linear-gradient-12" x1="-4308.58" y1="1946.91" x2="-4304.56" y2="1950.93" xlink:href="#linear-gradient-3"/><linearGradient id="linear-gradient-13" x1="-5184.56" y1="1463.04" x2="-5180.36" y2="1467.24" xlink:href="#linear-gradient-4"/><linearGradient id="linear-gradient-14" x1="-6298.68" y1="2656.2" x2="-6295.68" y2="2659.21" xlink:href="#linear-gradient-5"/><linearGradient id="linear-gradient-15" x1="-4326.01" y1="1950.28" x2="-4321.99" y2="1954.3" xlink:href="#linear-gradient-3"/><linearGradient id="linear-gradient-16" x1="-5207.66" y1="1462.79" x2="-5203.45" y2="1467" xlink:href="#linear-gradient-4"/><linearGradient id="linear-gradient-17" x1="-6331.98" y1="2657.83" x2="-6328.98" y2="2660.84" xlink:href="#linear-gradient-5"/><linearGradient id="linear-gradient-18" x1="-4333.68" y1="1934.24" x2="-4329.66" y2="1938.26" xlink:href="#linear-gradient-3"/><linearGradient id="linear-gradient-19" x1="-5219.13" y1="1443.27" x2="-5214.93" y2="1447.47" xlink:href="#linear-gradient-4"/><linearGradient id="linear-gradient-20" x1="-6357.09" y1="2626.96" x2="-6354.09" y2="2629.96" xlink:href="#linear-gradient-5"/><linearGradient id="linear-gradient-21" x1="-4307.03" y1="1925.6" x2="-4303.01" y2="1929.62" xlink:href="#linear-gradient-3"/><linearGradient id="linear-gradient-22" x1="-5184.07" y1="1439.77" x2="-5179.87" y2="1443.97" xlink:href="#linear-gradient-4"/><linearGradient id="linear-gradient-23" x1="-6308.24" y1="2618.19" x2="-6305.24" y2="2621.19" xlink:href="#linear-gradient-5"/><linearGradient id="linear-gradient-24" x1="-4322.1" y1="1931.66" x2="-4315.64" y2="1938.12" xlink:href="#linear-gradient-3"/><linearGradient id="linear-gradient-25" x1="-5203.59" y1="1443.27" x2="-5196.84" y2="1450.02" xlink:href="#linear-gradient-4"/><linearGradient id="linear-gradient-26" x1="-6334.46" y1="2625.11" x2="-6329.63" y2="2629.93" xlink:href="#linear-gradient-5"/><linearGradient id="linear-gradient-27" x1="-4288.47" y1="1907.58" x2="-4282.01" y2="1914.05" xlink:href="#linear-gradient-3"/><linearGradient id="linear-gradient-28" x1="-5160.33" y1="1424.26" x2="-5153.58" y2="1431.01" xlink:href="#linear-gradient-4"/><linearGradient id="linear-gradient-29" x1="-6280.67" y1="2590.28" x2="-6275.84" y2="2595.11" xlink:href="#linear-gradient-5"/><linearGradient id="linear-gradient-30" x1="-4346.08" y1="1940.69" x2="-4339.62" y2="1947.15" xlink:href="#linear-gradient-3"/><linearGradient id="linear-gradient-31" x1="-5235.03" y1="1447.8" x2="-5228.28" y2="1454.55" xlink:href="#linear-gradient-4"/><linearGradient id="linear-gradient-32" x1="-6377.66" y1="2635.27" x2="-6372.83" y2="2640.09" xlink:href="#linear-gradient-5"/><linearGradient id="linear-gradient-33" x1="-4307.32" y1="1910.89" x2="-4304.38" y2="1913.84" xlink:href="#linear-gradient-3"/><linearGradient id="linear-gradient-34" x1="-5185.67" y1="1423.31" x2="-5182.59" y2="1426.39" xlink:href="#linear-gradient-4"/><linearGradient id="linear-gradient-35" x1="-6317.92" y1="2591.66" x2="-6315.72" y2="2593.86" xlink:href="#linear-gradient-5"/><linearGradient id="linear-gradient-36" x1="-4297.93" y1="1916.42" x2="-4293.91" y2="1920.44" xlink:href="#linear-gradient-3"/><linearGradient id="linear-gradient-37" x1="-5172.58" y1="1431.67" x2="-5168.37" y2="1435.88" xlink:href="#linear-gradient-4"/><linearGradient id="linear-gradient-38" x1="-6295.28" y1="2603.96" x2="-6292.28" y2="2606.96" xlink:href="#linear-gradient-5"/><linearGradient id="linear-gradient-39" x1="-4334.04" y1="1960.99" x2="-4330.02" y2="1965.02" xlink:href="#linear-gradient-3"/><linearGradient id="linear-gradient-40" x1="-5217.62" y1="1472.84" x2="-5213.42" y2="1477.04" xlink:href="#linear-gradient-4"/><linearGradient id="linear-gradient-41" x1="-6341.88" y1="2675.1" x2="-6338.87" y2="2678.1" xlink:href="#linear-gradient-5"/><linearGradient id="linear-gradient-42" x1="-4284.82" y1="1889.02" x2="-4280.8" y2="1893.04" xlink:href="#linear-gradient-3"/><linearGradient id="linear-gradient-43" x1="-5157.06" y1="1404.3" x2="-5152.86" y2="1408.5" xlink:href="#linear-gradient-4"/><linearGradient id="linear-gradient-44" x1="-6285.05" y1="2557.91" x2="-6282.05" y2="2560.91" xlink:href="#linear-gradient-5"/><linearGradient id="linear-gradient-45" x1="-4280.65" y1="1920.68" x2="-4276.63" y2="1924.7" xlink:href="#linear-gradient-3"/><linearGradient id="linear-gradient-46" x1="-5149.1" y1="1440.34" x2="-5144.9" y2="1444.55" xlink:href="#linear-gradient-4"/><linearGradient id="linear-gradient-47" x1="-6257.72" y1="2616.05" x2="-6254.72" y2="2619.05" xlink:href="#linear-gradient-5"/><linearGradient id="linear-gradient-48" x1="-4275.51" y1="1901.03" x2="-4271.49" y2="1905.05" xlink:href="#linear-gradient-3"/><linearGradient id="linear-gradient-49" x1="-5143.68" y1="1419.73" x2="-5139.48" y2="1423.94" xlink:href="#linear-gradient-4"/><linearGradient id="linear-gradient-50" x1="-6259.02" y1="2581.93" x2="-6256.02" y2="2584.93" xlink:href="#linear-gradient-5"/><linearGradient id="linear-gradient-51" x1="-4332.66" y1="1947.22" x2="-4330.04" y2="1949.84" xlink:href="#linear-gradient-3"/><linearGradient id="linear-gradient-52" x1="-5216.92" y1="1457.77" x2="-5214.18" y2="1460.5" xlink:href="#linear-gradient-4"/><linearGradient id="linear-gradient-53" x1="-6347.69" y1="2650.72" x2="-6345.73" y2="2652.68" xlink:href="#linear-gradient-5"/><linearGradient id="linear-gradient-54" x1="-4342.46" y1="1957.12" x2="-4339.84" y2="1959.74" xlink:href="#linear-gradient-3"/><linearGradient id="linear-gradient-55" x1="-5229.32" y1="1466.5" x2="-5226.58" y2="1469.23" xlink:href="#linear-gradient-4"/><linearGradient id="linear-gradient-56" x1="-6361.66" y1="2666.06" x2="-6359.7" y2="2668.01" xlink:href="#linear-gradient-5"/><linearGradient id="linear-gradient-57" x1="-4314.58" y1="1942.67" x2="-4311.96" y2="1945.29" xlink:href="#linear-gradient-3"/><linearGradient id="linear-gradient-58" x1="-5193.05" y1="1456.85" x2="-5190.31" y2="1459.58" xlink:href="#linear-gradient-4"/><linearGradient id="linear-gradient-59" x1="-6313.78" y1="2647.13" x2="-6311.82" y2="2649.08" xlink:href="#linear-gradient-5"/><linearGradient id="linear-gradient-60" x1="-4302.43" y1="1936.45" x2="-4299.82" y2="1939.07" xlink:href="#linear-gradient-3"/><linearGradient id="linear-gradient-61" x1="-5177.24" y1="1452.73" x2="-5174.5" y2="1455.46" xlink:href="#linear-gradient-4"/><linearGradient id="linear-gradient-62" x1="-6292.87" y1="2639.01" x2="-6290.92" y2="2640.97" xlink:href="#linear-gradient-5"/><linearGradient id="linear-gradient-63" x1="-4314.03" y1="1925.63" x2="-4311.41" y2="1928.25" xlink:href="#linear-gradient-3"/><linearGradient id="linear-gradient-64" x1="-5193.58" y1="1438.09" x2="-5190.84" y2="1440.82" xlink:href="#linear-gradient-4"/><linearGradient id="linear-gradient-65" x1="-6322.81" y1="2616.55" x2="-6320.86" y2="2618.5" xlink:href="#linear-gradient-5"/><linearGradient id="linear-gradient-66" x1="-4291.9" y1="1898.9" x2="-4289.28" y2="1901.51" xlink:href="#linear-gradient-3"/><linearGradient id="linear-gradient-67" x1="-5165.93" y1="1413.51" x2="-5163.19" y2="1416.24" xlink:href="#linear-gradient-4"/><linearGradient id="linear-gradient-68" x1="-6293.91" y1="2574" x2="-6291.95" y2="2575.95" xlink:href="#linear-gradient-5"/><linearGradient id="linear-gradient-69" x1="-4288.89" y1="1877.49" x2="-4286.27" y2="1880.11" xlink:href="#linear-gradient-3"/><linearGradient id="linear-gradient-70" x1="-5163.49" y1="1390.47" x2="-5160.75" y2="1393.21" xlink:href="#linear-gradient-4"/><linearGradient id="linear-gradient-71" x1="-6300.56" y1="2536.18" x2="-6298.61" y2="2538.13" xlink:href="#linear-gradient-5"/><linearGradient id="linear-gradient-72" x1="-4275.09" y1="1889.21" x2="-4272.47" y2="1891.82" xlink:href="#linear-gradient-3"/><linearGradient id="linear-gradient-73" x1="-5144.13" y1="1406.61" x2="-5141.4" y2="1409.34" xlink:href="#linear-gradient-4"/><linearGradient id="linear-gradient-74" x1="-6265.62" y1="2560.82" x2="-6263.67" y2="2562.77" xlink:href="#linear-gradient-5"/><linearGradient id="linear-gradient-75" x1="-4272.66" y1="1914.81" x2="-4270.04" y2="1917.42" xlink:href="#linear-gradient-3"/><linearGradient id="linear-gradient-76" x1="-5138.97" y1="1435.54" x2="-5136.23" y2="1438.27" xlink:href="#linear-gradient-4"/><linearGradient id="linear-gradient-77" x1="-6245.44" y1="2607.59" x2="-6243.48" y2="2609.55" xlink:href="#linear-gradient-5"/><linearGradient id="linear-gradient-78" x1="-4284.22" y1="1937.94" x2="-4280.2" y2="1941.97" xlink:href="#linear-gradient-3"/><linearGradient id="linear-gradient-79" x1="-5152.6" y1="1458.67" x2="-5148.4" y2="1462.87" xlink:href="#linear-gradient-4"/><linearGradient id="linear-gradient-80" x1="-6254.67" y1="2646.27" x2="-6251.67" y2="2649.27" xlink:href="#linear-gradient-5"/><linearGradient id="linear-gradient-81" x1="-4318.42" y1="1953.12" x2="-4311.96" y2="1959.58" xlink:href="#linear-gradient-3"/><linearGradient id="linear-gradient-82" x1="-5197.06" y1="1467.89" x2="-5190.31" y2="1474.64" xlink:href="#linear-gradient-4"/><linearGradient id="linear-gradient-83" x1="-6314.22" y1="2664.74" x2="-6309.39" y2="2669.56" xlink:href="#linear-gradient-5"/><linearGradient id="linear-gradient-84" x1="-4296.18" y1="1941.91" x2="-4289.72" y2="1948.37" xlink:href="#linear-gradient-3"/><linearGradient id="linear-gradient-85" x1="-5168.1" y1="1460.54" x2="-5161.35" y2="1467.29" xlink:href="#linear-gradient-4"/><linearGradient id="linear-gradient-86" x1="-6275.83" y1="2650.2" x2="-6271.01" y2="2655.03" xlink:href="#linear-gradient-5"/><linearGradient id="linear-gradient-87" x1="-4355.23" y1="1949.29" x2="-4351.29" y2="1953.23" xlink:href="#linear-gradient-3"/><linearGradient id="linear-gradient-88" x1="-5246.88" y1="1455.02" x2="-5242.77" y2="1459.13" xlink:href="#linear-gradient-4"/><linearGradient id="linear-gradient-89" x1="-6391.8" y1="2648.6" x2="-6388.86" y2="2651.54" xlink:href="#linear-gradient-5"/><linearGradient id="linear-gradient-90" x1="-4311.54" y1="1934.09" x2="-4308.59" y2="1937.03" xlink:href="#linear-gradient-3"/><linearGradient id="linear-gradient-91" x1="-5189.58" y1="1448.06" x2="-5186.5" y2="1451.14" xlink:href="#linear-gradient-4"/><linearGradient id="linear-gradient-92" x1="-6312.62" y1="2632.41" x2="-6310.42" y2="2634.61" xlink:href="#linear-gradient-5"/><mask id="mask-2" x="35.67" y="24.88" width="68.18" height="68.18" maskUnits="userSpaceOnUse"><circle class="cls-2" cx="69.76" cy="58.97" r="34.09"/></mask><radialGradient id="radial-gradient-16" cx="69.76" cy="59.05" r="26.73" gradientUnits="userSpaceOnUse"><stop offset="0" stop-color="#ffdd15"/><stop offset="0.48" stop-color="#ffdb15"/><stop offset="0.65" stop-color="#fed416"/><stop offset="0.77" stop-color="#fdc917"/><stop offset="0.87" stop-color="#fbb819"/><stop offset="0.95" stop-color="#f8a21c"/><stop offset="1" stop-color="#f6921e"/></radialGradient><mask id="mask-3" x="75.57" y="65.01" width="18.11" height="18.11" maskUnits="userSpaceOnUse"><path class="cls-3" d="M93.29,65.33c1.32,1.32-.71,7.08-5.51,11.88S77.21,84,75.9,82.72s1.51-6.28,6.31-11.08S92,64,93.29,65.33Z"/></mask><mask id="mask-4" x="45.42" y="33.4" width="32.01" height="30.64" maskUnits="userSpaceOnUse"><ellipse class="cls-4" cx="61.43" cy="48.72" rx="18.35" ry="12.41" transform="translate(-16.85 53.11) rotate(-41.63)"/></mask><mask id="mask-5" x="30.95" y="20.24" width="77.63" height="77.63" maskUnits="userSpaceOnUse"><path class="cls-5" d="M101.37,73.26l-7.45-2.77c.15-.32.29-.64.43-1Zm-9.59.94-.32.45L95,76.82Zm3.14-6.12,3.33.92-3.18-1.35Zm1.13-4.23q-.07.39-.15.78l5.9.76Zm.23-1.5c0,.34-.09.68-.15,1l7.69.58Zm.19-4.1c0,.27,0,.54,0,.81s0,.54,0,.81l12.1-.81Zm-4.73-14.4.44.66,4.71-3.64Zm2.82,5.22q.2.49.37,1l7.22-3.31ZM96,54.18c0,.18.07.36.1.55l4.06-1Zm-2.11-6.54,3-1.71-3.21,1.29ZM81.2,34.89,84,27.44l-3.73,7Zm2.42,1.31,4.85-10-6.13,9.28Q83,35.81,83.62,36.19ZM96.44,57.38c0,.18,0,.37,0,.56l4.15-.5ZM87.33,38.91l6-8.37L86.27,38C86.63,38.31,87,38.61,87.33,38.91Zm-10-5.5,2.25-11.69L75.78,33C76.3,33.12,76.81,33.26,77.32,33.41Zm1.47.48.92-3.33-1.35,3.18Zm10.43,6.85,8-9.12-9.12,8Q88.67,40.14,89.22,40.73Zm4,5.53,9.86-6.68L92.43,44.89C92.71,45.34,93,45.79,93.24,46.26ZM75.33,32.9l.76-5.9-1.54,5.75Zm21.1,24.33,10.2-1.65-10.32.28Q96.38,56.55,96.43,57.23Zm-5-13.79,5.85-5-6.47,4.2Q91.16,43,91.46,43.44Zm4.27,9.25L106.23,49,95.34,51.26Q95.55,52,95.73,52.69ZM44.59,50l-3.33-.92,3.18,1.35Zm.57-1.45c.14-.32.28-.65.43-1l-7.45-2.77Zm-1.7,5.68c0-.26.1-.52.15-.78l-5.9-.76Zm-.31,2.33-5.43-.07,5.38.79C43.1,57.06,43.12,56.82,43.14,56.58Zm.09-.82q.06-.51.15-1l-7.69-.58Zm-.15,5c0-.18,0-.37,0-.56l-4.15.5Zm46.73,16-.37.41,3.29,2.58ZM47.73,43.91l.32-.45-3.57-2.17ZM96.43,60.8q0,.36-.06.72l5.43.07ZM49.71,41.37l.37-.41L46.8,38.38ZM52.08,79.1l-.41-.37L49.08,82ZM84.9,37l.46.32,2.17-3.57ZM54.62,81.08l-.45-.32L52,84.33Zm-.06-44,.66-.44-3.64-4.71ZM87.44,39l.42.37,2.58-3.29ZM85,81l-.66.44,3.63,4.71ZM47.78,74.26l-.44-.66-4.71,3.63Zm-2.19-3.79-3,1.71,3.21-1.29Zm4.08,6.21-.47-.55-3.89,3.79ZM45,69q-.2-.49-.38-1l-7.22,3.31Zm-1.49-5.12c0-.18-.06-.36-.09-.55l-4.06,1ZM89.86,41.43l.47.55,3.89-3.79Zm-24.4,44-.58,7.69,1.6-7.54Zm1.84.23-.07,5.43L68,85.72Zm2.47.12H69l.81,12.1.81-12.1Zm1.12,0,.5,4.15.06-4.18Zm3.2-.32,1,4.06-.44-4.15Zm-2.5.29,1.65,10.19-.28-10.32Q72.27,85.67,71.58,85.72ZM52.19,79.19l-6,8.37,7.1-7.5C52.89,79.79,52.53,79.5,52.19,79.19Zm12,6-.76,5.9L65,85.35ZM55.9,81.91l-4.85,10,6.13-9.28C56.75,82.41,56.32,82.17,55.9,81.91Zm6.31,2.79L60,96.39,63.74,85.1C63.22,85,62.71,84.85,62.21,84.7Zm-1.47-.48-.92,3.33,1.35-3.18Zm-2.41-1-2.77,7.45,3.73-7ZM89.9,76.62l8.37,6-7.5-7.1C90.5,75.93,90.2,76.28,89.9,76.62Zm-1.82,1.89,9.12,8-8-9.12C88.85,77.76,88.47,78.14,88.08,78.51Zm4.54-5.6,10,4.85-9.28-6.13C93.12,72.06,92.88,72.49,92.62,72.91Zm2.79-6.31,11.69,2.25L95.81,65.07C95.69,65.59,95.55,66.1,95.41,66.61Zm-8.57,13,3.79,3.89-3.24-4.36ZM76.12,85l3.65,10.5L77.55,84.63Q76.85,84.84,76.12,85Zm5-1.79,1.71,3L81.59,83Zm-2.41,1,3.31,7.22-2.32-7.6Zm6.61-3.48,5,5.85-4.21-6.47Zm-2.82,1.78,6.68,9.86L83.92,81.73C83.47,82,83,82.27,82.55,82.53Zm-38.44-31L32.42,49.24,43.71,53Q43.89,52.25,44.11,51.5ZM63.4,33.09l-3.65-10.5L62,33.48Q62.68,33.26,63.4,33.09Zm-2.64.79-3.31-7.22,2.32,7.6ZM57,35.58l-6.68-9.86L55.6,36.38Q56.27,36,57,35.58Zm8.47-2.91-1-4.06.44,4.15ZM54.15,37.35l-5-5.85L53.33,38Zm4.2-2.48-1.71-3,1.29,3.21Zm13.88-2.44L72.3,27l-.79,5.37Zm-2.47-.11h.81l-.81-12.1L69,32.33Zm-1.82.06L66.29,22.19l.28,10.32C67,32.46,67.48,32.41,67.94,32.38Zm.7,0-.5-4.15-.06,4.18ZM43.79,65.41l-10.5,3.65,10.89-2.22Q44,66.14,43.79,65.41Zm6.51,12-8,9.12,9.12-8Q50.85,78,50.3,77.37ZM43,59.05c0-.27,0-.54,0-.81l-12.1.81,12.1.81C43,59.59,43,59.32,43,59.05Zm.06,1.82L32.9,62.52l10.32-.28Q43.14,61.56,43.09,60.87Zm5,13.79-5.85,5,6.47-4.2Q48.36,75.08,48.06,74.66Zm-1.78-2.82-9.86,6.68,10.66-5.31C46.81,72.76,46.54,72.31,46.28,71.84Zm6.4-33.36L48.89,34.6,52.14,39Zm-3.07,3-8.37-6,7.5,7.1Q49.17,42,49.62,41.48Zm24.45-8.81L74.65,25,73,32.52ZM51.44,39.59l-9.12-8,8,9.12Q50.85,40.14,51.44,39.59Zm-4.54,5.6-10-4.84,9.28,6.13C46.4,46,46.64,45.61,46.9,45.19Z"/></mask><radialGradient id="radial-gradient-17" cx="69.76" cy="59.05" r="38.81" gradientUnits="userSpaceOnUse"><stop offset="0.13" stop-color="#f6921e"/><stop offset="1" stop-color="#ffdd15"/></radialGradient><symbol id="New_Symbol" data-name="New Symbol" viewBox="0 0 257.01 223.64"><ellipse class="cls-6" cx="95.12" cy="100.46" rx="95.12" ry="79.67"/><ellipse class="cls-7" cx="151.78" cy="111.82" rx="119.53" ry="80.57" transform="translate(-19.1 191.45) rotate(-61.36)"/><ellipse class="cls-8" cx="167.61" cy="125.74" rx="57.37" ry="93.72" transform="translate(-12.47 232.87) rotate(-67.62)"/></symbol><symbol id="New_Symbol_2" data-name="New Symbol 2" viewBox="0 0 257.01 223.64"><ellipse class="cls-12" cx="95.12" cy="100.46" rx="95.12" ry="79.67"/><ellipse class="cls-13" cx="151.78" cy="111.82" rx="119.53" ry="80.57" transform="translate(-19.1 191.45) rotate(-61.36)"/><ellipse class="cls-14" cx="167.61" cy="125.74" rx="57.37" ry="93.72" transform="translate(-12.47 232.87) rotate(-67.62)"/></symbol><symbol id="New_Symbol_3" data-name="New Symbol 3" viewBox="0 0 174.77 164.37"><ellipse class="cls-15" cx="68.47" cy="72.31" rx="68.47" ry="57.35"/><ellipse class="cls-16" cx="109.26" cy="80.49" rx="86.04" ry="58" transform="translate(-13.75 137.81) rotate(-61.36)"/><ellipse class="cls-17" cx="109.26" cy="118.34" rx="41.3" ry="67.46" transform="translate(-41.76 174.32) rotate(-67.62)"/></symbol></defs><title>Ресурс 9weather</title><g class="cls-18"><g id="Слой_2" data-name="Слой 2"><g id="Layer_2" data-name="Layer 2"><g class="cls-19"><circle class="cls-20" cx="75.47" cy="75.47" r="75.47"/></g><path class="cls-20" d="M52.07,103a2.25,2.25,0,1,0,3.18-3.18c-1.5-1.5-5.18-2-5.18-2S50.58,101.47,52.07,103Z"/><path class="cls-21" d="M52.28,102.55a2.11,2.11,0,0,0,3.18,0c.29-.31.91-1.65-.69-3s-4.63-1.67-4.63-1.67S50.77,101.16,52.28,102.55Z"/><path class="cls-22" d="M52.53,101.59c1.64,1.39,2.7.67,3,.41s.77-1.36-.82-2.55a12.68,12.68,0,0,0-4.4-1.59A9.1,9.1,0,0,0,52.53,101.59Z"/><path class="cls-23" d="M52.42,99.47c.91.5,1.29.23,1.38.14s.18-.5-.68-.92A8.39,8.39,0,0,0,51,98.12,5.15,5.15,0,0,0,52.42,99.47Z"/><path class="cls-20" d="M67.3,124a2.25,2.25,0,1,0,3.17-3.17c-1.5-1.5-5.18-2-5.18-2S65.8,122.48,67.3,124Z"/><path class="cls-24" d="M67.5,123.56a2.11,2.11,0,0,0,3.18,0c.29-.31.91-1.65-.69-3s-4.63-1.67-4.63-1.67S66,122.18,67.5,123.56Z"/><path class="cls-25" d="M67.75,122.61c1.64,1.39,2.69.67,3,.41s.78-1.36-.82-2.55a12.66,12.66,0,0,0-4.4-1.59A9.1,9.1,0,0,0,67.75,122.61Z"/><path class="cls-26" d="M67.64,120.48c.9.5,1.29.23,1.38.14s.19-.5-.67-.92a8.41,8.41,0,0,0-2.17-.56A5.14,5.14,0,0,0,67.64,120.48Z"/><path class="cls-20" d="M37.6,96.17A2.25,2.25,0,1,0,40.77,93c-1.5-1.5-5.18-2-5.18-2S36.1,94.67,37.6,96.17Z"/><path class="cls-27" d="M37.81,95.75a2.11,2.11,0,0,0,3.18,0c.29-.31.91-1.65-.69-3S35.66,91,35.66,91,36.29,94.37,37.81,95.75Z"/><path class="cls-28" d="M38.05,94.8c1.64,1.39,2.69.67,3,.41s.77-1.36-.82-2.55a12.66,12.66,0,0,0-4.4-1.59A9.12,9.12,0,0,0,38.05,94.8Z"/><path class="cls-29" d="M37.94,92.67c.91.5,1.29.23,1.38.14s.18-.5-.67-.92a8.39,8.39,0,0,0-2.17-.56A5.13,5.13,0,0,0,37.94,92.67Z"/><path class="cls-20" d="M93.92,125a2.25,2.25,0,1,0,3.18-3.18c-1.5-1.5-5.18-2-5.18-2S92.42,123.49,93.92,125Z"/><path class="cls-30" d="M94.12,124.57a2.11,2.11,0,0,0,3.18,0c.29-.31.91-1.65-.69-3S92,119.86,92,119.86,92.61,123.19,94.12,124.57Z"/><path class="cls-31" d="M94.37,123.61c1.64,1.38,2.69.67,3,.41s.77-1.36-.82-2.55a12.7,12.7,0,0,0-4.4-1.59A9.09,9.09,0,0,0,94.37,123.61Z"/><path class="cls-32" d="M94.26,121.49c.91.5,1.29.23,1.38.14s.18-.5-.67-.92a8.43,8.43,0,0,0-2.17-.56A5.15,5.15,0,0,0,94.26,121.49Z"/><path class="cls-20" d="M108.93,114.9a2.25,2.25,0,1,0,3.18-3.18c-1.5-1.5-5.18-2-5.18-2S107.43,113.4,108.93,114.9Z"/><path class="cls-33" d="M109.14,114.49a2.11,2.11,0,0,0,3.18,0c.29-.31.91-1.64-.69-3s-4.63-1.67-4.63-1.67S107.62,113.1,109.14,114.49Z"/><path class="cls-34" d="M109.38,113.53c1.64,1.39,2.7.67,3,.41s.78-1.36-.82-2.55a12.68,12.68,0,0,0-4.4-1.59A9.11,9.11,0,0,0,109.38,113.53Z"/><path class="cls-35" d="M109.27,111.41c.91.5,1.29.23,1.38.14s.19-.5-.68-.92a8.42,8.42,0,0,0-2.17-.56A5.19,5.19,0,0,0,109.27,111.41Z"/><path class="cls-20" d="M101.58,98.82a2.25,2.25,0,1,0,3.17-3.18c-1.5-1.5-5.18-2-5.18-2S100.08,97.32,101.58,98.82Z"/><path class="cls-36" d="M101.79,98.4a2.11,2.11,0,0,0,3.18,0c.29-.31.91-1.65-.69-3s-4.63-1.67-4.63-1.67S100.27,97,101.79,98.4Z"/><path class="cls-37" d="M102,97.45c1.64,1.39,2.7.67,3,.41s.77-1.36-.82-2.55a12.68,12.68,0,0,0-4.4-1.59A9.12,9.12,0,0,0,102,97.45Z"/><path class="cls-38" d="M101.92,95.32c.9.5,1.29.23,1.38.14s.18-.5-.68-.92a8.43,8.43,0,0,0-2.17-.56A5.14,5.14,0,0,0,101.92,95.32Z"/><path class="cls-20" d="M75.84,111.92A2.25,2.25,0,1,0,79,108.75c-1.5-1.5-5.18-2-5.18-2S74.34,110.43,75.84,111.92Z"/><path class="cls-39" d="M76.05,111.51a2.11,2.11,0,0,0,3.18,0c.29-.31.91-1.65-.69-3s-4.63-1.67-4.63-1.67S74.53,110.12,76.05,111.51Z"/><path class="cls-40" d="M76.3,110.55c1.64,1.39,2.69.67,3,.41s.77-1.36-.82-2.55a12.68,12.68,0,0,0-4.4-1.59A9.09,9.09,0,0,0,76.3,110.55Z"/><path class="cls-41" d="M76.19,108.43c.91.5,1.29.23,1.38.14s.19-.5-.67-.92a8.46,8.46,0,0,0-2.17-.56A5.13,5.13,0,0,0,76.19,108.43Z"/><path class="cls-20" d="M90.86,108.46a3.61,3.61,0,1,0,5.1-5.1c-2.41-2.41-8.32-3.22-8.32-3.22S88.45,106,90.86,108.46Z"/><path class="cls-42" d="M91.19,107.79a3.39,3.39,0,0,0,5.1-.07c.46-.5,1.47-2.64-1.11-4.82s-7.44-2.69-7.44-2.69S88.75,105.56,91.19,107.79Z"/><path class="cls-43" d="M91.59,106.25c2.64,2.23,4.33,1.08,4.76.65s1.24-2.18-1.32-4.09C92.66,101,88,100.25,88,100.25S89.16,104.2,91.59,106.25Z"/><path class="cls-44" d="M91.41,102.84c1.45.8,2.07.38,2.22.22s.3-.8-1.08-1.48a13.53,13.53,0,0,0-3.49-.9A8.3,8.3,0,0,0,91.41,102.84Z"/><path class="cls-20" d="M47.89,116.24a3.61,3.61,0,1,0,5.1-5.1c-2.41-2.41-8.32-3.22-8.32-3.22S45.48,113.83,47.89,116.24Z"/><path class="cls-45" d="M48.22,115.57a3.39,3.39,0,0,0,5.1-.07c.46-.5,1.47-2.64-1.11-4.82S44.77,108,44.77,108,45.78,113.34,48.22,115.57Z"/><path class="cls-46" d="M48.62,114c2.64,2.23,4.33,1.08,4.76.65s1.24-2.18-1.32-4.09C49.69,108.82,45,108,45,108S46.19,112,48.62,114Z"/><path class="cls-47" d="M48.44,110.62c1.46.8,2.08.38,2.22.22s.3-.8-1.09-1.48a13.55,13.55,0,0,0-3.49-.9A8.27,8.27,0,0,0,48.44,110.62Z"/><path class="cls-20" d="M115,97.5a3.61,3.61,0,1,0,5.1-5.1c-2.41-2.41-8.32-3.22-8.32-3.22S112.6,95.09,115,97.5Z"/><path class="cls-48" d="M115.34,96.83a3.39,3.39,0,0,0,5.11-.07c.46-.5,1.47-2.64-1.11-4.82s-7.45-2.69-7.45-2.69S112.9,94.61,115.34,96.83Z"/><path class="cls-49" d="M115.74,95.29c2.64,2.22,4.33,1.08,4.76.65s1.24-2.18-1.32-4.09c-2.37-1.77-7.07-2.56-7.07-2.56S113.3,93.24,115.74,95.29Z"/><path class="cls-50" d="M115.56,91.88c1.46.8,2.08.37,2.22.22s.3-.8-1.09-1.48a13.5,13.5,0,0,0-3.49-.9A8.28,8.28,0,0,0,115.56,91.88Z"/><path class="cls-20" d="M64.54,100.55a1.65,1.65,0,1,0,2.33-2.33c-1.1-1.1-3.79-1.47-3.79-1.47S63.44,99.45,64.54,100.55Z"/><path class="cls-51" d="M64.69,100.24a1.55,1.55,0,0,0,2.33,0c.21-.23.67-1.21-.5-2.2a7.93,7.93,0,0,0-3.4-1.23A7.63,7.63,0,0,0,64.69,100.24Z"/><path class="cls-52" d="M64.87,99.54c1.2,1,2,.49,2.17.3s.57-1-.6-1.87a9.3,9.3,0,0,0-3.23-1.17A6.68,6.68,0,0,0,64.87,99.54Z"/><path class="cls-53" d="M64.79,98c.66.36.95.17,1,.1s.13-.36-.49-.68A6.16,6.16,0,0,0,63.72,97,3.8,3.8,0,0,0,64.79,98Z"/><path class="cls-20" d="M62.09,112.26a2.25,2.25,0,1,0,3.18-3.18c-1.5-1.5-5.18-2-5.18-2S60.6,110.76,62.09,112.26Z"/><path class="cls-54" d="M62.3,111.84a2.11,2.11,0,0,0,3.18,0c.29-.31.91-1.65-.69-3s-4.63-1.67-4.63-1.67S60.79,110.46,62.3,111.84Z"/><path class="cls-55" d="M62.55,110.88c1.64,1.39,2.69.67,3,.41s.77-1.36-.82-2.55a12.67,12.67,0,0,0-4.4-1.59A9.1,9.1,0,0,0,62.55,110.88Z"/><path class="cls-56" d="M62.44,108.76c.91.5,1.29.23,1.38.14s.19-.5-.67-.92a8.37,8.37,0,0,0-2.17-.56A5.15,5.15,0,0,0,62.44,108.76Z"/><path class="cls-20" d="M123.15,116.34a2.25,2.25,0,1,0,3.18-3.17c-1.5-1.5-5.18-2-5.18-2S121.65,114.84,123.15,116.34Z"/><path class="cls-57" d="M123.36,115.92a2.11,2.11,0,0,0,3.18,0c.29-.31.91-1.65-.69-3s-4.63-1.67-4.63-1.67S121.84,114.54,123.36,115.92Z"/><path class="cls-58" d="M123.61,115c1.64,1.39,2.69.67,3,.41s.77-1.36-.82-2.55a12.69,12.69,0,0,0-4.4-1.59A9.12,9.12,0,0,0,123.61,115Z"/><path class="cls-59" d="M123.49,112.84c.91.5,1.29.23,1.38.14s.18-.5-.67-.92a8.35,8.35,0,0,0-2.17-.56A5.16,5.16,0,0,0,123.49,112.84Z"/><path class="cls-20" d="M31,103.32a2.25,2.25,0,1,0,3.17-3.17c-1.5-1.5-5.18-2-5.18-2S29.49,101.82,31,103.32Z"/><path class="cls-60" d="M31.2,102.9a2.11,2.11,0,0,0,3.18,0c.29-.31.91-1.65-.69-3s-4.63-1.67-4.63-1.67S29.68,101.52,31.2,102.9Z"/><path class="cls-61" d="M31.45,101.95c1.64,1.39,2.7.67,3,.41s.77-1.36-.82-2.55a12.69,12.69,0,0,0-4.4-1.59A9.1,9.1,0,0,0,31.45,101.95Z"/><path class="cls-62" d="M31.34,99.82c.91.5,1.29.23,1.38.14s.19-.5-.67-.92a8.41,8.41,0,0,0-2.17-.56A5.16,5.16,0,0,0,31.34,99.82Z"/><path class="cls-20" d="M53.26,127.31a2.25,2.25,0,1,0,3.17-3.18c-1.5-1.5-5.18-2-5.18-2S51.77,125.81,53.26,127.31Z"/><path class="cls-63" d="M53.47,126.89a2.11,2.11,0,0,0,3.18,0c.29-.31.91-1.65-.69-3s-4.63-1.67-4.63-1.67S52,125.51,53.47,126.89Z"/><path class="cls-64" d="M53.72,125.93c1.64,1.38,2.69.67,3,.41s.78-1.36-.82-2.55a12.7,12.7,0,0,0-4.4-1.59A9.12,9.12,0,0,0,53.72,125.93Z"/><path class="cls-65" d="M53.61,123.81c.9.5,1.29.23,1.38.14s.19-.5-.67-.92a8.43,8.43,0,0,0-2.17-.56A5.14,5.14,0,0,0,53.61,123.81Z"/><path class="cls-20" d="M34,117.88a2.25,2.25,0,1,0,3.18-3.18c-1.5-1.5-5.18-2-5.18-2S32.47,116.38,34,117.88Z"/><path class="cls-66" d="M34.18,117.47a2.11,2.11,0,0,0,3.18,0c.29-.31.91-1.65-.69-3S32,112.75,32,112.75,32.66,116.08,34.18,117.47Z"/><path class="cls-67" d="M34.43,116.51c1.64,1.39,2.69.67,3,.41s.78-1.36-.82-2.55a12.68,12.68,0,0,0-4.4-1.59A9.11,9.11,0,0,0,34.43,116.51Z"/><path class="cls-68" d="M34.32,114.38c.9.5,1.29.24,1.38.14s.18-.5-.68-.92a8.4,8.4,0,0,0-2.17-.56A5.14,5.14,0,0,0,34.32,114.38Z"/><path class="cls-20" d="M111.47,106.36a1.46,1.46,0,1,0,2.07-2.07c-1-1-3.37-1.3-3.37-1.3S110.5,105.38,111.47,106.36Z"/><path class="cls-69" d="M111.61,106.08a1.37,1.37,0,0,0,2.07,0c.19-.2.6-1.07-.45-2a7.05,7.05,0,0,0-3-1.09A6.76,6.76,0,0,0,111.61,106.08Z"/><path class="cls-70" d="M111.77,105.46c1.07.9,1.75.44,1.93.27s.5-.89-.54-1.66a8.27,8.27,0,0,0-2.87-1A5.93,5.93,0,0,0,111.77,105.46Z"/><path class="cls-71" d="M111.7,104.08c.59.33.84.15.9.09s.12-.32-.44-.6a5.49,5.49,0,0,0-1.42-.37A3.37,3.37,0,0,0,111.7,104.08Z"/><path class="cls-20" d="M126.29,106a1.46,1.46,0,1,0,2.07-2.07c-1-1-3.37-1.31-3.37-1.31S125.31,105,126.29,106Z"/><path class="cls-72" d="M126.42,105.72a1.37,1.37,0,0,0,2.07,0c.19-.2.6-1.07-.45-2a7,7,0,0,0-3-1.09A6.78,6.78,0,0,0,126.42,105.72Z"/><path class="cls-73" d="M126.58,105.1c1.07.9,1.76.44,1.93.27s.5-.89-.54-1.66a8.25,8.25,0,0,0-2.87-1A6,6,0,0,0,126.58,105.1Z"/><path class="cls-74" d="M126.51,103.72c.59.32.84.15.9.09s.12-.32-.44-.6a5.52,5.52,0,0,0-1.41-.37A3.36,3.36,0,0,0,126.51,103.72Z"/><path class="cls-20" d="M95.06,116.11A1.46,1.46,0,1,0,97.13,114c-1-1-3.37-1.3-3.37-1.3S94.08,115.13,95.06,116.11Z"/><path class="cls-75" d="M95.2,115.84a1.37,1.37,0,0,0,2.07,0c.19-.2.59-1.07-.45-2a7,7,0,0,0-3-1.09A6.79,6.79,0,0,0,95.2,115.84Z"/><path class="cls-76" d="M95.36,115.21c1.07.9,1.75.44,1.93.27s.5-.88-.54-1.66a8.25,8.25,0,0,0-2.87-1A5.91,5.91,0,0,0,95.36,115.21Z"/><path class="cls-77" d="M95.28,113.83c.59.32.84.15.9.09s.12-.32-.44-.6a5.52,5.52,0,0,0-1.41-.37A3.34,3.34,0,0,0,95.28,113.83Z"/><path class="cls-20" d="M81.51,120.57a1.46,1.46,0,1,0,2.07-2.07c-1-1-3.37-1.3-3.37-1.3S80.54,119.59,81.51,120.57Z"/><path class="cls-78" d="M81.65,120.29a1.37,1.37,0,0,0,2.07,0c.19-.2.59-1.07-.45-2a7.05,7.05,0,0,0-3-1.09A6.78,6.78,0,0,0,81.65,120.29Z"/><path class="cls-79" d="M81.81,119.67c1.07.9,1.75.44,1.93.27s.5-.88-.53-1.66a8.28,8.28,0,0,0-2.87-1A5.93,5.93,0,0,0,81.81,119.67Z"/><path class="cls-80" d="M81.74,118.29c.59.32.84.15.9.09s.12-.32-.44-.6a5.5,5.5,0,0,0-1.41-.37A3.33,3.33,0,0,0,81.74,118.29Z"/><path class="cls-20" d="M81.09,105.18a1.46,1.46,0,1,0,2.07-2.07c-1-1-3.37-1.3-3.37-1.3S80.12,104.2,81.09,105.18Z"/><path class="cls-81" d="M81.23,104.91a1.37,1.37,0,0,0,2.07,0c.19-.2.6-1.07-.45-2a7,7,0,0,0-3-1.09A6.77,6.77,0,0,0,81.23,104.91Z"/><path class="cls-82" d="M81.39,104.28c1.07.9,1.75.44,1.93.27s.5-.88-.53-1.66a8.26,8.26,0,0,0-2.87-1A5.92,5.92,0,0,0,81.39,104.28Z"/><path class="cls-83" d="M81.32,102.9c.59.32.84.15.9.09s.12-.32-.44-.6a5.53,5.53,0,0,0-1.41-.36A3.36,3.36,0,0,0,81.32,102.9Z"/><path class="cls-20" d="M44.14,103.06A1.46,1.46,0,1,0,46.2,101c-1-1-3.37-1.3-3.37-1.3S43.16,102.09,44.14,103.06Z"/><path class="cls-84" d="M44.27,102.79a1.37,1.37,0,0,0,2.07,0c.19-.2.59-1.07-.45-2a7,7,0,0,0-3-1.09A6.78,6.78,0,0,0,44.27,102.79Z"/><path class="cls-85" d="M44.43,102.17c1.07.9,1.75.44,1.93.27s.5-.89-.53-1.66a8.25,8.25,0,0,0-2.87-1A5.94,5.94,0,0,0,44.43,102.17Z"/><path class="cls-86" d="M44.36,100.78c.59.32.84.15.9.09s.12-.32-.44-.6a5.47,5.47,0,0,0-1.41-.36A3.35,3.35,0,0,0,44.36,100.78Z"/><path class="cls-20" d="M25,91A1.46,1.46,0,1,0,27,88.9c-1-1-3.37-1.31-3.37-1.31S24,90,25,91Z"/><path class="cls-87" d="M25.09,90.7a1.37,1.37,0,0,0,2.07,0c.19-.2.59-1.07-.45-2a7,7,0,0,0-3-1.09A6.77,6.77,0,0,0,25.09,90.7Z"/><path class="cls-88" d="M25.25,90.07c1.07.9,1.75.44,1.93.27s.5-.89-.53-1.66a8.26,8.26,0,0,0-2.87-1A5.93,5.93,0,0,0,25.25,90.07Z"/><path class="cls-89" d="M25.17,88.69c.59.32.84.15.9.09s.12-.32-.44-.6a5.48,5.48,0,0,0-1.41-.37A3.38,3.38,0,0,0,25.17,88.69Z"/><path class="cls-20" d="M24.53,108.51a1.46,1.46,0,1,0,2.07-2.07c-1-1-3.37-1.3-3.37-1.3S23.55,107.53,24.53,108.51Z"/><path class="cls-90" d="M24.67,108.24a1.37,1.37,0,0,0,2.07,0c.19-.2.6-1.07-.45-2a7,7,0,0,0-3-1.09A6.77,6.77,0,0,0,24.67,108.24Z"/><path class="cls-91" d="M24.83,107.61c1.07.9,1.76.44,1.93.27s.5-.89-.53-1.66a8.27,8.27,0,0,0-2.87-1A5.94,5.94,0,0,0,24.83,107.61Z"/><path class="cls-92" d="M24.75,106.23c.59.32.84.15.9.09s.12-.32-.44-.6a5.51,5.51,0,0,0-1.41-.36A3.33,3.33,0,0,0,24.75,106.23Z"/><path class="cls-20" d="M43.21,127.24a1.46,1.46,0,1,0,2.07-2.07c-1-1-3.37-1.3-3.37-1.3S42.23,126.26,43.21,127.24Z"/><path class="cls-93" d="M43.35,127a1.37,1.37,0,0,0,2.07,0c.19-.2.59-1.07-.45-2a7,7,0,0,0-3-1.09A6.77,6.77,0,0,0,43.35,127Z"/><path class="cls-94" d="M43.51,126.34c1.07.9,1.75.44,1.93.27s.5-.89-.53-1.66a8.26,8.26,0,0,0-2.87-1A5.92,5.92,0,0,0,43.51,126.34Z"/><path class="cls-95" d="M43.44,125c.59.32.84.15.9.09s.12-.32-.44-.6a5.48,5.48,0,0,0-1.41-.37A3.35,3.35,0,0,0,43.44,125Z"/><path class="cls-20" d="M69.55,136.26a2.25,2.25,0,1,0,3.18-3.18c-1.5-1.5-5.18-2-5.18-2S68.05,134.76,69.55,136.26Z"/><path class="cls-96" d="M69.76,135.84a2.11,2.11,0,0,0,3.18,0c.29-.31.91-1.65-.69-3s-4.63-1.67-4.63-1.67S68.24,134.46,69.76,135.84Z"/><path class="cls-97" d="M70,134.88c1.64,1.39,2.7.67,3,.41s.77-1.36-.82-2.55a12.72,12.72,0,0,0-4.4-1.59A9.12,9.12,0,0,0,70,134.88Z"/><path class="cls-98" d="M69.9,132.76c.91.5,1.29.23,1.38.14s.18-.5-.68-.92a8.38,8.38,0,0,0-2.17-.56A5.15,5.15,0,0,0,69.9,132.76Z"/><path class="cls-20" d="M105.36,125.31a3.61,3.61,0,1,0,5.1-5.1c-2.41-2.41-8.32-3.22-8.32-3.22S102.95,122.91,105.36,125.31Z"/><path class="cls-99" d="M105.69,124.64a3.39,3.39,0,0,0,5.1-.07c.46-.5,1.47-2.64-1.11-4.82s-7.45-2.69-7.45-2.69S103.25,122.42,105.69,124.64Z"/><path class="cls-100" d="M106.09,123.11c2.64,2.23,4.33,1.08,4.76.65s1.24-2.18-1.32-4.09c-2.38-1.77-7.07-2.56-7.07-2.56S103.66,121.06,106.09,123.11Z"/><path class="cls-101" d="M105.91,119.7c1.46.8,2.08.38,2.22.22s.3-.8-1.09-1.48a13.5,13.5,0,0,0-3.48-.9A8.3,8.3,0,0,0,105.91,119.7Z"/><path class="cls-20" d="M80.69,133.59a3.61,3.61,0,1,0,5.1-5.1c-2.41-2.41-8.32-3.22-8.32-3.22S78.28,131.19,80.69,133.59Z"/><path class="cls-102" d="M81,132.92a3.39,3.39,0,0,0,5.1-.07c.47-.5,1.47-2.64-1.11-4.82s-7.45-2.69-7.45-2.69S78.59,130.7,81,132.92Z"/><path class="cls-103" d="M81.42,131.39c2.64,2.23,4.33,1.08,4.76.65s1.25-2.18-1.32-4.09c-2.38-1.77-7.07-2.56-7.07-2.56S79,129.33,81.42,131.39Z"/><path class="cls-104" d="M81.25,128c1.45.8,2.07.38,2.22.22s.3-.8-1.08-1.48a13.52,13.52,0,0,0-3.49-.9A8.26,8.26,0,0,0,81.25,128Z"/><path class="cls-20" d="M128.82,93.48a2.2,2.2,0,1,0,3.11-3.11c-1.47-1.47-5.07-2-5.07-2S127.35,92,128.82,93.48Z"/><path class="cls-105" d="M129,93.07a2.07,2.07,0,0,0,3.11,0c.28-.31.89-1.61-.68-2.93s-4.53-1.64-4.53-1.64S127.54,91.71,129,93.07Z"/><path class="cls-106" d="M129.27,92.13c1.61,1.36,2.64.66,2.9.4s.76-1.33-.8-2.49a12.41,12.41,0,0,0-4.31-1.56A8.93,8.93,0,0,0,129.27,92.13Z"/><path class="cls-107" d="M129.16,90.05c.89.49,1.26.23,1.35.13s.18-.49-.66-.9a8.22,8.22,0,0,0-2.12-.55A5,5,0,0,0,129.16,90.05Z"/><path class="cls-20" d="M86,113a1.65,1.65,0,1,0,2.33-2.33c-1.1-1.1-3.79-1.47-3.79-1.47S84.9,111.89,86,113Z"/><path class="cls-108" d="M86.16,112.68a1.54,1.54,0,0,0,2.33,0c.21-.23.67-1.21-.5-2.2a7.91,7.91,0,0,0-3.4-1.23A7.63,7.63,0,0,0,86.16,112.68Z"/><path class="cls-109" d="M86.34,112c1.21,1,2,.49,2.17.3s.57-1-.6-1.87a9.29,9.29,0,0,0-3.22-1.17A6.68,6.68,0,0,0,86.34,112Z"/><path class="cls-110" d="M86.26,110.43c.66.36.95.17,1,.1s.14-.37-.49-.68a6.13,6.13,0,0,0-1.59-.41A3.8,3.8,0,0,0,86.26,110.43Z"/><use width="257.01" height="223.64" transform="matrix(-0.11, -0.01, 0, -0.16, 71.79, 71.29)" xlink:href="#New_Symbol"/><use width="257.01" height="223.64" transform="matrix(-0.11, -0.01, 0, -0.16, 59.43, 68.7)" xlink:href="#New_Symbol"/><use width="257.01" height="223.64" transform="matrix(-0.11, -0.01, 0, -0.16, 55.04, 66.41)" xlink:href="#New_Symbol"/><use width="257.01" height="223.64" transform="matrix(-0.11, -0.01, 0, -0.16, 50.22, 67.97)" xlink:href="#New_Symbol"/><use width="257.01" height="223.64" transform="matrix(-0.17, -0.02, 0, -0.15, 132.21, 69.98)" xlink:href="#New_Symbol_2"/><use width="257.01" height="223.64" transform="matrix(-0.17, -0.02, 0, -0.15, 99.69, 57.03)" xlink:href="#New_Symbol_2"/><use width="257.01" height="223.64" transform="matrix(-0.17, -0.02, 0, -0.15, 72, 69.81)" xlink:href="#New_Symbol_2"/><use width="257.01" height="223.64" transform="matrix(-0.17, -0.02, 0, -0.15, 82.36, 62.77)" xlink:href="#New_Symbol_2"/><use width="257.01" height="223.64" transform="matrix(-0.17, -0.02, 0, -0.19, 118.48, 72)" xlink:href="#New_Symbol_2"/><use width="257.01" height="223.64" transform="matrix(-0.17, -0.02, 0, -0.19, 64.24, 73.22)" xlink:href="#New_Symbol_2"/><g class="cls-111"><circle class="cls-112" cx="69.76" cy="58.97" r="34.09"/></g><circle class="cls-113" cx="69.76" cy="59.05" r="26.73"/><g class="cls-114"><path class="cls-115" d="M93.29,65.33c1.32,1.32-.71,7.08-5.51,11.88S77.21,84,75.9,82.72s1.51-6.28,6.31-11.08S92,64,93.29,65.33Z"/></g><g class="cls-116"><ellipse class="cls-117" cx="61.43" cy="48.72" rx="18.35" ry="12.41" transform="translate(-16.85 53.11) rotate(-41.63)"/></g><g class="cls-118"><path class="cls-119" d="M101.37,73.26l-7.45-2.77c.15-.32.29-.64.43-1Zm-9.59.94-.32.45L95,76.82Zm3.14-6.12,3.33.92-3.18-1.35Zm1.13-4.23q-.07.39-.15.78l5.9.76Zm.23-1.5c0,.34-.09.68-.15,1l7.69.58Zm.19-4.1c0,.27,0,.54,0,.81s0,.54,0,.81l12.1-.81Zm-4.73-14.4.44.66,4.71-3.64Zm2.82,5.22q.2.49.37,1l7.22-3.31ZM96,54.18c0,.18.07.36.1.55l4.06-1Zm-2.11-6.54,3-1.71-3.21,1.29ZM81.2,34.89,84,27.44l-3.73,7Zm2.42,1.31,4.85-10-6.13,9.28Q83,35.81,83.62,36.19ZM96.44,57.38c0,.18,0,.37,0,.56l4.15-.5ZM87.33,38.91l6-8.37L86.27,38C86.63,38.31,87,38.61,87.33,38.91Zm-10-5.5,2.25-11.69L75.78,33C76.3,33.12,76.81,33.26,77.32,33.41Zm1.47.48.92-3.33-1.35,3.18Zm10.43,6.85,8-9.12-9.12,8Q88.67,40.14,89.22,40.73Zm4,5.53,9.86-6.68L92.43,44.89C92.71,45.34,93,45.79,93.24,46.26ZM75.33,32.9l.76-5.9-1.54,5.75Zm21.1,24.33,10.2-1.65-10.32.28Q96.38,56.55,96.43,57.23Zm-5-13.79,5.85-5-6.47,4.2Q91.16,43,91.46,43.44Zm4.27,9.25L106.23,49,95.34,51.26Q95.55,52,95.73,52.69ZM44.59,50l-3.33-.92,3.18,1.35Zm.57-1.45c.14-.32.28-.65.43-1l-7.45-2.77Zm-1.7,5.68c0-.26.1-.52.15-.78l-5.9-.76Zm-.31,2.33-5.43-.07,5.38.79C43.1,57.06,43.12,56.82,43.14,56.58Zm.09-.82q.06-.51.15-1l-7.69-.58Zm-.15,5c0-.18,0-.37,0-.56l-4.15.5Zm46.73,16-.37.41,3.29,2.58ZM47.73,43.91l.32-.45-3.57-2.17ZM96.43,60.8q0,.36-.06.72l5.43.07ZM49.71,41.37l.37-.41L46.8,38.38ZM52.08,79.1l-.41-.37L49.08,82ZM84.9,37l.46.32,2.17-3.57ZM54.62,81.08l-.45-.32L52,84.33Zm-.06-44,.66-.44-3.64-4.71ZM87.44,39l.42.37,2.58-3.29ZM85,81l-.66.44,3.63,4.71ZM47.78,74.26l-.44-.66-4.71,3.63Zm-2.19-3.79-3,1.71,3.21-1.29Zm4.08,6.21-.47-.55-3.89,3.79ZM45,69q-.2-.49-.38-1l-7.22,3.31Zm-1.49-5.12c0-.18-.06-.36-.09-.55l-4.06,1ZM89.86,41.43l.47.55,3.89-3.79Zm-24.4,44-.58,7.69,1.6-7.54Zm1.84.23-.07,5.43L68,85.72Zm2.47.12H69l.81,12.1.81-12.1Zm1.12,0,.5,4.15.06-4.18Zm3.2-.32,1,4.06-.44-4.15Zm-2.5.29,1.65,10.19-.28-10.32Q72.27,85.67,71.58,85.72ZM52.19,79.19l-6,8.37,7.1-7.5C52.89,79.79,52.53,79.5,52.19,79.19Zm12,6-.76,5.9L65,85.35ZM55.9,81.91l-4.85,10,6.13-9.28C56.75,82.41,56.32,82.17,55.9,81.91Zm6.31,2.79L60,96.39,63.74,85.1C63.22,85,62.71,84.85,62.21,84.7Zm-1.47-.48-.92,3.33,1.35-3.18Zm-2.41-1-2.77,7.45,3.73-7ZM89.9,76.62l8.37,6-7.5-7.1C90.5,75.93,90.2,76.28,89.9,76.62Zm-1.82,1.89,9.12,8-8-9.12C88.85,77.76,88.47,78.14,88.08,78.51Zm4.54-5.6,10,4.85-9.28-6.13C93.12,72.06,92.88,72.49,92.62,72.91Zm2.79-6.31,11.69,2.25L95.81,65.07C95.69,65.59,95.55,66.1,95.41,66.61Zm-8.57,13,3.79,3.89-3.24-4.36ZM76.12,85l3.65,10.5L77.55,84.63Q76.85,84.84,76.12,85Zm5-1.79,1.71,3L81.59,83Zm-2.41,1,3.31,7.22-2.32-7.6Zm6.61-3.48,5,5.85-4.21-6.47Zm-2.82,1.78,6.68,9.86L83.92,81.73C83.47,82,83,82.27,82.55,82.53Zm-38.44-31L32.42,49.24,43.71,53Q43.89,52.25,44.11,51.5ZM63.4,33.09l-3.65-10.5L62,33.48Q62.68,33.26,63.4,33.09Zm-2.64.79-3.31-7.22,2.32,7.6ZM57,35.58l-6.68-9.86L55.6,36.38Q56.27,36,57,35.58Zm8.47-2.91-1-4.06.44,4.15ZM54.15,37.35l-5-5.85L53.33,38Zm4.2-2.48-1.71-3,1.29,3.21Zm13.88-2.44L72.3,27l-.79,5.37Zm-2.47-.11h.81l-.81-12.1L69,32.33Zm-1.82.06L66.29,22.19l.28,10.32C67,32.46,67.48,32.41,67.94,32.38Zm.7,0-.5-4.15-.06,4.18ZM43.79,65.41l-10.5,3.65,10.89-2.22Q44,66.14,43.79,65.41Zm6.51,12-8,9.12,9.12-8Q50.85,78,50.3,77.37ZM43,59.05c0-.27,0-.54,0-.81l-12.1.81,12.1.81C43,59.59,43,59.32,43,59.05Zm.06,1.82L32.9,62.52l10.32-.28Q43.14,61.56,43.09,60.87Zm5,13.79-5.85,5,6.47-4.2Q48.36,75.08,48.06,74.66Zm-1.78-2.82-9.86,6.68,10.66-5.31C46.81,72.76,46.54,72.31,46.28,71.84Zm6.4-33.36L48.89,34.6,52.14,39Zm-3.07,3-8.37-6,7.5,7.1Q49.17,42,49.62,41.48Zm24.45-8.81L74.65,25,73,32.52ZM51.44,39.59l-9.12-8,8,9.12Q50.85,40.14,51.44,39.59Zm-4.54,5.6-10-4.84,9.28,6.13C46.4,46,46.64,45.61,46.9,45.19Z"/></g><use width="257.01" height="223.64" transform="translate(10.68 58.98) scale(0.18 0.12)" xlink:href="#New_Symbol"/><use width="257.01" height="223.64" transform="translate(30.4 59.86) scale(0.18 0.12)" xlink:href="#New_Symbol"/><use width="257.01" height="223.64" transform="translate(37.4 61.23) scale(0.18 0.12)" xlink:href="#New_Symbol"/><use width="257.01" height="223.64" transform="translate(45.1 59.6) scale(0.18 0.12)" xlink:href="#New_Symbol"/><use width="257.01" height="223.64" transform="translate(84.62 48.72) scale(0.12 0.16)" xlink:href="#New_Symbol"/><use width="257.01" height="223.64" transform="translate(98.38 49.86) scale(0.12 0.16)" xlink:href="#New_Symbol"/><use width="257.01" height="223.64" transform="translate(103.27 51.64) scale(0.12 0.16)" xlink:href="#New_Symbol"/><use width="257.01" height="223.64" transform="translate(108.64 49.52) scale(0.12 0.16)" xlink:href="#New_Symbol"/><use width="257.01" height="223.64" transform="translate(49.51 37.2) scale(0.17 0.23)" xlink:href="#New_Symbol"/><use width="257.01" height="223.64" transform="translate(69.02 38.82) scale(0.17 0.23)" xlink:href="#New_Symbol"/><use width="257.01" height="223.64" transform="translate(75.95 41.34) scale(0.17 0.23)" xlink:href="#New_Symbol"/><use width="257.01" height="223.64" transform="translate(83.57 38.33) scale(0.17 0.23)" xlink:href="#New_Symbol"/><use width="257.01" height="223.64" transform="translate(42.31 72.15) scale(0.12 0.11)" xlink:href="#New_Symbol"/><use width="257.01" height="223.64" transform="translate(55.89 72.95) scale(0.12 0.11)" xlink:href="#New_Symbol"/><use width="257.01" height="223.64" transform="translate(60.71 74.18) scale(0.12 0.11)" xlink:href="#New_Symbol"/><use width="257.01" height="223.64" transform="translate(66.01 72.71) scale(0.12 0.11)" xlink:href="#New_Symbol"/><use width="257.01" height="223.64" transform="translate(58.42 75.47) rotate(180) scale(0.09 0.14)" xlink:href="#New_Symbol"/><use width="257.01" height="223.64" transform="translate(48.87 74.5) rotate(180) scale(0.09 0.14)" xlink:href="#New_Symbol"/><use width="257.01" height="223.64" transform="translate(45.48 73.01) rotate(180) scale(0.09 0.14)" xlink:href="#New_Symbol"/><use width="257.01" height="223.64" transform="translate(41.75 74.79) rotate(180) scale(0.09 0.14)" xlink:href="#New_Symbol"/><use width="257.01" height="223.64" transform="translate(82.75 88.3) scale(0.12 0.04)" xlink:href="#New_Symbol"/><use width="257.01" height="223.64" transform="translate(17.37 57.07) scale(0.19 0.15)" xlink:href="#New_Symbol_2"/><use width="257.01" height="223.64" transform="translate(53.56 66.23) scale(0.19 0.15)" xlink:href="#New_Symbol_2"/><use width="257.01" height="223.64" transform="translate(84.36 50.21) scale(0.19 0.15)" xlink:href="#New_Symbol_2"/><use width="257.01" height="223.64" transform="translate(72.84 58.46) scale(0.19 0.15)" xlink:href="#New_Symbol_2"/><use width="257.01" height="223.64" transform="translate(62.03 58.89) scale(0.18)" xlink:href="#New_Symbol_2"/><use width="257.01" height="223.64" transform="translate(56.76 52.07) scale(0.18)" xlink:href="#New_Symbol_2"/><use width="257.01" height="223.64" transform="translate(40.17 55.83) scale(0.17 0.16)" xlink:href="#New_Symbol_2"/><use width="257.01" height="223.64" transform="translate(94.47 49.32) scale(0.17 0.16)" xlink:href="#New_Symbol_2"/><use width="257.01" height="223.64" transform="translate(15.39 47.72) scale(0.19)" xlink:href="#New_Symbol_2"/><use width="257.01" height="223.64" transform="translate(75.75 40.18) scale(0.19)" xlink:href="#New_Symbol_2"/><use width="174.77" height="164.37" transform="translate(43.85 61.68) scale(0.31 0.14)" xlink:href="#New_Symbol_3"/><use width="174.77" height="164.37" transform="translate(12.43 59.24) scale(0.31 0.14)" xlink:href="#New_Symbol_3"/></g></g></g></svg>