<svg xmlns="http://www.w3.org/2000/svg" xmlns:xlink="http://www.w3.org/1999/xlink" viewBox="0 0 208.49 215.1"><defs><style>.cls-1{fill:#fff;}.cls-2{fill:#d9dee1;}.cls-3{fill:url(#linear-gradient);}.cls-4{fill:url(#linear-gradient-2);}.cls-5{fill:url(#linear-gradient-3);}.cls-6{fill:url(#linear-gradient-4);}.cls-7{fill:url(#linear-gradient-5);}</style><linearGradient id="linear-gradient" x1="-65.75" y1="191.49" x2="-65.75" y2="270.15" gradientTransform="translate(175.46 -136.52) rotate(1.39)" gradientUnits="userSpaceOnUse"><stop offset="0" stop-color="#fff"/><stop offset="1" stop-color="#c7c7c7"/></linearGradient><linearGradient id="linear-gradient-2" x1="-62.39" y1="207.3" x2="-61.39" y2="263.73" xlink:href="#linear-gradient"/><linearGradient id="linear-gradient-3" x1="103.06" y1="100.8" x2="103.06" y2="131.94" gradientUnits="userSpaceOnUse"><stop offset="0" stop-color="#dfdfdf"/><stop offset="1" stop-color="#a8a8a8"/></linearGradient><linearGradient id="linear-gradient-4" x1="69.53" y1="141.36" x2="69.53" y2="196.34" gradientUnits="userSpaceOnUse"><stop offset="0" stop-color="#84d9ff"/><stop offset="1" stop-color="#2999f5"/></linearGradient><linearGradient id="linear-gradient-5" x1="130.53" y1="141.36" x2="130.53" y2="196.34" xlink:href="#linear-gradient-4"/></defs><title>Ресурс 18weather2</title><g id="Слой_2" data-name="Слой 2"><g id="icons"><path class="cls-1" d="M190.28,43.33c-9.46-8.85-21.82-14-35.93-15.06A55.39,55.39,0,0,0,139,11.74,63.48,63.48,0,0,0,104.39,0l-1.44,0A57.3,57.3,0,0,0,71.81,9.05a47.88,47.88,0,0,0-11,9.89h-.23A35.19,35.19,0,0,0,29.33,38a33.08,33.08,0,0,0-2.58,6.94,44.92,44.92,0,0,0-7.84,5.17,52.87,52.87,0,0,0-15.23,21A49.19,49.19,0,0,0,.54,96.84a43.59,43.59,0,0,0,14,25.83c6.76,6.14,16.09,11.13,27.79,14.89A22.2,22.2,0,0,0,30.65,170a22.28,22.28,0,0,0-2.44,5.75,22,22,0,0,0,2.21,16.82,22.24,22.24,0,0,0,19.22,11.1h.46a22.17,22.17,0,0,0,38.85,0h.46A22.16,22.16,0,0,0,100,200.89a22.16,22.16,0,0,0,10.61,2.73h.46a22.17,22.17,0,0,0,38.85,0h.46a22.21,22.21,0,0,0,19-33.66,22.26,22.26,0,0,0,2.44-5.74,22.13,22.13,0,0,0-10.11-24.8c14.51-4.27,25.81-10.6,33.64-18.9,9.65-10.23,14.13-23.23,12.94-37.62C207,66.8,200.75,53.12,190.28,43.33Z"/><path class="cls-2" d="M100.88,130.94c-36.4-.88-63.49-7.76-76.29-19.38a28.75,28.75,0,0,1-9.23-17,34.18,34.18,0,0,1,2.25-17.86,37.61,37.61,0,0,1,10.8-14.95,27.11,27.11,0,0,1,12.67-6,17.38,17.38,0,0,1,1.65-11,20,20,0,0,1,18.39-10.8A21.11,21.11,0,0,1,68.3,35.4,30.92,30.92,0,0,1,80,21.59,42.18,42.18,0,0,1,104,15a48.12,48.12,0,0,1,26.25,8.91,38.21,38.21,0,0,1,14.48,19.29c1.92-.13,3.82-.17,5.65-.13,11.85.29,22.1,4.16,29.62,11.2,7.7,7.2,12.31,17.52,13.32,29.84.84,10.16-2.16,18.94-8.9,26.09-18.26,19.35-60.2,21.29-83.58,20.73Z"/><path class="cls-3" d="M103.87,21.6c15.9.38,34,11.61,36.81,29.75,26.19-3.77,45.23,10,47.34,37,2.86,36.6-48.09,43.81-87.15,42.86S38.33,122.33,28,112.58C8.55,94.21,29,58.49,49.23,64.37,38.51,50.08,56.9,33.26,71.47,45.64,73.58,29.86,89,21.24,103.87,21.6Z"/><path class="cls-2" d="M107.86,119.79c-8.79-.21-37.13-2.49-50.33-17.64-8.06-9.26-6.88-20.24.7-28.72C64.75,66.13,72.61,66,78,66.16a30.68,30.68,0,0,1,8.44,1.38,15.54,15.54,0,0,1,3.14-7.34c4-5.15,11.1-8.41,18.65-8.49h1.51a31.81,31.81,0,0,1,17.13,5,21.58,21.58,0,0,1,8.77,12,38.41,38.41,0,0,1,4-.11c8.71.21,19.54,3.45,23.8,11.91s.3,23.33-12.12,32.52C141.06,120.59,107.86,119.79,107.86,119.79Z"/><path class="cls-4" d="M157.74,110.62c-8.18,15.06-24.84,18.91-40.28,18.81-16.32-.1-35.62-1-50-9.67-9.1-5.47-17.05-21.37-11.62-33.46,5.52-12.29,22.8-16.64,34.7-9.52-2.63-10.71,7.46-18.1,17.75-18.24,11.7-.15,22.49,5.2,24.21,17.73,8.77-1.7,22.53.62,26.91,9.68C163.46,94.46,162,102.75,157.74,110.62Z"/><path class="cls-5" d="M103.58,97.72c-34,0-75-2.4-75,7.53s28.72,24,74.6,24,74.25-13.34,74.25-21.22S129.85,97.72,103.58,97.72Z"/><path class="cls-2" d="M83.17,36c14.78-.49,24.41,7.44,23,19.72C103.67,47.19,96,44,83.91,43.32S64.53,49.06,62.58,54.94C62.2,43.55,72.48,36.36,83.17,36Z"/><path class="cls-6" d="M95.64,154.88a7.18,7.18,0,0,0-9.81-2.63l-9.12,5.27V147a7.18,7.18,0,1,0-14.36,0v10.53l-9.12-5.27A7.18,7.18,0,0,0,46,164.69L55.17,170,46,175.22a7.18,7.18,0,1,0,7.18,12.43l9.12-5.27v10.53a7.18,7.18,0,0,0,14.36,0V182.39l9.12,5.27A7.18,7.18,0,1,0,93,175.22L83.89,170,93,164.69A7.18,7.18,0,0,0,95.64,154.88Z"/><path class="cls-7" d="M154,175.22,144.88,170l9.12-5.27a7.18,7.18,0,0,0-7.18-12.43l-9.12,5.27V147a7.18,7.18,0,1,0-14.36,0v10.53l-9.12-5.27A7.18,7.18,0,0,0,107,164.69l9.12,5.27L107,175.22a7.18,7.18,0,1,0,7.18,12.43l9.12-5.27v10.53a7.18,7.18,0,1,0,14.36,0V182.39l9.12,5.27A7.18,7.18,0,0,0,154,175.22Z"/></g></g></svg>