<svg xmlns="http://www.w3.org/2000/svg" xmlns:xlink="http://www.w3.org/1999/xlink" viewBox="0 0 231.27 213.03"><defs><style>.cls-1{fill:#fff;}.cls-2{fill:url(#linear-gradient);}.cls-3{fill:url(#linear-gradient-2);}.cls-4{fill:url(#linear-gradient-3);}.cls-5{fill:#1c7ad9;}.cls-6{fill:url(#linear-gradient-4);}.cls-7{fill:url(#linear-gradient-5);}.cls-8{fill:url(#linear-gradient-6);}.cls-9{fill:url(#linear-gradient-7);}.cls-10{fill:url(#linear-gradient-8);}</style><linearGradient id="linear-gradient" x1="137.99" y1="26.77" x2="137.99" y2="197.29" gradientUnits="userSpaceOnUse"><stop offset="0" stop-color="#94d4ff"/><stop offset="1" stop-color="#2e8ce8"/></linearGradient><linearGradient id="linear-gradient-2" x1="126.57" y1="10.16" x2="126.57" y2="202.49" gradientUnits="userSpaceOnUse"><stop offset="0" stop-color="#c2e7ff"/><stop offset="1" stop-color="#4199ec"/></linearGradient><linearGradient id="linear-gradient-3" x1="210.73" y1="146.5" x2="137.69" y2="200.87" xlink:href="#linear-gradient"/><linearGradient id="linear-gradient-4" x1="65.16" y1="164.31" x2="179.03" y2="164.31" xlink:href="#linear-gradient-2"/><linearGradient id="linear-gradient-5" x1="119.17" y1="37.06" x2="105.44" y2="98.86" gradientUnits="userSpaceOnUse"><stop offset="0" stop-color="#e6f5ff"/><stop offset="1" stop-color="#96cffa"/></linearGradient><linearGradient id="linear-gradient-6" x1="184.53" y1="64.07" x2="184.53" y2="168.91" gradientUnits="userSpaceOnUse"><stop offset="0" stop-color="#adf"/><stop offset="1" stop-color="#3f98ec"/></linearGradient><linearGradient id="linear-gradient-7" x1="40.87" y1="16.88" x2="40.87" y2="89.6" gradientTransform="translate(0 0)" gradientUnits="userSpaceOnUse"><stop offset="0" stop-color="#84d9ff"/><stop offset="1" stop-color="#2999f5"/></linearGradient><linearGradient id="linear-gradient-8" x1="115.41" y1="609.79" x2="115.41" y2="640.17" gradientTransform="translate(-177.88 -562.9) rotate(-8.75)" gradientUnits="userSpaceOnUse"><stop offset="0" stop-color="#8ccefd"/><stop offset="1" stop-color="#92d3ff"/></linearGradient></defs><title>Ресурс 22weather2</title><g id="Слой_2" data-name="Слой 2"><g id="icons"><path class="cls-1" d="M40,104.92a39.86,39.86,0,0,0,8.78-1,74.37,74.37,0,0,0-4.12,23.34c0,25.5,9.27,47.29,26.8,63C87.86,204.95,110.65,213,135.68,213c1.5,0,3,0,4.58-.08l1,0,.68,0c1,0,1.9-.08,2.83-.15l1.26-.1.94-.08c.77-.06,1.55-.12,2.32-.2l1.33-.15.94-.11c.74-.09,1.47-.17,2.23-.27l1.34-.2.92-.14c.72-.11,1.44-.22,2.14-.34l1.41-.27.8-.15c.73-.14,1.46-.28,2.19-.44l1.43-.32.75-.18c.72-.17,1.44-.33,2.14-.51l1.43-.38.67-.18c.73-.2,1.45-.4,2.16-.61l1.5-.47.48-.15c.75-.24,1.49-.48,2.23-.73l1.47-.53.4-.15c.75-.27,1.49-.55,2.24-.84l1.52-.62.28-.12c.75-.31,1.5-.63,2.23-1l1.6-.74.15-.07c.74-.35,1.48-.7,2.18-1.06l1.58-.82.16-.09c.7-.37,1.4-.75,2.11-1.15s1.11-.64,1.68-1,1.37-.83,2-1.25,1.09-.71,1.66-1.08,1.31-.88,2-1.34,1.07-.77,1.61-1.18,1.19-.9,1.79-1.38l.06,0,.74-.57,6.32-5.13-.21-.42c14.62-14.66,22.29-34.24,22.29-57.11,0-41.38-44.55-87.83-70.9-108.78l-1.28-1-1.38-1.06-1.39-1-1.39-1-1.52-1.09.39-.82L136.19,5.52l-.92,1.85c-4.67.05-12,2-27.49,15.51A265.83,265.83,0,0,0,82.43,48.73c-.78.91-1.56,1.85-2.35,2.8-3-11.22-9.49-22.38-14.71-30.08C53.33,3.72,46.93.71,41.7.1L40.81,0H40C31.89,0,24.83,6,14.83,21.49,9.29,30,2.31,42.83.55,55.11c-2,13.8,1.45,26.62,9.67,36.11A39.49,39.49,0,0,0,40,104.92Z"/><path class="cls-2" d="M135.68,22.38c-9.24-.88-76,61-76,104.88S92.56,198,135.68,198s80.59-22.17,80.59-68.94C216.27,83.15,144.92,23.25,135.68,22.38Z"/><path class="cls-3" d="M59.7,127.26c0,43.91,32.85,70.77,76,70.77,22.2,0,42.89-5.88,57.76-18-28.57,6.76-62.65-1.87-66.81-39.87-4.37-40,11.86-95.52,13.73-99.89,1.44-3.36,5.09-8.18,10.67-8.26-7.43-5.91-13.15-9.46-15.35-9.67C126.44,21.5,59.7,83.34,59.7,127.26Z"/><path class="cls-4" d="M179,182.09a52.68,52.68,0,0,0,22.66-24c-8.88,9.77-29.31,17.73-49.56,19.43A59.92,59.92,0,0,0,179,182.09Z"/><path class="cls-5" d="M134.26,177.22c-35.1-4.55-61.6-25.81-69.1-40.79,2.5,25,31.63,55.78,69.1,55.78,17.94,0,33.05-3.54,44.77-10.11a59.92,59.92,0,0,1-26.9-4.59A84.93,84.93,0,0,1,134.26,177.22Z"/><path class="cls-6" d="M134.26,177.22c-35.1-4.55-61.6-25.81-69.1-40.79,2.5,25,31.63,55.78,69.1,55.78,17.94,0,33.05-3.54,44.77-10.11a59.92,59.92,0,0,1-26.9-4.59A84.93,84.93,0,0,1,134.26,177.22Z"/><path class="cls-7" d="M119.76,40.31c-8.07,6.92-27.47,26.22-28.72,45s18.73,18.11,28.72,6.24,14.36-40,13.11-48.7S124.13,36.56,119.76,40.31Z"/><ellipse class="cls-1" cx="123.01" cy="44.02" rx="8.98" ry="6.24" transform="translate(14.51 116.8) rotate(-53.54)"/><path class="cls-8" d="M201.27,135.18C200.85,108.12,181.7,76.9,175,69.83c-7.2-7.65-8.83-6.25-5.83,1.25,3.33,8.32,12.07,43.29,9.57,64.93-2.05,17.8-10.86,31.37-7.91,38.18,9.22-2.49,17.63-6.11,23.93-10.35A60.28,60.28,0,0,0,201.27,135.18Z"/><path class="cls-9" d="M40,15C37,14.65,17.9,39.83,15.4,57.24,12.48,77.53,26.06,89.92,40,89.92S69.92,77.53,66.19,58C62.76,40,43,15.36,40,15Z"/><path class="cls-10" d="M37.49,20.63c-1.75.12-8,9.66-10,13.76-6,12.5-4.41,20.47.29,20.71S35,43.37,36.37,35.28,39.4,20.5,37.49,20.63Z"/></g></g></svg>