<svg xmlns="http://www.w3.org/2000/svg" xmlns:xlink="http://www.w3.org/1999/xlink" viewBox="0 0 311.07 190.53"><defs><style>.cls-1{fill:#fff;}.cls-2{fill:url(#linear-gradient);}.cls-3{fill:url(#linear-gradient-2);}.cls-4{fill:url(#linear-gradient-3);}.cls-5{fill:url(#linear-gradient-4);}.cls-6{fill:#d9dee1;}.cls-7{fill:url(#linear-gradient-5);}.cls-8{fill:url(#linear-gradient-6);}.cls-9{fill:url(#linear-gradient-7);}.cls-10{fill:url(#linear-gradient-8);}.cls-11{fill:url(#linear-gradient-9);}.cls-12{fill:url(#linear-gradient-10);}.cls-13{fill:#f8d0cc;}.cls-14{fill:#fffad4;}</style><linearGradient id="linear-gradient" x1="161.98" y1="38.34" x2="161.98" y2="106.25" gradientUnits="userSpaceOnUse"><stop offset="0" stop-color="#f09c94"/><stop offset="1" stop-color="#f21400"/></linearGradient><linearGradient id="linear-gradient-2" x1="161.98" y1="28.04" x2="161.98" y2="62.24" gradientUnits="userSpaceOnUse"><stop offset="0" stop-color="#fff391"/><stop offset="1" stop-color="#ffe61f"/></linearGradient><linearGradient id="linear-gradient-3" x1="161.98" y1="40.27" x2="161.98" y2="64.15" gradientUnits="userSpaceOnUse"><stop offset="0.01" stop-color="#ccef6e"/><stop offset="1" stop-color="#b0e61f"/></linearGradient><linearGradient id="linear-gradient-4" x1="161.98" y1="52.49" x2="161.98" y2="82.27" gradientUnits="userSpaceOnUse"><stop offset="0.01" stop-color="#99e7ff"/><stop offset="1" stop-color="#1fcaff"/></linearGradient><linearGradient id="linear-gradient-5" x1="-73.03" y1="204.16" x2="-73.03" y2="268.05" gradientTransform="translate(166.13 -94.66) rotate(1.39)" gradientUnits="userSpaceOnUse"><stop offset="0" stop-color="#fff"/><stop offset="1" stop-color="#c7c7c7"/></linearGradient><linearGradient id="linear-gradient-6" x1="-70.31" y1="217.01" x2="-69.49" y2="262.84" xlink:href="#linear-gradient-5"/><linearGradient id="linear-gradient-7" x1="86.52" y1="146.23" x2="86.52" y2="171.52" gradientUnits="userSpaceOnUse"><stop offset="0" stop-color="#dfdfdf"/><stop offset="1" stop-color="#a8a8a8"/></linearGradient><linearGradient id="linear-gradient-8" x1="63.14" y1="205.38" x2="63.14" y2="269.26" xlink:href="#linear-gradient-5"/><linearGradient id="linear-gradient-9" x1="65.86" y1="218.22" x2="66.68" y2="264.05" xlink:href="#linear-gradient-5"/><linearGradient id="linear-gradient-10" x1="222.62" y1="150.74" x2="222.62" y2="176.03" xlink:href="#linear-gradient-7"/></defs><title>Ресурс 42weather2</title><g id="Слой_2" data-name="Слой 2"><g id="icons"><path class="cls-1" d="M310.91,136c-1.13-13.78-6.5-25.53-15.52-34a47.86,47.86,0,0,0-17.86-10.44C273.14,72.42,265.07,55.11,254,41.2,232.56,14.25,200.74,0,162,0c-19.79,0-37.79,3.51-53.51,10.42A103.34,103.34,0,0,0,70.23,39.16,114.92,114.92,0,0,0,49.62,77,31.39,31.39,0,0,0,24.12,94a30,30,0,0,0-2,5,39.45,39.45,0,0,0-5.75,3.93,45.77,45.77,0,0,0-13.2,18.18A42.76,42.76,0,0,0,.47,143.44,38.18,38.18,0,0,0,12.7,166.08c7,6.38,17.19,11.29,30.21,14.58,11.54,3.13,25.49,4.91,41.47,5.3,1.86,0,3.74.07,5.58.07a166,166,0,0,0,36.86-3.68A85.62,85.62,0,0,0,152,173.19c6.79,5.12,15.86,9.14,27,12,11.54,3.13,25.5,4.92,41.49,5.31,1.86,0,3.74.07,5.58.07h0A165.9,165.9,0,0,0,263,186.85c16.23-3.45,28.57-9.57,36.69-18.17A41.45,41.45,0,0,0,310.91,136Z"/><path class="cls-2" d="M266.39,126.37H254c0-45.67-24.11-99-92-99s-92,49.48-92,95.78H57.56a133.82,133.82,0,0,1,5.75-39.67A100.61,100.61,0,0,1,81.77,48.74a88.46,88.46,0,0,1,32.74-24.59C128.31,18.08,144.28,15,162,15c34,0,61.79,12.29,80.29,35.54C257.83,70.1,266.39,97,266.39,126.37Z"/><path class="cls-3" d="M254.67,125.86H242.3c0-41.79-21.1-86.45-80.33-86.45S81.65,82.61,81.65,123H69.29c0-25.87,7.63-49.31,21.49-66a78.6,78.6,0,0,1,29.1-21.86C132.12,29.78,146.29,27,162,27c30.2,0,54.85,10.92,71.29,31.58,13.8,17.35,21.41,41.23,21.41,67.24Z"/><path class="cls-4" d="M243.63,126.14H231.26c0-36.08-18.2-74.63-69.29-74.63-64.29,0-69.28,55.23-69.28,72.15H80.32c0-22.76,6.72-43.38,18.93-58.08,14.36-17.3,36.05-26.44,62.72-26.44S210.29,48.77,224.78,67c12.15,15.28,18.85,36.28,18.85,59.15Z"/><path class="cls-5" d="M232.24,125.81H219.87c0-30.18-15.21-62.43-57.9-62.43-53.72,0-57.9,46.18-57.9,60.33H91.71c0-19.54,5.78-37.27,16.29-49.91C120.38,58.89,139,51,162,51s41.57,8.3,54.06,24c10.45,13.13,16.2,31.18,16.2,50.8Z"/><path class="cls-6" d="M84.75,170.71c-29.57-.71-51.57-6.3-62-15.74a23.34,23.34,0,0,1-7.5-13.83,27.77,27.77,0,0,1,1.83-14.51,30.54,30.54,0,0,1,8.77-12.14,22,22,0,0,1,10.29-4.85,14.12,14.12,0,0,1,1.34-8.94,16.26,16.26,0,0,1,14.93-8.77,17.09,17.09,0,0,1,5.83,1.18A25.13,25.13,0,0,1,67.82,81.9a34.27,34.27,0,0,1,19.48-5.34,39.07,39.07,0,0,1,21.32,7.24,31,31,0,0,1,11.76,15.67c1.56-.11,3.1-.14,4.59-.1,9.63.23,17.95,3.38,24.06,9.09s10,14.23,10.82,24.24a26.48,26.48,0,0,1-7.23,21.19c-14.83,15.72-48.89,17.29-67.88,16.83Z"/><path class="cls-7" d="M87.18,81.91c12.91.31,27.58,9.43,29.9,24.17,21.27-3.06,36.73,8.12,38.45,30.08,2.32,29.73-39.06,35.58-70.78,34.81S34,163.72,25.57,155.8c-15.81-14.93.78-43.94,17.24-39.16C34.1,105,49,91.38,60.86,101.43,62.58,88.62,75.11,81.62,87.18,81.91Z"/><path class="cls-6" d="M90.42,161.65c-7.14-.17-30.16-2-40.88-14.32C43,139.81,44,130.89,50.11,124c5.3-5.93,11.68-6,16.08-5.9A24.89,24.89,0,0,1,73,119.22a12.62,12.62,0,0,1,2.55-6c3.21-4.18,9-6.83,15.15-6.9H92a25.84,25.84,0,0,1,13.91,4,17.51,17.51,0,0,1,7.13,9.74,31,31,0,0,1,3.21-.09c7.08.17,15.87,2.8,19.33,9.67s.25,19-9.84,26.41C117.38,162.31,90.42,161.65,90.42,161.65Z"/><path class="cls-8" d="M130.93,154.21c-6.64,12.23-20.18,15.36-32.71,15.28-13.25-.08-28.93-.8-40.65-7.85-7.39-4.44-13.85-17.35-9.44-27.17,4.49-10,18.52-13.51,28.18-7.73-2.14-8.7,6.06-14.7,14.41-14.81,9.5-.12,18.27,4.22,19.66,14.4,7.12-1.38,18.3.5,21.85,7.86C135.57,141.08,134.39,147.82,130.93,154.21Z"/><path class="cls-9" d="M86.94,143.73c-27.59,0-60.87-1.95-60.87,6.11s23.33,19.46,60.59,19.46S147,158.46,147,152.06,108.28,143.73,86.94,143.73Z"/><path class="cls-6" d="M70.36,93.6c12-.4,19.83,6,18.69,16-2-6.93-8.28-9.51-18.09-10.07S55.22,104.21,53.65,109C53.34,99.74,61.68,93.89,70.36,93.6Z"/><path class="cls-6" d="M220.85,175.22c-29.56-.71-51.57-6.3-62-15.74a23.34,23.34,0,0,1-7.5-13.83,27.78,27.78,0,0,1,1.83-14.51A30.57,30.57,0,0,1,162,119a22,22,0,0,1,10.29-4.85,14.13,14.13,0,0,1,1.34-8.94,16.26,16.26,0,0,1,14.93-8.77,17.11,17.11,0,0,1,5.83,1.18,25.1,25.1,0,0,1,9.54-11.22,34.25,34.25,0,0,1,19.48-5.34,39.09,39.09,0,0,1,21.32,7.24A31,31,0,0,1,256.49,104c1.56-.11,3.1-.14,4.59-.1,9.63.23,17.94,3.38,24.06,9.09s10,14.23,10.82,24.24a26.48,26.48,0,0,1-7.23,21.19c-14.83,15.72-48.89,17.29-67.88,16.83Z"/><path class="cls-10" d="M223.28,86.42c12.91.31,27.58,9.43,29.9,24.17,21.27-3.06,36.73,8.12,38.45,30.08,2.32,29.73-39.06,35.58-70.78,34.81s-50.79-7.24-59.18-15.16c-15.81-14.92.78-43.93,17.24-39.15-8.71-11.61,6.23-25.27,18.06-15.21C198.68,93.12,211.21,86.12,223.28,86.42Z"/><path class="cls-6" d="M226.53,166.16c-7.14-.17-30.16-2-40.88-14.32-6.55-7.52-5.59-16.44.56-23.33,5.3-5.94,11.68-6,16.08-5.9a24.88,24.88,0,0,1,6.86,1.12,12.64,12.64,0,0,1,2.55-6c3.21-4.18,9-6.83,15.15-6.9h1.23a25.84,25.84,0,0,1,13.91,4,17.52,17.52,0,0,1,7.13,9.74,31.26,31.26,0,0,1,3.21-.09c7.08.17,15.87,2.8,19.33,9.67s.25,19-9.84,26.41C253.49,166.81,226.53,166.16,226.53,166.16Z"/><path class="cls-11" d="M267,158.71c-6.64,12.23-20.18,15.36-32.71,15.28-13.25-.08-28.93-.81-40.65-7.85-7.39-4.44-13.85-17.35-9.44-27.17,4.49-10,18.52-13.51,28.18-7.73-2.13-8.7,6.06-14.7,14.41-14.81,9.5-.12,18.27,4.22,19.66,14.4,7.12-1.38,18.3.5,21.85,7.86C271.68,145.59,270.5,152.32,267,158.71Z"/><path class="cls-12" d="M223,148.23c-27.59,0-60.87-1.95-60.87,6.11s23.33,19.45,60.59,19.45,60.3-10.84,60.3-17.23S244.38,148.23,223,148.23Z"/><path class="cls-6" d="M206.47,98.11c12-.4,19.83,6,18.69,16-2-6.93-8.28-9.51-18.09-10.07s-15.74,4.66-17.32,9.44C189.44,104.24,197.79,98.4,206.47,98.11Z"/><path class="cls-13" d="M162.08,19.93c22.16,0,42.88,5.16,62,16C204.38,22,180.86,16.82,162.17,16.78H162c-18.68,0-42.2,5.26-61.92,19.16C119.19,25.09,139.92,19.94,162.08,19.93Z"/><path class="cls-14" d="M162.08,32a113.28,113.28,0,0,1,59,16c-18.76-13.9-41.15-19.12-58.92-19.16H162c-17.78,0-40.16,5.26-58.92,19.16A113.27,113.27,0,0,1,162.08,32Z"/></g></g></svg>