<svg xmlns="http://www.w3.org/2000/svg" xmlns:xlink="http://www.w3.org/1999/xlink" viewBox="0 0 151.73 150.94"><defs><style>.cls-1{fill:url(#radial-gradient);}.cls-2{fill:url(#radial-gradient-2);}.cls-3{fill:url(#radial-gradient-3);}.cls-4{fill:url(#radial-gradient-4);}.cls-5{fill:url(#radial-gradient-5);}.cls-6{fill:url(#radial-gradient-6);}.cls-7{fill:url(#radial-gradient-7);}.cls-8{fill:url(#radial-gradient-8);}.cls-9{fill:url(#radial-gradient-9);}.cls-10{fill:url(#radial-gradient-10);}.cls-11{fill:url(#radial-gradient-11);}.cls-12{fill:url(#radial-gradient-12);}.cls-13{fill:url(#radial-gradient-13);}.cls-14{fill:url(#radial-gradient-14);}.cls-15{fill:url(#radial-gradient-15);}.cls-16{fill:url(#radial-gradient-16);}.cls-17{fill:url(#radial-gradient-17);}.cls-18{fill:url(#radial-gradient-18);}.cls-19{fill:url(#radial-gradient-19);}.cls-20{fill:url(#radial-gradient-20);}.cls-21{fill:url(#radial-gradient-21);}.cls-22{fill:url(#radial-gradient-22);}.cls-23{fill:url(#radial-gradient-23);}.cls-24{fill:url(#radial-gradient-24);}.cls-25{fill:url(#radial-gradient-25);}.cls-26{fill:url(#radial-gradient-26);}.cls-27{fill:url(#radial-gradient-27);}.cls-28{fill:url(#radial-gradient-28);}.cls-29{fill:url(#radial-gradient-29);}.cls-30{mask:url(#mask);}.cls-31{fill:#1b75bb;}.cls-32{mask:url(#mask-2);}.cls-33{fill:#fff;}.cls-34{mask:url(#mask-3);}.cls-35{mask:url(#mask-4);}.cls-36{mask:url(#mask-5);}.cls-37{mask:url(#mask-6);}.cls-38{mask:url(#mask-7);}.cls-39{mask:url(#mask-8);}.cls-40{mask:url(#mask-9);}.cls-41{mask:url(#mask-10);}.cls-42{mask:url(#mask-11);}.cls-43{mask:url(#mask-12);}.cls-44{mask:url(#mask-13);}.cls-45{mask:url(#mask-14);}.cls-46{mask:url(#mask-15);}.cls-47{mask:url(#mask-16);}.cls-48{mask:url(#mask-17);}</style><radialGradient id="radial-gradient" cx="75.47" cy="75.47" r="75.47" gradientUnits="userSpaceOnUse"><stop offset="0" stop-color="#fff"/><stop offset="0.16" stop-color="#ddd"/><stop offset="0.51" stop-color="#858585"/><stop offset="1"/></radialGradient><radialGradient id="radial-gradient-2" cx="24.01" cy="92.12" r="3.22" xlink:href="#radial-gradient"/><radialGradient id="radial-gradient-3" cx="97.87" cy="100.54" r="1.12" xlink:href="#radial-gradient"/><radialGradient id="radial-gradient-4" cx="41.31" cy="103.74" r="1.12" xlink:href="#radial-gradient"/><radialGradient id="radial-gradient-5" cx="58.42" cy="119.34" r="1.12" xlink:href="#radial-gradient"/><radialGradient id="radial-gradient-6" cx="18.68" cy="83.52" r="1.12" xlink:href="#radial-gradient"/><radialGradient id="radial-gradient-7" cx="72.91" cy="103.25" r="1.12" xlink:href="#radial-gradient"/><radialGradient id="radial-gradient-8" cx="107.12" cy="124.27" r="1.12" xlink:href="#radial-gradient"/><radialGradient id="radial-gradient-9" cx="69.63" cy="132.2" r="1.12" xlink:href="#radial-gradient"/><radialGradient id="radial-gradient-10" cx="40.17" cy="96.68" r="3.22" xlink:href="#radial-gradient"/><radialGradient id="radial-gradient-11" cx="79.55" cy="122.57" r="3.22" xlink:href="#radial-gradient"/><radialGradient id="radial-gradient-12" cx="120.31" cy="113.52" r="3.22" xlink:href="#radial-gradient"/><radialGradient id="radial-gradient-13" cx="86" cy="115.68" r="1.12" xlink:href="#radial-gradient"/><radialGradient id="radial-gradient-14" cx="59.54" cy="109.73" r="1.12" xlink:href="#radial-gradient"/><radialGradient id="radial-gradient-15" cx="84.63" cy="106.75" r="1.12" xlink:href="#radial-gradient"/><radialGradient id="radial-gradient-16" cx="124.65" cy="100.67" r="1.12" xlink:href="#radial-gradient"/><radialGradient id="radial-gradient-17" cx="133.06" cy="86.9" r="1.12" xlink:href="#radial-gradient"/><radialGradient id="radial-gradient-18" cx="95.12" cy="-1816.76" r="95.12" gradientTransform="translate(0 1622) scale(1 0.84)" gradientUnits="userSpaceOnUse"><stop offset="0" stop-color="#fff"/><stop offset="1" stop-color="#fff" stop-opacity="0"/></radialGradient><radialGradient id="radial-gradient-19" cx="-9050.25" cy="4758.5" r="119.53" gradientTransform="matrix(0, 0.67, -1, 0, 4910.05, 6212.54)" xlink:href="#radial-gradient-18"/><radialGradient id="radial-gradient-20" cx="17411.05" cy="18.6" r="89.72" gradientTransform="matrix(0.64, 0, 0, 1.04, -10965.65, 106.74)" xlink:href="#radial-gradient-18"/><radialGradient id="radial-gradient-21" cx="95.12" cy="-1816.76" r="95.12" gradientTransform="translate(0 1622) scale(1 0.84)" gradientUnits="userSpaceOnUse"><stop offset="0" stop-color="#58595b"/><stop offset="0.23" stop-color="#595a5c" stop-opacity="0.96"/><stop offset="0.44" stop-color="#5b5c5e" stop-opacity="0.84"/><stop offset="0.63" stop-color="#5f6062" stop-opacity="0.65"/><stop offset="0.81" stop-color="#656668" stop-opacity="0.37"/><stop offset="0.99" stop-color="#6d6e70" stop-opacity="0.01"/><stop offset="1" stop-color="#6d6e70" stop-opacity="0"/></radialGradient><radialGradient id="radial-gradient-22" cx="-9050.25" cy="4758.5" r="119.53" gradientTransform="matrix(0, 0.67, -1, 0, 4910.04, 6212.54)" xlink:href="#radial-gradient-21"/><radialGradient id="radial-gradient-23" cx="17411.05" cy="18.6" r="89.72" gradientTransform="matrix(0.64, 0, 0, 1.04, -10965.65, 106.73)" xlink:href="#radial-gradient-21"/><radialGradient id="radial-gradient-24" cx="95.12" cy="-1816.76" r="95.12" gradientTransform="translate(0 1622) scale(1 0.84)" gradientUnits="userSpaceOnUse"><stop offset="0" stop-color="#bbbdbf"/><stop offset="0.17" stop-color="#bcbec0" stop-opacity="0.98"/><stop offset="0.31" stop-color="#bec0c2" stop-opacity="0.93"/><stop offset="0.45" stop-color="#c2c4c6" stop-opacity="0.83"/><stop offset="0.58" stop-color="#c8cacb" stop-opacity="0.7"/><stop offset="0.71" stop-color="#cfd1d2" stop-opacity="0.53"/><stop offset="0.84" stop-color="#d8dadb" stop-opacity="0.32"/><stop offset="0.97" stop-color="#e3e4e5" stop-opacity="0.07"/><stop offset="1" stop-color="#e6e7e8" stop-opacity="0"/></radialGradient><radialGradient id="radial-gradient-25" cx="-9050.25" cy="4758.5" r="119.53" gradientTransform="matrix(0, 0.67, -1, 0, 4910.04, 6212.54)" xlink:href="#radial-gradient-24"/><radialGradient id="radial-gradient-26" cx="17411.05" cy="18.6" r="89.72" gradientTransform="matrix(0.64, 0, 0, 1.04, -10965.65, 106.73)" xlink:href="#radial-gradient-24"/><radialGradient id="radial-gradient-27" cx="68.47" cy="-1844.62" r="68.47" gradientTransform="translate(0 1617.18) scale(1 0.84)" gradientUnits="userSpaceOnUse"><stop offset="0"/><stop offset="1" stop-opacity="0"/></radialGradient><radialGradient id="radial-gradient-28" cx="-9094.4" cy="4728.06" r="86.04" gradientTransform="matrix(0, 0.67, -1, 0, 4837.09, 6210.96)" xlink:href="#radial-gradient-27"/><radialGradient id="radial-gradient-29" cx="17327.52" cy="-18.19" r="64.58" gradientTransform="matrix(0.64, 0, 0, 1.04, -10970.6, 137.77)" xlink:href="#radial-gradient-27"/><mask id="mask" x="0" y="0" width="150.94" height="150.94" maskUnits="userSpaceOnUse"><circle class="cls-1" cx="75.47" cy="75.47" r="75.47"/></mask><mask id="mask-2" x="20.79" y="88.9" width="6.45" height="6.45" maskUnits="userSpaceOnUse"><circle class="cls-2" cx="24.01" cy="92.12" r="3.22"/></mask><mask id="mask-3" x="36.95" y="93.46" width="6.45" height="6.45" maskUnits="userSpaceOnUse"><circle class="cls-10" cx="40.17" cy="96.68" r="3.22"/></mask><mask id="mask-4" x="76.33" y="119.34" width="6.44" height="6.45" maskUnits="userSpaceOnUse"><circle class="cls-11" cx="79.55" cy="122.57" r="3.22"/></mask><mask id="mask-5" x="117.09" y="110.29" width="6.45" height="6.45" maskUnits="userSpaceOnUse"><circle class="cls-12" cx="120.31" cy="113.52" r="3.22"/></mask><mask id="mask-6" x="84.88" y="114.57" width="2.24" height="2.24" maskUnits="userSpaceOnUse"><circle class="cls-13" cx="86" cy="115.68" r="1.12"/></mask><mask id="mask-7" x="58.42" y="108.61" width="2.24" height="2.24" maskUnits="userSpaceOnUse"><circle class="cls-14" cx="59.54" cy="109.73" r="1.12"/></mask><mask id="mask-8" x="83.51" y="105.63" width="2.24" height="2.24" maskUnits="userSpaceOnUse"><circle class="cls-15" cx="84.63" cy="106.75" r="1.12"/></mask><mask id="mask-9" x="123.53" y="99.55" width="2.24" height="2.24" maskUnits="userSpaceOnUse"><circle class="cls-16" cx="124.65" cy="100.67" r="1.12"/></mask><mask id="mask-10" x="131.95" y="85.78" width="2.24" height="2.24" maskUnits="userSpaceOnUse"><circle class="cls-17" cx="133.06" cy="86.9" r="1.12"/></mask><mask id="mask-11" x="96.75" y="99.42" width="2.24" height="2.24" maskUnits="userSpaceOnUse"><circle class="cls-3" cx="97.87" cy="100.54" r="1.12"/></mask><mask id="mask-12" x="40.19" y="102.63" width="2.24" height="2.24" maskUnits="userSpaceOnUse"><circle class="cls-4" cx="41.31" cy="103.75" r="1.12"/></mask><mask id="mask-13" x="57.3" y="118.22" width="2.24" height="2.24" maskUnits="userSpaceOnUse"><circle class="cls-5" cx="58.42" cy="119.34" r="1.12"/></mask><mask id="mask-14" x="17.56" y="82.4" width="2.24" height="2.24" maskUnits="userSpaceOnUse"><circle class="cls-6" cx="18.68" cy="83.52" r="1.12"/></mask><mask id="mask-15" x="71.79" y="102.13" width="2.24" height="2.24" maskUnits="userSpaceOnUse"><circle class="cls-7" cx="72.91" cy="103.25" r="1.12"/></mask><mask id="mask-16" x="106.01" y="123.15" width="2.24" height="2.24" maskUnits="userSpaceOnUse"><circle class="cls-8" cx="107.12" cy="124.27" r="1.12"/></mask><mask id="mask-17" x="68.51" y="131.08" width="2.24" height="2.24" maskUnits="userSpaceOnUse"><circle class="cls-9" cx="69.63" cy="132.2" r="1.12"/></mask><symbol id="New_Symbol" data-name="New Symbol" viewBox="0 0 257.01 223.64"><ellipse class="cls-18" cx="95.12" cy="100.46" rx="95.12" ry="79.67"/><ellipse class="cls-19" cx="151.78" cy="111.82" rx="119.53" ry="80.57" transform="translate(-19.1 191.45) rotate(-61.36)"/><ellipse class="cls-20" cx="167.61" cy="125.74" rx="57.37" ry="93.72" transform="translate(-12.47 232.87) rotate(-67.62)"/></symbol><symbol id="New_Symbol_2" data-name="New Symbol 2" viewBox="0 0 257.01 223.64"><ellipse class="cls-24" cx="95.12" cy="100.46" rx="95.12" ry="79.67"/><ellipse class="cls-25" cx="151.78" cy="111.82" rx="119.53" ry="80.57" transform="translate(-19.1 191.45) rotate(-61.36)"/><ellipse class="cls-26" cx="167.61" cy="125.74" rx="57.37" ry="93.72" transform="translate(-12.47 232.87) rotate(-67.62)"/></symbol><symbol id="New_Symbol_3" data-name="New Symbol 3" viewBox="0 0 174.77 164.37"><ellipse class="cls-27" cx="68.47" cy="72.31" rx="68.47" ry="57.35"/><ellipse class="cls-28" cx="109.26" cy="80.49" rx="86.04" ry="58" transform="translate(-13.75 137.81) rotate(-61.36)"/><ellipse class="cls-29" cx="109.26" cy="118.34" rx="41.3" ry="67.46" transform="translate(-41.76 174.32) rotate(-67.62)"/></symbol></defs><title>Ресурс 22weather</title><g id="Слой_2" data-name="Слой 2"><g id="Layer_2" data-name="Layer 2"><g class="cls-30"><circle class="cls-31" cx="75.47" cy="75.47" r="75.47"/></g><g class="cls-32"><circle class="cls-33" cx="24.01" cy="92.12" r="3.22"/></g><g class="cls-34"><circle class="cls-33" cx="40.17" cy="96.68" r="3.22"/></g><g class="cls-35"><circle class="cls-33" cx="79.55" cy="122.57" r="3.22"/></g><g class="cls-36"><circle class="cls-33" cx="120.31" cy="113.52" r="3.22"/></g><g class="cls-37"><circle class="cls-33" cx="86" cy="115.68" r="1.12"/></g><g class="cls-38"><circle class="cls-33" cx="59.54" cy="109.73" r="1.12"/></g><g class="cls-39"><circle class="cls-33" cx="84.63" cy="106.75" r="1.12"/></g><g class="cls-40"><circle class="cls-33" cx="124.65" cy="100.67" r="1.12"/></g><g class="cls-41"><circle class="cls-33" cx="133.06" cy="86.9" r="1.12"/></g><g class="cls-42"><circle class="cls-33" cx="97.87" cy="100.54" r="1.12"/></g><g class="cls-43"><circle class="cls-33" cx="41.31" cy="103.75" r="1.12"/></g><g class="cls-44"><circle class="cls-33" cx="58.42" cy="119.34" r="1.12"/></g><g class="cls-45"><circle class="cls-33" cx="18.68" cy="83.52" r="1.12"/></g><g class="cls-46"><circle class="cls-33" cx="72.91" cy="103.25" r="1.12"/></g><g class="cls-47"><circle class="cls-33" cx="107.12" cy="124.27" r="1.12"/></g><g class="cls-48"><circle class="cls-33" cx="69.63" cy="132.2" r="1.12"/></g><path class="cls-33" d="M73.53,113.7a.66.66,0,0,0-.62.44h-.27a1.64,1.64,0,0,0-.33-.79l.19-.19a.65.65,0,1,0-.3-.3L72,113a1.64,1.64,0,0,0-.79-.33v-.27a.65.65,0,1,0-.43,0v.27A1.65,1.65,0,0,0,70,113l-.19-.19a.65.65,0,1,0-.31.3l.19.19a1.65,1.65,0,0,0-.33.79H69.1a.65.65,0,1,0,0,.43h.27a1.66,1.66,0,0,0,.33.79l-.19.19a.65.65,0,1,0,.31.3l.19-.19a1.64,1.64,0,0,0,.79.33v.27a.65.65,0,1,0,.43,0V116a1.66,1.66,0,0,0,.79-.33l.19.19a.65.65,0,1,0,.3-.3l-.19-.19a1.65,1.65,0,0,0,.33-.79h.27a.65.65,0,1,0,.62-.87Zm-1.05-1.45a.45.45,0,1,1,.19.75h-.17l0,0,0,0h0v0h0v0h0v0h0v0h0v0h0v0A.45.45,0,0,1,72.47,112.26Zm-2.82.44v0h0v0h0v0h0v0h0v0h0v0h0l0,0,0,0h-.17a.45.45,0,1,1,.19-.75A.45.45,0,0,1,69.65,112.7Zm-.72,1.68h0v0h0v0h0v0h0v0h0v0h0v0h0v0a.45.45,0,1,1,0-.43v0h0v0h0v0h0v0h0v0h0v0h0v0h0v.05Zm.61,2.07a.45.45,0,0,1-.63-.63.44.44,0,0,1,.44-.11h.17l0,0,0,0h0v0h0v0h0v0h0v0h0v0h0v0h0v0A.45.45,0,0,1,69.54,116.46Zm2.82-.44v0h0v0h0v0h0v0h0v0h0v0h0v0h0l0,0,0,0h.17a.44.44,0,0,1,.44.11.45.45,0,1,1-.74.19Zm-.17-2.54a1.47,1.47,0,0,1,.27.66H71.9a1,1,0,0,0-.11-.27Zm-.3-.3-.4.4a.87.87,0,0,0-.27-.11v-.56A1.42,1.42,0,0,1,71.89,113.18ZM71,114.8a.45.45,0,1,1,.45-.45A.45.45,0,0,1,71,114.8Zm-.45-3a.45.45,0,1,1,.66.39h-.43A.45.45,0,0,1,70.56,111.84Zm.23,1.06v.56a.84.84,0,0,0-.27.11l-.4-.4A1.42,1.42,0,0,1,70.79,112.9Zm-1,.58.4.4a1,1,0,0,0-.11.27h-.56A1.47,1.47,0,0,1,69.82,113.48Zm0,1.76a1.48,1.48,0,0,1-.27-.66h.56a.93.93,0,0,0,.11.27Zm.31.31.4-.4a.84.84,0,0,0,.27.11v.56A1.49,1.49,0,0,1,70.13,115.54Zm1.32,1.34a.45.45,0,1,1-.66-.39h.43A.45.45,0,0,1,71.45,116.88Zm-.23-1.07v-.56a.87.87,0,0,0,.27-.11l.4.4A1.49,1.49,0,0,1,71.22,115.81Zm1-.58-.4-.4a.93.93,0,0,0,.11-.27h.56A1.47,1.47,0,0,1,72.19,115.24Zm1.34-.43a.44.44,0,0,1-.39-.23v0h0v0h0v0h0v0h0v0h0v0h0v0h0v-.05h0v0h0v0h0v0h0v0h0v0h0v0h0v0a.45.45,0,1,1,.39.66Z"/><path class="cls-33" d="M115,104.17a.66.66,0,0,0-.62.44h-.27a1.64,1.64,0,0,0-.33-.79l.19-.19a.65.65,0,1,0-.3-.3l-.19.19a1.64,1.64,0,0,0-.79-.33v-.27a.65.65,0,1,0-.43,0v.27a1.64,1.64,0,0,0-.79.33l-.19-.19a.65.65,0,1,0-.3.3l.19.19a1.64,1.64,0,0,0-.33.79h-.27a.65.65,0,1,0,0,.43h.27a1.64,1.64,0,0,0,.33.79l-.19.19a.65.65,0,1,0,.3.31l.19-.19a1.63,1.63,0,0,0,.79.33v.27a.65.65,0,1,0,.43,0v-.27a1.63,1.63,0,0,0,.79-.33l.19.19a.65.65,0,1,0,.3-.31l-.19-.19a1.65,1.65,0,0,0,.33-.79h.27a.65.65,0,1,0,.62-.87Zm-1.05-1.44a.45.45,0,1,1,.19.74h-.17l0,0,0,0h0v0h0v0h0v0h0v0h0v0h0v0A.45.45,0,0,1,113.91,102.72Zm-2.82.44v0h0v0h0v0h0v0h0l0,0h0v0h0l0,0,0,0h-.17a.45.45,0,1,1,.3-.3Zm-.72,1.68h0v0h0v0h0v0h0v0h0v0h0v0h0v0a.45.45,0,1,1,0-.43v0h0v0h0v0h0v0h0v0h0v0h0v0h0v.05Zm.61,2.07a.45.45,0,1,1-.19-.75H111l0,0,0,0h0v0h0l0,0h0v0h0v0h0v0h0v0A.45.45,0,0,1,111,106.92Zm2.82-.44v0h0v0h0v0h0v0h0v0h0v0h0l0,0,0,0h.17a.45.45,0,1,1-.31.31Zm-.17-2.54a1.46,1.46,0,0,1,.27.66h-.56a.93.93,0,0,0-.11-.27Zm-.3-.3-.4.4a.86.86,0,0,0-.27-.11v-.56A1.45,1.45,0,0,1,113.32,103.64Zm-.88,1.63a.45.45,0,1,1,.45-.45A.45.45,0,0,1,112.44,105.27Zm-.45-3a.45.45,0,1,1,.66.39h-.43A.44.44,0,0,1,112,102.3Zm.23,1.06v.56a.84.84,0,0,0-.27.11l-.4-.4A1.46,1.46,0,0,1,112.23,103.36Zm-1,.58.4.4a.91.91,0,0,0-.11.27H111A1.45,1.45,0,0,1,111.26,103.94Zm0,1.76A1.47,1.47,0,0,1,111,105h.56a.92.92,0,0,0,.11.27Zm.3.3.4-.4a.92.92,0,0,0,.27.11v.56A1.47,1.47,0,0,1,111.56,106Zm1.33,1.34a.45.45,0,1,1-.66-.39h.43A.45.45,0,0,1,112.89,107.34Zm-.23-1.06v-.56a.93.93,0,0,0,.27-.11l.4.4A1.46,1.46,0,0,1,112.66,106.28Zm1-.58-.4-.4a.94.94,0,0,0,.11-.27h.56A1.47,1.47,0,0,1,113.63,105.7Zm1.34-.43a.45.45,0,0,1-.39-.23v0h0v0h0v0h0v0h0v0h0v0h0v0h0v0s0,0,0,0h0v0h0v0h0v0h0v0h0v0h0v0h0v0a.45.45,0,1,1,.39.66Z"/><path class="cls-33" d="M91.48,133.6a.65.65,0,0,0-.62.44H90.6a1.64,1.64,0,0,0-.33-.79l.19-.19a.65.65,0,1,0-.3-.3l-.19.19a1.63,1.63,0,0,0-.79-.33v-.27a.65.65,0,1,0-.43,0v.27a1.63,1.63,0,0,0-.79.33l-.19-.19a.65.65,0,1,0-1.05.18.66.66,0,0,0,.75.13l.19.19a1.63,1.63,0,0,0-.33.79h-.27a.65.65,0,1,0,0,.43h.27a1.64,1.64,0,0,0,.33.79l-.19.19a.65.65,0,1,0,.3.31l.19-.19a1.64,1.64,0,0,0,.79.33v.27a.65.65,0,1,0,.43,0v-.27a1.63,1.63,0,0,0,.79-.33l.19.19a.65.65,0,1,0,.3-.31l-.19-.19a1.66,1.66,0,0,0,.33-.79h.27a.65.65,0,1,0,.62-.87Zm-1.05-1.45a.45.45,0,1,1,.19.74h-.17l0,0,0,0h0v0h0v0h0v0h0v0h0v0h0v0A.45.45,0,0,1,90.43,132.15Zm-2.82.44v0h0v0h0v0h0v0h0v0h0v0h0l0,0,0,0H87.3a.44.44,0,0,1-.44-.11.45.45,0,1,1,.75-.19Zm-.72,1.68h0v0h0v0h0v0h0v0h0v0h0v0h0v0a.45.45,0,1,1,0-.43v0h0v0h0v0h0v0h0v0h0v0h0v0h0v.05Zm.61,2.07a.45.45,0,1,1-.19-.75h.17l0,0,0,0h0v0h0v0h0v0h0v0h0v0h0v0h0v0A.45.45,0,0,1,87.5,136.35Zm2.82-.44v0h0v0h0v0h0v0h0v0h0v0h0v0h0l0,0,0,0h.17a.45.45,0,1,1-.3.3Zm-.17-2.54a1.47,1.47,0,0,1,.27.66h-.56a.91.91,0,0,0-.11-.27Zm-.31-.3-.4.4a.86.86,0,0,0-.27-.11v-.56A1.48,1.48,0,0,1,89.84,133.07ZM89,134.7a.45.45,0,1,1,.45-.45A.45.45,0,0,1,89,134.7Zm-.45-3a.45.45,0,1,1,.66.39h-.43A.45.45,0,0,1,88.52,131.73Zm.23,1.06v.56a.85.85,0,0,0-.27.11l-.4-.4A1.49,1.49,0,0,1,88.75,132.79Zm-1,.58.4.4a.9.9,0,0,0-.11.27H87.5A1.47,1.47,0,0,1,87.78,133.37Zm0,1.76a1.48,1.48,0,0,1-.27-.66h.56a.9.9,0,0,0,.11.27Zm.3.3.4-.4a.86.86,0,0,0,.27.11v.56A1.48,1.48,0,0,1,88.08,135.43Zm1.33,1.34a.45.45,0,0,1-.89,0,.45.45,0,0,1,.23-.39h.43A.45.45,0,0,1,89.41,136.77Zm-.23-1.06v-.56a.88.88,0,0,0,.27-.11l.4.4A1.47,1.47,0,0,1,89.18,135.71Zm1-.58-.4-.4a.91.91,0,0,0,.11-.27h.56A1.48,1.48,0,0,1,90.14,135.13Zm1.34-.43a.45.45,0,0,1-.39-.23v0h0v0h0v0h0v0h0v0h0v0h0v0h0v-.05h0v0h0v0h0v0h0v0h0v0h0v0h0v0a.45.45,0,1,1,.39.66Z"/><path class="cls-33" d="M127.27,86.09a.39.39,0,0,0-.37.26h-.16a1,1,0,0,0-.19-.47l.11-.11a.39.39,0,1,0-.18-.18l-.11.11a1,1,0,0,0-.47-.19v-.16a.4.4,0,0,0,.26-.37.39.39,0,0,0-.78,0,.4.4,0,0,0,.26.37v.16a1,1,0,0,0-.47.19l-.11-.11a.39.39,0,1,0-.18.18l.11.11a1,1,0,0,0-.2.47h-.16a.39.39,0,1,0,0,.25h.16a1,1,0,0,0,.2.47l-.11.11a.39.39,0,1,0,.18.18l.11-.11a1,1,0,0,0,.47.19v.16a.39.39,0,1,0,.26,0v-.16a1,1,0,0,0,.47-.19l.11.11a.39.39,0,1,0,.18-.18l-.11-.11a1,1,0,0,0,.19-.47h.16a.39.39,0,1,0,.37-.51Zm-.63-.86a.27.27,0,0,1,.38,0,.27.27,0,0,1-.26.44h-.18v0A.27.27,0,0,1,126.64,85.23Zm-1.68.26v0h-.18a.27.27,0,0,1-.26-.44.27.27,0,0,1,.44.26Zm-.43,1h0v0h0a.27.27,0,1,1,0-.25h0v0h0v0h0v0Zm.36,1.23a.27.27,0,1,1-.11-.44H125v0A.26.26,0,0,1,124.9,87.73Zm1.68-.26v0h.18a.26.26,0,0,1,.26.07.27.27,0,1,1-.44.12Zm-.1-1.51a.86.86,0,0,1,.16.39h-.33a.51.51,0,0,0-.07-.16Zm-.18-.18-.24.24a.52.52,0,0,0-.16-.07v-.33A.9.9,0,0,1,126.29,85.78Zm-.52,1a.27.27,0,1,1,.27-.26A.27.27,0,0,1,125.77,86.75ZM125.51,85a.27.27,0,0,1,.53,0,.26.26,0,0,1-.14.23h-.26A.26.26,0,0,1,125.51,85Zm.14.63v.33a.52.52,0,0,0-.16.07l-.24-.24A.9.9,0,0,1,125.64,85.61Zm-.57.35.24.24a.54.54,0,0,0-.07.16h-.33A.87.87,0,0,1,125.07,86Zm0,1a.88.88,0,0,1-.16-.4h.33a.57.57,0,0,0,.07.16Zm.18.18.24-.23a.55.55,0,0,0,.16.07v.33A.83.83,0,0,1,125.25,87.18Zm.79.8a.27.27,0,1,1-.39-.23h.26A.26.26,0,0,1,126,88Zm-.14-.63V87a.55.55,0,0,0,.16-.07l.24.23A.84.84,0,0,1,125.9,87.35Zm.58-.34-.24-.24a.54.54,0,0,0,.07-.16h.33A.87.87,0,0,1,126.47,87Zm.8-.26a.27.27,0,0,1-.23-.14h0v0h0v0h0v0h0v0h0a.27.27,0,1,1,.23.39Z"/><path class="cls-33" d="M56.86,94.41a.39.39,0,0,0-.37.26h-.16a1,1,0,0,0-.19-.47l.11-.11a.39.39,0,1,0-.18-.18L56,94a1,1,0,0,0-.47-.19v-.16a.39.39,0,1,0-.26,0v.16a1,1,0,0,0-.47.2l-.11-.11a.39.39,0,1,0-.18.18l.11.11a1,1,0,0,0-.19.47h-.16a.39.39,0,1,0,0,.26h.16a1,1,0,0,0,.19.47l-.11.11a.39.39,0,1,0,.18.18l.11-.11a1,1,0,0,0,.47.19v.16a.39.39,0,1,0,.26,0v-.16a1,1,0,0,0,.47-.19l.11.11a.39.39,0,1,0,.18-.18l-.11-.11a1,1,0,0,0,.19-.47h.16a.39.39,0,1,0,.37-.52Zm-.63-.86a.27.27,0,1,1,.11.44h-.18A.26.26,0,0,1,56.23,93.55Zm-1.68.26v0h-.18a.26.26,0,1,1,.18-.18Zm-.43,1h0v0h0v0h0a.27.27,0,1,1,0-.26v0h0v0ZM54.49,96a.26.26,0,1,1-.37-.37.27.27,0,0,1,.26-.07h.18A.26.26,0,0,1,54.49,96Zm1.68-.26h.18a.27.27,0,0,1,.26.44.27.27,0,0,1-.44-.26Zm-.1-1.51a.87.87,0,0,1,.16.39h-.33a.53.53,0,0,0-.07-.16Zm-.18-.18-.23.24a.57.57,0,0,0-.16-.07v-.33A.88.88,0,0,1,55.88,94.09Zm-.52,1a.27.27,0,1,1,.27-.27A.27.27,0,0,1,55.36,95.06Zm-.27-1.76a.27.27,0,1,1,.39.23h-.26A.26.26,0,0,1,55.09,93.3Zm.14.63v.33a.55.55,0,0,0-.16.07l-.24-.24A.89.89,0,0,1,55.23,93.93Zm-.58.34.24.24a.53.53,0,0,0-.07.16h-.33A.88.88,0,0,1,54.66,94.27Zm0,1a.88.88,0,0,1-.16-.39h.33a.57.57,0,0,0,.07.16Zm.18.18.24-.24.16.07v.33A.88.88,0,0,1,54.84,95.5Zm.79.8a.27.27,0,1,1-.39-.23h.26A.27.27,0,0,1,55.63,96.29Zm-.14-.63v-.33l.16-.07.23.24A.87.87,0,0,1,55.49,95.66Zm.58-.35-.24-.23a.57.57,0,0,0,.07-.16h.33A.87.87,0,0,1,56.06,95.32Zm.79-.26a.27.27,0,0,1-.23-.14h0v0h0v0a.27.27,0,0,1,.5.13A.26.26,0,0,1,56.86,95.06Z"/><path class="cls-33" d="M103.21,113.53a.39.39,0,0,0-.37.26h-.16a1,1,0,0,0-.19-.47l.11-.11a.39.39,0,1,0-.18-.18l-.11.11a1,1,0,0,0-.47-.2v-.16a.39.39,0,1,0-.26,0v.16a1,1,0,0,0-.47.2L101,113a.39.39,0,1,0-.18.18l.11.11a1,1,0,0,0-.19.47h-.16a.39.39,0,0,0-.75.13.39.39,0,0,0,.75.13h.16a1,1,0,0,0,.19.47l-.11.11a.39.39,0,1,0,.18.18l.11-.11a1,1,0,0,0,.47.2v.16a.39.39,0,1,0,.26,0v-.16a1,1,0,0,0,.47-.2l.11.11a.39.39,0,1,0,.18-.18l-.11-.11a1,1,0,0,0,.19-.47h.16a.39.39,0,1,0,.37-.52Zm-.63-.86a.27.27,0,1,1,.11.44h-.17v0A.26.26,0,0,1,102.58,112.67Zm-1.68.26v0h-.18a.26.26,0,0,1-.26-.07.27.27,0,1,1,.44-.12Zm-.43,1h0a.27.27,0,1,1-.23-.39.26.26,0,0,1,.23.14h0v0h0Zm.36,1.23a.27.27,0,1,1-.11-.44h.18A.27.27,0,0,1,100.84,115.17Zm1.68-.26h.18a.26.26,0,1,1-.18.18Zm-.1-1.51a.87.87,0,0,1,.16.39h-.33a.54.54,0,0,0-.06-.16Zm-.18-.18-.24.24a.56.56,0,0,0-.16-.07v-.33A.86.86,0,0,1,102.23,113.22Zm-.52,1a.27.27,0,1,1,.27-.26A.27.27,0,0,1,101.71,114.19Zm-.27-1.76a.27.27,0,1,1,.39.23h-.26A.26.26,0,0,1,101.44,112.42Zm.14.63v.33a.55.55,0,0,0-.16.07l-.24-.24A.86.86,0,0,1,101.58,113.05Zm-.57.34.24.24a.57.57,0,0,0-.07.16h-.33A.89.89,0,0,1,101,113.4Zm0,1a.88.88,0,0,1-.16-.39h.33a.56.56,0,0,0,.07.16Zm.18.18.24-.24.16.07v.33A.88.88,0,0,1,101.19,114.62Zm.79.79a.27.27,0,1,1-.39-.23h.26A.27.27,0,0,1,102,115.42Zm-.14-.63v-.33l.16-.07.24.24A.88.88,0,0,1,101.84,114.79Zm.58-.35-.24-.24a.53.53,0,0,0,.06-.16h.33A.87.87,0,0,1,102.41,114.44Zm.8-.26A.27.27,0,0,1,103,114h0v0h0v0h0a.26.26,0,0,1,.23-.14.27.27,0,1,1,0,.53Z"/><path class="cls-33" d="M44.89,122.76a.39.39,0,0,0-.37.26h-.16a1,1,0,0,0-.19-.47l.11-.11a.39.39,0,0,0,.44-.07.39.39,0,1,0-.62-.11l-.11.11a1,1,0,0,0-.47-.19V122a.39.39,0,1,0-.26,0v.16a1,1,0,0,0-.47.19l-.11-.11a.39.39,0,1,0-.62.11.39.39,0,0,0,.44.07l.11.11a1,1,0,0,0-.19.47h-.16a.39.39,0,1,0,0,.25h.16a1,1,0,0,0,.19.47l-.11.11a.39.39,0,0,0-.44.08.39.39,0,1,0,.62.11l.11-.11a1,1,0,0,0,.47.2v.16a.39.39,0,1,0,.26,0v-.16a1,1,0,0,0,.47-.2l.11.11a.39.39,0,1,0,.62-.11.39.39,0,0,0-.44-.08l-.11-.11a1,1,0,0,0,.19-.47h.16a.39.39,0,1,0,.37-.52Zm-.63-.86a.26.26,0,0,1,.38,0,.27.27,0,0,1,0,.38.28.28,0,0,1-.26.07H44.2v0A.26.26,0,0,1,44.27,121.9Zm-1.68.26v0h-.18a.27.27,0,0,1-.26-.07.27.27,0,1,1,.44-.11Zm-.43,1h0v0h0a.27.27,0,1,1,0-.25h0v0h0Zm.36,1.23a.27.27,0,1,1-.11-.44h.18A.27.27,0,0,1,42.52,124.4Zm1.68-.26h.18a.27.27,0,0,1,.26.44.27.27,0,0,1-.44-.26Zm-.1-1.51a.87.87,0,0,1,.16.4h-.33a.57.57,0,0,0-.06-.16Zm-.18-.18-.24.24-.16-.07v-.33A.83.83,0,0,1,43.92,122.45Zm-.52,1a.27.27,0,1,1,.27-.27A.27.27,0,0,1,43.39,123.42Zm-.27-1.76a.27.27,0,0,1,.53,0,.27.27,0,0,1-.14.23h-.26A.27.27,0,0,1,43.13,121.65Zm.14.63v.33l-.16.07-.24-.24A.84.84,0,0,1,43.26,122.29Zm-.57.34.24.24a.53.53,0,0,0-.07.16h-.33A.87.87,0,0,1,42.69,122.63Zm0,1a.87.87,0,0,1-.16-.4h.33a.53.53,0,0,0,.07.16Zm.18.18.24-.24a.47.47,0,0,0,.16.07V124A.9.9,0,0,1,42.87,123.85Zm.79.8a.27.27,0,1,1-.39-.23h.26A.27.27,0,0,1,43.66,124.65Zm-.14-.63v-.34a.47.47,0,0,0,.16-.07l.24.24A.89.89,0,0,1,43.52,124Zm.58-.34-.24-.24a.57.57,0,0,0,.06-.16h.33A.87.87,0,0,1,44.1,123.67Zm.79-.26a.26.26,0,0,1-.23-.14h0v0h0v0h0v0h0a.27.27,0,1,1,.23.39Z"/><path class="cls-33" d="M52.06,107.48a.39.39,0,0,0-.37.26h-.16a1,1,0,0,0-.19-.47l.11-.11a.39.39,0,1,0-.18-.18l-.11.11a1,1,0,0,0-.47-.2v-.16a.39.39,0,1,0-.26,0v.16a1,1,0,0,0-.47.2l-.11-.11a.39.39,0,1,0-.18.18l.11.11a1,1,0,0,0-.19.47h-.16a.39.39,0,1,0,0,.26h.16a1,1,0,0,0,.19.47l-.11.11a.39.39,0,1,0,.11.62.39.39,0,0,0,.07-.44l.11-.11a1,1,0,0,0,.47.2V109a.39.39,0,1,0,.26,0v-.16a1,1,0,0,0,.47-.2l.11.11a.39.39,0,1,0,.62-.1.38.38,0,0,0-.44-.08l-.11-.11a1,1,0,0,0,.19-.47h.16a.39.39,0,1,0,.37-.52Zm-.63-.86a.27.27,0,1,1,.11.44h-.18A.27.27,0,0,1,51.43,106.62Zm-1.68.26h-.18a.27.27,0,1,1,.18-.18Zm-.43,1h0a.26.26,0,1,1,0-.26h0v0h0v0h0Zm.36,1.23a.27.27,0,1,1-.11-.44h.18v0A.27.27,0,0,1,49.69,109.11Zm1.68-.26v0h.18a.27.27,0,1,1-.11.44A.27.27,0,0,1,51.36,108.85Zm-.1-1.51a.88.88,0,0,1,.16.39h-.33a.52.52,0,0,0-.07-.16Zm-.18-.18-.24.24-.16-.07V107A.87.87,0,0,1,51.08,107.16Zm-.52,1a.27.27,0,1,1,.27-.27A.27.27,0,0,1,50.56,108.13Zm-.27-1.76a.27.27,0,1,1,.53,0,.26.26,0,0,1-.14.23h-.26A.26.26,0,0,1,50.29,106.37Zm.14.63v.33l-.16.07-.24-.24A.87.87,0,0,1,50.43,107Zm-.57.34.24.24a.55.55,0,0,0-.06.16h-.33A.88.88,0,0,1,49.86,107.34Zm0,1a.88.88,0,0,1-.16-.4H50a.55.55,0,0,0,.06.16Zm.18.18.24-.24a.5.5,0,0,0,.16.07v.34A.88.88,0,0,1,50,108.57Zm.79.79a.27.27,0,1,1-.53,0,.26.26,0,0,1,.14-.23h.26A.26.26,0,0,1,50.83,109.36Zm-.14-.63v-.34a.52.52,0,0,0,.16-.07l.24.24A.89.89,0,0,1,50.69,108.73Zm.58-.34-.24-.24a.52.52,0,0,0,.07-.16h.33A.89.89,0,0,1,51.26,108.39Zm.79-.26a.27.27,0,0,1-.23-.14h0v0h0v0h0v0h0a.27.27,0,1,1,.23.39Z"/><use width="257.01" height="223.64" transform="matrix(-0.11, -0.01, 0, -0.16, 70.64, 65.49)" xlink:href="#New_Symbol"/><use width="257.01" height="223.64" transform="matrix(-0.11, -0.01, 0, -0.16, 58.29, 62.9)" xlink:href="#New_Symbol"/><use width="257.01" height="223.64" transform="matrix(-0.11, -0.01, 0, -0.16, 53.9, 60.61)" xlink:href="#New_Symbol"/><use width="257.01" height="223.64" transform="matrix(-0.11, -0.01, 0, -0.16, 49.08, 62.17)" xlink:href="#New_Symbol"/><use width="257.01" height="223.64" transform="matrix(-0.16, -0.02, 0, -0.23, 102.19, 80.68)" xlink:href="#New_Symbol"/><use width="257.01" height="223.64" transform="matrix(-0.16, -0.02, 0, -0.23, 84.66, 77.01)" xlink:href="#New_Symbol"/><use width="257.01" height="223.64" transform="matrix(-0.16, -0.02, 0, -0.23, 78.44, 73.77)" xlink:href="#New_Symbol"/><use width="257.01" height="223.64" transform="matrix(-0.16, -0.02, 0, -0.23, 71.6, 75.98)" xlink:href="#New_Symbol"/><use width="257.01" height="223.64" transform="matrix(-0.17, -0.02, 0, -0.15, 131.07, 64.18)" xlink:href="#New_Symbol_2"/><use width="257.01" height="223.64" transform="matrix(-0.17, -0.02, 0, -0.15, 98.55, 51.23)" xlink:href="#New_Symbol_2"/><use width="257.01" height="223.64" transform="matrix(-0.17, -0.02, 0, -0.15, 70.86, 64.01)" xlink:href="#New_Symbol_2"/><use width="257.01" height="223.64" transform="matrix(-0.17, -0.02, 0, -0.15, 81.21, 56.97)" xlink:href="#New_Symbol_2"/><use width="257.01" height="223.64" transform="matrix(-0.17, -0.02, 0, -0.19, 151.73, 71.72)" xlink:href="#New_Symbol_2"/><use width="257.01" height="223.64" transform="matrix(-0.17, -0.02, 0, -0.19, 97.5, 72.94)" xlink:href="#New_Symbol_2"/><use width="257.01" height="223.64" transform="matrix(0.12, 0.02, 0, 0.19, 0.01, 24.34)" xlink:href="#New_Symbol_2"/><use width="257.01" height="223.64" transform="matrix(0.12, 0.02, 0, 0.19, 39.96, 23.12)" xlink:href="#New_Symbol_2"/><use width="257.01" height="223.64" transform="translate(9.54 53.18) scale(0.18 0.12)" xlink:href="#New_Symbol"/><use width="257.01" height="223.64" transform="translate(29.26 54.06) scale(0.18 0.12)" xlink:href="#New_Symbol"/><use width="257.01" height="223.64" transform="translate(36.26 55.43) scale(0.18 0.12)" xlink:href="#New_Symbol"/><use width="257.01" height="223.64" transform="translate(43.96 53.8) scale(0.18 0.12)" xlink:href="#New_Symbol"/><use width="257.01" height="223.64" transform="translate(83.48 42.92) scale(0.12 0.16)" xlink:href="#New_Symbol"/><use width="257.01" height="223.64" transform="translate(97.24 44.06) scale(0.12 0.16)" xlink:href="#New_Symbol"/><use width="257.01" height="223.64" transform="translate(102.12 45.84) scale(0.12 0.16)" xlink:href="#New_Symbol"/><use width="257.01" height="223.64" transform="translate(107.5 43.72) scale(0.12 0.16)" xlink:href="#New_Symbol"/><use width="257.01" height="223.64" transform="translate(48.37 31.39) scale(0.17 0.23)" xlink:href="#New_Symbol"/><use width="257.01" height="223.64" transform="translate(67.88 33.02) scale(0.17 0.23)" xlink:href="#New_Symbol"/><use width="257.01" height="223.64" transform="translate(74.81 35.54) scale(0.17 0.23)" xlink:href="#New_Symbol"/><use width="257.01" height="223.64" transform="translate(82.43 32.53) scale(0.17 0.23)" xlink:href="#New_Symbol"/><use width="257.01" height="223.64" transform="translate(41.17 66.35) scale(0.12 0.11)" xlink:href="#New_Symbol"/><use width="257.01" height="223.64" transform="translate(54.75 67.15) scale(0.12 0.11)" xlink:href="#New_Symbol"/><use width="257.01" height="223.64" transform="translate(59.57 68.39) scale(0.12 0.11)" xlink:href="#New_Symbol"/><use width="257.01" height="223.64" transform="translate(64.87 66.91) scale(0.12 0.11)" xlink:href="#New_Symbol"/><use width="257.01" height="223.64" transform="translate(57.28 69.67) rotate(180) scale(0.09 0.14)" xlink:href="#New_Symbol"/><use width="257.01" height="223.64" transform="translate(47.73 68.7) rotate(180) scale(0.09 0.14)" xlink:href="#New_Symbol"/><use width="257.01" height="223.64" transform="translate(44.34 67.21) rotate(180) scale(0.09 0.14)" xlink:href="#New_Symbol"/><use width="257.01" height="223.64" transform="translate(40.61 68.99) rotate(180) scale(0.09 0.14)" xlink:href="#New_Symbol"/><use width="257.01" height="223.64" transform="translate(52.91 75.47) scale(0.12 0.04)" xlink:href="#New_Symbol"/><use width="257.01" height="223.64" transform="translate(16.22 51.27) scale(0.19 0.15)" xlink:href="#New_Symbol_2"/><use width="257.01" height="223.64" transform="translate(52.41 60.43) scale(0.19 0.15)" xlink:href="#New_Symbol_2"/><use width="257.01" height="223.64" transform="translate(83.22 44.41) scale(0.19 0.15)" xlink:href="#New_Symbol_2"/><use width="257.01" height="223.64" transform="translate(71.7 52.66) scale(0.19 0.15)" xlink:href="#New_Symbol_2"/><use width="257.01" height="223.64" transform="translate(60.89 53.09) scale(0.18)" xlink:href="#New_Symbol_2"/><use width="257.01" height="223.64" transform="translate(55.62 46.27) scale(0.18)" xlink:href="#New_Symbol_2"/><use width="257.01" height="223.64" transform="translate(39.03 50.03) scale(0.17 0.16)" xlink:href="#New_Symbol_2"/><use width="257.01" height="223.64" transform="translate(93.32 43.52) scale(0.17 0.16)" xlink:href="#New_Symbol_2"/><use width="257.01" height="223.64" transform="translate(14.25 41.92) scale(0.19)" xlink:href="#New_Symbol_2"/><use width="257.01" height="223.64" transform="translate(74.61 34.38) scale(0.19)" xlink:href="#New_Symbol_2"/><use width="174.77" height="164.37" transform="translate(11.29 53.44) scale(0.31 0.14)" xlink:href="#New_Symbol_3"/><use width="257.01" height="223.64" transform="translate(51.46 58.66) scale(0.13 0.15)" xlink:href="#New_Symbol"/><use width="257.01" height="223.64" transform="translate(66.36 59.69) scale(0.13 0.15)" xlink:href="#New_Symbol"/><use width="257.01" height="223.64" transform="translate(71.66 61.3) scale(0.13 0.15)" xlink:href="#New_Symbol"/><use width="257.01" height="223.64" transform="translate(77.48 59.38) scale(0.13 0.15)" xlink:href="#New_Symbol"/><use width="174.77" height="164.37" transform="translate(66.76 45.65) scale(0.45 0.25)" xlink:href="#New_Symbol_3"/></g></g></svg>