<svg xmlns="http://www.w3.org/2000/svg" xmlns:xlink="http://www.w3.org/1999/xlink" viewBox="0 0 150.94 150.94"><defs><style>.cls-1{fill:url(#radial-gradient);}.cls-2{fill:url(#radial-gradient-2);}.cls-3{fill:url(#linear-gradient);}.cls-4{fill:url(#linear-gradient-2);}.cls-5{fill:url(#radial-gradient-3);}.cls-6{fill:url(#radial-gradient-4);}.cls-7{fill:url(#radial-gradient-5);}.cls-8{fill:url(#radial-gradient-6);}.cls-9{fill:url(#radial-gradient-7);}.cls-10{fill:url(#radial-gradient-8);}.cls-11{fill:url(#radial-gradient-9);}.cls-12{fill:url(#radial-gradient-10);}.cls-13{fill:url(#radial-gradient-11);}.cls-14{fill:url(#radial-gradient-12);}.cls-15{fill:url(#radial-gradient-13);}.cls-16{fill:url(#radial-gradient-14);}.cls-17{fill:url(#radial-gradient-15);}.cls-18{isolation:isolate;}.cls-19{mask:url(#mask);}.cls-20{fill:#1b75bb;}.cls-21{fill:url(#linear-gradient-3);}.cls-22{fill:url(#linear-gradient-4);}.cls-23{fill:url(#linear-gradient-5);}.cls-24{fill:url(#linear-gradient-6);}.cls-25{fill:url(#linear-gradient-7);}.cls-26{fill:url(#linear-gradient-8);}.cls-27{fill:url(#linear-gradient-9);}.cls-28{fill:url(#linear-gradient-10);}.cls-29{fill:url(#linear-gradient-11);}.cls-30{fill:url(#linear-gradient-12);}.cls-31{fill:url(#linear-gradient-13);}.cls-32{fill:url(#linear-gradient-14);}.cls-33{fill:url(#linear-gradient-15);}.cls-34{fill:url(#linear-gradient-16);}.cls-35{fill:url(#linear-gradient-17);}.cls-36{fill:url(#linear-gradient-18);}.cls-37{fill:url(#linear-gradient-19);}.cls-38{fill:url(#linear-gradient-20);}.cls-39{fill:url(#linear-gradient-21);}.cls-40{fill:url(#linear-gradient-22);}.cls-41{fill:url(#linear-gradient-23);}.cls-42{fill:url(#linear-gradient-24);}.cls-43{fill:url(#linear-gradient-25);}.cls-44{fill:url(#linear-gradient-26);}.cls-45{fill:url(#linear-gradient-27);}.cls-46{fill:url(#linear-gradient-28);}.cls-47{fill:url(#linear-gradient-29);}.cls-48{fill:url(#linear-gradient-30);}.cls-49{fill:url(#linear-gradient-31);}.cls-50{fill:url(#linear-gradient-32);}.cls-51{fill:url(#linear-gradient-33);}.cls-52{fill:url(#linear-gradient-34);}.cls-53{fill:url(#linear-gradient-35);}.cls-54{mask:url(#mask-2);}.cls-55{fill:#ffdd15;}.cls-56{fill:url(#radial-gradient-16);}.cls-57{mask:url(#mask-3);}.cls-58{fill:#fff;}.cls-59{mask:url(#mask-4);}.cls-60{fill:#fff8d0;mix-blend-mode:hard-light;}.cls-61{mask:url(#mask-5);}.cls-62{fill:url(#radial-gradient-17);}</style><radialGradient id="radial-gradient" cx="75.47" cy="75.47" r="75.47" gradientUnits="userSpaceOnUse"><stop offset="0" stop-color="#fff"/><stop offset="0.16" stop-color="#ddd"/><stop offset="0.51" stop-color="#858585"/><stop offset="1"/></radialGradient><radialGradient id="radial-gradient-2" cx="69.76" cy="58.97" r="34.09" gradientUnits="userSpaceOnUse"><stop offset="0" stop-color="#fff"/><stop offset="0.18" stop-color="#fcfcfc"/><stop offset="0.32" stop-color="#f3f3f3"/><stop offset="0.43" stop-color="#e3e3e3"/><stop offset="0.54" stop-color="#cdcdcd"/><stop offset="0.64" stop-color="#b0b0b0"/><stop offset="0.74" stop-color="#8c8c8c"/><stop offset="0.83" stop-color="#626262"/><stop offset="0.92" stop-color="#333"/><stop offset="1"/></radialGradient><linearGradient id="linear-gradient" x1="82.21" y1="71.64" x2="87.78" y2="77.21" gradientUnits="userSpaceOnUse"><stop offset="0.31"/><stop offset="0.4" stop-color="#101010"/><stop offset="0.59" stop-color="#38393a"/><stop offset="0.84" stop-color="#797a7d"/><stop offset="1" stop-color="#a6a8ab"/></linearGradient><linearGradient id="linear-gradient-2" x1="749.21" y1="-65.39" x2="767.88" y2="-92.95" gradientTransform="matrix(1.1, 0, 0, 0.75, -774.72, 107.77)" gradientUnits="userSpaceOnUse"><stop offset="0" stop-color="#231f20"/><stop offset="1" stop-color="#fff"/></linearGradient><radialGradient id="radial-gradient-3" cx="69.76" cy="59.05" r="38.81" gradientUnits="userSpaceOnUse"><stop offset="0" stop-color="#fff"/><stop offset="0.14" stop-color="#fbfbfb"/><stop offset="0.27" stop-color="#efefef"/><stop offset="0.4" stop-color="#dcdbdb"/><stop offset="0.54" stop-color="#c0bfc0"/><stop offset="0.67" stop-color="#9d9b9c"/><stop offset="0.8" stop-color="#726f70"/><stop offset="0.93" stop-color="#3f3c3d"/><stop offset="1" stop-color="#231f20"/></radialGradient><radialGradient id="radial-gradient-4" cx="95.12" cy="-1816.76" r="95.12" gradientTransform="translate(0 1622) scale(1 0.84)" gradientUnits="userSpaceOnUse"><stop offset="0" stop-color="#fff"/><stop offset="1" stop-color="#fff" stop-opacity="0"/></radialGradient><radialGradient id="radial-gradient-5" cx="-9050.25" cy="4758.5" r="119.53" gradientTransform="matrix(0, 0.67, -1, 0, 4910.05, 6212.54)" xlink:href="#radial-gradient-4"/><radialGradient id="radial-gradient-6" cx="17411.05" cy="18.6" r="89.72" gradientTransform="matrix(0.64, 0, 0, 1.04, -10965.65, 106.74)" xlink:href="#radial-gradient-4"/><radialGradient id="radial-gradient-7" cx="95.12" cy="-1816.76" r="95.12" gradientTransform="translate(0 1622) scale(1 0.84)" gradientUnits="userSpaceOnUse"><stop offset="0" stop-color="#58595b"/><stop offset="0.23" stop-color="#595a5c" stop-opacity="0.96"/><stop offset="0.44" stop-color="#5b5c5e" stop-opacity="0.84"/><stop offset="0.63" stop-color="#5f6062" stop-opacity="0.65"/><stop offset="0.81" stop-color="#656668" stop-opacity="0.37"/><stop offset="0.99" stop-color="#6d6e70" stop-opacity="0.01"/><stop offset="1" stop-color="#6d6e70" stop-opacity="0"/></radialGradient><radialGradient id="radial-gradient-8" cx="-9050.25" cy="4758.5" r="119.53" gradientTransform="matrix(0, 0.67, -1, 0, 4910.04, 6212.54)" xlink:href="#radial-gradient-7"/><radialGradient id="radial-gradient-9" cx="17411.05" cy="18.6" r="89.72" gradientTransform="matrix(0.64, 0, 0, 1.04, -10965.65, 106.73)" xlink:href="#radial-gradient-7"/><radialGradient id="radial-gradient-10" cx="95.12" cy="-1816.76" r="95.12" gradientTransform="translate(0 1622) scale(1 0.84)" gradientUnits="userSpaceOnUse"><stop offset="0" stop-color="#bbbdbf"/><stop offset="0.17" stop-color="#bcbec0" stop-opacity="0.98"/><stop offset="0.31" stop-color="#bec0c2" stop-opacity="0.93"/><stop offset="0.45" stop-color="#c2c4c6" stop-opacity="0.83"/><stop offset="0.58" stop-color="#c8cacb" stop-opacity="0.7"/><stop offset="0.71" stop-color="#cfd1d2" stop-opacity="0.53"/><stop offset="0.84" stop-color="#d8dadb" stop-opacity="0.32"/><stop offset="0.97" stop-color="#e3e4e5" stop-opacity="0.07"/><stop offset="1" stop-color="#e6e7e8" stop-opacity="0"/></radialGradient><radialGradient id="radial-gradient-11" cx="-9050.25" cy="4758.5" r="119.53" gradientTransform="matrix(0, 0.67, -1, 0, 4910.04, 6212.54)" xlink:href="#radial-gradient-10"/><radialGradient id="radial-gradient-12" cx="17411.05" cy="18.6" r="89.72" gradientTransform="matrix(0.64, 0, 0, 1.04, -10965.65, 106.73)" xlink:href="#radial-gradient-10"/><radialGradient id="radial-gradient-13" cx="68.47" cy="-1844.62" r="68.47" gradientTransform="translate(0 1617.18) scale(1 0.84)" gradientUnits="userSpaceOnUse"><stop offset="0"/><stop offset="1" stop-opacity="0"/></radialGradient><radialGradient id="radial-gradient-14" cx="-9094.4" cy="4728.06" r="86.04" gradientTransform="matrix(0, 0.67, -1, 0, 4837.09, 6210.96)" xlink:href="#radial-gradient-13"/><radialGradient id="radial-gradient-15" cx="17327.52" cy="-18.19" r="64.58" gradientTransform="matrix(0.64, 0, 0, 1.04, -10970.6, 137.77)" xlink:href="#radial-gradient-13"/><mask id="mask" x="0" y="0" width="150.94" height="150.94" maskUnits="userSpaceOnUse"><circle class="cls-1" cx="75.47" cy="75.47" r="75.47"/></mask><linearGradient id="linear-gradient-3" x1="-4039.93" y1="1795.45" x2="-4035.9" y2="1799.47" gradientTransform="matrix(-0.71, 0.71, 0.8, 0.66, -4234.57, 1761.31)" gradientUnits="userSpaceOnUse"><stop offset="0" stop-color="#26a9e0"/><stop offset="0.34" stop-color="#25a6de"/><stop offset="0.58" stop-color="#239dd7"/><stop offset="0.79" stop-color="#208dcc"/><stop offset="0.98" stop-color="#1b77bc"/><stop offset="1" stop-color="#1b75bb"/></linearGradient><linearGradient id="linear-gradient-4" x1="-4889.46" y1="1320.55" x2="-4885.25" y2="1324.75" gradientTransform="matrix(-0.66, 0.43, 0.76, 0.57, -4172.22, 1450.14)" gradientUnits="userSpaceOnUse"><stop offset="0" stop-color="#a4c8e4"/><stop offset="0.14" stop-color="#9bc6e4"/><stop offset="0.38" stop-color="#83c0e3"/><stop offset="0.67" stop-color="#5bb6e2"/><stop offset="1" stop-color="#26a9e0"/></linearGradient><linearGradient id="linear-gradient-5" x1="-6006.21" y1="2411.53" x2="-6003.21" y2="2414.54" gradientTransform="matrix(-0.42, 0.32, 0.58, 0.26, -3886.76, 1357.09)" gradientUnits="userSpaceOnUse"><stop offset="0" stop-color="#d1e3f1"/><stop offset="1" stop-color="#a4c8e4"/></linearGradient><linearGradient id="linear-gradient-6" x1="-4033.51" y1="1820.25" x2="-4029.48" y2="1824.27" xlink:href="#linear-gradient-3"/><linearGradient id="linear-gradient-7" x1="-4879.01" y1="1349.5" x2="-4874.8" y2="1353.7" xlink:href="#linear-gradient-4"/><linearGradient id="linear-gradient-8" x1="-5978.43" y1="2457.88" x2="-5975.42" y2="2460.88" xlink:href="#linear-gradient-5"/><linearGradient id="linear-gradient-9" x1="-4035.85" y1="1780.9" x2="-4031.83" y2="1784.92" xlink:href="#linear-gradient-3"/><linearGradient id="linear-gradient-10" x1="-4885.09" y1="1305.35" x2="-4880.88" y2="1309.55" xlink:href="#linear-gradient-4"/><linearGradient id="linear-gradient-11" x1="-6006.64" y1="2386.33" x2="-6003.63" y2="2389.34" xlink:href="#linear-gradient-5"/><linearGradient id="linear-gradient-12" x1="-4049.85" y1="1839.15" x2="-4045.83" y2="1843.18" xlink:href="#linear-gradient-3"/><linearGradient id="linear-gradient-13" x1="-4899.49" y1="1366.72" x2="-4895.29" y2="1370.93" xlink:href="#linear-gradient-4"/><linearGradient id="linear-gradient-14" x1="-6000.27" y1="2487.79" x2="-5997.27" y2="2490.79" xlink:href="#linear-gradient-5"/><linearGradient id="linear-gradient-15" x1="-4067.28" y1="1842.53" x2="-4063.26" y2="1846.55" xlink:href="#linear-gradient-3"/><linearGradient id="linear-gradient-16" x1="-4922.58" y1="1366.48" x2="-4918.38" y2="1370.68" xlink:href="#linear-gradient-4"/><linearGradient id="linear-gradient-17" x1="-6033.57" y1="2489.42" x2="-6030.57" y2="2492.42" xlink:href="#linear-gradient-5"/><linearGradient id="linear-gradient-18" x1="-4074.96" y1="1826.49" x2="-4070.93" y2="1830.51" xlink:href="#linear-gradient-3"/><linearGradient id="linear-gradient-19" x1="-4934.06" y1="1346.95" x2="-4929.86" y2="1351.16" xlink:href="#linear-gradient-4"/><linearGradient id="linear-gradient-20" x1="-6058.69" y1="2458.55" x2="-6055.68" y2="2461.55" xlink:href="#linear-gradient-5"/><linearGradient id="linear-gradient-21" x1="-4048.3" y1="1817.85" x2="-4044.28" y2="1821.87" xlink:href="#linear-gradient-3"/><linearGradient id="linear-gradient-22" x1="-4899" y1="1343.46" x2="-4894.8" y2="1347.66" xlink:href="#linear-gradient-4"/><linearGradient id="linear-gradient-23" x1="-6009.83" y1="2449.77" x2="-6006.83" y2="2452.77" xlink:href="#linear-gradient-5"/><linearGradient id="linear-gradient-24" x1="-4063.37" y1="1823.91" x2="-4056.91" y2="1830.37" xlink:href="#linear-gradient-3"/><linearGradient id="linear-gradient-25" x1="-4918.52" y1="1346.95" x2="-4911.77" y2="1353.7" xlink:href="#linear-gradient-4"/><linearGradient id="linear-gradient-26" x1="-6036.05" y1="2456.7" x2="-6031.22" y2="2461.52" xlink:href="#linear-gradient-5"/><linearGradient id="linear-gradient-27" x1="-4029.74" y1="1799.83" x2="-4023.28" y2="1806.29" xlink:href="#linear-gradient-3"/><linearGradient id="linear-gradient-28" x1="-4875.26" y1="1327.94" x2="-4868.51" y2="1334.69" xlink:href="#linear-gradient-4"/><linearGradient id="linear-gradient-29" x1="-5982.26" y1="2421.87" x2="-5977.43" y2="2426.7" xlink:href="#linear-gradient-5"/><linearGradient id="linear-gradient-30" x1="-4087.35" y1="1832.94" x2="-4080.89" y2="1839.4" xlink:href="#linear-gradient-3"/><linearGradient id="linear-gradient-31" x1="-4949.96" y1="1351.48" x2="-4943.21" y2="1358.24" xlink:href="#linear-gradient-4"/><linearGradient id="linear-gradient-32" x1="-6079.25" y1="2466.85" x2="-6074.42" y2="2471.67" xlink:href="#linear-gradient-5"/><linearGradient id="linear-gradient-33" x1="-4048.6" y1="1803.14" x2="-4045.65" y2="1806.08" xlink:href="#linear-gradient-3"/><linearGradient id="linear-gradient-34" x1="-4900.59" y1="1327" x2="-4897.51" y2="1330.07" xlink:href="#linear-gradient-4"/><linearGradient id="linear-gradient-35" x1="-6019.51" y1="2423.25" x2="-6017.31" y2="2425.45" xlink:href="#linear-gradient-5"/><mask id="mask-2" x="35.67" y="24.88" width="68.18" height="68.18" maskUnits="userSpaceOnUse"><circle class="cls-2" cx="69.76" cy="58.97" r="34.09"/></mask><radialGradient id="radial-gradient-16" cx="69.76" cy="59.05" r="26.73" gradientUnits="userSpaceOnUse"><stop offset="0" stop-color="#ffdd15"/><stop offset="0.48" stop-color="#ffdb15"/><stop offset="0.65" stop-color="#fed416"/><stop offset="0.77" stop-color="#fdc917"/><stop offset="0.87" stop-color="#fbb819"/><stop offset="0.95" stop-color="#f8a21c"/><stop offset="1" stop-color="#f6921e"/></radialGradient><mask id="mask-3" x="75.57" y="65.01" width="18.11" height="18.11" maskUnits="userSpaceOnUse"><path class="cls-3" d="M93.29,65.33c1.32,1.32-.71,7.08-5.51,11.88S77.21,84,75.9,82.72s1.51-6.28,6.31-11.08S92,64,93.29,65.33Z"/></mask><mask id="mask-4" x="45.42" y="33.4" width="32.01" height="30.64" maskUnits="userSpaceOnUse"><ellipse class="cls-4" cx="61.43" cy="48.72" rx="18.35" ry="12.41" transform="translate(-16.85 53.11) rotate(-41.63)"/></mask><mask id="mask-5" x="30.95" y="20.24" width="77.63" height="77.63" maskUnits="userSpaceOnUse"><path class="cls-5" d="M101.37,73.26l-7.45-2.77q.23-.48.43-1Zm-9.59.94-.32.45L95,76.82Zm3.14-6.12,3.33.92-3.18-1.35Zm1.13-4.23c0,.26-.1.52-.15.78l5.9.76Zm.23-1.5c0,.34-.09.68-.15,1l7.69.58Zm.19-4.1q0,.4,0,.81t0,.81l12.1-.81Zm-4.73-14.4.44.66,4.71-3.64Zm2.81,5.22c.13.33.26.66.38,1l7.22-3.31ZM96,54.18c0,.18.07.36.1.55l4.06-1Zm-2.11-6.54,3-1.71-3.21,1.29ZM81.2,34.89,84,27.44l-3.73,7Zm2.42,1.31,4.85-10-6.13,9.28Q83,35.81,83.62,36.19ZM96.44,57.38c0,.18,0,.37,0,.56l4.15-.5Zm-9.1-18.47,6-8.37L86.27,38C86.63,38.31,87,38.61,87.33,38.91Zm-10-5.5,2.25-11.69L75.78,33C76.3,33.12,76.81,33.26,77.31,33.41Zm1.47.48.92-3.33-1.35,3.18Zm10.43,6.85,8-9.12-9.12,8Q88.67,40.14,89.22,40.73Zm4,5.53,9.86-6.68L92.43,44.89Q92.85,45.56,93.24,46.26ZM75.33,32.9l.76-5.9-1.54,5.75Zm21.1,24.33,10.2-1.65-10.32.28Q96.38,56.55,96.43,57.23Zm-5-13.79,5.85-5-6.47,4.2Q91.16,43,91.46,43.44Zm4.27,9.25L106.23,49,95.34,51.26Q95.55,52,95.73,52.69ZM44.59,50l-3.33-.92,3.18,1.35Zm.57-1.45q.21-.49.44-1l-7.45-2.77Zm-1.7,5.68c0-.26.1-.52.15-.78l-5.9-.76Zm-.31,2.33-5.43-.07,5.38.79C43.1,57.06,43.12,56.82,43.14,56.58Zm.09-.82q.06-.51.15-1l-7.69-.58Zm-.15,5q0-.28,0-.56l-4.15.5Zm46.73,16-.37.41,3.29,2.58ZM47.73,43.91l.32-.45-3.57-2.17ZM96.43,60.8q0,.36-.06.72l5.43.07ZM49.71,41.37l.37-.41L46.8,38.38ZM52.08,79.1l-.41-.37L49.08,82ZM84.9,37l.45.32,2.17-3.57ZM54.62,81.08l-.45-.32L52,84.33Zm-.06-44,.66-.44-3.63-4.71ZM87.44,39l.41.37,2.58-3.29ZM85,81l-.66.44,3.64,4.71ZM47.78,74.26l-.44-.66-4.71,3.63Zm-2.19-3.79-3,1.71,3.21-1.29Zm4.08,6.21-.47-.55-3.89,3.79ZM45,69q-.2-.49-.38-1l-7.22,3.31Zm-1.49-5.12c0-.18-.06-.36-.09-.55l-4.06,1ZM89.86,41.43l.47.55,3.89-3.79Zm-24.4,44-.59,7.69,1.6-7.54Zm1.83.23-.07,5.43L68,85.72Zm2.47.12H69l.81,12.1.81-12.1Zm1.12,0,.5,4.15.06-4.18Zm3.2-.32,1,4.06-.44-4.15Zm-2.5.29,1.65,10.19-.28-10.32Q72.27,85.67,71.58,85.72ZM52.19,79.19l-6,8.37,7.1-7.5C52.89,79.79,52.53,79.5,52.19,79.19Zm12,6-.76,5.9L65,85.35ZM55.9,81.91l-4.85,10,6.13-9.28C56.75,82.41,56.32,82.17,55.9,81.91Zm6.31,2.79L60,96.39,63.74,85.1C63.22,85,62.71,84.85,62.21,84.7Zm-1.47-.48-.92,3.33,1.35-3.18Zm-2.41-1-2.77,7.45,3.73-7ZM89.9,76.62l8.37,6-7.5-7.1C90.5,75.93,90.2,76.28,89.9,76.62Zm-1.82,1.89,9.12,8-8-9.12Q88.67,78,88.08,78.51Zm4.54-5.6,10,4.85-9.28-6.13Q93,72.28,92.62,72.91Zm2.79-6.31,11.69,2.25L95.81,65.07C95.69,65.59,95.55,66.1,95.41,66.61Zm-8.57,13,3.79,3.89-3.24-4.36ZM76.12,85l3.65,10.5L77.55,84.63Q76.84,84.84,76.12,85Zm5-1.79,1.71,3L81.59,83Zm-2.41,1,3.31,7.22-2.32-7.6Zm6.61-3.48,5,5.85-4.2-6.47Zm-2.82,1.78,6.68,9.86L83.92,81.73C83.47,82,83,82.27,82.55,82.53Zm-38.44-31L32.42,49.24,43.71,53Q43.89,52.25,44.11,51.5ZM63.4,33.09l-3.65-10.5L62,33.48Q62.68,33.26,63.4,33.09Zm-2.64.79-3.31-7.22,2.32,7.6ZM57,35.58l-6.68-9.86L55.6,36.38Q56.27,36,57,35.58Zm8.47-2.91-1-4.06.44,4.15ZM54.15,37.35l-5-5.85L53.33,38Zm4.2-2.48-1.71-3,1.29,3.21Zm13.88-2.44L72.3,27l-.79,5.37Zm-2.47-.11h.81l-.81-12.1L69,32.33Zm-1.82.06L66.29,22.19l.28,10.32C67,32.46,67.48,32.41,67.94,32.38Zm.7,0-.5-4.15-.06,4.18ZM43.79,65.41l-10.5,3.65,10.89-2.22Q44,66.14,43.79,65.41Zm6.5,12-8,9.12,9.13-8Q50.85,78,50.3,77.37ZM43,59.05c0-.27,0-.54,0-.81l-12.1.81,12.1.81C43,59.59,43,59.32,43,59.05Zm.06,1.82L32.9,62.52l10.32-.28C43.16,61.78,43.12,61.33,43.09,60.87Zm5,13.79-5.85,5,6.47-4.2Q48.36,75.08,48.06,74.66Zm-1.78-2.82-9.86,6.68,10.66-5.31C46.81,72.76,46.54,72.31,46.28,71.84Zm6.4-33.36L48.89,34.6,52.14,39Zm-3.07,3-8.37-6,7.5,7.1Q49.17,42,49.62,41.48Zm24.45-8.81L74.65,25,73,32.52ZM51.44,39.59l-9.12-8,8,9.12Q50.85,40.14,51.44,39.59Zm-4.54,5.6-10-4.84,9.28,6.13C46.4,46,46.64,45.61,46.9,45.19Z"/></mask><radialGradient id="radial-gradient-17" cx="69.76" cy="59.05" r="38.81" gradientUnits="userSpaceOnUse"><stop offset="0.13" stop-color="#f6921e"/><stop offset="1" stop-color="#ffdd15"/></radialGradient><symbol id="New_Symbol" data-name="New Symbol" viewBox="0 0 257.01 223.64"><ellipse class="cls-6" cx="95.12" cy="100.46" rx="95.12" ry="79.67"/><ellipse class="cls-7" cx="151.78" cy="111.82" rx="119.53" ry="80.57" transform="translate(-19.1 191.45) rotate(-61.36)"/><ellipse class="cls-8" cx="167.61" cy="125.74" rx="57.37" ry="93.72" transform="translate(-12.47 232.87) rotate(-67.62)"/></symbol><symbol id="New_Symbol_2" data-name="New Symbol 2" viewBox="0 0 257.01 223.64"><ellipse class="cls-12" cx="95.12" cy="100.46" rx="95.12" ry="79.67"/><ellipse class="cls-13" cx="151.78" cy="111.82" rx="119.53" ry="80.57" transform="translate(-19.1 191.45) rotate(-61.36)"/><ellipse class="cls-14" cx="167.61" cy="125.74" rx="57.37" ry="93.72" transform="translate(-12.47 232.87) rotate(-67.62)"/></symbol><symbol id="New_Symbol_3" data-name="New Symbol 3" viewBox="0 0 174.77 164.37"><ellipse class="cls-15" cx="68.47" cy="72.31" rx="68.47" ry="57.35"/><ellipse class="cls-16" cx="109.26" cy="80.49" rx="86.04" ry="58" transform="translate(-13.75 137.81) rotate(-61.36)"/><ellipse class="cls-17" cx="109.26" cy="118.34" rx="41.3" ry="67.46" transform="translate(-41.76 174.32) rotate(-67.62)"/></symbol></defs><title>Ресурс 8weather</title><g class="cls-18"><g id="Слой_2" data-name="Слой 2"><g id="Layer_2" data-name="Layer 2"><g class="cls-19"><circle class="cls-20" cx="75.47" cy="75.47" r="75.47"/></g><path class="cls-20" d="M52.07,103a2.25,2.25,0,1,0,3.18-3.18c-1.5-1.5-5.18-2-5.18-2S50.58,101.47,52.07,103Z"/><path class="cls-21" d="M52.28,102.55a2.11,2.11,0,0,0,3.18,0c.29-.31.91-1.65-.69-3s-4.64-1.67-4.64-1.67S50.77,101.16,52.28,102.55Z"/><path class="cls-22" d="M52.53,101.59c1.64,1.39,2.69.67,3,.41s.77-1.36-.82-2.55a12.68,12.68,0,0,0-4.4-1.59A9.1,9.1,0,0,0,52.53,101.59Z"/><path class="cls-23" d="M52.42,99.47c.91.5,1.29.23,1.38.14s.19-.5-.67-.92A8.38,8.38,0,0,0,51,98.12,5.15,5.15,0,0,0,52.42,99.47Z"/><path class="cls-20" d="M67.29,124a2.25,2.25,0,1,0,3.18-3.17c-1.5-1.5-5.18-2-5.18-2S65.8,122.48,67.29,124Z"/><path class="cls-24" d="M67.5,123.56a2.11,2.11,0,0,0,3.18,0c.29-.31.91-1.65-.69-3s-4.63-1.67-4.63-1.67S66,122.18,67.5,123.56Z"/><path class="cls-25" d="M67.75,122.61c1.64,1.39,2.69.67,3,.41s.77-1.36-.82-2.55a12.67,12.67,0,0,0-4.4-1.59A9.1,9.1,0,0,0,67.75,122.61Z"/><path class="cls-26" d="M67.64,120.48c.91.5,1.29.23,1.38.14s.18-.5-.67-.92a8.42,8.42,0,0,0-2.17-.56A5.15,5.15,0,0,0,67.64,120.48Z"/><path class="cls-20" d="M37.6,96.17A2.25,2.25,0,1,0,40.77,93c-1.5-1.5-5.18-2-5.18-2S36.1,94.67,37.6,96.17Z"/><path class="cls-27" d="M37.81,95.75a2.11,2.11,0,0,0,3.18,0c.29-.31.91-1.65-.69-3S35.66,91,35.66,91,36.29,94.37,37.81,95.75Z"/><path class="cls-28" d="M38.05,94.8c1.64,1.39,2.69.67,3,.41s.77-1.36-.82-2.55a12.67,12.67,0,0,0-4.4-1.59A9.12,9.12,0,0,0,38.05,94.8Z"/><path class="cls-29" d="M37.94,92.67c.9.5,1.29.23,1.38.14s.19-.5-.67-.92a8.38,8.38,0,0,0-2.17-.56A5.13,5.13,0,0,0,37.94,92.67Z"/><path class="cls-20" d="M93.92,125a2.25,2.25,0,1,0,3.18-3.18c-1.5-1.5-5.18-2-5.18-2S92.42,123.49,93.92,125Z"/><path class="cls-30" d="M94.13,124.57a2.11,2.11,0,0,0,3.18,0c.29-.31.91-1.65-.69-3S92,119.86,92,119.86,92.61,123.19,94.13,124.57Z"/><path class="cls-31" d="M94.37,123.61c1.64,1.38,2.69.67,3,.41s.77-1.36-.82-2.55a12.69,12.69,0,0,0-4.4-1.59A9.11,9.11,0,0,0,94.37,123.61Z"/><path class="cls-32" d="M94.26,121.49c.91.5,1.29.23,1.38.14s.18-.5-.68-.92a8.42,8.42,0,0,0-2.17-.56A5.15,5.15,0,0,0,94.26,121.49Z"/><path class="cls-20" d="M108.93,114.9a2.25,2.25,0,1,0,3.18-3.18c-1.5-1.5-5.18-2-5.18-2S107.43,113.4,108.93,114.9Z"/><path class="cls-33" d="M109.14,114.49a2.11,2.11,0,0,0,3.18,0c.29-.31.91-1.64-.69-3s-4.63-1.67-4.63-1.67S107.62,113.1,109.14,114.49Z"/><path class="cls-34" d="M109.38,113.53c1.64,1.39,2.69.67,3,.41s.78-1.36-.82-2.55a12.69,12.69,0,0,0-4.4-1.59A9.1,9.1,0,0,0,109.38,113.53Z"/><path class="cls-35" d="M109.27,111.41c.91.5,1.29.23,1.38.14s.18-.5-.68-.92a8.42,8.42,0,0,0-2.17-.56A5.17,5.17,0,0,0,109.27,111.41Z"/><path class="cls-20" d="M101.58,98.82a2.25,2.25,0,1,0,3.18-3.18c-1.5-1.5-5.18-2-5.18-2S100.08,97.32,101.58,98.82Z"/><path class="cls-36" d="M101.79,98.4a2.11,2.11,0,0,0,3.18,0c.29-.31.91-1.65-.69-3s-4.63-1.67-4.63-1.67S100.27,97,101.79,98.4Z"/><path class="cls-37" d="M102,97.45c1.64,1.39,2.7.67,3,.41s.77-1.36-.82-2.55a12.69,12.69,0,0,0-4.4-1.59A9.12,9.12,0,0,0,102,97.45Z"/><path class="cls-38" d="M101.92,95.32c.9.5,1.29.23,1.38.14s.19-.5-.67-.92a8.44,8.44,0,0,0-2.17-.56A5.15,5.15,0,0,0,101.92,95.32Z"/><path class="cls-20" d="M75.84,111.92A2.25,2.25,0,1,0,79,108.75c-1.5-1.5-5.18-2-5.18-2S74.34,110.43,75.84,111.92Z"/><path class="cls-39" d="M76.05,111.51a2.11,2.11,0,0,0,3.18,0c.29-.31.91-1.65-.69-3s-4.63-1.67-4.63-1.67S74.53,110.12,76.05,111.51Z"/><path class="cls-40" d="M76.3,110.55c1.64,1.39,2.7.67,3,.41s.77-1.36-.82-2.55a12.69,12.69,0,0,0-4.4-1.59A9.11,9.11,0,0,0,76.3,110.55Z"/><path class="cls-41" d="M76.19,108.43c.9.5,1.29.23,1.38.14s.18-.5-.68-.92a8.46,8.46,0,0,0-2.17-.56A5.15,5.15,0,0,0,76.19,108.43Z"/><path class="cls-20" d="M90.86,108.46a3.61,3.61,0,1,0,5.1-5.1c-2.41-2.41-8.32-3.22-8.32-3.22S88.45,106,90.86,108.46Z"/><path class="cls-42" d="M91.19,107.79a3.39,3.39,0,0,0,5.1-.07c.46-.5,1.47-2.64-1.11-4.82s-7.44-2.69-7.44-2.69S88.75,105.56,91.19,107.79Z"/><path class="cls-43" d="M91.59,106.25c2.64,2.23,4.33,1.08,4.76.65s1.24-2.18-1.32-4.09C92.66,101,88,100.25,88,100.25S89.16,104.2,91.59,106.25Z"/><path class="cls-44" d="M91.41,102.84c1.46.8,2.08.38,2.22.22s.3-.8-1.08-1.48a13.51,13.51,0,0,0-3.49-.9A8.25,8.25,0,0,0,91.41,102.84Z"/><path class="cls-20" d="M47.89,116.24a3.61,3.61,0,1,0,5.1-5.1c-2.41-2.41-8.32-3.22-8.32-3.22S45.48,113.83,47.89,116.24Z"/><path class="cls-45" d="M48.22,115.57a3.39,3.39,0,0,0,5.1-.07c.46-.5,1.47-2.64-1.11-4.82S44.77,108,44.77,108,45.78,113.34,48.22,115.57Z"/><path class="cls-46" d="M48.62,114c2.64,2.23,4.33,1.08,4.76.65s1.24-2.18-1.32-4.09C49.69,108.82,45,108,45,108S46.19,112,48.62,114Z"/><path class="cls-47" d="M48.44,110.62c1.45.8,2.08.38,2.22.22s.3-.8-1.08-1.48a13.56,13.56,0,0,0-3.49-.9A8.27,8.27,0,0,0,48.44,110.62Z"/><path class="cls-20" d="M115,97.5a3.61,3.61,0,1,0,5.1-5.1c-2.41-2.41-8.32-3.22-8.32-3.22S112.6,95.09,115,97.5Z"/><path class="cls-48" d="M115.34,96.83a3.39,3.39,0,0,0,5.11-.07c.46-.5,1.47-2.64-1.11-4.82s-7.45-2.69-7.45-2.69S112.9,94.61,115.34,96.83Z"/><path class="cls-49" d="M115.74,95.29c2.64,2.22,4.33,1.08,4.76.65s1.24-2.18-1.32-4.09c-2.38-1.77-7.08-2.56-7.08-2.56S113.31,93.24,115.74,95.29Z"/><path class="cls-50" d="M115.56,91.88c1.45.8,2.08.37,2.22.22s.3-.8-1.08-1.48a13.52,13.52,0,0,0-3.49-.9A8.27,8.27,0,0,0,115.56,91.88Z"/><path class="cls-20" d="M64.54,100.55a1.65,1.65,0,1,0,2.33-2.33c-1.1-1.1-3.79-1.47-3.79-1.47S63.44,99.45,64.54,100.55Z"/><path class="cls-51" d="M64.69,100.24a1.55,1.55,0,0,0,2.33,0c.21-.23.67-1.21-.5-2.2a7.93,7.93,0,0,0-3.4-1.23A7.64,7.64,0,0,0,64.69,100.24Z"/><path class="cls-52" d="M64.87,99.54c1.2,1,2,.49,2.17.3s.57-1-.6-1.87a9.3,9.3,0,0,0-3.23-1.17A6.68,6.68,0,0,0,64.87,99.54Z"/><path class="cls-53" d="M64.79,98c.66.36.95.17,1,.1s.13-.36-.49-.68A6.15,6.15,0,0,0,63.72,97,3.79,3.79,0,0,0,64.79,98Z"/><use width="257.01" height="223.64" transform="matrix(-0.11, -0.01, 0, -0.16, 71.79, 71.29)" xlink:href="#New_Symbol"/><use width="257.01" height="223.64" transform="matrix(-0.11, -0.01, 0, -0.16, 59.43, 68.7)" xlink:href="#New_Symbol"/><use width="257.01" height="223.64" transform="matrix(-0.11, -0.01, 0, -0.16, 55.04, 66.41)" xlink:href="#New_Symbol"/><use width="257.01" height="223.64" transform="matrix(-0.11, -0.01, 0, -0.16, 50.22, 67.97)" xlink:href="#New_Symbol"/><use width="257.01" height="223.64" transform="matrix(-0.17, -0.02, 0, -0.15, 132.21, 69.98)" xlink:href="#New_Symbol_2"/><use width="257.01" height="223.64" transform="matrix(-0.17, -0.02, 0, -0.15, 99.69, 57.03)" xlink:href="#New_Symbol_2"/><use width="257.01" height="223.64" transform="matrix(-0.17, -0.02, 0, -0.15, 72, 69.81)" xlink:href="#New_Symbol_2"/><use width="257.01" height="223.64" transform="matrix(-0.17, -0.02, 0, -0.15, 82.36, 62.77)" xlink:href="#New_Symbol_2"/><use width="257.01" height="223.64" transform="matrix(-0.17, -0.02, 0, -0.19, 118.48, 72)" xlink:href="#New_Symbol_2"/><use width="257.01" height="223.64" transform="matrix(-0.17, -0.02, 0, -0.19, 64.24, 73.22)" xlink:href="#New_Symbol_2"/><g class="cls-54"><circle class="cls-55" cx="69.76" cy="58.97" r="34.09"/></g><circle class="cls-56" cx="69.76" cy="59.05" r="26.73"/><g class="cls-57"><path class="cls-58" d="M93.29,65.33c1.32,1.32-.71,7.08-5.51,11.88S77.21,84,75.9,82.72s1.51-6.28,6.31-11.08S92,64,93.29,65.33Z"/></g><g class="cls-59"><ellipse class="cls-60" cx="61.43" cy="48.72" rx="18.35" ry="12.41" transform="translate(-16.85 53.11) rotate(-41.63)"/></g><g class="cls-61"><path class="cls-62" d="M101.37,73.26l-7.45-2.77q.23-.48.43-1Zm-9.59.94-.32.45L95,76.82Zm3.14-6.12,3.33.92-3.18-1.35Zm1.13-4.23c0,.26-.1.52-.15.78l5.9.76Zm.23-1.5c0,.34-.09.68-.15,1l7.69.58Zm.19-4.1q0,.4,0,.81t0,.81l12.1-.81Zm-4.73-14.4.44.66,4.71-3.64Zm2.81,5.22c.13.33.26.66.38,1l7.22-3.31ZM96,54.18c0,.18.07.36.1.55l4.06-1Zm-2.11-6.54,3-1.71-3.21,1.29ZM81.2,34.89,84,27.44l-3.73,7Zm2.42,1.31,4.85-10-6.13,9.28Q83,35.81,83.62,36.19ZM96.44,57.38c0,.18,0,.37,0,.56l4.15-.5Zm-9.1-18.47,6-8.37L86.27,38C86.63,38.31,87,38.61,87.33,38.91Zm-10-5.5,2.25-11.69L75.78,33C76.3,33.12,76.81,33.26,77.31,33.41Zm1.47.48.92-3.33-1.35,3.18Zm10.43,6.85,8-9.12-9.12,8Q88.67,40.14,89.22,40.73Zm4,5.53,9.86-6.68L92.43,44.89Q92.85,45.56,93.24,46.26ZM75.33,32.9l.76-5.9-1.54,5.75Zm21.1,24.33,10.2-1.65-10.32.28Q96.38,56.55,96.43,57.23Zm-5-13.79,5.85-5-6.47,4.2Q91.16,43,91.46,43.44Zm4.27,9.25L106.23,49,95.34,51.26Q95.55,52,95.73,52.69ZM44.59,50l-3.33-.92,3.18,1.35Zm.57-1.45q.21-.49.44-1l-7.45-2.77Zm-1.7,5.68c0-.26.1-.52.15-.78l-5.9-.76Zm-.31,2.33-5.43-.07,5.38.79C43.1,57.06,43.12,56.82,43.14,56.58Zm.09-.82q.06-.51.15-1l-7.69-.58Zm-.15,5q0-.28,0-.56l-4.15.5Zm46.73,16-.37.41,3.29,2.58ZM47.73,43.91l.32-.45-3.57-2.17ZM96.43,60.8q0,.36-.06.72l5.43.07ZM49.71,41.37l.37-.41L46.8,38.38ZM52.08,79.1l-.41-.37L49.08,82ZM84.9,37l.45.32,2.17-3.57ZM54.62,81.08l-.45-.32L52,84.33Zm-.06-44,.66-.44-3.63-4.71ZM87.44,39l.41.37,2.58-3.29ZM85,81l-.66.44,3.64,4.71ZM47.78,74.26l-.44-.66-4.71,3.63Zm-2.19-3.79-3,1.71,3.21-1.29Zm4.08,6.21-.47-.55-3.89,3.79ZM45,69q-.2-.49-.38-1l-7.22,3.31Zm-1.49-5.12c0-.18-.06-.36-.09-.55l-4.06,1ZM89.86,41.43l.47.55,3.89-3.79Zm-24.4,44-.59,7.69,1.6-7.54Zm1.83.23-.07,5.43L68,85.72Zm2.47.12H69l.81,12.1.81-12.1Zm1.12,0,.5,4.15.06-4.18Zm3.2-.32,1,4.06-.44-4.15Zm-2.5.29,1.65,10.19-.28-10.32Q72.27,85.67,71.58,85.72ZM52.19,79.19l-6,8.37,7.1-7.5C52.89,79.79,52.53,79.5,52.19,79.19Zm12,6-.76,5.9L65,85.35ZM55.9,81.91l-4.85,10,6.13-9.28C56.75,82.41,56.32,82.17,55.9,81.91Zm6.31,2.79L60,96.39,63.74,85.1C63.22,85,62.71,84.85,62.21,84.7Zm-1.47-.48-.92,3.33,1.35-3.18Zm-2.41-1-2.77,7.45,3.73-7ZM89.9,76.62l8.37,6-7.5-7.1C90.5,75.93,90.2,76.28,89.9,76.62Zm-1.82,1.89,9.12,8-8-9.12Q88.67,78,88.08,78.51Zm4.54-5.6,10,4.85-9.28-6.13Q93,72.28,92.62,72.91Zm2.79-6.31,11.69,2.25L95.81,65.07C95.69,65.59,95.55,66.1,95.41,66.61Zm-8.57,13,3.79,3.89-3.24-4.36ZM76.12,85l3.65,10.5L77.55,84.63Q76.84,84.84,76.12,85Zm5-1.79,1.71,3L81.59,83Zm-2.41,1,3.31,7.22-2.32-7.6Zm6.61-3.48,5,5.85-4.2-6.47Zm-2.82,1.78,6.68,9.86L83.92,81.73C83.47,82,83,82.27,82.55,82.53Zm-38.44-31L32.42,49.24,43.71,53Q43.89,52.25,44.11,51.5ZM63.4,33.09l-3.65-10.5L62,33.48Q62.68,33.26,63.4,33.09Zm-2.64.79-3.31-7.22,2.32,7.6ZM57,35.58l-6.68-9.86L55.6,36.38Q56.27,36,57,35.58Zm8.47-2.91-1-4.06.44,4.15ZM54.15,37.35l-5-5.85L53.33,38Zm4.2-2.48-1.71-3,1.29,3.21Zm13.88-2.44L72.3,27l-.79,5.37Zm-2.47-.11h.81l-.81-12.1L69,32.33Zm-1.82.06L66.29,22.19l.28,10.32C67,32.46,67.48,32.41,67.94,32.38Zm.7,0-.5-4.15-.06,4.18ZM43.79,65.41l-10.5,3.65,10.89-2.22Q44,66.14,43.79,65.41Zm6.5,12-8,9.12,9.13-8Q50.85,78,50.3,77.37ZM43,59.05c0-.27,0-.54,0-.81l-12.1.81,12.1.81C43,59.59,43,59.32,43,59.05Zm.06,1.82L32.9,62.52l10.32-.28C43.16,61.78,43.12,61.33,43.09,60.87Zm5,13.79-5.85,5,6.47-4.2Q48.36,75.08,48.06,74.66Zm-1.78-2.82-9.86,6.68,10.66-5.31C46.81,72.76,46.54,72.31,46.28,71.84Zm6.4-33.36L48.89,34.6,52.14,39Zm-3.07,3-8.37-6,7.5,7.1Q49.17,42,49.62,41.48Zm24.45-8.81L74.65,25,73,32.52ZM51.44,39.59l-9.12-8,8,9.12Q50.85,40.14,51.44,39.59Zm-4.54,5.6-10-4.84,9.28,6.13C46.4,46,46.64,45.61,46.9,45.19Z"/></g><use width="257.01" height="223.64" transform="translate(10.68 58.98) scale(0.18 0.12)" xlink:href="#New_Symbol"/><use width="257.01" height="223.64" transform="translate(30.4 59.86) scale(0.18 0.12)" xlink:href="#New_Symbol"/><use width="257.01" height="223.64" transform="translate(37.4 61.23) scale(0.18 0.12)" xlink:href="#New_Symbol"/><use width="257.01" height="223.64" transform="translate(45.1 59.6) scale(0.18 0.12)" xlink:href="#New_Symbol"/><use width="257.01" height="223.64" transform="translate(84.62 48.72) scale(0.12 0.16)" xlink:href="#New_Symbol"/><use width="257.01" height="223.64" transform="translate(98.38 49.86) scale(0.12 0.16)" xlink:href="#New_Symbol"/><use width="257.01" height="223.64" transform="translate(103.27 51.64) scale(0.12 0.16)" xlink:href="#New_Symbol"/><use width="257.01" height="223.64" transform="translate(108.64 49.52) scale(0.12 0.16)" xlink:href="#New_Symbol"/><use width="257.01" height="223.64" transform="translate(49.51 37.2) scale(0.17 0.23)" xlink:href="#New_Symbol"/><use width="257.01" height="223.64" transform="translate(69.02 38.82) scale(0.17 0.23)" xlink:href="#New_Symbol"/><use width="257.01" height="223.64" transform="translate(75.95 41.34) scale(0.17 0.23)" xlink:href="#New_Symbol"/><use width="257.01" height="223.64" transform="translate(83.57 38.33) scale(0.17 0.23)" xlink:href="#New_Symbol"/><use width="257.01" height="223.64" transform="translate(42.31 72.15) scale(0.12 0.11)" xlink:href="#New_Symbol"/><use width="257.01" height="223.64" transform="translate(55.89 72.95) scale(0.12 0.11)" xlink:href="#New_Symbol"/><use width="257.01" height="223.64" transform="translate(60.71 74.18) scale(0.12 0.11)" xlink:href="#New_Symbol"/><use width="257.01" height="223.64" transform="translate(66.01 72.71) scale(0.12 0.11)" xlink:href="#New_Symbol"/><use width="257.01" height="223.64" transform="translate(58.42 75.47) rotate(180) scale(0.09 0.14)" xlink:href="#New_Symbol"/><use width="257.01" height="223.64" transform="translate(48.87 74.5) rotate(180) scale(0.09 0.14)" xlink:href="#New_Symbol"/><use width="257.01" height="223.64" transform="translate(45.48 73.01) rotate(180) scale(0.09 0.14)" xlink:href="#New_Symbol"/><use width="257.01" height="223.64" transform="translate(41.75 74.79) rotate(180) scale(0.09 0.14)" xlink:href="#New_Symbol"/><use width="257.01" height="223.64" transform="translate(82.75 88.3) scale(0.12 0.04)" xlink:href="#New_Symbol"/><use width="257.01" height="223.64" transform="translate(17.37 57.07) scale(0.19 0.15)" xlink:href="#New_Symbol_2"/><use width="257.01" height="223.64" transform="translate(53.56 66.23) scale(0.19 0.15)" xlink:href="#New_Symbol_2"/><use width="257.01" height="223.64" transform="translate(84.36 50.21) scale(0.19 0.15)" xlink:href="#New_Symbol_2"/><use width="257.01" height="223.64" transform="translate(72.84 58.46) scale(0.19 0.15)" xlink:href="#New_Symbol_2"/><use width="257.01" height="223.64" transform="translate(62.03 58.89) scale(0.18)" xlink:href="#New_Symbol_2"/><use width="257.01" height="223.64" transform="translate(56.76 52.07) scale(0.18)" xlink:href="#New_Symbol_2"/><use width="257.01" height="223.64" transform="translate(40.17 55.83) scale(0.17 0.16)" xlink:href="#New_Symbol_2"/><use width="257.01" height="223.64" transform="translate(94.47 49.32) scale(0.17 0.16)" xlink:href="#New_Symbol_2"/><use width="257.01" height="223.64" transform="translate(15.39 47.72) scale(0.19)" xlink:href="#New_Symbol_2"/><use width="257.01" height="223.64" transform="translate(75.75 40.18) scale(0.19)" xlink:href="#New_Symbol_2"/><use width="174.77" height="164.37" transform="translate(43.85 61.68) scale(0.31 0.14)" xlink:href="#New_Symbol_3"/><use width="174.77" height="164.37" transform="translate(12.43 59.24) scale(0.31 0.14)" xlink:href="#New_Symbol_3"/></g></g></g></svg>