<svg xmlns="http://www.w3.org/2000/svg" xmlns:xlink="http://www.w3.org/1999/xlink" viewBox="0 0 150.94 150.94"><defs><style>.cls-1{fill:url(#radial-gradient);}.cls-2{fill:url(#radial-gradient-2);}.cls-3{fill:url(#radial-gradient-3);}.cls-4{fill:url(#radial-gradient-4);}.cls-5{fill:url(#radial-gradient-5);}.cls-6{fill:url(#radial-gradient-6);}.cls-7{fill:url(#radial-gradient-7);}.cls-8{fill:url(#radial-gradient-8);}.cls-9{fill:url(#radial-gradient-9);}.cls-10{fill:url(#radial-gradient-10);}.cls-11{fill:url(#radial-gradient-11);}.cls-12{fill:url(#radial-gradient-12);}.cls-13{fill:url(#radial-gradient-13);}.cls-14{fill:url(#radial-gradient-14);}.cls-15{fill:url(#linear-gradient);}.cls-16{fill:url(#linear-gradient-2);}.cls-17{fill:url(#radial-gradient-15);}.cls-18{fill:url(#radial-gradient-16);}.cls-19{fill:url(#radial-gradient-17);}.cls-20{fill:url(#radial-gradient-18);}.cls-21{fill:url(#radial-gradient-19);}.cls-22{fill:url(#radial-gradient-20);}.cls-23{fill:url(#radial-gradient-21);}.cls-24{fill:url(#radial-gradient-22);}.cls-25{fill:url(#radial-gradient-23);}.cls-26{fill:url(#radial-gradient-24);}.cls-27{fill:url(#radial-gradient-25);}.cls-28{fill:url(#radial-gradient-26);}.cls-29{fill:url(#radial-gradient-27);}.cls-30{fill:url(#radial-gradient-28);}.cls-31{fill:url(#radial-gradient-29);}.cls-32{fill:url(#radial-gradient-30);}.cls-33{fill:url(#radial-gradient-31);}.cls-34{fill:url(#radial-gradient-32);}.cls-35{fill:url(#radial-gradient-33);}.cls-36{fill:url(#radial-gradient-34);}.cls-37{isolation:isolate;}.cls-38{mask:url(#mask);}.cls-39{fill:#1b75bb;}.cls-40{fill:url(#linear-gradient-3);}.cls-41{fill:url(#linear-gradient-4);}.cls-42{fill:url(#linear-gradient-5);}.cls-43{fill:url(#linear-gradient-6);}.cls-44{fill:url(#linear-gradient-7);}.cls-45{fill:url(#linear-gradient-8);}.cls-46{fill:url(#linear-gradient-9);}.cls-47{fill:url(#linear-gradient-10);}.cls-48{fill:url(#linear-gradient-11);}.cls-49{fill:url(#linear-gradient-12);}.cls-50{fill:url(#linear-gradient-13);}.cls-51{fill:url(#linear-gradient-14);}.cls-52{fill:url(#linear-gradient-15);}.cls-53{fill:url(#linear-gradient-16);}.cls-54{fill:url(#linear-gradient-17);}.cls-55{fill:url(#linear-gradient-18);}.cls-56{fill:url(#linear-gradient-19);}.cls-57{fill:url(#linear-gradient-20);}.cls-58{fill:url(#linear-gradient-21);}.cls-59{fill:url(#linear-gradient-22);}.cls-60{fill:url(#linear-gradient-23);}.cls-61{fill:url(#linear-gradient-24);}.cls-62{fill:url(#linear-gradient-25);}.cls-63{fill:url(#linear-gradient-26);}.cls-64{fill:url(#linear-gradient-27);}.cls-65{fill:url(#linear-gradient-28);}.cls-66{fill:url(#linear-gradient-29);}.cls-67{fill:url(#linear-gradient-30);}.cls-68{fill:url(#linear-gradient-31);}.cls-69{fill:url(#linear-gradient-32);}.cls-70{fill:url(#linear-gradient-33);}.cls-71{fill:url(#linear-gradient-34);}.cls-72{fill:url(#linear-gradient-35);}.cls-73{mask:url(#mask-2);}.cls-74{fill:#fff;}.cls-75{mask:url(#mask-3);}.cls-76{mask:url(#mask-4);}.cls-77{mask:url(#mask-5);}.cls-78{mask:url(#mask-6);}.cls-79{mask:url(#mask-7);}.cls-80{mask:url(#mask-8);}.cls-81{mask:url(#mask-9);}.cls-82{mask:url(#mask-10);}.cls-83{mask:url(#mask-11);}.cls-84{mask:url(#mask-12);}.cls-85{mask:url(#mask-13);}.cls-86{mask:url(#mask-14);}.cls-87{mask:url(#mask-15);}.cls-88{mask:url(#mask-16);}.cls-89{mask:url(#mask-17);}.cls-90{mask:url(#mask-18);}.cls-91{mask:url(#mask-19);}.cls-92{mask:url(#mask-20);}.cls-93{mask:url(#mask-21);}.cls-94{fill:#ffdd15;}.cls-95{fill:url(#radial-gradient-35);}.cls-96{mask:url(#mask-22);}.cls-97{mask:url(#mask-23);}.cls-98{fill:#fff8d0;mix-blend-mode:hard-light;}.cls-99{mask:url(#mask-24);}.cls-100{fill:url(#radial-gradient-36);}</style><radialGradient id="radial-gradient" cx="75.47" cy="75.47" r="75.47" gradientUnits="userSpaceOnUse"><stop offset="0" stop-color="#fff"/><stop offset="0.16" stop-color="#ddd"/><stop offset="0.51" stop-color="#858585"/><stop offset="1"/></radialGradient><radialGradient id="radial-gradient-2" cx="24.01" cy="92.12" r="3.22" xlink:href="#radial-gradient"/><radialGradient id="radial-gradient-3" cx="84.63" cy="106.75" r="1.12" xlink:href="#radial-gradient"/><radialGradient id="radial-gradient-4" cx="124.65" cy="100.67" r="1.12" xlink:href="#radial-gradient"/><radialGradient id="radial-gradient-5" cx="133.06" cy="86.9" r="1.12" xlink:href="#radial-gradient"/><radialGradient id="radial-gradient-6" cx="97.87" cy="100.54" r="1.12" xlink:href="#radial-gradient"/><radialGradient id="radial-gradient-7" cx="41.31" cy="103.75" r="1.12" xlink:href="#radial-gradient"/><radialGradient id="radial-gradient-8" cx="33.57" cy="120.96" r="1.12" xlink:href="#radial-gradient"/><radialGradient id="radial-gradient-9" cx="18.68" cy="83.52" r="1.12" xlink:href="#radial-gradient"/><radialGradient id="radial-gradient-10" cx="72.91" cy="103.25" r="1.12" xlink:href="#radial-gradient"/><radialGradient id="radial-gradient-11" cx="107.12" cy="124.27" r="1.12" xlink:href="#radial-gradient"/><radialGradient id="radial-gradient-12" cx="54.24" cy="129.28" r="1.12" xlink:href="#radial-gradient"/><radialGradient id="radial-gradient-13" cx="61.43" cy="108.45" r="3.22" xlink:href="#radial-gradient"/><radialGradient id="radial-gradient-14" cx="69.76" cy="58.97" r="34.09" gradientUnits="userSpaceOnUse"><stop offset="0" stop-color="#fff"/><stop offset="0.18" stop-color="#fcfcfc"/><stop offset="0.32" stop-color="#f3f3f3"/><stop offset="0.43" stop-color="#e3e3e3"/><stop offset="0.54" stop-color="#cdcdcd"/><stop offset="0.64" stop-color="#b0b0b0"/><stop offset="0.74" stop-color="#8c8c8c"/><stop offset="0.83" stop-color="#626262"/><stop offset="0.92" stop-color="#333"/><stop offset="1"/></radialGradient><linearGradient id="linear-gradient" x1="82.21" y1="71.64" x2="87.78" y2="77.21" gradientUnits="userSpaceOnUse"><stop offset="0.31"/><stop offset="0.4" stop-color="#101010"/><stop offset="0.59" stop-color="#38393a"/><stop offset="0.84" stop-color="#797a7d"/><stop offset="1" stop-color="#a6a8ab"/></linearGradient><linearGradient id="linear-gradient-2" x1="717.89" y1="-205.36" x2="736.56" y2="-232.92" gradientTransform="matrix(1.1, 0, 0, 0.75, -740.19, 212.16)" gradientUnits="userSpaceOnUse"><stop offset="0" stop-color="#231f20"/><stop offset="1" stop-color="#fff"/></linearGradient><radialGradient id="radial-gradient-15" cx="69.76" cy="59.05" r="38.81" gradientUnits="userSpaceOnUse"><stop offset="0" stop-color="#fff"/><stop offset="0.14" stop-color="#fbfbfb"/><stop offset="0.27" stop-color="#efefef"/><stop offset="0.4" stop-color="#dcdbdb"/><stop offset="0.54" stop-color="#c0bfc0"/><stop offset="0.67" stop-color="#9d9b9c"/><stop offset="0.8" stop-color="#726f70"/><stop offset="0.93" stop-color="#3f3c3d"/><stop offset="1" stop-color="#231f20"/></radialGradient><radialGradient id="radial-gradient-16" cx="115.54" cy="105.64" r="3.22" xlink:href="#radial-gradient"/><radialGradient id="radial-gradient-17" cx="129.84" cy="93.97" r="3.22" xlink:href="#radial-gradient"/><radialGradient id="radial-gradient-18" cx="79.55" cy="122.57" r="3.22" xlink:href="#radial-gradient"/><radialGradient id="radial-gradient-19" cx="98.99" cy="114.36" r="5.12" xlink:href="#radial-gradient"/><radialGradient id="radial-gradient-20" cx="30.95" cy="110.88" r="5.12" xlink:href="#radial-gradient"/><radialGradient id="radial-gradient-21" cx="65.2" cy="133.28" r="5.12" xlink:href="#radial-gradient"/><radialGradient id="radial-gradient-22" cx="86" cy="115.69" r="1.12" xlink:href="#radial-gradient"/><radialGradient id="radial-gradient-23" cx="95.12" cy="-1816.76" r="95.12" gradientTransform="translate(0 1622) scale(1 0.84)" gradientUnits="userSpaceOnUse"><stop offset="0" stop-color="#fff"/><stop offset="1" stop-color="#fff" stop-opacity="0"/></radialGradient><radialGradient id="radial-gradient-24" cx="-9050.25" cy="4758.5" r="119.53" gradientTransform="matrix(0, 0.67, -1, 0, 4910.05, 6212.54)" xlink:href="#radial-gradient-23"/><radialGradient id="radial-gradient-25" cx="17411.05" cy="18.6" r="89.72" gradientTransform="matrix(0.64, 0, 0, 1.04, -10965.65, 106.74)" xlink:href="#radial-gradient-23"/><radialGradient id="radial-gradient-26" cx="95.12" cy="-1816.76" r="95.12" gradientTransform="translate(0 1622) scale(1 0.84)" gradientUnits="userSpaceOnUse"><stop offset="0" stop-color="#58595b"/><stop offset="0.23" stop-color="#595a5c" stop-opacity="0.96"/><stop offset="0.44" stop-color="#5b5c5e" stop-opacity="0.84"/><stop offset="0.63" stop-color="#5f6062" stop-opacity="0.65"/><stop offset="0.81" stop-color="#656668" stop-opacity="0.37"/><stop offset="0.99" stop-color="#6d6e70" stop-opacity="0.01"/><stop offset="1" stop-color="#6d6e70" stop-opacity="0"/></radialGradient><radialGradient id="radial-gradient-27" cx="-9050.25" cy="4758.5" r="119.53" gradientTransform="matrix(0, 0.67, -1, 0, 4910.04, 6212.54)" xlink:href="#radial-gradient-26"/><radialGradient id="radial-gradient-28" cx="17411.05" cy="18.6" r="89.72" gradientTransform="matrix(0.64, 0, 0, 1.04, -10965.65, 106.73)" xlink:href="#radial-gradient-26"/><radialGradient id="radial-gradient-29" cx="95.12" cy="-1816.76" r="95.12" gradientTransform="translate(0 1622) scale(1 0.84)" gradientUnits="userSpaceOnUse"><stop offset="0" stop-color="#bbbdbf"/><stop offset="0.17" stop-color="#bcbec0" stop-opacity="0.98"/><stop offset="0.31" stop-color="#bec0c2" stop-opacity="0.93"/><stop offset="0.45" stop-color="#c2c4c6" stop-opacity="0.83"/><stop offset="0.58" stop-color="#c8cacb" stop-opacity="0.7"/><stop offset="0.71" stop-color="#cfd1d2" stop-opacity="0.53"/><stop offset="0.84" stop-color="#d8dadb" stop-opacity="0.32"/><stop offset="0.97" stop-color="#e3e4e5" stop-opacity="0.07"/><stop offset="1" stop-color="#e6e7e8" stop-opacity="0"/></radialGradient><radialGradient id="radial-gradient-30" cx="-9050.25" cy="4758.5" r="119.53" gradientTransform="matrix(0, 0.67, -1, 0, 4910.04, 6212.54)" xlink:href="#radial-gradient-29"/><radialGradient id="radial-gradient-31" cx="17411.05" cy="18.6" r="89.72" gradientTransform="matrix(0.64, 0, 0, 1.04, -10965.65, 106.73)" xlink:href="#radial-gradient-29"/><radialGradient id="radial-gradient-32" cx="68.47" cy="-1844.62" r="68.47" gradientTransform="translate(0 1617.18) scale(1 0.84)" gradientUnits="userSpaceOnUse"><stop offset="0"/><stop offset="1" stop-opacity="0"/></radialGradient><radialGradient id="radial-gradient-33" cx="-9094.4" cy="4728.06" r="86.04" gradientTransform="matrix(0, 0.67, -1, 0, 4837.09, 6210.96)" xlink:href="#radial-gradient-32"/><radialGradient id="radial-gradient-34" cx="17327.52" cy="-18.19" r="64.58" gradientTransform="matrix(0.64, 0, 0, 1.04, -10970.6, 137.77)" xlink:href="#radial-gradient-32"/><mask id="mask" x="0" y="0" width="150.94" height="150.94" maskUnits="userSpaceOnUse"><circle class="cls-1" cx="75.47" cy="75.47" r="75.47"/></mask><linearGradient id="linear-gradient-3" x1="-3676.26" y1="1644.74" x2="-3672.23" y2="1648.76" gradientTransform="matrix(-0.71, 0.71, 0.8, 0.66, -3857.31, 1604.31)" gradientUnits="userSpaceOnUse"><stop offset="0" stop-color="#26a9e0"/><stop offset="0.34" stop-color="#25a6de"/><stop offset="0.58" stop-color="#239dd7"/><stop offset="0.79" stop-color="#208dcc"/><stop offset="0.98" stop-color="#1b77bc"/><stop offset="1" stop-color="#1b75bb"/></linearGradient><linearGradient id="linear-gradient-4" x1="-4456.86" y1="1215.34" x2="-4452.66" y2="1219.54" gradientTransform="matrix(-0.66, 0.43, 0.76, 0.57, -3807.28, 1323.89)" gradientUnits="userSpaceOnUse"><stop offset="0" stop-color="#a4c8e4"/><stop offset="0.14" stop-color="#9bc6e4"/><stop offset="0.38" stop-color="#83c0e3"/><stop offset="0.67" stop-color="#5bb6e2"/><stop offset="1" stop-color="#26a9e0"/></linearGradient><linearGradient id="linear-gradient-5" x1="-5439.68" y1="2301.72" x2="-5436.68" y2="2304.72" gradientTransform="matrix(-0.42, 0.32, 0.58, 0.26, -3583.65, 1207.25)" gradientUnits="userSpaceOnUse"><stop offset="0" stop-color="#d1e3f1"/><stop offset="1" stop-color="#a4c8e4"/></linearGradient><linearGradient id="linear-gradient-6" x1="-3669.84" y1="1669.53" x2="-3665.81" y2="1673.56" xlink:href="#linear-gradient-3"/><linearGradient id="linear-gradient-7" x1="-4446.42" y1="1244.29" x2="-4442.21" y2="1248.5" xlink:href="#linear-gradient-4"/><linearGradient id="linear-gradient-8" x1="-5411.9" y1="2348.07" x2="-5408.9" y2="2351.07" xlink:href="#linear-gradient-5"/><linearGradient id="linear-gradient-9" x1="-3672.19" y1="1630.18" x2="-3668.16" y2="1634.2" xlink:href="#linear-gradient-3"/><linearGradient id="linear-gradient-10" x1="-4452.5" y1="1200.14" x2="-4448.29" y2="1204.34" xlink:href="#linear-gradient-4"/><linearGradient id="linear-gradient-11" x1="-5440.11" y1="2276.52" x2="-5437.11" y2="2279.52" xlink:href="#linear-gradient-5"/><linearGradient id="linear-gradient-12" x1="-3686.18" y1="1688.44" x2="-3682.16" y2="1692.46" xlink:href="#linear-gradient-3"/><linearGradient id="linear-gradient-13" x1="-4466.9" y1="1261.52" x2="-4462.69" y2="1265.72" xlink:href="#linear-gradient-4"/><linearGradient id="linear-gradient-14" x1="-5433.74" y1="2377.98" x2="-5430.74" y2="2380.98" xlink:href="#linear-gradient-5"/><linearGradient id="linear-gradient-15" x1="-3703.61" y1="1691.81" x2="-3699.59" y2="1695.83" xlink:href="#linear-gradient-3"/><linearGradient id="linear-gradient-16" x1="-4489.99" y1="1261.27" x2="-4485.79" y2="1265.48" xlink:href="#linear-gradient-4"/><linearGradient id="linear-gradient-17" x1="-5467.05" y1="2379.61" x2="-5464.04" y2="2382.61" xlink:href="#linear-gradient-5"/><linearGradient id="linear-gradient-18" x1="-3711.28" y1="1675.77" x2="-3707.26" y2="1679.8" xlink:href="#linear-gradient-3"/><linearGradient id="linear-gradient-19" x1="-4501.47" y1="1241.75" x2="-4497.27" y2="1245.95" xlink:href="#linear-gradient-4"/><linearGradient id="linear-gradient-20" x1="-5492.16" y1="2348.73" x2="-5489.15" y2="2351.74" xlink:href="#linear-gradient-5"/><linearGradient id="linear-gradient-21" x1="-3684.63" y1="1667.13" x2="-3680.61" y2="1671.15" xlink:href="#linear-gradient-3"/><linearGradient id="linear-gradient-22" x1="-4466.41" y1="1238.25" x2="-4462.21" y2="1242.45" xlink:href="#linear-gradient-4"/><linearGradient id="linear-gradient-23" x1="-5443.3" y1="2339.96" x2="-5440.3" y2="2342.96" xlink:href="#linear-gradient-5"/><linearGradient id="linear-gradient-24" x1="-3699.7" y1="1673.2" x2="-3693.24" y2="1679.66" xlink:href="#linear-gradient-3"/><linearGradient id="linear-gradient-25" x1="-4485.93" y1="1241.75" x2="-4479.18" y2="1248.5" xlink:href="#linear-gradient-4"/><linearGradient id="linear-gradient-26" x1="-5469.52" y1="2346.88" x2="-5464.7" y2="2351.71" xlink:href="#linear-gradient-5"/><linearGradient id="linear-gradient-27" x1="-3666.07" y1="1649.12" x2="-3659.61" y2="1655.58" xlink:href="#linear-gradient-3"/><linearGradient id="linear-gradient-28" x1="-4442.67" y1="1222.74" x2="-4435.92" y2="1229.49" xlink:href="#linear-gradient-4"/><linearGradient id="linear-gradient-29" x1="-5415.73" y1="2312.06" x2="-5410.91" y2="2316.88" xlink:href="#linear-gradient-5"/><linearGradient id="linear-gradient-30" x1="-3723.68" y1="1682.23" x2="-3717.22" y2="1688.69" xlink:href="#linear-gradient-3"/><linearGradient id="linear-gradient-31" x1="-4517.37" y1="1246.28" x2="-4510.62" y2="1253.03" xlink:href="#linear-gradient-4"/><linearGradient id="linear-gradient-32" x1="-5512.72" y1="2357.04" x2="-5507.9" y2="2361.86" xlink:href="#linear-gradient-5"/><linearGradient id="linear-gradient-33" x1="-3684.92" y1="1652.42" x2="-3681.98" y2="1655.37" xlink:href="#linear-gradient-3"/><linearGradient id="linear-gradient-34" x1="-4468" y1="1221.79" x2="-4464.92" y2="1224.87" xlink:href="#linear-gradient-4"/><linearGradient id="linear-gradient-35" x1="-5452.98" y1="2313.44" x2="-5450.78" y2="2315.63" xlink:href="#linear-gradient-5"/><mask id="mask-2" x="20.79" y="88.9" width="6.44" height="6.45" maskUnits="userSpaceOnUse"><circle class="cls-2" cx="24.01" cy="92.12" r="3.22"/></mask><mask id="mask-3" x="58.21" y="105.23" width="6.44" height="6.44" maskUnits="userSpaceOnUse"><circle class="cls-13" cx="61.43" cy="108.45" r="3.22"/></mask><mask id="mask-4" x="112.31" y="102.42" width="6.44" height="6.44" maskUnits="userSpaceOnUse"><circle class="cls-18" cx="115.54" cy="105.64" r="3.22"/></mask><mask id="mask-5" x="126.62" y="90.75" width="6.44" height="6.45" maskUnits="userSpaceOnUse"><circle class="cls-19" cx="129.84" cy="93.97" r="3.22"/></mask><mask id="mask-6" x="76.33" y="119.34" width="6.44" height="6.45" maskUnits="userSpaceOnUse"><circle class="cls-20" cx="79.55" cy="122.57" r="3.22"/></mask><mask id="mask-7" x="93.87" y="109.24" width="10.23" height="10.23" maskUnits="userSpaceOnUse"><circle class="cls-21" cx="98.99" cy="114.36" r="5.12"/></mask><mask id="mask-8" x="25.83" y="105.76" width="10.23" height="10.23" maskUnits="userSpaceOnUse"><circle class="cls-22" cx="30.95" cy="110.88" r="5.12"/></mask><mask id="mask-9" x="60.09" y="128.16" width="10.23" height="10.23" maskUnits="userSpaceOnUse"><circle class="cls-23" cx="65.2" cy="133.28" r="5.12"/></mask><mask id="mask-10" x="84.88" y="114.57" width="2.24" height="2.24" maskUnits="userSpaceOnUse"><circle class="cls-24" cx="86" cy="115.68" r="1.12"/></mask><mask id="mask-11" x="83.51" y="105.63" width="2.24" height="2.24" maskUnits="userSpaceOnUse"><circle class="cls-3" cx="84.63" cy="106.75" r="1.12"/></mask><mask id="mask-12" x="123.53" y="99.55" width="2.24" height="2.24" maskUnits="userSpaceOnUse"><circle class="cls-4" cx="124.65" cy="100.67" r="1.12"/></mask><mask id="mask-13" x="131.95" y="85.78" width="2.24" height="2.24" maskUnits="userSpaceOnUse"><circle class="cls-5" cx="133.06" cy="86.9" r="1.12"/></mask><mask id="mask-14" x="96.75" y="99.42" width="2.24" height="2.24" maskUnits="userSpaceOnUse"><circle class="cls-6" cx="97.87" cy="100.54" r="1.12"/></mask><mask id="mask-15" x="40.19" y="102.63" width="2.24" height="2.24" maskUnits="userSpaceOnUse"><circle class="cls-7" cx="41.31" cy="103.74" r="1.12"/></mask><mask id="mask-16" x="32.45" y="119.84" width="2.24" height="2.24" maskUnits="userSpaceOnUse"><circle class="cls-8" cx="33.57" cy="120.96" r="1.12"/></mask><mask id="mask-17" x="17.57" y="82.4" width="2.24" height="2.24" maskUnits="userSpaceOnUse"><circle class="cls-9" cx="18.68" cy="83.52" r="1.12"/></mask><mask id="mask-18" x="71.79" y="102.13" width="2.24" height="2.24" maskUnits="userSpaceOnUse"><circle class="cls-10" cx="72.91" cy="103.25" r="1.12"/></mask><mask id="mask-19" x="106" y="123.15" width="2.24" height="2.24" maskUnits="userSpaceOnUse"><circle class="cls-11" cx="107.12" cy="124.27" r="1.12"/></mask><mask id="mask-20" x="53.12" y="128.16" width="2.24" height="2.24" maskUnits="userSpaceOnUse"><circle class="cls-12" cx="54.24" cy="129.28" r="1.12"/></mask><mask id="mask-21" x="35.67" y="24.88" width="68.18" height="68.18" maskUnits="userSpaceOnUse"><circle class="cls-14" cx="69.76" cy="58.97" r="34.09"/></mask><radialGradient id="radial-gradient-35" cx="69.76" cy="59.05" r="26.73" gradientUnits="userSpaceOnUse"><stop offset="0" stop-color="#ffdd15"/><stop offset="0.48" stop-color="#ffdb15"/><stop offset="0.65" stop-color="#fed416"/><stop offset="0.77" stop-color="#fdc917"/><stop offset="0.87" stop-color="#fbb819"/><stop offset="0.95" stop-color="#f8a21c"/><stop offset="1" stop-color="#f6921e"/></radialGradient><mask id="mask-22" x="75.57" y="65.01" width="18.11" height="18.11" maskUnits="userSpaceOnUse"><path class="cls-15" d="M93.29,65.33c1.32,1.32-.71,7.08-5.51,11.88S77.21,84,75.9,82.72s1.51-6.28,6.31-11.08S92,64,93.29,65.33Z"/></mask><mask id="mask-23" x="45.42" y="33.4" width="32.01" height="30.64" maskUnits="userSpaceOnUse"><ellipse class="cls-16" cx="61.43" cy="48.72" rx="18.35" ry="12.41" transform="translate(-16.85 53.11) rotate(-41.63)"/></mask><mask id="mask-24" x="30.95" y="20.24" width="77.63" height="77.63" maskUnits="userSpaceOnUse"><path class="cls-17" d="M101.37,73.26l-7.45-2.77q.23-.48.43-1Zm-9.59.94-.32.45L95,76.82Zm3.14-6.12,3.33.92-3.18-1.35Zm1.13-4.23c0,.26-.1.52-.15.78l5.9.76Zm.23-1.51c0,.34-.09.68-.15,1l7.69.58Zm.19-4.1c0,.27,0,.54,0,.81s0,.54,0,.81l12.1-.81Zm-4.73-14.4.44.66,4.71-3.63Zm2.81,5.22c.13.33.26.66.38,1l7.22-3.31ZM96,54.18c0,.18.06.36.1.55l4.06-1Zm-2.11-6.54,3-1.71-3.21,1.29ZM81.2,34.89,84,27.44l-3.73,7Zm2.42,1.31,4.85-10-6.13,9.28Q83,35.81,83.62,36.19ZM96.44,57.37c0,.18,0,.37,0,.56l4.15-.5Zm-9.1-18.47,6-8.37L86.27,38C86.63,38.31,87,38.61,87.33,38.91Zm-10-5.5,2.25-11.69L75.78,33C76.3,33.12,76.81,33.26,77.31,33.4Zm1.47.48.92-3.33-1.35,3.18Zm10.43,6.85,8-9.12-9.12,8Q88.67,40.14,89.22,40.73Zm4,5.53,9.86-6.68L92.43,44.89Q92.85,45.56,93.24,46.26ZM75.33,32.9l.76-5.9-1.54,5.75Zm21.1,24.33,10.2-1.65-10.32.28Q96.38,56.54,96.43,57.23Zm-5-13.79,5.85-5-6.47,4.2Q91.16,43,91.46,43.44Zm4.27,9.25L106.23,49,95.34,51.26Q95.55,52,95.73,52.69ZM44.59,50l-3.33-.92,3.18,1.35Zm.57-1.45q.21-.49.44-1l-7.45-2.77Zm-1.7,5.68c0-.26.1-.52.15-.78l-5.9-.76Zm-.31,2.33-5.43-.07,5.38.79C43.1,57.06,43.12,56.82,43.14,56.58Zm.09-.82c0-.34.09-.68.15-1l-7.69-.58Zm-.15,5c0-.18,0-.37,0-.56l-4.15.5Zm46.73,16-.37.41,3.29,2.58ZM47.73,43.91l.32-.45-3.57-2.17ZM96.43,60.8q0,.36-.06.72l5.43.07ZM49.71,41.37l.37-.41L46.8,38.37ZM52.08,79.1l-.41-.37L49.08,82ZM84.9,37l.45.32,2.17-3.57ZM54.62,81.08l-.45-.32L52,84.33Zm-.06-44,.66-.44-3.64-4.71ZM87.44,39l.41.37,2.58-3.29ZM85,81l-.66.44,3.64,4.71ZM47.78,74.26l-.44-.66-4.71,3.64Zm-2.19-3.79-3,1.71,3.21-1.29Zm4.08,6.21-.47-.55-3.89,3.79ZM45,69q-.2-.49-.38-1l-7.22,3.31Zm-1.49-5.12q-.05-.27-.09-.55l-4.06,1ZM89.86,41.43l.47.55,3.89-3.79Zm-24.4,44-.58,7.69,1.6-7.54Zm1.84.23-.07,5.43L68,85.72Zm2.47.12H69l.81,12.1.81-12.1Zm1.12,0,.5,4.15.06-4.18Zm3.2-.32,1,4.06-.44-4.15Zm-2.5.29,1.65,10.19-.28-10.32Q72.27,85.67,71.58,85.72ZM52.19,79.19l-6,8.37,7.1-7.5Q52.71,79.65,52.19,79.19Zm12,6-.76,5.9L65,85.35ZM55.9,81.91l-4.85,10,6.13-9.28C56.75,82.41,56.32,82.17,55.9,81.91Zm6.31,2.79L60,96.39,63.74,85.1C63.22,85,62.71,84.84,62.21,84.7Zm-1.47-.48-.92,3.33,1.35-3.18Zm-2.41-1-2.77,7.45,3.73-7ZM89.9,76.62l8.37,6-7.5-7.1Q90.35,76.11,89.9,76.62Zm-1.82,1.89,9.12,8-8-9.12Q88.67,78,88.08,78.51Zm4.54-5.6,10,4.85-9.28-6.13C93.12,72.06,92.88,72.49,92.62,72.91Zm2.79-6.31,11.69,2.25L95.81,65.07C95.69,65.59,95.55,66.1,95.41,66.61Zm-8.57,13,3.79,3.89-3.24-4.36ZM76.12,85l3.65,10.5L77.55,84.63Q76.84,84.84,76.12,85Zm5-1.79,1.71,3L81.59,83Zm-2.41,1,3.31,7.22-2.32-7.6Zm6.61-3.48,5,5.85-4.2-6.47Zm-2.82,1.78,6.68,9.86L83.92,81.72C83.47,82,83,82.27,82.55,82.53Zm-38.44-31L32.42,49.24,43.71,53C43.83,52.51,44,52,44.11,51.5ZM63.4,33.08l-3.65-10.5L62,33.47Q62.68,33.26,63.4,33.08Zm-2.64.79-3.31-7.22,2.32,7.6ZM57,35.57l-6.68-9.86L55.6,36.38Q56.27,36,57,35.57Zm8.47-2.91-1-4.06.44,4.15ZM54.15,37.35l-5-5.85L53.33,38Zm4.2-2.48-1.71-3,1.29,3.21Zm13.88-2.44L72.29,27l-.79,5.37Zm-2.47-.11h.81l-.81-12.1L69,32.33Zm-1.82.06L66.29,22.19l.28,10.32C67,32.46,67.48,32.41,67.94,32.38Zm.7,0-.5-4.15-.06,4.18ZM43.79,65.41l-10.5,3.65,10.89-2.22Q44,66.14,43.79,65.41Zm6.5,12-8,9.12,9.12-8Q50.85,78,50.3,77.37ZM43,59.05c0-.27,0-.54,0-.81l-12.1.81,12.1.81C43,59.59,43,59.32,43,59.05Zm.06,1.82L32.9,62.52l10.32-.28C43.16,61.78,43.12,61.33,43.09,60.87Zm5,13.79-5.85,5,6.47-4.2Q48.36,75.08,48.06,74.66Zm-1.78-2.82-9.86,6.68,10.66-5.31Q46.67,72.54,46.28,71.84Zm6.4-33.36L48.89,34.6,52.14,39Zm-3.07,3-8.37-6,7.5,7.1Q49.17,42,49.62,41.48Zm24.45-8.81L74.65,25,73,32.52ZM51.44,39.59l-9.12-8,8,9.12Q50.85,40.14,51.44,39.59Zm-4.54,5.6-10-4.84,9.28,6.13C46.4,46,46.64,45.61,46.9,45.19Z"/></mask><radialGradient id="radial-gradient-36" cx="69.76" cy="59.05" r="38.81" gradientUnits="userSpaceOnUse"><stop offset="0.13" stop-color="#f6921e"/><stop offset="1" stop-color="#ffdd15"/></radialGradient><symbol id="New_Symbol" data-name="New Symbol" viewBox="0 0 257.01 223.64"><ellipse class="cls-25" cx="95.12" cy="100.46" rx="95.12" ry="79.67"/><ellipse class="cls-26" cx="151.78" cy="111.82" rx="119.53" ry="80.57" transform="translate(-19.1 191.45) rotate(-61.36)"/><ellipse class="cls-27" cx="167.61" cy="125.74" rx="57.37" ry="93.72" transform="translate(-12.47 232.87) rotate(-67.62)"/></symbol><symbol id="New_Symbol_2" data-name="New Symbol 2" viewBox="0 0 257.01 223.64"><ellipse class="cls-31" cx="95.12" cy="100.46" rx="95.12" ry="79.67"/><ellipse class="cls-32" cx="151.78" cy="111.82" rx="119.53" ry="80.57" transform="translate(-19.1 191.45) rotate(-61.36)"/><ellipse class="cls-33" cx="167.61" cy="125.74" rx="57.37" ry="93.72" transform="translate(-12.47 232.87) rotate(-67.62)"/></symbol><symbol id="New_Symbol_3" data-name="New Symbol 3" viewBox="0 0 174.77 164.37"><ellipse class="cls-34" cx="68.47" cy="72.31" rx="68.47" ry="57.35"/><ellipse class="cls-35" cx="109.26" cy="80.49" rx="86.04" ry="58" transform="translate(-13.75 137.81) rotate(-61.36)"/><ellipse class="cls-36" cx="109.26" cy="118.34" rx="41.3" ry="67.46" transform="translate(-41.76 174.32) rotate(-67.62)"/></symbol></defs><title>Ресурс 12weather</title><g class="cls-37"><g id="Слой_2" data-name="Слой 2"><g id="Layer_2" data-name="Layer 2"><g class="cls-38"><circle class="cls-39" cx="75.47" cy="75.47" r="75.47"/></g><path class="cls-39" d="M52.07,103a2.25,2.25,0,1,0,3.18-3.17c-1.5-1.5-5.18-2-5.18-2S50.58,101.47,52.07,103Z"/><path class="cls-40" d="M52.28,102.55a2.11,2.11,0,0,0,3.18,0c.29-.31.91-1.65-.69-3s-4.63-1.67-4.63-1.67S50.77,101.16,52.28,102.55Z"/><path class="cls-41" d="M52.53,101.59c1.64,1.38,2.7.67,3,.41s.77-1.36-.82-2.55a12.67,12.67,0,0,0-4.4-1.59A9.1,9.1,0,0,0,52.53,101.59Z"/><path class="cls-42" d="M52.42,99.47c.9.5,1.29.23,1.38.14s.19-.5-.68-.92A8.38,8.38,0,0,0,51,98.12,5.14,5.14,0,0,0,52.42,99.47Z"/><path class="cls-39" d="M67.3,124a2.25,2.25,0,1,0,3.17-3.18c-1.5-1.5-5.18-2-5.18-2S65.8,122.48,67.3,124Z"/><path class="cls-43" d="M67.5,123.56a2.11,2.11,0,0,0,3.18,0c.29-.31.91-1.65-.69-3s-4.64-1.67-4.64-1.67S66,122.18,67.5,123.56Z"/><path class="cls-44" d="M67.75,122.61c1.64,1.38,2.7.67,3,.41s.77-1.36-.82-2.55a12.71,12.71,0,0,0-4.4-1.59A9.11,9.11,0,0,0,67.75,122.61Z"/><path class="cls-45" d="M67.64,120.48c.91.5,1.29.23,1.38.14s.19-.5-.67-.92a8.38,8.38,0,0,0-2.17-.56A5.13,5.13,0,0,0,67.64,120.48Z"/><path class="cls-39" d="M37.6,96.17A2.25,2.25,0,1,0,40.77,93c-1.5-1.5-5.18-2-5.18-2S36.1,94.67,37.6,96.17Z"/><path class="cls-46" d="M37.81,95.75a2.11,2.11,0,0,0,3.18,0c.29-.31.91-1.65-.69-3S35.66,91,35.66,91,36.29,94.37,37.81,95.75Z"/><path class="cls-47" d="M38.05,94.8c1.64,1.39,2.7.67,3,.41s.78-1.36-.82-2.55a12.7,12.7,0,0,0-4.4-1.59A9.12,9.12,0,0,0,38.05,94.8Z"/><path class="cls-48" d="M37.94,92.67c.91.5,1.29.23,1.38.14s.18-.5-.68-.92a8.45,8.45,0,0,0-2.17-.56A5.14,5.14,0,0,0,37.94,92.67Z"/><path class="cls-39" d="M93.92,125a2.25,2.25,0,1,0,3.17-3.18c-1.5-1.5-5.18-2-5.18-2S92.42,123.49,93.92,125Z"/><path class="cls-49" d="M94.13,124.57a2.11,2.11,0,0,0,3.18,0c.29-.31.91-1.65-.69-3S92,119.86,92,119.86,92.61,123.19,94.13,124.57Z"/><path class="cls-50" d="M94.37,123.61c1.64,1.39,2.69.67,3,.41s.78-1.36-.82-2.55a12.68,12.68,0,0,0-4.4-1.59A9.12,9.12,0,0,0,94.37,123.61Z"/><path class="cls-51" d="M94.26,121.49c.91.5,1.29.23,1.38.14s.18-.5-.67-.92a8.46,8.46,0,0,0-2.17-.56A5.14,5.14,0,0,0,94.26,121.49Z"/><path class="cls-39" d="M108.93,114.9a2.25,2.25,0,1,0,3.18-3.18c-1.5-1.5-5.18-2-5.18-2S107.43,113.41,108.93,114.9Z"/><path class="cls-52" d="M109.14,114.49a2.11,2.11,0,0,0,3.18,0c.29-.31.91-1.65-.69-3s-4.63-1.67-4.63-1.67S107.62,113.1,109.14,114.49Z"/><path class="cls-53" d="M109.38,113.53c1.64,1.39,2.69.67,3,.41s.77-1.36-.82-2.55a12.7,12.7,0,0,0-4.4-1.59A9.11,9.11,0,0,0,109.38,113.53Z"/><path class="cls-54" d="M109.27,111.41c.91.5,1.29.23,1.38.14s.18-.5-.68-.92a8.42,8.42,0,0,0-2.17-.56A5.15,5.15,0,0,0,109.27,111.41Z"/><path class="cls-39" d="M101.58,98.82a2.25,2.25,0,1,0,3.18-3.17c-1.5-1.5-5.18-2-5.18-2S100.08,97.32,101.58,98.82Z"/><path class="cls-55" d="M101.79,98.4a2.11,2.11,0,0,0,3.18,0c.29-.31.91-1.65-.69-3s-4.63-1.67-4.63-1.67S100.27,97,101.79,98.4Z"/><path class="cls-56" d="M102,97.45c1.64,1.39,2.69.67,3,.41s.77-1.36-.82-2.55a12.7,12.7,0,0,0-4.4-1.59A9.11,9.11,0,0,0,102,97.45Z"/><path class="cls-57" d="M101.92,95.32c.91.5,1.29.24,1.38.14s.18-.5-.67-.92a8.42,8.42,0,0,0-2.17-.56A5.14,5.14,0,0,0,101.92,95.32Z"/><path class="cls-39" d="M75.84,111.92A2.25,2.25,0,1,0,79,108.75c-1.5-1.5-5.18-2-5.18-2S74.34,110.43,75.84,111.92Z"/><path class="cls-58" d="M76,111.51a2.11,2.11,0,0,0,3.18,0c.29-.31.91-1.65-.69-3s-4.63-1.67-4.63-1.67S74.53,110.12,76,111.51Z"/><path class="cls-59" d="M76.3,110.55c1.64,1.39,2.69.67,3,.41s.77-1.36-.82-2.55a12.68,12.68,0,0,0-4.4-1.59A9.1,9.1,0,0,0,76.3,110.55Z"/><path class="cls-60" d="M76.19,108.43c.9.5,1.29.23,1.38.14s.19-.5-.67-.92a8.38,8.38,0,0,0-2.17-.56A5.14,5.14,0,0,0,76.19,108.43Z"/><path class="cls-39" d="M90.86,108.45a3.61,3.61,0,1,0,5.1-5.1c-2.41-2.41-8.32-3.22-8.32-3.22S88.45,106,90.86,108.45Z"/><path class="cls-61" d="M91.19,107.79a3.39,3.39,0,0,0,5.11-.07c.46-.5,1.47-2.64-1.11-4.82s-7.44-2.69-7.44-2.69S88.75,105.56,91.19,107.79Z"/><path class="cls-62" d="M91.59,106.25c2.64,2.23,4.33,1.08,4.76.66s1.24-2.18-1.32-4.09C92.66,101,88,100.25,88,100.25S89.16,104.2,91.59,106.25Z"/><path class="cls-63" d="M91.41,102.84c1.45.8,2.08.37,2.22.22s.3-.8-1.08-1.48a13.46,13.46,0,0,0-3.49-.9A8.28,8.28,0,0,0,91.41,102.84Z"/><path class="cls-39" d="M47.89,116.24a3.61,3.61,0,1,0,5.1-5.1c-2.41-2.41-8.32-3.22-8.32-3.22S45.48,113.83,47.89,116.24Z"/><path class="cls-64" d="M48.22,115.57a3.39,3.39,0,0,0,5.1-.07c.46-.5,1.47-2.64-1.11-4.82S44.77,108,44.77,108,45.78,113.34,48.22,115.57Z"/><path class="cls-65" d="M48.62,114c2.64,2.23,4.33,1.08,4.76.66s1.24-2.18-1.32-4.09C49.69,108.82,45,108,45,108S46.19,112,48.62,114Z"/><path class="cls-66" d="M48.44,110.62c1.45.8,2.07.38,2.22.22s.3-.8-1.08-1.48a13.56,13.56,0,0,0-3.49-.9A8.24,8.24,0,0,0,48.44,110.62Z"/><path class="cls-39" d="M115,97.5a3.61,3.61,0,1,0,5.1-5.1c-2.41-2.41-8.32-3.22-8.32-3.22S112.6,95.09,115,97.5Z"/><path class="cls-67" d="M115.34,96.83a3.39,3.39,0,0,0,5.1-.07c.46-.5,1.47-2.65-1.11-4.82s-7.45-2.69-7.45-2.69S112.9,94.61,115.34,96.83Z"/><path class="cls-68" d="M115.74,95.29c2.64,2.23,4.33,1.08,4.76.66s1.24-2.18-1.32-4.09c-2.38-1.77-7.07-2.56-7.07-2.56S113.31,93.24,115.74,95.29Z"/><path class="cls-69" d="M115.56,91.88c1.46.8,2.08.38,2.22.22s.3-.8-1.08-1.48a13.5,13.5,0,0,0-3.49-.9A8.26,8.26,0,0,0,115.56,91.88Z"/><path class="cls-39" d="M64.54,100.55a1.65,1.65,0,1,0,2.33-2.33c-1.1-1.1-3.79-1.47-3.79-1.47S63.44,99.45,64.54,100.55Z"/><path class="cls-70" d="M64.69,100.24a1.55,1.55,0,0,0,2.33,0c.21-.23.67-1.21-.51-2.2a7.92,7.92,0,0,0-3.4-1.22A7.63,7.63,0,0,0,64.69,100.24Z"/><path class="cls-71" d="M64.87,99.54c1.2,1,2,.49,2.17.3s.57-1-.6-1.87a9.31,9.31,0,0,0-3.23-1.16A6.69,6.69,0,0,0,64.87,99.54Z"/><path class="cls-72" d="M64.79,98c.66.36.95.17,1,.1s.13-.36-.49-.68A6.2,6.2,0,0,0,63.72,97,3.79,3.79,0,0,0,64.79,98Z"/><g class="cls-73"><circle class="cls-74" cx="24.01" cy="92.12" r="3.22"/></g><g class="cls-75"><circle class="cls-74" cx="61.43" cy="108.45" r="3.22"/></g><g class="cls-76"><circle class="cls-74" cx="115.54" cy="105.64" r="3.22"/></g><g class="cls-77"><circle class="cls-74" cx="129.84" cy="93.97" r="3.22"/></g><g class="cls-78"><circle class="cls-74" cx="79.55" cy="122.57" r="3.22"/></g><g class="cls-79"><circle class="cls-74" cx="98.99" cy="114.36" r="5.12"/></g><g class="cls-80"><circle class="cls-74" cx="30.95" cy="110.88" r="5.12"/></g><g class="cls-81"><circle class="cls-74" cx="65.2" cy="133.28" r="5.12"/></g><g class="cls-82"><circle class="cls-74" cx="86" cy="115.68" r="1.12"/></g><g class="cls-83"><circle class="cls-74" cx="84.63" cy="106.75" r="1.12"/></g><g class="cls-84"><circle class="cls-74" cx="124.65" cy="100.67" r="1.12"/></g><g class="cls-85"><circle class="cls-74" cx="133.06" cy="86.9" r="1.12"/></g><g class="cls-86"><circle class="cls-74" cx="97.87" cy="100.54" r="1.12"/></g><g class="cls-87"><circle class="cls-74" cx="41.31" cy="103.74" r="1.12"/></g><g class="cls-88"><circle class="cls-74" cx="33.57" cy="120.96" r="1.12"/></g><g class="cls-89"><circle class="cls-74" cx="18.68" cy="83.52" r="1.12"/></g><g class="cls-90"><circle class="cls-74" cx="72.91" cy="103.25" r="1.12"/></g><g class="cls-91"><circle class="cls-74" cx="107.12" cy="124.27" r="1.12"/></g><g class="cls-92"><circle class="cls-74" cx="54.24" cy="129.28" r="1.12"/></g><path class="cls-74" d="M34.63,97.82a1,1,0,0,0-.9.64h-.39a2.42,2.42,0,0,0-.48-1.16l.28-.27a1,1,0,1,0-.44-.45l-.28.28a2.38,2.38,0,0,0-1.15-.48V96a1,1,0,1,0-.63,0v.39a2.39,2.39,0,0,0-1.16.48l-.28-.28a1,1,0,1,0-.44.45l.28.27a2.41,2.41,0,0,0-.48,1.16h-.39a1,1,0,1,0,0,.63h.39a2.39,2.39,0,0,0,.48,1.15l-.28.28a1,1,0,1,0,.44.44l.28-.28a2.41,2.41,0,0,0,1.16.48v.39a1,1,0,1,0,.63,0v-.39a2.4,2.4,0,0,0,1.15-.48l.28.28a1,1,0,1,0,.44-.44l-.28-.28a2.4,2.4,0,0,0,.48-1.15h.39a1,1,0,1,0,.9-1.27Zm-1.54-2.11a.65.65,0,1,1,.28,1.09h-.12l0,0h0l0,0h0l0,0h0l0,0h0l0,0,0,0h0l0,0h0l0,0h0l0,0h0l0,0h0v0h0v0h0v0A.65.65,0,0,1,33.09,95.71ZM29,96.35v0h0v0h0v0h0l0,0h0l0,0h0l0,0h0l0,0h0l0,0,0,0h0l0,0h0l0,0h0l0,0h0l0,0h-.11a.65.65,0,1,1,.45-.45Zm-1.06,2.46h0v0h0v0h0v0h0v0h0v0h0v0h0l0,0a.65.65,0,1,1,0-.63l0,0h0v0h0v0h0v0h0v0h0v0h0v0h0a.34.34,0,0,1,0,0A.36.36,0,0,1,27.91,98.81Zm.89,3a.65.65,0,1,1-.28-1.09h.11l0,0h0l0,0h0l0,0h0l0,0h0l0,0,0,0h0l0,0h0l0,0h0l0,0h0l0,0h0v0h0v0h0v0A.65.65,0,0,1,28.8,101.84Zm4.12-.65v0h0v0h0v0h0l0,0h0l0,0h0l0,0h0l0,0h0l0,0,0,0h0l0,0h0l0,0h0l0,0h0l0,0h.12a.65.65,0,1,1-.44.44Zm-.25-3.71a2.15,2.15,0,0,1,.4,1h-.82a1.34,1.34,0,0,0-.16-.39ZM32.23,97l-.58.58a1.37,1.37,0,0,0-.39-.16v-.82A2.15,2.15,0,0,1,32.23,97Zm-1.28,2.38a.65.65,0,1,1,.65-.65A.65.65,0,0,1,30.95,99.43Zm-.65-4.34a.65.65,0,1,1,1,.57l0,0h-.56l0,0A.65.65,0,0,1,30.29,95.09Zm.34,1.55v.82a1.37,1.37,0,0,0-.39.16L29.66,97A2.16,2.16,0,0,1,30.63,96.64Zm-1.41.85.58.58a1.33,1.33,0,0,0-.16.39h-.82A2.14,2.14,0,0,1,29.22,97.49Zm0,2.57a2.14,2.14,0,0,1-.4-1h.82a1.35,1.35,0,0,0,.16.39Zm.44.44.58-.58a1.32,1.32,0,0,0,.39.16v.82A2.14,2.14,0,0,1,29.66,100.5Zm1.94,2a.65.65,0,1,1-1-.57l0,0h.56l0,0A.66.66,0,0,1,31.6,102.46Zm-.34-1.56v-.82a1.33,1.33,0,0,0,.39-.16l.58.58A2.13,2.13,0,0,1,31.26,100.9Zm1.41-.85-.58-.58a1.35,1.35,0,0,0,.16-.39h.82A2.14,2.14,0,0,1,32.68,100.06Zm2-.63a.65.65,0,0,1-.57-.34l0,0h0v0h0v0h0v0h0v0h0v0h0v0h0v-.08h0v0h0v0h0v0h0v0h0v0h0v0h0l0,0a.65.65,0,1,1,.57,1Z"/><path class="cls-74" d="M91.09,132.32a1,1,0,0,0-.9.64H89.8a2.4,2.4,0,0,0-.48-1.15l.28-.28a1,1,0,1,0-.45-.44l-.28.27a2.41,2.41,0,0,0-1.16-.48v-.39a1,1,0,1,0-.63,0v.39a2.41,2.41,0,0,0-1.16.48l-.28-.27a1,1,0,1,0-.44.44l.28.28A2.41,2.41,0,0,0,85,133h-.39a1,1,0,1,0,0,.63H85a2.4,2.4,0,0,0,.48,1.16l-.28.27a1,1,0,1,0,.44.45l.28-.28a2.4,2.4,0,0,0,1.16.48v.39a1,1,0,1,0,.63,0v-.39a2.39,2.39,0,0,0,1.16-.48l.28.28a1,1,0,1,0,.45-.45l-.28-.27a2.4,2.4,0,0,0,.48-1.16h.39a1,1,0,1,0,.9-1.27Zm-1.54-2.11a.65.65,0,1,1,.28,1.09h-.11l0,0h0l0,0h0l0,0h0l0,0h0l0,0,0,0h0l0,0h0l0,0h0l0,0h0l0,0h0v0h0v0h0v0A.65.65,0,0,1,89.55,130.21Zm-4.12.64v0h0v0h0v0h0l0,0h0l0,0h0l0,0h0l0,0h0l0,0,0,0h0l0,0h0l0,0h0l0,0h0l0,0H85a.65.65,0,1,1,.44-.44Zm-1.05,2.46h0v0h0v0h0v0h0v0h0v0h0l0,0h0l0,0a.65.65,0,1,1,0-.63l0,0h0l0,0h0v0h0v0h0v0h0v0h0v0h0v.08Zm.89,3a.65.65,0,1,1-.28-1.09h.11l0,0h0l0,0h0l0,0h0l0,0h0l0,0,0,0h0l0,0h0l0,0h0l0,0h0l0,0h0v0h0v0h0v0A.65.65,0,0,1,85.27,136.34Zm4.12-.64v0h0v0h0v0h0l0,0h0l0,0h0l0,0h0l0,0h0l0,0,0,0h0l0,0h0l0,0h0l0,0h0l0,0h.11a.65.65,0,1,1-.45.44ZM89.14,132a2.13,2.13,0,0,1,.4,1h-.82a1.34,1.34,0,0,0-.16-.39Zm-.44-.45-.58.58a1.28,1.28,0,0,0-.39-.16v-.82A2.14,2.14,0,0,1,88.69,131.55Zm-1.28,2.38a.65.65,0,1,1,.65-.65A.65.65,0,0,1,87.41,133.93Zm-.65-4.34a.65.65,0,1,1,1,.57l0,0h-.56l0,0A.65.65,0,0,1,86.76,129.59Zm.34,1.56V132a1.3,1.3,0,0,0-.39.16l-.58-.58A2.14,2.14,0,0,1,87.09,131.14Zm-1.41.85.58.58a1.33,1.33,0,0,0-.16.39h-.82A2.15,2.15,0,0,1,85.68,132Zm0,2.57a2.15,2.15,0,0,1-.4-1h.82a1.32,1.32,0,0,0,.16.39Zm.44.45.58-.58a1.36,1.36,0,0,0,.39.16v.82A2.16,2.16,0,0,1,86.13,135Zm1.94,2a.65.65,0,1,1-1-.57l0,0h.56l0,0A.65.65,0,0,1,88.06,137Zm-.34-1.55v-.82a1.34,1.34,0,0,0,.39-.16l.58.58A2.17,2.17,0,0,1,87.72,135.41Zm1.41-.85-.58-.58a1.33,1.33,0,0,0,.16-.39h.82A2.13,2.13,0,0,1,89.14,134.56Zm2-.63a.65.65,0,0,1-.57-.34l0,0h0v0h0v0h0v0h0v0h0v0h0v0h0s0,0,0,0v0h0v0h0v0h0v0h0v0h0v0h0v0h0l0,0a.65.65,0,1,1,.57,1Z"/><path class="cls-74" d="M132.1,103.91a1,1,0,0,0-.9.64h-.39a2.39,2.39,0,0,0-.48-1.16l.28-.28a1,1,0,1,0-.45-.45l-.28.27a2.41,2.41,0,0,0-1.16-.48v-.39a1,1,0,1,0-.63,0v.39a2.41,2.41,0,0,0-1.16.48l-.28-.28a1,1,0,1,0-.45.45l.28.28a2.4,2.4,0,0,0-.48,1.16h-.39a1,1,0,1,0,0,.63H126a2.4,2.4,0,0,0,.48,1.16l-.28.28a1,1,0,1,0,.45.44l.28-.28a2.39,2.39,0,0,0,1.16.48v.39a1,1,0,1,0,.63,0v-.39a2.38,2.38,0,0,0,1.16-.48l.28.28a1,1,0,1,0,.45-.44l-.28-.28a2.39,2.39,0,0,0,.48-1.16h.39a1,1,0,1,0,.9-1.27Zm-1.54-2.11a.65.65,0,1,1,.28,1.09h-.11l0,0h0l0,0h0l0,0h0l0,0h0l0,0,0,0h0l0,0h0l0,0h0l0,0h0l0,0h0v0h0v0h0v0A.66.66,0,0,1,130.56,101.8Zm-4.12.64v0h0v0h0v0h0l0,0h0l0,0h0l0,0h0l0,0h0l0,0,0,0h0l0,0h0l0,0h0l0,0h0l0,0H126a.66.66,0,1,1,.44-.45Zm-1.05,2.46h0v0h0v0h0v0h0v0h0v0h0l0,0h0l0,0a.65.65,0,1,1,0-.63l0,0h0l0,0h0v0h0v0h0v0h0v0h0v0h0v.08Zm.89,3a.65.65,0,1,1-.28-1.09h.11l0,0h0l0,0h0l0,0h0l0,0h0l0,0,0,0h0l0,0h0l0,0h0l0,0h0l0,0h0v0h0v0h0v0A.65.65,0,0,1,126.27,107.93Zm4.12-.64v0h0v0h0v0h0l0,0h0l0,0h0l0,0h0l0,0h0l0,0,0,0h0l0,0h0l0,0h0l0,0h0l0,0h.11a.65.65,0,1,1-.45.45Zm-.25-3.71a2.14,2.14,0,0,1,.4,1h-.82a1.33,1.33,0,0,0-.16-.39Zm-.45-.44-.58.58a1.34,1.34,0,0,0-.39-.16v-.82A2.14,2.14,0,0,1,129.7,103.14Zm-1.28,2.38a.65.65,0,1,1,.65-.66A.65.65,0,0,1,128.41,105.52Zm-.65-4.34a.65.65,0,1,1,1,.57l0,0h-.56l0,0A.65.65,0,0,1,127.76,101.18Zm.34,1.55v.82a1.34,1.34,0,0,0-.39.16l-.58-.58A2.14,2.14,0,0,1,128.1,102.73Zm-1.42.85.58.58a1.37,1.37,0,0,0-.16.39h-.82A2.14,2.14,0,0,1,126.69,103.58Zm0,2.57a2.14,2.14,0,0,1-.4-1h.82a1.41,1.41,0,0,0,.16.39Zm.45.45.58-.58a1.34,1.34,0,0,0,.39.16V107A2.14,2.14,0,0,1,127.13,106.59Zm1.94,2a.65.65,0,1,1-1-.57l0,0h.56l0,0A.65.65,0,0,1,129.07,108.55Zm-.34-1.55v-.82a1.34,1.34,0,0,0,.39-.16l.58.58A2.13,2.13,0,0,1,128.73,107Zm1.41-.85-.58-.58a1.36,1.36,0,0,0,.16-.39h.82A2.14,2.14,0,0,1,130.14,106.15Zm2-.63a.65.65,0,0,1-.57-.34l0,0h0l0,0h0v0h0v0h0v0h0v0h0v0h0s0,0,0,0v0h0v0h0v0h0v0h0v0h0v0h0l0,0h0l0,0a.65.65,0,1,1,.57,1Z"/><path class="cls-74" d="M73.53,113.7a.65.65,0,0,0-.62.44h-.27a1.65,1.65,0,0,0-.33-.79l.19-.19a.65.65,0,1,0-.31-.3L72,113a1.64,1.64,0,0,0-.79-.33v-.27a.65.65,0,1,0-.43,0v.27A1.64,1.64,0,0,0,70,113l-.19-.19a.65.65,0,1,0-.31.3l.19.19a1.64,1.64,0,0,0-.33.79H69.1a.65.65,0,1,0,0,.43h.27a1.65,1.65,0,0,0,.33.79l-.19.19a.65.65,0,1,0,.31.31l.19-.19a1.66,1.66,0,0,0,.79.33v.27a.65.65,0,1,0,.43,0V116a1.65,1.65,0,0,0,.79-.33l.19.19a.65.65,0,1,0,.31-.31l-.19-.19a1.66,1.66,0,0,0,.33-.79h.27a.65.65,0,1,0,.62-.87Zm-1.05-1.45a.45.45,0,1,1,.19.75h-.17l0,0,0,0h0v0h0v0h0v0h0v0h0v0h0v0h0v0A.45.45,0,0,1,72.47,112.26Zm-2.82.44v0h0v0h0v0h0v0h0v0h0v0h0v0h0l0,0,0,0h0l0,0h-.1a.45.45,0,1,1,.3-.31Zm-.72,1.68h0v0h0v0h0v0h0v0h0v0h0v0h0v0a.45.45,0,1,1,0-.43v0h0v0h0v0h0v0h0v0h0v0h0v0h0v.05Zm.61,2.07a.45.45,0,1,1-.19-.75h.17l0,0,0,0h0v0h0v0h0l0,0h0v0h0v0h0v0h0v0A.45.45,0,0,1,69.54,116.45Zm2.82-.44v0h0v0h0v0h0v0h0v0h0v0h0v0h0l0,0,0,0h.17a.45.45,0,1,1-.3.3Zm-.17-2.54a1.46,1.46,0,0,1,.27.66H71.9a.86.86,0,0,0-.11-.27Zm-.3-.3-.4.4a.86.86,0,0,0-.27-.11v-.56A1.46,1.46,0,0,1,71.89,113.17ZM71,114.8a.45.45,0,1,1,.45-.45A.45.45,0,0,1,71,114.8Zm-.45-3a.45.45,0,1,1,.66.39h-.43A.44.44,0,0,1,70.56,111.84Zm.23,1.06v.56a.86.86,0,0,0-.27.11l-.4-.4A1.46,1.46,0,0,1,70.79,112.9Zm-1,.58.4.4a.9.9,0,0,0-.11.27h-.56A1.45,1.45,0,0,1,69.82,113.48Zm0,1.76a1.45,1.45,0,0,1-.28-.66h.56a.93.93,0,0,0,.11.27Zm.3.31.4-.4a1,1,0,0,0,.27.11v.56A1.47,1.47,0,0,1,70.13,115.54Zm1.32,1.34a.45.45,0,1,1-.66-.39h.43A.45.45,0,0,1,71.45,116.88Zm-.23-1.06v-.56a1,1,0,0,0,.27-.11l.4.4A1.48,1.48,0,0,1,71.22,115.81Zm1-.58-.4-.4a.89.89,0,0,0,.11-.27h.56A1.46,1.46,0,0,1,72.19,115.23Zm1.34-.43a.44.44,0,0,1-.39-.23v0h0v0h0v0h0v0h0v0h0v0h0v0h0v-.05h0v0h0v0h0v0h0v0h0v0h0v0h0v0a.45.45,0,1,1,.39.66Z"/><path class="cls-74" d="M45.55,126.79a.65.65,0,0,0-.62.44h-.27a1.63,1.63,0,0,0-.33-.79l.19-.19a.65.65,0,1,0-.3-.3l-.19.19a1.64,1.64,0,0,0-.79-.33v-.27a.65.65,0,1,0-.43,0v.27a1.64,1.64,0,0,0-.79.33l-.19-.19a.65.65,0,1,0-.3.3l.19.19a1.64,1.64,0,0,0-.33.79h-.27a.65.65,0,1,0,0,.43h.27a1.66,1.66,0,0,0,.33.79l-.19.19a.65.65,0,1,0,.3.3l.19-.19a1.63,1.63,0,0,0,.79.33v.27a.65.65,0,1,0,.43,0v-.27a1.64,1.64,0,0,0,.79-.33l.19.19a.65.65,0,1,0,.3-.3l-.19-.19a1.64,1.64,0,0,0,.33-.79h.27a.65.65,0,1,0,.62-.87Zm-1.06-1.45a.45.45,0,1,1,.19.75h-.17l0,0,0,0h0v0h0v0h0v0h0v0h0v0h0v0A.45.45,0,0,1,44.5,125.34Zm-2.82.44v0h0v0h0v0h0v0h0v0h0v0h0v0h0l0,0,0,0h-.17a.45.45,0,1,1,.3-.3ZM41,127.47h0v0h0v0h0v0h0v0h0v0h0v0h0v0a.45.45,0,1,1,0-.43v0h0v0h0v0h0v0h0v0h0v0h0v0h0v.05Zm.61,2.07a.45.45,0,1,1-.19-.75h.17l0,0,0,0h0v0h0v0h0v0h0v0h0v0h0v0A.45.45,0,0,1,41.56,129.54Zm2.82-.44v0h0v0h0v0h0v0h0v0h0v0h0l0,0,0,0h.17a.45.45,0,1,1-.3.3Zm-.17-2.54a1.47,1.47,0,0,1,.27.66h-.56a.89.89,0,0,0-.11-.26Zm-.3-.3-.4.4a.92.92,0,0,0-.27-.11V126A1.44,1.44,0,0,1,43.91,126.26ZM43,127.89a.45.45,0,1,1,.45-.45A.45.45,0,0,1,43,127.89Zm-.45-3a.45.45,0,1,1,.66.39h-.43A.45.45,0,0,1,42.58,124.92Zm.23,1.06v.56a.9.9,0,0,0-.27.11l-.4-.4A1.45,1.45,0,0,1,42.81,126Zm-1,.58.4.4a.89.89,0,0,0-.11.26h-.56A1.48,1.48,0,0,1,41.85,126.56Zm0,1.76a1.48,1.48,0,0,1-.28-.66h.56a.93.93,0,0,0,.11.27Zm.3.3.4-.4a.87.87,0,0,0,.27.11v.56A1.45,1.45,0,0,1,42.15,128.63ZM43.48,130a.45.45,0,1,1-.66-.39h.43A.45.45,0,0,1,43.48,130Zm-.23-1.06v-.56a.89.89,0,0,0,.27-.11l.4.4A1.44,1.44,0,0,1,43.24,128.9Zm1-.58-.4-.4a.93.93,0,0,0,.11-.27h.56A1.47,1.47,0,0,1,44.21,128.32Zm1.34-.43a.45.45,0,0,1-.39-.23v0h0v0h0v0h0v0h0v0h0v0h0v0h0v-.05h0v0h0v0h0v0h0v0h0v0h0v0h0v0a.45.45,0,1,1,.39.66Z"/><path class="cls-74" d="M110.76,102.6a.65.65,0,0,0-.62.44h-.27a1.63,1.63,0,0,0-.33-.79l.19-.19a.65.65,0,1,0-.3-.31l-.19.19a1.64,1.64,0,0,0-.79-.33v-.27a.65.65,0,1,0-.43,0v.27a1.63,1.63,0,0,0-.79.33l-.19-.19a.65.65,0,1,0-.3.31l.19.19a1.64,1.64,0,0,0-.33.79h-.27a.65.65,0,1,0,0,.43h.27a1.65,1.65,0,0,0,.33.79l-.19.19a.65.65,0,1,0,.3.3l.19-.19a1.64,1.64,0,0,0,.79.33v.27a.65.65,0,1,0,.43,0v-.27a1.65,1.65,0,0,0,.79-.33l.19.19a.65.65,0,1,0,.3-.3l-.19-.19a1.64,1.64,0,0,0,.33-.79h.27a.65.65,0,1,0,.62-.87Zm-1.05-1.44a.45.45,0,1,1,.19.75h-.17l0,0,0,0h0v0h0v0h0v0h0v0h0v0h0v0A.45.45,0,0,1,109.71,101.15Zm-2.82.44v0h0v0h0v0h0v0h0v0h0v0h0l0,0,0,0h-.17a.45.45,0,1,1,.3-.3Zm-.72,1.68h0v0h0v0h0v0h0v0h0v0h0v0h0v0a.45.45,0,1,1,0-.43v0h0v0h0v0h0v0h0v0h0v0h0v0h0v.05Zm.61,2.07a.45.45,0,1,1-.19-.74h.17l0,0,0,0h0v0h0v0h0v0h0v0h0v0h0v0A.45.45,0,0,1,106.78,105.35Zm2.82-.44v0h0v0h0v0h0v0h0v0h0v0h0l0,0,0,0h.17a.45.45,0,1,1-.3.3Zm-.17-2.54a1.47,1.47,0,0,1,.27.66h-.56a.92.92,0,0,0-.11-.27Zm-.31-.31-.4.4a.93.93,0,0,0-.27-.11v-.56A1.46,1.46,0,0,1,109.12,102.07Zm-.88,1.63a.45.45,0,1,1,.45-.45A.45.45,0,0,1,108.24,103.7Zm-.45-3a.45.45,0,1,1,.66.39H108A.45.45,0,0,1,107.8,100.73Zm.23,1.06v.56a.94.94,0,0,0-.27.11l-.4-.4A1.46,1.46,0,0,1,108,101.8Zm-1,.58.4.4a.91.91,0,0,0-.11.27h-.56A1.45,1.45,0,0,1,107.06,102.37Zm0,1.76a1.46,1.46,0,0,1-.27-.66h.56a.91.91,0,0,0,.11.27Zm.3.3.4-.4a1,1,0,0,0,.27.11v.56A1.46,1.46,0,0,1,107.36,104.43Zm1.32,1.34a.45.45,0,1,1-.66-.39h.43A.45.45,0,0,1,108.69,105.77Zm-.23-1.06v-.56a.94.94,0,0,0,.27-.11l.4.4A1.46,1.46,0,0,1,108.46,104.71Zm1-.58-.4-.4a.92.92,0,0,0,.11-.27h.56A1.48,1.48,0,0,1,109.43,104.13Zm1.34-.43a.45.45,0,0,1-.39-.23v0h0v0h0v0h0v0h0v0h0v0h0v0h0v-.05h0v0h0v0h0v0h0v0h0v0h0v0h0v0a.45.45,0,1,1,.39.66Z"/><path class="cls-74" d="M119.36,121.4a.39.39,0,0,0-.37.26h-.16a1,1,0,0,0-.19-.47l.11-.11a.39.39,0,1,0-.18-.18l-.11.11a1,1,0,0,0-.47-.19v-.16a.39.39,0,1,0-.26,0v.16a1,1,0,0,0-.47.2l-.11-.11a.39.39,0,1,0-.18.18l.11.11a1,1,0,0,0-.2.47h-.16a.39.39,0,1,0,0,.26h.16a1,1,0,0,0,.2.47l-.11.11a.39.39,0,1,0,.18.18l.11-.11a1,1,0,0,0,.47.2v.16a.39.39,0,1,0,.26,0v-.16a1,1,0,0,0,.47-.2l.11.11a.39.39,0,1,0,.18-.18l-.11-.11a1,1,0,0,0,.19-.47H119a.39.39,0,1,0,.37-.51Zm-.63-.86a.27.27,0,1,1,.11.44h-.18A.26.26,0,0,1,118.74,120.54Zm-1.68.26v0h-.18a.26.26,0,1,1,.18-.18Zm-.43,1h0v0h0a.27.27,0,1,1,0-.26h0v0h0v0ZM117,123a.27.27,0,1,1-.11-.44h.18v0A.26.26,0,0,1,117,123Zm1.68-.26v0h.18a.27.27,0,1,1-.18.18Zm-.1-1.51a.87.87,0,0,1,.16.39h-.33a.58.58,0,0,0-.07-.16Zm-.18-.18-.24.24a.56.56,0,0,0-.16-.07v-.33A.86.86,0,0,1,118.39,121.08Zm-.52,1a.27.27,0,1,1,.27-.27A.27.27,0,0,1,117.87,122Zm-.26-1.76a.27.27,0,0,1,.53,0,.27.27,0,0,1-.14.23h-.26A.27.27,0,0,1,117.6,120.28Zm.14.63v.33a.55.55,0,0,0-.16.07l-.24-.24A.86.86,0,0,1,117.74,120.92Zm-.58.35.24.24a.56.56,0,0,0-.07.16H117A.88.88,0,0,1,117.16,121.26Zm0,1a.87.87,0,0,1-.16-.39h.33a.57.57,0,0,0,.07.16Zm.18.18.24-.24a.55.55,0,0,0,.16.06v.33A.86.86,0,0,1,117.34,122.49Zm.79.79a.27.27,0,1,1-.39-.23H118A.27.27,0,0,1,118.13,123.28Zm-.14-.63v-.33a.56.56,0,0,0,.16-.06l.24.24A.86.86,0,0,1,118,122.65Zm.58-.35-.24-.23a.6.6,0,0,0,.07-.16h.33A.86.86,0,0,1,118.57,122.3Zm.79-.26a.26.26,0,0,1-.23-.14h0v0h0v0h0v0h0a.27.27,0,1,1,.23.39Z"/><path class="cls-74" d="M127.27,86.09a.39.39,0,0,0-.37.26h-.16a1,1,0,0,0-.19-.47l.11-.11a.39.39,0,0,0,.44-.62.39.39,0,0,0-.62.44l-.11.11a1,1,0,0,0-.47-.19v-.16a.39.39,0,0,0,.26-.37.39.39,0,1,0-.52.37v.16a1,1,0,0,0-.47.19l-.11-.11a.39.39,0,1,0-.18.18l.11.11a1,1,0,0,0-.19.47h-.16a.39.39,0,1,0,0,.26h.16a1,1,0,0,0,.19.47l-.11.11a.39.39,0,1,0,.18.18l.11-.11a1,1,0,0,0,.47.19v.16a.39.39,0,1,0,.26,0v-.16a1,1,0,0,0,.47-.19l.11.11a.39.39,0,1,0,.18-.18l-.11-.11a1,1,0,0,0,.19-.47h.16a.39.39,0,1,0,.37-.52Zm-.63-.86a.27.27,0,1,1,.11.44h-.18A.27.27,0,0,1,126.64,85.23Zm-1.68.26v0h-.18a.27.27,0,1,1,.18-.18Zm-.43,1h0v0h0a.27.27,0,1,1,0-.26h0v0h0v0Zm.36,1.23a.27.27,0,1,1-.11-.44h.16v0h0v0A.27.27,0,0,1,124.9,87.73Zm1.68-.26v0h.18a.27.27,0,1,1-.11.44A.27.27,0,0,1,126.58,87.47Zm-.1-1.51a.87.87,0,0,1,.16.39h-.33a.55.55,0,0,0-.06-.16Zm-.18-.18-.24.24-.16-.07v-.33A.88.88,0,0,1,126.29,85.78Zm-.52,1a.27.27,0,1,1,.27-.27A.27.27,0,0,1,125.77,86.75ZM125.51,85a.27.27,0,0,1,.53,0,.27.27,0,0,1-.14.23h-.26A.27.27,0,0,1,125.51,85Zm.14.63v.33a.57.57,0,0,0-.16.07l-.24-.24A.88.88,0,0,1,125.64,85.61Zm-.58.34.24.24a.54.54,0,0,0-.07.16h-.33A.89.89,0,0,1,125.07,86Zm0,1a.88.88,0,0,1-.16-.39h.33a.53.53,0,0,0,.07.16Zm.18.18.24-.24a.54.54,0,0,0,.16.07v.33A.88.88,0,0,1,125.25,87.18Zm.79.8a.27.27,0,1,1-.39-.23h.26A.27.27,0,0,1,126,88Zm-.14-.63V87l.16-.07.24.24A.88.88,0,0,1,125.9,87.35Zm.57-.35-.23-.23a.54.54,0,0,0,.06-.16h.33A.86.86,0,0,1,126.47,87Zm.8-.26a.26.26,0,0,1-.23-.14h0v0h0v0h0a.27.27,0,1,1,.23.39Z"/><path class="cls-74" d="M56.86,94.41a.39.39,0,0,0-.37.26h-.16a1,1,0,0,0-.19-.47l.11-.11a.39.39,0,1,0-.18-.18L56,94a1,1,0,0,0-.47-.19v-.16a.39.39,0,1,0-.26,0v.16a1,1,0,0,0-.47.19l-.11-.11a.39.39,0,1,0-.18.18l.11.11a1,1,0,0,0-.19.47h-.16a.39.39,0,1,0,0,.25h.16a1,1,0,0,0,.19.47l-.11.11a.39.39,0,1,0,.18.18l.11-.11a1,1,0,0,0,.47.19v.16a.39.39,0,1,0,.26,0v-.16a1,1,0,0,0,.47-.19l.11.11a.39.39,0,1,0,.18-.18l-.11-.11a1,1,0,0,0,.19-.47h.16a.39.39,0,1,0,.37-.52Zm-.63-.86a.27.27,0,1,1,.38.38.26.26,0,0,1-.26.07h-.18v0A.27.27,0,0,1,56.23,93.55Zm-1.68.26v0h-.18a.26.26,0,0,1-.26-.07.27.27,0,1,1,.44-.11Zm-.43,1h0v0h0a.27.27,0,1,1,0-.25h0v0h0v0ZM54.49,96a.27.27,0,1,1-.11-.44h.15v0h0A.27.27,0,0,1,54.49,96Zm1.68-.26h.18a.27.27,0,1,1-.18.18Zm-.1-1.51a.87.87,0,0,1,.16.39h-.33a.55.55,0,0,0-.07-.16Zm-.18-.18-.24.24a.53.53,0,0,0-.16-.06v-.33A.87.87,0,0,1,55.88,94.09Zm-.52,1a.27.27,0,1,1,.27-.27A.27.27,0,0,1,55.36,95.06Zm-.27-1.76a.27.27,0,1,1,.39.23h-.26A.27.27,0,0,1,55.09,93.3Zm.14.63v.33a.56.56,0,0,0-.16.06l-.24-.24A.87.87,0,0,1,55.23,93.93Zm-.58.34.24.24a.5.5,0,0,0-.07.16h-.33A.88.88,0,0,1,54.66,94.27Zm0,1a.88.88,0,0,1-.16-.39h.33a.51.51,0,0,0,.07.16Zm.18.18.24-.24a.57.57,0,0,0,.16.06v.33A.86.86,0,0,1,54.84,95.5Zm.79.79a.27.27,0,1,1-.39-.23h.26A.27.27,0,0,1,55.63,96.29Zm-.14-.63v-.33a.54.54,0,0,0,.16-.06l.24.24A.86.86,0,0,1,55.49,95.66Zm.58-.34-.24-.24a.56.56,0,0,0,.07-.16h.33A.87.87,0,0,1,56.06,95.32Zm.8-.26a.27.27,0,0,1-.23-.14h0v0h0a.27.27,0,1,1,.23.39Z"/><path class="cls-74" d="M59.92,123.88a.39.39,0,0,0-.37.26h-.16a1,1,0,0,0-.19-.47l.11-.11a.39.39,0,1,0-.18-.18l-.11.11a1,1,0,0,0-.47-.19v-.16a.39.39,0,1,0-.26,0v.16a1,1,0,0,0-.47.19l-.11-.11a.39.39,0,1,0-.18.18l.11.11a1,1,0,0,0-.19.47h-.16a.39.39,0,1,0,0,.26h.16a1,1,0,0,0,.19.47l-.11.11a.39.39,0,1,0,.18.18l.11-.11a1,1,0,0,0,.47.2v.16a.39.39,0,1,0,.26,0v-.16A1,1,0,0,0,59,125l.11.11a.39.39,0,1,0,.18-.18l-.11-.11a1,1,0,0,0,.19-.47h.16a.39.39,0,1,0,.37-.52Zm-.63-.86a.27.27,0,1,1,.11.44h-.18v0A.27.27,0,0,1,59.29,123Zm-1.68.26v0h0v0h-.15a.27.27,0,1,1,.18-.18Zm-.43,1h0v0h0v0a.27.27,0,1,1,0-.26h0Zm.36,1.23a.27.27,0,1,1-.11-.44h.18v0A.27.27,0,0,1,57.55,125.52Zm1.68-.26v0h.18a.26.26,0,1,1-.18.18Zm-.1-1.51a.86.86,0,0,1,.16.39H59a.55.55,0,0,0-.07-.16Zm-.18-.18-.24.24-.16-.07v-.33A.87.87,0,0,1,58.94,123.57Zm-.52,1a.27.27,0,1,1,.27-.27A.27.27,0,0,1,58.42,124.54Zm-.27-1.76a.27.27,0,1,1,.39.23h-.26A.27.27,0,0,1,58.15,122.77Zm.14.63v.33a.55.55,0,0,0-.16.07l-.24-.24A.87.87,0,0,1,58.29,123.4Zm-.58.35L58,124a.56.56,0,0,0-.07.16h-.33A.87.87,0,0,1,57.72,123.75Zm0,1a.87.87,0,0,1-.16-.39h.33a.56.56,0,0,0,.07.16Zm.18.18.24-.24a.52.52,0,0,0,.16.07v.33A.88.88,0,0,1,57.9,125Zm.79.8a.27.27,0,1,1-.39-.23h.26A.26.26,0,0,1,58.69,125.77Zm-.14-.63v-.33a.53.53,0,0,0,.16-.07l.24.24A.88.88,0,0,1,58.55,125.14Zm.58-.34-.24-.24a.55.55,0,0,0,.07-.16h.33A.86.86,0,0,1,59.12,124.79Zm.8-.26a.27.27,0,0,1-.23-.14v0h0v0h0v0h0a.27.27,0,1,1,.23.39Z"/><use width="257.01" height="223.64" transform="matrix(-0.11, -0.01, 0, -0.16, 71.78, 71.29)" xlink:href="#New_Symbol"/><use width="257.01" height="223.64" transform="matrix(-0.11, -0.01, 0, -0.16, 59.43, 68.7)" xlink:href="#New_Symbol"/><use width="257.01" height="223.64" transform="matrix(-0.11, -0.01, 0, -0.16, 55.04, 66.41)" xlink:href="#New_Symbol"/><use width="257.01" height="223.64" transform="matrix(-0.11, -0.01, 0, -0.16, 50.22, 67.97)" xlink:href="#New_Symbol"/><use width="257.01" height="223.64" transform="matrix(-0.17, -0.02, 0, -0.15, 132.21, 69.98)" xlink:href="#New_Symbol_2"/><use width="257.01" height="223.64" transform="matrix(-0.17, -0.02, 0, -0.15, 99.69, 57.03)" xlink:href="#New_Symbol_2"/><use width="257.01" height="223.64" transform="matrix(-0.17, -0.02, 0, -0.15, 72, 69.81)" xlink:href="#New_Symbol_2"/><use width="257.01" height="223.64" transform="matrix(-0.17, -0.02, 0, -0.15, 82.36, 62.77)" xlink:href="#New_Symbol_2"/><use width="257.01" height="223.64" transform="matrix(-0.17, -0.02, 0, -0.19, 118.48, 72)" xlink:href="#New_Symbol_2"/><use width="257.01" height="223.64" transform="matrix(-0.17, -0.02, 0, -0.19, 64.24, 73.22)" xlink:href="#New_Symbol_2"/><g class="cls-93"><circle class="cls-94" cx="69.76" cy="58.97" r="34.09"/></g><circle class="cls-95" cx="69.76" cy="59.05" r="26.73"/><g class="cls-96"><path class="cls-74" d="M93.29,65.33c1.32,1.32-.71,7.08-5.51,11.88S77.21,84,75.9,82.72s1.51-6.28,6.31-11.08S92,64,93.29,65.33Z"/></g><g class="cls-97"><ellipse class="cls-98" cx="61.43" cy="48.72" rx="18.35" ry="12.41" transform="translate(-16.85 53.11) rotate(-41.63)"/></g><g class="cls-99"><path class="cls-100" d="M101.37,73.26l-7.45-2.77q.23-.48.43-1Zm-9.59.94-.32.45L95,76.82Zm3.14-6.12,3.33.92-3.18-1.35Zm1.13-4.23c0,.26-.1.52-.15.78l5.9.76Zm.23-1.51c0,.34-.09.68-.15,1l7.69.58Zm.19-4.1c0,.27,0,.54,0,.81s0,.54,0,.81l12.1-.81Zm-4.73-14.4.44.66,4.71-3.63Zm2.81,5.22c.13.33.26.66.38,1l7.22-3.31ZM96,54.18c0,.18.06.36.1.55l4.06-1Zm-2.11-6.54,3-1.71-3.21,1.29ZM81.2,34.89,84,27.44l-3.73,7Zm2.42,1.31,4.85-10-6.13,9.28Q83,35.81,83.62,36.19ZM96.44,57.37c0,.18,0,.37,0,.56l4.15-.5Zm-9.1-18.47,6-8.37L86.27,38C86.63,38.31,87,38.61,87.33,38.91Zm-10-5.5,2.25-11.69L75.78,33C76.3,33.12,76.81,33.26,77.31,33.4Zm1.47.48.92-3.33-1.35,3.18Zm10.43,6.85,8-9.12-9.12,8Q88.67,40.14,89.22,40.73Zm4,5.53,9.86-6.68L92.43,44.89Q92.85,45.56,93.24,46.26ZM75.33,32.9l.76-5.9-1.54,5.75Zm21.1,24.33,10.2-1.65-10.32.28Q96.38,56.54,96.43,57.23Zm-5-13.79,5.85-5-6.47,4.2Q91.16,43,91.46,43.44Zm4.27,9.25L106.23,49,95.34,51.26Q95.55,52,95.73,52.69ZM44.59,50l-3.33-.92,3.18,1.35Zm.57-1.45q.21-.49.44-1l-7.45-2.77Zm-1.7,5.68c0-.26.1-.52.15-.78l-5.9-.76Zm-.31,2.33-5.43-.07,5.38.79C43.1,57.06,43.12,56.82,43.14,56.58Zm.09-.82c0-.34.09-.68.15-1l-7.69-.58Zm-.15,5c0-.18,0-.37,0-.56l-4.15.5Zm46.73,16-.37.41,3.29,2.58ZM47.73,43.91l.32-.45-3.57-2.17ZM96.43,60.8q0,.36-.06.72l5.43.07ZM49.71,41.37l.37-.41L46.8,38.37ZM52.08,79.1l-.41-.37L49.08,82ZM84.9,37l.45.32,2.17-3.57ZM54.62,81.08l-.45-.32L52,84.33Zm-.06-44,.66-.44-3.64-4.71ZM87.44,39l.41.37,2.58-3.29ZM85,81l-.66.44,3.64,4.71ZM47.78,74.26l-.44-.66-4.71,3.64Zm-2.19-3.79-3,1.71,3.21-1.29Zm4.08,6.21-.47-.55-3.89,3.79ZM45,69q-.2-.49-.38-1l-7.22,3.31Zm-1.49-5.12q-.05-.27-.09-.55l-4.06,1ZM89.86,41.43l.47.55,3.89-3.79Zm-24.4,44-.58,7.69,1.6-7.54Zm1.84.23-.07,5.43L68,85.72Zm2.47.12H69l.81,12.1.81-12.1Zm1.12,0,.5,4.15.06-4.18Zm3.2-.32,1,4.06-.44-4.15Zm-2.5.29,1.65,10.19-.28-10.32Q72.27,85.67,71.58,85.72ZM52.19,79.19l-6,8.37,7.1-7.5Q52.71,79.65,52.19,79.19Zm12,6-.76,5.9L65,85.35ZM55.9,81.91l-4.85,10,6.13-9.28C56.75,82.41,56.32,82.17,55.9,81.91Zm6.31,2.79L60,96.39,63.74,85.1C63.22,85,62.71,84.84,62.21,84.7Zm-1.47-.48-.92,3.33,1.35-3.18Zm-2.41-1-2.77,7.45,3.73-7ZM89.9,76.62l8.37,6-7.5-7.1Q90.35,76.11,89.9,76.62Zm-1.82,1.89,9.12,8-8-9.12Q88.67,78,88.08,78.51Zm4.54-5.6,10,4.85-9.28-6.13C93.12,72.06,92.88,72.49,92.62,72.91Zm2.79-6.31,11.69,2.25L95.81,65.07C95.69,65.59,95.55,66.1,95.41,66.61Zm-8.57,13,3.79,3.89-3.24-4.36ZM76.12,85l3.65,10.5L77.55,84.63Q76.84,84.84,76.12,85Zm5-1.79,1.71,3L81.59,83Zm-2.41,1,3.31,7.22-2.32-7.6Zm6.61-3.48,5,5.85-4.2-6.47Zm-2.82,1.78,6.68,9.86L83.92,81.72C83.47,82,83,82.27,82.55,82.53Zm-38.44-31L32.42,49.24,43.71,53C43.83,52.51,44,52,44.11,51.5ZM63.4,33.08l-3.65-10.5L62,33.47Q62.68,33.26,63.4,33.08Zm-2.64.79-3.31-7.22,2.32,7.6ZM57,35.57l-6.68-9.86L55.6,36.38Q56.27,36,57,35.57Zm8.47-2.91-1-4.06.44,4.15ZM54.15,37.35l-5-5.85L53.33,38Zm4.2-2.48-1.71-3,1.29,3.21Zm13.88-2.44L72.29,27l-.79,5.37Zm-2.47-.11h.81l-.81-12.1L69,32.33Zm-1.82.06L66.29,22.19l.28,10.32C67,32.46,67.48,32.41,67.94,32.38Zm.7,0-.5-4.15-.06,4.18ZM43.79,65.41l-10.5,3.65,10.89-2.22Q44,66.14,43.79,65.41Zm6.5,12-8,9.12,9.12-8Q50.85,78,50.3,77.37ZM43,59.05c0-.27,0-.54,0-.81l-12.1.81,12.1.81C43,59.59,43,59.32,43,59.05Zm.06,1.82L32.9,62.52l10.32-.28C43.16,61.78,43.12,61.33,43.09,60.87Zm5,13.79-5.85,5,6.47-4.2Q48.36,75.08,48.06,74.66Zm-1.78-2.82-9.86,6.68,10.66-5.31Q46.67,72.54,46.28,71.84Zm6.4-33.36L48.89,34.6,52.14,39Zm-3.07,3-8.37-6,7.5,7.1Q49.17,42,49.62,41.48Zm24.45-8.81L74.65,25,73,32.52ZM51.44,39.59l-9.12-8,8,9.12Q50.85,40.14,51.44,39.59Zm-4.54,5.6-10-4.84,9.28,6.13C46.4,46,46.64,45.61,46.9,45.19Z"/></g><use width="257.01" height="223.64" transform="translate(10.68 58.98) scale(0.18 0.12)" xlink:href="#New_Symbol"/><use width="257.01" height="223.64" transform="translate(30.4 59.86) scale(0.18 0.12)" xlink:href="#New_Symbol"/><use width="257.01" height="223.64" transform="translate(37.4 61.23) scale(0.18 0.12)" xlink:href="#New_Symbol"/><use width="257.01" height="223.64" transform="translate(45.1 59.6) scale(0.18 0.12)" xlink:href="#New_Symbol"/><use width="257.01" height="223.64" transform="translate(84.62 48.72) scale(0.12 0.16)" xlink:href="#New_Symbol"/><use width="257.01" height="223.64" transform="translate(98.38 49.86) scale(0.12 0.16)" xlink:href="#New_Symbol"/><use width="257.01" height="223.64" transform="translate(103.27 51.64) scale(0.12 0.16)" xlink:href="#New_Symbol"/><use width="257.01" height="223.64" transform="translate(108.64 49.52) scale(0.12 0.16)" xlink:href="#New_Symbol"/><use width="257.01" height="223.64" transform="translate(49.51 37.19) scale(0.17 0.23)" xlink:href="#New_Symbol"/><use width="257.01" height="223.64" transform="translate(69.02 38.82) scale(0.17 0.23)" xlink:href="#New_Symbol"/><use width="257.01" height="223.64" transform="translate(75.95 41.34) scale(0.17 0.23)" xlink:href="#New_Symbol"/><use width="257.01" height="223.64" transform="translate(83.57 38.33) scale(0.17 0.23)" xlink:href="#New_Symbol"/><use width="257.01" height="223.64" transform="translate(42.31 72.15) scale(0.12 0.11)" xlink:href="#New_Symbol"/><use width="257.01" height="223.64" transform="translate(55.89 72.95) scale(0.12 0.11)" xlink:href="#New_Symbol"/><use width="257.01" height="223.64" transform="translate(60.71 74.18) scale(0.12 0.11)" xlink:href="#New_Symbol"/><use width="257.01" height="223.64" transform="translate(66.01 72.71) scale(0.12 0.11)" xlink:href="#New_Symbol"/><use width="257.01" height="223.64" transform="translate(58.42 75.46) rotate(180) scale(0.09 0.14)" xlink:href="#New_Symbol"/><use width="257.01" height="223.64" transform="translate(48.87 74.5) rotate(180) scale(0.09 0.14)" xlink:href="#New_Symbol"/><use width="257.01" height="223.64" transform="translate(45.48 73.01) rotate(180) scale(0.09 0.14)" xlink:href="#New_Symbol"/><use width="257.01" height="223.64" transform="translate(41.75 74.79) rotate(180) scale(0.09 0.14)" xlink:href="#New_Symbol"/><use width="257.01" height="223.64" transform="translate(82.74 88.3) scale(0.12 0.04)" xlink:href="#New_Symbol"/><use width="257.01" height="223.64" transform="translate(17.36 57.07) scale(0.19 0.15)" xlink:href="#New_Symbol_2"/><use width="257.01" height="223.64" transform="translate(53.56 66.22) scale(0.19 0.15)" xlink:href="#New_Symbol_2"/><use width="257.01" height="223.64" transform="translate(84.36 50.21) scale(0.19 0.15)" xlink:href="#New_Symbol_2"/><use width="257.01" height="223.64" transform="translate(72.84 58.46) scale(0.19 0.15)" xlink:href="#New_Symbol_2"/><use width="257.01" height="223.64" transform="translate(62.03 58.89) scale(0.18)" xlink:href="#New_Symbol_2"/><use width="257.01" height="223.64" transform="translate(56.76 52.07) scale(0.18)" xlink:href="#New_Symbol_2"/><use width="257.01" height="223.64" transform="translate(40.17 55.83) scale(0.17 0.16)" xlink:href="#New_Symbol_2"/><use width="257.01" height="223.64" transform="translate(94.47 49.32) scale(0.17 0.16)" xlink:href="#New_Symbol_2"/><use width="257.01" height="223.64" transform="translate(15.39 47.72) scale(0.19)" xlink:href="#New_Symbol_2"/><use width="257.01" height="223.64" transform="translate(75.75 40.18) scale(0.19)" xlink:href="#New_Symbol_2"/><use width="174.77" height="164.37" transform="translate(43.85 61.68) scale(0.31 0.14)" xlink:href="#New_Symbol_3"/><use width="174.77" height="164.37" transform="translate(12.43 59.24) scale(0.31 0.14)" xlink:href="#New_Symbol_3"/></g></g></g></svg>