<svg xmlns="http://www.w3.org/2000/svg" xmlns:xlink="http://www.w3.org/1999/xlink" viewBox="0 0 151.72 150.94"><defs><style>.cls-1{fill:url(#radial-gradient);}.cls-2{fill:url(#radial-gradient-2);}.cls-3{fill:url(#radial-gradient-3);}.cls-4{fill:url(#radial-gradient-4);}.cls-5{fill:url(#radial-gradient-5);}.cls-6{fill:url(#radial-gradient-6);}.cls-7{fill:url(#radial-gradient-7);}.cls-8{fill:url(#radial-gradient-8);}.cls-9{fill:url(#radial-gradient-9);}.cls-10{fill:url(#radial-gradient-10);}.cls-11{fill:url(#radial-gradient-11);}.cls-12{fill:url(#radial-gradient-12);}.cls-13{fill:url(#radial-gradient-13);}.cls-14{fill:url(#radial-gradient-14);}.cls-15{fill:url(#radial-gradient-15);}.cls-16{fill:url(#radial-gradient-16);}.cls-17{fill:url(#radial-gradient-17);}.cls-18{fill:url(#radial-gradient-18);}.cls-19{fill:url(#radial-gradient-19);}.cls-20{fill:url(#radial-gradient-20);}.cls-21{fill:url(#radial-gradient-21);}.cls-22{fill:url(#radial-gradient-22);}.cls-23{fill:url(#radial-gradient-23);}.cls-24{fill:url(#radial-gradient-24);}.cls-25{fill:url(#radial-gradient-25);}.cls-26{fill:url(#radial-gradient-26);}.cls-27{fill:url(#radial-gradient-27);}.cls-28{fill:url(#radial-gradient-28);}.cls-29{fill:url(#radial-gradient-29);}.cls-30{fill:url(#radial-gradient-30);}.cls-31{fill:url(#radial-gradient-31);}.cls-32{fill:url(#radial-gradient-32);}.cls-33{fill:url(#radial-gradient-33);}.cls-34{fill:url(#radial-gradient-34);}.cls-35{fill:url(#radial-gradient-35);}.cls-36{fill:url(#radial-gradient-36);}.cls-37{fill:url(#radial-gradient-37);}.cls-38{fill:url(#radial-gradient-38);}.cls-39{fill:url(#radial-gradient-39);}.cls-40{fill:url(#radial-gradient-40);}.cls-41{fill:url(#radial-gradient-41);}.cls-42{fill:url(#radial-gradient-42);}.cls-43{fill:url(#radial-gradient-43);}.cls-44{mask:url(#mask);}.cls-45{fill:#1b75bb;}.cls-46{mask:url(#mask-2);}.cls-47{fill:#fff;}.cls-48{mask:url(#mask-3);}.cls-49{mask:url(#mask-4);}.cls-50{mask:url(#mask-5);}.cls-51{mask:url(#mask-6);}.cls-52{mask:url(#mask-7);}.cls-53{mask:url(#mask-8);}.cls-54{mask:url(#mask-9);}.cls-55{mask:url(#mask-10);}.cls-56{mask:url(#mask-11);}.cls-57{mask:url(#mask-12);}.cls-58{mask:url(#mask-13);}.cls-59{mask:url(#mask-14);}.cls-60{mask:url(#mask-15);}.cls-61{mask:url(#mask-16);}.cls-62{mask:url(#mask-17);}.cls-63{mask:url(#mask-18);}.cls-64{mask:url(#mask-19);}.cls-65{mask:url(#mask-20);}.cls-66{mask:url(#mask-21);}.cls-67{mask:url(#mask-22);}.cls-68{mask:url(#mask-23);}.cls-69{mask:url(#mask-24);}.cls-70{mask:url(#mask-25);}.cls-71{mask:url(#mask-26);}.cls-72{mask:url(#mask-27);}.cls-73{mask:url(#mask-28);}.cls-74{mask:url(#mask-29);}.cls-75{mask:url(#mask-30);}.cls-76{mask:url(#mask-31);}</style><radialGradient id="radial-gradient" cx="76.24" cy="75.47" r="75.47" gradientUnits="userSpaceOnUse"><stop offset="0" stop-color="#fff"/><stop offset="0.16" stop-color="#ddd"/><stop offset="0.51" stop-color="#858585"/><stop offset="1"/></radialGradient><radialGradient id="radial-gradient-2" cx="20.79" cy="96.4" r="3.22" xlink:href="#radial-gradient"/><radialGradient id="radial-gradient-3" cx="87.05" cy="123.43" r="3.22" xlink:href="#radial-gradient"/><radialGradient id="radial-gradient-4" cx="102.14" cy="105.89" r="3.69" xlink:href="#radial-gradient"/><radialGradient id="radial-gradient-5" cx="46.25" cy="95.62" r="3.29" xlink:href="#radial-gradient"/><radialGradient id="radial-gradient-6" cx="114.64" cy="127.33" r="5.12" xlink:href="#radial-gradient"/><radialGradient id="radial-gradient-7" cx="75.47" cy="121.56" r="1.12" xlink:href="#radial-gradient"/><radialGradient id="radial-gradient-8" cx="104.79" cy="122.08" r="1.12" xlink:href="#radial-gradient"/><radialGradient id="radial-gradient-9" cx="84.63" cy="106.75" r="1.12" xlink:href="#radial-gradient"/><radialGradient id="radial-gradient-10" cx="124.65" cy="108.41" r="1.12" xlink:href="#radial-gradient"/><radialGradient id="radial-gradient-11" cx="133.06" cy="86.9" r="1.12" xlink:href="#radial-gradient"/><radialGradient id="radial-gradient-12" cx="97.87" cy="100.54" r="1.12" xlink:href="#radial-gradient"/><radialGradient id="radial-gradient-13" cx="55.79" cy="108.03" r="3.22" xlink:href="#radial-gradient"/><radialGradient id="radial-gradient-14" cx="31.97" cy="93.75" r="1.12" xlink:href="#radial-gradient"/><radialGradient id="radial-gradient-15" cx="33.57" cy="120.96" r="1.12" xlink:href="#radial-gradient"/><radialGradient id="radial-gradient-16" cx="18.68" cy="83.52" r="1.12" xlink:href="#radial-gradient"/><radialGradient id="radial-gradient-17" cx="72.91" cy="103.25" r="1.12" xlink:href="#radial-gradient"/><radialGradient id="radial-gradient-18" cx="72.91" cy="128.45" r="1.12" xlink:href="#radial-gradient"/><radialGradient id="radial-gradient-19" cx="81.29" cy="139.71" r="1.12" xlink:href="#radial-gradient"/><radialGradient id="radial-gradient-20" cx="64.67" cy="103.47" r="1.12" xlink:href="#radial-gradient"/><radialGradient id="radial-gradient-21" cx="47.37" cy="119.26" r="1.12" xlink:href="#radial-gradient"/><radialGradient id="radial-gradient-22" cx="102.55" cy="114.02" r="1.12" xlink:href="#radial-gradient"/><radialGradient id="radial-gradient-23" cx="126.89" cy="95.61" r="1.12" xlink:href="#radial-gradient"/><radialGradient id="radial-gradient-24" cx="27.53" cy="107.87" r="1.63" xlink:href="#radial-gradient"/><radialGradient id="radial-gradient-25" cx="52.98" cy="131.08" r="1.12" xlink:href="#radial-gradient"/><radialGradient id="radial-gradient-26" cx="83.82" cy="114.79" r="1.63" xlink:href="#radial-gradient"/><radialGradient id="radial-gradient-27" cx="63.56" cy="124.27" r="1.63" xlink:href="#radial-gradient"/><radialGradient id="radial-gradient-28" cx="89.46" cy="99.62" r="1.64" xlink:href="#radial-gradient"/><radialGradient id="radial-gradient-29" cx="119.76" cy="95.62" r="1.63" xlink:href="#radial-gradient"/><radialGradient id="radial-gradient-30" cx="117.87" cy="105.19" r="3.22" xlink:href="#radial-gradient"/><radialGradient id="radial-gradient-31" cx="139.38" cy="82.4" r="3.22" xlink:href="#radial-gradient"/><radialGradient id="radial-gradient-32" cx="95.12" cy="-1816.76" r="95.12" gradientTransform="translate(0 1622) scale(1 0.84)" gradientUnits="userSpaceOnUse"><stop offset="0" stop-color="#fff"/><stop offset="1" stop-color="#fff" stop-opacity="0"/></radialGradient><radialGradient id="radial-gradient-33" cx="-9050.25" cy="4758.5" r="119.53" gradientTransform="matrix(0, 0.67, -1, 0, 4910.05, 6212.54)" xlink:href="#radial-gradient-32"/><radialGradient id="radial-gradient-34" cx="17411.05" cy="18.6" r="89.72" gradientTransform="matrix(0.64, 0, 0, 1.04, -10965.65, 106.74)" xlink:href="#radial-gradient-32"/><radialGradient id="radial-gradient-35" cx="95.12" cy="-1816.76" r="95.12" gradientTransform="translate(0 1622) scale(1 0.84)" gradientUnits="userSpaceOnUse"><stop offset="0" stop-color="#58595b"/><stop offset="0.23" stop-color="#595a5c" stop-opacity="0.96"/><stop offset="0.44" stop-color="#5b5c5e" stop-opacity="0.84"/><stop offset="0.63" stop-color="#5f6062" stop-opacity="0.65"/><stop offset="0.81" stop-color="#656668" stop-opacity="0.37"/><stop offset="0.99" stop-color="#6d6e70" stop-opacity="0.01"/><stop offset="1" stop-color="#6d6e70" stop-opacity="0"/></radialGradient><radialGradient id="radial-gradient-36" cx="-9050.25" cy="4758.5" r="119.53" gradientTransform="matrix(0, 0.67, -1, 0, 4910.04, 6212.54)" xlink:href="#radial-gradient-35"/><radialGradient id="radial-gradient-37" cx="17411.05" cy="18.6" r="89.72" gradientTransform="matrix(0.64, 0, 0, 1.04, -10965.65, 106.73)" xlink:href="#radial-gradient-35"/><radialGradient id="radial-gradient-38" cx="95.12" cy="-1816.76" r="95.12" gradientTransform="translate(0 1622) scale(1 0.84)" gradientUnits="userSpaceOnUse"><stop offset="0" stop-color="#bbbdbf"/><stop offset="0.17" stop-color="#bcbec0" stop-opacity="0.98"/><stop offset="0.31" stop-color="#bec0c2" stop-opacity="0.93"/><stop offset="0.45" stop-color="#c2c4c6" stop-opacity="0.83"/><stop offset="0.58" stop-color="#c8cacb" stop-opacity="0.7"/><stop offset="0.71" stop-color="#cfd1d2" stop-opacity="0.53"/><stop offset="0.84" stop-color="#d8dadb" stop-opacity="0.32"/><stop offset="0.97" stop-color="#e3e4e5" stop-opacity="0.07"/><stop offset="1" stop-color="#e6e7e8" stop-opacity="0"/></radialGradient><radialGradient id="radial-gradient-39" cx="-9050.25" cy="4758.5" r="119.53" gradientTransform="matrix(0, 0.67, -1, 0, 4910.04, 6212.54)" xlink:href="#radial-gradient-38"/><radialGradient id="radial-gradient-40" cx="17411.05" cy="18.6" r="89.72" gradientTransform="matrix(0.64, 0, 0, 1.04, -10965.65, 106.73)" xlink:href="#radial-gradient-38"/><radialGradient id="radial-gradient-41" cx="68.47" cy="-1844.62" r="68.47" gradientTransform="translate(0 1617.18) scale(1 0.84)" gradientUnits="userSpaceOnUse"><stop offset="0"/><stop offset="1" stop-opacity="0"/></radialGradient><radialGradient id="radial-gradient-42" cx="-9094.4" cy="4728.06" r="86.04" gradientTransform="matrix(0, 0.67, -1, 0, 4837.09, 6210.96)" xlink:href="#radial-gradient-41"/><radialGradient id="radial-gradient-43" cx="17327.52" cy="-18.19" r="64.58" gradientTransform="matrix(0.64, 0, 0, 1.04, -10970.6, 137.77)" xlink:href="#radial-gradient-41"/><mask id="mask" x="0.76" y="0" width="150.94" height="150.94" maskUnits="userSpaceOnUse"><g transform="translate(-0.01)"><circle class="cls-1" cx="76.24" cy="75.47" r="75.47"/></g></mask><mask id="mask-2" x="17.56" y="93.18" width="6.44" height="6.45" maskUnits="userSpaceOnUse"><g transform="translate(-0.01)"><circle class="cls-2" cx="20.79" cy="96.4" r="3.22"/></g></mask><mask id="mask-3" x="52.56" y="104.81" width="6.44" height="6.44" maskUnits="userSpaceOnUse"><g transform="translate(-0.01)"><circle class="cls-13" cx="55.79" cy="108.03" r="3.22"/></g></mask><mask id="mask-4" x="25.88" y="106.23" width="3.27" height="3.27" maskUnits="userSpaceOnUse"><g transform="translate(-0.01)"><circle class="cls-24" cx="27.53" cy="107.86" r="1.63"/></g></mask><mask id="mask-5" x="82.18" y="113.16" width="3.27" height="3.27" maskUnits="userSpaceOnUse"><g transform="translate(-0.01)"><circle class="cls-26" cx="83.82" cy="114.79" r="1.63"/></g></mask><mask id="mask-6" x="61.91" y="122.64" width="3.27" height="3.27" maskUnits="userSpaceOnUse"><g transform="translate(-0.01)"><circle class="cls-27" cx="63.56" cy="124.27" r="1.63"/></g></mask><mask id="mask-7" x="87.82" y="97.99" width="3.27" height="3.27" maskUnits="userSpaceOnUse"><g transform="translate(-0.01)"><circle class="cls-28" cx="89.46" cy="99.62" r="1.64"/></g></mask><mask id="mask-8" x="118.12" y="93.98" width="3.27" height="3.27" maskUnits="userSpaceOnUse"><g transform="translate(-0.01)"><circle class="cls-29" cx="119.76" cy="95.62" r="1.63"/></g></mask><mask id="mask-9" x="114.64" y="101.96" width="6.44" height="6.44" maskUnits="userSpaceOnUse"><g transform="translate(-0.01)"><circle class="cls-30" cx="117.87" cy="105.18" r="3.22"/></g></mask><mask id="mask-10" x="136.16" y="79.18" width="6.44" height="6.44" maskUnits="userSpaceOnUse"><g transform="translate(-0.01)"><circle class="cls-31" cx="139.38" cy="82.4" r="3.22"/></g></mask><mask id="mask-11" x="83.82" y="120.21" width="6.44" height="6.44" maskUnits="userSpaceOnUse"><g transform="translate(-0.01)"><circle class="cls-3" cx="87.05" cy="123.43" r="3.22"/></g></mask><mask id="mask-12" x="98.45" y="102.2" width="7.37" height="7.37" maskUnits="userSpaceOnUse"><g transform="translate(-0.01)"><circle class="cls-4" cx="102.14" cy="105.89" r="3.69"/></g></mask><mask id="mask-13" x="42.96" y="92.33" width="6.57" height="6.57" maskUnits="userSpaceOnUse"><g transform="translate(-0.01)"><circle class="cls-5" cx="46.25" cy="95.62" r="3.29"/></g></mask><mask id="mask-14" x="109.52" y="122.21" width="10.23" height="10.23" maskUnits="userSpaceOnUse"><g transform="translate(-0.01)"><circle class="cls-6" cx="114.64" cy="127.33" r="5.12"/></g></mask><mask id="mask-15" x="74.35" y="120.44" width="2.24" height="2.24" maskUnits="userSpaceOnUse"><g transform="translate(-0.01)"><circle class="cls-7" cx="75.47" cy="121.56" r="1.12"/></g></mask><mask id="mask-16" x="103.67" y="120.96" width="2.24" height="2.24" maskUnits="userSpaceOnUse"><g transform="translate(-0.01)"><circle class="cls-8" cx="104.79" cy="122.08" r="1.12"/></g></mask><mask id="mask-17" x="83.5" y="105.63" width="2.24" height="2.24" maskUnits="userSpaceOnUse"><g transform="translate(-0.01)"><circle class="cls-9" cx="84.63" cy="106.75" r="1.12"/></g></mask><mask id="mask-18" x="123.53" y="107.29" width="2.24" height="2.24" maskUnits="userSpaceOnUse"><g transform="translate(-0.01)"><circle class="cls-10" cx="124.65" cy="108.41" r="1.12"/></g></mask><mask id="mask-19" x="131.94" y="85.78" width="2.24" height="2.24" maskUnits="userSpaceOnUse"><g transform="translate(-0.01)"><circle class="cls-11" cx="133.06" cy="86.9" r="1.12"/></g></mask><mask id="mask-20" x="96.75" y="99.42" width="2.24" height="2.24" maskUnits="userSpaceOnUse"><g transform="translate(-0.01)"><circle class="cls-12" cx="97.87" cy="100.54" r="1.12"/></g></mask><mask id="mask-21" x="30.84" y="92.63" width="2.24" height="2.24" maskUnits="userSpaceOnUse"><g transform="translate(-0.01)"><circle class="cls-14" cx="31.97" cy="93.75" r="1.12"/></g></mask><mask id="mask-22" x="32.44" y="119.84" width="2.24" height="2.24" maskUnits="userSpaceOnUse"><g transform="translate(-0.01)"><circle class="cls-15" cx="33.57" cy="120.96" r="1.12"/></g></mask><mask id="mask-23" x="17.56" y="82.4" width="2.24" height="2.24" maskUnits="userSpaceOnUse"><g transform="translate(-0.01)"><circle class="cls-16" cx="18.68" cy="83.52" r="1.12"/></g></mask><mask id="mask-24" x="71.78" y="102.13" width="2.24" height="2.24" maskUnits="userSpaceOnUse"><g transform="translate(-0.01)"><circle class="cls-17" cx="72.91" cy="103.25" r="1.12"/></g></mask><mask id="mask-25" x="71.78" y="127.33" width="2.24" height="2.24" maskUnits="userSpaceOnUse"><g transform="translate(-0.01)"><circle class="cls-18" cx="72.91" cy="128.45" r="1.12"/></g></mask><mask id="mask-26" x="80.17" y="138.59" width="2.24" height="2.24" maskUnits="userSpaceOnUse"><g transform="translate(-0.01)"><circle class="cls-19" cx="81.29" cy="139.71" r="1.12"/></g></mask><mask id="mask-27" x="63.55" y="102.35" width="2.24" height="2.24" maskUnits="userSpaceOnUse"><g transform="translate(-0.01)"><circle class="cls-20" cx="64.67" cy="103.47" r="1.12"/></g></mask><mask id="mask-28" x="46.24" y="118.14" width="2.24" height="2.24" maskUnits="userSpaceOnUse"><g transform="translate(-0.01)"><circle class="cls-21" cx="47.37" cy="119.26" r="1.12"/></g></mask><mask id="mask-29" x="101.43" y="112.91" width="2.24" height="2.24" maskUnits="userSpaceOnUse"><g transform="translate(-0.01)"><circle class="cls-22" cx="102.55" cy="114.02" r="1.12"/></g></mask><mask id="mask-30" x="125.76" y="94.49" width="2.24" height="2.24" maskUnits="userSpaceOnUse"><g transform="translate(-0.01)"><circle class="cls-23" cx="126.89" cy="95.61" r="1.12"/></g></mask><mask id="mask-31" x="51.86" y="129.96" width="2.24" height="2.24" maskUnits="userSpaceOnUse"><g transform="translate(-0.01)"><circle class="cls-25" cx="52.98" cy="131.08" r="1.12"/></g></mask><symbol id="New_Symbol" data-name="New Symbol" viewBox="0 0 257.01 223.64"><ellipse class="cls-32" cx="95.12" cy="100.46" rx="95.12" ry="79.67"/><ellipse class="cls-33" cx="151.78" cy="111.82" rx="119.53" ry="80.57" transform="translate(-19.1 191.45) rotate(-61.36)"/><ellipse class="cls-34" cx="167.61" cy="125.74" rx="57.37" ry="93.72" transform="translate(-12.47 232.87) rotate(-67.62)"/></symbol><symbol id="New_Symbol_2" data-name="New Symbol 2" viewBox="0 0 257.01 223.64"><ellipse class="cls-38" cx="95.12" cy="100.46" rx="95.12" ry="79.67"/><ellipse class="cls-39" cx="151.78" cy="111.82" rx="119.53" ry="80.57" transform="translate(-19.1 191.45) rotate(-61.36)"/><ellipse class="cls-40" cx="167.61" cy="125.74" rx="57.37" ry="93.72" transform="translate(-12.47 232.87) rotate(-67.62)"/></symbol><symbol id="New_Symbol_3" data-name="New Symbol 3" viewBox="0 0 174.77 164.37"><ellipse class="cls-41" cx="68.47" cy="72.31" rx="68.47" ry="57.35"/><ellipse class="cls-42" cx="109.26" cy="80.49" rx="86.04" ry="58" transform="translate(-13.75 137.81) rotate(-61.36)"/><ellipse class="cls-43" cx="109.26" cy="118.34" rx="41.3" ry="67.46" transform="translate(-41.76 174.32) rotate(-67.62)"/></symbol></defs><title>Ресурс 23weather</title><g id="Слой_2" data-name="Слой 2"><g id="Layer_2" data-name="Layer 2"><g class="cls-44"><circle class="cls-45" cx="76.24" cy="75.47" r="75.47"/></g><use width="257.01" height="223.64" transform="matrix(-0.11, -0.01, 0, -0.16, 70.64, 65.49)" xlink:href="#New_Symbol"/><use width="257.01" height="223.64" transform="matrix(-0.11, -0.01, 0, -0.16, 58.28, 62.9)" xlink:href="#New_Symbol"/><use width="257.01" height="223.64" transform="matrix(-0.11, -0.01, 0, -0.16, 53.89, 60.61)" xlink:href="#New_Symbol"/><use width="257.01" height="223.64" transform="matrix(-0.11, -0.01, 0, -0.16, 49.07, 62.17)" xlink:href="#New_Symbol"/><use width="257.01" height="223.64" transform="matrix(-0.16, -0.02, 0, -0.23, 102.18, 80.68)" xlink:href="#New_Symbol"/><use width="257.01" height="223.64" transform="matrix(-0.16, -0.02, 0, -0.23, 84.66, 77.01)" xlink:href="#New_Symbol"/><use width="257.01" height="223.64" transform="matrix(-0.16, -0.02, 0, -0.23, 78.43, 73.77)" xlink:href="#New_Symbol"/><use width="257.01" height="223.64" transform="matrix(-0.16, -0.02, 0, -0.23, 71.59, 75.98)" xlink:href="#New_Symbol"/><use width="257.01" height="223.64" transform="matrix(-0.17, -0.02, 0, -0.15, 131.06, 64.18)" xlink:href="#New_Symbol_2"/><use width="257.01" height="223.64" transform="matrix(-0.17, -0.02, 0, -0.15, 98.54, 51.23)" xlink:href="#New_Symbol_2"/><use width="257.01" height="223.64" transform="matrix(-0.17, -0.02, 0, -0.15, 70.86, 64.01)" xlink:href="#New_Symbol_2"/><use width="257.01" height="223.64" transform="matrix(-0.17, -0.02, 0, -0.15, 81.21, 56.97)" xlink:href="#New_Symbol_2"/><use width="257.01" height="223.64" transform="matrix(-0.17, -0.02, 0, -0.19, 151.72, 71.72)" xlink:href="#New_Symbol_2"/><use width="257.01" height="223.64" transform="matrix(-0.17, -0.02, 0, -0.19, 97.49, 72.94)" xlink:href="#New_Symbol_2"/><use width="257.01" height="223.64" transform="matrix(0.12, 0.02, 0, 0.19, 0, 24.34)" xlink:href="#New_Symbol_2"/><use width="257.01" height="223.64" transform="matrix(0.12, 0.02, 0, 0.19, 39.96, 23.12)" xlink:href="#New_Symbol_2"/><use width="257.01" height="223.64" transform="translate(9.53 53.18) scale(0.18 0.12)" xlink:href="#New_Symbol"/><use width="257.01" height="223.64" transform="translate(29.25 54.06) scale(0.18 0.12)" xlink:href="#New_Symbol"/><use width="257.01" height="223.64" transform="translate(36.26 55.43) scale(0.18 0.12)" xlink:href="#New_Symbol"/><use width="257.01" height="223.64" transform="translate(43.95 53.8) scale(0.18 0.12)" xlink:href="#New_Symbol"/><use width="257.01" height="223.64" transform="translate(83.47 42.92) scale(0.12 0.16)" xlink:href="#New_Symbol"/><use width="257.01" height="223.64" transform="translate(97.23 44.06) scale(0.12 0.16)" xlink:href="#New_Symbol"/><use width="257.01" height="223.64" transform="translate(102.12 45.84) scale(0.12 0.16)" xlink:href="#New_Symbol"/><use width="257.01" height="223.64" transform="translate(107.49 43.72) scale(0.12 0.16)" xlink:href="#New_Symbol"/><use width="257.01" height="223.64" transform="translate(48.36 31.39) scale(0.17 0.23)" xlink:href="#New_Symbol"/><use width="257.01" height="223.64" transform="translate(67.87 33.02) scale(0.17 0.23)" xlink:href="#New_Symbol"/><use width="257.01" height="223.64" transform="translate(74.8 35.54) scale(0.17 0.23)" xlink:href="#New_Symbol"/><use width="257.01" height="223.64" transform="translate(82.42 32.53) scale(0.17 0.23)" xlink:href="#New_Symbol"/><use width="257.01" height="223.64" transform="translate(41.16 66.35) scale(0.12 0.11)" xlink:href="#New_Symbol"/><use width="257.01" height="223.64" transform="translate(54.74 67.15) scale(0.12 0.11)" xlink:href="#New_Symbol"/><use width="257.01" height="223.64" transform="translate(59.56 68.39) scale(0.12 0.11)" xlink:href="#New_Symbol"/><use width="257.01" height="223.64" transform="translate(64.86 66.91) scale(0.12 0.11)" xlink:href="#New_Symbol"/><use width="257.01" height="223.64" transform="translate(57.27 69.67) rotate(180) scale(0.09 0.14)" xlink:href="#New_Symbol"/><use width="257.01" height="223.64" transform="translate(47.73 68.7) rotate(180) scale(0.09 0.14)" xlink:href="#New_Symbol"/><use width="257.01" height="223.64" transform="translate(44.33 67.21) rotate(180) scale(0.09 0.14)" xlink:href="#New_Symbol"/><use width="257.01" height="223.64" transform="translate(40.61 68.99) rotate(180) scale(0.09 0.14)" xlink:href="#New_Symbol"/><use width="257.01" height="223.64" transform="translate(52.9 75.47) scale(0.12 0.04)" xlink:href="#New_Symbol"/><use width="257.01" height="223.64" transform="translate(16.22 51.27) scale(0.19 0.15)" xlink:href="#New_Symbol_2"/><use width="257.01" height="223.64" transform="translate(52.41 60.43) scale(0.19 0.15)" xlink:href="#New_Symbol_2"/><use width="257.01" height="223.64" transform="translate(83.22 44.41) scale(0.19 0.15)" xlink:href="#New_Symbol_2"/><use width="257.01" height="223.64" transform="translate(71.7 52.66) scale(0.19 0.15)" xlink:href="#New_Symbol_2"/><use width="257.01" height="223.64" transform="translate(60.88 53.09) scale(0.18)" xlink:href="#New_Symbol_2"/><use width="257.01" height="223.64" transform="translate(55.61 46.27) scale(0.18)" xlink:href="#New_Symbol_2"/><use width="257.01" height="223.64" transform="translate(39.02 50.03) scale(0.17 0.16)" xlink:href="#New_Symbol_2"/><use width="257.01" height="223.64" transform="translate(93.32 43.52) scale(0.17 0.16)" xlink:href="#New_Symbol_2"/><use width="257.01" height="223.64" transform="translate(14.24 41.92) scale(0.19)" xlink:href="#New_Symbol_2"/><use width="257.01" height="223.64" transform="translate(74.6 34.38) scale(0.19)" xlink:href="#New_Symbol_2"/><use width="174.77" height="164.37" transform="translate(11.28 53.44) scale(0.31 0.14)" xlink:href="#New_Symbol_3"/><use width="257.01" height="223.64" transform="translate(51.45 58.66) scale(0.13 0.15)" xlink:href="#New_Symbol"/><use width="257.01" height="223.64" transform="translate(66.36 59.69) scale(0.13 0.15)" xlink:href="#New_Symbol"/><use width="257.01" height="223.64" transform="translate(71.65 61.3) scale(0.13 0.15)" xlink:href="#New_Symbol"/><use width="257.01" height="223.64" transform="translate(77.47 59.38) scale(0.13 0.15)" xlink:href="#New_Symbol"/><use width="174.77" height="164.37" transform="translate(66.75 45.65) scale(0.45 0.25)" xlink:href="#New_Symbol_3"/><g class="cls-46"><circle class="cls-47" cx="20.78" cy="96.4" r="3.22"/></g><g class="cls-48"><circle class="cls-47" cx="55.78" cy="108.03" r="3.22"/></g><g class="cls-49"><circle class="cls-47" cx="27.52" cy="107.86" r="1.63"/></g><g class="cls-50"><circle class="cls-47" cx="83.82" cy="114.79" r="1.63"/></g><g class="cls-51"><circle class="cls-47" cx="63.55" cy="124.27" r="1.63"/></g><g class="cls-52"><circle class="cls-47" cx="89.45" cy="99.62" r="1.64"/></g><g class="cls-53"><circle class="cls-47" cx="119.75" cy="95.62" r="1.63"/></g><g class="cls-54"><circle class="cls-47" cx="117.86" cy="105.18" r="3.22"/></g><g class="cls-55"><circle class="cls-47" cx="139.38" cy="82.4" r="3.22"/></g><g class="cls-56"><circle class="cls-47" cx="87.04" cy="123.43" r="3.22"/></g><g class="cls-57"><circle class="cls-47" cx="102.13" cy="105.89" r="3.69"/></g><g class="cls-58"><circle class="cls-47" cx="46.24" cy="95.62" r="3.29"/></g><g class="cls-59"><circle class="cls-47" cx="114.64" cy="127.33" r="5.12"/></g><g class="cls-60"><circle class="cls-47" cx="75.46" cy="121.56" r="1.12"/></g><g class="cls-61"><circle class="cls-47" cx="104.78" cy="122.08" r="1.12"/></g><g class="cls-62"><circle class="cls-47" cx="84.62" cy="106.75" r="1.12"/></g><g class="cls-63"><circle class="cls-47" cx="124.65" cy="108.41" r="1.12"/></g><g class="cls-64"><circle class="cls-47" cx="133.06" cy="86.9" r="1.12"/></g><g class="cls-65"><circle class="cls-47" cx="97.87" cy="100.54" r="1.12"/></g><g class="cls-66"><circle class="cls-47" cx="31.96" cy="93.75" r="1.12"/></g><g class="cls-67"><circle class="cls-47" cx="33.56" cy="120.96" r="1.12"/></g><g class="cls-68"><circle class="cls-47" cx="18.68" cy="83.52" r="1.12"/></g><g class="cls-69"><circle class="cls-47" cx="72.9" cy="103.25" r="1.12"/></g><g class="cls-70"><circle class="cls-47" cx="72.9" cy="128.45" r="1.12"/></g><g class="cls-71"><circle class="cls-47" cx="81.29" cy="139.71" r="1.12"/></g><g class="cls-72"><circle class="cls-47" cx="64.67" cy="103.47" r="1.12"/></g><g class="cls-73"><circle class="cls-47" cx="47.36" cy="119.26" r="1.12"/></g><g class="cls-74"><circle class="cls-47" cx="102.55" cy="114.02" r="1.12"/></g><g class="cls-75"><circle class="cls-47" cx="126.88" cy="95.61" r="1.12"/></g><g class="cls-76"><circle class="cls-47" cx="52.97" cy="131.08" r="1.12"/></g><path class="cls-47" d="M42.36,107.15a1,1,0,0,0-.9.64h-.39a2.41,2.41,0,0,0-.48-1.16l.28-.28a1,1,0,1,0-.44-.45l-.28.27a2.41,2.41,0,0,0-1.15-.48v-.39a1,1,0,1,0-.63,0v.39a2.42,2.42,0,0,0-1.16.48l-.28-.27a1,1,0,1,0-.44.45l.27.28a2.41,2.41,0,0,0-.48,1.16h-.39a1,1,0,1,0,0,.63h.39a2.41,2.41,0,0,0,.48,1.16l-.27.27a1,1,0,1,0,.44.45l.28-.28a2.38,2.38,0,0,0,1.16.48v.39a1,1,0,1,0,.63,0v-.39a2.38,2.38,0,0,0,1.15-.48l.28.28a1,1,0,1,0,.44-.45l-.28-.27a2.4,2.4,0,0,0,.48-1.16h.39a1,1,0,1,0,.9-1.27ZM40.82,105a.65.65,0,1,1,.28,1.09H41l0,0h0l0,0h0l0,0h0l0,0h0l0,0,0,0h0l0,0h0l0,0h0l0,0h0l0,0h0v0h0v0h0v0A.66.66,0,0,1,40.82,105Zm-4.12.64v0h0v0h0v0h0l0,0h0l0,0h0l0,0h0l0,0h0l0,0,0,0h0l0,0h0l0,0h0l0,0h0l0,0h-.11a.65.65,0,1,1,.45-.45Zm-1.05,2.46h0v0h0v0h0v0h0v0h0v0h0v0h0l0,0a.65.65,0,1,1,0-.63l0,0h0v0h0v0h0v0h0v0h0v0h0v0h0s0,0,0,0S35.65,108.13,35.64,108.15Zm.89,3a.65.65,0,1,1-.28-1.09h.11l0,0h0l0,0h0l0,0h0l0,0h0l0,0,0,0h0l0,0h0l0,0h0l0,0h0l0,0h0v0h0v0h0v0A.65.65,0,0,1,36.53,111.17Zm4.12-.64v0h0v0h0v0h0l0,0h0l0,0h0l0,0h0l0,0h0l0,0,0,0h0l0,0h0l0,0h0l0,0h.11a.65.65,0,1,1-.44.45Zm-.25-3.71a2.12,2.12,0,0,1,.4,1H40a1.31,1.31,0,0,0-.16-.39Zm-.44-.45-.58.58a1.27,1.27,0,0,0-.39-.16V106A2.14,2.14,0,0,1,40,106.38Zm-1.28,2.38a.65.65,0,1,1,.65-.66A.66.66,0,0,1,38.68,108.76ZM38,104.42a.65.65,0,1,1,1,.57l0,0H38.4l0,0A.65.65,0,0,1,38,104.42Zm.34,1.56v.82A1.26,1.26,0,0,0,38,107l-.58-.58A2.14,2.14,0,0,1,38.36,106Zm-1.41.85.58.58a1.32,1.32,0,0,0-.16.39h-.82A2.11,2.11,0,0,1,36.95,106.83Zm0,2.57a2.11,2.11,0,0,1-.4-1h.82a1.3,1.3,0,0,0,.16.39Zm.44.45.58-.58a1.4,1.4,0,0,0,.39.16v.82A2.16,2.16,0,0,1,37.39,109.84Zm1.94,2a.65.65,0,1,1-1-.57l0,0H39l0,0A.65.65,0,0,1,39.33,111.79ZM39,110.24v-.82a1.41,1.41,0,0,0,.39-.16l.58.58A2.16,2.16,0,0,1,39,110.24Zm1.41-.85-.58-.58a1.29,1.29,0,0,0,.16-.39h.82A2.13,2.13,0,0,1,40.41,109.39Zm2-.63a.65.65,0,0,1-.57-.34l0,0h0v0h0v0h0v0h0v0h0v0h0a.18.18,0,0,1,0,0h0s0,0,0,0,0,0,0,0h0a.17.17,0,0,1,0,0h0v0h0v0h0v0h0v0h0v0h0l0,0a.65.65,0,1,1,.57,1Z" transform="translate(-0.01)"/><path class="cls-47" d="M100.07,132a1,1,0,0,0-.9.64h-.39a2.4,2.4,0,0,0-.48-1.16l.28-.28a1,1,0,1,0-.44-.45l-.28.27a2.42,2.42,0,0,0-1.16-.48v-.39a1,1,0,1,0-.63,0v.39a2.42,2.42,0,0,0-1.15.48l-.28-.27a1,1,0,1,0-.44.45l.28.28a2.41,2.41,0,0,0-.48,1.16h-.39a1,1,0,1,0,0,.63H94a2.39,2.39,0,0,0,.48,1.16l-.28.28a1,1,0,1,0,.44.45l.28-.28a2.39,2.39,0,0,0,1.15.48v.39a1,1,0,1,0,.63,0v-.39a2.4,2.4,0,0,0,1.16-.48l.28.28a1,1,0,1,0,.44-.45l-.28-.28a2.39,2.39,0,0,0,.48-1.16h.39a1,1,0,1,0,.9-1.27Zm-1.54-2.11a.65.65,0,1,1,.28,1.09H98.7l0,0h0l0,0h0l0,0h0l0,0h0l0,0,0,0h0l0,0h0l0,0h0l0,0h0l0,0h0v0h0v0h0v0A.65.65,0,0,1,98.53,129.86Zm-4.12.64v0h0v0h0v0h0l0,0h0l0,0h0l0,0h0l0,0h0l0,0,0,0h0l0,0h0l0,0h0l0,0h0l0,0H94a.65.65,0,1,1,.45-.44ZM93.36,133h0v0h0v0h0v0h0v0h0v0h0v0h0l0,0a.65.65,0,1,1,0-.63l0,0h0v0h0v0h0v0h0v0h0v0h0v0h0a.36.36,0,0,1,0,0A.31.31,0,0,1,93.36,133Zm.89,3A.65.65,0,1,1,94,134.9h.11l0,0h0l0,0h0l0,0h0l0,0h0l0,0,0,0h0l0,0h0l0,0h0l0,0h0l0,0h0v0h0v0h0v0A.66.66,0,0,1,94.25,136Zm4.12-.65v0h0v0h0v0h0l0,0h0l0,0h0l0,0h0l0,0h0l0,0,0,0h0l0,0h0l0,0h0l0,0h.11a.65.65,0,1,1-.44.44Zm-.25-3.7a2.14,2.14,0,0,1,.4,1H97.7a1.34,1.34,0,0,0-.16-.39Zm-.44-.45-.58.58a1.39,1.39,0,0,0-.39-.16v-.82A2.17,2.17,0,0,1,97.67,131.2Zm-1.28,2.38a.65.65,0,1,1,.65-.65A.65.65,0,0,1,96.39,133.58Zm-.65-4.34a.65.65,0,1,1,1,.57l0,0h-.56l0,0A.65.65,0,0,1,95.74,129.24Zm.34,1.55v.82a1.36,1.36,0,0,0-.39.16l-.58-.58A2.17,2.17,0,0,1,96.08,130.79Zm-1.41.85.58.58a1.3,1.3,0,0,0-.16.39h-.82A2.14,2.14,0,0,1,94.66,131.64Zm0,2.57a2.14,2.14,0,0,1-.4-1h.82a1.29,1.29,0,0,0,.16.39Zm.44.45.58-.58a1.36,1.36,0,0,0,.39.16v.82A2.15,2.15,0,0,1,95.11,134.65Zm1.94,2a.65.65,0,1,1-1-.57l0,0h.56l0,0A.65.65,0,0,1,97,136.61Zm-.34-1.55v-.82a1.39,1.39,0,0,0,.39-.16l.58.58A2.15,2.15,0,0,1,96.71,135.05Zm1.41-.85-.58-.58a1.34,1.34,0,0,0,.16-.39h.82A2.14,2.14,0,0,1,98.12,134.21Zm2-.63a.65.65,0,0,1-.57-.34l0,0h0v0h0v0h0v0h0v0h0v0h0v0h0v-.08h0v0h0v0h0v0h0v0h0v0h0v0h0l0,0a.65.65,0,1,1,.57,1Z" transform="translate(-0.01)"/><path class="cls-47" d="M117.16,113.4a1,1,0,0,0-.9.64h-.39a2.4,2.4,0,0,0-.48-1.16l.28-.28a1,1,0,1,0-.44-.44l-.28.28a2.36,2.36,0,0,0-1.16-.48v-.39a1,1,0,1,0-.63,0V112a2.37,2.37,0,0,0-1.16.48l-.28-.28a1,1,0,1,0-.44.44l.28.28a2.4,2.4,0,0,0-.48,1.16h-.39a1,1,0,1,0,0,.63h.39a2.4,2.4,0,0,0,.48,1.15l-.28.28a1,1,0,1,0,.44.44l.28-.27a2.42,2.42,0,0,0,1.16.48v.39a1,1,0,1,0,.63,0v-.39a2.43,2.43,0,0,0,1.16-.48l.28.27a1,1,0,1,0,.44-.44l-.28-.28a2.4,2.4,0,0,0,.48-1.15h.39a1,1,0,1,0,.9-1.27Zm-1.54-2.11a.65.65,0,1,1,.28,1.09h-.12l0,0h0l0,0h0l0,0h0l0,0h0l0,0,0,0h0l0,0h0l0,0h0l0,0h0l0,0h0v0h0v0h0v0A.65.65,0,0,1,115.61,111.29Zm-4.12.64v0h0v0h0v0h0l0,0h0l0,0h0l0,0h0l0,0h0l0,0,0,0h0l0,0h0l0,0h0l0,0h0l0,0h0l0,0H111a.65.65,0,0,1-.64-1.09.65.65,0,0,1,1.09.64Zm-1.06,2.46h0v0h0v0h0v0h0v0h0v0h0l0,0h0l0,0a.65.65,0,1,1,0-.63l0,0h0l0,0h0v0h0v0h0v0h0v0h0v0h0a.33.33,0,0,1,0,0A.36.36,0,0,1,110.44,114.4Zm.89,3a.65.65,0,1,1-.28-1.09h.11l0,0h0l0,0h0l0,0h0l0,0h0l0,0,0,0h0l0,0h0l0,0h0l0,0h0l0,0h0v0h0v0h0v0A.65.65,0,0,1,111.33,117.42Zm4.12-.64v0h0v0h0v0h0l0,0h0l0,0h0l0,0h0l0,0h0l0,0,0,0h0l0,0h0l0,0h0l0,0h0l0,0h.12a.65.65,0,1,1-.45.45Zm-.25-3.71a2.14,2.14,0,0,1,.4,1h-.82a1.3,1.3,0,0,0-.16-.39Zm-.45-.45-.58.58a1.31,1.31,0,0,0-.39-.16v-.82A2.18,2.18,0,0,1,114.75,112.63ZM113.47,115a.65.65,0,1,1,.65-.65A.65.65,0,0,1,113.47,115Zm-.65-4.34a.65.65,0,0,1,1.31,0,.65.65,0,0,1-.34.57l0,0h0l0,0h-.49l0,0h0l0,0A.65.65,0,0,1,112.82,110.67Zm.34,1.55V113a1.32,1.32,0,0,0-.39.16l-.58-.58A2.18,2.18,0,0,1,113.16,112.23Zm-1.41.85.58.58a1.32,1.32,0,0,0-.16.39h-.82A2.14,2.14,0,0,1,111.74,113.07Zm0,2.57a2.15,2.15,0,0,1-.4-1h.82a1.34,1.34,0,0,0,.16.39Zm.45.45.58-.58a1.29,1.29,0,0,0,.39.16v.82A2.16,2.16,0,0,1,112.19,116.09Zm1.94,2a.65.65,0,1,1-1-.57l0,0h.56l0,0A.65.65,0,0,1,114.12,118Zm-.34-1.55v-.82a1.29,1.29,0,0,0,.39-.16l.58.58A2.16,2.16,0,0,1,113.79,116.49Zm1.42-.85-.58-.58a1.33,1.33,0,0,0,.16-.39h.82A2.15,2.15,0,0,1,115.2,115.64Zm2-.63a.65.65,0,0,1-.57-.34l0,0h0v0h0v0h0v0h0v0h0v0h0v0h0a.27.27,0,0,1,0,0,.26.26,0,0,1,0,0h0v0h0v0h0v0h0v0h0v0h0v0h0l0,0a.65.65,0,1,1,.57,1Z" transform="translate(-0.01)"/><path class="cls-47" d="M15.38,88.87a1,1,0,0,0-.9.64h-.39a2.4,2.4,0,0,0-.48-1.15l.28-.28a1,1,0,1,0-.44-.45l-.28.28A2.39,2.39,0,0,0,12,87.43V87a1,1,0,1,0-.63,0v.39a2.39,2.39,0,0,0-1.15.48l-.28-.28a1,1,0,1,0-.45.45l.28.28a2.4,2.4,0,0,0-.48,1.15H8.91a1,1,0,1,0,0,.63H9.3a2.4,2.4,0,0,0,.48,1.15l-.28.28a1,1,0,1,0,.45.44l.28-.28a2.39,2.39,0,0,0,1.15.48v.39a1,1,0,1,0,.63,0v-.39a2.39,2.39,0,0,0,1.16-.48l.28.28a1,1,0,1,0,.44-.44l-.28-.28a2.4,2.4,0,0,0,.48-1.15h.39a1,1,0,1,0,.9-1.27Zm-1.54-2.11a.65.65,0,1,1,.28,1.09H14l0,0h0l0,0h0l0,0h0l0,0h0l0,0,0,0h0l0,0h0l0,0h0l0,0h0l0,0h0v0h0v0h0v0A.65.65,0,0,1,13.84,86.76Zm-4.12.64v0h0v0h0v0h0l0,0h0l0,0h0l0,0h0l0,0h0l0,0,0,0h0l0,0h0l0,0h0l0,0h0l0,0H9.27a.65.65,0,1,1,.45-.45ZM8.66,89.87h0v0h0v0h0v0h0v0h0v0h0l0,0h0l0,0a.65.65,0,1,1,0-.63l0,0h0l0,0h0v0h0v0h0v0h0v0h0v0h0s0,0,0,0Zm.89,3a.65.65,0,1,1-.28-1.09h.12l0,0h0l0,0h0l0,0h0l0,0h0l0,0,0,0h0l0,0h0l0,0h0l0,0h0l0,0h0v0h0v0h0v0A.65.65,0,0,1,9.55,92.9Zm4.12-.65v0h0v0h0v0h0l0,0h0l0,0h0l0,0h0l0,0h0l0,0,0,0h0l0,0h0l0,0h0l0,0h0l0,0h.12a.65.65,0,1,1-.45.44Zm-.25-3.71a2.17,2.17,0,0,1,.4,1H13a1.34,1.34,0,0,0-.16-.39ZM13,88.1l-.58.58a1.46,1.46,0,0,0-.39-.16V87.7A2.15,2.15,0,0,1,13,88.1Zm-1.28,2.38a.65.65,0,1,1,.65-.65A.65.65,0,0,1,11.69,90.48ZM11,86.14a.65.65,0,1,1,1,.57l0,0h-.56l0,0A.65.65,0,0,1,11,86.14Zm.34,1.56v.82a1.44,1.44,0,0,0-.39.16l-.58-.58A2.15,2.15,0,0,1,11.38,87.7ZM10,88.54l.58.58a1.36,1.36,0,0,0-.16.39H9.56A2.17,2.17,0,0,1,10,88.54Zm0,2.57a2.16,2.16,0,0,1-.4-1h.82a1.33,1.33,0,0,0,.16.39Zm.45.45L11,91a1.32,1.32,0,0,0,.39.16V92A2.14,2.14,0,0,1,10.41,91.56Zm1.94,2a.65.65,0,1,1-1-.57l0,0H12l0,0A.65.65,0,0,1,12.35,93.51ZM12,92v-.82A1.34,1.34,0,0,0,12.4,91l.58.58A2.14,2.14,0,0,1,12,92Zm1.41-.85-.58-.58a1.31,1.31,0,0,0,.16-.39h.82A2.15,2.15,0,0,1,13.42,91.11Zm2-.63a.65.65,0,0,1-.57-.34l0,0h0v0h0v0h0v0h0v0h0v0h0v0h0v-.08h0v0h0v0h0v0h0v0h0v0h0v0h0l0,0a.65.65,0,1,1,.57,1Z" transform="translate(-0.01)"/><path class="cls-47" d="M141.65,99.3a1,1,0,0,0-.9.64h-.39a2.39,2.39,0,0,0-.48-1.15l.28-.28a1,1,0,1,0-.44-.44l-.28.27a2.42,2.42,0,0,0-1.16-.48v-.39a1,1,0,1,0-.63,0v.39a2.41,2.41,0,0,0-1.15.48l-.28-.27a1,1,0,1,0-.44.44l.28.28a2.4,2.4,0,0,0-.48,1.15h-.39a1,1,0,1,0,0,.63h.39a2.39,2.39,0,0,0,.48,1.16l-.28.28a1,1,0,1,0,.44.45l.28-.28a2.37,2.37,0,0,0,1.15.48V103a1,1,0,1,0,.63,0v-.39a2.38,2.38,0,0,0,1.16-.48l.28.28a1,1,0,1,0,.44-.45l-.28-.28a2.39,2.39,0,0,0,.48-1.16h.39a1,1,0,1,0,.9-1.27Zm-1.54-2.11a.65.65,0,1,1,.28,1.09h-.12l0,0h0l0,0h0l0,0h0l0,0h0l0,0,0,0h0l0,0h0l0,0h0l0,0h0l0,0h0v0h0v0h0v0A.65.65,0,0,1,140.11,97.18Zm-4.12.64v0h0v0h0v0h0l0,0h0l0,0h0l0,0h0l0,0h0l0,0,0,0h0l0,0h0l0,0h0l0,0h0l0,0h-.12a.65.65,0,1,1,.45-.45Zm-1.05,2.46h0v0h0v0h0v0h0v0h0v0h0l0,0h0l0,0a.65.65,0,1,1,0-.63l0,0h0l0,0h0v0h0v0h0v0h0v0h0v0h0v.08Zm.89,3a.65.65,0,1,1-.28-1.09h.12l0,0h0l0,0h0l0,0h0l0,0h0l0,0,0,0h0l0,0h0l0,0h0l0,0h0l0,0h0v0h0v0h0v0A.65.65,0,0,1,135.82,103.32Zm4.12-.64v0h0v0h0v0h0l0,0h0l0,0h0l0,0h0l0,0h0l0,0,0,0h0l0,0h0l0,0h0l0,0h.12a.65.65,0,1,1-.45.45ZM139.7,99a2.16,2.16,0,0,1,.4,1h-.82a1.34,1.34,0,0,0-.16-.39Zm-.44-.44-.58.58a1.38,1.38,0,0,0-.39-.16v-.82A2.12,2.12,0,0,1,139.25,98.52ZM138,100.91a.65.65,0,1,1,.65-.66A.65.65,0,0,1,138,100.91Zm-.65-4.34a.65.65,0,1,1,1,.57l0,0h-.56l0,0A.65.65,0,0,1,137.31,96.57Zm.34,1.55v.82a1.38,1.38,0,0,0-.39.16l-.58-.58A2.12,2.12,0,0,1,137.65,98.12Zm-1.41.84.58.58a1.31,1.31,0,0,0-.16.39h-.82A2.16,2.16,0,0,1,136.24,99Zm0,2.57a2.15,2.15,0,0,1-.4-1h.82a1.29,1.29,0,0,0,.16.39Zm.44.44.58-.58a1.36,1.36,0,0,0,.39.16v.82A2.17,2.17,0,0,1,136.68,102Zm1.94,2a.65.65,0,1,1-1-.57l0,0h.56l0,0A.65.65,0,0,1,138.62,103.93Zm-.34-1.55v-.82a1.36,1.36,0,0,0,.39-.16l.58.58A2.16,2.16,0,0,1,138.28,102.38Zm1.41-.85-.58-.58a1.31,1.31,0,0,0,.16-.39h.82A2.15,2.15,0,0,1,139.7,101.54Zm2-.63a.65.65,0,0,1-.57-.34l0,0h0v0h0v0h0v0h0v0h0v0h0v0h0s0,0,0,0v0h0v0h0v0h0v0h0v0h0v0h0v0h0l0,0a.65.65,0,1,1,.57,1Z" transform="translate(-0.01)"/><path class="cls-47" d="M73.53,113.7a.65.65,0,0,0-.62.44h-.27a1.65,1.65,0,0,0-.33-.79l.19-.19a.65.65,0,1,0-.31-.3L72,113a1.64,1.64,0,0,0-.79-.33v-.27a.65.65,0,1,0-.43,0v.27A1.65,1.65,0,0,0,70,113l-.19-.19a.65.65,0,1,0-.3.3l.19.19a1.64,1.64,0,0,0-.33.79H69.1a.65.65,0,1,0,0,.43h.27a1.65,1.65,0,0,0,.33.79l-.19.19a.65.65,0,1,0,.3.3l.19-.19a1.64,1.64,0,0,0,.79.33v.27a.65.65,0,1,0,.43,0V116a1.66,1.66,0,0,0,.79-.33l.19.19a.65.65,0,1,0,.31-.3l-.19-.19a1.66,1.66,0,0,0,.33-.79h.27a.65.65,0,1,0,.62-.87Zm-1.05-1.45a.45.45,0,1,1,.19.75h-.17l0,0,0,0h0v0h0v0h0v0h0v0h0v0h0v0A.45.45,0,0,1,72.47,112.26Zm-2.82.44v0h0v0h0v0h0v0h0v0h0v0h0l0,0,0,0h-.17a.45.45,0,1,1,.19-.75A.45.45,0,0,1,69.65,112.7Zm-.72,1.68h0v0h0v0h0v0h0v0h0v0h0v0h0v0a.45.45,0,1,1,0-.43v0h0v0h0v0h0v0h0v0h0v0h0v0h0a.1.1,0,0,1,0,0A.13.13,0,0,1,68.93,114.38Zm.61,2.07a.45.45,0,1,1-.63-.63.44.44,0,0,1,.44-.11h.17l0,0,0,0h0v0h0v0h0v0h0v0h0v0h0v0h0v0A.45.45,0,0,1,69.54,116.46Zm2.82-.44v0h0v0h0v0h0v0h0v0h0v0h0v0h0l0,0,0,0h.17a.44.44,0,0,1,.44.11.45.45,0,1,1-.74.19Zm-.17-2.54a1.48,1.48,0,0,1,.27.66H71.9a.89.89,0,0,0-.11-.27Zm-.31-.3-.4.4a.86.86,0,0,0-.27-.11v-.56A1.42,1.42,0,0,1,71.88,113.18ZM71,114.8a.45.45,0,1,1,.45-.45A.45.45,0,0,1,71,114.8Zm-.45-3a.45.45,0,1,1,.66.39h-.43A.45.45,0,0,1,70.56,111.84Zm.23,1.06v.56a.85.85,0,0,0-.27.11l-.4-.4A1.42,1.42,0,0,1,70.79,112.9Zm-1,.58.4.4a.94.94,0,0,0-.11.27h-.56A1.47,1.47,0,0,1,69.82,113.48Zm0,1.76a1.47,1.47,0,0,1-.27-.66h.56a.9.9,0,0,0,.11.27Zm.3.31.4-.4a.85.85,0,0,0,.27.11v.56A1.49,1.49,0,0,1,70.13,115.54Zm1.32,1.34a.45.45,0,0,1-.89,0,.45.45,0,0,1,.23-.39h.43A.45.45,0,0,1,71.45,116.88Zm-.23-1.07v-.56a.86.86,0,0,0,.27-.11l.4.4A1.49,1.49,0,0,1,71.22,115.81Zm1-.58-.4-.4a.85.85,0,0,0,.11-.27h.56A1.49,1.49,0,0,1,72.19,115.24Zm1.34-.43a.44.44,0,0,1-.39-.23v0h0v0h0v0h0v0h0v0h0v0h0a0,0,0,0,1,0,0h0v-.05h0a.07.07,0,0,1,0,0h0v0h0v0h0v0h0v0h0v0h0v0a.45.45,0,1,1,.39.66Z" transform="translate(-0.01)"/><path class="cls-47" d="M45.55,126.79a.65.65,0,0,0-.62.44h-.27a1.65,1.65,0,0,0-.33-.79l.19-.19a.65.65,0,1,0-.3-.3l-.19.19a1.66,1.66,0,0,0-.79-.33v-.26a.65.65,0,1,0-.43,0v.26a1.66,1.66,0,0,0-.79.33l-.19-.19a.65.65,0,1,0-.31.3l.19.19a1.65,1.65,0,0,0-.33.79h-.27a.65.65,0,1,0,0,.43h.27a1.65,1.65,0,0,0,.33.79l-.19.19a.65.65,0,1,0,.31.3l.19-.19a1.63,1.63,0,0,0,.79.33v.27a.65.65,0,1,0,.43,0v-.27a1.65,1.65,0,0,0,.79-.33l.19.19a.65.65,0,1,0,.3-.3l-.19-.19a1.65,1.65,0,0,0,.33-.79h.27a.65.65,0,1,0,.62-.87Zm-1.05-1.45a.45.45,0,1,1,.19.75h-.17l0,0,0,0h0v0h0v0h0v0h0v0h0v0h0v0A.44.44,0,0,1,44.5,125.35Zm-2.82.44v0h0v0h0v0h0v0h0v0h0v0h0l0,0,0,0h-.17a.45.45,0,1,1,.3-.31ZM41,127.47h0v0h0v0h0v0h0v0h0v0h0v0h0v0a.45.45,0,1,1,0-.43v0h0v0h0v0h0v0h0v0h0v0h0v0h0v.05Zm.61,2.07a.45.45,0,1,1-.19-.74h.1l0,0h0l0,0,0,0h0v0h0l0,0h0v0h0v0h0v0h0v0A.45.45,0,0,1,41.56,129.54Zm2.82-.44v0h0v0h0v0h0v0h0v0h0v0h0l0,0,0,0h.17a.45.45,0,1,1-.3.3Zm-.17-2.54a1.46,1.46,0,0,1,.27.66h-.56a1,1,0,0,0-.11-.27Zm-.3-.31-.4.4a.94.94,0,0,0-.27-.11V126A1.49,1.49,0,0,1,43.91,126.26ZM43,127.89a.45.45,0,1,1,.45-.45A.45.45,0,0,1,43,127.89Zm-.45-3a.45.45,0,1,1,.66.39h-.43A.44.44,0,0,1,42.58,124.92Zm.23,1.06v.56a.94.94,0,0,0-.27.11l-.4-.4A1.48,1.48,0,0,1,42.81,126Zm-1,.58.4.4a.92.92,0,0,0-.11.27h-.56A1.47,1.47,0,0,1,41.85,126.57Zm0,1.75a1.46,1.46,0,0,1-.27-.66h.56a.92.92,0,0,0,.11.26Zm.31.31.4-.4a.86.86,0,0,0,.27.11v.56A1.48,1.48,0,0,1,42.15,128.63ZM43.48,130a.45.45,0,1,1-.66-.39h.43A.44.44,0,0,1,43.48,130Zm-.23-1.06v-.56a.85.85,0,0,0,.27-.11l.4.4A1.49,1.49,0,0,1,43.25,128.9Zm1-.58-.4-.4a1,1,0,0,0,.11-.26h.56A1.45,1.45,0,0,1,44.21,128.32Zm1.34-.43a.45.45,0,0,1-.39-.23v0h0v0h0v0h0v0h0v0h0v0h0v0h0v-.05h0v0h0v0h0v0h0v0h0v0h0v0h0v0a.45.45,0,1,1,.39.66Z" transform="translate(-0.01)"/><path class="cls-47" d="M112.82,97.62a.65.65,0,0,0-.62.44h-.27a1.66,1.66,0,0,0-.33-.79l.19-.19a.65.65,0,1,0-.31-.3l-.19.19a1.64,1.64,0,0,0-.79-.33v-.27a.65.65,0,1,0-.43,0v.27a1.64,1.64,0,0,0-.79.33l-.19-.19a.65.65,0,1,0-.3.3l.19.19a1.66,1.66,0,0,0-.33.79h-.27a.65.65,0,1,0,0,.43h.27a1.65,1.65,0,0,0,.33.79l-.19.19a.65.65,0,1,0,.18,1.05.65.65,0,0,0,.13-.75l.19-.19a1.65,1.65,0,0,0,.79.33v.27a.65.65,0,1,0,.43,0v-.27a1.65,1.65,0,0,0,.79-.33l.19.19a.65.65,0,1,0,.31-.31l-.19-.19a1.65,1.65,0,0,0,.33-.79h.27a.65.65,0,1,0,.62-.87Zm-1.05-1.45a.45.45,0,1,1,.19.75h-.17l0,0,0,0h0v0h0l0,0h0v0h0v0h0v0h0v0A.45.45,0,0,1,111.76,96.17Zm-2.82.44v0h0v0h0v0h0v0h0v0h0v0h0l0,0,0,0h-.17a.45.45,0,1,1,.3-.3Zm-.72,1.68h0v0h0v0h0v0h0v0h0v0h0v0h0v0a.45.45,0,1,1,0-.43v0h0v0h0v0h0v0h0v0h0v0h0v0h0v.05Zm.61,2.07a.45.45,0,1,1-.19-.75h.17l0,0,0,0h0v0h0v0h0v0h0v0h0v0h0v0A.45.45,0,0,1,108.83,100.37Zm2.82-.44v0h0v0h0v0h0v0h0l0,0h0v0h0l0,0,0,0H112a.45.45,0,1,1-.3.3Zm-.17-2.54a1.47,1.47,0,0,1,.27.66h-.56a.92.92,0,0,0-.11-.27Zm-.31-.31-.4.4a.94.94,0,0,0-.27-.11v-.56A1.45,1.45,0,0,1,111.17,97.09Zm-.88,1.63a.45.45,0,1,1,.45-.45A.45.45,0,0,1,110.3,98.72Zm-.45-3a.45.45,0,1,1,.66.39h-.43A.45.45,0,0,1,109.85,95.75Zm.23,1.06v.56a.93.93,0,0,0-.27.11l-.4-.4A1.45,1.45,0,0,1,110.08,96.82Zm-1,.58.4.4a.91.91,0,0,0-.11.27h-.56A1.46,1.46,0,0,1,109.11,97.4Zm0,1.76a1.47,1.47,0,0,1-.28-.66h.56a.91.91,0,0,0,.11.27Zm.3.3.4-.39a1,1,0,0,0,.27.11v.56A1.42,1.42,0,0,1,109.42,99.45Zm1.32,1.34a.45.45,0,0,1-.89,0,.45.45,0,0,1,.23-.39h.43A.45.45,0,0,1,110.74,100.79Zm-.23-1.06v-.56a1,1,0,0,0,.27-.11l.4.39A1.42,1.42,0,0,1,110.51,99.73Zm1-.58-.4-.4a.92.92,0,0,0,.11-.27h.56A1.48,1.48,0,0,1,111.48,99.15Zm1.34-.43a.45.45,0,0,1-.39-.23v0h0v0h0v0h0v0h0v0h0v0h0v0h0v-.05h0v0h0v0h0v0h0v0h0v0h0v0h0v0a.45.45,0,1,1,.39.66Z" transform="translate(-0.01)"/><path class="cls-47" d="M93.82,112.52a.39.39,0,0,0-.37.26h-.16a1,1,0,0,0-.19-.47l.11-.11A.39.39,0,1,0,93,112l-.11.11a1,1,0,0,0-.47-.19v-.16a.39.39,0,1,0-.26,0v.16a1,1,0,0,0-.47.19l-.11-.11a.39.39,0,0,0-.62-.44.39.39,0,0,0,.44.62l.11.11a1,1,0,0,0-.19.47h-.16a.39.39,0,1,0,0,.26h.16a1,1,0,0,0,.19.47l-.11.11a.39.39,0,1,0,.18.18l.11-.11a1,1,0,0,0,.47.19V114a.39.39,0,0,0,.13.75.39.39,0,0,0,.39-.39.38.38,0,0,0-.26-.37v-.16a1,1,0,0,0,.47-.19l.11.11a.39.39,0,0,0,.08.45.39.39,0,1,0,.11-.62l-.11-.11a1,1,0,0,0,.19-.47h.16a.39.39,0,1,0,.37-.51Zm-.63-.86a.27.27,0,1,1,.11.44h-.18v0A.26.26,0,0,1,93.19,111.66Zm-1.68.26v0h-.18a.27.27,0,1,1,.11-.44A.26.26,0,0,1,91.52,111.92Zm-.43,1h0v0h0a.26.26,0,1,1,0-.26h0v0Zm.36,1.23a.27.27,0,0,1-.38-.37.26.26,0,0,1,.26-.07h.17v0h0v0A.26.26,0,0,1,91.45,114.15Zm1.68-.26v0h0v0h.17a.27.27,0,1,1-.18.18Zm-.1-1.51a.87.87,0,0,1,.16.39h-.33a.51.51,0,0,0-.07-.16Zm-.18-.18-.24.24a.55.55,0,0,0-.16-.07V112A.89.89,0,0,1,92.84,112.2Zm-.52,1a.27.27,0,1,1,.27-.27A.27.27,0,0,1,92.32,113.17Zm-.27-1.77a.27.27,0,1,1,.39.23h-.26A.26.26,0,0,1,92.06,111.41Zm.14.63v.33a.54.54,0,0,0-.16.07l-.24-.24A.89.89,0,0,1,92.19,112Zm-.58.34.24.24a.52.52,0,0,0-.07.16h-.33A.88.88,0,0,1,91.62,112.38Zm0,1a.88.88,0,0,1-.16-.4h.33a.51.51,0,0,0,.07.16Zm.18.18.24-.24a.48.48,0,0,0,.16.07v.33A.87.87,0,0,1,91.8,113.61Zm.79.79a.27.27,0,1,1-.53,0,.26.26,0,0,1,.14-.23h.26A.26.26,0,0,1,92.59,114.4Zm-.14-.63v-.33a.48.48,0,0,0,.16-.07l.24.24A.87.87,0,0,1,92.45,113.77Zm.58-.34-.24-.24a.51.51,0,0,0,.07-.16h.33A.87.87,0,0,1,93,113.43Zm.8-.26a.26.26,0,0,1-.23-.14h0v0h0a.27.27,0,1,1,.23.39Z" transform="translate(-0.01)"/><path class="cls-47" d="M59.92,114.4a.39.39,0,0,0-.37.26h-.16a1,1,0,0,0-.19-.47l.11-.11a.39.39,0,0,0,.44-.08.39.39,0,1,0-.62-.11L59,114a1,1,0,0,0-.47-.2v-.16a.39.39,0,1,0-.25,0v.16a1,1,0,0,0-.47.2l-.11-.11a.39.39,0,1,0-.62.11.39.39,0,0,0,.44.08l.11.11a1,1,0,0,0-.2.47h-.16a.39.39,0,1,0,0,.26h.16a1,1,0,0,0,.2.47l-.11.11a.39.39,0,1,0,.11.62.39.39,0,0,0,.07-.44l.11-.11a1,1,0,0,0,.47.19v.16a.39.39,0,1,0,.25,0v-.16a1,1,0,0,0,.47-.19l.11.11a.39.39,0,1,0,.18-.18l-.11-.11a1,1,0,0,0,.19-.47h.16a.39.39,0,1,0,.37-.52Zm-.63-.86a.27.27,0,1,1,.37.38.26.26,0,0,1-.26.07h-.18v0A.26.26,0,0,1,59.29,113.54Zm-1.68.26v0h-.18a.26.26,0,0,1-.26-.07.27.27,0,1,1,.44-.11Zm-.43,1h0v0h0v0a.27.27,0,1,1,0-.26v0h0v0h0v0Zm.36,1.23a.27.27,0,1,1-.11-.44h.18v0A.26.26,0,0,1,57.55,116Zm1.68-.26v0h.18a.26.26,0,1,1-.18.18Zm-.1-1.51a.86.86,0,0,1,.16.39H59a.59.59,0,0,0-.07-.16Zm-.18-.18-.24.24a.52.52,0,0,0-.16-.07v-.33A.84.84,0,0,1,58.94,114.09Zm-.52,1a.27.27,0,1,1,.27-.26A.27.27,0,0,1,58.42,115.06Zm-.27-1.76a.27.27,0,1,1,.53,0,.26.26,0,0,1-.14.23h-.25A.26.26,0,0,1,58.15,113.29Zm.14.63v.33a.54.54,0,0,0-.16.07l-.24-.24A.84.84,0,0,1,58.29,113.93Zm-.57.34.23.24a.58.58,0,0,0-.07.16h-.33A.86.86,0,0,1,57.72,114.27Zm0,1a.87.87,0,0,1-.16-.39h.33a.62.62,0,0,0,.07.16Zm.18.18.24-.24.16.06v.34A.89.89,0,0,1,57.9,115.5Zm.79.8a.27.27,0,1,1-.53,0,.26.26,0,0,1,.14-.23h.25A.26.26,0,0,1,58.69,116.29Zm-.14-.63v-.34l.16-.06.24.24A.89.89,0,0,1,58.55,115.66Zm.58-.34-.24-.24a.64.64,0,0,0,.07-.16h.33A.87.87,0,0,1,59.12,115.32Zm.8-.26a.27.27,0,0,1-.23-.14v0h0v0h0v0a.27.27,0,0,1,.5.13A.26.26,0,0,1,59.92,115.06Z" transform="translate(-0.01)"/><path class="cls-47" d="M21.3,110.63a.39.39,0,0,0-.37.26h-.16a1,1,0,0,0-.2-.47l.11-.11a.39.39,0,0,0,.44-.08.39.39,0,1,0-.62-.1l-.11.11a1,1,0,0,0-.47-.2v-.16a.39.39,0,0,0-.13-.75.39.39,0,0,0-.13.75V110a1,1,0,0,0-.47.2l-.11-.11a.39.39,0,1,0-.62.1.39.39,0,0,0,.44.08l.11.11a1,1,0,0,0-.2.47h-.16a.39.39,0,1,0,0,.26h.16a1,1,0,0,0,.2.47l-.11.11a.39.39,0,1,0,.18.18l.11-.11a1,1,0,0,0,.47.19v.16a.39.39,0,1,0,.26,0V112a1,1,0,0,0,.47-.19l.11.11a.39.39,0,1,0,.18-.18l-.11-.11a1,1,0,0,0,.2-.47h.16a.39.39,0,1,0,.37-.52Zm-.63-.86a.27.27,0,1,1,.11.44h-.18A.27.27,0,0,1,20.68,109.77ZM19,110v0h-.18a.27.27,0,0,1-.26-.44A.27.27,0,0,1,19,110Zm-.43,1h0v0h0v0a.26.26,0,0,1-.23.14.26.26,0,1,1,.23-.39h0Zm.36,1.23a.27.27,0,1,1-.11-.44H19v0A.26.26,0,0,1,18.93,112.27Zm1.68-.26v0h.18a.27.27,0,1,1-.18.18Zm-.1-1.51a.87.87,0,0,1,.16.39h-.33a.54.54,0,0,0-.07-.16Zm-.18-.18-.24.24a.48.48,0,0,0-.16-.07v-.33A.85.85,0,0,1,20.32,110.32Zm-.52,1a.26.26,0,1,1,.27-.26A.26.26,0,0,1,19.8,111.28Zm-.27-1.76a.27.27,0,1,1,.53,0,.26.26,0,0,1-.14.23h-.26A.26.26,0,0,1,19.54,109.52Zm.14.63v.33a.49.49,0,0,0-.16.07l-.24-.24A.87.87,0,0,1,19.68,110.15Zm-.57.34.24.24a.54.54,0,0,0-.07.16h-.33A.88.88,0,0,1,19.1,110.5Zm0,1a.88.88,0,0,1-.16-.39h.33a.5.5,0,0,0,.07.16Zm.18.18.24-.24a.56.56,0,0,0,.16.07v.33A.89.89,0,0,1,19.28,111.72Zm.79.8a.27.27,0,1,1-.39-.23h.26A.27.27,0,0,1,20.07,112.52Zm-.14-.63v-.33l.16-.07.24.24A.88.88,0,0,1,19.93,111.88Zm.57-.34-.24-.24a.49.49,0,0,0,.07-.16h.33A.88.88,0,0,1,20.51,111.54Zm.8-.26a.26.26,0,0,1-.23-.14h0v0h0a.27.27,0,1,1,.23.39Z" transform="translate(-0.01)"/><path class="cls-47" d="M127.27,86.09a.39.39,0,0,0-.37.26h-.16a1,1,0,0,0-.19-.47l.11-.11a.39.39,0,1,0-.18-.18l-.11.11a1,1,0,0,0-.47-.19v-.16a.4.4,0,0,0,.26-.37.39.39,0,0,0-.78,0,.39.39,0,0,0,.26.37v.16a1,1,0,0,0-.47.19l-.11-.11a.39.39,0,1,0-.18.18l.11.11a1,1,0,0,0-.19.47h-.16a.39.39,0,1,0,0,.25h.16a1,1,0,0,0,.19.47l-.11.11a.39.39,0,1,0,.18.18l.11-.11a1,1,0,0,0,.47.19v.16a.39.39,0,1,0,.26,0v-.16a1,1,0,0,0,.47-.19l.11.11a.39.39,0,1,0,.18-.18l-.11-.11a1,1,0,0,0,.19-.47h.16a.39.39,0,1,0,.37-.51Zm-.63-.86a.27.27,0,0,1,.38,0,.27.27,0,0,1-.26.44h-.18v0A.27.27,0,0,1,126.64,85.23Zm-1.68.26v0h-.18a.27.27,0,0,1-.26-.44.27.27,0,0,1,.44.26Zm-.43,1h0v0h0a.27.27,0,1,1,0-.25h0v0h0v0h0v0Zm.36,1.23a.27.27,0,1,1-.11-.44H125v0A.27.27,0,0,1,124.9,87.73Zm1.68-.26v0h.18a.26.26,0,0,1,.26.07.27.27,0,1,1-.44.12Zm-.1-1.51a.87.87,0,0,1,.16.39h-.33a.49.49,0,0,0-.07-.16Zm-.18-.18-.24.24a.53.53,0,0,0-.16-.07v-.33A.9.9,0,0,1,126.29,85.78Zm-.52,1a.27.27,0,1,1,.27-.26A.27.27,0,0,1,125.77,86.75ZM125.51,85a.27.27,0,0,1,.53,0,.26.26,0,0,1-.14.23h-.26A.26.26,0,0,1,125.51,85Zm.14.63v.33a.52.52,0,0,0-.16.07l-.24-.24A.9.9,0,0,1,125.64,85.61Zm-.58.35.24.24a.55.55,0,0,0-.07.16h-.33A.87.87,0,0,1,125.07,86Zm0,1a.87.87,0,0,1-.16-.4h.33a.58.58,0,0,0,.07.16Zm.18.18.24-.23a.55.55,0,0,0,.16.07v.33A.83.83,0,0,1,125.25,87.18Zm.79.8a.27.27,0,1,1-.39-.23h.26A.27.27,0,0,1,126,88Zm-.14-.63V87a.56.56,0,0,0,.16-.07l.24.23A.83.83,0,0,1,125.9,87.35Zm.57-.34-.24-.24a.52.52,0,0,0,.07-.16h.33A.88.88,0,0,1,126.47,87Zm.8-.26a.27.27,0,0,1-.23-.14h0v0h0v0h0v0h0v0h0a.27.27,0,1,1,.23.39Z" transform="translate(-0.01)"/><path class="cls-47" d="M56.86,94.41a.39.39,0,0,0-.37.26h-.16a1,1,0,0,0-.19-.47l.11-.11a.39.39,0,1,0-.18-.18L56,94a1,1,0,0,0-.47-.19v-.16a.39.39,0,1,0-.25,0v.16a1,1,0,0,0-.47.2l-.11-.11a.39.39,0,1,0-.18.18l.11.11a1,1,0,0,0-.19.47h-.16a.39.39,0,0,0-.76.13.39.39,0,0,0,.76.13h.16a1,1,0,0,0,.19.47l-.11.11a.39.39,0,1,0,.18.18l.11-.11a1,1,0,0,0,.47.19v.16a.39.39,0,1,0,.25,0v-.16a1,1,0,0,0,.47-.19l.11.11a.39.39,0,1,0,.62-.11.39.39,0,0,0-.44-.08l-.11-.11a1,1,0,0,0,.19-.47h.16a.39.39,0,1,0,.37-.52Zm-.63-.86a.27.27,0,1,1,.11.44h-.18A.26.26,0,0,1,56.23,93.55Zm-1.68.26v0h-.18a.27.27,0,0,1-.26-.44.27.27,0,0,1,.44.26Zm-.43,1h0v0h0v0h0a.27.27,0,1,1,0-.26v0h0v0ZM54.49,96a.27.27,0,1,1-.38-.37.27.27,0,0,1,.26-.07h.18A.26.26,0,0,1,54.49,96Zm1.68-.26h.18a.27.27,0,0,1,.26.07.27.27,0,1,1-.44.11Zm-.1-1.51a.87.87,0,0,1,.16.39h-.33a.54.54,0,0,0-.07-.16Zm-.18-.18-.24.24a.55.55,0,0,0-.16-.07v-.33A.88.88,0,0,1,55.88,94.09Zm-.52,1a.27.27,0,1,1,.27-.27A.27.27,0,0,1,55.36,95.06Zm-.26-1.76a.27.27,0,1,1,.53,0,.26.26,0,0,1-.14.23h-.25A.26.26,0,0,1,55.09,93.3Zm.14.63v.33a.57.57,0,0,0-.16.07l-.24-.24A.89.89,0,0,1,55.23,93.93Zm-.58.34.23.24a.56.56,0,0,0-.06.16h-.33A.88.88,0,0,1,54.66,94.27Zm0,1a.87.87,0,0,1-.16-.39h.33a.6.6,0,0,0,.06.16Zm.18.18.24-.24.16.07v.33A.88.88,0,0,1,54.84,95.5Zm.79.8a.27.27,0,1,1-.39-.23h.25A.27.27,0,0,1,55.63,96.29Zm-.14-.63v-.33l.16-.07.24.24A.87.87,0,0,1,55.49,95.66Zm.58-.35-.24-.23a.59.59,0,0,0,.07-.16h.33A.87.87,0,0,1,56.06,95.32Zm.8-.26a.27.27,0,0,1-.23-.14h0v0h0v0a.27.27,0,0,1,.5.13A.26.26,0,0,1,56.86,95.06Z" transform="translate(-0.01)"/><path class="cls-47" d="M66.17,134.42a.39.39,0,0,0-.37.26h-.16a1,1,0,0,0-.2-.47l.11-.11A.39.39,0,0,0,66,134a.39.39,0,1,0-.62-.11l-.11.11a1,1,0,0,0-.47-.19v-.16a.39.39,0,1,0-.26,0v.16a1,1,0,0,0-.47.19l-.11-.11a.39.39,0,1,0-.62.11.4.4,0,0,0,.44.08l.11.11a1,1,0,0,0-.2.47h-.16a.39.39,0,1,0,0,.26h.16a1,1,0,0,0,.2.47l-.11.11a.39.39,0,1,0,.11.62.39.39,0,0,0,.07-.44l.11-.11a1,1,0,0,0,.47.19v.16a.39.39,0,1,0,.26,0v-.16a1,1,0,0,0,.47-.19l.11.11a.39.39,0,1,0,.18-.18l-.11-.11a1,1,0,0,0,.2-.47h.16a.39.39,0,1,0,.37-.52Zm-.63-.86a.27.27,0,0,1,.37,0,.27.27,0,0,1-.26.44h-.18v0A.26.26,0,0,1,65.55,133.56Zm-1.68.26v0h-.18a.26.26,0,0,1-.26-.07.26.26,0,1,1,.44-.11Zm-.43,1h0v0h0v0h0a.27.27,0,1,1,0-.26v0h0v0h0v0Zm.36,1.23a.26.26,0,1,1-.11-.44h.18A.26.26,0,0,1,63.8,136.06Zm1.68-.26h.18a.27.27,0,1,1-.11.44A.27.27,0,0,1,65.48,135.8Zm-.1-1.51a.88.88,0,0,1,.16.39h-.33a.52.52,0,0,0-.07-.16Zm-.18-.18-.24.24-.16-.07v-.33A.9.9,0,0,1,65.2,134.11Zm-.52,1a.27.27,0,1,1,.27-.27A.27.27,0,0,1,64.67,135.08Zm-.26-1.76a.27.27,0,1,1,.39.23h-.26A.27.27,0,0,1,64.41,133.31Zm.14.63v.33l-.16.07-.24-.24A.89.89,0,0,1,64.55,133.95Zm-.57.34.23.24a.57.57,0,0,0-.06.16h-.33A.86.86,0,0,1,64,134.29Zm0,1a.85.85,0,0,1-.16-.39h.33a.6.6,0,0,0,.06.16Zm.18.18.24-.24a.53.53,0,0,0,.16.07v.33A.83.83,0,0,1,64.15,135.51Zm.79.8a.27.27,0,1,1-.53,0,.26.26,0,0,1,.14-.23h.26A.26.26,0,0,1,64.94,136.31Zm-.14-.63v-.33a.52.52,0,0,0,.16-.07l.24.24A.84.84,0,0,1,64.8,135.68Zm.58-.34-.24-.24a.54.54,0,0,0,.07-.16h.33A.87.87,0,0,1,65.38,135.33Zm.79-.26a.26.26,0,0,1-.23-.14h0v0h0v0h0v0h0v0a.27.27,0,1,1,.23.39Z" transform="translate(-0.01)"/></g></g></svg>