<svg xmlns="http://www.w3.org/2000/svg" xmlns:xlink="http://www.w3.org/1999/xlink" viewBox="0 0 208.49 212.2"><defs><style>.cls-1{fill:#fff;}.cls-2{fill:url(#linear-gradient);}.cls-3{fill:url(#linear-gradient-2);}.cls-4{fill:#fdfa8a;}.cls-5{fill:#d9dee1;}.cls-6{fill:url(#linear-gradient-3);}.cls-7{fill:url(#linear-gradient-4);}.cls-8{fill:url(#linear-gradient-5);}.cls-9{fill:url(#linear-gradient-6);}.cls-10{fill:url(#linear-gradient-7);}.cls-11{fill:url(#linear-gradient-8);}.cls-12{fill:url(#linear-gradient-9);}</style><linearGradient id="linear-gradient" x1="105.71" y1="52.23" x2="105.71" y2="285.27" gradientUnits="userSpaceOnUse"><stop offset="0" stop-color="#ffdb00"/><stop offset="1" stop-color="#e8a300"/></linearGradient><linearGradient id="linear-gradient-2" x1="104.79" y1="67.68" x2="104.79" y2="223.16" gradientUnits="userSpaceOnUse"><stop offset="0" stop-color="#ffdb00"/><stop offset="1" stop-color="#f4d936"/></linearGradient><linearGradient id="linear-gradient-3" x1="-57.48" y1="161.68" x2="-57.48" y2="240.34" gradientTransform="translate(166.48 -106.92) rotate(1.39)" gradientUnits="userSpaceOnUse"><stop offset="0" stop-color="#fff"/><stop offset="1" stop-color="#c7c7c7"/></linearGradient><linearGradient id="linear-gradient-4" x1="-54.13" y1="177.5" x2="-53.12" y2="233.92" xlink:href="#linear-gradient-3"/><linearGradient id="linear-gradient-5" x1="103.05" y1="100.8" x2="103.05" y2="131.94" gradientUnits="userSpaceOnUse"><stop offset="0" stop-color="#dfdfdf"/><stop offset="1" stop-color="#a8a8a8"/></linearGradient><linearGradient id="linear-gradient-6" x1="-44.73" y1="-3046.68" x2="-44.73" y2="-2995.96" gradientTransform="translate(-1935.37 2323.39) rotate(45)" gradientUnits="userSpaceOnUse"><stop offset="0" stop-color="#84d9ff"/><stop offset="1" stop-color="#2999f5"/></linearGradient><linearGradient id="linear-gradient-7" x1="186.04" y1="-2455.11" x2="186.04" y2="-2433.92" gradientTransform="matrix(0.81, 0.59, -0.59, 0.81, -1423.21, 2004.01)" gradientUnits="userSpaceOnUse"><stop offset="0" stop-color="#8ccefd"/><stop offset="1" stop-color="#92d3ff"/></linearGradient><linearGradient id="linear-gradient-8" x1="-134.56" y1="-2956.84" x2="-134.56" y2="-2906.12" xlink:href="#linear-gradient-6"/><linearGradient id="linear-gradient-9" x1="83.6" y1="-2379.98" x2="83.6" y2="-2358.79" xlink:href="#linear-gradient-7"/></defs><title>Ресурс 40weather2</title><g id="Слой_2" data-name="Слой 2"><g id="icons"><path class="cls-1" d="M208.31,82.9c-1.33-16.1-7.56-29.78-18-39.57-9.46-8.85-21.82-14-35.92-15.06A55.44,55.44,0,0,0,139,11.74,63.49,63.49,0,0,0,104.39,0L103,0A57.3,57.3,0,0,0,71.81,9.05a47.91,47.91,0,0,0-11,9.89h-.23A35.19,35.19,0,0,0,29.33,38a33.18,33.18,0,0,0-2.58,6.94,45,45,0,0,0-7.84,5.18,52.87,52.87,0,0,0-15.22,21A49.18,49.18,0,0,0,.54,96.84a43.58,43.58,0,0,0,14,25.83A57.5,57.5,0,0,0,24,129.54a41.23,41.23,0,0,0-5.15,3.25C10,139.42,4.69,148.61,4,158.68a32.07,32.07,0,0,0,9.27,25,34.73,34.73,0,0,0,24.1,9.86h0A33,33,0,0,0,64.49,179.2a22,22,0,0,0,15.72,6.19h3.62l-.12.27c-2.81,6.34-2.44,13,1,18.32a18.5,18.5,0,0,0,15.66,8.22h0a23.34,23.34,0,0,0,17.2-8c4.25-4.83,12.77-14.73,20.14-23.42a31.69,31.69,0,0,0,2.56,2.91,34.72,34.72,0,0,0,24.09,9.86h0a33,33,0,0,0,27.56-14.89c5.39-7.92,8.23-18.51,9.66-26,3-15.55,1.36-21.56-2-25.81a15.2,15.2,0,0,0-6-4.59c.59-.57,1.17-1.15,1.72-1.74C205,110.29,209.49,97.28,208.31,82.9Z"/><path class="cls-2" d="M129.84,149.13H104.45c2.88-6.34,5.49-12.08,6.31-13.88,4.2-9.17-3.16-11.65-6.11-11.65H95.52A14.48,14.48,0,0,0,81.78,134c-2,6.12-5.6,17-8,25.18-2.11,7.26,1.1,11.23,6.4,11.23h26.66l-9.45,21.35c-2.74,6.18,4.78,7.24,8.9,2.56,6.73-7.66,22.76-26.39,29.59-34.71C141.79,152.41,135.52,149.13,129.84,149.13Z"/><path class="cls-3" d="M136.42,151a11.39,11.39,0,0,0-6.58-1.83H104.45c2.88-6.34,5.49-12.08,6.31-13.88,4.2-9.17-3.16-11.65-6.11-11.65H95.52A14.48,14.48,0,0,0,81.78,134c-2,6.12-5.6,17-8,25.18a14.49,14.49,0,0,0-.64,4.57C84,166.7,128.14,159.25,136.42,151Z"/><path class="cls-4" d="M97.94,125.48c-12.84,0-12.51,7.31-12.51,7.31s2.11-4.39,12.51-4.39,12.35,4.06,12.35,4.06S110.78,125.48,97.94,125.48Z"/><path class="cls-5" d="M100.88,130.94c-36.4-.88-63.49-7.76-76.29-19.38a28.74,28.74,0,0,1-9.23-17,34.18,34.18,0,0,1,2.25-17.86,37.62,37.62,0,0,1,10.8-14.95,27.13,27.13,0,0,1,12.67-6,17.38,17.38,0,0,1,1.65-11,20,20,0,0,1,18.39-10.8,21.09,21.09,0,0,1,7.18,1.46A30.92,30.92,0,0,1,80,21.59,42.18,42.18,0,0,1,104,15a48.12,48.12,0,0,1,26.25,8.91,38.23,38.23,0,0,1,14.49,19.29c1.92-.13,3.81-.17,5.65-.13,11.85.29,22.09,4.16,29.62,11.2,7.7,7.2,12.31,17.52,13.32,29.84.84,10.16-2.16,18.94-8.9,26.09-18.26,19.35-60.2,21.29-83.57,20.73Z"/><path class="cls-6" d="M103.87,21.6c15.9.38,34,11.61,36.81,29.75,26.19-3.77,45.23,10,47.34,37,2.86,36.6-48.09,43.81-87.15,42.86S38.33,122.33,28,112.58C8.55,94.21,29,58.49,49.23,64.37,38.51,50.08,56.9,33.26,71.47,45.64,73.58,29.86,89,21.24,103.87,21.6Z"/><path class="cls-5" d="M107.86,119.79c-8.79-.21-37.13-2.49-50.33-17.64-8.06-9.26-6.88-20.24.7-28.72C64.75,66.13,72.61,66,78,66.16a30.58,30.58,0,0,1,8.44,1.38,15.54,15.54,0,0,1,3.14-7.35c3.95-5.15,11.1-8.41,18.65-8.49h1.52a31.82,31.82,0,0,1,17.13,5,21.58,21.58,0,0,1,8.77,12,38.41,38.41,0,0,1,4-.11c8.71.21,19.54,3.45,23.8,11.91s.3,23.33-12.12,32.52C141.06,120.59,107.86,119.79,107.86,119.79Z"/><path class="cls-7" d="M157.73,110.62c-8.18,15.06-24.84,18.91-40.28,18.81-16.31-.1-35.62-1-50-9.67-9.1-5.47-17.05-21.37-11.62-33.46,5.52-12.29,22.8-16.64,34.7-9.52-2.63-10.71,7.46-18.1,17.75-18.24,11.7-.15,22.49,5.2,24.21,17.73,8.76-1.7,22.53.62,26.91,9.68C163.46,94.46,162,102.75,157.73,110.62Z"/><path class="cls-8" d="M103.58,97.72c-34,0-75-2.4-75,7.53s28.72,24,74.6,24,74.25-13.34,74.25-21.22S129.85,97.72,103.58,97.72Z"/><path class="cls-5" d="M83.17,36c14.78-.49,24.41,7.44,23,19.72C103.67,47.19,96,44,83.91,43.32S64.53,49.06,62.58,54.94C62.2,43.55,72.48,36.36,83.17,36Z"/><path class="cls-9" d="M187.83,136.13c-1.3-1.65-23.16,1.32-33,8.67-11.44,8.57-10.86,21.37-4,28.27s20.84,8.63,28.64-2.86C186.71,159.64,189.13,137.78,187.83,136.13Z"/><path class="cls-10" d="M183.8,137.64c-.92-.8-8.7.82-11.69,1.88-9.11,3.23-12.27,7.92-10.07,10.36s9.34-2.23,14-5.57S184.8,138.52,183.8,137.64Z"/><path class="cls-11" d="M60.78,136.13c-1.3-1.65-23.16,1.32-33,8.67-11.44,8.57-10.86,21.37-4,28.27s20.84,8.63,28.64-2.86C59.67,159.64,62.09,137.78,60.78,136.13Z"/><path class="cls-12" d="M56.75,137.64c-.92-.8-8.7.82-11.69,1.88C36,142.75,32.79,147.44,35,149.88s9.34-2.23,14-5.57S57.76,138.52,56.75,137.64Z"/></g></g></svg>