<svg xmlns="http://www.w3.org/2000/svg" xmlns:xlink="http://www.w3.org/1999/xlink" viewBox="0 0 208.49 211.68"><defs><style>.cls-1{fill:#fff;}.cls-2{fill:#d9dee1;}.cls-3{fill:url(#linear-gradient);}.cls-4{fill:url(#linear-gradient-2);}.cls-5{fill:url(#linear-gradient-3);}.cls-6{fill:url(#linear-gradient-4);}.cls-7{fill:url(#linear-gradient-5);}</style><linearGradient id="linear-gradient" x1="-73.34" y1="198.84" x2="-73.34" y2="277.5" gradientTransform="translate(183.23 -143.69) rotate(1.39)" gradientUnits="userSpaceOnUse"><stop offset="0" stop-color="#fff"/><stop offset="1" stop-color="#c7c7c7"/></linearGradient><linearGradient id="linear-gradient-2" x1="-69.99" y1="214.66" x2="-68.98" y2="271.09" xlink:href="#linear-gradient"/><linearGradient id="linear-gradient-3" x1="103.06" y1="100.8" x2="103.06" y2="131.94" gradientUnits="userSpaceOnUse"><stop offset="0" stop-color="#dfdfdf"/><stop offset="1" stop-color="#a8a8a8"/></linearGradient><linearGradient id="linear-gradient-4" x1="-112.1" y1="-1710.97" x2="-112.1" y2="-1654.9" gradientTransform="translate(-1011.57 1440.35) rotate(45)" gradientUnits="userSpaceOnUse"><stop offset="0" stop-color="#84d9ff"/><stop offset="1" stop-color="#2999f5"/></linearGradient><linearGradient id="linear-gradient-5" x1="35.67" y1="-1369.36" x2="35.67" y2="-1345.94" gradientTransform="matrix(0.81, 0.59, -0.59, 0.81, -729.06, 1230.85)" gradientUnits="userSpaceOnUse"><stop offset="0" stop-color="#8ccefd"/><stop offset="1" stop-color="#92d3ff"/></linearGradient></defs><title>Ресурс 14weather2</title><g id="Слой_2" data-name="Слой 2"><g id="icons"><path class="cls-1" d="M195.36,120.51c9.65-10.23,14.13-23.23,12.94-37.61-1.33-16.1-7.56-29.78-18-39.57-9.46-8.85-21.82-14-35.92-15.06A55.41,55.41,0,0,0,139,11.74,63.47,63.47,0,0,0,104.39,0L103,0A57.33,57.33,0,0,0,71.81,9.05a47.92,47.92,0,0,0-11,9.89h-.23A35.19,35.19,0,0,0,29.33,38a33.13,33.13,0,0,0-2.58,6.94,44.85,44.85,0,0,0-7.84,5.17,52.85,52.85,0,0,0-15.23,21A49.15,49.15,0,0,0,.54,96.83a43.58,43.58,0,0,0,14,25.83c8.23,7.47,20.26,13.25,35.76,17.17a178.49,178.49,0,0,0,27.71,5,42,42,0,0,0-3.86,2.55c-9.41,7-15,16.8-15.78,27.46a33.89,33.89,0,0,0,9.79,26.41,36.78,36.78,0,0,0,25.52,10.44h0a34.94,34.94,0,0,0,29.16-15.77c5.8-8.54,8.88-20,10.43-28.15,2.27-11.85,2.09-18.46.54-22.85a162.8,162.8,0,0,0,18.16-3C171.24,137.78,185.85,130.59,195.36,120.51Z"/><path class="cls-2" d="M100.88,130.94c-36.4-.88-63.49-7.76-76.29-19.38a28.73,28.73,0,0,1-9.23-17,34.17,34.17,0,0,1,2.25-17.86,37.61,37.61,0,0,1,10.8-15,27.12,27.12,0,0,1,12.67-6,17.38,17.38,0,0,1,1.65-11,20,20,0,0,1,18.39-10.8,21.1,21.1,0,0,1,7.18,1.46A30.91,30.91,0,0,1,80,21.59,42.2,42.2,0,0,1,104,15a48.11,48.11,0,0,1,26.25,8.91,38.21,38.21,0,0,1,14.48,19.29c1.92-.13,3.81-.17,5.65-.13,11.85.29,22.09,4.16,29.62,11.2,7.7,7.2,12.31,17.52,13.32,29.84.84,10.16-2.16,18.94-8.9,26.09-18.26,19.35-60.2,21.29-83.57,20.73Z"/><path class="cls-3" d="M103.87,21.6c15.9.38,34,11.61,36.81,29.75,26.19-3.77,45.22,10,47.34,37,2.86,36.6-48.09,43.81-87.15,42.86S38.33,122.33,28,112.58C8.55,94.2,29,58.49,49.23,64.37,38.51,50.08,56.9,33.26,71.47,45.64,73.58,29.86,89,21.24,103.87,21.6Z"/><path class="cls-2" d="M107.86,119.79c-8.79-.21-37.13-2.49-50.33-17.64-8.06-9.26-6.88-20.24.69-28.72C64.75,66.12,72.61,66,78,66.16a30.63,30.63,0,0,1,8.44,1.38,15.54,15.54,0,0,1,3.14-7.34c4-5.15,11.1-8.41,18.65-8.49h1.51a31.8,31.8,0,0,1,17.13,5,21.58,21.58,0,0,1,8.77,12,38.4,38.4,0,0,1,4-.11c8.71.21,19.54,3.45,23.8,11.91s.3,23.33-12.11,32.52C141.06,120.59,107.86,119.79,107.86,119.79Z"/><path class="cls-4" d="M157.74,110.62c-8.18,15.06-24.84,18.91-40.28,18.81-16.31-.1-35.62-1-50-9.67-9.1-5.47-17.05-21.37-11.62-33.46,5.52-12.29,22.8-16.64,34.7-9.52-2.63-10.71,7.46-18.1,17.75-18.24,11.7-.15,22.49,5.2,24.21,17.74,8.77-1.7,22.53.62,26.91,9.68C163.46,94.46,162,102.75,157.74,110.62Z"/><path class="cls-5" d="M103.58,97.72c-34,0-75-2.39-75,7.53s28.72,24,74.6,24,74.25-13.35,74.25-21.22S129.85,97.72,103.58,97.72Z"/><path class="cls-2" d="M83.17,36c14.78-.49,24.41,7.44,23,19.72C103.67,47.19,96,44,83.91,43.32S64.53,49.06,62.58,54.94C62.2,43.55,72.48,36.36,83.17,36Z"/><path class="cls-6" d="M119.56,149.79C118.12,148,94,151.25,83.1,159.38c-12.65,9.47-12,23.62-4.38,31.25s23,9.54,31.67-3.16C118.33,175.79,121,151.62,119.56,149.79Z"/><path class="cls-7" d="M115.11,151.47c-1-.89-9.62.91-12.93,2.08C92.11,157.11,88.61,162.3,91,165s10.32-2.47,15.46-6.15S116.22,152.44,115.11,151.47Z"/></g></g></svg>