<svg xmlns="http://www.w3.org/2000/svg" xmlns:xlink="http://www.w3.org/1999/xlink" viewBox="0 0 217.19 220.06"><defs><style>.cls-1{fill:#fff;}.cls-2{fill:url(#linear-gradient);}.cls-3{fill:url(#linear-gradient-2);}.cls-4{fill:url(#linear-gradient-3);}.cls-5{fill:#d0ac87;}.cls-6{fill:url(#linear-gradient-4);}.cls-7{fill:url(#linear-gradient-5);}.cls-8{fill:url(#linear-gradient-6);}.cls-9{fill:url(#linear-gradient-7);}.cls-10{fill:url(#linear-gradient-8);}.cls-11{fill:url(#linear-gradient-9);}.cls-12{fill:url(#linear-gradient-10);}.cls-13{fill:url(#linear-gradient-11);}.cls-14{fill:#ffb2a5;}.cls-15{fill:#961404;}</style><linearGradient id="linear-gradient" x1="28.4" y1="43.96" x2="28.4" y2="276.36" gradientUnits="userSpaceOnUse"><stop offset="0" stop-color="#b47c40"/><stop offset="1" stop-color="#855e30"/></linearGradient><linearGradient id="linear-gradient-2" x1="36.87" y1="35.47" x2="36.87" y2="125" gradientUnits="userSpaceOnUse"><stop offset="0" stop-color="#7a4f27"/><stop offset="1" stop-color="#7a4f1d"/></linearGradient><linearGradient id="linear-gradient-3" x1="36.87" y1="-40.16" x2="36.87" y2="79.51" xlink:href="#linear-gradient-2"/><linearGradient id="linear-gradient-4" x1="297.81" y1="344.2" x2="298.13" y2="403.23" gradientTransform="matrix(1, -0.07, 0.07, 1, -190.94, -286.84)" gradientUnits="userSpaceOnUse"><stop offset="0" stop-color="#ff5b3f"/><stop offset="1" stop-color="#bf2200"/></linearGradient><linearGradient id="linear-gradient-5" x1="227.7" y1="360.66" x2="256.1" y2="369.59" gradientTransform="translate(380.59 -256.81) rotate(77.33)" gradientUnits="userSpaceOnUse"><stop offset="0" stop-color="#adadad"/><stop offset="1" stop-color="#5a5a5a"/></linearGradient><linearGradient id="linear-gradient-6" x1="352.23" y1="343.48" x2="352.23" y2="403.24" gradientTransform="matrix(1, -0.07, 0.07, 1, -190.94, -286.84)" gradientUnits="userSpaceOnUse"><stop offset="0" stop-color="#f0f0f0"/><stop offset="1" stop-color="#cacaca"/></linearGradient><linearGradient id="linear-gradient-7" x1="325.77" y1="343.48" x2="325.77" y2="403.24" xlink:href="#linear-gradient-6"/><linearGradient id="linear-gradient-8" x1="283.75" y1="343.49" x2="283.75" y2="403.24" xlink:href="#linear-gradient-6"/><linearGradient id="linear-gradient-9" x1="612.86" y1="1747.04" x2="666.99" y2="1747.04" gradientTransform="translate(-1177.03 -1360.41) rotate(-21.51)" gradientUnits="userSpaceOnUse"><stop offset="0" stop-color="#cacaca"/><stop offset="1" stop-color="#adadad"/></linearGradient><linearGradient id="linear-gradient-10" x1="-114.2" y1="-162.22" x2="-65.66" y2="-162.22" gradientTransform="translate(135.6 242.98) rotate(3.27)" gradientUnits="userSpaceOnUse"><stop offset="0" stop-color="#cacaca"/><stop offset="1" stop-color="#9f9f9f"/></linearGradient><linearGradient id="linear-gradient-11" x1="131.99" y1="128.55" x2="134.85" y2="208.54" gradientTransform="matrix(1, 0, 0, 1, 0, 0)" xlink:href="#linear-gradient-4"/></defs><title>Ресурс 28weather2</title><g id="Слой_2" data-name="Слой 2"><g id="icons"><path class="cls-1" d="M194.58,96l1.41-.68,1-.48,1.37-.72.83-.44c.75-.41,1.46-.82,2.12-1.22,13.72-8.24,19.1-24.69,14-42.93C210.5,32.12,196.83,14.54,180,14.54a23,23,0,0,0-5.1.57c-1,.23-2,.44-3,.62l-.48.09c-1,.19-2,.36-2.93.52-2.75.44-5.53.77-8.27,1-1,.08-2,.14-3,.18l-.42,0c-1.55.07-3.13.1-4.69.1s-3.36,0-5.06-.11a143.93,143.93,0,0,1-17.91-2l-.19,0c-2.88-.49-5.89-1.08-9-1.75l-.09,0c-1.46-.32-2.94-.66-4.41-1l-.63-.15q-2.14-.51-4.32-1.07C104.45,10,97.79,8.05,90.16,5.69a20.62,20.62,0,0,0-3.79-1.1,16.23,16.23,0,0,0-3.26-.33h-.5c-4,0-9.85,1.18-15.74,6.55a66.23,66.23,0,0,1-13.74,3.64A28.41,28.41,0,0,0,0,28.4V191.66a28.4,28.4,0,1,0,56.8,0V108.53a21.41,21.41,0,0,0,12.35,6.55,20.58,20.58,0,0,0,3,.22,20.84,20.84,0,0,0,2.23-.12c5.46.35,11.07.52,16.71.52h1.79l0,.24,9.23-.45c2.62-.1,5.26-.25,7.91-.43-19,15.73-37,44.06-42.64,58.14-5.8,14.56-4.87,25.62,2.76,32.85,10.85,10.28,40.78,12.43,64,12.43s53.14-2.16,64-12.43c7.64-7.24,8.57-18.29,2.77-32.85s-25.08-44.69-44.92-60L192.8,96.78Z"/><path class="cls-2" d="M28.4,15A13.4,13.4,0,0,0,15,28.4V191.66a13.4,13.4,0,1,0,26.8,0V28.4A13.4,13.4,0,0,0,28.4,15Z"/><path class="cls-3" d="M41.8,53.54V37.62l-9.86-3.11C31.94,39.06,37,49,41.8,53.54Z"/><path class="cls-4" d="M31.94,57.73c0,4.54,2.78,18.13,9.86,22.28V60.61Z"/><path class="cls-5" d="M28.33,16.84c-7.52,0-11.35,6-11.73,11C18,24,24,21.31,28.33,21.31S38.66,24,40.06,27.85C39.68,22.82,36.76,16.84,28.33,16.84Z"/><path class="cls-6" d="M83.44,19.31C120.54,31,149,36.42,178.25,29.74c14.72-3.36,36.11,37.32,15.3,49.82C176.17,90,125.68,103.78,73.68,100.1,55.15,98.78,75.68,16.88,83.44,19.31Z"/><ellipse class="cls-7" cx="77.4" cy="59.77" rx="40.91" ry="14.79" transform="translate(6.85 127.49) rotate(-81.51)"/><path class="cls-8" d="M178.25,29.74c-2.44.56-4.88,1-7.32,1.42h0c10.7.43,26.23,38.72,15.68,51.95h0a66.82,66.82,0,0,0,6.92-3.55C214.37,67.06,193,26.38,178.25,29.74Z"/><path class="cls-9" d="M161.47,32.28h0a124.39,124.39,0,0,1-15,.22c.34,0,.67,0,1,0,9.26,0,23.18,54.47,3.21,61.57l-1,.38c6.81-1.45,13.15-3.08,18.86-4.79C179.44,85.5,177,32.11,161.47,32.28Z"/><path class="cls-10" d="M126.5,30.3h0c-6.38-1.09-12.95-2.53-19.79-4.28h0c13.69,4.29,12.49,71.6-5.51,74.5h0c8.28-.31,16.37-1,24.13-1.95C141.4,96.11,146.32,34.59,126.5,30.3Z"/><path class="cls-11" d="M79.3,21.74l-3.47,1.58C65,28.25,49.9,31.41,37.29,29.65A4.79,4.79,0,1,0,36,39.13c13.93,1.94,32.57-2,43.83-7.11l3.43-1.56a4.89,4.89,0,0,0,1-.6,4.79,4.79,0,0,0-4.92-8.13Z"/><path class="cls-12" d="M76.25,89.68c-9.1-6.12-28.46-26.22-36.43-35a4.68,4.68,0,0,0-6.77.14c-1.83,1.91-1.51,4.7.14,6.77,7.46,9.35,28.13,29.56,37.71,36a4.88,4.88,0,0,0,1,.52,4.79,4.79,0,0,0,4.31-8.47Z"/><path class="cls-13" d="M80.51,195.15c-11.71-11.09,35.78-76.27,53.66-76.27s65.38,65.17,53.66,76.27S92.22,206.25,80.51,195.15Z"/><path class="cls-1" d="M128.45,168.75a3.92,3.92,0,0,0,1.67,3.1A6.22,6.22,0,0,0,133.9,173a7,7,0,0,0,4-1.11,3.82,3.82,0,0,0,1.92-3.16l1.61-22.55a7.2,7.2,0,0,0-1.74-5.76,8.46,8.46,0,0,0-11-.06,7.48,7.48,0,0,0-1.73,5.88Z"/><path class="cls-1" d="M139.18,180.15a7.18,7.18,0,0,0-5-1.92,7.1,7.1,0,0,0-5,1.87,6,6,0,0,0-2.09,4.58,5.91,5.91,0,0,0,2,4.52,7.18,7.18,0,0,0,5,1.92,7.3,7.3,0,0,0,5-1.87,6,6,0,0,0,2.09-4.58A5.84,5.84,0,0,0,139.18,180.15Z"/><path class="cls-14" d="M134.18,122.13c-5.17,0-15.54,8.46-19.53,13.72,5.42-3.35,15.28-10.37,19.53-10.37s14.1,7,19.53,10.37C149.72,130.59,139.35,122.13,134.18,122.13Z"/><path class="cls-15" d="M134.18,197c-13.18,0-39.63-.48-50-2.07,11.17,5.26,37,6.22,50,6.22s38.83-1,50-6.22C173.81,196.47,147.36,197,134.18,197Z"/></g></g></svg>