<svg xmlns="http://www.w3.org/2000/svg" xmlns:xlink="http://www.w3.org/1999/xlink" viewBox="0 0 236.57 247.92"><defs><style>.cls-1{fill:#fff;}.cls-2{fill:url(#linear-gradient);}.cls-3{fill:url(#linear-gradient-2);}.cls-4{fill:url(#linear-gradient-3);}.cls-5{fill:url(#linear-gradient-4);}.cls-6{fill:url(#linear-gradient-5);}.cls-7{fill:url(#linear-gradient-6);}.cls-8{fill:url(#linear-gradient-7);}.cls-9{fill:url(#linear-gradient-8);}.cls-10{fill:url(#linear-gradient-9);}.cls-11{fill:url(#linear-gradient-10);}.cls-12{fill:url(#linear-gradient-11);}.cls-13{fill:url(#linear-gradient-12);}.cls-14{fill:url(#linear-gradient-13);}.cls-15{fill:url(#linear-gradient-14);}.cls-16{fill:url(#linear-gradient-15);}.cls-17{fill:url(#linear-gradient-16);}.cls-18{fill:url(#linear-gradient-17);}.cls-19{fill:url(#linear-gradient-18);}.cls-20{fill:url(#linear-gradient-19);}.cls-21{fill:url(#linear-gradient-20);}.cls-22{fill:url(#linear-gradient-21);}.cls-23{fill:url(#linear-gradient-22);}.cls-24{fill:url(#linear-gradient-23);}.cls-25{fill:url(#linear-gradient-24);}.cls-26{fill:url(#linear-gradient-25);}.cls-27{fill:url(#linear-gradient-26);}.cls-28{fill:url(#linear-gradient-27);}.cls-29{fill:url(#linear-gradient-28);}.cls-30{fill:url(#linear-gradient-29);}.cls-31{fill:url(#linear-gradient-30);}.cls-32{fill:url(#linear-gradient-31);}.cls-33{fill:url(#linear-gradient-32);}.cls-34{fill:url(#linear-gradient-33);}.cls-35{fill:url(#linear-gradient-34);}.cls-36{fill:url(#linear-gradient-35);}.cls-37{fill:url(#linear-gradient-36);}.cls-38{fill:url(#linear-gradient-37);}.cls-39{fill:url(#linear-gradient-38);}.cls-40{fill:url(#linear-gradient-39);}.cls-41{fill:url(#linear-gradient-40);}.cls-42{fill:url(#linear-gradient-41);}.cls-43{fill:url(#linear-gradient-42);}.cls-44{fill:url(#linear-gradient-43);}.cls-45{fill:url(#linear-gradient-44);}.cls-46{fill:url(#linear-gradient-45);}.cls-47{fill:url(#linear-gradient-46);}.cls-48{fill:url(#linear-gradient-47);}.cls-49{fill:url(#linear-gradient-48);}.cls-50{fill:url(#linear-gradient-49);}.cls-51{fill:url(#linear-gradient-50);}.cls-52{fill:url(#linear-gradient-51);}.cls-53{fill:url(#linear-gradient-52);}.cls-54{fill:url(#linear-gradient-53);}.cls-55{fill:url(#linear-gradient-54);}.cls-56{fill:url(#linear-gradient-55);}.cls-57{fill:#999595;}.cls-58{fill:url(#linear-gradient-56);}.cls-59{fill:#eaeaea;}.cls-60{fill:#bde0fc;}</style><linearGradient id="linear-gradient" x1="176.52" y1="39.64" x2="176.52" y2="132.9" gradientUnits="userSpaceOnUse"><stop offset="0" stop-color="#84d9ff"/><stop offset="1" stop-color="#2999f5"/></linearGradient><linearGradient id="linear-gradient-2" x1="175.91" y1="39.64" x2="175.91" y2="132.9" xlink:href="#linear-gradient"/><linearGradient id="linear-gradient-3" x1="181.94" y1="39.64" x2="181.94" y2="132.9" xlink:href="#linear-gradient"/><linearGradient id="linear-gradient-4" x1="169.89" y1="39.64" x2="169.89" y2="132.9" xlink:href="#linear-gradient"/><linearGradient id="linear-gradient-5" x1="147.82" y1="39.64" x2="147.82" y2="132.9" xlink:href="#linear-gradient"/><linearGradient id="linear-gradient-6" x1="150.15" y1="39.64" x2="150.15" y2="132.9" xlink:href="#linear-gradient"/><linearGradient id="linear-gradient-7" x1="144.12" y1="39.64" x2="144.12" y2="132.9" xlink:href="#linear-gradient"/><linearGradient id="linear-gradient-8" x1="147.82" y1="39.64" x2="147.82" y2="132.9" xlink:href="#linear-gradient"/><linearGradient id="linear-gradient-9" x1="144.12" y1="39.64" x2="144.12" y2="132.9" xlink:href="#linear-gradient"/><linearGradient id="linear-gradient-10" x1="150.15" y1="39.64" x2="150.15" y2="132.9" xlink:href="#linear-gradient"/><linearGradient id="linear-gradient-11" x1="176.52" y1="39.64" x2="176.52" y2="132.9" xlink:href="#linear-gradient"/><linearGradient id="linear-gradient-12" x1="170.49" y1="39.64" x2="170.49" y2="132.9" xlink:href="#linear-gradient"/><linearGradient id="linear-gradient-13" x1="182.55" y1="39.64" x2="182.55" y2="132.9" xlink:href="#linear-gradient"/><linearGradient id="linear-gradient-14" x1="204.62" y1="39.64" x2="204.62" y2="132.9" xlink:href="#linear-gradient"/><linearGradient id="linear-gradient-15" x1="202.29" y1="39.64" x2="202.29" y2="132.9" xlink:href="#linear-gradient"/><linearGradient id="linear-gradient-16" x1="208.32" y1="39.64" x2="208.32" y2="132.9" xlink:href="#linear-gradient"/><linearGradient id="linear-gradient-17" x1="204.62" y1="39.64" x2="204.62" y2="132.9" xlink:href="#linear-gradient"/><linearGradient id="linear-gradient-18" x1="208.32" y1="39.64" x2="208.32" y2="132.9" xlink:href="#linear-gradient"/><linearGradient id="linear-gradient-19" x1="202.29" y1="39.64" x2="202.29" y2="132.9" xlink:href="#linear-gradient"/><linearGradient id="linear-gradient-20" x1="175.95" y1="33.19" x2="175.95" y2="125.5" gradientUnits="userSpaceOnUse"><stop offset="0" stop-color="#e7f8ff"/><stop offset="1" stop-color="#73cdfd"/></linearGradient><linearGradient id="linear-gradient-21" x1="150.14" y1="33.19" x2="150.14" y2="125.5" xlink:href="#linear-gradient-20"/><linearGradient id="linear-gradient-22" x1="202.2" y1="33.19" x2="202.2" y2="125.5" xlink:href="#linear-gradient-20"/><linearGradient id="linear-gradient-23" x1="164.75" y1="33.19" x2="164.75" y2="125.48" xlink:href="#linear-gradient-20"/><linearGradient id="linear-gradient-24" x1="136.91" y1="33.18" x2="136.91" y2="125.51" xlink:href="#linear-gradient-20"/><linearGradient id="linear-gradient-25" x1="139.03" y1="33.19" x2="139.03" y2="125.5" xlink:href="#linear-gradient-20"/><linearGradient id="linear-gradient-26" x1="137.87" y1="33.19" x2="137.87" y2="125.49" xlink:href="#linear-gradient-20"/><linearGradient id="linear-gradient-27" x1="166" y1="33.19" x2="166" y2="125.5" xlink:href="#linear-gradient-20"/><linearGradient id="linear-gradient-28" x1="210.39" y1="33.18" x2="210.39" y2="125.5" xlink:href="#linear-gradient-20"/><linearGradient id="linear-gradient-29" x1="137.39" y1="33.19" x2="137.39" y2="125.5" xlink:href="#linear-gradient-20"/><linearGradient id="linear-gradient-30" x1="215.48" y1="33.18" x2="215.48" y2="125.51" xlink:href="#linear-gradient-20"/><linearGradient id="linear-gradient-31" x1="214.66" y1="33.19" x2="214.66" y2="125.49" xlink:href="#linear-gradient-20"/><linearGradient id="linear-gradient-32" x1="186.32" y1="33.19" x2="186.32" y2="125.49" xlink:href="#linear-gradient-20"/><linearGradient id="linear-gradient-33" x1="165.07" y1="33.19" x2="165.07" y2="125.5" xlink:href="#linear-gradient-20"/><linearGradient id="linear-gradient-34" x1="182.42" y1="33.19" x2="182.42" y2="125.5" xlink:href="#linear-gradient-20"/><linearGradient id="linear-gradient-35" x1="-4680.54" y1="35.24" x2="-4680.54" y2="131.07" gradientTransform="matrix(-1, 0, 0, 1, -4503.83, 0)" gradientUnits="userSpaceOnUse"><stop offset="0" stop-color="#43acf8"/><stop offset="1" stop-color="#0c73cf"/></linearGradient><linearGradient id="linear-gradient-36" x1="-4706.35" y1="35.22" x2="-4706.35" y2="131.07" xlink:href="#linear-gradient-35"/><linearGradient id="linear-gradient-37" x1="-4654.07" y1="35.26" x2="-4654.07" y2="131.11" xlink:href="#linear-gradient-35"/><linearGradient id="linear-gradient-38" x1="-4691.74" y1="35.22" x2="-4691.74" y2="131.07" xlink:href="#linear-gradient-35"/><linearGradient id="linear-gradient-39" x1="-4719.58" y1="35.22" x2="-4719.58" y2="131.07" xlink:href="#linear-gradient-35"/><linearGradient id="linear-gradient-40" x1="-4717.73" y1="34.99" x2="-4717.73" y2="130.85" xlink:href="#linear-gradient-35"/><linearGradient id="linear-gradient-41" x1="-4718.57" y1="34.65" x2="-4718.57" y2="130.49" xlink:href="#linear-gradient-35"/><linearGradient id="linear-gradient-42" x1="-4690.49" y1="35.22" x2="-4690.49" y2="131.07" xlink:href="#linear-gradient-35"/><linearGradient id="linear-gradient-43" x1="-4646.15" y1="35.04" x2="-4646.15" y2="130.9" xlink:href="#linear-gradient-35"/><linearGradient id="linear-gradient-44" x1="-4719.21" y1="36.95" x2="-4719.21" y2="126.53" xlink:href="#linear-gradient-35"/><linearGradient id="linear-gradient-45" x1="-4640.87" y1="35.35" x2="-4640.87" y2="131.2" xlink:href="#linear-gradient-35"/><linearGradient id="linear-gradient-46" x1="-4642.05" y1="34.52" x2="-4642.05" y2="130.36" xlink:href="#linear-gradient-35"/><linearGradient id="linear-gradient-47" x1="-4670.17" y1="35.24" x2="-4670.17" y2="131.07" xlink:href="#linear-gradient-35"/><linearGradient id="linear-gradient-48" x1="-4691.4" y1="32.6" x2="-4691.4" y2="132.14" xlink:href="#linear-gradient-35"/><linearGradient id="linear-gradient-49" x1="-4674.13" y1="35.59" x2="-4674.13" y2="130.61" xlink:href="#linear-gradient-35"/><linearGradient id="linear-gradient-50" x1="83.93" y1="111.68" x2="83.93" y2="227.35" gradientUnits="userSpaceOnUse"><stop offset="0" stop-color="#d4d5d5"/><stop offset="1" stop-color="#a8a8a8"/></linearGradient><linearGradient id="linear-gradient-51" x1="83.93" y1="114.55" x2="83.93" y2="225.65" xlink:href="#linear-gradient-50"/><linearGradient id="linear-gradient-52" x1="83.93" y1="36.06" x2="83.93" y2="210.53" gradientUnits="userSpaceOnUse"><stop offset="0" stop-color="#f5f5f5"/><stop offset="1" stop-color="#cfcfcf"/></linearGradient><linearGradient id="linear-gradient-53" x1="83.69" y1="34.89" x2="83.69" y2="210.82" gradientUnits="userSpaceOnUse"><stop offset="0" stop-color="#ededed"/><stop offset="1" stop-color="#cfcfcf"/></linearGradient><linearGradient id="linear-gradient-54" x1="83.69" y1="109.84" x2="83.69" y2="142.63" gradientUnits="userSpaceOnUse"><stop offset="0" stop-color="#94d4ff"/><stop offset="1" stop-color="#2e8ce8"/></linearGradient><linearGradient id="linear-gradient-55" x1="83.93" y1="12.13" x2="83.93" y2="130.83" xlink:href="#linear-gradient-54"/><linearGradient id="linear-gradient-56" x1="83.54" y1="149.33" x2="83.54" y2="172.3" xlink:href="#linear-gradient-54"/></defs><title>Ресурс 37weather2</title><g id="Слой_2" data-name="Слой 2"><g id="icons"><path class="cls-1" d="M232.88,83.63A20.13,20.13,0,0,0,234,70.26a20.32,20.32,0,0,0-17.45-30.2,20.37,20.37,0,0,0-12.14-5.75,20.38,20.38,0,0,0-11-7.64,20.35,20.35,0,0,0-34.91,0,20.38,20.38,0,0,0-11.08,7.72,20.39,20.39,0,0,0-11.48,5.67c-.5,0-1,0-1.5.08C133,30.7,127.9,21.47,120,14.16A53.86,53.86,0,0,0,83.22,0C50.47,0,33,26.49,33,45.62v67.07C12.24,126.86,0,148.88,0,172.61c0,41.53,37.65,75.31,83.93,75.31s83.93-33.78,83.93-75.31a68.82,68.82,0,0,0-6.24-28.6A20.36,20.36,0,0,0,194,140.6a20.4,20.4,0,0,0,11.08-7.72,20.38,20.38,0,0,0,11.48-5.67A20.32,20.32,0,0,0,234,97,20.38,20.38,0,0,0,232.88,83.63Z"/><path class="cls-2" d="M176.52,108.64a5.29,5.29,0,0,1-2.65-.71L156.8,98.07a5.29,5.29,0,0,1-2.65-4.58V73.77a5.29,5.29,0,0,1,2.65-4.59l17.07-9.86a5.3,5.3,0,0,1,5.29,0l17.07,9.86a5.3,5.3,0,0,1,2.65,4.59V93.49a5.3,5.3,0,0,1-2.65,4.58l-17.07,9.86a5.3,5.3,0,0,1-2.65.71ZM164.74,90.43l11.78,6.8,11.78-6.8V76.83L176.52,70l-11.78,6.8v13.6Z"/><path class="cls-3" d="M175.91,69.21a5.29,5.29,0,0,1-5.29-5.29V37.06a5.29,5.29,0,1,1,10.59,0V63.92a5.29,5.29,0,0,1-5.29,5.29Z"/><path class="cls-4" d="M175.92,58.47a5.3,5.3,0,0,1-2.65-9.88l12.05-7a5.29,5.29,0,1,1,5.29,9.17l-12.05,7a5.27,5.27,0,0,1-2.64.71Z"/><path class="cls-5" d="M175.91,58.47a5.28,5.28,0,0,1-2.64-.71l-12.05-7a5.29,5.29,0,1,1,5.29-9.17l12.05,7a5.3,5.3,0,0,1-2.65,9.88Z"/><path class="cls-6" d="M159.44,79.07a5.26,5.26,0,0,1-2.64-.71L133.54,64.93a5.29,5.29,0,0,1,5.29-9.17l23.26,13.43a5.29,5.29,0,0,1-2.65,9.88Z"/><path class="cls-7" d="M150.15,73.7a5.29,5.29,0,0,1-5.29-5.29V54.48a5.29,5.29,0,1,1,10.59,0V68.4a5.29,5.29,0,0,1-5.29,5.29Z"/><path class="cls-8" d="M138.09,80.66a5.29,5.29,0,0,1-2.65-9.88l12.05-7A5.29,5.29,0,0,1,152.79,73l-12.05,7a5.28,5.28,0,0,1-2.64.71Z"/><path class="cls-9" d="M136.19,112.21a5.3,5.3,0,0,1-2.65-9.88L156.8,88.9a5.29,5.29,0,0,1,5.29,9.17L138.83,111.5a5.27,5.27,0,0,1-2.64.71Z"/><path class="cls-10" d="M150.14,104.15a5.27,5.27,0,0,1-2.64-.71l-12.05-7a5.29,5.29,0,0,1,5.29-9.17l12.05,7a5.29,5.29,0,0,1-2.65,9.88Z"/><path class="cls-11" d="M150.15,118.07a5.29,5.29,0,0,1-5.29-5.29V98.86a5.29,5.29,0,1,1,10.59,0v13.92a5.29,5.29,0,0,1-5.29,5.29Z"/><path class="cls-12" d="M176.52,135.5a5.3,5.3,0,0,1-5.29-5.29V103.34a5.29,5.29,0,1,1,10.59,0V130.2a5.29,5.29,0,0,1-5.29,5.29Z"/><path class="cls-13" d="M164.47,126.34a5.3,5.3,0,0,1-2.65-9.88l12.05-7a5.29,5.29,0,0,1,5.29,9.17l-12.05,7a5.28,5.28,0,0,1-2.64.71Z"/><path class="cls-14" d="M188.57,126.34a5.27,5.27,0,0,1-2.64-.71l-12.05-7a5.29,5.29,0,1,1,5.29-9.17l12.05,7a5.3,5.3,0,0,1-2.65,9.88Z"/><path class="cls-15" d="M216.24,112.21a5.27,5.27,0,0,1-2.64-.71L190.34,98.07a5.29,5.29,0,0,1,5.3-9.17l23.26,13.43a5.29,5.29,0,0,1-2.65,9.88Z"/><path class="cls-16" d="M202.29,118.07a5.29,5.29,0,0,1-5.29-5.29V98.86a5.29,5.29,0,0,1,10.59,0v13.92a5.29,5.29,0,0,1-5.29,5.29Z"/><path class="cls-17" d="M202.29,104.15a5.29,5.29,0,0,1-2.65-9.88l12.05-7A5.29,5.29,0,1,1,217,96.48l-12.05,7a5.27,5.27,0,0,1-2.64.71Z"/><path class="cls-18" d="M193,79.07a5.29,5.29,0,0,1-2.65-9.88L213.6,55.76a5.29,5.29,0,1,1,5.29,9.17L195.63,78.36a5.27,5.27,0,0,1-2.64.71Z"/><path class="cls-19" d="M214.34,80.66a5.27,5.27,0,0,1-2.64-.71l-12.05-7a5.29,5.29,0,1,1,5.29-9.17l12.05,7a5.29,5.29,0,0,1-2.65,9.88Z"/><path class="cls-20" d="M202.29,73.7A5.29,5.29,0,0,1,197,68.4V54.48a5.29,5.29,0,1,1,10.59,0V68.4a5.29,5.29,0,0,1-5.29,5.29Z"/><path class="cls-21" d="M176,32.92c-2.08,0-4.43,2.12-4.06,4.5a4.28,4.28,0,0,1,8.11,0C180.39,35,178,32.92,176,32.92Z"/><path class="cls-22" d="M150.14,50.66c-2.08,0-4.43,2.12-4.06,4.5a4.28,4.28,0,0,1,8.11,0C154.58,52.78,152.22,50.66,150.14,50.66Z"/><path class="cls-23" d="M202.2,50.66c-2.08,0-4.43,2.12-4.06,4.5a4.28,4.28,0,0,1,8.11,0C206.64,52.78,204.28,50.66,202.2,50.66Z"/><path class="cls-24" d="M164,42.19c-2.08,0-4.43,2.12-4.06,4.5A3.91,3.91,0,0,1,164,43.78a24.93,24.93,0,0,1,5.69.84C167.6,43.34,166,42.19,164,42.19Z"/><path class="cls-25" d="M136.11,56.66c-2.08,0-4.43,2.12-4.06,4.5a3.9,3.9,0,0,1,4.06-2.91,25,25,0,0,1,5.69.84C139.76,57.81,138.19,56.66,136.11,56.66Z"/><path class="cls-26" d="M138.23,87.89c-2.08,0-4.43,2.12-4.06,4.5a3.9,3.9,0,0,1,4.06-2.91,25,25,0,0,1,5.69.84C141.88,89,140.31,87.89,138.23,87.89Z"/><path class="cls-27" d="M140.44,68.79l1.54.79s-3.75,2-5.12,2.91-3,2.65-2.78,4.15a4.23,4.23,0,0,1,1.54-5C136.86,70.82,140.44,68.79,140.44,68.79Z"/><path class="cls-28" d="M171.54,112.11l0,1.68s-6.57,3.62-7.94,4.5-3,2.65-2.78,4.15a4.23,4.23,0,0,1,1.54-5C163.56,116.61,171.54,112.11,171.54,112.11Z"/><path class="cls-29" d="M203.25,93.44l1.48.79s6.38-3.94,7.82-4.7,3.76-1.27,5-.38a4.23,4.23,0,0,0-5.1-1.11C211.09,88.71,203.25,93.44,203.25,93.44Z"/><path class="cls-30" d="M141,99.23l1.54.79s-5.87,3.62-7.23,4.5-3,2.65-2.78,4.15a4.23,4.23,0,0,1,1.54-5C135.32,102.85,141,99.23,141,99.23Z"/><path class="cls-31" d="M216.28,56.66c2.08,0,4.43,2.12,4.05,4.5a3.9,3.9,0,0,0-4.05-2.91,25,25,0,0,0-5.69.84C212.64,57.81,214.21,56.66,216.28,56.66Z"/><path class="cls-32" d="M212.09,68.7l-1.54.79s3.75,2,5.12,2.91,3,2.65,2.78,4.15a4.23,4.23,0,0,0-1.54-5C215.67,70.73,212.09,68.7,212.09,68.7Z"/><path class="cls-33" d="M181.39,45.38l0,1.74s3.49-2.45,4.89-3.28,3.69-1.46,5-.64a4.24,4.24,0,0,0-5.15-.84C184.8,43.09,181.39,45.38,181.39,45.38Z"/><path class="cls-34" d="M161.7,68.79,171,63.28c1.15-.79.62-2.12.13-3.4,0,1.1,0,1.9-.26,2.12l-10.61,6.38c-.29.2-1,0-1.83-.38C159.63,68.88,161,69.37,161.7,68.79Z"/><path class="cls-35" d="M178.29,99.14l10.83-6.53c1.15-.79.62-2.12.13-3.4,0,1.1,0,1.9-.26,2.12l-12.13,7.39c-.29.2-1,0-1.83-.37C176.22,99.23,177.56,99.72,178.29,99.14Z"/><path class="cls-36" d="M176.71,134.75c2.08,0,4.43-2.12,4.06-4.5a4.28,4.28,0,0,1-8.11,0C172.27,132.63,174.63,134.75,176.71,134.75Z"/><path class="cls-37" d="M202.52,117c2.08,0,4.43-2.12,4.06-4.5a4.28,4.28,0,0,1-8.11,0C198.08,114.89,200.44,117,202.52,117Z"/><path class="cls-38" d="M150.24,117.06c2.08,0,4.43-2.12,4.05-4.5a4.28,4.28,0,0,1-8.11,0C145.8,114.94,148.16,117.06,150.24,117.06Z"/><path class="cls-39" d="M188.71,125.48c2.08,0,4.43-2.12,4.06-4.5a3.9,3.9,0,0,1-4.06,2.91,25,25,0,0,1-5.69-.84C185.06,124.33,186.63,125.48,188.71,125.48Z"/><path class="cls-40" d="M216.55,111c2.08,0,4.43-2.12,4.06-4.5a3.9,3.9,0,0,1-4.06,2.91,25,25,0,0,1-5.69-.84C212.9,109.86,214.47,111,216.55,111Z"/><path class="cls-41" d="M214.7,79.55c2.07,0,4.43-2.12,4.05-4.5A3.9,3.9,0,0,1,214.7,78a25,25,0,0,1-5.69-.84C211.06,78.4,212.62,79.55,214.7,79.55Z"/><path class="cls-42" d="M212.18,98.39l-1.54-.79s3.75-2,5.12-2.91,3-2.65,2.78-4.15a4.23,4.23,0,0,1-1.54,5C215.75,96.37,212.18,98.39,212.18,98.39Z"/><path class="cls-43" d="M181.12,55.56l0-1.68s6.57-3.62,7.94-4.5,3-2.65,2.78-4.15a4.24,4.24,0,0,1-1.54,5C189.1,51.06,181.12,55.56,181.12,55.56Z"/><path class="cls-44" d="M149.46,74,148,73.26s-6.38,3.94-7.83,4.7-3.76,1.27-5,.38a4.23,4.23,0,0,0,5.1,1.11C141.61,78.79,149.46,74,149.46,74Z"/><path class="cls-45" d="M211.94,68l-1.54-.79s5.51-3,6.88-3.88,3-2.65,2.78-4.15a4.24,4.24,0,0,1-1.54,5C217.27,65,211.94,68,211.94,68Z"/><path class="cls-46" d="M136.25,111.14c-2.08,0-4.43-2.12-4.06-4.5a3.9,3.9,0,0,0,4.06,2.91,24.94,24.94,0,0,0,5.69-.84C139.89,110,138.32,111.14,136.25,111.14Z"/><path class="cls-47" d="M140.79,98.26l1.54-.79s-3.75-2-5.12-2.91-3-2.65-2.78-4.15a4.23,4.23,0,0,0,1.54,5C137.22,96.23,140.79,98.26,140.79,98.26Z"/><path class="cls-48" d="M171.27,122.29l0-1.74s-3.49,2.45-4.89,3.28-3.69,1.46-5,.64a4.23,4.23,0,0,0,5.15.84C167.86,124.58,171.27,122.29,171.27,122.29Z"/><path class="cls-49" d="M191.31,98.7l-10.07,5.87c-1.15.79-.62,2.12-.13,3.4,0-1.1,0-1.9.26-2.12l11.37-6.73c.29-.2,1,0,1.83.37C193.38,98.61,192,98.13,191.31,98.7Z"/><path class="cls-50" d="M174.5,68.61l-11,6.44c-1.15.79-.62,2.12-.13,3.4,0-1.1,0-1.9.27-2.12L175.93,69c.29-.2,1,0,1.83.38C176.57,68.53,175.22,68,174.5,68.61Z"/><path class="cls-51" d="M119.83,160.4A23.93,23.93,0,0,1,95.9,184.33H72A23.93,23.93,0,0,1,48,160.4V45.62C48,32.4,60.72,15,83.22,15s36.61,17.4,36.61,30.62Z"/><ellipse class="cls-52" cx="83.93" cy="172.61" rx="68.93" ry="60.31"/><path class="cls-53" d="M83.93,211.08c-23.49,0-42.6-17.26-42.6-38.47s19.11-38.47,42.6-38.47,42.6,17.26,42.6,38.47-19.11,38.47-42.6,38.47Z"/><path class="cls-54" d="M83.69,176.77a23,23,0,0,1-23-23V55a23,23,0,0,1,45.95,0V153.8a23,23,0,0,1-23,23Z"/><path class="cls-55" d="M83.69,110.07a13.4,13.4,0,0,0-13.4,13.4V153.8a13.4,13.4,0,0,0,26.8,0V123.47A13.4,13.4,0,0,0,83.69,110.07Z"/><ellipse class="cls-56" cx="83.93" cy="172.61" rx="33.03" ry="28.9"/><path class="cls-57" d="M84.17,223.51c-22.05,0-45.68-14.36-57.75-23.93,8.93,12.92,29.4,30.15,57.75,30.15s48.83-17.23,57.75-30.15C129.85,209.16,106.23,223.51,84.17,223.51Z"/><ellipse class="cls-58" cx="83.54" cy="159.54" rx="21.7" ry="12.13"/><path class="cls-59" d="M83.85,17.87c-12.12,0-29.58,10-30.55,22.25,3.64-9.33,19.15-17.71,30.55-17.71s26.91,8.38,30.55,17.71C113.44,27.92,96,17.87,83.85,17.87Z"/><path class="cls-60" d="M83.62,113.47c-4.65,0-11.35,4.14-11.73,9.17,1.4-3.85,7.35-6.54,11.73-6.54s10.33,2.69,11.73,6.54C95,117.62,88.27,113.47,83.62,113.47Z"/><path class="cls-57" d="M119.83,70.84H104.11a4.31,4.31,0,1,0,0,8.61h15.72Z"/><path class="cls-57" d="M119.83,90.14H104.11a4.31,4.31,0,1,0,0,8.61h15.72Z"/><path class="cls-57" d="M119.83,51.53H104.11a4.31,4.31,0,1,0,0,8.61h15.72Z"/><path class="cls-57" d="M119.83,109.44H104.11a4.31,4.31,0,1,0,0,8.62h15.72Z"/></g></g></svg>