<svg xmlns="http://www.w3.org/2000/svg" xmlns:xlink="http://www.w3.org/1999/xlink" viewBox="0 0 147.07 220.06"><defs><style>.cls-1{fill:#fff;}.cls-2{fill:url(#linear-gradient);}.cls-3{fill:url(#linear-gradient-2);}.cls-4{fill:url(#linear-gradient-3);}.cls-5{fill:url(#linear-gradient-4);}.cls-6{fill:#d0ac87;}.cls-7{fill:url(#linear-gradient-5);}.cls-8{fill:url(#linear-gradient-6);}.cls-9{fill:url(#linear-gradient-7);}.cls-10{fill:url(#linear-gradient-8);}.cls-11{fill:url(#linear-gradient-9);}.cls-12{fill:url(#linear-gradient-10);}.cls-13{fill:url(#linear-gradient-11);}</style><linearGradient id="linear-gradient" x1="28.4" y1="43.96" x2="28.4" y2="276.36" gradientUnits="userSpaceOnUse"><stop offset="0" stop-color="#b47c40"/><stop offset="1" stop-color="#855e30"/></linearGradient><linearGradient id="linear-gradient-2" x1="33.5" y1="79.5" x2="33.5" y2="123.08" gradientUnits="userSpaceOnUse"><stop offset="0" stop-color="#7a4f27"/><stop offset="1" stop-color="#7a4f1d"/></linearGradient><linearGradient id="linear-gradient-3" x1="35.19" y1="35.47" x2="35.19" y2="125" xlink:href="#linear-gradient-2"/><linearGradient id="linear-gradient-4" x1="35.91" y1="-68.63" x2="35.91" y2="84.52" xlink:href="#linear-gradient-2"/><linearGradient id="linear-gradient-5" x1="86.76" y1="79.74" x2="69.53" y2="182.16" gradientUnits="userSpaceOnUse"><stop offset="0" stop-color="#ff5b3f"/><stop offset="1" stop-color="#bf2200"/></linearGradient><linearGradient id="linear-gradient-6" x1="43.04" y1="70.9" x2="62.94" y2="93.15" gradientTransform="translate(66.81 -14.52) rotate(41.13)" gradientUnits="userSpaceOnUse"><stop offset="0" stop-color="#adadad"/><stop offset="1" stop-color="#5a5a5a"/></linearGradient><linearGradient id="linear-gradient-7" x1="109.85" y1="94.23" x2="106.02" y2="165.06" gradientUnits="userSpaceOnUse"><stop offset="0" stop-color="#f0f0f0"/><stop offset="1" stop-color="#cacaca"/></linearGradient><linearGradient id="linear-gradient-8" x1="100.09" y1="93.7" x2="96.26" y2="164.53" xlink:href="#linear-gradient-7"/><linearGradient id="linear-gradient-9" x1="77.2" y1="92.46" x2="73.37" y2="163.29" xlink:href="#linear-gradient-7"/><linearGradient id="linear-gradient-10" x1="35.2" y1="35.57" x2="80.19" y2="63.97" gradientUnits="userSpaceOnUse"><stop offset="0" stop-color="#cacaca"/><stop offset="1" stop-color="#adadad"/></linearGradient><linearGradient id="linear-gradient-11" x1="-7442.69" y1="-831.48" x2="-7438.23" y2="-791.6" gradientTransform="matrix(-0.97, -0.24, -0.24, 0.97, -7393.35, -883.71)" gradientUnits="userSpaceOnUse"><stop offset="0" stop-color="#aeaeae"/><stop offset="1" stop-color="#adadad"/></linearGradient></defs><title>Ресурс 29weather2</title><g id="Слой_2" data-name="Слой 2"><g id="icons"><path class="cls-1" d="M123.61,92.26l-1.32-2.66-.64-1.27c-.69-1.36-1.39-2.72-2.1-4.06l-.64-1.22C117,79.5,115,76,113.06,72.62l-4.89-8.49-.22.11c-3.27-5.16-6.67-10.14-10.15-14.89A20.45,20.45,0,0,0,94.87,45,22.13,22.13,0,0,0,79.35,37.7,209.63,209.63,0,0,0,56.66,25.51,28.4,28.4,0,0,0,0,28.4V191.66a28.4,28.4,0,1,0,56.8,0V166.25C57.93,168,59,169.7,60,171.43l.22.38c.51.88,1,1.77,1.49,2.67,1.31,2.43,2.54,5,3.65,7.54.38.89.76,1.78,1.11,2.67l.18.45c.37.94.73,1.88,1.08,2.85,4.09,11.36,16.42,18.14,33,18.14,5.5,0,24.44-1,37-13.94a32,32,0,0,0,9.33-23.68c0-.78-.06-1.59-.12-2.44l-.07-.88c0-.53-.09-1.07-.14-1.62l-.11-1c-.06-.52-.12-1-.19-1.61,0-.33-.25-1.83-.25-1.83l-8.12-54.69-4.33,10.74-2-5.52-.23.08c-1.65-4-3.39-7.94-5.21-11.86v-3Z"/><path class="cls-2" d="M28.4,15A13.4,13.4,0,0,0,15,28.4V191.66a13.4,13.4,0,1,0,26.8,0V28.4A13.4,13.4,0,0,0,28.4,15Z"/><path class="cls-3" d="M41.8,79.82s-16.28,25-16.6,41.83,11.5,19.95,16.6,34.06Z"/><path class="cls-4" d="M41.8,53.54V37.62L28.59,34.51C28.58,39.06,37,49,41.8,53.54Z"/><path class="cls-5" d="M31.35,56.65c-.49,7.09-2.68,17.73-.08,23.17,2,4.28,8.66,4,10.53,5.35V67.52C41.8,61.64,31.35,56.65,31.35,56.65Z"/><path class="cls-6" d="M28.33,16.84c-7.52,0-11.35,6-11.73,11C18,24,24,21.31,28.33,21.31S38.66,24,40.06,27.85C39.68,22.82,36.77,16.84,28.33,16.84Z"/><path class="cls-7" d="M21.95,108.68c29.81,25,49.75,46,59.92,74.22,5.11,14.21,50.9,10.29,50.2-14-.58-20.27-16.21-70.22-47.35-112C73.61,42,15.71,103.46,21.95,108.68Z"/><ellipse class="cls-8" cx="52.76" cy="81.77" rx="40.91" ry="14.79" transform="translate(-40.77 54.88) rotate(-41.13)"/><path class="cls-9" d="M131.32,161.18h0c-5.45,16-46.07,23.59-52.2,14.82l0,0c1,2.26,1.91,4.57,2.75,6.92,5.11,14.21,50.9,10.29,50.2-14A66.77,66.77,0,0,0,131.32,161.18Z"/><path class="cls-10" d="M127.09,142.34c-1.64-5.73-3.69-11.95-6.14-18.47.07.34.15.7.24,1.07,4.79,20.65-48.58,38.3-53.58,30.5-.18-.28-.37-.55-.58-.82a124.43,124.43,0,0,1,7.91,12.75l0,0C83.21,180.6,129.45,153.83,127.09,142.34Z"/><path class="cls-11" d="M111.27,101.19c-3.38-7-7.17-14.23-11.37-21.37h0c7.27,16.72-48.76,54-59.76,44.82,5.17,4.82,9.92,9.57,14.28,14.36l0,0C68.73,153.4,117.88,116.07,111.27,101.19Z"/><path class="cls-12" d="M33.82,31.77a4.76,4.76,0,0,1,1.1.34l3.43,1.54c11.31,5,30.23,13.48,41,22.5a4.79,4.79,0,0,1-6.15,7.34c-9.76-8.17-27.91-16.26-38.76-21.1L31,40.84a4.79,4.79,0,0,1,2.84-9.07Z"/><path class="cls-13" d="M21.26,101.71C24.54,91.24,25.08,73.05,26,60.76a4.69,4.69,0,0,1,5.37-4.11C34,57,35.46,59.38,35.46,62c0,12-1.5,31.57-5.07,42.55a4.52,4.52,0,0,1-6,3.13A4.78,4.78,0,0,1,21.26,101.71Z"/></g></g></svg>