<svg xmlns="http://www.w3.org/2000/svg" xmlns:xlink="http://www.w3.org/1999/xlink" viewBox="0 0 326.39 239.29"><defs><style>.cls-1{fill:#fff;}.cls-2{fill:url(#linear-gradient);}.cls-3{fill:#beeaff;}.cls-4{fill:#1d9ae9;}.cls-5{fill:url(#linear-gradient-2);}.cls-6{fill:#999595;}.cls-7{fill:#c1bfbf;}.cls-8{fill:#99d91d;}.cls-9{fill:url(#linear-gradient-3);}.cls-10{fill:url(#linear-gradient-4);}.cls-11{fill:url(#linear-gradient-5);}.cls-12{fill:url(#linear-gradient-6);}.cls-13{fill:#b5f547;}.cls-14{fill:#7ac200;}</style><linearGradient id="linear-gradient" x1="180.13" y1="7.75" x2="159.41" y2="69.91" gradientTransform="matrix(1, -0.04, 0.04, 1, -59.62, 45.18)" gradientUnits="userSpaceOnUse"><stop offset="0" stop-color="#84d9ff"/><stop offset="1" stop-color="#2999f5"/></linearGradient><linearGradient id="linear-gradient-2" x1="216.58" y1="6.8" x2="198.51" y2="83.78" gradientTransform="translate(-135.31 96.47) rotate(-5.47)" xlink:href="#linear-gradient"/><linearGradient id="linear-gradient-3" x1="-1782.27" y1="27.78" x2="-1782.27" y2="133.49" gradientTransform="matrix(0.57, 0.82, -0.82, 0.57, 1317.06, 1530.27)" gradientUnits="userSpaceOnUse"><stop offset="0" stop-color="#abe62e"/><stop offset="1" stop-color="#7ac200"/></linearGradient><linearGradient id="linear-gradient-4" x1="-1770.94" y1="66.75" x2="-1770.94" y2="134.35" gradientTransform="matrix(0.57, 0.82, -0.82, 0.57, 1317.06, 1530.27)" gradientUnits="userSpaceOnUse"><stop offset="0" stop-color="#ccff80"/><stop offset="1" stop-color="#b0f33b"/></linearGradient><linearGradient id="linear-gradient-5" x1="240.92" y1="75.43" x2="240.92" y2="134.88" gradientTransform="matrix(-0.57, -0.82, -0.82, 0.57, 438.27, 252.02)" xlink:href="#linear-gradient-4"/><linearGradient id="linear-gradient-6" x1="-1783.21" y1="65.16" x2="-1783.21" y2="134.31" xlink:href="#linear-gradient-4"/></defs><title>Ресурс 7weather2</title><g id="Слой_2" data-name="Слой 2"><g id="icons"><path class="cls-1" d="M302.44,99.56l.69-.67c6.48-6.32,10.59-10.37,13.22-14,1.5-2,6.06-8.23,3-16.45a15.75,15.75,0,0,0-15-10.13,25.75,25.75,0,0,0-7.16,1.16c2.08-8.65-1.46-14-5-17a16,16,0,0,0-10.43-3.81c-5,0-9.41,2-15.72,6.37a45.68,45.68,0,0,0,0-4.8c-.49-7.4-3.67-12.54-9.47-15.27a15.14,15.14,0,0,0-6.5-1.45c-8.56,0-13.09,5.3-22.93,19.33-2,2.82-4.15,6-6.42,9.42a40.1,40.1,0,0,0-8.59-17.43A36.9,36.9,0,0,0,192.62,23c-6.86-14.31-21-23-38.2-23a49.86,49.86,0,0,0-35.48,14.71,45.19,45.19,0,0,0-11.36,19.74C86.3,33.63,55.79,22.55,46.66,12L41.06,5.6,21,18.16,8.07,16.4,5.61,24.57c-7,23.28-7.47,48.86-1.23,70.19,5.88,20.13,17.44,35.8,32.88,44.79a38.53,38.53,0,0,0,8.16,21c9.57,12.41,26.82,20.43,44,20.43h0a46.61,46.61,0,0,0,17.53-3.21,39.76,39.76,0,0,0-3.92,15,44.71,44.71,0,0,0,8,28,43.24,43.24,0,0,0,21.56,16.61,37.11,37.11,0,0,0,33.25-4.73l11.83-8.14a25.85,25.85,0,0,0,1.3-41.65,25.74,25.74,0,0,0,1.47-2.35l25.57-17.59c44.59-.8,106.75-24.69,112.31-27.87a15.82,15.82,0,0,0,8.1-14.9C325.58,109.18,316.43,105.15,302.44,99.56Z"/><path class="cls-2" d="M35.34,21.89c16.83,39.65,47.72,67,84.54,69.45.46,36.69,72.05,33.89,62.68-3.27,31.29.64,33.56-52-1.12-51.34-6.39-34.43-61.37-26-60.58,11.55C101.6,53.71,51.44,40.4,35.34,21.89Z"/><path class="cls-3" d="M147.79,22.86C168.75,19.72,175,40,175,40s-9.92-13.08-25.25-11c-17.09,2.33-21,19.13-21,19.13S126.45,26.05,147.79,22.86Z"/><path class="cls-3" d="M120,55.28S68,56.49,49.43,38.13C69,61.53,120.34,62.05,120.34,62.05Z"/><path class="cls-3" d="M183.31,43.69s19.19-.84,19.59,21.19c-3.75-10.8-19-13.75-19-13.75Z"/><path class="cls-4" d="M151.07,107c19.7-.29,26.16-16.26,26.16-16.26s2,21.81-25.61,22c-28,.23-25.82-21.48-25.82-21.48S135.48,107.26,151.07,107Z"/><path class="cls-5" d="M20,28.9C7.54,70.14,18.18,118.25,53,130.38c-9.34,35.49,60.4,51.88,61.28,13.56,30,9,46.21-41.17,12.62-49.78,3-34.88-52.22-41.42-61.47-5C45.44,89.24,20.5,53.43,20,28.9Z"/><path class="cls-3" d="M99.44,69.91c21,2.56,21.66,23.76,21.66,23.76S115,78.41,99.7,76.34C82.61,74,74.38,89.18,74.38,89.18S78,67.3,99.44,69.91Z"/><path class="cls-3" d="M63,94.21S23.48,83.95,20.62,48.93c-.71,41.44,40.88,51.89,40.88,51.89Z"/><path class="cls-3" d="M127.37,99.17s18.72,4.3,13.23,25.65c-.74-11.41-14.68-18.33-14.68-18.33Z"/><path class="cls-4" d="M78.9,153.82c19.07,5,29.55-8.69,29.55-8.69s-3.91,21.55-30.56,14.41c-27-7.24-19.15-27.59-19.15-27.59S63.81,149.89,78.9,153.82Z"/><polygon class="cls-6" points="159.06 176.89 149.84 163.47 231.55 107.27 240.77 120.68 159.06 176.89 159.06 176.89"/><polygon class="cls-7" points="228.13 114.62 226.6 112.5 155.99 161.08 157.52 163.19 228.13 114.62"/><path class="cls-8" d="M123.31,212.19A29.65,29.65,0,0,1,118,193.66a24.79,24.79,0,0,1,11-19.13L151.61,159a10.85,10.85,0,0,1,12.3,17.88l-22.63,15.57a3.16,3.16,0,0,0-1.66,2.63,8.29,8.29,0,0,0,1.58,4.85,6.82,6.82,0,0,0,3,2.62c.31.1.36.12.78-.17l11.84-8.14a10.85,10.85,0,1,1,12.3,17.88l-11.83,8.14a22.12,22.12,0,0,1-20,2.86,28.18,28.18,0,0,1-14-10.89Z"/><path class="cls-9" d="M192.06,134.43l9.23,13.41c40.37.93,103.85-22.64,109.52-25.88s-32-13.38-32.19-17.78,27.85-27.31,26.68-30.45-36.22,14.37-38.34,13.2,18.67-30.3,15.47-33-30.3,22.49-33.25,21.56,4.38-35.29,1-36.89S193.64,119.79,192.06,134.43Z"/><path class="cls-10" d="M198.7,144.08c4.2-.58,58.18-26.35,74.32-36.06-15.67,4.6-75.71,34-75.71,34Z"/><path class="cls-11" d="M193,135.84c1.67-3.45,37.79-42.62,50.76-52.94-8.36,11.93-49.37,55-49.37,55Z"/><path class="cls-12" d="M262,88.64c-16.91,14-65.29,52.49-65.29,52.49l-2.26-3.29S239.11,100,262,88.64Z"/><path class="cls-13" d="M128.09,177.8a20.72,20.72,0,0,0-7,12.87c2.46-3.86,5.57-8.29,8.85-10.25s27-18.51,27-18.51a15.32,15.32,0,0,1,7-.15c-3.23-2.47-6.5-3.62-9.78-1.81S128.09,177.8,128.09,177.8Z"/><path class="cls-13" d="M146.6,203.35c2.95.49,5.24.33,7.21-1s7.37-5.41,8.68-6.22a9.7,9.7,0,0,1,5.9-1.31c-3.59-2.38-6.39-1.48-8.68-.08S149.06,202.37,146.6,203.35Z"/><path class="cls-14" d="M171.5,203.61c0,3.77-1.32,5.73-4,7.7s-12.37,8.35-15.15,9.67-12.48,2.59-17.54-.67c4.77.18,12.3.51,15.91-1.62s12.61-7.7,14.74-9.34S170.85,205.57,171.5,203.61Z"/></g></g></svg>