<svg xmlns="http://www.w3.org/2000/svg" xmlns:xlink="http://www.w3.org/1999/xlink" viewBox="0 0 248.87 264.98"><defs><style>.cls-1{fill:#fff;}.cls-2{fill:url(#linear-gradient);}.cls-3{fill:url(#linear-gradient-2);}.cls-4{fill:#999595;}.cls-5{fill:url(#linear-gradient-3);}.cls-6{fill:url(#linear-gradient-4);}.cls-7{fill:#99d91d;}.cls-8{fill:url(#linear-gradient-5);}.cls-9{fill:#7ac200;}.cls-10{fill:url(#linear-gradient-6);}.cls-11{fill:url(#linear-gradient-7);}.cls-12{fill:url(#linear-gradient-8);}.cls-13{fill:url(#linear-gradient-9);}.cls-14{fill:url(#linear-gradient-10);}.cls-15{fill:url(#linear-gradient-11);}.cls-16{fill:url(#linear-gradient-12);}.cls-17{fill:url(#linear-gradient-13);}.cls-18{fill:url(#linear-gradient-14);}.cls-19{fill:url(#linear-gradient-15);}.cls-20{fill:url(#linear-gradient-16);}</style><linearGradient id="linear-gradient" x1="213.17" y1="71.32" x2="213.17" y2="123.15" gradientTransform="translate(0 0)" gradientUnits="userSpaceOnUse"><stop offset="0" stop-color="#84d9ff"/><stop offset="1" stop-color="#2999f5"/></linearGradient><linearGradient id="linear-gradient-2" x1="95.06" y1="390.69" x2="95.06" y2="412.34" gradientTransform="translate(51.29 -296.54) rotate(-8.75)" gradientUnits="userSpaceOnUse"><stop offset="0" stop-color="#8ccefd"/><stop offset="1" stop-color="#92d3ff"/></linearGradient><linearGradient id="linear-gradient-3" x1="124.43" y1="67.86" x2="124.43" y2="129.72" gradientUnits="userSpaceOnUse"><stop offset="0" stop-color="#abe62e"/><stop offset="1" stop-color="#7ac200"/></linearGradient><linearGradient id="linear-gradient-4" x1="126.25" y1="70.4" x2="126.25" y2="85.2" gradientUnits="userSpaceOnUse"><stop offset="0" stop-color="#c6ff72"/><stop offset="1" stop-color="#9cdb20"/></linearGradient><linearGradient id="linear-gradient-5" x1="156.42" y1="204.56" x2="156.42" y2="214.64" gradientUnits="userSpaceOnUse"><stop offset="0" stop-color="#ccff80"/><stop offset="1" stop-color="#b0f33b"/></linearGradient><linearGradient id="linear-gradient-6" x1="108.22" y1="73.87" x2="108.22" y2="132.93" xlink:href="#linear-gradient-5"/><linearGradient id="linear-gradient-7" x1="78.4" y1="73.87" x2="78.4" y2="132.93" xlink:href="#linear-gradient-5"/><linearGradient id="linear-gradient-8" x1="-1179" y1="73.87" x2="-1179" y2="132.93" gradientTransform="matrix(-1, 0, 0, 1, -1038.34, 0)" xlink:href="#linear-gradient-5"/><linearGradient id="linear-gradient-9" x1="-1208.82" y1="73.87" x2="-1208.82" y2="132.93" gradientTransform="matrix(-1, 0, 0, 1, -1038.34, 0)" xlink:href="#linear-gradient-5"/><linearGradient id="linear-gradient-10" x1="168.03" y1="96.21" x2="169.09" y2="121.94" gradientUnits="userSpaceOnUse"><stop offset="0" stop-color="#5ca300"/><stop offset="1" stop-color="#80c605"/></linearGradient><linearGradient id="linear-gradient-11" x1="168.69" y1="50.08" x2="168.69" y2="101.91" xlink:href="#linear-gradient"/><linearGradient id="linear-gradient-12" x1="54.32" y1="362.94" x2="54.32" y2="384.59" xlink:href="#linear-gradient-2"/><linearGradient id="linear-gradient-13" x1="70.31" y1="16.34" x2="70.31" y2="68.17" xlink:href="#linear-gradient"/><linearGradient id="linear-gradient-14" x1="-37.78" y1="314.62" x2="-37.78" y2="336.27" xlink:href="#linear-gradient-2"/><linearGradient id="linear-gradient-15" x1="95.76" y1="105.89" x2="95.76" y2="157.72" xlink:href="#linear-gradient"/><linearGradient id="linear-gradient-16" x1="-26.24" y1="407.01" x2="-26.24" y2="428.66" xlink:href="#linear-gradient-2"/></defs><title>Ресурс 13weather2</title><g id="Слой_2" data-name="Слой 2"><g id="icons"><path class="cls-1" d="M244.7,125.07q-.89-2.38-1.94-4.76A33.78,33.78,0,0,0,246,97.8c-1.82-9.56-7.4-19.22-11.75-25.64-9-13.29-14.46-16.43-19.93-17.08l-.88-.1h-.84c-6.21,0-10.85,3.42-15.39,8.85a95.94,95.94,0,0,0-7.43-12.91c-9-13.29-14.46-16.44-19.94-17.08l-.88-.1h-.84c-6.76,0-11.88,3.63-18.88,13.38-1.73,2.4-3.36,4.92-4.87,7.48a157.77,157.77,0,0,0-40.94.14,35.53,35.53,0,0,0-.28-11.92c-1.82-9.56-7.4-19.22-11.76-25.64C82.32,3.89,76.87.74,71.4.1L70.52,0h-.84C62.22,0,56.18,4.85,48.13,17.28,43.95,23.74,38.68,33.45,37.31,43c-1.59,11.09,1.21,21.45,7.9,29.17.7.81,1.44,1.57,2.2,2.3C27.18,87,12,104.61,4.4,124.23A85,85,0,0,0,.61,137c-.53,2.47-1.93,9,2.8,14.88l4.67,5.61h7.07c4.5,0,10.72-1.84,14.84-10.58.11-.25.23-.46.34-.66a10,10,0,0,1,.73,1.6c2.79,7.74,8.8,12.36,16.08,12.36,6.56,0,12.18-3.79,15.44-10.41a7.4,7.4,0,0,1,1-1.53,33.7,33.7,0,0,0,7.08,13.46,32.45,32.45,0,0,0,24.51,11.25,33.24,33.24,0,0,0,7.25-.81v14.21a25.46,25.46,0,0,0-2.65,11.34v26.86a39,39,0,0,0,15,31.27A44,44,0,0,0,142,265a42.64,42.64,0,0,0,25.53-8.23,36.3,36.3,0,0,0,14.75-29.67V213a25.62,25.62,0,0,0-33-24.54q-.42-1.09-.94-2.15v-27a16.81,16.81,0,0,0,5.93,1.09c6.7,0,12.59-4,15.75-10.57a9.31,9.31,0,0,1,16.16-.12c3.35,6.65,9,10.46,15.53,10.46,5.64,0,12.79-3.22,16-12.27a10.17,10.17,0,0,1,.76-1.68,9.67,9.67,0,0,1,.68,1.45c2.51,6.69,8,10.68,14.58,10.69l7.31-.09,4.46-5.56c4.85-6.06,3.28-13.09,2.53-16.47A85.28,85.28,0,0,0,244.7,125.07Z"/><path class="cls-2" d="M212.59,70c-2.14-.25-15.78,17.69-17.56,30.1-2.08,14.46,7.6,23.28,17.56,23.28s21.29-8.82,18.63-22.76C228.77,87.78,214.72,70.24,212.59,70Z"/><path class="cls-3" d="M210.77,74c-1.25.09-5.7,6.88-7.09,9.81-4.25,8.91-3.15,14.59.21,14.76S209,90.2,210,84.44,212.13,73.9,210.77,74Z"/><polygon class="cls-4" points="133.34 201.62 117.43 201.62 117.43 104.67 133.34 104.67 133.34 201.62 133.34 201.62"/><path class="cls-5" d="M16.4,140.51c2.94-6.27,8.08-10.42,13.92-10.42,6.51,0,12.14,5.15,14.84,12.64,1.09,3,2.51,3.35,3.94.43a24.29,24.29,0,0,1,43-.19c1.49,3,3.3,3.22,5.05.34,4.74-7.8,15.16-13.22,27.25-13.22s22.32,5.32,27.12,13c1.83,2.93,3.62,3.13,5,.26a24.29,24.29,0,0,1,43.09-.4c1.49,3,2.92,2.94,4,0,2.67-7.59,8.35-12.84,14.91-12.84,6.41,0,12,5,14.72,12.31.82,2.19.92.38.19-2.9a69.83,69.83,0,0,0-2.73-9.19c-13.35-35.8-55.87-62-106.25-62-50.06,0-92.35,25.84-106,61.28a69.72,69.72,0,0,0-3.12,10.49C14.62,143.19,15.15,143.17,16.4,140.51Z"/><path class="cls-6" d="M122.06,70.07c-25.67,0-47.67,8.67-51.67,12.33s34.67,2.33,51.33,2.33,60.67,1.33,60.67-1.67S149.73,70.07,122.06,70.07Z"/><path class="cls-7" d="M142,250a29,29,0,0,1-17.9-6,24.24,24.24,0,0,1-9.3-19.48V197.69a10.61,10.61,0,0,1,21.22,0v26.86a3.09,3.09,0,0,0,1.2,2.8,8.1,8.1,0,0,0,4.78,1.41,6.66,6.66,0,0,0,3.76-1c.26-.19.29-.22.29-.72V213a10.61,10.61,0,1,1,21.22,0v14a21.62,21.62,0,0,1-8.76,17.68A27.57,27.57,0,0,1,142,250Z"/><path class="cls-8" d="M156.42,204.56c-5.52,0-8.34,5.48-8.61,10.08,1-3.52,5.4-6,8.61-6s7.58,2.47,8.61,6C164.76,210,162.62,204.56,156.42,204.56Z"/><path class="cls-9" d="M141,247.89c-13,0-19.64-6.63-20.28-12.21,2.41,4.26,12.72,7.25,20.28,7.25s17.87-3,20.28-7.25C160.65,241.26,155.6,247.89,141,247.89Z"/><path class="cls-10" d="M120.34,71.39c-6.75,8.49-22,40-23.81,62.95C93.34,109.94,108.26,81.3,120.34,71.39Z"/><path class="cls-11" d="M107.87,73c-15.25,6.93-53.26,26.73-58.95,61.39C51.06,97.56,87.23,79.11,107.87,73Z"/><path class="cls-12" d="M128.54,71.39c6.75,8.49,22,40,23.81,62.95C155.55,109.94,140.62,81.3,128.54,71.39Z"/><path class="cls-13" d="M141,73c15.25,6.93,53.26,26.73,58.95,61.39C197.83,97.56,161.65,79.11,141,73Z"/><path class="cls-14" d="M161.66,94.9c-8.18,0-12.51,7.45-8.53,13.67s11.41,15,20.42,14.45,14.21-5.77,10.9-14.45S172.84,94.9,161.66,94.9Z"/><path class="cls-15" d="M168.1,48.75c-2.14-.25-15.78,17.69-17.56,30.1-2.08,14.46,7.6,23.29,17.56,23.29s21.29-8.82,18.63-22.76C184.29,66.54,170.24,49,168.1,48.75Z"/><path class="cls-16" d="M166.28,52.76c-1.25.09-5.7,6.88-7.09,9.81-4.25,8.91-3.14,14.59.21,14.76s5.14-8.36,6.08-14.12S167.64,52.66,166.28,52.76Z"/><path class="cls-17" d="M69.72,15c-2.14-.25-15.78,17.69-17.56,30.1-2.08,14.46,7.6,23.29,17.56,23.29S91,59.56,88.35,45.63C85.91,32.8,71.86,15.25,69.72,15Z"/><path class="cls-18" d="M67.9,19c-1.25.09-5.7,6.88-7.09,9.81-4.25,8.91-3.14,14.59.21,14.76s5.14-8.36,6.08-14.12S69.26,18.92,67.9,19Z"/><path class="cls-19" d="M95.18,104.56c-2.14-.25-15.78,17.69-17.56,30.1-2.08,14.46,7.6,23.29,17.56,23.29s21.29-8.82,18.63-22.76C111.36,122.36,97.31,104.81,95.18,104.56Z"/><path class="cls-20" d="M93.36,108.57c-1.25.09-5.7,6.88-7.09,9.81-4.25,8.91-3.15,14.59.21,14.76s5.14-8.36,6.08-14.12S94.72,108.47,93.36,108.57Z"/></g></g></svg>