<svg xmlns="http://www.w3.org/2000/svg" xmlns:xlink="http://www.w3.org/1999/xlink" viewBox="0 0 242.48 247.92"><defs><style>.cls-1{fill:#fff;}.cls-2{fill:url(#linear-gradient);}.cls-3{fill:url(#linear-gradient-2);}.cls-4{fill:url(#linear-gradient-3);}.cls-5{fill:url(#linear-gradient-4);}.cls-6{fill:url(#linear-gradient-5);}.cls-7{fill:url(#linear-gradient-6);}.cls-8{fill:#999595;}.cls-9{fill:url(#linear-gradient-7);}.cls-10{fill:#eaeaea;}.cls-11{fill:#bde0fc;}.cls-12{fill:url(#linear-gradient-8);}.cls-13{fill:url(#linear-gradient-9);}.cls-14{fill:#0c73cf;}</style><linearGradient id="linear-gradient" x1="83.93" y1="111.68" x2="83.93" y2="227.35" gradientUnits="userSpaceOnUse"><stop offset="0" stop-color="#d4d5d5"/><stop offset="1" stop-color="#a8a8a8"/></linearGradient><linearGradient id="linear-gradient-2" x1="83.93" y1="114.55" x2="83.93" y2="225.65" xlink:href="#linear-gradient"/><linearGradient id="linear-gradient-3" x1="83.93" y1="36.06" x2="83.93" y2="210.53" gradientUnits="userSpaceOnUse"><stop offset="0" stop-color="#f5f5f5"/><stop offset="1" stop-color="#cfcfcf"/></linearGradient><linearGradient id="linear-gradient-4" x1="83.69" y1="34.89" x2="83.69" y2="210.82" gradientUnits="userSpaceOnUse"><stop offset="0" stop-color="#ededed"/><stop offset="1" stop-color="#cfcfcf"/></linearGradient><linearGradient id="linear-gradient-5" x1="83.69" y1="109.84" x2="83.69" y2="142.63" gradientUnits="userSpaceOnUse"><stop offset="0" stop-color="#94d4ff"/><stop offset="1" stop-color="#2e8ce8"/></linearGradient><linearGradient id="linear-gradient-6" x1="83.93" y1="12.13" x2="83.93" y2="130.83" xlink:href="#linear-gradient-5"/><linearGradient id="linear-gradient-7" x1="83.54" y1="149.33" x2="83.54" y2="172.3" xlink:href="#linear-gradient-5"/><linearGradient id="linear-gradient-8" x1="174.83" y1="47.52" x2="177.44" y2="120.51" gradientUnits="userSpaceOnUse"><stop offset="0" stop-color="#84d9ff"/><stop offset="1" stop-color="#2999f5"/></linearGradient><linearGradient id="linear-gradient-9" x1="176.83" y1="41.67" x2="176.83" y2="54.19" gradientUnits="userSpaceOnUse"><stop offset="0" stop-color="#e7f8ff"/><stop offset="1" stop-color="#73cdfd"/></linearGradient></defs><title>Ресурс 38weather2</title><g id="Слой_2" data-name="Слой 2"><g id="icons"><path class="cls-1" d="M83.93,247.92c46.28,0,83.93-33.78,83.93-75.31A70,70,0,0,0,153.18,130q10.48.94,23.65.94c31.14,0,51.09-3.94,59.28-11.71,7.4-7,8.35-17.58,2.84-31.42-4.42-11.08-14.18-26.38-24.88-39-14.14-16.65-26.67-25.09-37.24-25.09s-23.09,8.44-37.24,25.09c-1.62,1.9-3.21,3.88-4.77,5.88V45.62c0-11.27-5.4-22.74-14.81-31.46A53.85,53.85,0,0,0,83.22,0C50.47,0,33,26.49,33,45.62v67.07C12.24,126.86,0,148.88,0,172.61,0,214.13,37.65,247.92,83.93,247.92Z"/><path class="cls-2" d="M119.83,160.4A23.93,23.93,0,0,1,95.9,184.33H72A23.93,23.93,0,0,1,48,160.4V45.62C48,32.4,60.72,15,83.22,15s36.61,17.4,36.61,30.62Z"/><ellipse class="cls-3" cx="83.93" cy="172.61" rx="68.93" ry="60.31"/><path class="cls-4" d="M83.93,211.08c-23.49,0-42.6-17.26-42.6-38.47s19.11-38.47,42.6-38.47,42.6,17.26,42.6,38.47-19.11,38.47-42.6,38.47Z"/><path class="cls-5" d="M83.69,176.77a23,23,0,0,1-23-23V55a23,23,0,1,1,45.95,0V153.8a23,23,0,0,1-23,23Z"/><path class="cls-6" d="M83.69,110.07a13.4,13.4,0,0,0-13.4,13.4V153.8a13.4,13.4,0,0,0,26.8,0V123.47A13.4,13.4,0,0,0,83.69,110.07Z"/><ellipse class="cls-7" cx="83.93" cy="172.61" rx="33.03" ry="28.9"/><path class="cls-8" d="M84.18,223.51c-22.05,0-45.68-14.36-57.75-23.93,8.93,12.92,29.4,30.15,57.75,30.15s48.83-17.23,57.75-30.15C129.85,209.16,106.23,223.51,84.18,223.51Z"/><ellipse class="cls-9" cx="83.54" cy="159.54" rx="21.7" ry="12.13"/><path class="cls-10" d="M83.86,17.87c-12.12,0-29.58,10-30.55,22.25,3.64-9.33,19.15-17.71,30.55-17.71s26.91,8.38,30.55,17.71C113.44,27.92,96,17.87,83.86,17.87Z"/><path class="cls-11" d="M83.62,113.47c-4.65,0-11.35,4.14-11.73,9.17,1.4-3.85,7.35-6.54,11.73-6.54s10.33,2.69,11.73,6.54C95,117.62,88.27,113.47,83.62,113.47Z"/><path class="cls-8" d="M119.83,70.84H104.11a4.31,4.31,0,0,0,0,8.61h15.72Z"/><path class="cls-8" d="M119.83,90.14H104.11a4.31,4.31,0,0,0,0,8.61h15.72Z"/><path class="cls-8" d="M119.83,51.53H104.11a4.31,4.31,0,0,0,0,8.61h15.72Z"/><path class="cls-8" d="M119.83,109.44H104.11a4.31,4.31,0,0,0,0,8.62h15.72Z"/><path class="cls-12" d="M127.86,108.3c-10.69-10.13,32.65-69.6,49-69.6s59.65,59.47,49,69.6S138.55,118.43,127.86,108.3Z"/><path class="cls-1" d="M171.6,84.21A3.58,3.58,0,0,0,173.13,87a5.68,5.68,0,0,0,3.45,1.07,6.38,6.38,0,0,0,3.62-1,3.48,3.48,0,0,0,1.75-2.88l1.47-20.57a6.57,6.57,0,0,0-1.58-5.25,7.73,7.73,0,0,0-10-.06,6.83,6.83,0,0,0-1.58,5.37Z"/><path class="cls-1" d="M181.4,94.61a6.55,6.55,0,0,0-4.59-1.75,6.47,6.47,0,0,0-4.54,1.7,5.48,5.48,0,0,0-1.91,4.18,5.4,5.4,0,0,0,1.86,4.13,6.55,6.55,0,0,0,4.59,1.75,6.67,6.67,0,0,0,4.59-1.7,5.49,5.49,0,0,0,1.91-4.18A5.34,5.34,0,0,0,181.4,94.61Z"/><path class="cls-13" d="M176.83,41.67c-4.72,0-14.18,7.72-17.82,12.52,5-3.06,13.95-9.46,17.82-9.46s12.87,6.41,17.82,9.46C191,49.38,181.55,41.67,176.83,41.67Z"/><path class="cls-14" d="M176.83,109.94c-12,0-36.16-.44-45.62-1.89,10.19,4.8,33.77,5.68,45.62,5.68s35.43-.87,45.62-5.68C213,109.51,188.86,109.94,176.83,109.94Z"/></g></g></svg>