<svg xmlns="http://www.w3.org/2000/svg" xmlns:xlink="http://www.w3.org/1999/xlink" viewBox="0 0 74.73 74.73"><defs><style>.cls-1{fill:url(#radial-gradient);}.cls-2{mask:url(#mask);}.cls-3{fill:#0e3b5e;}.cls-4{fill:url(#linear-gradient);}.cls-5{fill:url(#linear-gradient-2);}.cls-6{fill:url(#radial-gradient-2);}.cls-7{fill:url(#linear-gradient-3);}.cls-8{fill:#b1151b;}.cls-9{fill:url(#linear-gradient-4);}.cls-10{fill:#f4777c;}.cls-11{fill:#fff;}.cls-12{fill:url(#linear-gradient-5);}.cls-13{fill:url(#linear-gradient-6);}</style><radialGradient id="radial-gradient" cx="37.37" cy="37.37" r="37.37" gradientUnits="userSpaceOnUse"><stop offset="0" stop-color="#fff"/><stop offset="0.16" stop-color="#ddd"/><stop offset="0.51" stop-color="#858585"/><stop offset="1"/></radialGradient><mask id="mask" x="0" y="0" width="74.73" height="74.73" maskUnits="userSpaceOnUse"><circle class="cls-1" cx="37.37" cy="37.37" r="37.37"/></mask><linearGradient id="linear-gradient" x1="30.86" y1="37.38" x2="43.87" y2="37.38" gradientUnits="userSpaceOnUse"><stop offset="0" stop-color="#cceffc"/><stop offset="0.38" stop-color="#99def8"/><stop offset="0.56" stop-color="#cceffc"/><stop offset="0.79" stop-color="#cceffc"/><stop offset="1" stop-color="#66cef5"/></linearGradient><linearGradient id="linear-gradient-2" x1="37.37" y1="64.35" x2="37.37" y2="10.41" gradientUnits="userSpaceOnUse"><stop offset="0" stop-color="#fff"/><stop offset="1" stop-color="#e6e7e8"/></linearGradient><radialGradient id="radial-gradient-2" cx="16.37" cy="29.29" r="40.35" gradientUnits="userSpaceOnUse"><stop offset="0" stop-color="#ec1c24"/><stop offset="0.53" stop-color="#ea1c24"/><stop offset="0.71" stop-color="#e31c26"/><stop offset="0.85" stop-color="#d81d28"/><stop offset="0.96" stop-color="#c71e2b"/><stop offset="1" stop-color="#be1e2d"/></radialGradient><linearGradient id="linear-gradient-3" x1="36.25" y1="19.1" x2="38.48" y2="21.32" gradientUnits="userSpaceOnUse"><stop offset="0" stop-color="#ec1c24"/><stop offset="0.63" stop-color="#d01d29"/><stop offset="1" stop-color="#be1e2d"/></linearGradient><linearGradient id="linear-gradient-4" x1="34.26" y1="63.46" x2="34.26" y2="19.71" gradientUnits="userSpaceOnUse"><stop offset="0" stop-color="#ec1c24"/><stop offset="0.03" stop-color="#ed252d"/><stop offset="0.17" stop-color="#f04c52"/><stop offset="0.32" stop-color="#f26c71"/><stop offset="0.47" stop-color="#f48589"/><stop offset="0.63" stop-color="#f6969a"/><stop offset="0.8" stop-color="#f7a1a4"/><stop offset="1" stop-color="#f7a4a7"/></linearGradient><linearGradient id="linear-gradient-5" x1="40.25" y1="58.93" x2="40.25" y2="54.17" gradientUnits="userSpaceOnUse"><stop offset="0" stop-color="#ec1c24"/><stop offset="0.5" stop-color="#f04b52"/><stop offset="1" stop-color="#f4777c"/></linearGradient><linearGradient id="linear-gradient-6" x1="44.92" y1="51.77" x2="44.92" y2="13.14" xlink:href="#linear-gradient-5"/></defs><title>Ресурс 29weather</title><g id="Слой_2" data-name="Слой 2"><g id="Layer_2" data-name="Layer 2"><g class="cls-2"><circle class="cls-3" cx="37.37" cy="37.37" r="37.37"/></g><path class="cls-4" d="M40.13,52.32V12.79a2.76,2.76,0,1,0-5.52,0V52.32a6.51,6.51,0,1,0,5.52,0Z"/><path class="cls-5" d="M37.37,64.35a6.13,6.13,0,0,1-2.6-11.69l.22-.1V12.79a2.38,2.38,0,0,1,4.77,0V52.56l.22.1a6.13,6.13,0,0,1-2.6,11.69Z"/><path class="cls-6" d="M37.37,64.16a5.94,5.94,0,0,1-2.52-11.33l.33-.15V20.32c0-.83,4.39-.83,4.39,0V52.68l.32.15a5.94,5.94,0,0,1-2.52,11.33Z"/><path class="cls-7" d="M39.55,20.21c-.22-.68-4.15-.68-4.37,0C35.41,20.89,39.33,20.89,39.55,20.21Z"/><path class="cls-8" d="M39.7,52.84l-.32-.15V20.4a1.57,1.57,0,0,1-.37.15V52.81l.33.15a6,6,0,0,1,.19,10.71,5.94,5.94,0,0,0,.17-10.84Z"/><path class="cls-9" d="M35.37,20V53.18l-.33.14a5.34,5.34,0,0,0,.5,10.13c-1.25-1.06-2.6-2.59-2.6-4.28a5.82,5.82,0,0,1,3.61-5.26l.34-.15V19.71A3.59,3.59,0,0,0,35.37,20Z"/><path class="cls-10" d="M36.89,20.71v-1a7.09,7.09,0,0,0-.72.07,2.29,2.29,0,0,0-.81.26v.36A3.81,3.81,0,0,0,36.89,20.71Z"/><path class="cls-11" d="M36.89,19.71V11.15c-1.06,0-1.53.29-1.53.84V20A3.59,3.59,0,0,1,36.89,19.71Z"/><path class="cls-12" d="M38.15,54.65a4.86,4.86,0,0,1,2.26-.48,5.72,5.72,0,0,1,1.94,4.26,2.62,2.62,0,0,1-2.85.14A5.76,5.76,0,0,0,38.15,54.65Z"/><path class="cls-11" d="M39.37,20V12.79c0-1.32-.38-1.25-.38,0v7.09A1.47,1.47,0,0,1,39.37,20Z"/><path class="cls-13" d="M47.77,51.66h-3.9V50.9h3.9ZM46.5,49H43.87v.75H46.5Zm0-1.88H43.87v.75H46.5Zm0-1.88H43.87V46H46.5Zm0-1.88H43.87v.75H46.5Zm1.27-1.88h-3.9v.75h3.9ZM46.5,39.61H43.87v.75H46.5Zm0-1.88H43.87v.75H46.5Zm0-1.88H43.87v.75H46.5Zm0-1.88H43.87v.75H46.5Zm1.27-1.88h-3.9v.75h3.9ZM46.5,30.2H43.87V31H46.5Zm0-1.88H43.87v.75H46.5Zm0-1.88H43.87v.75H46.5Zm0-1.88H43.87v.75H46.5Zm1.27-1.88h-3.9v.75h3.9ZM46.5,20.78H43.87v.75H46.5Zm0-1.88H43.87v.75H46.5Zm0-1.88H43.87v.75H46.5Zm0-1.88H43.87v.75H46.5Zm1.27-1.88h-3.9V14h3.9Zm-5.71-.11V51.77h.75V13.14Z"/></g></g></svg>