<svg xmlns="http://www.w3.org/2000/svg" xmlns:xlink="http://www.w3.org/1999/xlink" viewBox="0 0 262.53 203.52"><defs><style>.cls-1{fill:#fff;}.cls-2{fill:url(#linear-gradient);}.cls-3{fill:#7cc9fc;}.cls-4{fill:url(#linear-gradient-2);}.cls-5{fill:#d3f1ff;}.cls-6{fill:url(#linear-gradient-3);}</style><linearGradient id="linear-gradient" x1="51.58" y1="40.67" x2="183.6" y2="185.18" gradientTransform="translate(28.91 -5.31) rotate(0.84)" gradientUnits="userSpaceOnUse"><stop offset="0" stop-color="#84c9fb"/><stop offset="1" stop-color="#63c7ff"/></linearGradient><linearGradient id="linear-gradient-2" x1="174.61" y1="61.82" x2="205.55" y2="97.92" gradientUnits="userSpaceOnUse"><stop offset="0" stop-color="#d3f1ff"/><stop offset="1" stop-color="#63c7ff"/></linearGradient><linearGradient id="linear-gradient-3" x1="119.28" y1="31.2" x2="165.53" y2="83.33" gradientTransform="matrix(1, 0, 0, 1, 0, 0)" xlink:href="#linear-gradient"/></defs><title>Ресурс 1weather2</title><g id="Слой_2" data-name="Слой 2"><g id="icons"><path class="cls-1" d="M4.66,158.78q.64.82,1.34,1.6a22.2,22.2,0,0,0-1.34,28.76c6.9,8.87,19,14.38,31.69,14.38,10.12,0,19.31-3.4,26-9.47a41.67,41.67,0,0,0,27,9.47c10.12,0,19.31-3.4,26-9.47a41.67,41.67,0,0,0,27,9.47c10.12,0,19.31-3.4,26-9.47a41.68,41.68,0,0,0,27,9.47c10.24,0,19.54-3.49,26.24-9.71a22.17,22.17,0,0,0,28.69-33.47,22.18,22.18,0,0,0,0-30.37,22.19,22.19,0,0,0-.45-30.87,36,36,0,0,0-7.26-5.58,26.92,26.92,0,0,0,11.35-45.78l.86-4.8-15.53-2.08c-7.89-1.06-10.82-2.31-11.53-2.66-1.61-1.39-5.4-4.57-9.84-7.76A26.88,26.88,0,0,0,196.88,4.79L195.21,0,180.45,6.25a60.1,60.1,0,0,0-6.08,3.12c-1,.54-2.38,1.34-3.39,1.82-3.37-.7-6.75-1.26-10.09-1.66a84.14,84.14,0,0,0-12.17-1.06,41.71,41.71,0,0,0-4.31.21c-36.57.44-67.13,11.16-90.83,31.86A125.69,125.69,0,0,0,18.19,93,22.17,22.17,0,0,0,4.66,128.41Q5.3,129.23,6,130A22.2,22.2,0,0,0,4.66,158.78Z"/><path class="cls-2" d="M146.07,68.25a68.41,68.41,0,0,1,43.69,16.11l29-33.85a115.36,115.36,0,0,0-22.92-15,111,111,0,0,0-49.09-11.89c-77.8,0-112.34,50.73-119.78,94.87,6.9,3.38,17.22,2.83,21.72-2.95,5.45-7,20.74-8.17,26.49-.78,3.71,4.77,12,6.83,18.68,5.33a52.51,52.51,0,0,1-.31-5.67C93.52,87.57,112.16,68.25,146.07,68.25Z"/><path class="cls-3" d="M195.3,127.79c-8.12,0-15.73-3.29-19.85-8.59-1.07-1.38-3.68-2.27-6.64-2.27-4,0-7.34,1.53-8.51,3-3.86,5-10.41,7.81-18,7.81-8.12,0-15.73-3.29-19.85-8.59-1.07-1.38-3.68-2.27-6.64-2.27-4,0-7.34,1.53-8.51,3-3.86,5-10.41,7.81-18,7.81-8.12,0-15.73-3.29-19.85-8.59-1.07-1.38-3.68-2.27-6.64-2.27-4,0-7.34,1.53-8.51,3-3.86,5-10.41,7.81-18,7.81-8.12,0-15.73-3.29-19.85-8.59a7.18,7.18,0,0,1,11.33-8.81c1.18,1.51,4.48,3,8.52,3,3,0,5.57-.89,6.64-2.27,4.12-5.3,11.72-8.59,19.85-8.59,7.56,0,14.12,2.85,18,7.81,1.18,1.51,4.48,3,8.52,3,3,0,5.57-.89,6.64-2.27,4.12-5.3,11.73-8.59,19.85-8.59,7.56,0,14.12,2.85,18,7.81,1.18,1.51,4.48,3,8.52,3,3,0,5.57-.89,6.64-2.27,4.12-5.3,11.73-8.59,19.85-8.59,7.56,0,14.12,2.85,18,7.81,1.18,1.51,4.48,3,8.52,3,3,0,5.57-.89,6.64-2.27,3.71-4.78,10-7.77,17.26-8.23,7.78-.48,15.25,2,20,6.78A7.18,7.18,0,0,1,229,119.87c-1.81-1.8-5.31-2.82-8.93-2.6-3,.19-5.68,1.25-6.82,2.71-3.86,5-10.41,7.81-18,7.81Z"/><path class="cls-4" d="M246,61.68a11.87,11.87,0,0,0-8.78-5.93h0c-5.49-.73-14.17-2.22-18.66-5.58,0,0-12.77-11.3-20.63-13.91-12.33-1.76-75.2,21.38-75.86,26.79s-8.13,11.74-8.13,11.74c19-10.7,44.25-11.64,63.35,2,4.6,2.58,5.2,9.35,5,13.68h0a11.89,11.89,0,0,0,21.35,7.67h0a18.06,18.06,0,0,1,12.49-7h0a11.87,11.87,0,0,0,8.23-4.64h0a18.06,18.06,0,0,1,12.49-7h0A11.89,11.89,0,0,0,246,61.68Z"/><path class="cls-5" d="M175.84,66.45c6.82-.2,10.84,2.61,15.25,6.42s14,4.21,17.66,1.81c-4.49,4.89-15.45,6.82-20.27,2.21S174,69.26,174,69.26Z"/><path class="cls-5" d="M220.8,67.26c-10.64,4.21-18.26,5.82-25.09-1.2a66.26,66.26,0,0,0-11.84-10l3.61-3.61,11,10.44C202.13,66.25,208.75,70.27,220.8,67.26Z"/><path class="cls-5" d="M189.49,42.37c7.42,4,14.85,9.83,18.46,13.85s10.84,8.23,17.46,7.63c-9.23,1.81-14.85-.8-20.87-5.82s-17.86-12.44-17.86-12.44Z"/><path class="cls-6" d="M89.19,96.16C101.57,78.25,124.77,67,147.8,68.29c5.28-.12,6.82,5.74,8.87,9.55h0A11.89,11.89,0,0,0,179,73.58h0a18.05,18.05,0,0,1,7.17-12.42h0A11.88,11.88,0,0,0,190.86,53h0A18.06,18.06,0,0,1,198,40.56h0A11.89,11.89,0,0,0,186.3,20.07h0c-5.1,2.16-11.26,7.46-17.19,6.22S151.32,22.69,145,23.7C134.7,23.7,92,67.86,89.19,96.16Z"/><path class="cls-5" d="M243.84,67.6c.82-3.8-2-6.27-5.31-7.35a11.15,11.15,0,0,0-5.14-.59c-.78.13-2.89,1.77-3.16,1.75,2.83.16,6.3.24,7.57,3.33,1.47,3.56-1.39,5.55-4.53,5.48s-5.87-.75-8.63,1.4-1.34,5.43-3.81,7.85c-4.69,4.6-11.71-.72-16.91,3.59-2.44,2-3,5.64-6.15,6.83-2.82,1.06-6.91.49-7.12-3.17-2.47,2.34-1,6.31,1.48,7.83,3.62,2.19,8,.71,10.55-2.37,2.11-2.55,2.37-5.05,6.06-5.88,3.47-.77,7.16.4,10.62-.73,4.43-1.46,5.67-4.3,7.66-8.15s5.87-3.34,9.84-4.35C239.91,72.3,243.08,71.13,243.84,67.6Z"/><path class="cls-5" d="M197.13,28.26c-1.31-3.66-5.05-4.24-8.39-3.44A11.15,11.15,0,0,0,184.06,27c-.59.52-1.52,3-1.76,3.16,2.48-1.36,5.48-3.13,8.19-1.18,3.12,2.24,1.76,5.45-.94,7s-5.38,2.46-6.59,5.75,1.73,5.31.92,8.68c-1.54,6.38-10.32,5.58-12.45,12-1,3,.43,6.37-1.61,9-1.83,2.39-5.6,4.07-7.72,1.08-.86,3.29,2.45,5.9,5.4,5.87,4.23-.05,7.16-3.63,7.7-7.59.45-3.28-.66-5.54,2-8.2,2.53-2.49,6.29-3.45,8.62-6.24,3-3.58,2.54-6.65,2.19-11s3.22-5.94,6.05-8.9C196.27,34.32,198.35,31.66,197.13,28.26Z"/><path class="cls-5" d="M119,54.61c22.51-4.24,39.43-2.41,47.86-15.35-8.73,7.83-26.51,3.91-54.79,10.23C86.54,55.22,73,71,69.68,89.23,74.81,77,98.28,58.53,119,54.61Z"/><path class="cls-5" d="M126.28,64.75c-12.82,1.59-26.23,7.06-33.12,13.64,5.14-14.19,26.65-18.75,39.65-19.67,9.95-.7,25-.68,32.63-8.47C159.41,63.55,140.45,63,126.28,64.75Z"/><path class="cls-5" d="M134.38,37.86c-12.92-.12-34.9,4.71-44.83,13.44,10.23-17.76,39.09-19.36,52.1-18.55,10,.62,24.91,2.64,33.46-4.07C167.37,41.05,148.65,38,134.38,37.86Z"/><path class="cls-3" d="M195.3,158.15c-8.12,0-15.73-3.29-19.85-8.59-1.07-1.37-3.68-2.27-6.64-2.27-4,0-7.34,1.53-8.51,3-3.86,5-10.41,7.81-18,7.81-8.12,0-15.73-3.29-19.85-8.59-1.07-1.37-3.68-2.27-6.64-2.27-4,0-7.34,1.53-8.51,3-3.86,5-10.41,7.81-18,7.81-8.12,0-15.73-3.29-19.85-8.59-1.07-1.37-3.68-2.27-6.64-2.27-4,0-7.34,1.53-8.51,3-3.86,5-10.41,7.81-18,7.81-8.12,0-15.73-3.29-19.85-8.59a7.18,7.18,0,0,1,11.33-8.81c1.18,1.51,4.48,3,8.52,3,3,0,5.57-.89,6.64-2.27,4.12-5.3,11.72-8.59,19.85-8.59,7.56,0,14.12,2.85,18,7.81,1.18,1.51,4.48,3,8.52,3,3,0,5.57-.89,6.64-2.27,4.12-5.3,11.73-8.59,19.85-8.59,7.56,0,14.12,2.85,18,7.81,1.18,1.51,4.48,3,8.52,3,3,0,5.57-.89,6.64-2.27,4.12-5.3,11.73-8.59,19.85-8.59,7.56,0,14.12,2.85,18,7.81,1.18,1.51,4.48,3,8.52,3,3,0,5.57-.89,6.64-2.27,3.71-4.78,10-7.77,17.26-8.23,7.78-.49,15.25,2,20,6.78A7.18,7.18,0,0,1,229,150.24c-1.81-1.8-5.31-2.82-8.93-2.6-3,.19-5.68,1.25-6.82,2.71-3.86,5-10.41,7.81-18,7.81Z"/><path class="cls-3" d="M195.3,188.52c-8.12,0-15.73-3.29-19.85-8.59-1.07-1.38-3.68-2.27-6.64-2.27-4,0-7.34,1.53-8.51,3-3.86,5-10.41,7.81-18,7.81-8.12,0-15.73-3.29-19.85-8.59-1.07-1.38-3.68-2.27-6.64-2.27-4,0-7.34,1.53-8.51,3-3.86,5-10.41,7.81-18,7.81-8.12,0-15.73-3.29-19.85-8.59-1.07-1.38-3.68-2.27-6.64-2.27-4,0-7.34,1.53-8.51,3-3.86,5-10.41,7.81-18,7.81-8.12,0-15.73-3.29-19.85-8.59a7.18,7.18,0,0,1,11.33-8.82c1.18,1.51,4.48,3,8.52,3,3,0,5.57-.89,6.64-2.27,4.12-5.3,11.72-8.59,19.85-8.59,7.56,0,14.12,2.85,18,7.81,1.18,1.51,4.48,3,8.52,3,3,0,5.57-.89,6.64-2.27,4.12-5.3,11.73-8.59,19.85-8.59,7.56,0,14.12,2.85,18,7.81,1.18,1.51,4.48,3,8.52,3,3,0,5.57-.89,6.64-2.27,4.12-5.3,11.73-8.59,19.85-8.59,7.56,0,14.12,2.85,18,7.81,1.18,1.51,4.48,3,8.52,3,3,0,5.57-.89,6.64-2.27,3.71-4.78,10-7.77,17.26-8.23,7.78-.48,15.25,2,20,6.78A7.18,7.18,0,0,1,229,180.6c-1.81-1.81-5.31-2.82-8.93-2.6-3,.19-5.68,1.25-6.82,2.71-3.86,5-10.41,7.81-18,7.81Z"/></g></g></svg>