<svg xmlns="http://www.w3.org/2000/svg" xmlns:xlink="http://www.w3.org/1999/xlink" viewBox="0 0 208.46 231.69"><defs><style>.cls-1{fill:#fff;}.cls-2{fill:url(#linear-gradient);}.cls-3{fill:#fdfa8a;}.cls-4{fill:#cf8f00;}</style><linearGradient id="linear-gradient" x1="104.25" y1="43.25" x2="104.25" y2="202.53" gradientUnits="userSpaceOnUse"><stop offset="0" stop-color="#ffdb00"/><stop offset="1" stop-color="#e8a300"/></linearGradient></defs><title>Ресурс 41weather2</title><g id="Слой_2" data-name="Слой 2"><g id="icons"><path class="cls-1" d="M170.37,70h-46.3c3.59-7.91,6.38-14,7.64-16.79,8.2-17.9,4.45-30.17-.13-37.3C124.55,4.91,111.32,0,101.33,0h-25C58.14,0,33.64,10.17,24.38,38.84c-1,3.08-2.14,6.61-3.39,10.45l-.3.92C15.2,67,7.68,90.1,2.41,108.26c-5.43,18.7-.66,30.5,4.3,37.1,6.22,8.29,16,12.85,27.64,12.85h50L67.8,195.65c-5.54,12.52-1.88,21.29.79,25.4,4.41,6.77,12.07,10.65,21,10.65h0c10.05,0,20.34-4.88,27.53-13.07,17.6-20,62-71.85,81.42-95.5C211.78,107.06,208.9,94.41,206,88.3,200.58,76.82,187.26,70,170.37,70Z"/><path class="cls-2" d="M170.37,85H100.79c7.89-17.37,15-33.1,17.29-38C129.58,21.8,109.4,15,101.33,15h-25c-12.11,0-30.67,6.8-37.66,28.45-5.42,16.77-15.34,46.62-21.84,69-5.78,19.9,3,30.77,17.53,30.77h73.07l-25.89,58.5c-7.5,16.94,13.11,19.84,24.38,7,18.45-21,62.39-72.34,81.1-95.12C203.13,94,185.92,85,170.37,85Z"/><path class="cls-3" d="M85.7,20.15c-35.18,0-37.05,20-37.05,20s5.57-14,34.07-14S116.8,39.3,116.8,39.3,120.89,20.15,85.7,20.15Z"/><path class="cls-4" d="M22.77,116.41c-3.36,8.33-3.73,22.14,9.33,22.14h75.38a5.24,5.24,0,0,1,5.6,5.23c3.68-4.93-.79-9.51-5.16-9.51H32.17C22.85,134.27,20.79,122.65,22.77,116.41Z"/><path class="cls-3" d="M185.38,110.42c7-11-.25-22.14-13.32-22.14h-71.4a5.24,5.24,0,0,1-5.6-5.23c-3.68,4.93.79,9.51,5.16,9.51H172C181.32,92.57,189.61,103.28,185.38,110.42Z"/><path class="cls-4" d="M86.14,199.61c-3.24,7.16-2.64,12.15,2.64,12.68s12.68-2.91,19.81-12.94c-7.13,5.81-14,9.77-18.49,9.25S87.29,202.29,86.14,199.61Z"/></g></g></svg>