<svg xmlns="http://www.w3.org/2000/svg" xmlns:xlink="http://www.w3.org/1999/xlink" viewBox="0 0 238.48 227.92"><defs><style>.cls-1{fill:#fff;}.cls-2{fill:#494349;}.cls-3{fill:url(#linear-gradient);}.cls-4{fill:url(#linear-gradient-2);}.cls-5{fill:url(#linear-gradient-3);}.cls-6{fill:url(#linear-gradient-4);}.cls-7{fill:url(#linear-gradient-5);}.cls-8{fill:url(#linear-gradient-6);}.cls-9{fill:url(#linear-gradient-7);}.cls-10{fill:url(#linear-gradient-8);}.cls-11{fill:url(#linear-gradient-9);}.cls-12{fill:url(#linear-gradient-10);}.cls-13{fill:url(#linear-gradient-11);}.cls-14{fill:url(#linear-gradient-12);}.cls-15{fill:url(#linear-gradient-13);}.cls-16{fill:url(#linear-gradient-14);}.cls-17{fill:url(#linear-gradient-15);}.cls-18{fill:url(#linear-gradient-16);}.cls-19{fill:url(#linear-gradient-17);}.cls-20{fill:url(#linear-gradient-18);}.cls-21{fill:url(#linear-gradient-19);}.cls-22{fill:url(#linear-gradient-20);}.cls-23{fill:url(#linear-gradient-21);}.cls-24{fill:url(#linear-gradient-22);}.cls-25{fill:url(#linear-gradient-23);}.cls-26{fill:url(#linear-gradient-24);}.cls-27{fill:url(#linear-gradient-25);}.cls-28{fill:#ffb2a5;}.cls-29{fill:#961404;}</style><linearGradient id="linear-gradient" x1="123.2" y1="47.97" x2="123.2" y2="185.52" gradientUnits="userSpaceOnUse"><stop offset="0" stop-color="#c6c7c7"/><stop offset="1" stop-color="#8d8d8d"/></linearGradient><linearGradient id="linear-gradient-2" x1="101.79" y1="9.81" x2="101.79" y2="170.07" gradientUnits="userSpaceOnUse"><stop offset="0" stop-color="#c2c3c3"/><stop offset="1" stop-color="gray"/></linearGradient><linearGradient id="linear-gradient-3" x1="122.44" y1="9.81" x2="122.44" y2="170.07" xlink:href="#linear-gradient-2"/><linearGradient id="linear-gradient-4" x1="124.5" y1="9.81" x2="124.5" y2="170.07" xlink:href="#linear-gradient-2"/><linearGradient id="linear-gradient-5" x1="111.71" y1="9.82" x2="111.71" y2="170.06" xlink:href="#linear-gradient-2"/><linearGradient id="linear-gradient-6" x1="129.01" y1="13" x2="129.01" y2="44.44" gradientUnits="userSpaceOnUse"><stop offset="0" stop-color="#d4d5d5"/><stop offset="1" stop-color="#6a6a6a"/></linearGradient><linearGradient id="linear-gradient-7" x1="123.7" y1="24.74" x2="123.7" y2="51.12" gradientUnits="userSpaceOnUse"><stop offset="0" stop-color="#707474"/><stop offset="1" stop-color="#525252"/></linearGradient><linearGradient id="linear-gradient-8" x1="127.67" y1="24.74" x2="127.67" y2="51.12" xlink:href="#linear-gradient-7"/><linearGradient id="linear-gradient-9" x1="160.69" y1="42.97" x2="160.69" y2="187.57" gradientUnits="userSpaceOnUse"><stop offset="0" stop-color="#a4a6a6"/><stop offset="1" stop-color="#797979"/></linearGradient><linearGradient id="linear-gradient-10" x1="145.55" y1="42.96" x2="145.55" y2="187.58" xlink:href="#linear-gradient-9"/><linearGradient id="linear-gradient-11" x1="113.76" y1="42.96" x2="113.76" y2="187.58" xlink:href="#linear-gradient-9"/><linearGradient id="linear-gradient-12" x1="64.17" y1="42.96" x2="64.17" y2="187.59" xlink:href="#linear-gradient-9"/><linearGradient id="linear-gradient-13" x1="89.32" y1="42.96" x2="89.32" y2="187.58" xlink:href="#linear-gradient-9"/><linearGradient id="linear-gradient-14" x1="77.1" y1="42.96" x2="77.1" y2="187.57" xlink:href="#linear-gradient-9"/><linearGradient id="linear-gradient-15" x1="157.54" y1="42.96" x2="157.54" y2="187.57" gradientUnits="userSpaceOnUse"><stop offset="0.01" stop-color="#9d9e9e"/><stop offset="1" stop-color="#615c61"/></linearGradient><linearGradient id="linear-gradient-16" x1="146.07" y1="42.96" x2="146.07" y2="187.58" xlink:href="#linear-gradient-15"/><linearGradient id="linear-gradient-17" x1="161.22" y1="42.96" x2="161.22" y2="187.58" xlink:href="#linear-gradient-15"/><linearGradient id="linear-gradient-18" x1="140.68" y1="42.96" x2="140.68" y2="187.58" xlink:href="#linear-gradient-15"/><linearGradient id="linear-gradient-19" x1="115.48" y1="42.97" x2="115.48" y2="187.57" xlink:href="#linear-gradient-15"/><linearGradient id="linear-gradient-20" x1="61.58" y1="42.96" x2="61.58" y2="187.58" xlink:href="#linear-gradient-15"/><linearGradient id="linear-gradient-21" x1="74.3" y1="42.96" x2="74.3" y2="187.58" xlink:href="#linear-gradient-15"/><linearGradient id="linear-gradient-22" x1="61.67" y1="42.96" x2="61.67" y2="187.58" xlink:href="#linear-gradient-15"/><linearGradient id="linear-gradient-23" x1="79.14" y1="42.97" x2="79.14" y2="187.57" xlink:href="#linear-gradient-15"/><linearGradient id="linear-gradient-24" x1="78.56" y1="42.97" x2="78.56" y2="187.57" xlink:href="#linear-gradient-15"/><linearGradient id="linear-gradient-25" x1="177.08" y1="152.62" x2="179.38" y2="216.96" gradientUnits="userSpaceOnUse"><stop offset="0" stop-color="#ff5b3f"/><stop offset="1" stop-color="#bf2200"/></linearGradient></defs><title>Ресурс 8weather2</title><g id="Слой_2" data-name="Слой 2"><g id="icons"><path class="cls-1" d="M32.83,37.8l-.06.37-.11.53-.06.23-.17.64L32.3,40c-.14.46-.31.95-.51,1.47l0,.08c-.21.54-.43,1.09-.63,1.55l-.43,1c-.29.65-.59,1.29-.91,2L22,48.21C8.59,51.95.59,60,0,70.43-.17,74,.46,86.32,16.88,92.9a74.59,74.59,0,0,0,7.6,2.58,70.71,70.71,0,0,0,4.7,6.91l.44.57a26.81,26.81,0,0,0-6.89,7.75l-.53-.44.29.88a22.12,22.12,0,0,0-1.8,4.37l-2.29,7.86,9.8,5.13,10,30.52c3.84,11.68,15.55,19.35,34,22.32-4.08,6.86-2.94,12.71-1.61,16,2.78,6.91,9.6,11,18.24,11a46.33,46.33,0,0,0,14.09-2.54,99.15,99.15,0,0,0,21-9.54c-1.16,6.63-.73,14.32,5,20.29,2.68,2.8,10.84,11.33,50,11.33s47.3-8.53,50-11.33c10.39-10.86,3.31-27.43,1-32.88-4.21-9.85-12.06-22.62-20-32.54q-3.19-4-6.24-7.2c9.9-2.3,17.85-5.42,24-9.41,10.45-6.76,12.13-16.42,10.21-23.22a20.33,20.33,0,0,0-5.33-8.93l5.49-11.8-6.46-4.87c-7-5.25-16.54-9.37-28.57-12.33l6.27-5.55-.17-.19.33-.33,1.15-1.18,1.19-1.27.31-.34,1-1.07.38-.44.84-1,.35-.42c.8-1,1.58-2,2.35-3l.29-.41L218,57l.32-.47c.3-.45.59-.9.83-1.28l.29-.46c.35-.57.7-1.15,1-1.76l.21-.38c.25-.45.5-.9.75-1.38l.31-.61c.23-.46.46-.92.67-1.37l.28-.59c.6-1.32,1.15-2.68,1.64-4l.21-.61c.17-.49.33-1,.52-1.61l.19-.64c.16-.54.3-1.09.48-1.79l.11-.43c.18-.74.34-1.49.49-2.28l.09-.51c.11-.6.2-1.2.28-1.77,0-.26.07-.52.11-.82q.1-.84.18-1.69l.06-.72c.06-.81.1-1.62.13-2.54V29c0-18.48-24.9-22.66-36.86-24.67C173.78,1.53,152,0,129,0S84.24,1.53,67.74,4.3c-12,2-36.86,6.2-36.86,24.67a17.59,17.59,0,0,0,2,8.17l0,.44Z"/><path class="cls-2" d="M70.19,111.7c-14.54-.69-31.71,3.79-35.1,8,2.68-9.18,28.08-15.7,40.22-12.88S70.19,111.7,70.19,111.7Z"/><path class="cls-2" d="M222.45,97.71c-9.18-2.09-20.62-7.09-47-6.54-3.15-4.61-4.71-7.37-4.71-7.37S206,85.34,222.45,97.71Z"/><path class="cls-3" d="M45.87,29c9.84,17.74-19.76,38.57-9.38,57.31s27.35,24.54,36.74,29.09,4.84,11.5-1.73,18.23-8.32,23.82,1.9,29.74,22.66,14.48,14.37,22.45S87.7,195,98.3,191.58s38.49-15.12,25.17-29.61,31.26-10.6,47.51-22.18c19.89-14.17,22.19-40.06,10.31-55.11s30.05-24,30.86-55.69C201.06,26.07,45.87,29,45.87,29Z"/><path class="cls-4" d="M126.16,165.92c-12,2-32.11,2.75-49.58-.68,5.76,3.55,11.48,7.8,13.3,12.21,9.93,2.52,22.57,2.4,34.26-.65C126.79,173.52,127.9,169.85,126.16,165.92Z"/><path class="cls-5" d="M127.37,151.95c10.93-3.67,33.14-4.7,43.62-12.17a43.2,43.2,0,0,0,7.73-7C155.78,137,102.46,142,69.33,136.48a24.45,24.45,0,0,0-3.16,11.17C76.76,149.94,102.84,153.56,127.37,151.95Z"/><path class="cls-6" d="M184.82,69.56c9.29-9.24,26.81-20.22,27.32-40.59-11.09-2.91-166.27,0-166.27,0,6.41,11.55-3.91,24.41-9,37.15C55,69.28,130.91,80.29,184.82,69.56Z"/><path class="cls-7" d="M188,113c1.71-10.18-.61-20.51-6.52-28.13C136,94.53,62.52,88.66,34.89,82.36a17.75,17.75,0,0,0,1.6,3.92C46.85,105,63.79,110.8,73.19,115.35,97.42,119.47,161.16,123.59,188,113Z"/><ellipse class="cls-8" cx="129.01" cy="28.98" rx="83.14" ry="13.98"/><path class="cls-9" d="M161.93,41.81c-19.69-4.1-52.86-4.33-76.45-.93A430.7,430.7,0,0,0,129,43C140.7,43,151.83,42.54,161.93,41.81Z"/><path class="cls-10" d="M191.61,38.17a93.13,93.13,0,0,0,11.74-2.93C158.16,21.15,85.74,26.33,52,34.24a80.06,80.06,0,0,0,15,4C99.88,29.07,164.32,33.38,191.61,38.17Z"/><path class="cls-11" d="M155.74,77.43a88.58,88.58,0,0,1-13.53,1.37c-3.23,0-3.23,5,0,5a91.23,91.23,0,0,0,13.31-1.3c4.63-.72,9.26-1.33,13.9-2,2.3-.33,4.58-.9,6.85-1.38,1-.21,2-.36,2.93-.5a11,11,0,0,1,2.39-5.41c-4.22.83-8.5,1.58-12.73,2.34S160.09,76.72,155.74,77.43Z"/><path class="cls-12" d="M108.42,130.52c-3.23,0-3.23,5,0,5,6.89,0,13.76.45,20.65.41a175.16,175.16,0,0,0,21.51-1.27c6.84-.89,13.7-2.41,20.43-3.89q5.48-1.21,11-2.38a40.67,40.67,0,0,0,3.12-5.77c-11.41,2.58-22.88,5.27-34.42,7C136.67,131.76,122.5,130.58,108.42,130.52Z"/><path class="cls-13" d="M105.56,159.73h-.47c-3.23,0-3.23,5,0,5a135.36,135.36,0,0,0,15.2-.36c1.54-.17,3.06-.41,4.58-.69a17.39,17.39,0,0,0-1.4-1.72,11.32,11.32,0,0,1-2-2.77c-.67.1-1.35.19-2,.27A121.08,121.08,0,0,1,105.56,159.73Z"/><path class="cls-14" d="M44.86,75.88c3.3.58,6.65.82,10,1.32,2.92.44,5.82,1,8.77,1.14,3.2.2,6.34.28,9.53.68s6.12.85,9.18,1.25,6,0,9-.22c3.21-.19,3.23-5.19,0-5-2.53.15-5,.42-7.51.42A57.67,57.67,0,0,1,76,74.39c-2.64-.38-5.29-.71-7.95-.91s-5.43-.14-8.15-.53c-5.51-.78-11.15-1.25-16.58-2.47a68.48,68.48,0,0,1-7.39-1.68h0a33.33,33.33,0,0,0-1.27,4.85c.53.13,1.07.25,1.64.37C39.12,74.62,42,75.38,44.86,75.88Z"/><path class="cls-15" d="M98.41,125.94c3.23,0,3.23-5,0-5-4.9,0-9.8.22-14.69,0a45.77,45.77,0,0,1-5.41-.65,7,7,0,0,1-.49,5c1.15.19,2.29.36,3.45.49C87,126.33,92.71,126,98.41,125.94Z"/><path class="cls-16" d="M85.48,157.22c3.23,0,3.23-5,0-5-3.89,0-7.78.21-11.67,0-2.52-.14-5-.57-7.5-.88a19.36,19.36,0,0,0,1.29,5.16c1.81.25,3.63.52,5.46.68C77.17,157.54,81.34,157.24,85.48,157.22Z"/><path class="cls-17" d="M203.24,51.69c-5.8,1.52-11.55,3.18-17.43,4.42-7.78,1.64-15.68,2.47-23.52,3.7a35,35,0,0,1-5.41.63c-2,0-3.95-.11-5.89.08-4.07.4-8.16.59-12.24.71-8.16.24-16.33.05-24.49,0-3.23,0-3.23,5,0,5,8.16,0,16.33.16,24.49,0q6.13-.16,12.24-.71c1.95-.18,3.94-.08,5.89-.08a40.52,40.52,0,0,0,6-.69c7.83-1.19,15.69-2.11,23.46-3.66,3.54-.7,7-1.59,10.5-2.51A72.87,72.87,0,0,0,203.24,51.69Z"/><path class="cls-18" d="M152,94.13c-7.59.64-15.16,1.35-22.78,1.62-6.6.23-13.76.69-20.17-1-3.12-.83-4.45,4-1.33,4.83,6.38,1.7,13.32,1.41,19.89,1.24,7.89-.21,15.72-.92,23.58-1.6s15.62-1,23.2-2.65c4-.88,7.86-2,11.74-3.22a33.61,33.61,0,0,0-2.15-4.6c-3.1.95-6.21,1.85-9.35,2.62C167.29,93.18,159.58,93.49,152,94.13Z"/><path class="cls-19" d="M167.27,110c-5.07.84-10.2,1.46-15.31,2-4.72.52-10.25,1.42-14.93.24-3.13-.79-4.46,4-1.33,4.83,4.71,1.18,9.9.57,14.67.1,5.55-.54,11.1-1.29,16.62-2.12,5.34-.8,10.63-1.93,15.93-3,1.82-.37,3.6-.82,5.36-1.32a39,39,0,0,0,.22-5.2c-1.77.55-3.55,1-5.38,1.42C177.87,108.07,172.57,109.11,167.27,110Z"/><path class="cls-20" d="M165.74,139.79c-8.33,1.13-16.61,2.75-25,3.58s-17.12.51-25.66.51c-3.23,0-3.23,5,0,5,8.81,0,17.65.28,26.43-.58,2.35-.23,4.7-.53,7-.86,7.37-1.45,14.77-3.26,20.13-6.23A2.62,2.62,0,0,0,165.74,139.79Z"/><path class="cls-21" d="M112.62,170.84c-1.15.11-4.1.72-5,.07-2.65-1.87-5.14,2.48-2.53,4.32,1.68,1.19,3.72.78,5.64.75,2.26,0,4.5-.39,6.76-.41a45.09,45.09,0,0,0,8.16-1,9.81,9.81,0,0,0,1.35-5.41,58.29,58.29,0,0,1-8.07,1.29C116.81,170.66,114.72,170.64,112.62,170.84Z"/><path class="cls-22" d="M55.44,51.21c6.82.54,13.61.47,20.44.47,3.23,0,3.23-5,0-5-6,0-12.07.1-18.1-.31A37.26,37.26,0,0,1,48.35,45c-.55-.18-1.14-.36-1.74-.55a49.63,49.63,0,0,1-1.75,4.65l.67.23A38.85,38.85,0,0,0,55.44,51.21Z"/><path class="cls-23" d="M67.17,68c13.7,1.36,27.47,2.84,41.25,2.88,3.23,0,3.23-5,0-5-13.52,0-27-1.53-40.45-2.8-6.6-.62-13.17-1.59-19.75-2.37-2.78-.33-5.54-.77-8.28-1.34-.76,1.54-1.49,3.08-2.17,4.62,2.95.62,5.89,1.13,8.88,1.53C53.47,66.4,60.32,67.31,67.17,68Z"/><path class="cls-24" d="M79.64,105.49c3.22.29,3.19-4.72,0-5-7.21-.65-14.45-1.06-21.63-2.06a58.31,58.31,0,0,1-9.89-2,51.24,51.24,0,0,1-6.82-2.87A54.42,54.42,0,0,0,49.58,102c2.33.55,4.72.91,7.1,1.25C64.29,104.36,72,104.81,79.64,105.49Z"/><path class="cls-25" d="M86.26,113.84c4.05,0,8.11-.07,12.15-.42,3.19-.27,3.22-5.28,0-5-3.77.32-7.55.4-11.34.41-4,0-8.09.18-12.1-.09-3.8-.25-7.56-.28-11.37-.41a40.68,40.68,0,0,1-6.14-.8,115.11,115.11,0,0,0,11.63,5.92c1.73,0,3.45.08,5.18.24C78.24,114,82.28,113.84,86.26,113.84Z"/><path class="cls-26" d="M88.4,146.79c3.23,0,3.23-5,0-5-4.52,0-9,.51-13.54.3a38.93,38.93,0,0,1-7.55-1,25.84,25.84,0,0,0-1,4.8c2,.45,4.15.73,6.19,1C77.77,147.59,83.11,146.83,88.4,146.79Z"/><path class="cls-2" d="M194.36,106c9.09,3,16.68,5.39,9.73,10.66-10.88,5.08-37.34,15-91.5,15.82,65.32,4.57,94.69-2.65,106.84-10.5C230.38,114.89,218.29,106.51,194.36,106Z"/><path class="cls-2" d="M26,62.65c-5.35,8.23,14.29,16.73,48.71,19.88-27.32,2.6-41,1-52.28-3.57S13,66.3,26,62.65Z"/><path class="cls-2" d="M52.47,154.34c5.56,4.54,43.66,9.91,73.14,6C100.81,172.23,57.36,169.21,52.47,154.34Z"/><path class="cls-27" d="M139.7,206.22c-8.54-8.93,26.09-61.37,39.14-61.37s47.68,52.44,39.14,61.37S148.24,215.15,139.7,206.22Z"/><path class="cls-1" d="M174.67,185a3.26,3.26,0,0,0,1.22,2.49,4.26,4.26,0,0,0,2.76.95,4.75,4.75,0,0,0,2.89-.9,3.13,3.13,0,0,0,1.4-2.54l1.17-18.14a6.2,6.2,0,0,0-1.26-4.63,5.74,5.74,0,0,0-8,0,6.45,6.45,0,0,0-1.27,4.73Z"/><path class="cls-1" d="M182.49,194.15a5,5,0,0,0-3.67-1.55,4.91,4.91,0,0,0-3.63,1.5,5.06,5.06,0,0,0-1.53,3.68,5.18,5.18,0,0,0,5.16,5.19,5.17,5.17,0,0,0,5.2-5.19A4.92,4.92,0,0,0,182.49,194.15Z"/><path class="cls-28" d="M178.84,147.46c-3.77,0-11.33,6.8-14.24,11,4-2.7,11.15-8.34,14.24-8.34s10.29,5.65,14.24,8.34C190.18,154.27,182.61,147.46,178.84,147.46Z"/><path class="cls-29" d="M178.84,207.67c-9.61,0-28.9-.38-36.47-1.67,8.14,4.24,27,5,36.47,5s28.32-.77,36.47-5C207.75,207.28,188.46,207.67,178.84,207.67Z"/></g></g></svg>