<svg xmlns="http://www.w3.org/2000/svg" xmlns:xlink="http://www.w3.org/1999/xlink" viewBox="0 0 150.94 150.94"><defs><style>.cls-1{fill:url(#radial-gradient);}.cls-2{fill:url(#radial-gradient-2);}.cls-3{fill:url(#radial-gradient-3);}.cls-4{fill:url(#radial-gradient-4);}.cls-5{fill:url(#radial-gradient-5);}.cls-6{fill:url(#radial-gradient-6);}.cls-7{fill:url(#radial-gradient-7);}.cls-8{fill:url(#radial-gradient-8);}.cls-9{fill:url(#radial-gradient-9);}.cls-10{fill:url(#radial-gradient-10);}.cls-11{fill:url(#radial-gradient-11);}.cls-12{fill:url(#radial-gradient-12);}.cls-13{fill:url(#radial-gradient-13);}.cls-14{fill:url(#radial-gradient-14);}.cls-15{fill:url(#radial-gradient-15);}.cls-16{fill:url(#linear-gradient);}.cls-17{fill:url(#linear-gradient-2);}.cls-18{fill:url(#radial-gradient-16);}.cls-19{fill:url(#radial-gradient-17);}.cls-20{fill:url(#radial-gradient-18);}.cls-21{fill:url(#radial-gradient-19);}.cls-22{fill:url(#radial-gradient-20);}.cls-23{fill:url(#radial-gradient-21);}.cls-24{fill:url(#radial-gradient-22);}.cls-25{fill:url(#radial-gradient-23);}.cls-26{fill:url(#radial-gradient-24);}.cls-27{fill:url(#radial-gradient-25);}.cls-28{fill:url(#radial-gradient-26);}.cls-29{fill:url(#radial-gradient-27);}.cls-30{fill:url(#radial-gradient-28);}.cls-31{fill:url(#radial-gradient-29);}.cls-32{fill:url(#radial-gradient-30);}.cls-33{fill:url(#radial-gradient-31);}.cls-34{fill:url(#radial-gradient-32);}.cls-35{fill:url(#radial-gradient-33);}.cls-36{fill:url(#radial-gradient-34);}.cls-37{fill:url(#radial-gradient-35);}.cls-38{isolation:isolate;}.cls-39{mask:url(#mask);}.cls-40{fill:#1b75bb;}.cls-41{fill:url(#linear-gradient-3);}.cls-42{fill:url(#linear-gradient-4);}.cls-43{fill:url(#linear-gradient-5);}.cls-44{fill:url(#linear-gradient-6);}.cls-45{fill:url(#linear-gradient-7);}.cls-46{fill:url(#linear-gradient-8);}.cls-47{fill:url(#linear-gradient-9);}.cls-48{fill:url(#linear-gradient-10);}.cls-49{fill:url(#linear-gradient-11);}.cls-50{fill:url(#linear-gradient-12);}.cls-51{fill:url(#linear-gradient-13);}.cls-52{fill:url(#linear-gradient-14);}.cls-53{fill:url(#linear-gradient-15);}.cls-54{fill:url(#linear-gradient-16);}.cls-55{fill:url(#linear-gradient-17);}.cls-56{fill:url(#linear-gradient-18);}.cls-57{fill:url(#linear-gradient-19);}.cls-58{fill:url(#linear-gradient-20);}.cls-59{fill:url(#linear-gradient-21);}.cls-60{fill:url(#linear-gradient-22);}.cls-61{fill:url(#linear-gradient-23);}.cls-62{fill:url(#linear-gradient-24);}.cls-63{fill:url(#linear-gradient-25);}.cls-64{fill:url(#linear-gradient-26);}.cls-65{fill:url(#linear-gradient-27);}.cls-66{fill:url(#linear-gradient-28);}.cls-67{fill:url(#linear-gradient-29);}.cls-68{fill:url(#linear-gradient-30);}.cls-69{fill:url(#linear-gradient-31);}.cls-70{fill:url(#linear-gradient-32);}.cls-71{fill:url(#linear-gradient-33);}.cls-72{fill:url(#linear-gradient-34);}.cls-73{fill:url(#linear-gradient-35);}.cls-74{fill:url(#linear-gradient-36);}.cls-75{fill:url(#linear-gradient-37);}.cls-76{fill:url(#linear-gradient-38);}.cls-77{fill:url(#linear-gradient-39);}.cls-78{fill:url(#linear-gradient-40);}.cls-79{fill:url(#linear-gradient-41);}.cls-80{fill:url(#linear-gradient-42);}.cls-81{fill:url(#linear-gradient-43);}.cls-82{fill:url(#linear-gradient-44);}.cls-83{fill:url(#linear-gradient-45);}.cls-84{fill:url(#linear-gradient-46);}.cls-85{fill:url(#linear-gradient-47);}.cls-86{fill:url(#linear-gradient-48);}.cls-87{fill:url(#linear-gradient-49);}.cls-88{fill:url(#linear-gradient-50);}.cls-89{fill:url(#linear-gradient-51);}.cls-90{fill:url(#linear-gradient-52);}.cls-91{fill:url(#linear-gradient-53);}.cls-92{fill:url(#linear-gradient-54);}.cls-93{fill:url(#linear-gradient-55);}.cls-94{fill:url(#linear-gradient-56);}.cls-95{fill:url(#linear-gradient-57);}.cls-96{fill:url(#linear-gradient-58);}.cls-97{fill:url(#linear-gradient-59);}.cls-98{fill:url(#linear-gradient-60);}.cls-99{fill:url(#linear-gradient-61);}.cls-100{fill:url(#linear-gradient-62);}.cls-101{fill:url(#linear-gradient-63);}.cls-102{fill:url(#linear-gradient-64);}.cls-103{fill:url(#linear-gradient-65);}.cls-104{fill:url(#linear-gradient-66);}.cls-105{fill:url(#linear-gradient-67);}.cls-106{fill:url(#linear-gradient-68);}.cls-107{fill:url(#linear-gradient-69);}.cls-108{fill:url(#linear-gradient-70);}.cls-109{fill:url(#linear-gradient-71);}.cls-110{fill:url(#linear-gradient-72);}.cls-111{fill:url(#linear-gradient-73);}.cls-112{fill:url(#linear-gradient-74);}.cls-113{fill:url(#linear-gradient-75);}.cls-114{fill:url(#linear-gradient-76);}.cls-115{fill:url(#linear-gradient-77);}.cls-116{fill:url(#linear-gradient-78);}.cls-117{fill:url(#linear-gradient-79);}.cls-118{fill:url(#linear-gradient-80);}.cls-119{fill:url(#linear-gradient-81);}.cls-120{fill:url(#linear-gradient-82);}.cls-121{fill:url(#linear-gradient-83);}.cls-122{fill:url(#linear-gradient-84);}.cls-123{fill:url(#linear-gradient-85);}.cls-124{fill:url(#linear-gradient-86);}.cls-125{fill:url(#linear-gradient-87);}.cls-126{fill:url(#linear-gradient-88);}.cls-127{fill:url(#linear-gradient-89);}.cls-128{fill:url(#linear-gradient-90);}.cls-129{fill:url(#linear-gradient-91);}.cls-130{fill:url(#linear-gradient-92);}.cls-131{mask:url(#mask-2);}.cls-132{fill:#fff;}.cls-133{mask:url(#mask-3);}.cls-134{mask:url(#mask-4);}.cls-135{mask:url(#mask-5);}.cls-136{mask:url(#mask-6);}.cls-137{mask:url(#mask-7);}.cls-138{mask:url(#mask-8);}.cls-139{mask:url(#mask-9);}.cls-140{mask:url(#mask-10);}.cls-141{mask:url(#mask-11);}.cls-142{mask:url(#mask-12);}.cls-143{mask:url(#mask-13);}.cls-144{mask:url(#mask-14);}.cls-145{mask:url(#mask-15);}.cls-146{mask:url(#mask-16);}.cls-147{mask:url(#mask-17);}.cls-148{mask:url(#mask-18);}.cls-149{mask:url(#mask-19);}.cls-150{mask:url(#mask-20);}.cls-151{mask:url(#mask-21);}.cls-152{mask:url(#mask-22);}.cls-153{fill:#ffdd15;}.cls-154{fill:url(#radial-gradient-36);}.cls-155{mask:url(#mask-23);}.cls-156{mask:url(#mask-24);}.cls-157{fill:#fff8d0;mix-blend-mode:hard-light;}.cls-158{mask:url(#mask-25);}.cls-159{fill:url(#radial-gradient-37);}</style><radialGradient id="radial-gradient" cx="75.47" cy="75.47" r="75.47" gradientUnits="userSpaceOnUse"><stop offset="0" stop-color="#fff"/><stop offset="0.16" stop-color="#ddd"/><stop offset="0.51" stop-color="#858585"/><stop offset="1"/></radialGradient><radialGradient id="radial-gradient-2" cx="20.79" cy="96.4" r="3.22" xlink:href="#radial-gradient"/><radialGradient id="radial-gradient-3" cx="84.63" cy="106.75" r="1.12" xlink:href="#radial-gradient"/><radialGradient id="radial-gradient-4" cx="124.65" cy="108.41" r="1.12" xlink:href="#radial-gradient"/><radialGradient id="radial-gradient-5" cx="133.07" cy="86.9" r="1.12" xlink:href="#radial-gradient"/><radialGradient id="radial-gradient-6" cx="97.87" cy="100.54" r="1.12" xlink:href="#radial-gradient"/><radialGradient id="radial-gradient-7" cx="31.97" cy="93.75" r="1.12" xlink:href="#radial-gradient"/><radialGradient id="radial-gradient-8" cx="33.57" cy="120.96" r="1.12" xlink:href="#radial-gradient"/><radialGradient id="radial-gradient-9" cx="18.68" cy="83.52" r="1.12" xlink:href="#radial-gradient"/><radialGradient id="radial-gradient-10" cx="72.91" cy="103.25" r="1.12" xlink:href="#radial-gradient"/><radialGradient id="radial-gradient-11" cx="72.91" cy="128.45" r="1.12" xlink:href="#radial-gradient"/><radialGradient id="radial-gradient-12" cx="102.55" cy="114.02" r="1.12" xlink:href="#radial-gradient"/><radialGradient id="radial-gradient-13" cx="55.79" cy="108.03" r="3.22" xlink:href="#radial-gradient"/><radialGradient id="radial-gradient-14" cx="52.98" cy="131.08" r="1.12" xlink:href="#radial-gradient"/><radialGradient id="radial-gradient-15" cx="69.76" cy="58.97" r="34.09" gradientUnits="userSpaceOnUse"><stop offset="0" stop-color="#fff"/><stop offset="0.18" stop-color="#fcfcfc"/><stop offset="0.32" stop-color="#f3f3f3"/><stop offset="0.43" stop-color="#e3e3e3"/><stop offset="0.54" stop-color="#cdcdcd"/><stop offset="0.64" stop-color="#b0b0b0"/><stop offset="0.74" stop-color="#8c8c8c"/><stop offset="0.83" stop-color="#626262"/><stop offset="0.92" stop-color="#333"/><stop offset="1"/></radialGradient><linearGradient id="linear-gradient" x1="82.21" y1="71.64" x2="87.78" y2="77.21" gradientUnits="userSpaceOnUse"><stop offset="0.31"/><stop offset="0.4" stop-color="#101010"/><stop offset="0.59" stop-color="#38393a"/><stop offset="0.84" stop-color="#797a7d"/><stop offset="1" stop-color="#a6a8ab"/></linearGradient><linearGradient id="linear-gradient-2" x1="667.2" y1="-65.08" x2="685.87" y2="-92.64" gradientTransform="matrix(1.1, 0, 0, 0.75, -684.32, 107.55)" gradientUnits="userSpaceOnUse"><stop offset="0" stop-color="#231f20"/><stop offset="1" stop-color="#fff"/></linearGradient><radialGradient id="radial-gradient-16" cx="69.76" cy="59.05" r="38.81" gradientUnits="userSpaceOnUse"><stop offset="0" stop-color="#fff"/><stop offset="0.14" stop-color="#fbfbfb"/><stop offset="0.27" stop-color="#efefef"/><stop offset="0.4" stop-color="#dcdbdb"/><stop offset="0.54" stop-color="#c0bfc0"/><stop offset="0.67" stop-color="#9d9b9c"/><stop offset="0.8" stop-color="#726f70"/><stop offset="0.93" stop-color="#3f3c3d"/><stop offset="1" stop-color="#231f20"/></radialGradient><radialGradient id="radial-gradient-17" cx="117.87" cy="105.18" r="3.22" xlink:href="#radial-gradient"/><radialGradient id="radial-gradient-18" cx="125.77" cy="97.96" r="3.22" xlink:href="#radial-gradient"/><radialGradient id="radial-gradient-19" cx="87.05" cy="123.43" r="3.22" xlink:href="#radial-gradient"/><radialGradient id="radial-gradient-20" cx="102.14" cy="105.89" r="3.69" xlink:href="#radial-gradient"/><radialGradient id="radial-gradient-21" cx="46.25" cy="95.62" r="3.29" xlink:href="#radial-gradient"/><radialGradient id="radial-gradient-22" cx="61.43" cy="135.71" r="5.12" xlink:href="#radial-gradient"/><radialGradient id="radial-gradient-23" cx="75.47" cy="121.56" r="1.12" xlink:href="#radial-gradient"/><radialGradient id="radial-gradient-24" cx="95.12" cy="-1816.76" r="95.12" gradientTransform="translate(0 1622) scale(1 0.84)" gradientUnits="userSpaceOnUse"><stop offset="0" stop-color="#fff"/><stop offset="1" stop-color="#fff" stop-opacity="0"/></radialGradient><radialGradient id="radial-gradient-25" cx="-9050.25" cy="4758.5" r="119.53" gradientTransform="matrix(0, 0.67, -1, 0, 4910.05, 6212.54)" xlink:href="#radial-gradient-24"/><radialGradient id="radial-gradient-26" cx="17411.05" cy="18.6" r="89.72" gradientTransform="matrix(0.64, 0, 0, 1.04, -10965.65, 106.74)" xlink:href="#radial-gradient-24"/><radialGradient id="radial-gradient-27" cx="95.12" cy="-1816.76" r="95.12" gradientTransform="translate(0 1622) scale(1 0.84)" gradientUnits="userSpaceOnUse"><stop offset="0" stop-color="#58595b"/><stop offset="0.23" stop-color="#595a5c" stop-opacity="0.96"/><stop offset="0.44" stop-color="#5b5c5e" stop-opacity="0.84"/><stop offset="0.63" stop-color="#5f6062" stop-opacity="0.65"/><stop offset="0.81" stop-color="#656668" stop-opacity="0.37"/><stop offset="0.99" stop-color="#6d6e70" stop-opacity="0.01"/><stop offset="1" stop-color="#6d6e70" stop-opacity="0"/></radialGradient><radialGradient id="radial-gradient-28" cx="-9050.25" cy="4758.5" r="119.53" gradientTransform="matrix(0, 0.67, -1, 0, 4910.04, 6212.54)" xlink:href="#radial-gradient-27"/><radialGradient id="radial-gradient-29" cx="17411.05" cy="18.6" r="89.72" gradientTransform="matrix(0.64, 0, 0, 1.04, -10965.65, 106.73)" xlink:href="#radial-gradient-27"/><radialGradient id="radial-gradient-30" cx="95.12" cy="-1816.76" r="95.12" gradientTransform="translate(0 1622) scale(1 0.84)" gradientUnits="userSpaceOnUse"><stop offset="0" stop-color="#bbbdbf"/><stop offset="0.17" stop-color="#bcbec0" stop-opacity="0.98"/><stop offset="0.31" stop-color="#bec0c2" stop-opacity="0.93"/><stop offset="0.45" stop-color="#c2c4c6" stop-opacity="0.83"/><stop offset="0.58" stop-color="#c8cacb" stop-opacity="0.7"/><stop offset="0.71" stop-color="#cfd1d2" stop-opacity="0.53"/><stop offset="0.84" stop-color="#d8dadb" stop-opacity="0.32"/><stop offset="0.97" stop-color="#e3e4e5" stop-opacity="0.07"/><stop offset="1" stop-color="#e6e7e8" stop-opacity="0"/></radialGradient><radialGradient id="radial-gradient-31" cx="-9050.25" cy="4758.5" r="119.53" gradientTransform="matrix(0, 0.67, -1, 0, 4910.04, 6212.54)" xlink:href="#radial-gradient-30"/><radialGradient id="radial-gradient-32" cx="17411.05" cy="18.6" r="89.72" gradientTransform="matrix(0.64, 0, 0, 1.04, -10965.65, 106.73)" xlink:href="#radial-gradient-30"/><radialGradient id="radial-gradient-33" cx="68.47" cy="-1844.62" r="68.47" gradientTransform="translate(0 1617.18) scale(1 0.84)" gradientUnits="userSpaceOnUse"><stop offset="0"/><stop offset="1" stop-opacity="0"/></radialGradient><radialGradient id="radial-gradient-34" cx="-9094.4" cy="4728.06" r="86.04" gradientTransform="matrix(0, 0.67, -1, 0, 4837.09, 6210.96)" xlink:href="#radial-gradient-33"/><radialGradient id="radial-gradient-35" cx="17327.52" cy="-18.19" r="64.58" gradientTransform="matrix(0.64, 0, 0, 1.04, -10970.6, 137.77)" xlink:href="#radial-gradient-33"/><mask id="mask" x="0" y="0" width="150.94" height="150.94" maskUnits="userSpaceOnUse"><circle class="cls-1" cx="75.47" cy="75.47" r="75.47"/></mask><linearGradient id="linear-gradient-3" x1="-3934.99" y1="1752.49" x2="-3930.96" y2="1756.51" gradientTransform="matrix(-0.71, 0.71, 0.8, 0.66, -4126.12, 1715.65)" gradientUnits="userSpaceOnUse"><stop offset="0" stop-color="#26a9e0"/><stop offset="0.34" stop-color="#25a6de"/><stop offset="0.58" stop-color="#239dd7"/><stop offset="0.79" stop-color="#208dcc"/><stop offset="0.98" stop-color="#1b77bc"/><stop offset="1" stop-color="#1b75bb"/></linearGradient><linearGradient id="linear-gradient-4" x1="-4741.94" y1="1311.66" x2="-4737.74" y2="1315.86" gradientTransform="matrix(-0.66, 0.43, 0.76, 0.57, -4068.37, 1391.69)" gradientUnits="userSpaceOnUse"><stop offset="0" stop-color="#a4c8e4"/><stop offset="0.14" stop-color="#9bc6e4"/><stop offset="0.38" stop-color="#83c0e3"/><stop offset="0.67" stop-color="#5bb6e2"/><stop offset="1" stop-color="#26a9e0"/></linearGradient><linearGradient id="linear-gradient-5" x1="-5738.09" y1="2470.14" x2="-5735.09" y2="2473.14" gradientTransform="matrix(-0.42, 0.32, 0.58, 0.26, -3807.61, 1256.96)" gradientUnits="userSpaceOnUse"><stop offset="0" stop-color="#d1e3f1"/><stop offset="1" stop-color="#a4c8e4"/></linearGradient><linearGradient id="linear-gradient-6" x1="-3928.57" y1="1777.28" x2="-3924.54" y2="1781.31" xlink:href="#linear-gradient-3"/><linearGradient id="linear-gradient-7" x1="-4731.49" y1="1340.61" x2="-4727.29" y2="1344.81" xlink:href="#linear-gradient-4"/><linearGradient id="linear-gradient-8" x1="-5710.31" y1="2516.48" x2="-5707.3" y2="2519.48" xlink:href="#linear-gradient-5"/><linearGradient id="linear-gradient-9" x1="-3930.91" y1="1737.93" x2="-3926.89" y2="1741.96" xlink:href="#linear-gradient-3"/><linearGradient id="linear-gradient-10" x1="-4737.57" y1="1296.45" x2="-4733.37" y2="1300.65" xlink:href="#linear-gradient-4"/><linearGradient id="linear-gradient-11" x1="-5738.52" y1="2444.93" x2="-5735.52" y2="2447.94" xlink:href="#linear-gradient-5"/><linearGradient id="linear-gradient-12" x1="-3944.91" y1="1796.19" x2="-3940.89" y2="1800.21" xlink:href="#linear-gradient-3"/><linearGradient id="linear-gradient-13" x1="-4751.97" y1="1357.83" x2="-4747.77" y2="1362.03" xlink:href="#linear-gradient-4"/><linearGradient id="linear-gradient-14" x1="-5732.15" y1="2546.39" x2="-5729.15" y2="2549.4" xlink:href="#linear-gradient-5"/><linearGradient id="linear-gradient-15" x1="-3962.34" y1="1799.56" x2="-3958.32" y2="1803.58" xlink:href="#linear-gradient-3"/><linearGradient id="linear-gradient-16" x1="-4775.07" y1="1357.59" x2="-4770.86" y2="1361.79" xlink:href="#linear-gradient-4"/><linearGradient id="linear-gradient-17" x1="-5765.46" y1="2548.02" x2="-5762.45" y2="2551.02" xlink:href="#linear-gradient-5"/><linearGradient id="linear-gradient-18" x1="-3970.01" y1="1783.53" x2="-3965.99" y2="1787.55" xlink:href="#linear-gradient-3"/><linearGradient id="linear-gradient-19" x1="-4786.54" y1="1338.06" x2="-4782.34" y2="1342.26" xlink:href="#linear-gradient-4"/><linearGradient id="linear-gradient-20" x1="-5790.57" y1="2517.15" x2="-5787.56" y2="2520.15" xlink:href="#linear-gradient-5"/><linearGradient id="linear-gradient-21" x1="-3943.36" y1="1774.88" x2="-3939.34" y2="1778.9" xlink:href="#linear-gradient-3"/><linearGradient id="linear-gradient-22" x1="-4751.48" y1="1334.56" x2="-4747.28" y2="1338.77" xlink:href="#linear-gradient-4"/><linearGradient id="linear-gradient-23" x1="-5741.71" y1="2508.37" x2="-5738.71" y2="2511.37" xlink:href="#linear-gradient-5"/><linearGradient id="linear-gradient-24" x1="-3958.43" y1="1780.95" x2="-3951.97" y2="1787.41" xlink:href="#linear-gradient-3"/><linearGradient id="linear-gradient-25" x1="-4771" y1="1338.06" x2="-4764.25" y2="1344.81" xlink:href="#linear-gradient-4"/><linearGradient id="linear-gradient-26" x1="-5767.93" y1="2515.3" x2="-5763.11" y2="2520.12" xlink:href="#linear-gradient-5"/><linearGradient id="linear-gradient-27" x1="-3924.8" y1="1756.87" x2="-3918.34" y2="1763.33" xlink:href="#linear-gradient-3"/><linearGradient id="linear-gradient-28" x1="-4727.74" y1="1319.05" x2="-4720.99" y2="1325.8" xlink:href="#linear-gradient-4"/><linearGradient id="linear-gradient-29" x1="-5714.14" y1="2480.47" x2="-5709.31" y2="2485.3" xlink:href="#linear-gradient-5"/><linearGradient id="linear-gradient-30" x1="-3982.41" y1="1789.98" x2="-3975.95" y2="1796.44" xlink:href="#linear-gradient-3"/><linearGradient id="linear-gradient-31" x1="-4802.44" y1="1342.59" x2="-4795.69" y2="1349.34" xlink:href="#linear-gradient-4"/><linearGradient id="linear-gradient-32" x1="-5811.13" y1="2525.45" x2="-5806.3" y2="2530.28" xlink:href="#linear-gradient-5"/><linearGradient id="linear-gradient-33" x1="-3943.65" y1="1760.17" x2="-3940.71" y2="1763.12" xlink:href="#linear-gradient-3"/><linearGradient id="linear-gradient-34" x1="-4753.07" y1="1318.1" x2="-4750" y2="1321.18" xlink:href="#linear-gradient-4"/><linearGradient id="linear-gradient-35" x1="-5751.39" y1="2481.85" x2="-5749.19" y2="2484.05" xlink:href="#linear-gradient-5"/><linearGradient id="linear-gradient-36" x1="-3934.26" y1="1765.7" x2="-3930.24" y2="1769.72" xlink:href="#linear-gradient-3"/><linearGradient id="linear-gradient-37" x1="-4739.98" y1="1326.47" x2="-4735.78" y2="1330.67" xlink:href="#linear-gradient-4"/><linearGradient id="linear-gradient-38" x1="-5728.75" y1="2494.14" x2="-5725.75" y2="2497.15" xlink:href="#linear-gradient-5"/><linearGradient id="linear-gradient-39" x1="-3970.37" y1="1810.28" x2="-3966.35" y2="1814.3" xlink:href="#linear-gradient-3"/><linearGradient id="linear-gradient-40" x1="-4785.03" y1="1367.63" x2="-4780.83" y2="1371.83" xlink:href="#linear-gradient-4"/><linearGradient id="linear-gradient-41" x1="-5775.35" y1="2565.29" x2="-5772.35" y2="2568.29" xlink:href="#linear-gradient-5"/><linearGradient id="linear-gradient-42" x1="-3921.15" y1="1738.31" x2="-3917.13" y2="1742.33" xlink:href="#linear-gradient-3"/><linearGradient id="linear-gradient-43" x1="-4724.47" y1="1299.09" x2="-4720.27" y2="1303.29" xlink:href="#linear-gradient-4"/><linearGradient id="linear-gradient-44" x1="-5718.52" y1="2448.1" x2="-5715.52" y2="2451.1" xlink:href="#linear-gradient-5"/><linearGradient id="linear-gradient-45" x1="-3916.98" y1="1769.96" x2="-3912.95" y2="1773.98" xlink:href="#linear-gradient-3"/><linearGradient id="linear-gradient-46" x1="-4716.51" y1="1335.13" x2="-4712.31" y2="1339.34" xlink:href="#linear-gradient-4"/><linearGradient id="linear-gradient-47" x1="-5691.19" y1="2506.24" x2="-5688.19" y2="2509.24" xlink:href="#linear-gradient-5"/><linearGradient id="linear-gradient-48" x1="-3911.84" y1="1750.31" x2="-3907.82" y2="1754.33" xlink:href="#linear-gradient-3"/><linearGradient id="linear-gradient-49" x1="-4711.1" y1="1314.53" x2="-4706.89" y2="1318.73" xlink:href="#linear-gradient-4"/><linearGradient id="linear-gradient-50" x1="-5692.5" y1="2472.12" x2="-5689.49" y2="2475.12" xlink:href="#linear-gradient-5"/><linearGradient id="linear-gradient-51" x1="-3968.99" y1="1796.51" x2="-3966.37" y2="1799.13" xlink:href="#linear-gradient-3"/><linearGradient id="linear-gradient-52" x1="-4784.33" y1="1352.56" x2="-4781.59" y2="1355.3" xlink:href="#linear-gradient-4"/><linearGradient id="linear-gradient-53" x1="-5781.16" y1="2540.91" x2="-5779.2" y2="2542.87" xlink:href="#linear-gradient-5"/><linearGradient id="linear-gradient-54" x1="-3978.79" y1="1806.4" x2="-3976.17" y2="1809.02" xlink:href="#linear-gradient-3"/><linearGradient id="linear-gradient-55" x1="-4796.73" y1="1361.29" x2="-4793.99" y2="1364.02" xlink:href="#linear-gradient-4"/><linearGradient id="linear-gradient-56" x1="-5795.13" y1="2556.24" x2="-5793.17" y2="2558.2" xlink:href="#linear-gradient-5"/><linearGradient id="linear-gradient-57" x1="-3950.91" y1="1791.95" x2="-3948.29" y2="1794.57" xlink:href="#linear-gradient-3"/><linearGradient id="linear-gradient-58" x1="-4760.46" y1="1351.64" x2="-4757.72" y2="1354.38" xlink:href="#linear-gradient-4"/><linearGradient id="linear-gradient-59" x1="-5747.25" y1="2537.32" x2="-5745.29" y2="2539.27" xlink:href="#linear-gradient-5"/><linearGradient id="linear-gradient-60" x1="-3938.76" y1="1785.73" x2="-3936.14" y2="1788.35" xlink:href="#linear-gradient-3"/><linearGradient id="linear-gradient-61" x1="-4744.65" y1="1347.52" x2="-4741.91" y2="1350.26" xlink:href="#linear-gradient-4"/><linearGradient id="linear-gradient-62" x1="-5726.34" y1="2529.2" x2="-5724.39" y2="2531.16" xlink:href="#linear-gradient-5"/><linearGradient id="linear-gradient-63" x1="-3950.36" y1="1774.91" x2="-3947.74" y2="1777.53" xlink:href="#linear-gradient-3"/><linearGradient id="linear-gradient-64" x1="-4760.99" y1="1332.88" x2="-4758.25" y2="1335.61" xlink:href="#linear-gradient-4"/><linearGradient id="linear-gradient-65" x1="-5756.29" y1="2506.73" x2="-5754.33" y2="2508.69" xlink:href="#linear-gradient-5"/><linearGradient id="linear-gradient-66" x1="-3928.23" y1="1748.18" x2="-3925.61" y2="1750.8" xlink:href="#linear-gradient-3"/><linearGradient id="linear-gradient-67" x1="-4733.34" y1="1308.3" x2="-4730.6" y2="1311.04" xlink:href="#linear-gradient-4"/><linearGradient id="linear-gradient-68" x1="-5727.38" y1="2464.19" x2="-5725.42" y2="2466.14" xlink:href="#linear-gradient-5"/><linearGradient id="linear-gradient-69" x1="-3925.22" y1="1726.78" x2="-3922.6" y2="1729.39" xlink:href="#linear-gradient-3"/><linearGradient id="linear-gradient-70" x1="-4730.9" y1="1285.26" x2="-4728.16" y2="1288" xlink:href="#linear-gradient-4"/><linearGradient id="linear-gradient-71" x1="-5734.03" y1="2426.36" x2="-5732.08" y2="2428.32" xlink:href="#linear-gradient-5"/><linearGradient id="linear-gradient-72" x1="-3911.42" y1="1738.49" x2="-3908.8" y2="1741.11" xlink:href="#linear-gradient-3"/><linearGradient id="linear-gradient-73" x1="-4711.54" y1="1301.4" x2="-4708.81" y2="1304.13" xlink:href="#linear-gradient-4"/><linearGradient id="linear-gradient-74" x1="-5699.1" y1="2451.01" x2="-5697.14" y2="2452.96" xlink:href="#linear-gradient-5"/><linearGradient id="linear-gradient-75" x1="-3908.99" y1="1764.09" x2="-3906.37" y2="1766.71" xlink:href="#linear-gradient-3"/><linearGradient id="linear-gradient-76" x1="-4706.37" y1="1330.33" x2="-4703.64" y2="1333.07" xlink:href="#linear-gradient-4"/><linearGradient id="linear-gradient-77" x1="-5678.91" y1="2497.78" x2="-5676.96" y2="2499.74" xlink:href="#linear-gradient-5"/><linearGradient id="linear-gradient-78" x1="-3920.55" y1="1787.23" x2="-3916.53" y2="1791.25" xlink:href="#linear-gradient-3"/><linearGradient id="linear-gradient-79" x1="-4720.01" y1="1353.46" x2="-4715.81" y2="1357.66" xlink:href="#linear-gradient-4"/><linearGradient id="linear-gradient-80" x1="-5688.14" y1="2536.45" x2="-5685.14" y2="2539.46" xlink:href="#linear-gradient-5"/><linearGradient id="linear-gradient-81" x1="-3954.75" y1="1802.41" x2="-3948.29" y2="1808.87" xlink:href="#linear-gradient-3"/><linearGradient id="linear-gradient-82" x1="-4764.47" y1="1362.68" x2="-4757.72" y2="1369.43" xlink:href="#linear-gradient-4"/><linearGradient id="linear-gradient-83" x1="-5747.69" y1="2554.92" x2="-5742.87" y2="2559.75" xlink:href="#linear-gradient-5"/><linearGradient id="linear-gradient-84" x1="-3932.51" y1="1791.19" x2="-3926.05" y2="1797.66" xlink:href="#linear-gradient-3"/><linearGradient id="linear-gradient-85" x1="-4735.51" y1="1355.34" x2="-4728.76" y2="1362.09" xlink:href="#linear-gradient-4"/><linearGradient id="linear-gradient-86" x1="-5709.3" y1="2540.39" x2="-5704.48" y2="2545.21" xlink:href="#linear-gradient-5"/><linearGradient id="linear-gradient-87" x1="-3991.56" y1="1798.58" x2="-3987.62" y2="1802.51" xlink:href="#linear-gradient-3"/><linearGradient id="linear-gradient-88" x1="-4814.29" y1="1349.81" x2="-4810.17" y2="1353.93" xlink:href="#linear-gradient-4"/><linearGradient id="linear-gradient-89" x1="-5825.27" y1="2538.79" x2="-5822.33" y2="2541.73" xlink:href="#linear-gradient-5"/><linearGradient id="linear-gradient-90" x1="-3947.86" y1="1783.37" x2="-3944.92" y2="1786.32" xlink:href="#linear-gradient-3"/><linearGradient id="linear-gradient-91" x1="-4756.99" y1="1342.85" x2="-4753.91" y2="1345.93" xlink:href="#linear-gradient-4"/><linearGradient id="linear-gradient-92" x1="-5746.09" y1="2522.6" x2="-5743.89" y2="2524.8" xlink:href="#linear-gradient-5"/><mask id="mask-2" x="17.56" y="93.18" width="6.44" height="6.44" maskUnits="userSpaceOnUse"><circle class="cls-2" cx="20.79" cy="96.4" r="3.22"/></mask><mask id="mask-3" x="52.56" y="104.81" width="6.44" height="6.44" maskUnits="userSpaceOnUse"><circle class="cls-13" cx="55.79" cy="108.03" r="3.22"/></mask><mask id="mask-4" x="114.64" y="101.96" width="6.44" height="6.45" maskUnits="userSpaceOnUse"><circle class="cls-19" cx="117.87" cy="105.18" r="3.22"/></mask><mask id="mask-5" x="122.55" y="94.74" width="6.44" height="6.45" maskUnits="userSpaceOnUse"><circle class="cls-20" cx="125.77" cy="97.96" r="3.22"/></mask><mask id="mask-6" x="83.83" y="120.21" width="6.44" height="6.45" maskUnits="userSpaceOnUse"><circle class="cls-21" cx="87.05" cy="123.43" r="3.22"/></mask><mask id="mask-7" x="98.45" y="102.2" width="7.37" height="7.37" maskUnits="userSpaceOnUse"><circle class="cls-22" cx="102.14" cy="105.89" r="3.69"/></mask><mask id="mask-8" x="42.96" y="92.33" width="6.57" height="6.57" maskUnits="userSpaceOnUse"><circle class="cls-23" cx="46.25" cy="95.62" r="3.29"/></mask><mask id="mask-9" x="56.31" y="130.59" width="10.23" height="10.23" maskUnits="userSpaceOnUse"><circle class="cls-24" cx="61.43" cy="135.71" r="5.12"/></mask><mask id="mask-10" x="74.35" y="120.44" width="2.24" height="2.24" maskUnits="userSpaceOnUse"><circle class="cls-25" cx="75.47" cy="121.56" r="1.12"/></mask><mask id="mask-11" x="83.51" y="105.63" width="2.24" height="2.24" maskUnits="userSpaceOnUse"><circle class="cls-3" cx="84.63" cy="106.75" r="1.12"/></mask><mask id="mask-12" x="123.53" y="107.29" width="2.24" height="2.24" maskUnits="userSpaceOnUse"><circle class="cls-4" cx="124.65" cy="108.41" r="1.12"/></mask><mask id="mask-13" x="131.95" y="85.78" width="2.24" height="2.24" maskUnits="userSpaceOnUse"><circle class="cls-5" cx="133.07" cy="86.9" r="1.12"/></mask><mask id="mask-14" x="96.75" y="99.42" width="2.24" height="2.24" maskUnits="userSpaceOnUse"><circle class="cls-6" cx="97.87" cy="100.54" r="1.12"/></mask><mask id="mask-15" x="30.85" y="92.63" width="2.24" height="2.24" maskUnits="userSpaceOnUse"><circle class="cls-7" cx="31.97" cy="93.75" r="1.12"/></mask><mask id="mask-16" x="32.45" y="119.84" width="2.24" height="2.24" maskUnits="userSpaceOnUse"><circle class="cls-8" cx="33.57" cy="120.96" r="1.12"/></mask><mask id="mask-17" x="17.57" y="82.4" width="2.24" height="2.24" maskUnits="userSpaceOnUse"><circle class="cls-9" cx="18.68" cy="83.52" r="1.12"/></mask><mask id="mask-18" x="71.79" y="102.13" width="2.24" height="2.24" maskUnits="userSpaceOnUse"><circle class="cls-10" cx="72.91" cy="103.25" r="1.12"/></mask><mask id="mask-19" x="71.79" y="127.33" width="2.24" height="2.24" maskUnits="userSpaceOnUse"><circle class="cls-11" cx="72.91" cy="128.45" r="1.12"/></mask><mask id="mask-20" x="101.43" y="112.9" width="2.24" height="2.24" maskUnits="userSpaceOnUse"><circle class="cls-12" cx="102.55" cy="114.02" r="1.12"/></mask><mask id="mask-21" x="51.86" y="129.96" width="2.24" height="2.24" maskUnits="userSpaceOnUse"><circle class="cls-14" cx="52.98" cy="131.08" r="1.12"/></mask><mask id="mask-22" x="35.67" y="24.88" width="68.18" height="68.18" maskUnits="userSpaceOnUse"><circle class="cls-15" cx="69.76" cy="58.97" r="34.09"/></mask><radialGradient id="radial-gradient-36" cx="69.76" cy="59.05" r="26.73" gradientUnits="userSpaceOnUse"><stop offset="0" stop-color="#ffdd15"/><stop offset="0.48" stop-color="#ffdb15"/><stop offset="0.65" stop-color="#fed416"/><stop offset="0.77" stop-color="#fdc917"/><stop offset="0.87" stop-color="#fbb819"/><stop offset="0.95" stop-color="#f8a21c"/><stop offset="1" stop-color="#f6921e"/></radialGradient><mask id="mask-23" x="75.57" y="65.01" width="18.11" height="18.11" maskUnits="userSpaceOnUse"><path class="cls-16" d="M93.29,65.33c1.32,1.32-.71,7.08-5.51,11.88S77.21,84,75.9,82.72s1.51-6.28,6.31-11.08S92,64,93.29,65.33Z"/></mask><mask id="mask-24" x="45.42" y="33.4" width="32.01" height="30.64" maskUnits="userSpaceOnUse"><ellipse class="cls-17" cx="61.43" cy="48.72" rx="18.35" ry="12.41" transform="translate(-16.85 53.11) rotate(-41.63)"/></mask><mask id="mask-25" x="30.95" y="20.24" width="77.63" height="77.63" maskUnits="userSpaceOnUse"><path class="cls-18" d="M101.37,73.26l-7.45-2.77q.23-.48.43-1Zm-9.59.94-.32.45L95,76.82Zm3.14-6.12,3.33.92-3.18-1.35Zm1.13-4.23c0,.26-.1.52-.15.78l5.9.76Zm.23-1.51c0,.34-.09.68-.14,1l7.69.58Zm.19-4.1c0,.27,0,.54,0,.81s0,.54,0,.81l12.1-.81Zm-4.73-14.4.44.66,4.71-3.63Zm2.82,5.22c.13.33.26.66.38,1l7.22-3.31ZM96,54.18c0,.18.06.36.1.55l4.06-1Zm-2.11-6.54,3-1.71-3.21,1.29ZM81.2,34.89,84,27.44l-3.73,7Zm2.42,1.31,4.85-10-6.13,9.28Q83,35.81,83.62,36.19ZM96.44,57.37q0,.28,0,.56l4.15-.5Zm-9.1-18.47,6-8.37L86.27,38C86.63,38.31,87,38.61,87.33,38.91Zm-10-5.5,2.25-11.69L75.78,33C76.3,33.12,76.81,33.26,77.31,33.4Zm1.47.48.92-3.33-1.35,3.18Zm10.43,6.85,8-9.12-9.12,8Q88.67,40.14,89.22,40.73Zm4,5.53,9.86-6.68L92.43,44.89C92.71,45.34,93,45.79,93.24,46.26ZM75.33,32.9l.76-5.9-1.54,5.75Zm21.1,24.33,10.2-1.65-10.32.28Q96.38,56.54,96.43,57.23Zm-5-13.79,5.85-5-6.47,4.2C91.05,42.89,91.26,43.16,91.46,43.44Zm4.27,9.25L106.23,49,95.34,51.26Q95.55,52,95.73,52.69ZM44.59,50l-3.33-.92,3.18,1.35Zm.57-1.45q.21-.49.43-1l-7.45-2.77Zm-1.7,5.68c0-.26.1-.52.15-.78l-5.9-.76Zm-.31,2.33-5.43-.07,5.38.79Q43.11,56.94,43.14,56.58Zm.09-.82c0-.34.09-.68.15-1l-7.69-.58Zm-.15,5c0-.18,0-.37,0-.56l-4.15.5Zm46.73,16-.37.41,3.29,2.58ZM47.73,43.91l.32-.45-3.57-2.17ZM96.43,60.8q0,.36-.06.72l5.43.07ZM49.71,41.37l.37-.41L46.8,38.37ZM52.08,79.1l-.41-.37L49.08,82ZM84.9,37l.45.32,2.17-3.57ZM54.62,81.08l-.45-.32L52,84.33Zm-.06-44,.66-.44-3.64-4.71ZM87.44,39l.41.37,2.58-3.29ZM85,81l-.66.44,3.64,4.71ZM47.78,74.26l-.44-.66-4.71,3.64Zm-2.19-3.79-3,1.71,3.21-1.29Zm4.08,6.21-.47-.55-3.89,3.79ZM45,69q-.2-.49-.38-1l-7.22,3.31Zm-1.49-5.12c0-.18-.07-.36-.1-.55l-4.06,1ZM89.86,41.43l.47.55,3.89-3.79Zm-24.4,44-.58,7.69,1.6-7.54Zm1.84.23-.07,5.43L68,85.72Zm2.47.12H69l.81,12.1.81-12.1Zm1.12,0,.5,4.15.06-4.18Zm3.2-.32,1,4.06-.44-4.15Zm-2.5.29,1.65,10.19-.28-10.32Q72.27,85.67,71.58,85.72ZM52.19,79.19l-6,8.37,7.1-7.5Q52.71,79.65,52.19,79.19Zm12,6-.76,5.9L65,85.35ZM55.9,81.91l-4.85,10,6.13-9.28C56.75,82.41,56.32,82.17,55.9,81.91Zm6.31,2.79L60,96.39,63.74,85.1Q63,84.92,62.21,84.7Zm-1.47-.48-.92,3.33,1.35-3.18Zm-2.41-1-2.77,7.45,3.73-7ZM89.9,76.62l8.37,6-7.5-7.1C90.5,75.93,90.2,76.28,89.9,76.62Zm-1.82,1.89,9.12,8-8-9.12Q88.67,78,88.08,78.51Zm4.54-5.6,10,4.85-9.28-6.13C93.12,72.06,92.88,72.49,92.62,72.91Zm2.79-6.31,11.69,2.25L95.81,65.07C95.69,65.59,95.56,66.1,95.41,66.61Zm-8.57,13,3.79,3.89-3.24-4.36ZM76.12,85l3.65,10.5L77.55,84.63Q76.84,84.84,76.12,85Zm5-1.79,1.71,3L81.59,83Zm-2.41,1,3.31,7.22-2.32-7.6Zm6.61-3.48,5,5.85-4.2-6.47Zm-2.82,1.78,6.68,9.86L83.92,81.72C83.47,82,83,82.27,82.55,82.53Zm-38.44-31L32.42,49.24,43.71,53C43.83,52.51,44,52,44.11,51.5ZM63.4,33.08l-3.65-10.5L62,33.47Q62.68,33.26,63.4,33.08Zm-2.64.79-3.31-7.22,2.32,7.6ZM57,35.57l-6.68-9.86L55.6,36.38Q56.27,36,57,35.57Zm8.47-2.91-1-4.06.44,4.15ZM54.15,37.35l-5-5.85L53.33,38Zm4.2-2.48-1.71-3,1.29,3.21Zm13.88-2.44L72.3,27l-.79,5.37Zm-2.47-.11h.81l-.81-12.1L69,32.33Zm-1.82.06L66.29,22.19l.28,10.32C67,32.46,67.48,32.41,67.94,32.38Zm.7,0-.5-4.15-.06,4.18ZM43.79,65.41l-10.5,3.65,10.89-2.22Q44,66.14,43.79,65.41Zm6.51,12-8,9.12,9.12-8Q50.85,78,50.3,77.37ZM43,59.05c0-.27,0-.54,0-.81l-12.1.81,12.1.81C43,59.59,43,59.32,43,59.05Zm.06,1.82L32.9,62.52l10.32-.28Q43.14,61.56,43.09,60.87Zm5,13.79-5.85,5,6.47-4.2Q48.36,75.08,48.06,74.66Zm-1.78-2.82-9.86,6.68,10.66-5.31C46.81,72.76,46.54,72.31,46.28,71.84Zm6.4-33.36L48.89,34.6,52.14,39Zm-3.07,3-8.37-6,7.5,7.1Q49.17,42,49.62,41.48Zm24.45-8.81L74.65,25,73,32.52ZM51.44,39.59l-9.12-8,8,9.12Q50.85,40.14,51.44,39.59Zm-4.54,5.6-10-4.84,9.28,6.13C46.4,46,46.64,45.61,46.9,45.19Z"/></mask><radialGradient id="radial-gradient-37" cx="69.76" cy="59.05" r="38.81" gradientUnits="userSpaceOnUse"><stop offset="0.13" stop-color="#f6921e"/><stop offset="1" stop-color="#ffdd15"/></radialGradient><symbol id="New_Symbol" data-name="New Symbol" viewBox="0 0 257.01 223.64"><ellipse class="cls-26" cx="95.12" cy="100.46" rx="95.12" ry="79.67"/><ellipse class="cls-27" cx="151.78" cy="111.82" rx="119.53" ry="80.57" transform="translate(-19.1 191.45) rotate(-61.36)"/><ellipse class="cls-28" cx="167.61" cy="125.74" rx="57.37" ry="93.72" transform="translate(-12.47 232.87) rotate(-67.62)"/></symbol><symbol id="New_Symbol_2" data-name="New Symbol 2" viewBox="0 0 257.01 223.64"><ellipse class="cls-32" cx="95.12" cy="100.46" rx="95.12" ry="79.67"/><ellipse class="cls-33" cx="151.78" cy="111.82" rx="119.53" ry="80.57" transform="translate(-19.1 191.45) rotate(-61.36)"/><ellipse class="cls-34" cx="167.61" cy="125.74" rx="57.37" ry="93.72" transform="translate(-12.47 232.87) rotate(-67.62)"/></symbol><symbol id="New_Symbol_3" data-name="New Symbol 3" viewBox="0 0 174.77 164.37"><ellipse class="cls-35" cx="68.47" cy="72.31" rx="68.47" ry="57.35"/><ellipse class="cls-36" cx="109.26" cy="80.49" rx="86.04" ry="58" transform="translate(-13.75 137.81) rotate(-61.36)"/><ellipse class="cls-37" cx="109.26" cy="118.34" rx="41.3" ry="67.46" transform="translate(-41.76 174.32) rotate(-67.62)"/></symbol></defs><title>Ресурс 13weather</title><g class="cls-38"><g id="Слой_2" data-name="Слой 2"><g id="Layer_2" data-name="Layer 2"><g class="cls-39"><circle class="cls-40" cx="75.47" cy="75.47" r="75.47"/></g><path class="cls-40" d="M52.07,103a2.25,2.25,0,1,0,3.18-3.17c-1.5-1.5-5.18-2-5.18-2S50.58,101.47,52.07,103Z"/><path class="cls-41" d="M52.28,102.55a2.11,2.11,0,0,0,3.18,0c.29-.31.91-1.65-.69-3s-4.63-1.67-4.63-1.67S50.77,101.16,52.28,102.55Z"/><path class="cls-42" d="M52.53,101.59c1.64,1.38,2.69.67,3,.41s.77-1.36-.82-2.55a12.67,12.67,0,0,0-4.4-1.59A9.11,9.11,0,0,0,52.53,101.59Z"/><path class="cls-43" d="M52.42,99.47c.9.5,1.29.23,1.38.14s.19-.5-.67-.92A8.4,8.4,0,0,0,51,98.12,5.15,5.15,0,0,0,52.42,99.47Z"/><path class="cls-40" d="M67.3,124a2.25,2.25,0,1,0,3.17-3.18c-1.5-1.5-5.18-2-5.18-2S65.8,122.48,67.3,124Z"/><path class="cls-44" d="M67.51,123.56a2.11,2.11,0,0,0,3.18,0c.29-.31.91-1.65-.69-3s-4.63-1.67-4.63-1.67S66,122.18,67.51,123.56Z"/><path class="cls-45" d="M67.75,122.61c1.64,1.38,2.7.67,3,.41s.77-1.36-.82-2.55a12.7,12.7,0,0,0-4.4-1.59A9.09,9.09,0,0,0,67.75,122.61Z"/><path class="cls-46" d="M67.64,120.48c.9.5,1.29.23,1.38.14s.18-.5-.67-.92a8.39,8.39,0,0,0-2.17-.56A5.12,5.12,0,0,0,67.64,120.48Z"/><path class="cls-40" d="M37.6,96.17A2.25,2.25,0,1,0,40.77,93c-1.5-1.5-5.18-2-5.18-2S36.1,94.67,37.6,96.17Z"/><path class="cls-47" d="M37.81,95.75a2.11,2.11,0,0,0,3.18,0c.29-.31.91-1.65-.69-3S35.66,91,35.66,91,36.29,94.37,37.81,95.75Z"/><path class="cls-48" d="M38.05,94.8c1.64,1.39,2.69.67,3,.41s.77-1.36-.82-2.55a12.69,12.69,0,0,0-4.4-1.59A9.11,9.11,0,0,0,38.05,94.8Z"/><path class="cls-49" d="M37.94,92.67c.91.5,1.29.23,1.38.14s.18-.5-.67-.92a8.46,8.46,0,0,0-2.17-.56A5.15,5.15,0,0,0,37.94,92.67Z"/><path class="cls-40" d="M93.92,125a2.25,2.25,0,1,0,3.18-3.18c-1.5-1.5-5.18-2-5.18-2S92.42,123.49,93.92,125Z"/><path class="cls-50" d="M94.13,124.57a2.11,2.11,0,0,0,3.18,0c.29-.31.91-1.65-.69-3S92,119.86,92,119.86,92.61,123.19,94.13,124.57Z"/><path class="cls-51" d="M94.37,123.61c1.64,1.39,2.69.67,3,.41s.77-1.36-.82-2.55a12.68,12.68,0,0,0-4.4-1.59A9.11,9.11,0,0,0,94.37,123.61Z"/><path class="cls-52" d="M94.26,121.49c.9.5,1.29.23,1.38.14s.18-.5-.68-.92a8.45,8.45,0,0,0-2.17-.56A5.13,5.13,0,0,0,94.26,121.49Z"/><path class="cls-40" d="M108.93,114.9a2.25,2.25,0,1,0,3.17-3.18c-1.5-1.5-5.18-2-5.18-2S107.43,113.41,108.93,114.9Z"/><path class="cls-53" d="M109.14,114.49a2.11,2.11,0,0,0,3.18,0c.29-.31.91-1.65-.69-3s-4.64-1.67-4.64-1.67S107.62,113.1,109.14,114.49Z"/><path class="cls-54" d="M109.38,113.53c1.64,1.39,2.69.67,3,.41s.77-1.36-.82-2.55a12.71,12.71,0,0,0-4.4-1.59A9.1,9.1,0,0,0,109.38,113.53Z"/><path class="cls-55" d="M109.27,111.41c.91.5,1.29.23,1.38.14s.18-.5-.68-.92a8.42,8.42,0,0,0-2.17-.56A5.16,5.16,0,0,0,109.27,111.41Z"/><path class="cls-40" d="M101.58,98.82a2.25,2.25,0,1,0,3.18-3.17c-1.5-1.5-5.18-2-5.18-2S100.08,97.32,101.58,98.82Z"/><path class="cls-56" d="M101.79,98.4a2.11,2.11,0,0,0,3.18,0c.29-.31.91-1.65-.69-3s-4.63-1.67-4.63-1.67S100.27,97,101.79,98.4Z"/><path class="cls-57" d="M102,97.45c1.64,1.39,2.7.67,3,.41s.77-1.36-.82-2.55a12.71,12.71,0,0,0-4.4-1.59A9.11,9.11,0,0,0,102,97.45Z"/><path class="cls-58" d="M101.92,95.32c.9.5,1.29.24,1.38.14s.19-.5-.67-.92a8.41,8.41,0,0,0-2.17-.56A5.14,5.14,0,0,0,101.92,95.32Z"/><path class="cls-40" d="M75.84,111.92A2.25,2.25,0,1,0,79,108.75c-1.5-1.5-5.18-2-5.18-2S74.34,110.43,75.84,111.92Z"/><path class="cls-59" d="M76.05,111.51a2.11,2.11,0,0,0,3.18,0c.29-.31.91-1.65-.69-3s-4.63-1.67-4.63-1.67S74.53,110.12,76.05,111.51Z"/><path class="cls-60" d="M76.3,110.55c1.64,1.39,2.69.67,3,.41s.77-1.36-.82-2.55a12.69,12.69,0,0,0-4.4-1.59A9.11,9.11,0,0,0,76.3,110.55Z"/><path class="cls-61" d="M76.19,108.43c.9.5,1.29.23,1.38.14s.18-.5-.67-.92a8.39,8.39,0,0,0-2.17-.56A5.13,5.13,0,0,0,76.19,108.43Z"/><path class="cls-40" d="M90.86,108.45a3.61,3.61,0,1,0,5.1-5.1c-2.41-2.41-8.32-3.22-8.32-3.22S88.45,106,90.86,108.45Z"/><path class="cls-62" d="M91.19,107.79a3.39,3.39,0,0,0,5.1-.07c.46-.5,1.47-2.64-1.11-4.82s-7.45-2.69-7.45-2.69S88.75,105.56,91.19,107.79Z"/><path class="cls-63" d="M91.59,106.25c2.64,2.23,4.33,1.08,4.76.66s1.24-2.18-1.32-4.09C92.66,101,88,100.25,88,100.25S89.16,104.2,91.59,106.25Z"/><path class="cls-64" d="M91.41,102.84c1.45.8,2.08.37,2.22.22s.3-.8-1.08-1.48a13.45,13.45,0,0,0-3.49-.9A8.3,8.3,0,0,0,91.41,102.84Z"/><path class="cls-40" d="M47.89,116.24a3.61,3.61,0,1,0,5.1-5.1c-2.41-2.41-8.32-3.22-8.32-3.22S45.48,113.83,47.89,116.24Z"/><path class="cls-65" d="M48.22,115.57a3.39,3.39,0,0,0,5.11-.07c.46-.5,1.47-2.64-1.11-4.82S44.77,108,44.77,108,45.78,113.34,48.22,115.57Z"/><path class="cls-66" d="M48.62,114c2.64,2.23,4.33,1.08,4.76.66s1.24-2.18-1.32-4.09C49.69,108.82,45,108,45,108S46.19,112,48.62,114Z"/><path class="cls-67" d="M48.44,110.62c1.45.8,2.08.38,2.22.22s.3-.8-1.08-1.48a13.56,13.56,0,0,0-3.49-.9A8.25,8.25,0,0,0,48.44,110.62Z"/><path class="cls-40" d="M115,97.5a3.61,3.61,0,1,0,5.1-5.1c-2.41-2.41-8.32-3.22-8.32-3.22S112.6,95.09,115,97.5Z"/><path class="cls-68" d="M115.34,96.83a3.39,3.39,0,0,0,5.1-.07c.46-.5,1.47-2.65-1.11-4.82s-7.45-2.69-7.45-2.69S112.9,94.61,115.34,96.83Z"/><path class="cls-69" d="M115.74,95.29c2.64,2.23,4.33,1.08,4.76.66s1.24-2.18-1.32-4.09c-2.38-1.77-7.07-2.56-7.07-2.56S113.31,93.24,115.74,95.29Z"/><path class="cls-70" d="M115.56,91.88c1.45.8,2.08.38,2.22.22s.3-.8-1.08-1.48a13.5,13.5,0,0,0-3.49-.9A8.26,8.26,0,0,0,115.56,91.88Z"/><path class="cls-40" d="M64.54,100.55a1.65,1.65,0,1,0,2.33-2.33c-1.1-1.1-3.79-1.47-3.79-1.47S63.44,99.45,64.54,100.55Z"/><path class="cls-71" d="M64.69,100.24a1.54,1.54,0,0,0,2.33,0c.21-.23.67-1.21-.5-2.2a7.92,7.92,0,0,0-3.4-1.22A7.62,7.62,0,0,0,64.69,100.24Z"/><path class="cls-72" d="M64.87,99.54c1.2,1,2,.49,2.17.3s.57-1-.6-1.87a9.31,9.31,0,0,0-3.23-1.16A6.7,6.7,0,0,0,64.87,99.54Z"/><path class="cls-73" d="M64.79,98c.66.36.95.17,1,.1s.14-.36-.49-.68A6.2,6.2,0,0,0,63.72,97,3.79,3.79,0,0,0,64.79,98Z"/><path class="cls-40" d="M62.09,112.26a2.25,2.25,0,1,0,3.18-3.17c-1.5-1.5-5.18-2-5.18-2S60.6,110.76,62.09,112.26Z"/><path class="cls-74" d="M62.3,111.84a2.11,2.11,0,0,0,3.18,0c.29-.31.91-1.65-.69-3s-4.63-1.67-4.63-1.67S60.79,110.46,62.3,111.84Z"/><path class="cls-75" d="M62.55,110.88c1.64,1.38,2.69.67,3,.41s.77-1.36-.82-2.55a12.68,12.68,0,0,0-4.4-1.59A9.12,9.12,0,0,0,62.55,110.88Z"/><path class="cls-76" d="M62.44,108.76c.9.5,1.29.23,1.38.14s.18-.5-.67-.92a8.43,8.43,0,0,0-2.17-.56A5.14,5.14,0,0,0,62.44,108.76Z"/><path class="cls-40" d="M123.15,116.34a2.25,2.25,0,1,0,3.17-3.17c-1.5-1.5-5.18-2-5.18-2S121.65,114.84,123.15,116.34Z"/><path class="cls-77" d="M123.36,115.92a2.11,2.11,0,0,0,3.18,0c.29-.31.91-1.65-.69-3s-4.63-1.67-4.63-1.67S121.84,114.54,123.36,115.92Z"/><path class="cls-78" d="M123.61,115c1.64,1.39,2.69.67,3,.41s.77-1.36-.82-2.55a12.66,12.66,0,0,0-4.4-1.59A9.1,9.1,0,0,0,123.61,115Z"/><path class="cls-79" d="M123.49,112.84c.91.5,1.29.23,1.38.14s.19-.5-.67-.92a8.4,8.4,0,0,0-2.17-.56A5.16,5.16,0,0,0,123.49,112.84Z"/><path class="cls-40" d="M31,103.32a2.25,2.25,0,1,0,3.18-3.17c-1.5-1.5-5.18-2-5.18-2S29.49,101.82,31,103.32Z"/><path class="cls-80" d="M31.2,102.9a2.11,2.11,0,0,0,3.18,0c.29-.31.91-1.65-.69-3s-4.63-1.67-4.63-1.67S29.68,101.52,31.2,102.9Z"/><path class="cls-81" d="M31.45,101.95c1.64,1.39,2.7.67,3,.41s.77-1.36-.82-2.55a12.7,12.7,0,0,0-4.4-1.59A9.11,9.11,0,0,0,31.45,101.95Z"/><path class="cls-82" d="M31.34,99.82c.91.5,1.29.23,1.38.14s.18-.5-.68-.92a8.43,8.43,0,0,0-2.17-.56A5.16,5.16,0,0,0,31.34,99.82Z"/><path class="cls-40" d="M53.27,127.31a2.25,2.25,0,1,0,3.18-3.17c-1.5-1.5-5.18-2-5.18-2S51.77,125.81,53.27,127.31Z"/><path class="cls-83" d="M53.47,126.89a2.11,2.11,0,0,0,3.18,0c.29-.31.91-1.65-.69-3s-4.63-1.67-4.63-1.67S52,125.51,53.47,126.89Z"/><path class="cls-84" d="M53.72,125.93c1.64,1.39,2.69.67,3,.41s.77-1.36-.82-2.55a12.69,12.69,0,0,0-4.4-1.59A9.12,9.12,0,0,0,53.72,125.93Z"/><path class="cls-85" d="M53.61,123.81c.9.5,1.29.23,1.38.14s.19-.5-.67-.92a8.45,8.45,0,0,0-2.17-.56A5.14,5.14,0,0,0,53.61,123.81Z"/><path class="cls-40" d="M34,117.88a2.25,2.25,0,1,0,3.18-3.18c-1.5-1.5-5.18-2-5.18-2S32.47,116.38,34,117.88Z"/><path class="cls-86" d="M34.18,117.47a2.11,2.11,0,0,0,3.18,0c.29-.31.91-1.65-.69-3S32,112.75,32,112.75,32.66,116.08,34.18,117.47Z"/><path class="cls-87" d="M34.43,116.51c1.64,1.38,2.69.67,3,.41s.77-1.36-.82-2.55a12.66,12.66,0,0,0-4.4-1.59A9.11,9.11,0,0,0,34.43,116.51Z"/><path class="cls-88" d="M34.32,114.39c.91.5,1.29.23,1.38.13s.19-.5-.67-.92a8.39,8.39,0,0,0-2.17-.56A5.18,5.18,0,0,0,34.32,114.39Z"/><path class="cls-40" d="M111.47,106.35a1.46,1.46,0,1,0,2.07-2.07c-1-1-3.37-1.3-3.37-1.3S110.5,105.38,111.47,106.35Z"/><path class="cls-89" d="M111.61,106.08a1.37,1.37,0,0,0,2.07,0c.19-.2.6-1.07-.45-2a7.06,7.06,0,0,0-3-1.09A6.77,6.77,0,0,0,111.61,106.08Z"/><path class="cls-90" d="M111.77,105.46c1.07.9,1.75.44,1.93.26s.51-.88-.53-1.66a8.25,8.25,0,0,0-2.87-1A5.94,5.94,0,0,0,111.77,105.46Z"/><path class="cls-91" d="M111.7,104.08c.59.33.84.15.9.09s.12-.32-.44-.6a5.48,5.48,0,0,0-1.41-.37A3.32,3.32,0,0,0,111.7,104.08Z"/><path class="cls-40" d="M126.29,106a1.46,1.46,0,1,0,2.07-2.07c-1-1-3.37-1.3-3.37-1.3S125.31,105,126.29,106Z"/><path class="cls-92" d="M126.43,105.72a1.37,1.37,0,0,0,2.07,0c.19-.2.6-1.07-.45-2a7,7,0,0,0-3-1.09A6.78,6.78,0,0,0,126.43,105.72Z"/><path class="cls-93" d="M126.59,105.1c1.07.9,1.76.44,1.93.27s.5-.88-.53-1.66a8.25,8.25,0,0,0-2.87-1A5.93,5.93,0,0,0,126.59,105.1Z"/><path class="cls-94" d="M126.51,103.72c.59.32.84.15.9.09s.12-.32-.44-.6a5.48,5.48,0,0,0-1.41-.37A3.35,3.35,0,0,0,126.51,103.72Z"/><path class="cls-40" d="M95.06,116.11A1.46,1.46,0,1,0,97.13,114c-1-1-3.37-1.3-3.37-1.3S94.08,115.13,95.06,116.11Z"/><path class="cls-95" d="M95.2,115.84a1.37,1.37,0,0,0,2.07,0c.19-.2.59-1.07-.45-2a7.05,7.05,0,0,0-3-1.09A6.78,6.78,0,0,0,95.2,115.84Z"/><path class="cls-96" d="M95.36,115.21c1.07.9,1.75.44,1.93.27s.5-.88-.53-1.66a8.29,8.29,0,0,0-2.87-1A5.94,5.94,0,0,0,95.36,115.21Z"/><path class="cls-97" d="M95.29,113.83c.59.32.84.15.9.09s.12-.33-.44-.6a5.49,5.49,0,0,0-1.41-.36A3.33,3.33,0,0,0,95.29,113.83Z"/><path class="cls-40" d="M81.51,120.57a1.46,1.46,0,1,0,2.07-2.07c-1-1-3.37-1.3-3.37-1.3S80.54,119.59,81.51,120.57Z"/><path class="cls-98" d="M81.65,120.29a1.37,1.37,0,0,0,2.07,0c.19-.2.59-1.07-.45-2a7.06,7.06,0,0,0-3-1.09A6.76,6.76,0,0,0,81.65,120.29Z"/><path class="cls-99" d="M81.81,119.67c1.07.9,1.75.44,1.93.27s.5-.89-.53-1.66a8.26,8.26,0,0,0-2.87-1A5.94,5.94,0,0,0,81.81,119.67Z"/><path class="cls-100" d="M81.74,118.29c.59.33.84.15.9.09s.12-.33-.44-.6a5.46,5.46,0,0,0-1.41-.37A3.34,3.34,0,0,0,81.74,118.29Z"/><path class="cls-40" d="M81.09,105.18a1.46,1.46,0,1,0,2.07-2.07c-1-1-3.37-1.31-3.37-1.31S80.12,104.2,81.09,105.18Z"/><path class="cls-101" d="M81.23,104.91a1.37,1.37,0,0,0,2.07,0c.19-.2.59-1.07-.45-2a7,7,0,0,0-3-1.09A6.78,6.78,0,0,0,81.23,104.91Z"/><path class="cls-102" d="M81.39,104.28c1.07.9,1.76.44,1.93.26s.5-.88-.53-1.66a8.25,8.25,0,0,0-2.87-1A5.94,5.94,0,0,0,81.39,104.28Z"/><path class="cls-103" d="M81.32,102.9c.59.32.84.15.9.09s.12-.32-.44-.6a5.49,5.49,0,0,0-1.41-.37A3.33,3.33,0,0,0,81.32,102.9Z"/><path class="cls-40" d="M44.14,103.06A1.46,1.46,0,1,0,46.21,101c-1-1-3.37-1.31-3.37-1.31S43.16,102.09,44.14,103.06Z"/><path class="cls-104" d="M44.27,102.79a1.37,1.37,0,0,0,2.07,0c.19-.2.59-1.07-.45-2a7,7,0,0,0-3-1.09A6.78,6.78,0,0,0,44.27,102.79Z"/><path class="cls-105" d="M44.43,102.17c1.07.9,1.75.44,1.93.27s.5-.89-.53-1.66a8.23,8.23,0,0,0-2.87-1A5.93,5.93,0,0,0,44.43,102.17Z"/><path class="cls-106" d="M44.36,100.78c.59.32.84.15.9.09s.12-.32-.44-.6a5.52,5.52,0,0,0-1.41-.36A3.36,3.36,0,0,0,44.36,100.78Z"/><path class="cls-40" d="M25,91A1.46,1.46,0,1,0,27,88.9c-1-1-3.37-1.3-3.37-1.3S24,90,25,91Z"/><path class="cls-107" d="M25.09,90.7a1.37,1.37,0,0,0,2.07,0c.19-.2.59-1.07-.45-2a7,7,0,0,0-3-1.09A6.77,6.77,0,0,0,25.09,90.7Z"/><path class="cls-108" d="M25.25,90.07c1.07.9,1.75.44,1.93.27s.5-.89-.53-1.66a8.24,8.24,0,0,0-2.87-1A5.93,5.93,0,0,0,25.25,90.07Z"/><path class="cls-109" d="M25.17,88.69c.59.32.84.15.9.09s.12-.32-.44-.6a5.41,5.41,0,0,0-1.41-.37A3.35,3.35,0,0,0,25.17,88.69Z"/><path class="cls-40" d="M24.53,108.51a1.46,1.46,0,1,0,2.07-2.07c-1-1-3.37-1.3-3.37-1.3S23.55,107.53,24.53,108.51Z"/><path class="cls-110" d="M24.67,108.24a1.37,1.37,0,0,0,2.07,0c.19-.2.59-1.07-.45-2a7,7,0,0,0-3-1.09A6.77,6.77,0,0,0,24.67,108.24Z"/><path class="cls-111" d="M24.83,107.61c1.07.9,1.75.44,1.93.27s.5-.88-.54-1.66a8.26,8.26,0,0,0-2.87-1A5.91,5.91,0,0,0,24.83,107.61Z"/><path class="cls-112" d="M24.75,106.23c.59.33.84.15.9.09s.12-.32-.44-.6a5.46,5.46,0,0,0-1.41-.37A3.34,3.34,0,0,0,24.75,106.23Z"/><path class="cls-40" d="M43.21,127.24a1.46,1.46,0,1,0,2.07-2.07c-1-1-3.37-1.3-3.37-1.3S42.24,126.26,43.21,127.24Z"/><path class="cls-113" d="M43.35,127a1.37,1.37,0,0,0,2.07,0c.19-.2.59-1.07-.45-2a7,7,0,0,0-3-1.09A6.78,6.78,0,0,0,43.35,127Z"/><path class="cls-114" d="M43.51,126.34c1.07.9,1.75.44,1.93.26s.5-.88-.53-1.66a8.24,8.24,0,0,0-2.87-1A5.94,5.94,0,0,0,43.51,126.34Z"/><path class="cls-115" d="M43.43,125c.59.32.84.15.9.09s.12-.32-.44-.6a5.45,5.45,0,0,0-1.41-.37A3.36,3.36,0,0,0,43.43,125Z"/><path class="cls-40" d="M69.55,136.26a2.25,2.25,0,1,0,3.17-3.18c-1.5-1.5-5.18-2-5.18-2S68.05,134.76,69.55,136.26Z"/><path class="cls-116" d="M69.76,135.84a2.11,2.11,0,0,0,3.18,0c.29-.31.91-1.65-.69-3s-4.64-1.67-4.64-1.67S68.24,134.45,69.76,135.84Z"/><path class="cls-117" d="M70,134.88c1.64,1.39,2.7.67,3,.41s.77-1.36-.82-2.55a12.7,12.7,0,0,0-4.4-1.59A9.1,9.1,0,0,0,70,134.88Z"/><path class="cls-118" d="M69.9,132.76c.9.5,1.29.23,1.38.14s.18-.5-.68-.92a8.45,8.45,0,0,0-2.17-.56A5.14,5.14,0,0,0,69.9,132.76Z"/><path class="cls-40" d="M105.36,125.31a3.61,3.61,0,1,0,5.1-5.1c-2.41-2.41-8.32-3.22-8.32-3.22S102.95,122.91,105.36,125.31Z"/><path class="cls-119" d="M105.69,124.64a3.39,3.39,0,0,0,5.1-.07c.46-.5,1.47-2.65-1.11-4.82s-7.44-2.69-7.44-2.69S103.25,122.42,105.69,124.64Z"/><path class="cls-120" d="M106.09,123.11c2.64,2.23,4.33,1.08,4.76.66s1.24-2.18-1.32-4.09c-2.38-1.77-7.07-2.56-7.07-2.56S103.66,121.06,106.09,123.11Z"/><path class="cls-121" d="M105.91,119.69c1.45.8,2.08.38,2.22.22s.3-.8-1.09-1.48a13.52,13.52,0,0,0-3.49-.9A8.26,8.26,0,0,0,105.91,119.69Z"/><path class="cls-40" d="M80.69,133.59a3.61,3.61,0,1,0,5.1-5.1c-2.41-2.41-8.32-3.22-8.32-3.22S78.28,131.19,80.69,133.59Z"/><path class="cls-122" d="M81,132.92a3.39,3.39,0,0,0,5.1-.07c.46-.5,1.47-2.65-1.11-4.82s-7.45-2.69-7.45-2.69S78.59,130.7,81,132.92Z"/><path class="cls-123" d="M81.42,131.38c2.64,2.23,4.33,1.08,4.76.66s1.24-2.18-1.32-4.09c-2.38-1.77-7.07-2.56-7.07-2.56S79,129.34,81.42,131.38Z"/><path class="cls-124" d="M81.24,128c1.45.8,2.08.38,2.22.22s.3-.8-1.08-1.48a13.48,13.48,0,0,0-3.49-.9A8.26,8.26,0,0,0,81.24,128Z"/><path class="cls-40" d="M128.82,93.48a2.2,2.2,0,1,0,3.11-3.11c-1.47-1.47-5.07-2-5.07-2S127.35,92,128.82,93.48Z"/><path class="cls-125" d="M129,93.07a2.06,2.06,0,0,0,3.11,0c.28-.31.89-1.61-.68-2.94s-4.54-1.64-4.54-1.64S127.54,91.72,129,93.07Z"/><path class="cls-126" d="M129.27,92.13c1.61,1.36,2.64.66,2.9.4s.76-1.33-.8-2.49a12.43,12.43,0,0,0-4.31-1.56A8.92,8.92,0,0,0,129.27,92.13Z"/><path class="cls-127" d="M129.16,90.05c.89.49,1.27.23,1.35.13s.18-.49-.66-.9a8.21,8.21,0,0,0-2.12-.55A5.06,5.06,0,0,0,129.16,90.05Z"/><path class="cls-40" d="M86,113a1.65,1.65,0,1,0,2.33-2.33c-1.1-1.1-3.79-1.47-3.79-1.47S84.91,111.89,86,113Z"/><path class="cls-128" d="M86.16,112.68a1.54,1.54,0,0,0,2.33,0c.21-.23.67-1.21-.5-2.2a7.94,7.94,0,0,0-3.4-1.22A7.63,7.63,0,0,0,86.16,112.68Z"/><path class="cls-129" d="M86.34,112c1.2,1,2,.49,2.17.3s.57-1-.6-1.87a9.32,9.32,0,0,0-3.23-1.17A6.68,6.68,0,0,0,86.34,112Z"/><path class="cls-130" d="M86.26,110.43c.66.36.95.17,1,.1s.13-.37-.49-.68a6.11,6.11,0,0,0-1.59-.41A3.78,3.78,0,0,0,86.26,110.43Z"/><g class="cls-131"><circle class="cls-132" cx="20.79" cy="96.4" r="3.22"/></g><g class="cls-133"><circle class="cls-132" cx="55.79" cy="108.03" r="3.22"/></g><g class="cls-134"><circle class="cls-132" cx="117.87" cy="105.18" r="3.22"/></g><g class="cls-135"><circle class="cls-132" cx="125.77" cy="97.96" r="3.22"/></g><g class="cls-136"><circle class="cls-132" cx="87.05" cy="123.43" r="3.22"/></g><g class="cls-137"><circle class="cls-132" cx="102.14" cy="105.89" r="3.69"/></g><g class="cls-138"><circle class="cls-132" cx="46.25" cy="95.62" r="3.29"/></g><g class="cls-139"><circle class="cls-132" cx="61.43" cy="135.71" r="5.12"/></g><g class="cls-140"><circle class="cls-132" cx="75.47" cy="121.56" r="1.12"/></g><g class="cls-141"><circle class="cls-132" cx="84.63" cy="106.75" r="1.12"/></g><g class="cls-142"><circle class="cls-132" cx="124.65" cy="108.41" r="1.12"/></g><g class="cls-143"><circle class="cls-132" cx="133.07" cy="86.9" r="1.12"/></g><g class="cls-144"><circle class="cls-132" cx="97.87" cy="100.54" r="1.12"/></g><g class="cls-145"><circle class="cls-132" cx="31.97" cy="93.75" r="1.12"/></g><g class="cls-146"><circle class="cls-132" cx="33.57" cy="120.96" r="1.12"/></g><g class="cls-147"><circle class="cls-132" cx="18.68" cy="83.52" r="1.12"/></g><g class="cls-148"><circle class="cls-132" cx="72.91" cy="103.25" r="1.12"/></g><g class="cls-149"><circle class="cls-132" cx="72.91" cy="128.45" r="1.12"/></g><g class="cls-150"><circle class="cls-132" cx="102.55" cy="114.02" r="1.12"/></g><g class="cls-151"><circle class="cls-132" cx="52.98" cy="131.08" r="1.12"/></g><path class="cls-132" d="M42.36,107.15a1,1,0,0,0-.9.64h-.39a2.42,2.42,0,0,0-.48-1.16l.28-.28a1,1,0,1,0-.45-.44l-.28.27a2.41,2.41,0,0,0-1.16-.48v-.39a1,1,0,1,0-.63,0v.39a2.4,2.4,0,0,0-1.16.48l-.28-.27a1,1,0,1,0-.44.44l.28.28a2.41,2.41,0,0,0-.48,1.16h-.39a1,1,0,1,0,0,.63h.39a2.4,2.4,0,0,0,.48,1.16l-.28.28a1,1,0,1,0,.44.44l.28-.28a2.4,2.4,0,0,0,1.16.48v.39a1,1,0,1,0,.63,0v-.39a2.41,2.41,0,0,0,1.16-.48l.28.28a1,1,0,1,0,.45-.44l-.28-.28a2.41,2.41,0,0,0,.48-1.16h.39a1,1,0,1,0,.9-1.27ZM40.82,105a.65.65,0,1,1,.28,1.09H41l0,0h0l0,0h0l0,0h0l0,0h0l0,0,0,0h0l0,0h0l0,0h0l0,0h0l0,0h0v0h0v0h0v0A.65.65,0,0,1,40.82,105Zm-4.12.64v0h0v0h0v0h0l0,0h0l0,0h0l0,0h0l0,0h0l0,0,0,0h0l0,0h0l0,0h0l0,0h0l0,0h-.11a.65.65,0,1,1,.44-.44Zm-1.05,2.46h0v0h0v0h0v0h0v0h0v0h0v0h0l0,0a.65.65,0,1,1,0-.63l0,0h0v0h0v0h0v0h0v0h0v0h0v0h0v.08Zm.89,3a.65.65,0,1,1-.28-1.09h.11l0,0h0l0,0h0l0,0h0l0,0h0l0,0,0,0h0l0,0h0l0,0h0l0,0h0l0,0h0v0h0v0h0v0A.65.65,0,0,1,36.53,111.18Zm4.12-.64v0h0v0h0v0h0l0,0h0l0,0h0l0,0h0l0,0h0l0,0,0,0h0l0,0h0l0,0h0l0,0h0l0,0h.12a.65.65,0,1,1-.44.45Zm-.25-3.71a2.15,2.15,0,0,1,.4,1H40a1.4,1.4,0,0,0-.16-.39Zm-.44-.44-.58.58a1.39,1.39,0,0,0-.39-.16V106A2.14,2.14,0,0,1,40,106.38Zm-1.28,2.38a.65.65,0,1,1,.65-.66A.65.65,0,0,1,38.68,108.76ZM38,104.42a.65.65,0,1,1,1,.57l0,0H38.4l0,0A.65.65,0,0,1,38,104.42Zm.34,1.55v.82A1.37,1.37,0,0,0,38,107l-.58-.58A2.14,2.14,0,0,1,38.36,106Zm-1.42.85.58.58a1.37,1.37,0,0,0-.16.39h-.82A2.16,2.16,0,0,1,36.95,106.82Zm0,2.57a2.15,2.15,0,0,1-.4-1h.82a1.37,1.37,0,0,0,.16.39Zm.45.45.58-.58a1.29,1.29,0,0,0,.39.16v.82A2.15,2.15,0,0,1,37.39,109.84Zm1.94,2a.65.65,0,1,1-1-.57l0,0H39l0,0A.65.65,0,0,1,39.33,111.79ZM39,110.24v-.82a1.31,1.31,0,0,0,.39-.16l.58.58A2.14,2.14,0,0,1,39,110.24Zm1.41-.85-.58-.58a1.4,1.4,0,0,0,.16-.39h.82A2.13,2.13,0,0,1,40.41,109.39Zm2-.63a.65.65,0,0,1-.57-.34l0,0h0v0h0v0h0v0h0v0h0v0h0v0h0a.3.3,0,0,1,0,0,.23.23,0,0,1,0,0h0v0h0v0h0v0h0v0h0v0h0v0h0l0,0a.65.65,0,1,1,.57,1Z"/><path class="cls-132" d="M100.08,132a1,1,0,0,0-.9.64h-.39a2.39,2.39,0,0,0-.48-1.15l.28-.28a1,1,0,1,0-.45-.44l-.27.27a2.42,2.42,0,0,0-1.16-.48v-.39a1,1,0,1,0-.63,0v.39a2.4,2.4,0,0,0-1.16.48l-.28-.28a1,1,0,1,0-.45.44l.28.28a2.4,2.4,0,0,0-.48,1.15h-.39a1,1,0,1,0,0,.63H94a2.41,2.41,0,0,0,.48,1.15l-.28.28a1,1,0,1,0,.45.45l.28-.28a2.38,2.38,0,0,0,1.16.48v.39a1,1,0,1,0,.63,0v-.39a2.39,2.39,0,0,0,1.16-.48l.27.28a1,1,0,1,0,.45-.45l-.28-.28a2.4,2.4,0,0,0,.48-1.15h.39a1,1,0,1,0,.9-1.27Zm-1.54-2.11a.65.65,0,1,1,.28,1.09H98.7l0,0h0l0,0h0l0,0h0l0,0h0l0,0,0,0h0l0,0h0l0,0h0l0,0h0l0,0h0v0h0v0h0v0A.65.65,0,0,1,98.53,129.86Zm-4.12.64v0h0v0h0v0h0l0,0h0l0,0h0l0,0h0l0,0h0l0,0,0,0h0l0,0h0l0,0h0l0,0h0l0,0H94a.65.65,0,1,1,.45-.45ZM93.36,133h0v0h0v0h0v0h0v0h0v0h0l0,0h0l0,0a.65.65,0,1,1,0-.63l0,0h0l0,0h0v0h0v0h0v0h0v0h0v0h0V133Zm.89,3A.65.65,0,1,1,94,134.9h.12l0,0h0l0,0h0l0,0h0l0,0h0l0,0,0,0h0l0,0h0l0,0h0l0,0h0l0,0h0v0h0v0h0v0A.65.65,0,0,1,94.25,136Zm4.12-.65v0h0v0h0v0h0l0,0h0l0,0h0l0,0h0l0,0h0l0,0,0,0h0l0,0h0l0,0h0l0,0h0l0,0h.11a.65.65,0,1,1-.45.44Zm-.25-3.71a2.15,2.15,0,0,1,.4,1H97.7a1.32,1.32,0,0,0-.16-.39Zm-.45-.45-.58.58a1.33,1.33,0,0,0-.39-.16v-.82A2.15,2.15,0,0,1,97.67,131.19Zm-1.28,2.38a.65.65,0,1,1,.65-.65A.66.66,0,0,1,96.39,133.58Zm-.65-4.34a.65.65,0,1,1,1,.57l0,0h-.56l0,0A.65.65,0,0,1,95.74,129.24Zm.34,1.55v.82a1.31,1.31,0,0,0-.39.16l-.58-.58A2.14,2.14,0,0,1,96.08,130.79Zm-1.42.85.58.58a1.35,1.35,0,0,0-.16.39h-.82A2.15,2.15,0,0,1,94.66,131.64Zm0,2.57a2.14,2.14,0,0,1-.4-1h.82a1.36,1.36,0,0,0,.16.39Zm.45.45.58-.58a1.31,1.31,0,0,0,.39.16v.82A2.15,2.15,0,0,1,95.11,134.65Zm1.94,2a.65.65,0,1,1-1.31,0,.65.65,0,0,1,.34-.57l0,0h0l0,0h.49l0,0h0l0,0A.65.65,0,0,1,97,136.61Zm-.34-1.55v-.82a1.33,1.33,0,0,0,.39-.16l.58.58A2.15,2.15,0,0,1,96.7,135.05Zm1.42-.85-.58-.58a1.34,1.34,0,0,0,.16-.39h.82A2.14,2.14,0,0,1,98.12,134.21Zm2-.63a.65.65,0,0,1-.57-.34l0,0h0v0h0v0h0v0h0v0h0v0h0v0h0a.35.35,0,0,1,0,0,.3.3,0,0,1,0,0h0v0h0v0h0v0h0v0h0v0h0v0h0l0,0a.65.65,0,1,1,.57,1Z"/><path class="cls-132" d="M141.65,99.3a1,1,0,0,0-.9.64h-.39a2.4,2.4,0,0,0-.48-1.16l.28-.28a1,1,0,1,0-.44-.44l-.28.28a2.38,2.38,0,0,0-1.15-.48v-.39a1,1,0,1,0-.63,0v.39a2.39,2.39,0,0,0-1.16.48l-.28-.28a1,1,0,1,0-.45.44l.28.28a2.4,2.4,0,0,0-.48,1.16h-.39a1,1,0,1,0,0,.63h.39a2.41,2.41,0,0,0,.48,1.15l-.28.28a1,1,0,1,0,.45.44l.28-.28a2.42,2.42,0,0,0,1.16.48V103a1,1,0,1,0,.63,0v-.39a2.41,2.41,0,0,0,1.15-.48l.28.28a1,1,0,1,0,.44-.44l-.28-.28a2.41,2.41,0,0,0,.48-1.15h.39a1,1,0,1,0,.9-1.27Zm-1.54-2.11a.65.65,0,1,1,.28,1.09h-.12l0,0h0l0,0h0l0,0h0l0,0h0l0,0,0,0h0l0,0h0l0,0h0l0,0h0l0,0h0v0h0v0h0v0A.65.65,0,0,1,140.11,97.18Zm-4.12.64v0h0v0h0v0h0l0,0h0l0,0h0l0,0h0l0,0h0l0,0,0,0h0l0,0h0l0,0h0l0,0h0l0,0h-.11a.65.65,0,1,1,.44-.45Zm-1.05,2.46h0v0h0v0h0v0h0v0h0v0h0v0h0l0,0a.65.65,0,1,1,0-.63l0,0h0v0h0v0h0v0h0v0h0v0h0v0h0a.31.31,0,0,1,0,0A.33.33,0,0,1,134.93,100.29Zm.89,3a.65.65,0,1,1-.28-1.09h.11l0,0h0l0,0h0l0,0h0l0,0h0l0,0,0,0h0l0,0h0l0,0h0l0,0h0l0,0h0v0h0v0h0v0A.65.65,0,0,1,135.82,103.32Zm4.12-.64v0h0v0h0v0h0l0,0h0l0,0h0l0,0h0l0,0h0l0,0,0,0h0l0,0h0l0,0h0l0,0h0l0,0h.12a.65.65,0,1,1-.45.45ZM139.7,99a2.13,2.13,0,0,1,.4,1h-.82a1.31,1.31,0,0,0-.16-.39Zm-.44-.45-.58.58a1.41,1.41,0,0,0-.39-.16v-.82A2.15,2.15,0,0,1,139.25,98.52ZM138,100.9a.65.65,0,1,1,.65-.65A.65.65,0,0,1,138,100.9Zm-.65-4.34a.65.65,0,1,1,1,.57l0,0h-.56l0,0A.65.65,0,0,1,137.31,96.57Zm.34,1.55v.82a1.4,1.4,0,0,0-.39.16l-.58-.58A2.16,2.16,0,0,1,137.65,98.12Zm-1.41.85.58.58a1.36,1.36,0,0,0-.16.39h-.82A2.15,2.15,0,0,1,136.24,99Zm0,2.57a2.15,2.15,0,0,1-.4-1h.82a1.39,1.39,0,0,0,.16.39Zm.45.45.58-.58a1.31,1.31,0,0,0,.39.16v.82A2.15,2.15,0,0,1,136.68,102Zm1.94,2a.65.65,0,1,1-1-.57l0,0h.56l0,0A.65.65,0,0,1,138.62,103.94Zm-.34-1.56v-.82a1.31,1.31,0,0,0,.39-.16l.58.58A2.14,2.14,0,0,1,138.28,102.38Zm1.41-.85-.58-.58a1.33,1.33,0,0,0,.16-.39h.82A2.13,2.13,0,0,1,139.7,101.53Zm2-.63a.65.65,0,0,1-.57-.34l0,0h0v0h0v0h0v0h0v0h0v0h0v0h0a.36.36,0,0,1,0,0,.33.33,0,0,1,0,0h0v0h0v0h0v0h0v0h0v0h0v0h0l0,0a.65.65,0,1,1,.57,1Z"/><path class="cls-132" d="M73.53,113.7a.65.65,0,0,0-.62.44h-.27a1.64,1.64,0,0,0-.33-.79l.19-.19a.65.65,0,1,0-.3-.3L72,113a1.64,1.64,0,0,0-.79-.33v-.27a.65.65,0,1,0-.43,0v.27A1.64,1.64,0,0,0,70,113l-.19-.19a.65.65,0,1,0-1.05.18.65.65,0,0,0,.75.13l.19.19a1.64,1.64,0,0,0-.33.79H69.1a.65.65,0,1,0,0,.43h.27a1.64,1.64,0,0,0,.33.79l-.19.19a.65.65,0,1,0,.31.31l.19-.19a1.66,1.66,0,0,0,.79.33v.27a.65.65,0,1,0,.43,0V116a1.65,1.65,0,0,0,.79-.33l.19.19a.65.65,0,1,0,.3-.31l-.19-.19a1.64,1.64,0,0,0,.33-.79h.27a.65.65,0,1,0,.62-.87Zm-1.05-1.45a.45.45,0,1,1,.19.75h-.17l0,0,0,0h0v0h0v0h0v0h0v0h0v0h0v0h0v0A.45.45,0,0,1,72.47,112.26Zm-2.82.44v0h0v0h0v0h0v0h0v0h0v0h0v0h0l0,0,0,0h0l0,0h-.1a.45.45,0,1,1,.3-.31Zm-.72,1.68h0v0h0v0h0v0h0v0h0v0h0v0h0v0a.45.45,0,1,1,0-.43v0h0v0h0v0h0v0h0v0h0v0h0v0h0v.05Zm.61,2.07a.45.45,0,1,1-.19-.75h.17l0,0,0,0h0v0h0v0h0v0h0v0h0v0h0v0h0v0A.44.44,0,0,1,69.54,116.45Zm2.82-.44v0h0v0h0v0h0v0h0v0h0v0h0v0h0l0,0,0,0h.17a.45.45,0,1,1-.31.3Zm-.17-2.54a1.47,1.47,0,0,1,.27.66H71.9a.91.91,0,0,0-.11-.27Zm-.3-.3-.4.4a.85.85,0,0,0-.27-.11v-.56A1.46,1.46,0,0,1,71.89,113.17ZM71,114.8a.45.45,0,1,1,.45-.45A.45.45,0,0,1,71,114.8Zm-.45-3a.45.45,0,1,1,.66.39h-.43A.44.44,0,0,1,70.56,111.84Zm.23,1.06v.56a.85.85,0,0,0-.27.11l-.4-.4A1.45,1.45,0,0,1,70.79,112.9Zm-1,.58.4.4a.89.89,0,0,0-.11.27h-.56A1.46,1.46,0,0,1,69.82,113.48Zm0,1.76a1.46,1.46,0,0,1-.27-.66h.56a.93.93,0,0,0,.11.27Zm.3.31.4-.4a.94.94,0,0,0,.27.11v.56A1.47,1.47,0,0,1,70.13,115.54Zm1.33,1.34a.45.45,0,1,1-.66-.39h.43A.45.45,0,0,1,71.45,116.88Zm-.23-1.06v-.56a.94.94,0,0,0,.27-.11l.4.4A1.48,1.48,0,0,1,71.22,115.81Zm1-.58-.4-.4a.94.94,0,0,0,.11-.27h.56A1.47,1.47,0,0,1,72.19,115.23Zm1.34-.43a.44.44,0,0,1-.39-.23v0h0v0h0v0h0v0h0v0h0v0h0v0h0v-.05h0v0h0v0h0v0h0v0h0v0h0v0h0v0a.45.45,0,1,1,.39.66Z"/><path class="cls-132" d="M45.55,126.79a.65.65,0,0,0-.62.44h-.27a1.63,1.63,0,0,0-.33-.79l.19-.19a.65.65,0,1,0-.31-.3l-.19.19a1.64,1.64,0,0,0-.79-.33v-.27a.65.65,0,1,0-.43,0v.27a1.64,1.64,0,0,0-.79.33l-.19-.19a.65.65,0,1,0-.3.3l.19.19a1.64,1.64,0,0,0-.33.79h-.27a.65.65,0,1,0,0,.43h.27a1.65,1.65,0,0,0,.33.79l-.19.19a.65.65,0,1,0,.3.3l.19-.19a1.63,1.63,0,0,0,.79.33v.27a.65.65,0,1,0,.43,0v-.27a1.63,1.63,0,0,0,.79-.33l.19.19a.65.65,0,1,0,.31-.3l-.19-.19a1.64,1.64,0,0,0,.33-.79h.27a.65.65,0,1,0,.62-.87Zm-1.05-1.45a.45.45,0,1,1,.19.75h-.17l0,0,0,0h0v0h0v0h0v0h0v0h0v0h0v0A.45.45,0,0,1,44.5,125.34Zm-2.82.44v0h0v0h0v0h0v0h0v0h0v0h0v0h0l0,0,0,0h-.17a.45.45,0,1,1,.3-.3ZM41,127.47h0v0h0v0h0v0h0v0h0v0h0v0h0v0a.45.45,0,1,1,0-.43v0h0v0h0v0h0v0h0v0h0v0h0v0h0v.05Zm.61,2.07a.45.45,0,1,1-.19-.75h.17l0,0,0,0h0v0h0v0h0v0h0v0h0v0h0v0A.45.45,0,0,1,41.56,129.54Zm2.82-.44v0h0v0h0v0h0v0h0v0h0v0h0l0,0,0,0h.17a.45.45,0,1,1-.31.3Zm-.17-2.54a1.46,1.46,0,0,1,.27.66h-.56a.89.89,0,0,0-.11-.26Zm-.3-.3-.4.4a.91.91,0,0,0-.27-.11V126A1.45,1.45,0,0,1,43.91,126.26ZM43,127.89a.45.45,0,1,1,.45-.45A.45.45,0,0,1,43,127.89Zm-.45-3a.45.45,0,1,1,.66.39h-.43A.45.45,0,0,1,42.58,124.92Zm.23,1.06v.56a.91.91,0,0,0-.27.11l-.4-.4A1.45,1.45,0,0,1,42.81,126Zm-1,.58.4.4a.9.9,0,0,0-.11.26h-.56A1.47,1.47,0,0,1,41.85,126.56Zm0,1.76a1.47,1.47,0,0,1-.27-.66h.56a.94.94,0,0,0,.11.27Zm.3.3.4-.4a.88.88,0,0,0,.27.11v.56A1.44,1.44,0,0,1,42.15,128.63ZM43.48,130a.45.45,0,1,1-.66-.39h.43A.45.45,0,0,1,43.48,130Zm-.23-1.06v-.56a.89.89,0,0,0,.27-.11l.4.4A1.44,1.44,0,0,1,43.24,128.9Zm1-.58-.4-.4a.93.93,0,0,0,.11-.27h.56A1.46,1.46,0,0,1,44.21,128.32Zm1.34-.43a.45.45,0,0,1-.39-.23v0h0v0h0v0h0v0h0v0h0v0h0v0h0v-.05h0v0h0v0h0v0h0v0h0v0h0v0h0v0a.45.45,0,1,1,.39.66Z"/><path class="cls-132" d="M112.82,97.62a.66.66,0,0,0-.62.44h-.27a1.64,1.64,0,0,0-.33-.79l.19-.19a.65.65,0,1,0-.3-.31l-.19.19a1.65,1.65,0,0,0-.79-.33v-.27a.65.65,0,1,0-.43,0v.27a1.65,1.65,0,0,0-.79.33l-.19-.19a.65.65,0,1,0-.3.31l.19.19a1.65,1.65,0,0,0-.33.79h-.27a.65.65,0,1,0,0,.43h.27a1.65,1.65,0,0,0,.33.79l-.19.19a.65.65,0,1,0,.3.3l.19-.19a1.63,1.63,0,0,0,.79.33v.27a.65.65,0,1,0,.43,0v-.27a1.63,1.63,0,0,0,.79-.33l.19.19a.65.65,0,1,0,.3-.3l-.19-.19a1.63,1.63,0,0,0,.33-.79h.27a.65.65,0,1,0,.62-.87Zm-1.05-1.44a.45.45,0,1,1,.19.74h-.17l0,0,0,0h0v0h0v0h0v0h0v0h0v0h0v0A.45.45,0,0,1,111.76,96.17Zm-2.82.44v0h0v0h0v0h0v0h0v0h0v0h0l0,0,0,0h-.17a.45.45,0,1,1,.19-.74A.44.44,0,0,1,108.94,96.61Zm-.72,1.68h0v0h0v0h0v0h0v0h0v0h0v0h0v0a.45.45,0,1,1,0-.43v0h0v0h0v0h0v0h0v0h0v0h0v0h0v.05Zm.61,2.07a.45.45,0,1,1-.19-.74h.17l0,0,0,0h0v0h0v0h0v0h0v0h0v0h0v0h0v0A.44.44,0,0,1,108.83,100.37Zm2.82-.44v0h0v0h0v0h0v0h0v0h0v0h0v0h0l0,0,0,0H112a.45.45,0,1,1-.3.3Zm-.17-2.54a1.48,1.48,0,0,1,.27.66h-.56a.92.92,0,0,0-.11-.27Zm-.3-.3-.4.4a.94.94,0,0,0-.27-.11v-.56A1.48,1.48,0,0,1,111.18,97.09Zm-.88,1.63a.45.45,0,1,1,.45-.45A.45.45,0,0,1,110.3,98.72Zm-.45-3a.45.45,0,0,1,.89,0,.45.45,0,0,1-.23.39h-.43A.45.45,0,0,1,109.85,95.75Zm.23,1.06v.56a.94.94,0,0,0-.27.11l-.4-.4A1.47,1.47,0,0,1,110.08,96.82Zm-1,.58.4.4a.93.93,0,0,0-.11.27h-.56A1.47,1.47,0,0,1,109.11,97.39Zm0,1.76a1.47,1.47,0,0,1-.27-.66h.56a.92.92,0,0,0,.11.27Zm.3.31.4-.4a.92.92,0,0,0,.27.11v.56A1.48,1.48,0,0,1,109.42,99.46Zm1.33,1.34a.45.45,0,1,1-.66-.39h.43A.45.45,0,0,1,110.74,100.79Zm-.23-1.06v-.56a.93.93,0,0,0,.27-.11l.4.4A1.48,1.48,0,0,1,110.51,99.73Zm1-.58-.4-.4a.92.92,0,0,0,.11-.27h.56A1.49,1.49,0,0,1,111.48,99.15Zm1.34-.43a.45.45,0,0,1-.39-.23v0h0v0h0v0h0v0h0v0h0v0h0v0h0v-.05h0v0h0v0h0v0h0v0h0v0h0v0h0v0a.45.45,0,1,1,.39.66Z"/><path class="cls-132" d="M119.36,121.4a.39.39,0,0,0-.37.26h-.16a1,1,0,0,0-.19-.47l.11-.11a.39.39,0,1,0-.18-.18l-.11.11a1,1,0,0,0-.47-.19v-.16a.39.39,0,1,0-.26,0v.16a1,1,0,0,0-.47.2l-.11-.11a.39.39,0,1,0-.18.18l.11.11a1,1,0,0,0-.19.47h-.16a.39.39,0,1,0,0,.26h.16a1,1,0,0,0,.19.47l-.11.11a.39.39,0,0,0-.44.07.39.39,0,1,0,.62.1l.11-.11a1,1,0,0,0,.47.2v.16a.39.39,0,1,0,.26,0v-.16a1,1,0,0,0,.47-.2l.11.11a.39.39,0,1,0,.62-.1.38.38,0,0,0-.44-.07l-.11-.11a1,1,0,0,0,.19-.47H119a.39.39,0,1,0,.37-.51Zm-.63-.86a.27.27,0,1,1,.11.44h-.18A.26.26,0,0,1,118.74,120.54Zm-1.68.26v0h-.18a.26.26,0,1,1,.18-.18Zm-.43,1h0v0h0a.27.27,0,1,1,0-.26h0v0h0v0ZM117,123a.27.27,0,1,1-.11-.44h.18v0A.27.27,0,0,1,117,123Zm1.68-.26v0h.18a.27.27,0,1,1-.11.44A.26.26,0,0,1,118.67,122.77Zm-.1-1.51a.87.87,0,0,1,.16.39h-.33a.51.51,0,0,0-.07-.16Zm-.18-.18-.24.24a.56.56,0,0,0-.16-.07v-.33A.86.86,0,0,1,118.39,121.08Zm-.52,1a.27.27,0,1,1,.27-.27A.27.27,0,0,1,117.87,122Zm-.27-1.76a.27.27,0,0,1,.53,0,.27.27,0,0,1-.14.23h-.26A.27.27,0,0,1,117.6,120.28Zm.14.63v.33a.55.55,0,0,0-.16.07l-.24-.24A.87.87,0,0,1,117.74,120.92Zm-.57.35.24.24a.54.54,0,0,0-.07.16H117A.86.86,0,0,1,117.16,121.26Zm0,1a.85.85,0,0,1-.16-.39h.33a.55.55,0,0,0,.07.16Zm.18.18.24-.24a.56.56,0,0,0,.16.06v.33A.87.87,0,0,1,117.34,122.49Zm.79.79a.27.27,0,1,1-.39-.23H118A.27.27,0,0,1,118.13,123.28Zm-.14-.63v-.33a.56.56,0,0,0,.16-.06l.24.24A.86.86,0,0,1,118,122.65Zm.58-.35-.24-.23a.53.53,0,0,0,.07-.16h.33A.86.86,0,0,1,118.57,122.3Zm.8-.26a.27.27,0,0,1-.23-.14h0v0h0v0h0v0h0a.27.27,0,1,1,.23.39Z"/><path class="cls-132" d="M127.27,86.09a.39.39,0,0,0-.37.26h-.16a1,1,0,0,0-.19-.47l.11-.11a.39.39,0,1,0-.18-.18l-.11.11a1,1,0,0,0-.47-.19v-.16a.39.39,0,1,0-.26,0v.16a1,1,0,0,0-.47.19l-.11-.11a.39.39,0,1,0-.18.18l.11.11a1,1,0,0,0-.19.47h-.16a.39.39,0,1,0,0,.26h.16a1,1,0,0,0,.19.47l-.11.11a.39.39,0,1,0,.18.18l.11-.11a1,1,0,0,0,.47.19v.16a.39.39,0,1,0,.26,0v-.16a1,1,0,0,0,.47-.19l.11.11a.39.39,0,1,0,.18-.18l-.11-.11a1,1,0,0,0,.19-.47h.16a.39.39,0,1,0,.37-.52Zm-.63-.86a.27.27,0,1,1,.11.44h-.18A.27.27,0,0,1,126.64,85.23Zm-1.68.26v0h-.18a.27.27,0,1,1,.18-.18Zm-.43,1h0v0h0a.27.27,0,1,1,0-.26h0v0h0v0Zm.36,1.23a.27.27,0,1,1-.11-.44h.16v0h0v0A.27.27,0,0,1,124.9,87.73Zm1.68-.26v0h.18a.27.27,0,1,1-.11.44A.27.27,0,0,1,126.58,87.47Zm-.1-1.51a.88.88,0,0,1,.16.39h-.33a.55.55,0,0,0-.07-.16Zm-.18-.18-.24.24-.16-.07v-.33A.88.88,0,0,1,126.29,85.78Zm-.52,1a.27.27,0,1,1,.27-.27A.27.27,0,0,1,125.77,86.75ZM125.51,85a.27.27,0,1,1,.39.23h-.26A.27.27,0,0,1,125.51,85Zm.14.63v.33a.57.57,0,0,0-.16.07l-.24-.24A.88.88,0,0,1,125.64,85.61Zm-.58.34.24.24a.55.55,0,0,0-.07.16h-.33A.87.87,0,0,1,125.07,86Zm0,1a.87.87,0,0,1-.16-.39h.33a.54.54,0,0,0,.07.16Zm.18.18.24-.24.16.07v.33A.89.89,0,0,1,125.25,87.18Zm.79.8a.27.27,0,1,1-.39-.23h.26A.27.27,0,0,1,126,88Zm-.14-.63V87l.16-.07.24.24A.88.88,0,0,1,125.9,87.35Zm.58-.35-.24-.23a.55.55,0,0,0,.07-.16h.33A.87.87,0,0,1,126.48,87Zm.79-.26a.26.26,0,0,1-.23-.14h0v0h0v0h0a.27.27,0,1,1,.23.39Z"/><path class="cls-132" d="M56.86,94.41a.39.39,0,0,0-.37.26h-.16a1,1,0,0,0-.2-.47l.11-.11a.39.39,0,1,0-.18-.18L56,94a1,1,0,0,0-.47-.19v-.16a.39.39,0,1,0-.26,0v.16a1,1,0,0,0-.47.19l-.11-.11a.39.39,0,1,0-.18.18l.11.11a1,1,0,0,0-.19.47h-.16a.39.39,0,1,0,0,.25h.16a1,1,0,0,0,.19.47l-.11.11a.39.39,0,1,0,.18.18l.11-.11a1,1,0,0,0,.47.19v.16a.39.39,0,1,0,.26,0v-.16a1,1,0,0,0,.47-.19l.11.11a.39.39,0,0,0,.62.44.39.39,0,0,0-.44-.62l-.11-.11a1,1,0,0,0,.2-.47h.16a.39.39,0,1,0,.37-.52Zm-.63-.86a.27.27,0,1,1,.38.38.26.26,0,0,1-.26.07h-.18v0A.26.26,0,0,1,56.23,93.55Zm-1.68.26v0h-.18a.26.26,0,0,1-.26-.07.27.27,0,1,1,.44-.11Zm-.43,1h0v0h0a.27.27,0,1,1,0-.25h0v0h0v0ZM54.49,96a.27.27,0,1,1-.11-.44h.15v0h0A.27.27,0,0,1,54.49,96Zm1.68-.26h.18a.27.27,0,1,1-.18.18Zm-.1-1.51a.88.88,0,0,1,.16.39h-.33a.53.53,0,0,0-.07-.16Zm-.18-.18-.24.24a.54.54,0,0,0-.16-.06v-.33A.87.87,0,0,1,55.88,94.09Zm-.52,1a.27.27,0,1,1,.27-.27A.27.27,0,0,1,55.36,95.06ZM55.1,93.3a.27.27,0,1,1,.39.23h-.26A.27.27,0,0,1,55.1,93.3Zm.14.63v.33a.54.54,0,0,0-.16.06l-.24-.24A.88.88,0,0,1,55.23,93.93Zm-.58.34.24.24a.57.57,0,0,0-.06.16h-.33A.87.87,0,0,1,54.66,94.27Zm0,1a.86.86,0,0,1-.16-.39h.33a.57.57,0,0,0,.06.16Zm.18.18.24-.24a.55.55,0,0,0,.16.06v.33A.87.87,0,0,1,54.84,95.5Zm.79.79a.27.27,0,1,1-.39-.23h.26A.27.27,0,0,1,55.63,96.29Zm-.14-.63v-.33a.55.55,0,0,0,.16-.06l.24.24A.86.86,0,0,1,55.49,95.66Zm.58-.34-.24-.24a.53.53,0,0,0,.07-.16h.33A.88.88,0,0,1,56.06,95.32Zm.8-.26a.27.27,0,0,1-.23-.14h0v0h0a.27.27,0,1,1,.23.39Z"/><path class="cls-132" d="M61.59,122.29a.39.39,0,0,0-.37.26h-.16a1,1,0,0,0-.19-.47L61,122a.39.39,0,1,0-.11-.62.39.39,0,0,0-.08.44l-.11.11a1,1,0,0,0-.47-.19v-.16a.39.39,0,1,0-.26,0v.16a1,1,0,0,0-.47.19l-.11-.11a.39.39,0,1,0-.18.18l.11.11a1,1,0,0,0-.19.47H59a.39.39,0,1,0,0,.26h.16a1,1,0,0,0,.19.47l-.11.11a.39.39,0,1,0,.18.18l.11-.11a1,1,0,0,0,.47.2v.16a.39.39,0,1,0,.26,0v-.16a1,1,0,0,0,.47-.19l.11.11a.39.39,0,1,0,.62-.1.38.38,0,0,0-.44-.08l-.11-.11a1,1,0,0,0,.19-.47h.16a.39.39,0,1,0,.37-.52Zm-.63-.86a.27.27,0,1,1,.11.44H60.9A.27.27,0,0,1,61,121.43Zm-1.68.26h-.18a.27.27,0,1,1,.18-.18Zm-.43,1h0v0h0a.27.27,0,1,1,0-.26v0h0v0h0v0h0v0Zm.36,1.23a.27.27,0,1,1-.11-.44h.18A.27.27,0,0,1,59.22,123.93Zm1.68-.26h.18a.27.27,0,1,1-.18.18Zm-.1-1.51a.87.87,0,0,1,.16.39h-.33a.55.55,0,0,0-.06-.16Zm-.18-.18-.24.24a.53.53,0,0,0-.16-.06v-.33A.87.87,0,0,1,60.61,122Zm-.52,1a.27.27,0,1,1,.27-.27A.27.27,0,0,1,60.09,122.94Zm-.27-1.77a.27.27,0,1,1,.39.23H60A.27.27,0,0,1,59.83,121.18Zm.14.63v.33a.53.53,0,0,0-.16.06l-.24-.24A.87.87,0,0,1,60,121.81Zm-.57.35.24.23a.52.52,0,0,0-.06.16h-.33A.86.86,0,0,1,59.39,122.16Zm0,1a.86.86,0,0,1-.16-.39h.33a.49.49,0,0,0,.06.16Zm.18.18.24-.24a.54.54,0,0,0,.16.06v.33A.88.88,0,0,1,59.57,123.38Zm.79.8a.27.27,0,1,1-.39-.23h.26A.27.27,0,0,1,60.36,124.18Zm-.14-.63v-.33a.54.54,0,0,0,.16-.06l.24.24A.88.88,0,0,1,60.22,123.54Zm.58-.34-.24-.24a.51.51,0,0,0,.06-.16H61A.88.88,0,0,1,60.8,123.2Zm.79-.26a.26.26,0,0,1-.23-.14h0v0h0v0h0v0a.27.27,0,1,1,.23.39Z"/><use width="257.01" height="223.64" transform="matrix(-0.11, -0.01, 0, -0.16, 71.79, 71.29)" xlink:href="#New_Symbol"/><use width="257.01" height="223.64" transform="matrix(-0.11, -0.01, 0, -0.16, 59.43, 68.7)" xlink:href="#New_Symbol"/><use width="257.01" height="223.64" transform="matrix(-0.11, -0.01, 0, -0.16, 55.04, 66.41)" xlink:href="#New_Symbol"/><use width="257.01" height="223.64" transform="matrix(-0.11, -0.01, 0, -0.16, 50.22, 67.97)" xlink:href="#New_Symbol"/><use width="257.01" height="223.64" transform="matrix(-0.17, -0.02, 0, -0.15, 132.21, 69.98)" xlink:href="#New_Symbol_2"/><use width="257.01" height="223.64" transform="matrix(-0.17, -0.02, 0, -0.15, 99.69, 57.03)" xlink:href="#New_Symbol_2"/><use width="257.01" height="223.64" transform="matrix(-0.17, -0.02, 0, -0.15, 72, 69.81)" xlink:href="#New_Symbol_2"/><use width="257.01" height="223.64" transform="matrix(-0.17, -0.02, 0, -0.15, 82.36, 62.77)" xlink:href="#New_Symbol_2"/><use width="257.01" height="223.64" transform="matrix(-0.17, -0.02, 0, -0.19, 118.48, 72)" xlink:href="#New_Symbol_2"/><use width="257.01" height="223.64" transform="matrix(-0.17, -0.02, 0, -0.19, 64.25, 73.22)" xlink:href="#New_Symbol_2"/><g class="cls-152"><circle class="cls-153" cx="69.76" cy="58.97" r="34.09"/></g><circle class="cls-154" cx="69.76" cy="59.05" r="26.73"/><g class="cls-155"><path class="cls-132" d="M93.29,65.33c1.32,1.32-.71,7.08-5.51,11.88S77.21,84,75.9,82.72s1.51-6.28,6.31-11.08S92,64,93.29,65.33Z"/></g><g class="cls-156"><ellipse class="cls-157" cx="61.43" cy="48.72" rx="18.35" ry="12.41" transform="translate(-16.85 53.11) rotate(-41.63)"/></g><g class="cls-158"><path class="cls-159" d="M101.37,73.26l-7.45-2.77q.23-.48.43-1Zm-9.59.94-.32.45L95,76.82Zm3.14-6.12,3.33.92-3.18-1.35Zm1.13-4.23c0,.26-.1.52-.15.78l5.9.76Zm.23-1.51c0,.34-.09.68-.14,1l7.69.58Zm.19-4.1c0,.27,0,.54,0,.81s0,.54,0,.81l12.1-.81Zm-4.73-14.4.44.66,4.71-3.63Zm2.82,5.22c.13.33.26.66.38,1l7.22-3.31ZM96,54.18c0,.18.06.36.1.55l4.06-1Zm-2.11-6.54,3-1.71-3.21,1.29ZM81.2,34.89,84,27.44l-3.73,7Zm2.42,1.31,4.85-10-6.13,9.28Q83,35.81,83.62,36.19ZM96.44,57.37q0,.28,0,.56l4.15-.5Zm-9.1-18.47,6-8.37L86.27,38C86.63,38.31,87,38.61,87.33,38.91Zm-10-5.5,2.25-11.69L75.78,33C76.3,33.12,76.81,33.26,77.31,33.4Zm1.47.48.92-3.33-1.35,3.18Zm10.43,6.85,8-9.12-9.12,8Q88.67,40.14,89.22,40.73Zm4,5.53,9.86-6.68L92.43,44.89C92.71,45.34,93,45.79,93.24,46.26ZM75.33,32.9l.76-5.9-1.54,5.75Zm21.1,24.33,10.2-1.65-10.32.28Q96.38,56.54,96.43,57.23Zm-5-13.79,5.85-5-6.47,4.2C91.05,42.89,91.26,43.16,91.46,43.44Zm4.27,9.25L106.23,49,95.34,51.26Q95.55,52,95.73,52.69ZM44.59,50l-3.33-.92,3.18,1.35Zm.57-1.45q.21-.49.43-1l-7.45-2.77Zm-1.7,5.68c0-.26.1-.52.15-.78l-5.9-.76Zm-.31,2.33-5.43-.07,5.38.79Q43.11,56.94,43.14,56.58Zm.09-.82c0-.34.09-.68.15-1l-7.69-.58Zm-.15,5c0-.18,0-.37,0-.56l-4.15.5Zm46.73,16-.37.41,3.29,2.58ZM47.73,43.91l.32-.45-3.57-2.17ZM96.43,60.8q0,.36-.06.72l5.43.07ZM49.71,41.37l.37-.41L46.8,38.37ZM52.08,79.1l-.41-.37L49.08,82ZM84.9,37l.45.32,2.17-3.57ZM54.62,81.08l-.45-.32L52,84.33Zm-.06-44,.66-.44-3.64-4.71ZM87.44,39l.41.37,2.58-3.29ZM85,81l-.66.44,3.64,4.71ZM47.78,74.26l-.44-.66-4.71,3.64Zm-2.19-3.79-3,1.71,3.21-1.29Zm4.08,6.21-.47-.55-3.89,3.79ZM45,69q-.2-.49-.38-1l-7.22,3.31Zm-1.49-5.12c0-.18-.07-.36-.1-.55l-4.06,1ZM89.86,41.43l.47.55,3.89-3.79Zm-24.4,44-.58,7.69,1.6-7.54Zm1.84.23-.07,5.43L68,85.72Zm2.47.12H69l.81,12.1.81-12.1Zm1.12,0,.5,4.15.06-4.18Zm3.2-.32,1,4.06-.44-4.15Zm-2.5.29,1.65,10.19-.28-10.32Q72.27,85.67,71.58,85.72ZM52.19,79.19l-6,8.37,7.1-7.5Q52.71,79.65,52.19,79.19Zm12,6-.76,5.9L65,85.35ZM55.9,81.91l-4.85,10,6.13-9.28C56.75,82.41,56.32,82.17,55.9,81.91Zm6.31,2.79L60,96.39,63.74,85.1Q63,84.92,62.21,84.7Zm-1.47-.48-.92,3.33,1.35-3.18Zm-2.41-1-2.77,7.45,3.73-7ZM89.9,76.62l8.37,6-7.5-7.1C90.5,75.93,90.2,76.28,89.9,76.62Zm-1.82,1.89,9.12,8-8-9.12Q88.67,78,88.08,78.51Zm4.54-5.6,10,4.85-9.28-6.13C93.12,72.06,92.88,72.49,92.62,72.91Zm2.79-6.31,11.69,2.25L95.81,65.07C95.69,65.59,95.56,66.1,95.41,66.61Zm-8.57,13,3.79,3.89-3.24-4.36ZM76.12,85l3.65,10.5L77.55,84.63Q76.84,84.84,76.12,85Zm5-1.79,1.71,3L81.59,83Zm-2.41,1,3.31,7.22-2.32-7.6Zm6.61-3.48,5,5.85-4.2-6.47Zm-2.82,1.78,6.68,9.86L83.92,81.72C83.47,82,83,82.27,82.55,82.53Zm-38.44-31L32.42,49.24,43.71,53C43.83,52.51,44,52,44.11,51.5ZM63.4,33.08l-3.65-10.5L62,33.47Q62.68,33.26,63.4,33.08Zm-2.64.79-3.31-7.22,2.32,7.6ZM57,35.57l-6.68-9.86L55.6,36.38Q56.27,36,57,35.57Zm8.47-2.91-1-4.06.44,4.15ZM54.15,37.35l-5-5.85L53.33,38Zm4.2-2.48-1.71-3,1.29,3.21Zm13.88-2.44L72.3,27l-.79,5.37Zm-2.47-.11h.81l-.81-12.1L69,32.33Zm-1.82.06L66.29,22.19l.28,10.32C67,32.46,67.48,32.41,67.94,32.38Zm.7,0-.5-4.15-.06,4.18ZM43.79,65.41l-10.5,3.65,10.89-2.22Q44,66.14,43.79,65.41Zm6.51,12-8,9.12,9.12-8Q50.85,78,50.3,77.37ZM43,59.05c0-.27,0-.54,0-.81l-12.1.81,12.1.81C43,59.59,43,59.32,43,59.05Zm.06,1.82L32.9,62.52l10.32-.28Q43.14,61.56,43.09,60.87Zm5,13.79-5.85,5,6.47-4.2Q48.36,75.08,48.06,74.66Zm-1.78-2.82-9.86,6.68,10.66-5.31C46.81,72.76,46.54,72.31,46.28,71.84Zm6.4-33.36L48.89,34.6,52.14,39Zm-3.07,3-8.37-6,7.5,7.1Q49.17,42,49.62,41.48Zm24.45-8.81L74.65,25,73,32.52ZM51.44,39.59l-9.12-8,8,9.12Q50.85,40.14,51.44,39.59Zm-4.54,5.6-10-4.84,9.28,6.13C46.4,46,46.64,45.61,46.9,45.19Z"/></g><use width="257.01" height="223.64" transform="translate(10.68 58.98) scale(0.18 0.12)" xlink:href="#New_Symbol"/><use width="257.01" height="223.64" transform="translate(30.4 59.86) scale(0.18 0.12)" xlink:href="#New_Symbol"/><use width="257.01" height="223.64" transform="translate(37.4 61.23) scale(0.18 0.12)" xlink:href="#New_Symbol"/><use width="257.01" height="223.64" transform="translate(45.1 59.6) scale(0.18 0.12)" xlink:href="#New_Symbol"/><use width="257.01" height="223.64" transform="translate(84.62 48.72) scale(0.12 0.16)" xlink:href="#New_Symbol"/><use width="257.01" height="223.64" transform="translate(98.38 49.86) scale(0.12 0.16)" xlink:href="#New_Symbol"/><use width="257.01" height="223.64" transform="translate(103.27 51.64) scale(0.12 0.16)" xlink:href="#New_Symbol"/><use width="257.01" height="223.64" transform="translate(108.64 49.52) scale(0.12 0.16)" xlink:href="#New_Symbol"/><use width="257.01" height="223.64" transform="translate(49.51 37.19) scale(0.17 0.23)" xlink:href="#New_Symbol"/><use width="257.01" height="223.64" transform="translate(69.02 38.82) scale(0.17 0.23)" xlink:href="#New_Symbol"/><use width="257.01" height="223.64" transform="translate(75.95 41.34) scale(0.17 0.23)" xlink:href="#New_Symbol"/><use width="257.01" height="223.64" transform="translate(83.57 38.33) scale(0.17 0.23)" xlink:href="#New_Symbol"/><use width="257.01" height="223.64" transform="translate(42.31 72.15) scale(0.12 0.11)" xlink:href="#New_Symbol"/><use width="257.01" height="223.64" transform="translate(55.89 72.95) scale(0.12 0.11)" xlink:href="#New_Symbol"/><use width="257.01" height="223.64" transform="translate(60.71 74.18) scale(0.12 0.11)" xlink:href="#New_Symbol"/><use width="257.01" height="223.64" transform="translate(66.01 72.71) scale(0.12 0.11)" xlink:href="#New_Symbol"/><use width="257.01" height="223.64" transform="translate(58.42 75.46) rotate(180) scale(0.09 0.14)" xlink:href="#New_Symbol"/><use width="257.01" height="223.64" transform="translate(48.87 74.5) rotate(180) scale(0.09 0.14)" xlink:href="#New_Symbol"/><use width="257.01" height="223.64" transform="translate(45.48 73.01) rotate(180) scale(0.09 0.14)" xlink:href="#New_Symbol"/><use width="257.01" height="223.64" transform="translate(41.75 74.79) rotate(180) scale(0.09 0.14)" xlink:href="#New_Symbol"/><use width="257.01" height="223.64" transform="translate(82.75 88.3) scale(0.12 0.04)" xlink:href="#New_Symbol"/><use width="257.01" height="223.64" transform="translate(17.37 57.07) scale(0.19 0.15)" xlink:href="#New_Symbol_2"/><use width="257.01" height="223.64" transform="translate(53.56 66.22) scale(0.19 0.15)" xlink:href="#New_Symbol_2"/><use width="257.01" height="223.64" transform="translate(84.36 50.21) scale(0.19 0.15)" xlink:href="#New_Symbol_2"/><use width="257.01" height="223.64" transform="translate(72.84 58.46) scale(0.19 0.15)" xlink:href="#New_Symbol_2"/><use width="257.01" height="223.64" transform="translate(62.03 58.89) scale(0.18)" xlink:href="#New_Symbol_2"/><use width="257.01" height="223.64" transform="translate(56.76 52.07) scale(0.18)" xlink:href="#New_Symbol_2"/><use width="257.01" height="223.64" transform="translate(40.17 55.83) scale(0.17 0.16)" xlink:href="#New_Symbol_2"/><use width="257.01" height="223.64" transform="translate(94.47 49.32) scale(0.17 0.16)" xlink:href="#New_Symbol_2"/><use width="257.01" height="223.64" transform="translate(15.39 47.72) scale(0.19)" xlink:href="#New_Symbol_2"/><use width="257.01" height="223.64" transform="translate(75.75 40.18) scale(0.19)" xlink:href="#New_Symbol_2"/><use width="174.77" height="164.37" transform="translate(43.85 61.68) scale(0.31 0.14)" xlink:href="#New_Symbol_3"/><use width="174.77" height="164.37" transform="translate(12.43 59.24) scale(0.31 0.14)" xlink:href="#New_Symbol_3"/></g></g></g></svg>