<svg xmlns="http://www.w3.org/2000/svg" xmlns:xlink="http://www.w3.org/1999/xlink" viewBox="0 0 115.04 90.95"><defs><style>.cls-1{fill:url(#radial-gradient);}.cls-2{fill:url(#radial-gradient-2);}.cls-3{fill:url(#linear-gradient);}.cls-4{fill:url(#linear-gradient-2);}.cls-5{fill:url(#radial-gradient-3);}.cls-6{fill:url(#radial-gradient-4);}.cls-7{fill:url(#radial-gradient-5);}.cls-8{fill:url(#radial-gradient-6);}.cls-9{isolation:isolate;}.cls-10{mask:url(#mask);}.cls-11{fill:#ffdd15;}.cls-12{mask:url(#mask-2);}.cls-13{fill:url(#radial-gradient-7);}.cls-14{mask:url(#mask-3);}.cls-15{fill:#fff;}.cls-16{mask:url(#mask-4);}.cls-17{fill:#fff8d0;mix-blend-mode:hard-light;}.cls-18{mask:url(#mask-5);}.cls-19{fill:url(#radial-gradient-8);}.cls-20{opacity:0.66;}.cls-21{opacity:0.39;}</style><radialGradient id="radial-gradient" cx="59.08" cy="45.47" r="45.47" gradientUnits="userSpaceOnUse"><stop offset="0" stop-color="#fff"/><stop offset="0.16" stop-color="#ddd"/><stop offset="0.51" stop-color="#858585"/><stop offset="1"/></radialGradient><radialGradient id="radial-gradient-2" cx="59.08" cy="45.47" r="34.09" gradientUnits="userSpaceOnUse"><stop offset="0" stop-color="#fff"/><stop offset="0.18" stop-color="#fcfcfc"/><stop offset="0.32" stop-color="#f3f3f3"/><stop offset="0.43" stop-color="#e3e3e3"/><stop offset="0.54" stop-color="#cdcdcd"/><stop offset="0.64" stop-color="#b0b0b0"/><stop offset="0.74" stop-color="#8c8c8c"/><stop offset="0.83" stop-color="#626262"/><stop offset="0.92" stop-color="#333"/><stop offset="1"/></radialGradient><linearGradient id="linear-gradient" x1="71.53" y1="58.14" x2="77.1" y2="63.71" gradientUnits="userSpaceOnUse"><stop offset="0.31"/><stop offset="0.4" stop-color="#101010"/><stop offset="0.59" stop-color="#38393a"/><stop offset="0.84" stop-color="#797a7d"/><stop offset="1" stop-color="#a6a8ab"/></linearGradient><linearGradient id="linear-gradient-2" x1="816.71" y1="-109.76" x2="835.38" y2="-137.32" gradientTransform="matrix(1.1, 0, 0, 0.75, -859.81, 127.36)" gradientUnits="userSpaceOnUse"><stop offset="0" stop-color="#231f20"/><stop offset="1" stop-color="#fff"/></linearGradient><radialGradient id="radial-gradient-3" cx="59.08" cy="45.55" r="38.81" gradientUnits="userSpaceOnUse"><stop offset="0" stop-color="#fff"/><stop offset="0.14" stop-color="#fbfbfb"/><stop offset="0.27" stop-color="#efefef"/><stop offset="0.4" stop-color="#dcdbdb"/><stop offset="0.54" stop-color="#c0bfc0"/><stop offset="0.67" stop-color="#9d9b9c"/><stop offset="0.8" stop-color="#726f70"/><stop offset="0.93" stop-color="#3f3c3d"/><stop offset="1" stop-color="#231f20"/></radialGradient><radialGradient id="radial-gradient-4" cx="95.12" cy="-1816.76" r="95.12" gradientTransform="translate(0 1622) scale(1 0.84)" gradientUnits="userSpaceOnUse"><stop offset="0" stop-color="#fff"/><stop offset="1" stop-color="#fff" stop-opacity="0"/></radialGradient><radialGradient id="radial-gradient-5" cx="-9050.25" cy="4758.5" r="119.53" gradientTransform="matrix(0, 0.67, -1, 0, 4910.05, 6212.54)" xlink:href="#radial-gradient-4"/><radialGradient id="radial-gradient-6" cx="17411.05" cy="18.6" r="89.72" gradientTransform="matrix(0.64, 0, 0, 1.04, -10965.65, 106.74)" xlink:href="#radial-gradient-4"/><mask id="mask" x="13.61" y="0" width="90.95" height="90.95" maskUnits="userSpaceOnUse"><circle class="cls-1" cx="59.08" cy="45.47" r="45.47"/></mask><mask id="mask-2" x="24.99" y="11.38" width="68.18" height="68.18" maskUnits="userSpaceOnUse"><circle class="cls-2" cx="59.08" cy="45.47" r="34.09"/></mask><radialGradient id="radial-gradient-7" cx="59.08" cy="45.55" r="26.73" gradientUnits="userSpaceOnUse"><stop offset="0" stop-color="#ffdd15"/><stop offset="0.48" stop-color="#ffdb15"/><stop offset="0.65" stop-color="#fed416"/><stop offset="0.77" stop-color="#fdc917"/><stop offset="0.87" stop-color="#fbb819"/><stop offset="0.95" stop-color="#f8a21c"/><stop offset="1" stop-color="#f6921e"/></radialGradient><mask id="mask-3" x="64.89" y="51.51" width="18.11" height="18.11" maskUnits="userSpaceOnUse"><path class="cls-3" d="M82.6,51.83c1.32,1.32-.71,7.08-5.51,11.88s-10.56,6.83-11.88,5.51,1.51-6.28,6.31-11.08S81.29,50.51,82.6,51.83Z"/></mask><mask id="mask-4" x="34.74" y="19.91" width="32.01" height="30.64" maskUnits="userSpaceOnUse"><ellipse class="cls-4" cx="50.75" cy="35.22" rx="18.35" ry="12.41" transform="matrix(0.75, -0.66, 0.66, 0.75, -10.58, 42.61)"/></mask><mask id="mask-5" x="20.27" y="6.74" width="77.63" height="77.63" maskUnits="userSpaceOnUse"><path class="cls-5" d="M90.69,59.76,83.24,57q.23-.48.43-1Zm-9.59.94-.32.45,3.57,2.17Zm3.14-6.12,3.33.92L84.4,54.15Zm1.13-4.23q-.07.39-.15.78l5.9.76Zm.23-1.5c0,.34-.09.68-.15,1l7.69.58Zm.19-4.1c0,.27,0,.54,0,.81s0,.54,0,.81l12.1-.81Zm-4.73-14.4.44.66,4.71-3.64Zm2.82,5.22q.2.49.38,1l7.22-3.31Zm1.49,5.12c0,.18.06.36.1.55l4.06-1Zm-2.11-6.54,3-1.71-3.21,1.29ZM70.52,21.39l2.77-7.45-3.73,7Zm2.42,1.31,4.85-10L71.65,22Q72.31,22.31,72.94,22.69ZM85.76,43.88c0,.18,0,.37,0,.56l4.15-.5ZM76.65,25.41l6-8.37-7.1,7.5C76,24.82,76.31,25.11,76.65,25.41Zm-10-5.5L68.89,8.21,65.1,19.5C65.62,19.62,66.13,19.76,66.63,19.91Zm1.47.48L69,17.06l-1.35,3.18Zm10.43,6.85,8-9.12-9.12,8Q78,26.64,78.54,27.23Zm4,5.53,9.86-6.68L81.75,31.39C82,31.84,82.3,32.3,82.55,32.76ZM64.65,19.41l.76-5.9-1.54,5.75Zm21.1,24.33,10.2-1.65-10.32.28Q85.7,43,85.75,43.74Zm-5-13.79,5.85-5-6.47,4.2Q80.48,29.53,80.78,29.94ZM85,39.19l10.5-3.65L84.66,37.76Q84.87,38.47,85,39.19ZM33.91,36.53l-3.33-.92L33.76,37Zm.57-1.45c.14-.32.28-.65.43-1l-7.45-2.77Zm-1.7,5.68c0-.26.1-.52.15-.78L27,39.22Zm-.31,2.32L27,43l5.38.79C32.42,43.56,32.44,43.32,32.46,43.08Zm.09-.82c0-.34.09-.68.15-1L25,40.66Zm-.15,5c0-.18,0-.37,0-.56l-4.15.5Zm46.73,16-.37.41L82,66.23ZM37.05,30.41l.32-.45L33.8,27.78ZM85.75,47.3q0,.36-.06.72l5.43.07ZM39,27.88l.37-.41-3.29-2.58ZM41.4,65.6,41,65.23,38.4,68.52ZM74.22,23.53l.45.32,2.17-3.57ZM43.94,67.58l-.45-.32-2.17,3.57Zm-.06-44,.66-.44-3.64-4.71ZM76.76,25.5l.41.37,2.59-3.29Zm-2.47,42-.66.44,3.64,4.71ZM37.09,60.76l-.44-.66-4.71,3.63ZM34.9,57l-3,1.71,3.21-1.29ZM39,63.18l-.47-.55-3.89,3.79Zm-4.7-7.64q-.2-.49-.38-1l-7.22,3.31Zm-1.49-5.12q0-.27-.09-.55l-4.06,1ZM79.17,27.93l.47.55,3.89-3.79Zm-24.4,44-.58,7.69,1.6-7.54Zm1.84.23-.07,5.43.79-5.38Zm2.47.12h-.81l.81,12.1.81-12.1Zm1.12,0,.5,4.15.06-4.18Zm3.2-.32,1,4.06-.44-4.15Zm-2.5.29,1.65,10.19-.28-10.32Q61.59,72.18,60.9,72.22ZM41.51,65.7l-6,8.37,7.1-7.5Q42,66.15,41.51,65.7Zm12,6-.76,5.9,1.54-5.75Zm-8.29-3.29-4.85,10,6.13-9.28C46.07,68.91,45.64,68.67,45.22,68.41Zm6.31,2.79-2.25,11.7L53.06,71.6Q52.28,71.42,51.52,71.2Zm-1.47-.48-.92,3.33,1.35-3.18Zm-2.41-1-2.77,7.45,3.73-7Zm31.58-6.59,8.37,6-7.5-7.1C79.82,62.43,79.52,62.78,79.22,63.13ZM77.4,65l9.12,8-8-9.12Q78,64.46,77.4,65Zm4.54-5.6,10,4.85-9.28-6.13Q82.32,58.78,81.94,59.42Zm2.79-6.31,11.69,2.25L85.13,51.58C85,52.09,84.87,52.6,84.73,53.11Zm-8.57,13L79.95,70,76.7,65.65Zm-10.71,5.4L69.09,82,66.87,71.13Q66.16,71.34,65.44,71.52Zm5-1.79,1.71,3-1.29-3.21Zm-2.41,1L71.39,78l-2.32-7.6Zm6.61-3.48,5,5.85-4.21-6.47ZM71.87,69l6.68,9.86L73.24,68.23C72.79,68.51,72.34,68.78,71.87,69ZM33.43,38,21.74,35.75,33,39.53C33.15,39,33.28,38.5,33.43,38ZM52.72,19.59,49.07,9.08,51.29,20Q52,19.76,52.72,19.59Zm-2.64.79-3.31-7.22,2.32,7.6Zm-3.79,1.7-6.68-9.86,5.31,10.66C45.37,22.6,45.82,22.33,46.29,22.08Zm8.47-2.91-1-4.06.44,4.15ZM43.47,23.85l-5-5.85,4.2,6.47Zm4.2-2.48-1.71-3,1.29,3.21Zm13.88-2.44.07-5.43-.79,5.38Zm-2.47-.11h.81l-.81-12.1-.81,12.1Zm-1.82.06L55.61,8.69,55.89,19C56.35,19,56.8,18.92,57.26,18.89Zm.7,0-.5-4.15-.06,4.18ZM33.11,51.92l-10.5,3.65L33.5,53.34Q33.29,52.64,33.11,51.92Zm6.5,12-8,9.12,9.12-8Q40.17,64.46,39.62,63.87ZM32.35,45.55c0-.27,0-.54,0-.81l-12.1.81,12.1.81C32.35,46.09,32.35,45.82,32.35,45.55Zm.06,1.82L22.22,49l10.32-.28C32.48,48.29,32.44,47.83,32.41,47.37Zm5,13.79-5.85,5L38,62C37.79,61.72,37.58,61.44,37.38,61.17ZM35.6,58.35,25.74,65,36.4,59.71C36.12,59.27,35.86,58.81,35.6,58.35ZM42,25,38.21,21.1l3.24,4.36Zm-3.07,3-8.37-6,7.5,7.1Q38.48,28.5,38.94,28Zm24.45-8.81L64,11.48,62.37,19ZM40.76,26.09l-9.12-8,8,9.12Q40.17,26.64,40.76,26.09Zm-4.54,5.6-10-4.84L35.49,33C35.72,32.54,36,32.11,36.22,31.69Z"/></mask><radialGradient id="radial-gradient-8" cx="59.08" cy="45.55" r="38.81" gradientUnits="userSpaceOnUse"><stop offset="0.13" stop-color="#f6921e"/><stop offset="1" stop-color="#ffdd15"/></radialGradient><symbol id="New_Symbol" data-name="New Symbol" viewBox="0 0 257.01 223.64"><ellipse class="cls-6" cx="95.12" cy="100.46" rx="95.12" ry="79.67"/><ellipse class="cls-7" cx="151.78" cy="111.82" rx="119.53" ry="80.57" transform="translate(-19.1 191.45) rotate(-61.36)"/><ellipse class="cls-8" cx="167.61" cy="125.74" rx="57.37" ry="93.72" transform="translate(-12.47 232.87) rotate(-67.62)"/></symbol></defs><title>Ресурс 2weather</title><g class="cls-9"><g id="Слой_2" data-name="Слой 2"><g id="Layer_2" data-name="Layer 2"><g class="cls-10"><circle class="cls-11" cx="59.08" cy="45.47" r="45.47"/></g><g class="cls-12"><circle class="cls-11" cx="59.08" cy="45.47" r="34.09"/></g><circle class="cls-13" cx="59.08" cy="45.55" r="26.73"/><g class="cls-14"><path class="cls-15" d="M82.6,51.83c1.32,1.32-.71,7.08-5.51,11.88s-10.56,6.83-11.88,5.51,1.51-6.28,6.31-11.08S81.29,50.51,82.6,51.83Z"/></g><g class="cls-16"><ellipse class="cls-17" cx="50.75" cy="35.22" rx="18.35" ry="12.41" transform="matrix(0.75, -0.66, 0.66, 0.75, -10.58, 42.61)"/></g><g class="cls-18"><path class="cls-19" d="M90.69,59.76,83.24,57q.23-.48.43-1Zm-9.59.94-.32.45,3.57,2.17Zm3.14-6.12,3.33.92L84.4,54.15Zm1.13-4.23q-.07.39-.15.78l5.9.76Zm.23-1.5c0,.34-.09.68-.15,1l7.69.58Zm.19-4.1c0,.27,0,.54,0,.81s0,.54,0,.81l12.1-.81Zm-4.73-14.4.44.66,4.71-3.64Zm2.82,5.22q.2.49.38,1l7.22-3.31Zm1.49,5.12c0,.18.06.36.1.55l4.06-1Zm-2.11-6.54,3-1.71-3.21,1.29ZM70.52,21.39l2.77-7.45-3.73,7Zm2.42,1.31,4.85-10L71.65,22Q72.31,22.31,72.94,22.69ZM85.76,43.88c0,.18,0,.37,0,.56l4.15-.5ZM76.65,25.41l6-8.37-7.1,7.5C76,24.82,76.31,25.11,76.65,25.41Zm-10-5.5L68.89,8.21,65.1,19.5C65.62,19.62,66.13,19.76,66.63,19.91Zm1.47.48L69,17.06l-1.35,3.18Zm10.43,6.85,8-9.12-9.12,8Q78,26.64,78.54,27.23Zm4,5.53,9.86-6.68L81.75,31.39C82,31.84,82.3,32.3,82.55,32.76ZM64.65,19.41l.76-5.9-1.54,5.75Zm21.1,24.33,10.2-1.65-10.32.28Q85.7,43,85.75,43.74Zm-5-13.79,5.85-5-6.47,4.2Q80.48,29.53,80.78,29.94ZM85,39.19l10.5-3.65L84.66,37.76Q84.87,38.47,85,39.19ZM33.91,36.53l-3.33-.92L33.76,37Zm.57-1.45c.14-.32.28-.65.43-1l-7.45-2.77Zm-1.7,5.68c0-.26.1-.52.15-.78L27,39.22Zm-.31,2.32L27,43l5.38.79C32.42,43.56,32.44,43.32,32.46,43.08Zm.09-.82c0-.34.09-.68.15-1L25,40.66Zm-.15,5c0-.18,0-.37,0-.56l-4.15.5Zm46.73,16-.37.41L82,66.23ZM37.05,30.41l.32-.45L33.8,27.78ZM85.75,47.3q0,.36-.06.72l5.43.07ZM39,27.88l.37-.41-3.29-2.58ZM41.4,65.6,41,65.23,38.4,68.52ZM74.22,23.53l.45.32,2.17-3.57ZM43.94,67.58l-.45-.32-2.17,3.57Zm-.06-44,.66-.44-3.64-4.71ZM76.76,25.5l.41.37,2.59-3.29Zm-2.47,42-.66.44,3.64,4.71ZM37.09,60.76l-.44-.66-4.71,3.63ZM34.9,57l-3,1.71,3.21-1.29ZM39,63.18l-.47-.55-3.89,3.79Zm-4.7-7.64q-.2-.49-.38-1l-7.22,3.31Zm-1.49-5.12q0-.27-.09-.55l-4.06,1ZM79.17,27.93l.47.55,3.89-3.79Zm-24.4,44-.58,7.69,1.6-7.54Zm1.84.23-.07,5.43.79-5.38Zm2.47.12h-.81l.81,12.1.81-12.1Zm1.12,0,.5,4.15.06-4.18Zm3.2-.32,1,4.06-.44-4.15Zm-2.5.29,1.65,10.19-.28-10.32Q61.59,72.18,60.9,72.22ZM41.51,65.7l-6,8.37,7.1-7.5Q42,66.15,41.51,65.7Zm12,6-.76,5.9,1.54-5.75Zm-8.29-3.29-4.85,10,6.13-9.28C46.07,68.91,45.64,68.67,45.22,68.41Zm6.31,2.79-2.25,11.7L53.06,71.6Q52.28,71.42,51.52,71.2Zm-1.47-.48-.92,3.33,1.35-3.18Zm-2.41-1-2.77,7.45,3.73-7Zm31.58-6.59,8.37,6-7.5-7.1C79.82,62.43,79.52,62.78,79.22,63.13ZM77.4,65l9.12,8-8-9.12Q78,64.46,77.4,65Zm4.54-5.6,10,4.85-9.28-6.13Q82.32,58.78,81.94,59.42Zm2.79-6.31,11.69,2.25L85.13,51.58C85,52.09,84.87,52.6,84.73,53.11Zm-8.57,13L79.95,70,76.7,65.65Zm-10.71,5.4L69.09,82,66.87,71.13Q66.16,71.34,65.44,71.52Zm5-1.79,1.71,3-1.29-3.21Zm-2.41,1L71.39,78l-2.32-7.6Zm6.61-3.48,5,5.85-4.21-6.47ZM71.87,69l6.68,9.86L73.24,68.23C72.79,68.51,72.34,68.78,71.87,69ZM33.43,38,21.74,35.75,33,39.53C33.15,39,33.28,38.5,33.43,38ZM52.72,19.59,49.07,9.08,51.29,20Q52,19.76,52.72,19.59Zm-2.64.79-3.31-7.22,2.32,7.6Zm-3.79,1.7-6.68-9.86,5.31,10.66C45.37,22.6,45.82,22.33,46.29,22.08Zm8.47-2.91-1-4.06.44,4.15ZM43.47,23.85l-5-5.85,4.2,6.47Zm4.2-2.48-1.71-3,1.29,3.21Zm13.88-2.44.07-5.43-.79,5.38Zm-2.47-.11h.81l-.81-12.1-.81,12.1Zm-1.82.06L55.61,8.69,55.89,19C56.35,19,56.8,18.92,57.26,18.89Zm.7,0-.5-4.15-.06,4.18ZM33.11,51.92l-10.5,3.65L33.5,53.34Q33.29,52.64,33.11,51.92Zm6.5,12-8,9.12,9.12-8Q40.17,64.46,39.62,63.87ZM32.35,45.55c0-.27,0-.54,0-.81l-12.1.81,12.1.81C32.35,46.09,32.35,45.82,32.35,45.55Zm.06,1.82L22.22,49l10.32-.28C32.48,48.29,32.44,47.83,32.41,47.37Zm5,13.79-5.85,5L38,62C37.79,61.72,37.58,61.44,37.38,61.17ZM35.6,58.35,25.74,65,36.4,59.71C36.12,59.27,35.86,58.81,35.6,58.35ZM42,25,38.21,21.1l3.24,4.36Zm-3.07,3-8.37-6,7.5,7.1Q38.48,28.5,38.94,28Zm24.45-8.81L64,11.48,62.37,19ZM40.76,26.09l-9.12-8,8,9.12Q40.17,26.64,40.76,26.09Zm-4.54,5.6-10-4.84L35.49,33C35.72,32.54,36,32.11,36.22,31.69Z"/></g><use width="257.01" height="223.64" transform="translate(0 45.48) scale(0.18 0.12)" xlink:href="#New_Symbol"/><use width="257.01" height="223.64" transform="translate(19.72 46.36) scale(0.18 0.12)" xlink:href="#New_Symbol"/><use width="257.01" height="223.64" transform="translate(26.72 47.73) scale(0.18 0.12)" xlink:href="#New_Symbol"/><use width="257.01" height="223.64" transform="translate(34.42 46.1) scale(0.18 0.12)" xlink:href="#New_Symbol"/><g class="cls-20"><use width="257.01" height="223.64" transform="translate(31.63 58.66) scale(0.12 0.11)" xlink:href="#New_Symbol"/><use width="257.01" height="223.64" transform="translate(45.21 59.45) scale(0.12 0.11)" xlink:href="#New_Symbol"/><use width="257.01" height="223.64" transform="translate(50.03 60.69) scale(0.12 0.11)" xlink:href="#New_Symbol"/><use width="257.01" height="223.64" transform="translate(55.33 59.21) scale(0.12 0.11)" xlink:href="#New_Symbol"/></g><g class="cls-21"><use width="257.01" height="223.64" transform="translate(115.04 72.44) rotate(180) scale(0.07 0.07)" xlink:href="#New_Symbol"/><use width="257.01" height="223.64" transform="translate(107.2 71.97) rotate(180) scale(0.07 0.07)" xlink:href="#New_Symbol"/><use width="257.01" height="223.64" transform="translate(104.42 71.24) rotate(180) scale(0.07 0.07)" xlink:href="#New_Symbol"/><use width="257.01" height="223.64" transform="translate(101.36 72.11) rotate(180) scale(0.07 0.07)" xlink:href="#New_Symbol"/></g><g class="cls-21"><use width="257.01" height="223.64" transform="translate(98.98 38.44) rotate(180) scale(0.06 0.09)" xlink:href="#New_Symbol"/><use width="257.01" height="223.64" transform="translate(92.82 37.82) rotate(180) scale(0.06 0.09)" xlink:href="#New_Symbol"/><use width="257.01" height="223.64" transform="translate(90.64 36.86) rotate(180) scale(0.06 0.09)" xlink:href="#New_Symbol"/><use width="257.01" height="223.64" transform="translate(88.23 38.01) rotate(180) scale(0.06 0.09)" xlink:href="#New_Symbol"/></g><use width="257.01" height="223.64" transform="translate(72.06 74.81) scale(0.12 0.04)" xlink:href="#New_Symbol"/></g></g></g></svg>