<svg xmlns="http://www.w3.org/2000/svg" xmlns:xlink="http://www.w3.org/1999/xlink" viewBox="0 0 255.54 247.92"><defs><style>.cls-1{fill:#fff;}.cls-2{fill:url(#linear-gradient);}.cls-3{fill:url(#linear-gradient-2);}.cls-4{fill:url(#linear-gradient-3);}.cls-5{fill:url(#linear-gradient-4);}.cls-6{fill:url(#linear-gradient-5);}.cls-7{fill:url(#linear-gradient-6);}.cls-8{fill:url(#linear-gradient-7);}.cls-9{fill:url(#linear-gradient-8);}.cls-10{fill:url(#linear-gradient-9);}.cls-11{fill:url(#linear-gradient-10);}.cls-12{fill:url(#linear-gradient-11);}.cls-13{fill:url(#linear-gradient-12);}.cls-14{fill:url(#linear-gradient-13);}.cls-15{fill:#d68c00;}.cls-16{fill:#fff280;}.cls-17{fill:url(#linear-gradient-14);}.cls-18{fill:url(#linear-gradient-15);}.cls-19{fill:url(#linear-gradient-16);}.cls-20{fill:url(#linear-gradient-17);}.cls-21{fill:url(#linear-gradient-18);}.cls-22{fill:url(#linear-gradient-19);}.cls-23{fill:#999595;}.cls-24{fill:url(#linear-gradient-20);}.cls-25{fill:#eaeaea;}.cls-26{fill:#ffb0a2;}</style><linearGradient id="linear-gradient" x1="183" y1="49.77" x2="183" y2="111.69" gradientUnits="userSpaceOnUse"><stop offset="0" stop-color="#ffdb00"/><stop offset="1" stop-color="#e8a300"/></linearGradient><linearGradient id="linear-gradient-2" x1="170.05" y1="26.11" x2="170.05" y2="136.84" xlink:href="#linear-gradient"/><linearGradient id="linear-gradient-3" x1="195.94" y1="26.1" x2="195.94" y2="136.84" xlink:href="#linear-gradient"/><linearGradient id="linear-gradient-4" x1="147.63" y1="26.11" x2="147.63" y2="136.84" xlink:href="#linear-gradient"/><linearGradient id="linear-gradient-5" x1="218.36" y1="26.1" x2="218.36" y2="136.84" xlink:href="#linear-gradient"/><linearGradient id="linear-gradient-6" x1="231.32" y1="26.1" x2="231.32" y2="136.84" xlink:href="#linear-gradient"/><linearGradient id="linear-gradient-7" x1="195.94" y1="26.11" x2="195.94" y2="136.84" xlink:href="#linear-gradient"/><linearGradient id="linear-gradient-8" x1="170.05" y1="26.11" x2="170.05" y2="136.84" xlink:href="#linear-gradient"/><linearGradient id="linear-gradient-9" x1="231.32" y1="26.1" x2="231.32" y2="136.84" xlink:href="#linear-gradient"/><linearGradient id="linear-gradient-10" x1="218.36" y1="26.11" x2="218.36" y2="136.84" xlink:href="#linear-gradient"/><linearGradient id="linear-gradient-11" x1="134.67" y1="26.11" x2="134.67" y2="136.84" xlink:href="#linear-gradient"/><linearGradient id="linear-gradient-12" x1="134.68" y1="26.11" x2="134.68" y2="136.84" xlink:href="#linear-gradient"/><linearGradient id="linear-gradient-13" x1="147.63" y1="26.12" x2="147.63" y2="136.84" xlink:href="#linear-gradient"/><linearGradient id="linear-gradient-14" x1="83.93" y1="111.68" x2="83.93" y2="227.35" gradientUnits="userSpaceOnUse"><stop offset="0" stop-color="#d4d5d5"/><stop offset="1" stop-color="#a8a8a8"/></linearGradient><linearGradient id="linear-gradient-15" x1="83.93" y1="114.55" x2="83.93" y2="225.65" xlink:href="#linear-gradient-14"/><linearGradient id="linear-gradient-16" x1="83.93" y1="36.06" x2="83.93" y2="210.54" gradientUnits="userSpaceOnUse"><stop offset="0" stop-color="#f5f5f5"/><stop offset="1" stop-color="#cfcfcf"/></linearGradient><linearGradient id="linear-gradient-17" x1="83.69" y1="34.89" x2="83.69" y2="210.81" gradientUnits="userSpaceOnUse"><stop offset="0" stop-color="#ededed"/><stop offset="1" stop-color="#cfcfcf"/></linearGradient><linearGradient id="linear-gradient-18" x1="83.69" y1="92.55" x2="83.69" y2="200.23" gradientUnits="userSpaceOnUse"><stop offset="0" stop-color="#ff5b3f"/><stop offset="1" stop-color="#bf2200"/></linearGradient><linearGradient id="linear-gradient-19" x1="83.93" y1="92.55" x2="83.93" y2="200.23" xlink:href="#linear-gradient-18"/><linearGradient id="linear-gradient-20" x1="83.54" y1="149.33" x2="83.54" y2="172.3" gradientUnits="userSpaceOnUse"><stop offset="0" stop-color="#ff927f"/><stop offset="1" stop-color="#d03110"/></linearGradient></defs><title>Ресурс 25weather2</title><g id="Слой_2" data-name="Слой 2"><g id="icons"><path class="cls-1" d="M253,75.22A19.21,19.21,0,0,0,240.3,46.82a19.28,19.28,0,0,0,.95-5.94A19.21,19.21,0,0,0,216.07,22.6,19.19,19.19,0,0,0,183,13.74a19.19,19.19,0,0,0-33.07,8.86,19.2,19.2,0,0,0-19.54,4.68l-.17.19A48.7,48.7,0,0,0,120,14.16,53.86,53.86,0,0,0,83.22,0C50.47,0,33,26.49,33,45.62v67.07C12.24,126.86,0,148.88,0,172.61c0,41.53,37.65,75.31,83.93,75.31s83.93-33.78,83.93-75.31A68.55,68.55,0,0,0,164.68,152,19.1,19.1,0,0,0,183,146a19.19,19.19,0,0,0,33.07-8.86A19.21,19.21,0,0,0,240.3,113a19.2,19.2,0,0,0,8.87-33.08A19.27,19.27,0,0,0,253,75.22Z"/><circle class="cls-2" cx="183" cy="79.89" r="36.86"/><path class="cls-3" d="M171.38,40.79a4.23,4.23,0,0,1-4.08-3.13l-2.67-10a4.23,4.23,0,1,1,8.16-2.19l2.67,10a4.23,4.23,0,0,1-4.09,5.32Z"/><path class="cls-4" d="M194.61,40.79a4.23,4.23,0,0,1-4.08-5.32l2.67-10a4.23,4.23,0,0,1,8.17,2.19l-2.68,10a4.23,4.23,0,0,1-4.08,3.13Z"/><path class="cls-5" d="M151.28,52.41a4.21,4.21,0,0,1-3-1.24L141,43.86a4.23,4.23,0,0,1,6-6l7.31,7.31a4.23,4.23,0,0,1-3,7.21Z"/><path class="cls-6" d="M214.71,52.41a4.23,4.23,0,0,1-3-7.21L219,37.88a4.23,4.23,0,0,1,6,6l-7.31,7.31a4.21,4.21,0,0,1-3,1.24Z"/><path class="cls-7" d="M226.32,72.51a4.23,4.23,0,0,1-1.09-8.31l10-2.67a4.23,4.23,0,1,1,2.19,8.16l-10,2.67a4.23,4.23,0,0,1-1.1.15Z"/><path class="cls-8" d="M197.28,137.44a4.23,4.23,0,0,1-4.08-3.13l-2.67-10a4.23,4.23,0,0,1,8.16-2.19l2.68,10a4.23,4.23,0,0,1-3,5.18,4.17,4.17,0,0,1-1.1.15Z"/><path class="cls-9" d="M168.71,137.44a4.18,4.18,0,0,1-1.1-.15,4.23,4.23,0,0,1-3-5.18l2.67-10a4.23,4.23,0,0,1,8.16,2.19l-2.67,10a4.23,4.23,0,0,1-4.08,3.13Z"/><path class="cls-10" d="M236.31,98.41a4.19,4.19,0,0,1-1.1-.15l-10-2.68a4.23,4.23,0,0,1,2.19-8.16l10,2.68a4.23,4.23,0,0,1-1.09,8.31Z"/><path class="cls-11" d="M222,123.14a4.22,4.22,0,0,1-3-1.24l-7.31-7.31a4.23,4.23,0,1,1,6-6l7.31,7.31a4.22,4.22,0,0,1-3,7.21Z"/><path class="cls-12" d="M129.68,98.41a4.23,4.23,0,0,1-1.09-8.31l10-2.68a4.23,4.23,0,1,1,2.19,8.16l-10,2.68a4.21,4.21,0,0,1-1.1.14Z"/><path class="cls-13" d="M139.67,72.51a4.21,4.21,0,0,1-1.1-.15l-10-2.67a4.23,4.23,0,1,1,2.19-8.16l10,2.67a4.23,4.23,0,0,1-1.09,8.31Z"/><path class="cls-14" d="M144,123.14a4.22,4.22,0,0,1-3-7.21l7.31-7.31a4.23,4.23,0,0,1,6,6L147,121.9a4.22,4.22,0,0,1-3,1.24Z"/><path class="cls-15" d="M183.24,109.67c-14.58,0-26.65-7.15-31.55-15.74,3.71,10.14,17,20.71,31.55,20.71s27.84-10.56,31.55-20.71C209.89,102.52,197.82,109.67,183.24,109.67Z"/><path class="cls-16" d="M183.24,48.56c-14.58,0-26.65,7.72-31.55,16.31,3.71-10.14,17-20.71,31.55-20.71s27.84,10.57,31.55,20.71C209.89,56.28,197.82,48.56,183.24,48.56Z"/><path class="cls-17" d="M119.83,160.4A23.93,23.93,0,0,1,95.9,184.33H72A23.93,23.93,0,0,1,48,160.4V45.62C48,32.4,60.72,15,83.22,15s36.61,17.4,36.61,30.62Z"/><ellipse class="cls-18" cx="83.93" cy="172.61" rx="68.93" ry="60.31"/><path class="cls-19" d="M83.93,211.08c-23.49,0-42.6-17.26-42.6-38.47s19.11-38.47,42.6-38.47,42.6,17.26,42.6,38.47-19.11,38.47-42.6,38.47Z"/><path class="cls-20" d="M83.69,176.77a23,23,0,0,1-23-23V55a23,23,0,1,1,45.95,0V153.8a23,23,0,0,1-23,23Z"/><path class="cls-21" d="M83.69,79.13a13.4,13.4,0,0,0-13.4,13.4V153.8a13.4,13.4,0,1,0,26.8,0V92.54A13.4,13.4,0,0,0,83.69,79.13Z"/><ellipse class="cls-22" cx="83.93" cy="172.61" rx="33.03" ry="28.9"/><path class="cls-23" d="M84.17,223.51c-22,0-45.68-14.36-57.75-23.93,8.93,12.92,29.4,30.15,57.75,30.15s48.83-17.23,57.75-30.15C129.85,209.16,106.22,223.51,84.17,223.51Z"/><ellipse class="cls-24" cx="83.54" cy="159.54" rx="21.7" ry="12.13"/><path class="cls-25" d="M83.86,17.87c-12.12,0-29.58,10.05-30.55,22.25,3.64-9.33,19.16-17.71,30.55-17.71s26.91,8.38,30.55,17.71C113.44,27.92,96,17.87,83.86,17.87Z"/><path class="cls-26" d="M83.62,81C79,81,72.26,85.11,71.89,90.14c1.4-3.85,7.35-6.54,11.73-6.54s10.33,2.69,11.72,6.54C95,85.11,88.27,81,83.62,81Z"/><path class="cls-23" d="M119.83,70.84H104.11a4.31,4.31,0,1,0,0,8.62h15.72Z"/><path class="cls-23" d="M119.83,90.14H104.11a4.31,4.31,0,1,0,0,8.61h15.72Z"/><path class="cls-23" d="M119.83,51.53H104.11a4.31,4.31,0,1,0,0,8.62h15.72Z"/><path class="cls-23" d="M119.83,109.44H104.11a4.31,4.31,0,0,0,0,8.62h15.72Z"/></g></g></svg>