<svg xmlns="http://www.w3.org/2000/svg" xmlns:xlink="http://www.w3.org/1999/xlink" viewBox="0 0 208.49 211.68"><defs><style>.cls-1{fill:#fff;}.cls-2{fill:#d9dee1;}.cls-3{fill:url(#linear-gradient);}.cls-4{fill:url(#linear-gradient-2);}.cls-5{fill:url(#linear-gradient-3);}.cls-6{fill:url(#linear-gradient-4);}.cls-7{fill:url(#linear-gradient-5);}.cls-8{fill:url(#linear-gradient-6);}.cls-9{fill:url(#linear-gradient-7);}</style><linearGradient id="linear-gradient" x1="-73.43" y1="191.58" x2="-73.43" y2="270.24" gradientTransform="translate(183.14 -136.42) rotate(1.39)" gradientUnits="userSpaceOnUse"><stop offset="0" stop-color="#fff"/><stop offset="1" stop-color="#c7c7c7"/></linearGradient><linearGradient id="linear-gradient-2" x1="-70.08" y1="207.39" x2="-69.07" y2="263.82" xlink:href="#linear-gradient"/><linearGradient id="linear-gradient-3" x1="103.05" y1="100.8" x2="103.05" y2="131.94" gradientUnits="userSpaceOnUse"><stop offset="0" stop-color="#dfdfdf"/><stop offset="1" stop-color="#a8a8a8"/></linearGradient><linearGradient id="linear-gradient-4" x1="-220.17" y1="-1903.18" x2="-220.17" y2="-1847.1" gradientTransform="translate(-1099.52 1652.68) rotate(45)" gradientUnits="userSpaceOnUse"><stop offset="0" stop-color="#84d9ff"/><stop offset="1" stop-color="#2999f5"/></linearGradient><linearGradient id="linear-gradient-5" x1="-45.42" y1="-1530.11" x2="-45.42" y2="-1506.69" gradientTransform="matrix(0.81, 0.59, -0.59, 0.81, -787.19, 1408.44)" gradientUnits="userSpaceOnUse"><stop offset="0" stop-color="#8ccefd"/><stop offset="1" stop-color="#92d3ff"/></linearGradient><linearGradient id="linear-gradient-6" x1="-170.78" y1="-1952.57" x2="-170.78" y2="-1896.5" xlink:href="#linear-gradient-4"/><linearGradient id="linear-gradient-7" x1="10.9" y1="-1571.42" x2="10.9" y2="-1548" xlink:href="#linear-gradient-5"/></defs><title>Ресурс 15weather2</title><g id="Слой_2" data-name="Слой 2"><g id="icons"><path class="cls-1" d="M190.28,43.33c-9.46-8.85-21.82-14-35.92-15.06A55.4,55.4,0,0,0,139,11.74,63.47,63.47,0,0,0,104.39,0l-1.44,0A57.3,57.3,0,0,0,71.81,9a47.88,47.88,0,0,0-11,9.89h-.23A35.19,35.19,0,0,0,29.33,38a33.2,33.2,0,0,0-2.58,6.94,45,45,0,0,0-7.84,5.17,52.86,52.86,0,0,0-15.23,21A49.19,49.19,0,0,0,.54,96.84a43.6,43.6,0,0,0,14,25.83c8.23,7.47,20.26,13.25,35.76,17.17,2,.54,4.07,1.05,6.2,1.53a51.79,51.79,0,0,0-10.81,6c-9.41,7-15,16.8-15.78,27.46a33.88,33.88,0,0,0,9.79,26.41,36.79,36.79,0,0,0,25.52,10.44h0a34.94,34.94,0,0,0,29.16-15.77,56.72,56.72,0,0,0,6-11.89,33.73,33.73,0,0,0,9.21,17.23A36.79,36.79,0,0,0,135,211.68h0a34.94,34.94,0,0,0,29.16-15.77c5.8-8.53,8.88-20,10.43-28.15,3.18-16.6,1.55-22.9-1.89-27.26a15.41,15.41,0,0,0-3.82-3.46c11.1-4.12,20-9.65,26.46-16.53,9.65-10.23,14.13-23.23,12.94-37.62C207,66.8,200.75,53.12,190.28,43.33Zm-84.54,103h1.55c3.41,0,6.73-.08,10-.2-.61.4-1.21.82-1.78,1.25a42.17,42.17,0,0,0-9.17,9.33A32.36,32.36,0,0,0,105.74,146.32Z"/><path class="cls-2" d="M100.88,130.94c-36.4-.88-63.49-7.76-76.29-19.38a28.75,28.75,0,0,1-9.23-17,34.2,34.2,0,0,1,2.25-17.86,37.61,37.61,0,0,1,10.8-15,27.12,27.12,0,0,1,12.67-6,17.39,17.39,0,0,1,1.65-11,20,20,0,0,1,18.39-10.8,21.11,21.11,0,0,1,7.18,1.46A30.91,30.91,0,0,1,80,21.59,42.19,42.19,0,0,1,104,15a48.11,48.11,0,0,1,26.25,8.91,38.21,38.21,0,0,1,14.48,19.29c1.92-.13,3.81-.17,5.65-.13,11.85.29,22.1,4.16,29.62,11.2,7.7,7.2,12.31,17.52,13.32,29.84.84,10.16-2.16,18.94-8.9,26.09-18.26,19.35-60.2,21.29-83.58,20.73Z"/><path class="cls-3" d="M103.87,21.6c15.9.38,34,11.61,36.81,29.75,26.19-3.77,45.23,10,47.34,37,2.86,36.6-48.09,43.81-87.15,42.86S38.33,122.33,28,112.58C8.55,94.2,29,58.49,49.23,64.37,38.51,50.08,56.9,33.26,71.47,45.64,73.58,29.86,89,21.24,103.87,21.6Z"/><path class="cls-2" d="M107.86,119.79c-8.79-.21-37.13-2.49-50.33-17.64-8.06-9.26-6.88-20.24.7-28.72C64.75,66.12,72.61,66,78,66.16a30.61,30.61,0,0,1,8.44,1.38,15.54,15.54,0,0,1,3.14-7.34c4-5.15,11.1-8.41,18.65-8.49h1.51a31.79,31.79,0,0,1,17.13,5,21.57,21.57,0,0,1,8.77,12,38.43,38.43,0,0,1,4-.11c8.71.21,19.54,3.45,23.8,11.91s.3,23.33-12.12,32.52C141.06,120.59,107.86,119.79,107.86,119.79Z"/><path class="cls-4" d="M157.73,110.62c-8.18,15.06-24.84,18.91-40.28,18.81-16.32-.1-35.62-1-50-9.67-9.1-5.47-17.05-21.37-11.62-33.46C61.31,74,78.59,69.66,90.48,76.78c-2.63-10.71,7.46-18.1,17.75-18.24,11.7-.15,22.49,5.2,24.21,17.74,8.77-1.7,22.53.62,26.91,9.68C163.46,94.46,162,102.75,157.73,110.62Z"/><path class="cls-5" d="M103.58,97.72c-34,0-74.95-2.39-74.95,7.53s28.72,24,74.6,24,74.25-13.35,74.25-21.22S129.85,97.72,103.58,97.72Z"/><path class="cls-2" d="M83.17,36c14.78-.49,24.41,7.44,23,19.72C103.67,47.19,96,44,83.91,43.32S64.53,49.06,62.58,54.94C62.2,43.55,72.48,36.36,83.17,36Z"/><path class="cls-6" d="M91.1,149.79c-1.44-1.83-25.61,1.46-36.46,9.59-12.65,9.47-12,23.62-4.38,31.25s23,9.54,31.67-3.16C89.87,175.79,92.54,151.62,91.1,149.79Z"/><path class="cls-7" d="M86.64,151.47c-1-.89-9.62.91-12.93,2.08C63.65,157.11,60.15,162.3,62.58,165s10.32-2.47,15.46-6.15S87.76,152.44,86.64,151.47Z"/><path class="cls-8" d="M161,149.79c-1.44-1.83-25.61,1.46-36.46,9.59-12.65,9.47-12,23.62-4.38,31.25s23,9.54,31.67-3.16C159.72,175.79,162.39,151.62,161,149.79Z"/><path class="cls-9" d="M156.5,151.47c-1-.89-9.62.91-12.93,2.08C133.5,157.11,130,162.3,132.44,165s10.32-2.47,15.46-6.15S157.61,152.44,156.5,151.47Z"/></g></g></svg>