<svg xmlns="http://www.w3.org/2000/svg" xmlns:xlink="http://www.w3.org/1999/xlink" viewBox="0 0 209.03 233.46"><defs><style>.cls-1{fill:#fff;}.cls-2{fill:#d9dee1;}.cls-3{fill:url(#linear-gradient);}.cls-4{fill:url(#linear-gradient-2);}.cls-5{fill:url(#linear-gradient-3);}.cls-6{fill:url(#linear-gradient-4);}.cls-7{fill:#beeaff;}.cls-8{fill:#1d9ae9;}.cls-9{fill:url(#linear-gradient-5);}</style><linearGradient id="linear-gradient" x1="-107.2" y1="191.98" x2="-107.2" y2="270.64" gradientTransform="translate(216.92 -136.01) rotate(1.39)" gradientUnits="userSpaceOnUse"><stop offset="0" stop-color="#fff"/><stop offset="1" stop-color="#c7c7c7"/></linearGradient><linearGradient id="linear-gradient-2" x1="-103.85" y1="207.8" x2="-102.84" y2="264.23" xlink:href="#linear-gradient"/><linearGradient id="linear-gradient-3" x1="103.05" y1="100.8" x2="103.05" y2="131.94" gradientUnits="userSpaceOnUse"><stop offset="0" stop-color="#dfdfdf"/><stop offset="1" stop-color="#a8a8a8"/></linearGradient><linearGradient id="linear-gradient-4" x1="225.36" y1="141.22" x2="212.79" y2="178.93" gradientTransform="matrix(1, -0.04, 0.04, 1, -89.24, 17.48)" gradientUnits="userSpaceOnUse"><stop offset="0" stop-color="#84d9ff"/><stop offset="1" stop-color="#2999f5"/></linearGradient><linearGradient id="linear-gradient-5" x1="287.48" y1="161.04" x2="276.52" y2="207.73" gradientTransform="translate(-204.66 35.02) rotate(-5.47)" xlink:href="#linear-gradient-4"/></defs><title>Ресурс 3weather2</title><g id="Слой_2" data-name="Слой 2"><g id="icons"><path class="cls-1" d="M14.51,122.67c7,6.39,16.85,11.53,29.23,15.34a81.82,81.82,0,0,0,.44,36.89c3.48,13.58,10.74,24.42,20.73,31.13a29.55,29.55,0,0,0,5.75,12.75c7,9.06,19,14.69,31.34,14.69,11.5,0,21-5,26.06-13.48a29.79,29.79,0,0,0,18.76-14.76,40.73,40.73,0,0,0,14.51,2.65c11.47,0,21.89-4.6,27.88-12.29a26.65,26.65,0,0,0,4.65-9.15,28.77,28.77,0,0,0,10.86-10.79,32.84,32.84,0,0,0,.14-32.32,28.15,28.15,0,0,0-15.36-12.73,30,30,0,0,0-2.13-3.12,55.54,55.54,0,0,0,8-7c9.65-10.23,14.13-23.24,12.94-37.61-1.33-16.09-7.56-29.78-18-39.57-9.46-8.85-21.82-14-35.93-15.06A55.44,55.44,0,0,0,139,11.74,63.49,63.49,0,0,0,104.39,0L103,0A57.31,57.31,0,0,0,71.81,9.05a47.91,47.91,0,0,0-11,9.89h-.23A35.19,35.19,0,0,0,29.33,38a33.09,33.09,0,0,0-2.58,6.94,45,45,0,0,0-7.84,5.17,52.87,52.87,0,0,0-15.23,21A49.18,49.18,0,0,0,.54,96.84,43.59,43.59,0,0,0,14.51,122.67Zm64.46,24c-.36-.62-.7-1.24-1-1.88h.14C78.37,145.46,78.67,146.08,79,146.69Z"/><path class="cls-2" d="M100.88,130.94c-36.4-.88-63.49-7.76-76.29-19.38a28.74,28.74,0,0,1-9.23-17,34.18,34.18,0,0,1,2.25-17.86,37.62,37.62,0,0,1,10.8-14.95,27.12,27.12,0,0,1,12.67-6,17.38,17.38,0,0,1,1.65-11,20,20,0,0,1,18.39-10.8A21.12,21.12,0,0,1,68.3,35.4,30.92,30.92,0,0,1,80,21.59,42.2,42.2,0,0,1,104,15a48.13,48.13,0,0,1,26.25,8.91,38.22,38.22,0,0,1,14.48,19.29c1.92-.13,3.82-.17,5.65-.13,11.85.29,22.1,4.16,29.62,11.2,7.7,7.2,12.31,17.52,13.32,29.84.84,10.16-2.16,18.94-8.9,26.09-18.26,19.35-60.2,21.29-83.57,20.73Z"/><path class="cls-3" d="M103.87,21.6c15.9.38,34,11.61,36.81,29.76,26.19-3.77,45.23,10,47.34,37,2.86,36.6-48.09,43.81-87.14,42.86S38.33,122.33,28,112.58C8.55,94.2,29,58.49,49.23,64.37,38.51,50.08,56.9,33.26,71.47,45.64,73.58,29.86,89,21.24,103.87,21.6Z"/><path class="cls-2" d="M107.86,119.79c-8.79-.21-37.13-2.49-50.33-17.64-8.06-9.26-6.88-20.24.69-28.72C64.75,66.13,72.61,66,78,66.16a30.62,30.62,0,0,1,8.44,1.38,15.55,15.55,0,0,1,3.14-7.35c4-5.15,11.1-8.41,18.65-8.49h1.51a31.81,31.81,0,0,1,17.13,5,21.57,21.57,0,0,1,8.77,12,38.42,38.42,0,0,1,4-.11c8.71.21,19.54,3.45,23.8,11.91s.3,23.33-12.11,32.52C141.06,120.59,107.86,119.79,107.86,119.79Z"/><path class="cls-4" d="M157.74,110.62c-8.18,15.06-24.84,18.91-40.28,18.81-16.32-.1-35.62-1-50.05-9.67-9.1-5.47-17.05-21.37-11.62-33.46,5.52-12.29,22.8-16.64,34.7-9.52-2.63-10.71,7.46-18.1,17.75-18.24,11.7-.15,22.49,5.2,24.21,17.73,8.77-1.7,22.53.62,26.91,9.68C163.46,94.46,162,102.75,157.74,110.62Z"/><path class="cls-5" d="M103.58,97.72c-34,0-75-2.4-75,7.53s28.72,24,74.6,24,74.25-13.34,74.25-21.22S129.85,97.72,103.58,97.72Z"/><path class="cls-2" d="M83.17,36c14.78-.49,24.41,7.44,23,19.72C103.67,47.19,96,44,83.91,43.32S64.53,49.06,62.58,54.94C62.2,43.55,72.48,36.36,83.17,36Z"/><path class="cls-6" d="M90,134.9C100.26,159,119,175.57,141.33,177c.28,22.26,43.71,20.56,38-2,19,.39,20.36-31.55-.68-31.14-3.87-20.88-37.23-15.77-36.75,7C130.24,154.2,99.81,146.13,90,134.9Z"/><path class="cls-7" d="M158.26,135.48c12.71-1.9,16.51,10.39,16.51,10.39s-6-7.94-15.32-6.67c-10.36,1.41-12.73,11.6-12.73,11.6S145.31,137.42,158.26,135.48Z"/><path class="cls-7" d="M141.42,155.15s-31.6.73-42.83-10.41c11.86,14.2,43,14.51,43,14.51Z"/><path class="cls-7" d="M179.8,148.12s11.64-.51,11.88,12.85c-2.28-6.55-11.55-8.34-11.55-8.34Z"/><path class="cls-8" d="M160.25,186.55a17.29,17.29,0,0,0,15.87-9.87s1.2,13.23-15.53,13.37c-17,.14-15.66-13-15.66-13S150.79,186.69,160.25,186.55Z"/><path class="cls-9" d="M59.89,135.33c-7.54,25-1.08,54.2,20.06,61.56-5.67,21.53,36.64,31.47,37.17,8.23,18.19,5.43,28-25,7.66-30.2,1.84-21.16-31.67-25.12-37.29-3.05C75.34,171.93,60.21,150.21,59.89,135.33Z"/><path class="cls-7" d="M108.1,160.2c12.76,1.56,13.14,14.41,13.14,14.41s-3.69-9.25-13-10.51c-10.37-1.4-15.36,7.79-15.36,7.79S95.1,158.62,108.1,160.2Z"/><path class="cls-7" d="M86,174.95s-24-6.23-25.72-27.47C59.85,172.62,85.08,179,85.08,179Z"/><path class="cls-7" d="M125,178s11.35,2.61,8,15.56c-.45-6.92-8.9-11.12-8.9-11.12Z"/><path class="cls-8" d="M95.64,211.11a17.29,17.29,0,0,0,17.93-5.27S111.19,218.9,95,214.58c-16.39-4.39-11.62-16.74-11.62-16.74S86.48,208.72,95.64,211.11Z"/></g></g></svg>