<svg xmlns="http://www.w3.org/2000/svg" xmlns:xlink="http://www.w3.org/1999/xlink" viewBox="0 0 289.31 201.43"><defs><style>.cls-1{fill:#fff;}.cls-2{fill:url(#linear-gradient);}.cls-3{fill:url(#linear-gradient-2);}.cls-4{fill:url(#linear-gradient-3);}.cls-5{fill:url(#linear-gradient-4);}.cls-6{fill:url(#linear-gradient-5);}.cls-7{fill:url(#linear-gradient-6);}.cls-8{fill:url(#linear-gradient-7);}.cls-9{fill:url(#linear-gradient-8);}.cls-10{fill:url(#linear-gradient-9);}.cls-11{fill:url(#linear-gradient-10);}.cls-12{fill:url(#linear-gradient-11);}.cls-13{fill:url(#linear-gradient-12);}.cls-14{fill:url(#linear-gradient-13);}.cls-15{fill:#d68c00;}.cls-16{fill:#fff280;}.cls-17{fill:#d9dee1;}.cls-18{fill:url(#linear-gradient-14);}.cls-19{fill:url(#linear-gradient-15);}.cls-20{fill:url(#linear-gradient-16);}.cls-21{fill:url(#linear-gradient-17);}.cls-22{fill:url(#linear-gradient-18);}.cls-23{fill:url(#linear-gradient-19);}</style><linearGradient id="linear-gradient" x1="143.45" y1="50.31" x2="143.45" y2="130.05" gradientUnits="userSpaceOnUse"><stop offset="0" stop-color="#ffdb00"/><stop offset="1" stop-color="#e8a300"/></linearGradient><linearGradient id="linear-gradient-2" x1="126.77" y1="19.83" x2="126.77" y2="162.44" xlink:href="#linear-gradient"/><linearGradient id="linear-gradient-3" x1="160.12" y1="19.83" x2="160.12" y2="162.44" xlink:href="#linear-gradient"/><linearGradient id="linear-gradient-4" x1="97.9" y1="19.83" x2="97.9" y2="162.45" xlink:href="#linear-gradient"/><linearGradient id="linear-gradient-5" x1="188.99" y1="19.83" x2="188.99" y2="162.45" xlink:href="#linear-gradient"/><linearGradient id="linear-gradient-6" x1="205.68" y1="19.84" x2="205.68" y2="162.43" xlink:href="#linear-gradient"/><linearGradient id="linear-gradient-7" x1="160.12" y1="19.83" x2="160.12" y2="162.45" xlink:href="#linear-gradient"/><linearGradient id="linear-gradient-8" x1="126.77" y1="19.83" x2="126.77" y2="162.45" xlink:href="#linear-gradient"/><linearGradient id="linear-gradient-9" x1="205.68" y1="19.83" x2="205.68" y2="162.44" xlink:href="#linear-gradient"/><linearGradient id="linear-gradient-10" x1="188.99" y1="19.83" x2="188.99" y2="162.45" xlink:href="#linear-gradient"/><linearGradient id="linear-gradient-11" x1="81.21" y1="19.83" x2="81.21" y2="162.45" xlink:href="#linear-gradient"/><linearGradient id="linear-gradient-12" x1="81.21" y1="19.84" x2="81.21" y2="162.44" xlink:href="#linear-gradient"/><linearGradient id="linear-gradient-13" x1="97.9" y1="19.83" x2="97.9" y2="162.44" xlink:href="#linear-gradient"/><linearGradient id="linear-gradient-14" x1="-109.95" y1="256.79" x2="-109.95" y2="323.85" gradientTransform="translate(207.94 -137.09) rotate(1.39)" gradientUnits="userSpaceOnUse"><stop offset="0" stop-color="#fff"/><stop offset="1" stop-color="#c7c7c7"/></linearGradient><linearGradient id="linear-gradient-15" x1="-107.09" y1="270.27" x2="-106.24" y2="318.38" xlink:href="#linear-gradient-14"/><linearGradient id="linear-gradient-16" x1="90.07" y1="157.43" x2="90.07" y2="183.97" gradientUnits="userSpaceOnUse"><stop offset="0" stop-color="#dfdfdf"/><stop offset="1" stop-color="#a8a8a8"/></linearGradient><linearGradient id="linear-gradient-17" x1="-2.77" y1="257.17" x2="-2.77" y2="324.22" xlink:href="#linear-gradient-14"/><linearGradient id="linear-gradient-18" x1="0.09" y1="270.65" x2="0.95" y2="318.75" xlink:href="#linear-gradient-14"/><linearGradient id="linear-gradient-19" x1="197.21" y1="160.4" x2="197.21" y2="186.95" xlink:href="#linear-gradient-16"/></defs><title>Ресурс 6weather2</title><g id="Слой_2" data-name="Слой 2"><g id="icons"><path class="cls-1" d="M273.08,109.79c-8.18-7.65-18.77-12.22-30.83-13.34a49.71,49.71,0,0,0-13.08-13.77l-.35-.23a20.43,20.43,0,0,0-16.71-32.19c-.5,0-1,0-1.49.06a20.44,20.44,0,0,0-28.4-28.39,20.43,20.43,0,0,0-38.77-10.38,20.43,20.43,0,0,0-38.78,10.38,20.44,20.44,0,0,0-28.4,28.38c-.5,0-1-.06-1.49-.06A20.42,20.42,0,0,0,57.24,81.16,41.58,41.58,0,0,0,53,85.45a32.22,32.22,0,0,0-27.79,17.46,30.62,30.62,0,0,0-2.11,5.41,40.78,40.78,0,0,0-6.2,4.2A47.32,47.32,0,0,0,3.3,131.29a44.12,44.12,0,0,0-2.81,23.1,39.34,39.34,0,0,0,12.61,23.32c7.28,6.61,17.84,11.7,31.38,15.13,12.06,3.28,26.65,5.14,43.38,5.55,1.94,0,3.9.07,5.83.07,14.54,0,27.54-1.3,38.62-3.86,2.92-.62,5.75-1.34,8.45-2.13a107.18,107.18,0,0,0,10.87,3.35c12.06,3.28,26.65,5.14,43.37,5.54,1.93,0,3.89.07,5.84.07,14.52,0,27.49-1.29,38.56-3.85,16.88-3.59,29.71-9.94,38.13-18.86A42.78,42.78,0,0,0,289.14,145C288,130.68,282.41,118.52,273.08,109.79Z"/><circle class="cls-2" cx="143.45" cy="89.11" r="47.48"/><path class="cls-3" d="M128.49,38.75a5.44,5.44,0,0,1-5.25-4l-3.45-12.86A5.44,5.44,0,0,1,130.31,19l3.44,12.86a5.44,5.44,0,0,1-5.26,6.85Z"/><path class="cls-4" d="M158.4,38.75a5.44,5.44,0,0,1-5.26-6.85L156.59,19a5.44,5.44,0,1,1,10.51,2.82l-3.45,12.86a5.45,5.45,0,0,1-5.25,4Z"/><path class="cls-5" d="M102.6,53.71a5.42,5.42,0,0,1-3.85-1.6L89.34,42.7A5.44,5.44,0,0,1,97,35l9.41,9.41a5.44,5.44,0,0,1-3.85,9.29Z"/><path class="cls-6" d="M184.29,53.71a5.44,5.44,0,0,1-3.85-9.29L189.85,35a5.44,5.44,0,1,1,7.7,7.7l-9.41,9.41a5.42,5.42,0,0,1-3.85,1.6Z"/><path class="cls-7" d="M199.24,79.6a5.44,5.44,0,0,1-1.41-10.7l12.86-3.45A5.44,5.44,0,0,1,213.52,76l-12.86,3.44a5.42,5.42,0,0,1-1.41.19Z"/><path class="cls-8" d="M161.84,163.21a5.45,5.45,0,0,1-5.25-4l-3.45-12.86a5.44,5.44,0,1,1,10.51-2.82l3.45,12.86a5.45,5.45,0,0,1-5.26,6.85Z"/><path class="cls-9" d="M125.05,163.21a5.45,5.45,0,0,1-5.26-6.85l3.45-12.86a5.44,5.44,0,1,1,10.51,2.82l-3.44,12.86a5.45,5.45,0,0,1-5.25,4Z"/><path class="cls-10" d="M212.11,112.95a5.42,5.42,0,0,1-1.41-.19l-12.86-3.45a5.44,5.44,0,1,1,2.82-10.51l12.86,3.45a5.44,5.44,0,0,1-1.41,10.7Z"/><path class="cls-11" d="M193.7,144.8a5.43,5.43,0,0,1-3.85-1.6l-9.41-9.41a5.44,5.44,0,0,1,7.7-7.7l9.41,9.41a5.44,5.44,0,0,1-3.85,9.29Z"/><path class="cls-12" d="M74.78,112.95a5.44,5.44,0,0,1-1.4-10.7L86.23,98.8a5.44,5.44,0,0,1,2.82,10.52l-12.86,3.45a5.52,5.52,0,0,1-1.41.19Z"/><path class="cls-13" d="M87.65,79.6a5.43,5.43,0,0,1-1.41-.19L73.38,76a5.44,5.44,0,1,1,2.82-10.52L89.05,68.9a5.44,5.44,0,0,1-1.41,10.7Z"/><path class="cls-14" d="M93.19,144.8a5.44,5.44,0,0,1-3.85-9.29l9.41-9.41a5.44,5.44,0,0,1,7.7,7.7L97,143.21a5.43,5.43,0,0,1-3.85,1.6Z"/><path class="cls-15" d="M143.76,132.54c-18.78,0-34.32-13.06-40.64-24.13,4.78,13.06,21.86,26.67,40.64,26.67s35.86-13.61,40.64-26.67C178.08,119.47,162.54,132.54,143.76,132.54Z"/><path class="cls-16" d="M143.76,47.07c-18.78,0-34.32,11.63-40.64,22.69C107.9,56.7,125,43.1,143.76,43.1s35.86,13.61,40.64,26.67C178.08,58.7,162.54,47.07,143.76,47.07Z"/><path class="cls-17" d="M88.21,183.13c-31-.75-54.13-6.62-65-16.52a24.49,24.49,0,0,1-7.87-14.51,29.13,29.13,0,0,1,1.92-15.23,32.07,32.07,0,0,1,9.21-12.74A23.11,23.11,0,0,1,37.23,119a14.83,14.83,0,0,1,1.41-9.39,17.07,17.07,0,0,1,15.68-9.2,17.94,17.94,0,0,1,6.12,1.24,26.35,26.35,0,0,1,10-11.78A36,36,0,0,1,90.89,84.3a41,41,0,0,1,22.38,7.6,32.58,32.58,0,0,1,12.35,16.45c1.64-.11,3.25-.15,4.82-.11,10.1.24,18.83,3.54,25.25,9.55,6.57,6.14,10.49,14.94,11.36,25.44a27.8,27.8,0,0,1-7.59,22.24c-15.57,16.5-51.32,18.15-71.25,17.67Z"/><path class="cls-18" d="M90.76,89.92c13.55.33,28.95,9.9,31.38,25.37,22.33-3.21,38.55,8.53,40.36,31.57,2.44,31.2-41,37.35-74.29,36.54s-53.31-7.61-62.12-15.92c-16.59-15.67.82-46.12,18.09-41.1-9.14-12.18,6.54-26.52,19-16C64.94,97,78.09,89.61,90.76,89.92Z"/><path class="cls-17" d="M94.16,173.62c-7.49-.18-31.65-2.12-42.91-15-6.87-7.89-5.86-17.25.59-24.48,5.56-6.23,12.26-6.31,16.88-6.2a26.06,26.06,0,0,1,7.2,1.18,13.27,13.27,0,0,1,2.68-6.26c3.37-4.39,9.46-7.17,15.9-7.24H95.8a27.12,27.12,0,0,1,14.6,4.23,18.4,18.4,0,0,1,7.48,10.23,32.09,32.09,0,0,1,3.37-.09c7.43.18,16.66,2.94,20.29,10.15s.26,19.89-10.33,27.72C122.47,174.31,94.16,173.62,94.16,173.62Z"/><path class="cls-19" d="M136.68,165.8c-7,12.84-21.18,16.12-34.34,16-13.91-.09-30.37-.85-42.67-8.24-7.76-4.66-14.54-18.21-9.91-28.52,4.71-10.48,19.44-14.19,29.58-8.12-2.24-9.13,6.36-15.44,15.13-15.55,10-.13,19.17,4.43,20.64,15.12,7.47-1.45,19.21.53,22.94,8.25C141.56,152,140.32,159.1,136.68,165.8Z"/><path class="cls-20" d="M90.51,154.8c-29,0-63.89-2-63.89,6.42s24.48,20.42,63.6,20.42,63.3-11.38,63.3-18.09S112.91,154.8,90.51,154.8Z"/><path class="cls-17" d="M73.11,102.19c12.6-.42,20.81,6.34,19.62,16.81-2.14-7.28-8.69-10-19-10.57s-16.52,4.89-18.18,9.9C55.24,108.63,64,102.5,73.11,102.19Z"/><path class="cls-17" d="M195.35,186.1c-31-.75-54.13-6.62-65-16.52a24.5,24.5,0,0,1-7.87-14.51,29.14,29.14,0,0,1,1.92-15.23,32.09,32.09,0,0,1,9.21-12.74,23.12,23.12,0,0,1,10.8-5.09,14.81,14.81,0,0,1,1.41-9.38,17.06,17.06,0,0,1,15.67-9.21,18,18,0,0,1,6.12,1.24,26.36,26.36,0,0,1,10-11.77A36,36,0,0,1,198,87.27a41,41,0,0,1,22.38,7.6,32.59,32.59,0,0,1,12.35,16.45c1.64-.11,3.25-.14,4.82-.11,10.1.24,18.84,3.54,25.25,9.54,6.57,6.14,10.49,14.94,11.36,25.44a27.79,27.79,0,0,1-7.59,22.24c-15.57,16.5-51.32,18.15-71.25,17.67Z"/><path class="cls-21" d="M197.9,92.89c13.55.33,28.95,9.9,31.38,25.37,22.33-3.21,38.55,8.53,40.36,31.57,2.44,31.2-41,37.35-74.29,36.54s-53.31-7.6-62.12-15.92c-16.59-15.67.82-46.12,18.09-41.1-9.14-12.18,6.54-26.52,19-16C172.08,99.93,185.23,92.58,197.9,92.89Z"/><path class="cls-17" d="M201.31,176.59c-7.49-.18-31.65-2.12-42.91-15-6.87-7.89-5.86-17.25.59-24.48,5.56-6.23,12.26-6.31,16.88-6.2a26.07,26.07,0,0,1,7.2,1.18,13.26,13.26,0,0,1,2.68-6.26c3.37-4.39,9.46-7.17,15.9-7.24h1.29a27.1,27.1,0,0,1,14.6,4.23A18.39,18.39,0,0,1,225,133a33.18,33.18,0,0,1,3.37-.09c7.43.18,16.66,2.94,20.29,10.15s.26,19.89-10.33,27.72C229.61,177.28,201.31,176.59,201.31,176.59Z"/><path class="cls-22" d="M243.82,168.77c-7,12.84-21.18,16.12-34.34,16-13.91-.09-30.37-.85-42.67-8.24-7.76-4.66-14.54-18.21-9.9-28.52,4.71-10.48,19.44-14.18,29.58-8.12-2.24-9.13,6.36-15.43,15.13-15.55,10-.13,19.17,4.43,20.64,15.12,7.47-1.45,19.21.53,22.94,8.25C248.7,155,247.46,162.07,243.82,168.77Z"/><path class="cls-23" d="M197.66,157.78c-29,0-63.89-2-63.89,6.42s24.48,20.42,63.6,20.42,63.3-11.38,63.3-18.09S220,157.78,197.66,157.78Z"/><path class="cls-17" d="M180.25,105.16c12.6-.42,20.81,6.34,19.62,16.81-2.14-7.28-8.69-10-19-10.58s-16.52,4.89-18.18,9.9C162.38,111.6,171.14,105.47,180.25,105.16Z"/></g></g></svg>