<svg xmlns="http://www.w3.org/2000/svg" xmlns:xlink="http://www.w3.org/1999/xlink" viewBox="0 0 116.39 116.38"><defs><style>.cls-1{fill:url(#radial-gradient);}.cls-2{mask:url(#mask);}.cls-3{fill:#196bab;}.cls-4{fill:url(#radial-gradient-2);}.cls-5{fill:url(#linear-gradient);}.cls-6{fill:#301c0a;}.cls-7{fill:url(#linear-gradient-2);}.cls-8{fill:url(#linear-gradient-3);}.cls-9{fill:url(#linear-gradient-4);}.cls-10{fill:url(#linear-gradient-5);}.cls-11{fill:url(#linear-gradient-6);}.cls-12{fill:url(#linear-gradient-7);}.cls-13{fill:url(#linear-gradient-8);}.cls-14{fill:#231f20;}.cls-15{fill:url(#linear-gradient-9);}.cls-16{fill:url(#linear-gradient-10);}.cls-17{fill:url(#linear-gradient-11);}.cls-18{fill:url(#linear-gradient-12);}</style><radialGradient id="radial-gradient" cx="58.19" cy="58.19" r="58.19" gradientUnits="userSpaceOnUse"><stop offset="0" stop-color="#fff"/><stop offset="0.16" stop-color="#ddd"/><stop offset="0.51" stop-color="#858585"/><stop offset="1"/></radialGradient><mask id="mask" x="0" y="0" width="116.39" height="116.38" maskUnits="userSpaceOnUse"><circle class="cls-1" cx="58.19" cy="58.19" r="58.19"/></mask><radialGradient id="radial-gradient-2" cx="63.72" cy="82.25" r="50.31" gradientUnits="userSpaceOnUse"><stop offset="0" stop-color="#58595b"/><stop offset="0.32" stop-color="#565758"/><stop offset="0.51" stop-color="#4d4e50"/><stop offset="0.66" stop-color="#404042"/><stop offset="0.8" stop-color="#2c2d2e"/><stop offset="0.93" stop-color="#131314"/><stop offset="1"/></radialGradient><linearGradient id="linear-gradient" x1="58.92" y1="48.17" x2="59.83" y2="48" gradientUnits="userSpaceOnUse"><stop offset="0.01"/><stop offset="0.09" stop-color="#272728"/><stop offset="0.18" stop-color="#4d4e50"/><stop offset="0.27" stop-color="#696a6c"/><stop offset="0.34" stop-color="#7a7b7e"/><stop offset="0.39" stop-color="#808184"/><stop offset="0.49" stop-color="#717275"/><stop offset="0.69" stop-color="#4b4b4d"/><stop offset="0.95" stop-color="#0d0d0d"/><stop offset="1"/></linearGradient><linearGradient id="linear-gradient-2" x1="64.76" y1="77.62" x2="66.63" y2="77.62" gradientUnits="userSpaceOnUse"><stop offset="0" stop-color="#a08871"/><stop offset="0.06" stop-color="#967e68"/><stop offset="0.35" stop-color="#6f5744"/><stop offset="0.61" stop-color="#523a2a"/><stop offset="0.83" stop-color="#41291a"/><stop offset="1" stop-color="#3b2314"/></linearGradient><linearGradient id="linear-gradient-3" x1="62.75" y1="88.01" x2="62.75" y2="82.21" gradientUnits="userSpaceOnUse"><stop offset="0" stop-color="#3b2314"/><stop offset="0.17" stop-color="#41291a"/><stop offset="0.39" stop-color="#523a2a"/><stop offset="0.65" stop-color="#6f5744"/><stop offset="0.94" stop-color="#967e68"/><stop offset="1" stop-color="#a08871"/></linearGradient><linearGradient id="linear-gradient-4" x1="61.94" y1="87.18" x2="61.94" y2="73.76" xlink:href="#linear-gradient-3"/><linearGradient id="linear-gradient-5" x1="44.25" y1="33.24" x2="78.95" y2="33.24" gradientUnits="userSpaceOnUse"><stop offset="0" stop-color="#404041"/><stop offset="1"/></linearGradient><linearGradient id="linear-gradient-6" x1="71.82" y1="34.79" x2="95.28" y2="34.79" xlink:href="#linear-gradient-5"/><linearGradient id="linear-gradient-7" x1="23.59" y1="40.6" x2="48.35" y2="40.6" xlink:href="#linear-gradient-5"/><linearGradient id="linear-gradient-8" x1="43.91" y1="41.98" x2="44.3" y2="41.98" gradientUnits="userSpaceOnUse"><stop offset="0" stop-color="#404041"/><stop offset="0.49" stop-color="#3e3e3f"/><stop offset="0.67" stop-color="#373738"/><stop offset="0.79" stop-color="#2c2c2d"/><stop offset="0.89" stop-color="#1b1b1c"/><stop offset="0.98" stop-color="#060606"/><stop offset="1"/></linearGradient><linearGradient id="linear-gradient-9" x1="78.83" y1="36.1" x2="79.41" y2="36.1" xlink:href="#linear-gradient-8"/><linearGradient id="linear-gradient-10" x1="57.79" y1="42.91" x2="58.93" y2="42.69" gradientTransform="translate(8.75 -9.89) rotate(10.47)" gradientUnits="userSpaceOnUse"><stop offset="0.01"/><stop offset="0.35" stop-color="#58595b"/><stop offset="0.56" stop-color="#383839"/><stop offset="0.85" stop-color="#0f1010"/><stop offset="1"/></linearGradient><linearGradient id="linear-gradient-11" x1="57.93" y1="44.19" x2="59.24" y2="43.93" gradientTransform="matrix(1, 0, 0, 1, 0, 0)" xlink:href="#linear-gradient-10"/><linearGradient id="linear-gradient-12" x1="57.45" y1="41.69" x2="58.76" y2="41.44" gradientTransform="matrix(1, 0, 0, 1, 0, 0)" xlink:href="#linear-gradient-10"/></defs><title>Ресурс 25weather</title><g id="Слой_2" data-name="Слой 2"><g id="Layer_2" data-name="Layer 2"><g class="cls-2"><circle class="cls-3" cx="58.19" cy="58.19" r="58.19"/></g><path class="cls-4" d="M35.91,46c3.75-2.08,7.19-4,8.34-4.51,0,0,3.22-.66,6.74-1.33A83.41,83.41,0,0,0,47.91,61c-1.94-1.6-17.24-1.69-19-1.69L29.62,58C31,55.26,33.32,50.45,35.91,46Zm49.76,1.2a81.21,81.21,0,0,0-11-10.89c-3.61.57-8.55,1.39-12.05,1.93,3.09,4.83,5.7,13.06,7.17,17.67l.42,1.32c1.08-.51,14.49-6.86,18.17-7C87.51,49.3,86.61,48.29,85.67,47.24Zm-56.89,12,.67-1.36c1.3-2.64,3.6-7.31,6.13-11.66-5.71,3.17-12,6.72-12,6.72C24.95,53.25,29.12,55.74,28.78,59.23ZM79,35.71c-.7.08-2.17.3-4,.59a82.61,82.61,0,0,1,10.89,10.8c1,1.1,1.91,2.16,2.81,3.12h.18a12.79,12.79,0,0,1,6.48-8.89C94.36,41.08,79.93,35.84,79,35.71ZM69.6,56c-1.47-4.63-3.8-13-7.19-17.7-1.48.23-2.69.4-3.41.49-1.53.18-4.76.76-7.8,1.34a82.81,82.81,0,0,0-3.09,21c1-.24,18.8-4.35,21.9-3.88Z"/><path class="cls-5" d="M64.29,74.19a.37.37,0,0,1-.37-.31L54.09,22.43a.38.38,0,1,1,.75-.14l9.83,51.44a.38.38,0,0,1-.3.45Z"/><path class="cls-6" d="M62.18,88.15a4.91,4.91,0,0,1-4-1.66,5.57,5.57,0,0,1-.63-5.25.86.86,0,1,1,1.64.5,3.94,3.94,0,0,0,.33,3.67,3.5,3.5,0,0,0,3.19,1,2.5,2.5,0,0,0,2-1,4,4,0,0,0,.52-2.73c-.19-.77-1.69-8.47-1.75-8.8s.31-.41.78-.5.82-.29.91.17c.43,2.22,1.58,8.1,1.73,8.71a5.61,5.61,0,0,1-.79,4.13,4.24,4.24,0,0,1-3.21,1.71c-.24,0-.48,0-.71,0Z"/><path class="cls-7" d="M66.63,81.68c-.15-.61-1.25-5.91-1.68-8.12l-.19.19c.43,2.21,1.39,6.7,1.54,7.31Z"/><path class="cls-8" d="M66.73,82.26v0a5.8,5.8,0,0,1-.86,3.65,4.17,4.17,0,0,1-3.17,1.75c-.24,0-.47,0-.7,0a5.1,5.1,0,0,1-3.32-1.07A4.66,4.66,0,0,0,62.27,88c.22,0,.44,0,.67,0a4,4,0,0,0,3-1.67A5.64,5.64,0,0,0,66.73,82.26Z"/><path class="cls-9" d="M62.06,87.18A3.64,3.64,0,0,1,59,85.8a5.22,5.22,0,0,1-.46-4.54.24.24,0,0,1,.23-.19h.07a.24.24,0,0,1,.14.13.3.3,0,0,1,0,.22,4.65,4.65,0,0,0,.37,4A3.17,3.17,0,0,0,62,86.64l.55,0a2.62,2.62,0,0,0,2.08-1.19,4.7,4.7,0,0,0,.53-3.07c-.15-.67-1.49-7.39-1.7-8.59a.27.27,0,0,1,.25.21c.21,1.19,1.62,7.83,1.77,8.48a4.39,4.39,0,0,1-.45,3.29,3.17,3.17,0,0,1-2.44,1.42l-.57,0Z"/><path d="M28.28,60.76h0a.15.15,0,0,1-.09-.18c.38-1.08,5.41-11.2,7.6-14.67a.14.14,0,1,1,.24.15c-2.19,3.47-7.19,13.54-7.57,14.61a.14.14,0,0,1-.13.1Z"/><path d="M48,62.37a.14.14,0,0,1-.14-.14A87.9,87.9,0,0,1,51,40.12a.14.14,0,1,1,.27.08,87.64,87.64,0,0,0-3.12,22,.14.14,0,0,1-.14.15Z"/><path d="M70.38,58.34a.14.14,0,0,1-.13-.09c-.25-.73-.55-1.72-.9-2.86-1.47-4.8-3.94-12.83-7.46-17.85a.14.14,0,0,1,0-.2.14.14,0,0,1,.2,0c3.55,5.05,6,13.11,7.5,17.93.35,1.13.65,2.12.9,2.85a.14.14,0,0,1-.09.18Z"/><path d="M89.06,51.07A.14.14,0,0,1,89,51l-.09-.11c-2.61-3.07-11.44-13.27-15.72-15.45a.14.14,0,0,1-.06-.19.15.15,0,0,1,.19-.06c4.33,2.2,13.2,12.43,15.81,15.52l.09.11a.14.14,0,0,1,0,.2.15.15,0,0,1-.09,0Z"/><path class="cls-10" d="M51.1,26.92c-1,0-2.23,0-3.38,2.52a99.62,99.62,0,0,0-3.47,12.08S55.67,39.19,59,38.81,76.31,36,79,35.71c0,0-5.84-8.78-13.3-10.56-2.95-.7-4.9.71-7.47,1.24A33.37,33.37,0,0,1,51.1,26.92Z"/><path class="cls-11" d="M84.72,33.24c-3.65-2-10.06-5-12.89-5h0A34.25,34.25,0,0,1,79,35.71c1,.13,15.41,5.36,16.33,5.65C95.28,41.36,88.37,35.21,84.72,33.24Z"/><path class="cls-12" d="M48.35,28.27h0c-.78.78-2.35,2.54-3.58,2.93a24.22,24.22,0,0,0-9.33,5.33c-3.9,3.62-11.57,15.39-11.86,16.41,0,0,17.74-10,20.66-11.42a99.62,99.62,0,0,1,3.47-12.08A7.62,7.62,0,0,1,48.35,28.27Z"/><path d="M23.6,52.93,23.06,54a.15.15,0,0,0,.06.19h.08a.15.15,0,0,0,.12-.08L24,52.7Z"/><path d="M44.25,41.52l-.17.08-.18.67a.14.14,0,0,0,.1.17h0a.14.14,0,0,0,.14-.1l.22-.79a.16.16,0,0,0,0-.07Z"/><path class="cls-13" d="M44.1,42.39a.14.14,0,0,1-.09-.16l.17-.62.12-.06h0l-.16.08-.17.62a.13.13,0,0,0,.09.16h0a.13.13,0,0,0,.09,0Z"/><path class="cls-14" d="M79.15,35.76l-.2,0-.14,0a.19.19,0,0,0,0,.06l.39.62a.14.14,0,0,0,.12.07l.07,0a.14.14,0,0,0,0-.2Z"/><path class="cls-15" d="M79.39,36.39,79,35.81a.16.16,0,0,1,0-.06h-.18a.18.18,0,0,0,0,.06l.36.57a.13.13,0,0,0,.11.06l.07,0h0Z"/><path d="M96.25,42.17l-1-.82-.74-.25,1.55,1.29.07,0a.15.15,0,0,0,.13-.05A.14.14,0,0,0,96.25,42.17Z"/><rect class="cls-16" x="57.79" y="41.51" width="1.14" height="2.59" transform="translate(-6.81 11.32) rotate(-10.47)"/><polygon class="cls-17" points="59.27 44.11 57.96 44.35 57.9 44.01 59.2 43.76 59.27 44.11"/><polygon class="cls-18" points="58.79 41.62 57.49 41.86 57.42 41.51 58.73 41.27 58.79 41.62"/><path d="M52.06,40v0l3.31,1.13-4.05-1-.43.08h0l6.77,1.73.05-.18-5.36-1.83Z"/><path d="M56.4,39.2l1.25,2.22-3.56-1.82-.31.06,4.34,2.22L56.6,39.17Z"/><path d="M64,38.06l-5.18,3.06,2.57-2.65-.31,0-2.77,2.86,1-2.61-.21,0L58.29,41l-.39-2-.19,0,.51,2.7.05-.13.07.09L64.55,38Z"/></g></g></svg>