<svg xmlns="http://www.w3.org/2000/svg" xmlns:xlink="http://www.w3.org/1999/xlink" viewBox="0 0 150.94 150.94"><defs><style>.cls-1{fill:url(#radial-gradient);}.cls-2{fill:url(#radial-gradient-2);}.cls-3{fill:url(#radial-gradient-3);}.cls-4{fill:url(#radial-gradient-4);}.cls-5{fill:url(#radial-gradient-5);}.cls-6{fill:url(#radial-gradient-6);}.cls-7{fill:url(#radial-gradient-7);}.cls-8{fill:url(#radial-gradient-8);}.cls-9{fill:url(#radial-gradient-9);}.cls-10{fill:url(#radial-gradient-10);}.cls-11{fill:url(#radial-gradient-11);}.cls-12{fill:url(#radial-gradient-12);}.cls-13{fill:url(#radial-gradient-13);}.cls-14{fill:url(#radial-gradient-14);}.cls-15{fill:url(#radial-gradient-15);}.cls-16{fill:url(#radial-gradient-16);}.cls-17{fill:url(#radial-gradient-17);}.cls-18{fill:url(#radial-gradient-18);}.cls-19{fill:url(#radial-gradient-19);}.cls-20{fill:url(#radial-gradient-20);}.cls-21{fill:url(#radial-gradient-21);}.cls-22{fill:url(#radial-gradient-22);}.cls-23{fill:url(#radial-gradient-23);}.cls-24{fill:url(#radial-gradient-24);}.cls-25{fill:url(#radial-gradient-25);}.cls-26{fill:url(#radial-gradient-26);}.cls-27{fill:url(#radial-gradient-27);}.cls-28{fill:url(#radial-gradient-28);}.cls-29{fill:url(#radial-gradient-29);}.cls-30{fill:url(#radial-gradient-30);}.cls-31{fill:url(#radial-gradient-31);}.cls-32{fill:url(#radial-gradient-32);}.cls-33{fill:url(#radial-gradient-33);}.cls-34{fill:url(#radial-gradient-34);}.cls-35{fill:url(#radial-gradient-35);}.cls-36{fill:url(#radial-gradient-36);}.cls-37{fill:url(#radial-gradient-37);}.cls-38{fill:url(#radial-gradient-38);}.cls-39{fill:url(#radial-gradient-39);}.cls-40{fill:url(#radial-gradient-40);}.cls-41{fill:url(#radial-gradient-41);}.cls-42{fill:url(#radial-gradient-42);}.cls-43{fill:url(#radial-gradient-43);}.cls-44{fill:url(#radial-gradient-44);}.cls-45{fill:url(#radial-gradient-45);}.cls-46{fill:url(#radial-gradient-46);}.cls-47{fill:url(#linear-gradient);}.cls-48{fill:url(#linear-gradient-2);}.cls-49{fill:url(#radial-gradient-47);}.cls-50{fill:url(#radial-gradient-48);}.cls-51{fill:url(#radial-gradient-49);}.cls-52{fill:url(#radial-gradient-50);}.cls-53{fill:url(#radial-gradient-51);}.cls-54{fill:url(#radial-gradient-52);}.cls-55{fill:url(#radial-gradient-53);}.cls-56{fill:url(#radial-gradient-54);}.cls-57{fill:url(#radial-gradient-55);}.cls-58{fill:url(#radial-gradient-56);}.cls-59{fill:url(#radial-gradient-57);}.cls-60{fill:url(#radial-gradient-58);}.cls-61{fill:url(#radial-gradient-59);}.cls-62{fill:url(#radial-gradient-60);}.cls-63{fill:url(#radial-gradient-61);}.cls-64{fill:url(#radial-gradient-62);}.cls-65{fill:url(#radial-gradient-63);}.cls-66{isolation:isolate;}.cls-67{mask:url(#mask);}.cls-68{fill:#1b75bb;}.cls-69{mask:url(#mask-2);}.cls-70{fill:#fff;}.cls-71{mask:url(#mask-3);}.cls-72{mask:url(#mask-4);}.cls-73{mask:url(#mask-5);}.cls-74{mask:url(#mask-6);}.cls-75{mask:url(#mask-7);}.cls-76{mask:url(#mask-8);}.cls-77{mask:url(#mask-9);}.cls-78{mask:url(#mask-10);}.cls-79{mask:url(#mask-11);}.cls-80{mask:url(#mask-12);}.cls-81{mask:url(#mask-13);}.cls-82{mask:url(#mask-14);}.cls-83{mask:url(#mask-15);}.cls-84{mask:url(#mask-16);}.cls-85{mask:url(#mask-17);}.cls-86{mask:url(#mask-18);}.cls-87{mask:url(#mask-19);}.cls-88{mask:url(#mask-20);}.cls-89{mask:url(#mask-21);}.cls-90{mask:url(#mask-22);}.cls-91{mask:url(#mask-23);}.cls-92{mask:url(#mask-24);}.cls-93{mask:url(#mask-25);}.cls-94{mask:url(#mask-26);}.cls-95{mask:url(#mask-27);}.cls-96{mask:url(#mask-28);}.cls-97{mask:url(#mask-29);}.cls-98{mask:url(#mask-30);}.cls-99{mask:url(#mask-31);}.cls-100{mask:url(#mask-32);}.cls-101{mask:url(#mask-33);}.cls-102{mask:url(#mask-34);}.cls-103{mask:url(#mask-35);}.cls-104{mask:url(#mask-36);}.cls-105{mask:url(#mask-37);}.cls-106{mask:url(#mask-38);}.cls-107{mask:url(#mask-39);}.cls-108{mask:url(#mask-40);}.cls-109{mask:url(#mask-41);}.cls-110{mask:url(#mask-42);}.cls-111{mask:url(#mask-43);}.cls-112{mask:url(#mask-44);}.cls-113{mask:url(#mask-45);}.cls-114{mask:url(#mask-46);}.cls-115{mask:url(#mask-47);}.cls-116{mask:url(#mask-48);}.cls-117{mask:url(#mask-49);}.cls-118{mask:url(#mask-50);}.cls-119{fill:#ffdd15;}.cls-120{fill:url(#radial-gradient-64);}.cls-121{mask:url(#mask-51);}.cls-122{mask:url(#mask-52);}.cls-123{fill:#fff8d0;mix-blend-mode:hard-light;}.cls-124{mask:url(#mask-53);}.cls-125{fill:url(#radial-gradient-65);}</style><radialGradient id="radial-gradient" cx="75.47" cy="75.47" r="75.47" gradientUnits="userSpaceOnUse"><stop offset="0" stop-color="#fff"/><stop offset="0.16" stop-color="#ddd"/><stop offset="0.51" stop-color="#858585"/><stop offset="1"/></radialGradient><radialGradient id="radial-gradient-2" cx="20.79" cy="96.4" r="3.22" xlink:href="#radial-gradient"/><radialGradient id="radial-gradient-3" cx="94.21" cy="105.63" r="1.63" xlink:href="#radial-gradient"/><radialGradient id="radial-gradient-4" cx="124.65" cy="122.63" r="1.63" xlink:href="#radial-gradient"/><radialGradient id="radial-gradient-5" cx="110.65" cy="136.7" r="1.63" xlink:href="#radial-gradient"/><radialGradient id="radial-gradient-6" cx="88.8" cy="143.23" r="1.63" xlink:href="#radial-gradient"/><radialGradient id="radial-gradient-7" cx="55.79" cy="139.71" r="1.63" xlink:href="#radial-gradient"/><radialGradient id="radial-gradient-8" cx="33.57" cy="128.45" r="1.63" xlink:href="#radial-gradient"/><radialGradient id="radial-gradient-9" cx="89.46" cy="99.62" r="1.63" xlink:href="#radial-gradient"/><radialGradient id="radial-gradient-10" cx="119.76" cy="95.62" r="1.63" xlink:href="#radial-gradient"/><radialGradient id="radial-gradient-11" cx="117.87" cy="105.18" r="3.22" xlink:href="#radial-gradient"/><radialGradient id="radial-gradient-12" cx="13.91" cy="76.84" r="3.22" xlink:href="#radial-gradient"/><radialGradient id="radial-gradient-13" cx="55.79" cy="108.03" r="3.22" xlink:href="#radial-gradient"/><radialGradient id="radial-gradient-14" cx="139.38" cy="82.4" r="3.22" xlink:href="#radial-gradient"/><radialGradient id="radial-gradient-15" cx="87.05" cy="123.43" r="3.22" xlink:href="#radial-gradient"/><radialGradient id="radial-gradient-16" cx="77.43" cy="108.11" r="3.22" xlink:href="#radial-gradient"/><radialGradient id="radial-gradient-17" cx="102.14" cy="105.89" r="3.69" xlink:href="#radial-gradient"/><radialGradient id="radial-gradient-18" cx="46.25" cy="95.62" r="3.29" xlink:href="#radial-gradient"/><radialGradient id="radial-gradient-19" cx="114.64" cy="127.33" r="5.12" xlink:href="#radial-gradient"/><radialGradient id="radial-gradient-20" cx="75.47" cy="121.56" r="1.12" xlink:href="#radial-gradient"/><radialGradient id="radial-gradient-21" cx="81.29" cy="134.04" r="1.12" xlink:href="#radial-gradient"/><radialGradient id="radial-gradient-22" cx="104.79" cy="122.08" r="1.12" xlink:href="#radial-gradient"/><radialGradient id="radial-gradient-23" cx="84.63" cy="106.75" r="1.12" xlink:href="#radial-gradient"/><radialGradient id="radial-gradient-24" cx="27.53" cy="107.86" r="1.63" xlink:href="#radial-gradient"/><radialGradient id="radial-gradient-25" cx="124.65" cy="108.41" r="1.12" xlink:href="#radial-gradient"/><radialGradient id="radial-gradient-26" cx="133.06" cy="86.9" r="1.12" xlink:href="#radial-gradient"/><radialGradient id="radial-gradient-27" cx="97.87" cy="100.54" r="1.12" xlink:href="#radial-gradient"/><radialGradient id="radial-gradient-28" cx="31.97" cy="93.75" r="1.12" xlink:href="#radial-gradient"/><radialGradient id="radial-gradient-29" cx="33.57" cy="120.96" r="1.12" xlink:href="#radial-gradient"/><radialGradient id="radial-gradient-30" cx="18.68" cy="83.52" r="1.12" xlink:href="#radial-gradient"/><radialGradient id="radial-gradient-31" cx="72.91" cy="103.25" r="1.12" xlink:href="#radial-gradient"/><radialGradient id="radial-gradient-32" cx="72.91" cy="128.45" r="1.12" xlink:href="#radial-gradient"/><radialGradient id="radial-gradient-33" cx="81.29" cy="139.71" r="1.12" xlink:href="#radial-gradient"/><radialGradient id="radial-gradient-34" cx="103.67" cy="134.81" r="1.12" xlink:href="#radial-gradient"/><radialGradient id="radial-gradient-35" cx="80.65" cy="118.21" r="1.63" xlink:href="#radial-gradient"/><radialGradient id="radial-gradient-36" cx="94.21" cy="119.84" r="1.12" xlink:href="#radial-gradient"/><radialGradient id="radial-gradient-37" cx="109.53" cy="106.23" r="1.12" xlink:href="#radial-gradient"/><radialGradient id="radial-gradient-38" cx="132.21" cy="108.41" r="1.12" xlink:href="#radial-gradient"/><radialGradient id="radial-gradient-39" cx="65.19" cy="118.14" r="1.12" xlink:href="#radial-gradient"/><radialGradient id="radial-gradient-40" cx="64.67" cy="103.47" r="1.12" xlink:href="#radial-gradient"/><radialGradient id="radial-gradient-41" cx="47.37" cy="119.26" r="1.12" xlink:href="#radial-gradient"/><radialGradient id="radial-gradient-42" cx="102.55" cy="114.02" r="1.12" xlink:href="#radial-gradient"/><radialGradient id="radial-gradient-43" cx="126.89" cy="95.61" r="1.12" xlink:href="#radial-gradient"/><radialGradient id="radial-gradient-44" cx="52.98" cy="131.08" r="1.12" xlink:href="#radial-gradient"/><radialGradient id="radial-gradient-45" cx="69.76" cy="58.97" r="34.09" gradientUnits="userSpaceOnUse"><stop offset="0" stop-color="#fff"/><stop offset="0.18" stop-color="#fcfcfc"/><stop offset="0.32" stop-color="#f3f3f3"/><stop offset="0.43" stop-color="#e3e3e3"/><stop offset="0.54" stop-color="#cdcdcd"/><stop offset="0.64" stop-color="#b0b0b0"/><stop offset="0.74" stop-color="#8c8c8c"/><stop offset="0.83" stop-color="#626262"/><stop offset="0.92" stop-color="#333"/><stop offset="1"/></radialGradient><radialGradient id="radial-gradient-46" cx="63.56" cy="124.27" r="1.63" xlink:href="#radial-gradient"/><linearGradient id="linear-gradient" x1="82.21" y1="71.64" x2="87.78" y2="77.21" gradientUnits="userSpaceOnUse"><stop offset="0.31"/><stop offset="0.4" stop-color="#101010"/><stop offset="0.59" stop-color="#38393a"/><stop offset="0.84" stop-color="#797a7d"/><stop offset="1" stop-color="#a6a8ab"/></linearGradient><linearGradient id="linear-gradient-2" x1="515.12" y1="355.76" x2="533.79" y2="328.2" gradientTransform="matrix(1.1, 0, 0, 0.75, -516.68, -206.29)" gradientUnits="userSpaceOnUse"><stop offset="0" stop-color="#231f20"/><stop offset="1" stop-color="#fff"/></linearGradient><radialGradient id="radial-gradient-47" cx="69.76" cy="59.05" r="38.81" gradientUnits="userSpaceOnUse"><stop offset="0" stop-color="#fff"/><stop offset="0.14" stop-color="#fbfbfb"/><stop offset="0.27" stop-color="#efefef"/><stop offset="0.4" stop-color="#dcdbdb"/><stop offset="0.54" stop-color="#c0bfc0"/><stop offset="0.67" stop-color="#9d9b9c"/><stop offset="0.8" stop-color="#726f70"/><stop offset="0.93" stop-color="#3f3c3d"/><stop offset="1" stop-color="#231f20"/></radialGradient><radialGradient id="radial-gradient-48" cx="46.8" cy="111.33" r="1.63" xlink:href="#radial-gradient"/><radialGradient id="radial-gradient-49" cx="39.85" cy="119.84" r="1.63" xlink:href="#radial-gradient"/><radialGradient id="radial-gradient-50" cx="53.47" cy="102.35" r="1.63" xlink:href="#radial-gradient"/><radialGradient id="radial-gradient-51" cx="38.22" cy="95.62" r="1.63" xlink:href="#radial-gradient"/><radialGradient id="radial-gradient-52" cx="95.12" cy="-1816.76" r="95.12" gradientTransform="translate(0 1622) scale(1 0.84)" gradientUnits="userSpaceOnUse"><stop offset="0" stop-color="#fff"/><stop offset="1" stop-color="#fff" stop-opacity="0"/></radialGradient><radialGradient id="radial-gradient-53" cx="-9050.25" cy="4758.5" r="119.53" gradientTransform="matrix(0, 0.67, -1, 0, 4910.05, 6212.54)" xlink:href="#radial-gradient-52"/><radialGradient id="radial-gradient-54" cx="17411.05" cy="18.6" r="89.72" gradientTransform="matrix(0.64, 0, 0, 1.04, -10965.65, 106.74)" xlink:href="#radial-gradient-52"/><radialGradient id="radial-gradient-55" cx="95.12" cy="-1816.76" r="95.12" gradientTransform="translate(0 1622) scale(1 0.84)" gradientUnits="userSpaceOnUse"><stop offset="0" stop-color="#58595b"/><stop offset="0.23" stop-color="#595a5c" stop-opacity="0.96"/><stop offset="0.44" stop-color="#5b5c5e" stop-opacity="0.84"/><stop offset="0.63" stop-color="#5f6062" stop-opacity="0.65"/><stop offset="0.81" stop-color="#656668" stop-opacity="0.37"/><stop offset="0.99" stop-color="#6d6e70" stop-opacity="0.01"/><stop offset="1" stop-color="#6d6e70" stop-opacity="0"/></radialGradient><radialGradient id="radial-gradient-56" cx="-9050.25" cy="4758.5" r="119.53" gradientTransform="matrix(0, 0.67, -1, 0, 4910.04, 6212.54)" xlink:href="#radial-gradient-55"/><radialGradient id="radial-gradient-57" cx="17411.05" cy="18.6" r="89.72" gradientTransform="matrix(0.64, 0, 0, 1.04, -10965.65, 106.73)" xlink:href="#radial-gradient-55"/><radialGradient id="radial-gradient-58" cx="95.12" cy="-1816.76" r="95.12" gradientTransform="translate(0 1622) scale(1 0.84)" gradientUnits="userSpaceOnUse"><stop offset="0" stop-color="#bbbdbf"/><stop offset="0.17" stop-color="#bcbec0" stop-opacity="0.98"/><stop offset="0.31" stop-color="#bec0c2" stop-opacity="0.93"/><stop offset="0.45" stop-color="#c2c4c6" stop-opacity="0.83"/><stop offset="0.58" stop-color="#c8cacb" stop-opacity="0.7"/><stop offset="0.71" stop-color="#cfd1d2" stop-opacity="0.53"/><stop offset="0.84" stop-color="#d8dadb" stop-opacity="0.32"/><stop offset="0.97" stop-color="#e3e4e5" stop-opacity="0.07"/><stop offset="1" stop-color="#e6e7e8" stop-opacity="0"/></radialGradient><radialGradient id="radial-gradient-59" cx="-9050.25" cy="4758.5" r="119.53" gradientTransform="matrix(0, 0.67, -1, 0, 4910.04, 6212.54)" xlink:href="#radial-gradient-58"/><radialGradient id="radial-gradient-60" cx="17411.05" cy="18.6" r="89.72" gradientTransform="matrix(0.64, 0, 0, 1.04, -10965.65, 106.73)" xlink:href="#radial-gradient-58"/><radialGradient id="radial-gradient-61" cx="68.47" cy="-1844.62" r="68.47" gradientTransform="translate(0 1617.18) scale(1 0.84)" gradientUnits="userSpaceOnUse"><stop offset="0"/><stop offset="1" stop-opacity="0"/></radialGradient><radialGradient id="radial-gradient-62" cx="-9094.4" cy="4728.06" r="86.04" gradientTransform="matrix(0, 0.67, -1, 0, 4837.09, 6210.96)" xlink:href="#radial-gradient-61"/><radialGradient id="radial-gradient-63" cx="17327.52" cy="-18.19" r="64.58" gradientTransform="matrix(0.64, 0, 0, 1.04, -10970.6, 137.77)" xlink:href="#radial-gradient-61"/><mask id="mask" x="0" y="0" width="150.94" height="150.94" maskUnits="userSpaceOnUse"><circle class="cls-1" cx="75.47" cy="75.47" r="75.47"/></mask><mask id="mask-2" x="17.56" y="93.18" width="6.45" height="6.44" maskUnits="userSpaceOnUse"><circle class="cls-2" cx="20.79" cy="96.4" r="3.22"/></mask><mask id="mask-3" x="52.56" y="104.81" width="6.45" height="6.44" maskUnits="userSpaceOnUse"><circle class="cls-13" cx="55.79" cy="108.03" r="3.22"/></mask><mask id="mask-4" x="25.89" y="106.23" width="3.27" height="3.27" maskUnits="userSpaceOnUse"><circle class="cls-24" cx="27.53" cy="107.86" r="1.63"/></mask><mask id="mask-5" x="79.02" y="116.57" width="3.27" height="3.27" maskUnits="userSpaceOnUse"><circle class="cls-35" cx="80.65" cy="118.21" r="1.63"/></mask><mask id="mask-6" x="61.92" y="122.64" width="3.27" height="3.27" maskUnits="userSpaceOnUse"><circle class="cls-46" cx="63.56" cy="124.27" r="1.63"/></mask><mask id="mask-7" x="45.16" y="109.7" width="3.27" height="3.27" maskUnits="userSpaceOnUse"><circle class="cls-50" cx="46.8" cy="111.33" r="1.63"/></mask><mask id="mask-8" x="38.22" y="118.21" width="3.27" height="3.27" maskUnits="userSpaceOnUse"><circle class="cls-51" cx="39.85" cy="119.84" r="1.63"/></mask><mask id="mask-9" x="51.84" y="100.72" width="3.27" height="3.27" maskUnits="userSpaceOnUse"><circle class="cls-52" cx="53.47" cy="102.35" r="1.63"/></mask><mask id="mask-10" x="36.58" y="93.98" width="3.27" height="3.27" maskUnits="userSpaceOnUse"><circle class="cls-53" cx="38.22" cy="95.62" r="1.63"/></mask><mask id="mask-11" x="92.57" y="103.99" width="3.27" height="3.27" maskUnits="userSpaceOnUse"><circle class="cls-3" cx="94.21" cy="105.63" r="1.63"/></mask><mask id="mask-12" x="123.02" y="121" width="3.27" height="3.27" maskUnits="userSpaceOnUse"><circle class="cls-4" cx="124.65" cy="122.63" r="1.63"/></mask><mask id="mask-13" x="109.01" y="135.06" width="3.27" height="3.27" maskUnits="userSpaceOnUse"><circle class="cls-5" cx="110.65" cy="136.7" r="1.63"/></mask><mask id="mask-14" x="87.16" y="141.59" width="3.27" height="3.27" maskUnits="userSpaceOnUse"><circle class="cls-6" cx="88.8" cy="143.23" r="1.64"/></mask><mask id="mask-15" x="54.15" y="138.07" width="3.27" height="3.27" maskUnits="userSpaceOnUse"><circle class="cls-7" cx="55.79" cy="139.71" r="1.63"/></mask><mask id="mask-16" x="31.94" y="126.81" width="3.27" height="3.27" maskUnits="userSpaceOnUse"><circle class="cls-8" cx="33.57" cy="128.45" r="1.63"/></mask><mask id="mask-17" x="87.82" y="97.99" width="3.27" height="3.27" maskUnits="userSpaceOnUse"><circle class="cls-9" cx="89.46" cy="99.62" r="1.63"/></mask><mask id="mask-18" x="118.12" y="93.98" width="3.27" height="3.27" maskUnits="userSpaceOnUse"><circle class="cls-10" cx="119.76" cy="95.62" r="1.63"/></mask><mask id="mask-19" x="114.64" y="101.96" width="6.45" height="6.45" maskUnits="userSpaceOnUse"><circle class="cls-11" cx="117.87" cy="105.18" r="3.22"/></mask><mask id="mask-20" x="10.68" y="73.62" width="6.45" height="6.44" maskUnits="userSpaceOnUse"><circle class="cls-12" cx="13.91" cy="76.84" r="3.22"/></mask><mask id="mask-21" x="136.16" y="79.18" width="6.45" height="6.44" maskUnits="userSpaceOnUse"><circle class="cls-14" cx="139.38" cy="82.4" r="3.22"/></mask><mask id="mask-22" x="83.82" y="120.21" width="6.44" height="6.45" maskUnits="userSpaceOnUse"><circle class="cls-15" cx="87.05" cy="123.43" r="3.22"/></mask><mask id="mask-23" x="74.21" y="104.89" width="6.44" height="6.44" maskUnits="userSpaceOnUse"><circle class="cls-16" cx="77.43" cy="108.11" r="3.22"/></mask><mask id="mask-24" x="98.45" y="102.2" width="7.37" height="7.37" maskUnits="userSpaceOnUse"><circle class="cls-17" cx="102.14" cy="105.89" r="3.69"/></mask><mask id="mask-25" x="42.96" y="92.33" width="6.57" height="6.57" maskUnits="userSpaceOnUse"><circle class="cls-18" cx="46.25" cy="95.62" r="3.29"/></mask><mask id="mask-26" x="109.53" y="122.21" width="10.23" height="10.23" maskUnits="userSpaceOnUse"><circle class="cls-19" cx="114.64" cy="127.33" r="5.12"/></mask><mask id="mask-27" x="74.35" y="120.44" width="2.24" height="2.24" maskUnits="userSpaceOnUse"><circle class="cls-20" cx="75.47" cy="121.56" r="1.12"/></mask><mask id="mask-28" x="80.18" y="132.92" width="2.24" height="2.24" maskUnits="userSpaceOnUse"><circle class="cls-21" cx="81.29" cy="134.04" r="1.12"/></mask><mask id="mask-29" x="103.67" y="120.96" width="2.24" height="2.24" maskUnits="userSpaceOnUse"><circle class="cls-22" cx="104.79" cy="122.08" r="1.12"/></mask><mask id="mask-30" x="83.51" y="105.63" width="2.24" height="2.24" maskUnits="userSpaceOnUse"><circle class="cls-23" cx="84.63" cy="106.75" r="1.12"/></mask><mask id="mask-31" x="123.53" y="107.29" width="2.24" height="2.24" maskUnits="userSpaceOnUse"><circle class="cls-25" cx="124.65" cy="108.41" r="1.12"/></mask><mask id="mask-32" x="131.95" y="85.78" width="2.24" height="2.24" maskUnits="userSpaceOnUse"><circle class="cls-26" cx="133.06" cy="86.9" r="1.12"/></mask><mask id="mask-33" x="96.75" y="99.42" width="2.24" height="2.24" maskUnits="userSpaceOnUse"><circle class="cls-27" cx="97.87" cy="100.54" r="1.12"/></mask><mask id="mask-34" x="30.85" y="92.63" width="2.24" height="2.24" maskUnits="userSpaceOnUse"><circle class="cls-28" cx="31.97" cy="93.75" r="1.12"/></mask><mask id="mask-35" x="32.45" y="119.84" width="2.24" height="2.24" maskUnits="userSpaceOnUse"><circle class="cls-29" cx="33.57" cy="120.96" r="1.12"/></mask><mask id="mask-36" x="17.57" y="82.4" width="2.24" height="2.24" maskUnits="userSpaceOnUse"><circle class="cls-30" cx="18.68" cy="83.52" r="1.12"/></mask><mask id="mask-37" x="71.79" y="102.13" width="2.24" height="2.24" maskUnits="userSpaceOnUse"><circle class="cls-31" cx="72.91" cy="103.25" r="1.12"/></mask><mask id="mask-38" x="71.79" y="127.33" width="2.24" height="2.24" maskUnits="userSpaceOnUse"><circle class="cls-32" cx="72.91" cy="128.45" r="1.12"/></mask><mask id="mask-39" x="80.18" y="138.59" width="2.24" height="2.24" maskUnits="userSpaceOnUse"><circle class="cls-33" cx="81.29" cy="139.71" r="1.12"/></mask><mask id="mask-40" x="102.55" y="133.69" width="2.24" height="2.24" maskUnits="userSpaceOnUse"><circle class="cls-34" cx="103.67" cy="134.81" r="1.12"/></mask><mask id="mask-41" x="93.09" y="118.72" width="2.24" height="2.24" maskUnits="userSpaceOnUse"><circle class="cls-36" cx="94.21" cy="119.84" r="1.12"/></mask><mask id="mask-42" x="108.41" y="105.11" width="2.24" height="2.24" maskUnits="userSpaceOnUse"><circle class="cls-37" cx="109.53" cy="106.23" r="1.12"/></mask><mask id="mask-43" x="131.09" y="107.29" width="2.24" height="2.24" maskUnits="userSpaceOnUse"><circle class="cls-38" cx="132.21" cy="108.41" r="1.12"/></mask><mask id="mask-44" x="64.07" y="117.02" width="2.24" height="2.24" maskUnits="userSpaceOnUse"><circle class="cls-39" cx="65.19" cy="118.14" r="1.12"/></mask><mask id="mask-45" x="63.56" y="102.35" width="2.24" height="2.24" maskUnits="userSpaceOnUse"><circle class="cls-40" cx="64.67" cy="103.47" r="1.12"/></mask><mask id="mask-46" x="46.25" y="118.14" width="2.24" height="2.24" maskUnits="userSpaceOnUse"><circle class="cls-41" cx="47.37" cy="119.26" r="1.12"/></mask><mask id="mask-47" x="101.43" y="112.9" width="2.24" height="2.24" maskUnits="userSpaceOnUse"><circle class="cls-42" cx="102.55" cy="114.02" r="1.12"/></mask><mask id="mask-48" x="125.77" y="94.49" width="2.24" height="2.24" maskUnits="userSpaceOnUse"><circle class="cls-43" cx="126.89" cy="95.61" r="1.12"/></mask><mask id="mask-49" x="51.86" y="129.96" width="2.24" height="2.24" maskUnits="userSpaceOnUse"><circle class="cls-44" cx="52.98" cy="131.08" r="1.12"/></mask><mask id="mask-50" x="35.67" y="24.88" width="68.18" height="68.18" maskUnits="userSpaceOnUse"><circle class="cls-45" cx="69.76" cy="58.97" r="34.09"/></mask><radialGradient id="radial-gradient-64" cx="69.76" cy="59.05" r="26.73" gradientUnits="userSpaceOnUse"><stop offset="0" stop-color="#ffdd15"/><stop offset="0.48" stop-color="#ffdb15"/><stop offset="0.65" stop-color="#fed416"/><stop offset="0.77" stop-color="#fdc917"/><stop offset="0.87" stop-color="#fbb819"/><stop offset="0.95" stop-color="#f8a21c"/><stop offset="1" stop-color="#f6921e"/></radialGradient><mask id="mask-51" x="75.57" y="65.01" width="18.11" height="18.11" maskUnits="userSpaceOnUse"><path class="cls-47" d="M93.29,65.33c1.32,1.32-.71,7.08-5.51,11.88S77.21,84,75.9,82.72s1.51-6.28,6.31-11.08S92,64,93.29,65.33Z"/></mask><mask id="mask-52" x="45.42" y="33.4" width="32.01" height="30.64" maskUnits="userSpaceOnUse"><ellipse class="cls-48" cx="61.43" cy="48.72" rx="18.35" ry="12.41" transform="translate(-16.85 53.11) rotate(-41.63)"/></mask><mask id="mask-53" x="30.95" y="20.24" width="77.63" height="77.63" maskUnits="userSpaceOnUse"><path class="cls-49" d="M101.37,73.26l-7.45-2.77c.15-.32.3-.64.43-1Zm-9.59.94-.32.45L95,76.82Zm3.14-6.12,3.33.92-3.18-1.35Zm1.13-4.23c0,.26-.1.52-.15.78l5.9.76Zm.23-1.51c0,.34-.09.68-.15,1l7.69.58Zm.19-4.1c0,.27,0,.54,0,.81s0,.54,0,.81l12.1-.81Zm-4.73-14.4.44.66,4.71-3.63Zm2.81,5.22c.13.33.26.66.38,1l7.22-3.31ZM96,54.18c0,.18.07.36.1.55l4.06-1Zm-2.11-6.54,3-1.71-3.21,1.29ZM81.2,34.89,84,27.44l-3.73,7Zm2.42,1.31,4.85-10-6.13,9.28Q83,35.81,83.62,36.19ZM96.44,57.37q0,.28,0,.56l4.15-.5ZM87.33,38.91l6-8.37L86.27,38C86.63,38.31,87,38.61,87.33,38.91Zm-10-5.5,2.25-11.69L75.78,33C76.3,33.12,76.81,33.26,77.31,33.4Zm1.47.48.92-3.33-1.35,3.18Zm10.43,6.85,8-9.12-9.12,8Q88.67,40.14,89.22,40.73Zm4,5.53,9.86-6.68L92.43,44.89C92.71,45.34,93,45.79,93.23,46.26ZM75.33,32.9l.76-5.9-1.54,5.75Zm21.1,24.33,10.2-1.65-10.32.28Q96.38,56.54,96.43,57.23Zm-5-13.79,5.85-5-6.47,4.2C91.05,42.89,91.26,43.16,91.46,43.44Zm4.27,9.25L106.23,49,95.33,51.26Q95.55,52,95.73,52.69ZM44.59,50l-3.33-.92,3.18,1.35Zm.57-1.45c.14-.32.28-.65.43-1l-7.45-2.77Zm-1.7,5.68c0-.26.1-.52.15-.78l-5.9-.76Zm-.31,2.33-5.43-.07,5.38.79Q43.11,56.94,43.14,56.58Zm.09-.82c0-.34.09-.68.15-1l-7.69-.58Zm-.15,5c0-.18,0-.37,0-.56l-4.15.5Zm46.73,16-.37.41,3.29,2.58ZM47.73,43.91l.32-.45-3.57-2.17ZM96.43,60.8q0,.36-.06.72l5.43.07ZM49.71,41.37l.37-.41L46.8,38.37ZM52.08,79.1l-.41-.37L49.08,82ZM84.9,37l.46.32,2.17-3.57ZM54.62,81.08l-.46-.32L52,84.33Zm-.06-44,.66-.44-3.63-4.71ZM87.44,39l.41.37,2.59-3.29ZM85,81l-.66.44,3.63,4.71ZM47.77,74.26l-.44-.66-4.71,3.64Zm-2.19-3.79-3,1.71,3.21-1.29Zm4.08,6.21-.47-.55L45.3,79.92ZM45,69q-.2-.49-.38-1l-7.22,3.31Zm-1.49-5.12c0-.18-.07-.36-.1-.55l-4.06,1ZM89.85,41.43l.47.55,3.89-3.79Zm-24.4,44-.58,7.69,1.6-7.54Zm1.83.23-.07,5.43L68,85.72Zm2.47.12H69l.81,12.1.81-12.1Zm1.12,0,.5,4.15.06-4.18Zm3.2-.32,1,4.06-.44-4.15Zm-2.5.29,1.65,10.19-.28-10.32Q72.27,85.67,71.58,85.72ZM52.19,79.19l-6,8.37,7.1-7.5C52.88,79.79,52.53,79.5,52.19,79.19Zm12,6-.76,5.9L65,85.35ZM55.9,81.91l-4.85,10,6.13-9.28C56.75,82.41,56.32,82.17,55.9,81.91ZM62.2,84.7,60,96.39,63.74,85.1Q63,84.92,62.2,84.7Zm-1.47-.48-.92,3.33,1.35-3.18Zm-2.41-1-2.77,7.45,3.73-7ZM89.9,76.62l8.37,6-7.5-7.1Q90.35,76.11,89.9,76.62Zm-1.82,1.89,9.12,8-8-9.12C88.85,77.76,88.47,78.14,88.08,78.51Zm4.54-5.6,10,4.85-9.28-6.13C93.12,72.06,92.87,72.49,92.62,72.91Zm2.79-6.31,11.69,2.25L95.81,65.07C95.69,65.59,95.55,66.1,95.41,66.61Zm-8.57,13,3.79,3.89-3.24-4.36ZM76.12,85l3.65,10.5L77.55,84.63Q76.84,84.84,76.12,85Zm5.05-1.79,1.71,3L81.58,83Zm-2.41,1,3.31,7.22-2.32-7.6Zm6.61-3.48,5,5.85-4.21-6.47Zm-2.82,1.78,6.68,9.86L83.92,81.72C83.47,82,83,82.27,82.55,82.53Zm-38.44-31-11.7-2.25L43.71,53C43.83,52.51,44,52,44.11,51.5ZM63.4,33.08l-3.65-10.5L62,33.47Q62.67,33.26,63.4,33.08Zm-2.64.79-3.31-7.22,2.32,7.6ZM57,35.57l-6.68-9.86L55.6,36.38Q56.27,36,57,35.57Zm8.47-2.91-1-4.06.44,4.15ZM54.15,37.35l-5-5.85L53.33,38Zm4.2-2.48-1.71-3,1.29,3.21Zm13.88-2.44L72.29,27l-.79,5.37Zm-2.47-.11h.81l-.81-12.1L69,32.33Zm-1.82.06L66.29,22.19l.28,10.32C67,32.46,67.48,32.41,67.94,32.38Zm.7,0-.5-4.15-.06,4.18ZM43.79,65.41l-10.5,3.65,10.89-2.22Q44,66.14,43.79,65.41Zm6.51,12-8,9.12,9.12-8Q50.85,78,50.3,77.37ZM43,59.05c0-.27,0-.54,0-.81l-12.1.81,12.1.81C43,59.59,43,59.32,43,59.05Zm.06,1.82L32.9,62.52l10.32-.28Q43.14,61.56,43.09,60.87Zm5,13.79-5.85,5,6.47-4.2Q48.36,75.08,48.06,74.66Zm-1.78-2.82-9.86,6.68,10.66-5.31C46.8,72.76,46.54,72.31,46.28,71.84Zm6.4-33.36L48.89,34.6,52.13,39Zm-3.07,3-8.37-6,7.5,7.1Q49.16,42,49.62,41.48Zm24.45-8.81L74.65,25,73,32.52ZM51.44,39.59l-9.12-8,8,9.12Q50.85,40.14,51.44,39.59Zm-4.54,5.6-10-4.84,9.28,6.13C46.4,46,46.64,45.61,46.9,45.19Z"/></mask><radialGradient id="radial-gradient-65" cx="69.76" cy="59.05" r="38.81" gradientUnits="userSpaceOnUse"><stop offset="0.13" stop-color="#f6921e"/><stop offset="1" stop-color="#ffdd15"/></radialGradient><symbol id="New_Symbol" data-name="New Symbol" viewBox="0 0 257.01 223.64"><ellipse class="cls-54" cx="95.12" cy="100.46" rx="95.12" ry="79.67"/><ellipse class="cls-55" cx="151.78" cy="111.82" rx="119.53" ry="80.57" transform="translate(-19.1 191.45) rotate(-61.36)"/><ellipse class="cls-56" cx="167.61" cy="125.74" rx="57.37" ry="93.72" transform="translate(-12.47 232.87) rotate(-67.62)"/></symbol><symbol id="New_Symbol_2" data-name="New Symbol 2" viewBox="0 0 257.01 223.64"><ellipse class="cls-60" cx="95.12" cy="100.46" rx="95.12" ry="79.67"/><ellipse class="cls-61" cx="151.78" cy="111.82" rx="119.53" ry="80.57" transform="translate(-19.1 191.45) rotate(-61.36)"/><ellipse class="cls-62" cx="167.61" cy="125.74" rx="57.37" ry="93.72" transform="translate(-12.47 232.87) rotate(-67.62)"/></symbol><symbol id="New_Symbol_3" data-name="New Symbol 3" viewBox="0 0 174.77 164.37"><ellipse class="cls-63" cx="68.47" cy="72.31" rx="68.47" ry="57.35"/><ellipse class="cls-64" cx="109.26" cy="80.49" rx="86.04" ry="58" transform="translate(-13.75 137.81) rotate(-61.36)"/><ellipse class="cls-65" cx="109.26" cy="118.34" rx="41.3" ry="67.46" transform="translate(-41.76 174.32) rotate(-67.62)"/></symbol></defs><title>Ресурс 16weather</title><g class="cls-66"><g id="Слой_2" data-name="Слой 2"><g id="Layer_2" data-name="Layer 2"><g class="cls-67"><circle class="cls-68" cx="75.47" cy="75.47" r="75.47"/></g><g class="cls-69"><circle class="cls-70" cx="20.79" cy="96.4" r="3.22"/></g><g class="cls-71"><circle class="cls-70" cx="55.79" cy="108.03" r="3.22"/></g><g class="cls-72"><circle class="cls-70" cx="27.53" cy="107.86" r="1.63"/></g><g class="cls-73"><circle class="cls-70" cx="80.65" cy="118.21" r="1.63"/></g><g class="cls-74"><circle class="cls-70" cx="63.56" cy="124.27" r="1.63"/></g><g class="cls-75"><circle class="cls-70" cx="46.8" cy="111.33" r="1.63"/></g><g class="cls-76"><circle class="cls-70" cx="39.85" cy="119.84" r="1.63"/></g><g class="cls-77"><circle class="cls-70" cx="53.47" cy="102.35" r="1.63"/></g><g class="cls-78"><circle class="cls-70" cx="38.22" cy="95.62" r="1.63"/></g><g class="cls-79"><circle class="cls-70" cx="94.21" cy="105.63" r="1.63"/></g><g class="cls-80"><circle class="cls-70" cx="124.65" cy="122.63" r="1.63"/></g><g class="cls-81"><circle class="cls-70" cx="110.65" cy="136.7" r="1.63"/></g><g class="cls-82"><circle class="cls-70" cx="88.8" cy="143.23" r="1.64"/></g><g class="cls-83"><circle class="cls-70" cx="55.79" cy="139.71" r="1.63"/></g><g class="cls-84"><circle class="cls-70" cx="33.57" cy="128.45" r="1.63"/></g><g class="cls-85"><circle class="cls-70" cx="89.46" cy="99.62" r="1.63"/></g><g class="cls-86"><circle class="cls-70" cx="119.76" cy="95.62" r="1.63"/></g><g class="cls-87"><circle class="cls-70" cx="117.87" cy="105.18" r="3.22"/></g><g class="cls-88"><circle class="cls-70" cx="13.91" cy="76.84" r="3.22"/></g><g class="cls-89"><circle class="cls-70" cx="139.38" cy="82.4" r="3.22"/></g><g class="cls-90"><circle class="cls-70" cx="87.05" cy="123.43" r="3.22"/></g><g class="cls-91"><circle class="cls-70" cx="77.43" cy="108.11" r="3.22"/></g><g class="cls-92"><circle class="cls-70" cx="102.14" cy="105.89" r="3.69"/></g><g class="cls-93"><circle class="cls-70" cx="46.25" cy="95.62" r="3.29"/></g><g class="cls-94"><circle class="cls-70" cx="114.64" cy="127.33" r="5.12"/></g><g class="cls-95"><circle class="cls-70" cx="75.47" cy="121.56" r="1.12"/></g><g class="cls-96"><circle class="cls-70" cx="81.29" cy="134.04" r="1.12"/></g><g class="cls-97"><circle class="cls-70" cx="104.79" cy="122.08" r="1.12"/></g><g class="cls-98"><circle class="cls-70" cx="84.63" cy="106.75" r="1.12"/></g><g class="cls-99"><circle class="cls-70" cx="124.65" cy="108.41" r="1.12"/></g><g class="cls-100"><circle class="cls-70" cx="133.06" cy="86.9" r="1.12"/></g><g class="cls-101"><circle class="cls-70" cx="97.87" cy="100.54" r="1.12"/></g><g class="cls-102"><circle class="cls-70" cx="31.97" cy="93.75" r="1.12"/></g><g class="cls-103"><circle class="cls-70" cx="33.57" cy="120.96" r="1.12"/></g><g class="cls-104"><circle class="cls-70" cx="18.68" cy="83.52" r="1.12"/></g><g class="cls-105"><circle class="cls-70" cx="72.91" cy="103.25" r="1.12"/></g><g class="cls-106"><circle class="cls-70" cx="72.91" cy="128.45" r="1.12"/></g><g class="cls-107"><circle class="cls-70" cx="81.29" cy="139.71" r="1.12"/></g><g class="cls-108"><circle class="cls-70" cx="103.67" cy="134.81" r="1.12"/></g><g class="cls-109"><circle class="cls-70" cx="94.21" cy="119.84" r="1.12"/></g><g class="cls-110"><circle class="cls-70" cx="109.53" cy="106.23" r="1.12"/></g><g class="cls-111"><circle class="cls-70" cx="132.21" cy="108.41" r="1.12"/></g><g class="cls-112"><circle class="cls-70" cx="65.19" cy="118.14" r="1.12"/></g><g class="cls-113"><circle class="cls-70" cx="64.67" cy="103.47" r="1.12"/></g><g class="cls-114"><circle class="cls-70" cx="47.37" cy="119.26" r="1.12"/></g><g class="cls-115"><circle class="cls-70" cx="102.55" cy="114.02" r="1.12"/></g><g class="cls-116"><circle class="cls-70" cx="126.89" cy="95.61" r="1.12"/></g><g class="cls-117"><circle class="cls-70" cx="52.98" cy="131.08" r="1.12"/></g><path class="cls-70" d="M42.36,107.15a1,1,0,0,0-.9.64h-.39a2.39,2.39,0,0,0-.48-1.16l.28-.28a1,1,0,1,0-.45-.44l-.27.27a2.42,2.42,0,0,0-1.16-.48v-.39a1,1,0,1,0-.63,0v.39a2.4,2.4,0,0,0-1.16.48l-.27-.27a1,1,0,1,0-.45.44l.28.28a2.41,2.41,0,0,0-.48,1.16h-.39a1,1,0,1,0,0,.63h.39a2.4,2.4,0,0,0,.48,1.16l-.28.28a1,1,0,1,0,.45.44l.27-.28a2.41,2.41,0,0,0,1.16.48v.39a1,1,0,1,0,.63,0v-.39a2.42,2.42,0,0,0,1.16-.48l.27.28a1,1,0,1,0,.45-.44l-.28-.28a2.38,2.38,0,0,0,.48-1.16h.39a1,1,0,1,0,.9-1.27ZM40.82,105a.65.65,0,1,1,.28,1.09H41l0,0h0l0,0h0l0,0h0l0,0h0l0,0,0,0h0l0,0h0l0,0h0l0,0h0l0,0h0v0h0v0h0v0A.65.65,0,0,1,40.82,105Zm-4.12.64v0h0v0h0v0h0l0,0h0l0,0h0l0,0h0l0,0h0l0,0,0,0h0l0,0h0l0,0h0l0,0h0l0,0h-.11a.65.65,0,1,1,.44-.44Zm-1.05,2.46h0v0h0v0h0v0h0v0h0v0h0l0,0h0l0,0a.65.65,0,1,1,0-.63l0,0h0l0,0h0v0h0v0h0v0h0v0h0v0h0a.24.24,0,0,1,0,0A.29.29,0,0,1,35.64,108.15Zm.89,3a.65.65,0,0,1-.92-.92.65.65,0,0,1,.64-.17h.11l0,0h0l0,0h0l0,0h0l0,0h0l0,0,0,0h0l0,0h0l0,0h0l0,0h0l0,0h0v0h0v0h0v0A.65.65,0,0,1,36.53,111.18Zm4.12-.64v0h0v0h0v0h0l0,0h0l0,0h0l0,0h0l0,0h0l0,0,0,0h0l0,0h0l0,0h0l0,0h0l0,0h.12a.65.65,0,1,1-.45.45Zm-.25-3.71a2.13,2.13,0,0,1,.4,1H40a1.4,1.4,0,0,0-.16-.39Zm-.45-.44-.58.58a1.39,1.39,0,0,0-.39-.16V106A2.14,2.14,0,0,1,40,106.38Zm-1.28,2.38a.65.65,0,1,1,.65-.66A.65.65,0,0,1,38.68,108.76ZM38,104.42a.65.65,0,1,1,1,.57l0,0H38.4l0,0A.65.65,0,0,1,38,104.42Zm.34,1.55v.82A1.39,1.39,0,0,0,38,107l-.58-.58A2.14,2.14,0,0,1,38.36,106Zm-1.41.85.58.58a1.4,1.4,0,0,0-.16.39h-.82A2.15,2.15,0,0,1,36.95,106.82Zm0,2.57a2.14,2.14,0,0,1-.4-1h.82a1.4,1.4,0,0,0,.16.39Zm.45.45.58-.58a1.31,1.31,0,0,0,.39.16v.82A2.14,2.14,0,0,1,37.39,109.84Zm1.93,2a.65.65,0,1,1-1-.57l0,0H39l0,0A.65.65,0,0,1,39.33,111.79ZM39,110.24v-.82a1.31,1.31,0,0,0,.39-.16l.58.58A2.14,2.14,0,0,1,39,110.24Zm1.41-.85-.58-.58a1.4,1.4,0,0,0,.16-.39h.82A2.12,2.12,0,0,1,40.41,109.39Zm2-.63a.66.66,0,0,1-.57-.34l0,0h0v0h0v0h0v0h0v0h0v0h0a.13.13,0,0,1,0,0h0v-.08h0a.13.13,0,0,1,0,0h0v0h0v0h0v0h0v0h0v0h0l0,0a.65.65,0,1,1,.57,1Z"/><path class="cls-70" d="M100.07,132a1,1,0,0,0-.9.64h-.39a2.41,2.41,0,0,0-.48-1.15l.27-.28a1,1,0,1,0-.44-.44l-.28.27a2.41,2.41,0,0,0-1.16-.48v-.39a1,1,0,1,0-.63,0v.39a2.4,2.4,0,0,0-1.15.48l-.28-.28a1,1,0,1,0-.44.44l.28.28a2.4,2.4,0,0,0-.48,1.15h-.39a1,1,0,1,0,0,.63H94a2.4,2.4,0,0,0,.48,1.15l-.28.28a1,1,0,1,0,.44.45l.28-.28a2.39,2.39,0,0,0,1.15.48v.39a1,1,0,1,0,.63,0v-.39a2.38,2.38,0,0,0,1.16-.48l.28.28a1,1,0,1,0,.44-.45l-.27-.28a2.41,2.41,0,0,0,.48-1.15h.39a1,1,0,1,0,.9-1.27Zm-1.54-2.11a.65.65,0,1,1,.28,1.09H98.7l0,0h0l0,0h0l0,0h0l0,0h0l0,0,0,0h0v0h0v0h0l0,0h0l0,0h0v0h0v0h0v0A.66.66,0,0,1,98.53,129.86Zm-4.12.64v0h0v0h0v0h0l0,0h0l0,0h0l0,0h0l0,0h0l0,0,0,0h0l0,0h0l0,0h0l0,0h0l0,0H94a.65.65,0,1,1,.44-.45ZM93.36,133h0a.24.24,0,0,1,0,0h0v0h0v0h0v0h0v0h0v0h0l0,0a.65.65,0,1,1,0-.63l0,0h0v0h0v0h0v0h0v0h0v0h0v0h0V133Zm.89,3A.65.65,0,1,1,94,134.9h.11l0,0h0l0,0h0l0,0h0l0,0h0l0,0,0,0h0l0,0h0l0,0h0l0,0h0l0,0h0v0h0v0h0v0A.66.66,0,0,1,94.25,136Zm4.12-.65v0h0v0h0v0h0l0,0h0l0,0h0v0h0v0h0l0,0,0,0h0l0,0h0l0,0h0l0,0h0l0,0h.12a.65.65,0,0,1,.64,1.09.65.65,0,0,1-1.09-.65Zm-.25-3.71a2.18,2.18,0,0,1,.4,1H97.7a1.33,1.33,0,0,0-.16-.39Zm-.45-.45-.58.58a1.3,1.3,0,0,0-.39-.16v-.82A2.13,2.13,0,0,1,97.67,131.19Zm-1.28,2.38a.65.65,0,1,1,.65-.65A.65.65,0,0,1,96.39,133.58Zm-.65-4.34a.65.65,0,1,1,1,.57l0,0h-.56l0,0A.65.65,0,0,1,95.74,129.24Zm.34,1.55v.82a1.32,1.32,0,0,0-.39.16l-.58-.58A2.13,2.13,0,0,1,96.08,130.79Zm-1.41.85.58.58a1.33,1.33,0,0,0-.16.39h-.82A2.16,2.16,0,0,1,94.66,131.64Zm0,2.57a2.15,2.15,0,0,1-.4-1h.82a1.34,1.34,0,0,0,.16.39Zm.44.45.58-.58a1.32,1.32,0,0,0,.39.16v.82A2.14,2.14,0,0,1,95.11,134.65Zm1.94,2a.65.65,0,1,1-1-.57l0,0h0l0,0h.49l0,0h0l0,0A.65.65,0,0,1,97,136.61Zm-.34-1.55v-.82a1.3,1.3,0,0,0,.39-.16l.58.58A2.13,2.13,0,0,1,96.7,135.05Zm1.42-.85-.58-.58a1.34,1.34,0,0,0,.16-.39h.82A2.17,2.17,0,0,1,98.12,134.21Zm2-.63a.66.66,0,0,1-.57-.34l0,0h0v0h0v0h0v0h0a.11.11,0,0,1,0,0h0v0h0a.09.09,0,0,1,0,0h0s0,0,0,0,0,0,0,0h0v0h0a.16.16,0,0,0,0,0h0a.13.13,0,0,1,0,0h0v0h0v0h0v0h0l0,0a.65.65,0,1,1,.57,1Z"/><path class="cls-70" d="M76.59,142.27a1,1,0,0,0-.9.64H75.3a2.39,2.39,0,0,0-.48-1.15l.28-.28a1,1,0,1,0-.45-.44l-.28.28a2.39,2.39,0,0,0-1.16-.48v-.39a1,1,0,1,0-.63,0v.39a2.39,2.39,0,0,0-1.16.48l-.28-.28a1,1,0,1,0-.45.44l.28.28a2.39,2.39,0,0,0-.48,1.15h-.39a1,1,0,1,0,0,.63h.39A2.4,2.4,0,0,0,71,144.7l-.28.28a1,1,0,1,0,.45.45l.28-.28a2.42,2.42,0,0,0,1.16.48V146a1,1,0,1,0,.63,0v-.39a2.41,2.41,0,0,0,1.16-.48l.28.28a1,1,0,1,0,.45-.45l-.28-.28a2.4,2.4,0,0,0,.48-1.16h.39a1,1,0,1,0,.9-1.27ZM75,140.16a.65.65,0,1,1,.28,1.09h0l0,0h0l0,0h0l0,0h0l0,0h0l0,0h0l0,0,0,0h0l0,0h0l0,0h0l0,0h0l0,0h0v0h0v0h0v0A.66.66,0,0,1,75,140.16Zm-4.12.64v0h0v0h0v0h0l0,0h0l0,0h0l0,0h0l0,0h0l0,0,0,0h0l0,0h0l0,0h0l0,0h0l0,0h0l0,0h0a.65.65,0,1,1,.44-.45Zm-1.05,2.46h0a.22.22,0,0,0,0,0h0v0h0v0h0v0h0v0h0v0h0l0,0a.65.65,0,1,1,0-.63l0,0h0v0h0v0h0v0h0v0h0v0h0v0h0s0,0,0,0S69.87,143.25,69.87,143.26Zm.89,3a.65.65,0,1,1-.28-1.09h.11l0,0h0l0,0h0l0,0h0l0,0h0l0,0,0,0h0l0,0h0l0,0h0l0,0h0l0,0h0v0h0v0h0v0A.65.65,0,0,1,70.76,146.29Zm4.12-.64v0h0v0h0v0h0l0,0h0l0,0h0l0,0h0l0,0h0l0,0,0,0h0l0,0h0l0,0h0l0,0h0l0,0h.12a.65.65,0,1,1-.45.45Zm-.25-3.71a2.18,2.18,0,0,1,.4,1h-.82a1.29,1.29,0,0,0-.16-.39Zm-.45-.45-.58.58a1.45,1.45,0,0,0-.39-.16v-.82A2.17,2.17,0,0,1,74.19,141.5Zm-1.28,2.38a.65.65,0,1,1,.66-.65A.65.65,0,0,1,72.91,143.88Zm-.65-4.34a.65.65,0,1,1,1,.57l0,0h-.56l0,0A.65.65,0,0,1,72.25,139.54Zm.34,1.55v.82a1.47,1.47,0,0,0-.39.16l-.58-.58A2.16,2.16,0,0,1,72.59,141.1Zm-1.41.85.58.58a1.27,1.27,0,0,0-.16.39h-.82A2.13,2.13,0,0,1,71.18,141.94Zm0,2.57a2.13,2.13,0,0,1-.4-1h.82a1.28,1.28,0,0,0,.16.39Zm.45.44.58-.58a1.38,1.38,0,0,0,.39.16v.82A2.13,2.13,0,0,1,71.62,145Zm1.93,2a.65.65,0,1,1-1-.57l0,0h0l0,0h.49l0,0h0l0,0A.65.65,0,0,1,73.56,146.91Zm-.34-1.56v-.82a1.35,1.35,0,0,0,.39-.16l.58.58A2.14,2.14,0,0,1,73.22,145.36Zm1.42-.85-.58-.58a1.3,1.3,0,0,0,.16-.39H75A2.19,2.19,0,0,1,74.63,144.51Zm2-.63a.65.65,0,0,1-.57-.34l0,0h0v0h0v0h0v0h0v0h0a.1.1,0,0,0,0,0h0v0h0s0,0,0,0,0,0,0,0h0v0h0v0h0v0h0v0h0v0h0v0h0l0,0a.65.65,0,1,1,.57,1Z"/><path class="cls-70" d="M57.68,121.34a.74.74,0,0,0-.7.5h-.3a1.87,1.87,0,0,0-.37-.89l.21-.21a.74.74,0,1,0-.35-.34l-.21.21a1.87,1.87,0,0,0-.9-.37v-.3a.74.74,0,1,0-.49,0v.3a1.85,1.85,0,0,0-.9.37l-.21-.21a.74.74,0,1,0-.34.34l.21.21a1.89,1.89,0,0,0-.37.89h-.3a.74.74,0,1,0,0,.49H53a1.89,1.89,0,0,0,.37.9l-.21.21a.74.74,0,1,0,.34.34l.21-.21a1.84,1.84,0,0,0,.9.37v.3a.74.74,0,1,0,.49,0v-.3a1.86,1.86,0,0,0,.9-.37l.21.21a.74.74,0,1,0,1.19-.2.73.73,0,0,0-.84-.14l-.21-.21a1.87,1.87,0,0,0,.37-.9H57a.74.74,0,1,0,.7-1Zm-1.19-1.64a.51.51,0,1,1,.21.84h-.09l0,0h0l0,0h-.06l0,0,0,0h0v0h0v0h0l0,0h0v0h0v0h0v0h0v0A.5.5,0,0,1,56.49,119.7Zm-3.2.5v0h0v0h0v0h0v0h0l0,0h0v0h0v0h0l0,0,0,0h-.05l0,0h0l0,0h-.09a.51.51,0,1,1,.35-.34Zm-.82,1.91h0v0h0v0h0v0h0v0h0v0h0v0h0v0a.51.51,0,1,1,0-.49v0h0v0h0v0h0v0h0v0h0v0h0v0h0v0A.24.24,0,0,1,52.47,122.11Zm.69,2.35a.51.51,0,1,1-.22-.84h.12l0,0h.05l0,0,0,0h0v0h0v0h0l0,0h0v0h0v0h0v0h0v0A.51.51,0,0,1,53.16,124.46Zm3.19-.5v0h0v0h0v0h0v0h0l0,0h0v0h0v0h0l0,0,0,0h.06l0,0h.11a.5.5,0,1,1-.34.34Zm-.19-2.87a1.65,1.65,0,0,1,.31.75h-.64a1,1,0,0,0-.12-.3Zm-.34-.34-.45.45a1.07,1.07,0,0,0-.3-.13v-.64A1.69,1.69,0,0,1,55.82,120.74Zm-1,1.85a.51.51,0,1,1,.5-.51A.51.51,0,0,1,54.82,122.59Zm-.51-3.36a.51.51,0,1,1,.75.44l0,0h-.43l0,0A.51.51,0,0,1,54.32,119.22Zm.26,1.21v.64a1,1,0,0,0-.3.13l-.45-.45A1.69,1.69,0,0,1,54.58,120.43Zm-1.09.66.45.45a1.12,1.12,0,0,0-.13.3h-.63A1.65,1.65,0,0,1,53.48,121.09Zm0,2a1.65,1.65,0,0,1-.31-.75h.63a1.11,1.11,0,0,0,.13.3Zm.34.35.45-.45a1,1,0,0,0,.3.12v.64A1.68,1.68,0,0,1,53.83,123.42Zm1.5,1.52a.51.51,0,1,1-.75-.44h.49A.5.5,0,0,1,55.33,124.94Zm-.26-1.2v-.64a1.06,1.06,0,0,0,.3-.12l.45.45A1.67,1.67,0,0,1,55.07,123.73Zm1.1-.66-.45-.45a1,1,0,0,0,.12-.3h.64A1.64,1.64,0,0,1,56.16,123.08Zm1.52-.49a.5.5,0,0,1-.44-.26v0h0v0h0v0h0v0h0v0h0v0h0a0,0,0,0,1,0,0h0v-.06h0a0,0,0,0,1,0,0h0v0h0v0h0v0h0v0h0v0h0v0a.51.51,0,1,1,.44.75Z"/><path class="cls-70" d="M70.69,98.16a.74.74,0,0,0-.7.5h-.3a1.86,1.86,0,0,0-.37-.89l.22-.21a.74.74,0,1,0-.35-.34l-.21.21a1.86,1.86,0,0,0-.9-.37v-.3a.74.74,0,1,0-.49,0V97a1.86,1.86,0,0,0-.89.37l-.21-.21a.74.74,0,1,0-.34.34l.21.21a1.88,1.88,0,0,0-.37.89h-.3a.74.74,0,1,0,0,.49H66a1.87,1.87,0,0,0,.37.9l-.21.21a.74.74,0,1,0,.34.35l.21-.21a1.85,1.85,0,0,0,.89.37v.3a.74.74,0,1,0,.49,0v-.3a1.84,1.84,0,0,0,.9-.37l.21.21a.74.74,0,1,0,.35-.35l-.22-.21a1.86,1.86,0,0,0,.37-.9H70a.74.74,0,1,0,.7-1Zm-1.2-1.64a.51.51,0,1,1,.22.84h-.2l0,0,0,0h0v0h0v0h0l0,0h0v0h0v0h0v0h0v0A.51.51,0,0,1,69.49,96.52Zm-3.2.5v0h0v0h0v0h0l0,0h0l0,0h0v0h0v0h0l0,0,0,0H66.1l0,0H66A.51.51,0,1,1,66.3,97Zm-.82,1.91h0v0h0v0h0v0h0v0h0v0h0v0h0v0a.51.51,0,0,1-.44.26.51.51,0,0,1,0-1,.51.51,0,0,1,.44.26v0h0v0h0v0h0v0h0v0h0v0h0v0h0v.06Zm.69,2.35a.51.51,0,1,1-.22-.84H66l0,0h0l0,0h0l0,0h0l0,0,0,0h0v0h0v0h0l0,0h0l0,0h0v0h0v0h0v0A.51.51,0,0,1,66.17,101.28Zm3.19-.5v0h0v0h0v0h0v0h0l0,0h0v0h0v0h0l0,0,0,0h0l0,0h0l0,0h0l0,0h.09a.51.51,0,1,1-.35.34Zm-.19-2.87a1.65,1.65,0,0,1,.31.75h-.63a1,1,0,0,0-.12-.3Zm-.35-.34-.45.45a1,1,0,0,0-.3-.12v-.64A1.64,1.64,0,0,1,68.83,97.56Zm-1,1.85a.51.51,0,1,1,.51-.51A.51.51,0,0,1,67.83,99.41ZM67.33,96a.51.51,0,1,1,.75.44l0,0h-.43l0,0A.51.51,0,0,1,67.33,96Zm.26,1.21v.64a1,1,0,0,0-.3.12l-.45-.45A1.66,1.66,0,0,1,67.59,97.25Zm-1.09.66.45.45a1.08,1.08,0,0,0-.12.3h-.64A1.64,1.64,0,0,1,66.49,97.91Zm0,2a1.63,1.63,0,0,1-.31-.75h.64a1,1,0,0,0,.12.3Zm.34.35.45-.45a1,1,0,0,0,.3.13v.64A1.65,1.65,0,0,1,66.84,100.24Zm1.5,1.52a.51.51,0,1,1-.75-.44h.49A.5.5,0,0,1,68.34,101.76Zm-.26-1.21v-.64a1,1,0,0,0,.3-.12l.45.45A1.64,1.64,0,0,1,68.08,100.55Zm1.1-.66-.45-.45a1,1,0,0,0,.13-.3h.63A1.64,1.64,0,0,1,69.17,99.9Zm1.52-.49a.51.51,0,0,1-.45-.26v0h0v0h0v0h0v0h0v0h0v0h0v0h0v-.06h0v0h0v0h0v0h0v0h0v0h0v0h0v0a.51.51,0,1,1,.45.75Z"/><path class="cls-70" d="M100.85,122.16a.48.48,0,0,0-.45.32h-.19a1.19,1.19,0,0,0-.24-.57l.14-.14A.47.47,0,1,0,100,121a.48.48,0,0,0-.09.54l-.14.14a1.19,1.19,0,0,0-.58-.24v-.19a.48.48,0,1,0-.31,0v.19a1.2,1.2,0,0,0-.58.24l-.14-.14a.48.48,0,1,0-.22.22l.14.14a1.18,1.18,0,0,0-.24.57h-.2a.47.47,0,1,0,0,.32h.2a1.18,1.18,0,0,0,.24.58l-.14.14a.47.47,0,1,0,.22.22l.14-.14a1.2,1.2,0,0,0,.58.24V124a.48.48,0,1,0,.31,0v-.19a1.19,1.19,0,0,0,.58-.24l.14.14a.47.47,0,1,0,.22-.22l-.14-.14a1.19,1.19,0,0,0,.24-.58h.19a.48.48,0,0,0,.45.32.48.48,0,0,0,0-1Zm-.77-1.05a.32.32,0,0,1,.46.46.32.32,0,0,1-.32.08h-.12v0h0v0h0v0h0v0h0v0A.32.32,0,0,1,100.08,121.11Zm-2.05.32v0h0v0h0v0h0v0h0l0,0H97.8a.32.32,0,0,1-.32-.08.33.33,0,1,1,.54-.14Zm-.52,1.23h0v0h0v0h0v0h0v0a.33.33,0,1,1,0-.32v0h0v0h0v0h0v0h0v0h0v0h0v0Zm.44,1.51a.33.33,0,0,1-.46-.46.32.32,0,0,1,.32-.08H98v0h0v0h0v0h0v0h0v0A.33.33,0,0,1,97.95,124.16Zm2.05-.32v0h0v0h0v0h0v0h.18a.32.32,0,1,1-.14.54A.33.33,0,0,1,100,123.84ZM99.87,122a1.07,1.07,0,0,1,.2.48h-.41a.76.76,0,0,0-.08-.19Zm-.22-.22-.29.29a.67.67,0,0,0-.19-.08v-.41A1.07,1.07,0,0,1,99.65,121.77ZM99,123a.33.33,0,1,1,.33-.33A.33.33,0,0,1,99,123Zm-.33-2.16a.33.33,0,1,1,.48.29h-.31A.33.33,0,0,1,98.69,120.8Zm.17.77V122a.68.68,0,0,0-.19.08l-.29-.29A1.08,1.08,0,0,1,98.86,121.58Zm-.7.42.29.29a.67.67,0,0,0-.08.19H98A1.07,1.07,0,0,1,98.15,122Zm0,1.28a1.07,1.07,0,0,1-.2-.48h.41a.71.71,0,0,0,.08.19Zm.22.22.29-.29a.66.66,0,0,0,.19.08v.41A1.07,1.07,0,0,1,98.37,123.5Zm1,1a.33.33,0,1,1-.48-.29h.31A.32.32,0,0,1,99.34,124.47Zm-.17-.77v-.41a.65.65,0,0,0,.19-.08l.29.29A1.07,1.07,0,0,1,99.17,123.7Zm.71-.42-.29-.29a.81.81,0,0,0,.08-.19h.41A1.07,1.07,0,0,1,99.87,123.27Zm1-.31a.33.33,0,0,1-.29-.17v0h0v0h0v0h0v0h0v0h0a0,0,0,0,1,0,0h0v0h0v0h0v0h0v0h0v0a.33.33,0,0,1,.29-.17.33.33,0,1,1,0,.65Z"/><path class="cls-70" d="M85.62,113.06a.26.26,0,0,0-.24.17h-.1a.67.67,0,0,0-.13-.31l.07-.07a.26.26,0,0,0,.29-.41.26.26,0,0,0-.41.29l-.07.07a.65.65,0,0,0-.31-.13v-.11a.25.25,0,0,0,.17-.24.26.26,0,1,0-.34.24v.11a.65.65,0,0,0-.31.13l-.07-.07a.26.26,0,0,0-.41-.29.26.26,0,0,0,.29.41l.07.07a.64.64,0,0,0-.13.31h-.1a.26.26,0,1,0,0,.17H84a.64.64,0,0,0,.13.31l-.07.07a.26.26,0,1,0,.07.41.25.25,0,0,0,0-.29l.07-.07a.66.66,0,0,0,.31.13v.1a.26.26,0,1,0,.34.24.25.25,0,0,0-.17-.24V114a.67.67,0,0,0,.31-.13l.07.07a.25.25,0,1,0,.12-.12l-.07-.07a.67.67,0,0,0,.13-.31h.1a.26.26,0,1,0,.24-.34Zm-.42-.57a.18.18,0,0,1,.25,0,.18.18,0,0,1-.17.29h-.12A.18.18,0,0,1,85.2,112.49Zm-1.1.17H84a.18.18,0,1,1,.12-.12Zm-.28.66h0a.17.17,0,0,1-.15.09.17.17,0,1,1,0-.35.17.17,0,0,1,.15.09h0Zm.24.81a.17.17,0,0,1-.25,0,.18.18,0,0,1,.17-.29h.12A.17.17,0,0,1,84.05,114.14Zm1.1-.17h.12a.18.18,0,0,1,.17,0,.17.17,0,0,1,0,.25.18.18,0,0,1-.25,0A.18.18,0,0,1,85.16,114Zm-.07-1a.55.55,0,0,1,.11.26H85a.34.34,0,0,0,0-.1Zm-.12-.12-.16.16-.1,0v-.22A.58.58,0,0,1,85,112.85Zm-.34.64a.17.17,0,1,1,.18-.18A.18.18,0,0,1,84.63,113.49Zm-.18-1.16a.18.18,0,1,1,.26.15h-.17A.17.17,0,0,1,84.45,112.33Zm.09.42V113l-.1,0-.16-.16A.56.56,0,0,1,84.54,112.74Zm-.38.23.16.15a.39.39,0,0,0,0,.1h-.22A.57.57,0,0,1,84.16,113Zm0,.69a.59.59,0,0,1-.11-.26h.22a.38.38,0,0,0,0,.11Zm.12.12.16-.15.1,0v.22A.57.57,0,0,1,84.28,113.78Zm.52.52a.18.18,0,1,1-.26-.15h.17A.18.18,0,0,1,84.8,114.3Zm-.09-.42v-.22l.1,0,.16.15A.59.59,0,0,1,84.71,113.89Zm.38-.23-.16-.15a.33.33,0,0,0,0-.11h.22A.57.57,0,0,1,85.09,113.66Zm.53-.17a.18.18,0,0,1-.16-.09h0a.17.17,0,1,1,.16.26Z"/><path class="cls-70" d="M80,128a.26.26,0,0,0-.24.17h-.11a.65.65,0,0,0-.13-.31l.08-.07a.26.26,0,1,0-.12-.12l-.07.08a.63.63,0,0,0-.31-.13v-.11a.26.26,0,1,0-.17,0v.11a.64.64,0,0,0-.31.13l-.07-.08a.26.26,0,0,0-.41-.29.26.26,0,0,0,.29.41l.07.07a.64.64,0,0,0-.13.31h-.1a.26.26,0,0,0-.5.08.26.26,0,0,0,.5.08h.1a.63.63,0,0,0,.13.31l-.07.07a.26.26,0,1,0,.07.41.26.26,0,0,0,.05-.29l.07-.07a.66.66,0,0,0,.31.13v.1a.26.26,0,0,0,.09.5.26.26,0,0,0,.08-.5v-.1a.64.64,0,0,0,.31-.13l.07.07a.26.26,0,1,0,.41-.07.25.25,0,0,0-.29,0l-.08-.07a.64.64,0,0,0,.13-.31h.11a.26.26,0,0,0,.5-.08A.26.26,0,0,0,80,128Zm-.41-.57a.17.17,0,0,1,.25.25.17.17,0,0,1-.17,0h-.12A.17.17,0,0,1,79.59,127.46Zm-1.11.17h-.12a.17.17,0,0,1-.17,0,.18.18,0,0,1,0-.25.18.18,0,0,1,.25,0A.17.17,0,0,1,78.49,127.63Zm-.28.66h0a.17.17,0,1,1-.15-.26.18.18,0,0,1,.15.09h0Zm.24.81a.17.17,0,0,1-.25,0,.18.18,0,0,1,0-.25.18.18,0,0,1,.17,0h.12A.17.17,0,0,1,78.44,129.11Zm1.11-.17h.12a.17.17,0,1,1-.12.12Zm-.07-1a.59.59,0,0,1,.11.26h-.22a.35.35,0,0,0,0-.1Zm-.12-.12-.15.16-.11,0v-.22A.55.55,0,0,1,79.36,127.82Zm-.34.64a.18.18,0,1,1,.17-.18A.18.18,0,0,1,79,128.46Zm-.18-1.16a.18.18,0,1,1,.26.15h-.17A.17.17,0,0,1,78.84,127.3Zm.09.42v.22l-.1,0-.16-.16A.55.55,0,0,1,78.93,127.72Zm-.38.23.16.16a.31.31,0,0,0,0,.1h-.22A.56.56,0,0,1,78.56,127.94Zm0,.69a.56.56,0,0,1-.11-.26h.22a.31.31,0,0,0,0,.1Zm.12.12.16-.16.1,0v.22A.55.55,0,0,1,78.67,128.75Zm.52.52a.18.18,0,1,1-.35,0,.17.17,0,0,1,.09-.15h.17A.18.18,0,0,1,79.19,129.27Zm-.09-.42v-.22l.11,0,.15.16A.55.55,0,0,1,79.1,128.86Zm.38-.23-.16-.16a.35.35,0,0,0,0-.1h.22A.59.59,0,0,1,79.48,128.63Zm.52-.17a.17.17,0,0,1-.15-.09h0a.17.17,0,0,1,.15-.09.18.18,0,1,1,0,.35Z"/><path class="cls-70" d="M88,135.67a.26.26,0,0,0-.24.17h-.1a.63.63,0,0,0-.13-.31l.07-.07a.26.26,0,1,0-.07-.41.25.25,0,0,0,0,.29l-.07.07a.66.66,0,0,0-.31-.13v-.11a.25.25,0,0,0,.17-.24.26.26,0,1,0-.34.24v.11a.65.65,0,0,0-.31.13l-.07-.07a.26.26,0,0,0-.41-.29.25.25,0,0,0,0,.36.26.26,0,0,0,.29,0l.07.07a.66.66,0,0,0-.13.31h-.1a.26.26,0,0,0-.24-.17.26.26,0,0,0,0,.51.26.26,0,0,0,.24-.17h.1a.65.65,0,0,0,.13.31l-.07.07a.26.26,0,0,0-.29.41.26.26,0,0,0,.36,0,.26.26,0,0,0,0-.29l.07-.07a.64.64,0,0,0,.31.13v.11a.26.26,0,1,0,.17,0v-.11a.65.65,0,0,0,.31-.13l.07.07a.25.25,0,0,0,0,.29.26.26,0,0,0,.36-.36.25.25,0,0,0-.29,0l-.07-.07a.63.63,0,0,0,.13-.31h.1a.26.26,0,1,0,.24-.34Zm-.41-.57a.17.17,0,0,1,.25.25.17.17,0,0,1-.17,0h-.12A.17.17,0,0,1,87.62,135.11Zm-1.1.17H86.4a.17.17,0,0,1-.17,0,.17.17,0,1,1,.29-.07Zm-.28.66h0a.17.17,0,1,1,0-.17h0Zm.24.81a.17.17,0,1,1-.08-.29h.12A.17.17,0,0,1,86.47,136.75Zm1.11-.17h.12a.17.17,0,0,1,.17,0,.17.17,0,1,1-.29.07Zm-.07-1a.58.58,0,0,1,.11.26H87.4a.36.36,0,0,0,0-.1Zm-.12-.12-.16.16-.1,0v-.22A.55.55,0,0,1,87.39,135.47Zm-.34.64a.18.18,0,1,1,.18-.17A.18.18,0,0,1,87,136.11Zm-.17-1.16a.17.17,0,1,1,.26.15H87A.18.18,0,0,1,86.87,134.94Zm.09.42v.22l-.1,0-.16-.16A.55.55,0,0,1,87,135.36Zm-.38.23.16.15a.31.31,0,0,0,0,.1h-.22A.58.58,0,0,1,86.58,135.59Zm0,.69a.59.59,0,0,1-.11-.26h.22a.33.33,0,0,0,0,.11Zm.12.12.16-.16.1,0v.22A.57.57,0,0,1,86.7,136.39Zm.52.52a.17.17,0,1,1-.26-.15h.17A.17.17,0,0,1,87.22,136.92Zm-.09-.42v-.22l.1,0,.16.16A.56.56,0,0,1,87.13,136.5Zm.38-.23-.16-.16a.38.38,0,0,0,0-.11h.22A.59.59,0,0,1,87.51,136.27Zm.52-.17a.18.18,0,0,1-.15-.09h0a.18.18,0,0,1,.15-.09.17.17,0,1,1,0,.35Z"/><path class="cls-70" d="M64.54,108.15a.26.26,0,0,0-.24.17h-.1a.65.65,0,0,0-.13-.31l.07-.07a.26.26,0,0,0,.29-.41.26.26,0,0,0-.41.29l-.07.07a.65.65,0,0,0-.31-.13v-.11a.26.26,0,1,0-.34-.24.26.26,0,0,0,.17.24v.11a.64.64,0,0,0-.31.13l-.07-.07a.26.26,0,0,0-.41-.29.26.26,0,0,0,.29.41L63,108a.66.66,0,0,0-.13.31h-.1a.26.26,0,1,0,0,.17h.1a.66.66,0,0,0,.13.31l-.07.07a.26.26,0,0,0-.29,0,.26.26,0,1,0,.41.07l.07-.07a.64.64,0,0,0,.31.13v.1a.26.26,0,1,0,.34.24.26.26,0,0,0-.17-.24V109a.65.65,0,0,0,.31-.13L64,109a.26.26,0,1,0,.41-.07.26.26,0,0,0-.29,0l-.07-.07a.65.65,0,0,0,.13-.31h.1a.26.26,0,1,0,.24-.34Zm-.42-.57a.18.18,0,0,1,.25,0,.17.17,0,0,1-.17.29h-.12A.18.18,0,0,1,64.13,107.58Zm-1.1.17h-.12a.18.18,0,0,1-.17,0,.17.17,0,1,1,.29-.07Zm-.28.66h0a.18.18,0,1,1,0-.17h0Zm.24.81a.17.17,0,0,1-.25-.25.17.17,0,0,1,.17,0H63A.18.18,0,0,1,63,109.23Zm1.1-.17h.12a.17.17,0,0,1,.17,0,.17.17,0,0,1,0,.25.18.18,0,0,1-.25,0A.18.18,0,0,1,64.08,109.06Zm-.07-1a.58.58,0,0,1,.11.26h-.22a.32.32,0,0,0,0-.1Zm-.12-.12-.16.16-.1,0v-.22A.57.57,0,0,1,63.9,107.94Zm-.34.64a.18.18,0,0,1,0-.35.18.18,0,1,1,0,.35Zm-.17-1.16a.17.17,0,1,1,.35,0,.18.18,0,0,1-.09.15h-.17A.18.18,0,0,1,63.38,107.42Zm.09.42v.22l-.1,0-.16-.16A.57.57,0,0,1,63.47,107.84Zm-.38.23.16.16a.31.31,0,0,0,0,.1H63A.57.57,0,0,1,63.09,108.06Zm0,.69a.57.57,0,0,1-.11-.26h.22a.31.31,0,0,0,0,.1Zm.12.12.16-.16.1,0V109A.56.56,0,0,1,63.21,108.87Zm.52.52a.17.17,0,1,1-.26-.15h.17A.18.18,0,0,1,63.73,109.39Zm-.09-.42v-.22l.1,0,.16.16A.56.56,0,0,1,63.64,109Zm.38-.23-.16-.16a.32.32,0,0,0,0-.1h.22A.59.59,0,0,1,64,108.75Zm.52-.17a.17.17,0,0,1-.15-.09h0a.17.17,0,1,1,.15.26Z"/><path class="cls-70" d="M25,88.89a.25.25,0,0,0-.24.17h-.11a.61.61,0,0,0-.13-.31l.07-.07a.26.26,0,0,0,.29-.05.26.26,0,0,0-.36-.36.26.26,0,0,0,0,.29l-.08.07a.64.64,0,0,0-.31-.13v-.1a.26.26,0,1,0-.17,0v.1a.63.63,0,0,0-.31.13l-.07-.07a.26.26,0,0,0-.05-.29.26.26,0,1,0-.07.41l.07.07a.65.65,0,0,0-.13.31h-.11a.26.26,0,0,0-.5.08.26.26,0,0,0,.26.26.25.25,0,0,0,.24-.17h.11a.65.65,0,0,0,.13.31l-.07.07a.26.26,0,1,0,.07.41.26.26,0,0,0,.05-.29l.07-.07a.65.65,0,0,0,.31.13v.1a.25.25,0,0,0-.17.24.26.26,0,1,0,.34-.24v-.1a.65.65,0,0,0,.31-.13l.08.07a.26.26,0,0,0,0,.29.26.26,0,1,0,.07-.41l-.07-.07a.61.61,0,0,0,.13-.31h.11a.26.26,0,1,0,.24-.34Zm-.41-.57a.18.18,0,0,1,.25,0,.17.17,0,0,1-.17.29h-.12A.17.17,0,0,1,24.58,88.33Zm-1.1.17h-.12a.17.17,0,0,1-.17,0,.18.18,0,1,1,.29-.07Zm-.28.66h0a.17.17,0,1,1,0-.17h0Zm.24.81a.18.18,0,1,1-.25-.25.17.17,0,0,1,.17,0h.12A.18.18,0,0,1,23.43,90Zm1.1-.17h.12a.17.17,0,0,1,.17.29.18.18,0,0,1-.29-.17Zm-.07-1a.56.56,0,0,1,.11.26h-.22a.38.38,0,0,0,0-.1Zm-.12-.12-.15.15-.1,0v-.22A.59.59,0,0,1,24.35,88.68Zm-.34.64a.18.18,0,1,1,.17-.17A.18.18,0,0,1,24,89.32Zm-.18-1.16a.18.18,0,1,1,.35,0,.17.17,0,0,1-.09.15h-.17A.17.17,0,0,1,23.83,88.16Zm.09.42v.22l-.11,0-.15-.15A.58.58,0,0,1,23.92,88.58Zm-.38.23.16.16a.41.41,0,0,0,0,.1h-.22A.56.56,0,0,1,23.54,88.8Zm0,.69a.56.56,0,0,1-.11-.26h.22a.43.43,0,0,0,0,.1Zm.12.12.15-.15.11,0v.22A.58.58,0,0,1,23.66,89.61Zm.52.52a.18.18,0,1,1-.26-.15h.17A.17.17,0,0,1,24.18,90.13Zm-.09-.42V89.5l.1,0,.15.15A.59.59,0,0,1,24.09,89.72Zm.38-.23-.16-.16a.4.4,0,0,0,0-.1h.22A.56.56,0,0,1,24.47,89.49Zm.52-.17a.17.17,0,0,1-.15-.09h0A.17.17,0,0,1,25,89a.17.17,0,1,1,0,.35Z"/><path class="cls-70" d="M17.32,104.55a.26.26,0,0,0-.24.17H17a.67.67,0,0,0-.13-.31l.07-.07a.26.26,0,0,0,.29-.05.26.26,0,1,0-.41-.07l-.08.07a.65.65,0,0,0-.31-.13v-.1a.26.26,0,1,0-.17,0v.1a.65.65,0,0,0-.31.13l-.07-.07a.26.26,0,0,0,0-.29.25.25,0,0,0-.36,0,.25.25,0,0,0,0,.36.25.25,0,0,0,.29.05l.08.07a.64.64,0,0,0-.13.31h-.1a.25.25,0,0,0-.5.08.26.26,0,0,0,.5.08h.1a.63.63,0,0,0,.13.31l-.08.07a.26.26,0,0,0-.29,0,.25.25,0,0,0,0,.36.26.26,0,0,0,.41-.29l.07-.07a.63.63,0,0,0,.31.13v.1a.26.26,0,1,0,.17,0v-.1a.63.63,0,0,0,.31-.13l.08.07a.25.25,0,0,0,0,.29.26.26,0,0,0,.36-.36.26.26,0,0,0-.29,0l-.07-.07a.66.66,0,0,0,.13-.31h.1a.26.26,0,1,0,.24-.34Zm-.41-.57a.18.18,0,0,1,.25,0,.18.18,0,0,1-.17.29h-.12A.17.17,0,0,1,16.91,104Zm-1.1.17h-.12a.17.17,0,1,1,.07-.29A.17.17,0,0,1,15.8,104.16Zm-.28.66h0a.18.18,0,1,1-.15-.26.18.18,0,0,1,.15.09h0Zm.24.81a.17.17,0,0,1-.25,0,.18.18,0,0,1,.17-.29h.12A.17.17,0,0,1,15.76,105.63Zm1.11-.17H17a.18.18,0,0,1,.17.29.17.17,0,0,1-.25,0A.17.17,0,0,1,16.86,105.46Zm-.07-1a.59.59,0,0,1,.11.26h-.22a.39.39,0,0,0,0-.11Zm-.12-.12-.15.15-.11,0v-.22A.55.55,0,0,1,16.68,104.35Zm-.34.64a.18.18,0,1,1,.18-.18A.18.18,0,0,1,16.33,105Zm-.18-1.16a.18.18,0,0,1,.18-.18.17.17,0,0,1,.08.33h-.17A.17.17,0,0,1,16.16,103.82Zm.09.42v.22l-.11,0-.15-.15A.54.54,0,0,1,16.25,104.24Zm-.38.23.16.16a.36.36,0,0,0,0,.11h-.22A.57.57,0,0,1,15.87,104.47Zm0,.69a.57.57,0,0,1-.11-.26H16a.33.33,0,0,0,0,.1Zm.12.12.15-.16.11,0v.22A.58.58,0,0,1,16,105.27Zm.52.52a.17.17,0,0,1-.17.18.17.17,0,0,1-.18-.18.17.17,0,0,1,.09-.15h.17A.17.17,0,0,1,16.51,105.8Zm-.09-.42v-.22l.11,0,.15.16A.6.6,0,0,1,16.42,105.38Zm.38-.23-.16-.16a.35.35,0,0,0,0-.1h.22A.59.59,0,0,1,16.8,105.15Zm.52-.17a.17.17,0,0,1-.15-.09h0a.18.18,0,0,1,.15-.09.18.18,0,0,1,0,.35Z"/><path class="cls-70" d="M49.42,103.73a.26.26,0,0,0-.24.17h-.1a.63.63,0,0,0-.13-.31l.07-.07a.26.26,0,0,0,.29-.05.25.25,0,0,0,0-.36.26.26,0,0,0-.41.29l-.08.07a.64.64,0,0,0-.31-.13v-.1a.26.26,0,1,0-.34-.24.25.25,0,0,0,.17.24v.1a.65.65,0,0,0-.31.13L48,103.4a.26.26,0,0,0-.41-.29.26.26,0,0,0,.29.41l.07.07a.65.65,0,0,0-.13.31h-.1a.26.26,0,1,0,0,.17h.1a.64.64,0,0,0,.13.31l-.07.07a.26.26,0,0,0-.29.41.26.26,0,0,0,.41-.29l.08-.07a.63.63,0,0,0,.31.13v.1a.26.26,0,1,0,.34.24.26.26,0,0,0-.17-.24v-.1a.63.63,0,0,0,.31-.13l.08.07a.26.26,0,0,0,0,.29.26.26,0,0,0,.36-.36.26.26,0,0,0-.29,0l-.07-.07a.63.63,0,0,0,.13-.31h.1a.26.26,0,1,0,.24-.34Zm-.41-.57a.17.17,0,0,1,.25,0,.17.17,0,0,1-.17.29H49A.17.17,0,0,1,49,103.16Zm-1.1.17h-.12a.17.17,0,1,1,.08-.29A.18.18,0,0,1,47.9,103.34Zm-.28.66h0a.18.18,0,1,1,0-.17h0Zm.24.81a.17.17,0,0,1-.25,0,.17.17,0,0,1,.17-.29h.12A.18.18,0,0,1,47.86,104.81Zm1.11-.17h.12a.18.18,0,1,1-.12.12Zm-.07-1a.54.54,0,0,1,.11.26h-.22a.38.38,0,0,0,0-.11Zm-.12-.12-.16.15-.1,0v-.22A.55.55,0,0,1,48.78,103.52Zm-.34.64a.18.18,0,1,1,.17-.18A.18.18,0,0,1,48.43,104.16ZM48.26,103a.18.18,0,1,1,.26.15h-.17A.18.18,0,0,1,48.26,103Zm.09.42v.22l-.1,0-.16-.15A.55.55,0,0,1,48.35,103.41Zm-.38.23.16.15a.33.33,0,0,0,0,.11h-.22A.58.58,0,0,1,48,103.64Zm0,.69a.57.57,0,0,1-.11-.26h.22a.33.33,0,0,0,0,.1Zm.12.12.16-.16.1,0v.22A.58.58,0,0,1,48.09,104.45Zm.52.52a.18.18,0,0,1-.35,0,.18.18,0,0,1,.09-.15h.17A.17.17,0,0,1,48.61,105Zm-.09-.42v-.22l.1,0,.16.16A.58.58,0,0,1,48.52,104.56Zm.38-.23-.16-.15a.38.38,0,0,0,0-.1H49A.54.54,0,0,1,48.9,104.33Zm.52-.17a.17.17,0,0,1-.15-.09h0a.18.18,0,1,1,.15.26Z"/><path class="cls-70" d="M85.65,102.66a.59.59,0,0,0-.55.4h-.24a1.49,1.49,0,0,0-.29-.71l.17-.17a.59.59,0,1,0-.27-.27l-.17.17a1.47,1.47,0,0,0-.71-.29v-.24a.59.59,0,1,0-.39,0v.24a1.47,1.47,0,0,0-.71.29l-.17-.17a.59.59,0,1,0-.28.27l.17.17a1.5,1.5,0,0,0-.29.71h-.24a.59.59,0,1,0,0,.39h.24a1.5,1.5,0,0,0,.29.71l-.17.17a.59.59,0,0,0-.67.94.59.59,0,0,0,.95-.67l.17-.17a1.47,1.47,0,0,0,.71.29V105a.59.59,0,1,0,.39,0v-.24a1.47,1.47,0,0,0,.71-.29l.17.17a.59.59,0,1,0,.27-.27l-.17-.17a1.49,1.49,0,0,0,.29-.71h.24a.59.59,0,1,0,.55-.78Zm-.95-1.3a.4.4,0,1,1,.17.67h-.15l0,0,0,0h0v0h0v0h0v0h0v0h0v0A.4.4,0,0,1,84.7,101.36Zm-2.54.4v0h0v0h0v0h0v0h0v0h0v0l0,0h-.16a.4.4,0,0,1-.4-.67.4.4,0,0,1,.67.4Zm-.65,1.52h0v0h0v0h0v0h0v0h0v0h0v0h0v0a.4.4,0,1,1,0-.39v0h0v0h0v0h0v0h0v0h0v0h0v0h0v0Zm.55,1.87a.4.4,0,1,1-.17-.67H82l0,0v0h0v0h0v0h0v0h0v0h0v0h0v0A.4.4,0,0,1,82.06,105.14Zm2.54-.4v0h0v0h0v0h0v0h0v0h0v0h0l0,0,0,0h.15a.4.4,0,1,1-.27.27Zm-.15-2.28a1.33,1.33,0,0,1,.25.6h-.51a.77.77,0,0,0-.1-.24Zm-.27-.27-.36.36a.74.74,0,0,0-.24-.1v-.51A1.35,1.35,0,0,1,84.17,102.19Zm-.79,1.47a.4.4,0,1,1,.4-.4A.41.41,0,0,1,83.38,103.66ZM83,101a.4.4,0,1,1,.6.35h-.39A.4.4,0,0,1,83,101Zm.21,1v.51a.77.77,0,0,0-.24.1l-.36-.36A1.36,1.36,0,0,1,83.19,101.94Zm-.87.52.36.36a.78.78,0,0,0-.1.24h-.5A1.34,1.34,0,0,1,82.32,102.46Zm0,1.58a1.34,1.34,0,0,1-.25-.6h.5a.8.8,0,0,0,.1.24Zm.27.27.36-.36a.81.81,0,0,0,.24.1v.51A1.34,1.34,0,0,1,82.59,104.32Zm1.19,1.2a.4.4,0,1,1-.6-.35h.39A.41.41,0,0,1,83.79,105.52Zm-.21-1v-.51a.77.77,0,0,0,.24-.1l.36.36A1.33,1.33,0,0,1,83.58,104.56Zm.87-.52-.36-.36a.79.79,0,0,0,.1-.24h.51A1.33,1.33,0,0,1,84.45,104Zm1.2-.39a.4.4,0,0,1-.35-.21v0h0v0h0v0h0v0h0v0h0v0h0v0h0v0h0v0h0v0h0v0h0v0h0v0h0v0h0v0a.4.4,0,0,1,.35-.21.4.4,0,0,1,0,.81Z"/><path class="cls-70" d="M117.15,113.4a1,1,0,0,0-.9.64h-.39a2.42,2.42,0,0,0-.48-1.16l.28-.28a1,1,0,1,0-.45-.44l-.28.28a2.4,2.4,0,0,0-1.16-.48v-.39a1,1,0,1,0-.63,0V112a2.4,2.4,0,0,0-1.15.48l-.28-.28a1,1,0,1,0-.44.44l.28.28a2.39,2.39,0,0,0-.48,1.16h-.39a1,1,0,1,0,0,.63h.39a2.4,2.4,0,0,0,.48,1.16l-.28.27a1,1,0,1,0,.44.45l.28-.28a2.39,2.39,0,0,0,1.15.48v.39a1,1,0,1,0,.63,0v-.39a2.39,2.39,0,0,0,1.16-.48l.28.28a1,1,0,1,0,.45-.45l-.28-.27a2.43,2.43,0,0,0,.48-1.16h.39a1,1,0,1,0,.9-1.27Zm-1.54-2.11a.65.65,0,1,1,.28,1.09h-.11l0,0h0l0,0h0l0,0h0l0,0h0l0,0,0,0h0l0,0h0l0,0h0l0,0h0l0,0h0v0h0v0h0v0A.65.65,0,0,1,115.61,111.29Zm-4.12.64v0h0v0h0v0h0l0,0h0l0,0h0l0,0h0l0,0h0l0,0,0,0h0l0,0h0l0,0h0l0,0h0l0,0H111a.65.65,0,1,1,.45-.44Zm-1.05,2.46h0a.17.17,0,0,1,0,0h0v0h0v0h0v0h0v0h0v0h0l0,0a.65.65,0,1,1,0-.63l0,0h0v0h0v0h0v0h0v0h0v0h0a.15.15,0,0,1,0,0h0v.08Zm.89,3a.65.65,0,1,1-.28-1.09h.12l0,0h0l0,0h0l0,0h0l0,0h0l0,0,0,0h0l0,0h0l0,0h0l0,0h0l0,0h0v0h0v0h0v0A.65.65,0,0,1,111.33,117.42Zm4.12-.64v0h0v0h0v0h0l0,0h0l0,0h0l0,0h0l0,0h0l0,0,0,0h0l0,0h0l0,0h0l0,0h0l0,0h.11a.65.65,0,1,1-.45.44Zm-.25-3.71a2.15,2.15,0,0,1,.4,1h-.82a1.28,1.28,0,0,0-.16-.39Zm-.45-.45-.58.58a1.33,1.33,0,0,0-.39-.16v-.82A2.14,2.14,0,0,1,114.75,112.63ZM113.47,115a.65.65,0,1,1,.65-.65A.66.66,0,0,1,113.47,115Zm-.65-4.34a.65.65,0,1,1,1,.57l0,0h-.56l0,0A.65.65,0,0,1,112.82,110.67Zm.34,1.55V113a1.33,1.33,0,0,0-.39.16l-.58-.58A2.13,2.13,0,0,1,113.16,112.23Zm-1.41.85.58.58a1.3,1.3,0,0,0-.16.39h-.82A2.14,2.14,0,0,1,111.74,113.07Zm0,2.57a2.13,2.13,0,0,1-.4-1h.82a1.3,1.3,0,0,0,.16.39Zm.44.45.58-.58a1.33,1.33,0,0,0,.39.16v.82A2.14,2.14,0,0,1,112.19,116.08Zm1.94,2a.65.65,0,1,1-1-.57l0,0h.56l0,0A.65.65,0,0,1,114.12,118Zm-.34-1.55v-.82a1.32,1.32,0,0,0,.39-.16l.58.58A2.15,2.15,0,0,1,113.78,116.49Zm1.41-.85-.58-.58a1.29,1.29,0,0,0,.16-.39h.82A2.14,2.14,0,0,1,115.2,115.64Zm2-.63a.66.66,0,0,1-.57-.34l0,0h0v0h0v0h0v0h0v0h0v0h0a.1.1,0,0,0,0,0h0s0,0,0,0,0,0,0,0h0a.12.12,0,0,0,0,0h0v0h0v0h0v0h0v0h0v0h0l0,0a.66.66,0,0,1,.57-.34.65.65,0,1,1,0,1.3Z"/><path class="cls-70" d="M15.38,88.87a1,1,0,0,0-.9.64h-.39a2.41,2.41,0,0,0-.48-1.16l.28-.27a1,1,0,1,0-.44-.45l-.28.27A2.41,2.41,0,0,0,12,87.43V87a1,1,0,1,0-.63,0v.39a2.4,2.4,0,0,0-1.15.48l-.28-.28a1,1,0,1,0-.44.45l.27.27a2.41,2.41,0,0,0-.48,1.16H8.91a1,1,0,1,0,0,.63H9.3a2.4,2.4,0,0,0,.48,1.16l-.27.28a1,1,0,1,0,.44.44l.28-.28a2.4,2.4,0,0,0,1.15.48v.39a1,1,0,1,0,.63,0v-.39a2.41,2.41,0,0,0,1.16-.48l.28.28a1,1,0,1,0,.44-.44l-.28-.28a2.39,2.39,0,0,0,.48-1.16h.39a1,1,0,1,0,.9-1.27Zm-1.54-2.11a.65.65,0,1,1,.28,1.09H14l0,0h0l0,0h0l0,0h0l0,0h0l0,0,0,0h0l0,0h0l0,0h0l0,0h0l0,0h0v0h0v0h0v0A.65.65,0,0,1,13.84,86.76Zm-4.12.64v0h0v0h0v0h0l0,0h0l0,0h0l0,0h0l0,0h0l0,0,0,0h0l0,0h0l0,0h0l0,0h0l0,0H9.27a.65.65,0,1,1,.44-.44ZM8.66,89.87h0v0h0v0h0v0h0v0h0v0h0v0h0l0,0a.65.65,0,1,1,0-.63l0,0h0v0h0v0h0v0h0v0h0v0h0v0h0s0,0,0,0S8.66,89.85,8.66,89.87Zm.89,3a.65.65,0,1,1-.28-1.09h.12l0,0h0l0,0h0l0,0h0l0,0h0l0,0,0,0h0l0,0h0l0,0h0l0,0h0l0,0h0v0h0v0h0v0A.65.65,0,0,1,9.55,92.89Zm4.12-.64v0h0v0h0v0h0l0,0h0l0,0h0l0,0h0l0,0h0l0,0,0,0h0l0,0h0l0,0h0l0,0h0l0,0h.11a.65.65,0,1,1-.45.44Zm-.25-3.71a2.15,2.15,0,0,1,.4,1H13a1.32,1.32,0,0,0-.16-.39ZM13,88.1l-.58.58a1.37,1.37,0,0,0-.39-.16V87.7A2.14,2.14,0,0,1,13,88.1ZM11.7,90.48a.66.66,0,1,1,.65-.66A.65.65,0,0,1,11.7,90.48ZM11,86.14a.65.65,0,1,1,1,.57l0,0h-.56l0,0A.65.65,0,0,1,11,86.14Zm.34,1.55v.82a1.37,1.37,0,0,0-.39.16l-.58-.58A2.15,2.15,0,0,1,11.38,87.7ZM10,88.54l.58.58a1.38,1.38,0,0,0-.16.39H9.56A2.14,2.14,0,0,1,10,88.54Zm0,2.57a2.14,2.14,0,0,1-.4-1h.82a1.37,1.37,0,0,0,.16.39Zm.45.44L11,91a1.32,1.32,0,0,0,.39.16V92A2.11,2.11,0,0,1,10.41,91.56Zm1.94,2a.65.65,0,1,1-1-.57l0,0H12l0,0A.66.66,0,0,1,12.35,93.51ZM12,92v-.82A1.32,1.32,0,0,0,12.4,91l.58.58A2.11,2.11,0,0,1,12,92Zm1.41-.85-.58-.58a1.31,1.31,0,0,0,.16-.39h.82A2.15,2.15,0,0,1,13.42,91.11Zm2-.63a.65.65,0,0,1-.57-.34l0,0h0v0h0v0h0v0h0v0h0v0h0v0h0a.26.26,0,0,1,0,0,.24.24,0,0,1,0,0h0v0h0a.1.1,0,0,1,0,0h0v0h0v0h0v0h0v0h0l0,0a.65.65,0,1,1,.57,1Z"/><path class="cls-70" d="M141.65,99.3a1,1,0,0,0-.9.64h-.39a2.41,2.41,0,0,0-.48-1.16l.28-.28a1,1,0,1,0-.44-.44l-.28.28a2.38,2.38,0,0,0-1.16-.48v-.39a1,1,0,1,0-.63,0v.39a2.38,2.38,0,0,0-1.15.48l-.28-.28a1,1,0,1,0-.45.44l.28.28a2.39,2.39,0,0,0-.48,1.16h-.39a1,1,0,1,0,0,.63h.39a2.39,2.39,0,0,0,.48,1.15l-.28.28a1,1,0,1,0,.45.44l.28-.28a2.41,2.41,0,0,0,1.15.48V103a1,1,0,1,0,.63,0v-.39a2.41,2.41,0,0,0,1.16-.48l.28.28a1,1,0,1,0,.44-.44l-.28-.28a2.42,2.42,0,0,0,.48-1.15h.39a1,1,0,1,0,.9-1.27Zm-1.54-2.11a.65.65,0,1,1,.28,1.09h-.12l0,0h0l0,0h0l0,0h0l0,0h0l0,0,0,0h0l0,0h0l0,0h0l0,0h0l0,0h0v0h0v0h0v0A.65.65,0,0,1,140.11,97.18Zm-4.12.64v0h0v0h0v0h0l0,0h0l0,0h0l0,0h0l0,0h0l0,0,0,0h0l0,0h0l0,0h0l0,0h0l0,0h-.12a.65.65,0,1,1,.28-1.09A.65.65,0,0,1,136,97.83Zm-1.05,2.46h0a.13.13,0,0,1,0,0h0v0h0v0h0v0h0v0h0v0h0l0,0a.65.65,0,1,1,0-.63l0,0h0v0h0v0h0v0h0v0h0v0h0a.14.14,0,0,1,0,0h0v.08Zm.89,3a.65.65,0,1,1-.28-1.09h.12l0,0h0l0,0h0l0,0h0l0,0h0l0,0,0,0h0l0,0h0l0,0h0l0,0h0l0,0h0v0h0v0h0v0A.65.65,0,0,1,135.82,103.32Zm4.12-.64v0h0v0h0v0h0l0,0h0l0,0h0l0,0h0l0,0h0l0,0,0,0h0l0,0h0l0,0h0l0,0h0l0,0h.12a.65.65,0,1,1-.45.45ZM139.7,99a2.14,2.14,0,0,1,.4,1h-.82a1.31,1.31,0,0,0-.16-.39Zm-.44-.45-.58.58a1.37,1.37,0,0,0-.39-.16v-.82A2.18,2.18,0,0,1,139.25,98.52ZM138,100.9a.65.65,0,1,1,.65-.65A.66.66,0,0,1,138,100.9Zm-.65-4.34a.65.65,0,1,1,1,.57l0,0h-.56l0,0A.65.65,0,0,1,137.31,96.57Zm.34,1.55v.82a1.39,1.39,0,0,0-.39.16l-.58-.58A2.16,2.16,0,0,1,137.65,98.12Zm-1.41.85.58.58a1.34,1.34,0,0,0-.16.39h-.82A2.17,2.17,0,0,1,136.24,99Zm0,2.57a2.17,2.17,0,0,1-.4-1h.82a1.36,1.36,0,0,0,.16.39Zm.45.45.58-.58a1.29,1.29,0,0,0,.39.16v.82A2.15,2.15,0,0,1,136.68,102Zm1.94,2a.65.65,0,1,1-1-.57l0,0h.56l0,0A.65.65,0,0,1,138.62,103.94Zm-.34-1.56v-.82a1.28,1.28,0,0,0,.39-.16l.58.58A2.17,2.17,0,0,1,138.28,102.38Zm1.41-.85-.58-.58a1.33,1.33,0,0,0,.16-.39h.82A2.14,2.14,0,0,1,139.7,101.53Zm2-.63a.66.66,0,0,1-.57-.34l0,0h0v0h0v0h0v0h0v0h0v0h0v0h0v-.08h0a.14.14,0,0,1,0,0h0v0h0v0h0v0h0v0h0v0h0l0,0a.65.65,0,1,1,.57,1Z"/><path class="cls-70" d="M73.53,113.7a.65.65,0,0,0-.62.44h-.27a1.62,1.62,0,0,0-.33-.79l.19-.19a.65.65,0,1,0-.31-.3L72,113a1.64,1.64,0,0,0-.79-.33v-.27a.65.65,0,1,0-.43,0v.27A1.63,1.63,0,0,0,70,113l-.19-.19a.65.65,0,1,0-.3.3l.19.19a1.65,1.65,0,0,0-.33.79H69.1a.65.65,0,1,0,0,.43h.27a1.66,1.66,0,0,0,.33.79l-.19.19a.65.65,0,1,0,.3.31l.19-.19a1.65,1.65,0,0,0,.79.33v.27a.65.65,0,1,0,.43,0V116a1.66,1.66,0,0,0,.79-.33l.19.19a.65.65,0,1,0,.31-.31l-.19-.19a1.63,1.63,0,0,0,.33-.79h.27a.65.65,0,1,0,.62-.87Zm-1.05-1.45a.45.45,0,1,1,.19.75h-.17l0,0,0,0h0v0h0v0h0v0h0v0h0v0h0v0h0v0A.44.44,0,0,1,72.47,112.26Zm-2.82.44v0h0v0h0v0h0v0h0v0h0v0h0v0h0l0,0,0,0h0l0,0h-.1a.45.45,0,1,1,.19-.75A.44.44,0,0,1,69.65,112.7Zm-.72,1.68h0v0h0v0h0v0h0v0h0v0h0v0h0v0a.45.45,0,1,1,0-.43v0h0v0h0v0h0v0h0v0h0v0h0v0h0v.05Zm.61,2.07a.45.45,0,1,1-.19-.75h.17l0,0,0,0h0v0h0v0h0v0h0v0h0v0h0v0h0v0A.44.44,0,0,1,69.54,116.45Zm2.82-.44v0h0v0h0v0h0v0h0v0h0v0h0v0h0l0,0,0,0h.17a.45.45,0,1,1-.3.3Zm-.17-2.54a1.45,1.45,0,0,1,.27.66H71.9a.81.81,0,0,0-.11-.27Zm-.3-.3-.4.4a.86.86,0,0,0-.26-.11v-.56A1.46,1.46,0,0,1,71.88,113.17ZM71,114.8a.45.45,0,1,1,.45-.45A.45.45,0,0,1,71,114.8Zm-.45-3a.45.45,0,1,1,.66.39h-.43A.45.45,0,0,1,70.56,111.84Zm.23,1.06v.56a.85.85,0,0,0-.27.11l-.4-.4A1.46,1.46,0,0,1,70.79,112.9Zm-1,.58.4.4a.91.91,0,0,0-.11.27h-.56A1.46,1.46,0,0,1,69.82,113.48Zm0,1.76a1.46,1.46,0,0,1-.27-.66h.56a.94.94,0,0,0,.11.27Zm.3.31.4-.4a1,1,0,0,0,.27.11v.56A1.48,1.48,0,0,1,70.13,115.54Zm1.33,1.34a.45.45,0,1,1-.66-.39h.43A.45.45,0,0,1,71.45,116.88Zm-.23-1.06v-.56a1,1,0,0,0,.26-.11l.4.4A1.48,1.48,0,0,1,71.22,115.81Zm1-.58-.4-.4a.84.84,0,0,0,.11-.27h.56A1.45,1.45,0,0,1,72.19,115.23Zm1.34-.43a.44.44,0,0,1-.39-.23v0h0v0h0v0h0v0h0v0h0v0h0a0,0,0,0,1,0,0h0v-.05h0a0,0,0,0,1,0,0h0v0h0v0h0v0h0v0h0v0h0v0a.45.45,0,1,1,.39.66Z"/><path class="cls-70" d="M30,98.76a.65.65,0,0,0-.62.44h-.27a1.64,1.64,0,0,0-.33-.79l.19-.19a.65.65,0,1,0-.3-.3l-.19.19a1.64,1.64,0,0,0-.79-.33v-.27a.65.65,0,1,0-.43,0v.27a1.64,1.64,0,0,0-.79.33l-.19-.19a.66.66,0,1,0-.31.3l.19.19a1.63,1.63,0,0,0-.33.79h-.27a.65.65,0,1,0,0,.43h.27a1.61,1.61,0,0,0,.33.79l-.19.19a.65.65,0,1,0,.31.3l.19-.19a1.65,1.65,0,0,0,.79.33v.27a.65.65,0,1,0,.43,0v-.27a1.66,1.66,0,0,0,.79-.33l.19.19a.65.65,0,1,0,.3-.3l-.19-.19a1.62,1.62,0,0,0,.33-.79h.27a.65.65,0,1,0,.62-.87ZM29,97.32a.45.45,0,1,1,.19.74H29l0,0,0,0h0v0h0l0,0h0v0h0v0h0v0h0v0A.45.45,0,0,1,29,97.32Zm-2.82.44v0h0v0h0v0h0v0h0v0h0v0h0v0h0l0,0,0,0h0l0,0h-.1a.45.45,0,1,1,.3-.31Zm-.72,1.68h0a.07.07,0,0,0,0,0h0v0h0a.08.08,0,0,0,0,0h0v0h0v0h0v0h0v0a.45.45,0,1,1,0-.43v0h0v0h0v0h0v0h0a.08.08,0,0,0,0,0h0v0h0a.06.06,0,0,0,0,0h0v.05Zm.61,2.07a.45.45,0,1,1-.19-.75H26l0,0,0,0h0v0h0v0h0v0h0v0h0v0h0v0A.45.45,0,0,1,26.06,101.52Zm2.82-.44v0h0v0h0v0h0v0h0l0,0h0v0h0l0,0,0,0h.17a.45.45,0,1,1-.31.3Zm-.17-2.54a1.47,1.47,0,0,1,.28.66h-.56a.94.94,0,0,0-.11-.27Zm-.3-.3-.4.4a.92.92,0,0,0-.27-.11V98A1.47,1.47,0,0,1,28.41,98.24Zm-.88,1.63a.45.45,0,1,1,.45-.45A.45.45,0,0,1,27.53,99.87Zm-.45-3a.45.45,0,0,1,.89,0,.45.45,0,0,1-.23.39h-.43A.45.45,0,0,1,27.08,96.9ZM27.31,98v.56a.91.91,0,0,0-.27.11l-.4-.4A1.44,1.44,0,0,1,27.31,98Zm-1,.58.4.4a.93.93,0,0,0-.11.27h-.56A1.43,1.43,0,0,1,26.34,98.54Zm0,1.76a1.44,1.44,0,0,1-.27-.66h.56a.93.93,0,0,0,.11.27Zm.3.3.4-.4a.93.93,0,0,0,.27.11v.56A1.47,1.47,0,0,1,26.65,100.6ZM28,101.94a.45.45,0,1,1-.66-.39h.43A.45.45,0,0,1,28,101.94Zm-.23-1.06v-.56a.94.94,0,0,0,.27-.11l.4.4A1.5,1.5,0,0,1,27.74,100.88Zm1-.58-.4-.4a.94.94,0,0,0,.11-.27H29A1.48,1.48,0,0,1,28.71,100.3ZM30,99.87a.44.44,0,0,1-.39-.23v0h0v0h0v0h0v0h0v0h0v0h0a0,0,0,0,0,0,0h0v-.05h0a0,0,0,0,0,0,0h0v0h0v0h0v0h0v0h0v0h0v0A.44.44,0,0,1,30,99a.45.45,0,1,1,0,.89Z"/><path class="cls-70" d="M45.55,126.79a.65.65,0,0,0-.62.44h-.27a1.65,1.65,0,0,0-.33-.79l.19-.19a.65.65,0,1,0-.3-.3l-.19.19a1.65,1.65,0,0,0-.79-.33v-.27a.65.65,0,1,0-.43,0v.27a1.64,1.64,0,0,0-.79.33l-.19-.19a.65.65,0,1,0-.3.3l.19.19a1.64,1.64,0,0,0-.33.79h-.27a.65.65,0,0,0-1.27.21.65.65,0,0,0,1.27.22h.27a1.65,1.65,0,0,0,.33.79l-.19.19a.65.65,0,1,0,.3.3l.19-.19a1.63,1.63,0,0,0,.79.33v.27a.65.65,0,1,0,.43,0v-.27a1.64,1.64,0,0,0,.79-.33l.19.19a.65.65,0,1,0,.3-.3l-.19-.19a1.66,1.66,0,0,0,.33-.79h.27a.65.65,0,1,0,.62-.87Zm-1.05-1.45a.45.45,0,1,1,.19.75h-.17l0,0,0,0h0v0h0v0h0v0h0v0h0v0h0v0A.45.45,0,0,1,44.5,125.34Zm-2.82.44v0h0v0h0v0h0v0h0v0h0v0h0v0h0l0,0,0,0h-.17a.45.45,0,1,1,.3-.3ZM41,127.47h0v0h0v0h0v0h0v0h0v0h0v0h0v0a.45.45,0,1,1,0-.43v0h0v0h0v0h0v0h0v0h0v0h0v0h0v.05Zm.61,2.07a.45.45,0,1,1-.19-.75h.17l0,0,0,0h0v0h0v0h0v0h0v0h0v0h0v0A.44.44,0,0,1,41.56,129.54Zm2.82-.44v0h0v0h0v0h0v0h0v0h0v0h0l0,0,0,0h.17a.45.45,0,1,1-.3.3Zm-.17-2.54a1.48,1.48,0,0,1,.28.66h-.56a.92.92,0,0,0-.11-.26Zm-.3-.3-.4.4a.9.9,0,0,0-.26-.11V126A1.47,1.47,0,0,1,43.91,126.26ZM43,127.89a.45.45,0,1,1,.45-.45A.45.45,0,0,1,43,127.89Zm-.45-3a.45.45,0,1,1,.66.39h-.43A.45.45,0,0,1,42.58,124.92Zm.23,1.06v.56a.91.91,0,0,0-.27.11l-.4-.4A1.45,1.45,0,0,1,42.81,126Zm-1,.58.4.4a.92.92,0,0,0-.11.26h-.56A1.49,1.49,0,0,1,41.84,126.56Zm0,1.76a1.48,1.48,0,0,1-.27-.66h.56a1,1,0,0,0,.11.27Zm.31.3.4-.4a.88.88,0,0,0,.27.11v.56A1.43,1.43,0,0,1,42.15,128.63ZM43.48,130a.45.45,0,1,1-.66-.39h.43A.45.45,0,0,1,43.48,130Zm-.23-1.06v-.56a.88.88,0,0,0,.26-.11l.4.4A1.46,1.46,0,0,1,43.24,128.9Zm1-.58-.4-.4a1,1,0,0,0,.11-.27h.56A1.48,1.48,0,0,1,44.21,128.32Zm1.34-.43a.45.45,0,0,1-.39-.23v0h0v0h0v0h0v0h0v0h0a.08.08,0,0,1,0,0h0v0h0v-.05h0v0h0a.06.06,0,0,1,0,0h0v0h0v0h0v0h0v0h0v0a.45.45,0,1,1,.39.66Z"/><path class="cls-70" d="M112.82,97.62a.65.65,0,0,0-.62.44h-.27a1.64,1.64,0,0,0-.32-.79l.19-.19a.65.65,0,1,0-.3-.31l-.19.19a1.65,1.65,0,0,0-.79-.33v-.27a.65.65,0,1,0-.43,0v.27a1.66,1.66,0,0,0-.79.33l-.19-.19a.65.65,0,1,0-.3.31l.19.19a1.66,1.66,0,0,0-.33.79h-.27a.65.65,0,1,0,0,.43h.27a1.66,1.66,0,0,0,.33.79l-.19.19a.65.65,0,1,0,.3.3l.19-.19a1.64,1.64,0,0,0,.79.33v.27a.65.65,0,1,0,.43,0v-.27a1.63,1.63,0,0,0,.79-.33l.19.19a.65.65,0,1,0,.3-.3l-.19-.19a1.63,1.63,0,0,0,.32-.79h.27a.65.65,0,1,0,.62-.87Zm-1.05-1.44a.45.45,0,1,1,.19.74h-.17l0,0,0,0h0v0h0v0h0v0h0v0h0v0h0v0A.45.45,0,0,1,111.76,96.17Zm-2.82.44v0h0v0h0v0h0v0h0v0h0v0h0l0,0,0,0h-.17a.45.45,0,1,1,.3-.3Zm-.72,1.68h0a.06.06,0,0,1,0,0h0v0h0v0h0v0h0v0h0v0h0v0a.45.45,0,1,1,0-.43v0h0v0h0v0h0v0h0v0h0v0h0a.06.06,0,0,1,0,0h0v.05Zm.61,2.07a.45.45,0,1,1-.19-.74h.17l0,0,0,0h0v0h0v0h0v0h0v0h0v0h0v0h0v0A.45.45,0,0,1,108.83,100.37Zm2.82-.44v0h0v0h0v0h0v0h0v0h0v0h0v0h0l0,0,0,0H112a.45.45,0,1,1-.3.3Zm-.17-2.54a1.46,1.46,0,0,1,.27.66h-.56a.92.92,0,0,0-.11-.27Zm-.3-.3-.4.4a.94.94,0,0,0-.26-.11v-.56A1.49,1.49,0,0,1,111.18,97.09Zm-.88,1.63a.45.45,0,1,1,.45-.45A.45.45,0,0,1,110.29,98.72Zm-.45-3a.45.45,0,0,1,.89,0,.45.45,0,0,1-.23.39h-.43A.45.45,0,0,1,109.85,95.75Zm.23,1.06v.56a.94.94,0,0,0-.27.11l-.4-.4A1.47,1.47,0,0,1,110.08,96.82Zm-1,.58.4.4a.91.91,0,0,0-.11.27h-.56A1.48,1.48,0,0,1,109.11,97.39Zm0,1.76a1.48,1.48,0,0,1-.27-.66h.56a.91.91,0,0,0,.11.27Zm.31.31.4-.4a.92.92,0,0,0,.27.11v.56A1.47,1.47,0,0,1,109.42,99.46Zm1.33,1.34a.45.45,0,1,1-.66-.39h.43A.45.45,0,0,1,110.74,100.79Zm-.23-1.06v-.56a.93.93,0,0,0,.26-.11l.4.4A1.49,1.49,0,0,1,110.51,99.73Zm1-.58-.4-.4a.92.92,0,0,0,.11-.27h.56A1.46,1.46,0,0,1,111.48,99.15Zm1.34-.43a.45.45,0,0,1-.39-.23v0h0v0h0v0h0v0h0v0h0v0h0v0h0a.11.11,0,0,1,0,0,.14.14,0,0,1,0,0h0v0h0v0h0v0h0v0h0v0h0v0h0v0a.45.45,0,1,1,.39.66Z"/><path class="cls-70" d="M131,115.46a.65.65,0,0,0-.62.44h-.27a1.64,1.64,0,0,0-.33-.79l.19-.19a.65.65,0,1,0-.3-.3l-.19.19a1.66,1.66,0,0,0-.79-.33v-.27a.65.65,0,1,0-.43,0v.27a1.67,1.67,0,0,0-.79.33l-.19-.19a.65.65,0,1,0-.3.3l.19.19a1.64,1.64,0,0,0-.33.79h-.27a.65.65,0,1,0,0,.43h.27a1.65,1.65,0,0,0,.33.79l-.19.19a.65.65,0,1,0,.3.3l.19-.19a1.66,1.66,0,0,0,.79.33V118a.65.65,0,1,0,.43,0v-.27a1.65,1.65,0,0,0,.79-.33l.19.19a.65.65,0,1,0,.3-.3l-.19-.19a1.65,1.65,0,0,0,.33-.79h.27a.65.65,0,1,0,.62-.87ZM129.91,114a.45.45,0,1,1,.19.74H130l0,0h0l0,0,0,0h0v0h0v0h0v0h0v0h0v0h0v0A.44.44,0,0,1,129.91,114Zm-2.82.44v0h0v0h0v0h0v0h0l0,0h0v0h0l0,0,0,0h0l0,0h-.1a.45.45,0,1,1,.3-.3Zm-.72,1.68h0v0h0v0h0v0h0v0h0v0h0v0h0v0a.45.45,0,1,1,0-.43v0h0v0h0v0h0v0h0v0h0v0h0v0h0v.05Zm.61,2.07a.45.45,0,0,1-.63-.63.45.45,0,0,1,.44-.11H127l0,0,0,0h0v0h0l0,0h0v0h0v0h0v0h0v0A.45.45,0,0,1,127,118.21Zm2.82-.44v0h0v0h0v0h0v0h0v0h0v0h0l0,0,0,0h.17a.45.45,0,1,1-.19.74A.44.44,0,0,1,129.8,117.77Zm-.17-2.54a1.5,1.5,0,0,1,.28.66h-.56a.84.84,0,0,0-.11-.27Zm-.31-.3-.4.4a1,1,0,0,0-.27-.11v-.56A1.45,1.45,0,0,1,129.32,114.93Zm-.88,1.63a.45.45,0,1,1,.45-.45A.45.45,0,0,1,128.45,116.56Zm-.45-3a.45.45,0,1,1,.66.39h-.43A.44.44,0,0,1,128,113.59Zm.23,1.06v.56a1,1,0,0,0-.27.11l-.4-.4A1.47,1.47,0,0,1,128.23,114.65Zm-1,.58.4.4a1,1,0,0,0-.11.27H127A1.47,1.47,0,0,1,127.26,115.23Zm0,1.76a1.46,1.46,0,0,1-.27-.66h.56a1,1,0,0,0,.11.27Zm.3.3.4-.4a1,1,0,0,0,.27.11v.56A1.46,1.46,0,0,1,127.57,117.29Zm1.33,1.34a.45.45,0,1,1-.66-.39h.43A.45.45,0,0,1,128.89,118.63Zm-.23-1.07V117a1,1,0,0,0,.27-.11l.4.4A1.45,1.45,0,0,1,128.66,117.57Zm1-.58-.4-.4a.86.86,0,0,0,.11-.27h.56A1.48,1.48,0,0,1,129.63,117Zm1.34-.43a.44.44,0,0,1-.39-.23v0h0v0h0v0h0v0h0v0h0v0h0a.06.06,0,0,1,0,0h0a.09.09,0,0,1,0,0,.08.08,0,0,1,0,0h0a.06.06,0,0,1,0,0h0v0h0v0h0v0h0v0h0v0h0v0a.45.45,0,1,1,.39.66Z"/><path class="cls-70" d="M93.82,112.52a.39.39,0,0,0-.37.26h-.16a1,1,0,0,0-.2-.47l.11-.11A.39.39,0,1,0,93,112l-.11.11a1,1,0,0,0-.47-.2v-.16a.39.39,0,1,0-.26,0v.16a1,1,0,0,0-.47.2l-.11-.11a.39.39,0,1,0-.18.18l.11.11a1,1,0,0,0-.19.47h-.16a.39.39,0,1,0,0,.25h.16a1,1,0,0,0,.19.47l-.11.11a.39.39,0,1,0,.18.18l.11-.11a1,1,0,0,0,.47.2V114a.39.39,0,1,0,.26,0v-.16a1,1,0,0,0,.47-.2l.11.11a.39.39,0,1,0,.18-.18l-.11-.11a1,1,0,0,0,.2-.47h.16a.39.39,0,1,0,.37-.52Zm-.63-.86a.27.27,0,1,1,.11.44h-.18A.26.26,0,0,1,93.19,111.66Zm-1.68.26v0h-.18a.26.26,0,1,1,.18-.18Zm-.43,1h0v0h0a.27.27,0,1,1,0-.25h0v0h0Zm.36,1.23a.27.27,0,1,1-.11-.44h.18v0A.26.26,0,0,1,91.45,114.15Zm1.68-.26v0h.18a.26.26,0,1,1-.18.18Zm-.1-1.51a.86.86,0,0,1,.16.39h-.33a.51.51,0,0,0-.07-.16Zm-.18-.18-.24.24-.16-.06V112A.86.86,0,0,1,92.84,112.2Zm-.52,1a.27.27,0,1,1,.27-.27A.27.27,0,0,1,92.32,113.17Zm-.27-1.76a.27.27,0,1,1,.4.23h-.26A.26.26,0,0,1,92.05,111.41Zm.14.63v.33a.54.54,0,0,0-.16.06l-.24-.24A.86.86,0,0,1,92.19,112Zm-.58.34.24.24a.56.56,0,0,0-.07.16h-.33A.91.91,0,0,1,91.62,112.38Zm0,1a.91.91,0,0,1-.16-.39h.33a.56.56,0,0,0,.07.16Zm.18.18.24-.24.16.07v.33A.86.86,0,0,1,91.8,113.61Zm.79.8a.27.27,0,1,1-.39-.23h.26A.27.27,0,0,1,92.59,114.4Zm-.14-.63v-.33l.16-.07.24.24A.86.86,0,0,1,92.45,113.77Zm.57-.34-.24-.24a.51.51,0,0,0,.07-.16h.33A.87.87,0,0,1,93,113.43Zm.8-.26a.26.26,0,0,1-.23-.14h0a0,0,0,0,1,0,0h0v0h0a0,0,0,0,1,0,0h0a.26.26,0,0,1,.5.13A.27.27,0,0,1,93.82,113.17Z"/><path class="cls-70" d="M59.92,114.4a.38.38,0,0,0-.37.26h-.16a1,1,0,0,0-.2-.47l.11-.11a.39.39,0,1,0-.18-.18L59,114a1,1,0,0,0-.47-.19v-.16a.39.39,0,1,0-.26,0v.16a1,1,0,0,0-.47.19l-.11-.11a.39.39,0,1,0-.18.18l.11.11a1,1,0,0,0-.2.47h-.16a.39.39,0,1,0,0,.26h.16a1,1,0,0,0,.2.47l-.11.11a.39.39,0,0,0-.44.08.39.39,0,1,0,.62.11l.11-.11a1,1,0,0,0,.47.2v.16a.39.39,0,0,0,.13.75.39.39,0,0,0,.13-.75v-.16a1,1,0,0,0,.47-.2l.11.11a.39.39,0,0,0,.62.44.38.38,0,0,0,0-.55.39.39,0,0,0-.44-.08l-.11-.11a1,1,0,0,0,.2-.47h.16a.39.39,0,1,0,.37-.52Zm-.63-.86a.27.27,0,1,1,.11.44h-.17v0A.26.26,0,0,1,59.29,113.54Zm-1.68.26v0h-.18a.27.27,0,1,1,.11-.44A.26.26,0,0,1,57.61,113.81Zm-.43,1h0v0h0v0h0a.27.27,0,0,1-.23.14.27.27,0,1,1,.23-.39h0v0h0v0Zm.36,1.23a.27.27,0,1,1-.38-.38.27.27,0,0,1,.26-.07h.18v0A.26.26,0,0,1,57.55,116Zm1.68-.26v0h.17a.27.27,0,0,1,.26.07.27.27,0,1,1-.44.11Zm-.1-1.51a.88.88,0,0,1,.16.39H59a.59.59,0,0,0-.06-.16Zm-.18-.18-.24.24a.54.54,0,0,0-.16-.07v-.33A.88.88,0,0,1,58.94,114.09Zm-.52,1a.27.27,0,1,1,.26-.27A.27.27,0,0,1,58.42,115.06Zm-.27-1.77a.27.27,0,1,1,.39.23h-.26A.26.26,0,0,1,58.15,113.29Zm.14.63v.33l-.16.07-.24-.24A.88.88,0,0,1,58.29,113.92Zm-.58.34.24.24a.57.57,0,0,0-.07.16h-.33A.88.88,0,0,1,57.72,114.27Zm0,1a.87.87,0,0,1-.16-.39h.33a.56.56,0,0,0,.07.16Zm.18.18.24-.24a.55.55,0,0,0,.16.07v.33A.87.87,0,0,1,57.9,115.5Zm.79.8a.27.27,0,1,1-.53,0,.26.26,0,0,1,.14-.23h.26A.26.26,0,0,1,58.68,116.29Zm-.14-.63v-.33a.53.53,0,0,0,.16-.07l.24.24A.87.87,0,0,1,58.55,115.66Zm.58-.34-.23-.24a.58.58,0,0,0,.06-.16h.33A.87.87,0,0,1,59.12,115.31Zm.79-.26a.27.27,0,0,1-.23-.14h0v0h0v0h0v0h0a.27.27,0,1,1,.23.39Z"/><path class="cls-70" d="M21.3,110.63a.39.39,0,0,0-.37.26h-.16a1,1,0,0,0-.19-.47l.11-.11a.39.39,0,1,0-.18-.18l-.11.11a1,1,0,0,0-.47-.19v-.16a.39.39,0,1,0-.25,0V110a1,1,0,0,0-.47.19l-.11-.11a.39.39,0,1,0-.18.18l.11.11a1,1,0,0,0-.19.47h-.16a.39.39,0,1,0,0,.25h.16a1,1,0,0,0,.19.47l-.11.11a.39.39,0,1,0,.18.18l.11-.11a1,1,0,0,0,.47.19v.16a.39.39,0,1,0,.25,0V112a1,1,0,0,0,.47-.19l.11.11a.39.39,0,1,0,.18-.18l-.11-.11a1,1,0,0,0,.19-.47h.16a.39.39,0,1,0,.37-.52Zm-.62-.86a.27.27,0,1,1,.11.44h-.18v0A.27.27,0,0,1,20.68,109.77ZM19,110v0h-.18a.27.27,0,1,1,.11-.44A.27.27,0,0,1,19,110Zm-.43,1h0v0h0a.27.27,0,1,1,0-.25h0v0h0v0Zm.36,1.23a.27.27,0,1,1-.11-.44H19v0h0v0h0A.27.27,0,0,1,18.93,112.27Zm1.68-.26h0v0h.17a.27.27,0,0,1,.26.07.27.27,0,1,1-.44.11Zm-.1-1.51a.86.86,0,0,1,.16.39h-.33a.58.58,0,0,0-.06-.16Zm-.18-.18-.24.24-.16-.07v-.33A.87.87,0,0,1,20.32,110.31Zm-.52,1a.27.27,0,1,1,.27-.27A.27.27,0,0,1,19.8,111.28Zm-.26-1.76a.27.27,0,1,1,.39.23h-.25A.27.27,0,0,1,19.54,109.52Zm.14.63v.33l-.16.07-.24-.24A.85.85,0,0,1,19.67,110.15Zm-.58.34.24.24a.62.62,0,0,0-.07.16h-.33A.86.86,0,0,1,19.1,110.5Zm0,1a.88.88,0,0,1-.16-.4h.33a.61.61,0,0,0,.07.16Zm.18.18.24-.24.16.07v.33A.85.85,0,0,1,19.28,111.72Zm.79.8a.27.27,0,1,1-.39-.23h.25A.26.26,0,0,1,20.07,112.52Zm-.14-.63v-.33l.16-.07.24.24A.88.88,0,0,1,19.93,111.88Zm.58-.34-.24-.24a.57.57,0,0,0,.06-.16h.33A.87.87,0,0,1,20.51,111.54Zm.79-.26a.27.27,0,0,1-.23-.14h0v0h0v0h0a.27.27,0,1,1,.23.39Z"/><path class="cls-70" d="M127.27,86.09a.39.39,0,0,0-.37.26h-.16a1,1,0,0,0-.19-.47l.11-.11a.39.39,0,0,0,.44-.08.39.39,0,1,0-.62-.11l-.11.11a1,1,0,0,0-.47-.19v-.16a.39.39,0,1,0-.26,0v.16a1,1,0,0,0-.47.19l-.11-.11a.39.39,0,1,0-.62.11.39.39,0,0,0,.44.08l.11.11a1,1,0,0,0-.2.47h-.16a.39.39,0,1,0,0,.26h.16a1,1,0,0,0,.2.47l-.11.11a.39.39,0,1,0,.18.18l.11-.11a1,1,0,0,0,.47.19v.16a.39.39,0,1,0,.26,0v-.16a1,1,0,0,0,.47-.19l.11.11a.39.39,0,1,0,.18-.18l-.11-.11a1,1,0,0,0,.19-.47h.16a.39.39,0,1,0,.37-.52Zm-.63-.86a.27.27,0,1,1,.11.44h-.18A.26.26,0,0,1,126.64,85.23Zm-1.68.26v0h-.18a.27.27,0,1,1,.11-.44A.26.26,0,0,1,125,85.49Zm-.43,1h0v0h0a.27.27,0,1,1,0-.26h0v0h0v0Zm.36,1.23a.27.27,0,1,1-.11-.44h.16v0h0v0A.26.26,0,0,1,124.9,87.73Zm1.68-.26v0h.18a.26.26,0,1,1-.18.18Zm-.1-1.51a.91.91,0,0,1,.16.39h-.34a.52.52,0,0,0-.07-.16Zm-.18-.18-.24.24-.16-.07v-.33A.87.87,0,0,1,126.29,85.78Zm-.52,1a.27.27,0,1,1,.27-.27A.27.27,0,0,1,125.77,86.75ZM125.5,85a.27.27,0,1,1,.39.23h-.26A.27.27,0,0,1,125.5,85Zm.14.63v.33a.54.54,0,0,0-.16.07l-.24-.24A.87.87,0,0,1,125.64,85.61Zm-.57.34.24.24a.57.57,0,0,0-.07.16h-.33A.86.86,0,0,1,125.07,86Zm0,1a.86.86,0,0,1-.16-.39h.33a.56.56,0,0,0,.07.16Zm.18.18.24-.24a.52.52,0,0,0,.16.07v.33A.87.87,0,0,1,125.25,87.18Zm.79.8a.27.27,0,1,1-.53,0,.27.27,0,0,1,.14-.23h.26A.27.27,0,0,1,126,88Zm-.14-.63V87l.16-.07.24.24A.87.87,0,0,1,125.9,87.35Zm.58-.35-.24-.23a.51.51,0,0,0,.07-.16h.34A.9.9,0,0,1,126.47,87Zm.8-.26a.27.27,0,0,1-.23-.14h0v0h0v0h0a.27.27,0,0,1,.5.13A.26.26,0,0,1,127.27,86.74Z"/><path class="cls-70" d="M56.86,94.41a.39.39,0,0,0-.37.26h-.16a1,1,0,0,0-.19-.47l.11-.11a.39.39,0,1,0-.18-.18L56,94a1,1,0,0,0-.47-.19v-.16a.39.39,0,1,0-.25,0v.16a1,1,0,0,0-.47.19l-.11-.11a.38.38,0,0,0-.08-.44.39.39,0,1,0-.1.62l.11.11a1,1,0,0,0-.2.47h-.16a.39.39,0,1,0,0,.25h.16a1,1,0,0,0,.2.47l-.11.11a.39.39,0,1,0,.1.62.38.38,0,0,0,.08-.44l.11-.11a1,1,0,0,0,.47.19v.16a.39.39,0,1,0,.25,0v-.16a1,1,0,0,0,.47-.19l.11.11a.39.39,0,1,0,.18-.18l-.11-.11a1,1,0,0,0,.19-.47h.16a.39.39,0,1,0,.37-.52Zm-.63-.86a.27.27,0,1,1,.38.38.26.26,0,0,1-.26.07h-.18v0A.27.27,0,0,1,56.23,93.55Zm-1.68.26v0h-.17a.27.27,0,0,1-.26-.44.27.27,0,0,1,.44.26Zm-.43,1h0v0h0a.27.27,0,1,1,0-.25h0v0h0v0ZM54.49,96a.27.27,0,0,1-.38,0,.26.26,0,0,1,0-.38.27.27,0,0,1,.26-.07h.15v0h0A.27.27,0,0,1,54.49,96Zm1.67-.26h.18a.27.27,0,1,1-.18.18Zm-.1-1.51a.89.89,0,0,1,.16.39h-.34a.55.55,0,0,0-.06-.16Zm-.18-.18-.23.24a.58.58,0,0,0-.16-.06v-.33A.88.88,0,0,1,55.88,94.09Zm-.52,1a.27.27,0,1,1,.27-.27A.27.27,0,0,1,55.36,95.06Zm-.27-1.76a.27.27,0,0,1,.53,0,.26.26,0,0,1-.14.23h-.25A.27.27,0,0,1,55.09,93.3Zm.14.63v.33a.53.53,0,0,0-.16.06l-.24-.24A.88.88,0,0,1,55.23,93.93Zm-.57.34.23.24a.5.5,0,0,0-.07.16h-.33A.85.85,0,0,1,54.66,94.27Zm0,1a.85.85,0,0,1-.16-.39h.33a.5.5,0,0,0,.07.16Zm.18.18.24-.24a.54.54,0,0,0,.16.06v.33A.87.87,0,0,1,54.84,95.5Zm.79.79a.27.27,0,1,1-.39-.23h.25A.26.26,0,0,1,55.62,96.29Zm-.14-.63v-.33l.16-.06.23.24A.87.87,0,0,1,55.49,95.66Zm.58-.34-.24-.24a.55.55,0,0,0,.06-.16h.34A.89.89,0,0,1,56.06,95.32Zm.8-.26a.27.27,0,0,1-.23-.14h0v0h0a.27.27,0,1,1,.23.39Z"/><path class="cls-70" d="M66.17,134.42a.39.39,0,0,0-.37.26h-.16a1,1,0,0,0-.19-.47l.11-.11a.39.39,0,1,0-.18-.18l-.11.11a1,1,0,0,0-.47-.19v-.16a.39.39,0,1,0-.26,0v.16a1,1,0,0,0-.47.19l-.11-.11a.39.39,0,1,0-.18.18l.11.11a1,1,0,0,0-.2.47h-.16a.39.39,0,1,0,0,.26h.16a1,1,0,0,0,.2.47l-.11.11a.39.39,0,1,0,.11.63.39.39,0,0,0,.07-.44l.11-.11a1,1,0,0,0,.47.2v.16a.39.39,0,1,0,.26,0v-.16a1,1,0,0,0,.47-.19l.11.11a.39.39,0,1,0,.62-.1.38.38,0,0,0-.44-.08l-.11-.11a1,1,0,0,0,.19-.47h.16a.39.39,0,1,0,.37-.52Zm-.63-.86a.27.27,0,1,1,.11.44h-.18v0A.26.26,0,0,1,65.55,133.56Zm-1.68.26v0h-.17a.27.27,0,1,1,.11-.44A.26.26,0,0,1,63.87,133.82Zm-.43,1h0v0h0a.26.26,0,1,1,0-.26v0h0v0h0a0,0,0,0,1,0,0Zm.36,1.23a.27.27,0,0,1-.38-.38.26.26,0,0,1,.26-.07h.17v0A.26.26,0,0,1,63.8,136.06Zm1.68-.26v0h.18a.26.26,0,0,1,.26.07.27.27,0,0,1-.38.38A.26.26,0,0,1,65.48,135.8Zm-.1-1.51a.85.85,0,0,1,.16.39h-.33a.63.63,0,0,0-.07-.16Zm-.18-.18-.24.23-.16-.06v-.33A.84.84,0,0,1,65.2,134.11Zm-.52,1a.27.27,0,1,1,.27-.27A.27.27,0,0,1,64.67,135.08Zm-.26-1.77a.27.27,0,1,1,.39.23h-.26A.27.27,0,0,1,64.41,133.31Zm.14.63v.33l-.16.06-.24-.23A.85.85,0,0,1,64.55,133.95Zm-.58.34.24.23a.59.59,0,0,0-.07.16h-.33A.85.85,0,0,1,64,134.29Zm0,1a.86.86,0,0,1-.16-.39h.33a.55.55,0,0,0,.07.16Zm.18.18.24-.24a.5.5,0,0,0,.16.07v.33A.87.87,0,0,1,64.15,135.51Zm.79.8a.27.27,0,0,1-.53,0,.27.27,0,0,1,.14-.23h.26A.26.26,0,0,1,64.94,136.31Zm-.14-.63v-.33a.53.53,0,0,0,.16-.07l.24.24A.87.87,0,0,1,64.8,135.68Zm.58-.34-.24-.24a.58.58,0,0,0,.07-.16h.33A.86.86,0,0,1,65.38,135.33Zm.79-.26a.26.26,0,0,1-.23-.14h0v0h0v0h0v0a.26.26,0,0,1,.23-.14.26.26,0,1,1,0,.53Z"/><path class="cls-70" d="M30.66,116a.39.39,0,0,0-.37.26h-.16a1,1,0,0,0-.2-.47l.11-.11a.39.39,0,0,0,.44-.62.39.39,0,0,0-.55,0,.4.4,0,0,0-.08.45l-.11.11a1,1,0,0,0-.47-.19v-.16a.39.39,0,1,0-.26,0v.16a1,1,0,0,0-.47.2l-.11-.11a.39.39,0,1,0-.62.1.39.39,0,0,0,.44.07l.11.11a1,1,0,0,0-.2.47H28a.39.39,0,0,0-.37-.26.39.39,0,1,0,0,.78.39.39,0,0,0,.37-.26h.16a1,1,0,0,0,.2.47l-.11.11a.39.39,0,1,0,.18.18l.11-.11a1,1,0,0,0,.47.19v.16a.39.39,0,1,0,.26,0v-.16a1,1,0,0,0,.47-.19l.11.11a.39.39,0,0,0,.08.44.39.39,0,1,0,.11-.62l-.11-.11a1,1,0,0,0,.2-.47h.16a.39.39,0,1,0,.37-.52Zm-.63-.86a.27.27,0,1,1,.11.44H30A.26.26,0,0,1,30,115.18Zm-1.68.26v0h-.17a.27.27,0,1,1,.11-.44A.27.27,0,0,1,28.35,115.44Zm-.43,1h0v0h0a.27.27,0,1,1,0-.26v0h0v0h0v0Zm.36,1.23a.27.27,0,0,1-.38-.37.27.27,0,0,1,.26-.07h.17v0h0v0A.26.26,0,0,1,28.29,117.67Zm1.68-.26v0h0v0h.17a.27.27,0,0,1,.26.07.27.27,0,0,1-.38.37A.26.26,0,0,1,30,117.41Zm-.1-1.51a.87.87,0,0,1,.16.39h-.33a.59.59,0,0,0-.07-.16Zm-.18-.18-.24.24a.53.53,0,0,0-.16-.07v-.33A.85.85,0,0,1,29.68,115.72Zm-.52,1a.27.27,0,1,1,.26-.27A.27.27,0,0,1,29.16,116.69Zm-.27-1.77a.27.27,0,1,1,.39.23H29A.27.27,0,0,1,28.89,114.93Zm.14.63v.33a.56.56,0,0,0-.16.07l-.24-.24A.86.86,0,0,1,29,115.56Zm-.57.34.23.24a.58.58,0,0,0-.06.16h-.33A.85.85,0,0,1,28.46,115.9Zm0,1a.84.84,0,0,1-.16-.39h.33a.57.57,0,0,0,.06.16Zm.18.18.24-.24L29,117v.33A.89.89,0,0,1,28.64,117.13Zm.79.79a.27.27,0,1,1-.39-.23h.26A.26.26,0,0,1,29.42,117.92Zm-.14-.63V117a.54.54,0,0,0,.16-.07l.24.24A.88.88,0,0,1,29.29,117.29Zm.58-.35-.24-.24a.57.57,0,0,0,.07-.16H30A.86.86,0,0,1,29.86,116.95Zm.79-.26a.26.26,0,0,1-.23-.14h0v0h0v0h0v0h0v0a.27.27,0,1,1,.23.39Z"/><use width="257.01" height="223.64" transform="matrix(-0.11, -0.01, 0, -0.16, 71.78, 71.29)" xlink:href="#New_Symbol"/><use width="257.01" height="223.64" transform="matrix(-0.11, -0.01, 0, -0.16, 59.43, 68.7)" xlink:href="#New_Symbol"/><use width="257.01" height="223.64" transform="matrix(-0.11, -0.01, 0, -0.16, 55.04, 66.41)" xlink:href="#New_Symbol"/><use width="257.01" height="223.64" transform="matrix(-0.11, -0.01, 0, -0.16, 50.22, 67.97)" xlink:href="#New_Symbol"/><use width="257.01" height="223.64" transform="matrix(-0.17, -0.02, 0, -0.15, 132.21, 69.98)" xlink:href="#New_Symbol_2"/><use width="257.01" height="223.64" transform="matrix(-0.17, -0.02, 0, -0.15, 99.69, 57.03)" xlink:href="#New_Symbol_2"/><use width="257.01" height="223.64" transform="matrix(-0.17, -0.02, 0, -0.15, 72, 69.81)" xlink:href="#New_Symbol_2"/><use width="257.01" height="223.64" transform="matrix(-0.17, -0.02, 0, -0.15, 82.35, 62.77)" xlink:href="#New_Symbol_2"/><use width="257.01" height="223.64" transform="matrix(-0.17, -0.02, 0, -0.19, 118.48, 72)" xlink:href="#New_Symbol_2"/><use width="257.01" height="223.64" transform="matrix(-0.17, -0.02, 0, -0.19, 64.24, 73.22)" xlink:href="#New_Symbol_2"/><g class="cls-118"><circle class="cls-119" cx="69.76" cy="58.97" r="34.09"/></g><circle class="cls-120" cx="69.76" cy="59.05" r="26.73"/><g class="cls-121"><path class="cls-70" d="M93.29,65.33c1.32,1.32-.71,7.08-5.51,11.88S77.21,84,75.9,82.72s1.51-6.28,6.31-11.08S92,64,93.29,65.33Z"/></g><g class="cls-122"><ellipse class="cls-123" cx="61.43" cy="48.72" rx="18.35" ry="12.41" transform="translate(-16.85 53.11) rotate(-41.63)"/></g><g class="cls-124"><path class="cls-125" d="M101.37,73.26l-7.45-2.77c.15-.32.3-.64.43-1Zm-9.59.94-.32.45L95,76.82Zm3.14-6.12,3.33.92-3.18-1.35Zm1.13-4.23c0,.26-.1.52-.15.78l5.9.76Zm.23-1.51c0,.34-.09.68-.15,1l7.69.58Zm.19-4.1c0,.27,0,.54,0,.81s0,.54,0,.81l12.1-.81Zm-4.73-14.4.44.66,4.71-3.63Zm2.81,5.22c.13.33.26.66.38,1l7.22-3.31ZM96,54.18c0,.18.07.36.1.55l4.06-1Zm-2.11-6.54,3-1.71-3.21,1.29ZM81.2,34.89,84,27.44l-3.73,7Zm2.42,1.31,4.85-10-6.13,9.28Q83,35.81,83.62,36.19ZM96.44,57.37q0,.28,0,.56l4.15-.5ZM87.33,38.91l6-8.37L86.27,38C86.63,38.31,87,38.61,87.33,38.91Zm-10-5.5,2.25-11.69L75.78,33C76.3,33.12,76.81,33.26,77.31,33.4Zm1.47.48.92-3.33-1.35,3.18Zm10.43,6.85,8-9.12-9.12,8Q88.67,40.14,89.22,40.73Zm4,5.53,9.86-6.68L92.43,44.89C92.71,45.34,93,45.79,93.23,46.26ZM75.33,32.9l.76-5.9-1.54,5.75Zm21.1,24.33,10.2-1.65-10.32.28Q96.38,56.54,96.43,57.23Zm-5-13.79,5.85-5-6.47,4.2C91.05,42.89,91.26,43.16,91.46,43.44Zm4.27,9.25L106.23,49,95.33,51.26Q95.55,52,95.73,52.69ZM44.59,50l-3.33-.92,3.18,1.35Zm.57-1.45c.14-.32.28-.65.43-1l-7.45-2.77Zm-1.7,5.68c0-.26.1-.52.15-.78l-5.9-.76Zm-.31,2.33-5.43-.07,5.38.79Q43.11,56.94,43.14,56.58Zm.09-.82c0-.34.09-.68.15-1l-7.69-.58Zm-.15,5c0-.18,0-.37,0-.56l-4.15.5Zm46.73,16-.37.41,3.29,2.58ZM47.73,43.91l.32-.45-3.57-2.17ZM96.43,60.8q0,.36-.06.72l5.43.07ZM49.71,41.37l.37-.41L46.8,38.37ZM52.08,79.1l-.41-.37L49.08,82ZM84.9,37l.46.32,2.17-3.57ZM54.62,81.08l-.46-.32L52,84.33Zm-.06-44,.66-.44-3.63-4.71ZM87.44,39l.41.37,2.59-3.29ZM85,81l-.66.44,3.63,4.71ZM47.77,74.26l-.44-.66-4.71,3.64Zm-2.19-3.79-3,1.71,3.21-1.29Zm4.08,6.21-.47-.55L45.3,79.92ZM45,69q-.2-.49-.38-1l-7.22,3.31Zm-1.49-5.12c0-.18-.07-.36-.1-.55l-4.06,1ZM89.85,41.43l.47.55,3.89-3.79Zm-24.4,44-.58,7.69,1.6-7.54Zm1.83.23-.07,5.43L68,85.72Zm2.47.12H69l.81,12.1.81-12.1Zm1.12,0,.5,4.15.06-4.18Zm3.2-.32,1,4.06-.44-4.15Zm-2.5.29,1.65,10.19-.28-10.32Q72.27,85.67,71.58,85.72ZM52.19,79.19l-6,8.37,7.1-7.5C52.88,79.79,52.53,79.5,52.19,79.19Zm12,6-.76,5.9L65,85.35ZM55.9,81.91l-4.85,10,6.13-9.28C56.75,82.41,56.32,82.17,55.9,81.91ZM62.2,84.7,60,96.39,63.74,85.1Q63,84.92,62.2,84.7Zm-1.47-.48-.92,3.33,1.35-3.18Zm-2.41-1-2.77,7.45,3.73-7ZM89.9,76.62l8.37,6-7.5-7.1Q90.35,76.11,89.9,76.62Zm-1.82,1.89,9.12,8-8-9.12C88.85,77.76,88.47,78.14,88.08,78.51Zm4.54-5.6,10,4.85-9.28-6.13C93.12,72.06,92.87,72.49,92.62,72.91Zm2.79-6.31,11.69,2.25L95.81,65.07C95.69,65.59,95.55,66.1,95.41,66.61Zm-8.57,13,3.79,3.89-3.24-4.36ZM76.12,85l3.65,10.5L77.55,84.63Q76.84,84.84,76.12,85Zm5.05-1.79,1.71,3L81.58,83Zm-2.41,1,3.31,7.22-2.32-7.6Zm6.61-3.48,5,5.85-4.21-6.47Zm-2.82,1.78,6.68,9.86L83.92,81.72C83.47,82,83,82.27,82.55,82.53Zm-38.44-31-11.7-2.25L43.71,53C43.83,52.51,44,52,44.11,51.5ZM63.4,33.08l-3.65-10.5L62,33.47Q62.67,33.26,63.4,33.08Zm-2.64.79-3.31-7.22,2.32,7.6ZM57,35.57l-6.68-9.86L55.6,36.38Q56.27,36,57,35.57Zm8.47-2.91-1-4.06.44,4.15ZM54.15,37.35l-5-5.85L53.33,38Zm4.2-2.48-1.71-3,1.29,3.21Zm13.88-2.44L72.29,27l-.79,5.37Zm-2.47-.11h.81l-.81-12.1L69,32.33Zm-1.82.06L66.29,22.19l.28,10.32C67,32.46,67.48,32.41,67.94,32.38Zm.7,0-.5-4.15-.06,4.18ZM43.79,65.41l-10.5,3.65,10.89-2.22Q44,66.14,43.79,65.41Zm6.51,12-8,9.12,9.12-8Q50.85,78,50.3,77.37ZM43,59.05c0-.27,0-.54,0-.81l-12.1.81,12.1.81C43,59.59,43,59.32,43,59.05Zm.06,1.82L32.9,62.52l10.32-.28Q43.14,61.56,43.09,60.87Zm5,13.79-5.85,5,6.47-4.2Q48.36,75.08,48.06,74.66Zm-1.78-2.82-9.86,6.68,10.66-5.31C46.8,72.76,46.54,72.31,46.28,71.84Zm6.4-33.36L48.89,34.6,52.13,39Zm-3.07,3-8.37-6,7.5,7.1Q49.16,42,49.62,41.48Zm24.45-8.81L74.65,25,73,32.52ZM51.44,39.59l-9.12-8,8,9.12Q50.85,40.14,51.44,39.59Zm-4.54,5.6-10-4.84,9.28,6.13C46.4,46,46.64,45.61,46.9,45.19Z"/></g><use width="257.01" height="223.64" transform="translate(10.68 58.98) scale(0.18 0.12)" xlink:href="#New_Symbol"/><use width="257.01" height="223.64" transform="translate(30.4 59.86) scale(0.18 0.12)" xlink:href="#New_Symbol"/><use width="257.01" height="223.64" transform="translate(37.4 61.23) scale(0.18 0.12)" xlink:href="#New_Symbol"/><use width="257.01" height="223.64" transform="translate(45.1 59.6) scale(0.18 0.12)" xlink:href="#New_Symbol"/><use width="257.01" height="223.64" transform="translate(84.62 48.72) scale(0.12 0.16)" xlink:href="#New_Symbol"/><use width="257.01" height="223.64" transform="translate(98.38 49.86) scale(0.12 0.16)" xlink:href="#New_Symbol"/><use width="257.01" height="223.64" transform="translate(103.27 51.64) scale(0.12 0.16)" xlink:href="#New_Symbol"/><use width="257.01" height="223.64" transform="translate(108.64 49.52) scale(0.12 0.16)" xlink:href="#New_Symbol"/><use width="257.01" height="223.64" transform="translate(49.51 37.19) scale(0.17 0.23)" xlink:href="#New_Symbol"/><use width="257.01" height="223.64" transform="translate(69.02 38.82) scale(0.17 0.23)" xlink:href="#New_Symbol"/><use width="257.01" height="223.64" transform="translate(75.95 41.34) scale(0.17 0.23)" xlink:href="#New_Symbol"/><use width="257.01" height="223.64" transform="translate(83.56 38.33) scale(0.17 0.23)" xlink:href="#New_Symbol"/><use width="257.01" height="223.64" transform="translate(42.31 72.15) scale(0.12 0.11)" xlink:href="#New_Symbol"/><use width="257.01" height="223.64" transform="translate(55.89 72.95) scale(0.12 0.11)" xlink:href="#New_Symbol"/><use width="257.01" height="223.64" transform="translate(60.71 74.18) scale(0.12 0.11)" xlink:href="#New_Symbol"/><use width="257.01" height="223.64" transform="translate(66.01 72.71) scale(0.12 0.11)" xlink:href="#New_Symbol"/><use width="257.01" height="223.64" transform="translate(58.42 75.46) rotate(180) scale(0.09 0.14)" xlink:href="#New_Symbol"/><use width="257.01" height="223.64" transform="translate(48.87 74.5) rotate(180) scale(0.09 0.14)" xlink:href="#New_Symbol"/><use width="257.01" height="223.64" transform="translate(45.48 73.01) rotate(180) scale(0.09 0.14)" xlink:href="#New_Symbol"/><use width="257.01" height="223.64" transform="translate(41.75 74.79) rotate(180) scale(0.09 0.14)" xlink:href="#New_Symbol"/><use width="257.01" height="223.64" transform="translate(82.74 88.3) scale(0.12 0.04)" xlink:href="#New_Symbol"/><use width="257.01" height="223.64" transform="translate(17.36 57.07) scale(0.19 0.15)" xlink:href="#New_Symbol_2"/><use width="257.01" height="223.64" transform="translate(53.56 66.22) scale(0.19 0.15)" xlink:href="#New_Symbol_2"/><use width="257.01" height="223.64" transform="translate(84.36 50.21) scale(0.19 0.15)" xlink:href="#New_Symbol_2"/><use width="257.01" height="223.64" transform="translate(72.84 58.46) scale(0.19 0.15)" xlink:href="#New_Symbol_2"/><use width="257.01" height="223.64" transform="translate(62.03 58.89) scale(0.18)" xlink:href="#New_Symbol_2"/><use width="257.01" height="223.64" transform="translate(56.76 52.07) scale(0.18)" xlink:href="#New_Symbol_2"/><use width="257.01" height="223.64" transform="translate(40.17 55.83) scale(0.17 0.16)" xlink:href="#New_Symbol_2"/><use width="257.01" height="223.64" transform="translate(94.46 49.32) scale(0.17 0.16)" xlink:href="#New_Symbol_2"/><use width="257.01" height="223.64" transform="translate(15.39 47.72) scale(0.19)" xlink:href="#New_Symbol_2"/><use width="257.01" height="223.64" transform="translate(75.75 40.18) scale(0.19)" xlink:href="#New_Symbol_2"/><use width="174.77" height="164.37" transform="translate(43.85 61.68) scale(0.31 0.14)" xlink:href="#New_Symbol_3"/><use width="174.77" height="164.37" transform="translate(12.43 59.24) scale(0.31 0.14)" xlink:href="#New_Symbol_3"/></g></g></g></svg>