<svg xmlns="http://www.w3.org/2000/svg" xmlns:xlink="http://www.w3.org/1999/xlink" viewBox="0 0 150.94 150.94"><defs><style>.cls-1{fill:url(#radial-gradient);}.cls-2{fill:url(#radial-gradient-2);}.cls-3{fill:url(#radial-gradient-3);}.cls-4{fill:url(#radial-gradient-4);}.cls-5{fill:url(#radial-gradient-5);}.cls-6{fill:url(#radial-gradient-6);}.cls-7{fill:url(#radial-gradient-7);}.cls-8{fill:url(#radial-gradient-8);}.cls-9{fill:url(#radial-gradient-9);}.cls-10{fill:url(#radial-gradient-10);}.cls-11{fill:url(#linear-gradient);}.cls-12{fill:url(#linear-gradient-2);}.cls-13{fill:url(#radial-gradient-11);}.cls-14{fill:url(#radial-gradient-12);}.cls-15{fill:url(#radial-gradient-13);}.cls-16{fill:url(#radial-gradient-14);}.cls-17{fill:url(#radial-gradient-15);}.cls-18{fill:url(#radial-gradient-16);}.cls-19{fill:url(#radial-gradient-17);}.cls-20{fill:url(#radial-gradient-18);}.cls-21{fill:url(#radial-gradient-19);}.cls-22{fill:url(#radial-gradient-20);}.cls-23{fill:url(#radial-gradient-21);}.cls-24{fill:url(#radial-gradient-22);}.cls-25{fill:url(#radial-gradient-23);}.cls-26{fill:url(#radial-gradient-24);}.cls-27{fill:url(#radial-gradient-25);}.cls-28{fill:url(#radial-gradient-26);}.cls-29{fill:url(#radial-gradient-27);}.cls-30{fill:url(#radial-gradient-28);}.cls-31{fill:url(#radial-gradient-29);}.cls-32{fill:url(#radial-gradient-30);}.cls-33{fill:url(#radial-gradient-31);}.cls-34{isolation:isolate;}.cls-35{mask:url(#mask);}.cls-36{fill:#1b75bb;}.cls-37{mask:url(#mask-2);}.cls-38{fill:#fff;}.cls-39{mask:url(#mask-3);}.cls-40{mask:url(#mask-4);}.cls-41{mask:url(#mask-5);}.cls-42{mask:url(#mask-6);}.cls-43{mask:url(#mask-7);}.cls-44{mask:url(#mask-8);}.cls-45{mask:url(#mask-9);}.cls-46{mask:url(#mask-10);}.cls-47{mask:url(#mask-11);}.cls-48{mask:url(#mask-12);}.cls-49{mask:url(#mask-13);}.cls-50{mask:url(#mask-14);}.cls-51{mask:url(#mask-15);}.cls-52{mask:url(#mask-16);}.cls-53{mask:url(#mask-17);}.cls-54{mask:url(#mask-18);}.cls-55{fill:#ffdd15;}.cls-56{fill:url(#radial-gradient-32);}.cls-57{mask:url(#mask-19);}.cls-58{mask:url(#mask-20);}.cls-59{fill:#fff8d0;mix-blend-mode:hard-light;}.cls-60{mask:url(#mask-21);}.cls-61{fill:url(#radial-gradient-33);}</style><radialGradient id="radial-gradient" cx="75.47" cy="75.47" r="75.47" gradientUnits="userSpaceOnUse"><stop offset="0" stop-color="#fff"/><stop offset="0.16" stop-color="#ddd"/><stop offset="0.51" stop-color="#858585"/><stop offset="1"/></radialGradient><radialGradient id="radial-gradient-2" cx="24.01" cy="92.12" r="3.22" xlink:href="#radial-gradient"/><radialGradient id="radial-gradient-3" cx="97.87" cy="100.54" r="1.12" xlink:href="#radial-gradient"/><radialGradient id="radial-gradient-4" cx="41.31" cy="103.75" r="1.12" xlink:href="#radial-gradient"/><radialGradient id="radial-gradient-5" cx="58.42" cy="119.34" r="1.12" xlink:href="#radial-gradient"/><radialGradient id="radial-gradient-6" cx="18.68" cy="83.52" r="1.12" xlink:href="#radial-gradient"/><radialGradient id="radial-gradient-7" cx="72.91" cy="103.25" r="1.12" xlink:href="#radial-gradient"/><radialGradient id="radial-gradient-8" cx="107.12" cy="124.27" r="1.12" xlink:href="#radial-gradient"/><radialGradient id="radial-gradient-9" cx="69.62" cy="132.2" r="1.12" xlink:href="#radial-gradient"/><radialGradient id="radial-gradient-10" cx="69.76" cy="58.97" r="34.09" gradientUnits="userSpaceOnUse"><stop offset="0" stop-color="#fff"/><stop offset="0.18" stop-color="#fcfcfc"/><stop offset="0.32" stop-color="#f3f3f3"/><stop offset="0.43" stop-color="#e3e3e3"/><stop offset="0.54" stop-color="#cdcdcd"/><stop offset="0.64" stop-color="#b0b0b0"/><stop offset="0.74" stop-color="#8c8c8c"/><stop offset="0.83" stop-color="#626262"/><stop offset="0.92" stop-color="#333"/><stop offset="1"/></radialGradient><linearGradient id="linear-gradient" x1="82.21" y1="71.64" x2="87.78" y2="77.21" gradientUnits="userSpaceOnUse"><stop offset="0.31"/><stop offset="0.4" stop-color="#101010"/><stop offset="0.59" stop-color="#38393a"/><stop offset="0.84" stop-color="#797a7d"/><stop offset="1" stop-color="#a6a8ab"/></linearGradient><linearGradient id="linear-gradient-2" x1="616.5" y1="75.2" x2="635.18" y2="47.64" gradientTransform="matrix(1.1, 0, 0, 0.75, -628.44, 2.94)" gradientUnits="userSpaceOnUse"><stop offset="0" stop-color="#231f20"/><stop offset="1" stop-color="#fff"/></linearGradient><radialGradient id="radial-gradient-11" cx="40.17" cy="96.68" r="3.22" xlink:href="#radial-gradient"/><radialGradient id="radial-gradient-12" cx="69.76" cy="59.05" r="38.81" gradientUnits="userSpaceOnUse"><stop offset="0" stop-color="#fff"/><stop offset="0.14" stop-color="#fbfbfb"/><stop offset="0.27" stop-color="#efefef"/><stop offset="0.4" stop-color="#dcdbdb"/><stop offset="0.54" stop-color="#c0bfc0"/><stop offset="0.67" stop-color="#9d9b9c"/><stop offset="0.8" stop-color="#726f70"/><stop offset="0.93" stop-color="#3f3c3d"/><stop offset="1" stop-color="#231f20"/></radialGradient><radialGradient id="radial-gradient-13" cx="79.55" cy="122.57" r="3.22" xlink:href="#radial-gradient"/><radialGradient id="radial-gradient-14" cx="120.31" cy="113.52" r="3.22" xlink:href="#radial-gradient"/><radialGradient id="radial-gradient-15" cx="86" cy="115.69" r="1.12" xlink:href="#radial-gradient"/><radialGradient id="radial-gradient-16" cx="59.54" cy="109.73" r="1.12" xlink:href="#radial-gradient"/><radialGradient id="radial-gradient-17" cx="84.63" cy="106.75" r="1.12" xlink:href="#radial-gradient"/><radialGradient id="radial-gradient-18" cx="124.65" cy="100.67" r="1.12" xlink:href="#radial-gradient"/><radialGradient id="radial-gradient-19" cx="133.06" cy="86.9" r="1.12" xlink:href="#radial-gradient"/><radialGradient id="radial-gradient-20" cx="95.12" cy="-1816.76" r="95.12" gradientTransform="translate(0 1622) scale(1 0.84)" gradientUnits="userSpaceOnUse"><stop offset="0" stop-color="#fff"/><stop offset="1" stop-color="#fff" stop-opacity="0"/></radialGradient><radialGradient id="radial-gradient-21" cx="-9050.25" cy="4758.5" r="119.53" gradientTransform="matrix(0, 0.67, -1, 0, 4910.05, 6212.54)" xlink:href="#radial-gradient-20"/><radialGradient id="radial-gradient-22" cx="17411.05" cy="18.6" r="89.72" gradientTransform="matrix(0.64, 0, 0, 1.04, -10965.65, 106.74)" xlink:href="#radial-gradient-20"/><radialGradient id="radial-gradient-23" cx="95.12" cy="-1816.76" r="95.12" gradientTransform="translate(0 1622) scale(1 0.84)" gradientUnits="userSpaceOnUse"><stop offset="0" stop-color="#58595b"/><stop offset="0.23" stop-color="#595a5c" stop-opacity="0.96"/><stop offset="0.44" stop-color="#5b5c5e" stop-opacity="0.84"/><stop offset="0.63" stop-color="#5f6062" stop-opacity="0.65"/><stop offset="0.81" stop-color="#656668" stop-opacity="0.37"/><stop offset="0.99" stop-color="#6d6e70" stop-opacity="0.01"/><stop offset="1" stop-color="#6d6e70" stop-opacity="0"/></radialGradient><radialGradient id="radial-gradient-24" cx="-9050.25" cy="4758.5" r="119.53" gradientTransform="matrix(0, 0.67, -1, 0, 4910.04, 6212.54)" xlink:href="#radial-gradient-23"/><radialGradient id="radial-gradient-25" cx="17411.05" cy="18.6" r="89.72" gradientTransform="matrix(0.64, 0, 0, 1.04, -10965.65, 106.73)" xlink:href="#radial-gradient-23"/><radialGradient id="radial-gradient-26" cx="95.12" cy="-1816.76" r="95.12" gradientTransform="translate(0 1622) scale(1 0.84)" gradientUnits="userSpaceOnUse"><stop offset="0" stop-color="#bbbdbf"/><stop offset="0.17" stop-color="#bcbec0" stop-opacity="0.98"/><stop offset="0.31" stop-color="#bec0c2" stop-opacity="0.93"/><stop offset="0.45" stop-color="#c2c4c6" stop-opacity="0.83"/><stop offset="0.58" stop-color="#c8cacb" stop-opacity="0.7"/><stop offset="0.71" stop-color="#cfd1d2" stop-opacity="0.53"/><stop offset="0.84" stop-color="#d8dadb" stop-opacity="0.32"/><stop offset="0.97" stop-color="#e3e4e5" stop-opacity="0.07"/><stop offset="1" stop-color="#e6e7e8" stop-opacity="0"/></radialGradient><radialGradient id="radial-gradient-27" cx="-9050.25" cy="4758.5" r="119.53" gradientTransform="matrix(0, 0.67, -1, 0, 4910.04, 6212.54)" xlink:href="#radial-gradient-26"/><radialGradient id="radial-gradient-28" cx="17411.05" cy="18.6" r="89.72" gradientTransform="matrix(0.64, 0, 0, 1.04, -10965.65, 106.73)" xlink:href="#radial-gradient-26"/><radialGradient id="radial-gradient-29" cx="68.47" cy="-1844.62" r="68.47" gradientTransform="translate(0 1617.18) scale(1 0.84)" gradientUnits="userSpaceOnUse"><stop offset="0"/><stop offset="1" stop-opacity="0"/></radialGradient><radialGradient id="radial-gradient-30" cx="-9094.4" cy="4728.06" r="86.04" gradientTransform="matrix(0, 0.67, -1, 0, 4837.09, 6210.96)" xlink:href="#radial-gradient-29"/><radialGradient id="radial-gradient-31" cx="17327.52" cy="-18.19" r="64.58" gradientTransform="matrix(0.64, 0, 0, 1.04, -10970.6, 137.77)" xlink:href="#radial-gradient-29"/><mask id="mask" x="0" y="0" width="150.94" height="150.94" maskUnits="userSpaceOnUse"><circle class="cls-1" cx="75.47" cy="75.47" r="75.47"/></mask><mask id="mask-2" x="20.79" y="88.9" width="6.44" height="6.45" maskUnits="userSpaceOnUse"><circle class="cls-2" cx="24.01" cy="92.12" r="3.22"/></mask><mask id="mask-3" x="36.95" y="93.46" width="6.44" height="6.44" maskUnits="userSpaceOnUse"><circle class="cls-13" cx="40.17" cy="96.68" r="3.22"/></mask><mask id="mask-4" x="76.33" y="119.34" width="6.45" height="6.45" maskUnits="userSpaceOnUse"><circle class="cls-15" cx="79.55" cy="122.57" r="3.22"/></mask><mask id="mask-5" x="117.09" y="110.29" width="6.44" height="6.44" maskUnits="userSpaceOnUse"><circle class="cls-16" cx="120.31" cy="113.52" r="3.22"/></mask><mask id="mask-6" x="84.88" y="114.57" width="2.24" height="2.24" maskUnits="userSpaceOnUse"><circle class="cls-17" cx="86" cy="115.68" r="1.12"/></mask><mask id="mask-7" x="58.42" y="108.61" width="2.24" height="2.24" maskUnits="userSpaceOnUse"><circle class="cls-18" cx="59.54" cy="109.73" r="1.12"/></mask><mask id="mask-8" x="83.51" y="105.63" width="2.24" height="2.24" maskUnits="userSpaceOnUse"><circle class="cls-19" cx="84.63" cy="106.75" r="1.12"/></mask><mask id="mask-9" x="123.53" y="99.55" width="2.24" height="2.24" maskUnits="userSpaceOnUse"><circle class="cls-20" cx="124.65" cy="100.67" r="1.12"/></mask><mask id="mask-10" x="131.95" y="85.78" width="2.24" height="2.24" maskUnits="userSpaceOnUse"><circle class="cls-21" cx="133.06" cy="86.9" r="1.12"/></mask><mask id="mask-11" x="96.75" y="99.42" width="2.24" height="2.24" maskUnits="userSpaceOnUse"><circle class="cls-3" cx="97.87" cy="100.54" r="1.12"/></mask><mask id="mask-12" x="40.19" y="102.63" width="2.24" height="2.24" maskUnits="userSpaceOnUse"><circle class="cls-4" cx="41.31" cy="103.74" r="1.12"/></mask><mask id="mask-13" x="57.3" y="118.22" width="2.24" height="2.24" maskUnits="userSpaceOnUse"><circle class="cls-5" cx="58.42" cy="119.34" r="1.12"/></mask><mask id="mask-14" x="17.56" y="82.4" width="2.24" height="2.24" maskUnits="userSpaceOnUse"><circle class="cls-6" cx="18.68" cy="83.52" r="1.12"/></mask><mask id="mask-15" x="71.79" y="102.13" width="2.24" height="2.24" maskUnits="userSpaceOnUse"><circle class="cls-7" cx="72.91" cy="103.25" r="1.12"/></mask><mask id="mask-16" x="106.01" y="123.15" width="2.24" height="2.24" maskUnits="userSpaceOnUse"><circle class="cls-8" cx="107.12" cy="124.27" r="1.12"/></mask><mask id="mask-17" x="68.51" y="131.08" width="2.24" height="2.24" maskUnits="userSpaceOnUse"><circle class="cls-9" cx="69.62" cy="132.2" r="1.12"/></mask><mask id="mask-18" x="35.67" y="24.88" width="68.18" height="68.18" maskUnits="userSpaceOnUse"><circle class="cls-10" cx="69.76" cy="58.97" r="34.09"/></mask><radialGradient id="radial-gradient-32" cx="69.76" cy="59.05" r="26.73" gradientUnits="userSpaceOnUse"><stop offset="0" stop-color="#ffdd15"/><stop offset="0.48" stop-color="#ffdb15"/><stop offset="0.65" stop-color="#fed416"/><stop offset="0.77" stop-color="#fdc917"/><stop offset="0.87" stop-color="#fbb819"/><stop offset="0.95" stop-color="#f8a21c"/><stop offset="1" stop-color="#f6921e"/></radialGradient><mask id="mask-19" x="75.57" y="65.01" width="18.11" height="18.11" maskUnits="userSpaceOnUse"><path class="cls-11" d="M93.29,65.33c1.32,1.32-.71,7.08-5.51,11.88S77.21,84,75.9,82.72s1.51-6.28,6.31-11.08S92,64,93.29,65.33Z"/></mask><mask id="mask-20" x="45.42" y="33.4" width="32.01" height="30.64" maskUnits="userSpaceOnUse"><ellipse class="cls-12" cx="61.43" cy="48.72" rx="18.35" ry="12.41" transform="translate(-16.85 53.11) rotate(-41.63)"/></mask><mask id="mask-21" x="30.95" y="20.24" width="77.63" height="77.63" maskUnits="userSpaceOnUse"><path class="cls-14" d="M101.37,73.26l-7.45-2.77c.15-.32.3-.64.44-1Zm-9.59.94-.32.45L95,76.82Zm3.14-6.12,3.33.92-3.18-1.35Zm1.13-4.23c0,.26-.1.52-.15.78l5.9.76Zm.23-1.51c0,.34-.09.68-.15,1l7.69.58Zm.19-4.1c0,.27,0,.54,0,.81s0,.54,0,.81l12.1-.81Zm-4.73-14.4.44.66,4.71-3.63Zm2.81,5.22q.2.49.38,1l7.22-3.31ZM96,54.18c0,.18.07.36.1.55l4.06-1Zm-2.11-6.54,3-1.71-3.21,1.29ZM81.2,34.89,84,27.44l-3.73,7Zm2.42,1.31,4.84-10-6.13,9.28C82.77,35.69,83.2,35.94,83.62,36.19ZM96.44,57.37q0,.28,0,.56l4.15-.5ZM87.33,38.91l6-8.37L86.27,38C86.63,38.31,87,38.61,87.33,38.91Zm-10-5.5,2.25-11.69L75.78,33C76.3,33.12,76.81,33.26,77.31,33.4Zm1.47.48.92-3.33-1.35,3.18Zm10.43,6.85,8-9.12-9.12,8Q88.67,40.14,89.22,40.73Zm4,5.53,9.86-6.68L92.43,44.89C92.71,45.34,93,45.79,93.24,46.26ZM75.33,32.9l.76-5.9-1.54,5.75Zm21.1,24.33,10.2-1.65-10.32.28Q96.38,56.54,96.43,57.23Zm-5-13.79,5.85-5-6.47,4.2Q91.16,43,91.46,43.44Zm4.27,9.25L106.23,49,95.34,51.26Q95.55,52,95.73,52.69ZM44.59,50l-3.33-.92,3.18,1.35Zm.57-1.45c.14-.32.28-.65.43-1l-7.45-2.77Zm-1.7,5.68c0-.26.1-.52.15-.78l-5.9-.76Zm-.31,2.33-5.43-.07,5.38.79C43.1,57.06,43.12,56.82,43.14,56.58Zm.09-.82c0-.34.09-.68.15-1l-7.69-.58Zm-.15,5c0-.18,0-.37,0-.56l-4.15.5Zm46.73,16-.37.41,3.29,2.58ZM47.73,43.91l.32-.45-3.57-2.17ZM96.43,60.8c0,.24,0,.48-.06.72l5.43.07ZM49.71,41.37l.37-.41L46.8,38.37ZM52.08,79.1l-.41-.37L49.08,82ZM84.9,37l.46.32,2.17-3.57ZM54.62,81.08l-.45-.32L52,84.33Zm-.06-44,.66-.44-3.63-4.71ZM87.44,39l.41.37,2.58-3.29ZM85,81l-.66.44,3.63,4.71ZM47.78,74.26l-.44-.66-4.71,3.64Zm-2.19-3.79-3,1.71,3.21-1.29Zm4.08,6.21-.47-.55-3.89,3.79ZM45,69q-.2-.49-.38-1l-7.22,3.31Zm-1.49-5.12q-.05-.27-.09-.55l-4.06,1ZM89.86,41.43l.47.55,3.89-3.79Zm-24.4,44-.58,7.69,1.6-7.54Zm1.84.23-.07,5.43L68,85.72Zm2.47.12H69l.81,12.1.81-12.1Zm1.12,0,.5,4.15.06-4.18Zm3.2-.32,1,4.06-.44-4.15Zm-2.5.29,1.65,10.19-.28-10.32Q72.27,85.67,71.58,85.72ZM52.19,79.19l-6,8.37,7.1-7.5C52.89,79.79,52.53,79.5,52.19,79.19Zm12,6-.76,5.9L65,85.35ZM55.9,81.91l-4.85,10,6.13-9.28C56.75,82.41,56.32,82.17,55.9,81.91Zm6.31,2.79L60,96.39,63.74,85.1C63.22,85,62.71,84.84,62.21,84.7Zm-1.47-.48-.92,3.33,1.35-3.18Zm-2.41-1-2.77,7.45,3.73-7ZM89.9,76.62l8.37,6-7.5-7.1Q90.36,76.11,89.9,76.62Zm-1.82,1.89,9.12,8-8-9.12Q88.67,78,88.08,78.51Zm4.54-5.6,10,4.85-9.28-6.13C93.12,72.06,92.88,72.49,92.62,72.91Zm2.79-6.31,11.69,2.25L95.81,65.07C95.69,65.59,95.55,66.1,95.41,66.61Zm-8.57,13,3.79,3.89-3.24-4.36ZM76.12,85l3.65,10.5L77.55,84.63Q76.85,84.84,76.12,85Zm5.05-1.79,1.71,3L81.59,83Zm-2.41,1,3.31,7.22-2.32-7.6Zm6.61-3.48,5,5.85-4.2-6.47Zm-2.82,1.78,6.68,9.86L83.92,81.72C83.47,82,83,82.27,82.55,82.53Zm-38.44-31L32.42,49.24,43.71,53C43.83,52.51,44,52,44.11,51.5ZM63.4,33.08l-3.65-10.5L62,33.47Q62.68,33.26,63.4,33.08Zm-2.64.79-3.31-7.22,2.32,7.6ZM57,35.57l-6.68-9.86L55.6,36.38Q56.27,36,57,35.57Zm8.47-2.91-1-4.06.44,4.15ZM54.15,37.35l-5-5.85L53.33,38Zm4.2-2.48-1.71-3,1.29,3.21Zm13.88-2.44L72.3,27l-.79,5.37Zm-2.47-.11h.81l-.81-12.1L69,32.33Zm-1.82.06L66.29,22.19l.28,10.32C67,32.46,67.48,32.41,67.94,32.38Zm.7,0-.5-4.15-.06,4.18ZM43.79,65.41l-10.5,3.65,10.89-2.22Q44,66.14,43.79,65.41Zm6.5,12-8,9.12,9.12-8Q50.85,78,50.3,77.37ZM43,59.05c0-.27,0-.54,0-.81l-12.1.81,12.1.81C43,59.59,43,59.32,43,59.05Zm.06,1.82L32.9,62.52l10.32-.28Q43.14,61.56,43.09,60.87Zm5,13.79-5.85,5,6.47-4.2Q48.36,75.08,48.06,74.66Zm-1.78-2.82-9.86,6.68,10.66-5.31C46.81,72.76,46.54,72.31,46.28,71.84Zm6.4-33.36L48.89,34.6,52.14,39Zm-3.07,3-8.37-6,7.5,7.1Q49.17,42,49.62,41.48Zm24.45-8.81L74.65,25,73,32.52ZM51.44,39.59l-9.12-8,8,9.12Q50.85,40.14,51.44,39.59Zm-4.54,5.6-10-4.84,9.28,6.13C46.4,46,46.64,45.61,46.9,45.19Z"/></mask><radialGradient id="radial-gradient-33" cx="69.76" cy="59.05" r="38.81" gradientUnits="userSpaceOnUse"><stop offset="0.13" stop-color="#f6921e"/><stop offset="1" stop-color="#ffdd15"/></radialGradient><symbol id="New_Symbol" data-name="New Symbol" viewBox="0 0 257.01 223.64"><ellipse class="cls-22" cx="95.12" cy="100.46" rx="95.12" ry="79.67"/><ellipse class="cls-23" cx="151.78" cy="111.82" rx="119.53" ry="80.57" transform="translate(-19.1 191.45) rotate(-61.36)"/><ellipse class="cls-24" cx="167.61" cy="125.74" rx="57.37" ry="93.72" transform="translate(-12.47 232.87) rotate(-67.62)"/></symbol><symbol id="New_Symbol_2" data-name="New Symbol 2" viewBox="0 0 257.01 223.64"><ellipse class="cls-28" cx="95.12" cy="100.46" rx="95.12" ry="79.67"/><ellipse class="cls-29" cx="151.78" cy="111.82" rx="119.53" ry="80.57" transform="translate(-19.1 191.45) rotate(-61.36)"/><ellipse class="cls-30" cx="167.61" cy="125.74" rx="57.37" ry="93.72" transform="translate(-12.47 232.87) rotate(-67.62)"/></symbol><symbol id="New_Symbol_3" data-name="New Symbol 3" viewBox="0 0 174.77 164.37"><ellipse class="cls-31" cx="68.47" cy="72.31" rx="68.47" ry="57.35"/><ellipse class="cls-32" cx="109.26" cy="80.49" rx="86.04" ry="58" transform="translate(-13.75 137.81) rotate(-61.36)"/><ellipse class="cls-33" cx="109.26" cy="118.34" rx="41.3" ry="67.46" transform="translate(-41.76 174.32) rotate(-67.62)"/></symbol></defs><title>Ресурс 14weather</title><g class="cls-34"><g id="Слой_2" data-name="Слой 2"><g id="Layer_2" data-name="Layer 2"><g class="cls-35"><circle class="cls-36" cx="75.47" cy="75.47" r="75.47"/></g><g class="cls-37"><circle class="cls-38" cx="24.01" cy="92.12" r="3.22"/></g><g class="cls-39"><circle class="cls-38" cx="40.17" cy="96.68" r="3.22"/></g><g class="cls-40"><circle class="cls-38" cx="79.55" cy="122.57" r="3.22"/></g><g class="cls-41"><circle class="cls-38" cx="120.31" cy="113.52" r="3.22"/></g><g class="cls-42"><circle class="cls-38" cx="86" cy="115.68" r="1.12"/></g><g class="cls-43"><circle class="cls-38" cx="59.54" cy="109.73" r="1.12"/></g><g class="cls-44"><circle class="cls-38" cx="84.63" cy="106.75" r="1.12"/></g><g class="cls-45"><circle class="cls-38" cx="124.65" cy="100.67" r="1.12"/></g><g class="cls-46"><circle class="cls-38" cx="133.06" cy="86.9" r="1.12"/></g><g class="cls-47"><circle class="cls-38" cx="97.87" cy="100.54" r="1.12"/></g><g class="cls-48"><circle class="cls-38" cx="41.31" cy="103.74" r="1.12"/></g><g class="cls-49"><circle class="cls-38" cx="58.42" cy="119.34" r="1.12"/></g><g class="cls-50"><circle class="cls-38" cx="18.68" cy="83.52" r="1.12"/></g><g class="cls-51"><circle class="cls-38" cx="72.91" cy="103.25" r="1.12"/></g><g class="cls-52"><circle class="cls-38" cx="107.12" cy="124.27" r="1.12"/></g><g class="cls-53"><circle class="cls-38" cx="69.62" cy="132.2" r="1.12"/></g><path class="cls-38" d="M73.53,113.7a.65.65,0,0,0-.62.44h-.27a1.64,1.64,0,0,0-.33-.79l.19-.19a.65.65,0,1,0-.31-.3L72,113a1.64,1.64,0,0,0-.79-.33v-.27a.65.65,0,1,0-.43,0v.27A1.63,1.63,0,0,0,70,113l-.19-.19a.65.65,0,1,0-.3.3l.19.19a1.64,1.64,0,0,0-.33.79H69.1a.65.65,0,1,0,0,.43h.27a1.65,1.65,0,0,0,.33.79l-.19.19a.65.65,0,1,0,.3.31l.19-.19a1.66,1.66,0,0,0,.79.33v.27a.65.65,0,1,0,.43,0V116a1.65,1.65,0,0,0,.79-.33l.19.19a.65.65,0,1,0,.31-.31l-.19-.19a1.65,1.65,0,0,0,.33-.79h.27a.65.65,0,1,0,.62-.87Zm-1.05-1.45a.45.45,0,1,1,.19.75h-.17l0,0,0,0h0v0h0v0h0v0h0v0h0v0h0v0h0v0A.45.45,0,0,1,72.47,112.26Zm-2.82.44v0h0v0h0v0h0v0h0l0,0h0v0h0v0h0l0,0,0,0h0l0,0h-.1a.45.45,0,1,1,.3-.31Zm-.72,1.68h0v0h0v0h0v0h0v0h0v0h0v0h0v0a.44.44,0,0,1-.39.23.45.45,0,1,1,.39-.66v0h0v0h0v0h0v0h0v0h0v0h0v0h0v.05Zm.61,2.07a.45.45,0,1,1-.19-.75h.17l0,0,0,0h0v0h0v0h0l0,0h0v0h0v0h0v0h0v0A.45.45,0,0,1,69.54,116.45Zm2.82-.44v0h0v0h0v0h0v0h0v0h0v0h0v0h0l0,0,0,0h.17a.45.45,0,1,1-.3.3Zm-.17-2.54a1.45,1.45,0,0,1,.27.66H71.9a.9.9,0,0,0-.11-.27Zm-.31-.3-.4.4a.85.85,0,0,0-.27-.11v-.56A1.44,1.44,0,0,1,71.88,113.17ZM71,114.8a.45.45,0,1,1,.45-.45A.45.45,0,0,1,71,114.8Zm-.45-3a.45.45,0,1,1,.66.39h-.43A.45.45,0,0,1,70.56,111.84Zm.23,1.06v.56a.83.83,0,0,0-.27.11l-.4-.4A1.45,1.45,0,0,1,70.79,112.9Zm-1,.58.4.4a.85.85,0,0,0-.11.27h-.56A1.45,1.45,0,0,1,69.82,113.48Zm0,1.76a1.45,1.45,0,0,1-.27-.66h.56a.88.88,0,0,0,.11.27Zm.3.31.4-.4a.92.92,0,0,0,.27.11v.56A1.47,1.47,0,0,1,70.13,115.54Zm1.32,1.34a.45.45,0,1,1-.66-.39h.43A.45.45,0,0,1,71.45,116.88Zm-.23-1.06v-.56a.94.94,0,0,0,.27-.11l.4.4A1.46,1.46,0,0,1,71.22,115.81Zm1-.58-.4-.4a.93.93,0,0,0,.11-.27h.56A1.45,1.45,0,0,1,72.19,115.23Zm1.34-.43a.44.44,0,0,1-.39-.23v0h0v0h0v0h0v0h0v0h0v0h0v0h0v-.05h0v0h0v0h0v0h0v0h0v0h0v0h0v0a.45.45,0,1,1,.39.66Z"/><path class="cls-38" d="M115,104.17a.65.65,0,0,0-.62.44h-.27a1.64,1.64,0,0,0-.33-.79l.19-.19a.65.65,0,1,0-.3-.3l-.19.19a1.64,1.64,0,0,0-.79-.33v-.27a.65.65,0,1,0-.43,0v.27a1.64,1.64,0,0,0-.79.33l-.19-.19a.66.66,0,1,0-.31.3l.19.19a1.65,1.65,0,0,0-.33.79h-.27a.65.65,0,1,0,0,.43h.27a1.65,1.65,0,0,0,.33.79l-.19.19a.65.65,0,1,0,.31.3l.19-.19a1.65,1.65,0,0,0,.79.33v.27a.65.65,0,1,0,.43,0v-.27a1.65,1.65,0,0,0,.79-.33l.19.19a.65.65,0,1,0,.3-.3l-.19-.19a1.65,1.65,0,0,0,.33-.79h.27a.65.65,0,1,0,.62-.87Zm-1.06-1.45a.45.45,0,1,1,.19.74h-.17l0,0,0,0h0v0h0v0h0v0h0v0h0v0h0v0h0v0A.45.45,0,0,1,113.91,102.72Zm-2.82.44v0h0v0h0v0h0v0h0v0h0v0h0v0h0l0,0,0,0h-.17a.45.45,0,0,1-.44-.74.44.44,0,0,1,.63,0A.45.45,0,0,1,111.09,103.16Zm-.72,1.68h0v0h0v0h0v0h0v0h0v0h0v0h0v0a.45.45,0,1,1,0-.43v0h0v0h0v0h0v0h0v0h0v0h0v0h0v.05Zm.61,2.07a.45.45,0,1,1-.19-.75H111l0,0,0,0h0v0h0v0h0v0h0v0h0v0h0v0h0v0A.45.45,0,0,1,111,106.92Zm2.82-.44v0h0v0h0v0h0v0h0v0h0v0h0l0,0,0,0h.17a.45.45,0,1,1-.31.3Zm-.17-2.54a1.47,1.47,0,0,1,.28.66h-.56a.88.88,0,0,0-.11-.27Zm-.31-.3-.39.4a.88.88,0,0,0-.27-.11v-.56A1.44,1.44,0,0,1,113.32,103.64Zm-.88,1.63a.45.45,0,1,1,.45-.45A.45.45,0,0,1,112.44,105.27Zm-.45-3a.45.45,0,1,1,.66.39h-.43A.45.45,0,0,1,112,102.3Zm.23,1.06v.56a.87.87,0,0,0-.27.11l-.4-.4A1.47,1.47,0,0,1,112.23,103.36Zm-1,.58.39.4a1,1,0,0,0-.11.27H111A1.44,1.44,0,0,1,111.26,103.94Zm0,1.76A1.44,1.44,0,0,1,111,105h.56a1,1,0,0,0,.11.27Zm.3.31.4-.4a.9.9,0,0,0,.27.11v.56A1.5,1.5,0,0,1,111.56,106Zm1.32,1.34a.45.45,0,1,1-.66-.39h.43A.44.44,0,0,1,112.89,107.34Zm-.23-1.06v-.56a.92.92,0,0,0,.27-.11l.39.4A1.47,1.47,0,0,1,112.66,106.28Zm1-.58-.4-.4a.87.87,0,0,0,.11-.27h.56A1.47,1.47,0,0,1,113.62,105.7Zm1.34-.43a.45.45,0,0,1-.39-.23v0h0v0h0v0h0v0h0v0h0v0h0a.05.05,0,0,0,0,0h0v-.05h0a.06.06,0,0,0,0,0h0v0h0v0h0v0h0v0h0v0h0v0a.45.45,0,1,1,.39.66Z"/><path class="cls-38" d="M91.48,133.6a.66.66,0,0,0-.62.44H90.6a1.64,1.64,0,0,0-.33-.79l.19-.19a.65.65,0,1,0-.18-1,.66.66,0,0,0-.13.75l-.19.19a1.66,1.66,0,0,0-.79-.33v-.27a.65.65,0,1,0-.43,0v.27a1.64,1.64,0,0,0-.79.33l-.19-.19a.65.65,0,1,0-.3.3l.19.19a1.66,1.66,0,0,0-.33.79h-.26a.65.65,0,1,0,0,.43h.26a1.66,1.66,0,0,0,.33.79l-.19.19a.65.65,0,1,0,.3.3l.19-.19a1.62,1.62,0,0,0,.79.33v.27a.65.65,0,1,0,.43,0v-.27a1.63,1.63,0,0,0,.79-.33l.19.19a.65.65,0,0,0,1.05.74.65.65,0,0,0-.74-1l-.19-.19a1.65,1.65,0,0,0,.33-.79h.27a.65.65,0,0,0,1.27-.22A.65.65,0,0,0,91.48,133.6Zm-1.06-1.45a.45.45,0,1,1,.19.75h-.17l0,0,0,0h0v0h0l0,0h0v0h0v0h0v0h0v0A.45.45,0,0,1,90.43,132.15Zm-2.82.44v0h0v0h0v0h0v0h0v0h0v0h0l0,0,0,0H87.3a.45.45,0,1,1,.31-.3Zm-.72,1.68h0a.05.05,0,0,1,0,0h0v0h0v0h0v0h0v0h0v0h0v0a.45.45,0,1,1,0-.43v0h0v0h0v0h0v0h0v0h0v0h0a.06.06,0,0,1,0,0h0v.05Zm.61,2.07a.45.45,0,1,1-.19-.75h.17l0,0,0,0h0v0h0v0h0v0h0v0h0v0h0v0h0v0A.45.45,0,0,1,87.5,136.35Zm2.82-.44v0h0v0h0v0h0v0h0l0,0h0v0h0v0h0l0,0,0,0h.17a.45.45,0,0,1,.44.11.45.45,0,1,1-.75.19Zm-.17-2.54a1.48,1.48,0,0,1,.27.66h-.56a.92.92,0,0,0-.11-.27Zm-.3-.3-.4.4a.89.89,0,0,0-.26-.11v-.56A1.47,1.47,0,0,1,89.84,133.07ZM89,134.7a.45.45,0,1,1,.45-.45A.45.45,0,0,1,89,134.7Zm-.45-3a.45.45,0,1,1,.66.39h-.43A.44.44,0,0,1,88.51,131.73Zm.23,1.06v.56a.86.86,0,0,0-.27.11l-.4-.4A1.45,1.45,0,0,1,88.75,132.79Zm-1,.58.4.4a1,1,0,0,0-.11.27H87.5A1.45,1.45,0,0,1,87.78,133.37Zm0,1.76a1.45,1.45,0,0,1-.27-.66h.56a.93.93,0,0,0,.11.26Zm.31.3.4-.4a.89.89,0,0,0,.27.11v.56A1.46,1.46,0,0,1,88.08,135.43Zm1.32,1.34a.45.45,0,1,1-.66-.39h.43A.45.45,0,0,1,89.41,136.77Zm-.23-1.06v-.56a.92.92,0,0,0,.26-.11l.4.4A1.49,1.49,0,0,1,89.18,135.71Zm1-.58-.4-.4a.87.87,0,0,0,.11-.26h.56A1.49,1.49,0,0,1,90.14,135.13Zm1.34-.43a.45.45,0,0,1-.39-.23v0h0v0h0v0h0v0h0v0h0v0h0v0h0v-.05h0v0h0v0h0v0h0v0h0v0h0v0h0v0a.45.45,0,1,1,.39.66Z"/><path class="cls-38" d="M127.27,86.09a.39.39,0,0,0-.37.26h-.16a1,1,0,0,0-.19-.47l.11-.11a.39.39,0,0,0,.45-.62.39.39,0,0,0-.63.44l-.11.11a1,1,0,0,0-.47-.19v-.16a.39.39,0,0,0,.26-.37.39.39,0,1,0-.52.37v.16a1,1,0,0,0-.47.19l-.11-.11a.39.39,0,1,0-.18.18l.11.11a1,1,0,0,0-.2.47h-.16a.39.39,0,0,0-.37-.26.39.39,0,1,0,.37.52h.16a1,1,0,0,0,.2.47l-.11.11a.39.39,0,1,0,.18.18l.11-.11a1,1,0,0,0,.47.19v.16a.39.39,0,1,0,.26,0v-.16a1,1,0,0,0,.47-.19l.11.11a.39.39,0,1,0,.18-.18l-.11-.11a1,1,0,0,0,.19-.47h.16a.39.39,0,1,0,.37-.52Zm-.63-.86a.27.27,0,1,1,.11.44h-.18A.27.27,0,0,1,126.64,85.23Zm-1.68.26v0h-.18a.27.27,0,1,1,.11-.44A.26.26,0,0,1,125,85.49Zm-.43,1h0v0h0a.27.27,0,1,1,0-.26h0v0h0v0Zm.36,1.23a.27.27,0,1,1-.11-.44h.16v0h0v0A.26.26,0,0,1,124.9,87.73Zm1.68-.26v0h.17a.27.27,0,1,1-.11.44A.27.27,0,0,1,126.58,87.47Zm-.1-1.51a.84.84,0,0,1,.16.39h-.33a.54.54,0,0,0-.07-.16Zm-.18-.18-.24.24-.16-.07v-.33A.87.87,0,0,1,126.29,85.78Zm-.52,1a.27.27,0,1,1,.27-.27A.27.27,0,0,1,125.77,86.75ZM125.5,85a.27.27,0,1,1,.39.23h-.26A.27.27,0,0,1,125.5,85Zm.14.63v.33l-.16.07-.23-.24A.87.87,0,0,1,125.64,85.61Zm-.58.34.24.24a.56.56,0,0,0-.07.16h-.33A.88.88,0,0,1,125.07,86Zm0,1a.87.87,0,0,1-.16-.39h.33a.56.56,0,0,0,.07.16Zm.18.18.23-.24.16.07v.33A.87.87,0,0,1,125.25,87.18Zm.79.8a.27.27,0,1,1-.39-.23h.26A.27.27,0,0,1,126,88Zm-.14-.63V87l.16-.07.24.24A.87.87,0,0,1,125.9,87.35Zm.57-.35-.24-.23a.53.53,0,0,0,.07-.16h.33A.83.83,0,0,1,126.47,87Zm.8-.26a.26.26,0,0,1-.23-.14h0v0h0v0h0a.27.27,0,1,1,.23.39Z"/><path class="cls-38" d="M56.86,94.41a.39.39,0,0,0-.37.26h-.16a1,1,0,0,0-.19-.47l.11-.11a.39.39,0,1,0-.18-.18L56,94a1,1,0,0,0-.47-.19v-.16a.39.39,0,1,0-.26,0v.16a1,1,0,0,0-.47.19l-.11-.11a.39.39,0,1,0-.18.18l.11.11a1,1,0,0,0-.19.47h-.16a.39.39,0,1,0,0,.25h.16a1,1,0,0,0,.19.47l-.11.11a.39.39,0,1,0,.18.18l.11-.11a1,1,0,0,0,.47.19v.16a.39.39,0,1,0,.26,0v-.16a1,1,0,0,0,.47-.19l.11.11a.39.39,0,1,0,.18-.18l-.11-.11a1,1,0,0,0,.19-.47h.16a.39.39,0,1,0,.37-.52Zm-.63-.86a.27.27,0,0,1,.38.38.26.26,0,0,1-.26.07h-.18v0A.27.27,0,0,1,56.23,93.55Zm-1.68.26v0h-.18a.26.26,0,0,1-.26-.07.27.27,0,1,1,.44-.11Zm-.43,1h0v0h0a.27.27,0,1,1,0-.25h0v0h0v0ZM54.49,96a.27.27,0,1,1-.11-.44h.15v0h0A.27.27,0,0,1,54.49,96Zm1.68-.26h.18a.27.27,0,1,1-.18.18Zm-.1-1.51a.88.88,0,0,1,.16.39h-.33a.52.52,0,0,0-.06-.16Zm-.18-.18-.24.24a.55.55,0,0,0-.16-.06v-.33A.87.87,0,0,1,55.88,94.09Zm-.52,1a.27.27,0,1,1,.27-.27A.27.27,0,0,1,55.36,95.06Zm-.27-1.76a.27.27,0,1,1,.39.23h-.26A.27.27,0,0,1,55.09,93.3Zm.14.63v.33a.54.54,0,0,0-.16.06l-.24-.24A.88.88,0,0,1,55.23,93.93Zm-.57.34.24.24a.58.58,0,0,0-.07.16h-.33A.87.87,0,0,1,54.66,94.27Zm0,1a.87.87,0,0,1-.16-.39h.33a.58.58,0,0,0,.07.16Zm.18.18.24-.24a.55.55,0,0,0,.16.06v.33A.87.87,0,0,1,54.84,95.5Zm.79.79a.27.27,0,1,1-.39-.23h.26A.26.26,0,0,1,55.63,96.29Zm-.14-.63v-.33a.56.56,0,0,0,.16-.06l.24.24A.86.86,0,0,1,55.49,95.66Zm.58-.34-.24-.24a.53.53,0,0,0,.06-.16h.33A.88.88,0,0,1,56.06,95.32Zm.8-.26a.27.27,0,0,1-.23-.14h0v0h0a.27.27,0,1,1,.23.39Z"/><path class="cls-38" d="M103.2,113.53a.39.39,0,0,0-.37.26h-.16a1,1,0,0,0-.2-.47l.11-.11a.39.39,0,1,0-.11-.62.39.39,0,0,0-.08.44l-.11.11a1,1,0,0,0-.47-.19v-.16a.39.39,0,1,0-.26,0v.16a1,1,0,0,0-.47.19L101,113a.39.39,0,0,0-.07-.44.39.39,0,1,0-.11.62l.11.11a1,1,0,0,0-.2.47h-.16a.39.39,0,1,0,0,.26h.16a1,1,0,0,0,.2.47l-.11.11a.39.39,0,1,0,.11.62.39.39,0,0,0,.07-.44l.11-.11a1,1,0,0,0,.47.2v.16a.39.39,0,1,0,.26,0v-.16a1,1,0,0,0,.47-.19l.11.11a.39.39,0,0,0,.08.44.39.39,0,1,0,.11-.62l-.11-.11a1,1,0,0,0,.2-.47h.16a.39.39,0,1,0,.37-.52Zm-.63-.86a.27.27,0,1,1,.12.44h-.18v0A.27.27,0,0,1,102.58,112.67Zm-1.68.26v0h-.18a.27.27,0,1,1,.18-.18Zm-.43,1h0v0h0v0h0a.26.26,0,0,1-.23.14.27.27,0,1,1,.23-.39v0h0v0h0Zm.36,1.23a.27.27,0,0,1-.38-.37.26.26,0,0,1,.26-.07h.18v0A.27.27,0,0,1,100.84,115.17Zm1.68-.26v0h.18a.26.26,0,0,1,.26.07.27.27,0,1,1-.38.38A.27.27,0,0,1,102.51,114.91Zm-.1-1.51a.85.85,0,0,1,.16.39h-.33a.5.5,0,0,0-.07-.16Zm-.18-.18-.24.24a.54.54,0,0,0-.16-.07v-.33A.85.85,0,0,1,102.23,113.22Zm-.52,1a.27.27,0,1,1,.27-.27A.27.27,0,0,1,101.71,114.19Zm-.27-1.77a.27.27,0,1,1,.39.23h-.26A.27.27,0,0,1,101.44,112.42Zm.14.63v.33a.52.52,0,0,0-.16.07l-.24-.24A.86.86,0,0,1,101.58,113.05Zm-.58.34.24.24a.55.55,0,0,0-.06.16h-.33A.89.89,0,0,1,101,113.4Zm0,1a.88.88,0,0,1-.16-.4h.33a.58.58,0,0,0,.06.16Zm.18.18.24-.24.16.07v.33A.89.89,0,0,1,101.19,114.62Zm.79.8a.27.27,0,1,1-.39-.23h.26A.27.27,0,0,1,102,115.42Zm-.14-.63v-.33l.16-.07.24.24A.88.88,0,0,1,101.84,114.79Zm.57-.34-.24-.24a.53.53,0,0,0,.07-.16h.33A.84.84,0,0,1,102.41,114.44Zm.79-.26A.26.26,0,0,1,103,114h0v0h0v0h0v0a.27.27,0,1,1,.23.39Z"/><path class="cls-38" d="M44.89,122.76a.39.39,0,0,0-.37.26h-.16a1,1,0,0,0-.2-.47l.11-.11a.39.39,0,1,0-.18-.18l-.11.11a1,1,0,0,0-.47-.19V122a.39.39,0,1,0-.25,0v.16a1,1,0,0,0-.47.19l-.11-.11a.39.39,0,1,0-.18.18l.11.11a1,1,0,0,0-.19.47h-.16a.39.39,0,1,0,0,.26h.16a1,1,0,0,0,.19.47l-.11.11a.39.39,0,1,0,.18.18l.11-.11a1,1,0,0,0,.47.19v.16a.39.39,0,1,0,.25,0v-.16a1,1,0,0,0,.47-.19l.11.11a.39.39,0,1,0,.18-.18l-.11-.11a1,1,0,0,0,.2-.47h.16a.39.39,0,1,0,.37-.52Zm-.63-.86a.27.27,0,1,1,.38.38.27.27,0,0,1-.26.07H44.2v0A.27.27,0,0,1,44.26,121.9Zm-1.68.26v0h-.18a.27.27,0,0,1-.26-.07.27.27,0,0,1,.38-.37A.27.27,0,0,1,42.59,122.16Zm-.43,1h0v0h0a.27.27,0,1,1,0-.26h0v0h0v0h0v0h0v0Zm.36,1.23a.27.27,0,1,1-.11-.44h.18v0A.27.27,0,0,1,42.52,124.4Zm1.68-.26v0h.18a.27.27,0,0,1,.26.44.27.27,0,0,1-.44-.26Zm-.1-1.51a.85.85,0,0,1,.16.39h-.33a.52.52,0,0,0-.06-.16Zm-.18-.18-.24.24a.56.56,0,0,0-.16-.07v-.33A.9.9,0,0,1,43.92,122.45Zm-.52,1a.27.27,0,1,1,.27-.26A.27.27,0,0,1,43.39,123.42Zm-.27-1.76a.27.27,0,1,1,.39.23h-.25A.27.27,0,0,1,43.13,121.65Zm.14.63v.33a.54.54,0,0,0-.16.07l-.24-.24A.89.89,0,0,1,43.27,122.28Zm-.58.34.24.24a.5.5,0,0,0-.07.16h-.33A.87.87,0,0,1,42.69,122.63Zm0,1a.88.88,0,0,1-.16-.39h.33a.51.51,0,0,0,.07.16Zm.18.18.24-.24a.53.53,0,0,0,.16.07V124A.87.87,0,0,1,42.87,123.85Zm.79.8a.27.27,0,1,1-.39-.23h.25A.26.26,0,0,1,43.66,124.65Zm-.14-.63v-.33a.55.55,0,0,0,.16-.07l.24.24A.88.88,0,0,1,43.52,124Zm.58-.34-.24-.24a.53.53,0,0,0,.06-.16h.33A.86.86,0,0,1,44.1,123.67Zm.8-.26a.26.26,0,0,1-.23-.14h0v0h0v0h0v0h0v0h0v0h0a.27.27,0,1,1,.23.39Z"/><path class="cls-38" d="M52.06,107.48a.39.39,0,0,0-.37.26h-.16a1,1,0,0,0-.19-.47l.11-.11a.39.39,0,1,0-.11-.63.39.39,0,0,0-.08.44l-.11.11a1,1,0,0,0-.47-.19v-.16a.39.39,0,1,0-.26,0v.16a1,1,0,0,0-.47.19l-.11-.11a.39.39,0,1,0-.18.18l.11.11a1,1,0,0,0-.19.47h-.16a.39.39,0,1,0,0,.25h.16a1,1,0,0,0,.19.47l-.11.11a.39.39,0,1,0,.18.18l.11-.11a1,1,0,0,0,.47.19V109a.39.39,0,1,0,.26,0v-.16a1,1,0,0,0,.47-.19l.11.11a.39.39,0,1,0,.18-.18l-.11-.11a1,1,0,0,0,.19-.47h.16a.39.39,0,1,0,.37-.52Zm-.63-.86a.27.27,0,0,1,.38.38.26.26,0,0,1-.26.07h-.18A.27.27,0,0,1,51.43,106.62Zm-1.68.26v0h-.18a.27.27,0,0,1-.26-.44.27.27,0,0,1,.44.26Zm-.43,1h0v0h0v0h0a.27.27,0,1,1,0-.25h0v0h0v0Zm.36,1.23a.26.26,0,1,1-.11-.44h.18v0A.26.26,0,0,1,49.69,109.11Zm1.68-.26v0h.17a.27.27,0,1,1-.18.18Zm-.1-1.51a.86.86,0,0,1,.16.39h-.33a.58.58,0,0,0-.07-.16Zm-.18-.18-.24.24a.5.5,0,0,0-.16-.06V107A.87.87,0,0,1,51.08,107.16Zm-.52,1a.27.27,0,1,1,.27-.27A.27.27,0,0,1,50.56,108.13Zm-.27-1.76a.27.27,0,1,1,.39.23h-.26A.26.26,0,0,1,50.29,106.37Zm.14.63v.34a.51.51,0,0,0-.16.06l-.24-.24A.88.88,0,0,1,50.43,107Zm-.58.35.23.24a.58.58,0,0,0-.06.16h-.33A.87.87,0,0,1,49.86,107.34Zm0,1a.88.88,0,0,1-.16-.39H50a.55.55,0,0,0,.06.16Zm.18.18.24-.24.16.07v.33A.86.86,0,0,1,50,108.57Zm.79.8a.27.27,0,1,1-.39-.23h.26A.27.27,0,0,1,50.82,109.36Zm-.14-.63v-.33l.16-.07.24.24A.86.86,0,0,1,50.69,108.73Zm.58-.34-.24-.24a.55.55,0,0,0,.07-.16h.33A.86.86,0,0,1,51.26,108.39Zm.79-.26a.27.27,0,0,1-.23-.14h0v0h0v0h0v0h0v0h0a.27.27,0,1,1,.23.39Z"/><use width="257.01" height="223.64" transform="matrix(-0.11, -0.01, 0, -0.16, 71.78, 71.29)" xlink:href="#New_Symbol"/><use width="257.01" height="223.64" transform="matrix(-0.11, -0.01, 0, -0.16, 59.43, 68.7)" xlink:href="#New_Symbol"/><use width="257.01" height="223.64" transform="matrix(-0.11, -0.01, 0, -0.16, 55.04, 66.41)" xlink:href="#New_Symbol"/><use width="257.01" height="223.64" transform="matrix(-0.11, -0.01, 0, -0.16, 50.22, 67.97)" xlink:href="#New_Symbol"/><use width="257.01" height="223.64" transform="matrix(-0.17, -0.02, 0, -0.15, 132.21, 69.98)" xlink:href="#New_Symbol_2"/><use width="257.01" height="223.64" transform="matrix(-0.17, -0.02, 0, -0.15, 99.69, 57.03)" xlink:href="#New_Symbol_2"/><use width="257.01" height="223.64" transform="matrix(-0.17, -0.02, 0, -0.15, 72, 69.81)" xlink:href="#New_Symbol_2"/><use width="257.01" height="223.64" transform="matrix(-0.17, -0.02, 0, -0.15, 82.36, 62.77)" xlink:href="#New_Symbol_2"/><use width="257.01" height="223.64" transform="matrix(-0.17, -0.02, 0, -0.19, 118.48, 72)" xlink:href="#New_Symbol_2"/><use width="257.01" height="223.64" transform="matrix(-0.17, -0.02, 0, -0.19, 64.24, 73.22)" xlink:href="#New_Symbol_2"/><g class="cls-54"><circle class="cls-55" cx="69.76" cy="58.97" r="34.09"/></g><circle class="cls-56" cx="69.76" cy="59.05" r="26.73"/><g class="cls-57"><path class="cls-38" d="M93.29,65.33c1.32,1.32-.71,7.08-5.51,11.88S77.21,84,75.9,82.72s1.51-6.28,6.31-11.08S92,64,93.29,65.33Z"/></g><g class="cls-58"><ellipse class="cls-59" cx="61.43" cy="48.72" rx="18.35" ry="12.41" transform="translate(-16.85 53.11) rotate(-41.63)"/></g><g class="cls-60"><path class="cls-61" d="M101.37,73.26l-7.45-2.77c.15-.32.3-.64.44-1Zm-9.59.94-.32.45L95,76.82Zm3.14-6.12,3.33.92-3.18-1.35Zm1.13-4.23c0,.26-.1.52-.15.78l5.9.76Zm.23-1.51c0,.34-.09.68-.15,1l7.69.58Zm.19-4.1c0,.27,0,.54,0,.81s0,.54,0,.81l12.1-.81Zm-4.73-14.4.44.66,4.71-3.63Zm2.81,5.22q.2.49.38,1l7.22-3.31ZM96,54.18c0,.18.07.36.1.55l4.06-1Zm-2.11-6.54,3-1.71-3.21,1.29ZM81.2,34.89,84,27.44l-3.73,7Zm2.42,1.31,4.84-10-6.13,9.28C82.77,35.69,83.2,35.94,83.62,36.19ZM96.44,57.37q0,.28,0,.56l4.15-.5ZM87.33,38.91l6-8.37L86.27,38C86.63,38.31,87,38.61,87.33,38.91Zm-10-5.5,2.25-11.69L75.78,33C76.3,33.12,76.81,33.26,77.31,33.4Zm1.47.48.92-3.33-1.35,3.18Zm10.43,6.85,8-9.12-9.12,8Q88.67,40.14,89.22,40.73Zm4,5.53,9.86-6.68L92.43,44.89C92.71,45.34,93,45.79,93.24,46.26ZM75.33,32.9l.76-5.9-1.54,5.75Zm21.1,24.33,10.2-1.65-10.32.28Q96.38,56.54,96.43,57.23Zm-5-13.79,5.85-5-6.47,4.2Q91.16,43,91.46,43.44Zm4.27,9.25L106.23,49,95.34,51.26Q95.55,52,95.73,52.69ZM44.59,50l-3.33-.92,3.18,1.35Zm.57-1.45c.14-.32.28-.65.43-1l-7.45-2.77Zm-1.7,5.68c0-.26.1-.52.15-.78l-5.9-.76Zm-.31,2.33-5.43-.07,5.38.79C43.1,57.06,43.12,56.82,43.14,56.58Zm.09-.82c0-.34.09-.68.15-1l-7.69-.58Zm-.15,5c0-.18,0-.37,0-.56l-4.15.5Zm46.73,16-.37.41,3.29,2.58ZM47.73,43.91l.32-.45-3.57-2.17ZM96.43,60.8c0,.24,0,.48-.06.72l5.43.07ZM49.71,41.37l.37-.41L46.8,38.37ZM52.08,79.1l-.41-.37L49.08,82ZM84.9,37l.46.32,2.17-3.57ZM54.62,81.08l-.45-.32L52,84.33Zm-.06-44,.66-.44-3.63-4.71ZM87.44,39l.41.37,2.58-3.29ZM85,81l-.66.44,3.63,4.71ZM47.78,74.26l-.44-.66-4.71,3.64Zm-2.19-3.79-3,1.71,3.21-1.29Zm4.08,6.21-.47-.55-3.89,3.79ZM45,69q-.2-.49-.38-1l-7.22,3.31Zm-1.49-5.12q-.05-.27-.09-.55l-4.06,1ZM89.86,41.43l.47.55,3.89-3.79Zm-24.4,44-.58,7.69,1.6-7.54Zm1.84.23-.07,5.43L68,85.72Zm2.47.12H69l.81,12.1.81-12.1Zm1.12,0,.5,4.15.06-4.18Zm3.2-.32,1,4.06-.44-4.15Zm-2.5.29,1.65,10.19-.28-10.32Q72.27,85.67,71.58,85.72ZM52.19,79.19l-6,8.37,7.1-7.5C52.89,79.79,52.53,79.5,52.19,79.19Zm12,6-.76,5.9L65,85.35ZM55.9,81.91l-4.85,10,6.13-9.28C56.75,82.41,56.32,82.17,55.9,81.91Zm6.31,2.79L60,96.39,63.74,85.1C63.22,85,62.71,84.84,62.21,84.7Zm-1.47-.48-.92,3.33,1.35-3.18Zm-2.41-1-2.77,7.45,3.73-7ZM89.9,76.62l8.37,6-7.5-7.1Q90.36,76.11,89.9,76.62Zm-1.82,1.89,9.12,8-8-9.12Q88.67,78,88.08,78.51Zm4.54-5.6,10,4.85-9.28-6.13C93.12,72.06,92.88,72.49,92.62,72.91Zm2.79-6.31,11.69,2.25L95.81,65.07C95.69,65.59,95.55,66.1,95.41,66.61Zm-8.57,13,3.79,3.89-3.24-4.36ZM76.12,85l3.65,10.5L77.55,84.63Q76.85,84.84,76.12,85Zm5.05-1.79,1.71,3L81.59,83Zm-2.41,1,3.31,7.22-2.32-7.6Zm6.61-3.48,5,5.85-4.2-6.47Zm-2.82,1.78,6.68,9.86L83.92,81.72C83.47,82,83,82.27,82.55,82.53Zm-38.44-31L32.42,49.24,43.71,53C43.83,52.51,44,52,44.11,51.5ZM63.4,33.08l-3.65-10.5L62,33.47Q62.68,33.26,63.4,33.08Zm-2.64.79-3.31-7.22,2.32,7.6ZM57,35.57l-6.68-9.86L55.6,36.38Q56.27,36,57,35.57Zm8.47-2.91-1-4.06.44,4.15ZM54.15,37.35l-5-5.85L53.33,38Zm4.2-2.48-1.71-3,1.29,3.21Zm13.88-2.44L72.3,27l-.79,5.37Zm-2.47-.11h.81l-.81-12.1L69,32.33Zm-1.82.06L66.29,22.19l.28,10.32C67,32.46,67.48,32.41,67.94,32.38Zm.7,0-.5-4.15-.06,4.18ZM43.79,65.41l-10.5,3.65,10.89-2.22Q44,66.14,43.79,65.41Zm6.5,12-8,9.12,9.12-8Q50.85,78,50.3,77.37ZM43,59.05c0-.27,0-.54,0-.81l-12.1.81,12.1.81C43,59.59,43,59.32,43,59.05Zm.06,1.82L32.9,62.52l10.32-.28Q43.14,61.56,43.09,60.87Zm5,13.79-5.85,5,6.47-4.2Q48.36,75.08,48.06,74.66Zm-1.78-2.82-9.86,6.68,10.66-5.31C46.81,72.76,46.54,72.31,46.28,71.84Zm6.4-33.36L48.89,34.6,52.14,39Zm-3.07,3-8.37-6,7.5,7.1Q49.17,42,49.62,41.48Zm24.45-8.81L74.65,25,73,32.52ZM51.44,39.59l-9.12-8,8,9.12Q50.85,40.14,51.44,39.59Zm-4.54,5.6-10-4.84,9.28,6.13C46.4,46,46.64,45.61,46.9,45.19Z"/></g><use width="257.01" height="223.64" transform="translate(10.68 58.98) scale(0.18 0.12)" xlink:href="#New_Symbol"/><use width="257.01" height="223.64" transform="translate(30.4 59.86) scale(0.18 0.12)" xlink:href="#New_Symbol"/><use width="257.01" height="223.64" transform="translate(37.4 61.23) scale(0.18 0.12)" xlink:href="#New_Symbol"/><use width="257.01" height="223.64" transform="translate(45.1 59.6) scale(0.18 0.12)" xlink:href="#New_Symbol"/><use width="257.01" height="223.64" transform="translate(84.62 48.72) scale(0.12 0.16)" xlink:href="#New_Symbol"/><use width="257.01" height="223.64" transform="translate(98.38 49.86) scale(0.12 0.16)" xlink:href="#New_Symbol"/><use width="257.01" height="223.64" transform="translate(103.27 51.64) scale(0.12 0.16)" xlink:href="#New_Symbol"/><use width="257.01" height="223.64" transform="translate(108.64 49.52) scale(0.12 0.16)" xlink:href="#New_Symbol"/><use width="257.01" height="223.64" transform="translate(49.51 37.19) scale(0.17 0.23)" xlink:href="#New_Symbol"/><use width="257.01" height="223.64" transform="translate(69.02 38.82) scale(0.17 0.23)" xlink:href="#New_Symbol"/><use width="257.01" height="223.64" transform="translate(75.95 41.34) scale(0.17 0.23)" xlink:href="#New_Symbol"/><use width="257.01" height="223.64" transform="translate(83.57 38.33) scale(0.17 0.23)" xlink:href="#New_Symbol"/><use width="257.01" height="223.64" transform="translate(42.31 72.15) scale(0.12 0.11)" xlink:href="#New_Symbol"/><use width="257.01" height="223.64" transform="translate(55.89 72.95) scale(0.12 0.11)" xlink:href="#New_Symbol"/><use width="257.01" height="223.64" transform="translate(60.71 74.18) scale(0.12 0.11)" xlink:href="#New_Symbol"/><use width="257.01" height="223.64" transform="translate(66.01 72.71) scale(0.12 0.11)" xlink:href="#New_Symbol"/><use width="257.01" height="223.64" transform="translate(58.42 75.46) rotate(180) scale(0.09 0.14)" xlink:href="#New_Symbol"/><use width="257.01" height="223.64" transform="translate(48.87 74.5) rotate(180) scale(0.09 0.14)" xlink:href="#New_Symbol"/><use width="257.01" height="223.64" transform="translate(45.48 73.01) rotate(180) scale(0.09 0.14)" xlink:href="#New_Symbol"/><use width="257.01" height="223.64" transform="translate(41.75 74.79) rotate(180) scale(0.09 0.14)" xlink:href="#New_Symbol"/><use width="257.01" height="223.64" transform="translate(82.74 88.3) scale(0.12 0.04)" xlink:href="#New_Symbol"/><use width="257.01" height="223.64" transform="translate(17.37 57.07) scale(0.19 0.15)" xlink:href="#New_Symbol_2"/><use width="257.01" height="223.64" transform="translate(53.56 66.22) scale(0.19 0.15)" xlink:href="#New_Symbol_2"/><use width="257.01" height="223.64" transform="translate(84.36 50.21) scale(0.19 0.15)" xlink:href="#New_Symbol_2"/><use width="257.01" height="223.64" transform="translate(72.84 58.46) scale(0.19 0.15)" xlink:href="#New_Symbol_2"/><use width="257.01" height="223.64" transform="translate(62.03 58.89) scale(0.18)" xlink:href="#New_Symbol_2"/><use width="257.01" height="223.64" transform="translate(56.76 52.07) scale(0.18)" xlink:href="#New_Symbol_2"/><use width="257.01" height="223.64" transform="translate(40.17 55.83) scale(0.17 0.16)" xlink:href="#New_Symbol_2"/><use width="257.01" height="223.64" transform="translate(94.47 49.32) scale(0.17 0.16)" xlink:href="#New_Symbol_2"/><use width="257.01" height="223.64" transform="translate(15.39 47.72) scale(0.19)" xlink:href="#New_Symbol_2"/><use width="257.01" height="223.64" transform="translate(75.75 40.18) scale(0.19)" xlink:href="#New_Symbol_2"/><use width="174.77" height="164.37" transform="translate(43.85 61.68) scale(0.31 0.14)" xlink:href="#New_Symbol_3"/><use width="174.77" height="164.37" transform="translate(12.43 59.24) scale(0.31 0.14)" xlink:href="#New_Symbol_3"/></g></g></g></svg>