<svg xmlns="http://www.w3.org/2000/svg" xmlns:xlink="http://www.w3.org/1999/xlink" viewBox="0 0 221.13 202.88"><defs><style>.cls-1{fill:#fff;}.cls-2{fill:url(#linear-gradient);}.cls-3{fill:url(#linear-gradient-2);}.cls-4{fill:url(#linear-gradient-3);}.cls-5{fill:url(#linear-gradient-4);}.cls-6{fill:url(#linear-gradient-5);}.cls-7{fill:url(#linear-gradient-6);}.cls-8{fill:url(#linear-gradient-7);}.cls-9{fill:url(#linear-gradient-8);}.cls-10{fill:url(#linear-gradient-9);}</style><linearGradient id="linear-gradient" x1="110.56" y1="30.81" x2="110.56" y2="176" gradientUnits="userSpaceOnUse"><stop offset="0" stop-color="#ffdb00"/><stop offset="1" stop-color="#e8a300"/></linearGradient><linearGradient id="linear-gradient-2" x1="-8482.68" y1="56.04" x2="-8482.68" y2="46.57" gradientTransform="matrix(-1, 0, 0, 1, -8332.42, 0)" gradientUnits="userSpaceOnUse"><stop offset="0" stop-color="#ffdb00"/><stop offset="1" stop-color="#f7bd1f"/></linearGradient><linearGradient id="linear-gradient-3" x1="-8514.09" y1="101.63" x2="-8513.74" y2="79.93" gradientTransform="matrix(-1, 0, 0, 1, -8332.42, 0)" xlink:href="#linear-gradient"/><linearGradient id="linear-gradient-4" x1="13219.91" y1="42.11" x2="13219.91" y2="26.03" gradientTransform="translate(-13130.29)" xlink:href="#linear-gradient-2"/><linearGradient id="linear-gradient-5" x1="9924.64" y1="-2546.32" x2="9925.17" y2="-2578.86" gradientTransform="matrix(1.28, 0.32, -0.25, 0.97, -13312.09, -667.84)" xlink:href="#linear-gradient-2"/><linearGradient id="linear-gradient-6" x1="-8515.81" y1="141.05" x2="-8516.86" y2="127.21" gradientTransform="matrix(-1, 0, 0, 1, -8332.42, 0)" xlink:href="#linear-gradient"/><linearGradient id="linear-gradient-7" x1="-8473.17" y1="136.62" x2="-8472.16" y2="111.46" gradientTransform="matrix(-1, 0, 0, 1, -8332.42, 0)" xlink:href="#linear-gradient"/><linearGradient id="linear-gradient-8" x1="-8447.47" y1="140.18" x2="-8447.47" y2="129.67" gradientTransform="matrix(-1, 0, 0, 1, -8332.42, 0)" xlink:href="#linear-gradient"/><linearGradient id="linear-gradient-9" x1="-8373.07" y1="152.56" x2="-8373.07" y2="129.62" gradientTransform="matrix(-1, 0, 0, 1, -8332.42, 0)" xlink:href="#linear-gradient"/></defs><title>Ресурс 10weather2</title><g id="Слой_2" data-name="Слой 2"><g id="icons"><path class="cls-1" d="M33.39,177.82c19.69,16.4,46.38,25.06,77.17,25.06,30.19,0,57.62-9.1,77.24-25.64,21.8-18.37,33.32-44.58,33.32-75.8S209.6,44,187.8,25.64C168.18,9.11,140.75,0,110.56,0,79.77,0,53.08,8.67,33.39,25.07,11.55,43.26,0,69.67,0,101.44S11.55,159.63,33.39,177.82Z"/><path class="cls-2" d="M206.13,101.44c0,56.3-42.78,86.44-95.56,86.44S15,159.12,15,101.44,57.78,15,110.56,15,206.13,45.14,206.13,101.44Z"/><path class="cls-3" d="M148.73,55.52c-5.74-.79-9.41-8.38-2-9.36,3.39-.45,11,1.27,11.15,5.69C158.09,55.7,152,56,148.73,55.52Z"/><path class="cls-4" d="M177,99.8c-2.85-3.94-3.69-10.77-2.42-17,1-4.83,3.23-5.63,5.74-5.7,4.81-.12,9.79,5.54,8.46,16.26C187.68,101.92,180.41,104.55,177,99.8Z"/><path class="cls-5" d="M92.21,41.21c9.74-1.33,16-14.22,3.33-15.89-5.76-.76-18.61,2.16-18.93,9.65C76.33,41.53,86.66,42,92.21,41.21Z"/><path class="cls-6" d="M55.06,87.92C62,83.58,66.14,74,66,64.33c-.12-7.51-4.14-9.76-8.94-11.08-9.22-2.52-20.87,3.29-22.26,19.52C33.68,85.77,46.7,93.14,55.06,87.92Z"/><path class="cls-7" d="M183.44,140.82c-9.4,3.05-1.4-20.16,4.52-12.45C190.29,131.41,186.75,139.75,183.44,140.82Z"/><path class="cls-8" d="M137.69,138.25c-12.58-.06-21.15-17-9.92-24.71,9.13-6.3,23.42-9.07,28.62,3.38C162.19,130.8,150,138.32,137.69,138.25Z"/><path class="cls-9" d="M114.26,139.49c-11.85-1.17-.42-16.13,5.61-8.45C123.17,135.24,118.62,139.92,114.26,139.49Z"/><path class="cls-10" d="M37.79,132.55C42.35,135.41,52.31,145,50,151.1c-4,10.52-21.35-11.71-18.82-18C32.36,130.23,35.8,131.31,37.79,132.55Z"/></g></g></svg>