<svg xmlns="http://www.w3.org/2000/svg" xmlns:xlink="http://www.w3.org/1999/xlink" viewBox="0 0 151.72 150.94"><defs><style>.cls-1{fill:url(#radial-gradient);}.cls-2{fill:url(#radial-gradient-2);}.cls-3{fill:url(#radial-gradient-3);}.cls-4{fill:url(#radial-gradient-4);}.cls-5{fill:url(#radial-gradient-5);}.cls-6{fill:url(#radial-gradient-6);}.cls-7{fill:url(#radial-gradient-7);}.cls-8{fill:url(#radial-gradient-8);}.cls-9{fill:url(#radial-gradient-9);}.cls-10{fill:url(#radial-gradient-10);}.cls-11{fill:url(#radial-gradient-11);}.cls-12{fill:url(#radial-gradient-12);}.cls-13{fill:url(#radial-gradient-13);}.cls-14{fill:url(#radial-gradient-14);}.cls-15{fill:url(#radial-gradient-15);}.cls-16{fill:url(#radial-gradient-16);}.cls-17{fill:url(#radial-gradient-17);}.cls-18{fill:url(#radial-gradient-18);}.cls-19{fill:url(#radial-gradient-19);}.cls-20{fill:url(#radial-gradient-20);}.cls-21{fill:url(#radial-gradient-21);}.cls-22{fill:url(#radial-gradient-22);}.cls-23{fill:url(#radial-gradient-23);}.cls-24{fill:url(#radial-gradient-24);}.cls-25{fill:url(#radial-gradient-25);}.cls-26{fill:url(#radial-gradient-26);}.cls-27{fill:url(#radial-gradient-27);}.cls-28{fill:url(#radial-gradient-28);}.cls-29{fill:url(#radial-gradient-29);}.cls-30{fill:url(#radial-gradient-30);}.cls-31{fill:url(#radial-gradient-31);}.cls-32{fill:url(#radial-gradient-32);}.cls-33{fill:url(#radial-gradient-33);}.cls-34{mask:url(#mask);}.cls-35{fill:#1b75bb;}.cls-36{fill:url(#linear-gradient);}.cls-37{fill:url(#linear-gradient-2);}.cls-38{fill:url(#linear-gradient-3);}.cls-39{fill:url(#linear-gradient-4);}.cls-40{fill:url(#linear-gradient-5);}.cls-41{fill:url(#linear-gradient-6);}.cls-42{fill:url(#linear-gradient-7);}.cls-43{fill:url(#linear-gradient-8);}.cls-44{fill:url(#linear-gradient-9);}.cls-45{fill:url(#linear-gradient-10);}.cls-46{fill:url(#linear-gradient-11);}.cls-47{fill:url(#linear-gradient-12);}.cls-48{fill:url(#linear-gradient-13);}.cls-49{fill:url(#linear-gradient-14);}.cls-50{fill:url(#linear-gradient-15);}.cls-51{fill:url(#linear-gradient-16);}.cls-52{fill:url(#linear-gradient-17);}.cls-53{fill:url(#linear-gradient-18);}.cls-54{fill:url(#linear-gradient-19);}.cls-55{fill:url(#linear-gradient-20);}.cls-56{fill:url(#linear-gradient-21);}.cls-57{fill:url(#linear-gradient-22);}.cls-58{fill:url(#linear-gradient-23);}.cls-59{fill:url(#linear-gradient-24);}.cls-60{fill:url(#linear-gradient-25);}.cls-61{fill:url(#linear-gradient-26);}.cls-62{fill:url(#linear-gradient-27);}.cls-63{fill:url(#linear-gradient-28);}.cls-64{fill:url(#linear-gradient-29);}.cls-65{fill:url(#linear-gradient-30);}.cls-66{fill:url(#linear-gradient-31);}.cls-67{fill:url(#linear-gradient-32);}.cls-68{fill:url(#linear-gradient-33);}.cls-69{fill:url(#linear-gradient-34);}.cls-70{fill:url(#linear-gradient-35);}.cls-71{fill:url(#linear-gradient-36);}.cls-72{fill:url(#linear-gradient-37);}.cls-73{fill:url(#linear-gradient-38);}.cls-74{fill:url(#linear-gradient-39);}.cls-75{fill:url(#linear-gradient-40);}.cls-76{fill:url(#linear-gradient-41);}.cls-77{fill:url(#linear-gradient-42);}.cls-78{fill:url(#linear-gradient-43);}.cls-79{fill:url(#linear-gradient-44);}.cls-80{fill:url(#linear-gradient-45);}.cls-81{fill:url(#linear-gradient-46);}.cls-82{fill:url(#linear-gradient-47);}.cls-83{fill:url(#linear-gradient-48);}.cls-84{fill:url(#linear-gradient-49);}.cls-85{fill:url(#linear-gradient-50);}.cls-86{fill:url(#linear-gradient-51);}.cls-87{fill:url(#linear-gradient-52);}.cls-88{fill:url(#linear-gradient-53);}.cls-89{fill:url(#linear-gradient-54);}.cls-90{fill:url(#linear-gradient-55);}.cls-91{fill:url(#linear-gradient-56);}.cls-92{fill:url(#linear-gradient-57);}.cls-93{fill:url(#linear-gradient-58);}.cls-94{fill:url(#linear-gradient-59);}.cls-95{fill:url(#linear-gradient-60);}.cls-96{fill:url(#linear-gradient-61);}.cls-97{fill:url(#linear-gradient-62);}.cls-98{fill:url(#linear-gradient-63);}.cls-99{fill:url(#linear-gradient-64);}.cls-100{fill:url(#linear-gradient-65);}.cls-101{fill:url(#linear-gradient-66);}.cls-102{fill:url(#linear-gradient-67);}.cls-103{fill:url(#linear-gradient-68);}.cls-104{fill:url(#linear-gradient-69);}.cls-105{fill:url(#linear-gradient-70);}.cls-106{fill:url(#linear-gradient-71);}.cls-107{fill:url(#linear-gradient-72);}.cls-108{fill:url(#linear-gradient-73);}.cls-109{fill:url(#linear-gradient-74);}.cls-110{fill:url(#linear-gradient-75);}.cls-111{fill:url(#linear-gradient-76);}.cls-112{fill:url(#linear-gradient-77);}.cls-113{fill:url(#linear-gradient-78);}.cls-114{fill:url(#linear-gradient-79);}.cls-115{fill:url(#linear-gradient-80);}.cls-116{fill:url(#linear-gradient-81);}.cls-117{fill:url(#linear-gradient-82);}.cls-118{fill:url(#linear-gradient-83);}.cls-119{fill:url(#linear-gradient-84);}.cls-120{fill:url(#linear-gradient-85);}.cls-121{fill:url(#linear-gradient-86);}.cls-122{fill:url(#linear-gradient-87);}.cls-123{fill:url(#linear-gradient-88);}.cls-124{fill:url(#linear-gradient-89);}.cls-125{fill:url(#linear-gradient-90);}.cls-126{mask:url(#mask-2);}.cls-127{fill:#fff;}.cls-128{mask:url(#mask-3);}.cls-129{mask:url(#mask-4);}.cls-130{mask:url(#mask-5);}.cls-131{mask:url(#mask-6);}.cls-132{mask:url(#mask-7);}.cls-133{mask:url(#mask-8);}.cls-134{mask:url(#mask-9);}.cls-135{mask:url(#mask-10);}.cls-136{mask:url(#mask-11);}.cls-137{mask:url(#mask-12);}.cls-138{mask:url(#mask-13);}.cls-139{mask:url(#mask-14);}.cls-140{mask:url(#mask-15);}.cls-141{mask:url(#mask-16);}.cls-142{mask:url(#mask-17);}.cls-143{mask:url(#mask-18);}.cls-144{mask:url(#mask-19);}.cls-145{mask:url(#mask-20);}.cls-146{mask:url(#mask-21);}</style><radialGradient id="radial-gradient" cx="76.24" cy="75.47" r="75.47" gradientUnits="userSpaceOnUse"><stop offset="0" stop-color="#fff"/><stop offset="0.16" stop-color="#ddd"/><stop offset="0.51" stop-color="#858585"/><stop offset="1"/></radialGradient><radialGradient id="radial-gradient-2" cx="21.56" cy="94.52" r="3.22" xlink:href="#radial-gradient"/><radialGradient id="radial-gradient-3" cx="85.4" cy="104.86" r="1.12" xlink:href="#radial-gradient"/><radialGradient id="radial-gradient-4" cx="125.42" cy="106.52" r="1.12" xlink:href="#radial-gradient"/><radialGradient id="radial-gradient-5" cx="133.84" cy="85.02" r="1.12" xlink:href="#radial-gradient"/><radialGradient id="radial-gradient-6" cx="98.64" cy="98.66" r="1.12" xlink:href="#radial-gradient"/><radialGradient id="radial-gradient-7" cx="32.74" cy="91.87" r="1.12" xlink:href="#radial-gradient"/><radialGradient id="radial-gradient-8" cx="34.34" cy="119.08" r="1.12" xlink:href="#radial-gradient"/><radialGradient id="radial-gradient-9" cx="19.46" cy="81.64" r="1.12" xlink:href="#radial-gradient"/><radialGradient id="radial-gradient-10" cx="73.68" cy="101.37" r="1.12" xlink:href="#radial-gradient"/><radialGradient id="radial-gradient-11" cx="73.68" cy="126.56" r="1.12" xlink:href="#radial-gradient"/><radialGradient id="radial-gradient-12" cx="103.32" cy="112.14" r="1.12" xlink:href="#radial-gradient"/><radialGradient id="radial-gradient-13" cx="56.56" cy="106.15" r="3.22" xlink:href="#radial-gradient"/><radialGradient id="radial-gradient-14" cx="53.75" cy="129.2" r="1.12" xlink:href="#radial-gradient"/><radialGradient id="radial-gradient-15" cx="118.64" cy="103.3" r="3.22" xlink:href="#radial-gradient"/><radialGradient id="radial-gradient-16" cx="126.54" cy="96.08" r="3.22" xlink:href="#radial-gradient"/><radialGradient id="radial-gradient-17" cx="87.82" cy="121.55" r="3.22" xlink:href="#radial-gradient"/><radialGradient id="radial-gradient-18" cx="102.91" cy="104.01" r="3.69" xlink:href="#radial-gradient"/><radialGradient id="radial-gradient-19" cx="47.02" cy="93.73" r="3.29" xlink:href="#radial-gradient"/><radialGradient id="radial-gradient-20" cx="62.2" cy="133.83" r="5.12" xlink:href="#radial-gradient"/><radialGradient id="radial-gradient-21" cx="76.24" cy="119.68" r="1.12" xlink:href="#radial-gradient"/><radialGradient id="radial-gradient-22" cx="95.12" cy="-1816.76" r="95.12" gradientTransform="translate(0 1622) scale(1 0.84)" gradientUnits="userSpaceOnUse"><stop offset="0" stop-color="#fff"/><stop offset="1" stop-color="#fff" stop-opacity="0"/></radialGradient><radialGradient id="radial-gradient-23" cx="-9050.25" cy="4758.5" r="119.53" gradientTransform="matrix(0, 0.67, -1, 0, 4910.05, 6212.54)" xlink:href="#radial-gradient-22"/><radialGradient id="radial-gradient-24" cx="17411.05" cy="18.6" r="89.72" gradientTransform="matrix(0.64, 0, 0, 1.04, -10965.65, 106.74)" xlink:href="#radial-gradient-22"/><radialGradient id="radial-gradient-25" cx="95.12" cy="-1816.76" r="95.12" gradientTransform="translate(0 1622) scale(1 0.84)" gradientUnits="userSpaceOnUse"><stop offset="0" stop-color="#58595b"/><stop offset="0.23" stop-color="#595a5c" stop-opacity="0.96"/><stop offset="0.44" stop-color="#5b5c5e" stop-opacity="0.84"/><stop offset="0.63" stop-color="#5f6062" stop-opacity="0.65"/><stop offset="0.81" stop-color="#656668" stop-opacity="0.37"/><stop offset="0.99" stop-color="#6d6e70" stop-opacity="0.01"/><stop offset="1" stop-color="#6d6e70" stop-opacity="0"/></radialGradient><radialGradient id="radial-gradient-26" cx="-9050.25" cy="4758.5" r="119.53" gradientTransform="matrix(0, 0.67, -1, 0, 4910.04, 6212.54)" xlink:href="#radial-gradient-25"/><radialGradient id="radial-gradient-27" cx="17411.05" cy="18.6" r="89.72" gradientTransform="matrix(0.64, 0, 0, 1.04, -10965.65, 106.73)" xlink:href="#radial-gradient-25"/><radialGradient id="radial-gradient-28" cx="95.12" cy="-1816.76" r="95.12" gradientTransform="translate(0 1622) scale(1 0.84)" gradientUnits="userSpaceOnUse"><stop offset="0" stop-color="#bbbdbf"/><stop offset="0.17" stop-color="#bcbec0" stop-opacity="0.98"/><stop offset="0.31" stop-color="#bec0c2" stop-opacity="0.93"/><stop offset="0.45" stop-color="#c2c4c6" stop-opacity="0.83"/><stop offset="0.58" stop-color="#c8cacb" stop-opacity="0.7"/><stop offset="0.71" stop-color="#cfd1d2" stop-opacity="0.53"/><stop offset="0.84" stop-color="#d8dadb" stop-opacity="0.32"/><stop offset="0.97" stop-color="#e3e4e5" stop-opacity="0.07"/><stop offset="1" stop-color="#e6e7e8" stop-opacity="0"/></radialGradient><radialGradient id="radial-gradient-29" cx="-9050.25" cy="4758.5" r="119.53" gradientTransform="matrix(0, 0.67, -1, 0, 4910.04, 6212.54)" xlink:href="#radial-gradient-28"/><radialGradient id="radial-gradient-30" cx="17411.05" cy="18.6" r="89.72" gradientTransform="matrix(0.64, 0, 0, 1.04, -10965.65, 106.73)" xlink:href="#radial-gradient-28"/><radialGradient id="radial-gradient-31" cx="68.47" cy="-1844.62" r="68.47" gradientTransform="translate(0 1617.18) scale(1 0.84)" gradientUnits="userSpaceOnUse"><stop offset="0"/><stop offset="1" stop-opacity="0"/></radialGradient><radialGradient id="radial-gradient-32" cx="-9094.4" cy="4728.06" r="86.04" gradientTransform="matrix(0, 0.67, -1, 0, 4837.09, 6210.96)" xlink:href="#radial-gradient-31"/><radialGradient id="radial-gradient-33" cx="17327.52" cy="-18.19" r="64.58" gradientTransform="matrix(0.64, 0, 0, 1.04, -10970.6, 137.77)" xlink:href="#radial-gradient-31"/><mask id="mask" x="0.76" y="0" width="150.95" height="150.94" maskUnits="userSpaceOnUse"><g transform="translate(-0.01)"><circle class="cls-1" cx="76.24" cy="75.47" r="75.47"/></g></mask><linearGradient id="linear-gradient" x1="-4593.32" y1="2025.93" x2="-4589.3" y2="2029.95" gradientTransform="matrix(-0.71, 0.71, 0.8, 0.66, -4808.76, 1997.58)" gradientUnits="userSpaceOnUse"><stop offset="0" stop-color="#26a9e0"/><stop offset="0.34" stop-color="#25a6de"/><stop offset="0.58" stop-color="#239dd7"/><stop offset="0.79" stop-color="#208dcc"/><stop offset="0.98" stop-color="#1b77bc"/><stop offset="1" stop-color="#1b75bb"/></linearGradient><linearGradient id="linear-gradient-2" x1="-5431.8" y1="1588.78" x2="-5427.59" y2="1592.99" gradientTransform="matrix(-0.66, 0.43, 0.76, 0.57, -4733.03, 1528.76)" gradientUnits="userSpaceOnUse"><stop offset="0" stop-color="#a4c8e4"/><stop offset="0.14" stop-color="#9bc6e4"/><stop offset="0.38" stop-color="#83c0e3"/><stop offset="0.67" stop-color="#5bb6e2"/><stop offset="1" stop-color="#26a9e0"/></linearGradient><linearGradient id="linear-gradient-3" x1="-6333.41" y1="3038.88" x2="-6330.4" y2="3041.88" gradientTransform="matrix(-0.42, 0.32, 0.58, 0.26, -4389.02, 1292.76)" gradientUnits="userSpaceOnUse"><stop offset="0" stop-color="#d1e3f1"/><stop offset="1" stop-color="#a4c8e4"/></linearGradient><linearGradient id="linear-gradient-4" x1="-4586.9" y1="2050.72" x2="-4582.87" y2="2054.75" xlink:href="#linear-gradient"/><linearGradient id="linear-gradient-5" x1="-5421.35" y1="1617.74" x2="-5417.14" y2="1621.94" xlink:href="#linear-gradient-2"/><linearGradient id="linear-gradient-6" x1="-6305.62" y1="3085.22" x2="-6302.62" y2="3088.23" xlink:href="#linear-gradient-3"/><linearGradient id="linear-gradient-7" x1="-4589.24" y1="2011.37" x2="-4585.22" y2="2015.39" xlink:href="#linear-gradient"/><linearGradient id="linear-gradient-8" x1="-5427.43" y1="1573.58" x2="-5423.23" y2="1577.78" xlink:href="#linear-gradient-2"/><linearGradient id="linear-gradient-9" x1="-6333.83" y1="3013.68" x2="-6330.83" y2="3016.68" xlink:href="#linear-gradient-3"/><linearGradient id="linear-gradient-10" x1="-4603.24" y1="2069.63" x2="-4599.22" y2="2073.65" xlink:href="#linear-gradient"/><linearGradient id="linear-gradient-11" x1="-5441.83" y1="1634.96" x2="-5437.63" y2="1639.16" xlink:href="#linear-gradient-2"/><linearGradient id="linear-gradient-12" x1="-6327.47" y1="3115.13" x2="-6324.46" y2="3118.14" xlink:href="#linear-gradient-3"/><linearGradient id="linear-gradient-13" x1="-4620.67" y1="2073" x2="-4616.65" y2="2077.02" xlink:href="#linear-gradient"/><linearGradient id="linear-gradient-14" x1="-5464.93" y1="1634.71" x2="-5460.72" y2="1638.92" xlink:href="#linear-gradient-2"/><linearGradient id="linear-gradient-15" x1="-6360.77" y1="3116.76" x2="-6357.77" y2="3119.77" xlink:href="#linear-gradient-3"/><linearGradient id="linear-gradient-16" x1="-4628.34" y1="2056.97" x2="-4624.32" y2="2060.99" xlink:href="#linear-gradient"/><linearGradient id="linear-gradient-17" x1="-5476.4" y1="1615.19" x2="-5472.2" y2="1619.39" xlink:href="#linear-gradient-2"/><linearGradient id="linear-gradient-18" x1="-6385.88" y1="3085.89" x2="-6382.88" y2="3088.89" xlink:href="#linear-gradient-3"/><linearGradient id="linear-gradient-19" x1="-4601.69" y1="2048.32" x2="-4597.67" y2="2052.34" xlink:href="#linear-gradient"/><linearGradient id="linear-gradient-20" x1="-5441.34" y1="1611.69" x2="-5437.14" y2="1615.9" xlink:href="#linear-gradient-2"/><linearGradient id="linear-gradient-21" x1="-6337.02" y1="3077.11" x2="-6334.02" y2="3080.11" xlink:href="#linear-gradient-3"/><linearGradient id="linear-gradient-22" x1="-4616.76" y1="2054.39" x2="-4610.3" y2="2060.85" xlink:href="#linear-gradient"/><linearGradient id="linear-gradient-23" x1="-5460.86" y1="1615.19" x2="-5454.11" y2="1621.94" xlink:href="#linear-gradient-2"/><linearGradient id="linear-gradient-24" x1="-6363.25" y1="3084.04" x2="-6358.42" y2="3088.86" xlink:href="#linear-gradient-3"/><linearGradient id="linear-gradient-25" x1="-4583.13" y1="2030.31" x2="-4576.67" y2="2036.77" xlink:href="#linear-gradient"/><linearGradient id="linear-gradient-26" x1="-5417.6" y1="1596.18" x2="-5410.85" y2="1602.93" xlink:href="#linear-gradient-2"/><linearGradient id="linear-gradient-27" x1="-6309.45" y1="3049.21" x2="-6304.63" y2="3054.04" xlink:href="#linear-gradient-3"/><linearGradient id="linear-gradient-28" x1="-4640.74" y1="2063.42" x2="-4634.28" y2="2069.88" xlink:href="#linear-gradient"/><linearGradient id="linear-gradient-29" x1="-5492.3" y1="1619.72" x2="-5485.55" y2="1626.47" xlink:href="#linear-gradient-2"/><linearGradient id="linear-gradient-30" x1="-6406.44" y1="3094.19" x2="-6401.62" y2="3099.02" xlink:href="#linear-gradient-3"/><linearGradient id="linear-gradient-31" x1="-4601.99" y1="2033.61" x2="-4599.04" y2="2036.56" xlink:href="#linear-gradient"/><linearGradient id="linear-gradient-32" x1="-5442.93" y1="1595.23" x2="-5439.85" y2="1598.31" xlink:href="#linear-gradient-2"/><linearGradient id="linear-gradient-33" x1="-6346.7" y1="3050.59" x2="-6344.5" y2="3052.79" xlink:href="#linear-gradient-3"/><linearGradient id="linear-gradient-34" x1="-4592.59" y1="2039.14" x2="-4588.57" y2="2043.16" xlink:href="#linear-gradient"/><linearGradient id="linear-gradient-35" x1="-5429.84" y1="1603.6" x2="-5425.64" y2="1607.8" xlink:href="#linear-gradient-2"/><linearGradient id="linear-gradient-36" x1="-6324.07" y1="3062.89" x2="-6321.07" y2="3065.89" xlink:href="#linear-gradient-3"/><linearGradient id="linear-gradient-37" x1="-4628.7" y1="2083.72" x2="-4624.68" y2="2087.74" xlink:href="#linear-gradient"/><linearGradient id="linear-gradient-38" x1="-5474.89" y1="1644.76" x2="-5470.69" y2="1648.96" xlink:href="#linear-gradient-2"/><linearGradient id="linear-gradient-39" x1="-6370.66" y1="3134.03" x2="-6367.66" y2="3137.03" xlink:href="#linear-gradient-3"/><linearGradient id="linear-gradient-40" x1="-4579.48" y1="2011.74" x2="-4575.46" y2="2015.77" xlink:href="#linear-gradient"/><linearGradient id="linear-gradient-41" x1="-5414.32" y1="1576.22" x2="-5410.12" y2="1580.42" xlink:href="#linear-gradient-2"/><linearGradient id="linear-gradient-42" x1="-6313.84" y1="3016.84" x2="-6310.83" y2="3019.84" xlink:href="#linear-gradient-3"/><linearGradient id="linear-gradient-43" x1="-4575.31" y1="2043.4" x2="-4571.29" y2="2047.42" xlink:href="#linear-gradient"/><linearGradient id="linear-gradient-44" x1="-5406.37" y1="1612.26" x2="-5402.17" y2="1616.47" xlink:href="#linear-gradient-2"/><linearGradient id="linear-gradient-45" x1="-6286.51" y1="3074.98" x2="-6283.5" y2="3077.98" xlink:href="#linear-gradient-3"/><linearGradient id="linear-gradient-46" x1="-4570.17" y1="2023.75" x2="-4566.15" y2="2027.77" xlink:href="#linear-gradient"/><linearGradient id="linear-gradient-47" x1="-5400.95" y1="1591.65" x2="-5396.75" y2="1595.86" xlink:href="#linear-gradient-2"/><linearGradient id="linear-gradient-48" x1="-6287.81" y1="3040.86" x2="-6284.81" y2="3043.86" xlink:href="#linear-gradient-3"/><linearGradient id="linear-gradient-49" x1="-4627.32" y1="2069.95" x2="-4624.7" y2="2072.57" xlink:href="#linear-gradient"/><linearGradient id="linear-gradient-50" x1="-5474.19" y1="1629.69" x2="-5471.45" y2="1632.43" xlink:href="#linear-gradient-2"/><linearGradient id="linear-gradient-51" x1="-6376.47" y1="3109.65" x2="-6374.52" y2="3111.61" xlink:href="#linear-gradient-3"/><linearGradient id="linear-gradient-52" x1="-4637.12" y1="2079.84" x2="-4634.5" y2="2082.46" xlink:href="#linear-gradient"/><linearGradient id="linear-gradient-53" x1="-5486.59" y1="1638.42" x2="-5483.85" y2="1641.15" xlink:href="#linear-gradient-2"/><linearGradient id="linear-gradient-54" x1="-6390.44" y1="3124.98" x2="-6388.49" y2="3126.94" xlink:href="#linear-gradient-3"/><linearGradient id="linear-gradient-55" x1="-4609.24" y1="2065.39" x2="-4606.62" y2="2068.01" xlink:href="#linear-gradient"/><linearGradient id="linear-gradient-56" x1="-5450.31" y1="1628.77" x2="-5447.58" y2="1631.51" xlink:href="#linear-gradient-2"/><linearGradient id="linear-gradient-57" x1="-6342.56" y1="3106.06" x2="-6340.61" y2="3108.01" xlink:href="#linear-gradient-3"/><linearGradient id="linear-gradient-58" x1="-4597.09" y1="2059.17" x2="-4594.48" y2="2061.79" xlink:href="#linear-gradient"/><linearGradient id="linear-gradient-59" x1="-5434.51" y1="1624.65" x2="-5431.77" y2="1627.39" xlink:href="#linear-gradient-2"/><linearGradient id="linear-gradient-60" x1="-6321.66" y1="3097.94" x2="-6319.7" y2="3099.9" xlink:href="#linear-gradient-3"/><linearGradient id="linear-gradient-61" x1="-4608.69" y1="2048.35" x2="-4606.07" y2="2050.97" xlink:href="#linear-gradient"/><linearGradient id="linear-gradient-62" x1="-5450.85" y1="1610.01" x2="-5448.11" y2="1612.74" xlink:href="#linear-gradient-2"/><linearGradient id="linear-gradient-63" x1="-6351.6" y1="3075.47" x2="-6349.65" y2="3077.43" xlink:href="#linear-gradient-3"/><linearGradient id="linear-gradient-64" x1="-4586.56" y1="2021.62" x2="-4583.94" y2="2024.24" xlink:href="#linear-gradient"/><linearGradient id="linear-gradient-65" x1="-5423.19" y1="1585.43" x2="-5420.46" y2="1588.16" xlink:href="#linear-gradient-2"/><linearGradient id="linear-gradient-66" x1="-6322.69" y1="3032.93" x2="-6320.74" y2="3034.88" xlink:href="#linear-gradient-3"/><linearGradient id="linear-gradient-67" x1="-4583.55" y1="2000.22" x2="-4580.93" y2="2002.83" xlink:href="#linear-gradient"/><linearGradient id="linear-gradient-68" x1="-5420.76" y1="1562.39" x2="-5418.02" y2="1565.13" xlink:href="#linear-gradient-2"/><linearGradient id="linear-gradient-69" x1="-6329.35" y1="2995.1" x2="-6327.39" y2="2997.06" xlink:href="#linear-gradient-3"/><linearGradient id="linear-gradient-70" x1="-4569.75" y1="2011.93" x2="-4567.13" y2="2014.55" xlink:href="#linear-gradient"/><linearGradient id="linear-gradient-71" x1="-5401.4" y1="1578.53" x2="-5398.66" y2="1581.26" xlink:href="#linear-gradient-2"/><linearGradient id="linear-gradient-72" x1="-6294.41" y1="3019.75" x2="-6292.45" y2="3021.7" xlink:href="#linear-gradient-3"/><linearGradient id="linear-gradient-73" x1="-4567.32" y1="2037.53" x2="-4564.7" y2="2040.15" xlink:href="#linear-gradient"/><linearGradient id="linear-gradient-74" x1="-5396.23" y1="1607.46" x2="-5393.5" y2="1610.2" xlink:href="#linear-gradient-2"/><linearGradient id="linear-gradient-75" x1="-6274.23" y1="3066.52" x2="-6272.27" y2="3068.48" xlink:href="#linear-gradient-3"/><linearGradient id="linear-gradient-76" x1="-4578.88" y1="2060.67" x2="-4574.86" y2="2064.69" xlink:href="#linear-gradient"/><linearGradient id="linear-gradient-77" x1="-5409.87" y1="1630.59" x2="-5405.67" y2="1634.79" xlink:href="#linear-gradient-2"/><linearGradient id="linear-gradient-78" x1="-6283.46" y1="3105.19" x2="-6280.45" y2="3108.2" xlink:href="#linear-gradient-3"/><linearGradient id="linear-gradient-79" x1="-4613.09" y1="2075.85" x2="-4606.63" y2="2082.31" xlink:href="#linear-gradient"/><linearGradient id="linear-gradient-80" x1="-5454.33" y1="1639.81" x2="-5447.58" y2="1646.56" xlink:href="#linear-gradient-2"/><linearGradient id="linear-gradient-81" x1="-6343" y1="3123.67" x2="-6338.18" y2="3128.49" xlink:href="#linear-gradient-3"/><linearGradient id="linear-gradient-82" x1="-4590.84" y1="2064.63" x2="-4584.38" y2="2071.09" xlink:href="#linear-gradient"/><linearGradient id="linear-gradient-83" x1="-5425.37" y1="1632.47" x2="-5418.62" y2="1639.22" xlink:href="#linear-gradient-2"/><linearGradient id="linear-gradient-84" x1="-6304.62" y1="3109.13" x2="-6299.79" y2="3113.95" xlink:href="#linear-gradient-3"/><linearGradient id="linear-gradient-85" x1="-4649.89" y1="2072.01" x2="-4645.95" y2="2075.95" xlink:href="#linear-gradient"/><linearGradient id="linear-gradient-86" x1="-5504.15" y1="1626.94" x2="-5500.03" y2="1631.06" xlink:href="#linear-gradient-2"/><linearGradient id="linear-gradient-87" x1="-6420.58" y1="3107.53" x2="-6417.64" y2="3110.47" xlink:href="#linear-gradient-3"/><linearGradient id="linear-gradient-88" x1="-4606.19" y1="2056.81" x2="-4603.25" y2="2059.76" xlink:href="#linear-gradient"/><linearGradient id="linear-gradient-89" x1="-5446.84" y1="1619.98" x2="-5443.76" y2="1623.06" xlink:href="#linear-gradient-2"/><linearGradient id="linear-gradient-90" x1="-6341.41" y1="3091.34" x2="-6339.21" y2="3093.54" xlink:href="#linear-gradient-3"/><mask id="mask-2" x="18.33" y="91.29" width="6.45" height="6.44" maskUnits="userSpaceOnUse"><g transform="translate(-0.01)"><circle class="cls-2" cx="21.56" cy="94.52" r="3.22"/></g></mask><mask id="mask-3" x="53.33" y="102.93" width="6.45" height="6.45" maskUnits="userSpaceOnUse"><g transform="translate(-0.01)"><circle class="cls-13" cx="56.56" cy="106.15" r="3.22"/></g></mask><mask id="mask-4" x="115.41" y="100.08" width="6.45" height="6.44" maskUnits="userSpaceOnUse"><g transform="translate(-0.01)"><circle class="cls-15" cx="118.64" cy="103.3" r="3.22"/></g></mask><mask id="mask-5" x="123.31" y="92.86" width="6.44" height="6.44" maskUnits="userSpaceOnUse"><g transform="translate(-0.01)"><circle class="cls-16" cx="126.54" cy="96.08" r="3.22"/></g></mask><mask id="mask-6" x="84.59" y="118.33" width="6.44" height="6.44" maskUnits="userSpaceOnUse"><g transform="translate(-0.01)"><circle class="cls-17" cx="87.82" cy="121.55" r="3.22"/></g></mask><mask id="mask-7" x="99.22" y="100.32" width="7.37" height="7.37" maskUnits="userSpaceOnUse"><g transform="translate(-0.01)"><circle class="cls-18" cx="102.91" cy="104.01" r="3.69"/></g></mask><mask id="mask-8" x="43.73" y="90.45" width="6.57" height="6.57" maskUnits="userSpaceOnUse"><g transform="translate(-0.01)"><circle class="cls-19" cx="47.02" cy="93.73" r="3.29"/></g></mask><mask id="mask-9" x="57.07" y="128.71" width="10.23" height="10.23" maskUnits="userSpaceOnUse"><g transform="translate(-0.01)"><circle class="cls-20" cx="62.2" cy="133.83" r="5.12"/></g></mask><mask id="mask-10" x="75.12" y="118.56" width="2.24" height="2.24" maskUnits="userSpaceOnUse"><g transform="translate(-0.01)"><circle class="cls-21" cx="76.24" cy="119.68" r="1.12"/></g></mask><mask id="mask-11" x="84.27" y="103.75" width="2.24" height="2.24" maskUnits="userSpaceOnUse"><g transform="translate(-0.01)"><circle class="cls-3" cx="85.4" cy="104.86" r="1.12"/></g></mask><mask id="mask-12" x="124.3" y="105.41" width="2.24" height="2.24" maskUnits="userSpaceOnUse"><g transform="translate(-0.01)"><circle class="cls-4" cx="125.42" cy="106.52" r="1.12"/></g></mask><mask id="mask-13" x="132.71" y="83.9" width="2.24" height="2.24" maskUnits="userSpaceOnUse"><g transform="translate(-0.01)"><circle class="cls-5" cx="133.84" cy="85.02" r="1.12"/></g></mask><mask id="mask-14" x="97.52" y="97.54" width="2.24" height="2.24" maskUnits="userSpaceOnUse"><g transform="translate(-0.01)"><circle class="cls-6" cx="98.64" cy="98.66" r="1.12"/></g></mask><mask id="mask-15" x="31.61" y="90.75" width="2.24" height="2.24" maskUnits="userSpaceOnUse"><g transform="translate(-0.01)"><circle class="cls-7" cx="32.74" cy="91.87" r="1.12"/></g></mask><mask id="mask-16" x="33.21" y="117.96" width="2.24" height="2.24" maskUnits="userSpaceOnUse"><g transform="translate(-0.01)"><circle class="cls-8" cx="34.34" cy="119.08" r="1.12"/></g></mask><mask id="mask-17" x="18.33" y="80.52" width="2.24" height="2.24" maskUnits="userSpaceOnUse"><g transform="translate(-0.01)"><circle class="cls-9" cx="19.46" cy="81.64" r="1.12"/></g></mask><mask id="mask-18" x="72.55" y="100.25" width="2.24" height="2.24" maskUnits="userSpaceOnUse"><g transform="translate(-0.01)"><circle class="cls-10" cx="73.68" cy="101.37" r="1.12"/></g></mask><mask id="mask-19" x="72.55" y="125.45" width="2.24" height="2.24" maskUnits="userSpaceOnUse"><g transform="translate(-0.01)"><circle class="cls-11" cx="73.68" cy="126.56" r="1.12"/></g></mask><mask id="mask-20" x="102.2" y="111.02" width="2.24" height="2.24" maskUnits="userSpaceOnUse"><g transform="translate(-0.01)"><circle class="cls-12" cx="103.32" cy="112.14" r="1.12"/></g></mask><mask id="mask-21" x="52.63" y="128.08" width="2.24" height="2.24" maskUnits="userSpaceOnUse"><g transform="translate(-0.01)"><circle class="cls-14" cx="53.75" cy="129.2" r="1.12"/></g></mask><symbol id="New_Symbol" data-name="New Symbol" viewBox="0 0 257.01 223.64"><ellipse class="cls-22" cx="95.12" cy="100.46" rx="95.12" ry="79.67"/><ellipse class="cls-23" cx="151.78" cy="111.82" rx="119.53" ry="80.57" transform="translate(-19.1 191.45) rotate(-61.36)"/><ellipse class="cls-24" cx="167.61" cy="125.74" rx="57.37" ry="93.72" transform="translate(-12.47 232.87) rotate(-67.62)"/></symbol><symbol id="New_Symbol_2" data-name="New Symbol 2" viewBox="0 0 257.01 223.64"><ellipse class="cls-28" cx="95.12" cy="100.46" rx="95.12" ry="79.67"/><ellipse class="cls-29" cx="151.78" cy="111.82" rx="119.53" ry="80.57" transform="translate(-19.1 191.45) rotate(-61.36)"/><ellipse class="cls-30" cx="167.61" cy="125.74" rx="57.37" ry="93.72" transform="translate(-12.47 232.87) rotate(-67.62)"/></symbol><symbol id="New_Symbol_3" data-name="New Symbol 3" viewBox="0 0 174.77 164.37"><ellipse class="cls-31" cx="68.47" cy="72.31" rx="68.47" ry="57.35"/><ellipse class="cls-32" cx="109.26" cy="80.49" rx="86.04" ry="58" transform="translate(-13.75 137.81) rotate(-61.36)"/><ellipse class="cls-33" cx="109.26" cy="118.34" rx="41.3" ry="67.46" transform="translate(-41.76 174.32) rotate(-67.62)"/></symbol></defs><title>Ресурс 21weather</title><g id="Слой_2" data-name="Слой 2"><g id="Layer_2" data-name="Layer 2"><g class="cls-34"><circle class="cls-35" cx="76.23" cy="75.47" r="75.47"/></g><path class="cls-35" d="M52.84,101.08A2.25,2.25,0,1,0,56,97.91c-1.5-1.5-5.18-2-5.18-2S51.35,99.58,52.84,101.08Z" transform="translate(-0.01)"/><path class="cls-36" d="M53.06,100.66a2.11,2.11,0,0,0,3.18,0c.29-.32.91-1.65-.69-3S50.91,96,50.91,96,51.54,99.28,53.06,100.66Z" transform="translate(-0.01)"/><path class="cls-37" d="M53.3,99.71c1.64,1.39,2.7.67,3,.41s.78-1.36-.82-2.55A12.69,12.69,0,0,0,51,96,9.11,9.11,0,0,0,53.3,99.71Z" transform="translate(-0.01)"/><path class="cls-38" d="M53.19,97.58c.91.5,1.29.24,1.38.14s.19-.5-.67-.92a8.41,8.41,0,0,0-2.17-.56A5.16,5.16,0,0,0,53.19,97.58Z" transform="translate(-0.01)"/><path class="cls-35" d="M68.07,122.1a2.25,2.25,0,1,0,3.17-3.18c-1.5-1.5-5.18-2-5.18-2S66.57,120.6,68.07,122.1Z" transform="translate(-0.01)"/><path class="cls-39" d="M68.28,121.68a2.11,2.11,0,0,0,3.18,0c.29-.31.91-1.65-.69-3S66.13,117,66.13,117,66.76,120.3,68.28,121.68Z" transform="translate(-0.01)"/><path class="cls-40" d="M68.52,120.72c1.64,1.39,2.7.67,3,.41s.78-1.36-.82-2.55a12.64,12.64,0,0,0-4.4-1.59A9.12,9.12,0,0,0,68.52,120.72Z" transform="translate(-0.01)"/><path class="cls-41" d="M68.41,118.6c.91.5,1.29.23,1.38.14s.19-.5-.67-.92a8.44,8.44,0,0,0-2.17-.56A5.17,5.17,0,0,0,68.41,118.6Z" transform="translate(-0.01)"/><path class="cls-35" d="M38.37,94.29a2.25,2.25,0,1,0,3.18-3.18c-1.5-1.5-5.18-2-5.18-2S36.87,92.79,38.37,94.29Z" transform="translate(-0.01)"/><path class="cls-42" d="M38.58,93.87a2.11,2.11,0,0,0,3.18,0c.29-.31.91-1.64-.69-3s-4.63-1.67-4.63-1.67S37.06,92.49,38.58,93.87Z" transform="translate(-0.01)"/><path class="cls-43" d="M38.83,92.92c1.64,1.38,2.69.67,3,.41S42.56,92,41,90.78a12.67,12.67,0,0,0-4.41-1.59A9.11,9.11,0,0,0,38.83,92.92Z" transform="translate(-0.01)"/><path class="cls-44" d="M38.71,90.79c.9.5,1.29.23,1.38.14s.18-.5-.67-.92a8.42,8.42,0,0,0-2.17-.56A5.18,5.18,0,0,0,38.71,90.79Z" transform="translate(-0.01)"/><path class="cls-35" d="M94.69,123.11a2.25,2.25,0,1,0,3.18-3.18c-1.5-1.5-5.18-2-5.18-2S93.19,121.61,94.69,123.11Z" transform="translate(-0.01)"/><path class="cls-45" d="M94.9,122.69a2.11,2.11,0,0,0,3.18,0c.29-.31.91-1.65-.69-3S92.75,118,92.75,118,93.38,121.31,94.9,122.69Z" transform="translate(-0.01)"/><path class="cls-46" d="M95.14,121.73c1.64,1.38,2.7.67,3,.41s.77-1.36-.82-2.55a12.71,12.71,0,0,0-4.4-1.59A9.1,9.1,0,0,0,95.14,121.73Z" transform="translate(-0.01)"/><path class="cls-47" d="M95,119.61c.9.5,1.29.23,1.38.13s.18-.5-.68-.92a8.53,8.53,0,0,0-2.17-.56A5.14,5.14,0,0,0,95,119.61Z" transform="translate(-0.01)"/><path class="cls-35" d="M109.7,113a2.25,2.25,0,1,0,3.17-3.18c-1.5-1.5-5.18-2-5.18-2S108.2,111.52,109.7,113Z" transform="translate(-0.01)"/><path class="cls-48" d="M109.91,112.6a2.11,2.11,0,0,0,3.18,0c.29-.31.91-1.65-.69-3s-4.63-1.67-4.63-1.67S108.39,111.22,109.91,112.6Z" transform="translate(-0.01)"/><path class="cls-49" d="M110.15,111.65c1.64,1.39,2.7.67,3,.41s.78-1.36-.82-2.55a12.66,12.66,0,0,0-4.4-1.59A9.1,9.1,0,0,0,110.15,111.65Z" transform="translate(-0.01)"/><path class="cls-50" d="M110,109.52c.91.5,1.29.24,1.38.14s.19-.5-.68-.92a8.46,8.46,0,0,0-2.17-.56A5.17,5.17,0,0,0,110,109.52Z" transform="translate(-0.01)"/><path class="cls-35" d="M102.35,96.94a2.25,2.25,0,1,0,3.17-3.18c-1.5-1.5-5.18-2-5.18-2S100.85,95.44,102.35,96.94Z" transform="translate(-0.01)"/><path class="cls-51" d="M102.56,96.52a2.11,2.11,0,0,0,3.18,0c.29-.31.91-1.65-.69-3s-4.63-1.67-4.63-1.67S101,95.14,102.56,96.52Z" transform="translate(-0.01)"/><path class="cls-52" d="M102.8,95.56c1.64,1.39,2.7.67,3,.41s.77-1.36-.82-2.55a12.69,12.69,0,0,0-4.4-1.59A9.11,9.11,0,0,0,102.8,95.56Z" transform="translate(-0.01)"/><path class="cls-53" d="M102.69,93.44c.91.5,1.29.23,1.38.14s.19-.5-.67-.93a8.41,8.41,0,0,0-2.17-.56A5.18,5.18,0,0,0,102.69,93.44Z" transform="translate(-0.01)"/><path class="cls-35" d="M76.61,110a2.25,2.25,0,1,0,3.18-3.18c-1.5-1.5-5.18-2-5.18-2S75.11,108.54,76.61,110Z" transform="translate(-0.01)"/><path class="cls-54" d="M76.82,109.62a2.11,2.11,0,0,0,3.18,0c.29-.31.91-1.65-.69-3s-4.64-1.67-4.64-1.67S75.3,108.24,76.82,109.62Z" transform="translate(-0.01)"/><path class="cls-55" d="M77.07,108.67c1.64,1.39,2.7.67,3,.41s.77-1.36-.82-2.55a12.72,12.72,0,0,0-4.41-1.59A9.14,9.14,0,0,0,77.07,108.67Z" transform="translate(-0.01)"/><path class="cls-56" d="M77,106.54c.91.5,1.29.23,1.38.14s.18-.5-.67-.92a8.3,8.3,0,0,0-2.17-.56A5.15,5.15,0,0,0,77,106.54Z" transform="translate(-0.01)"/><path class="cls-35" d="M91.63,106.57a3.61,3.61,0,1,0,5.1-5.1c-2.41-2.41-8.32-3.22-8.32-3.22S89.22,104.17,91.63,106.57Z" transform="translate(-0.01)"/><path class="cls-57" d="M92,105.9a3.39,3.39,0,0,0,5.1-.07c.46-.5,1.47-2.64-1.11-4.82s-7.45-2.68-7.45-2.68S89.52,103.68,92,105.9Z" transform="translate(-0.01)"/><path class="cls-58" d="M92.36,104.37c2.64,2.22,4.33,1.08,4.76.66s1.24-2.18-1.32-4.1c-2.38-1.77-7.07-2.55-7.07-2.55S89.93,102.31,92.36,104.37Z" transform="translate(-0.01)"/><path class="cls-59" d="M92.18,101c1.46.8,2.08.38,2.22.22s.3-.8-1.08-1.48a13.6,13.6,0,0,0-3.49-.9A8.24,8.24,0,0,0,92.18,101Z" transform="translate(-0.01)"/><path class="cls-35" d="M48.66,114.35a3.61,3.61,0,1,0,5.1-5.1c-2.41-2.41-8.32-3.22-8.32-3.22S46.25,111.95,48.66,114.35Z" transform="translate(-0.01)"/><path class="cls-60" d="M49,113.68a3.39,3.39,0,0,0,5.1-.07c.46-.5,1.47-2.65-1.11-4.82s-7.44-2.69-7.44-2.69S46.55,111.46,49,113.68Z" transform="translate(-0.01)"/><path class="cls-61" d="M49.39,112.15c2.64,2.22,4.33,1.08,4.76.65s1.25-2.18-1.32-4.09c-2.37-1.77-7.07-2.56-7.07-2.56S47,110.1,49.39,112.15Z" transform="translate(-0.01)"/><path class="cls-62" d="M49.21,108.73c1.46.8,2.08.38,2.22.22s.3-.8-1.08-1.48a13.55,13.55,0,0,0-3.49-.9A8.28,8.28,0,0,0,49.21,108.73Z" transform="translate(-0.01)"/><path class="cls-35" d="M115.78,95.62a3.61,3.61,0,1,0,5.1-5.1c-2.41-2.41-8.32-3.22-8.32-3.22S113.37,93.21,115.78,95.62Z" transform="translate(-0.01)"/><path class="cls-63" d="M116.11,94.95a3.39,3.39,0,0,0,5.1-.07c.46-.5,1.47-2.64-1.11-4.82s-7.45-2.69-7.45-2.69S113.67,92.73,116.11,94.95Z" transform="translate(-0.01)"/><path class="cls-64" d="M116.51,93.41c2.64,2.23,4.33,1.08,4.76.66S122.51,91.88,120,90c-2.37-1.77-7.08-2.56-7.08-2.56S114.08,91.36,116.51,93.41Z" transform="translate(-0.01)"/><path class="cls-65" d="M116.33,90c1.46.8,2.08.38,2.22.22s.3-.8-1.08-1.48a13.53,13.53,0,0,0-3.49-.9A8.24,8.24,0,0,0,116.33,90Z" transform="translate(-0.01)"/><path class="cls-35" d="M65.31,98.67a1.65,1.65,0,1,0,2.33-2.33c-1.1-1.1-3.79-1.47-3.79-1.47S64.21,97.57,65.31,98.67Z" transform="translate(-0.01)"/><path class="cls-66" d="M65.46,98.36a1.55,1.55,0,0,0,2.33,0c.21-.23.67-1.21-.51-2.2a7.93,7.93,0,0,0-3.39-1.23A7.61,7.61,0,0,0,65.46,98.36Z" transform="translate(-0.01)"/><path class="cls-67" d="M65.64,97.66c1.21,1,2,.49,2.17.3s.57-1-.6-1.87A9.28,9.28,0,0,0,64,94.92,6.67,6.67,0,0,0,65.64,97.66Z" transform="translate(-0.01)"/><path class="cls-68" d="M65.56,96.11c.66.36.95.17,1,.1s.13-.36-.5-.68a6.13,6.13,0,0,0-1.59-.41A3.78,3.78,0,0,0,65.56,96.11Z" transform="translate(-0.01)"/><path class="cls-35" d="M62.87,110.37A2.25,2.25,0,1,0,66,107.2c-1.5-1.5-5.18-2-5.18-2S61.37,108.87,62.87,110.37Z" transform="translate(-0.01)"/><path class="cls-69" d="M63.08,110a2.11,2.11,0,0,0,3.18,0c.29-.31.91-1.65-.69-3s-4.63-1.67-4.63-1.67S61.56,108.57,63.08,110Z" transform="translate(-0.01)"/><path class="cls-70" d="M63.32,109c1.64,1.39,2.69.67,3,.41s.77-1.36-.82-2.55a12.68,12.68,0,0,0-4.4-1.59A9.1,9.1,0,0,0,63.32,109Z" transform="translate(-0.01)"/><path class="cls-71" d="M63.21,106.87c.9.5,1.29.23,1.38.14s.19-.5-.67-.92a8.41,8.41,0,0,0-2.17-.56A5.16,5.16,0,0,0,63.21,106.87Z" transform="translate(-0.01)"/><path class="cls-35" d="M123.92,114.46a2.25,2.25,0,1,0,3.18-3.17c-1.5-1.5-5.18-2-5.18-2S122.42,113,123.92,114.46Z" transform="translate(-0.01)"/><path class="cls-72" d="M124.13,114a2.11,2.11,0,0,0,3.18,0c.29-.31.91-1.65-.69-3s-4.63-1.67-4.63-1.67S122.61,112.66,124.13,114Z" transform="translate(-0.01)"/><path class="cls-73" d="M124.38,113.09c1.65,1.38,2.7.67,3,.41s.77-1.36-.82-2.55a12.66,12.66,0,0,0-4.4-1.59A9.13,9.13,0,0,0,124.38,113.09Z" transform="translate(-0.01)"/><path class="cls-74" d="M124.26,111c.91.5,1.29.23,1.38.14s.18-.5-.67-.92a8.39,8.39,0,0,0-2.17-.56A5.15,5.15,0,0,0,124.26,111Z" transform="translate(-0.01)"/><path class="cls-35" d="M31.76,101.44a2.25,2.25,0,1,0,3.17-3.18c-1.5-1.5-5.18-2-5.18-2S30.26,99.94,31.76,101.44Z" transform="translate(-0.01)"/><path class="cls-75" d="M32,101a2.11,2.11,0,0,0,3.18,0c.29-.31.92-1.65-.69-3s-4.64-1.67-4.64-1.67S30.45,99.64,32,101Z" transform="translate(-0.01)"/><path class="cls-76" d="M32.22,100.06c1.64,1.39,2.7.67,3,.41s.77-1.36-.82-2.55A12.67,12.67,0,0,0,30,96.33,9.13,9.13,0,0,0,32.22,100.06Z" transform="translate(-0.01)"/><path class="cls-77" d="M32.11,97.94c.91.5,1.29.23,1.38.14s.19-.5-.68-.92a8.4,8.4,0,0,0-2.17-.56A5.18,5.18,0,0,0,32.11,97.94Z" transform="translate(-0.01)"/><path class="cls-35" d="M54,125.43a2.25,2.25,0,1,0,3.18-3.18c-1.5-1.5-5.18-2-5.18-2S52.54,123.93,54,125.43Z" transform="translate(-0.01)"/><path class="cls-78" d="M54.25,125a2.11,2.11,0,0,0,3.18,0c.29-.31.91-1.65-.69-3s-4.63-1.67-4.63-1.67S52.73,123.63,54.25,125Z" transform="translate(-0.01)"/><path class="cls-79" d="M54.49,124.05c1.64,1.39,2.7.67,3,.41s.77-1.36-.82-2.55a12.7,12.7,0,0,0-4.4-1.59A9.12,9.12,0,0,0,54.49,124.05Z" transform="translate(-0.01)"/><path class="cls-80" d="M54.38,121.93c.91.5,1.29.23,1.38.14s.18-.5-.68-.92a8.44,8.44,0,0,0-2.17-.56A5.15,5.15,0,0,0,54.38,121.93Z" transform="translate(-0.01)"/><path class="cls-35" d="M34.74,116a2.25,2.25,0,1,0,3.17-3.17c-1.5-1.5-5.18-2-5.18-2S33.25,114.5,34.74,116Z" transform="translate(-0.01)"/><path class="cls-81" d="M35,115.58a2.11,2.11,0,0,0,3.18,0c.29-.31.91-1.65-.69-3s-4.63-1.67-4.63-1.67S33.43,114.2,35,115.58Z" transform="translate(-0.01)"/><path class="cls-82" d="M35.2,114.63c1.64,1.38,2.69.67,3,.41s.77-1.36-.82-2.55a12.71,12.71,0,0,0-4.4-1.59A9.13,9.13,0,0,0,35.2,114.63Z" transform="translate(-0.01)"/><path class="cls-83" d="M35.09,112.5c.91.5,1.29.24,1.38.14s.18-.5-.67-.92a8.35,8.35,0,0,0-2.17-.56A5.13,5.13,0,0,0,35.09,112.5Z" transform="translate(-0.01)"/><path class="cls-35" d="M112.24,104.47a1.46,1.46,0,1,0,2.07-2.07c-1-1-3.37-1.3-3.37-1.3S111.27,103.5,112.24,104.47Z" transform="translate(-0.01)"/><path class="cls-84" d="M112.38,104.2a1.37,1.37,0,0,0,2.07,0c.19-.2.6-1.07-.45-2a7,7,0,0,0-3-1.09A6.79,6.79,0,0,0,112.38,104.2Z" transform="translate(-0.01)"/><path class="cls-85" d="M112.54,103.58c1.07.9,1.76.44,1.93.26s.5-.88-.54-1.66a8.27,8.27,0,0,0-2.87-1A5.94,5.94,0,0,0,112.54,103.58Z" transform="translate(-0.01)"/><path class="cls-86" d="M112.47,102.2c.59.32.84.15.9.09s.12-.32-.44-.6a5.52,5.52,0,0,0-1.42-.37A3.37,3.37,0,0,0,112.47,102.2Z" transform="translate(-0.01)"/><path class="cls-35" d="M127.06,104.11a1.46,1.46,0,1,0,2.07-2.07c-1-1-3.37-1.3-3.37-1.3S126.08,103.14,127.06,104.11Z" transform="translate(-0.01)"/><path class="cls-87" d="M127.2,103.84a1.37,1.37,0,0,0,2.07,0c.19-.2.59-1.07-.45-2a7,7,0,0,0-3-1.09A6.77,6.77,0,0,0,127.2,103.84Z" transform="translate(-0.01)"/><path class="cls-88" d="M127.36,103.22c1.07.9,1.76.44,1.93.27s.5-.89-.53-1.66a8.28,8.28,0,0,0-2.87-1A6,6,0,0,0,127.36,103.22Z" transform="translate(-0.01)"/><path class="cls-89" d="M127.29,101.84c.59.32.84.15.9.09s.12-.32-.44-.6a5.49,5.49,0,0,0-1.41-.37A3.36,3.36,0,0,0,127.29,101.84Z" transform="translate(-0.01)"/><path class="cls-35" d="M95.83,114.23a1.46,1.46,0,1,0,2.07-2.07c-1-1-3.37-1.3-3.37-1.3S94.86,113.25,95.83,114.23Z" transform="translate(-0.01)"/><path class="cls-90" d="M96,114a1.37,1.37,0,0,0,2.07,0c.19-.2.6-1.07-.45-2a7,7,0,0,0-3-1.09A6.8,6.8,0,0,0,96,114Z" transform="translate(-0.01)"/><path class="cls-91" d="M96.13,113.33c1.07.9,1.75.44,1.93.27s.5-.88-.54-1.66a8.25,8.25,0,0,0-2.87-1A5.93,5.93,0,0,0,96.13,113.33Z" transform="translate(-0.01)"/><path class="cls-92" d="M96.06,112c.59.32.84.15.9.09s.12-.32-.44-.6a5.48,5.48,0,0,0-1.42-.36A3.41,3.41,0,0,0,96.06,112Z" transform="translate(-0.01)"/><path class="cls-35" d="M82.29,118.69a1.46,1.46,0,1,0,2.07-2.07c-1-1-3.37-1.3-3.37-1.3S81.31,117.71,82.29,118.69Z" transform="translate(-0.01)"/><path class="cls-93" d="M82.42,118.41a1.37,1.37,0,0,0,2.07,0c.19-.21.6-1.07-.45-2a7.06,7.06,0,0,0-3-1.09A6.78,6.78,0,0,0,82.42,118.41Z" transform="translate(-0.01)"/><path class="cls-94" d="M82.58,117.79c1.07.9,1.75.44,1.93.27s.5-.89-.53-1.66a8.29,8.29,0,0,0-2.87-1A6,6,0,0,0,82.58,117.79Z" transform="translate(-0.01)"/><path class="cls-95" d="M82.51,116.41c.59.32.84.15.9.09s.12-.33-.44-.6a5.53,5.53,0,0,0-1.41-.36A3.34,3.34,0,0,0,82.51,116.41Z" transform="translate(-0.01)"/><path class="cls-35" d="M81.86,103.29a1.46,1.46,0,1,0,2.07-2.07c-1-1-3.37-1.3-3.37-1.3S80.89,102.32,81.86,103.29Z" transform="translate(-0.01)"/><path class="cls-96" d="M82,103a1.37,1.37,0,0,0,2.07,0c.19-.2.6-1.07-.45-2a7.05,7.05,0,0,0-3-1.09A6.78,6.78,0,0,0,82,103Z" transform="translate(-0.01)"/><path class="cls-97" d="M82.16,102.4c1.07.9,1.75.44,1.93.26s.5-.88-.54-1.66a8.24,8.24,0,0,0-2.87-1A5.92,5.92,0,0,0,82.16,102.4Z" transform="translate(-0.01)"/><path class="cls-98" d="M82.09,101c.59.32.84.15.9.09s.12-.32-.44-.6a5.51,5.51,0,0,0-1.41-.37A3.37,3.37,0,0,0,82.09,101Z" transform="translate(-0.01)"/><path class="cls-35" d="M44.91,101.18A1.46,1.46,0,1,0,47,99.11c-1-1-3.37-1.3-3.37-1.3S43.93,100.2,44.91,101.18Z" transform="translate(-0.01)"/><path class="cls-99" d="M45,100.91a1.37,1.37,0,0,0,2.07,0c.18-.2.59-1.07-.45-2a7.06,7.06,0,0,0-3-1.09A6.78,6.78,0,0,0,45,100.91Z" transform="translate(-0.01)"/><path class="cls-100" d="M45.21,100.28c1.07.9,1.75.44,1.93.27s.5-.89-.53-1.66a8.27,8.27,0,0,0-2.87-1A5.94,5.94,0,0,0,45.21,100.28Z" transform="translate(-0.01)"/><path class="cls-101" d="M45.13,98.9c.59.32.84.15.9.09s.12-.32-.44-.6A5.49,5.49,0,0,0,44.18,98,3.36,3.36,0,0,0,45.13,98.9Z" transform="translate(-0.01)"/><path class="cls-35" d="M25.72,89.09A1.46,1.46,0,1,0,27.79,87c-1-1-3.37-1.3-3.37-1.3S24.75,88.11,25.72,89.09Z" transform="translate(-0.01)"/><path class="cls-102" d="M25.86,88.82a1.37,1.37,0,0,0,2.07,0c.19-.2.6-1.07-.45-2a7,7,0,0,0-3-1.09A6.76,6.76,0,0,0,25.86,88.82Z" transform="translate(-0.01)"/><path class="cls-103" d="M26,88.19c1.07.9,1.75.44,1.93.26s.5-.88-.54-1.66a8.27,8.27,0,0,0-2.87-1A5.94,5.94,0,0,0,26,88.19Z" transform="translate(-0.01)"/><path class="cls-104" d="M25.95,86.81c.59.32.84.15.9.09s.12-.32-.44-.6A5.49,5.49,0,0,0,25,85.93,3.37,3.37,0,0,0,25.95,86.81Z" transform="translate(-0.01)"/><path class="cls-35" d="M25.3,106.63a1.46,1.46,0,1,0,2.07-2.07c-1-1-3.37-1.3-3.37-1.3S24.33,105.65,25.3,106.63Z" transform="translate(-0.01)"/><path class="cls-105" d="M25.44,106.36a1.37,1.37,0,0,0,2.07,0c.19-.2.6-1.07-.45-2a7,7,0,0,0-3-1.09A6.76,6.76,0,0,0,25.44,106.36Z" transform="translate(-0.01)"/><path class="cls-106" d="M25.6,105.73c1.07.9,1.75.44,1.93.27s.51-.89-.53-1.66a8.26,8.26,0,0,0-2.87-1A5.94,5.94,0,0,0,25.6,105.73Z" transform="translate(-0.01)"/><path class="cls-107" d="M25.52,104.35c.59.32.84.15.9.09s.12-.33-.44-.6a5.52,5.52,0,0,0-1.41-.36A3.36,3.36,0,0,0,25.52,104.35Z" transform="translate(-0.01)"/><path class="cls-35" d="M44,125.36A1.46,1.46,0,1,0,46,123.29c-1-1-3.37-1.3-3.37-1.3S43,124.38,44,125.36Z" transform="translate(-0.01)"/><path class="cls-108" d="M44.12,125.08a1.37,1.37,0,0,0,2.07,0c.19-.2.59-1.07-.45-2a7,7,0,0,0-3-1.09A6.77,6.77,0,0,0,44.12,125.08Z" transform="translate(-0.01)"/><path class="cls-109" d="M44.28,124.46c1.07.9,1.75.44,1.93.27s.5-.88-.53-1.66a8.24,8.24,0,0,0-2.87-1A5.92,5.92,0,0,0,44.28,124.46Z" transform="translate(-0.01)"/><path class="cls-110" d="M44.21,123.08c.59.32.84.15.9.09s.12-.33-.44-.6a5.5,5.5,0,0,0-1.41-.37A3.37,3.37,0,0,0,44.21,123.08Z" transform="translate(-0.01)"/><path class="cls-35" d="M70.32,134.37a2.25,2.25,0,1,0,3.18-3.17c-1.5-1.5-5.18-2-5.18-2S68.82,132.87,70.32,134.37Z" transform="translate(-0.01)"/><path class="cls-111" d="M70.53,134a2.11,2.11,0,0,0,3.18,0c.29-.31.91-1.65-.69-3s-4.63-1.67-4.63-1.67S69,132.57,70.53,134Z" transform="translate(-0.01)"/><path class="cls-112" d="M70.78,133c1.64,1.38,2.69.67,3,.41s.78-1.36-.82-2.55a12.66,12.66,0,0,0-4.41-1.59A9.1,9.1,0,0,0,70.78,133Z" transform="translate(-0.01)"/><path class="cls-113" d="M70.67,130.88c.9.5,1.29.23,1.38.14s.19-.5-.67-.92a8.4,8.4,0,0,0-2.17-.56A5.16,5.16,0,0,0,70.67,130.88Z" transform="translate(-0.01)"/><path class="cls-35" d="M106.13,123.43a3.61,3.61,0,1,0,5.1-5.1c-2.41-2.41-8.32-3.22-8.32-3.22S103.72,121,106.13,123.43Z" transform="translate(-0.01)"/><path class="cls-114" d="M106.46,122.76a3.39,3.39,0,0,0,5.11-.07c.46-.5,1.47-2.64-1.11-4.82s-7.45-2.69-7.45-2.69S104,120.54,106.46,122.76Z" transform="translate(-0.01)"/><path class="cls-115" d="M106.86,121.23c2.64,2.23,4.33,1.08,4.76.65s1.24-2.18-1.32-4.09c-2.37-1.77-7.08-2.56-7.08-2.56S104.43,119.17,106.86,121.23Z" transform="translate(-0.01)"/><path class="cls-116" d="M106.68,117.81c1.46.8,2.08.38,2.22.22s.3-.8-1.08-1.48a13.53,13.53,0,0,0-3.49-.9A8.29,8.29,0,0,0,106.68,117.81Z" transform="translate(-0.01)"/><path class="cls-35" d="M81.46,131.71a3.61,3.61,0,1,0,5.1-5.1c-2.41-2.41-8.32-3.22-8.32-3.22S79.06,129.31,81.46,131.71Z" transform="translate(-0.01)"/><path class="cls-117" d="M81.8,131A3.39,3.39,0,0,0,86.9,131c.46-.5,1.47-2.64-1.11-4.82s-7.45-2.69-7.45-2.69S79.36,128.82,81.8,131Z" transform="translate(-0.01)"/><path class="cls-118" d="M82.2,129.5c2.64,2.23,4.33,1.08,4.76.66s1.24-2.18-1.32-4.09c-2.37-1.77-7.07-2.56-7.07-2.56S79.76,127.45,82.2,129.5Z" transform="translate(-0.01)"/><path class="cls-119" d="M82,126.09c1.45.8,2.08.38,2.22.22s.29-.8-1.09-1.48a13.53,13.53,0,0,0-3.49-.9A8.26,8.26,0,0,0,82,126.09Z" transform="translate(-0.01)"/><path class="cls-35" d="M129.59,91.59a2.2,2.2,0,1,0,3.11-3.11c-1.47-1.47-5.07-2-5.07-2S128.12,90.13,129.59,91.59Z" transform="translate(-0.01)"/><path class="cls-120" d="M129.8,91.19a2.07,2.07,0,0,0,3.11,0c.28-.31.89-1.61-.68-2.94s-4.54-1.64-4.54-1.64S128.31,89.83,129.8,91.19Z" transform="translate(-0.01)"/><path class="cls-121" d="M130,90.25c1.61,1.36,2.64.66,2.9.4s.76-1.33-.8-2.49a12.41,12.41,0,0,0-4.31-1.56A8.93,8.93,0,0,0,130,90.25Z" transform="translate(-0.01)"/><path class="cls-122" d="M129.93,88.17c.89.49,1.26.23,1.35.13s.18-.49-.66-.9a8.23,8.23,0,0,0-2.12-.55A5.06,5.06,0,0,0,129.93,88.17Z" transform="translate(-0.01)"/><path class="cls-35" d="M86.78,111.11a1.65,1.65,0,1,0,2.32-2.33c-1.1-1.1-3.79-1.47-3.79-1.47S85.68,110,86.78,111.11Z" transform="translate(-0.01)"/><path class="cls-123" d="M86.93,110.8a1.54,1.54,0,0,0,2.33,0c.21-.23.67-1.21-.51-2.2a7.91,7.91,0,0,0-3.4-1.22A7.63,7.63,0,0,0,86.93,110.8Z" transform="translate(-0.01)"/><path class="cls-124" d="M87.11,110.1c1.21,1,2,.49,2.17.3s.57-1-.6-1.87a9.28,9.28,0,0,0-3.23-1.17A6.7,6.7,0,0,0,87.11,110.1Z" transform="translate(-0.01)"/><path class="cls-125" d="M87,108.54c.66.36.95.17,1,.1s.14-.36-.49-.68a6.24,6.24,0,0,0-1.59-.41A3.75,3.75,0,0,0,87,108.54Z" transform="translate(-0.01)"/><g class="cls-126"><circle class="cls-127" cx="21.55" cy="94.52" r="3.22"/></g><g class="cls-128"><circle class="cls-127" cx="56.55" cy="106.15" r="3.22"/></g><g class="cls-129"><circle class="cls-127" cx="118.63" cy="103.3" r="3.22"/></g><g class="cls-130"><circle class="cls-127" cx="126.53" cy="96.08" r="3.22"/></g><g class="cls-131"><circle class="cls-127" cx="87.81" cy="121.55" r="3.22"/></g><g class="cls-132"><circle class="cls-127" cx="102.9" cy="104.01" r="3.69"/></g><g class="cls-133"><circle class="cls-127" cx="47.01" cy="93.73" r="3.29"/></g><g class="cls-134"><circle class="cls-127" cx="62.19" cy="133.83" r="5.12"/></g><g class="cls-135"><circle class="cls-127" cx="76.24" cy="119.68" r="1.12"/></g><g class="cls-136"><circle class="cls-127" cx="85.39" cy="104.86" r="1.12"/></g><g class="cls-137"><circle class="cls-127" cx="125.42" cy="106.52" r="1.12"/></g><g class="cls-138"><circle class="cls-127" cx="133.83" cy="85.02" r="1.12"/></g><g class="cls-139"><circle class="cls-127" cx="98.63" cy="98.66" r="1.12"/></g><g class="cls-140"><circle class="cls-127" cx="32.73" cy="91.87" r="1.12"/></g><g class="cls-141"><circle class="cls-127" cx="34.33" cy="119.08" r="1.12"/></g><g class="cls-142"><circle class="cls-127" cx="19.45" cy="81.64" r="1.12"/></g><g class="cls-143"><circle class="cls-127" cx="73.67" cy="101.37" r="1.12"/></g><g class="cls-144"><circle class="cls-127" cx="73.67" cy="126.56" r="1.12"/></g><g class="cls-145"><circle class="cls-127" cx="103.32" cy="112.14" r="1.12"/></g><g class="cls-146"><circle class="cls-127" cx="53.74" cy="129.2" r="1.12"/></g><path class="cls-127" d="M43.13,105.27a1,1,0,0,0-.9.64h-.39a2.38,2.38,0,0,0-.48-1.16l.28-.28a1,1,0,1,0-.45-.45l-.28.28a2.42,2.42,0,0,0-1.16-.48v-.39a1,1,0,1,0-.63,0v.39a2.42,2.42,0,0,0-1.16.48L37.7,104a1,1,0,1,0-.44.45l.28.28a2.4,2.4,0,0,0-.48,1.16h-.39a1,1,0,1,0,0,.63h.39a2.39,2.39,0,0,0,.48,1.15l-.28.28a1,1,0,1,0,.44.44l.28-.28a2.38,2.38,0,0,0,1.16.48V109a1,1,0,1,0,.63,0v-.39a2.38,2.38,0,0,0,1.16-.48l.28.28a1,1,0,1,0,.45-.44l-.28-.28a2.37,2.37,0,0,0,.48-1.15h.39a1,1,0,1,0,.9-1.27Zm-1.54-2.11a.65.65,0,0,1,.92.92.66.66,0,0,1-.64.17h-.12l0,0h0l0,0h0l0,0h0l0,0h0l0,0,0,0h0l0,0h0l0,0h0l0,0h0l0,0h0v0h0v0h0v0A.64.64,0,0,1,41.59,103.16Zm-4.12.64v0h0v0h0v0h0l0,0h0l0,0h0l0,0h0l0,0h0l0,0,0,0h0l0,0h0l0,0h0l0,0h0l0,0H37a.65.65,0,0,1-.64-1.09.65.65,0,0,1,1.09.64Zm-1.05,2.46h0a.29.29,0,0,0,0,0h0v0h0v0h0v0h0v0h0l0,0h0l0,0a.65.65,0,1,1,0-.63l0,0h0l0,0h0v0h0v0h0v0h0v0h0v0h0a.24.24,0,0,1,0,0A.27.27,0,0,1,36.42,106.26Zm.89,3a.65.65,0,1,1-.28-1.09h0l0,0h0l0,0h0l0,0h0l0,0h0l0,0h0l0,0,0,0h0l0,0h0l0,0h0l0,0h0l0,0h0v0h0v0h0v0A.65.65,0,0,1,37.31,109.29Zm4.12-.64v0h0v0h0v0h0l0,0h0l0,0h0l0,0h0l0,0h0l0,0,0,0h.07l0,0h0l0,0h.12a.65.65,0,1,1-.45.44Zm-.25-3.71a2.13,2.13,0,0,1,.4,1h-.82a1.44,1.44,0,0,0-.16-.39Zm-.45-.45-.58.58a1.34,1.34,0,0,0-.39-.16v-.82A2.13,2.13,0,0,1,40.73,104.5Zm-1.28,2.38a.65.65,0,1,1,.66-.66A.65.65,0,0,1,39.45,106.88Zm-.65-4.34a.65.65,0,0,1,1.3,0,.66.66,0,0,1-.34.57l0,0h-.56l0,0A.65.65,0,0,1,38.8,102.54Zm.34,1.56v.82a1.34,1.34,0,0,0-.39.16l-.58-.58A2.14,2.14,0,0,1,39.13,104.1Zm-1.41.85.58.58a1.33,1.33,0,0,0-.16.39h-.82A2.14,2.14,0,0,1,37.72,104.94Zm0,2.57a2.13,2.13,0,0,1-.4-1h.82a1.31,1.31,0,0,0,.16.39Zm.45.45.58-.58a1.42,1.42,0,0,0,.39.16v.82A2.15,2.15,0,0,1,38.17,108Zm1.94,2a.65.65,0,1,1-1-.57l0,0h0l0,0h.49l0,0h0l0,0A.66.66,0,0,1,40.1,109.91Zm-.34-1.55v-.82a1.42,1.42,0,0,0,.39-.16l.58.58A2.14,2.14,0,0,1,39.76,108.36Zm1.41-.85-.58-.58a1.42,1.42,0,0,0,.16-.39h.82A2.12,2.12,0,0,1,41.18,107.51Zm2-.63a.65.65,0,0,1-.57-.34l0,0h0l0,0h0v0h0v0h0v0h0v0h0a.13.13,0,0,1,0,0h0s0,0,0,0,0,0,0,0h0v0h0a.1.1,0,0,1,0,0h0v0h0v0h0v0h0l0,0h0l0,0a.65.65,0,1,1,.57,1Z" transform="translate(-0.01)"/><path class="cls-127" d="M100.85,130.09a1,1,0,0,0-.9.64h-.39a2.41,2.41,0,0,0-.48-1.16l.27-.28a1,1,0,1,0-.44-.45l-.28.28a2.43,2.43,0,0,0-1.16-.48v-.39a1,1,0,1,0-.63,0v.39a2.42,2.42,0,0,0-1.15.48l-.28-.28a1,1,0,1,0-.44.45l.28.28a2.42,2.42,0,0,0-.48,1.16h-.39a1,1,0,1,0,0,.63h.39a2.42,2.42,0,0,0,.48,1.16l-.28.27a1,1,0,1,0,.44.45l.28-.28a2.36,2.36,0,0,0,1.15.48v.39a1,1,0,1,0,.63,0v-.39a2.38,2.38,0,0,0,1.16-.48l.28.28a1,1,0,1,0,.44-.45l-.27-.27a2.41,2.41,0,0,0,.48-1.16h.39a1,1,0,1,0,.9-1.27ZM99.31,128a.65.65,0,1,1,.28,1.09h-.12l0,0h0l0,0h0l0,0h0l0,0h0l0,0,0,0h0l0,0h0l0,0h0l0,0h0l0,0h0v0h0v0h0a.14.14,0,0,1,0,0A.65.65,0,0,1,99.31,128Zm-4.12.64v0h0v0h0v0h0l0,0h0l0,0h0l0,0h0l0,0h0l0,0,0,0h0l0,0h0l0,0h0l0,0h0l0,0h-.12a.65.65,0,1,1,.45-.45Zm-1.06,2.46h0a.09.09,0,0,1,0,0h0v0h0v0h0v0h0v0h0v0h0l0,0a.65.65,0,1,1,0-.63l0,0h0v0h0v0h0v0h0v0h0v0h0a.08.08,0,0,1,0,0h0v.08Zm.89,3a.65.65,0,1,1-.28-1.09h.12l0,0h0l0,0h0l0,0h0l0,0h0l0,0,0,0h0l0,0h0l0,0h0l0,0h0l0,0h0v0h0v0h0v0A.65.65,0,0,1,95,134.11Zm4.12-.64a.13.13,0,0,1,0,0h0v0h0v0h0l0,0h0l0,0h0l0,0h0l0,0h0l0,0,0,0h0l0,0h0l0,0h0l0,0h.12a.65.65,0,1,1-.45.45Zm-.25-3.71a2.14,2.14,0,0,1,.4,1h-.82a1.29,1.29,0,0,0-.16-.39Zm-.45-.44-.58.58a1.28,1.28,0,0,0-.39-.16v-.82A2.14,2.14,0,0,1,98.45,129.31Zm-1.28,2.38a.65.65,0,1,1,.65-.66A.66.66,0,0,1,97.16,131.7Zm-.65-4.34a.65.65,0,1,1,1,.57l0,0h-.56l0,0A.65.65,0,0,1,96.51,127.36Zm.34,1.56v.82a1.29,1.29,0,0,0-.39.16l-.58-.58A2.14,2.14,0,0,1,96.85,128.91Zm-1.41.85.58.58a1.31,1.31,0,0,0-.16.39H95A2.13,2.13,0,0,1,95.43,129.76Zm0,2.57a2.12,2.12,0,0,1-.4-1h.82a1.33,1.33,0,0,0,.16.39Zm.44.45.58-.58a1.35,1.35,0,0,0,.39.16v.82A2.16,2.16,0,0,1,95.88,132.77Zm1.94,2a.65.65,0,1,1-1-.57l0,0h.56l0,0A.65.65,0,0,1,97.82,134.73Zm-.34-1.55v-.82a1.34,1.34,0,0,0,.39-.16l.58.58A2.17,2.17,0,0,1,97.48,133.17Zm1.42-.85-.58-.58a1.31,1.31,0,0,0,.16-.39h.82A2.13,2.13,0,0,1,98.89,132.33Zm2-.63a.65.65,0,0,1-.57-.34l0,0h0v0h0v0h0v0h0v0h0v0h0v0h0s0,0,0,0,0,0,0,0h0v0h0a.25.25,0,0,0,0,0h0v0h0v0h0v0h0v0h0l0,0a.65.65,0,1,1,.57,1Z" transform="translate(-0.01)"/><path class="cls-127" d="M142.42,97.41a1,1,0,0,0-.9.64h-.39a2.41,2.41,0,0,0-.48-1.15l.28-.28a1,1,0,1,0-.45-.45l-.27.28a2.41,2.41,0,0,0-1.16-.48v-.39a1,1,0,1,0-.63,0V96a2.41,2.41,0,0,0-1.16.48l-.28-.28a1,1,0,1,0-.45.45l.28.28a2.4,2.4,0,0,0-.48,1.15H136a1,1,0,1,0,0,.63h.39a2.4,2.4,0,0,0,.48,1.16l-.28.28a1,1,0,1,0,.26,1.53,1,1,0,0,0,.18-1.09l.28-.28a2.4,2.4,0,0,0,1.16.48v.39a1,1,0,1,0,.63,0v-.39a2.4,2.4,0,0,0,1.16-.48l.27.28a1,1,0,1,0,.45-.44l-.28-.28a2.41,2.41,0,0,0,.48-1.16h.39a1,1,0,1,0,.9-1.27Zm-1.54-2.11a.65.65,0,1,1,.28,1.09H141l0,0h0l0,0h0l0,0h0l0,0,0,0h0l0,0h0l0,0h0l0,0h0l0,0h0v0h0v0h0v0A.65.65,0,0,1,140.88,95.3Zm-4.12.64v0h0v0h0v0h0l0,0h0l0,0h0l0,0h0l0,0h0l0,0,0,0h0l0,0h0l0,0h0l0,0h0l0,0h-.11a.65.65,0,1,1,.44-.44Zm-1.05,2.46h0a.13.13,0,0,1,0,0h0v0h0v0h0v0h0v0h0v0h0l0,0a.65.65,0,1,1,0-.63l0,0h0v0h0v0h0v0h0v0h0v0h0a.13.13,0,0,1,0,0h0v.08Zm.89,3a.65.65,0,1,1-.28-1.09h.11l0,0h0l0,0h0l0,0h0l0,0h0l0,0,0,0h0l0,0h0l0,0h0l0,0h0l0,0h0v0h0v0h0v0A.65.65,0,0,1,136.59,101.44Zm4.12-.64v0h0v0h0v0h0l0,0h0l0,0h0l0,0h0l0,0h0l0,0,0,0h0l0,0h0l0,0h0l0,0h0l0,0h.12a.65.65,0,1,1-.45.44Zm-.25-3.71a2.14,2.14,0,0,1,.4,1H140a1.28,1.28,0,0,0-.16-.39Zm-.44-.45-.58.58a1.31,1.31,0,0,0-.39-.16v-.82A2.17,2.17,0,0,1,140,96.64ZM138.74,99a.65.65,0,1,1,.66-.65A.65.65,0,0,1,138.74,99Zm-.65-4.34a.65.65,0,1,1,1,.57l0,0h0l0,0h-.49l0,0h0l0,0A.66.66,0,0,1,138.09,94.68Zm.34,1.55v.82a1.35,1.35,0,0,0-.39.16l-.58-.58A2.15,2.15,0,0,1,138.42,96.24Zm-1.42.85.58.58a1.26,1.26,0,0,0-.16.39h-.82A2.16,2.16,0,0,1,137,97.09Zm0,2.57a2.16,2.16,0,0,1-.4-1h.82a1.27,1.27,0,0,0,.16.39Zm.45.45.58-.58a1.37,1.37,0,0,0,.39.16v.82A2.15,2.15,0,0,1,137.46,100.1Zm1.94,2a.65.65,0,1,1-1-.57l0,0H139l0,0A.65.65,0,0,1,139.39,102.05Zm-.34-1.55v-.82a1.34,1.34,0,0,0,.39-.16l.58.58A2.17,2.17,0,0,1,139.05,100.5Zm1.41-.85-.58-.58a1.29,1.29,0,0,0,.16-.39h.82A2.14,2.14,0,0,1,140.47,99.65Zm2-.63a.66.66,0,0,1-.57-.34l0,0h0v0h0v0h0v0h0v0h0a.13.13,0,0,0,0,0h0v0h0s0,0,0,0,0,0,0,0h0a.24.24,0,0,1,0,0h0v0h0v0h0v0h0v0h0v0h0l0,0a.65.65,0,1,1,.57,1Z" transform="translate(-0.01)"/><path class="cls-127" d="M74.3,111.82a.65.65,0,0,0-.62.44h-.27a1.63,1.63,0,0,0-.33-.79l.19-.19A.65.65,0,1,0,73,111l-.19.19a1.64,1.64,0,0,0-.79-.33v-.27a.65.65,0,1,0-.43,0v.27a1.64,1.64,0,0,0-.79.33l-.19-.19a.65.65,0,0,0-1-.75.65.65,0,0,0,.75,1.05l.19.19a1.66,1.66,0,0,0-.33.79h-.27a.65.65,0,1,0,0,.43h.27a1.66,1.66,0,0,0,.33.79l-.19.19a.65.65,0,1,0,.3.3l.19-.19a1.65,1.65,0,0,0,.79.33v.27a.65.65,0,1,0,.43,0v-.27a1.65,1.65,0,0,0,.79-.33L73,114a.65.65,0,1,0,.31-.3l-.19-.19a1.63,1.63,0,0,0,.33-.79h.27a.65.65,0,1,0,.62-.87Zm-1.05-1.44a.45.45,0,0,1,.63.63.44.44,0,0,1-.44.11h-.17l0,0,0,0h0v0h0v0h0v0h0v0h0v0h0v0A.44.44,0,0,1,73.25,110.38Zm-2.82.44v0h0v0h0v0h0v0h0l0,0h0v0h0l0,0,0,0h-.17a.44.44,0,0,1-.44-.11.45.45,0,1,1,.74-.19Zm-.72,1.68h0v0h0a.07.07,0,0,1,0,0h0v0h0v0h0v0h0v0h0v0a.45.45,0,0,1-.39.23.45.45,0,1,1,0-.89.45.45,0,0,1,.39.23v0h0v0h0v0h0v0h0v0h0a.06.06,0,0,1,0,0h0v0h0a.21.21,0,0,1,0,0Zm.61,2.07a.45.45,0,1,1-.19-.75h.17l0,0,0,0h0v0h0l0,0h0v0h0v0h0v0h0v0A.44.44,0,0,1,70.31,114.57Zm2.82-.44v0h0v0h0v0h0v0h0v0h0l0,0,0,0h.17a.45.45,0,1,1-.19.75A.44.44,0,0,1,73.13,114.13ZM73,111.6a1.48,1.48,0,0,1,.27.66h-.56a.92.92,0,0,0-.11-.26Zm-.31-.3-.4.4a.85.85,0,0,0-.26-.11V111A1.46,1.46,0,0,1,72.66,111.29Zm-.88,1.63a.45.45,0,1,1,.45-.45A.45.45,0,0,1,71.78,112.92Zm-.45-3a.45.45,0,0,1,.89,0,.45.45,0,0,1-.23.39h-.43A.45.45,0,0,1,71.33,110Zm.23,1.06v.56a.82.82,0,0,0-.27.11l-.4-.4A1.47,1.47,0,0,1,71.56,111Zm-1,.58.4.4a.89.89,0,0,0-.11.26h-.56A1.5,1.5,0,0,1,70.6,111.6Zm0,1.76a1.48,1.48,0,0,1-.28-.66h.56A.89.89,0,0,0,71,113Zm.3.3.4-.4a.94.94,0,0,0,.27.11v.56A1.48,1.48,0,0,1,70.9,113.66ZM72.23,115a.45.45,0,1,1-.66-.39H72A.45.45,0,0,1,72.23,115ZM72,113.93v-.56a1,1,0,0,0,.26-.11l.4.4A1.47,1.47,0,0,1,72,113.93Zm1-.58-.4-.4a.92.92,0,0,0,.11-.27h.56A1.47,1.47,0,0,1,73,113.35Zm1.34-.43a.45.45,0,0,1-.39-.23v0h0v0h0v0h0v0h0v0h0v0h0v0h0v0s0,0,0,0h0v0h0v0h0v0h0v0h0v0h0v0h0v0a.45.45,0,0,1,.84.22A.44.44,0,0,1,74.3,112.92Z" transform="translate(-0.01)"/><path class="cls-127" d="M46.32,124.91a.65.65,0,0,0-.62.44h-.27a1.63,1.63,0,0,0-.33-.79l.19-.19a.65.65,0,1,0-.31-.3l-.19.19a1.66,1.66,0,0,0-.79-.33v-.27a.65.65,0,1,0-.43,0v.27a1.64,1.64,0,0,0-.79.33l-.19-.19a.66.66,0,1,0-.3.3l.19.19a1.62,1.62,0,0,0-.33.79h-.27a.65.65,0,1,0,0,.43h.27a1.63,1.63,0,0,0,.33.79l-.19.19a.65.65,0,1,0,.3.31l.19-.19a1.64,1.64,0,0,0,.79.33v.27a.65.65,0,1,0,.43,0v-.27a1.66,1.66,0,0,0,.79-.33l.19.19a.65.65,0,1,0,.31-.31l-.19-.19a1.64,1.64,0,0,0,.33-.79h.27a.65.65,0,1,0,.62-.87Zm-1.05-1.44a.45.45,0,0,1,.63.63.44.44,0,0,1-.44.11h-.17l0,0,0,0h0v0h0v0h0v0h0v0h0v0A.44.44,0,0,1,45.27,123.46Zm-2.82.44v0h0v0h0v0h0v0h0v0h0l0,0,0,0h-.17a.45.45,0,1,1,.19-.74A.44.44,0,0,1,42.45,123.9Zm-.72,1.69h0v0h0v0h0v0h0v0h0v0h0v0h0v0a.45.45,0,1,1,0-.43v0h0v0h0v0h0v0h0v0h0v0h0v0h0v.05Zm.61,2.07a.45.45,0,1,1-.63-.63.46.46,0,0,1,.44-.12h.17l0,0,0,0h0v0h0v0h0v0h0v0h0v0h0v0A.44.44,0,0,1,42.33,127.66Zm2.82-.44v0h0v0h0v0h0v0h0v0h0v0h0l0,0,0,0h.17a.45.45,0,0,1,.44.12.45.45,0,1,1-.74.19ZM45,124.68a1.48,1.48,0,0,1,.28.66H44.7a.88.88,0,0,0-.11-.27Zm-.3-.3-.4.4a1,1,0,0,0-.27-.11v-.56A1.5,1.5,0,0,1,44.68,124.38ZM43.8,126a.45.45,0,1,1,.45-.45A.45.45,0,0,1,43.8,126Zm-.45-3a.45.45,0,1,1,.66.39h-.43A.45.45,0,0,1,43.35,123Zm.23,1.06v.56a.94.94,0,0,0-.27.11l-.4-.4A1.47,1.47,0,0,1,43.59,124.1Zm-1,.58.4.4a.91.91,0,0,0-.11.27h-.56A1.49,1.49,0,0,1,42.62,124.68Zm0,1.76a1.48,1.48,0,0,1-.27-.66h.56A.88.88,0,0,0,43,126Zm.31.31.4-.4a.91.91,0,0,0,.27.11V127A1.45,1.45,0,0,1,42.92,126.75Zm1.32,1.34a.45.45,0,1,1-.66-.39H44A.44.44,0,0,1,44.25,128.08ZM44,127v-.56a.92.92,0,0,0,.27-.11l.4.4A1.48,1.48,0,0,1,44,127Zm1-.58-.4-.4a.85.85,0,0,0,.11-.26h.56A1.47,1.47,0,0,1,45,126.44Zm1.34-.43a.45.45,0,0,1-.39-.23v0h0v0h0v0h0v0h0v0h0v0h0v0h0a.1.1,0,0,1,0,0,.08.08,0,0,1,0,0h0v0h0v0h0v0h0v0h0v0h0v0h0v0a.45.45,0,1,1,.39.66Z" transform="translate(-0.01)"/><path class="cls-127" d="M113.59,95.74a.65.65,0,0,0-.62.44h-.27a1.64,1.64,0,0,0-.32-.79l.19-.19a.66.66,0,1,0-.3-.3l-.19.19a1.65,1.65,0,0,0-.79-.33v-.27a.65.65,0,1,0-.43,0v.27a1.64,1.64,0,0,0-.79.33l-.19-.19a.65.65,0,1,0-.3.3l.19.19a1.63,1.63,0,0,0-.33.79h-.27a.65.65,0,1,0,0,.43h.27a1.63,1.63,0,0,0,.33.79l-.19.19a.66.66,0,1,0,.3.31l.19-.19a1.64,1.64,0,0,0,.79.33v.27a.65.65,0,1,0,.43,0V98a1.64,1.64,0,0,0,.79-.33l.19.19a.65.65,0,1,0,.3-.31l-.19-.19a1.64,1.64,0,0,0,.32-.79H113a.65.65,0,1,0,.62-.87Zm-1.06-1.45a.45.45,0,0,1,.63.63.44.44,0,0,1-.44.11h-.17l0,0,0,0h0v0h0v0h0v0h0v0h0v0h0v0A.45.45,0,0,1,112.53,94.29Zm-2.82.44v0h0v0h0v0h0v0h0v0h0v0h0l0,0,0,0h-.17a.44.44,0,0,1-.44-.11.45.45,0,1,1,.75-.19ZM109,96.42h0v0h0v0h0v0h0v0h0v0h0v0h0v0a.45.45,0,1,1,0-.43v0h0v0h0v0h0v0h0v0h0v0h0v0h0v.05Zm.61,2.07a.45.45,0,1,1-.19-.75h.17l0,0,0,0h0v0h0v0h0v0h0v0h0v0h0v0A.45.45,0,0,1,109.6,98.49Zm2.82-.44v0h0v0h0v0h0v0h0v0h0v0h0l0,0,0,0h.17a.45.45,0,1,1-.19.75A.45.45,0,0,1,112.42,98Zm-.17-2.54a1.46,1.46,0,0,1,.27.66H112a.85.85,0,0,0-.11-.26Zm-.3-.31-.4.4a1,1,0,0,0-.26-.11v-.56A1.49,1.49,0,0,1,111.95,95.21Zm-.88,1.63a.45.45,0,1,1,.45-.45A.45.45,0,0,1,111.07,96.84Zm-.45-3a.45.45,0,1,1,.66.39h-.43A.45.45,0,0,1,110.62,93.87Zm.23,1.06v.56a.93.93,0,0,0-.27.11l-.4-.4A1.47,1.47,0,0,1,110.85,94.93Zm-1,.58.4.4a1,1,0,0,0-.11.26h-.56A1.46,1.46,0,0,1,109.88,95.51Zm0,1.76a1.46,1.46,0,0,1-.27-.66h.56a1,1,0,0,0,.11.27Zm.31.3.4-.4a1,1,0,0,0,.27.11v.56A1.43,1.43,0,0,1,110.19,97.57Zm1.33,1.34a.45.45,0,1,1-.66-.39h.43A.45.45,0,0,1,111.52,98.91Zm-.23-1.06v-.56a1,1,0,0,0,.26-.11l.4.4A1.45,1.45,0,0,1,111.28,97.85Zm1-.58-.4-.4a.92.92,0,0,0,.11-.27h.56A1.46,1.46,0,0,1,112.25,97.27Zm1.34-.43a.45.45,0,0,1-.39-.23v0h0v0h0v0h0v0h0v0h0v0h0v0h0a.13.13,0,0,1,0,0v0h0v0h0v0h0v0h0v0h0v0h0v0h0v0a.45.45,0,1,1,.39.66Z" transform="translate(-0.01)"/><path class="cls-127" d="M120.14,119.51a.38.38,0,0,0-.36.26h-.16a1,1,0,0,0-.2-.47l.11-.11a.39.39,0,1,0-.18-.18l-.11.11a1,1,0,0,0-.47-.19v-.16a.39.39,0,1,0-.26,0v.16a1,1,0,0,0-.47.19l-.11-.11a.38.38,0,1,0-.18.18l.11.11a1,1,0,0,0-.2.47h-.16a.39.39,0,1,0,0,.26h.16a1,1,0,0,0,.2.47l-.11.11a.39.39,0,1,0,.18.18l.11-.11a1,1,0,0,0,.47.19V121a.39.39,0,1,0,.26,0v-.16a1,1,0,0,0,.47-.19l.11.11a.39.39,0,1,0,.18-.18l-.11-.11a1,1,0,0,0,.2-.47h.16a.38.38,0,0,0,.36.26.39.39,0,1,0,0-.78Zm-.63-.86a.27.27,0,1,1,.11.44h-.17v0A.26.26,0,0,1,119.51,118.65Zm-1.68.26v0h-.17a.27.27,0,0,1-.26-.07.27.27,0,0,1,.38-.38A.26.26,0,0,1,117.83,118.92Zm-.43,1h0a.26.26,0,1,1,0-.26v0h0v0h0Zm.36,1.23a.26.26,0,0,1-.38,0,.27.27,0,0,1,0-.37.27.27,0,0,1,.26-.07h.17v0A.26.26,0,0,1,117.76,121.15Zm1.68-.26v0h.17a.27.27,0,0,1,.26.07.27.27,0,1,1-.44.11Zm-.1-1.51a.86.86,0,0,1,.16.39h-.33a.49.49,0,0,0-.07-.16Zm-.18-.18-.24.24a.51.51,0,0,0-.16-.07V119A.84.84,0,0,1,119.16,119.2Zm-.52,1a.27.27,0,1,1,.26-.26A.27.27,0,0,1,118.64,120.17Zm-.27-1.76a.27.27,0,1,1,.39.23h-.26A.27.27,0,0,1,118.37,118.4Zm.14.63v.33a.49.49,0,0,0-.16.07l-.24-.24A.85.85,0,0,1,118.51,119Zm-.58.34.24.24a.59.59,0,0,0-.07.16h-.33A.89.89,0,0,1,117.93,119.38Zm0,1a.89.89,0,0,1-.16-.4h.33a.55.55,0,0,0,.07.16Zm.18.18.24-.24.16.07v.33A.85.85,0,0,1,118.12,120.6Zm.79.8a.27.27,0,1,1-.39-.23h.26A.26.26,0,0,1,118.9,121.4Zm-.14-.63v-.33l.16-.07.24.24A.84.84,0,0,1,118.77,120.77Zm.57-.34-.24-.24a.47.47,0,0,0,.07-.16h.33A.86.86,0,0,1,119.34,120.42Zm.8-.26a.27.27,0,0,1-.23-.14h0v0h0v0h0v0a.27.27,0,1,1,.23.39Z" transform="translate(-0.01)"/><path class="cls-127" d="M128,84.21a.39.39,0,0,0-.37.26h-.16a1,1,0,0,0-.19-.47l.11-.11a.39.39,0,1,0-.18-.18l-.11.11a1,1,0,0,0-.47-.19v-.16a.39.39,0,1,0-.26,0v.16a1,1,0,0,0-.47.19l-.11-.11a.39.39,0,1,0-.18.18l.11.11a1,1,0,0,0-.2.47h-.16a.39.39,0,1,0,0,.26h.16a1,1,0,0,0,.2.47l-.11.11a.39.39,0,1,0,.11.62.38.38,0,0,0,.07-.44l.11-.11a1,1,0,0,0,.47.2v.16a.39.39,0,0,0,.13.75.39.39,0,0,0,.39-.39.39.39,0,0,0-.26-.37v-.16a1,1,0,0,0,.47-.2l.11.11a.38.38,0,0,0,.07.44.39.39,0,1,0,.11-.62l-.11-.11a1,1,0,0,0,.19-.47h.16A.38.38,0,0,0,128,85a.39.39,0,0,0,0-.78Zm-.63-.86a.27.27,0,0,1,.38.38.27.27,0,0,1-.26.07h-.18v0A.26.26,0,0,1,127.41,83.35Zm-1.68.26v0h-.18a.27.27,0,0,1-.26-.44.27.27,0,0,1,.44.26Zm-.43,1h0v0h0a.26.26,0,0,1-.23.14.27.27,0,1,1,.23-.39v0h0v0h0v0Zm.36,1.23a.27.27,0,1,1-.11-.44h.15v0h0A.26.26,0,0,1,125.67,85.84Zm1.68-.26h0v0h.15a.27.27,0,1,1-.12.44A.26.26,0,0,1,127.35,85.58Zm-.1-1.51a.87.87,0,0,1,.16.39h-.33a.48.48,0,0,0-.07-.16Zm-.18-.18-.23.24a.56.56,0,0,0-.16-.06v-.33A.9.9,0,0,1,127.06,83.89Zm-.52,1a.27.27,0,1,1,.27-.27A.27.27,0,0,1,126.54,84.86Zm-.26-1.77a.27.27,0,1,1,.39.23h-.26A.27.27,0,0,1,126.28,83.1Zm.14.63v.33a.53.53,0,0,0-.16.06l-.24-.24A.9.9,0,0,1,126.41,83.73Zm-.57.34.23.24a.58.58,0,0,0-.07.16h-.33A.85.85,0,0,1,125.84,84.08Zm0,1a.84.84,0,0,1-.16-.39H126a.57.57,0,0,0,.07.16Zm.18.18.24-.24.16.06v.33A.82.82,0,0,1,126,85.3Zm.79.79a.27.27,0,1,1-.39-.23h.26A.26.26,0,0,1,126.81,86.1Zm-.14-.63v-.33l.16-.06.23.24A.82.82,0,0,1,126.67,85.46Zm.58-.34-.24-.24a.48.48,0,0,0,.07-.16h.33A.86.86,0,0,1,127.25,85.12Zm.8-.26a.27.27,0,0,1-.24-.14h0v0h0v0h0v0h0v0a.27.27,0,0,1,.24-.14.27.27,0,0,1,0,.53Z" transform="translate(-0.01)"/><path class="cls-127" d="M57.63,92.53a.39.39,0,0,0-.37.26H57.1a1,1,0,0,0-.19-.47L57,92.2a.39.39,0,1,0-.18-.18l-.11.11a1,1,0,0,0-.47-.19v-.16a.39.39,0,1,0-.25,0v.16a1,1,0,0,0-.47.2L55.42,92a.38.38,0,0,0-.08-.44.39.39,0,1,0-.1.62l.11.11a1,1,0,0,0-.2.47H55A.39.39,0,1,0,55,93h.16a1,1,0,0,0,.2.47l-.11.11a.39.39,0,1,0,.18.18l.11-.11a1,1,0,0,0,.47.19V94a.39.39,0,1,0,.25,0v-.16a1,1,0,0,0,.47-.19l.11.11a.39.39,0,1,0,.62-.11.39.39,0,0,0-.44-.07l-.11-.11A1,1,0,0,0,57.1,93h.16a.39.39,0,1,0,.37-.51ZM57,91.67a.26.26,0,0,1,.38,0,.27.27,0,0,1,0,.37.26.26,0,0,1-.26.07h-.18v0A.27.27,0,0,1,57,91.67Zm-1.68.26v0h-.17a.26.26,0,0,1-.26-.07.27.27,0,0,1,.38-.37A.27.27,0,0,1,55.33,91.93Zm-.43,1h0v0h0v0h0a.26.26,0,0,1-.23.14.27.27,0,1,1,.23-.39h0v0h0Zm.36,1.23a.27.27,0,1,1-.11-.44h.17v0A.27.27,0,0,1,55.26,94.16Zm1.67-.26v0h.18a.27.27,0,0,1,.26.44.27.27,0,0,1-.44-.26Zm-.1-1.51a.88.88,0,0,1,.16.39h-.33a.53.53,0,0,0-.07-.16Zm-.18-.18-.23.24-.16-.07V92A.86.86,0,0,1,56.65,92.21Zm-.52,1a.27.27,0,1,1,.27-.27A.27.27,0,0,1,56.13,93.18Zm-.27-1.77a.27.27,0,1,1,.39.23H56A.27.27,0,0,1,55.87,91.41ZM56,92v.33a.52.52,0,0,0-.16.07l-.24-.24A.84.84,0,0,1,56,92Zm-.58.34.24.24a.49.49,0,0,0-.07.16h-.33A.87.87,0,0,1,55.43,92.39Zm0,1a.87.87,0,0,1-.16-.39h.33a.52.52,0,0,0,.07.16Zm.18.18.24-.24a.57.57,0,0,0,.16.07v.33A.84.84,0,0,1,55.61,93.62Zm.79.8a.27.27,0,1,1-.39-.23h.25A.27.27,0,0,1,56.4,94.41Zm-.14-.63v-.33l.16-.07.23.24A.85.85,0,0,1,56.26,93.78Zm.58-.34-.24-.24a.57.57,0,0,0,.07-.16H57A.88.88,0,0,1,56.83,93.43Zm.8-.26A.26.26,0,0,1,57.4,93h0v0h0v0h0v0h0v0h0a.27.27,0,1,1,.23.39Z" transform="translate(-0.01)"/><path class="cls-127" d="M62.36,120.41a.39.39,0,0,0-.37.26h-.16a1,1,0,0,0-.19-.47l.11-.11a.39.39,0,1,0-.18-.18l-.11.11a1,1,0,0,0-.47-.19v-.16a.39.39,0,1,0-.25,0v.16a1,1,0,0,0-.47.19l-.11-.11a.39.39,0,0,0-.62-.44.39.39,0,0,0,.44.63l.11.11a1,1,0,0,0-.19.47h-.16a.39.39,0,1,0,0,.25h.16a1,1,0,0,0,.19.47l-.11.11a.39.39,0,1,0,.11.63.39.39,0,0,0,.07-.44l.11-.11a1,1,0,0,0,.47.19v.16a.39.39,0,1,0,.25,0v-.16a1,1,0,0,0,.47-.19l.11.11a.39.39,0,1,0,.18-.18l-.11-.11a1,1,0,0,0,.19-.47H62a.39.39,0,1,0,.37-.51Zm-.63-.86a.26.26,0,1,1,.11.44h-.18v0A.26.26,0,0,1,61.74,119.55Zm-1.68.26v0h-.17a.27.27,0,1,1,.18-.18Zm-.43,1h0v0h0a.27.27,0,1,1,0-.25h0v0ZM60,122a.26.26,0,0,1-.38,0,.27.27,0,0,1,.26-.44h.17v0A.27.27,0,0,1,60,122Zm1.67-.26h.18a.26.26,0,0,1,.26.44.27.27,0,0,1-.44-.26Zm-.1-1.51a.85.85,0,0,1,.16.4H61.4a.5.5,0,0,0-.07-.16Zm-.18-.18-.23.24a.53.53,0,0,0-.16-.06v-.34A.9.9,0,0,1,61.38,120.09Zm-.52,1a.27.27,0,1,1,.27-.26A.27.27,0,0,1,60.86,121.06Zm-.27-1.76a.27.27,0,1,1,.39.23h-.25A.27.27,0,0,1,60.6,119.3Zm.14.63v.34a.51.51,0,0,0-.16.06l-.24-.24A.9.9,0,0,1,60.73,119.93Zm-.57.35.24.24a.48.48,0,0,0-.07.16H60A.88.88,0,0,1,60.16,120.27Zm0,1a.87.87,0,0,1-.16-.39h.33a.51.51,0,0,0,.07.16Zm.18.18.24-.24.16.07v.33A.84.84,0,0,1,60.34,121.5Zm.79.8a.27.27,0,1,1-.39-.23H61A.26.26,0,0,1,61.13,122.29Zm-.14-.63v-.33a.59.59,0,0,0,.16-.07l.23.24A.83.83,0,0,1,61,121.66Zm.58-.34-.24-.24a.54.54,0,0,0,.07-.16h.33A.85.85,0,0,1,61.57,121.32Zm.8-.26a.27.27,0,0,1-.23-.14h0v0h0v0h0a.27.27,0,1,1,.23.39Z" transform="translate(-0.01)"/><use width="257.01" height="223.64" transform="matrix(-0.11, -0.01, 0, -0.16, 70.64, 65.49)" xlink:href="#New_Symbol"/><use width="257.01" height="223.64" transform="matrix(-0.11, -0.01, 0, -0.16, 58.28, 62.9)" xlink:href="#New_Symbol"/><use width="257.01" height="223.64" transform="matrix(-0.11, -0.01, 0, -0.16, 53.89, 60.61)" xlink:href="#New_Symbol"/><use width="257.01" height="223.64" transform="matrix(-0.11, -0.01, 0, -0.16, 49.07, 62.17)" xlink:href="#New_Symbol"/><use width="257.01" height="223.64" transform="matrix(-0.16, -0.02, 0, -0.23, 102.18, 80.68)" xlink:href="#New_Symbol"/><use width="257.01" height="223.64" transform="matrix(-0.16, -0.02, 0, -0.23, 84.65, 77.01)" xlink:href="#New_Symbol"/><use width="257.01" height="223.64" transform="matrix(-0.16, -0.02, 0, -0.23, 78.43, 73.77)" xlink:href="#New_Symbol"/><use width="257.01" height="223.64" transform="matrix(-0.16, -0.02, 0, -0.23, 71.59, 75.98)" xlink:href="#New_Symbol"/><use width="257.01" height="223.64" transform="matrix(-0.17, -0.02, 0, -0.15, 131.06, 64.18)" xlink:href="#New_Symbol_2"/><use width="257.01" height="223.64" transform="matrix(-0.17, -0.02, 0, -0.15, 98.54, 51.23)" xlink:href="#New_Symbol_2"/><use width="257.01" height="223.64" transform="matrix(-0.17, -0.02, 0, -0.15, 70.85, 64.01)" xlink:href="#New_Symbol_2"/><use width="257.01" height="223.64" transform="matrix(-0.17, -0.02, 0, -0.15, 81.2, 56.97)" xlink:href="#New_Symbol_2"/><use width="257.01" height="223.64" transform="matrix(-0.17, -0.02, 0, -0.19, 151.72, 71.72)" xlink:href="#New_Symbol_2"/><use width="257.01" height="223.64" transform="matrix(-0.17, -0.02, 0, -0.19, 97.49, 72.94)" xlink:href="#New_Symbol_2"/><use width="257.01" height="223.64" transform="matrix(0.12, 0.02, 0, 0.19, 0, 24.34)" xlink:href="#New_Symbol_2"/><use width="257.01" height="223.64" transform="matrix(0.12, 0.02, 0, 0.19, 39.96, 23.12)" xlink:href="#New_Symbol_2"/><use width="257.01" height="223.64" transform="translate(9.53 53.18) scale(0.18 0.12)" xlink:href="#New_Symbol"/><use width="257.01" height="223.64" transform="translate(29.25 54.06) scale(0.18 0.12)" xlink:href="#New_Symbol"/><use width="257.01" height="223.64" transform="translate(36.25 55.43) scale(0.18 0.12)" xlink:href="#New_Symbol"/><use width="257.01" height="223.64" transform="translate(43.95 53.8) scale(0.18 0.12)" xlink:href="#New_Symbol"/><use width="257.01" height="223.64" transform="translate(83.47 42.92) scale(0.12 0.16)" xlink:href="#New_Symbol"/><use width="257.01" height="223.64" transform="translate(97.23 44.06) scale(0.12 0.16)" xlink:href="#New_Symbol"/><use width="257.01" height="223.64" transform="translate(102.12 45.84) scale(0.12 0.16)" xlink:href="#New_Symbol"/><use width="257.01" height="223.64" transform="translate(107.49 43.72) scale(0.12 0.16)" xlink:href="#New_Symbol"/><use width="257.01" height="223.64" transform="translate(48.36 31.4) scale(0.17 0.23)" xlink:href="#New_Symbol"/><use width="257.01" height="223.64" transform="translate(67.87 33.02) scale(0.17 0.23)" xlink:href="#New_Symbol"/><use width="257.01" height="223.64" transform="translate(74.8 35.54) scale(0.17 0.23)" xlink:href="#New_Symbol"/><use width="257.01" height="223.64" transform="translate(82.42 32.53) scale(0.17 0.23)" xlink:href="#New_Symbol"/><use width="257.01" height="223.64" transform="translate(41.16 66.35) scale(0.12 0.11)" xlink:href="#New_Symbol"/><use width="257.01" height="223.64" transform="translate(54.74 67.15) scale(0.12 0.11)" xlink:href="#New_Symbol"/><use width="257.01" height="223.64" transform="translate(59.56 68.39) scale(0.12 0.11)" xlink:href="#New_Symbol"/><use width="257.01" height="223.64" transform="translate(64.86 66.91) scale(0.12 0.11)" xlink:href="#New_Symbol"/><use width="257.01" height="223.64" transform="translate(57.27 69.67) rotate(180) scale(0.09 0.14)" xlink:href="#New_Symbol"/><use width="257.01" height="223.64" transform="translate(47.72 68.7) rotate(180) scale(0.09 0.14)" xlink:href="#New_Symbol"/><use width="257.01" height="223.64" transform="translate(44.33 67.21) rotate(180) scale(0.09 0.14)" xlink:href="#New_Symbol"/><use width="257.01" height="223.64" transform="translate(40.6 68.99) rotate(180) scale(0.09 0.14)" xlink:href="#New_Symbol"/><use width="257.01" height="223.64" transform="translate(52.9 75.47) scale(0.12 0.04)" xlink:href="#New_Symbol"/><use width="257.01" height="223.64" transform="translate(16.22 51.27) scale(0.19 0.15)" xlink:href="#New_Symbol_2"/><use width="257.01" height="223.64" transform="translate(52.41 60.43) scale(0.19 0.15)" xlink:href="#New_Symbol_2"/><use width="257.01" height="223.64" transform="translate(83.22 44.41) scale(0.19 0.15)" xlink:href="#New_Symbol_2"/><use width="257.01" height="223.64" transform="translate(71.7 52.66) scale(0.19 0.15)" xlink:href="#New_Symbol_2"/><use width="257.01" height="223.64" transform="translate(60.88 53.09) scale(0.18)" xlink:href="#New_Symbol_2"/><use width="257.01" height="223.64" transform="translate(55.61 46.27) scale(0.18)" xlink:href="#New_Symbol_2"/><use width="257.01" height="223.64" transform="translate(39.02 50.03) scale(0.17 0.16)" xlink:href="#New_Symbol_2"/><use width="257.01" height="223.64" transform="translate(93.32 43.52) scale(0.17 0.16)" xlink:href="#New_Symbol_2"/><use width="257.01" height="223.64" transform="translate(14.24 41.93) scale(0.19)" xlink:href="#New_Symbol_2"/><use width="257.01" height="223.64" transform="translate(74.6 34.38) scale(0.19)" xlink:href="#New_Symbol_2"/><use width="174.77" height="164.37" transform="translate(11.28 53.44) scale(0.31 0.14)" xlink:href="#New_Symbol_3"/><use width="257.01" height="223.64" transform="translate(51.45 58.66) scale(0.13 0.15)" xlink:href="#New_Symbol"/><use width="257.01" height="223.64" transform="translate(66.35 59.69) scale(0.13 0.15)" xlink:href="#New_Symbol"/><use width="257.01" height="223.64" transform="translate(71.65 61.3) scale(0.13 0.15)" xlink:href="#New_Symbol"/><use width="257.01" height="223.64" transform="translate(77.47 59.38) scale(0.13 0.15)" xlink:href="#New_Symbol"/><use width="174.77" height="164.37" transform="translate(66.75 45.65) scale(0.45 0.25)" xlink:href="#New_Symbol_3"/></g></g></svg>