<svg xmlns="http://www.w3.org/2000/svg" xmlns:xlink="http://www.w3.org/1999/xlink" viewBox="0 0 74.73 74.73"><defs><style>.cls-1{fill:url(#radial-gradient);}.cls-2{mask:url(#mask);}.cls-3{fill:#0e3b5e;}.cls-4{fill:url(#linear-gradient);}.cls-5{fill:url(#linear-gradient-2);}.cls-6{fill:url(#radial-gradient-2);}.cls-7{fill:url(#linear-gradient-3);}.cls-8{fill:#1b75bb;}.cls-9{fill:url(#linear-gradient-4);}.cls-10{fill:#76acd6;}.cls-11{fill:#fff;}.cls-12{fill:url(#linear-gradient-5);}.cls-13{fill:url(#linear-gradient-6);}</style><radialGradient id="radial-gradient" cx="37.37" cy="37.37" r="37.37" gradientUnits="userSpaceOnUse"><stop offset="0" stop-color="#fff"/><stop offset="0.16" stop-color="#ddd"/><stop offset="0.51" stop-color="#858585"/><stop offset="1"/></radialGradient><mask id="mask" x="0" y="0" width="74.73" height="74.73" maskUnits="userSpaceOnUse"><circle class="cls-1" cx="37.37" cy="37.37" r="37.37"/></mask><linearGradient id="linear-gradient" x1="30.86" y1="37.38" x2="43.87" y2="37.38" gradientUnits="userSpaceOnUse"><stop offset="0" stop-color="#cceffc"/><stop offset="0.38" stop-color="#99def8"/><stop offset="0.56" stop-color="#cceffc"/><stop offset="0.79" stop-color="#cceffc"/><stop offset="1" stop-color="#66cef5"/></linearGradient><linearGradient id="linear-gradient-2" x1="37.37" y1="64.35" x2="37.37" y2="10.41" gradientUnits="userSpaceOnUse"><stop offset="0" stop-color="#fff"/><stop offset="1" stop-color="#e6e7e8"/></linearGradient><radialGradient id="radial-gradient-2" cx="16.38" cy="47" r="29.24" gradientUnits="userSpaceOnUse"><stop offset="0" stop-color="#26a9e0"/><stop offset="0.51" stop-color="#26a7df"/><stop offset="0.7" stop-color="#24a0da"/><stop offset="0.83" stop-color="#2295d1"/><stop offset="0.93" stop-color="#1e84c6"/><stop offset="1" stop-color="#1b75bb"/></radialGradient><linearGradient id="linear-gradient-3" x1="36.26" y1="41.69" x2="38.48" y2="43.91" gradientUnits="userSpaceOnUse"><stop offset="0" stop-color="#26a9e0"/><stop offset="0.57" stop-color="#208dcc"/><stop offset="1" stop-color="#1b75bb"/></linearGradient><linearGradient id="linear-gradient-4" x1="34.26" y1="63.46" x2="34.26" y2="42.3" gradientUnits="userSpaceOnUse"><stop offset="0" stop-color="#26a9e0"/><stop offset="0.64" stop-color="#7ccbed"/><stop offset="1" stop-color="#a8ddf3"/></linearGradient><linearGradient id="linear-gradient-5" x1="40.25" y1="58.93" x2="40.25" y2="54.17" xlink:href="#linear-gradient-4"/><linearGradient id="linear-gradient-6" x1="44.92" y1="51.77" x2="44.92" y2="13.14" xlink:href="#linear-gradient-4"/></defs><title>Ресурс 30weather</title><g id="Слой_2" data-name="Слой 2"><g id="Layer_2" data-name="Layer 2"><g class="cls-2"><circle class="cls-3" cx="37.37" cy="37.37" r="37.37"/></g><path class="cls-4" d="M40.13,52.32V12.79a2.76,2.76,0,1,0-5.52,0V52.32a6.51,6.51,0,1,0,5.52,0Z"/><path class="cls-5" d="M37.37,64.35a6.13,6.13,0,0,1-2.6-11.69l.22-.1V12.79a2.38,2.38,0,0,1,4.77,0V52.56l.22.1a6.13,6.13,0,0,1-2.6,11.69Z"/><path class="cls-6" d="M37.37,64.16a5.94,5.94,0,0,1-2.52-11.33l.32-.15V42.91c0-.84,4.39-.84,4.39,0v9.77l.32.15a5.94,5.94,0,0,1-2.52,11.33Z"/><path class="cls-7" d="M39.55,42.8c-.22-.68-4.14-.68-4.37,0C35.41,43.48,39.33,43.48,39.55,42.8Z"/><path class="cls-8" d="M39.7,52.84l-.33-.15V43a1.42,1.42,0,0,1-.37.15v9.68l.33.15a6,6,0,0,1,.19,10.71,5.94,5.94,0,0,0,.17-10.84Z"/><path class="cls-9" d="M35.36,42.63V53.18l-.32.14a5.34,5.34,0,0,0,.5,10.13c-1.25-1.06-2.6-2.59-2.6-4.28a5.82,5.82,0,0,1,3.61-5.26l.34-.15V42.3A3.59,3.59,0,0,0,35.36,42.63Z"/><path class="cls-10" d="M36.89,43.3v-1a6.79,6.79,0,0,0-.72.07,2.25,2.25,0,0,0-.81.26V43A3.87,3.87,0,0,0,36.89,43.3Z"/><path class="cls-11" d="M36.89,42.3V11.15c-1.06,0-1.53.29-1.53.84V42.63A3.59,3.59,0,0,1,36.89,42.3Z"/><path class="cls-12" d="M38.15,54.65a4.86,4.86,0,0,1,2.26-.48,5.72,5.72,0,0,1,1.95,4.26,2.62,2.62,0,0,1-2.85.14A5.76,5.76,0,0,0,38.15,54.65Z"/><path class="cls-11" d="M39.37,42.64V12.79c0-1.32-.38-1.25-.38,0V42.47A1.48,1.48,0,0,1,39.37,42.64Z"/><path class="cls-13" d="M47.77,51.66h-3.9V50.9h3.9ZM46.5,49H43.87v.75H46.5Zm0-1.88H43.87v.75H46.5Zm0-1.88H43.87V46H46.5Zm0-1.88H43.87v.75H46.5Zm1.27-1.88h-3.9v.75h3.9ZM46.5,39.61H43.87v.75H46.5Zm0-1.88H43.87v.75H46.5Zm0-1.88H43.87v.75H46.5Zm0-1.88H43.87v.75H46.5Zm1.27-1.88h-3.9v.75h3.9ZM46.5,30.2H43.87V31H46.5Zm0-1.88H43.87v.75H46.5Zm0-1.88H43.87v.75H46.5Zm0-1.88H43.87v.75H46.5Zm1.27-1.88h-3.9v.75h3.9ZM46.5,20.78H43.87v.75H46.5Zm0-1.88H43.87v.75H46.5Zm0-1.88H43.87v.75H46.5Zm0-1.88H43.87v.75H46.5Zm1.27-1.88h-3.9V14h3.9Zm-5.71-.11V51.77h.75V13.14Z"/></g></g></svg>