<svg xmlns="http://www.w3.org/2000/svg" xmlns:xlink="http://www.w3.org/1999/xlink" viewBox="0 0 92.8 92.81"><defs><style>.cls-1{fill:url(#radial-gradient);}.cls-2{mask:url(#mask);}.cls-3{fill:#14588c;}.cls-4{fill:#1b75bb;}.cls-5{fill:url(#linear-gradient);}.cls-6{fill:url(#linear-gradient-2);}.cls-7{fill:url(#linear-gradient-3);}.cls-8{fill:url(#linear-gradient-4);}.cls-9{fill:url(#linear-gradient-5);}.cls-10{fill:url(#linear-gradient-6);}.cls-11{fill:url(#linear-gradient-7);}.cls-12{fill:url(#linear-gradient-8);}.cls-13{fill:url(#linear-gradient-9);}.cls-14{fill:url(#linear-gradient-10);}.cls-15{fill:url(#linear-gradient-11);}.cls-16{fill:url(#linear-gradient-12);}</style><radialGradient id="radial-gradient" cx="46.4" cy="46.4" r="46.4" gradientUnits="userSpaceOnUse"><stop offset="0" stop-color="#fff"/><stop offset="0.16" stop-color="#ddd"/><stop offset="0.51" stop-color="#858585"/><stop offset="1"/></radialGradient><mask id="mask" x="0" y="0" width="92.8" height="92.81" maskUnits="userSpaceOnUse"><circle class="cls-1" cx="46.4" cy="46.4" r="46.4"/></mask><linearGradient id="linear-gradient" x1="55.55" y1="64.35" x2="71.24" y2="64.35" gradientUnits="userSpaceOnUse"><stop offset="0" stop-color="#26a9e0"/><stop offset="0.34" stop-color="#25a6de"/><stop offset="0.58" stop-color="#239dd7"/><stop offset="0.79" stop-color="#208dcc"/><stop offset="0.98" stop-color="#1b77bc"/><stop offset="1" stop-color="#1b75bb"/></linearGradient><linearGradient id="linear-gradient-2" x1="76.96" y1="14.48" x2="105.96" y2="43.48" gradientTransform="matrix(1, 0, -0.09, 1.03, -34.2, 18.94)" xlink:href="#linear-gradient"/><linearGradient id="linear-gradient-3" x1="643.15" y1="420.25" x2="673.46" y2="450.56" gradientTransform="matrix(0.77, -0.16, -0.14, 0.94, -394.63, -257.03)" gradientUnits="userSpaceOnUse"><stop offset="0" stop-color="#a4c8e4"/><stop offset="0.14" stop-color="#9bc6e4"/><stop offset="0.38" stop-color="#83c0e3"/><stop offset="0.67" stop-color="#5bb6e2"/><stop offset="1" stop-color="#26a9e0"/></linearGradient><linearGradient id="linear-gradient-4" x1="1926.75" y1="763.59" x2="1948.41" y2="785.25" gradientTransform="matrix(0.52, -0.08, -0.22, 0.6, -787.72, -279.31)" gradientUnits="userSpaceOnUse"><stop offset="0" stop-color="#fff"/><stop offset="1" stop-color="#a4c8e4"/></linearGradient><linearGradient id="linear-gradient-5" x1="28.1" y1="52.36" x2="35.26" y2="52.36" xlink:href="#linear-gradient"/><linearGradient id="linear-gradient-6" x1="57.61" y1="18.89" x2="70.85" y2="32.13" gradientTransform="matrix(1, 0, -0.09, 1.03, -34.2, 18.94)" xlink:href="#linear-gradient"/><linearGradient id="linear-gradient-7" x1="616.11" y1="419.35" x2="629.94" y2="433.18" xlink:href="#linear-gradient-3"/><linearGradient id="linear-gradient-8" x1="1885.6" y1="767.65" x2="1895.48" y2="777.53" xlink:href="#linear-gradient-4"/><linearGradient id="linear-gradient-9" x1="40.39" y1="33.63" x2="45.37" y2="33.63" xlink:href="#linear-gradient"/><linearGradient id="linear-gradient-10" x1="70.56" y1="4.87" x2="79.76" y2="14.07" gradientTransform="matrix(1, 0, -0.09, 1.03, -34.2, 18.94)" xlink:href="#linear-gradient"/><linearGradient id="linear-gradient-11" x1="632.04" y1="406.41" x2="641.65" y2="416.03" xlink:href="#linear-gradient-3"/><linearGradient id="linear-gradient-12" x1="1902.31" y1="745.94" x2="1909.18" y2="752.82" xlink:href="#linear-gradient-4"/></defs><title>Ресурс 27weather</title><g id="Слой_2" data-name="Слой 2"><g id="Layer_2" data-name="Layer 2"><g class="cls-2"><circle class="cls-3" cx="46.4" cy="46.4" r="46.4"/></g><path class="cls-4" d="M72,56.45C72,71.73,59.71,73.3,55.79,73.3S39.6,71.73,39.6,56.45,55.79,19.84,55.79,19.84,72,41.17,72,56.45Z"/><path class="cls-5" d="M71.23,56.17q-.09,1-.25,1.91c-1.9,11-10.46,13.54-13.56,14.12a18.19,18.19,0,0,1-1.87.25,15.18,15.18,0,0,0,4.24-.2,13.71,13.71,0,0,0,11.14-11.6A23,23,0,0,0,71.23,56.17Z"/><path class="cls-6" d="M68.78,55.39c-.72,15.48-13.34,16.11-16.43,16S39.3,67.64,40.58,52.56C41.81,38.14,55.69,20.4,55.69,20.4S69.48,40.6,68.78,55.39Z"/><path class="cls-7" d="M62.65,51.77C61.33,67.21,52.33,68.94,49.61,69S38.74,66,40.8,51.78c1.91-13.16,14.34-30.57,14.34-30.57S63.86,37.54,62.65,51.77Z"/><path class="cls-8" d="M52.39,40.37C50.31,47.52,47,48.15,46,48.11S42.57,46.52,44.78,40C46.83,33.88,53,26,53,26S54.3,33.78,52.39,40.37Z"/><path class="cls-4" d="M35.6,48.75c0,7-5.6,7.69-7.39,7.69s-7.39-.71-7.39-7.69S28.21,32,28.21,32,35.6,41.78,35.6,48.75Z"/><path class="cls-9" d="M35.26,48.62c0,.3-.07.59-.11.87A7.53,7.53,0,0,1,29,55.94a8.09,8.09,0,0,1-.85.11A6.94,6.94,0,0,0,30,56a6.26,6.26,0,0,0,5.08-5.29A10.55,10.55,0,0,0,35.26,48.62Z"/><path class="cls-10" d="M34.14,48.27c-.33,7.07-6.09,7.35-7.5,7.29s-6-1.71-5.37-8.59c.56-6.58,6.9-14.68,6.9-14.68S34.46,41.52,34.14,48.27Z"/><path class="cls-11" d="M31.34,46.62c-.6,7-4.71,7.84-5.95,7.85s-5-1.36-4-7.84c.87-6,6.54-14,6.54-14S31.89,40.12,31.34,46.62Z"/><path class="cls-12" d="M26.66,41.41c-.95,3.26-2.46,3.55-2.9,3.53s-1.59-.73-.58-3.72a27.76,27.76,0,0,1,3.74-6.36A16.92,16.92,0,0,1,26.66,41.41Z"/><path class="cls-4" d="M45.61,31.12c0,4.85-3.89,5.34-5.14,5.34s-5.14-.5-5.14-5.34,5.14-11.61,5.14-11.61S45.61,26.28,45.61,31.12Z"/><path class="cls-13" d="M45.37,31c0,.21,0,.41-.08.61A5.23,5.23,0,0,1,41,36.12c-.15,0-.36.06-.59.08a4.87,4.87,0,0,0,1.35-.06,4.35,4.35,0,0,0,3.53-3.68A7.52,7.52,0,0,0,45.37,31Z"/><path class="cls-14" d="M44.59,30.79c-.23,4.91-4.23,5.11-5.21,5.07s-4.14-1.19-3.73-6c.39-4.57,4.79-10.2,4.79-10.2S44.81,26.1,44.59,30.79Z"/><path class="cls-15" d="M42.65,29.64c-.42,4.9-3.27,5.44-4.13,5.45s-3.45-.95-2.79-5.45c.61-4.18,4.55-9.7,4.55-9.7S43,25.13,42.65,29.64Z"/><path class="cls-16" d="M39.39,26c-.66,2.27-1.71,2.47-2,2.46s-1.1-.51-.4-2.59a19.28,19.28,0,0,1,2.6-4.42A11.79,11.79,0,0,1,39.39,26Z"/></g></g></svg>