<svg xmlns="http://www.w3.org/2000/svg" xmlns:xlink="http://www.w3.org/1999/xlink" viewBox="0 0 248.43 162.7"><defs><style>.cls-1{fill:#fff;}.cls-2{fill:#d9dee1;}.cls-3{fill:url(#linear-gradient);}.cls-4{fill:url(#linear-gradient-2);}.cls-5{fill:url(#linear-gradient-3);}.cls-6{fill:#cbcbcb;}.cls-7{fill:url(#linear-gradient-4);}.cls-8{fill:url(#linear-gradient-5);}.cls-9{fill:url(#linear-gradient-6);}</style><linearGradient id="linear-gradient" x1="0.35" y1="186.55" x2="0.35" y2="242.43" gradientTransform="translate(174.81 -144.28) rotate(1.39)" gradientUnits="userSpaceOnUse"><stop offset="0" stop-color="#fff"/><stop offset="1" stop-color="#c7c7c7"/></linearGradient><linearGradient id="linear-gradient-2" x1="2.73" y1="197.78" x2="3.44" y2="237.87" xlink:href="#linear-gradient"/><linearGradient id="linear-gradient-3" x1="169.19" y1="75.95" x2="169.19" y2="98.07" gradientUnits="userSpaceOnUse"><stop offset="0" stop-color="#dfdfdf"/><stop offset="1" stop-color="#a8a8a8"/></linearGradient><linearGradient id="linear-gradient-4" x1="-64.51" y1="215.6" x2="-64.51" y2="294.26" gradientTransform="translate(174.81 -144.28) rotate(1.39)" gradientUnits="userSpaceOnUse"><stop offset="0.02" stop-color="#a9a9a9"/><stop offset="1" stop-color="#616161"/></linearGradient><linearGradient id="linear-gradient-5" x1="-61.16" y1="231.41" x2="-60.15" y2="287.84" xlink:href="#linear-gradient-4"/><linearGradient id="linear-gradient-6" x1="103.05" y1="117.17" x2="103.05" y2="148.31" gradientUnits="userSpaceOnUse"><stop offset="0" stop-color="gray"/><stop offset="1" stop-color="#5f5f5f"/></linearGradient></defs><title>Ресурс 17weather2</title><g id="Слой_2" data-name="Слой 2"><g id="icons"><path class="cls-1" d="M234.12,32a45,45,0,0,0-26-11.65A44.2,44.2,0,0,0,197.28,9.16a49.54,49.54,0,0,0-27-9.14h-1.13a45.11,45.11,0,0,0-24.5,7.14,38.28,38.28,0,0,0-7.47,6.38,29.68,29.68,0,0,0-15.72,5.8,61.3,61.3,0,0,0-17-2.92l-1.44,0a57.3,57.3,0,0,0-31.14,9.05,47.89,47.89,0,0,0-11,9.89h-.23A35.19,35.19,0,0,0,29.33,54.38a33.17,33.17,0,0,0-2.58,6.94,44.94,44.94,0,0,0-7.84,5.17,52.87,52.87,0,0,0-15.23,21A49.17,49.17,0,0,0,.54,113.21a43.58,43.58,0,0,0,14,25.83c8.23,7.47,20.25,13.25,35.75,17.16,13.94,3.79,30.85,5.95,50.26,6.41,2.27.05,4.55.08,6.78.08h0c16.84,0,31.86-1.5,44.67-4.45,19.29-4.1,33.89-11.29,43.4-21.37a47.09,47.09,0,0,0,12.9-28.29c12.91-3.21,22.87-8.47,29.65-15.66a38.08,38.08,0,0,0,10.37-30.06C247.26,50.35,242.36,39.66,234.12,32Z"/><path class="cls-2" d="M167.64,97.36c-25.86-.62-45.11-5.51-54.2-13.77a20.41,20.41,0,0,1-6.56-12.09,24.27,24.27,0,0,1,1.6-12.69,26.71,26.71,0,0,1,7.67-10.62,19.28,19.28,0,0,1,9-4.24,12.34,12.34,0,0,1,1.17-7.82,14.22,14.22,0,0,1,13.06-7.67,15,15,0,0,1,5.1,1,22,22,0,0,1,8.34-9.81,30,30,0,0,1,17-4.67,34.17,34.17,0,0,1,18.65,6.33A27.15,27.15,0,0,1,198.81,35c1.36-.09,2.71-.12,4-.09,8.42.21,15.7,3,21,8s8.74,12.45,9.46,21.2A23.16,23.16,0,0,1,227,82.64c-13,13.75-42.77,15.13-59.37,14.72Z"/><path class="cls-3" d="M169.76,19.69c11.29.27,24.12,8.25,26.15,21.14,18.61-2.68,32.13,7.1,33.63,26.31,2,26-34.16,31.12-61.91,30.45s-44.43-6.34-51.76-13.26C102,71.27,116.56,45.89,131,50.07c-7.62-10.15,5.45-22.1,15.8-13.31C148.25,25.56,159.21,19.43,169.76,19.69Z"/><path class="cls-2" d="M172.6,89.44c-6.25-.15-26.38-1.77-35.75-12.53-5.73-6.58-4.89-14.38.49-20.4,4.63-5.19,10.22-5.26,14.07-5.16a21.8,21.8,0,0,1,6,1,11,11,0,0,1,2.23-5.22c2.81-3.66,7.88-6,13.25-6H174a22.58,22.58,0,0,1,12.17,3.53,15.32,15.32,0,0,1,6.23,8.52,27.32,27.32,0,0,1,2.81-.08c6.19.15,13.88,2.45,16.91,8.46s.21,16.58-8.61,23.1C196.18,90,172.6,89.44,172.6,89.44Z"/><path class="cls-4" d="M208,82.93c-5.81,10.7-17.65,13.43-28.61,13.36-11.59-.07-25.3-.7-35.55-6.87-6.46-3.89-12.11-15.18-8.25-23.77s16.2-11.82,24.65-6.77c-1.87-7.61,5.3-12.86,12.61-13,8.31-.11,16,3.69,17.2,12.6,6.23-1.21,16,.44,19.12,6.88C212.1,71.45,211.06,77.34,208,82.93Z"/><path class="cls-5" d="M169.56,73.76c-24.13,0-53.24-1.7-53.24,5.35s20.4,17,53,17,52.75-9.48,52.75-15.07S188.22,73.76,169.56,73.76Z"/><path class="cls-2" d="M155.06,29.92c10.5-.35,17.34,5.29,16.35,14-1.78-6.06-7.24-8.32-15.82-8.81s-13.77,4.08-15.15,8.25C140.16,35.28,147.47,30.17,155.06,29.92Z"/><path class="cls-6" d="M100.88,147.32c-36.4-.88-63.49-7.76-76.29-19.38a28.74,28.74,0,0,1-9.23-17A34.18,34.18,0,0,1,17.61,93a37.62,37.62,0,0,1,10.8-15,27.12,27.12,0,0,1,12.67-6,17.39,17.39,0,0,1,1.65-11,20,20,0,0,1,18.39-10.8,21.13,21.13,0,0,1,7.18,1.46A30.91,30.91,0,0,1,80,38a42.17,42.17,0,0,1,24-6.58,48.12,48.12,0,0,1,26.25,8.91,38.23,38.23,0,0,1,14.49,19.29c1.92-.13,3.81-.17,5.65-.13,11.85.29,22.09,4.16,29.62,11.2,7.7,7.2,12.31,17.52,13.32,29.84.84,10.16-2.16,18.94-8.9,26.09-18.26,19.35-60.2,21.29-83.57,20.73Z"/><path class="cls-7" d="M103.87,38c15.9.38,34,11.61,36.81,29.75,26.19-3.77,45.22,10,47.34,37,2.86,36.6-48.09,43.81-87.15,42.86S38.33,138.7,28,129C8.55,110.58,29,74.86,49.23,80.75,38.51,66.46,56.9,49.63,71.47,62,73.58,46.24,89,37.62,103.87,38Z"/><path class="cls-6" d="M107.86,136.16c-8.79-.21-37.13-2.49-50.33-17.64-8.06-9.26-6.88-20.24.69-28.72,6.52-7.31,14.39-7.4,19.8-7.27a30.68,30.68,0,0,1,8.44,1.38,15.56,15.56,0,0,1,3.14-7.34c4-5.15,11.1-8.41,18.65-8.49h1.52a31.82,31.82,0,0,1,17.13,5,21.57,21.57,0,0,1,8.77,12,38.16,38.16,0,0,1,4-.11c8.71.21,19.54,3.45,23.8,11.91s.3,23.33-12.12,32.52C141.06,137,107.86,136.16,107.86,136.16Z"/><path class="cls-8" d="M157.73,127c-8.18,15.06-24.84,18.91-40.28,18.81-16.31-.1-35.62-1-50-9.67-9.1-5.47-17-21.37-11.62-33.46,5.52-12.29,22.8-16.64,34.7-9.52C87.86,82.44,97.95,75,108.23,74.91c11.7-.15,22.49,5.2,24.21,17.73,8.76-1.7,22.53.62,26.91,9.68C163.46,110.83,162,119.13,157.73,127Z"/><path class="cls-9" d="M103.58,114.09c-34,0-75-2.4-75,7.53s28.72,24,74.6,24,74.25-13.35,74.25-21.22S129.85,114.09,103.58,114.09Z"/><path class="cls-6" d="M83.17,52.38c14.78-.49,24.41,7.44,23,19.72C103.67,63.56,96,60.39,83.91,59.7S64.53,65.44,62.58,71.31C62.2,59.92,72.48,52.73,83.17,52.38Z"/></g></g></svg>