<svg xmlns="http://www.w3.org/2000/svg" xmlns:xlink="http://www.w3.org/1999/xlink" viewBox="0 0 116.39 116.38"><defs><style>.cls-1{fill:url(#radial-gradient);}.cls-2{mask:url(#mask);}.cls-3{fill:#196bab;}.cls-4{fill:url(#linear-gradient);}.cls-5{fill:url(#linear-gradient-2);}.cls-6{fill:url(#linear-gradient-3);}.cls-7{fill:url(#linear-gradient-4);}.cls-8{fill:url(#linear-gradient-5);}.cls-9{fill:url(#linear-gradient-6);}.cls-10{fill:url(#linear-gradient-7);}.cls-11{fill:url(#linear-gradient-8);}.cls-12{fill:url(#linear-gradient-9);}.cls-13{fill:url(#linear-gradient-10);}.cls-14{fill:url(#linear-gradient-11);}</style><radialGradient id="radial-gradient" cx="58.19" cy="58.19" r="58.19" gradientUnits="userSpaceOnUse"><stop offset="0" stop-color="#fff"/><stop offset="0.16" stop-color="#ddd"/><stop offset="0.51" stop-color="#858585"/><stop offset="1"/></radialGradient><mask id="mask" x="0" y="0" width="116.39" height="116.38" maskUnits="userSpaceOnUse"><circle class="cls-1" cx="58.19" cy="58.19" r="58.19"/></mask><linearGradient id="linear-gradient" x1="25.22" y1="58.19" x2="28.13" y2="58.19" gradientUnits="userSpaceOnUse"><stop offset="0" stop-color="#d0d2d3"/><stop offset="0.09" stop-color="#e6e7e7"/><stop offset="0.19" stop-color="#f8f9f9"/><stop offset="0.26" stop-color="#fff"/><stop offset="1" stop-color="#bbbdbf"/></linearGradient><linearGradient id="linear-gradient-2" x1="471.65" y1="-462.5" x2="477.99" y2="-490.63" gradientTransform="matrix(0.99, -0.15, 0.22, 0.93, -320.85, 554.54)" gradientUnits="userSpaceOnUse"><stop offset="0" stop-color="#f1f1f2"/><stop offset="1" stop-color="#929497"/></linearGradient><linearGradient id="linear-gradient-3" x1="72.32" y1="53.63" x2="72.32" y2="25.02" gradientUnits="userSpaceOnUse"><stop offset="0" stop-color="#a6a8ab"/><stop offset="0.17" stop-color="#b9babd"/><stop offset="0.51" stop-color="#d7d8da"/><stop offset="0.8" stop-color="#eaeaec"/><stop offset="1" stop-color="#f1f1f2"/></linearGradient><linearGradient id="linear-gradient-4" x1="44.04" y1="53.63" x2="44.04" y2="26.1" gradientUnits="userSpaceOnUse"><stop offset="0" stop-color="#a6a8ab"/><stop offset="0.2" stop-color="#acaeb1"/><stop offset="0.47" stop-color="#bcbec0"/><stop offset="0.77" stop-color="#d8d8da"/><stop offset="1" stop-color="#f1f1f2"/></linearGradient><linearGradient id="linear-gradient-5" x1="68.3" y1="47.46" x2="68.3" y2="44.95" xlink:href="#linear-gradient-4"/><linearGradient id="linear-gradient-6" x1="95.12" y1="39.41" x2="95.12" y2="37.96" xlink:href="#linear-gradient-4"/><linearGradient id="linear-gradient-7" x1="38.64" y1="26.75" x2="38.64" y2="26.7" xlink:href="#linear-gradient-3"/><linearGradient id="linear-gradient-8" x1="64.43" y1="47.15" x2="64.43" y2="25.98" gradientUnits="userSpaceOnUse"><stop offset="0" stop-color="#b1151b"/><stop offset="0.02" stop-color="#b3151b"/><stop offset="0.67" stop-color="#dc1a22"/><stop offset="1" stop-color="#ec1c24"/></linearGradient><linearGradient id="linear-gradient-9" x1="85.84" y1="40.63" x2="85.84" y2="26.14" xlink:href="#linear-gradient-8"/><linearGradient id="linear-gradient-10" x1="32.65" y1="27.92" x2="32.65" y2="26.55" xlink:href="#linear-gradient-3"/><linearGradient id="linear-gradient-11" x1="35.75" y1="54.63" x2="35.75" y2="53.34" xlink:href="#linear-gradient-3"/></defs><title>Ресурс 26weather</title><g id="Слой_2" data-name="Слой 2"><g id="Layer_2" data-name="Layer 2"><g class="cls-2"><circle class="cls-3" cx="58.19" cy="58.19" r="58.19"/></g><rect class="cls-4" x="25.22" y="24.54" width="2.92" height="67.31"/><path class="cls-5" d="M46.18,39.69C48,47.23,47.68,53.63,45.47,54s-5.47-5.5-7.28-13S36.69,27,38.9,26.64,44.37,32.14,46.18,39.69Z"/><path class="cls-6" d="M83.5,26.16c-6.9-.34-14.42,3.35-23.6.73-9-2.58-14.17-2.33-21-.25,2.21-.3,5.45,5.53,7.26,13,1.61,6.7,1.54,12.49,0,13.94,5.8-3,14.47-7.55,24.79-7.76,8.94-.18,10.06-6.37,17.49-7.25s13.57,3.5,17-2.19C107.87,32.5,92.79,26.62,83.5,26.16Z"/><path class="cls-7" d="M48.39,52.46c1.12-2.09,1-7.33-.41-13.32-1.78-7.41-5-13.16-7.16-13-.62.17-1.26.34-1.91.54,2.21-.3,5.45,5.53,7.26,13,1.61,6.7,1.54,12.49,0,13.94Z"/><path class="cls-8" d="M72.73,45.33a42,42,0,0,0-12,2.13,40.8,40.8,0,0,1,10.25-1.59,14.64,14.64,0,0,0,5-.92A15.91,15.91,0,0,1,72.73,45.33Z"/><path class="cls-9" d="M90.22,38.08a12.28,12.28,0,0,0-3,.75c.39-.08.79-.16,1.21-.2,5.92-.7,11,1.93,14.61.16C99.62,39.27,95.21,37.49,90.22,38.08Z"/><path class="cls-10" d="M38.71,26.7l-.16,0h0Z"/><path class="cls-11" d="M59.9,26.89c-1.26-.36-2.44-.66-3.56-.91C62,28.9,65.8,37.69,61.81,47.15a40.35,40.35,0,0,1,8.71-1.26c4-4.81,1.62-16.34-3.16-18.06A25.29,25.29,0,0,1,59.9,26.89Z"/><path class="cls-12" d="M80.29,26.26c4.08.83,6,9,2.62,14.37a12.65,12.65,0,0,1,5.51-2,18.23,18.23,0,0,1,2.25-.12c1.68-4.8.1-10.21-1.64-11.59a36.92,36.92,0,0,0-5.52-.75A22.8,22.8,0,0,0,80.29,26.26Z"/><polygon class="cls-13" points="25.22 27.92 40.09 26.97 39.22 26.55 25.22 26.63 25.22 27.92"/><polygon class="cls-14" points="25.22 54.63 46.28 53.69 44.86 53.34 25.22 53.34 25.22 54.63"/></g></g></svg>