<svg xmlns="http://www.w3.org/2000/svg" xmlns:xlink="http://www.w3.org/1999/xlink" viewBox="0 0 247.55 164.72"><defs><style>.cls-1{fill:#fff;}.cls-2{fill:#cbcbcb;}.cls-3{fill:url(#linear-gradient);}.cls-4{fill:url(#linear-gradient-2);}.cls-5{fill:url(#linear-gradient-3);}.cls-6{fill:#d9dee1;}.cls-7{fill:url(#linear-gradient-4);}.cls-8{fill:url(#linear-gradient-5);}.cls-9{fill:url(#linear-gradient-6);}</style><linearGradient id="linear-gradient" x1="2.3" y1="192.97" x2="2.3" y2="246.34" gradientTransform="translate(174.95 -151.98) rotate(1.39)" gradientUnits="userSpaceOnUse"><stop offset="0.02" stop-color="#a9a9a9"/><stop offset="1" stop-color="#616161"/></linearGradient><linearGradient id="linear-gradient-2" x1="4.57" y1="203.71" x2="5.26" y2="241.98" xlink:href="#linear-gradient"/><linearGradient id="linear-gradient-3" x1="171.19" y1="73.2" x2="171.19" y2="94.33" gradientUnits="userSpaceOnUse"><stop offset="0" stop-color="gray"/><stop offset="1" stop-color="#5f5f5f"/></linearGradient><linearGradient id="linear-gradient-4" x1="-64.42" y1="225.32" x2="-64.42" y2="303.98" gradientTransform="translate(174.95 -151.98) rotate(1.39)" gradientUnits="userSpaceOnUse"><stop offset="0" stop-color="#fff"/><stop offset="1" stop-color="#c7c7c7"/></linearGradient><linearGradient id="linear-gradient-5" x1="-61.07" y1="241.14" x2="-60.06" y2="297.56" xlink:href="#linear-gradient-4"/><linearGradient id="linear-gradient-6" x1="103.06" y1="119.19" x2="103.06" y2="150.33" gradientUnits="userSpaceOnUse"><stop offset="0" stop-color="#dfdfdf"/><stop offset="1" stop-color="#a8a8a8"/></linearGradient></defs><title>Ресурс 16weather2</title><g id="Слой_2" data-name="Слой 2"><g id="icons"><path class="cls-1" d="M233.66,30.69a43.54,43.54,0,0,0-24.87-11.27A42.92,42.92,0,0,0,198.41,8.87,48,48,0,0,0,172.22,0h-1.09a43.76,43.76,0,0,0-23.77,6.93,37.24,37.24,0,0,0-7.08,6,29,29,0,0,0-18.4,8.54,61.2,61.2,0,0,0-17.48-3.05l-1.44,0a57.3,57.3,0,0,0-31.14,9,47.9,47.9,0,0,0-11,9.89h-.23A35.19,35.19,0,0,0,29.33,56.4a33.13,33.13,0,0,0-2.58,6.94,44.91,44.91,0,0,0-7.84,5.18,52.86,52.86,0,0,0-15.23,21A49.16,49.16,0,0,0,.54,115.23a43.59,43.59,0,0,0,14,25.83c8.23,7.47,20.25,13.24,35.74,17.16,13.94,3.79,30.85,5.95,50.26,6.42,2.27.05,4.55.08,6.78.08,16.83,0,31.85-1.5,44.65-4.45,19.3-4.1,33.91-11.29,43.42-21.37a47.32,47.32,0,0,0,13.12-33.83c12.55-3.09,22.23-8.2,28.83-15.19A37,37,0,0,0,247.4,60.66C246.4,48.53,241.65,38.17,233.66,30.69Z"/><path class="cls-2" d="M169.72,93.65C145,93.05,126.65,88.39,118,80.5A19.5,19.5,0,0,1,111.7,69a23.18,23.18,0,0,1,1.52-12.12,25.51,25.51,0,0,1,7.33-10.14,18.4,18.4,0,0,1,8.6-4.05,11.8,11.8,0,0,1,1.12-7.47,13.58,13.58,0,0,1,12.47-7.32,14.3,14.3,0,0,1,4.87,1,21,21,0,0,1,8-9.37A28.63,28.63,0,0,1,171.85,15a32.65,32.65,0,0,1,17.81,6,25.93,25.93,0,0,1,9.83,13.09c1.3-.09,2.59-.12,3.83-.09,8,.19,15,2.82,20.09,7.6s8.35,11.89,9,20.24a22.12,22.12,0,0,1-6,17.7C214,92.72,185.57,94,169.72,93.65Z"/><path class="cls-3" d="M171.75,19.48c10.78.26,23,7.88,25,20.19,17.77-2.56,30.68,6.78,32.11,25.12,1.94,24.83-32.62,29.72-59.12,29.08s-42.42-6.05-49.43-12.66c-13.2-12.47.65-36.7,14.4-32.7-7.27-9.69,5.2-21.11,15.09-12.71C151.2,25.08,161.66,19.23,171.75,19.48Z"/><path class="cls-2" d="M174.46,86.09c-6-.14-25.19-1.69-34.14-12-5.47-6.28-4.67-13.73.47-19.48,4.43-5,9.76-5,13.43-4.93a20.7,20.7,0,0,1,5.73.94,10.54,10.54,0,0,1,2.13-5c2.68-3.49,7.53-5.7,12.65-5.76h1a21.57,21.57,0,0,1,11.62,3.37,14.64,14.64,0,0,1,6,8.14,25.72,25.72,0,0,1,2.68-.07c5.91.14,13.26,2.34,16.14,8.08s.21,15.83-8.22,22.06C197,86.63,174.46,86.09,174.46,86.09Z"/><path class="cls-4" d="M208.29,79.86C202.74,90.08,191.43,92.69,181,92.62c-11.07-.07-24.16-.67-34-6.56-6.17-3.71-11.57-14.49-7.88-22.7s15.47-11.29,23.54-6.46c-1.78-7.26,5.06-12.28,12-12.37,7.93-.1,15.26,3.52,16.42,12,5.95-1.15,15.29.42,18.25,6.56C212.17,68.9,211.18,74.53,208.29,79.86Z"/><path class="cls-5" d="M171.55,71.11c-23,0-50.84-1.62-50.84,5.11s19.48,16.25,50.61,16.25,50.37-9.05,50.37-14.39S189.37,71.11,171.55,71.11Z"/><path class="cls-2" d="M157.7,29.25c10-.33,16.56,5,15.61,13.38-1.7-5.79-6.91-7.95-15.11-8.41s-13.15,3.89-14.47,7.88C143.48,34.37,150.45,29.49,157.7,29.25Z"/><path class="cls-6" d="M100.88,149.34c-36.4-.88-63.49-7.76-76.29-19.38a28.74,28.74,0,0,1-9.23-17,34.17,34.17,0,0,1,2.25-17.86,37.61,37.61,0,0,1,10.8-14.95,27.12,27.12,0,0,1,12.67-6,17.39,17.39,0,0,1,1.65-11,20,20,0,0,1,18.39-10.8A21.13,21.13,0,0,1,68.3,53.8,30.91,30.91,0,0,1,80,40a42.19,42.19,0,0,1,24-6.58,48.13,48.13,0,0,1,26.25,8.91,38.22,38.22,0,0,1,14.48,19.29c1.92-.13,3.81-.17,5.65-.13,11.85.29,22.1,4.16,29.62,11.2,7.7,7.2,12.31,17.52,13.32,29.84.84,10.16-2.16,18.94-8.9,26.09-18.26,19.35-60.2,21.29-83.57,20.73Z"/><path class="cls-7" d="M103.87,40c15.9.38,34,11.61,36.81,29.75,26.19-3.77,45.23,10,47.34,37,2.86,36.6-48.09,43.81-87.15,42.86S38.33,140.73,28,131C8.55,112.6,29,76.88,49.23,82.77,38.51,68.48,56.9,51.66,71.47,64,73.58,48.26,89,39.64,103.87,40Z"/><path class="cls-6" d="M107.86,138.19c-8.79-.21-37.13-2.49-50.33-17.64-8.06-9.26-6.88-20.24.69-28.72,6.52-7.31,14.39-7.4,19.8-7.27a30.62,30.62,0,0,1,8.44,1.38,15.55,15.55,0,0,1,3.14-7.35c4-5.15,11.1-8.41,18.65-8.49h1.52a31.82,31.82,0,0,1,17.13,5,21.58,21.58,0,0,1,8.77,12,38.7,38.7,0,0,1,4-.11c8.71.21,19.54,3.45,23.8,11.91s.3,23.33-12.11,32.52C141.06,139,107.86,138.19,107.86,138.19Z"/><path class="cls-8" d="M157.74,129c-8.18,15.06-24.84,18.91-40.28,18.81-16.31-.1-35.62-1-50.05-9.67-9.1-5.47-17.05-21.37-11.62-33.46,5.52-12.29,22.8-16.64,34.7-9.52-2.63-10.71,7.46-18.1,17.75-18.24,11.7-.15,22.49,5.2,24.21,17.73,8.77-1.7,22.53.62,26.91,9.68C163.46,112.85,162,121.15,157.74,129Z"/><path class="cls-9" d="M103.58,116.11c-34,0-75-2.4-75,7.53s28.72,24,74.6,24,74.25-13.34,74.25-21.22S129.85,116.11,103.58,116.11Z"/><path class="cls-6" d="M83.17,54.4c14.78-.49,24.41,7.44,23,19.72C103.67,65.59,96,62.41,83.91,61.72S64.53,67.46,62.58,73.34C62.2,61.95,72.48,54.76,83.17,54.4Z"/></g></g></svg>