<svg xmlns="http://www.w3.org/2000/svg" xmlns:xlink="http://www.w3.org/1999/xlink" viewBox="0 0 129.6 90.95"><defs><style>.cls-1{fill:url(#radial-gradient);}.cls-2{fill:url(#linear-gradient);}.cls-3{fill:url(#linear-gradient-2);}.cls-4{fill:url(#radial-gradient-2);}.cls-5{fill:url(#radial-gradient-3);}.cls-6{fill:url(#radial-gradient-4);}.cls-7{fill:url(#radial-gradient-5);}.cls-8{fill:url(#radial-gradient-6);}.cls-9{fill:url(#radial-gradient-7);}.cls-10{fill:url(#radial-gradient-8);}.cls-11{fill:url(#radial-gradient-9);}.cls-12{fill:url(#radial-gradient-10);}.cls-13{mask:url(#mask);}.cls-14{fill:#ffe9e0;}.cls-15{mask:url(#mask-2);}.cls-16{fill:#ffdd15;}.cls-17{mask:url(#mask-3);}.cls-18{fill:#ffe862;}.cls-19{fill:#ffed81;}.cls-20{opacity:0.28;}</style><radialGradient id="radial-gradient" cx="56.48" cy="45.47" r="45.47" gradientUnits="userSpaceOnUse"><stop offset="0" stop-color="#806f0b"/><stop offset="0.16" stop-color="#7b6b0b"/><stop offset="0.34" stop-color="#6e5f09"/><stop offset="0.53" stop-color="#584c08"/><stop offset="0.73" stop-color="#393105"/><stop offset="0.93" stop-color="#110f01"/><stop offset="1"/></radialGradient><linearGradient id="linear-gradient" x1="28.62" y1="45.47" x2="84.34" y2="45.47" gradientUnits="userSpaceOnUse"><stop offset="0" stop-color="#6d6e70"/><stop offset="0.28" stop-color="#525354"/><stop offset="0.89" stop-color="#0d0d0d"/><stop offset="1"/></linearGradient><linearGradient id="linear-gradient-2" x1="29.75" y1="45.47" x2="56.48" y2="45.47" gradientUnits="userSpaceOnUse"><stop offset="0" stop-color="#fff"/><stop offset="1" stop-color="#404041"/></linearGradient><radialGradient id="radial-gradient-2" cx="95.12" cy="-1816.76" r="95.12" gradientTransform="translate(0 1622) scale(1 0.84)" gradientUnits="userSpaceOnUse"><stop offset="0" stop-color="#fff"/><stop offset="1" stop-color="#fff" stop-opacity="0"/></radialGradient><radialGradient id="radial-gradient-3" cx="-9050.25" cy="4758.5" r="119.53" gradientTransform="matrix(0, 0.67, -1, 0, 4910.05, 6212.54)" xlink:href="#radial-gradient-2"/><radialGradient id="radial-gradient-4" cx="17411.05" cy="18.6" r="89.72" gradientTransform="matrix(0.64, 0, 0, 1.04, -10965.65, 106.74)" xlink:href="#radial-gradient-2"/><radialGradient id="radial-gradient-5" cx="95.12" cy="-1816.76" r="95.12" gradientTransform="translate(0 1622) scale(1 0.84)" gradientUnits="userSpaceOnUse"><stop offset="0" stop-color="#58595b"/><stop offset="0.23" stop-color="#595a5c" stop-opacity="0.96"/><stop offset="0.44" stop-color="#5b5c5e" stop-opacity="0.84"/><stop offset="0.63" stop-color="#5f6062" stop-opacity="0.65"/><stop offset="0.81" stop-color="#656668" stop-opacity="0.37"/><stop offset="0.99" stop-color="#6d6e70" stop-opacity="0.01"/><stop offset="1" stop-color="#6d6e70" stop-opacity="0"/></radialGradient><radialGradient id="radial-gradient-6" cx="-9050.25" cy="4758.5" r="119.53" gradientTransform="matrix(0, 0.67, -1, 0, 4910.04, 6212.54)" xlink:href="#radial-gradient-5"/><radialGradient id="radial-gradient-7" cx="17411.05" cy="18.6" r="89.72" gradientTransform="matrix(0.64, 0, 0, 1.04, -10965.65, 106.73)" xlink:href="#radial-gradient-5"/><radialGradient id="radial-gradient-8" cx="95.12" cy="-1816.76" r="95.12" gradientTransform="translate(0 1622) scale(1 0.84)" gradientUnits="userSpaceOnUse"><stop offset="0" stop-color="#bbbdbf"/><stop offset="0.17" stop-color="#bcbec0" stop-opacity="0.98"/><stop offset="0.31" stop-color="#bec0c2" stop-opacity="0.93"/><stop offset="0.45" stop-color="#c2c4c6" stop-opacity="0.83"/><stop offset="0.58" stop-color="#c8cacb" stop-opacity="0.7"/><stop offset="0.71" stop-color="#cfd1d2" stop-opacity="0.53"/><stop offset="0.84" stop-color="#d8dadb" stop-opacity="0.32"/><stop offset="0.97" stop-color="#e3e4e5" stop-opacity="0.07"/><stop offset="1" stop-color="#e6e7e8" stop-opacity="0"/></radialGradient><radialGradient id="radial-gradient-9" cx="-9050.25" cy="4758.5" r="119.53" gradientTransform="matrix(0, 0.67, -1, 0, 4910.04, 6212.54)" xlink:href="#radial-gradient-8"/><radialGradient id="radial-gradient-10" cx="17411.05" cy="18.6" r="89.72" gradientTransform="matrix(0.64, 0, 0, 1.04, -10965.65, 106.73)" xlink:href="#radial-gradient-8"/><mask id="mask" x="11.01" y="0" width="90.95" height="90.95" maskUnits="userSpaceOnUse"><circle class="cls-1" cx="56.48" cy="45.47" r="45.47"/></mask><mask id="mask-2" x="28.62" y="17.62" width="55.71" height="55.71" maskUnits="userSpaceOnUse"><circle class="cls-2" cx="56.48" cy="45.47" r="27.86"/></mask><mask id="mask-3" x="29.75" y="18.74" width="26.73" height="53.46" maskUnits="userSpaceOnUse"><path class="cls-3" d="M56.48,72.21a26.73,26.73,0,1,1,0-53.46C42.75,32.48,43.11,58.83,56.48,72.21Z"/></mask><symbol id="New_Symbol" data-name="New Symbol" viewBox="0 0 257.01 223.64"><ellipse class="cls-4" cx="95.12" cy="100.46" rx="95.12" ry="79.67"/><ellipse class="cls-5" cx="151.78" cy="111.82" rx="119.53" ry="80.57" transform="translate(-19.1 191.45) rotate(-61.36)"/><ellipse class="cls-6" cx="167.61" cy="125.74" rx="57.37" ry="93.72" transform="translate(-12.47 232.87) rotate(-67.62)"/></symbol><symbol id="New_Symbol_2" data-name="New Symbol 2" viewBox="0 0 257.01 223.64"><ellipse class="cls-10" cx="95.12" cy="100.46" rx="95.12" ry="79.67"/><ellipse class="cls-11" cx="151.78" cy="111.82" rx="119.53" ry="80.57" transform="translate(-19.1 191.45) rotate(-61.36)"/><ellipse class="cls-12" cx="167.61" cy="125.74" rx="57.37" ry="93.72" transform="translate(-12.47 232.87) rotate(-67.62)"/></symbol></defs><title>Ресурс 6weather</title><g id="Слой_2" data-name="Слой 2"><g id="Layer_2" data-name="Layer 2"><g class="cls-13"><circle class="cls-14" cx="56.48" cy="45.47" r="45.47"/></g><g class="cls-15"><circle class="cls-16" cx="56.48" cy="45.47" r="27.86"/></g><g class="cls-17"><path class="cls-18" d="M56.48,72.21a26.73,26.73,0,1,1,0-53.46C42.5,32.73,42.86,58.58,56.48,72.21Z"/></g><path class="cls-19" d="M32.95,46.7c0-23.3,16.25-27.1,20.63-27.1-12.52,0-22.67,11.14-22.67,24.88A25.83,25.83,0,0,0,39.2,63.71C36,59.42,32.95,52.69,32.95,46.7Z"/><use width="257.01" height="223.64" transform="translate(0 48.19) scale(0.18 0.12)" xlink:href="#New_Symbol"/><use width="257.01" height="223.64" transform="translate(19.72 49.07) scale(0.18 0.12)" xlink:href="#New_Symbol"/><use width="257.01" height="223.64" transform="translate(26.72 50.44) scale(0.18 0.12)" xlink:href="#New_Symbol"/><use width="257.01" height="223.64" transform="translate(34.42 48.81) scale(0.18 0.12)" xlink:href="#New_Symbol"/><use width="257.01" height="223.64" transform="translate(73.94 37.93) scale(0.12 0.16)" xlink:href="#New_Symbol"/><use width="257.01" height="223.64" transform="translate(87.7 39.08) scale(0.12 0.16)" xlink:href="#New_Symbol"/><use width="257.01" height="223.64" transform="translate(92.58 40.85) scale(0.12 0.16)" xlink:href="#New_Symbol"/><use width="257.01" height="223.64" transform="translate(97.96 38.73) scale(0.12 0.16)" xlink:href="#New_Symbol"/><use width="257.01" height="223.64" transform="translate(38.83 26.41) scale(0.17 0.23)" xlink:href="#New_Symbol"/><use width="257.01" height="223.64" transform="translate(58.34 28.03) scale(0.17 0.23)" xlink:href="#New_Symbol"/><use width="257.01" height="223.64" transform="translate(65.27 30.55) scale(0.17 0.23)" xlink:href="#New_Symbol"/><use width="257.01" height="223.64" transform="translate(72.89 27.54) scale(0.17 0.23)" xlink:href="#New_Symbol"/><use width="257.01" height="223.64" transform="translate(31.63 61.37) scale(0.12 0.11)" xlink:href="#New_Symbol"/><use width="257.01" height="223.64" transform="translate(45.21 62.16) scale(0.12 0.11)" xlink:href="#New_Symbol"/><use width="257.01" height="223.64" transform="translate(50.03 63.4) scale(0.12 0.11)" xlink:href="#New_Symbol"/><use width="257.01" height="223.64" transform="translate(55.33 61.92) scale(0.12 0.11)" xlink:href="#New_Symbol"/><use width="257.01" height="223.64" transform="translate(47.74 64.68) rotate(180) scale(0.09 0.14)" xlink:href="#New_Symbol"/><use width="257.01" height="223.64" transform="translate(38.19 63.71) rotate(180) scale(0.09 0.14)" xlink:href="#New_Symbol"/><use width="257.01" height="223.64" transform="translate(34.8 62.22) rotate(180) scale(0.09 0.14)" xlink:href="#New_Symbol"/><use width="257.01" height="223.64" transform="translate(31.07 64) rotate(180) scale(0.09 0.14)" xlink:href="#New_Symbol"/><use width="257.01" height="223.64" transform="translate(6.68 46.28) scale(0.19 0.15)" xlink:href="#New_Symbol_2"/><use width="257.01" height="223.64" transform="translate(42.88 55.44) scale(0.19 0.15)" xlink:href="#New_Symbol_2"/><use width="257.01" height="223.64" transform="translate(73.68 39.42) scale(0.19 0.15)" xlink:href="#New_Symbol_2"/><use width="257.01" height="223.64" transform="translate(62.16 47.68) scale(0.19 0.15)" xlink:href="#New_Symbol_2"/><use width="257.01" height="223.64" transform="translate(51.35 48.11) scale(0.18)" xlink:href="#New_Symbol_2"/><g class="cls-20"><use width="257.01" height="223.64" transform="translate(3.67 34.31) scale(0.15)" xlink:href="#New_Symbol_2"/><use width="257.01" height="223.64" transform="translate(3.66 34.32) scale(0.15)" xlink:href="#New_Symbol_2"/></g></g></g></svg>