<svg xmlns="http://www.w3.org/2000/svg" xmlns:xlink="http://www.w3.org/1999/xlink" viewBox="0 0 238.69 224.1"><defs><style>.cls-1{fill:#fff;}.cls-2{fill:#cbcbcb;}.cls-3{fill:url(#linear-gradient);}.cls-4{fill:url(#linear-gradient-2);}.cls-5{fill:url(#linear-gradient-3);}.cls-6{fill:url(#linear-gradient-4);}.cls-7{fill:url(#linear-gradient-5);}.cls-8{fill:url(#linear-gradient-6);}.cls-9{fill:url(#linear-gradient-7);}.cls-10{fill:url(#linear-gradient-8);}.cls-11{fill:#c9edfe;}.cls-12{fill:url(#linear-gradient-9);}.cls-13{fill:url(#linear-gradient-10);}.cls-14{fill:url(#linear-gradient-11);}.cls-15{fill:url(#linear-gradient-12);}.cls-16{fill:url(#linear-gradient-13);}.cls-17{fill:url(#linear-gradient-14);}</style><linearGradient id="linear-gradient" x1="-23.22" y1="138.48" x2="-23.22" y2="198.62" gradientTransform="translate(182.68 -93.58) rotate(1.39)" gradientUnits="userSpaceOnUse"><stop offset="0.02" stop-color="#a9a9a9"/><stop offset="1" stop-color="#616161"/></linearGradient><linearGradient id="linear-gradient-2" x1="-20.66" y1="150.58" x2="-19.89" y2="193.72" xlink:href="#linear-gradient"/><linearGradient id="linear-gradient-3" x1="154.55" y1="80.59" x2="154.55" y2="104.4" gradientUnits="userSpaceOnUse"><stop offset="0" stop-color="gray"/><stop offset="1" stop-color="#5f5f5f"/></linearGradient><linearGradient id="linear-gradient-4" x1="-83.65" y1="165.44" x2="-83.65" y2="235.33" xlink:href="#linear-gradient"/><linearGradient id="linear-gradient-5" x1="-80.67" y1="179.5" x2="-79.78" y2="229.63" xlink:href="#linear-gradient"/><linearGradient id="linear-gradient-6" x1="93.23" y1="111.97" x2="93.23" y2="139.63" xlink:href="#linear-gradient-3"/><linearGradient id="linear-gradient-7" x1="136.81" y1="157.52" x2="136.81" y2="204.57" gradientUnits="userSpaceOnUse"><stop offset="0" stop-color="#84d9ff"/><stop offset="1" stop-color="#2999f5"/></linearGradient><linearGradient id="linear-gradient-8" x1="25.5" y1="116.77" x2="25.5" y2="213.5" gradientTransform="translate(100.64)" gradientUnits="userSpaceOnUse"><stop offset="0" stop-color="#43acf8"/><stop offset="1" stop-color="#0c73cf"/></linearGradient><linearGradient id="linear-gradient-9" x1="173.58" y1="157.52" x2="173.58" y2="204.57" xlink:href="#linear-gradient-7"/><linearGradient id="linear-gradient-10" x1="62.28" y1="116.77" x2="62.28" y2="213.5" xlink:href="#linear-gradient-8"/><linearGradient id="linear-gradient-11" x1="96.61" y1="157.52" x2="96.61" y2="204.57" xlink:href="#linear-gradient-7"/><linearGradient id="linear-gradient-12" x1="-14.7" y1="116.77" x2="-14.7" y2="213.5" xlink:href="#linear-gradient-8"/><linearGradient id="linear-gradient-13" x1="56.4" y1="157.52" x2="56.4" y2="204.57" xlink:href="#linear-gradient-7"/><linearGradient id="linear-gradient-14" x1="-54.9" y1="116.77" x2="-54.9" y2="213.5" xlink:href="#linear-gradient-8"/></defs><title>Ресурс 36weather2</title><g id="Слой_2" data-name="Слой 2"><g id="icons"><path class="cls-1" d="M13.44,132.64c7.51,6.82,18.42,12.07,32.42,15.62,1.38.38,2.8.73,4.25,1.07a23,23,0,0,0-3,4.09L26.32,190a22.71,22.71,0,1,0,39.4,22.61l.39-.68A22.68,22.68,0,0,0,86.19,224.1a22.85,22.85,0,0,0,19.74-11.46l.39-.68a22.68,22.68,0,0,0,20.08,12.14,22.8,22.8,0,0,0,18.38-9.41,22.7,22.7,0,0,0,38.12-2.05L203.66,176a22.7,22.7,0,0,0-38-24.67,22.55,22.55,0,0,0-7-6.36c-.64-.37-1.3-.7-2-1a59.46,59.46,0,0,0,19.86-13.37,44.13,44.13,0,0,0,8.91-13.74c2.56-.42,5-.9,7.35-1.44,15.44-3.29,27.21-9.13,35-17.36a39.87,39.87,0,0,0,10.85-31.47c-1.09-13.2-6.23-24.45-14.89-32.54a47.35,47.35,0,0,0-27.82-12.3A46.31,46.31,0,0,0,184.11,9.64,52.16,52.16,0,0,0,155.66,0h-1.19a47.37,47.37,0,0,0-25.74,7.5,40,40,0,0,0-8.13,7,30.68,30.68,0,0,0-18.07,7.06,53.79,53.79,0,0,0-8.07-.82l-1.32,0a52.61,52.61,0,0,0-28.58,8.32,43.8,43.8,0,0,0-9.62,8.52,32.94,32.94,0,0,0-28.7,17.85A31.13,31.13,0,0,0,24,61.21a41.71,41.71,0,0,0-6.59,4.44A48.66,48.66,0,0,0,3.39,85,45.39,45.39,0,0,0,.5,108.71,40.38,40.38,0,0,0,13.44,132.64ZM86.9,154.1l-.12-.22H87Zm40.59-.68-.39.68a22.49,22.49,0,0,0-1.15-2c.88-.13,1.76-.25,2.61-.39C128.18,152.29,127.82,152.84,127.49,153.42Z"/><path class="cls-2" d="M152.88,103.65c-27.83-.67-48.54-5.94-58.33-14.82a22,22,0,0,1-7.06-13,26.13,26.13,0,0,1,1.72-13.66,28.76,28.76,0,0,1,8.26-11.43,20.73,20.73,0,0,1,9.69-4.57,13.31,13.31,0,0,1,1.26-8.42,15.31,15.31,0,0,1,14.06-8.25A16.11,16.11,0,0,1,128,30.6,23.64,23.64,0,0,1,137,20a32.25,32.25,0,0,1,18.34-5,36.8,36.8,0,0,1,20.07,6.81,29.23,29.23,0,0,1,11.07,14.75c1.47-.1,2.92-.13,4.32-.1,9.06.22,16.89,3.18,22.65,8.56s9.41,13.4,10.19,22.82a24.93,24.93,0,0,1-6.81,19.95c-14,14.79-46,16.28-63.9,15.85Z"/><path class="cls-3" d="M155.17,20c12.15.29,26,8.88,28.14,22.75,20-2.88,34.58,7.65,36.19,28.31,2.19,28-36.77,33.49-66.63,32.77s-47.81-6.82-55.71-14.27c-14.88-14,.74-41.36,16.23-36.86-8.2-10.92,5.86-23.79,17-14.32C132,26.36,143.81,19.77,155.17,20Z"/><path class="cls-2" d="M158.22,95.12c-6.72-.16-28.39-1.9-38.48-13.48-6.17-7.08-5.26-15.47.53-22,5-5.59,11-5.66,15.14-5.56a23.38,23.38,0,0,1,6.46,1.06,11.88,11.88,0,0,1,2.4-5.62c3-3.94,8.48-6.43,14.26-6.49h1.16a24.32,24.32,0,0,1,13.1,3.8A16.5,16.5,0,0,1,179.49,56a29.52,29.52,0,0,1,3-.08c6.66.16,14.94,2.64,18.19,9.1s.23,17.84-9.26,24.86C183.61,95.73,158.22,95.12,158.22,95.12Z"/><path class="cls-4" d="M196.35,88.1c-6.25,11.51-19,14.46-30.79,14.38-12.47-.08-27.23-.76-38.27-7.39-7-4.18-13-16.33-8.88-25.58,4.22-9.4,17.43-12.72,26.53-7.28-2-8.19,5.71-13.84,13.57-13.94,8.94-.12,17.2,4,18.51,13.56,6.7-1.3,17.23.47,20.57,7.4C200.73,75.75,199.62,82.09,196.35,88.1Z"/><path class="cls-5" d="M154.95,78.24c-26,0-57.3-1.83-57.3,5.76s22,18.31,57,18.31,56.77-10.2,56.77-16.22S175,78.24,154.95,78.24Z"/><path class="cls-2" d="M139.34,31.06c11.3-.38,18.66,5.69,17.6,15.08-1.92-6.53-7.79-9-17-9.48S125.09,41,123.61,45.54C123.31,36.83,131.17,31.33,139.34,31.06Z"/><path class="cls-2" d="M91.3,138.75C59,138,34.89,131.85,23.52,121.53a25.53,25.53,0,0,1-8.2-15.12,30.38,30.38,0,0,1,2-15.87,33.41,33.41,0,0,1,9.6-13.28,24.1,24.1,0,0,1,11.26-5.31,15.45,15.45,0,0,1,1.46-9.78A17.79,17.79,0,0,1,56,52.57a18.76,18.76,0,0,1,6.38,1.3A27.47,27.47,0,0,1,72.78,41.6a37.48,37.48,0,0,1,21.31-5.84,42.77,42.77,0,0,1,23.32,7.92,34,34,0,0,1,12.87,17.14c1.7-.11,3.39-.15,5-.11,10.53.25,19.63,3.69,26.32,9.95,6.84,6.4,10.94,15.57,11.84,26.51a29,29,0,0,1-7.91,23.18c-16.22,17.19-53.48,18.92-74.25,18.41Z"/><path class="cls-6" d="M94,41.61c14.13.34,30.17,10.32,32.7,26.43,23.27-3.35,40.18,8.88,42.06,32.9C171.26,133.46,126,139.86,91.29,139s-55.56-7.92-64.73-16.59c-17.29-16.33.85-48.06,18.86-42.83C35.89,66.91,52.23,52,65.17,63,67,48.95,80.75,41.29,94,41.61Z"/><path class="cls-2" d="M97.5,128.84c-7.81-.19-33-2.21-44.72-15.67-7.16-8.22-6.11-18,.62-25.52C59.2,81.16,66.18,81.08,71,81.2a27.23,27.23,0,0,1,7.5,1.23,13.82,13.82,0,0,1,2.79-6.53c3.51-4.58,9.86-7.47,16.57-7.55H99.2a28.26,28.26,0,0,1,15.22,4.41,19.16,19.16,0,0,1,7.8,10.66,34.3,34.3,0,0,1,3.51-.09c7.74.19,17.36,3.06,21.14,10.58s.27,20.73-10.76,28.89C127,129.55,97.5,128.84,97.5,128.84Z"/><path class="cls-7" d="M141.81,120.69c-7.26,13.38-22.07,16.8-35.78,16.71-14.49-.09-31.64-.88-44.46-8.59-8.08-4.86-15.15-19-10.32-29.72,4.91-10.92,20.26-14.78,30.83-8.46-2.34-9.52,6.63-16.08,15.77-16.2,10.39-.13,20,4.62,21.51,15.76,7.79-1.51,20,.55,23.91,8.6C146.89,106.33,145.6,113.7,141.81,120.69Z"/><path class="cls-8" d="M93.7,109.23c-30.18,0-66.59-2.13-66.59,6.69S52.62,137.2,93.39,137.2s66-11.86,66-18.85S117,109.23,93.7,109.23Z"/><path class="cls-2" d="M75.56,54.4C88.69,54,97.25,61,96,71.92c-2.23-7.58-9.05-10.41-19.79-11S59,66,57.27,71.23C56.93,61.11,66.06,54.72,75.56,54.4Z"/><path class="cls-9" d="M126.39,209.1a7.71,7.71,0,0,1-6.67-11.57l20.81-36.71a7.71,7.71,0,1,1,13.36,7.71l-20.81,36.71a7.71,7.71,0,0,1-6.69,3.86Z"/><path class="cls-10" d="M125.62,207.81c-2.06-.21-5.23-2.09-5.34-4.5.6,1.5,3.18,2.7,5.34,2.91,2.35.23,5.33-.23,6.38-1.45C131.11,207,128.26,208.09,125.62,207.81Z"/><path class="cls-11" d="M146.74,158.13c-2.6.27-5.5,2.66-6.67,5.46a11.11,11.11,0,0,1,6.67-3.46c3-.29,5.62.79,6.7,2.51A6,6,0,0,0,146.74,158.13Z"/><path class="cls-12" d="M163.16,209.1a7.72,7.72,0,0,1-6.67-11.57l20.81-36.71a7.71,7.71,0,1,1,13.36,7.71l-20.81,36.71a7.71,7.71,0,0,1-6.69,3.86Z"/><path class="cls-13" d="M162.4,207.81c-2.07-.21-5.23-2.09-5.35-4.5.6,1.5,3.19,2.7,5.35,2.91,2.35.23,5.33-.23,6.38-1.45C167.88,207,165,208.09,162.4,207.81Z"/><path class="cls-11" d="M183.51,158.13c-2.6.27-5.5,2.66-6.67,5.46a11.12,11.12,0,0,1,6.67-3.46c3-.29,5.62.79,6.7,2.51A6,6,0,0,0,183.51,158.13Z"/><path class="cls-14" d="M86.19,209.1a7.72,7.72,0,0,1-6.67-11.57l20.81-36.71a7.71,7.71,0,1,1,13.36,7.71L92.88,205.24a7.71,7.71,0,0,1-6.69,3.86Z"/><path class="cls-15" d="M85.42,207.81c-2.06-.21-5.23-2.09-5.34-4.5.6,1.5,3.19,2.7,5.34,2.91,2.35.23,5.33-.23,6.38-1.45C90.91,207,88.05,208.09,85.42,207.81Z"/><path class="cls-11" d="M106.54,158.13c-2.6.27-5.5,2.66-6.67,5.46a11.12,11.12,0,0,1,6.67-3.46c3-.29,5.62.79,6.7,2.51A6,6,0,0,0,106.54,158.13Z"/><path class="cls-16" d="M46,209.1a7.72,7.72,0,0,1-6.67-11.57l20.81-36.71a7.71,7.71,0,1,1,13.36,7.71L52.67,205.24A7.71,7.71,0,0,1,46,209.1Z"/><path class="cls-17" d="M45.22,207.81c-2.06-.21-5.23-2.09-5.35-4.5.6,1.5,3.19,2.7,5.35,2.91,2.35.23,5.33-.23,6.38-1.45C50.71,207,47.85,208.09,45.22,207.81Z"/><path class="cls-11" d="M66.34,158.13c-2.6.27-5.5,2.66-6.67,5.46a11.13,11.13,0,0,1,6.67-3.46c3-.29,5.62.79,6.7,2.51A6,6,0,0,0,66.34,158.13Z"/></g></g></svg>