<svg xmlns="http://www.w3.org/2000/svg" xmlns:xlink="http://www.w3.org/1999/xlink" viewBox="0 0 151.72 150.94"><defs><style>.cls-1{fill:url(#radial-gradient);}.cls-2{fill:url(#radial-gradient-2);}.cls-3{fill:url(#radial-gradient-3);}.cls-4{fill:url(#radial-gradient-4);}.cls-5{fill:url(#radial-gradient-5);}.cls-6{fill:url(#radial-gradient-6);}.cls-7{fill:url(#radial-gradient-7);}.cls-8{fill:url(#radial-gradient-8);}.cls-9{fill:url(#radial-gradient-9);}.cls-10{fill:url(#radial-gradient-10);}.cls-11{fill:url(#radial-gradient-11);}.cls-12{fill:url(#radial-gradient-12);}.cls-13{fill:url(#radial-gradient-13);}.cls-14{fill:url(#radial-gradient-14);}.cls-15{fill:url(#radial-gradient-15);}.cls-16{fill:url(#radial-gradient-16);}.cls-17{fill:url(#radial-gradient-17);}.cls-18{fill:url(#radial-gradient-18);}.cls-19{fill:url(#radial-gradient-19);}.cls-20{fill:url(#radial-gradient-20);}.cls-21{fill:url(#radial-gradient-21);}.cls-22{fill:url(#radial-gradient-22);}.cls-23{fill:url(#radial-gradient-23);}.cls-24{fill:url(#radial-gradient-24);}.cls-25{fill:url(#radial-gradient-25);}.cls-26{fill:url(#radial-gradient-26);}.cls-27{fill:url(#radial-gradient-27);}.cls-28{fill:url(#radial-gradient-28);}.cls-29{fill:url(#radial-gradient-29);}.cls-30{fill:url(#radial-gradient-30);}.cls-31{fill:url(#radial-gradient-31);}.cls-32{fill:url(#radial-gradient-32);}.cls-33{mask:url(#mask);}.cls-34{fill:#1b75bb;}.cls-35{fill:url(#linear-gradient);}.cls-36{fill:url(#linear-gradient-2);}.cls-37{fill:url(#linear-gradient-3);}.cls-38{fill:url(#linear-gradient-4);}.cls-39{fill:url(#linear-gradient-5);}.cls-40{fill:url(#linear-gradient-6);}.cls-41{fill:url(#linear-gradient-7);}.cls-42{fill:url(#linear-gradient-8);}.cls-43{fill:url(#linear-gradient-9);}.cls-44{fill:url(#linear-gradient-10);}.cls-45{fill:url(#linear-gradient-11);}.cls-46{fill:url(#linear-gradient-12);}.cls-47{fill:url(#linear-gradient-13);}.cls-48{fill:url(#linear-gradient-14);}.cls-49{fill:url(#linear-gradient-15);}.cls-50{fill:url(#linear-gradient-16);}.cls-51{fill:url(#linear-gradient-17);}.cls-52{fill:url(#linear-gradient-18);}.cls-53{fill:url(#linear-gradient-19);}.cls-54{fill:url(#linear-gradient-20);}.cls-55{fill:url(#linear-gradient-21);}.cls-56{fill:url(#linear-gradient-22);}.cls-57{fill:url(#linear-gradient-23);}.cls-58{fill:url(#linear-gradient-24);}.cls-59{fill:url(#linear-gradient-25);}.cls-60{fill:url(#linear-gradient-26);}.cls-61{fill:url(#linear-gradient-27);}.cls-62{fill:url(#linear-gradient-28);}.cls-63{fill:url(#linear-gradient-29);}.cls-64{fill:url(#linear-gradient-30);}.cls-65{fill:url(#linear-gradient-31);}.cls-66{fill:url(#linear-gradient-32);}.cls-67{fill:url(#linear-gradient-33);}.cls-68{mask:url(#mask-2);}.cls-69{fill:#fff;}.cls-70{mask:url(#mask-3);}.cls-71{mask:url(#mask-4);}.cls-72{mask:url(#mask-5);}.cls-73{mask:url(#mask-6);}.cls-74{mask:url(#mask-7);}.cls-75{mask:url(#mask-8);}.cls-76{mask:url(#mask-9);}.cls-77{mask:url(#mask-10);}.cls-78{mask:url(#mask-11);}.cls-79{mask:url(#mask-12);}.cls-80{mask:url(#mask-13);}.cls-81{mask:url(#mask-14);}.cls-82{mask:url(#mask-15);}.cls-83{mask:url(#mask-16);}.cls-84{mask:url(#mask-17);}.cls-85{mask:url(#mask-18);}.cls-86{mask:url(#mask-19);}.cls-87{mask:url(#mask-20);}</style><radialGradient id="radial-gradient" cx="76.24" cy="75.47" r="75.47" gradientUnits="userSpaceOnUse"><stop offset="0" stop-color="#fff"/><stop offset="0.16" stop-color="#ddd"/><stop offset="0.51" stop-color="#858585"/><stop offset="1"/></radialGradient><radialGradient id="radial-gradient-2" cx="24.78" cy="90.24" r="3.22" xlink:href="#radial-gradient"/><radialGradient id="radial-gradient-3" cx="85.4" cy="104.86" r="1.12" xlink:href="#radial-gradient"/><radialGradient id="radial-gradient-4" cx="125.42" cy="98.79" r="1.12" xlink:href="#radial-gradient"/><radialGradient id="radial-gradient-5" cx="133.84" cy="85.02" r="1.12" xlink:href="#radial-gradient"/><radialGradient id="radial-gradient-6" cx="98.64" cy="98.66" r="1.12" xlink:href="#radial-gradient"/><radialGradient id="radial-gradient-7" cx="42.08" cy="101.86" r="1.12" xlink:href="#radial-gradient"/><radialGradient id="radial-gradient-8" cx="34.34" cy="119.08" r="1.12" xlink:href="#radial-gradient"/><radialGradient id="radial-gradient-9" cx="19.46" cy="81.64" r="1.12" xlink:href="#radial-gradient"/><radialGradient id="radial-gradient-10" cx="73.68" cy="101.37" r="1.12" xlink:href="#radial-gradient"/><radialGradient id="radial-gradient-11" cx="107.9" cy="122.39" r="1.12" xlink:href="#radial-gradient"/><radialGradient id="radial-gradient-12" cx="55.01" cy="127.4" r="1.12" xlink:href="#radial-gradient"/><radialGradient id="radial-gradient-13" cx="62.2" cy="106.57" r="3.22" xlink:href="#radial-gradient"/><radialGradient id="radial-gradient-14" cx="116.31" cy="103.76" r="3.22" xlink:href="#radial-gradient"/><radialGradient id="radial-gradient-15" cx="130.61" cy="92.09" r="3.22" xlink:href="#radial-gradient"/><radialGradient id="radial-gradient-16" cx="80.32" cy="120.68" r="3.22" xlink:href="#radial-gradient"/><radialGradient id="radial-gradient-17" cx="99.76" cy="112.47" r="5.12" xlink:href="#radial-gradient"/><radialGradient id="radial-gradient-18" cx="31.72" cy="109" r="5.12" xlink:href="#radial-gradient"/><radialGradient id="radial-gradient-19" cx="65.97" cy="131.39" r="5.12" xlink:href="#radial-gradient"/><radialGradient id="radial-gradient-20" cx="86.77" cy="113.8" r="1.12" xlink:href="#radial-gradient"/><radialGradient id="radial-gradient-21" cx="95.12" cy="-1816.76" r="95.12" gradientTransform="translate(0 1622) scale(1 0.84)" gradientUnits="userSpaceOnUse"><stop offset="0" stop-color="#fff"/><stop offset="1" stop-color="#fff" stop-opacity="0"/></radialGradient><radialGradient id="radial-gradient-22" cx="-9050.25" cy="4758.5" r="119.53" gradientTransform="matrix(0, 0.67, -1, 0, 4910.05, 6212.54)" xlink:href="#radial-gradient-21"/><radialGradient id="radial-gradient-23" cx="17411.05" cy="18.6" r="89.72" gradientTransform="matrix(0.64, 0, 0, 1.04, -10965.65, 106.74)" xlink:href="#radial-gradient-21"/><radialGradient id="radial-gradient-24" cx="95.12" cy="-1816.76" r="95.12" gradientTransform="translate(0 1622) scale(1 0.84)" gradientUnits="userSpaceOnUse"><stop offset="0" stop-color="#58595b"/><stop offset="0.23" stop-color="#595a5c" stop-opacity="0.96"/><stop offset="0.44" stop-color="#5b5c5e" stop-opacity="0.84"/><stop offset="0.63" stop-color="#5f6062" stop-opacity="0.65"/><stop offset="0.81" stop-color="#656668" stop-opacity="0.37"/><stop offset="0.99" stop-color="#6d6e70" stop-opacity="0.01"/><stop offset="1" stop-color="#6d6e70" stop-opacity="0"/></radialGradient><radialGradient id="radial-gradient-25" cx="-9050.25" cy="4758.5" r="119.53" gradientTransform="matrix(0, 0.67, -1, 0, 4910.04, 6212.54)" xlink:href="#radial-gradient-24"/><radialGradient id="radial-gradient-26" cx="17411.05" cy="18.6" r="89.72" gradientTransform="matrix(0.64, 0, 0, 1.04, -10965.65, 106.73)" xlink:href="#radial-gradient-24"/><radialGradient id="radial-gradient-27" cx="95.12" cy="-1816.76" r="95.12" gradientTransform="translate(0 1622) scale(1 0.84)" gradientUnits="userSpaceOnUse"><stop offset="0" stop-color="#bbbdbf"/><stop offset="0.17" stop-color="#bcbec0" stop-opacity="0.98"/><stop offset="0.31" stop-color="#bec0c2" stop-opacity="0.93"/><stop offset="0.45" stop-color="#c2c4c6" stop-opacity="0.83"/><stop offset="0.58" stop-color="#c8cacb" stop-opacity="0.7"/><stop offset="0.71" stop-color="#cfd1d2" stop-opacity="0.53"/><stop offset="0.84" stop-color="#d8dadb" stop-opacity="0.32"/><stop offset="0.97" stop-color="#e3e4e5" stop-opacity="0.07"/><stop offset="1" stop-color="#e6e7e8" stop-opacity="0"/></radialGradient><radialGradient id="radial-gradient-28" cx="-9050.25" cy="4758.5" r="119.53" gradientTransform="matrix(0, 0.67, -1, 0, 4910.04, 6212.54)" xlink:href="#radial-gradient-27"/><radialGradient id="radial-gradient-29" cx="17411.05" cy="18.6" r="89.72" gradientTransform="matrix(0.64, 0, 0, 1.04, -10965.65, 106.73)" xlink:href="#radial-gradient-27"/><radialGradient id="radial-gradient-30" cx="68.47" cy="-1844.62" r="68.47" gradientTransform="translate(0 1617.18) scale(1 0.84)" gradientUnits="userSpaceOnUse"><stop offset="0"/><stop offset="1" stop-opacity="0"/></radialGradient><radialGradient id="radial-gradient-31" cx="-9094.4" cy="4728.06" r="86.04" gradientTransform="matrix(0, 0.67, -1, 0, 4837.09, 6210.96)" xlink:href="#radial-gradient-30"/><radialGradient id="radial-gradient-32" cx="17327.52" cy="-18.19" r="64.58" gradientTransform="matrix(0.64, 0, 0, 1.04, -10970.6, 137.77)" xlink:href="#radial-gradient-30"/><mask id="mask" x="0.76" y="0" width="150.94" height="150.94" maskUnits="userSpaceOnUse"><g transform="translate(-0.01)"><circle class="cls-1" cx="76.24" cy="75.47" r="75.47"/></g></mask><linearGradient id="linear-gradient" x1="-4334.9" y1="1918.31" x2="-4330.88" y2="1922.33" gradientTransform="matrix(-0.71, 0.71, 0.8, 0.66, -4540.28, 1886.37)" gradientUnits="userSpaceOnUse"><stop offset="0" stop-color="#26a9e0"/><stop offset="0.34" stop-color="#25a6de"/><stop offset="0.58" stop-color="#239dd7"/><stop offset="0.79" stop-color="#208dcc"/><stop offset="0.98" stop-color="#1b77bc"/><stop offset="1" stop-color="#1b75bb"/></linearGradient><linearGradient id="linear-gradient-2" x1="-5147.07" y1="1492.59" x2="-5142.87" y2="1496.79" gradientTransform="matrix(-0.66, 0.43, 0.76, 0.57, -4472.26, 1461.04)" gradientUnits="userSpaceOnUse"><stop offset="0" stop-color="#a4c8e4"/><stop offset="0.14" stop-color="#9bc6e4"/><stop offset="0.38" stop-color="#83c0e3"/><stop offset="0.67" stop-color="#5bb6e2"/><stop offset="1" stop-color="#26a9e0"/></linearGradient><linearGradient id="linear-gradient-3" x1="-6035.36" y1="2870.67" x2="-6032.36" y2="2873.67" gradientTransform="matrix(-0.42, 0.32, 0.58, 0.26, -4165.33, 1243.11)" gradientUnits="userSpaceOnUse"><stop offset="0" stop-color="#d1e3f1"/><stop offset="1" stop-color="#a4c8e4"/></linearGradient><linearGradient id="linear-gradient-4" x1="-4328.49" y1="1943.1" x2="-4324.46" y2="1947.13" xlink:href="#linear-gradient"/><linearGradient id="linear-gradient-5" x1="-5136.62" y1="1521.54" x2="-5132.42" y2="1525.75" xlink:href="#linear-gradient-2"/><linearGradient id="linear-gradient-6" x1="-6007.58" y1="2917.02" x2="-6004.58" y2="2920.02" xlink:href="#linear-gradient-3"/><linearGradient id="linear-gradient-7" x1="-4330.83" y1="1903.75" x2="-4326.81" y2="1907.77" xlink:href="#linear-gradient"/><linearGradient id="linear-gradient-8" x1="-5142.7" y1="1477.39" x2="-5138.5" y2="1481.59" xlink:href="#linear-gradient-2"/><linearGradient id="linear-gradient-9" x1="-6035.79" y1="2845.47" x2="-6032.79" y2="2848.47" xlink:href="#linear-gradient-3"/><linearGradient id="linear-gradient-10" x1="-4344.83" y1="1962.01" x2="-4340.81" y2="1966.03" xlink:href="#linear-gradient"/><linearGradient id="linear-gradient-11" x1="-5157.11" y1="1538.76" x2="-5152.9" y2="1542.97" xlink:href="#linear-gradient-2"/><linearGradient id="linear-gradient-12" x1="-6029.42" y1="2946.92" x2="-6026.42" y2="2949.93" xlink:href="#linear-gradient-3"/><linearGradient id="linear-gradient-13" x1="-4362.26" y1="1965.38" x2="-4358.24" y2="1969.4" xlink:href="#linear-gradient"/><linearGradient id="linear-gradient-14" x1="-5180.2" y1="1538.52" x2="-5176" y2="1542.72" xlink:href="#linear-gradient-2"/><linearGradient id="linear-gradient-15" x1="-6062.73" y1="2948.55" x2="-6059.72" y2="2951.56" xlink:href="#linear-gradient-3"/><linearGradient id="linear-gradient-16" x1="-4369.93" y1="1949.35" x2="-4365.91" y2="1953.37" xlink:href="#linear-gradient"/><linearGradient id="linear-gradient-17" x1="-5191.68" y1="1518.99" x2="-5187.48" y2="1523.2" xlink:href="#linear-gradient-2"/><linearGradient id="linear-gradient-18" x1="-6087.84" y1="2917.68" x2="-6084.83" y2="2920.69" xlink:href="#linear-gradient-3"/><linearGradient id="linear-gradient-19" x1="-4343.28" y1="1940.7" x2="-4339.26" y2="1944.72" xlink:href="#linear-gradient"/><linearGradient id="linear-gradient-20" x1="-5156.62" y1="1515.5" x2="-5152.42" y2="1519.7" xlink:href="#linear-gradient-2"/><linearGradient id="linear-gradient-21" x1="-6038.98" y1="2908.91" x2="-6035.98" y2="2911.91" xlink:href="#linear-gradient-3"/><linearGradient id="linear-gradient-22" x1="-4358.35" y1="1946.77" x2="-4351.89" y2="1953.23" xlink:href="#linear-gradient"/><linearGradient id="linear-gradient-23" x1="-5176.13" y1="1518.99" x2="-5169.38" y2="1525.74" xlink:href="#linear-gradient-2"/><linearGradient id="linear-gradient-24" x1="-6065.2" y1="2915.83" x2="-6060.38" y2="2920.65" xlink:href="#linear-gradient-3"/><linearGradient id="linear-gradient-25" x1="-4324.72" y1="1922.69" x2="-4318.26" y2="1929.15" xlink:href="#linear-gradient"/><linearGradient id="linear-gradient-26" x1="-5132.88" y1="1499.98" x2="-5126.13" y2="1506.73" xlink:href="#linear-gradient-2"/><linearGradient id="linear-gradient-27" x1="-6011.41" y1="2881.01" x2="-6006.58" y2="2885.83" xlink:href="#linear-gradient-3"/><linearGradient id="linear-gradient-28" x1="-4382.33" y1="1955.8" x2="-4375.87" y2="1962.26" xlink:href="#linear-gradient"/><linearGradient id="linear-gradient-29" x1="-5207.58" y1="1523.53" x2="-5200.83" y2="1530.28" xlink:href="#linear-gradient-2"/><linearGradient id="linear-gradient-30" x1="-6108.4" y1="2925.99" x2="-6103.58" y2="2930.81" xlink:href="#linear-gradient-3"/><linearGradient id="linear-gradient-31" x1="-4343.57" y1="1925.99" x2="-4340.63" y2="1928.94" xlink:href="#linear-gradient"/><linearGradient id="linear-gradient-32" x1="-5158.21" y1="1499.03" x2="-5155.13" y2="1502.11" xlink:href="#linear-gradient-2"/><linearGradient id="linear-gradient-33" x1="-6048.66" y1="2882.38" x2="-6046.46" y2="2884.58" xlink:href="#linear-gradient-3"/><mask id="mask-2" x="21.55" y="87.01" width="6.45" height="6.45" maskUnits="userSpaceOnUse"><g transform="translate(-0.01)"><circle class="cls-2" cx="24.78" cy="90.24" r="3.22"/></g></mask><mask id="mask-3" x="58.97" y="103.35" width="6.44" height="6.45" maskUnits="userSpaceOnUse"><g transform="translate(-0.01)"><circle class="cls-13" cx="62.2" cy="106.57" r="3.22"/></g></mask><mask id="mask-4" x="113.08" y="100.54" width="6.44" height="6.44" maskUnits="userSpaceOnUse"><g transform="translate(-0.01)"><circle class="cls-14" cx="116.31" cy="103.76" r="3.22"/></g></mask><mask id="mask-5" x="127.38" y="88.87" width="6.45" height="6.44" maskUnits="userSpaceOnUse"><g transform="translate(-0.01)"><circle class="cls-15" cx="130.61" cy="92.09" r="3.22"/></g></mask><mask id="mask-6" x="77.09" y="117.46" width="6.44" height="6.44" maskUnits="userSpaceOnUse"><g transform="translate(-0.01)"><circle class="cls-16" cx="80.32" cy="120.68" r="3.22"/></g></mask><mask id="mask-7" x="94.64" y="107.36" width="10.23" height="10.23" maskUnits="userSpaceOnUse"><g transform="translate(-0.01)"><circle class="cls-17" cx="99.76" cy="112.47" r="5.12"/></g></mask><mask id="mask-8" x="26.59" y="103.88" width="10.23" height="10.23" maskUnits="userSpaceOnUse"><g transform="translate(-0.01)"><circle class="cls-18" cx="31.72" cy="109" r="5.12"/></g></mask><mask id="mask-9" x="60.85" y="126.28" width="10.23" height="10.23" maskUnits="userSpaceOnUse"><g transform="translate(-0.01)"><circle class="cls-19" cx="65.97" cy="131.39" r="5.12"/></g></mask><mask id="mask-10" x="85.64" y="112.68" width="2.24" height="2.24" maskUnits="userSpaceOnUse"><g transform="translate(-0.01)"><circle class="cls-20" cx="86.77" cy="113.8" r="1.12"/></g></mask><mask id="mask-11" x="84.27" y="103.75" width="2.24" height="2.24" maskUnits="userSpaceOnUse"><g transform="translate(-0.01)"><circle class="cls-3" cx="85.4" cy="104.86" r="1.12"/></g></mask><mask id="mask-12" x="124.3" y="97.67" width="2.24" height="2.24" maskUnits="userSpaceOnUse"><g transform="translate(-0.01)"><circle class="cls-4" cx="125.42" cy="98.79" r="1.12"/></g></mask><mask id="mask-13" x="132.71" y="83.9" width="2.24" height="2.24" maskUnits="userSpaceOnUse"><g transform="translate(-0.01)"><circle class="cls-5" cx="133.84" cy="85.02" r="1.12"/></g></mask><mask id="mask-14" x="97.52" y="97.54" width="2.24" height="2.24" maskUnits="userSpaceOnUse"><g transform="translate(-0.01)"><circle class="cls-6" cx="98.64" cy="98.66" r="1.12"/></g></mask><mask id="mask-15" x="40.95" y="100.75" width="2.24" height="2.24" maskUnits="userSpaceOnUse"><g transform="translate(-0.01)"><circle class="cls-7" cx="42.08" cy="101.86" r="1.12"/></g></mask><mask id="mask-16" x="33.21" y="117.96" width="2.24" height="2.24" maskUnits="userSpaceOnUse"><g transform="translate(-0.01)"><circle class="cls-8" cx="34.34" cy="119.08" r="1.12"/></g></mask><mask id="mask-17" x="18.33" y="80.52" width="2.24" height="2.24" maskUnits="userSpaceOnUse"><g transform="translate(-0.01)"><circle class="cls-9" cx="19.46" cy="81.64" r="1.12"/></g></mask><mask id="mask-18" x="72.55" y="100.25" width="2.24" height="2.24" maskUnits="userSpaceOnUse"><g transform="translate(-0.01)"><circle class="cls-10" cx="73.68" cy="101.37" r="1.12"/></g></mask><mask id="mask-19" x="106.77" y="121.27" width="2.24" height="2.24" maskUnits="userSpaceOnUse"><g transform="translate(-0.01)"><circle class="cls-11" cx="107.89" cy="122.39" r="1.12"/></g></mask><mask id="mask-20" x="53.89" y="126.28" width="2.24" height="2.24" maskUnits="userSpaceOnUse"><g transform="translate(-0.01)"><circle class="cls-12" cx="55.01" cy="127.4" r="1.12"/></g></mask><symbol id="New_Symbol" data-name="New Symbol" viewBox="0 0 257.01 223.64"><ellipse class="cls-21" cx="95.12" cy="100.46" rx="95.12" ry="79.67"/><ellipse class="cls-22" cx="151.78" cy="111.82" rx="119.53" ry="80.57" transform="translate(-19.1 191.45) rotate(-61.36)"/><ellipse class="cls-23" cx="167.61" cy="125.74" rx="57.37" ry="93.72" transform="translate(-12.47 232.87) rotate(-67.62)"/></symbol><symbol id="New_Symbol_2" data-name="New Symbol 2" viewBox="0 0 257.01 223.64"><ellipse class="cls-27" cx="95.12" cy="100.46" rx="95.12" ry="79.67"/><ellipse class="cls-28" cx="151.78" cy="111.82" rx="119.53" ry="80.57" transform="translate(-19.1 191.45) rotate(-61.36)"/><ellipse class="cls-29" cx="167.61" cy="125.74" rx="57.37" ry="93.72" transform="translate(-12.47 232.87) rotate(-67.62)"/></symbol><symbol id="New_Symbol_3" data-name="New Symbol 3" viewBox="0 0 174.77 164.37"><ellipse class="cls-30" cx="68.47" cy="72.31" rx="68.47" ry="57.35"/><ellipse class="cls-31" cx="109.26" cy="80.49" rx="86.04" ry="58" transform="translate(-13.75 137.81) rotate(-61.36)"/><ellipse class="cls-32" cx="109.26" cy="118.34" rx="41.3" ry="67.46" transform="translate(-41.76 174.32) rotate(-67.62)"/></symbol></defs><title>Ресурс 20weather</title><g id="Слой_2" data-name="Слой 2"><g id="Layer_2" data-name="Layer 2"><g class="cls-33"><circle class="cls-34" cx="76.23" cy="75.47" r="75.47"/></g><use width="257.01" height="223.64" transform="matrix(-0.11, -0.01, 0, -0.16, 70.64, 65.49)" xlink:href="#New_Symbol"/><use width="257.01" height="223.64" transform="matrix(-0.11, -0.01, 0, -0.16, 58.28, 62.9)" xlink:href="#New_Symbol"/><use width="257.01" height="223.64" transform="matrix(-0.11, -0.01, 0, -0.16, 53.89, 60.61)" xlink:href="#New_Symbol"/><use width="257.01" height="223.64" transform="matrix(-0.11, -0.01, 0, -0.16, 49.07, 62.17)" xlink:href="#New_Symbol"/><use width="257.01" height="223.64" transform="matrix(-0.16, -0.02, 0, -0.23, 102.18, 80.68)" xlink:href="#New_Symbol"/><use width="257.01" height="223.64" transform="matrix(-0.16, -0.02, 0, -0.23, 84.65, 77.01)" xlink:href="#New_Symbol"/><use width="257.01" height="223.64" transform="matrix(-0.16, -0.02, 0, -0.23, 78.43, 73.77)" xlink:href="#New_Symbol"/><use width="257.01" height="223.64" transform="matrix(-0.16, -0.02, 0, -0.23, 71.59, 75.98)" xlink:href="#New_Symbol"/><use width="257.01" height="223.64" transform="matrix(-0.17, -0.02, 0, -0.15, 131.06, 64.18)" xlink:href="#New_Symbol_2"/><use width="257.01" height="223.64" transform="matrix(-0.17, -0.02, 0, -0.15, 98.54, 51.23)" xlink:href="#New_Symbol_2"/><use width="257.01" height="223.64" transform="matrix(-0.17, -0.02, 0, -0.15, 70.85, 64.01)" xlink:href="#New_Symbol_2"/><use width="257.01" height="223.64" transform="matrix(-0.17, -0.02, 0, -0.15, 81.21, 56.97)" xlink:href="#New_Symbol_2"/><use width="257.01" height="223.64" transform="matrix(-0.17, -0.02, 0, -0.19, 151.72, 71.71)" xlink:href="#New_Symbol_2"/><use width="257.01" height="223.64" transform="matrix(-0.17, -0.02, 0, -0.19, 97.49, 72.94)" xlink:href="#New_Symbol_2"/><use width="257.01" height="223.64" transform="matrix(0.12, 0.02, 0, 0.19, 0, 24.34)" xlink:href="#New_Symbol_2"/><use width="257.01" height="223.64" transform="matrix(0.12, 0.02, 0, 0.19, 39.96, 23.12)" xlink:href="#New_Symbol_2"/><use width="257.01" height="223.64" transform="translate(9.53 53.18) scale(0.18 0.12)" xlink:href="#New_Symbol"/><use width="257.01" height="223.64" transform="translate(29.25 54.06) scale(0.18 0.12)" xlink:href="#New_Symbol"/><use width="257.01" height="223.64" transform="translate(36.25 55.43) scale(0.18 0.12)" xlink:href="#New_Symbol"/><use width="257.01" height="223.64" transform="translate(43.95 53.8) scale(0.18 0.12)" xlink:href="#New_Symbol"/><use width="257.01" height="223.64" transform="translate(83.47 42.92) scale(0.12 0.16)" xlink:href="#New_Symbol"/><use width="257.01" height="223.64" transform="translate(97.23 44.06) scale(0.12 0.16)" xlink:href="#New_Symbol"/><use width="257.01" height="223.64" transform="translate(102.11 45.84) scale(0.12 0.16)" xlink:href="#New_Symbol"/><use width="257.01" height="223.64" transform="translate(107.49 43.72) scale(0.12 0.16)" xlink:href="#New_Symbol"/><use width="257.01" height="223.64" transform="translate(48.36 31.4) scale(0.17 0.23)" xlink:href="#New_Symbol"/><use width="257.01" height="223.64" transform="translate(67.87 33.02) scale(0.17 0.23)" xlink:href="#New_Symbol"/><use width="257.01" height="223.64" transform="translate(74.8 35.54) scale(0.17 0.23)" xlink:href="#New_Symbol"/><use width="257.01" height="223.64" transform="translate(82.42 32.53) scale(0.17 0.23)" xlink:href="#New_Symbol"/><use width="257.01" height="223.64" transform="translate(41.16 66.35) scale(0.12 0.11)" xlink:href="#New_Symbol"/><use width="257.01" height="223.64" transform="translate(54.74 67.15) scale(0.12 0.11)" xlink:href="#New_Symbol"/><use width="257.01" height="223.64" transform="translate(59.56 68.39) scale(0.12 0.11)" xlink:href="#New_Symbol"/><use width="257.01" height="223.64" transform="translate(64.86 66.91) scale(0.12 0.11)" xlink:href="#New_Symbol"/><use width="257.01" height="223.64" transform="translate(57.27 69.67) rotate(180) scale(0.09 0.14)" xlink:href="#New_Symbol"/><use width="257.01" height="223.64" transform="translate(47.72 68.7) rotate(180) scale(0.09 0.14)" xlink:href="#New_Symbol"/><use width="257.01" height="223.64" transform="translate(44.33 67.21) rotate(180) scale(0.09 0.14)" xlink:href="#New_Symbol"/><use width="257.01" height="223.64" transform="translate(40.6 68.99) rotate(180) scale(0.09 0.14)" xlink:href="#New_Symbol"/><use width="257.01" height="223.64" transform="translate(52.9 75.47) scale(0.12 0.04)" xlink:href="#New_Symbol"/><use width="257.01" height="223.64" transform="translate(16.22 51.27) scale(0.19 0.15)" xlink:href="#New_Symbol_2"/><use width="257.01" height="223.64" transform="translate(52.41 60.43) scale(0.19 0.15)" xlink:href="#New_Symbol_2"/><use width="257.01" height="223.64" transform="translate(83.21 44.41) scale(0.19 0.15)" xlink:href="#New_Symbol_2"/><use width="257.01" height="223.64" transform="translate(71.7 52.66) scale(0.19 0.15)" xlink:href="#New_Symbol_2"/><use width="257.01" height="223.64" transform="translate(60.88 53.09) scale(0.18)" xlink:href="#New_Symbol_2"/><use width="257.01" height="223.64" transform="translate(55.61 46.27) scale(0.18)" xlink:href="#New_Symbol_2"/><use width="257.01" height="223.64" transform="translate(39.02 50.03) scale(0.17 0.16)" xlink:href="#New_Symbol_2"/><use width="257.01" height="223.64" transform="translate(93.32 43.52) scale(0.17 0.16)" xlink:href="#New_Symbol_2"/><use width="257.01" height="223.64" transform="translate(14.24 41.93) scale(0.19)" xlink:href="#New_Symbol_2"/><use width="257.01" height="223.64" transform="translate(74.6 34.38) scale(0.19)" xlink:href="#New_Symbol_2"/><use width="174.77" height="164.37" transform="translate(11.28 53.44) scale(0.31 0.14)" xlink:href="#New_Symbol_3"/><use width="257.01" height="223.64" transform="translate(51.45 58.66) scale(0.13 0.15)" xlink:href="#New_Symbol"/><use width="257.01" height="223.64" transform="translate(66.35 59.69) scale(0.13 0.15)" xlink:href="#New_Symbol"/><use width="257.01" height="223.64" transform="translate(71.65 61.3) scale(0.13 0.15)" xlink:href="#New_Symbol"/><use width="257.01" height="223.64" transform="translate(77.47 59.38) scale(0.13 0.15)" xlink:href="#New_Symbol"/><use width="174.77" height="164.37" transform="translate(66.75 45.65) scale(0.45 0.25)" xlink:href="#New_Symbol_3"/><path class="cls-34" d="M52.85,101.08A2.25,2.25,0,1,0,56,97.91c-1.5-1.5-5.18-2-5.18-2S51.35,99.58,52.85,101.08Z" transform="translate(-0.01)"/><path class="cls-35" d="M53.06,100.66a2.11,2.11,0,0,0,3.18,0c.29-.32.91-1.65-.69-3S50.91,96,50.91,96,51.54,99.28,53.06,100.66Z" transform="translate(-0.01)"/><path class="cls-36" d="M53.3,99.71c1.65,1.39,2.7.67,3,.41s.77-1.36-.82-2.55A12.7,12.7,0,0,0,51,96,9.09,9.09,0,0,0,53.3,99.71Z" transform="translate(-0.01)"/><path class="cls-37" d="M53.19,97.58c.9.5,1.29.24,1.38.14s.18-.5-.67-.92a8.42,8.42,0,0,0-2.17-.56A5.14,5.14,0,0,0,53.19,97.58Z" transform="translate(-0.01)"/><path class="cls-34" d="M68.07,122.1a2.25,2.25,0,1,0,3.17-3.18c-1.5-1.5-5.18-2-5.18-2S66.57,120.6,68.07,122.1Z" transform="translate(-0.01)"/><path class="cls-38" d="M68.28,121.68a2.11,2.11,0,0,0,3.18,0c.29-.31.91-1.65-.69-3S66.13,117,66.13,117,66.76,120.3,68.28,121.68Z" transform="translate(-0.01)"/><path class="cls-39" d="M68.52,120.72c1.64,1.39,2.69.67,3,.41s.77-1.36-.82-2.55a12.64,12.64,0,0,0-4.4-1.59A9.12,9.12,0,0,0,68.52,120.72Z" transform="translate(-0.01)"/><path class="cls-40" d="M68.41,118.6c.91.5,1.29.23,1.38.14s.18-.5-.68-.92a8.41,8.41,0,0,0-2.17-.56A5.11,5.11,0,0,0,68.41,118.6Z" transform="translate(-0.01)"/><path class="cls-34" d="M38.37,94.29a2.25,2.25,0,1,0,3.18-3.18c-1.5-1.5-5.18-2-5.18-2S36.87,92.79,38.37,94.29Z" transform="translate(-0.01)"/><path class="cls-41" d="M38.58,93.87a2.11,2.11,0,0,0,3.18,0c.29-.31.91-1.64-.69-3s-4.64-1.67-4.64-1.67S37.06,92.49,38.58,93.87Z" transform="translate(-0.01)"/><path class="cls-42" d="M38.82,92.92c1.64,1.38,2.7.67,3,.41S42.56,92,41,90.78a12.66,12.66,0,0,0-4.41-1.59A9.12,9.12,0,0,0,38.82,92.92Z" transform="translate(-0.01)"/><path class="cls-43" d="M38.71,90.79c.91.5,1.29.23,1.38.14s.19-.5-.67-.92a8.38,8.38,0,0,0-2.17-.56A5.2,5.2,0,0,0,38.71,90.79Z" transform="translate(-0.01)"/><path class="cls-34" d="M94.69,123.11a2.25,2.25,0,1,0,3.18-3.18c-1.5-1.5-5.18-2-5.18-2S93.19,121.61,94.69,123.11Z" transform="translate(-0.01)"/><path class="cls-44" d="M94.9,122.69a2.11,2.11,0,0,0,3.18,0c.29-.31.91-1.65-.69-3S92.75,118,92.75,118,93.38,121.31,94.9,122.69Z" transform="translate(-0.01)"/><path class="cls-45" d="M95.14,121.73c1.64,1.38,2.7.67,3,.41s.77-1.36-.82-2.55a12.7,12.7,0,0,0-4.4-1.59A9.12,9.12,0,0,0,95.14,121.73Z" transform="translate(-0.01)"/><path class="cls-46" d="M95,119.61c.91.5,1.29.23,1.38.13s.18-.5-.68-.92a8.49,8.49,0,0,0-2.17-.56A5.18,5.18,0,0,0,95,119.61Z" transform="translate(-0.01)"/><path class="cls-34" d="M109.7,113a2.25,2.25,0,1,0,3.18-3.18c-1.5-1.5-5.18-2-5.18-2S108.2,111.52,109.7,113Z" transform="translate(-0.01)"/><path class="cls-47" d="M109.91,112.6a2.11,2.11,0,0,0,3.18,0c.29-.31.91-1.65-.69-3s-4.63-1.67-4.63-1.67S108.39,111.22,109.91,112.6Z" transform="translate(-0.01)"/><path class="cls-48" d="M110.16,111.65c1.64,1.39,2.69.67,3,.41s.77-1.36-.82-2.55a12.67,12.67,0,0,0-4.4-1.59A9.09,9.09,0,0,0,110.16,111.65Z" transform="translate(-0.01)"/><path class="cls-49" d="M110,109.52c.91.5,1.29.24,1.38.14s.18-.5-.67-.92a8.45,8.45,0,0,0-2.17-.56A5.16,5.16,0,0,0,110,109.52Z" transform="translate(-0.01)"/><path class="cls-34" d="M102.35,96.94a2.25,2.25,0,1,0,3.17-3.18c-1.5-1.5-5.18-2-5.18-2S100.85,95.44,102.35,96.94Z" transform="translate(-0.01)"/><path class="cls-50" d="M102.56,96.52a2.11,2.11,0,0,0,3.18,0c.29-.31.91-1.65-.69-3s-4.63-1.67-4.63-1.67S101,95.14,102.56,96.52Z" transform="translate(-0.01)"/><path class="cls-51" d="M102.8,95.56c1.64,1.39,2.7.67,3,.41s.77-1.36-.82-2.55a12.7,12.7,0,0,0-4.4-1.59A9.1,9.1,0,0,0,102.8,95.56Z" transform="translate(-0.01)"/><path class="cls-52" d="M102.69,93.44c.91.5,1.29.23,1.38.14s.18-.5-.67-.93a8.39,8.39,0,0,0-2.17-.56A5.15,5.15,0,0,0,102.69,93.44Z" transform="translate(-0.01)"/><path class="cls-34" d="M76.61,110a2.25,2.25,0,1,0,3.17-3.18c-1.5-1.5-5.17-2-5.17-2S75.11,108.54,76.61,110Z" transform="translate(-0.01)"/><path class="cls-53" d="M76.82,109.62a2.11,2.11,0,0,0,3.18,0c.29-.31.91-1.65-.69-3s-4.63-1.67-4.63-1.67S75.3,108.24,76.82,109.62Z" transform="translate(-0.01)"/><path class="cls-54" d="M77.07,108.67c1.64,1.39,2.69.67,3,.41s.78-1.36-.82-2.55a12.71,12.71,0,0,0-4.4-1.59A9.11,9.11,0,0,0,77.07,108.67Z" transform="translate(-0.01)"/><path class="cls-55" d="M77,106.54c.9.5,1.29.23,1.38.14s.18-.5-.68-.92a8.28,8.28,0,0,0-2.17-.56A5.16,5.16,0,0,0,77,106.54Z" transform="translate(-0.01)"/><path class="cls-34" d="M91.63,106.57a3.61,3.61,0,1,0,5.1-5.1c-2.41-2.41-8.32-3.22-8.32-3.22S89.22,104.17,91.63,106.57Z" transform="translate(-0.01)"/><path class="cls-56" d="M92,105.9a3.39,3.39,0,0,0,5.11-.07c.46-.5,1.47-2.64-1.11-4.82s-7.45-2.68-7.45-2.68S89.52,103.68,92,105.9Z" transform="translate(-0.01)"/><path class="cls-57" d="M92.36,104.37c2.64,2.22,4.33,1.08,4.76.66s1.24-2.18-1.32-4.1c-2.37-1.77-7.07-2.55-7.07-2.55S89.93,102.31,92.36,104.37Z" transform="translate(-0.01)"/><path class="cls-58" d="M92.18,101c1.46.8,2.07.38,2.22.22s.29-.8-1.08-1.48a13.58,13.58,0,0,0-3.49-.9A8.23,8.23,0,0,0,92.18,101Z" transform="translate(-0.01)"/><path class="cls-34" d="M48.66,114.35a3.61,3.61,0,1,0,5.1-5.1c-2.41-2.41-8.32-3.22-8.32-3.22S46.25,111.95,48.66,114.35Z" transform="translate(-0.01)"/><path class="cls-59" d="M49,113.68a3.39,3.39,0,0,0,5.1-.07c.46-.5,1.47-2.65-1.11-4.82s-7.45-2.69-7.45-2.69S46.55,111.46,49,113.68Z" transform="translate(-0.01)"/><path class="cls-60" d="M49.39,112.15c2.64,2.22,4.33,1.08,4.76.65s1.24-2.18-1.32-4.09c-2.37-1.77-7.07-2.56-7.07-2.56S47,110.1,49.39,112.15Z" transform="translate(-0.01)"/><path class="cls-61" d="M49.21,108.73c1.45.8,2.08.38,2.22.22s.3-.8-1.09-1.48a13.53,13.53,0,0,0-3.49-.9A8.26,8.26,0,0,0,49.21,108.73Z" transform="translate(-0.01)"/><path class="cls-34" d="M115.78,95.62a3.61,3.61,0,1,0,5.1-5.1c-2.41-2.41-8.32-3.22-8.32-3.22S113.37,93.21,115.78,95.62Z" transform="translate(-0.01)"/><path class="cls-62" d="M116.11,94.95a3.39,3.39,0,0,0,5.1-.07c.47-.5,1.47-2.64-1.11-4.82s-7.45-2.69-7.45-2.69S113.68,92.73,116.11,94.95Z" transform="translate(-0.01)"/><path class="cls-63" d="M116.51,93.41c2.64,2.23,4.33,1.08,4.76.66S122.51,91.88,120,90c-2.38-1.77-7.07-2.56-7.07-2.56S114.08,91.36,116.51,93.41Z" transform="translate(-0.01)"/><path class="cls-64" d="M116.33,90c1.45.8,2.07.38,2.22.22s.3-.8-1.08-1.48a13.55,13.55,0,0,0-3.49-.9A8.24,8.24,0,0,0,116.33,90Z" transform="translate(-0.01)"/><path class="cls-34" d="M65.31,98.67a1.65,1.65,0,1,0,2.33-2.33c-1.1-1.1-3.8-1.47-3.8-1.47S64.21,97.57,65.31,98.67Z" transform="translate(-0.01)"/><path class="cls-65" d="M65.46,98.36a1.55,1.55,0,0,0,2.33,0c.21-.23.67-1.21-.51-2.2a7.93,7.93,0,0,0-3.39-1.23A7.61,7.61,0,0,0,65.46,98.36Z" transform="translate(-0.01)"/><path class="cls-66" d="M65.64,97.66c1.2,1,2,.49,2.17.3s.57-1-.6-1.87A9.28,9.28,0,0,0,64,94.92,6.66,6.66,0,0,0,65.64,97.66Z" transform="translate(-0.01)"/><path class="cls-67" d="M65.56,96.11c.66.36.95.17,1,.1s.13-.36-.5-.68a6.15,6.15,0,0,0-1.59-.41A3.82,3.82,0,0,0,65.56,96.11Z" transform="translate(-0.01)"/><g class="cls-68"><circle class="cls-69" cx="24.77" cy="90.24" r="3.22"/></g><g class="cls-70"><circle class="cls-69" cx="62.19" cy="106.57" r="3.22"/></g><g class="cls-71"><circle class="cls-69" cx="116.3" cy="103.76" r="3.22"/></g><g class="cls-72"><circle class="cls-69" cx="130.61" cy="92.09" r="3.22"/></g><g class="cls-73"><circle class="cls-69" cx="80.32" cy="120.68" r="3.22"/></g><g class="cls-74"><circle class="cls-69" cx="99.75" cy="112.47" r="5.12"/></g><g class="cls-75"><circle class="cls-69" cx="31.71" cy="109" r="5.12"/></g><g class="cls-76"><circle class="cls-69" cx="65.97" cy="131.39" r="5.12"/></g><g class="cls-77"><circle class="cls-69" cx="86.76" cy="113.8" r="1.12"/></g><g class="cls-78"><circle class="cls-69" cx="85.39" cy="104.86" r="1.12"/></g><g class="cls-79"><circle class="cls-69" cx="125.42" cy="98.79" r="1.12"/></g><g class="cls-80"><circle class="cls-69" cx="133.83" cy="85.02" r="1.12"/></g><g class="cls-81"><circle class="cls-69" cx="98.64" cy="98.66" r="1.12"/></g><g class="cls-82"><circle class="cls-69" cx="42.07" cy="101.86" r="1.12"/></g><g class="cls-83"><circle class="cls-69" cx="34.33" cy="119.08" r="1.12"/></g><g class="cls-84"><circle class="cls-69" cx="19.45" cy="81.64" r="1.12"/></g><g class="cls-85"><circle class="cls-69" cx="73.67" cy="101.37" r="1.12"/></g><g class="cls-86"><circle class="cls-69" cx="107.89" cy="122.39" r="1.12"/></g><g class="cls-87"><circle class="cls-69" cx="55" cy="127.4" r="1.12"/></g><path class="cls-69" d="M35.4,95.94a1,1,0,0,0-.9.64h-.39a2.41,2.41,0,0,0-.48-1.15l.27-.27a1,1,0,1,0-.44-.45l-.28.28A2.39,2.39,0,0,0,32,94.5v-.39a1,1,0,1,0-.63,0v.39a2.39,2.39,0,0,0-1.16.48L30,94.7a1,1,0,1,0-.45.45l.27.27a2.38,2.38,0,0,0-.48,1.15h-.39a1,1,0,1,0,0,.63h.39a2.39,2.39,0,0,0,.48,1.16l-.27.27a1,1,0,1,0,.45.45l.27-.28a2.44,2.44,0,0,0,1.16.48v.39a1,1,0,1,0,.63,0v-.39a2.44,2.44,0,0,0,1.16-.48l.28.28a1,1,0,1,0,.44-.45l-.27-.27a2.42,2.42,0,0,0,.48-1.16h.39a1,1,0,1,0,.9-1.27Zm-1.54-2.11a.65.65,0,1,1,.28,1.09H34l0,0h0l0,0h0l0,0h0l0,0h0l0,0,0,0h0l0,0h0l0,0h0l0,0h0l0,0h0v0h0v0h0v0A.65.65,0,0,1,33.86,93.83Zm-4.12.64v0h0v0h0v0h0l0,0h0l0,0h0l0,0h0l0,0h0l0,0,0,0h0l0,0h0l0,0h0l0,0h0l0,0h-.11a.65.65,0,1,1,.44-.44Zm-1.06,2.46h0v0h0v0h0v0h0v0h0v0h0v0h0l0,0a.65.65,0,1,1,0-.63l0,0h0v0h0v0h0v0h0v0h0a.25.25,0,0,1,0,0h0v0h0a.17.17,0,0,1,0,0A.17.17,0,0,1,28.68,96.93Zm.89,3a.65.65,0,1,1-.28-1.09h.11l0,0h0l0,0h0l0,0h0l0,0h0l0,0,0,0h0l0,0h0l0,0h0l0,0h0l0,0h0v0h0v0h0v0A.65.65,0,0,1,29.57,100Zm4.12-.64v0h0v0h0v0h0l0,0h0l0,0h0l0,0h0l0,0h0l0,0,0,0h0l0,0h0l0,0h0l0,0h0l0,0h.11a.66.66,0,1,1-.44.45Zm-.25-3.71a2.13,2.13,0,0,1,.4,1H33a1.35,1.35,0,0,0-.16-.39ZM33,95.16l-.58.58a1.31,1.31,0,0,0-.39-.16v-.82A2.13,2.13,0,0,1,33,95.16Zm-1.28,2.38a.65.65,0,1,1,.65-.65A.66.66,0,0,1,31.72,97.55Zm-.65-4.34a.65.65,0,1,1,1,.57l0,0h-.56l0,0A.65.65,0,0,1,31.07,93.21Zm.34,1.55v.82a1.32,1.32,0,0,0-.39.16l-.58-.58A2.15,2.15,0,0,1,31.4,94.76ZM30,95.61l.58.58a1.36,1.36,0,0,0-.16.39h-.82A2.15,2.15,0,0,1,30,95.61Zm0,2.57a2.16,2.16,0,0,1-.4-1h.82a1.34,1.34,0,0,0,.16.39Zm.45.45L31,98a1.32,1.32,0,0,0,.39.16V99A2.14,2.14,0,0,1,30.43,98.62Zm1.94,2a.65.65,0,1,1-1-.57l0,0H32l0,0A.66.66,0,0,1,32.37,100.58ZM32,99V98.2a1.31,1.31,0,0,0,.39-.16l.58.58A2.12,2.12,0,0,1,32,99Zm1.41-.85-.58-.58a1.34,1.34,0,0,0,.16-.39h.82A2.14,2.14,0,0,1,33.45,98.18Zm2-.63a.66.66,0,0,1-.57-.34l0,0h0v0h0v0h0v0h0v0h0a.1.1,0,0,1,0,0h0v0h0a.27.27,0,0,1,0,0,.26.26,0,0,1,0,0h0v0h0a.09.09,0,0,1,0,0h0v0h0v0h0v0h0v0h0l0,0a.65.65,0,1,1,.57,1Z" transform="translate(-0.01)"/><path class="cls-69" d="M91.87,130.44a1,1,0,0,0-.9.64h-.39a2.42,2.42,0,0,0-.48-1.16l.28-.27a1,1,0,1,0-.45-.45l-.28.28A2.4,2.4,0,0,0,88.5,129v-.39a1,1,0,1,0-.63,0V129a2.38,2.38,0,0,0-1.15.48l-.28-.28a1,1,0,1,0-.45.45l.28.27a2.41,2.41,0,0,0-.48,1.16H85.4a1,1,0,1,0,0,.63h.39a2.39,2.39,0,0,0,.48,1.15l-.28.28a1,1,0,1,0,.45.45l.28-.28a2.37,2.37,0,0,0,1.15.48v.39a1,1,0,1,0,.63,0v-.39a2.39,2.39,0,0,0,1.16-.48l.28.28a1,1,0,1,0,.45-.45l-.28-.28a2.4,2.4,0,0,0,.48-1.15H91a1,1,0,1,0,.9-1.27Zm-1.54-2.11a.65.65,0,1,1,.28,1.09h-.12l0,0h0l0,0h0l0,0h0l0,0h0l0,0,0,0h0l0,0h0v0h0l0,0h0l0,0h0v0h0v0h0v0A.65.65,0,0,1,90.32,128.33ZM86.2,129v0h0v0h0v0h0l0,0h0l0,0h0l0,0h0l0,0h0l0,0,0,0h0l0,0h0l0,0h0l0,0h0l0,0h-.12a.65.65,0,1,1,.28-1.09A.65.65,0,0,1,86.2,129Zm-1.05,2.46h0v0h0v0h0v0h0v0h0v0h0v0h0l0,0a.65.65,0,1,1,0-.63l0,0h0v0h0v0h0v0h0v0h0s0,0,0,0h0v0h0v.08Zm.89,3a.65.65,0,1,1-.28-1.09h.12l0,0h0l0,0h0l0,0h0l0,0h0l0,0,0,0h0l0,0h0l0,0h0l0,0h0l0,0h0v0h0v0h0v0A.65.65,0,0,1,86,134.46Zm4.12-.64v0h0v0h0v0h0l0,0h0l0,0h0v0h0l0,0h0l0,0,0,0h0l0,0h0l0,0h0l0,0h0l0,0h.12a.65.65,0,1,1-.28,1.09A.64.64,0,0,1,90.16,133.82Zm-.25-3.71a2.18,2.18,0,0,1,.4,1h-.82a1.31,1.31,0,0,0-.16-.39Zm-.45-.44-.58.58a1.31,1.31,0,0,0-.39-.16v-.82A2.16,2.16,0,0,1,89.46,129.66ZM88.18,132a.65.65,0,1,1,.65-.65A.66.66,0,0,1,88.18,132Zm-.65-4.34a.65.65,0,1,1,1,.57l0,0H87.9l0,0A.65.65,0,0,1,87.53,127.71Zm.34,1.55v.82a1.3,1.3,0,0,0-.39.16l-.58-.58A2.17,2.17,0,0,1,87.87,129.26Zm-1.41.85.58.58a1.39,1.39,0,0,0-.16.39H86A2.14,2.14,0,0,1,86.45,130.11Zm0,2.57a2.13,2.13,0,0,1-.4-1h.82a1.38,1.38,0,0,0,.16.39Zm.44.45.58-.58a1.3,1.3,0,0,0,.39.16v.82A2.15,2.15,0,0,1,86.9,133.12Zm1.94,2a.65.65,0,1,1-1-.57l0,0h0l0,0h.49l0,0h0l0,0A.65.65,0,0,1,88.83,135.08Zm-.34-1.55v-.82a1.31,1.31,0,0,0,.39-.16l.58.58A2.15,2.15,0,0,1,88.5,133.52Zm1.41-.85-.58-.58a1.29,1.29,0,0,0,.16-.39h.82A2.16,2.16,0,0,1,89.91,132.68Zm2-.63a.65.65,0,0,1-.57-.34l0,0h0v0h0v0h0v0h0v0h0v0h0v0h0s0,0,0,0,0,0,0,0h0v0h0v0h0v0h0v0h0v0h0v0h0l0,0a.65.65,0,1,1,.57,1Z" transform="translate(-0.01)"/><path class="cls-69" d="M132.87,102a1,1,0,0,0-.9.64h-.39a2.4,2.4,0,0,0-.48-1.15l.28-.28a1,1,0,1,0-.44-.44l-.28.27a2.43,2.43,0,0,0-1.16-.48v-.39a1,1,0,1,0-.63,0v.39a2.43,2.43,0,0,0-1.15.48l-.28-.27a1,1,0,1,0-.45.44l.28.28a2.39,2.39,0,0,0-.48,1.15h-.39a1,1,0,1,0,0,.63h.39a2.4,2.4,0,0,0,.48,1.16l-.28.28a1,1,0,1,0,.45.44l.28-.27a2.4,2.4,0,0,0,1.15.48v.39a1,1,0,1,0,.63,0v-.39a2.41,2.41,0,0,0,1.16-.48l.28.27a1,1,0,1,0,.44-.44l-.28-.28a2.41,2.41,0,0,0,.48-1.16H132a1,1,0,1,0,.9-1.27Zm-1.54-2.11a.65.65,0,1,1,.28,1.09h-.12l0,0h0l0,0h0l0,0h0l0,0h0l0,0,0,0h0v0h0l0,0h0l0,0h0l0,0h0v0h0v0h0v0A.65.65,0,0,1,131.33,99.92Zm-4.12.64v0h0v0h0v0h0l0,0h0l0,0h0v0h0l0,0h0l0,0,0,0h0l0,0h0l0,0h0l0,0h0l0,0h-.12a.65.65,0,1,1,.45-.44ZM126.15,103h0a.07.07,0,0,1,0,0h0v0h0v0h0v0h0v0h0v0h0l0,0a.65.65,0,1,1,0-.63l0,0h0v0h0v0h0v0h0v0h0v0h0a.07.07,0,0,1,0,0h0V103Zm.89,3a.65.65,0,1,1-.28-1.09h.12l0,0h0l0,0h0l0,0h0l0,0h0l0,0,0,0h0l0,0h0v0h0l0,0h0l0,0h0v0h0v0h0v0A.65.65,0,0,1,127,106Zm4.12-.64v0h0v0h0v0h0l0,0h0l0,0h0l0,0h0v0h0l0,0,0,0h0l0,0h0l0,0h0l0,0h0l0,0h.12a.65.65,0,1,1-.45.44Zm-.25-3.71a2.15,2.15,0,0,1,.4,1h-.82a1.33,1.33,0,0,0-.16-.39Zm-.45-.45-.58.58a1.36,1.36,0,0,0-.39-.16v-.82A2.17,2.17,0,0,1,130.47,101.25Zm-1.28,2.38a.65.65,0,1,1,.65-.65A.65.65,0,0,1,129.19,103.64Zm-.65-4.34a.65.65,0,1,1,1,.57l0,0h-.56l0,0A.65.65,0,0,1,128.53,99.3Zm.34,1.55v.82a1.35,1.35,0,0,0-.39.16l-.58-.58A2.15,2.15,0,0,1,128.87,100.85Zm-1.41.85.58.58a1.39,1.39,0,0,0-.16.39h-.82A2.16,2.16,0,0,1,127.46,101.7Zm0,2.57a2.15,2.15,0,0,1-.4-1h.82a1.36,1.36,0,0,0,.16.39Zm.45.44.58-.58a1.33,1.33,0,0,0,.39.16v.82A2.14,2.14,0,0,1,127.9,104.71Zm1.93,2a.65.65,0,1,1-1-.57l0,0h.56l0,0A.65.65,0,0,1,129.84,106.67Zm-.34-1.55v-.82a1.34,1.34,0,0,0,.39-.16l.58.58A2.15,2.15,0,0,1,129.5,105.11Zm1.41-.85-.58-.58a1.31,1.31,0,0,0,.16-.39h.82A2.14,2.14,0,0,1,130.92,104.27Zm2-.63a.65.65,0,0,1-.57-.34l0,0h0v0h0v0h0v0h0v0h0v0h0v0h0v-.08h0v0h0v0h0v0h0v0h0v0h0v0h0l0,0a.65.65,0,1,1,.57,1Z" transform="translate(-0.01)"/><path class="cls-69" d="M74.3,111.82a.66.66,0,0,0-.62.44h-.27a1.65,1.65,0,0,0-.33-.79l.19-.19A.66.66,0,1,0,73,111l-.19.19a1.65,1.65,0,0,0-.79-.33v-.27a.65.65,0,1,0-.43,0v.27a1.65,1.65,0,0,0-.79.33l-.19-.19a.65.65,0,1,0-.31.31l.19.19a1.64,1.64,0,0,0-.33.79h-.27a.65.65,0,1,0,0,.43h.27a1.64,1.64,0,0,0,.33.79l-.19.19a.65.65,0,1,0,.31.3l.19-.19a1.66,1.66,0,0,0,.79.33v.27a.65.65,0,1,0,.43,0v-.27a1.65,1.65,0,0,0,.79-.33L73,114a.65.65,0,1,0,.3-.3l-.19-.19a1.65,1.65,0,0,0,.33-.79h.27a.65.65,0,1,0,.62-.87Zm-1.05-1.44a.45.45,0,1,1,.63.63.44.44,0,0,1-.44.11h-.17l0,0,0,0h0v0h0v0h0v0h0v0h0v0h0v0A.44.44,0,0,1,73.25,110.38Zm-2.82.44v0h0v0h0v0h0v0h0v0h0v0h0l0,0,0,0h-.17a.44.44,0,0,1-.44-.11.45.45,0,1,1,.75-.19Zm-.72,1.68h0v0h0v0h0v0h0v0h0v0h0v0h0v0a.45.45,0,0,1-.39.23.45.45,0,0,1,0-.89.45.45,0,0,1,.39.23v0h0v0h0v0h0v0h0v0h0v0h0v0h0v.05Zm.61,2.07a.45.45,0,1,1-.19-.75h.17l0,0,0,0h0v0h0v0h0v0h0v0h0v0h0v0A.45.45,0,0,1,70.31,114.57Zm2.82-.44v0h0v0h0v0h0v0h0v0h0l0,0,0,0h.17a.45.45,0,1,1-.19.75A.44.44,0,0,1,73.13,114.13ZM73,111.6a1.48,1.48,0,0,1,.27.66h-.56a.92.92,0,0,0-.11-.26Zm-.31-.3-.4.4a.83.83,0,0,0-.27-.11V111A1.45,1.45,0,0,1,72.66,111.29Zm-.88,1.63a.45.45,0,1,1,.45-.45A.45.45,0,0,1,71.78,112.92Zm-.45-3a.45.45,0,1,1,.66.39h-.43A.45.45,0,0,1,71.33,110Zm.23,1.06v.56a.82.82,0,0,0-.27.11l-.4-.4A1.45,1.45,0,0,1,71.56,111Zm-1,.58.4.4a.94.94,0,0,0-.11.26h-.56A1.49,1.49,0,0,1,70.59,111.6Zm0,1.76a1.48,1.48,0,0,1-.27-.66h.56A.94.94,0,0,0,71,113Zm.31.3.4-.4a.94.94,0,0,0,.27.11v.56A1.46,1.46,0,0,1,70.9,113.66ZM72.22,115a.45.45,0,1,1-.66-.39H72A.44.44,0,0,1,72.22,115ZM72,113.93v-.56a1,1,0,0,0,.27-.11l.4.4A1.46,1.46,0,0,1,72,113.93Zm1-.58-.4-.4a.92.92,0,0,0,.11-.27h.56A1.47,1.47,0,0,1,73,113.35Zm1.34-.43a.44.44,0,0,1-.39-.23v0h0v0h0v0h0v0h0v0h0v0h0v0h0v-.05h0v0h0v0h0v0h0v0h0v0h0v0h0v0a.45.45,0,1,1,.39.66Z" transform="translate(-0.01)"/><path class="cls-69" d="M46.32,124.91a.65.65,0,0,0-.62.44h-.27a1.62,1.62,0,0,0-.33-.79l.19-.19a.65.65,0,1,0-.3-.3l-.19.19a1.64,1.64,0,0,0-.79-.33v-.27a.65.65,0,1,0-.43,0v.27a1.64,1.64,0,0,0-.79.33l-.19-.19a.66.66,0,1,0-.31.3l.19.19a1.64,1.64,0,0,0-.33.79H41.9a.65.65,0,1,0,0,.43h.27a1.66,1.66,0,0,0,.33.79l-.19.19a.65.65,0,1,0,.31.31l.19-.19a1.64,1.64,0,0,0,.79.33v.27a.65.65,0,1,0,.43,0v-.27a1.64,1.64,0,0,0,.79-.33l.19.19a.65.65,0,1,0,.3-.31l-.19-.19a1.63,1.63,0,0,0,.33-.79h.27a.65.65,0,1,0,.62-.87Zm-1.05-1.44a.45.45,0,1,1,.19.74h-.17l0,0,0,0h0v0h0v0h0v0h0v0h0v0A.44.44,0,0,1,45.27,123.46Zm-2.82.44v0h0v0h0v0h0v0h0l0,0h0l0,0,0,0h-.17a.44.44,0,0,1-.44-.11.45.45,0,1,1,.74-.19Zm-.72,1.69h0a.06.06,0,0,0,0,0h0v0h0v0h0v0h0v0h0v0h0v0a.45.45,0,1,1,0-.43v0h0v0h0v0h0v0h0v0h0v0h0a.06.06,0,0,0,0,0h0v.05Zm.61,2.07a.45.45,0,1,1-.63-.63.46.46,0,0,1,.44-.12h.17l0,0,0,0h0v0h0l0,0h0v0h0v0h0v0h0v0A.45.45,0,0,1,42.33,127.66Zm2.82-.44v0h0v0h0v0h0v0h0v0h0v0h0l0,0,0,0h.17a.46.46,0,0,1,.44.12.45.45,0,1,1-.75.19ZM45,124.68a1.48,1.48,0,0,1,.27.66H44.7a1,1,0,0,0-.11-.27Zm-.31-.3-.4.4a1,1,0,0,0-.27-.11v-.56A1.48,1.48,0,0,1,44.68,124.38ZM43.8,126a.45.45,0,1,1,.45-.45A.45.45,0,0,1,43.8,126Zm-.45-3a.45.45,0,1,1,.66.39h-.43A.45.45,0,0,1,43.35,123Zm.23,1.06v.56a1,1,0,0,0-.26.11l-.4-.4A1.51,1.51,0,0,1,43.58,124.1Zm-1,.58.4.4a.91.91,0,0,0-.11.27h-.56A1.48,1.48,0,0,1,42.62,124.68Zm0,1.76a1.47,1.47,0,0,1-.27-.66h.56A.88.88,0,0,0,43,126Zm.3.31.4-.4a.92.92,0,0,0,.26.11V127A1.48,1.48,0,0,1,42.92,126.75Zm1.33,1.34a.45.45,0,1,1-.66-.39H44A.44.44,0,0,1,44.25,128.08ZM44,127v-.56a.93.93,0,0,0,.27-.11l.4.4A1.46,1.46,0,0,1,44,127Zm1-.58-.4-.4a.93.93,0,0,0,.11-.26h.56A1.47,1.47,0,0,1,45,126.44Zm1.34-.43a.44.44,0,0,1-.39-.23v0h0v0h0v0h0v0h0a.06.06,0,0,1,0,0h0v0h0v0h0s0,0,0,0v0h0v0h0v0h0v0h0v0h0v0h0v0h0v0a.45.45,0,1,1,.39.66Z" transform="translate(-0.01)"/><path class="cls-69" d="M111.54,100.72a.65.65,0,0,0-.62.44h-.26a1.66,1.66,0,0,0-.33-.79l.19-.19a.65.65,0,1,0-.3-.3l-.19.19a1.67,1.67,0,0,0-.79-.33v-.27a.65.65,0,1,0-.43,0v.27a1.66,1.66,0,0,0-.79.33l-.19-.19a.65.65,0,1,0-.3.3l.19.19a1.62,1.62,0,0,0-.33.79h-.27a.65.65,0,1,0,0,.43h.27a1.63,1.63,0,0,0,.33.79l-.19.19a.66.66,0,1,0,.3.31l.19-.19a1.64,1.64,0,0,0,.79.33v.27a.65.65,0,1,0,.43,0V103a1.65,1.65,0,0,0,.79-.33l.19.19a.65.65,0,1,0,.3-.31l-.19-.19a1.67,1.67,0,0,0,.33-.79h.26a.65.65,0,1,0,.62-.87Zm-1.05-1.44a.45.45,0,1,1,.19.74h-.17l0,0,0,0h0v0h0v0h0v0h0v0h0v0h0v0h0v0A.45.45,0,0,1,110.48,99.27Zm-2.82.44v0h0v0h0v0h0v0h0v0h0v0h0v0h0l0,0,0,0h0l0,0h-.1a.45.45,0,0,1-.44-.74.45.45,0,0,1,.63,0A.44.44,0,0,1,107.66,99.71Zm-.72,1.68h0v0h0v0h0v0h0v0h0v0h0v0h0l0,0a.44.44,0,0,1-.39.23.45.45,0,0,1,0-.89.44.44,0,0,1,.39.23l0,0h0v0h0v0h0v0h0v0h0v0h0v0h0v.05Zm.61,2.07a.44.44,0,0,1-.63,0,.45.45,0,0,1,0-.63.44.44,0,0,1,.44-.11h.1l0,0h0l0,0,0,0h0v0h0v0h0v0h0v0h0v0h0v0A.44.44,0,0,1,107.55,103.47Zm2.82-.44v0h0v0h0v0h0v0h0v0h0v0h0l0,0,0,0h.05l0,0h.1a.44.44,0,0,1,.44.11.45.45,0,1,1-.63.63A.45.45,0,0,1,110.37,103Zm-.17-2.53a1.48,1.48,0,0,1,.27.66h-.56a.93.93,0,0,0-.11-.27Zm-.31-.31-.4.4a1,1,0,0,0-.27-.11v-.56A1.45,1.45,0,0,1,109.89,100.19Zm-.88,1.63a.45.45,0,1,1,.45-.45A.45.45,0,0,1,109,101.82Zm-.45-3a.45.45,0,1,1,.66.39h-.43A.45.45,0,0,1,108.57,98.85Zm.23,1.06v.56a1,1,0,0,0-.26.11l-.4-.4A1.47,1.47,0,0,1,108.8,99.91Zm-1,.58.4.4a.85.85,0,0,0-.11.27h-.56A1.47,1.47,0,0,1,107.83,100.49Zm0,1.76a1.46,1.46,0,0,1-.28-.66h.56a.85.85,0,0,0,.11.27Zm.3.3.4-.4a.92.92,0,0,0,.26.11v.56A1.48,1.48,0,0,1,108.14,102.55Zm1.32,1.34a.45.45,0,1,1-.66-.39h.43A.45.45,0,0,1,109.46,103.89Zm-.23-1.06v-.56a.92.92,0,0,0,.27-.11l.4.4A1.46,1.46,0,0,1,109.23,102.83Zm1-.58-.4-.4a.92.92,0,0,0,.11-.27h.56A1.47,1.47,0,0,1,110.2,102.25Zm1.34-.43a.45.45,0,0,1-.39-.23v0h0v0h0v0h0v0h0v0h0v0h0a.06.06,0,0,0,0,0h0v-.05h0a.07.07,0,0,0,0,0h0v0h0v0h0v0h0v0h0v0h0v0a.45.45,0,1,1,.39.66Z" transform="translate(-0.01)"/><path class="cls-69" d="M120.14,119.51a.39.39,0,0,0-.37.26h-.16a1,1,0,0,0-.19-.47l.11-.11a.39.39,0,0,0,.44-.62.39.39,0,0,0-.62.44l-.11.11a1,1,0,0,0-.47-.19v-.16a.38.38,0,0,0,.26-.37.39.39,0,1,0-.77,0,.38.38,0,0,0,.26.37v.16a1,1,0,0,0-.47.19l-.11-.11a.38.38,0,0,0-.08-.44.39.39,0,0,0-.55.55.39.39,0,0,0,.44.08l.11.11a1,1,0,0,0-.19.47h-.16a.39.39,0,1,0,0,.26h.16a1,1,0,0,0,.19.47l-.11.11a.39.39,0,1,0,.11.62.38.38,0,0,0,.08-.44l.11-.11a1,1,0,0,0,.47.19V121a.38.38,0,0,0-.26.37.39.39,0,1,0,.51-.37v-.16a1,1,0,0,0,.47-.19l.11.11a.39.39,0,1,0,.18-.18l-.11-.11a1,1,0,0,0,.19-.47h.16a.39.39,0,1,0,.37-.52Zm-.63-.86a.27.27,0,1,1,.12.44h-.17v0A.27.27,0,0,1,119.51,118.65Zm-1.67.26v0h-.18a.27.27,0,1,1,.11-.44A.27.27,0,0,1,117.83,118.92Zm-.43,1h0a.26.26,0,1,1,0-.26v0h0v0h0Zm.36,1.23a.27.27,0,1,1-.11-.44h.18v0A.27.27,0,0,1,117.77,121.15Zm1.67-.26v0h.17a.27.27,0,1,1-.12.44A.27.27,0,0,1,119.44,120.89Zm-.1-1.51a.85.85,0,0,1,.16.39h-.33a.59.59,0,0,0-.07-.16Zm-.18-.18-.23.24a.52.52,0,0,0-.16-.07V119A.86.86,0,0,1,119.16,119.2Zm-.52,1a.27.27,0,1,1,.27-.26A.27.27,0,0,1,118.64,120.17Zm-.27-1.76a.27.27,0,1,1,.39.23h-.25A.26.26,0,0,1,118.37,118.4Zm.14.63v.33a.51.51,0,0,0-.16.07l-.24-.24A.86.86,0,0,1,118.51,119Zm-.58.34.24.24a.53.53,0,0,0-.07.16h-.33A.92.92,0,0,1,117.93,119.38Zm0,1a.92.92,0,0,1-.16-.4h.33a.51.51,0,0,0,.07.16Zm.18.18.24-.24a.6.6,0,0,0,.16.07v.33A.86.86,0,0,1,118.11,120.6Zm.79.8a.27.27,0,1,1-.39-.23h.25A.27.27,0,0,1,118.9,121.4Zm-.14-.63v-.33l.16-.07.23.24A.85.85,0,0,1,118.76,120.77Zm.58-.34-.23-.24a.55.55,0,0,0,.07-.16h.33A.86.86,0,0,1,119.34,120.42Zm.8-.26a.27.27,0,0,1-.23-.14h0v0h0v0h0v0a.27.27,0,1,1,.23.39Z" transform="translate(-0.01)"/><path class="cls-69" d="M128,84.21a.39.39,0,0,0-.37.26h-.16a1,1,0,0,0-.2-.47l.11-.11a.39.39,0,1,0-.18-.18l-.11.11a1,1,0,0,0-.47-.19v-.16a.39.39,0,1,0-.26,0v.16a1,1,0,0,0-.47.19l-.11-.11a.39.39,0,1,0-.18.18l.11.11a1,1,0,0,0-.19.47h-.16a.38.38,0,0,0-.36-.26.39.39,0,1,0,0,.78.38.38,0,0,0,.36-.26h.16a1,1,0,0,0,.19.47l-.11.11a.39.39,0,1,0,.11.62.39.39,0,0,0,.07-.44l.11-.11a1,1,0,0,0,.47.2v.16a.39.39,0,1,0,.26,0v-.16a1,1,0,0,0,.47-.2l.11.11a.39.39,0,1,0,.18-.18l-.11-.11a1,1,0,0,0,.2-.47h.16a.39.39,0,1,0,.37-.52Zm-.63-.86a.27.27,0,0,1,.38.38.27.27,0,0,1-.26.07h-.17v0A.26.26,0,0,1,127.41,83.35Zm-1.68.26v0h-.18a.27.27,0,0,1-.26-.07.27.27,0,0,1,.38-.38A.26.26,0,0,1,125.74,83.61Zm-.43,1h0v0h0a.27.27,0,1,1,0-.26v0h0v0h0v0Zm.36,1.23a.27.27,0,1,1-.38-.37.27.27,0,0,1,.26-.07h.15v0h0A.26.26,0,0,1,125.67,85.84Zm1.68-.26h0v0h.15a.27.27,0,1,1-.11.44A.26.26,0,0,1,127.35,85.58Zm-.1-1.51a.91.91,0,0,1,.16.39h-.33a.5.5,0,0,0-.07-.16Zm-.18-.18-.24.24a.53.53,0,0,0-.16-.06v-.33A.91.91,0,0,1,127.07,83.89Zm-.52,1a.27.27,0,1,1,.26-.27A.27.27,0,0,1,126.54,84.86Zm-.26-1.77a.26.26,0,1,1,.39.23h-.26A.27.27,0,0,1,126.28,83.1Zm.14.63v.33a.49.49,0,0,0-.16.06l-.24-.24A.89.89,0,0,1,126.42,83.73Zm-.58.34.24.24a.56.56,0,0,0-.07.16h-.33A.89.89,0,0,1,125.84,84.08Zm0,1a.87.87,0,0,1-.16-.39H126a.55.55,0,0,0,.07.16Zm.18.18.24-.24a.52.52,0,0,0,.16.06v.33A.82.82,0,0,1,126,85.3Zm.79.79a.26.26,0,1,1-.39-.23h.26A.26.26,0,0,1,126.81,86.1Zm-.14-.63v-.33l.16-.06.24.24A.83.83,0,0,1,126.67,85.46Zm.58-.34-.24-.24a.5.5,0,0,0,.07-.16h.33A.9.9,0,0,1,127.25,85.12Zm.79-.26a.26.26,0,0,1-.23-.14h0v0h0v0h0v0h0v0a.27.27,0,1,1,.23.39Z" transform="translate(-0.01)"/><path class="cls-69" d="M57.63,92.53a.39.39,0,0,0-.37.26h-.16a1,1,0,0,0-.19-.47L57,92.2a.39.39,0,1,0-.18-.18l-.11.11a1,1,0,0,0-.47-.19v-.16a.39.39,0,0,0-.13-.75.39.39,0,0,0-.39.39.39.39,0,0,0,.26.37v.16a1,1,0,0,0-.47.2L55.42,92a.38.38,0,1,0-.18.18l.11.11a1,1,0,0,0-.19.47H55A.39.39,0,1,0,55,93h.16a1,1,0,0,0,.19.47l-.11.11a.39.39,0,1,0,.18.18l.11-.11a1,1,0,0,0,.47.19V94a.39.39,0,0,0,.13.75.39.39,0,0,0,.39-.39.39.39,0,0,0-.26-.37v-.16a1,1,0,0,0,.47-.19l.11.11a.39.39,0,1,0,.18-.18l-.11-.11a1,1,0,0,0,.19-.47h.16a.39.39,0,1,0,.37-.51ZM57,91.67a.27.27,0,0,1,.38.37.26.26,0,0,1-.26.07h-.17v0A.26.26,0,0,1,57,91.67Zm-1.68.26v0h-.17a.26.26,0,0,1-.26-.07.27.27,0,0,1,0-.37.26.26,0,0,1,.38,0A.26.26,0,0,1,55.33,91.93Zm-.43,1h0v0h0v0h0a.27.27,0,1,1,0-.25h0v0h0Zm.36,1.23a.27.27,0,0,1-.38,0,.27.27,0,0,1,.26-.44h.17v0A.26.26,0,0,1,55.26,94.16Zm1.68-.26v0h.17a.27.27,0,0,1,.26.07.27.27,0,0,1-.38.38A.26.26,0,0,1,56.94,93.9Zm-.1-1.51a.88.88,0,0,1,.16.39h-.33a.51.51,0,0,0-.07-.16Zm-.18-.18-.24.24a.55.55,0,0,0-.16-.07V92A.85.85,0,0,1,56.65,92.21Zm-.52,1a.27.27,0,1,1,.27-.27A.27.27,0,0,1,56.13,93.18Zm-.27-1.77a.27.27,0,0,1,.53,0,.27.27,0,0,1-.14.23H56A.27.27,0,0,1,55.87,91.41ZM56,92v.33l-.16.07-.24-.24A.86.86,0,0,1,56,92Zm-.58.34.24.24a.53.53,0,0,0-.07.16h-.33A.85.85,0,0,1,55.43,92.39Zm0,1a.85.85,0,0,1-.16-.39h.33a.57.57,0,0,0,.07.16Zm.18.18.24-.24.16.07v.33A.85.85,0,0,1,55.61,93.62Zm.79.8a.27.27,0,1,1-.39-.23h.26A.27.27,0,0,1,56.4,94.41Zm-.14-.63v-.33a.62.62,0,0,0,.16-.07l.24.24A.84.84,0,0,1,56.26,93.78Zm.58-.34-.24-.24a.54.54,0,0,0,.07-.16H57A.88.88,0,0,1,56.84,93.43Zm.79-.26A.26.26,0,0,1,57.4,93h0v0h0v0h0v0h0v0h0a.26.26,0,0,1,.23-.14.27.27,0,1,1,0,.53Z" transform="translate(-0.01)"/><path class="cls-69" d="M60.69,122a.39.39,0,0,0-.37.26h-.16a1,1,0,0,0-.2-.47l.11-.11a.39.39,0,1,0-.18-.18l-.11.11a1,1,0,0,0-.47-.19v-.16a.39.39,0,1,0-.26,0v.16a1,1,0,0,0-.47.2l-.11-.11a.39.39,0,1,0-.63.11.39.39,0,0,0,.44.08l.11.11a1,1,0,0,0-.19.47h-.16a.39.39,0,1,0,0,.26h.16a1,1,0,0,0,.19.47l-.11.11a.39.39,0,0,0-.44.62.39.39,0,0,0,.63-.44l.11-.11a1,1,0,0,0,.47.19v.16a.39.39,0,1,0,.26,0v-.16a1,1,0,0,0,.47-.19l.11.11a.39.39,0,0,0,.08.44.39.39,0,0,0,.55,0,.39.39,0,0,0-.44-.62L60,123a1,1,0,0,0,.2-.47h.16a.39.39,0,1,0,.37-.52Zm-.62-.86a.26.26,0,0,1,.37,0,.27.27,0,0,1-.26.44H60A.27.27,0,0,1,60.06,121.14Zm-1.68.26h-.18a.26.26,0,0,1-.26-.07.27.27,0,1,1,.38-.38A.27.27,0,0,1,58.39,121.4Zm-.43,1h0v0h0v0a.27.27,0,0,1-.23.13.26.26,0,1,1,.23-.39h0v0h0Zm.36,1.23a.27.27,0,1,1-.12-.44h.18A.27.27,0,0,1,58.32,123.64Zm1.68-.26h.18a.26.26,0,0,1,.26.44.27.27,0,0,1-.44-.26Zm-.1-1.51a.89.89,0,0,1,.16.4h-.33a.59.59,0,0,0-.07-.16Zm-.18-.18-.24.23-.16-.07v-.33A.84.84,0,0,1,59.71,121.69Zm-.52,1a.27.27,0,1,1,.27-.27A.27.27,0,0,1,59.19,122.65Zm-.27-1.76a.27.27,0,1,1,.39.23h-.26A.27.27,0,0,1,58.92,120.89Zm.14.63v.33l-.16.07-.24-.23A.84.84,0,0,1,59.06,121.52Zm-.58.34.24.24a.56.56,0,0,0-.07.16h-.33A.9.9,0,0,1,58.49,121.87Zm0,1a.89.89,0,0,1-.16-.39h.33a.52.52,0,0,0,.07.16Zm.18.18.24-.24a.47.47,0,0,0,.16.07v.34A.87.87,0,0,1,58.67,123.09Zm.79.8a.27.27,0,0,1-.53,0,.27.27,0,0,1,.14-.24h.26A.27.27,0,0,1,59.46,123.89Zm-.14-.63v-.34a.48.48,0,0,0,.16-.07l.24.24A.88.88,0,0,1,59.32,123.25Zm.58-.34-.24-.24a.54.54,0,0,0,.07-.16h.33A.88.88,0,0,1,59.89,122.91Zm.79-.26a.27.27,0,0,1-.23-.13v0h0v0h0v0h0v0h0a.26.26,0,0,1,.23-.14.26.26,0,1,1,0,.53Z" transform="translate(-0.01)"/></g></g></svg>