<svg xmlns="http://www.w3.org/2000/svg" xmlns:xlink="http://www.w3.org/1999/xlink" viewBox="0 0 219.91 201.78"><defs><style>.cls-1{fill:#fff;}.cls-2{fill:url(#linear-gradient);}.cls-3{fill:url(#linear-gradient-2);}.cls-4{fill:url(#linear-gradient-3);}.cls-5{fill:url(#linear-gradient-4);}.cls-6{fill:url(#linear-gradient-5);}</style><linearGradient id="linear-gradient" x1="109.96" y1="30.71" x2="109.96" y2="174.97" gradientUnits="userSpaceOnUse"><stop offset="0" stop-color="#84d9ff"/><stop offset="1" stop-color="#2999f5"/></linearGradient><linearGradient id="linear-gradient-2" x1="110.21" y1="32.32" x2="110.21" y2="157.38" gradientUnits="userSpaceOnUse"><stop offset="0" stop-color="#43acf8"/><stop offset="1" stop-color="#0c73cf"/></linearGradient><linearGradient id="linear-gradient-3" x1="107.54" y1="17.08" x2="114.72" y2="147.75" gradientUnits="userSpaceOnUse"><stop offset="0" stop-color="#e7f8ff"/><stop offset="1" stop-color="#73cdfd"/></linearGradient><linearGradient id="linear-gradient-4" x1="65.97" y1="104.44" x2="66.69" y2="57.78" xlink:href="#linear-gradient"/><linearGradient id="linear-gradient-5" x1="126.26" y1="148.74" x2="126.26" y2="54.65" xlink:href="#linear-gradient"/></defs><title>Ресурс 24weather2</title><g id="Слой_2" data-name="Слой 2"><g id="icons"><path class="cls-1" d="M33.21,176.86C52.8,193.16,79.33,201.78,110,201.78c30,0,57.3-9.05,76.81-25.5,21.68-18.27,33.15-44.34,33.15-75.39s-11.46-57.12-33.15-75.4C167.25,9.06,140,0,110,0,79.33,0,52.8,8.62,33.21,24.93,11.49,43,0,69.29,0,100.89S11.49,158.77,33.21,176.86Z"/><path class="cls-2" d="M204.91,100.89c0,55.94-42.51,85.89-95,85.89s-95-28.58-95-85.89S57.51,15,110,15,204.91,45,204.91,100.89Z"/><path class="cls-3" d="M110.21,177.11c-38.49,0-70.32-20.38-83.27-39.67,9.8,22.77,44.78,46.49,83.27,46.49s73.47-23.72,83.27-46.49C180.54,156.74,148.7,177.11,110.21,177.11Z"/><path class="cls-4" d="M110.21,26.22c-38.49,0-70.32,20.27-83.27,39.56C36.74,43,71.73,19.29,110.21,19.29S183.69,43,193.48,65.77C180.54,46.48,148.7,26.22,110.21,26.22Z"/><path class="cls-5" d="M66.31,108.68A26.45,26.45,0,1,1,92.76,82.23a26.48,26.48,0,0,1-26.45,26.45Z"/><path class="cls-6" d="M127.64,151c-14.79,0-26.93-4.76-36.07-14.14-8.94-9.18-13.47-21.42-13.47-36.38s5.39-27.55,16-37l.07-.06a50.93,50.93,0,0,1,34.53-12.73c19.68,0,33.83,6.86,42,20.4l.11.19a22,22,0,0,1,3.15,11,17.46,17.46,0,0,1-6,13.36,18.94,18.94,0,0,1-13,4.89c-3.91,0-9.76-1.3-15.37-7.48-3.77-4.12-7.5-6.14-11.37-6.14a9.88,9.88,0,0,0-7.16,3c-1.69,1.69-3.9,4.67-3.9,11.08,0,5.09,1.06,8.8,3.14,11l.08.08c1.11,1.21,2.9,2.61,6.94,2.61,4.39,0,9.14-2.7,14.13-8a18.74,18.74,0,0,1,14-6.08,18.28,18.28,0,0,1,13.34,5.72,18.57,18.57,0,0,1,5.51,13.32,19.28,19.28,0,0,1-3.3,10.51l-.12.19C161.71,144.06,147.12,151,127.64,151Z"/><path class="cls-1" d="M66.31,99.11A16.88,16.88,0,1,1,83.19,82.23,16.89,16.89,0,0,1,66.31,99.11Zm0-25.24a8.36,8.36,0,1,0,8.36,8.36,8.37,8.37,0,0,0-8.36-8.36Z"/><path class="cls-1" d="M164.84,119.64a9.87,9.87,0,0,1-1.78,5.33q-11.15,16.48-35.43,16.48-18.26,0-29.21-11.25-10.75-11.05-10.75-29.7,0-18.45,12.83-29.9a41.43,41.43,0,0,1,28.22-10.36Q153,60.24,162.57,76a12.51,12.51,0,0,1,1.88,6.22,7.8,7.8,0,0,1-2.76,6.22,9.36,9.36,0,0,1-6.61,2.47q-4.34,0-8.29-4.34-8.49-9.27-18.45-9.28A19.47,19.47,0,0,0,114.52,83q-6.81,6.71-6.81,18,0,11.45,5.72,17.56,5.23,5.72,14,5.72,10.75,0,21.12-11.05a9.23,9.23,0,0,1,7-3.06,8.76,8.76,0,0,1,6.51,2.86A9,9,0,0,1,164.84,119.64Z"/></g></g></svg>