<svg xmlns="http://www.w3.org/2000/svg" xmlns:xlink="http://www.w3.org/1999/xlink" viewBox="0 0 299.61 235.28"><defs><style>.cls-1{fill:#fff;}.cls-2{fill:url(#linear-gradient);}.cls-3{fill:url(#linear-gradient-2);}.cls-4{fill:url(#linear-gradient-3);}.cls-5{fill:url(#linear-gradient-4);}.cls-6{fill:url(#linear-gradient-5);}.cls-7{fill:url(#linear-gradient-6);}.cls-8{fill:url(#linear-gradient-7);}.cls-9{fill:url(#linear-gradient-8);}.cls-10{fill:url(#linear-gradient-9);}.cls-11{fill:url(#linear-gradient-10);}.cls-12{fill:url(#linear-gradient-11);}.cls-13{fill:url(#linear-gradient-12);}.cls-14{fill:url(#linear-gradient-13);}.cls-15{fill:#d68c00;}.cls-16{fill:#fff280;}.cls-17{fill:#d9dee1;}.cls-18{fill:url(#linear-gradient-14);}.cls-19{fill:url(#linear-gradient-15);}.cls-20{fill:url(#linear-gradient-16);}</style><linearGradient id="linear-gradient" x1="186.86" y1="61.58" x2="186.86" y2="166.76" gradientUnits="userSpaceOnUse"><stop offset="0" stop-color="#ffdb00"/><stop offset="1" stop-color="#e8a300"/></linearGradient><linearGradient id="linear-gradient-2" x1="164.86" y1="21.37" x2="164.86" y2="209.49" xlink:href="#linear-gradient"/><linearGradient id="linear-gradient-3" x1="208.85" y1="21.37" x2="208.85" y2="209.48" xlink:href="#linear-gradient"/><linearGradient id="linear-gradient-4" x1="126.78" y1="21.37" x2="126.78" y2="209.49" xlink:href="#linear-gradient"/><linearGradient id="linear-gradient-5" x1="246.94" y1="21.37" x2="246.94" y2="209.49" xlink:href="#linear-gradient"/><linearGradient id="linear-gradient-6" x1="268.95" y1="21.38" x2="268.95" y2="209.48" xlink:href="#linear-gradient"/><linearGradient id="linear-gradient-7" x1="208.85" y1="21.37" x2="208.85" y2="209.49" xlink:href="#linear-gradient"/><linearGradient id="linear-gradient-8" x1="164.86" y1="21.36" x2="164.86" y2="209.49" xlink:href="#linear-gradient"/><linearGradient id="linear-gradient-9" x1="268.95" y1="21.37" x2="268.95" y2="209.48" xlink:href="#linear-gradient"/><linearGradient id="linear-gradient-10" x1="246.94" y1="21.38" x2="246.94" y2="209.49" xlink:href="#linear-gradient"/><linearGradient id="linear-gradient-11" x1="104.77" y1="21.38" x2="104.77" y2="209.48" xlink:href="#linear-gradient"/><linearGradient id="linear-gradient-12" x1="104.77" y1="21.38" x2="104.77" y2="209.48" xlink:href="#linear-gradient"/><linearGradient id="linear-gradient-13" x1="126.78" y1="21.38" x2="126.78" y2="209.49" xlink:href="#linear-gradient"/><linearGradient id="linear-gradient-14" x1="-96.69" y1="289.17" x2="-96.69" y2="367.83" gradientTransform="translate(208.76 -144.48) rotate(1.39)" gradientUnits="userSpaceOnUse"><stop offset="0" stop-color="#fff"/><stop offset="1" stop-color="#c7c7c7"/></linearGradient><linearGradient id="linear-gradient-15" x1="-93.33" y1="304.99" x2="-92.33" y2="361.42" xlink:href="#linear-gradient-14"/><linearGradient id="linear-gradient-16" x1="103.05" y1="189.75" x2="103.05" y2="220.88" gradientUnits="userSpaceOnUse"><stop offset="0" stop-color="#dfdfdf"/><stop offset="1" stop-color="#a8a8a8"/></linearGradient></defs><title>Ресурс 5weather2</title><g id="Слой_2" data-name="Слой 2"><g id="icons"><path class="cls-1" d="M298.85,82.74a22.18,22.18,0,0,0-27.16-15.69L261.07,69.9l7.75-7.75a22.18,22.18,0,1,0-31.36-31.37l-7.76,7.76,2.84-10.62A22.18,22.18,0,0,0,189.7,16.44l-2.84,10.61L184,16.44a22.18,22.18,0,0,0-42.85,11.48L144,38.54l-7.76-7.76a22.18,22.18,0,1,0-31.37,31.36l7.76,7.76L102,67.06a22.16,22.16,0,0,0-26.64,28.8q-1.84,1-3.58,2.14a47.87,47.87,0,0,0-11,9.89h-.23A35.2,35.2,0,0,0,29.33,127a33.15,33.15,0,0,0-2.58,6.94,45,45,0,0,0-7.84,5.18,52.88,52.88,0,0,0-15.23,21A49.17,49.17,0,0,0,.54,185.78a43.58,43.58,0,0,0,14,25.83c8.23,7.47,20.26,13.25,35.74,17.16,13.94,3.79,30.85,5.95,50.26,6.41,2.26.05,4.54.08,6.79.08h0c16.85,0,31.89-1.5,44.7-4.46,16.73-3.56,29.93-9.45,39.34-17.53a22.17,22.17,0,0,0,41.21-15.71L229.7,187l7.76,7.76a22.18,22.18,0,1,0,31.37-31.36l-7.76-7.76,10.58,2.84a22.18,22.18,0,1,0,11.51-42.84l-10.61-2.84,10.61-2.84A22.21,22.21,0,0,0,298.85,82.74Z"/><circle class="cls-2" cx="186.86" cy="112.75" r="62.62"/><path class="cls-3" d="M167.13,46.32A7.18,7.18,0,0,1,160.2,41l-4.54-17a7.18,7.18,0,1,1,13.87-3.71l4.54,17a7.19,7.19,0,0,1-6.94,9Z"/><path class="cls-4" d="M206.59,46.32a7.18,7.18,0,0,1-6.94-9l4.54-17A7.18,7.18,0,1,1,218.06,24l-4.54,17a7.18,7.18,0,0,1-6.93,5.32Z"/><path class="cls-5" d="M133,66.05a7.15,7.15,0,0,1-5.08-2.1L115.5,51.54a7.18,7.18,0,0,1,10.15-10.15L138.06,53.8A7.18,7.18,0,0,1,133,66.05Z"/><path class="cls-6" d="M240.73,66.05a7.18,7.18,0,0,1-5.08-12.26l12.41-12.41a7.18,7.18,0,1,1,10.15,10.15L245.81,63.95a7.16,7.16,0,0,1-5.08,2.1Z"/><path class="cls-7" d="M260.46,100.21a7.18,7.18,0,0,1-1.85-14.12l17-4.54a7.18,7.18,0,0,1,3.71,13.87l-17,4.54a7.13,7.13,0,0,1-1.86.25Z"/><path class="cls-8" d="M211.12,210.5a7.18,7.18,0,0,1-6.93-5.32l-4.54-17a7.18,7.18,0,1,1,13.87-3.71l4.54,17a7.18,7.18,0,0,1-6.94,9Z"/><path class="cls-9" d="M162.6,210.5a7.18,7.18,0,0,1-6.94-9l4.54-17a7.18,7.18,0,1,1,13.87,3.71l-4.54,17a7.18,7.18,0,0,1-6.93,5.32Z"/><path class="cls-10" d="M277.43,144.2a7.14,7.14,0,0,1-1.86-.25l-17-4.54a7.18,7.18,0,0,1,3.72-13.87l17,4.54a7.18,7.18,0,0,1-1.85,14.12Z"/><path class="cls-11" d="M253.15,186.21a7.15,7.15,0,0,1-5.08-2.1L235.66,171.7a7.18,7.18,0,1,1,10.15-10.15L258.22,174a7.18,7.18,0,0,1-5.08,12.26Z"/><path class="cls-12" d="M96.29,144.2a7.18,7.18,0,0,1-1.85-14.12l17-4.54a7.18,7.18,0,0,1,3.72,13.87l-17,4.54a7.22,7.22,0,0,1-1.86.25Z"/><path class="cls-13" d="M113.26,100.21a7.14,7.14,0,0,1-1.86-.25l-17-4.54a7.18,7.18,0,0,1,3.72-13.87l17,4.54a7.18,7.18,0,0,1-1.85,14.12Z"/><path class="cls-14" d="M120.57,186.21A7.18,7.18,0,0,1,115.5,174l12.41-12.41a7.18,7.18,0,1,1,10.15,10.15l-12.41,12.42a7.16,7.16,0,0,1-5.08,2.1Z"/><path class="cls-15" d="M187.27,170c-24.78,0-45.27-17.23-53.6-31.83,6.31,17.23,28.83,35.18,53.6,35.18s47.3-17.95,53.6-35.18C232.54,152.8,212,170,187.27,170Z"/><path class="cls-16" d="M187.27,57.3c-24.78,0-45.27,15.34-53.6,29.94C140,70,162.49,52.06,187.27,52.06s47.3,17.95,53.6,35.18C232.54,72.64,212,57.3,187.27,57.3Z"/><path class="cls-17" d="M100.88,219.89c-36.4-.88-63.49-7.76-76.29-19.38a28.74,28.74,0,0,1-9.23-17,34.19,34.19,0,0,1,2.25-17.87,37.63,37.63,0,0,1,10.8-14.95,27.11,27.11,0,0,1,12.67-6,17.38,17.38,0,0,1,1.65-11,20,20,0,0,1,18.39-10.8,21.06,21.06,0,0,1,7.18,1.46A30.9,30.9,0,0,1,80,110.54,42.17,42.17,0,0,1,104,104a48.11,48.11,0,0,1,26.25,8.91,38.23,38.23,0,0,1,14.48,19.29c1.92-.13,3.81-.17,5.65-.13,11.85.29,22.09,4.16,29.62,11.2,7.7,7.2,12.31,17.52,13.32,29.84.84,10.16-2.16,18.94-8.9,26.09-18.26,19.35-60.2,21.29-83.57,20.73Z"/><path class="cls-18" d="M103.87,110.55c15.9.38,34,11.61,36.81,29.75,26.19-3.77,45.23,10,47.34,37,2.86,36.6-48.09,43.81-87.15,42.86S38.33,211.28,28,201.53c-19.46-18.38,1-54.1,21.22-48.21C38.51,139,56.9,122.21,71.47,134.59,73.58,118.81,89,110.19,103.87,110.55Z"/><path class="cls-17" d="M107.86,208.74c-8.79-.21-37.13-2.49-50.33-17.63-8.06-9.26-6.88-20.24.69-28.72,6.52-7.31,14.39-7.4,19.8-7.27a30.6,30.6,0,0,1,8.44,1.38,15.55,15.55,0,0,1,3.14-7.34c4-5.15,11.1-8.41,18.65-8.49h1.51a31.81,31.81,0,0,1,17.13,5,21.57,21.57,0,0,1,8.77,12,38.43,38.43,0,0,1,4-.11c8.71.21,19.54,3.45,23.8,11.91s.3,23.33-12.12,32.52C141.06,209.54,107.86,208.74,107.86,208.74Z"/><path class="cls-19" d="M157.73,199.57c-8.18,15.06-24.84,18.91-40.28,18.81-16.31-.1-35.62-1-50-9.67-9.1-5.47-17.05-21.37-11.62-33.46,5.52-12.29,22.8-16.64,34.7-9.52-2.63-10.71,7.46-18.11,17.75-18.24,11.7-.15,22.49,5.2,24.21,17.73,8.77-1.7,22.53.62,26.91,9.68C163.46,183.4,162,191.7,157.73,199.57Z"/><path class="cls-20" d="M103.58,186.67c-34,0-75-2.4-75,7.53s28.72,24,74.6,24,74.25-13.35,74.25-21.22S129.85,186.67,103.58,186.67Z"/><path class="cls-17" d="M83.17,125c14.78-.49,24.41,7.44,23,19.72C103.67,136.14,96,133,83.91,132.27S64.53,138,62.58,143.89C62.2,132.5,72.48,125.31,83.17,125Z"/></g></g></svg>