<svg xmlns="http://www.w3.org/2000/svg" xmlns:xlink="http://www.w3.org/1999/xlink" viewBox="0 0 225.82 194.71"><defs><style>.cls-1{fill:#fff;}.cls-2{fill:url(#linear-gradient);}.cls-3{fill:#ffb2a5;}.cls-4{fill:#961404;}</style><linearGradient id="linear-gradient" x1="108.64" y1="33.81" x2="114.21" y2="189.49" gradientUnits="userSpaceOnUse"><stop offset="0" stop-color="#ff5b3f"/><stop offset="1" stop-color="#bf2200"/></linearGradient></defs><title>Ресурс 27weather2</title><g id="Слой_2" data-name="Слой 2"><g id="icons"><path class="cls-1" d="M52.16,190.62c17,2.63,38.59,4.08,60.74,4.08s43.73-1.45,60.75-4.08c22.73-3.52,37.39-9,44.81-16.75,10.38-10.85,9.78-29.32-1.82-56.48-9.83-23-27.41-51.53-45.89-74.47C147.47,14,128.55,0,112.91,0S78.34,14,55.07,42.93C36.59,65.87,19,94.4,9.18,117.4-2.42,144.55-3,163,7.36,173.87,14.77,181.63,29.43,187.11,52.16,190.62Z"/><path class="cls-2" d="M18.2,163.51C-2.47,141.9,81.34,15,112.91,15s115.38,126.9,94.71,148.51S38.86,185.11,18.2,163.51Z"/><path class="cls-1" d="M102.8,112.1a7.86,7.86,0,0,0,3,6,10.29,10.29,0,0,0,6.67,2.29,11.49,11.49,0,0,0,7-2.17,7.57,7.57,0,0,0,3.39-6.15l2.84-43.9Q126.08,61,122.58,57A12.35,12.35,0,0,0,113,53q-6.34,0-9.73,3.86-3.5,4.1-3.06,11.46Z"/><path class="cls-1" d="M121.74,134.29a12,12,0,0,0-8.88-3.74,11.88,11.88,0,0,0-8.78,3.63,12.26,12.26,0,0,0-3.69,8.92,12.52,12.52,0,0,0,12.48,12.55,12.5,12.5,0,0,0,12.57-12.55A11.9,11.9,0,0,0,121.74,134.29Z"/><path class="cls-3" d="M112.91,21.32c-9.12,0-27.42,16.46-34.46,26.71,9.57-6.52,27-20.19,34.46-20.19S137.8,41.51,147.37,48C140.33,37.79,122,21.32,112.91,21.32Z"/><path class="cls-4" d="M112.91,167c-23.26,0-69.94-.93-88.24-4,19.71,10.25,65.32,12.12,88.24,12.12s68.53-1.86,88.24-12.12C182.85,166.07,136.17,167,112.91,167Z"/></g></g></svg>