<svg xmlns="http://www.w3.org/2000/svg" xmlns:xlink="http://www.w3.org/1999/xlink" viewBox="0 0 258.08 218.24"><defs><style>.cls-1{fill:#fff;}.cls-2{fill:url(#linear-gradient);}.cls-3{fill:url(#linear-gradient-2);}.cls-4{fill:url(#linear-gradient-3);}.cls-5{fill:url(#linear-gradient-4);}.cls-6{fill:url(#linear-gradient-5);}.cls-7{fill:url(#linear-gradient-6);}.cls-8{fill:url(#linear-gradient-7);}.cls-9{fill:url(#linear-gradient-8);}.cls-10{fill:url(#linear-gradient-9);}.cls-11{fill:#d9dee1;}.cls-12{fill:url(#linear-gradient-10);}.cls-13{fill:url(#linear-gradient-11);}.cls-14{fill:url(#linear-gradient-12);}</style><linearGradient id="linear-gradient" x1="151.34" y1="30.18" x2="151.34" y2="169.56" gradientUnits="userSpaceOnUse"><stop offset="0" stop-color="#ffdb00"/><stop offset="1" stop-color="#e8a300"/></linearGradient><linearGradient id="linear-gradient-2" x1="-9722.84" y1="54.4" x2="-9722.84" y2="45.31" gradientTransform="matrix(-1, 0, 0, 1, -9533.39, 0)" gradientUnits="userSpaceOnUse"><stop offset="0" stop-color="#ffdb00"/><stop offset="1" stop-color="#f7bd1f"/></linearGradient><linearGradient id="linear-gradient-3" x1="-9752.99" y1="98.16" x2="-9752.65" y2="77.33" gradientTransform="matrix(-1, 0, 0, 1, -9533.39, 0)" xlink:href="#linear-gradient"/><linearGradient id="linear-gradient-4" x1="13261.52" y1="41.03" x2="13261.52" y2="25.59" gradientTransform="translate(-13130.29)" xlink:href="#linear-gradient-2"/><linearGradient id="linear-gradient-5" x1="9795.49" y1="-2707.27" x2="9795.99" y2="-2738.51" gradientTransform="matrix(1.28, 0.32, -0.25, 0.97, -13142.52, -472.78)" xlink:href="#linear-gradient-2"/><linearGradient id="linear-gradient-6" x1="-9754.64" y1="136" x2="-9755.65" y2="122.72" gradientTransform="matrix(-1, 0, 0, 1, -9533.39, 0)" xlink:href="#linear-gradient"/><linearGradient id="linear-gradient-7" x1="-9713.7" y1="131.75" x2="-9712.74" y2="107.6" gradientTransform="matrix(-1, 0, 0, 1, -9533.39, 0)" xlink:href="#linear-gradient"/><linearGradient id="linear-gradient-8" x1="-9689.03" y1="135.17" x2="-9689.03" y2="125.08" gradientTransform="matrix(-1, 0, 0, 1, -9533.39, 0)" xlink:href="#linear-gradient"/><linearGradient id="linear-gradient-9" x1="-9617.62" y1="147.05" x2="-9617.62" y2="125.03" gradientTransform="matrix(-1, 0, 0, 1, -9533.39, 0)" xlink:href="#linear-gradient"/><linearGradient id="linear-gradient-10" x1="-95.94" y1="279.24" x2="-95.94" y2="343.11" gradientTransform="translate(190.82 -136.93) rotate(1.39)" gradientUnits="userSpaceOnUse"><stop offset="0" stop-color="#fff"/><stop offset="1" stop-color="#c7c7c7"/></linearGradient><linearGradient id="linear-gradient-11" x1="-93.21" y1="292.08" x2="-92.4" y2="337.9" xlink:href="#linear-gradient-10"/><linearGradient id="linear-gradient-12" x1="86.49" y1="178.45" x2="86.49" y2="203.74" gradientUnits="userSpaceOnUse"><stop offset="0" stop-color="#dfdfdf"/><stop offset="1" stop-color="#a8a8a8"/></linearGradient></defs><title>Ресурс 12weather2</title><g id="Слой_2" data-name="Слой 2"><g id="icons"><path class="cls-1" d="M225.88,24.75C206.93,8.79,180.46,0,151.34,0,120,0,93.3,9.18,74.21,26.55,54.84,44.17,44.6,68.87,44.6,98a119.13,119.13,0,0,0,.59,11.95A31.29,31.29,0,0,0,24.11,126.2a29.88,29.88,0,0,0-2,5,39.44,39.44,0,0,0-5.75,3.93A45.77,45.77,0,0,0,3.19,153.29,42.73,42.73,0,0,0,.47,175.67,38.19,38.19,0,0,0,12.7,198.3c7,6.38,17.19,11.28,30.2,14.57,11.54,3.13,25.48,4.92,41.45,5.3,1.85,0,3.73.07,5.58.07h0a165.8,165.8,0,0,0,36.9-3.69c16.21-3.45,28.54-9.56,36.65-18.16q.48-.51.94-1c25.14-2.29,47-11.2,63.45-25.9,19.75-17.66,30.2-42.38,30.2-71.49C258.08,67.83,246.94,42.51,225.88,24.75Z"/><path class="cls-2" d="M243.08,98c0,54-41.07,83-91.74,83S59.6,153.36,59.6,98s41.07-83,91.74-83S243.08,43.94,243.08,98Z"/><path class="cls-3" d="M188,53.89c-5.51-.75-9-8-1.88-9,3.26-.43,10.52,1.22,10.71,5.46C197,54.07,191.12,54.32,188,53.89Z"/><path class="cls-4" d="M215.09,96.41c-2.74-3.78-3.54-10.34-2.32-16.35.95-4.64,3.1-5.41,5.51-5.47,4.62-.12,9.39,5.32,8.12,15.61C225.38,98.44,218.39,101,215.09,96.41Z"/><path class="cls-5" d="M133.72,40.17c9.35-1.28,15.33-13.66,3.2-15.26-5.53-.73-17.87,2.08-18.17,9.27C118.48,40.47,128.39,40.9,133.72,40.17Z"/><path class="cls-6" d="M98.06,85c6.67-4.16,10.63-13.31,10.49-22.65-.11-7.21-4-9.37-8.58-10.63-8.85-2.42-20,3.16-21.37,18.74C77.53,82.94,90,90,98.06,85Z"/><path class="cls-7" d="M221.3,135.79c-9,2.93-1.34-19.35,4.34-11.95C227.87,126.75,224.47,134.76,221.3,135.79Z"/><path class="cls-8" d="M177.38,133.32c-12.08-.06-20.31-16.28-9.52-23.72,8.76-6,22.49-8.71,27.47,3.24C200.9,126.16,189.2,133.38,177.38,133.32Z"/><path class="cls-9" d="M154.89,134.51c-11.37-1.13-.4-15.48,5.39-8.11C163.44,130.43,159.07,134.92,154.89,134.51Z"/><path class="cls-10" d="M81.48,127.85c4.38,2.74,13.94,12,11.73,17.81-3.82,10.1-20.49-11.24-18.07-17.27C76.27,125.62,79.57,126.65,81.48,127.85Z"/><path class="cls-11" d="M84.73,202.93c-29.55-.71-51.55-6.3-61.94-15.74a23.33,23.33,0,0,1-7.49-13.82,27.73,27.73,0,0,1,1.82-14.5,30.53,30.53,0,0,1,8.77-12.14,22,22,0,0,1,10.29-4.85,14.12,14.12,0,0,1,1.34-8.94,16.25,16.25,0,0,1,14.93-8.77,17.15,17.15,0,0,1,5.83,1.18,25.09,25.09,0,0,1,9.54-11.21,34.25,34.25,0,0,1,19.48-5.34A39.07,39.07,0,0,1,108.6,116a31,31,0,0,1,11.76,15.66c1.56-.1,3.1-.14,4.59-.1,9.62.23,17.94,3.38,24,9.09s10,14.23,10.82,24.23a26.46,26.46,0,0,1-7.23,21.18c-14.83,15.71-48.88,17.29-67.86,16.83Z"/><path class="cls-12" d="M87.16,114.15c12.91.31,27.57,9.43,29.89,24.16,21.27-3.06,36.72,8.12,38.44,30.07,2.32,29.72-39,35.57-70.76,34.8S33.95,195.94,25.56,188c-15.8-14.92.78-43.92,17.23-39.14-8.71-11.6,6.23-25.26,18.05-15.21C62.56,120.86,75.09,113.86,87.16,114.15Z"/><path class="cls-11" d="M90.4,193.88c-7.14-.17-30.15-2-40.87-14.32-6.55-7.51-5.59-16.43.56-23.32,5.29-5.93,11.68-6,16.07-5.9A24.91,24.91,0,0,1,73,151.46a12.59,12.59,0,0,1,2.55-6c3.21-4.18,9-6.82,15.15-6.9H92a25.83,25.83,0,0,1,13.91,4,17.5,17.5,0,0,1,7.12,9.74,31.22,31.22,0,0,1,3.21-.09c7.07.17,15.86,2.8,19.32,9.67s.25,18.95-9.84,26.4C117.35,194.53,90.4,193.88,90.4,193.88Z"/><path class="cls-13" d="M130.89,186.43c-6.64,12.23-20.17,15.35-32.7,15.27-13.25-.08-28.92-.8-40.64-7.85-7.39-4.44-13.84-17.35-9.43-27.17,4.49-10,18.51-13.51,28.17-7.73-2.13-8.7,6.06-14.7,14.41-14.81,9.5-.12,18.26,4.22,19.65,14.4,7.12-1.38,18.3.5,21.85,7.86C135.54,173.31,134.36,180,130.89,186.43Z"/><path class="cls-14" d="M86.92,176c-27.58,0-60.86-1.94-60.86,6.11s23.32,19.45,60.57,19.45,60.29-10.84,60.29-17.23S108.25,176,86.92,176Z"/><path class="cls-11" d="M70.35,125.84c12-.4,19.82,6,18.69,16-2-6.93-8.27-9.51-18.08-10.07s-15.74,4.66-17.32,9.43C53.32,132,61.67,126.13,70.35,125.84Z"/></g></g></svg>