<svg xmlns="http://www.w3.org/2000/svg" xmlns:xlink="http://www.w3.org/1999/xlink" viewBox="0 0 111.55 220.06"><defs><style>.cls-1{fill:#fff;}.cls-2{fill:url(#linear-gradient);}.cls-3{fill:url(#linear-gradient-2);}.cls-4{fill:url(#linear-gradient-3);}.cls-5{fill:url(#linear-gradient-4);}.cls-6{fill:#d0ac87;}.cls-7{fill:url(#linear-gradient-5);}.cls-8{fill:url(#linear-gradient-6);}.cls-9{fill:url(#linear-gradient-7);}.cls-10{fill:url(#linear-gradient-8);}.cls-11{fill:url(#linear-gradient-9);}.cls-12{fill:url(#linear-gradient-10);}.cls-13{fill:url(#linear-gradient-11);}</style><linearGradient id="linear-gradient" x1="49.57" y1="43.96" x2="49.57" y2="276.36" gradientUnits="userSpaceOnUse"><stop offset="0" stop-color="#b47c40"/><stop offset="1" stop-color="#855e30"/></linearGradient><linearGradient id="linear-gradient-2" x1="49.57" y1="169.89" x2="49.57" y2="183.69" gradientUnits="userSpaceOnUse"><stop offset="0" stop-color="#7a4f27"/><stop offset="1" stop-color="#7a4f1d"/></linearGradient><linearGradient id="linear-gradient-3" x1="43.76" y1="47.69" x2="44.76" y2="75.58" xlink:href="#linear-gradient-2"/><linearGradient id="linear-gradient-4" x1="55.07" y1="41.53" x2="56.01" y2="67.81" xlink:href="#linear-gradient-2"/><linearGradient id="linear-gradient-5" x1="54.79" y1="63.27" x2="57.35" y2="82.12" gradientUnits="userSpaceOnUse"><stop offset="0" stop-color="#afafaf"/><stop offset="1" stop-color="#526262"/></linearGradient><linearGradient id="linear-gradient-6" x1="423.08" y1="881.59" x2="424.1" y2="909.97" gradientTransform="translate(-554.67 -733.92) rotate(-11.23)" gradientUnits="userSpaceOnUse"><stop offset="0" stop-color="#cacaca"/><stop offset="1" stop-color="#9d9d9d"/></linearGradient><linearGradient id="linear-gradient-7" x1="-361.57" y1="-547.89" x2="-316.58" y2="-519.49" gradientTransform="translate(326.42 631.46) rotate(8.8)" xlink:href="#linear-gradient-6"/><linearGradient id="linear-gradient-8" x1="55.79" y1="93.38" x2="56.24" y2="176.6" gradientUnits="userSpaceOnUse"><stop offset="0" stop-color="#ff5b3f"/><stop offset="1" stop-color="#bf2200"/></linearGradient><linearGradient id="linear-gradient-9" x1="50.4" y1="157.66" x2="50.4" y2="181.08" gradientUnits="userSpaceOnUse"><stop offset="0" stop-color="#f0f0f0"/><stop offset="1" stop-color="#cacaca"/></linearGradient><linearGradient id="linear-gradient-10" x1="57.92" y1="135.03" x2="57.92" y2="156.66" xlink:href="#linear-gradient-9"/><linearGradient id="linear-gradient-11" x1="58.66" y1="95.74" x2="58.66" y2="123.46" xlink:href="#linear-gradient-9"/></defs><title>Ресурс 30weather2</title><g id="Слой_2" data-name="Слой 2"><g id="icons"><path class="cls-1" d="M49.57,0a28.43,28.43,0,0,0-28.4,28.4V44A128.29,128.29,0,0,0,6.93,60.17C.06,65.56-.9,72.92.62,78.27a20.14,20.14,0,0,0,1,2.64c2.14,6.71,3.87,12.61,5.28,18,.36,1.37.7,2.73,1,4.1l.12.49c.33,1.35.64,2.7.91,3.93l0,.19c.61,2.81,1.14,5.54,1.58,8.12l0,.21a117.9,117.9,0,0,1,1.64,16c.09,2.92,0,5.83-.14,8.61l0,.4c-.06.9-.14,1.81-.23,2.7-.25,2.44-.62,4.9-1.09,7.33-.17.86-.35,1.73-.55,2.58l-.09.37c-.21.89-.42,1.77-.66,2.65-2.63,9.78,1.73,20,11.75,28.21v6.85a28.4,28.4,0,1,0,56.8,0,31.46,31.46,0,0,0,7.88-8c.42-.62.85-1.28,1.27-2l.43-.71c.27-.44.54-.88.82-1.37l.48-.85c.25-.44.5-.89.74-1.34l.88-1.66,3.31-6.49-.17-.17q2.31-5.28,4.47-11.43l.2-.58c.41-1.17.81-2.38,1.22-3.64l.36-1.12q.49-1.53,1-3.11l.33-1.09c.4-1.35.79-2.72,1.16-4.06l.06-.22c.41-1.48.81-3,1.19-4.51l2.15-8.12-.21-.1c1.11-5.09,2.07-10.25,2.88-15.45l.08-.54c.24-1.56.46-3.14.68-4.79l.19-1.51q.25-1.93.46-3.89l.17-1.53c.38-3.63.69-7.28.9-10.75l.67-9.76-.27,0c.11-5.45,0-10.82-.24-16.07a19.5,19.5,0,0,0,.1-3.25,16.49,16.49,0,0,0-.47-3.14l-1.37-23L98.43,45.55A187.22,187.22,0,0,0,78,29.63V28.4A28.43,28.43,0,0,0,49.57,0Z"/><path class="cls-2" d="M49.57,15a13.4,13.4,0,0,0-13.4,13.4V191.66a13.4,13.4,0,1,0,26.8,0V28.4A13.4,13.4,0,0,0,49.57,15Z"/><path class="cls-3" d="M36.17,182.87c0,6.5,12.16,10.57,17.95,11.05S63,193.2,63,190.33V170H36.17Z"/><path class="cls-4" d="M52.23,46.85c-1.06,3.82-5.4,23.4-6.44,26s-9.62,0-9.62,0V62.9l9.62-18.62Z"/><path class="cls-5" d="M47.19,38.66C48.91,41,53.54,60.4,55.25,64c2.3,4.81,7.72,0,7.72,0V44.72Z"/><path class="cls-6" d="M49.5,16.84c-7.52,0-11.35,6-11.73,11,1.4-3.85,7.35-6.54,11.73-6.54S59.83,24,61.22,27.85C60.85,22.82,57.93,16.84,49.5,16.84Z"/><path class="cls-7" d="M96.17,64.37C96,60.3,78.84,60.24,56.44,62.94S13.8,69.77,15.05,74.18c2,7.18,20.1,11.19,42.5,8.48S96.57,71.83,96.17,64.37Z"/><path class="cls-8" d="M50.91,42.88a4.79,4.79,0,0,0-5.85-.78,4.92,4.92,0,0,0-.92.7l-2.7,2.62C32.55,54,26.15,59.14,17.93,70.54a4.79,4.79,0,0,0,7.76,5.6C33.13,65.82,39.56,60.56,48.1,52.3l2.74-2.65A4.79,4.79,0,0,0,50.91,42.88Z"/><path class="cls-9" d="M52.15,30.76a4.72,4.72,0,0,1,1,.51l3.16,2C66.75,40,84.16,51.25,93.43,61.83a4.79,4.79,0,1,1-7.2,6.31C77.84,58.57,61.14,47.8,51.16,41.36L48,39.29a4.79,4.79,0,0,1,4.19-8.53Z"/><path class="cls-10" d="M96,66.12c-8.16,6.18-67.51,11-80.93,7.68,11,34,16,60.07,8.85,86.7C20.3,173.88,60.61,194,73.46,175.22,84.18,159.52,98.8,113.63,96,66.12Z"/><path class="cls-11" d="M25.44,153.87v0c-.43,2.22-.94,4.44-1.54,6.66C20.3,173.88,60.61,194,73.46,175.22A59.64,59.64,0,0,0,77.12,169h0C63.72,178.39,25.69,163.64,25.44,153.87Z"/><path class="cls-12" d="M27.22,132.42c0-.3,0-.61,0-.92a103.89,103.89,0,0,1-.47,13.69v0c-.43,14.2,52.91,17.21,57.29,7.27,1.81-5.19,3.54-10.95,5.11-17.14-.13.3-.26.61-.39.93C81.29,154.41,27.07,140.87,27.22,132.42Z"/><path class="cls-13" d="M95.95,91.22c-3.19,16.39-70.52,16.46-74.58,3.9,1.64,6.27,3,12.29,4,18.13v0c4,18.15,65.55,14.6,68.28-.06,1.09-7.07,1.9-14.44,2.35-22Z"/></g></g></svg>