<svg xmlns="http://www.w3.org/2000/svg" xmlns:xlink="http://www.w3.org/1999/xlink" viewBox="0 0 235 222.2"><defs><style>.cls-1{fill:#fff;}.cls-2{fill:url(#radial-gradient);}.cls-3{fill:#e4e4e4;}.cls-4{fill:url(#radial-gradient-2);}.cls-5{fill:url(#radial-gradient-3);}.cls-6{fill:url(#radial-gradient-4);}.cls-7{fill:url(#radial-gradient-5);}.cls-8{fill:url(#radial-gradient-6);}.cls-9{fill:url(#linear-gradient);}.cls-10{fill:url(#radial-gradient-7);}.cls-11{fill:url(#radial-gradient-8);}.cls-12{fill:#cbcbcb;}.cls-13{fill:#ffb2a5;}.cls-14{fill:#961404;}</style><radialGradient id="radial-gradient" cx="117.52" cy="110.32" r="98.99" gradientUnits="userSpaceOnUse"><stop offset="0" stop-color="#ebebeb"/><stop offset="1" stop-color="#c7c7c7"/></radialGradient><radialGradient id="radial-gradient-2" cx="158.13" cy="172.63" r="35.95" xlink:href="#radial-gradient"/><radialGradient id="radial-gradient-3" cx="145.25" cy="155.85" r="21.07" xlink:href="#radial-gradient"/><radialGradient id="radial-gradient-4" cx="141.3" cy="151.99" r="6.47" xlink:href="#radial-gradient"/><radialGradient id="radial-gradient-5" cx="149.04" cy="159.22" r="26.06" xlink:href="#radial-gradient"/><radialGradient id="radial-gradient-6" cx="183.01" cy="164.5" r="10.43" xlink:href="#radial-gradient"/><linearGradient id="linear-gradient" x1="162.25" y1="146.91" x2="164.55" y2="211.25" gradientUnits="userSpaceOnUse"><stop offset="0" stop-color="#ff5b3f"/><stop offset="1" stop-color="#bf2200"/></linearGradient><radialGradient id="radial-gradient-7" cx="117.52" cy="110.32" r="98.99" gradientUnits="userSpaceOnUse"><stop offset="0" stop-color="#cacaca"/><stop offset="1" stop-color="#a6a6a6"/></radialGradient><radialGradient id="radial-gradient-8" cx="117.52" cy="110.32" r="98.99" xlink:href="#radial-gradient-7"/></defs><title>Ресурс 9weather2</title><g id="Слой_2" data-name="Слой 2"><g id="icons"><path class="cls-1" d="M5.05,79.12C0,85.45-.78,94.91.62,101c.87,3.79,2.75,7.67,5.75,12.61-8.09,15.45,4.81,32.36,11.78,41.48h0a18.52,18.52,0,0,0-2.21,10.47c.93,11.34,11.66,19.21,18,22.89a83.43,83.43,0,0,0,9.32,4.63c.1.32.2.62.3.91,4,11,16.74,13.43,22.19,14.45l.37.07A138.58,138.58,0,0,0,87.38,211c3.65,5,11.2,9.6,26.62,9.6,1.63,0,3.23-.07,4.83-.2l.45.31,6.21-1.25,1.08-.24.3-.07c.58-.13,1.15-.26,1.71-.41l.44-.11c8.71,2.26,21.22,3.54,35,3.54,39.13,0,47.29-8.53,50-11.33,9.06-9.47,5-23.89.6-33.91,9.81-5.54,13.92-18.82,13.55-30.8,0-1.54-.06-3.22-.07-5V141c0-2,0-4.18-.09-6.42a17.8,17.8,0,0,0,5.06-6.47c4.47-9.6.35-23.51-3.11-30.68A18.28,18.28,0,0,0,232,93.8c1.94-4.59,3-12.2-3-22.36-3.57-6-8.83-11.21-16.24-16a18.1,18.1,0,0,0,0-5.29c-1.57-10.88-11.77-15.68-16.12-17.74l-.25-.12a65.5,65.5,0,0,0-14.64-4.77c-3.92-14.13-22.37-15.28-30.61-15.79L150,11.71c-2-.17-4-.25-6.06-.25-1.37,0-2.75,0-4.13.11C136.55,5.11,129.5,0,118.23,0a35.65,35.65,0,0,0-8.59,1c-7.78,2-14.26,5.78-20,9.84A19.66,19.66,0,0,0,79,7.78c-5.32,0-11,2-16.93,5.9a56.59,56.59,0,0,0-11,9.46,20.33,20.33,0,0,0-4-.39,22,22,0,0,0-5,.6C30,26.19,25.89,38.49,23.93,46.24c-3.34.9-7.17,3-10.73,7.63C7.85,60.79,7.06,69.16,7.65,76.44A19.08,19.08,0,0,0,5.05,79.12Z"/><path class="cls-2" d="M215.81,102.79c-3.85-6.63-9.86-12.47-14-18.63,2.94,1.31,10.58,6.7,13.5,6,5.66-1.36,2.52-8.13.78-11.07-7.19-12.14-26.8-18.65-39.16-23.83,3.76.62,16.28,3.27,19.25.62,5.33-4.74-2.84-8.4-6.21-10-11.23-5.31-26.15-5.79-38-5.18,2.35-.62,15.9-4.83,15.49-8.38-.59-5.1-15.09-5.39-18.66-5.68-12-1-22.81,1.89-34.15,5.48,2.67-1.88,12.5-8.07,12.25-12.09-.36-5.71-9.46-5.5-13.45-4.48-12.37,3.17-21.79,13.76-32,19.81,5.19-11.17.2-16.6-11-9.18-8.69,5.75-14.1,13.89-17.47,23.37-.94-3.94-.2-13.28-7.36-11.6-4.89,1.15-6.88,11.53-7.85,15.47-2.15,8.73-4,33-4,33-1.43-4.87-.2-34.21-8.6-23.36-7.33,9.47,3.2,31.67,3.69,42.61-3.28-4.1-6-17.92-8.81-18.44-4.6-.84-5.46,7.19-4.71,10.45,1.4,6.09,12.15,19.84,14.91,25.43-3.27-1-7.65-7.67-10.4-2.68-4.3,7.79,7.34,21.54,11.88,27.66,5.38,7.25,11.48,10.95,17,17-3.77-.09-12.45-7.2-16.19-4.1-5.75,4.77,5.87,12.71,9,14.55,7,4.1,19.16,8.86,28.48,8.75-3.88.24-10.61.75-11.5,1.82-4.38,5.24,8,7.24,10.52,7.73,12.55,2.45,27.12,3.39,39.5.55-1.55.94-9.46,4.07-9.42,6.35.08,4.61,12.13,4.92,15,4.92,14.82,0,24.89-7.37,37.77-13.46-2.92,2.91-11.88,6.33-7.72,10.92,2,2.16,9.74,1.63,17.07-3.81,8.21-6.09,16.89-16.29,22.13-24.18.85,4.91-5.67,10.39-3.64,14.45,2.71,5.44,9.87-2.46,11.84-5.64,5.4-8.73,6.57-19.55,7.94-29.62,1.82,3.24,1.63,11.43,6.66,10.08,5.28-1.42,7.32-11.19,7.12-17.75-.29-9.18.62-22.23-3.7-31.19,2.27,3.9,5,8.36,8.29,7.78C222.17,122.46,219.5,109.15,215.81,102.79ZM132.89,123.3c-10.73,11.89-37.86,10.54-40.71-8.14-1.66-10.86,5.53-18.06,15.3-19.74C125.15,92.38,150.17,104.17,132.89,123.3Z"/><path class="cls-3" d="M127,49.55c11.89-2.47,23.57-2.17,35.6-1.67-3.52-1.94-7.68-4.63-11.68-5.58C124,35.9,87,54.36,72.15,76.57c-10.39,15.52-12.58,46.27-2.34,62.28,10.42,16.31,41,27,59.7,22.34,10.88-2.72,17.07-8.86,18-19.73.53-6,0-17.4-8.91-15.4-1.17,7.25,2.45,14.52-4.22,20.22-5.75,4.91-17.43,3.76-24.58,3.42C92.45,148.89,75,141.65,73,123.51c-1.94-17.24-2.2-32.89,9-46.91C95.11,60,106.56,53.79,127,49.55Z"/><path class="cls-3" d="M172.91,118a138.91,138.91,0,0,0-6.71-14.58c-3.76-7.28-22.22-31-32.18-17.17-5.29,7.34,5,4.93,7.43,5.71a28.05,28.05,0,0,1,12.35,8.51c13.15,14.86,17.1,44.54,4.19,60.71-23.32,29.19-83.66,15.48-106.35-7.31C45.47,147.66,44,133.87,36,132c-1.55,10.4,14.16,27.27,21.35,33.29,14.18,11.88,35.75,16.05,54.13,18.1,29.08,3.23,55.88-7.83,64-37.87C178,136.11,176.25,126.87,172.91,118Z"/><path class="cls-3" d="M127,74.54c15-5.82,30.81.11,43.43,7.79C193.92,96.58,200,140.42,183.59,162c-3,4-10.3,8.7-10.53,13,26.38,6,28.08-56.91,23.66-71.18-4.72-15.25-12.28-28-27-34.6-13.92-6.2-33.24-11.89-47.79-4.5C116.74,67.33,105,77.55,109,84.37,114.85,94.2,122.32,76.38,127,74.54Z"/><path class="cls-3" d="M46.52,91.11a157.64,157.64,0,0,0,.33,17.33,25.79,25.79,0,0,0,1.2,7.33c.16.45,3.07,6,3.59,5.36,3.42-3.88,2.66-16.14,3.28-21.59a213.38,213.38,0,0,1,3.54-23.42c1.45-6.3,4.42-12.34,6.25-18.58.5-1.71,2.26-5.4,1.71-7.21-1-3.26-4.43-1.14-6.09.31-2.39,2.09-2.89,5-4.13,7.78-1.85,4.23-2.79,8.61-4.31,13-1.4,4-3.35,7.75-4.3,11.91A48.63,48.63,0,0,0,46.52,91.11Z"/><path class="cls-4" d="M173.06,175c.22-4.29,7.48-9,10.53-13a39.83,39.83,0,0,0,4.84-8.39c-.53-.69-1.07-1.37-1.61-2a85.76,85.76,0,0,0-10.41-11.09,35,35,0,0,1-1,5c-7.12,26.5-28.81,38.23-53.79,38.4-3.8,9.61-3.88,16.14-.26,19.92a10.33,10.33,0,0,0,1.1,1c10.51-2.11,19-7.76,29.25-12.61-2.92,2.91-11.88,6.33-7.72,10.92,2,2.16,9.74,1.63,17.07-3.81,8.21-6.09,16.89-16.29,22.13-24.18.85,4.91-5.67,10.39-3.64,14.45,2.71,5.44,9.87-2.46,11.84-5.64,3.21-5.19,4.92-11.12,6.07-17.19-1.44-2.33-3-4.66-4.55-6.94C189,170.21,182.66,177.17,173.06,175Z"/><path class="cls-5" d="M158,161.16c5.66-7.08,8.08-16.75,7.91-26.63a10.07,10.07,0,0,0-1.87-.18c-4.63,0-10.32,3.53-17,10.52a19.36,19.36,0,0,1-11.49,14.24,144.13,144.13,0,0,0-10.94,18.24C138,176,150.11,171,158,161.16Z"/><path class="cls-6" d="M147,144.87q-2.8,2.94-5.83,6.7c-1.93,2.39-3.83,4.93-5.66,7.54A19.36,19.36,0,0,0,147,144.87Z"/><path class="cls-7" d="M175.46,145.49a35,35,0,0,0,1-5q-5.87-5.06-10.53-5.94c.17,9.88-2.25,19.55-7.91,26.63C150.11,171,138,176,124.61,177.35c-.79,1.6-1.52,3.16-2.16,4.66-.27.64-.53,1.27-.77,1.89C146.64,183.72,168.34,172,175.46,145.49Z"/><path class="cls-8" d="M173.06,175c9.61,2.17,15.94-4.79,19.89-15.2-1.47-2.12-3-4.19-4.52-6.19a39.83,39.83,0,0,1-4.84,8.39C180.54,166,173.28,170.7,173.06,175Z"/><path class="cls-9" d="M124.87,200.51c-8.54-8.93,26.09-61.37,39.14-61.37s47.68,52.44,39.14,61.37S133.42,209.44,124.87,200.51Z"/><path class="cls-10" d="M173.06,175c.22-4.29,7.48-9,10.53-13a39.83,39.83,0,0,0,4.84-8.39c-.53-.69-1.07-1.37-1.61-2a85.76,85.76,0,0,0-10.41-11.09,35,35,0,0,1-1,5c-7.12,26.5-28.81,38.23-53.79,38.4-3.8,9.61-3.88,16.14-.26,19.92a10.33,10.33,0,0,0,1.1,1c10.51-2.11,19-7.76,29.25-12.61-2.92,2.91-11.88,6.33-7.72,10.92,2,2.16,9.74,1.63,17.07-3.81,8.21-6.09,16.89-16.29,22.13-24.18.85,4.91-5.67,10.39-3.64,14.45,2.71,5.44,9.87-2.46,11.84-5.64,3.21-5.19,4.92-11.12,6.07-17.19-1.44-2.33-3-4.66-4.55-6.94C189,170.21,182.66,177.17,173.06,175Z"/><path class="cls-11" d="M158,161.16c5.66-7.08,8.08-16.75,7.91-26.63a10.07,10.07,0,0,0-1.87-.18c-4.63,0-10.32,3.53-17,10.52a19.36,19.36,0,0,1-11.49,14.24,144.13,144.13,0,0,0-10.94,18.24C138,176,150.11,171,158,161.16Z"/><path class="cls-12" d="M147,144.87q-2.8,2.94-5.83,6.7c-1.93,2.39-3.83,4.93-5.66,7.54A19.36,19.36,0,0,0,147,144.87Z"/><path class="cls-12" d="M175.46,145.49a35,35,0,0,0,1-5q-5.87-5.06-10.53-5.94c.17,9.88-2.25,19.55-7.91,26.63C150.11,171,138,176,124.61,177.35c-.79,1.6-1.52,3.16-2.16,4.66-.27.64-.53,1.27-.77,1.89C146.64,183.72,168.34,172,175.46,145.49Z"/><path class="cls-12" d="M173.06,175c9.61,2.17,15.94-4.79,19.89-15.2-1.47-2.12-3-4.19-4.52-6.19a39.83,39.83,0,0,1-4.84,8.39C180.54,166,173.28,170.7,173.06,175Z"/><path class="cls-9" d="M124.87,200.51c-8.54-8.93,26.09-61.37,39.14-61.37s47.68,52.44,39.14,61.37S133.42,209.44,124.87,200.51Z"/><path class="cls-1" d="M159.84,179.26a3.25,3.25,0,0,0,1.22,2.49,4.25,4.25,0,0,0,2.75.95,4.75,4.75,0,0,0,2.89-.9,3.13,3.13,0,0,0,1.4-2.54l1.17-18.14a6.2,6.2,0,0,0-1.26-4.63,5.75,5.75,0,0,0-8,0,6.46,6.46,0,0,0-1.26,4.74Z"/><path class="cls-1" d="M167.66,188.44a5,5,0,0,0-3.67-1.55,4.91,4.91,0,0,0-3.63,1.5,5.06,5.06,0,0,0-1.53,3.68,5.18,5.18,0,0,0,5.16,5.19,5.17,5.17,0,0,0,5.2-5.19A4.92,4.92,0,0,0,167.66,188.44Z"/><path class="cls-13" d="M164,141.75c-3.77,0-11.33,6.8-14.24,11,4-2.7,11.15-8.34,14.24-8.34s10.28,5.65,14.24,8.34C175.35,148.55,167.78,141.75,164,141.75Z"/><path class="cls-14" d="M164,202c-9.61,0-28.9-.39-36.47-1.67,8.14,4.24,27,5,36.47,5s28.32-.77,36.47-5C192.92,201.57,173.63,202,164,202Z"/></g></g></svg>