<svg xmlns="http://www.w3.org/2000/svg" xmlns:xlink="http://www.w3.org/1999/xlink" viewBox="0 0 207.3 232.87"><defs><style>.cls-1{fill:#fff;}.cls-2{fill:url(#linear-gradient);}.cls-3{fill:url(#linear-gradient-2);}.cls-4{fill:url(#linear-gradient-3);}.cls-5{fill:url(#linear-gradient-4);}.cls-6{fill:url(#linear-gradient-5);}.cls-7{fill:url(#linear-gradient-6);}.cls-8{fill:url(#linear-gradient-7);}.cls-9{fill:url(#linear-gradient-8);}.cls-10{fill:url(#linear-gradient-9);}.cls-11{fill:url(#linear-gradient-10);}.cls-12{fill:url(#linear-gradient-11);}.cls-13{fill:url(#linear-gradient-12);}.cls-14{fill:url(#linear-gradient-13);}.cls-15{fill:url(#linear-gradient-14);}.cls-16{fill:url(#linear-gradient-15);}.cls-17{fill:url(#linear-gradient-16);}.cls-18{fill:url(#linear-gradient-17);}.cls-19{fill:url(#linear-gradient-19);}.cls-20{fill:url(#linear-gradient-20);}.cls-21{fill:url(#linear-gradient-21);}.cls-22{fill:url(#linear-gradient-22);}.cls-23{fill:url(#linear-gradient-23);}.cls-24{fill:url(#linear-gradient-24);}.cls-25{fill:url(#linear-gradient-25);}.cls-26{fill:url(#linear-gradient-26);}.cls-27{fill:url(#linear-gradient-27);}.cls-28{fill:url(#linear-gradient-28);}.cls-29{fill:url(#linear-gradient-29);}.cls-30{fill:url(#linear-gradient-30);}.cls-31{fill:url(#linear-gradient-31);}.cls-32{fill:url(#linear-gradient-32);}.cls-33{fill:url(#linear-gradient-33);}.cls-34{fill:url(#linear-gradient-34);}.cls-35{fill:url(#linear-gradient-35);}.cls-36{fill:url(#linear-gradient-36);}.cls-37{fill:url(#linear-gradient-37);}.cls-38{fill:url(#linear-gradient-38);}.cls-39{fill:url(#linear-gradient-39);}.cls-40{fill:url(#linear-gradient-40);}.cls-41{fill:url(#linear-gradient-41);}.cls-42{fill:url(#linear-gradient-42);}.cls-43{fill:url(#linear-gradient-43);}.cls-44{fill:url(#linear-gradient-44);}.cls-45{fill:url(#linear-gradient-45);}.cls-46{fill:url(#linear-gradient-46);}.cls-47{fill:url(#linear-gradient-47);}.cls-48{fill:url(#linear-gradient-48);}.cls-49{fill:url(#linear-gradient-49);}</style><linearGradient id="linear-gradient" x1="104.24" y1="30.4" x2="104.24" y2="212.79" gradientUnits="userSpaceOnUse"><stop offset="0" stop-color="#84d9ff"/><stop offset="1" stop-color="#2999f5"/></linearGradient><linearGradient id="linear-gradient-2" x1="103.06" y1="30.4" x2="103.06" y2="212.79" xlink:href="#linear-gradient"/><linearGradient id="linear-gradient-3" x1="114.85" y1="30.4" x2="114.85" y2="212.79" xlink:href="#linear-gradient"/><linearGradient id="linear-gradient-4" x1="91.27" y1="30.4" x2="91.27" y2="212.79" xlink:href="#linear-gradient"/><linearGradient id="linear-gradient-5" x1="48.11" y1="30.4" x2="48.11" y2="212.79" xlink:href="#linear-gradient"/><linearGradient id="linear-gradient-6" x1="52.66" y1="30.4" x2="52.66" y2="212.79" xlink:href="#linear-gradient"/><linearGradient id="linear-gradient-7" x1="40.88" y1="30.4" x2="40.88" y2="212.79" xlink:href="#linear-gradient"/><linearGradient id="linear-gradient-8" x1="48.11" y1="30.4" x2="48.11" y2="212.79" xlink:href="#linear-gradient"/><linearGradient id="linear-gradient-9" x1="40.88" y1="30.4" x2="40.88" y2="212.79" xlink:href="#linear-gradient"/><linearGradient id="linear-gradient-10" x1="52.66" y1="30.4" x2="52.66" y2="212.79" xlink:href="#linear-gradient"/><linearGradient id="linear-gradient-11" x1="104.24" y1="30.4" x2="104.24" y2="212.79" xlink:href="#linear-gradient"/><linearGradient id="linear-gradient-12" x1="92.46" y1="30.39" x2="92.46" y2="212.79" xlink:href="#linear-gradient"/><linearGradient id="linear-gradient-13" x1="116.03" y1="30.39" x2="116.03" y2="212.79" xlink:href="#linear-gradient"/><linearGradient id="linear-gradient-14" x1="159.19" y1="30.4" x2="159.19" y2="212.79" xlink:href="#linear-gradient"/><linearGradient id="linear-gradient-15" x1="154.64" y1="30.4" x2="154.64" y2="212.79" xlink:href="#linear-gradient"/><linearGradient id="linear-gradient-16" x1="166.43" y1="30.4" x2="166.43" y2="212.79" xlink:href="#linear-gradient"/><linearGradient id="linear-gradient-17" x1="159.19" y1="30.4" x2="159.19" y2="212.79" xlink:href="#linear-gradient"/><linearGradient id="linear-gradient-19" x1="154.64" y1="30.4" x2="154.64" y2="212.79" xlink:href="#linear-gradient"/><linearGradient id="linear-gradient-20" x1="103.13" y1="17.78" x2="103.13" y2="198.31" gradientUnits="userSpaceOnUse"><stop offset="0" stop-color="#e7f8ff"/><stop offset="1" stop-color="#73cdfd"/></linearGradient><linearGradient id="linear-gradient-21" x1="52.66" y1="17.78" x2="52.66" y2="198.31" xlink:href="#linear-gradient-20"/><linearGradient id="linear-gradient-22" x1="154.47" y1="17.78" x2="154.47" y2="198.31" xlink:href="#linear-gradient-20"/><linearGradient id="linear-gradient-23" x1="81.22" y1="17.79" x2="81.22" y2="198.29" xlink:href="#linear-gradient-20"/><linearGradient id="linear-gradient-24" x1="26.78" y1="17.78" x2="26.78" y2="198.31" xlink:href="#linear-gradient-20"/><linearGradient id="linear-gradient-25" x1="30.92" y1="17.78" x2="30.92" y2="198.31" xlink:href="#linear-gradient-20"/><linearGradient id="linear-gradient-26" x1="28.66" y1="17.78" x2="28.66" y2="198.32" xlink:href="#linear-gradient-20"/><linearGradient id="linear-gradient-27" x1="83.66" y1="17.79" x2="83.66" y2="198.31" xlink:href="#linear-gradient-20"/><linearGradient id="linear-gradient-28" x1="170.48" y1="17.78" x2="170.48" y2="198.31" xlink:href="#linear-gradient-20"/><linearGradient id="linear-gradient-29" x1="27.71" y1="17.79" x2="27.71" y2="198.31" xlink:href="#linear-gradient-20"/><linearGradient id="linear-gradient-30" x1="180.45" y1="17.78" x2="180.45" y2="198.31" xlink:href="#linear-gradient-20"/><linearGradient id="linear-gradient-31" x1="178.83" y1="17.78" x2="178.83" y2="198.32" xlink:href="#linear-gradient-20"/><linearGradient id="linear-gradient-32" x1="123.41" y1="17.78" x2="123.41" y2="198.31" xlink:href="#linear-gradient-20"/><linearGradient id="linear-gradient-33" x1="81.85" y1="17.78" x2="81.85" y2="198.31" xlink:href="#linear-gradient-20"/><linearGradient id="linear-gradient-34" x1="115.78" y1="17.79" x2="115.78" y2="198.31" xlink:href="#linear-gradient-20"/><linearGradient id="linear-gradient-35" x1="-5753.21" y1="21.75" x2="-5753.21" y2="209.21" gradientTransform="matrix(-1, 0, 0, 1, -5648.6, 0)" gradientUnits="userSpaceOnUse"><stop offset="0" stop-color="#43acf8"/><stop offset="1" stop-color="#0c73cf"/></linearGradient><linearGradient id="linear-gradient-36" x1="-5803.68" y1="21.73" x2="-5803.68" y2="209.22" xlink:href="#linear-gradient-35"/><linearGradient id="linear-gradient-37" x1="-5701.44" y1="21.84" x2="-5701.44" y2="209.3" xlink:href="#linear-gradient-35"/><linearGradient id="linear-gradient-38" x1="-5775.12" y1="21.75" x2="-5775.12" y2="209.21" xlink:href="#linear-gradient-35"/><linearGradient id="linear-gradient-39" x1="-5829.56" y1="21.75" x2="-5829.56" y2="209.21" xlink:href="#linear-gradient-35"/><linearGradient id="linear-gradient-40" x1="-5825.95" y1="21.31" x2="-5825.95" y2="208.77" xlink:href="#linear-gradient-35"/><linearGradient id="linear-gradient-41" x1="-5827.6" y1="20.63" x2="-5827.6" y2="208.09" xlink:href="#linear-gradient-35"/><linearGradient id="linear-gradient-42" x1="-5772.68" y1="21.75" x2="-5772.68" y2="209.22" xlink:href="#linear-gradient-35"/><linearGradient id="linear-gradient-43" x1="-5685.95" y1="21.41" x2="-5685.95" y2="208.87" xlink:href="#linear-gradient-35"/><linearGradient id="linear-gradient-44" x1="-5828.85" y1="25.14" x2="-5828.85" y2="200.35" xlink:href="#linear-gradient-35"/><linearGradient id="linear-gradient-45" x1="-5675.64" y1="22.01" x2="-5675.64" y2="209.47" xlink:href="#linear-gradient-35"/><linearGradient id="linear-gradient-46" x1="-5677.94" y1="20.36" x2="-5677.94" y2="207.84" xlink:href="#linear-gradient-35"/><linearGradient id="linear-gradient-47" x1="-5732.93" y1="21.75" x2="-5732.93" y2="209.21" xlink:href="#linear-gradient-35"/><linearGradient id="linear-gradient-48" x1="-5774.45" y1="16.63" x2="-5774.45" y2="211.31" xlink:href="#linear-gradient-35"/><linearGradient id="linear-gradient-49" x1="-5740.69" y1="22.49" x2="-5740.69" y2="208.32" xlink:href="#linear-gradient-35"/></defs><title>Ресурс 39weather2</title><g id="Слой_2" data-name="Слой 2"><g id="icons"><path class="cls-1" d="M203.9,58.22a25.34,25.34,0,0,0-27.64-12,25.37,25.37,0,0,0-25.84-11.75A25.42,25.42,0,0,0,127.3,17.92a25.36,25.36,0,0,0-48.48,0,25.41,25.41,0,0,0-23,16.35A25.37,25.37,0,0,0,31.05,46.19a25.37,25.37,0,0,0-24.26,42A25.58,25.58,0,0,0,4.6,93.7a25.32,25.32,0,0,0,5,22.73,25.33,25.33,0,0,0-5,22.73,25.56,25.56,0,0,0,2.2,5.53,25.36,25.36,0,0,0,24.26,42A25.37,25.37,0,0,0,56.9,198.44,25.43,25.43,0,0,0,80,215a25.36,25.36,0,0,0,48.48,0,25.41,25.41,0,0,0,23-16.35,25.37,25.37,0,0,0,24.72-11.92,25.37,25.37,0,0,0,24.26-42,25.57,25.57,0,0,0,2.2-5.54,25.32,25.32,0,0,0-5-22.73,25.33,25.33,0,0,0,5-22.73,25.53,25.53,0,0,0-2.2-5.53,25.39,25.39,0,0,0,3.39-30Z"/><path class="cls-2" d="M104.24,165.34A10.33,10.33,0,0,1,99.07,164L65.68,144.68a10.35,10.35,0,0,1-5.18-9V97.16a10.36,10.36,0,0,1,5.18-9L99.07,68.92a10.35,10.35,0,0,1,10.35,0l33.39,19.28a10.36,10.36,0,0,1,5.18,9v38.55a10.36,10.36,0,0,1-5.18,9L109.42,164a10.35,10.35,0,0,1-5.18,1.39Zm-23-35.61,23,13.3,23-13.3v-26.6l-23-13.3-23,13.3v26.6Z"/><path class="cls-3" d="M103.06,88.24A10.35,10.35,0,0,1,92.7,77.88V25.35a10.35,10.35,0,0,1,20.71,0V77.88a10.35,10.35,0,0,1-10.35,10.35Z"/><path class="cls-4" d="M103.07,67.23a10.36,10.36,0,0,1-5.19-19.32L121.46,34.3a10.35,10.35,0,0,1,10.35,17.93L108.24,65.84a10.3,10.3,0,0,1-5.17,1.39Z"/><path class="cls-5" d="M103,67.23a10.31,10.31,0,0,1-5.17-1.39L74.31,52.23A10.35,10.35,0,1,1,84.66,34.3l23.58,13.61A10.36,10.36,0,0,1,103,67.23Z"/><path class="cls-6" d="M70.85,107.51a10.3,10.3,0,0,1-5.17-1.39L20.19,79.86A10.35,10.35,0,1,1,30.54,61.93L76,88.19a10.36,10.36,0,0,1-5.19,19.32Z"/><path class="cls-7" d="M52.66,97A10.35,10.35,0,0,1,42.31,86.66V59.43a10.35,10.35,0,1,1,20.71,0V86.66A10.35,10.35,0,0,1,52.66,97Z"/><path class="cls-8" d="M29.1,110.62A10.36,10.36,0,0,1,23.91,91.3L47.49,77.69A10.35,10.35,0,1,1,57.84,95.62L34.26,109.23a10.3,10.3,0,0,1-5.17,1.39Z"/><path class="cls-9" d="M25.37,172.33A10.36,10.36,0,0,1,20.19,153l45.49-26.26A10.35,10.35,0,0,1,76,144.68L30.54,170.94a10.3,10.3,0,0,1-5.17,1.39Z"/><path class="cls-10" d="M52.65,156.57a10.31,10.31,0,0,1-5.17-1.39L23.91,141.57a10.35,10.35,0,0,1,10.35-17.93l23.58,13.61a10.36,10.36,0,0,1-5.19,19.32Z"/><path class="cls-11" d="M52.66,183.79a10.35,10.35,0,0,1-10.35-10.35V146.22a10.35,10.35,0,1,1,20.71,0v27.22a10.35,10.35,0,0,1-10.35,10.35Z"/><path class="cls-12" d="M104.24,217.87a10.35,10.35,0,0,1-10.35-10.35V155a10.35,10.35,0,0,1,20.71,0v52.53a10.35,10.35,0,0,1-10.35,10.35Z"/><path class="cls-13" d="M80.68,200a10.36,10.36,0,0,1-5.19-19.32L99.07,167A10.35,10.35,0,1,1,109.42,185L85.85,198.57A10.32,10.32,0,0,1,80.68,200Z"/><path class="cls-14" d="M127.81,200a10.31,10.31,0,0,1-5.17-1.39L99.07,185A10.35,10.35,0,0,1,109.42,167L133,180.64A10.36,10.36,0,0,1,127.81,200Z"/><path class="cls-15" d="M181.93,172.33a10.31,10.31,0,0,1-5.17-1.39l-45.49-26.26a10.35,10.35,0,0,1,10.35-17.93L187.12,153a10.36,10.36,0,0,1-5.19,19.32Z"/><path class="cls-16" d="M154.64,183.79a10.35,10.35,0,0,1-10.36-10.35V146.21a10.35,10.35,0,0,1,20.71,0v27.22a10.35,10.35,0,0,1-10.35,10.35Z"/><path class="cls-17" d="M154.65,156.57a10.36,10.36,0,0,1-5.19-19.32L173,123.64a10.35,10.35,0,0,1,10.35,17.93l-23.57,13.61a10.32,10.32,0,0,1-5.17,1.39Z"/><path class="cls-18" d="M136.46,107.51a10.36,10.36,0,0,1-5.19-19.32l45.49-26.26a10.35,10.35,0,1,1,10.35,17.93l-45.49,26.26a10.29,10.29,0,0,1-5.17,1.39Z"/><path class="cls-17" d="M178.21,110.62a10.31,10.31,0,0,1-5.17-1.39L149.46,95.62a10.35,10.35,0,1,1,10.35-17.93L183.39,91.3a10.36,10.36,0,0,1-5.19,19.32Z"/><path class="cls-19" d="M154.64,97a10.35,10.35,0,0,1-10.36-10.35V59.43a10.35,10.35,0,0,1,20.71,0V86.65A10.35,10.35,0,0,1,154.64,97Z"/><path class="cls-20" d="M103.13,17.27c-4.06,0-8.67,4.14-7.93,8.8.55-3.11,3.69-5.69,7.93-5.69s7.38,2.59,7.93,5.69C111.8,21.41,107.19,17.27,103.13,17.27Z"/><path class="cls-21" d="M52.66,52c-4.06,0-8.67,4.14-7.93,8.8.55-3.11,3.69-5.69,7.93-5.69s7.38,2.59,7.93,5.69C61.33,56.09,56.72,52,52.66,52Z"/><path class="cls-22" d="M154.47,52c-4.06,0-8.67,4.14-7.93,8.8.55-3.11,3.69-5.69,7.93-5.69s7.38,2.59,7.93,5.69C163.14,56.09,158.53,52,154.47,52Z"/><path class="cls-23" d="M79.66,35.39c-4.06,0-8.67,4.14-7.93,8.8.55-3.11,3.69-5.69,7.93-5.69A48.84,48.84,0,0,1,90.8,40.13C86.79,37.63,83.72,35.39,79.66,35.39Z"/><path class="cls-24" d="M25.22,63.68c-4.06,0-8.67,4.14-7.93,8.8.55-3.11,3.69-5.69,7.93-5.69a48.88,48.88,0,0,1,11.13,1.64C32.35,65.94,29.28,63.68,25.22,63.68Z"/><path class="cls-25" d="M29.36,124.77c-4.06,0-8.67,4.14-7.93,8.8.55-3.11,3.69-5.69,7.93-5.69a48.83,48.83,0,0,1,11.13,1.64C36.49,127,33.42,124.77,29.36,124.77Z"/><path class="cls-26" d="M33.68,87.41l3,1.55s-7.33,4-10,5.69-5.78,5.18-5.44,8.11c-1.81-3.8.61-8.11,3-9.75S33.68,87.41,33.68,87.41Z"/><path class="cls-27" d="M94.51,172.14l-.09,3.28s-12.85,7.07-15.53,8.8-5.78,5.18-5.44,8.11c-1.81-3.8.6-8.11,3-9.75S94.51,172.14,94.51,172.14Z"/><path class="cls-28" d="M156.51,135.63l2.9,1.54s12.48-7.71,15.3-9.19,7.35-2.49,9.74-.74c-2.41-3.45-7.36-3.47-10-2.17S156.51,135.63,156.51,135.63Z"/><path class="cls-29" d="M34.8,146.95l3,1.55s-11.48,7.08-14.15,8.8-5.78,5.18-5.44,8.11c-1.81-3.8.6-8.11,3-9.75S34.8,146.95,34.8,146.95Z"/><path class="cls-30" d="M182,63.68c4.06,0,8.67,4.14,7.93,8.8-.55-3.11-3.69-5.69-7.93-5.69a48.89,48.89,0,0,0-11.13,1.64C174.88,65.94,177.95,63.68,182,63.68Z"/><path class="cls-31" d="M173.81,87.24l-3,1.55s7.33,4,10,5.7,5.78,5.18,5.44,8.11c1.81-3.8-.61-8.11-3-9.75S173.81,87.24,173.81,87.24Z"/><path class="cls-32" d="M113.77,41.63l0,3.4s6.82-4.79,9.56-6.42,7.21-2.86,9.68-1.25c-2.59-3.31-7.53-3.08-10.07-1.65S113.77,41.63,113.77,41.63Z"/><path class="cls-33" d="M75.27,87.41,93.47,76.63c2.24-1.55,1.21-4.14.26-6.64,0,2.16,0,3.71-.52,4.14L72.46,86.59c-.56.39-2,0-3.58-.73C71.21,87.59,73.84,88.53,75.27,87.41Z"/><path class="cls-34" d="M107.71,146.77,128.89,134c2.24-1.55,1.21-4.14.26-6.64,0,2.16,0,3.71-.52,4.14L104.9,146c-.56.39-2,0-3.58-.73C103.65,146.95,106.28,147.9,107.71,146.77Z"/><path class="cls-35" d="M104.61,216.4c4.06,0,8.67-4.14,7.93-8.8-.55,3.11-3.69,5.69-7.93,5.69s-7.38-2.59-7.93-5.69C95.94,212.26,100.55,216.4,104.61,216.4Z"/><path class="cls-36" d="M155.09,181.72c4.06,0,8.67-4.14,7.93-8.8-.55,3.11-3.69,5.69-7.93,5.69s-7.38-2.59-7.93-5.69C146.42,177.58,151,181.72,155.09,181.72Z"/><path class="cls-37" d="M52.84,181.8c4.06,0,8.67-4.14,7.93-8.8-.55,3.11-3.69,5.7-7.93,5.7s-7.38-2.59-7.93-5.7C44.17,177.66,48.79,181.8,52.84,181.8Z"/><path class="cls-38" d="M128.08,198.29c4.06,0,8.67-4.14,7.93-8.8-.55,3.11-3.69,5.69-7.93,5.69A48.83,48.83,0,0,1,117,193.54C121,196,124,198.29,128.08,198.29Z"/><path class="cls-39" d="M182.53,170c4.06,0,8.67-4.14,7.93-8.8-.55,3.11-3.69,5.7-7.93,5.7a48.81,48.81,0,0,1-11.13-1.64C175.4,167.73,178.47,170,182.53,170Z"/><path class="cls-40" d="M178.91,108.46c4.06,0,8.67-4.14,7.93-8.8-.55,3.1-3.69,5.69-7.93,5.69a48.75,48.75,0,0,1-11.13-1.64C171.79,106.2,174.85,108.46,178.91,108.46Z"/><path class="cls-41" d="M174,145.31l-3-1.55s7.33-4,10-5.69,5.78-5.18,5.44-8.11c1.81,3.8-.6,8.11-3,9.75S174,145.31,174,145.31Z"/><path class="cls-42" d="M113.24,61.53l.09-3.28s12.86-7.08,15.53-8.8,5.78-5.18,5.44-8.11c1.81,3.8-.61,8.11-3,9.75S113.24,61.53,113.24,61.53Z"/><path class="cls-43" d="M51.32,97.69l-2.9-1.54s-12.48,7.71-15.3,9.19-7.35,2.49-9.73.74c2.41,3.44,7.36,3.46,10,2.17S51.32,97.69,51.32,97.69Z"/><path class="cls-44" d="M173.51,85.86l-3-1.55s10.79-5.87,13.46-7.59,5.78-5.18,5.44-8.11c1.81,3.8-.6,8.11-3,9.75S173.51,85.86,173.51,85.86Z"/><path class="cls-45" d="M25.48,170.24c-4.06,0-8.67-4.14-7.93-8.8.55,3.11,3.69,5.7,7.93,5.7a48.84,48.84,0,0,0,11.13-1.64C32.61,168,29.54,170.24,25.48,170.24Z"/><path class="cls-46" d="M34.37,145l3-1.55s-7.33-4-10-5.7-5.78-5.18-5.44-8.11c-1.81,3.8.6,8.11,3,9.75S34.37,145,34.37,145Z"/><path class="cls-47" d="M94,192l0-3.4s-6.82,4.79-9.56,6.42-7.21,2.86-9.68,1.25c2.59,3.31,7.53,3.08,10.07,1.65S94,192,94,192Z"/><path class="cls-48" d="M133.17,145.91l-19.69,11.48c-2.24,1.55-1.21,4.14-.26,6.64,0-2.16,0-3.71.52-4.14L136,146.73c.56-.39,2,0,3.58.73C137.23,145.74,134.6,144.79,133.17,145.91Z"/><path class="cls-49" d="M100.29,87.07,78.86,99.66c-2.24,1.55-1.21,4.14-.26,6.64,0-2.16,0-3.71.52-4.14l24-14.28c.56-.39,2,0,3.58.73C104.34,86.89,101.71,85.95,100.29,87.07Z"/></g></g></svg>