<svg xmlns="http://www.w3.org/2000/svg" xmlns:xlink="http://www.w3.org/1999/xlink" viewBox="0 0 225 234.74"><defs><style>.cls-1{fill:#fff;}.cls-2{fill:url(#linear-gradient);}.cls-3{fill:url(#linear-gradient-2);}.cls-4{fill:#fdfa8a;}.cls-5{fill:#cbcbcb;}.cls-6{fill:url(#linear-gradient-3);}.cls-7{fill:url(#linear-gradient-4);}.cls-8{fill:url(#linear-gradient-5);}.cls-9{fill:url(#linear-gradient-6);}.cls-10{fill:#ffb2a5;}.cls-11{fill:#961404;}</style><linearGradient id="linear-gradient" x1="172.94" y1="54.8" x2="172.94" y2="319.95" gradientUnits="userSpaceOnUse"><stop offset="0" stop-color="#ffdb00"/><stop offset="1" stop-color="#e8a300"/></linearGradient><linearGradient id="linear-gradient-2" x1="171.89" y1="72.37" x2="171.89" y2="249.28" gradientUnits="userSpaceOnUse"><stop offset="0" stop-color="#ffdb00"/><stop offset="1" stop-color="#f4d936"/></linearGradient><linearGradient id="linear-gradient-3" x1="-56.96" y1="206.56" x2="-56.96" y2="285.22" gradientTransform="translate(167.04 -151.8) rotate(1.39)" gradientUnits="userSpaceOnUse"><stop offset="0.02" stop-color="#a9a9a9"/><stop offset="1" stop-color="#616161"/></linearGradient><linearGradient id="linear-gradient-4" x1="-53.61" y1="222.38" x2="-52.6" y2="278.81" xlink:href="#linear-gradient-3"/><linearGradient id="linear-gradient-5" x1="103.05" y1="100.79" x2="103.05" y2="131.93" gradientUnits="userSpaceOnUse"><stop offset="0" stop-color="gray"/><stop offset="1" stop-color="#5f5f5f"/></linearGradient><linearGradient id="linear-gradient-6" x1="73.35" y1="147.75" x2="75.96" y2="220.74" gradientUnits="userSpaceOnUse"><stop offset="0" stop-color="#ff5b3f"/><stop offset="1" stop-color="#bf2200"/></linearGradient></defs><title>Ресурс 19weather2</title><g id="Слой_2" data-name="Слой 2"><g id="icons"><path class="cls-1" d="M210.35,151.7c-.59-.21-1.19-.39-1.84-.57l-.22-.06a30.3,30.3,0,0,0-3.87-.75l-.23,0c-.59-.07-1.18-.13-1.79-.17h-.23c-.59,0-1.19-.05-1.78-.05h-6.12a22.83,22.83,0,0,0-2.6-18.42,21.69,21.69,0,0,0-3.87-4.5,55.3,55.3,0,0,0,7.56-6.62c9.65-10.23,14.13-23.24,12.94-37.61-1.32-16.1-7.56-29.78-18-39.57-9.46-8.85-21.82-14-35.92-15.06A55.43,55.43,0,0,0,139,11.74,63.47,63.47,0,0,0,104.39,0l-1.44,0A57.29,57.29,0,0,0,71.81,9.05a47.9,47.9,0,0,0-11,9.89h-.23A35.19,35.19,0,0,0,29.33,38a33.14,33.14,0,0,0-2.58,6.94,45,45,0,0,0-7.84,5.18,52.86,52.86,0,0,0-15.23,21A49.16,49.16,0,0,0,.54,96.83a43.57,43.57,0,0,0,14,25.84c7.71,7,18.77,12.52,32.88,16.41-3,2.91-6.1,6.21-9.28,9.95-10.7,12.6-20.47,27.89-24.88,39-5.51,13.84-4.56,24.41,2.84,31.42,8.2,7.77,28.14,11.71,59.28,11.71s51.09-3.94,59.28-11.71A20.42,20.42,0,0,0,141,204.07a26.42,26.42,0,0,0,2.93.16h7.29l-1.42,3.22c-2.9,6.56-2.54,13.44,1,18.88a19,19,0,0,0,16.09,8.41,24.46,24.46,0,0,0,18-8.41c7.33-8.34,25.86-30,34-39.87,6.88-8.38,6.72-15.88,5.38-20.7C222.46,159.3,217.4,154.18,210.35,151.7Z"/><path class="cls-2" d="M200.39,165H171.5c3.27-7.21,6.24-13.74,7.18-15.79,4.78-10.43-3.6-13.26-7-13.26H161.34a16.48,16.48,0,0,0-15.64,11.81c-2.25,7-6.37,19.35-9.07,28.64-2.4,8.26,1.25,12.77,7.28,12.77h30.33L163.5,213.52c-3.11,7,5.44,8.24,10.12,2.91,7.66-8.71,25.9-30,33.67-39.49C214,168.78,206.84,165,200.39,165Z"/><path class="cls-3" d="M207.88,167.13a13,13,0,0,0-7.49-2.08H171.5c3.27-7.21,6.24-13.74,7.18-15.79,4.78-10.43-3.6-13.26-7-13.26H161.34a16.48,16.48,0,0,0-15.64,11.81c-2.25,7-6.37,19.35-9.07,28.64a16.5,16.5,0,0,0-.73,5.2C148.28,185,198.45,176.56,207.88,167.13Z"/><path class="cls-4" d="M164.09,138.14c-14.61,0-14.24,8.32-14.24,8.32s2.4-5,14.24-5,14.05,4.62,14.05,4.62S178.7,138.14,164.09,138.14Z"/><path class="cls-5" d="M100.88,130.94c-36.4-.88-63.49-7.76-76.29-19.38a28.74,28.74,0,0,1-9.23-17,34.17,34.17,0,0,1,2.25-17.86,37.62,37.62,0,0,1,10.8-14.95,27.12,27.12,0,0,1,12.67-6,17.39,17.39,0,0,1,1.65-11,20,20,0,0,1,18.39-10.8,21.11,21.11,0,0,1,7.18,1.46A30.92,30.92,0,0,1,80,21.59,42.19,42.19,0,0,1,104,15a48.12,48.12,0,0,1,26.25,8.91,38.23,38.23,0,0,1,14.48,19.29c1.92-.13,3.81-.17,5.65-.13,11.85.29,22.09,4.16,29.62,11.2,7.7,7.2,12.31,17.52,13.32,29.84.84,10.16-2.16,18.94-8.9,26.09-18.26,19.35-60.2,21.29-83.57,20.73Z"/><path class="cls-6" d="M103.87,21.6c15.9.38,34,11.61,36.81,29.75,26.19-3.77,45.23,10,47.34,37,2.86,36.6-48.09,43.81-87.15,42.86S38.33,122.33,28,112.58C8.55,94.2,29,58.49,49.23,64.37,38.51,50.08,56.9,33.26,71.47,45.64,73.58,29.86,89,21.24,103.87,21.6Z"/><path class="cls-5" d="M107.86,119.79c-8.79-.21-37.13-2.49-50.33-17.64-8.06-9.26-6.88-20.24.69-28.72C64.75,66.12,72.61,66,78,66.16a30.62,30.62,0,0,1,8.44,1.38,15.54,15.54,0,0,1,3.14-7.35c4-5.15,11.1-8.41,18.65-8.49h1.52a31.81,31.81,0,0,1,17.13,5,21.57,21.57,0,0,1,8.77,12,38.42,38.42,0,0,1,4-.11c8.71.21,19.54,3.45,23.8,11.91s.3,23.33-12.12,32.52C141.06,120.59,107.86,119.79,107.86,119.79Z"/><path class="cls-7" d="M157.73,110.62c-8.18,15.06-24.84,18.91-40.28,18.81-16.31-.1-35.62-1-50-9.67-9.1-5.47-17.05-21.37-11.62-33.46,5.52-12.29,22.8-16.64,34.7-9.52-2.63-10.71,7.46-18.1,17.75-18.24,11.7-.15,22.49,5.2,24.21,17.73,8.77-1.7,22.53.62,26.91,9.68C163.46,94.46,162,102.75,157.73,110.62Z"/><path class="cls-8" d="M103.58,97.71c-34,0-75-2.39-75,7.53s28.72,24,74.6,24,74.25-13.35,74.25-21.22S129.85,97.71,103.58,97.71Z"/><path class="cls-5" d="M83.17,36c14.78-.49,24.41,7.44,23,19.72C103.67,47.19,96,44,83.91,43.32S64.53,49.06,62.58,54.94C62.2,43.55,72.48,36.36,83.17,36Z"/><path class="cls-9" d="M26.38,208.53c-10.69-10.12,32.64-69.6,49-69.6s59.65,59.47,49,69.6S37.07,218.66,26.38,208.53Z"/><path class="cls-1" d="M70.12,184.44a3.58,3.58,0,0,0,1.53,2.83,5.69,5.69,0,0,0,3.45,1.07,6.36,6.36,0,0,0,3.62-1,3.48,3.48,0,0,0,1.75-2.88l1.47-20.57a6.57,6.57,0,0,0-1.58-5.25,6.72,6.72,0,0,0-5-1.87,6.68,6.68,0,0,0-5,1.81,6.83,6.83,0,0,0-1.58,5.37Z"/><path class="cls-1" d="M79.91,194.84a6.55,6.55,0,0,0-4.59-1.75,6.47,6.47,0,0,0-4.54,1.7A5.49,5.49,0,0,0,68.87,199a5.4,5.4,0,0,0,1.86,4.13,6.55,6.55,0,0,0,4.59,1.75,6.66,6.66,0,0,0,4.59-1.7A5.49,5.49,0,0,0,81.82,199,5.33,5.33,0,0,0,79.91,194.84Z"/><path class="cls-10" d="M75.35,141.9c-4.72,0-14.18,7.72-17.82,12.52,4.95-3.06,13.94-9.46,17.82-9.46s12.87,6.41,17.82,9.46C89.53,149.61,80.06,141.9,75.35,141.9Z"/><path class="cls-11" d="M75.35,210.17c-12,0-36.16-.44-45.62-1.89C39.91,213.08,63.5,214,75.35,214s35.43-.87,45.62-5.68C111.51,209.73,87.37,210.17,75.35,210.17Z"/></g></g></svg>