<svg xmlns="http://www.w3.org/2000/svg" xmlns:xlink="http://www.w3.org/1999/xlink" viewBox="0 0 208.49 216.33"><defs><style>.cls-1{fill:#fff;}.cls-2{fill:#cbcbcb;}.cls-3{fill:url(#linear-gradient);}.cls-4{fill:url(#linear-gradient-2);}.cls-5{fill:url(#linear-gradient-3);}.cls-6{fill:url(#linear-gradient-4);}.cls-7{fill:url(#linear-gradient-5);}.cls-8{fill:#c9edfe;}.cls-9{fill:url(#linear-gradient-6);}.cls-10{fill:url(#linear-gradient-7);}.cls-11{fill:url(#linear-gradient-8);}.cls-12{fill:url(#linear-gradient-9);}</style><linearGradient id="linear-gradient" x1="-73.74" y1="155.09" x2="-73.74" y2="233.75" gradientTransform="translate(182.57 -99.94) rotate(1.39)" gradientUnits="userSpaceOnUse"><stop offset="0.02" stop-color="#a9a9a9"/><stop offset="1" stop-color="#616161"/></linearGradient><linearGradient id="linear-gradient-2" x1="-70.38" y1="170.91" x2="-69.38" y2="227.33" xlink:href="#linear-gradient"/><linearGradient id="linear-gradient-3" x1="103.05" y1="100.8" x2="103.05" y2="131.93" gradientUnits="userSpaceOnUse"><stop offset="0" stop-color="gray"/><stop offset="1" stop-color="#5f5f5f"/></linearGradient><linearGradient id="linear-gradient-4" x1="136.81" y1="149.76" x2="136.81" y2="196.8" gradientUnits="userSpaceOnUse"><stop offset="0" stop-color="#84d9ff"/><stop offset="1" stop-color="#2999f5"/></linearGradient><linearGradient id="linear-gradient-5" x1="25.5" y1="109" x2="25.5" y2="205.73" gradientTransform="translate(100.64)" gradientUnits="userSpaceOnUse"><stop offset="0" stop-color="#43acf8"/><stop offset="1" stop-color="#0c73cf"/></linearGradient><linearGradient id="linear-gradient-6" x1="96.61" y1="149.76" x2="96.61" y2="196.8" xlink:href="#linear-gradient-4"/><linearGradient id="linear-gradient-7" x1="-14.7" y1="109" x2="-14.7" y2="205.73" xlink:href="#linear-gradient-5"/><linearGradient id="linear-gradient-8" x1="56.4" y1="149.76" x2="56.4" y2="196.8" xlink:href="#linear-gradient-4"/><linearGradient id="linear-gradient-9" x1="-54.9" y1="109" x2="-54.9" y2="205.73" xlink:href="#linear-gradient-5"/></defs><title>Ресурс 35weather2</title><g id="Слой_2" data-name="Слой 2"><g id="icons"><path class="cls-1" d="M195.36,120.51c9.65-10.23,14.13-23.23,12.94-37.61-1.32-16.1-7.56-29.78-18-39.57-9.46-8.85-21.83-14-35.92-15.06A55.42,55.42,0,0,0,139,11.74,63.45,63.45,0,0,0,104.39,0l-1.44,0A57.32,57.32,0,0,0,71.81,9a47.28,47.28,0,0,0-11,9.89h-.22A35.19,35.19,0,0,0,29.33,38a33.13,33.13,0,0,0-2.58,6.94,44.93,44.93,0,0,0-7.84,5.17,52.9,52.9,0,0,0-15.23,21A49.21,49.21,0,0,0,.54,96.84a43.6,43.6,0,0,0,14,25.83c8.24,7.48,20.27,13.25,35.77,17.17l1.24.32a23,23,0,0,0-4.43,5.49L26.33,182.27a22.71,22.71,0,1,0,39.4,22.61l.39-.68a22.68,22.68,0,0,0,20.08,12.14,22.85,22.85,0,0,0,19.74-11.46l.39-.68a22.68,22.68,0,0,0,20.08,12.14,22.85,22.85,0,0,0,19.74-11.46l20.75-36.61a22.67,22.67,0,0,0-5.2-28.84C176.22,135.15,187.52,128.81,195.36,120.51ZM127.1,146.34c-.13-.25-.27-.5-.41-.75l.88-.08-.09.14Zm-39.82-.68-.39.68c-.13-.26-.28-.51-.42-.76l.82.05Z"/><path class="cls-2" d="M100.88,130.94c-36.4-.88-63.49-7.76-76.29-19.38a28.75,28.75,0,0,1-9.23-17,34.19,34.19,0,0,1,2.25-17.87,37.64,37.64,0,0,1,10.8-14.95,27.13,27.13,0,0,1,12.67-6,17.39,17.39,0,0,1,1.65-11,20,20,0,0,1,18.39-10.8A21.14,21.14,0,0,1,68.3,35.4,30.91,30.91,0,0,1,80,21.59,42.19,42.19,0,0,1,104,15a48.1,48.1,0,0,1,26.25,8.91,38.22,38.22,0,0,1,14.48,19.29c1.92-.13,3.82-.17,5.65-.13,11.85.29,22.1,4.16,29.62,11.2,7.7,7.2,12.31,17.52,13.32,29.84.84,10.16-2.16,18.94-8.9,26.09-18.26,19.35-60.2,21.29-83.57,20.73Z"/><path class="cls-3" d="M103.87,21.6c15.9.38,34,11.61,36.81,29.75,26.19-3.77,45.23,10,47.34,37,2.86,36.6-48.09,43.81-87.15,42.86S38.33,122.33,28,112.58C8.55,94.2,29,58.49,49.23,64.37,38.51,50.08,56.9,33.26,71.47,45.64,73.58,29.86,89,21.24,103.87,21.6Z"/><path class="cls-2" d="M107.86,119.79c-8.79-.21-37.13-2.49-50.33-17.64-8.06-9.26-6.88-20.24.69-28.72C64.75,66.12,72.61,66,78,66.16a30.62,30.62,0,0,1,8.44,1.39,15.56,15.56,0,0,1,3.14-7.35c4-5.15,11.1-8.41,18.65-8.49h1.51a31.81,31.81,0,0,1,17.13,5,21.56,21.56,0,0,1,8.77,12,38.14,38.14,0,0,1,4-.11c8.71.21,19.54,3.45,23.8,11.91s.3,23.33-12.11,32.52C141.06,120.59,107.86,119.79,107.86,119.79Z"/><path class="cls-4" d="M157.73,110.62c-8.18,15.06-24.84,18.91-40.28,18.81-16.31-.1-35.62-1-50-9.67-9.1-5.47-17.05-21.37-11.62-33.46,5.52-12.29,22.8-16.64,34.7-9.52-2.63-10.71,7.46-18.1,17.75-18.24,11.7-.15,22.49,5.19,24.21,17.73,8.77-1.7,22.53.62,26.91,9.68C163.46,94.46,162,102.75,157.73,110.62Z"/><path class="cls-5" d="M103.58,97.72c-34,0-75-2.4-75,7.53s28.72,24,74.6,24,74.25-13.35,74.25-21.22S129.85,97.72,103.58,97.72Z"/><path class="cls-2" d="M83.17,36c14.78-.49,24.41,7.44,23,19.72C103.67,47.19,96,44,83.91,43.32S64.53,49.06,62.58,54.94C62.2,43.55,72.48,36.36,83.17,36Z"/><path class="cls-6" d="M126.39,201.33a7.71,7.71,0,0,1-6.67-11.57l20.81-36.71a7.71,7.71,0,1,1,13.36,7.71l-20.81,36.71a7.71,7.71,0,0,1-6.69,3.86Z"/><path class="cls-7" d="M125.62,200c-2.06-.21-5.23-2.09-5.34-4.5.6,1.5,3.18,2.7,5.34,2.91,2.35.23,5.33-.23,6.38-1.45C131.11,199.25,128.26,200.33,125.62,200Z"/><path class="cls-8" d="M146.74,150.36c-2.6.27-5.5,2.66-6.67,5.46a11.12,11.12,0,0,1,6.67-3.46c3-.29,5.62.79,6.7,2.51A6,6,0,0,0,146.74,150.36Z"/><path class="cls-9" d="M86.19,201.33a7.72,7.72,0,0,1-6.67-11.57l20.81-36.71a7.71,7.71,0,1,1,13.36,7.71L92.88,197.48a7.71,7.71,0,0,1-6.69,3.86Z"/><path class="cls-10" d="M85.42,200c-2.06-.21-5.23-2.09-5.34-4.5.6,1.5,3.18,2.7,5.34,2.91,2.35.23,5.33-.23,6.38-1.45C90.91,199.25,88.05,200.33,85.42,200Z"/><path class="cls-8" d="M106.54,150.36c-2.6.27-5.5,2.66-6.67,5.46a11.11,11.11,0,0,1,6.67-3.46c3-.29,5.62.79,6.7,2.51A6,6,0,0,0,106.54,150.36Z"/><path class="cls-11" d="M46,201.33a7.71,7.71,0,0,1-6.67-11.57l20.81-36.71a7.71,7.71,0,1,1,13.36,7.71L52.67,197.48A7.71,7.71,0,0,1,46,201.33Z"/><path class="cls-12" d="M45.22,200c-2.06-.21-5.23-2.09-5.34-4.5.6,1.5,3.18,2.7,5.34,2.91,2.35.23,5.33-.23,6.38-1.45C50.71,199.25,47.85,200.33,45.22,200Z"/><path class="cls-8" d="M66.34,150.36c-2.6.27-5.5,2.66-6.67,5.46a11.12,11.12,0,0,1,6.67-3.46c3-.29,5.62.79,6.7,2.51A6,6,0,0,0,66.34,150.36Z"/></g></g></svg>