<svg xmlns="http://www.w3.org/2000/svg" xmlns:xlink="http://www.w3.org/1999/xlink" viewBox="0 0 225.5 225.5"><defs><style>.cls-1{fill:#fff;}.cls-2{fill:url(#linear-gradient);}.cls-3{fill:url(#linear-gradient-2);}.cls-4{fill:url(#linear-gradient-3);}.cls-5{fill:url(#linear-gradient-4);}.cls-6{fill:url(#linear-gradient-5);}.cls-7{fill:url(#linear-gradient-6);}.cls-8{fill:url(#linear-gradient-7);}.cls-9{fill:url(#linear-gradient-8);}.cls-10{fill:url(#linear-gradient-9);}.cls-11{fill:url(#linear-gradient-10);}.cls-12{fill:url(#linear-gradient-11);}.cls-13{fill:url(#linear-gradient-12);}.cls-14{fill:url(#linear-gradient-13);}.cls-15{fill:#d68c00;}.cls-16{fill:#fff280;}</style><linearGradient id="linear-gradient" x1="112.75" y1="61.58" x2="112.75" y2="166.76" gradientUnits="userSpaceOnUse"><stop offset="0" stop-color="#ffdb00"/><stop offset="1" stop-color="#e8a300"/></linearGradient><linearGradient id="linear-gradient-2" x1="90.75" y1="21.37" x2="90.75" y2="209.49" xlink:href="#linear-gradient"/><linearGradient id="linear-gradient-3" x1="134.74" y1="21.37" x2="134.74" y2="209.48" xlink:href="#linear-gradient"/><linearGradient id="linear-gradient-4" x1="52.67" y1="21.37" x2="52.67" y2="209.49" xlink:href="#linear-gradient"/><linearGradient id="linear-gradient-5" x1="172.83" y1="21.37" x2="172.83" y2="209.49" xlink:href="#linear-gradient"/><linearGradient id="linear-gradient-6" x1="194.83" y1="21.38" x2="194.83" y2="209.48" xlink:href="#linear-gradient"/><linearGradient id="linear-gradient-7" x1="134.74" y1="21.37" x2="134.74" y2="209.49" xlink:href="#linear-gradient"/><linearGradient id="linear-gradient-8" x1="90.75" y1="21.36" x2="90.75" y2="209.49" xlink:href="#linear-gradient"/><linearGradient id="linear-gradient-9" x1="194.83" y1="21.37" x2="194.83" y2="209.48" xlink:href="#linear-gradient"/><linearGradient id="linear-gradient-10" x1="172.83" y1="21.38" x2="172.83" y2="209.49" xlink:href="#linear-gradient"/><linearGradient id="linear-gradient-11" x1="30.66" y1="21.38" x2="30.66" y2="209.48" xlink:href="#linear-gradient"/><linearGradient id="linear-gradient-12" x1="30.66" y1="21.38" x2="30.66" y2="209.48" xlink:href="#linear-gradient"/><linearGradient id="linear-gradient-13" x1="52.67" y1="21.38" x2="52.67" y2="209.49" xlink:href="#linear-gradient"/></defs><title>Ресурс 4weather2</title><g id="Слой_2" data-name="Слой 2"><g id="icons"><path class="cls-1" d="M224.74,82.74a22.18,22.18,0,0,0-27.16-15.69L187,69.9l7.76-7.76a22.18,22.18,0,1,0-31.36-31.37l-7.76,7.76,2.84-10.61a22.18,22.18,0,1,0-42.85-11.48l-2.84,10.61L109.9,16.44A22.18,22.18,0,0,0,67.06,27.92L69.9,38.54l-7.76-7.76A22.18,22.18,0,1,0,30.78,62.14l7.76,7.76L27.92,67.06a22.18,22.18,0,1,0-11.48,42.85l10.61,2.84-10.62,2.85a22.18,22.18,0,1,0,11.49,42.85l10.62-2.85-7.76,7.76a22.18,22.18,0,1,0,31.37,31.37L69.9,187l-2.84,10.61a22.18,22.18,0,1,0,42.85,11.48l2.84-10.61,2.84,10.61a22.18,22.18,0,1,0,42.85-11.48L155.59,187l7.76,7.76a22.18,22.18,0,1,0,31.37-31.36L187,155.6l10.58,2.83a22.18,22.18,0,1,0,11.51-42.84l-10.61-2.84,10.62-2.84A22.21,22.21,0,0,0,224.74,82.74Z"/><circle class="cls-2" cx="112.75" cy="112.75" r="62.62"/><path class="cls-3" d="M93,46.32A7.18,7.18,0,0,1,86.09,41L81.55,24a7.18,7.18,0,0,1,13.87-3.71l4.54,17a7.18,7.18,0,0,1-6.94,9Z"/><path class="cls-4" d="M132.48,46.32a7.18,7.18,0,0,1-6.94-9l4.54-17A7.18,7.18,0,1,1,144,24l-4.54,17a7.18,7.18,0,0,1-6.93,5.32Z"/><path class="cls-5" d="M58.87,66.05a7.16,7.16,0,0,1-5.08-2.1L41.38,51.54A7.18,7.18,0,0,1,51.54,41.38L64,53.8a7.18,7.18,0,0,1-5.08,12.26Z"/><path class="cls-6" d="M166.62,66.05a7.18,7.18,0,0,1-5.08-12.26L174,41.38a7.18,7.18,0,0,1,10.15,10.15L171.7,63.95a7.15,7.15,0,0,1-5.08,2.1Z"/><path class="cls-7" d="M186.35,100.21a7.18,7.18,0,0,1-1.85-14.12l17-4.54a7.18,7.18,0,0,1,3.72,13.87l-17,4.54a7.13,7.13,0,0,1-1.86.25Z"/><path class="cls-8" d="M137,210.5a7.18,7.18,0,0,1-6.93-5.32l-4.54-17a7.18,7.18,0,1,1,13.87-3.71l4.54,17a7.18,7.18,0,0,1-6.94,9Z"/><path class="cls-9" d="M88.49,210.5a7.18,7.18,0,0,1-6.94-9l4.54-17A7.18,7.18,0,1,1,100,188.21l-4.54,17a7.18,7.18,0,0,1-6.93,5.32Z"/><path class="cls-10" d="M203.32,144.2a7.13,7.13,0,0,1-1.86-.25l-17-4.54a7.18,7.18,0,0,1,3.72-13.87l17,4.54a7.18,7.18,0,0,1-1.85,14.12Z"/><path class="cls-11" d="M179,186.21a7.15,7.15,0,0,1-5.08-2.1L161.55,171.7a7.18,7.18,0,1,1,10.15-10.15L184.11,174A7.18,7.18,0,0,1,179,186.21Z"/><path class="cls-12" d="M22.18,144.2a7.18,7.18,0,0,1-1.85-14.12l17-4.54A7.18,7.18,0,0,1,41,139.4l-17,4.54a7.22,7.22,0,0,1-1.86.25Z"/><path class="cls-13" d="M39.15,100.21a7.13,7.13,0,0,1-1.86-.25l-17-4.54A7.18,7.18,0,0,1,24,81.55l17,4.54a7.18,7.18,0,0,1-1.85,14.12Z"/><path class="cls-14" d="M46.46,186.21A7.18,7.18,0,0,1,41.38,174L53.8,161.55A7.18,7.18,0,1,1,64,171.7L51.54,184.11a7.16,7.16,0,0,1-5.08,2.1Z"/><path class="cls-15" d="M113.16,170c-24.78,0-45.27-17.23-53.6-31.83,6.31,17.23,28.83,35.18,53.6,35.18s47.3-17.95,53.6-35.18C158.43,152.8,137.93,170,113.16,170Z"/><path class="cls-16" d="M113.16,57.3c-24.78,0-45.27,15.34-53.6,29.94C65.86,70,88.38,52.06,113.16,52.06s47.3,17.95,53.6,35.18C158.43,72.64,137.93,57.3,113.16,57.3Z"/></g></g></svg>