<svg xmlns="http://www.w3.org/2000/svg" xmlns:xlink="http://www.w3.org/1999/xlink" viewBox="0 0 255.99 222.49"><defs><style>.cls-1{fill:#fff;}.cls-2{fill:url(#linear-gradient);}.cls-3{fill:#fff2a0;}.cls-4{fill:#d68000;}.cls-5{fill:#fed900;}.cls-6{fill:#d9dee1;}.cls-7{fill:url(#linear-gradient-2);}.cls-8{fill:url(#linear-gradient-3);}.cls-9{fill:url(#linear-gradient-4);}</style><linearGradient id="linear-gradient" x1="145.48" y1="24.95" x2="145.48" y2="173.77" gradientUnits="userSpaceOnUse"><stop offset="0" stop-color="#ffdb00"/><stop offset="1" stop-color="#e8a300"/></linearGradient><linearGradient id="linear-gradient-2" x1="-96.29" y1="253.75" x2="-96.29" y2="317.62" gradientTransform="translate(190.56 -107.19) rotate(1.39)" gradientUnits="userSpaceOnUse"><stop offset="0" stop-color="#fff"/><stop offset="1" stop-color="#c7c7c7"/></linearGradient><linearGradient id="linear-gradient-3" x1="-93.57" y1="266.6" x2="-92.75" y2="312.41" xlink:href="#linear-gradient-2"/><linearGradient id="linear-gradient-4" x1="86.49" y1="182.7" x2="86.49" y2="207.98" gradientUnits="userSpaceOnUse"><stop offset="0" stop-color="#dfdfdf"/><stop offset="1" stop-color="#a8a8a8"/></linearGradient></defs><title>Ресурс 31weather2</title><g id="Слой_2" data-name="Слой 2"><g id="icons"><path class="cls-1" d="M234.81,113.08a28.58,28.58,0,0,0-5.78.62,118,118,0,0,1-23.92,2.37c-20,0-85.28-5.46-85.28-75.7a94.07,94.07,0,0,1,1.39-16.43c1.14-6.43-.32-12.47-4.12-17A19.79,19.79,0,0,0,101.59,0,30.07,30.07,0,0,0,87.9,3.63,97.73,97.73,0,0,0,57.07,28.42c-14.68,18-22.12,40.44-22.12,66.83a123.82,123.82,0,0,0,1.92,22.06,30.85,30.85,0,0,0-12.76,13.14,29.79,29.79,0,0,0-2,5,39.49,39.49,0,0,0-5.75,3.93,45.78,45.78,0,0,0-13.2,18.17A42.74,42.74,0,0,0,.47,179.92,38.18,38.18,0,0,0,12.7,202.55c7,6.38,17.19,11.28,30.2,14.57,11.54,3.13,25.48,4.92,41.46,5.3,1.86,0,3.74.07,5.58.07a165.77,165.77,0,0,0,36.9-3.69c16.21-3.45,28.54-9.56,36.65-18.16l.27-.29c21.78-1.92,41.69-8.52,57.79-19.21a96,96,0,0,0,29.65-30.88c5.55-9.31,6.32-19.36,2-26.89C249.54,116.83,242.82,113.08,234.81,113.08Z"/><path class="cls-2" d="M104.83,40.37a108.59,108.59,0,0,1,1.62-19.06c1.19-6.68-4.83-7.91-11.63-4.37a82.83,82.83,0,0,0-26.14,21C56.89,52.34,49.94,71.45,49.94,95.25c0,60.52,44.89,90.7,100.28,90.7,23.89,0,45.82-5.88,63-17.32a81.16,81.16,0,0,0,25.06-26.07c4.94-8.27,3.23-16.15-6.24-14.18a132.78,132.78,0,0,1-27,2.68C149.72,131.07,104.83,100.89,104.83,40.37Z"/><path class="cls-3" d="M102.53,17.81c-2.66-1.14-8.74,1.21-13.86,5.25,5.79-2.15,10.09-3.63,12.24-2.42,1.53.86,2.69,4.44,2.69,7.4C105.36,23.46,105.36,19,102.53,17.81Z"/><path class="cls-4" d="M149.21,182.38c25.47,0,54.53-7.89,71.39-23.32-18.29,7.89-42.33,17.22-70.31,17.22s-43-4.66-58.83-9.69A109.78,109.78,0,0,0,149.21,182.38Z"/><path class="cls-5" d="M228.43,132c-24.49,7.34-66.11,5.24-93.12-13.9S102.37,68.83,103.5,59.42c2.73,10,10.76,40.37,35.32,56.13C162.86,131,203.94,137.35,228.43,132Z"/><path class="cls-6" d="M84.73,207.18c-29.55-.71-51.55-6.3-61.94-15.74a23.33,23.33,0,0,1-7.49-13.82,27.75,27.75,0,0,1,1.82-14.5A30.53,30.53,0,0,1,25.89,151a22,22,0,0,1,10.29-4.85,14.12,14.12,0,0,1,1.34-8.94,16.26,16.26,0,0,1,14.93-8.77,17.16,17.16,0,0,1,5.83,1.18,25.08,25.08,0,0,1,9.53-11.21A34.25,34.25,0,0,1,87.28,113a39.08,39.08,0,0,1,21.31,7.23,31,31,0,0,1,11.76,15.66c1.56-.1,3.1-.14,4.59-.1,9.62.23,17.94,3.38,24,9.09s10,14.23,10.82,24.23a26.47,26.47,0,0,1-7.23,21.18c-14.83,15.71-48.88,17.29-67.86,16.83Z"/><path class="cls-7" d="M87.16,118.4c12.91.31,27.57,9.43,29.89,24.16,21.27-3.06,36.72,8.12,38.44,30.07,2.32,29.72-39,35.57-70.76,34.8s-50.78-7.24-59.16-15.16c-15.8-14.92.78-43.92,17.23-39.14-8.7-11.6,6.23-25.26,18.06-15.21C62.56,125.11,75.09,118.11,87.16,118.4Z"/><path class="cls-6" d="M90.4,198.12c-7.14-.17-30.15-2-40.87-14.32-6.55-7.51-5.59-16.43.56-23.32,5.29-5.93,11.68-6,16.07-5.9A24.9,24.9,0,0,1,73,155.71a12.6,12.6,0,0,1,2.55-6c3.21-4.18,9-6.82,15.15-6.9H92a25.83,25.83,0,0,1,13.91,4,17.51,17.51,0,0,1,7.12,9.74,31.2,31.2,0,0,1,3.21-.09c7.07.17,15.87,2.8,19.32,9.67s.25,18.95-9.84,26.4C117.35,198.77,90.4,198.12,90.4,198.12Z"/><path class="cls-8" d="M130.89,190.68c-6.64,12.23-20.17,15.35-32.7,15.27-13.25-.08-28.92-.8-40.64-7.85-7.39-4.44-13.84-17.35-9.43-27.17,4.48-10,18.51-13.51,28.17-7.73-2.14-8.7,6.06-14.7,14.41-14.81,9.5-.12,18.26,4.22,19.65,14.4,7.12-1.38,18.3.5,21.85,7.86C135.54,177.55,134.36,184.29,130.89,190.68Z"/><path class="cls-9" d="M86.92,180.2c-27.58,0-60.85-1.94-60.85,6.11s23.32,19.45,60.57,19.45,60.29-10.84,60.29-17.23S108.25,180.2,86.92,180.2Z"/><path class="cls-6" d="M70.35,130.09c12-.4,19.82,6,18.69,16-2-6.93-8.28-9.51-18.09-10.07s-15.74,4.66-17.32,9.43C53.32,136.22,61.67,130.38,70.35,130.09Z"/></g></g></svg>