<svg xmlns="http://www.w3.org/2000/svg" xmlns:xlink="http://www.w3.org/1999/xlink" viewBox="0 0 208.49 236.89"><defs><style>.cls-1{fill:#fff;}.cls-2{fill:#d9dee1;}.cls-3{fill:url(#linear-gradient);}.cls-4{fill:url(#linear-gradient-2);}.cls-5{fill:url(#linear-gradient-3);}.cls-6{fill:url(#linear-gradient-4);}.cls-7{fill:url(#linear-gradient-5);}.cls-8{fill:#fdfa8a;}</style><linearGradient id="linear-gradient" x1="-57.11" y1="198.66" x2="-57.11" y2="277.31" gradientTransform="translate(167 -143.89) rotate(1.39)" gradientUnits="userSpaceOnUse"><stop offset="0" stop-color="#fff"/><stop offset="1" stop-color="#c7c7c7"/></linearGradient><linearGradient id="linear-gradient-2" x1="-53.75" y1="214.47" x2="-52.75" y2="270.9" xlink:href="#linear-gradient"/><linearGradient id="linear-gradient-3" x1="103.06" y1="100.8" x2="103.06" y2="131.94" gradientUnits="userSpaceOnUse"><stop offset="0" stop-color="#dfdfdf"/><stop offset="1" stop-color="#a8a8a8"/></linearGradient><linearGradient id="linear-gradient-4" x1="105.71" y1="56.95" x2="105.71" y2="322.1" gradientUnits="userSpaceOnUse"><stop offset="0" stop-color="#ffdb00"/><stop offset="1" stop-color="#e8a300"/></linearGradient><linearGradient id="linear-gradient-5" x1="104.66" y1="74.52" x2="104.66" y2="251.43" gradientUnits="userSpaceOnUse"><stop offset="0" stop-color="#ffdb00"/><stop offset="1" stop-color="#f4d936"/></linearGradient></defs><title>Ресурс 20weather2</title><g id="Слой_2" data-name="Слой 2"><g id="icons"><path class="cls-1" d="M190.28,43.33c-9.46-8.85-21.82-14-35.92-15.06A55.42,55.42,0,0,0,139,11.74,63.48,63.48,0,0,0,104.39,0L103,0A57.33,57.33,0,0,0,71.81,9.05a47.93,47.93,0,0,0-11,9.89h-.24A35.19,35.19,0,0,0,29.33,38a33.14,33.14,0,0,0-2.58,6.94,45,45,0,0,0-7.84,5.17,52.85,52.85,0,0,0-15.23,21A49.16,49.16,0,0,0,.54,96.84a43.57,43.57,0,0,0,14,25.83c8.23,7.47,20.26,13.25,35.75,17.16,4.61,1.25,9.56,2.32,14.81,3.22-.3.75-.6,1.51-.85,2.31l-1.49,4.57c-2.3,7.07-5.46,16.74-7.71,24.5-.24.83-.45,1.65-.63,2.52-.08.36-.14.71-.2,1.06l0,.2c-.07.4-.14.81-.19,1.2s-.11.93-.14,1.31l0,.25c0,.36-.06.73-.07,1,0,.48,0,.94,0,1.44,0,.34,0,.68,0,1l.5,12.16,3.77.63c4.13,5.77,10.87,9.17,18.73,9.17H84l-1.42,3.22c-2.9,6.56-2.54,13.44,1,18.88a19,19,0,0,0,16.09,8.41,24.46,24.46,0,0,0,18-8.41c7.34-8.36,25.88-30,34-39.87,6.88-8.38,6.72-15.88,5.38-20.7-1.8-6.44-6.83-11.55-13.83-14l-.1,0c-.67-.23-1.35-.44-2-.62a30.59,30.59,0,0,0-3.89-.76l-.22,0c-.59-.07-1.18-.13-1.79-.17h-.25c-.59,0-1.17-.05-1.75-.05H127a25.66,25.66,0,0,0,.83-6.71,171.45,171.45,0,0,0,24.06-3.61c19.3-4.1,33.91-11.29,43.42-21.37,9.65-10.23,14.13-23.24,12.94-37.62C207,66.8,200.75,53.12,190.28,43.33Z"/><path class="cls-2" d="M100.88,130.94c-36.4-.88-63.49-7.76-76.29-19.38a28.74,28.74,0,0,1-9.23-17,34.17,34.17,0,0,1,2.25-17.86,37.61,37.61,0,0,1,10.8-15,27.14,27.14,0,0,1,12.67-6,17.38,17.38,0,0,1,1.65-11,20,20,0,0,1,18.39-10.8,21.08,21.08,0,0,1,7.18,1.46A30.92,30.92,0,0,1,80,21.59,42.21,42.21,0,0,1,104,15a48.12,48.12,0,0,1,26.25,8.91,38.22,38.22,0,0,1,14.48,19.29c1.92-.13,3.81-.17,5.65-.13,11.85.29,22.09,4.16,29.62,11.2,7.7,7.2,12.31,17.52,13.32,29.84.84,10.16-2.16,18.94-8.9,26.09-18.26,19.35-60.2,21.29-83.57,20.73Z"/><path class="cls-3" d="M103.87,21.6c15.9.38,34,11.61,36.81,29.75,26.19-3.77,45.22,10,47.34,37,2.86,36.6-48.09,43.81-87.15,42.86S38.33,122.33,28,112.58C8.55,94.21,29,58.49,49.23,64.37,38.51,50.08,56.9,33.26,71.47,45.64,73.58,29.86,89,21.24,103.87,21.6Z"/><path class="cls-2" d="M107.86,119.79c-8.79-.21-37.13-2.49-50.33-17.64-8.06-9.26-6.88-20.24.69-28.72C64.75,66.13,72.61,66,78,66.16a30.63,30.63,0,0,1,8.44,1.38,15.55,15.55,0,0,1,3.14-7.35c4-5.15,11.1-8.41,18.65-8.49h1.51a31.81,31.81,0,0,1,17.13,5,21.58,21.58,0,0,1,8.77,12,38.4,38.4,0,0,1,4-.11c8.71.21,19.54,3.45,23.8,11.91s.3,23.33-12.11,32.52C141.06,120.59,107.86,119.79,107.86,119.79Z"/><path class="cls-4" d="M157.74,110.62c-8.18,15.06-24.84,18.91-40.28,18.81-16.31-.1-35.62-1-50-9.67-9.1-5.47-17.05-21.37-11.62-33.46,5.52-12.29,22.8-16.64,34.7-9.52-2.63-10.71,7.46-18.1,17.75-18.24,11.7-.15,22.49,5.2,24.21,17.73,8.77-1.7,22.53.62,26.91,9.68C163.46,94.46,162,102.75,157.74,110.62Z"/><path class="cls-5" d="M103.58,97.72c-34,0-75-2.4-75,7.53s28.72,24,74.6,24,74.25-13.35,74.25-21.22S129.85,97.72,103.58,97.72Z"/><path class="cls-2" d="M83.17,36c14.78-.49,24.41,7.44,23,19.72C103.67,47.19,96,44,83.91,43.32S64.53,49.06,62.58,54.94C62.2,43.55,72.48,36.36,83.17,36Z"/><path class="cls-6" d="M133.17,167.2H104.28c3.27-7.21,6.24-13.74,7.18-15.79,4.78-10.43-3.6-13.26-7-13.26H94.12A16.48,16.48,0,0,0,78.48,150c-2.25,7-6.37,19.35-9.07,28.64-2.4,8.26,1.25,12.77,7.28,12.77H107L96.28,215.67c-3.11,7,5.44,8.24,10.12,2.91,7.66-8.71,25.9-30,33.67-39.49C146.77,170.93,139.62,167.2,133.17,167.2Z"/><path class="cls-7" d="M140.65,169.28a13,13,0,0,0-7.48-2.08H104.28c3.27-7.21,6.24-13.74,7.18-15.79,4.78-10.43-3.6-13.26-7-13.26H94.12A16.48,16.48,0,0,0,78.48,150c-2.25,7-6.37,19.35-9.07,28.64a16.53,16.53,0,0,0-.73,5.2C81.06,187.19,131.23,178.71,140.65,169.28Z"/><path class="cls-8" d="M96.87,140.29c-14.61,0-14.24,8.32-14.24,8.32s2.4-5,14.24-5,14.05,4.62,14.05,4.62S111.48,140.29,96.87,140.29Z"/></g></g></svg>