<svg xmlns="http://www.w3.org/2000/svg" xmlns:xlink="http://www.w3.org/1999/xlink" viewBox="0 0 254.07 220.46"><defs><style>.cls-1{fill:#fff;}.cls-2{fill:url(#linear-gradient);}.cls-3{fill:#fff2a0;}.cls-4{fill:#d68000;}.cls-5{fill:#fed900;}.cls-6{fill:#cbcbcb;}.cls-7{fill:url(#linear-gradient-2);}.cls-8{fill:url(#linear-gradient-3);}.cls-9{fill:url(#linear-gradient-4);}</style><linearGradient id="linear-gradient" x1="143.56" y1="24.95" x2="143.56" y2="173.77" gradientUnits="userSpaceOnUse"><stop offset="0" stop-color="#ffdb00"/><stop offset="1" stop-color="#e8a300"/></linearGradient><linearGradient id="linear-gradient-2" x1="-98.24" y1="246.37" x2="-98.24" y2="308.61" gradientTransform="translate(190.47 -100.19) rotate(1.39)" gradientUnits="userSpaceOnUse"><stop offset="0.02" stop-color="#a9a9a9"/><stop offset="1" stop-color="#616161"/></linearGradient><linearGradient id="linear-gradient-3" x1="-95.59" y1="258.89" x2="-94.79" y2="303.54" xlink:href="#linear-gradient-2"/><linearGradient id="linear-gradient-4" x1="84.67" y1="181.3" x2="84.67" y2="205.94" gradientUnits="userSpaceOnUse"><stop offset="0" stop-color="gray"/><stop offset="1" stop-color="#5f5f5f"/></linearGradient></defs><title>Ресурс 32weather2</title><g id="Слой_2" data-name="Слой 2"><g id="icons"><path class="cls-1" d="M12.5,200.93c6.89,6.25,16.83,11.06,29.55,14.28C53.33,218.27,67,220,82.59,220.4c1.79,0,3.6.07,5.44.07a161.87,161.87,0,0,0,36.06-3.61c14.87-3.17,26.41-8.63,34.35-16.24,23.13-1.51,44.22-8.21,61.2-19.48a96,96,0,0,0,29.65-30.88c5.55-9.31,6.32-19.36,2-26.89-3.71-6.53-10.43-10.28-18.44-10.28a28.58,28.58,0,0,0-5.78.62,118,118,0,0,1-23.92,2.37c-20,0-85.28-5.46-85.28-75.7a93.77,93.77,0,0,1,1.39-16.43c1.14-6.43-.32-12.47-4.12-17A19.79,19.79,0,0,0,99.67,0,30.06,30.06,0,0,0,86,3.63,97.71,97.71,0,0,0,55.14,28.42C40.46,46.38,33,68.87,33,95.25a123.65,123.65,0,0,0,2,22.63,30.52,30.52,0,0,0-11.51,12.33A29.57,29.57,0,0,0,21.63,135a38.94,38.94,0,0,0-5.53,3.79,45,45,0,0,0-13,17.86,42,42,0,0,0-2.68,22A37.61,37.61,0,0,0,12.5,200.93Z"/><path class="cls-2" d="M102.91,40.37a108.4,108.4,0,0,1,1.62-19.06c1.19-6.68-4.83-7.91-11.63-4.37a82.84,82.84,0,0,0-26.14,21C55,52.34,48,71.45,48,95.25,48,155.78,92.91,186,148.3,186c23.89,0,45.82-5.88,63-17.32a81.17,81.17,0,0,0,25.06-26.07c4.94-8.27,3.23-16.15-6.25-14.18a132.76,132.76,0,0,1-27,2.68C147.8,131.07,102.91,100.89,102.91,40.37Z"/><path class="cls-3" d="M100.61,17.81c-2.66-1.14-8.74,1.21-13.86,5.25C92.54,20.9,96.84,19.42,99,20.63c1.53.86,2.69,4.44,2.69,7.4C103.43,23.46,103.43,19,100.61,17.81Z"/><path class="cls-4" d="M147.29,182.38c25.47,0,54.53-7.89,71.39-23.32-18.29,7.89-42.33,17.22-70.31,17.22s-43-4.66-58.83-9.69A109.78,109.78,0,0,0,147.29,182.38Z"/><path class="cls-5" d="M226.51,132c-24.49,7.34-66.11,5.24-93.12-13.9s-32.94-49.26-31.81-58.68c2.73,10,10.76,40.37,35.32,56.13C160.94,131,202,137.35,226.51,132Z"/><path class="cls-6" d="M83,205.16c-28.8-.7-50.24-6.14-60.37-15.33a22.75,22.75,0,0,1-7.3-13.47,27,27,0,0,1,1.78-14.13,29.77,29.77,0,0,1,8.55-11.83,21.46,21.46,0,0,1,10-4.72,13.75,13.75,0,0,1,1.3-8.71,15.84,15.84,0,0,1,14.55-8.54,16.65,16.65,0,0,1,5.68,1.15,24.46,24.46,0,0,1,9.29-10.93,33.39,33.39,0,0,1,19-5.21,38.09,38.09,0,0,1,20.77,7,30.25,30.25,0,0,1,11.46,15.26c1.52-.1,3-.13,4.47-.1,9.38.23,17.48,3.29,23.44,8.86s9.74,13.86,10.54,23.61a25.81,25.81,0,0,1-7,20.64c-14.45,15.31-47.63,16.85-66.13,16.4Z"/><path class="cls-7" d="M85.32,118.64c12.58.3,26.87,9.19,29.13,23.54,20.73-3,35.78,7.91,37.46,29.3,2.26,29-38.05,34.66-69,33.92s-49.48-7.06-57.65-14.77c-15.4-14.54.76-42.8,16.79-38.15-8.48-11.31,6.07-24.62,17.6-14.82C61.35,125.17,73.56,118.35,85.32,118.64Z"/><path class="cls-6" d="M88.48,196.33c-7-.17-29.38-2-39.83-14-6.38-7.32-5.44-16,.55-22.72,5.16-5.78,11.38-5.86,15.67-5.75a24.22,24.22,0,0,1,6.68,1.1A12.29,12.29,0,0,1,74,149.18c3.13-4.08,8.78-6.65,14.76-6.72H90a25.17,25.17,0,0,1,13.55,3.93,17.07,17.07,0,0,1,6.94,9.49,30.47,30.47,0,0,1,3.13-.08c6.89.17,15.46,2.73,18.83,9.42s.24,18.46-9.59,25.73C114.75,197,88.48,196.33,88.48,196.33Z"/><path class="cls-8" d="M127.94,189.07C121.47,201,108.28,204,96.07,204c-12.91-.08-28.18-.78-39.6-7.65C49.27,192,43,179.4,47.28,169.83c4.37-9.73,18-13.16,27.45-7.54-2.08-8.47,5.91-14.33,14-14.43,9.25-.12,17.8,4.11,19.15,14,6.94-1.34,17.83.49,21.29,7.66C132.47,176.29,131.32,182.85,127.94,189.07Z"/><path class="cls-9" d="M85.09,178.86c-26.88,0-59.3-1.9-59.3,6s22.72,19,59,19,58.75-10.56,58.75-16.79S105.87,178.86,85.09,178.86Z"/><path class="cls-6" d="M68.94,130c11.69-.39,19.32,5.89,18.21,15.61-2-6.75-8.07-9.27-17.62-9.81S54.19,140.37,52.65,145C52.35,136,60.48,130.32,68.94,130Z"/></g></g></svg>