<svg xmlns="http://www.w3.org/2000/svg" xmlns:xlink="http://www.w3.org/1999/xlink" viewBox="0 0 245.93 247.92"><defs><style>.cls-1{fill:#fff;}.cls-2{fill:url(#linear-gradient);}.cls-3{fill:url(#linear-gradient-2);}.cls-4{fill:url(#linear-gradient-3);}.cls-5{fill:url(#linear-gradient-4);}.cls-6{fill:url(#linear-gradient-5);}.cls-7{fill:url(#linear-gradient-6);}.cls-8{fill:#999595;}.cls-9{fill:url(#linear-gradient-7);}.cls-10{fill:#eaeaea;}.cls-11{fill:#ffb0a2;}.cls-12{fill:url(#linear-gradient-8);}.cls-13{fill:#ffb2a5;}.cls-14{fill:#961404;}</style><linearGradient id="linear-gradient" x1="83.93" y1="111.68" x2="83.93" y2="227.35" gradientUnits="userSpaceOnUse"><stop offset="0" stop-color="#d4d5d5"/><stop offset="1" stop-color="#a8a8a8"/></linearGradient><linearGradient id="linear-gradient-2" x1="83.93" y1="114.55" x2="83.93" y2="225.65" xlink:href="#linear-gradient"/><linearGradient id="linear-gradient-3" x1="83.93" y1="36.06" x2="83.93" y2="210.53" gradientUnits="userSpaceOnUse"><stop offset="0" stop-color="#f5f5f5"/><stop offset="1" stop-color="#cfcfcf"/></linearGradient><linearGradient id="linear-gradient-4" x1="83.69" y1="34.89" x2="83.69" y2="210.82" gradientUnits="userSpaceOnUse"><stop offset="0" stop-color="#ededed"/><stop offset="1" stop-color="#cfcfcf"/></linearGradient><linearGradient id="linear-gradient-5" x1="83.69" y1="61.45" x2="83.69" y2="214" gradientUnits="userSpaceOnUse"><stop offset="0" stop-color="#ff5b3f"/><stop offset="1" stop-color="#bf2200"/></linearGradient><linearGradient id="linear-gradient-6" x1="83.93" y1="92.55" x2="83.93" y2="200.23" xlink:href="#linear-gradient-5"/><linearGradient id="linear-gradient-7" x1="83.54" y1="149.33" x2="83.54" y2="172.3" gradientUnits="userSpaceOnUse"><stop offset="0" stop-color="#ff927f"/><stop offset="1" stop-color="#d03110"/></linearGradient><linearGradient id="linear-gradient-8" x1="178.28" y1="46.33" x2="180.89" y2="119.33" xlink:href="#linear-gradient-5"/></defs><title>Ресурс 26weather2</title><g id="Слой_2" data-name="Слой 2"><g id="icons"><path class="cls-1" d="M83.93,247.92c46.28,0,83.93-33.79,83.93-75.31a70.13,70.13,0,0,0-16-44.33,247.54,247.54,0,0,0,28.43,1.43c31.14,0,51.09-3.94,59.29-11.71,7.4-7,8.35-17.58,2.83-31.42-4.42-11.08-14.18-26.38-24.88-39C203.37,31,190.84,22.52,180.28,22.52S157.18,31,143,47.61c-2.83,3.33-5.59,6.86-8.21,10.44V45.62c0-11.27-5.4-22.74-14.81-31.46A53.86,53.86,0,0,0,83.22,0C50.47,0,33,26.49,33,45.62v67.07C12.24,126.86,0,148.88,0,172.61,0,214.13,37.65,247.92,83.93,247.92Z"/><path class="cls-2" d="M119.83,160.4A23.93,23.93,0,0,1,95.9,184.33H72A23.93,23.93,0,0,1,48,160.4V45.62C48,32.4,60.72,15,83.22,15s36.61,17.4,36.61,30.62Z"/><ellipse class="cls-3" cx="83.93" cy="172.61" rx="68.93" ry="60.31"/><path class="cls-4" d="M83.93,211.08c-23.49,0-42.6-17.26-42.6-38.47s19.11-38.47,42.6-38.47,42.6,17.26,42.6,38.47-19.11,38.47-42.6,38.47Z"/><path class="cls-5" d="M83.69,176.77a23,23,0,0,1-23-23V55a23,23,0,0,1,45.95,0V153.8a23,23,0,0,1-23,23Z"/><path class="cls-6" d="M83.69,42.44a13.4,13.4,0,0,0-13.4,13.4v98a13.4,13.4,0,0,0,26.8,0v-98A13.4,13.4,0,0,0,83.69,42.44Z"/><ellipse class="cls-7" cx="83.93" cy="172.61" rx="33.03" ry="28.9"/><path class="cls-8" d="M84.17,223.51c-22,0-45.68-14.36-57.75-23.93,8.93,12.92,29.4,30.15,57.75,30.15s48.83-17.23,57.75-30.15C129.85,209.15,106.22,223.51,84.17,223.51Z"/><ellipse class="cls-9" cx="83.54" cy="159.54" rx="21.7" ry="12.13"/><path class="cls-10" d="M83.86,17.87c-12.12,0-29.58,10.05-30.55,22.26,3.64-9.33,19.16-17.71,30.55-17.71s26.91,8.38,30.55,17.71C113.44,27.92,96,17.87,83.86,17.87Z"/><path class="cls-11" d="M83.62,44.55c-4.65,0-11.35,4.14-11.73,9.17,1.4-3.85,7.35-6.54,11.73-6.54s10.33,2.69,11.72,6.54C95,48.7,88.27,44.55,83.62,44.55Z"/><path class="cls-8" d="M119.83,70.84H104.11a4.31,4.31,0,1,0,0,8.62h15.72Z"/><path class="cls-8" d="M119.83,90.14H104.11a4.31,4.31,0,1,0,0,8.61h15.72Z"/><path class="cls-8" d="M119.83,51.53H104.11a4.31,4.31,0,1,0,0,8.62h15.72Z"/><path class="cls-8" d="M119.83,109.44H104.11a4.31,4.31,0,1,0,0,8.62h15.72Z"/><path class="cls-12" d="M131.31,107.11c-10.69-10.12,32.65-69.6,49-69.6s59.65,59.47,49,69.6S142,117.24,131.31,107.11Z"/><path class="cls-1" d="M175.05,83a3.58,3.58,0,0,0,1.53,2.83A5.68,5.68,0,0,0,180,86.92a6.36,6.36,0,0,0,3.62-1A3.48,3.48,0,0,0,185.39,83l1.47-20.57a6.57,6.57,0,0,0-1.58-5.26,7.73,7.73,0,0,0-10-.06,6.83,6.83,0,0,0-1.58,5.37Z"/><path class="cls-1" d="M184.85,93.42a6.55,6.55,0,0,0-4.59-1.75,6.48,6.48,0,0,0-4.54,1.7,5.49,5.49,0,0,0-1.91,4.18,5.4,5.4,0,0,0,1.86,4.13,6.56,6.56,0,0,0,4.59,1.75,6.67,6.67,0,0,0,4.59-1.7,5.49,5.49,0,0,0,1.91-4.18A5.34,5.34,0,0,0,184.85,93.42Z"/><path class="cls-13" d="M180.28,40.48c-4.72,0-14.18,7.71-17.82,12.52,5-3.06,13.95-9.46,17.82-9.46S193.15,49.94,198.1,53C194.46,48.2,185,40.48,180.28,40.48Z"/><path class="cls-14" d="M180.28,108.76c-12,0-36.16-.44-45.62-1.89,10.19,4.8,33.77,5.68,45.62,5.68s35.43-.87,45.62-5.68C216.44,108.32,192.3,108.76,180.28,108.76Z"/></g></g></svg>