<svg xmlns="http://www.w3.org/2000/svg" xmlns:xlink="http://www.w3.org/1999/xlink" viewBox="0 0 208.49 212.2"><defs><style>.cls-1{fill:#fff;}.cls-2{fill:url(#linear-gradient);}.cls-3{fill:url(#linear-gradient-2);}.cls-4{fill:#fdfa8a;}.cls-5{fill:url(#linear-gradient-3);}.cls-6{fill:url(#linear-gradient-4);}.cls-7{fill:url(#linear-gradient-5);}.cls-8{fill:url(#linear-gradient-6);}.cls-9{fill:#d9dee1;}.cls-10{fill:url(#linear-gradient-7);}.cls-11{fill:url(#linear-gradient-8);}.cls-12{fill:url(#linear-gradient-9);}</style><linearGradient id="linear-gradient" x1="105.71" y1="52.23" x2="105.71" y2="285.27" gradientUnits="userSpaceOnUse"><stop offset="0" stop-color="#ffdb00"/><stop offset="1" stop-color="#e8a300"/></linearGradient><linearGradient id="linear-gradient-2" x1="104.79" y1="67.68" x2="104.79" y2="223.16" gradientUnits="userSpaceOnUse"><stop offset="0" stop-color="#ffdb00"/><stop offset="1" stop-color="#f4d936"/></linearGradient><linearGradient id="linear-gradient-3" x1="48.5" y1="88.21" x2="48.5" y2="231.36" xlink:href="#linear-gradient"/><linearGradient id="linear-gradient-4" x1="47.93" y1="97.7" x2="47.93" y2="193.21" xlink:href="#linear-gradient-2"/><linearGradient id="linear-gradient-5" x1="162.93" y1="88.21" x2="162.93" y2="231.36" xlink:href="#linear-gradient"/><linearGradient id="linear-gradient-6" x1="162.36" y1="97.7" x2="162.36" y2="193.21" xlink:href="#linear-gradient-2"/><linearGradient id="linear-gradient-7" x1="-57.13" y1="191.39" x2="-57.13" y2="270.05" gradientTransform="translate(166.84 -136.62) rotate(1.39)" gradientUnits="userSpaceOnUse"><stop offset="0" stop-color="#fff"/><stop offset="1" stop-color="#c7c7c7"/></linearGradient><linearGradient id="linear-gradient-8" x1="-53.78" y1="207.2" x2="-52.77" y2="263.63" xlink:href="#linear-gradient-7"/><linearGradient id="linear-gradient-9" x1="103.05" y1="100.8" x2="103.05" y2="131.94" gradientUnits="userSpaceOnUse"><stop offset="0" stop-color="#dfdfdf"/><stop offset="1" stop-color="#a8a8a8"/></linearGradient></defs><title>Ресурс 21weather2</title><g id="Слой_2" data-name="Слой 2"><g id="icons"><path class="cls-1" d="M195.36,120.51c9.65-10.23,14.13-23.23,12.94-37.62-1.33-16.09-7.56-29.78-18-39.56-9.46-8.85-21.82-14-35.92-15.06A55.44,55.44,0,0,0,139,11.74,63.49,63.49,0,0,0,104.39,0l-1.44,0A57.29,57.29,0,0,0,71.81,9.05a47.89,47.89,0,0,0-11,9.89h-.23A35.19,35.19,0,0,0,29.33,38a33.16,33.16,0,0,0-2.58,6.94,44.92,44.92,0,0,0-7.84,5.17,52.88,52.88,0,0,0-15.23,21A49.2,49.2,0,0,0,.54,96.84a43.6,43.6,0,0,0,14,25.83,55.74,55.74,0,0,0,7.54,5.7,24.92,24.92,0,0,0-2.51,5.43l-.84,2.6c-1.25,3.83-3,9.09-4.19,13.31-.18.62-.33,1.22-.47,1.88-.06.3-.12.59-.15.81v0c-.07.35-.12.7-.15.94s-.08.69-.12,1.16c0,.29,0,.59-.06.83,0,.41,0,.8,0,1.23v.3l0,.37A18.93,18.93,0,0,0,28,175.22a16.69,16.69,0,0,0,2.72,9.36,17.13,17.13,0,0,0,14.47,7.68,19.92,19.92,0,0,0,14.91-6.88C61.33,184,63.07,182,65,179.72a22.06,22.06,0,0,0,15.16,5.66h3.62l-.12.28c-2.81,6.34-2.43,13,1,18.32a18.5,18.5,0,0,0,15.66,8.21h0a23.34,23.34,0,0,0,17.2-8c5.21-5.93,16.79-19.42,24.83-29h0a16.72,16.72,0,0,0,2.72,9.37,17.13,17.13,0,0,0,14.47,7.67,19.92,19.92,0,0,0,14.91-6.88c4-4.55,14.09-16.32,18.5-21.7a20.68,20.68,0,0,0,4.55-9.37l7-6.88L190.85,136.9l-1.1-.83-.53-.27c-.47-.29-1-.55-1.46-.8l-.24-.13-.46-.2a21.19,21.19,0,0,0-3-1.09l-.46-.12c-.66-.17-1.33-.31-2-.42-.1-.59-.23-1.14-.37-1.67A59.7,59.7,0,0,0,195.36,120.51Z"/><path class="cls-2" d="M129.84,149.13H104.45c2.88-6.34,5.49-12.08,6.31-13.88,4.2-9.17-3.17-11.65-6.11-11.65H95.52A14.49,14.49,0,0,0,81.78,134c-2,6.12-5.6,17-8,25.18-2.11,7.26,1.1,11.23,6.4,11.23h26.66l-9.45,21.35c-2.74,6.18,4.78,7.24,8.9,2.56,6.73-7.66,22.76-26.39,29.59-34.71C141.79,152.41,135.51,149.13,129.84,149.13Z"/><path class="cls-3" d="M136.42,151a11.41,11.41,0,0,0-6.58-1.83H104.45c2.88-6.34,5.49-12.08,6.31-13.88,4.2-9.17-3.17-11.65-6.11-11.65H95.52A14.49,14.49,0,0,0,81.78,134c-2,6.12-5.6,17-8,25.18a14.55,14.55,0,0,0-.64,4.57C84,166.7,128.14,159.25,136.42,151Z"/><path class="cls-4" d="M97.94,125.48c-12.84,0-12.51,7.31-12.51,7.31s2.11-4.39,12.51-4.39,12.35,4.06,12.35,4.06S110.78,125.48,97.94,125.48Z"/><path class="cls-5" d="M63.32,147.73H47.73l3.87-8.52c2.58-5.63-1.94-7.16-3.75-7.16H42.24a8.9,8.9,0,0,0-8.44,6.38c-1.21,3.76-3.44,10.45-4.89,15.46-1.3,4.46.68,6.9,3.93,6.9H49.21l-5.8,13.11c-1.68,3.8,2.94,4.45,5.46,1.57,4.13-4.7,14-16.21,18.18-21.32C70.66,149.75,66.81,147.73,63.32,147.73Z"/><path class="cls-6" d="M67.36,148.86a7,7,0,0,0-4-1.12H47.73l3.87-8.52c2.58-5.63-1.94-7.16-3.75-7.16H42.24a8.9,8.9,0,0,0-8.44,6.38c-1.21,3.76-3.44,10.45-4.89,15.46a8.86,8.86,0,0,0-.39,2.81C35.19,158.53,62.27,153.95,67.36,148.86Z"/><path class="cls-4" d="M43.73,133.21c-7.89,0-7.69,4.49-7.69,4.49s1.3-2.7,7.69-2.7,7.58,2.49,7.58,2.49S51.61,133.21,43.73,133.21Z"/><path class="cls-7" d="M177.75,147.73h-15.6l3.87-8.52c2.58-5.63-1.94-7.16-3.75-7.16h-5.61a8.9,8.9,0,0,0-8.44,6.38c-1.21,3.76-3.44,10.45-4.89,15.46-1.3,4.46.67,6.9,3.93,6.9h16.38l-5.8,13.11c-1.68,3.8,2.94,4.45,5.46,1.57,4.13-4.7,14-16.21,18.18-21.32C185.09,149.75,181.23,147.73,177.75,147.73Z"/><path class="cls-8" d="M181.79,148.86a7,7,0,0,0-4-1.12h-15.6l3.87-8.52c2.58-5.63-1.94-7.16-3.75-7.16h-5.61a8.9,8.9,0,0,0-8.44,6.38c-1.21,3.76-3.44,10.45-4.89,15.46a8.93,8.93,0,0,0-.4,2.81C149.62,158.53,176.7,153.95,181.79,148.86Z"/><path class="cls-4" d="M158.15,133.21c-7.88,0-7.69,4.49-7.69,4.49s1.3-2.7,7.69-2.7,7.59,2.49,7.59,2.49S166,133.21,158.15,133.21Z"/><path class="cls-9" d="M100.88,130.94c-36.4-.88-63.49-7.76-76.29-19.38a28.76,28.76,0,0,1-9.23-17,34.2,34.2,0,0,1,2.25-17.86,37.61,37.61,0,0,1,10.8-14.95,27.12,27.12,0,0,1,12.67-6,17.38,17.38,0,0,1,1.65-11,20,20,0,0,1,18.39-10.8,21.11,21.11,0,0,1,7.18,1.46A30.91,30.91,0,0,1,80,21.59,42.18,42.18,0,0,1,104,15a48.12,48.12,0,0,1,26.25,8.91,38.23,38.23,0,0,1,14.48,19.29c1.92-.13,3.81-.17,5.65-.13,11.85.29,22.1,4.16,29.62,11.2,7.7,7.2,12.31,17.52,13.32,29.84.84,10.16-2.16,18.94-8.9,26.09-18.26,19.35-60.2,21.29-83.58,20.73Z"/><path class="cls-10" d="M103.87,21.6c15.9.38,34,11.61,36.81,29.75,26.19-3.77,45.23,10,47.34,37,2.86,36.6-48.09,43.81-87.15,42.86S38.33,122.33,28,112.58C8.55,94.21,29,58.49,49.23,64.37,38.51,50.08,56.9,33.26,71.47,45.64,73.58,29.86,89,21.24,103.87,21.6Z"/><path class="cls-9" d="M107.86,119.79c-8.79-.21-37.13-2.49-50.33-17.64-8.06-9.26-6.88-20.24.7-28.72C64.75,66.13,72.61,66,78,66.16a30.57,30.57,0,0,1,8.44,1.38,15.55,15.55,0,0,1,3.14-7.35c4-5.15,11.1-8.41,18.65-8.49h1.51a31.81,31.81,0,0,1,17.13,5,21.57,21.57,0,0,1,8.77,12,38.43,38.43,0,0,1,4-.11c8.71.21,19.54,3.45,23.8,11.91s.3,23.33-12.12,32.52C141.06,120.59,107.86,119.79,107.86,119.79Z"/><path class="cls-11" d="M157.73,110.62c-8.18,15.06-24.84,18.91-40.28,18.81-16.32-.1-35.62-1-50-9.67-9.1-5.47-17.05-21.37-11.62-33.46C61.31,74,78.59,69.66,90.48,76.78c-2.63-10.71,7.46-18.1,17.75-18.24,11.7-.15,22.49,5.2,24.21,17.73,8.77-1.7,22.53.62,26.91,9.68C163.46,94.46,162,102.75,157.73,110.62Z"/><path class="cls-12" d="M103.58,97.72c-34,0-74.95-2.4-74.95,7.53s28.72,24,74.6,24,74.25-13.34,74.25-21.22S129.85,97.72,103.58,97.72Z"/><path class="cls-9" d="M83.17,36c14.78-.49,24.41,7.44,23,19.72C103.67,47.19,96,44,83.91,43.32S64.53,49.06,62.58,54.94C62.2,43.55,72.48,36.36,83.17,36Z"/></g></g></svg>